<?xml version="1.0" encoding="UTF-8"?>
<svg id="_2" data-name=" 2" xmlns="http://www.w3.org/2000/svg" viewBox="0 0 550.9 368.14">
    <defs>
        <style>
            .cls-1 {
            fill: #fff;
            }

            .cls-2 {
            fill: #a12330;
            }
        </style>
    </defs>
    <path class="cls-1" d="M304.02,179.67c-.83,3.09-5.16,5.36-7.42,5.57-6.19.41-16.9-.62-21.64,4.12-2.27,1.85-2.27,5.77-2.48,8.24-.2,1-1.85,3.51-2.26,4.74-1.68,5.76-3.04,11.61-4.08,17.52-.42,1.65-1.24,2.68-1.86,4.74-.6,6.23-1.56,12.43-2.88,18.55.1,1.72.1,3.43,0,5.15-.62,2.68-2.68,4.74-3.3,8-.41,2.06-1.44,10.3-2.89,12.57.83,2.68.42,5.15.42,7.62-.21,2.49-.54,4.97-1,7.42-1,8.25,6,5.77,5.15,11.75-.21,2.27-1.86,4.95-3.09,7.21-.83,2.48-2.27,5.36-5.77,5.36-5.57,0-9.07-5.56-9.28-9.48,0-3.09-.82-7.42-.62-10.72.42-2.26,2.06-4.53,2.27-6.8l1.44-13c.42-4.33,2.48-8.86,3.3-13.19.21-2.06,0-4.12.21-6.39.2-2.06,1.65-4.12,2.06-6.39.2-2.88-.41-5.77,1.85-9.27-.82-2.89,1.65-12.57,1.65-12.57,1-7.22,3.3-14.63,4.12-21.85.42-2.47.62-4.74-2.68-4.74-6.38-.2-17.72,11.13-23.7,11.34-2.26,0-5.35-1-5.35-3.09,0-5.57,10.3-10.31,16.07-13.4,5.56-3.09,11.95-4.53,17.72-7.21,2.06-.62,5.77-3.3,7.42-3.3,7.42,0,11.34.82,17.52-2.06.62-.62,1.65-.82,2.06-1.44,2.06-4.74,7.42-8.25,12.16-11.75,1.28-.35,2.6-.49,3.92-.41,2.88,0,6,2.47,6,5.36-.1,2.53-4.01,7.06-5.04,11.8Z"/>
    <path class="cls-1" d="M369.76,248.71c-8,7.63-17.73,24.32-22.26,26.79-3.29,5.26-8.32,9.2-14.22,11.13-2.27.83-3.92,2.27-6,3.09-3.41,1.02-6.93,1.63-10.49,1.82-8.24.2-10.71-7.83-11.54-13.4-.2-1.85-1.85-4.53-1.85-6.18-.02-1.53.19-3.06.62-4.53-.21-3.71-.83-7.42-.42-10.72.83-5.77,1.65-12.78,4.13-17.93,0-4.12,5.35-18.55,10.3-27.41.82-1.85,2.89-3.3,4.33-5.15,2.26-2.89,7.42-6.8,11.74-6.8,8.87,0,13.19,9.89,11.75,18.34-1.65,9.89-6.18,15.46-9.68,22.26-.42,1-3.1,3.29-4.33,3.91-2.06,3.5-5.57,5.77-11.34,8.25-.83.43-1.59.98-2.26,1.64-1,1-2.27,5.57-2.68,6.8-.42,3.1,1.85,20.41,7,20.41,3.71,0,10.72-3.09,13.4-5.77,4.53-4.54,9.48-11.75,15.25-16.08,2.88-6,10.3-13.81,11.33-15.25,1.24-1.65,1-3.91,2.27-5.56,1.65-2.27,4.74-4.33,7.63-4.33,2.47,0,4.53,1.85,4.53,3.92,0,3.33-3.09,6.63-7.21,10.75ZM329.36,213.26c-1.29.03-2.46.74-3.09,1.86-3.09,5.36-7.21,20.61-8.65,26.38-.21,1.44.41,3.3,2.06,3.3,3.09,0,9.68-10.31,11.33-12.16.62-3.71,2.48-9.28,3.51-13.81.2-2.68-.38-5.57-5.16-5.57Z"/>
    <path class="cls-1" d="M450.75,245.41c-1.44,2.27-2.68,5.36-4.33,7.63-4.12,5.36-11.13,13.39-18.55,16.49-8.86,7.83-22.46,14.42-34.41,14.42-2.33.05-4.64-.37-6.8-1.23-11.34-3.71-11.54-9.9-11.34-19,.41-16.7,2.47-20.61,4.74-27.41-2.88,2.26-7.21,7-8.86,7-2.47,0-6-2.26-6-4.32.62-2.68,13.81-20.82,21.64-26.8,4.85-7.74,12.47-13.33,21.3-15.65,4.14-1.64,8.54-2.55,13-2.68,4.74,0,12,6,10.72,10.1-1.24,3.92-4.12,10.1-9.07,10.1-3.91,0-6-7.21-11.95-7.21-8.45,0-13,12.57-16.69,17.72-.67,4.1-1.56,8.16-2.68,12.16-.42,2.06-.83,6.39-1.24,8.45-.62,1.85-.82,6.39-2.27,9.48.41,6,.21,9.48,4.54,14.84,1.65,1.85,6.18,1.85,9.68,1.85,2.51-.17,4.99-.59,7.42-1.24,13.6-3.91,29.47-24.11,34-31.11.78-2.68,2.27-5.1,4.32-7,1.45-1.24,4.74-1.86,6.39-1.86,2.68,0,5.57.42,5.57,3.51-.06,3.52-6.25,8.26-9.13,11.76Z"/>
    <path class="cls-1" d="M542.46,249.74c-2.89,4.74-8.25,10.92-10.31,13.6-1.23,5.57-5.56,9.9-8.24,14.22-3.92,6.6-9.07,16.7-20,16.49-2.68,0-4.12-1-4.95-2.68-2.26-3.5-6.38-19.37-5.56-23.9.62-3.92,2.47-8,3.3-13.19,1.23-7.22-.62-11.34.82-18.35.62-3.09,1.86-5.15,2.06-7.62.21-1.65.21-3.71-2.68-3.71-3.5,0-9.27,5.77-11.33,8.24-3.71,4.54-8.86,9.28-12.37,14.22-1.23,1.45-1,3.09-1.65,4.12-2.88,4.54-6.8,9.48-9.48,13-1.64,4.74-2.47,12.36-9.48,12.36-3.29,0-5.56-1.64-5.15-4.53.62-5.36,4.12-11.34,6.18-19,1.45-5.15,2.68-11.75,2.27-16.07-1,.61-2.88,6-5.77,6-1.85,0-3.71-1.65-3.71-4.74.07-2.62.63-5.2,1.65-7.62,2.89-1.45,3.92-8.66,4.95-10.1,1.44-2.06,1.23-5.36,3.5-7.42,1.24-7.21,8.24-28,13.81-35,.2-4.74,6.59-15.86,10.3-18.54,1.27-.36,2.6-.5,3.92-.42,7.83,0,9.48,11.75,8.24,16.49-.41,2.68-11.33,27.82-13,30.91-.62,1.24-2.06,3.3-3.92,3.92-1.65,3.5-8.24,9.07-8.24,12.16-.62,2.06-1.65,11.33,1,11.33,3.71,0,17.31-19.57,32.35-19.57,6.81,0,12.58,4.53,11.75,10.3,0,0-.62,4.12-.82,5.77-.67,5.71-1.77,11.36-3.3,16.9.82,2.88-.41,9.27-1.44,11.75.62,3.5-1.24,9.27-1.86,11.95.62,2.68,1.65,6.39,3.71,6.39,2.89,0,7-7.63,10.72-9.69,1.44-4.33,10.3-16.07,12-18.55,2.47-4.12,6-10.71,8.86-14.42,1.24-.83,5.15-2.68,6.19-2.68,2.26,0,4.12.62,4.12,2.47-1.02,5.32-5.76,11.09-8.44,15.21Z"/>
    <path class="cls-1" d="M0,0v170s14.34-26,51-50.57V55.04c-.06-12.9,1.51-25.76,4.67-38.27C57.97,7.87,60.89-.18,63.94,0c6.75.4-63.94,0-63.94,0Z"/>
    <path class="cls-2" d="M84.96,0l-12.75,57s15.78,1.54,26.83,10.08c13,10.12,12.18,30.21-1,40.24C72.67,126.71,3.43,183.08,4.73,219.95L0,308.63h75.4l19.11-42.48.54-13.28-46.2.54s-3.71-43.54,21.29-65.31l69-51s36.1-20.17,25.48-79.11c-.02.02-2.67-41.14-79.66-57.99Z"/>
    <path class="cls-1" d="M169.91,144.03l-46.19,35s36.63,15.4,27.08,47.66c-7.29,24.61-36.11,23-36.11,23l-17,58.94s65.31,8.49,99.82-37.17c.01,0,56.83-66.92-27.6-127.43Z"/>
    <path class="cls-1" d="M10.71,367.54L.86,328.74h5.28l4.6,19.63c1.15,4.83,2.19,9.67,2.88,13.41h.12c.63-3.85,1.84-8.46,3.16-13.47l5.24-19.6h5.2l4.72,19.69c1.1,4.6,2.13,9.21,2.71,13.3h.12c.8-4.27,1.9-8.58,3.1-13.42l5.15-19.57h5.1l-11,38.8h-5.23l-4.87-20.21c-1.08-4.17-1.92-8.4-2.53-12.66h-.11c-.75,4.28-1.75,8.5-3,12.66l-5.56,20.24h-5.23Z"/>
    <path class="cls-1" d="M73.14,349.32h-15v14h16.75v4.22h-21.87v-38.8h21v4.2h-16v12.26h15.12v4.12Z"/>
    <path class="cls-1" d="M123.19,365.78c-3.84,1.41-7.91,2.13-12,2.13-5.88,0-10.71-1.49-14.51-5.12-3.34-3.23-5.41-8.41-5.41-14.45,0-11.57,8-20,21-20,3.33-.08,6.64.53,9.73,1.79l-1.27,4.09c-2.69-1.21-5.62-1.78-8.57-1.67-9.45,0-15.61,5.87-15.61,15.6s5.88,15.66,15,15.66c2.27.14,4.55-.2,6.68-1v-11.65h-7.83v-4h12.78v18.62Z"/>
    <path class="cls-1" d="M163.95,347.7c0,13.3-8.12,20.44-18,20.44s-17.44-8-17.44-19.74c0-12.32,7.59-20.38,18-20.38s17.44,8.11,17.44,19.68ZM133.78,348.28c0,8.35,4.49,15.78,12.44,15.78s12.43-7.32,12.43-16.13c0-7.77-4-15.83-12.38-15.83s-12.49,7.72-12.49,16.18Z"/>
    <path class="cls-1" d="M176.38,332.97h-11.8v-4.26h28.73v4.26h-11.86v34.57h-5.07v-34.57Z"/>
    <path class="cls-1" d="M215.82,367.54v-16.5l-12.32-22.33h5.75l5.47,10.71c1.44,2.93,2.65,5.29,3.86,8h.11c1-2.54,2.42-5.07,3.92-8l5.58-10.71h5.64l-12.95,22.28v16.55h-5.06Z"/>
    <path class="cls-1" d="M269.41,347.7c0,13.3-8.12,20.44-18,20.44s-17.44-8-17.44-19.74c0-12.32,7.6-20.38,18-20.38s17.44,8.11,17.44,19.68ZM239.24,348.28c0,8.35,4.49,15.78,12.44,15.78s12.46-7.32,12.46-16.13c0-7.77-4-15.83-12.37-15.83s-12.53,7.72-12.53,16.18h0Z"/>
    <path class="cls-1" d="M280.92,328.71v23c0,8.63,3.86,12.32,9,12.32,5.7,0,9.44-3.8,9.44-12.32v-23h5.07v22.68c0,11.92-6.28,16.75-14.68,16.75-7.95,0-13.93-4.49-13.93-16.58v-22.85h5.1Z"/>
    <path class="cls-1" d="M352.42,366.3c-1.78.92-5.53,1.84-10.25,1.84-10.94,0-19.11-6.91-19.11-19.69s8.23-20.38,20.26-20.38c3.16-.12,6.32.47,9.22,1.73l-1.27,4.09c-2.44-1.11-5.09-1.67-7.77-1.61-9.1,0-15.14,5.81-15.14,16,0,9.56,5.47,15.6,14.85,15.6,2.83.05,5.63-.5,8.23-1.61l.98,4.03Z"/>
    <path class="cls-1" d="M390.7,347.7c0,13.3-8.11,20.44-18,20.44s-17.44-8-17.44-19.74c0-12.32,7.6-20.38,18-20.38s17.44,8.11,17.44,19.68ZM360.54,348.28c0,8.35,4.49,15.78,12.43,15.78s12.44-7.32,12.44-16.13c0-7.77-4-15.83-12.38-15.83s-12.49,7.72-12.49,16.18Z"/>
    <path class="cls-1" d="M405.73,367.54l-12.73-38.8h5.47l6.05,19.11c1.61,5.24,3.05,10,4.14,14.51h.12c1.09-4.49,2.65-9.39,4.43-14.45l6.56-19.17h5.37l-13.89,38.8h-5.52Z"/>
    <path class="cls-1" d="M449.36,349.32h-15v14h16.78v4.22h-21.87v-38.8h21v4.2h-15.93v12.26h15l.02,4.12Z"/>
    <path class="cls-1" d="M457.65,329.22c3.18-.53,6.39-.8,9.61-.8,5.36,0,8.87,1,11.23,3.17,2,1.94,3.09,4.63,3,7.42.04,4.53-2.91,8.54-7.25,9.85v.17c2.93,1,4.72,3.8,5.64,7.83,1.27,5.41,2.19,9.15,3,10.65h-5.14c-.63-1.15-1.5-4.43-2.53-9.27-1.15-5.35-3.28-7.37-7.83-7.54h-4.72v16.84h-5v-38.32ZM462.65,346.9h5.12c5.36,0,8.75-2.94,8.75-7.37,0-5-3.62-7.2-8.92-7.2-1.68-.06-3.35.08-5,.41l.05,14.16Z"/>
    <path class="cls-1" d="M508.66,349.32h-15v14h16.78v4.22h-21.88v-38.8h21v4.2h-16v12.26h15l.1,4.12Z"/>
    <path class="cls-1" d="M516.94,329.28c3.52-.58,7.08-.87,10.65-.86,7.2,0,12.32,1.73,15.72,4.83s5.53,7.66,5.53,13.94-2,11.51-5.59,15.08-9.67,5.59-17.21,5.59c-3.04.02-6.08-.14-9.1-.47v-38.11ZM521.94,363.59c1.68.18,3.38.26,5.07.23,10.76,0,16.52-6,16.52-16.46.06-9.15-5.12-15-15.72-15-1.97-.03-3.94.14-5.87.52v30.71Z"/>
</svg>