<?xml version="1.0" encoding="UTF-8"?><svg id="uuid-8f709cae-c8fb-4155-af9b-059534b90b24" xmlns="http://www.w3.org/2000/svg" viewBox="0 0 453.31 362.04"><defs><style>.uuid-ca4ff5a0-8310-4dbb-a6ea-b855095a07a6{fill:#0e74bb;}.uuid-44c399ec-d70d-4f4b-8e1c-d41e2e109048{fill:#fff;}.uuid-c3c99040-6ed9-4b67-8fdd-92da827b9f35{fill:#7ca0fc;}.uuid-8634b877-fbf0-47ee-9fdb-a05ccb330f75{fill:#080717;}.uuid-5c3e2a44-7473-4776-be31-6e7eac528cfd{fill:#1d1d1b;}</style></defs><path class="uuid-ca4ff5a0-8310-4dbb-a6ea-b855095a07a6" d="M185.76,15.15c11.87-15.58,34.11-18.58,49.69-6.72,15.58,11.87,18.58,34.11,6.72,49.69-7.95,10.43-20.55,15.19-32.69,13.66l-8.27,10.85-28.2-21.48,8.27-10.85c-4.71-11.3-3.46-24.71,4.49-35.14Z"/><path class="uuid-8634b877-fbf0-47ee-9fdb-a05ccb330f75" d="M192.31,77.26c-.31,0-.63-.09-.9-.29-.7-.5-.87-1.47-.37-2.17.65-.91,10.68-15.03,19.95-26.55-.54-.26-1.06-.53-1.55-.82-1.88-1.1-3.56-2.43-5-3.92-8.08,11.01-20.07,25.64-20.69,26.4-.55.66-1.53.76-2.19.22-.67-.55-.76-1.53-.22-2.19.16-.19,12.93-15.77,21.04-26.88-1.99-2.76-3.21-5.87-3.45-9-.29-3.88.99-7.19,3.61-9.33,1.88-1.53,5.16-1.21,7.31.72,1.17,1.05,4.61,5.1-.5,13.04-.85,1.32-1.89,2.83-3.06,4.47,1.25,1.37,2.81,2.66,4.73,3.79.63.37,1.3.7,2.01,1.01,4.39-5.33,8.44-9.78,10.99-11.58,2.42-1.7,7.35-1.08,10.17,1.29,2.76,2.32,3.27,5.91,1.41,9.85-.97,2.06-3.08,3.63-6.08,4.56-4.56,1.4-10.47,1.17-15.49-.42-9.49,11.74-20.29,26.93-20.45,27.16-.3.43-.78.66-1.27.66ZM216.19,46.82c4.14,1.08,8.84,1.17,12.42.07,1.5-.46,3.43-1.34,4.18-2.91,1.26-2.67,1.06-4.73-.6-6.13-2.1-1.76-5.42-1.78-6.36-1.12-2.21,1.56-5.72,5.39-9.63,10.1ZM205.51,24.88c-.43,0-.79.1-1,.27-1.81,1.47-2.69,3.84-2.47,6.67.15,1.93.84,4.25,2.28,6.54.91-1.3,1.73-2.5,2.42-3.56,2.59-4.01,2.97-7.3,1.05-9.03-.71-.64-1.58-.89-2.27-.89Z"/><path class="uuid-8634b877-fbf0-47ee-9fdb-a05ccb330f75" d="M166.14,69.3h26.5c2.42,0,4.39,1.97,4.39,4.39v21.31h-35.27v-21.31c0-2.42,1.97-4.39,4.39-4.39Z" transform="translate(272.32 256.21) rotate(-142.7)"/><rect class="uuid-8634b877-fbf0-47ee-9fdb-a05ccb330f75" x="179.74" y="59.44" width="3.42" height="38.29" transform="translate(8.98 175.31) rotate(-52.7)"/><rect class="uuid-8634b877-fbf0-47ee-9fdb-a05ccb330f75" x="184.42" y="53.75" width="3.42" height="38.29" transform="translate(15.35 176.79) rotate(-52.7)"/><rect class="uuid-8634b877-fbf0-47ee-9fdb-a05ccb330f75" x="151.23" y="11.49" width="4.98" height="3.12" transform="translate(5.86 57.05) rotate(-21.43)"/><rect class="uuid-8634b877-fbf0-47ee-9fdb-a05ccb330f75" x="165.46" y="5.9" width="4.98" height="3.12" transform="translate(8.88 61.87) rotate(-21.43)"/><rect class="uuid-8634b877-fbf0-47ee-9fdb-a05ccb330f75" x="157.21" y="16.26" width="4.98" height="3.12" transform="translate(118.23 173.06) rotate(-81.41)"/><rect class="uuid-8634b877-fbf0-47ee-9fdb-a05ccb330f75" x="159.49" y="1.13" width="4.98" height="3.12" transform="translate(135.12 162.45) rotate(-81.41)"/><rect class="uuid-8634b877-fbf0-47ee-9fdb-a05ccb330f75" x="153.3" y="3" width="3.12" height="4.98" transform="translate(54 123.12) rotate(-51.42)"/><rect class="uuid-8634b877-fbf0-47ee-9fdb-a05ccb330f75" x="165.25" y="12.53" width="3.12" height="4.98" transform="translate(51.04 136.06) rotate(-51.42)"/><path d="M264.08,75.45s20.57-11.62,17.42-17.87c-3.93-7.78-16.22-.35-16.33,5.64-.11,5.99,7-8.97-.67-11.34-5.99-1.85-12.81,5.25-.41,23.58Z"/><path d="M94.08,172.3l-24.7-24.7h-33.1c-15.92,0-28.88-12.96-28.88-28.88s12.95-28.88,28.88-28.88h54.64c15.92,0,28.87,12.95,28.87,28.88,0,14.76-11.18,27.08-25.71,28.67v24.91ZM36.27,92.96c-14.2,0-25.76,11.56-25.76,25.76s11.56,25.76,25.76,25.76h34.39l20.29,20.29v-20.29l1.47-.09c13.59-.79,24.24-12.07,24.24-25.68s-11.55-25.76-25.76-25.76h-54.64Z"/><rect x="30.37" y="111.63" width="63.23" height="3.12"/><rect x="30.37" y="120.92" width="63.23" height="3.12"/><path class="uuid-8634b877-fbf0-47ee-9fdb-a05ccb330f75" d="M274.54,131.13c-17.81-2.08-34.59,5.26-45.67,18.14,4.78-.72,9.7-.86,14.68-.28,33.82,3.94,57.65,37.89,53.22,75.81-.25,2.11-.59,4.18-.99,6.21,13.27-8.45,22.83-22.79,24.82-39.92,3.47-29.75-17.16-56.6-46.07-59.97Z"/><path class="uuid-8634b877-fbf0-47ee-9fdb-a05ccb330f75" d="M316.92,290.83c-14.21,0-29.35-2.05-34.76-11.81-5.01-9.05-.91-22.57,12.53-41.34,1.35-1.88,1.83-3.71,1.48-5.58-1.2-6.3-11.56-12.98-23.56-20.72-13.73-8.86-29.29-18.9-38.97-32.7-4.28-6.1,1.84-17.88,15.97-30.73h0c6.01-5.47,22.03-12.98,39.37-9.82,14.65,2.66,26.76,12.62,35.04,28.79,8.11,15.86,34.51,12.05,51.98,9.52,4.44-.64,8.27-1.19,11.02-1.29,7.48-.28,14.15,4.24,18.29,12.34,7.2,14.12,6.41,38.7-11.6,61.78-4.35,5.58-37.68,43.94-48.91,40.68-1.43-.41-6.16-.12-11.17.2-4.86.3-10.7.67-16.7.67ZM280.75,140.52c-12.58,0-24.06,5.21-29.04,9.74-14.42,13.12-18.19,22.84-15.52,26.64,9.33,13.3,24.62,23.17,38.11,31.87,13.12,8.46,23.48,15.14,24.93,22.75.52,2.71-.16,5.4-2.01,7.98-12.5,17.44-16.65,30.23-12.34,38.01,6.73,12.16,32.9,10.52,48.54,9.54,6.76-.42,10.37-.62,12.23-.08,7.34,2.12,35.62-26.82,45.59-39.6,17.16-22,18.03-45.21,11.28-58.45-3.56-6.98-9.19-10.81-15.4-10.64-2.58.09-6.33.63-10.68,1.26-18.35,2.65-46.08,6.65-55.21-11.19-7.93-15.49-18.97-24.63-32.82-27.14-2.57-.47-5.14-.68-7.67-.68ZM250.65,149.11h.02-.02Z"/><path class="uuid-8634b877-fbf0-47ee-9fdb-a05ccb330f75" d="M244.38,134.29c13.69-8.13,62.14-16.83,75.96,32.18,6.87,24.37,54.96,19.02,69.86,20.8,23.09,2.77,26.52,45.56-11.63,77.32-10.96,9.12-53.12,39.09-62.78,34.67-9.66-4.42-113.22,1.62-42.82-61.7,18.16-16.34-37-39.4-53.3-75.39-2.77-6.11,6.07-16.82,24.7-27.89Z"/><circle class="uuid-8634b877-fbf0-47ee-9fdb-a05ccb330f75" cx="397.51" cy="260.03" r="48.17" transform="translate(-29.11 51.16) rotate(-7.1)"/><path class="uuid-8634b877-fbf0-47ee-9fdb-a05ccb330f75" d="M403.64,308.67c-15.9,0-31.53-7.59-41.15-21.68h0c-7.49-10.97-10.26-24.2-7.79-37.25,2.46-13.05,9.86-24.37,20.83-31.85,10.97-7.49,24.2-10.26,37.25-7.79,13.05,2.46,24.37,9.86,31.85,20.83,7.49,10.97,10.26,24.2,7.79,37.25-2.46,13.05-9.86,24.37-20.83,31.85-8.56,5.84-18.31,8.64-27.96,8.64ZM365.07,285.24c14.49,21.22,43.55,26.71,64.78,12.22,21.23-14.49,26.71-43.55,12.22-64.78-7.02-10.28-17.62-17.22-29.86-19.53-12.23-2.31-24.64.28-34.92,7.31-21.23,14.49-26.71,43.55-12.22,64.78h0Z"/><circle class="uuid-8634b877-fbf0-47ee-9fdb-a05ccb330f75" cx="336.59" cy="278.46" r="40.12" transform="translate(-49.2 73.53) rotate(-11.62)"/><path class="uuid-c3c99040-6ed9-4b67-8fdd-92da827b9f35" d="M246.23,291.85l-176.49,1.39c-21.64.73-37.61-19.98-31.42-40.73h0c3.06-10.24,11.08-18.25,21.32-21.3l3.93-1.17c71.74-21.35,148.18-21.08,219.78.77l128.42,39.19c25.99,7.93,39.87,36.17,30.27,61.59h0c-10.69,28.3-44.93,39.3-70.09,22.51l-125.84-83.94.13,21.68Z"/><path class="uuid-44c399ec-d70d-4f4b-8e1c-d41e2e109048" d="M314.19,315.59c-2.28-1.56-52.5-33.93-52.5-33.93,0,0-11.79,3.1-17.9-3.88-6.7,4.47-9.27,9.7-9.41,9.99-.61,1.29-1.59,2.28-2.76,2.93-1.76.97-3.94,1.13-5.9.22-3.25-1.51-4.69-5.31-3.22-8.58.19-.43,3.74-8.05,12.87-14.59-12.32,7.36-17.29,17.75-17.34,17.87-.61,1.31-1.6,2.32-2.77,2.97-1.75.97-3.92,1.12-5.87.23-3.26-1.5-4.71-5.33-3.24-8.6.09-.2.8-1.7,2.18-3.92-1.9,1.97-2.88,3.35-2.91,3.39-.6.87-1.36,1.54-2.23,2.02-2.09,1.15-4.73,1.12-6.83-.31-2.97-2.02-3.76-6.04-1.76-9.02.25-.37,3.77-5.51,10.79-10.92-4.1,1.55-6.52,2.84-6.59,2.88-3.16,1.72-7.12.57-8.85-2.59-1.73-3.15-.59-7.11,2.56-8.85.88-.48,21.78-11.82,47.98-9.38,0,0,35.04,2.85,41.46,4.67l120.99,34.34h0c8.15,18.92,3.29,40.93-12.06,54.66l-18.94,16.94-57.74-38.53Z"/><path d="M371.94,355.67c-.3,0-.6-.09-.86-.26l-57.74-38.53s-.01,0-.02-.01c-2.11-1.45-46.42-30.01-51.91-33.55-2.61.55-11.86,2-17.8-3.51-5.63,4.1-7.78,8.57-7.8,8.62-.74,1.55-1.92,2.8-3.41,3.63-2.26,1.25-4.99,1.34-7.31.27-3.07-1.42-4.84-4.56-4.68-7.75-.63,1.04-.94,1.67-.95,1.7-.72,1.56-1.91,2.83-3.43,3.67-2.24,1.24-4.96,1.34-7.28.28-2.91-1.33-4.66-4.2-4.72-7.21-.02.01-.05.03-.07.04-2.69,1.48-5.93,1.33-8.46-.38-3.66-2.49-4.64-7.51-2.17-11.18.09-.14,1.47-2.17,4.17-5.02-3.43.79-7.12-.75-8.9-3.99-2.14-3.9-.72-8.82,3.17-10.97.89-.49,22.18-12.05,48.87-9.57,1.42.12,35.25,2.88,41.74,4.72l120.99,34.34c.45.13.82.45,1,.88,8.43,19.56,3.42,42.24-12.45,56.44l-18.94,16.94c-.29.26-.67.4-1.04.4ZM315.07,314.3l56.73,37.85,18.04-16.13c14.69-13.14,19.45-34.04,11.96-52.21l-120.27-34.14c-6.19-1.76-40.81-4.59-41.16-4.61-25.75-2.4-46.23,8.72-47.09,9.19-2.39,1.32-3.26,4.34-1.95,6.74,1.31,2.4,4.34,3.28,6.74,1.97.01,0,2.47-1.34,6.79-2.97.72-.27,1.53.02,1.91.7.38.67.2,1.52-.41,1.99-6.93,5.35-10.3,10.35-10.44,10.56-1.52,2.26-.92,5.34,1.34,6.87,1.55,1.06,3.55,1.15,5.2.23.68-.37,1.25-.89,1.7-1.54h0s1-1.45,3.07-3.58c.56-.57,1.45-.64,2.08-.14.63.49.79,1.38.36,2.05-1.42,2.28-2.08,3.73-2.09,3.74-1.12,2.47-.01,5.41,2.47,6.54,1.42.65,3.09.59,4.47-.17.93-.52,1.66-1.3,2.11-2.26.05-.11,5.22-10.94,17.96-18.55.72-.43,1.64-.21,2.1.48.46.7.28,1.63-.39,2.12-8.84,6.34-12.22,13.66-12.36,13.97-1.11,2.45,0,5.38,2.45,6.52,1.42.66,3.1.6,4.49-.17.92-.51,1.65-1.28,2.1-2.23.11-.23,2.81-5.85,9.95-10.62.65-.43,1.53-.32,2.04.27,5.39,6.16,16.22,3.42,16.33,3.4.42-.11.87-.04,1.24.2,2.05,1.32,50.16,32.33,52.53,33.95Z"/><path d="M205.4,262.99c-.4,0-.8-.15-1.1-.46-.61-.61-.61-1.59,0-2.2,6.65-6.68,18.79-11.89,19.3-12.1.8-.34,1.71.03,2.04.82.34.79-.03,1.71-.82,2.04-.12.05-12.1,5.2-18.32,11.44-.3.31-.7.46-1.1.46Z"/><path d="M208.34,277.84c-.26,0-.53-.07-.78-.21-.75-.43-1-1.38-.57-2.13,6.53-11.31,19.37-18.88,19.91-19.19.74-.43,1.7-.18,2.13.56.43.74.18,1.7-.56,2.13-.13.07-12.67,7.48-18.78,18.06-.29.5-.81.78-1.35.78Z"/><path class="uuid-44c399ec-d70d-4f4b-8e1c-d41e2e109048" d="M163.92,290.69c2.77.09,62.41,3.61,62.41,3.61,0,0,7.69,9.47,16.74,7.44,2.77,7.57,1.75,13.3,1.69,13.61-.26,1.4-.06,2.78.5,3.99.85,1.83,2.52,3.24,4.63,3.66,3.51.7,6.92-1.52,7.66-5.02.1-.46,1.73-8.7-1.77-19.37,5.6,13.21,3.48,24.53,3.45,24.66-.28,1.41-.08,2.82.48,4.03.84,1.81,2.5,3.22,4.61,3.65,3.52.72,6.95-1.52,7.69-5.03.05-.22.36-1.85.55-4.46.37,2.71.35,4.4.35,4.45-.03,1.05.19,2.05.6,2.94,1.01,2.16,3.16,3.7,5.7,3.79,3.59.12,6.6-2.66,6.74-6.24.02-.45.21-6.67-2.26-15.19,2.4,3.67,3.59,6.15,3.62,6.22,1.53,3.26,5.41,4.66,8.67,3.14,3.26-1.52,4.67-5.39,3.16-8.66-.42-.91-10.6-22.4-33.18-35.9,0,0-29.96-18.39-36.22-20.71l-117.93-43.71h0c-17.75,10.46-26.82,31.09-22.54,51.24l5.29,24.86,69.35,3Z"/><path d="M279.44,334.21c-.09,0-.19,0-.28,0-3.06-.1-5.76-1.9-7.06-4.69-.01-.02-.02-.05-.03-.07-1.82,2.4-4.93,3.68-8.07,3.03-2.5-.51-4.63-2.2-5.71-4.52-.73-1.57-.94-3.3-.6-5,0-.03.13-.71.24-1.93-1.76,2.67-5.03,4.16-8.35,3.5-2.51-.5-4.65-2.19-5.74-4.53-.72-1.55-.93-3.26-.61-4.94.04-.21.91-4.98-1.21-11.57-8.06.93-14.66-5.7-16.44-7.68-6.52-.39-59.15-3.49-61.71-3.57,0,0-.01,0-.02,0l-69.35-3c-.71-.03-1.31-.54-1.46-1.23l-5.29-24.85c-4.43-20.83,4.92-42.1,23.27-52.91.4-.24.89-.28,1.33-.12l117.93,43.71c6.32,2.34,35.26,20.09,36.49,20.84,23,13.74,33.35,35.64,33.78,36.57,1.87,4.03.12,8.84-3.91,10.72-3.34,1.56-7.22.63-9.54-2.03.47,3.69.41,6.09.4,6.51-.17,4.33-3.77,7.75-8.08,7.75ZM272.56,319.91c.78,0,1.44.57,1.54,1.34.38,2.71.38,4.52.36,4.76-.02.73.14,1.49.46,2.19.8,1.72,2.46,2.82,4.34,2.89.06,0,.12,0,.17,0,2.65,0,4.86-2.1,4.96-4.75,0-.25.21-6.39-2.2-14.69-.21-.74.15-1.53.85-1.85.7-.32,1.53-.08,1.95.56,2.5,3.83,3.71,6.39,3.73,6.41,1.16,2.47,4.13,3.55,6.6,2.39,2.48-1.16,3.56-4.11,2.4-6.59-.41-.89-10.37-21.95-32.57-35.22-.32-.19-29.92-18.35-35.96-20.59l-117.23-43.45c-16.78,10.24-25.27,29.92-21.17,49.2l5.04,23.67,68.13,2.94c2.88.09,60.01,3.47,62.44,3.61.44.03.84.23,1.12.57.07.09,7.21,8.68,15.19,6.9.75-.18,1.53.25,1.81.98,2.93,8.02,1.81,14.18,1.76,14.44-.2,1.03-.07,2.09.38,3.04.67,1.44,1.99,2.48,3.52,2.79,2.66.53,5.27-1.18,5.83-3.82.07-.33,1.66-8.25-1.73-18.57-.26-.79.15-1.65.93-1.95.79-.29,1.66.08,1.98.85,5.85,13.81,3.57,25.47,3.54,25.58-.21,1.04-.08,2.1.37,3.07.67,1.45,1.95,2.46,3.51,2.78,2.67.54,5.3-1.17,5.85-3.83,0-.02.33-1.59.53-4.25.06-.79.71-1.42,1.5-1.44.02,0,.03,0,.05,0Z"/><path d="M283.7,312.78c-.76,0-1.42-.55-1.54-1.32-1.34-8.71-7.96-19.93-8.03-20.05-.44-.74-.2-1.7.54-2.14.74-.44,1.7-.19,2.14.54.28.48,7,11.85,8.43,21.17.13.85-.45,1.65-1.3,1.78-.08.01-.16.02-.24.02Z"/><path d="M272.57,323.03c-.06,0-.11,0-.17,0-.86-.09-1.47-.86-1.38-1.72,1.31-12.15-4.44-25.53-4.5-25.67-.34-.79.02-1.71.81-2.05.79-.34,1.71.02,2.05.81.25.58,6.14,14.27,4.74,27.25-.09.8-.76,1.39-1.55,1.39Z"/><circle cx="257.57" cy="185.02" r="43.92" transform="translate(-27.72 323.52) rotate(-61.59)"/><circle cx="231.62" cy="165.77" r="26.28" transform="translate(-50.3 125.13) rotate(-27.39)"/><path class="uuid-44c399ec-d70d-4f4b-8e1c-d41e2e109048" d="M278.25,204.49c3.74-19.72-2.65-38.56-17.66-46.88-20.01-11.1-47.77.69-62,26.34-14.23,25.65-9.53,55.44,10.48,66.54,15.01,8.33,34.37,3.77,49.12-9.84l20.05-36.15Z"/><path d="M225.62,256.23c-6.09,0-11.99-1.43-17.29-4.38-20.73-11.5-25.71-42.3-11.08-68.66,14.62-26.36,43.38-38.44,64.11-26.94,15.19,8.43,22.43,27.48,18.43,48.54-.16.84-.97,1.4-1.82,1.24-.85-.16-1.4-.98-1.24-1.82,3.74-19.71-2.88-37.46-16.88-45.23-19.22-10.66-46.09.88-59.88,25.73-13.78,24.85-9.36,53.75,9.87,64.42,14,7.76,32.57,3.98,47.31-9.63.63-.58,1.62-.54,2.2.09.58.63.54,1.62-.09,2.2-10.25,9.46-22.29,14.44-33.64,14.44Z"/><path d="M211.36,179.6c.32,1.44-2.67,3.33-6.67,4.2-4,.88-7.5.42-7.81-1.02s2.67-3.33,6.67-4.2c4-.88,7.5-.42,7.81,1.02Z"/><path d="M244.05,196.16c-.91,1.59-5.22.85-9.63-1.67-4.41-2.51-7.25-5.84-6.34-7.44.91-1.59,5.22-.85,9.63,1.67,4.41,2.51,7.25,5.84,6.34,7.44Z"/><path d="M210.78,206.75c-.54,0-1.06-.28-1.35-.77-1.35-2.3-1.37-5.18-.07-7.5l5.87-10.47c.42-.75,1.37-1.02,2.12-.6.75.42,1.02,1.37.6,2.12l-5.87,10.47c-.78,1.39-.76,3.03.04,4.4.43.74.18,1.7-.56,2.13-.25.14-.52.21-.78.21Z"/><path d="M232.89,204.61c-.68,0-1.3-.45-1.5-1.13-1.4-4.91-4.38-4.45-4.72-4.39-.83.18-1.66-.36-1.84-1.19-.18-.83.33-1.65,1.15-1.85,2.12-.5,6.6.24,8.41,6.57.24.83-.25,1.69-1.07,1.93-.14.04-.29.06-.43.06Z"/><path d="M208.08,192.29c-.33,0-.67-.11-.96-.33-4.18-3.25-6.29-.88-6.38-.77-.56.65-1.54.73-2.2.17-.65-.56-.73-1.54-.17-2.2,1.42-1.65,5.46-3.71,10.66.34.68.53.8,1.51.27,2.19-.31.39-.77.6-1.23.6Z"/><path d="M215.07,217.43c-1.93,0-4.27-.84-6.64-3.46-.58-.64-.53-1.62.11-2.2.63-.58,1.62-.53,2.2.11,3.42,3.78,5.9,2.06,6.17,1.85.68-.52,1.65-.41,2.18.26.53.67.44,1.63-.22,2.16-.78.64-2.14,1.27-3.81,1.27Z"/><polygon points="280.81 179 268.76 190.34 264.25 213.87 279.06 217.63 290.93 187.84 280.81 179"/><path d="M256.95,186.08c4.64,15.82,15.18,26.33,23.55,23.48s11.39-17.99,6.75-33.81c-4.64-15.82-15.18-26.33-23.55-23.48s-11.39,17.99-6.75,33.81Z"/><path class="uuid-44c399ec-d70d-4f4b-8e1c-d41e2e109048" d="M255.19,237.9c1.89,2.33,4.42,4.18,7.45,5.25,8.78,3.11,18.41-1.49,21.52-10.27s-1.49-18.41-10.27-21.52c-4.39-1.55-8.99-1.18-12.89.68l-5.82,25.86Z"/><path d="M268.28,245.68c-2.07,0-4.15-.35-6.16-1.07-3.2-1.13-6.02-3.12-8.14-5.74-.54-.67-.44-1.65.23-2.19.67-.54,1.65-.44,2.19.23,1.77,2.17,4.1,3.82,6.77,4.76,3.85,1.36,8.01,1.15,11.69-.62,3.69-1.76,6.47-4.85,7.84-8.71,1.36-3.85,1.14-8.01-.62-11.69-1.76-3.69-4.85-6.47-8.71-7.84-3.85-1.36-8.01-1.14-11.7.62-.78.37-1.71.04-2.08-.74-.37-.78-.04-1.71.74-2.08,4.44-2.12,9.44-2.38,14.08-.74,4.64,1.64,8.36,4.99,10.48,9.43,2.12,4.44,2.38,9.44.74,14.08-1.64,4.64-4.99,8.36-9.43,10.48-2.52,1.2-5.21,1.81-7.92,1.81Z"/><path class="uuid-5c3e2a44-7473-4776-be31-6e7eac528cfd" d="M74.24,82.63l-2.23-2.17c23.71-24.38,55.01-41.67,88.13-48.69l.65,3.05c-32.52,6.89-63.25,23.87-86.54,47.81Z"/><path class="uuid-5c3e2a44-7473-4776-be31-6e7eac528cfd" d="M144.49,47.16l-8.52-17.18,29.7,2.14-21.18,15.04ZM141.18,33.48l4.48,9.02,11.13-7.9-15.6-1.12Z"/><path class="uuid-5c3e2a44-7473-4776-be31-6e7eac528cfd" d="M345.92,85.12c-21.96-24.96-51.83-43.41-84.12-51.95l.8-3.01c32.88,8.7,63.3,27.49,85.66,52.91l-2.34,2.06Z"/><path class="uuid-5c3e2a44-7473-4776-be31-6e7eac528cfd" d="M350.67,88.06l-23.5-11.08,10.79-15.85,12.71,26.93ZM331.8,75.71l12.34,5.82-6.68-14.15-5.67,8.33Z"/><path class="uuid-8634b877-fbf0-47ee-9fdb-a05ccb330f75" d="M28.46,304.49h126.63l-32.42-121c-1.87-6.96-9.51-12.28-16.1-11.2L6.99,188.57c-5.29.86-8.08,5.62-6.58,11.2l28.06,104.72Z"/><path class="uuid-8634b877-fbf0-47ee-9fdb-a05ccb330f75" d="M79.38,290.76h164.77v13.73H87.19c-4.31,0-7.8-3.5-7.8-7.8v-5.93h0Z" transform="translate(323.54 595.25) rotate(180)"/><path class="uuid-44c399ec-d70d-4f4b-8e1c-d41e2e109048" d="M58.32,247.63c2.31,6.81,7.85,11.08,12.39,9.54,4.54-1.54,6.35-8.3,4.04-15.1-2.31-6.81-7.85-11.08-12.39-9.54-4.54,1.54-6.35,8.3-4.04,15.1Z"/><path d="M388.51,158.23c-21.53,0-39.04-17.51-39.04-39.04s17.51-39.04,39.04-39.04,39.04,17.51,39.04,39.04-17.51,39.04-39.04,39.04ZM388.51,83.27c-19.81,0-35.92,16.11-35.92,35.92s16.11,35.92,35.92,35.92,35.92-16.11,35.92-35.92-16.11-35.92-35.92-35.92Z"/><polygon points="383.23 133.22 372.54 122.53 374.74 120.33 383.23 128.81 410.12 101.93 412.32 104.13 383.23 133.22"/></svg>