<?xml version="1.0" encoding="UTF-8"?><svg id="uuid-e0ff6a10-7052-4391-8fd5-51b39e52eccb" xmlns="http://www.w3.org/2000/svg" viewBox="0 0 494.19 420.43"><defs><style>.uuid-4267bc7f-a0cd-49d0-b4ea-ad69c55efeed{fill:#282d33;}.uuid-c83c2455-21b1-47bc-9507-bfc559dce9ee{fill:#0e74bb;}.uuid-1911cdd0-6353-43b2-8b5a-edf4bfe9dfd4{fill:#fff;}.uuid-3fe1745e-4077-47a7-a800-583ccf9875fb{fill:#080717;}.uuid-dce24ef6-643f-4922-9ec6-9351997203d4{fill:#1d1d1b;}</style></defs><ellipse class="uuid-3fe1745e-4077-47a7-a800-583ccf9875fb" cx="110.39" cy="398.22" rx="70.15" ry="22.22"/><path class="uuid-c83c2455-21b1-47bc-9507-bfc559dce9ee" d="M93.29,364.64l-33.54-46.55c-7.67-10.65-13.1-22.74-15.94-35.56l-3.06-13.77,137.41-30.78,1.09,5.31c3.17,15.43,1.88,31.44-3.73,46.15l-23.22,60.9-59,14.29Z"/><path class="uuid-c83c2455-21b1-47bc-9507-bfc559dce9ee" d="M87.3,327.74v68.15l17.79,7.07c22,8.75,46.89,6.1,66.56-7.07h0v-108.7l-84.35,40.55Z"/><polygon class="uuid-c83c2455-21b1-47bc-9507-bfc559dce9ee" points="31.94 247.47 95.59 298.26 116.8 267.84 62.41 225.89 31.94 247.47"/><polygon class="uuid-c83c2455-21b1-47bc-9507-bfc559dce9ee" points="18.62 197.68 83.15 269.22 85.91 182.1 34.75 183.02 18.62 197.68"/><path class="uuid-c83c2455-21b1-47bc-9507-bfc559dce9ee" d="M55.71,182.53L4.98,139.21c-5.97-5.1-6.67-14.06-1.58-20.03h0c5.1-5.97,14.06-6.67,20.03-1.58l50.73,43.32-18.45,21.61Z"/><path class="uuid-c83c2455-21b1-47bc-9507-bfc559dce9ee" d="M157.72,270.91l-6.97-25.4c-6.09-22.2-7.49-45.12-4.23-67.56,2.35-16.17,18.75-26.27,34.2-20.96h0c-9.02,26.23-9.9,54.24-2.56,81h0c3.85,14.03-4.4,28.52-18.43,32.38l-2,.55Z"/><path class="uuid-3fe1745e-4077-47a7-a800-583ccf9875fb" d="M161.24,260.88l-64.17,26.66c-7.63,3.17-16.34-.84-18.9-8.69L2.7,47.04c-3.37-10.36,4.5-20.95,15.39-20.7l79.78,1.79c6.97.16,13.02,4.86,14.88,11.58l56.71,204.31c1.91,6.89-1.61,14.12-8.21,16.87Z"/><path class="uuid-1911cdd0-6353-43b2-8b5a-edf4bfe9dfd4" d="M109.41,40.63c-1.47-5.28-6.14-8.92-11.62-9.04,0,0-53.32-1.08-74.59-1.36-4.23-.06-7.26,4.06-5.95,8.09l76.91,236.22c1.62,4.97,7.12,7.5,11.95,5.5l53.81-22.35c4.98-2.07,7.64-7.54,6.2-12.74L109.41,40.63Z"/><path d="M437.5,140.45c-.26,0-.53-.06-.78-.19l-7.91-3.96c-.87-.43-1.22-1.49-.79-2.36.43-.87,1.49-1.22,2.36-.78l7.91,3.96c.87.43,1.22,1.49.79,2.36-.31.62-.93.97-1.57.97Z"/><path d="M428.83,147.89c-.44,0-.88-.17-1.23-.5l-3.48-3.39c-.7-.68-.71-1.79-.03-2.49.68-.7,1.79-.71,2.49-.03l3.48,3.39c.7.68.71,1.79.03,2.49-.35.35-.8.53-1.26.53Z"/><path d="M438.05,128.78c-.07,0-.15,0-.22-.01l-4.82-.61c-.96-.12-1.64-1-1.52-1.96.12-.96,1-1.64,1.97-1.52l4.82.61c.96.12,1.64,1,1.52,1.96-.11.89-.87,1.54-1.74,1.54Z"/><path class="uuid-dce24ef6-643f-4922-9ec6-9351997203d4" d="M294.58,88.85l-3.06-5.6-5.6-3.06,5.6-3.06,3.06-5.6,3.06,5.6,5.6,3.06-5.6,3.06-3.06,5.6ZM293.25,80.19l.86.47.47.86.47-.86.86-.47-.86-.47-.47-.86-.47.86-.86.47Z"/><path class="uuid-dce24ef6-643f-4922-9ec6-9351997203d4" d="M391.25,173.61l-.82-3.42c.44-.11,10.92-2.84,13.1-15.1.35-1.98.32-3.81.01-5.46-.91.31-1.84.57-2.76.8-10.48,2.53-14.46-1.57-15.69-3.46-1.44-2.21-1.5-4.9-.14-6.68,2.97-3.89,8.12-4.98,13.12-2.78,3.06,1.34,5.92,3.91,7.62,7.46,11.38-5.44,20.26-18.59,16.24-38.32l3.44-.7c4.45,21.87-5.68,36.43-18.51,42.36.51,2.22.6,4.7.12,7.4-2.59,14.58-15.2,17.78-15.74,17.9ZM392.93,139.91c-1.89,0-3.79.68-5.19,2.52-.37.49-.4,1.57.29,2.63.64.98,3.4,4.02,11.92,1.96.83-.2,1.65-.44,2.47-.71-1.32-2.65-3.47-4.56-5.76-5.57-1.13-.5-2.43-.82-3.73-.82Z"/><path class="uuid-c83c2455-21b1-47bc-9507-bfc559dce9ee" d="M82.95,300.97l-34.65-19.34c-6.85-3.82-9.31-12.48-5.48-19.33h0c3.82-6.85,12.48-9.31,19.33-5.48l34.65,19.34c6.85,3.82,9.31,12.48,5.48,19.33h0c-3.82,6.85-12.48,9.31-19.33,5.48Z"/><path class="uuid-c83c2455-21b1-47bc-9507-bfc559dce9ee" d="M65.01,253.95l-12.1-6.75-20.97.28-.21-16.15c-.09-6.77,5.33-12.34,12.1-12.43l16.3-.21,43.54,24.3h0c-7.65,13.7-24.96,18.61-38.66,10.96Z"/><path class="uuid-c83c2455-21b1-47bc-9507-bfc559dce9ee" d="M45.65,204.16l-12.02-6.71-15.02.23-.44-17.4c-.15-6.07,4.67-11.1,10.74-11.22l11.77-.22,43.62,24.35h0c-7.65,13.7-24.96,18.61-38.66,10.96Z"/><path class="uuid-4267bc7f-a0cd-49d0-b4ea-ad69c55efeed" d="M89.85,304.54c-2.69,0-5.35-.69-7.76-2.03l-34.65-19.34,1.71-3.07,34.65,19.34c2.9,1.62,6.26,2.01,9.46,1.11,3.2-.91,5.85-3.01,7.48-5.91,1.62-2.9,2.01-6.27,1.11-9.46-.91-3.2-3.01-5.85-5.91-7.47l-34.65-19.34c-6-3.34-13.59-1.19-16.94,4.8l-3.07-1.71c4.29-7.69,14.03-10.45,21.72-6.16l34.65,19.34c3.72,2.08,6.42,5.48,7.58,9.59,1.16,4.1.66,8.41-1.42,12.14-2.08,3.72-5.48,6.42-9.59,7.58-1.45.41-2.92.61-4.38.61Z"/><path class="uuid-4267bc7f-a0cd-49d0-b4ea-ad69c55efeed" d="M78.81,259.3c-4.97,0-10.01-1.23-14.65-3.82l-11.69-6.52-12.16.16-.05-3.52,13.1-.17,12.51,6.98c12.83,7.16,29.11,2.55,36.27-10.29l3.07,1.71c-5.52,9.89-15.81,15.46-26.4,15.46Z"/><path class="uuid-4267bc7f-a0cd-49d0-b4ea-ad69c55efeed" d="M39.19,221.81l-1.61-3.13c1.94-1,4.04-1.52,6.23-1.55l16.3-.21.04,3.52-16.3.21c-1.64.02-3.22.41-4.67,1.16Z"/><path class="uuid-4267bc7f-a0cd-49d0-b4ea-ad69c55efeed" d="M59.45,209.54c-5.08,0-10.1-1.3-14.66-3.84l-11.61-6.48-7.17.11-.06-3.52,8.12-.12,12.43,6.94c6.22,3.47,13.41,4.31,20.27,2.37,6.85-1.94,12.53-6.44,16.01-12.65l3.07,1.71c-3.93,7.04-10.36,12.12-18.12,14.32-2.73.78-5.51,1.16-8.28,1.16Z"/><path class="uuid-3fe1745e-4077-47a7-a800-583ccf9875fb" d="M425.85,103.19c-1.08,0-2.15-.05-3.21-.13l.26-3.51c.98.07,1.96.11,2.95.11v3.52ZM429.06,103.09l-.23-3.51c.99-.07,1.97-.17,2.94-.3l.48,3.48c-1.05.15-2.12.26-3.19.33ZM419.46,102.71c-1.06-.16-2.12-.35-3.16-.58l.76-3.43c.96.21,1.93.39,2.91.53l-.51,3.48ZM435.41,102.2l-.73-3.44c.96-.21,1.92-.45,2.86-.72l.98,3.38c-1.02.3-2.06.56-3.11.78ZM413.2,101.33c-1.03-.31-2.04-.65-3.04-1.03l1.24-3.29c.92.35,1.85.66,2.8.95l-1,3.37ZM441.57,100.42l-1.22-3.3c.93-.34,1.84-.72,2.73-1.12l1.45,3.2c-.97.44-1.96.85-2.96,1.22ZM407.2,99.06c-.98-.45-1.93-.94-2.86-1.45l1.7-3.08c.86.48,1.74.92,2.64,1.34l-1.48,3.19ZM447.4,97.77l-1.68-3.09c.87-.47,1.72-.97,2.54-1.5l1.9,2.96c-.9.58-1.82,1.12-2.76,1.63ZM401.59,95.95c-.9-.58-1.77-1.2-2.62-1.85l2.12-2.8c.79.59,1.59,1.16,2.42,1.7l-1.92,2.95ZM452.8,94.31l-2.1-2.82c.79-.59,1.56-1.21,2.31-1.85l2.3,2.66c-.81.7-1.64,1.37-2.5,2.01ZM396.47,92.08c-.8-.71-1.58-1.44-2.33-2.2l2.5-2.47c.69.7,1.41,1.38,2.15,2.03l-2.32,2.64ZM457.65,90.13l-2.48-2.49c.7-.7,1.37-1.42,2.02-2.16l2.65,2.31c-.7.81-1.43,1.59-2.19,2.34ZM391.97,87.52c-.69-.81-1.36-1.65-2-2.51l2.83-2.09c.59.79,1.2,1.56,1.84,2.31l-2.67,2.29ZM461.86,85.29l-2.81-2.11c.59-.79,1.16-1.6,1.69-2.43l2.95,1.91c-.58.9-1.19,1.78-1.84,2.63ZM388.16,82.37c-.57-.9-1.11-1.82-1.62-2.77l3.1-1.67c.47.87.97,1.72,1.49,2.55l-2.97,1.89ZM465.34,79.9l-3.08-1.69c.47-.86.92-1.74,1.33-2.64l3.2,1.46c-.45.98-.93,1.94-1.44,2.87ZM385.12,76.73c-.44-.97-.84-1.96-1.21-2.97l3.3-1.21c.34.93.71,1.84,1.11,2.73l-3.21,1.44ZM468.02,74.07l-3.3-1.23c.34-.92.66-1.85.93-2.8l3.38.99c-.3,1.03-.64,2.05-1.01,3.04ZM382.92,70.71c-.3-1.03-.56-2.08-.77-3.12l3.44-.71c.2.97.44,1.92.71,2.86l-3.38.97ZM469.82,67.91l-3.44-.75c.21-.96.38-1.93.52-2.91l3.48.5c-.15,1.07-.34,2.12-.57,3.16ZM381.6,64.43c-.14-1.05-.25-2.12-.32-3.19l3.51-.22c.06.99.16,1.97.29,2.94l-3.49.47ZM470.73,61.57l-3.51-.25c.07-.98.1-1.96.1-2.96h3.52c0,1.08-.04,2.15-.11,3.2ZM384.71,58.06l-3.52-.02c0-1.08.05-2.15.14-3.2l3.51.27c-.08.98-.12,1.96-.13,2.95ZM467.26,56.02c-.06-.99-.15-1.97-.27-2.95l3.49-.44c.13,1.05.23,2.12.29,3.19l-3.51.2ZM385.17,52.17l-3.48-.52c.16-1.06.36-2.12.59-3.16l3.43.77c-.22.95-.4,1.92-.54,2.9ZM466.51,50.16c-.2-.97-.42-1.93-.69-2.87l3.39-.94c.28,1.03.53,2.07.75,3.12l-3.45.7ZM386.47,46.41l-3.36-1.02c.31-1.03.66-2.04,1.04-3.04l3.29,1.25c-.35.92-.67,1.85-.96,2.8ZM464.93,44.47c-.33-.93-.7-1.84-1.09-2.74l3.22-1.42c.43.97.82,1.97,1.18,2.98l-3.31,1.18ZM388.58,40.88l-3.19-1.49c.45-.98.95-1.94,1.47-2.86l3.07,1.72c-.48.86-.93,1.73-1.35,2.63ZM462.55,39.07c-.46-.87-.95-1.73-1.47-2.56l2.98-1.86c.56.9,1.1,1.83,1.6,2.78l-3.11,1.64ZM391.46,35.72l-2.94-1.93c.59-.89,1.21-1.77,1.85-2.62l2.8,2.13c-.6.78-1.17,1.59-1.71,2.41ZM459.42,34.06c-.58-.8-1.19-1.57-1.82-2.32l2.69-2.27c.69.82,1.35,1.66,1.98,2.52l-2.84,2.07ZM395.05,31.02l-2.64-2.33c.71-.8,1.44-1.58,2.21-2.33l2.46,2.51c-.7.69-1.38,1.41-2.03,2.14ZM455.62,29.55c-.69-.71-1.4-1.39-2.14-2.04l2.34-2.63c.8.71,1.57,1.45,2.32,2.22l-2.52,2.45ZM399.27,26.89l-2.28-2.68c.81-.69,1.65-1.36,2.52-1.99l2.08,2.83c-.79.58-1.57,1.19-2.32,1.83ZM451.2,25.62c-.78-.6-1.58-1.18-2.41-1.72l1.94-2.93c.89.59,1.76,1.21,2.61,1.87l-2.15,2.79ZM404.03,23.39l-1.87-2.98c.9-.57,1.83-1.1,2.77-1.61l1.65,3.1c-.87.46-1.72.96-2.55,1.48ZM446.27,22.35c-.86-.48-1.73-.94-2.63-1.36l1.5-3.18c.97.46,1.92.95,2.85,1.47l-1.72,3.06ZM409.24,20.61l-1.43-3.21c.97-.43,1.97-.83,2.97-1.2l1.19,3.31c-.93.33-1.84.7-2.74,1.1ZM440.92,19.83c-.92-.35-1.85-.68-2.8-.97l1.03-3.36c1.03.31,2.04.66,3.04,1.05l-1.27,3.28ZM414.79,18.6l-.95-3.38c1.02-.29,2.07-.54,3.12-.76l.71,3.44c-.97.2-1.93.43-2.87.7ZM435.27,18.1c-.95-.22-1.92-.4-2.9-.55l.54-3.47c1.06.16,2.12.36,3.15.6l-.78,3.43ZM420.58,17.41l-.46-3.49c1.05-.14,2.12-.24,3.19-.3l.21,3.51c-.99.06-1.97.15-2.94.28ZM429.43,17.2c-.98-.08-1.96-.13-2.95-.14l.04-3.52c1.08.01,2.15.06,3.2.15l-.29,3.5Z"/><polygon class="uuid-4267bc7f-a0cd-49d0-b4ea-ad69c55efeed" points="419.09 73.92 404.77 59.6 407.26 57.12 419.09 68.95 445.53 42.51 448.02 44.99 419.09 73.92"/><polygon class="uuid-c83c2455-21b1-47bc-9507-bfc559dce9ee" points="262.65 92.46 102.49 170.62 71.88 63.55 239.25 0 262.65 92.46"/><rect class="uuid-3fe1745e-4077-47a7-a800-583ccf9875fb" x="138.33" y="53.6" width="85.37" height="3.52" transform="translate(-7.65 70.73) rotate(-21.66)"/><rect class="uuid-3fe1745e-4077-47a7-a800-583ccf9875fb" x="142.99" y="70.83" width="85.27" height="3.52" transform="translate(-13.64 76.99) rotate(-22.62)"/><rect class="uuid-3fe1745e-4077-47a7-a800-583ccf9875fb" x="147.6" y="87.97" width="85.19" height="3.52" transform="translate(-20.01 83.41) rotate(-23.54)"/><path class="uuid-3fe1745e-4077-47a7-a800-583ccf9875fb" d="M133.12,95.02c3.73,13.47.63,27.4-6.9,31.18-7.5,3.84-16.71-4.17-20.6-17.98-3.92-13.85-.92-27.99,6.75-31.49,7.69-3.46,17,4.76,20.75,18.28Z"/><path class="uuid-3fe1745e-4077-47a7-a800-583ccf9875fb" d="M362.32,224.61l-169.44-27.62,1.63-103.72,177.19,43.04-9.37,88.3ZM196.44,194.01l162.77,26.53,8.66-81.54-169.92-41.28-1.51,96.29Z"/><rect class="uuid-3fe1745e-4077-47a7-a800-583ccf9875fb" x="298.33" y="110.48" width="3.52" height="82.99" transform="translate(90.3 414.92) rotate(-78.27)"/><rect class="uuid-3fe1745e-4077-47a7-a800-583ccf9875fb" x="297.25" y="126.77" width="3.52" height="82.13" transform="translate(77.42 429.51) rotate(-79.05)"/><rect class="uuid-3fe1745e-4077-47a7-a800-583ccf9875fb" x="275.78" y="160.22" width="3.52" height="39.79" transform="translate(51.27 421.51) rotate(-79.84)"/><path class="uuid-3fe1745e-4077-47a7-a800-583ccf9875fb" d="M231.34,178.67c-.78,0-1.57-.08-2.36-.25-9.03-1.95-15.83-14.41-15.5-28.36.21-8.34,3.16-15.46,7.89-19.05,2.96-2.24,6.38-2.96,9.86-2.08,9.11,2.26,15.83,14.61,15.3,28.1h0c-.31,8.25-3.31,15.38-8.02,19.05-2.2,1.72-4.64,2.59-7.17,2.59ZM228.36,132.08c-1.71,0-3.34.58-4.86,1.73-3.88,2.95-6.31,9.05-6.5,16.33-.28,11.91,5.54,23.29,12.72,24.84,2.33.49,4.57-.07,6.63-1.68,3.9-3.04,6.4-9.18,6.67-16.41h0c.46-11.7-5.21-22.71-12.64-24.56-.69-.17-1.36-.26-2.02-.26Z"/><polygon class="uuid-c83c2455-21b1-47bc-9507-bfc559dce9ee" points="434.27 254.77 281.35 335.23 264.5 243.61 425.16 178.85 434.27 254.77"/><path class="uuid-3fe1745e-4077-47a7-a800-583ccf9875fb" d="M303.66,340.61c-.54,0-1.06-.29-1.33-.8-.39-.73-.11-1.64.63-2.03l11.74-6.21c.73-.39,1.64-.11,2.03.63.39.73.11,1.64-.63,2.03l-11.74,6.21c-.22.12-.46.18-.7.18Z"/><path class="uuid-3fe1745e-4077-47a7-a800-583ccf9875fb" d="M324.28,329.67c-.54,0-1.06-.29-1.33-.8-.39-.73-.11-1.64.62-2.03l101.52-53.85c.73-.39,1.64-.11,2.03.62.39.73.11,1.64-.62,2.03l-101.52,53.85c-.22.12-.47.18-.7.18Z"/><path class="uuid-3fe1745e-4077-47a7-a800-583ccf9875fb" d="M432.25,272.68c-.51,0-1.01-.26-1.29-.74-.42-.71-.19-1.64.53-2.06l4.31-2.55c.72-.43,1.64-.19,2.06.53.42.71.19,1.64-.53,2.06l-4.31,2.55c-.24.14-.5.21-.77.21Z"/><path class="uuid-3fe1745e-4077-47a7-a800-583ccf9875fb" d="M285.98,353.81c-.74,0-1.39-.55-1.49-1.3l-1.19-8.87c-.11-.82.47-1.58,1.29-1.69.81-.1,1.58.47,1.69,1.29l1.19,8.87c.11.82-.47,1.58-1.29,1.69-.07,0-.13.01-.2.01Z"/><path class="uuid-3fe1745e-4077-47a7-a800-583ccf9875fb" d="M293.32,349.91c-.74,0-1.39-.55-1.49-1.3l-1.19-8.87c-.11-.82.47-1.58,1.29-1.69.8-.11,1.58.47,1.69,1.29l1.19,8.87c.11.82-.47,1.58-1.29,1.69-.07,0-.13.01-.2.01Z"/><path class="uuid-3fe1745e-4077-47a7-a800-583ccf9875fb" d="M319.62,327.5c.97,0,2.15,1.36,2.31,3.32.16,2-.85,3.58-1.93,3.66-.97,0-2.16-1.37-2.31-3.33-.08-1.04.15-2.06.63-2.79.2-.3.63-.82,1.22-.87h.09ZM319.61,324.66c-.1,0-.21,0-.31.01-2.74.22-4.73,3.22-4.46,6.71.26,3.36,2.53,5.94,5.14,5.94.1,0,.21,0,.31-.01,2.73-.22,4.73-3.22,4.45-6.71-.26-3.35-2.53-5.94-5.14-5.94h0Z"/><path class="uuid-3fe1745e-4077-47a7-a800-583ccf9875fb" d="M440.06,337.03c-.1,0-.2,0-.29-.01-.55.02-.7,0-1.02-.04l-.92-.08c-8.34-.8-16.15-7.92-21.85-13.12-2.3-2.1-4.29-3.91-5.83-4.9-.45-.29-1.66-1.07-1.66-2.45s1.21-2.16,1.66-2.45c1.54-.99,3.53-2.8,5.83-4.9,5.7-5.2,13.51-12.33,21.87-13.13.21-.02.43-.04.66-.06l.25-.02c.32-.04.64-.06.95-.04.51-.02.7,0,1.01.04l.21.02c.26.02.48.04.71.06,8.34.8,16.15,7.92,21.85,13.12,2.07,1.89,3.86,3.52,5.32,4.56.78.55,1.81,1.44,1.8,2.81,0,1.51-1.31,2.43-1.74,2.73-1.48,1.04-3.29,2.69-5.39,4.61-5.7,5.2-13.51,12.32-21.86,13.12l-.91.08c-.22.03-.43.05-.65.05ZM412.8,316.43c1.62,1.16,3.46,2.85,5.55,4.75,5.63,5.14,12.64,11.54,19.83,12.22l.59.05c.1,0,.25.02.4.04.08,0,.16.02.23.02.03,0,.27-.01.3-.02h.3c.13.02.22,0,.29,0,.15-.02.3-.03.44-.04l.53-.05c7.2-.69,14.21-7.08,19.84-12.22,2.11-1.92,3.94-3.59,5.55-4.76-1.61-1.16-3.44-2.83-5.55-4.75-5.63-5.14-12.64-11.54-19.83-12.22l-.58-.05c-.11,0-.26-.02-.41-.04-.08,0-.15-.02-.23-.02-.02,0-.26.01-.29.01h-.3c-.15-.02-.23,0-.3,0-.15.02-.29.03-.44.04l-.53.05c-7.2.69-14.21,7.09-19.84,12.22-2.09,1.91-3.93,3.59-5.55,4.75ZM467.2,316.87h.02-.02Z"/><path class="uuid-3fe1745e-4077-47a7-a800-583ccf9875fb" d="M447.68,317.64c-3.22,0-5.83-2.61-5.83-5.83,0-2.72,1.86-4.98,4.38-5.63-1.92-1.25-4.21-1.99-6.67-1.99-6.76,0-12.23,5.48-12.23,12.23s5.48,12.23,12.23,12.23,12.23-5.48,12.23-12.23c0-.16-.02-.31-.02-.46-1.05,1.03-2.49,1.68-4.08,1.68Z"/><path class="uuid-3fe1745e-4077-47a7-a800-583ccf9875fb" d="M477.93,370.51l4.93,3.73,6.98,5.3-6.9,5.39-4.88,3.81-.07-9.12-.07-9.12h0ZM476.62,365.66c-1.15,0-2.23.92-2.23,2.24l.08,11.76.08,11.76c0,1.31,1.08,2.2,2.23,2.2.46,0,.94-.15,1.35-.47l6.96-5.43,8.23-6.44c1.15-.9,1.13-2.63-.02-3.51l-8.33-6.32-7.04-5.33c-.41-.31-.88-.45-1.33-.45h0Z"/><path class="uuid-dce24ef6-643f-4922-9ec6-9351997203d4" d="M213.37,246.27l2.69-1.58c.63-.37,1.02-1.25.87-1.96l-.21-1.51c-.05-.72-.66-1.46-1.36-1.64l-3.02-.78c-.7-.18-1.13-.91-.94-1.6l1.21-4.67c.18-.69.91-1.12,1.61-.94l3.02.79c.7.18,1.59-.16,1.99-.78l.91-1.22c.48-.54.57-1.5.2-2.12l-1.58-2.69c-.37-.62-.15-1.44.47-1.81l4.16-2.45c.62-.36,1.43-.15,1.8.47l1.58,2.69c.37.63,1.25,1.01,1.96.86l1.51-.21c.73-.05,1.46-.66,1.64-1.36l.78-3.02c.18-.69.9-1.12,1.6-.94l4.68,1.22c.69.18,1.12.9.94,1.6l-.78,3.02c-.18.7.16,1.6.77,1.99l1.21.92c.55.48,1.5.56,2.13.2l2.69-1.58c.62-.36,1.43-.15,1.8.47l2.44,4.15c.37.62.15,1.44-.47,1.8l-2.69,1.58c-.62.37-1.01,1.25-.86,1.95l.22,1.51c.05.72.66,1.46,1.37,1.64l3.02.78c.7.18,1.12.91.94,1.6l-1.22,4.67c-.18.7-.9,1.12-1.6.94l-3.02-.78c-.69-.18-1.59.16-1.99.77l-.92,1.22c-.48.55-.57,1.5-.2,2.13l1.58,2.69c.37.63.16,1.43-.46,1.8l-4.16,2.45c-.62.36-1.44.16-1.8-.47l-1.58-2.69c-.37-.63-1.25-1.01-1.95-.86l-1.5.21c-.72.05-1.46.66-1.64,1.37l-.78,3.02c-.18.7-.91,1.13-1.61.94l-4.67-1.21c-.7-.18-1.13-.91-.94-1.6l.79-3.02c.18-.7-.18-1.6-.78-1.99l-1.21-.92c-.54-.48-1.5-.56-2.13-.19l-2.69,1.58c-.62.37-1.43.16-1.8-.47l-2.44-4.15c-.37-.62-.16-1.43.47-1.8ZM234.74,245.41c3.03-1.78,4.04-5.68,2.26-8.7-1.78-3.03-5.67-4.04-8.7-2.26-3.02,1.78-4.04,5.67-2.26,8.7,1.78,3.02,5.68,4.03,8.7,2.26Z"/><path class="uuid-3fe1745e-4077-47a7-a800-583ccf9875fb" d="M353.91,267.58c-.18,0-.37-.03-.55-.09-.65-.21-1.12-.79-1.2-1.48l-2.05-18.42c-.06-.55.14-1.1.55-1.48.41-.38.96-.55,1.51-.45l16.37,2.92c.63.11,1.15.56,1.36,1.17.2.61.06,1.28-.38,1.75l-14.32,15.49c-.34.37-.81.56-1.29.56ZM353.87,249.55l1.36,12.25,9.53-10.31-10.89-1.94Z"/><path class="uuid-dce24ef6-643f-4922-9ec6-9351997203d4" d="M229.35,176.7c5.56,1.18,10.57-2.69,13.29-9.32-1.9-1.42-4.29-2.22-6.85-2.08-1.91.1-8.57.46-10.48.56-2.23.12-4.25.93-5.89,2.21,2.54,4.56,6.02,7.79,9.92,8.63Z"/><path class="uuid-dce24ef6-643f-4922-9ec6-9351997203d4" d="M230.28,160.34c3.86-.21,6.82-3.5,6.61-7.36-.21-3.86-3.5-6.82-7.36-6.61-3.86.21-6.82,3.5-6.61,7.36.21,3.86,3.5,6.82,7.36,6.61Z"/><path class="uuid-3fe1745e-4077-47a7-a800-583ccf9875fb" d="M386.54,406.12c-1.23,0-2.31-.23-3.39-.7l1.41-3.22c.61.27,1.28.41,1.94.41h.26s.2,3.5.2,3.5c-.14,0-.28.01-.43.01ZM390.51,405.13l-1.39-3.23,2.83-1.22,1.39,3.23-2.83,1.22ZM380.07,403.07c-.49-.6-.89-1.26-1.2-1.97l-.5-1.15,3.23-1.39.5,1.15c.18.41.41.8.7,1.14l-2.72,2.23ZM396.17,402.68l-1.39-3.23,2.83-1.22,1.39,3.23-2.83,1.22ZM401.84,400.24l-1.39-3.23,2.83-1.22,1.39,3.23-2.83,1.22ZM407.5,397.79l-1.39-3.23,2.83-1.22,1.39,3.23-2.83,1.22ZM377.15,397.12l-1.22-2.83,3.23-1.39,1.22,2.83-3.23,1.39ZM413.16,395.35l-1.39-3.23,2.83-1.22c.26-.11.51-.25.74-.4l1.93,2.94c-.41.27-.84.5-1.28.69l-2.83,1.22ZM374.71,391.45l-1.22-2.83,3.23-1.39,1.22,2.83-3.23,1.39ZM419.92,390.61l-3.06-1.74c.37-.66.59-1.4.62-2.15l3.51.17c-.06,1.3-.44,2.59-1.08,3.72ZM372.26,385.79l-1.22-2.83,3.23-1.39,1.22,2.83-3.23,1.39ZM417.06,384.5l-1.22-2.83,3.23-1.39,1.22,2.83-3.23,1.39ZM369.82,380.13l-1.22-2.83,3.23-1.4,1.22,2.83-3.23,1.4ZM414.62,378.84l-1.22-2.83,3.23-1.39,1.22,2.83-3.23,1.39ZM367.34,374.35c-.31-.88-.46-1.8-.46-2.73,0-.38.03-.75.08-1.13l3.48.49c-.03.21-.04.43-.04.65,0,.53.09,1.06.27,1.57l-3.32,1.16ZM412.17,373.18l-1.22-2.83,3.23-1.39,1.22,2.83-3.23,1.39ZM371.25,368.88l-2.89-2c.74-1.07,1.74-1.97,2.89-2.59l1.67,3.09c-.66.36-1.24.87-1.66,1.49ZM409.73,367.51l-1.22-2.83,3.23-1.39,1.22,2.83-3.23,1.39ZM375.6,366.21l-1.39-3.23,2.83-1.22,1.39,3.23-2.83,1.22ZM381.26,363.77l-1.39-3.23,2.83-1.22,1.39,3.23-2.83,1.22ZM407.28,361.85l-1.22-2.83,3.23-1.39,1.22,2.83-3.23,1.39ZM386.92,361.32l-1.39-3.23,2.83-1.22,1.39,3.23-2.83,1.22ZM392.58,358.88l-1.39-3.23,2.83-1.22,1.39,3.23-2.83,1.22ZM404.82,356.94c-.53-.54-1.18-.95-1.89-1.19l1.13-3.33c1.24.42,2.37,1.13,3.28,2.06l-2.51,2.46ZM398.24,356.43l-1.39-3.23,1.24-.53c.68-.29,1.39-.49,2.11-.6l.5,3.48c-.41.06-.82.18-1.22.35l-1.24.53Z"/></svg>