<?xml version="1.0" encoding="UTF-8"?><svg id="uuid-8279ad9c-7c63-4a90-b52a-990faf61e9b4" xmlns="http://www.w3.org/2000/svg" viewBox="0 0 534.97 394.76"><defs><style>.uuid-6c3c4fd7-f8ee-4d41-a445-11a10ac81a48{fill:#0e74bb;}.uuid-c9e36a55-15ab-4d3a-a0b5-a4577d0bb1c6{fill:#99b9ff;}.uuid-dec7e4d3-ec3d-4be1-a5bc-1e7c6131468b{fill:#fff;}.uuid-00fcbf7d-2556-4672-bb78-05edb5c167d1{fill:#080717;}.uuid-be0fd8dc-3554-4184-b084-9be93b2b91de{fill:#1d1d1b;}</style></defs><polygon class="uuid-dec7e4d3-ec3d-4be1-a5bc-1e7c6131468b" points="433.22 158.57 38.25 158.57 12.83 173.99 452.05 173.99 433.22 158.57"/><path d="M452.05,175.68H12.83c-.76,0-1.42-.5-1.62-1.23-.2-.73.1-1.5.75-1.9l25.42-15.42c.26-.16.57-.25.87-.25h394.98c.39,0,.77.14,1.07.38l18.83,15.42c.55.45.76,1.2.52,1.87-.24.67-.87,1.12-1.59,1.12ZM18.86,172.31h428.47l-14.71-12.05H38.72l-19.86,12.05Z"/><path class="uuid-dec7e4d3-ec3d-4be1-a5bc-1e7c6131468b" d="M37.03,178.99L1.69,389.53l35.35-210.54Z"/><path d="M1.69,391.22c-.09,0-.19,0-.28-.02-.92-.15-1.54-1.02-1.38-1.94l35.35-210.54c.15-.92,1.01-1.53,1.94-1.38.92.15,1.54,1.02,1.38,1.94L3.35,389.81c-.14.82-.85,1.41-1.66,1.41Z"/><path class="uuid-dec7e4d3-ec3d-4be1-a5bc-1e7c6131468b" d="M435.53,178.99l35.35,210.54-35.35-210.54Z"/><path d="M470.87,391.22c-.81,0-1.52-.58-1.66-1.41l-35.35-210.54c-.15-.92.47-1.79,1.38-1.94.92-.15,1.79.47,1.94,1.38l35.35,210.54c.15.92-.47,1.79-1.38,1.94-.1.01-.19.02-.28.02Z"/><rect class="uuid-dec7e4d3-ec3d-4be1-a5bc-1e7c6131468b" x="12.83" y="173.99" width="439.22" height="10.36"/><path d="M452.05,186.04H12.83c-.93,0-1.69-.75-1.69-1.69v-10.36c0-.93.75-1.69,1.69-1.69h439.22c.93,0,1.69.75,1.69,1.69v10.36c0,.93-.75,1.69-1.69,1.69ZM14.51,182.67h435.85v-6.99H14.51v6.99Z"/><path class="uuid-be0fd8dc-3554-4184-b084-9be93b2b91de" d="M422.56,172.32l-78.59-.41c-3.15,0-6.26-.38-6.72-.83l-20.74-12.95v-3.49l86.78,4.86,20.2,8.19c2.47,1,1.74,4.64-.92,4.64Z"/><path class="uuid-be0fd8dc-3554-4184-b084-9be93b2b91de" d="M314.27,155.84l-19.53-47.09c-1.45-3.49,1.16-7.31,4.98-7.31h79.57c2.24,0,4.25,1.37,5.04,3.44l17.99,47.09c1.33,3.47-1.28,7.17-5.04,7.17h-78.02c-2.19,0-4.16-1.3-4.98-3.3Z"/><path class="uuid-c9e36a55-15ab-4d3a-a0b5-a4577d0bb1c6" d="M321.15,155.4c-.64,0-1.2-.38-1.44-.98l-19.06-47.09c-.27-.68-.03-1.21.15-1.47.17-.26.57-.7,1.29-.7h77.67c.65,0,1.23.41,1.46,1.02l17.56,47.09c.25.67,0,1.2-.18,1.45-.17.25-.57.68-1.28.68h-76.16Z"/><path class="uuid-be0fd8dc-3554-4184-b084-9be93b2b91de" d="M422.56,168.85l-78.59-.41c-3.15,0-6.26-.38-6.72-.83l-19.52-8.69,85.56-2.9,20.2,8.19c2.47,1,1.74,4.64-.92,4.64Z"/><path class="uuid-be0fd8dc-3554-4184-b084-9be93b2b91de" d="M422.89,23.86s-6.75,16.99-10.66,17.48c-3.91.48-14.33-.04-15.5-7.07-1.17-7.03,1.82-5.99,4.82-6.77s.39-7.68,2.21-8.46c1.82-.78,4.16-.52,8.72.52,4.55,1.04,10.41,4.29,10.41,4.29Z"/><path class="uuid-dec7e4d3-ec3d-4be1-a5bc-1e7c6131468b" d="M475.78,90.78l-19.86-31.44c1.91-3.87,3-8.23,3-12.86,0-15.7-12.33-28.08-27.53-28.43-24.94-.57-28.74,21.75-28,26.33.17,1.07.34,2.11.49,3.12.06,1.72.26,3.4.6,5.02.26,3.6-.06,6.46-1.69,8.24-2.45,2.68,11.67,24.78,28.13,14.71l11.23,19.45,33.62-4.14Z"/><path d="M442.16,96.61c-.6,0-1.16-.32-1.46-.84l-10.4-18.02c-9.94,5.05-19.37-.2-25.04-7.08-2.43-2.95-5.96-8.6-3.71-11.05,1.1-1.2,1.5-3.39,1.26-6.87-.34-1.66-.55-3.38-.61-5.1-.15-.97-.31-1.97-.48-3-.54-3.34.9-12.4,6.84-19.22,5.43-6.24,13.14-9.28,22.87-9.07,16.36.37,29.18,13.6,29.18,30.12,0,4.44-.93,8.73-2.76,12.75l19.37,30.65c.31.49.35,1.1.1,1.62-.25.52-.74.88-1.32.95l-33.62,4.14c-.07,0-.14.01-.21.01ZM430.93,73.78c.14,0,.28.02.42.05.44.11.82.4,1.05.79l10.67,18.49,29.87-3.68-18.44-29.19c-.31-.5-.35-1.12-.09-1.65,1.88-3.8,2.83-7.88,2.83-12.12,0-14.67-11.37-26.41-25.88-26.74-8.73-.2-15.51,2.46-20.25,7.91-5.54,6.37-6.38,14.41-6.05,16.46.17,1.08.34,2.12.5,3.14,0,.06.01.13.02.19.06,1.6.25,3.2.57,4.73.02.07.03.15.03.22.22,3.02.19,6.79-1.97,9.32-.06,1.51,3.07,7.63,8.82,11.57,3.92,2.69,10.06,5,17.03.74.27-.16.57-.25.88-.25Z"/><path class="uuid-be0fd8dc-3554-4184-b084-9be93b2b91de" d="M433.42,11.52c-10.16,0-19.12,5.25-24.52,13.25,2.65-.72,5.4-1.12,8.25-1.12,19.29,0,34.93,17.6,34.93,39.32,0,1.21-.06,2.4-.15,3.58,6.91-5.65,11.35-14.38,11.35-24.18,0-17.03-13.37-30.84-29.87-30.84Z"/><path class="uuid-be0fd8dc-3554-4184-b084-9be93b2b91de" d="M406.29,24.01s5.94,5.93,13.72,6.12c4.11.1-.82,2.16.31,6.27,1.13,4.11,4.52,8.74,4.73,11s3.77,1.42,3.77,1.42l15.26,17.56c1.83,2.1,4.81,2.77,7.36,1.65l7.68-3.38-1.38-7.99-12.13-31.04s-26.93-13.47-39.32-1.6Z"/><circle class="uuid-dec7e4d3-ec3d-4be1-a5bc-1e7c6131468b" cx="434.98" cy="48.83" r="6.58"/><path d="M412.77,71.67c-.53,0-1.06-.25-1.38-.72-.53-.76-.35-1.81.42-2.35,1.29-.9,1.34-2.73,1.34-2.75.02-.92.77-1.66,1.69-1.66h.01c.93,0,1.67.75,1.67,1.68,0,.14-.03,3.57-2.78,5.49-.29.21-.63.3-.97.3Z"/><path d="M413.06,46.86c-.68,0-1.32-.41-1.57-1.08-.12-.32-.99-1.06-2.2-1.33-.82-.18-2.01-.19-3,.76-.67.65-1.74.63-2.38-.04-.65-.67-.63-1.74.04-2.38,1.59-1.54,3.81-2.13,6.08-1.63,2.16.48,4.02,1.85,4.62,3.41.33.87-.1,1.84-.97,2.18-.2.08-.4.11-.6.11Z"/><path d="M411.22,53.16c-.16,1.38-1.1,2.41-2.09,2.29-.99-.12-1.67-1.33-1.51-2.71.16-1.38,1.1-2.41,2.09-2.29.99.12,1.67,1.33,1.51,2.71Z"/><polygon class="uuid-dec7e4d3-ec3d-4be1-a5bc-1e7c6131468b" points="415.43 361.97 401.46 316.15 425.87 324.58 434.64 361.97 415.43 361.97"/><path d="M404.04,318.82l20.4,7.05,8.08,34.41h-15.83l-12.64-41.46h0ZM398.88,313.47l15.3,50.18h22.59l-9.47-40.37-28.42-9.82h0Z"/><path d="M435.26,356.13l8.03,27.1h-75.31c-2.72,0-4.67-2.64-3.86-5.24l.76-2.43c.72-2.33,2.32-4.28,4.45-5.46l40.09-22.25s4.01,3.01,4.01,7.28,7.03,9.53,21.83,1Z"/><polygon points="436.27 224.65 436.27 337.56 400.89 337.56 386.58 232.93 436.27 224.65"/><polygon class="uuid-dec7e4d3-ec3d-4be1-a5bc-1e7c6131468b" points="367.76 361.97 353.78 316.15 378.19 324.58 386.97 361.97 367.76 361.97"/><path d="M356.36,318.82l20.4,7.05,8.08,34.41h-15.83l-12.64-41.46h0ZM351.21,313.47l15.3,50.18h22.59l-9.47-40.37-28.42-9.82h0Z"/><path d="M387.59,356.13l8.03,27.1h-75.31c-2.72,0-4.67-2.64-3.86-5.24l.76-2.43c.72-2.33,2.32-4.28,4.45-5.46l40.09-22.25s4.01,3.01,4.01,7.28,7.03,9.53,21.83,1Z"/><path d="M500.22,205.83l-165.26,8.28c-16.14.78-27.55,16.11-23.65,31.79l27.85,93.91h53.45l-27.1-83.56h111.66c13.66,0,25.67-9.03,29.47-22.15h0c1.4-13.23-6.41-28.29-6.41-28.29Z"/><polygon class="uuid-6c3c4fd7-f8ee-4d41-a445-11a10ac81a48" points="389.09 174.21 429.6 174.19 430.5 145.61 389.09 145.61 389.09 174.21"/><path class="uuid-6c3c4fd7-f8ee-4d41-a445-11a10ac81a48" d="M415.95,91.92l-36.66,60.34c-2.39,3.93-3.01,8.68-1.73,13.09h0c2.29,7.87,12.6,11.38,20.18,6.87l38.96-23.17s26.35-94.64-20.75-57.12Z"/><path class="uuid-6c3c4fd7-f8ee-4d41-a445-11a10ac81a48" d="M507.28,213.36l-12.8-115.92c-1.56-6.28-10.85-14.84-17.31-13.55l-44.15-1.8c-13.41,2.68-22.7,14.71-21.69,28.09l7.12,100.92,88.82,2.26Z"/><path d="M398.22,175.69c-.49,0-.97-.21-1.31-.62-.59-.72-.48-1.79.24-2.37l37.55-30.66c.73-.59,1.79-.48,2.37.24.59.72.48,1.79-.24,2.37l-37.55,30.66c-.31.26-.69.38-1.07.38Z"/><path d="M516.89,383.71c-.61,0-1.21-.34-1.5-.92l-58.75-115.21c-.42-.83-.09-1.84.74-2.27.83-.42,1.84-.09,2.27.74l58.75,115.21c.42.83.09,1.84-.74,2.27-.25.13-.51.18-.76.18Z"/><path d="M382.67,383.71c-.26,0-.52-.06-.76-.18-.83-.42-1.16-1.44-.74-2.27l58.75-115.21c.42-.83,1.43-1.16,2.27-.74.83.42,1.16,1.44.74,2.27l-58.75,115.21c-.3.58-.89.92-1.5.92Z"/><path d="M449.78,385.92c-.93,0-1.69-.75-1.69-1.69v-117.06c0-.93.75-1.69,1.69-1.69s1.69.75,1.69,1.69v117.06c0,.93-.75,1.69-1.69,1.69Z"/><path class="uuid-dec7e4d3-ec3d-4be1-a5bc-1e7c6131468b" d="M503.09,269.82h-95.98c-4.99,0-9.03-4.04-9.03-9.03h0c0-4.99,4.04-9.03,9.03-9.03h95.98c4.99,0,9.03,4.04,9.03,9.03h0c0,4.99-4.04,9.03-9.03,9.03Z"/><path d="M503.09,271.5h-95.98c-5.91,0-10.72-4.81-10.72-10.72s4.81-10.72,10.72-10.72h95.98c5.91,0,10.72,4.81,10.72,10.72s-4.81,10.72-10.72,10.72ZM407.11,253.44c-4.05,0-7.35,3.3-7.35,7.35s3.3,7.35,7.35,7.35h95.98c4.05,0,7.35-3.3,7.35-7.35s-3.3-7.35-7.35-7.35h-95.98Z"/><path class="uuid-dec7e4d3-ec3d-4be1-a5bc-1e7c6131468b" d="M512.67,269.69h-95.98c-4.99,0-9.03-4.04-9.03-9.03h0c0-4.99,4.04-9.03,9.03-9.03h95.98c4.99,0,9.03,4.04,9.03,9.03h0c0,4.99-4.04,9.03-9.03,9.03Z"/><path class="uuid-dec7e4d3-ec3d-4be1-a5bc-1e7c6131468b" d="M437.53,211.77s-24.95-15.53-39.9-2.45c-8.84,7.73-4.31,27.46.87,42.31h-2.13c-4.99,0-9.03,4.04-9.03,9.03s4.04,9.03,9.03,9.03h9.54c.04.08.06.13.06.13h40.28c6.74,0,12.64-4.57,14.32-11.1l-23.04-46.95Z"/><path d="M446.25,271.5h-40.28c-.23,0-.44-.04-.65-.13h-8.96c-5.91,0-10.72-4.81-10.72-10.72s4.69-10.6,10.5-10.72c-5.05-15.2-8.68-33.97.38-41.89,15.7-13.74,40.83,1.63,41.9,2.29.27.17.48.41.62.69l23.04,46.95c.18.36.22.77.12,1.16-1.87,7.28-8.43,12.36-15.95,12.36ZM406.56,268.13h39.69c5.77,0,10.84-3.77,12.52-9.25l-22.53-45.92c-3.2-1.86-24.65-13.61-37.49-2.38-6.31,5.52-5.83,19.9,1.35,40.48.18.52.1,1.09-.22,1.53-.32.44-.83.71-1.38.71h-2.13c-4.05,0-7.35,3.3-7.35,7.35s3.3,7.35,7.35,7.35h9.54c.23,0,.44.04.65.13Z"/><path class="uuid-dec7e4d3-ec3d-4be1-a5bc-1e7c6131468b" d="M441.61,269.82h66.67c6.75,0,12.64-4.57,14.32-11.1,0,0,16.89-53.56,8.28-69.17-8.46-15.34-71.62-15.56-91.69,19.76-9.81,17.27,2.43,60.5,2.43,60.5Z"/><path d="M508.27,271.5h-66.67c-.75,0-1.42-.5-1.62-1.23-.51-1.79-12.32-44.11-2.27-61.79,12.79-22.51,41.84-30.46,63.08-30.46.18,0,.36,0,.54,0,15.54.1,27.42,4.21,31.01,10.72,8.85,16.05-7.45,68.27-8.15,70.49-1.85,7.19-8.41,12.28-15.93,12.28ZM442.9,268.13h65.37c5.98,0,11.2-4.04,12.68-9.83.19-.62,16.6-53.13,8.44-67.93-2.91-5.28-14.19-8.88-28.08-8.97-.17,0-.35,0-.53,0-20.33,0-48.07,7.51-60.15,28.76-8.45,14.87.39,50.87,2.26,57.98Z"/><path class="uuid-dec7e4d3-ec3d-4be1-a5bc-1e7c6131468b" d="M205.18,390.88l10.61,1.39h13.97c1.84-1.84,3.21-7.28,1.12-8.84-3.76-2.79-11.1-13.91-18.28-14.71-11.54-1.28-7.42,22.16-7.42,22.16Z"/><polygon class="uuid-dec7e4d3-ec3d-4be1-a5bc-1e7c6131468b" points="118.08 379.52 99.63 377.46 99.39 332.52 123.7 335.86 118.08 379.52"/><path d="M118.08,381.2c-.06,0-.13,0-.19,0l-18.45-2.06c-.85-.1-1.49-.81-1.5-1.67l-.24-44.94c0-.49.21-.95.57-1.28.37-.32.86-.47,1.34-.4l24.32,3.34c.92.13,1.56.97,1.44,1.89l-5.62,43.66c-.11.85-.83,1.47-1.67,1.47ZM101.31,375.95l15.32,1.71,5.2-40.36-20.73-2.85.22,41.5Z"/><polygon class="uuid-00fcbf7d-2556-4672-bb78-05edb5c167d1" points="125.31 351.19 92.08 351.19 92.08 243.26 134.38 243.26 125.31 351.19"/><path class="uuid-00fcbf7d-2556-4672-bb78-05edb5c167d1" d="M116.08,392.27h-14.49c-2.39,0-4.33-1.94-4.33-4.33v-14.83s5.19-2.4,10.38-2.4c7.58,0,12.77,2.4,12.77,2.4v14.83c0,2.39-1.94,4.33-4.33,4.33Z"/><polygon class="uuid-dec7e4d3-ec3d-4be1-a5bc-1e7c6131468b" points="214.65 381.76 197.67 383.57 188.29 339.68 210.8 337.91 214.65 381.76"/><path d="M197.67,385.25c-.79,0-1.48-.55-1.65-1.33l-9.38-43.89c-.1-.48,0-.97.3-1.36.29-.39.74-.64,1.22-.67l22.5-1.77c.9-.06,1.73.61,1.81,1.53l3.85,43.85c.08.92-.59,1.73-1.5,1.82l-16.98,1.81c-.06,0-.12,0-.18,0ZM190.34,341.21l8.66,40.52,13.82-1.47-3.56-40.54-18.92,1.49Z"/><path class="uuid-00fcbf7d-2556-4672-bb78-05edb5c167d1" d="M68.93,215.07h95.78l26.98,14.57c8.22,4.44,14.15,12.19,16.28,21.29l4.99,101.06h-23.15l-33.88-95.41h-64.07c-11.7,0-21.22-9.41-21.38-21.11-.15-10.76-.54-21.41-1.55-20.4Z"/><path class="uuid-00fcbf7d-2556-4672-bb78-05edb5c167d1" d="M213.46,392.27h-14.49c-2.39,0-4.33-1.94-4.33-4.33v-14.83s5.19-2.4,10.38-2.4c7.58,0,12.77,2.4,12.77,2.4v14.83c0,2.39-1.94,4.33-4.33,4.33Z"/><path class="uuid-dec7e4d3-ec3d-4be1-a5bc-1e7c6131468b" d="M211.07,126.39l15.9-17.93,10.74-.77c1.2-.09,1.86,1.36,1.01,2.21h0c-1.05,1.05-2.38,1.75-3.83,2.03l-4.37.84-.25,3.04,10.4-.51,9.82-6.33c1.04-.67,2.25-1.03,3.49-1.03h0c.99,0,1.62,1.04,1.17,1.92l-9.92,19.14-8.88,4.57-13.45.51-6.85,4.57-4.99-12.26Z"/><path d="M216.06,140.34c-.55,0-1.08-.26-1.4-.75-.52-.78-.31-1.82.47-2.34l6.85-4.57c.26-.17.56-.27.87-.28l13.07-.49,8.07-4.15,9.37-18.08c-.69.09-1.36.34-1.95.72l-9.82,6.33c-.25.16-.54.25-.83.27l-10.4.51c-.49.03-.96-.16-1.29-.51-.34-.35-.51-.83-.47-1.31l.25-3.04c.06-.75.62-1.37,1.36-1.52l4.37-.84c.73-.14,1.41-.42,2.03-.81l-8.82.63-15.44,17.41c-.62.7-1.68.76-2.38.14-.7-.62-.76-1.68-.14-2.38l15.9-17.93c.29-.33.7-.53,1.14-.56l10.74-.77c1.26-.07,2.4.59,2.92,1.74.52,1.14.28,2.46-.6,3.34-1.29,1.29-2.91,2.15-4.7,2.5l-2.09.4,7.01-.34,9.44-6.09c1.32-.85,2.84-1.3,4.41-1.3,1.06,0,2.02.54,2.56,1.44.55.9.59,2,.1,2.94l-9.92,19.14c-.16.31-.42.56-.73.72l-8.88,4.57c-.22.11-.46.18-.71.18l-12.97.49-6.45,4.3c-.29.19-.61.28-.93.28Z"/><path class="uuid-c9e36a55-15ab-4d3a-a0b5-a4577d0bb1c6" d="M173.37,115.5l-16.16,98.96-89.08,2.21,1.97-83.09c.35-14.62,10.89-27,25.28-29.67l51.5-9.56c14.99-2.78,28.62,8.11,26.49,21.15Z"/><path class="uuid-c9e36a55-15ab-4d3a-a0b5-a4577d0bb1c6" d="M169.52,101.9l45.28,75.01h0c-3.44,9.29-14.79,12.75-22.83,6.95l-48.73-35.18,26.29-46.78Z"/><path class="uuid-c9e36a55-15ab-4d3a-a0b5-a4577d0bb1c6" d="M185.46,160l24.48-34.56h0c9.89-.57,17.61,8.45,15.51,18.13l-12.05,36.38-27.94-19.95Z"/><path class="uuid-dec7e4d3-ec3d-4be1-a5bc-1e7c6131468b" d="M204.62,167.98l-9.58-22.35,9.58,22.35Z"/><path d="M204.62,169.67c-.65,0-1.28-.38-1.55-1.02l-9.58-22.35c-.37-.85.03-1.85.89-2.21.85-.37,1.85.03,2.21.89l9.58,22.35c.37.85-.03,1.85-.89,2.21-.22.09-.44.14-.66.14Z"/><path class="uuid-00fcbf7d-2556-4672-bb78-05edb5c167d1" d="M140.29,35.06l8.88-9.81s9.91-5.77,10.78-1.45,1.96,26.92-9.17,31.18c-11.13,4.26-10.5-19.92-10.5-19.92Z"/><path class="uuid-dec7e4d3-ec3d-4be1-a5bc-1e7c6131468b" d="M166.13,49c-1.63-.85-5.62-3.12-8.2-4.79-4.7-8.38-9.4-16.24-9.4-16.24,0,0,1.57,7.4-6.94,11.21-9.41,4.21-21.25,22.17-22.62,25.31-1.81,4.17-.04,9.11,3.95,11.03,2.57,1.24,26.31.12,26.31.12,0,0,21.83-.57,17.88-13.19-.63-2-2.39-5.64-4.6-9.82,1.54-.95,2.81-2.23,3.6-3.62Z"/><path d="M132.26,77.79c-4.79,0-8.87-.19-10.06-.76-4.79-2.31-6.93-8.23-4.76-13.22,1.42-3.28,13.48-21.7,23.47-26.18,7.1-3.17,6.02-9.08,5.97-9.33-.16-.81.28-1.61,1.05-1.91.77-.3,1.63,0,2.05.7.05.08,4.62,7.74,9.21,15.91,2.48,1.58,6.09,3.64,7.71,4.49.41.21.71.58.84,1.02.13.44.07.91-.15,1.31-.69,1.21-1.69,2.35-2.89,3.31,2.16,4.16,3.48,7.04,4.03,8.79,1.01,3.23.65,6.08-1.07,8.48-4.63,6.47-17.82,6.89-18.38,6.9-4.01.19-11.07.48-17.03.48ZM149.68,33.23c-.97,2.7-3.13,5.58-7.39,7.49-8.86,3.96-20.52,21.58-21.76,24.44-1.45,3.34-.05,7.31,3.13,8.84,1.66.64,14.27.48,25.5-.05,3.38-.09,12.73-1.25,15.76-5.5,1.08-1.51,1.27-3.31.59-5.5-.37-1.17-1.44-3.78-4.48-9.54-.41-.78-.15-1.75.6-2.22.75-.47,1.43-1.02,1.99-1.63-1.99-1.11-4.71-2.7-6.61-3.94-.23-.15-.42-.35-.55-.59-2.49-4.43-4.99-8.74-6.78-11.8Z"/><path class="uuid-00fcbf7d-2556-4672-bb78-05edb5c167d1" d="M149.17,25.25s-33.69-20.12-43.72-14.65c-10.02,5.47-11.47,10.46-11.53,18.39-.07,7.93-5.36,14.33-15.61,15.82-10.25,1.49-18.42,3.7-14.29,12.52,4.13,8.81,9.03,41.06,28.27,45.92,22.23,5.61,61.53,8.49,58.16-10.47-3.37-18.95-20.94-26.52-20.66-37.26.28-10.75,21.16-4.63,19.37-30.26Z"/><ellipse class="uuid-00fcbf7d-2556-4672-bb78-05edb5c167d1" cx="89.95" cy="91.87" rx="36.44" ry="34.32" transform="translate(-8.45 174.63) rotate(-85.67)"/><path class="uuid-dec7e4d3-ec3d-4be1-a5bc-1e7c6131468b" d="M151.52,62.84l7.64.7s-5.86,10.79-7.64-.7Z"/><path d="M154.43,69.82c-.18,0-.37-.01-.55-.05-2.76-.48-3.62-4.04-4.03-6.68-.08-.51.08-1.03.44-1.41.36-.38.86-.58,1.38-.53l7.64.7c.56.05,1.07.39,1.33.88.27.5.27,1.1,0,1.6-.72,1.33-3.22,5.48-6.21,5.48ZM153.65,64.73c.43,1.46.85,1.73.85,1.74.3-.03.96-.61,1.69-1.5l-2.54-.23Z"/><path class="uuid-dec7e4d3-ec3d-4be1-a5bc-1e7c6131468b" d="M155.68,48.74c.49.98.34,2.07-.32,2.45-.67.38-1.6-.11-2.09-1.08-.49-.98-.34-2.07.32-2.45.67-.38,1.6.11,2.09,1.08Z"/><path d="M154.86,53.01c-.28,0-.56-.04-.85-.13-.94-.28-1.76-1.02-2.25-2.02-.9-1.79-.46-3.84.99-4.67.65-.37,1.43-.45,2.17-.22.94.28,1.76,1.02,2.26,2.01h0c.9,1.79.46,3.85-1,4.67-.41.23-.86.35-1.33.35Z"/><path class="uuid-dec7e4d3-ec3d-4be1-a5bc-1e7c6131468b" d="M149.66,44.44c.87-1.04,1.99-1.83,3.23-2.28l-3.23,2.28Z"/><path d="M149.66,46.12c-.38,0-.77-.13-1.08-.4-.71-.6-.81-1.66-.21-2.38,1.06-1.26,2.43-2.23,3.94-2.78.87-.32,1.84.13,2.16,1.01.32.87-.13,1.84-1.01,2.16-.96.35-1.83.97-2.52,1.78-.33.4-.81.6-1.29.6Z"/><path class="uuid-dec7e4d3-ec3d-4be1-a5bc-1e7c6131468b" d="M159.63,271.75h-42.71c-7.15,0-13.4-4.84-15.18-11.77l24.43-49.78s26.46-16.47,42.3-2.6c15.85,13.87-8.85,64.15-8.85,64.15Z"/><path d="M159.63,273.44h-42.71c-7.92,0-14.84-5.36-16.81-13.03-.1-.39-.06-.8.12-1.16l24.43-49.78c.14-.28.35-.52.62-.69.28-.17,6.92-4.27,15.65-6.7,11.82-3.27,21.73-1.8,28.66,4.26,16.63,14.55-7.41,64.06-8.44,66.16-.28.58-.87.94-1.51.94ZM103.54,260.15c1.78,5.87,7.2,9.92,13.38,9.92h41.64c1.49-3.17,6.37-13.91,9.82-25.7,3.68-12.56,6.49-28.92-1.02-35.49-13.7-11.99-36.59.59-39.9,2.52l-23.93,48.76Z"/><path class="uuid-dec7e4d3-ec3d-4be1-a5bc-1e7c6131468b" d="M42.02,390.72l62.3-122.16-62.3,122.16Z"/><path d="M42.02,392.41c-.26,0-.52-.06-.76-.18-.83-.42-1.16-1.44-.74-2.27l62.3-122.16c.42-.83,1.43-1.16,2.27-.74.83.42,1.16,1.44.74,2.27l-62.3,122.16c-.3.58-.89.92-1.5.92Z"/><path class="uuid-dec7e4d3-ec3d-4be1-a5bc-1e7c6131468b" d="M184.34,390.72l-62.3-122.16,62.3,122.16Z"/><path d="M184.34,392.41c-.61,0-1.21-.34-1.5-.92l-62.3-122.16c-.42-.83-.09-1.84.74-2.27.83-.42,1.84-.09,2.27.74l62.3,122.16c.42.83.09,1.84-.74,2.27-.25.13-.51.18-.76.18Z"/><path d="M113.18,394.76c-.93,0-1.69-.75-1.69-1.69v-124.12c0-.93.75-1.69,1.69-1.69s1.69.75,1.69,1.69v124.12c0,.93-.75,1.69-1.69,1.69Z"/><path class="uuid-dec7e4d3-ec3d-4be1-a5bc-1e7c6131468b" d="M56.65,271.75h101.77c5.29,0,9.58-4.29,9.58-9.58h0c0-5.29-4.29-9.58-9.58-9.58H56.65c-5.29,0-9.58,4.29-9.58,9.58h0c0,5.29,4.29,9.58,9.58,9.58Z"/><path d="M158.42,273.44H56.65c-6.21,0-11.26-5.05-11.26-11.26s5.05-11.26,11.26-11.26h101.77c6.21,0,11.26,5.05,11.26,11.26s-5.05,11.26-11.26,11.26ZM56.65,254.28c-4.35,0-7.89,3.54-7.89,7.89s3.54,7.89,7.89,7.89h101.77c4.35,0,7.89-3.54,7.89-7.89s-3.54-7.89-7.89-7.89H56.65Z"/><path class="uuid-dec7e4d3-ec3d-4be1-a5bc-1e7c6131468b" d="M46.49,271.61h101.77c5.29,0,9.58-4.29,9.58-9.58h0c0-5.29-4.29-9.58-9.58-9.58H46.49c-5.29,0-9.58,4.29-9.58,9.58h0c0,5.29,4.29,9.58,9.58,9.58Z"/><path d="M148.26,273.3H46.49c-6.21,0-11.26-5.05-11.26-11.26s5.05-11.26,11.26-11.26h101.77c6.21,0,11.26,5.05,11.26,11.26s-5.05,11.26-11.26,11.26ZM46.49,254.14c-4.35,0-7.89,3.54-7.89,7.89s3.54,7.89,7.89,7.89h101.77c4.35,0,7.89-3.54,7.89-7.89s-3.54-7.89-7.89-7.89H46.49Z"/><path class="uuid-dec7e4d3-ec3d-4be1-a5bc-1e7c6131468b" d="M123.12,271.61h46.69c5.29,0,9.58-4.29,9.58-9.58h0c0-5.29-4.29-9.58-9.58-9.58h-46.69c-5.29,0-9.58,4.29-9.58,9.58h0c0,5.29,4.29,9.58,9.58,9.58Z"/><path d="M169.81,273.3h-46.69c-6.21,0-11.26-5.05-11.26-11.26s5.05-11.26,11.26-11.26h46.69c6.21,0,11.26,5.05,11.26,11.26s-5.05,11.26-11.26,11.26ZM123.12,254.14c-4.35,0-7.89,3.54-7.89,7.89s3.54,7.89,7.89,7.89h46.69c4.35,0,7.89-3.54,7.89-7.89s-3.54-7.89-7.89-7.89h-46.69Z"/><path class="uuid-dec7e4d3-ec3d-4be1-a5bc-1e7c6131468b" d="M121.85,271.75H51.16c-7.15,0-13.4-4.84-15.18-11.77,0,0-17.9-56.79-8.78-73.34,8.97-16.27,75.94-16.5,97.22,20.96,10.4,18.31-2.58,64.15-2.58,64.15Z"/><path d="M121.85,273.44H51.16c-7.92,0-14.84-5.36-16.82-13.03-.71-2.26-17.99-57.59-8.62-74.57,3.79-6.87,16.35-11.2,32.79-11.31.19,0,.38,0,.57,0,22.5,0,53.26,8.42,66.8,32.25,10.63,18.71-1.88,63.54-2.42,65.44-.21.73-.87,1.23-1.62,1.23ZM59.09,177.89c-.19,0-.37,0-.56,0-14.76.09-26.76,3.94-29.86,9.56-8.68,15.73,8.73,71.46,8.91,72.02,1.62,6.27,7.19,10.59,13.57,10.59h69.4c1.94-7.36,11.41-45.77,2.4-61.63-12.82-22.57-42.28-30.54-63.86-30.54Z"/><path d="M360.93,64.5c-.57,0-1.12-.29-1.44-.81-18.82-30.79-51.57-49.17-87.61-49.17s-68.79,18.38-87.61,49.17c-.49.8-1.52,1.05-2.32.56-.8-.49-1.05-1.52-.56-2.32,19.44-31.8,53.27-50.79,90.49-50.79s71.05,18.98,90.49,50.79c.49.79.24,1.83-.56,2.32-.28.17-.58.25-.88.25Z"/><path d="M361.6,65.55c-.28,0-.56-.07-.82-.21l-15.14-8.41c-.82-.45-1.11-1.48-.66-2.29.45-.81,1.48-1.11,2.29-.66l12.08,6.71-2.23-13.37c-.15-.92.47-1.79,1.39-1.94.93-.16,1.79.47,1.94,1.39l2.8,16.82c.11.64-.16,1.28-.69,1.66-.29.2-.63.31-.97.31Z"/><path class="uuid-6c3c4fd7-f8ee-4d41-a445-11a10ac81a48" d="M208.06,19.78c0-10.92,8.85-19.78,19.78-19.78s19.78,8.85,19.78,19.78c0,7.76-4.48,14.46-10.99,17.69v4.28h-17.58v-4.28c-6.51-3.24-10.99-9.93-10.99-17.69Z"/><rect x="216.85" y="46.65" width="21.97" height="3.37"/><rect x="226.15" y="21.97" width="3.37" height="17.58"/><rect x="223.44" y="20.29" width="8.79" height="3.37"/><path d="M240.5,19.78h-3.37c0-5.13-4.17-9.3-9.3-9.3v-3.37c6.99,0,12.67,5.68,12.67,12.67Z"/></svg>