<?xml version="1.0" encoding="utf-8"?>
<!-- Generator: Adobe Illustrator 27.5.0, SVG Export Plug-In . SVG Version: 6.00 Build 0)  -->
<svg version="1.1" id="Layer_1" xmlns="http://www.w3.org/2000/svg" xmlns:xlink="http://www.w3.org/1999/xlink" x="0px" y="0px"
	 viewBox="0 0 100 100" style="enable-background:new 0 0 100 100;" xml:space="preserve">
<rect x="0" y="0" style="fill:#FFFFFF;" width="100" height="100"/>
<g>
	<path style="fill:#DDEDFA;" d="M8.502,83.72h80.907c0.032-0.045,0.063-0.09,0.092-0.138c0.509-0.816,0.728-2.328,1.123-3.268
		c0.588-1.396,1.16-2.808,1.396-4.332c0.531-3.423-0.071-6.472-0.743-9.828c-0.713-3.557-1.081-8.006-3.347-10.866
		c-1.045-1.319-2.483-2.36-3.999-2.922c-0.878-0.325-2.078-0.27-2.91-0.722c-1.514-0.824-2.378-3.72-3.028-5.284
		c-1.616-3.89-3.563-7.217-7.149-9.279c-3.701-2.129-8.572-3.731-12.802-3.066c-2.318,0.365-5.463,3.488-7.682,2.591
		c-1.012-0.409-1.894-1.631-2.736-2.319c-1.387-1.132-2.888-1.952-4.565-2.456C33.655,29,24.626,33.691,18.745,41.696
		c-2.299,3.129-3.272,6.681-3.704,10.57c-0.23,2.067-0.462,4.512-1.634,6.236c-2.123,3.124-5.667,3.588-7.035,7.566
		c-1.107,3.218-0.99,6.529-0.163,9.801c0.396,1.568,0.929,3.091,1.433,4.621C7.862,81.159,8.11,82.683,8.502,83.72z"/>
	<g>
		<path style="fill:#DDEDFA;" d="M84.463,30.93c2.465,1.27,5.562,0.485,7.698,2.518c2.271,2.163,2.993,6.059,1.47,8.735
			c-3.604,6.333-14.36,2.897-17.391-2.308c-1.165-2.001-1.587-3.407-3.608-4.644c-2.307-1.41-4.041-2.522-5.39-4.977
			c-1.934-3.516-4.037-8.076,1.581-8.787c3.147-0.398,6.215,0.614,8.63,2.583C79.989,26.119,81.46,29.384,84.463,30.93z"/>
		<g>
			
				<rect x="63.603" y="57.179" transform="matrix(1 0.0021 -0.0021 1 0.1429 -0.1581)" style="fill:#FFFFFF;" width="21.252" height="19.552"/>
			
				<rect x="64.735" y="59.29" transform="matrix(1 0.0021 -0.0021 1 0.1273 -0.1465)" style="fill:#A1CDF0;" width="8.465" height="0.98"/>
			
				<rect x="73.812" y="59.302" transform="matrix(1 0.0022 -0.0022 1 0.1291 -0.1606)" style="fill:#A1CDF0;" width="1.531" height="0.98"/>
			
				<rect x="75.829" y="59.308" transform="matrix(1 0.0021 -0.0021 1 0.1273 -0.165)" style="fill:#A1CDF0;" width="3.764" height="0.98"/>
			
				<rect x="64.708" y="71.854" transform="matrix(1 0.0022 -0.0022 1 0.1561 -0.141)" style="fill:#FFFFFF;" width="1.531" height="0.98"/>
			
				<rect x="66.725" y="71.861" transform="matrix(1 0.0021 -0.0021 1 0.1539 -0.1457)" style="fill:#DDEDFA;" width="3.764" height="0.98"/>
			
				<rect x="64.729" y="62.022" transform="matrix(1 0.0021 -0.0021 1 0.133 -0.144)" style="fill:#A1CDF0;" width="6.213" height="0.98"/>
			
				<rect x="71.391" y="62.031" transform="matrix(1 0.0021 -0.0021 1 0.1337 -0.1535)" style="fill:#A1CDF0;" width="1.124" height="0.98"/>
			
				<rect x="78.739" y="62.049" transform="matrix(1 0.0021 -0.0021 1 0.1324 -0.1695)" style="fill:#A1CDF0;" width="3.027" height="0.98"/>
			
				<rect x="72.871" y="62.039" transform="matrix(1 0.0021 -0.0021 1 0.1331 -0.1605)" style="fill:#A1CDF0;" width="5.41" height="0.98"/>
			
				<rect x="64.712" y="69.941" transform="matrix(1 0.0021 -0.0021 1 0.1498 -0.1439)" style="fill:#A1CDF0;" width="6.213" height="0.98"/>
			
				<rect x="71.374" y="69.95" transform="matrix(1 0.002 -0.002 1 0.1444 -0.1471)" style="fill:#A1CDF0;" width="1.124" height="0.98"/>
			
				<rect x="78.722" y="69.967" transform="matrix(1 0.0021 -0.0021 1 0.1491 -0.1695)" style="fill:#A1CDF0;" width="3.027" height="0.98"/>
			
				<rect x="72.855" y="69.957" transform="matrix(1 0.0021 -0.0021 1 0.1499 -0.1605)" style="fill:#A1CDF0;" width="5.41" height="0.98"/>
			
				<rect x="64.723" y="64.833" transform="matrix(1 0.0021 -0.0021 1 0.1397 -0.1393)" style="fill:#FFFFFF;" width="1.124" height="0.98"/>
			
				<rect x="72.071" y="64.851" transform="matrix(1 0.0021 -0.0021 1 0.1405 -0.1578)" style="fill:#FFFFFF;" width="3.027" height="0.98"/>
			
				<rect x="66.203" y="64.841" transform="matrix(1 0.0021 -0.0021 1 0.139 -0.1463)" style="fill:#DDEDFA;" width="5.41" height="0.98"/>
		</g>
		<path style="fill:#A1CDF0;" d="M65.648,83.72H41.585c-0.795,0-1.51-0.356-1.995-0.916c-0.4-0.463-0.643-1.065-0.643-1.722v-57.65
			c0-0.612,0.211-1.177,0.564-1.626c0.484-0.615,1.235-1.012,2.074-1.012h24.064c0.626,0,1.203,0.221,1.657,0.589
			c0.598,0.485,0.981,1.224,0.981,2.049v57.65c0,0.657-0.243,1.259-0.644,1.722C67.158,83.365,66.443,83.72,65.648,83.72z"/>
		<path style="fill:#A1CDF0;" d="M68.144,78.83c0.092-0.259,0.142-0.537,0.142-0.827V26.511c0-0.439-0.115-0.853-0.316-1.213H39.263
			c-0.201,0.36-0.316,0.773-0.316,1.213v51.493c0,0.289,0.05,0.568,0.142,0.827H68.144z"/>
		<rect x="49.048" y="22.77" style="fill:#C7E1F6;" width="7.238" height="0.779"/>
		<path style="fill:#C7E1F6;" d="M58.506,23.159c0,0.295-0.239,0.534-0.533,0.534s-0.534-0.239-0.534-0.534s0.239-0.533,0.534-0.533
			S58.506,22.865,58.506,23.159z"/>
		<g>
			<path style="fill:#001C31;" d="M67.578,78.83c0.089-0.257,0.137-0.532,0.137-0.819V26.976c0-0.436-0.112-0.845-0.306-1.202
				H39.641c-0.195,0.357-0.306,0.766-0.306,1.202v51.035c0,0.287,0.049,0.563,0.137,0.819H67.578z"/>
			<path style="fill:#C7E1F6;" d="M53.456,78.83c0.044-0.257,0.069-0.532,0.069-0.819V26.976c0-0.436-0.056-0.845-0.153-1.202
				H39.488c-0.097,0.357-0.153,0.766-0.153,1.202v51.035c0,0.287,0.024,0.563,0.069,0.819H53.456z"/>
			<path style="fill:#6CAEE3;" d="M66.522,25.299H41.936h-1.408c-0.659,0-1.193,0.388-1.193,0.866v0.662
				c0,0.064,0.035,0.121,0.093,0.163c0.057,0.042,0.137,0.067,0.224,0.067h6.123h21.624c0.175,0,0.317-0.103,0.317-0.23v-0.662
				c0-0.208-0.101-0.398-0.269-0.548C67.228,25.423,66.895,25.299,66.522,25.299z"/>
			<rect x="40.822" y="25.774" style="fill:#A1CDF0;" width="1.113" height="0.808"/>
			<rect x="60.399" y="25.774" style="fill:#F9D275;" width="1.113" height="0.808"/>
			<path style="fill:#A1CDF0;" d="M65.062,26.582h-2.646c-0.066,0-0.128-0.013-0.181-0.035c-0.05-0.021-0.092-0.05-0.124-0.085
				c-0.038-0.042-0.061-0.093-0.061-0.147v-0.274c0-0.063,0.03-0.121,0.081-0.167c0.067-0.061,0.17-0.1,0.286-0.1h2.646
				c0.202,0,0.366,0.12,0.366,0.267v0.274C65.428,26.462,65.264,26.582,65.062,26.582z"/>
			<path style="fill:#2ACC98;" d="M62.89,25.864h-0.331c-0.167,0-0.303,0.098-0.303,0.22v0.187c0,0.051,0.024,0.099,0.065,0.136
				c0.056,0.051,0.141,0.084,0.238,0.084h0.331V25.864z"/>
			<path d="M65.377,26.387h0.175c0.017,0,0.033-0.006,0.045-0.017c0.014-0.013,0.023-0.031,0.023-0.051v-0.281
				c0-0.018-0.007-0.034-0.017-0.046c-0.012-0.014-0.031-0.023-0.051-0.023h-0.175c-0.038,0-0.068,0.031-0.068,0.068v0.281
				C65.308,26.356,65.339,26.387,65.377,26.387z"/>
			<g>
				<g>
					<path style="fill:#A1CDF0;" d="M53.525,35.591v11.725c-3.238,0-5.862-2.625-5.862-5.862
						C47.663,38.216,50.287,35.591,53.525,35.591z"/>
					<g>
						<path style="fill:#016FC2;" d="M53.385,35.591c0,1.325,0,2.649,0,3.974c0,2.099,0,4.197,0,6.296c0,0.485,0,0.97,0,1.456
							c0.047-0.047,0.093-0.093,0.14-0.14c-2.371-0.01-4.556-1.512-5.373-3.748c-0.824-2.256-0.126-4.837,1.714-6.376
							c1.023-0.855,2.328-1.316,3.659-1.322c0.18-0.001,0.18-0.28,0-0.279c-2.495,0.01-4.768,1.589-5.635,3.932
							c-0.873,2.36-0.128,5.101,1.813,6.698c1.076,0.886,2.428,1.368,3.821,1.374c0.076,0,0.14-0.064,0.14-0.14
							c0-1.325,0-2.649,0-3.974c0-2.098,0-4.197,0-6.296c0-0.485,0-0.97,0-1.456C53.665,35.411,53.385,35.411,53.385,35.591z"/>
					</g>
				</g>
				<path style="fill:#FFFFFF;" d="M53.525,37.755v3.949c-1.091,0-1.975-0.884-1.975-1.975
					C51.55,38.639,52.434,37.755,53.525,37.755z"/>
				<path style="fill:#FFFFFF;" d="M53.525,42.175v2.508h-2.979C50.621,43.287,51.924,42.175,53.525,42.175z"/>
			</g>
			<g>
				
					<rect x="62.546" y="29.528" transform="matrix(1 0.0021 -0.0021 1 0.0713 -0.151)" style="fill:#016FC2;" width="16.979" height="7.9"/>
				<g>
					
						<rect x="62.555" y="28.546" transform="matrix(1 0.0021 -0.0021 1 0.0619 -0.151)" style="fill:#6CAEE3;" width="16.979" height="0.983"/>
					<path style="fill:#016FC2;" d="M79.603,29.616L62.484,29.58l0.002-1.122l17.119,0.036L79.603,29.616z M62.624,29.441
						l16.839,0.036l0.002-0.843l-16.839-0.036L62.624,29.441z"/>
				</g>
				
					<rect x="63.444" y="30.377" transform="matrix(1 0.0021 -0.0021 1 0.0653 -0.1422)" style="fill:#A1CDF0;" width="6.763" height="0.396"/>
				
					<rect x="70.696" y="30.386" transform="matrix(1 0.0021 -0.0021 1 0.0652 -0.1515)" style="fill:#A1CDF0;" width="1.223" height="0.396"/>
				
					<rect x="72.307" y="30.392" transform="matrix(1 0.0021 -0.0021 1 0.0653 -0.157)" style="fill:#A1CDF0;" width="3.007" height="0.396"/>
				
					<rect x="63.433" y="35.451" transform="matrix(1 0.0021 -0.0021 1 0.0759 -0.1361)" style="fill:#FFFFFF;" width="1.223" height="0.396"/>
				
					<rect x="65.045" y="35.456" transform="matrix(1 0.0021 -0.0021 1 0.076 -0.1415)" style="fill:#FFFFFF;" width="3.007" height="0.396"/>
				
					<rect x="63.442" y="31.48" transform="matrix(1 0.0021 -0.0021 1 0.0678 -0.1407)" style="fill:#A1CDF0;" width="4.963" height="0.396"/>
				
					<rect x="68.764" y="31.487" transform="matrix(1 0.0021 -0.0021 1 0.0672 -0.1464)" style="fill:#A1CDF0;" width="0.898" height="0.396"/>
				
					<rect x="74.635" y="31.501" transform="matrix(1 0.0021 -0.0021 1 0.067 -0.1599)" style="fill:#A1CDF0;" width="2.419" height="0.396"/>
				
					<rect x="69.947" y="31.493" transform="matrix(1 0.0021 -0.0021 1 0.0676 -0.1534)" style="fill:#A1CDF0;" width="4.322" height="0.396"/>
				
					<rect x="63.435" y="34.68" transform="matrix(1 0.0021 -0.0021 1 0.0746 -0.1407)" style="fill:#A1CDF0;" width="4.963" height="0.396"/>
				
					<rect x="68.757" y="34.687" transform="matrix(1 0.0022 -0.0022 1 0.0779 -0.1541)" style="fill:#A1CDF0;" width="0.898" height="0.396"/>
				
					<rect x="74.628" y="34.701" transform="matrix(1 0.0021 -0.0021 1 0.0752 -0.163)" style="fill:#A1CDF0;" width="2.419" height="0.396"/>
				
					<rect x="69.94" y="34.693" transform="matrix(1 0.0021 -0.0021 1 0.0744 -0.1534)" style="fill:#A1CDF0;" width="4.322" height="0.396"/>
				
					<rect x="63.439" y="32.614" transform="matrix(1 0.0021 -0.0021 1 0.0696 -0.1352)" style="fill:#FFFFFF;" width="0.898" height="0.396"/>
				
					<rect x="69.31" y="32.628" transform="matrix(1 0.0021 -0.0021 1 0.0707 -0.1515)" style="fill:#FFFFFF;" width="2.419" height="0.396"/>
				
					<rect x="64.622" y="32.62" transform="matrix(1 0.0021 -0.0021 1 0.07 -0.1421)" style="fill:#FFFFFF;" width="4.322" height="0.396"/>
			</g>
			<g>
				<rect x="47.663" y="30.313" style="fill:#6CAEE3;" width="5.862" height="2.537"/>
				<g>
					<path style="fill:#FFFFFF;" d="M53.525,32.78c-0.662,0-1.325,0-1.987,0c-1.049,0-2.098,0-3.148,0c-0.243,0-0.485,0-0.728,0
						c0.023,0.023,0.047,0.047,0.07,0.07c0-0.741,0-1.482,0-2.222c0-0.105,0-0.21,0-0.315c-0.023,0.023-0.047,0.047-0.07,0.07
						c0.662,0,1.325,0,1.987,0c1.049,0,2.098,0,3.148,0c0.243,0,0.485,0,0.728,0c-0.023-0.023-0.047-0.047-0.07-0.07
						c0,0.741,0,1.482,0,2.222c0,0.105,0,0.21,0,0.315c0,0.09,0.14,0.09,0.14,0c0-0.741,0-1.482,0-2.222c0-0.105,0-0.21,0-0.315
						c0-0.038-0.032-0.07-0.07-0.07c-0.662,0-1.325,0-1.987,0c-1.049,0-2.098,0-3.148,0c-0.243,0-0.485,0-0.728,0
						c-0.038,0-0.07,0.032-0.07,0.07c0,0.741,0,1.482,0,2.222c0,0.105,0,0.21,0,0.315c0,0.038,0.032,0.07,0.07,0.07
						c0.662,0,1.325,0,1.987,0c1.049,0,2.098,0,3.148,0c0.243,0,0.485,0,0.728,0C53.615,32.92,53.615,32.78,53.525,32.78z"/>
				</g>
			</g>
			<g>
				<rect x="41.077" y="38.917" style="fill:#6CAEE3;" width="5.353" height="2.537"/>
				<g>
					<path style="fill:#FFFFFF;" d="M46.43,41.384c-0.606,0-1.212,0-1.818,0c-0.958,0-1.916,0-2.875,0c-0.22,0-0.441,0-0.661,0
						c0.023,0.023,0.047,0.047,0.07,0.07c0-0.741,0-1.481,0-2.222c0-0.105,0-0.21,0-0.315c-0.023,0.023-0.047,0.047-0.07,0.07
						c0.606,0,1.212,0,1.817,0c0.958,0,1.916,0,2.875,0c0.22,0,0.441,0,0.661,0c-0.023-0.023-0.047-0.047-0.07-0.07
						c0,0.741,0,1.482,0,2.222c0,0.105,0,0.21,0,0.315c0,0.09,0.14,0.09,0.14,0c0-0.741,0-1.481,0-2.222c0-0.105,0-0.21,0-0.315
						c0-0.038-0.032-0.07-0.07-0.07c-0.606,0-1.212,0-1.818,0c-0.958,0-1.916,0-2.875,0c-0.22,0-0.441,0-0.661,0
						c-0.038,0-0.07,0.032-0.07,0.07c0,0.741,0,1.482,0,2.222c0,0.105,0,0.21,0,0.315c0,0.038,0.032,0.07,0.07,0.07
						c0.606,0,1.212,0,1.817,0c0.958,0,1.916,0,2.875,0c0.22,0,0.441,0,0.661,0C46.52,41.524,46.52,41.384,46.43,41.384z"/>
				</g>
			</g>
			<g>
				<rect x="41.077" y="43.007" style="fill:#6CAEE3;" width="5.353" height="2.537"/>
				<g>
					<path style="fill:#FFFFFF;" d="M46.43,45.474c-0.606,0-1.212,0-1.818,0c-0.958,0-1.916,0-2.875,0c-0.22,0-0.441,0-0.661,0
						c0.023,0.023,0.047,0.047,0.07,0.07c0-0.741,0-1.481,0-2.222c0-0.105,0-0.21,0-0.315c-0.023,0.023-0.047,0.047-0.07,0.07
						c0.606,0,1.212,0,1.817,0c0.958,0,1.916,0,2.875,0c0.22,0,0.441,0,0.661,0c-0.023-0.023-0.047-0.047-0.07-0.07
						c0,0.741,0,1.482,0,2.222c0,0.105,0,0.21,0,0.315c0,0.09,0.14,0.09,0.14,0c0-0.741,0-1.481,0-2.222c0-0.105,0-0.21,0-0.315
						c0-0.038-0.032-0.07-0.07-0.07c-0.606,0-1.212,0-1.818,0c-0.958,0-1.916,0-2.875,0c-0.22,0-0.441,0-0.661,0
						c-0.038,0-0.07,0.032-0.07,0.07c0,0.741,0,1.482,0,2.222c0,0.105,0,0.21,0,0.315c0,0.038,0.032,0.07,0.07,0.07
						c0.606,0,1.212,0,1.817,0c0.958,0,1.916,0,2.875,0c0.22,0,0.441,0,0.661,0C46.52,45.614,46.52,45.474,46.43,45.474z"/>
				</g>
			</g>
			<g>
				<rect x="41.077" y="49.674" style="fill:#6CAEE3;" width="12.448" height="2.374"/>
				<g>
					<path style="fill:#FFFFFF;" d="M53.525,51.978c-0.111,0-0.222,0-0.334,0c-0.301,0-0.601,0-0.902,0c-0.447,0-0.894,0-1.341,0
						c-0.545,0-1.091,0-1.636,0c-0.597,0-1.195,0-1.793,0c-0.6,0-1.201,0-1.801,0c-0.562,0-1.125,0-1.687,0
						c-0.475,0-0.951,0-1.426,0c-0.34,0-0.681,0-1.021,0c-0.107,0-0.214,0-0.321,0c-0.054,0-0.112-0.007-0.166,0
						c-0.007,0.001-0.014,0-0.021,0c0.023,0.023,0.047,0.047,0.07,0.07c0-0.693,0-1.386,0-2.078c0-0.098,0-0.197,0-0.296
						c-0.023,0.023-0.047,0.047-0.07,0.07c0.111,0,0.222,0,0.334,0c0.301,0,0.602,0,0.902,0c0.447,0,0.894,0,1.341,0
						c0.545,0,1.091,0,1.637,0c0.598,0,1.195,0,1.793,0c0.6,0,1.201,0,1.801,0c0.563,0,1.125,0,1.688,0c0.475,0,0.951,0,1.426,0
						c0.34,0,0.68,0,1.021,0c0.107,0,0.214,0,0.321,0c0.054,0,0.112,0.007,0.166,0c0.007-0.001,0.014,0,0.021,0
						c-0.023-0.023-0.047-0.047-0.07-0.07c0,0.693,0,1.386,0,2.078c0,0.098,0,0.197,0,0.296c0,0.09,0.14,0.09,0.14,0
						c0-0.693,0-1.386,0-2.078c0-0.098,0-0.197,0-0.296c0-0.038-0.032-0.07-0.07-0.07c-0.111,0-0.222,0-0.334,0
						c-0.301,0-0.601,0-0.902,0c-0.447,0-0.894,0-1.341,0c-0.545,0-1.091,0-1.636,0c-0.597,0-1.195,0-1.793,0
						c-0.6,0-1.201,0-1.801,0c-0.562,0-1.125,0-1.687,0c-0.475,0-0.951,0-1.426,0c-0.34,0-0.681,0-1.021,0
						c-0.162,0-0.325-0.005-0.487,0c-0.007,0-0.014,0-0.021,0c-0.038,0-0.07,0.032-0.07,0.07c0,0.693,0,1.386,0,2.078
						c0,0.098,0,0.197,0,0.296c0,0.038,0.032,0.07,0.07,0.07c0.111,0,0.222,0,0.334,0c0.301,0,0.602,0,0.902,0
						c0.447,0,0.894,0,1.341,0c0.545,0,1.091,0,1.637,0c0.598,0,1.195,0,1.793,0c0.6,0,1.201,0,1.801,0c0.563,0,1.125,0,1.688,0
						c0.475,0,0.951,0,1.426,0c0.34,0,0.68,0,1.021,0c0.162,0,0.325,0.005,0.487,0c0.007,0,0.014,0,0.021,0
						C53.615,52.117,53.615,51.978,53.525,51.978z"/>
				</g>
			</g>
			<g>
				<rect x="47.301" y="60.769" style="fill:#89BEE9;" width="6.224" height="2.374"/>
				<g>
					<path style="fill:#FFFFFF;" d="M53.525,63.073c-0.207,0-0.413,0-0.62,0c-0.496,0-0.992,0-1.488,0c-0.597,0-1.194,0-1.791,0
						c-0.519,0-1.038,0-1.557,0c-0.172,0-0.344,0-0.515,0c-0.074,0-0.169-0.016-0.242,0c-0.003,0.001-0.008,0-0.011,0
						c0.023,0.023,0.047,0.047,0.07,0.07c0-0.693,0-1.386,0-2.078c0-0.099,0-0.197,0-0.296c-0.023,0.023-0.047,0.047-0.07,0.07
						c0.207,0,0.413,0,0.62,0c0.496,0,0.992,0,1.488,0c0.597,0,1.194,0,1.791,0c0.519,0,1.038,0,1.557,0c0.172,0,0.344,0,0.516,0
						c0.074,0,0.169,0.016,0.242,0c0.003-0.001,0.007,0,0.011,0c-0.023-0.023-0.047-0.047-0.07-0.07c0,0.693,0,1.386,0,2.078
						c0,0.098,0,0.197,0,0.296c0,0.09,0.14,0.09,0.14,0c0-0.693,0-1.386,0-2.078c0-0.099,0-0.197,0-0.296
						c0-0.038-0.032-0.07-0.07-0.07c-0.207,0-0.413,0-0.62,0c-0.496,0-0.992,0-1.488,0c-0.597,0-1.194,0-1.791,0
						c-0.519,0-1.038,0-1.557,0c-0.25,0-0.508-0.019-0.758,0c-0.004,0-0.007,0-0.011,0c-0.038,0-0.07,0.032-0.07,0.07
						c0,0.693,0,1.386,0,2.078c0,0.098,0,0.197,0,0.296c0,0.038,0.032,0.07,0.07,0.07c0.207,0,0.413,0,0.62,0
						c0.496,0,0.992,0,1.488,0c0.597,0,1.194,0,1.791,0c0.519,0,1.038,0,1.557,0c0.25,0,0.508,0.019,0.758,0
						c0.004,0,0.007,0,0.011,0C53.615,63.212,53.615,63.073,53.525,63.073z"/>
				</g>
			</g>
			<g>
				<rect x="43.513" y="66.652" style="fill:#89BEE9;" width="10.012" height="2.757"/>
				<g>
					<path style="fill:#FFFFFF;" d="M53.525,69.339c-0.332,0-0.665,0-0.997,0c-0.798,0-1.596,0-2.394,0c-0.965,0-1.93,0-2.895,0
						c-0.831,0-1.663,0-2.494,0c-0.275,0-0.55,0-0.825,0c-0.125,0-0.266-0.019-0.39,0c-0.006,0.001-0.012,0-0.018,0
						c0.023,0.023,0.047,0.047,0.07,0.07c0-0.806,0-1.611,0-2.417c0-0.113,0-0.227,0-0.34c-0.023,0.023-0.047,0.047-0.07,0.07
						c0.332,0,0.665,0,0.997,0c0.798,0,1.596,0,2.394,0c0.965,0,1.93,0,2.895,0c0.831,0,1.663,0,2.494,0c0.275,0,0.55,0,0.825,0
						c0.125,0,0.266,0.019,0.39,0c0.006-0.001,0.012,0,0.018,0c-0.023-0.023-0.047-0.047-0.07-0.07c0,0.806,0,1.611,0,2.417
						c0,0.113,0,0.227,0,0.34c0,0.09,0.14,0.09,0.14,0c0-0.806,0-1.611,0-2.417c0-0.113,0-0.227,0-0.34
						c0-0.038-0.032-0.07-0.07-0.07c-0.332,0-0.665,0-0.997,0c-0.798,0-1.596,0-2.394,0c-0.965,0-1.93,0-2.895,0
						c-0.831,0-1.663,0-2.494,0c-0.404,0-0.811-0.014-1.215,0c-0.006,0-0.012,0-0.018,0c-0.038,0-0.07,0.032-0.07,0.07
						c0,0.806,0,1.611,0,2.417c0,0.113,0,0.227,0,0.34c0,0.038,0.032,0.07,0.07,0.07c0.332,0,0.665,0,0.997,0
						c0.798,0,1.596,0,2.394,0c0.965,0,1.93,0,2.895,0c0.831,0,1.663,0,2.494,0c0.404,0,0.811,0.013,1.215,0
						c0.006,0,0.012,0,0.018,0C53.615,69.478,53.615,69.339,53.525,69.339z"/>
				</g>
			</g>
			<g>
				<rect x="43.513" y="70.692" style="fill:#89BEE9;" width="10.012" height="2.757"/>
				<g>
					<path style="fill:#FFFFFF;" d="M53.525,73.379c-0.332,0-0.665,0-0.997,0c-0.798,0-1.596,0-2.394,0c-0.965,0-1.93,0-2.895,0
						c-0.831,0-1.663,0-2.494,0c-0.275,0-0.55,0-0.825,0c-0.125,0-0.266-0.019-0.39,0c-0.006,0.001-0.012,0-0.018,0
						c0.023,0.023,0.047,0.047,0.07,0.07c0-0.806,0-1.611,0-2.417c0-0.113,0-0.227,0-0.34c-0.023,0.023-0.047,0.047-0.07,0.07
						c0.332,0,0.665,0,0.997,0c0.798,0,1.596,0,2.394,0c0.965,0,1.93,0,2.895,0c0.831,0,1.663,0,2.494,0c0.275,0,0.55,0,0.825,0
						c0.125,0,0.266,0.019,0.39,0c0.006-0.001,0.012,0,0.018,0c-0.023-0.023-0.047-0.047-0.07-0.07c0,0.806,0,1.611,0,2.417
						c0,0.113,0,0.227,0,0.34c0,0.09,0.14,0.09,0.14,0c0-0.806,0-1.611,0-2.417c0-0.113,0-0.227,0-0.34
						c0-0.038-0.032-0.07-0.07-0.07c-0.332,0-0.665,0-0.997,0c-0.798,0-1.596,0-2.394,0c-0.965,0-1.93,0-2.895,0
						c-0.831,0-1.663,0-2.494,0c-0.404,0-0.811-0.014-1.215,0c-0.006,0-0.012,0-0.018,0c-0.038,0-0.07,0.032-0.07,0.07
						c0,0.806,0,1.611,0,2.417c0,0.113,0,0.227,0,0.34c0,0.038,0.032,0.07,0.07,0.07c0.332,0,0.665,0,0.997,0
						c0.798,0,1.596,0,2.394,0c0.965,0,1.93,0,2.895,0c0.831,0,1.663,0,2.494,0c0.404,0,0.811,0.013,1.215,0
						c0.006,0,0.012,0,0.018,0C53.615,73.519,53.615,73.379,53.525,73.379z"/>
				</g>
			</g>
			<g>
				<rect x="43.513" y="74.732" style="fill:#89BEE9;" width="10.012" height="2.757"/>
				<g>
					<path style="fill:#FFFFFF;" d="M53.525,77.419c-0.332,0-0.665,0-0.997,0c-0.798,0-1.596,0-2.394,0c-0.965,0-1.93,0-2.895,0
						c-0.831,0-1.663,0-2.494,0c-0.275,0-0.55,0-0.825,0c-0.125,0-0.266-0.019-0.39,0c-0.006,0.001-0.012,0-0.018,0
						c0.023,0.023,0.047,0.047,0.07,0.07c0-0.806,0-1.611,0-2.417c0-0.113,0-0.227,0-0.34c-0.023,0.023-0.047,0.047-0.07,0.07
						c0.332,0,0.665,0,0.997,0c0.798,0,1.596,0,2.394,0c0.965,0,1.93,0,2.895,0c0.831,0,1.663,0,2.494,0c0.275,0,0.55,0,0.825,0
						c0.125,0,0.266,0.019,0.39,0c0.006-0.001,0.012,0,0.018,0c-0.023-0.023-0.047-0.047-0.07-0.07c0,0.806,0,1.611,0,2.417
						c0,0.113,0,0.227,0,0.34c0,0.09,0.14,0.09,0.14,0c0-0.806,0-1.611,0-2.417c0-0.113,0-0.227,0-0.34
						c0-0.038-0.032-0.07-0.07-0.07c-0.332,0-0.665,0-0.997,0c-0.798,0-1.596,0-2.394,0c-0.965,0-1.93,0-2.895,0
						c-0.831,0-1.663,0-2.494,0c-0.404,0-0.811-0.014-1.215,0c-0.006,0-0.012,0-0.018,0c-0.038,0-0.07,0.032-0.07,0.07
						c0,0.806,0,1.611,0,2.417c0,0.113,0,0.227,0,0.34c0,0.038,0.032,0.07,0.07,0.07c0.332,0,0.665,0,0.997,0
						c0.798,0,1.596,0,2.394,0c0.965,0,1.93,0,2.895,0c0.831,0,1.663,0,2.494,0c0.404,0,0.811,0.013,1.215,0
						c0.006,0,0.012,0,0.018,0C53.615,77.559,53.615,77.419,53.525,77.419z"/>
				</g>
			</g>
			<rect x="53.537" y="30.313" style="fill:#016FC2;" width="5.862" height="2.537"/>
			<rect x="60.632" y="38.917" style="fill:#016FC2;" width="5.353" height="2.537"/>
			<rect x="60.632" y="43.007" style="fill:#016FC2;" width="5.353" height="2.537"/>
			<g>
				<path style="fill:#016FC2;" d="M53.537,52.117c0.111,0,0.222,0,0.334,0c0.301,0,0.602,0,0.902,0c0.447,0,0.894,0,1.341,0
					c0.546,0,1.091,0,1.637,0c0.598,0,1.195,0,1.793,0c0.6,0,1.201,0,1.801,0c0.563,0,1.125,0,1.688,0c0.475,0,0.951,0,1.426,0
					c0.34,0,0.68,0,1.021,0c0.162,0,0.325,0.005,0.487,0c0.007,0,0.014,0,0.021,0c0.038,0,0.07-0.032,0.07-0.07
					c0-0.693,0-1.386,0-2.078c0-0.098,0-0.197,0-0.296c0-0.038-0.032-0.07-0.07-0.07c-0.111,0-0.222,0-0.334,0
					c-0.301,0-0.601,0-0.902,0c-0.447,0-0.894,0-1.341,0c-0.545,0-1.091,0-1.636,0c-0.598,0-1.195,0-1.793,0c-0.6,0-1.201,0-1.801,0
					c-0.563,0-1.125,0-1.688,0c-0.475,0-0.951,0-1.426,0c-0.34,0-0.681,0-1.021,0c-0.162,0-0.325-0.005-0.487,0
					c-0.007,0-0.014,0-0.021,0c-0.038,0-0.07,0.032-0.07,0.07c0,0.693,0,1.386,0,2.078c0,0.098,0,0.197,0,0.296
					c0,0.09,0.14,0.09,0.14,0c0-0.693,0-1.386,0-2.078c0-0.098,0-0.197,0-0.296c-0.023,0.023-0.047,0.047-0.07,0.07
					c0.111,0,0.222,0,0.334,0c0.301,0,0.602,0,0.902,0c0.447,0,0.894,0,1.341,0c0.546,0,1.091,0,1.637,0c0.598,0,1.195,0,1.793,0
					c0.6,0,1.201,0,1.801,0c0.563,0,1.125,0,1.688,0c0.475,0,0.951,0,1.426,0c0.34,0,0.68,0,1.021,0c0.107,0,0.214,0,0.321,0
					c0.054,0,0.112,0.007,0.166,0c0.007-0.001,0.014,0,0.021,0c-0.023-0.023-0.047-0.047-0.07-0.07c0,0.693,0,1.386,0,2.078
					c0,0.098,0,0.197,0,0.296c0.023-0.023,0.047-0.047,0.07-0.07c-0.111,0-0.222,0-0.334,0c-0.301,0-0.601,0-0.902,0
					c-0.447,0-0.894,0-1.341,0c-0.545,0-1.091,0-1.636,0c-0.598,0-1.195,0-1.793,0c-0.6,0-1.201,0-1.801,0c-0.563,0-1.125,0-1.688,0
					c-0.475,0-0.951,0-1.426,0c-0.34,0-0.681,0-1.021,0c-0.162,0-0.325-0.005-0.487,0c-0.007,0-0.014,0-0.021,0
					C53.447,51.978,53.447,52.117,53.537,52.117z"/>
			</g>
			<rect x="53.537" y="60.769" style="fill:#016FC2;" width="6.224" height="2.374"/>
			<rect x="53.537" y="66.652" style="fill:#016FC2;" width="10.012" height="2.757"/>
			<rect x="53.537" y="70.692" style="fill:#016FC2;" width="10.012" height="2.757"/>
			<rect x="53.537" y="74.732" style="fill:#016FC2;" width="10.012" height="2.757"/>
			<path style="fill:#016FC2;" d="M59.387,41.454c0,3.237-2.625,5.862-5.862,5.862V35.591
				C56.762,35.591,59.387,38.216,59.387,41.454z"/>
			<g>
				<g>
					
						<rect x="53.274" y="31.512" transform="matrix(0.9182 -0.3962 0.3962 0.9182 -7.8913 24.9544)" style="fill:#C7E1F6;" width="6.388" height="0.14"/>
				</g>
				<g>
					
						<rect x="56.398" y="28.388" transform="matrix(0.3972 -0.9177 0.9177 0.3972 5.0555 70.8601)" style="fill:#C7E1F6;" width="0.14" height="6.388"/>
				</g>
			</g>
			<g>
				<g>
					
						<rect x="60.347" y="40.115" transform="matrix(0.9038 -0.428 0.428 0.9038 -11.1077 30.9627)" style="fill:#C7E1F6;" width="5.924" height="0.14"/>
				</g>
				<g>
					
						<rect x="63.239" y="37.223" transform="matrix(0.4283 -0.9036 0.9036 0.4283 -0.1189 80.1825)" style="fill:#C7E1F6;" width="0.14" height="5.924"/>
				</g>
			</g>
			<g>
				<g>
					
						<rect x="60.347" y="44.206" transform="matrix(0.9038 -0.428 0.428 0.9038 -12.8584 31.3563)" style="fill:#C7E1F6;" width="5.924" height="0.14"/>
				</g>
				<g>
					
						<rect x="63.239" y="41.314" transform="matrix(0.4283 -0.9036 0.9036 0.4283 -3.8153 82.5211)" style="fill:#C7E1F6;" width="0.14" height="5.924"/>
				</g>
			</g>
			<g>
				<g>
					
						<rect x="53.296" y="61.886" transform="matrix(0.9348 -0.3552 0.3552 0.9348 -18.313 24.1572)" style="fill:#C7E1F6;" width="6.682" height="0.14"/>
				</g>
				<g>
					
						<rect x="56.568" y="58.614" transform="matrix(0.3552 -0.9348 0.9348 0.3552 -21.397 92.8896)" style="fill:#C7E1F6;" width="0.14" height="6.682"/>
				</g>
			</g>
			<g>
				<g>
					
						<rect x="53.328" y="67.96" transform="matrix(0.964 -0.2658 0.2658 0.964 -15.9788 18.0078)" style="fill:#C7E1F6;" width="10.407" height="0.14"/>
				</g>
				<g>
					
						<rect x="58.462" y="62.827" transform="matrix(0.2649 -0.9643 0.9643 0.2649 -22.5733 106.4491)" style="fill:#C7E1F6;" width="0.14" height="10.407"/>
				</g>
			</g>
			<g>
				<g>
					
						<rect x="53.328" y="72" transform="matrix(0.964 -0.266 0.266 0.964 -17.0631 18.1675)" style="fill:#C7E1F6;" width="10.407" height="0.14"/>
				</g>
				<g>
					
						<rect x="58.462" y="66.867" transform="matrix(0.2649 -0.9643 0.9643 0.2649 -26.4691 109.419)" style="fill:#C7E1F6;" width="0.14" height="10.407"/>
				</g>
			</g>
			<g>
				<g>
					
						<rect x="53.328" y="76.04" transform="matrix(0.964 -0.2658 0.2658 0.964 -18.1269 18.2985)" style="fill:#C7E1F6;" width="10.407" height="0.14"/>
				</g>
				<g>
					
						<rect x="58.462" y="70.907" transform="matrix(0.2649 -0.9643 0.9643 0.2649 -30.365 112.3888)" style="fill:#C7E1F6;" width="0.14" height="10.407"/>
				</g>
			</g>
		</g>
	</g>
	<g>
		<path style="fill:#F7A98F;" d="M39.234,62.832c0,0-4.4,3.18-4.529,3.373c-0.128,0.193-3.276-2.12-3.662-1.959
			c-0.385,0.161,0.353,2.859,0.514,3.276c0.161,0.417,2.762,1.092,3.34,1.156c0.578,0.064,1.542-0.674,2.602-1.927
			c1.06-1.253,2.12-2.955,2.12-3.244C39.619,63.217,39.234,62.864,39.234,62.832z"/>
		<path style="fill:#F7A98F;" d="M38.752,63.305c0.051-0.087,0.356-0.751,0.712-1.271s0.508-1.069,0.584-0.953
			c0.076,0.116,0.076,0.318,0.051,0.462c-0.025,0.145-0.381,0.982-0.178,0.867c0.203-0.116,1.144-0.78,1.144-0.78v2.022
			c0,0-1.703,0.722-1.982,0.318C38.803,63.565,38.752,63.305,38.752,63.305z"/>
		<g>
			<path style="fill:#7C4415;" d="M39.872,62.459c0.005,0.005,0.009,0.009,0.014,0.014c0.005,0.005,0.009,0.011,0.014,0.016
				c0.003,0.003,0.012,0.017,0,0c0.003,0.004,0.006,0.007,0.008,0.011c0.014,0.021,0.028,0.042,0.039,0.064
				c0.016,0.031,0.021,0.042,0.031,0.078c0.057,0.189-0.019,0.381-0.13,0.54c-0.022,0.031-0.006,0.078,0.025,0.096
				c0.035,0.02,0.074,0.006,0.096-0.025c0.129-0.185,0.21-0.415,0.146-0.64c-0.026-0.09-0.075-0.187-0.145-0.252
				C39.905,62.299,39.806,62.398,39.872,62.459L39.872,62.459z"/>
		</g>
		<g>
			<g>
				<path style="fill:#78BCF0;" d="M45.8,54.761l-9.043,1.971c-0.025,0.006-0.042,0.031-0.036,0.056l3.237,14.85
					c0.006,0.025,0.031,0.042,0.056,0.036l9.043-1.971c0.025-0.006,0.042-0.031,0.036-0.056l-3.237-14.849
					C45.851,54.771,45.826,54.755,45.8,54.761z"/>
				<g>
					<path style="fill:#FFFFFF;" d="M45.763,54.626c-0.51,0.111-1.02,0.222-1.53,0.333c-1.099,0.24-2.199,0.479-3.298,0.719
						c-1.044,0.228-2.087,0.455-3.131,0.682c-0.301,0.066-0.602,0.131-0.903,0.197c-0.161,0.035-0.342,0.053-0.313,0.279
						c0.053,0.401,0.175,0.804,0.261,1.198c0.194,0.889,0.387,1.777,0.581,2.666c0.248,1.138,0.496,2.275,0.744,3.413
						c0.25,1.147,0.5,2.294,0.75,3.441c0.2,0.916,0.399,1.832,0.599,2.749c0.097,0.444,0.174,0.899,0.292,1.339
						c0.049,0.181,0.198,0.175,0.346,0.143c0.265-0.058,0.53-0.116,0.795-0.173c1.013-0.221,2.025-0.441,3.038-0.662
						c1.118-0.244,2.236-0.487,3.354-0.731c0.397-0.086,0.794-0.173,1.191-0.259c0.177-0.039,0.372-0.06,0.544-0.119
						c0.186-0.064,0.147-0.218,0.116-0.361c-0.044-0.202-0.088-0.404-0.132-0.606c-0.172-0.787-0.343-1.573-0.514-2.36
						c-0.24-1.103-0.481-2.205-0.721-3.308c-0.254-1.167-0.509-2.334-0.763-3.501c-0.217-0.996-0.434-1.993-0.652-2.989
						c-0.128-0.586-0.255-1.171-0.383-1.757c-0.028-0.13-0.034-0.302-0.197-0.331c-0.176-0.032-0.251,0.237-0.074,0.27
						c0.012,0.002,0.024,0.004,0.035,0.007c-0.028-0.021-0.056-0.043-0.083-0.064c0.057,0.081,0.07,0.288,0.094,0.396
						c0.078,0.359,0.156,0.718,0.235,1.077c0.258,1.183,0.515,2.365,0.773,3.548c0.312,1.431,0.624,2.861,0.935,4.291
						c0.27,1.236,0.539,2.473,0.808,3.709c0.088,0.406,0.177,0.812,0.265,1.218c0.028,0.127,0.056,0.255,0.083,0.382
						c0.013,0.061,0.017,0.141,0.043,0.198c0.013,0.029-0.01,0.041-0.001-0.013c0.021-0.028,0.043-0.056,0.064-0.083
						c-0.047,0.033-0.171,0.045-0.24,0.06c-0.221,0.048-0.442,0.096-0.662,0.144c-0.719,0.157-1.438,0.313-2.157,0.47
						c-1.62,0.353-3.241,0.707-4.861,1.06c-0.271,0.059-0.541,0.118-0.812,0.177c-0.076,0.017-0.152,0.033-0.227,0.049
						c-0.047,0.01-0.105-0.001-0.041,0.011c0.028,0.021,0.056,0.043,0.083,0.064c-0.057-0.081-0.07-0.288-0.094-0.396
						c-0.078-0.359-0.156-0.718-0.235-1.077c-0.258-1.183-0.515-2.365-0.773-3.548c-0.312-1.43-0.624-2.861-0.935-4.291
						c-0.27-1.236-0.539-2.472-0.809-3.709c-0.088-0.406-0.177-0.812-0.265-1.218c-0.028-0.127-0.056-0.255-0.083-0.382
						c-0.013-0.061-0.017-0.141-0.043-0.198c-0.013-0.029,0.011-0.042,0.001,0.012c-0.021,0.028-0.043,0.056-0.064,0.083
						c0.047-0.033,0.171-0.045,0.24-0.06c0.221-0.048,0.442-0.096,0.662-0.144c0.719-0.157,1.438-0.313,2.157-0.47
						c1.62-0.353,3.241-0.706,4.861-1.06c0.373-0.081,0.746-0.163,1.119-0.244C46.013,54.857,45.939,54.588,45.763,54.626z"/>
				</g>
			</g>
			<path style="fill:#D6E7F6;" d="M46.231,64.126l-6.307,1.375c-0.005,0.001-0.009,0.007-0.008,0.012l0.211,0.966
				c0.001,0.005,0.007,0.009,0.012,0.008l6.307-1.375c0.005-0.001,0.009-0.007,0.008-0.012l-0.211-0.966
				C46.242,64.129,46.237,64.125,46.231,64.126z"/>
			<path style="fill:#D6E7F6;" d="M46.602,65.828l-6.307,1.375c-0.005,0.001-0.009,0.007-0.008,0.012l0.21,0.966
				c0.001,0.005,0.007,0.009,0.012,0.008l6.307-1.375c0.005-0.001,0.009-0.007,0.008-0.012l-0.211-0.966
				C46.613,65.83,46.608,65.827,46.602,65.828z"/>
			<path style="fill:#D6E7F6;" d="M44.955,59.952c0.338,1.548-0.644,3.077-2.192,3.414c-1.548,0.338-3.077-0.644-3.414-2.192
				c-0.338-1.548,0.644-3.077,2.192-3.415C43.089,57.422,44.617,58.404,44.955,59.952z"/>
		</g>
		<path style="fill:#F7A98F;" d="M10.52,80.939c0,0,2.537-0.185,2.666-0.12c0.128,0.064-0.546,2.024-0.642,2.088
			c-0.096,0.064-2.281,0.032-2.281,0.032s-0.739-1.06-0.546-1.349C9.909,81.3,10.52,80.939,10.52,80.939z"/>
		<path style="fill:#F7931E;" d="M27.639,82.778c0.043-0.086,0.45-1.253,0.514-1.349c0.064-0.096,1.67-0.578,1.767-0.546
			c0.096,0.032,0.289,0.61,0.674,0.867c0.385,0.257,1.831,0.739,1.991,0.899s0.193,0.61,0.193,0.61h-5.171
			C27.607,83.259,27.575,82.906,27.639,82.778z"/>
		<path style="fill:#F7A98F;" d="M28.442,77.542c0,0.128-0.353,3.886-0.289,4.015c0.064,0.129,0.931,0.064,0.931,0.064
			s0.161-0.578,0.835-0.578l1.831-4.207L28.442,77.542z"/>
		<path style="fill:#DC6501;" d="M27.687,82.649c0,0,0.594,0.124,1.204,0.621c0,0,3.75-0.196,3.846-0.155
			c0.096,0.041,0.048,0.61,0.048,0.61l-5.243-0.041C27.543,83.684,27.551,83.001,27.687,82.649z"/>
		<path style="fill:#F7931E;" d="M10.52,80.939c-0.12-0.241-0.795-0.217-1.301,0.096c-0.506,0.313-1.084,0.915-1.445,1.18
			c-0.361,0.265-1.277,1.229-1.325,1.614c-0.048,0.385,0.385,0.795,0.964,0.723c0.578-0.072,2.626-1.156,2.843-1.325
			c0.217-0.169,0.554-0.145,0.602-0.289c0.048-0.145-0.096-0.939-0.241-1.06c-0.144-0.12-0.578-0.169-0.554-0.265
			C10.086,81.517,10.52,80.939,10.52,80.939z"/>
		<path style="fill:#DC6501;" d="M10.078,80.77c0,0-0.474-0.209-1.228,0.241c-0.521,0.31-0.642,0.739-0.642,0.739
			s-1.22,0.931-1.542,1.381c-0.321,0.45-0.323,0.767-0.161,1.092c0.289,0.578,0.907,0.329,0.907,0.329s-0.94-0.201-0.683-0.843
			c0.257-0.642,1.823-1.698,1.991-1.895C9.106,81.364,10.078,80.77,10.078,80.77z"/>
		<path style="fill:#F9D275;" d="M33.79,73.286c-0.289,1.204-3.373,7.082-3.373,7.082l-2.409-0.048
			c-0.075-0.402-0.007-1.485,0.11-2.539c0.108-0.967,0.257-1.91,0.372-2.279c0.241-0.771,1.59-1.397,1.975-1.638
			c0.38-0.237-4.295,1.163-4.43,1.203c-0.002,0-0.003,0.001-0.003,0.001s-0.723,0.434-2.168,2.505
			c-1.445,2.072-4.24,5.685-5.011,5.781c-0.771,0.096-6.697-0.193-6.697-0.193l-0.096-2.313c1.542-0.578,4.722-0.482,4.722-0.482
			c-0.048-0.145,0.241-0.385,0.385-0.289c0.144,0.096,3.083-6.408,3.854-7.757c0.771-1.349,2.168-1.831,2.168-1.831l3.999,0.53
			c0,0,3.276-0.482,4.77-0.048C33.452,71.408,34.079,72.082,33.79,73.286z"/>
		<path style="fill:#FBE4AC;" d="M27.816,80.562l2.602-0.193c0,0,0.482-0.819,0.53-1.06c0,0-3.035-0.385-3.083-0.145
			C27.816,79.405,27.816,80.562,27.816,80.562z"/>
		<path style="fill:#FBE4AC;" d="M12.013,80.658l0.096,2.698l0.915,0.048c0,0,0.626-2.794,0.53-2.939
			C13.459,80.321,12.013,80.658,12.013,80.658z"/>
		<path style="fill:#F9A94B;" d="M26.036,75.068c0.052-0.035,0.781-0.522,1.153-1.637c0.385-1.156,0.385-1.156,0.385-1.156
			s3.902,0.578,4.095,1.108c0.188,0.517-2.013,1.954-3.552,4.399c0.108-0.967,0.257-1.91,0.372-2.279
			c0.241-0.771,1.59-1.397,1.975-1.638C30.845,73.628,26.171,75.028,26.036,75.068z"/>
		<g>
			<path style="fill:#DC6501;" d="M8.702,81.882c0.022,0.008-0.008-0.005,0.015,0.006c0.026,0.012,0.053,0.025,0.078,0.038
				c0.088,0.046,0.173,0.1,0.252,0.161c0.242,0.187,0.432,0.44,0.522,0.734c0.071,0.232,0.08,0.479,0.046,0.718
				c-0.012,0.088,0.122,0.126,0.135,0.037c0.059-0.418,0-0.845-0.24-1.2c-0.155-0.229-0.367-0.418-0.608-0.552
				c-0.053-0.029-0.108-0.057-0.164-0.078C8.655,81.715,8.619,81.85,8.702,81.882L8.702,81.882z"/>
		</g>
		<g>
			<path style="fill:#DC6501;" d="M30.437,81.57c-0.121,0.02-0.242,0.084-0.343,0.15c-0.265,0.174-0.456,0.438-0.579,0.726
				c-0.111,0.259-0.17,0.534-0.203,0.813c-0.01,0.089,0.129,0.089,0.14,0c0.069-0.586,0.32-1.302,0.914-1.523
				c0.035-0.013,0.072-0.025,0.109-0.032C30.563,81.69,30.525,81.556,30.437,81.57L30.437,81.57z"/>
		</g>
		<g>
			<path style="fill:#DC6501;" d="M16.722,80.334c-0.114,0.152-0.225,0.306-0.334,0.461c-0.156,0.222-0.329,0.45-0.443,0.698
				c-0.028,0.061-0.074,0.167,0.006,0.211c0.072,0.039,0.157-0.035,0.209-0.076c0.213-0.165,0.401-0.365,0.589-0.558
				c0.147-0.151,0.293-0.305,0.436-0.46c0.061-0.066-0.038-0.165-0.099-0.099c-0.289,0.315-0.584,0.631-0.903,0.916
				c-0.063,0.057-0.117,0.11-0.191,0.147c0.003-0.002,0.001,0.004-0.003,0.001c0,0-0.021-0.01,0.005,0
				c0.015,0.005,0.028,0.005,0.042,0.022c0.006,0.007,0.015,0.028,0.01,0.024c-0.004-0.004-0.002,0.009,0,0
				c0.001-0.006,0.003-0.012,0.005-0.018c0.007-0.024,0.008-0.025,0.016-0.041c0.109-0.232,0.266-0.445,0.412-0.654
				c0.118-0.169,0.239-0.337,0.363-0.503C16.897,80.332,16.776,80.262,16.722,80.334L16.722,80.334z"/>
		</g>
		<g>
			<path style="fill:#DC6501;" d="M30.484,73.932c0.281-0.101,0.56-0.207,0.839-0.315c0.434-0.169,0.878-0.337,1.29-0.557
				c0.119-0.064,0.295-0.15,0.307-0.304c0.016-0.2-0.249-0.302-0.4-0.354c-0.046-0.016-0.114-0.049-0.162-0.026
				c-0.028,0.014-0.055,0.04-0.08,0.058c-0.149,0.108-0.298,0.217-0.447,0.325c-0.311,0.226-0.621,0.451-0.932,0.677
				c-0.072,0.052-0.002,0.174,0.071,0.121c0.426-0.31,0.853-0.62,1.279-0.929c0.06-0.043,0.12-0.087,0.18-0.131
				c-0.018,0.002-0.036,0.005-0.054,0.007c0.071,0.018,0.141,0.042,0.208,0.072c0.062,0.028,0.214,0.092,0.197,0.18
				c-0.012,0.064-0.096,0.104-0.146,0.133c-0.09,0.054-0.184,0.1-0.278,0.145c-0.491,0.234-1.003,0.427-1.512,0.618
				c-0.132,0.049-0.264,0.099-0.396,0.146C30.363,73.827,30.399,73.963,30.484,73.932L30.484,73.932z"/>
		</g>
		<g>
			<path style="fill:#DC6501;" d="M26.071,75.129c0.212-0.124,0.401-0.304,0.559-0.488c0.158-0.184,0.292-0.389,0.391-0.61
				c0.124-0.28,0.219-0.574,0.324-0.861c0.083-0.225,0.166-0.451,0.248-0.677c0.025-0.068,0.058-0.138,0.074-0.209
				c0.053-0.24,0.071-0.493,0.106-0.735c0.036-0.255,0.073-0.509,0.11-0.763c0.013-0.088-0.122-0.126-0.135-0.037
				c-0.069,0.481-0.138,0.963-0.207,1.444c-0.007,0.047-0.016,0.082-0.032,0.128c-0.063,0.172-0.126,0.344-0.189,0.515
				c-0.102,0.279-0.205,0.557-0.308,0.836c-0.096,0.258-0.2,0.501-0.363,0.724c-0.171,0.236-0.395,0.466-0.648,0.615
				C25.923,75.053,25.993,75.174,26.071,75.129L26.071,75.129z"/>
		</g>
		<g>
			<path style="fill:#DC6501;" d="M26.993,70.987c-0.067,0.48-0.212,0.957-0.353,1.419c-0.117,0.382-0.312,0.79-0.28,1.199
				c0.015,0.188,0.092,0.372,0.271,0.456c0.096,0.045,0.209,0.06,0.313,0.043c0.088-0.015,0.051-0.149-0.037-0.135
				c0.009-0.002,0.018-0.001-0.001,0c-0.017,0.001-0.034,0.002-0.051,0.002c-0.052-0.001-0.086-0.005-0.141-0.025
				c-0.146-0.054-0.209-0.21-0.216-0.364c-0.008-0.162,0.025-0.323,0.067-0.478c0.064-0.232,0.148-0.458,0.218-0.688
				c0.1-0.328,0.191-0.659,0.267-0.993c0.03-0.131,0.059-0.264,0.078-0.397C27.141,70.936,27.006,70.898,26.993,70.987
				L26.993,70.987z"/>
		</g>
		<g>
			<path style="fill:#DC6501;" d="M24.295,70.255c-0.467,0.325-0.922,0.668-1.365,1.025c-0.327,0.264-0.651,0.536-0.945,0.836
				c-0.142,0.145-0.271,0.297-0.38,0.468c-0.243,0.387-0.452,0.797-0.663,1.202c-0.31,0.598-0.611,1.201-0.91,1.805
				c-0.331,0.668-0.658,1.338-0.985,2.008c-0.291,0.596-0.581,1.192-0.875,1.787c-0.19,0.384-0.377,0.77-0.583,1.146
				c-0.026,0.047-0.052,0.094-0.08,0.14c-0.009,0.015-0.018,0.029-0.028,0.043c-0.013,0.018,0.011-0.003-0.009,0.01
				c0.007-0.004,0.006-0.002-0.009,0.004c0.007-0.003-0.005,0.003-0.021,0.007c-0.032,0.009-0.065,0.017-0.098,0.023
				c-0.097,0.018-0.196,0.027-0.294,0.036c-0.649,0.058-1.304,0.067-1.955,0.093c-0.319,0.013-0.638,0.027-0.956,0.052
				c-0.196,0.016-0.413,0.021-0.6,0.086c-0.049,0.017-0.109,0.043-0.122,0.099c-0.02,0.088,0.115,0.125,0.135,0.037
				c-0.002,0.008-0.007,0.011-0.006,0.011c0.002,0.003-0.013,0.004,0,0.001c0.005-0.001,0.01-0.006,0.014-0.008
				c0.009-0.004-0.001-0.001,0.021-0.008c0.016-0.005,0.033-0.01,0.049-0.014c0.086-0.021,0.175-0.033,0.263-0.043
				c0.287-0.033,0.575-0.047,0.863-0.061c0.675-0.032,1.352-0.045,2.026-0.088c0.216-0.014,0.44-0.022,0.651-0.072
				c0.097-0.023,0.147-0.062,0.197-0.145c0.182-0.297,0.33-0.618,0.485-0.93c0.274-0.55,0.544-1.102,0.813-1.655
				c0.322-0.658,0.643-1.317,0.966-1.975c0.312-0.633,0.625-1.266,0.946-1.895c0.239-0.468,0.478-0.937,0.74-1.392
				c0.075-0.131,0.152-0.262,0.24-0.385c0.004-0.005,0.025-0.033,0.013-0.017c0.022-0.028,0.044-0.054,0.067-0.081
				c0.056-0.065,0.114-0.127,0.174-0.188c0.142-0.146,0.292-0.284,0.445-0.418c0.55-0.483,1.136-0.926,1.733-1.35
				c0.037-0.026,0.074-0.052,0.111-0.078C24.439,70.325,24.37,70.204,24.295,70.255L24.295,70.255z"/>
		</g>
		<g>
			<path style="fill:#DC6501;" d="M25.084,70.443c-0.315,0.284-0.637,0.562-0.966,0.83c-0.207,0.169-0.417,0.339-0.643,0.482
				c-0.199,0.127-0.427,0.158-0.66,0.205c-0.271,0.055-0.542,0.106-0.814,0.154c-0.089,0.016-0.051,0.15,0.037,0.135
				c0.236-0.042,0.473-0.086,0.708-0.133c0.24-0.048,0.512-0.074,0.727-0.197c0.228-0.131,0.436-0.301,0.64-0.465
				c0.233-0.186,0.46-0.379,0.685-0.574c0.129-0.112,0.257-0.224,0.384-0.339C25.25,70.481,25.151,70.383,25.084,70.443
				L25.084,70.443z"/>
		</g>
		<path style="fill:#27A77E;" d="M31.686,67.393c0,0,1.188-0.803,1.477-2.152c0,0-1.831-1.895-3.051-2.152
			c-1.221-0.257-4.175-0.546-4.786,0c-0.61,0.546-1.253,3.276-1.317,3.469c-0.064,0.193-1.028,2.634-1.028,2.794
			s0.128,1.124,0.128,1.124s3.469,0.899,4.111,0.771c0.642-0.129,1.028-0.289,1.028-0.289s0.803-0.514,1.349-1.156
			C30.144,69.159,31.686,67.393,31.686,67.393z"/>
		<path style="fill:#F7A98F;" d="M29.791,65.915l-1.927,2.281c0,0,4.208,1.895,4.882,1.959s5.846-1.22,6.006-1.413
			c0.161-0.193,0.096-1.06-0.032-1.188c-0.129-0.129-5.3,0.096-5.717,0.418L29.791,65.915z"/>
		<path style="fill:#1D7D5F;" d="M24.331,66.622l2.73,2.859l0.803-1.285l1.22,0.578c0,0-1.991,1.477-2.312,1.317
			C26.451,69.93,24.331,66.622,24.331,66.622z"/>
		<g>
			<path style="fill:#7C4415;" d="M34.638,66.223c0.018,0.092,0.046,0.184,0.079,0.272c0.061,0.165,0.143,0.335,0.274,0.456
				c0.074,0.069,0.165,0.121,0.267,0.135c0.037,0.005,0.075-0.009,0.086-0.049c0.009-0.033-0.011-0.081-0.049-0.086
				c-0.156-0.021-0.262-0.14-0.341-0.274c-0.074-0.126-0.121-0.256-0.159-0.398c-0.008-0.031-0.016-0.062-0.022-0.093
				C34.755,66.098,34.621,66.135,34.638,66.223L34.638,66.223z"/>
		</g>
		<g>
			<path style="fill:#006E4B;" d="M24.281,66.671c0.309,0.323,0.618,0.647,0.926,0.97c0.488,0.511,0.976,1.022,1.464,1.533
				c0.113,0.119,0.227,0.237,0.34,0.356c0.032,0.034,0.087,0.023,0.11-0.014c0.135-0.216,0.273-0.431,0.413-0.644
				c0.195-0.299,0.388-0.603,0.612-0.881c0.418-0.519,0.852-1.026,1.282-1.536c0.137-0.163,0.275-0.326,0.413-0.489
				c0.023-0.027,0.031-0.073,0-0.099c-0.378-0.315-0.765-0.621-1.154-0.922c-0.655-0.506-1.32-1.017-2.038-1.432
				c-0.146-0.084-0.296-0.164-0.452-0.228c-0.1-0.04-0.214-0.082-0.323-0.073c-0.089,0.007-0.09,0.147,0,0.14
				c0.2-0.016,0.452,0.139,0.631,0.239c0.334,0.187,0.653,0.402,0.965,0.622c0.641,0.451,1.262,0.933,1.872,1.425
				c0.134,0.108,0.268,0.217,0.401,0.327c0-0.033,0-0.066,0-0.099c-0.349,0.413-0.698,0.827-1.045,1.242
				c-0.204,0.243-0.408,0.486-0.608,0.733c-0.214,0.263-0.401,0.545-0.588,0.827c-0.17,0.257-0.336,0.516-0.5,0.777
				c0.037-0.005,0.073-0.009,0.11-0.014c-0.309-0.323-0.618-0.647-0.926-0.97c-0.488-0.511-0.976-1.022-1.464-1.533
				c-0.113-0.119-0.227-0.237-0.34-0.356C24.318,66.507,24.219,66.606,24.281,66.671L24.281,66.671z"/>
		</g>
		<g>
			<path style="fill:#006E4B;" d="M30.97,64.821c0.287,0.541,0.536,1.132,0.663,1.732c0.043,0.203,0.069,0.413,0.043,0.62
				c-0.012,0.089,0.128,0.088,0.14,0c0.051-0.393-0.069-0.808-0.192-1.178c-0.118-0.354-0.265-0.7-0.428-1.036
				c-0.034-0.07-0.068-0.14-0.105-0.209C31.049,64.671,30.928,64.742,30.97,64.821L30.97,64.821z"/>
		</g>
		<g>
			<path style="fill:#006E4B;" d="M29.288,65.497c-0.225,0.194-0.438,0.405-0.647,0.617c-0.492,0.501-0.953,1.034-1.371,1.598
				c-0.284,0.383-0.547,0.782-0.781,1.198c-0.044,0.078,0.077,0.149,0.121,0.071c0.667-1.186,1.562-2.252,2.553-3.18
				c0.074-0.069,0.148-0.138,0.225-0.204C29.456,65.537,29.356,65.438,29.288,65.497L29.288,65.497z"/>
		</g>
		<path style="fill:#7C4415;" d="M30.345,56.689c-0.078,0.463-0.531,0.548-0.921,0.578c-0.006,0-0.012,0.001-0.017,0.001
			c-0.308,0.022-0.61,0.004-0.892,0.16c-0.33,0.181-0.677,0.561-0.883,0.865c-0.211,0.316-0.311,0.668-0.561,0.96
			c-0.015,0.019-0.032,0.038-0.049,0.056c-0.358,0.381-0.675,0.516-1.182,0.445c-0.896-0.123-1.524-0.764-2.472-0.516
			c0.264-0.377,0.818-0.334,1.195-0.478c-0.433-0.199-0.862,0.002-1.234,0.241c-0.197,0.126-0.45,0.412-0.552,0.068
			c-0.137-0.458,0.383-0.915,0.731-1.104c0.472-0.255,0.941-0.304,1.458-0.378c0.954-0.137,1.125-1.133,1.783-1.668
			c0.606-0.492,1.362-0.558,2.085-0.339c0.109,0.033,0.222,0.067,0.334,0.108c0.286,0.101,0.567,0.235,0.768,0.453
			c0.095,0.102,0.171,0.24,0.253,0.362C30.237,56.574,30.287,56.639,30.345,56.689z"/>
		<path style="fill:#3E220B;" d="M30.189,56.503l-0.782,0.765c-0.308,0.022-0.61,0.004-0.892,0.16
			c-0.33,0.181-0.677,0.561-0.883,0.865c-0.211,0.316-0.311,0.668-0.561,0.96c0.067-0.656,0.298-2.13,1.034-2.829
			c0.415-0.394,0.781-0.614,1.063-0.736c0.286,0.101,0.567,0.235,0.768,0.453C30.031,56.243,30.107,56.381,30.189,56.503z"/>
		<path style="fill:#7C4415;" d="M29.695,56.279c0.099-0.012,1.012-0.193,2.264,0.048c1.253,0.241,1.542,1.734,1.614,2.288
			c0.072,0.554-1.156,1.71-1.156,1.71s-3.397,0.337-3.517,0.482c-0.121,0.145-0.53,0.193-0.964-0.41
			C27.503,59.797,27.503,56.544,29.695,56.279z"/>
		<path style="fill:#F7A98F;" d="M38.583,67.481c0.239-0.26,0.584-0.573,0.93-0.771c0.185-0.106,0.369-0.209,0.541-0.332
			c0.159-0.113,0.381-0.309,0.361,0.042c-0.014,0.238-0.293,0.354-0.449,0.507c0.275-0.004,0.54-0.028,0.812-0.044
			c0.198-0.012,0.402-0.016,0.596-0.053c0.085-0.016,0.258-0.127,0.344-0.062c0.4,0.304-1.053,0.739-1.246,0.736
			c0.28-0.001,0.543-0.025,0.814-0.097c0.11-0.029,0.351-0.164,0.43-0.034c0.192,0.318-0.844,0.543-0.979,0.584
			c0.22-0.022,0.458-0.078,0.669-0.164c0.129-0.052,0.21-0.133,0.356-0.117c0.016,0.433-0.736,0.689-1.074,0.719
			c0.288-0.055,0.579-0.161,0.857-0.214c0.083,0.726-2.07,0.842-2.545,0.769c-0.279-0.043-0.305-0.065-0.332-0.351
			C38.632,68.245,38.679,67.727,38.583,67.481z"/>
		<path style="fill:#F7A98F;" d="M29.213,59.965c0,0-1.373,3.059-1.975,3.18c-0.602,0.12,2.553,2.626,2.915,2.385
			c0.361-0.241-0.434-1.59-0.385-1.734c0.048-0.145,0.795-2.553,0.795-2.553L29.213,59.965z"/>
		<path style="fill:#F7A98F;" d="M31.814,57.508c0,0-0.217,0.626-0.482,0.94c-0.265,0.313-0.94,0.602-1.205,0.578
			s-0.482,0.361-0.626,0.337c-0.145-0.024,0.048-0.819-0.506-0.819c-0.554,0-0.434,0.964-0.289,1.205
			c0.145,0.241,0.313,0.313,0.313,0.313s0.024,0.939,0.193,1.349c0.169,0.41,0.528,1.24,1.325,1.373
			c0.364,0.061,1.373-0.554,1.686-1.277c0.313-0.723,0.506-1.975,0.506-1.975s-0.554-0.41-0.795-0.915
			C31.694,58.11,31.814,57.508,31.814,57.508z"/>
		<g>
			<path style="fill:#F7931E;" d="M29.984,56.137c-0.194-0.006-0.395,0.033-0.58,0.086c-0.405,0.115-0.777,0.343-1.046,0.669
				c-0.208,0.252-0.35,0.548-0.44,0.862c-0.025,0.087,0.11,0.123,0.135,0.037c0.141-0.489,0.422-0.926,0.858-1.2
				c0.267-0.167,0.576-0.271,0.889-0.305c0.061-0.007,0.124-0.012,0.185-0.01C30.074,56.28,30.074,56.14,29.984,56.137
				L29.984,56.137z"/>
		</g>
		<g>
			<path style="fill:#F7931E;" d="M31.826,57.689c0.097-0.047,0.157-0.158,0.168-0.261c0.026-0.253-0.176-0.515-0.349-0.676
				c-0.434-0.405-1.091-0.561-1.67-0.549c-0.409,0.009-0.811,0.109-1.174,0.297c-0.08,0.041-0.009,0.162,0.071,0.121
				c0.561-0.29,1.223-0.351,1.832-0.195c0.25,0.064,0.494,0.164,0.705,0.313c0.192,0.135,0.391,0.348,0.44,0.584
				c0.021,0.102-0.016,0.208-0.094,0.245C31.674,57.607,31.745,57.728,31.826,57.689L31.826,57.689z"/>
		</g>
		<g>
			<path style="fill:#F7931E;" d="M28.564,56.784c-0.257-0.289-0.665-0.529-1.061-0.506c-0.196,0.012-0.39,0.083-0.526,0.228
				c-0.115,0.123-0.187,0.279-0.274,0.421c-0.299,0.491-0.801,0.777-1.34,0.943c-0.517,0.16-1.057,0.215-1.577,0.361
				c-0.234,0.066-0.471,0.154-0.657,0.313c-0.181,0.154-0.274,0.367-0.297,0.601c-0.009,0.09,0.131,0.089,0.14,0
				c0.043-0.44,0.408-0.647,0.794-0.763c0.491-0.147,1.005-0.2,1.499-0.338c0.523-0.145,1.059-0.388,1.403-0.823
				c0.115-0.145,0.199-0.306,0.295-0.463c0.078-0.127,0.172-0.236,0.314-0.292c0.423-0.166,0.907,0.1,1.188,0.415
				C28.525,56.95,28.623,56.851,28.564,56.784L28.564,56.784z"/>
		</g>
		<g>
			<path style="fill:#7C4415;" d="M29.131,59.794c-0.081,0.24-0.173,0.491-0.174,0.748c-0.001,0.131,0.038,0.258,0.07,0.384
				c0.039,0.153,0.082,0.306,0.135,0.455c0.151,0.425,0.392,0.835,0.744,1.124c0.065,0.054,0.135,0.108,0.21,0.147
				c0.08,0.041,0.151-0.08,0.071-0.121c-0.188-0.095-0.349-0.266-0.478-0.428c-0.157-0.197-0.282-0.423-0.374-0.657
				c-0.052-0.132-0.095-0.268-0.133-0.405c-0.037-0.134-0.084-0.275-0.102-0.413c-0.034-0.268,0.081-0.548,0.165-0.797
				C29.295,59.745,29.16,59.709,29.131,59.794L29.131,59.794z"/>
		</g>
		<g>
			<path style="fill:#7C4415;" d="M31.237,61.261c0.168-0.085,0.296-0.236,0.36-0.412c0.013-0.034-0.014-0.078-0.049-0.086
				c-0.039-0.009-0.073,0.012-0.086,0.049c-0.002,0.005-0.004,0.011-0.006,0.016c-0.001,0.002-0.007,0.017-0.003,0.007
				c0.004-0.009-0.003,0.006-0.003,0.007c-0.002,0.005-0.005,0.01-0.007,0.016c-0.009,0.018-0.018,0.035-0.028,0.053
				c-0.01,0.017-0.021,0.034-0.033,0.05c-0.001,0.002-0.013,0.017-0.003,0.004c-0.003,0.004-0.006,0.007-0.009,0.011
				c-0.007,0.008-0.013,0.016-0.02,0.024c-0.027,0.03-0.056,0.057-0.087,0.082c0.013-0.01-0.002,0.002-0.004,0.003
				c-0.004,0.003-0.008,0.006-0.012,0.008c-0.009,0.006-0.017,0.012-0.026,0.017c-0.018,0.011-0.036,0.021-0.055,0.031
				c-0.033,0.016-0.045,0.065-0.025,0.096C31.163,61.269,31.202,61.278,31.237,61.261L31.237,61.261z"/>
		</g>
		<path style="fill:#FFFFFF;" d="M30.44,61.2l1,0.391c0,0-0.337,0.494-0.711,0.361C30.355,61.82,30.44,61.2,30.44,61.2z"/>
		<g>
			<path style="fill:#001C31;" d="M30.455,59.718c0.109-0.068,0.271-0.016,0.378,0.032c0.125,0.056,0.233,0.141,0.319,0.249
				c0.023,0.03,0.074,0.025,0.099,0c0.029-0.029,0.024-0.069,0-0.099c-0.102-0.128-0.236-0.225-0.386-0.288
				c-0.146-0.06-0.337-0.105-0.48-0.016C30.309,59.645,30.379,59.766,30.455,59.718L30.455,59.718z"/>
		</g>
		<g>
			<path style="fill:#001C31;" d="M32.086,60.386c0.16-0.052,0.331-0.025,0.469,0.076c0.031,0.022,0.078,0.005,0.096-0.025
				c0.021-0.035,0.006-0.073-0.025-0.096c-0.163-0.119-0.385-0.152-0.577-0.09c-0.036,0.012-0.059,0.048-0.049,0.086
				C32.009,60.372,32.05,60.398,32.086,60.386L32.086,60.386z"/>
		</g>
		<g>
			<path style="fill:#001C31;" d="M30.678,59.13c0.109-0.068,0.271-0.016,0.378,0.032c0.126,0.056,0.234,0.141,0.319,0.249
				c0.024,0.029,0.074,0.025,0.099,0c0.029-0.029,0.024-0.069,0-0.099c-0.102-0.128-0.236-0.225-0.387-0.288
				c-0.146-0.06-0.337-0.105-0.48-0.016C30.532,59.057,30.602,59.178,30.678,59.13L30.678,59.13z"/>
		</g>
		<g>
			<path style="fill:#001C31;" d="M32.309,59.797c0.16-0.053,0.331-0.026,0.47,0.075c0.031,0.022,0.078,0.005,0.096-0.025
				c0.021-0.035,0.006-0.073-0.025-0.096c-0.163-0.119-0.385-0.153-0.577-0.09c-0.036,0.012-0.059,0.048-0.049,0.086
				C32.232,59.783,32.272,59.809,32.309,59.797L32.309,59.797z"/>
		</g>
		<path style="fill:#001C31;" d="M31.153,60.048c-0.045,0.136-0.193,0.21-0.329,0.164c-0.136-0.045-0.21-0.193-0.164-0.329
			c0.046-0.136,0.193-0.21,0.329-0.164C31.124,59.764,31.198,59.911,31.153,60.048z"/>
		<path style="fill:#001C31;" d="M32.575,60.614c-0.045,0.136-0.193,0.21-0.329,0.164c-0.136-0.045-0.21-0.193-0.164-0.329
			c0.045-0.136,0.193-0.21,0.329-0.164C32.547,60.33,32.621,60.477,32.575,60.614z"/>
		<g>
			<path style="fill:#7C4415;" d="M29.914,66.077c0.304,0.195,0.608,0.389,0.913,0.584c0.503,0.322,1.006,0.644,1.51,0.966
				c0.169,0.108,0.339,0.217,0.508,0.325c0.065,0.041,0.12,0.095,0.199,0.082c0.479-0.081,0.958-0.16,1.44-0.225
				c0.676-0.092,1.373-0.189,2.057-0.158c0.06,0.003,0.12,0.007,0.18,0.014c0.089,0.01,0.088-0.13,0-0.14
				c-0.253-0.029-0.511-0.02-0.765-0.007c-0.314,0.017-0.627,0.047-0.94,0.083c-0.564,0.065-1.126,0.148-1.686,0.241
				c-0.115,0.019-0.23,0.039-0.345,0.059c0.018,0.002,0.036,0.005,0.054,0.007c-0.333-0.213-0.665-0.426-0.998-0.639
				c-0.543-0.348-1.086-0.695-1.629-1.043c-0.142-0.091-0.284-0.181-0.426-0.272C29.909,65.908,29.839,66.029,29.914,66.077
				L29.914,66.077z"/>
		</g>
	</g>
	<g>
		<path style="fill:#F7A98F;" d="M69.949,49.462c0,0-1.549,1.323-1.662,1.588l-0.022,2.911c0.227,0,2.932-1.172,3.008-1.285
			S69.949,49.462,69.949,49.462z"/>
		<g>
			
				<rect x="60.996" y="44.83" transform="matrix(0.232 -0.9727 0.9727 0.232 -1.9042 99.6963)" style="fill:#016FC2;" width="2.374" height="12.448"/>
			<g>
				<g>
					
						<rect x="62.091" y="44.69" transform="matrix(0.0463 -0.9989 0.9989 0.0463 8.2865 110.7775)" style="fill:#C7E1F6;" width="0.14" height="12.717"/>
				</g>
				<g>
					
						<rect x="62.091" y="44.69" transform="matrix(0.4095 -0.9123 0.9123 0.4095 -9.8662 86.8546)" style="fill:#C7E1F6;" width="0.14" height="12.717"/>
				</g>
			</g>
		</g>
		<path style="fill:#F7A98F;" d="M79.815,75.692c0,0,0.302,5.633,0.246,5.954c-0.057,0.321,1.531,0.113,1.531,0.113l0.189-0.473
			l0.227-6.408L79.815,75.692z"/>
		<path style="fill:#DC6501;" d="M79.966,81.249c-0.096,0.096-1.323,1.172-1.796,1.342c-0.473,0.17-0.491,0.491-0.51,0.699h4.536
			c0,0-0.321-1.72-0.378-2.079l-1.285,0.284C80.533,81.494,80.25,80.965,79.966,81.249z"/>
		<path style="fill:#EAA367;" d="M77.604,83.592c0-0.076,0.113-0.454,0.113-0.454s0.699-0.019,2.117,0
			c1.418,0.019,2.155-0.416,2.268-0.321c0.113,0.095,0.34,0.794,0.265,0.869s-4.763,0-4.763,0V83.592z"/>
		<path style="fill:#F7A98F;" d="M72.084,75.692c0,0,0.302,5.633,0.246,5.954c-0.057,0.321,1.531,0.113,1.531,0.113l0.189-0.473
			l0.227-6.408L72.084,75.692z"/>
		<path style="fill:#DC6501;" d="M72.236,81.249c-0.096,0.096-1.323,1.172-1.796,1.342c-0.473,0.17-0.491,0.491-0.51,0.699h4.536
			c0,0-0.321-1.72-0.378-2.079l-1.285,0.284C72.803,81.494,72.519,80.965,72.236,81.249z"/>
		<path style="fill:#EAA367;" d="M69.873,83.592c0-0.076,0.113-0.454,0.113-0.454s0.699-0.019,2.117,0
			c1.418,0.019,2.155-0.416,2.268-0.321c0.113,0.095,0.34,0.794,0.265,0.869s-4.763,0-4.763,0V83.592z"/>
		<path style="fill:#A1CDF0;" d="M82.65,80.587h-3.138c0,0-1.134-8.676-1.285-9.318c-0.151-0.643-1.474-7.707-1.474-7.707
			l-0.002,0.006c-0.054,0.126-0.915,4.127-1.434,5.494c-0.193,0.507-0.338,0.92-0.378,1.11c-0.151,0.718,0.151,0.907,0.378,2.268
			s-0.454,8.146-0.454,8.146h-2.835c0,0-0.945-8.033-0.945-9.885c0-1.371,1.201-7.828,1.825-10.074c0.219-0.789,0.367-1.3,0.367-1.3
			l2.577-0.531l5.134-1.057c0,0,0.416,1.436,0.68,2.533c0.265,1.096-0.113,7.744,0.113,9.067c0.227,1.323,0.454,1.474,0.756,2.911
			C82.839,73.688,82.65,80.587,82.65,80.587z"/>
		<path style="fill:#6CAEE3;" d="M76.753,63.562l-0.002,0.006c-0.054,0.126-0.915,4.127-1.434,5.494
			c0.038-1.254-0.009-5.037-0.529-5.84c-0.783-1.21-1.768-2.086-1.88-2.594c0.219-0.789,0.367-1.3,0.367-1.3l2.577-0.531
			c-0.085,0.672-0.293,2.668,0.144,3.479C76.526,63.26,76.904,63.486,76.753,63.562z"/>
		<g>
			<path style="fill:#016FC2;" d="M74.447,62.824c0.668,0.235,1.336,0.471,2.003,0.706c0.095,0.033,0.189,0.067,0.284,0.1
				c0.059,0.021,0.109-0.053,0.079-0.103c-0.107-0.18-0.213-0.36-0.32-0.54c-0.15-0.254-0.318-0.505-0.449-0.769
				c-0.103-0.208-0.132-0.466-0.169-0.693c-0.047-0.29-0.082-0.582-0.113-0.874c-0.018-0.172-0.035-0.344-0.049-0.517
				c-0.007-0.089-0.147-0.09-0.14,0c0.035,0.44,0.083,0.879,0.149,1.315c0.038,0.252,0.075,0.517,0.165,0.757
				c0.039,0.103,0.1,0.196,0.155,0.292c0.084,0.144,0.168,0.287,0.253,0.431c0.132,0.223,0.263,0.446,0.396,0.669
				c0.026-0.034,0.053-0.069,0.079-0.103c-0.668-0.235-1.336-0.471-2.004-0.706c-0.094-0.033-0.189-0.067-0.284-0.1
				C74.399,62.659,74.363,62.794,74.447,62.824L74.447,62.824z"/>
		</g>
		<g>
			<path style="fill:#016FC2;" d="M81.215,64.623c-0.069,1.27-0.188,2.538-0.34,3.801c-0.168,1.39-0.376,2.779-0.675,4.148
				c-0.143,0.655-0.308,1.308-0.524,1.943c-0.029,0.085,0.106,0.122,0.135,0.037c0.41-1.207,0.654-2.472,0.863-3.727
				c0.23-1.388,0.401-2.786,0.53-4.187c0.062-0.671,0.113-1.343,0.15-2.015C81.359,64.533,81.22,64.533,81.215,64.623L81.215,64.623
				z"/>
		</g>
		<g>
			<path style="fill:#016FC2;" d="M81.248,69.406c-0.066,0.889-0.132,1.779-0.198,2.668c-0.007,0.09,0.133,0.089,0.14,0
				c0.066-0.889,0.132-1.779,0.198-2.668C81.394,69.316,81.254,69.316,81.248,69.406L81.248,69.406z"/>
		</g>
		<g>
			<path style="fill:#F7931E;" d="M78.533,82.415c0.314,0.246,0.722,0.132,1.02-0.081c0.171-0.123,0.326-0.269,0.484-0.408
				c0.184-0.161,0.368-0.323,0.552-0.484c0.068-0.059-0.032-0.158-0.099-0.099c-0.3,0.263-0.595,0.536-0.904,0.79
				c-0.251,0.206-0.651,0.421-0.954,0.183C78.562,82.261,78.462,82.359,78.533,82.415L78.533,82.415z"/>
		</g>
		<g>
			<path style="fill:#F7931E;" d="M70.849,82.415c0.314,0.246,0.722,0.132,1.019-0.081c0.171-0.123,0.326-0.269,0.484-0.408
				c0.184-0.161,0.368-0.323,0.552-0.484c0.068-0.059-0.031-0.158-0.099-0.099c-0.3,0.263-0.595,0.536-0.904,0.79
				c-0.251,0.206-0.651,0.421-0.954,0.183C70.877,82.261,70.778,82.359,70.849,82.415L70.849,82.415z"/>
		</g>
		<path style="fill:#D92C09;" d="M81.945,60.236c-0.555-0.051-3.529,0.756-5.999,0.655c-2.469-0.101-3.225-0.857-3.225-0.857
			s0.302-0.756,0.302-1.159c0-0.191-0.091-1.403-0.203-2.655c-0.029-0.332-0.06-0.666-0.091-0.985c-0.1-1.02-0.2-1.884-0.261-2.005
			c-0.151-0.302-1.814,0.302-1.814,0.302c-1.915-1.966-1.411-3.83-1.411-3.83s2.571-2.621,3.225-3.277
			c0.656-0.655,2.571-0.907,2.571-0.907l1.714-0.352c0,0,2.722-0.353,3.529,0.302c0.806,0.655,1.361,4.183,1.26,6.3
			C81.441,53.885,82.499,60.286,81.945,60.236z"/>
		<path style="fill:#A32107;" d="M71.876,53.393c0.088-0.6,0.253-1.234,0.36-1.851c0.072-0.417,0.071-1.175,0.351-1.471
			c0.557,1.125,0.693,2.684,0.841,3.914c-0.33-0.299-1.652,0.017-1.522-0.74C71.856,53.254,71.891,53.277,71.876,53.393z"/>
		<path style="fill:#E8806B;" d="M74.914,45.371l-0.684,0.298c0,0-0.508,1.131,0.189,1.828c0.522,0.522,1.346,0.089,1.549-0.049
			c1.017-0.69,1.413-2.37,1.413-2.37l-0.897-0.12L74.914,45.371z"/>
		<path style="fill:#A32107;" d="M81.1,54.792c-0.195,0.337-0.641,0.306-0.912,0.529c-0.365,0.299-0.742,0.57-1.127,0.842
			c-0.743,0.523-1.513,1.027-2.444,1.125c-0.282,0.029-0.541,0.015-0.792-0.027c-0.454-0.076-0.881-0.243-1.361-0.398
			c-0.56-0.182-1.105-0.402-1.642-0.643c-0.029-0.332-0.06-0.666-0.091-0.985c0.206-0.039,0.426-0.037,0.611-0.039
			c0.624-0.006,1.254,0.008,1.871-0.108c0.959-0.181,1.923-0.551,2.685-1.17c0.189-0.153,1.328-1.633,1.37-1.608
			c0,0,1.002,0.291,1.153,0.139s0.757-2.306,0.87-2.798C81.404,49.159,81.516,54.074,81.1,54.792z"/>
		<path style="fill:#F7A98F;" d="M76.158,51.388c0,0-1.119,2.093-1.321,1.942c-0.202-0.151-5.292-0.554-5.746-0.403
			c-0.454,0.151,0.101,1.361,0.101,1.361s5.292,1.966,6.099,2.067c0.807,0.101,1.462,0.151,2.117-0.806
			c0.655-0.958,2.054-3.196,2.054-3.196S77.745,52.116,76.158,51.388z"/>
		<g>
			<path style="fill:#7C4415;" d="M74.987,53.342c0.139-0.005,0.257,0.016,0.392,0.053c0.262,0.072,0.501,0.223,0.645,0.459
				c0.115,0.189,0.161,0.408,0.168,0.627c0.003,0.09,0.143,0.09,0.14,0c-0.014-0.392-0.151-0.767-0.472-1.008
				c-0.205-0.154-0.458-0.234-0.711-0.262c-0.053-0.006-0.108-0.01-0.161-0.008C74.897,53.205,74.897,53.345,74.987,53.342
				L74.987,53.342z"/>
		</g>
		<g>
			<path style="fill:#6D1605;" d="M71.816,48.741c0.271,0.433,0.51,0.891,0.719,1.356c0.163,0.363,0.309,0.74,0.395,1.129
				c0.094,0.426,0.163,0.859,0.234,1.289c0.031,0.185,0.061,0.37,0.086,0.556c0.012,0.089,0.147,0.051,0.135-0.037
				c-0.079-0.576-0.185-1.15-0.295-1.721c-0.145-0.754-0.494-1.469-0.86-2.137c-0.094-0.171-0.189-0.34-0.293-0.505
				C71.889,48.594,71.768,48.664,71.816,48.741L71.816,48.741z"/>
		</g>
		<g>
			<path style="fill:#6D1605;" d="M77.782,45.891c-0.412,0.68-0.681,1.425-0.94,2.173c-0.183,0.529-0.369,1.057-0.535,1.591
				c-0.12,0.388-0.239,0.776-0.348,1.167c-0.037,0.134-0.08,0.27-0.102,0.408c-0.006,0.039-0.015,0.085,0.017,0.116
				c0.032,0.031,0.095,0.031,0.152,0.049c0.476,0.155,0.934,0.365,1.406,0.531c0.612,0.215,1.256,0.341,1.891,0.469
				c0.271,0.054,0.543,0.108,0.818,0.137c0.095,0.01,0.281,0.048,0.341-0.054c0.041-0.07,0.059-0.165,0.083-0.241
				c0.05-0.154,0.098-0.309,0.147-0.464c0.214-0.686,0.424-1.374,0.632-2.061c0.004-0.014,0.009-0.028,0.013-0.043
				c0.026-0.086-0.109-0.123-0.135-0.037c-0.176,0.58-0.353,1.159-0.532,1.738c-0.096,0.311-0.191,0.623-0.294,0.932
				c-0.011,0.035-0.025,0.069-0.036,0.104c-0.007,0.022-0.003,0.007,0.001,0.002c0.015-0.02,0.008-0.008-0.018-0.006
				c-0.193,0.018-0.406-0.035-0.594-0.068c-0.322-0.056-0.641-0.125-0.96-0.195c-0.319-0.071-0.642-0.135-0.956-0.228
				c-0.501-0.148-0.983-0.353-1.47-0.54c-0.027-0.01-0.421-0.174-0.436-0.144c-0.004,0.008,0.077,0.05,0.061,0.056
				c0.001,0,0.001-0.014,0.001-0.016c-0.005,0.02,0.002-0.008,0.002-0.013c0.002-0.012,0.005-0.025,0.007-0.037
				c0.014-0.064,0.03-0.128,0.047-0.191c0.101-0.384,0.218-0.764,0.335-1.144c0.126-0.412,0.264-0.819,0.403-1.227
				c0.254-0.743,0.493-1.499,0.846-2.203c0.084-0.167,0.174-0.331,0.271-0.491C77.95,45.885,77.829,45.814,77.782,45.891
				L77.782,45.891z"/>
		</g>
		<g>
			<path style="fill:#6D1605;" d="M75.66,59.086c0.354-0.156,0.689-0.371,1.005-0.593c0.722-0.508,1.365-1.132,1.868-1.859
				c0.355-0.513,0.633-1.077,0.822-1.672c0.027-0.086-0.108-0.123-0.135-0.037c-0.315,0.99-0.887,1.877-1.622,2.607
				c-0.494,0.491-1.055,0.917-1.663,1.257c-0.113,0.063-0.227,0.125-0.345,0.177C75.507,59.002,75.578,59.122,75.66,59.086
				L75.66,59.086z"/>
		</g>
		<g>
			<path style="fill:#6D1605;" d="M80.088,53.437c-0.101,0.346-0.21,0.689-0.323,1.03c-0.223,0.675-0.46,1.349-0.745,2.001
				c-0.14,0.32-0.289,0.64-0.479,0.934c-0.049,0.076,0.072,0.146,0.121,0.07c0.363-0.561,0.606-1.206,0.839-1.828
				c0.221-0.592,0.422-1.192,0.609-1.795c0.039-0.125,0.077-0.25,0.114-0.376C80.248,53.388,80.113,53.351,80.088,53.437
				L80.088,53.437z"/>
		</g>
		<path style="fill:#001C31;" d="M73.669,40.337c0,0-0.196-1.011,0.293-1.5c0.489-0.489,1.892-0.457,3.164-0.033
			c1.272,0.424,1.337,1.011,1.37,1.5s-1.207,2.87-1.403,3.132c-0.196,0.261-0.424,1.142-0.424,1.142L73.669,40.337z"/>
		<path style="fill:#F7A98F;" d="M74.452,43.632c0,0,0.261,1.924,0.163,2.088c-0.098,0.163-0.522,1.011,0,1.533
			c0.522,0.522,1.501-0.163,1.859-1.011c0.359-0.848,0.359-1.239,0.359-1.239s-0.359-1.696-0.359-2.316
			C76.475,42.066,74.452,43.632,74.452,43.632z"/>
		<path style="fill:#F7A98F;" d="M73.898,39.913c0.196,0.228,0.391,0.228,1.011,0.294c0.62,0.065,1.109-0.163,1.142-0.065
			c0.033,0.098,0.024,1.386,0.065,1.566c0.098,0.424,0.424,0.391,0.424,0.391s0.685-0.848,0.848-0.228
			c0.163,0.62-0.401,0.965-0.718,1.044c-0.13,0.033-0.489,1.174-1.337,1.631c-0.488,0.263-1.272,0.131-1.631-0.163
			c-0.359-0.294-0.261-0.913-0.261-1.957S73.898,39.913,73.898,39.913z"/>
		<g>
			<path style="fill:#7C4415;" d="M74.647,44.817c0.243,0.001,0.484-0.059,0.696-0.181c0.201-0.116,0.354-0.298,0.521-0.457
				c0.279-0.268,0.488-0.595,0.658-0.941c0.122-0.248,0.228-0.505,0.33-0.762c0.033-0.084-0.102-0.12-0.135-0.037
				c-0.192,0.482-0.395,0.982-0.723,1.391c-0.153,0.19-0.337,0.36-0.512,0.529c-0.222,0.214-0.53,0.32-0.835,0.318
				C74.557,44.677,74.557,44.817,74.647,44.817L74.647,44.817z"/>
		</g>
		<g>
			<path style="fill:#016FC2;" d="M74.001,39.954c-0.045-0.431,0.231-0.779,0.573-1.007c0.363-0.242,0.799-0.353,1.232-0.357
				c0.387-0.004,0.774,0.081,1.141,0.2c0.351,0.113,0.726,0.267,0.994,0.528c0.067,0.065,0.122,0.141,0.191,0.205
				c0.065,0.06,0.138,0.112,0.188,0.187c0.161,0.243,0.086,0.515,0.06,0.783c-0.009,0.09,0.131,0.089,0.14,0
				c0.024-0.251,0.085-0.493-0.018-0.736c-0.079-0.186-0.233-0.278-0.36-0.426c-0.26-0.301-0.617-0.481-0.986-0.618
				c-0.831-0.307-1.806-0.411-2.594,0.074c-0.406,0.25-0.754,0.662-0.701,1.167C73.871,40.043,74.01,40.044,74.001,39.954
				L74.001,39.954z"/>
		</g>
		<g>
			<path style="fill:#016FC2;" d="M74.415,40.071c-0.027-0.054,0.005-0.139,0.018-0.193c0.017-0.067,0.038-0.132,0.065-0.196
				c0.053-0.123,0.125-0.238,0.213-0.338c0.171-0.193,0.401-0.354,0.643-0.445c0.273-0.102,0.575-0.091,0.861-0.07
				c0.301,0.022,0.599,0.073,0.891,0.151c0.305,0.081,0.602,0.193,0.861,0.379c0.073,0.053,0.143-0.069,0.07-0.121
				c-0.25-0.18-0.538-0.294-0.833-0.377c-0.322-0.09-0.655-0.148-0.989-0.172c-0.318-0.023-0.649-0.029-0.948,0.095
				c-0.261,0.108-0.511,0.284-0.69,0.503c-0.099,0.121-0.177,0.257-0.232,0.403c-0.049,0.13-0.118,0.318-0.051,0.452
				C74.335,40.223,74.455,40.152,74.415,40.071L74.415,40.071z"/>
		</g>
		<g>
			<path style="fill:#016FC2;" d="M76.362,40.402c0.103,0.099,0.306,0.067,0.436,0.059c0.166-0.011,0.331-0.037,0.492-0.079
				c0.326-0.085,0.633-0.235,0.901-0.438c0.071-0.054,0.001-0.175-0.07-0.121c-0.236,0.179-0.5,0.316-0.783,0.401
				c-0.143,0.043-0.29,0.073-0.438,0.089c-0.068,0.007-0.136,0.011-0.203,0.013c-0.059,0.001-0.19,0.022-0.236-0.022
				C76.396,40.241,76.297,40.339,76.362,40.402L76.362,40.402z"/>
		</g>
		<g>
			<path style="fill:#7C4415;" d="M73.941,42.48c-0.023,0.135,0.016,0.272,0.11,0.372c0.025,0.027,0.074,0.027,0.099,0
				c0.026-0.029,0.027-0.07,0-0.099c-0.004-0.005-0.009-0.009-0.013-0.014c-0.002-0.002-0.004-0.005-0.006-0.007
				c-0.006-0.007,0.001,0,0.002,0.003c-0.001-0.005-0.008-0.011-0.011-0.016c-0.004-0.005-0.007-0.011-0.01-0.016
				c-0.006-0.011-0.012-0.022-0.017-0.034c-0.004-0.009,0.001,0,0.001,0.004c0-0.003-0.002-0.006-0.003-0.009
				c-0.002-0.007-0.005-0.014-0.007-0.02c-0.004-0.012-0.007-0.025-0.009-0.037c-0.001-0.003-0.001-0.006-0.002-0.009
				c0-0.002-0.002-0.013-0.001-0.003c0.002,0.011,0,0,0-0.003c0-0.003-0.001-0.006-0.001-0.01c-0.001-0.013-0.001-0.025-0.001-0.038
				c0-0.006,0.001-0.013,0.001-0.019c0-0.002,0.002-0.013,0-0.002c-0.002,0.012,0.001-0.004,0.001-0.005
				c0.006-0.036-0.009-0.077-0.049-0.086C73.993,42.423,73.947,42.441,73.941,42.48L73.941,42.48z"/>
		</g>
		<path style="fill:#FFFFFF;" d="M73.761,43.035c0,0,0.803,0.198,1.229,0.198c0,0-0.302,0.567-0.794,0.482
			C73.805,43.648,73.733,43.168,73.761,43.035z"/>
		<g>
			<path style="fill:#001C31;" d="M74.986,41.761c0.234-0.07,0.473,0.026,0.653,0.178c0.029,0.024,0.071,0.028,0.099,0
				c0.025-0.025,0.029-0.074,0-0.099c-0.217-0.184-0.504-0.299-0.788-0.214C74.863,41.652,74.899,41.786,74.986,41.761
				L74.986,41.761z"/>
		</g>
		<g>
			<path style="fill:#001C31;" d="M73.673,41.517c0.004-0.003,0.008-0.005,0.013-0.007c0.005-0.003,0.012-0.005,0.002-0.002
				c0.01-0.004,0.02-0.007,0.03-0.009c0.006-0.002,0.013-0.003,0.019-0.004c0.013-0.003-0.003,0,0.005-0.001
				c0.012-0.001,0.023-0.002,0.035-0.002c0.055-0.001,0.09,0.005,0.143,0.019c0.048,0.012,0.099,0.03,0.137,0.047
				c0.022,0.01,0.044,0.022,0.065,0.035c0.009,0.005,0.018,0.011,0.027,0.017c0.004,0.003,0.008,0.006,0.012,0.009
				c-0.01-0.007-0.001,0,0.003,0.003c0.029,0.024,0.071,0.028,0.099,0c0.025-0.025,0.029-0.074,0-0.099
				c-0.088-0.075-0.202-0.122-0.313-0.149c-0.111-0.027-0.245-0.04-0.347,0.022C73.526,41.442,73.596,41.563,73.673,41.517
				L73.673,41.517z"/>
		</g>
		<g>
			<path style="fill:#001C31;" d="M73.725,40.888c0.149-0.053,0.32-0.028,0.44,0.071c0.029,0.024,0.07,0.028,0.099,0
				c0.025-0.025,0.029-0.075,0-0.099c-0.159-0.131-0.38-0.177-0.576-0.107c-0.036,0.013-0.059,0.048-0.049,0.086
				C73.648,40.873,73.689,40.9,73.725,40.888L73.725,40.888z"/>
		</g>
		<g>
			<path style="fill:#001C31;" d="M75.181,41.096c0.215-0.074,0.461-0.018,0.62,0.146c0.063,0.065,0.161-0.034,0.099-0.099
				c-0.191-0.197-0.495-0.272-0.756-0.182c-0.036,0.012-0.059,0.048-0.049,0.086C75.104,41.082,75.145,41.108,75.181,41.096
				L75.181,41.096z"/>
		</g>
		<circle style="fill:#001C31;" cx="75.22" cy="41.898" r="0.23"/>
		<path style="fill:#001C31;" d="M74.091,41.652c0,0.127-0.103,0.23-0.23,0.23c-0.127,0-0.23-0.103-0.23-0.23
			c0-0.127,0.103-0.23,0.23-0.23C73.988,41.422,74.091,41.525,74.091,41.652z"/>
		<g>
			<path style="fill:#F7A98F;" d="M69.344,52.851c-0.227-0.252-0.68-0.479-1.058-0.857c-0.068-0.068-0.299-0.287-0.393-0.132
				c-0.079,0.131,0.205,0.323,0.271,0.419c0.05,0.074,0.165,0.274,0.115,0.367c-0.064,0.118-0.251,0.023-0.341-0.008
				c-0.283-0.098-0.563-0.245-0.83-0.378c-0.132-0.066-0.387-0.289-0.546-0.217c-0.206,0.094,0.011,0.388,0.111,0.478
				c-0.042-0.038-0.113,0.155-0.113,0.174c0,0.098,0.086,0.175,0.129,0.256c-0.204-0.007-0.005,0.287,0.026,0.356
				c-0.093,0.023-0.049,0.165-0.013,0.242c0.081,0.174,0.244,0.286,0.406,0.388c0.455,0.285,0.938,0.43,1.468,0.431
				c0.253,0,0.502-0.083,0.748-0.077c0.007-0.066-0.029-0.129-0.036-0.195c-0.024-0.213,0.029-0.424,0.036-0.636
				C69.326,53.369,69.407,52.921,69.344,52.851z"/>
			<g>
				<path style="fill:#7C4415;" d="M66.572,51.967c-0.169,0.031-0.208,0.238-0.156,0.376c0.066,0.174,0.242,0.243,0.381,0.347
					c0.17,0.126,0.329,0.253,0.523,0.342c0.187,0.086,0.383,0.141,0.587,0.168c0.089,0.012,0.088-0.128,0-0.14
					c-0.333-0.044-0.643-0.184-0.907-0.389c-0.06-0.047-0.119-0.095-0.182-0.138c-0.058-0.04-0.124-0.071-0.178-0.117
					c-0.052-0.044-0.095-0.1-0.106-0.169c-0.009-0.059,0.009-0.133,0.075-0.145C66.698,52.086,66.66,51.951,66.572,51.967
					L66.572,51.967z"/>
			</g>
			<g>
				<path style="fill:#7C4415;" d="M66.711,52.904c-0.096,0.013-0.198,0.061-0.205,0.17c-0.006,0.092,0.056,0.177,0.111,0.245
					c0.14,0.171,0.324,0.297,0.516,0.402c0.174,0.095,0.359,0.168,0.553,0.206c0.088,0.017,0.126-0.118,0.037-0.135
					c-0.272-0.052-0.538-0.176-0.761-0.339c-0.052-0.038-0.119-0.097-0.171-0.15c-0.029-0.029-0.056-0.059-0.081-0.09
					c-0.02-0.026-0.048-0.07-0.056-0.09c-0.003-0.008-0.005-0.015-0.007-0.023c-0.004-0.016-0.001,0.003-0.002-0.013
					c0-0.012-0.004-0.005,0.005-0.017c-0.01,0.013,0.012-0.009,0.002-0.001c0.004-0.003,0.018-0.011,0.017-0.011
					c0.024-0.011,0.053-0.015,0.079-0.018c0.038-0.005,0.058-0.053,0.049-0.086C66.786,52.912,66.748,52.899,66.711,52.904
					L66.711,52.904z"/>
			</g>
			<g>
				<path style="fill:#7C4415;" d="M68.294,52.774c0.23-0.101-0.027-0.454-0.107-0.576c-0.07-0.107-0.153-0.201-0.233-0.3
					c-0.006-0.007-0.021-0.033-0.027-0.037c-0.003-0.006-0.007-0.012-0.01-0.018c-0.005,0.005-0.009,0.009-0.014,0.014
					c0.018,0.004,0.034,0.005,0.051,0.012c0.053,0.021,0.103,0.057,0.15,0.087c0.233,0.146,0.444,0.321,0.648,0.503
					c0.186,0.165,0.35,0.346,0.593,0.425c0.248,0.081,0.514,0.073,0.771,0.09c0.09,0.006,0.09-0.134,0-0.14
					c-0.236-0.015-0.48-0.009-0.709-0.077c-0.26-0.078-0.439-0.295-0.638-0.469c-0.203-0.177-0.416-0.347-0.648-0.485
					c-0.071-0.043-0.155-0.098-0.243-0.083c-0.085,0.015-0.117,0.1-0.092,0.176c0.019,0.058,0.069,0.101,0.108,0.146
					c0.052,0.06,0.101,0.123,0.146,0.189c0.036,0.052,0.265,0.386,0.182,0.422C68.141,52.689,68.212,52.81,68.294,52.774
					L68.294,52.774z"/>
			</g>
			<g>
				<path style="fill:#7C4415;" d="M66.646,52.47c-0.148,0.037-0.195,0.208-0.141,0.337c0.058,0.142,0.196,0.254,0.315,0.345
					c0.259,0.198,0.564,0.322,0.864,0.444c0.083,0.034,0.12-0.101,0.037-0.135c-0.243-0.099-0.488-0.2-0.708-0.343
					c-0.108-0.07-0.208-0.151-0.296-0.245c-0.04-0.043-0.084-0.094-0.094-0.154c-0.008-0.048,0.01-0.102,0.061-0.114
					C66.771,52.583,66.734,52.448,66.646,52.47L66.646,52.47z"/>
			</g>
		</g>
	</g>
</g>
</svg>
