<?xml version="1.0" encoding="UTF-8"?><svg id="uuid-9d0c4bae-f056-4886-a76a-5b87fb5f3f16" xmlns="http://www.w3.org/2000/svg" viewBox="0 0 470.93 485.49"><defs><style>.uuid-6d214e64-10ba-41dd-8274-0307065159a9{fill:#0e74bb;}.uuid-4a54a2f8-e89d-4185-9545-4787bffc22f5{fill:#99b9ff;}.uuid-37d69652-482d-4df1-9811-41312174fb2b{fill:#fff;}.uuid-c17408ba-c31d-44d5-ac31-6f5ffe8fed4b{fill:#080717;}</style></defs><rect class="uuid-6d214e64-10ba-41dd-8274-0307065159a9" x="0" width="312.37" height="228.94" rx="10.41" ry="10.41"/><path class="uuid-c17408ba-c31d-44d5-ac31-6f5ffe8fed4b" d="M289.97,0H22.4C10.03,0,0,10.03,0,22.4v13.93h312.37v-13.93c0-12.37-10.03-22.4-22.4-22.4Z"/><circle class="uuid-6d214e64-10ba-41dd-8274-0307065159a9" cx="25.37" cy="18.96" r="6.86"/><circle class="uuid-6d214e64-10ba-41dd-8274-0307065159a9" cx="46.5" cy="18.96" r="6.86"/><path class="uuid-6d214e64-10ba-41dd-8274-0307065159a9" d="M74.49,18.96c0,3.79-3.07,6.86-6.86,6.86s-6.86-3.07-6.86-6.86,3.07-6.86,6.86-6.86,6.86,3.07,6.86,6.86Z"/><rect class="uuid-4a54a2f8-e89d-4185-9545-4787bffc22f5" x="158.56" y="256.56" width="312.37" height="228.94" rx="10.41" ry="10.41"/><path class="uuid-c17408ba-c31d-44d5-ac31-6f5ffe8fed4b" d="M448.53,256.56H180.95c-12.37,0-22.4,10.03-22.4,22.4v13.93h312.37v-13.93c0-12.37-10.03-22.4-22.4-22.4Z"/><path class="uuid-4a54a2f8-e89d-4185-9545-4787bffc22f5" d="M190.79,275.52c0,3.79-3.07,6.86-6.86,6.86s-6.86-3.07-6.86-6.86,3.07-6.86,6.86-6.86,6.86,3.07,6.86,6.86Z"/><path class="uuid-4a54a2f8-e89d-4185-9545-4787bffc22f5" d="M211.92,275.52c0,3.79-3.07,6.86-6.86,6.86s-6.86-3.07-6.86-6.86,3.07-6.86,6.86-6.86,6.86,3.07,6.86,6.86Z"/><circle class="uuid-4a54a2f8-e89d-4185-9545-4787bffc22f5" cx="226.19" cy="275.52" r="6.86"/><circle class="uuid-37d69652-482d-4df1-9811-41312174fb2b" cx="195.05" cy="126.45" r="40.06"/><path class="uuid-c17408ba-c31d-44d5-ac31-6f5ffe8fed4b" d="M195.05,168.66c-23.27,0-42.21-18.94-42.21-42.21s18.94-42.21,42.21-42.21,42.21,18.94,42.21,42.21-18.94,42.21-42.21,42.21ZM195.05,88.54c-20.9,0-37.91,17.01-37.91,37.91s17.01,37.91,37.91,37.91,37.91-17.01,37.91-37.91-17.01-37.91-37.91-37.91Z"/><circle cx="195.05" cy="126.45" r="16.97"/><path class="uuid-37d69652-482d-4df1-9811-41312174fb2b" d="M212.02,116.86c0,4.07-3.3,7.37-7.37,7.37s-7.37-3.3-7.37-7.37,3.3-7.37,7.37-7.37,7.37,3.3,7.37,7.37Z"/><path class="uuid-6d214e64-10ba-41dd-8274-0307065159a9" d="M200.48,176.8c3.86,5.56,17.87,2.51,31.29-6.81,13.41-9.32,21.16-21.39,17.29-26.95-3.86-5.56-17.87-2.51-31.29,6.81-13.41,9.32-21.16,21.39-17.29,26.95Z"/><path class="uuid-6d214e64-10ba-41dd-8274-0307065159a9" d="M198.98,168.9c4.14-6.33,10.72-13.14,18.97-19.15,8.8-6.4,17.86-10.72,25.47-12.54l-44.44,31.68Z"/><path class="uuid-c17408ba-c31d-44d5-ac31-6f5ffe8fed4b" d="M198.98,171.06c-.4,0-.81-.11-1.17-.35-1-.65-1.28-1.98-.62-2.98,4.43-6.78,11.36-13.78,19.51-19.71,8.72-6.35,18.04-10.93,26.23-12.89,1.17-.27,2.32.44,2.59,1.59.28,1.16-.43,2.32-1.59,2.59-7.66,1.83-16.43,6.16-24.7,12.18-7.74,5.63-14.29,12.23-18.44,18.59-.41.63-1.1.97-1.8.97Z"/><path d="M250.21,72.98c-16.46-21.95-51.15-24.84-51.49-24.87l1.71-23.6c1.86.13,45.71,3.6,68.71,34.27l-18.93,14.2Z"/><circle class="uuid-37d69652-482d-4df1-9811-41312174fb2b" cx="92.04" cy="126.45" r="40.06"/><path class="uuid-c17408ba-c31d-44d5-ac31-6f5ffe8fed4b" d="M92.04,168.66c-23.28,0-42.21-18.94-42.21-42.21s18.94-42.21,42.21-42.21,42.21,18.94,42.21,42.21-18.94,42.21-42.21,42.21ZM92.04,88.54c-20.9,0-37.91,17.01-37.91,37.91s17.01,37.91,37.91,37.91,37.91-17.01,37.91-37.91-17.01-37.91-37.91-37.91Z"/><circle cx="92.04" cy="126.45" r="16.97"/><path class="uuid-37d69652-482d-4df1-9811-41312174fb2b" d="M109.01,116.86c0,4.07-3.3,7.37-7.37,7.37s-7.37-3.3-7.37-7.37,3.3-7.37,7.37-7.37,7.37,3.3,7.37,7.37Z"/><ellipse class="uuid-37d69652-482d-4df1-9811-41312174fb2b" cx="244" cy="369.16" rx="40.06" ry="48.15"/><path class="uuid-c17408ba-c31d-44d5-ac31-6f5ffe8fed4b" d="M244,419.46c-23.27,0-42.21-22.56-42.21-50.3s18.94-50.3,42.21-50.3,42.21,22.56,42.21,50.3-18.94,50.3-42.21,50.3ZM244,323.16c-20.9,0-37.91,20.63-37.91,46s17.01,46,37.91,46,37.91-20.64,37.91-46-17.01-46-37.91-46Z"/><path d="M245.16,327.15c3.93,5.78-.14,15.39-9.08,21.46-8.94,6.07-19.37,6.3-23.29.52-3.93-5.78.14-15.39,9.08-21.46,8.94-6.07,19.37-6.3,23.29-.52Z"/><path class="uuid-6d214e64-10ba-41dd-8274-0307065159a9" d="M38.19,140.3c-3.95,4.56,3.28,17.29,16.14,28.42,12.86,11.14,26.49,16.47,30.44,11.91,3.95-4.56-3.28-17.29-16.14-28.42s-26.49-16.47-30.44-11.91Z"/><path class="uuid-6d214e64-10ba-41dd-8274-0307065159a9" d="M46.21,136.5c7.16,2.45,15.38,7.14,23.24,13.65,8.38,6.94,14.8,14.66,18.44,21.58l-41.68-35.23Z"/><path class="uuid-c17408ba-c31d-44d5-ac31-6f5ffe8fed4b" d="M87.9,173.89c-.77,0-1.52-.42-1.91-1.15-3.67-6.96-10.03-14.39-17.91-20.92-7.37-6.1-15.39-10.82-22.57-13.27-1.12-.38-1.72-1.61-1.34-2.73.38-1.13,1.6-1.72,2.73-1.34,7.66,2.62,16.16,7.6,23.92,14.03,8.31,6.88,15.05,14.78,18.97,22.23.55,1.05.15,2.35-.9,2.91-.32.17-.66.25-1,.25Z"/><path d="M39.78,95.75l-18.42-14.85c1.17-1.45,29.03-35.49,67.35-36.89l.86,23.65c-27.21.99-49.57,27.82-49.78,28.09Z"/><path d="M272.18,346.82c-13.73,0-28.21-5.03-34.93-7.37-20.19-7.02-38.36-16.66-39.12-17.07l11.13-20.88c.16.09,16.41,8.7,34.22,15.06,24.98,8.92,33.96,6.58,34.99,5.46l20.22,12.29c-5.8,9.52-15.93,12.51-26.52,12.51Z"/><ellipse class="uuid-37d69652-482d-4df1-9811-41312174fb2b" cx="347.01" cy="373.37" rx="40.06" ry="43.94"/><path class="uuid-c17408ba-c31d-44d5-ac31-6f5ffe8fed4b" d="M347.01,419.46c-23.27,0-42.21-20.68-42.21-46.09s18.94-46.09,42.21-46.09,42.21,20.67,42.21,46.09-18.94,46.09-42.21,46.09ZM347.01,331.58c-20.9,0-37.91,18.75-37.91,41.78s17.01,41.79,37.91,41.79,37.91-18.75,37.91-41.79-17.01-41.78-37.91-41.78Z"/><path d="M347.03,336.48c2.62,5.16-2.51,13.03-11.45,17.57-8.95,4.54-18.32,4.05-20.94-1.11-2.62-5.16,2.51-13.03,11.45-17.57,8.95-4.54,18.32-4.05,20.94,1.11Z"/><path d="M320.5,332.03l-19.48-13.44c1.11-1.62,27.68-39.67,62.44-44.98,15.02-2.3,29.11,1.61,41.87,11.61l-14.59,18.63c-7.51-5.88-15.24-8.13-23.65-6.86-20.43,3.09-40.56,26.33-46.59,35.03Z"/><path class="uuid-c17408ba-c31d-44d5-ac31-6f5ffe8fed4b" d="M149.81,201.57c-47.42,0-88.99-13.01-101.11-31.65-.65-1-.36-2.33.63-2.98,1-.65,2.33-.36,2.98.63,11.37,17.48,51.46,29.69,97.5,29.69s86.29-12.25,97.57-29.78c.64-1,1.97-1.29,2.97-.64,1,.64,1.29,1.97.64,2.97-12.03,18.7-53.63,31.76-101.18,31.76Z"/><path class="uuid-c17408ba-c31d-44d5-ac31-6f5ffe8fed4b" d="M261.91,172.48c-.41,0-.83-.12-1.2-.37-11.8-7.94-29.79-.84-29.97-.77-1.1.44-2.36-.09-2.8-1.19-.44-1.1.09-2.35,1.19-2.8.82-.33,20.31-8.01,33.98,1.19.99.66,1.25,2,.58,2.99-.41.62-1.09.95-1.79.95Z"/><path class="uuid-c17408ba-c31d-44d5-ac31-6f5ffe8fed4b" d="M60.05,171.27c-.42,0-.85-.12-1.22-.38-7.6-5.27-19.48-.4-19.6-.36-1.1.46-2.36-.06-2.82-1.15-.46-1.09.05-2.35,1.14-2.81.57-.24,14.16-5.86,23.72.79.98.68,1.22,2.02.54,2.99-.42.6-1.09.92-1.77.92Z"/><path d="M258.12,439.45l24.94-17.76c11.79-8.4,27.67-8.13,39.18.65l27.6,21.06c3.87,2.96,4.15,8.69.58,12.01h0c-1.98,1.84-4.76,2.53-7.37,1.83l-36.99-9.86c-1.14-.31-2.34-.35-3.5-.12l-38.65,7.41c-5.57,1.07-10.4-3.93-9.14-9.46l.25-1.09c.43-1.88,1.53-3.54,3.1-4.66Z"/><path class="uuid-37d69652-482d-4df1-9811-41312174fb2b" d="M268.22,434.9l16.09-11.46c5.26-3.74,11.45-5.72,17.9-5.72,6.83,0,13.3,2.19,18.73,6.33l1.38,1.05c-4.89,6.61-12.67,10.36-21.65,10.36,0,0-32.45-.56-32.45-.56Z"/><path class="uuid-c17408ba-c31d-44d5-ac31-6f5ffe8fed4b" d="M302.21,419.87c6.19,0,12.07,1.93,17.03,5.6-4.51,5.03-11.09,7.84-18.58,7.84h-.53s-25.34-.45-25.34-.45l10.77-7.67c4.89-3.48,10.65-5.32,16.65-5.32h0ZM302.21,415.56c-6.7,0-13.41,2.04-19.15,6.12l-21.34,15.2c.16.01.31.06.46.06l37.87.66c.2,0,.41,0,.61,0,10.66,0,19.51-4.91,24.58-12.99l-3-2.29c-5.91-4.51-12.96-6.77-20.03-6.77h0Z"/></svg>