<?xml version="1.0" encoding="utf-8"?>
<svg version="1.1" id="Layer_1" xmlns="http://www.w3.org/2000/svg" xmlns:xlink="http://www.w3.org/1999/xlink" x="0px" y="0px"
	 viewBox="0 0 900 800" style="enable-background:new 0 0 1000 1000;" xml:space="preserve">
<g>
	<g>
		<g>
			<g>
				<g>
					<path style="fill:#4970FA;" d="M621.78,770.278c-0.169,0-0.344-0.055-0.527-0.168c-0.182-0.112-0.343-0.197-0.483-0.253
						l-13.253-9.13c-0.421-0.28-0.73-0.568-0.925-0.862c-0.197-0.294-0.294-0.638-0.294-1.031v-0.757
						c0-0.393,0.098-0.729,0.294-1.01c0.195-0.28,0.504-0.574,0.925-0.884l13.253-9.087c0.14-0.084,0.301-0.182,0.483-0.294
						c0.182-0.112,0.358-0.168,0.527-0.168c0.224,0,0.421,0.077,0.589,0.231c0.169,0.154,0.252,0.372,0.252,0.653v1.851
						c0,0.309-0.083,0.568-0.252,0.778c-0.168,0.211-0.406,0.414-0.715,0.61l-11.275,7.699l11.275,7.7
						c0.309,0.224,0.548,0.434,0.715,0.631c0.169,0.197,0.252,0.463,0.252,0.8v1.85c0,0.253-0.083,0.457-0.252,0.611
						C622.201,770.202,622.005,770.278,621.78,770.278z"/>
				</g>
			</g>
		</g>
		<g>
			<g>
				<g>
					<g>
						<g>
							<g>
								<g>
									<g>
										<path style="fill:#010F2D;" d="M439.731,139.45c9.378,0.017,18.365,6.685,21.099,15.656
											c2.735,8.971-1.004,19.518-8.778,24.764c3.616-1.176,7.818,0.699,9.839,3.92c2.021,3.221,2.019,7.461,0.528,10.959
											c-1.49,3.499-4.315,6.304-7.523,8.347c-8.642,5.504-20.467,5.519-29.123,0.037c-8.656-5.482-13.697-16.179-12.416-26.344"
											/>
									</g>
								</g>
								<g>
									<g>
										<g>
											<path style="fill:#4970FA;" d="M515.12,516.6c-72.905,51.53-173.392,110.428-173.392,110.428
												s-85.544-281.853-62.854-313.818c11.099-15.65,31.485-32.242,60.773-28.995c11.718,1.306,30.281,5.184,30.281,5.184
												c4.168-2.609,8.103-4.821,11.92-6.345c1.251-0.501,2.494-0.962,3.728-1.382c0,0,52.798-23.474,73.819-13.224
												C517.56,296.811,515.12,516.6,515.12,516.6z"/>
										</g>
										<g>
											<path style="fill:#010F2D;" d="M341.728,628.042c-0.125,0-0.251-0.023-0.37-0.07c-0.289-0.113-0.511-0.352-0.6-0.649
												c-3.499-11.528-85.426-282.696-62.71-314.699c7.168-10.106,27.534-33.199,61.711-29.415
												c10.682,1.19,27.205,4.546,29.976,5.116c4.722-2.939,8.354-4.86,11.737-6.211c1.263-0.507,2.534-0.978,3.777-1.4
												c2.087-0.933,53.388-23.509,74.591-13.176c24.453,11.924,41.356,57.516,50.237,135.508
												c6.592,57.886,6.064,113.016,6.058,113.566c-0.004,0.325-0.164,0.629-0.429,0.816
												c-72.107,50.966-172.46,109.886-173.465,110.475C342.083,627.995,341.906,628.042,341.728,628.042z M332.362,284.822
												c-28.81,0-46.219,19.891-52.662,28.975c-21.388,30.132,56.507,291.348,62.625,311.704
												c11.177-6.588,103.879-61.477,171.785-109.428c0.07-11.911,0.412-219.614-55.161-246.712
												c-20.362-9.927-72.441,13.006-72.963,13.239c-1.293,0.444-2.53,0.903-3.761,1.396c-3.35,1.338-6.976,3.269-11.761,6.263
												c-0.222,0.139-0.487,0.184-0.744,0.133c-0.185-0.039-18.651-3.883-30.186-5.168
												C337.07,284.95,334.679,284.822,332.362,284.822z M515.12,516.6h0.013H515.12z"/>
										</g>
									</g>
								</g>
								<g>
									<g>
										<path style="fill:#4970FA;" d="M463.556,384.274c-2.188-2.188-22.956-73.675-22.956-73.675"/>
									</g>
									<g>
										<path style="fill:#010F2D;" d="M463.585,385.298c-0.271,0-0.543-0.104-0.746-0.307
											c-2.26-2.258-19.734-62.13-23.214-74.109c-0.156-0.537,0.153-1.099,0.692-1.256c0.532-0.159,1.099,0.153,1.256,0.691
											c8.184,28.175,20.994,70.942,22.735,73.281c0.396,0.395,0.379,1.017-0.017,1.413
											C464.099,385.203,463.842,385.298,463.585,385.298z"/>
									</g>
								</g>
								<g>
									<g>
										<path style="fill:#FFFFFF;" d="M361.5,315.802c16.744,1.06,24.183-19.993,24.183-19.993s21.37,13.715,31.269,7.668
											c9.881-6.059-18.339-27.498-18.339-27.498s-9.487,1.556-15.235,4.95l-41.649,3.287
											C341.728,284.216,351.961,315.198,361.5,315.802z"/>
									</g>
									<g>
										<path style="fill:#010F2D;" d="M362.706,316.853c-0.418,0-0.841-0.013-1.271-0.04c-9.934-0.629-19.6-29.042-20.669-32.279
											c-0.098-0.296-0.054-0.62,0.117-0.879c0.173-0.259,0.454-0.425,0.766-0.449l41.419-3.27
											c5.853-3.367,14.99-4.894,15.381-4.958c0.271-0.045,0.556,0.025,0.777,0.193c0.868,0.66,21.265,16.26,20.83,24.992
											c-0.089,1.753-0.978,3.198-2.576,4.177c-9.147,5.593-26.797-4.317-31.305-7.036
											C384.317,301.669,376.839,316.852,362.706,316.853z M343.105,285.124c3.168,9.159,11.526,29.227,18.459,29.666l0,0
											c0.38,0.024,0.76,0.036,1.131,0.036c14.995,0.002,21.961-19.157,22.031-19.355c0.103-0.292,0.334-0.521,0.627-0.621
											c0.29-0.099,0.616-0.061,0.876,0.106c0.208,0.133,20.944,13.306,30.193,7.656c1.041-0.639,1.553-1.449,1.609-2.549
											c0.31-6.242-13.772-18.461-19.681-23.009c-1.89,0.347-9.623,1.891-14.457,4.747c-0.133,0.078-0.282,0.125-0.437,0.137
											L343.105,285.124z"/>
									</g>
								</g>
								<g>
									<g>
										<path style="fill:#FFFFFF;" d="M345.473,213.387c0,0,2.405,51.492,3.616,69.87l36.274,12.505l13.249-19.783l1.495-50.43
											L345.473,213.387z"/>
									</g>
									<g>
										<path style="fill:#010F2D;" d="M385.363,296.775c-0.111,0-0.222-0.018-0.33-0.055l-36.273-12.505
											c-0.387-0.133-0.655-0.484-0.681-0.892c-1.198-18.176-3.594-69.374-3.618-69.889c-0.014-0.316,0.119-0.62,0.36-0.824
											c0.24-0.204,0.569-0.281,0.872-0.213l54.634,12.162c0.474,0.106,0.808,0.533,0.793,1.02l-1.495,50.43
											c-0.007,0.19-0.066,0.375-0.172,0.534l-13.249,19.783C386.013,296.612,385.694,296.775,385.363,296.775z M350.057,282.518
											l34.898,12.03l12.653-18.891l1.462-49.301l-52.522-11.691C346.929,222.746,348.957,265.52,350.057,282.518z"/>
									</g>
								</g>
								<g>
									<g>
										<g>
											<path style="fill:#FFFFFF;" d="M367.873,240.065c10.689,10.14,23.679,16.718,37.144,16.562
												c33.01-0.381,50.375-26.608,49.984-60.458c-0.391-33.849-27.589-71.13-65.69-66.214
												c-34.008,4.388-50.347,34.749-43.838,83.432"/>
										</g>
										<g>
											<path style="fill:#010F2D;" d="M404.565,257.643c-12.667,0-25.927-5.968-37.391-16.843
												c-0.405-0.385-0.422-1.027-0.037-1.433c0.385-0.407,1.025-0.423,1.433-0.038c11.218,10.641,24.119,16.449,36.434,16.283
												c30.169-0.348,49.396-23.677,48.983-59.432c-0.227-19.691-9.44-39.807-24.043-52.498
												c-11.766-10.224-25.774-14.623-40.504-12.724c-13.545,1.748-24.253,7.634-31.824,17.497
												c-11.033,14.37-14.885,36.776-11.139,64.795c0.074,0.555-0.315,1.065-0.87,1.139c-0.556,0.076-1.066-0.315-1.139-0.87
												c-3.819-28.566,0.17-51.492,11.539-66.299c7.913-10.306,19.075-16.454,33.174-18.273
												c15.325-1.977,29.879,2.589,42.092,13.203c15.027,13.059,24.507,33.752,24.741,54.005
												c0.426,36.986-19.587,61.12-50.986,61.483C404.874,257.642,404.72,257.643,404.565,257.643z"/>
										</g>
									</g>
									<g>
										<g>
											<path style="fill:#010F2D;" d="M458.374,152.983c-3.255,6.204-8.916,11.108-15.482,13.521
												c-6.584,2.434-14.011,2.391-20.611-0.005c-7.189-2.613-13.172-7.843-18.241-13.592
												c0.624,8.193-14.135,17.207-22.291,18.086c-2.182,0.229-4.415,0.007-6.591,0.316c-2.196,0.31-4.447,1.257-5.541,3.193
												c-0.811,1.442-0.828,3.205-0.833,4.869c0.011,6.771,6.827,24.42,4.715,25.952c-1.999,1.445-4.092,1.252-6.156,0.028
												c-1.633-0.996-2.963-2.489-4.173-3.95c-0.993-1.199-4.392-4.825-4.507-6.5c-0.621,8.22-4.014,7.543-9.247,14.061
												c-5.27,6.56,5.88,10.598-2.445,9.407c-23.884-3.417-29.948-49.644-14.403-77.761l0.392,0.23
												c-3.886-2.663-6.094-7.698-5.206-12.333c0.828-4.354,3.93-7.894,7.254-10.815c5.747-5.089,12.753-9.155,20.41-9.801
												c4.666-0.381,9.554,0.728,13.465,3.19c2.09-4.44,6.098-8.043,10.733-9.748c6.681-2.46,14.341-1.345,20.592,2.026
												c3.825,2.073,7.149,4.912,9.988,8.182c0.455-2.011,1.877-3.792,3.623-4.883c2.258-1.423,4.978-1.887,7.628-1.931
												c10.343-0.178,31.318,6.194,39.022,27.544C462.885,138.957,461.681,146.676,458.374,152.983z"/>
										</g>
									</g>
									<g>
										<g>
											<path style="fill:#FFFFFF;" d="M364.916,201.483c-2.408-4.362-9.04-11.01-13.399-13.422
												c-4.36-2.412-9.972-2.93-14.288-0.441c-4.405,2.54-6.782,7.92-6.334,12.986s3.44,9.707,7.483,12.792
												c4.043,3.084,8.605,5.625,13.651,6.262"/>
										</g>
										<g>
											<path style="fill:#010F2D;" d="M352.029,220.673c-0.042,0-0.086-0.003-0.128-0.008c-4.57-0.577-9.195-2.691-14.139-6.462
												c-4.555-3.476-7.426-8.399-7.878-13.509c-0.503-5.696,2.245-11.303,6.838-13.953c4.317-2.489,10.315-2.318,15.286,0.432
												c4.482,2.48,11.315,9.324,13.794,13.819c0.271,0.49,0.092,1.107-0.397,1.377c-0.495,0.271-1.107,0.091-1.377-0.398
												c-2.339-4.236-8.778-10.688-13.003-13.024c-4.363-2.415-9.582-2.591-13.29-0.449c-3.924,2.262-6.268,7.092-5.832,12.018
												c0.396,4.476,3.045,8.99,7.089,12.075c4.651,3.548,8.956,5.531,13.162,6.062c0.556,0.07,0.949,0.577,0.879,1.133
												C352.968,220.299,352.531,220.673,352.029,220.673z"/>
										</g>
									</g>
								</g>
								<g>
									<g>
										<g>
											<path style="fill:#FFFFFF;" d="M742.202,791.913h-369.47c-16.941,0-30.674-13.733-30.674-30.674V376.532
												c0-16.941,13.733-30.674,30.674-30.674h369.47c16.941,0,30.674,13.733,30.674,30.674v384.707
												C772.876,778.18,759.143,791.913,742.202,791.913z"/>
										</g>
										<g>
											<path style="fill:#010F2D;" d="M731.422,792.927H383.513c-23.417,0-42.468-19.051-42.468-42.468V387.313
												c0-23.417,19.051-42.468,42.468-42.468h347.909c23.417,0,42.468,19.051,42.468,42.468v363.145
												C773.89,773.876,754.839,792.927,731.422,792.927z M383.513,346.872c-22.299,0-40.441,18.142-40.441,40.441v363.145
												c0,22.299,18.142,40.441,40.441,40.441h347.909c22.299,0,40.441-18.142,40.441-40.441V387.313
												c0-22.299-18.142-40.441-40.441-40.441H383.513z"/>
										</g>
									</g>
									<g>
										<g>
											<g>
												<path style="fill:#FFFFFF;" d="M547.579,493.017v112.128c0,12.351-10.027,22.378-22.378,22.378H388.809
													c-12.365,0-22.378-10.027-22.378-22.378V493.017c0-12.351,10.013-22.378,22.378-22.378h136.392
													C537.552,470.64,547.579,480.667,547.579,493.017z"/>
											</g>
										</g>
										<g>
											<g>
												<path style="fill:#C0EED5;" d="M547.579,579.528v25.617c0,12.351-10.027,22.378-22.378,22.378h-88.257l38.643-50.698
													l20.519-26.926c7.253-9.548,21.617-9.548,28.87-0.014L547.579,579.528z"/>
											</g>
										</g>
										<g>
											<g>
												<path style="fill:#2DC874;" d="M519.624,627.522H388.809c-12.365,0-22.378-10.027-22.378-22.378v-23.307l47.093-61.781
													c6.07-7.985,18.111-7.985,24.194,0L519.624,627.522z"/>
											</g>
										</g>
										<g>
											<g>
												<line style="fill:#FFFFFF;" x1="437.719" y1="520.056" x2="498.608" y2="599.947"/>
											</g>
											<g>
												<path style="fill:#010F2D;" d="M498.608,600.961c-0.306,0-0.608-0.137-0.808-0.399l-60.888-79.891
													c-0.339-0.445-0.253-1.081,0.191-1.421c0.45-0.341,1.083-0.253,1.421,0.192l60.889,79.891
													c0.339,0.445,0.253,1.081-0.191,1.421C499.037,600.893,498.822,600.961,498.608,600.961z"/>
											</g>
										</g>
										<g>
											<g>
												<path style="fill:#010F2D;" d="M525.198,628.532h-136.39c-12.9,0-23.393-10.494-23.393-23.393V493.022
													c0-12.899,10.494-23.393,23.393-23.393h136.39c12.9,0,23.393,10.494,23.393,23.393v112.118
													C548.591,618.038,538.098,628.532,525.198,628.532z M388.809,471.656c-11.782,0-21.366,9.585-21.366,21.366v112.118
													c0,11.781,9.584,21.366,21.366,21.366h136.39c11.782,0,21.366-9.585,21.366-21.366V493.022
													c0-11.781-9.584-21.366-21.366-21.366H388.809z"/>
											</g>
										</g>
										<g>
											<g>
												<path style="fill:none;" d="M547.578,493.021v112.118c0,12.358-10.021,22.38-22.38,22.38h-136.39
													c-12.358,0-22.38-10.021-22.38-22.38V493.021c0-12.358,10.021-22.38,22.38-22.38h136.39
													C537.557,470.642,547.578,480.663,547.578,493.021z"/>
											</g>
										</g>
										<g>
											<g>
												
													<ellipse transform="matrix(0.2298 -0.9732 0.9732 0.2298 -145.9168 870.9315)" style="fill:#FFA58D;" cx="477.276" cy="527.653" rx="15.084" ry="15.084"/>
											</g>
										</g>
									</g>
									<g>
										<g>
											<path style="fill:#FFFFFF;" d="M361.24,397.099c0.785-1.806,392.571,0,392.571,0"/>
										</g>
										<g>
											<path style="fill:#010F2D;" d="M361.239,398.112c-0.136,0-0.273-0.027-0.404-0.084c-0.513-0.224-0.748-0.821-0.525-1.334
												c0.388-0.894,0.534-1.228,62.598-1.371c32.591-0.075,77.985-0.048,134.914,0.085
												c96.924,0.223,195.013,0.672,195.994,0.677c0.56,0.003,1.011,0.459,1.008,1.018c-0.003,0.558-0.455,1.009-1.014,1.009
												c-0.001,0-0.003,0-0.005,0c-132.627-0.611-384.551-1.412-392.156-0.087C361.522,398.082,361.382,398.112,361.239,398.112
												z"/>
										</g>
									</g>
									<g>
										<g>
											
												<ellipse transform="matrix(0.9239 -0.3827 0.3827 0.9239 -114.2503 179.4584)" style="fill:#4970FA;" cx="393.973" cy="376.916" rx="7.358" ry="7.358"/>
										</g>
									</g>
									<g>
										<g>
											
												<ellipse transform="matrix(0.7071 -0.7071 0.7071 0.7071 -145.0211 403.7201)" style="fill:#FFA58D;" cx="414.823" cy="376.916" rx="7.358" ry="7.358"/>
										</g>
									</g>
									<g>
										<g>
											
												<ellipse transform="matrix(0.9239 -0.3827 0.3827 0.9239 -111.0761 195.4161)" style="fill:#2DC874;" cx="435.672" cy="376.916" rx="7.358" ry="7.358"/>
										</g>
									</g>
								</g>
								<g>
									<g>
										<path style="fill:#4970FA;" d="M281.147,442.652c0,0,10.772,5.556,6.355,44.746c-5.191,46.06-15.809,40.539-15.809,40.539
											s-22.133-8.529-23.014-11.174c-0.882-2.644,1.175-25.561-0.294-27.618c-1.469-2.057,8.52-28.01,8.52-28.01
											C256.864,448.786,260.139,441.322,281.147,442.652z"/>
									</g>
									<g>
										<path style="fill:#010F2D;" d="M272.773,529.159c-0.883,0-1.448-0.271-1.547-0.323
											c-6.686-2.57-22.576-8.957-23.508-11.753c-0.426-1.28-0.298-5.483-0.054-12.235c0.201-5.565,0.504-13.976-0.118-15.136
											c-1.454-2.035,3.717-16.724,8.346-28.764c-0.005-5.29,0.556-11.164,4.549-14.926c3.867-3.641,10.465-5.032,20.771-4.382
											c0.138,0.009,0.276,0.047,0.4,0.111c0.466,0.24,11.341,6.33,6.897,45.76c-3.36,29.817-9.076,38.746-13.28,40.986
											C274.273,529.007,273.434,529.159,272.773,529.159z M276.537,443.51c-7.119,0-11.845,1.295-14.705,3.988
											c-2.802,2.64-3.936,6.59-3.912,13.634c0,0.125-0.022,0.25-0.067,0.368c-4.607,11.969-9.076,25.405-8.58,27.172
											c0.857,1.17,0.784,6.096,0.417,16.25c-0.17,4.689-0.38,10.523-0.048,11.521c0.824,1.502,12.048,6.553,22.415,10.549
											c0.117,0.051,0.982,0.424,2.337-0.348c3.059-1.743,8.699-9.173,12.101-39.359c3.998-35.484-4.425-42.771-5.663-43.636
											C279.312,443.556,277.882,443.51,276.537,443.51z"/>
									</g>
								</g>
								<g>
									<g>
										<g>
											<path style="fill:#FFFFFF;" d="M598.894,356.385c0,0,7.295,8.699,12.808,1.664c5.514-7.034-3.187-27.08-9.803-28.913
												s-13.904,2.09-13.904,2.09"/>
										</g>
										<g>
											<path style="fill:#010F2D;" d="M606.714,361.81c-4.541,0-8.432-4.576-8.596-4.773c-0.36-0.429-0.304-1.067,0.124-1.427
												c0.428-0.36,1.068-0.305,1.428,0.123c0.034,0.041,3.453,4.049,7.042,4.049c0.028,0,0.057,0,0.084-0.001
												c1.542-0.027,2.886-0.799,4.109-2.358c2.031-2.592,2.046-7.785,0.038-13.889c-2.2-6.688-6.292-12.583-9.315-13.422
												c-6.134-1.699-13.084,1.969-13.154,2.006c-0.488,0.265-1.106,0.081-1.371-0.413c-0.265-0.493-0.081-1.107,0.412-1.372
												c0.313-0.168,7.734-4.096,14.655-2.174c4.226,1.171,8.581,8.302,10.7,14.741c2.253,6.85,2.118,12.6-0.37,15.774
												c-1.601,2.044-3.511,3.098-5.675,3.134C606.788,361.81,606.751,361.81,606.714,361.81z"/>
										</g>
									</g>
									<g>
										<g>
											<path style="fill:#FFFFFF;" d="M586.725,354.532c0,0,7.295,8.699,12.808,1.664c5.514-7.034-3.187-27.08-9.803-28.913
												c-6.616-1.834-13.905,2.09-13.905,2.09"/>
										</g>
										<g>
											<path style="fill:#010F2D;" d="M594.545,359.957c-4.541,0-8.432-4.576-8.596-4.773c-0.36-0.429-0.304-1.067,0.124-1.427
												c0.428-0.359,1.068-0.306,1.428,0.123c0.033,0.041,3.529,4.144,7.127,4.049c1.542-0.027,2.886-0.799,4.108-2.358
												c2.033-2.593,2.046-7.787,0.036-13.895c-2.2-6.685-6.29-12.579-9.312-13.416c-6.142-1.701-13.086,1.969-13.156,2.006
												c-0.488,0.265-1.106,0.081-1.371-0.413c-0.265-0.493-0.081-1.107,0.412-1.373c0.311-0.167,7.726-4.096,14.656-2.174
												c4.225,1.171,8.579,8.299,10.697,14.736c2.255,6.853,2.122,12.604-0.367,15.779c-1.601,2.044-3.511,3.099-5.675,3.134
												C594.619,359.957,594.582,359.957,594.545,359.957z"/>
										</g>
									</g>
									<g>
										<g>
											<path style="fill:#FFFFFF;" d="M570.067,356.547c0,0,10.194,6.91,15.708-0.124c5.514-7.034-7.491-28.291-14.107-30.124
												c-6.616-1.834-14.719,3.128-14.719,3.128"/>
										</g>
										<g>
											<path style="fill:#010F2D;" d="M579.118,360.575c-3.697,0-7.432-1.705-9.62-3.189c-0.463-0.313-0.583-0.943-0.271-1.406
												c0.315-0.464,0.946-0.586,1.407-0.272c0.387,0.26,9.484,6.291,14.342,0.089c1.477-1.885,1.479-5.393,0.004-9.876
												c-2.849-8.664-9.97-17.644-13.583-18.646c-6.115-1.691-13.843,2.969-13.92,3.016c-0.478,0.293-1.102,0.142-1.394-0.336
												c-0.292-0.477-0.143-1.101,0.335-1.393c0.347-0.212,8.563-5.17,15.519-3.241c4.665,1.293,12.08,11.183,14.968,19.966
												c1.718,5.223,1.602,9.289-0.335,11.761C584.529,359.654,581.834,360.575,579.118,360.575z"/>
										</g>
									</g>
									<g>
										<g>
											<path style="fill:#FFFFFF;" d="M550.763,344.529c0,0,11.889,22.733,17.773,16.055c5.883-6.678-5.257-33.727-16.59-32.242
												c-6.745,0.884-9.795,2.596-13.18,7.749c-2.284,3.477-1.964,5.161-2.772,9.242"/>
										</g>
										<g>
											<path style="fill:#010F2D;" d="M566.011,362.826c-0.178,0-0.359-0.011-0.542-0.034
												c-6.534-0.789-14.696-16.055-15.605-17.793c-0.259-0.496-0.067-1.109,0.429-1.368c0.5-0.26,1.109-0.067,1.369,0.428
												c2.333,4.461,9.407,16.16,14.05,16.72c0.81,0.096,1.457-0.177,2.063-0.866c2.645-3.003,1.329-11.954-2.932-19.955
												c-2.955-5.552-7.877-11.252-12.765-10.612c-6.509,0.853-9.305,2.49-12.464,7.301c-1.598,2.433-1.813,3.846-2.168,6.188
												c-0.121,0.792-0.255,1.669-0.458,2.694c-0.107,0.55-0.645,0.907-1.19,0.797c-0.549-0.109-0.907-0.643-0.797-1.192
												c0.197-0.991,0.325-1.838,0.441-2.604c0.37-2.434,0.637-4.194,2.479-6.996c3.512-5.348,6.759-7.263,13.895-8.198
												c5.04-0.653,10.576,3.703,14.819,11.668c4.066,7.636,6.383,18.028,2.663,22.248
												C568.384,362.289,567.257,362.826,566.011,362.826z"/>
										</g>
									</g>
								</g>
							</g>
						</g>
					</g>
					<g>
						<g>
							<g>
								<path style="fill:#010F2D;" d="M420.172,218.546c-1.278,0-2.163-0.064-2.27-0.072c-0.558-0.043-0.977-0.529-0.934-1.087
									c0.042-0.559,0.525-0.981,1.088-0.934c0.075,0.008,7.457,0.535,10.665-1.555c0.579-0.377,1.161-0.788,1.353-1.298
									c0.203-0.539,0.005-1.262-0.253-2.081l-7.527-23.698c-0.169-0.534,0.125-1.103,0.66-1.273
									c0.531-0.172,1.102,0.126,1.272,0.659l7.527,23.699c0.273,0.864,0.686,2.168,0.219,3.408
									c-0.409,1.084-1.321,1.746-2.145,2.282C427.263,218.264,422.854,218.546,420.172,218.546z"/>
							</g>
						</g>
						<g>
							<g>
								<path style="fill:#010F2D;" d="M402.008,193.059c-0.043,2.879,2.047,5.244,4.668,5.283c2.621,0.039,4.781-2.263,4.824-5.141
									c0.043-2.879-2.047-5.244-4.668-5.283C404.211,187.879,402.051,190.181,402.008,193.059z"/>
							</g>
						</g>
						<g>
							<g>
								<path style="fill:#010F2D;" d="M436.115,195.205c-0.043,2.878,2.047,5.243,4.668,5.283c2.621,0.039,4.781-2.263,4.824-5.141
									c0.043-2.878-2.047-5.243-4.668-5.283C438.318,190.025,436.158,192.327,436.115,195.205z"/>
							</g>
						</g>
						<g>
							<g>
								<path style="fill:#010F2D;" d="M410.423,239.087c-2.369,0-4.837-0.628-7.1-1.873c-3.323-1.827-6.191-4.808-8.766-9.112
									c-0.288-0.48-0.131-1.103,0.35-1.39c0.478-0.287,1.102-0.131,1.39,0.349c2.386,3.987,5.003,6.727,8.003,8.377
									c3.581,1.969,7.708,2.165,10.776,0.511c0.495-0.265,1.107-0.081,1.373,0.411c0.265,0.493,0.082,1.108-0.412,1.373
									C414.357,238.638,412.425,239.087,410.423,239.087z"/>
							</g>
						</g>
						<g>
							<g>
								<path style="fill:#010F2D;" d="M397.829,184.817c-0.302,0-0.601-0.134-0.8-0.389c-0.345-0.441-0.267-1.078,0.174-1.423
									c4.553-3.559,11.06-4.162,16.189-1.505c0.498,0.257,0.692,0.869,0.434,1.367c-0.257,0.497-0.867,0.692-1.366,0.434
									c-4.37-2.265-10.129-1.727-14.008,1.301C398.267,184.747,398.047,184.817,397.829,184.817z"/>
							</g>
						</g>
						<g>
							<g>
								<path style="fill:#010F2D;" d="M430.288,186.003c-0.302,0-0.6-0.134-0.8-0.389c-0.345-0.441-0.267-1.078,0.174-1.423
									c4.553-3.56,11.061-4.162,16.189-1.504c0.497,0.257,0.691,0.869,0.434,1.367c-0.257,0.497-0.867,0.692-1.366,0.434
									c-4.37-2.263-10.129-1.728-14.008,1.301C430.725,185.933,430.506,186.003,430.288,186.003z"/>
							</g>
						</g>
					</g>
					<g>
						<g>
							<line style="fill:#FFFFFF;" x1="484.932" y1="345.858" x2="695.614" y2="257.377"/>
						</g>
						<g>
							<path style="fill:#010F2D;" d="M484.931,346.872c-0.396,0-0.772-0.233-0.934-0.621c-0.216-0.516,0.026-1.111,0.542-1.327
								l210.682-88.481c0.516-0.218,1.11,0.026,1.326,0.542c0.216,0.516-0.026,1.111-0.543,1.327l-210.682,88.481
								C485.195,346.847,485.062,346.872,484.931,346.872z"/>
						</g>
					</g>
					<g>
						<g>
							<circle style="fill:#FFFFFF;" cx="700.531" cy="273.078" r="16.448"/>
						</g>
						<g>
							<path style="fill:#010F2D;" d="M700.531,290.54c-9.629,0-17.462-7.834-17.462-17.462c0-9.628,7.833-17.461,17.462-17.461
								c9.628,0,17.461,7.833,17.461,17.461C717.992,282.706,710.159,290.54,700.531,290.54z M700.531,257.643
								c-8.511,0-15.435,6.924-15.435,15.434c0,8.511,6.924,15.435,15.435,15.435c8.51,0,15.434-6.924,15.434-15.435
								C715.965,264.567,709.041,257.643,700.531,257.643z"/>
						</g>
					</g>
					<g>
						<g>
							<path style="fill:#FFFFFF;" d="M700.531,283.235c-5.61,0-10.158-4.548-10.158-10.158"/>
						</g>
						<g>
							<path style="fill:#010F2D;" d="M700.531,284.249c-6.161,0-11.172-5.011-11.172-11.171c0-0.56,0.454-1.014,1.014-1.014
								c0.56,0,1.014,0.454,1.014,1.014c0,5.042,4.102,9.144,9.145,9.144c0.56,0,1.014,0.454,1.014,1.014
								S701.091,284.249,700.531,284.249z"/>
						</g>
					</g>
					<g>
						<g>
							<path style="fill:#FFFFFF;" d="M700.531,262.92c5.61,0,10.158,4.548,10.158,10.158"/>
						</g>
						<g>
							<path style="fill:#010F2D;" d="M710.688,274.091c-0.56,0-1.014-0.454-1.014-1.014c0-5.042-4.102-9.144-9.143-9.144
								c-0.56,0-1.014-0.454-1.014-1.014s0.454-1.014,1.014-1.014c6.159,0,11.171,5.011,11.171,11.171
								C711.702,273.637,711.248,274.091,710.688,274.091z"/>
						</g>
					</g>
					<g>
						<g>
							<line style="fill:#FFFFFF;" x1="700.531" y1="289.526" x2="700.531" y2="393.538"/>
						</g>
						<g>
							<path style="fill:#010F2D;" d="M700.531,394.552c-0.56,0-1.014-0.454-1.014-1.014V289.526c0-0.56,0.454-1.014,1.014-1.014
								c0.56,0,1.014,0.454,1.014,1.014v104.012C701.545,394.098,701.091,394.552,700.531,394.552z"/>
						</g>
					</g>
					<g>
						<g>
							<circle style="fill:#010F2D;" cx="700.531" cy="392.85" r="12.422"/>
						</g>
						<g>
							<path style="fill:#010F2D;" d="M700.531,406.285c-7.408,0-13.435-6.027-13.435-13.435c0-7.408,6.027-13.435,13.435-13.435
								s13.434,6.027,13.434,13.435C713.965,400.258,707.939,406.285,700.531,406.285z M700.531,381.442
								c-6.29,0-11.408,5.117-11.408,11.408c0,6.291,5.118,11.408,11.408,11.408s11.407-5.117,11.407-11.408
								C711.938,386.56,706.821,381.442,700.531,381.442z"/>
						</g>
					</g>
					<g>
						<g>
							<path style="fill:#FFFFFF;" d="M844.522,648.658l-252.521,13.177c-13.609,0.703-25.218-9.744-25.935-23.353l-7.96-152.594
								c-0.703-13.609,9.744-25.205,23.353-25.921l252.535-13.177c13.609-0.716,25.219,9.744,25.921,23.353l7.96,152.58
								C868.592,636.333,858.131,647.942,844.522,648.658z"/>
						</g>
						<g>
							<path style="fill:#010F2D;" d="M590.713,662.881c-13.561,0-24.939-10.659-25.658-24.346l-7.961-152.595
								c-0.73-14.136,10.177-26.242,24.313-26.986l252.534-13.177c6.846-0.358,13.434,1.971,18.532,6.564
								c5.097,4.593,8.101,10.897,8.455,17.75l7.96,152.58c0.36,6.851-1.97,13.434-6.563,18.533
								c-4.593,5.099-10.895,8.106-17.748,8.466l0,0l-252.522,13.177C591.605,662.87,591.157,662.881,590.713,662.881z
								 M835.317,447.768c-0.422,0-0.845,0.011-1.271,0.034l-252.534,13.177c-13.02,0.686-23.066,11.837-22.394,24.857
								l7.961,152.593c0.684,13.02,11.813,23.047,24.869,22.393l252.522-13.177c6.311-0.332,12.117-3.102,16.348-7.799
								c4.23-4.697,6.377-10.76,6.045-17.07l-7.96-152.581c-0.326-6.313-3.092-12.118-7.787-16.349
								C846.736,449.901,841.168,447.768,835.317,447.768z M844.523,648.658h0.013H844.523z"/>
						</g>
					</g>
					<g>
						<g>
							<path style="fill:#FFFFFF;" d="M691.783,430.025c1.746,2.991,4.99,5.001,8.703,5.001c5.562,0,10.07-4.509,10.07-10.07
								c0-5.562-4.509-10.071-10.07-10.071v-9.304"/>
						</g>
						<g>
							<path style="fill:#010F2D;" d="M700.486,436.04c-3.926,0-7.597-2.109-9.578-5.504c-0.282-0.483-0.119-1.104,0.364-1.386
								c0.483-0.283,1.105-0.119,1.386,0.365c1.621,2.775,4.619,4.499,7.828,4.499c4.994,0,9.058-4.063,9.058-9.057
								c0-4.994-4.064-9.057-9.058-9.057c-0.56,0-1.014-0.454-1.014-1.014v-9.304c0-0.56,0.454-1.014,1.014-1.014
								c0.56,0,1.014,0.454,1.014,1.014v8.337c5.64,0.513,10.071,5.268,10.071,11.038
								C711.571,431.068,706.598,436.04,700.486,436.04z"/>
						</g>
					</g>
					<g>
						<g>
							
								<path style="fill:#FFFFFF;stroke:#010F2D;stroke-width:1.5;stroke-linecap:round;stroke-linejoin:round;stroke-miterlimit:10;" d="
								M804.771,418.728"/>
						</g>
					</g>
					<g>
						<g>
							<path style="fill:#010F2D;" d="M611.354,459.421c-0.425,0-0.821-0.269-0.962-0.695c-0.176-0.531,0.112-1.105,0.644-1.28
								l91.741-30.341c0.161-0.054,0.335-0.066,0.503-0.034l107.249,19.956c0.55,0.102,0.915,0.632,0.812,1.182
								c-0.103,0.551-0.64,0.918-1.181,0.811L703.167,429.11l-91.494,30.259C611.567,459.404,611.46,459.421,611.354,459.421z"/>
						</g>
					</g>
					<g>
						<g>
							<g>
								<g>
									<path style="fill:#142546;" d="M361.984,436.402l-2.706,3.222c-3.389,4.036-3.692,9.83-0.742,14.198l38.586,57.132
										c2.583,3.884,8.114,4.356,11.307,0.968l78.941-80.221c4.115-4.182,5.531-10.321,3.664-15.883l-0.664-1.979L361.984,436.402
										z"/>
								</g>
								<g>
									<path style="fill:#010F2D;" d="M403.177,515.205c-0.235,0-0.473-0.01-0.71-0.03c-2.529-0.214-4.784-1.548-6.19-3.66
										l-38.581-57.126c-3.186-4.718-2.855-11.057,0.806-15.418l2.706-3.222c0.153-0.182,0.366-0.305,0.6-0.346l128.385-22.563
										c0.486-0.086,0.975,0.199,1.136,0.676l0.665,1.978c1.999,5.957,0.505,12.439-3.903,16.917l-78.942,80.221
										C407.594,514.285,405.444,515.205,403.177,515.205z M362.522,437.336l-2.468,2.939c-3.082,3.67-3.361,9.008-0.68,12.979
										l38.587,57.132c1.065,1.6,2.768,2.607,4.677,2.769c1.903,0.156,3.744-0.542,5.052-1.928l78.958-80.237
										c3.868-3.931,5.18-9.621,3.425-14.85l-0.387-1.152L362.522,437.336z"/>
								</g>
							</g>
						</g>
						<g>
							<g>
								<g>
									<path style="fill:#FFFFFF;" d="M489.821,418.888l-79.705,79.885c-3.193,3.388-8.724,2.916-11.307-0.968l-37.378-54.098
										c-2.378-3.442-0.463-8.191,3.639-9.01c34.248-6.832,120.889-21.738,120.889-21.738c1.613-0.317,2.914-0.102,3.8,0.448
										l0.017-0.009C491.532,414.41,491.793,416.638,489.821,418.888z"/>
								</g>
								<g>
									<path style="fill:#010F2D;" d="M404.865,502.057c-0.236,0-0.474-0.01-0.711-0.03c-2.529-0.215-4.784-1.549-6.188-3.66
										l-37.368-54.084c-1.313-1.901-1.579-4.312-0.713-6.451c0.865-2.135,2.729-3.678,4.989-4.128
										c33.868-6.757,120.048-21.594,120.915-21.743c1.681-0.329,3.187-0.162,4.345,0.489c0.052,0.019,0.102,0.042,0.149,0.07
										c1.028,0.591,1.695,1.529,1.878,2.639c0.234,1.408-0.326,2.97-1.576,4.396c-0.014,0.017-0.03,0.032-0.045,0.048
										l-79.705,79.885C409.281,501.137,407.131,502.057,404.865,502.057z M487.397,413.827c-0.389,0-0.805,0.042-1.242,0.128
										c-0.889,0.154-87.044,14.986-120.886,21.737c-1.612,0.321-2.889,1.379-3.507,2.902c-0.608,1.505-0.421,3.201,0.503,4.538
										l37.379,54.098c1.07,1.609,2.772,2.615,4.681,2.777c1.882,0.161,3.746-0.542,5.054-1.93l79.701-79.882
										c0.829-0.954,1.213-1.914,1.081-2.706c-0.078-0.473-0.338-0.856-0.771-1.141c-0.057-0.021-0.111-0.048-0.164-0.08
										C488.754,413.977,488.125,413.827,487.397,413.827z M489.821,418.888h0.013H489.821z"/>
								</g>
							</g>
						</g>
						<g>
							<g>
								<path style="fill:#FFFFFF;" d="M431,446.154L431,446.154c0.568,1.198,0.071,2.63-1.116,3.22
									c0,0-35.215,19.965-48.048,23.867c-5.961,1.812-24.714,3.212-24.714,3.212l-4.95-11.678c0,0,17.461,0.143,23.144-0.969
									c13.728-2.686,52.663-18.9,52.663-18.9C429.158,444.483,430.465,445.023,431,446.154z"/>
							</g>
							<g>
								<path style="fill:#010F2D;" d="M357.123,477.466c-0.405,0-0.773-0.242-0.933-0.618l-4.949-11.678
									c-0.133-0.314-0.099-0.674,0.09-0.958c0.189-0.282,0.505-0.451,0.843-0.451c0.003,0,0.005,0,0.008,0
									c0.177,0.001,17.423,0.13,22.942-0.95c13.47-2.636,52.078-18.68,52.467-18.841c1.725-0.622,3.563,0.142,4.326,1.75v0.001
									c0.798,1.685,0.088,3.732-1.581,4.562c-1.394,0.791-35.413,20.039-48.205,23.928c-5.999,1.823-24.161,3.195-24.932,3.253
									C357.173,477.465,357.148,477.466,357.123,477.466z M353.707,465.794l4.064,9.591c3.496-0.279,18.641-1.555,23.771-3.115
									c12.579-3.824,47.491-23.579,47.842-23.778c0.738-0.368,1.03-1.211,0.701-1.905c-0.313-0.661-1.068-0.976-1.763-0.728
									c-1.545,0.645-39.138,16.266-52.81,18.94C370.734,465.736,358.147,465.793,353.707,465.794z"/>
							</g>
						</g>
						<g>
							<g>
								<path style="fill:#010F2D;" d="M364.715,475.7c-1.269,2.584-3.776,4.499-6.856,4.883l-57.423,15.262
									c-4.855,0.626-9.292-2.818-9.918-7.673c-0.224-1.781,0.102-3.518,0.841-5.023c1.269-2.584,3.764-4.505,6.844-4.89
									l57.423-15.262c4.855-0.627,9.292,2.818,9.918,7.673C365.78,472.459,365.454,474.195,364.715,475.7z"/>
							</g>
							<g>
								<path style="fill:#010F2D;" d="M299.294,496.918c-2.221,0-4.295-0.713-6.023-2.052c-2.085-1.615-3.42-3.946-3.758-6.564
									c-0.241-1.924,0.082-3.86,0.937-5.599c1.464-2.979,4.284-5.008,7.557-5.44l57.359-15.244
									c5.527-0.721,10.484,3.113,11.184,8.522c0.252,1.92-0.067,3.858-0.924,5.604c-0.001,0.001-0.001,0.001-0.001,0.001
									c-1.46,2.973-4.287,5-7.57,5.434l-57.358,15.244C300.224,496.887,299.756,496.918,299.294,496.918z M356.761,463.939
									c-0.333,0-0.668,0.021-1.006,0.065l-57.293,15.236c-0.044,0.012-0.088,0.021-0.135,0.026
									c-2.622,0.327-4.887,1.946-6.059,4.331c-0.68,1.383-0.937,2.921-0.744,4.449c0.268,2.079,1.329,3.932,2.988,5.217
									c1.66,1.285,3.71,1.846,5.795,1.577l57.292-15.236c0.044-0.012,0.088-0.021,0.135-0.026
									c2.633-0.329,4.903-1.946,6.072-4.325c0.68-1.387,0.933-2.925,0.734-4.45C364.028,466.839,360.643,463.939,356.761,463.939z
									 M364.716,475.699h0.013H364.716z"/>
							</g>
						</g>
					</g>
					<g>
						<g>
							<g>
								<path style="fill:#FFFFFF;" d="M342.362,478.401c0.869,0.504,21.052,12.538,6.581,24.103
									c-0.001,0.015-0.016,0.013-0.016,0.013s3.782,10.283-9.258,11.678c0,0,0.747,4.781-5.612,8.945
									c-6.356,4.135-13.576-7.372-18.278-9.452c-3.68-1.62-11.772-2.173-20.81-2.183c-2.092-0.004-5.237,0.122-8.878,0.317
									c-8.567,0.467-39.642-1.733-46.832-1.229c-0.131-0.755-0.246-1.524-0.329-2.319c-0.81-7.236-0.219-16.29,2.016-25.889
									c1.905-8.252,4.74-15.728,8.036-21.731c0.253-0.449,0.507-0.899,0.758-1.333c6.016-0.34,31.261-0.89,33.895-1.692
									c1.592-0.477,24.845-5.906,32.825-6.73c16.29-1.689,41.986,12.775,46.24,22.646
									C366.841,483.198,343.338,478.589,342.362,478.401z"/>
							</g>
							<g>
								<path style="fill:#010F2D;" d="M331.156,525.052c-3.843,0.001-7.638-3.527-10.833-6.496c-1.846-1.716-3.59-3.337-4.954-3.94
									c-3.088-1.36-10.144-2.085-20.401-2.097c-1.89-0.009-4.778,0.1-8.823,0.316c-4.365,0.24-14.477-0.207-24.256-0.638
									c-9.367-0.412-19.051-0.838-22.558-0.593c-0.56,0.038-0.981-0.325-1.07-0.837c-0.136-0.778-0.253-1.569-0.339-2.388
									c-0.851-7.607-0.129-16.922,2.036-26.224c1.87-8.096,4.683-15.7,8.135-21.989c0.261-0.463,0.516-0.916,0.771-1.354
									c0.17-0.296,0.479-0.484,0.82-0.504c1.836-0.104,5.451-0.226,9.636-0.369c8.886-0.303,22.312-0.76,24.02-1.28
									c1.334-0.4,24.882-5.928,33.016-6.768c16.537-1.706,42.69,12.612,47.275,23.253c1.065,2.481,0.431,4.064-0.286,4.956
									c-2.629,3.264-11.006,2.794-16.712,2.025c3.462,2.717,8.11,7.318,8.507,12.656c0.269,3.634-1.428,7.027-5.048,10.092
									c0.362,1.41,0.89,4.669-0.907,7.56c-1.549,2.492-4.401,4.056-8.486,4.654c-0.106,1.794-0.99,5.566-6.083,8.901
									C333.467,524.735,332.308,525.052,331.156,525.052z M294.872,510.492c0.033,0,0.066,0,0.098,0
									c10.685,0.013,17.824,0.776,21.217,2.269c1.677,0.742,3.542,2.475,5.517,4.31c3.825,3.555,8.163,7.587,11.802,5.22
									c5.67-3.713,5.184-7.777,5.16-7.948c-0.037-0.271,0.037-0.551,0.206-0.767c0.169-0.216,0.417-0.359,0.689-0.388
									c3.918-0.419,6.574-1.701,7.892-3.812c1.801-2.882,0.534-6.476,0.521-6.512c-0.12-0.333-0.058-0.707,0.165-0.983
									c0.032-0.04,0.066-0.077,0.103-0.11c0.021-0.02,0.045-0.04,0.069-0.059c3.418-2.732,5.035-5.686,4.805-8.78
									c-0.546-7.351-11.155-13.592-11.263-13.655c-0.428-0.248-0.614-0.769-0.439-1.232c0.174-0.463,0.661-0.736,1.14-0.639
									c0.001,0,0.026,0.005,0.026,0.005c7.799,1.508,17.13,1.968,19.185-0.581c0.201-0.249,0.809-1.004,0.003-2.883
									c-4.251-9.869-29.691-23.655-45.204-22.038c-8.036,0.83-31.323,6.298-32.637,6.692c-1.815,0.552-11.745,0.93-24.538,1.365
									c-3.789,0.129-7.108,0.242-9.045,0.339c-0.16,0.28-0.321,0.564-0.48,0.848c-3.357,6.118-6.103,13.543-7.932,21.462
									c-2.114,9.085-2.823,18.157-1.996,25.548c0.049,0.468,0.11,0.925,0.177,1.374c4.12-0.145,12.76,0.236,21.864,0.637
									c9.729,0.428,19.794,0.874,24.058,0.638C290.049,510.596,292.942,510.492,294.872,510.492z"/>
							</g>
						</g>
						<g>
							<g>
								<g>
									<path style="fill:#FFFFFF;" d="M342.325,478.391c0,0-12.978-10.342-23.965-7.135"/>
								</g>
								<g>
									<path style="fill:#010F2D;" d="M342.323,479.405c-0.22,0-0.444-0.072-0.63-0.22c-0.125-0.1-12.699-9.968-23.05-6.955
										c-0.541,0.158-1.101-0.152-1.256-0.689c-0.157-0.537,0.152-1.1,0.689-1.257c11.361-3.317,24.333,6.879,24.881,7.315
										c0.437,0.348,0.509,0.986,0.161,1.424C342.917,479.273,342.621,479.405,342.323,479.405z"/>
								</g>
							</g>
							<g>
								<g>
									<path style="fill:#FFFFFF;" d="M348.941,502.505c0,0-5.72-8.491-14.14-15.716c-8.42-7.225-20.602-3.512-20.602-3.512"/>
								</g>
								<g>
									<path style="fill:#010F2D;" d="M348.942,503.519c-0.326,0-0.647-0.157-0.842-0.447c-0.057-0.084-5.748-8.468-13.958-15.513
										c-7.887-6.767-19.53-3.346-19.648-3.311c-0.532,0.163-1.102-0.14-1.263-0.676c-0.164-0.535,0.138-1.101,0.673-1.264
										c0.52-0.158,12.815-3.79,21.557,3.711c8.427,7.232,14.083,15.568,14.32,15.92c0.313,0.464,0.19,1.094-0.275,1.407
										C349.334,503.463,349.136,503.519,348.942,503.519z"/>
								</g>
							</g>
							<g>
								<g>
									<path style="fill:#FFFFFF;" d="M339.661,514.191c0,0-6.369-10.057-12.619-15.181c-6.25-5.124-20.018-3.616-20.018-3.616"/>
								</g>
								<g>
									<path style="fill:#010F2D;" d="M339.662,515.205c-0.337,0-0.665-0.166-0.858-0.471c-0.062-0.099-6.356-9.98-12.406-14.939
										c-5.845-4.793-19.129-3.407-19.265-3.392c-0.544,0.058-1.056-0.341-1.116-0.897c-0.061-0.556,0.34-1.057,0.896-1.118
										c0.582-0.064,14.267-1.493,20.771,3.84c6.305,5.168,12.57,15.006,12.834,15.422c0.3,0.473,0.158,1.099-0.314,1.399
										C340.034,515.154,339.847,515.205,339.662,515.205z"/>
								</g>
							</g>
						</g>
					</g>
					<g>
						<g>
							<path style="fill:#4970FA;" d="M316.967,355.556l-99.153,72.51l63.334,14.586c-28.8,26.011-26.767,78.728-7.588,85.414
								c0,0-145.266-4.043-157.682-55.83c-9.519-39.702,88.116-146.344,121.808-176.327
								c48.466-43.129,104.045-11.701,104.045-11.701"/>
						</g>
						<g>
							<path style="fill:#010F2D;" d="M273.559,529.08c-0.009,0-0.018,0-0.028-0.001c-0.364-0.01-36.837-1.099-74.354-8.513
								c-50.679-10.016-79.036-26.197-84.286-48.094c-9.393-39.182,84.752-144.067,122.12-177.319
								c48.447-43.112,104.657-12.144,105.218-11.827c0.487,0.275,0.659,0.893,0.384,1.38c-0.276,0.488-0.889,0.661-1.382,0.384
								c-0.55-0.309-55.528-30.554-102.871,11.576c-37.119,33.03-130.695,136.968-121.497,175.333
								c10.899,45.461,128.244,53.662,152.4,54.869c-4.578-3.48-8.04-9.941-9.76-18.448c-3.943-19.497,1.569-47.811,19.561-65.208
								l-61.477-14.158c-0.387-0.089-0.686-0.395-0.766-0.784c-0.08-0.389,0.074-0.788,0.395-1.022l99.153-72.51
								c0.45-0.333,1.086-0.231,1.416,0.22c0.33,0.452,0.232,1.086-0.22,1.417l-97.364,71.201l61.174,14.088
								c0.368,0.085,0.659,0.367,0.754,0.733s-0.021,0.754-0.301,1.007c-18.544,16.748-24.268,45.182-20.338,64.614
								c2.043,10.096,6.563,17.055,12.403,19.091c0.471,0.164,0.754,0.648,0.663,1.14
								C274.467,528.731,274.047,529.08,273.559,529.08z"/>
						</g>
					</g>
					<g>
						<g>
							<line style="fill:#4970FA;" x1="217.813" y1="428.066" x2="186.867" y2="422.264"/>
						</g>
						<g>
							<path style="fill:#010F2D;" d="M217.815,429.08c-0.062,0-0.125-0.005-0.189-0.017l-30.946-5.802
								c-0.549-0.104-0.912-0.633-0.809-1.183c0.103-0.55,0.628-0.914,1.184-0.81l30.946,5.802c0.549,0.104,0.912,0.633,0.809,1.183
								C218.719,428.74,218.293,429.08,217.815,429.08z"/>
						</g>
					</g>
					<g>
						<g>
							<path style="fill:#FFA58D;" d="M485.689,761.277h-95.691c-8.243,0-14.925-6.682-14.925-14.925v-73.885
								c0-8.243,6.682-14.925,14.925-14.925h95.691c8.243,0,14.925,6.682,14.925,14.925v73.885
								C500.614,754.595,493.932,761.277,485.689,761.277z"/>
						</g>
					</g>
					<g>
						<g>
							<path style="fill:#FF4301;" d="M405.658,719.37c3.837,0,4.378-2.109,4.378-4c0-1.514-0.216-3.026-0.433-4.54
								c-0.216-1.514-0.431-2.974-0.431-4.486c0-4.973,3.243-7.081,7.837-7.081h1.135v2.972h-0.973c-3.19,0-4.271,1.73-4.271,4.648
								c0,1.243,0.162,2.541,0.379,3.838c0.217,1.352,0.379,2.649,0.379,4.109c0.054,3.459-1.46,5.188-3.892,5.837v0.107
								c2.432,0.595,3.946,2.432,3.892,5.891c0,1.46-0.162,2.811-0.379,4.109c-0.216,1.352-0.379,2.595-0.379,3.891
								c0,3.028,1.243,4.702,4.271,4.702h0.973v2.973h-1.135c-4.486,0-7.837-1.947-7.837-7.405c0-1.46,0.215-2.972,0.431-4.432
								c0.217-1.46,0.433-2.918,0.433-4.378c0-1.676-0.541-4-4.378-4V719.37z"/>
						</g>
						<g>
							<path style="fill:#FF4301;" d="M422.307,733.476c0-2,1.35-3.405,3.243-3.405c1.891,0,3.189,1.406,3.189,3.405
								c0,1.947-1.243,3.405-3.243,3.405C423.603,736.881,422.307,735.422,422.307,733.476z"/>
						</g>
						<g>
							<path style="fill:#FF4301;" d="M433.498,733.476c0-2,1.35-3.405,3.243-3.405c1.891,0,3.189,1.406,3.189,3.405
								c0,1.947-1.243,3.405-3.243,3.405C434.794,736.881,433.498,735.422,433.498,733.476z"/>
						</g>
						<g>
							<path style="fill:#FF4301;" d="M444.687,733.476c0-2,1.35-3.405,3.243-3.405c1.891,0,3.189,1.406,3.189,3.405
								c0,1.947-1.243,3.405-3.243,3.405C445.983,736.881,444.687,735.422,444.687,733.476z"/>
						</g>
						<g>
							<path style="fill:#FF4301;" d="M466.902,722.125c-3.838,0-4.378,2.324-4.378,4c0,1.46,0.216,2.918,0.431,4.378
								c0.216,1.46,0.433,2.972,0.433,4.432c0,5.459-3.405,7.405-7.837,7.405h-1.135v-2.973h0.919
								c3.026-0.054,4.324-1.675,4.324-4.702c0-1.296-0.217-2.539-0.378-3.891c-0.216-1.297-0.433-2.649-0.433-4.109
								c0-3.459,1.514-5.296,3.892-5.891v-0.107c-2.378-0.649-3.892-2.378-3.892-5.837c0-1.46,0.217-2.757,0.433-4.109
								c0.161-1.297,0.378-2.595,0.378-3.838c0-2.918-1.135-4.594-4.27-4.648h-0.973v-2.972h1.081c4.594,0,7.891,2.108,7.891,7.081
								c0,1.512-0.216,2.972-0.433,4.486c-0.215,1.514-0.431,3.026-0.431,4.54c0,1.891,0.54,4,4.378,4V722.125z"/>
						</g>
					</g>
					<g>
						<g>
							<g>
								<line style="fill:#FFFFFF;" x1="711.005" y1="689.653" x2="749.005" y2="689.653"/>
							</g>
							<g>
								<path style="fill:#010F2D;" d="M749.005,690.666h-38.001c-0.56,0-1.014-0.454-1.014-1.014c0-0.56,0.454-1.014,1.014-1.014
									h38.001c0.56,0,1.014,0.454,1.014,1.014C750.019,690.212,749.565,690.666,749.005,690.666z"/>
							</g>
						</g>
						<g>
							<g>
								<line style="fill:#FFFFFF;" x1="661.36" y1="689.653" x2="687.706" y2="689.653"/>
							</g>
							<g>
								<path style="fill:#010F2D;" d="M687.707,690.666h-26.346c-0.56,0-1.014-0.454-1.014-1.014c0-0.56,0.454-1.014,1.014-1.014
									h26.346c0.56,0,1.014,0.454,1.014,1.014C688.72,690.212,688.266,690.666,687.707,690.666z"/>
							</g>
						</g>
						<g>
							<g>
								<line style="fill:#FFFFFF;" x1="612.74" y1="689.653" x2="646.225" y2="689.653"/>
							</g>
							<g>
								<path style="fill:#010F2D;" d="M646.226,690.666H612.74c-0.56,0-1.014-0.454-1.014-1.014c0-0.56,0.454-1.014,1.014-1.014
									h33.486c0.56,0,1.014,0.454,1.014,1.014C647.239,690.212,646.785,690.666,646.226,690.666z"/>
							</g>
						</g>
						<g>
							<g>
								<line style="fill:#FFFFFF;" x1="556.848" y1="689.653" x2="575.925" y2="689.653"/>
							</g>
							<g>
								<path style="fill:#010F2D;" d="M575.924,690.666h-19.076c-0.56,0-1.014-0.454-1.014-1.014c0-0.56,0.454-1.014,1.014-1.014
									h19.076c0.56,0,1.014,0.454,1.014,1.014C576.938,690.212,576.484,690.666,575.924,690.666z"/>
							</g>
						</g>
						<g>
							<g>
								<line style="fill:#FFFFFF;" x1="533.836" y1="689.653" x2="546.349" y2="689.653"/>
							</g>
							<g>
								<path style="fill:#010F2D;" d="M546.349,690.666h-12.513c-0.56,0-1.014-0.454-1.014-1.014c0-0.56,0.454-1.014,1.014-1.014
									h12.513c0.56,0,1.014,0.454,1.014,1.014C547.363,690.212,546.909,690.666,546.349,690.666z"/>
							</g>
						</g>
						<g>
							<g>
								<line style="fill:#FFFFFF;" x1="701.512" y1="712.946" x2="749.005" y2="712.946"/>
							</g>
							<g>
								<path style="fill:#010F2D;" d="M749.005,713.96h-47.494c-0.56,0-1.014-0.454-1.014-1.014c0-0.56,0.454-1.014,1.014-1.014
									h47.494c0.56,0,1.014,0.454,1.014,1.014C750.019,713.506,749.565,713.96,749.005,713.96z"/>
							</g>
						</g>
						<g>
							<g>
								<line style="fill:#FFFFFF;" x1="660.162" y1="712.946" x2="676.552" y2="712.946"/>
							</g>
							<g>
								<path style="fill:#010F2D;" d="M676.552,713.96h-16.389c-0.56,0-1.014-0.454-1.014-1.014c0-0.56,0.454-1.014,1.014-1.014
									h16.389c0.56,0,1.014,0.454,1.014,1.014C677.565,713.506,677.111,713.96,676.552,713.96z"/>
							</g>
						</g>
						<g>
							<g>
								<line style="fill:#FFFFFF;" x1="645.222" y1="712.946" x2="651.215" y2="712.946"/>
							</g>
							<g>
								<path style="fill:#010F2D;" d="M651.216,713.96h-5.995c-0.56,0-1.014-0.454-1.014-1.014c0-0.56,0.454-1.014,1.014-1.014
									h5.995c0.56,0,1.014,0.454,1.014,1.014C652.229,713.506,651.775,713.96,651.216,713.96z"/>
							</g>
						</g>
						<g>
							<g>
								<line style="fill:#FFFFFF;" x1="604.843" y1="712.946" x2="634.507" y2="712.946"/>
							</g>
							<g>
								<path style="fill:#010F2D;" d="M634.507,713.96h-29.664c-0.56,0-1.014-0.454-1.014-1.014c0-0.56,0.454-1.014,1.014-1.014
									h29.664c0.56,0,1.014,0.454,1.014,1.014C635.521,713.506,635.067,713.96,634.507,713.96z"/>
							</g>
						</g>
						<g>
							<g>
								<line style="fill:#FFFFFF;" x1="533.836" y1="712.946" x2="586.804" y2="712.946"/>
							</g>
							<g>
								<path style="fill:#010F2D;" d="M586.805,713.96h-52.968c-0.56,0-1.014-0.454-1.014-1.014c0-0.56,0.454-1.014,1.014-1.014
									h52.968c0.56,0,1.014,0.454,1.014,1.014C587.818,713.506,587.364,713.96,586.805,713.96z"/>
							</g>
						</g>
						<g>
							<g>
								<line style="fill:#FFFFFF;" x1="730.005" y1="736.24" x2="749.005" y2="736.24"/>
							</g>
							<g>
								<path style="fill:#010F2D;" d="M749.005,737.254h-19c-0.56,0-1.014-0.454-1.014-1.014c0-0.56,0.454-1.014,1.014-1.014h19
									c0.56,0,1.014,0.454,1.014,1.014C750.019,736.8,749.565,737.254,749.005,737.254z"/>
							</g>
						</g>
						<g>
							<g>
								<line style="fill:#FFFFFF;" x1="678.309" y1="736.24" x2="719.02" y2="736.24"/>
							</g>
							<g>
								<path style="fill:#010F2D;" d="M719.02,737.254h-40.711c-0.56,0-1.014-0.454-1.014-1.014c0-0.56,0.454-1.014,1.014-1.014
									h40.711c0.56,0,1.014,0.454,1.014,1.014C720.034,736.8,719.58,737.254,719.02,737.254z"/>
							</g>
						</g>
						<g>
							<g>
								<line style="fill:#FFFFFF;" x1="641.421" y1="736.24" x2="662.699" y2="736.24"/>
							</g>
							<g>
								<path style="fill:#010F2D;" d="M662.699,737.254H641.42c-0.56,0-1.014-0.454-1.014-1.014c0-0.56,0.454-1.014,1.014-1.014
									h21.279c0.56,0,1.014,0.454,1.014,1.014C663.713,736.8,663.259,737.254,662.699,737.254z"/>
							</g>
						</g>
						<g>
							<g>
								<line style="fill:#FFFFFF;" x1="614.816" y1="736.24" x2="630.426" y2="736.24"/>
							</g>
							<g>
								<path style="fill:#010F2D;" d="M630.425,737.254h-15.609c-0.56,0-1.014-0.454-1.014-1.014c0-0.56,0.454-1.014,1.014-1.014
									h15.609c0.56,0,1.014,0.454,1.014,1.014C631.439,736.8,630.985,737.254,630.425,737.254z"/>
							</g>
						</g>
						<g>
							<g>
								<line style="fill:#FFFFFF;" x1="568.063" y1="736.24" x2="614.816" y2="736.24"/>
							</g>
							<g>
								<path style="fill:#010F2D;" d="M614.816,737.254h-46.754c-0.56,0-1.014-0.454-1.014-1.014c0-0.56,0.454-1.014,1.014-1.014
									h46.754c0.56,0,1.014,0.454,1.014,1.014C615.83,736.8,615.375,737.254,614.816,737.254z"/>
							</g>
						</g>
						<g>
							<g>
								<line style="fill:#FFFFFF;" x1="533.836" y1="736.24" x2="551.491" y2="736.24"/>
							</g>
							<g>
								<path style="fill:#010F2D;" d="M551.491,737.254h-17.655c-0.56,0-1.014-0.454-1.014-1.014c0-0.56,0.454-1.014,1.014-1.014
									h17.655c0.56,0,1.014,0.454,1.014,1.014C552.505,736.8,552.051,737.254,551.491,737.254z"/>
							</g>
						</g>
						<g>
							<g>
								<line style="fill:#FFFFFF;" x1="708.571" y1="759.534" x2="749.005" y2="759.534"/>
							</g>
							<g>
								<path style="fill:#010F2D;" d="M749.005,760.548h-40.434c-0.56,0-1.014-0.454-1.014-1.014c0-0.56,0.454-1.014,1.014-1.014
									h40.434c0.56,0,1.014,0.454,1.014,1.014C750.019,760.094,749.565,760.548,749.005,760.548z"/>
							</g>
						</g>
						<g>
							<g>
								<line style="fill:#FFFFFF;" x1="624.252" y1="759.534" x2="690.54" y2="759.534"/>
							</g>
							<g>
								<path style="fill:#010F2D;" d="M690.54,760.548h-66.288c-0.56,0-1.014-0.454-1.014-1.014c0-0.56,0.454-1.014,1.014-1.014
									h66.288c0.56,0,1.014,0.454,1.014,1.014C691.554,760.094,691.1,760.548,690.54,760.548z"/>
							</g>
						</g>
						<g>
							<g>
								<line style="fill:#FFFFFF;" x1="587.326" y1="759.534" x2="597.207" y2="759.534"/>
							</g>
							<g>
								<path style="fill:#010F2D;" d="M597.206,760.548h-9.88c-0.56,0-1.014-0.454-1.014-1.014c0-0.56,0.454-1.014,1.014-1.014
									h9.88c0.56,0,1.014,0.454,1.014,1.014C598.22,760.094,597.766,760.548,597.206,760.548z"/>
							</g>
						</g>
						<g>
							<g>
								<line style="fill:#FFFFFF;" x1="533.836" y1="759.534" x2="570.067" y2="759.534"/>
							</g>
							<g>
								<path style="fill:#010F2D;" d="M570.067,760.548h-36.231c-0.56,0-1.014-0.454-1.014-1.014c0-0.56,0.454-1.014,1.014-1.014
									h36.231c0.56,0,1.014,0.454,1.014,1.014C571.081,760.094,570.627,760.548,570.067,760.548z"/>
							</g>
						</g>
					</g>
					<g>
						<g>
							<g>
								<path style="fill:#FFA58D;" d="M601.666,702.009c-0.169,0-0.344-0.055-0.527-0.168c-0.182-0.112-0.343-0.197-0.483-0.253
									l-13.253-9.13c-0.421-0.28-0.73-0.568-0.925-0.863c-0.197-0.294-0.294-0.637-0.294-1.031v-0.757
									c0-0.393,0.098-0.729,0.294-1.01c0.195-0.28,0.504-0.574,0.925-0.884l13.253-9.087c0.14-0.084,0.301-0.182,0.483-0.294
									c0.182-0.112,0.358-0.168,0.527-0.168c0.224,0,0.421,0.077,0.589,0.231c0.169,0.154,0.252,0.372,0.252,0.653v1.851
									c0,0.309-0.083,0.568-0.252,0.778c-0.168,0.211-0.406,0.414-0.715,0.61l-11.275,7.699l11.275,7.7
									c0.309,0.224,0.548,0.434,0.715,0.631c0.169,0.197,0.252,0.463,0.252,0.8v1.85c0,0.253-0.083,0.457-0.252,0.611
									C602.087,701.933,601.891,702.009,601.666,702.009z"/>
							</g>
						</g>
					</g>
					<g>
						<g>
							<g>
								<path style="fill:#2DC874;" d="M680.834,724.538c-0.169-0.154-0.252-0.358-0.252-0.611v-1.85c0-0.337,0.083-0.603,0.252-0.8
									c0.168-0.197,0.407-0.406,0.715-0.631l11.275-7.7l-11.275-7.699c-0.309-0.196-0.548-0.4-0.715-0.61
									c-0.169-0.21-0.252-0.469-0.252-0.778v-1.851c0-0.281,0.083-0.498,0.252-0.653c0.168-0.154,0.364-0.231,0.589-0.231
									c0.169,0,0.344,0.056,0.527,0.168c0.182,0.112,0.343,0.21,0.483,0.294l13.253,9.087c0.421,0.31,0.73,0.604,0.925,0.884
									c0.197,0.281,0.294,0.618,0.294,1.01v0.757c0,0.393-0.098,0.736-0.294,1.031c-0.195,0.295-0.504,0.583-0.925,0.862
									l-13.253,9.13c-0.14,0.057-0.301,0.141-0.483,0.253c-0.182,0.112-0.358,0.168-0.527,0.168
									C681.199,724.769,681.002,724.693,680.834,724.538z"/>
							</g>
						</g>
					</g>
					<g>
						<g>
							<g>
								<path style="fill:#C0EED5;" d="M884.75,363.902v11.313c0,2.185-1.543,4.067-3.684,4.485l-9.827,1.954
									c-0.548,1.651-1.219,3.252-1.983,4.795l5.566,8.32c1.219,1.817,0.98,4.232-0.562,5.783l-8.003,7.996
									c-1.543,1.543-3.966,1.781-5.783,0.57l-8.328-5.574c-1.536,0.772-3.136,1.435-4.787,1.997l-1.947,9.813
									c-0.425,2.141-2.307,3.692-4.492,3.692h-11.313c-2.185,0-4.059-1.55-4.485-3.692l-1.954-9.82
									c-1.651-0.555-3.245-1.219-4.78-1.99l-8.335,5.574c-1.817,1.211-4.232,0.973-5.783-0.57l-7.996-7.996
									c-1.543-1.55-1.781-3.966-0.57-5.783l5.573-8.328c-0.771-1.543-1.435-3.136-1.99-4.788l-9.82-1.954
									c-2.141-0.418-3.684-2.3-3.684-4.485v-11.313c0-2.185,1.543-4.067,3.684-4.492l9.813-1.947
									c0.562-1.651,1.226-3.252,1.997-4.795l-5.573-8.32c-1.211-1.817-0.973-4.24,0.57-5.783l7.996-7.996
									c1.55-1.55,3.966-1.788,5.783-0.57l8.335,5.574c1.536-0.772,3.129-1.435,4.78-1.99l1.954-9.827
									c0.425-2.141,2.3-3.684,4.485-3.684h11.313c2.185,0,4.067,1.543,4.492,3.684l1.947,9.82
									c1.651,0.562,3.252,1.226,4.787,1.997l8.328-5.574c1.817-1.219,4.24-0.98,5.783,0.57l8.003,7.996
									c1.543,1.543,1.781,3.966,0.562,5.783l-5.566,8.32c0.772,1.543,1.435,3.144,1.99,4.795l9.82,1.947
									C883.207,359.835,884.75,361.717,884.75,363.902z"/>
							</g>
							<g>
								<path style="fill:#010F2D;" d="M840.92,420.059h-11.313c-2.654,0-4.958-1.895-5.478-4.507l-1.84-9.25
									c-1.308-0.463-2.589-0.996-3.823-1.59l-7.849,5.248c-2.209,1.472-5.178,1.18-7.061-0.694l-7.998-7.999
									c-1.875-1.885-2.167-4.854-0.696-7.061l5.25-7.844c-0.597-1.241-1.13-2.524-1.592-3.829l-9.25-1.84
									c-2.605-0.509-4.499-2.813-4.499-5.479v-11.313c0-2.661,1.893-4.968,4.499-5.486l9.245-1.834
									c0.473-1.325,1.008-2.611,1.596-3.835l-5.247-7.835c-1.477-2.215-1.184-5.184,0.694-7.063l7.997-7.996
									c1.885-1.885,4.857-2.176,7.064-0.694l7.847,5.247c1.233-0.595,2.514-1.128,3.823-1.59l1.84-9.256
									c0.519-2.608,2.823-4.501,5.478-4.501h11.313c2.661,0,4.968,1.893,5.486,4.5l1.834,9.252
									c1.324,0.472,2.607,1.008,3.827,1.596l7.842-5.248c2.215-1.484,5.185-1.19,7.063,0.697l8.003,7.994
									c1.881,1.883,2.17,4.854,0.688,7.064l-5.242,7.835c0.594,1.234,1.127,2.52,1.592,3.835l9.249,1.833
									c2.608,0.519,4.5,2.826,4.5,5.486v11.313c0,2.665-1.894,4.97-4.503,5.479l-9.252,1.84c-0.447,1.275-0.979,2.56-1.588,3.835
									l5.244,7.837c1.479,2.205,1.19,5.175-0.686,7.061l-8.006,7.999c-1.878,1.875-4.849,2.17-7.061,0.696l-7.844-5.249
									c-1.222,0.589-2.505,1.123-3.827,1.595l-1.834,9.244C845.886,418.163,843.579,420.059,840.92,420.059z M818.388,402.53
									c0.156,0,0.312,0.036,0.455,0.108c1.484,0.745,3.047,1.396,4.648,1.934c0.344,0.115,0.6,0.407,0.67,0.763l1.953,9.82
									c0.333,1.666,1.8,2.876,3.491,2.876h11.313c1.696,0,3.166-1.21,3.499-2.876l1.947-9.813c0.07-0.355,0.325-0.645,0.667-0.762
									c1.627-0.554,3.195-1.208,4.659-1.943c0.326-0.164,0.715-0.14,1.019,0.063l8.328,5.574c1.414,0.942,3.305,0.753,4.502-0.444
									l8.005-7.997c1.196-1.2,1.38-3.094,0.437-4.5l-5.567-8.321c-0.202-0.302-0.227-0.688-0.066-1.013
									c0.767-1.549,1.416-3.119,1.928-4.665c0.115-0.346,0.406-0.604,0.764-0.675l9.828-1.954c1.663-0.325,2.868-1.792,2.868-3.49
									v-11.313c0-1.697-1.206-3.168-2.868-3.497l-9.819-1.947c-0.356-0.071-0.648-0.327-0.764-0.671
									c-0.542-1.612-1.194-3.181-1.936-4.665c-0.162-0.326-0.138-0.714,0.065-1.017l5.567-8.321
									c0.945-1.41,0.761-3.303-0.437-4.503l-8.005-7.995c-1.198-1.204-3.091-1.39-4.5-0.445l-8.329,5.574
									c-0.302,0.203-0.693,0.227-1.019,0.063c-1.462-0.735-3.03-1.389-4.659-1.944c-0.342-0.117-0.596-0.407-0.667-0.762
									l-1.947-9.82c-0.331-1.662-1.803-2.868-3.499-2.868h-11.313c-1.692,0-3.16,1.206-3.491,2.869l-1.953,9.826
									c-0.07,0.356-0.326,0.647-0.67,0.764c-1.602,0.539-3.166,1.19-4.648,1.935c-0.326,0.164-0.714,0.14-1.019-0.063
									l-8.336-5.573c-1.406-0.944-3.299-0.758-4.502,0.443l-7.997,7.996c-1.197,1.198-1.383,3.092-0.442,4.504l5.572,8.319
									c0.203,0.303,0.227,0.692,0.065,1.018c-0.735,1.468-1.388,3.038-1.945,4.669c-0.117,0.342-0.408,0.597-0.763,0.667
									l-9.813,1.947c-1.66,0.33-2.867,1.801-2.867,3.497v11.313c0,1.698,1.205,3.166,2.864,3.49l9.825,1.955
									c0.356,0.071,0.647,0.327,0.763,0.671c0.537,1.596,1.188,3.163,1.936,4.658c0.162,0.326,0.139,0.714-0.065,1.017
									l-5.573,8.328c-0.938,1.407-0.751,3.301,0.445,4.503l7.995,7.995c1.202,1.194,3.097,1.381,4.503,0.443l8.335-5.573
									C817.995,402.587,818.192,402.53,818.388,402.53z"/>
							</g>
						</g>
						<g>
							<g>
								<circle style="fill:#FFFFFF;" cx="835.265" cy="369.557" r="20.515"/>
							</g>
							<g>
								<path style="fill:#010F2D;" d="M835.266,391.086c-11.871,0-21.53-9.658-21.53-21.529c0-11.871,9.658-21.529,21.53-21.529
									c11.87,0,21.528,9.658,21.528,21.529C856.794,381.428,847.136,391.086,835.266,391.086z M835.266,350.055
									c-10.754,0-19.503,8.748-19.503,19.502c0,10.754,8.749,19.502,19.503,19.502c10.754,0,19.501-8.748,19.501-19.502
									C854.767,358.803,846.019,350.055,835.266,350.055z"/>
							</g>
						</g>
					</g>
					<g>
						<g>
							<g>
								<path style="fill:#FFA58D;" d="M814.75,284.973v9.106c0,1.759-1.242,3.273-2.966,3.61l-7.911,1.573
									c-0.441,1.329-0.981,2.618-1.596,3.86l4.481,6.698c0.981,1.463,0.789,3.407-0.453,4.655l-6.442,6.436
									c-1.242,1.242-3.192,1.434-4.655,0.458l-6.703-4.486c-1.236,0.621-2.525,1.155-3.854,1.608l-1.567,7.899
									c-0.342,1.724-1.857,2.972-3.616,2.972h-9.106c-1.759,0-3.268-1.248-3.61-2.972l-1.573-7.905
									c-1.329-0.447-2.612-0.981-3.848-1.602l-6.709,4.486c-1.463,0.975-3.407,0.784-4.655-0.458l-6.436-6.436
									c-1.242-1.248-1.434-3.192-0.458-4.655l4.486-6.703c-0.621-1.242-1.155-2.525-1.602-3.854l-7.905-1.573
									c-1.724-0.337-2.966-1.851-2.966-3.61v-9.106c0-1.759,1.242-3.273,2.966-3.616l7.899-1.567
									c0.453-1.329,0.987-2.618,1.608-3.86l-4.486-6.698c-0.975-1.463-0.784-3.413,0.458-4.655l6.436-6.437
									c1.248-1.248,3.192-1.439,4.655-0.458l6.709,4.486c1.236-0.621,2.519-1.155,3.848-1.602l1.573-7.911
									c0.342-1.724,1.851-2.966,3.61-2.966h9.106c1.759,0,3.273,1.242,3.616,2.966l1.567,7.905
									c1.329,0.453,2.617,0.987,3.854,1.608l6.703-4.486c1.462-0.981,3.413-0.789,4.655,0.458l6.442,6.437
									c1.242,1.242,1.434,3.192,0.453,4.655l-4.481,6.698c0.621,1.242,1.155,2.53,1.602,3.86l7.905,1.567
									C813.508,281.699,814.75,283.214,814.75,284.973z"/>
							</g>
							<g>
								<path style="fill:#010F2D;" d="M779.468,330.374h-9.105c-2.232,0-4.168-1.593-4.605-3.787l-1.458-7.336
									c-0.987-0.353-1.955-0.755-2.89-1.202l-6.223,4.163c-1.86,1.237-4.351,0.993-5.934-0.583l-6.438-6.438
									c-1.576-1.583-1.821-4.078-0.586-5.932l4.164-6.221c-0.448-0.938-0.85-1.908-1.202-2.894l-7.335-1.46
									c-2.19-0.427-3.783-2.364-3.783-4.604v-9.106c0-2.236,1.592-4.175,3.783-4.611l7.331-1.454
									c0.36-0.999,0.764-1.97,1.206-2.898l-4.163-6.213c-1.241-1.862-0.994-4.358,0.585-5.936l6.437-6.437
									c1.582-1.583,4.08-1.829,5.935-0.584l6.223,4.162c0.936-0.447,1.903-0.849,2.889-1.202l1.46-7.341
									c0.436-2.192,2.373-3.783,4.605-3.783h9.105c2.237,0,4.176,1.591,4.61,3.783l1.454,7.337
									c0.999,0.36,1.968,0.764,2.894,1.205l6.219-4.162c1.858-1.245,4.355-1.002,5.935,0.586l6.442,6.435
									c1.581,1.581,1.824,4.078,0.578,5.936l-4.156,6.213c0.446,0.938,0.849,1.91,1.202,2.898l7.334,1.454
									c2.192,0.436,3.783,2.375,3.783,4.611v9.106c0,2.24-1.592,4.177-3.785,4.605l-7.335,1.458
									c-0.342,0.965-0.744,1.936-1.2,2.898l4.157,6.215c1.243,1.853,1,4.348-0.577,5.933l-6.445,6.439
									c-1.578,1.578-4.073,1.825-5.932,0.585l-6.22-4.163c-0.925,0.441-1.895,0.845-2.894,1.206l-1.454,7.331
									C783.643,328.781,781.703,330.374,779.468,330.374z M761.331,315.868c0.156,0,0.311,0.036,0.455,0.108
									c1.187,0.596,2.438,1.117,3.717,1.547c0.344,0.116,0.6,0.407,0.67,0.763l1.572,7.905c0.25,1.249,1.35,2.156,2.617,2.156
									h9.105c1.272,0,2.374-0.906,2.622-2.155l1.567-7.899c0.07-0.355,0.325-0.645,0.667-0.762
									c1.305-0.445,2.559-0.967,3.726-1.554c0.326-0.166,0.714-0.141,1.019,0.063l6.704,4.487c1.06,0.706,2.476,0.565,3.373-0.333
									l6.443-6.437c0.896-0.899,1.035-2.319,0.327-3.373l-4.481-6.699c-0.202-0.302-0.227-0.688-0.066-1.014
									c0.612-1.237,1.131-2.492,1.542-3.729c0.115-0.346,0.406-0.604,0.764-0.675l7.911-1.573c1.247-0.243,2.15-1.343,2.15-2.616
									v-9.106c0-1.272-0.904-2.374-2.15-2.622l-7.903-1.566c-0.356-0.071-0.648-0.327-0.764-0.671
									c-0.431-1.283-0.953-2.537-1.548-3.73c-0.162-0.325-0.138-0.713,0.065-1.016l4.481-6.697
									c0.709-1.058,0.57-2.477-0.327-3.375l-6.443-6.436c-0.899-0.904-2.319-1.044-3.372-0.334l-6.706,4.487
									c-0.302,0.203-0.692,0.228-1.019,0.063c-1.168-0.587-2.422-1.11-3.724-1.553c-0.343-0.117-0.598-0.407-0.668-0.762
									l-1.567-7.905c-0.248-1.246-1.35-2.15-2.622-2.15h-9.105c-1.268,0-2.369,0.905-2.617,2.151l-1.572,7.91
									c-0.07,0.356-0.326,0.647-0.67,0.764c-1.279,0.43-2.53,0.951-3.717,1.547c-0.326,0.163-0.714,0.141-1.019-0.063
									l-6.708-4.487c-1.055-0.709-2.475-0.569-3.375,0.333l-6.437,6.437c-0.897,0.898-1.037,2.318-0.333,3.377l4.486,6.695
									c0.203,0.303,0.227,0.691,0.065,1.018c-0.589,1.174-1.111,2.43-1.555,3.732c-0.116,0.343-0.408,0.597-0.763,0.668
									l-7.899,1.566c-1.246,0.247-2.15,1.35-2.15,2.622v9.106c0,1.273,0.903,2.373,2.147,2.615l7.908,1.574
									c0.356,0.071,0.647,0.327,0.763,0.671c0.43,1.278,0.952,2.531,1.548,3.723c0.162,0.327,0.139,0.715-0.065,1.018
									l-4.487,6.704c-0.702,1.054-0.561,2.475,0.335,3.375l6.435,6.435c0.9,0.895,2.32,1.033,3.376,0.332l6.707-4.486
									C760.938,315.926,761.134,315.868,761.331,315.868z"/>
							</g>
						</g>
						<g>
							<g>
								
									<ellipse transform="matrix(0.2298 -0.9732 0.9732 0.2298 315.0979 977.1927)" style="fill:#FFFFFF;" cx="774.917" cy="289.525" rx="16.514" ry="16.514"/>
							</g>
							<g>
								<path style="fill:#010F2D;" d="M774.917,307.052c-9.665,0-17.528-7.863-17.528-17.527c0-9.665,7.863-17.527,17.528-17.527
									c9.665,0,17.527,7.863,17.527,17.527C792.444,299.19,784.582,307.052,774.917,307.052z M774.917,274.024
									c-8.547,0-15.501,6.953-15.501,15.5c0,8.547,6.954,15.5,15.501,15.5c8.547,0,15.5-6.953,15.5-15.5
									C790.417,280.978,783.464,274.024,774.917,274.024z"/>
							</g>
						</g>
					</g>
				</g>
				<g>
					<g>
						<line style="fill:#142546;" x1="805.348" y1="486.72" x2="627.149" y2="621.091"/>
					</g>
					<g>
						<path style="fill:#010F2D;" d="M627.151,622.105c-0.307,0-0.611-0.139-0.81-0.403c-0.338-0.447-0.248-1.083,0.199-1.419
							l178.199-134.372c0.445-0.338,1.081-0.249,1.419,0.199c0.338,0.447,0.248,1.083-0.199,1.419L627.759,621.901
							C627.577,622.038,627.363,622.105,627.151,622.105z"/>
					</g>
				</g>
				<g>
					<g>
						<line style="fill:#142546;" x1="621.256" y1="495.348" x2="811.242" y2="612.464"/>
					</g>
					<g>
						<path style="fill:#010F2D;" d="M811.24,613.477c-0.181,0-0.364-0.049-0.53-0.15L620.725,496.211
							c-0.476-0.294-0.624-0.919-0.331-1.395c0.293-0.475,0.916-0.625,1.395-0.331L811.773,611.6
							c0.477,0.294,0.624,0.919,0.331,1.395C811.913,613.306,811.581,613.477,811.24,613.477z"/>
					</g>
				</g>
			</g>
			<g>
				<g>
					<path style="fill:#FFFFFF;" d="M617.487,231.075c0,8.677-2.904,16.658-7.792,23.057c-6.942,9.079-17.897,14.946-30.211,14.946
						c-12.313,0-23.269-5.867-30.199-14.958c-4.888-6.399-7.792-14.379-7.792-23.045c0-20.991,17.012-38.003,37.991-38.003
						C600.475,193.073,617.487,210.085,617.487,231.075z"/>
				</g>
				<g>
					<path style="fill:#010F2D;" d="M579.484,270.091c-12.265,0-23.566-5.597-31.005-15.357c-5.233-6.849-7.999-15.031-7.999-23.659
						c0-21.514,17.496-39.016,39.004-39.016c21.514,0,39.017,17.502,39.017,39.016c0,8.634-2.766,16.82-8.001,23.672
						C603.045,264.499,591.739,270.091,579.484,270.091z M579.484,194.086c-20.389,0-36.977,16.593-36.977,36.989
						c0,8.179,2.622,15.936,7.583,22.429c7.053,9.254,17.766,14.56,29.393,14.56c11.618,0,22.336-5.302,29.406-14.548
						c4.961-6.495,7.583-14.255,7.583-22.441C616.474,210.679,599.88,194.086,579.484,194.086z"/>
				</g>
			</g>
			<g>
				<g>
					<circle style="fill:#FFA58D;" cx="579.488" cy="217.14" r="11.115"/>
				</g>
				<g>
					<path style="fill:#010F2D;" d="M579.488,229.268c-6.687,0-12.129-5.441-12.129-12.129c0-6.687,5.442-12.128,12.129-12.128
						s12.129,5.441,12.129,12.128C591.617,223.827,586.175,229.268,579.488,229.268z M579.488,207.038
						c-5.57,0-10.102,4.532-10.102,10.101c0,5.57,4.532,10.102,10.102,10.102s10.102-4.532,10.102-10.102
						C589.589,211.57,585.057,207.038,579.488,207.038z"/>
				</g>
			</g>
			<g>
				<g>
					<path style="fill:#FFA58D;" d="M609.695,254.132c-6.942,9.079-17.897,14.946-30.211,14.946
						c-12.313,0-23.269-5.867-30.199-14.958c4.828-11.936,16.528-20.353,30.199-20.353
						C593.167,233.767,604.867,242.185,609.695,254.132z"/>
				</g>
				<g>
					<path style="fill:#010F2D;" d="M579.484,270.091c-12.265,0-23.566-5.597-31.005-15.357c-0.216-0.284-0.268-0.663-0.133-0.994
						c5.156-12.749,17.379-20.987,31.138-20.987c13.768,0,25.995,8.243,31.151,20.999c0.135,0.333,0.083,0.711-0.135,0.996
						C603.045,264.499,591.739,270.091,579.484,270.091z M550.447,253.965c7.054,8.969,17.603,14.099,29.037,14.099
						c11.425,0,21.978-5.127,29.05-14.089c-4.968-11.68-16.307-19.195-29.05-19.195C566.749,234.78,555.415,242.291,550.447,253.965
						z"/>
				</g>
			</g>
		</g>
	</g>
</g>
</svg>
