<?xml version="1.0" encoding="UTF-8"?><svg id="uuid-f337c86a-c034-4fc9-bc67-7aa96087441e" xmlns="http://www.w3.org/2000/svg" viewBox="0 0 458.41 335.57"><defs><style>.uuid-8efcaea3-ed44-4bac-8ced-1983a47688a5{fill:#282d33;}.uuid-34fafb0f-f04e-4aee-bb40-80cfa939cd60{fill:#0e74bb;}.uuid-f9579a4e-4402-4225-8109-42403234a69b{fill:#99b9ff;}.uuid-5bac0b30-ab20-494d-83e3-747f955f85ac{fill:#080717;}.uuid-ed3fc79c-492b-4e64-93e0-826b767deeff{fill:#1d1d1b;}</style></defs><rect class="uuid-34fafb0f-f04e-4aee-bb40-80cfa939cd60" x="97.1" y="84.96" width="280.67" height="171.37"/><path class="uuid-8efcaea3-ed44-4bac-8ced-1983a47688a5" d="M190.64,117.1l-47.03-20.9,7.83-17.63c-10.01-14.32-11.84-32.97-4.76-48.91h0c11.18-25.17,40.76-36.54,65.93-25.36,25.17,11.19,36.54,40.76,25.36,65.93-7.08,15.93-22.16,27.07-39.49,29.24l-7.83,17.63ZM147.62,94.65l41.47,18.43,7.31-16.44.87-.09c16.62-1.78,31.15-12.34,37.91-27.56,10.5-23.63-.18-51.4-23.81-61.91-23.63-10.5-51.4.18-61.91,23.82h0c-6.76,15.21-4.86,33.07,4.95,46.6l.51.71-7.31,16.44Z"/><path class="uuid-5bac0b30-ab20-494d-83e3-747f955f85ac" d="M175.86,110.21c-.19,0-.38-.04-.57-.11-.78-.31-1.15-1.2-.84-1.98.58-1.43,9.69-23.91,18.47-42.24-1.04-.19-2.05-.44-3.02-.74-3.03-.93-5.85-2.29-8.34-3.96-7.36,17.46-19.3,41.95-19.45,42.24-.37.76-1.28,1.07-2.03.7-.76-.37-1.07-1.28-.7-2.03.15-.3,12.4-25.42,19.68-42.8-3.6-3.02-6.27-6.78-7.57-10.88-1.55-4.87-.92-9.48,1.77-12.98,1.84-2.4,5.96-2.93,9.17-1.18,1.79.97,7.29,5.05,3.15,16.75-.75,2.11-1.71,4.59-2.83,7.31,2.36,1.67,5.09,3.01,8.04,3.92,1.11.34,2.29.6,3.51.8,4.2-8.59,8.23-15.9,11.07-19.12,2.26-2.56,8.52-3.71,13.19-1.35,2.43,1.22,6.27,4.41,4.66,11.97-.61,2.87-2.81,5.49-6.36,7.57-5.63,3.31-13.62,4.82-20.77,4.21-8.99,18.69-18.67,42.59-18.82,42.95-.24.59-.81.95-1.41.95ZM197.53,63.35c6.21.3,13.05-1.08,17.79-3.87,1.95-1.14,4.38-3.04,4.92-5.58.9-4.25-.12-7.15-3.05-8.62-3.42-1.72-8.22-.84-9.54.65-2.56,2.89-6.22,9.51-10.12,17.43ZM178.35,36.26c-1.18,0-2.21.39-2.7,1.02-2.06,2.69-2.52,6.31-1.28,10.2,1.04,3.28,3.1,6.31,5.89,8.84.95-2.34,1.78-4.49,2.43-6.34,2.28-6.46,1.65-11.22-1.74-13.06-.85-.46-1.77-.66-2.61-.66Z"/><path class="uuid-5bac0b30-ab20-494d-83e3-747f955f85ac" d="M142.77,103.78h35.91c3.39,0,6.13,2.75,6.13,6.13v28.96h-48.18v-28.96c0-3.39,2.75-6.13,6.13-6.13Z" transform="translate(258.32 297.47) rotate(-156.04)"/><rect class="uuid-5bac0b30-ab20-494d-83e3-747f955f85ac" x="160" y="89.8" width="4.67" height="52.3" transform="translate(-9.54 217.21) rotate(-66.04)"/><rect class="uuid-5bac0b30-ab20-494d-83e3-747f955f85ac" x="164.42" y="80.76" width="4.67" height="52.3" transform="translate(1.34 215.89) rotate(-66.04)"/><rect class="uuid-8efcaea3-ed44-4bac-8ced-1983a47688a5" x="430.48" y="95.23" width="3.29" height="55.71" transform="translate(-16.04 91.01) rotate(-11.81)"/><path class="uuid-f9579a4e-4402-4225-8109-42403234a69b" d="M47.63,180.84l390.65-87.38c6.54-1.31,13.57,5.85,15.69,15.98l3.84,18.35c2.12,10.13-1.47,19.41-8.01,20.72L59.13,235.89l-11.51-55.05Z"/><path class="uuid-5bac0b30-ab20-494d-83e3-747f955f85ac" d="M54.31,226.41c-.7,0-1.33-.48-1.48-1.19-.18-.82.33-1.63,1.15-1.82l390.65-87.38c.83-.18,1.64.33,1.82,1.15.18.82-.33,1.63-1.15,1.82L54.64,226.38c-.11.03-.22.04-.33.04Z"/><path class="uuid-5bac0b30-ab20-494d-83e3-747f955f85ac" d="M43.78,195.87c-.7,0-1.33-.48-1.48-1.19-.18-.82.33-1.63,1.15-1.82l390.65-87.38c.83-.18,1.63.33,1.82,1.15.18.82-.33,1.63-1.15,1.82L44.11,195.84c-.11.03-.22.04-.33.04Z"/><path d="M428.05,95.5l11.51,55.05,10.22-2.04c6.54-1.31,10.13-10.58,8.01-20.72l-3.84-18.35c-2.12-10.13-9.14-17.29-15.69-15.98l-10.22,2.04Z"/><polygon class="uuid-34fafb0f-f04e-4aee-bb40-80cfa939cd60" points="47.72 180.92 0 219.03 59.19 235.78 47.72 180.92"/><polygon class="uuid-ed3fc79c-492b-4e64-93e0-826b767deeff" points="28.98 227.23 23.36 200.37 0 219.03 28.98 227.23"/><path class="uuid-8efcaea3-ed44-4bac-8ced-1983a47688a5" d="M375.34,302.68H99.53c-6.08,0-11.03-4.95-11.03-11.03V87.16c0-6.08,4.95-11.03,11.03-11.03h275.82c6.08,0,11.03,4.95,11.03,11.03v204.49c0,6.08-4.95,11.03-11.03,11.03ZM99.53,79.17c-4.4,0-7.99,3.58-7.99,7.99v204.49c0,4.4,3.58,7.99,7.99,7.99h275.82c4.4,0,7.99-3.58,7.99-7.99V87.16c0-4.4-3.58-7.99-7.99-7.99H99.53Z"/><rect class="uuid-8efcaea3-ed44-4bac-8ced-1983a47688a5" x="90.01" y="261.59" width="294.84" height="3.04"/><rect class="uuid-8efcaea3-ed44-4bac-8ced-1983a47688a5" x="189.88" y="332.53" width="95.11" height="3.04"/><rect class="uuid-8efcaea3-ed44-4bac-8ced-1983a47688a5" x="207.38" y="300.76" width="3.04" height="33.29"/><rect class="uuid-8efcaea3-ed44-4bac-8ced-1983a47688a5" x="264.45" y="300.76" width="3.04" height="33.29"/><path class="uuid-5bac0b30-ab20-494d-83e3-747f955f85ac" d="M164.72,251.1h-11.02c-2.08,0-3.77-1.69-3.77-3.77v-11.02c0-2.08,1.69-3.77,3.77-3.77h11.02c2.08,0,3.77,1.69,3.77,3.77v11.02c0,2.08-1.69,3.77-3.77,3.77ZM153.71,235.58c-.4,0-.73.33-.73.73v11.02c0,.4.33.73.73.73h11.02c.4,0,.73-.33.73-.73v-11.02c0-.4-.33-.73-.73-.73h-11.02Z"/><path class="uuid-5bac0b30-ab20-494d-83e3-747f955f85ac" d="M187.07,251.1h-11.02c-2.08,0-3.77-1.69-3.77-3.77v-11.02c0-2.08,1.69-3.77,3.77-3.77h11.02c2.08,0,3.77,1.69,3.77,3.77v11.02c0,2.08-1.69,3.77-3.77,3.77ZM176.05,235.58c-.4,0-.73.33-.73.73v11.02c0,.4.33.73.73.73h11.02c.4,0,.73-.33.73-.73v-11.02c0-.4-.33-.73-.73-.73h-11.02Z"/><path class="uuid-5bac0b30-ab20-494d-83e3-747f955f85ac" d="M209.42,251.1h-11.02c-2.08,0-3.77-1.69-3.77-3.77v-11.02c0-2.08,1.69-3.77,3.77-3.77h11.02c2.08,0,3.77,1.69,3.77,3.77v11.02c0,2.08-1.69,3.77-3.77,3.77ZM198.4,235.58c-.4,0-.73.33-.73.73v11.02c0,.4.33.73.73.73h11.02c.4,0,.73-.33.73-.73v-11.02c0-.4-.33-.73-.73-.73h-11.02Z"/><path class="uuid-5bac0b30-ab20-494d-83e3-747f955f85ac" d="M231.77,251.1h-11.02c-2.08,0-3.77-1.69-3.77-3.77v-11.02c0-2.08,1.69-3.77,3.77-3.77h11.02c2.08,0,3.77,1.69,3.77,3.77v11.02c0,2.08-1.69,3.77-3.77,3.77ZM220.75,235.58c-.4,0-.73.33-.73.73v11.02c0,.4.33.73.73.73h11.02c.4,0,.73-.33.73-.73v-11.02c0-.4-.33-.73-.73-.73h-11.02Z"/><path class="uuid-5bac0b30-ab20-494d-83e3-747f955f85ac" d="M254.12,251.1h-11.02c-2.08,0-3.77-1.69-3.77-3.77v-11.02c0-2.08,1.69-3.77,3.77-3.77h11.02c2.08,0,3.77,1.69,3.77,3.77v11.02c0,2.08-1.69,3.77-3.77,3.77ZM243.1,235.58c-.4,0-.73.33-.73.73v11.02c0,.4.33.73.73.73h11.02c.4,0,.73-.33.73-.73v-11.02c0-.4-.33-.73-.73-.73h-11.02Z"/><path class="uuid-5bac0b30-ab20-494d-83e3-747f955f85ac" d="M276.47,251.1h-11.02c-2.08,0-3.77-1.69-3.77-3.77v-11.02c0-2.08,1.69-3.77,3.77-3.77h11.02c2.08,0,3.77,1.69,3.77,3.77v11.02c0,2.08-1.69,3.77-3.77,3.77ZM265.45,235.58c-.4,0-.73.33-.73.73v11.02c0,.4.33.73.73.73h11.02c.4,0,.73-.33.73-.73v-11.02c0-.4-.33-.73-.73-.73h-11.02Z"/><path class="uuid-5bac0b30-ab20-494d-83e3-747f955f85ac" d="M298.81,251.1h-11.02c-2.08,0-3.77-1.69-3.77-3.77v-11.02c0-2.08,1.69-3.77,3.77-3.77h11.02c2.08,0,3.77,1.69,3.77,3.77v11.02c0,2.08-1.69,3.77-3.77,3.77ZM287.8,235.58c-.4,0-.73.33-.73.73v11.02c0,.4.33.73.73.73h11.02c.4,0,.73-.33.73-.73v-11.02c0-.4-.33-.73-.73-.73h-11.02Z"/><path class="uuid-5bac0b30-ab20-494d-83e3-747f955f85ac" d="M321.16,251.1h-11.02c-2.08,0-3.77-1.69-3.77-3.77v-11.02c0-2.08,1.69-3.77,3.77-3.77h11.02c2.08,0,3.77,1.69,3.77,3.77v11.02c0,2.08-1.69,3.77-3.77,3.77ZM310.15,235.58c-.4,0-.73.33-.73.73v11.02c0,.4.33.73.73.73h11.02c.4,0,.73-.33.73-.73v-11.02c0-.4-.33-.73-.73-.73h-11.02Z"/></svg>