<?xml version="1.0" encoding="UTF-8"?><svg id="uuid-9cd43576-0109-4d10-af23-a72b64bae876" xmlns="http://www.w3.org/2000/svg" viewBox="0 0 882.6 796.21"><defs><style>.uuid-98dbb8fc-34ba-4c95-ae70-7dd2745ff367{fill:#0e74bb;}.uuid-b203fad1-49af-4fab-b5f7-5a96dd5453a0{fill:#fff;}.uuid-673524ef-2ada-40c3-b34f-7b3787b0e8ba{fill:#080717;}</style></defs><polygon class="uuid-98dbb8fc-34ba-4c95-ae70-7dd2745ff367" points="606.43 410.55 467.14 395.04 327.85 379.52 373.39 310.51 418.92 241.49 512.68 326.02 606.43 410.55"/><path class="uuid-98dbb8fc-34ba-4c95-ae70-7dd2745ff367" d="M17.29,159.07C79.32-1.65,345.67-40.12,420.92,41.56c75.25,81.68,117.7,170.35,81.52,366.59-27.95,151.6-106.44,250.97-256.86,240.19-108.51-7.78-180.39-98.26-209.48-154.66-.04-.07-.07-.14-.11-.21-8.57-16.39-14.75-33.93-17.68-52.19l-6.72-41.85s-29.54-149.04,5.7-240.36Z"/><path class="uuid-673524ef-2ada-40c3-b34f-7b3787b0e8ba" d="M393.18,20.79C319.54-18.11,177.13-2.44,86.58,68.46l7.58,113.54,102.97,90.06,215.59-63.36-19.56-187.91Z"/><path class="uuid-b203fad1-49af-4fab-b5f7-5a96dd5453a0" d="M318.74,175.96c-8.8-41.06,28.38-80.03,78.22-82.33.29-.01.58-.03.87-.04-.03,3.78,67.95,488.91,72.36,585.98-.12.03-.25.05-.37.08.04,4.83-.02,9.67-.3,14.5,1.9-.1-3.21,53.85-9.09,60.7-.57,1.07-5.07-1.61-5.08-1.6-2.56-1.94-2.28-7.56-1.9-10.75,2.18-13.99,2.95-27.92,2.36-41.65-2.18,22.32-7.91,44.46-17.12,65.82-1.39,3.21-5.26,3.87-6.34,1.22-.26-.64-.53-1.27-.79-1.9-1.29-3.03-1.44-6.68-.51-10.3,4.45-17.11,6.59-34.29,6.55-51.22-4.26,22.08-12.2,43.52-23.56,63.7-1.59,2.82-5.36,2.98-6.2.37-.6-1.8-2.05-4.98-.1-11.24,4.66-8.99,13.68-52.66,12.23-52.78-4.22,12.23-9.63,23.99-16.11,35.17-1.39,2.39-4.21,3.06-5.91,1.26-3.18-3.35-1.95-9.37-1.06-13.16,5.7-23.46,6.49-47.45,2.37-70.87-.05,2-6.29,24.18-14.15,25.1-3.51.57-9.48-1.27-8.47-4.18,3.41-9.96,5.49-20.44,7.21-31.24.16-1.31.4-2.61.68-3.9,3.4-18.24,9.06-29.2,15.71-36.61-21.6-106.79-60.48-332.11-81.5-430.15Z"/><path class="uuid-673524ef-2ada-40c3-b34f-7b3787b0e8ba" d="M410.48,773.55c-.22,0-.45-.01-.67-.04-2.36-.24-4.26-1.78-4.98-4.01l-.13-.37c-.73-2.1-2.09-6,.02-12.77.05-.18.12-.35.21-.51,1.97-3.8,4.79-14.31,7.2-24.81-1.75,3.46-3.61,6.88-5.56,10.24-1.23,2.13-3.31,3.55-5.55,3.81-2.02.24-3.98-.48-5.38-1.97-4.49-4.73-2.7-12.37-1.84-16.04,4.51-18.57,5.91-37.33,4.17-55.95-2.88,6.71-7.1,13.4-12.51,14.04-3.34.53-8.51-.55-10.83-3.3-1.23-1.47-1.59-3.31-.99-5.05,3.59-10.51,5.59-21.42,7.08-30.7.16-1.29.41-2.68.71-4.06,2.98-15.99,8.03-28.09,15.4-36.85-9.66-47.89-22.47-117.72-36.03-191.61-16.5-89.95-33.57-182.97-45.15-236.98h0c-3.89-18.15.63-36.79,12.72-52.47,15.27-19.81,40.85-32.39,68.44-33.67l.88-.04c.94-.04,1.7.29,2.32.88.62.6.97,1.43.96,2.29.11,1.33,2.99,22.63,6.99,52.09,16.91,124.66,61.83,455.81,65.37,533.72.03.58-.11,1.13-.36,1.62.01,4.69-.07,8.72-.28,12.53,1.53,7.49-3.87,55.54-9.72,63.13-.47.67-1.15,1.16-1.97,1.39-1.21.35-2.9.35-7.13-2.05h0c-.15-.08-.3-.17-.44-.28-2.49-1.88-3.62-5.52-3.37-10.84-2.4,7.76-5.24,15.43-8.51,22.99-1.24,2.86-3.96,4.77-6.78,4.77h-.07c-2.37-.03-4.4-1.41-5.3-3.61-.25-.62-.51-1.24-.78-1.86-1.54-3.62-1.78-8-.66-12.32,1.52-5.85,2.78-11.75,3.76-17.66-4.05,11.1-9.05,21.95-14.97,32.48-1.35,2.38-3.77,3.83-6.3,3.83ZM410.82,767.54h0s0,0,0,0ZM410.67,758.47c-1.4,4.63-.57,7.01-.02,8.59l.04.12c.18-.08.41-.25.59-.57,11.2-19.92,19.01-41.03,23.21-62.75.3-1.6,1.78-2.69,3.39-2.54,1.62.15,2.85,1.51,2.86,3.13.04,17.38-2.19,34.88-6.65,52.03-.77,2.98-.64,5.91.36,8.27.22.5.43,1.01.64,1.52.22-.13.5-.4.7-.86,9.04-20.95,14.72-42.78,16.88-64.88.16-1.62,1.52-2.85,3.14-2.85.03,0,.06,0,.09,0,1.66.04,2.99,1.36,3.06,3.01.6,14.02-.2,28.24-2.39,42.28-.61,5.04.18,7.18.6,7.67.69.38,1.23.66,1.65.85,4.3-9.06,8.61-49.52,7.92-55.87-.27-.51-.4-1.09-.37-1.67.25-4.26.34-8.81.3-14.3,0-.49.11-.96.31-1.39-3.99-80.16-48.45-407.89-65.25-531.73-4.2-30.99-6-44.26-6.68-49.66-24.95,1.7-47.9,13.23-61.67,31.1-10.94,14.2-15.04,31-11.55,47.3h0c11.6,54.11,28.68,147.17,45.19,237.17,13.7,74.64,26.63,145.14,36.32,193.01.2.98-.08,1.99-.75,2.73-7.15,7.96-12.04,19.43-14.96,35.08-.27,1.28-.5,2.5-.65,3.72-1.5,9.42-3.51,20.36-7.09,31.1.95.52,3.1,1.09,4.72.82,4.88-.58,11.08-18.3,11.52-22.19.17-1.56,1.47-2.83,3.04-2.88,1.67-.05,2.94.98,3.21,2.53,4.21,23.94,3.4,48.21-2.41,72.15-.56,2.37-1.87,7.97.28,10.24.14.05.56-.08.9-.67,6.42-11.07,11.75-22.72,15.86-34.62.47-1.36,1.85-2.22,3.22-2.12,1.06.08,2.08.75,2.59,1.67,2.23,4.01-8.59,47.99-12.12,55.41ZM457.64,753.36h0ZM469.67,697.3s-.05,0-.08,0c.03,0,.06,0,.08,0ZM379.62,678.87s0,0,0,0t0,0Z"/><path class="uuid-673524ef-2ada-40c3-b34f-7b3787b0e8ba" d="M413.72,650.62c-1.16,0-2.28-.64-2.83-1.76-.77-1.56-.13-3.45,1.43-4.22,12.87-6.36,15.38-28.26,15.4-28.48.19-1.73,1.72-2.99,3.47-2.79,1.73.18,2.98,1.74,2.8,3.46-.11,1.04-2.88,25.56-18.88,33.46-.45.22-.92.33-1.39.33Z"/><path class="uuid-b203fad1-49af-4fab-b5f7-5a96dd5453a0" d="M185.4,188.22c1.17-41.98-42.5-73.51-91.92-66.69-.29.04-.57.08-.86.12.72,3.72,22.34,493.1,35.7,589.35.13,0,.26,0,.38.01.84,4.76,1.79,9.5,2.94,14.21-1.89.25,12.98,52.36,20,58.03.76.95,4.69-2.5,4.7-2.5,2.17-2.37.87-7.85-.1-10.92-4.69-13.36-7.99-26.92-9.91-40.53,6.21,21.55,15.88,42.28,28.84,61.6,1.96,2.91,5.88,2.85,6.45.04.14-.67.29-1.35.43-2.02.72-3.21.2-6.83-1.38-10.22-7.49-16.01-12.73-32.51-15.78-49.17,8.22,20.93,19.93,40.57,34.78,58.34,2.08,2.48,5.81,1.96,6.16-.76.26-1.88,1.11-5.27-1.95-11.07-6.22-7.99-23.06-49.29-21.65-49.66,6.38,11.25,13.84,21.84,22.25,31.64,1.8,2.1,4.7,2.24,6.04.16,2.52-3.88.21-9.57-1.36-13.13-9.88-22.03-15.04-45.47-15.25-69.25.42,1.95,10.6,22.63,18.49,22.1,3.55-.08,9.09-2.98,7.56-5.65-5.17-9.18-9.12-19.1-12.79-29.4-.4-1.26-.87-2.49-1.38-3.71-6.67-17.31-14.23-27.06-22.12-33.13,1.76-108.94-1.09-337.57,1.7-437.8Z"/><path class="uuid-673524ef-2ada-40c3-b34f-7b3787b0e8ba" d="M178.94,796.21c-2.42,0-4.87-1.33-6.36-3.56-4.59-6.85-8.79-13.89-12.57-21.08,1.23,5.22.78,9-1.32,11.3-.12.13-.25.25-.39.36-3.54,2.95-5.18,3.46-6.64,3.31-.84-.09-1.6-.44-2.18-1.01-7.14-6.39-21.21-52.65-21.07-60.3-.9-3.74-1.74-7.74-2.59-12.45-.33-.39-.55-.85-.62-1.35-10.73-77.27-26.95-411.14-33.05-536.82-1.44-29.63-2.48-51.04-2.65-52.53-.19-1.7,1-3.32,2.7-3.55l.83-.12c27.38-3.77,54.83,3.93,73.45,20.62,14.75,13.22,22.59,30.72,22.07,49.28-1.53,55.21-1.35,149.76-1.18,241.2.14,75.14.27,146.15-.49,195.01,8.85,7.27,16.02,18.25,21.89,33.5.51,1.23,1.01,2.54,1.44,3.88,3.12,8.77,7.08,19.14,12.53,28.82.91,1.59.89,3.46-.06,5.13-1.77,3.13-6.67,5.15-10.18,5.22-5.25.34-10.69-5.43-14.72-11.49,1.7,18.62,6.48,36.79,14.29,54.19,1.53,3.47,4.68,10.66,1.12,16.14-1.1,1.71-2.9,2.77-4.92,2.91-2.26.13-4.55-.87-6.15-2.73-2.53-2.95-4.98-5.98-7.34-9.06,4.29,9.89,8.98,19.71,11.61,23.09.12.14.22.3.3.46,3.32,6.27,2.69,10.37,2.35,12.56l-.06.41c-.29,2.29-1.89,4.15-4.16,4.81-2.67.78-5.63-.18-7.54-2.46-7.74-9.28-14.64-19.04-20.65-29.22,2.05,5.64,4.36,11.21,6.92,16.68,1.89,4.04,2.46,8.39,1.6,12.24-.14.65-.29,1.3-.42,1.97-.48,2.33-2.22,4.06-4.55,4.52-.41.08-.82.12-1.24.12ZM146.35,726.15c1.38,0,2.63.91,3.03,2.28,6.15,21.33,15.72,41.76,28.43,60.72.28.41.6.62.84.71.12-.54.23-1.07.35-1.61.56-2.5.15-5.41-1.16-8.2-7.5-16.03-12.89-32.83-16.02-49.94-.29-1.6.68-3.15,2.23-3.6,1.56-.45,3.21.37,3.8,1.88,8.08,20.59,19.61,39.92,34.26,57.47.23.28.49.4.68.45l.02-.12c.26-1.66.64-4.15-1.58-8.45-4.82-6.66-23.48-47.93-22.02-52.28.34-1,1.22-1.84,2.24-2.11,1.4-.37,2.85.25,3.55,1.49,6.21,10.95,13.58,21.43,21.9,31.15.44.51.89.56.97.54,1.74-2.68-.58-7.95-1.57-10.19-10.07-22.45-15.3-46.18-15.52-70.48-.01-1.62,1.2-2.98,2.81-3.16,1.62-.2,3.09.89,3.43,2.48,1.1,3.6,10.26,19.62,15.06,19.62.05,0,.09,0,.14,0,1.76-.04,3.79-.99,4.63-1.68-5.48-9.89-9.45-20.28-12.61-29.18-.41-1.27-.85-2.42-1.32-3.56-5.75-14.93-12.66-25.32-21.14-31.84-.79-.61-1.25-1.56-1.23-2.55.79-48.85.66-120.55.51-196.45-.17-91.48-.35-186.08,1.19-241.39h0c.46-16.67-6.63-32.44-19.98-44.4-16.8-15.06-41.45-22.23-66.31-19.33.31,5.42.96,18.76,2.48,49.91,6.07,124.93,22.14,455.65,32.83,534.99.27.35.46.74.54,1.17.96,5.42,1.88,9.86,2.9,14,.14.57.12,1.16-.06,1.71.48,6.37,12.09,45.37,17.97,53.49.38-.27.86-.63,1.47-1.14.32-.57.71-2.82-.84-7.75-4.68-13.31-8.06-27.15-10.02-41.03-.23-1.64.84-3.18,2.46-3.52.22-.05.44-.07.66-.07ZM202.73,786.7h0s0,0,0,0ZM132.07,728.34s0,0-.01,0c0,0,0,0,.01,0ZM132.08,728.34h0,0ZM132.09,728.33s0,0,0,0c0,0,0,0,0,0ZM132.1,728.33h0,0ZM132.11,728.33s0,0,0,0c0,0,0,0,0,0ZM132.12,728.33h0,0ZM132.13,728.33h0ZM217.25,693.81s0,0,0,0c0,0,0,0,0,0Z"/><ellipse class="uuid-673524ef-2ada-40c3-b34f-7b3787b0e8ba" cx="346.6" cy="317.33" rx="46.93" ry="43.62" transform="translate(-71.84 103.46) rotate(-15.4)"/><path class="uuid-673524ef-2ada-40c3-b34f-7b3787b0e8ba" d="M192.78,495.65c-32.23,0-55.46-14.91-64.79-30.93-6.01-10.33-6.21-20.94-.55-29.09,2.02-2.9,5.24-6.61,8.97-10.91,14.39-16.55,36.12-41.55,25.28-60.25-11.69-20.16-13.99-40.17-6.66-57.87,8.67-20.94,27.97-33.03,38.1-35.72h0c24.27-6.46,41.06-4.69,44.9,4.75,16.51,40.52-11.74,186.35-28.25,213.47-2.4,3.93-4.7,5.88-7.24,6.1-3.34.3-6.6.45-9.77.45ZM218.25,273.37c-6.09,0-14,1.07-23.49,3.6h0c-9.63,2.56-26.51,14.2-33.9,32.04-6.64,16.05-4.53,33.64,6.29,52.3,13.1,22.6-10.42,49.65-25.98,67.55-3.61,4.16-6.73,7.74-8.55,10.37-4.21,6.06-3.91,14.2.82,22.32,9.23,15.88,34.02,30.49,68.55,27.38,4.6-1.92,16.81-35.67,26.45-91.6,7.53-43.69,12.47-97.97,3.77-119.32-1.14-2.8-5.98-4.64-13.95-4.64ZM193.96,273.92h.03-.03Z"/><path class="uuid-673524ef-2ada-40c3-b34f-7b3787b0e8ba" d="M182.53,257.14c-17.97,8.96-60.28,54.39-17.77,102.52,21.14,23.94-17.38,71.27-25.66,88.29-12.83,26.38,30.2,59.24,89.93,40.49,17.16-5.39,26.96-196.58-.06-238.44-4.59-7.11-21.98-5.05-46.44,7.14Z"/><circle class="uuid-673524ef-2ada-40c3-b34f-7b3787b0e8ba" cx="211.25" cy="505.39" r="60.76" transform="translate(-336.48 510.93) rotate(-67.89)"/><path class="uuid-673524ef-2ada-40c3-b34f-7b3787b0e8ba" d="M205.99,575.03c-8.14,0-16.28-1.58-24.05-4.73-15.81-6.43-28.18-18.62-34.83-34.35-13.71-32.46,1.55-70.03,34.01-83.74,32.46-13.7,70.03,1.55,83.74,34.01,6.64,15.72,6.76,33.09.34,48.91-6.42,15.82-18.62,28.18-34.35,34.82-8,3.38-16.42,5.07-24.86,5.07ZM205.91,453.48c-7.46,0-15.04,1.46-22.33,4.54-29.26,12.35-43.01,46.22-30.66,75.48,5.99,14.18,17.14,25.17,31.39,30.96,14.25,5.79,29.91,5.69,44.08-.31,14.18-5.98,25.17-17.13,30.96-31.39,5.79-14.26,5.68-29.91-.3-44.09h0c-9.28-21.97-30.67-35.19-53.14-35.19Z"/><circle class="uuid-673524ef-2ada-40c3-b34f-7b3787b0e8ba" cx="191.88" cy="456.46" r="38.59" transform="translate(-164.09 112.29) rotate(-23.17)"/><path class="uuid-673524ef-2ada-40c3-b34f-7b3787b0e8ba" d="M170.7,457.55c21.99,22.66,59.57,66.68,87.93,62.94,31.02-4.1,96.65-40.56,61.59-90.16-8.21-10.75-22.54-17.56-32.01-25.23-14.71-11.93-15.25-24.45-7.4-55.96,7.86-31.51,19.78-46.27.02-76.71-15.92-24.53-58.07-30.37-72.47-25.84-46.92,14.76-51,87.8-45.65,108.2,5.35,20.4,25.5,21.64,22.54,43.54-1.86,13.76-10.43,36.04-14.56,59.24Z"/><path class="uuid-673524ef-2ada-40c3-b34f-7b3787b0e8ba" d="M300.47,528.98c-32.23,0-55.46-14.91-64.79-30.93-6.01-10.33-6.21-20.94-.55-29.09,2.02-2.9,5.24-6.61,8.97-10.91,14.39-16.55,36.12-41.55,25.28-60.25-11.69-20.16-13.99-40.17-6.66-57.88,8.67-20.94,27.97-33.03,38.1-35.72h0c24.27-6.46,41.06-4.69,44.9,4.75,16.5,40.51-11.74,186.35-28.25,213.47-2.4,3.94-4.7,5.88-7.24,6.11-3.34.3-6.6.45-9.77.45ZM325.93,306.69c-6.09,0-14,1.07-23.48,3.6h0c-9.63,2.56-26.51,14.2-33.9,32.04-6.65,16.05-4.53,33.65,6.29,52.3,13.1,22.59-10.42,49.64-25.98,67.54-3.61,4.16-6.73,7.74-8.55,10.37-4.21,6.06-3.91,14.2.82,22.33,9.24,15.88,34.03,30.49,68.55,27.38,4.6-1.92,16.81-35.67,26.45-91.6,7.53-43.69,12.47-97.97,3.77-119.32-1.14-2.8-5.98-4.64-13.96-4.64ZM301.64,307.25h.03-.03Z"/><path class="uuid-673524ef-2ada-40c3-b34f-7b3787b0e8ba" d="M290.21,290.47c-17.97,8.96-60.28,54.39-17.76,102.52,21.14,23.94-17.38,71.27-25.66,88.29-12.83,26.38,30.2,59.24,89.93,40.49,17.16-5.39,26.96-196.58-.06-238.44-4.59-7.11-21.98-5.05-46.44,7.14Z"/><circle class="uuid-673524ef-2ada-40c3-b34f-7b3787b0e8ba" cx="318.94" cy="538.72" r="60.76" transform="translate(-300.2 631.48) rotate(-67.89)"/><path class="uuid-673524ef-2ada-40c3-b34f-7b3787b0e8ba" d="M313.67,608.36c-8.14,0-16.29-1.58-24.06-4.73-15.81-6.43-28.18-18.62-34.82-34.35-6.64-15.72-6.76-33.09-.34-48.91,6.43-15.82,18.62-28.18,34.35-34.82,15.73-6.64,33.1-6.76,48.91-.34,15.82,6.42,28.18,18.62,34.83,34.35h0c13.71,32.46-1.55,70.03-34.01,83.74-8,3.38-16.42,5.07-24.85,5.07ZM313.66,486.78c-7.6,0-15.19,1.53-22.41,4.57-14.17,5.98-25.17,17.13-30.96,31.39-5.79,14.26-5.68,29.91.3,44.09,5.99,14.17,17.13,25.17,31.39,30.96,14.25,5.79,29.91,5.68,44.09-.3,29.26-12.35,43.01-46.22,30.66-75.48-5.99-14.17-17.13-25.17-31.39-30.96-7-2.84-14.35-4.26-21.68-4.26Z"/><circle class="uuid-673524ef-2ada-40c3-b34f-7b3787b0e8ba" cx="299.57" cy="489.79" r="38.59" transform="translate(-266.95 583.02) rotate(-67.89)"/><path class="uuid-673524ef-2ada-40c3-b34f-7b3787b0e8ba" d="M278.39,490.88c21.99,22.66,59.57,66.68,87.93,62.94,31.02-4.1,96.65-40.56,61.59-90.16-8.21-10.75-22.54-17.56-32.01-25.23-14.71-11.93-15.25-24.45-7.4-55.96,7.86-31.51,19.78-46.27.02-76.71-15.92-24.53-58.07-30.37-72.47-25.84-46.92,14.76-51,87.8-45.65,108.2,5.35,20.4,25.5,21.64,22.54,43.54-1.86,13.76-10.43,36.04-14.56,59.24Z"/><path class="uuid-b203fad1-49af-4fab-b5f7-5a96dd5453a0" d="M360.06,192.91h0c-6.37-7.2-15.08-11.9-24.58-13.27l-32.57-4.71c-6.54-.95-13.22-.28-19.45,1.95l-73.12,26.11c-14.01,5-24.15,17.28-26.42,31.98v.06s2.68,47.1,2.68,47.1c-13.13,4.25-20.72,18.11-17.02,31.54,3.56,12.9,16.25,20.83,29.17,18.72l.96,3.66,41.12,30.25c11.4,8.39,25.63,11.98,39.64,10.02l48.43-6.78c11.98-1.68,23.06-7.32,31.46-16.02h0c16.37-16.94,23.09-41,17.87-63.98l-7.8-34.32-.19-35.65c-.05-9.83-3.67-19.3-10.19-26.66Z"/><path class="uuid-673524ef-2ada-40c3-b34f-7b3787b0e8ba" d="M272.86,380c-12.15,0-23.95-3.85-33.9-11.17l-41.12-30.25c-.58-.42-.99-1.04-1.18-1.74l-.27-1.02c-13.55.91-26.15-7.88-29.85-21.31-3.92-14.23,3.39-28.92,16.78-34.53l-2.56-44.78c-.01-.25,0-.5.04-.74,2.45-15.84,13.36-29.05,28.47-34.45l73.12-26.11c6.69-2.38,13.94-3.11,20.96-2.1l32.57,4.71c10.23,1.48,19.64,6.56,26.49,14.31h0c7.02,7.94,10.91,18.14,10.98,28.73l.19,35.3,7.72,33.98c5.48,24.1-1.51,49.1-18.68,66.87-8.85,9.16-20.68,15.18-33.29,16.95l-48.43,6.79c-2.69.38-5.38.56-8.05.56ZM202.48,334.16l40.22,29.59c10.8,7.95,24.06,11.31,37.34,9.44l48.43-6.78c11.23-1.57,21.75-6.93,29.63-15.08,15.69-16.24,22.07-39.08,17.07-61.09l-7.8-34.32c-.05-.22-.08-.45-.08-.68l-.19-35.65c-.05-9.07-3.39-17.8-9.39-24.59-5.86-6.63-13.92-10.98-22.68-12.24l-32.57-4.71c-6.01-.86-12.22-.25-17.94,1.79l-73.12,26.11c-12.85,4.59-22.15,15.78-24.32,29.24l2.67,46.76c.08,1.43-.81,2.74-2.18,3.18-11.63,3.77-18.19,15.94-14.95,27.71,3.1,11.26,14.12,18.32,25.63,16.44,1.6-.25,3.14.74,3.56,2.31l.68,2.58Z"/><path class="uuid-673524ef-2ada-40c3-b34f-7b3787b0e8ba" d="M227.19,289.91c-1.39-5.05,1.58-10.28,6.63-11.67,5.05-1.39,10.28,1.58,11.67,6.63,1.39,5.05-1.58,10.28-6.63,11.67-5.05,1.39-10.28-1.58-11.67-6.63Z"/><path class="uuid-673524ef-2ada-40c3-b34f-7b3787b0e8ba" d="M326.73,268.29c-1.39-5.05,1.58-10.28,6.63-11.67,5.05-1.39,10.28,1.58,11.67,6.63,1.39,5.05-1.58,10.28-6.63,11.67-5.05,1.39-10.28-1.58-11.67-6.63Z"/><path class="uuid-673524ef-2ada-40c3-b34f-7b3787b0e8ba" d="M263.09,250.08c-.89,0-1.75-.38-2.36-1.06-.8-.9-1.01-2.17-.56-3.28l11.72-28.59c1.98-4.84,6.18-8.56,11.23-9.95,4.53-1.25,9.44-.55,13.44,1.92,4.01,2.47,6.84,6.53,7.77,11.15l3.43,17.13c.34,1.71-.76,3.37-2.47,3.71-.34.07-33.71,6.76-41.36,8.87-.28.07-.56.11-.84.11ZM287.67,212.88c-.96,0-1.92.13-2.88.39-3.18.88-5.82,3.22-7.07,6.27l-9.38,22.87c9.71-2.21,25.85-5.5,32.61-6.87l-2.81-14.05c-.59-2.95-2.33-5.44-4.89-7.02-1.72-1.06-3.63-1.6-5.58-1.6Z"/><path class="uuid-673524ef-2ada-40c3-b34f-7b3787b0e8ba" d="M328.34,357.72c-1.58,0-2.93-1.18-3.13-2.78-.2-1.73,1.03-3.29,2.76-3.5.17-.02,16.77-2.14,28.3-14.39,1.2-1.27,3.19-1.32,4.46-.14,1.27,1.2,1.33,3.19.14,4.46-13.15,13.97-31.39,16.24-32.16,16.33-.12.01-.25.02-.37.02Z"/><path class="uuid-673524ef-2ada-40c3-b34f-7b3787b0e8ba" d="M240.6,367.61c-7.99,0-17.09-1.37-25.43-5.87-1.53-.83-2.1-2.74-1.27-4.27.83-1.53,2.73-2.11,4.27-1.27,18.41,9.94,42.24,2.24,42.48,2.16,1.67-.55,3.44.35,3.98,2,.55,1.65-.35,3.44-2,3.98-.65.21-10.09,3.27-22.03,3.27Z"/><path class="uuid-98dbb8fc-34ba-4c95-ae70-7dd2745ff367" d="M339.7,325.53c-20.72,0-39.78-13.77-45.55-34.69h0c-3.35-12.16-1.77-24.9,4.46-35.87,6.23-10.97,16.36-18.85,28.52-22.2,12.16-3.36,24.9-1.77,35.87,4.46s18.86,16.36,22.21,28.52c6.92,25.11-7.88,51.16-32.98,58.07-4.18,1.15-8.39,1.7-12.53,1.7ZM339.75,237.36c-3.65,0-7.32.49-10.93,1.49-10.54,2.9-19.32,9.74-24.72,19.24-5.4,9.5-6.77,20.54-3.87,31.08h0c5.99,21.75,28.58,34.58,50.32,28.59,21.75-6,34.58-28.57,28.59-50.32-2.9-10.54-9.74-19.32-19.24-24.72-6.25-3.55-13.15-5.36-20.15-5.36Z"/><path class="uuid-98dbb8fc-34ba-4c95-ae70-7dd2745ff367" d="M240.24,352.92c-8.07,0-16.04-2.09-23.25-6.18-10.97-6.23-18.86-16.36-22.21-28.52-3.35-12.16-1.77-24.9,4.46-35.87,6.23-10.97,16.36-18.86,28.52-22.21,25.11-6.93,51.16,7.88,58.07,32.98,6.92,25.11-7.88,51.16-32.98,58.07-4.17,1.15-8.41,1.72-12.62,1.72ZM240.3,264.75c-3.59,0-7.23.48-10.86,1.47-10.54,2.9-19.32,9.74-24.72,19.24-5.4,9.51-6.77,20.54-3.87,31.08h0c2.9,10.54,9.74,19.32,19.24,24.72,9.51,5.4,20.54,6.77,31.08,3.87,21.75-5.99,34.58-28.57,28.59-50.32-5-18.13-21.51-30.06-39.47-30.06Z"/><path class="uuid-98dbb8fc-34ba-4c95-ae70-7dd2745ff367" d="M282.81,297.12c-1.38,0-2.65-.92-3.03-2.31-.46-1.68.52-3.41,2.2-3.88l14.38-3.96c1.68-.45,3.41.53,3.88,2.2.46,1.68-.53,3.41-2.2,3.88l-14.38,3.96c-.28.08-.56.11-.84.11Z"/><path class="uuid-673524ef-2ada-40c3-b34f-7b3787b0e8ba" d="M177.99,672.29c-.29,0-.57-.04-.86-.12-17.17-4.85-24.37-28.46-24.66-29.46-.5-1.67.45-3.42,2.12-3.92,1.67-.49,3.42.45,3.92,2.12.06.21,6.52,21.28,20.34,25.19,1.68.48,2.65,2.22,2.18,3.89-.39,1.39-1.66,2.3-3.03,2.3Z"/><path d="M514.78,497.55c.98-13.28,3.9-22.96,8.76-29.01,4.51-5.6,9.32-9.03,14.44-10.28l1.17-.29c11.29-2.3,20.4,1.13,27.32,10.28,6.92,9.15,12.52,21.34,16.78,36.56,1.51,5.42,2.93,10.86,4.26,16.32,2.43,9.97,4.62,20.05,6.56,30.24,1.91,9.73,3.84,18.73,5.76,26.98.33,2.86-1.55,5.3-5.66,7.31-2.28,1.2-4.63,2.1-7.06,2.69-2,.49-4.65.81-7.96.98-3.31.17-5.46-1.01-6.44-3.53-1.25-5.11-2.73-12.1-4.43-20.97-2.06-11.44-4.53-23.43-7.4-35.95l-.86-3.51c-2.67-10.92-5.68-20.06-9.04-27.42-3.45-7.7-7.29-11.04-11.54-10l-.78.19c-5.28,2.85-8.43,9.13-9.45,18.85-1.03,9.71-.83,20.85.58,33.41,1.41,12.57,3.21,24.42,5.38,35.56,2.17,11.14,3.93,19.48,5.29,25.03.33,2.12-.86,4.02-3.57,5.7-2.56,1.54-5.58,2.74-9.05,3.59-.26.06-1.46.33-3.59.81-2.14.47-4.8.48-7.99.02-3.19-.46-5.06-1.82-5.61-4.07-4.91-25.35-11.23-53.9-18.98-85.63-.51-2.08-3.02-12.26-7.53-30.55-4.51-18.28-11.67-40.33-21.46-66.15l-.13-.52c-.8-3.3.67-6.46,4.43-9.49,3.3-2.64,6.95-4.45,10.94-5.43.86-.21,2.78-.54,5.75-.99,2.97-.45,5.37,1.21,7.21,4.99,1.24,3.56,3.41,10.65,6.51,21.29,3.1,10.64,6.32,21.93,9.65,33.89,3.33,11.96,5.91,21.66,7.73,29.12Z"/><path d="M612.92,419.15c3.52-2.15,6.97-3.63,10.35-4.46,6.07-1.48,12.53-.23,19.38,3.74,6.85,3.98,12.94,11.24,18.27,21.79,3.36,6.62,5.87,13.31,7.52,20.08,1,4.08,1.87,9.9,2.61,17.48.75,7.58-1.06,14.48-5.42,20.69-3.33,3.66-8.64,6.93-15.93,9.82-6.23,2.35-11.55,4.06-15.97,5.14l-2.34.57c2.39,9.8,5.36,17.83,8.91,24.08,3.55,6.26,7.31,9.63,11.29,10.13.37,0,.72-.04,1.07-.12,2.34-.57,4.04-3.03,5.09-7.38,1.05-4.34,1.4-9.14,1.04-14.38-.36-5.24-.67-8.93-.91-11.08.05-1.67,1.87-3.08,5.44-4.23.76-.27,1.57-.52,2.44-.73,1.99-.49,4.25-.67,6.76-.55,2.51.12,4.01,1.18,4.5,3.17.35,15.72-1.31,28.23-4.96,37.53-3.65,9.3-9.57,15.09-17.74,17.36-9.73,2.28-18.21.47-25.44-5.43-7.23-5.91-13.32-14.27-18.26-25.1-3.87-8.7-7.01-17.99-9.43-27.88-.59-2.43-1.15-4.91-1.68-7.44-2.47-11.61-3.85-22.9-4.13-33.86-.29-10.95.94-20.71,3.67-29.29,2.73-8.57,7.35-15.12,13.87-19.65ZM646.79,489.57c1.81-2,2.22-6.15,1.24-12.43-.4-2.75-.95-5.6-1.67-8.55-.91-3.73-2.38-8.42-4.4-14.08-2.03-5.66-4.55-10.92-7.58-15.79-2.81-4.37-5.35-6.28-7.6-5.72l-.52.13c-2.37,1.59-3.73,5.9-4.08,12.92-.35,7.02-.05,15.13.91,24.31.95,9.19,2.28,17.8,3.97,25.84,1.86-.27,4.18-.75,6.96-1.42.87-.21,2.58-.63,5.14-1.26,2.56-.62,5.11-1.94,7.65-3.94Z"/><path d="M659.42,376.51l-.1-.39c-.87-3.56.79-6.72,4.99-9.49,2.95-1.82,6.08-3.14,9.38-3.94,1.73-.42,4.38-.77,7.94-1.04,3.56-.27,6.12,1.47,7.69,5.22,1.86,7.26,3.86,15.23,5.97,23.9,4.93,20.21,10.56,44.19,16.88,71.95,8.06,35.24,15.93,68.6,23.61,100.08.37,3.03-1.72,5.56-6.27,7.6-2,.85-4.04,1.54-6.12,2.05-2.69.66-6,1.01-9.94,1.05-3.94.04-6.43-1.51-7.48-4.65-5.37-28-11.96-59.51-19.78-94.54-1.61-6.96-3.25-13.86-4.92-20.71-6.63-27.14-13.92-52.83-21.85-77.08Z"/><path d="M705.98,365.14l-.1-.39c-.87-3.56.79-6.72,4.99-9.49,2.95-1.82,6.08-3.14,9.37-3.94,1.73-.42,4.38-.77,7.95-1.04,3.56-.27,6.12,1.47,7.69,5.22,1.86,7.26,3.86,15.23,5.97,23.9,4.93,20.21,10.56,44.19,16.88,71.95,8.06,35.24,15.93,68.6,23.61,100.08.37,3.03-1.72,5.56-6.28,7.6-2,.85-4.04,1.54-6.12,2.05-2.69.66-6,1-9.94,1.05-3.94.04-6.43-1.51-7.47-4.65-5.37-28-11.96-59.51-19.78-94.54-1.61-6.96-3.25-13.86-4.92-20.71-6.63-27.14-13.92-52.83-21.86-77.08Z"/><path d="M852.25,529.52c-1.35.51-2.67.93-3.97,1.24-9.89,2.41-19.52.59-28.9-5.48-9.39-6.07-17.86-15.66-25.43-28.79-7.57-13.12-13.46-27.76-17.68-43.92l-.51-2.08c-3.77-15.43-5.52-30.76-5.24-45.99.28-15.23,3.33-28.49,9.16-39.79,5.83-11.3,14.9-18.64,27.22-22.01,10.73-2.34,20.69-.11,29.89,6.69,9.19,6.8,17.27,16.62,24.21,29.44,6.94,12.82,12.3,26.95,16.07,42.38,3.79,15.52,5.63,30.78,5.53,45.78-.1,15-2.57,28.12-7.41,39.36-4.84,11.24-12.48,18.97-22.94,23.17ZM814.06,369.2c-6.25,3.37-10.19,10.46-11.82,21.29-1.63,10.83-1.51,23.27.37,37.33,1,7.47,2.37,14.77,4.1,21.88,1.55,6.33,3.97,14.26,7.26,23.79,3.29,9.53,7.86,18.18,13.71,25.94,5.93,7.74,12.06,10.83,18.39,9.29l.13-.03c7.42-2.73,12.26-9.61,14.53-20.64,2.27-11.03,2.53-23.86.79-38.51-1-8.21-2.45-16.22-4.35-24.02-1.5-6.15-3.95-14.1-7.34-23.84-3.39-9.74-8.39-18.35-14.99-25.83-5.66-6.61-11.65-9.14-17.98-7.6-.95.23-1.89.55-2.8.96Z"/><polygon class="uuid-673524ef-2ada-40c3-b34f-7b3787b0e8ba" points="467.69 220.28 636.02 135.02 671.34 170.03 467.69 220.28"/><polygon class="uuid-673524ef-2ada-40c3-b34f-7b3787b0e8ba" points="487.13 253.76 604.44 246.39 599.36 290.93 487.13 253.76"/><polygon class="uuid-673524ef-2ada-40c3-b34f-7b3787b0e8ba" points="459.32 184.07 510.06 110.92 528.12 137.55 459.32 184.07"/></svg>