<?xml version="1.0" encoding="UTF-8"?><svg id="uuid-b0fb6a68-cd4d-49eb-ab6d-d6f268e4f415" xmlns="http://www.w3.org/2000/svg" viewBox="0 0 417 379.79"><defs><style>.uuid-f2443ba3-6af7-4304-b6bc-faf8c696d011{fill:#0e74bb;}.uuid-175c2c12-7fd7-466b-a7b2-eeae9f53001a{fill:#080717;}.uuid-de8ce342-9714-4b7b-b666-a25432831109{fill:#1d1d1b;}</style></defs><polygon class="uuid-f2443ba3-6af7-4304-b6bc-faf8c696d011" points="203.81 272.54 314.2 379.79 304.57 204.14 417 135.73 271.42 116.26 209.29 0 166.58 130.55 0 130.41 123.36 216.22 75.09 352.99 203.81 272.54"/><path class="uuid-de8ce342-9714-4b7b-b666-a25432831109" d="M83.41,214.58s-31.79-101.16,15.9-51.08c15.66,16.44-12.12,16.84-12.12,16.84,0,0,20.64-26.95,44.74-22.04,24.1,4.91-16.35,37.78-48.52,56.29Z"/><path class="uuid-175c2c12-7fd7-466b-a7b2-eeae9f53001a" d="M5.5,283.38c-1.11,0-2.19-.54-2.84-1.51-.94-1.39-.73-3.25.48-4.4l47.69-45.19c-33.15-24.69-47.38-61.61-34.67-90.99,7.83-18.09,24.57-30.97,47.12-36.27,22.18-5.21,47.42-2.44,71.07,7.8,49.16,21.29,76.13,68.69,60.12,105.67h0c-15.45,35.68-64.83,48.98-112.88,30.63L6.91,283.08c-.46.21-.94.31-1.42.31ZM86.09,109.31c-7.29,0-14.43.79-21.24,2.39-20.39,4.79-35.45,16.27-42.4,32.33-11.83,27.33,2.84,62.32,35.69,85.08.85.59,1.39,1.53,1.47,2.56.08,1.03-.31,2.04-1.06,2.75l-35.85,33.97,57.38-26.08c.85-.38,1.81-.41,2.68-.07,45,17.76,91.32,6.15,105.44-26.45h0c14.51-33.52-10.86-76.88-56.56-96.66-14.98-6.49-30.61-9.81-45.54-9.81Z"/><polygon class="uuid-175c2c12-7fd7-466b-a7b2-eeae9f53001a" points="197.41 135.37 271.09 78.25 290.39 96.1 197.41 135.37"/><polygon class="uuid-175c2c12-7fd7-466b-a7b2-eeae9f53001a" points="220.02 163.22 282.11 134.39 289.14 156.94 220.02 163.22"/><polygon class="uuid-175c2c12-7fd7-466b-a7b2-eeae9f53001a" points="190.8 115.39 209.56 71.4 220.07 85.46 190.8 115.39"/><path d="M108.58,84.97c-1.25,0-2.4-.68-3-1.78l-7.69-14.06-14.06-7.69c-1.1-.6-1.78-1.75-1.78-3s.68-2.4,1.78-3l14.06-7.69,7.69-14.06c1.2-2.2,4.81-2.2,6.01,0l7.69,14.05,14.06,7.69c1.1.6,1.78,1.75,1.78,3s-.68,2.4-1.78,3l-14.06,7.69-7.69,14.05c-.6,1.1-1.75,1.78-3,1.78ZM92.61,58.44l9.44,5.17c.58.31,1.05.79,1.36,1.36l5.17,9.44,5.17-9.44c.31-.58.79-1.05,1.36-1.36l9.45-5.17-9.45-5.17c-.58-.31-1.05-.79-1.36-1.36l-5.17-9.44-5.17,9.44c-.31.58-.79,1.05-1.36,1.36l-9.44,5.17Z"/></svg>