<?xml version="1.0" encoding="UTF-8"?><svg id="uuid-e9a28f6c-30bb-4c64-b869-95a550a4f52c" xmlns="http://www.w3.org/2000/svg" viewBox="0 0 467 360.56"><defs><style>.uuid-171d7811-3f33-45ea-80a3-9c4a220014cf{fill:#0e74bb;}.uuid-a251b72e-352b-4c34-aca9-80b7106c3891{fill:#99b9ff;}.uuid-22aea203-c265-409f-a157-6b5a07e80708{fill:#fff;}.uuid-be72c041-1d38-4a32-b3fc-ba5bb7dfda33{fill:#080717;}</style></defs><path d="M61.67,360.56c-2.28,0-4.49-.69-6.4-2.02-2.47-1.73-4.12-4.32-4.64-7.29L18.25,164.34c-.35-2.03,0-4.07.99-5.74,1.04-1.75,2.64-2.9,4.52-3.22l308.71-56.43c3.8-.65,7.48,2.3,8.22,6.59l32.42,187.08c1.05,6.04-3.01,11.86-9.04,12.96l-300.36,54.81c-.68.12-1.36.19-2.04.19ZM333.56,101.97c-.18,0-.35.01-.53.05L24.31,158.45c-.98.17-1.82.79-2.39,1.74-.61,1.03-.83,2.32-.6,3.62l32.39,186.91c.37,2.15,1.56,4.02,3.35,5.26,1.79,1.25,3.95,1.72,6.09,1.33l300.36-54.81c4.36-.79,7.29-4.99,6.53-9.36l-32.42-187.08c-.41-2.37-2.17-4.09-4.07-4.09Z"/><path d="M39.96,168.66c.33,1.88-.93,3.67-2.82,4-1.88.33-3.67-.93-4-2.82-.33-1.88.94-3.67,2.82-4,1.88-.33,3.67.94,4,2.82Z"/><path d="M49.96,166.93c.33,1.88-.94,3.67-2.82,4-1.88.33-3.67-.93-3.99-2.82-.33-1.88.93-3.67,2.81-4,1.88-.33,3.67.94,4,2.82Z"/><path d="M59.97,165.2c.33,1.88-.93,3.67-2.81,4-1.88.33-3.67-.93-4-2.82-.33-1.88.94-3.67,2.82-4,1.88-.33,3.67.94,3.99,2.82Z"/><polygon class="uuid-171d7811-3f33-45ea-80a3-9c4a220014cf" points="378.46 122.76 256.48 194.76 376.03 65.1 378.46 122.76"/><ellipse class="uuid-171d7811-3f33-45ea-80a3-9c4a220014cf" cx="364.71" cy="72.67" rx="103.24" ry="69.4" transform="translate(-5.72 105.47) rotate(-16.33)"/><path class="uuid-a251b72e-352b-4c34-aca9-80b7106c3891" d="M300.87,297.79l-36.33-44.11c-13.92-16.9-34.02-27.53-55.82-29.51l-45.78-4.16c-11.41,4.15-85.04,26.96-85.04,26.96l-33.8,57.36,8.08,46.65c.92,5.29,5.97,8.82,11.26,7.86l220.05-40.16,17.38-20.89Z"/><path class="uuid-171d7811-3f33-45ea-80a3-9c4a220014cf" d="M245.67,51.48c-.65,0-1.26-.41-1.48-1.07l-6.31-19.05-7.69,18.53c-.33.79-1.24,1.17-2.03.85-.79-.32-1.18-1.22-.86-2.02l7.41-18.65-17.8,9.25c-.76.4-1.7.1-2.1-.65-.4-.76-.12-1.7.64-2.1l17.66-9.52-19.59-4.36c-.84-.19-1.37-1.01-1.19-1.85.18-.84,1-1.37,1.84-1.2l19.65,4.06-12.2-15.93c-.52-.68-.4-1.65.28-2.18.68-.53,1.65-.41,2.18.26l12.44,15.74.89-20.05c.04-.86.76-1.52,1.62-1.49.86.03,1.53.75,1.5,1.6l-.58,20.06,13.57-14.78c.58-.63,1.56-.68,2.2-.1.63.57.69,1.55.12,2.19l-13.34,14.99,19.9-2.61c.85-.1,1.63.48,1.75,1.33.12.85-.47,1.63-1.32,1.76l-19.85,2.91,16.92,10.79c.72.46.94,1.42.48,2.14-.45.73-1.41.95-2.14.5l-17.08-10.53,6.02,19.14c.26.82-.19,1.69-1.01,1.95-.16.05-.32.08-.48.08Z"/><polygon points="378.22 193.04 375.82 191.06 377.08 189.53 379.34 179.06 369.64 183.1 368.38 184.62 365.98 182.64 367.73 180.52 383.65 173.88 379.97 190.93 378.22 193.04"/><polygon points="322.84 260.19 320.44 258.2 375.32 191.8 367.71 185.3 312.87 251.66 310.47 249.67 367.33 180.87 379.67 191.42 322.84 260.19"/><rect x="301.27" y="219.71" width="86.42" height="3.12" transform="translate(-45.57 345.72) rotate(-50.41)"/><path d="M315.8,266.87c-1.61,0-3.15-.57-4.39-1.62l-4.03-3.45c-2.79-2.38-3.16-6.63-.82-9.46l4.37-5.29,14.31,12.24-4.23,5.11c-1.16,1.41-2.81,2.27-4.63,2.43-.2.02-.4.03-.6.03ZM311.33,251.49l-2.35,2.85c-1.26,1.53-1.06,3.81.44,5.1l4.03,3.45c.75.64,1.7.95,2.69.86.98-.09,1.87-.55,2.5-1.31l2.27-2.75-9.57-8.19Z"/><path class="uuid-be72c041-1d38-4a32-b3fc-ba5bb7dfda33" d="M158.2,121.54c-27.99,0-55.13-2.62-64.18-6.32-2.54-1.04-3.89-2.18-4.25-3.59-5.73-22.55,1.56-40.7,11.33-48.69,5.67-4.64,12.04-5.79,17.49-3.16,1.97.95,4.58,2.57,7.59,4.45,11.75,7.32,29.52,18.38,40.23,9.64,11.2-9.13,23.22-12.51,34.76-9.76,13.66,3.25,22.94,13.86,25.58,19.79h0c6.31,14.16,6.93,24.52,1.67,27.71-11.83,7.18-41.47,9.94-70.22,9.94ZM92.79,110.86s.38.85,3.82,1.99c21.38,7.13,108.4,9.3,130.19-3.92,2.92-1.77,3.25-9.97-2.9-23.78-2.57-5.78-11.55-15.19-23.45-18.02-10.71-2.55-21.5.53-32.07,9.14-12.44,10.15-31.35-1.62-43.85-9.41-2.94-1.83-5.47-3.41-7.29-4.28-4.31-2.07-9.48-1.07-14.17,2.77-9,7.36-15.68,24.29-10.28,45.51h0Z"/><path class="uuid-be72c041-1d38-4a32-b3fc-ba5bb7dfda33" d="M234.56,75.8c-7.32-10.23-39.59-31.89-65.14-.84-12.71,15.44-45.78-3.7-57.12-7.13-17.58-5.33-33.64,24.53-16.14,59.6,5.03,10.08,124.2-2.77,147.41-23.62,3.94-3.54.95-14.09-9.01-28Z"/><circle class="uuid-be72c041-1d38-4a32-b3fc-ba5bb7dfda33" cx="83.92" cy="118.11" r="38.04" transform="translate(-50.96 171.03) rotate(-76.03)"/><path class="uuid-be72c041-1d38-4a32-b3fc-ba5bb7dfda33" d="M79.94,155.01c-13.22,0-26.15-6.6-33.66-18.61-11.57-18.52-5.91-43,12.61-54.56,18.52-11.57,43-5.91,54.57,12.61,11.57,18.52,5.91,43-12.61,54.57-6.51,4.06-13.75,6-20.91,6ZM79.82,78.95c-6.6,0-13.27,1.78-19.27,5.53-17.06,10.66-22.28,33.21-11.62,50.27,10.66,17.06,33.21,22.28,50.27,11.62,17.06-10.66,22.28-33.21,11.62-50.27-6.91-11.07-18.83-17.15-31-17.15Z"/><path class="uuid-be72c041-1d38-4a32-b3fc-ba5bb7dfda33" d="M125.06,121.79c-11.32,7.07-26.22,3.62-33.29-7.7-7.07-11.32-3.62-26.22,7.7-33.29,11.32-7.07,26.22-3.62,33.29,7.7,7.07,11.32,3.62,26.22-7.7,33.29Z"/><path class="uuid-be72c041-1d38-4a32-b3fc-ba5bb7dfda33" d="M109.49,88.31c-11.83,15.84-35.33,43.43-30.21,60.59,5.6,18.77,34.64,55.74,61.84,29.16,5.84-6.14,8.63-15.67,12.44-22.29,5.92-10.27,13.61-11.85,33.87-10.11,20.26,1.74,30.57,7.65,47.43-7.58,13.59-12.27,13.03-38.91,8.81-47.36-13.76-27.55-59.33-22.85-71.41-17.52-12.08,5.33-10.86,17.91-24.69,18.24-8.69.21-23.31-2.88-38.06-3.14Z"/><path class="uuid-22aea203-c265-409f-a157-6b5a07e80708" d="M147.59,228.57l22.2,35.14c5.89,9.32,20,7.42,23.21-3.12l25.16-82.53-49.55-15.72-21.02,66.23Z"/><path class="uuid-be72c041-1d38-4a32-b3fc-ba5bb7dfda33" d="M180.61,271.28c-4.92,0-9.45-2.47-12.15-6.73l-22.19-35.15c-.25-.39-.31-.87-.17-1.3l21.01-66.23c.12-.39.4-.72.77-.91.37-.19.8-.23,1.19-.1l49.55,15.72c.81.26,1.27,1.12,1.02,1.94l-25.16,82.53c-1.67,5.47-6.22,9.34-11.89,10.1-.67.09-1.33.13-1.99.13ZM149.29,228.35l21.81,34.53c2.39,3.79,6.64,5.76,11.08,5.18,4.44-.6,8.01-3.63,9.32-7.92l24.71-81.05-46.6-14.79-20.32,64.05Z"/><path class="uuid-be72c041-1d38-4a32-b3fc-ba5bb7dfda33" d="M159.14,201.5l12.43-39.16,46.59,14.78-13.3,41.92c-16.57,1.33-33.52-4.64-45.71-17.54Z"/><path class="uuid-be72c041-1d38-4a32-b3fc-ba5bb7dfda33" d="M231.26,75.11l7.84,9.87c18.28,22.99,19.24,54.57,2.34,76.58l-20.4,26.58c-7.63,9.93-22.2,11.43-32.72,3.37l-40.38-30.95,83.31-85.44Z"/><path class="uuid-be72c041-1d38-4a32-b3fc-ba5bb7dfda33" d="M202.46,84.43l-14.55-1.03c-33.91-2.39-64.08,15.45-73.17,43.26l-10.98,33.58c-4.1,12.55,4.39,26.19,19.08,30.63l56.36,17.03,23.27-123.47Z"/><path class="uuid-22aea203-c265-409f-a157-6b5a07e80708" d="M115.94,138.03c2.42-8.15,10.99-12.79,19.15-10.37l.26.08c6.75-23.44,24.38-40.16,45.06-40.16,22.87,0,42,20.46,46.82,47.85,7.11.31,13.29,5.55,14.5,12.85h0c1.39,8.39-4.27,16.32-12.66,17.71l-2.64.44c-5.89,25.38-24.26,43.9-46.02,43.9-23.78,0-43.51-22.12-47.33-51.14l-6.77-2.01c-8.15-2.42-12.79-11-10.37-19.15Z"/><path class="uuid-be72c041-1d38-4a32-b3fc-ba5bb7dfda33" d="M180.4,211.89c-24.05,0-44.42-21.59-48.73-51.49l-5.8-1.73c-4.34-1.29-7.92-4.19-10.08-8.18-2.16-3.98-2.63-8.57-1.34-12.91h0c1.29-4.34,4.2-7.92,8.18-10.08,3.61-1.95,7.71-2.53,11.67-1.66,7.42-23.89,25.8-39.83,46.12-39.83,23.05,0,42.71,19.66,48.14,47.95,7.39.88,13.49,6.61,14.72,14.05,1.53,9.22-4.72,17.97-13.94,19.51l-1.62.27c-6.42,26.01-25.75,44.09-47.29,44.09ZM130.7,128.58c-5.96,0-11.49,3.89-13.27,9.9h0c-1.05,3.54-.67,7.28,1.09,10.53,1.76,3.25,4.68,5.62,8.23,6.67l6.77,2.01c.59.18,1.02.68,1.1,1.29,3.79,28.85,23.04,49.79,45.78,49.79,20.37,0,38.67-17.56,44.5-42.69.14-.61.64-1.08,1.26-1.19l2.64-.44c7.53-1.25,12.63-8.39,11.38-15.92-1.07-6.41-6.55-11.27-13.03-11.55-.73-.03-1.34-.57-1.47-1.29-4.75-26.98-23.79-46.56-45.28-46.56-19.33,0-36.83,15.69-43.56,39.03-.12.4-.39.74-.75.94-.36.2-.79.25-1.19.13l-.26-.08c-1.31-.39-2.63-.57-3.94-.57ZM115.94,138.03h.02-.02Z"/><path class="uuid-be72c041-1d38-4a32-b3fc-ba5bb7dfda33" d="M159.29,91.11c6.56-4.34,13.94-6.79,21.74-6.79,23.55,0,43.24,22.23,48.2,51.98,1.56.07,3.06.4,4.49.92-27.69,1.4-55.93-16.42-74.43-46.11Z"/><path class="uuid-be72c041-1d38-4a32-b3fc-ba5bb7dfda33" d="M215.35,142.97c-.05,0-.1,0-.15,0-22.34-2.2-43.29-19.9-54.68-46.2-.34-.79.02-1.71.81-2.05.8-.34,1.71.02,2.05.81,10.94,25.26,30.91,42.25,52.13,44.34.86.08,1.48.85,1.4,1.7-.08.8-.76,1.41-1.55,1.41Z"/><path class="uuid-be72c041-1d38-4a32-b3fc-ba5bb7dfda33" d="M168.8,120.38c-.49,0-.98-.23-1.28-.67-5.47-7.82-8.7-17.13-9.59-27.66-.07-.86.56-1.61,1.42-1.68.85-.07,1.61.56,1.68,1.42.84,9.97,3.88,18.77,9.04,26.13.49.71.32,1.68-.38,2.17-.27.19-.58.28-.89.28Z"/><path class="uuid-be72c041-1d38-4a32-b3fc-ba5bb7dfda33" d="M133.72,148.7c-.09,0-.17,0-.26-.02-.85-.14-1.42-.94-1.28-1.79.86-5.17-3.32-7.8-3.49-7.91-.73-.45-.97-1.41-.52-2.14.45-.73,1.39-.97,2.13-.53.25.15,6.17,3.8,4.96,11.1-.13.76-.79,1.3-1.54,1.3Z"/><path class="uuid-be72c041-1d38-4a32-b3fc-ba5bb7dfda33" d="M228.96,155.57c-.77,0-1.44-.57-1.54-1.35-.04-.29-.86-7.2,5.61-10.78.75-.42,1.7-.14,2.12.61.42.75.14,1.7-.61,2.12-4.59,2.54-4.05,7.45-4.02,7.66.1.85-.5,1.63-1.35,1.74-.07,0-.13.01-.2.01Z"/><path class="uuid-a251b72e-352b-4c34-aca9-80b7106c3891" d="M196.49,166.11c-10.22,0-18.53-8.31-18.53-18.53s8.31-18.53,18.53-18.53,18.53,8.31,18.53,18.53-8.31,18.53-18.53,18.53ZM196.49,132.17c-8.5,0-15.41,6.91-15.41,15.41s6.92,15.41,15.41,15.41,15.41-6.91,15.41-15.41-6.92-15.41-15.41-15.41Z"/><path class="uuid-a251b72e-352b-4c34-aca9-80b7106c3891" d="M156.68,166.11c-10.22,0-18.53-8.31-18.53-18.53s8.31-18.53,18.53-18.53,18.53,8.31,18.53,18.53-8.31,18.53-18.53,18.53ZM156.68,132.17c-8.5,0-15.41,6.91-15.41,15.41s6.92,15.41,15.41,15.41,15.41-6.91,15.41-15.41-6.91-15.41-15.41-15.41Z"/><path class="uuid-a251b72e-352b-4c34-aca9-80b7106c3891" d="M178.43,150.82h-3.47c-.86,0-1.56-.7-1.56-1.56s.7-1.56,1.56-1.56h3.47c.86,0,1.56.7,1.56,1.56s-.7,1.56-1.56,1.56Z"/><path class="uuid-be72c041-1d38-4a32-b3fc-ba5bb7dfda33" d="M197.15,148.77c-.22,3.12-2,5.53-3.99,5.39-1.98-.14-3.42-2.78-3.2-5.89.22-3.12,2-5.53,3.99-5.39,1.98.14,3.42,2.78,3.2,5.89Z"/><path class="uuid-be72c041-1d38-4a32-b3fc-ba5bb7dfda33" d="M165.3,148.38c0,3.12-1.61,5.66-3.6,5.66s-3.6-2.53-3.6-5.66,1.61-5.66,3.6-5.66,3.6,2.53,3.6,5.66Z"/><path class="uuid-be72c041-1d38-4a32-b3fc-ba5bb7dfda33" d="M181.26,191.32c-.72,0-1.37-.5-1.52-1.24-.18-.84.36-1.67,1.2-1.85,8.97-1.89,13.37-8.51,13.41-8.58.47-.72,1.43-.93,2.15-.46.72.47.93,1.43.47,2.15-.2.32-5.1,7.77-15.39,9.94-.11.02-.22.03-.32.03Z"/><path class="uuid-be72c041-1d38-4a32-b3fc-ba5bb7dfda33" d="M175.58,173.15c-.12,0-.23-.01-.35-.04-2.09-.48-3.89-1.83-4.93-3.7-1.04-1.87-1.25-4.11-.56-6.14l3.88-11.45c.28-.82,1.16-1.25,1.98-.98.81.28,1.25,1.16.98,1.98l-3.88,11.45c-.41,1.21-.29,2.5.33,3.61.62,1.12,1.66,1.89,2.9,2.18.84.19,1.36,1.03,1.17,1.87-.17.72-.81,1.21-1.52,1.21Z"/><path class="uuid-22aea203-c265-409f-a157-6b5a07e80708" d="M111.06,289.14l17.96-34.25,6.49-11.57c1.91-3.41.03-7.85-3.82-8.56-4.38-.81-8.84.78-11.72,4.14l-10.99,12.82c-3.55,4.14-9.92,4.22-13.57.18l-.37-.41c-6.29-6.96-10.77-15.35-13.06-24.45l-9.15-36.39c-1.04-4.15-4.97-7.13-9.21-6.57-4.89.64-8.08,5.27-7.1,9.97l9.05,43.21-18.66-49.44c-1.52-4.03-5.8-6.54-9.97-5.48-4.8,1.22-7.43,6.22-5.89,10.78l16.42,48.61-20.66-32.04c-2.63-4.07-8.11-5.14-12.07-2.36h0c-3.64,2.55-4.7,7.47-2.45,11.3l21.65,36.88-19.66-20.94c-2.87-3.06-7.72-3.09-10.63-.07h0c-2.63,2.73-2.75,7.01-.28,9.88l28.32,32.93,14.86,22.38c5.84,8.8,15.44,14.38,25.97,15.11h0l11.62,39.68,54.62-9.68-27.67-55.67Z"/><path d="M84.11,356.04c-.68,0-1.3-.45-1.5-1.12l-11.32-38.66c-10.53-1.06-20.21-6.88-26.08-15.72l-14.8-22.3L2.17,245.39c-3.02-3.5-2.87-8.66.34-11.98,1.7-1.76,3.97-2.72,6.4-2.72.02,0,.04,0,.06,0,2.46.02,4.74,1.01,6.43,2.81l10.12,10.79-14.6-24.87c-2.64-4.5-1.37-10.37,2.9-13.37,2.27-1.59,5.02-2.18,7.73-1.65,2.72.53,5.04,2.11,6.55,4.44l13.85,21.48-12.4-36.7c-.88-2.61-.63-5.49.68-7.91,1.33-2.45,3.57-4.19,6.3-4.88,4.88-1.24,9.96,1.53,11.82,6.44l11.55,30.6-4.92-23.5c-.56-2.69.03-5.51,1.62-7.75,1.61-2.27,4.03-3.72,6.81-4.09,4.95-.64,9.65,2.68,10.93,7.74l9.15,36.39c2.22,8.82,6.61,17.04,12.71,23.79l.37.41c1.42,1.57,3.44,2.47,5.55,2.47.03,0,.07,0,.1,0,2.15-.03,4.19-.98,5.59-2.61l10.98-12.82c3.24-3.78,8.28-5.57,13.19-4.66,2.27.42,4.14,1.88,5.13,4,1.03,2.19.94,4.75-.24,6.85l-6.49,11.57-17.56,33.51,27.32,54.95c.22.44.22.96,0,1.4-.22.44-.64.75-1.12.83l-54.62,9.68c-.09.02-.18.02-.27.02ZM8.91,233.81c-1.58,0-3.06.63-4.16,1.77-2.08,2.16-2.18,5.51-.22,7.78l28.32,32.93s.08.1.12.15l14.86,22.38c5.54,8.34,14.8,13.73,24.78,14.42.65.04,1.2.49,1.39,1.12l11.22,38.34,51.19-9.07-26.74-53.8c-.22-.45-.22-.98.02-1.42l17.96-34.25,6.51-11.61c.69-1.22.74-2.72.14-4-.56-1.2-1.61-2.03-2.88-2.26-3.8-.7-7.73.69-10.25,3.62l-10.98,12.82c-1.98,2.31-4.87,3.66-7.91,3.7-3.09.02-5.96-1.23-8-3.49l-.37-.41c-6.44-7.12-11.08-15.81-13.42-25.12l-9.15-36.39c-.87-3.47-4.16-5.84-7.5-5.4-1.91.25-3.57,1.24-4.67,2.8-1.09,1.53-1.49,3.47-1.11,5.31l9.05,43.21c.17.8-.31,1.59-1.09,1.82-.79.23-1.61-.18-1.9-.95l-18.66-49.44c-1.27-3.37-4.85-5.36-8.13-4.52-1.88.48-3.41,1.67-4.33,3.35-.9,1.66-1.07,3.64-.47,5.42l16.42,48.61c.25.75-.09,1.56-.8,1.9-.71.34-1.56.1-1.99-.56l-20.66-32.04c-1.04-1.61-2.64-2.7-4.52-3.06-1.88-.37-3.78.04-5.34,1.14-2.95,2.07-3.83,6.13-2.01,9.23l21.65,36.88c.4.69.23,1.56-.41,2.04-.63.47-1.53.4-2.07-.18l-19.66-20.94c-1.09-1.17-2.58-1.81-4.17-1.83h-.04Z"/><path class="uuid-22aea203-c265-409f-a157-6b5a07e80708" d="M73.74,297.68l-.24-6.09c-.46-11.46,3.28-22.7,10.5-31.61h0l-10.26,37.7Z"/><path d="M73.73,299.24c-.83,0-1.52-.66-1.56-1.5l-.24-6.09c-.48-11.85,3.38-23.44,10.85-32.65.54-.67,1.52-.77,2.19-.23.67.54.77,1.52.23,2.19-6.99,8.62-10.6,19.47-10.16,30.56l.24,6.09c.04.86-.63,1.59-1.5,1.62-.02,0-.04,0-.06,0Z"/><path class="uuid-22aea203-c265-409f-a157-6b5a07e80708" d="M287.62,323.26l2.31-6.01s18.61,4.05,23.44-13.87c1.18-4.38-14.21-23.02-24.99-24.76-21.12-3.41-54.05-2.22-59.18,15.26-5.13,17.48-7.87,45.52-7.87,45.52,0,0,13.48,3.07,15.62-6.72,3-13.7,9.49-27.26,9.49-27.26l3.45,41.5s7.44,1.15,13.86-1.47,17.2-3.73,23.87-22.19Z"/><path class="uuid-be72c041-1d38-4a32-b3fc-ba5bb7dfda33" d="M223.99,342.2c-1.5,0-2.54-.13-2.68-.15-.8-.11-1.39-.8-1.35-1.61.05-1.19,1.22-29.41,7.78-47.11,3.16-8.52,15.27-21.95,60.84-16.26.85.11,1.46.89,1.35,1.74-.11.85-.88,1.47-1.74,1.35-15.02-1.88-50.68-4.24-57.53,14.25-5.54,14.95-7.17,38.48-7.51,44.64,3.03.11,9.97-.26,11.91-5.48,1.08-2.92,2.1-6.87,3.18-11.04,2.12-8.21,4.3-16.7,7.66-19.98.62-.6,1.6-.59,2.21.03.6.62.59,1.6-.03,2.2-2.73,2.66-4.9,11.09-6.82,18.52-1.1,4.25-2.13,8.27-3.27,11.35-2.44,6.6-9.92,7.54-13.98,7.54Z"/><path class="uuid-be72c041-1d38-4a32-b3fc-ba5bb7dfda33" d="M254.86,349.55c-2.39,0-4.71-.66-6.27-1.37-.54-.24-.89-.77-.91-1.36l-2.07-55.68c-.03-.86.64-1.58,1.5-1.62.83-.02,1.59.64,1.62,1.5l2.03,54.66c2.09.73,7.34,2.03,9.51-2.29.39-.77,1.32-1.08,2.09-.69.77.39,1.08,1.32.69,2.09-1.82,3.63-5.07,4.76-8.19,4.76Z"/><path class="uuid-be72c041-1d38-4a32-b3fc-ba5bb7dfda33" d="M262.36,348.41c-.4,0-.78-.15-1.07-.42-.32-.3-.49-.72-.49-1.15l.66-56.86c.01-.85.71-1.54,1.56-1.54h.02c.86,0,1.55.72,1.54,1.58l-.64,55.07c3.15-.55,8.05-2.12,8.87-5.6,1.43-6.09,4.61-46.82,4.64-47.23.07-.86.8-1.5,1.68-1.43.86.07,1.5.82,1.43,1.68-.13,1.69-3.22,41.39-4.71,47.7-1.72,7.31-12.9,8.18-13.38,8.22-.04,0-.07,0-.11,0Z"/><path class="uuid-be72c041-1d38-4a32-b3fc-ba5bb7dfda33" d="M274.65,340.83c-.77,0-1.44-.57-1.54-1.35-.12-.85.48-1.64,1.33-1.76,7.87-1.09,11.91-12.01,13.92-20.99,2.26-10.12,2.47-20.11,2.47-20.21.02-.85.71-1.53,1.56-1.53,0,0,.02,0,.03,0,.86.02,1.55.73,1.53,1.59-.03,1.7-.99,41.73-19.08,44.23-.07,0-.14.01-.21.01Z"/><path class="uuid-be72c041-1d38-4a32-b3fc-ba5bb7dfda33" d="M294.58,318.84c-1.21,0-2.48-.08-3.81-.25-.85-.11-1.46-.89-1.35-1.74.11-.85.89-1.45,1.75-1.35,15.58,1.99,20.45-9.82,21.35-12.52-4.57-9.72-12.44-21.34-24.33-22.82-15.02-1.88-50.68-4.24-57.53,14.25-.3.81-1.19,1.22-2,.92-.81-.3-1.22-1.2-.92-2,3.16-8.52,15.27-21.95,60.84-16.26,13.53,1.69,22.17,14.61,27.02,25.15.15.33.18.7.09,1.05-.04.17-4.33,15.58-21.11,15.58Z"/><path d="M319.84,32.96h15.09v35.87h13.11v-35.87h15.09v86.59h-15.09v-36.37h-13.11v36.37h-15.09V32.96Z"/><path d="M371.67,32.34h14.84v14.6h-14.84v-14.6ZM371.79,53.25h14.6v66.3h-14.6V53.25Z"/><path d="M395.42,35.43v-2.47h17.81v2.47l-5.2,57.15h-7.42l-5.2-57.15ZM395.79,102.36h17.07v17.19h-17.07v-17.19Z"/><rect x="397.45" y="211.97" width="5.37" height="3.12" transform="translate(183.29 611.88) rotate(-89.52)"/><rect x="397.45" y="211.97" width="5.37" height="3.12" transform="translate(183.29 611.88) rotate(-89.52)"/><rect x="383.89" y="219.16" width="3.12" height="5.37" transform="translate(-1.22 441.57) rotate(-59.53)"/><rect x="382.62" y="237.16" width="5.37" height="3.12" transform="translate(-67.59 220.54) rotate(-29.48)"/><rect x="397.17" y="245.72" width="5.37" height="3.12" transform="translate(149.26 645.07) rotate(-89.52)"/><rect x="412.98" y="236.29" width="3.12" height="5.37" transform="translate(-1.49 475.33) rotate(-59.56)"/><rect x="411.99" y="220.54" width="5.37" height="3.12" transform="translate(-55.6 233.34) rotate(-29.54)"/><polygon points="447.69 245.48 423.42 237.37 399.14 229.25 406.85 253.66 414.55 278.07 423.24 261.49 436.13 274.6 443.86 267 430.97 253.9 447.69 245.48"/><path class="uuid-be72c041-1d38-4a32-b3fc-ba5bb7dfda33" d="M462.16,196.09l3.26-4.85c1.8-2.68,2.11-5.71.69-6.76l-72.27-52.13-9.78,14.54,72.27,52.13c1.42,1.06,4.03-.26,5.83-2.93Z"/><path class="uuid-be72c041-1d38-4a32-b3fc-ba5bb7dfda33" d="M463.89,182.83l-9.78,14.54,2.22,1.65c1.42,1.06,4.03-.26,5.83-2.93l3.26-4.85c1.8-2.68,2.11-5.71.69-6.76l-2.22-1.65Z"/><polygon class="uuid-22aea203-c265-409f-a157-6b5a07e80708" points="377.13 130.62 391.15 133.35 384.12 143.81 377.13 130.62"/><path class="uuid-be72c041-1d38-4a32-b3fc-ba5bb7dfda33" d="M380.04,132.77l8.51,1.66-4.27,6.35-4.24-8.01h0ZM374.23,128.46l9.73,18.38,9.8-14.57-19.53-3.81h0Z"/><polygon class="uuid-be72c041-1d38-4a32-b3fc-ba5bb7dfda33" points="379.35 135.5 382.19 130.99 374.2 128.51 379.35 135.5"/><path d="M32.96,262.14c-.35,0-.7-.12-.99-.35-.67-.55-.76-1.53-.22-2.19l4.83-5.89c9.38-11.44,23.01-18.2,38.38-19.05.89-.04,1.6.61,1.64,1.47.05.86-.61,1.6-1.47,1.64-14.48.8-27.32,7.16-36.14,17.92l-4.83,5.89c-.31.38-.76.57-1.21.57Z"/></svg>