<?xml version="1.0" encoding="utf-8"?>
<!-- Generator: Adobe Illustrator 27.5.0, SVG Export Plug-In . SVG Version: 6.00 Build 0)  -->
<svg version="1.1" id="Layer_1" xmlns="http://www.w3.org/2000/svg" xmlns:xlink="http://www.w3.org/1999/xlink" x="0px" y="0px"
	 viewBox="0 0 5000 5000" style="enable-background:new 0 0 5000 5000;" xml:space="preserve">
<rect style="fill:#FFFFFF;" width="5000" height="5000"/>
<g>
	<ellipse style="fill:#F1F2F2;" cx="2392.221" cy="4358.55" rx="1756.489" ry="257.861"/>
	<g>
		<path style="fill:#427B52;" d="M2002.479,4349.206c0,0,69.081-337.889-36.398-679.854l-278.482,52.658l160.962-246.871
			c0,0-225.969-552.989-899.075-673.334c0,0-38.298,450.576,122.761,793.125l236.862-73.418l-135.569,215.021
			C1173.539,3736.533,1270.906,4155.735,2002.479,4349.206z"/>
		<g>
			<defs>
				<path id="XMLID_4_" d="M1824.196,4177.154c-52.192,198.71-327.997,241.638-620.524,41.917
					c-292.528-199.722-482.698-819.087-706.744-793.243c0,0,414.719-290.502,998.398-67.109
					c583.679,223.392,645.356,526.849,534.745,601.846c-110.611,74.996-94.179,43.362,60.953,210.799
					C2246.156,4338.799,1876.388,3978.445,1824.196,4177.154z"/>
			</defs>
			<use xlink:href="#XMLID_4_"  style="overflow:visible;fill:#2BB673;"/>
			<clipPath id="XMLID_00000152961329976112009760000006002679268215817861_">
				<use xlink:href="#XMLID_4_"  style="overflow:visible;"/>
			</clipPath>
			<g style="clip-path:url(#XMLID_00000152961329976112009760000006002679268215817861_);">
				<path style="fill:#84CCA8;" d="M2117.75,4272.095c0,0-408.27-404.179-1112.752-705.59c0,0,606.435,36.093,1156.894,617.194
					L2117.75,4272.095z"/>
				<path style="fill:#84CCA8;" d="M1365.278,4043.098c0,0,164.945-55.597,398.387-67.872l-136.105-363.076
					c0,0,120.803,129.039,193.09,400.992C1820.651,4013.143,1580.667,4058.708,1365.278,4043.098z"/>
				<path style="fill:#84CCA8;" d="M1122.811,3827.965c0,0,123.023-53.004,308.472-72.321l-171.329-299.251
					c0,0,119.081,103.556,223.583,328.849C1483.537,3785.243,1298.516,3832.733,1122.811,3827.965z"/>
			</g>
		</g>
	</g>
	<g>
		<g>
			<defs>
				<path id="XMLID_2_" d="M1844.856,751.099l44.247-29.799l-9.03-53.276h-42.441l-19.866-35.689l28.896-35.647l-36.12-38.829
					l-46.053,28.896l-26.187-14.448l2.709-45.15l-55.986-9.03l-27.09,39.732h-33.411l-14.448-32.508l-66.821,18.06l-1.806,37.023
					l-54.18,33.411l-27.993-17.157l-46.053,45.15l14.448,38.829l-26.187,34.314l-44.247-8.127l-30.702,58.694l30.702,19.192
					l-2.709,33.181l-44.247,18.06v60.5h42.441l15.351,35.217l-33.411,44.247l37.926,46.053l46.053-31.605l26.187,16.254
					l-4.52,49.665l53.282,13.545l33.411-41.538l36.12-4.515l18.06,41.538l67.724-16.254l8.127-49.664l54.179-29.799l33.411,22.575
					l57.792-45.15l-18.06-44.247l18.06-32.508l56.889-7.224l24.381-62.306l-40.635-19.866L1844.856,751.099z M1753.654,754.711
					c-4.515,80.366-64.112,147.188-134.546,172.472c-70.433,25.284-179.695,7.224-178.792-110.165s125.516-172.471,125.516-172.471
					C1672.385,603.008,1758.169,674.344,1753.654,754.711z"/>
			</defs>
			<use xlink:href="#XMLID_2_"  style="overflow:visible;fill:#DA5050;"/>
			<clipPath id="XMLID_00000055681268537695207370000010568200769707214766_">
				<use xlink:href="#XMLID_2_"  style="overflow:visible;"/>
			</clipPath>
			<path style="clip-path:url(#XMLID_00000055681268537695207370000010568200769707214766_);fill:#E07369;" d="M1422.858,830.562
				c0,0-1.204-45.752,23.478-89.697c24.682-43.946,63.812-78.861,104.145-102.941c40.333-24.08,119.797-33.11,179.394,15.652
				l26.488-51.772l-20.468-11.438l2.408-18.06l19.264-22.274l-3.743-42.742c0,0-164.214-34.314-296.653,72.239
				c-132.439,106.553-152.305,218.524-152.305,218.524l49.665,19.866L1422.858,830.562z"/>
		</g>
	</g>
	<g>
		<path style="fill:#FFFFFF;" d="M3134.479,793.991h-251.472c0,0-72.909,0-98.859,17.918c-25.95,17.918-11.74,54.99-20.39,91.445
			c-8.65,36.454-35.218,64.876-72.291,65.494c-37.072,0.618-417.679,0.618-466.49,0c-48.812-0.618-76.616-21.625-80.941-51.283
			c-4.324-29.658,4.326-78.469-18.536-98.241c-22.861-19.772-61.169-25.332-61.169-25.332h-308.934
			c-85.856,0-155.703,69.849-155.703,155.703v3169.664c0,85.856,69.847,155.703,155.703,155.703h1379.082
			c85.856,0,155.703-69.847,155.703-155.703V949.694C3290.182,863.84,3220.334,793.991,3134.479,793.991z"/>
		<path style="fill:#666766;" d="M3134.479,719.846H1755.397c-126.941,0-229.847,102.906-229.847,229.847v3169.664
			c0,126.941,102.906,229.848,229.847,229.848h1379.082c126.941,0,229.847-102.906,229.847-229.848V949.694
			C3364.326,822.753,3261.42,719.846,3134.479,719.846z M3290.182,4119.358c0,85.856-69.847,155.703-155.703,155.703H1755.397
			c-85.856,0-155.703-69.847-155.703-155.703V949.694c0-85.854,69.847-155.703,155.703-155.703h308.934
			c0,0,38.308,5.561,61.169,25.332c22.862,19.772,14.212,68.583,18.536,98.241c4.326,29.658,32.129,50.665,80.941,51.283
			c48.811,0.618,429.418,0.618,466.49,0c37.072-0.618,63.641-29.04,72.291-65.494c8.65-36.454-5.561-73.527,20.39-91.445
			c25.95-17.918,98.859-17.918,98.859-17.918h251.472c85.856,0,155.703,69.849,155.703,155.703V4119.358z"/>
	</g>
	<g>
		<path style="fill:#666766;" d="M1924.164,1094.275h-161.422c-1.657,0-3-1.343-3-3v-16.243c0-1.657,1.343-3,3-3h161.422
			c1.657,0,3,1.343,3,3v16.243C1927.164,1092.932,1925.821,1094.275,1924.164,1094.275z"/>
		<path style="fill:#666766;" d="M1924.164,1147.412h-161.422c-1.657,0-3-1.343-3-3v-16.243c0-1.657,1.343-3,3-3h161.422
			c1.657,0,3,1.343,3,3v16.243C1927.164,1146.068,1925.821,1147.412,1924.164,1147.412z"/>
		<path style="fill:#666766;" d="M1924.164,1200.548h-161.422c-1.657,0-3-1.343-3-3v-16.243c0-1.657,1.343-3,3-3h161.422
			c1.657,0,3,1.343,3,3v16.243C1927.164,1199.205,1925.821,1200.548,1924.164,1200.548z"/>
	</g>
	<g>
		<path style="fill:#666766;" d="M3153.633,1151.428l23.479-80.323l-141.847-1.168l-3.198-11.808H3003.8v12.975l19.154,0.618
			l20.08,79.705l4.325,17.3h98.859l4.016-11.739h-96.696v-5.561H3153.633z M3039.527,1085.672l119.069,1.087l-14.849,52.929h-89.591
			L3039.527,1085.672z"/>
		
			<ellipse transform="matrix(0.9732 -0.2298 0.2298 0.9732 -191.9562 737.0153)" style="fill:#666766;" cx="3068.984" cy="1192.825" rx="15.756" ry="15.756"/>
		
			<ellipse transform="matrix(0.7071 -0.7071 0.7071 0.7071 73.1655 2562.2864)" style="fill:#666766;" cx="3129.536" cy="1192.825" rx="15.756" ry="15.756"/>
	</g>
	<path style="fill:#666766;" d="M2977.412,2904.028c-3.131-36.501,3.914-127.082,3.914-127.082l-23.481-4.696
		c0,0,0,28.177-5.479,70.442c-5.479,42.265-56.058,41.149-56.058,41.149s-50.579,1.116-56.058-41.149
		c-5.479-42.265-5.479-70.442-5.479-70.442l-23.481,4.696c0,0,7.044,90.582,3.914,127.082c-3.131,36.501-25.046,52.155-40.7,43.545
		l4.696,172.972h117.108h117.108l4.696-172.972C3002.458,2956.183,2980.543,2940.529,2977.412,2904.028z"/>
	<g>
		<polygon style="fill:#F9A737;" points="2468.375,2629.144 2367.154,2645.354 2471.038,2668.795 2487.021,2773.212 
			2509.396,2672.524 2610.084,2656.009 2509.396,2632.036 2492.881,2525.488 		"/>
		<polygon style="fill:#F9A737;" points="2380.472,2476.133 2329.862,2484.238 2381.804,2495.958 2389.795,2548.167 
			2400.983,2497.823 2451.327,2489.565 2400.983,2477.579 2392.725,2424.304 		"/>
	</g>
	<g>
		<g>
			<g>
				
					<ellipse transform="matrix(0.5913 -0.8065 0.8065 0.5913 -1771.3584 4115.0156)" style="fill:#BE1E2D;" cx="3174.207" cy="3805.135" rx="27.16" ry="27.16"/>
				
					<ellipse transform="matrix(0.5917 -0.8062 0.8062 0.5917 -1884.7445 3901.3254)" style="fill:#BE1E2D;" cx="2908.806" cy="3811.181" rx="27.16" ry="27.16"/>
				<path style="fill:#BE1E2D;" d="M3172.898,3804.074c5.558,0.457,10.455-3.582,11.027-9.129
					c2.897-28.124,9.727-110.087-1.614-170.237c-13.897-73.713-41.801-102.34-87.729-102.211
					c-45.929,0.129-102.74,56.817-139.231,114.773c-34.852,55.351-50.828,90.508-57.371,167.82c-0.508,6,4.218,11.188,10.24,11.171
					l0.201-0.001c5.29-0.015,9.686-4.038,10.17-9.306c1.943-21.167,8.583-74.292,28.525-114.458
					c25.47-51.301,55.786-107.031,118.404-139.887c62.619-32.856,90.155,22.27,98.688,73.033
					c7.708,45.848,3.992,129.194-0.641,167.04C3162.861,3798.437,3167.119,3803.598,3172.898,3804.074L3172.898,3804.074z"/>
			</g>
		</g>
		<polygon style="fill:#DA5050;" points="2748.184,3779.173 3226.441,3769.879 3202.967,4374.091 2667.648,4350.424 		"/>
		<path style="fill:#BE1E2D;" d="M3302.003,3785.565c0,0,47.857,528.494,42.569,532.483c-5.288,3.99-141.605,56.043-141.605,56.043
			l23.474-604.212L3302.003,3785.565z"/>
		<g>
			<g>
				
					<ellipse transform="matrix(0.7071 -0.7071 0.7071 0.7071 -1802.0226 3310.5925)" style="fill:#BE1E2D;" cx="3095.227" cy="3830.53" rx="27.16" ry="27.16"/>
				
					<ellipse transform="matrix(0.4849 -0.8746 0.8746 0.4849 -1897.6835 4451.2979)" style="fill:#BE1E2D;" cx="2829.826" cy="3836.576" rx="27.16" ry="27.16"/>
				<path style="fill:#BE1E2D;" d="M3093.918,3829.469c5.558,0.457,10.455-3.582,11.027-9.129
					c2.897-28.124,9.728-110.087-1.613-170.237c-13.898-73.713-41.801-102.34-87.73-102.211
					c-45.929,0.129-102.739,56.817-139.231,114.773c-34.852,55.351-50.828,90.508-57.371,167.821
					c-0.508,6,4.219,11.188,10.24,11.171l0.2,0c5.29-0.015,9.686-4.038,10.17-9.306c1.943-21.167,8.583-74.292,28.525-114.459
					c25.47-51.3,55.786-107.031,118.404-139.887s90.155,22.27,98.688,73.033c7.708,45.848,3.992,129.194-0.641,167.04
					C3083.881,3823.832,3088.139,3828.993,3093.918,3829.469L3093.918,3829.469z"/>
			</g>
		</g>
	</g>
	<g>
		<path style="fill:#F26955;" d="M2552.536,833.202l-101.771-8.17c-10.085-0.81-19.995,2.989-26.956,10.331L2275.881,991.41
			c-12.155,12.822-12.244,32.886-0.204,45.815l92.684,99.53c12.781,13.725,34.347,14.264,47.798,1.194l158.391-153.91
			c6.605-6.418,10.272-15.276,10.137-24.485l-1.376-93.496C2583.056,848.81,2569.73,834.583,2552.536,833.202z"/>
		
			<ellipse transform="matrix(0.5495 -0.8355 0.8355 0.5495 400.7657 2513.8728)" style="fill:#FFFFFF;" cx="2531.327" cy="885.333" rx="24.135" ry="24.135"/>
		<g>
			<path style="fill:#FFFFFF;" d="M2430.381,961.427c-13.76,14.158-28.046,15.149-40.377,3.165
				c-12.446-12.096-11.633-26.181,2.127-40.34c13.982-14.387,27.932-15.262,40.263-3.277
				C2444.725,932.959,2444.363,947.04,2430.381,961.427z M2399.892,931.572c-9.211,9.477-10.338,17.263-2.231,25.142
				c7.993,7.768,15.857,6.53,25.068-2.948c9.211-9.477,10.113-17.259,2.12-25.027
				C2416.741,920.861,2409.102,922.095,2399.892,931.572z M2492.24,980.249l-135.192,18.48l-9.249-8.989l135.42-18.258
				L2492.24,980.249z M2448.256,1046.295c-13.76,14.158-28.046,15.151-40.377,3.167c-12.446-12.096-11.633-26.183,2.127-40.341
				c13.982-14.387,27.932-15.261,40.264-3.276C2462.6,1017.829,2462.238,1031.908,2448.256,1046.295z M2417.766,1016.442
				c-9.21,9.477-10.338,17.261-2.23,25.141c7.993,7.768,15.856,6.53,25.067-2.947c9.21-9.477,10.113-17.259,2.12-25.027
				C2434.615,1005.73,2426.977,1006.965,2417.766,1016.442z"/>
		</g>
	</g>
	<g>
		<path style="fill:#DA5050;" d="M3774.139,1494.461c-28.239-24.148-46.163-60.01-46.163-100.079
			c0-72.713,58.946-131.659,131.659-131.659s131.659,58.946,131.659,131.659s-58.946,131.658-131.659,131.658
			c-11.387,0-22.435-1.447-32.973-4.164l-70.67,37.976L3774.139,1494.461z"/>
		<path style="fill:#FFFFFF;" d="M3784.734,1364.546c2.559-6.35,7.977-13.093,14.494-18.037c8.339-6.326,18.156-9.67,28.39-9.67
			c10.433,0,21.193,3.409,32.017,10.137c10.824-6.728,21.584-10.137,32.017-10.137c10.236,0,20.053,3.344,28.391,9.67
			c6.516,4.943,11.934,11.686,14.493,18.037c3.958,9.822,5.228,19.211,3.883,28.703c-1.789,12.617-8.34,25.223-19.472,37.469
			c-12.534,13.787-27.528,24.117-37.899,30.355c-11.232,6.755-19.446,10.237-19.791,10.382l-1.622,0.683l-1.622-0.683
			c-0.344-0.145-8.559-3.627-19.79-10.382c-10.371-6.238-25.365-16.568-37.899-30.355c-11.132-12.245-17.684-24.852-19.472-37.469
			C3779.506,1383.757,3780.776,1374.369,3784.734,1364.546z"/>
	</g>
	<path style="fill:#666766;" d="M1981.639,1596.561l-40.215-21.089c3.168-7.377,4.928-15.497,4.928-24.021
		c0-33.686-27.406-61.091-61.091-61.091s-61.09,27.405-61.09,61.091c0,33.686,27.405,61.091,61.09,61.091
		c18.748,0,35.543-8.497,46.759-21.833l41.323,21.67c4.368,2.291,9.766,0.606,12.057-3.762
		C1987.691,1604.249,1986.007,1598.851,1981.639,1596.561z M1885.262,1597.011c-25.162,0-45.56-20.398-45.56-45.559
		c0-25.162,20.398-45.559,45.56-45.559c25.161,0,45.559,20.398,45.559,45.559
		C1930.821,1576.613,1910.423,1597.011,1885.262,1597.011z"/>
	<g>
		<circle style="fill:#DA5050;" cx="2994.038" cy="1552.72" r="82.511"/>
		<g>
			<path style="fill:#FFFFFF;" d="M3029.816,1598.391c-2.155,0-4.206-0.928-5.628-2.548l-15.216-17.328
				c-7.106-7.603-11.569-12.539-15.833-17.742h-0.405c-3.859,5.203-7.71,10.009-14.817,17.877l-14.228,17.08
				c-1.404,1.686-3.485,2.66-5.678,2.66l0,0c-6.436,0-9.796-7.655-5.441-12.392l30.422-33.094l-28.767-31.796
				c-4.394-4.856-0.948-12.62,5.601-12.62l0,0c2.205,0,4.3,0.964,5.735,2.638l15.803,18.438c5.074,5.87,8.933,10.405,12.585,15.205
				h0.611c3.859-5.338,7.305-9.471,12.379-15.205l16.498-18.618c1.385-1.563,3.374-2.458,5.462-2.458l0,0
				c6.414,0,9.708,7.679,5.288,12.327l-29.884,31.422l31.014,33.583C3039.748,1590.618,3036.346,1598.391,3029.816,1598.391
				L3029.816,1598.391z"/>
		</g>
	</g>
	<path style="fill:#B4B1B1;" d="M2454.236,1612.542H2110.47c-33.74,0-61.091-27.351-61.091-61.091v0
		c0-33.74,27.351-61.091,61.091-61.091h343.767c33.74,0,61.091,27.351,61.091,61.091v0
		C2515.327,1585.191,2487.976,1612.542,2454.236,1612.542z"/>
	<g>
		<path style="fill:#666766;" d="M2138.267,1566.418l-8.115-32.255v34.949c0,1.934-0.432,3.385-1.295,4.351
			c-0.863,0.967-2.009,1.45-3.436,1.45c-1.381,0-2.51-0.478-3.385-1.433c-0.875-0.956-1.312-2.412-1.312-4.369v-40.06
			c0-2.21,0.575-3.701,1.727-4.472c1.151-0.771,2.705-1.157,4.662-1.157h3.178c1.91,0,3.298,0.173,4.161,0.518
			c0.863,0.346,1.502,0.967,1.916,1.865c0.415,0.898,0.887,2.361,1.416,4.386l7.356,27.731l7.356-27.731
			c0.529-2.026,1.002-3.489,1.416-4.386c0.415-0.898,1.053-1.519,1.917-1.865c0.863-0.345,2.25-0.518,4.161-0.518h3.177
			c1.957,0,3.51,0.386,4.662,1.157c1.151,0.771,1.727,2.262,1.727,4.472v40.06c0,1.934-0.432,3.385-1.295,4.351
			c-0.863,0.967-2.02,1.45-3.47,1.45c-1.359,0-2.475-0.483-3.35-1.45c-0.875-0.967-1.312-2.418-1.312-4.351v-34.949l-8.115,32.255
			c-0.53,2.095-0.962,3.633-1.295,4.61c-0.334,0.979-0.949,1.871-1.847,2.677c-0.898,0.805-2.141,1.208-3.73,1.208
			c-1.198,0-2.211-0.259-3.039-0.777c-0.829-0.518-1.474-1.18-1.935-1.986c-0.46-0.805-0.823-1.697-1.087-2.676
			C2138.814,1568.496,2138.543,1567.478,2138.267,1566.418z"/>
		<path style="fill:#666766;" d="M2213.449,1531.331h-23.103v12.433h21.273c1.565,0,2.733,0.351,3.505,1.053
			c0.771,0.702,1.156,1.629,1.156,2.779c0,1.152-0.38,2.089-1.14,2.815c-0.76,0.725-1.934,1.088-3.522,1.088h-21.273v14.401h23.897
			c1.612,0,2.827,0.375,3.644,1.122c0.817,0.749,1.226,1.744,1.226,2.987c0,1.198-0.409,2.171-1.226,2.918
			c-0.817,0.749-2.032,1.122-3.644,1.122h-27.869c-2.233,0-3.84-0.494-4.818-1.485c-0.978-0.99-1.468-2.59-1.468-4.8v-38.057
			c0-1.473,0.219-2.676,0.656-3.609c0.438-0.932,1.123-1.611,2.055-2.037c0.932-0.426,2.124-0.639,3.574-0.639h27.075
			c1.634,0,2.849,0.362,3.643,1.088c0.795,0.725,1.191,1.675,1.191,2.849c0,1.197-0.397,2.158-1.191,2.883
			C2216.298,1530.969,2215.083,1531.331,2213.449,1531.331z"/>
		<path style="fill:#666766;" d="M2240.628,1528.707l19.719,29.838v-30.115c0-1.957,0.419-3.424,1.26-4.403
			c0.84-0.978,1.974-1.468,3.401-1.468c1.474,0,2.636,0.489,3.488,1.468c0.852,0.979,1.278,2.447,1.278,4.403v39.819
			c0,4.443-1.842,6.665-5.526,6.665c-0.921,0-1.75-0.133-2.486-0.397c-0.737-0.265-1.428-0.685-2.073-1.26
			c-0.645-0.576-1.243-1.249-1.795-2.02c-0.553-0.771-1.106-1.56-1.658-2.366l-19.236-29.492v29.665
			c0,1.934-0.449,3.396-1.346,4.386c-0.898,0.99-2.05,1.485-3.454,1.485c-1.451,0-2.613-0.501-3.488-1.502
			c-0.876-1.002-1.313-2.458-1.313-4.369v-39.059c0-1.657,0.184-2.958,0.553-3.902c0.437-1.036,1.162-1.882,2.176-2.538
			c1.013-0.656,2.106-0.984,3.281-0.984c0.92,0,1.709,0.15,2.365,0.449c0.656,0.3,1.232,0.702,1.727,1.209
			c0.495,0.507,1.001,1.163,1.519,1.968C2239.54,1526.992,2240.075,1527.832,2240.628,1528.707z"/>
	</g>
	<g>
		<path style="fill:#666766;" d="M3007.521,1410.704H1881.757c-78.307,0-142.015,63.708-142.015,142.016
			s63.708,142.016,142.015,142.016h1125.764c78.308,0,142.016-63.708,142.016-142.016
			C3149.536,1474.412,3085.828,1410.704,3007.521,1410.704z M3007.521,1674.735H1881.757c-67.387,0-122.016-54.628-122.016-122.015
			v0c0-67.387,54.628-122.016,122.016-122.016h1125.763c67.387,0,122.016,54.628,122.016,122.016v0
			C3129.536,1620.107,3074.908,1674.735,3007.521,1674.735z"/>
	</g>
	<g>
		<g>
			<path style="fill:#666766;" d="M2276.11,1824.981h-508.193c-32.781,0-59.356,26.574-59.356,59.355v345.957
				c0,32.781,26.574,59.355,59.356,59.355h508.193c32.781,0,59.355-26.574,59.355-59.355v-345.957
				C2335.465,1851.555,2308.89,1824.981,2276.11,1824.981z M2321.347,2230.294c0,24.943-20.292,45.238-45.238,45.238h-508.193
				c-24.945,0-45.238-20.294-45.238-45.238v-345.957c0-24.945,20.293-45.239,45.238-45.239h508.193
				c24.945,0,45.238,20.294,45.238,45.239V2230.294z"/>
		</g>
		<path style="fill:#666766;" d="M2279.488,2484.032h-524.087c-3.879,0-7.052-3.173-7.052-7.052v-5.306
			c0-3.879,3.173-7.052,7.052-7.052h524.087c3.878,0,7.052,3.174,7.052,7.052v5.306
			C2286.54,2480.858,2283.366,2484.032,2279.488,2484.032z"/>
		<path style="fill:#666766;" d="M2181.555,2548.907h-326.456c-3.879,0-7.052-3.173-7.052-7.052v-5.306
			c0-3.879,3.173-7.052,7.052-7.052h326.456c3.879,0,7.052,3.174,7.052,7.052v5.306
			C2188.607,2545.733,2185.433,2548.907,2181.555,2548.907z"/>
	</g>
	<g>
		<g>
			<path style="fill:#666766;" d="M2290.228,2715.821h-508.193c-32.781,0-59.356,26.574-59.356,59.355v345.957
				c0,32.781,26.574,59.355,59.356,59.355h508.193c32.781,0,59.355-26.574,59.355-59.355v-345.957
				C2349.583,2742.395,2323.008,2715.821,2290.228,2715.821z M2335.465,3121.134c0,24.943-20.292,45.238-45.238,45.238h-508.193
				c-24.945,0-45.238-20.294-45.238-45.238v-345.957c0-24.945,20.292-45.239,45.238-45.239h508.193
				c24.945,0,45.238,20.294,45.238,45.239V3121.134z"/>
		</g>
		<path style="fill:#666766;" d="M2285.349,3376.248h-524.086c-3.879,0-7.052-3.173-7.052-7.052v-5.306
			c0-3.879,3.173-7.052,7.052-7.052h524.086c3.879,0,7.052,3.173,7.052,7.052v5.306
			C2292.401,3373.074,2289.227,3376.248,2285.349,3376.248z"/>
		<path style="fill:#666766;" d="M2187.416,3441.123H1860.96c-3.879,0-7.052-3.173-7.052-7.052v-5.306
			c0-3.878,3.173-7.052,7.052-7.052h326.456c3.879,0,7.052,3.174,7.052,7.052v5.306
			C2194.468,3437.949,2191.294,3441.123,2187.416,3441.123z"/>
	</g>
	<g>
		<g>
			<path style="fill:#666766;" d="M3135.092,1824.944h-508.193c-32.781,0-59.356,26.574-59.356,59.355v345.957
				c0,32.781,26.574,59.355,59.356,59.355h508.193c32.781,0,59.355-26.574,59.355-59.355v-345.957
				C3194.447,1851.518,3167.873,1824.944,3135.092,1824.944z M3180.33,2230.256c0,24.943-20.292,45.238-45.238,45.238h-508.193
				c-24.945,0-45.238-20.294-45.238-45.238v-345.957c0-24.945,20.292-45.239,45.238-45.239h508.193
				c24.945,0,45.238,20.294,45.238,45.239V2230.256z"/>
		</g>
		<path style="fill:#666766;" d="M3141.222,2484.032h-524.086c-3.879,0-7.052-3.173-7.052-7.052v-5.306
			c0-3.879,3.173-7.052,7.052-7.052h524.086c3.879,0,7.052,3.174,7.052,7.052v5.306
			C3148.274,2480.858,3145.101,2484.032,3141.222,2484.032z"/>
		<path style="fill:#666766;" d="M3043.289,2548.907h-326.456c-3.878,0-7.052-3.173-7.052-7.052v-5.306
			c0-3.879,3.174-7.052,7.052-7.052h326.456c3.879,0,7.052,3.174,7.052,7.052v5.306
			C3050.342,2545.733,3047.168,2548.907,3043.289,2548.907z"/>
	</g>
	<g>
		<g>
			<path style="fill:#666766;" d="M3146.569,2715.821h-508.193c-32.781,0-59.356,26.574-59.356,59.355v345.957
				c0,32.781,26.574,59.355,59.356,59.355h508.193c32.781,0,59.355-26.574,59.355-59.355v-345.957
				C3205.924,2742.395,3179.349,2715.821,3146.569,2715.821z M3191.806,3121.134c0,24.943-20.292,45.238-45.238,45.238h-508.193
				c-24.945,0-45.238-20.294-45.238-45.238v-345.957c0-24.945,20.292-45.239,45.238-45.239h508.193
				c24.945,0,45.238,20.294,45.238,45.239V3121.134z"/>
		</g>
		<path style="fill:#666766;" d="M3152.699,3374.909h-524.086c-3.879,0-7.052-3.173-7.052-7.052v-5.306
			c0-3.879,3.173-7.052,7.052-7.052h524.086c3.879,0,7.052,3.174,7.052,7.052v5.306
			C3159.751,3371.736,3156.578,3374.909,3152.699,3374.909z"/>
		<path style="fill:#666766;" d="M3054.766,3439.784h-326.456c-3.879,0-7.052-3.174-7.052-7.052v-5.306
			c0-3.879,3.174-7.052,7.052-7.052h326.456c3.879,0,7.052,3.174,7.052,7.052v5.306
			C3061.818,3436.611,3058.645,3439.784,3054.766,3439.784z"/>
	</g>
	<g>
		<g>
			<g>
				<path style="fill:#666766;" d="M2701.861,3263.925c3.173-3.071,4.384-7.612,3.16-11.851c-1.226-4.247-4.661-7.446-8.964-8.348
					c-0.237-0.05-0.479-0.093-0.72-0.129l-14.029-2.091c-0.071-0.01-0.141-0.023-0.21-0.038c-1.097-0.23-2.009-0.94-2.501-1.947
					l-6.231-12.742c-1.626-3.324-4.619-5.663-8.214-6.417c-5.319-1.116-10.72,1.491-13.135,6.34l-6.323,12.696
					c-0.53,1.064-1.549,1.798-2.726,1.965l-14.044,1.989c-4.519,0.64-8.212,3.731-9.639,8.066
					c-1.426,4.336-0.289,9.016,2.968,12.213l10.121,9.938c0.848,0.833,1.232,2.029,1.027,3.199l-2.448,13.971
					c-1.116,6.367,2.976,12.396,9.315,13.725c2.692,0.565,5.428,0.18,7.911-1.114l12.578-6.555c0.739-0.385,1.595-0.503,2.41-0.332
					c0.331,0.069,0.65,0.185,0.95,0.344l12.531,6.646c1.012,0.537,2.081,0.925,3.178,1.155l0,0c3.82,0.802,7.808-0.358,10.666-3.103
					c2.869-2.755,4.135-6.596,3.474-10.538l-2.347-13.989c-0.197-1.172,0.196-2.365,1.05-3.192L2701.861,3263.925z
					 M2686.529,3277.666l2.347,13.988c1.064,6.341-5.605,11.149-11.285,8.136l-12.531-6.646c-2.256-1.196-4.955-1.206-7.219-0.026
					l-12.579,6.555c-5.701,2.971-12.335-1.885-11.225-8.218l2.448-13.971c0.441-2.515-0.384-5.085-2.206-6.874l-10.121-9.937
					c-4.588-4.504-2.019-12.314,4.347-13.215l14.044-1.989c2.528-0.358,4.718-1.937,5.856-4.222l6.323-12.696
					c2.866-5.755,11.087-5.725,13.912,0.051l6.231,12.742c1.122,2.294,3.3,3.888,5.825,4.265l14.029,2.09
					c6.359,0.948,8.871,8.776,4.251,13.247l-10.193,9.864C2686.95,3272.584,2686.106,3275.148,2686.529,3277.666z"/>
				<path style="fill:#EFE10D;" d="M2698.977,3260.945c4.62-4.471,2.108-12.299-4.251-13.247l-14.029-2.09
					c-2.525-0.376-4.704-1.971-5.825-4.265l-6.231-12.742c-2.824-5.776-11.046-5.806-13.912-0.051l-6.323,12.696
					c-1.138,2.285-3.328,3.864-5.856,4.222l-14.044,1.989c-6.366,0.901-8.935,8.711-4.347,13.215l10.121,9.937
					c1.822,1.789,2.647,4.359,2.206,6.874l-2.448,13.971c-1.11,6.333,5.524,11.189,11.225,8.218l12.579-6.555
					c2.264-1.18,4.964-1.17,7.219,0.026l12.531,6.646c5.68,3.012,12.349-1.796,11.285-8.136l-2.347-13.988
					c-0.423-2.518,0.421-5.083,2.256-6.858L2698.977,3260.945z"/>
			</g>
		</g>
		<g>
			<g>
				<path style="fill:#666766;" d="M2825.724,3263.924c3.173-3.071,4.384-7.612,3.16-11.851c-1.226-4.247-4.661-7.446-8.964-8.348
					c-0.237-0.05-0.479-0.093-0.72-0.129l-14.029-2.09c-0.071-0.011-0.141-0.023-0.21-0.038c-1.097-0.23-2.009-0.94-2.501-1.947
					l-6.231-12.742c-1.625-3.324-4.619-5.663-8.214-6.417c-5.319-1.116-10.72,1.491-13.135,6.34l-6.323,12.696
					c-0.53,1.064-1.549,1.798-2.726,1.965l-14.044,1.989c-4.519,0.64-8.213,3.731-9.639,8.067
					c-1.426,4.336-0.289,9.016,2.968,12.214l10.121,9.937c0.848,0.833,1.232,2.029,1.027,3.199l-2.448,13.971
					c-1.116,6.367,2.976,12.396,9.315,13.726c2.693,0.565,5.428,0.179,7.911-1.114l12.578-6.555c0.739-0.385,1.595-0.503,2.41-0.332
					c0.331,0.069,0.651,0.185,0.95,0.344l12.531,6.646c1.012,0.536,2.081,0.925,3.178,1.155l0,0
					c3.82,0.801,7.808-0.359,10.665-3.103c2.869-2.755,4.135-6.596,3.474-10.538l-2.347-13.989c-0.197-1.172,0.196-2.365,1.05-3.192
					L2825.724,3263.924z M2810.392,3277.666l2.347,13.988c1.064,6.341-5.605,11.149-11.285,8.136l-12.531-6.646
					c-2.255-1.197-4.955-1.206-7.219-0.026l-12.578,6.555c-5.702,2.971-12.335-1.885-11.225-8.218l2.448-13.971
					c0.441-2.515-0.384-5.085-2.206-6.874l-10.121-9.937c-4.588-4.504-2.019-12.314,4.347-13.216l14.044-1.989
					c2.528-0.358,4.718-1.937,5.856-4.222l6.323-12.696c2.866-5.755,11.087-5.725,13.912,0.051l6.231,12.742
					c1.122,2.293,3.3,3.888,5.825,4.265l14.029,2.091c6.359,0.948,8.871,8.776,4.251,13.247l-10.193,9.864
					C2810.813,3272.583,2809.969,3275.148,2810.392,3277.666z"/>
				<path style="fill:#EFE10D;" d="M2822.84,3260.945c4.62-4.471,2.108-12.299-4.251-13.247l-14.029-2.091
					c-2.525-0.376-4.704-1.971-5.825-4.265l-6.231-12.742c-2.824-5.776-11.046-5.805-13.912-0.051l-6.323,12.696
					c-1.138,2.285-3.328,3.865-5.856,4.222l-14.044,1.989c-6.366,0.901-8.935,8.711-4.347,13.216l10.121,9.937
					c1.822,1.789,2.647,4.359,2.206,6.874l-2.448,13.971c-1.11,6.333,5.524,11.189,11.225,8.218l12.578-6.555
					c2.264-1.18,4.964-1.17,7.219,0.026l12.531,6.646c5.68,3.012,12.349-1.796,11.285-8.136l-2.347-13.988
					c-0.422-2.518,0.421-5.083,2.256-6.858L2822.84,3260.945z"/>
			</g>
		</g>
		<g>
			<g>
				<path style="fill:#666766;" d="M2949.581,3263.924c3.173-3.071,4.384-7.612,3.16-11.851c-1.226-4.247-4.661-7.446-8.964-8.348
					c-0.237-0.05-0.479-0.093-0.72-0.129l-14.029-2.091c-0.071-0.01-0.141-0.023-0.21-0.038c-1.097-0.23-2.009-0.94-2.501-1.947
					l-6.231-12.742c-1.626-3.324-4.619-5.664-8.214-6.417c-5.319-1.116-10.72,1.491-13.135,6.34l-6.323,12.696
					c-0.53,1.064-1.549,1.798-2.726,1.965l-14.044,1.989c-4.519,0.64-8.212,3.731-9.639,8.066
					c-1.426,4.336-0.289,9.016,2.968,12.213l10.121,9.938c0.848,0.833,1.232,2.029,1.027,3.199l-2.448,13.971
					c-1.116,6.367,2.976,12.396,9.315,13.725c2.693,0.565,5.428,0.18,7.911-1.114l12.578-6.555c0.739-0.385,1.595-0.503,2.41-0.332
					c0.331,0.069,0.65,0.185,0.95,0.344l12.531,6.646c1.011,0.537,2.081,0.925,3.178,1.155h0c3.821,0.802,7.808-0.359,10.666-3.103
					c2.869-2.755,4.135-6.596,3.474-10.538l-2.347-13.989c-0.197-1.172,0.196-2.365,1.05-3.192L2949.581,3263.924z
					 M2934.249,3277.666l2.347,13.988c1.064,6.341-5.605,11.149-11.285,8.136l-12.531-6.646c-2.256-1.196-4.955-1.206-7.219-0.026
					l-12.578,6.555c-5.701,2.971-12.335-1.885-11.225-8.218l2.448-13.971c0.441-2.515-0.384-5.085-2.206-6.874l-10.121-9.937
					c-4.588-4.504-2.019-12.314,4.347-13.215l14.044-1.989c2.528-0.358,4.718-1.937,5.856-4.222l6.323-12.696
					c2.866-5.755,11.087-5.725,13.912,0.05l6.231,12.742c1.122,2.293,3.3,3.888,5.825,4.265l14.029,2.09
					c6.359,0.948,8.871,8.776,4.251,13.247l-10.193,9.864C2934.67,3272.583,2933.826,3275.148,2934.249,3277.666z"/>
				<path style="fill:#EFE10D;" d="M2946.697,3260.944c4.62-4.471,2.108-12.299-4.251-13.247l-14.029-2.09
					c-2.525-0.376-4.704-1.971-5.825-4.265l-6.231-12.742c-2.824-5.776-11.046-5.805-13.912-0.05l-6.323,12.696
					c-1.138,2.285-3.328,3.864-5.856,4.222l-14.044,1.989c-6.366,0.901-8.935,8.711-4.347,13.215l10.121,9.937
					c1.822,1.789,2.647,4.359,2.206,6.874l-2.448,13.971c-1.11,6.333,5.524,11.189,11.225,8.218l12.578-6.555
					c2.264-1.18,4.964-1.17,7.219,0.026l12.531,6.646c5.68,3.012,12.348-1.796,11.285-8.136l-2.347-13.988
					c-0.423-2.518,0.421-5.083,2.256-6.858L2946.697,3260.944z"/>
			</g>
		</g>
		<g>
			<g>
				<path style="fill:#666766;" d="M3063.612,3263.925c3.173-3.071,4.384-7.612,3.16-11.851c-1.226-4.247-4.661-7.446-8.964-8.348
					c-0.237-0.05-0.479-0.093-0.72-0.129l-14.029-2.091c-0.071-0.01-0.141-0.023-0.21-0.038c-1.097-0.23-2.009-0.94-2.501-1.947
					l-6.231-12.742c-1.626-3.324-4.619-5.663-8.214-6.417c-5.319-1.116-10.72,1.491-13.135,6.34l-6.323,12.696
					c-0.53,1.064-1.549,1.798-2.725,1.965l-14.044,1.989c-4.519,0.64-8.212,3.731-9.639,8.066
					c-1.426,4.336-0.289,9.016,2.968,12.213l10.121,9.938c0.848,0.833,1.232,2.029,1.027,3.199l-2.448,13.971
					c-1.116,6.367,2.976,12.396,9.315,13.725c2.693,0.565,5.428,0.18,7.911-1.114l12.578-6.555c0.739-0.385,1.594-0.503,2.41-0.332
					c0.331,0.069,0.65,0.185,0.95,0.344l12.531,6.646c1.011,0.537,2.081,0.925,3.178,1.155l0,0c3.82,0.802,7.808-0.358,10.666-3.103
					c2.869-2.755,4.135-6.596,3.474-10.538l-2.347-13.989c-0.197-1.172,0.196-2.365,1.05-3.192L3063.612,3263.925z
					 M3048.28,3277.666l2.347,13.988c1.064,6.341-5.605,11.149-11.285,8.136l-12.531-6.646c-2.256-1.196-4.955-1.206-7.219-0.026
					l-12.578,6.555c-5.701,2.971-12.335-1.885-11.225-8.218l2.448-13.971c0.441-2.515-0.384-5.085-2.206-6.874l-10.121-9.937
					c-4.588-4.504-2.019-12.314,4.347-13.215l14.044-1.989c2.528-0.358,4.718-1.937,5.856-4.222l6.323-12.696
					c2.866-5.755,11.087-5.725,13.912,0.051l6.231,12.742c1.122,2.294,3.3,3.888,5.825,4.265l14.029,2.09
					c6.359,0.948,8.871,8.776,4.251,13.247l-10.193,9.864C3048.701,3272.584,3047.857,3275.148,3048.28,3277.666z"/>
				<path style="fill:#DBD9D9;" d="M3060.728,3260.945c4.62-4.471,2.108-12.299-4.251-13.247l-14.029-2.09
					c-2.525-0.376-4.704-1.971-5.825-4.265l-6.231-12.742c-2.824-5.776-11.046-5.806-13.912-0.051l-6.323,12.696
					c-1.138,2.285-3.328,3.864-5.856,4.222l-14.044,1.989c-6.366,0.901-8.935,8.711-4.347,13.215l10.121,9.937
					c1.822,1.789,2.647,4.359,2.206,6.874l-2.448,13.971c-1.11,6.333,5.524,11.189,11.225,8.218l12.578-6.555
					c2.264-1.18,4.964-1.17,7.219,0.026l12.531,6.646c5.68,3.012,12.348-1.796,11.285-8.136l-2.347-13.988
					c-0.423-2.518,0.421-5.083,2.256-6.858L3060.728,3260.945z"/>
			</g>
		</g>
		<g>
			<g>
				<path style="fill:#666766;" d="M3179.638,3263.924c3.173-3.071,4.384-7.612,3.16-11.851c-1.226-4.247-4.661-7.446-8.964-8.348
					c-0.237-0.05-0.479-0.093-0.72-0.129l-14.029-2.09c-0.071-0.011-0.141-0.023-0.21-0.038c-1.097-0.23-2.009-0.94-2.501-1.947
					l-6.231-12.742c-1.626-3.324-4.619-5.663-8.214-6.417c-5.319-1.116-10.72,1.491-13.135,6.34l-6.323,12.696
					c-0.53,1.064-1.549,1.798-2.725,1.965l-14.044,1.989c-4.519,0.64-8.213,3.731-9.639,8.067
					c-1.426,4.336-0.289,9.016,2.968,12.214l10.121,9.937c0.848,0.833,1.232,2.029,1.027,3.199l-2.448,13.971
					c-1.116,6.367,2.976,12.396,9.315,13.726c2.693,0.565,5.428,0.179,7.911-1.114l12.578-6.555c0.739-0.385,1.595-0.503,2.41-0.332
					c0.331,0.069,0.65,0.185,0.95,0.344l12.531,6.646c1.011,0.536,2.081,0.925,3.178,1.155l0,0c3.82,0.802,7.808-0.359,10.665-3.103
					c2.869-2.755,4.135-6.596,3.474-10.538l-2.347-13.989c-0.197-1.172,0.196-2.365,1.05-3.192L3179.638,3263.924z
					 M3164.306,3277.666l2.347,13.988c1.064,6.341-5.605,11.149-11.285,8.136l-12.531-6.646c-2.255-1.196-4.955-1.206-7.219-0.026
					l-12.578,6.555c-5.702,2.971-12.335-1.885-11.225-8.218l2.448-13.971c0.441-2.515-0.384-5.085-2.206-6.874l-10.121-9.937
					c-4.588-4.504-2.019-12.314,4.347-13.216l14.044-1.989c2.528-0.358,4.718-1.937,5.856-4.222l6.323-12.696
					c2.866-5.755,11.088-5.725,13.912,0.051l6.231,12.742c1.122,2.293,3.3,3.888,5.825,4.265l14.029,2.091
					c6.359,0.948,8.871,8.776,4.251,13.247l-10.193,9.864C3164.727,3272.583,3163.884,3275.148,3164.306,3277.666z"/>
				<path style="fill:#DBD9D9;" d="M3176.755,3260.944c4.62-4.471,2.108-12.299-4.251-13.247l-14.029-2.091
					c-2.525-0.376-4.704-1.971-5.825-4.265l-6.231-12.742c-2.824-5.776-11.046-5.805-13.912-0.051l-6.323,12.696
					c-1.138,2.285-3.328,3.865-5.856,4.222l-14.044,1.989c-6.366,0.901-8.935,8.711-4.347,13.216l10.121,9.937
					c1.822,1.789,2.647,4.359,2.206,6.874l-2.448,13.971c-1.11,6.333,5.524,11.189,11.225,8.218l12.578-6.555
					c2.264-1.18,4.964-1.17,7.219,0.026l12.531,6.646c5.68,3.012,12.348-1.796,11.285-8.136l-2.347-13.988
					c-0.423-2.518,0.421-5.083,2.256-6.858L3176.755,3260.944z"/>
			</g>
		</g>
	</g>
	<g>
		<g>
			<g>
				<path style="fill:#666766;" d="M1833.517,3263.07c3.173-3.071,4.384-7.612,3.16-11.851c-1.226-4.247-4.661-7.446-8.964-8.348
					c-0.237-0.05-0.479-0.093-0.72-0.129l-14.029-2.091c-0.071-0.01-0.141-0.023-0.21-0.038c-1.097-0.23-2.009-0.94-2.501-1.947
					l-6.231-12.742c-1.626-3.324-4.619-5.664-8.214-6.417c-5.319-1.116-10.72,1.491-13.135,6.34l-6.323,12.696
					c-0.53,1.064-1.549,1.798-2.725,1.965l-14.044,1.989c-4.519,0.64-8.212,3.731-9.639,8.067s-0.289,9.016,2.968,12.213
					l10.121,9.937c0.848,0.833,1.232,2.029,1.027,3.199l-2.448,13.971c-1.116,6.367,2.976,12.396,9.315,13.725
					c2.693,0.565,5.428,0.18,7.911-1.114l12.578-6.555c0.739-0.385,1.595-0.503,2.41-0.332c0.331,0.07,0.651,0.185,0.95,0.344
					l12.531,6.646c1.012,0.537,2.081,0.925,3.178,1.155h0c3.82,0.802,7.808-0.359,10.665-3.103
					c2.869-2.755,4.135-6.596,3.474-10.539l-2.347-13.988c-0.197-1.172,0.196-2.365,1.05-3.192L1833.517,3263.07z
					 M1818.185,3276.812l2.347,13.988c1.064,6.341-5.605,11.149-11.285,8.136l-12.531-6.646c-2.255-1.196-4.955-1.206-7.219-0.026
					l-12.578,6.555c-5.702,2.971-12.335-1.885-11.225-8.218l2.449-13.971c0.441-2.515-0.384-5.085-2.206-6.874l-10.121-9.937
					c-4.588-4.504-2.019-12.314,4.347-13.216l14.044-1.989c2.528-0.358,4.718-1.937,5.856-4.222l6.323-12.696
					c2.866-5.755,11.088-5.725,13.912,0.051l6.231,12.742c1.122,2.293,3.3,3.888,5.825,4.265l14.029,2.091
					c6.359,0.948,8.871,8.775,4.251,13.247l-10.193,9.864C1818.606,3271.729,1817.763,3274.294,1818.185,3276.812z"/>
				<path style="fill:#EFE10D;" d="M1830.634,3260.091c4.62-4.471,2.108-12.299-4.251-13.247l-14.029-2.091
					c-2.525-0.376-4.703-1.971-5.825-4.265l-6.231-12.742c-2.824-5.776-11.046-5.805-13.912-0.051l-6.323,12.696
					c-1.138,2.285-3.328,3.864-5.856,4.222l-14.044,1.989c-6.366,0.901-8.935,8.711-4.347,13.216l10.121,9.937
					c1.822,1.789,2.647,4.359,2.206,6.874l-2.449,13.971c-1.11,6.333,5.524,11.189,11.225,8.218l12.578-6.555
					c2.264-1.18,4.964-1.17,7.219,0.026l12.531,6.646c5.68,3.012,12.349-1.796,11.285-8.136l-2.347-13.988
					c-0.422-2.518,0.421-5.083,2.256-6.858L1830.634,3260.091z"/>
			</g>
		</g>
		<g>
			<g>
				<path style="fill:#666766;" d="M1957.38,3263.07c3.173-3.071,4.384-7.612,3.16-11.851c-1.226-4.247-4.661-7.446-8.964-8.348
					c-0.237-0.05-0.479-0.093-0.72-0.129l-14.029-2.091c-0.071-0.01-0.141-0.023-0.21-0.038c-1.097-0.23-2.009-0.94-2.501-1.947
					l-6.231-12.742c-1.626-3.324-4.619-5.663-8.214-6.417c-5.319-1.116-10.72,1.491-13.135,6.34l-6.323,12.696
					c-0.53,1.064-1.549,1.799-2.725,1.965l-14.044,1.989c-4.519,0.64-8.213,3.731-9.639,8.067s-0.289,9.016,2.968,12.213
					l10.121,9.938c0.848,0.833,1.232,2.029,1.027,3.199l-2.448,13.971c-1.116,6.367,2.976,12.396,9.315,13.725
					c2.693,0.565,5.428,0.18,7.911-1.114l12.578-6.555c0.739-0.385,1.595-0.503,2.41-0.332c0.331,0.069,0.65,0.185,0.95,0.344
					l12.531,6.646c1.012,0.536,2.081,0.925,3.178,1.155h0c3.82,0.801,7.807-0.359,10.665-3.103
					c2.869-2.755,4.135-6.596,3.474-10.538l-2.347-13.989c-0.197-1.172,0.196-2.365,1.05-3.192L1957.38,3263.07z M1942.048,3276.812
					l2.347,13.988c1.064,6.341-5.605,11.149-11.285,8.136l-12.53-6.646c-2.256-1.196-4.955-1.206-7.219-0.026l-12.578,6.555
					c-5.702,2.971-12.335-1.885-11.225-8.218l2.448-13.971c0.441-2.515-0.384-5.085-2.206-6.874l-10.121-9.937
					c-4.588-4.504-2.019-12.314,4.347-13.216l14.044-1.989c2.528-0.358,4.718-1.937,5.856-4.222l6.323-12.696
					c2.866-5.755,11.088-5.725,13.912,0.051l6.231,12.742c1.122,2.293,3.3,3.888,5.825,4.265l14.029,2.09
					c6.359,0.948,8.871,8.776,4.251,13.247l-10.193,9.864C1942.469,3271.729,1941.626,3274.294,1942.048,3276.812z"/>
				<path style="fill:#EFE10D;" d="M1954.497,3260.09c4.62-4.471,2.108-12.299-4.251-13.247l-14.029-2.09
					c-2.525-0.376-4.703-1.971-5.825-4.265l-6.231-12.742c-2.824-5.776-11.046-5.805-13.912-0.051l-6.323,12.696
					c-1.138,2.285-3.328,3.864-5.856,4.222l-14.044,1.989c-6.366,0.901-8.935,8.711-4.347,13.216l10.121,9.937
					c1.822,1.789,2.647,4.359,2.206,6.874l-2.448,13.971c-1.11,6.333,5.524,11.189,11.225,8.218l12.578-6.555
					c2.264-1.18,4.964-1.17,7.219,0.026l12.53,6.646c5.68,3.013,12.349-1.796,11.285-8.136l-2.347-13.988
					c-0.422-2.518,0.421-5.083,2.256-6.858L1954.497,3260.09z"/>
			</g>
		</g>
		<g>
			<g>
				<path style="fill:#666766;" d="M2081.237,3263.07c3.173-3.071,4.384-7.612,3.16-11.851c-1.226-4.247-4.661-7.446-8.964-8.348
					c-0.237-0.05-0.479-0.093-0.72-0.129l-14.029-2.091c-0.071-0.01-0.141-0.023-0.21-0.038c-1.097-0.23-2.009-0.94-2.501-1.947
					l-6.231-12.742c-1.626-3.324-4.619-5.664-8.214-6.417c-5.319-1.116-10.72,1.491-13.135,6.34l-6.323,12.696
					c-0.53,1.064-1.549,1.798-2.725,1.965l-14.044,1.989c-4.519,0.64-8.213,3.731-9.639,8.067s-0.289,9.016,2.968,12.213
					l10.121,9.937c0.848,0.833,1.232,2.029,1.027,3.199l-2.448,13.971c-1.116,6.367,2.976,12.396,9.315,13.725
					c2.693,0.565,5.428,0.18,7.911-1.114l12.578-6.555c0.739-0.385,1.595-0.503,2.41-0.332c0.331,0.07,0.651,0.185,0.95,0.344
					l12.531,6.646c1.011,0.536,2.081,0.925,3.178,1.155h0c3.821,0.802,7.808-0.359,10.666-3.103
					c2.869-2.755,4.135-6.596,3.474-10.539l-2.347-13.988c-0.197-1.172,0.196-2.365,1.05-3.192L2081.237,3263.07z
					 M2065.905,3276.812l2.347,13.988c1.064,6.341-5.605,11.149-11.285,8.136l-12.531-6.646c-2.255-1.196-4.955-1.206-7.219-0.026
					l-12.578,6.555c-5.702,2.971-12.335-1.885-11.225-8.218l2.448-13.971c0.441-2.515-0.384-5.085-2.206-6.874l-10.121-9.937
					c-4.588-4.504-2.019-12.314,4.347-13.216l14.044-1.989c2.528-0.358,4.718-1.937,5.856-4.222l6.323-12.696
					c2.866-5.755,11.087-5.725,13.912,0.051l6.231,12.742c1.122,2.293,3.3,3.888,5.825,4.264l14.029,2.091
					c6.359,0.948,8.871,8.775,4.251,13.247l-10.193,9.864C2066.326,3271.729,2065.482,3274.294,2065.905,3276.812z"/>
				<path style="fill:#EFE10D;" d="M2078.354,3260.09c4.62-4.471,2.108-12.299-4.251-13.247l-14.029-2.091
					c-2.525-0.376-4.703-1.971-5.825-4.264l-6.231-12.742c-2.825-5.776-11.046-5.805-13.912-0.051l-6.323,12.696
					c-1.138,2.285-3.328,3.864-5.856,4.222l-14.044,1.989c-6.366,0.901-8.935,8.711-4.347,13.216l10.121,9.937
					c1.822,1.789,2.647,4.359,2.206,6.874l-2.448,13.971c-1.11,6.333,5.524,11.189,11.225,8.218l12.578-6.555
					c2.264-1.18,4.964-1.17,7.219,0.026l12.531,6.646c5.68,3.012,12.349-1.796,11.285-8.136l-2.347-13.988
					c-0.423-2.518,0.421-5.083,2.256-6.858L2078.354,3260.09z"/>
			</g>
		</g>
		<g>
			<g>
				<path style="fill:#666766;" d="M2195.268,3263.07c3.173-3.071,4.384-7.612,3.16-11.851c-1.226-4.247-4.661-7.446-8.964-8.348
					c-0.237-0.05-0.479-0.093-0.72-0.129l-14.029-2.091c-0.071-0.01-0.141-0.023-0.21-0.038c-1.097-0.23-2.009-0.94-2.501-1.947
					l-6.231-12.742c-1.626-3.324-4.619-5.664-8.214-6.417c-5.319-1.116-10.72,1.491-13.135,6.34l-6.323,12.696
					c-0.53,1.064-1.549,1.798-2.726,1.965l-14.044,1.989c-4.519,0.64-8.212,3.731-9.639,8.067
					c-1.426,4.336-0.289,9.016,2.968,12.213l10.121,9.937c0.848,0.833,1.232,2.029,1.027,3.199l-2.448,13.971
					c-1.116,6.367,2.976,12.396,9.315,13.725c2.693,0.565,5.428,0.18,7.911-1.114l12.579-6.555c0.739-0.385,1.595-0.503,2.41-0.332
					c0.331,0.07,0.65,0.185,0.95,0.344l12.531,6.646c1.011,0.537,2.081,0.925,3.178,1.155l0,0c3.82,0.802,7.808-0.359,10.666-3.103
					c2.869-2.755,4.135-6.596,3.474-10.539l-2.347-13.988c-0.197-1.172,0.196-2.365,1.05-3.192L2195.268,3263.07z
					 M2179.936,3276.812l2.347,13.988c1.064,6.341-5.605,11.149-11.285,8.136l-12.531-6.646c-2.256-1.196-4.955-1.206-7.219-0.026
					l-12.578,6.555c-5.701,2.971-12.335-1.885-11.225-8.218l2.448-13.971c0.441-2.515-0.384-5.085-2.206-6.874l-10.121-9.937
					c-4.588-4.504-2.019-12.314,4.347-13.216l14.044-1.989c2.528-0.358,4.718-1.937,5.856-4.222l6.323-12.696
					c2.866-5.755,11.088-5.725,13.912,0.051l6.231,12.742c1.122,2.293,3.3,3.888,5.825,4.265l14.029,2.091
					c6.359,0.948,8.871,8.775,4.251,13.247l-10.193,9.864C2180.357,3271.729,2179.513,3274.294,2179.936,3276.812z"/>
				<path style="fill:#DBD9D9;" d="M2192.385,3260.091c4.62-4.471,2.108-12.299-4.251-13.247l-14.029-2.091
					c-2.525-0.376-4.704-1.971-5.825-4.265l-6.231-12.742c-2.824-5.776-11.046-5.805-13.912-0.051l-6.323,12.696
					c-1.138,2.285-3.328,3.864-5.856,4.222l-14.044,1.989c-6.366,0.901-8.935,8.711-4.347,13.216l10.121,9.937
					c1.822,1.789,2.647,4.359,2.206,6.874l-2.448,13.971c-1.11,6.333,5.524,11.189,11.225,8.218l12.578-6.555
					c2.264-1.18,4.964-1.17,7.219,0.026l12.531,6.646c5.68,3.012,12.348-1.796,11.285-8.136l-2.347-13.988
					c-0.423-2.518,0.421-5.083,2.256-6.858L2192.385,3260.091z"/>
			</g>
		</g>
		<g>
			<g>
				<path style="fill:#666766;" d="M2311.295,3263.07c3.173-3.071,4.384-7.612,3.16-11.851c-1.226-4.247-4.661-7.446-8.964-8.348
					c-0.237-0.05-0.479-0.093-0.72-0.129l-14.029-2.091c-0.071-0.01-0.141-0.023-0.21-0.038c-1.097-0.23-2.009-0.94-2.501-1.947
					l-6.231-12.742c-1.626-3.324-4.619-5.663-8.214-6.417c-5.319-1.116-10.72,1.491-13.135,6.34l-6.323,12.696
					c-0.53,1.064-1.549,1.799-2.725,1.965l-14.044,1.989c-4.519,0.64-8.213,3.731-9.639,8.067
					c-1.426,4.336-0.289,9.016,2.968,12.213l10.121,9.938c0.848,0.833,1.232,2.029,1.027,3.199l-2.448,13.971
					c-1.116,6.367,2.976,12.396,9.315,13.725c2.693,0.565,5.428,0.18,7.911-1.114l12.578-6.555c0.739-0.385,1.595-0.503,2.41-0.332
					c0.331,0.069,0.65,0.185,0.95,0.344l12.531,6.646c1.011,0.536,2.081,0.925,3.178,1.155l0,0c3.82,0.801,7.808-0.359,10.665-3.103
					c2.869-2.755,4.135-6.596,3.474-10.539l-2.347-13.988c-0.197-1.172,0.196-2.365,1.05-3.192L2311.295,3263.07z
					 M2295.963,3276.811l2.347,13.988c1.064,6.341-5.605,11.149-11.285,8.136l-12.531-6.646c-2.255-1.196-4.955-1.206-7.219-0.026
					l-12.578,6.555c-5.702,2.971-12.335-1.885-11.225-8.218l2.448-13.971c0.441-2.515-0.384-5.085-2.206-6.874l-10.121-9.937
					c-4.588-4.504-2.019-12.314,4.347-13.216l14.044-1.989c2.528-0.358,4.718-1.937,5.856-4.222l6.323-12.696
					c2.866-5.755,11.087-5.725,13.912,0.051l6.231,12.742c1.122,2.293,3.3,3.888,5.825,4.265l14.029,2.09
					c6.359,0.948,8.871,8.776,4.251,13.247l-10.193,9.864C2296.384,3271.729,2295.54,3274.293,2295.963,3276.811z"/>
				<path style="fill:#DBD9D9;" d="M2308.411,3260.09c4.62-4.471,2.108-12.299-4.251-13.247l-14.029-2.09
					c-2.525-0.376-4.704-1.971-5.825-4.265l-6.231-12.742c-2.825-5.776-11.046-5.805-13.912-0.051l-6.323,12.696
					c-1.138,2.285-3.328,3.864-5.856,4.222l-14.044,1.989c-6.366,0.901-8.935,8.711-4.347,13.216l10.121,9.937
					c1.822,1.789,2.647,4.359,2.206,6.874l-2.448,13.971c-1.11,6.333,5.524,11.189,11.225,8.218l12.578-6.555
					c2.264-1.18,4.964-1.17,7.219,0.026l12.531,6.646c5.68,3.013,12.349-1.796,11.285-8.136l-2.347-13.988
					c-0.423-2.518,0.421-5.083,2.256-6.858L2308.411,3260.09z"/>
			</g>
		</g>
	</g>
	<g>
		<g>
			<g>
				<path style="fill:#666766;" d="M1807.295,2381.171c3.173-3.071,4.384-7.612,3.16-11.851c-1.226-4.247-4.661-7.446-8.964-8.348
					c-0.237-0.05-0.479-0.093-0.72-0.129l-14.029-2.091c-0.071-0.01-0.141-0.023-0.21-0.038c-1.097-0.23-2.009-0.94-2.501-1.947
					l-6.231-12.742c-1.626-3.324-4.619-5.663-8.214-6.417c-5.319-1.116-10.72,1.491-13.135,6.34l-6.323,12.696
					c-0.53,1.064-1.549,1.799-2.726,1.965l-14.044,1.989c-4.519,0.64-8.213,3.731-9.639,8.067s-0.289,9.016,2.968,12.213
					l10.121,9.938c0.848,0.832,1.232,2.029,1.027,3.199l-2.448,13.971c-1.116,6.367,2.976,12.396,9.315,13.725
					c2.693,0.565,5.428,0.18,7.911-1.114l12.578-6.555c0.739-0.385,1.595-0.503,2.41-0.332c0.331,0.07,0.651,0.185,0.95,0.344
					l12.531,6.646c1.012,0.536,2.081,0.925,3.178,1.155h0c3.82,0.801,7.808-0.359,10.665-3.103
					c2.869-2.755,4.135-6.596,3.474-10.539l-2.347-13.988c-0.197-1.172,0.196-2.365,1.05-3.192L1807.295,2381.171z
					 M1791.963,2394.913l2.347,13.988c1.064,6.341-5.605,11.149-11.285,8.136l-12.531-6.646c-2.255-1.196-4.955-1.206-7.219-0.026
					l-12.578,6.555c-5.702,2.971-12.335-1.885-11.225-8.218l2.448-13.971c0.441-2.515-0.384-5.085-2.206-6.874l-10.121-9.937
					c-4.588-4.504-2.019-12.314,4.347-13.216l14.044-1.989c2.528-0.358,4.718-1.937,5.856-4.222l6.323-12.696
					c2.866-5.755,11.088-5.725,13.912,0.051l6.231,12.742c1.122,2.293,3.3,3.888,5.825,4.265l14.029,2.09
					c6.359,0.948,8.871,8.776,4.251,13.247l-10.193,9.864C1792.384,2389.83,1791.541,2392.395,1791.963,2394.913z"/>
				<path style="fill:#EFE10D;" d="M1804.412,2378.191c4.62-4.471,2.108-12.299-4.251-13.247l-14.029-2.09
					c-2.525-0.376-4.703-1.971-5.825-4.265l-6.231-12.742c-2.824-5.776-11.046-5.805-13.912-0.051l-6.323,12.696
					c-1.138,2.285-3.328,3.864-5.856,4.222l-14.044,1.989c-6.366,0.901-8.935,8.711-4.347,13.216l10.121,9.937
					c1.822,1.789,2.647,4.359,2.206,6.874l-2.448,13.971c-1.11,6.333,5.524,11.189,11.225,8.218l12.578-6.555
					c2.264-1.18,4.964-1.17,7.219,0.026l12.531,6.646c5.68,3.013,12.349-1.796,11.285-8.136l-2.347-13.988
					c-0.422-2.518,0.421-5.083,2.256-6.858L1804.412,2378.191z"/>
			</g>
		</g>
		<g>
			<g>
				<path style="fill:#666766;" d="M1931.158,2381.171c3.173-3.071,4.384-7.612,3.16-11.851c-1.226-4.247-4.661-7.446-8.964-8.348
					c-0.237-0.05-0.479-0.093-0.72-0.129l-14.029-2.091c-0.071-0.01-0.141-0.023-0.21-0.038c-1.097-0.23-2.009-0.94-2.501-1.947
					l-6.231-12.742c-1.626-3.324-4.619-5.663-8.214-6.417c-5.319-1.116-10.721,1.491-13.135,6.34l-6.323,12.696
					c-0.53,1.064-1.549,1.799-2.725,1.965l-14.044,1.989c-4.519,0.64-8.213,3.731-9.639,8.067
					c-1.426,4.336-0.289,9.016,2.968,12.213l10.121,9.937c0.848,0.833,1.232,2.029,1.027,3.199l-2.448,13.971
					c-1.116,6.367,2.976,12.396,9.315,13.725c2.693,0.565,5.428,0.18,7.911-1.114l12.578-6.555c0.739-0.385,1.595-0.503,2.41-0.332
					c0.331,0.07,0.651,0.185,0.95,0.344l12.531,6.646c1.012,0.536,2.081,0.925,3.178,1.155h0c3.82,0.801,7.808-0.359,10.665-3.103
					c2.869-2.755,4.135-6.596,3.474-10.539l-2.347-13.988c-0.197-1.172,0.196-2.365,1.05-3.192L1931.158,2381.171z
					 M1915.826,2394.912l2.347,13.988c1.064,6.341-5.605,11.149-11.285,8.136l-12.531-6.646c-2.255-1.196-4.955-1.206-7.219-0.026
					l-12.578,6.555c-5.702,2.971-12.335-1.885-11.225-8.218l2.448-13.971c0.441-2.515-0.384-5.085-2.206-6.874l-10.121-9.938
					c-4.588-4.504-2.019-12.314,4.347-13.215l14.044-1.989c2.528-0.358,4.718-1.937,5.856-4.222l6.323-12.696
					c2.866-5.755,11.088-5.725,13.912,0.051l6.231,12.742c1.122,2.293,3.3,3.888,5.825,4.264l14.029,2.091
					c6.359,0.948,8.871,8.776,4.251,13.247l-10.193,9.864C1916.247,2389.83,1915.404,2392.394,1915.826,2394.912z"/>
				<path style="fill:#EFE10D;" d="M1928.275,2378.191c4.62-4.471,2.108-12.299-4.251-13.247l-14.029-2.091
					c-2.525-0.376-4.704-1.971-5.825-4.264l-6.231-12.742c-2.824-5.776-11.046-5.805-13.912-0.051l-6.323,12.696
					c-1.138,2.285-3.328,3.864-5.856,4.222l-14.044,1.989c-6.366,0.901-8.935,8.711-4.347,13.215l10.121,9.938
					c1.822,1.789,2.647,4.359,2.206,6.874l-2.448,13.971c-1.11,6.333,5.524,11.189,11.225,8.218l12.578-6.555
					c2.264-1.18,4.964-1.17,7.219,0.026l12.531,6.646c5.68,3.012,12.349-1.796,11.285-8.136l-2.347-13.988
					c-0.422-2.518,0.421-5.083,2.256-6.858L1928.275,2378.191z"/>
			</g>
		</g>
		<g>
			<g>
				<path style="fill:#666766;" d="M2055.015,2381.17c3.173-3.071,4.384-7.612,3.16-11.851c-1.226-4.247-4.661-7.446-8.964-8.348
					c-0.237-0.05-0.479-0.093-0.719-0.129l-14.029-2.091c-0.071-0.01-0.141-0.023-0.21-0.038c-1.097-0.23-2.009-0.94-2.501-1.947
					l-6.231-12.742c-1.626-3.324-4.619-5.663-8.214-6.417c-5.319-1.116-10.72,1.491-13.135,6.34l-6.323,12.696
					c-0.53,1.064-1.549,1.799-2.725,1.965l-14.044,1.989c-4.519,0.64-8.213,3.731-9.639,8.067
					c-1.426,4.336-0.289,9.016,2.968,12.213l10.121,9.937c0.848,0.833,1.232,2.029,1.027,3.199l-2.448,13.971
					c-1.116,6.367,2.976,12.396,9.315,13.725c2.693,0.565,5.428,0.179,7.911-1.114l12.578-6.555c0.739-0.385,1.595-0.503,2.41-0.332
					c0.331,0.07,0.65,0.185,0.95,0.344l12.53,6.646c1.012,0.536,2.081,0.925,3.178,1.155h0c3.82,0.801,7.808-0.359,10.666-3.103
					c2.869-2.755,4.135-6.596,3.474-10.539l-2.347-13.988c-0.197-1.172,0.196-2.365,1.05-3.192L2055.015,2381.17z
					 M2039.683,2394.912l2.347,13.988c1.064,6.341-5.605,11.149-11.285,8.136l-12.531-6.646c-2.255-1.196-4.955-1.206-7.219-0.026
					l-12.578,6.555c-5.702,2.971-12.335-1.885-11.225-8.218l2.448-13.971c0.441-2.515-0.384-5.085-2.206-6.874l-10.121-9.937
					c-4.588-4.504-2.019-12.314,4.347-13.216l14.044-1.989c2.528-0.358,4.718-1.937,5.856-4.222l6.323-12.696
					c2.866-5.755,11.088-5.725,13.912,0.051l6.231,12.742c1.122,2.293,3.3,3.888,5.825,4.265l14.029,2.09
					c6.359,0.948,8.871,8.776,4.251,13.247l-10.193,9.864C2040.104,2389.83,2039.26,2392.394,2039.683,2394.912z"/>
				<path style="fill:#EFE10D;" d="M2052.132,2378.191c4.62-4.471,2.108-12.299-4.251-13.247l-14.029-2.09
					c-2.525-0.376-4.703-1.971-5.825-4.265l-6.231-12.742c-2.824-5.776-11.046-5.805-13.912-0.051l-6.323,12.696
					c-1.138,2.285-3.328,3.864-5.856,4.222l-14.044,1.989c-6.366,0.901-8.935,8.711-4.347,13.216l10.121,9.937
					c1.822,1.789,2.647,4.359,2.206,6.874l-2.448,13.971c-1.11,6.333,5.524,11.189,11.225,8.218l12.578-6.555
					c2.264-1.18,4.964-1.17,7.219,0.026l12.531,6.646c5.68,3.013,12.349-1.796,11.285-8.136l-2.347-13.988
					c-0.422-2.518,0.421-5.083,2.256-6.858L2052.132,2378.191z"/>
			</g>
		</g>
		<g>
			<g>
				<path style="fill:#666766;" d="M2169.046,2381.171c3.173-3.071,4.384-7.612,3.16-11.851c-1.226-4.247-4.661-7.446-8.964-8.348
					c-0.237-0.05-0.479-0.093-0.719-0.129l-14.029-2.091c-0.071-0.01-0.141-0.023-0.21-0.038c-1.097-0.23-2.009-0.94-2.501-1.947
					l-6.231-12.742c-1.626-3.324-4.62-5.663-8.214-6.417c-5.319-1.116-10.72,1.491-13.135,6.34l-6.323,12.696
					c-0.53,1.064-1.549,1.799-2.725,1.965l-14.044,1.989c-4.519,0.64-8.213,3.731-9.639,8.067
					c-1.426,4.336-0.289,9.016,2.968,12.213l10.121,9.938c0.848,0.832,1.232,2.029,1.027,3.199l-2.448,13.971
					c-1.116,6.367,2.976,12.396,9.315,13.725c2.693,0.565,5.428,0.18,7.911-1.114l12.578-6.555c0.739-0.385,1.595-0.503,2.41-0.332
					c0.331,0.07,0.651,0.185,0.95,0.344l12.531,6.646c1.012,0.536,2.081,0.925,3.178,1.155h0c3.82,0.801,7.808-0.359,10.665-3.103
					c2.869-2.755,4.135-6.596,3.474-10.539l-2.347-13.988c-0.197-1.172,0.196-2.365,1.05-3.192L2169.046,2381.171z
					 M2153.714,2394.913l2.347,13.988c1.064,6.341-5.605,11.149-11.285,8.136l-12.531-6.646c-2.255-1.196-4.955-1.206-7.219-0.026
					l-12.578,6.555c-5.702,2.971-12.335-1.885-11.225-8.218l2.448-13.971c0.441-2.515-0.384-5.085-2.206-6.874l-10.121-9.937
					c-4.588-4.504-2.019-12.314,4.347-13.216l14.044-1.989c2.528-0.358,4.718-1.937,5.856-4.222l6.323-12.696
					c2.866-5.755,11.087-5.725,13.912,0.051l6.231,12.742c1.122,2.293,3.3,3.888,5.825,4.265l14.029,2.09
					c6.359,0.948,8.871,8.776,4.251,13.247l-10.193,9.864C2154.135,2389.83,2153.292,2392.395,2153.714,2394.913z"/>
				<path style="fill:#DBD9D9;" d="M2166.163,2378.191c4.62-4.471,2.108-12.299-4.251-13.247l-14.029-2.09
					c-2.525-0.376-4.704-1.971-5.825-4.265l-6.231-12.742c-2.825-5.776-11.046-5.805-13.912-0.051l-6.323,12.696
					c-1.138,2.285-3.328,3.864-5.856,4.222l-14.044,1.989c-6.366,0.901-8.935,8.711-4.347,13.216l10.121,9.937
					c1.822,1.789,2.647,4.359,2.206,6.874l-2.448,13.971c-1.11,6.333,5.524,11.189,11.225,8.218l12.578-6.555
					c2.264-1.18,4.964-1.17,7.219,0.026l12.531,6.646c5.68,3.013,12.349-1.796,11.285-8.136l-2.347-13.988
					c-0.422-2.518,0.421-5.083,2.256-6.858L2166.163,2378.191z"/>
			</g>
		</g>
		<g>
			<g>
				<path style="fill:#666766;" d="M2285.073,2381.17c3.173-3.071,4.384-7.612,3.16-11.851c-1.226-4.247-4.661-7.446-8.964-8.348
					c-0.237-0.05-0.479-0.093-0.72-0.129l-14.029-2.091c-0.071-0.01-0.141-0.023-0.21-0.038c-1.097-0.23-2.009-0.94-2.501-1.947
					l-6.231-12.742c-1.626-3.324-4.619-5.663-8.214-6.417c-5.319-1.116-10.72,1.491-13.135,6.34l-6.323,12.696
					c-0.53,1.064-1.549,1.799-2.726,1.965l-14.044,1.989c-4.519,0.64-8.213,3.731-9.639,8.067
					c-1.426,4.336-0.289,9.016,2.968,12.213l10.121,9.937c0.848,0.833,1.232,2.029,1.027,3.199l-2.448,13.971
					c-1.116,6.367,2.976,12.396,9.315,13.725c2.692,0.565,5.428,0.18,7.911-1.114l12.578-6.555c0.739-0.385,1.595-0.503,2.41-0.332
					c0.331,0.07,0.65,0.185,0.95,0.344l12.531,6.646c1.012,0.536,2.081,0.925,3.178,1.155h0c3.82,0.801,7.808-0.359,10.665-3.103
					c2.869-2.755,4.135-6.596,3.474-10.539l-2.347-13.988c-0.197-1.172,0.196-2.365,1.05-3.192L2285.073,2381.17z
					 M2269.741,2394.912l2.347,13.989c1.064,6.341-5.605,11.149-11.285,8.136l-12.531-6.646c-2.255-1.196-4.955-1.206-7.219-0.026
					l-12.578,6.555c-5.702,2.971-12.335-1.885-11.225-8.218l2.448-13.971c0.441-2.515-0.384-5.085-2.206-6.874l-10.121-9.938
					c-4.588-4.504-2.019-12.314,4.347-13.215l14.044-1.989c2.528-0.358,4.718-1.937,5.856-4.222l6.323-12.696
					c2.866-5.755,11.087-5.725,13.912,0.051l6.231,12.742c1.122,2.294,3.3,3.888,5.825,4.265l14.029,2.091
					c6.359,0.948,8.871,8.776,4.251,13.247l-10.193,9.864C2270.162,2389.829,2269.318,2392.394,2269.741,2394.912z"/>
				<path style="fill:#DBD9D9;" d="M2282.189,2378.19c4.62-4.471,2.108-12.299-4.251-13.247l-14.029-2.091
					c-2.525-0.376-4.703-1.971-5.825-4.265l-6.231-12.742c-2.824-5.776-11.046-5.805-13.912-0.051l-6.323,12.696
					c-1.138,2.285-3.328,3.864-5.856,4.222l-14.044,1.989c-6.366,0.901-8.935,8.711-4.347,13.215l10.121,9.938
					c1.822,1.789,2.646,4.359,2.206,6.874l-2.448,13.971c-1.11,6.333,5.524,11.189,11.225,8.218l12.578-6.555
					c2.264-1.18,4.964-1.17,7.219,0.026l12.531,6.646c5.68,3.012,12.349-1.796,11.285-8.136l-2.347-13.989
					c-0.422-2.518,0.421-5.082,2.256-6.858L2282.189,2378.19z"/>
			</g>
		</g>
	</g>
	<g>
		<g>
			<g>
				<path style="fill:#666766;" d="M2684.836,2376.861c3.173-3.071,4.384-7.612,3.16-11.851c-1.227-4.247-4.661-7.446-8.964-8.348
					c-0.237-0.05-0.479-0.093-0.72-0.129l-14.029-2.091c-0.071-0.01-0.141-0.023-0.21-0.038c-1.097-0.23-2.009-0.94-2.501-1.947
					l-6.231-12.742c-1.626-3.324-4.619-5.664-8.214-6.417c-5.319-1.116-10.72,1.491-13.135,6.34l-6.323,12.696
					c-0.53,1.064-1.549,1.799-2.726,1.965l-14.044,1.989c-4.519,0.64-8.212,3.731-9.639,8.067
					c-1.426,4.336-0.289,9.016,2.968,12.213l10.121,9.938c0.848,0.833,1.232,2.029,1.027,3.199l-2.448,13.971
					c-1.116,6.367,2.976,12.396,9.315,13.725c2.693,0.565,5.428,0.18,7.911-1.114l12.578-6.555c0.739-0.385,1.595-0.503,2.41-0.332
					c0.331,0.07,0.651,0.185,0.95,0.344l12.531,6.646c1.012,0.536,2.081,0.925,3.178,1.155h0c3.82,0.801,7.807-0.359,10.665-3.103
					c2.869-2.755,4.135-6.596,3.474-10.539l-2.347-13.988c-0.197-1.172,0.196-2.365,1.05-3.192L2684.836,2376.861z
					 M2669.504,2390.602l2.347,13.988c1.064,6.341-5.605,11.149-11.285,8.136l-12.531-6.646c-2.255-1.196-4.955-1.206-7.219-0.026
					l-12.578,6.555c-5.702,2.971-12.335-1.885-11.226-8.218l2.448-13.971c0.441-2.515-0.384-5.085-2.206-6.874l-10.121-9.937
					c-4.588-4.504-2.019-12.314,4.347-13.216l14.044-1.989c2.528-0.358,4.718-1.937,5.856-4.222l6.323-12.696
					c2.866-5.755,11.087-5.725,13.912,0.05l6.231,12.742c1.122,2.293,3.3,3.888,5.825,4.265l14.029,2.09
					c6.359,0.948,8.871,8.776,4.251,13.247l-10.193,9.864C2669.925,2385.52,2669.082,2388.084,2669.504,2390.602z"/>
				<path style="fill:#EFE10D;" d="M2681.953,2373.881c4.62-4.471,2.108-12.299-4.251-13.247l-14.029-2.09
					c-2.525-0.376-4.703-1.971-5.825-4.265l-6.231-12.742c-2.824-5.776-11.046-5.805-13.912-0.05l-6.323,12.696
					c-1.138,2.285-3.328,3.864-5.856,4.222l-14.044,1.989c-6.366,0.902-8.935,8.711-4.347,13.216l10.121,9.937
					c1.822,1.789,2.647,4.359,2.206,6.874l-2.448,13.971c-1.11,6.333,5.524,11.189,11.226,8.218l12.578-6.555
					c2.264-1.18,4.964-1.17,7.219,0.026l12.531,6.646c5.68,3.013,12.349-1.796,11.285-8.136l-2.347-13.988
					c-0.422-2.518,0.421-5.083,2.256-6.858L2681.953,2373.881z"/>
			</g>
		</g>
		<g>
			<g>
				<path style="fill:#666766;" d="M2808.699,2376.86c3.173-3.071,4.384-7.612,3.16-11.851c-1.226-4.247-4.661-7.446-8.964-8.348
					c-0.237-0.05-0.479-0.093-0.72-0.129l-14.029-2.091c-0.071-0.01-0.141-0.023-0.21-0.038c-1.097-0.23-2.009-0.94-2.501-1.947
					l-6.231-12.742c-1.626-3.324-4.619-5.663-8.214-6.417c-5.319-1.116-10.72,1.491-13.135,6.34l-6.323,12.696
					c-0.53,1.064-1.549,1.799-2.725,1.965l-14.044,1.989c-4.519,0.64-8.213,3.731-9.639,8.067
					c-1.426,4.336-0.289,9.016,2.968,12.214l10.121,9.937c0.848,0.833,1.232,2.028,1.027,3.199l-2.448,13.971
					c-1.116,6.367,2.976,12.396,9.315,13.725c2.693,0.565,5.428,0.18,7.911-1.114l12.578-6.555c0.739-0.385,1.595-0.503,2.41-0.332
					c0.331,0.069,0.651,0.185,0.95,0.344l12.531,6.646c1.012,0.536,2.081,0.925,3.178,1.155l0,0
					c3.82,0.801,7.808-0.359,10.665-3.103c2.869-2.755,4.135-6.596,3.474-10.539l-2.347-13.988c-0.197-1.172,0.196-2.365,1.05-3.192
					L2808.699,2376.86z M2793.367,2390.602l2.347,13.988c1.064,6.341-5.605,11.149-11.285,8.136l-12.531-6.646
					c-2.255-1.196-4.955-1.206-7.219-0.026l-12.578,6.555c-5.702,2.971-12.335-1.885-11.225-8.218l2.448-13.971
					c0.441-2.515-0.384-5.085-2.206-6.874l-10.121-9.938c-4.588-4.504-2.019-12.314,4.347-13.215l14.044-1.989
					c2.528-0.358,4.718-1.937,5.856-4.222l6.323-12.696c2.866-5.755,11.087-5.725,13.912,0.051l6.231,12.742
					c1.122,2.293,3.3,3.888,5.825,4.264l14.029,2.091c6.359,0.948,8.871,8.776,4.251,13.247l-10.193,9.864
					C2793.788,2385.52,2792.945,2388.084,2793.367,2390.602z"/>
				<path style="fill:#EFE10D;" d="M2805.816,2373.881c4.62-4.471,2.108-12.299-4.251-13.247l-14.029-2.091
					c-2.525-0.376-4.704-1.971-5.825-4.264l-6.231-12.742c-2.825-5.776-11.046-5.805-13.912-0.051l-6.323,12.696
					c-1.138,2.285-3.328,3.865-5.856,4.222l-14.044,1.989c-6.366,0.901-8.935,8.711-4.347,13.215l10.121,9.938
					c1.822,1.789,2.647,4.359,2.206,6.874l-2.448,13.971c-1.11,6.333,5.524,11.189,11.225,8.218l12.578-6.555
					c2.264-1.18,4.964-1.17,7.219,0.026l12.531,6.646c5.68,3.012,12.349-1.796,11.285-8.136l-2.347-13.988
					c-0.422-2.518,0.421-5.083,2.256-6.858L2805.816,2373.881z"/>
			</g>
		</g>
		<g>
			<g>
				<path style="fill:#666766;" d="M2932.556,2376.86c3.173-3.071,4.384-7.612,3.16-11.851c-1.226-4.247-4.661-7.446-8.964-8.348
					c-0.237-0.05-0.479-0.093-0.72-0.129l-14.029-2.091c-0.071-0.01-0.141-0.023-0.21-0.038c-1.097-0.23-2.009-0.94-2.501-1.947
					l-6.231-12.742c-1.626-3.324-4.619-5.664-8.214-6.417c-5.319-1.116-10.72,1.491-13.135,6.34l-6.323,12.696
					c-0.53,1.064-1.549,1.799-2.725,1.965l-14.044,1.989c-4.519,0.64-8.212,3.731-9.639,8.067
					c-1.426,4.336-0.289,9.016,2.968,12.213l10.121,9.937c0.848,0.833,1.232,2.029,1.027,3.199l-2.448,13.971
					c-1.116,6.367,2.976,12.396,9.315,13.725c2.692,0.565,5.428,0.179,7.911-1.114l12.578-6.555c0.739-0.385,1.595-0.503,2.41-0.332
					c0.331,0.07,0.65,0.185,0.95,0.344l12.531,6.646c1.012,0.536,2.081,0.925,3.178,1.155l0,0c3.82,0.801,7.808-0.359,10.666-3.103
					c2.869-2.755,4.135-6.596,3.474-10.539l-2.347-13.988c-0.197-1.172,0.196-2.365,1.05-3.192L2932.556,2376.86z
					 M2917.224,2390.602l2.347,13.988c1.064,6.341-5.605,11.149-11.285,8.136l-12.531-6.646c-2.256-1.196-4.955-1.206-7.219-0.026
					l-12.578,6.555c-5.702,2.971-12.335-1.885-11.226-8.218l2.448-13.971c0.441-2.515-0.384-5.085-2.206-6.874l-10.121-9.937
					c-4.587-4.504-2.019-12.314,4.347-13.216l14.044-1.989c2.528-0.358,4.718-1.937,5.856-4.222l6.323-12.697
					c2.866-5.755,11.087-5.725,13.912,0.051l6.231,12.742c1.122,2.293,3.3,3.888,5.825,4.265l14.029,2.09
					c6.359,0.948,8.871,8.776,4.251,13.247l-10.193,9.864C2917.645,2385.519,2916.802,2388.084,2917.224,2390.602z"/>
				<path style="fill:#EFE10D;" d="M2929.672,2373.88c4.62-4.471,2.108-12.299-4.251-13.247l-14.029-2.09
					c-2.525-0.376-4.703-1.971-5.825-4.265l-6.231-12.742c-2.824-5.776-11.046-5.805-13.912-0.051l-6.323,12.697
					c-1.138,2.285-3.328,3.864-5.856,4.222l-14.044,1.989c-6.366,0.902-8.935,8.711-4.347,13.216l10.121,9.937
					c1.822,1.789,2.646,4.359,2.206,6.874l-2.448,13.971c-1.11,6.333,5.524,11.189,11.226,8.218l12.578-6.555
					c2.264-1.18,4.964-1.17,7.219,0.026l12.531,6.646c5.68,3.013,12.349-1.796,11.285-8.136l-2.347-13.988
					c-0.422-2.518,0.421-5.083,2.256-6.858L2929.672,2373.88z"/>
			</g>
		</g>
		<g>
			<g>
				<path style="fill:#666766;" d="M3046.587,2376.861c3.173-3.071,4.384-7.612,3.16-11.851c-1.227-4.247-4.661-7.446-8.964-8.348
					c-0.237-0.05-0.479-0.093-0.72-0.129l-14.029-2.091c-0.071-0.01-0.141-0.023-0.21-0.038c-1.097-0.23-2.009-0.94-2.501-1.947
					l-6.231-12.742c-1.626-3.324-4.619-5.664-8.214-6.417c-5.319-1.116-10.72,1.491-13.135,6.34l-6.323,12.696
					c-0.53,1.064-1.549,1.799-2.726,1.965l-14.044,1.989c-4.519,0.64-8.212,3.731-9.639,8.067
					c-1.426,4.336-0.289,9.016,2.968,12.213l10.121,9.938c0.848,0.833,1.232,2.029,1.027,3.199l-2.448,13.971
					c-1.116,6.367,2.976,12.396,9.315,13.725c2.692,0.565,5.428,0.18,7.911-1.114l12.578-6.555c0.739-0.385,1.595-0.503,2.41-0.332
					c0.331,0.07,0.65,0.185,0.95,0.344l12.531,6.646c1.012,0.536,2.081,0.925,3.178,1.155l0,0c3.82,0.801,7.808-0.359,10.666-3.103
					c2.869-2.755,4.135-6.596,3.474-10.539l-2.347-13.988c-0.197-1.172,0.196-2.365,1.05-3.192L3046.587,2376.861z
					 M3031.255,2390.602l2.347,13.988c1.064,6.341-5.605,11.149-11.285,8.136l-12.531-6.646c-2.256-1.196-4.955-1.206-7.219-0.026
					l-12.578,6.555c-5.702,2.971-12.335-1.885-11.226-8.218l2.448-13.971c0.441-2.515-0.384-5.085-2.206-6.874l-10.121-9.937
					c-4.587-4.504-2.019-12.314,4.347-13.216l14.044-1.989c2.528-0.358,4.718-1.937,5.856-4.222l6.323-12.696
					c2.866-5.755,11.088-5.725,13.912,0.05l6.231,12.742c1.122,2.293,3.3,3.888,5.825,4.265l14.029,2.09
					c6.359,0.948,8.871,8.776,4.251,13.247l-10.193,9.864C3031.676,2385.52,3030.833,2388.084,3031.255,2390.602z"/>
				<path style="fill:#DBD9D9;" d="M3043.703,2373.881c4.62-4.471,2.108-12.299-4.251-13.247l-14.029-2.09
					c-2.525-0.376-4.703-1.971-5.825-4.265l-6.231-12.742c-2.824-5.776-11.046-5.805-13.912-0.05l-6.323,12.696
					c-1.138,2.285-3.328,3.864-5.856,4.222l-14.044,1.989c-6.366,0.902-8.935,8.711-4.347,13.216l10.121,9.937
					c1.822,1.789,2.646,4.359,2.206,6.874l-2.448,13.971c-1.11,6.333,5.524,11.189,11.226,8.218l12.578-6.555
					c2.264-1.18,4.964-1.17,7.219,0.026l12.531,6.646c5.68,3.013,12.349-1.796,11.285-8.136l-2.347-13.988
					c-0.422-2.518,0.421-5.083,2.256-6.858L3043.703,2373.881z"/>
			</g>
		</g>
		<g>
			<g>
				<path style="fill:#666766;" d="M3162.614,2376.86c3.173-3.071,4.384-7.612,3.16-11.851c-1.226-4.247-4.661-7.446-8.964-8.348
					c-0.237-0.05-0.479-0.093-0.72-0.129l-14.029-2.091c-0.071-0.01-0.141-0.023-0.21-0.038c-1.097-0.23-2.009-0.94-2.501-1.947
					l-6.231-12.742c-1.626-3.324-4.619-5.663-8.214-6.417c-5.319-1.116-10.721,1.491-13.135,6.34l-6.323,12.696
					c-0.53,1.064-1.549,1.799-2.725,1.965l-14.044,1.989c-4.519,0.64-8.212,3.731-9.639,8.067
					c-1.426,4.336-0.289,9.016,2.968,12.213l10.121,9.938c0.848,0.833,1.232,2.028,1.027,3.199l-2.448,13.971
					c-1.116,6.367,2.976,12.396,9.315,13.725c2.693,0.565,5.428,0.18,7.911-1.114l12.579-6.555c0.739-0.385,1.594-0.503,2.41-0.332
					c0.331,0.069,0.65,0.185,0.95,0.344l12.53,6.646c1.012,0.536,2.081,0.925,3.178,1.155l0,0c3.82,0.801,7.808-0.359,10.666-3.103
					c2.869-2.755,4.135-6.596,3.474-10.539l-2.347-13.988c-0.197-1.172,0.196-2.365,1.05-3.192L3162.614,2376.86z
					 M3147.281,2390.602l2.347,13.988c1.064,6.341-5.605,11.149-11.285,8.136l-12.531-6.646c-2.256-1.196-4.955-1.206-7.219-0.026
					l-12.578,6.555c-5.702,2.971-12.335-1.885-11.225-8.218l2.448-13.971c0.441-2.515-0.384-5.085-2.206-6.874l-10.121-9.938
					c-4.588-4.504-2.019-12.314,4.347-13.215l14.044-1.989c2.528-0.358,4.718-1.937,5.856-4.222l6.323-12.696
					c2.866-5.755,11.088-5.725,13.912,0.051l6.231,12.742c1.122,2.293,3.3,3.888,5.825,4.264l14.029,2.091
					c6.359,0.948,8.871,8.776,4.251,13.247l-10.193,9.864C3147.703,2385.519,3146.859,2388.083,3147.281,2390.602z"/>
				<path style="fill:#DBD9D9;" d="M3159.73,2373.88c4.62-4.471,2.108-12.299-4.251-13.247l-14.029-2.091
					c-2.525-0.376-4.704-1.971-5.825-4.264l-6.231-12.742c-2.824-5.776-11.046-5.805-13.912-0.051l-6.323,12.696
					c-1.138,2.285-3.328,3.864-5.856,4.222l-14.044,1.989c-6.366,0.901-8.935,8.711-4.347,13.215l10.121,9.938
					c1.822,1.789,2.647,4.359,2.206,6.874l-2.448,13.971c-1.11,6.333,5.524,11.189,11.225,8.218l12.578-6.555
					c2.264-1.18,4.964-1.17,7.219,0.026l12.531,6.646c5.68,3.012,12.348-1.796,11.285-8.136l-2.347-13.988
					c-0.422-2.518,0.421-5.083,2.256-6.858L3159.73,2373.88z"/>
			</g>
		</g>
	</g>
	<g>
		
			<ellipse transform="matrix(0.9239 -0.3827 0.3827 0.9239 -1230.7026 1146.4141)" style="fill:#B4B1B1;" cx="2266.354" cy="3666.786" rx="51.747" ry="51.747"/>
		
			<ellipse transform="matrix(0.9239 -0.3827 0.3827 0.9239 -1216.0623 1220.017)" style="fill:#CDCBCB;" cx="2458.688" cy="3666.786" rx="51.747" ry="51.747"/>
		
			<ellipse transform="matrix(0.9239 -0.3827 0.3827 0.9239 -1201.5992 1292.7268)" style="fill:#DEDCDC;" cx="2648.688" cy="3666.786" rx="51.747" ry="51.747"/>
	</g>
	<g>
		<g>
			<defs>
				<path id="XMLID_16_" d="M3034.784,1967.173c-4.837-29.023-32.927-22.276-56.572-49.201
					c-4.239,10.707-11.25,23.265-22.844,35.074c-28.255,28.778-48.131,46.939-57.553,97.246
					c-1.786,61.966-0.702,151.552-0.208,184.256h54.506l23.546-36.408l-0.523,14.432l38.72,3.139l1.57-17.571
					c0,0,16.22-19.579,21.976-67.717C3043.156,2082.285,3040.017,1998.567,3034.784,1967.173z"/>
			</defs>
			<use xlink:href="#XMLID_16_"  style="overflow:visible;fill:#B7B7B2;"/>
			<clipPath id="XMLID_00000155849490332270434090000003684745993328542398_">
				<use xlink:href="#XMLID_16_"  style="overflow:visible;"/>
			</clipPath>
			<path style="clip-path:url(#XMLID_00000155849490332270434090000003684745993328542398_);fill:#6A7179;" d="M2968.655,2217.252
				l7.004-19.113l5.344-203.159c0,0,4.186,4.827,4.651,29.478s-1.511,138.025-3.953,161.049S2968.655,2217.252,2968.655,2217.252z"
				/>
		</g>
		<path style="fill:#DCD0C2;" d="M2978.212,1917.972c-1.932-2.2-3.835-4.621-5.693-7.309c-12.178-17.619-25.894-25.217-36.64-28.401
			c-2.127,59.068-28.34,67.156-34.927,116.305c-1.509,11.26-2.503,29.758-3.136,51.724c9.422-50.307,29.298-68.468,57.553-97.246
			C2966.962,1941.237,2973.973,1928.678,2978.212,1917.972z"/>
		<g>
			<defs>
				<path id="XMLID_6_" d="M2877.984,2060.662c-7.271-79.703-87.958-105-87.958-105l-6.533-41.77v0
					c-24.263,31.733-54.851,22.876-59.918,53.281c-5.232,31.394-8.372,115.112-2.616,163.25
					c5.755,48.138,21.976,67.717,21.976,67.717l1.57,17.571l38.72-3.139l-0.523-14.432l23.546,36.408h70.521h2.456
					c0.075-27.385,0.198-88.996-0.043-134.472C2879.109,2086.912,2878.735,2073.65,2877.984,2060.662z"/>
			</defs>
			<use xlink:href="#XMLID_6_"  style="overflow:visible;fill:#B7B7B2;"/>
			<clipPath id="XMLID_00000039825586955274290180000005120264277832304544_">
				<use xlink:href="#XMLID_6_"  style="overflow:visible;"/>
			</clipPath>
			<path style="clip-path:url(#XMLID_00000039825586955274290180000005120264277832304544_);fill:#6A7179;" d="M2789.139,2219.694
				l-6.439-21.554l-2.093-191.201c0,0,5.232,2.275,6.802,53.723C2788.979,2112.11,2789.139,2219.694,2789.139,2219.694z"/>
		</g>
		<path style="fill:#DCD0C2;" d="M2790.025,1955.661c0,0,80.688,25.298,87.958,105c-2.681-46.385-10.16-89.262-25.693-111.537
			c-19.883-28.513-25.27-68.001-25.27-68.001c-11.213,2.299-27.209,9.324-41.182,29.539c-0.775,1.121-1.558,2.196-2.347,3.229v0
			L2790.025,1955.661z"/>
		<path style="fill:#6A7179;" d="M2900.952,1998.567c6.587-49.149,32.8-57.237,34.927-116.305
			c-10.954-3.246-18.823-1.905-18.823-1.905h-35.464h-4.825h-35.464c0,0-5.759-0.981-14.281,0.767c0,0,5.387,39.488,25.27,68.001
			c19.883,28.513,26.569,90.778,26.889,150.95c0.242,45.476,0.118,107.087,0.043,134.472h2.369h16.015
			C2896.939,2190.25,2895.186,2041.589,2900.952,1998.567z"/>
	</g>
	<g>
		<path style="fill:#6D5C49;" d="M3804.259,3769.301c-26.849-24.052-61.529-33.002-59.851-45.867
			c4.37-33.506-25.73-60.41-25.73-60.41s0.027-1.645,0.068-4.468c-0.002-0.001-35.494-13.432-59.359-47.739
			c-23.865-34.307-51.46-61.156-79.055-106.649c-27.594-45.494-90.988-108.888-90.988-108.888s-27.595-31.696-42.511-69.545
			c-10.962-27.818,28.833-151.613,50.699-215.282c-0.758-78.424-2.971-144.357-3.713-201.436
			c-0.746-57.428-10.068-205.842-10.068-205.842l-26.849,162.212c-51.46-15.662-76.072-5.594-156.619-20.137
			c-80.547-14.543-114.108-51.46-114.108-51.46c-7.831,68.241-39.155,138.719-31.324,191.299
			c7.831,52.579-6.712,206.96-6.712,296.457s50.342,139.838,125.295,217.029c74.953,77.191,221.504,246.115,221.504,246.115
			c28.527,12.306,90.056,104.04,111.311,126.973c21.255,22.933,68.241,53.138,68.241,53.138l21.255,23.493l18.459-5.594
			c0,0,20.696-10.628,62.088-46.426s57.054-57.054,57.054-77.191C3833.345,3819.083,3831.108,3793.353,3804.259,3769.301z"/>
		<path d="M4000.032,3820.823c-6.153-23.431-42.511-34.742-57.613-25.233s-11.187,19.577-26.29,23.493
			c-15.103,3.916-82.784,0-82.784,0c0,11.331-4.96,23.017-16.672,37.447c8.012,11.285,15.652,25.019,16.672,37.506
			c2.237,27.408-24.052,57.054-42.511,78.869c-18.459,21.815-20.696,33.002-20.696,33.002l-40.273-26.29
			c-36.358-12.865-32.442,26.29-15.662,40.833s37.477,37.477,60.41,81.106c22.933,43.629,22.374,22.374,34.68,48.104
			c12.306,25.73,11.187,48.664,12.306,73.275s-13.424,53.139-13.984,78.31c-0.559,25.171,15.103,33.001,59.851,26.849
			s74.953-48.664,92.853-87.818c17.899-39.155,23.493-118.583,17.899-155.5c-5.594-36.917-17.899-40.273-17.899-63.766
			s17.899-24.612,27.968-63.766C3998.354,3918.089,4006.185,3844.254,4000.032,3820.823z"/>
		<path style="fill:#FFFFFF;" d="M3790.834,3972.905c18.459-21.815,44.748-51.461,42.511-78.869
			c-1.02-12.487-8.659-26.221-16.672-37.506c-9.102,11.216-22.282,24.088-40.383,39.744c-41.392,35.799-62.088,46.426-62.088,46.426
			c19.018,20.137,15.662,36.917,15.662,36.917l40.273,26.29C3770.138,4005.907,3772.375,3994.72,3790.834,3972.905z"/>
		<path d="M3516.192,4047.858c-30.205,5.034-48.104,36.358-48.104,36.358s-19.018,28.527-30.764,83.903
			c-11.746,55.376-36.358,89.496-45.867,112.43c-9.509,22.934-2.797,37.477,19.018,49.223
			c21.815,11.747,163.89,19.577,185.705,6.153c21.815-13.424,15.103-33.561,8.949-89.497c-6.153-55.935-10.068-72.156-0.559-93.971
			c9.509-21.815,1.678-55.376,1.678-55.376C3594.501,4054.571,3546.397,4042.824,3516.192,4047.858z"/>
		<g>
			<defs>
				<path id="XMLID_63_" d="M3606.248,3871.662c-21.256-22.934-82.784-114.667-111.311-126.973c0,0,0,42.511,0,79.428
					c0,36.917-1.678,73.275-20.137,153.263c-18.459,79.988-6.712,106.837-6.712,106.837s17.899-31.324,48.104-36.358
					s78.309,6.712,90.056,49.223c0,0,43.629-20.137,37.477-56.495s12.865-40.833,22.374-55.376c9.509-14.543,8.39-60.41,8.39-60.41
					S3627.503,3894.596,3606.248,3871.662z"/>
			</defs>
			<use xlink:href="#XMLID_63_"  style="overflow:visible;fill:#6D5C49;"/>
			<clipPath id="XMLID_00000082339547192372829860000005595862422450113156_">
				<use xlink:href="#XMLID_63_"  style="overflow:visible;"/>
			</clipPath>
			<path style="clip-path:url(#XMLID_00000082339547192372829860000005595862422450113156_);fill:#5A544C;" d="M3469.959,3767.063
				c0,0,65.485,41.333,105.063,99.535s126.837,100.713,126.837,100.713v-43.63c0,0-64.012-42.511-85.145-78.309
				s-120.418-130.889-120.418-130.889L3469.959,3767.063z"/>
		</g>
		<g>
			<defs>
				<path id="XMLID_62_" d="M3497.546,3111.874c0.746,79.056-0.745,50.714-2.237,110.379c-1.491,59.664-5.966,173.026-5.966,173.026
					s63.394,63.394,90.988,108.888c27.595,45.493,55.19,72.342,79.055,106.649c23.865,34.306,59.357,47.737,59.359,47.739
					c0.328-23.091,1.56-130.099-3.424-151.032c-5.594-23.493,13.425-59.291,6.712-72.716c-6.712-13.425,20.137-45.867,10.069-68.241
					c-10.069-22.374,7.831-38.036,24.611-85.021c16.781-46.986,34.68-82.784,39.155-144.313s23.493-69.36,35.799-137.601
					c12.306-68.241,27.968-154.382,27.968-154.382s0.372-39.901-23.493-85.395c-2.443-4.657-4.512-8.991-6.382-13.137
					c-29.763,17.381-104.278,59.623-160.305,80.633c-71.597,26.849-148.788,11.187-148.788,11.187l-36.917-135.364
					c0,0,9.322,148.414,10.068,205.842C3494.564,2966.442,3496.802,3032.819,3497.546,3111.874z"/>
			</defs>
			<use xlink:href="#XMLID_62_"  style="overflow:visible;fill:#6D5C49;"/>
			<clipPath id="XMLID_00000011019516924125249960000010383053187308113084_">
				<use xlink:href="#XMLID_62_"  style="overflow:visible;"/>
			</clipPath>
			<path style="clip-path:url(#XMLID_00000011019516924125249960000010383053187308113084_);fill:#5A544C;" d="M3468.087,3349.786
				c0,0,100.684,87.259,138.72,153.263c38.036,66.004,100.683,137.601,133.126,143.195c32.442,5.594-15.662,45.867-15.662,45.867
				s-44.748-20.137-95.09-86.141c-50.342-66.003-111.871-148.788-138.719-168.925S3468.087,3349.786,3468.087,3349.786z"/>
			<path style="clip-path:url(#XMLID_00000011019516924125249960000010383053187308113084_);fill:#5A544C;" d="M3486.546,3007.462
				c0,0,48.664-59.851,127.532-66.004c78.869-6.153,97.887-1.678,97.887-1.678s-46.986-21.255-128.651-5.594
				c-81.666,15.662-87.259,28.527-87.259,28.527l-16.781,15.662L3486.546,3007.462z"/>
		</g>
		<g>
			<defs>
				<path id="XMLID_61_" d="M3300.281,2845.25c80.547,14.543,105.158,4.475,156.619,20.137l26.849-162.212l36.917,135.364
					c0,0,77.191,15.662,148.788-11.187c56.027-21.01,130.542-63.252,160.305-80.633c-16.399-36.348-12.263-53.239-12.263-53.239
					c22.374-42.511,29.086-103.667,17.154-155.873c-11.933-52.207-13.425-82.784-7.458-119.329s-11.187-83.531-11.187-83.531
					s8.95-5.22,34.307-16.407c25.357-11.187,92.479-29.833,105.158-29.833c12.678,0,14.916,11.933,14.916,11.933
					c21.628-12.679,5.221-64.14-3.729-90.989c-8.95-26.849-11.933-32.815-20.883-83.53c-8.949-50.715-26.849-173.773-46.24-235.674
					c-19.392-61.901-59.665-92.48-125.295-121.566c-65.631-29.086-134.991-53.698-134.991-53.698s17.34,56.868,45.308,83.717
					c27.968,26.849-8.95,34.68-22.374,36.358c-13.425,1.678-40.706-27.968-42.727-15.103c-2.021,12.865,14.886,26.849,0,40.273
					s-58.516,26.849-93.196,35.799c-34.68,8.95-64.325,55.935-64.325,55.935s-0.806-2.57-2.114-6.642
					c-8.309-9.882-34.375-39.77-56.618-53.208c-26.849-16.221-20.696-29.646-25.171-58.173s-50.342-8.39-56.495-31.883
					s-2.238-42.511-2.238-42.511l-86.14,46.426l53.325-92.48c-49.223,8.203-187.943,45.494-205.097,62.648
					c-17.153,17.153-5.966,35.052-28.34,73.835c-22.374,38.782-48.104,109.26-66.004,156.806
					c-17.899,47.545-20.696,64.326-40.273,85.581s-22.374,66.004-22.374,66.004s119.701,7.831,154.009,37.662
					c11.69,10.166,19.805,21.011,25.512,31.224l0.01,0.001c0,0,16.802-3.443,26.311-32.53s43.63-89.496,44.748-91.175
					c1.119-1.678,2.238,85.022,0.559,120.261c-1.061,22.269-5.47,55.916-8.573,77.678c1.55,1.148,3.103,2.294,4.658,3.428
					c27.595,20.137,51.46,50.714,65.631,73.088c14.169,22.374,36.543,64.139,36.543,84.275s8.95,49.969-1.491,53.698
					c-10.441,3.73-25.358-8.204-25.358-8.204s-14.916,14.171-33.561,4.475c0,0-20.508,13.052-36.544,2.983
					c0,0-5.967,52.952-17.899,99.191c-11.933,46.24-24.612,93.971-14.917,121.566c9.696,27.595,42.138,57.8,42.138,57.8
					S3219.735,2830.706,3300.281,2845.25z"/>
			</defs>
			<use xlink:href="#XMLID_61_"  style="overflow:visible;fill:#BEB7C2;"/>
			<clipPath id="XMLID_00000121266608927145264830000008976342494013207220_">
				<use xlink:href="#XMLID_61_"  style="overflow:visible;"/>
			</clipPath>
			<path style="clip-path:url(#XMLID_00000121266608927145264830000008976342494013207220_);fill:#817985;" d="M3835.396,2338.705
				l-19.391-3.959l-13.424,3.959c0,0-23.866-62.755-27.595-84.071s8.204-18.333,8.204-18.333s2.983-25.357-8.204-88.005
				c-11.187-62.647-8.949-115.6-5.966-166.314c2.983-50.715-8.95-79.809-8.95-79.809s0,68.621-2.237,120.828
				c-2.238,52.206,1.491,109.633,7.458,135.363c5.966,25.73,6.712,58.546,6.712,58.546s-19.391,20.882-9.696,47.731
				c9.696,26.849,35.053,88.751,35.053,88.751l29.832-5.967L3835.396,2338.705z"/>
			<path style="clip-path:url(#XMLID_00000121266608927145264830000008976342494013207220_);fill:#E5E0E4;" d="M3984.557,2199.01
				c0,0-64.885-5.22-124.549,9.696s-88.751,33.561-88.751,33.561s-5.22,10.068,8.95,47.172
				c14.17,37.104,22.374,49.266,22.374,49.266l196.146-28.57C3998.727,2310.135,4012.707,2220.691,3984.557,2199.01z"/>
			<path style="clip-path:url(#XMLID_00000121266608927145264830000008976342494013207220_);fill:#E5E0E4;" d="M2938.94,2051.341
				c0,0,32.815,61.156,105.158,86.513c72.343,25.357,117.091,20.51,117.091,20.51s-7.888,52.043-28.341,80.174
				c-20.452,28.131-51.46,5.22-84.276-19.391s-79.055-35.053-110.379-35.053s-42.511-1.491-42.511-1.491
				S2891.208,2103.547,2938.94,2051.341z"/>
			<path style="clip-path:url(#XMLID_00000121266608927145264830000008976342494013207220_);fill:#817985;" d="M3168.274,2131.142
				l6.712-27.595c0,0,3.729-21.628-8.204-48.104s-20.137-52.206-20.883-67.122c0,0-11.56,21.255,11.187,62.275
				c0,0-22.374-12.678-30.578-23.12c0,0,2.61,17.526,32.815,33.934c0,0,8.577,12.679,9.323,28.341s0.675,23.826,0.675,23.826
				L3168.274,2131.142z"/>
			<path style="clip-path:url(#XMLID_00000121266608927145264830000008976342494013207220_);fill:#817985;" d="M3461.935,1887.637
				v64.326c0,0-36.358,63.207-40.833,128.092c-4.475,64.885,6.712,145.432,7.831,242.759s31.324,232.691,41.392,294.22
				s13.425,86.14,13.425,86.14l1.119,64.885l9.957-24.276c0,0,7.943-11.523-15.55-145.768
				c-23.493-134.245-34.68-199.13-39.155-275.202s-7.831-196.892-7.831-241.081c0-44.189,19.577-96.209,29.646-115.227
				c10.068-19.018,15.347-34.846,15.347-34.846L3461.935,1887.637z"/>
			
				<circle style="clip-path:url(#XMLID_00000121266608927145264830000008976342494013207220_);fill:#817985;" cx="3472.096" cy="2012.342" r="12.275"/>
			
				<ellipse transform="matrix(0.9239 -0.3827 0.3827 0.9239 -565.5532 1490.2227)" style="clip-path:url(#XMLID_00000121266608927145264830000008976342494013207220_);fill:#817985;" cx="3463.146" cy="2166.723" rx="12.275" ry="12.275"/>
			
				<circle style="clip-path:url(#XMLID_00000121266608927145264830000008976342494013207220_);fill:#817985;" cx="3466.782" cy="2330.894" r="12.275"/>
			
				<circle style="clip-path:url(#XMLID_00000121266608927145264830000008976342494013207220_);fill:#817985;" cx="3487.758" cy="2497.021" r="12.275"/>
		</g>
		<g>
			<defs>
				<path id="XMLID_60_" d="M3955.471,2288.507c-12.679,0-79.802,18.645-105.158,29.833c-25.358,11.187-34.307,16.407-34.307,16.407
					s17.153,46.986,11.187,83.531s-4.475,67.122,7.458,119.329c11.932,52.205,5.22,113.362-17.154,155.873
					c0,0-5.22,20.883,18.646,66.376c23.865,45.494,23.493,85.395,23.493,85.395c10.628-8.39,50.342-90.615,50.342-90.615
					c14.543,10.628,34.68,0,39.155-34.12c4.475-34.121-14.543-44.935-14.543-44.935c-3.729-47.732,29.086-113.362,35.799-190.18
					c6.712-76.818,0-184.959,0-184.959S3968.149,2288.507,3955.471,2288.507z"/>
			</defs>
			<use xlink:href="#XMLID_60_"  style="overflow:visible;fill:#F9AA8C;"/>
			<clipPath id="XMLID_00000172428416727665351240000003303493322855664297_">
				<use xlink:href="#XMLID_60_"  style="overflow:visible;"/>
			</clipPath>
			<path style="clip-path:url(#XMLID_00000172428416727665351240000003303493322855664297_);" d="M3802.021,2702.055
				c0,0,35.239-17.34,58.173-10.068c22.933,7.271,34.493,20.137,34.493,20.137s-7.645,31.324,15.289,42.511
				c22.934,11.187,43.63,8.39,43.63,8.39l14.543-73.275l-18.459-20.137l-15.103,5.966c0,0-7.831-4.847-20.136-0.932
				c0,0-63.207-35.799-104.599-5.034L3802.021,2702.055z"/>
		</g>
		<g>
			<defs>
				<path id="XMLID_59_" d="M3213.395,2512.248c18.646,9.696,33.561-4.475,33.561-4.475s14.917,11.933,25.358,8.204
					c10.441-3.729,1.491-33.561,1.491-53.698s-22.374-61.901-36.543-84.275c-14.171-22.374-38.048-52.936-65.631-73.088
					c-68.521-50.062-65.875-85.105-93.225-108.888c-34.307-29.831-154.009-37.662-154.009-37.662
					c-26.849,17.899-3.356,66.004-3.356,66.004s0.559,39.714,33.002,81.106c32.443,41.392,107.955,53.138,105.158,67.682
					c-2.797,14.543,4.475,30.764,17.899,50.342s22.374,52.02,41.951,73.275c19.577,21.255,40.273,5.034,40.273,5.034l17.527,13.424
					C3192.887,2525.3,3213.395,2512.248,3213.395,2512.248z"/>
			</defs>
			<use xlink:href="#XMLID_59_"  style="overflow:visible;fill:#F9AA8C;"/>
			<clipPath id="XMLID_00000069396101473478388490000004943321309375751820_">
				<use xlink:href="#XMLID_59_"  style="overflow:visible;"/>
			</clipPath>
			<path style="clip-path:url(#XMLID_00000069396101473478388490000004943321309375751820_);fill:#C49784;" d="M3152.985,2281.795
				l-15.532-3.051c0,0-53.082-25.662-63.896-30.51c-10.814-4.848,14.288-8.336,40.891,4.781
				C3141.052,2266.133,3152.985,2281.795,3152.985,2281.795z"/>
			<path style="clip-path:url(#XMLID_00000069396101473478388490000004943321309375751820_);fill:#C49784;" d="M3161.935,2516.723
				l-2.61-14.916c0,0-15.662-19.391-24.239-32.07c-8.577-12.679-10.814-29.832-18.645-33.934
				c-7.831-4.102,7.458,29.086,12.679,38.782C3134.34,2484.281,3161.935,2516.723,3161.935,2516.723z"/>
			<path style="clip-path:url(#XMLID_00000069396101473478388490000004943321309375751820_);fill:#C49784;" d="M3211.904,2523.062
				l1.491-10.814c0,0-16.78-22.374-31.696-44.002c-14.916-21.628-18.272-29.832-23.12-39.155s-9.696-8.204-3.356,7.831
				c6.339,16.035,12.678,32.442,23.12,45.867C3188.784,2496.213,3211.904,2523.062,3211.904,2523.062z"/>
			<path style="clip-path:url(#XMLID_00000069396101473478388490000004943321309375751820_);fill:#C49784;" d="M3246.584,2517.096
				l0.373-9.323c0,0-14.916-30.95-27.594-54.07s-17.526-36.544-26.103-46.613c-8.577-10.068-10.068-4.102-1.492,16.408
				c8.577,20.51,41.392,77.564,41.392,77.564L3246.584,2517.096z"/>
		</g>
		<path style="fill:#817985;" d="M3526.26,1896.027c34.68-8.95,78.309-22.374,93.196-35.799s-2.021-27.408,0-40.273
			c2.021-12.865,29.303,16.781,42.727,15.103c13.424-1.678,50.342-9.509,22.374-36.358c-27.968-26.849-45.308-83.717-45.308-83.717
			s-11.56-30.578-28.34-50.342c-16.781-19.763-42.138-34.68-42.138-34.68s0.559,13.239,0.559,43.997
			c0,30.758,19.577,47.552,19.577,47.552s0,0-2.797,15.662c-2.797,15.662-8.95,72.716-28.527,93.412
			c-19.577,20.696-53.698,33.002-71.038,55.376s-24.611,66.004-24.611,66.004S3491.58,1904.977,3526.26,1896.027z"/>
		<path style="fill:#817985;" d="M3319.3,1759.545c0,0-3.915,19.018,2.238,42.511s52.02,3.356,56.495,31.883
			s-1.678,41.951,25.171,58.173c22.243,13.439,48.31,43.327,56.618,53.208c-3.082-9.599-9.002-27.717-14.107-41.462
			c-7.271-19.577-33.561-52.579-53.698-86.7c-20.136-34.121-39.155-93.971-38.448-125.295c0.707-31.324,0-44.376,0-44.376
			c-5.259,1.119-16.369,18.272-29.793,33.189c-13.424,14.916-37.29,32.815-37.29,32.815l-53.325,92.48L3319.3,1759.545z"/>
		<path d="M3311.469,1489.378c1.865,8.95,8.203,29.459,8.203,29.459l4.475-1.865c0,0-6.339-38.036-7.085-65.257
			s15.662-44.376,8.203-59.664c-7.457-15.289-11.56-75.699,88.005-77.937c0,0,49.596-19.764,89.496-9.696
			c39.901,10.068,37.29,51.088,37.29,66.75s17.154,14.916,20.51,31.324c3.356,16.408,8.95,89.869,8.95,89.869l8.576-0.373
			c0,0-1.491-35.426,3.356-45.495c4.848-10.068,16.035-17.526,16.035-17.526s-7.086-40.647,4.101-55.19
			c11.187-14.543,9.696-64.885-10.441-95.463c-20.137-30.578-46.986-40.646-46.986-40.646s-10.068-25.73-46.426-33.771
			c-36.358-8.041-63.766,6.922-63.766,6.922c-30.764-20.137-72.156,10.068-72.156,10.068c-57.614-8.95-58.732,34.12-58.732,34.12
			c-22.933,12.865-36.917,42.511-35.239,87.818s12.678,75.698,20.883,90.242c8.204,14.543,8.204,42.138,8.204,42.138
			S3309.604,1480.428,3311.469,1489.378z"/>
		<g>
			<defs>
				<path id="XMLID_1_" d="M3353.568,1691.864c-0.707,31.324,18.311,91.174,38.448,125.295c20.137,34.12,46.427,67.122,53.698,86.7
					c7.272,19.577,16.221,48.104,16.221,48.104s7.271-43.63,24.611-66.004s51.46-34.68,71.038-55.376
					c19.577-20.696,25.73-77.75,28.527-93.412c2.797-15.662,2.797-15.662,2.797-15.662s-19.577-16.794-19.577-47.552
					c0-30.758-0.559-43.997-0.559-43.997c-2.61-8.576-1.865-49.223-1.865-49.223s-20.509,39.155-47.731,66.377
					c-27.223,27.221-66.004,32.069-103.667,22c-37.663-10.068-61.941-56.68-61.941-56.68v35.052
					C3353.568,1647.488,3354.274,1660.54,3353.568,1691.864z"/>
			</defs>
			<use xlink:href="#XMLID_1_"  style="overflow:visible;fill:#F9AA8C;"/>
			<clipPath id="XMLID_00000084526824922962643280000006981752020218572732_">
				<use xlink:href="#XMLID_1_"  style="overflow:visible;"/>
			</clipPath>
			<path style="clip-path:url(#XMLID_00000084526824922962643280000006981752020218572732_);fill:#C49784;" d="M3582.755,1566.009
				c0,0-30.764,73.835-71.597,105.158c-40.833,31.324-96.209,20.696-128.651-6.153s-40.273-51.46-40.273-51.46l11.334-26.849
				c0,0,45.642,58.732,84.556,62.648c38.914,3.915,81.425-30.205,98.765-55.935s27.408-44.189,27.408-44.189L3582.755,1566.009z"/>
		</g>
		<g>
			<defs>
				<path id="XMLID_58_" d="M3415.508,1669.116c37.664,10.068,76.445,5.221,103.667-22c27.221-27.223,47.731-66.377,47.731-66.377
					c5.594-16.781,5.221-47.731,5.221-47.731c6.34,6.339,28.714,8.576,34.68-7.086s17.899-60.783,10.068-83.903
					c-7.831-23.119-19.391-13.051-19.391-13.051s-11.187,7.457-16.035,17.526c-4.847,10.068-3.356,45.495-3.356,45.495l-8.576,0.373
					c0,0-5.594-73.461-8.95-89.869c-3.356-16.408-20.51-15.662-20.51-31.324s2.611-56.682-37.29-66.75
					c-39.901-10.068-89.496,9.696-89.496,9.696c-99.565,2.237-95.463,62.647-88.005,77.937c7.458,15.288-8.949,32.443-8.203,59.664
					s7.085,65.257,7.085,65.257l-4.475,1.865c0,0-6.339-20.509-8.203-29.459c-1.865-8.95-14.543-14.171-14.543-14.171
					c-13.797-5.966-20.883,16.408-16.034,42.511c4.847,26.103,19.763,36.171,28.713,52.952c8.95,16.781,30.205,12.679,30.205,12.679
					l13.759,29.086C3353.568,1612.436,3377.845,1659.047,3415.508,1669.116z"/>
			</defs>
			<use xlink:href="#XMLID_58_"  style="overflow:visible;fill:#F9AA8C;"/>
			<clipPath id="XMLID_00000052085685929576335040000006092227795980214970_">
				<use xlink:href="#XMLID_58_"  style="overflow:visible;"/>
			</clipPath>
			<path style="clip-path:url(#XMLID_00000052085685929576335040000006092227795980214970_);" d="M3361.531,1636.767
				c0,0,3.356-12.306,9.789-20.137c6.432-7.831,28.469,1.632,36.078,13.33c7.609,11.699,37.197,16.875,59.571,13.519
				c22.374-3.356,37.197-22.654,41.952-35.239c4.754-12.585,27.907-10.175,43.056-2.571c15.149,7.604-39.141,61.303-49.209,66.617
				c-10.068,5.314-45.308,20.976-75.792,10.068C3396.49,1671.447,3361.531,1636.767,3361.531,1636.767z"/>
			<path style="clip-path:url(#XMLID_00000052085685929576335040000006092227795980214970_);fill:#C49784;" d="M3308.858,1512.125
				c0,0-8.95-19.391-13.797-13.797c-4.848,5.594-4.475,37.663,12.306,49.223c16.781,11.56,8.204,14.543,12.679,20.137
				s7.458-20.137-6.339-28.714S3308.858,1512.125,3308.858,1512.125z"/>
			<path style="clip-path:url(#XMLID_00000052085685929576335040000006092227795980214970_);fill:#C49784;" d="M3593.383,1506.531
				c0,0-11.933,1.491-10.441,12.305c1.492,10.815,17.526,6.34,22.374-23.492s2.238-41.765-2.983-44.748
				c-5.221-2.983-15.289,7.085-15.289,18.645c0,11.56,12.679,3.356,12.679,8.204s-13.797,4.475-10.814,14.17
				C3591.891,1501.311,3593.383,1506.531,3593.383,1506.531z"/>
		</g>
		<path style="fill:#5A544C;" d="M3505.005,2994.037l-9.423,3.783c0,0-73.361-58.227-186.724-54.498
			c0,0,90.988-30.696,190.926,27.163L3505.005,2994.037z"/>
		<g>
			<g>
				<path d="M3408.52,1432.549c0,0-29.741-0.964-47.788,6.238c-18.047,7.202-24.957,14.106-24.957,14.106s1.018-9.807,12.715-18.687
					c11.697-8.881,35.926-13.211,55.156-12.015C3403.647,1422.191,3407.886,1421.448,3408.52,1432.549z"/>
				<path style="fill:#FFFFFF;" d="M3354.361,1463.268c0,0,5.12-7.842,12.094-10.686s24.095-4.874,30.227-3.202
					c6.131,1.672,7.476,5.377,7.476,5.377s-4.357,7.413-18.921,10.037C3370.671,1467.418,3357.078,1464.807,3354.361,1463.268z"/>
				<path d="M3406.439,1456.869c0,0-8.467-10.565-27.081-5.948c-18.615,4.617-20.875,11.028-20.875,11.028l7.437,3.621
					c0,0-10.784,0.849-16.231-0.632c0,0,4.445-10.757,21.254-15.771C3387.751,1444.154,3402.882,1445.49,3406.439,1456.869z"/>
				<path d="M3368.183,1452.252c0,0,1.392,11.755,11.184,12.629c9.791,0.873,15.93-3.598,15.93-3.598s-1.888-9.499-0.047-12.927
					C3395.25,1448.356,3377.495,1445.828,3368.183,1452.252z"/>
			</g>
			<g>
				<path d="M3464.386,1426.631c0,0,28.879-7.174,48.034-3.913c19.155,3.261,27.358,8.564,27.358,8.564s-3.051-9.376-16.349-15.608
					c-13.298-6.233-37.896-5.39-56.449-0.192C3466.981,1415.482,3462.68,1415.643,3464.386,1426.631z"/>
				<path style="fill:#FFFFFF;" d="M3523.779,1445.321c0,0-6.65-6.595-14.064-7.915s-24.581,0.282-30.227,3.202
					c-5.645,2.92-6.183,6.824-6.183,6.824s5.814,6.335,20.604,5.85C3508.7,1452.796,3521.445,1447.395,3523.779,1445.321z"/>
				<path d="M3471.516,1449.975c0,0,6.065-12.105,25.234-11.49s22.722,6.41,22.722,6.41l-6.514,5.099c0,0,10.723-1.43,15.739-4.019
					c0,0-6.6-9.588-24.086-10.968C3487.125,1433.627,3472.61,1438.104,3471.516,1449.975z"/>
				<path d="M3507.956,1437.445c0,0,1.102,11.786-8.29,14.692c-9.391,2.905-16.331-0.18-16.331-0.18s-0.144-9.683-2.663-12.65
					C3480.673,1439.307,3497.504,1433.115,3507.956,1437.445z"/>
			</g>
			<g>
				<path d="M3416.326,1517.681l9.679-2.439l19.042,10.724c0,0,11.642-1.137,15.364-3.872s4.594-7.058,11.161-10.175
					c6.568-3.117,9.719-2.93,11.685,0.332s-11.557,5.363-13.708,5.905c-2.151,0.542-3.059,7.961-14.506,10.519
					c-11.447,2.558-12.45,0.523-15.296-1.047c-2.847-1.57-11.617-5.896-13.924-6.622
					C3423.517,1520.28,3416.606,1523.329,3416.326,1517.681z"/>
				<path d="M3396.096,1562.692c0,0,15.884-9.128,53.514-12.723c37.63-3.594,60.611,0.633,60.611,0.633s-4.54,12.629-32.58,21.673
					C3449.6,1581.32,3403.547,1586.787,3396.096,1562.692z"/>
				<path style="fill:#FFFFFF;" d="M3405.438,1562.094c0,0,30.844-10.321,62.195-10.311s33.523,0.172,33.523,0.172
					s-0.697,10.066-26.024,18.823c-25.328,8.757-54.579,6.37-61.067,4.314C3407.576,1573.036,3405.438,1562.094,3405.438,1562.094z"
					/>
			</g>
		</g>
	</g>
	<g>
		<g>
			<path style="fill:#979495;" d="M1946.27,3031.689c0-24.28,11.229-45.526,27.923-57.666c16.693-12.14,45.222,1.821,45.222,1.821
				c-0.606-10.016-9.105-19.425-39.455-30.351c-30.35-10.926-62.218-39.152-94.086-44.615s-58.273,13.354-68.289,40.366
				c-10.016,27.012,5.463,54.631,23.977,64.343s74.662,39.759,93.176,50.989c18.514,11.23,42.491,9.105,42.491,9.105
				S1946.27,3055.97,1946.27,3031.689z"/>
			<path style="fill:#666766;" d="M1974.193,2974.024c-16.693,12.14-27.923,33.385-27.923,57.666
				c0,24.281,30.958,33.993,30.958,33.993s28.833,13.051,50.989,19.728c22.156,6.677,43.705,0,55.845-18.21
				c12.141-18.21,16.693-50.382-10.016-64.343c-26.708-13.961-54.631-27.012-54.631-27.012S1990.885,2961.883,1974.193,2974.024z"/>
		</g>
		<g>
			<path style="fill:#979495;" d="M2121.207,2894.05c-21.531,11.222-35.181,31-38.231,51.414
				c-3.051,20.414,22.516,39.26,22.516,39.26c-9.162,4.092-21.434,0.904-45.15-20.96c-23.717-21.864-63.476-37.078-83.05-62.813
				c-19.574-25.735-15.091-57.847,4.233-79.214c19.324-21.366,50.971-20.406,68.14-8.477c17.169,11.928,69.766,47.832,88.281,59.059
				c18.516,11.228,27.714,33.472,27.714,33.472S2142.739,2882.827,2121.207,2894.05z"/>
			<path style="fill:#666766;" d="M2082.976,2945.464c3.05-20.415,16.699-40.192,38.231-51.414
				c21.532-11.222,44.453,11.741,44.453,11.741s24.9,19.537,41.061,36.098c16.161,16.561,20.2,38.757,9.663,57.939
				c-10.537,19.183-36.962,38.089-61.687,20.857c-24.725-17.231-49.204-35.961-49.204-35.961S2079.925,2965.877,2082.976,2945.464z"
				/>
		</g>
	</g>
	<g>
		<g>
			<defs>
				<path id="SVGID_1_" d="M2180.401,2031.494c0,0,0,0-10.175-33.069c-10.175-33.069-23.403-66.138-33.069-70.208
					c-9.667-4.07-76.314-25.947-76.314-25.947c-46.297,17.807-85.98,0-85.98,0s-66.647,21.877-76.314,25.947
					c-9.666,4.07-22.894,37.139-33.069,70.208c-10.175,33.069-10.175,33.069-10.175,33.069l57.49,9.158l-2.035,190.275h102.26h9.666
					h102.26l-2.035-190.275L2180.401,2031.494z"/>
			</defs>
			<use xlink:href="#SVGID_1_"  style="overflow:visible;fill:#BDA497;"/>
			<clipPath id="SVGID_00000176758747445223704080000011837325931227491751_">
				<use xlink:href="#SVGID_1_"  style="overflow:visible;"/>
			</clipPath>
			
				<rect x="2013.02" y="1892.281" style="clip-path:url(#SVGID_00000176758747445223704080000011837325931227491751_);fill:#807976;" width="10.175" height="344.751"/>
			<path style="clip-path:url(#SVGID_00000176758747445223704080000011837325931227491751_);" d="M2021.554,1932.099
				c0,1.745-1.415,3.159-3.159,3.159c-1.745,0-3.159-1.415-3.159-3.159c0-1.745,1.415-3.159,3.159-3.159
				C2020.14,1928.94,2021.554,1930.354,2021.554,1932.099z"/>
			<path style="clip-path:url(#SVGID_00000176758747445223704080000011837325931227491751_);" d="M2021.013,1967.1
				c0,1.745-1.415,3.159-3.159,3.159c-1.745,0-3.159-1.414-3.159-3.159c0-1.745,1.415-3.159,3.159-3.159
				C2019.598,1963.941,2021.013,1965.355,2021.013,1967.1z"/>
			<path style="clip-path:url(#SVGID_00000176758747445223704080000011837325931227491751_);" d="M2021.013,1997.971
				c0,1.745-1.415,3.159-3.159,3.159c-1.745,0-3.159-1.415-3.159-3.159c0-1.745,1.415-3.159,3.159-3.159
				C2019.598,1994.812,2021.013,1996.226,2021.013,1997.971z"/>
			<path style="clip-path:url(#SVGID_00000176758747445223704080000011837325931227491751_);" d="M2018.798,2036.551
				c-1.665,0.522-3.438-0.405-3.96-2.07c-0.522-1.665,0.405-3.438,2.07-3.96c1.665-0.522,3.438,0.405,3.96,2.07
				C2021.39,2034.256,2020.463,2036.029,2018.798,2036.551z"/>
			<path style="clip-path:url(#SVGID_00000176758747445223704080000011837325931227491751_);" d="M2019.159,2081.955
				c-1.665,0.522-3.438-0.405-3.96-2.07s0.405-3.438,2.07-3.96c1.665-0.522,3.438,0.405,3.96,2.07
				C2021.751,2079.66,2020.824,2081.433,2019.159,2081.955z"/>
			<path style="clip-path:url(#SVGID_00000176758747445223704080000011837325931227491751_);" d="M2018.798,2127.088
				c-1.665,0.522-3.438-0.405-3.96-2.07c-0.522-1.665,0.405-3.438,2.07-3.96c1.665-0.522,3.438,0.405,3.96,2.07
				C2021.39,2124.794,2020.463,2126.567,2018.798,2127.088z"/>
			<path style="clip-path:url(#SVGID_00000176758747445223704080000011837325931227491751_);" d="M2018.798,2173.666
				c-1.665,0.522-3.438-0.405-3.96-2.07c-0.522-1.665,0.405-3.438,2.07-3.96c1.665-0.522,3.438,0.405,3.96,2.07
				C2021.39,2171.371,2020.463,2173.144,2018.798,2173.666z"/>
			<path style="clip-path:url(#SVGID_00000176758747445223704080000011837325931227491751_);" d="M2018.798,2218.077
				c-1.665,0.522-3.438-0.405-3.96-2.07c-0.522-1.665,0.405-3.438,2.07-3.96c1.665-0.522,3.438,0.405,3.96,2.07
				C2021.39,2215.783,2020.463,2217.555,2018.798,2218.077z"/>
			<path style="clip-path:url(#SVGID_00000176758747445223704080000011837325931227491751_);fill:#807976;" d="M1908.202,2043.353
				l4.593-2.701l7.683-78.178c0,0-3.611,6.68-5.777,24.011C1912.535,2003.816,1908.202,2043.353,1908.202,2043.353z"/>
			<path style="clip-path:url(#SVGID_00000176758747445223704080000011837325931227491751_);fill:#807976;" d="M2129.355,2046.963
				l-6.443-6.312l-1.861-81.608c0,0,2.527,1.986,4.874,39.717S2129.355,2046.963,2129.355,2046.963z"/>
		</g>
		<path style="fill:#807976;" d="M2060.843,1902.27l-6.105-6.614c-13.53,2.925-29.162,3.748-36.885,3.979
			c-7.723-0.231-23.355-1.054-36.885-3.979l-6.105,6.614C1974.863,1902.27,2014.546,1920.076,2060.843,1902.27z"/>
	</g>
</g>
</svg>
