<?xml version="1.0" encoding="UTF-8"?><svg id="uuid-673893ae-805b-41af-9698-f40a38ac89f9" xmlns="http://www.w3.org/2000/svg" viewBox="0 0 493.3 446.28"><defs><style>.uuid-7f3ba0ee-3bf2-4ef6-83c6-19576382fec4{fill:#0e74bb;}.uuid-80520bf9-285d-45f6-9f4b-d8861ca89adc{fill:#99b9ff;}.uuid-c95f8967-2409-45d8-9405-184a977fa9c3{fill:#080717;}.uuid-e14b4a15-7b5e-45ee-bdd8-1df8658f4eda{fill:#1d1d1b;}</style></defs><path class="uuid-c95f8967-2409-45d8-9405-184a977fa9c3" d="M208.71,398.01c1.71,9.54-21.68,21.7-52.23,27.16-30.55,5.46-56.7,2.16-58.41-7.38s21.68-21.7,52.23-27.16c30.55-5.46,56.7-2.16,58.41,7.38Z"/><path class="uuid-c95f8967-2409-45d8-9405-184a977fa9c3" d="M493.27,418.53c1.12,11.21-26.75,23.18-62.25,26.74-35.51,3.56-65.2-2.64-66.32-13.85-1.12-11.21,26.75-23.18,62.25-26.75,35.51-3.56,65.2,2.64,66.32,13.85Z"/><path class="uuid-e14b4a15-7b5e-45ee-bdd8-1df8658f4eda" d="M47.78,107.36L.76,288.61c-1.69,6.53,2.66,13.08,9.34,14.04l56.27,8.11c5.68.82,11.07-2.74,12.55-8.28l45.49-170.49c1.53-5.74-1.63-11.68-7.25-13.62l-54.73-18.87c-6.24-2.15-12.99,1.47-14.64,7.86Z"/><path class="uuid-7f3ba0ee-3bf2-4ef6-83c6-19576382fec4" d="M118.04,284.42l-22.15-10.12c-1.29-.47-9.87-16.45-9.87-16.45,0,0,5.09-35.28,3.43-45.75l-25.26-13.45c-9.15-4.87-12.62-16.24-7.75-25.39h0l50.07,26.66.74,4.61c.03.18,2.98,18.66,5.83,37.09,6.12,39.6,6.03,39.84,4.96,42.8Z"/><path class="uuid-7f3ba0ee-3bf2-4ef6-83c6-19576382fec4" d="M96.05,281.4l-44.12-36.57-31.01-6.85-4.73.54c-7.52.86-14.48-4.11-16.1-11.51H.09l17.88-8.37,41.9,5.68,52.61,38.12-16.43,18.96Z"/><path class="uuid-7f3ba0ee-3bf2-4ef6-83c6-19576382fec4" d="M76.85,293.06l-37.24-27.07-17.22,6.24-8.25,5.58c-4.51,3.05-10.59,2.24-14.14-1.89h0l14.65-18.53,26.76-12.01,51.67,29.73-16.24,17.96Z"/><path class="uuid-7f3ba0ee-3bf2-4ef6-83c6-19576382fec4" d="M42.07,324.42l-3.6-8.55,4.5-17.44,37.15-8.48,3.52,21.5-30.23,1.68-1.32,4.6-1.52,5.92c-1.06,4.13-6.72,4.64-8.5.77Z"/><path class="uuid-7f3ba0ee-3bf2-4ef6-83c6-19576382fec4" d="M69.13,278.01l-1.08,32.16c-.21,6.21,1.91,12.28,5.95,17.01l26.01,30.49c7.22,8.46,17.02,14.32,27.9,16.66l13.44,2.9,24.3-19.8-4.42-18.68-50.6-93.1-41.5,32.35Z"/><rect class="uuid-e14b4a15-7b5e-45ee-bdd8-1df8658f4eda" x="74.31" y="244.69" width="3.32" height="40.04" transform="translate(-189.79 192.46) rotate(-58.78)"/><rect class="uuid-e14b4a15-7b5e-45ee-bdd8-1df8658f4eda" x="97.6" y="236.42" width="3.32" height="29.54" transform="translate(-161.47 180.7) rotate(-53.31)"/><path class="uuid-7f3ba0ee-3bf2-4ef6-83c6-19576382fec4" d="M125.05,338.52l-1.49,69.74h0c11.74,8.96,26.8,12.38,41.26,9.36l35.38-7.39-57.46-104.16-17.7,32.45Z"/><path class="uuid-80520bf9-285d-45f6-9f4b-d8861ca89adc" d="M411.18,80.7L386.06.45s-10.73-2.32-11.77,3.52c-1.04,5.84-2.75,38.72-2.75,38.72,0,0,38.61,43.84,39.65,38Z"/><path class="uuid-80520bf9-285d-45f6-9f4b-d8861ca89adc" d="M294.42,32.55c1.85-6.84,70.03.3,70.03.3,0,0,22.46,12.49,29.66,20.79,7.19,8.29,13.79,16.24,17.07,27.06,3.28,10.82,12.96,36.73,12.96,36.73l-75.7-52.08-26.51-12.47s-30.89-7.8-27.51-20.32Z"/><path class="uuid-c95f8967-2409-45d8-9405-184a977fa9c3" d="M400.49,62.25c-.57,0-1.13-.24-1.52-.7-10.02-11.79-28.26-23.25-28.44-23.37-.93-.58-1.22-1.82-.63-2.75.59-.93,1.82-1.22,2.75-.63.77.48,18.94,11.9,29.36,24.17.72.84.61,2.1-.23,2.82-.38.32-.84.48-1.29.48Z"/><path class="uuid-80520bf9-285d-45f6-9f4b-d8861ca89adc" d="M431.41,137.87s-1.97-16.6-13.98-36.2c-4-6.53-9.12-13.39-15.65-20.08-13.83-14.17-25.74-24.72-33.88-31.5-6.93-5.77-16.27-7.73-24.95-5.26l-58.36,16.6s-4.52,16.49,9.72,17.66c6.19.51,48.26-1.09,48.26-1.09,0,0,22.98,18.45,20.22,35.37-2.76,16.93-13.15,8.22-19.56,4.43-4.35-2.57-23.42,39.53.78,62.74,13.76,13.2,54.55,40.31,88.68,62.43l-1.27-105.1Z"/><path class="uuid-c95f8967-2409-45d8-9405-184a977fa9c3" d="M392.16,74.27c-.44,0-.88-.15-1.25-.44-1.25-1.01-30.79-24.92-34.31-28.21-2.58-1.23-21.8,2.99-38.06,7.66-1.07.3-2.17-.31-2.47-1.37-.3-1.06.31-2.17,1.37-2.47,31.04-8.92,39.92-8.59,41.9-6.74,3.41,3.2,33.78,27.77,34.09,28.02.86.69.99,1.95.3,2.81-.39.49-.97.74-1.56.74Z"/><polygon class="uuid-7f3ba0ee-3bf2-4ef6-83c6-19576382fec4" points="230.75 138.39 285.47 191.55 280.69 104.49 336.42 70.58 264.26 60.93 233.46 3.31 212.3 68.01 129.73 67.95 190.87 110.48 166.95 178.27 230.75 138.39"/><path class="uuid-80520bf9-285d-45f6-9f4b-d8861ca89adc" d="M343.45,118.11c-4.01-3.08-29.5-19.84-37.9-23.15-4.09-1.61-10.97-2.9-16.85-2.73,2.16-.25-7.63.12-2.08.13-5.2.5-9.15,2.4-8.78,6.61.82,9.28,19.69,18.21,28.01,31.2,8.32,12.98,18.12,37.24,45.68,56.32,7.62,5.28,23.62,10.91,40.73,19.13,10.53-3.62,18.05-9.56,21.28-17.75,8.28-21.01-66.08-66.68-70.09-69.76Z"/><path class="uuid-e14b4a15-7b5e-45ee-bdd8-1df8658f4eda" d="M171.07,109.66s-15.76-50.14,7.88-25.32c7.76,8.15-6.01,8.35-6.01,8.35,0,0,10.23-13.36,22.17-10.92,11.94,2.43-8.11,18.72-24.05,27.9Z"/><path class="uuid-c95f8967-2409-45d8-9405-184a977fa9c3" d="M132.45,143.77c-.55,0-1.08-.27-1.41-.75-.46-.69-.36-1.61.24-2.18l23.64-22.4c-16.43-12.24-23.49-30.54-17.18-45.1,3.88-8.97,12.18-15.35,23.36-17.98,10.99-2.58,23.5-1.21,35.23,3.86,24.37,10.55,37.73,34.05,29.8,52.38h0c-7.66,17.68-32.13,24.28-55.95,15.18l-37.02,16.83c-.23.1-.47.15-.7.15ZM172.4,57.49c-3.62,0-7.15.39-10.53,1.19-10.11,2.37-17.57,8.06-21.02,16.02-5.87,13.55,1.41,30.89,17.69,42.17.42.29.69.76.73,1.27.04.51-.15,1.01-.53,1.36l-17.77,16.84,28.44-12.93c.42-.19.9-.2,1.33-.03,22.3,8.8,45.26,3.05,52.26-13.11h0c7.19-16.61-5.38-38.1-28.03-47.91-7.43-3.22-15.17-4.86-22.57-4.86Z"/><polygon class="uuid-c95f8967-2409-45d8-9405-184a977fa9c3" points="227.58 70.41 264.1 42.09 273.67 50.94 227.58 70.41"/><polygon class="uuid-c95f8967-2409-45d8-9405-184a977fa9c3" points="238.78 84.21 269.56 69.92 273.04 81.1 238.78 84.21"/><polygon class="uuid-c95f8967-2409-45d8-9405-184a977fa9c3" points="224.3 60.5 233.6 38.7 238.81 45.66 224.3 60.5"/><path d="M107.71,104.05c-.62,0-1.19-.34-1.49-.88l-3.81-6.97-6.97-3.81c-.55-.3-.88-.87-.88-1.49s.34-1.19.88-1.49l6.97-3.81,3.81-6.97c.59-1.09,2.38-1.09,2.98,0l3.81,6.97,6.97,3.81c.55.3.88.87.88,1.49s-.34,1.19-.88,1.49l-6.97,3.81-3.81,6.97c-.3.55-.87.88-1.49.88ZM99.8,90.9l4.68,2.56c.29.16.52.39.67.67l2.56,4.68,2.56-4.68c.16-.29.39-.52.67-.67l4.68-2.56-4.68-2.56c-.29-.16-.52-.39-.67-.67l-2.56-4.68-2.56,4.68c-.16.29-.39.52-.67.67l-4.68,2.56Z"/><path class="uuid-80520bf9-285d-45f6-9f4b-d8861ca89adc" d="M385.11,437.88c.17,2.14.54,4.22,1.07,6.24,11.88,2.31,27.67,2.88,44.84,1.16,14.96-1.5,28.54-4.5,39.19-8.3,32.41-87.85,21.56-164.2,5.22-215.11-20.01-62.35-52.56-101.04-53.93-102.66l-29.68,25.26-29.8,25.11c.25.3,25.17,30.53,40.1,78.97,19.43,63.02,13.71,126.72-17,189.33Z"/></svg>