<?xml version="1.0" encoding="UTF-8"?><svg id="uuid-938fb0a4-ee19-4ead-bcb9-c0ccc43be823" xmlns="http://www.w3.org/2000/svg" xmlns:xlink="http://www.w3.org/1999/xlink" viewBox="0 0 424.94 491.45"><defs><style>.uuid-ac7f8d8f-0063-4184-9284-16b457c14bd1{fill:#5a93c9;}.uuid-3af9e895-b440-4ee8-b250-28b3ba561214{fill:#fff;}.uuid-89646714-f722-4079-84e4-594b98a9a390{fill:#77a4d2;}.uuid-8a660daa-e183-4639-8077-2fdf70fd7605{fill:url(#uuid-76b7aad0-086a-44ec-9364-6153acdf5e79);}.uuid-c8b9e798-bff7-43fc-ac0f-4021190cee2a{stroke:#88b0d7;stroke-width:.85px;}.uuid-c8b9e798-bff7-43fc-ac0f-4021190cee2a,.uuid-b207a36a-af6e-499b-9fcf-b1596d7a2181,.uuid-75c4ab94-1d56-439e-8803-3c936a2198fa,.uuid-2d8c5687-5d9d-4eb0-9415-b8a9dd2543c5{fill:none;stroke-miterlimit:10;}.uuid-51ae4fe1-c6c0-4788-a78f-2d2f0954e102{fill:#0f74b9;}.uuid-b87c9fef-fe5e-45ea-9087-046572b22a2f{fill:#6d9ecf;}.uuid-193a1a65-5a56-401c-add7-b2926584c22e{fill:#7ba8d3;}.uuid-36972eda-c181-4ea0-bb6f-a523541714bd{fill:#d9e6f2;}.uuid-1073eabd-8385-4962-9654-ca3f360ba322{fill:#b2cbe5;}.uuid-d289be86-6ddb-4182-849c-fec147eb18f2{fill:#3f85c1;}.uuid-bda4f41b-9866-435b-9fb3-ebbf6e049527{fill:#8cb2d8;}.uuid-b207a36a-af6e-499b-9fcf-b1596d7a2181{stroke-width:.82px;}.uuid-b207a36a-af6e-499b-9fcf-b1596d7a2181,.uuid-75c4ab94-1d56-439e-8803-3c936a2198fa{stroke:#0f74b9;}.uuid-75c4ab94-1d56-439e-8803-3c936a2198fa{stroke-width:.8px;}.uuid-2d8c5687-5d9d-4eb0-9415-b8a9dd2543c5{stroke:#6d9ecf;stroke-width:.62px;}.uuid-fbd2c3ad-ba2d-4c13-835f-ea7e4b5d751e{fill:url(#uuid-274dba9e-a369-44e5-a76a-33ef4692c185);}</style><linearGradient id="uuid-76b7aad0-086a-44ec-9364-6153acdf5e79" x1="39.41" y1="145.71" x2="110.26" y2="454.73" gradientUnits="userSpaceOnUse"><stop offset="0" stop-color="#fff" stop-opacity=".2"/><stop offset="1" stop-color="#bc1c2d" stop-opacity="0"/></linearGradient><linearGradient id="uuid-274dba9e-a369-44e5-a76a-33ef4692c185" x1="335.13" y1="145.28" x2="439.11" y2="404.58" xlink:href="#uuid-76b7aad0-086a-44ec-9364-6153acdf5e79"/></defs><path class="uuid-d289be86-6ddb-4182-849c-fec147eb18f2" d="M133.16,79.97L30.26,24.95v-7.3H11.94c-6.98.28-11.94,6.1-11.94,15.93v438.03c0,10,5.12,16.23,12.29,16.85v.05h.49c.17,0,.35,0,.53,0h16.95v-6.07l102.9-47.56c6.29-2.91,11.22-13.02,11.22-22.68V103.47c0-9.66-4.93-20.13-11.22-23.49Z"/><path class="uuid-51ae4fe1-c6c0-4788-a78f-2d2f0954e102" d="M148.35,434.89l-112.22,51.87c-11.34,5.24-20.94-1.43-20.94-15.14V33.59c0-13.71,9.6-19.68,20.94-13.62l112.22,60.01c6.29,3.36,11.22,13.83,11.22,23.49v308.74c0,9.66-4.93,19.77-11.22,22.68Z"/><path class="uuid-bda4f41b-9866-435b-9fb3-ebbf6e049527" d="M147.4,406.5l-109.63,41.82c-5.4,2.06-9.87-1.49-9.87-7.98V44.68c0-6.48,4.47-9.51,9.87-6.82l109.63,54.63c3.1,1.54,5.57,6.65,5.57,11.43v291.8c0,4.78-2.47,9.6-5.57,10.78Z"/><path class="uuid-b87c9fef-fe5e-45ea-9087-046572b22a2f" d="M104.52,439.52c0,4.69-2.07,9.41-4.65,10.55-2.61,1.16-4.75-1.78-4.75-6.58s2.14-9.55,4.75-10.6c2.58-1.04,4.65,1.93,4.65,6.62Z"/><path class="uuid-2d8c5687-5d9d-4eb0-9415-b8a9dd2543c5" d="M76.98,454.18l7.15-3.08c1.13-.49,2.04-2.48,2.04-4.46h0c0-1.98-.91-3.21-2.04-2.74l-5.14,2.12"/><polygon class="uuid-b87c9fef-fe5e-45ea-9087-046572b22a2f" points="79.02 448.5 79.02 443.82 76.51 447.63 79.02 448.5"/><line class="uuid-2d8c5687-5d9d-4eb0-9415-b8a9dd2543c5" x1="113.2" y1="432.11" x2="118.61" y2="429.87"/><line class="uuid-2d8c5687-5d9d-4eb0-9415-b8a9dd2543c5" x1="113.2" y1="435.61" x2="118.61" y2="433.33"/><line class="uuid-2d8c5687-5d9d-4eb0-9415-b8a9dd2543c5" x1="113.2" y1="439.12" x2="118.61" y2="436.79"/><path class="uuid-ac7f8d8f-0063-4184-9284-16b457c14bd1" d="M10.42,64.33c0,1.91-1.55,3.46-3.46,3.46s-3.46-1.55-3.46-3.46,1.55-3.46,3.46-3.46,3.46,1.55,3.46,3.46Z"/><circle class="uuid-ac7f8d8f-0063-4184-9284-16b457c14bd1" cx="6.96" cy="78.43" r="3.46"/><path class="uuid-ac7f8d8f-0063-4184-9284-16b457c14bd1" d="M6.96,119.85h0c-1.91,0-3.46-1.55-3.46-3.46v-26.16c0-1.91,1.55-3.46,3.46-3.46h0c1.91,0,3.46,1.55,3.46,3.46v26.16c0,1.91-1.55,3.46-3.46,3.46Z"/><polygon class="uuid-ac7f8d8f-0063-4184-9284-16b457c14bd1" points="101.16 147.25 38.78 124.73 38.78 61.18 101.16 92.52 101.16 147.25"/><path class="uuid-89646714-f722-4079-84e4-594b98a9a390" d="M113.11,100.08c0,8.81-4.83,13.75-10.97,10.95-6.34-2.89-11.63-12.87-11.63-22.21s5.29-14.05,11.63-10.62c6.14,3.32,10.97,13.07,10.97,21.88Z"/><path class="uuid-3af9e895-b440-4ee8-b250-28b3ba561214" d="M98.06,87.46c0-1.54.55-2.1,1.57-1.58,1.01.52,1.55,1.65,1.55,3.17v4.87c0,1.52-.54,2.1-1.55,1.6-1.02-.5-1.57-1.62-1.57-3.16v-4.91ZM99.1,92.98c0,.66.19,1.03.53,1.2.32.16.53-.01.53-.67v-5.09c0-.66-.21-1.04-.53-1.21-.34-.17-.53,0-.53.66v5.11ZM103.65,88.06l.93.48-4,12.77-.95-.46,4.02-12.79ZM103.14,95.44c0-1.52.53-2.09,1.53-1.59.99.5,1.51,1.6,1.51,3.1v4.8c0,1.5-.53,2.09-1.51,1.61-.99-.47-1.53-1.57-1.53-3.09v-4.84ZM104.15,100.88c0,.65.19,1.01.52,1.17.31.15.52-.02.52-.67v-5.03c0-.65-.2-1.02-.52-1.18-.33-.16-.52.01-.52.67v5.04Z"/><path class="uuid-ac7f8d8f-0063-4184-9284-16b457c14bd1" d="M124.19,123.51v1.29c0,.99.28,1.48.73,1.68.45.2.73-.03.73-1.02v-3.05c0-.99-.28-1.5-.73-1.7-.45-.21-.73.04-.73,1.04v.42l-1.35-.61.26-7.99,3.73,1.77v1.98l-2.45-1.15-.12,3.27c.26-.54.67-.7,1.23-.44,1.04.48,1.56,1.85,1.56,3.88v3.08c0,2.21-.71,3.16-2.1,2.56-1.39-.61-2.12-2.2-2.12-4.44v-1.16l1.35.61Z"/><path class="uuid-ac7f8d8f-0063-4184-9284-16b457c14bd1" d="M127.87,119.14c0-2.21.75-3.11,2.1-2.47,1.35.64,2.08,2.23,2.08,4.41v7.09c0,2.18-.73,3.11-2.08,2.52-1.36-.59-2.1-2.18-2.1-4.38v-7.17ZM129.26,127.06c0,.98.28,1.48.71,1.67.44.19.71-.06.71-1.03v-7.39c0-.98-.27-1.48-.71-1.68-.44-.21-.71.04-.71,1.02v7.42Z"/><path class="uuid-ac7f8d8f-0063-4184-9284-16b457c14bd1" d="M134.23,130.34v2.05l-1.3-.57v-2.06l1.3.57Z"/><path class="uuid-ac7f8d8f-0063-4184-9284-16b457c14bd1" d="M139.08,131.19c0,2.25-.64,3.19-2.01,2.6-1.3-.57-1.98-2.1-1.98-4.26v-.35l1.26.56v.48c0,.96.27,1.44.69,1.63.47.21.73-.04.73-1.32v-2.45c-.23.66-.64.9-1.22.64-.98-.44-1.48-1.76-1.48-3.75v-2.47c0-2.16.72-3.06,2.02-2.44,1.29.61,1.99,2.17,1.99,4.31v6.83ZM137.77,126.02v-2.41c0-.96-.26-1.43-.68-1.62-.42-.2-.69.02-.69.99v2.42c0,.96.27,1.45.69,1.64.42.19.68-.05.68-1.01Z"/><path class="uuid-ac7f8d8f-0063-4184-9284-16b457c14bd1" d="M143.72,133.26c0,2.22-.63,3.16-1.95,2.58-1.27-.55-1.93-2.06-1.93-4.19v-.34l1.23.55v.47c0,.95.26,1.42.67,1.6.46.2.71-.04.71-1.31v-2.42c-.22.66-.62.89-1.19.64-.95-.43-1.44-1.73-1.44-3.69v-2.44c0-2.13.7-3.02,1.96-2.42,1.26.6,1.94,2.13,1.94,4.24v6.74ZM142.45,128.17v-2.38c0-.94-.26-1.41-.66-1.6-.41-.19-.67.03-.67.98v2.39c0,.95.26,1.43.67,1.61.41.19.66-.06.66-1Z"/><line class="uuid-b207a36a-af6e-499b-9fcf-b1596d7a2181" x1="110.8" y1="128.71" x2="143.28" y2="142.33"/><line class="uuid-b207a36a-af6e-499b-9fcf-b1596d7a2181" x1="110.8" y1="132.95" x2="143.28" y2="146.2"/><line class="uuid-b207a36a-af6e-499b-9fcf-b1596d7a2181" x1="110.8" y1="137.19" x2="143.28" y2="150.08"/><line class="uuid-b207a36a-af6e-499b-9fcf-b1596d7a2181" x1="110.8" y1="141.42" x2="143.28" y2="153.95"/><line class="uuid-b207a36a-af6e-499b-9fcf-b1596d7a2181" x1="110.8" y1="145.66" x2="143.28" y2="157.82"/><line class="uuid-b207a36a-af6e-499b-9fcf-b1596d7a2181" x1="110.8" y1="149.9" x2="143.28" y2="161.7"/><polygon class="uuid-1073eabd-8385-4962-9654-ca3f360ba322" points="101.16 234.17 38.78 225.65 38.78 162.11 101.16 179.44 101.16 234.17"/><path class="uuid-89646714-f722-4079-84e4-594b98a9a390" d="M113.11,184.32c0,8.81-4.83,14.83-10.97,13.41-6.34-1.47-11.63-10.26-11.63-19.6s5.29-15.24,11.63-13.23c6.14,1.94,10.97,10.61,10.97,19.42Z"/><path class="uuid-3af9e895-b440-4ee8-b250-28b3ba561214" d="M98.06,175.08c0-1.54.55-2.23,1.57-1.93,1.01.3,1.55,1.3,1.55,2.82v4.87c0,1.52-.54,2.22-1.55,1.95-1.02-.27-1.57-1.27-1.57-2.81v-4.91ZM99.1,180.37c0,.66.19.99.53,1.08.32.09.53-.13.53-.79v-5.09c0-.66-.21-.99-.53-1.09-.34-.1-.53.12-.53.78v5.11ZM103.65,174.43l.93.27-4,13.66-.95-.24,4.02-13.69ZM103.14,181.92c0-1.52.53-2.21,1.53-1.93.99.28,1.51,1.26,1.51,2.76v4.8c0,1.5-.53,2.21-1.51,1.95-.99-.25-1.53-1.23-1.53-2.75v-4.84ZM104.15,187.13c0,.65.19.97.52,1.06.31.08.52-.14.52-.79v-5.03c0-.65-.2-.98-.52-1.06-.33-.09-.52.13-.52.78v5.04Z"/><path class="uuid-ac7f8d8f-0063-4184-9284-16b457c14bd1" d="M124.95,210.09c-1.43-.3-2.22-1.75-2.22-3.99v-1.1c0-1.34.26-2.32.88-2.71-.6-.64-.88-1.64-.88-3.02v-.44c0-2.24.79-3.32,2.22-2.96,1.42.36,2.2,1.81,2.2,4.03v.43c0,1.36-.29,2.22-.87,2.58.61.68.87,1.76.87,3.08v1.09c0,2.21-.78,3.31-2.2,3.01ZM124.15,200.02c0,1.11.34,1.55.8,1.66.45.11.8-.17.8-1.28v-.77c0-1.25-.35-1.67-.8-1.78-.45-.11-.8.14-.8,1.4v.78ZM124.95,208.1c.45.1.78-.17.8-1.39v-1.29c0-1.09-.29-1.63-.8-1.75-.5-.12-.8.3-.8,1.39v1.29c0,1.23.35,1.65.8,1.75Z"/><path class="uuid-ac7f8d8f-0063-4184-9284-16b457c14bd1" d="M129.23,206.4v1.28c0,.98.28,1.39.71,1.49.44.09.71-.2.71-1.17v-3.01c0-.98-.27-1.41-.71-1.51-.44-.1-.71.21-.71,1.19v.41l-1.31-.3.25-7.93,3.63.91v1.95l-2.38-.58-.11,3.25c.25-.59.65-.85,1.2-.71,1.01.24,1.51,1.47,1.51,3.48v3.04c0,2.18-.69,3.28-2.04,3-1.36-.29-2.06-1.7-2.06-3.9v-1.14l1.31.29Z"/><path class="uuid-ac7f8d8f-0063-4184-9284-16b457c14bd1" d="M134.23,209.84v2.05l-1.3-.28v-2.06l1.3.28Z"/><path class="uuid-ac7f8d8f-0063-4184-9284-16b457c14bd1" d="M139.08,209.6c0,2.25-.64,3.34-2.01,3.05-1.3-.28-1.98-1.66-1.98-3.82v-.35l1.26.28v.48c0,.96.27,1.38.69,1.48.47.1.73-.21.73-1.49v-2.45c-.23.71-.64,1.04-1.22.91-.98-.22-1.48-1.43-1.48-3.42v-2.47c0-2.16.72-3.22,2.02-2.89,1.29.32,1.99,1.72,1.99,3.86v6.83ZM137.77,204.73v-2.41c0-.96-.26-1.37-.68-1.47-.42-.1-.69.18-.69,1.14v2.42c0,.96.27,1.39.69,1.49.42.1.68-.21.68-1.16Z"/><path class="uuid-ac7f8d8f-0063-4184-9284-16b457c14bd1" d="M143.72,210.63c0,2.22-.63,3.3-1.95,3.01-1.27-.27-1.93-1.63-1.93-3.76v-.34l1.23.27v.47c0,.95.26,1.37.67,1.45.46.1.71-.2.71-1.47v-2.42c-.22.71-.62,1.03-1.19.9-.95-.21-1.44-1.41-1.44-3.37v-2.44c0-2.13.7-3.18,1.96-2.86,1.26.32,1.94,1.69,1.94,3.8v6.74ZM142.45,205.83v-2.38c0-.94-.26-1.35-.66-1.45-.41-.1-.67.18-.67,1.13v2.39c0,.95.26,1.37.67,1.46.41.09.66-.21.66-1.15Z"/><line class="uuid-b207a36a-af6e-499b-9fcf-b1596d7a2181" x1="110.8" y1="213.47" x2="143.28" y2="219.8"/><line class="uuid-b207a36a-af6e-499b-9fcf-b1596d7a2181" x1="110.8" y1="217.71" x2="143.28" y2="223.67"/><line class="uuid-b207a36a-af6e-499b-9fcf-b1596d7a2181" x1="110.8" y1="221.95" x2="143.28" y2="227.55"/><line class="uuid-b207a36a-af6e-499b-9fcf-b1596d7a2181" x1="110.8" y1="226.19" x2="143.28" y2="231.42"/><line class="uuid-b207a36a-af6e-499b-9fcf-b1596d7a2181" x1="110.8" y1="230.42" x2="143.28" y2="235.29"/><line class="uuid-b207a36a-af6e-499b-9fcf-b1596d7a2181" x1="110.8" y1="234.66" x2="143.28" y2="239.17"/><polygon class="uuid-193a1a65-5a56-401c-add7-b2926584c22e" points="101.16 321.1 38.78 326.58 38.78 263.03 101.16 266.37 101.16 321.1"/><path class="uuid-ac7f8d8f-0063-4184-9284-16b457c14bd1" d="M124.99,279.44c-.45,0-.73.36-.73,1.36v1.49l-1.35-.02v-1.36c0-2.24.73-3.5,2.12-3.46,1.38.04,2.09,1.32,2.09,3.53,0,4.34-2.8,5.96-2.8,8.25,0,.1,0,.2.01.3l2.66-.02v1.98l-4.09.05v-1.72c0-4.11,2.81-4.78,2.81-8.78,0-1.25-.28-1.59-.73-1.6Z"/><path class="uuid-ac7f8d8f-0063-4184-9284-16b457c14bd1" d="M127.87,281c0-2.21.75-3.45,2.1-3.41,1.35.04,2.08,1.3,2.08,3.48v7.09c0,2.18-.73,3.44-2.08,3.45-1.36.02-2.1-1.23-2.1-3.44v-7.17ZM129.26,288.3c0,.98.28,1.35.71,1.35.44,0,.71-.38.71-1.35v-7.39c0-.98-.27-1.35-.71-1.36-.44,0-.71.36-.71,1.34v7.42Z"/><path class="uuid-ac7f8d8f-0063-4184-9284-16b457c14bd1" d="M134.23,289.35v2.05l-1.3.02v-2.06h1.3Z"/><path class="uuid-ac7f8d8f-0063-4184-9284-16b457c14bd1" d="M136.4,287.03v1.25c0,.96.27,1.31.69,1.3.42,0,.68-.35.68-1.31v-2.95c0-.96-.26-1.32-.68-1.33-.42,0-.69.36-.69,1.32v.4h-1.26s.24-7.84.24-7.84l3.48.09v1.91l-2.29-.05-.11,3.21c.24-.63.63-.97,1.15-.96.97.01,1.46,1.11,1.46,3.07v2.98c0,2.14-.67,3.37-1.96,3.38-1.3.02-1.98-1.21-1.98-3.37v-1.12h1.26Z"/><path class="uuid-ac7f8d8f-0063-4184-9284-16b457c14bd1" d="M139.84,281.2c0-2.13.7-3.33,1.96-3.3,1.26.03,1.94,1.26,1.94,3.37v6.86c0,2.11-.68,3.32-1.94,3.34-1.27.02-1.96-1.19-1.96-3.33v-6.93ZM141.14,288.26c0,.95.26,1.31.67,1.3.41,0,.67-.36.67-1.31v-7.15c0-.94-.26-1.31-.67-1.32-.41,0-.67.35-.67,1.3v7.17Z"/><line class="uuid-b207a36a-af6e-499b-9fcf-b1596d7a2181" x1="110.8" y1="298.23" x2="143.28" y2="297.27"/><line class="uuid-b207a36a-af6e-499b-9fcf-b1596d7a2181" x1="110.8" y1="302.47" x2="143.28" y2="301.15"/><line class="uuid-b207a36a-af6e-499b-9fcf-b1596d7a2181" x1="110.8" y1="306.71" x2="143.28" y2="305.02"/><line class="uuid-b207a36a-af6e-499b-9fcf-b1596d7a2181" x1="110.8" y1="310.95" x2="143.28" y2="308.89"/><line class="uuid-b207a36a-af6e-499b-9fcf-b1596d7a2181" x1="110.8" y1="315.19" x2="143.28" y2="312.77"/><line class="uuid-b207a36a-af6e-499b-9fcf-b1596d7a2181" x1="110.8" y1="319.42" x2="143.28" y2="316.64"/><polygon class="uuid-3af9e895-b440-4ee8-b250-28b3ba561214" points="101.16 408.02 38.78 427.5 38.78 363.96 101.16 353.29 101.16 408.02"/><path class="uuid-89646714-f722-4079-84e4-594b98a9a390" d="M113.11,352.81c0,8.81-4.83,17-10.97,18.34-6.34,1.38-11.63-5.04-11.63-14.38s5.29-17.61,11.63-18.45c6.14-.81,10.97,5.68,10.97,14.49Z"/><path class="uuid-3af9e895-b440-4ee8-b250-28b3ba561214" d="M98.06,350.32c0-1.54.55-2.47,1.57-2.63,1.01-.16,1.55.6,1.55,2.13v4.87c0,1.52-.54,2.47-1.55,2.65-1.02.18-1.57-.57-1.57-2.11v-4.91ZM99.1,355.15c0,.66.19.9.53.84.32-.06.53-.37.53-1.03v-5.09c0-.66-.21-.9-.53-.85-.34.05-.53.36-.53,1.02v5.11ZM103.65,347.16l.93-.15-4,15.46-.95.19,4.02-15.5ZM103.14,354.88c0-1.52.53-2.45,1.53-2.62.99-.17,1.51.58,1.51,2.08v4.8c0,1.5-.53,2.44-1.51,2.63-.99.19-1.53-.54-1.53-2.06v-4.84ZM104.15,359.64c0,.65.19.89.52.83.31-.06.52-.37.52-1.02v-5.03c0-.65-.2-.89-.52-.83-.33.06-.52.36-.52,1.01v5.04Z"/><path class="uuid-ac7f8d8f-0063-4184-9284-16b457c14bd1" d="M122.82,363.1c0-2.36.7-3.77,2.17-4.07,1.38-.27,2.1.85,2.1,3.06v.36l-1.33.28v-.5c0-.99-.28-1.31-.73-1.22-.5.1-.79.54-.79,1.87v2.55c.24-.85.68-1.38,1.31-1.51,1.03-.22,1.56.8,1.56,2.83v2.53c0,2.21-.75,3.65-2.13,3.98-1.39.33-2.16-.77-2.16-3v-7.15ZM124.24,367.56v2.51c0,.99.28,1.29.73,1.18.45-.1.73-.53.73-1.52v-2.5c0-.99-.28-1.31-.73-1.21-.45.1-.73.54-.73,1.53Z"/><path class="uuid-ac7f8d8f-0063-4184-9284-16b457c14bd1" d="M127.87,361.93c0-2.21.75-3.62,2.1-3.88,1.35-.27,2.08.84,2.08,3.02v7.09c0,2.18-.73,3.6-2.08,3.92-1.36.32-2.1-.76-2.1-2.97v-7.17ZM129.26,368.92c0,.98.28,1.29.71,1.19.44-.1.71-.54.71-1.51v-7.39c0-.98-.27-1.29-.71-1.2-.44.09-.71.52-.71,1.5v7.42Z"/><path class="uuid-ac7f8d8f-0063-4184-9284-16b457c14bd1" d="M134.23,368.85v2.05l-1.3.31v-2.06l1.3-.3Z"/><path class="uuid-ac7f8d8f-0063-4184-9284-16b457c14bd1" d="M135.09,360.43c0-2.16.72-3.54,2.02-3.8,1.29-.26,2,.83,2,2.97v6.95c0,2.14-.7,3.53-2,3.83-1.3.31-2.02-.76-2.02-2.92v-7.03ZM136.42,367.29c0,.96.27,1.27.69,1.17.42-.1.68-.52.68-1.48v-7.24c0-.96-.26-1.27-.68-1.18-.42.09-.69.5-.69,1.47v7.27Z"/><path class="uuid-ac7f8d8f-0063-4184-9284-16b457c14bd1" d="M139.84,359.44c0-2.13.7-3.49,1.96-3.74,1.26-.25,1.94.82,1.94,2.93v6.86c0,2.11-.68,3.48-1.94,3.78-1.27.3-1.96-.75-1.96-2.89v-6.93ZM141.14,366.21c0,.95.26,1.25.67,1.15.41-.09.67-.51.67-1.46v-7.15c0-.95-.26-1.25-.67-1.17-.41.08-.67.5-.67,1.44v7.17Z"/><line class="uuid-b207a36a-af6e-499b-9fcf-b1596d7a2181" x1="110.8" y1="382.99" x2="143.28" y2="374.74"/><line class="uuid-b207a36a-af6e-499b-9fcf-b1596d7a2181" x1="110.8" y1="387.23" x2="143.28" y2="378.62"/><line class="uuid-b207a36a-af6e-499b-9fcf-b1596d7a2181" x1="110.8" y1="391.47" x2="143.28" y2="382.49"/><line class="uuid-b207a36a-af6e-499b-9fcf-b1596d7a2181" x1="110.8" y1="395.71" x2="143.28" y2="386.37"/><line class="uuid-b207a36a-af6e-499b-9fcf-b1596d7a2181" x1="110.8" y1="399.95" x2="143.28" y2="390.24"/><line class="uuid-b207a36a-af6e-499b-9fcf-b1596d7a2181" x1="110.8" y1="404.19" x2="143.28" y2="394.11"/><path class="uuid-8a660daa-e183-4639-8077-2fdf70fd7605" d="M120.55,65.11L36.13,19.96c-11.34-6.06-20.94-.08-20.94,13.62v438.03c0,13.71,9.6,20.38,20.94,15.14l37.69-17.42L120.55,65.11Z"/><path class="uuid-d289be86-6ddb-4182-849c-fec147eb18f2" d="M291.78,82.89l102.9-55.02v-7.3h18.32c6.98.28,11.94,6.1,11.94,15.93v438.03c0,10-5.12,16.23-12.29,16.85v.05h-.49c-.17,0-.35,0-.53,0h-16.95v-6.07l-102.9-47.56c-6.29-2.91-11.22-13.02-11.22-22.68V106.38c0-9.66,4.93-20.13,11.22-23.49Z"/><path class="uuid-51ae4fe1-c6c0-4788-a78f-2d2f0954e102" d="M276.59,437.8l112.22,51.87c11.34,5.24,20.94-1.43,20.94-15.14V36.5c0-13.71-9.6-19.68-20.94-13.62l-112.22,60.01c-6.29,3.36-11.22,13.83-11.22,23.49v308.74c0,9.66,4.93,19.77,11.22,22.68Z"/><path class="uuid-bda4f41b-9866-435b-9fb3-ebbf6e049527" d="M277.54,409.41l109.63,41.82c5.4,2.06,9.87-1.49,9.87-7.98V47.59c0-6.48-4.47-9.51-9.87-6.82l-109.63,54.63c-3.1,1.54-5.57,6.65-5.57,11.43v291.8c0,4.78,2.47,9.6,5.57,10.78Z"/><path class="uuid-b87c9fef-fe5e-45ea-9087-046572b22a2f" d="M320.42,442.44c0,4.69,2.07,9.41,4.65,10.55,2.61,1.16,4.75-1.78,4.75-6.58s-2.14-9.55-4.75-10.6c-2.58-1.04-4.65,1.93-4.65,6.62Z"/><path class="uuid-2d8c5687-5d9d-4eb0-9415-b8a9dd2543c5" d="M347.96,457.1l-7.15-3.08c-1.13-.49-2.04-2.48-2.04-4.46h0c0-1.98.91-3.21,2.04-2.74l5.14,2.12"/><polygon class="uuid-b87c9fef-fe5e-45ea-9087-046572b22a2f" points="345.92 451.41 345.92 446.73 348.43 450.55 345.92 451.41"/><line class="uuid-2d8c5687-5d9d-4eb0-9415-b8a9dd2543c5" x1="311.74" y1="435.02" x2="306.33" y2="432.78"/><line class="uuid-2d8c5687-5d9d-4eb0-9415-b8a9dd2543c5" x1="311.74" y1="438.53" x2="306.33" y2="436.24"/><line class="uuid-2d8c5687-5d9d-4eb0-9415-b8a9dd2543c5" x1="311.74" y1="442.03" x2="306.33" y2="439.7"/><path class="uuid-ac7f8d8f-0063-4184-9284-16b457c14bd1" d="M414.52,67.24c0,1.91,1.55,3.46,3.46,3.46s3.46-1.55,3.46-3.46-1.55-3.46-3.46-3.46-3.46,1.55-3.46,3.46Z"/><circle class="uuid-ac7f8d8f-0063-4184-9284-16b457c14bd1" cx="417.98" cy="81.35" r="3.46"/><path class="uuid-ac7f8d8f-0063-4184-9284-16b457c14bd1" d="M417.98,122.76h0c1.91,0,3.46-1.55,3.46-3.46v-26.16c0-1.91-1.55-3.46-3.46-3.46h0c-1.91,0-3.46,1.55-3.46,3.46v26.16c0,1.91,1.55,3.46,3.46,3.46Z"/><polygon class="uuid-1073eabd-8385-4962-9654-ca3f360ba322" points="329.56 148.81 282.23 163.84 282.23 115.13 329.56 93.53 329.56 148.81"/><path class="uuid-89646714-f722-4079-84e4-594b98a9a390" d="M342.28,89.41c0,9.47-5.34,19.34-11.74,21.97-6.2,2.54-11.08-2.7-11.08-11.65s4.89-18.61,11.08-21.67c6.4-3.16,11.74,1.88,11.74,11.35Z"/><path class="uuid-3af9e895-b440-4ee8-b250-28b3ba561214" d="M326.52,91.44c0-1.53.53-2.63,1.53-3.1,1-.47,1.54.13,1.54,1.67v4.92c0,1.54-.54,2.63-1.54,3.08-1,.44-1.53-.16-1.53-1.69v-4.88ZM327.52,95.97c0,.66.19.85.52.7.32-.14.52-.51.52-1.17v-5.12c0-.66-.2-.84-.52-.69-.33.16-.52.52-.52,1.18v5.1ZM332.08,86.55l.96-.45-4.06,16.85-.94.41,4.04-16.8ZM331.56,94.59c0-1.55.55-2.66,1.57-3.12,1.03-.47,1.58.14,1.58,1.7v4.98c0,1.56-.55,2.66-1.58,3.11-1.02.44-1.57-.18-1.57-1.73v-4.94ZM332.6,99.18c0,.67.19.86.53.71.33-.14.54-.51.54-1.18v-5.18c0-.67-.21-.86-.54-.71-.34.15-.53.52-.53,1.19v5.17Z"/><path class="uuid-ac7f8d8f-0063-4184-9284-16b457c14bd1" d="M355.64,103.86v1.48c0,1.14.36,1.4.95,1.17.58-.23.95-.79.95-1.93v-3.52c0-1.14-.37-1.43-.95-1.19-.58.24-.95.82-.95,1.96v.48l-1.72.7.33-9.35,4.83-2.07v2.3l-3.19,1.35-.15,3.87c.33-.89.86-1.52,1.6-1.83,1.36-.57,2.05.45,2.05,2.82v3.58c0,2.57-.94,4.41-2.75,5.12-1.79.7-2.71-.39-2.71-2.93v-1.32l1.72-.69Z"/><path class="uuid-ac7f8d8f-0063-4184-9284-16b457c14bd1" d="M360.46,94.87c0-2.58,1-4.48,2.85-5.28,1.86-.8,2.89.25,2.89,2.87v8.49c0,2.61-1.02,4.51-2.89,5.24-1.85.72-2.85-.36-2.85-2.94v-8.38ZM362.34,102.66c0,1.16.38,1.45.98,1.21.6-.24.98-.83.98-1.99v-8.78c0-1.16-.38-1.44-.98-1.19-.6.25-.98.85-.98,2.01v8.74Z"/><path class="uuid-ac7f8d8f-0063-4184-9284-16b457c14bd1" d="M369.3,101.16v2.49l-1.86.73v-2.48l1.86-.74Z"/><path class="uuid-ac7f8d8f-0063-4184-9284-16b457c14bd1" d="M376.53,96.67c0,2.82-.98,4.73-3.04,5.54-1.93.76-2.93-.36-2.93-3v-.42l1.85-.74v.59c0,1.18.39,1.48,1.02,1.23.7-.28,1.1-.89,1.1-2.48v-3.04c-.34,1.09-.95,1.86-1.84,2.22-1.45.59-2.17-.46-2.17-2.89v-3.02c0-2.64,1.05-4.6,2.98-5.43,1.95-.84,3.02.23,3.02,2.91v8.55ZM374.53,91.78v-3c0-1.19-.4-1.45-1.03-1.18-.63.27-1.02.86-1.02,2.04v2.98c0,1.18.39,1.47,1.02,1.21.63-.26,1.03-.87,1.03-2.06Z"/><path class="uuid-ac7f8d8f-0063-4184-9284-16b457c14bd1" d="M383.87,93.72c0,2.87-1.02,4.82-3.14,5.65-2,.78-3.03-.35-3.03-3.03v-.43l1.91-.77v.6c0,1.2.41,1.5,1.06,1.24.73-.29,1.14-.91,1.14-2.53v-3.09c-.35,1.11-.99,1.9-1.9,2.27-1.49.6-2.25-.46-2.25-2.92v-3.07c0-2.68,1.08-4.68,3.08-5.54,2.01-.87,3.12.21,3.12,2.93v8.69ZM381.81,88.77v-3.05c0-1.21-.41-1.47-1.06-1.19-.65.28-1.06.88-1.06,2.08v3.03c0,1.2.41,1.49,1.06,1.23.65-.27,1.06-.89,1.06-2.1Z"/><line class="uuid-75c4ab94-1d56-439e-8803-3c936a2198fa" x1="339.7" y1="122.21" x2="383.16" y2="105.92"/><line class="uuid-75c4ab94-1d56-439e-8803-3c936a2198fa" x1="339.7" y1="126.71" x2="383.16" y2="110.9"/><line class="uuid-75c4ab94-1d56-439e-8803-3c936a2198fa" x1="339.7" y1="131.21" x2="383.16" y2="115.88"/><line class="uuid-75c4ab94-1d56-439e-8803-3c936a2198fa" x1="339.7" y1="135.71" x2="383.16" y2="120.86"/><line class="uuid-75c4ab94-1d56-439e-8803-3c936a2198fa" x1="339.7" y1="140.21" x2="383.16" y2="125.84"/><line class="uuid-75c4ab94-1d56-439e-8803-3c936a2198fa" x1="339.7" y1="144.72" x2="383.16" y2="130.82"/><polygon class="uuid-ac7f8d8f-0063-4184-9284-16b457c14bd1" points="329.56 236.6 282.23 241.21 282.23 192.5 329.56 181.33 329.56 236.6"/><path class="uuid-89646714-f722-4079-84e4-594b98a9a390" d="M342.28,180.01c0,9.47-5.34,18.17-11.74,19.38-6.2,1.18-11.08-5.14-11.08-14.09s4.89-17.54,11.08-19.23c6.4-1.75,11.74,4.47,11.74,13.94Z"/><path class="uuid-3af9e895-b440-4ee8-b250-28b3ba561214" d="M326.52,178.56c0-1.53.53-2.51,1.53-2.76,1-.25,1.54.47,1.54,2.01v4.92c0,1.54-.54,2.52-1.54,2.74-1,.23-1.53-.5-1.53-2.03v-4.88ZM327.52,183.31c0,.66.19.89.52.82.32-.07.52-.4.52-1.06v-5.12c0-.66-.2-.89-.52-.81-.33.08-.52.41-.52,1.06v5.1ZM332.08,174.9l.96-.24-4.06,15.95-.94.2,4.04-15.91ZM331.56,182.82c0-1.55.55-2.53,1.57-2.78,1.03-.24,1.58.49,1.58,2.05v4.98c0,1.56-.55,2.54-1.58,2.76-1.02.22-1.57-.53-1.57-2.07v-4.94ZM332.6,187.65c0,.67.19.91.53.83.33-.07.54-.4.54-1.07v-5.18c0-.67-.21-.9-.54-.83-.34.08-.53.4-.53,1.07v5.17Z"/><path class="uuid-ac7f8d8f-0063-4184-9284-16b457c14bd1" d="M356.62,202.56c-1.84.31-2.84-.96-2.84-3.5v-1.25c0-1.52.33-2.76,1.12-3.52-.76-.42-1.12-1.42-1.12-2.98v-.5c0-2.54,1-4.2,2.84-4.59,1.85-.39,2.88.87,2.88,3.44v.51c0,1.59-.39,2.74-1.14,3.46.81.47,1.14,1.6,1.14,3.14v1.26c0,2.57-1.03,4.22-2.88,4.54ZM355.59,191.42c0,1.27.43,1.6,1.03,1.49.58-.11,1.03-.61,1.03-1.89v-.89c0-1.44-.45-1.74-1.03-1.62-.58.12-1.03.6-1.03,2.03v.89ZM356.62,200.28c.58-.1,1.02-.57,1.03-1.99v-1.49c0-1.26-.38-1.74-1.03-1.61-.65.12-1.03.74-1.03,1.99v1.48c0,1.41.45,1.72,1.03,1.62Z"/><path class="uuid-ac7f8d8f-0063-4184-9284-16b457c14bd1" d="M362.3,196.18v1.5c0,1.16.38,1.51.98,1.4.6-.11.98-.59.98-1.75v-3.58c0-1.16-.38-1.53-.98-1.41-.6.12-.98.63-.98,1.78v.49l-1.77.33.34-9.42,4.98-1.04v2.33l-3.29.67-.15,3.89c.34-.83.89-1.36,1.65-1.5,1.4-.28,2.11.91,2.11,3.32v3.64c0,2.61-.97,4.27-2.83,4.59-1.85.32-2.8-1-2.8-3.58v-1.34l1.77-.33Z"/><path class="uuid-ac7f8d8f-0063-4184-9284-16b457c14bd1" d="M369.3,197.71v2.49l-1.86.32v-2.48l1.86-.33Z"/><path class="uuid-ac7f8d8f-0063-4184-9284-16b457c14bd1" d="M376.53,194.81c0,2.82-.98,4.52-3.04,4.87-1.93.33-2.93-1.01-2.93-3.65v-.42l1.85-.34v.59c0,1.18.39,1.56,1.02,1.45.7-.12,1.1-.65,1.1-2.24v-3.04c-.34,1.01-.95,1.65-1.84,1.81-1.45.27-2.17-.94-2.17-3.37v-3.02c0-2.64,1.05-4.37,2.98-4.77,1.95-.41,3.02.9,3.02,3.57v8.55ZM374.53,189.48v-3c0-1.19-.4-1.54-1.03-1.41-.63.13-1.02.64-1.02,1.82v2.98c0,1.18.39,1.56,1.02,1.44.63-.12,1.03-.65,1.03-1.84Z"/><path class="uuid-ac7f8d8f-0063-4184-9284-16b457c14bd1" d="M383.87,193.48c0,2.87-1.02,4.59-3.14,4.96-2,.34-3.03-1.02-3.03-3.7v-.43l1.91-.35v.6c0,1.2.41,1.59,1.06,1.47.73-.13,1.14-.66,1.14-2.28v-3.09c-.35,1.03-.99,1.68-1.9,1.85-1.49.28-2.25-.95-2.25-3.42v-3.07c0-2.68,1.08-4.44,3.08-4.86,2.01-.42,3.12.9,3.12,3.62v8.69ZM381.81,188.08v-3.05c0-1.21-.41-1.56-1.06-1.43-.65.13-1.06.65-1.06,1.85v3.03c0,1.2.41,1.58,1.06,1.46.65-.12,1.06-.66,1.06-1.87Z"/><line class="uuid-75c4ab94-1d56-439e-8803-3c936a2198fa" x1="339.7" y1="212.24" x2="383.16" y2="205.52"/><line class="uuid-75c4ab94-1d56-439e-8803-3c936a2198fa" x1="339.7" y1="216.74" x2="383.16" y2="210.5"/><line class="uuid-75c4ab94-1d56-439e-8803-3c936a2198fa" x1="339.7" y1="221.24" x2="383.16" y2="215.48"/><line class="uuid-75c4ab94-1d56-439e-8803-3c936a2198fa" x1="339.7" y1="225.74" x2="383.16" y2="220.46"/><line class="uuid-75c4ab94-1d56-439e-8803-3c936a2198fa" x1="339.7" y1="230.24" x2="383.16" y2="225.44"/><line class="uuid-75c4ab94-1d56-439e-8803-3c936a2198fa" x1="339.7" y1="234.74" x2="383.16" y2="230.42"/><polygon class="uuid-36972eda-c181-4ea0-bb6f-a523541714bd" points="329.56 324.4 282.23 318.58 282.23 269.87 329.56 269.12 329.56 324.4"/><path class="uuid-89646714-f722-4079-84e4-594b98a9a390" d="M342.28,270.6c0,9.47-5.34,16.99-11.74,16.8-6.2-.19-11.08-7.59-11.08-16.53s4.89-16.46,11.08-16.79c6.4-.34,11.74,7.05,11.74,16.53Z"/><path class="uuid-3af9e895-b440-4ee8-b250-28b3ba561214" d="M326.52,265.68c0-1.53.53-2.39,1.53-2.42,1-.03,1.54.81,1.54,2.35v4.92c0,1.54-.54,2.4-1.54,2.4-1,0-1.53-.84-1.53-2.37v-4.88ZM327.52,270.66c0,.66.19.93.52.93.32,0,.52-.28.52-.94v-5.12c0-.66-.2-.93-.52-.92-.33,0-.52.29-.52.95v5.1ZM332.08,263.25l.96-.03-4.06,15.06h-.94s4.04-15.03,4.04-15.03ZM331.56,271.06c0-1.55.55-2.41,1.57-2.43,1.03-.02,1.58.84,1.58,2.4v4.98c0,1.56-.55,2.42-1.58,2.41-1.02,0-1.57-.87-1.57-2.42v-4.94ZM332.6,276.11c0,.67.19.95.53.95.33,0,.54-.28.54-.95v-5.18c0-.67-.21-.95-.54-.94-.34,0-.53.29-.53.96v5.17Z"/><path class="uuid-ac7f8d8f-0063-4184-9284-16b457c14bd1" d="M356.67,282.26c-.58,0-.95.42-.95,1.56v1.71l-1.72-.04v-1.54c0-2.54.92-3.98,2.71-3.96,1.8.02,2.75,1.5,2.75,4.07,0,5.05-3.66,6.8-3.66,9.42,0,.11,0,.23.02.34l3.48.15v2.3l-5.29-.26v-1.95c0-4.67,3.61-5.33,3.61-9.95,0-1.44-.37-1.84-.95-1.85Z"/><path class="uuid-ac7f8d8f-0063-4184-9284-16b457c14bd1" d="M360.46,284.07c0-2.58,1-4.04,2.85-4.02,1.86.02,2.89,1.52,2.89,4.14v8.49c0,2.61-1.02,4.06-2.89,3.96-1.85-.09-2.85-1.61-2.85-4.19v-8.38ZM362.34,292.69c0,1.16.38,1.61.98,1.64.6.03.98-.4.98-1.56v-8.78c0-1.16-.38-1.61-.98-1.62-.6,0-.98.42-.98,1.58v8.74Z"/><path class="uuid-ac7f8d8f-0063-4184-9284-16b457c14bd1" d="M369.3,294.26v2.49l-1.86-.09v-2.48l1.86.08Z"/><path class="uuid-ac7f8d8f-0063-4184-9284-16b457c14bd1" d="M372.48,291.56v1.54c0,1.18.39,1.63,1.02,1.65.63.03,1.03-.38,1.03-1.57v-3.66c0-1.19-.4-1.65-1.03-1.67-.63-.02-1.02.42-1.02,1.6v.5l-1.85-.06.36-9.57,5.22.06v2.39l-3.45-.06-.16,3.95c.36-.77.93-1.19,1.73-1.17,1.47.03,2.21,1.41,2.21,3.87v3.73c0,2.68-1.02,4.15-2.97,4.06-1.93-.1-2.93-1.65-2.93-4.29v-1.37l1.85.07Z"/><path class="uuid-ac7f8d8f-0063-4184-9284-16b457c14bd1" d="M377.7,284.42c0-2.68,1.08-4.21,3.08-4.18,2.02.02,3.13,1.59,3.13,4.31v8.84c0,2.72-1.11,4.22-3.13,4.12-2-.1-3.08-1.68-3.08-4.37v-8.72ZM379.73,293.39c0,1.2.41,1.68,1.06,1.71.65.03,1.06-.41,1.06-1.62v-9.14c0-1.21-.41-1.67-1.06-1.69-.65-.01-1.06.44-1.06,1.64v9.1Z"/><line class="uuid-75c4ab94-1d56-439e-8803-3c936a2198fa" x1="339.7" y1="302.26" x2="383.16" y2="305.12"/><line class="uuid-75c4ab94-1d56-439e-8803-3c936a2198fa" x1="339.7" y1="306.76" x2="383.16" y2="310.1"/><line class="uuid-75c4ab94-1d56-439e-8803-3c936a2198fa" x1="339.7" y1="311.27" x2="383.16" y2="315.08"/><line class="uuid-75c4ab94-1d56-439e-8803-3c936a2198fa" x1="339.7" y1="315.77" x2="383.16" y2="320.06"/><line class="uuid-75c4ab94-1d56-439e-8803-3c936a2198fa" x1="339.7" y1="320.27" x2="383.16" y2="325.04"/><line class="uuid-75c4ab94-1d56-439e-8803-3c936a2198fa" x1="339.7" y1="324.77" x2="383.16" y2="330.02"/><polygon class="uuid-51ae4fe1-c6c0-4788-a78f-2d2f0954e102" points="329.56 412.19 282.23 395.94 282.23 347.23 329.56 356.92 329.56 412.19"/><path class="uuid-89646714-f722-4079-84e4-594b98a9a390" d="M342.28,361.2c0,9.47-5.34,15.81-11.74,14.21-6.2-1.55-11.08-10.03-11.08-18.97s4.89-15.38,11.08-14.35c6.4,1.07,11.74,9.64,11.74,19.11Z"/><path class="uuid-3af9e895-b440-4ee8-b250-28b3ba561214" d="M326.52,352.81c0-1.53.53-2.27,1.53-2.08,1,.19,1.54,1.15,1.54,2.69v4.92c0,1.54-.54,2.28-1.54,2.06-1-.21-1.53-1.18-1.53-2.7v-4.88ZM327.52,358c0,.66.19.98.52,1.05.32.07.52-.17.52-.83v-5.12c0-.66-.2-.98-.52-1.04-.33-.06-.52.18-.52.83v5.1ZM332.08,351.6l.96.18-4.06,14.17-.94-.21,4.04-14.14ZM331.56,359.29c0-1.55.55-2.29,1.57-2.09,1.03.21,1.58,1.19,1.58,2.75v4.98c0,1.56-.55,2.3-1.58,2.06-1.02-.23-1.57-1.22-1.57-2.76v-4.94ZM332.6,364.57c0,.67.19.99.53,1.07.33.07.54-.16.54-.83v-5.18c0-.67-.21-.99-.54-1.06-.34-.07-.53.17-.53.84v5.17Z"/><path class="uuid-ac7f8d8f-0063-4184-9284-16b457c14bd1" d="M353.89,377.23c0-2.68.89-3.92,2.78-3.49,1.8.42,2.75,2.11,2.75,4.68v.41l-1.75-.42v-.57c0-1.14-.37-1.67-.95-1.8-.65-.15-1.01.19-1.01,1.72v2.92c.31-.83.88-1.2,1.7-1,1.36.33,2.05,1.81,2.05,4.18v2.94c0,2.57-.99,3.78-2.8,3.29-1.79-.48-2.76-2.2-2.76-4.73v-8.12ZM355.7,383.11v2.87c0,1.14.36,1.64.95,1.8.58.15.95-.16.95-1.3v-2.88c0-1.14-.37-1.67-.95-1.82-.58-.15-.95.2-.95,1.33Z"/><path class="uuid-ac7f8d8f-0063-4184-9284-16b457c14bd1" d="M360.46,378.67c0-2.58,1-3.82,2.85-3.4,1.86.43,2.89,2.16,2.89,4.78v8.49c0,2.61-1.02,3.83-2.89,3.33-1.85-.5-2.85-2.24-2.85-4.82v-8.38ZM362.34,387.7c0,1.16.38,1.7.98,1.85.6.16.98-.18.98-1.34v-8.78c0-1.16-.38-1.69-.98-1.83-.6-.14-.98.21-.98,1.36v8.74Z"/><path class="uuid-ac7f8d8f-0063-4184-9284-16b457c14bd1" d="M369.3,390.81v2.49l-1.86-.5v-2.48l1.86.49Z"/><path class="uuid-ac7f8d8f-0063-4184-9284-16b457c14bd1" d="M370.56,381.1c0-2.64,1.05-3.91,2.98-3.46,1.95.45,3.03,2.23,3.03,4.91v8.7c0,2.68-1.07,3.92-3.03,3.39-1.93-.52-2.98-2.31-2.98-4.95v-8.58ZM372.52,390.36c0,1.18.39,1.74,1.02,1.9.63.17,1.03-.18,1.03-1.37v-8.99c0-1.19-.4-1.73-1.03-1.88-.63-.15-1.02.21-1.02,1.39v8.95Z"/><path class="uuid-ac7f8d8f-0063-4184-9284-16b457c14bd1" d="M377.7,382.82c0-2.68,1.08-3.97,3.08-3.5,2.02.47,3.13,2.28,3.13,5v8.84c0,2.72-1.11,3.98-3.13,3.43-2-.54-3.08-2.36-3.08-5.05v-8.72ZM379.73,392.23c0,1.2.41,1.77,1.06,1.94.65.17,1.06-.18,1.06-1.39v-9.14c0-1.21-.41-1.76-1.06-1.92-.65-.15-1.06.21-1.06,1.41v9.1Z"/><line class="uuid-75c4ab94-1d56-439e-8803-3c936a2198fa" x1="339.7" y1="392.29" x2="383.16" y2="404.72"/><line class="uuid-75c4ab94-1d56-439e-8803-3c936a2198fa" x1="339.7" y1="396.79" x2="383.16" y2="409.7"/><line class="uuid-75c4ab94-1d56-439e-8803-3c936a2198fa" x1="339.7" y1="401.29" x2="383.16" y2="414.68"/><line class="uuid-75c4ab94-1d56-439e-8803-3c936a2198fa" x1="339.7" y1="405.79" x2="383.16" y2="419.66"/><line class="uuid-75c4ab94-1d56-439e-8803-3c936a2198fa" x1="339.7" y1="410.29" x2="383.16" y2="424.64"/><line class="uuid-75c4ab94-1d56-439e-8803-3c936a2198fa" x1="339.7" y1="414.8" x2="383.16" y2="429.62"/><path class="uuid-fbd2c3ad-ba2d-4c13-835f-ea7e4b5d751e" d="M388.81,22.88l-67.82,36.27,24.03,410.28,43.79,20.24c11.34,5.24,20.94-1.43,20.94-15.14V36.5c0-13.71-9.6-19.68-20.94-13.62Z"/><path class="uuid-51ae4fe1-c6c0-4788-a78f-2d2f0954e102" d="M231.65,189.55l-128.11-34.08c-3.85-1.02-6.97-7.55-6.97-14.59V12.73c0-7.03,3.12-11.07,6.97-9.02l128.11,68.27c3.85,2.05,6.97,8.01,6.97,13.3v96.53c0,5.3-3.12,8.76-6.97,7.74Z"/><path class="uuid-1073eabd-8385-4962-9654-ca3f360ba322" d="M138,98.29l-15.07-5.88c-2.4-.94-4.34-5.11-4.34-9.33v-16.22c0-4.22,1.94-6.77,4.34-5.69l15.07,6.74c2.4,1.07,4.34,5.21,4.34,9.25v15.52c0,4.04-1.94,6.55-4.34,5.61Z"/><polyline class="uuid-c8b9e798-bff7-43fc-ac0f-4021190cee2a" points="129.45 63.83 128.16 74.82 128.16 83.49 129.45 95.11"/><polyline class="uuid-c8b9e798-bff7-43fc-ac0f-4021190cee2a" points="131.48 64.74 132.77 77.29 132.77 85.14 131.48 95.91"/><line class="uuid-c8b9e798-bff7-43fc-ac0f-4021190cee2a" x1="118.68" y1="71.03" x2="127.92" y2="74.96"/><line class="uuid-c8b9e798-bff7-43fc-ac0f-4021190cee2a" x1="118.68" y1="79.15" x2="127.92" y2="82.94"/><line class="uuid-c8b9e798-bff7-43fc-ac0f-4021190cee2a" x1="133.01" y1="77.13" x2="142.25" y2="81.07"/><line class="uuid-c8b9e798-bff7-43fc-ac0f-4021190cee2a" x1="133.01" y1="85.04" x2="142.25" y2="88.84"/><polygon class="uuid-d289be86-6ddb-4182-849c-fec147eb18f2" points="228.17 95.61 189.2 77.08 189.2 59.94 228.17 79.85 228.17 95.61"/><path class="uuid-3af9e895-b440-4ee8-b250-28b3ba561214" d="M115.5,108.13v.29c0,1.17-.32,1.99-.89,2.15.6.54.89,1.55.89,2.72v.92c0,1.73-.42,2.86-1.45,2.51s-1.45-1.77-1.45-3.51v-.68l.42.15v.72c0,1.3.28,2.36,1.02,2.61s1.02-.6,1.02-1.96v-.92c0-1.24-.35-2.07-1-2.35l-.45-.16v-.72l.47.17c.6.15.98-.5.98-1.64v-.42c0-1.36-.28-2.41-1.02-2.68s-1.02.59-1.02,1.88v.48l-.42-.15v-.43c0-1.74.42-2.87,1.45-2.49s1.45,1.8,1.45,3.53Z"/><path class="uuid-3af9e895-b440-4ee8-b250-28b3ba561214" d="M118.29,111.17c.23-.56.59-.7,1.08-.53.93.33,1.31,1.71,1.31,3.34v2.02c0,1.7-.43,2.83-1.46,2.48s-1.45-1.78-1.45-3.49v-.64l.42.15v.68c0,1.27.29,2.33,1.02,2.58s1.03-.61,1.03-1.87v-1.99c0-1.26-.29-2.32-1.03-2.58-.49-.17-.83.18-.96,1.01v.2l-.41-.14.17-6.26,2.53.91v.72l-2.12-.77-.12,4.18Z"/><path class="uuid-3af9e895-b440-4ee8-b250-28b3ba561214" d="M125.86,111.84c0,3.36-2.43,3.68-2.46,7.12v.13l2.4.82v.7l-2.84-.97v-.57c0-4.14,2.46-4.16,2.46-7.36,0-1.35-.26-2.39-1.03-2.67s-1.01.64-1.01,1.9v.8l-.42-.15v-.75c0-1.69.41-2.86,1.45-2.49s1.45,1.79,1.45,3.49Z"/><path class="uuid-3af9e895-b440-4ee8-b250-28b3ba561214" d="M129.39,111.54c-.24.46-.6.7-1.05.6v-.66c.66.15.97-.41,1.14-1.21l.35.13v11.59l-.44-.15v-10.29Z"/><path class="uuid-3af9e895-b440-4ee8-b250-28b3ba561214" d="M138.38,116.18v.36c0,1.17-.26,2.01-.89,2.08.65.56.89,1.57.89,2.76v.81c0,1.68-.5,2.65-1.53,2.3s-1.53-1.67-1.53-3.35v-.82c0-1.21.23-2.03.9-2.14-.65-.54-.9-1.51-.9-2.72v-.36c0-1.7.51-2.6,1.53-2.23s1.53,1.63,1.53,3.32ZM135.77,115.26v.47c0,1.29.37,2.09,1.08,2.34s1.08-.29,1.08-1.57v-.47c0-1.34-.37-2.24-1.08-2.49s-1.08.38-1.08,1.72ZM135.77,120.4v.87c0,1.32.36,2.28,1.08,2.53s1.08-.46,1.08-1.78v-.86c0-1.34-.35-2.13-1.08-2.38s-1.08.29-1.08,1.63Z"/><path class="uuid-3af9e895-b440-4ee8-b250-28b3ba561214" d="M143.28,124.07v2.5l-.43-.15v-2.5l-2.29-.79v-.7l2.23-7.35.5.18v8.13l.57.2v.68l-.57-.2ZM140.95,122.59l1.89.66v-6.75l-1.89,6.09Z"/><path class="uuid-3af9e895-b440-4ee8-b250-28b3ba561214" d="M146.54,121.14c.23-.53.59-.66,1.09-.48.93.33,1.31,1.64,1.31,3.19v1.91c0,1.61-.43,2.68-1.46,2.33s-1.45-1.71-1.45-3.33v-.61l.42.15v.64c0,1.2.29,2.21,1.02,2.46s1.03-.56,1.03-1.76v-1.88c0-1.2-.29-2.21-1.03-2.47-.49-.17-.83.16-.96.94v.19l-.41-.14.17-5.94,2.53.91v.69l-2.12-.77-.13,3.96Z"/><path class="uuid-3af9e895-b440-4ee8-b250-28b3ba561214" d="M154.12,121.86v.13l-.42-.15v-.17c0-1.19-.28-2.14-1.02-2.41s-1.06.51-1.06,1.81v2.57c.22-.54.6-.81,1.2-.59.94.33,1.32,1.62,1.32,3.17v1.36c0,1.61-.45,2.64-1.48,2.29s-1.49-1.7-1.49-3.32v-5.65c0-1.67.44-2.68,1.49-2.3s1.45,1.66,1.45,3.27ZM151.62,125.38v1.35c0,1.22.3,2.2,1.05,2.45s1.04-.51,1.04-1.73v-1.34c0-1.19-.3-2.18-1.04-2.44s-1.05.52-1.05,1.71Z"/><path class="uuid-3af9e895-b440-4ee8-b250-28b3ba561214" d="M162.34,124.86c0,3.14-2.43,3.38-2.46,6.59v.13l2.4.82v.65l-2.84-.97v-.53c0-3.86,2.46-3.83,2.46-6.81,0-1.26-.26-2.24-1.03-2.52s-1.01.57-1.01,1.74v.75l-.42-.15v-.7c0-1.58.41-2.66,1.45-2.29s1.45,1.71,1.45,3.29Z"/><path class="uuid-3af9e895-b440-4ee8-b250-28b3ba561214" d="M165.1,127.69c.23-.51.59-.63,1.09-.45.93.33,1.31,1.6,1.31,3.09v1.85c0,1.55-.43,2.58-1.46,2.23s-1.45-1.67-1.45-3.23v-.59l.42.15v.62c0,1.16.29,2.14,1.02,2.39s1.03-.53,1.03-1.68v-1.82c0-1.15-.29-2.13-1.03-2.4-.49-.17-.83.14-.96.9v.19l-.41-.14.17-5.72,2.53.91v.66l-2.12-.77-.13,3.82Z"/><path class="uuid-3af9e895-b440-4ee8-b250-28b3ba561214" d="M172.41,134.13v2.36l-.43-.15v-2.36l-2.29-.79v-.66l2.23-6.9.5.18v7.68l.57.2v.64l-.57-.2ZM170.08,132.68l1.89.66v-6.37l-1.89,5.72Z"/><path class="uuid-3af9e895-b440-4ee8-b250-28b3ba561214" d="M177.61,128.34l-2.47-.89v-.65l2.92,1.06v.63l-1.89,9.28-.45-.15,1.89-9.28Z"/><path class="uuid-3af9e895-b440-4ee8-b250-28b3ba561214" d="M186.28,133.34v.12l-.42-.15v-.16c0-1.11-.28-2.01-1.02-2.28s-1.06.45-1.06,1.67v2.41c.22-.5.6-.74,1.2-.53.94.33,1.33,1.55,1.33,3v1.27c0,1.51-.45,2.47-1.48,2.12s-1.49-1.62-1.49-3.14v-5.31c0-1.56.44-2.51,1.49-2.13s1.45,1.59,1.45,3.1ZM183.78,136.58v1.27c0,1.15.3,2.07,1.05,2.32s1.04-.46,1.04-1.6v-1.26c0-1.11-.3-2.05-1.04-2.31s-1.05.47-1.05,1.58Z"/><path class="uuid-3af9e895-b440-4ee8-b250-28b3ba561214" d="M191.49,135.24v5.22c0,1.52-.43,2.48-1.48,2.12s-1.47-1.58-1.47-3.08v-.13l.42.15v.16c0,1.12.3,2.03,1.04,2.28s1.05-.46,1.05-1.68v-2.52c-.21.69-.6.88-1.19.67-.94-.33-1.33-1.52-1.33-2.98v-1.25c0-1.52.45-2.46,1.48-2.09s1.48,1.63,1.48,3.14ZM188.98,134.3v1.25c0,1.12.3,2.05,1.04,2.31s1.04-.46,1.04-1.57v-1.25c0-1.11-.3-2.04-1.04-2.31s-1.04.45-1.04,1.57Z"/><path class="uuid-3af9e895-b440-4ee8-b250-28b3ba561214" d="M196.78,137.03v.32c0,1.04-.26,1.78-.89,1.82.65.52.89,1.43.89,2.49v.72c0,1.49-.5,2.34-1.53,1.99s-1.53-1.54-1.53-3.04v-.73c0-1.08.23-1.8.9-1.87-.65-.51-.9-1.38-.9-2.46v-.32c0-1.52.51-2.3,1.53-1.93s1.53,1.51,1.53,3.02ZM194.17,136.11v.42c0,1.15.37,1.88,1.09,2.13s1.08-.21,1.08-1.36v-.42c0-1.19-.37-2.01-1.08-2.26s-1.09.29-1.09,1.49ZM194.17,140.68v.77c0,1.18.36,2.04,1.09,2.29s1.08-.37,1.08-1.54v-.77c0-1.19-.35-1.91-1.08-2.17s-1.09.22-1.09,1.41Z"/><path class="uuid-3af9e895-b440-4ee8-b250-28b3ba561214" d="M202.05,138.91v.32c0,1.03-.26,1.76-.89,1.79.65.52.89,1.42.89,2.46v.72c0,1.48-.5,2.31-1.53,1.96s-1.53-1.53-1.53-3.02v-.72c0-1.07.23-1.78.9-1.85-.65-.5-.9-1.37-.9-2.44v-.32c0-1.5.51-2.27,1.53-1.9s1.53,1.5,1.53,2.99ZM199.43,137.99v.42c0,1.14.37,1.86,1.09,2.11s1.08-.21,1.08-1.34v-.42c0-1.18-.37-1.99-1.08-2.24s-1.09.29-1.09,1.47ZM199.43,142.51v.76c0,1.17.36,2.02,1.09,2.27s1.08-.36,1.08-1.52v-.76c0-1.18-.35-1.89-1.08-2.15s-1.09.21-1.09,1.39Z"/><path class="uuid-3af9e895-b440-4ee8-b250-28b3ba561214" d="M112.62,137.69v-11.94l.44.14v11.22l2.11.64v.71l-2.55-.77Z"/><path class="uuid-3af9e895-b440-4ee8-b250-28b3ba561214" d="M117.35,130.17c0-1.73.45-2.85,1.47-2.52s1.49,1.74,1.49,3.46v6.02c0,1.72-.45,2.84-1.49,2.53s-1.47-1.71-1.47-3.44v-6.06ZM117.79,136.41c0,1.28.29,2.32,1.03,2.54s1.05-.63,1.05-1.9v-6.13c0-1.28-.3-2.32-1.05-2.56s-1.03.62-1.03,1.9v6.15Z"/><path class="uuid-3af9e895-b440-4ee8-b250-28b3ba561214" d="M123.97,129.42c1.03.33,1.44,1.45,1.44,3.1v1.02c0,1.37-.31,2.05-.97,2.11.69.48.97,1.42.97,2.69v1.82c0,.48.02,1.02.16,1.45l-.46-.14c-.12-.39-.14-.81-.14-1.44v-1.83c0-1.55-.49-2.14-1.26-2.38l-.7-.22v5.24l-.44-.13v-11.73l1.4.45ZM123.72,135.11c.79.25,1.25,0,1.25-1.56v-1.1c0-1.25-.28-2.09-1.01-2.33l-.95-.31v5.07l.71.22Z"/><path class="uuid-3af9e895-b440-4ee8-b250-28b3ba561214" d="M130.09,136.75v.69l-1.83-.57v4.84l2.21.67v.69l-2.65-.8v-11.62l2.65.86v.69l-2.21-.71v4.68l1.83.58Z"/><path class="uuid-3af9e895-b440-4ee8-b250-28b3ba561214" d="M134.98,144.43l-.44-.13-1.42-10.6v10.19l-.39-.12v-11.51l.63.2,1.41,10.6,1.4-9.69.63.2v11.42l-.42-.13v-10.16l-1.4,9.72Z"/><path class="uuid-3af9e895-b440-4ee8-b250-28b3ba561214" d="M142.58,135.44v11.3l-.44-.13v-11.31l.44.14Z"/><path class="uuid-3af9e895-b440-4ee8-b250-28b3ba561214" d="M146.27,136.63c1.04.34,1.44,1.55,1.44,3.18v1.22c0,1.77-.49,2.5-1.56,2.17l-.84-.26v4.63l-.44-.13v-11.25l1.39.45ZM146.16,142.53c.78.24,1.11-.23,1.11-1.59v-1.31c0-1.22-.25-2.08-1-2.32l-.95-.31v5.27l.84.26Z"/><path class="uuid-3af9e895-b440-4ee8-b250-28b3ba561214" d="M152.77,141.41v.24l-.42-.13v-.29c0-1.17-.27-2.15-1-2.38s-1,.55-1,1.73c0,2.7,2.43,3.51,2.43,6.57,0,1.6-.42,2.64-1.45,2.33s-1.45-1.62-1.45-3.22v-.57l.42.13v.62c0,1.19.28,2.14,1.02,2.36s1.02-.55,1.02-1.74c0-2.66-2.43-3.47-2.43-6.57,0-1.67.44-2.61,1.43-2.31,1.02.33,1.43,1.63,1.43,3.23Z"/><path class="uuid-3af9e895-b440-4ee8-b250-28b3ba561214" d="M155.45,147.96c0,1.18.27,2.18,1.01,2.4s1.01-.6,1.01-1.78v-8.33l.41.13v8.29c0,1.57-.4,2.65-1.43,2.34s-1.44-1.65-1.44-3.23v-8.34l.44.14v8.36Z"/><path class="uuid-3af9e895-b440-4ee8-b250-28b3ba561214" d="M162.43,152.72l-.44-.13-1.42-10.08v9.67l-.39-.12v-10.93l.63.2,1.41,10.08,1.4-9.17.63.2v10.84l-.42-.13v-9.64l-1.4,9.2Z"/></svg>