<?xml version="1.0" encoding="utf-8"?>
<!-- Generator: Adobe Illustrator 27.5.0, SVG Export Plug-In . SVG Version: 6.00 Build 0)  -->
<svg version="1.1" id="Layer_1" xmlns="http://www.w3.org/2000/svg" xmlns:xlink="http://www.w3.org/1999/xlink" x="0px" y="0px"
	 viewBox="0 0 630 500" style="enable-background:new 0 0 630 500;" xml:space="preserve">
<g>
	<g>
		<rect style="fill:#585AF9;" width="630" height="500"/>
	</g>
</g>
<g>
	<path style="fill:#4C4CE1;" d="M601.485,413.363c0,10.857-128.263,19.659-286.485,19.659c-158.222,0-286.485-8.802-286.485-19.659
		c0-10.857,128.264-19.657,286.485-19.657C473.223,393.706,601.485,402.506,601.485,413.363z"/>
	<path style="fill:#FBFBFB;" d="M456.056,54.648c-1.492,0-2.939,0.188-4.331,0.511c-2.853-3.749-7.35-6.179-12.425-6.179
		c-3.222,0-6.214,0.977-8.698,2.647c-0.897-6.618-6.553-11.722-13.416-11.722c-7.373,0-13.361,5.892-13.535,13.228
		c-2.396-1.271-5.123-1.999-8.025-1.999c-8.09,0-14.852,5.61-16.659,13.144c-1.228-0.399-2.538-0.622-3.899-0.622
		c-5.708,0-10.523,3.798-12.069,9.004h112.12C474.541,62.62,466.24,54.648,456.056,54.648z"/>
	<path style="fill:#4C4CE1;" d="M561.753,203.32c-2.861,0-5.633,0.362-8.304,0.98c-5.472-7.189-14.092-11.846-23.822-11.846
		c-6.176,0-11.914,1.874-16.677,5.074c-1.716-12.689-12.563-22.473-25.72-22.473c-14.137,0-25.619,11.296-25.95,25.359
		c-4.593-2.438-9.821-3.831-15.386-3.831c-15.512,0-28.476,10.756-31.94,25.199c-2.356-0.767-4.866-1.193-7.477-1.193
		c-10.944,0-20.177,7.282-23.142,17.263h214.962C597.192,218.604,581.279,203.32,561.753,203.32z"/>
	<path style="fill:#4C4CE1;" d="M226.439,84.548c-2.861,0-5.633,0.361-8.304,0.979c-5.472-7.188-14.092-11.846-23.822-11.846
		c-6.176,0-11.914,1.874-16.677,5.075c-1.716-12.688-12.563-22.474-25.72-22.474c-14.137,0-25.619,11.296-25.95,25.36
		c-4.593-2.438-9.821-3.831-15.386-3.831c-15.512,0-28.476,10.755-31.94,25.199c-2.356-0.767-4.866-1.193-7.477-1.193
		c-10.944,0-20.177,7.282-23.142,17.262h214.962C261.878,99.831,245.965,84.548,226.439,84.548z"/>
	<path style="fill:#4C4CE1;" d="M538.614,123.128c-1.266,0-2.492,0.16-3.674,0.434c-2.422-3.181-6.236-5.241-10.541-5.241
		c-2.732,0-5.272,0.829-7.379,2.245c-0.76-5.613-5.559-9.943-11.379-9.943c-6.256,0-11.335,4.998-11.481,11.221
		c-2.033-1.078-4.347-1.695-6.808-1.695c-6.863,0-12.6,4.759-14.133,11.15c-1.043-0.34-2.153-0.528-3.309-0.528
		c-4.842,0-8.927,3.222-10.238,7.638h95.111C554.294,129.89,547.253,123.128,538.614,123.128z"/>
	<g>
		<g>
			<rect x="448.59" y="381.973" style="fill:#89CFF9;" width="105.265" height="27.786"/>
		</g>
		<rect x="457.121" y="388.502" style="fill:#D8EBF7;" width="96.733" height="15.332"/>
	</g>
	<g>
		<g>
			<rect x="435.103" y="355.044" style="fill:#89CFF9;" width="105.265" height="27.786"/>
		</g>
		<rect x="443.635" y="361.573" style="fill:#D8EBF7;" width="96.733" height="15.332"/>
	</g>
	<g>
		<g>
			<rect x="467.885" y="332.234" style="fill:#89CFF9;" width="105.265" height="27.786"/>
		</g>
		<rect x="476.416" y="338.764" style="fill:#D8EBF7;" width="96.733" height="15.332"/>
	</g>
	<g>
		<g>
			<rect x="130" y="92.912" style="fill:#262562;" width="79.652" height="123.515"/>
		</g>
		<g>
			<rect x="143.82" y="105.722" style="fill:#585AF9;" width="51.669" height="97.012"/>
			<path style="fill:#FFFFFF;" d="M197.626,204.868h-55.94V103.587h55.94V204.868z M145.956,200.598h47.4v-92.74h-47.4V200.598z"/>
		</g>
	</g>
	<g>
		<g>
			<rect x="252.166" y="94.697" style="fill:#585AF9;" width="166.891" height="113.734"/>
			<path style="fill:#FFFFFF;" d="M421.023,210.398H250.201V92.731h170.823V210.398z M254.133,206.466h162.959V96.663H254.133
				V206.466z"/>
		</g>
		<g>
			<rect x="265.794" y="110.036" style="fill:#7A81F9;" width="136.636" height="82.187"/>
		</g>
	</g>
	<g>
		<g>
			<path style="fill:#585AF9;" d="M95.34,125.119v122.603V125.119z"/>
			<rect x="94.352" y="125.119" style="fill:#FFFFFF;" width="1.977" height="122.603"/>
		</g>
		<g>
			<rect x="87.965" y="130.553" style="fill:#585AF9;" width="15.279" height="11.167"/>
		</g>
		<g>
			<rect x="90.715" y="157.604" style="fill:#585AF9;" width="12.529" height="45.251"/>
		</g>
	</g>
	<g>
		<g>
			<path style="fill:#585AF9;" d="M429.516,458.19h122.602H429.516z"/>
			<rect x="429.516" y="457.202" style="fill:#FFFFFF;" width="122.602" height="1.976"/>
		</g>
		<g>
			<rect x="434.949" y="450.815" style="fill:#585AF9;" width="11.166" height="15.279"/>
		</g>
		<g>
			<rect x="462" y="453.565" style="fill:#585AF9;" width="45.25" height="12.529"/>
		</g>
	</g>
	<g>
		<path style="fill:#3A36BB;" d="M129.601,305.783c3.362-4.832,7.742-9.848,13.38-14.971c-1.405-13.164-5.147-21.367-5.147-21.367
			c-1.651,1.918-5.45,4.709-6.916,6.566C131.24,279.527,134.105,290.619,129.601,305.783z"/>
		<polygon style="fill:#FE6984;" points="164.162,406.75 125.248,406.75 105.274,331.123 184.001,331.123 		"/>
		<path style="fill:#E54F7A;" d="M184.001,331.123c0,3.174-17.623,5.748-39.363,5.748c-21.739,0-39.363-2.574-39.363-5.748
			c0-3.174,17.624-5.748,39.363-5.748C166.378,325.375,184.001,327.949,184.001,331.123z"/>
		<ellipse style="fill:#464F67;" cx="144.18" cy="331.123" rx="31.684" ry="4.217"/>
		<path style="fill:#FE6984;" d="M164.319,406.75c0,1.588-8.812,2.875-19.682,2.875c-10.87,0-19.682-1.287-19.682-2.875
			c0-1.586,8.812-2.873,19.682-2.873C155.508,403.877,164.319,405.164,164.319,406.75z"/>
		<path style="fill:#4C4CE1;" d="M119.485,284.635c-6.458-8.951-12.558-13.354-12.558-13.354
			c-7.1,36.449,4.134,54.674,14.096,62.621c2.014,0.414,3.688,0.43,5.777,0.746C119.584,327.355,110.718,311.586,119.485,284.635z"
			/>
		<path style="fill:#677BFC;" d="M135.878,305.855c0.021-4.426,0.611-9.369,1.966-14.867c-3.587-15.393-10.63-24.473-10.63-24.473
			c-3.414,6.568-5.93,12.59-7.728,18.119c-8.768,26.951,0.099,42.721,7.315,50.014c2.441,0.371,4.921,0.252,7.452,0.48
			C132.054,328.984,129.989,318.285,135.878,305.855z"/>
		<path style="fill:#4C4CE1;" d="M164.247,300.397c2.804-4.029,6.456-8.211,11.157-12.482c-1.172-10.977-4.292-17.818-4.292-17.818
			c-1.378,1.6-2.67,3.172-3.892,4.721C167.49,277.748,168.004,287.752,164.247,300.397z"/>
		<path style="fill:#0A835D;" d="M155.707,334.955c0.504-0.037,1.012-0.066,1.513-0.109c-0.241-0.832-0.464-1.723-0.659-2.664
			C156.294,333.1,156.01,334.023,155.707,334.955z"/>
		<path style="fill:#3A36BB;" d="M191.093,276.012c-6.218,4.012-11.388,7.994-15.689,11.902c-4.701,4.271-8.354,8.453-11.157,12.482
			c-1.06,3.568-2.461,7.346-4.303,11.234c-0.242,6.348-1.259,13.229-3.384,20.551c0.195,0.941-0.24,1.992,0,2.824
			c4.854-0.422,10.071-0.74,14.575-1.666C195.157,306.082,191.093,276.012,191.093,276.012z"/>
		<path style="fill:#3A36BB;" d="M147.936,335.309c-4.725-5.246-12.122-16.365-12.059-29.453
			c-5.889,12.43-3.824,23.129-1.625,29.273c2.97,0.268,5.654,0.105,8.728,0.17C146.605,335.328,145.314,335.551,147.936,335.309z"/>
		<path style="fill:#3A36BB;" d="M159.944,311.631c1.842-3.889,3.243-7.666,4.303-11.234c3.757-12.645,3.243-22.649,2.974-25.58
			c-0.052-0.572-0.095-0.881-0.095-0.881c-4.372,2.82-8.222,5.625-11.623,8.402C158.183,289.875,160.394,299.834,159.944,311.631z"
			/>
		<path style="fill:#4C4CE1;" d="M159.944,311.631c0.449-11.797-1.762-21.756-4.441-29.293c-3.585-10.088-8.008-15.836-8.008-15.836
			c-4.819,9.18-7.883,17.305-9.651,24.486c-1.354,5.498-1.944,10.441-1.966,14.867c-0.063,13.088,4.822,21.689,9.547,26.935
			c0.852,0.947,1.699,1.783,2.512,2.518c2.627-0.043,5.218-0.16,7.771-0.353c0.303-0.932,0.587-1.855,0.854-2.773
			C158.686,324.859,159.702,317.979,159.944,311.631z"/>
	</g>
	<g>
		<rect x="260.843" y="344.103" style="fill:#29218E;" width="123.362" height="60.818"/>
		<rect x="260.843" y="368.257" style="fill:#191772;" width="123.362" height="12.939"/>
		<rect x="211.671" y="403.194" style="fill:#29218E;" width="223.433" height="11.646"/>
		<path style="fill:#29218E;" d="M479.1,364.571c0,2.037-1.545,3.686-3.451,3.686h-316.6c-1.906,0-3.451-1.648-3.451-3.686v-196.22
			c0-2.035,1.545-3.685,3.451-3.685h316.6c1.906,0,3.451,1.649,3.451,3.685V364.571z"/>
		<rect x="165.949" y="175.394" style="fill:#CBE1FF;" width="301.936" height="170.734"/>
		<rect x="165.949" y="175.089" style="fill:#FFFFFD;" width="301.936" height="16.034"/>
		<rect x="193.555" y="190.547" style="fill:#FFFFFD;" width="243.273" height="147.517"/>
		<rect x="204.77" y="196.321" style="fill:#CBE1FF;" width="81.091" height="131.391"/>
		<g>
			<rect x="295.35" y="196.321" style="fill:#CBE1FF;" width="60.386" height="5.402"/>
			<rect x="295.35" y="206.356" style="fill:#CBE1FF;" width="33.458" height="5.403"/>
			<rect x="295.35" y="216.869" style="fill:#CBE1FF;" width="60.386" height="5.402"/>
			<rect x="295.35" y="226.903" style="fill:#CBE1FF;" width="38.761" height="5.403"/>
			<rect x="295.35" y="239.245" style="fill:#0061F7;" width="16.729" height="6.441"/>
		</g>
		<g>
			<rect x="295.35" y="261.022" style="fill:#CBE1FF;" width="60.386" height="5.402"/>
			<rect x="295.35" y="271.056" style="fill:#CBE1FF;" width="33.458" height="5.404"/>
			<rect x="295.35" y="281.569" style="fill:#CBE1FF;" width="60.386" height="5.402"/>
			<rect x="295.35" y="291.604" style="fill:#CBE1FF;" width="38.761" height="5.402"/>
			<rect x="295.35" y="303.946" style="fill:#0061F7;" width="16.729" height="6.441"/>
		</g>
		<rect x="370.402" y="196.321" style="fill:#98C1FF;" width="55.211" height="132.949"/>
		<rect x="203.044" y="180.382" style="fill:#6BD4E5;" width="220.845" height="4.989"/>
		<path style="fill:#CBE1FF;" d="M327.082,359.106c0,3.521-2.854,6.377-6.375,6.377c-3.523,0-6.378-2.855-6.378-6.377
			c0-3.523,2.855-6.377,6.378-6.377C324.228,352.729,327.082,355.583,327.082,359.106z"/>
		<path style="fill:#DF7A4C;" d="M176.014,183.401c0,1.668-1.352,3.02-3.019,3.02c-1.668,0-3.02-1.352-3.02-3.02
			c0-1.668,1.352-3.02,3.02-3.02C174.662,180.382,176.014,181.733,176.014,183.401z"/>
		<path style="fill:#EDDE00;" d="M185.503,183.401c0,1.668-1.352,3.02-3.02,3.02s-3.02-1.352-3.02-3.02
			c0-1.668,1.352-3.02,3.02-3.02S185.503,181.733,185.503,183.401z"/>
		<path style="fill:#7BF1BF;" d="M194.993,183.401c0,1.668-1.352,3.02-3.02,3.02c-1.667,0-3.019-1.352-3.019-3.02
			c0-1.668,1.352-3.02,3.019-3.02C193.641,180.382,194.993,181.733,194.993,183.401z"/>
	</g>
	<g>
		<g>
			<g>
				<path style="fill:#FFFFFF;" d="M526.526,221.946c0.461-0.02,0.923,0.074,1.366,0h3.521h10.359l7.563-0.189
					c0.068,0,0.133-0.012,0.203-0.012c6.324,0,11.472,4.979,11.472,11.093c0,6.113-5.147,11.087-11.472,11.087
					c-0.379,0-0.751-0.02-1.124-0.054v-1.366c0.371,0.038,0.745,0.061,1.124,0.061c5.576,0,10.114-4.363,10.114-9.729
					c0-5.366-4.538-9.732-10.114-9.732c-0.121,0-0.242,0.012-0.36,0.017c-0.574,0.023-5.47,0.185-5.47,0.185h-17.135l-0.006-0.233
					L526.526,221.946z"/>
			</g>
			<g>
				<path style="fill:#FFFFFF;" d="M536.507,174.868c-0.039,0-0.071-0.004-0.109-0.004c-0.423,0-0.834,0.027-1.245,0.068v-0.044
					h-4.602h-44.496v-1.358h49.854c0.162-0.007,0.323-0.02,0.488-0.02c7.049,0,12.781,5.541,12.781,12.349
					c0,6.816-5.732,12.358-12.781,12.358c-0.162,0-0.317-0.017-0.477-0.023h-4.225h-4.445l0.007,0.148
					c-0.449-0.051-0.903-0.079-1.364-0.079c-0.009,0-0.018-0.004-0.025-0.004c-6.725,0-12.2,5.271-12.2,11.747
					c0,6.471,6.623,11.84,12.857,11.94l0.048,1.361c-7.479,0-14.264-6.079-14.264-13.302c0-7.225,6.075-13.099,13.547-13.104v-0.068
					h4.693h4.602v-0.045c0.411,0.045,0.822,0.068,1.245,0.068c0.038,0,0.07-0.006,0.109-0.006
					c6.251-0.055,11.318-4.963,11.318-10.992C547.825,179.834,542.758,174.929,536.507,174.868z"/>
			</g>
			<g>
				<path style="fill:#FFFFFF;" d="M526.574,223.308C526.809,223.308,526.341,223.319,526.574,223.308L526.574,223.308z"/>
			</g>
		</g>
		<g>
			<g>
				<polygon style="fill:#677BFC;" points="520.205,332.366 552.279,332.366 563.51,252.98 507.228,252.98 				"/>
			</g>
			<g>
				<g>
					<rect x="507.228" y="263.092" style="fill:#1A0D66;" width="56.281" height="5.109"/>
				</g>
			</g>
			<g>
				<rect x="507.228" y="280.202" style="fill:#1A0D66;" width="56.281" height="5.11"/>
			</g>
		</g>
	</g>
	<g>
		<g>
			<g>
				<path style="fill:#091648;" d="M94.881,306.966l-17.635,2.995l7.907,40.405c0,0-5.157,9.918-5.05,31.482l-0.548,18.942
					l3.253,0.647l9.918-50.669C92.727,350.769,96.904,326.13,94.881,306.966z"/>
			</g>
		</g>
		<g>
			<g>
				<path style="fill:#262562;" d="M84.911,309.961l-17.667,3.59l8.784,36.936c0,0-6.786,8.884-10.38,30.141l-3.796,18.567
					l3.098,1.197l18.466-48.211C83.415,352.182,87.907,325.231,84.911,309.961z"/>
			</g>
		</g>
		<g>
			<g>
				<path style="fill:#FE7A42;" d="M129.395,266.001c0,0,5.001-4.172,6.428-3.698c1.194,0.399,4.709,3.734-5.278,6.061
					L129.395,266.001z"/>
			</g>
		</g>
		<g>
			<g>
				<path style="fill:#F46E8A;" d="M79.523,271.545l21.142,20.521l31.307-23.598l-1.741-3.292l-26.895,14.935l-20.043-16.864
					c0,0-6.292-6.221-10.096-1.689C73.196,261.557,75.184,267.33,79.523,271.545z"/>
			</g>
		</g>
		<g>
			<g>
				<path style="fill:#171B23;" d="M63.067,265.144c0,0-2.956,3.826-3.427,12.273c-0.47,8.448,4.693,18.774,4.693,18.774
					l3.225,18.683l27.323-7.908l-0.786-19.731l-4.673-5.011l1.664-6.216l-11.002-16.455L63.067,265.144z"/>
			</g>
		</g>
		<g>
			<g>
				<g>
					<path style="fill:#FE7A42;" d="M95.62,312.502c0,0,6.511,0.277,7.246,1.586c0.616,1.1,0.975,5.934-7.985,0.938L95.62,312.502z"
						/>
				</g>
			</g>
			<g>
				<g>
					<path style="fill:#F46E8A;" d="M58.823,277.059l-1.622,29.389l38.273,9.232l0.91-3.178L68.07,300.806l0.036-26.195
						c0,0,0.718-8.815-5.197-8.816C62.91,265.794,59.257,271.027,58.823,277.059z"/>
				</g>
			</g>
		</g>
		<g>
			<g>
				<polygon style="fill:#171B23;" points="78.721,399.561 83.825,399.065 84.073,403.037 85.138,404.634 93.082,409.814 
					91.189,409.775 83.636,408.422 83.013,408.979 80.229,408.879 				"/>
			</g>
		</g>
		<g>
			<g>
				<polygon style="fill:#171B23;" points="61.876,396.038 67.18,398.551 65.444,402.14 65.705,404.135 71.001,413.206 
					69.139,412.079 62.331,406.556 61.439,406.677 58.73,404.988 				"/>
			</g>
		</g>
		<g>
			<g>
				<path style="fill:#11141B;" d="M73.376,245.771c0,0,6.297-1.128,7.082,5.721c1.011,8.828-3.211,8.993,0,15.871
					c0,0-11.069-10.608-7.559-19.49L73.376,245.771z"/>
			</g>
		</g>
		<g>
			<g>
				<path style="fill:#FE7A42;" d="M71.317,255.698l-1.928,7.243c0,0,8.95,6.433,8.069,2.808
					c-0.822-3.368-1.304-10.051-1.304-10.051H71.317z"/>
			</g>
		</g>
		<g>
			<g>
				<path style="fill:#FF8155;" d="M71.317,247.353c-0.591,1.482-1.77,4.371-0.929,6.325c0.834,1.955,2.093,5.44,4.324,6.28
					c2.231,0.837,2.816-1.676,3.293-2.515c0.475-0.836,1.659-9.055-1.931-11.023C73.364,244.932,71.769,246.224,71.317,247.353z"/>
			</g>
		</g>
		<g>
			<g>
				<path style="fill:#11141B;" d="M73.452,245.771c0,0-3.507-0.684-5.808,1.602c-3.356,3.333-4.719,11.053,6.285,20.466
					c0,0-6.144-17.354,0-19.967L73.452,245.771z"/>
			</g>
		</g>
		<g>
			<g>
				<path style="fill:#191D26;" d="M74.76,248.257c0,0-2.061,4.355-5.024,5.255c0,0-2.389-7.26,3.716-8.086
					c2.067-0.278,6.181-0.337,5.492,6.272C78.944,251.698,75.038,250.396,74.76,248.257z"/>
			</g>
		</g>
		<g>
			<g>
				<polygon style="fill:#0A0C0F;" points="89.422,282.224 74.337,284.446 91.086,276.008 				"/>
			</g>
		</g>
	</g>
	<g>
		<g>
			<polygon style="fill:#171B23;" points="378.44,213.574 375.258,210.713 369.877,214.539 366.683,215.343 351.426,213.192 
				371.177,224.008 			"/>
		</g>
		<g>
			<polygon style="fill:#171B23;" points="436.198,204.584 433.253,206.622 435.538,211.55 435.665,214.225 431.242,225.968 
				443.703,212.145 			"/>
		</g>
		<g>
			<path style="fill:#091648;" d="M445.308,138.522c0,0-31.105,7.57-42.139,12.933c-3.33,1.623-5.43,6.407-1.169,13.809
				c5.352,9.302,32.928,45.45,32.928,45.45l4.259-3.627l-20.5-44.42l45.617-10.705L445.308,138.522z"/>
		</g>
		<g>
			<path style="fill:#262562;" d="M466.376,152.495c0,0,0.412,10.813-11.768,14.013c0,0-11.243-0.432-31.635,0.215l-45.987,48.555
				l-4.43-2.883l30.612-49.009c0,0,4.458-7.508,6.915-8.965c8.413-4.992,41.544-9.612,41.544-9.612L466.376,152.495z"/>
		</g>
		<g>
			<g>
				<g>
					<path style="fill:#FE7A42;" d="M391.85,85.15c0,0-2.576-5.844-4.027-6.053c-1.225-0.173-5.766,1.22,1.98,7.624L391.85,85.15z"
						/>
				</g>
				<g>
					<path style="fill:#171B23;" d="M437.307,106.142l-26.262,11.941l-22.046-31.667l2.576-1.962l20.756,21.692l23.908-9.35
						c0,0,10.535-4.152,9.904,1.609C445.82,101.324,442.661,103.6,437.307,106.142z"/>
				</g>
			</g>
			<g>
				<path style="fill:#FE6984;" d="M468.328,102.541c0,0-25.848-8.638-28.864-8.282c-3.018,0.351,0.033,15.031-0.444,18.724
					c-0.703,5.401-2.531,13.029-1.167,19.362c1.365,6.335-1.716,9.668-1.716,9.668l33.022,17.281l-0.377-27.893L468.328,102.541z"/>
			</g>
			<g>
				<path style="fill:#FE7A42;" d="M455.308,91.975l1.103,7.264c0,0-9.411,5.306-8.162,1.866c1.158-3.193,2.344-9.648,2.344-9.648
					L455.308,91.975z"/>
			</g>
			<g>
				<path style="fill:#FF8155;" d="M456.199,83.843c0.418,1.508,1.254,4.45,0.232,6.264c-1.026,1.812-2.624,5.076-4.888,5.65
					c-2.265,0.578-3.335-1.497-3.588-2.408c-0.405-1.464,0-9.39,3.711-10.923C454.464,81.265,455.885,82.697,456.199,83.843z"/>
			</g>
			<g>
				<path style="fill:#DDB39B;" d="M450.101,83.711c0,0,1.374,1.694,3.857,1.362c2.483-0.33,1.915,2.023,1.881,2.291
					c-0.026,0.265-0.816,3.623,0.015,3.771c0.833,0.15,2.427-3.972,1.514-6.962C456.454,81.184,451.924,80.289,450.101,83.711z"/>
			</g>
			<g>
				<path style="fill:#EFCCB9;" d="M455.158,92.323c0,0-2.713,2.101-5.201,1.513c-1.581-0.375-2.093-3.253-2.022-3.849
					c0.073-0.597-1.352,5.221,2.142,5.807C453.57,96.384,455.158,92.323,455.158,92.323z"/>
			</g>
			<g>
				<g>
					<path style="fill:#FE7A42;" d="M437.11,148.785c0,0-6.376,0.318-7.091,1.606c-0.594,1.083-0.908,5.819,7.833,0.859
						L437.11,148.785z"/>
				</g>
				<g>
					<path style="fill:#171B23;" d="M472.904,113.765l1.814,28.787l-37.439,9.344l-0.915-3.105l27.658-11.684l-0.237-25.671
						c0,0-0.133-11.322,5.027-8.682C471.425,104.094,472.43,107.856,472.904,113.765z"/>
				</g>
			</g>
		</g>
		<g>
			<polygon style="fill:#E54F7A;" points="439.02,112.982 446.173,119.871 450.101,125.773 447.096,116.631 438.81,107.948 			"/>
		</g>
		<g>
			<polygon style="fill:#0A0C0F;" points="407.665,101.269 412.331,106.147 419.468,103.356 413.079,110.731 			"/>
		</g>
		<g>
			<polygon style="fill:#0A0C0F;" points="464.022,137.107 463.963,130.749 467.112,137.69 457.64,139.803 			"/>
		</g>
	</g>
	<rect x="209.652" y="201.724" style="fill:#FFFFFD;" width="70.348" height="74.261"/>
	<rect x="209.652" y="281.569" style="fill:#FFFFFD;" width="70.348" height="10.035"/>
	<rect x="376.5" y="271.281" style="fill:#FFFFFD;" width="42.968" height="54.094"/>
	<g>
		<g>
			<g>
				<polygon style="fill:#EB4700;" points="557.733,410.948 555.894,411.538 556.236,414.492 555.854,415.912 551.639,421.347 
					560.301,416.13 				"/>
			</g>
		</g>
		<g>
			<g>
				<polygon style="fill:#EB4700;" points="558.98,407.95 560.906,408.109 561.241,411.063 561.934,412.36 567.268,416.7 
					557.651,413.575 				"/>
			</g>
		</g>
		<g>
			<g>
				<polygon style="fill:#171B23;" points="544.451,328.676 543.201,373.517 555.724,414.345 559.482,412.593 552.967,376.272 
					566.617,330.045 				"/>
			</g>
		</g>
		<g>
			<g>
				<polygon style="fill:#171B23;" points="557.227,330.781 561.68,374.517 557.227,410.84 561.68,410.84 570.506,373.955 
					578.518,328.676 				"/>
			</g>
		</g>
		<g>
			<g>
				<polygon style="fill:#F46E8A;" points="543.201,335.361 579.752,332.216 576.774,305.329 583.901,278.549 567.688,272.899 
					542.193,272.899 543.361,309.998 				"/>
			</g>
		</g>
		<g>
			<g>
				<path style="fill:#FE7A42;" d="M546.725,320.107c0,0-3.943,1.579-4.731,1c-0.665-0.488-2.169-3.268,4.493-2.698L546.725,320.107
					z"/>
			</g>
		</g>
		<g>
			<g>
				<polygon style="fill:#262562;" points="579.098,276.708 583.901,278.441 578.076,312.191 545.983,320.776 545.983,318.414 
					570.586,306.929 				"/>
			</g>
		</g>
		<g>
			<g>
				<g>
					<path style="fill:#FE7A42;" d="M559.846,266.56l-1.094,7.208c0,0,9.332,5.259,8.096,1.85c-1.152-3.164-2.328-9.573-2.328-9.573
						L559.846,266.56z"/>
				</g>
			</g>
			<g>
				<g>
					<path style="fill:#FF8155;" d="M558.956,258.49c-0.412,1.496-1.24,4.411-0.228,6.212c1.019,1.803,2.602,5.038,4.85,5.609
						c2.248,0.574,3.309-1.487,3.559-2.39c0.401-1.453,0-9.316-3.68-10.835C560.678,255.936,559.269,257.354,558.956,258.49z"/>
				</g>
			</g>
			<g>
				<g>
					<path style="fill:#171B23;" d="M565.008,258.364c0,0-1.363,1.678-3.826,1.349c-2.465-0.328-1.9,2.01-1.871,2.27
						c0.031,0.264,0.818,3.6-0.008,3.745c-0.83,0.146-2.411-3.942-1.503-6.909C558.705,255.855,563.203,254.967,565.008,258.364z"/>
				</g>
			</g>
			<g>
				<g>
					<path style="fill:#171B23;" d="M559.989,266.908c0,0,2.69,2.081,5.159,1.497c1.568-0.368,2.076-3.227,2.007-3.817
						c-0.074-0.592,1.343,5.177-2.126,5.763C561.563,270.934,559.989,266.908,559.989,266.908z"/>
				</g>
			</g>
		</g>
		<g>
			<g>
				<path style="fill:#FE7A42;" d="M563.668,274.941c0,0,1.582-5.752,2.9-6.14c1.111-0.324,5.502,0.348-0.797,7.32L563.668,274.941z
					"/>
			</g>
		</g>
		<g>
			<g>
				<polygon style="fill:#262562;" points="538.12,287.045 541.367,272.899 544.045,273.106 549.685,297.091 563.491,273.267 
					567.092,275.017 548.668,313.207 				"/>
			</g>
		</g>
	</g>
	<g>
		<g>
			<g>
				<path style="fill:#FE7A42;" d="M226.278,268.532c0,0-1.334-5.635-2.598-6.058c-1.063-0.354-5.345,0.142,0.517,7.13
					L226.278,268.532z"/>
			</g>
		</g>
		<g>
			<g>
				<path style="fill:#262562;" d="M265.505,291.483l-24.78,8.464l-17.115-30.553l2.503-1.544l16.828,21.431l22.422-6.336
					c0,0,7.379-2.732,8.802,2.331C274.165,285.276,270.562,289.657,265.505,291.483z"/>
			</g>
		</g>
		<g>
			<g>
				<path style="fill:#262562;" d="M301.039,294.572l24.452,9.361l18.22-29.906l-2.443-1.633l-17.601,20.798l-22.176-7.15
					c0,0-7.271-3-8.878,2.012C292.612,288.054,296.049,292.565,301.039,294.572z"/>
			</g>
		</g>
		<g>
			<g>
				<polygon style="fill:#281F7F;" points="281.106,415.743 279.322,416.318 279.652,419.183 279.285,420.561 275.189,425.841 
					283.599,420.776 				"/>
			</g>
		</g>
		<g>
			<g>
				<polygon style="fill:#281F7F;" points="282.316,412.833 284.185,412.99 284.511,415.854 285.185,417.116 290.361,421.328 
					281.028,418.294 				"/>
			</g>
		</g>
		<g>
			<g>
				<polygon style="fill:#171B23;" points="268.212,335.882 266.999,379.409 279.155,419.042 282.804,417.339 276.48,382.083 
					289.73,337.21 				"/>
			</g>
		</g>
		<g>
			<g>
				<polygon style="fill:#171B23;" points="280.613,337.927 284.935,380.384 280.613,415.641 284.935,415.641 293.506,379.836 
					301.285,335.882 				"/>
			</g>
		</g>
		<g>
			<g>
				<polygon style="fill:#F46E8A;" points="266.999,342.371 302.479,339.316 299.591,313.22 306.508,287.222 290.769,281.735 
					266.022,281.735 267.157,317.751 				"/>
			</g>
		</g>
		<g>
			<g>
				<path style="fill:#FE7A42;" d="M341.077,273.072c0,0,1.536-5.584,2.816-5.961c1.076-0.317,5.341,0.336-0.776,7.107
					L341.077,273.072z"/>
			</g>
		</g>
		<g>
			<g>
				<path style="fill:#370824;" d="M281.604,281.395c0,0-4.197,6.768,3.378,11.185l1.589-3.585
					C286.571,288.994,281.398,285.94,281.604,281.395z"/>
			</g>
		</g>
		<g>
			<g>
				<path style="fill:#370824;" d="M287.576,280.904c0,0,7.384,4.41,1.668,11.059l-2.673-2.867
					C286.571,289.096,289.259,285.133,287.576,280.904z"/>
			</g>
		</g>
		<g>
			<g>
				<g>
					<path style="fill:#FE7A42;" d="M283.154,275.581l-1.058,6.998c0,0,7.272,4.94,6.075,1.626c-1.12-3.069-0.476-9.122-0.476-9.122
						L283.154,275.581z"/>
				</g>
			</g>
			<g>
				<g>
					<path style="fill:#FF8155;" d="M282.294,267.751c-0.402,1.451-1.207,4.282-0.218,6.029c0.986,1.749,2.523,4.892,4.704,5.443
						c2.182,0.559,3.214-1.443,3.455-2.317c0.39-1.409,0-9.046-3.573-10.523C283.967,265.271,282.599,266.647,282.294,267.751z"/>
				</g>
			</g>
			<g>
				<g>
					<path style="fill:#171B23;" d="M288.171,267.626c0,0-1.324,1.631-3.717,1.314c-2.392-0.322-1.847,1.945-1.815,2.201
						c0.026,0.259,0.793,3.493-0.011,3.636c-0.803,0.142-2.339-3.83-1.458-6.705C282.049,265.19,286.413,264.327,288.171,267.626z"
						/>
				</g>
			</g>
			<g>
				<g>
					<path style="fill:#171B23;" d="M283.298,275.921c0,0,2.613,2.019,5.007,1.452c1.522-0.357,2.014-3.133,1.947-3.706
						c-0.07-0.572,1.304,5.027-2.063,5.595C284.826,279.831,283.298,275.921,283.298,275.921z"/>
				</g>
			</g>
		</g>
		<g>
			<g>
				<polygon style="fill:#E54F7A;" points="266.695,303.047 275.817,305.21 288.171,305.21 275.277,309.865 266.695,307.698 				"/>
			</g>
		</g>
		<g>
			<g>
				<polygon style="fill:#091648;" points="326.56,289.773 323.666,296.658 316.738,294.169 315.096,290.431 323.666,293.192 				
					"/>
			</g>
		</g>
		<g>
			<g>
				<polygon style="fill:#091648;" points="240.327,285.949 242.941,289.281 248.887,287.599 241.285,291.963 				"/>
			</g>
		</g>
	</g>
</g>
</svg>
