<?xml version="1.0" encoding="UTF-8"?><svg id="uuid-4f185385-6e1d-4627-9298-300370ca42c9" xmlns="http://www.w3.org/2000/svg" viewBox="0 0 505.26 399.53"><defs><style>.uuid-82a487da-91e3-45f0-9436-ddb3bdb5464d{fill:#282d33;}.uuid-1c9e053d-2319-47d1-8dc7-db683ebcc2a8{fill:#0e74bb;}.uuid-0905ee97-b29a-4f07-91fb-885b3990cff0{fill:#99b9ff;}.uuid-59eaa90f-e518-4bca-9586-5b3c80d33112{fill:#fff;}.uuid-112ec0fa-5763-4e84-b1d2-05fce5f6c13c{fill:#080717;}</style></defs><polygon class="uuid-1c9e053d-2319-47d1-8dc7-db683ebcc2a8" points="218.44 69.43 236.4 117.04 270.36 79.14 269.91 130.02 315.26 106.94 296.47 154.23 347.09 149.09 312.49 186.4 361.55 199.9 315.8 222.18 356.68 252.49 305.97 256.74 333.13 299.77 284.31 285.42 294.1 335.36 253.76 304.34 244.85 354.44 218.44 310.94 192.03 354.44 183.11 304.34 142.77 335.36 152.56 285.42 103.74 299.77 130.9 256.74 80.19 252.49 121.07 222.18 75.32 199.9 124.38 186.4 89.78 149.09 140.4 154.23 121.61 106.94 166.96 130.02 166.52 79.14 200.47 117.04 218.44 69.43"/><path class="uuid-82a487da-91e3-45f0-9436-ddb3bdb5464d" d="M108.05,109.35l-7.36-13.29c-13.62-.59-26.08-8.26-32.68-20.17h0c-10.49-18.94-3.62-42.89,15.32-53.38,9.17-5.08,19.78-6.29,29.86-3.4,10.08,2.89,18.44,9.54,23.52,18.71,6.6,11.91,6.49,26.54-.22,38.4l7.36,13.29-35.8,19.84ZM70.9,74.28c6.19,11.17,17.99,18.25,30.81,18.5l.95.02,6.68,12.05,30.01-16.63-6.68-12.05.49-.82c6.59-11,6.84-24.77.65-35.93-4.66-8.4-12.3-14.49-21.54-17.14-9.23-2.65-18.95-1.54-27.35,3.11-17.34,9.61-23.63,31.54-14.03,48.89h0Z"/><path class="uuid-112ec0fa-5763-4e84-b1d2-05fce5f6c13c" d="M120.32,102.8c-.6,0-1.18-.33-1.48-.9-.12-.23-9.8-19.28-17.14-31.91-3.53.75-7.08.61-10.21-.49-3.9-1.37-6.57-4.03-7.52-7.49-.68-2.48,1.03-5.53,3.82-6.79,1.52-.69,6.92-2.3,12.45,6.05.92,1.39,1.94,3.04,3.04,4.88,1.87-.63,3.79-1.6,5.7-2.97.63-.45,1.24-.96,1.84-1.52-3.3-6.54-5.9-12.37-6.56-15.62-.62-3.07,2.09-7.61,5.59-9.33,3.44-1.69,7.14-.66,10.17,2.83,1.58,1.82,2.22,4.54,1.83,7.85-.58,5.03-3.33,10.67-7.02,14.86,7.35,14.23,17.51,31.2,17.66,31.45.47.78.22,1.8-.57,2.27s-1.8.21-2.27-.57c-.61-1.02-10.05-16.79-17.28-30.71-.48.42-.97.8-1.46,1.16-1.87,1.35-3.88,2.42-5.94,3.18,7.25,12.55,16.34,30.44,16.82,31.37.41.82.09,1.81-.72,2.22-.24.12-.5.18-.75.18ZM90.7,57.89c-.53,0-1.04.11-1.54.33-1.5.68-2.19,2.2-2,2.91.66,2.38,2.58,4.25,5.43,5.25,1.94.68,4.49.99,7.32.58-.87-1.44-1.69-2.75-2.42-3.86-2.24-3.39-4.64-5.2-6.79-5.2ZM113.17,39.21c-.62,0-1.24.15-1.86.46-2.61,1.28-4.05,4.51-3.81,5.7.57,2.81,2.79,7.86,5.7,13.67,2.82-3.56,4.91-8.08,5.36-12.04.19-1.65.16-3.91-1.05-5.3-1.44-1.66-2.89-2.49-4.35-2.49Z"/><path class="uuid-112ec0fa-5763-4e84-b1d2-05fce5f6c13c" d="M117.5,96.22h28.65c2.42,0,4.39,1.97,4.39,4.39v22.88h-37.42v-22.88c0-2.42,1.97-4.39,4.39-4.39Z" transform="translate(300.38 142.05) rotate(151.01)"/><rect class="uuid-112ec0fa-5763-4e84-b1d2-05fce5f6c13c" x="108.93" y="104.52" width="40.63" height="3.63" transform="translate(-35.34 75.97) rotate(-28.99)"/><rect class="uuid-112ec0fa-5763-4e84-b1d2-05fce5f6c13c" x="105.4" y="97.54" width="40.63" height="3.63" transform="translate(-32.4 73.38) rotate(-28.99)"/><path class="uuid-82a487da-91e3-45f0-9436-ddb3bdb5464d" d="M44.85,249.04l-32.55-24.8,9.2-12.09c-4.93-12.71-2.92-27.2,5.33-38.03h0c6.36-8.34,15.58-13.71,25.98-15.12,10.39-1.4,20.71,1.32,29.06,7.68,8.34,6.36,13.71,15.58,15.12,25.98,1.4,10.39-1.32,20.71-7.68,29.06-8.26,10.83-21.69,16.62-35.25,15.24l-9.21,12.08ZM16.93,223.62l27.29,20.79,8.35-10.96.95.12c12.71,1.61,25.42-3.7,33.16-13.85,5.82-7.64,8.32-17.09,7.03-26.61-1.29-9.52-6.2-17.97-13.85-23.79-7.64-5.82-17.09-8.32-26.61-7.03-9.52,1.29-17.97,6.2-23.79,13.85h0c-7.74,10.15-9.48,23.81-4.55,35.65l.37.88-8.35,10.96Z"/><path class="uuid-112ec0fa-5763-4e84-b1d2-05fce5f6c13c" d="M35.09,241.03c-.33,0-.66-.1-.95-.31-.75-.53-.92-1.56-.39-2.3.68-.97,11.33-15.95,21.17-28.17-.57-.27-1.12-.56-1.65-.87-1.99-1.17-3.78-2.58-5.3-4.16-8.57,11.68-21.3,27.2-21.96,28.01-.58.7-1.62.81-2.33.23-.71-.58-.81-1.62-.23-2.33.16-.2,13.72-16.73,22.33-28.52-2.11-2.93-3.41-6.23-3.66-9.55-.31-4.12,1.05-7.63,3.84-9.89,2-1.62,5.48-1.28,7.75.77,1.25,1.12,4.89,5.42-.53,13.83-.9,1.4-2,3-3.24,4.74,1.33,1.45,2.99,2.83,5.02,4.02.67.39,1.38.75,2.13,1.07,4.66-5.65,8.95-10.38,11.66-12.29,2.56-1.81,7.8-1.14,10.79,1.37,2.93,2.47,3.47,6.27,1.5,10.45-1.03,2.18-3.26,3.85-6.45,4.83-4.84,1.49-11.11,1.25-16.43-.45-10.08,12.46-21.53,28.58-21.7,28.82-.32.46-.83.7-1.35.7ZM60.42,208.73c4.39,1.15,9.37,1.24,13.18.07,1.59-.49,3.64-1.42,4.43-3.09,1.34-2.83,1.13-5.02-.64-6.5-2.22-1.87-5.76-1.9-6.75-1.19-2.34,1.65-6.07,5.72-10.22,10.71ZM49.09,185.45c-.46,0-.84.11-1.05.28-1.92,1.56-2.85,4.07-2.62,7.08.15,2.05.89,4.51,2.41,6.94.97-1.38,1.84-2.65,2.56-3.77,2.75-4.26,3.15-7.75,1.11-9.58-.75-.68-1.68-.94-2.41-.94Z"/><path class="uuid-112ec0fa-5763-4e84-b1d2-05fce5f6c13c" d="M7.06,232.58h28.65c2.42,0,4.39,1.97,4.39,4.39v22.88H2.67v-22.88c0-2.42,1.97-4.39,4.39-4.39Z" transform="translate(-110.8 455.04) rotate(-142.7)"/><rect class="uuid-112ec0fa-5763-4e84-b1d2-05fce5f6c13c" x="21.76" y="222.12" width="3.63" height="40.63" transform="translate(-183.57 114.28) rotate(-52.7)"/><rect class="uuid-112ec0fa-5763-4e84-b1d2-05fce5f6c13c" x="26.72" y="216.09" width="3.63" height="40.63" transform="translate(-176.81 115.85) rotate(-52.7)"/><path class="uuid-82a487da-91e3-45f0-9436-ddb3bdb5464d" d="M368.5,103.23l-37.4-16.62,6.17-13.88c-7.73-11.23-9.12-25.79-3.59-38.24h0c4.26-9.59,12-16.94,21.79-20.7,9.79-3.77,20.46-3.49,30.05.77,9.59,4.26,16.94,12,20.71,21.79,3.77,9.79,3.49,20.46-.77,30.05-5.53,12.45-17.27,21.17-30.79,22.96l-6.17,13.88ZM335.46,84.93l31.35,13.93,5.6-12.59.95-.1c12.75-1.37,23.89-9.46,29.07-21.13,8.05-18.12-.14-39.42-18.26-47.47-8.78-3.9-18.55-4.15-27.52-.7-8.97,3.45-16.05,10.18-19.95,18.96h0c-5.19,11.67-3.73,25.36,3.8,35.74l.56.77-5.59,12.59Z"/><path class="uuid-112ec0fa-5763-4e84-b1d2-05fce5f6c13c" d="M356.78,97.73c-.21,0-.42-.04-.62-.12-.85-.34-1.25-1.3-.91-2.15.44-1.1,7.34-18.13,14.1-32.29-.62-.13-1.22-.29-1.8-.47-2.21-.68-4.27-1.64-6.12-2.82-5.65,13.34-14.45,31.38-14.9,32.32-.4.82-1.39,1.16-2.21.76-.82-.4-1.16-1.39-.76-2.21.11-.23,9.48-19.44,15.14-32.91-2.73-2.37-4.75-5.28-5.76-8.44-1.25-3.94-.74-7.67,1.45-10.51,1.57-2.04,5.03-2.51,7.72-1.04,1.47.8,6.01,4.14,2.67,13.58-.55,1.57-1.25,3.38-2.06,5.36,1.63,1.11,3.56,2.06,5.81,2.75.74.23,1.52.41,2.32.55,3.23-6.58,6.32-12.16,8.51-14.65,2.08-2.35,7.33-2.91,10.81-1.16,3.42,1.72,4.83,5.3,3.87,9.82-.5,2.36-2.29,4.5-5.16,6.19-4.37,2.56-10.52,3.78-16.09,3.35-6.93,14.45-14.35,32.77-14.46,33.05-.26.64-.88,1.03-1.53,1.03ZM374.35,60.41c4.58.11,9.41-.95,12.84-2.97,1.43-.84,3.22-2.22,3.6-4.03.65-3.06-.06-5.14-2.12-6.18-2.59-1.31-6.04-.52-6.84.4-1.9,2.15-4.59,6.97-7.47,12.78ZM358.73,40.29c-.8,0-1.48.26-1.74.61-1.51,1.96-1.83,4.62-.92,7.49.62,1.96,1.91,4.18,3.95,6.19.63-1.56,1.18-3,1.62-4.26,1.69-4.78,1.28-8.27-1.13-9.58-.59-.32-1.22-.45-1.78-.45Z"/><path class="uuid-112ec0fa-5763-4e84-b1d2-05fce5f6c13c" d="M330.69,92.26h28.65c2.42,0,4.39,1.97,4.39,4.39v22.88h-37.42v-22.88c0-2.42,1.97-4.39,4.39-4.39Z" transform="translate(617.3 342.77) rotate(-156.04)"/><rect class="uuid-112ec0fa-5763-4e84-b1d2-05fce5f6c13c" x="344.46" y="81.4" width="3.63" height="40.63" transform="translate(112.7 376.84) rotate(-66.04)"/><rect class="uuid-112ec0fa-5763-4e84-b1d2-05fce5f6c13c" x="347.89" y="74.38" width="3.63" height="40.63" transform="translate(121.16 375.81) rotate(-66.04)"/><polygon class="uuid-112ec0fa-5763-4e84-b1d2-05fce5f6c13c" points="129.86 269.25 81.11 336.48 60.25 329.88 129.86 269.25"/><polygon class="uuid-112ec0fa-5763-4e84-b1d2-05fce5f6c13c" points="103.71 256.41 57.88 298.81 46.32 284.58 103.71 256.41"/><polygon class="uuid-112ec0fa-5763-4e84-b1d2-05fce5f6c13c" points="140.42 281.74 135.27 320.58 122.84 313.79 140.42 281.74"/><polygon class="uuid-112ec0fa-5763-4e84-b1d2-05fce5f6c13c" points="415.57 75.11 493.28 104.37 492.43 126.24 415.57 75.11"/><polygon class="uuid-112ec0fa-5763-4e84-b1d2-05fce5f6c13c" points="410.49 91.38 447.76 127.24 431.8 138.84 410.49 91.38"/><polygon class="uuid-112ec0fa-5763-4e84-b1d2-05fce5f6c13c" points="424.83 61.63 463.65 56.34 460.38 70.12 424.83 61.63"/><path d="M321.95,32.21c-.2,0-.39-.03-.59-.11l-20.88-7.94c-.85-.32-1.28-1.28-.96-2.13.32-.85,1.28-1.28,2.13-.96l20.88,7.94c.85.32,1.28,1.28.96,2.13-.25.66-.88,1.07-1.55,1.07Z"/><path d="M314.32,53.78s-.06,0-.09,0l-12.26-.68c-.91-.05-1.61-.83-1.56-1.74.05-.91.8-1.66,1.74-1.56l12.26.68c.91.05,1.61.83,1.56,1.74-.05.88-.78,1.56-1.65,1.56Z"/><path d="M331.23,11.23c-.38,0-.75-.13-1.07-.39l-9.38-7.92c-.7-.59-.78-1.63-.2-2.33.59-.69,1.63-.79,2.33-.2l9.38,7.92c.7.59.78,1.63.2,2.33-.33.39-.79.59-1.26.59Z"/><rect class="uuid-112ec0fa-5763-4e84-b1d2-05fce5f6c13c" x="153.14" y="17.18" width="18.61" height="3.31" transform="translate(34.26 120.38) rotate(-45)"/><rect class="uuid-112ec0fa-5763-4e84-b1d2-05fce5f6c13c" x="160.79" y="9.53" width="3.31" height="18.61" transform="translate(34.26 120.38) rotate(-45)"/><rect class="uuid-112ec0fa-5763-4e84-b1d2-05fce5f6c13c" x="234.64" y="61.39" width="3.31" height="10.75" transform="translate(1.85 139.77) rotate(-33.07)"/><rect class="uuid-112ec0fa-5763-4e84-b1d2-05fce5f6c13c" x="216.62" y="33.71" width="3.31" height="10.75" transform="translate(14.04 125.45) rotate(-33.07)"/><rect class="uuid-112ec0fa-5763-4e84-b1d2-05fce5f6c13c" x="238.4" y="50.38" width="10.75" height="3.31" transform="translate(-2.44 13.16) rotate(-3.08)"/><rect class="uuid-112ec0fa-5763-4e84-b1d2-05fce5f6c13c" x="205.42" y="52.15" width="10.75" height="3.31" transform="translate(-2.59 11.4) rotate(-3.08)"/><rect class="uuid-112ec0fa-5763-4e84-b1d2-05fce5f6c13c" x="214.43" y="65.99" width="10.75" height="3.31" transform="translate(59.91 232.95) rotate(-63.06)"/><rect class="uuid-112ec0fa-5763-4e84-b1d2-05fce5f6c13c" x="229.39" y="36.55" width="10.75" height="3.31" transform="translate(94.35 230.18) rotate(-63.06)"/><rect class="uuid-112ec0fa-5763-4e84-b1d2-05fce5f6c13c" x="47.88" y="123.36" width="5.28" height="3.31" transform="translate(-42.18 27.1) rotate(-21.43)"/><rect class="uuid-112ec0fa-5763-4e84-b1d2-05fce5f6c13c" x="62.99" y="117.44" width="5.28" height="3.31" transform="translate(-38.97 32.21) rotate(-21.43)"/><rect class="uuid-112ec0fa-5763-4e84-b1d2-05fce5f6c13c" x="54.23" y="128.42" width="5.28" height="3.31" transform="translate(-80.24 166.88) rotate(-81.41)"/><rect class="uuid-112ec0fa-5763-4e84-b1d2-05fce5f6c13c" x="56.64" y="112.38" width="5.28" height="3.31" transform="translate(-62.32 155.62) rotate(-81.41)"/><rect class="uuid-112ec0fa-5763-4e84-b1d2-05fce5f6c13c" x="50.08" y="114.36" width="3.31" height="5.28" transform="translate(-71.99 84.51) rotate(-51.43)"/><rect class="uuid-112ec0fa-5763-4e84-b1d2-05fce5f6c13c" x="62.76" y="124.47" width="3.31" height="5.28" transform="translate(-75.13 98.24) rotate(-51.43)"/><path class="uuid-112ec0fa-5763-4e84-b1d2-05fce5f6c13c" d="M244.54,134.13c-26.04-2.94-50.57,7.45-66.77,25.68,6.99-1.02,14.18-1.22,21.46-.39,49.44,5.58,84.28,53.64,77.81,107.34-.36,2.98-.86,5.91-1.45,8.8,19.39-11.96,33.37-32.26,36.29-56.52,5.07-42.12-25.08-80.13-67.35-84.9Z"/><path class="uuid-112ec0fa-5763-4e84-b1d2-05fce5f6c13c" d="M306.46,359.68c-20.8,0-42.9-2.92-50.45-16.83-6.86-12.63-.8-31.46,18.51-57.57,2.05-2.77,2.79-5.46,2.27-8.23-1.74-9.16-17.02-18.7-34.71-29.75-20.03-12.51-42.73-26.69-56.81-46.14-6.09-8.41,2.82-24.82,23.27-42.82h0c9.45-8.32,33.52-18.05,57.45-13.68,21.3,3.9,38.24,17.49,50.33,40.37,12.06,22.82,50.94,17.39,76.66,13.79,6.47-.9,12.05-1.68,16.03-1.82,10.98-.43,20.68,6.19,26.58,18,9.9,19.83,8.39,54.13-17.33,86.07-5.08,6.31-18.77,21.45-33.85,35.21-18.1,16.51-30.52,23.99-36.97,22.18-2.21-.62-8.86-.21-16.56.26-7.11.43-15.65.95-24.41.95ZM210.71,160.82h0c-21.33,18.8-26.81,32.83-22.77,38.4,13.71,18.93,36.12,32.92,55.89,45.27,19.11,11.93,34.19,21.36,36.21,31.94.7,3.67-.26,7.31-2.86,10.82-18.21,24.62-24.36,42.79-18.26,54.02,9.73,17.92,48.56,15.56,71.76,14.15,8.66-.53,14.92-.91,17.65-.14,11.78,3.29,54.66-40.53,67.35-56.28,24.8-30.79,26.38-63.63,16.95-82.52-5.3-10.61-13.9-16.48-23.51-16.18-3.81.13-9.31.9-15.69,1.79-26.64,3.72-66.9,9.35-80.05-15.52-11.6-21.94-27.75-34.95-48.01-38.66-22.85-4.19-45.72,5.03-54.67,12.9Z"/><path class="uuid-112ec0fa-5763-4e84-b1d2-05fce5f6c13c" d="M200.45,138.6c20.01-11.51,90.84-23.82,111.05,45.56,10.05,34.5,80.36,26.92,102.14,29.46,33.76,3.92,38.77,64.5-17,109.47-16.02,12.92-77.66,55.35-91.78,49.09-14.12-6.26-165.53,2.3-62.6-87.36,26.56-23.13-54.09-55.78-77.92-106.74-4.05-8.65,8.88-23.81,36.11-39.48Z"/><path class="uuid-112ec0fa-5763-4e84-b1d2-05fce5f6c13c" d="M366.15,355.07c21.93,31.11,65.74,39.11,97.87,17.88,32.12-21.23,40.39-63.67,18.46-94.78-21.93-31.11-65.74-39.11-97.87-17.88-32.12,21.23-40.39,63.67-18.46,94.78Z"/><path class="uuid-112ec0fa-5763-4e84-b1d2-05fce5f6c13c" d="M433.28,384.94c-23.03,0-45.69-10.65-59.63-30.43-10.78-15.29-14.82-33.74-11.39-51.96,3.49-18.51,14.25-34.55,30.29-45.15,32.81-21.69,77.73-13.48,100.13,18.31,10.78,15.29,14.82,33.74,11.39,51.96-3.49,18.51-14.25,34.55-30.29,45.15-12.39,8.19-26.52,12.12-40.5,12.12ZM433.07,248.58c-13.36,0-26.85,3.75-38.69,11.58-15.29,10.11-25.54,25.38-28.86,43.01-3.27,17.33.58,34.88,10.84,49.44,21.38,30.34,64.27,38.17,95.6,17.45,15.29-10.11,25.54-25.38,28.86-43.01,3.27-17.33-.58-34.89-10.84-49.44-13.3-18.87-34.92-29.03-56.91-29.03Z"/><path class="uuid-112ec0fa-5763-4e84-b1d2-05fce5f6c13c" d="M286.8,374.74c18.26,25.91,54.76,32.58,81.51,14.89,26.76-17.69,33.64-53.03,15.38-78.94-18.26-25.91-54.76-32.58-81.51-14.89-26.76,17.69-33.64,53.03-15.38,78.94Z"/><circle class="uuid-112ec0fa-5763-4e84-b1d2-05fce5f6c13c" cx="229.75" cy="209.64" r="78.31"/><path class="uuid-59eaa90f-e518-4bca-9586-5b3c80d33112" d="M165.5,212.35c3.62-31.38,30.26-55.76,62.62-55.76s57.89,23.36,62.37,53.79c.18,0,.36-.03.55-.03,8.43,0,15.26,6.83,15.26,15.26s-6.83,15.26-15.26,15.26c-1.17,0-2.31-.14-3.41-.4-8.61,24.58-32.05,44.03-59.51,42.22-69.37-4.58-64.84-71.61-62.62-70.34Z"/><path class="uuid-112ec0fa-5763-4e84-b1d2-05fce5f6c13c" d="M231.6,284.46c-1.19,0-2.39-.04-3.58-.12-40.28-2.66-55.84-25.62-61.8-44.42-3.91-12.35-4.12-25.41-2.28-28.4,4.04-32.31,31.52-56.59,64.18-56.59s58.54,23.02,63.78,53.78c8.93.45,16.05,7.85,16.05,16.89,0,10.09-8.94,18.22-19.24,16.74-9.43,25.28-32.41,42.11-57.11,42.11ZM166.58,213.61c-.87,3.12-1.52,21.44,8.71,38.58,10.45,17.51,28.26,27.22,52.95,28.85,25.01,1.65,48.79-15.26,57.84-41.11.28-.8,1.11-1.26,1.93-1.07,8.8,2,16.65-4.76,16.65-13.25,0-7.5-6.1-13.61-13.61-13.61l-.49.03c-.83.07-1.57-.58-1.69-1.41-4.4-29.86-30.51-52.37-60.73-52.37s-57.41,23.34-60.98,54.3c-.05.42-.25.8-.57,1.07Z"/><path class="uuid-112ec0fa-5763-4e84-b1d2-05fce5f6c13c" d="M229.75,131.33c28.96,0,54.23,15.73,67.78,39.1-8.56,6.85-19.41,10.96-31.23,10.96-27.25,0-49.39-21.79-49.98-48.89,4.37-.76,8.85-1.17,13.44-1.17Z"/><path class="uuid-112ec0fa-5763-4e84-b1d2-05fce5f6c13c" d="M209.71,224.69c-.9,0-1.69-.06-2.33-.19-.89-.18-1.48-1.05-1.3-1.95.18-.89,1.04-1.49,1.95-1.3,3.78.75,15.81-1.88,20.13-2.96.88-.23,1.78.32,2,1.2.22.89-.32,1.78-1.2,2-1.46.36-12.93,3.18-19.25,3.18Z"/><path class="uuid-0905ee97-b29a-4f07-91fb-885b3990cff0" d="M251.48,216.87c-13.25,0-24.03-10.78-24.03-24.03s10.78-24.03,24.03-24.03,24.03,10.78,24.03,24.03-10.78,24.03-24.03,24.03ZM251.48,172.11c-11.43,0-20.72,9.3-20.72,20.72s9.3,20.72,20.72,20.72,20.72-9.3,20.72-20.72-9.3-20.72-20.72-20.72Z"/><path class="uuid-0905ee97-b29a-4f07-91fb-885b3990cff0" d="M190.91,216.87c-13.25,0-24.03-10.78-24.03-24.03s10.78-24.03,24.03-24.03,24.03,10.78,24.03,24.03-10.78,24.03-24.03,24.03ZM190.91,172.11c-11.43,0-20.72,9.3-20.72,20.72s9.3,20.72,20.72,20.72,20.72-9.3,20.72-20.72-9.3-20.72-20.72-20.72Z"/><path class="uuid-0905ee97-b29a-4f07-91fb-885b3990cff0" d="M288.69,211.37c-.42,0-.85-.16-1.17-.48l-14.9-14.9c-.65-.65-.65-1.69,0-2.34s1.69-.65,2.34,0l14.9,14.9c.65.65.65,1.69,0,2.34-.32.32-.75.48-1.17.48Z"/><path class="uuid-0905ee97-b29a-4f07-91fb-885b3990cff0" d="M228.11,194.49h-13.9c-.91,0-1.65-.74-1.65-1.65s.74-1.65,1.65-1.65h13.9c.91,0,1.65.74,1.65,1.65s-.74,1.65-1.65,1.65Z"/><path class="uuid-112ec0fa-5763-4e84-b1d2-05fce5f6c13c" d="M239.09,189.21c0,3.57,2.45,6.46,5.46,6.46s5.46-2.89,5.46-6.46-2.45-6.45-5.46-6.45-5.46,2.89-5.46,6.45Z"/><ellipse class="uuid-112ec0fa-5763-4e84-b1d2-05fce5f6c13c" cx="187.69" cy="188.47" rx="5.46" ry="6.45"/><path class="uuid-59eaa90f-e518-4bca-9586-5b3c80d33112" d="M134.74,364.72l33.46-63.17-12.29-36.12c-.46-1.36-.81-2.77-1.03-4.19l-3.88-25.17,12.63-26.38c.71-1.48,2.75-1.65,3.69-.31h0c2.63,3.76,3.45,8.49,2.23,12.91l-3.31,12,13.86,24.29s24.62,15.42,27.49,27.22l-8.25,77.26-64.61,1.65Z"/><path class="uuid-112ec0fa-5763-4e84-b1d2-05fce5f6c13c" d="M134.74,366.37c-.26,0-.53-.06-.77-.19-.81-.43-1.12-1.43-.69-2.24l33.13-62.54-12.06-35.45c-.5-1.46-.87-2.96-1.1-4.47l-3.88-25.17c-.05-.33,0-.67.14-.97l12.62-26.38c.59-1.23,1.75-2.03,3.11-2.15,1.38-.1,2.64.49,3.43,1.61,2.93,4.17,3.83,9.39,2.47,14.3l-3.13,11.34,13.32,23.33c3.19,2.04,25.04,16.35,27.87,28.01.05.19.06.38.04.57l-8.25,77.26c-.1.91-.92,1.56-1.82,1.47-.91-.1-1.56-.91-1.47-1.82l8.22-76.96c-3-10.99-26.46-25.79-26.7-25.94-.23-.15-.42-.35-.56-.58l-13.86-24.29c-.22-.38-.28-.84-.16-1.26l3.31-12.01c1.09-3.96.37-8.16-1.99-11.52-.14-.2-.34-.22-.45-.21-.11,0-.3.06-.4.28l-12.41,25.92,3.8,24.67c.2,1.32.52,2.64.96,3.91l12.29,36.12c.15.43.11.9-.1,1.31l-33.46,63.17c-.3.56-.87.88-1.46.88Z"/><path class="uuid-59eaa90f-e518-4bca-9586-5b3c80d33112" d="M303.28,255.58l-9.23-29.59c-.51-1.63-1.79-2.88-3.43-3.36-1.64-.47-3.39-.09-4.69,1.02-3.49,2.99-5.26,7.5-4.73,12.06l1.4,12.16-3.3,3.45,1.54-15.08c.02-.2,0-.4-.05-.59l-6.56-24.33c-.39-1.43-1.39-2.58-2.75-3.17-1.36-.58-2.89-.52-4.19.19-2.97,1.61-5.18,4.4-6.05,7.66l-.21.79-5.39-11.24c-.33-.69-1.09-1.06-1.84-.87-2.55.61-6.8,3.2-8.15,8.82-.42-.21-.86-.37-1.35-.42-1.35-.13-2.62.46-3.41,1.56-2.96,4.14-3.9,9.33-2.59,14.25l3.1,11.62-6.05,22.99-26.77,13.77c-11.21,5.77-19.41,16.09-22.5,28.31l-18.5,59.04c-.12.5,0-.4.31,0,.31.38.77,0,1.26,0,.02,0,.04,0,.06,0h66.6c.78-.03,1.43.78,1.54,0l4.69-56.03,60.74-51.3c.5-.42.69-1.1.5-1.72Z"/><path class="uuid-112ec0fa-5763-4e84-b1d2-05fce5f6c13c" d="M235.74,366.28s-.09,0-.14,0c-.91-.08-1.59-.88-1.51-1.79l4.78-56.87c.04-.44.25-.84.58-1.12l60.37-50.99-8.9-28.54c-.18-.58-.62-1.01-1.21-1.18-.58-.17-1.19-.04-1.66.36-2.66,2.28-4.01,5.72-3.61,9.2l1.48,12.91c.06.49-.11.98-.45,1.33l-7.29,7.61c-.63.66-1.68.68-2.34.05-.66-.63-.68-1.68-.05-2.34l6.76-7.05-1.39-12.14c-.52-4.58,1.25-9.09,4.74-12.09,1.31-1.12,3.08-1.5,4.72-1.03,1.65.47,2.94,1.74,3.45,3.38l9.23,29.59c.2.63,0,1.33-.51,1.76l-60.69,51.26-4.72,56.19c-.07.86-.79,1.51-1.65,1.51Z"/><path class="uuid-112ec0fa-5763-4e84-b1d2-05fce5f6c13c" d="M276.04,268.81c-.06,0-.11,0-.17,0-.91-.09-1.57-.9-1.48-1.81l3.14-30.78-6.48-24.03c-.12-.46-.44-.83-.88-1.01-.44-.19-.92-.17-1.34.06-2.18,1.18-3.81,3.24-4.45,5.64l-1.02,3.79c-.24.88-1.14,1.41-2.03,1.17-.88-.24-1.4-1.14-1.17-2.03l1.02-3.79c.88-3.27,3.09-6.07,6.07-7.68,1.31-.71,2.85-.78,4.22-.19,1.37.59,2.38,1.75,2.77,3.19l6.56,24.33c.05.2.07.4.05.6l-3.17,31.08c-.09.85-.81,1.49-1.64,1.49Z"/><path class="uuid-112ec0fa-5763-4e84-b1d2-05fce5f6c13c" d="M264.94,270.4c-.08,0-.16,0-.24-.02-.9-.13-1.53-.97-1.4-1.87l4.37-30.27-14.34-29.89c-1.88.95-5.21,3.53-4.81,9.86.06.91-.64,1.7-1.55,1.75-.96.03-1.7-.64-1.75-1.55-.57-9.12,5.35-12.99,8.56-13.76.76-.18,1.54.19,1.88.89l15.22,31.72c.14.3.19.63.15.95l-4.44,30.77c-.12.82-.83,1.42-1.64,1.42Z"/><path class="uuid-112ec0fa-5763-4e84-b1d2-05fce5f6c13c" d="M169.14,366.28c-.16,0-.33-.02-.5-.08-.87-.28-1.35-1.2-1.08-2.08l18.5-58.64c3.06-12.14,11.27-22.47,22.49-28.24l26.76-13.76,6.04-22.97-3.1-11.61c-1.31-4.93-.37-10.13,2.6-14.28.79-1.11,2.09-1.7,3.44-1.58,1.36.12,2.52.94,3.09,2.17l12.4,26.49c.14.3.19.64.14.97l-4.44,27.28c-.15.9-.98,1.52-1.9,1.37-.9-.15-1.51-1-1.37-1.9l4.36-26.77-12.18-26.03c-.11-.22-.3-.27-.4-.28-.1-.01-.3,0-.45.2-2.39,3.34-3.15,7.53-2.09,11.5l3.21,12.03c.07.28.08.57,0,.85l-6.34,24.1c-.12.45-.42.83-.84,1.05l-27.41,14.1c-10.38,5.34-17.97,14.89-20.82,26.2l-18.52,58.73c-.22.71-.88,1.16-1.58,1.16Z"/></svg>