<?xml version="1.0" encoding="UTF-8"?><svg id="uuid-996548e8-07c4-4b52-ad62-761823be549e" xmlns="http://www.w3.org/2000/svg" viewBox="0 0 413.48 294.1"><defs><style>.uuid-5a231280-bc99-42cc-8b2c-608f906de349{fill:#282d33;}.uuid-739576ae-8131-4131-b34b-001422b15e20{fill:#0e74bb;}.uuid-b944d215-0b01-4609-887e-f8502dee624e{fill:#fff;}.uuid-0c5df663-cc8d-4467-b9c6-9eeac379755d{fill:#080717;}.uuid-5d3d9a9e-1b5f-4224-8a81-d52015b734d7{fill:#1d1d1b;}</style></defs><rect class="uuid-739576ae-8131-4131-b34b-001422b15e20" x="241.87" y="7.31" width="103.66" height="122.9"/><path class="uuid-0c5df663-cc8d-4467-b9c6-9eeac379755d" d="M366.12,294.1c-.62,0-1.26-.05-1.89-.14h0L11.07,241.77c-3.45-.51-6.48-2.34-8.55-5.14-2.06-2.81-2.9-6.25-2.36-9.69L34.54,7.81c.78-4.94,4.95-8.41,9.3-7.72l363.02,53.53c4.36.68,7.27,5.26,6.5,10.2l-34.42,219.32c-1,6.37-6.55,10.96-12.82,10.96ZM364.72,290.66c5.2.77,10.11-2.84,10.93-8.04l34.41-219.32c.49-3.13-1.17-5.99-3.71-6.39L43.34,3.38c-2.55-.39-5.01,1.82-5.5,4.95L3.45,227.45c-.4,2.56.22,5.12,1.76,7.2,1.53,2.09,3.79,3.44,6.35,3.82l353.16,52.19Z"/><path d="M56.8,20.73c-.35,2.21-2.41,3.71-4.62,3.37-2.2-.35-3.71-2.41-3.37-4.62.35-2.2,2.42-3.71,4.62-3.37,2.21.35,3.71,2.42,3.37,4.62Z"/><path d="M68.53,22.57c-.35,2.21-2.42,3.71-4.62,3.37-2.21-.35-3.71-2.41-3.36-4.62.35-2.2,2.41-3.71,4.62-3.37,2.21.35,3.71,2.42,3.37,4.62Z"/><path d="M80.25,24.41c-.35,2.21-2.41,3.71-4.62,3.37-2.21-.35-3.71-2.41-3.37-4.62.35-2.2,2.42-3.71,4.62-3.37,2.2.35,3.71,2.41,3.36,4.62Z"/><polygon class="uuid-5d3d9a9e-1b5f-4224-8a81-d52015b734d7" points="329.25 269.55 320.32 257.29 332.57 248.35 334.54 251.04 324.97 258.02 331.94 267.59 329.25 269.55"/><polygon class="uuid-5d3d9a9e-1b5f-4224-8a81-d52015b734d7" points="350.04 272.81 348.07 270.12 357.64 263.14 350.67 253.57 353.36 251.61 362.3 263.87 350.04 272.81"/><rect class="uuid-5d3d9a9e-1b5f-4224-8a81-d52015b734d7" x="361.63" y="64.19" width="9.27" height="3.33" transform="translate(244.52 417.52) rotate(-81.1)"/><rect class="uuid-5d3d9a9e-1b5f-4224-8a81-d52015b734d7" x="364.6" y="61.23" width="3.33" height="9.27" transform="translate(244.43 417.49) rotate(-81.08)"/><polygon class="uuid-5d3d9a9e-1b5f-4224-8a81-d52015b734d7" points="380.13 63.04 379.55 66.76 383.27 67.35 383.85 63.63 380.13 63.04 380.13 63.04"/><polygon class="uuid-5d3d9a9e-1b5f-4224-8a81-d52015b734d7" points="379.19 69.07 378.6 72.78 382.32 73.37 382.9 69.65 379.19 69.07 379.19 69.07"/><polygon class="uuid-5d3d9a9e-1b5f-4224-8a81-d52015b734d7" points="386.21 64 385.62 67.72 389.34 68.3 389.93 64.58 386.21 64 386.21 64"/><polygon class="uuid-5d3d9a9e-1b5f-4224-8a81-d52015b734d7" points="385.26 70.02 384.68 73.74 388.4 74.32 388.98 70.6 385.26 70.02 385.26 70.02"/><rect class="uuid-0c5df663-cc8d-4467-b9c6-9eeac379755d" x="241.5" y="196.68" width="99.62" height="3.33"/><rect class="uuid-0c5df663-cc8d-4467-b9c6-9eeac379755d" x="241.5" y="208.06" width="116.7" height="3.33"/><rect class="uuid-0c5df663-cc8d-4467-b9c6-9eeac379755d" x="241.5" y="219.45" width="66.61" height="3.33"/><rect class="uuid-0c5df663-cc8d-4467-b9c6-9eeac379755d" x="241.5" y="149.08" width="73.34" height="10.04"/><rect class="uuid-0c5df663-cc8d-4467-b9c6-9eeac379755d" x="241.5" y="167.6" width="101.69" height="10.04"/><rect x="118.85" y="131.36" width="3.33" height="7.28" transform="translate(-5.53 5.15) rotate(-2.39)"/><rect x="118.85" y="131.36" width="3.33" height="7.28" transform="translate(-5.53 5.15) rotate(-2.39)"/><rect x="99.51" y="143.63" width="3.33" height="7.29" transform="translate(-76.21 168.72) rotate(-62.41)"/><rect x="98.49" y="168.49" width="7.29" height="3.33" transform="translate(-75.2 81.07) rotate(-32.35)"/><rect x="120.76" y="177.12" width="3.33" height="7.29" transform="translate(-7.48 5.3) rotate(-2.41)"/><rect x="140.1" y="164.86" width="3.33" height="7.29" transform="translate(-73.2 216.26) rotate(-62.45)"/><rect x="137.17" y="143.95" width="7.29" height="3.33" transform="translate(-56.12 98.18) rotate(-32.42)"/><polygon points="187.15 175.07 153.7 165.73 120.24 156.38 132.34 188.94 144.45 221.5 155.1 198.44 173.46 215.32 183.42 204.5 165.06 187.61 187.15 175.07"/><rect class="uuid-739576ae-8131-4131-b34b-001422b15e20" x="3.44" y="53.23" width="63.15" height="63.15"/><rect class="uuid-b944d215-0b01-4609-887e-f8502dee624e" x="25.7" y="68.21" width="17.81" height="10.52"/><rect class="uuid-739576ae-8131-4131-b34b-001422b15e20" x="146.33" y="69.82" width="14.57" height="14.57"/><polygon class="uuid-739576ae-8131-4131-b34b-001422b15e20" points="214.99 91.68 211.65 95.02 217.47 100.84 226.64 91.68 214.99 91.68"/><path class="uuid-5a231280-bc99-42cc-8b2c-608f906de349" d="M131.4,118.04h-66.48V51.56h66.48v66.48ZM68.25,114.71h59.82v-59.82h-59.82v59.82Z"/><rect class="uuid-5a231280-bc99-42cc-8b2c-608f906de349" x="85.97" y="78.73" width="3.33" height="11.33"/><rect class="uuid-5a231280-bc99-42cc-8b2c-608f906de349" x="92.9" y="93.66" width="10.52" height="3.33"/><rect class="uuid-5a231280-bc99-42cc-8b2c-608f906de349" x="107.02" y="79.54" width="3.33" height="10.52"/><rect class="uuid-5a231280-bc99-42cc-8b2c-608f906de349" x="92.09" y="72.61" width="11.34" height="3.33"/><path class="uuid-5a231280-bc99-42cc-8b2c-608f906de349" d="M44.77,95.37h-20.33v-27.62h20.33v27.62ZM27.77,92.04h13.67v-20.96h-13.67v20.96Z"/><rect class="uuid-5a231280-bc99-42cc-8b2c-608f906de349" x="25.7" y="83.14" width="17.81" height="3.33"/><path class="uuid-5a231280-bc99-42cc-8b2c-608f906de349" d="M35.01,106.69c-2.7,0-4.9-2.2-4.9-4.9v-8.48h3.33v8.48c0,.87.71,1.57,1.57,1.57s1.57-.71,1.57-1.57v-8.48h3.33v8.48c0,2.7-2.2,4.9-4.9,4.9Z"/><path class="uuid-5a231280-bc99-42cc-8b2c-608f906de349" d="M257.7,118.04h-66.48V51.56h66.48v66.48ZM194.55,114.71h59.82v-59.82h-59.82v59.82Z"/><rect class="uuid-5a231280-bc99-42cc-8b2c-608f906de349" x="31.72" y="69.01" width="3.33" height="6.48"/><path class="uuid-5a231280-bc99-42cc-8b2c-608f906de349" d="M94.16,80.8h-13.05v-13.05h13.05v13.05ZM84.44,77.47h6.38v-6.38h-6.38v6.38Z"/><path class="uuid-5a231280-bc99-42cc-8b2c-608f906de349" d="M115.21,80.8h-13.05v-13.05h13.05v13.05ZM105.49,77.47h6.38v-6.38h-6.38v6.38Z"/><path class="uuid-5a231280-bc99-42cc-8b2c-608f906de349" d="M94.16,101.85h-13.05v-13.05h13.05v13.05ZM84.44,98.52h6.38v-6.38h-6.38v6.38Z"/><path class="uuid-5a231280-bc99-42cc-8b2c-608f906de349" d="M115.21,101.85h-13.05v-13.05h13.05v13.05ZM105.49,98.52h6.38v-6.38h-6.38v6.38Z"/><path class="uuid-5a231280-bc99-42cc-8b2c-608f906de349" d="M194.55,118.04h-66.48V51.56h66.48v66.48ZM131.4,114.71h59.82v-59.82h-59.82v59.82Z"/><path class="uuid-5a231280-bc99-42cc-8b2c-608f906de349" d="M177.55,101.85h-33.29v-34.1h33.29v34.1ZM147.59,98.52h26.62v-27.43h-26.62v27.43Z"/><rect class="uuid-5a231280-bc99-42cc-8b2c-608f906de349" x="159.64" y="69.01" width="3.33" height="30.77"/><rect class="uuid-5a231280-bc99-42cc-8b2c-608f906de349" x="145.52" y="83.14" width="30.76" height="3.33"/><path class="uuid-5a231280-bc99-42cc-8b2c-608f906de349" d="M216.75,100.88c-1.43,0-2.87-.55-3.96-1.64l-.16-.16c-1.06-1.06-1.64-2.47-1.64-3.96s.58-2.9,1.64-3.96l18.48-18.48c2.11-2.12,5.81-2.12,7.92,0l.16.16c1.06,1.06,1.64,2.46,1.64,3.96s-.58,2.9-1.64,3.96l-18.48,18.48c-1.09,1.09-2.53,1.64-3.96,1.64ZM235.06,74.37c-.61,0-1.18.24-1.61.67l-18.48,18.48c-.43.43-.67,1-.67,1.6s.24,1.18.67,1.61l.16.16c.89.89,2.33.89,3.21,0l18.48-18.48c.43-.43.67-1,.67-1.6s-.24-1.18-.67-1.6l-.16-.16c-.43-.43-1-.67-1.6-.67Z"/><rect class="uuid-5a231280-bc99-42cc-8b2c-608f906de349" x="228.53" y="72.52" width="3.33" height="19.43" transform="translate(9.27 186.86) rotate(-45)"/><rect class="uuid-5a231280-bc99-42cc-8b2c-608f906de349" x="210.97" y="98.07" width="3.94" height="3.33" transform="translate(-8.16 179.77) rotate(-45)"/></svg>