<?xml version="1.0" encoding="UTF-8"?><svg id="uuid-ad781819-56ba-46c1-91b2-dc9118277599" xmlns="http://www.w3.org/2000/svg" viewBox="0 0 434.52 385.84"><defs><style>.uuid-a71a8b98-e7ba-49a8-9a4b-1efed45c37b2{fill:#282d33;}.uuid-4dc6c4c8-6836-45ed-a0f8-5957eabdcb8c{fill:#0e74bb;}.uuid-72e10b08-0f54-416c-adac-11d14fd7e1b6{fill:#99b9ff;}.uuid-3166160b-5215-4e9e-b927-889e18310b50{fill:#fff;}.uuid-c1c93ff6-0f58-4220-8f5c-0012cb35574b{isolation:isolate;}.uuid-11bf60f8-7c41-44be-b2cc-41054f74b887{fill:#080717;}</style></defs><polygon class="uuid-72e10b08-0f54-416c-adac-11d14fd7e1b6" points="166.1 0 156.08 61.59 201.14 104.77 139.47 114.27 112.33 170.47 84.23 114.75 22.4 106.3 66.71 62.36 55.64 .95 111.12 29.51 166.1 0"/><polygon class="uuid-4dc6c4c8-6836-45ed-a0f8-5957eabdcb8c" points="292.38 28.46 350.98 81.06 409.59 133.67 334.73 158.12 259.87 182.57 276.13 105.51 292.38 28.46"/><path d="M392.19,54.79s9.35-26.85,1.53-29.99c-9.74-3.91-14.93,12.58-10.27,18.08,4.66,5.5-.8-13.67-9.63-9.71-6.89,3.09-7.39,14.92,18.37,21.62Z"/><rect class="uuid-a71a8b98-e7ba-49a8-9a4b-1efed45c37b2" x="380.59" y="2.5" width="3.26" height="10.36" transform="translate(2.76 54.2) rotate(-8.14)"/><rect class="uuid-a71a8b98-e7ba-49a8-9a4b-1efed45c37b2" x="380.59" y="2.5" width="3.26" height="10.36" transform="translate(2.76 54.2) rotate(-8.14)"/><rect class="uuid-a71a8b98-e7ba-49a8-9a4b-1efed45c37b2" x="354.97" y="22.61" width="3.26" height="10.36" transform="translate(198.05 348.41) rotate(-68.14)"/><rect class="uuid-a71a8b98-e7ba-49a8-9a4b-1efed45c37b2" x="356.02" y="58.41" width="10.36" height="3.26" transform="translate(39.92 235.68) rotate(-38.1)"/><rect class="uuid-a71a8b98-e7ba-49a8-9a4b-1efed45c37b2" x="389.81" y="66.99" width="3.26" height="10.36" transform="translate(-6.28 56.25) rotate(-8.15)"/><rect class="uuid-a71a8b98-e7ba-49a8-9a4b-1efed45c37b2" x="415.43" y="46.88" width="3.26" height="10.36" transform="translate(213.6 419.83) rotate(-68.16)"/><rect class="uuid-a71a8b98-e7ba-49a8-9a4b-1efed45c37b2" x="407.27" y="18.18" width="10.37" height="3.26" transform="translate(75.99 259.19) rotate(-38.18)"/><path d="M232.92,89.73h0c-.6,0-1.14-.32-1.43-.85l-3.66-6.69-6.69-3.66c-.52-.28-.85-.83-.85-1.43s.32-1.14.85-1.43l6.69-3.66,3.66-6.69c.57-1.05,2.29-1.05,2.86,0l3.66,6.69,6.69,3.66c.52.28.85.83.85,1.43s-.32,1.14-.85,1.43l-6.69,3.66-3.66,6.69c-.28.52-.83.85-1.43.85ZM225.32,77.11l4.49,2.46c.27.15.5.37.65.65l2.45,4.49,2.46-4.49c.15-.27.37-.5.65-.65l4.49-2.46-4.49-2.45c-.27-.15-.5-.38-.65-.65l-2.46-4.49-2.45,4.49c-.15.27-.38.5-.65.65l-4.49,2.45Z"/><rect class="uuid-72e10b08-0f54-416c-adac-11d14fd7e1b6" x="239.47" y="182.37" width="195.05" height="195.05"/><rect class="uuid-4dc6c4c8-6836-45ed-a0f8-5957eabdcb8c" x="28.76" y="153.96" width="20.57" height="20.57" transform="translate(-60.09 27.6) rotate(-22.59)"/><circle class="uuid-4dc6c4c8-6836-45ed-a0f8-5957eabdcb8c" cx="116.88" cy="306.19" r="79.64" transform="translate(-182.28 172.33) rotate(-45)"/><path d="M275.8,286.6l-1.51-.62-198.17-81.97.62-1.51,53.15-128.5,1.51.62,198.17,81.97-.62,1.51-53.15,128.5ZM80.38,202.24l193.65,80.1,51.28-123.98-193.65-80.1-51.28,123.98Z"/><path d="M383.45,182.67c-10.76,0-19.51-8.75-19.51-19.51s8.75-19.51,19.51-19.51,19.51,8.75,19.51,19.51-8.75,19.51-19.51,19.51ZM383.45,146.91c-8.96,0-16.25,7.29-16.25,16.25s7.29,16.25,16.25,16.25,16.25-7.29,16.25-16.25-7.29-16.25-16.25-16.25Z"/><path d="M165.9,297.56c0,8.38-6.79,15.17-15.17,15.17s-15.17-6.79-15.17-15.17c0-.5.03-.98.07-1.47h30.2c.05.48.07.97.07,1.47Z"/><path d="M150.72,314.36c-9.26,0-16.8-7.54-16.8-16.8,0-.55.03-1.09.08-1.62l.14-1.47h33.16l.14,1.47c.05.53.08,1.07.08,1.62,0,9.26-7.54,16.8-16.8,16.8ZM137.18,297.72c.09,7.4,6.13,13.38,13.54,13.38s13.46-5.99,13.54-13.38h-27.09Z"/><path class="uuid-3166160b-5215-4e9e-b927-889e18310b50" d="M136.95,303.9c1.87-.61,3.87-.96,5.94-.96,6.31,0,11.88,3.07,15.36,7.78-2.22,1.27-4.78,2.01-7.52,2.01-6.11,0-11.37-3.62-13.77-8.83Z"/><path d="M150.72,314.36c-6.53,0-12.51-3.84-15.25-9.78l-.77-1.66,1.74-.57c2.1-.69,4.27-1.04,6.45-1.04,6.54,0,12.77,3.16,16.67,8.44l1.09,1.47-1.59.91c-2.54,1.45-5.42,2.22-8.33,2.22ZM139.38,304.93c2.48,3.8,6.74,6.17,11.34,6.17,1.69,0,3.37-.32,4.95-.94-3.3-3.57-7.86-5.59-12.78-5.59-1.18,0-2.35.12-3.51.36Z"/><path d="M139.99,269.22l-2.48-2.12c3.82-4.47,10.57-5,15.04-1.19l-2.12,2.48c-3.11-2.65-7.79-2.28-10.45.82Z"/><path class="uuid-11bf60f8-7c41-44be-b2cc-41054f74b887" d="M143.3,278.66c1.44,0,2.61-1.17,2.61-2.61,0-1.21-.83-2.22-1.96-2.51.86-.56,1.88-.89,2.98-.89,3.02,0,5.47,2.45,5.47,5.47s-2.45,5.47-5.47,5.47-5.47-2.45-5.47-5.47c0-.07,0-.14.01-.21.47.46,1.11.75,1.82.75Z"/><path d="M165.18,269.22l-2.48-2.12c1.85-2.17,4.43-3.48,7.28-3.71,2.83-.22,5.6.67,7.77,2.52l-2.12,2.48c-1.51-1.29-3.44-1.89-5.39-1.75-1.97.16-3.77,1.07-5.05,2.58Z"/><path class="uuid-11bf60f8-7c41-44be-b2cc-41054f74b887" d="M168.5,278.66c1.44,0,2.61-1.17,2.61-2.61,0-1.21-.83-2.22-1.96-2.51.86-.56,1.88-.89,2.98-.89,3.02,0,5.47,2.45,5.47,5.47s-2.45,5.47-5.47,5.47-5.47-2.45-5.47-5.47c0-.07,0-.14.01-.21.47.46,1.11.75,1.82.75Z"/><path d="M308.41,112.13c0,7.37,5.97,13.34,13.34,13.34s13.34-5.97,13.34-13.34c0-.03,0-.06,0-.09,0-1.38-1.38-2.36-2.68-1.9l-1.17.41c-6.52,2.29-13.64,2.19-20.09-.3h0c-1.32-.51-2.74.46-2.74,1.87h0Z"/><path d="M321.75,127.1c-8.25,0-14.97-6.71-14.97-14.97h0c0-1.22.59-2.34,1.58-3.01.99-.68,2.26-.82,3.37-.39,6.08,2.35,12.81,2.44,18.96.28l1.17-.41c1.11-.39,2.34-.22,3.3.46.97.68,1.55,1.79,1.55,2.97,0,8.35-6.71,15.07-14.97,15.07ZM310.42,111.74c-.09,0-.16.03-.21.07-.08.05-.17.15-.17.31h-1.63s1.63.01,1.63.01c0,6.46,5.25,11.71,11.71,11.71s11.71-5.25,11.71-11.71c0-.27-.11-.37-.17-.41-.07-.05-.2-.1-.34-.05l-1.17.41c-6.88,2.42-14.41,2.31-21.22-.32-.05-.02-.1-.03-.14-.03Z"/><path class="uuid-3166160b-5215-4e9e-b927-889e18310b50" d="M333.86,117.71c-1.65-.54-3.4-.84-5.22-.84-5.54,0-10.44,2.7-13.5,6.84,1.95,1.12,4.2,1.76,6.61,1.76,5.37,0,9.99-3.19,12.11-7.77Z"/><path d="M321.75,127.1c-2.59,0-5.16-.68-7.42-1.98l-1.59-.91,1.09-1.47c3.47-4.7,9-7.5,14.81-7.5,1.93,0,3.86.31,5.73.92l1.74.57-.77,1.66c-2.44,5.29-7.77,8.71-13.59,8.71ZM317.75,123.13c1.28.47,2.64.71,4,.71,3.88,0,7.48-1.95,9.64-5.09-.91-.17-1.83-.26-2.76-.26-4.17,0-8.04,1.67-10.89,4.63Z"/><path d="M320.51,96.64h-3.26c0-3.48-2.83-6.32-6.32-6.32s-6.32,2.83-6.32,6.32h-3.26c0-5.28,4.3-9.58,9.58-9.58s9.58,4.3,9.58,9.58Z"/><path d="M343.63,96.64h-3.26c0-3.48-2.83-6.32-6.32-6.32s-6.32,2.83-6.32,6.32h-3.26c0-5.28,4.3-9.58,9.58-9.58s9.58,4.3,9.58,9.58Z"/><path class="uuid-11bf60f8-7c41-44be-b2cc-41054f74b887" d="M329.63,324.2c-13.15,0-23.86-10.7-23.86-23.86s10.7-23.86,23.86-23.86,23.86,10.7,23.86,23.86-10.7,23.86-23.86,23.86ZM329.63,279.74c-11.36,0-20.6,9.24-20.6,20.6s9.24,20.6,20.6,20.6,20.6-9.24,20.6-20.6-9.24-20.6-20.6-20.6Z"/><path class="uuid-11bf60f8-7c41-44be-b2cc-41054f74b887" d="M298.62,288.74c-.26,0-.52-.06-.76-.19-.79-.42-1.1-1.41-.68-2.2,6.09-11.47,17.92-18.6,30.89-18.6,5.59,0,10.94,1.29,15.9,3.83.8.41,1.12,1.39.71,2.19-.41.8-1.39,1.12-2.19.71-4.5-2.3-9.35-3.47-14.41-3.47-11.76,0-22.49,6.46-28.01,16.87-.29.55-.86.87-1.44.87Z"/><path class="uuid-11bf60f8-7c41-44be-b2cc-41054f74b887" d="M335.38,347.92c-5.88,0-11.76-1.49-17.09-4.48-4.87-2.73-8.91-6.47-12-11.12-.5-.75-.29-1.76.46-2.26.75-.5,1.76-.3,2.26.46,2.8,4.21,6.46,7.6,10.87,10.08,10.25,5.75,22.78,5.36,32.68-1.01.76-.48,1.76-.27,2.25.49.49.76.27,1.76-.49,2.25-5.77,3.72-12.35,5.59-18.94,5.59Z"/><path d="M325.02,309.89c0,2.55,2.07,4.61,4.61,4.61s4.61-2.07,4.61-4.61-2.07-4.61-4.61-4.61-4.61,2.07-4.61,4.61Z"/><path class="uuid-72e10b08-0f54-416c-adac-11d14fd7e1b6" d="M329.63,278.11c12.28,0,22.23,9.95,22.23,22.23,0,3.1-.64,6.05-1.79,8.73h-40.89c-1.15-2.68-1.79-5.63-1.79-8.73,0-12.28,9.95-22.23,22.23-22.23Z"/><path class="uuid-11bf60f8-7c41-44be-b2cc-41054f74b887" d="M350.08,310.7h-40.89c-.65,0-1.24-.39-1.5-.99-1.27-2.97-1.92-6.13-1.92-9.37,0-13.16,10.7-23.86,23.86-23.86s23.86,10.7,23.86,23.86c0,3.25-.64,6.4-1.92,9.37-.26.6-.84.99-1.5.99ZM310.29,307.44h38.68c.84-2.27,1.26-4.66,1.26-7.1,0-11.36-9.24-20.6-20.6-20.6s-20.6,9.24-20.6,20.6c0,2.45.42,4.83,1.26,7.1Z"/><path class="uuid-11bf60f8-7c41-44be-b2cc-41054f74b887" d="M383.62,324.2c-13.16,0-23.86-10.7-23.86-23.86,0-.9.73-1.63,1.63-1.63s1.63.73,1.63,1.63c0,11.36,9.24,20.6,20.6,20.6s20.6-9.24,20.6-20.6c0-.9.73-1.63,1.63-1.63s1.63.73,1.63,1.63c0,13.15-10.7,23.86-23.86,23.86Z"/><circle cx="383.62" cy="309.89" r="4.61"/><path class="uuid-72e10b08-0f54-416c-adac-11d14fd7e1b6" d="M405.37,295.75c.31,1.48.47,3.01.47,4.59,0,3.1-.64,6.05-1.79,8.73h-40.89c-1.15-2.68-1.79-5.63-1.79-8.73,0-4.18,1.15-8.09,3.16-11.43l40.83,6.84Z"/><path class="uuid-11bf60f8-7c41-44be-b2cc-41054f74b887" d="M404.06,310.7h-40.89c-.65,0-1.24-.39-1.5-.99-1.27-2.97-1.92-6.13-1.92-9.37,0-4.33,1.17-8.57,3.39-12.27.46-.77,1.46-1.02,2.24-.56.77.46,1.02,1.46.56,2.24-1.91,3.19-2.93,6.85-2.93,10.59,0,2.45.42,4.83,1.26,7.1h38.68c.84-2.27,1.26-4.66,1.26-7.1,0-1.43-.15-2.86-.44-4.25-.18-.88.38-1.74,1.26-1.93.87-.19,1.74.38,1.93,1.26.34,1.61.51,3.27.51,4.92,0,3.25-.64,6.4-1.92,9.37-.26.6-.84.99-1.5.99Z"/><path class="uuid-11bf60f8-7c41-44be-b2cc-41054f74b887" d="M395.5,297.86c-8.83,0-18.33-2.17-27.35-6.45-7.05-3.35-13.26-7.69-18.48-12.92-.63-.64-.63-1.67,0-2.3.64-.63,1.67-.63,2.3,0,4.95,4.96,10.86,9.09,17.57,12.28,15.52,7.37,32.47,8.17,44.21,2.08.8-.41,1.78-.1,2.2.7.41.8.1,1.78-.7,2.2-5.7,2.95-12.5,4.42-19.76,4.42Z"/><path class="uuid-11bf60f8-7c41-44be-b2cc-41054f74b887" d="M174.68,178.13c-1.35,0-2.7-.28-3.98-.84-2.43-1.06-4.31-3.01-5.27-5.48-.97-2.47-.92-5.17.15-7.61l8.49-19.43c2.19-5.02,8.06-7.32,13.08-5.13,5.02,2.19,7.32,8.06,5.13,13.08l-8.49,19.43c-1.06,2.43-3.01,4.31-5.48,5.27-1.18.46-2.4.69-3.63.69ZM183.18,142.09c-2.58,0-5.04,1.5-6.13,4l-8.49,19.43c-.71,1.63-.75,3.45-.1,5.11.65,1.66,1.91,2.97,3.54,3.68h0c1.63.71,3.45.75,5.11.1,1.66-.65,2.97-1.91,3.68-3.54l8.49-19.43c1.47-3.37-.07-7.32-3.45-8.79-.87-.38-1.77-.56-2.66-.56Z"/><path d="M183.7,159c-4.2-1.84-9.1.08-10.94,4.29l-4.46,10.21c.8.97,1.83,1.77,3.06,2.31,4.2,1.84,9.1-.08,10.94-4.29l4.46-10.21c-.8-.97-1.83-1.77-3.06-2.31Z"/><path class="uuid-11bf60f8-7c41-44be-b2cc-41054f74b887" d="M200.48,189.41c-1.33,0-2.67-.27-3.96-.83h0c-5.02-2.19-7.32-8.06-5.13-13.08l8.49-19.43c1.06-2.43,3.01-4.31,5.48-5.27,2.47-.97,5.17-.91,7.61.15,5.02,2.19,7.32,8.06,5.13,13.08l-8.49,19.43c-1.63,3.73-5.29,5.96-9.12,5.96ZM197.82,185.59c3.37,1.47,7.32-.07,8.79-3.45l8.49-19.43c1.47-3.37-.07-7.32-3.45-8.79-1.64-.71-3.45-.75-5.11-.1-1.66.65-2.97,1.91-3.68,3.54l-8.49,19.43c-1.47,3.37.07,7.32,3.45,8.79h0Z"/><path d="M209.51,170.28c-4.2-1.84-9.1.08-10.94,4.29l-4.46,10.21c.8.97,1.83,1.77,3.06,2.31,4.2,1.84,9.1-.08,10.94-4.29l4.46-10.21c-.8-.97-1.83-1.77-3.06-2.31Z"/><path class="uuid-11bf60f8-7c41-44be-b2cc-41054f74b887" d="M196.17,217.88c-5.28,0-10.33-1.66-14.61-4.81-.73-.53-.88-1.55-.35-2.28.53-.72,1.55-.88,2.28-.35,3.72,2.73,8.11,4.17,12.69,4.17,9.72,0,18.25-6.57,20.74-15.97.23-.87,1.13-1.38,1.99-1.16.87.23,1.39,1.12,1.16,1.99-2.88,10.83-12.7,18.39-23.89,18.39Z"/><path class="uuid-11bf60f8-7c41-44be-b2cc-41054f74b887" d="M220.64,201.52c-.17,0-.35-.03-.52-.08-2.43-.82-4.71-2-6.79-3.53-.73-.53-.88-1.55-.35-2.28.53-.72,1.55-.88,2.28-.35,1.81,1.33,3.79,2.36,5.9,3.07.85.29,1.31,1.21,1.03,2.06-.23.68-.86,1.11-1.54,1.11Z"/><path d="M258.35,379.05h-91.64l45.82-79.36,45.82,79.36ZM172.35,375.79h80.35l-40.17-69.59-40.17,69.59Z"/><path class="uuid-3166160b-5215-4e9e-b927-889e18310b50" d="M110.74,56.77c1.52,5.17-1.43,10.59-6.6,12.11-5.17,1.52-10.59-1.43-12.11-6.6-1.52-5.17,1.43-10.59,6.6-12.11,5.17-1.52,10.59,1.43,12.11,6.6Z"/><path d="M111.12,59.03c-2.01-2.25-5.2-3.28-8.29-2.37-4.27,1.26-6.71,5.74-5.45,10.01.23.78.57,1.49.99,2.14,1.81.59,3.81.66,5.77.08,4.41-1.3,7.2-5.45,6.97-9.86Z"/><path class="uuid-3166160b-5215-4e9e-b927-889e18310b50" d="M139.15,48.39c1.52,5.17-1.43,10.59-6.6,12.11-5.17,1.52-10.59-1.43-12.11-6.6s1.43-10.59,6.6-12.11c5.17-1.52,10.59,1.43,12.11,6.6Z"/><path d="M139.52,50.65c-2.01-2.25-5.2-3.28-8.29-2.37-4.27,1.26-6.71,5.74-5.45,10.01.23.78.57,1.49.99,2.14,1.81.59,3.81.66,5.77.08,4.41-1.3,7.2-5.45,6.97-9.86Z"/><path d="M104.42,89.3c-6.87,0-12.47-5.59-12.47-12.46h3.26c0,5.08,4.13,9.21,9.21,9.21s9.21-4.13,9.21-9.21h3.26c0,6.87-5.59,12.46-12.46,12.46Z"/><g class="uuid-c1c93ff6-0f58-4220-8f5c-0012cb35574b"><path d="M50.24,237.93c-.33,0-.65-.1-.93-.29l-35.4-24.57c-.53-.37-.79-1.01-.67-1.65.12-.63.61-1.13,1.23-1.28l33.02-7.58c.45-.1.92-.01,1.29.25l35.4,24.57c.53.37.79,1.01.67,1.65-.12.63-.61,1.13-1.23,1.28l-33.02,7.58c-.12.03-.24.04-.36.04ZM18.8,212.5l31.78,22.06,28.72-6.6-31.78-22.06-28.73,6.6Z"/><path d="M37.03,278.15c-.45,0-.89-.19-1.2-.53-.39-.43-.53-1.05-.34-1.61l13.21-40.22c.18-.54.63-.95,1.18-1.08l33.02-7.58c.57-.13,1.17.06,1.57.49.4.43.53,1.05.35,1.61l-13.2,40.22c-.18.54-.63.95-1.18,1.08l-33.02,7.58c-.12.03-.24.04-.36.04ZM51.5,237.68l-12.02,36.6,29.31-6.73,12.02-36.6-29.31,6.73ZM70.05,268.94h.02-.02Z"/><path d="M37.03,278.15c-.33,0-.65-.1-.93-.29L.7,253.29c-.59-.41-.84-1.16-.62-1.85l13.21-40.22c.16-.49.54-.87,1.03-1.04.49-.17,1.02-.09,1.45.21l35.4,24.57c.59.41.84,1.16.62,1.85l-13.21,40.22c-.16.49-.54.87-1.03,1.04-.17.06-.34.08-.52.08ZM3.56,251.31l32.61,22.63,12.15-36.99-32.61-22.63-12.15,36.99Z"/></g></svg>