<?xml version="1.0" encoding="UTF-8"?><svg id="uuid-e82d4d9e-2c1a-4cd6-86ad-6bf3420cf1dd" xmlns="http://www.w3.org/2000/svg" viewBox="0 0 467.05 362.22"><defs><style>.uuid-67daf96b-8e87-48a9-afb0-fc3879b93968{fill:#0e74bb;}.uuid-1a630096-b795-4bb4-9eb2-a87588bd8041{fill:#fff;}.uuid-85f620c5-c0cf-4ab7-9689-546e7c905a4b{fill:#080717;}</style></defs><path class="uuid-85f620c5-c0cf-4ab7-9689-546e7c905a4b" d="M185.33,362.22l82.88-7.27c-5.35-29.46-1.68-56.66,10.89-80.85,3.45-6.63,7.11-12.14,10.4-16.47,5.63-7.43,4.38-17.56-2.98-24.46l-45.3-42.46c-3.1,2.5-75.69,62.38-55.89,171.51Z"/><path class="uuid-1a630096-b795-4bb4-9eb2-a87588bd8041" d="M219.64,282.35L23.05,226.95c-11.24-3.17-17.78-14.84-14.61-26.08L60.26,16.98c3.17-11.24,14.84-17.78,26.08-14.61l196.59,55.4c11.24,3.17,17.78,14.84,14.61,26.08l-51.82,183.89c-3.17,11.24-14.84,17.78-26.08,14.61Z"/><path class="uuid-85f620c5-c0cf-4ab7-9689-546e7c905a4b" d="M225.37,284.71c-2.03,0-4.1-.28-6.15-.85L22.63,228.46c-12.05-3.4-19.09-15.96-15.7-28.01L58.75,16.56c1.65-5.84,5.47-10.68,10.76-13.65C74.8-.06,80.93-.78,86.77.86l196.59,55.4c5.84,1.64,10.68,5.46,13.65,10.75,2.96,5.29,3.69,11.42,2.05,17.26l-51.82,183.89c-2.82,10-11.95,16.55-21.86,16.55ZM220.07,280.84c10.38,2.93,21.22-3.14,24.15-13.53l51.82-183.89c1.42-5.03.79-10.31-1.76-14.88-2.55-4.56-6.73-7.85-11.77-9.27L85.91,3.88c-5.03-1.41-10.31-.79-14.88,1.76-4.56,2.56-7.85,6.73-9.27,11.77L9.95,201.3c-2.93,10.39,3.14,21.22,13.53,24.15l196.59,55.4Z"/><path class="uuid-85f620c5-c0cf-4ab7-9689-546e7c905a4b" d="M295.54,90.73l1.95-6.9c3.17-11.24-3.38-22.91-14.61-26.08L86.28,2.35c-11.24-3.17-22.91,3.38-26.08,14.61l-1.95,6.9,237.28,66.86Z"/><path class="uuid-85f620c5-c0cf-4ab7-9689-546e7c905a4b" d="M218.19,186.02c-1.19,0-2.4-.16-3.6-.5l-144.51-40.72c-3.41-.96-6.25-3.2-7.98-6.29-1.73-3.1-2.16-6.68-1.2-10.1l.5-1.79c.96-3.42,3.2-6.25,6.29-7.99,3.09-1.73,6.68-2.16,10.1-1.2l144.51,40.72c7.05,1.99,11.17,9.34,9.18,16.39l-.5,1.79c-1.65,5.85-6.99,9.68-12.79,9.68ZM74.17,120.08c-1.71,0-3.41.44-4.95,1.3-2.37,1.33-4.07,3.49-4.81,6.1l-.5,1.79h0c-.74,2.61-.41,5.35.91,7.71,1.32,2.37,3.49,4.07,6.1,4.81l144.51,40.72c5.39,1.52,11-1.63,12.52-7.02l.5-1.79c1.52-5.39-1.63-11.01-7.02-12.52l-144.51-40.72c-.91-.26-1.84-.38-2.77-.38ZM62.41,128.84h.02-.02Z"/><path class="uuid-85f620c5-c0cf-4ab7-9689-546e7c905a4b" d="M199.62,134.87h1.85c6.46,0,11.7,5.24,11.7,11.7v40.51c0,6.46-5.24,11.7-11.7,11.7h-1.85c-6.46,0-11.7-5.24-11.7-11.7v-40.51c0-6.46,5.24-11.7,11.7-11.7Z" transform="translate(-14.42 314.62) rotate(-74.27)"/><path class="uuid-85f620c5-c0cf-4ab7-9689-546e7c905a4b" d="M172.87,119.71c-.14,0-.28-.02-.43-.06l-36.33-10.24c-.83-.23-1.32-1.1-1.08-1.93.24-.83,1.1-1.32,1.93-1.08l36.33,10.24c.83.23,1.32,1.1,1.08,1.93-.2.69-.82,1.14-1.51,1.14Z"/><path class="uuid-85f620c5-c0cf-4ab7-9689-546e7c905a4b" d="M202.33,107.91c-.14,0-.28-.02-.43-.06l-84.75-23.88c-.83-.23-1.32-1.1-1.08-1.93.24-.83,1.1-1.32,1.93-1.08l84.75,23.88c.83.23,1.32,1.1,1.08,1.93-.2.69-.82,1.14-1.51,1.14Z"/><rect class="uuid-1a630096-b795-4bb4-9eb2-a87588bd8041" x="194.69" y="152.25" width="5.72" height="26.14" transform="translate(-15.15 310.63) rotate(-74.26)"/><rect class="uuid-1a630096-b795-4bb4-9eb2-a87588bd8041" x="79.6" y="11.7" width="5.72" height="7.23" transform="translate(45.36 90.53) rotate(-74.26)"/><rect class="uuid-1a630096-b795-4bb4-9eb2-a87588bd8041" x="94.35" y="15.86" width="5.72" height="7.23" transform="translate(52.1 107.75) rotate(-74.26)"/><rect class="uuid-1a630096-b795-4bb4-9eb2-a87588bd8041" x="109.09" y="20.01" width="5.72" height="7.23" transform="translate(58.85 124.97) rotate(-74.26)"/><path class="uuid-85f620c5-c0cf-4ab7-9689-546e7c905a4b" d="M320.37,152.38c-14.59-1.7-28.33,4.31-37.41,14.86,3.92-.59,7.94-.7,12.03-.23,27.7,3.23,47.22,31.03,43.59,62.1-.2,1.73-.48,3.42-.81,5.09,10.87-6.92,18.7-18.66,20.33-32.7,2.84-24.37-14.05-46.36-37.73-49.12Z"/><path class="uuid-85f620c5-c0cf-4ab7-9689-546e7c905a4b" d="M355.09,283.47c-11.72,0-24.24-1.7-28.73-9.82-4.17-7.52-.8-18.7,10.28-34.17,1.06-1.48,1.44-2.9,1.16-4.35-.96-5.03-9.4-10.48-19.17-16.78-11.27-7.27-24.04-15.51-32-26.86-3.65-5.2,1.26-14.76,13.13-25.55h0c4.97-4.52,18.18-10.72,32.49-8.12,12.09,2.2,22.08,10.4,28.91,23.73,6.55,12.8,28.05,9.7,42.28,7.64,3.64-.53,6.79-.98,9.06-1.06,6.27-.22,11.81,3.53,15.25,10.27,5.94,11.65,5.3,31.9-9.53,50.91-.28.35-27.81,33.59-39.07,33.59-.46,0-.9-.06-1.3-.17-1.13-.32-4.97-.08-9.05.17-3.99.25-8.77.55-13.69.55ZM301.86,168.26c-11.62,10.57-14.71,18.52-12.67,21.44,7.61,10.85,20.11,18.91,31.14,26.02,10.8,6.97,19.34,12.47,20.55,18.83.44,2.3-.13,4.58-1.69,6.76-10.16,14.19-13.56,24.56-10.09,30.82,5.43,9.8,26.75,8.47,39.49,7.66,5.57-.35,8.55-.51,10.11-.06.96.28,5.11.2,18.33-12.25,7.91-7.45,15.7-16.23,18.71-20.08,13.98-17.92,14.7-36.8,9.21-47.56-2.86-5.61-7.36-8.73-12.34-8.56-2.1.07-5.17.52-8.72,1.03-15.11,2.18-37.94,5.48-45.52-9.32-6.45-12.61-15.43-20.03-26.68-22.08-12.49-2.27-24.97,2.93-29.82,7.35h0Z"/><path class="uuid-85f620c5-c0cf-4ab7-9689-546e7c905a4b" d="M295.67,154.97c11.21-6.66,50.89-13.78,62.22,26.36,5.63,19.96,45.02,15.58,57.22,17.04,18.91,2.27,21.72,37.32-9.52,63.33-8.97,7.47-43.51,32.02-51.42,28.4-7.91-3.62-92.73,1.33-35.07-50.54,14.88-13.38-30.3-32.27-43.65-61.75-2.27-5.01,4.97-13.78,20.23-22.84Z"/><circle class="uuid-85f620c5-c0cf-4ab7-9689-546e7c905a4b" cx="421.09" cy="257.95" r="39.45" transform="translate(89.54 623.92) rotate(-79.32)"/><path class="uuid-85f620c5-c0cf-4ab7-9689-546e7c905a4b" d="M426.11,298.08c-13.11,0-26.01-6.26-33.94-17.88h0c-12.75-18.68-7.93-44.25,10.76-57.01,9.05-6.18,19.96-8.46,30.73-6.43,10.77,2.03,20.1,8.13,26.28,17.18,12.75,18.68,7.93,44.25-10.76,57.01-7.06,4.82-15.1,7.13-23.07,7.13ZM394.76,278.44c11.78,17.26,35.4,21.71,52.65,9.93,17.25-11.78,21.71-35.4,9.93-52.65-5.7-8.36-14.32-14-24.27-15.87-9.95-1.88-20.03.23-28.38,5.94-17.25,11.78-21.71,35.4-9.93,52.65h0Z"/><circle class="uuid-85f620c5-c0cf-4ab7-9689-546e7c905a4b" cx="371.19" cy="273.05" r="32.86" transform="translate(34.06 587.18) rotate(-79.32)"/><polygon class="uuid-1a630096-b795-4bb4-9eb2-a87588bd8041" points="286.68 232.46 253.49 216.17 277.4 186.67 304.79 208.87 286.68 232.46"/><path class="uuid-85f620c5-c0cf-4ab7-9689-546e7c905a4b" d="M286.68,234.03c-.23,0-.47-.05-.69-.16l-33.2-16.29c-.43-.21-.74-.6-.84-1.07-.1-.47.01-.95.31-1.32l23.91-29.5c.54-.67,1.53-.78,2.2-.23l27.39,22.2c.66.53.77,1.5.26,2.17l-18.1,23.6c-.3.4-.77.61-1.24.61ZM255.94,215.63l30.28,14.86,16.4-21.37-24.99-20.25-21.69,26.76Z"/><path class="uuid-85f620c5-c0cf-4ab7-9689-546e7c905a4b" d="M324.81,164.07s-21.93-.26-24.15-4.44c-2.22-4.18-6.11-16.06,1.26-20.39,7.37-4.33,7.49-.53,9.65,2.49,2.16,3.02,8.77-2.86,10.42-1.15,1.66,1.71,2.37,4.44,3.16,9.99.79,5.55-.34,13.51-.34,13.51Z"/><path class="uuid-1a630096-b795-4bb4-9eb2-a87588bd8041" d="M289.21,213.83c7.85,3.28,17.03,3.64,25.73.3,17.59-6.74,26.16-25.87,20.02-43.04-10.07-28.18-36.71-22.85-41.51-20.06-1.13.66-2.22,1.29-3.28,1.89-1.9.8-3.69,1.75-5.37,2.83-3.92,1.84-7.25,2.71-9.95,1.65-4.13-1.62-23.48,24.67-3.36,38.61l17.72,17.82Z"/><path class="uuid-85f620c5-c0cf-4ab7-9689-546e7c905a4b" d="M302.39,218.05c-4.7,0-9.37-.92-13.79-2.77-.8-.33-1.17-1.25-.84-2.05.33-.8,1.25-1.17,2.05-.84,7.81,3.26,16.53,3.36,24.57.28,16.66-6.39,25.05-24.42,19.11-41.05-3.56-9.96-9.55-16.54-17.82-19.56-9.67-3.53-19.22-.96-21.43.33-1.13.66-2.23,1.29-3.29,1.9-.05.03-.11.06-.16.08-1.8.76-3.52,1.67-5.13,2.71-.06.04-.12.07-.18.1-3.25,1.53-7.44,3.09-11.08,1.73-1.53.24-7.09,5.95-9.41,14.31-1.74,6.27-1.87,15.09,7.39,21.51.71.49.89,1.47.4,2.18-.49.71-1.47.89-2.18.39-3.91-2.71-15.89-13.02-5.83-31.86,2.43-4.55,7.28-10.82,10.66-9.5,1.98.77,4.64.29,8.62-1.57,1.71-1.09,3.53-2.06,5.43-2.86,1.03-.59,2.09-1.2,3.18-1.84,3.44-2.01,14.04-4.23,24.08-.56,9.18,3.35,15.81,10.57,19.7,21.44,6.52,18.25-2.67,38.03-20.93,45.03-4.26,1.63-8.7,2.45-13.11,2.45Z"/><path class="uuid-85f620c5-c0cf-4ab7-9689-546e7c905a4b" d="M343.15,170.57c-4.36-11.38-14.09-19.17-25.37-21.77,1.94,2.65,3.58,5.57,4.8,8.75,8.28,21.61-4.72,46.69-29.04,56.01-1.35.52-2.71.97-4.07,1.37,9.29,5.32,20.98,6.54,31.96,2.33,19.08-7.31,28.8-28.22,21.72-46.69Z"/><path class="uuid-85f620c5-c0cf-4ab7-9689-546e7c905a4b" d="M309.66,166.58c4.12-3.03,8.54,1.61,6.89-3.04-3.12-8.79.96-18,.96-18,18.62,8.78,15.09,44.73,15.09,44.73l-29.56,26.92-8.36,4.98-7.09-7.15c-2.35-2.37-2.89-6-1.32-8.95l8.21-15.41c.05.17.1.34.17.52,1.56,4.07,6.12,6.1,10.19,4.54,4.07-1.56,6.1-6.12,4.54-10.19-1.56-4.07-6.12-6.1-10.19-4.54-.02,0-.04.02-.07.03-.56-.99-1.7-3.45.23-4.4,2.44-1.2,6.17-6.99,10.29-10.02Z"/><path class="uuid-85f620c5-c0cf-4ab7-9689-546e7c905a4b" d="M271.97,175.01c-1.23,0-2.68-.26-4.04-1.18-.72-.48-.91-1.46-.42-2.17.48-.72,1.46-.91,2.18-.42,1.77,1.19,4.04.38,4.06.37.81-.3,1.71.11,2.01.92.3.81-.1,1.7-.9,2.01-.09.03-1.29.48-2.88.48Z"/><path class="uuid-85f620c5-c0cf-4ab7-9689-546e7c905a4b" d="M299.47,187.45c-.55,0-1.08-.29-1.37-.8-.42-.75-.16-1.7.59-2.12.14-.08,3.53-1.97,6.95-.36.78.37,1.12,1.3.75,2.09-.37.78-1.3,1.12-2.09.75-1.93-.91-4.05.24-4.07.25-.24.13-.5.2-.76.2Z"/><path class="uuid-85f620c5-c0cf-4ab7-9689-546e7c905a4b" d="M296.73,163.78c-.43,0-.86-.17-1.16-.52-.58-.64-.53-1.63.12-2.21.44-.4.93-1.82.69-3.44-.17-1.11-.72-2.6-2.4-3.38-.78-.36-1.12-1.3-.76-2.08.36-.78,1.29-1.12,2.08-.76,2.3,1.07,3.78,3.11,4.18,5.76.37,2.45-.33,5.01-1.69,6.24-.3.27-.67.4-1.05.4Z"/><path class="uuid-85f620c5-c0cf-4ab7-9689-546e7c905a4b" d="M287.7,161.66c-.99.25-1.94-.12-2.12-.83-.18-.71.47-1.49,1.46-1.75.99-.25,1.94.12,2.12.83.18.71-.47,1.49-1.46,1.75Z"/><path class="uuid-85f620c5-c0cf-4ab7-9689-546e7c905a4b" d="M271.02,194.57l-7.65,9.44c5.34,1.64,11.24,1.58,16.86-.57,2.25-.86,4.3-2.01,6.14-3.37-5.59-.13-10.98-2.09-15.35-5.5Z"/><polygon class="uuid-85f620c5-c0cf-4ab7-9689-546e7c905a4b" points="246.18 218.32 259.27 202.83 295.75 226.26 281.34 263.71 246.18 218.32"/><path class="uuid-1a630096-b795-4bb4-9eb2-a87588bd8041" d="M90.4,229.81l-23.53-21.32.06-.36c1.49-8.75-.25-17.75-4.88-25.32l-6.48-10.59c-1.32-2.15-4.52-1.89-5.47.45l-.14.33c-.85,2.09-1.02,4.39-.49,6.58l2.63,10.84-3.98.35-14.87-13.36-3.73-10.97c-.66-1.94-2.13-3.5-4.03-4.27l-.43-.18c-1.59-.65-3.3.59-3.19,2.3l.42,6.03-2.23-1.68c-1.77-1.33-4.27.11-4,2.31l.97,7.86-2.36-1.45c-1.87-1.15-4.17.62-3.54,2.72l2.18,7.26-2.39-1.88c-1.25-.98-2.84-1.41-4.41-1.21-2.05.27-3.81,1.59-4.63,3.48l-.29.67,37.65,36.05,23.34,27.23,27.84-21.91Z"/><path class="uuid-85f620c5-c0cf-4ab7-9689-546e7c905a4b" d="M62.56,253.28c-.44,0-.88-.19-1.19-.55l-23.34-27.23L.48,189.57c-.47-.45-.61-1.16-.35-1.76l.29-.67c1.04-2.38,3.29-4.07,5.87-4.41,1.42-.19,2.88.05,4.18.66l-.85-2.83c-.48-1.59.07-3.26,1.38-4.27,1.19-.91,2.74-1.07,4.07-.45l-.57-4.66c-.2-1.65.56-3.2,2.01-4.03,1.27-.73,2.75-.74,3.98-.06l-.18-2.66c-.09-1.35.5-2.62,1.6-3.41,1.1-.79,2.5-.96,3.74-.45l.43.18c2.32.95,4.11,2.85,4.92,5.22l3.6,10.58,14.06,12.63,1.49-.13-2.2-9.07c-.61-2.52-.42-5.13.56-7.54l.14-.34c.66-1.63,2.17-2.74,3.92-2.88,1.75-.14,3.42.7,4.34,2.21l6.48,10.59c4.75,7.76,6.57,16.94,5.17,25.91l22.9,20.74c.64.58.69,1.57.11,2.21-.58.64-1.57.69-2.21.11l-23.53-21.32c-.4-.36-.58-.9-.49-1.42l.06-.36c1.42-8.38-.24-16.99-4.67-24.24l-6.48-10.59c-.3-.5-.82-.76-1.41-.72-.58.05-1.06.4-1.28.94l-.14.34c-.73,1.8-.87,3.74-.42,5.62l2.63,10.84c.11.44.02.91-.25,1.28-.27.37-.68.61-1.13.65l-3.98.35c-.43.04-.86-.1-1.19-.39l-14.87-13.36c-.2-.18-.35-.41-.44-.66l-3.73-10.97c-.52-1.51-1.66-2.72-3.14-3.33l-.43-.18c-.34-.14-.6,0-.72.09-.13.09-.33.3-.31.66l.42,6.03c.04.61-.28,1.19-.82,1.48-.54.29-1.2.24-1.69-.13l-2.23-1.68c-.45-.34-.88-.16-1.04-.06-.16.09-.53.37-.46.93l.97,7.86c.07.6-.2,1.18-.71,1.51-.51.33-1.16.33-1.67.02l-2.36-1.45c-.44-.27-.8-.06-.93.05-.14.1-.43.4-.29.89l2.18,7.26c.2.65-.05,1.36-.62,1.74-.57.38-1.31.36-1.85-.06l-2.39-1.88c-.91-.71-2.08-1.04-3.24-.89-1.38.18-2.59,1.03-3.25,2.24l36.85,35.28,23.44,27.34c.56.66.49,1.65-.17,2.21-.3.25-.66.38-1.02.38Z"/><polygon class="uuid-1a630096-b795-4bb4-9eb2-a87588bd8041" points="30.02 190.17 25.28 184.61 22.28 170.34 30.02 190.17"/><path class="uuid-85f620c5-c0cf-4ab7-9689-546e7c905a4b" d="M30.02,191.73c-.44,0-.88-.19-1.19-.55l-4.74-5.55c-.17-.2-.29-.44-.34-.69l-3-14.28c-.18-.85.36-1.68,1.21-1.85.84-.18,1.68.36,1.86,1.21l2.92,13.88,4.48,5.25c.56.66.48,1.65-.17,2.21-.3.25-.66.37-1.02.37Z"/><path class="uuid-1a630096-b795-4bb4-9eb2-a87588bd8041" d="M17.02,178.84l4.66,15.71-4.66-15.71Z"/><path class="uuid-85f620c5-c0cf-4ab7-9689-546e7c905a4b" d="M21.68,196.11c-.68,0-1.3-.44-1.5-1.12l-4.66-15.71c-.25-.83.23-1.7,1.06-1.95.83-.25,1.7.23,1.95,1.06l4.66,15.71c.25.83-.23,1.7-1.06,1.95-.15.04-.3.07-.45.07Z"/><path class="uuid-1a630096-b795-4bb4-9eb2-a87588bd8041" d="M13.29,187.37l3.71,11.93-3.71-11.93Z"/><path class="uuid-85f620c5-c0cf-4ab7-9689-546e7c905a4b" d="M17.01,200.87c-.67,0-1.29-.43-1.5-1.1l-3.71-11.93c-.26-.83.21-1.7,1.03-1.96.83-.26,1.7.2,1.96,1.03l3.71,11.93c.26.83-.21,1.7-1.03,1.96-.15.05-.31.07-.47.07Z"/><path class="uuid-85f620c5-c0cf-4ab7-9689-546e7c905a4b" d="M244.78,275.39c20.1-8.39,32.63-16.75,33.44-17.3l-14.54-21.53-14.46-21.58c-3.84,2.55-94.89,61.67-173.19-7.29l-34.34,38.98c45.16,39.78,100.63,54.3,160.4,41.98,16.29-3.36,30.8-8.31,42.67-13.27Z"/><path class="uuid-1a630096-b795-4bb4-9eb2-a87588bd8041" d="M183.59,295.32l-.57-3.08c24.7-4.53,58.07-18.43,58.4-18.56l1.21,2.89c-.34.14-34.02,14.16-59.05,18.76Z"/><circle class="uuid-67daf96b-8e87-48a9-afb0-fc3879b93968" cx="384.11" cy="83.86" r="39.91"/><polygon class="uuid-85f620c5-c0cf-4ab7-9689-546e7c905a4b" points="375.48 101.02 364.78 90.33 367 88.11 375.46 96.58 402.14 69.53 404.37 71.73 375.48 101.02"/><path class="uuid-85f620c5-c0cf-4ab7-9689-546e7c905a4b" d="M289.98,44.25l-1.68-2.65s.5-.32,1.45-.83l1.49,2.76c-.8.43-1.23.7-1.26.72Z"/><path class="uuid-85f620c5-c0cf-4ab7-9689-546e7c905a4b" d="M343.61,47.77c-.82-.67-1.64-1.3-2.47-1.89l1.83-2.54c.87.63,1.75,1.3,2.61,2.01l-1.98,2.43ZM338.57,44.14c-.88-.55-1.78-1.08-2.68-1.56l1.49-2.76c.96.52,1.92,1.08,2.86,1.67l-1.67,2.65ZM294.02,42.16l-1.3-2.85c.89-.41,1.91-.84,3.04-1.28l1.13,2.92c-1.07.41-2.03.82-2.87,1.2ZM333.12,41.21c-.95-.43-1.91-.82-2.86-1.17l1.09-2.94c1.02.38,2.05.8,3.07,1.26l-1.29,2.86ZM299.83,39.91l-.96-2.98c1-.32,2.06-.63,3.16-.92l.79,3.03c-1.05.27-2.05.57-2.99.87ZM327.32,39.07c-.99-.28-1.99-.54-3-.75l.65-3.07c1.08.23,2.16.5,3.22.8l-.87,3.01ZM305.85,38.35l-.61-3.07c1.05-.21,2.14-.39,3.26-.54l.42,3.1c-1.05.14-2.08.32-3.07.51ZM321.28,37.79c-1.01-.14-2.05-.24-3.08-.31l.2-3.13c1.1.07,2.21.18,3.3.33l-.43,3.1ZM312.01,37.51l-.22-3.13c1.11-.08,2.22-.12,3.31-.13l.02,3.13c-1.02,0-2.06.05-3.1.12Z"/><path class="uuid-85f620c5-c0cf-4ab7-9689-546e7c905a4b" d="M347.11,50.88c-.37-.36-.74-.7-1.11-1.04l2.11-2.31c.39.36.78.73,1.17,1.1l-2.18,2.25Z"/></svg>