<?xml version="1.0" encoding="UTF-8"?><svg id="uuid-f47d92ce-df54-41ff-9429-4114d4fdc8b8" xmlns="http://www.w3.org/2000/svg" viewBox="0 0 794.38 617.14"><defs><style>.uuid-b3693cd6-cee2-47eb-afac-0b2777d6381d{fill:#0e74bb;}.uuid-a72b28ae-8a46-4e77-b3ce-455f92f6cb47{fill:#fff;}.uuid-3d95452d-d37a-42ac-8149-c251b42025f3{fill:#080717;}</style></defs><circle class="uuid-b3693cd6-cee2-47eb-afac-0b2777d6381d" cx="173.36" cy="443.78" r="173.36"/><circle class="uuid-b3693cd6-cee2-47eb-afac-0b2777d6381d" cx="494.23" cy="172.8" r="172.8" transform="translate(22.57 400.08) rotate(-45)"/><path class="uuid-3d95452d-d37a-42ac-8149-c251b42025f3" d="M239.79,495.73c-12.75-22.36-40.54-31.18-63.85-20.27l-112.48,52.65c-10.92,5.11-19.97,12.99-26.53,22.55,31.74,40.46,81.03,66.48,136.44,66.48,42.5,0,81.41-15.32,111.56-40.7l-45.14-80.71Z"/><circle class="uuid-3d95452d-d37a-42ac-8149-c251b42025f3" cx="532.25" cy="164.89" r="77.25" transform="translate(175.69 593.08) rotate(-67.43)"/><path class="uuid-b3693cd6-cee2-47eb-afac-0b2777d6381d" d="M644.75,257.64l-76.03-71.98-85.02,32.36c-24.67,9.39-28.01,95.34-21.35,124.59,10.34,1.93,20.98,2.99,31.88,2.99,64.59,0,120.87-35.47,150.52-87.96Z"/><path class="uuid-3d95452d-d37a-42ac-8149-c251b42025f3" d="M540.48,241.87c-22.04,0-43.98-9.06-59.71-26.81-14.13-15.94-21.2-36.42-19.92-57.68,1.28-21.26,10.76-40.75,26.7-54.88,15.94-14.13,36.46-21.18,57.68-19.92,21.26,1.28,40.75,10.76,54.87,26.7,8.87,10,15.12,22.14,18.07,35.09.31,1.34-.53,2.68-1.87,2.98-1.33.31-2.67-.53-2.98-1.87-2.77-12.14-8.63-23.52-16.94-32.9-27.35-30.85-74.68-33.69-105.53-6.36-30.85,27.34-33.7,74.69-6.36,105.53,27.34,30.84,74.68,33.7,105.53,6.36,1.03-.91,2.6-.82,3.51.21.91,1.03.82,2.6-.21,3.51-15.15,13.43-34.03,20.03-52.84,20.03Z"/><path class="uuid-3d95452d-d37a-42ac-8149-c251b42025f3" d="M419.73,70.45c-26.64,8.8-45.22,36.49-41.94,47.05-6.74.07-13.83,2.26-20.11,6.72-14.67,10.41-19.4,29.17-10.57,41.89,7.65,11.02,22.97,13.88,36.47,7.68,3.59,9.13,8.41,18.24,14.49,26.99,24.25,34.9,82.46-2.25,93.03-9.76,28.61-20.31,34.06-62.33,12.16-93.86-21.9-31.52-51.37-37.33-83.54-26.7Z"/><polygon class="uuid-a72b28ae-8a46-4e77-b3ce-455f92f6cb47" points="507.82 241.16 470.08 222.65 485.6 158.93 520.45 187.83 507.82 241.16"/><path class="uuid-3d95452d-d37a-42ac-8149-c251b42025f3" d="M507.82,243.65c-.37,0-.75-.09-1.1-.26l-37.73-18.51c-1.05-.51-1.6-1.69-1.32-2.82l15.52-63.72c.2-.83.82-1.5,1.64-1.77.81-.27,1.71-.1,2.37.45l34.84,28.9c.73.6,1.05,1.57.83,2.49l-12.63,53.33c-.17.74-.67,1.35-1.36,1.68-.34.16-.7.24-1.06.24ZM472.97,221.29l33.14,16.26,11.55-48.79-30.59-25.37-14.1,57.91Z"/><path class="uuid-3d95452d-d37a-42ac-8149-c251b42025f3" d="M493.1,234.15c13.32-32.59-6.76-71.55-6.76-71.55l-1.68.23-14.57,59.82s21.82,10.88,23.02,11.5Z"/><path class="uuid-3d95452d-d37a-42ac-8149-c251b42025f3" d="M420.44,86.28c-5.71,6.13-9.01,12.95-8.99,19.81.05,19.37,30.42,42.99,59.68,29.67,1.82-.83,3.24-2.59,5.18-2.95-12.65-26.27-34.28-43.36-55.86-46.53Z"/><path class="uuid-3d95452d-d37a-42ac-8149-c251b42025f3" d="M370.28,160.14c13.28-1.98,28.46-8.63,42.46-19.52,23.54-18.31,36.29-42.81,32.63-59.79-15.8-7.7-32.58-8.79-47.05-1.48-24.73,12.49-35.21,45.72-28.04,80.8Z"/><path class="uuid-a72b28ae-8a46-4e77-b3ce-455f92f6cb47" d="M499.43,132.14c7.45,9.58,5.72,23.38-3.85,30.82-9.58,7.45-23.38,5.72-30.82-3.85-7.45-9.58-5.72-23.38,3.85-30.82,9.58-7.45,23.38-5.72,30.82,3.85Z"/><path class="uuid-a72b28ae-8a46-4e77-b3ce-455f92f6cb47" d="M468.61,128.28c-3.63,2.82-6.12,6.56-7.43,10.63-13.68,2.58-26.82-1.98-36.16-9.39-3.67,3.86-7.78,7.59-12.28,11.09-13.72,10.67-28.56,17.26-41.65,19.39,1.83,7.89,4.63,15.93,8.47,23.86,18.84,38.88,55.19,60.18,81.18,47.59,19.47-9.44,27.61-35.22,22.55-63.9,4.32-.23,8.61-1.73,12.28-4.58,9.58-7.45,11.3-21.25,3.85-30.82-7.45-9.58-21.25-11.3-30.82-3.85Z"/><path class="uuid-3d95452d-d37a-42ac-8149-c251b42025f3" d="M444.52,237.58c-9.06,0-18.71-2.85-28.31-8.48-15.75-9.23-29.56-24.92-38.89-44.16-3.82-7.87-6.73-16.08-8.66-24.39-.16-.67-.02-1.38.36-1.95.38-.57.99-.96,1.67-1.07,13.23-2.15,27.62-8.86,40.52-18.89,4.3-3.35,8.35-7,12.01-10.85.89-.93,2.34-1.03,3.35-.23,9.53,7.57,21.38,10.85,32.75,9.13,1.6-4.1,4.26-7.67,7.75-10.38h0c5.15-4.01,11.56-5.78,18.05-4.97,6.48.81,12.26,4.1,16.27,9.25,8.28,10.64,6.35,26.04-4.29,34.32-3.22,2.5-6.95,4.14-10.93,4.8,4.46,29.63-4.96,54.56-24.34,63.96-5.37,2.6-11.21,3.9-17.31,3.9ZM374.13,161.97c1.83,7.08,4.4,14.07,7.66,20.8,8.9,18.37,22.01,33.3,36.93,42.04,14.59,8.55,29.13,10.12,40.93,4.4,17.9-8.67,26.22-32.71,21.19-61.23-.12-.7.06-1.42.5-1.98.44-.56,1.1-.9,1.82-.94,3.98-.21,7.75-1.62,10.89-4.06,8.48-6.59,10.01-18.86,3.42-27.33-3.19-4.11-7.8-6.72-12.96-7.37-5.17-.66-10.27.76-14.37,3.95h0c-3.11,2.42-5.38,5.68-6.58,9.42-.28.87-1.01,1.52-1.91,1.69-12.5,2.36-25.63-.75-36.37-8.53-3.41,3.44-7.11,6.71-11.01,9.74-12.7,9.88-26.84,16.7-40.13,19.4ZM468.61,128.29h.02-.02Z"/><path class="uuid-3d95452d-d37a-42ac-8149-c251b42025f3" d="M379.23,192.03c-.4,0-.81-.1-1.18-.3-1.21-.65-1.66-2.17-1-3.37,3.76-6.94,10.58-10.68,10.87-10.83,1.21-.66,2.72-.2,3.37,1.01.65,1.21.2,2.71-1,3.37-.09.05-5.83,3.24-8.86,8.83-.45.83-1.31,1.3-2.19,1.3Z"/><path class="uuid-3d95452d-d37a-42ac-8149-c251b42025f3" d="M415.37,164.18c-.52,0-1.04-.16-1.49-.49-1.1-.82-1.33-2.38-.51-3.48,7.32-9.82,21.1-8.66,21.7-8.62,1.37.13,2.37,1.34,2.25,2.71-.13,1.37-1.36,2.38-2.7,2.25h0c-.13,0-11.61-.93-17.25,6.63-.49.66-1.24,1-2,1Z"/><path class="uuid-3d95452d-d37a-42ac-8149-c251b42025f3" d="M416.37,199.33c-.64,0-1.27-.08-1.88-.27-1.31-.4-3.05-1.45-3.92-4.14-1.55-4.79-8.51-18.91-8.58-19.06-.61-1.23-.1-2.72,1.13-3.33,1.23-.61,2.73-.1,3.33,1.13.29.59,7.2,14.6,8.85,19.73.26.79.54.88.65.91,1.14.35,4-.99,5.84-2.41,1.08-.84,2.65-.64,3.49.44.84,1.09.65,2.65-.44,3.49-.85.66-4.73,3.51-8.48,3.51Z"/><path class="uuid-3d95452d-d37a-42ac-8149-c251b42025f3" d="M430.59,215.77c-.9,0-1.74-.49-2.19-1.3-.51-.93-.37-2.08.35-2.86l18.89-20.78c.61-.67,1.53-.96,2.41-.75.88.2,1.58.87,1.83,1.73l.3,1.05c1.35,4.69.63,9.75-1.97,13.88-2.61,4.13-6.87,6.96-11.69,7.75l-7.52,1.24c-.13.02-.27.03-.4.03ZM447.86,197.99l-10.62,11.68.46-.08c3.42-.56,6.44-2.57,8.29-5.5,1.17-1.85,1.8-3.96,1.87-6.11Z"/><path class="uuid-3d95452d-d37a-42ac-8149-c251b42025f3" d="M422.81,183.54c-1.38,0-2.49-1.11-2.49-2.49s1.11-2.48,2.48-2.49c.39,0,8.49-.24,12.42-9.09.56-1.26,2.03-1.82,3.29-1.26,1.26.56,1.82,2.03,1.26,3.29-5.29,11.91-16.48,12.05-16.96,12.05Z"/><path class="uuid-3d95452d-d37a-42ac-8149-c251b42025f3" d="M387.85,208.49c-1.01,0-2.06-.11-3.15-.34-1.34-.28-2.21-1.6-1.92-2.95.28-1.34,1.61-2.21,2.95-1.92,8.96,1.9,13.44-8.63,13.63-9.08.53-1.27,1.97-1.87,3.25-1.35,1.27.52,1.88,1.97,1.36,3.24-1.88,4.6-7.47,12.4-16.11,12.4Z"/><path class="uuid-a72b28ae-8a46-4e77-b3ce-455f92f6cb47" d="M453.76,340.12l10.17.91-5.96-7.34c-2.3-2.84-5.55-4.75-9.14-5.38h0c-3.2-.56-4.96.44-7.66,4.13l-13.29,19.58,4.75,1.32c3.39.94,7.02.04,9.58-2.36l11.54-10.85Z"/><path class="uuid-3d95452d-d37a-42ac-8149-c251b42025f3" d="M435.3,356.18c-1.11,0-2.23-.15-3.32-.45l-4.75-1.32c-.77-.22-1.4-.79-1.67-1.54-.28-.75-.17-1.59.28-2.26l13.29-19.58c2.87-3.94,5.42-6.03,10.15-5.18,4.19.74,7.97,2.96,10.64,6.26l5.96,7.34c.63.78.73,1.85.26,2.74-.47.88-1.39,1.42-2.42,1.31l-9.06-.81-10.73,10.08c-2.35,2.21-5.46,3.4-8.63,3.4ZM431.89,350.54l1.41.39c2.53.71,5.3.02,7.21-1.78l11.54-10.85c.52-.49,1.21-.74,1.93-.67l4.31.38-2.25-2.77c-1.93-2.37-4.64-3.97-7.64-4.5-1.75-.31-2.7-.3-5.21,3.15l-11.3,16.64Z"/><path class="uuid-a72b28ae-8a46-4e77-b3ce-455f92f6cb47" d="M467.14,341.31l10.17.91-5.96-7.34c-2.3-2.84-5.55-4.75-9.14-5.38h0c-3.2-.56-6.37,1.14-7.66,4.13l-11.39,25.41,6.67.94c3.45.49,6.86-1.1,8.72-4.05l8.59-14.61Z"/><path class="uuid-3d95452d-d37a-42ac-8149-c251b42025f3" d="M451.06,362.55c-.52,0-1.05-.03-1.57-.11l-6.67-.94c-.78-.11-1.45-.58-1.83-1.26-.38-.69-.41-1.51-.09-2.22l11.38-25.41c1.74-4.03,5.99-6.33,10.36-5.56,4.19.74,7.97,2.96,10.64,6.26l5.96,7.34c.63.78.73,1.85.26,2.74s-1.39,1.41-2.42,1.31l-8.6-.77-7.79,13.26c-2.12,3.38-5.78,5.36-9.64,5.36ZM446.79,357.03l3.39.48c2.48.35,4.93-.79,6.26-2.91l8.55-14.55c.49-.83,1.41-1.31,2.37-1.22l4.31.38-2.25-2.77c-1.92-2.37-4.64-3.97-7.64-4.5-2.06-.36-4.11.73-4.94,2.67l-10.05,22.42Z"/><path class="uuid-a72b28ae-8a46-4e77-b3ce-455f92f6cb47" d="M480.52,342.51l10.17.91-5.96-7.34c-2.3-2.84-5.55-4.75-9.14-5.38h0c-3.2-.56-6.37,1.14-7.66,4.13l-10.32,23.26,6.67.94c3.45.49,6.86-1.1,8.72-4.05l7.52-12.46Z"/><path class="uuid-3d95452d-d37a-42ac-8149-c251b42025f3" d="M465.51,361.59c-.52,0-1.05-.04-1.58-.11l-6.67-.94c-.77-.11-1.45-.57-1.83-1.26-.38-.68-.42-1.5-.1-2.22l10.32-23.26c1.74-4.04,5.99-6.35,10.36-5.57,4.19.74,7.97,2.96,10.64,6.26l5.96,7.34c.63.78.73,1.85.26,2.74s-1.38,1.42-2.42,1.31l-8.62-.77-6.71,11.13c-2.11,3.36-5.76,5.34-9.62,5.34ZM461.23,356.07l3.4.48c2.48.34,4.93-.79,6.26-2.91l7.49-12.42c.49-.81,1.37-1.3,2.35-1.19l4.31.38-2.25-2.77c-1.93-2.37-4.64-3.97-7.64-4.5-2.07-.35-4.1.73-4.94,2.66l-8.99,20.27Z"/><path class="uuid-a72b28ae-8a46-4e77-b3ce-455f92f6cb47" d="M493.23,343.64l10.17.91-5.96-7.34c-2.3-2.84-5.55-4.75-9.14-5.38h0c-3.2-.56-6.37,1.14-7.66,4.13l-8.71,20.2,6.67.94c3.45.49,6.86-1.1,8.72-4.05l5.91-9.41Z"/><path class="uuid-3d95452d-d37a-42ac-8149-c251b42025f3" d="M479.84,359.67c-.53,0-1.06-.04-1.58-.11l-6.66-.94c-.77-.11-1.44-.57-1.82-1.25-.38-.68-.42-1.49-.11-2.2l8.71-20.2c1.75-4.06,6-6.36,10.37-5.6,4.19.74,7.97,2.96,10.65,6.26l5.96,7.34c.63.78.73,1.85.26,2.74-.47.88-1.39,1.42-2.42,1.31l-8.65-.77-5.1,8.12c-2.09,3.32-5.74,5.3-9.59,5.3ZM475.51,354.14l3.44.49c2.46.34,4.93-.79,6.26-2.91l5.91-9.41c.5-.79,1.37-1.24,2.33-1.15l4.31.38-2.25-2.77c-1.93-2.37-4.64-3.97-7.65-4.5-2.08-.35-4.1.73-4.94,2.66l-7.42,17.21Z"/><path class="uuid-a72b28ae-8a46-4e77-b3ce-455f92f6cb47" d="M504.95,243.33l9.61-52.02c10.18-22.22,34.2-34.64,58.22-30.09,57.59,10.92,155.97,29.61,158.75,30.42l35.06,7.31c35.09,7.32,33.13,58.07-2.42,62.67l-128.49,15c-1.87,1.21-17.06,9.7-28.75,5.09l-101.97-38.38Z"/><path d="M614.65,285.57c-2.9,0-5.84-.44-8.64-1.54-1.28-.51-1.91-1.95-1.4-3.23.51-1.28,1.95-1.9,3.23-1.4,9.78,3.87,23.38-2.85,26.49-4.86.32-.21.68-.34,1.06-.38l128.49-15c16.95-2.19,25.03-15.61,25.5-27.94.48-12.33-6.54-26.33-23.3-29.82l-35.06-7.31c-2.62-.7-60.4-11.77-158.71-30.41-22.84-4.33-45.56,7.34-55.36,28.4l-9.55,51.72c-.25,1.35-1.55,2.25-2.9,2-1.35-.25-2.25-1.55-2-2.9l9.61-52.02c.04-.2.1-.4.18-.58,10.68-23.32,35.74-36.28,60.95-31.5,103.31,19.59,156.8,29.84,158.99,30.48l34.87,7.27c19.6,4.09,27.82,20.47,27.26,34.89-.56,14.42-10.01,30.12-29.87,32.68l-127.99,14.95c-2.33,1.35-11.89,6.54-21.85,6.54Z"/><path class="uuid-b3693cd6-cee2-47eb-afac-0b2777d6381d" d="M609.69,282.92l-103.79-38.03,9.61-52.02c10.18-22.22,34.2-34.64,58.22-30.09,20.98,3.98,47.38,8.99,72.6,13.79-22.2,28.17-32.62,65.55-36.63,106.35Z"/><path class="uuid-a72b28ae-8a46-4e77-b3ce-455f92f6cb47" d="M522.07,206.61c.32-.38.78-.58,1.28-.54l37.27,2.8c.06,0,.11.04.17.05l6.05-3.8c.06-.04.12-.04.18-.07.11-.05.21-.1.33-.13.11-.02.21-.01.32-.01.08,0,.15-.02.23,0l26.18,4.32c11.22,1.85,21.29,7.78,28.36,16.68l10.23,12.89,97.57-32.86c.44-.15.93-.09,1.32.17.39.26.64.68.68,1.14l6.35,53.72c.07.82-103.5,13.17-103.5,13.17-6.07,4.25-12.09,10.38-19.27,10.38-5.14,0-10.29-1.11-15.1-3.36l-42.86-20.1c-.4-.19-.7-.55-.82-.98-.12-.43-.04-.89.21-1.26l2.14-3.14c2.14-3.13,5.8-4.87,9.59-4.54l18.41,1.6-14.69-16.35c-.28-.31-.4-.7-.39-1.08-1.48-.89-2.47-1.72-2.57-1.8-.13-.11-.21-.25-.29-.39-1.24.65-2.62,1.39-4.05,2.19-2.55,1.43-4.95,2.15-7.17,2.15-1.04,0-2.04-.16-3-.48-3.11-1.04-4.77-3.45-5.37-4.52-1.97,1.32-4.05,1.84-6.08,1.84-6.11,0-11.72-4.52-12.03-4.78-.38-.31-.59-.79-.56-1.27s.3-.93.71-1.19l7.86-4.93c-4.01-.88-10.51-2.5-12.72-4.18-3.23-2.45-5.07-9.19-5.27-9.95-.12-.48-.01-.98.3-1.36Z"/><path d="M543.23,223.76c-.15,0-.31-.01-.47-.04-2.16-.41-13.11-2.59-16.32-5.02-3.42-2.59-5.28-9.19-5.62-10.48-.2-.78-.02-1.61.5-2.22.52-.62,1.29-.96,2.1-.89l37.27,2.8c1.37.1,2.4,1.3,2.29,2.67-.1,1.37-1.32,2.38-2.67,2.29l-33.53-2.52c.76,1.87,1.73,3.67,2.66,4.38,1.68,1.28,9.34,3.17,14.24,4.1,1.35.26,2.24,1.56,1.98,2.91-.23,1.19-1.27,2.02-2.44,2.02Z"/><path d="M543.79,235.25c-6.47,0-12.34-4.72-12.67-4.99-.62-.51-.96-1.28-.91-2.08.05-.8.48-1.53,1.16-1.95l34.94-21.93c1.16-.73,2.7-.38,3.43.79.73,1.16.38,2.7-.79,3.43l-31.64,19.86c2.83,1.51,7.09,3,10.4.69,7.06-4.93,34.12-20.67,35.27-21.33,1.18-.69,2.71-.29,3.4.9.69,1.19.29,2.71-.9,3.4-.28.16-28.02,16.3-34.91,21.11-2.2,1.54-4.53,2.11-6.79,2.11Z"/><path d="M558.23,238.41c-1.14,0-2.25-.18-3.31-.53-4.28-1.42-6.04-5.15-6.22-5.57-.56-1.26,0-2.73,1.27-3.28,1.26-.56,2.73,0,3.28,1.27h0s1.03,2.15,3.29,2.88c1.87.59,4.19.13,6.89-1.38,4.9-2.74,9.17-4.76,9.35-4.84,1.24-.59,2.72-.05,3.31,1.19.58,1.24.05,2.73-1.19,3.31-.04.02-4.3,2.03-9.03,4.68-2.7,1.51-5.25,2.28-7.63,2.28Z"/><path d="M614.59,255.13c-.58,0-1.15-.2-1.62-.6-8.82-7.58-11.15-17.81-11.74-21.79l-6.5-2.34c-2.62,1.93-9.01,6.46-12.94,7.75-5.64,1.85-11.97-3.32-12.67-3.92-.55-.47-.88-1.16-.88-1.89,0-.73.32-1.42.87-1.9l18.13-15.57c1.04-.89,2.61-.78,3.51.27.89,1.04.78,2.61-.27,3.51l-15.68,13.47c1.71.97,3.87,1.82,5.43,1.3,3.35-1.1,10.21-6,12.57-7.79.67-.51,1.56-.65,2.35-.36l9.21,3.32c.94.34,1.58,1.2,1.64,2.19,0,.11.9,11.99,10.21,19.98,1.04.9,1.16,2.47.27,3.51-.49.57-1.19.87-1.89.87Z"/><path d="M615.82,285.49c-5.28,0-10.57-1.14-15.51-3.45l-42.86-20.1c-.66-.31-1.15-.89-1.34-1.6-.19-.7-.07-1.46.35-2.06l2.14-3.14c2.33-3.42,6.34-5.33,10.47-4.96l15.97,1.39-13.06-14.53c-.92-1.02-.83-2.6.19-3.51,1.02-.92,2.59-.84,3.51.19l17.27,19.22c.68.76.83,1.86.37,2.77-.45.91-1.4,1.48-2.44,1.37l-22.25-1.93c-2.29-.18-4.61.87-5.93,2.81l-.5.72,40.22,18.86c10.34,4.85,22.52,3.73,31.8-2.93,1.12-.8,2.67-.55,3.47.57.8,1.12.54,2.67-.57,3.47-6.31,4.53-13.79,6.84-21.31,6.84Z"/><path d="M632.14,243.07c-.75,0-1.47-.34-1.95-.94l-10.89-13.73c-6.45-8.13-15.63-13.53-25.87-15.22l-26.18-4.32c-1.36-.22-2.27-1.5-2.05-2.86.22-1.35,1.49-2.3,2.86-2.05l26.18,4.32c11.46,1.89,21.74,7.94,28.96,17.04l9.81,12.36,96.93-32.65c1.31-.45,2.72.26,3.15,1.56.44,1.3-.26,2.71-1.56,3.15l-98.59,33.21c-.26.09-.53.13-.79.13Z"/><path class="uuid-a72b28ae-8a46-4e77-b3ce-455f92f6cb47" d="M238.38,602l.32-84.95-2.27-42.84c-1.02-19.31,5.56-38.25,18.33-52.77l36.57-41.57c3.24-3.68,8.38-5.03,13-3.42h0c7.12,2.48,10.24,10.82,6.49,17.36l-19.22,33.57,51.69,14.12,60.4-23.8c5.58-2.2,11.94-.04,15.02,5.11h0c1.9,3.18.78,7.29-2.47,9.07l-108.3,59.17,2.71,56.25h0c-14.84,24.32-37.68,42.71-64.6,52.04l-7.7,2.67Z"/><path class="uuid-3d95452d-d37a-42ac-8149-c251b42025f3" d="M238.38,604.49c-.51,0-1.02-.16-1.45-.46-.66-.47-1.05-1.23-1.04-2.03l.32-84.95-2.27-42.7c-1.06-20.08,5.67-39.45,18.95-54.55l36.57-41.57c3.92-4.46,10.07-6.08,15.69-4.13,4.1,1.42,7.32,4.57,8.84,8.63,1.52,4.06,1.16,8.55-1,12.32l-17.62,30.78,47.79,13.05,59.63-23.5c6.75-2.65,14.34-.07,18.07,6.15,1.27,2.12,1.61,4.61.96,6.99-.65,2.39-2.2,4.35-4.38,5.54l-106.93,58.42,2.64,54.69c.02.5-.1.99-.36,1.41-15.11,24.75-38.51,43.61-65.91,53.1l-7.7,2.67c-.27.09-.54.14-.81.14ZM300.36,378.26c-2.69,0-5.31,1.14-7.16,3.25l-36.57,41.57c-12.42,14.11-18.71,32.22-17.71,51l2.27,42.84-.31,81.58,4.38-1.52c26.07-9.03,48.37-26.89,62.89-50.34l-2.68-55.48c-.05-.95.46-1.85,1.29-2.3l108.3-59.17c.97-.53,1.67-1.41,1.96-2.48.29-1.07.14-2.18-.43-3.13-2.47-4.12-7.51-5.84-11.97-4.07l-60.4,23.8c-.5.19-1.05.23-1.57.09l-51.69-14.11c-.74-.2-1.35-.74-1.64-1.45-.29-.71-.24-1.52.14-2.19l19.22-33.57c1.42-2.47,1.66-5.43.66-8.1-1-2.67-3.12-4.74-5.81-5.68-1.04-.36-2.1-.53-3.16-.53Z"/><path class="uuid-a72b28ae-8a46-4e77-b3ce-455f92f6cb47" d="M370.87,442.95l23.29-40.86c2.15-3.78-.88-8.4-5.2-7.94h0c-5.51.59-10.52,3.47-13.81,7.93l-28.54,36.49,24.26,4.38Z"/><path class="uuid-3d95452d-d37a-42ac-8149-c251b42025f3" d="M370.86,445.44c-.42,0-.84-.1-1.23-.33-1.19-.68-1.61-2.2-.93-3.4l23.29-40.86c.54-.95.51-2.05-.09-2.97-.6-.91-1.58-1.39-2.68-1.27-4.8.52-9.2,3.05-12.07,6.93l-28.58,36.54c-.85,1.08-2.41,1.27-3.5.43-1.08-.85-1.27-2.41-.43-3.5l28.54-36.49c3.65-4.95,9.32-8.21,15.5-8.87,2.96-.32,5.76,1.02,7.38,3.49,1.62,2.47,1.72,5.6.26,8.16l-23.29,40.86c-.46.8-1.3,1.26-2.17,1.26Z"/><path class="uuid-a72b28ae-8a46-4e77-b3ce-455f92f6cb47" d="M289.36,466.07l35.55-18.85,19.44-39.95c2.65-5.45,7.99-9.1,14.03-9.6h0c3.91-.32,6.89,3.43,5.69,7.17l-16.69,51.91-58.01,9.33Z"/><path class="uuid-3d95452d-d37a-42ac-8149-c251b42025f3" d="M289.36,468.56c-.89,0-1.75-.48-2.2-1.32-.64-1.22-.18-2.72,1.03-3.37l34.83-18.47,19.08-39.22c3.02-6.21,9.18-10.43,16.06-11,2.69-.19,5.25.9,6.92,2.99,1.66,2.1,2.17,4.87,1.35,7.42l-16.69,51.91c-.42,1.31-1.81,2.02-3.13,1.61-1.31-.42-2.03-1.82-1.61-3.13l16.69-51.9c.31-.97.13-1.99-.51-2.8-.64-.8-1.59-1.21-2.61-1.13-5.14.43-9.74,3.57-11.99,8.21l-19.44,39.94c-.23.47-.61.86-1.07,1.11l-35.55,18.85c-.37.2-.77.29-1.16.29Z"/><path class="uuid-3d95452d-d37a-42ac-8149-c251b42025f3" d="M133.09,447.59l-22.34,6.82c-25.68,7.84-53.1-6.76-60.93-32.43l-2.7-8.85c-9.81-32.15,8.46-66.48,40.61-76.3l5.15,8.1c20.15-6.15,41.67,5.3,47.83,25.45l12.2,39.97c4.79,15.69-4.13,32.44-19.81,37.23Z"/><ellipse class="uuid-3d95452d-d37a-42ac-8149-c251b42025f3" cx="106.31" cy="400.77" rx="54.8" ry="51.47" transform="translate(-6.4 1.75) rotate(-.92)"/><path class="uuid-3d95452d-d37a-42ac-8149-c251b42025f3" d="M157.22,487.78c-16.31-3.45-30.5-15.01-36.54-31.86l-5.56-15.5,41.11-14.8,1,62.16Z"/><path class="uuid-3d95452d-d37a-42ac-8149-c251b42025f3" d="M92.64,408.4c-3.73-17.18,3.17-35.61,17.7-44.26h0c9.06-5.39,19.28-5.91,28.28-2.37-4.78.55-18.13,2.85-20.61,11.74-3.04,10.87-3.1,31.52-25.37,34.89Z"/><path class="uuid-3d95452d-d37a-42ac-8149-c251b42025f3" d="M165.33,357.05c3.95,12.94-3.34,26.64-16.28,30.59-12.94,3.95-26.64-3.34-30.59-16.28s3.34-26.64,16.28-30.59c12.94-3.95,26.64,3.34,30.59,16.28Z"/><path class="uuid-3d95452d-d37a-42ac-8149-c251b42025f3" d="M80.62,346.94c-24.37,10.96-37.63,38.18-30.62,64.46,6.88,2.05,14.51,2.16,22.01-.13,19.49-5.95,30.7-25.81,25.04-44.36-2.7-8.83-8.74-15.77-16.43-19.98Z"/><circle class="uuid-3d95452d-d37a-42ac-8149-c251b42025f3" cx="96.16" cy="359.89" r="24.5" transform="translate(-190.86 122.44) rotate(-35.44)"/><path class="uuid-3d95452d-d37a-42ac-8149-c251b42025f3" d="M147.28,345.56c4.06,13.31-3.43,27.4-16.75,31.46-13.31,4.06-27.4-3.43-31.46-16.75-4.06-13.31,3.43-27.4,16.75-31.46,13.31-4.06,27.4,3.43,31.46,16.75Z"/><path class="uuid-3d95452d-d37a-42ac-8149-c251b42025f3" d="M60.32,374.13c-.82,0-1.63-.41-2.1-1.15-3.42-5.35-11.09-4.71-11.16-4.71-1.38.11-2.58-.87-2.71-2.24-.13-1.37.86-2.58,2.23-2.71.44-.05,10.77-.97,15.84,6.98.74,1.16.4,2.7-.76,3.44-.42.27-.88.39-1.34.39Z"/><path class="uuid-3d95452d-d37a-42ac-8149-c251b42025f3" d="M61.09,373.27c-.22,0-.45-.03-.68-.09-9.09-2.55-11.2-12.7-11.28-13.13-.27-1.35.61-2.66,1.96-2.92,1.34-.28,2.65.61,2.92,1.95.02.11,1.65,7.6,7.75,9.31,1.32.37,2.1,1.74,1.72,3.07-.31,1.1-1.31,1.82-2.39,1.82Z"/><path class="uuid-a72b28ae-8a46-4e77-b3ce-455f92f6cb47" d="M164.14,494.08l-6.81.69-.43-27.04c3.22-.73,6.4-1.86,9.45-3.48,18.57-9.88,25.61-32.94,15.72-51.51l-6.89-12.95c3.44-2.34,4.68-6.91,2.71-10.68h0c-1.99-3.81-6.52-5.39-10.43-3.83l-1.98-3.71c-9.88-18.57-32.94-25.61-51.51-15.72h0c-15.66,8.33-23.12,26.05-19.14,42.53-6.87,2.15-11.49,8.93-10.65,16.36.73,6.47,5.39,11.53,11.33,13.11l1.21,75.53-13.83,11.87c4.92,13.59,17.56,26.38,34.96,33.47,27.64,11.26,56.79,3.85,65.09-16.54,6.5-15.95-1.72-35.1-18.82-48.08Z"/><path class="uuid-3d95452d-d37a-42ac-8149-c251b42025f3" d="M143.78,566.42c-8.65,0-17.84-1.74-26.85-5.42-17.42-7.09-31.01-20.15-36.36-34.92-.35-.97-.07-2.06.72-2.74l12.94-11.12-1.16-72.58c-6.21-2.36-10.59-7.93-11.35-14.64-.87-7.7,3.36-15.02,10.25-18.19-3.2-17.3,5.15-34.82,20.85-43.17,9.57-5.09,20.55-6.15,30.91-2.99,10.36,3.16,18.87,10.17,23.97,19.74l1.04,1.95c4.54-.8,9.17,1.38,11.38,5.6,2.17,4.16,1.36,9.15-1.78,12.43l5.96,11.19c5.09,9.56,6.15,20.54,2.99,30.91-3.16,10.37-10.17,18.88-19.74,23.97-2.53,1.34-5.24,2.42-8.1,3.21l.36,22.36,4.11-.42c.64-.05,1.25.11,1.75.5,18.45,14.01,26.34,34.51,19.62,51-6.06,14.88-22.45,23.32-41.48,23.32ZM85.86,525.97c5.26,12.82,17.45,24.11,32.94,30.42,26.32,10.72,54.07,3.91,61.85-15.17,5.76-14.16-1.16-31.96-17.25-44.57l-5.82.59c-.7.06-1.39-.15-1.91-.62-.52-.46-.82-1.12-.83-1.82l-.43-27.04c-.02-1.18.79-2.2,1.94-2.47,3.15-.71,6.13-1.81,8.83-3.25,17.33-9.22,23.92-30.82,14.7-48.14l-6.89-12.95c-.6-1.12-.25-2.51.8-3.23,2.44-1.66,3.26-4.87,1.9-7.47-1.37-2.63-4.51-3.78-7.3-2.67-1.17.48-2.52-.02-3.12-1.14l-1.98-3.71c-9.22-17.32-30.81-23.92-48.14-14.7-14.34,7.63-21.7,23.98-17.89,39.75.31,1.27-.43,2.57-1.67,2.96-5.86,1.83-9.61,7.6-8.92,13.7.6,5.3,4.33,9.61,9.5,10.98,1.08.28,1.84,1.25,1.85,2.37l1.21,75.53c.01.74-.31,1.45-.87,1.93l-12.49,10.73Z"/><path class="uuid-3d95452d-d37a-42ac-8149-c251b42025f3" d="M102.25,429.39c-1.12,0-2.14-.77-2.42-1.91-1.09-4.52-5.43-5.26-5.62-5.29-1.35-.21-2.28-1.48-2.08-2.83.2-1.35,1.42-2.3,2.8-2.1.32.04,7.86,1.19,9.75,9.05.32,1.33-.5,2.68-1.84,3-.19.05-.39.07-.58.07Z"/><path class="uuid-3d95452d-d37a-42ac-8149-c251b42025f3" d="M163.19,412.56c-2.54,0-5.53-.91-8.77-3.51-1.07-.86-1.24-2.43-.38-3.5.86-1.07,2.43-1.24,3.5-.38,5.46,4.39,8.63,1.61,9.2,1.01.94-.98,2.51-1.04,3.5-.11,1,.93,1.08,2.46.17,3.47-1.28,1.41-3.85,3.02-7.22,3.02Z"/><path class="uuid-3d95452d-d37a-42ac-8149-c251b42025f3" d="M158.53,389.08c.69,2.02-.1,4.12-1.77,4.69-1.67.57-3.59-.6-4.28-2.61-.69-2.02.1-4.12,1.77-4.69s3.59.6,4.28,2.61Z"/><path class="uuid-3d95452d-d37a-42ac-8149-c251b42025f3" d="M150.54,377.92c.96.93-.35,3.84-2.92,6.5s-5.44,4.06-6.4,3.13.35-3.84,2.92-6.5c2.57-2.66,5.44-4.06,6.4-3.13Z"/><path class="uuid-3d95452d-d37a-42ac-8149-c251b42025f3" d="M102.71,372.1c-15.71,5.38-25.48,21.47-22.65,38.14,4.14,1.66,8.85,2.17,13.63,1.18,12.41-2.56,20.48-14.21,18.04-26.01-1.16-5.62-4.5-10.26-9.02-13.31Z"/><path class="uuid-3d95452d-d37a-42ac-8149-c251b42025f3" d="M149.26,470.62c-14.76,0-28.82-8.15-35.93-21.51-.65-1.21-.18-2.72,1.03-3.37,1.21-.65,2.72-.18,3.37,1.03,7.35,13.82,23.19,21.29,38.51,18.17,1.35-.27,2.66.59,2.93,1.94.27,1.35-.59,2.66-1.94,2.93-2.65.54-5.32.8-7.97.8Z"/><polygon points="248.17 205.66 243.19 205.66 243.19 185.31 222.84 185.31 222.84 180.33 248.17 180.33 248.17 205.66"/><path d="M291.35,348.98c-49.65,0-90.03-40.39-90.03-90.03,0-31.58,16.1-60.3,43.06-76.82l2.6,4.24c-25.47,15.61-40.68,42.74-40.68,72.58,0,46.9,38.16,85.06,85.06,85.06,7.97,0,15.87-1.1,23.45-3.27l1.37,4.78c-8.03,2.3-16.38,3.47-24.82,3.47Z"/><path d="M338.03,335.96l-2.59-4.25c25.65-15.58,40.97-42.78,40.97-72.76,0-46.9-38.16-85.06-85.06-85.06-8.02,0-15.94,1.11-23.56,3.3l-1.38-4.78c8.06-2.32,16.45-3.5,24.94-3.5,49.65,0,90.03,40.39,90.03,90.03,0,31.73-16.21,60.52-43.36,77.01Z"/><polygon points="359.87 337.56 334.54 337.56 334.54 312.24 339.52 312.24 339.52 332.58 359.87 332.58 359.87 337.56"/><path d="M309.22,289.25h-35.43v-8.4c-11.78-6.48-19.03-18.66-19.03-32.16,0-20.26,16.48-36.75,36.75-36.75s36.75,16.48,36.75,36.75c0,13.5-7.25,25.68-19.03,32.16v8.4ZM278.77,284.27h25.47v-6.47l1.38-.69c10.89-5.42,17.65-16.3,17.65-28.42,0-17.52-14.25-31.77-31.77-31.77s-31.77,14.25-31.77,31.77c0,12.12,6.76,23.01,17.65,28.42l1.38.69v6.47Z"/><rect x="272.48" y="295.69" width="38.06" height="4.98"/><rect x="289.02" y="252.51" width="4.98" height="30.45"/><rect x="283.9" y="250.02" width="15.23" height="4.98"/><path d="M274.97,248.7h-4.98c0-11.87,9.65-21.52,21.52-21.52v4.98c-9.12,0-16.54,7.42-16.54,16.54Z"/></svg>