<?xml version="1.0" encoding="utf-8"?>
<!-- Generator: Adobe Illustrator 27.5.0, SVG Export Plug-In . SVG Version: 6.00 Build 0)  -->
<svg version="1.1" id="Ñëîé_1" xmlns="http://www.w3.org/2000/svg" xmlns:xlink="http://www.w3.org/1999/xlink" x="0px" y="0px"
	 viewBox="0 0 600 450" style="enable-background:new 0 0 600 450;" xml:space="preserve">
<rect style="fill:#180D5B;" width="600" height="450"/>
<g>
	
		<linearGradient id="SVGID_1_" gradientUnits="userSpaceOnUse" x1="-758.4922" y1="310.5144" x2="-707.4297" y2="310.5144" gradientTransform="matrix(0.866 0.5 -1 0.5774 1173.2148 368.8171)">
		<stop  offset="0" style="stop-color:#42E8E0"/>
		<stop  offset="0.1507" style="stop-color:#43E3E0"/>
		<stop  offset="0.3285" style="stop-color:#45D5DF"/>
		<stop  offset="0.5199" style="stop-color:#49BDDD"/>
		<stop  offset="0.7209" style="stop-color:#4E9CDB"/>
		<stop  offset="0.9274" style="stop-color:#5472D8"/>
		<stop  offset="1" style="stop-color:#5761D7"/>
	</linearGradient>
	<path style="fill:url(#SVGID_1_);" d="M249.138,194.786c-0.157,0-0.316-0.04-0.462-0.125l-42.365-24.46
		c-0.444-0.256-0.596-0.823-0.339-1.267c0.255-0.443,0.823-0.597,1.266-0.339l42.365,24.46c0.444,0.256,0.596,0.823,0.339,1.267
		C249.77,194.618,249.458,194.786,249.138,194.786z"/>
	
		<linearGradient id="SVGID_00000030474265733202676970000003351583500214330752_" gradientUnits="userSpaceOnUse" x1="395.3302" y1="2086.9102" x2="470.6622" y2="2086.9102" gradientTransform="matrix(1 0 0 -1 -298.1047 2296.7776)">
		<stop  offset="0" style="stop-color:#42E8E0"/>
		<stop  offset="0.1507" style="stop-color:#43E3E0"/>
		<stop  offset="0.3285" style="stop-color:#45D5DF"/>
		<stop  offset="0.5199" style="stop-color:#49BDDD"/>
		<stop  offset="0.7209" style="stop-color:#4E9CDB"/>
		<stop  offset="0.9274" style="stop-color:#5472D8"/>
		<stop  offset="1" style="stop-color:#5761D7"/>
	</linearGradient>
	<path style="fill:url(#SVGID_00000030474265733202676970000003351583500214330752_);" d="M171.56,250.437
		c-0.17,0-0.342-0.043-0.5-0.135l-73.339-42.676c-0.312-0.182-0.501-0.517-0.495-0.876c0.005-0.36,0.205-0.689,0.521-0.861
		l67.211-36.47c0.484-0.264,1.089-0.082,1.351,0.4c0.263,0.484,0.084,1.089-0.4,1.352l-65.653,35.624l71.807,41.784
		c0.476,0.277,0.637,0.887,0.36,1.362C172.237,250.26,171.903,250.437,171.56,250.437z"/>
	<g>
		
			<linearGradient id="SVGID_00000142152722385253439240000000400165697393786520_" gradientUnits="userSpaceOnUse" x1="520.3706" y1="458.8067" x2="520.3706" y2="411.1497" gradientTransform="matrix(-0.866 -0.5 0 1.1547 751.5138 -123.4262)">
			<stop  offset="0" style="stop-color:#C0BFF6"/>
			<stop  offset="0.2938" style="stop-color:#C5C4F7"/>
			<stop  offset="0.6399" style="stop-color:#D3D2F9"/>
			<stop  offset="1" style="stop-color:#E9E9FD"/>
		</linearGradient>
		<path style="fill:url(#SVGID_00000142152722385253439240000000400165697393786520_);" d="M261.139,123.232l79.468,45.881
			c2.172,1.254,3.932-0.077,3.932-2.973v-44.542c0-2.896-1.761-6.26-3.932-7.514l-79.468-45.881
			c-2.172-1.254-3.932,0.077-3.932,2.973v44.542C257.207,118.614,258.967,121.978,261.139,123.232z"/>
		<g>
			<g>
				<g>
					<g>
						<g>
							<g>
								
									<linearGradient id="SVGID_00000112599792969678459860000001147571724249462683_" gradientUnits="userSpaceOnUse" x1="333.4109" y1="243.4754" x2="531.7784" y2="243.4754" gradientTransform="matrix(-1 0 0 1 745.5524 0)">
									<stop  offset="0" style="stop-color:#42E8E0"/>
									<stop  offset="0.1507" style="stop-color:#43E3E0"/>
									<stop  offset="0.3285" style="stop-color:#45D5DF"/>
									<stop  offset="0.5199" style="stop-color:#49BDDD"/>
									<stop  offset="0.7209" style="stop-color:#4E9CDB"/>
									<stop  offset="0.9274" style="stop-color:#5472D8"/>
									<stop  offset="1" style="stop-color:#5761D7"/>
								</linearGradient>
								<path style="fill:url(#SVGID_00000112599792969678459860000001147571724249462683_);" d="M332.037,299.973l-116.904-67.495
									c-0.852-0.492-1.359-1.373-1.359-2.356c0-0.983,0.507-1.865,1.359-2.357l72.64-41.938l0.568-0.327l122.44,70.69
									c0.852,0.492,1.36,1.373,1.36,2.356c0,0.984-0.508,1.865-1.36,2.357l-67.67,39.07c-1.707,0.986-3.621,1.478-5.536,1.478
									C335.659,301.451,333.745,300.959,332.037,299.973z M216.27,229.733c-0.194,0.113-0.224,0.292-0.224,0.389
									c0,0.097,0.029,0.276,0.224,0.388l116.904,67.495c2.714,1.567,6.087,1.567,8.801,0l67.67-39.07
									c0.196-0.112,0.225-0.292,0.225-0.389c0-0.096-0.029-0.275-0.225-0.388l-121.304-70.035L216.27,229.733z"/>
							</g>
							<g>
								<g>
									
										<linearGradient id="SVGID_00000005971201943480652750000011780281766645045918_" gradientUnits="userSpaceOnUse" x1="307.024" y1="148.2579" x2="457.3889" y2="148.2579" gradientTransform="matrix(-1 0 0 1 745.5524 0)">
										<stop  offset="0" style="stop-color:#C0BFF6"/>
										<stop  offset="0.2938" style="stop-color:#C5C4F7"/>
										<stop  offset="0.6399" style="stop-color:#D3D2F9"/>
										<stop  offset="1" style="stop-color:#E9E9FD"/>
									</linearGradient>
									<path style="fill:url(#SVGID_00000005971201943480652750000011780281766645045918_);" d="M288.191,157.609l16.286-96.626
										l-1.31-0.551l1.968-1.128l-0.003,0.011c0.382-0.254,0.922-0.239,1.516,0.105l130.163,75.149
										c1.069,0.617,1.878,2.2,1.69,3.306l-16.416,97.394c-0.086,0.507-0.337,0.844-0.686,0.991l0.002,0.001l-1.926,1.113
										l-0.331-1.798l0.11,0.033l-129.374-74.694C288.812,160.299,288.003,158.716,288.191,157.609z"/>
									
										<linearGradient id="SVGID_00000155114526763043479030000001634837114750948241_" gradientUnits="userSpaceOnUse" x1="307.025" y1="186.8197" x2="332.8441" y2="186.8197" gradientTransform="matrix(-1 0 0 1 745.5524 0)">
										<stop  offset="0" style="stop-color:#5761D7"/>
										<stop  offset="0.1779" style="stop-color:#5C66D9"/>
										<stop  offset="0.3876" style="stop-color:#6A73DF"/>
										<stop  offset="0.6134" style="stop-color:#8289E8"/>
										<stop  offset="0.849" style="stop-color:#A3A7F5"/>
										<stop  offset="1" style="stop-color:#BCBEFF"/>
									</linearGradient>
									<path style="fill:url(#SVGID_00000155114526763043479030000001634837114750948241_);" d="M436.086,137.212l2.14-0.947
										c0.24,0.548,0.358,1.124,0.275,1.611l-16.416,97.394c-0.086,0.507-0.337,0.844-0.686,0.991l0.002,0.001l-1.926,1.112
										l-0.331-1.798l0.11,0.033l-6.547-3.78L436.086,137.212z"/>
									<path style="fill:#24126A;" d="M287.839,162.087l130.163,75.149c1.005,0.58,1.865,0.245,2.042-0.795l16.416-97.394
										c0.188-1.107-0.621-2.689-1.69-3.306L304.607,60.592c-1.005-0.58-1.865-0.245-2.042,0.795l-16.416,97.394
										C285.961,159.887,286.77,161.47,287.839,162.087z"/>
									<g style="opacity:0.51;">
										<polygon style="fill:#453C9E;" points="306.308,66.809 431.774,139.247 416.215,230.971 290.833,158.582 										"/>
									</g>
								</g>
								<g>
									
										<linearGradient id="SVGID_00000128449900877247550670000007247056796667599255_" gradientUnits="userSpaceOnUse" x1="327.1694" y1="230.1676" x2="539.5338" y2="230.1676" gradientTransform="matrix(-1 0 0 1 745.5524 0)">
										<stop  offset="0" style="stop-color:#5761D7"/>
										<stop  offset="0.1779" style="stop-color:#5C66D9"/>
										<stop  offset="0.3876" style="stop-color:#6A73DF"/>
										<stop  offset="0.6134" style="stop-color:#8289E8"/>
										<stop  offset="0.849" style="stop-color:#A3A7F5"/>
										<stop  offset="1" style="stop-color:#BCBEFF"/>
									</linearGradient>
									<path style="fill:url(#SVGID_00000128449900877247550670000007247056796667599255_);" d="M206.019,208.197l7.103,3.71
										l71.228-41.124c1.192-0.688,3.273-0.602,4.649,0.193l122.848,70.927c1.176-0.658,6.536-3.235,6.536-3.235l-2.6,6.775
										c0,0-0.009-0.007-0.01-0.008c-0.108,0.301-0.339,0.582-0.727,0.807l-75.017,43.311c-1.192,0.688-3.273,0.602-4.649-0.193
										l-125.713-72.58c-0.565-0.326-0.911-0.721-1.055-1.121l-0.01,0.006L206.019,208.197z"/>
									
										<linearGradient id="SVGID_00000004532586488266911080000011763338228848667525_" gradientUnits="userSpaceOnUse" x1="398.5246" y1="223.0866" x2="611.0021" y2="223.0866" gradientTransform="matrix(-1 0 0 1 745.5524 0)">
										<stop  offset="0" style="stop-color:#C0BFF6"/>
										<stop  offset="0.2938" style="stop-color:#C5C4F7"/>
										<stop  offset="0.6399" style="stop-color:#D3D2F9"/>
										<stop  offset="1" style="stop-color:#E9E9FD"/>
									</linearGradient>
									<path style="fill:url(#SVGID_00000004532586488266911080000011763338228848667525_);" d="M207.117,209.365l128.839,74.385
										c1.41,0.814,3.543,0.903,4.765,0.198l76.883-44.388c1.221-0.705,1.068-1.937-0.342-2.751l-128.839-74.385
										c-1.41-0.814-3.543-0.903-4.765-0.198l-76.883,44.388C205.553,207.319,205.707,208.551,207.117,209.365z"/>
									<path style="fill:#FFFFFF;" d="M207.117,208.622l128.839,74.385c1.41,0.814,3.543,0.903,4.765,0.198l76.883-44.388
										c0.4-0.231,0.638-0.521,0.747-0.831c0.193,0.579-0.039,1.165-0.747,1.574l-76.883,44.389
										c-1.221,0.705-3.355,0.617-4.765-0.198l-128.839-74.385c-0.949-0.548-1.314-1.282-1.089-1.92
										C206.168,207.864,206.524,208.28,207.117,208.622z"/>
									<path style="fill:#2842A2;" d="M374.817,267.659v-1.413c0-0.134-0.081-0.195-0.182-0.138l-4.983,2.877
										c-0.1,0.058-0.182,0.214-0.182,0.348v1.413c0,0.134,0.081,0.195,0.182,0.137l4.983-2.877
										C374.735,267.949,374.817,267.793,374.817,267.659z"/>
									<path style="fill:#2842A2;" d="M367.365,271.962v-1.413c0-0.134-0.081-0.195-0.182-0.137l-4.983,2.877
										c-0.1,0.058-0.182,0.214-0.182,0.347v1.413c0,0.134,0.081,0.195,0.182,0.138l4.983-2.877
										C367.283,272.251,367.365,272.096,367.365,271.962z"/>
									<path style="fill:#ADB1F2;" d="M397.559,235.402l-107.065-61.814c-0.714-0.412-1.593-0.412-2.307,0.001l-38.126,22.058
										c-0.547,0.317-0.547,1.107,0.001,1.423l107.015,61.785c0.713,0.412,1.591,0.412,2.304,0l38.177-22.03
										C398.107,236.509,398.107,235.718,397.559,235.402z"/>
									<path style="fill:#9198DB;" d="M397.559,236.826l-0.383,0.221l-106.682-61.593c-0.714-0.412-1.593-0.412-2.307,0.001
										l-37.742,21.836l-0.383-0.221c-0.548-0.316-0.548-1.107-0.001-1.423l38.126-22.058c0.713-0.413,1.593-0.413,2.307-0.001
										l107.065,61.814C398.107,235.718,398.107,236.509,397.559,236.826z"/>
									<g>
										<polygon style="fill:#24126A;" points="285.31,179.175 378.311,232.87 382.446,230.482 289.445,176.788 										"/>
										<polygon style="fill:#24126A;" points="275.172,185.029 362.404,235.392 366.539,233.004 279.307,182.641 										"/>
										<polygon style="fill:#24126A;" points="268.569,188.841 371.275,248.138 375.41,245.75 272.705,186.453 										"/>
										<polygon style="fill:#24126A;" points="261.966,192.653 364.672,251.95 368.807,249.563 266.102,190.266 										"/>
										<polygon style="fill:#24126A;" points="255.363,196.465 358.069,255.762 362.204,253.375 259.499,194.078 										"/>
										<polygon style="fill:#24126A;" points="383.931,236.114 388.066,238.501 392.201,236.114 388.066,233.727 										"/>
										<polygon style="fill:#24126A;" points="369.345,239.399 377.928,244.354 382.063,241.967 373.48,237.012 										"/>
									</g>
									
										<linearGradient id="SVGID_00000108301258001469851040000007205770559693126810_" gradientUnits="userSpaceOnUse" x1="434.5074" y1="235.1487" x2="488.8956" y2="235.1487" gradientTransform="matrix(-1 0 0 1 745.5524 0)">
										<stop  offset="0" style="stop-color:#C0BFF6"/>
										<stop  offset="0.2938" style="stop-color:#C5C4F7"/>
										<stop  offset="0.6399" style="stop-color:#D3D2F9"/>
										<stop  offset="1" style="stop-color:#E9E9FD"/>
									</linearGradient>
									<path style="fill:url(#SVGID_00000108301258001469851040000007205770559693126810_);" d="M286.372,250.361l-28.869-16.667
										c-1.128-0.651-1.128-1.708,0-2.359l19.741-11.397c1.128-0.651,2.958-0.651,4.086,0l28.869,16.667
										c1.128,0.651,1.128,1.708,0,2.359l-19.741,11.398C289.329,251.012,287.5,251.012,286.372,250.361z"/>
									<path style="fill:#9198DB;" d="M310.199,237.569l-28.869-16.667c-1.128-0.651-2.958-0.651-4.086,0l-19.741,11.398
										c-0.348,0.201-0.576,0.443-0.709,0.697c-0.298-0.57-0.071-1.212,0.709-1.662l19.741-11.397
										c1.128-0.652,2.958-0.651,4.086,0l28.869,16.667c0.78,0.45,1.008,1.092,0.709,1.662
										C310.775,238.012,310.547,237.77,310.199,237.569z"/>
								</g>
							</g>
							<g style="opacity:0.11;">
								<defs>
									<polygon id="SVGID_7_" style="opacity:0.11;" points="306.308,66.809 431.774,139.247 416.215,230.971 290.833,158.582 
																			"/>
								</defs>
								<clipPath id="SVGID_00000028326623572212756020000014665424448218599088_">
									<use xlink:href="#SVGID_7_"  style="overflow:visible;"/>
								</clipPath>
								<g style="clip-path:url(#SVGID_00000028326623572212756020000014665424448218599088_);">
									
										<linearGradient id="SVGID_00000155832929452465316960000006110166679329603737_" gradientUnits="userSpaceOnUse" x1="317.346" y1="175.9917" x2="529.8235" y2="175.9917" gradientTransform="matrix(-1 0 0 1 745.5524 0)">
										<stop  offset="0" style="stop-color:#C0BFF6"/>
										<stop  offset="0.2938" style="stop-color:#C5C4F7"/>
										<stop  offset="0.6399" style="stop-color:#D3D2F9"/>
										<stop  offset="1" style="stop-color:#E9E9FD"/>
									</linearGradient>
									<path style="fill:url(#SVGID_00000155832929452465316960000006110166679329603737_);" d="M288.295,162.27l128.839,74.385
										c1.41,0.814,3.543,0.903,4.765,0.197l76.883-44.388c1.221-0.705,1.068-1.937-0.342-2.751l-128.839-74.385
										c-1.41-0.814-3.544-0.903-4.765-0.198l-76.883,44.388C286.732,160.224,286.885,161.456,288.295,162.27z"/>
									
										<linearGradient id="SVGID_00000032609928390153028260000002072426697918719622_" gradientUnits="userSpaceOnUse" x1="303.3614" y1="160.3943" x2="357.7496" y2="160.3943" gradientTransform="matrix(-1 0 0 1 745.5524 0)">
										<stop  offset="0" style="stop-color:#C0BFF6"/>
										<stop  offset="0.2938" style="stop-color:#C5C4F7"/>
										<stop  offset="0.6399" style="stop-color:#D3D2F9"/>
										<stop  offset="1" style="stop-color:#E9E9FD"/>
									</linearGradient>
									<path style="fill:url(#SVGID_00000032609928390153028260000002072426697918719622_);" d="M417.518,175.606l-28.869-16.667
										c-1.128-0.651-1.128-1.708,0-2.359l19.741-11.398c1.128-0.651,2.958-0.651,4.086,0l28.869,16.667
										c1.128,0.652,1.128,1.708,0,2.359l-19.741,11.398C420.475,176.258,418.646,176.258,417.518,175.606z"/>
									<path style="fill:#9198DB;" d="M441.345,162.815l-28.869-16.667c-1.128-0.651-2.958-0.651-4.086,0l-19.741,11.398
										c-0.348,0.201-0.576,0.443-0.709,0.697c-0.298-0.57-0.071-1.212,0.709-1.662l19.741-11.398
										c1.128-0.651,2.958-0.651,4.086,0l28.869,16.667c0.78,0.45,1.008,1.092,0.709,1.662
										C441.921,163.257,441.693,163.016,441.345,162.815z"/>
									<g>
										<path style="fill:#ADB1F2;" d="M454.035,201.653L346.97,139.839c-0.714-0.412-1.593-0.412-2.307,0.001l-38.126,22.058
											c-0.547,0.317-0.547,1.107,0.001,1.423l107.015,61.785c0.713,0.412,1.591,0.412,2.304,0l38.177-22.03
											C454.583,202.761,454.583,201.97,454.035,201.653z"/>
										<path style="fill:#9198DB;" d="M454.035,203.077l-0.383,0.221L346.97,141.706c-0.714-0.412-1.593-0.412-2.307,0.001
											l-37.742,21.836l-0.383-0.221c-0.548-0.316-0.548-1.107-0.001-1.423l38.126-22.058c0.713-0.413,1.593-0.413,2.307-0.001
											l107.065,61.814C454.583,201.97,454.583,202.761,454.035,203.077z"/>
										<g>
											<polygon style="fill:#24126A;" points="316.515,160.394 409.788,214.245 406.093,216.378 312.821,162.527 											"/>
											<polygon style="fill:#24126A;" points="326.343,154.72 414.997,205.905 411.302,208.038 322.648,156.853 											"/>
											<polygon style="fill:#24126A;" points="421.617,209.727 429.897,214.507 426.202,216.64 417.922,211.86 											"/>
											<polygon style="fill:#24126A;" points="414.304,216.852 420.069,220.181 416.374,222.314 410.609,218.986 											"/>
											<polygon style="fill:#24126A;" points="332.501,151.165 436.055,210.952 432.36,213.085 328.806,153.298 											"/>
											<polygon style="fill:#24126A;" points="338.659,147.61 442.212,207.396 438.518,209.53 334.964,149.743 											"/>
											<polygon style="fill:#24126A;" points="344.817,144.055 448.37,203.841 444.676,205.974 341.122,146.188 											"/>
										</g>
									</g>
								</g>
							</g>
						</g>
					</g>
				</g>
				<g>
					<g>
						<polygon style="fill:#42E8E0;" points="420.176,144.676 422.65,146.258 422.95,144.422 420.476,142.84 						"/>
						<polygon style="fill:#42E8E0;" points="418.148,157.096 420.622,158.678 422.377,147.932 419.902,146.35 						"/>
						<polygon style="fill:#42E8E0;" points="417.178,163.036 419.652,164.618 420.348,160.352 417.874,158.77 						"/>
						<polygon style="fill:#42E8E0;" points="416.172,169.192 418.647,170.774 419.343,166.508 416.869,164.926 						"/>
						<polygon style="fill:#42E8E0;" points="415.516,148.257 417.99,149.839 418.687,145.573 416.213,143.991 						"/>
						<polygon style="fill:#42E8E0;" points="414.185,156.411 416.659,157.993 417.682,151.729 415.207,150.147 						"/>
						<polygon style="fill:#42E8E0;" points="412.959,163.917 415.433,165.499 416.31,160.126 413.836,158.544 						"/>
						<polygon style="fill:#42E8E0;" points="415.167,175.348 417.641,176.93 418.338,172.664 415.864,171.082 						"/>
						<polygon style="fill:#42E8E0;" points="416.486,142.317 418.96,143.899 419.26,142.063 416.786,140.481 						"/>
					</g>
					<polygon style="fill:#42E8E0;" points="412.347,180.142 416.666,182.904 416.957,181.122 412.638,178.36 					"/>
				</g>
			</g>
			<g>
				<g>
					
						<linearGradient id="SVGID_00000039836268700533315670000012548230847665450430_" gradientUnits="userSpaceOnUse" x1="458.0919" y1="280.3473" x2="587.7511" y2="280.3473" gradientTransform="matrix(-1 0 0 1 745.5524 0)">
						<stop  offset="0" style="stop-color:#42E8E0"/>
						<stop  offset="0.1507" style="stop-color:#43E3E0"/>
						<stop  offset="0.3285" style="stop-color:#45D5DF"/>
						<stop  offset="0.5199" style="stop-color:#49BDDD"/>
						<stop  offset="0.7209" style="stop-color:#4E9CDB"/>
						<stop  offset="0.9274" style="stop-color:#5472D8"/>
						<stop  offset="1" style="stop-color:#5761D7"/>
					</linearGradient>
					<path style="fill:url(#SVGID_00000039836268700533315670000012548230847665450430_);" d="M259.653,317.624L259.653,317.624
						L159.046,259.54c-0.792-0.457-1.245-1.165-1.245-1.944c0-0.873,0.568-1.702,1.558-2.274l20.909-12.071
						c1.584-0.916,3.929-0.996,5.341-0.181l100.606,58.086c0.792,0.457,1.245,1.166,1.245,1.944
						c-0.001,0.873-0.569,1.702-1.558,2.273l-20.908,12.071c-0.853,0.492-1.924,0.743-2.952,0.743
						C261.157,318.187,260.306,318.001,259.653,317.624z M181.251,244.952l-20.909,12.072c-0.479,0.276-0.576,0.522-0.576,0.572
						c0,0.024,0.062,0.127,0.263,0.242l100.607,58.085v0c0.815,0.469,2.393,0.387,3.376-0.181l20.909-12.072
						c0.478-0.275,0.575-0.521,0.575-0.572c0-0.024-0.062-0.127-0.264-0.243l-100.606-58.085c-0.355-0.206-0.857-0.305-1.391-0.305
						C182.546,244.466,181.804,244.632,181.251,244.952z"/>
					<g>
						
							<linearGradient id="SVGID_00000089550712493501972390000013204429361190536381_" gradientUnits="userSpaceOnUse" x1="367.411" y1="51.1628" x2="488.0484" y2="51.1628" gradientTransform="matrix(-0.866 -0.5 0 1.1547 605.7623 395.1707)">
							<stop  offset="0" style="stop-color:#5761D7"/>
							<stop  offset="0.1779" style="stop-color:#5C66D9"/>
							<stop  offset="0.3876" style="stop-color:#6A73DF"/>
							<stop  offset="0.6134" style="stop-color:#8289E8"/>
							<stop  offset="0.849" style="stop-color:#A3A7F5"/>
							<stop  offset="1" style="stop-color:#BCBEFF"/>
						</linearGradient>
						<path style="fill:url(#SVGID_00000089550712493501972390000013204429361190536381_);" d="M199.943,209.643
							c2.645,1.527,5.146,3.678,7.373,6.218c3.09-9.926,12.516-13.006,23.668-6.567c9.226,5.327,17.267,15.804,21.521,26.904
							c1.41,0.045,2.98,0.509,4.643,1.469c6.021,3.476,10.902,11.93,10.902,18.882c0,0.15-0.015,0.286-0.019,0.432
							c1.717,0.118,3.615,0.726,5.612,1.879c7.701,4.446,13.943,15.258,13.943,24.15c0,8.891-6.242,12.495-13.943,8.049
							l-73.699-42.55c-9.295-5.367-16.83-18.418-16.83-29.15C183.112,208.627,190.648,204.277,199.943,209.643z"/>
						
							<radialGradient id="SVGID_00000078035763715961482880000001598152002515607455_" cx="482.5203" cy="239.1839" r="49.835" fx="435.5238" fy="222.605" gradientTransform="matrix(-1 0 0 1 745.5524 0)" gradientUnits="userSpaceOnUse">
							<stop  offset="0" style="stop-color:#2B237C"/>
							<stop  offset="1" style="stop-color:#180D5B"/>
						</radialGradient>
						<path style="fill:url(#SVGID_00000078035763715961482880000001598152002515607455_);" d="M199.943,209.643
							c1.533,0.885,3.016,1.986,4.428,3.244l8.241-4.761l-0.001,0.002c4.527-3.183,11.081-3.044,18.374,1.166
							c9.226,5.327,17.267,15.804,21.521,26.904c1.41,0.045,2.98,0.509,4.643,1.469c6.021,3.476,10.902,11.93,10.902,18.882
							c0,0.15-0.015,0.287-0.019,0.432c1.717,0.118,3.615,0.725,5.612,1.879c7.701,4.446,13.943,15.258,13.943,24.15
							c0,4.406-1.536,7.509-4.02,8.982l0.006,0.003l-0.064,0.037c-0.004,0.002-0.008,0.005-0.012,0.007l-20.186,11.717
							l-4.409-21.209l-58.956-34.038c-9.295-5.367-16.83-18.417-16.83-29.15C183.112,208.627,190.647,204.277,199.943,209.643z"/>
						
							<linearGradient id="SVGID_00000078021320385112771600000010384348705289113264_" gradientUnits="userSpaceOnUse" x1="457.968" y1="254.8374" x2="578.0533" y2="254.8374" gradientTransform="matrix(-1 0 0 1 745.5524 0)">
							<stop  offset="0" style="stop-color:#5761D7"/>
							<stop  offset="0.1779" style="stop-color:#5C66D9"/>
							<stop  offset="0.3876" style="stop-color:#6A73DF"/>
							<stop  offset="0.6134" style="stop-color:#8289E8"/>
							<stop  offset="0.849" style="stop-color:#A3A7F5"/>
							<stop  offset="1" style="stop-color:#BCBEFF"/>
						</linearGradient>
						<path style="fill:url(#SVGID_00000078021320385112771600000010384348705289113264_);" d="M167.499,220.401l20.452-11.883
							l-0.001,0.005c3.053-1.818,7.297-1.59,11.992,1.121c1.533,0.885,3.016,1.986,4.428,3.244l8.241-4.761l-0.001,0.002
							c4.527-3.183,11.081-3.044,18.374,1.166c9.226,5.327,17.267,15.804,21.521,26.904c1.41,0.045,2.98,0.509,4.643,1.469
							c6.021,3.476,10.902,11.93,10.902,18.882c0,0.15-0.015,0.287-0.019,0.432c1.717,0.118,3.615,0.725,5.612,1.879
							c7.701,4.446,13.943,15.258,13.943,24.15c0,4.406-1.536,7.509-4.02,8.982l0.006,0.003l-0.064,0.037
							c-0.004,0.002-0.008,0.005-0.012,0.007l-20.186,11.717l-4.409-21.209l-58.956-34.038c-7.535-4.35-13.911-13.75-16.057-22.872
							L167.499,220.401z"/>
						
							<linearGradient id="SVGID_00000129891409407187252630000004826134794522714017_" gradientUnits="userSpaceOnUse" x1="390.7955" y1="71.4682" x2="511.4329" y2="71.4682" gradientTransform="matrix(-0.866 -0.5 0 1.1547 605.7623 395.1707)">
							<stop  offset="0" style="stop-color:#C0BFF6"/>
							<stop  offset="0.2938" style="stop-color:#C5C4F7"/>
							<stop  offset="0.6399" style="stop-color:#D3D2F9"/>
							<stop  offset="1" style="stop-color:#E9E9FD"/>
						</linearGradient>
						<path style="fill:url(#SVGID_00000129891409407187252630000004826134794522714017_);" d="M179.692,221.398
							c2.645,1.527,5.146,3.678,7.373,6.219c3.09-9.926,12.516-13.006,23.668-6.567c9.226,5.327,17.267,15.804,21.52,26.904
							c1.41,0.045,2.98,0.509,4.643,1.469c6.021,3.476,10.902,11.93,10.902,18.882c0,0.15-0.015,0.287-0.019,0.432
							c1.717,0.118,3.615,0.725,5.612,1.878c7.7,4.446,13.943,15.258,13.943,24.149c0,8.892-6.243,12.496-13.943,8.05l-73.699-42.55
							c-9.295-5.367-16.83-18.418-16.83-29.15C162.861,220.381,170.397,216.031,179.692,221.398z"/>
						<g>
							<path style="fill:#FFFFFF;" d="M186.39,228.021c-2.227-2.541-4.728-4.691-7.373-6.219c-4.545-2.624-8.666-2.919-11.694-1.287
								c3.075-2.072,7.478-1.942,12.369,0.882c2.492,1.439,4.854,3.436,6.981,5.787C186.574,227.458,186.479,227.736,186.39,228.021
								z"/>
							<path style="fill:#FFFFFF;" d="M266.658,295.17c0-8.892-6.242-19.704-13.943-24.15c-1.997-1.153-3.894-1.76-5.612-1.878
								c0.005-0.146,0.019-0.283,0.019-0.432c0-6.952-4.881-15.406-10.902-18.882c-1.663-0.96-3.233-1.424-4.643-1.469
								c-4.254-11.1-12.295-21.578-21.52-26.904c-6.745-3.894-12.855-4.301-17.318-1.824c4.51-2.916,10.901-2.676,17.993,1.418
								c9.226,5.327,17.267,15.804,21.52,26.904c1.41,0.045,2.98,0.509,4.643,1.469c6.021,3.476,10.902,11.93,10.902,18.882
								c0,0.15-0.015,0.286-0.019,0.432c1.717,0.118,3.615,0.726,5.612,1.879c7.7,4.446,13.943,15.258,13.943,24.15
								c0,4.566-1.649,7.733-4.294,9.136C265.288,302.341,266.658,299.336,266.658,295.17z"/>
						</g>
					</g>
				</g>
				
					<linearGradient id="SVGID_00000124854380540402030350000015830279597286124469_" gradientUnits="userSpaceOnUse" x1="420.0733" y1="325.5092" x2="471.4775" y2="325.5092" gradientTransform="matrix(-1 0 0 1 745.5524 0)">
					<stop  offset="0" style="stop-color:#5761D7"/>
					<stop  offset="0.0726" style="stop-color:#5472D8"/>
					<stop  offset="0.2791" style="stop-color:#4E9CDB"/>
					<stop  offset="0.4801" style="stop-color:#49BDDD"/>
					<stop  offset="0.6715" style="stop-color:#45D5DF"/>
					<stop  offset="0.8493" style="stop-color:#43E3E0"/>
					<stop  offset="1" style="stop-color:#42E8E0"/>
				</linearGradient>
				<polygon style="fill:url(#SVGID_00000124854380540402030350000015830279597286124469_);" points="323.681,341.283 
					325.479,340.074 275.087,309.735 274.075,311.418 				"/>
			</g>
			
				<linearGradient id="SVGID_00000078742878334949569170000015707216273190271164_" gradientUnits="userSpaceOnUse" x1="303.2164" y1="307.9967" x2="368.8955" y2="307.9967" gradientTransform="matrix(-1 0 0 1 745.5524 0)">
				<stop  offset="0" style="stop-color:#42E8E0"/>
				<stop  offset="0.1507" style="stop-color:#43E3E0"/>
				<stop  offset="0.3285" style="stop-color:#45D5DF"/>
				<stop  offset="0.5199" style="stop-color:#49BDDD"/>
				<stop  offset="0.7209" style="stop-color:#4E9CDB"/>
				<stop  offset="0.9274" style="stop-color:#5472D8"/>
				<stop  offset="1" style="stop-color:#5761D7"/>
			</linearGradient>
			<path style="fill:url(#SVGID_00000078742878334949569170000015707216273190271164_);" d="M396.882,339.584
				c-0.354,0-0.696-0.188-0.877-0.52c-0.262-0.484-0.083-1.089,0.4-1.352l42.901-23.279l-62.154-36.166
				c-0.475-0.277-0.637-0.887-0.36-1.362c0.277-0.476,0.889-0.637,1.362-0.36l63.686,37.058c0.311,0.182,0.501,0.517,0.495,0.876
				c-0.005,0.36-0.204,0.689-0.52,0.861l-44.459,24.125C397.205,339.546,397.042,339.584,396.882,339.584z"/>
			<g>
				<g>
					<g>
						
							<linearGradient id="SVGID_00000108991546999934676980000008995215035087024062_" gradientUnits="userSpaceOnUse" x1="288.6523" y1="360.6148" x2="436.0273" y2="360.6148">
							<stop  offset="0" style="stop-color:#42E8E0"/>
							<stop  offset="0.1507" style="stop-color:#43E3E0"/>
							<stop  offset="0.3285" style="stop-color:#45D5DF"/>
							<stop  offset="0.5199" style="stop-color:#49BDDD"/>
							<stop  offset="0.7209" style="stop-color:#4E9CDB"/>
							<stop  offset="0.9274" style="stop-color:#5472D8"/>
							<stop  offset="1" style="stop-color:#5761D7"/>
						</linearGradient>
						<path style="fill:url(#SVGID_00000108991546999934676980000008995215035087024062_);" d="M362.339,403.579
							c-0.172,0-0.344-0.044-0.498-0.133l-72.69-41.968c-0.308-0.179-0.498-0.508-0.498-0.863c0-0.355,0.19-0.685,0.498-0.863
							l72.692-41.969c0.309-0.178,0.688-0.178,0.996,0l72.69,41.968c0.309,0.179,0.498,0.508,0.498,0.863
							c0,0.355-0.189,0.685-0.498,0.863l-72.692,41.969C362.683,403.535,362.511,403.579,362.339,403.579z M291.641,360.616
							l70.698,40.817l70.7-40.818l-70.698-40.817L291.641,360.616z"/>
						
							<linearGradient id="SVGID_00000027588127385878104930000016352611460253684905_" gradientUnits="userSpaceOnUse" x1="369.6589" y1="382.3048" x2="396.766" y2="338.9246" gradientTransform="matrix(-1 0 0 1 745.5524 0)">
							<stop  offset="0" style="stop-color:#42E8E0"/>
							<stop  offset="0.1507" style="stop-color:#43E3E0"/>
							<stop  offset="0.3285" style="stop-color:#45D5DF"/>
							<stop  offset="0.5199" style="stop-color:#49BDDD"/>
							<stop  offset="0.7209" style="stop-color:#4E9CDB"/>
							<stop  offset="0.9274" style="stop-color:#5472D8"/>
							<stop  offset="1" style="stop-color:#5761D7"/>
						</linearGradient>
						<polygon style="fill:url(#SVGID_00000027588127385878104930000016352611460253684905_);" points="362.339,388.481 
							410.606,360.614 362.341,332.749 314.074,360.615 						"/>
					</g>
					<g>
						<path style="fill:#160A5B;" d="M350.017,344.939c0,0-0.827,0.821-1.689,1.79s-3.248,2.29-4.252,2.879
							s-5.617,3.909-6.647,7.265c-1.03,3.356,2.194,3.884,5.519,3.379c3.324-0.505,6.492-3.482,7.421-4.561
							c0.928-1.08,4.123-3.505,8.236-5.506c4.114-2.002,1.729-4.889,1.729-4.889L350.017,344.939z"/>
						<path style="fill:#160A5B;" d="M379.923,355.727c0,0,0.632,1.536,0.773,3.496c0.141,1.959,0.31,6.203,0.38,7.445
							c0.071,1.242,0.036,4.276-2.218,7.126c-2.254,2.85-3.409,3.969-6.28,2.754c-2.871-1.214-2.684-6.079-2.109-8.569
							c0.575-2.49,1.19-8.079,1.153-8.668c-0.038-0.589,0.19-0.959,0.19-0.959L379.923,355.727z"/>
						<path style="fill:#24126A;" d="M341.437,287.274c0,0,0.057,22.332,4.964,34.307c0,0,3.465,10.525,3.65,22.948
							c0,0-0.913,2.115,0.264,3.883c1.177,1.768,8.773,3.547,10.176-2.128c1.403-5.675,1.184-16.365-0.093-20.853
							c-1.276-4.487,0.909-16.713,0.909-16.713s2.054,1.385,4.571,10.27c2.517,8.885,4.446,12.299,5.327,14.758
							c0.88,2.459,1.375,17.423,0.598,24.705c0,0,6.161,1.032,8.022-1.88c1.861-2.911,2.839-18.187,2.506-23.074
							c-0.332-4.886-1.983-20.554-1.583-25.379c0.4-4.826,1.504-8.725,0.519-13.579c-0.986-4.854-33.346-16.387-33.346-16.387
							L341.437,287.274z"/>
						<path style="fill:#160A5B;" d="M380.748,308.118c0.4-4.826,1.504-8.725,0.519-13.579c-0.371-1.825-5.175-4.593-11.027-7.338
							c-9.963-1.159-22.6-2.532-23.476-2.421c-0.792,0.101-2.876,0.833-4.603,1.477l-0.723,1.017c0,0,0.004,1.358,0.082,3.578
							c2.312,0.755,6.81,0.146,6.81,0.146c0.592,1.582,4.345,7.244,9.125,9.766c4.78,2.522,18.961,2.05,19.752,2.983
							c0.79,0.933,0.644,13.155,0.516,14.706c-0.129,1.551,1.053,11.367,2.155,20.048c1.084,8.541-1.145,18.832-1.217,19.163
							c0.465-0.282,0.872-0.633,1.164-1.091c1.861-2.911,2.839-18.187,2.506-23.074
							C381.998,328.612,380.348,312.944,380.748,308.118z"/>
						<path style="fill:#453C9E;" d="M354.171,214.552c0,0-7.279,1.471-9.729,1.982c-0.406,0.085-0.739,0.361-0.901,0.743
							c-0.747,1.762-2.648,7.248-1.52,15.355c1.386,9.963,0.703,16.63,0.703,16.63l-3.781,17.343c0,0-4.621,16.492-4.269,16.955
							c0.352,0.463,9.505,7.794,12.445,6.867c2.94-0.928,2.023-2.601,2.023-2.601s2.063,12.087,12.521,12.231
							c10.457,0.144,18.998,0.39,20.877-3.793c1.88-4.182,0.061-22.004-1.608-29.083c-1.669-7.079-5.703-21.209-5.703-21.209
							l15.733-16.568l-12.838-10.32c0,0-2.982-5.887-4.249-6.657c-1.266-0.77-1.953-0.162-1.953-0.162L354.171,214.552z"/>
						<g>
							
								<linearGradient id="SVGID_00000075874386759731711570000005212172059337116576_" gradientUnits="userSpaceOnUse" x1="744.9404" y1="318.8105" x2="758.8677" y2="318.8105" gradientTransform="matrix(0.9966 0.0826 -0.0826 0.9966 -381.3428 -92.5805)">
								<stop  offset="0" style="stop-color:#5761D7"/>
								<stop  offset="0.0726" style="stop-color:#5472D8"/>
								<stop  offset="0.2791" style="stop-color:#4E9CDB"/>
								<stop  offset="0.4801" style="stop-color:#49BDDD"/>
								<stop  offset="0.6715" style="stop-color:#45D5DF"/>
								<stop  offset="0.8493" style="stop-color:#43E3E0"/>
								<stop  offset="1" style="stop-color:#42E8E0"/>
							</linearGradient>
							<path style="fill:url(#SVGID_00000075874386759731711570000005212172059337116576_);" d="M347.393,286.601
								c-0.006,0.604-0.38,1.494-2.276,2.092c-2.047,0.646-6.946-2.501-10.151-4.859c1.595,1.394,9.463,7.442,12.152,6.593
								c0.584-0.184,1.011-0.398,1.328-0.622C347.883,288.453,347.557,287.287,347.393,286.601z"/>
							
								<linearGradient id="SVGID_00000041291506652527587560000006017100160620732329_" gradientUnits="userSpaceOnUse" x1="764.6294" y1="323.3286" x2="793.7678" y2="323.3286" gradientTransform="matrix(0.9966 0.0826 -0.0826 0.9966 -381.3428 -92.5805)">
								<stop  offset="0" style="stop-color:#5761D7"/>
								<stop  offset="0.0726" style="stop-color:#5472D8"/>
								<stop  offset="0.2791" style="stop-color:#4E9CDB"/>
								<stop  offset="0.4801" style="stop-color:#49BDDD"/>
								<stop  offset="0.6715" style="stop-color:#45D5DF"/>
								<stop  offset="0.8493" style="stop-color:#43E3E0"/>
								<stop  offset="1" style="stop-color:#42E8E0"/>
							</linearGradient>
							<path style="fill:url(#SVGID_00000041291506652527587560000006017100160620732329_);" d="M382.499,294.853
								c-1.984,4.414-10.996,4.154-22.032,4.002c-2.807-0.039-5.039-0.895-6.81-2.147c1.864,1.868,4.448,3.301,8.007,3.35
								c10.457,0.144,18.998,0.39,20.877-3.793c0.617-1.373,0.834-4.22,0.79-7.67C383.286,291.396,383.037,293.656,382.499,294.853z
								"/>
						</g>
						<path style="fill:#F0F6FF;" d="M373.596,212.275c0,0,2.593,3.301-1.362,7.572c-2.434,2.629-6.651,8.323-10.272,14.255
							c-2.261,3.705-4.315,5.66-5.531,8.861c0,0-0.063-3.841-0.069-9.769c-0.005-5.595,0.064-11.407,0.35-12.864
							C357.302,217.328,370.678,210.736,373.596,212.275z"/>
						<path style="fill:#FCD1C5;" d="M363.356,221.756c0,0-1.391,0.817-1.861,0.735c-0.47-0.082-1.95-1.593-1.95-1.593
							s-3.793-0.163-4.167-1.799c-0.374-1.636-0.606-3.282-0.969-4.137c-0.363-0.854-1.899-4.951-1.871-6.597
							c0.028-1.646,0.163-4.585-0.509-6.159c-0.672-1.574-1.244-17.174,13.786-16.361c15.03,0.813,9.97,16.314,9.97,16.314
							s1.087,0.495,0.372,2.489c-0.715,1.994-0.869,2.198-1.233,3.188c-0.364,0.989-0.547,1.625-1.523,2.412l-0.295,1.846
							c0,0,0.643,2.846-1.294,5.549C369.872,220.344,363.356,221.756,363.356,221.756z"/>
						<path style="fill:#24126A;" d="M344.024,216.705c0,0-1.609,0.199-7.138,13.16c-3.085,7.232-7.754,14.685-8.839,20.09
							c-1.084,5.405-0.699,11.221,0.364,11.656c1.023,0.419,19.546,7.879,25.342,10.233c0.32,0.13,0.677-0.064,0.746-0.403
							l1.838-8.989l-11.491-4.771c0,0-2.143-2.755-4.195-3.82c0,0,2.433-4.229,2.314-5.402c-0.119-1.174,0.537-13.274-0.7-18.235
							C341.027,225.262,344.024,216.705,344.024,216.705z"/>
						<path style="fill:#FCD1C5;" d="M349.96,251.468c0,0-1.571-1.113-1.962-1.276c-0.392-0.163-2.51-0.946-2.913-1.138
							c-0.299-0.143-1.547-0.07-2.172-0.023c-0.227,0.017-0.427,0.143-0.54,0.34c-0.517,0.904-1.958,3.534-1.828,4.556
							c0,0,3.802,2.536,4.207,3.636l0.613,0.148C345.364,257.71,348.089,252.224,349.96,251.468z"/>
						<path style="fill:#24126A;" d="M380.932,267.181c-0.401-1.703-0.94-3.816-1.527-6.041l-23.747,9.489
							c0,0,6.818,8.823,19.159,8.574c3.375-0.068,5.863-1.223,7.695-2.223C382.065,273.121,381.491,269.549,380.932,267.181z"/>
						<path style="fill:#24126A;" d="M390.963,229.403c0,0-6.218,0.699-11.421,8.51c-5.203,7.811-9.08,16.903-9.08,16.903
							l-0.198,1.028c-0.518,2.687-3.432,4.163-5.902,2.985c-5.228-2.492-12.968-6.255-14.402-7.363c0,0-4.746,2.472-6.176,8.555
							c-1.14,4.851-0.881,4.872-0.881,4.872s20.624,10.257,28.684,10.361c8.06,0.104,18.942-26.136,20.203-31.584
							C393.051,238.224,394.472,231.039,390.963,229.403z"/>
						<path style="fill:#4846A5;" d="M390.963,229.403c0,0-6.218,0.699-11.421,8.51c-5.203,7.811-9.08,16.903-9.08,16.903
							l-0.198,1.028c-0.518,2.687-3.432,4.163-5.902,2.985c-5.228-2.492-12.968-6.255-14.402-7.363c0,0-4.746,2.472-6.176,8.555
							c-1.14,4.851-0.881,4.872-0.881,4.872s20.624,10.257,28.684,10.361c8.06,0.104,18.942-26.136,20.203-31.584
							C393.051,238.224,394.472,231.039,390.963,229.403z"/>
						<path style="fill:#453C9E;" d="M367.327,260.139c0,0,2.571,2.527,3.75,1.207c1.18-1.319,0.846-1.477,0.846-1.477
							s2.368,0.037,2.693-1.44c0.325-1.477,1.472-0.663,1.58-2.315c0.108-1.652-1.884-1.362-1.884-1.362L367.327,260.139z"/>
						<path style="fill:#FCD1C5;" d="M364.179,258.744c0,0,0.741-0.656,1.694-1.422c0.953-0.767,2.544-3.997,2.806-4.279
							c0.262-0.282,3.471-2.619,4.99-2.623c1.519-0.004,0.35,1.667-0.006,1.898c-0.355,0.231-1.856,0.931-1.856,0.931
							s-1.556,1.243-1.734,1.426c-0.178,0.183,4.246-0.198,4.936,0.249c0.69,0.447,0.499,1.57-0.003,1.865
							c-0.502,0.294-0.879,0.274-0.879,0.274s0.464,1.34-0.875,1.923c-1.339,0.583-1.635,0.233-1.635,0.233
							s-0.171,2.291-2.345,1.782L364.179,258.744z"/>
						<path style="fill:#AA8383;" d="M351.886,194.234c0,0-2.119,6.201,3.093,4.551c5.212-1.65,9.961-4.51,11.556-3.336
							c1.214,0.893,1.092,3.537,0.964,4.748c-0.044,0.413,0.055,0.825,0.281,1.173l1.476,2.265c0.167,0.256,0.262,0.551,0.276,0.856
							l0.071,1.552c0.018,0.39,0.323,0.707,0.712,0.739l0.352,0.029c0.393,0.033,0.749-0.235,0.826-0.622l0.455-2.266
							c0,0,1.293-3.031,3.834-1.764c0,0,1.777-2.268,1.328-7.221c-0.449-4.954-2.534-10.145-12.207-11.207
							C355.231,182.668,351.886,194.234,351.886,194.234z"/>
						<path style="fill:#C4CCD6;" d="M365.887,227.324l-1.422-1.161c0,0-1.369,1.082-1.922,2.25
							c-0.552,1.169-0.121,4.939-0.121,4.939l-0.461,0.749l-0.519-1.007l-0.349-4.454c0,0,0.575-3.271,0.625-3.354
							c0.05-0.083,2.79,0.362,2.79,0.362S365.444,226.398,365.887,227.324z"/>
						<path style="fill:#C4CCD6;" d="M359.024,222.729c0,0-1.553,0.064-2.264,0.627c0,0,1.624,0.12,1.881,0.156
							C358.898,223.548,359.024,222.729,359.024,222.729z"/>
						<path style="fill:#24126A;" d="M361.967,223.152l2.54,2.495c0,0-2.309,0.994-2.998,3.02c0,0-2.843,0.458-3.076-0.573
							c-0.233-1.032,0.097-3.607-0.213-4.761C357.913,222.18,361.967,223.152,361.967,223.152z"/>
						<path style="fill:#24126A;" d="M358.54,228.038c0,0-0.536,2.118-1.086,2.983c-0.55,0.865-1.116,1.837-1.116,1.837
							l-0.246,12.482c0,0,4.825-9.347,5.869-11.238c0,0-0.039-4.561-0.451-5.434C361.098,227.794,358.54,228.038,358.54,228.038z"/>
						<path style="fill:#E2B1A6;" d="M371.323,209.901c-3.231,8.625-11.779,10.997-11.779,10.997s1.48,1.511,1.95,1.593
							c0.47,0.082,1.861-0.735,1.861-0.735s6.516-1.412,8.454-4.114c1.938-2.702,1.294-5.549,1.294-5.549l0.295-1.846
							C372.042,210.655,371.323,209.901,371.323,209.901z"/>
						<path style="fill:#24126A;" d="M377.97,220.257c0,0-1.292,4.077-1.45,4.228c-0.157,0.151-2.987-0.248-2.987-0.248l1.314,2.645
							c0,0-14.66,14.96-17.824,23.123c0,0,7.016-10.273,19.218-22.447l-1.62-2.589l2.905,0.642L377.97,220.257z"/>
						<path style="fill:#24126A;" d="M354.603,216.049l-0.779,0.846l0.869,0.853l-2.699,2.321c0,0-1.223,16.731,1.725,27.908
							c0,0-4.125-10.287-2.681-28.388l2.905-1.867l-0.912-0.943L354.603,216.049z"/>
						<path style="fill:#160A5B;" d="M361.306,308.719c0,0,0.034,0.023,0.097,0.08l-3.601-4.029
							c1.648,2.45-0.593,13.428-0.86,15.947c-0.267,2.519,1.784,7.787,2.448,13.916c0.663,6.119-1.223,14.786-1.228,14.812
							c1.073-0.586,1.94-1.585,2.329-3.159c1.403-5.675,1.184-16.365-0.093-20.853C359.121,320.945,361.306,308.719,361.306,308.719
							z"/>
						
							<linearGradient id="SVGID_00000007404621571494846390000015038235813896361100_" gradientUnits="userSpaceOnUse" x1="751.2415" y1="286.3845" x2="798.6338" y2="286.3845" gradientTransform="matrix(0.9966 0.0826 -0.0826 0.9966 -381.3428 -92.5805)">
							<stop  offset="0" style="stop-color:#5761D7"/>
							<stop  offset="0.0726" style="stop-color:#5472D8"/>
							<stop  offset="0.2791" style="stop-color:#4E9CDB"/>
							<stop  offset="0.4801" style="stop-color:#49BDDD"/>
							<stop  offset="0.6715" style="stop-color:#45D5DF"/>
							<stop  offset="0.8493" style="stop-color:#43E3E0"/>
							<stop  offset="1" style="stop-color:#42E8E0"/>
						</linearGradient>
						<path style="fill:url(#SVGID_00000007404621571494846390000015038235813896361100_);" d="M371.586,275.256
							c8.06,0.104,18.942-26.136,20.203-31.584c0.21-0.909,0.424-1.868,0.619-2.839c-0.031,0.079-2.261,5.747-4.4,10.769
							c-2.155,5.056-13.307,20.269-18.835,21.141c-4.985,0.786-22.629-7.99-26.045-9.721c-0.359,1.852-0.226,1.873-0.226,1.873
							S363.526,275.152,371.586,275.256z"/>
						<path style="fill:#936D6D;" d="M370.668,206.81c0.393,0.033,0.749-0.235,0.826-0.622l0.455-2.266c0,0,1.293-3.031,3.834-1.764
							c0,0,1.676-2.154,1.354-6.833c-2.965,4.22-9.356,6.044-9.356,6.044l1.476,2.265c0.167,0.256,0.262,0.551,0.276,0.856
							l0.071,1.552c0.018,0.39,0.323,0.707,0.712,0.739L370.668,206.81z"/>
					</g>
				</g>
			</g>
		</g>
		<path style="fill:#24126A;" d="M301.813,93.466l46.704,26.965c2.172,1.254,3.933,4.618,3.933,7.514v44.542
			c0,2.896-1.761,4.227-3.933,2.973l-55.16-31.847L301.813,93.466z"/>
		<g>
			
				<linearGradient id="SVGID_00000055698774188876336850000000423397395800693387_" gradientUnits="userSpaceOnUse" x1="409.28" y1="144.677" x2="488.0143" y2="78.6111" gradientTransform="matrix(-1 0 0 1 745.5524 0)">
				<stop  offset="0" style="stop-color:#5761D7"/>
				<stop  offset="0.1779" style="stop-color:#5C66D9"/>
				<stop  offset="0.3876" style="stop-color:#6A73DF"/>
				<stop  offset="0.6134" style="stop-color:#8289E8"/>
				<stop  offset="0.849" style="stop-color:#A3A7F5"/>
				<stop  offset="1" style="stop-color:#BCBEFF"/>
			</linearGradient>
			<path style="fill:url(#SVGID_00000055698774188876336850000000423397395800693387_);" d="M258.45,68.069l2.274-1.625v0.001
				c0.712-0.543,1.698-0.565,2.787,0.064l79.468,45.881c2.172,1.254,3.932,4.618,3.932,7.514v44.542
				c0,1.515-0.485,2.596-1.255,3.108l0.008,0.003l-2.362,1.688l-0.13-1.727c-0.064-0.033-0.128-0.061-0.193-0.098l-79.468-45.881
				c-2.172-1.254-3.932-4.618-3.932-7.514V69.482c0-0.427,0.043-0.816,0.115-1.172L258.45,68.069z"/>
			
				<linearGradient id="SVGID_00000043415764518038897160000000942228188778921892_" gradientUnits="userSpaceOnUse" x1="407.6889" y1="124.9259" x2="416.2888" y2="117.7097" gradientTransform="matrix(-1 0 0 1 745.5524 0)">
				<stop  offset="0" style="stop-color:#C0BFF6"/>
				<stop  offset="0.2938" style="stop-color:#C5C4F7"/>
				<stop  offset="0.6399" style="stop-color:#D3D2F9"/>
				<stop  offset="1" style="stop-color:#E9E9FD"/>
			</linearGradient>
			<path style="fill:url(#SVGID_00000043415764518038897160000000942228188778921892_);" d="M346.706,118.123l-20.976,12.11
				l-5.283-3.05l23.822-13.754C345.416,114.624,346.32,116.363,346.706,118.123z"/>
			
				<linearGradient id="SVGID_00000147913070619911235300000007777617200810813057_" gradientUnits="userSpaceOnUse" x1="520.3706" y1="458.8067" x2="520.3706" y2="411.1497" gradientTransform="matrix(-0.866 -0.5 0 1.1547 751.5138 -123.4262)">
				<stop  offset="0" style="stop-color:#C0BFF6"/>
				<stop  offset="0.2938" style="stop-color:#C5C4F7"/>
				<stop  offset="0.6399" style="stop-color:#D3D2F9"/>
				<stop  offset="1" style="stop-color:#E9E9FD"/>
			</linearGradient>
			<path style="fill:url(#SVGID_00000147913070619911235300000007777617200810813057_);" d="M261.139,123.232l79.468,45.881
				c2.172,1.254,3.932-0.077,3.932-2.973v-44.542c0-2.896-1.761-6.26-3.932-7.514l-79.468-45.881
				c-2.172-1.254-3.932,0.077-3.932,2.973v44.542C257.207,118.614,258.967,121.978,261.139,123.232z"/>
			<path style="fill:#FFFFFF;" d="M344.109,166.367v-44.542c0-2.896-1.761-6.26-3.932-7.514l-79.468-45.881
				c-0.856-0.494-1.645-0.581-2.291-0.335c0.707-0.497,1.664-0.503,2.721,0.107l79.468,45.881c2.172,1.254,3.932,4.618,3.932,7.514
				v44.542c0,1.755-0.649,2.93-1.642,3.308C343.643,168.924,344.109,167.854,344.109,166.367z"/>
			<path style="fill:#5761D7;" d="M268.492,95.185l64.857,37.41c0.501,0.289,0.928,0.445,1.22-0.006
				c0.046-0.07,0.021-0.172,0.021-0.269v-9.838c0-0.764-0.465-1.652-1.038-1.983l-65.361-37.736
				c-0.051-0.03-0.099-0.081-0.151-0.073c-0.49,0.08-0.509,0.532-0.509,1.228l-0.158,9.436
				C267.374,94.119,267.919,94.854,268.492,95.185z"/>
			<path style="fill:#5761D7;" d="M268.357,116.575l64.967,37.443c0.5,0.289,1.147,0.592,1.245,0.02
				c0.014-0.083,0.022-0.174,0.022-0.271v-9.838c0-0.764-0.465-1.652-1.038-1.983l-65.361-37.736
				c-0.051-0.03-0.101-0.054-0.15-0.072c-0.502-0.192-0.634,0.456-0.634,1.152l-0.034,9.319
				C267.374,115.374,267.784,116.244,268.357,116.575z"/>
			<path style="fill:#FFFFFF;" d="M268.04,82.695c-0.014,0.082-0.021,0.172-0.021,0.268v9.838c0,0.764,0.465,1.652,1.038,1.983
				l65.361,37.736c0.052,0.03,0.102,0.049,0.152,0.068c-0.097,0.574-0.515,0.806-1.016,0.517l-65.361-37.736
				c-0.573-0.331-1.038-1.219-1.038-1.983v-9.838C267.155,82.853,267.54,82.506,268.04,82.695z"/>
			<path style="fill:#FFFFFF;" d="M268.04,104.144c-0.014,0.082-0.021,0.172-0.021,0.267v9.838c0,0.764,0.465,1.652,1.038,1.983
				l65.361,37.736c0.052,0.03,0.102,0.048,0.152,0.068c-0.097,0.574-0.515,0.806-1.016,0.517l-65.361-37.736
				c-0.573-0.331-1.038-1.219-1.038-1.983v-9.838C267.155,104.302,267.54,103.954,268.04,104.144z"/>
			<g>
				<g>
					<path style="fill:#FFFFFF;" d="M315.909,117.933l-0.799,1.513l-1.52-1.909l1.155-1.19l-1.729-1.761l0.565-1.459l1.56,1.914
						l-0.21-2.283l1.911,1.104l-0.201,2.037l1.562-0.094l0.578,2.102l-1.705-0.222l1.144,2.535l-1.494,0.16L315.909,117.933z"/>
				</g>
				<g>
					<path style="fill:#FFFFFF;" d="M308.396,113.595l-0.799,1.513l-1.52-1.909l1.155-1.19l-1.729-1.761l0.565-1.459l1.56,1.914
						l-0.21-2.283l1.912,1.104l-0.201,2.037l1.562-0.094l0.578,2.102l-1.705-0.222l1.144,2.535l-1.494,0.16L308.396,113.595z"/>
				</g>
				<g>
					<path style="fill:#FFFFFF;" d="M300.883,109.258l-0.799,1.512l-1.52-1.909l1.155-1.19l-1.729-1.761l0.565-1.459l1.56,1.914
						l-0.21-2.283l1.911,1.104l-0.201,2.037l1.562-0.094l0.578,2.102l-1.705-0.222l1.144,2.535l-1.494,0.16L300.883,109.258z"/>
				</g>
				<g>
					<path style="fill:#FFFFFF;" d="M293.371,104.921l-0.799,1.512l-1.52-1.909l1.155-1.19l-1.729-1.761l0.566-1.459l1.56,1.914
						l-0.21-2.283l1.911,1.104l-0.201,2.037l1.562-0.094l0.578,2.102l-1.705-0.222l1.144,2.535l-1.494,0.16L293.371,104.921z"/>
				</g>
				<g>
					<path style="fill:#FFFFFF;" d="M285.859,100.583l-0.799,1.513l-1.52-1.909l1.155-1.19l-1.729-1.761l0.565-1.459l1.56,1.914
						l-0.21-2.283l1.912,1.104l-0.201,2.037l1.562-0.094l0.578,2.102l-1.705-0.222l1.144,2.535l-1.494,0.16L285.859,100.583z"/>
				</g>
			</g>
			<g>
				<g>
					<path style="fill:#FFFFFF;" d="M315.909,139.382l-0.799,1.512l-1.52-1.909l1.155-1.19l-1.729-1.761l0.565-1.459l1.56,1.914
						l-0.21-2.283l1.911,1.104l-0.201,2.037l1.562-0.094l0.578,2.102l-1.705-0.222l1.144,2.535l-1.494,0.16L315.909,139.382z"/>
				</g>
				<g>
					<path style="fill:#FFFFFF;" d="M308.396,135.044l-0.799,1.513l-1.52-1.909l1.155-1.19l-1.729-1.761l0.565-1.459l1.56,1.914
						l-0.21-2.283l1.912,1.104l-0.201,2.037l1.562-0.094l0.578,2.102l-1.705-0.222l1.144,2.535l-1.494,0.16L308.396,135.044z"/>
				</g>
				<g>
					<path style="fill:#FFFFFF;" d="M300.883,130.707l-0.799,1.513l-1.52-1.909l1.155-1.19l-1.729-1.761l0.565-1.459l1.56,1.914
						l-0.21-2.283l1.911,1.104l-0.201,2.037l1.562-0.094l0.578,2.102l-1.705-0.222l1.144,2.535l-1.494,0.16L300.883,130.707z"/>
				</g>
				<g>
					<path style="fill:#FFFFFF;" d="M293.371,126.37l-0.799,1.513l-1.52-1.909l1.155-1.19l-1.729-1.761l0.566-1.459l1.56,1.914
						l-0.21-2.283l1.911,1.104l-0.201,2.037l1.562-0.094l0.578,2.102l-1.705-0.222l1.144,2.535l-1.494,0.16L293.371,126.37z"/>
				</g>
				<g>
					<path style="fill:#FFFFFF;" d="M285.859,122.032l-0.799,1.513l-1.52-1.909l1.155-1.19l-1.729-1.761l0.565-1.459l1.56,1.914
						l-0.21-2.283l1.912,1.104l-0.201,2.037l1.562-0.094l0.578,2.102l-1.705-0.222l1.144,2.535l-1.494,0.16L285.859,122.032z"/>
				</g>
			</g>
		</g>
	</g>
	<polygon style="opacity:0.3;fill:#4846A5;" points="283.087,340.915 273.175,346.638 263.263,340.915 273.175,335.193 	"/>
	<polygon style="opacity:0.1;fill:#4846A5;" points="316.115,296.424 306.204,302.147 296.292,296.424 306.203,290.702 	"/>
	<polygon style="opacity:0.1;fill:#4846A5;" points="272.08,144.521 262.168,150.243 252.256,144.521 262.168,138.798 	"/>
	<polygon style="opacity:0.3;fill:#4846A5;" points="327.124,315.493 317.212,321.216 307.3,315.493 317.211,309.77 	"/>
	<polygon style="opacity:0.3;fill:#4846A5;" points="448.214,283.714 438.302,289.437 428.39,283.714 438.302,277.992 	"/>
	<polygon style="opacity:0.3;fill:#4846A5;" points="214.842,194.234 204.93,199.957 195.018,194.234 204.93,188.511 	"/>
	<polygon style="opacity:0.3;fill:#4846A5;" points="454.855,194.078 444.943,199.8 435.031,194.078 444.943,188.355 	"/>
	<polygon style="opacity:0.1;fill:#4846A5;" points="149.889,204.267 139.977,209.989 130.065,204.266 139.977,198.544 	"/>
	<g>
		
			<linearGradient id="SVGID_00000088101276229176070200000012727605683231038884_" gradientUnits="userSpaceOnUse" x1="141.9063" y1="156.4638" x2="229.0459" y2="156.4638">
			<stop  offset="0" style="stop-color:#42E8E0"/>
			<stop  offset="0.1507" style="stop-color:#43E3E0"/>
			<stop  offset="0.3285" style="stop-color:#45D5DF"/>
			<stop  offset="0.5199" style="stop-color:#49BDDD"/>
			<stop  offset="0.7209" style="stop-color:#4E9CDB"/>
			<stop  offset="0.9274" style="stop-color:#5472D8"/>
			<stop  offset="1" style="stop-color:#5761D7"/>
		</linearGradient>
		<path style="fill:url(#SVGID_00000088101276229176070200000012727605683231038884_);" d="M185.477,182.385
			c-0.317,0-0.63-0.083-0.904-0.24l-41.76-24.11c-0.56-0.324-0.906-0.926-0.906-1.571c0-0.645,0.347-1.246,0.905-1.569
			l41.758-24.109c0.559-0.322,1.254-0.323,1.813,0.001l41.758,24.108c0.559,0.322,0.906,0.924,0.906,1.57
			c0,0.646-0.348,1.248-0.908,1.57l-41.755,24.109C186.106,182.302,185.794,182.385,185.477,182.385z M185.566,180.417h0.01H185.566
			z M144.078,156.463l41.399,23.902l41.397-23.901l-41.398-23.901L144.078,156.463z"/>
		
			<linearGradient id="SVGID_00000014601026040033256200000008538929430546279299_" gradientUnits="userSpaceOnUse" x1="147.8574" y1="154.7897" x2="201.4692" y2="154.7897">
			<stop  offset="0.2473" style="stop-color:#5761D7"/>
			<stop  offset="0.4363" style="stop-color:#6C74DF"/>
			<stop  offset="0.8245" style="stop-color:#A2A6F5"/>
			<stop  offset="1" style="stop-color:#BCBEFF"/>
		</linearGradient>
		<polygon style="fill:url(#SVGID_00000014601026040033256200000008538929430546279299_);" points="223.094,147.727 
			223.094,140.135 185.476,160.891 147.857,140.134 147.857,147.726 185.477,169.445 		"/>
		
			<linearGradient id="SVGID_00000137832338856435222370000009183819371234894745_" gradientUnits="userSpaceOnUse" x1="147.8574" y1="140.1345" x2="223.0945" y2="140.1345">
			<stop  offset="0" style="stop-color:#C0BFF6"/>
			<stop  offset="0.2938" style="stop-color:#C5C4F7"/>
			<stop  offset="0.6399" style="stop-color:#D3D2F9"/>
			<stop  offset="1" style="stop-color:#E9E9FD"/>
		</linearGradient>
		<polygon style="fill:url(#SVGID_00000137832338856435222370000009183819371234894745_);" points="185.477,161.854 
			147.857,140.134 185.475,118.415 223.094,140.135 		"/>
		<polygon style="opacity:0.5;fill:#FFFFFF;" points="185.477,161.228 148.399,139.822 147.857,140.134 185.477,161.854 
			223.094,140.135 222.553,139.822 		"/>
		<polygon style="fill:#0F054C;" points="185.476,153.561 162.22,140.134 185.476,126.708 208.732,140.135 		"/>
		<g>
			
				<linearGradient id="SVGID_00000016784280594691456760000011025301988937190825_" gradientUnits="userSpaceOnUse" x1="162.2196" y1="140.1348" x2="208.7323" y2="140.1348">
				<stop  offset="0" style="stop-color:#42E8E0"/>
				<stop  offset="0.1507" style="stop-color:#43E3E0"/>
				<stop  offset="0.3285" style="stop-color:#45D5DF"/>
				<stop  offset="0.5199" style="stop-color:#49BDDD"/>
				<stop  offset="0.7209" style="stop-color:#4E9CDB"/>
				<stop  offset="0.9274" style="stop-color:#5472D8"/>
				<stop  offset="1" style="stop-color:#5761D7"/>
			</linearGradient>
			<polygon style="opacity:0.5;fill:url(#SVGID_00000016784280594691456760000011025301988937190825_);" points="185.476,153.562 
				162.22,140.135 185.476,126.708 208.732,140.135 			"/>
			<g>
				
					<linearGradient id="SVGID_00000014601093803058707910000014056629870933426586_" gradientUnits="userSpaceOnUse" x1="185.4756" y1="124.0291" x2="208.7323" y2="124.0291">
					<stop  offset="0" style="stop-color:#42E8E0"/>
					<stop  offset="0.1507" style="stop-color:#43E3E0"/>
					<stop  offset="0.3285" style="stop-color:#45D5DF"/>
					<stop  offset="0.5199" style="stop-color:#49BDDD"/>
					<stop  offset="0.7209" style="stop-color:#4E9CDB"/>
					<stop  offset="0.9274" style="stop-color:#5472D8"/>
					<stop  offset="1" style="stop-color:#5761D7"/>
				</linearGradient>
				<polygon style="opacity:0.5;fill:url(#SVGID_00000014601093803058707910000014056629870933426586_);" points="185.476,107.923 
					208.732,121.351 208.732,140.135 185.476,126.707 				"/>
				
					<linearGradient id="SVGID_00000090997891860417646980000017224032184870693266_" gradientUnits="userSpaceOnUse" x1="162.2196" y1="124.0289" x2="185.4763" y2="124.0289">
					<stop  offset="0" style="stop-color:#42E8E0"/>
					<stop  offset="0.1507" style="stop-color:#43E3E0"/>
					<stop  offset="0.3285" style="stop-color:#45D5DF"/>
					<stop  offset="0.5199" style="stop-color:#49BDDD"/>
					<stop  offset="0.7209" style="stop-color:#4E9CDB"/>
					<stop  offset="0.9274" style="stop-color:#5472D8"/>
					<stop  offset="1" style="stop-color:#5761D7"/>
				</linearGradient>
				<polygon style="opacity:0.5;fill:url(#SVGID_00000090997891860417646980000017224032184870693266_);" points="185.476,126.707 
					162.22,140.134 162.22,121.35 185.476,107.923 				"/>
				
					<linearGradient id="SVGID_00000144332362717185741350000008595408171222504360_" gradientUnits="userSpaceOnUse" x1="162.2196" y1="121.3505" x2="208.7323" y2="121.3505">
					<stop  offset="0" style="stop-color:#42E8E0"/>
					<stop  offset="0.1507" style="stop-color:#43E3E0"/>
					<stop  offset="0.3285" style="stop-color:#45D5DF"/>
					<stop  offset="0.5199" style="stop-color:#49BDDD"/>
					<stop  offset="0.7209" style="stop-color:#4E9CDB"/>
					<stop  offset="0.9274" style="stop-color:#5472D8"/>
					<stop  offset="1" style="stop-color:#5761D7"/>
				</linearGradient>
				<polygon style="opacity:0.5;fill:url(#SVGID_00000144332362717185741350000008595408171222504360_);" points="185.476,134.778 
					162.22,121.35 185.476,107.923 208.732,121.351 				"/>
				
					<linearGradient id="SVGID_00000140693688062239063080000007111096084476817542_" gradientUnits="userSpaceOnUse" x1="185.4763" y1="137.4561" x2="208.7323" y2="137.4561">
					<stop  offset="0" style="stop-color:#42E8E0"/>
					<stop  offset="0.1507" style="stop-color:#43E3E0"/>
					<stop  offset="0.3285" style="stop-color:#45D5DF"/>
					<stop  offset="0.5199" style="stop-color:#49BDDD"/>
					<stop  offset="0.7209" style="stop-color:#4E9CDB"/>
					<stop  offset="0.9274" style="stop-color:#5472D8"/>
					<stop  offset="1" style="stop-color:#5761D7"/>
				</linearGradient>
				<polygon style="opacity:0.5;fill:url(#SVGID_00000140693688062239063080000007111096084476817542_);" points="185.476,134.778 
					185.476,153.562 208.732,140.135 208.732,121.351 				"/>
			</g>
			
				<linearGradient id="SVGID_00000114045076122943493740000005953866887350642365_" gradientUnits="userSpaceOnUse" x1="162.2196" y1="137.4559" x2="185.4763" y2="137.4559">
				<stop  offset="0" style="stop-color:#42E8E0"/>
				<stop  offset="0.1507" style="stop-color:#43E3E0"/>
				<stop  offset="0.3285" style="stop-color:#45D5DF"/>
				<stop  offset="0.5199" style="stop-color:#49BDDD"/>
				<stop  offset="0.7209" style="stop-color:#4E9CDB"/>
				<stop  offset="0.9274" style="stop-color:#5472D8"/>
				<stop  offset="1" style="stop-color:#5761D7"/>
			</linearGradient>
			<polygon style="opacity:0.5;fill:url(#SVGID_00000114045076122943493740000005953866887350642365_);" points="162.22,121.35 
				162.22,140.134 185.476,153.562 185.476,134.778 			"/>
		</g>
	</g>
</g>
</svg>
