<?xml version="1.0" encoding="UTF-8"?>
<svg id="OBJECTS" xmlns="http://www.w3.org/2000/svg" viewBox="0 0 16.35 14.62">
    <defs>
        <style>
            .cls-1 {
            fill: #f36617;
            }
        </style>
    </defs>
    <path class="cls-1"
          d="M3.46,10.02l-1.52,4.59H0L4.96.02h2.27l4.98,14.59h-2.01l-1.56-4.59H3.46ZM8.25,8.55l-1.43-4.2c-.32-.95-.54-1.82-.76-2.66h-.04c-.22.87-.45,1.75-.74,2.64l-1.43,4.22h4.4Z"/>
    <path class="cls-1"
          d="M16.34,1.19c.02.65-.45,1.17-1.21,1.17-.67,0-1.15-.52-1.15-1.17s.5-1.19,1.19-1.19,1.17.52,1.17,1.19ZM14.22,14.62V4.14h1.91v10.48h-1.91Z"/>
</svg>