<?xml version="1.0" encoding="UTF-8"?>
<svg id="Layer_1" data-name="Layer 1" xmlns="http://www.w3.org/2000/svg" viewBox="0 0 249 79">
    <defs>
        <style>
            .cls-1 {
            fill: #fff;
            }

            .cls-2 {
            fill: #ef4334;
            }

            .cls-3 {
            fill: #17313b;
            }
        </style>
    </defs>
    <rect class="cls-1" width="249" height="79" rx="9" ry="9"/>
    <path class="cls-3"
          d="M70.8,9.7h9.65v60.3h-9.65V9.7ZM114.22,50.77c0,9.23-7.76,9.96-10.07,9.96-5.77,0-6.82-5.4-6.82-8.65v-23.08h-9.65v23.03c0,5.72,1.79,10.43,4.94,13.58,2.78,2.78,6.94,4.3,11.45,4.3,3.2,0,7.73-1,10.14-3.2v3.29h9.65V29h-9.65v21.77ZM143.17,14.53h-9.65v14.47h-7.24v9.65h7.24v31.36h9.65v-31.36h7.24v-9.65h-7.24v-14.47ZM180.79,57.75c-2.1,1.89-4.87,2.94-7.92,2.94-6.71,0-11.64-4.93-11.64-11.69s4.77-11.49,11.64-11.49c2.99,0,5.82,1,7.97,2.88l1.46,1.26,6.51-6.5-1.63-1.47c-3.83-3.46-8.91-5.4-14.32-5.4-12.06,0-20.82,8.7-20.82,20.66s8.97,20.92,20.82,20.92c5.51,0,10.64-1.94,14.42-5.45l1.57-1.47-6.61-6.5-1.47,1.31ZM223.25,32.57c-2.78-2.78-6.04-4.3-10.55-4.3-3.2,0-6.82,1-9.23,3.2V9.7h-9.65v60.3h9.65v-22.59c0-9.23,6.56-9.96,8.86-9.96,5.77,0,5.61,5.4,5.61,8.65v23.9h9.65v-23.85c0-5.72-1.19-10.43-4.34-13.58"/>
    <path class="cls-2"
          d="M172.55,42.12c3.85,0,6.98,3.12,6.98,6.98s-3.12,6.98-6.98,6.98-6.98-3.12-6.98-6.98,3.12-6.98,6.98-6.98"/>
    <path class="cls-3"
          d="M57.29,54.86c-3.67,3.77-8.65,5.82-13.9,5.82-10.75,0-18.56-8.44-18.56-20.03s7.82-20.08,18.56-20.08c5.19,0,10.12,2.04,13.85,5.77l1.47,1.47,6.45-6.45-1.42-1.47c-5.35-5.51-12.58-8.49-20.35-8.49-15.84,0-27.74,12.58-27.74,29.31s11.96,29.21,27.74,29.21c7.82,0,15.05-3.04,20.4-8.55l1.42-1.47-6.4-6.55s-1.52,1.52-1.52,1.52Z"/>
</svg>