<?xml version="1.0" encoding="UTF-8"?>
<svg id="Layer_2" xmlns="http://www.w3.org/2000/svg" viewBox="0 -120 297.6 300.9">
    <defs>
        <style>
            .cls-1 {
            fill: #fff;
            }

            .cls-2 {
            fill: #fff;
            }
        </style>
    </defs>
    <g id="Layer_1-2" data-name="Layer_1">
        <g>
            <path class="cls-2"
                  d="M27.7,34.7c-3.3-6.6-8.9-9.7-15.8-11,.8-7.8,1.7-15.7,2.5-23.7.7.3,1.2.5,1.8.7,2.4.9,4.6,2.2,6.6,3.9,1.9,1.5,3.4,3.4,4.3,5.5.4.8.7,1.8.7,2.8v21c-.1.4-.1.6-.1.8Z"/>
            <path class="cls-2"
                  d="M29,34.8V16c0-.8,0-1.9-.1-2.7-.1-1.2.2-2.3.7-3.4,1-2.2,2.5-4,4.4-5.5,2.4-1.9,5-3.2,7.7-4.2.1,0,.2-.1.4-.1.1.7.2,1.2.2,1.9.3,2.2.5,4.4.7,6.6.2,2,.5,3.8.7,5.8.3,2.1.5,4.3.7,6.4.1.8.2,1.8.3,2.6,0,.2,0,.3-.2.4-1.9.3-3.5.8-5.3,1.5-3.8,1.6-7,4-9.1,7.5-.2.6-.6,1.3-1.1,2Z"/>
            <path class="cls-1"
                  d="M5.4,11.6c-.2,1.1-.3,2.2-.5,3.4-.2,1.6-.5,3.3-.7,4.8-.4,2.7-.7,5.6-1,8.3-.2,1.3-.4,2.5-.6,3.9,0,.3,0,.4.4.4,2.9-.6,5.8-.7,8.8-.5,2.9.3,5.8.8,8.4,2.2,2.2,1,4.1,2.4,5.7,4.2.1.1.2.3.3.5-4-2.4-8.3-3.6-12.9-3.7-4.6-.1-9,.8-13.3,2.8,0-.4.1-.7.1-.9.3-2.5.6-4.8.8-7.4.3-2.5.6-5,.8-7.5.2-1.9.5-3.8.7-5.7.2-1.3.3-2.5.5-3.9,0-.1.1-.3.2-.3.5-.2,1.4-.4,2.3-.6Z"/>
            <path class="cls-1"
                  d="M52.6,32.2c-.8-6.9-1.8-13.8-2.6-20.7.3,0,.5.1.7.1.7.1,1.1.3,1.8.4.3.1.4.2.4.5.1,1,.3,2.1.4,3.2.3,2.3.6,4.7.8,7,.2,2,.5,3.8.7,5.8.3,2.1.5,4.2.7,6.2.1.8.2,1.9.4,2.7v.3c-8.9-3.7-17.6-4-26.3.9.1-.2.2-.3.3-.4,2-2.4,4.6-4,7.5-5.1,3.4-1.2,7-1.7,10.6-1.5,1.2.2,2.8.4,4.6.6-.2,0-.1,0,0,0Z"/>
            <path class="cls-2"
                  d="M26.2,36.7c-2.4-3.4-5.6-5.5-9.5-6.4-2.6-.7-5.2-.7-7.8-.5-1,.1-2.2.3-3.4.5v-.4c.2-2,.4-4,.5-5.9.2-2.2.4-4.4.6-6.6.2-2,.4-3.8.5-5.8.1-1,.2-2.2.3-3.3,0-.2.1-.5.3-.6,1-.7,2.2-1.3,3.4-2v.6c-.2,2.5-.5,4.8-.7,7.4-.3,2.8-.6,5.6-.8,8.4-.2,1.5-.3,3-.5,4.5,0,.3.1.4.3.4,3,.2,6,.7,8.8,1.9,2.5.9,4.6,2.3,6.2,4.3.8.9,1.4,2.2,1.8,3.5,0-.1,0,0,0,0Z"/>
        </g>
        <g>
            <path class="cls-2"
                  d="M71.1,38.2V7.2h14.5c3.2,0,5.8.7,7.8,2s3,3.4,3,6.2c0,3.1-1.5,5.3-4.4,6.7,3.5,1.3,5.3,3.8,5.3,7.5,0,2.9-1.1,5.1-3.2,6.5s-4.8,2.1-8.2,2.1h-14.8ZM78.4,19.6h6.7c2.6,0,4-1,4-3s-1.3-3.1-4-3.1h-6.7v6.1ZM78.4,31.9h7.1c3,0,4.5-1.1,4.5-3.3,0-1.1-.4-1.9-1.2-2.4s-1.8-.8-3.1-.8h-7.3v6.5Z"/>
            <path class="cls-2"
                  d="M112.4,38.9c-3.8,0-7-1.2-9.4-3.6-2.4-2.4-3.6-5.5-3.6-9.3s1.2-6.9,3.6-9.3c2.4-2.4,5.6-3.6,9.4-3.6s7,1.2,9.4,3.6c2.4,2.4,3.6,5.5,3.6,9.3s-1.2,6.9-3.6,9.3-5.5,3.6-9.4,3.6ZM108.1,30.5c1.1,1.2,2.5,1.8,4.3,1.8s3.2-.6,4.3-1.8c1.1-1.2,1.6-2.7,1.6-4.5s-.5-3.3-1.6-4.5-2.5-1.8-4.3-1.8-3.2.6-4.3,1.8c-1.1,1.2-1.6,2.7-1.6,4.5s.6,3.3,1.6,4.5Z"/>
            <path class="cls-2"
                  d="M140.6,38.9c-3.8,0-7-1.2-9.4-3.6-2.4-2.4-3.6-5.5-3.6-9.3s1.2-6.9,3.6-9.3,5.6-3.6,9.4-3.6,7,1.2,9.4,3.6c2.4,2.4,3.6,5.5,3.6,9.3s-1.2,6.9-3.6,9.3c-2.4,2.4-5.5,3.6-9.4,3.6ZM136.3,30.5c1.1,1.2,2.5,1.8,4.3,1.8s3.2-.6,4.3-1.8,1.6-2.7,1.6-4.5-.5-3.3-1.6-4.5-2.5-1.8-4.3-1.8-3.2.6-4.3,1.8-1.6,2.7-1.6,4.5.5,3.3,1.6,4.5Z"/>
            <path class="cls-2"
                  d="M170.4,25.9l10.4,11.9v.4h-8.6l-8.3-10.3v10.3h-7.1V6.1h7.1v18l8.1-10.4h8.3v.4l-9.9,11.8Z"/>
            <path class="cls-2"
                  d="M197.1,38.7c-3.4,0-5.9-1.2-7.4-3.5v2.9h-7.1V6h7.1v10.6c1.6-2.3,4-3.5,7.4-3.5s6.1,1.2,8.1,3.7,3.1,5.5,3.1,9.1-1,6.7-3.1,9.1-4.7,3.7-8.1,3.7ZM191.2,30.5c1.1,1.2,2.5,1.8,4.2,1.8s3.1-.6,4.2-1.8c1.1-1.2,1.6-2.7,1.6-4.5s-.5-3.3-1.6-4.5c-1-1.2-2.4-1.8-4.2-1.8s-3.1.6-4.2,1.8c-1.1,1.2-1.6,2.7-1.6,4.5-.1,1.8.5,3.3,1.6,4.5Z"/>
            <path class="cls-2" d="M211.4,38.2V6.1h7.1v32.1h-7.1Z"/>
            <path class="cls-2"
                  d="M232.9,38.7c-3.4,0-6.1-1.2-8.1-3.7-2-2.4-3.1-5.5-3.1-9.1s1-6.7,3.1-9.1c2-2.4,4.7-3.7,8.1-3.7s5.8,1.2,7.3,3.5v-3h7.2v24.5h-7.2v-2.9c-1.5,2.4-3.9,3.5-7.3,3.5ZM230.4,30.5c1.1,1.2,2.5,1.8,4.2,1.8s3.1-.6,4.2-1.8c1.1-1.2,1.6-2.7,1.6-4.5s-.5-3.3-1.6-4.5-2.5-1.8-4.2-1.8-3.1.6-4.2,1.8c-1.1,1.2-1.6,2.7-1.6,4.5,0,1.8.6,3.3,1.6,4.5Z"/>
            <path class="cls-2" d="M250.8,38.2v-4.7l11.5-13.7h-11v-6h20.5v4.8l-11.6,13.7h11.9v6h-21.3v-.1Z"/>
            <path class="cls-2"
                  d="M286.6,38.9c-4,0-7.2-1.2-9.5-3.5s-3.5-5.5-3.5-9.4,1.2-6.9,3.5-9.3c2.3-2.4,5.4-3.6,9.1-3.6s6.4,1.2,8.4,3.5,3,5.4,3,9.2c0,1-.1,1.8-.2,2.4h-16.4c.2,1.5.9,2.6,2.1,3.3,1.3.7,2.8,1.1,4.5,1.1,3.3,0,6.2-.7,8.6-2.2h.4v6.4c-2.9,1.4-6.2,2.1-10,2.1ZM280.8,23.3h9.7c0-1.4-.4-2.5-1.2-3.2-.8-.8-1.8-1.1-3.2-1.1-1.5,0-2.7.4-3.7,1.1-.9.7-1.4,1.8-1.6,3.2Z"/>
        </g>
    </g>
</svg>
