<?xml version="1.0" encoding="UTF-8"?>
<svg id="OBJECTS" xmlns="http://www.w3.org/2000/svg" viewBox="0 0 391.29 125.49">
    <defs>
        <style>
            .cls-1 {
            fill: #000;
            }
        </style>
    </defs>
    <path class="cls-1"
          d="M388.57,85.77c-.67,0-1.27.43-1.58,1.33-4.01,11.45-9.43,18.25-13.89,18.25-2.56,0-3.6-2.86-3.6-7.34,0-11.21,6.71-34.98,10.1-45.82.39-1.31.65-2.49.65-3.48,0-3.15-1.72-4.7-5.99-4.7-4.6,0-9.55,1.8-14.36,10.23-1.66-7.43-6.69-10.68-13.71-10.68-8.12,0-15.96,5.22-22.42,13.7-6.46,8.47-14.05,11.25-19.76,9.88,4.11-10.06,5.63-17.57,5.63-23.15,0-8.75-4.32-14.03-11.31-14.03-10.62,0-16.75,10.13-16.75,20.8,0,8.24,3.74,16.71,11.95,20.82-6.89,15.57-16.94,29.66-20.76,29.66-4.93,0-6.38-24.12-6.11-41.38.18-9.9,1-10.41,1-13.4,0-1.72-1.11-2.9-5.6-2.9-10.45,0-13.68,8.84-14.17,19-.16,3.86-.76,7.69-1.8,11.41-4.36,15.57-13.36,27.39-19.23,27.39-2.72,0-3.46-2.72-3.46-6.28,0-11.21,6.28-25.22,6.28-37.17,0-8.78-3.85-14.34-11.11-14.34-8.55,0-19.86,10.17-30.56,29.23,3.52-14.6,4.97-28.72-5.46-28.72-2.26.03-4.48.61-6.48,1.68-1.37.64-2.2,2.05-2.11,3.56,1,15.54-12.52,55.33-25.34,55.33-2.33,0-3.46-2.52-3.46-6.59,0-11.23,6.69-34.94,10.06-45.8.43-1.41.67-2.62.67-3.68,0-2.97-1.84-4.5-6.01-4.5-4.58,0-9.55,1.74-14.34,10.17-1.68-7.43-6.71-10.68-13.74-10.68-11.52,0-24.4,12.19-30.05,28.08-7.57,21.21-22.83,41.69-43.38,41.69-18.65,0-28.49-15.52-28.49-40.03,0-35.39,25.98-64.31,45.25-64.31,9.21,0,13.62,5.87,13.62,14.87,0,10.9-6.09,15.96-6.09,20.11,0,1.27,1.06,2.52,3.15,2.52,8.37,0,18.23-9.84,18.23-23.26S83.17,0,63.9,0C32.05,0,0,32.05,0,73.11c0,32.67,16.12,52.37,44,52.37,19.02,0,35.63-14.79,44.59-32.05,1.02,14.3,7.51,21.78,17.41,21.78,8.8,0,15.93-5.24,21.36-14.46,2.09,9.64,7.65,14.36,14.87,14.36,8.27,0,15.2-5.24,21.79-14.99-.1,7.65,1.64,14.85,8.28,14.85,3.13,0,6.87-.73,7.53-3.46,6.98-28.88,24.24-52.45,29.52-52.45,1.57,0,1.99,1.51,1.99,3.29,0,7.85-5.54,23.93-5.54,34.2,0,11.09,4.72,18.43,14.46,18.43,10.8,0,21.77-13.23,29.09-32.56,2.29,18.06,7.24,32.63,14.99,32.63,9.51,0,26.39-20.01,36.62-41.2,4.01.51,10.04.37,15.83-3.72-2.46,6.24-3.91,13.07-3.91,19.9,0,19.66,9.39,25.18,17.47,25.18,8.79,0,15.91-5.24,21.36-14.46,1.8,8.32,6.4,14.34,14.85,14.34,13.23,0,24.71-13.52,24.71-24.61,0-2.93-1.25-4.71-2.72-4.71h0ZM114.06,104.32c-5.34,0-7.43-5.38-7.43-13.4,0-13.93,9.53-37.19,19.6-37.19,4.4,0,6.07,5.18,6.07,11.52,0,14.14-9.06,39.07-18.24,39.07h0ZM297.01,62.74c-3.19-3.8-4.34-8.96-4.34-13.56,0-5.67,2.07-10.47,4.56-10.47s3.25,2.45,3.25,5.85c0,5.69-2.04,14.01-3.46,18.18ZM338.43,104.32c-5.34,0-7.43-6.18-7.43-13.4,0-13.44,9.53-37.19,19.68-37.19,4.4,0,5.97,5.15,5.97,11.52,0,14.14-8.9,39.07-18.21,39.07h0Z"/>
</svg>