<svg xmlns:xlink="http://www.w3.org/1999/xlink" fill="#D45681" height="200px" width="200px" version="1.1" id="Layer_1"
     xmlns="http://www.w3.org/2000/svg" viewBox="0 0 511.999 511.999" xml:space="preserve" stroke="#D45681"><g id="SVGRepo_bgCarrier" stroke-width="0"></g>
    <g id="SVGRepo_tracerCarrier" stroke-linecap="round" stroke-linejoin="round"></g>
    <g id="SVGRepo_iconCarrier"> <g> <g> <path
            d="M395.128,66.782H116.869c-9.22,0-16.695,7.475-16.695,16.695v200.346c0,9.22,7.475,16.695,16.695,16.695h278.258 c9.22,0,16.695-7.475,16.695-16.695V83.478C411.823,74.257,404.348,66.782,395.128,66.782z M205.912,267.128h-72.347V100.173 h72.347V267.128z M378.432,267.128H239.303v-66.782h139.129V267.128z M378.432,166.955H239.303v-66.782h139.129V166.955z"></path> </g> </g>
        <g> <g> <path
                d="M495.303,333.91h-16.695V33.391h16.693c9.22,0,16.695-7.475,16.695-16.696c0-9.22-7.475-16.695-16.695-16.695 C485.127,0,32.05,0,16.696,0C7.476,0,0.001,7.475,0.001,16.695c0,9.22,7.475,16.696,16.695,16.696h16.695V333.91H16.696 c-9.22,0-16.695,7.475-16.695,16.695c0,9.22,7.475,16.695,16.695,16.695c8.861,0,210.517,0,222.607,0v82.574l-88.757,29.586 c-8.747,2.916-13.475,12.371-10.559,21.119c2.919,8.756,12.38,13.472,21.119,10.559L256,479.507l94.894,31.631 c8.745,2.914,18.201-1.81,21.119-10.559c2.916-8.747-1.812-18.203-10.559-21.119l-88.757-29.586v-82.574 c12.104,0,213.747,0,222.607,0c9.22,0,16.696-7.475,16.696-16.695C511.999,341.385,504.523,333.91,495.303,333.91z M445.214,333.91H66.783V33.391h378.431V333.91z"></path> </g> </g> </g></svg>