<?xml version="1.0" encoding="UTF-8"?>
<svg xmlns="http://www.w3.org/2000/svg" viewBox="0 0 553.78 513.36">
    <defs>
        <style>
            .cls-1 {
            fill: #27675c;
            }

            .cls-2 {
            fill: #534532;
            }

            .cls-3 {
            fill: #d9d8db;
            }

            .cls-4 {
            fill: #28251e;
            }

            .cls-4, .cls-5, .cls-6, .cls-7, .cls-8, .cls-9, .cls-10 {
            opacity: .5;
            }

            .cls-11 {
            fill: #d6e585;
            }

            .cls-12 {
            fill: #ea6200;
            }

            .cls-13 {
            fill: #57565c;
            }

            .cls-14, .cls-15, .cls-16, .cls-17, .cls-5, .cls-18, .cls-19, .cls-20, .cls-21, .cls-22, .cls-23, .cls-8,
            .cls-24, .cls-25, .cls-26, .cls-27 {
            fill: none;
            }

            .cls-14, .cls-15, .cls-16, .cls-18, .cls-19, .cls-20, .cls-21, .cls-22, .cls-23, .cls-26 {
            stroke-linecap: round;
            }

            .cls-14, .cls-20, .cls-22 {
            stroke-linejoin: round;
            }

            .cls-14, .cls-26 {
            stroke: #d3bbba;
            stroke-width: 2.41px;
            }

            .cls-28 {
            fill: #2d2e30;
            }

            .cls-15, .cls-16, .cls-17, .cls-5, .cls-18, .cls-19, .cls-21, .cls-23, .cls-8, .cls-24, .cls-25, .cls-26,
            .cls-27 {
            stroke-miterlimit: 10;
            }

            .cls-15, .cls-5, .cls-19, .cls-20, .cls-8, .cls-25, .cls-27 {
            stroke: #fff;
            }

            .cls-15, .cls-18, .cls-20, .cls-22 {
            stroke-width: 9.44px;
            }

            .cls-16 {
            stroke-width: 5.64px;
            }

            .cls-16, .cls-17 {
            stroke: #efe1d1;
            }

            .cls-17 {
            stroke-width: 4.9px;
            }

            .cls-29 {
            fill: #797882;
            }

            .cls-30 {
            fill: #f7dc4d;
            }

            .cls-31 {
            fill: #fdf7d0;
            }

            .cls-32 {
            fill: #706362;
            }

            .cls-33 {
            fill: #c3a534;
            }

            .cls-34 {
            fill: #f7e05d;
            }

            .cls-35, .cls-6 {
            fill: #fff;
            }

            .cls-36 {
            fill: #497fc1;
            }

            .cls-5 {
            stroke-width: 5px;
            }

            .cls-5, .cls-37, .cls-38, .cls-39, .cls-7, .cls-40, .cls-41, .cls-42, .cls-43, .cls-8, .cls-25 {
            mix-blend-mode: overlay;
            }

            .cls-37 {
            opacity: .42;
            }

            .cls-44 {
            fill: #d43d35;
            }

            .cls-18, .cls-22 {
            stroke: #dcc3c2;
            }

            .cls-38 {
            opacity: .29;
            }

            .cls-45 {
            fill: #d46821;
            }

            .cls-39 {
            opacity: .15;
            }

            .cls-46 {
            fill: #6a5e5e;
            }

            .cls-47 {
            fill: #f6e781;
            }

            .cls-48 {
            fill: #de7631;
            }

            .cls-49 {
            fill: #df871e;
            }

            .cls-50 {
            fill: #ea971e;
            }

            .cls-51 {
            fill: #8a8a91;
            }

            .cls-19, .cls-21 {
            stroke-width: 4.76px;
            }

            .cls-52 {
            fill: #78c283;
            }

            .cls-53 {
            isolation: isolate;
            }

            .cls-40 {
            opacity: .25;
            }

            .cls-21 {
            stroke: #28251e;
            }

            .cls-54 {
            fill: #acacb2;
            }

            .cls-41 {
            opacity: .39;
            }

            .cls-55 {
            fill: #67573e;
            }

            .cls-56 {
            fill: #e25f3f;
            }

            .cls-42 {
            opacity: .14;
            }

            .cls-57 {
            mix-blend-mode: multiply;
            }

            .cls-57, .cls-25 {
            opacity: .2;
            }

            .cls-58 {
            fill: #f7f8f4;
            }

            .cls-59 {
            fill: #7fae4c;
            }

            .cls-60 {
            fill: #c6c5ca;
            }

            .cls-61 {
            fill: #43ad98;
            }

            .cls-62 {
            fill: #e1e1e3;
            }

            .cls-43 {
            opacity: .19;
            }

            .cls-63 {
            fill: #e5a704;
            }

            .cls-64 {
            fill: #ead085;
            }

            .cls-65 {
            fill: #f9ed9d;
            }

            .cls-66 {
            fill: #48a6d3;
            }

            .cls-23 {
            stroke: #f7e05d;
            stroke-width: 1.13px;
            }

            .cls-8 {
            stroke-dasharray: 7.79 8.9;
            stroke-width: 2.22px;
            }

            .cls-24 {
            stroke: #534532;
            stroke-width: 5.13px;
            }

            .cls-67 {
            fill: #53a760;
            }

            .cls-68 {
            fill: #2d2828;
            }

            .cls-69 {
            fill: #348a7a;
            }

            .cls-9 {
            fill: #3e3e42;
            }

            .cls-70 {
            opacity: .1;
            }

            .cls-25 {
            stroke-dasharray: 2.34 9.36;
            stroke-width: 2.34px;
            }

            .cls-71 {
            fill: #2e50a2;
            }

            .cls-72 {
            opacity: .08;
            }

            .cls-27 {
            stroke-width: 7.14px;
            }

            .cls-73 {
            fill: #443728;
            }
        </style>
    </defs>
    <g class="cls-53">
        <g id="Layer_2" data-name="Layer 2">
            <g id="BACKGROUND">
                <g>
                    <circle class="cls-8" cx="287.03" cy="256.68" r="242.87"/>
                    <circle class="cls-5" cx="287.03" cy="256.68" r="227.51"/>
                    <circle class="cls-25" cx="287.03" cy="256.68" r="255.51"/>
                    <g>
                        <path class="cls-48"
                              d="M328.79,81.57c0,32.16-26.07,58.23-58.23,58.23s-58.23-26.07-58.23-58.23,26.07-58.23,58.23-58.23,58.23,26.07,58.23,58.23Z"/>
                        <path class="cls-45"
                              d="M318.59,81.57c0,26.52-21.5,48.03-48.03,48.03s-48.03-21.5-48.03-48.03,21.5-48.03,48.03-48.03,48.03,21.5,48.03,48.03Z"/>
                        <path class="cls-31"
                              d="M313.77,81.57c0,23.86-19.35,43.21-43.21,43.21s-43.21-19.35-43.21-43.21,19.35-43.21,43.21-43.21,43.21,19.35,43.21,43.21Z"/>
                        <path class="cls-47"
                              d="M270.56,44.88c22.77,0,41.41,17.61,43.08,39.95.08-1.08.13-2.16.13-3.26,0-23.86-19.35-43.21-43.21-43.21s-43.21,19.35-43.21,43.21c0,1.1.05,2.18.13,3.26,1.67-22.34,20.31-39.95,43.08-39.95Z"/>
                        <path class="cls-32"
                              d="M275.8,81.57c0,2.89-2.35,5.24-5.24,5.24s-5.24-2.35-5.24-5.24,2.35-5.24,5.24-5.24,5.24,2.35,5.24,5.24Z"/>
                        <path class="cls-32"
                              d="M271.1,86.12l-2.85-1.25,17.51-40.06c.17-.38.47-.67.86-.83.38-.15.81-.14,1.19.02.79.34,1.15,1.26.8,2.05l-17.51,40.06Z"/>
                        <line class="cls-23" x1="260.09" y1="75.44" x2="302.87" y2="100.75"/>
                        <path class="cls-34"
                              d="M272.97,81.57c0,1.33-1.08,2.41-2.41,2.41s-2.41-1.08-2.41-2.41,1.08-2.41,2.41-2.41,2.41,1.08,2.41,2.41Z"/>
                        <path class="cls-38"
                              d="M270.56,23.35v116.46c32.16,0,58.23-26.07,58.23-58.23s-26.07-58.23-58.23-58.23Z"/>
                        <rect class="cls-47" x="268.15" y="43.89" width="4.82" height="10.56"/>
                        <rect class="cls-47" x="268.15" y="108.45" width="4.82" height="10.56"/>
                        <rect class="cls-47" x="300.43" y="76.17" width="4.82" height="10.56"
                              transform="translate(384.28 -221.39) rotate(90)"/>
                        <rect class="cls-47" x="235.87" y="76.17" width="4.82" height="10.56"
                              transform="translate(319.72 -156.83) rotate(90)"/>
                        <path class="cls-32"
                              d="M252.87,80.01c0-.43-.18-.83-.5-1.11s-.74-.42-1.16-.38l-19.79,1.96c-.64.06-1.13.61-1.13,1.25,0,.65.5,1.18,1.14,1.24l19.82,1.67c.42.04.84-.11,1.16-.4s.49-.7.49-1.12l18.66-.13-.02-3.11-18.66.13Z"/>
                    </g>
                    <circle class="cls-56" cx="521.82" cy="387.59" r="21.37"/>
                    <g>
                        <circle class="cls-56" cx="435.63" cy="182.95" r="64.83"/>
                        <circle class="cls-35" cx="435.63" cy="182.95" r="54.05"/>
                        <circle class="cls-56" cx="435.63" cy="182.95" r="40.38"/>
                        <circle class="cls-35" cx="435.63" cy="182.95" r="26.36"/>
                        <circle class="cls-56" cx="435.63" cy="182.95" r="13.16"
                                transform="translate(-1.77 361.62) rotate(-45)"/>
                        <path class="cls-57" d="M434.85,184.8l45.29,45.29s20.32-16.15,20.32-47.14h-62.72l-2.89,1.85Z"/>
                        <rect class="cls-13" x="435.63" y="181.34" width="64.02" height="3.23"/>
                        <polygon class="cls-65"
                                 points="505.19 181.8 486.28 181.8 495.73 169.79 514.64 169.79 505.19 181.8"/>
                        <polygon class="cls-65"
                                 points="495.73 196.11 514.64 196.11 505.19 184.1 486.28 184.1 495.73 196.11"/>
                        <polygon class="cls-60"
                                 points="450.16 175.3 434.85 181.1 434.85 184.8 450.16 190.6 444.69 182.95 450.16 175.3"/>
                    </g>
                    <g>
                        <g>
                            <rect class="cls-49" y="208.94" width="56.68" height="56.68"/>
                            <rect class="cls-50" y="208.94" width="56.68" height="12.15"/>
                        </g>
                        <polygon class="cls-39"
                                 points="13.17 247.84 56.68 260.97 56.68 221.09 56.68 208.94 30.81 208.94 13.17 247.84"/>
                        <g>
                            <rect class="cls-67" x="25.23" y="200.96" width="56.69" height="56.69"
                                  transform="translate(-180.24 201.33) rotate(-70.03)"/>
                            <rect class="cls-52" x="55.1" y="180.03" width="12.15" height="56.69"
                                  transform="translate(-155.56 194.7) rotate(-70.03)"/>
                        </g>
                    </g>
                    <g>
                        <rect class="cls-24" x="449.14" y="204.2" width="66.27" height="16.86"/>
                        <rect class="cls-2" x="419.98" y="264.43" width="124.59" height="53.3"/>
                        <rect class="cls-73" x="419.98" y="264.43" width="124.59" height="8.36"/>
                        <rect class="cls-55" x="410.78" y="215.88" width="143" height="53.3"/>
                        <rect class="cls-30" x="473.98" y="258.94" width="16.59" height="20.49"/>
                    </g>
                    <g>
                        <rect class="cls-13" x="176.33" y="259.44" width="210.43" height="133.73" rx="5.29" ry="5.29"/>
                        <rect class="cls-29" x="176.33" y="253.44" width="210.43" height="133.73" rx="5.29" ry="5.29"/>
                        <rect class="cls-3" x="175.03" y="119.27" width="210.43" height="133.73" rx="5.29" ry="5.29"/>
                        <rect class="cls-13" x="184.08" y="259.38" width="192.77" height="85.33"/>
                        <g class="cls-10">
                            <rect class="cls-60" x="186.53" y="271.65" width="11.96" height="10.81" rx="2.3" ry="2.3"/>
                            <rect class="cls-60" x="186.53" y="262.77" width="11.95" height="5.29" rx="2.3" ry="2.3"/>
                            <rect class="cls-60" x="199.92" y="262.77" width="11.95" height="5.29" rx="2.3" ry="2.3"/>
                            <rect class="cls-60" x="213.3" y="262.77" width="11.96" height="5.29" rx="2.3" ry="2.3"/>
                            <rect class="cls-60" x="226.69" y="262.77" width="11.95" height="5.29" rx="2.3" ry="2.3"/>
                            <rect class="cls-60" x="240.08" y="262.77" width="11.96" height="5.29" rx="2.3" ry="2.3"/>
                            <rect class="cls-60" x="253.47" y="262.77" width="11.96" height="5.29" rx="2.3" ry="2.3"/>
                            <rect class="cls-60" x="266.86" y="262.77" width="11.95" height="5.29" rx="2.3" ry="2.3"/>
                            <rect class="cls-60" x="280.24" y="262.77" width="11.96" height="5.29" rx="2.3" ry="2.3"/>
                            <rect class="cls-60" x="293.63" y="262.77" width="11.96" height="5.29" rx="2.3" ry="2.3"/>
                            <rect class="cls-60" x="307.02" y="262.77" width="11.95" height="5.29" rx="2.3" ry="2.3"/>
                            <rect class="cls-60" x="320.4" y="262.77" width="11.96" height="5.29" rx="2.3" ry="2.3"/>
                            <rect class="cls-60" x="333.79" y="262.77" width="11.96" height="5.29" rx="2.3" ry="2.3"/>
                            <rect class="cls-60" x="347.18" y="262.77" width="11.96" height="5.29" rx="2.3" ry="2.3"/>
                            <rect class="cls-60" x="360.56" y="262.77" width="11.95" height="5.29" rx="2.3" ry="2.3"/>
                            <rect class="cls-62" x="360.56" y="333.79" width="11.95" height="5.29" rx="2.3" ry="2.3"/>
                            <rect class="cls-62" x="345.85" y="333.79" width="11.95" height="5.29" rx="2.3" ry="2.3"/>
                            <rect class="cls-62" x="345.85" y="327.69" width="11.95" height="5.29" rx="2.3" ry="2.3"/>
                            <rect class="cls-62" x="331.13" y="333.79" width="11.96" height="5.29" rx="2.3" ry="2.3"/>
                            <rect class="cls-60" x="187.56" y="285.84" width="17.47" height="10.81" rx="2.3" ry="2.3"/>
                            <rect class="cls-60" x="354.71" y="271.65" width="17.47" height="10.81" rx="2.3" ry="2.3"/>
                            <rect class="cls-60" x="188.07" y="300.02" width="28.51" height="10.81" rx="2.3" ry="2.3"/>
                            <rect class="cls-60" x="200.54" y="271.65" width="11.96" height="10.81" rx="2.3" ry="2.3"/>
                            <rect class="cls-60" x="214.54" y="271.65" width="11.95" height="10.81" rx="2.3" ry="2.3"/>
                            <rect class="cls-60" x="340.58" y="271.65" width="11.96" height="10.81" rx="2.3" ry="2.3"/>
                            <rect class="cls-60" x="326.58" y="271.65" width="11.95" height="10.81" rx="2.3" ry="2.3"/>
                            <rect class="cls-60" x="312.57" y="271.65" width="11.96" height="10.81" rx="2.3" ry="2.3"/>
                            <rect class="cls-60" x="298.57" y="271.65" width="11.96" height="10.81" rx="2.3" ry="2.3"/>
                            <rect class="cls-60" x="284.56" y="271.65" width="11.96" height="10.81" rx="2.3" ry="2.3"/>
                            <rect class="cls-60" x="270.56" y="271.65" width="11.96" height="10.81" rx="2.3" ry="2.3"/>
                            <rect class="cls-60" x="256.55" y="271.65" width="11.96" height="10.81" rx="2.3" ry="2.3"/>
                            <rect class="cls-60" x="242.55" y="271.65" width="11.96" height="10.81" rx="2.3" ry="2.3"/>
                            <rect class="cls-60" x="228.54" y="271.65" width="11.96" height="10.81" rx="2.3" ry="2.3"/>
                            <g>
                                <rect class="cls-60" x="206.51" y="285.84" width="11.96" height="10.81" rx="2.3"
                                      ry="2.3"/>
                                <rect class="cls-60" x="220.52" y="285.84" width="11.96" height="10.81" rx="2.3"
                                      ry="2.3"/>
                                <rect class="cls-60" x="234.52" y="285.84" width="11.96" height="10.81" rx="2.3"
                                      ry="2.3"/>
                                <rect class="cls-60" x="360.56" y="285.84" width="11.96" height="10.81" rx="2.3"
                                      ry="2.3"/>
                                <rect class="cls-60" x="346.56" y="285.84" width="11.95" height="10.81" rx="2.3"
                                      ry="2.3"/>
                                <rect class="cls-60" x="332.56" y="285.84" width="11.95" height="10.81" rx="2.3"
                                      ry="2.3"/>
                                <rect class="cls-60" x="318.55" y="285.84" width="11.95" height="10.81" rx="2.3"
                                      ry="2.3"/>
                                <rect class="cls-60" x="304.54" y="285.84" width="11.96" height="10.81" rx="2.3"
                                      ry="2.3"/>
                                <rect class="cls-60" x="290.54" y="285.84" width="11.96" height="10.81" rx="2.3"
                                      ry="2.3"/>
                                <rect class="cls-60" x="276.54" y="285.84" width="11.95" height="10.81" rx="2.3"
                                      ry="2.3"/>
                                <rect class="cls-60" x="262.53" y="285.84" width="11.95" height="10.81" rx="2.3"
                                      ry="2.3"/>
                                <rect class="cls-60" x="248.53" y="285.84" width="11.95" height="10.81" rx="2.3"
                                      ry="2.3"/>
                            </g>
                            <rect class="cls-60" x="219.62" y="300.02" width="11.96" height="10.81" rx="2.3" ry="2.3"/>
                            <rect class="cls-60" x="233.71" y="300.02" width="11.96" height="10.81" rx="2.3" ry="2.3"/>
                            <rect class="cls-60" x="247.81" y="300.02" width="11.96" height="10.81" rx="2.3" ry="2.3"/>
                            <rect class="cls-60" x="360.56" y="300.02" width="11.96" height="10.81" rx="2.3" ry="2.3"/>
                            <rect class="cls-60" x="346.47" y="300.02" width="11.96" height="10.81" rx="2.3" ry="2.3"/>
                            <rect class="cls-60" x="332.38" y="300.02" width="11.96" height="10.81" rx="2.3" ry="2.3"/>
                            <path class="cls-60"
                                  d="M320.58,300.02h7.36c1.27,0,2.3,1.03,2.3,2.3v6.21c0,1.27-1.03,2.3-2.3,2.3h-7.36c-1.27,0-2.3-1.03-2.3-2.3v-6.21c0-1.27,1.03-2.3,2.3-2.3Z"/>
                            <rect class="cls-60" x="304.19" y="300.02" width="11.96" height="10.81" rx="2.3" ry="2.3"/>
                            <rect class="cls-60" x="290.09" y="300.02" width="11.96" height="10.81" rx="2.3" ry="2.3"/>
                            <rect class="cls-60" x="276" y="300.02" width="11.96" height="10.81" rx="2.3" ry="2.3"/>
                            <rect class="cls-60" x="261.9" y="300.02" width="11.96" height="10.81" rx="2.3" ry="2.3"/>
                            <rect class="cls-60" x="188.24" y="314.2" width="21.15" height="10.81" rx="2.3" ry="2.3"/>
                            <rect class="cls-60" x="211.45" y="314.2" width="11.96" height="10.81" rx="2.3" ry="2.3"/>
                            <rect class="cls-60" x="225.45" y="314.2" width="11.96" height="10.81" rx="2.3" ry="2.3"/>
                            <rect class="cls-60" x="351.49" y="314.2" width="21.15" height="10.81" rx="2.3" ry="2.3"/>
                            <rect class="cls-60" x="337.49" y="314.2" width="11.96" height="10.81" rx="2.3" ry="2.3"/>
                            <rect class="cls-60" x="323.48" y="314.2" width="11.96" height="10.81" rx="2.3" ry="2.3"/>
                            <rect class="cls-60" x="309.48" y="314.2" width="11.96" height="10.81" rx="2.3" ry="2.3"/>
                            <rect class="cls-60" x="295.47" y="314.2" width="11.96" height="10.81" rx="2.3" ry="2.3"/>
                            <rect class="cls-60" x="281.47" y="314.2" width="11.96" height="10.81" rx="2.3" ry="2.3"/>
                            <rect class="cls-60" x="267.47" y="314.2" width="11.96" height="10.81" rx="2.3" ry="2.3"/>
                            <rect class="cls-60" x="253.46" y="314.2" width="11.96" height="10.81" rx="2.3" ry="2.3"/>
                            <rect class="cls-60" x="239.46" y="314.2" width="11.96" height="10.81" rx="2.3" ry="2.3"/>
                            <rect class="cls-60" x="187.56" y="328.38" width="11.95" height="10.81" rx="2.3" ry="2.3"/>
                            <rect class="cls-60" x="201.56" y="328.38" width="11.96" height="10.81" rx="2.3" ry="2.3"/>
                            <rect class="cls-60" x="215.56" y="328.38" width="11.96" height="10.81" rx="2.3" ry="2.3"/>
                            <rect class="cls-60" x="313.6" y="328.38" width="15.63" height="10.81" rx="2.3" ry="2.3"/>
                            <rect class="cls-60" x="299.59" y="328.38" width="11.96" height="10.81" rx="2.3" ry="2.3"/>
                            <rect class="cls-60" x="285.59" y="328.38" width="11.96" height="10.81" rx="2.3" ry="2.3"/>
                            <rect class="cls-60" x="271.58" y="328.38" width="11.95" height="10.81" rx="2.3" ry="2.3"/>
                            <rect class="cls-60" x="257.58" y="328.38" width="11.95" height="10.81" rx="2.3" ry="2.3"/>
                            <rect class="cls-60" x="243.57" y="328.38" width="11.95" height="10.81" rx="2.3" ry="2.3"/>
                            <rect class="cls-60" x="229.57" y="328.38" width="11.96" height="10.81" rx="2.3" ry="2.3"/>
                            <rect class="cls-60" x="249.55" y="328.38" width="56.02" height="10.81"/>
                        </g>
                        <rect class="cls-9" x="245.43" y="344.71" width="65.09" height="36.76"/>
                        <rect class="cls-66" x="183.22" y="127.35" width="193.99" height="113.5"/>
                        <rect class="cls-41" x="183.22" y="232.86" width="193.99" height="7.99"/>
                        <rect class="cls-28" x="192.39" y="251.64" width="19.06" height="4"/>
                        <rect class="cls-28" x="353.92" y="251.64" width="19.06" height="4"/>
                    </g>
                    <g>
                        <circle class="cls-35" cx="215.56" cy="398.45" r="33.91"
                                transform="translate(-218.61 269.13) rotate(-45)"/>
                        <path class="cls-29"
                              d="M209.98,415.87c-1.87,0-3.39-1.52-3.39-3.39,0-3.81-3.1-6.91-6.91-6.91-1.87,0-3.39-1.52-3.39-3.39s1.52-3.39,3.39-3.39c7.55,0,13.68,6.14,13.68,13.68,0,1.87-1.52,3.39-3.39,3.39Z"/>
                        <path class="cls-54"
                              d="M221.18,415.87c-1.87,0-3.39-1.52-3.39-3.39,0-9.99-8.13-18.12-18.12-18.12-1.87,0-3.39-1.52-3.39-3.39s1.52-3.39,3.39-3.39c13.72,0,24.89,11.17,24.89,24.89,0,1.87-1.52,3.39-3.39,3.39Z"/>
                        <path class="cls-3"
                              d="M232.92,415.87c-1.87,0-3.39-1.52-3.39-3.39,0-16.46-13.39-29.85-29.85-29.85-1.87,0-3.39-1.52-3.39-3.39s1.52-3.39,3.39-3.39c20.19,0,36.62,16.43,36.62,36.62,0,1.87-1.52,3.39-3.39,3.39Z"/>
                    </g>
                    <g>
                        <rect class="cls-44" x="382.69" y="268.5" width="89.89" height="123.82" rx="4.32" ry="4.32"
                              transform="translate(-89.56 173.73) rotate(-20.84)"/>
                        <rect class="cls-12" x="375.92" y="295.04" width="89.89" height="35.12"
                              transform="translate(-83.67 170.15) rotate(-20.84)"/>
                        <line class="cls-27" x1="429.53" y1="260.9" x2="475.27" y2="381.07"/>
                        <g>
                            <g>
                                <path class="cls-7"
                                      d="M378.99,297.97c.73,1.92-.23,4.07-2.15,4.8-1.92.73-4.07-.23-4.8-2.15-.73-1.92.23-4.07,2.15-4.8,1.92-.73,4.07.23,4.8,2.15Z"/>
                                <line class="cls-19" x1="374.12" y1="299.82" x2="363.41" y2="303.9"/>
                            </g>
                            <g>
                                <path class="cls-7"
                                      d="M385.76,315.77c.73,1.92-.23,4.07-2.15,4.8s-4.07-.23-4.8-2.15c-.73-1.92.23-4.07,2.15-4.8,1.92-.73,4.07.23,4.8,2.15Z"/>
                                <line class="cls-19" x1="380.89" y1="317.62" x2="370.18" y2="321.7"/>
                            </g>
                            <g>
                                <path class="cls-7"
                                      d="M392.54,333.57c.73,1.92-.23,4.07-2.15,4.8-1.92.73-4.07-.23-4.8-2.15-.73-1.92.23-4.07,2.15-4.8,1.92-.73,4.07.23,4.8,2.15Z"/>
                                <line class="cls-19" x1="387.67" y1="335.43" x2="376.96" y2="339.5"/>
                            </g>
                            <g>
                                <path class="cls-6"
                                      d="M399.31,351.38c.73,1.92-.23,4.07-2.15,4.8-1.92.73-4.07-.23-4.8-2.15-.73-1.92.23-4.07,2.15-4.8,1.92-.73,4.07.23,4.8,2.15Z"/>
                                <line class="cls-19" x1="394.44" y1="353.23" x2="383.74" y2="357.31"/>
                            </g>
                            <g>
                                <path class="cls-6"
                                      d="M406.09,369.18c.73,1.92-.23,4.07-2.15,4.8-1.92.73-4.07-.23-4.8-2.15-.73-1.92.23-4.07,2.15-4.8,1.92-.73,4.07.23,4.8,2.15Z"/>
                                <line class="cls-19" x1="401.22" y1="371.03" x2="390.51" y2="375.11"/>
                            </g>
                            <g>
                                <path class="cls-7"
                                      d="M412.87,386.98c.73,1.92-.23,4.07-2.15,4.8-1.92.73-4.07-.23-4.8-2.15-.73-1.92.23-4.07,2.15-4.8,1.92-.73,4.07.23,4.8,2.15Z"/>
                                <line class="cls-19" x1="408" y1="388.84" x2="397.29" y2="392.91"/>
                            </g>
                        </g>
                    </g>
                    <g>
                        <path class="cls-22" d="M74.94,128.09s18.05,13.64,49.53,13.22c0,0-7.42,6.14-5.28,19.99"/>
                        <path class="cls-18" d="M79.21,114.85s18.05,13.64,49.53,13.22"/>
                        <path class="cls-35"
                              d="M114.21,205.59c-1.08,4.31-4.95,7.33-9.39,7.33h0c-4.44,0-8.31-3.02-9.39-7.33l-1.32-5.26h21.41l-1.32,5.26Z"/>
                        <path class="cls-15" d="M79.21,114.85s13.44-11.27,37.69-11.27"/>
                        <path class="cls-15" d="M74.94,128.09s18.05-13.64,49.53-13.22"/>
                        <path class="cls-20"
                              d="M129.65,128.09c-31.48-.42-49.53,13.22-49.53,13.22,0,0,11.62,2.96,11.41,19.98"/>
                        <path class="cls-46"
                              d="M120.46,199.25c0,2.43-1.97,4.4-4.4,4.4h-22.47c-2.43,0-4.4-1.97-4.4-4.4v-19.91h31.27v19.91Z"/>
                        <path class="cls-35"
                              d="M129.59,164.83c0-3.69-2.99-6.68-6.68-6.68h-36.16c-3.69,0-6.68,2.99-6.68,6.68v2.38c0,5.84,1.86,11.53,5.31,16.24.62.85,1.61,1.35,2.66,1.35h33.59c1.05,0,2.04-.5,2.67-1.35,3.45-4.71,5.31-10.4,5.31-16.24v-2.38Z"/>
                        <g class="cls-70">
                            <path d="M134.37,128.16c.03-2.61-2.05-4.75-4.66-4.78-.19,0-.38,0-.57,0-.15-.01-.31-.02-.47-.02-8.52.11-16-.87-22.35-2.32,5-.89,10.6-1.46,16.75-1.46.44,0,.89,0,1.34,0,2.63.06,4.75-2.05,4.78-4.66.03-2.61-2.05-4.75-4.66-4.78-7.24-.09-13.81.52-19.65,1.54v32.81c3.46.6,7.18,1.07,11.14,1.32-1.25,3.15-2.15,7.25-1.9,12.33h-9.25v54.77c4.42-.02,8.26-3.04,9.33-7.33l.48-1.94h1.36c2.43,0,4.4-1.97,4.4-4.4v-14.45h1.16c1.05,0,2.04-.5,2.67-1.35,3.45-4.71,5.31-10.4,5.31-16.24v-2.38c0-3.46-2.63-6.3-6-6.65-.6-8.78,3.47-12.84,3.92-13.26,1.59-1.24,2.15-3.31,1.49-5.22-.66-1.9-2.52-3.12-4.52-3.12-.02,0-.04,0-.07,0-6.47.09-12.35-.46-17.59-1.36,6.43-1.5,14.06-2.53,22.76-2.41,2.63.05,4.75-2.05,4.78-4.66Z"/>
                            <path d="M104.88,109.34c3.61-.63,7.61-1.03,12.02-1.03,2.61,0,4.72-2.11,4.72-4.72s-2.11-4.72-4.72-4.72c-4.33,0-8.34.34-12.02.91v9.57Z"/>
                        </g>
                    </g>
                    <polygon class="cls-40" points="327.04 148.28 377.21 196.85 377.21 133.27 327.04 148.28"/>
                    <g>
                        <circle class="cls-36" cx="158.1" cy="244.46" r="34.29"
                                transform="translate(-116.14 342.17) rotate(-76.72)"/>
                        <path class="cls-35"
                              d="M160.16,226.22l3.02,8.79c.27.78.99,1.3,1.81,1.32l9.29.16c1.86.03,2.63,2.4,1.14,3.51l-7.43,5.59c-.66.49-.93,1.35-.69,2.13l2.72,8.89c.54,1.78-1.47,3.24-2.99,2.17l-7.61-5.34c-.67-.47-1.57-.47-2.24,0l-7.61,5.34c-1.52,1.07-3.53-.39-2.99-2.17l2.72-8.89c.24-.79-.04-1.64-.69-2.13l-7.43-5.59c-1.48-1.12-.72-3.48,1.14-3.51l9.29-.16c.82-.01,1.55-.54,1.81-1.32l3.02-8.79c.6-1.76,3.09-1.76,3.69,0Z"/>
                    </g>
                    <g>
                        <g>
                            <polygon class="cls-60"
                                     points="130.88 291.39 50.91 290.79 58.39 251.64 130.88 251.64 130.88 291.39"/>
                            <rect class="cls-65" x="42.93" y="358.86" width="124.7" height="87.95"/>
                            <rect class="cls-33" x="61.19" y="314.78" width="88.17" height="88.17"
                                  transform="translate(-222.92 179.55) rotate(-45)"/>
                            <polygon class="cls-35"
                                     points="151.96 251.64 58.29 251.64 58.29 374.22 105.27 421.21 151.96 374.22 151.96 251.64"/>
                            <g>
                                <line class="cls-26" x1="74.98" y1="266.7" x2="135.57" y2="266.7"/>
                                <line class="cls-26" x1="74.98" y1="272.72" x2="135.57" y2="272.72"/>
                                <line class="cls-26" x1="74.98" y1="278.74" x2="135.57" y2="278.74"/>
                                <line class="cls-26" x1="74.98" y1="284.77" x2="135.57" y2="284.77"/>
                                <line class="cls-26" x1="74.98" y1="290.79" x2="135.57" y2="290.79"/>
                                <line class="cls-26" x1="74.98" y1="296.82" x2="135.57" y2="296.82"/>
                                <line class="cls-26" x1="74.98" y1="302.84" x2="135.57" y2="302.84"/>
                                <line class="cls-26" x1="74.98" y1="308.86" x2="135.57" y2="308.86"/>
                                <line class="cls-26" x1="74.98" y1="314.89" x2="135.57" y2="314.89"/>
                                <line class="cls-26" x1="74.98" y1="320.91" x2="135.57" y2="320.91"/>
                                <line class="cls-26" x1="74.98" y1="326.94" x2="135.57" y2="326.94"/>
                                <line class="cls-26" x1="74.98" y1="332.96" x2="135.57" y2="332.96"/>
                                <line class="cls-26" x1="74.98" y1="338.98" x2="100.33" y2="338.98"/>
                                <line class="cls-26" x1="74.98" y1="345.01" x2="100.33" y2="345.01"/>
                                <line class="cls-26" x1="74.98" y1="351.03" x2="100.33" y2="351.03"/>
                                <line class="cls-26" x1="74.98" y1="357.06" x2="100.33" y2="357.06"/>
                                <line class="cls-26" x1="74.98" y1="363.08" x2="100.33" y2="363.08"/>
                                <line class="cls-26" x1="74.98" y1="369.1" x2="100.33" y2="369.1"/>
                                <line class="cls-26" x1="74.98" y1="375.13" x2="100.33" y2="375.13"/>
                                <line class="cls-26" x1="74.98" y1="381.15" x2="100.33" y2="381.15"/>
                            </g>
                            <rect class="cls-14" x="106.78" y="338.98" width="28.79" height="42.17"/>
                            <line class="cls-26" x1="87.65" y1="389.29" x2="121.17" y2="389.29"/>
                            <line class="cls-26" x1="87.65" y1="395.31" x2="121.17" y2="395.31"/>
                        </g>
                        <polygon class="cls-30" points="42.93 446.81 105.27 402.84 167.62 446.81 42.93 446.81"/>
                        <polygon class="cls-42" points="42.93 446.81 94.5 410.44 89.33 405.26 42.93 446.81"/>
                        <polygon class="cls-42" points="116.05 410.44 167.62 446.81 121.22 405.26 116.05 410.44"/>
                    </g>
                    <polygon class="cls-43"
                             points="152.95 343.7 152.95 264 133.2 264 109.22 264 109.22 446.81 167.62 446.81 167.62 358.37 152.95 343.7"/>
                    <path class="cls-40"
                          d="M304.97,149.81l-.13.13c-7.3-6.84-16.6-10.81-26.56-11.34-.04,0-.08,0-.13,0-.72-.04-1.44-.05-2.16-.05s-1.45.02-2.16.05c-.04,0-.08,0-.13,0-10.54.56-20.34,4.96-27.81,12.55l-2.25,2.29.13.07c-6.24,7.36-10.01,16.88-10.01,27.26,0,.73.02,1.45.06,2.17,0,0,0,.02,0,.02.51,10,4.48,19.34,11.35,26.66l-.09.09,31.15,31.15h100.99v-18.81l-72.24-72.24Z"/>
                    <g>
                        <circle class="cls-17" cx="276" cy="180.76" r="39.79"/>
                        <ellipse class="cls-17" cx="276" cy="180.76" rx="21.88" ry="39.79"/>
                        <path class="cls-17"
                              d="M276,159.4c11.1,0,21.14-2.5,28.35-6.54-7.22-7.33-17.25-11.88-28.35-11.88s-21.14,4.55-28.35,11.88c7.22,4.03,17.25,6.54,28.35,6.54Z"/>
                        <path class="cls-17"
                              d="M248.17,209.19c7.17-3.86,16.99-6.25,27.82-6.25s20.65,2.38,27.82,6.25c7.38-7.22,11.96-17.29,11.96-28.43,0-21.97-17.81-39.79-39.79-39.79s-39.79,17.81-39.79,39.79c0,11.14,4.58,21.21,11.96,28.43Z"/>
                        <line class="cls-17" x1="276" y1="140.98" x2="276" y2="220.55"/>
                        <line class="cls-17" x1="315.78" y1="180.76" x2="236.21" y2="180.76"/>
                    </g>
                    <line class="cls-16" x1="102.55" y1="84.11" x2="102.55" y2="57.32"/>
                    <line class="cls-16" x1="123.99" y1="84.11" x2="135.87" y2="63"/>
                    <line class="cls-16" x1="81.71" y1="84.11" x2="69.82" y2="63"/>
                    <path class="cls-11"
                          d="M327.34,147.99c6.64-6.4,7.29-16.66,1.84-24.1-3.94-5.38-6.19-11.56-6.19-18.14,0-20.72,22.23-37.52,49.65-37.52s49.65,16.8,49.65,37.52-22.23,37.52-49.65,37.52c-3.77,0-7.44-.32-10.97-.93-2.85-.49-5.78-.09-8.42,1.09-8.54,3.84-17.7,6.19-26.21,4.84,0,0,.1-.1.3-.29Z"/>
                    <path class="cls-59"
                          d="M377.86,107.96c-.3,1.14-.44,2.07-.44,2.79s.11,1.29.33,1.69c.22.4.53.68.93.84.4.16.83.23,1.31.23.74,0,1.45-.22,2.12-.67.67-.44,1.26-1.07,1.77-1.88.5-.81.9-1.77,1.2-2.9.3-1.13.44-2.37.44-3.72,0-2.21-.35-4.14-1.05-5.8-.7-1.66-1.67-3.05-2.9-4.17-1.24-1.12-2.7-1.96-4.4-2.52-1.7-.56-3.54-.84-5.53-.84-2.17,0-4.2.41-6.09,1.23-1.89.82-3.52,1.96-4.91,3.41-1.39,1.45-2.49,3.16-3.28,5.14-.8,1.98-1.2,4.11-1.2,6.4,0,2.75.43,5.16,1.28,7.23.86,2.07,2.03,3.81,3.52,5.21,1.49,1.4,3.25,2.45,5.27,3.16,2.02.71,4.2,1.06,6.52,1.06,2.54,0,4.74-.26,6.62-.79,1.88-.53,3.46-1.17,4.74-1.93.38-.23.72-.3,1.01-.21.3.09.51.31.64.65l.74,1.95c-1.75,1.15-3.75,2.07-6.01,2.77-2.26.69-4.84,1.04-7.74,1.04s-5.62-.46-8.12-1.38c-2.5-.92-4.67-2.25-6.49-3.98-1.83-1.73-3.26-3.84-4.3-6.33-1.04-2.49-1.55-5.31-1.55-8.46,0-1.78.23-3.49.68-5.15.45-1.65,1.09-3.21,1.93-4.67.83-1.46,1.83-2.79,3-4,1.17-1.21,2.47-2.25,3.9-3.11,1.43-.86,2.98-1.53,4.64-2.01,1.66-.48,3.4-.72,5.21-.72,1.53,0,3.03.17,4.51.51,1.47.34,2.86.84,4.17,1.49,1.31.66,2.51,1.47,3.62,2.44,1.1.97,2.05,2.08,2.85,3.32.8,1.24,1.42,2.62,1.86,4.14.44,1.51.67,3.15.67,4.91s-.26,3.4-.77,4.93c-.51,1.52-1.22,2.84-2.12,3.96-.91,1.12-1.97,2-3.21,2.64-1.24.64-2.57.96-4,.96-1.2,0-2.22-.28-3.06-.84-.84-.56-1.41-1.46-1.7-2.69-.97,1.23-2,2.12-3.1,2.67-1.1.54-2.28.81-3.57.81-1,0-1.88-.18-2.63-.53s-1.37-.84-1.86-1.46c-.49-.62-.86-1.35-1.11-2.2-.25-.85-.37-1.77-.37-2.75s.12-1.88.36-2.84c.24-.95.59-1.88,1.06-2.77.47-.89,1.06-1.72,1.78-2.51.72-.78,1.55-1.46,2.49-2.04s2.01-1.03,3.2-1.37c1.18-.34,2.49-.51,3.9-.51,1.19,0,2.21.09,3.09.27.87.18,1.7.44,2.49.79l-2.32,9.06ZM375.59,101.4c-.53-.11-1.14-.17-1.85-.17-1.12,0-2.16.24-3.11.72-.95.48-1.78,1.11-2.48,1.9-.7.79-1.25,1.7-1.64,2.73-.39,1.03-.59,2.09-.59,3.17s.25,2,.75,2.64c.5.64,1.23.96,2.18.96.46,0,.93-.07,1.41-.22.48-.15.93-.41,1.37-.78.44-.37.84-.87,1.21-1.49.37-.63.68-1.41.93-2.35l1.83-7.11Z"/>
                    <g>
                        <rect class="cls-1" x="364.48" y="361.98" width="89.89" height="123.82" rx="4.32" ry="4.32"/>
                        <rect class="cls-69" x="274.67" y="361.98" width="89.89" height="123.82" rx="4.32" ry="4.32"/>
                        <rect class="cls-69" x="364.48" y="356.98" width="89.89" height="123.82" rx="4.32" ry="4.32"/>
                        <rect class="cls-62" x="368.05" y="362.78" width="74.91" height="112.21"/>
                        <g>
                            <g>
                                <path class="cls-4"
                                      d="M375.5,371.26c0,2.05-1.66,3.72-3.72,3.72s-3.72-1.67-3.72-3.72,1.67-3.72,3.72-3.72,3.72,1.67,3.72,3.72Z"/>
                                <line class="cls-21" x1="370.29" y1="371.26" x2="358.83" y2="371.26"/>
                            </g>
                            <g>
                                <path class="cls-4"
                                      d="M375.5,390.31c0,2.05-1.66,3.72-3.72,3.72s-3.72-1.67-3.72-3.72,1.67-3.72,3.72-3.72,3.72,1.67,3.72,3.72Z"/>
                                <line class="cls-21" x1="370.29" y1="390.31" x2="358.83" y2="390.31"/>
                            </g>
                            <g>
                                <path class="cls-4"
                                      d="M375.5,409.36c0,2.05-1.66,3.72-3.72,3.72s-3.72-1.67-3.72-3.72,1.67-3.72,3.72-3.72,3.72,1.67,3.72,3.72Z"/>
                                <line class="cls-21" x1="370.29" y1="409.36" x2="358.83" y2="409.36"/>
                            </g>
                            <g>
                                <path class="cls-4"
                                      d="M375.5,428.41c0,2.05-1.66,3.72-3.72,3.72s-3.72-1.67-3.72-3.72,1.67-3.72,3.72-3.72,3.72,1.67,3.72,3.72Z"/>
                                <line class="cls-21" x1="370.29" y1="428.41" x2="358.83" y2="428.41"/>
                            </g>
                            <g>
                                <path class="cls-4"
                                      d="M375.5,447.46c0,2.05-1.66,3.72-3.72,3.72s-3.72-1.67-3.72-3.72,1.67-3.72,3.72-3.72,3.72,1.67,3.72,3.72Z"/>
                                <line class="cls-21" x1="370.29" y1="447.46" x2="358.83" y2="447.46"/>
                            </g>
                            <g>
                                <path class="cls-4"
                                      d="M375.5,466.51c0,2.05-1.66,3.72-3.72,3.72s-3.72-1.67-3.72-3.72,1.67-3.72,3.72-3.72,3.72,1.67,3.72,3.72Z"/>
                                <line class="cls-21" x1="370.29" y1="466.51" x2="358.83" y2="466.51"/>
                            </g>
                        </g>
                        <rect class="cls-60" x="397.63" y="417.37" width="31.35" height="6.29"/>
                        <rect class="cls-61" x="274.67" y="356.98" width="89.89" height="123.82" rx="4.32" ry="4.32"/>
                        <rect class="cls-35" x="286.89" y="362.78" width="74.91" height="112.21"/>
                        <g>
                            <g>
                                <path class="cls-4"
                                      d="M354.36,371.26c0,2.05,1.67,3.72,3.72,3.72s3.72-1.67,3.72-3.72-1.66-3.72-3.72-3.72-3.72,1.67-3.72,3.72Z"/>
                                <line class="cls-21" x1="359.57" y1="371.26" x2="371.03" y2="371.26"/>
                            </g>
                            <g>
                                <path class="cls-4"
                                      d="M354.36,390.31c0,2.05,1.67,3.72,3.72,3.72s3.72-1.67,3.72-3.72-1.66-3.72-3.72-3.72-3.72,1.67-3.72,3.72Z"/>
                                <line class="cls-21" x1="359.57" y1="390.31" x2="371.03" y2="390.31"/>
                            </g>
                            <g>
                                <path class="cls-4"
                                      d="M354.36,409.36c0,2.05,1.67,3.72,3.72,3.72s3.72-1.67,3.72-3.72-1.66-3.72-3.72-3.72-3.72,1.67-3.72,3.72Z"/>
                                <line class="cls-21" x1="359.57" y1="409.36" x2="371.03" y2="409.36"/>
                            </g>
                            <g>
                                <path class="cls-4"
                                      d="M354.36,428.41c0,2.05,1.67,3.72,3.72,3.72s3.72-1.67,3.72-3.72-1.66-3.72-3.72-3.72-3.72,1.67-3.72,3.72Z"/>
                                <line class="cls-21" x1="359.57" y1="428.41" x2="371.03" y2="428.41"/>
                            </g>
                            <g>
                                <path class="cls-4"
                                      d="M354.36,447.46c0,2.05,1.67,3.72,3.72,3.72s3.72-1.67,3.72-3.72-1.66-3.72-3.72-3.72-3.72,1.67-3.72,3.72Z"/>
                                <line class="cls-21" x1="359.57" y1="447.46" x2="371.03" y2="447.46"/>
                            </g>
                            <g>
                                <path class="cls-4"
                                      d="M354.36,466.51c0,2.05,1.67,3.72,3.72,3.72s3.72-1.67,3.72-3.72-1.66-3.72-3.72-3.72-3.72,1.67-3.72,3.72Z"/>
                                <line class="cls-21" x1="359.57" y1="466.51" x2="371.03" y2="466.51"/>
                            </g>
                        </g>
                        <polygon class="cls-72" points="442.96 424.69 396.63 424.69 442.96 471.02 442.96 424.69"/>
                        <g>
                            <g>
                                <rect class="cls-63" x="415.92" y="419.53" width="121.31" height="10.31"/>
                                <polygon class="cls-64"
                                         points="396.53 424.69 415.92 419.53 415.92 429.85 396.53 424.69"/>
                                <polygon class="cls-68"
                                         points="404.53 422.56 396.53 424.69 404.53 426.82 404.53 422.56"/>
                            </g>
                            <polygon class="cls-37"
                                     points="396.54 424.69 396.53 424.69 404.53 426.82 404.53 426.82 415.92 429.85 537.23 429.85 537.23 424.69 396.54 424.69"/>
                        </g>
                        <rect class="cls-51" x="297.88" y="379.56" width="46.45" height="6.29"/>
                        <rect class="cls-60" x="297.88" y="392.17" width="46.45" height="6.29"/>
                        <rect class="cls-51" x="297.88" y="404.77" width="46.45" height="6.29"/>
                        <rect class="cls-51" x="385" y="379.56" width="46.45" height="6.29"/>
                        <rect class="cls-60" x="385" y="392.17" width="46.45" height="6.29"/>
                        <rect class="cls-51" x="385" y="404.77" width="46.45" height="6.29"/>
                        <rect class="cls-60" x="297.88" y="417.37" width="31.35" height="6.29"/>
                        <rect class="cls-51" x="297.88" y="429.97" width="18.62" height="6.29"/>
                    </g>
                    <g>
                        <path class="cls-58"
                              d="M520.16,389.85h5.34c-1.02,2.89-3.96,4.89-7.28,4.47-3.05-.39-5.51-2.88-5.86-5.94-.46-4.09,2.74-7.57,6.74-7.57,1.76,0,3.36.67,4.57,1.77.28.25.71.24.99-.02l1.96-1.85c.31-.29.3-.78,0-1.07-2.16-2.04-5.15-3.22-8.42-2.95-5.4.44-9.73,4.91-10.01,10.32-.33,6.3,4.69,11.51,10.92,11.51,5.83,0,10.6-4.57,10.92-10.32,0,0,0-.02,0-.03.03-1.36-1.07-2.48-2.43-2.48h-7.43c-.4,0-.73.33-.73.73v2.69c0,.4.33.73.73.73h0Z"/>
                        <path class="cls-58"
                              d="M534.98,380.93v-2.62c0-.35-.29-.64-.64-.64h-2.21c-.35,0-.64.29-.64.64v2.62h-2.62c-.35,0-.64.29-.64.64v2.21c0,.35.29.64.64.64h2.62v2.62c0,.35.29.64.64.64h2.21c.35,0,.64-.29.64-.64v-2.62h2.62c.35,0,.64-.29.64-.64v-2.21c0-.35-.29-.64-.64-.64h-2.62Z"/>
                    </g>
                    <circle class="cls-61" cx="164.3" cy="128.09" r="21.37"
                            transform="translate(1.89 258.56) rotate(-76.72)"/>
                    <path class="cls-58"
                          d="M176.63,121.01c-.9.4-1.88.68-2.91.8,1.05-.63,1.84-1.62,2.23-2.8-.98.58-2.06,1-3.22,1.23-.92-.98-2.24-1.6-3.69-1.6-2.79,0-5.06,2.27-5.06,5.06,0,.4.05.78.13,1.15-4.21-.21-7.94-2.22-10.44-5.29-.44.75-.69,1.62-.69,2.55,0,1.75.9,3.31,2.25,4.21-.83-.02-1.6-.25-2.29-.63v.06c0,2.45,1.75,4.5,4.06,4.97-.42.11-.87.17-1.33.17-.32,0-.64-.03-.96-.09.65,2.01,2.51,3.47,4.73,3.52-1.73,1.35-3.92,2.16-6.29,2.16-.41,0-.81-.02-1.2-.07,2.24,1.44,4.9,2.27,7.76,2.27,9.31,0,14.4-7.71,14.4-14.39l-.02-.66c.99-.72,1.85-1.6,2.53-2.62h0Z"/>
                    <circle class="cls-71" cx="260.09" cy="471.02" r="32.61"/>
                    <path class="cls-35"
                          d="M269.46,452.28h-7.24c-5.46,0-8.99,3.61-8.99,9.22v6.64h-2.5c-.42,0-.76.34-.76.76v6.16c0,.42.34.76.76.76h2.5v13.16c0,.42.34.76.77.76h6.37c.42,0,.77-.34.77-.76v-13.16h5.71c.42,0,.76-.34.76-.76v-6.16c0-.2-.08-.4-.22-.54-.14-.14-.34-.22-.54-.22h-5.71v-5.99c0-1.73.41-2.61,2.67-2.61h5.66c.42,0,.76-.34.76-.77v-5.72c0-.42-.34-.76-.76-.77h0Z"/>
                    <path class="cls-35"
                          d="M209.9,443.34l.57,1.5c.3.8,1.04,1.34,1.89,1.38l1.61.07c.5.02.7.65.31.96l-1.26,1c-.66.53-.95,1.41-.72,2.23l.43,1.55c.13.48-.4.87-.82.59l-1.34-.88c-.71-.47-1.63-.47-2.34,0l-1.34.88c-.41.27-.95-.11-.82-.59l.43-1.55c.23-.82-.06-1.7-.72-2.23l-1.26-1c-.39-.31-.18-.94.31-.96l1.61-.07c.85-.04,1.59-.58,1.89-1.38l.57-1.5c.17-.46.83-.46,1.01,0Z"/>
                    <path class="cls-35"
                          d="M508.67,337.47l.57,1.5c.3.8,1.04,1.34,1.89,1.38l1.61.07c.5.02.7.65.31.96l-1.26,1c-.66.53-.95,1.41-.72,2.23l.43,1.55c.13.48-.4.87-.82.59l-1.34-.88c-.71-.47-1.63-.47-2.34,0l-1.34.88c-.41.27-.95-.11-.82-.59l.43-1.55c.23-.82-.06-1.7-.72-2.23l-1.26-1c-.39-.31-.18-.94.31-.96l1.61-.07c.85-.04,1.59-.58,1.89-1.38l.57-1.5c.18-.46.83-.46,1.01,0Z"/>
                    <path class="cls-35"
                          d="M260.81,412.91l.37.98c.2.52.68.88,1.24.9l1.05.05c.32.01.46.42.2.63l-.82.66c-.43.35-.62.92-.47,1.46l.28,1.01c.09.31-.26.57-.53.39l-.88-.58c-.47-.31-1.07-.31-1.53,0l-.88.58c-.27.18-.62-.07-.53-.39l.28-1.01c.15-.54-.04-1.11-.47-1.46l-.82-.66c-.25-.2-.12-.61.2-.63l1.05-.05c.56-.03,1.04-.38,1.24-.9l.37-.98c.11-.3.54-.3.66,0Z"/>
                    <path class="cls-35"
                          d="M143.26,176.39l.37.98c.2.52.68.88,1.24.9l1.05.05c.32.02.46.42.2.63l-.82.66c-.43.35-.62.92-.47,1.46l.28,1.01c.09.31-.26.57-.53.39l-.88-.58c-.47-.31-1.07-.31-1.53,0l-.88.58c-.27.18-.62-.07-.53-.39l.28-1.01c.15-.54-.04-1.11-.47-1.46l-.82-.66c-.25-.2-.12-.61.2-.63l1.05-.05c.56-.03,1.04-.38,1.24-.9l.37-.98c.11-.3.54-.3.66,0Z"/>
                    <path class="cls-35"
                          d="M396.86,252.68l.37.98c.2.52.68.88,1.24.9l1.05.05c.32.01.46.42.2.63l-.82.66c-.43.35-.62.92-.47,1.46l.28,1.01c.09.31-.26.57-.53.39l-.88-.58c-.47-.31-1.07-.31-1.53,0l-.88.58c-.27.18-.62-.07-.53-.39l.28-1.01c.15-.54-.04-1.11-.47-1.46l-.82-.66c-.25-.2-.12-.61.2-.63l1.05-.05c.56-.03,1.04-.38,1.24-.9l.37-.98c.11-.3.55-.3.66,0Z"/>
                    <path class="cls-35"
                          d="M348.08,54.37l.37.98c.2.52.68.88,1.24.9l1.05.05c.32.01.46.42.2.63l-.82.66c-.43.35-.62.92-.47,1.46l.28,1.01c.09.31-.26.57-.53.39l-.88-.58c-.47-.31-1.07-.31-1.53,0l-.88.58c-.27.18-.62-.07-.53-.39l.28-1.01c.15-.54-.04-1.11-.47-1.46l-.82-.66c-.25-.2-.12-.61.2-.63l1.05-.05c.56-.03,1.04-.38,1.24-.9l.37-.98c.11-.3.55-.3.66,0Z"/>
                </g>
            </g>
        </g>
    </g>
</svg>