<?xml version="1.0" encoding="UTF-8"?>
<svg id="OBJECTS" xmlns="http://www.w3.org/2000/svg" viewBox="0 0 345.85 312.8">
    <defs>
        <style>
            .cls-1 {
            fill: #330ec9;
            }

            .cls-2 {
            fill: #310f57;
            }

            .cls-3 {
            fill: #fff;
            }

            .cls-4 {
            fill: #fbd437;
            }

            .cls-5 {
            fill: #aca7c4;
            }

            .cls-6 {
            fill: #5d41d4;
            }

            .cls-7 {
            fill: #4929cf;
            }

            .cls-8 {
            fill: #ab96ff;
            }

            .cls-9 {
            opacity: .15;
            }

            .cls-10 {
            fill: #d1c7ff;
            }

            .cls-11 {
            fill: #24004d;
            }

            .cls-12 {
            fill: #fe9b88;
            }

            .cls-13 {
            opacity: .19;
            }

            .cls-14 {
            fill: #401671;
            }

            .cls-15 {
            fill: #fe8d77;
            }
        </style>
    </defs>
    <g>
        <g>
            <rect class="cls-5" x="100.51" y="99.94" width="37.99" height="28.35"/>
            <rect class="cls-6" x="84.91" y="128.29" width="69.18" height="5.3"/>
            <rect class="cls-10" x="106.36" y="99.94" width="37.99" height="28.35"/>
            <rect class="cls-8" x="90.77" y="128.29" width="69.18" height="5.3"/>
            <g class="cls-13">
                <rect x="100.4" y="111.37" width="43.95" height="5.49"/>
            </g>
        </g>
        <rect class="cls-1" x="35.85" width="164.08" height="112.18" rx="6.42" ry="6.42"/>
        <path class="cls-5"
              d="M199.93,90.22v15.54c0,3.54-2.87,6.42-6.42,6.42H42.27c-3.54,0-6.42-2.87-6.42-6.42v-15.54h164.08Z"/>
        <rect class="cls-7" x="40.39" width="164.08" height="112.18" rx="6.42" ry="6.42"/>
        <rect class="cls-3" x="46.87" y="5.3" width="151.03" height="85.02"/>
        <g>
            <rect class="cls-11" x="46.87" y="5.31" width="151.27" height="10.2"/>
            <circle class="cls-7" cx="59.11" cy="10.41" r="2.14"/>
            <rect class="cls-2" x="165.92" y="15.5" width="32.22" height="74.71"/>
            <g>
                <path class="cls-7"
                      d="M192.52,12.35c-.12,0-.24-.05-.33-.14l-2.95-2.95c-.18-.18-.18-.48,0-.66.18-.18.48-.18.66,0l2.95,2.95c.18.18.18.48,0,.66-.09.09-.21.14-.33.14Z"/>
                <path class="cls-7"
                      d="M189.57,12.35c-.12,0-.24-.05-.33-.14-.18-.18-.18-.48,0-.66l2.95-2.95c.18-.18.48-.18.66,0,.18.18.18.48,0,.66l-2.95,2.95c-.09.09-.21.14-.33.14Z"/>
            </g>
            <rect class="cls-11" x="171.26" y="21.25" width="21.26" height="11.28"/>
            <rect class="cls-11" x="171.53" y="77.36" width="21.26" height="5.64"/>
            <rect class="cls-7" x="171.26" y="61.56" width="21.26" height="11.28"/>
            <rect class="cls-11" x="171.26" y="37.05" width="21.26" height="20.01"/>
            <circle class="cls-7" cx="97.08" cy="43.83" r="20.14"/>
            <polygon class="cls-4" points="144.71 78.99 117.22 24.01 89.73 78.99 144.71 78.99"/>
            <path class="cls-8"
                  d="M117.22,43.83c0-4.48-1.46-8.61-3.94-11.96l-16.05,32.09c11.05-.08,19.98-9.06,19.98-20.13Z"/>
            <rect class="cls-14" x="75.24" y="19.98" width="3.29" height="3.29"
                  transform="translate(7.23 60.7) rotate(-45)"/>
            <rect class="cls-14" x="75.24" y="42.1" width="3.29" height="3.29"
                  transform="translate(-8.41 67.18) rotate(-45)"/>
            <rect class="cls-14" x="75.24" y="64.21" width="3.29" height="3.29"
                  transform="translate(-24.05 73.65) rotate(-45)"/>
            <path class="cls-14"
                  d="M76.95,65.25c-.36,0-.65-.29-.65-.65V23.07c0-.36.29-.65.65-.65s.65.29.65.65v41.53c0,.36-.29.65-.65.65Z"/>
            <g>
                <g>
                    <rect class="cls-7" x="142.36" y="21.6" width="8.82" height="8.82"/>
                    <rect class="cls-4" x="152.8" y="21.6" width="8.82" height="8.82"/>
                </g>
                <g>
                    <rect class="cls-4" x="142.36" y="32.35" width="8.82" height="8.82"/>
                    <rect class="cls-7" x="152.8" y="32.35" width="8.82" height="8.82"/>
                </g>
                <g>
                    <rect class="cls-7" x="142.36" y="43.1" width="8.82" height="8.82"/>
                    <rect class="cls-4" x="152.8" y="43.1" width="8.82" height="8.82"/>
                </g>
            </g>
            <path class="cls-7" d="M186.77,12.37h-3.93v-3.93h3.93v3.93ZM183.78,11.44h2.06v-2.06h-2.06v2.06Z"/>
            <rect class="cls-11" x="140.18" y="53.91" width="23.11" height="3.14"/>
            <rect class="cls-11" x="46.87" y="85.11" width="151.27" height="5.1"/>
            <rect class="cls-2" x="52.34" y="21.25" width="13.54" height="57.73"/>
        </g>
        <path class="cls-10"
              d="M204.47,90.22v15.54c0,3.54-2.87,6.42-6.42,6.42H46.81c-3.54,0-6.42-2.87-6.42-6.42v-15.54h164.08Z"/>
        <path class="cls-5"
              d="M126.45,100.7c0,2.25-1.82,4.07-4.07,4.07s-4.07-1.82-4.07-4.07,1.82-4.07,4.07-4.07,4.07,1.82,4.07,4.07Z"/>
    </g>
    <g>
        <g>
            <rect class="cls-7" x="96.72" y="151.21" width="72.15" height="8.67"
                  transform="translate(265.59 311.08) rotate(180)"/>
            <rect class="cls-1" x="73.32" y="151.21" width="23.4" height="8.67"
                  transform="translate(170.04 311.08) rotate(180)"/>
            <rect class="cls-10" x="73.32" y="153.43" width="19.24" height="4"
                  transform="translate(165.89 310.86) rotate(180)"/>
        </g>
        <g>
            <rect class="cls-8" x="96.72" y="142.4" width="72.15" height="8.67"
                  transform="translate(265.59 293.47) rotate(180)"/>
            <rect class="cls-6" x="73.32" y="142.4" width="23.4" height="8.67"
                  transform="translate(170.04 293.47) rotate(180)"/>
            <rect class="cls-10" x="73.32" y="144.62" width="19.24" height="4"
                  transform="translate(165.89 293.25) rotate(180)"/>
        </g>
        <g>
            <rect class="cls-7" x="96.72" y="133.59" width="72.15" height="8.67"
                  transform="translate(265.59 275.86) rotate(180)"/>
            <rect class="cls-1" x="73.32" y="133.59" width="23.4" height="8.67"
                  transform="translate(170.04 275.86) rotate(180)"/>
            <rect class="cls-10" x="73.32" y="135.82" width="19.24" height="4"
                  transform="translate(165.89 275.63) rotate(180)"/>
        </g>
    </g>
    <g>
        <rect class="cls-14" x="151.24" y="156.49" width="72.1" height="3.28"
              transform="translate(374.58 316.27) rotate(180)"/>
        <path class="cls-14" d="M185.84,151.07h2.91v-26.6c0-.8-.65-1.45-1.45-1.45h0c-.8,0-1.45.65-1.45,1.45v26.6Z"/>
        <rect class="cls-14" x="106.36" y="153.8" width="60.94" height="5.98"/>
    </g>
    <g>
        <g>
            <g>
                <path class="cls-12"
                      d="M212.74,289.32l7.54-6.09-14.83-22.78-11.07,8.94,12.86,19.35c1.35,1.68,3.81,1.94,5.49.58Z"/>
                <path class="cls-11"
                      d="M207.43,276.75h12.95v1.99c0,2.62-2.13,4.75-4.75,4.75h-3.45c-2.62,0-4.75-2.13-4.75-4.75v-1.99h0Z"
                      transform="translate(557.16 360.11) rotate(140.48)"/>
                <path class="cls-2"
                      d="M199.36,294.58h0l17.6-14.21c1.83-1.48,4.52-1.2,6,.64l6.72,8.32-20.92,16.9-7.97,6.44-2.97-3.67c-3.55-4.4-2.87-10.85,1.53-14.41Z"/>
                <path class="cls-11"
                      d="M205.84,289.39v-.04s.57-.46.57-.46h0l13.87-11.2,9.4,11.65-13.87,11.2-7.05,5.69-.92.74-2.97-3.67c-3.39-4.2-2.91-10.27.97-13.9Z"/>
            </g>
            <path class="cls-11"
                  d="M194.31,279.61l-30.43-48.17c-8.34-14.68-5.2-24.63-1.09-30.39,6.73-9.46,20.52-13.72,42.18-13.05,13.59.43,25.73,2.65,26.24,2.75l-4.44,24.01c-.1-.02-10.18-1.86-21.4-2.31-13.63-.55-20.07,1.32-22.17,2.48.18.76.63,2.12,1.79,4.21l29.97,47.41-20.64,13.05Z"/>
        </g>
        <g>
            <g>
                <path class="cls-12"
                      d="M137.94,302.01l9.69-.05,5.12-27.05-14.22.08-4.52,23.14c.01,2.16,1.77,3.89,3.93,3.88Z"/>
                <path class="cls-11"
                      d="M138.24,292.18h12.83v4.14c0,1.43-1.16,2.6-2.6,2.6h-7.64c-1.43,0-2.6-1.16-2.6-2.6v-4.14h0Z"
                      transform="translate(294.02 588.73) rotate(179.08)"/>
                <path class="cls-2"
                      d="M124.21,297.77h0l22.63-.13c2.36-.01,4.28,1.89,4.29,4.24l.06,10.7-26.89.15-10.25.06-.03-4.72c-.03-5.66,4.53-10.27,10.19-10.3Z"/>
                <path class="cls-11"
                      d="M132.51,297.76l.02-.04h.74s17.83-.1,17.83-.1l.08,14.97-17.83.1-9.06.05h-1.18s-.03-4.72-.03-4.72c-.03-5.4,4.13-9.84,9.43-10.26Z"/>
            </g>
            <path class="cls-2"
                  d="M155.36,290.3l-24.14-3.68,9.45-61.95c3.28-21.47,21.96-36.79,43.63-35.77,12.86-.16,41.92-.53,43.87-.46l-.79,24.41h.11c-2.06-.02-27.63.28-43.26.48h-.43s-.43-.02-.43-.02c-9.2-.51-17.17,5.95-18.56,15.05l-9.45,61.95Z"/>
        </g>
    </g>
    <g>
        <path class="cls-14"
              d="M295.53,164.8l-44.1,147.71h6.22l.12-.42,9.96-33.35h61.82l10.08,33.77h6.22l-.22-.75-43.88-146.96.7-2.34h-7.62l.22.75.48,1.59ZM298.64,175.22l28.74,96.25h-57.48l28.74-96.25Z"/>
        <path class="cls-14"
              d="M0,312.51h6.22l.12-.42,9.96-33.35h61.82l10.08,33.77h6.22l-.22-.75-43.88-146.96.7-2.34h-7.62l.22.75.48,1.59L0,312.51ZM18.47,271.47l28.74-96.25,28.74,96.25H18.47Z"/>
        <rect class="cls-7" y="159.99" width="345.85" height="6.1" transform="translate(345.85 326.08) rotate(180)"/>
    </g>
    <g>
        <g>
            <path class="cls-15"
                  d="M212.99,50.78h2.93v-13.52s-2.83,1.95-2.83,1.95c-.87,1.32-1.73,2.63-2.63,3.93-.67.96-1.27,2.01-1.44,3.17-.31,2.16,1.42,4.27,3.58,4.46.13.01.26.02.39.02Z"/>
            <path class="cls-12"
                  d="M223.35,74.27h14.47V24.18s-26,0-26.33,0c-.45,0,.64,33.39,1.03,36.45.77,6.13,3.45,13.64,10.84,13.64Z"/>
            <rect class="cls-12" x="229.18" y="44.92" width="22.89" height="44.54"
                  transform="translate(488.53 36.23) rotate(157.28)"/>
            <path class="cls-12" d="M238.92,74.17h0c11.43,0,20.7-9.27,20.7-20.7v-2.69h-20.7v23.39Z"/>
            <path class="cls-15"
                  d="M231.14,74.17l.83-1.14c1.03-1.43,3.26-.97,3.64.75,1.05,4.73,2.4,11.99,1.58,14.84l-6.05-14.44Z"/>
            <path class="cls-12"
                  d="M218.7,74.27h7.7c.7,0,1.27-.57,1.27-1.27v-16.09c0-.7-.57-1.27-1.27-1.27l-8.94-1.46c-6.02,0-9.04,7.43-7.89,12.48,1,4.37,4.55,7.61,9.13,7.61Z"/>
            <g class="cls-9">
                <path class="cls-3"
                      d="M212.26,56.54c-.46-9.7-1.14-32.36-.77-32.36h26.33v.55h-24.11c-.37,0,.31,22.66.77,32.36-2.43,2.6-3.44,6.86-2.69,10.13.74,3.23,2.88,5.85,5.8,6.99-4.04-.48-7.11-3.53-8.03-7.54-.75-3.27.26-7.53,2.69-10.13Z"/>
            </g>
            <path class="cls-2"
                  d="M238.65,67.19h17.69c5.57,0,10.09-4.52,10.09-10.09l1.87-32.07c0-5.57-4.52-10.09-10.09-10.09h-21.44c-5.57,0-11.84,4.52-11.84,10.09l3.62,32.07c0,5.57,4.52,10.09,10.09,10.09Z"/>
            <path class="cls-2"
                  d="M218.47,29.12h38.43V12.62c0-5.95-4.82-10.77-10.77-10.77h-27.67c-7.53,0-13.63,6.1-13.63,13.63h0c0,7.53,6.1,13.63,13.63,13.63Z"/>
            <path class="cls-2"
                  d="M250.16,22.81h0c1.1.97,2.78.87,3.75-.22l8.15-9.18c.97-1.1.87-2.78-.22-3.75h0c-1.1-.97-2.78-.87-3.75.22l-8.15,9.18c-.97,1.1-.87,2.78.22,3.75Z"/>
            <rect class="cls-12" x="221.68" y="36.81" width="12.07" height="13.97" rx="5.25" ry="5.25"
                  transform="translate(455.42 87.59) rotate(180)"/>
            <path class="cls-15"
                  d="M228,49.89c-.52,0-.94-.42-.94-.94s.42-.94.94-.94c.67,0,1.93,0,1.93-2.9v-2.64c0-2.9-1.45-2.9-1.93-2.9-.52,0-.94-.42-.94-.94s.42-.94.94-.94c2.38,0,3.8,1.78,3.8,4.77v2.64c0,4.15-2.38,4.77-3.8,4.77Z"/>
            <path class="cls-2"
                  d="M223.47,45.05h0c2.05,0,3.71-1.66,3.71-3.71v-19.39h-7.42v19.39c0,2.05,1.66,3.71,3.71,3.71Z"/>
            <g class="cls-9">
                <path class="cls-3"
                      d="M218.47,1.85h5.18c-7.53,0-13.63,6.1-13.63,13.63h0c0,7.53,6.1,13.63,13.63,13.63h1.29v5.37c0,.15,0,.3-.01.45-.05,3.27-4.96,3.43-5.15.17-.01-.21-.02-.41-.02-.62v-5.37h-1.29c-7.53,0-13.63-6.1-13.63-13.63h0c0-7.53,6.1-13.63,13.63-13.63Z"/>
            </g>
            <rect class="cls-2" x="209.92" y="32.54" width="3.1" height="1.76" rx=".88" ry=".88"
                  transform="translate(422.95 66.84) rotate(180)"/>
        </g>
        <g>
            <path class="cls-15"
                  d="M213.51,158.36c-9.01,0-18.35-2.77-25.18-7.83-.56-.41-1.35-.7-1.36-.7h0c-3.85,1.52-8.21-.36-9.73-4.22-1.52-3.85.36-8.21,4.22-9.73,3.7-1.46,10.06-1.66,15.81,2.6,6.07,4.5,16.11,6.16,23.36,3.88,3.8-1.2,6.23-3.29,7.21-6.22,1.31-3.93,5.56-6.05,9.49-4.73,3.93,1.31,6.05,5.56,4.74,9.49-2.52,7.52-8.53,13.12-16.93,15.77-3.64,1.15-7.59,1.7-11.62,1.7Z"/>
            <path class="cls-12"
                  d="M188.93,165.12c-3.3,0-6.76-.65-10.33-2.07-2.5-1-5.02-1.91-7.69-2.88-5.22-1.89-10.62-3.85-15.86-6.46-.73-.16-2.32-.2-4.73-.1-1.61.06-2.88.11-4.48-.52-3.88-1.54-5.78-5.93-4.24-9.81,1.25-3.16,4.4-5.01,7.62-4.75.15,0,.33-.01.52-.02,3.91-.15,8.37-.16,11.84,1.57,4.53,2.27,9.37,4.03,14.49,5.88,2.65.96,5.4,1.96,8.11,3.04,12.11,4.81,19.43-10.39,20.77-13.49,4.89-11.27,8.79-22,13.31-34.42l.59-1.63c1.43-3.92,5.76-5.94,9.69-4.52,3.92,1.43,5.95,5.76,4.52,9.69l-.59,1.63c-4.6,12.65-8.58,23.58-13.65,35.27-5.55,12.79-16.41,23.59-29.89,23.59ZM151.4,139.03s0,0,0,0c0,0,0,0,0,0ZM151.39,139.03s0,0,0,0c0,0,0,0,0,0Z"/>
            <path class="cls-4"
                  d="M221.61,142.39l-19.45-7.74c.09-.23,9.31-23.4,13.96-36.18l19.67,7.16c-4.76,13.08-13.8,35.8-14.19,36.77Z"/>
            <path class="cls-4"
                  d="M224.05,196.06l71.4-1.58-7.7-96.17c-.93-11.56-11.04-20.18-22.6-19.25l-30.38,2.43c-11.56.93-20.18,11.04-19.25,22.6l8.52,91.97Z"/>
        </g>
    </g>
    <g>
        <rect class="cls-7" x="233.22" y="231.35" width="6.08" height="81.11"
              transform="translate(472.31 543.99) rotate(-179.96)"/>
        <path class="cls-8"
              d="M179.39,231.3l108.33.08,8.27-1.65,3.21-18.68-105.5-.08c-7.89,0-14.3,6.39-14.3,14.28v6.05Z"/>
        <path class="cls-8"
              d="M219.6,212.62l74.57.06,15.58-89.61-58.64-.05c-9.21,0-17.09,6.61-18.66,15.69l-12.85,73.91Z"/>
        <polygon class="cls-7" points="234.94 212.63 309.51 212.69 325.09 123.08 250.52 123.02 234.94 212.63"/>
        <polygon class="cls-8" points="247.06 312.47 240.91 312.46 225.47 222.83 231.62 222.83 247.06 312.47"/>
        <polygon class="cls-8" points="299.12 312.51 292.96 312.5 277.52 222.87 283.68 222.87 299.12 312.51"/>
        <path class="cls-7"
              d="M309.69,211.07l-.82,4.79c-1.54,8.98-9.33,15.54-18.45,15.53l-95.06-.07,3.5-20.33,110.84.09Z"/>
        <rect class="cls-7" x="179.36" y="231.31" width="6.08" height="81.11"
              transform="translate(364.59 543.86) rotate(-179.96)"/>
        <path class="cls-10"
              d="M205.3,222.81h0c1.68,0,3.04-1.36,3.04-3.04l.02-25.41h-6.08s-.02,25.4-.02,25.4c0,1.68,1.36,3.04,3.04,3.04Z"/>
        <path class="cls-8"
              d="M205.31,203.4h0c8.91,0,16.14-7.21,16.15-16.13v-1.94s-32.27-.03-32.27-.03v1.94c0,8.91,7.21,16.14,16.12,16.15Z"/>
        <path class="cls-7"
              d="M191.32,190.25h28.02c2.53,0,4.58-2.05,4.58-4.58h0c0-2.53-2.05-4.58-4.58-4.58h-28.02c-2.53,0-4.58,2.05-4.58,4.58h0c0,2.53,2.05,4.58,4.58,4.58Z"/>
    </g>
    <g>
        <polygon class="cls-11" points="26.55 129.14 45.16 129.14 44.09 125.2 27.62 125.2 26.55 129.14"/>
        <polygon class="cls-10" points="28.6 159.89 43.1 159.89 46.68 131.78 25.02 131.78 28.6 159.89"/>
        <polygon class="cls-5" points="46.81 137.48 45.03 151.44 26.68 151.44 24.9 137.48 46.81 137.48"/>
        <rect class="cls-2" x="24.54" y="128.66" width="22.62" height="3.94"
              transform="translate(71.71 261.27) rotate(180)"/>
    </g>
</svg>