<?xml version="1.0" encoding="UTF-8"?>
<svg xmlns="http://www.w3.org/2000/svg" viewBox="0 0 394.01 324.46">
    <defs>
        <style>
            .cls-1 {
            fill: #ded7ff;
            }

            .cls-2 {
            fill: #d42190;
            }

            .cls-3 {
            fill: #1c2f36;
            }

            .cls-4 {
            fill: #0b0b21;
            }

            .cls-5 {
            fill: #fff;
            }

            .cls-6 {
            fill: #b19cfe;
            }

            .cls-7 {
            fill: #09136e;
            }

            .cls-8 {
            mix-blend-mode: multiply;
            opacity: .4;
            }

            .cls-9 {
            isolation: isolate;
            }

            .cls-10 {
            fill: #ffc655;
            }

            .cls-11 {
            fill: #e89c77;
            }

            .cls-12, .cls-13 {
            opacity: .2;
            }

            .cls-14 {
            fill: #ddd;
            }

            .cls-15 {
            fill: #0f1b63;
            }

            .cls-16 {
            opacity: .1;
            }

            .cls-17 {
            fill: #ffc19d;
            }

            .cls-18 {
            fill: #0a0a16;
            }

            .cls-19 {
            fill: #542fd0;
            }

            .cls-20 {
            fill: #d67f5c;
            }

            .cls-13 {
            fill: none;
            stroke: #fff;
            stroke-miterlimit: 10;
            stroke-width: 1.5px;
            }
        </style>
    </defs>
    <g class="cls-9">
        <g id="OBJECTS">
            <g>
                <g class="cls-8">
                    <path class="cls-7"
                          d="M146.07,294.75h189.99c1.06-1.34,2.07-2.72,3.04-4.07,20.82-29.06,33.31-73.83,4.92-102.35-12.02-12.08-33.14-25.51-50.91-20.03-14.71,4.54-30.91,10.05-41.9,21.33-6.02,6.18-10.65,13.64-16.92,19.58-5.91,5.59-15.95,12.27-24.15,13.69-9.52,1.64-20.42-4.1-30.01-4.74-23.42-1.56-41.23,21.21-42.09,43.16-.41,10.5,2.92,20.77,6.78,30.55.38.97.78,1.95,1.25,2.89Z"/>
                </g>
                <g class="cls-8">
                    <path class="cls-7"
                          d="M22.17,172.63c3.11,5.58,6.81,10.79,10.49,15.99,1.01,1.42,2.03,2.86,3.18,4.16h175.59c.25-.02.5-.04.76-.05,1.16-.06,2.35-.02,3.57.05h14.5c.75-.21,1.48-.49,2.19-.84,2.16-1.07,3.82-2.97,5.31-4.9,13.56-17.54,17.84-42.65,10.24-63.56-8.16-22.45-33.85-42.37-58.39-38.98-11.24,1.55-21.16,8.02-30.05,15.08-7.61,6.04-14.16,10.84-23.28,5.59-9.96-5.74-12.87-14.98-18.23-24.4-10.39-18.27-33.21-27.88-53.95-24.44-20.73,3.44-38.59,18.79-47.05,38.03-10.5,23.87-7.43,55.77,5.13,78.29Z"/>
                </g>
                <g>
                    <g>
                        <path class="cls-10"
                              d="M386.54,68.04h-39.92V27.95c0-.54-.44-.97-.97-.97s-.97.44-.97.97v40.09h-4.52c-.54,0-.97.44-.97.97s.44.97.97.97h4.52v4.36c0,.54.44.97.97.97s.97-.44.97-.97v-4.36h39.92c.54,0,.97-.44.97-.97s-.44-.97-.97-.97Z"/>
                        <rect class="cls-2" x="349.99" y="51.14" width="6.18" height="14.84"/>
                        <rect class="cls-10" x="358.54" y="45.09" width="6.18" height="20.89"/>
                        <rect class="cls-6" x="367.42" y="40.52" width="6.18" height="25.46"/>
                        <rect class="cls-5" x="376.01" y="36.27" width="6.18" height="29.71"/>
                    </g>
                    <path class="cls-13"
                          d="M132.86,173.09l-5.23,2.16c-.17.07-.34.16-.49.26-1.86-2.65-4.14-4.89-6.72-6.69.1-.16.19-.32.26-.5l2.15-5.24c.67-1.63-.11-3.5-1.74-4.17l-5.24-2.15c-1.63-.67-3.5.11-4.17,1.74l-2.15,5.24c-.07.18-.12.36-.16.54-3.01-.52-6.13-.53-9.23,0-.04-.18-.09-.36-.16-.53l-2.16-5.23c-.67-1.63-2.54-2.41-4.17-1.73l-5.23,2.16c-1.63.67-2.41,2.54-1.73,4.17l2.16,5.23c.07.17.16.34.26.49-2.65,1.86-4.89,4.14-6.69,6.72-.16-.1-.32-.19-.5-.26l-5.24-2.15c-.78-.32-1.65-.32-2.43,0,0,0,0,0-.01,0-.79.33-1.4.95-1.72,1.74l-2.15,5.24h0c-.67,1.63.11,3.5,1.74,4.17l5.24,2.15c.18.07.36.12.54.16-.52,3.01-.53,6.13,0,9.23-.18.04-.35.09-.53.16l-5.23,2.16c-1.63.67-2.41,2.54-1.73,4.17l2.16,5.23c.67,1.63,2.54,2.41,4.17,1.73l5.23-2.16c.17-.07.34-.16.49-.26,1.86,2.65,4.14,4.89,6.72,6.69-.1.16-.19.32-.27.5l-2.15,5.24c-.32.79-.32,1.66,0,2.45.33.79.95,1.4,1.74,1.72l5.24,2.15h0c.81.33,1.68.31,2.43,0,.76-.31,1.4-.92,1.74-1.74l2.15-5.24c.07-.18.12-.36.16-.54,3.01.52,6.13.53,9.23,0,.04.18.09.36.16.53l2.16,5.23c.67,1.63,2.54,2.41,4.17,1.73l5.23-2.16c1.63-.67,2.41-2.54,1.73-4.17l-2.16-5.23c-.07-.17-.16-.34-.26-.49,2.65-1.86,4.89-4.14,6.69-6.72.16.1.32.19.5.27l5.24,2.15c.81.33,1.68.31,2.43,0,.76-.31,1.4-.92,1.74-1.74l2.15-5.24c.67-1.63-.11-3.5-1.74-4.17l-5.24-2.15c-.18-.07-.36-.12-.54-.16.52-3.01.53-6.13,0-9.23.18-.04.36-.09.53-.16l5.23-2.16c1.63-.67,2.41-2.54,1.73-4.17l-2.16-5.23c-.67-1.63-2.54-2.41-4.17-1.73ZM110.52,205.07c-7.65,3.16-16.44-.49-19.6-8.14-3.16-7.65.49-16.44,8.14-19.6,7.65-3.16,16.44.49,19.6,8.14,3.16,7.65-.49,16.44-8.14,19.6Z"/>
                    <g>
                        <path class="cls-1"
                              d="M54.77,226.96c-.36,0-.65-.29-.65-.65v-3.6c0-.36.29-.65.65-.65s.65.29.65.65v3.6c0,.36-.29.65-.65.65ZM54.77,218.16c-.36,0-.65-.29-.65-.65v-5.19c0-.36.29-.65.65-.65s.65.29.65.65v5.19c0,.36-.29.65-.65.65ZM54.77,207.78c-.36,0-.65-.29-.65-.65v-5.19c0-.36.29-.65.65-.65s.65.29.65.65v5.19c0,.36-.29.65-.65.65ZM54.77,197.39c-.36,0-.65-.29-.65-.65v-5.19c0-.36.29-.65.65-.65s.65.29.65.65v5.19c0,.36-.29.65-.65.65Z"/>
                        <g>
                            <path class="cls-1"
                                  d="M24.73,161.41c-.36,0-.65-.29-.65-.65v-5.12c0-.36.29-.65.65-.65s.65.29.65.65v5.12c0,.36-.29.65-.65.65ZM24.73,151.17c-.36,0-.65-.29-.65-.65v-5.12c0-.36.29-.65.65-.65s.65.29.65.65v5.12c0,.36-.29.65-.65.65ZM24.73,140.94c-.36,0-.65-.29-.65-.65v-5.12c0-.36.29-.65.65-.65s.65.29.65.65v5.12c0,.36-.29.65-.65.65ZM24.73,130.7c-.36,0-.65-.29-.65-.65v-5.12c0-.36.29-.65.65-.65s.65.29.65.65v5.12c0,.36-.29.65-.65.65ZM24.73,120.46c-.36,0-.65-.29-.65-.65v-5.12c0-.36.29-.65.65-.65s.65.29.65.65v5.12c0,.36-.29.65-.65.65ZM24.73,110.22c-.36,0-.65-.29-.65-.65v-5.12c0-.36.29-.65.65-.65s.65.29.65.65v5.12c0,.36-.29.65-.65.65ZM24.73,99.99c-.36,0-.65-.29-.65-.65v-5.12c0-.36.29-.65.65-.65s.65.29.65.65v5.12c0,.36-.29.65-.65.65ZM24.73,89.75c-.36,0-.65-.29-.65-.65v-5.12c0-.36.29-.65.65-.65s.65.29.65.65v5.12c0,.36-.29.65-.65.65ZM24.73,79.51c-.36,0-.65-.29-.65-.65v-5.12c0-.36.29-.65.65-.65s.65.29.65.65v5.12c0,.36-.29.65-.65.65ZM24.75,69.28s-.02,0-.03,0c-.36-.02-.63-.32-.62-.68.08-1.77.39-3.51.92-5.19.11-.34.48-.53.81-.42.34.11.53.47.42.81-.49,1.57-.78,3.2-.86,4.86-.02.35-.3.62-.65.62ZM27.79,59.62c-.12,0-.24-.03-.35-.1-.3-.19-.39-.59-.2-.9.94-1.49,2.07-2.85,3.36-4.06.26-.24.67-.23.92.03.24.26.23.67-.03.92-1.21,1.13-2.27,2.41-3.15,3.8-.12.2-.33.3-.55.3ZM35.19,52.71c-.23,0-.45-.12-.57-.34-.17-.32-.05-.71.26-.88,1.55-.84,3.21-1.47,4.92-1.89.35-.08.7.13.78.48.08.35-.13.7-.48.78-1.6.39-3.16.98-4.61,1.77-.1.05-.2.08-.31.08ZM172.99,50.33h-5.12c-.36,0-.65-.29-.65-.65s.29-.65.65-.65h5.12c.36,0,.65.29.65.65s-.29.65-.65.65ZM162.76,50.33h-5.12c-.36,0-.65-.29-.65-.65s.29-.65.65-.65h5.12c.36,0,.65.29.65.65s-.29.65-.65.65ZM183.22,50.33h-5.12c-.36,0-.65-.29-.65-.65s.29-.65.65-.65h5.12c.36,0,.65.29.65.65s-.29.65-.65.65ZM152.52,50.33h-5.12c-.36,0-.65-.29-.65-.65s.29-.65.65-.65h5.12c.36,0,.65.29.65.65s-.29.65-.65.65ZM142.28,50.33h-5.12c-.36,0-.65-.29-.65-.65s.29-.65.65-.65h5.12c.36,0,.65.29.65.65s-.29.65-.65.65ZM132.04,50.33h-5.12c-.36,0-.65-.29-.65-.65s.29-.65.65-.65h5.12c.36,0,.65.29.65.65s-.29.65-.65.65ZM121.81,50.33h-5.12c-.36,0-.65-.29-.65-.65s.29-.65.65-.65h5.12c.36,0,.65.29.65.65s-.29.65-.65.65ZM111.57,50.33h-5.12c-.36,0-.65-.29-.65-.65s.29-.65.65-.65h5.12c.36,0,.65.29.65.65s-.29.65-.65.65ZM101.33,50.33h-5.12c-.36,0-.65-.29-.65-.65s.29-.65.65-.65h5.12c.36,0,.65.29.65.65s-.29.65-.65.65ZM91.09,50.33h-5.12c-.36,0-.65-.29-.65-.65s.29-.65.65-.65h5.12c.36,0,.65.29.65.65s-.29.65-.65.65ZM80.86,50.33h-5.12c-.36,0-.65-.29-.65-.65s.29-.65.65-.65h5.12c.36,0,.65.29.65.65s-.29.65-.65.65ZM70.62,50.33h-5.12c-.36,0-.65-.29-.65-.65s.29-.65.65-.65h5.12c.36,0,.65.29.65.65s-.29.65-.65.65ZM60.38,50.33h-5.12c-.36,0-.65-.29-.65-.65s.29-.65.65-.65h5.12c.36,0,.65.29.65.65s-.29.65-.65.65ZM50.14,50.33h-5.12c-.36,0-.65-.29-.65-.65s.29-.65.65-.65h5.12c.36,0,.65.29.65.65s-.29.65-.65.65Z"/>
                            <path class="cls-1"
                                  d="M24.73,169.15c-.36,0-.65-.29-.65-.65v-2.6c0-.36.29-.65.65-.65s.65.29.65.65v2.6c0,.36-.29.65-.65.65Z"/>
                        </g>
                        <path class="cls-1"
                              d="M373.01,231.57c-.36,0-.65-.29-.65-.65v-5.26c0-.36.29-.65.65-.65s.65.29.65.65v5.26c0,.36-.29.65-.65.65ZM373.01,221.05c-.36,0-.65-.29-.65-.65v-5.26c0-.36.29-.65.65-.65s.65.29.65.65v5.26c0,.36-.29.65-.65.65ZM373.01,210.53c-.36,0-.65-.29-.65-.65v-5.26c0-.36.29-.65.65-.65s.65.29.65.65v5.26c0,.36-.29.65-.65.65ZM373.01,200.01c-.36,0-.65-.29-.65-.65v-5.26c0-.36.29-.65.65-.65s.65.29.65.65v5.26c0,.36-.29.65-.65.65ZM373.01,178.98c-.36,0-.65-.29-.65-.65v-5.26c0-.36.29-.65.65-.65s.65.29.65.65v5.26c0,.36-.29.65-.65.65ZM373.01,168.46c-.36,0-.65-.29-.65-.65v-5.26c0-.36.29-.65.65-.65s.65.29.65.65v5.26c0,.36-.29.65-.65.65ZM373.01,157.94c-.36,0-.65-.29-.65-.65v-5.26c0-.36.29-.65.65-.65s.65.29.65.65v5.26c0,.36-.29.65-.65.65ZM373.01,147.42c-.36,0-.65-.29-.65-.65v-5.26c0-.36.29-.65.65-.65s.65.29.65.65v5.26c0,.36-.29.65-.65.65ZM373.01,136.9c-.36,0-.65-.29-.65-.65v-5.26c0-.36.29-.65.65-.65s.65.29.65.65v5.26c0,.36-.29.65-.65.65ZM373.01,126.38c-.36,0-.65-.29-.65-.65v-5.26c0-.36.29-.65.65-.65s.65.29.65.65v5.26c0,.36-.29.65-.65.65ZM373.01,115.86c-.36,0-.65-.29-.65-.65v-1.98c0-1.06-.09-2.12-.26-3.15-.06-.35.18-.69.53-.75.36-.06.69.18.75.54.18,1.1.27,2.24.27,3.37v1.98c0,.36-.29.65-.65.65ZM371.22,105.6c-.25,0-.48-.14-.59-.38-.71-1.54-1.61-2.99-2.7-4.29-.23-.28-.19-.69.08-.91.28-.23.69-.19.91.08,1.16,1.4,2.13,2.94,2.88,4.58.15.33,0,.71-.32.86-.09.04-.18.06-.27.06ZM364.57,97.6c-.13,0-.26-.04-.37-.12-1.39-.98-2.9-1.77-4.49-2.35-.34-.12-.51-.5-.39-.83.12-.34.5-.51.83-.39,1.7.62,3.31,1.47,4.8,2.51.29.21.36.61.16.9-.13.18-.33.27-.53.27ZM354.81,94.04s-.04,0-.06,0c-.55-.05-1.1-.07-1.65-.07h-3.55c-.36,0-.65-.29-.65-.65s.29-.65.65-.65h3.55c.58,0,1.18.02,1.76.07.36.03.62.34.59.7-.03.34-.31.59-.65.59ZM344.29,93.97h-5.26c-.36,0-.65-.29-.65-.65s.29-.65.65-.65h5.26c.36,0,.65.29.65.65s-.29.65-.65.65ZM333.77,93.97h-5.26c-.36,0-.65-.29-.65-.65s.29-.65.65-.65h5.26c.36,0,.65.29.65.65s-.29.65-.65.65Z"/>
                        <g>
                            <path class="cls-1"
                                  d="M259.56,324.46h-1.23c-.36,0-.65-.29-.65-.65s.29-.65.65-.65h1.23c1.28,0,2.56-.13,3.8-.37.35-.07.69.16.76.51.07.35-.16.69-.51.76-1.33.26-2.69.4-4.05.4ZM253.14,324.46h-5.19c-.36,0-.65-.29-.65-.65s.29-.65.65-.65h5.19c.36,0,.65.29.65.65s-.29.65-.65.65ZM242.77,324.46h-5.19c-.36,0-.65-.29-.65-.65s.29-.65.65-.65h5.19c.36,0,.65.29.65.65s-.29.65-.65.65ZM232.39,324.46h-5.19c-.36,0-.65-.29-.65-.65s.29-.65.65-.65h5.19c.36,0,.65.29.65.65s-.29.65-.65.65ZM222.02,324.46h-5.19c-.36,0-.65-.29-.65-.65s.29-.65.65-.65h5.19c.36,0,.65.29.65.65s-.29.65-.65.65ZM211.65,324.46h-5.19c-.36,0-.65-.29-.65-.65s.29-.65.65-.65h5.19c.36,0,.65.29.65.65s-.29.65-.65.65ZM201.27,324.46h-5.19c-.36,0-.65-.29-.65-.65s.29-.65.65-.65h5.19c.36,0,.65.29.65.65s-.29.65-.65.65ZM190.9,324.46h-5.19c-.36,0-.65-.29-.65-.65s.29-.65.65-.65h5.19c.36,0,.65.29.65.65s-.29.65-.65.65ZM180.52,324.46h-5.19c-.36,0-.65-.29-.65-.65s.29-.65.65-.65h5.19c.36,0,.65.29.65.65s-.29.65-.65.65ZM170.15,324.46h-5.19c-.36,0-.65-.29-.65-.65s.29-.65.65-.65h5.19c.36,0,.65.29.65.65s-.29.65-.65.65ZM159.77,324.46h-5.19c-.36,0-.65-.29-.65-.65s.29-.65.65-.65h5.19c.36,0,.65.29.65.65s-.29.65-.65.65ZM149.4,324.46h-5.19c-.36,0-.65-.29-.65-.65s.29-.65.65-.65h5.19c.36,0,.65.29.65.65s-.29.65-.65.65ZM139.02,324.46h-5.19c-.36,0-.65-.29-.65-.65s.29-.65.65-.65h5.19c.36,0,.65.29.65.65s-.29.65-.65.65ZM128.65,324.46h-5.19c-.36,0-.65-.29-.65-.65s.29-.65.65-.65h5.19c.36,0,.65.29.65.65s-.29.65-.65.65ZM118.28,324.46h-5.19c-.36,0-.65-.29-.65-.65s.29-.65.65-.65h5.19c.36,0,.65.29.65.65s-.29.65-.65.65ZM107.9,324.46h-5.19c-.36,0-.65-.29-.65-.65s.29-.65.65-.65h5.19c.36,0,.65.29.65.65s-.29.65-.65.65ZM97.53,324.46h-5.19c-.36,0-.65-.29-.65-.65s.29-.65.65-.65h5.19c.36,0,.65.29.65.65s-.29.65-.65.65ZM87.15,324.46h-5.19c-.36,0-.65-.29-.65-.65s.29-.65.65-.65h5.19c.36,0,.65.29.65.65s-.29.65-.65.65ZM76.78,324.46h-2.48c-.93,0-1.87-.06-2.78-.19-.36-.05-.6-.38-.56-.73.05-.36.38-.6.73-.56.86.12,1.74.18,2.61.18h2.48c.36,0,.65.29.65.65s-.29.65-.65.65ZM66.61,322.93c-.08,0-.17-.02-.25-.05-1.64-.69-3.2-1.59-4.61-2.69-.28-.22-.34-.63-.12-.91.22-.28.63-.34.91-.12,1.33,1.03,2.78,1.87,4.32,2.52.33.14.49.52.35.85-.1.25-.34.4-.6.4ZM268.38,322.41c-.24,0-.47-.13-.58-.36-.16-.32-.03-.71.29-.87,1.5-.74,2.9-1.68,4.16-2.78.27-.24.68-.21.92.06.24.27.21.68-.06.92-1.35,1.18-2.84,2.18-4.44,2.97-.09.05-.19.07-.29.07ZM58.49,316.66c-.2,0-.39-.09-.52-.25-1.09-1.42-1.99-2.98-2.67-4.62-.14-.33.02-.71.35-.85.33-.14.71.02.85.35.64,1.54,1.48,3,2.5,4.33.22.28.16.69-.12.91-.12.09-.26.13-.39.13ZM276.1,315.65c-.12,0-.25-.04-.36-.11-.3-.2-.38-.6-.18-.9.94-1.39,1.68-2.9,2.23-4.48.12-.34.48-.52.82-.4.34.12.52.49.4.82-.58,1.69-1.38,3.3-2.38,4.78-.13.19-.33.29-.54.29ZM279.42,305.95s-.03,0-.05,0c-.36-.02-.63-.33-.6-.69.03-.44.05-.89.05-1.35v-3.8c0-.36.29-.65.65-.65s.65.29.65.65v3.8c0,.48-.02.96-.05,1.43-.02.34-.31.6-.65.6ZM279.47,295.58c-.36,0-.65-.29-.65-.65v-5.19c0-.36.29-.65.65-.65s.65.29.65.65v5.19c0,.36-.29.65-.65.65ZM279.47,285.2c-.36,0-.65-.29-.65-.65v-5.19c0-.36.29-.65.65-.65s.65.29.65.65v5.19c0,.36-.29.65-.65.65Z"/>
                            <path class="cls-1"
                                  d="M54.56,307.15c-.32,0-.6-.24-.64-.57-.11-.88-.17-1.78-.17-2.68,0-.36.29-.65.65-.65s.65.29.65.65c0,.84.05,1.68.16,2.51.05.36-.2.68-.56.73-.03,0-.06,0-.08,0Z"/>
                        </g>
                    </g>
                    <g class="cls-12">
                        <circle class="cls-15" cx="256.59" cy="71.11" r="70.78"
                                transform="translate(24.87 202.26) rotate(-45)"/>
                        <path class="cls-5"
                              d="M313.97,29.15c-.35-.47-.7-.93-1.06-1.39-13.01-16.87-33.42-27.76-56.33-27.76s-43.32,10.89-56.33,27.76c-.36.46-.71.92-1.06,1.39-8.63,11.77-13.72,26.28-13.72,41.95s5.1,30.18,13.72,41.95c.35.47.69.93,1.05,1.39,13.01,16.88,33.42,27.77,56.33,27.77s43.32-10.89,56.33-27.77c.36-.46.7-.92,1.05-1.39,8.63-11.77,13.72-26.28,13.72-41.95s-5.1-30.18-13.72-41.95ZM325.95,70.24h-30.17c-.08-11.68-1.69-22.92-4.66-32.93,7.55-1.9,14.66-4.39,21.24-7.41,8.38,11.31,13.41,25.25,13.59,40.33ZM257.46,41.48c11.18-.06,21.93-1.38,31.96-3.76,2.88,9.67,4.55,20.75,4.63,32.52h-36.59v-28.75ZM257.46,39.75V1.76c13.4.56,25.08,14.22,31.45,34.31-9.87,2.33-20.45,3.62-31.45,3.68ZM255.72,39.75c-11-.06-21.58-1.35-31.45-3.68,6.37-20.09,18.06-33.75,31.45-34.31v37.99ZM255.72,41.48v28.75h-36.59c.08-11.77,1.74-22.84,4.63-32.52,10.04,2.38,20.78,3.7,31.96,3.76ZM255.72,71.97v28.76c-11.18.06-21.93,1.38-31.96,3.76-2.88-9.67-4.55-20.75-4.63-32.52h0s36.59,0,36.59,0ZM255.72,102.46v37.99c-13.4-.56-25.08-14.22-31.45-34.31,9.87-2.33,20.45-3.62,31.45-3.68ZM257.46,102.46c11,.06,21.58,1.35,31.45,3.68-6.37,20.09-18.06,33.75-31.45,34.31v-37.99ZM257.46,100.73v-28.76h36.59c-.08,11.77-1.75,22.85-4.63,32.52-10.04-2.38-20.78-3.7-31.96-3.76ZM311.3,28.51c-6.41,2.91-13.35,5.32-20.7,7.15-1.67-5.28-3.73-10.2-6.15-14.63-4.89-8.96-10.87-15.26-17.42-18.51,17.91,2.72,33.6,12.31,44.27,25.99ZM246.14,2.52c-6.55,3.25-12.53,9.54-17.42,18.51-2.42,4.43-4.48,9.35-6.15,14.63-7.34-1.83-14.28-4.24-20.7-7.15,10.67-13.68,26.36-23.27,44.27-25.99ZM200.82,29.91c6.58,3.02,13.7,5.51,21.24,7.41-2.98,10.01-4.59,21.24-4.66,32.93h-30.17c.18-15.09,5.21-29.02,13.59-40.33ZM187.23,71.97h0s30.17,0,30.17,0h0c.07,11.68,1.69,22.92,4.66,32.93-7.55,1.9-14.66,4.39-21.24,7.41-8.38-11.31-13.41-25.25-13.59-40.33ZM201.87,113.7c6.41-2.91,13.35-5.32,20.7-7.15,1.67,5.28,3.73,10.2,6.15,14.63,4.89,8.96,10.87,15.26,17.42,18.51-17.92-2.72-33.6-12.31-44.27-25.99ZM267.04,139.69c6.55-3.25,12.53-9.54,17.42-18.51,2.42-4.44,4.48-9.35,6.15-14.63,7.34,1.83,14.28,4.24,20.7,7.15-10.67,13.69-26.35,23.28-44.27,25.99ZM312.36,112.31c-6.58-3.02-13.7-5.51-21.24-7.41,2.98-10.01,4.59-21.24,4.66-32.93h0s30.17,0,30.17,0h0c-.18,15.09-5.21,29.02-13.59,40.33Z"/>
                    </g>
                    <g class="cls-12">
                        <path class="cls-5"
                              d="M150.81,34.54c0,2.79-2.27,5.06-5.06,5.06s-5.06-2.27-5.06-5.06,2.27-5.06,5.06-5.06,5.06,2.27,5.06,5.06Z"/>
                        <path class="cls-5"
                              d="M156.41,29.71c-.41,0-.8-.21-1.02-.59-1.96-3.48-5.65-5.64-9.65-5.64s-7.69,2.16-9.65,5.64c-.31.56-1.02.76-1.59.44-.56-.32-.76-1.03-.44-1.59,2.37-4.21,6.84-6.83,11.67-6.83s9.3,2.62,11.67,6.83c.32.56.12,1.27-.44,1.59-.18.1-.38.15-.57.15Z"/>
                        <path class="cls-5"
                              d="M129.44,25.96c-.19,0-.39-.05-.57-.15-.56-.32-.76-1.03-.44-1.59,3.52-6.25,10.16-10.14,17.33-10.14s13.81,3.88,17.33,10.14c.32.56.12,1.27-.44,1.59-.56.32-1.27.12-1.59-.44-3.11-5.52-8.97-8.95-15.3-8.95s-12.19,3.43-15.3,8.95c-.21.38-.61.59-1.02.59Z"/>
                        <path class="cls-5"
                              d="M166.13,21.19c-.41,0-.8-.21-1.02-.59-3.93-6.98-11.35-11.32-19.36-11.32s-15.43,4.34-19.36,11.32c-.31.56-1.02.76-1.59.44-.56-.32-.76-1.03-.44-1.59,4.34-7.72,12.54-12.51,21.39-12.51s17.05,4.79,21.39,12.51c.32.56.12,1.27-.44,1.59-.18.1-.38.15-.57.15Z"/>
                        <path class="cls-5"
                              d="M169.84,16.42c-.41,0-.8-.21-1.02-.59-4.68-8.33-13.52-13.5-23.07-13.5s-18.39,5.17-23.07,13.5c-.32.56-1.02.76-1.59.44-.56-.32-.76-1.03-.44-1.59,5.09-9.06,14.71-14.68,25.1-14.68s20.01,5.63,25.1,14.68c.32.56.12,1.27-.44,1.59-.18.1-.38.15-.57.15Z"/>
                    </g>
                    <g>
                        <g>
                            <g>
                                <path class="cls-4"
                                      d="M78.87,62.02c-1.44,3.12-2.29,6.54-4.13,9.47-1.78,2.85-4.47,4.55-7.44,5.96-5.35,2.55-10.54,5.85-13.49,11.19-3.45,6.26-1.15,12.87-.13,19.43.6,3.88.09,7.55-.59,11.38-.59,3.3-1.05,6.57-.54,9.91.48,3.18,1.54,6.53,4.04,8.7,2.79,2.42,6.81,3.36,10.41,3.51.48.02.48-.73,0-.75-3.49-.15-7.55-1.07-10.17-3.55-2.29-2.17-3.2-5.41-3.61-8.44-.91-6.76,2.22-13.28,1.31-20.08-.91-6.77-3.63-13.64.12-20.07,1.55-2.66,3.8-4.86,6.23-6.72,2.31-1.76,4.87-2.91,7.46-4.18,2.72-1.33,5.14-3.02,6.83-5.57,1.99-3,2.86-6.57,4.35-9.81.2-.44-.45-.82-.65-.38h0Z"/>
                                <path class="cls-4"
                                      d="M126.34,64.54c.08,4.43,1.07,8.74,2.73,12.84,1.71,4.24,4.15,8.17,5.48,12.57,1.26,4.17,1.16,8.44-1.05,12.26-2.02,3.48-5.36,6.07-9.29,6.97-.47.11-.27.83.2.72,5.75-1.33,10.41-6.22,11.51-12.03,1.39-7.32-3.28-13.87-5.95-20.3-1.73-4.16-2.79-8.53-2.87-13.04,0-.48-.76-.48-.75,0h0Z"/>
                                <path class="cls-2"
                                      d="M128.14,172.67c-2.52-7.38-4.24-14.97-3.6-22.58.65-7.78-.36-16.24-1.45-23.96-.95-6.75-.95-13.54-1.75-20.37-.04-.36-.02-.83.33-.95.23-.07.46.07.66.21,5.62,3.98,8.64,10.66,11.49,16.74,3.04,6.48,5.5,13.22,7.77,20,2.47,9.72,6.09,19.51,9.55,28.92.81,2.21,10.82,19.63,7.89,19.77-7.51.36-15.01.72-22.52,1.09-.24.01-.49.02-.7-.08-.34-.16-.51-.54-.65-.89-2.28-5.75-4.92-11.76-7.02-17.9Z"/>
                                <path class="cls-4"
                                      d="M61.85,83.55c-5.43,3.15-8.45,10.05-6.98,16.17,1.19,4.94,3.01,8.94,1.55,13.99-1.51,5.22-4.25,10.43-3.43,16.02.67,4.58,3.8,8.57,7.73,11.02s8.6,3.49,13.22,3.79c7.07.45,14.71-1.03,19.66-6.1,6.45-6.61,6.83-17.6,13.6-23.88,6.03-5.58,15.52-4.31,20.97-10.31,3.81-4.2,5.1-10.83,3.71-16.17-.85-3.26-2.32-6.33-3.42-9.51-1.44-4.16-1.28-7.86-1.09-12.15.11-2.38.21-4.77.32-7.15.02-.37.03-.75-.11-1.09-.48-1.17-2.25-1.05-3.12-1.84-2.85-2.59-9.67-3.75-13.36-4-4.99-.34-9.72-2.27-14.76-2.62-4.77-.34-12.89,1.58-15.38,6.18-.57,1.04-.85,2.21-1.15,3.36-.94,3.63-1.94,7.28-3.5,10.68-1.33,2.89-2.22,6.61-4.62,8.86-2.49,2.34-6.14,2.86-9.18,4.41-.22.11-.43.23-.64.35Z"/>
                                <path class="cls-17"
                                      d="M119.62,107.5c.03,1.77-.79,3.3-1.08,5.02-.95,5.69-.97,11.44-2.21,17.13-.05.24-.12.51-.34.62-.34.18-.71-.17-.95-.47-3.85-4.97-8.58-7.91-13.59-11.5-4.38-3.13-9.8-4.18-14.42-7.04-1.27-.79-2.04-1.99-3.17-2.92-.62-.51-2.06-1.08-1.62-1.83.09-.16.26-.32.53-.49.68-.43,1.05-.3,1.53-1.06.45-.71.68-1.52,1.26-2.14,1.47-1.55,4.04-1.13,5.87-1.99.84-.4,1.58-.86,2.45-1.22,1.03-.42,1.91-1.12,2.44-2.11.44-.85.6-1.82.73-2.77.11-.85.19-1.7.25-2.56.11-1.45.16-2.92.16-4.38.01-1.88-.03-3.76-.07-5.64,1.32.36,2.14,1.24,3.53,1.45,1.44.22,2.9.14,4.36.18,3.42.08,6.86.02,10.26.53.22.04.46.08.62.24.36.36.39,1.14.32,1.87-.04.45-.11.89-.16,1.17-.19,1.08-.25,2.04-.23,3.16.07,3.65-.52,7.75,1.05,11.23.11.24.23.47.34.68.92,1.64,2.12,2.71,2.15,4.86Z"/>
                                <path class="cls-11"
                                      d="M117.47,102.65c-1.2,0-2.42-.18-3.6-.44-3.27-.68-6.47-1.8-9.34-3.49-2.03-1.19-3.9-2.69-5.46-4.45-.53-.6-1.32-1.36-1.77-2.11.11-1.45.16-2.92.16-4.38.79-1.16,2.12-2.04,3.5-2.57,1.75-.68,3.64-.96,5.52-1.06,2.45-.13,4.95.05,7.26.88.96.34,1.9.8,2.74,1.38-.04.45-.11.89-.16,1.17-.19,1.08-.25,2.04-.23,3.16.07,3.65-.52,7.75,1.05,11.23.11.24.23.47.34.68Z"/>
                                <path class="cls-17"
                                      d="M124.32,66.47c-.03.19-.05.38-.08.57-.32,2.43.06,4.82-.33,7.22-.38,2.34-.67,4.6-1.41,6.87-1.42,4.36-3.8,8.56-7.33,11.55-1.52,1.29-3.37,2.52-5.36,2.93-1.69.35-3.01-.48-4.57-1.05-3.7-1.35-6.8-3.78-9.26-6.84-2.79-3.47-4.43-7.45-6.49-11.34-1.95-3.67-.8-8.05-1.62-12.08-1.53-7.5-.39-14.64,6.12-19.34,3.53-2.55,7.82-3.88,12.14-4.49,3.32-.47,6.81-.52,9.92.75,2.77,1.13,5.09,3.29,6.56,5.9,2.4,4.25,2.11,9.11,2.24,13.81.05,1.8-.28,3.7-.54,5.55Z"/>
                                <path class="cls-20"
                                      d="M97.25,90.57c2.68,2.55,5.77,5,9.47,5.8,1.83.39,3.61.33,5.34-.42s3.19-1.99,4.61-3.21c.73-.63-.33-1.69-1.06-1.06-1.23,1.05-2.48,2.11-3.95,2.81-1.64.78-3.38.75-5.11.29-3.21-.86-5.87-3.02-8.24-5.27-.7-.67-1.76.39-1.06,1.06h0Z"/>
                                <path class="cls-17"
                                      d="M82.43,63.53c-.05.08-.1.16-.14.24-.96,1.74-.99,4.08-.39,6.09.59,2.01,1.74,3.75,3,5.27,1.46,1.76,4.03,2.76,4.34-.28.21-2.02-.12-4.21-.45-6.21-.48-2.85-1.66-5.8-4.4-6.05-.49-.04-1,.02-1.42.32-.21.16-.39.37-.54.61Z"/>
                                <path class="cls-5"
                                      d="M75.91,188.03c.13.04.27.05.4.07,4.73.43,9.49-.06,14.23-.11,12.07-.13,24.01,3.33,36.09,1.66.16-2.13-.05-4.27.02-6.41.09-2.74.68-5.44,1-8.16,1.29-11.04,4.38-21.7,5.77-32.71.18-1.47.3-2.94.3-4.41-.02-5.62-1.79-11.09-3.99-16.25-.83-1.95-1.69-3.89-2.64-5.78-.71-1.41-1.18-2.96-1.97-4.36-1.13-1.99-2.61-3.72-3.84-5.63-.47-.72-.82-1.13-1.53-1.65-.48-.36-2.43-1.41-2.57-1.97.49,2.05.24,3.94.09,5.99-.16,2.15-.36,4.3-.66,6.43-.53,3.86-.61,7.8-1.07,11.68,0-.07-.3-.34-.34-.4-3.81-4.43-7.62-8.86-11.43-13.29-3.62-4.21-7.05-8.22-9.58-13.21-1.15.16-2.38.37-3.19,1.2-.18.18-.33.39-.49.6-.89,1.23-1.65,2.61-2.97,3.44-2.36,1.5-4.89,2.72-7.54,3.63-1.24.43-2.56.82-3.46,1.78-1.42,1.51-.37,4.36-.22,6.21.22,2.87.37,5.74.48,8.61.23,5.83.26,11.66.18,17.5-.22,14.87-.86,29.78-1.59,44.6-.01.27-.02.56.16.77.09.1.2.16.33.2Z"/>
                                <path class="cls-4"
                                      d="M119.24,40.74c-.36-.06-.72-.02-1.04.15-4.62-5.37-12.39-5.52-19.07-4.77-6.85.77-13.13,5.6-16.98,10.91-2.77,3.82-3.91,9.51-4.86,14.03-1.11,5.27-1.65,10.63-2.19,15.97-.04.37-.07.76.1,1.1.16.32.48.53.8.71,1.6.96,3.29,1.55,5.02,2.25,1.41.58,3.13.85,4.43,1.63,1.67,1,3.6,1.86,5.01,3.19,1.08,1.02,2.04,1.86,3.66,1.98,0-1.1-.64-2.21-1.07-3.21-1.73-3.97-2.31-7.91-2.38-12.16-.05-2.88.19-5.41,2.11-7.7.53-.64,1.58-1.24,1.98-1.92-.33.56-.67,1.11-1,1.67.41.32,1.01.24,1.53.13,3.65-.76,7.23-2.04,10.7-3.35-.23.64-.55,1.26-.82,1.89,2.39-.83,4.74-1.99,6.39-3.84,1.46-1.63,2.26-3.68,2.84-5.73.5-1.76.5-3.77,1.63-5.29.42-.57,1.05-1.06,1.77-1.05.45,0,.87.19,1.25.42,1.79,1.05,3.35,3.01,3.49,5.06.15,2.16.56,4.09,1.01,6.23.57,2.67.93,5.38,1.1,8.1.08,1.4.12,2.81.09,4.21-.02.93-.15,1.74-.23,2.65-.07.73.84,3.01.56,3.49,2.85-4.89,4.12-10.59,3.71-16.15-.18-2.52-.67-5.12-1.11-7.58-.5-2.77-1.73-5.56-3.15-8-1-1.7-2.21-3.35-3.88-4.45-.4-.27-.89-.5-1.37-.57Z"/>
                                <path class="cls-2"
                                      d="M75.84,178.68c-.05,2.67-.44,5.03-.2,7.68.18,2.02.06,2.15,2.24,2.47,1.82.27,3.64.5,5.46.72,5.95.69,11.92,1.1,17.91,1.22,1.97.04,4.38.92,6.28.46,2-.48,1.8-1.52,1.77-3.3-.19-10.69-.02-21.46.15-32.15.03-1.59.05-3.19-.25-4.75-.25-1.3-.73-2.54-1.19-3.78-2.66-7.13-5.01-14.37-7.18-21.67-2.16-7.26-4.71-14.42-7.08-21.63-.43-1.28-.98-2.57-1.09-3.92,0-.06-5.38.81-5.87.91-1.75.34-3.48.57-5.23.96-4.63,1.32-9.47,1.94-13.23,5.25-.16.14-.32.29-.38.5-.04.15-.02.3,0,.45.62,4.57.91,9.05,1.17,13.66.2,3.54.41,7.07.61,10.61.34,5.91,2.16,11.22,3.39,17,2.06,9.68,2.92,19.5,2.73,29.33Z"/>
                                <path class="cls-2"
                                      d="M134.07,191.54c-2.34-13.7-1.45-27.58.8-41.16.89-5.35,1.46-10.84.53-16.22-.79-4.58-2.63-8.91-4.46-13.19-2.12-4.96-3.8-13.7-9-16.16-.89-.42-1.81-.78-2.69-1.24-.56-.29-2.04-.95-2.25-1.6.38,1.14.8,2.27,1.26,3.38.41,1,1.08,2.04,1.31,3.09.44,2.05.75,4.2,1.05,6.28,1.54,10.5,1.26,21.33-.52,31.79-2.53,14.88-.91,30.97,1.34,45.82.75-.08,12.61-.93,12.64-.79Z"/>
                                <path class="cls-11"
                                      d="M108.63,76.66c-.41-.08-.8-.18-1.14-.33,1.55-.45,2.77-1.78,3.2-3.33.47-1.69-.25-3.71-.63-5.35.73,1.19,1.42,2.41,2.06,3.65.51,1,1.48,2.26,1.3,3.44-.14.94-1.02,1.64-1.94,1.87-.82.21-1.9.21-2.85.03Z"/>
                                <g>
                                    <path class="cls-18"
                                          d="M107.28,59.82c.48-.1.71-.56.64-1.05-.08-.53-.7-.76-1.16-.87-1.35-.32-2.77-.08-4.14.16-1.82.32-3.4.76-4.89,1.88-.16.12-.33.26-.34.46-.01.2.15.37.34.43s.39.05.58.03c1.64-.16,3.28-.32,4.93-.49,1.36-.13,2.72-.27,4.05-.55Z"/>
                                    <path class="cls-18"
                                          d="M104.91,64.24c-.62-1.16-2.2-1.53-3.33-.78-.46.31-.76.81-.93,1.33-.41,1.26-.2,2.62.55,3.71.42.61,1.08,1.13,1.82,1.12.66-.01,1.24-.45,1.64-.98.93-1.24.98-3.04.25-4.41Z"/>
                                </g>
                                <g>
                                    <path class="cls-18"
                                          d="M113.81,59.82c-.48-.1-.71-.56-.64-1.05.08-.53.7-.76,1.16-.87,1.35-.32,2.77-.08,4.14.16,1.82.32,3.4.76,4.89,1.88.16.12.33.26.34.46.01.2-.15.37-.34.43s-.39.05-.58.03c-1.64-.16-3.28-.32-4.93-.49-1.36-.13-2.72-.27-4.05-.55Z"/>
                                    <path class="cls-18"
                                          d="M116.18,64.24c.62-1.16,2.2-1.53,3.33-.78.46.31.76.81.93,1.33.41,1.26.2,2.62-.55,3.71-.42.61-1.08,1.13-1.82,1.12-.66-.01-1.24-.45-1.64-.98-.93-1.24-.98-3.04-.25-4.41Z"/>
                                </g>
                                <path class="cls-11"
                                      d="M113,82.38c-.73,1.26-2.71,1.36-4.09,1.18-2.15-.28-4-1.49-5.46-3.05-.99-1.06-2.58.53-1.59,1.59,1.87,2,4.28,3.39,7.02,3.7,2.21.26,4.85-.21,6.06-2.29.73-1.25-1.22-2.39-1.94-1.14h0Z"/>
                                <path class="cls-2"
                                      d="M80.62,117.63c-.25-5.75-1.93-11-7.72-12.56-1.9-.51-3.95.4-5.32,1.82-3.51,3.62-5.3,8.63-6.77,13.35-1.58,5.05-2.7,10.38-3.93,15.56-2.09,8.81-3.37,17.81-3.81,26.86-.37,7.7-1.04,16.82,4.89,22.8,3.32,3.35,8.52,4.71,13.06,3.42.42-.12.86-.27,1.15-.6.38-.43.42-1.05.45-1.61.15-2.91.13-6.2.87-9.03.59-2.25,1.21-4.24,1.52-6.62.8-6.01,1.55-12.02,2.33-18.03.9-7.15,2.19-14.28,2.51-21.45.16-3.67.99-8.98.77-13.92Z"/>
                                <path class="cls-4"
                                      d="M95.71,42.32c-.76,3.07-3.37,7.03-6.6,7.87-3.6.93-6.92,2.25-10.08-.35-3.79-3.13-5.27-8.77-3.49-13.36,1.78-4.58,6.68-7.75,11.59-7.49,1.24.07,2.48.33,3.59.9,1.23.63,2.25,1.6,3.07,2.71,2.01,2.75,2.74,6.41,1.92,9.72Z"/>
                                <path class="cls-14"
                                      d="M102.92,129.9c.87-1.63,1.93-3.14,3.19-4.49.61-.66,1.27-1.28,1.96-1.86s1.49-1.21,2.39-1.51c.46-.15.26-.87-.2-.72-.93.3-1.71.88-2.46,1.49s-1.47,1.27-2.13,1.98c-1.34,1.42-2.48,3.02-3.4,4.74-.23.43.42.8.65.38h0Z"/>
                                <path class="cls-14"
                                      d="M116.92,121.29c1.58.83,2.97,1.96,4.12,3.32.13.15.4.13.53,0,.15-.15.13-.38,0-.53-1.19-1.41-2.65-2.58-4.27-3.44-.43-.23-.81.42-.38.65h0Z"/>
                                <g>
                                    <path class="cls-15"
                                          d="M90.07,100.45c-1.17,2-1.53,4.41-2.25,6.59-.79,2.4-1.73,4.75-2.82,7.03-.33.69-1.05,1.65-.77,2.46.3.89,1.58.85,2.33.98,2.63.44,5.27.88,7.9,1.32.61.1.88-.84.26-.94-2.21-.37-4.42-.74-6.63-1.11-.58-.1-1.16-.19-1.74-.29-.23-.04-.57-.03-.79-.13-.38-.18-.37-.29-.25-.71.13-.46.46-.93.66-1.36.24-.5.47-1.01.69-1.51.83-1.88,1.56-3.81,2.19-5.77.65-2.01.98-4.23,2.05-6.07.32-.54-.52-1.03-.84-.49h0Z"/>
                                    <path class="cls-15"
                                          d="M93.99,118.89c-2.43,1.98-4.85,3.97-7.28,5.95-.19.16-.19.53,0,.69,8.68,7.25,16.56,15.8,22.06,25.73.3.55,1.14.06.84-.49-5.54-10.01-13.47-18.63-22.21-25.93v.69c2.43-1.98,4.85-3.97,7.28-5.95.49-.4-.21-1.08-.69-.69h0Z"/>
                                    <path class="cls-15"
                                          d="M120.47,149.82c1.63-6.11,3.41-12.18,5.34-18.2.48-1.51.98-3.01,1.48-4.51.23-.7.47-1.4.71-2.1.24-.69.61-1.44.68-2.17.12-1.21-1.25-1.98-2.03-2.68-1.19-1.07-2.38-2.14-3.58-3.22-.46-.42-1.16.27-.69.69,1.11,1,2.22,2,3.34,3,.54.48,1.2.95,1.67,1.5.54.64.12,1.33-.12,2.02-.96,2.79-1.88,5.59-2.78,8.41-1.79,5.63-3.44,11.29-4.96,17-.16.61.78.86.94.26h0Z"/>
                                    <path class="cls-15"
                                          d="M123.22,117.26c.71-1,1.41-2.01,2.12-3.01.29-.42.57-.8.51-1.33-.06-.53-.34-1.08-.54-1.57-.86-2.14-1.94-4.18-3.22-6.1-.35-.52-1.19-.03-.84.49,1.14,1.72,2.14,3.54,2.94,5.45.21.49.41.99.59,1.5.19.56-.17.9-.48,1.35-.64.91-1.29,1.83-1.93,2.74-.36.51.48,1,.84.49h0Z"/>
                                </g>
                                <path class="cls-14"
                                      d="M114.59,128.69c4.51,15.28,1.47,31.28,1.45,46.9,0,4.38.24,8.74.9,13.07.07.48.8.27.72-.2-2.4-15.68,1.08-31.47-.1-47.2-.32-4.32-1.03-8.6-2.25-12.76-.14-.46-.86-.27-.72.2h0Z"/>
                                <g class="cls-16">
                                    <path class="cls-5"
                                          d="M59.71,104.61c-1.21-4.12-.14-8.69,2.94-11.74,1.55-1.53,3.45-2.62,5.26-3.81,1.69-1.11,3.02-2.49,4.39-3.97s2.77-2.71,3.96-4.27,2.23-3.36,3.03-5.21c1.67-3.86,2.09-7.84,2.52-11.98.54-5.14,2.32-9.74,6.08-13.39.35-.34-.18-.87-.53-.53-2.97,2.89-5.03,6.59-5.83,10.66-.89,4.51-.74,9.07-2.32,13.45-.76,2.12-1.81,4.14-3.11,5.98s-2.95,3.28-4.46,4.92c-1.62,1.76-3.26,3.16-5.28,4.46-1.71,1.1-3.43,2.22-4.79,3.75-2.85,3.21-3.77,7.78-2.57,11.88.14.46.86.27.72-.2h0Z"/>
                                    <path class="cls-5"
                                          d="M62.21,111.02c2.65-5.85,7.83-9.8,12.28-14.2,4.76-4.71,8.03-10.21,9.48-16.78.83-3.77,1.1-7.65.97-11.5-.02-.48-.77-.48-.75,0,.29,8.87-1.62,18-7.53,24.89-4.97,5.79-11.86,10.07-15.1,17.22-.2.44.45.82.65.38h0Z"/>
                                    <path class="cls-5"
                                          d="M126.03,82.21c1.4,3.25,2.61,6.58,2.03,10.17-.54,3.36-1.97,6.61-3.62,9.56-.24.42.41.8.65.38,1.75-3.12,3.28-6.62,3.76-10.2s-.75-6.99-2.17-10.29c-.19-.44-.84-.06-.65.38h0Z"/>
                                    <path class="cls-5"
                                          d="M114.47,43.86c-.92,4.06-2.05,8.33-5.08,11.37-.34.34.19.87.53.53,3.12-3.13,4.32-7.51,5.27-11.7.11-.47-.62-.67-.72-.2h0Z"/>
                                    <path class="cls-5"
                                          d="M110,40.86c-7.53,1.02-13.6,6.5-17.25,12.93-1.89,3.34-3.21,7.04-3.71,10.85-.58,4.41-.01,8.88-.2,13.31-.23,5.29-1.29,10.51-3.08,15.49-.16.46.56.65.72.2,1.41-3.94,2.37-8.02,2.83-12.18s.16-8.62.22-12.96c.11-7.92,3.37-15.71,9.17-21.18,3.18-3.01,7.13-5.14,11.5-5.74.48-.06.27-.79-.2-.72h0Z"/>
                                </g>
                            </g>
                            <g>
                                <path class="cls-6"
                                      d="M147.98,188.41c0,2.95-6.58,2.1-14.69,2.1s-14.69.84-14.69-2.1,6.58-8.56,14.69-8.56,14.69,5.62,14.69,8.56Z"/>
                                <path class="cls-17"
                                      d="M152.28,187.97c.54,1.14-.89,1.6-1.98,1.63-3.21.1-6.51-1.15-9.55-2.06-3.72-1.12-8.04-2.03-11.66-.07-1.15.62-2.17,1.47-3.47,1.76-1.81.4-3.4.05-5.17-.3-2.65-.52-5.39-.26-8.09-.42-.13,0-.27-.03-.34-.14-.05-.08-.04-.19-.02-.28.52-3.33.76-6.83,1.8-10.04.1-.32.23-.66.52-.83.22-.14.5-.14.76-.14,4.12-.03,8.2.27,12.33-.08,2.13-.18,4.28-.46,6.39-.13,3.3.51,6.49,2.8,9.31,4.53,1.59.98,3.15,2.01,4.68,3.08,1.23.87,3.38,1.93,4.27,3.14.09.13.17.25.22.36Z"/>
                                <path class="cls-5"
                                      d="M116.59,188.81c-.01.29-.03.61-.21.84-.24.3-.66.35-1.04.38-1.71.13-3.41.26-5.12.4-.2.02-.42.03-.57-.09-.2-.15-.22-.43-.22-.68-.04-2.49.09-4.98.38-7.46.28-2.34.32-4.66.38-7.01,0-.09,0-.18.07-.24.07-.08.2-.07.31-.06,2.24.22,4.47.44,6.71.67,0,1.01-.12,2.01-.12,3.02,0,1.16-.07,2.32-.14,3.47-.13,2.26-.32,4.52-.41,6.78Z"/>
                                <path class="cls-2"
                                      d="M113.02,181.38c.14-2.4.05-4.78.15-7.16-1.09-.11-2.16-.21-3.15-.36-2.84-.44-5.68-.89-8.51-1.34-5.67-.9-11.34-1.82-17.03-2.67-5.26-.79-10.53-1.52-15.81-2.13-.75-.09-1.54-.17-2.22.13-.86.37-1.33,1.24-1.73,2.04-1.29,2.61-2.74,5.14-4.08,7.73-1.11,2.15-1.66,4.23-3.04,6.24-.08.12-.17.26-.16.41.01.14.11.26.21.36,3.31,3.54,7.47,4.15,12.07,4.84,5.33.81,10.82.54,16.03,1.73,2.81.64,6.02.42,8.89.52,3.11.11,6.22.18,9.33.22,2.17.02,4.34.03,6.51.02.41,0,.89.03,1.39.06.44-3.53.93-7.08,1.15-10.62Z"/>
                            </g>
                            <g>
                                <path class="cls-1"
                                      d="M220.7,173.88h-97.56c-1.31,0-2.38-1.07-2.38-2.38l9.61-68.99c0-1.31,1.07-2.38,2.38-2.38h97.56c1.31,0,2.38,1.07,2.38,2.38l-9.61,68.99c0,1.31-1.07,2.38-2.38,2.38Z"/>
                                <path class="cls-6"
                                      d="M224.79,173.88h-97.56c-1.31,0-2.38-1.07-2.38-2.38l9.61-68.99c0-1.31,1.07-2.38,2.38-2.38h97.56c1.31,0,2.38,1.07,2.38,2.38l-9.61,68.99c0,1.31-1.07,2.38-2.38,2.38Z"/>
                                <polygon class="cls-1"
                                         points="188.74 160.76 170.77 160.76 170.77 190.49 197.75 190.49 188.74 160.76"/>
                                <rect class="cls-6" x="167.73" y="187.97" width="33.08" height="3.4" rx="1.65"
                                      ry="1.65"/>
                            </g>
                            <path class="cls-15"
                                  d="M79.71,127.91c-.4,11.51-1.96,22.97-4.69,34.16-.77,3.17-1.64,6.32-2.59,9.44-.18.6.76.86.94.26,3.37-11.05,5.62-22.43,6.69-33.94.31-3.3.51-6.61.63-9.93.02-.63-.95-.63-.97,0h0Z"/>
                            <path class="cls-15"
                                  d="M74.06,168.58c12.86,2.08,25.7,4.22,38.54,6.39.61.1.88-.83.26-.94-12.84-2.18-25.69-4.31-38.54-6.39-.61-.1-.88.84-.26.94h0Z"/>
                            <path class="cls-15"
                                  d="M112.45,174.51c.03,2.89.06,5.78.09,8.67.03,2.64.02,5.31-.99,7.8-.24.58.71.83.94.26,1-2.47,1.05-5.14,1.03-7.77-.02-2.99-.06-5.97-.09-8.96,0-.63-.98-.63-.97,0h0Z"/>
                        </g>
                        <path class="cls-5"
                              d="M242.53,192.34H15.76c-.54,0-.97-.44-.97-.97s.44-.97.97-.97h226.77c.54,0,.97.44.97.97s-.44.97-.97.97Z"/>
                        <path class="cls-14"
                              d="M113.64,175.5c.66.12,1.33.24,1.99.38.17.04.82.07.92.2.18.22.07.9.07,1.17,0,1.34-.02,2.69-.06,4.03-.08,2.78-.25,5.56-.51,8.33-.04.48.71.48.75,0,.29-3.15.47-6.32.54-9.48.02-.77.02-1.54.03-2.3,0-.58.18-1.51-.06-2.05-.2-.45-.79-.47-1.21-.55-.75-.16-1.5-.3-2.25-.43-.47-.08-.67.64-.2.72h0Z"/>
                    </g>
                    <g>
                        <g>
                            <g>
                                <path class="cls-5"
                                      d="M255.58,274.01c2.6-7.64,4.39-15.5,3.73-23.39-.68-8.06.38-16.82,1.5-24.81.55-3.9.79-7.83,1.04-11.76.12-1.92.05-4.01.42-5.9.34-1.7,1.1-3.36,1.49-5.07-4.42,3.29-10.03,3.66-13.35,8.52-1.53,2.23-2.51,4.79-3.47,7.32-3.89,10.3-7.7,20.63-11.16,31.08-4.63,14-6.98,28.62-9.91,43.07,2.91.6,6.77-.01,9.81.09,3.74.12,7.48.23,11.22.41.25.01.5.02.73-.08.35-.16.53-.56.67-.92,2.36-5.96,5.1-12.18,7.27-18.54Z"/>
                                <path class="cls-11"
                                      d="M300.74,211.72c1.32-.82,2.11-2.06,3.28-3.03.63-.52,2.14-1.11,1.68-1.9-.09-.16-.27-.33-.55-.51-.7-.44-1.08-.31-1.59-1.1-.67-1.06-.97-2.18-2.13-2.84-.85-.48-1.89-.53-2.76-.96-2.16-1.07-2.24-4.71-2.35-6.79-.28-5.03-.55-10.06-.83-15.09-.86.75-1.28,1.37-2.46,1.41-1.08.03-2.2-.18-3.18.4-.67.4-1.16,1.08-1.91,1.36-1.83.69-4.17.52-6.1.57-3.54.09-7.11.02-10.62.55-.23.03-.48.08-.64.24-.6.6-.31,2.4-.17,3.15.21,1.12.26,2.11.24,3.27-.07,3.78.54,8.03-1.08,11.63-.72,1.6-2.22,2.59-2.46,4.35-.34,2.46-.45,5.1.07,7.54.65,3.07,2.62,6.06,5.6,7.04,3.51,1.16,6.78-.58,9.95-1.84,6.05-2.42,12.42-4.02,18-7.46Z"/>
                                <path class="cls-5"
                                      d="M321.14,208.15c.15-.67.12-1.3-.39-1.84-.44-.46-1.05-.71-1.65-.93-2.81-1.05-5.68-1.97-8.56-2.83-1.47-.43-2.94-.85-4.42-1.26-1.11-.31-2.55-.46-3.47-1.23-.42-.36-.45-1.07-.81-1.53-.54-.68-1.27-1.26-1.89-1.87-.41-.41-3.8-3.25-3.69-3.65-.78,2.7-3.44,5.16-5.54,6.91-1.45,1.21-2.99,2.33-4.43,3.55-1.31,1.1-2.53,1.84-4.01,2.69-.44.25-5.9,3.58-6.17,3.19-2.49-3.69-6.43-8.74-5.54-13.42-2.07,2.34-4.67,4.11-6.89,6.29-.74.73-.56,1.53-1.03,2.36-.55.97-1.3,1.81-1.8,2.81-.73,1.5-.89,3.14-1.74,4.57-.91,1.52-1.21,3.57-1.62,5.28-.92,3.84-1.58,7.74-2.17,11.65-1.5,9.93-2.56,19.93-3.62,29.92-.6,5.7-1.2,11.4-1.79,17.1-.6,5.74-1.81,11.8-1.74,17.55,3.95.57,7.62.48,11.56,1.47,4.63,1.17,9.39.17,14.1.15,3.41-.01,39.59-.01,39.69,1.4-.08-1.11-.15-2.22-.23-3.34.53,0,1.06-.01,1.59-.02.19,0,.36.03.52.06.03-1.73.09-3.47.16-5.2.1-2.17.22-4.34.35-6.5.08-1.34.15-2.68.23-4.02.7-12.19,1.4-24.39,2.1-36.58l1.05-18.29c.17-2.56.3-5.12.52-7.67.11-1.3.23-2.61.38-3.91.1-.86.71-1.89.94-2.86Z"/>
                                <path class="cls-5"
                                      d="M309.43,219.23c-.21-5.96,1.09-11.51,6.95-13.59,1.92-.68,4.12.1,5.64,1.44,3.92,3.45,6.17,8.48,8.08,13.23,2.04,5.09,3.63,10.5,5.32,15.75,2.88,8.93,4.93,18.12,6.12,27.42,1.01,7.92,2.44,17.29-3.19,23.94-3.16,3.73-8.41,5.56-13.2,4.59-.45-.09-.91-.21-1.23-.53-.42-.41-.52-1.05-.6-1.63-.23-1.86-.46-3.73-.79-5.58-.15-.85-.22-1.89-.56-2.68-.26-.6-.73-1.13-1.07-1.7-1.72-2.94-2.88-6.18-3.72-9.47-.2-.8-.38-1.6-.55-2.4-.58-2.78-1.32-5.84-1.39-8.68-.07-2.7-.8-5.43-1.26-8.11-1.02-5.88-1.89-11.78-2.62-17.69-.47-3.77-1.75-9.19-1.93-14.31Z"/>
                                <g>
                                    <path class="cls-3"
                                          d="M299.3,170.05c-.44,2.8-1.04,5.58-1.79,8.32-1.2,4.39-5.03,8.26-8.36,11.29-1.08.98-2.31,2.4-3.81,2.52-1.73.14-3.73-.55-5.34-1.09-2.22-.75-4.41-1.64-6.4-2.88-4.18-2.6-7.28-6.65-9.62-10.98-2.83-5.24-4.73-11.32-4-17.33.14-1.12.18-2.49.95-3.31.81-.87,2.68-1.37,3.76-1.78,2.37-.91,4.86-1.58,7.37-2.01,5.1-.88,9.77-3.37,14.93-4.28,2.54-.45,5.2-.33,7.73.12,1.34.24,2.71.49,3.99.96,1.56.57,1.29,1.55,1.39,3.12.21,3.27.22,6.56.02,9.84-.15,2.51-.43,5.01-.82,7.5Z"/>
                                    <path class="cls-17"
                                          d="M288.88,143.37c-3.91-2.25-8.47-3.16-12.98-3.33-3.47-.13-7.07.19-10.14,1.83-2.74,1.46-4.89,3.93-6.13,6.77-2.02,4.63-1.2,9.61-.83,14.46.14,1.85.68,3.78,1.14,5.66.05.19.1.39.14.58,1.22,5.15,2.36,10.34,4.28,15.29,1.74,4.49,4.05,7.59,8.3,9.98,2.22,1.25,4.52,2.56,7.21,2.1,2.51-.43,4.43-1.36,6.49-2.89,2.71-2.02,4.91-4.67,6.77-7.48.95-1.43,1.83-2.93,2.38-4.56.47-1.43.68-2.93.79-4.43.33-4.51-.15-9.04.11-13.56.26-4.34-1.14-8.5-1.3-12.8-.12-3.37-3.45-6.02-6.23-7.62Z"/>
                                    <path class="cls-4"
                                          d="M267.49,181.13c.3.1.62.15.95.15.59,0,1.17-.17,1.74-.34,3.57-1.08,7.23-2.13,10.96-2.03,1.35.04,2.71.23,4.05.05,1.73-.24,3.25-1.11,4.46-2.35,1.09-1.12,1.73-2.59,2.34-4.03.98-2.32,1.93-4.75,1.85-7.26.01.45,1.03,1.44,1.29,1.87.46.75.62,1.57.79,2.43.2,1.02.68,1.8,1.06,2.77.48,1.24.94,2.81.83,4.16-.67,7.86-7.23,15.94-13.65,20.04-1.35.86-2.92,1.44-4.52,1.34-1.78-.11-3.86-1.05-5.51-1.71-2.06-.83-3.87-2.67-5.55-4.07-1.27-1.05-2.54-2.13-3.43-3.51-.79-1.23-1.24-2.65-1.66-4.05-.59-1.95-1.16-3.91-1.7-5.88-.33-1.22-.97-2.49-1.08-3.75-.1-1.2-.29-2.35-.45-3.56,1.06,2.68,2.53,5.2,4.35,7.43.79.97,1.75,1.93,2.9,2.3Z"/>
                                    <path class="cls-4"
                                          d="M299.84,144.91c-1.65-3.37-4.15-5.97-7.96-7.8-2.87-1.38-6.02-2.26-9.22-2.29-3.36-.03-6.72.33-9.99,1.12-2.98.72-5.98,1.9-9.04,2.27-2.28.28-4.7,0-6.68-1.17-.38,1.53.29,3.27,1.6,4.15-2.28.23-4.65-.72-6.15-2.47-.86,7.75,3.47,15.14,11.28,16.9,4.28.97,8.74.06,13.04-.85,2.74-.58,5.48-1.16,8.22-1.74,2.62-.55,5.18.16,6.58,2.55,2.36,4.05,2.03,9.04,2.5,13.7.11,1.11.52,1.81.9,2.78.44,1.13.52,2.48.8,3.67.06.26.19.58.46.6.19.01.35-.15.46-.31.68-1.01.55-2.34.46-3.56-.23-2.96-.69-7.62,1.23-10.16,1.1-1.35,2-.96,3.4-1.17.97-.15.77-.39.82-1.51.03-.87.04-1.73.01-2.6-.08-2.41-.41-4.8-.97-7.14-.43-1.81-1-3.47-1.74-4.97Z"/>
                                    <path class="cls-4"
                                          d="M258.9,151.78c-.48-.51-.88-.97-1.04-.88-.56.3-.05,3.77,0,4.36.13,1.56.32,3.13.24,4.7-.13,2.79.36,5.8.82,8.56.69,4.15,2.11,8.38,5.14,11.31-1.04-1-1.57-3.07-2.06-4.39-.5-1.36-1.14-2.44-1.44-3.91-.72-3.43-.97-6.98-.6-10.47.29-2.69.27-5.4.54-8.09-.47-.02-1.08-.63-1.6-1.19Z"/>
                                    <path class="cls-11"
                                          d="M277.19,177.58c.42-.12.8-.28,1.14-.46-1.64-.3-3.05-1.54-3.65-3.09-.66-1.69-.14-3.85.08-5.58-.63,1.31-1.21,2.63-1.73,3.98-.42,1.08-1.28,2.49-.97,3.69.25.96,1.22,1.58,2.2,1.72.87.13,1.98.01,2.94-.27Z"/>
                                    <g>
                                        <path class="cls-18"
                                              d="M276.72,160.11c-.3-.28-.2-.74.06-1.18.36-.63,1.02-1.07,1.69-1.35,2.22-.93,5.48-.8,7.19.99.25.26.43.68.19.94-.11.12-.28.17-.45.2-.55.1-1.12.02-1.67-.03-1.76-.15-3.56.02-5.26.5-.41.12-.83.25-1.25.16-.23-.05-.39-.13-.5-.23Z"/>
                                        <path class="cls-18"
                                              d="M279.66,164.07c.52-1.26,2.1-1.82,3.34-1.15.51.27.87.75,1.1,1.28.56,1.25.49,2.67-.18,3.88-.37.67-.99,1.28-1.75,1.34-.68.06-1.33-.33-1.79-.83-1.09-1.18-1.34-3.02-.73-4.51Z"/>
                                    </g>
                                    <g>
                                        <path class="cls-18"
                                              d="M270.3,160.78c.23-.34.04-.76-.3-1.14-.49-.55-1.22-.84-1.94-.98-2.36-.46-5.53.34-6.84,2.44-.19.3-.28.75.01.96.13.1.31.11.48.1.56-.02,1.1-.21,1.63-.38,1.69-.51,3.48-.71,5.25-.59.42.03.87.07,1.26-.1.22-.09.36-.21.44-.33Z"/>
                                        <path class="cls-18"
                                              d="M268.23,165.26c-.76-1.13-2.43-1.35-3.51-.45-.44.37-.7.91-.82,1.47-.29,1.34.07,2.72.97,3.76.5.58,1.23,1.05,1.99.96.68-.08,1.23-.6,1.58-1.18.83-1.38.69-3.23-.21-4.57Z"/>
                                    </g>
                                    <path class="cls-11"
                                          d="M271.71,185.01c1.44,1.98,4.07,2.08,6.28,1.59,2.68-.6,4.87-2.33,6.5-4.48.58-.77-.72-1.52-1.3-.76-1.34,1.76-3.17,3.18-5.33,3.73-1.5.38-3.81.6-4.86-.84-.56-.77-1.86-.03-1.3.76h0Z"/>
                                    <g>
                                        <path class="cls-17"
                                              d="M302.77,161.27c.06.07.11.15.17.23,1.17,1.69,1.45,4.1,1.05,6.24-.4,2.14-1.39,4.05-2.53,5.75-1.31,1.97-3.86,3.27-4.5.17-.43-2.06-.33-4.35-.19-6.44.19-2.99,1.09-6.16,3.89-6.7.5-.1,1.04-.09,1.49.18.24.14.44.34.62.57Z"/>
                                        <g>
                                            <path class="cls-11"
                                                  d="M300.17,165.22s-.09,0-.08-.01c.03-.02.17.18.19.21.12.18.2.38.26.58.14.47.16.97.09,1.46-.14,1.05-.66,2-1.16,2.92-.46.85.83,1.61,1.3.76.71-1.3,1.39-2.68,1.4-4.2,0-1.28-.68-3.56-2.39-3.15-.94.23-.54,1.67.4,1.45h0Z"/>
                                            <path class="cls-11"
                                                  d="M301.77,167.28c-.42-.44-1.05-.63-1.65-.55s-1.09.37-1.51.78c-.28.27-.3.79,0,1.06s.76.29,1.06,0c.07-.07.15-.14.23-.2l-.15.12c.14-.1.28-.19.43-.26l-.18.08c.13-.06.27-.1.41-.11l-.2.03c.11-.01.23-.01.34,0l-.2-.03c.1.02.2.04.3.08l-.18-.08c.09.04.17.08.24.14l-.15-.12s.09.08.14.12c.27.29.79.29,1.06,0,.28-.31.29-.75,0-1.06h0Z"/>
                                        </g>
                                    </g>
                                    <g class="cls-12">
                                        <path class="cls-5"
                                              d="M259.61,147.36c2.28,1.79,5.12,2.19,7.95,2.09,3.75-.13,7.45-.92,11.18-1.24s7.31-.22,10.71,1.1,5.92,3.71,7.58,6.78c.23.42.88.05.65-.38-3.19-5.91-9.3-8.41-15.79-8.4-3.81,0-7.57.72-11.35,1.14-3.49.39-7.46.67-10.39-1.63-.38-.29-.91.23-.53.53h0Z"/>
                                    </g>
                                    <g class="cls-12">
                                        <path class="cls-5"
                                              d="M270.58,142.26c5.89-.77,12.04-1.6,17.86.09,2.49.72,4.89,1.88,6.86,3.58,2.12,1.83,3.38,4.19,4.54,6.69.2.44.85.06.65-.38-1.16-2.5-2.42-4.87-4.51-6.72-1.9-1.68-4.19-2.88-6.6-3.67-6.08-1.99-12.58-1.16-18.79-.34-.47.06-.48.81,0,.75h0Z"/>
                                    </g>
                                    <g class="cls-12">
                                        <path class="cls-5"
                                              d="M260.88,141.55c3,3.35,7.56,4.25,11.83,4.72.48.05.48-.7,0-.75-4.08-.45-8.43-1.3-11.3-4.5-.32-.36-.85.17-.53.53h0Z"/>
                                    </g>
                                </g>
                            </g>
                            <g>
                                <path class="cls-6"
                                      d="M237.63,291.63c0,3.05,6.81,2.18,15.21,2.18s15.21.87,15.21-2.18-6.81-8.87-15.21-8.87-15.21,5.82-15.21,8.87Z"/>
                                <path class="cls-17"
                                      d="M233.1,291.29c-.5,1.21,1,1.61,2.12,1.59,3.32-.05,6.69-1.49,9.78-2.58,3.35-1.18,6.98-2.12,10.41-1.24,2.77.71,4.68,2.98,7.45,3.47,3.29.58,6.67.77,10,.65.83-.03,1.78-.15,2.23-.84.35-.53.28-1.23.1-1.83-1.15-3.71-1.36-7.6-2.75-11.29-.12-.32-.27-.67-.57-.84-.24-.13-.52-.12-.79-.11-4.27.16-8.47.66-12.76.49-2.21-.09-4.45-.28-6.62.16-3.39.68-6.59,3.2-9.42,5.12-1.6,1.09-3.17,2.22-4.7,3.41-1.23.96-3.4,2.16-4.27,3.44-.09.14-.16.26-.21.38Z"/>
                                <path class="cls-5"
                                      d="M270.56,277.34c2.09-.39,4.4-.48,6.38-.79,2.94-.45,5.88-.92,8.82-1.39,5.88-.94,11.75-1.89,17.63-2.77,5.45-.82,10.91-1.57,16.38-2.2.77-.09,1.6-.17,2.3.13.89.39,1.37,1.28,1.79,2.12,2.53,5.1,5.66,10.02,7.52,15.37.24.7.47,1.45.27,2.17-.43,1.61-2.56,2.13-4.32,2.34-5.71.7-11.43,1.28-17.17,1.73-8.96.71-17.95,1.11-26.95,1.21-2.25.02-4.5.03-6.75.02-1.27,0-3.2.28-4.63,0-.59-5.97-1.15-11.94-1.27-17.94Z"/>
                            </g>
                            <g>
                                <path class="cls-14"
                                      d="M276.09,209.95c-2.05,17.38-3.55,34.82-4.19,52.31-.18,4.95-.29,9.91-.34,14.86,0,.48.75.48.75,0,.15-17.51,1.21-34.99,2.93-52.41.48-4.93,1.02-9.85,1.6-14.76.06-.48-.69-.47-.75,0h0Z"/>
                                <path class="cls-14"
                                      d="M276.46,210.69c3.31.64,5.87,4.46,7.16,7.32.05.12.2.18.32.19.3.01.66-.35.88-.5.62-.43,1.23-.88,1.84-1.33,1.46-1.07,2.91-2.15,4.36-3.25,2.02-1.54,3.94-3.23,5.8-4.95,2.36-2.19,4.84-4.47,6.25-7.42.21-.43-.44-.81-.65-.38-1.85,3.86-5.56,6.85-8.74,9.59-1.83,1.57-3.72,3.03-5.66,4.47-.94.7-1.89,1.4-2.84,2.09-.32.23-.64.47-.97.69-.09.06-.17.13-.27.18-.36.22.17-.05.15-.13-.14-.78-.98-1.83-1.43-2.47-.49-.69-1.03-1.35-1.61-1.97-1.2-1.26-2.64-2.52-4.39-2.86-.47-.09-.67.63-.2.72h0Z"/>
                                <path class="cls-14"
                                      d="M263.08,204.99c1.88,3.89,4.41,7.43,7.47,10.48.17.17.46.13.59-.08,1.29-2.12,3.08-3.85,5.22-5.08.42-.24.04-.89-.38-.65-2.26,1.29-4.14,3.13-5.49,5.35l.59-.08c-3.02-3-5.5-6.49-7.36-10.33-.21-.43-.86-.05-.65.38h0Z"/>
                                <path class="cls-14"
                                      d="M310.25,211.86c-1.69,9.61-.36,19.32,1.15,28.85,1.57,9.92,2.94,19.91,5.27,29.68.11.47.84.27.72-.2-2.26-9.46-3.59-19.13-5.12-28.73s-3.03-19.62-1.3-29.4c.08-.47-.64-.67-.72-.2h0Z"/>
                                <path class="cls-14"
                                      d="M259.83,208.05c-7.68,17.81-10.44,37.26-12.08,56.44-.47,5.48-.84,10.97-1.2,16.46-.03.48.72.48.75,0,1.26-19.18,2.64-38.57,7.81-57.17,1.45-5.23,3.22-10.37,5.37-15.35.19-.44-.46-.82-.65-.38h0Z"/>
                                <path class="cls-14"
                                      d="M323.37,269.95c-4.47-.2-8.92.52-13.34,1.09s-8.63,1.13-12.94,1.71c-8.89,1.2-17.77,2.46-26.63,3.84-.16.02-.28.21-.28.36l.02,1.35c0,.48.76.48.75,0l-.02-1.35-.28.36c8.7-1.35,17.42-2.59,26.15-3.77,4.4-.6,8.81-1.18,13.22-1.75,4.42-.57,8.87-1.29,13.34-1.09.48.02.48-.73,0-.75h0Z"/>
                                <path class="cls-14"
                                      d="M285.14,250.47c-.16-6.9-.04-13.79.35-20.68l-.38.38c3.16-.38,6.34-.61,9.52-.66,1.52-.03,3.04-.01,4.56.04.83.03,1.66.07,2.49.12.4.02.82-.02,1.17.21.35.04.47.23.36.57,0,.21.01.42.02.62.2,6.32.29,12.64.27,18.95l.28-.36c-6.21.95-12.58,1.1-18.82.39-.48-.05-.47.7,0,.75,6.31.71,12.74.54,19.02-.42.16-.02.27-.21.28-.36.01-3.47,0-6.94-.06-10.42-.03-1.81-.07-3.61-.11-5.42-.02-.83-.05-1.67-.07-2.5-.02-.59.11-1.51-.11-2.07-.39-.99-2.19-.71-3.03-.76-1.73-.09-3.46-.13-5.19-.12-3.53.02-7.05.25-10.56.68-.21.03-.36.15-.38.38-.39,6.89-.5,13.78-.35,20.68.01.48.76.48.75,0h0Z"/>
                                <path class="cls-14"
                                      d="M285.51,234.36c5.91-.23,11.82-.28,17.74-.45.48-.01.48-.76,0-.75-5.91.17-11.83.23-17.74.45-.48.02-.48.77,0,.75h0Z"/>
                            </g>
                            <g>
                                <path class="cls-1"
                                      d="M166.47,277.26h97.56c1.31,0,2.38-1.07,2.38-2.38l-9.61-68.99c0-1.31-1.07-2.38-2.38-2.38h-97.56c-1.31,0-2.38,1.07-2.38,2.38l9.61,68.99c0,1.31,1.07,2.38,2.38,2.38Z"/>
                                <path class="cls-6"
                                      d="M162.38,277.26h97.56c1.31,0,2.38-1.07,2.38-2.38l-9.61-68.99c0-1.31-1.07-2.38-2.38-2.38h-97.56c-1.31,0-2.38,1.07-2.38,2.38l9.61,68.99c0,1.31,1.07,2.38,2.38,2.38Z"/>
                                <polygon class="cls-1"
                                         points="198.43 264.14 216.4 264.14 216.4 293.87 189.42 293.87 198.43 264.14"/>
                                <rect class="cls-6" x="186.37" y="291.35" width="33.08" height="3.4" rx="1.65" ry="1.65"
                                      transform="translate(405.81 586.1) rotate(180)"/>
                            </g>
                        </g>
                        <path class="cls-5"
                              d="M357.6,296.05h-226.77c-.72,0-1.3-.58-1.3-1.3s.58-1.3,1.3-1.3h226.77c.72,0,1.3.58,1.3,1.3s-.58,1.3-1.3,1.3Z"/>
                    </g>
                    <path class="cls-10"
                          d="M352.27,145.96c0-9.7-7.86-17.56-17.56-17.56s-17.56,7.86-17.56,17.56c0,3.29.92,6.35,2.49,8.99h-.03l13.98,22.15c.23.37.64.62,1.11.62s.88-.25,1.11-.62h0s13.99-22.15,13.99-22.15h-.03c1.57-2.63,2.49-5.7,2.49-8.99ZM334.71,152.77c-4.05,0-7.33-3.28-7.33-7.33s3.28-7.33,7.33-7.33,7.33,3.28,7.33,7.33-3.28,7.33-7.33,7.33Z"/>
                    <g>
                        <g>
                            <path class="cls-5"
                                  d="M15.56,263.14c-8.58,0-15.56-6.98-15.56-15.56s6.98-15.56,15.56-15.56c.81,0,1.47.66,1.47,1.47s-.66,1.47-1.47,1.47c-6.96,0-12.63,5.67-12.63,12.63s5.66,12.63,12.63,12.63c.81,0,1.47.66,1.47,1.47s-.66,1.47-1.47,1.47Z"/>
                            <path class="cls-5"
                                  d="M80.78,291.23c8.58,0,15.56-6.98,15.56-15.56s-6.98-15.56-15.56-15.56c-.81,0-1.47.66-1.47,1.47s.66,1.47,1.47,1.47c6.96,0,12.63,5.67,12.63,12.63s-5.66,12.63-12.63,12.63c-.81,0-1.47.66-1.47,1.47s.66,1.47,1.47,1.47Z"/>
                        </g>
                        <g>
                            <rect class="cls-6" x="14.5" y="223.99" width="67.33" height="19.27" rx="2.44" ry="2.44"/>
                            <path class="cls-19"
                                  d="M39.59,235.05h-5.12c-.79,0-1.43-.64-1.43-1.43h0c0-.79.64-1.43,1.43-1.43h5.12c.79,0,1.43.64,1.43,1.43h0c0,.79-.64,1.43-1.43,1.43Z"/>
                            <g>
                                <path class="cls-10"
                                      d="M27.19,235.05h-5.12c-.79,0-1.43-.64-1.43-1.43h0c0-.79.64-1.43,1.43-1.43h5.12c.79,0,1.43.64,1.43,1.43h0c0,.79-.64,1.43-1.43,1.43Z"/>
                                <path class="cls-2"
                                      d="M51.99,235.05h-5.12c-.79,0-1.43-.64-1.43-1.43h0c0-.79.64-1.43,1.43-1.43h5.12c.79,0,1.43.64,1.43,1.43h0c0,.79-.64,1.43-1.43,1.43Z"/>
                            </g>
                            <g>
                                <path class="cls-10"
                                      d="M60.13,239.58v-11.84c0-.79.64-1.43,1.43-1.43h0c.79,0,1.43.64,1.43,1.43v11.84c0,.79-.64,1.43-1.43,1.43h0c-.79,0-1.43-.64-1.43-1.43Z"/>
                                <path class="cls-10"
                                      d="M66.56,239.58v-11.84c0-.79.64-1.43,1.43-1.43h0c.79,0,1.43.64,1.43,1.43v11.84c0,.79-.64,1.43-1.43,1.43h0c-.79,0-1.43-.64-1.43-1.43Z"/>
                                <path class="cls-10"
                                      d="M72.98,239.58v-11.84c0-.79.64-1.43,1.43-1.43h0c.79,0,1.43.64,1.43,1.43v11.84c0,.79-.64,1.43-1.43,1.43h0c-.79,0-1.43-.64-1.43-1.43Z"/>
                            </g>
                        </g>
                        <g>
                            <rect class="cls-6" x="14.5" y="251.9" width="67.33" height="19.27" rx="2.44" ry="2.44"/>
                            <path class="cls-19"
                                  d="M39.59,262.96h-5.12c-.79,0-1.43-.64-1.43-1.43h0c0-.79.64-1.43,1.43-1.43h5.12c.79,0,1.43.64,1.43,1.43h0c0,.79-.64,1.43-1.43,1.43Z"/>
                            <g>
                                <path class="cls-10"
                                      d="M27.19,262.96h-5.12c-.79,0-1.43-.64-1.43-1.43h0c0-.79.64-1.43,1.43-1.43h5.12c.79,0,1.43.64,1.43,1.43h0c0,.79-.64,1.43-1.43,1.43Z"/>
                                <path class="cls-2"
                                      d="M51.99,262.96h-5.12c-.79,0-1.43-.64-1.43-1.43h0c0-.79.64-1.43,1.43-1.43h5.12c.79,0,1.43.64,1.43,1.43h0c0,.79-.64,1.43-1.43,1.43Z"/>
                            </g>
                            <g>
                                <path class="cls-10"
                                      d="M60.13,267.48v-11.84c0-.79.64-1.43,1.43-1.43h0c.79,0,1.43.64,1.43,1.43v11.84c0,.79-.64,1.43-1.43,1.43h0c-.79,0-1.43-.64-1.43-1.43Z"/>
                                <path class="cls-10"
                                      d="M66.56,267.48v-11.84c0-.79.64-1.43,1.43-1.43h0c.79,0,1.43.64,1.43,1.43v11.84c0,.79-.64,1.43-1.43,1.43h0c-.79,0-1.43-.64-1.43-1.43Z"/>
                                <path class="cls-10"
                                      d="M72.98,267.48v-11.84c0-.79.64-1.43,1.43-1.43h0c.79,0,1.43.64,1.43,1.43v11.84c0,.79-.64,1.43-1.43,1.43h0c-.79,0-1.43-.64-1.43-1.43Z"/>
                            </g>
                        </g>
                        <g>
                            <rect class="cls-6" x="14.5" y="279.73" width="67.33" height="19.27" rx="2.44" ry="2.44"/>
                            <path class="cls-19"
                                  d="M39.59,290.8h-5.12c-.79,0-1.43-.64-1.43-1.43h0c0-.79.64-1.43,1.43-1.43h5.12c.79,0,1.43.64,1.43,1.43h0c0,.79-.64,1.43-1.43,1.43Z"/>
                            <g>
                                <path class="cls-10"
                                      d="M27.19,290.8h-5.12c-.79,0-1.43-.64-1.43-1.43h0c0-.79.64-1.43,1.43-1.43h5.12c.79,0,1.43.64,1.43,1.43h0c0,.79-.64,1.43-1.43,1.43Z"/>
                                <path class="cls-2"
                                      d="M51.99,290.8h-5.12c-.79,0-1.43-.64-1.43-1.43h0c0-.79.64-1.43,1.43-1.43h5.12c.79,0,1.43.64,1.43,1.43h0c0,.79-.64,1.43-1.43,1.43Z"/>
                            </g>
                            <g>
                                <path class="cls-10"
                                      d="M60.13,295.32v-11.84c0-.79.64-1.43,1.43-1.43h0c.79,0,1.43.64,1.43,1.43v11.84c0,.79-.64,1.43-1.43,1.43h0c-.79,0-1.43-.64-1.43-1.43Z"/>
                                <path class="cls-10"
                                      d="M66.56,295.32v-11.84c0-.79.64-1.43,1.43-1.43h0c.79,0,1.43.64,1.43,1.43v11.84c0,.79-.64,1.43-1.43,1.43h0c-.79,0-1.43-.64-1.43-1.43Z"/>
                                <path class="cls-10"
                                      d="M72.98,295.32v-11.84c0-.79.64-1.43,1.43-1.43h0c.79,0,1.43.64,1.43,1.43v11.84c0,.79-.64,1.43-1.43,1.43h0c-.79,0-1.43-.64-1.43-1.43Z"/>
                            </g>
                        </g>
                    </g>
                    <path class="cls-2"
                          d="M359.35,291.44l-4.37.06c-.15,0-.29.02-.43.04-.58-2.43-1.57-4.7-2.91-6.72.12-.08.23-.18.33-.28l3.04-3.15c.94-.98.92-2.54-.06-3.49l-3.15-3.04c-.98-.94-2.54-.92-3.49.06l-3.04,3.15c-.1.11-.19.22-.27.34-2.01-1.23-4.24-2.13-6.62-2.63.02-.14.04-.28.03-.43l-.06-4.37c-.02-1.36-1.14-2.45-2.5-2.44l-4.37.06c-1.36.02-2.45,1.14-2.44,2.5l.06,4.37c0,.15.02.29.04.43-2.43.58-4.7,1.57-6.72,2.91-.08-.12-.18-.23-.28-.33l-3.15-3.04c-.47-.46-1.09-.7-1.75-.69,0,0,0,0-.01,0-.66.01-1.27.28-1.73.75l-3.04,3.15h0c-.94.98-.92,2.54.06,3.49l3.15,3.04c.11.1.22.19.34.27-1.23,2.01-2.13,4.25-2.63,6.62-.14-.02-.28-.04-.43-.03l-4.37.06c-1.36.02-2.45,1.14-2.44,2.5l.06,4.37c.02,1.36,1.14,2.45,2.5,2.44l4.37-.06c.15,0,.29-.02.43-.04.58,2.43,1.58,4.7,2.91,6.72-.12.08-.23.17-.33.28l-3.04,3.15c-.46.47-.7,1.1-.69,1.76.01.66.28,1.27.75,1.73l3.15,3.04h0c.49.47,1.12.7,1.75.69.64,0,1.27-.26,1.74-.75l3.04-3.15c.1-.11.19-.22.27-.34,2.01,1.23,4.25,2.13,6.62,2.64-.02.14-.04.28-.03.43l.06,4.37c.02,1.36,1.14,2.45,2.5,2.44l4.37-.06c1.36-.02,2.45-1.14,2.44-2.5l-.06-4.37c0-.15-.02-.29-.04-.43,2.43-.58,4.7-1.58,6.72-2.91.08.12.17.23.28.33l3.15,3.04c.49.47,1.12.7,1.75.69.64,0,1.27-.26,1.74-.75l3.04-3.15c.95-.98.92-2.54-.06-3.49l-3.15-3.04c-.11-.1-.22-.19-.34-.27,1.23-2.01,2.13-4.24,2.63-6.62.14.02.28.04.43.03l4.37-.06c1.36-.02,2.45-1.14,2.44-2.5l-.06-4.37c-.02-1.36-1.14-2.45-2.5-2.44ZM334.81,308.71c-6.05.96-11.76-3.19-12.71-9.24-.96-6.05,3.19-11.76,9.24-12.72,6.05-.96,11.76,3.19,12.71,9.24.96,6.05-3.19,11.76-9.24,12.71Z"/>
                    <path class="cls-6"
                          d="M389.67,246.82l-3.34,1.38c-.11.05-.21.1-.31.16-1.19-1.69-2.64-3.12-4.29-4.27.06-.1.12-.21.17-.32l1.37-3.34c.43-1.04-.07-2.23-1.11-2.66l-3.34-1.37c-1.04-.43-2.23.07-2.66,1.11l-1.37,3.34c-.05.11-.08.23-.1.34-1.92-.33-3.91-.34-5.89,0-.03-.11-.06-.23-.1-.34l-1.38-3.34c-.43-1.04-1.62-1.54-2.66-1.11l-3.34,1.38c-1.04.43-1.54,1.62-1.11,2.66l1.38,3.34c.05.11.1.21.16.31-1.69,1.19-3.12,2.64-4.27,4.29-.1-.06-.21-.12-.32-.17l-3.34-1.37c-.5-.21-1.05-.2-1.55,0,0,0,0,0,0,0-.5.21-.89.6-1.1,1.11l-1.37,3.34h0c-.43,1.04.07,2.23,1.11,2.66l3.34,1.37c.11.05.23.08.34.1-.33,1.92-.34,3.91,0,5.89-.11.03-.23.06-.34.1l-3.34,1.38c-1.04.43-1.54,1.62-1.11,2.66l1.38,3.34c.43,1.04,1.62,1.54,2.66,1.11l3.34-1.38c.11-.05.21-.1.31-.16,1.19,1.69,2.64,3.12,4.29,4.27-.06.1-.12.2-.17.32l-1.37,3.34c-.21.5-.2,1.06,0,1.56.21.5.6.89,1.11,1.1l3.34,1.37h0c.52.21,1.07.2,1.55,0,.49-.2.89-.59,1.11-1.11l1.37-3.34c.05-.11.08-.23.1-.34,1.92.33,3.91.34,5.89,0,.03.11.06.23.1.34l1.38,3.34c.43,1.04,1.62,1.54,2.66,1.11l3.34-1.38c1.04-.43,1.54-1.62,1.11-2.66l-1.38-3.34c-.05-.11-.1-.21-.16-.31,1.69-1.19,3.12-2.64,4.27-4.29.1.06.2.12.32.17l3.34,1.37c.52.21,1.07.2,1.55,0,.49-.2.89-.59,1.11-1.11l1.37-3.34c.43-1.04-.07-2.23-1.11-2.66l-3.34-1.37c-.11-.05-.23-.08-.34-.1.33-1.92.34-3.91,0-5.89.11-.03.23-.06.34-.1l3.34-1.38c1.04-.43,1.54-1.62,1.11-2.66l-1.38-3.34c-.43-1.04-1.62-1.54-2.66-1.11ZM375.41,267.23c-4.88,2.02-10.49-.32-12.51-5.2-2.02-4.88.32-10.49,5.2-12.51,4.88-2.02,10.49.32,12.51,5.2,2.02,4.88-.32,10.49-5.2,12.51Z"/>
                    <g>
                        <path class="cls-10"
                              d="M156.67,312.15l3.93-2.58c.92-.61,1.18-1.85.58-2.77l-15.21-20.87c-.61-.92-1.85-1.18-2.77-.58l-1.76,1.16c-.92.61-1.18,1.85-.58,2.77l13.04,22.29c.61.92,1.85,1.18,2.77.58Z"/>
                        <path class="cls-2"
                              d="M145.1,285.29l-4.48,2.94c-1.24.81-2.9.47-3.72-.77h0c-.81-1.24-.47-2.9.77-3.72l4.48-2.94c1.24-.81,2.9-.47,3.72.77h0c.81,1.24.47,2.9-.77,3.72Z"/>
                        <circle class="cls-10" cx="129.83" cy="266.9" r="18.63"
                                transform="translate(-159.7 332.17) rotate(-76.77)"/>
                        <path class="cls-2"
                              d="M141.81,259.04c4.34,6.62,2.5,15.5-4.12,19.84-6.62,4.34-15.5,2.5-19.84-4.12-4.34-6.62-2.5-15.5,4.12-19.84,6.62-4.34,15.5-2.5,19.84,4.12Z"/>
                        <circle class="cls-5" cx="129.83" cy="266.9" r="13.12"
                                transform="translate(-154.37 352.46) rotate(-80.82)"/>
                    </g>
                    <g>
                        <g>
                            <rect class="cls-6" x="355.95" y="187.88" width="2.31" height="5.82"/>
                            <polygon class="cls-6"
                                     points="355.95 197.97 355.95 198.89 355.95 226.64 358.26 226.64 358.26 198.89 358.26 197.97 355.95 197.97"/>
                        </g>
                        <rect class="cls-6" x="371.76" y="187.87" width="2.31" height="38.76"/>
                        <g>
                            <rect class="cls-6" x="386.63" y="187.88" width="2.31" height="17.57"/>
                            <rect class="cls-6" x="386.63" y="209.73" width="2.31" height="16.9"/>
                        </g>
                        <rect class="cls-2" x="367.12" y="213.43" width="11.58" height="5.19" rx="1.82" ry="1.82"/>
                        <path class="cls-10"
                              d="M361.26,192.78h-8.32c-1.14,0-2.07.96-2.07,2.13v1.86c0,1.17.93,2.12,2.07,2.12h8.32c1.15,0,2.08-.95,2.08-2.12v-1.86c0-1.17-.93-2.13-2.08-2.13ZM362.45,196.77c0,.67-.53,1.21-1.19,1.21h-8.32c-.65,0-1.18-.54-1.18-1.21v-1.86c0-.67.53-1.22,1.18-1.22h8.32c.66,0,1.19.55,1.19,1.22v1.86Z"/>
                        <path class="cls-6"
                              d="M391.94,204.53h-8.32c-1.15,0-2.08.96-2.08,2.13v1.86c0,1.17.93,2.12,2.08,2.12h8.32c1.14,0,2.07-.95,2.07-2.12v-1.86c0-1.17-.93-2.13-2.07-2.13ZM393.12,208.52c0,.67-.53,1.21-1.18,1.21h-8.32c-.65,0-1.19-.54-1.19-1.21v-1.86c0-.67.54-1.22,1.19-1.22h8.32c.65,0,1.18.55,1.18,1.22v1.86Z"/>
                    </g>
                    <g>
                        <g>
                            <path class="cls-5"
                                  d="M46.89,161.26c-9.46,1.47-22.08-6.3-22.11-6.32h0s0,0,0,0h0s0,0,0,0c-.03.02-12.64,7.79-22.11,6.32,0,0-9.62,29.97,22.11,49.27h0s0,0,0,0c0,0,0,0,0,0h0c31.72-19.3,22.11-49.27,22.11-49.27Z"/>
                            <path class="cls-10"
                                  d="M24.78,211.83c-.23,0-.47-.06-.68-.19C7.29,201.41,2.01,188.17.55,178.86c-1.59-10.09.79-17.68.89-18,.19-.61.8-.99,1.44-.89,8.91,1.38,21.1-6.06,21.22-6.14.11-.07.24-.12.37-.16.34-.08.7-.03,1,.15.12.08,12.33,7.52,21.23,6.14.64-.1,1.24.28,1.44.89.1.32,2.48,7.9.89,18-1.47,9.31-6.74,22.54-23.54,32.77-.02.01-.04.02-.06.03-.2.11-.42.17-.64.17ZM3.64,162.68c-.56,2.34-1.7,8.45-.51,15.89,2,12.47,9.28,22.71,21.65,30.44,26.5-16.57,22.4-41.05,21.14-46.32-8.47.71-18.46-4.67-21.15-6.23-2.72,1.56-12.76,6.92-21.14,6.23Z"/>
                        </g>
                        <g>
                            <path class="cls-15"
                                  d="M33.2,172.26c.05-2.95-1.44-5.57-3.72-7.11,0,0-.01,0-.01,0-.22-.15-.44-.28-.67-.41-.02-.01-.05-.02-.07-.04-.21-.11-.43-.22-.65-.31-.05-.02-.1-.04-.14-.06-.2-.08-.41-.16-.62-.23-.07-.02-.15-.04-.22-.06-.19-.05-.38-.11-.57-.15-.1-.02-.21-.03-.31-.05-.17-.03-.34-.06-.51-.08-.13-.01-.26-.02-.39-.03-.13,0-.26-.02-.39-.03-.02,0-.05,0-.07,0-.02,0-.05,0-.07,0-.13,0-.26.01-.38.02-.13,0-.27,0-.4.02-.17.02-.34.04-.51.07-.11.02-.21.03-.32.05-.19.04-.38.09-.57.14-.08.02-.16.04-.23.06-.21.06-.41.14-.62.22-.05.02-.1.03-.15.05-.22.09-.44.19-.65.3-.03.01-.05.02-.08.04-.23.12-.46.25-.67.4,0,0-.01,0-.02.01-2.3,1.5-3.83,4.1-3.83,7.05,0,.02,0,.05,0,.07l-.06,3.64s-.06,4.25-.06,4.43c.03.75.64,1.34,1.38,1.36.02,0,.05,0,.07,0,.77-.03,1.37-.67,1.36-1.43,0-.28.05-3.98.06-4.31l.06-3.85c.04-2.32,1.48-4.29,3.51-5.11,0,0,.01,0,.02,0,.16-.06.32-.12.49-.17.03,0,.06-.01.09-.02.14-.04.29-.08.44-.11.06-.01.11-.02.17-.03.12-.02.25-.04.37-.05.08,0,.17,0,.25-.01.1,0,.21-.01.31-.01.1,0,.21,0,.31.02.08,0,.17,0,.25.02.13.01.25.03.37.06.06.01.12.02.17.03.15.03.29.07.43.11.03,0,.06.02.09.03.17.05.33.11.49.18,0,0,.01,0,.02,0,2.01.85,3.42,2.85,3.42,5.17v3.85c0,.33,0,4.03,0,4.31-.03.76.57,1.41,1.33,1.45.02,0,.05,0,.07,0,.74,0,1.36-.58,1.4-1.33,0-.18.01-4.39.01-4.43v-3.64s0-.05,0-.07Z"/>
                            <rect class="cls-2" x="13.97" y="175.69" width="21.62" height="19.28" rx="4.06" ry="4.06"/>
                            <path class="cls-15"
                                  d="M27.38,183.58c0-1.43-1.16-2.6-2.6-2.6s-2.6,1.16-2.6,2.6c0,.94.5,1.76,1.25,2.22v3.43c0,.74.6,1.34,1.34,1.34s1.34-.6,1.34-1.34v-3.43c.75-.45,1.25-1.28,1.25-2.22Z"/>
                        </g>
                    </g>
                    <g>
                        <g>
                            <path class="cls-2"
                                  d="M42.96,8.01l-6.4-5.67c-.3-.26-.76-.24-1.02.06-.13.14-.19.33-.18.52.01.19.1.37.24.5l5.77,5.11-5.75,4.72c-.15.12-.24.3-.26.49-.02.19.04.38.16.53.14.17.34.26.56.26.17,0,.33-.06.46-.16l6.4-5.26c.16-.13.26-.33.26-.54,0-.21-.09-.41-.24-.55Z"/>
                            <path class="cls-2"
                                  d="M54.2,8.01l-6.4-5.67c-.3-.26-.76-.24-1.02.06-.13.14-.19.33-.18.52.01.19.1.37.24.5l5.77,5.11-5.75,4.72c-.15.12-.24.3-.26.49-.02.19.04.38.16.53.14.17.34.26.56.26.17,0,.33-.06.46-.16l6.4-5.26c.16-.13.26-.33.26-.54,0-.21-.09-.41-.24-.55Z"/>
                            <path class="cls-2"
                                  d="M65.44,8.01l-6.4-5.67c-.3-.26-.76-.24-1.02.06-.13.14-.19.33-.18.52.01.19.1.37.24.5l5.77,5.11-5.75,4.72c-.15.12-.24.3-.26.49-.02.19.04.38.16.53.14.17.34.26.56.26.17,0,.33-.06.46-.16l6.4-5.26c.16-.13.26-.33.26-.54,0-.21-.09-.41-.24-.55Z"/>
                        </g>
                        <g>
                            <path class="cls-2"
                                  d="M387.15,142.42l5.67-6.4c.26-.3.24-.76-.06-1.02-.14-.13-.33-.19-.52-.18-.19.01-.37.1-.5.24l-5.11,5.77-4.72-5.75c-.12-.15-.3-.24-.49-.26-.19-.02-.38.04-.53.16-.17.14-.26.34-.26.56,0,.17.06.33.16.46l5.25,6.4c.13.16.33.26.54.26.21,0,.41-.09.55-.24Z"/>
                            <path class="cls-2"
                                  d="M387.15,153.66l5.67-6.4c.26-.3.24-.76-.06-1.02-.14-.13-.33-.19-.52-.18-.19.01-.37.1-.5.24l-5.11,5.77-4.72-5.75c-.12-.15-.3-.24-.49-.26-.19-.02-.38.04-.53.16-.17.14-.26.34-.26.56,0,.17.06.33.16.46l5.25,6.4c.13.16.33.26.54.26.21,0,.41-.09.55-.24Z"/>
                            <path class="cls-2"
                                  d="M387.15,164.9l5.67-6.4c.26-.3.24-.76-.06-1.02-.14-.13-.33-.19-.52-.18-.19.01-.37.1-.5.24l-5.11,5.77-4.72-5.75c-.12-.15-.3-.24-.49-.26-.19-.02-.38.04-.53.16-.17.14-.26.34-.26.56,0,.17.06.33.16.46l5.25,6.4c.13.16.33.26.54.26.21,0,.41-.09.55-.24Z"/>
                        </g>
                        <g>
                            <path class="cls-2"
                                  d="M213.37,307.48l6.4,5.67c.3.26.76.24,1.02-.06.13-.14.19-.33.18-.52-.01-.19-.1-.37-.24-.5l-5.77-5.11,5.75-4.72c.15-.12.24-.3.26-.49.02-.19-.04-.38-.16-.53-.14-.17-.34-.26-.56-.26-.17,0-.33.06-.46.16l-6.4,5.26c-.16.13-.26.33-.26.54,0,.21.08.41.24.55Z"/>
                            <path class="cls-2"
                                  d="M202.13,307.48l6.4,5.67c.3.26.76.24,1.02-.06.13-.14.19-.33.18-.52-.01-.19-.1-.37-.24-.5l-5.77-5.11,5.75-4.72c.15-.12.24-.3.26-.49.02-.19-.04-.38-.16-.53-.14-.17-.34-.26-.56-.26-.17,0-.33.06-.46.16l-6.4,5.26c-.16.13-.26.33-.26.54,0,.21.09.41.24.55Z"/>
                            <path class="cls-2"
                                  d="M190.89,307.48l6.4,5.67c.3.26.76.24,1.02-.06.13-.14.19-.33.18-.52-.01-.19-.1-.37-.24-.5l-5.77-5.11,5.75-4.72c.15-.12.24-.3.26-.49.02-.19-.04-.38-.16-.53-.14-.17-.34-.26-.56-.26-.17,0-.33.06-.46.16l-6.4,5.26c-.16.13-.26.33-.26.54,0,.21.08.41.24.55Z"/>
                        </g>
                    </g>
                    <g>
                        <path class="cls-10"
                              d="M51.3,24.18h-30.69c-3.34,0-6.04,2.7-6.04,6.04v16.88c0,3.34,2.7,6.04,6.04,6.04h28.38l8.34,5.83v-28.74c0-3.34-2.7-6.04-6.04-6.04Z"/>
                        <g>
                            <rect class="cls-5" x="31.24" y="31.19" width="20.79" height="1.33"/>
                            <rect class="cls-5" x="19.9" y="31.19" width="7.96" height="1.33"/>
                            <rect class="cls-5" x="19.9" y="38.14" width="32.12" height="1.33"/>
                            <rect class="cls-5" x="45.05" y="45.09" width="6.98" height="1.33"/>
                            <rect class="cls-5" x="19.9" y="45.09" width="21.12" height="1.33"/>
                        </g>
                    </g>
                    <g>
                        <path class="cls-6"
                              d="M6.04,48.71h30.69c3.34,0,6.04,2.7,6.04,6.04v16.88c0,3.34-2.7,6.04-6.04,6.04H8.34l-8.34,5.83v-28.74c0-3.34,2.7-6.04,6.04-6.04Z"/>
                        <g>
                            <rect class="cls-5" x="5.32" y="55.71" width="20.79" height="1.33"/>
                            <rect class="cls-5" x="29.49" y="55.71" width="7.96" height="1.33"/>
                            <rect class="cls-5" x="5.32" y="62.67" width="32.12" height="1.33"/>
                            <rect class="cls-5" x="5.32" y="69.62" width="6.98" height="1.33"/>
                            <rect class="cls-5" x="16.33" y="69.62" width="21.12" height="1.33"/>
                        </g>
                    </g>
                </g>
            </g>
        </g>
    </g>
</svg>