<?xml version="1.0" encoding="UTF-8"?>
<svg id="Layer_1" data-name="Layer 1" xmlns="http://www.w3.org/2000/svg" viewBox="0 0 233.44 53.05">
    <defs>
        <style>
            .cls-1 {
            fill: #1a1818;
            }

            .cls-1, .cls-2 {
            fill-rule: evenodd;
            }

            .cls-2 {
            fill: #22619c;
            }
        </style>
    </defs>
    <g id="SVGRepo_iconCarrier" data-name="SVGRepo iconCarrier">
        <g>
            <path class="cls-1"
                  d="M223.63,3.92l9.8.05s-18.22,24.69-19.71,26.71c-.48.65-1.22,1.35-1.59,2.23-.94,2.19-1.91,6.99-1.91,6.99l-8.97.04s1.4-5.01,1.34-7.67c-.05-2.33-1.24-4.66-1.91-6.99-.67-2.37-1.59-6.99-1.59-6.99h9.22l1.27,5.09,14.04-19.45"/>
            <path class="cls-1"
                  d="M205.07,9.13c1.81,1.09,2.92,7.11,2.92,7.11,0,0-9.46.14-14.61.14h-4.45l-5.4,23.53h-8.27s5.14-25.57,6.36-30.2c.39-1.5,2.7-1.24,6.58-1.24h6.21c4.01,0,8.7-.51,10.67.67M166.59,20.59s.26-1.51-.87-3.26c-.97-1.49-1.86-1.84-4.4-1.92-7.18-.23-7.04,5.1-7.04,5.1l12.32.08ZM174.38,14.49c1.05,3.8-.95,12.72-.95,12.72,0,0-10.48-.17-16.21,0-1.78.05-3.92-.19-4.45.64-.75,1.16.27,2.95,1.14,3.71,1,.87,2.93.97,3.63,1.06,4.66.59,14.4.15,14.4.15l-1.69,7.48s-13.77.69-20.66-.95c-1.36-.32-2.64-.98-3.5-1.91-.24-.25-.44-.6-.66-.9-.18-.24-.7-1.02-.93-1.64-1.57-4.19.18-12.23,1.91-16.53.2-.5.45-1.13.72-1.67.33-.67.61-1.43.87-1.83.18-.28.4-.45.58-.72.21-.31.46-.61.69-.87.64-.74,1.36-1.26,2.23-1.91,2.87-2.15,8.07-3.82,14.31-3.18,2.35.24,5.9,1.08,7.63,3.5.46.65.69,1.93.95,2.86h0ZM136.47,8.42l8.01-.05s-4.47,21.19-6.74,31.52h-9.22c-6.44,0-12.18.8-14.62-3.82-2.37-4.48-.11-11.85.95-16.85.75-3.54,2.33-10.78,2.33-10.78l8.3-.08s-2.35,11.27-3.32,16.9c-.35,2.02-1.07,3.91-.32,5.4.72,1.42,1.72,1.52,4.77,1.59.97.02,4.13,0,4.13,0l5.72-23.84M98.96,23.69c.84-2.98,2.06-6.21,1.91-8.9-.17-2.87-2.58-5.49-4.13-6.04-4.68-1.65-9.07.66-10.81,2.54-2.25,2.44-3.02,5.29-3.82,9.22-.59,2.91-1.08,5.99,0,8.27,1.91,4.02,7.88,3.14,14.31,3.18.95-2.56,1.74-5.43,2.54-8.27h0ZM110.08,11.92c.92,6.66-2.6,14-5.02,20.39,2.47.22,4.63-.03,4.78.15.16.24-1.65,7.63-2.29,7.65-1.96.05-8.45.1-11.15.1-8.83,0-17.09.58-21.3-3.81-1.71-1.78-2.89-4.84-3.18-6.99-.48-3.59.12-7.55.95-10.81.75-2.94,1.72-5.72,3.18-8.27C79.78,3.86,86.23-.95,97.05.16c2.1.22,5.11,1.13,6.99,2.23.13.08.59.44.69.5,2.54,1.62,4.86,5.48,5.35,9.04h0ZM71.02,8.46c-.53,2.43-1.07,5.19-1.63,7.59h-8.9c.69-2.66,1.22-5.31,1.91-7.63,2.85,0,5.5.04,8.63.04M60.17,18.28h8.58c-1.12,6.21-3.34,16.23-5.09,23.21-1.09,4.37-1.82,7.55-4.77,9.86-.26.21-.42.11-.64.32-.54.52-3.06,1.12-4.45,1.27-2.26.25-4.82.03-7.6-.03.73-2.66,1.55-5.86,2.2-8.24,6.78.82,6.95-5.59,8.27-11.76.76-3.57,3.06-13.19,3.5-14.62"/>
            <g>
                <path class="cls-2"
                      d="M40.14,34.49l-.18.48c-3.13,6.1-8.69,9.85-16.61,10.01-3.7.08-7.23-.87-9.54-1.91-4.97-2.24-9.16-6.38-11.44-10.81-3.28-6.35-3.87-15.18,2.95-21.78.11,0-.83,1.43-.72,1.43l-.19.61c-4.91,15.38,10.22,28.56,24.93,27.05,3.54-.36,8.04-2.3,10.81-5.09"/>
                <path class="cls-2"
                      d="M31.24,28.14c3.7.03,7.57-1.7,9.86-4.13-2,5.08-7.8,8.35-15.58,7.31-6.51-.87-12.71-7.42-13.35-13.99-.47-4.78,1.2-7.63,3.94-11.09-.95,1.81-1.31,3.2-1.4,4.09-1.04,10.34,8.26,17.75,16.53,17.8"/>
                <path class="cls-2"
                      d="M40.72,15.3c-.58,1.32-3.89,3.81-5.35,4.12-5.79,1.23-9.5-1.51-11.45-4.64-.29-.47-.82-1.74-.92-2.07-.75-2.56-.41-6.44,1.84-8.44-.68,1.91-.78,4.12-.42,5.56.22.87.87,2.39,1.53,3.35,1.2,1.74,1.96,2.17,3.5,3.09.69.42,1.44.75,1.76.84,1.46.43,4.54,1.56,9.51-1.82"/>
            </g>
        </g>
    </g>
</svg>