<?xml version="1.0" encoding="UTF-8"?>
<svg id="Layer_1" data-name="Layer 1" xmlns="http://www.w3.org/2000/svg" viewBox="0 0 221.34 153.42">
    <defs>
        <style>
            .cls-1 {
            fill: none;
            }

            .cls-2 {
            fill: #f89820;
            }

            .cls-3 {
            fill: #5d87a1;
            }
        </style>
    </defs>
    <g id="SVGRepo_iconCarrier" data-name="SVGRepo iconCarrier">
        <path class="cls-1" d="M0,0h221.34v153.42H0V0Z"/>
        <path class="cls-3"
              d="M67.75,123.9h-5.99c-.21-10.11-.8-19.62-1.75-28.53h-.05l-9.12,28.53h-4.56l-9.07-28.53h-.05c-.67,8.55-1.1,18.07-1.27,28.53h-5.46c.35-12.73,1.24-24.66,2.65-35.8h7.43l8.64,26.31h.05l8.7-26.31h7.11c1.56,13.05,2.48,24.98,2.76,35.8M93.74,97.49c-2.44,13.24-5.66,22.86-9.65,28.87-3.11,4.62-6.52,6.94-10.24,6.94-.99,0-2.21-.3-3.66-.89v-3.19c.71.1,1.54.16,2.49.16,1.73,0,3.13-.48,4.19-1.43,1.27-1.16,1.91-2.47,1.91-3.92,0-.99-.5-3.02-1.48-6.1l-6.58-20.42h5.89l4.72,15.27c1.06,3.47,1.5,5.89,1.33,7.27,2.58-6.89,4.38-14.41,5.41-22.54h5.68Z"/>
        <path class="cls-2"
              d="M173.51,123.9h-17.02v-35.8h5.73v31.4h11.3v4.41ZM152.03,124.77l-6.58-3.25c.58-.48,1.14-1,1.64-1.6,2.8-3.29,4.19-8.15,4.19-14.58,0-11.84-4.65-17.77-13.95-17.77-4.56,0-8.12,1.5-10.66,4.51-2.8,3.29-4.19,8.13-4.19,14.53s1.24,10.91,3.71,13.84c2.26,2.65,5.68,3.98,10.24,3.98,1.7,0,3.26-.21,4.69-.63l8.57,4.99,2.34-4.02ZM130.71,116.74c-1.45-2.33-2.17-6.08-2.17-11.24,0-9.01,2.74-13.53,8.22-13.53,2.87,0,4.97,1.08,6.31,3.23,1.45,2.34,2.18,6.05,2.18,11.14,0,9.09-2.74,13.63-8.22,13.63-2.87,0-4.97-1.07-6.31-3.24M119.99,113.98c0,3.04-1.11,5.53-3.34,7.48-2.23,1.94-5.22,2.92-8.96,2.92-3.5,0-6.9-1.12-10.18-3.34l1.54-3.07c2.83,1.42,5.39,2.12,7.69,2.12,2.16,0,3.84-.48,5.07-1.43,1.22-.95,1.95-2.29,1.95-3.98,0-2.13-1.48-3.95-4.2-5.47-2.51-1.38-7.53-4.26-7.53-4.26-2.72-1.98-4.08-4.11-4.08-7.62,0-2.9,1.02-5.24,3.05-7.03,2.03-1.79,4.66-2.68,7.88-2.68s6.34.89,9.07,2.65l-1.38,3.08c-2.33-.99-4.62-1.48-6.89-1.48-1.84,0-3.25.44-4.24,1.33-.99.88-1.61,2.01-1.61,3.4,0,2.12,1.51,3.96,4.31,5.51,2.54,1.38,7.69,4.31,7.69,4.31,2.79,1.98,4.18,4.09,4.18,7.57"/>
        <path class="cls-3"
              d="M180.7,76.11c-3.46-.09-6.14.26-8.39,1.21-.65.26-1.68.26-1.77,1.08.35.35.39.91.7,1.39.52.86,1.42,2.03,2.25,2.64.91.69,1.82,1.38,2.77,1.99,1.68,1.04,3.59,1.65,5.23,2.68.96.6,1.9,1.38,2.86,2.03.47.35.77.91,1.38,1.12v-.13c-.31-.39-.39-.95-.69-1.38l-1.3-1.25c-1.26-1.69-2.81-3.16-4.5-4.37-1.38-.95-4.41-2.25-4.98-3.85l-.09-.09c.95-.09,2.08-.43,2.99-.7,1.47-.39,2.81-.3,4.32-.69.69-.17,1.38-.39,2.08-.61v-.39c-.78-.78-1.34-1.81-2.16-2.55-2.2-1.9-4.63-3.76-7.14-5.32-1.34-.87-3.07-1.43-4.5-2.16-.52-.26-1.38-.39-1.69-.82-.78-.95-1.21-2.2-1.78-3.33-1.25-2.38-2.47-5.02-3.54-7.53-.78-1.69-1.26-3.37-2.21-4.93-4.46-7.35-9.3-11.81-16.74-16.18-1.6-.91-3.5-1.3-5.53-1.78l-3.25-.17c-.69-.3-1.39-1.13-1.99-1.52-2.47-1.56-8.82-4.93-10.64-.48-1.17,2.81,1.73,5.58,2.73,7.01.74.99,1.69,2.12,2.2,3.24.3.74.39,1.52.69,2.29.69,1.9,1.34,4.02,2.25,5.8.47.91.99,1.86,1.6,2.68.35.48.95.69,1.08,1.47-.6.86-.65,2.16-1,3.24-1.56,4.89-.95,10.94,1.26,14.53.69,1.08,2.34,3.46,4.54,2.55,1.95-.78,1.52-3.24,2.08-5.41.13-.52.04-.86.3-1.21v.08c.6,1.21,1.21,2.38,1.77,3.59,1.34,2.12,3.68,4.32,5.63,5.79,1.04.78,1.86,2.12,3.16,2.6v-.13h-.09c-.26-.39-.65-.56-.99-.86-.78-.78-1.64-1.73-2.25-2.59-1.81-2.42-3.42-5.11-4.84-7.88-.7-1.34-1.3-2.81-1.86-4.15-.26-.52-.26-1.3-.7-1.56-.65.95-1.6,1.77-2.07,2.94-.82,1.86-.91,4.15-1.21,6.54l-.17.08c-1.38-.35-1.86-1.77-2.38-2.98-1.3-3.07-1.51-8.01-.39-11.55.3-.91,1.6-3.76,1.08-4.63-.26-.83-1.13-1.3-1.6-1.95-.56-.82-1.17-1.86-1.56-2.77-1.04-2.42-1.56-5.1-2.68-7.52-.52-1.13-1.43-2.3-2.16-3.33-.82-1.17-1.73-1.99-2.38-3.37-.22-.48-.52-1.25-.17-1.77.08-.35.26-.48.61-.56.56-.47,2.16.13,2.72.39,1.6.65,2.94,1.25,4.28,2.16.61.43,1.26,1.26,2.03,1.47h.91c1.38.3,2.94.08,4.24.47,2.29.74,4.37,1.82,6.23,2.98,5.67,3.59,10.34,8.7,13.49,14.8.52.99.74,1.9,1.21,2.94.91,2.12,2.04,4.28,2.94,6.36.91,2.03,1.78,4.11,3.07,5.8.65.91,3.25,1.38,4.41,1.86.86.39,2.21.73,2.98,1.21,1.47.91,2.94,1.95,4.32,2.94.69.52,2.85,1.6,2.98,2.47M136.57,38.52c-.6,0-1.19.07-1.77.22v.09h.08c.35.69.95,1.17,1.39,1.77.35.69.65,1.38.99,2.07l.08-.09c.61-.43.91-1.12.91-2.16-.26-.31-.3-.6-.52-.91-.25-.43-.82-.65-1.17-1"/>
        <path class="cls-2"
              d="M184.82,123.9h.9v-4.39h-1.34l-1.1,2.99-1.19-2.99h-1.29v4.39h.85v-3.34h.05l1.25,3.34h.64l1.24-3.34v3.34h0ZM177.6,123.9h.95v-3.64h1.24v-.74h-3.48v.74h1.29v3.64s0,0,0,0Z"/>
    </g>
</svg>