<?xml version="1.0" encoding="UTF-8"?>
<svg id="OBJECTS" xmlns="http://www.w3.org/2000/svg" viewBox="0 0 17.1 14.92">
    <defs>
        <style>
            .cls-1 {
            fill: #31c5f0;
            }
        </style>
    </defs>
    <path class="cls-1"
          d="M0,.28c.91-.15,2.1-.28,3.62-.28,1.86,0,3.23.43,4.09,1.21.8.69,1.28,1.75,1.28,3.05s-.39,2.36-1.13,3.12c-1,1.06-2.62,1.6-4.46,1.6-.56,0-1.08-.02-1.52-.13v5.85H0V.28ZM1.88,7.32c.41.11.93.15,1.56.15,2.27,0,3.66-1.1,3.66-3.12s-1.36-2.86-3.44-2.86c-.82,0-1.45.06-1.78.15v5.67Z"/>
    <path class="cls-1"
          d="M10.72,12.75c.56.37,1.56.76,2.51.76,1.39,0,2.04-.69,2.04-1.56,0-.91-.54-1.41-1.95-1.93-1.88-.67-2.77-1.71-2.77-2.97,0-1.69,1.36-3.07,3.62-3.07,1.06,0,1.99.3,2.58.65l-.48,1.39c-.41-.26-1.17-.61-2.14-.61-1.13,0-1.75.65-1.75,1.43,0,.87.63,1.26,1.99,1.78,1.82.69,2.75,1.6,2.75,3.16,0,1.84-1.43,3.14-3.92,3.14-1.15,0-2.21-.28-2.94-.71l.48-1.45Z"/>
</svg>