<?xml version="1.0" encoding="UTF-8"?>
<svg xmlns="http://www.w3.org/2000/svg" viewBox="0 0 442.89 330.75">
    <defs>
        <style>
            .cls-1 {
            fill: #ffa8a7;
            }

            .cls-2 {
            fill: #c8856a;
            }

            .cls-3 {
            fill: #b16668;
            }

            .cls-4 {
            fill: #ffbda7;
            }

            .cls-5 {
            opacity: .3;
            }

            .cls-6 {
            opacity: .45;
            }

            .cls-6, .cls-7 {
            fill: #fff;
            }

            .cls-8 {
            fill: #af6152;
            }

            .cls-9 {
            opacity: .15;
            }

            .cls-10 {
            opacity: .2;
            }

            .cls-7 {
            opacity: .4;
            }

            .cls-11 {
            fill: #f28f8f;
            }

            .cls-12 {
            fill: #ba68c8;
            }

            .cls-13 {
            fill: #f0997a;
            }

            .cls-14 {
            fill: #9a4a4d;
            }
        </style>
    </defs>
    <g id="Hand_4" data-name="Hand 4">
        <g id="Hand">
            <g id="Hand-2" data-name="Hand">
                <path class="cls-4"
                      d="M409.73,7.04c-10.28-5.94-19.66-4.94-25.22.83h0s0,0,0,0c-28.44,25.54-40.25,33.89-61.8,39.72-7.17,1.94-20.35,7.73-27.22,10.58-9.16,3.79-17.07,8.73-25.24,14.22-8.5,5.72-17.37,11.03-26.97,14.68-3.18,1.21-8.77,3.2-8.38,7.53.38,4.27,3.45,7.31,7.51,8.49,3.49,1.02,7.52,1.29,11.02,1.02-8.59,6.23-18.57,13.53-24.91,18.43-12.75,9.85-20.36,18.14-23.05,21.28-4.87,5.68-7.42,10.21-7.84,14.89-.28,3.15,1.21,4.62,2.57,5.76,0,0-.9.62-3.46,4.06-2.55,3.45-.84,9.83,6.25,10.46,7.15.64,11.61-2.56,13.43-4.37-1.71,2.24-3.42,4.27-3.63,7.05-.26,3.39,3.95,6.51,9.18,6.51,9.59,0,18.48-7.69,28.54-14.4,7.13-4.76,18.15-11.17,28.88-16.23,0,0-19.31,16.23-28.5,26.34-2.69,2.96-4.84,6.78-3.06,9.16,3.57,4.78,11.54,4.23,20.42.17,8.88-4.06,22.85-15.58,41-28.9,14.63-10.74,13.25-9.94,30.72-21.32,20.59-13.41,26.09-24.12,30.77-32.73,4.67-8.61,26.46-14.29,59.76-29.92,6.05-2.97,9.84-10.02,9.84-20.28,0-19.53-13.71-43.28-30.62-53.04Z"/>
                <path class="cls-13"
                      d="M265.75,115.39c-12.26,6.12-23.46,14.17-34.55,22.16-10.9,8.25-21.93,16.6-30.98,26.93,9.15-7.61,22.99-17.48,32.64-24.68,9.68-7.11,23.31-17.46,32.89-24.41ZM247.3,147.37c-11.05,8.1-22.17,16.55-30.86,27.26,20.32-17.74,44.41-32.64,65.76-49.11-12.12,6.49-23.7,13.89-34.9,21.85ZM242.42,103.09c3.49,1.02,7.52,1.29,11.02,1.02,11.87-7.88,26.37-15.84,26.37-15.84,0,0-18.79,8.78-23.69,10.62-3.97,1.49-13.14,2.7-19.37.44,1.36,1.78,3.34,3.08,5.67,3.76ZM256.81,169.8s0,0,0,0c6.57-4.01,14.66-8.49,22.6-12.24,13.05-11.65,15.73-13.66,15.73-13.66,0,0-24.7,13.36-38.32,25.89Z"/>
            </g>
            <g>
                <g>
                    <path class="cls-12"
                          d="M410.18,4.31c-10.98-6.34-20.92-5.36-26.85.81l-19.94,17.32,42.29,71.95c7.86-3.3,16.81-7.12,26.71-11.76,6.46-3.17,10.51-10.7,10.51-21.66,0-20.86-14.64-46.22-32.71-56.65Z"/>
                    <path class="cls-9"
                          d="M410.18,4.31c-10.98-6.34-20.92-5.36-26.85.81l-19.94,17.32,42.29,71.95c7.86-3.3,16.81-7.12,26.71-11.76,6.46-3.17,10.51-10.7,10.51-21.66,0-20.86-14.64-46.22-32.71-56.65Z"/>
                </g>
                <path class="cls-12"
                      d="M342.88,39.92l4.71-2.65s13.43-.92,26.69,22.4c14.22,25,9.25,41.19,9.25,41.19l-4.54,2.36s2.63,3.28,9.06-.25c10.97-6.01,15.92-4.95,21.08-10.84,5.39-6.16,3.2-25.71-7.22-45.95-9.66-18.77-25.38-28.97-35.41-27.59-5.5.76-5.57,3.71-12.73,9.28-7.02,5.46-11.05,7.07-10.89,12.04Z"/>
                <path class="cls-5"
                      d="M342.88,39.92l4.71-2.65s13.43-.92,26.69,22.4c14.22,25,9.25,41.19,9.25,41.19l-4.54,2.36s2.63,3.28,9.06-.25c10.97-6.01,15.92-4.95,21.08-10.84,5.39-6.16,3.2-25.71-7.22-45.95-9.66-18.77-25.38-28.97-35.41-27.59-5.5.76-5.57,3.71-12.73,9.28-7.02,5.46-11.05,7.07-10.89,12.04Z"/>
            </g>
        </g>
    </g>
    <g id="Hand_3" data-name="Hand  3">
        <g id="Hand-3" data-name="Hand">
            <path class="cls-2"
                  d="M373.26,219.38c-6.53-5.82-12.76-20.55-19.01-28.54-6.25-7.99-12.4-15.65-18.39-21.26-3.73-3.5-10.74-9.61-17.23-13.87-4.92-3.23-11.62.71-8.4,10.83,1.81,5.68,6.33,10.08,9.38,16.68,0,0-10.39-8.19-21.57-16.98-11.18-8.79-27.31-18.63-33.5-21.41-6.19-2.79-16.58-6.56-20.4-6.05-3.83.52-7.97,7.87-.31,14.25,6.6,5.5,12.38,8.17,15.33,10.58,2.95,2.41,24.73,22.98,21.83,21.29-6.04-3.53-13.28-7.66-20.69-12.15-8.34-5.04-15.34-8.08-27.78-12.3-8.6-2.92-14.67-3.99-18.22-.86-2.6,2.29-2.57,8.11,1.36,14.61-5.57,1.84-6.94,7.82-1.68,13.57,4.19,4.58,12.51,9.09,20.83,14.34,8.77,5.53,18.49,14.21,20.56,16.92,0,0-5.29-2.57-13.77-6.27-9.95-4.33-16.46-6.59-22.69-7.87-6.23-1.28-7.8,1.85-6.43,7.63,1.7,7.18,11.65,13.04,20.98,17.56,7.09,3.44,25.63,12.39,38.33,23.27,9.28,7.96,17.18,16.97,29.26,24.6,18.06,11.42,28.14,9.31,37.5,13.79,9.36,4.48,47.19,35.34,47.19,35.34,5.51,3.7,13.39,3.46,22.15-1.6,16.66-9.62,30.16-33.01,30.16-52.24,0-9.85-3.84-16.78-9.62-19.86-1.08-.57-44.26-24.29-55.16-34.01Z"/>
            <path class="cls-8"
                  d="M215.64,174.2c9.1-1.19,18.17,2.37,26.22,6.33,13.94,6.21,25.19,16.82,35.39,27.93-4.84-3.6-9.52-7.37-14.19-11.12-6.97-5.66-14.37-10.47-22.37-14.47-7.81-4.19-16-8.14-25.05-8.67h0Z"/>
            <path class="cls-8"
                  d="M281.24,184.96c5.06,3.74,8.91,7.03,8.91,7.03,0,0-8.17-10.07-19.18-17.43,0,0,0,0,0,0,5.3,5.06,10.32,10.01,10.27,10.4,0,0,0,0,0,0Z"/>
            <path class="cls-8"
                  d="M323.95,182.54c-5.28-5.28-14.02-14.8-14.08-24.01h0c-.69,1.96-.73,4.64.35,8.01,1.81,5.68,6.33,10.08,9.38,16.68,5.08,3.86,12.13,9.92,12.13,9.92,0,0-2.5-5.31-7.78-10.59Z"/>
            <path class="cls-8"
                  d="M352.48,298.65c-4.21-3.99-5.93-6.18-10.43-9.22-7.2-4.85-14.68-6.41-23.04-8.73-18.99-5.28-31.89-24.39-47.83-35.99-17.15-12.48-38.29-18.05-56.89-28.22,3.66,5.4,11.61,9.94,19.16,13.59,7.09,3.44,25.63,12.39,38.33,23.27,9.28,7.96,17.18,16.97,29.26,24.6,18.06,11.42,28.14,9.31,37.5,13.79,5.76,2.76,18.54,12.77,26.98,19.25-4.03-4.14-9.73-9.21-13.05-12.35Z"/>
        </g>
    </g>
    <g id="Hand_2" data-name="Hand  2">
        <g id="Hand-4" data-name="Hand">
            <g id="Hand-5" data-name="Hand">
                <path class="cls-1"
                      d="M229.88,167.95c-3.25-1.18-15.82-.84-23.9-.75-8.07.09-22.14,3.73-30.36,8-2.97,1.54-6.02,3.07-8.72,4.39,4.03-2.93,8.68-6.31,12.28-8.27,8.46-4.62,15.34-6.13,21.01-7.55,8.6-2.16,13.15-3.99,15.83-6.64,3.55-3.51,2.45-8.93-.57-9.93-3.02-1.01-11.27-.91-18.29-.24,0,0-2.21-4.45-16.01-3.81-17.08.79-32.15,10.2-32.15,10.2,0,0-4.78-1.58-14.81,3.65s-30.52,23.22-43.77,37.54c-13.26,14.32-14.25,22.72-40.37,36.91-16.8,9.13-31.88,17.13-31.88,17.13h0c-5.65,2.84-9.42,9.46-9.42,18.95,0,18.21,12.79,40.36,28.56,49.46,8.29,4.79,15.75,5.01,20.97,1.51,20.57-15.76,45.27-35.28,53.7-40.23,8.44-4.95,19.53-5.64,34.01-9.23,14.48-3.59,24.38-11.65,33.38-16.69,9-5.05,15.53-8.95,26.59-15.53,11.06-6.58,7.48-16.24-7.96-15.33-16.5.97-24.77,8.73-35.71,8.93-8.33.15-4.79-11.77,5.78-21.16,10.57-9.38,19.01-17.2,30.36-22.08,11.35-4.87,22.65-5.57,29.8-10.23,4.05-2.65,4.88-7.82,1.63-9Z"/>
                <path class="cls-11"
                      d="M116.08,269.31c-7.59,4.29-51.44,31.8-77.65,48.29,7.85,4.19,14.88,4.25,19.87.91,20.57-15.76,45.27-35.28,53.7-40.23,8.44-4.95,19.53-5.64,34.01-9.23s24.38-11.65,33.38-16.69c7.32-4.1,13-7.45,20.82-12.09h0c-10.41,4.9-35.43,19.28-44.42,21.67-8.99,2.38-28.75,1.19-39.71,7.38Z"/>
                <g>
                    <polygon class="cls-11" points="160.46 230.2 160.46 230.2 160.46 230.2 160.46 230.2"/>
                    <path class="cls-11"
                          d="M163.85,209.87c-10.48,11.05-9.69,18.75-3.58,20.28-5.56-1.81-1.75-12.39,7.83-20.89,10.57-9.38,19.01-17.2,30.36-22.08.44-.19.87-.36,1.31-.53,0,0,0,0-.01,0-9.32,1.91-25.9,12.67-35.9,23.22Z"/>
                </g>
                <path class="cls-11"
                      d="M197.18,146.95c-15.11,2.81-29.69,7.92-43.09,15.43-7.96,4.6-15.42,10.09-23.07,15.23,7.01-6.09,14.23-11.95,22.19-16.8,13.38-7.79,28.5-12.87,43.98-13.87h0Z"/>
                <path class="cls-11"
                      d="M179.19,171.31c.45-.25.9-.48,1.34-.71h.01c-12.57,4.97-24.91,16.05-24.91,16.05,0,0,7.67-4.97,11.27-7.07,4.03-2.93,8.68-6.31,12.28-8.27Z"/>
                <path class="cls-11"
                      d="M149.02,153.34c-9.26,4.8-20.75,12.33-29.65,20.56,6.2-9.36,24.32-19.13,29.65-20.56Z"/>
            </g>
            <g>
                <path class="cls-12"
                      d="M91.61,299.35c-.37.27-.74.56-1.13.85-11.15,8.46-24.37,18.78-36.33,27.94-5.71,3.83-13.87,3.58-22.93-1.65-17.24-9.96-31.23-34.17-31.23-54.1,0-10.39,4.12-17.62,10.3-20.71h0s16.49-8.76,34.86-18.74c1.19-.65,2.33-1.28,3.42-1.9.35-.2.69-.39,1.03-.59,16.92,4.53,43.42,29.93,42,68.9Z"/>
                <path class="cls-10"
                      d="M69.75,295.64c-.72-5.7-2.49-11.42-4.74-16.69-4.3-10.08-11.02-19.32-19.33-26.47-4.59-3.95-9.54-7.24-15.02-9.82-.64-.3-.78,1.19-.3,1.46,8.67,4.98,16.55,11.38,22.75,19.26,6.61,8.41,11.2,18.4,13.43,28.85.72,3.38,1.42,6.74,1.79,10.18.34,3.19.28,6.4.58,9.58.06.62.66.55.8.01.6-2.42.57-5.08.59-7.56.01-2.95-.18-5.9-.55-8.82Z"/>
                <g>
                    <path class="cls-12"
                          d="M84.73,291.86c.12,2.84-1.61,6.07-3.86,7.22-2.25,1.14-4.16-.23-4.28-3.07-.12-2.84,1.61-6.07,3.86-7.22,2.25-1.14,4.16.23,4.28,3.07Z"/>
                    <path class="cls-6"
                          d="M84.73,291.86c.12,2.84-1.61,6.07-3.86,7.22-2.25,1.14-4.16-.23-4.28-3.07-.12-2.84,1.61-6.07,3.86-7.22,2.25-1.14,4.16.23,4.28,3.07Z"/>
                </g>
            </g>
        </g>
    </g>
    <g id="Hand_1" data-name="Hand  1">
        <g id="Hand-6" data-name="Hand">
            <g id="Hand-7" data-name="Hand">
                <path class="cls-14"
                      d="M119.85,75.43c12.13,8.87,27.58,9.58,43.98,14.41,9.87,2.91,16.57,7.09,27.48,10.79,3.31,1.12,10.55,3.09,14.33,3.99,7.99,1.9,8.49,12.83-4.52,15.68-9.85,2.16-39.46-.07-54.35-12.26-14.89-12.19-26.92-32.61-26.92-32.61Z"/>
                <path class="cls-3"
                      d="M58.77,13.82s-.1-.11,0,0h0ZM58.77,13.82c.21.22-.2-.24,0,0h0ZM199.15,144.61c8.6,3.8,14.86,8.28,20.89,12.58,6.04,4.29,14.08,9.05,19.42,8.65,6.38-.48,9.81-4.8,3.22-11.16-6.59-6.35-14.46-13.7-25.31-22.28-8.09-6.4-25.34-19.25-38.88-26.34-7.89-4.13-29.12-12.11-49.96-24.54-19.97-11.91-63.54-60.69-69.77-67.71-5.72-5.95-15.42-6.88-26.01-.76C15.33,23.12,1.2,47.59,1.2,67.72c0,10.58,3.91,17.84,10.14,20.9,29.8,17.83,49.14,26.34,55.72,38.47,6.15,11.33,9.97,21.82,27.08,32.36,16.82,10.36,36.24,20.32,44.41,25.76,8.17,5.43,15.76,13.44,22.27,18.76,8.88,7.25,15.17,7.69,18.41,6.19,4.69-2.16.94-7.98-3.51-13.18-5.7-6.65-10.39-12.67-17.2-19.43-1.49-1.48-3.18-3.08-4.86-4.64-1.43-1.33,8.71,2.68,19.76,9.46,11.07,6.79,19.07,12.48,28.67,18.5,9.6,6.03,14.4,7.76,19.86,6.43,4.9-1.18,6.18-5.93,3.6-9.6,6.38,3.03,11.07,2.55,14.09-1.14,2.33-2.84,1.18-5.58-4.92-12.92-5.11-6.14-13.52-15.25-20.74-21.64-7.1-6.28-17.31-14.49-23.46-19.2-.68-1.13,1.54-1.32,8.62,1.81Z"/>
                <path class="cls-14"
                      d="M180.69,135.91c1.77,1.19,3.43,2.33,5.05,3.38.78.5,2.49,1.75,4.76,3.48-.62-1.1,1.63-1.25,8.65,1.84,3.08,1.36,5.83,2.8,8.4,4.3-.01,0,0-.02-.02-.03-7.11-5.79-19.4-10.98-26.84-12.97ZM179.95,186.47c-12.77-10.79-30.46-19.37-32.2-18.92,1.72,1.54,3.79,3.39,5.85,5.29-1-1.12,8.98,2.87,19.82,9.53,2.3,1.41,4.46,2.77,6.53,4.1ZM198.42,170.66c-10.22-7.66-21.01-14.71-32.69-19.96,14.95,10.82,31.93,22.09,45.96,33.92,4.78,4.13,9.22,8.69,13.87,13.08-7.49-10.38-16.75-19.56-27.13-27.04Z"/>
            </g>
            <g>
                <path class="cls-12"
                      d="M118.96,74.59c-1.21-.98-2.46-2.02-3.73-3.12h-.01c-.67-1.95-1.83-4.07-3.75-6.18-2.04-2.11-4.59-3.47-7.48-4.07-4.9-1.02-10.77.17-16.69,3.59-16.32,9.43-29.74,31.89-30.77,51.04-.05.79-.07,1.58-.07,2.36,0,9.54,3.4,16.67,9.31,19.57,2.39,1.23,5.1,1.55,7.78,1.29.56.94,1.15,1.87,1.77,2.81-1.14.18-2.3.29-3.46.29-2.53,0-5.07-.49-7.44-1.71-6.95-3.41-10.96-11.52-10.96-22.25,0-1.46.07-2.93.22-4.43,1.85-19.63,15.55-42,32.12-51.56,5.04-2.92,10.09-4.36,14.7-4.36,5.13,0,9.72,1.8,13.16,5.38,3.68,4.03,4.97,8.11,5.3,11.35Z"/>
                <path class="cls-7"
                      d="M118.96,74.59c-1.21-.98-2.46-2.02-3.73-3.12h-.01c-.67-1.95-1.83-4.07-3.75-6.18-2.04-2.11-4.59-3.47-7.48-4.07-4.9-1.02-10.77.17-16.69,3.59-16.32,9.43-29.74,31.89-30.77,51.04-.05.79-.07,1.58-.07,2.36,0,9.54,3.4,16.67,9.31,19.57,2.39,1.23,5.1,1.55,7.78,1.29.56.94,1.15,1.87,1.77,2.81-1.14.18-2.3.29-3.46.29-2.53,0-5.07-.49-7.44-1.71-6.95-3.41-10.96-11.52-10.96-22.25,0-1.46.07-2.93.22-4.43,1.85-19.63,15.55-42,32.12-51.56,5.04-2.92,10.09-4.36,14.7-4.36,5.13,0,9.72,1.8,13.16,5.38,3.68,4.03,4.97,8.11,5.3,11.35Z"/>
            </g>
        </g>
    </g>
</svg>