<?xml version="1.0" encoding="UTF-8"?><svg id="uuid-a2cbb805-6d1d-492c-96e0-88a6f7850c6a" xmlns="http://www.w3.org/2000/svg" viewBox="0 0 506.91 466.93"><defs><style>.uuid-bd26bb9a-26d0-42b1-ad5f-130ccfb1e899{fill:#282d33;}.uuid-1195a3b0-4fa2-47e9-9285-25cb1f4fcb35{fill:#0e74bb;}.uuid-fe0ee15b-9490-4c95-9c54-dfabf56a3f9f{fill:#fff;}.uuid-49037c5a-19c8-487d-84d7-9df2da059abc{isolation:isolate;}.uuid-ed05e63e-6a8d-436a-a49b-25343aa10d81{fill:#080717;}.uuid-135f6b4a-a900-473e-930f-8aec37843d54{fill:#1d1d1b;}</style></defs><circle class="uuid-1195a3b0-4fa2-47e9-9285-25cb1f4fcb35" cx="413.56" cy="297.99" r="29.36"/><path class="uuid-fe0ee15b-9490-4c95-9c54-dfabf56a3f9f" d="M136.04,142.97c-8.54-23.6-27.2-39.62-50.13-35-17.59,3.55-31.79,18.37-38.34,36.34-2.84,7.79,3.9,15.71,12.04,14.07l76.43-15.41Z"/><path d="M57.45,160.33c-3.54,0-6.88-1.52-9.27-4.29-2.96-3.44-3.79-8.04-2.23-12.32,7.15-19.61,22.33-33.96,39.62-37.44,22.09-4.46,42.55,9.72,52.09,36.11.17.47.13,1-.12,1.44-.25.44-.67.75-1.17.85l-76.43,15.41c-.84.17-1.68.25-2.5.25ZM93.51,108.94c-2.39,0-4.81.24-7.26.73-16.11,3.25-30.31,16.75-37.05,35.23-1.12,3.08-.52,6.39,1.61,8.87,2.11,2.46,5.28,3.54,8.46,2.9l74.43-15c-8.06-20.58-23.23-32.74-40.19-32.74Z"/><path class="uuid-fe0ee15b-9490-4c95-9c54-dfabf56a3f9f" d="M277.29,105.73c-.87-25.15,6.92-45.32,30.97-50.88,25.33-5.85,50.36,9.16,59.3,32.68l-90.27,18.2Z"/><path d="M277.29,107.46c-.39,0-.77-.13-1.07-.37-.4-.31-.64-.79-.66-1.3-1.03-29.73,9.84-47.44,32.31-52.63,25.4-5.86,51.76,8.64,61.31,33.76.18.48.14,1.01-.1,1.45-.25.44-.68.76-1.18.86l-90.27,18.19c-.11.02-.23.03-.34.03ZM319.26,55.33c-3.52,0-7.08.39-10.61,1.21-20.11,4.64-30.09,20.48-29.68,47.09l86.21-17.37c-8.06-18.91-26.45-30.92-45.91-30.92Z"/><circle class="uuid-ed05e63e-6a8d-436a-a49b-25343aa10d81" cx="158.97" cy="22.78" r="22.77" transform="translate(26.46 113.5) rotate(-42.55)"/><path class="uuid-ed05e63e-6a8d-436a-a49b-25343aa10d81" d="M193.41,108.94l-18.78,12.2c-21.59,14.02-50.72,7.84-64.75-13.75l-4.83-7.44c-17.56-27.03-9.81-63.51,17.22-81.07l6.89,6.11c16.94-11.01,39.81-6.15,50.82,10.79l21.83,33.61c8.57,13.19,4.79,30.99-8.4,39.56Z"/><path class="uuid-fe0ee15b-9490-4c95-9c54-dfabf56a3f9f" d="M137.1,93.47l1.21-1.2c-14.43-11.75-17.67-32.78-6.94-48.39,11.29-16.43,33.76-20.59,50.19-9.3l44.62,30.67c15.84,10.89,20.23,32.14,10.41,48.38l-52.17,10.52-14.26-9.8-6.23,6.18c-7.47,7.41-19.53,7.36-26.94-.11-7.41-7.47-7.36-19.53.11-26.94Z"/><path d="M150.51,127.78h-.09c-5.55-.02-10.76-2.21-14.67-6.15-3.91-3.94-6.05-9.17-6.02-14.72.02-5.49,2.16-10.65,6.02-14.54-13.88-12.55-16.52-33.89-5.82-49.46,11.81-17.19,35.41-21.56,52.6-9.75l44.61,30.67c16.47,11.32,21.26,33.59,10.91,50.7-.25.41-.66.71-1.14.8l-52.17,10.51c-.46.09-.94,0-1.32-.27l-13.08-8.99-5.21,5.17c-3.92,3.89-9.11,6.02-14.63,6.02ZM138.31,94.7c-3.29,3.26-5.1,7.6-5.12,12.22-.02,4.62,1.76,8.98,5.02,12.26,3.26,3.29,7.6,5.1,12.22,5.12h.08c4.6,0,8.92-1.78,12.19-5.02l6.23-6.18c.59-.59,1.52-.67,2.2-.2l13.66,9.39,50.69-10.22c8.9-15.45,4.46-35.27-10.3-45.41l-44.61-30.67c-15.62-10.73-37.05-6.76-47.78,8.85-10.05,14.62-7.15,34.86,6.61,46.06.38.31.61.77.64,1.26.02.49-.16.97-.51,1.31l-1.21,1.2Z"/><path d="M215.87,87.24c-.09,0-.17,0-.26-.02-.95-.14-1.59-1.03-1.45-1.97.45-2.92-.65-5.78-2.94-7.65l-15.49-12.63c-.74-.61-.85-1.7-.25-2.44.61-.74,1.69-.85,2.44-.25l15.49,12.63c3.2,2.61,4.8,6.77,4.17,10.85-.13.86-.87,1.47-1.71,1.47Z"/><path d="M216.4,67.2c-.8,0-1.52-.56-1.69-1.37-.2-.93.39-1.84,1.32-2.05.65-.15,6.16-1.73,4.65-10.93-.15-.94.49-1.83,1.43-1.99.94-.15,1.83.49,1.99,1.43,2.08,12.72-7.24,14.86-7.33,14.88-.12.03-.24.04-.36.04Z"/><path d="M184.09,97.8c-2.06,0-3.48-.61-3.51-.63-.87-.39-1.26-1.42-.87-2.29.39-.87,1.4-1.25,2.28-.88.61.26,5.99,2.24,10.21-6.08.43-.85,1.48-1.2,2.33-.76.85.43,1.19,1.47.76,2.33-3.5,6.91-8.08,8.3-11.19,8.3Z"/><path d="M212.69,106.92c-1.43,0-2.37-.29-2.4-.3-.91-.29-1.41-1.27-1.12-2.18.29-.91,1.26-1.41,2.16-1.12.64.19,6.2,1.56,9.48-7.16.33-.9,1.34-1.35,2.23-1.01.89.34,1.35,1.33,1.01,2.23-3.08,8.22-8.31,9.54-11.36,9.54Z"/><path class="uuid-ed05e63e-6a8d-436a-a49b-25343aa10d81" d="M134.36,72.92l26.69,21.27c.84.67,1.31,1.7,1.27,2.77h0c-.08,2.1-2.03,3.62-4.08,3.18l-23.95-4.27.07-22.95Z"/><path class="uuid-ed05e63e-6a8d-436a-a49b-25343aa10d81" d="M111.34,59.35c-1.39,12.94,1.46,26.4,9.06,38.09l3.63,5.59c2.33-.6,4.6-1.56,6.72-2.94,10.55-6.85,13.54-20.96,6.69-31.5-5.74-8.83-16.55-12.34-26.1-9.24Z"/><path class="uuid-ed05e63e-6a8d-436a-a49b-25343aa10d81" d="M141.75,27.79c6.66,10.25,3.75,23.97-6.51,30.63-10.25,6.66-23.97,3.75-30.63-6.51s-3.75-23.97,6.51-30.63,23.97-3.75,30.63,6.51Z"/><path class="uuid-ed05e63e-6a8d-436a-a49b-25343aa10d81" d="M153.41,15.58c6.85,10.55,3.86,24.65-6.69,31.5-10.55,6.85-24.65,3.86-31.5-6.69-6.85-10.55-3.86-24.65,6.69-31.5,10.55-6.85,24.65-3.86,31.5,6.69Z"/><path class="uuid-1195a3b0-4fa2-47e9-9285-25cb1f4fcb35" d="M63.23,430.45c-7.15,0-13.54-5.06-14.97-12.33L.29,172.6c-1.61-8.25,3.79-16.28,12.04-17.9l357.12-69.79c4-.78,8.06.04,11.44,2.31,3.38,2.28,5.67,5.73,6.45,9.73l47.99,245.53c1.61,8.25-3.79,16.28-12.05,17.9l-.33-1.7.33,1.7-357.12,69.79c-.98.19-1.96.28-2.93.28ZM372.4,88.09c-.76,0-1.52.07-2.29.22L12.99,158.1c-3.09.61-5.76,2.38-7.52,4.99-1.76,2.61-2.39,5.75-1.79,8.84l47.98,245.53c1.25,6.38,7.45,10.56,13.83,9.31l357.12-69.79c6.38-1.25,10.56-7.45,9.31-13.83l-47.99-245.53c-.6-3.09-2.38-5.76-4.99-7.52-1.97-1.32-4.24-2.01-6.56-2.01Z"/><path class="uuid-1195a3b0-4fa2-47e9-9285-25cb1f4fcb35" d="M369.78,86.61L12.66,156.4c-7.33,1.43-12.11,8.54-10.68,15.86l1.93,9.89,383.66-74.98-1.93-9.89c-1.43-7.33-8.54-12.11-15.86-10.68Z"/><path class="uuid-fe0ee15b-9490-4c95-9c54-dfabf56a3f9f" d="M21.83,166.34c.53,2.74-1.25,5.39-3.99,5.93-2.74.54-5.39-1.25-5.93-3.99-.53-2.74,1.25-5.39,3.99-5.93,2.74-.53,5.39,1.25,5.93,3.99Z"/><path class="uuid-fe0ee15b-9490-4c95-9c54-dfabf56a3f9f" d="M35.48,163.68c.54,2.74-1.25,5.39-3.99,5.93-2.74.54-5.39-1.25-5.93-3.99-.53-2.74,1.25-5.39,3.99-5.93,2.74-.54,5.39,1.25,5.93,3.99Z"/><path class="uuid-fe0ee15b-9490-4c95-9c54-dfabf56a3f9f" d="M49.12,161.01c.54,2.74-1.25,5.39-3.99,5.93-2.74.53-5.39-1.25-5.93-3.99-.54-2.74,1.25-5.39,3.99-5.93,2.74-.54,5.39,1.25,5.93,3.99Z"/><path class="uuid-ed05e63e-6a8d-436a-a49b-25343aa10d81" d="M313.41,341.36l-3.25-1.21s.23-.62.72-1.7l3.15,1.42c-.41.92-.62,1.45-.63,1.48Z"/><path class="uuid-ed05e63e-6a8d-436a-a49b-25343aa10d81" d="M315.46,336.99l-3.06-1.62c.48-.9,1.03-1.9,1.68-2.99l2.97,1.78c-.61,1.02-1.14,1.97-1.59,2.82ZM318.78,331.42l-2.88-1.92c.6-.9,1.25-1.84,1.96-2.79l2.78,2.06c-.67.91-1.29,1.8-1.87,2.66ZM322.64,326.21l-2.67-2.2c.7-.86,1.45-1.72,2.23-2.59l2.56,2.33c-.75.82-1.45,1.65-2.12,2.46ZM327,321.42l-2.43-2.46c.79-.79,1.63-1.57,2.5-2.34l2.3,2.59c-.82.73-1.61,1.47-2.36,2.21ZM331.84,317.13l-2.15-2.72c.88-.7,1.79-1.38,2.74-2.05l2,2.83c-.89.63-1.76,1.28-2.59,1.94ZM337.11,313.41l-1.83-2.94c.96-.59,1.94-1.17,2.96-1.72l1.65,3.04c-.96.52-1.89,1.06-2.79,1.62ZM342.78,310.33l-1.47-3.13c1.02-.48,2.07-.93,3.15-1.36l1.28,3.22c-1.01.4-2,.83-2.96,1.28ZM348.77,307.96l-1.08-3.29c1.07-.35,2.16-.68,3.28-.98l.89,3.34c-1.06.28-2.09.59-3.09.92ZM355,306.3l-.7-3.39c1.1-.23,2.22-.43,3.37-.6l.51,3.43c-1.08.16-2.14.35-3.18.56ZM361.39,305.34l-.33-3.45c1.11-.11,2.25-.19,3.4-.24l.16,3.46c-1.1.05-2.17.13-3.23.22ZM371.11,305.14c-1.1-.06-2.18-.08-3.24-.09v-3.46c1.13,0,2.27.03,3.42.09l-.18,3.46Z"/><path class="uuid-ed05e63e-6a8d-436a-a49b-25343aa10d81" d="M376.09,305.55c-.57-.06-1.13-.12-1.68-.17l.32-3.45c.58.05,1.17.12,1.76.18l-.39,3.44Z"/><path class="uuid-135f6b4a-a900-473e-930f-8aec37843d54" d="M35.43,252.09l3.01.58c.71.14,1.57-.26,1.91-.88l.82-1.25c.43-.57.46-1.51.06-2.1l-1.73-2.54c-.4-.59-.24-1.4.34-1.8l3.93-2.67c.59-.39,1.4-.24,1.8.35l1.72,2.55c.4.59,1.28.91,1.98.72l1.47-.31c.71-.09,1.39-.74,1.53-1.44l.58-3.01c.13-.7.82-1.17,1.52-1.03l4.67.9c.7.13,1.15.82,1.02,1.52l-.58,3.01c-.13.7.27,1.56.89,1.9l1.25.83c.57.44,1.51.46,2.1.06l2.55-1.73c.59-.39,1.4-.24,1.79.34l2.67,3.94c.4.58.24,1.39-.34,1.8l-2.54,1.72c-.59.4-.92,1.29-.72,1.97l.3,1.47c.09.71.74,1.39,1.44,1.53l3.02.58c.7.13,1.16.82,1.03,1.52l-.89,4.66c-.13.7-.82,1.16-1.51,1.03l-3.02-.58c-.7-.13-1.56.26-1.91.88l-.82,1.26c-.43.56-.46,1.51-.06,2.1l1.72,2.54c.4.59.24,1.4-.34,1.8l-3.94,2.67c-.59.4-1.4.24-1.8-.34l-1.73-2.55c-.39-.59-1.28-.91-1.97-.72l-1.47.3c-.71.1-1.4.74-1.53,1.45l-.58,3.02c-.13.7-.81,1.17-1.51,1.03l-4.67-.9c-.7-.13-1.17-.82-1.03-1.52l.58-3.02c.13-.7-.26-1.56-.88-1.91l-1.25-.82c-.57-.43-1.51-.46-2.1-.06l-2.54,1.73c-.59.4-1.4.24-1.8-.35l-2.66-3.93c-.4-.59-.24-1.4.35-1.8l2.54-1.72c.59-.4.91-1.3.72-1.98l-.3-1.47c-.09-.7-.75-1.39-1.45-1.53l-3.01-.58c-.7-.13-1.16-.82-1.03-1.52l.89-4.66c.13-.7.82-1.16,1.52-1.03ZM51.79,265.34c3.4.65,6.68-1.57,7.33-4.97.65-3.4-1.57-6.68-4.97-7.33-3.39-.65-6.67,1.57-7.32,4.97-.65,3.39,1.58,6.68,4.97,7.33Z"/><path class="uuid-ed05e63e-6a8d-436a-a49b-25343aa10d81" d="M121.49,315.58s-.04-.6-.18-1.59l3.43-.47c.16,1.17.2,1.83.2,1.83l-3.46.23Z"/><path class="uuid-ed05e63e-6a8d-436a-a49b-25343aa10d81" d="M120.73,310.62c-.21-1-.47-2.13-.8-3.35l3.34-.9c.35,1.29.62,2.49.84,3.55l-3.39.7ZM118.95,303.96c-.34-1.04-.73-2.13-1.17-3.24l3.22-1.27c.47,1.18.88,2.32,1.24,3.43l-3.29,1.09ZM116.43,297.56c-.47-1.01-.98-2.04-1.54-3.07l3.05-1.65c.59,1.1,1.14,2.19,1.64,3.26l-3.14,1.46ZM113.16,291.52c-.62-.99-1.26-1.94-1.91-2.84l2.8-2.03c.7.96,1.38,1.98,2.04,3.03l-2.94,1.84ZM109.14,285.97c-.73-.87-1.49-1.73-2.28-2.55l2.5-2.4c.84.88,1.66,1.8,2.44,2.73l-2.66,2.22ZM104.41,281.04c-.84-.75-1.72-1.49-2.62-2.19l2.12-2.74c.97.75,1.91,1.54,2.81,2.35l-2.32,2.57ZM99.02,276.86c-.94-.63-1.92-1.23-2.91-1.79l1.7-3.01c1.06.6,2.11,1.24,3.12,1.92l-1.92,2.88ZM93.07,273.5c-1.02-.49-2.07-.95-3.13-1.37l1.28-3.22c1.13.45,2.26.94,3.35,1.46l-1.49,3.12ZM86.71,270.96c-1.07-.35-2.17-.67-3.3-.97l.88-3.35c1.2.31,2.36.66,3.49,1.02l-1.08,3.29Z"/><path class="uuid-ed05e63e-6a8d-436a-a49b-25343aa10d81" d="M80.02,269.2c-.55-.11-1.1-.21-1.66-.31l.6-3.41c.59.1,1.17.21,1.74.33l-.69,3.4Z"/><path class="uuid-ed05e63e-6a8d-436a-a49b-25343aa10d81" d="M301.6,331.4l-3.4-.68s.12-.61.4-1.75l3.36.83c-.25,1.02-.37,1.59-.37,1.61Z"/><path class="uuid-ed05e63e-6a8d-436a-a49b-25343aa10d81" d="M302.82,326.56l-3.33-.94c.28-.98.6-2.09.98-3.32l3.31,1.03c-.37,1.19-.69,2.27-.96,3.23ZM304.82,320.12l-3.28-1.1c.35-1.03.73-2.12,1.14-3.26l3.26,1.18c-.4,1.11-.77,2.18-1.11,3.19ZM307.12,313.78l-3.23-1.25c.4-1.04.83-2.1,1.28-3.2l3.2,1.32c-.44,1.07-.86,2.12-1.25,3.13ZM309.68,307.54l-3.18-1.38c.45-1.03.92-2.08,1.41-3.14l3.15,1.45c-.48,1.04-.94,2.07-1.38,3.08ZM312.51,301.42l-3.11-1.52c.49-1.01,1-2.04,1.54-3.08l3.08,1.58c-.52,1.02-1.02,2.03-1.51,3.02ZM315.59,295.41l-3.05-1.65c.54-1,1.1-2,1.67-3.01l3.01,1.71c-.56.99-1.11,1.97-1.63,2.95ZM318.92,289.56l-2.97-1.78c.58-.97,1.18-1.95,1.8-2.94l2.93,1.84c-.6.96-1.19,1.92-1.76,2.87ZM322.5,283.85l-2.89-1.91c.63-.95,1.27-1.9,1.93-2.86l2.85,1.97c-.65.93-1.27,1.86-1.89,2.79ZM326.34,278.31l-2.8-2.03c.67-.92,1.36-1.85,2.06-2.77l2.75,2.1c-.69.9-1.36,1.8-2.01,2.7ZM330.41,272.96l-2.7-2.17c.71-.89,1.44-1.78,2.19-2.66l2.65,2.23c-.73.87-1.44,1.73-2.14,2.6ZM334.75,267.81l-2.6-2.29c.76-.86,1.53-1.71,2.31-2.56l2.54,2.36c-.77.82-1.52,1.66-2.25,2.49ZM339.32,262.88l-2.48-2.42c.8-.81,1.61-1.63,2.44-2.44l2.42,2.48c-.81.79-1.6,1.58-2.38,2.38ZM344.14,258.2l-2.35-2.54c.84-.78,1.69-1.55,2.56-2.31l2.29,2.6c-.85.74-1.68,1.49-2.5,2.25ZM349.19,253.76l-2.21-2.66c.88-.73,1.77-1.46,2.68-2.17l2.14,2.72c-.88.7-1.76,1.4-2.61,2.12ZM354.46,249.61l-2.07-2.78c.92-.68,1.85-1.36,2.79-2.03l2,2.83c-.92.65-1.83,1.31-2.72,1.97ZM359.95,245.74l-1.92-2.88c.95-.63,1.92-1.26,2.9-1.87l1.84,2.93c-.95.6-1.89,1.21-2.82,1.82ZM365.64,242.17l-1.76-2.98c.98-.58,1.98-1.15,3-1.71l1.68,3.03c-.99.54-1.95,1.1-2.91,1.67ZM371.51,238.92l-1.59-3.07c1.01-.53,2.04-1.04,3.08-1.55l1.52,3.11c-1.01.5-2.02,1-3,1.51ZM377.55,235.99l-1.43-3.16c1.04-.47,2.09-.93,3.16-1.38l1.35,3.19c-1.04.44-2.07.89-3.08,1.35ZM383.74,233.37l-1.26-3.22c1.06-.42,2.14-.82,3.23-1.22l1.18,3.26c-1.06.38-2.11.78-3.14,1.18ZM390.05,231.08l-1.1-3.28c1.08-.36,2.18-.71,3.28-1.05l1.01,3.31c-1.08.33-2.15.67-3.2,1.02ZM396.48,229.12l-.93-3.33c1.1-.31,2.21-.6,3.33-.89l.85,3.36c-1.1.28-2.18.56-3.25.86ZM403,227.47l-.77-3.37c1.11-.25,2.24-.5,3.37-.73l.69,3.4c-1.11.22-2.2.46-3.29.71ZM409.59,226.14l-.61-3.41c1.12-.2,2.25-.39,3.39-.57l.54,3.42c-1.12.17-2.22.36-3.32.56ZM416.23,225.1l-.46-3.43c1.13-.15,2.26-.29,3.41-.42l.39,3.44c-1.12.13-2.24.26-3.34.41ZM422.93,224.35l-.31-3.45c1.13-.1,2.27-.19,3.43-.28l.25,3.45c-1.13.08-2.25.17-3.36.27Z"/><path class="uuid-ed05e63e-6a8d-436a-a49b-25343aa10d81" d="M429.67,223.87l-.18-3.46c.58-.03,1.17-.06,1.76-.08l.14,3.46c-.57.02-1.15.05-1.72.08Z"/><polygon class="uuid-bd26bb9a-26d0-42b1-ad5f-130ccfb1e899" points="142.82 248.98 108.93 248.98 108.93 184.69 173.21 184.69 173.21 217.72 169.75 217.72 169.75 188.16 112.39 188.16 112.39 245.51 142.82 245.51 142.82 248.98"/><polygon class="uuid-bd26bb9a-26d0-42b1-ad5f-130ccfb1e899" points="173.21 248.98 154.11 248.98 154.11 245.51 169.75 245.51 169.75 229.87 173.21 229.87 173.21 248.98"/><path class="uuid-bd26bb9a-26d0-42b1-ad5f-130ccfb1e899" d="M141.07,231.6c-8.14,0-14.76-6.62-14.76-14.77s6.62-14.76,14.76-14.76,14.76,6.62,14.76,14.76-6.62,14.77-14.76,14.77ZM141.07,205.53c-6.23,0-11.3,5.07-11.3,11.3s5.07,11.3,11.3,11.3,11.3-5.07,11.3-11.3-5.07-11.3-11.3-11.3Z"/><rect class="uuid-bd26bb9a-26d0-42b1-ad5f-130ccfb1e899" x="154.1" y="215.1" width="96.46" height="3.46"/><polygon class="uuid-bd26bb9a-26d0-42b1-ad5f-130ccfb1e899" points="173.21 388 108.93 388 108.93 323.71 141.07 323.71 141.07 327.18 112.39 327.18 112.39 384.54 169.75 384.54 169.75 327.18 154.1 327.18 154.1 323.71 173.21 323.71 173.21 388"/><path class="uuid-bd26bb9a-26d0-42b1-ad5f-130ccfb1e899" d="M141.07,370.62c-8.14,0-14.76-6.62-14.76-14.76s6.62-14.77,14.76-14.77,14.76,6.62,14.76,14.77-6.62,14.76-14.76,14.76ZM141.07,344.55c-6.23,0-11.3,5.07-11.3,11.3s5.07,11.3,11.3,11.3,11.3-5.07,11.3-11.3-5.07-11.3-11.3-11.3Z"/><rect class="uuid-bd26bb9a-26d0-42b1-ad5f-130ccfb1e899" x="139.34" y="246.37" width="3.46" height="96.46"/><polygon class="uuid-bd26bb9a-26d0-42b1-ad5f-130ccfb1e899" points="251.41 342.82 247.95 342.82 247.95 323.71 267.06 323.71 267.06 327.18 251.41 327.18 251.41 342.82"/><rect class="uuid-bd26bb9a-26d0-42b1-ad5f-130ccfb1e899" x="170.6" y="354.13" width="79.08" height="3.46"/><polygon class="uuid-bd26bb9a-26d0-42b1-ad5f-130ccfb1e899" points="312.23 248.98 280.09 248.98 280.09 245.51 308.77 245.51 308.77 188.16 251.41 188.16 251.41 245.51 267.06 245.51 267.06 248.98 247.95 248.98 247.95 184.69 312.23 184.69 312.23 248.98"/><path class="uuid-bd26bb9a-26d0-42b1-ad5f-130ccfb1e899" d="M280.09,231.6c-8.14,0-14.77-6.62-14.77-14.77s6.62-14.76,14.77-14.76,14.76,6.62,14.76,14.76-6.62,14.77-14.76,14.77ZM280.09,205.53c-6.23,0-11.3,5.07-11.3,11.3s5.07,11.3,11.3,11.3,11.3-5.07,11.3-11.3-5.07-11.3-11.3-11.3Z"/><rect class="uuid-bd26bb9a-26d0-42b1-ad5f-130ccfb1e899" x="278.36" y="229.87" width="3.46" height="95.57"/><path class="uuid-1195a3b0-4fa2-47e9-9285-25cb1f4fcb35" d="M180.92,279.04c0-16.57,13.43-30,30-30s30,13.43,30,30c0,11.77-6.8,21.93-16.67,26.84v6.49h-26.66v-6.49c-9.87-4.91-16.66-15.07-16.66-26.84Z"/><rect x="194.25" y="315.45" width="33.33" height="3.46"/><rect x="194.25" y="322.36" width="33.33" height="3.46"/><rect x="199.41" y="329.27" width="23" height="3.46"/><rect x="209.18" y="282.38" width="3.46" height="26.66"/><rect x="204.25" y="280.65" width="13.33" height="3.46"/><path class="uuid-fe0ee15b-9490-4c95-9c54-dfabf56a3f9f" d="M235.27,279.04h-3.46c0-11.52-9.38-20.9-20.9-20.9v-3.46c13.43,0,24.36,10.93,24.36,24.36Z"/><polygon class="uuid-ed05e63e-6a8d-436a-a49b-25343aa10d81" points="403.36 377.5 343.91 369.29 284.46 361.09 312.77 414.01 341.08 466.93 353.94 424.97 389.31 449.6 403.83 428.75 368.46 404.12 403.36 377.5"/><g class="uuid-49037c5a-19c8-487d-84d7-9df2da059abc"><path d="M478.81,233.05c-.35,0-.69-.11-.99-.31l-28.28-19.62c-.56-.39-.84-1.08-.71-1.75.13-.67.64-1.21,1.31-1.36l26.37-6.05c.48-.11.98-.01,1.37.27l28.28,19.62c.56.39.84,1.08.71,1.75-.13.67-.64,1.21-1.31,1.36l-26.37,6.05c-.13.03-.26.04-.39.04ZM454.73,212.51l24.43,16.95,21.81-5.01-24.43-16.95-21.81,5.01Z"/><path d="M468.26,265.18c-.48,0-.95-.2-1.28-.56-.42-.46-.56-1.11-.37-1.71l10.55-32.12c.19-.57.67-1.01,1.26-1.15l26.37-6.05c.61-.15,1.24.06,1.67.52.42.46.56,1.11.37,1.71l-10.55,32.12c-.19.58-.67,1.01-1.26,1.15l-26.37,6.05c-.13.03-.26.04-.39.04ZM480.15,232.79l-9.29,28.28,22.43-5.15,9.29-28.28-22.43,5.15ZM494.63,257.39h.02-.02Z"/><path d="M468.26,265.18c-.35,0-.69-.1-.99-.31l-28.28-19.62c-.63-.44-.9-1.23-.66-1.96l10.55-32.12c.17-.52.58-.93,1.1-1.1.52-.18,1.09-.09,1.54.22l28.28,19.62c.63.44.9,1.23.66,1.96l-10.55,32.12c-.17.52-.58.93-1.1,1.1-.18.06-.37.09-.55.09ZM442.03,243.14l25.31,17.56,9.42-28.69-25.31-17.56-9.42,28.69Z"/></g><rect class="uuid-bd26bb9a-26d0-42b1-ad5f-130ccfb1e899" x="280.97" y="333.04" width="6.16" height="3.46" transform="translate(-112.84 522.49) rotate(-75)"/><rect class="uuid-bd26bb9a-26d0-42b1-ad5f-130ccfb1e899" x="280.97" y="333.04" width="6.16" height="3.46" transform="translate(-112.84 522.49) rotate(-75)"/><rect class="uuid-bd26bb9a-26d0-42b1-ad5f-130ccfb1e899" x="263.59" y="336.71" width="3.46" height="6.17" transform="translate(-162.58 287.3) rotate(-45.02)"/><rect class="uuid-bd26bb9a-26d0-42b1-ad5f-130ccfb1e899" x="257.23" y="356.79" width="6.17" height="3.46" transform="translate(-83.92 79.59) rotate(-15)"/><rect class="uuid-bd26bb9a-26d0-42b1-ad5f-130ccfb1e899" x="270.94" y="370.49" width="6.17" height="3.46" transform="translate(-156.28 540.98) rotate(-75.05)"/><rect class="uuid-bd26bb9a-26d0-42b1-ad5f-130ccfb1e899" x="291.01" y="364.12" width="3.46" height="6.17" transform="translate(-173.94 314.82) rotate(-45.03)"/><rect class="uuid-bd26bb9a-26d0-42b1-ad5f-130ccfb1e899" x="294.67" y="346.75" width="6.17" height="3.46" transform="translate(-80.3 89.31) rotate(-15.06)"/><path class="uuid-fe0ee15b-9490-4c95-9c54-dfabf56a3f9f" d="M291.12,67.6c-2.63-3.21-7.24-4.24-11.04-2.23-26.23,13.87-26.94,37.37-26.96,38.36-.09,4.92,3.82,8.98,8.73,9.07,4.88.1,8.91-3.75,9.05-8.61.04-.8.99-14.35,17.52-23.08,4.34-2.29,5.99-7.68,3.69-12.02-.28-.53-.61-1.03-.98-1.48Z"/><path d="M262.03,114.54c-.07,0-.14,0-.21,0-5.86-.11-10.54-4.98-10.43-10.83.02-1.03.74-25.51,27.88-39.86,4.45-2.36,10-1.24,13.19,2.67.44.54.84,1.13,1.17,1.76,1.33,2.52,1.61,5.4.77,8.12-.84,2.71-2.67,4.93-5.18,6.25-15.71,8.31-16.57,21.1-16.6,21.64-.17,5.68-4.9,10.26-10.6,10.26ZM284.22,66.08c-1.13,0-2.28.27-3.33.82-25.35,13.4-26.02,35.91-26.04,36.86-.07,3.96,3.09,7.23,7.04,7.31.05,0,.09,0,.14,0,3.84,0,7.03-3.08,7.14-6.94.08-1.6,1.31-15.5,18.44-24.56,1.69-.89,2.92-2.39,3.48-4.21.56-1.83.38-3.78-.52-5.47-.23-.43-.49-.83-.79-1.19h0c-1.39-1.71-3.46-2.62-5.56-2.62Z"/><path class="uuid-fe0ee15b-9490-4c95-9c54-dfabf56a3f9f" d="M295.62,59.92c-23.05,18.68-19.21,41.89-19.04,42.86.86,4.84,5.48,8.07,10.32,7.22,4.8-.85,8.01-5.4,7.21-10.2-.11-.78-1.8-14.27,12.72-26.04l-11.22-13.84Z"/><path d="M285.35,111.87c-5.06,0-9.56-3.63-10.47-8.78-.18-1.02-4.18-25.2,19.65-44.51.75-.6,1.83-.48,2.44.26.6.74.49,1.83-.26,2.44-22.26,18.04-18.59,40.28-18.42,41.21.69,3.89,4.43,6.5,8.31,5.82,3.84-.68,6.44-4.36,5.8-8.22-.09-.65-1.99-15.25,13.34-27.67.75-.6,1.83-.49,2.44.26.6.74.49,1.83-.26,2.44-13.82,11.2-12.18,23.91-12.1,24.45.95,5.68-2.92,11.15-8.62,12.15-.62.11-1.24.16-1.85.16Z"/><path class="uuid-fe0ee15b-9490-4c95-9c54-dfabf56a3f9f" d="M308.95,60.04c-19.67,18.22-16.19,39.38-16.03,40.31.86,4.86,5.49,8.09,10.35,7.23,4.82-.86,8.04-5.43,7.25-10.24-.11-.79-1.79-14.31,12.8-26.14l-14.37-11.16Z"/><path d="M301.72,109.45c-5.07,0-9.58-3.64-10.49-8.8-.17-.93-3.81-23.02,16.55-41.89.7-.65,1.8-.61,2.45.09.65.7.61,1.8-.09,2.45-18.99,17.59-15.65,37.89-15.5,38.74.69,3.9,4.43,6.52,8.34,5.83,3.86-.69,6.48-4.39,5.84-8.26-.09-.66-1.97-15.29,13.42-27.77.75-.6,1.83-.48,2.44.26.6.74.49,1.83-.26,2.44-13.88,11.25-12.25,24.01-12.18,24.55.94,5.69-2.94,11.18-8.66,12.19-.63.11-1.25.16-1.86.16Z"/><path class="uuid-fe0ee15b-9490-4c95-9c54-dfabf56a3f9f" d="M324.72,66.59c-13.46,12.22-13.15,27.06-13.07,28.71.24,4.92,4.42,8.72,9.34,8.49,4.88-.24,8.66-4.36,8.49-9.23,0-.53.06-8.23,7.23-14.75l-12-13.22Z"/><path d="M320.55,105.53c-2.65,0-5.17-.97-7.15-2.77-2.11-1.91-3.34-4.53-3.48-7.38-.08-1.73-.43-17.31,13.63-30.07.71-.64,1.8-.59,2.44.12.64.71.59,1.8-.12,2.44-12.88,11.7-12.58,25.77-12.5,27.34.09,1.92.93,3.69,2.35,4.98s3.28,1.96,5.18,1.86c3.91-.19,6.98-3.53,6.84-7.44,0-.96.16-9.16,7.8-16.09.71-.64,1.8-.59,2.44.12.64.71.59,1.8-.12,2.44-6.64,6.03-6.67,13.16-6.67,13.46.2,5.75-4.35,10.69-10.14,10.97-.18,0-.35.01-.53.01Z"/><path class="uuid-fe0ee15b-9490-4c95-9c54-dfabf56a3f9f" d="M107.64,113.36c1.18-3.98-11.17-5.15-6.89-5.63,39.06-4.35,55.52,23.31,55.92,24.21,1.98,4.5-.05,9.76-4.54,11.75-4.46,1.98-9.66,0-11.68-4.44-.35-.72-6.47-12.84-25.09-14.49-4.89-.43-8.5-4.76-8.06-9.66.05-.6.17-1.19.33-1.75Z"/><path d="M148.56,146.18c-4.04,0-7.91-2.31-9.68-6.21-.22-.45-5.96-11.92-23.67-13.49-2.82-.25-5.38-1.58-7.2-3.76-1.82-2.18-2.69-4.94-2.43-7.78.06-.71.2-1.41.4-2.08h0s0-.04,0-.04c-.09-.4-1.02-1.16-4.91-2.43-1.74-.57-3.11-1.02-2.95-2.59.16-1.55,1.81-1.73,2.43-1.8,41.07-4.56,57.57,24.93,57.7,25.24,2.37,5.36-.07,11.66-5.42,14.03-1.39.62-2.84.91-4.27.91ZM109.3,113.85c-.14.46-.23.93-.27,1.41-.17,1.91.41,3.78,1.64,5.25,1.22,1.46,2.95,2.36,4.84,2.53,19.65,1.74,26.23,14.9,26.5,15.46,1.63,3.59,5.85,5.19,9.42,3.61,3.61-1.6,5.25-5.85,3.66-9.47-.11-.22-14.2-24.62-48.29-23.61,1.82,1.09,3.16,2.62,2.51,4.82h0Z"/><path class="uuid-fe0ee15b-9490-4c95-9c54-dfabf56a3f9f" d="M100.52,108.02c28.48,8.29,33.94,31.17,34.15,32.14,1.08,4.79-1.93,9.56-6.72,10.65-4.75,1.08-9.48-1.88-10.6-6.61-.2-.76-3.86-13.85-21.82-19.08l4.98-17.1Z"/><path d="M126.01,152.76c-4.81,0-9.18-3.31-10.34-8.17-.13-.49-3.52-12.84-20.62-17.82-.92-.27-1.45-1.23-1.18-2.15.27-.92,1.23-1.45,2.15-1.18,18.96,5.52,22.85,19.7,23.01,20.3.91,3.83,4.73,6.23,8.54,5.36,3.86-.88,6.28-4.73,5.41-8.58-.21-.93-5.44-22.85-32.95-30.86-.92-.27-1.45-1.23-1.18-2.15.27-.92,1.22-1.45,2.15-1.18,29.45,8.57,35.13,32.41,35.36,33.42,1.29,5.71-2.31,11.42-8.02,12.72-.78.18-1.56.26-2.33.26Z"/><path class="uuid-fe0ee15b-9490-4c95-9c54-dfabf56a3f9f" d="M88.27,113.29c25.19,9.18,30.18,30.03,30.39,30.96,1.09,4.81-1.93,9.59-6.74,10.67-4.77,1.08-9.52-1.89-10.65-6.64-.2-.77-3.89-13.89-21.92-19.14l8.92-15.85Z"/><path d="M109.97,156.87c-4.82,0-9.22-3.31-10.38-8.19-.13-.49-3.56-12.88-20.73-17.88-.92-.27-1.45-1.23-1.18-2.15.27-.92,1.22-1.45,2.15-1.18,19.03,5.54,22.96,19.76,23.12,20.36.92,3.85,4.76,6.26,8.59,5.39,3.87-.87,6.3-4.73,5.43-8.6-.19-.85-4.97-20.85-29.3-29.71-.9-.33-1.36-1.32-1.03-2.22.33-.9,1.32-1.36,2.22-1.03,26.08,9.5,31.28,31.28,31.49,32.2,1.29,5.73-2.32,11.45-8.05,12.74-.78.18-1.56.26-2.33.26Z"/><path class="uuid-fe0ee15b-9490-4c95-9c54-dfabf56a3f9f" d="M76.28,125.44c17.14,6.05,22.6,19.85,23.17,21.4,1.69,4.63-.69,9.76-5.33,11.44-4.59,1.67-9.67-.66-11.4-5.22-.2-.49-3.24-7.57-12.38-10.8l5.94-16.83Z"/><path d="M91.09,160.55c-4.31,0-8.39-2.63-10-6.87-.1-.23-2.87-6.79-11.34-9.77-.9-.32-1.37-1.31-1.06-2.21.32-.9,1.31-1.37,2.21-1.06,9.75,3.44,13.06,10.93,13.41,11.77,1.41,3.7,5.53,5.59,9.21,4.25,1.81-.66,3.25-1.98,4.06-3.72.81-1.74.89-3.7.24-5.5-.54-1.48-5.71-14.57-22.12-20.36-.9-.32-1.37-1.31-1.06-2.21.32-.9,1.31-1.37,2.21-1.06,17.91,6.33,23.63,20.81,24.22,22.45.98,2.67.85,5.57-.35,8.15-1.2,2.58-3.34,4.54-6.01,5.52-1.19.43-2.41.64-3.62.64Z"/><polygon class="uuid-bd26bb9a-26d0-42b1-ad5f-130ccfb1e899" points="408.38 309.07 397.37 298.06 399.82 295.61 408.38 304.18 428.46 284.1 430.91 286.55 408.38 309.07"/></svg>