<?xml version="1.0" encoding="utf-8"?>
<!-- Generator: Adobe Illustrator 27.5.0, SVG Export Plug-In . SVG Version: 6.00 Build 0)  -->
<svg version="1.1" id="Ñëîé_1" xmlns="http://www.w3.org/2000/svg" xmlns:xlink="http://www.w3.org/1999/xlink" x="0px" y="0px"
	 viewBox="0 0 600 450" style="enable-background:new 0 0 600 450;" xml:space="preserve">
<radialGradient id="SVGID_1_" cx="380.0082" cy="175.0036" r="535.7635" fx="849.8658" fy="-82.4384" gradientUnits="userSpaceOnUse">
	<stop  offset="0" style="stop-color:#2B237C"/>
	<stop  offset="1" style="stop-color:#180D5B"/>
</radialGradient>
<rect style="fill:url(#SVGID_1_);" width="600" height="450"/>
<radialGradient id="SVGID_00000181085711016329422250000007674775316732517554_" cx="330.8444" cy="270.3227" r="203.8802" gradientTransform="matrix(0.866 0.5 -0.866 0.5 253.9065 -17.7974)" gradientUnits="userSpaceOnUse">
	<stop  offset="0" style="stop-color:#42E8E0"/>
	<stop  offset="0.1205" style="stop-color:#39BDC0"/>
	<stop  offset="0.2841" style="stop-color:#2F899A"/>
	<stop  offset="0.4453" style="stop-color:#265F7B"/>
	<stop  offset="0.6004" style="stop-color:#1F3D62"/>
	<stop  offset="0.7478" style="stop-color:#1A2550"/>
	<stop  offset="0.8845" style="stop-color:#171746"/>
	<stop  offset="1" style="stop-color:#161242"/>
</radialGradient>
<ellipse style="opacity:0.5;fill:url(#SVGID_00000181085711016329422250000007674775316732517554_);" cx="306.318" cy="282.786" rx="249.698" ry="144.163"/>
<g>
	<g>
		<g>
			<g>
				<path style="fill:#180D5B;" d="M369.206,205.031l106.077,61.075c1.595,0.918,1.397,2.526-0.442,3.591L249.649,400.07
					c-1.839,1.065-4.623,1.184-6.219,0.265L137.354,339.26c-1.595-0.918-1.397-2.526,0.442-3.591l225.192-130.373
					C364.827,204.231,367.611,204.113,369.206,205.031z"/>
				
					<linearGradient id="SVGID_00000119117270141848759470000002333828125932621455_" gradientUnits="userSpaceOnUse" x1="-2560.9817" y1="2799.9243" x2="-2151.0537" y2="2614.1262" gradientTransform="matrix(0.501 0.8654 0.8654 -0.501 -871.8076 3515.1538)">
					<stop  offset="0" style="stop-color:#5761D7"/>
					<stop  offset="0.1779" style="stop-color:#5C66D9"/>
					<stop  offset="0.3876" style="stop-color:#6A73DF"/>
					<stop  offset="0.6134" style="stop-color:#8289E8"/>
					<stop  offset="0.849" style="stop-color:#A3A7F5"/>
					<stop  offset="1" style="stop-color:#BCBEFF"/>
				</linearGradient>
				<path style="fill:url(#SVGID_00000119117270141848759470000002333828125932621455_);" d="M136.276,310.548l0.034,7.437
					l0.019-0.01c0.025,0.562,0.359,1.096,1.056,1.497l106.077,61.075c1.595,0.919,4.379,0.8,6.218-0.265L474.873,249.91
					c1.014-0.587,1.509-1.337,1.5-2.048l0.018,0.01l-0.033-7.429l-11.738,6.483l-95.382-54.917c-1.595-0.918-4.379-0.8-6.219,0.265
					l-215.63,124.837c0.552-0.606,0.951-1.055,0.953-1.087C148.349,315.915,136.276,310.548,136.276,310.548z"/>
				
					<linearGradient id="SVGID_00000114785364161794091710000000085589466844523705_" gradientUnits="userSpaceOnUse" x1="2927.2373" y1="2555.313" x2="2927.2373" y2="2535.9502" gradientTransform="matrix(-0.501 -0.8654 0.8654 -0.501 -490.6457 4173.1196)">
					<stop  offset="0" style="stop-color:#C0BFF6"/>
					<stop  offset="0.2938" style="stop-color:#C5C4F7"/>
					<stop  offset="0.6399" style="stop-color:#D3D2F9"/>
					<stop  offset="1" style="stop-color:#E9E9FD"/>
				</linearGradient>
				<path style="fill:url(#SVGID_00000114785364161794091710000000085589466844523705_);" d="M248.875,380.663l-0.044-30.219
					l-4.841-2.787l0.048,33.153C245.416,381.328,247.327,381.267,248.875,380.663z"/>
				
					<linearGradient id="SVGID_00000180341869146447981440000016438469444294795455_" gradientUnits="userSpaceOnUse" x1="3449.0637" y1="4103.8345" x2="3449.0637" y2="3871.8079" gradientTransform="matrix(-0.8666 -0.499 0.9993 -0.5785 -689.7527 4303.5864)">
					<stop  offset="0" style="stop-color:#C0BFF6"/>
					<stop  offset="0.2938" style="stop-color:#C5C4F7"/>
					<stop  offset="0.6399" style="stop-color:#D3D2F9"/>
					<stop  offset="1" style="stop-color:#E9E9FD"/>
				</linearGradient>
				<path style="fill:url(#SVGID_00000180341869146447981440000016438469444294795455_);" d="M369.206,177.897l106.077,61.075
					c1.595,0.918,1.397,2.526-0.442,3.591L249.649,372.936c-1.839,1.065-4.623,1.184-6.219,0.265l-106.077-61.075
					c-1.595-0.918-1.397-2.526,0.442-3.591l225.192-130.373C364.827,177.098,367.611,176.979,369.206,177.897z"/>
				<path style="fill:#FFFFFF;" d="M243.431,373.201l-106.077-61.075c-0.949-0.546-1.249-1.336-0.96-2.111
					c0.12,0.447,0.45,0.863,1.019,1.19l106.077,61.075c1.595,0.918,4.379,0.8,6.219-0.265l225.192-130.372
					c0.745-0.432,1.206-0.952,1.403-1.48c0.217,0.807-0.277,1.715-1.461,2.401L249.649,372.936
					C247.81,374.001,245.026,374.12,243.431,373.201z"/>
				<polygon style="fill:#24126A;" points="351.565,184.775 463.419,249.176 261.071,366.323 149.218,301.922 				"/>
				<polygon style="fill:#24126A;" points="351.565,184.775 463.419,249.176 261.071,366.323 149.218,301.922 				"/>
				
					<radialGradient id="SVGID_00000170249457936703262830000011890854295352408500_" cx="303.4528" cy="6901.1772" r="150.8704" gradientTransform="matrix(1 0 0 0.5545 0 -3548.5503)" gradientUnits="userSpaceOnUse">
					<stop  offset="0" style="stop-color:#42E8E0"/>
					<stop  offset="0.1205" style="stop-color:#39BDC0"/>
					<stop  offset="0.2841" style="stop-color:#2F899A"/>
					<stop  offset="0.4453" style="stop-color:#265F7B"/>
					<stop  offset="0.6004" style="stop-color:#1F3D62"/>
					<stop  offset="0.7478" style="stop-color:#1A2550"/>
					<stop  offset="0.8845" style="stop-color:#171746"/>
					<stop  offset="1" style="stop-color:#161242"/>
				</radialGradient>
				<polygon style="opacity:0.5;fill:url(#SVGID_00000170249457936703262830000011890854295352408500_);" points="351.565,184.775 
					463.419,249.176 261.071,366.323 149.218,301.922 				"/>
				<path style="fill:#5761D7;" d="M191.078,332.205l20.269,11.63c0.591,0.34,0.93,0.724,0.559,1.19
					c-0.125,0.157-0.303,0.307-0.532,0.44l0,0c-0.911,0.527-2.289,0.586-3.078,0.131l-20.448-11.773
					c-0.062-0.035-0.153-0.05-0.169-0.112c-0.167-0.647-0.113-0.802,0.727-1.288l0.281-0.058
					C189.598,331.838,190.288,331.75,191.078,332.205z"/>
				<path style="fill:#BCBEFF;" d="M187.684,333.704c0.125-0.156,0.302-0.305,0.53-0.438c0.911-0.527,2.289-0.586,3.078-0.131
					l20.447,11.773c0.064,0.037,0.112,0.079,0.164,0.119c0.373-0.467,0.28-0.999-0.311-1.34l-20.448-11.773
					c-0.79-0.455-2.168-0.396-3.078,0.131C187.23,332.53,187.089,333.239,187.684,333.704z"/>
			</g>
		</g>
	</g>
	<g style="opacity:0.11;">
		<defs>
			<polygon id="SVGID_00000101104053878744865690000017218916392285875114_" style="opacity:0.11;" points="351.565,184.775 
				463.419,249.176 261.071,366.323 149.218,301.922 			"/>
		</defs>
		<clipPath id="SVGID_00000031927836557261524520000012556538468013477780_">
			<use xlink:href="#SVGID_00000101104053878744865690000017218916392285875114_"  style="overflow:visible;"/>
		</clipPath>
	</g>
</g>
<g>
	<g>
		<g>
			<path style="opacity:0.2;fill:#42E8E0;" d="M217.638,294.298l-7.335-4.235c-1.163-0.672-1.163-1.76,0-2.432l0,0
				c1.163-0.672,3.049-0.672,4.212,0l7.335,4.235c1.163,0.672,1.163,1.76,0,2.432l0,0
				C220.687,294.97,218.801,294.97,217.638,294.298z"/>
			<path style="opacity:0.6;fill:#42E8E0;" d="M232.816,303.061l-7.335-4.235c-1.163-0.672-1.163-1.76,0-2.432l0,0
				c1.163-0.672,3.049-0.672,4.212,0l7.335,4.235c1.163,0.672,1.163,1.76,0,2.432l0,0
				C235.865,303.733,233.979,303.733,232.816,303.061z"/>
			<path style="fill:#42E8E0;" d="M247.994,311.824l-7.335-4.235c-1.163-0.672-1.163-1.76,0-2.432l0,0
				c1.163-0.672,3.049-0.672,4.212,0l7.335,4.235c1.163,0.672,1.163,1.76,0,2.432l0,0
				C251.043,312.496,249.157,312.496,247.994,311.824z"/>
			<path style="opacity:0.6;fill:#42E8E0;" d="M263.172,320.587l-7.335-4.235c-1.163-0.672-1.163-1.76,0-2.432l0,0
				c1.163-0.672,3.049-0.672,4.212,0l7.335,4.235c1.163,0.672,1.163,1.76,0,2.432l0,0
				C266.221,321.259,264.336,321.259,263.172,320.587z"/>
			<path style="opacity:0.2;fill:#42E8E0;" d="M278.351,329.351l-7.335-4.235c-1.163-0.672-1.163-1.76,0-2.432l0,0
				c1.163-0.672,3.049-0.672,4.212,0l7.335,4.235c1.163,0.672,1.163,1.76,0,2.432l0,0
				C281.4,330.022,279.514,330.022,278.351,329.351z"/>
		</g>
	</g>
</g>
<g>
	<g>
		<ellipse style="opacity:0.2;fill:#42E8E0;" cx="303.143" cy="275.39" rx="61.836" ry="35.701"/>
		<ellipse style="fill:#42E8E0;" cx="303.143" cy="275.39" rx="35.08" ry="20.254"/>
	</g>
	<g style="opacity:0.3;">
		<path style="fill:#42E8E0;" d="M382.64,149.074c0.769,4.346,3.993,15.27,17.294,22.827c18.934,8.743,32.049,20.237,36.443,33.07
			c0.31,0.842,0.74,1.962,1.142,2.764c0.472-0.777,0.472-0.777,0.474-2.659V183.53c-0.009-12.651-0.718-15.44-1.617-18.971
			c-4.394-12.833-17.509-24.327-36.443-33.07C384.828,126.613,381.172,140.775,382.64,149.074L382.64,149.074z"/>
		<path style="fill:#42E8E0;" d="M243.797,123.222c20.046-5.815,43.76-9.089,69.07-8.882c3.34,0.027,6.648,0.115,9.918,0.26
			c22.225,2.03,30.129,25.501,16.73,35.77c-6.15,4.713-13.564,4.664-16.73,4.642c-3.271-0.145-6.578-0.233-9.918-0.26
			c-25.31-0.207-49.025,3.066-69.07,8.882c-20.24,4.931-21.436-15.639-14.358-28.221
			C231.82,131.183,236.243,125.633,243.797,123.222L243.797,123.222z"/>
		<path style="fill:#42E8E0;" d="M183.298,214.551c0.552-6.406,0.988-11.465,7.509-20.295c13.748-20.287,10.972-43.865,3.377-42.776
			c-1.224,0.175-2.497,1.495-3.377,2.363c-4.616,6.015-7.239,12.482-7.49,19.231c-0.013,0.355-0.02,0.71-0.02,1.064V214.551
			L183.298,214.551z"/>
	</g>
	<g>
		
			<rect x="351.444" y="218.94" transform="matrix(0.927 -0.3752 0.3752 0.927 -63.8567 150.1982)" style="fill:#42E8E0;" width="4.722" height="40.308"/>
		<g>
			<g>
				<g>
					
						<radialGradient id="SVGID_00000021818119291721875970000004673028591789677210_" cx="-92.2543" cy="-177.4797" r="84.6875" gradientTransform="matrix(0.981 0.1942 -0.1942 0.981 391.4709 347.2711)" gradientUnits="userSpaceOnUse">
						<stop  offset="0" style="stop-color:#C0BFF6"/>
						<stop  offset="1" style="stop-color:#393091"/>
					</radialGradient>
					
						<circle style="fill:url(#SVGID_00000021818119291721875970000004673028591789677210_);" cx="265.263" cy="202.121" r="14.671"/>
				</g>
			</g>
			<g>
				<g>
					
						<radialGradient id="SVGID_00000026163743574890761020000002452880487545987517_" cx="909.5923" cy="320.3133" r="83.6647" gradientTransform="matrix(0.7781 0 0 1.0592 -382.2604 -123.1801)" gradientUnits="userSpaceOnUse">
						<stop  offset="0" style="stop-color:#C0BFF6"/>
						<stop  offset="1" style="stop-color:#393091"/>
					</radialGradient>
					<path style="fill:url(#SVGID_00000026163743574890761020000002452880487545987517_);" d="M341.023,223.823
						c0,28.48-16.96,51.567-37.88,51.567c-20.921,0-37.88-23.087-37.88-51.567c0-28.48,16.96-37.014,37.88-37.014
						C324.064,186.809,341.023,195.344,341.023,223.823z"/>
				</g>
			</g>
			<g>
				<g>
					
						<linearGradient id="SVGID_00000021831866951990399900000001791885713713356727_" gradientUnits="userSpaceOnUse" x1="880.868" y1="376.2938" x2="880.868" y2="292.6638" gradientTransform="matrix(0.7781 0 0 1.0592 -382.2604 -123.1801)">
						<stop  offset="0" style="stop-color:#42E8E0"/>
						<stop  offset="0.0047" style="stop-color:#42E6DF"/>
						<stop  offset="0.1358" style="stop-color:#40B6CB"/>
						<stop  offset="0.2707" style="stop-color:#3E8DB9"/>
						<stop  offset="0.4074" style="stop-color:#3C6BAA"/>
						<stop  offset="0.5467" style="stop-color:#3B519F"/>
						<stop  offset="0.6893" style="stop-color:#3A3F97"/>
						<stop  offset="0.8375" style="stop-color:#393493"/>
						<stop  offset="1" style="stop-color:#393091"/>
					</linearGradient>
					<path style="fill:url(#SVGID_00000021831866951990399900000001791885713713356727_);" d="M341.023,223.823
						c0,28.48-16.96,51.567-37.88,51.567c-20.921,0-37.88-23.087-37.88-51.567c0-28.48,16.96-37.014,37.88-37.014
						C324.064,186.809,341.023,195.344,341.023,223.823z"/>
				</g>
			</g>
			<ellipse style="fill:#393091;" cx="303.143" cy="202.121" rx="25.853" ry="14.926"/>
			<path style="fill:#453C9E;" d="M284.862,195.543c10.096-5.829,26.465-5.829,36.561,0c4.17,2.408,6.613,5.434,7.338,8.566
				c1.031-4.452-1.412-9.121-7.338-12.543c-10.096-5.829-26.465-5.829-36.561,0c-5.926,3.421-8.368,8.09-7.338,12.542
				C278.25,200.976,280.692,197.95,284.862,195.543z"/>
			
				<radialGradient id="SVGID_00000134228276998952969690000011060341542110389406_" cx="265.0023" cy="106.5253" r="45.8436" gradientUnits="userSpaceOnUse">
				<stop  offset="0" style="stop-color:#C0BFF6"/>
				<stop  offset="1" style="stop-color:#393091"/>
			</radialGradient>
			<path style="fill:url(#SVGID_00000134228276998952969690000011060341542110389406_);" d="M273.301,166.652l4.677-8.058
				c2.751-2.854,4.95-6.643,6.067-10.453l4.736-8.161l-6.812-3.911c-0.218-0.148-0.446-0.28-0.684-0.393l-0.004-0.002l0,0
				c-1.937-0.917-4.511-0.672-7.337,0.96c-6.022,3.477-10.904,11.932-10.904,18.886c0,3.475,1.219,5.917,3.19,7.057v0l0.003,0.002
				c0,0,0,0,0.001,0L273.301,166.652z"/>
			
				<ellipse transform="matrix(0.5 -0.866 0.866 0.5 7.7416 319.9463)" style="fill:#BCBEFF;" cx="280.961" cy="153.268" rx="15.421" ry="8.903"/>
			<g>
				<g>
					
						<radialGradient id="SVGID_00000118386707237778647370000006967481309876540074_" cx="328.7561" cy="160.7714" r="65.2991" gradientUnits="userSpaceOnUse">
						<stop  offset="0" style="stop-color:#C0BFF6"/>
						<stop  offset="1" style="stop-color:#393091"/>
					</radialGradient>
					
						<circle style="fill:url(#SVGID_00000118386707237778647370000006967481309876540074_);" cx="304.645" cy="166.495" r="38.634"/>
				</g>
			</g>
			<g>
				<g>
					
						<linearGradient id="SVGID_00000066483988306312704950000002865066711326366098_" gradientUnits="userSpaceOnUse" x1="299.2679" y1="204.758" x2="310.023" y2="128.2319">
						<stop  offset="0" style="stop-color:#42E8E0"/>
						<stop  offset="0.0047" style="stop-color:#42E6DF"/>
						<stop  offset="0.1358" style="stop-color:#40B6CB"/>
						<stop  offset="0.2707" style="stop-color:#3E8DB9"/>
						<stop  offset="0.4074" style="stop-color:#3C6BAA"/>
						<stop  offset="0.5467" style="stop-color:#3B519F"/>
						<stop  offset="0.6893" style="stop-color:#3A3F97"/>
						<stop  offset="0.8375" style="stop-color:#393493"/>
						<stop  offset="1" style="stop-color:#393091"/>
					</linearGradient>
					
						<circle style="fill:url(#SVGID_00000066483988306312704950000002865066711326366098_);" cx="304.645" cy="166.495" r="38.634"/>
				</g>
			</g>
			
				<radialGradient id="SVGID_00000171681085050450282730000014661431833557563010_" cx="328.2334" cy="160.0767" r="31.011" gradientUnits="userSpaceOnUse">
				<stop  offset="0" style="stop-color:#C0BFF6"/>
				<stop  offset="1" style="stop-color:#393091"/>
			</radialGradient>
			<path style="fill:url(#SVGID_00000171681085050450282730000014661431833557563010_);" d="M326.266,192.623l4.677-8.058
				c2.751-2.854,4.95-6.644,6.066-10.453l4.736-8.161l-6.812-3.911c-0.218-0.148-0.446-0.28-0.684-0.393l-0.004-0.002v0
				c-1.937-0.917-4.511-0.672-7.336,0.96c-6.022,3.477-10.904,11.933-10.904,18.886c0,3.475,1.219,5.917,3.191,7.057l0,0
				l0.003,0.002l0,0L326.266,192.623z"/>
			
				<linearGradient id="SVGID_00000168808835793973457600000007410641857580988317_" gradientUnits="userSpaceOnUse" x1="321.9897" y1="191.0665" x2="332.8869" y2="161.1268">
				<stop  offset="0" style="stop-color:#42E8E0"/>
				<stop  offset="0.0047" style="stop-color:#42E6DF"/>
				<stop  offset="0.1358" style="stop-color:#40B6CB"/>
				<stop  offset="0.2707" style="stop-color:#3E8DB9"/>
				<stop  offset="0.4074" style="stop-color:#3C6BAA"/>
				<stop  offset="0.5467" style="stop-color:#3B519F"/>
				<stop  offset="0.6893" style="stop-color:#3A3F97"/>
				<stop  offset="0.8375" style="stop-color:#393493"/>
				<stop  offset="1" style="stop-color:#393091"/>
			</linearGradient>
			<path style="fill:url(#SVGID_00000168808835793973457600000007410641857580988317_);" d="M326.266,192.623l4.677-8.058
				c2.751-2.854,4.95-6.644,6.066-10.453l4.736-8.161l-6.812-3.911c-0.218-0.148-0.446-0.28-0.684-0.393l-0.004-0.002v0
				c-1.937-0.917-4.511-0.672-7.336,0.96c-6.022,3.477-10.904,11.933-10.904,18.886c0,3.475,1.219,5.917,3.191,7.057l0,0
				l0.003,0.002l0,0L326.266,192.623z"/>
			
				<linearGradient id="SVGID_00000140701864451556298720000001743199477138737068_" gradientUnits="userSpaceOnUse" x1="303.143" y1="311.0915" x2="303.143" y2="42.4964">
				<stop  offset="0" style="stop-color:#42E8E0"/>
				<stop  offset="0.1205" style="stop-color:#39BDC0"/>
				<stop  offset="0.2841" style="stop-color:#2F899A"/>
				<stop  offset="0.4453" style="stop-color:#265F7B"/>
				<stop  offset="0.6004" style="stop-color:#1F3D62"/>
				<stop  offset="0.7478" style="stop-color:#1A2550"/>
				<stop  offset="0.8845" style="stop-color:#171746"/>
				<stop  offset="1" style="stop-color:#161242"/>
			</linearGradient>
			<path style="opacity:0.5;fill:url(#SVGID_00000140701864451556298720000001743199477138737068_);" d="M241.307,42.496V275.39l0,0
				c0,9.137,6.038,18.273,18.112,25.244c24.149,13.942,63.302,13.943,87.45,0.001c12.004-6.931,18.035-16.002,18.104-25.086h0.007
				V42.496H241.307z"/>
			
				<ellipse transform="matrix(0.5 -0.866 0.866 0.5 11.7316 378.799)" style="fill:#BCBEFF;" cx="333.925" cy="179.239" rx="15.421" ry="8.903"/>
			<path style="fill:#FFFFFF;" d="M323.522,185.624c0-6.954,4.882-15.409,10.904-18.886c2.087-1.205,4.036-1.652,5.693-1.435
				c-1.759-0.389-3.893,0.017-6.194,1.346c-6.022,3.477-10.904,11.933-10.904,18.886c0,4.544,2.086,7.321,5.211,7.73
				C325.387,192.636,323.522,189.921,323.522,185.624z"/>
			<path style="fill:#393091;" d="M341.719,174.739c0,4.97-3.49,11.014-7.794,13.5c-4.305,2.485-7.794,0.471-7.794-4.5
				s3.49-11.015,7.794-13.5C338.23,167.754,341.719,169.769,341.719,174.739z"/>
			<path style="fill:#453C9E;" d="M338.403,169.29c0.807,0.952,1.277,2.375,1.277,4.198c0,4.97-3.49,11.014-7.794,13.5
				c-1.667,0.962-3.211,1.247-4.478,0.95c1.393,1.643,3.791,1.876,6.517,0.302c4.305-2.485,7.794-8.529,7.794-13.5
				C341.719,171.694,340.408,169.761,338.403,169.29z"/>
			<g>
				<path style="fill:#393091;" d="M292.592,184.794c-0.987,7.598-6.721,9.984-12.807,5.33c-6.086-4.654-10.22-14.585-9.233-22.183
					c0.987-7.598,6.721-9.984,12.807-5.33C289.445,167.265,293.579,177.196,292.592,184.794z"/>
				<path style="fill:#42E8E0;" d="M287.566,178.216c-0.359,2.761-2.443,3.628-4.655,1.937c-2.212-1.691-3.714-5.301-3.356-8.062
					c0.359-2.761,2.443-3.628,4.655-1.937C286.422,171.845,287.925,175.455,287.566,178.216z"/>
				<path style="fill:#453C9E;" d="M282.707,189.017c-6.086-4.654-10.22-14.585-9.233-22.183c0.402-3.097,1.594-5.328,3.276-6.569
					c-3.182,0.299-5.591,2.998-6.199,7.676c-0.987,7.598,3.147,17.529,9.233,22.183c3.605,2.756,7.086,3.042,9.531,1.239
					C287.331,191.55,285.046,190.805,282.707,189.017z"/>
				<path style="fill:#42E8E0;" d="M280.309,189.877c-6.086-4.654-10.22-14.585-9.233-22.183c0.457-3.517,1.932-5.915,3.988-7.016
					c-2.328,0.958-4.017,3.454-4.512,7.263c-0.987,7.598,3.147,17.529,9.233,22.183c3.268,2.498,6.431,2.961,8.815,1.684
					C286.286,192.76,283.342,192.196,280.309,189.877z"/>
			</g>
			<g>
				<g>
					
						<radialGradient id="SVGID_00000136387655867209487870000007499177826379357569_" cx="-62.3305" cy="-126.7379" r="30.608" gradientTransform="matrix(0.981 0.1942 -0.1942 0.981 391.4709 347.2711)" gradientUnits="userSpaceOnUse">
						<stop  offset="0" style="stop-color:#C0BFF6"/>
						<stop  offset="1" style="stop-color:#393091"/>
					</radialGradient>
					<path style="fill:url(#SVGID_00000136387655867209487870000007499177826379357569_);" d="M360.636,223.261
						c-1.574,7.948-9.293,13.116-17.242,11.543c-7.948-1.574-13.116-9.293-11.543-17.242s9.293-13.116,17.242-11.542
						C357.042,207.594,362.21,215.313,360.636,223.261z"/>
				</g>
			</g>
			<g>
				<g>
					
						<linearGradient id="SVGID_00000130635587330454303650000006975993946832580239_" gradientUnits="userSpaceOnUse" x1="-78.9666" y1="-104.8929" x2="-59.0303" y2="-126.4217" gradientTransform="matrix(0.981 0.1942 -0.1942 0.981 391.4709 347.2711)">
						<stop  offset="0" style="stop-color:#42E8E0"/>
						<stop  offset="0.0047" style="stop-color:#42E6DF"/>
						<stop  offset="0.1358" style="stop-color:#40B6CB"/>
						<stop  offset="0.2707" style="stop-color:#3E8DB9"/>
						<stop  offset="0.4074" style="stop-color:#3C6BAA"/>
						<stop  offset="0.5467" style="stop-color:#3B519F"/>
						<stop  offset="0.6893" style="stop-color:#3A3F97"/>
						<stop  offset="0.8375" style="stop-color:#393493"/>
						<stop  offset="1" style="stop-color:#393091"/>
					</linearGradient>
					<path style="fill:url(#SVGID_00000130635587330454303650000006975993946832580239_);" d="M360.636,223.261
						c-1.574,7.948-9.293,13.116-17.242,11.543c-7.948-1.574-13.116-9.293-11.543-17.242s9.293-13.116,17.242-11.542
						C357.042,207.594,362.21,215.313,360.636,223.261z"/>
				</g>
			</g>
		</g>
		
			<radialGradient id="SVGID_00000140729900475266226900000011720848456466168728_" cx="234.7453" cy="-1666.1421" r="28.3563" fx="234.788" fy="-1664.2971" gradientTransform="matrix(0.9112 0.1087 -0.1791 1.501 -138.8484 2732.7969)" gradientUnits="userSpaceOnUse">
			<stop  offset="0" style="stop-color:#C0BFF6"/>
			<stop  offset="1" style="stop-color:#393091"/>
		</radialGradient>
		<path style="fill:url(#SVGID_00000140729900475266226900000011720848456466168728_);" d="M369.643,269.022
			c-0.832,6.972-6.989,20.176-12.562,19.511c-5.572-0.665-8.45-14.948-7.618-21.919c0.832-6.972,6.024-12.084,11.596-11.419
			C366.632,255.86,370.475,262.05,369.643,269.022z"/>
		
			<linearGradient id="SVGID_00000110435065480728857310000008474257581852557958_" gradientUnits="userSpaceOnUse" x1="209.4903" y1="343.9695" x2="231.6368" y2="343.9695" gradientTransform="matrix(0.9112 0.1087 -0.136 1.1399 204.8732 -144.2021)">
			<stop  offset="0" style="stop-color:#42E8E0"/>
			<stop  offset="0.0047" style="stop-color:#42E6DF"/>
			<stop  offset="0.1358" style="stop-color:#40B6CB"/>
			<stop  offset="0.2707" style="stop-color:#3E8DB9"/>
			<stop  offset="0.4074" style="stop-color:#3C6BAA"/>
			<stop  offset="0.5467" style="stop-color:#3B519F"/>
			<stop  offset="0.6893" style="stop-color:#3A3F97"/>
			<stop  offset="0.8375" style="stop-color:#393493"/>
			<stop  offset="1" style="stop-color:#393091"/>
		</linearGradient>
		<path style="fill:url(#SVGID_00000110435065480728857310000008474257581852557958_);" d="M369.643,269.022
			c-0.832,6.972-6.989,20.176-12.562,19.511c-5.572-0.665-8.45-14.948-7.618-21.919c0.832-6.972,6.024-12.084,11.596-11.419
			C366.632,255.86,370.475,262.05,369.643,269.022z"/>
		<path style="fill:#42E8E0;" d="M226.44,224.169c-0.85,0-1.672-0.461-2.094-1.267c-0.604-1.155-0.158-2.582,0.997-3.187
			l30.292-15.853c1.156-0.607,2.582-0.159,3.187,0.997c0.604,1.155,0.158,2.582-0.997,3.186l-30.292,15.853
			C227.183,224.082,226.809,224.169,226.44,224.169z"/>
		
			<radialGradient id="SVGID_00000054230564854583316230000003066150224181168517_" cx="-2697.823" cy="-2057.645" r="28.3563" fx="-2697.7803" fy="-2055.8" gradientTransform="matrix(0.4411 0.8047 -1.3256 0.7266 -1292.5217 3881.5452)" gradientUnits="userSpaceOnUse">
			<stop  offset="0" style="stop-color:#C0BFF6"/>
			<stop  offset="1" style="stop-color:#393091"/>
		</radialGradient>
		<path style="fill:url(#SVGID_00000054230564854583316230000003066150224181168517_);" d="M226.973,232.968
			c-6.157,3.375-20.481,6.039-23.178,1.117c-2.698-4.921,7.253-15.564,13.41-18.939c6.157-3.375,13.335-2.121,16.032,2.8
			C235.934,222.868,233.13,229.593,226.973,232.968z"/>
		
			<linearGradient id="SVGID_00000113321738918432182870000011065135246863490435_" gradientUnits="userSpaceOnUse" x1="-2694.5688" y1="-172.5461" x2="-2707.843" y2="-154.8181" gradientTransform="matrix(0.4411 0.8047 -1.0067 0.5518 1247.8903 2489.1328)">
			<stop  offset="0" style="stop-color:#42E8E0"/>
			<stop  offset="0.0047" style="stop-color:#42E6DF"/>
			<stop  offset="0.1358" style="stop-color:#40B6CB"/>
			<stop  offset="0.2707" style="stop-color:#3E8DB9"/>
			<stop  offset="0.4074" style="stop-color:#3C6BAA"/>
			<stop  offset="0.5467" style="stop-color:#3B519F"/>
			<stop  offset="0.6893" style="stop-color:#3A3F97"/>
			<stop  offset="0.8375" style="stop-color:#393493"/>
			<stop  offset="1" style="stop-color:#393091"/>
		</linearGradient>
		<path style="fill:url(#SVGID_00000113321738918432182870000011065135246863490435_);" d="M226.973,232.968
			c-6.157,3.375-20.481,6.039-23.178,1.117c-2.698-4.921,7.253-15.564,13.41-18.939c6.157-3.375,13.335-2.121,16.032,2.8
			C235.934,222.868,233.13,229.593,226.973,232.968z"/>
	</g>
	<g style="opacity:0.5;">
		<g>
			<path style="fill:#42E8E0;" d="M198.101,226.397c-0.923,7.418-4.769,11.833-8.814,6.306c-5.185-7.086-5.689-14.013-5.99-18.152
				v-40.413c0,6.322,2.098,12.423,5.99,18.152C197.835,206.43,198.849,220.382,198.101,226.397L198.101,226.397z"/>
			<path style="fill:#42E8E0;" d="M318.08,233.804c-3.19,0.086-6.41,0.117-9.657,0.09c-25.409-0.208-48.949-3.896-68.597-10.08
				c-19.625-5.243-20.811,15.293-13.962,27.976c4.877,9.031,11.477,11.505,13.962,12.436c19.647,6.183,43.188,9.871,68.597,10.08
				c3.247,0.027,6.467-0.004,9.657-0.09c23.059-1.699,29.099-23.847,18.322-34.184C333.393,237.148,327.773,233.726,318.08,233.804
				L318.08,233.804z"/>
			<path style="fill:#42E8E0;" d="M437.973,201.583c-0.112,17.476-1.138,20.657-2.436,24.685
				c-5.401,12.744-19.409,24.001-39.018,32.411c-17.167,5.065-21.908-12.773-14.926-25.999c4.75-8.998,12.143-12.933,14.926-14.414
				c19.608-8.409,33.616-19.667,39.018-32.411c0.396-0.846,0.955-1.967,1.484-2.737c0.132-0.017,0.307-0.04,0.439-0.057
				c0.332,0.934,0.47,1.321,0.513,6.091V201.583L437.973,201.583z"/>
		</g>
	</g>
</g>
<linearGradient id="SVGID_00000153669893250863472270000014882614925027604910_" gradientUnits="userSpaceOnUse" x1="453.2686" y1="188.2721" x2="453.2686" y2="113.5253">
	<stop  offset="0" style="stop-color:#161242"/>
	<stop  offset="0.1155" style="stop-color:#171746"/>
	<stop  offset="0.2522" style="stop-color:#1A2550"/>
	<stop  offset="0.3996" style="stop-color:#1F3D62"/>
	<stop  offset="0.5547" style="stop-color:#265F7B"/>
	<stop  offset="0.7159" style="stop-color:#2F899A"/>
	<stop  offset="0.8795" style="stop-color:#39BDC0"/>
	<stop  offset="1" style="stop-color:#42E8E0"/>
</linearGradient>
<path style="opacity:0.8;fill:url(#SVGID_00000153669893250863472270000014882614925027604910_);" d="M453.269,188.272
	L453.269,188.272c-1.14,0-2.065-0.924-2.065-2.065V115.59c0-1.14,0.924-2.065,2.065-2.065l0,0c1.14,0,2.065,0.924,2.065,2.065
	v70.618C455.333,187.348,454.409,188.272,453.269,188.272z"/>
<linearGradient id="SVGID_00000059300102561494750370000012611867148150365117_" gradientUnits="userSpaceOnUse" x1="374.7686" y1="139.1886" x2="374.7686" y2="64.4418">
	<stop  offset="0" style="stop-color:#161242"/>
	<stop  offset="0.1155" style="stop-color:#171746"/>
	<stop  offset="0.2522" style="stop-color:#1A2550"/>
	<stop  offset="0.3996" style="stop-color:#1F3D62"/>
	<stop  offset="0.5547" style="stop-color:#265F7B"/>
	<stop  offset="0.7159" style="stop-color:#2F899A"/>
	<stop  offset="0.8795" style="stop-color:#39BDC0"/>
	<stop  offset="1" style="stop-color:#42E8E0"/>
</linearGradient>
<path style="opacity:0.8;fill:url(#SVGID_00000059300102561494750370000012611867148150365117_);" d="M374.769,139.189
	L374.769,139.189c-1.14,0-2.065-0.924-2.065-2.065V66.507c0-1.14,0.924-2.065,2.065-2.065l0,0c1.14,0,2.065,0.924,2.065,2.065
	v70.617C376.833,138.264,375.909,139.189,374.769,139.189z"/>
<linearGradient id="SVGID_00000057115533573178129330000012387081806504097465_" gradientUnits="userSpaceOnUse" x1="213.602" y1="202.5329" x2="213.602" y2="127.786">
	<stop  offset="0" style="stop-color:#161242"/>
	<stop  offset="0.1155" style="stop-color:#171746"/>
	<stop  offset="0.2522" style="stop-color:#1A2550"/>
	<stop  offset="0.3996" style="stop-color:#1F3D62"/>
	<stop  offset="0.5547" style="stop-color:#265F7B"/>
	<stop  offset="0.7159" style="stop-color:#2F899A"/>
	<stop  offset="0.8795" style="stop-color:#39BDC0"/>
	<stop  offset="1" style="stop-color:#42E8E0"/>
</linearGradient>
<path style="opacity:0.8;fill:url(#SVGID_00000057115533573178129330000012387081806504097465_);" d="M213.602,202.533
	L213.602,202.533c-1.14,0-2.065-0.924-2.065-2.065v-70.618c0-1.14,0.924-2.065,2.065-2.065l0,0c1.14,0,2.065,0.924,2.065,2.065
	v70.618C215.667,201.609,214.742,202.533,213.602,202.533z"/>
<linearGradient id="SVGID_00000116210730404325466280000011675000738745731989_" gradientUnits="userSpaceOnUse" x1="149.2177" y1="253.6446" x2="149.2177" y2="84.9632">
	<stop  offset="0" style="stop-color:#161242"/>
	<stop  offset="0.1155" style="stop-color:#171746"/>
	<stop  offset="0.2522" style="stop-color:#1A2550"/>
	<stop  offset="0.3996" style="stop-color:#1F3D62"/>
	<stop  offset="0.5547" style="stop-color:#265F7B"/>
	<stop  offset="0.7159" style="stop-color:#2F899A"/>
	<stop  offset="0.8795" style="stop-color:#39BDC0"/>
	<stop  offset="1" style="stop-color:#42E8E0"/>
</linearGradient>
<path style="opacity:0.8;fill:url(#SVGID_00000116210730404325466280000011675000738745731989_);" d="M149.218,253.645
	L149.218,253.645c-1.165,0-2.109-0.944-2.109-2.109V87.073c0-1.165,0.944-2.109,2.109-2.109l0,0c1.165,0,2.109,0.944,2.109,2.109
	v164.463C151.327,252.7,150.383,253.645,149.218,253.645z"/>
<path style="fill:#42E8E0;" d="M242.25,88.5c0,1.703-1.381,3.083-3.083,3.083c-1.703,0-3.083-1.38-3.083-3.083
	s1.38-3.083,3.083-3.083C240.869,85.417,242.25,86.797,242.25,88.5z"/>
<path style="fill:#42E8E0;" d="M361.859,54.452c1.663,1.663,1.663,4.359,0,6.021c-1.663,1.663-4.359,1.663-6.021,0
	c-1.663-1.663-1.663-4.359,0-6.021C357.501,52.79,360.197,52.79,361.859,54.452z"/>
<path style="opacity:0.5;fill:#42E8E0;" d="M358.849,156.352c0,1.082-0.878,1.96-1.96,1.96c-1.082,0-1.96-0.878-1.96-1.96
	c0-1.083,0.878-1.96,1.96-1.96C357.971,154.392,358.849,155.269,358.849,156.352z"/>
<path style="opacity:0.5;fill:#42E8E0;" d="M215.562,255.137c0,1.082-0.878,1.96-1.96,1.96c-1.083,0-1.96-0.878-1.96-1.96
	c0-1.083,0.878-1.96,1.96-1.96C214.684,253.177,215.562,254.054,215.562,255.137z"/>
<circle style="opacity:0.8;fill:#42E8E0;" cx="253" cy="177.279" r="1.023"/>
</svg>
