<?xml version="1.0" encoding="utf-8"?>
<!-- Generator: Adobe Illustrator 27.5.0, SVG Export Plug-In . SVG Version: 6.00 Build 0)  -->
<svg version="1.1" id="Ñëîé_2" xmlns="http://www.w3.org/2000/svg" xmlns:xlink="http://www.w3.org/1999/xlink" x="0px" y="0px"
	 viewBox="0 0 2000 2000" style="enable-background:new 0 0 2000 2000;" xml:space="preserve">
<g>
	<defs>
		<rect id="SVGID_1_" width="2000" height="2000"/>
	</defs>
	<clipPath id="SVGID_00000003826218809443432640000015388723634496263061_">
		<use xlink:href="#SVGID_1_"  style="overflow:visible;"/>
	</clipPath>
	<path style="clip-path:url(#SVGID_00000003826218809443432640000015388723634496263061_);fill:#FCECD1;" d="M552.625,382.835
		C447.393,460.4,366.075,565.664,291.844,673.273c-26.829,38.893-53.18,78.775-69.282,123.195
		c-20.268,55.916-23.383,116.418-24.686,175.88c-2.882,131.486,2.903,266.888,55.614,387.38
		c33.761,77.175,85.582,145.2,142.502,207.296c54.689,59.662,115.079,115.011,184.84,156.043
		c149.763,88.088,330.459,103.871,504.198,105.658c72.63,0.747,145.98-0.665,216.628-17.53s139.123-50.415,186.846-105.17
		c42.704-48.996,66.195-111.379,88.835-172.302c45.476-122.373,91.236-245.828,110.571-374.938
		c11.048-73.773,13.326-148.599,12.679-223.191c-0.972-111.954-9.863-228.576-66.288-325.276
		c-85.732-146.926-258.852-214.299-419.108-271.361C988.613,258.279,757.414,231.885,552.625,382.835z"/>
	<g style="clip-path:url(#SVGID_00000003826218809443432640000015388723634496263061_);">
		<g>
			<path style="fill:#F88055;" d="M2165.305,187.09c-137.946,118.863-292.434,242.313-464.113,365.956
				c-166.612,119.994-327.865,224.65-480.117,315.81c59.037,90.689,118.073,181.378,177.11,272.066
				c21.694,32.719,43.388,65.438,65.083,98.157c289.137-204.85,578.274-409.7,867.411-614.55
				C2275.554,478.717,2220.43,332.904,2165.305,187.09z"/>
			<path style="fill:#B6E9F9;" d="M1403.52,707.751c-23.117,17.071-46.234,34.142-69.35,51.212
				c86.914,97.638,172.839,220.553,236.858,372.357c8.482,20.112,16.288,40.042,23.472,59.748
				c28.451-17.071,56.903-34.142,85.354-51.212c-27.317-56.729-59.382-116.921-97.09-179.244
				C1523.477,862.626,1461.863,778.583,1403.52,707.751z"/>
			<polygon style="fill:#256C8C;" points="2105.024,130.078 1348.04,670.533 1679.854,1165.224 2418.167,582.92 			"/>
		</g>
		<g>
			<path style="fill:#F75A33;" d="M954.344,1547.422c-19.493,19.515-37.014,34.374-50.146,44.811
				c-33.483,26.614-47.168,31.436-52.279,33.075c-22.03,7.063-41.966,5.388-54.413,3.201
				c36.879-78.488,90.421-120.341,125.897-109.894C930.652,1520.75,942.928,1526.771,954.344,1547.422z"/>
			<path style="fill:#F88055;" d="M1439.432,1276.551c-124.67,154.352-495.715,293.352-517.097,301.812
				c-69.756-104.057-139.501-208.115-209.256-312.172c-38.719-57.763-77.438-115.516-116.156-173.279
				c67.718-21.637,135.436-43.275,203.154-64.912l197.264-63.023c98.051-31.336,196.101-62.661,294.152-93.986
				c46.966,42.016,113.297,112.7,160.039,217.653c10.072,22.63,22.469,52.674,26.673,74.685
				C1485.385,1200.873,1469.637,1239.165,1439.432,1276.551z"/>
			<path style="fill:#F75A33;" d="M1439.432,1276.551c-124.67,154.352-495.715,293.352-517.097,301.812
				c-69.756-104.057-139.501-208.115-209.256-312.172c-1.803-89.856,23.312-175.253,77.491-229.293
				c3.094-3.094,6.263-6.05,9.506-8.898c56.771-49.9,133.857-62.703,197.264-63.023c54.04-0.277,98.125,8.503,111.174,11.107
				c31.026,6.188,170.143,37.502,263.531,167.508C1393.139,1172.963,1427.291,1220.505,1439.432,1276.551z"/>
		</g>
		<g>
			<g>
				<g>
					<path style="fill:#256C8C;" d="M1023.694,1113.183c26.68,17.264,64.208,42.612,107.76,75.752
						c31.436,23.921,47.986,36.514,69.35,56.547c20.486,19.209,57.251,54.097,91.756,106.693
						c36.046,54.947,36.48,78.696,66.149,90.689c21.414,8.656,52.433,8.912,69.35-8.535c16.607-17.128,12.822-44.301,10.669-59.748
						c-2.635-18.915-11.482-54.547-87.488-137.634c-4.84-5.291-23.208-25.265-52.279-53.346
						c-19.738-19.066-46.559-43.945-125.897-109.893c-22.765-18.923-52.809-43.683-88.555-72.551
						C1064.237,1038.498,1043.965,1075.84,1023.694,1113.183z"/>
					
						<ellipse transform="matrix(0.1602 -0.9871 0.9871 0.1602 -159.933 2362.7324)" style="fill:#B6E9F9;" cx="1308.563" cy="1275.356" rx="39.476" ry="39.476"/>
					<circle style="fill:#B6E9F9;" cx="1103.713" cy="1109.982" r="36.276"/>
				</g>
				<g>
					<path style="fill:#256C8C;" d="M908.466,1258.285c26.68,17.264,64.208,42.612,107.76,75.752
						c31.436,23.921,47.986,36.514,69.35,56.547c20.486,19.209,57.252,54.097,91.756,106.693
						c36.046,54.947,36.48,78.696,66.15,90.689c21.414,8.656,52.433,8.912,69.35-8.535c16.607-17.128,12.821-44.301,10.669-59.748
						c-2.635-18.914-11.482-54.547-87.488-137.634c-4.84-5.291-23.208-25.265-52.279-53.346
						c-19.738-19.066-46.558-43.945-125.897-109.894c-22.765-18.923-52.809-43.683-88.555-72.551
						C949.009,1183.6,928.737,1220.942,908.466,1258.285z"/>
					<circle style="fill:#B6E9F9;" cx="1193.335" cy="1420.458" r="39.476"/>
					
						<ellipse transform="matrix(0.1719 -0.9851 0.9851 0.1719 -417.8514 2013.0786)" style="fill:#B6E9F9;" cx="988.485" cy="1255.084" rx="36.276" ry="36.276"/>
				</g>
				<g>
					<path style="fill:#256C8C;" d="M815.643,1347.907c26.68,17.264,64.208,42.612,107.76,75.752
						c31.436,23.921,47.986,36.514,69.35,56.547c20.486,19.209,57.252,54.097,91.756,106.693
						c36.047,54.947,36.48,78.696,66.15,90.689c21.414,8.656,52.433,8.912,69.35-8.535c16.607-17.128,12.822-44.301,10.669-59.748
						c-2.635-18.914-11.482-54.547-87.488-137.634c-4.84-5.291-23.208-25.265-52.279-53.346
						c-19.738-19.066-46.558-43.945-125.897-109.893c-22.765-18.923-52.809-43.683-88.555-72.551
						C856.186,1273.222,835.915,1310.564,815.643,1347.907z"/>
					<circle style="fill:#B6E9F9;" cx="1100.512" cy="1510.079" r="39.476"/>
					<circle style="fill:#B6E9F9;" cx="895.663" cy="1344.706" r="36.276"/>
				</g>
				<g>
					<path style="fill:#256C8C;" d="M707.883,1420.458c26.68,17.264,64.208,42.612,107.76,75.752
						c31.436,23.921,47.986,36.514,69.35,56.547c20.486,19.209,57.251,54.097,91.756,106.693
						c36.046,54.947,36.48,78.696,66.15,90.689c21.414,8.656,52.433,8.912,69.35-8.535c16.607-17.128,12.822-44.301,10.669-59.748
						c-2.635-18.915-11.482-54.547-87.488-137.634c-4.84-5.291-23.208-25.265-52.279-53.346
						c-19.738-19.066-46.558-43.945-125.897-109.893c-22.765-18.923-52.809-43.683-88.555-72.551
						C748.427,1345.773,728.155,1383.115,707.883,1420.458z"/>
					
						<ellipse transform="matrix(0.9417 -0.3364 0.3364 0.9417 -474.5891 426.2633)" style="fill:#B6E9F9;" cx="992.753" cy="1582.63" rx="39.476" ry="39.476"/>
					<circle style="fill:#B6E9F9;" cx="787.903" cy="1417.257" r="36.276"/>
				</g>
			</g>
			<path style="fill:#B6E9F9;" d="M456.622,851.252c-14.669,18.926-46.424,59.897-52.279,112.027
				c-7.099,63.199,27.894,106.954,96.023,201.649c138.428,192.404,215.456,290.298,237.925,277.401
				c11.345-6.512-2.178-35.081,19.205-56.547c17.92-17.99,35.656-6.194,64.016-24.539c26.838-17.36,18.956-33.099,45.878-51.212
				c29.743-20.012,49.042-7.314,66.149-26.673c16.664-18.857,1.274-34.208,14.937-58.681c21.862-39.16,75.094-24.621,94.956-62.949
				c12.064-23.28-4.784-34.026,6.402-59.748c19.067-43.846,79.002-35.84,88.555-65.083c13.69-41.909-78.926-107.16-113.094-131.232
				c-82.769-58.313-156.225-83.236-240.059-110.96c-102.03-33.742-154.081-50.305-204.85-35.209
				C511.972,779.839,469.581,834.532,456.622,851.252z"/>
			<path style="fill:#B6E9F9;" d="M610.793,782.435c-5.719,88.651-81.695,180.503-171.775,201.649
				c-19.087,4.481-37.705,5.527-55.64,4.15c-29.618-2.273-57.347-11.171-82.185-22.171c-16.633-7.372-31.965-15.684-45.686-23.59
				C12.909,802.696-228.878,501.759-318.5,385.539C-232.431,287.029-146.373,188.509-60.304,90
				c85.237,74.461,240.624,210.441,448.109,393.696c82.335,72.722,142.445,126.399,179.425,175.211
				c20.389,26.908,33.758,52.343,39.925,78.665C610.569,752.124,611.796,766.944,610.793,782.435z"/>
			<path style="fill:#256C8C;" d="M607.155,737.571c-44,11.032-111.825,38.036-163.869,104.612
				c-40.373,51.65-54.957,106.277-59.908,146.052c-29.618-2.273-57.347-11.171-82.185-22.171
				c13.059-63.493,46.273-158.908,132.491-232.707c47.286-40.469,96.333-62.309,133.547-74.45
				C587.62,685.815,600.988,711.25,607.155,737.571z"/>
		</g>
		<path style="fill:#F88055;" d="M1361.91,867.79c-34.336-44.744-79.475-59.583-151.504-82.153
			c-75.664-23.71-133.872-41.95-209.118-32.008c-61.463,8.121-44.924,23.237-202.716,83.22
			c-77.164,29.333-119.68,40.377-122.697,67.216c-2.56,22.772,24.38,47.447,49.079,58.681
			c56.654,25.767,96.048-21.678,182.445-23.472c53.399-1.109,91.728,15.906,156.838,44.811
			c111.636,49.559,120.89,92.241,185.645,94.956c54.604,2.29,124.638-24.846,145.102-80.02
			C1417.021,939.608,1370.139,878.513,1361.91,867.79z"/>
		<g>
			<g>
				<path style="fill:#F88055;" d="M599.057,1214.541c-31.64-14.69-79.709-7.852-103.492,24.539
					c-4.425,6.026-22.316,32.422-11.736,59.748c9.038,23.344,32.819,31.78,39.476,34.142c33.108,11.744,78.613,0.973,98.157-32.008
					c9.727-16.413,16.211-43.705,3.201-65.083C616.807,1222.971,604.909,1217.258,599.057,1214.541z"/>
			</g>
			<g>
				<path style="fill:#F88055;" d="M706.816,1311.631c-11.552-3.013-12.144,1.366-69.35,13.87
					c-33.284,7.275-41.807,7.699-51.213,17.071c-18.259,18.193-15.24,45.594-14.937,48.012
					c2.534,20.197,15.132,37.333,30.941,45.878c19.403,10.488,38.743,5.386,69.35-3.201c49.14-13.787,78.875-22.13,85.354-46.945
					C764.525,1357.347,736.86,1319.467,706.816,1311.631z"/>
			</g>
			<g>
				<path style="fill:#F88055;" d="M823.112,1387.383c-10.338-3.955-18.085-1.56-59.748,13.87
					c-75.227,27.861-82.583,32.131-89.622,42.677c-12.312,18.447-18.758,48.761-4.268,69.35
					c15.674,22.27,47.714,21.609,60.815,21.339c29.448-0.608,50.065-13.946,74.685-29.874c30.078-19.459,45.38-29.358,50.146-49.078
					C861.487,1429.32,846.426,1396.302,823.112,1387.383z"/>
			</g>
			<g>
				<path style="fill:#F88055;" d="M898.863,1493.009c-1.731-3.245-10.484-19.66-28.807-25.606
					c-15.986-5.188-30.187,0.536-41.61,5.335c-48.793,20.5-64.445,71.422-65.082,73.618c-4.226,14.563-9.781,33.702,0,53.346
					c1.182,2.374,11.713,23.187,35.208,29.874c23.215,6.607,43.131-5.103,54.413-11.736c48.695-28.631,52.151-87.634,52.279-90.689
					C906.1,1507.339,900.567,1496.203,898.863,1493.009z"/>
			</g>
			<g>
				<path style="fill:#F75A33;" d="M775.498,1521c-0.306,0-0.616-0.094-0.882-0.288c-0.669-0.488-0.816-1.426-0.328-2.096
					c1.037-1.423,25.614-34.93,44.208-42.75c18.271-7.686,28.065-10.851,28.162-10.881c0.788-0.259,1.633,0.181,1.887,0.969
					c0.253,0.789-0.181,1.634-0.97,1.887c-0.096,0.031-9.783,3.164-27.916,10.791c-17.826,7.497-42.698,41.41-42.947,41.752
					C776.418,1520.786,775.962,1521,775.498,1521z"/>
			</g>
		</g>
	</g>
</g>
</svg>
