<?xml version="1.0" encoding="UTF-8"?><svg id="uuid-44d1822e-a8e5-49c3-bc9e-9eba672f951b" xmlns="http://www.w3.org/2000/svg" viewBox="0 0 646.25 597.86"><defs><style>.uuid-42c9be28-7999-49b1-9236-e9023f96e779{fill:#0e74bb;}.uuid-9453fa2d-50aa-454d-ba4e-0ff70f5a1dfb{fill:#fff;}.uuid-5eaafbad-5043-4711-bc4e-5a7729761913{fill:#080717;}.uuid-c98d5f0d-622e-40d5-8836-0a432b89b474{fill:#1d1d1b;}</style></defs><path class="uuid-5eaafbad-5043-4711-bc4e-5a7729761913" d="M45.03,416.3c-5.02,0-9.79-1.83-13.54-5.23-4.03-3.65-6.38-8.64-6.63-14.07L9.09,49.62c-.17-3.69.92-7.23,3.05-9.97,2.22-2.86,5.31-4.52,8.7-4.68L595.29,3.57c3.42-.19,6.63,1.22,9.11,3.87,2.37,2.54,3.77,5.97,3.94,9.66l15.78,347.7c.5,11.03-8.06,20.5-19.09,21.1l-558.88,30.38c-.38.02-.75.03-1.12.03ZM595.81,8.54c-.09,0-.18,0-.27,0L21.09,39.95c-1.92.09-3.69,1.07-5.01,2.76-1.41,1.81-2.12,4.18-2,6.69l15.77,347.39c.19,4.09,1.96,7.85,4.99,10.6,3.03,2.74,6.95,4.12,11.04,3.91l558.87-30.38s0,0,0,0c8.31-.45,14.76-7.58,14.38-15.89l-15.78-347.7c-.11-2.5-1.04-4.81-2.6-6.48-1.39-1.49-3.13-2.3-4.94-2.3Z"/><path d="M47.21,62.5c.16,3.5-2.55,6.46-6.04,6.62-3.49.16-6.46-2.55-6.62-6.04-.16-3.49,2.55-6.46,6.04-6.62,3.5-.16,6.46,2.55,6.62,6.04Z"/><path d="M65.81,61.66c.16,3.5-2.55,6.46-6.04,6.62-3.5.16-6.46-2.55-6.61-6.04-.16-3.49,2.54-6.46,6.04-6.62,3.5-.16,6.46,2.55,6.62,6.04Z"/><path d="M84.39,60.81c.16,3.5-2.55,6.46-6.04,6.62-3.5.16-6.46-2.55-6.62-6.04-.16-3.49,2.55-6.46,6.04-6.62,3.49-.16,6.46,2.55,6.61,6.04Z"/><rect class="uuid-c98d5f0d-622e-40d5-8836-0a432b89b474" x="534.27" y="27.7" width="4.99" height="14.53" transform="translate(-1.03 24.34) rotate(-2.6)"/><rect class="uuid-c98d5f0d-622e-40d5-8836-0a432b89b474" x="529.5" y="32.46" width="14.53" height="4.99" transform="translate(-1.03 24.14) rotate(-2.57)"/><polygon class="uuid-c98d5f0d-622e-40d5-8836-0a432b89b474" points="563.07 26.03 557.18 26.29 557.45 32.19 563.34 31.92 563.07 26.03 563.07 26.03"/><polygon class="uuid-c98d5f0d-622e-40d5-8836-0a432b89b474" points="563.51 35.57 557.61 35.84 557.88 41.74 563.77 41.47 563.51 35.57 563.51 35.57"/><polygon class="uuid-c98d5f0d-622e-40d5-8836-0a432b89b474" points="572.71 25.59 566.81 25.86 567.08 31.75 572.97 31.48 572.71 25.59 572.71 25.59"/><polygon class="uuid-c98d5f0d-622e-40d5-8836-0a432b89b474" points="573.14 35.14 567.24 35.4 567.51 41.3 573.41 41.03 573.14 35.14 573.14 35.14"/><path class="uuid-42c9be28-7999-49b1-9236-e9023f96e779" d="M309.4,365.94c-24.19-28.09-54.41-49.22-88.85-60.46-30.68,38.15-85.71,112.21-108.13,155.99l-39.21,76.53L0,592.88l168.35,4.98s100.43-171.69,141.05-231.92Z"/><path class="uuid-42c9be28-7999-49b1-9236-e9023f96e779" d="M389.72,398.22l29.7-2.46,7.46,2.27c60.37,18.34,81.59-18.48,71.14-64.55l-29.64-15.35-71.34-3.86c-58.69-3.18-117.42,1.8-174.53,14.69-4.92,34.96,1.66,69.29,21.06,97.33,47.45-14.53,96.44-23.97,146.15-28.08Z"/><path class="uuid-42c9be28-7999-49b1-9236-e9023f96e779" d="M580.99,314.87l-2.76,27.82c-14.76,103.86-157.86,51.29-157.86,51.29l-32.22-10.15c-101.8-32.06-209.06-43.09-315.26-32.44l-45.81,4.91-8.01-193.99,59.57,63.6,85.85,4.89c92.65,5.28,183.4,28.38,267.3,68.05l38.19,16.42,38.44-38.12,72.58,37.71Z"/><path class="uuid-5eaafbad-5043-4711-bc4e-5a7729761913" d="M539.43,374.4l-2.94-1.36c-2.31-1.07-233.53-106.88-426.7-91.1l-.44-5.43c182.69-14.91,398.82,77.95,426.49,90.26l14.7-54.88,5.26,1.41-16.36,61.11Z"/><rect class="uuid-5eaafbad-5043-4711-bc4e-5a7729761913" x="50.27" y="208.52" width="22.72" height="5.45" transform="translate(-154.07 167.67) rotate(-62.31)"/><rect class="uuid-5eaafbad-5043-4711-bc4e-5a7729761913" x="40.71" y="204.17" width="22.72" height="5.45" transform="translate(-155.33 156.87) rotate(-62.31)"/><path class="uuid-5eaafbad-5043-4711-bc4e-5a7729761913" d="M59.93,269.75c-1.57,0-3.07-.35-4.4-1.19-1.28-.8-2.07-1.87-2.73-2.9-5.37-8.36-.87-23.88,13.75-47.45.36-.58.64-1.03.82-1.33.1-.27.25-.55.47-.83.64-.83,1.7-1.22,2.72-1.01h0c.87.18,1.6.78,1.96,1.6.06.14.11.28.15.41.13.27.34.68.61,1.21,4.69,9.2,10.7,22.38,8.82,30.65-1.41,6.21-5.69,12.35-11.74,16.84-2.86,2.12-6.82,4.01-10.44,4.01ZM69.77,223.41c-15.84,26.18-14.6,35.86-12.38,39.32.38.6.69,1.01,1.04,1.23,1.55.98,5.45-.19,8.69-2.58,5.02-3.73,8.54-8.71,9.67-13.67,1.03-4.51-1.34-12.67-7.02-24.29Z"/><path class="uuid-5eaafbad-5043-4711-bc4e-5a7729761913" d="M69.63,220.89c-.08,0-.16,0-.24,0-.97-.07-1.83-.65-2.26-1.52-.43-.87-.36-1.91.18-2.72.05-.08.1-.15.16-.22.09-.16.22-.39.38-.67,3.3-5.76,8.29-13.64,13.59-15.62,3.97-1.48,8.92-1.34,13.58.37,3.3,1.22,7.18,3.97,7.25,7.76.02,1.14-.33,2.08-.67,2.85-3.62,8.12-19.17,9.43-30.55,9.71-.37,0-.66.01-.87.02-.17.03-.36.05-.56.05ZM87.42,204.57c-1.47,0-2.86.22-4.07.67-1.63.61-4.43,2.88-8.85,10,17.72-.87,21.38-4.67,22.13-6.35.17-.38.19-.5.2-.55-.01-.41-1.28-1.85-3.68-2.73-1.9-.7-3.88-1.05-5.73-1.05Z"/><rect class="uuid-5eaafbad-5043-4711-bc4e-5a7729761913" x="54.14" y="541.35" width="5.45" height="22.72" transform="translate(-334.04 157.85) rotate(-38.84)"/><rect class="uuid-5eaafbad-5043-4711-bc4e-5a7729761913" x="44.39" y="548.27" width="5.45" height="22.72" transform="translate(-340.54 153.27) rotate(-38.84)"/><path class="uuid-5eaafbad-5043-4711-bc4e-5a7729761913" d="M100.15,561.75c-13.23,0-30.47-9.99-36.81-13.66-.52-.3-.93-.54-1.21-.7-.22-.07-.44-.18-.68-.33-.88-.54-1.39-1.54-1.3-2.57.08-.93.64-1.75,1.46-2.18.12-.06.24-.12.36-.17.29-.18.76-.47,1.37-.86,5.35-3.37,19.51-12.29,28.65-12.29.05,0,.11,0,.16,0,15.25.18,22.15,8.52,23.43,15.62,1.26,6.99-2.26,13.56-8.54,15.98-2.09.8-4.43,1.15-6.9,1.15ZM68.27,544.64c21.76,12.26,32.02,12.72,36.82,10.88,3.81-1.46,5.91-5.55,5.13-9.93-.95-5.29-6.21-11-18.13-11.14h-.11c-6.63,0-17.99,6.64-23.71,10.19Z"/><path class="uuid-5eaafbad-5043-4711-bc4e-5a7729761913" d="M62.65,547.25c-.24,0-.48-.03-.71-.1-.94-.25-1.67-.98-1.92-1.92-.02-.1-.05-.19-.06-.28-.06-.18-.14-.42-.25-.73-2.16-6.28-4.79-15.23-2.78-20.52,1.51-3.96,4.87-7.59,9.23-9.97,3.1-1.68,7.73-2.77,10.61-.33.87.74,1.35,1.62,1.7,2.39,3.71,8.08-5.56,20.62-12.85,29.36-.23.28-.42.5-.56.66-.12.22-.29.43-.5.64-.52.51-1.21.78-1.91.78ZM72.52,517.44c-.82,0-2.21.26-3.75,1.1-3.24,1.76-5.69,4.35-6.74,7.12-.62,1.62-.76,5.23,1.68,13.24,11.03-13.9,10.59-19.15,9.83-20.82-.16-.35-.24-.47-.28-.51-.1-.08-.36-.14-.73-.14Z"/><path class="uuid-5eaafbad-5043-4711-bc4e-5a7729761913" d="M411.76,396.81c-118.44-40.29-204.78-44.33-205.64-44.37l.23-5.45c.86.04,87.92,4.1,207.16,44.66l-1.75,5.16Z"/><path class="uuid-42c9be28-7999-49b1-9236-e9023f96e779" d="M567.97,215.3l-30.17-18.92c-8.83-5.54-20.2-4.91-28.37,1.58l-109.31,86.83,102.56,41.26,65.29-110.75Z"/><polygon class="uuid-9453fa2d-50aa-454d-ba4e-0ff70f5a1dfb" points="503.92 326.54 401.36 285.29 476.09 225.93 546.53 254.27 503.92 326.54"/><path class="uuid-5eaafbad-5043-4711-bc4e-5a7729761913" d="M503.92,329.27c-.34,0-.68-.06-1.02-.2l-102.56-41.26c-.9-.36-1.54-1.18-1.68-2.14-.14-.96.24-1.92,1-2.53l74.72-59.36c.77-.61,1.81-.76,2.71-.39l70.45,28.34c.74.3,1.31.9,1.56,1.65.26.75.17,1.58-.23,2.26l-42.61,72.28c-.5.85-1.41,1.34-2.35,1.34ZM406.73,284.5l96.04,38.64,39.81-67.53-66.04-26.57-69.82,55.46Z"/><path class="uuid-9453fa2d-50aa-454d-ba4e-0ff70f5a1dfb" d="M606.63,324.39l-27.92-16.55,27.92,16.55Z"/><path class="uuid-5eaafbad-5043-4711-bc4e-5a7729761913" d="M606.63,327.11c-.47,0-.95-.12-1.39-.38l-27.92-16.55c-1.3-.77-1.72-2.44-.95-3.73.77-1.3,2.43-1.72,3.73-.95l27.92,16.55c1.3.77,1.72,2.44.95,3.73-.51.86-1.42,1.34-2.35,1.34Z"/><path class="uuid-42c9be28-7999-49b1-9236-e9023f96e779" d="M626.73,278.83l-15.89-57.91c-3.88-14.14-18.61-22.34-32.67-18.17l-20.78,6.15-3.93-10.05-.31-.12c-13.04-5.25-27.97-.56-35.67,11.2l-66.76,103.1,152.7,61.43,23.31-95.62Z"/><path class="uuid-9453fa2d-50aa-454d-ba4e-0ff70f5a1dfb" d="M477.82,269.91l-3.65-1.47c-4.22-1.7-6.93-5.86-6.78-10.41h0c.11-3.33,3.5-5.54,6.59-4.29l30.65,12.33-26.81,3.84Z"/><path class="uuid-5eaafbad-5043-4711-bc4e-5a7729761913" d="M477.82,272.64c-.34,0-.68-.06-1.02-.2l-3.65-1.47c-5.27-2.12-8.68-7.36-8.49-13.03.08-2.45,1.36-4.71,3.41-6.05,2.06-1.34,4.64-1.59,6.92-.68l30.65,12.33c1.4.56,2.07,2.15,1.51,3.55-.56,1.4-2.15,2.07-3.55,1.51l-30.65-12.33c-.64-.26-1.33-.19-1.91.19-.58.38-.92.98-.94,1.67-.11,3.39,1.92,6.53,5.07,7.79l3.65,1.47c1.4.56,2.07,2.15,1.51,3.54-.43,1.06-1.45,1.71-2.53,1.71Z"/><path class="uuid-9453fa2d-50aa-454d-ba4e-0ff70f5a1dfb" d="M626.73,278.83l15.58,57.02c7.88,28.85-24.27,52.01-49.14,35.41l-95.11-63.5-16.05,3.73c-5.2,1.21-10.65-.44-14.3-4.34l-2.79-2.97h0c-5.31,1.11-10.78-.98-14-5.34l-2.18-2.94,4.99-2.77-1.07-.57c-3.82-2.05-6.01-6.21-5.56-10.51h0l37.45-15.95c7.5-3.2,16.07-2.71,23.15,1.33l70.99,40.42-11.09-29.73s20.57-14.78,59.11.73Z"/><path class="uuid-5eaafbad-5043-4711-bc4e-5a7729761913" d="M611.15,379.58c-6.71,0-13.44-2.02-19.5-6.06l-94.12-62.85-14.9,3.46c-6.11,1.41-12.6-.55-16.9-5.13l-1.8-1.92c-5.82.63-11.66-1.86-15.19-6.63l-2.17-2.94c-.47-.63-.64-1.43-.47-2.2.17-.77.65-1.42,1.34-1.8l1.1-.61c-3-2.82-4.57-6.91-4.12-11.15.1-.98.73-1.83,1.64-2.22l37.45-15.95c8.23-3.51,17.79-2.96,25.56,1.47l64.47,36.71-8.47-22.7c-.43-1.15-.03-2.45.96-3.17.89-.64,22.25-15.46,61.72.41.79.32,1.39.99,1.61,1.81l15.58,57.02c3.95,14.47-1.15,28.91-13.32,37.68-6.26,4.51-13.35,6.77-20.46,6.77ZM498.06,305.03c.53,0,1.06.16,1.51.46l95.11,63.5c12.6,8.41,25.69,5.2,33.75-.6,8.06-5.8,15.24-17.21,11.25-31.82l-15.22-55.7c-29.75-11.57-48-4.44-53.49-1.57l10.3,27.59c.4,1.07.09,2.28-.79,3.03-.87.74-2.12.85-3.11.29l-70.99-40.42c-6.31-3.59-14.06-4.03-20.73-1.19l-35.83,15.26c.22,2.64,1.75,5.01,4.15,6.3l1.07.58c.87.47,1.42,1.39,1.43,2.38,0,1-.53,1.91-1.4,2.4l-2.28,1.26.33.45c2.59,3.49,7.01,5.18,11.25,4.29.92-.2,1.89.11,2.55.8l2.79,2.97c2.97,3.17,7.46,4.53,11.7,3.55l16.05-3.73c.2-.05.41-.07.62-.07Z"/><path class="uuid-9453fa2d-50aa-454d-ba4e-0ff70f5a1dfb" d="M491.29,294.83l-26.37,9.34,26.37-9.34Z"/><path class="uuid-5eaafbad-5043-4711-bc4e-5a7729761913" d="M464.92,306.9c-1.12,0-2.17-.7-2.57-1.82-.5-1.42.24-2.97,1.66-3.48l26.37-9.34c1.41-.51,2.97.24,3.48,1.66.5,1.42-.24,2.97-1.66,3.48l-26.37,9.34c-.3.11-.61.16-.91.16Z"/><path class="uuid-9453fa2d-50aa-454d-ba4e-0ff70f5a1dfb" d="M489.18,280.24l-34.47,12.94,34.47-12.94Z"/><path class="uuid-5eaafbad-5043-4711-bc4e-5a7729761913" d="M454.71,295.91c-1.1,0-2.14-.67-2.55-1.77-.53-1.41.19-2.98,1.59-3.51l34.47-12.94c1.41-.53,2.98.18,3.51,1.59.53,1.41-.19,2.98-1.59,3.51l-34.47,12.94c-.31.12-.64.18-.96.18Z"/><path class="uuid-5eaafbad-5043-4711-bc4e-5a7729761913" d="M567.62,280.83c-1.08,0-2.1-.65-2.53-1.71l-11.77-29.45c-.56-1.4.12-2.98,1.52-3.54,1.4-.55,2.98.12,3.54,1.52l11.77,29.45c.56,1.4-.12,2.98-1.52,3.54-.33.13-.67.19-1.01.19Z"/><path class="uuid-5eaafbad-5043-4711-bc4e-5a7729761913" d="M358.43,294.79h154.64c2.12,0,3.85,1.72,3.85,3.85v8.65h-158.48v-12.5h0Z" transform="translate(143.98 -141.6) rotate(21.91)"/><path class="uuid-5eaafbad-5043-4711-bc4e-5a7729761913" d="M418.87,300.21l-133.69-53.78,6.35-100.61c.61-9.72,10.56-15.99,19.59-12.36l105.77,42.55c5.72,2.3,9.31,8.01,8.93,14.15l-6.94,110.05Z"/><path class="uuid-9453fa2d-50aa-454d-ba4e-0ff70f5a1dfb" d="M358.36,216.57c-2.09,5.2-8,7.72-13.2,5.63-5.2-2.09-7.72-8-5.63-13.2,2.09-5.2,8-7.72,13.2-5.63,5.2,2.09,7.72,8,5.63,13.2Z"/><path class="uuid-5eaafbad-5043-4711-bc4e-5a7729761913" d="M348.94,225.66c-1.63,0-3.25-.31-4.81-.94-6.58-2.65-9.78-10.16-7.14-16.75,1.28-3.19,3.73-5.69,6.9-7.04,3.17-1.35,6.67-1.38,9.85-.1,3.19,1.28,5.69,3.73,7.04,6.9,1.35,3.16,1.39,6.66.1,9.85-1.28,3.19-3.73,5.69-6.9,7.04-1.62.69-3.33,1.04-5.05,1.04ZM348.95,205.36c-2.94,0-5.73,1.76-6.9,4.66-1.53,3.8.32,8.13,4.12,9.66,3.79,1.53,8.13-.32,9.66-4.12,1.53-3.8-.32-8.13-4.12-9.66-.9-.37-1.84-.54-2.76-.54Z"/><circle class="uuid-5eaafbad-5043-4711-bc4e-5a7729761913" cx="526.94" cy="121.04" r="40.5" transform="translate(245.72 582.81) rotate(-71.59)"/><path class="uuid-5eaafbad-5043-4711-bc4e-5a7729761913" d="M473.72,118.19c1.72,13.27,13.88,22.64,27.15,20.91s22.64-13.88,20.91-27.15c-1.72-13.27-13.88-22.64-27.15-20.91-13.27,1.72-22.64,13.88-20.91,27.15Z"/><path class="uuid-9453fa2d-50aa-454d-ba4e-0ff70f5a1dfb" d="M511.95,194.66c-21.05-1.47-36.59-24.54-34.7-51.52,1.89-26.98,20.49-47.65,41.54-46.18,17.58,1.23,31.3,17.52,34.25,38.56,2.12-5.37,7.02-9.45,13.17-10.22,8.54-1.06,16.66,4.96,18.1,13.45,1.56,9.19-4.83,17.75-13.99,18.94-1.96.25-3.88.13-5.7-.28l12.28,42.47c5.3-.45-52.98,47.3-56.15,8.67l.11-14.61c-2.89.66-5.88.93-8.92.71Z"/><path class="uuid-5eaafbad-5043-4711-bc4e-5a7729761913" d="M534.42,226.37c-1.97,0-3.83-.25-5.57-.81-4.42-1.42-9.88-5.48-10.8-16.79l.08-11.58c-2.13.27-4.25.33-6.36.18h0c-11.04-.77-20.99-6.95-28.02-17.39-6.89-10.23-10.16-23.38-9.2-37.04.95-13.65,6.03-26.22,14.28-35.39,8.42-9.36,19.12-14.08,30.17-13.32,16.57,1.16,30.46,14.86,35.43,34.16,2.99-3.15,7.02-5.25,11.47-5.8,9.97-1.24,19.45,5.8,21.13,15.7.88,5.16-.35,10.32-3.46,14.53-3.11,4.21-7.68,6.9-12.87,7.57-.77.1-1.54.15-2.31.15l10.87,37.59c.16.18.29.38.41.59.99,1.91-.49,3.65-1.04,4.31-4.53,5.36-27.63,23.33-44.18,23.33ZM520.86,191.22c.61,0,1.22.21,1.7.6.65.52,1.03,1.31,1.02,2.14l-.11,14.61c.86,10.41,6.11,11.63,7.84,12.03,12.84,2.98,38-15.32,42.77-20.63l-12.09-41.8c-.27-.93-.02-1.93.64-2.63.66-.7,1.65-.99,2.59-.79,1.58.36,3.18.45,4.75.24,3.7-.48,6.97-2.4,9.19-5.41,2.22-3,3.09-6.69,2.46-10.38-1.2-7.06-7.94-12.09-15.08-11.2-4.93.61-9.13,3.88-10.97,8.52-.46,1.15-1.64,1.84-2.85,1.7-1.23-.15-2.2-1.1-2.38-2.33-2.84-20.22-15.89-35.11-31.74-36.22-9.34-.67-18.47,3.44-25.74,11.53-7.44,8.27-12.02,19.68-12.89,32.13-.87,12.45,2.07,24.38,8.29,33.61,6.07,9.02,14.56,14.35,23.88,15h0c2.68.19,5.41-.03,8.12-.65.2-.05.41-.07.61-.07Z"/><path class="uuid-5eaafbad-5043-4711-bc4e-5a7729761913" d="M562.01,150.1c-1.25,0-2.37-.86-2.66-2.13-1.14-5.1-.56-9.42,1.72-12.87,3.29-4.97,8.93-6.06,9.17-6.1,1.48-.28,2.9.71,3.17,2.19.27,1.47-.7,2.89-2.17,3.17-.1.02-3.7.79-5.66,3.8-1.41,2.16-1.71,5.06-.92,8.63.33,1.47-.6,2.93-2.07,3.25-.2.04-.4.07-.6.07Z"/><path class="uuid-5eaafbad-5043-4711-bc4e-5a7729761913" d="M521.79,196.46c-1.21,0-2.31-.81-2.63-2.04-.38-1.46.49-2.94,1.95-3.32,10.3-2.7,19.31-11.08,24.72-23,.62-1.37,2.23-1.98,3.61-1.36,1.37.62,1.98,2.24,1.36,3.61-6.09,13.42-16.41,22.91-28.31,26.02-.23.06-.46.09-.69.09Z"/><path class="uuid-5eaafbad-5043-4711-bc4e-5a7729761913" d="M486.22,134.53c.83,1.08-.93,3.82-3.93,6.11-3,2.29-6.1,3.27-6.93,2.19-.83-1.08.93-3.82,3.93-6.11,3-2.29,6.1-3.27,6.93-2.19Z"/><path class="uuid-5eaafbad-5043-4711-bc4e-5a7729761913" d="M519.99,135.62c-.14,1.69-4.03,2.74-8.7,2.36s-8.34-2.06-8.2-3.74c.14-1.69,4.03-2.74,8.7-2.36,4.67.38,8.34,2.06,8.2,3.74Z"/><path class="uuid-5eaafbad-5043-4711-bc4e-5a7729761913" d="M495.71,158.87c-.54,0-1.08-.16-1.55-.49-2.39-1.66-3.74-4.5-3.52-7.4l.82-11.04c.11-1.5,1.46-2.66,2.92-2.51,1.5.11,2.63,1.42,2.51,2.92l-.82,11.04c-.07,1,.38,1.94,1.2,2.51,1.23.86,1.54,2.56.68,3.79-.53.76-1.38,1.17-2.24,1.17Z"/><path class="uuid-5eaafbad-5043-4711-bc4e-5a7729761913" d="M504.01,174.94c-1.28,0-2.43-.91-2.67-2.22-.28-1.48.69-2.9,2.17-3.19,8.74-1.66,11.97-8.48,12.1-8.77.62-1.36,2.25-1.96,3.6-1.35,1.37.62,1.98,2.21,1.37,3.58-.18.39-4.43,9.68-16.05,11.89-.17.03-.34.05-.51.05Z"/><path class="uuid-5eaafbad-5043-4711-bc4e-5a7729761913" d="M498.38,105.41c4.55,7.68,14.47,10.23,22.15,5.68,7.69-4.55,10.23-14.47,5.68-22.15-4.55-7.69-14.47-10.23-22.15-5.68-7.68,4.55-10.23,14.47-5.68,22.15Z"/><path class="uuid-5eaafbad-5043-4711-bc4e-5a7729761913" d="M523.05,111.96c4.55,7.69,14.47,10.23,22.15,5.68,7.69-4.55,10.23-14.47,5.68-22.15-4.55-7.68-14.47-10.23-22.15-5.68-7.69,4.55-10.23,14.47-5.68,22.15Z"/><path class="uuid-5eaafbad-5043-4711-bc4e-5a7729761913" d="M540.16,140.25c2.14,3.61,6.79,4.8,10.4,2.67,3.61-2.14,4.8-6.79,2.67-10.4-2.14-3.61-4.13-31.41-14.4-25.33-12.16,7.2-.81,29.46,1.33,33.06Z"/><path class="uuid-5eaafbad-5043-4711-bc4e-5a7729761913" d="M553.1,92.71c-.56,0-1.12-.17-1.61-.53-1.22-.89-1.48-2.59-.59-3.81,1.98-2.7,5.79-3.42,6.53-3.53,1.51-.24,2.88.79,3.11,2.27.23,1.48-.78,2.87-2.26,3.11-.95.16-2.51.72-2.98,1.36-.53.73-1.36,1.12-2.2,1.12Z"/><path class="uuid-5eaafbad-5043-4711-bc4e-5a7729761913" d="M551.21,91.45c-.65,0-1.29-.23-1.81-.69-1.12-.99-1.23-2.69-.25-3.82.08-.09.97-1.24.5-2.55-.51-1.42.23-2.97,1.65-3.48,1.42-.51,2.98.23,3.48,1.65,1.26,3.52-.37,6.67-1.53,7.97-.54.61-1.29.92-2.04.92Z"/><path class="uuid-5eaafbad-5043-4711-bc4e-5a7729761913" d="M507.8,149.66c.78,2.68,2.81,4.44,4.53,3.94,1.72-.5,2.48-3.08,1.7-5.75-.78-2.68-2.81-4.44-4.53-3.94-1.72.5-2.48,3.08-1.7,5.75Z"/><path class="uuid-5eaafbad-5043-4711-bc4e-5a7729761913" d="M482.27,154.83c.78,2.68,2.81,4.44,4.53,3.94,1.72-.5,2.48-3.08,1.7-5.75-.78-2.68-2.81-4.44-4.53-3.94s-2.48,3.08-1.7,5.75Z"/><path d="M181.45,104.98c-.98,0-1.96-.13-2.93-.39-2.91-.78-5.34-2.65-6.85-5.25-1.51-2.61-1.91-5.65-1.13-8.56.78-2.91,2.65-5.34,5.25-6.85,5.38-3.11,12.29-1.26,15.41,4.13h0c1.51,2.61,1.91,5.65,1.13,8.56s-2.65,5.34-5.25,6.85c-1.74,1-3.67,1.52-5.62,1.52ZM181.42,87.41c-1.07,0-2.15.27-3.14.84-1.45.84-2.5,2.2-2.93,3.82-.44,1.62-.21,3.32.63,4.77.84,1.46,2.2,2.5,3.82,2.93,1.62.44,3.32.21,4.77-.63,1.45-.84,2.5-2.2,2.93-3.82.44-1.62.21-3.32-.63-4.77h0c-1.16-2.01-3.28-3.14-5.46-3.14Z"/><path d="M172.83,142.34l-3.6-6.22.27-1c2.9-10.84,13.98-17.36,24.83-14.69l8.19-30.6c1.49-5.59,5.07-10.25,10.08-13.15,5.01-2.89,10.84-3.67,16.43-2.17l-1.29,4.82c-4.3-1.15-8.79-.56-12.64,1.67-3.85,2.22-6.61,5.82-7.76,10.12l-9.48,35.41-4.41-1.18c-7.99-2.15-16.23,2.36-18.84,10.1l2.54,4.39-4.32,2.49Z"/><path d="M191.13,152.58c-1.86,0-3.73-.24-5.57-.74-5.52-1.48-10.14-5.02-13-9.97l-20.27-35.09c-2.86-4.95-3.62-10.71-2.14-16.24,1.48-5.52,5.02-10.14,9.97-13l35.09-20.27c4.95-2.86,10.72-3.62,16.24-2.14,5.52,1.48,10.14,5.02,13,9.97l20.27,35.09c5.9,10.22,2.39,23.33-7.83,29.24l-35.09,20.27c-3.3,1.9-6.96,2.88-10.67,2.88ZM205.88,59.39c-2.84,0-5.65.75-8.18,2.21l-35.09,20.27c-3.79,2.19-6.51,5.73-7.64,9.97-1.14,4.24-.55,8.66,1.64,12.45l20.27,35.09c2.19,3.79,5.73,6.51,9.97,7.64,4.23,1.13,8.66.55,12.45-1.64l35.09-20.27c7.84-4.53,10.53-14.59,6-22.42l-20.27-35.09c-2.19-3.79-5.73-6.51-9.97-7.64-1.41-.38-2.84-.57-4.27-.57Z"/><path d="M250.78,198.41l-2.69-4.2c1.04-.68,10-6.99,2.61-18.35-1.73-2.66-3.78-4.23-5.87-5.09-.49,1.98-1.13,3.98-1.93,5.99-6.68,16.61-15.86,17.48-18.57,17.37-3.5-.16-6.31-2.12-7.17-4.98-2.6-8.74,4.77-18.09,13.39-22.07,3.12-1.44,6.71-2.3,10.3-2.2,1.8-14.07-3.65-26.06-3.71-26.21l4.52-2.11c.31.66,6.24,13.65,4.13,29.21,3.38,1.14,6.55,3.46,9.09,7.37,3.23,4.96,4.35,9.83,3.35,14.48-1.49,6.91-7.21,10.63-7.45,10.79ZM239.91,169.88c-3.19.04-5.96,1.13-7.26,1.73-6.55,3.03-12.5,10.05-10.7,16.12.19.64,1.09,1.35,2.62,1.42,3.9.25,9.38-3.48,13.71-14.25.67-1.68,1.21-3.35,1.63-5.02Z"/><path class="uuid-42c9be28-7999-49b1-9236-e9023f96e779" d="M389.04,12.83l10.68,62.42c1.04,5.98-3.88,11.31-9.92,10.76l-15.64-.06,11.79,44.19-42.62-41.34c-1.05-.71-2.26-1.11-3.52-1.17l-75.98-3.48c-4.38-.2-8.01-3.46-8.69-7.78l-10.27-65.7c-.9-5.74,3.68-10.87,9.49-10.63l125.98,5.18c4.34.18,7.96,3.36,8.7,7.63Z"/><path d="M342.91,72.08c-6.79,0-13.87-4.37-19.31-9.97-7.8,6.37-16.73,8.28-25.16,5.4-4.8-1.64-8.69-4.5-11.63-7.88-.83.8-1.69,1.51-2.57,2.12-9.66,6.71-14.09,1.62-14.28,1.4l1.91-1.6,1.81-1.71s2.04,1.74,7.7-2.18c.85-.59,1.67-1.3,2.45-2.09-1.95-3.22-3.18-6.64-3.67-9.8-.81-5.13.32-9.26,3.1-11.33,1.66-1.23,4.58-2.26,9.09-.11,2.08.99,3.35,3.03,3.57,5.74.37,4.48-2.13,10.77-5.82,15.77,2.46,2.99,5.78,5.52,9.94,6.95,8.55,2.92,15.68-.74,20.27-4.45-.22-.28-.44-.57-.65-.86-6.19-8.38-8.07-16.66-5.02-22.16,2.57-4.64,6.51-6.86,10.85-6.07,5.08.93,9.38,5.87,10.23,11.75.66,4.55-2.97,11.85-8.48,17.69,5.15,5.27,11.97,9.39,17.71,8.18,6.14-1.29,9.93-4,11.43-8.22-9.19-3.33-10.57-8.74-10.74-10.85-.34-4.28,2.57-8.2,6.63-8.93.98-.17,2.49-.13,4.18,1.11,2.65,1.95,4.89,6.37,5.44,10.75.19,1.54.26,3.01.18,4.4,3.34.73,7.5,1.21,12.6,1.3l-.08,4.99c-5.42-.09-9.83-.61-13.41-1.39-1.99,5.98-7.17,10.04-15.2,11.73-1.01.21-2.04.31-3.07.31ZM323.83,34.1c-2.29,0-3.87,1.93-4.82,3.65-2.01,3.63-.18,10.22,4.67,16.78.09.13.19.25.28.38,4.63-5.08,7.16-10.86,6.82-13.17-.54-3.7-3.26-7.02-6.19-7.56-.27-.05-.53-.07-.77-.07ZM353.09,43.8c-1.28.24-2.63,1.69-2.48,3.62.17,2.13,2.11,4.47,6.5,6.25-.01-.73-.07-1.5-.17-2.29-.54-4.29-3-7.45-3.85-7.57ZM287.49,38.08c-.46,0-.89.1-1.24.36-.97.73-1.71,3.03-1.16,6.55.32,2.04,1.02,4.21,2.08,6.34,2.46-3.86,4-8.19,3.79-10.85-.07-.89-.32-1.44-.74-1.64-.69-.33-1.77-.76-2.73-.76Z"/></svg>