<?xml version="1.0" encoding="UTF-8"?><svg id="uuid-8dbb42f8-51d0-45a4-8bd4-ff535d3b3c3d" xmlns="http://www.w3.org/2000/svg" viewBox="0 0 767.44 706.9"><defs><style>.uuid-60046f82-7cd1-4f63-b5bf-8319d28faa81{fill:#282d33;}.uuid-8b62fc9d-fcdc-4476-bb96-3f75bf087cb2{fill:#0e74bb;}.uuid-a49f97cb-a251-47ce-b54b-43a82d3e651c{fill:#fff;}.uuid-4c9c8fe9-a0f8-44a3-b92d-3bc0367b75a7{isolation:isolate;}.uuid-71bbf615-0436-4e55-a8a6-805eb9ff60e8{fill:#080717;}.uuid-decb94da-a7b9-4d8c-8bc2-dcc309656206{fill:#1d1d1b;}</style></defs><circle class="uuid-8b62fc9d-fcdc-4476-bb96-3f75bf087cb2" cx="626.11" cy="451.14" r="44.45"/><path class="uuid-a49f97cb-a251-47ce-b54b-43a82d3e651c" d="M205.96,216.45c-12.93-35.73-41.18-59.98-75.89-52.99-26.63,5.37-48.12,27.82-58.04,55.01-4.3,11.8,5.91,23.78,18.22,21.3l115.71-23.32Z"/><path d="M86.98,242.73c-5.36,0-10.42-2.3-14.03-6.5-4.48-5.21-5.74-12.18-3.38-18.65,10.83-29.69,33.81-51.41,59.99-56.69,33.44-6.75,64.41,14.71,78.87,54.66.26.72.19,1.51-.18,2.18-.38.67-1.02,1.13-1.77,1.28l-115.71,23.32c-1.27.26-2.54.38-3.79.38ZM141.57,164.93c-3.62,0-7.28.36-10.98,1.11-24.39,4.92-45.89,25.36-56.09,53.34-1.7,4.66-.79,9.68,2.43,13.43,3.2,3.72,7.99,5.36,12.81,4.39l112.68-22.72c-12.2-31.15-35.17-49.56-60.85-49.56Z"/><path class="uuid-a49f97cb-a251-47ce-b54b-43a82d3e651c" d="M419.8,160.07c-1.31-38.07,10.47-68.62,46.89-77.03,38.34-8.86,76.24,13.87,89.78,49.48l-136.66,27.55Z"/><path d="M419.8,162.69c-.58,0-1.16-.19-1.63-.57-.6-.48-.97-1.2-.99-1.97-1.55-45.01,14.9-71.82,48.91-79.67,38.45-8.88,78.36,13.09,92.82,51.11.27.72.22,1.52-.15,2.2-.37.67-1.02,1.15-1.78,1.3l-136.66,27.55c-.17.03-.35.05-.52.05ZM483.35,83.77c-5.33,0-10.72.59-16.07,1.83-30.45,7.03-45.55,31.01-44.93,71.29l130.51-26.3c-12.2-28.63-40.05-46.82-69.51-46.82Z"/><circle class="uuid-71bbf615-0436-4e55-a8a6-805eb9ff60e8" cx="240.67" cy="34.48" r="34.48" transform="translate(40.06 171.83) rotate(-42.55)"/><path class="uuid-71bbf615-0436-4e55-a8a6-805eb9ff60e8" d="M292.81,164.93l-28.43,18.47c-32.68,21.23-76.79,11.86-98.02-20.82l-7.32-11.27c-26.58-40.92-14.85-96.15,26.07-122.74l10.43,9.24c25.65-16.66,60.27-9.31,76.94,16.34l33.05,50.88c12.97,19.97,7.25,46.92-12.72,59.89Z"/><path class="uuid-a49f97cb-a251-47ce-b54b-43a82d3e651c" d="M207.56,141.51l1.83-1.81c-21.84-17.79-26.75-49.63-10.51-73.25,17.09-24.87,51.11-31.17,75.98-14.08l67.55,46.43c23.98,16.48,30.63,48.67,15.77,73.24l-78.98,15.92-21.59-14.84-9.43,9.35c-11.31,11.21-29.57,11.14-40.78-.17-11.21-11.31-11.14-29.57.17-40.78Z"/><path d="M227.86,193.45h-.14c-8.4-.04-16.29-3.34-22.21-9.31-5.92-5.97-9.16-13.88-9.12-22.28.04-8.31,3.27-16.12,9.12-22.02-21.02-18.99-25.01-51.31-8.81-74.88,17.88-26.02,53.6-32.64,79.63-14.75l67.54,46.43c24.93,17.14,32.19,50.85,16.52,76.76-.38.63-1.01,1.07-1.73,1.21l-78.98,15.92c-.7.13-1.42-.01-2-.41l-19.8-13.61-7.89,7.83c-5.93,5.88-13.79,9.12-22.15,9.12ZM209.4,143.37c-4.97,4.93-7.73,11.5-7.76,18.51-.03,7,2.67,13.6,7.6,18.57,4.93,4.97,11.5,7.73,18.51,7.76h.12c6.96,0,13.51-2.7,18.46-7.6l9.43-9.35c.9-.89,2.3-1.01,3.33-.3l20.68,14.21,76.74-15.47c13.47-23.39,6.75-53.39-15.59-68.74l-67.54-46.43c-23.64-16.25-56.09-10.23-72.34,13.4-15.22,22.14-10.82,52.77,10.01,69.74.58.47.93,1.16.96,1.9.04.74-.25,1.47-.77,1.99l-1.83,1.81Z"/><path d="M326.81,132.07c-.13,0-.26-.01-.4-.03-1.43-.22-2.41-1.56-2.19-2.99.68-4.43-.99-8.75-4.45-11.58l-23.45-19.12c-1.12-.92-1.29-2.57-.38-3.69.92-1.12,2.57-1.29,3.69-.38l23.45,19.12c4.84,3.95,7.26,10.24,6.32,16.43-.2,1.3-1.32,2.22-2.59,2.22Z"/><path d="M327.62,101.74c-1.21,0-2.3-.84-2.56-2.08-.3-1.41.59-2.79,2-3.11.98-.23,9.32-2.62,7.04-16.55-.23-1.43.73-2.78,2.16-3.01,1.42-.23,2.78.73,3.01,2.16,3.15,19.25-10.96,22.49-11.1,22.52-.18.04-.37.06-.55.06Z"/><path d="M278.71,148.06c-3.12,0-5.27-.92-5.32-.95-1.32-.59-1.91-2.14-1.32-3.46.59-1.31,2.12-1.9,3.45-1.33.92.4,9.07,3.39,15.45-9.2.65-1.29,2.23-1.81,3.52-1.15,1.29.65,1.81,2.23,1.15,3.52-5.3,10.46-12.23,12.57-16.94,12.57Z"/><path d="M322,161.87c-2.16,0-3.59-.44-3.64-.45-1.38-.45-2.13-1.92-1.69-3.3.44-1.37,1.91-2.13,3.28-1.7.97.28,9.39,2.37,14.35-10.85.51-1.36,2.02-2.04,3.38-1.53,1.35.51,2.04,2.02,1.53,3.38-4.67,12.45-12.59,14.45-17.2,14.45Z"/><path class="uuid-71bbf615-0436-4e55-a8a6-805eb9ff60e8" d="M203.42,110.4l40.41,32.21c1.27,1.01,1.99,2.57,1.92,4.19h0c-.12,3.17-3.07,5.47-6.18,4.81l-36.26-6.47.1-34.75Z"/><path class="uuid-71bbf615-0436-4e55-a8a6-805eb9ff60e8" d="M168.57,89.85c-2.1,19.58,2.21,39.97,13.71,57.67l5.5,8.46c3.52-.91,6.96-2.36,10.18-4.45,15.97-10.37,20.5-31.73,10.13-47.69-8.68-13.37-25.05-18.68-39.52-13.99Z"/><path class="uuid-71bbf615-0436-4e55-a8a6-805eb9ff60e8" d="M214.61,42.07c10.09,15.53,5.68,36.29-9.85,46.37-15.53,10.09-36.29,5.68-46.37-9.85-10.09-15.53-5.68-36.29,9.85-46.37,15.53-10.09,36.29-5.68,46.37,9.85Z"/><path class="uuid-71bbf615-0436-4e55-a8a6-805eb9ff60e8" d="M232.25,23.59c10.37,15.97,5.84,37.32-10.13,47.69-15.97,10.37-37.32,5.84-47.69-10.13-10.37-15.97-5.84-37.32,10.13-47.69,15.97-10.37,37.32-5.84,47.69,10.13Z"/><path class="uuid-8b62fc9d-fcdc-4476-bb96-3f75bf087cb2" d="M95.73,651.69c-10.82,0-20.51-7.66-22.66-18.67L.43,261.3c-2.44-12.49,5.74-24.65,18.23-27.09l540.66-105.66c6.05-1.19,12.2.06,17.32,3.5,5.12,3.45,8.59,8.68,9.77,14.73l72.65,371.71c2.44,12.5-5.74,24.65-18.24,27.09l-.5-2.57.5,2.57-540.66,105.66c-1.49.29-2.97.43-4.44.43ZM563.79,133.36c-1.15,0-2.31.11-3.46.34L19.67,239.36c-4.68.92-8.72,3.6-11.39,7.55-2.66,3.95-3.62,8.71-2.71,13.39l72.65,371.72c1.89,9.66,11.29,15.98,20.94,14.09l540.66-105.66c9.66-1.89,15.98-11.28,14.09-20.94l-72.65-371.71c-.91-4.68-3.6-8.72-7.55-11.39-2.98-2-6.41-3.05-9.93-3.05Z"/><path class="uuid-8b62fc9d-fcdc-4476-bb96-3f75bf087cb2" d="M559.83,131.12L19.17,236.79c-11.1,2.17-18.33,12.92-16.16,24.02l2.93,14.98,580.84-113.52-2.93-14.98c-2.17-11.1-12.92-18.33-24.02-16.16Z"/><path class="uuid-a49f97cb-a251-47ce-b54b-43a82d3e651c" d="M33.05,251.84c.81,4.15-1.89,8.16-6.04,8.97-4.15.81-8.16-1.89-8.97-6.04-.81-4.14,1.89-8.16,6.04-8.97,4.15-.81,8.16,1.89,8.97,6.04Z"/><path class="uuid-a49f97cb-a251-47ce-b54b-43a82d3e651c" d="M53.71,247.8c.81,4.14-1.89,8.16-6.04,8.97-4.14.81-8.16-1.89-8.97-6.04-.81-4.14,1.89-8.16,6.04-8.97,4.15-.81,8.16,1.89,8.97,6.04Z"/><path class="uuid-a49f97cb-a251-47ce-b54b-43a82d3e651c" d="M74.37,243.76c.81,4.14-1.89,8.16-6.04,8.97-4.14.81-8.16-1.89-8.97-6.04-.81-4.15,1.89-8.16,6.04-8.97,4.15-.81,8.16,1.89,8.97,6.04Z"/><path class="uuid-71bbf615-0436-4e55-a8a6-805eb9ff60e8" d="M474.49,516.8l-4.91-1.83s.35-.94,1.09-2.57l4.78,2.16c-.62,1.39-.93,2.2-.95,2.24Z"/><path class="uuid-71bbf615-0436-4e55-a8a6-805eb9ff60e8" d="M477.58,510.19l-4.64-2.45c.72-1.36,1.57-2.88,2.54-4.52l4.5,2.69c-.93,1.55-1.73,2.98-2.41,4.27ZM482.61,501.76l-4.36-2.91c.91-1.37,1.9-2.78,2.97-4.23l4.21,3.12c-1.02,1.38-1.96,2.72-2.82,4.02ZM488.46,493.87l-4.05-3.33c1.06-1.3,2.19-2.6,3.38-3.91l3.88,3.52c-1.13,1.25-2.2,2.49-3.21,3.72ZM495.06,486.61l-3.69-3.73c1.2-1.19,2.46-2.37,3.78-3.55l3.48,3.92c-1.25,1.11-2.44,2.23-3.58,3.35ZM502.38,480.11l-3.26-4.11c1.33-1.05,2.71-2.09,4.14-3.11l3.03,4.28c-1.35.96-2.66,1.94-3.92,2.94ZM510.37,474.48l-2.76-4.45c1.45-.9,2.94-1.77,4.48-2.61l2.5,4.61c-1.45.79-2.86,1.61-4.22,2.45ZM518.95,469.83l-2.22-4.75c1.54-.72,3.13-1.41,4.77-2.06l1.94,4.87c-1.54.61-3.03,1.25-4.48,1.93ZM528.02,466.24l-1.64-4.98c1.62-.53,3.27-1.03,4.97-1.48l1.35,5.06c-1.6.43-3.16.9-4.68,1.4ZM537.46,463.72l-1.05-5.13c1.66-.34,3.36-.64,5.1-.91l.78,5.19c-1.64.25-3.25.53-4.82.85ZM547.13,462.27l-.5-5.22c1.69-.16,3.4-.28,5.15-.36l.24,5.24c-1.66.07-3.29.19-4.89.34ZM561.85,461.96c-1.67-.08-3.3-.13-4.91-.13l.02-5.24c1.69,0,3.41.05,5.16.14l-.27,5.24Z"/><path class="uuid-71bbf615-0436-4e55-a8a6-805eb9ff60e8" d="M569.37,462.58c-.86-.1-1.7-.19-2.55-.26l.48-5.22c.88.08,1.77.18,2.66.28l-.59,5.21Z"/><path class="uuid-decb94da-a7b9-4d8c-8bc2-dcc309656206" d="M53.64,381.65l4.56.87c1.07.2,2.37-.39,2.9-1.34l1.24-1.9c.65-.86.7-2.29.1-3.18l-2.61-3.85c-.61-.9-.37-2.12.52-2.72l5.95-4.05c.89-.6,2.12-.36,2.73.52l2.61,3.85c.61.89,1.95,1.38,2.99,1.09l2.22-.46c1.07-.14,2.11-1.12,2.31-2.18l.87-4.56c.2-1.06,1.25-1.76,2.3-1.56l7.07,1.36c1.05.2,1.75,1.24,1.54,2.3l-.87,4.56c-.2,1.06.4,2.36,1.35,2.88l1.9,1.25c.86.66,2.29.7,3.17.09l3.85-2.61c.89-.6,2.11-.36,2.72.52l4.04,5.96c.6.88.37,2.11-.52,2.72l-3.85,2.61c-.89.61-1.39,1.95-1.1,2.99l.45,2.22c.14,1.08,1.13,2.11,2.19,2.31l4.57.88c1.05.2,1.76,1.24,1.55,2.3l-1.35,7.06c-.2,1.06-1.24,1.76-2.29,1.56l-4.57-.88c-1.06-.2-2.36.4-2.89,1.34l-1.25,1.9c-.65.85-.69,2.29-.09,3.19l2.61,3.85c.6.89.36,2.12-.52,2.72l-5.96,4.04c-.89.61-2.11.37-2.72-.52l-2.61-3.85c-.6-.89-1.94-1.38-2.98-1.09l-2.23.46c-1.07.14-2.12,1.13-2.32,2.19l-.88,4.57c-.2,1.06-1.23,1.76-2.28,1.56l-7.07-1.36c-1.05-.2-1.76-1.23-1.56-2.3l.88-4.57c.2-1.06-.4-2.36-1.34-2.89l-1.89-1.25c-.86-.65-2.28-.69-3.18-.09l-3.85,2.61c-.89.6-2.13.37-2.73-.52l-4.03-5.95c-.61-.89-.37-2.12.52-2.72l3.85-2.61c.89-.61,1.38-1.96,1.09-2.99l-.45-2.23c-.14-1.07-1.13-2.11-2.2-2.31l-4.56-.88c-1.06-.2-1.76-1.23-1.55-2.3l1.35-7.06c.2-1.06,1.23-1.76,2.29-1.56ZM78.41,401.7c5.15.99,10.11-2.38,11.1-7.52.99-5.14-2.38-10.11-7.53-11.09-5.13-.98-10.1,2.38-11.09,7.52-.99,5.14,2.39,10.11,7.52,11.09Z"/><path class="uuid-71bbf615-0436-4e55-a8a6-805eb9ff60e8" d="M183.94,477.77s-.06-.91-.27-2.41l5.19-.71c.25,1.78.31,2.78.31,2.78l-5.23.35Z"/><path class="uuid-71bbf615-0436-4e55-a8a6-805eb9ff60e8" d="M182.78,470.25c-.31-1.52-.71-3.23-1.21-5.07l5.06-1.36c.53,1.96.94,3.77,1.28,5.38l-5.13,1.05ZM180.09,460.18c-.52-1.58-1.11-3.22-1.77-4.91l4.87-1.93c.71,1.78,1.33,3.52,1.88,5.19l-4.98,1.64ZM176.26,450.48c-.71-1.53-1.48-3.09-2.33-4.65l4.61-2.49c.9,1.66,1.72,3.31,2.48,4.94l-4.76,2.21ZM171.31,441.34c-.93-1.49-1.91-2.94-2.9-4.3l4.24-3.08c1.05,1.45,2.1,3,3.09,4.59l-4.44,2.79ZM165.24,432.94c-1.1-1.32-2.26-2.62-3.45-3.86l3.78-3.63c1.27,1.33,2.52,2.72,3.7,4.13l-4.03,3.36ZM158.07,425.49c-1.26-1.14-2.6-2.26-3.97-3.32l3.21-4.14c1.47,1.14,2.9,2.34,4.26,3.56l-3.51,3.9ZM149.9,419.16c-1.43-.95-2.91-1.86-4.41-2.71l2.58-4.56c1.6.91,3.19,1.88,4.73,2.91l-2.9,4.36ZM140.91,414.06c-1.54-.74-3.14-1.44-4.75-2.07l1.94-4.87c1.72.68,3.42,1.43,5.07,2.22l-2.26,4.73ZM131.28,410.22c-1.62-.53-3.28-1.02-4.99-1.47l1.33-5.07c1.82.48,3.58.99,5.29,1.55l-1.63,4.99Z"/><path class="uuid-71bbf615-0436-4e55-a8a6-805eb9ff60e8" d="M121.14,407.56c-.83-.17-1.66-.33-2.51-.48l.91-5.16c.89.16,1.77.32,2.64.5l-1.04,5.14Z"/><path class="uuid-71bbf615-0436-4e55-a8a6-805eb9ff60e8" d="M456.61,501.72l-5.14-1.03s.19-.93.61-2.65l5.09,1.25c-.38,1.55-.56,2.4-.56,2.43Z"/><path class="uuid-71bbf615-0436-4e55-a8a6-805eb9ff60e8" d="M458.46,494.4l-5.05-1.42c.42-1.49.91-3.17,1.49-5.03l5.01,1.56c-.56,1.81-1.04,3.44-1.45,4.89ZM461.48,484.64l-4.97-1.67c.53-1.56,1.1-3.21,1.73-4.94l4.93,1.78c-.61,1.69-1.17,3.29-1.68,4.82ZM464.96,475.04l-4.89-1.89c.61-1.57,1.25-3.19,1.94-4.85l4.85,2c-.67,1.63-1.3,3.21-1.9,4.74ZM468.84,465.6l-4.81-2.09c.68-1.56,1.39-3.14,2.13-4.76l4.76,2.2c-.73,1.58-1.43,3.14-2.09,4.66ZM473.12,456.33l-4.71-2.3c.74-1.53,1.52-3.09,2.33-4.66l4.66,2.39c-.79,1.54-1.55,3.07-2.28,4.57ZM477.79,447.24l-4.61-2.49c.81-1.51,1.66-3.03,2.53-4.56l4.56,2.59c-.85,1.5-1.68,2.99-2.48,4.47ZM482.83,438.37l-4.5-2.69c.88-1.47,1.79-2.96,2.72-4.45l4.44,2.79c-.91,1.46-1.8,2.91-2.66,4.35ZM488.25,429.74l-4.38-2.89c.95-1.44,1.92-2.88,2.92-4.32l4.31,2.98c-.98,1.41-1.93,2.82-2.85,4.23ZM494.06,421.35l-4.24-3.08c1.01-1.4,2.05-2.8,3.12-4.19l4.17,3.18c-1.04,1.36-2.05,2.72-3.04,4.08ZM500.23,413.25l-4.09-3.28c1.08-1.35,2.18-2.69,3.31-4.03l4.01,3.37c-1.1,1.31-2.18,2.62-3.23,3.94ZM506.79,405.45l-3.93-3.47c1.14-1.3,2.31-2.59,3.5-3.87l3.84,3.57c-1.16,1.25-2.3,2.51-3.41,3.77ZM513.71,397.99l-3.75-3.67c1.21-1.23,2.44-2.46,3.69-3.69l3.66,3.75c-1.22,1.19-2.42,2.39-3.6,3.6ZM521,390.89l-3.56-3.85c1.27-1.18,2.56-2.34,3.88-3.5l3.46,3.94c-1.29,1.13-2.54,2.26-3.78,3.4ZM528.65,384.19l-3.35-4.03c1.33-1.11,2.69-2.2,4.06-3.29l3.25,4.12c-1.34,1.05-2.66,2.12-3.95,3.2ZM536.63,377.89l-3.13-4.2c1.39-1.03,2.8-2.06,4.23-3.07l3.02,4.29c-1.39.98-2.76,1.98-4.12,2.98ZM544.95,372.04l-2.9-4.37c1.44-.96,2.9-1.9,4.39-2.83l2.79,4.44c-1.44.91-2.87,1.83-4.27,2.76ZM553.56,366.64l-2.67-4.52c1.49-.88,3-1.74,4.54-2.59l2.54,4.59c-1.49.82-2.96,1.67-4.41,2.52ZM562.45,361.71l-2.41-4.65c1.53-.8,3.09-1.58,4.66-2.34l2.3,4.71c-1.54.75-3.05,1.51-4.55,2.29ZM571.59,357.27l-2.17-4.78c1.57-.71,3.17-1.41,4.78-2.09l2.05,4.83c-1.57.67-3.13,1.35-4.66,2.04ZM580.96,353.31l-1.91-4.88c1.61-.63,3.24-1.25,4.88-1.84l1.79,4.93c-1.6.58-3.19,1.18-4.76,1.79ZM590.52,349.85l-1.66-4.97c1.64-.55,3.29-1.08,4.97-1.59l1.54,5.01c-1.64.5-3.25,1.02-4.85,1.55ZM600.25,346.87l-1.41-5.05c1.66-.46,3.34-.91,5.04-1.34l1.28,5.08c-1.66.42-3.3.85-4.92,1.31ZM610.12,344.38l-1.17-5.11c1.68-.38,3.38-.75,5.1-1.1l1.04,5.14c-1.68.34-3.34.69-4.97,1.07ZM620.09,342.36l-.92-5.16c1.69-.3,3.41-.59,5.13-.86l.81,5.18c-1.69.26-3.37.55-5.03.84ZM630.16,340.78l-.69-5.2c1.7-.23,3.43-.44,5.17-.64l.59,5.21c-1.7.19-3.39.4-5.06.62ZM640.29,339.65l-.47-5.22c1.71-.15,3.44-.29,5.19-.42l.37,5.23c-1.71.12-3.41.26-5.09.41Z"/><path class="uuid-71bbf615-0436-4e55-a8a6-805eb9ff60e8" d="M650.5,338.93l-.28-5.24c.88-.05,1.77-.08,2.66-.12l.22,5.24c-.87.04-1.74.07-2.6.12Z"/><polygon class="uuid-60046f82-7cd1-4f63-b5bf-8319d28faa81" points="216.21 376.94 164.91 376.94 164.91 279.62 262.23 279.62 262.23 329.61 256.99 329.61 256.99 284.86 170.15 284.86 170.15 371.7 216.21 371.7 216.21 376.94"/><polygon class="uuid-60046f82-7cd1-4f63-b5bf-8319d28faa81" points="262.23 376.94 233.31 376.94 233.31 371.7 256.99 371.7 256.99 348.01 262.23 348.01 262.23 376.94"/><path class="uuid-60046f82-7cd1-4f63-b5bf-8319d28faa81" d="M213.57,350.63c-12.33,0-22.35-10.03-22.35-22.35s10.03-22.35,22.35-22.35,22.35,10.03,22.35,22.35-10.03,22.35-22.35,22.35ZM213.57,311.17c-9.44,0-17.11,7.67-17.11,17.11s7.67,17.11,17.11,17.11,17.11-7.68,17.11-17.11-7.67-17.11-17.11-17.11Z"/><rect class="uuid-60046f82-7cd1-4f63-b5bf-8319d28faa81" x="233.3" y="325.66" width="146.03" height="5.24"/><polygon class="uuid-60046f82-7cd1-4f63-b5bf-8319d28faa81" points="262.23 587.41 164.91 587.41 164.91 490.08 213.57 490.08 213.57 495.33 170.15 495.33 170.15 582.17 256.99 582.17 256.99 495.33 233.3 495.33 233.3 490.08 262.23 490.08 262.23 587.41"/><path class="uuid-60046f82-7cd1-4f63-b5bf-8319d28faa81" d="M213.57,561.1c-12.33,0-22.35-10.03-22.35-22.35s10.03-22.35,22.35-22.35,22.35,10.03,22.35,22.35-10.03,22.35-22.35,22.35ZM213.57,521.64c-9.44,0-17.11,7.68-17.11,17.11s7.67,17.11,17.11,17.11,17.11-7.67,17.11-17.11-7.67-17.11-17.11-17.11Z"/><rect class="uuid-60046f82-7cd1-4f63-b5bf-8319d28faa81" x="210.95" y="372.98" width="5.24" height="146.03"/><polygon class="uuid-60046f82-7cd1-4f63-b5bf-8319d28faa81" points="380.62 519.02 375.38 519.02 375.38 490.08 404.31 490.08 404.31 495.33 380.62 495.33 380.62 519.02"/><rect class="uuid-60046f82-7cd1-4f63-b5bf-8319d28faa81" x="258.28" y="536.13" width="119.72" height="5.24"/><polygon class="uuid-60046f82-7cd1-4f63-b5bf-8319d28faa81" points="472.7 376.94 424.04 376.94 424.04 371.7 467.46 371.7 467.46 284.86 380.62 284.86 380.62 371.7 404.31 371.7 404.31 376.94 375.38 376.94 375.38 279.62 472.7 279.62 472.7 376.94"/><path class="uuid-60046f82-7cd1-4f63-b5bf-8319d28faa81" d="M424.04,350.63c-12.33,0-22.35-10.03-22.35-22.35s10.03-22.35,22.35-22.35,22.35,10.03,22.35,22.35-10.03,22.35-22.35,22.35ZM424.04,311.17c-9.44,0-17.11,7.67-17.11,17.11s7.68,17.11,17.11,17.11,17.11-7.68,17.11-17.11-7.67-17.11-17.11-17.11Z"/><rect class="uuid-60046f82-7cd1-4f63-b5bf-8319d28faa81" x="421.42" y="348.01" width="5.24" height="144.7"/><path class="uuid-8b62fc9d-fcdc-4476-bb96-3f75bf087cb2" d="M273.9,422.46c0-25.08,20.33-45.41,45.41-45.41s45.41,20.33,45.41,45.41c0,17.82-10.29,33.2-25.23,40.63v9.83h-40.37v-9.83c-14.94-7.43-25.23-22.81-25.23-40.63Z"/><rect x="294.08" y="477.57" width="50.46" height="5.24"/><rect x="294.08" y="488.03" width="50.46" height="5.24"/><rect x="301.9" y="498.49" width="34.82" height="5.24"/><rect x="316.69" y="427.5" width="5.24" height="40.37"/><rect x="309.22" y="424.88" width="20.18" height="5.24"/><path class="uuid-a49f97cb-a251-47ce-b54b-43a82d3e651c" d="M356.19,422.46h-5.24c0-17.45-14.19-31.64-31.64-31.64v-5.24c20.34,0,36.88,16.55,36.88,36.88Z"/><polygon class="uuid-71bbf615-0436-4e55-a8a6-805eb9ff60e8" points="610.67 571.52 520.66 559.09 430.65 546.66 473.51 626.78 516.37 706.9 535.85 643.38 589.39 680.67 611.37 649.11 557.83 611.82 610.67 571.52"/><g class="uuid-4c9c8fe9-a0f8-44a3-b92d-3bc0367b75a7"><path d="M724.89,352.83c-.53,0-1.05-.16-1.49-.47l-42.81-29.71c-.85-.59-1.27-1.63-1.08-2.65.19-1.02.98-1.83,1.99-2.06l39.93-9.17c.72-.16,1.48-.02,2.08.4l42.81,29.71c.85.59,1.27,1.63,1.08,2.65-.19,1.02-.98,1.83-1.99,2.06l-39.93,9.17c-.19.04-.39.07-.59.07ZM688.44,321.73l36.99,25.67,33.02-7.58-36.99-25.67-33.02,7.58Z"/><path d="M708.92,401.46c-.73,0-1.43-.3-1.93-.86-.64-.7-.85-1.69-.56-2.59l15.97-48.63c.29-.87,1.01-1.53,1.9-1.74l39.93-9.17c.92-.22,1.88.09,2.52.79.64.7.85,1.69.56,2.58l-15.97,48.63c-.29.87-1.01,1.53-1.9,1.74l-39.93,9.17c-.19.05-.39.07-.59.07ZM726.92,352.43l-14.06,42.81,33.96-7.8,14.06-42.81-33.96,7.8ZM748.85,389.68h.03-.03Z"/><path d="M708.92,401.46c-.53,0-1.05-.16-1.49-.47l-42.81-29.71c-.95-.66-1.36-1.87-1-2.97l15.97-48.63c.26-.79.87-1.4,1.66-1.67.78-.27,1.65-.14,2.33.33l42.81,29.71c.95.66,1.36,1.87,1,2.97l-15.97,48.63c-.26.79-.87,1.4-1.66,1.67-.27.09-.55.14-.83.14ZM669.2,368.09l38.32,26.59,14.27-43.44-38.32-26.59-14.27,43.44Z"/></g><rect class="uuid-60046f82-7cd1-4f63-b5bf-8319d28faa81" x="425.37" y="504.21" width="9.33" height="5.24" transform="translate(-170.83 791.03) rotate(-75)"/><rect class="uuid-60046f82-7cd1-4f63-b5bf-8319d28faa81" x="425.37" y="504.21" width="9.33" height="5.24" transform="translate(-170.83 791.03) rotate(-75)"/><rect class="uuid-60046f82-7cd1-4f63-b5bf-8319d28faa81" x="399.07" y="509.77" width="5.24" height="9.34" transform="translate(-246.14 434.95) rotate(-45.02)"/><rect class="uuid-60046f82-7cd1-4f63-b5bf-8319d28faa81" x="389.43" y="540.16" width="9.34" height="5.24" transform="translate(-127.05 120.5) rotate(-15)"/><rect class="uuid-60046f82-7cd1-4f63-b5bf-8319d28faa81" x="410.19" y="560.91" width="9.34" height="5.24" transform="translate(-236.6 819.02) rotate(-75.05)"/><rect class="uuid-60046f82-7cd1-4f63-b5bf-8319d28faa81" x="440.58" y="551.26" width="5.24" height="9.33" transform="translate(-263.33 476.62) rotate(-45.03)"/><rect class="uuid-60046f82-7cd1-4f63-b5bf-8319d28faa81" x="446.12" y="524.96" width="9.34" height="5.24" transform="translate(-121.57 135.21) rotate(-15.06)"/><path class="uuid-a49f97cb-a251-47ce-b54b-43a82d3e651c" d="M440.74,102.34c-3.98-4.86-10.96-6.43-16.72-3.38-39.71,21-40.79,56.57-40.82,58.08-.13,7.44,5.79,13.59,13.22,13.74,7.38.15,13.48-5.68,13.7-13.04.06-1.2,1.5-21.72,26.52-34.95,6.57-3.47,9.07-11.62,5.58-18.2-.43-.81-.93-1.56-1.49-2.24Z"/><path d="M396.7,173.4c-.1,0-.21,0-.32,0-8.86-.17-15.95-7.53-15.79-16.4.03-1.57,1.13-38.62,42.21-60.35,6.74-3.57,15.14-1.87,19.97,4.04.67.82,1.27,1.72,1.77,2.67,2.02,3.81,2.43,8.17,1.17,12.29-1.26,4.1-4.05,7.46-7.84,9.46-23.79,12.58-25.08,31.95-25.13,32.77-.25,8.6-7.42,15.53-16.05,15.53ZM430.3,100.03c-1.72,0-3.45.41-5.05,1.25-38.38,20.29-39.4,54.36-39.42,55.8-.11,5.99,4.67,10.95,10.65,11.07.07,0,.14,0,.21,0,5.81,0,10.64-4.67,10.81-10.5.13-2.42,1.98-23.47,27.92-37.19,2.55-1.35,4.43-3.61,5.28-6.37.85-2.77.58-5.72-.79-8.29-.34-.65-.75-1.25-1.2-1.81h0c-2.11-2.59-5.24-3.97-8.41-3.97Z"/><path class="uuid-a49f97cb-a251-47ce-b54b-43a82d3e651c" d="M447.55,90.72c-34.89,28.28-29.08,63.41-28.82,64.89,1.3,7.33,8.3,12.22,15.62,10.93,7.27-1.28,12.13-8.18,10.92-15.45-.17-1.18-2.73-21.6,19.26-39.43l-16.98-20.95Z"/><path d="M432.01,169.37c-7.66,0-14.47-5.5-15.86-13.3-.28-1.54-6.33-38.15,29.75-67.39,1.13-.91,2.77-.73,3.69.39.91,1.13.74,2.77-.39,3.69-33.7,27.31-28.14,60.98-27.89,62.39,1.05,5.9,6.7,9.83,12.59,8.81,5.82-1.03,9.76-6.61,8.78-12.44-.14-.99-3.01-23.09,20.2-41.89,1.13-.91,2.78-.73,3.69.39.91,1.13.74,2.77-.39,3.69-20.92,16.95-18.44,36.21-18.32,37.02,1.43,8.6-4.42,16.88-13.05,18.4-.94.17-1.88.25-2.8.25Z"/><path class="uuid-a49f97cb-a251-47ce-b54b-43a82d3e651c" d="M467.74,90.9c-29.78,27.59-24.51,59.62-24.26,61.03,1.31,7.35,8.32,12.25,15.67,10.95,7.3-1.3,12.18-8.22,10.97-15.51-.17-1.19-2.71-21.67,19.38-39.57l-21.75-16.89Z"/><path d="M456.78,165.7c-7.67,0-14.5-5.51-15.88-13.32-.25-1.41-5.76-34.86,25.06-63.41,1.06-.99,2.72-.92,3.7.14.99,1.06.92,2.72-.14,3.7-28.75,26.64-23.69,57.36-23.46,58.65,1.05,5.91,6.71,9.88,12.63,8.82,5.84-1.04,9.81-6.64,8.84-12.5-.14-.99-2.99-23.15,20.31-42.04,1.13-.91,2.78-.73,3.69.39.91,1.13.74,2.77-.39,3.69-21.02,17.04-18.55,36.35-18.43,37.17,1.43,8.61-4.45,16.92-13.11,18.46-.95.17-1.89.25-2.82.25Z"/><path class="uuid-a49f97cb-a251-47ce-b54b-43a82d3e651c" d="M491.6,100.82c-20.37,18.5-19.9,40.96-19.78,43.46.36,7.45,6.69,13.21,14.15,12.85,7.39-.36,13.11-6.59,12.85-13.97,0-.8.09-12.46,10.95-22.33l-18.17-20.01Z"/><path d="M485.3,159.77c-4.02,0-7.83-1.47-10.83-4.19-3.19-2.9-5.06-6.86-5.27-11.17-.13-2.62-.65-26.2,20.64-45.53,1.07-.97,2.73-.89,3.7.18.97,1.07.89,2.73-.18,3.7-19.5,17.71-19.04,39.02-18.92,41.39.14,2.91,1.4,5.59,3.56,7.54,2.15,1.96,4.96,2.97,7.85,2.82,5.92-.28,10.57-5.34,10.36-11.26-.01-1.46.25-13.86,11.81-24.36,1.07-.97,2.73-.9,3.7.18.97,1.07.89,2.73-.18,3.7-10.05,9.12-10.09,19.92-10.09,20.37.31,8.7-6.58,16.19-15.35,16.61-.27.01-.53.02-.8.02Z"/><path class="uuid-a49f97cb-a251-47ce-b54b-43a82d3e651c" d="M162.96,171.61c1.79-6.03-16.91-7.8-10.44-8.52,59.14-6.59,84.06,35.29,84.67,36.66,3,6.81-.07,14.77-6.87,17.79-6.75,2.99-14.63-.01-17.68-6.72-.52-1.09-9.8-19.44-37.99-21.94-7.4-.66-12.86-7.2-12.2-14.62.08-.91.25-1.8.5-2.65Z"/><path d="M224.91,221.31c-6.11,0-11.98-3.5-14.66-9.4-.33-.68-9.02-18.04-35.83-20.42-4.27-.38-8.14-2.4-10.89-5.69-2.76-3.3-4.07-7.48-3.68-11.77.1-1.07.3-2.13.6-3.16h0s.01-.06.01-.06c-.14-.61-1.54-1.75-7.44-3.68-2.63-.86-4.72-1.54-4.47-3.92.24-2.34,2.74-2.62,3.69-2.73,62.18-6.91,87.15,37.75,87.35,38.21,3.58,8.12-.1,17.65-8.21,21.24-2.1.93-4.3,1.37-6.47,1.37ZM165.47,172.36c-.2.69-.34,1.41-.41,2.13-.26,2.9.62,5.72,2.48,7.94,1.85,2.22,4.46,3.58,7.33,3.83,29.74,2.64,39.71,22.56,40.12,23.41,2.47,5.43,8.85,7.86,14.26,5.46,5.47-2.43,7.95-8.86,5.53-14.33-.17-.33-21.5-37.28-73.11-35.75,2.76,1.65,4.78,3.96,3.79,7.3h0Z"/><path class="uuid-a49f97cb-a251-47ce-b54b-43a82d3e651c" d="M152.18,163.53c43.12,12.55,51.38,47.19,51.71,48.66,1.64,7.26-2.92,14.48-10.17,16.13-7.2,1.63-14.35-2.84-16.05-10.01-.3-1.15-5.85-20.97-33.03-28.89l7.54-25.89Z"/><path d="M190.77,231.27c-7.27,0-13.9-5-15.65-12.36-.19-.74-5.33-19.44-31.21-26.97-1.39-.4-2.19-1.86-1.78-3.25.4-1.39,1.86-2.2,3.25-1.78,28.71,8.36,34.6,29.83,34.84,30.74,1.38,5.81,7.17,9.43,12.93,8.12,5.84-1.33,9.51-7.15,8.19-12.99-.32-1.41-8.24-34.6-49.88-46.72-1.39-.4-2.19-1.86-1.78-3.25.4-1.39,1.85-2.2,3.25-1.78,44.59,12.98,53.19,49.07,53.53,50.6,1.95,8.65-3.5,17.29-12.15,19.26-1.18.27-2.37.4-3.53.4Z"/><path class="uuid-a49f97cb-a251-47ce-b54b-43a82d3e651c" d="M133.63,171.52c38.14,13.9,45.69,45.47,46.01,46.87,1.64,7.29-2.92,14.51-10.2,16.16-7.23,1.63-14.41-2.86-16.12-10.05-.3-1.16-5.89-21.03-33.19-28.98l13.51-24Z"/><path d="M166.49,237.49c-7.3,0-13.96-5.02-15.72-12.39-.19-.74-5.39-19.5-31.38-27.07-1.39-.4-2.19-1.86-1.78-3.25.4-1.39,1.85-2.19,3.25-1.78,28.81,8.39,34.76,29.92,35,30.83,1.39,5.83,7.21,9.48,13.01,8.16,5.86-1.32,9.55-7.16,8.22-13.02-.29-1.28-7.53-31.56-44.35-44.98-1.36-.5-2.06-2-1.56-3.36.5-1.36,1.99-2.06,3.36-1.56,39.48,14.39,47.35,47.35,47.67,48.75,1.96,8.68-3.51,17.33-12.18,19.29-1.18.27-2.37.39-3.53.39Z"/><path class="uuid-a49f97cb-a251-47ce-b54b-43a82d3e651c" d="M115.48,189.91c25.95,9.16,34.22,30.05,35.07,32.4,2.56,7.01-1.05,14.77-8.07,17.33-6.96,2.54-14.64-1-17.26-7.9-.31-.74-4.91-11.46-18.75-16.34l9-25.49Z"/><path d="M137.91,243.07c-6.52,0-12.7-3.99-15.14-10.4-.15-.35-4.34-10.27-17.17-14.8-1.36-.48-2.08-1.98-1.6-3.35.48-1.36,1.98-2.07,3.35-1.6,14.76,5.21,19.77,16.54,20.3,17.82,2.13,5.61,8.38,8.47,13.94,6.44,2.73-1,4.92-3,6.14-5.64,1.23-2.64,1.35-5.6.36-8.33-.81-2.23-8.64-22.06-33.48-30.83-1.36-.48-2.08-1.98-1.6-3.35.48-1.37,1.98-2.07,3.35-1.6,27.11,9.58,35.77,31.51,36.66,33.98,1.48,4.05,1.29,8.43-.53,12.34-1.82,3.91-5.05,6.87-9.1,8.35-1.8.66-3.65.97-5.48.97Z"/><polygon class="uuid-60046f82-7cd1-4f63-b5bf-8319d28faa81" points="618.26 467.92 601.59 451.25 605.3 447.54 618.26 460.51 648.66 430.11 652.37 433.82 618.26 467.92"/></svg>