<?xml version="1.0" encoding="utf-8"?>
<!-- Generator: Adobe Illustrator 27.5.0, SVG Export Plug-In . SVG Version: 6.00 Build 0)  -->
<svg version="1.1" id="Layer_1" xmlns="http://www.w3.org/2000/svg" xmlns:xlink="http://www.w3.org/1999/xlink" x="0px" y="0px"
     viewBox="0 0 600 400" style="enable-background:new 0 0 600 400;" xml:space="preserve">
<rect style="fill:#FFFFFF;" width="600" height="400"/>
    <g>
	<g>
		<path style="fill:#66CEDB;" d="M216.172,145.12l-13.132,27.244c-14.504-8.428-32.732-14.308-43.904-14.308
			c-9.016,0-15.092,3.332-15.092,9.996c0,23.716,72.52,10.192,72.52,59.78c0,27.439-24.304,41.943-54.88,41.943
			c-22.932,0-46.452-8.624-62.72-21.952l13.524-26.852c14.112,12.348,35.28,20.58,49.588,20.58c10.976,0,17.836-4.116,17.836-11.956
			c0-24.304-72.52-9.8-72.52-58.408c0-25.284,21.756-41.356,54.684-41.356C181.873,129.832,202.061,135.908,216.172,145.12z"/>
        <path style="fill:#66CEDB;" d="M270.464,158.84v27.244h65.463v27.44h-65.463v27.636h74.675v27.44H235.576V131.4h107.408v27.439
			H270.464z"/>
        <path style="fill:#66CEDB;" d="M507.035,199.804c0,39.984-31.752,70.364-74.283,70.364c-42.336,0-74.088-30.184-74.088-70.364
			c0-39.983,31.752-69.58,74.088-69.58C475.283,130.224,507.035,160.016,507.035,199.804z M394.336,200
			c0,23.128,17.836,40.964,38.808,40.964c21.168,0,38.023-17.836,38.023-40.964s-16.855-40.572-38.023-40.572
			C411.976,159.428,394.336,176.872,394.336,200z"/>
	</g>

        <ellipse transform="matrix(0.9214 -0.3886 0.3886 0.9214 1.906 208.8699)" style="fill:#F8CF26;" cx="517.327" cy="99.723" rx="25.06" ry="25.06"/>
        <g>
		<g>
			<g>
				<g>
					<path style="fill:#34495E;" d="M164.795,270.767c-3.306,0-6.646-0.176-9.999-0.526c-5.316-0.56-10.521-1.502-15.471-2.8
						c-4.343-1.156-7.651-2.276-9.662-3.013l-2.481-0.936c-0.577-0.215-0.872-0.337-0.872-0.337l0.759-1.85
						c0.009,0.003,0.285,0.116,0.816,0.314l2.476,0.934c1.962,0.719,5.209,1.817,9.476,2.953c4.849,1.272,9.953,2.196,15.169,2.746
						c6.77,0.706,13.483,0.685,19.953-0.066c8.41-0.974,15.981-3.17,22.501-6.528c1.862-0.975,3.679-2.076,5.396-3.274
						c2-1.449,3.577-2.759,4.948-4.11c1.679-1.67,3.077-3.304,4.27-4.99c1.27-1.823,2.386-3.78,3.314-5.808
						c0.874-1.98,1.6-4.154,2.154-6.446c0.473-2.02,0.787-4.265,0.96-6.854c0.23-5.228-0.275-9.792-1.543-13.93
						c-1.359-4.542-3.778-8.774-6.999-12.244c-2.974-3.213-6.858-6.102-11.547-8.589c-7.901-4.168-16.624-6.669-25.059-9.088
						l-2.794-0.805c-4.496-1.312-9.144-2.669-13.468-4.562c-1.699-0.754-4.199-1.957-6.347-3.704
						c-1.505-1.189-3.48-3.229-4.281-6.147c-0.347-1.197-0.476-2.467-0.378-3.761c-0.001-0.456,0.09-0.933,0.178-1.394l0.073-0.396
						c0.008-0.049,0.02-0.098,0.036-0.146l0.104-0.326c0.148-0.471,0.302-0.958,0.57-1.442c0.955-2.021,2.881-3.762,5.394-4.846
						c1.899-0.847,4.097-1.372,6.706-1.602c2.162-0.187,4.392-0.169,6.627,0.056c3.664,0.328,7.573,1.072,12.29,2.341
						c3.629,0.987,7.249,2.176,11.07,3.633c3.258,1.254,6.563,2.689,9.825,4.264c1.581,0.755,3.114,1.56,4.426,2.254
						c0.459,0.24,0.909,0.494,1.355,0.747l0.863,0.484l0.006-0.012l12.664-26.272l1.802,0.868l-13.095,27.167
						c-0.134,0.278-0.435,0.547-0.737,0.612c-0.245,0.052-0.519,0-0.741-0.126l-0.001,0.001l-1.747-0.98
						c-0.427-0.242-0.858-0.486-1.301-0.718c-1.298-0.687-2.809-1.48-4.36-2.221c-3.217-1.553-6.471-2.966-9.675-4.2
						c-3.755-1.433-7.314-2.601-10.877-3.57c-4.6-1.238-8.399-1.962-11.955-2.28c-2.123-0.212-4.227-0.23-6.265-0.055
						c-2.384,0.21-4.372,0.682-6.078,1.442c-2.077,0.896-3.643,2.289-4.419,3.927c-0.2,0.364-0.317,0.736-0.441,1.13l-0.156,0.641
						c-0.074,0.39-0.144,0.757-0.145,1.1c-0.083,1.125,0.021,2.157,0.306,3.138c0.517,1.882,1.796,3.699,3.607,5.13
						c1.525,1.241,3.343,2.297,5.902,3.435c4.202,1.839,8.787,3.178,13.221,4.472l2.786,0.802
						c8.533,2.447,17.357,4.978,25.443,9.244c4.89,2.593,8.953,5.62,12.078,8.997c3.427,3.693,6.002,8.197,7.446,13.025
						c1.334,4.353,1.867,9.137,1.626,14.619c-0.181,2.722-0.511,5.072-1.011,7.206c-0.583,2.415-1.348,4.702-2.275,6.804
						c-0.983,2.148-2.159,4.21-3.501,6.138c-1.265,1.787-2.735,3.507-4.5,5.262c-1.448,1.428-3.098,2.8-5.196,4.319
						c-1.801,1.257-3.691,2.403-5.634,3.419c-6.741,3.473-14.542,5.739-23.191,6.74C171.78,270.568,168.307,270.767,164.795,270.767
						z"/>
				</g>
                <g>
					<path style="fill:#34495E;" d="M165.301,242.54c-0.596,0-1.197-0.014-1.802-0.042c-5.964-0.209-11.546-1.656-15.225-2.727
						c-4.285-1.27-8.628-2.927-12.916-4.925c-3.589-1.66-7.045-3.537-10.267-5.577c-2.926-1.796-5.342-3.604-7.376-5.156
						l-1.897-1.57l-1.275,2.532l-1.786-0.9l1.698-3.372c0.018-0.035,0.038-0.07,0.06-0.104c0.039-0.108,0.214-0.501,0.67-0.657
						c0.331-0.112,0.697-0.045,0.965,0.179l2.809,2.327c1.964,1.498,4.333,3.271,7.19,5.024c3.16,2.001,6.538,3.835,10.051,5.461
						c4.201,1.957,8.452,3.578,12.637,4.819c3.571,1.039,8.991,2.445,14.743,2.648c2.727,0.125,5.35-0.047,7.807-0.516
						c1.117-0.191,2.28-0.523,3.79-1.08c1.368-0.59,2.435-1.201,3.309-1.903c1.011-0.835,1.818-1.811,2.389-2.891
						c0.537-0.979,0.857-2.169,0.988-3.653c0.121-1.301-0.013-2.608-0.388-3.787c-0.367-1.161-1.019-2.303-1.884-3.304
						c-1.94-2.236-4.669-3.681-6.553-4.572c-2.635-1.246-5.383-2.175-7.724-2.92c-3.314-1.041-6.672-1.959-9.919-2.847
						c-1.945-0.532-3.871-1.059-5.765-1.604c-5.995-1.716-10.623-3.29-14.564-4.954c-4.745-1.996-8.823-4.284-12.121-6.802
						c-3.342-2.542-6.156-5.523-8.138-8.619c-1.634-2.473-2.889-5.199-3.829-8.321c-0.58-1.966-0.988-3.907-1.214-5.775
						c-0.182-1.327-0.217-2.064-0.218-2.095l1.998-0.091c0,0.007,0.033,0.689,0.204,1.929c0.215,1.775,0.601,3.607,1.148,5.461
						c0.881,2.927,2.056,5.481,3.589,7.801c1.864,2.913,4.515,5.716,7.673,8.118c3.164,2.415,7.095,4.619,11.685,6.55
						c3.866,1.633,8.422,3.182,14.338,4.875c1.888,0.544,3.805,1.067,5.741,1.597c3.265,0.893,6.641,1.815,9.995,2.869
						c2.407,0.767,5.234,1.723,7.976,3.019c2.047,0.97,5.021,2.549,7.209,5.071c1.044,1.205,1.832,2.592,2.28,4.01
						c0.455,1.43,0.618,3.011,0.473,4.571c-0.155,1.762-0.554,3.209-1.219,4.421c-0.687,1.301-1.66,2.48-2.886,3.493
						c-1.028,0.826-2.242,1.526-3.831,2.21c-1.679,0.621-2.952,0.982-4.176,1.19C169.698,242.343,167.535,242.54,165.301,242.54z"/>
				</g>
                <g>
					<path style="fill:#34495E;" d="M218.644,145.969l-0.862-0.536c-0.184-0.11-0.413-0.254-0.673-0.419
						c-0.471-0.298-1.046-0.663-1.738-1.05c-1.853-1.085-4.912-2.746-9.054-4.556c-8.753-3.867-19.553-6.741-29.636-7.887
						c-10.374-1.255-21.79-0.748-30.549,1.357c-4.298,0.986-7.591,2.196-9.598,3.038c-2.208,0.919-3.445,1.564-3.457,1.571
						l-0.929-1.771c0.053-0.028,1.318-0.689,3.615-1.646c2.077-0.871,5.485-2.124,9.912-3.139
						c8.969-2.154,20.649-2.678,31.239-1.397c10.268,1.167,21.281,4.099,30.208,8.042c4.227,1.847,7.36,3.549,9.243,4.652
						c0.712,0.398,1.318,0.781,1.814,1.095c0.242,0.153,0.456,0.289,0.644,0.4l0.878,0.546L218.644,145.969z"/>
				</g>
			</g>
		</g>
            <g>
			<g>
				<g>
					<path style="fill:#34495E;" d="M348.14,269.6H310.57v-2h36.569V242.16h-73.675c-0.552,0-1-0.447-1-1v-27.637
						c0-0.553,0.448-1,1-1h64.463v-25.439h-64.463c-0.552,0-1-0.448-1-1V158.84h2v26.244h64.463c0.553,0,1,0.448,1,1v27.439
						c0,0.553-0.447,1-1,1h-64.463v25.637h73.675c0.553,0,1,0.447,1,1V268.6C349.14,269.152,348.692,269.6,348.14,269.6z"/>
				</g>
                <g>
					<path style="fill:#34495E;" d="M249.486,269.6h-10.91c-0.552,0-1-0.447-1-1V131.4c0-0.552,0.448-1,1-1h53.809v2h-52.809V267.6
						h9.91V269.6z"/>
				</g>
                <g>
					<path style="fill:#34495E;" d="M345.984,159.84h-72.52v-2h71.52l0.001-27.439h0.999c0.553,0,1,0.448,1,1v27.439
						C346.984,159.392,346.537,159.84,345.984,159.84z"/>
				</g>
			</g>
		</g>
            <g>
			<g>
				<g>
					<path style="fill:#34495E;" d="M436.005,241.956c-0.617-0.042-1.146-0.064-1.675-0.088c-1.263-0.055-2.569-0.111-3.872-0.385
						c-3.152-0.395-6.57-1.422-10.37-3.123l-2.386-1.195c-0.557-0.294-1.056-0.615-1.539-0.926c-0.248-0.16-0.496-0.319-0.747-0.472
						c-1.08-0.615-2.048-1.381-2.983-2.122c-0.4-0.317-0.8-0.634-1.205-0.935c-6.036-5.16-9.386-10.982-11.143-14.964
						c-1.763-4.004-2.921-8.286-3.444-12.729c-0.103-0.527-0.121-1.068-0.138-1.546c-0.007-0.198-0.013-0.389-0.027-0.569
						l-0.138-2.853l1.998-0.097l0.136,2.823c0.015,0.178,0.022,0.398,0.03,0.628c0.015,0.425,0.03,0.865,0.114,1.312
						c0.511,4.314,1.617,8.405,3.299,12.226c1.673,3.792,4.863,9.336,10.56,14.208c0.368,0.27,0.784,0.6,1.201,0.931
						c0.877,0.694,1.783,1.412,2.756,1.966c0.29,0.176,0.552,0.345,0.814,0.513c0.469,0.302,0.911,0.587,1.373,0.831l2.327,1.166
						c3.577,1.602,6.811,2.575,9.844,2.959c1.223,0.254,2.391,0.304,3.628,0.357c0.55,0.024,1.099,0.048,1.646,0.089
						c0.466-0.012,1.022-0.044,1.577-0.075c0.321-0.019,0.642-0.036,0.963-0.051l1.315-0.069c0.206-0.025,0.473-0.069,0.739-0.113
						l3.002-0.482l2.903-0.782c0.25-0.066,0.499-0.131,0.742-0.211l1.148-0.444c0.278-0.11,0.567-0.22,0.855-0.33
						c0.492-0.187,0.982-0.373,1.46-0.58c5.331-2.472,10.242-6.369,13.809-10.965c3.268-4.164,5.004-8.301,6.025-11.051l0.92-2.746
						l0.427-1.84l1.947,0.455l-0.747,2.82l-0.661,1.977c-1.08,2.906-2.897,7.235-6.334,11.615
						c-3.755,4.839-8.93,8.945-14.566,11.559c-0.528,0.23-1.047,0.427-1.568,0.626c-0.279,0.105-0.56,0.212-0.838,0.323
						l-1.204,0.464c-0.328,0.109-0.616,0.186-0.906,0.262l-2.942,0.794c-0.033,0.009-0.067,0.016-0.102,0.021l-3.045,0.487
						c-0.298,0.05-0.597,0.099-0.896,0.133l-1.386,0.075c-0.321,0.014-0.634,0.031-0.946,0.05
						C437.171,241.913,436.588,241.946,436.005,241.956z"/>
				</g>
                <g>
					<path style="fill:#34495E;" d="M472.243,191.06l-0.645-2.735c-0.473-1.564-1.213-4.017-2.518-6.722
						c-0.263-0.649-0.603-1.242-0.962-1.87l-0.107-0.187c-0.147-0.253-0.296-0.519-0.445-0.787c-0.259-0.46-0.521-0.931-0.811-1.395
						c-0.211-0.291-0.455-0.643-0.702-0.999c-0.764-1.1-1.553-2.238-2.502-3.257c-2.669-3.118-5.732-5.714-8.883-7.54
						c-3.379-2.007-7.114-3.497-10.814-4.313c-0.574-0.118-1.162-0.206-1.743-0.294c-0.333-0.05-0.663-0.1-0.989-0.154l-0.48-0.075
						c-0.27-0.044-0.537-0.088-0.805-0.115l-2.226-0.113c-0.541-0.029-1.072-0.058-1.592-0.073l-2.31,0.122
						c-1.088,0.01-2.064,0.169-3.009,0.324c-0.362,0.059-0.714,0.116-1.055,0.163c-0.839,0.095-1.585,0.297-2.244,0.477
						c-0.281,0.077-0.55,0.149-0.804,0.21c-1.619,0.377-2.509,0.757-2.518,0.761l-0.797-1.835c0.042-0.018,1.045-0.45,2.856-0.872
						c0.231-0.055,0.477-0.122,0.737-0.193c0.729-0.198,1.553-0.422,2.521-0.531c0.301-0.041,0.636-0.096,0.98-0.153
						c0.972-0.158,2.072-0.338,3.272-0.348l2.344-0.121c0.616,0.014,1.165,0.043,1.725,0.074l2.267,0.117
						c0.356,0.034,0.665,0.083,0.977,0.134l0.465,0.073c0.34,0.057,0.658,0.104,0.98,0.153c0.615,0.093,1.239,0.187,1.863,0.315
						c3.918,0.865,7.857,2.435,11.407,4.544c3.336,1.932,6.576,4.677,9.362,7.933c1.018,1.093,1.85,2.291,2.653,3.449
						c0.241,0.348,0.479,0.691,0.72,1.026c0.343,0.545,0.622,1.042,0.896,1.531c0.145,0.259,0.287,0.514,0.433,0.765l0.11,0.191
						c0.378,0.66,0.768,1.342,1.056,2.059c1.346,2.782,2.112,5.326,2.619,7.009l0.661,2.794L472.243,191.06z"/>
				</g>
                <g>
					<path style="fill:#34495E;" d="M398.335,200.048l-1.998-0.096l0.156-3.303c0.025-0.571,0.053-1.217,0.183-1.924
						c0.384-3.485,1.397-7.54,2.77-11.054c1.484-3.573,3.572-7.196,5.736-9.96c0.634-0.824,1.262-1.52,1.766-2.08
						c0.251-0.279,0.478-0.53,0.666-0.755c0.338-0.397,0.609-0.68,0.835-0.871l0.229-0.216l1.371,1.456l-0.271,0.253
						c-0.114,0.098-0.297,0.27-0.636,0.668c-0.198,0.236-0.44,0.504-0.709,0.803c-0.506,0.561-1.079,1.198-1.671,1.967
						c-2.063,2.634-4.051,6.087-5.461,9.481c-1.304,3.338-2.271,7.208-2.647,10.597c-0.115,0.64-0.139,1.189-0.161,1.719
						L398.335,200.048z"/>
				</g>
			</g>
                <g>
				<g>
					<path style="fill:#34495E;" d="M435.745,271.168c-3.16-0.052-6.512-0.157-9.82-0.571c-3.407-0.344-6.714-1.011-9.497-1.616
						c-2.969-0.746-6.097-1.586-9.065-2.717c-10.701-3.855-20.689-10.396-28.105-18.414c-3.065-3.283-5.833-6.899-8.223-10.744
						c-2.108-3.377-3.603-6.581-4.788-9.269c-0.2-0.514-0.383-0.964-0.558-1.395c-0.321-0.792-0.625-1.539-0.857-2.249l-0.905-2.655
						l-0.657-2.308l1.924-0.545l0.642,2.256l0.893,2.617c0.215,0.656,0.506,1.373,0.815,2.132c0.179,0.441,0.365,0.901,0.552,1.384
						c1.138,2.58,2.595,5.703,4.639,8.976c2.321,3.735,5.009,7.248,7.989,10.439c7.207,7.789,16.913,14.145,27.336,17.9
						c2.889,1.1,5.948,1.921,8.827,2.645c2.696,0.587,5.934,1.24,9.265,1.576c3.238,0.405,6.524,0.508,9.597,0.559
						c3.05-0.049,6.353-0.15,9.616-0.558c12.634-1.339,25.096-5.977,35.109-13.06c4.98-3.573,9.279-7.518,12.774-11.72
						c3.374-4.021,6.253-8.386,8.561-12.975c3.468-6.899,5.712-14.375,6.67-22.222c0.178-1.225,0.258-2.339,0.329-3.322l0.031-0.425
						c0.084-0.929,0.129-1.822,0.139-2.748l0.059-2.361l2,0.05l-0.059,2.345c-0.01,0.966-0.058,1.912-0.146,2.879l-0.029,0.403
						c-0.073,1.018-0.157,2.171-0.343,3.444c-0.982,8.052-3.293,15.749-6.864,22.854c-2.378,4.728-5.344,9.222-8.814,13.358
						c-3.6,4.33-8.025,8.391-13.148,12.066c-10.293,7.281-23.091,12.045-36.04,13.417
						C442.252,271.014,438.885,271.118,435.745,271.168z"/>
				</g>
                    <g>
					<path style="fill:#34495E;" d="M364.583,183.414l-1.947-0.456l0.305-1.306c0.098-0.337,0.189-0.662,0.294-1.029
						c0.208-0.736,0.464-1.637,0.786-2.681c1.402-4.357,3.247-8.586,5.487-12.583c3.306-5.781,7.297-10.929,11.867-15.307
						c2.881-2.755,5.64-5.035,8.435-6.969c3.052-2.123,6.318-4.056,9.707-5.742c3.228-1.576,6.75-2.988,10.472-4.199
						c3.07-0.999,6.439-1.829,10.601-2.608c6.367-1.088,13.036-1.505,19.297-1.214c5.9,0.268,10.643,1.08,13.581,1.713
						c1.26,0.235,2.333,0.511,3.117,0.711l1.911,0.483l-0.488,1.939l-1.92-0.485c-0.799-0.205-1.793-0.46-3.015-0.689
						c-2.891-0.623-7.515-1.414-13.278-1.676c-6.123-0.288-12.641,0.123-18.852,1.185c-4.06,0.761-7.349,1.569-10.335,2.541
						c-3.634,1.183-7.068,2.559-10.207,4.091c-3.295,1.64-6.477,3.523-9.45,5.591c-2.71,1.875-5.389,4.089-8.192,6.771
						c-4.431,4.245-8.303,9.241-11.51,14.848c-2.171,3.872-3.963,7.979-5.32,12.198c-0.313,1.015-0.564,1.901-0.77,2.625
						c-0.106,0.375-0.2,0.708-0.285,0.993L364.583,183.414z"/>
				</g>
                    <g>
					<path style="fill:#34495E;" d="M509.035,199.829l-0.065-2.567c-0.002-0.79-0.065-1.721-0.161-2.885l-0.241-2.629l-0.143-1.128
						c-0.778-6.464-2.797-13.522-5.537-19.371c-2.649-5.888-6.711-11.997-11.152-16.776l-0.513-0.559
						c-0.283-0.31-0.557-0.612-0.834-0.893l-1.281-1.262c-0.811-0.827-1.563-1.489-2.111-1.972l-1.909-1.653l1.256-1.557
						l0.522,0.421l1.455,1.29c0.711,0.626,1.418,1.257,2.203,2.058l1.278,1.259c0.306,0.31,0.599,0.63,0.899,0.961l0.498,0.543
						c4.584,4.934,8.777,11.24,11.506,17.305c2.82,6.02,4.902,13.3,5.705,19.96l0.251,1.988l0.142,1.857
						c0.099,1.205,0.165,2.182,0.167,3.015l0.065,2.544L509.035,199.829z"/>
				</g>
			</g>
		</g>
	</g>
        <g>
		<rect x="71.413" y="268.775" style="fill:#34495E;" width="119.988" height="2"/>
	</g>
        <g>
		<rect x="200.531" y="268.775" style="fill:#34495E;" width="21.389" height="2"/>
	</g>
        <g>
		<rect x="356.776" y="267.6" style="fill:#34495E;" width="28.693" height="2"/>
	</g>
        <g>
		<rect x="397.336" y="269.168" style="fill:#34495E;" width="79.818" height="2"/>
	</g>
        <g>
		<rect x="486.003" y="269.168" style="fill:#34495E;" width="16.664" height="2"/>
	</g>
        <g>
		<g>
			<path style="fill:#F8CF26;" d="M412.776,358.428h-52c-2.757,0-5-2.243-5-5v-43c0-0.553,0.447-1,1-1h60c0.553,0,1,0.447,1,1v43
				C417.776,356.185,415.533,358.428,412.776,358.428z M357.776,311.428v42c0,1.654,1.346,3,3,3h52c1.654,0,3-1.346,3-3v-42H357.776
				z"/>
		</g>
            <g>
			<path style="fill:#34495E;" d="M412.776,349.428h-35c-0.553,0-1-0.447-1-1v-25c0-0.553,0.447-1,1-1h35c0.553,0,1,0.447,1,1v25
				C413.776,348.98,413.329,349.428,412.776,349.428z M378.776,347.428h33v-23h-33V347.428z"/>
		</g>
            <g>
			<path style="fill:#E74C3C;" d="M373.776,358.428h-12c-0.553,0-1-0.447-1-1v-18c0-3.859,3.141-7,7-7c3.859,0,7,3.141,7,7v18
				C374.776,357.98,374.329,358.428,373.776,358.428z M362.776,356.428h10v-17c0-2.757-2.243-5-5-5c-2.757,0-5,2.243-5,5V356.428z"
            />
		</g>
            <g>
			<rect x="356.777" y="299.428" style="fill:#66CEDB;" width="60" height="11"/>
                <path style="fill:#34495E;" d="M416.776,311.428h-60c-0.553,0-1-0.447-1-1v-11c0-0.553,0.447-1,1-1h60c0.553,0,1,0.447,1,1v11
				C417.776,310.98,417.329,311.428,416.776,311.428z M357.776,309.428h58v-9h-58V309.428z"/>
		</g>
            <g>
			<rect x="366.776" y="333.428" style="fill:#E74C3C;" width="2" height="24"/>
		</g>
            <g>
			<rect x="361.776" y="338.428" style="fill:#E74C3C;" width="12" height="2"/>
		</g>
            <g>
			<rect x="361.776" y="344.428" style="fill:#E74C3C;" width="12" height="2"/>
		</g>
            <g>
			<rect x="361.776" y="350.428" style="fill:#E74C3C;" width="12" height="2"/>
		</g>
            <g>
			<path style="fill:#E74C3C;" d="M381.277,330.428L381.277,330.428c-1.933,0-3.5-1.567-3.5-3.5v-3.5h7v3.5
				C384.777,328.861,383.21,330.428,381.277,330.428z"/>
                <path style="fill:#34495E;" d="M381.276,331.428c-2.482,0-4.5-2.018-4.5-4.5v-3.5c0-0.553,0.447-1,1-1h7c0.553,0,1,0.447,1,1v3.5
				C385.776,329.409,383.758,331.428,381.276,331.428z M378.776,324.428v2.5c0,1.379,1.121,2.5,2.5,2.5s2.5-1.121,2.5-2.5v-2.5
				H378.776z"/>
		</g>
            <g>
			<path style="fill:#34495E;" d="M388.276,331.428c-2.482,0-4.5-2.018-4.5-4.5v-3.5c0-0.553,0.447-1,1-1h7c0.553,0,1,0.447,1,1v3.5
				C392.776,329.409,390.758,331.428,388.276,331.428z M385.776,324.428v2.5c0,1.379,1.121,2.5,2.5,2.5s2.5-1.121,2.5-2.5v-2.5
				H385.776z"/>
		</g>
            <g>
			<path style="fill:#E74C3C;" d="M395.277,330.428L395.277,330.428c-1.933,0-3.5-1.567-3.5-3.5v-3.5h7v3.5
				C398.777,328.861,397.21,330.428,395.277,330.428z"/>
                <path style="fill:#34495E;" d="M395.276,331.428c-2.482,0-4.5-2.018-4.5-4.5v-3.5c0-0.553,0.447-1,1-1h7c0.553,0,1,0.447,1,1v3.5
				C399.776,329.409,397.758,331.428,395.276,331.428z M392.776,324.428v2.5c0,1.379,1.121,2.5,2.5,2.5s2.5-1.121,2.5-2.5v-2.5
				H392.776z"/>
		</g>
            <g>
			<path style="fill:#34495E;" d="M402.276,331.428c-2.482,0-4.5-2.018-4.5-4.5v-3.5c0-0.553,0.447-1,1-1h7c0.553,0,1,0.447,1,1v3.5
				C406.776,329.409,404.758,331.428,402.276,331.428z M399.776,324.428v2.5c0,1.379,1.121,2.5,2.5,2.5s2.5-1.121,2.5-2.5v-2.5
				H399.776z"/>
		</g>
            <g>
			<path style="fill:#E74C3C;" d="M409.277,330.428L409.277,330.428c-1.933,0-3.5-1.567-3.5-3.5v-3.5h7v3.5
				C412.777,328.861,411.21,330.428,409.277,330.428z"/>
                <path style="fill:#34495E;" d="M409.276,331.428c-2.482,0-4.5-2.018-4.5-4.5v-3.5c0-0.553,0.447-1,1-1h7c0.553,0,1,0.447,1,1v3.5
				C413.776,329.409,411.758,331.428,409.276,331.428z M406.776,324.428v2.5c0,1.379,1.121,2.5,2.5,2.5s2.5-1.121,2.5-2.5v-2.5
				H406.776z"/>
		</g>
            <g>
			<rect x="358.777" y="295.428" style="fill:#66CEDB;" width="56" height="4"/>
                <path style="fill:#34495E;" d="M414.776,300.428h-56c-0.553,0-1-0.447-1-1v-4c0-0.553,0.447-1,1-1h56c0.553,0,1,0.447,1,1v4
				C415.776,299.98,415.329,300.428,414.776,300.428z M359.776,298.428h54v-2h-54V298.428z"/>
		</g>
            <g>

				<rect x="382.912" y="337.928" transform="matrix(0.7071 -0.7071 0.7071 0.7071 -125.6417 374.5296)" style="fill:#66CEDB;" width="12.728" height="2"/>
		</g>
            <g>

				<rect x="393.912" y="337.928" transform="matrix(0.7071 -0.7071 0.7071 0.7071 -122.4199 382.3077)" style="fill:#66CEDB;" width="12.728" height="2"/>
		</g>
            <g>
			<path style="fill:#34495E;" d="M359.776,320.428c-2.206,0-4-1.794-4-4v-6c0-0.553,0.447-1,1-1h6c0.553,0,1,0.447,1,1v6
				C363.776,318.634,361.982,320.428,359.776,320.428z M357.776,311.428v5c0,1.103,0.897,2,2,2c1.102,0,2-0.897,2-2v-5H357.776z"/>
		</g>
            <g>
			<path style="fill:#E74C3C;" d="M365.777,319.428L365.777,319.428c-1.657,0-3-1.343-3-3v-6h6v6
				C368.777,318.085,367.433,319.428,365.777,319.428z"/>
                <path style="fill:#34495E;" d="M365.776,320.428c-2.206,0-4-1.794-4-4v-6c0-0.553,0.447-1,1-1h6c0.553,0,1,0.447,1,1v6
				C369.776,318.634,367.982,320.428,365.776,320.428z M363.776,311.428v5c0,1.103,0.897,2,2,2c1.102,0,2-0.897,2-2v-5H363.776z"/>
		</g>
            <g>
			<path style="fill:#34495E;" d="M371.776,320.428c-2.206,0-4-1.794-4-4v-6c0-0.553,0.447-1,1-1h6c0.553,0,1,0.447,1,1v6
				C375.776,318.634,373.982,320.428,371.776,320.428z M369.776,311.428v5c0,1.103,0.897,2,2,2c1.102,0,2-0.897,2-2v-5H369.776z"/>
		</g>
            <g>
			<path style="fill:#E74C3C;" d="M377.777,319.428L377.777,319.428c-1.657,0-3-1.343-3-3v-6h6v6
				C380.777,318.085,379.433,319.428,377.777,319.428z"/>
                <path style="fill:#34495E;" d="M377.776,320.428c-2.206,0-4-1.794-4-4v-6c0-0.553,0.447-1,1-1h6c0.553,0,1,0.447,1,1v6
				C381.776,318.634,379.982,320.428,377.776,320.428z M375.776,311.428v5c0,1.103,0.897,2,2,2c1.102,0,2-0.897,2-2v-5H375.776z"/>
		</g>
            <g>
			<path style="fill:#34495E;" d="M383.776,320.428c-2.206,0-4-1.794-4-4v-6c0-0.553,0.447-1,1-1h6c0.553,0,1,0.447,1,1v6
				C387.776,318.634,385.982,320.428,383.776,320.428z M381.776,311.428v5c0,1.103,0.897,2,2,2c1.102,0,2-0.897,2-2v-5H381.776z"/>
		</g>
            <g>
			<path style="fill:#E74C3C;" d="M389.777,319.428L389.777,319.428c-1.657,0-3-1.343-3-3v-6h6v6
				C392.777,318.085,391.433,319.428,389.777,319.428z"/>
                <path style="fill:#34495E;" d="M389.776,320.428c-2.206,0-4-1.794-4-4v-6c0-0.553,0.447-1,1-1h6c0.553,0,1,0.447,1,1v6
				C393.776,318.634,391.982,320.428,389.776,320.428z M387.776,311.428v5c0,1.103,0.897,2,2,2c1.102,0,2-0.897,2-2v-5H387.776z"/>
		</g>
            <g>
			<path style="fill:#34495E;" d="M395.776,320.428c-2.206,0-4-1.794-4-4v-6c0-0.553,0.447-1,1-1h6c0.553,0,1,0.447,1,1v6
				C399.776,318.634,397.982,320.428,395.776,320.428z M393.776,311.428v5c0,1.103,0.897,2,2,2c1.102,0,2-0.897,2-2v-5H393.776z"/>
		</g>
            <g>
			<path style="fill:#E74C3C;" d="M401.777,319.428L401.777,319.428c-1.657,0-3-1.343-3-3v-6h6v6
				C404.777,318.085,403.433,319.428,401.777,319.428z"/>
                <path style="fill:#34495E;" d="M401.776,320.428c-2.206,0-4-1.794-4-4v-6c0-0.553,0.447-1,1-1h6c0.553,0,1,0.447,1,1v6
				C405.776,318.634,403.982,320.428,401.776,320.428z M399.776,311.428v5c0,1.103,0.897,2,2,2c1.102,0,2-0.897,2-2v-5H399.776z"/>
		</g>
            <g>
			<path style="fill:#34495E;" d="M407.776,320.428c-2.206,0-4-1.794-4-4v-6c0-0.553,0.447-1,1-1h6c0.553,0,1,0.447,1,1v6
				C411.776,318.634,409.982,320.428,407.776,320.428z M405.776,311.428v5c0,1.103,0.897,2,2,2c1.102,0,2-0.897,2-2v-5H405.776z"/>
		</g>
            <g>
			<path style="fill:#E74C3C;" d="M413.777,319.428L413.777,319.428c-1.657,0-3-1.343-3-3v-6h6v6
				C416.777,318.085,415.433,319.428,413.777,319.428z"/>
                <path style="fill:#34495E;" d="M413.776,320.428c-2.206,0-4-1.794-4-4v-6c0-0.553,0.447-1,1-1h6c0.553,0,1,0.447,1,1v6
				C417.776,318.634,415.982,320.428,413.776,320.428z M411.776,311.428v5c0,1.103,0.897,2,2,2c1.102,0,2-0.897,2-2v-5H411.776z"/>
		</g>
	</g>
        <g>
		<g>
			<path style="fill:#34495E;" d="M434.85,232.196c-17.645,0-32-14.355-32-32c0-17.645,14.355-32,32-32s32,14.355,32,32
				C466.85,217.841,452.494,232.196,434.85,232.196z M434.85,170.196c-16.542,0-30,13.458-30,30s13.458,30,30,30
				c16.542,0,30-13.458,30-30S451.392,170.196,434.85,170.196z"/>
		</g>
            <g>
			<path style="fill:#34495E;" d="M434.85,188.566c-9.741,0-18.82-2.458-24.911-6.743c-0.225-0.158-0.375-0.402-0.414-0.674
				c-0.04-0.272,0.034-0.548,0.204-0.764c6.117-7.746,15.274-12.189,25.121-12.189c9.848,0,19.004,4.443,25.121,12.189
				c0.17,0.216,0.244,0.492,0.204,0.764c-0.039,0.272-0.189,0.516-0.414,0.674C453.67,186.108,444.591,188.566,434.85,188.566z
				 M411.983,180.788c5.743,3.682,13.999,5.778,22.866,5.778c8.867,0,17.123-2.096,22.866-5.778
				c-5.722-6.745-13.995-10.592-22.866-10.592C425.978,170.196,417.705,174.043,411.983,180.788z"/>
		</g>
            <g>
			<path style="fill:#34495E;" d="M434.85,232.196c-9.848,0-19.004-4.443-25.121-12.189c-0.17-0.216-0.244-0.492-0.204-0.765
				c0.039-0.271,0.19-0.516,0.414-0.673c6.091-4.286,15.171-6.744,24.911-6.744s18.82,2.458,24.911,6.744
				c0.225,0.157,0.375,0.401,0.414,0.673c0.04,0.272-0.034,0.549-0.204,0.765C453.853,227.753,444.697,232.196,434.85,232.196z
				 M411.983,219.604c5.722,6.746,13.995,10.593,22.866,10.593c8.871,0,17.145-3.847,22.866-10.593
				c-5.744-3.682-14-5.778-22.866-5.778C425.983,213.825,417.727,215.922,411.983,219.604z"/>
		</g>
            <g>
			<rect x="458.85" y="199.196" style="fill:#34495E;" width="8" height="2"/>
		</g>
            <g>
			<rect x="402.85" y="199.196" style="fill:#34495E;" width="8" height="2"/>
		</g>
            <g>
			<rect x="433.85" y="209.196" style="fill:#34495E;" width="2" height="23"/>
		</g>
            <g>
			<rect x="433.85" y="168.196" style="fill:#34495E;" width="2" height="23"/>
		</g>
            <g>
			<path style="fill:#34495E;" d="M434.85,232.196c-7.645,0-14.225-9.181-16.372-22.845c-0.045-0.289,0.038-0.583,0.229-0.806
				c0.189-0.222,0.468-0.35,0.76-0.35h30.768c0.292,0,0.57,0.128,0.76,0.35c0.19,0.223,0.273,0.517,0.228,0.806
				C449.074,223.016,442.495,232.196,434.85,232.196z M420.648,210.196c2.132,11.836,7.886,20,14.201,20
				c6.315,0,12.069-8.164,14.201-20H420.648z"/>
		</g>
            <g>
			<path style="fill:#34495E;" d="M450.233,192.196h-30.768c-0.292,0-0.57-0.128-0.76-0.35c-0.19-0.222-0.273-0.516-0.229-0.805
				c2.148-13.664,8.727-22.845,16.372-22.845c7.646,0,14.225,9.181,16.372,22.845c0.045,0.289-0.038,0.583-0.228,0.805
				C450.804,192.068,450.525,192.196,450.233,192.196z M420.648,190.196h28.402c-2.132-11.836-7.885-20-14.201-20
				C428.533,170.196,422.78,178.36,420.648,190.196z"/>
		</g>
            <g>
			<path style="fill:#66CEDB;" d="M455.85,210.196h-42c-2.206,0-4-1.794-4-4v-12c0-2.206,1.794-4,4-4h42c2.206,0,4,1.794,4,4v12
				C459.85,208.402,458.056,210.196,455.85,210.196z M413.85,192.196c-1.102,0-2,0.897-2,2v12c0,1.102,0.898,2,2,2h42
				c1.103,0,2-0.898,2-2v-12c0-1.103-0.897-2-2-2H413.85z"/>
		</g>
            <polygon style="fill:#E74C3C;" points="414.85,194.196 415.85,206.196 418.85,206.196 420.85,199.196 422.85,206.196
			425.85,206.196 426.85,194.196 424.85,194.196 423.85,203.196 421.85,194.196 419.85,194.196 417.85,203.196 416.85,194.196 		"/>
            <polygon style="fill:#E74C3C;" points="428.85,194.196 429.85,206.196 432.85,206.196 434.85,199.196 436.85,206.196
			439.85,206.196 440.85,194.196 438.85,194.196 437.85,203.196 435.85,194.196 433.85,194.196 431.85,203.196 430.85,194.196 		"/>
            <polygon style="fill:#E74C3C;" points="442.85,194.196 443.85,206.196 446.85,206.196 448.85,199.196 450.85,206.196
			453.85,206.196 454.85,194.196 452.85,194.196 451.85,203.196 449.85,194.196 447.85,194.196 445.85,203.196 444.85,194.196 		"/>
	</g>
        <g>
		<g>
			<path style="fill:#66CEDB;" d="M78.198,145.667h-10c-0.552,0-1-0.448-1-1v-6.793c-2.728-0.88-4.956-1.82-6.644-2.801l-4.517,4.74
				c-0.186,0.195-0.443,0.307-0.712,0.31c-0.31-0.005-0.529-0.103-0.719-0.293l-7.071-7.071c-0.391-0.391-0.391-1.023,0-1.414
				l4.761-4.761c-1.307-2.158-2.27-4.478-2.87-6.917h-7.229c-0.552,0-1-0.448-1-1v-10c0-0.552,0.448-1,1-1h7.228
				c0.604-2.469,1.556-4.788,2.838-6.914l-4.789-4.762c-0.391-0.389-0.394-1.021-0.005-1.413l7.008-7.071
				c0.189-0.19,0.438-0.255,0.714-0.296c0.268,0.001,0.524,0.109,0.711,0.301l4.642,4.753c1.69-0.984,3.921-1.925,6.653-2.807
				v-6.793c0-0.552,0.448-1,1-1h10c0.552,0,1,0.448,1,1v6.723c2.586,0.615,5.04,1.602,7.181,2.886l5.013-4.788
				c0.395-0.375,1.015-0.368,1.398,0.016l7.071,7.071c0.188,0.188,0.293,0.442,0.293,0.707c0,0.265-0.105,0.52-0.293,0.707
				L95.1,100.75c1.306,2.158,2.269,4.479,2.87,6.916h6.228c0.552,0,1,0.448,1,1v10c0,0.552-0.448,1-1,1h-6.229
				c-0.597,2.407-1.57,4.728-2.901,6.919l4.732,4.761c0.188,0.188,0.292,0.443,0.291,0.709c-0.001,0.265-0.107,0.52-0.296,0.706
				l-7.134,7.071c-0.388,0.384-1.013,0.386-1.403,0.005l-4.888-4.776c-2.139,1.282-4.591,2.267-7.173,2.882v6.723
				C79.198,145.219,78.751,145.667,78.198,145.667z M69.198,143.667h8v-6.525c0-0.475,0.334-0.883,0.798-0.98
				c2.914-0.601,5.669-1.709,7.967-3.203c0.393-0.255,0.909-0.205,1.244,0.123l4.746,4.637l5.724-5.674l-4.587-4.614
				c-0.333-0.334-0.386-0.855-0.129-1.25c1.573-2.42,2.662-5.018,3.235-7.723c0.098-0.462,0.506-0.793,0.978-0.793h6.025v-8h-6.025
				c-0.472,0-0.88-0.331-0.978-0.792c-0.584-2.751-1.662-5.35-3.204-7.723c-0.257-0.396-0.203-0.918,0.131-1.252l4.618-4.618
				l-5.673-5.673l-4.868,4.65c-0.337,0.319-0.849,0.368-1.236,0.115c-2.298-1.494-5.053-2.602-7.967-3.203
				c-0.464-0.096-0.798-0.505-0.798-0.979v-6.525h-8v6.525c0,0.438-0.286,0.826-0.704,0.956c-3.288,1.017-5.831,2.103-7.561,3.227
				c-0.4,0.259-0.928,0.201-1.26-0.14l-4.49-4.598l-5.59,5.64l4.648,4.621c0.336,0.334,0.392,0.857,0.133,1.254
				c-1.512,2.326-2.58,4.924-3.173,7.723c-0.098,0.462-0.506,0.792-0.978,0.792h-7.025v8h7.025c0.472,0,0.88,0.331,0.978,0.793
				c0.583,2.752,1.661,5.35,3.204,7.723c0.257,0.396,0.203,0.918-0.131,1.252l-4.618,4.618l5.64,5.64l4.368-4.583
				c0.333-0.348,0.866-0.412,1.269-0.148c1.728,1.123,4.272,2.208,7.561,3.227c0.418,0.129,0.704,0.517,0.704,0.955V143.667z"/>
		</g>
            <g>
			<path style="fill:#66CEDB;" d="M73.698,131.667c-9.925,0-18-8.075-18-18s8.075-18,18-18s18,8.075,18,18
				S83.623,131.667,73.698,131.667z M73.698,97.666c-8.822,0-16,7.178-16,16s7.178,16,16,16c8.822,0,16-7.178,16-16
				S82.521,97.666,73.698,97.666z"/>
		</g>
            <g>
			<path style="fill:#66CEDB;" d="M73.698,127.666c-7.72,0-14-6.28-14-14s6.28-14,14-14c7.72,0,14,6.28,14,14
				S81.418,127.666,73.698,127.666z M73.698,101.666c-6.617,0-12,5.383-12,12c0,6.617,5.383,12,12,12c6.617,0,12-5.383,12-12
				C85.698,107.05,80.315,101.666,73.698,101.666z"/>
		</g>
	</g>
        <g>
		<g>
			<path style="fill:#34495E;" d="M179.998,322.428c-3.309,0-6-2.691-6-6s2.691-6,6-6c3.309,0,6,2.691,6,6
				S183.306,322.428,179.998,322.428z M179.998,312.428c-2.206,0-4,1.794-4,4c0,2.206,1.794,4,4,4c2.206,0,4-1.794,4-4
				C183.998,314.222,182.203,312.428,179.998,312.428z"/>
		</g>
            <g>
			<path style="fill:#34495E;" d="M195.998,322.428c-3.309,0-6-2.691-6-6s2.691-6,6-6c3.309,0,6,2.691,6,6
				S199.306,322.428,195.998,322.428z M195.998,312.428c-2.206,0-4,1.794-4,4c0,2.206,1.794,4,4,4c2.206,0,4-1.794,4-4
				C199.998,314.222,198.203,312.428,195.998,312.428z"/>
		</g>
            <g>
			<path style="fill:#34495E;" d="M195.998,336.428c-3.309,0-6-2.691-6-6s2.691-6,6-6c3.309,0,6,2.691,6,6
				S199.306,336.428,195.998,336.428z M195.998,326.428c-2.206,0-4,1.794-4,4c0,2.206,1.794,4,4,4c2.206,0,4-1.794,4-4
				C199.998,328.222,198.203,326.428,195.998,326.428z"/>
		</g>
            <g>
			<path style="fill:#F8CF26;" d="M195.998,308.428c-3.309,0-6-2.691-6-6s2.691-6,6-6c3.309,0,6,2.691,6,6
				S199.306,308.428,195.998,308.428z M195.998,298.428c-2.206,0-4,1.794-4,4c0,2.206,1.794,4,4,4c2.206,0,4-1.794,4-4
				C199.998,300.222,198.203,298.428,195.998,298.428z"/>
		</g>
            <g>
			<path style="fill:#F8CF26;" d="M179.998,336.428c-3.309,0-6-2.691-6-6s2.691-6,6-6c3.309,0,6,2.691,6,6
				S183.306,336.428,179.998,336.428z M179.998,326.428c-2.206,0-4,1.794-4,4c0,2.206,1.794,4,4,4c2.206,0,4-1.794,4-4
				C183.998,328.222,182.203,326.428,179.998,326.428z"/>
		</g>
            <g>
			<path style="fill:#66CEDB;" d="M179.998,308.428c-3.309,0-6-2.691-6-6s2.691-6,6-6c3.309,0,6,2.691,6,6
				S183.306,308.428,179.998,308.428z M179.998,298.428c-2.206,0-4,1.794-4,4c0,2.206,1.794,4,4,4c2.206,0,4-1.794,4-4
				C183.998,300.222,182.203,298.428,179.998,298.428z"/>
		</g>
            <g>
			<path style="fill:#66CEDB;" d="M211.998,322.428c-3.309,0-6-2.691-6-6s2.691-6,6-6c3.309,0,6,2.691,6,6
				S215.306,322.428,211.998,322.428z M211.998,312.428c-2.206,0-4,1.794-4,4c0,2.206,1.794,4,4,4c2.206,0,4-1.794,4-4
				C215.998,314.222,214.203,312.428,211.998,312.428z"/>
		</g>
            <g>
			<path style="fill:#F8CF26;" d="M211.998,336.428c-3.309,0-6-2.691-6-6s2.691-6,6-6c3.309,0,6,2.691,6,6
				S215.306,336.428,211.998,336.428z M211.998,326.428c-2.206,0-4,1.794-4,4c0,2.206,1.794,4,4,4c2.206,0,4-1.794,4-4
				C215.998,328.222,214.203,326.428,211.998,326.428z"/>
		</g>
            <g>
			<path style="fill:#34495E;" d="M211.998,308.428c-3.309,0-6-2.691-6-6s2.691-6,6-6c3.309,0,6,2.691,6,6
				S215.306,308.428,211.998,308.428z M211.998,298.428c-2.206,0-4,1.794-4,4c0,2.206,1.794,4,4,4c2.206,0,4-1.794,4-4
				C215.998,300.222,214.203,298.428,211.998,298.428z"/>
		</g>
            <g>
			<path style="fill:#34495E;" d="M227.998,329.428c-3.309,0-6-2.691-6-6s2.691-6,6-6c3.309,0,6,2.691,6,6
				S231.306,329.428,227.998,329.428z M227.998,319.428c-2.206,0-4,1.794-4,4c0,2.206,1.794,4,4,4c2.206,0,4-1.794,4-4
				C231.998,321.222,230.203,319.428,227.998,319.428z"/>
		</g>
            <g>
			<rect x="184.998" y="315.428" style="fill:#34495E;" width="6" height="2"/>
		</g>
            <g>

				<rect x="197.797" y="307.928" transform="matrix(0.7893 -0.614 0.614 0.7893 -146.8012 190.0226)" style="fill:#34495E;" width="11.402" height="1.999"/>
		</g>
            <g>

				<rect x="218.998" y="304.365" transform="matrix(0.8682 -0.4961 0.4961 0.8682 -126.0214 150.3138)" style="fill:#34495E;" width="2" height="16.125"/>
		</g>
            <g>
			<rect x="228.998" y="298.428" style="fill:#E74C3C;" width="2" height="25"/>
		</g>
            <g>
			<path style="fill:#E74C3C;" d="M229.998,306.428c-0.138,0-0.276-0.028-0.406-0.086l-9-4c-0.361-0.161-0.594-0.519-0.594-0.914
				s0.233-0.753,0.594-0.914l9-4c0.309-0.138,0.667-0.108,0.951,0.075c0.284,0.185,0.455,0.5,0.455,0.839v8
				c0,0.339-0.171,0.654-0.455,0.839C230.378,306.373,230.188,306.428,229.998,306.428z M223.46,301.428l5.538,2.461v-4.922
				L223.46,301.428z"/>
		</g>
            <g>
			<rect x="222.998" y="331.428" style="fill:#34495E;" width="2" height="2"/>
		</g>
            <g>
			<rect x="226.998" y="331.428" style="fill:#34495E;" width="2" height="2"/>
		</g>
            <g>
			<rect x="230.998" y="331.428" style="fill:#34495E;" width="2" height="2"/>
		</g>
	</g>
        <g>
		<g>
			<rect x="497.326" y="99.005" style="fill:#E74C3C;" width="20" height="2"/>
		</g>
            <g>
			<path style="fill:#E74C3C;" d="M493.326,105.005h-9c-0.404,0-0.77-0.244-0.924-0.617c-0.155-0.374-0.069-0.804,0.217-1.09
				l3.293-3.293l-3.293-3.293c-0.286-0.286-0.372-0.716-0.217-1.09c0.154-0.374,0.52-0.617,0.924-0.617h9
				c0.266,0,0.519,0.105,0.707,0.293l4,4c0.391,0.391,0.391,1.023,0,1.414l-4,4C493.846,104.9,493.592,105.005,493.326,105.005z
				 M486.74,103.005h6.172l3-3l-3-3h-6.172l2.293,2.293c0.391,0.391,0.391,1.023,0,1.414L486.74,103.005z"/>
		</g>
            <g>
			<path style="fill:#FFFFFF;" d="M517.326,120.005c-9.879,0-18.176-7.084-19.728-16.843l1.975-0.314
				c1.397,8.783,8.863,15.157,17.753,15.157c9.925,0,18-8.075,18-18s-8.075-18-18-18c-8.89,0-16.356,6.374-17.753,15.157
				l-1.975-0.314c1.552-9.759,9.849-16.843,19.728-16.843c11.028,0,20,8.972,20,20C537.326,111.033,528.354,120.005,517.326,120.005
				z"/>
		</g>
            <g>
			<path style="fill:#FFFFFF;" d="M517.326,116.005c-7.579,0-14.173-5.384-15.679-12.801l1.961-0.397
				c1.316,6.489,7.086,11.199,13.718,11.199c7.72,0,14-6.28,14-14c0-7.72-6.28-14-14-14c-6.632,0-12.401,4.71-13.718,11.199
				l-1.961-0.397c1.506-7.417,8.1-12.801,15.679-12.801c8.822,0,16,7.178,16,16C533.326,108.828,526.148,116.005,517.326,116.005z"
            />
		</g>
            <g>
			<path style="fill:#FFFFFF;" d="M517.326,109.005c-3.683,0-6.956-2.208-8.339-5.625l1.854-0.751
				c1.076,2.658,3.622,4.376,6.485,4.376c3.859,0,7-3.14,7-7c0-3.86-3.141-7-7-7c-2.863,0-5.409,1.717-6.485,4.375l-1.854-0.751
				c1.383-3.416,4.656-5.624,8.339-5.624c4.963,0,9,4.038,9,9C526.326,104.968,522.289,109.005,517.326,109.005z"/>
		</g>
            <g>
			<path style="fill:#FFFFFF;" d="M517.326,105.005c-1.195,0-2.359-0.443-3.278-1.248l1.316-1.505
				c0.393,0.343,1.052,0.753,1.962,0.753c1.654,0,3-1.346,3-3c0-1.654-1.346-3-3-3c-0.91,0-1.569,0.409-1.962,0.753l-1.316-1.506
				c0.92-0.804,2.084-1.247,3.278-1.247c2.757,0,5,2.243,5,5C522.326,102.762,520.083,105.005,517.326,105.005z"/>
		</g>
            <g>
			<path style="fill:#34495E;" d="M517.326,126.005c-11.485,0-21.749-7.698-24.959-18.72l1.92-0.56
				c2.963,10.174,12.437,17.28,23.039,17.28c13.233,0,24-10.767,24-24s-10.767-24-24-24c-10.602,0-20.076,7.105-23.039,17.28
				l-1.92-0.56c3.21-11.022,13.474-18.72,24.959-18.72c14.337,0,26,11.663,26,26C543.326,114.342,531.663,126.005,517.326,126.005z"
            />
		</g>
            <g>
			<path style="fill:#34495E;" d="M531.417,134.669c-1.136,0-2.193-0.633-2.724-1.693l-4.262-8.523l1.789-0.895l4.262,8.523
				c0.221,0.44,0.727,0.672,1.204,0.554c0.311-0.078,0.558-0.279,0.696-0.567c0.14-0.288,0.143-0.607,0.011-0.899l-3.978-8.749
				l1.82-0.828l3.978,8.75c0.377,0.83,0.366,1.775-0.029,2.596s-1.13,1.417-2.014,1.638
				C531.919,134.638,531.666,134.669,531.417,134.669z"/>
		</g>
            <g>
			<path style="fill:#34495E;" d="M503.399,134.669c-0.249,0-0.502-0.03-0.754-0.093c-0.884-0.221-1.618-0.818-2.014-1.638
				c-0.395-0.82-0.406-1.766-0.029-2.595l3.977-8.75l1.82,0.827l-3.977,8.75c-0.132,0.292-0.129,0.611,0.011,0.899
				c0.139,0.288,0.386,0.489,0.696,0.567c0.481,0.12,0.984-0.113,1.204-0.554l4.261-8.523l1.789,0.895l-4.261,8.523
				C505.593,134.035,504.535,134.669,503.399,134.669z"/>
		</g>
            <g>
			<rect x="520.326" y="128.005" style="fill:#34495E;" width="2" height="2"/>
		</g>
            <g>
			<rect x="516.326" y="128.005" style="fill:#34495E;" width="2" height="2"/>
		</g>
            <g>
			<rect x="512.326" y="128.005" style="fill:#34495E;" width="2" height="2"/>
		</g>
	</g>
        <g>
		<g>
			<polyline style="fill:#E74C3C;" points="287,113.667 287,121.667 284,119.667 281,121.667 278,119.667 275,121.667 272,119.667
				269,121.667 269,113.667 			"/>
            <path style="fill:#34495E;" d="M287,122.666c-0.194,0-0.387-0.056-0.555-0.168l-2.445-1.63l-2.445,1.63
				c-0.336,0.224-0.773,0.224-1.109,0l-2.445-1.63l-2.445,1.63c-0.336,0.224-0.773,0.224-1.109,0l-2.445-1.63l-2.445,1.63
				c-0.307,0.204-0.702,0.224-1.026,0.05c-0.325-0.174-0.528-0.513-0.528-0.882v-8h2v6.131l1.445-0.963
				c0.336-0.224,0.773-0.224,1.109,0l2.445,1.63l2.445-1.63c0.336-0.224,0.773-0.224,1.109,0l2.445,1.63l2.445-1.63
				c0.336-0.224,0.773-0.224,1.109,0l1.445,0.963v-6.131h2v8c0,0.369-0.203,0.708-0.528,0.882
				C287.324,122.627,287.162,122.666,287,122.666z"/>
		</g>
            <g>
			<path style="fill:#34495E;" d="M278,131.667c-0.256,0-0.512-0.098-0.707-0.293l-9-9l1.414-1.414l8.293,8.293l8.293-8.293
				l1.414,1.414l-9,9C278.512,131.569,278.256,131.667,278,131.667z"/>
		</g>
            <g>
			<rect x="274" y="125.666" style="fill:#34495E;" width="8" height="2"/>
		</g>
            <g>
			<path style="fill:#F8CF26;" d="M278,72.667c-8.837,0-16,7.163-16,16c0,5.379,2.663,10.126,6.733,13.027
				c0.088-0.012,0.176-0.027,0.267-0.027h18c0.092,0,0.179,0.015,0.267,0.027c4.07-2.901,6.733-7.648,6.733-13.027
				C294,79.83,286.836,72.667,278,72.667z"/>
                <path style="fill:#34495E;" d="M287.268,102.694c-0.045,0-0.091-0.003-0.137-0.009l-0.135-0.018H269
				c-0.001,0-0.128,0.018-0.129,0.018c-0.254,0.036-0.51-0.028-0.718-0.176C263.674,99.316,261,94.142,261,88.666
				c0-9.374,7.626-17,17-17s17,7.626,17,17c0,5.475-2.674,10.649-7.152,13.842C287.678,102.629,287.475,102.694,287.268,102.694z
				 M269.022,100.666h17.956c3.777-2.831,6.022-7.29,6.022-12c0-8.271-6.729-15-15-15s-15,6.729-15,15
				C263,93.377,265.245,97.835,269.022,100.666z"/>
		</g>
            <g>
			<g>
				<path style="fill:#34495E;" d="M276,101.666h-2v-7.532l-3.502-2.919C268.91,89.894,268,87.95,268,85.884
					c0-2.828,2.29-5.218,5-5.218c1.138,0.001,2.219,0.389,3.128,1.123c0.235,0.19,0.372,0.476,0.372,0.778
					c0,0.302-0.137,0.588-0.372,0.778c-0.717,0.579-1.128,1.425-1.128,2.321c0,0.896,0.411,1.742,1.128,2.322l-1.257,1.556
					C273.682,88.583,273,87.17,273,85.666c0-1.033,0.322-2.022,0.909-2.852c-0.293-0.097-0.598-0.148-0.909-0.148
					c-1.598,0-3,1.503-3,3.218c0,1.471,0.648,2.854,1.778,3.795l3.862,3.219c0.228,0.19,0.36,0.471,0.36,0.768V101.666z"/>
			</g>
                <g>
				<path style="fill:#34495E;" d="M279.872,89.544C278.682,88.583,278,87.17,278,85.666c0-1.033,0.322-2.023,0.909-2.853
					c-0.585-0.194-1.232-0.194-1.817,0c0.587,0.83,0.909,1.82,0.909,2.853c0,1.503-0.682,2.917-1.872,3.877l-1.257-1.556
					c0.717-0.58,1.128-1.426,1.128-2.322c0-0.896-0.411-1.742-1.128-2.321c-0.235-0.189-0.372-0.476-0.372-0.778
					c0-0.302,0.137-0.588,0.372-0.778c1.818-1.47,4.439-1.47,6.257,0c0.235,0.19,0.372,0.476,0.372,0.778
					c0,0.302-0.137,0.588-0.372,0.778c-0.717,0.579-1.128,1.425-1.128,2.321c0,0.896,0.411,1.742,1.128,2.322L279.872,89.544z"/>
			</g>
                <g>
				<path style="fill:#34495E;" d="M275.5,89.766c-0.223,0-0.445-0.074-0.628-0.222C273.682,88.583,273,87.17,273,85.666
					c0-1.503,0.682-2.916,1.872-3.877c0.367-0.296,0.89-0.296,1.257,0c1.19,0.96,1.872,2.374,1.872,3.877
					c0,1.503-0.682,2.917-1.872,3.877C275.945,89.692,275.723,89.766,275.5,89.766z M275.5,84.031c-0.323,0.483-0.5,1.048-0.5,1.636
					c0,0.587,0.177,1.153,0.5,1.636c0.323-0.483,0.5-1.049,0.5-1.636C276,85.079,275.823,84.514,275.5,84.031z"/>
			</g>
                <g>
				<path style="fill:#34495E;" d="M282,101.666h-2v-8c0-0.297,0.132-0.578,0.36-0.768l3.862-3.219
					c1.13-0.941,1.778-2.325,1.778-3.795c0-1.714-1.402-3.218-3.001-3.218c-0.311,0-0.616,0.05-0.908,0.148
					c0.587,0.83,0.909,1.82,0.909,2.852c0,1.503-0.682,2.917-1.872,3.877l-1.257-1.556c0.717-0.58,1.128-1.426,1.128-2.322
					c0-0.896-0.411-1.742-1.128-2.321c-0.235-0.189-0.372-0.476-0.372-0.778c0-0.302,0.137-0.588,0.372-0.778
					c0.909-0.734,1.99-1.123,3.127-1.123c2.711,0,5.001,2.39,5.001,5.218c0,2.066-0.91,4.009-2.498,5.331L282,94.135V101.666z"/>
			</g>
                <g>
				<path style="fill:#34495E;" d="M280.5,89.766c-0.223,0-0.445-0.074-0.628-0.222C278.682,88.583,278,87.17,278,85.666
					c0-1.503,0.682-2.916,1.872-3.877c0.367-0.296,0.89-0.296,1.257,0c1.19,0.96,1.872,2.374,1.872,3.877
					c0,1.503-0.682,2.917-1.872,3.877C280.945,89.692,280.723,89.766,280.5,89.766z M280.5,84.031c-0.323,0.483-0.5,1.048-0.5,1.636
					c0,0.587,0.177,1.153,0.5,1.636c0.323-0.483,0.5-1.049,0.5-1.636C281,85.079,280.823,84.514,280.5,84.031z"/>
			</g>
		</g>
            <g>

				<rect x="293.172" y="73.667" transform="matrix(0.7071 -0.7071 0.7071 0.7071 33.8992 231.1729)" style="fill:#F8CF26;" width="5.657" height="2"/>
		</g>
            <g>

				<rect x="295" y="99.838" transform="matrix(0.7071 -0.7071 0.7071 0.7071 14.1002 239.3739)" style="fill:#F8CF26;" width="2" height="5.657"/>
		</g>
            <g>
			<rect x="298" y="87.666" style="fill:#F8CF26;" width="6" height="2"/>
		</g>
            <g>

				<rect x="259" y="71.838" transform="matrix(0.7071 -0.7071 0.7071 0.7071 23.355 205.7171)" style="fill:#F8CF26;" width="2" height="5.657"/>
		</g>
            <g>

				<rect x="257.172" y="101.667" transform="matrix(0.7071 -0.7071 0.7071 0.7071 3.5561 213.9181)" style="fill:#F8CF26;" width="5.657" height="2"/>
		</g>
            <g>
			<rect x="252" y="87.666" style="fill:#F8CF26;" width="6" height="2"/>
		</g>
            <g>
			<rect x="290" y="119.666" style="fill:#34495E;" width="2" height="2"/>
		</g>
            <g>
			<rect x="294" y="119.666" style="fill:#34495E;" width="2" height="2"/>
		</g>
            <g>
			<rect x="298" y="119.666" style="fill:#34495E;" width="2" height="2"/>
		</g>
            <g>
			<rect x="256" y="119.666" style="fill:#34495E;" width="2" height="2"/>
		</g>
            <g>
			<rect x="260" y="119.666" style="fill:#34495E;" width="2" height="2"/>
		</g>
            <g>
			<rect x="264" y="119.666" style="fill:#34495E;" width="2" height="2"/>
		</g>
            <g>
			<path style="fill:#66CEDB;" d="M287,114.666h-18c-1.654,0-3-1.346-3-3c0-1.654,1.346-3,3-3h18c1.654,0,3,1.346,3,3
				C290,113.321,288.654,114.666,287,114.666z M269,110.666c-0.551,0-1,0.449-1,1s0.449,1,1,1h18c0.551,0,1-0.449,1-1s-0.449-1-1-1
				H269z"/>
		</g>
            <g>
			<path style="fill:#66CEDB;" d="M287,110.666h-18c-1.654,0-3-1.346-3-3c0-1.654,1.346-3,3-3h18c1.654,0,3,1.346,3,3
				C290,109.321,288.654,110.666,287,110.666z M269,106.666c-0.551,0-1,0.449-1,1s0.449,1,1,1h18c0.551,0,1-0.449,1-1s-0.449-1-1-1
				H269z"/>
		</g>
            <g>
			<path style="fill:#66CEDB;" d="M287,106.666h-18c-1.654,0-3-1.346-3-3c0-1.654,1.346-3,3-3h18c1.654,0,3,1.346,3,3
				C290,105.321,288.654,106.666,287,106.666z M269,102.666c-0.551,0-1,0.449-1,1s0.449,1,1,1h18c0.551,0,1-0.449,1-1s-0.449-1-1-1
				H269z"/>
		</g>
            <g>
			<path style="fill:#66CEDB;" d="M287,106.666h-18c-1.654,0-3-1.346-3-3c0-1.654,1.346-3,3-3h18c1.654,0,3,1.346,3,3
				C290,105.321,288.654,106.666,287,106.666z M269,102.666c-0.551,0-1,0.449-1,1s0.449,1,1,1h18c0.551,0,1-0.449,1-1s-0.449-1-1-1
				H269z"/>
		</g>
	</g>
        <g>
		<g>
			<path style="fill:#66CEDB;" d="M78.666,238.775c-7.72,0-14-6.28-14-14c0-7.72,6.28-14,14-14s14,6.28,14,14
				C92.666,232.495,86.386,238.775,78.666,238.775z M78.666,212.775c-6.617,0-12,5.383-12,12c0,6.617,5.383,12,12,12
				c6.617,0,12-5.383,12-12C90.666,218.158,85.283,212.775,78.666,212.775z"/>
		</g>
            <g>
			<path style="fill:#66CEDB;" d="M91.515,227.764l-13-2c-0.285-0.044-0.537-0.208-0.692-0.451l-7-11l1.688-1.074l6.756,10.618
				l12.552,1.931L91.515,227.764z"/>
		</g>
            <g>
			<path style="fill:#66CEDB;" d="M71.447,235.4l-1.562-1.25l7.171-8.963l-10.774-4.489l0.77-1.846l12,5
				c0.289,0.12,0.506,0.37,0.584,0.675c0.078,0.305,0.008,0.628-0.188,0.873L71.447,235.4z"/>
		</g>
            <g>
			<path style="fill:#34495E;" d="M42.667,270.775h-9c-0.552,0-1-0.447-1-1v-29c0-0.553,0.448-1,1-1h9c0.552,0,1,0.447,1,1v29
				C43.667,270.328,43.219,270.775,42.667,270.775z M34.667,268.775h7v-27h-7V268.775z"/>
		</g>
            <g>
			<path style="fill:#34495E;" d="M69.666,270.775h-9c-0.552,0-1-0.447-1-1v-35c0-0.553,0.448-1,1-1h9c0.552,0,1,0.447,1,1v35
				C70.666,270.328,70.219,270.775,69.666,270.775z M61.667,268.775h7v-33h-7V268.775z"/>
		</g>
            <g>
			<path style="fill:#34495E;" d="M51.667,270.775h-9c-0.552,0-1-0.447-1-1v-39c0-0.553,0.448-1,1-1h9c0.552,0,1,0.447,1,1v39
				C52.667,270.328,52.219,270.775,51.667,270.775z M43.667,268.775h7v-37h-7V268.775z"/>
		</g>
            <g>
			<path style="fill:#34495E;" d="M60.667,270.775h-9c-0.552,0-1-0.447-1-1v-52c0-0.553,0.448-1,1-1h9c0.552,0,1,0.447,1,1v52
				C61.667,270.328,61.219,270.775,60.667,270.775z M52.667,268.775h7v-50h-7V268.775z"/>
		</g>
            <g>
			<path style="fill:#E74C3C;" d="M91.666,270.775h-22c-0.552,0-1-0.447-1-1v-28c0-0.553,0.448-1,1-1h15.001
				c0.265,0,0.52,0.105,0.707,0.293s0.293,0.441,0.293,0.707l-0.001,6h6c0.552,0,1,0.447,1,1v21
				C92.666,270.328,92.219,270.775,91.666,270.775z M70.666,268.775h20v-19h-6c-0.265,0-0.519-0.105-0.707-0.293
				s-0.293-0.441-0.293-0.707l0.001-6H70.666V268.775z"/>
		</g>
            <g>

				<rect x="87.167" y="240.326" transform="matrix(0.7071 -0.7071 0.7071 0.7071 -147.6085 134.1744)" style="fill:#E74C3C;" width="2" height="9.899"/>
		</g>
            <g>
			<rect x="72.666" y="244.775" style="fill:#F8CF26;" width="9" height="2"/>
		</g>
            <g>
			<rect x="72.666" y="248.775" style="fill:#F8CF26;" width="9" height="2"/>
		</g>
            <g>
			<rect x="72.666" y="252.775" style="fill:#E74C3C;" width="16" height="2"/>
		</g>
            <g>
			<rect x="72.666" y="256.775" style="fill:#E74C3C;" width="16" height="2"/>
		</g>
            <g>
			<rect x="72.666" y="260.775" style="fill:#66CEDB;" width="16" height="2"/>
		</g>
            <g>
			<rect x="72.666" y="264.775" style="fill:#66CEDB;" width="16" height="2"/>
		</g>
            <g>
			<path style="fill:#34495E;" d="M37.491,259.342l-1.648-1.133l11-16c0.072-0.104,0.164-0.195,0.27-0.266l9-6
				c0.234-0.155,0.524-0.204,0.797-0.139c0.273,0.068,0.505,0.249,0.638,0.497l7,13l-1.761,0.947l-6.479-12.032l-7.926,5.284
				L37.491,259.342z"/>
		</g>
            <g>
			<path style="fill:#34495E;" d="M38.335,265.519l-1.338-1.486l10-9c0.378-0.341,0.952-0.344,1.333-0.004l8.335,7.409l8.335-7.409
				l1.329,1.494l-9,8c-0.379,0.338-0.95,0.338-1.329,0l-8.332-7.405L38.335,265.519z"/>
		</g>
            <g>
			<rect x="43.667" y="213.775" style="fill:#F8CF26;" width="2" height="6"/>
		</g>
            <g>
			<rect x="41.667" y="215.775" style="fill:#F8CF26;" width="6" height="2"/>
		</g>
            <g>
			<rect x="38.667" y="219.775" style="fill:#F8CF26;" width="2" height="6"/>
		</g>
            <g>
			<rect x="36.667" y="221.775" style="fill:#F8CF26;" width="6" height="2"/>
		</g>
	</g>
        <g>
		<g>
			<path style="fill:#34495E;" d="M472.925,158.649h-2v-2h2V158.649z M472.925,154.649h-2v-2h2V154.649z M472.925,150.649h-2v-2h2
				V150.649z M472.925,146.649h-2v-2h2V146.649z M472.925,142.649h-2v-2h2V142.649z M472.925,138.649h-2v-2h2V138.649z
				 M472.925,134.649h-2v-2h2V134.649z M472.925,130.649h-2v-2h2V130.649z M472.925,126.649h-2v-2h2V126.649z M472.925,122.649h-2
				v-2h2V122.649z M472.925,118.649h-2v-2h2V118.649z M472.925,114.649h-2v-2h2V114.649z M472.925,110.649h-2v-2h2V110.649z
				 M472.925,106.649h-2v-2h2V106.649z M473.095,103.007l-1.887-0.664c0.277-0.787,0.752-1.498,1.375-2.057l1.336,1.488
				C473.546,102.109,473.261,102.536,473.095,103.007z M475.233,101.085l-0.459-1.946c0.373-0.088,0.758-0.133,1.145-0.133
				c0.002,0,0.005,0,0.008,0h1.068v2h-1.07c-0.002,0-0.003,0-0.005,0C475.686,101.005,475.456,101.032,475.233,101.085z
				 M484.995,101.005h-2v-2h2V101.005z M480.995,101.005h-2v-2h2V101.005z"/>
		</g>
            <g>
			<g>
				<circle style="fill:#34495E;" cx="471.924" cy="158.424" r="4.512"/>
			</g>
		</g>
	</g>
        <g>
		<g>
			<path style="fill:#34495E;" d="M124.349,160.428H77.437c-2.757,0-5-2.243-5-5v-37.476h2v37.476c0,1.654,1.346,3,3,3h46.913
				V160.428z"/>
		</g>
            <g>
			<g>
				<path style="fill:#34495E;" d="M124.123,154.917c2.491,0,4.512,2.02,4.512,4.512c0,2.491-2.02,4.512-4.512,4.512
					c-2.491,0-4.512-2.02-4.512-4.512C119.612,156.937,121.632,154.917,124.123,154.917z"/>
			</g>
		</g>
            <g>
			<g>
				<path style="fill:#34495E;" d="M77.948,118.178c0-2.491-2.02-4.512-4.512-4.512s-4.512,2.02-4.512,4.512s2.02,4.512,4.512,4.512
					S77.948,120.67,77.948,118.178z"/>
			</g>
		</g>
	</g>
        <g>
		<g>
			<rect x="177.342" y="254.775" style="fill:#34495E;" width="72.678" height="2"/>
		</g>
            <g>
			<g>
				<circle style="fill:#34495E;" cx="177.567" cy="255.775" r="4.512"/>
			</g>
		</g>
            <g>
			<g>
				<path style="fill:#34495E;" d="M249.794,260.287c2.491,0,4.512-2.02,4.512-4.512c0-2.491-2.02-4.512-4.512-4.512
					s-4.512,2.02-4.512,4.512C245.282,258.267,247.302,260.287,249.794,260.287z"/>
			</g>
		</g>
	</g>
        <g>
		<g>
			<path style="fill:#34495E;" d="M356.776,324.428H291c-2.757,0-5-2.243-5-5v-64.366h2v64.366c0,1.654,1.346,3,3,3h65.776V324.428z
				"/>
		</g>
            <g>
			<g>
				<circle style="fill:#34495E;" cx="287" cy="255.287" r="4.512"/>
			</g>
		</g>
	</g>
        <g>
		<path style="fill:#66CEDB;" d="M494.586,341.389h-1.341v-2h1.341c0.168,0,0.333-0.014,0.494-0.04l0.324,1.973
			C495.138,341.365,494.865,341.389,494.586,341.389z M491.245,341.389h-2v-2h2V341.389z M487.245,341.389h-2v-2h2V341.389z
			 M483.245,341.389h-2v-2h2V341.389z M479.245,341.389h-2v-2h2V341.389z M475.245,341.389h-2v-2h2V341.389z M471.245,341.389h-2v-2
			h2V341.389z M467.245,341.389h-2v-2h2V341.389z M463.245,341.389h-2v-2h2V341.389z M459.245,341.389h-2v-2h2V341.389z
			 M455.245,341.389h-2v-2h2V341.389z M451.245,341.389h-2v-2h2V341.389z M447.245,341.389h-2v-2h2V341.389z M443.245,341.389h-2v-2
			h2V341.389z M439.245,341.389h-2v-2h2V341.389z M435.245,341.389h-2v-2h2V341.389z M431.245,341.389h-2v-2h2V341.389z
			 M427.245,341.389h-2v-2h2V341.389z M423.245,341.389h-2v-2h2V341.389z M419.245,341.389h-2v-2h2V341.389z M497.67,340.324
			l-1.234-1.574c0.396-0.31,0.709-0.716,0.906-1.176l1.838,0.791C498.85,339.132,498.327,339.809,497.67,340.324z M499.586,336.016
			h-2v-2h2V336.016z M499.586,332.016h-2v-2h2V332.016z M499.586,328.016h-2v-2h2V328.016z M499.586,324.016h-2v-2h2V324.016z
			 M499.586,320.016h-2v-2h2V320.016z M499.586,316.016h-2v-2h2V316.016z M499.586,312.016h-2v-2h2V312.016z M499.586,308.016h-2v-2
			h2V308.016z M499.586,304.016h-2v-2h2V304.016z M499.586,300.016h-2v-2h2V300.016z M499.586,296.016h-2v-2h2V296.016z
			 M499.586,292.016h-2v-2h2V292.016z M499.586,288.016h-2v-2h2V288.016z M499.586,284.016h-2v-2h2V284.016z M499.586,280.016h-2v-2
			h2V280.016z M499.586,276.016h-2v-2h2V276.016z M499.586,272.016h-2v-1.848h2V272.016z"/>
	</g>
        <g>
		<g>
			<path style="fill:#E74C3C;" d="M320.543,143.621l-1.414-1.414l29.775-29.775c0.188-0.188,0.441-0.293,0.707-0.293h47.311
				l23.32-23.321l1.414,1.414l-23.613,23.614c-0.188,0.188-0.441,0.293-0.707,0.293h-47.31L320.543,143.621z"/>
		</g>
            <g>
			<g>
				<path style="fill:#E74C3C;" d="M323.186,145.944c-1.762,1.762-4.619,1.762-6.381,0c-1.762-1.762-1.762-4.619,0-6.38
					c1.762-1.762,4.619-1.762,6.38,0C324.948,141.326,324.948,144.183,323.186,145.944z"/>
			</g>
		</g>
            <g>
			<g>
				<polygon style="fill:#E74C3C;" points="421.709,95.05 419.901,90.573 415.424,88.766 426.015,84.459 				"/>
			</g>
		</g>
	</g>
        <g>
		<g>
			<path style="fill:#34495E;" d="M161.031,317.777h-55.066c-2.757,0-5-2.243-5-5v-41.833h2v41.833c0,1.654,1.346,3,3,3h55.066
				V317.777z"/>
		</g>
            <g>
			<g>
				<polygon style="fill:#34495E;" points="157.66,321.221 159.548,316.778 157.66,312.334 168.194,316.778 				"/>
			</g>
		</g>
	</g>
        <g>
		<path style="fill:#66CEDB;" d="M340.417,343.714h-1.468v-2h1.468V343.714z M336.949,343.714h-2v-2h2V343.714z M332.949,343.714h-2
			v-2h2V343.714z M328.949,343.714h-2v-2h2V343.714z M324.949,343.714h-2v-2h2V343.714z M320.949,343.714h-2v-2h2V343.714z
			 M316.949,343.714h-2v-2h2V343.714z M312.949,343.714h-2v-2h2V343.714z M308.949,343.714h-2v-2h2V343.714z M304.949,343.714h-2v-2
			h2V343.714z M300.95,343.714h-2v-2h2V343.714z M296.95,343.714h-2v-2h2V343.714z M292.95,343.714h-2v-2h2V343.714z
			 M288.95,343.714h-2v-2h2V343.714z M284.95,343.714h-0.331c-0.265,0-0.52-0.105-0.707-0.293l-1.181-1.181l1.414-1.414l1.181,1.181
			l-0.376,0.376V343.714z M281.317,340.826l-1.414-1.414l1.414-1.414l1.414,1.414L281.317,340.826z M278.488,337.998l-1.414-1.415
			l1.415-1.414l1.414,1.415L278.488,337.998z M275.661,335.169l-1.414-1.414l1.414-1.414l1.415,1.414L275.661,335.169z
			 M272.832,332.341l-1.414-1.414l1.414-1.414l1.414,1.414L272.832,332.341z M270.004,329.513l-1.415-1.415l1.414-1.414l1.415,1.415
			L270.004,329.513z M267.175,326.684l-1.414-1.414l1.414-1.414l1.414,1.414L267.175,326.684z M264.347,323.855l-1.414-1.414
			l1.414-1.414l1.414,1.414L264.347,323.855z M261.518,321.027l-1.414-1.415l1.415-1.414l1.414,1.415L261.518,321.027z
			 M258.69,318.198l-1.414-1.414l1.414-1.414l1.414,1.414L258.69,318.198z M255.862,315.37l-1.415-1.414l1.414-1.414l1.415,1.414
			L255.862,315.37z M253.033,312.542l-1.414-1.415l1.415-1.414l1.414,1.415L253.033,312.542z M250.833,309.928h-1.889v-2h1.889
			c0.264,0,0.518,0.104,0.705,0.291l0.079,0.078l-0.784,0.788V309.928z M246.944,309.928h-2v-2h2V309.928z M242.944,309.928h-2v-2h2
			V309.928z M238.944,309.928h-2v-2h2V309.928z"/>
	</g>
        <g>
		<g>
			<rect x="305.286" y="199.806" style="fill:#34495E;" width="71.704" height="2"/>
		</g>
            <g>
			<g>
				<path style="fill:#34495E;" d="M305.512,205.317c-2.491,0-4.512-2.02-4.512-4.512c0-2.492,2.02-4.512,4.512-4.512
					s4.512,2.02,4.512,4.512C310.023,203.297,308.003,205.317,305.512,205.317z"/>
			</g>
		</g>
            <g>
			<g>
				<path style="fill:#34495E;" d="M376.765,205.317c2.491,0,4.512-2.02,4.512-4.512c0-2.492-2.02-4.512-4.512-4.512
					c-2.491,0-4.512,2.02-4.512,4.512C372.253,203.297,374.273,205.317,376.765,205.317z"/>
			</g>
		</g>
	</g>
        <g>
		<path style="fill:#66CEDB;" d="M209.722,114.666h-2v-2h2V114.666z M205.722,114.666h-2v-2h2V114.666z M201.722,114.666h-2v-2h2
			V114.666z M197.722,114.666h-2v-2h2V114.666z M193.722,114.666h-2v-2h2V114.666z M189.722,114.666h-2v-2h2V114.666z
			 M185.722,114.666h-2v-2h2V114.666z M181.722,114.666h-2v-2h2V114.666z M177.722,114.666h-2v-2h2V114.666z M173.722,114.666h-2v-2
			h2V114.666z M169.722,114.666h-2v-2h2V114.666z M165.722,114.666h-2v-2h2V114.666z M161.722,114.666h-2v-2h2V114.666z
			 M157.722,114.666h-2v-2h2V114.666z M153.722,114.666h-2v-2h2V114.666z M149.722,114.666h-2v-2h2V114.666z M145.722,114.666h-2v-2
			h2V114.666z M141.722,114.666h-2v-2h2V114.666z"/>
	</g>
        <g>
		<path style="fill:#F8CF26;" d="M86.666,294.861h-2v-2h2V294.861z M82.666,294.861h-2v-2h2V294.861z M78.666,294.861h-2v-2h2
			V294.861z M74.666,294.861h-2v-2h2V294.861z M70.666,294.861h-2v-2h2V294.861z M66.666,294.861h-2v-2h2V294.861z M62.667,294.861
			h-2v-2h2V294.861z M58.667,294.861h-2v-2h2V294.861z M54.667,294.861h-2v-2h2V294.861z M50.667,294.861h-2v-2h2V294.861z
			 M46.667,294.861h-2v-2h2V294.861z"/>
	</g>
        <g>
		<path style="fill:#66CEDB;" d="M450.233,282.361h-1.095v-2h1.095V282.361z M447.139,282.361h-2v-2h2V282.361z M443.139,282.361h-2
			v-2h2V282.361z M439.139,282.361h-2v-2h2V282.361z M435.139,282.361h-2v-2h2V282.361z M431.139,282.361h-2v-2h2V282.361z
			 M427.139,282.361h-2v-2h2V282.361z M423.139,282.361h-2v-2h2V282.361z M419.139,282.361h-2v-2h2V282.361z M415.139,282.361h-2v-2
			h2V282.361z M411.139,282.361h-2v-2h2V282.361z M407.139,282.361h-2v-2h2V282.361z M403.139,282.361h-2v-2h2V282.361z
			 M399.139,282.361h-2v-2h2V282.361z M395.139,282.361h-2v-2h2V282.361z M391.139,282.361h-2v-2h2V282.361z M387.139,282.361h-2v-2
			h2V282.361z M383.139,282.361h-2v-2h2V282.361z M379.139,282.361h-2v-2h2V282.361z M375.139,282.361h-2v-2h2V282.361z
			 M371.139,282.361h-2v-2h2V282.361z M367.139,282.361h-2v-2h2V282.361z M363.139,282.361h-2v-2h2V282.361z M359.139,282.361h-2v-2
			h2V282.361z M355.139,282.361h-2v-2h2V282.361z M351.139,282.361h-2v-2h2V282.361z M347.139,282.361h-2v-2h2V282.361z
			 M343.139,282.361h-2v-2h2V282.361z"/>
	</g>
        <g>
		<path style="fill:#F8CF26;" d="M477.977,81.667c0-3.174-2.821-5.995-5.995-5.995c3.174,0,5.995-2.821,5.995-5.995
			c0,3.174,2.821,5.995,5.995,5.995C480.799,75.672,477.977,78.493,477.977,81.667z"/>
            <path style="fill:#F8CF26;" d="M491.332,70.336c0-3.174-2.821-5.995-5.995-5.995c3.174,0,5.995-2.821,5.995-5.995
			c0,3.174,2.821,5.995,5.995,5.995C494.153,64.341,491.332,67.163,491.332,70.336z"/>
            <path style="fill:#F8CF26;" d="M475.484,64.341c0-3.174-2.821-5.995-5.995-5.995c3.174,0,5.995-2.821,5.995-5.995
			c0,3.174,2.821,5.995,5.995,5.995C478.305,58.347,475.484,61.168,475.484,64.341z"/>
	</g>
        <g>
		<path style="fill:#F8CF26;" d="M451.338,327.086c0-3.174-2.821-5.995-5.995-5.995c3.174,0,5.995-2.821,5.995-5.995
			c0,3.174,2.821,5.995,5.995,5.995C454.159,321.091,451.338,323.912,451.338,327.086z"/>
            <path style="fill:#F8CF26;" d="M464.692,315.755c0-3.174-2.821-5.995-5.995-5.995c3.174,0,5.995-2.821,5.995-5.995
			c0,3.174,2.821,5.995,5.995,5.995C467.513,309.76,464.692,312.581,464.692,315.755z"/>
            <path style="fill:#F8CF26;" d="M448.844,309.76c0-3.174-2.821-5.995-5.995-5.995c3.174,0,5.995-2.821,5.995-5.995
			c0,3.174,2.821,5.995,5.995,5.995C451.666,303.765,448.844,306.586,448.844,309.76z"/>
	</g>
        <g>
		<path style="fill:#F8CF26;" d="M39.236,169.196c0-3.174-2.821-5.995-5.995-5.995c3.174,0,5.995-2.821,5.995-5.995
			c0,3.174,2.821,5.995,5.995,5.995C42.058,163.201,39.236,166.022,39.236,169.196z"/>
            <path style="fill:#F8CF26;" d="M52.591,157.866c0-3.174-2.821-5.995-5.995-5.995c3.174,0,5.995-2.821,5.995-5.995
			c0,3.174,2.821,5.995,5.995,5.995C55.412,151.871,52.591,154.692,52.591,157.866z"/>
            <path style="fill:#F8CF26;" d="M36.743,151.871c0-3.174-2.821-5.995-5.995-5.995c3.174,0,5.995-2.821,5.995-5.995
			c0,3.174,2.821,5.995,5.995,5.995C39.564,145.876,36.743,148.697,36.743,151.871z"/>
	</g>
        <g>
		<path style="fill:#F8CF26;" d="M321.789,118.663c0-3.174-2.821-5.995-5.995-5.995c3.174,0,5.995-2.821,5.995-5.995
			c0,3.174,2.821,5.995,5.995,5.995C324.61,112.668,321.789,115.489,321.789,118.663z"/>
            <path style="fill:#F8CF26;" d="M335.143,107.333c0-3.174-2.821-5.995-5.995-5.995c3.174,0,5.995-2.821,5.995-5.995
			c0,3.174,2.821,5.995,5.995,5.995C337.964,101.338,335.143,104.159,335.143,107.333z"/>
            <path style="fill:#F8CF26;" d="M319.296,101.338c0-3.174-2.821-5.995-5.995-5.995c3.174,0,5.995-2.821,5.995-5.995
			c0,3.174,2.821,5.995,5.995,5.995C322.117,95.343,319.296,98.164,319.296,101.338z"/>
	</g>
        <g>
		<path style="fill:#66CEDB;" d="M116.111,294.097c-0.552,0-1-0.447-1-1c0-2.614-2.381-4.995-4.995-4.995c-0.552,0-1-0.447-1-1
			c0-0.553,0.448-1,1-1c2.614,0,4.995-2.381,4.995-4.995c0-0.553,0.448-1,1-1c0.552,0,1,0.447,1,1c0,2.614,2.381,4.995,4.995,4.995
			c0.552,0,1,0.447,1,1c0,0.553-0.448,1-1,1c-2.614,0-4.995,2.381-4.995,4.995C117.111,293.649,116.664,294.097,116.111,294.097z
			 M113.61,287.102c1.018,0.616,1.885,1.483,2.501,2.501c0.616-1.018,1.483-1.885,2.501-2.501c-1.018-0.616-1.885-1.483-2.501-2.501
			C115.495,285.618,114.628,286.485,113.61,287.102z"/>
	</g>
        <g>
		<path style="fill:#E74C3C;" d="M111.944,90.348c-0.552,0-1-0.448-1-1c0-2.614-2.381-4.995-4.995-4.995c-0.552,0-1-0.448-1-1
			c0-0.552,0.448-1,1-1c2.614,0,4.995-2.381,4.995-4.995c0-0.552,0.448-1,1-1c0.552,0,1,0.448,1,1c0,2.614,2.381,4.995,4.995,4.995
			c0.552,0,1,0.448,1,1c0,0.552-0.448,1-1,1c-2.614,0-4.995,2.381-4.995,4.995C112.944,89.9,112.497,90.348,111.944,90.348z
			 M109.443,83.353c1.018,0.617,1.885,1.483,2.501,2.502c0.617-1.018,1.483-1.885,2.502-2.502c-1.018-0.617-1.885-1.483-2.502-2.501
			C111.328,81.87,110.461,82.736,109.443,83.353z"/>
	</g>
        <g>
		<path style="fill:#E74C3C;" d="M158.472,345.923c-0.552,0-1-0.447-1-1c0-2.614-2.381-4.995-4.995-4.995c-0.552,0-1-0.447-1-1
			c0-0.553,0.448-1,1-1c2.614,0,4.995-2.381,4.995-4.995c0-0.553,0.448-1,1-1c0.552,0,1,0.447,1,1c0,2.614,2.381,4.995,4.995,4.995
			c0.552,0,1,0.447,1,1c0,0.553-0.448,1-1,1c-2.614,0-4.995,2.381-4.995,4.995C159.472,345.476,159.024,345.923,158.472,345.923z
			 M155.971,338.928c1.018,0.616,1.885,1.483,2.501,2.501c0.617-1.018,1.483-1.885,2.501-2.501
			c-1.018-0.616-1.885-1.483-2.501-2.501C157.856,337.444,156.989,338.311,155.971,338.928z"/>
	</g>
        <g>
		<path style="fill:#66CEDB;" d="M518.334,160.428c-0.003,0-0.006,0-0.009,0c-0.378,0-0.76-0.032-1.134-0.096l0.336-1.972
			c0.264,0.045,0.532,0.068,0.799,0.068c0.002,0,0.004,0,0.007,0c0.273,0,0.548-0.024,0.816-0.072l0.35,1.969
			C519.115,160.394,518.724,160.428,518.334,160.428z M515.015,159.548c-0.675-0.387-1.272-0.885-1.776-1.479l1.527-1.292
			c0.353,0.417,0.771,0.765,1.243,1.036L515.015,159.548z M521.672,159.529l-1.006-1.729c0.472-0.275,0.889-0.626,1.238-1.043
			l1.533,1.284C522.94,158.637,522.345,159.137,521.672,159.529z M512.071,156.074c-0.268-0.726-0.406-1.49-0.412-2.272l2-0.015
			c0.004,0.55,0.101,1.086,0.289,1.594L512.071,156.074z M524.593,156.039l-1.879-0.684c0.186-0.51,0.279-1.046,0.279-1.594
			l1.576-0.052l0.423,0.01C524.993,154.543,524.858,155.31,524.593,156.039z M513.931,152.192l-1.885-0.672
			c0.262-0.732,0.646-1.409,1.144-2.009l1.541,1.275C514.382,151.207,514.112,151.68,513.931,152.192z M522.696,152.118
			c-0.191-0.509-0.469-0.977-0.824-1.391l1.518-1.303c0.508,0.592,0.904,1.261,1.178,1.989L522.696,152.118z M515.963,149.736
			l-1.014-1.724c0.672-0.395,1.4-0.667,2.167-0.808l0.361,1.967C516.942,149.27,516.433,149.46,515.963,149.736z M520.62,149.696
			c-0.474-0.268-0.986-0.449-1.523-0.539l0.328-1.973c0.769,0.128,1.502,0.387,2.18,0.771L520.62,149.696z"/>
	</g>
        <g>
		<path style="fill:#F8CF26;" d="M528.743,272.442c-0.378,0-0.76-0.032-1.135-0.097l0.336-1.971
			c0.539,0.091,1.092,0.089,1.623-0.005l0.35,1.969C529.531,272.407,529.137,272.442,528.743,272.442z M525.432,271.563
			c-0.675-0.387-1.272-0.884-1.776-1.478l1.527-1.293c0.353,0.417,0.77,0.766,1.243,1.037L525.432,271.563z M532.09,271.543
			l-1.006-1.728c0.472-0.275,0.888-0.625,1.238-1.043l1.533,1.283C533.356,270.651,532.762,271.152,532.09,271.543z
			 M522.488,268.089c-0.268-0.726-0.406-1.49-0.412-2.272l2-0.014c0.004,0.549,0.101,1.085,0.289,1.593L522.488,268.089z
			 M535.01,268.053l-1.879-0.684c0.186-0.511,0.279-1.047,0.279-1.594l1.554-0.053l0.445,0.012
			C535.41,266.557,535.275,267.322,535.01,268.053z M524.347,264.208l-1.885-0.672c0.261-0.731,0.645-1.407,1.143-2.009l1.541,1.275
			C524.798,263.224,524.528,263.696,524.347,264.208z M533.112,264.129c-0.191-0.508-0.469-0.976-0.825-1.391l1.518-1.303
			c0.509,0.594,0.906,1.263,1.179,1.988L533.112,264.129z M526.377,261.752l-1.014-1.725c0.673-0.396,1.401-0.667,2.166-0.809
			l0.363,1.967C527.357,261.284,526.848,261.475,526.377,261.752z M531.035,261.709c-0.475-0.269-0.987-0.449-1.522-0.538
			l0.324-1.973c0.769,0.126,1.503,0.385,2.183,0.769L531.035,261.709z"/>
	</g>
        <g>
		<path style="fill:#F1C410;" d="M366.706,140.499c-0.728-0.101-1.435-0.306-2.104-0.609l0.826-1.822
			c0.494,0.224,1.017,0.376,1.554,0.45L366.706,140.499z M368.893,140.492l-0.287-1.98c0.536-0.078,1.059-0.232,1.551-0.459
			l0.836,1.817C370.325,140.178,369.619,140.387,368.893,140.492z M362.757,138.712c-0.556-0.478-1.04-1.032-1.439-1.646
			l1.676-1.091c0.297,0.456,0.656,0.866,1.068,1.221L362.757,138.712z M372.83,138.683l-1.313-1.509
			c0.41-0.356,0.767-0.77,1.062-1.228l1.682,1.082C373.864,137.646,373.383,138.203,372.83,138.683z M360.395,135.08
			c-0.21-0.701-0.318-1.43-0.321-2.166l2-0.009c0.002,0.544,0.082,1.083,0.237,1.602L360.395,135.08z M375.171,135.036l-1.92-0.561
			c0.151-0.518,0.228-1.058,0.228-1.605l2-0.079v0.079C375.479,133.606,375.376,134.335,375.171,135.036z M362.292,131.297
			l-1.922-0.551c0.201-0.705,0.503-1.377,0.897-1.998l1.689,1.07C362.665,130.279,362.441,130.776,362.292,131.297z
			 M373.229,131.198c-0.156-0.515-0.387-1.007-0.688-1.462l1.67-1.1c0.406,0.617,0.72,1.284,0.932,1.984L373.229,131.198z
			 M364.01,128.587l-1.322-1.501c0.55-0.484,1.166-0.888,1.83-1.199l0.848,1.812C364.873,127.929,364.417,128.227,364.01,128.587z
			 M371.467,128.52c-0.415-0.352-0.876-0.643-1.37-0.863l0.813-1.827c0.67,0.298,1.293,0.69,1.853,1.167L371.467,128.52z
			 M366.915,127.231l-0.299-1.978c0.718-0.108,1.461-0.115,2.185-0.02l-0.26,1.983C368.01,127.146,367.452,127.149,366.915,127.231z
			"/>
	</g>
        <g>
		<path style="fill:#66CEDB;" d="M258.929,294.022c-0.728-0.102-1.436-0.307-2.104-0.608l0.824-1.822
			c0.494,0.224,1.017,0.375,1.556,0.45L258.929,294.022z M261.115,294.016l-0.286-1.978c0.537-0.078,1.059-0.232,1.551-0.459
			l0.837,1.816C262.549,293.702,261.842,293.911,261.115,294.016z M254.98,292.237c-0.557-0.479-1.042-1.033-1.441-1.647l1.677-1.09
			c0.296,0.455,0.655,0.865,1.068,1.22L254.98,292.237z M265.054,292.207l-1.311-1.51c0.41-0.357,0.767-0.769,1.061-1.227
			l1.683,1.082C266.089,291.17,265.607,291.727,265.054,292.207z M252.619,288.603c-0.209-0.7-0.318-1.429-0.322-2.165l2-0.01
			c0.003,0.545,0.083,1.084,0.238,1.603L252.619,288.603z M267.395,288.56l-1.92-0.561c0.152-0.52,0.229-1.059,0.229-1.605l2-0.098
			l0,0.098C267.703,287.13,267.599,287.858,267.395,288.56z M254.516,284.822l-1.923-0.551c0.202-0.705,0.503-1.377,0.897-1.998
			l1.689,1.07C254.889,283.803,254.665,284.301,254.516,284.822z M265.456,284.725c-0.159-0.519-0.391-1.012-0.69-1.465l1.67-1.102
			c0.404,0.613,0.718,1.28,0.932,1.98L265.456,284.725z M256.233,282.111l-1.321-1.502c0.55-0.483,1.166-0.887,1.83-1.198
			l0.849,1.811C257.098,281.453,256.642,281.752,256.233,282.111z M263.691,282.046c-0.415-0.353-0.876-0.643-1.372-0.864
			l0.815-1.826c0.669,0.299,1.292,0.69,1.851,1.165L263.691,282.046z M259.139,280.756l-0.299-1.979
			c0.708-0.107,1.46-0.114,2.186-0.019l-0.266,1.982C260.231,280.671,259.667,280.676,259.139,280.756z"/>
	</g>
        <g>
		<path style="fill:#E74C3C;" d="M87.444,191.389c-2.083,0-3.777-1.694-3.777-3.777c0-2.083,1.694-3.778,3.777-3.778
			s3.778,1.695,3.778,3.778C91.222,189.694,89.527,191.389,87.444,191.389z M87.444,185.833c-0.98,0-1.777,0.797-1.777,1.778
			c0,0.98,0.797,1.777,1.777,1.777c0.98,0,1.778-0.797,1.778-1.777C89.222,186.631,88.425,185.833,87.444,185.833z"/>
	</g>
        <g>
		<path style="fill:#E74C3C;" d="M41.555,185.833c-1.83,0-3.319-1.489-3.319-3.319c0-1.829,1.489-3.318,3.319-3.318
			c1.83,0,3.318,1.489,3.318,3.318C44.874,184.345,43.385,185.833,41.555,185.833z M41.555,181.196
			c-0.727,0-1.319,0.591-1.319,1.318c0,0.727,0.592,1.319,1.319,1.319c0.727,0,1.318-0.592,1.318-1.319
			C42.874,181.788,42.282,181.196,41.555,181.196z"/>
	</g>
        <path style="fill:#E74C3C;" d="M543.194,203.236c0,1.342-1.088,2.431-2.43,2.431c-1.342,0-2.431-1.088-2.431-2.431
		c0-1.342,1.088-2.43,2.431-2.43C542.106,200.806,543.194,201.894,543.194,203.236z"/>
        <circle style="fill:#E74C3C;" cx="444.594" cy="108.418" r="1.744"/>
        <path style="fill:#E74C3C;" d="M335.143,228.305c0,0.845-0.685,1.53-1.53,1.53c-0.845,0-1.53-0.685-1.53-1.53s0.685-1.53,1.53-1.53
		C334.458,226.775,335.143,227.46,335.143,228.305z"/>
        <path style="fill:#E74C3C;" d="M222.679,90.521c0,1.845-1.496,3.34-3.34,3.34s-3.34-1.496-3.34-3.34s1.496-3.34,3.34-3.34
		S222.679,88.676,222.679,90.521z"/>
        <path style="fill:#E74C3C;" d="M181.45,94.586c0,0.784-0.635,1.419-1.419,1.419c-0.784,0-1.419-0.635-1.419-1.419
		c0-0.784,0.635-1.419,1.419-1.419C180.814,93.167,181.45,93.802,181.45,94.586z"/>
        <circle style="fill:#E74C3C;" cx="141.697" cy="301.097" r="2.669"/>
        <path style="fill:#E74C3C;" d="M550.139,173.722c0,1.918-1.555,3.472-3.472,3.472c-1.918,0-3.472-1.555-3.472-3.472
		c0-1.918,1.555-3.472,3.472-3.472C548.584,170.25,550.139,171.805,550.139,173.722z"/>
        <path style="fill:#66CEDB;" d="M523.993,241.205c0,1.218-0.987,2.205-2.205,2.205c-1.218,0-2.205-0.987-2.205-2.205
		c0-1.218,0.987-2.205,2.205-2.205C523.006,239,523.993,239.987,523.993,241.205z"/>
        <circle style="fill:#66CEDB;" cx="546.992" cy="146.381" r="1.714"/>
        <path style="fill:#66CEDB;" d="M440.85,75.216c0,1.408-1.141,2.549-2.549,2.549c-1.408,0-2.549-1.141-2.549-2.549
		c0-1.408,1.141-2.549,2.549-2.549C439.708,72.667,440.85,73.808,440.85,75.216z"/>
        <path style="fill:#66CEDB;" d="M52.591,315.767c0,1.36-1.102,2.462-2.462,2.462s-2.462-1.102-2.462-2.462
		c0-1.36,1.102-2.462,2.462-2.462S52.591,314.408,52.591,315.767z"/>
        <path style="fill:#66CEDB;" d="M87.445,331.317c0,1.596-1.294,2.889-2.889,2.889c-1.596,0-2.889-1.293-2.889-2.889
		c0-1.595,1.293-2.889,2.889-2.889C86.151,328.428,87.445,329.721,87.445,331.317z"/>
        <path style="fill:#66CEDB;" d="M222.832,182.515c0,1.281-1.038,2.319-2.319,2.319c-1.281,0-2.319-1.038-2.319-2.319
		c0-1.281,1.038-2.319,2.319-2.319C221.794,180.196,222.832,181.234,222.832,182.515z"/>
        <path style="fill:#F8CF26;" d="M315.794,297.7c0,1.255-1.017,2.272-2.272,2.272c-1.255,0-2.272-1.017-2.272-2.272
		c0-1.255,1.017-2.272,2.272-2.272C314.777,295.428,315.794,296.445,315.794,297.7z"/>
        <path style="fill:#F8CF26;" d="M483.091,291.968c0,1.639-1.329,2.968-2.968,2.968c-1.639,0-2.968-1.329-2.968-2.968
		c0-1.639,1.329-2.968,2.968-2.968C481.762,289,483.091,290.329,483.091,291.968z"/>
        <path style="fill:#F8CF26;" d="M535.072,311.117c0,1.209-0.98,2.189-2.189,2.189c-1.209,0-2.189-0.98-2.189-2.189
		c0-1.209,0.98-2.189,2.189-2.189C534.092,308.928,535.072,309.908,535.072,311.117z"/>
        <path style="fill:#F8CF26;" d="M555.859,235.61c0,1.196-0.97,2.166-2.165,2.166c-1.196,0-2.166-0.97-2.166-2.166
		c0-1.196,0.97-2.165,2.166-2.165C554.889,233.444,555.859,234.414,555.859,235.61z"/>
        <path style="fill:#F8CF26;" d="M370.084,83.414c-1.386,1.385-3.632,1.385-5.017,0c-1.385-1.385-1.385-3.632,0-5.017
		c1.385-1.385,3.632-1.385,5.017,0C371.469,79.783,371.469,82.029,370.084,83.414z"/>
        <path style="fill:#F8CF26;" d="M393.511,78.289c0,1.445-1.172,2.617-2.617,2.617c-1.445,0-2.617-1.172-2.617-2.617
		c0-1.445,1.172-2.617,2.617-2.617C392.339,75.672,393.511,76.843,393.511,78.289z"/>
        <path style="fill:#F8CF26;" d="M156.169,99.179c0,1.02-0.826,1.846-1.846,1.846c-1.02,0-1.846-0.826-1.846-1.846
		s0.827-1.846,1.846-1.846C155.343,97.333,156.169,98.16,156.169,99.179z"/>
        <path style="fill:#F8CF26;" d="M123.77,130.751c0,1.61-1.305,2.915-2.915,2.915c-1.61,0-2.915-1.305-2.915-2.915
		c0-1.61,1.305-2.915,2.915-2.915C122.465,127.836,123.77,129.141,123.77,130.751z"/>
        <path style="fill:#F8CF26;" d="M58.872,76.006c0,1.261-1.022,2.283-2.283,2.283c-1.261,0-2.283-1.022-2.283-2.283
		s1.022-2.283,2.283-2.283C57.85,73.722,58.872,74.744,58.872,76.006z"/>
        <path style="fill:#F8CF26;" d="M148.601,219.893c0,1.17-0.948,2.118-2.118,2.118s-2.118-0.948-2.118-2.118s0.948-2.118,2.118-2.118
		S148.601,218.723,148.601,219.893z"/>
        <path style="fill:#F8CF26;" d="M293.358,228.454c0,0.651-0.528,1.179-1.179,1.179c-0.651,0-1.179-0.528-1.179-1.179
		c0-0.651,0.528-1.179,1.179-1.179C292.83,227.275,293.358,227.803,293.358,228.454z"/>
        <path style="fill:#F8CF26;" d="M313.301,171.97c0,0.566-0.459,1.025-1.025,1.025c-0.566,0-1.025-0.459-1.025-1.025
		c0-0.566,0.459-1.025,1.025-1.025C312.842,170.944,313.301,171.404,313.301,171.97z"/>
        <path style="fill:#F8CF26;" d="M251.528,353.164c0,0.959-0.777,1.736-1.736,1.736c-0.959,0-1.736-0.777-1.736-1.736
		c0-0.959,0.777-1.736,1.736-1.736C250.75,351.428,251.528,352.205,251.528,353.164z"/>
</g>
</svg>
