<?xml version="1.0" encoding="UTF-8"?><svg id="uuid-a098571c-0d09-47ae-8132-b7a52caf64a2" xmlns="http://www.w3.org/2000/svg" viewBox="0 0 351.98 392.73"><defs><style>.uuid-148d8e14-efeb-41d0-85d0-e637a6a820e4{fill:#282d33;}.uuid-93481e92-97be-4232-99e4-74e8c2421bd2{fill:#0e74bb;}.uuid-e85da17b-267a-4347-b7d4-2110ea53e5d6{fill:#99b9ff;}.uuid-407e0126-c9b8-4bd2-8c9e-8bc574a13ae7{fill:#fff;}.uuid-6bf3e069-849e-4761-8085-180b3967b06c{fill:#080717;}</style></defs><path class="uuid-e85da17b-267a-4347-b7d4-2110ea53e5d6" d="M144.28,175.34l-4.75,1.32c-1.11.31-2.54-.21-3.18-1.17l-1.48-1.9c-.76-.85-.94-2.36-.37-3.36l2.43-4.29c.56-1,.21-2.28-.78-2.83l-6.64-3.77c-.99-.56-2.27-.2-2.84.79l-2.43,4.3c-.57,1-1.94,1.63-3.07,1.41l-2.39-.3c-1.14-.05-2.32-1-2.63-2.11l-1.32-4.75c-.3-1.1-1.47-1.76-2.57-1.45l-7.37,2.04c-1.1.3-1.74,1.46-1.44,2.56l1.32,4.75c.31,1.11-.22,2.53-1.18,3.17l-1.9,1.49c-.85.77-2.36.94-3.35.37l-4.3-2.44c-.99-.56-2.27-.2-2.83.78l-3.76,6.65c-.56.99-.21,2.26.78,2.83l4.29,2.43c1,.56,1.63,1.94,1.42,3.07l-.29,2.39c-.06,1.15-1.01,2.33-2.12,2.64l-4.76,1.32c-1.1.3-1.75,1.46-1.45,2.56l2.04,7.35c.31,1.11,1.46,1.76,2.56,1.45l4.76-1.32c1.1-.31,2.53.22,3.17,1.17l1.48,1.91c.76.85.93,2.36.37,3.36l-2.43,4.29c-.56.99-.2,2.27.79,2.84l6.65,3.76c.99.56,2.27.21,2.83-.78l2.44-4.3c.56-.99,1.93-1.63,3.06-1.41l2.4.29c1.15.06,2.34,1.01,2.64,2.12l1.32,4.75c.31,1.11,1.45,1.76,2.55,1.46l7.37-2.04c1.1-.3,1.76-1.46,1.45-2.57l-1.32-4.75c-.31-1.11.22-2.53,1.17-3.17l1.89-1.48c.86-.76,2.36-.93,3.36-.36l4.3,2.43c1,.56,2.28.21,2.84-.79l3.75-6.64c.57-1,.21-2.28-.79-2.84l-4.3-2.43c-1-.57-1.62-1.96-1.41-3.07l.29-2.4c.06-1.14,1.01-2.33,2.13-2.64l4.75-1.32c1.1-.31,1.75-1.46,1.45-2.56l-2.04-7.35c-.31-1.1-1.46-1.76-2.56-1.45ZM119.79,198.68c-5.36,1.48-10.9-1.66-12.38-7.01-1.48-5.36,1.65-10.89,7.01-12.38,5.34-1.48,10.89,1.65,12.37,7.01,1.48,5.35-1.66,10.9-7.01,12.38Z"/><circle class="uuid-e85da17b-267a-4347-b7d4-2110ea53e5d6" cx="229.04" cy="141.79" r="92.72" transform="translate(-33.17 203.48) rotate(-45)"/><circle class="uuid-407e0126-c9b8-4bd2-8c9e-8bc574a13ae7" cx="229.04" cy="141.79" r="79.77" transform="translate(-33.17 203.48) rotate(-45)"/><rect class="uuid-6bf3e069-849e-4761-8085-180b3967b06c" x="219.38" y="72.28" width="2.66" height="16.07" transform="translate(-8.85 30.67) rotate(-7.79)"/><polygon class="uuid-6bf3e069-849e-4761-8085-180b3967b06c" points="197.02 98.16 194.92 99.77 185.09 87.09 187.18 85.47 197.02 98.16"/><polygon class="uuid-6bf3e069-849e-4761-8085-180b3967b06c" points="179.49 120.07 178.5 122.52 163.62 116.45 164.64 113.99 179.49 120.07"/><rect class="uuid-6bf3e069-849e-4761-8085-180b3967b06c" x="159.35" y="148.83" width="16.05" height="2.66" transform="translate(-19.02 24.38) rotate(-7.88)"/><polygon class="uuid-6bf3e069-849e-4761-8085-180b3967b06c" points="185.48 173.9 187.11 175.99 174.41 185.83 172.79 183.75 185.48 173.9"/><polygon class="uuid-6bf3e069-849e-4761-8085-180b3967b06c" points="207.4 191.4 209.83 192.42 203.77 207.29 201.33 206.28 207.4 191.4"/><rect class="uuid-6bf3e069-849e-4761-8085-180b3967b06c" x="236.11" y="195.44" width="2.65" height="16.06" transform="translate(-25.38 34.05) rotate(-7.79)"/><polygon class="uuid-6bf3e069-849e-4761-8085-180b3967b06c" points="261.22 185.43 263.32 183.81 273.16 196.5 271.06 198.11 261.22 185.43"/><polygon class="uuid-6bf3e069-849e-4761-8085-180b3967b06c" points="278.64 163.45 279.64 161 294.53 167.07 293.52 169.52 278.64 163.45"/><polygon class="uuid-6bf3e069-849e-4761-8085-180b3967b06c" points="282.92 135.78 282.56 133.15 298.47 130.97 298.81 133.6 282.92 135.78"/><polygon class="uuid-6bf3e069-849e-4761-8085-180b3967b06c" points="272.76 109.69 271.13 107.59 283.83 97.76 285.45 99.85 272.76 109.69"/><polygon class="uuid-6bf3e069-849e-4761-8085-180b3967b06c" points="250.77 92.19 248.32 91.18 254.38 76.32 256.84 77.32 250.77 92.19"/><rect class="uuid-6bf3e069-849e-4761-8085-180b3967b06c" x="223.49" y="98.61" width="5.25" height="43.57" transform="translate(-14.24 31.77) rotate(-7.79)"/><polygon class="uuid-6bf3e069-849e-4761-8085-180b3967b06c" points="236.03 143.1 234.56 146.28 183.58 124.83 185.06 121.7 236.03 143.1"/><circle class="uuid-6bf3e069-849e-4761-8085-180b3967b06c" cx="229.04" cy="141.79" r="6.54" transform="translate(-22.39 238.46) rotate(-52.79)"/><path class="uuid-93481e92-97be-4232-99e4-74e8c2421bd2" d="M273.34,30.19c7.14-21.13,30.05-32.46,51.18-25.32,21.13,7.14,32.46,30.05,25.32,51.18-4.78,14.15-16.65,23.87-30.31,26.63l-4.97,14.72-38.25-12.93,4.97-14.72c-9.19-10.48-12.72-25.41-7.94-39.56Z"/><path class="uuid-6bf3e069-849e-4761-8085-180b3967b06c" d="M302.43,94.79c-.15,0-.31-.02-.47-.07-.86-.26-1.35-1.17-1.09-2.03.37-1.22,6.1-20.24,11.94-36.07-.73-.08-1.45-.19-2.14-.34-2.47-.52-4.81-1.36-6.93-2.48-4.71,14.83-12.38,35.12-12.78,36.17-.32.84-1.26,1.27-2.11.95-.84-.32-1.27-1.26-.95-2.11.1-.26,8.25-21.81,12.96-36.77-3.17-2.25-5.63-5.17-7.03-8.45-1.71-4.04-1.53-8.03.5-11.25,1.44-2.28,5.01-3.1,7.98-1.82,1.62.7,6.72,3.78,4.12,14.09-.44,1.76-1.03,3.8-1.7,6.03,1.88,1.05,4.09,1.91,6.62,2.44.85.18,1.74.3,2.66.37,2.81-7.38,5.56-13.68,7.67-16.56,1.95-2.67,7.43-3.77,11.27-2.26,2.21.87,5.8,3.32,5.02,9.97-.3,2.53-1.97,4.96-4.84,7.03-4.41,3.17-10.89,5.07-16.88,5.15-5.99,16.15-12.14,36.54-12.23,36.85-.21.71-.86,1.16-1.56,1.16ZM329.1,37.2c-2.2,0-4.23.85-4.8,1.62-1.84,2.52-4.28,8.03-6.82,14.64,4.96-.31,10.18-1.94,13.72-4.49,1.47-1.06,3.27-2.74,3.51-4.76.4-3.41-.6-5.61-2.97-6.54-.85-.33-1.76-.47-2.64-.47ZM299.37,33.18c-1.08,0-1.97.42-2.28.91-1.44,2.28-1.53,5.21-.25,8.23.89,2.09,2.55,4.42,5.04,6.42.54-1.81,1.01-3.48,1.37-4.93,1.35-5.35.54-9.1-2.24-10.29-.56-.24-1.13-.34-1.65-.34Z"/><path class="uuid-6bf3e069-849e-4761-8085-180b3967b06c" d="M275.52,90.18h30.64c2.63,0,4.77,2.14,4.77,4.77v24.5h-40.17v-24.5c0-2.63,2.14-4.77,4.77-4.77Z" transform="translate(532.81 297.23) rotate(-161.33)"/><rect class="uuid-6bf3e069-849e-4761-8085-180b3967b06c" x="289.82" y="78.42" width="3.9" height="43.61" transform="translate(103.4 344.55) rotate(-71.33)"/><rect class="uuid-6bf3e069-849e-4761-8085-180b3967b06c" x="292.8" y="70.58" width="3.9" height="43.61" transform="translate(112.86 342.03) rotate(-71.33)"/><rect class="uuid-6bf3e069-849e-4761-8085-180b3967b06c" x="171.51" y="23.33" width="18.38" height="3.27" transform="translate(46.09 148.07) rotate(-50.31)"/><rect class="uuid-6bf3e069-849e-4761-8085-180b3967b06c" x="179.07" y="15.77" width="3.27" height="18.38" transform="translate(46.05 148.03) rotate(-50.29)"/><path class="uuid-93481e92-97be-4232-99e4-74e8c2421bd2" d="M51.55,93.62l-3.16,7.98c-1.74,4.41-1.23,8.85,1.14,9.92l120.12,52.15,9.47-23.95-120.12-52.15c-2.37-1.07-5.71,1.63-7.45,6.04Z"/><path class="uuid-6bf3e069-849e-4761-8085-180b3967b06c" d="M53.24,113.2l9.47-23.95-3.71-1.67c-2.37-1.07-5.71,1.63-7.45,6.04l-3.16,7.98c-1.74,4.41-1.23,8.85,1.14,9.92l3.71,1.67Z"/><polygon class="uuid-407e0126-c9b8-4bd2-8c9e-8bc574a13ae7" points="179.8 142.91 195.57 161.54 172.21 162.08 179.8 142.91"/><path class="uuid-6bf3e069-849e-4761-8085-180b3967b06c" d="M180.31,146.04l11.8,13.95-17.48.4,5.67-14.35h0ZM179.28,139.77l-9.49,23.99,29.23-.67-19.74-23.33h0Z"/><polygon class="uuid-6bf3e069-849e-4761-8085-180b3967b06c" points="185.28 163.41 199.02 163.09 189.73 152.11 185.28 163.41"/><rect class="uuid-6bf3e069-849e-4761-8085-180b3967b06c" x="233.16" y="20.43" width="3.27" height="7.56" transform="translate(24.83 132.05) rotate(-33.07)"/><rect class="uuid-6bf3e069-849e-4761-8085-180b3967b06c" x="220.48" y=".95" width="3.27" height="7.56" transform="translate(33.4 121.98) rotate(-33.07)"/><rect class="uuid-6bf3e069-849e-4761-8085-180b3967b06c" x="236.28" y="12.21" width="7.56" height="3.27" transform="translate(-.4 12.91) rotate(-3.08)"/><rect class="uuid-6bf3e069-849e-4761-8085-180b3967b06c" x="213.07" y="13.46" width="7.56" height="3.27" transform="translate(-.5 11.67) rotate(-3.08)"/><rect class="uuid-6bf3e069-849e-4761-8085-180b3967b06c" x="219.41" y="23.2" width="7.56" height="3.27" transform="translate(99.94 212.56) rotate(-63.06)"/><rect class="uuid-6bf3e069-849e-4761-8085-180b3967b06c" x="229.94" y="2.48" width="7.56" height="3.27" transform="translate(124.16 210.6) rotate(-63.06)"/><path d="M80.05,197.88l-23.31-43.81L0,164.28l3.06,17.08,44.31-7.96,15.12,28.43-.24.05,65.91,123.44.13.25h0l3.12,5.85,188.31-42.38.32-6.61c2.02-42.89,4.07-85.78,6.12-128.68l.56-11.39-246.68,55.52Z"/><path d="M174.31,346.47c-12.61,2.84-20.54,15.36-17.7,27.98,2.84,12.61,15.36,20.54,27.98,17.7,12.62-2.84,20.54-15.37,17.7-27.98-2.84-12.62-15.36-20.54-27.98-17.7Z"/><path d="M283.08,321.99c-12.61,2.84-20.54,15.37-17.7,27.98,2.84,12.62,15.36,20.54,27.98,17.7,12.62-2.84,20.54-15.36,17.7-27.98-2.84-12.61-15.36-20.54-27.98-17.7Z"/><path d="M110.38,145.94c-.12,0-.24-.01-.36-.04-.8-.18-1.34-.92-1.27-1.73l5.63-66.25c-.22-.04-.44-.05-.66-.04l-34.82.75c-3.65.17-7.08-2.34-8-5.97l-11.09-43.92c-.58-2.3-.11-4.72,1.31-6.64,1.41-1.91,3.58-3.08,5.96-3.2l68.82-2.73c3.69-.19,7.06,2.26,8.02,5.84,0,0,0,0,0,0l11.16,41.67c.65,2.39.15,4.9-1.35,6.87-1.51,1.97-3.8,3.1-6.28,3.11l-9.44.84-26.1,70.39c-.24.65-.86,1.07-1.53,1.07ZM113.9,74.61c1.03,0,2.07.27,3,.78.57.31.9.93.84,1.57l-4.72,55.53,22.29-60.1c.22-.59.76-1,1.39-1.06l10.61-.94c1.6,0,2.94-.67,3.83-1.83.88-1.16,1.17-2.63.79-4.03l-11.16-41.67c-.57-2.1-2.53-3.52-4.72-3.42l-68.82,2.73c-1.38.07-2.65.76-3.48,1.88-.83,1.12-1.11,2.54-.77,3.9l11.09,43.92c.54,2.13,2.56,3.59,4.72,3.5l34.82-.75c.09,0,.19,0,.28,0Z"/><path d="M110.83,61.79s17.16-22.75,10.66-28.14c-8.09-6.71-18.1,7.42-15.35,14.09,2.75,6.67,3.43-13.29-6.2-12.22-7.52.83-11.63,11.97,10.89,26.27Z"/><path class="uuid-148d8e14-efeb-41d0-85d0-e637a6a820e4" d="M87.17,304.79h-3.27v-3.27h3.27v3.27ZM80.64,304.79h-3.27v-3.27h3.27v3.27ZM74.11,304.79h-3.27v-3.27h3.27v3.27ZM67.57,304.79h-3.27v-3.27h3.27v3.27ZM61.04,304.79h-3.27v-3.27h3.27v3.27ZM54.51,304.79h-3.27v-3.27h3.27v3.27Z"/><path class="uuid-148d8e14-efeb-41d0-85d0-e637a6a820e4" d="M107.8,318.91h-3.27v-3.27h3.27v3.27ZM101.27,318.91h-3.27v-3.27h3.27v3.27ZM94.74,318.91h-3.27v-3.27h3.27v3.27ZM88.21,318.91h-2.57v-3.27h2.57v3.27Z"/></svg>