<?xml version="1.0" encoding="UTF-8"?><svg id="uuid-4295e8bf-f57c-41de-bc07-e42a3c4e7155" xmlns="http://www.w3.org/2000/svg" viewBox="0 0 530.72 381.91"><defs><style>.uuid-1c8b5cad-08b1-4df9-a813-fb525745cdf1{fill:#282d33;}.uuid-5d7e72cc-a98a-40df-9b6e-ad20c93eca4f{fill:#0e74bb;}.uuid-a76e824f-1ff9-46b4-8408-6e3f735ed9ac{fill:#99b9ff;}.uuid-8056d943-ec17-4453-ac7b-10dc37035922{fill:#fff;}.uuid-5110dd56-80e4-43b2-8844-45b9f80608ed{fill:#080717;}</style></defs><path class="uuid-5d7e72cc-a98a-40df-9b6e-ad20c93eca4f" d="M332.94,381.91h-62.33c0-39.05-14.04-67.17-28.91-96.93-18.18-36.39-38.78-77.64-21.19-131.41l59.23,19.38c-9.2,28.12-.26,48.2,17.71,84.17,15.81,31.65,35.48,71.03,35.48,124.78Z"/><path class="uuid-5d7e72cc-a98a-40df-9b6e-ad20c93eca4f" d="M246.56,122.28l35.99-75.01c1.85-3.86,1.4-8.44-1.18-11.86h0c-1.48-1.96-4.47-1.85-5.79.22l-61.52,96.07,32.51-9.42Z"/><path class="uuid-5d7e72cc-a98a-40df-9b6e-ad20c93eca4f" d="M246.74,129.39l3.71-83.11c.19-4.28-2.02-8.31-5.73-10.44h0c-2.13-1.23-4.84.05-5.24,2.48l-18.95,112.5,26.22-21.41Z"/><path class="uuid-5d7e72cc-a98a-40df-9b6e-ad20c93eca4f" d="M241.69,148.11l-17.58-81.32c-.91-4.19-4.07-7.52-8.21-8.64h0c-2.38-.64-4.66,1.28-4.44,3.73l3.11,82.6,27.11,3.63Z"/><path class="uuid-5110dd56-80e4-43b2-8844-45b9f80608ed" d="M239.86,105.94c-.17,0-.34-.03-.51-.09-.81-.28-1.24-1.17-.96-1.98l9.3-26.61c.28-.81,1.17-1.24,1.99-.96.81.28,1.24,1.17.96,1.98l-9.3,26.61c-.23.64-.83,1.04-1.47,1.04Z"/><path class="uuid-5110dd56-80e4-43b2-8844-45b9f80608ed" d="M225.57,117.96c-.1,0-.2,0-.31-.03-.84-.17-1.39-.99-1.22-1.83l4.43-22.11c.17-.84.99-1.39,1.83-1.22.84.17,1.39.99,1.22,1.83l-4.43,22.11c-.15.74-.8,1.25-1.53,1.25Z"/><path class="uuid-8056d943-ec17-4453-ac7b-10dc37035922" d="M298.83,105.55c-3.16.74-5.95,2.61-7.83,5.27l-21.79,30.75c-1.65,2.33-4.1,3.97-6.88,4.61h0c-.14.03-.27.06-.41.08l24.59,10.06,16.6-45.96c.99-2.74-1.45-5.48-4.28-4.82Z"/><path class="uuid-5d7e72cc-a98a-40df-9b6e-ad20c93eca4f" d="M210.8,235.5l3.24-103.79,47.28-45.72,50.36-1.08c1.53-.03,2.76,1.26,2.64,2.79h0c-.39,5-4.11,9.1-9.05,9.97l-39.39,6.89-15.76,21.92c-1.62,2.25-2.38,5-2.15,7.76l.13,1.56c.59,7.06,7.3,11.96,14.21,10.37h0c2.78-.64,5.23-2.28,6.88-4.61l21.79-30.75c1.88-2.65,4.66-4.53,7.83-5.27h0c2.83-.66,5.27,2.08,4.28,4.82l-29.6,81.95c-2.53,7-6.72,13.28-12.22,18.29l-3.55,3.24,5.03,9.05c8.61,15.5.08,34.94-17.16,39.08l-1.75.42c-17.2,4.14-33.61-9.22-33.06-26.9Z"/><path class="uuid-5110dd56-80e4-43b2-8844-45b9f80608ed" d="M216.73,125.86c-.44,0-.87-.18-1.18-.54-.56-.65-.49-1.64.17-2.2l44.59-38.31c.27-.24.62-.37.98-.38l3.56-.08c.83,0,1.57.67,1.59,1.52.02.86-.66,1.57-1.52,1.59l-3,.06-44.17,37.95c-.29.25-.65.38-1.01.38Z"/><path class="uuid-5110dd56-80e4-43b2-8844-45b9f80608ed" d="M292.6,21.36c30.75-10.78,89.17-26.48,110.33-19.73,21.36,6.92,21.44,70.07,6.02,87.29-15.6,17.04-85,30.63-105.65,33.47-51.47,7.07-46.49-88.48-10.7-101.03Z"/><path class="uuid-5110dd56-80e4-43b2-8844-45b9f80608ed" d="M300.35,117.37s4.38,19.2,32.43,26.24c0,0-17.81-24.88-7.58-40.01,6.14-9.08-24.86,13.76-24.86,13.76Z"/><rect class="uuid-8056d943-ec17-4453-ac7b-10dc37035922" x="293.9" y="42.84" width="97.75" height="6.72" transform="translate(-2.6 64.78) rotate(-10.76)"/><rect class="uuid-8056d943-ec17-4453-ac7b-10dc37035922" x="297.03" y="59.34" width="97.75" height="6.72" transform="translate(-5.62 65.65) rotate(-10.76)"/><rect class="uuid-8056d943-ec17-4453-ac7b-10dc37035922" x="300.17" y="75.85" width="97.75" height="6.72" transform="translate(-8.65 66.53) rotate(-10.76)"/><path class="uuid-5d7e72cc-a98a-40df-9b6e-ad20c93eca4f" d="M298.83,105.55h0c-3.16.74-5.95,2.61-7.83,5.27l-21.79,30.75c-.87,1.23-1.97,2.26-3.22,3.07.59,11.88,5.97,22.44,14.16,29.31l22.96-63.58c.99-2.74-1.45-5.48-4.28-4.82Z"/><path class="uuid-a76e824f-1ff9-46b4-8408-6e3f735ed9ac" d="M441.51,381.91h-56.09c0-70.51-60.61-91.67-153.08-115.91-7.41-1.94-15.08-3.95-22.43-5.96l14.78-54.11c7.07,1.93,14.26,3.82,21.87,5.81,41.18,10.8,87.86,23.03,124.94,46.25,46.45,29.09,70.01,70.78,70.01,123.92Z"/><path class="uuid-a76e824f-1ff9-46b4-8408-6e3f735ed9ac" d="M275.46,244.67c3.76-12.51-3.9-25.58-16.55-28.85-5.86-1.51-11.96-3.24-16.7-4.92-13.15-4.67-30.15-21.7-31.72-26.52-1.56-4.82-13.47-35.99-13.47-35.99l-34.43-11.46s-2.6,6.31,3.95,9.81c4.78,2.56,14.26,7.69,19.04,10.28,1.85,1,3.2,2.72,3.74,4.76l6.09,23.08-52.12-60.1s-4.43,8.92-.12,14.96c4.31,6.04,40.23,55.48,40.23,55.48l-64.29-69.49s-5.81,7.35-2,13.71c3.81,6.36,55,68.84,55,68.84l-37.95-33.6-40.09,28.03s6.77,6.55,13.71,2c4.61-3.02,13.78-7.93,19.41-10.88,2.82-1.48,6.28-.9,8.48,1.41l28.25,29.74s13.2,14.74-4.28,20.51c-17.47,5.78-15.12,5.85-20.28,7.46-12.68,3.95-11.87,13.79-11.87,13.79l51.84-6.87s30.6,2.36,65.32,8.32c18.24,3.13,26.79-10.18,30.8-23.52Z"/><path class="uuid-1c8b5cad-08b1-4df9-a813-fb525745cdf1" d="M61.45,321.29c-10.11,0-19.78-2.31-28.39-6.91-15.37-8.2-26.14-22.73-31.14-42.03-4.74-18.08-.61-36.88,11.34-51.59,14.49-17.84,37.9-27.32,64.23-26.01,22.54.59,45.36,8.13,62.57,20.69,15.43,11.36,23.08,24.84,21.56,37.95-1.14,9.84-6.85,19.29-17.93,29.65,15.87,13.4,34.37,21.18,34.56,21.26l3.85,1.6-3.96,1.31c-32.31,10.72-55.88,6.27-70.14.49-7.41,3.81-14.87,6.93-22.16,9.26-8.2,2.88-16.43,4.31-24.39,4.31ZM72.71,197.76c-23.45,0-44.04,8.97-57.04,24.98-11.31,13.93-15.23,31.73-10.74,48.84,4.78,18.43,15.01,32.29,29.59,40.06,14.62,7.8,32.49,8.65,50.32,2.39,7.38-2.36,14.89-5.52,22.36-9.41l.65-.34.67.28c13.14,5.48,34.87,9.92,64.79.92-6.59-3.14-20.74-10.53-33-21.22l-1.32-1.15,1.3-1.18c11.19-10.15,17.15-19.6,18.22-28.89,1.41-12.13-5.61-24.26-20.3-35.08-16.71-12.19-38.89-19.52-60.85-20.09-1.56-.08-3.11-.12-4.65-.12Z"/><path class="uuid-a76e824f-1ff9-46b4-8408-6e3f735ed9ac" d="M168.26,238.54c-.91,2.7-3.39,5.22-8.62,6.95-17.47,5.78-15.12,5.85-20.28,7.46-12.68,3.95-11.87,13.79-11.87,13.79l51.84-6.87s.9,0,2.52.01c-1.58-8.19-6.34-15.9-13.6-21.34Z"/><path d="M39.88,220.93c.41-24.34,16.25-38.4,40.28-38.45,19.26-.04,38.54,10.09,38.58,31.35.03,14.94-7.35,20.35-18.89,27.77-8,5.25-10.15,7.57-10.13,16.81l-24.34.05-.02-7.7c-.02-11.86,6.74-17.27,12.43-21.44,6.31-4.17,12.31-7.57,12.29-15.28-.01-6.01-4.49-9.39-10.03-9.38-8.63.02-12.78,5.11-13.22,13.28v2.93s-26.96.06-26.96.06ZM63.24,266.18l28.65-.06.06,28.65-28.66.06-.06-28.65Z"/><rect class="uuid-1c8b5cad-08b1-4df9-a813-fb525745cdf1" x="31.43" y="168.2" width="2.38" height="20.66" transform="translate(-141.2 126.35) rotate(-62.94)"/><rect class="uuid-1c8b5cad-08b1-4df9-a813-fb525745cdf1" x="76.33" y="159.84" width="20.66" height="2.38" transform="translate(-96.16 164.91) rotate(-62.93)"/><rect class="uuid-1c8b5cad-08b1-4df9-a813-fb525745cdf1" x="54.83" y="148.25" width="2.38" height="20.66" transform="translate(-46.11 24.95) rotate(-17.93)"/><path d="M234.78,381.91h-62.33c0-80.74,85.24-128.71,147.49-163.73,3.86-2.17,7.63-4.3,11.29-6.37l30.79,54.19c-3.73,2.12-7.58,4.28-11.52,6.5-48.84,27.48-115.72,65.11-115.72,109.41Z"/><path d="M332.13,182.9l19.23-58.59s7.89-1.59,8.6,2.7c.7,4.29,1.63,28.43,1.63,28.43,0,0-28.75,31.76-29.45,27.47Z"/><path d="M418.24,148.76c-1.28-5.03-51.36-.48-51.36-.48,0,0-16.6,8.94-21.96,14.95-5.36,6.01-10.28,11.77-12.79,19.67-2.51,7.9-9.87,26.8-9.87,26.8l56.03-37.43,19.57-8.88s22.73-5.41,20.38-14.63Z"/><path class="uuid-8056d943-ec17-4453-ac7b-10dc37035922" d="M340.18,169.56c-.36,0-.73-.13-1.03-.38-.65-.57-.71-1.55-.15-2.2,7.78-8.91,21.23-17.1,21.8-17.45.74-.44,1.69-.21,2.14.53.45.74.21,1.69-.52,2.14-.14.08-13.61,8.3-21.07,16.83-.31.35-.74.53-1.17.53Z"/><path d="M289.11,260.67l27.62-36.05s1.61-12.16,10.62-26.4c3-4.75,6.82-9.73,11.68-14.57,10.29-10.25,19.12-17.87,25.16-22.76,5.14-4.16,12.01-5.5,18.35-3.6l42.63,12.76s3.15,12.14-7.31,12.85c-4.54.31-35.38-1.28-35.38-1.28,0,0-17.03,13.3-15.18,25.74,1.85,12.44,9.56,6.16,14.3,3.44,3.22-1.84,16.78,29.23-1.2,46-10.23,9.54-91.29,3.88-91.29,3.88Z"/><path class="uuid-8056d943-ec17-4453-ac7b-10dc37035922" d="M346.17,178.46c-.46,0-.92-.2-1.23-.59-.53-.68-.42-1.66.26-2.19.23-.18,22.74-17.89,25.27-20.2,2.69-2.46,18.21,1.55,30.74,5.34.82.25,1.29,1.12,1.04,1.94-.25.82-1.12,1.29-1.94,1.04-11.8-3.57-25.81-6.85-27.87-5.94-2.49,2.3-24.39,19.53-25.32,20.26-.29.22-.63.33-.96.33Z"/><path d="M419.65,217.86c-4.67,0-8.79-3.4-9.55-8.15l-11.05-69.38c-.84-5.26,2.77-10.23,8.03-11.07l101.4-16.15c2.55-.41,5.11.21,7.2,1.72,2.09,1.52,3.46,3.75,3.87,6.3l11.05,69.38c.41,2.55-.2,5.11-1.72,7.19-1.52,2.09-3.75,3.47-6.31,3.87l-101.4,16.15c-.51.08-1.02.12-1.53.12ZM510.02,116.11c-.35,0-.7.03-1.04.08l-101.4,16.15c-3.57.57-6.01,3.93-5.45,7.5l11.05,69.38c.57,3.57,3.94,6.01,7.51,5.44l101.4-16.15c1.73-.27,3.25-1.21,4.27-2.62,1.03-1.42,1.44-3.15,1.16-4.88l-11.05-69.38c-.28-1.73-1.21-3.24-2.62-4.27-1.13-.82-2.46-1.25-3.83-1.25Z"/><polygon points="466.83 177.98 400.64 146.01 401.99 143.21 466.24 174.23 517.65 124.79 519.81 127.04 466.83 177.98"/><path d="M381.43,211.01c2.97-2.21,21.83-14.25,28.03-16.6,3.02-1.14,8.07-2.02,12.38-1.83-1.58-.21,5.6.17,1.52.12,3.81.42,6.69,1.85,6.37,4.93-.69,6.8-14.62,13.16-20.85,22.6-6.23,9.44-13.66,27.13-34.06,40.84-5.64,3.79-17.43,7.77-30.06,13.62-7.69-2.76-13.14-7.19-15.43-13.23-5.86-15.49,49.13-48.23,52.1-50.45Z"/></svg>