<?xml version="1.0" encoding="utf-8"?>
<!-- Generator: Adobe Illustrator 27.5.0, SVG Export Plug-In . SVG Version: 6.00 Build 0)  -->
<svg version="1.1" id="Layer_1" xmlns="http://www.w3.org/2000/svg" xmlns:xlink="http://www.w3.org/1999/xlink" x="0px" y="0px"
     viewBox="0 0 750 750" style="enable-background:new 0 0 750 750;" xml:space="preserve">
<g id="Sync_Data">
    <g>
		<g>
			<g>
				<g>
					<g>
						<path style="fill:#FFFFFF;" d="M398.95,193.318c13.639,66.753-240.232,82.673-272.291,26.721
							c-18.195-35.286,10.615-76.797,46.328-67.175c-3.821-43.925,25.378-82.51,65.649-86.462
							c40.029-3.928,76.048,27.893,81.116,71.378c19.457-15.088,47.657-1.446,50.286,25.343c0.019,0.193,0.04,0.409,0.037,0.604
							C384.512,165.183,396.599,177.312,398.95,193.318z"/>
					</g>
                    <g>
						<path style="fill:#E1E5FF;" d="M126.653,220.036c29.732,51.873,250.1,41.975,271.201-12.94
							c-49.272,42.327-233.741,46.209-260.749-0.943c-7.354-14.281-7.197-30.963-0.658-44.374
							C120.713,175.777,116.44,200.204,126.653,220.036z"/>
					</g>
                    <g>
						<path style="fill:#112544;" d="M125.792,220.536c-18.208-35.298,9.77-77.399,46.089-68.98
							c-3.092-43.176,25.624-82.123,66.658-86.149c39.165-3.857,76.012,26.477,81.993,70.563
							c20.161-13.932,47.732,0.208,50.482,26.858c14.721,1.894,26.549,14.236,28.922,30.317
							C413.838,261.507,158.217,277.13,125.792,220.536z M127.548,219.581c31.661,55.25,283.721,39.031,270.423-26.063
							c-0.004-0.018-0.007-0.036-0.01-0.055c-2.274-15.489-13.783-27.309-27.986-28.742c-0.518-0.053-0.91-0.494-0.899-1.016
							c0.003-0.155-0.017-0.328-0.032-0.482c-2.542-25.931-29.777-39.313-48.677-24.653c-0.621,0.479-1.517,0.093-1.606-0.674
							c-4.979-42.715-40.879-74.331-80.025-70.5c-39.463,3.873-68.51,42.174-64.751,85.38c0.028,0.325-0.104,0.644-0.354,0.854
							c-0.251,0.209-0.588,0.281-0.902,0.199C138.297,144.555,109.55,184.677,127.548,219.581z"/>
					</g>
                    <g>
						<path style="fill:#112544;" d="M312.186,146.686c-0.191,0-0.385-0.055-0.555-0.169c-0.459-0.307-0.583-0.928-0.275-1.387
							c4.021-6.01,7.752-8.136,7.909-8.224c0.482-0.269,1.092-0.097,1.36,0.386c0.269,0.482,0.098,1.089-0.383,1.359l0,0
							c-0.035,0.02-3.497,2.02-7.225,7.59C312.826,146.531,312.509,146.686,312.186,146.686z"/>
					</g>
                    <g>
						<path style="fill:#112544;" d="M184.15,161.071c-0.263,0-0.525-0.104-0.722-0.308c-4.981-5.196-10.669-6.925-10.726-6.941
							c-0.529-0.157-0.831-0.714-0.675-1.243c0.157-0.528,0.714-0.833,1.243-0.675c0.253,0.075,6.256,1.9,11.601,7.475
							c0.383,0.399,0.369,1.032-0.029,1.414C184.648,160.978,184.399,161.071,184.15,161.071z"/>
					</g>
                    <g>
						<path style="fill:#112544;" d="M358.186,174.362c-0.508-0.217-0.743-0.805-0.525-1.313
							c3.827-8.943,11.922-10.261,12.265-10.313c0.546-0.078,1.056,0.294,1.139,0.84c0.082,0.546-0.293,1.055-0.838,1.138
							c-0.304,0.048-7.353,1.236-10.728,9.122C359.279,174.35,358.686,174.578,358.186,174.362z"/>
					</g>
				</g>
                <g>
					<g>
						<path style="fill:#CCD2FF;" d="M432.257,505.683c-42.033-33.645-81.434-47.096-117.108-39.964
							c-47.256,9.44-71.35,52.511-71.589,52.944c-0.265,0.484-0.873,0.663-1.357,0.397c-0.484-0.266-0.662-0.873-0.396-1.357
							c0.242-0.442,24.792-44.324,72.95-53.945c36.28-7.25,76.234,6.332,118.751,40.365c48.747,39.022,94.417,53.609,135.738,43.365
							c0.529-0.131,1.077,0.192,1.211,0.731c0.133,0.535-0.194,1.078-0.73,1.211C520.482,561.637,472.161,537.626,432.257,505.683z"
                        />
					</g>
                    <g>
						<g>
							<path style="fill:#FFFFFF;" d="M179.542,484.083c-5.656-5.53-14.887-5.547-21.263-10.229
								c-4.53-3.327-8.645-8.068-6.181-13.142c1.585-3.264,5.713-4.682,7.316-7.937c1.668-3.389,0.015-7.453-2.036-10.624
								c-4.163-6.434-9.947-11.666-14.371-17.924c-11.01-15.574-5.138-28.731,5.544-32.026c8.995-2.775,19.044,1.367,23.229,18.062
								c1.455,5.807-0.772,15.302,4.894,17.237c5.033,1.719,9.537-4.708,14.306-7.062c4.663-2.302,10.111-4.636,14.861-2.518
								c4.341,1.935,6.447,7.111,6.324,11.862c-0.247,9.501-7.566,18.077-5.801,27.632c1.524,8.248,9.384,13.519,14.363,20.269
								c3.654,4.954,5.834,11.572,3.628,17.319c-2.488,6.48-9.859,9.933-16.794,10.218c-10.182,0.419-21.63-4.32-25.807-13.614
								C180.95,489.816,180.943,485.453,179.542,484.083z"/>
						</g>
                        <g>
							<path style="fill:#E1E5FF;" d="M221.479,499.462c-9.99,10.458-33.464,6.07-39.728-7.862
								c-0.799-1.783-0.807-6.149-2.206-7.517c-5.657-5.526-14.887-5.549-21.267-10.23c-4.546-3.344-8.642-8.071-6.179-13.143
								c1.583-3.266,5.71-4.68,7.317-7.939c1.668-3.382,0.015-7.447-2.037-10.622c-4.166-6.433-9.945-11.667-14.372-17.923
								c-10.016-14.155-6.152-26.286,2.997-30.981c-7.577,7.746-4.973,18.94,1.283,27.792c6.832,9.671,20.355,20.525,16.409,28.545
								c-2.154,4.36-11.69,6.903-6.664,15.502c1.33,2.275,3.397,4.02,5.526,5.58c6.372,4.681,15.61,4.696,21.259,10.23
								c1.406,1.368,1.414,5.726,2.214,7.517C191.481,500.521,210.094,505.559,221.479,499.462z"/>
						</g>
                        <g>
							<path style="fill:#CCD2FF;" d="M214.243,546.872c-0.552-0.021-0.982-0.484-0.962-1.036
								c0.006-0.174,0.559-17.659-6.225-41.851c-6.254-22.308-20.207-55.049-51.16-84.346c-0.401-0.38-0.418-1.013-0.039-1.414
								c0.381-0.401,1.014-0.417,1.414-0.039c31.312,29.638,45.415,62.766,51.733,85.338c6.851,24.474,6.281,42.209,6.274,42.386
								C215.258,546.49,214.745,546.91,214.243,546.872z"/>
						</g>
                        <g>
							<path style="fill:#CCD2FF;" d="M180.841,492.013c-0.804-1.793-0.951-6.191-1.998-7.215l0,0
								c-5.441-5.32-14.614-5.335-21.155-10.139c-4.978-3.655-9.185-8.832-6.488-14.385c1.706-3.514,5.851-4.96,7.317-7.941
								c1.521-3.089-0.236-6.947-1.979-9.641c-4.079-6.305-9.916-11.62-14.347-17.89c-11.406-16.131-5.271-30.061,6.065-33.559
								c9.645-2.972,20.233,1.768,24.492,18.774c1.453,5.791-0.594,14.88,4.248,16.533c4.368,1.488,8.74-4.645,13.54-7.012
								c4.911-2.426,10.58-4.821,15.711-2.535c4.95,2.206,7.04,8.019,6.916,12.801c-0.251,9.584-7.494,18.345-5.817,27.424
								c1.46,7.903,9.155,13.04,14.184,19.856c4.436,6.014,5.84,12.844,3.757,18.272c-2.73,7.111-10.85,10.577-17.686,10.858
								C197.138,506.645,185.236,501.79,180.841,492.013z M180.241,483.369c1.73,1.691,1.66,6.125,2.424,7.824
								c4.26,9.476,15.864,13.396,24.854,13.025c6.182-0.254,13.496-3.314,15.9-9.577c1.838-4.787,0.529-10.906-3.499-16.367
								c-4.925-6.677-12.954-12.091-14.541-20.681c-1.824-9.874,5.544-18.58,5.784-27.84c0.107-4.117-1.622-9.091-5.73-10.922
								c-4.34-1.934-9.508,0.277-14.012,2.502c-4.701,2.32-9.38,9.052-15.071,7.111c-6.436-2.198-4.115-12.246-5.541-17.939
								c-4.018-16.032-13.519-19.956-21.963-17.35c-10.044,3.098-15.629,15.491-5.023,30.493
								c6.934,9.81,20.795,20.819,16.487,29.567c-1.722,3.496-5.863,4.948-7.313,7.932c-2.223,4.579,1.795,8.904,5.873,11.9
								C165.145,477.654,174.332,477.589,180.241,483.369L180.241,483.369z"/>
						</g>
                        <g>
							<path style="fill:#CCD2FF;" d="M190.067,462.964c-1.708-19.393,7.208-29.802,7.588-30.235
								c0.363-0.414,0.993-0.456,1.41-0.093c0.415,0.363,0.457,0.994,0.095,1.41c-0.088,0.101-8.729,10.25-7.101,28.742
								c0.049,0.551-0.358,1.035-0.908,1.084C190.613,463.925,190.116,463.522,190.067,462.964z"/>
						</g>
                        <g>
							<path style="fill:#CCD2FF;" d="M203.755,493.435c-0.063-0.142-6.407-14.223-20.059-14.482
								c-0.553-0.011-0.992-0.467-0.981-1.019c0.011-0.546,0.456-0.981,1-0.981c0.006,0,0.013,0,0.019,0
								c14.948,0.284,21.579,15.052,21.854,15.681c0.222,0.505-0.009,1.094-0.515,1.315
								C204.564,494.173,203.976,493.938,203.755,493.435z"/>
						</g>
                        <g>
							<line style="fill:#FFFFFF;" x1="206.816" y1="545.873" x2="221.923" y2="545.873"/>
                            <path style="fill:#CCD2FF;" d="M221.923,546.873h-15.107c-0.553,0-1-0.447-1-1c0-0.553,0.447-1,1-1h15.107
								c0.553,0,1,0.447,1,1C222.923,546.425,222.475,546.873,221.923,546.873z"/>
						</g>
					</g>
				</g>
                <g>
					<g>
						<path style="fill:#FCBBA4;" d="M383.13,522.953c-0.469,3.545,1.695-12.826-4.572,34.589l-37.587-0.625l3.268-21.452
							l2.584-17.013L383.13,522.953z"/>
					</g>
                    <g>
						<path style="fill:#E2805D;" d="M383.13,522.953l-2.545,19.278c-4.011-0.079-7.964-1.487-11.368-3.649
							c-2.375-1.501-4.584-3.391-7.286-4.176c-3.412-0.995-7.042-0.07-10.532,0.624c-2.337,0.468-4.842,0.817-7.158,0.435
							l2.584-17.013L383.13,522.953z"/>
					</g>
                    <g>
						<path style="fill:#FFFFFF;" d="M339.38,531.695c-3.447,2.302,2.916,8.467-10.033,13.199
							c-12.949,4.732-19.804,5.984-20.844,12.977c-2.508,16.859,24.267,17.713,65.233,18.837c3.804,0.104,7.199-2.45,8.087-6.15
							c2.198-9.161,4.253-29.924-5.201-27.411c-8.73,2.321-23.859,7.38-30.956-2.82C344.141,538.135,342.495,529.615,339.38,531.695
							z"/>
                        <path style="fill:#112544;" d="M373.708,577.708c-36.849-1.011-69.016-0.999-66.194-19.984
							c1.142-7.676,8.38-8.977,21.49-13.769c12.624-4.614,5.469-10.185,9.82-13.091l0,0c3.172-2.123,5.066,2.583,6.363,5.955
							c0.473,1.229,0.92,2.39,1.3,2.935c6.399,9.198,19.788,5.114,29.878,2.424c2.08-0.55,3.904-0.143,5.267,1.187
							c5.121,4.999,2.489,21.899,1.163,27.426C381.823,574.839,378.086,577.812,373.708,577.708z M339.935,532.527
							C339.935,532.528,339.935,532.528,339.935,532.527c-2.476,1.65,2.892,8.506-10.246,13.308c-1.914,0.699-3.695,1.323-5.345,1.9
							c-9.357,3.275-14.055,4.92-14.853,10.284c-2.411,16.21,26.065,16.641,64.271,17.689c3.269,0.098,6.304-2.118,7.087-5.384
							c1.955-8.146,3.111-21.891-0.615-25.527c-3.614-3.532-25.413,10.436-35.39-3.899c-0.518-0.744-0.983-1.956-1.523-3.359
							C342.702,535.93,341.199,531.689,339.935,532.527z M339.38,531.696h0.01H339.38z"/>
					</g>
                    <g>
						<path style="fill:#FFFFFF;" d="M308.368,560.787c21.476,7.261,46.138,9.333,74.282,5.737"/>
                        <path style="fill:#112544;" d="M356.697,569.235c-17.586,0-33.873-2.506-48.649-7.501c-0.523-0.177-0.804-0.744-0.627-1.268
							c0.177-0.524,0.746-0.804,1.268-0.627c21.548,7.284,46.39,9.201,73.835,5.692c0.55-0.058,1.05,0.317,1.119,0.865
							c0.069,0.548-0.317,1.049-0.865,1.119C373.804,568.663,365.102,569.235,356.697,569.235z"/>
					</g>
                    <g>
						<path style="fill:#FFFFFF;" d="M335.877,537.064c0,0,3.555,1.866,3.957,6.01"/>
                        <path style="fill:#112544;" d="M338.839,543.17c-0.347-3.564-3.396-5.205-3.427-5.221c-0.489-0.257-0.678-0.861-0.421-1.351
							c0.256-0.488,0.859-0.676,1.351-0.421c0.165,0.087,4.038,2.171,4.487,6.799c0.054,0.55-0.349,1.039-0.898,1.092
							C339.354,544.12,338.89,543.699,338.839,543.17z"/>
					</g>
                    <g>
						<path style="fill:#FFFFFF;" d="M332.158,539.566c0,0,3.284,1.724,3.656,5.553"/>
                        <path style="fill:#112544;" d="M334.819,545.215c-0.313-3.22-3.015-4.704-3.13-4.767c-0.485-0.26-0.671-0.864-0.412-1.351
							c0.258-0.487,0.858-0.671,1.346-0.418c0.153,0.081,3.768,2.025,4.187,6.342c0.054,0.55-0.349,1.038-0.898,1.092
							C335.335,546.165,334.87,545.744,334.819,545.215z"/>
					</g>
                    <g>
						<path style="fill:#FFFFFF;" d="M327.418,541.518c0,0,3.284,1.724,3.656,5.553"/>
                        <path style="fill:#112544;" d="M330.078,547.169c-0.313-3.221-3.014-4.705-3.129-4.768c-0.485-0.26-0.671-0.864-0.412-1.351
							c0.259-0.487,0.858-0.671,1.346-0.418c0.153,0.081,3.768,2.025,4.186,6.343c0.054,0.55-0.349,1.039-0.898,1.092
							C330.593,548.118,330.129,547.697,330.078,547.169z"/>
					</g>
				</g>
                <g>
					<path style="fill:#8D95FF;" d="M553.775,350.239c-28.95,32.42-90.97,37.68-124.88,70.01
						c-13.93,13.28-25.71,100.65-25.71,100.65c-6.11,11.65-46.69,12.83-64.88,5.15c-5.55-2.35-9.01-5.51-8.78-9.45
						c0,0,5.06-66.66,34.79-126.61c22.08-44.52,69.68-68.24,105.8-80.31c26.21-8.76,46.37-11.39,46.37-11.39L553.775,350.239z"/>
				</g>
                <g>
					<path style="fill:#757BFF;" d="M553.775,350.239c-28.95,32.42-90.97,37.68-124.88,70.01
						c-13.93,13.28-25.71,100.65-25.71,100.65c-6.11,11.65-46.69,12.83-64.88,5.15c0.29-1.45,0.74-2.88,1.35-4.26
						c5.45-12.21,20.58-15.95,31.67-23.42c14.46-9.76,22.33-26.47,29.52-42.37c16.85-37.22,33.69-74.44,50.54-111.66
						c5.43-11.98,10.95-24.13,18.73-34.66c26.21-8.76,46.37-11.39,46.37-11.39L553.775,350.239z"/>
				</g>
                <g>
					<g>
						<path style="fill:#FCBBA4;" d="M562.784,433.48c3.516-0.652-12.72,2.359,34.305-6.363l11.043,35.933l-21.409,3.534
							l-16.977,2.811L562.784,433.48z"/>
					</g>
                    <g>
						<path style="fill:#E2805D;" d="M562.784,433.48l19.118-3.549c1.167,3.838,1.052,8.033,0.051,11.939
							c-0.692,2.723-1.805,5.409-1.714,8.221c0.111,3.552,2.114,6.717,3.854,9.821c1.168,2.078,2.276,4.352,2.63,6.672
							l-16.977,2.811L562.784,433.48z"/>
					</g>
                    <g>
						<path style="fill:#FFFFFF;" d="M584.643,472.373c3.256,2.565,7.148-5.394,15.657,5.453
							c8.509,10.848,11.822,16.978,18.793,15.802c16.807-2.835,9.329-28.559-2.287-67.86c-1.078-3.649-4.559-6.087-8.352-5.785
							c-9.391,0.747-29.771,5.221-24.454,13.432c4.91,7.583,14.405,20.401,6.903,30.308
							C589.292,465.851,581.7,470.055,584.643,472.373z"/>
                        <path style="fill:#112544;" d="M602.96,482.918c-1.056-1.383-2.194-2.877-3.447-4.474c-5.206-6.636-8.233-5.762-10.903-4.988
							c-1.513,0.439-3.077,0.891-4.586-0.298c-0.862-0.679-1.048-1.465-1.052-2.004c-0.024-3.059,5.781-6.246,7.135-8.034
							c6.546-8.646-0.91-19.979-5.845-27.478c-0.385-0.585-0.754-1.147-1.102-1.683c-1.171-1.809-1.345-3.667-0.502-5.374
							c3.166-6.417,20.052-9.147,25.717-9.599c4.218-0.327,8.178,2.396,9.39,6.499c10.449,35.351,20.42,65.935,1.494,69.13
							C612.423,495.768,608.735,490.49,602.96,482.918z M601.087,477.21c8.338,10.636,11.507,16.504,17.84,15.433
							c17.041-2.873,6.495-34.195-3.08-66.591c-0.945-3.2-4.013-5.337-7.314-5.071c-8.35,0.664-21.778,3.821-24.082,8.489
							c-0.919,1.863,0.284,3.253,1.481,5.072c5.243,7.97,13.167,20.012,5.768,29.785c-1.271,1.68-6.741,5.177-6.728,6.812
							c0,0.066,0.002,0.222,0.29,0.449l0,0C587.575,473.412,592.461,466.215,601.087,477.21z"/>
					</g>
                    <g>
						<path style="fill:#FFFFFF;" d="M621.906,492.853c0.254-22.669-5.411-46.761-17.544-72.408"/>
                        <path style="fill:#112544;" d="M621.906,493.853c-0.004,0-0.008,0-0.012,0c-0.552-0.006-0.994-0.459-0.988-1.012
							c0.256-22.742-5.614-46.956-17.448-71.969c-0.235-0.499-0.022-1.096,0.477-1.332c0.503-0.237,1.096-0.021,1.332,0.477
							c11.964,25.289,17.898,49.798,17.64,72.848C622.9,493.413,622.453,493.853,621.906,493.853z"/>
					</g>
                    <g>
						<path style="fill:#FFFFFF;" d="M594.741,472.769c0,0,0.674-3.958,4.49-5.623"/>
                        <path style="fill:#112544;" d="M594.742,473.767c-0.622,0-1.09-0.557-0.986-1.166c0.03-0.184,0.813-4.512,5.075-6.372
							c0.512-0.225,1.097,0.01,1.316,0.516c0.222,0.507-0.01,1.096-0.516,1.316c-3.253,1.42-3.88,4.739-3.905,4.88
							C595.64,473.425,595.218,473.767,594.742,473.767z"/>
					</g>
                    <g>
						<path style="fill:#FFFFFF;" d="M598.271,475.53c0,0,0.623-3.657,4.148-5.196"/>
                        <path style="fill:#112544;" d="M598.272,476.53c-0.621,0-1.09-0.558-0.986-1.168c0.028-0.171,0.759-4.209,4.733-5.943
							c0.513-0.225,1.096,0.011,1.316,0.516c0.222,0.507-0.01,1.096-0.516,1.316c-2.996,1.309-3.558,4.416-3.563,4.447
							C599.174,476.185,598.751,476.53,598.272,476.53z"/>
					</g>
                    <g>
						<path style="fill:#FFFFFF;" d="M601.596,479.433c0,0,0.623-3.657,4.148-5.196"/>
                        <path style="fill:#112544;" d="M601.428,480.418c-0.544-0.093-0.91-0.608-0.817-1.153c0.028-0.171,0.759-4.21,4.733-5.944
							c0.512-0.225,1.096,0.011,1.316,0.516c0.222,0.507-0.01,1.096-0.516,1.316c-2.996,1.309-3.558,4.417-3.563,4.448
							C602.488,480.147,601.969,480.512,601.428,480.418z"/>
					</g>
                    <g>
						<path style="fill:#8D95FF;" d="M521.212,302.178c0,0-152.293,105.507-105.902,166.226
							c36.444,47.7,157.414,14.631,157.414,14.631c11.926-1.789,2.783-62.698-9.143-60.909l-68.584,2.759
							c0,0,88.826-49.68,92.757-89.874L521.212,302.178z"/>
					</g>
                    <g>
						<path style="fill:#112544;" d="M412.156,465.626c-27.705-43.825,37.678-107.609,79.117-141.729
							c0.428-0.351,1.057-0.29,1.408,0.137c0.351,0.427,0.289,1.057-0.137,1.408c-40.932,33.701-105.583,96.588-78.697,139.116
							c0.295,0.467,0.155,1.084-0.312,1.38C413.07,466.231,412.453,466.095,412.156,465.626z"/>
					</g>
				</g>
                <g>
					<path style="fill:#FCBBA4;" d="M381.897,220.659c0,0-8.383,1.724-7.643-7.66c0.588-7.459-1.122-11.627-4.694-11.315
						c-4.797,0.418-6.221,9.026-5.239,13.367c0,0-10.351-5.559-12.697-2.196c-1.054,1.51-0.211,3.419,2.234,4.805
						c-1.956-0.225-3.638-0.076-4.14,1.192c-0.885,2.234,1.951,5.933,5.829,6.56c-2.613-0.559-5.092-0.594-5.734,1.028
						c-0.885,2.234,1.868,5.878,5.745,6.505c-2.396-0.44-4.625-0.406-5.218,1.092c-0.885,2.234,1.259,4.379,5.743,6.528
						c5.06,2.424,15.534,5.903,22.442,0.029C383.043,236.585,382.956,228.533,381.897,220.659z"/>
				</g>
                <g>
					<path style="fill:#FC6054;" d="M530.533,180.844L517.62,229.07c-17.01,18.426-33.625,31.595-49.038,38.604
						c-6.35,2.897-12.485,4.753-18.362,5.502c-36.565,4.668-79.289-28.206-79.289-28.206c8.474-8.606,10.338-16.97,7.612-27.402
						c25.182-6.285,60.252,10.541,60.377,10.568C466.572,173.993,530.533,180.844,530.533,180.844z"/>
				</g>
                <g>
					<path style="fill:#E64B38;" d="M468.582,267.675c-6.35,2.897-12.485,4.753-18.362,5.502
						c-36.565,4.668-79.289-28.206-79.289-28.206c8.474-8.606,10.338-16.97,7.612-27.402c5.713-1.426,11.955-1.65,18.184-1.15
						c4.313,5.455,2.458,14.216-3.317,17.826c-2.26,1.425-4.919,2.072-7.311,3.267c-2.382,1.195-4.648,3.229-4.91,5.884
						c-0.357,3.626,3.028,6.426,6.138,8.33C410.915,266.164,441.629,273.863,468.582,267.675z"/>
				</g>
                <g>
					<path style="fill:#FC6054;" d="M596.739,262.788c-1.45,8.44-0.99,23.92-1.93,39.39c-0.74,11.91-2.3,23.81-6.19,32.5
						c-25.898,11.504-132.412-12.478-125.58-29.58c0.03-0.1,0.06-0.18,0.08-0.28c3.17-6.02,5.1-13.03,6.31-20.579
						c6-37.37-5.49-88.08,29.85-98.59c40.36-11.99,93.66-3.68,98.83,48.92C598.929,242.848,598.549,252.218,596.739,262.788z"/>
				</g>
                <g>
					<path style="fill:#E64B38;" d="M594.809,302.178c-0.74,11.91-2.3,23.81-6.19,32.5c-25.55,11.35-130.71-11.87-125.63-29.42
						c2.87,0.01,5.74,0.57,8.54,1.25c15.81,3.79,30.65,10.76,46.15,15.66c15.5,4.9,32.38,7.69,47.92,2.94
						c5.18-1.59,10.07-4.04,14.48-7.18C585.979,313.748,591.029,308.348,594.809,302.178z"/>
				</g>
                <g>
					<path style="fill:#112544;" d="M465.475,313.017c-3.117-2.818-4.258-5.588-3.391-8.229c0.246-1.271,4.048-6.322,6.353-20.707
						c1.617-10.077,1.961-21.308,2.293-32.169c0.623-20.357,1.211-39.585,9.362-52.87c0.289-0.47,0.903-0.616,1.376-0.329
						c0.471,0.289,0.618,0.905,0.329,1.376c-7.873,12.831-8.454,31.801-9.068,51.884c-0.334,10.925-0.68,22.222-2.317,32.425
						c-2.276,14.206-6.019,19.783-6.4,20.926c-0.626,1.911,0.326,3.971,2.804,6.211c17.284,15.628,98.597,31.774,121.038,22.385
						c3.081-7.431,7.596-34.768,5.706-53.105c-0.057-0.55,0.343-1.041,0.893-1.098c0.558-0.051,1.04,0.343,1.098,0.893
						c1.864,18.099-2.373,46.337-6.023,54.48c-0.101,0.225-0.281,0.404-0.506,0.505C565.681,345.956,482.71,328.6,465.475,313.017z
						 M588.615,334.679h0.01H588.615z"/>
				</g>
                <g>
					<g>
						<g>
							<g>
								<path style="fill:#FFFFFF;" d="M503.555,140.244c-0.987-0.055-5.037-0.283-4.777-0.269c-0.384-0.023-0.379-0.606,0.033-0.6
									l4.761,0.269c0.166,0.01,0.292,0.151,0.283,0.316C503.845,140.121,503.713,140.244,503.555,140.244z"/>
							</g>
                            <g>
								<path style="fill:#FCBBA4;" d="M552.31,184.447c0,8.263-33.797,8.263-33.797,0l-1.544-12.15
									c-12.598,0.298-17.163-9.699-16.96-20.482c0.173-7.331,1.519-9.639,1.964-19.967l1.111-9.536
									c8.277,12.042,33.079,7.653,33.079,7.653c-5.229,7.639,6.583,6.489,6.583,6.489l-1.463,10.607l2.113-1.07
									c0,0,0.677,1.652,2.032,3.251l1.531,9.211L552.31,184.447z"/>
							</g>
                            <g>
								<path style="fill:#112544;" d="M517.514,184.515l-0.486-3.824c-0.069-0.548,0.318-1.049,0.866-1.118
									c0.553-0.057,1.049,0.318,1.118,0.866l0.493,3.883c0.005,0.042,0.008,0.084,0.008,0.126c0,6.845,31.455,6.906,31.796,0.091
									l-0.408-1.981c-0.111-0.54,0.237-1.069,0.778-1.181c0.54-0.106,1.069,0.237,1.181,0.778l0.431,2.092
									c0.014,0.066,0.021,0.134,0.021,0.201C553.31,194.068,517.671,194.052,517.514,184.515z"/>
							</g>
                            <g>
								<path style="fill:#112544;" d="M556.334,150.041c-0.163,0.122-0.339,0.244-0.501,0.366
									c-8.25,5.744-12.435-4.416-12.435-4.416l-2.113,1.07l1.334-8.68c0,0-11.683-0.776-6.455-8.416
									c0,0-24.803,4.389-33.079-7.653l-1.111,9.536c0,0-2.953-2.357-3.617-5.066c-0.42-1.612,0-3.346,2.33-4.782
									c0.189-0.122,0.406-0.244,0.623-0.353c0,0-0.352-0.217-0.907-0.623c-1.571-1.138-4.836-3.807-6.543-7.369
									c-0.704-1.463-1.151-3.062-1.124-4.768c0.041-2.195,0.854-4.538,2.899-6.99c9.645-11.5,46.951-0.339,51.055,15.185
									c0,0,8.751-7.532,15.591-1.152C568.363,121.581,564.258,143.742,556.334,150.041z"/>
							</g>
                            <g>
								<path style="fill:#FFFFFF;" d="M531.752,143.549c-0.131,0-0.252-0.086-0.289-0.219c-0.045-0.159,0.048-0.325,0.208-0.37
									l20.822-5.863c0.371-0.116,0.553,0.469,0.162,0.578l-20.822,5.863C531.806,143.546,531.778,143.549,531.752,143.549z"/>
							</g>
                            <g>
								<path style="fill:#112544;" d="M526.453,145.133c0,1.243-1.002,2.245-2.245,2.245c-1.243,0-2.245-1.003-2.245-2.245
									s1.002-2.245,2.245-2.245C525.45,142.888,526.453,143.891,526.453,145.133z"/>
							</g>
                            <g>
								<path style="fill:#112544;" d="M510.138,141.92c0,1.243-1.002,2.245-2.245,2.245c-1.243,0-2.245-1.002-2.245-2.245
									s1.002-2.245,2.245-2.245C509.136,139.675,510.138,140.677,510.138,141.92z"/>
							</g>
                            <g>
								<path style="fill:#112544;" d="M531.344,137.975c-0.258,1.187-2.603,0.327-5.567-0.317
									c-2.977-0.647-5.455-0.834-5.197-2.021c0.261-1.202,2.875-1.642,5.852-0.995
									C529.396,135.285,531.605,136.772,531.344,137.975z"/>
							</g>
                            <g>
								<path style="fill:#112544;" d="M514.336,134.656c-0.258,1.188-2.603,0.327-5.567-0.317
									c-2.977-0.647-5.454-0.834-5.197-2.021c0.261-1.202,2.875-1.642,5.852-0.995
									C512.389,131.967,514.598,133.454,514.336,134.656z"/>
							</g>
                            <g>
								<g style="opacity:0.4;">
									<path style="fill:#FFFFFF;" d="M513.712,142.551c0,4.364-3.46,7.905-7.719,7.905c-4.271,0-7.731-3.54-7.731-7.905
										c0-4.364,3.46-7.894,7.731-7.894C510.253,134.657,513.712,138.187,513.712,142.551z"/>
								</g>
                                <g>
									<path style="fill:#FFFFFF;" d="M505.993,150.755c-4.428,0-8.03-3.681-8.03-8.205c0-4.517,3.603-8.193,8.03-8.193
										c4.422,0,8.019,3.676,8.019,8.193C514.013,147.075,510.415,150.755,505.993,150.755z M505.993,134.957
										c-4.098,0-7.431,3.406-7.431,7.594c0,4.193,3.333,7.606,7.431,7.606c4.091,0,7.42-3.412,7.42-7.606
										C513.413,138.363,510.084,134.957,505.993,134.957z"/>
								</g>
							</g>
                            <g>
								<path style="fill:#E2805D;" d="M516.966,172.301c3.878-0.499,12.218-3.496,17.716-6.987
									c0.566-0.359,1.226,0.261,0.904,0.849c-3.932,7.162-12.94,12.042-17.702,13.324L516.966,172.301z"/>
							</g>
                            <g>
								<g style="opacity:0.4;">
									<path style="fill:#FFFFFF;" d="M532.339,146.275c0,4.364-3.46,7.905-7.719,7.905c-4.271,0-7.731-3.54-7.731-7.905
										c0-4.364,3.46-7.894,7.731-7.894C528.879,138.381,532.339,141.912,532.339,146.275z"/>
								</g>
                                <g>
									<path style="fill:#FFFFFF;" d="M524.62,154.48c-4.429,0-8.031-3.681-8.031-8.205c0-4.518,3.602-8.193,8.031-8.193
										c4.422,0,8.019,3.676,8.019,8.193C532.639,150.799,529.042,154.48,524.62,154.48z M524.62,138.681
										c-4.098,0-7.432,3.406-7.432,7.594c0,4.193,3.334,7.605,7.432,7.605c4.091,0,7.419-3.412,7.419-7.605
										C532.039,142.087,528.711,138.681,524.62,138.681z"/>
								</g>
							</g>
                            <g>
								<path style="fill:#FFFFFF;" d="M513.829,141.896c-0.366,0.156-0.598-0.4-0.232-0.553c1.804-0.759,3.343-0.521,4.577,0.701
									c0.118,0.116,0.119,0.306,0.002,0.424C517.631,143.022,516.978,140.571,513.829,141.896z"/>
							</g>
                            <g>
								<path style="fill:#E2805D;" d="M510.818,153.009c-1.348-2.357,2.222-7.369,3.348-8.849c0.336-0.439,0.959-0.525,1.401-0.19
									c0.439,0.334,0.524,0.962,0.19,1.401c-2.092,2.752-3.618,5.919-3.203,6.646c0.05,0.089,0.37,0.193,1.04,0.112
									c0.547-0.069,1.046,0.326,1.111,0.875c0.065,0.549-0.326,1.046-0.875,1.111C512.632,154.26,511.416,154.053,510.818,153.009
									z"/>
							</g>
						</g>
					</g>
                    <g>
						<path style="fill:#FCBBA4;" d="M556.23,147.271c-1.028,5.829-5.503,9.899-10.002,9.105c-4.5-0.793-7.327-6.15-6.3-11.98
							c1.026-5.817,5.515-9.883,10.015-9.09C554.442,136.1,557.256,141.455,556.23,147.271z"/>
					</g>
                    <g>
						<path style="fill:#E2805D;" d="M547.363,147.485c-0.538-0.127-0.871-0.665-0.745-1.202l0.523-2.227
							c0.126-0.539,0.67-0.869,1.202-0.745c0.538,0.127,0.871,0.665,0.745,1.202l-0.523,2.227
							C548.44,147.272,547.909,147.611,547.363,147.485z"/>
					</g>
				</g>
                <g>
					<path style="fill:#112544;" d="M519.585,158.494c-0.775,3.587-2.785,6.376-6.42,6.99c-4.143,0.697-7.09-1.592-8.58-5.44
						c-0.29-0.74,0.36-1.51,1.14-1.32c2.26,0.54,6.66,0.96,12.52-1.35C518.985,157.085,519.745,157.715,519.585,158.494z"/>
				</g>
                <g>
					<path style="fill:#FC6054;" d="M515.098,163.327c-1.491,1.179-3.991,1.492-5.765,0.319c0.583-0.454,1.316-0.814,2.238-0.97
						C513.07,162.425,514.216,162.743,515.098,163.327z"/>
				</g>
                <g>
					<g>
						<g>
							<path style="fill:#FFFFFF;" d="M411.785,193.229c15.404,94.327,12.609,77.217,12.988,79.535c0.522,3.174,3.26,5.5,6.478,5.5
								h44.441c4.043,0,7.13-3.619,6.478-7.619c-14.666-89.797-12.816-78.474-12.988-79.524c-0.522-3.184-3.26-5.51-6.478-5.51
								h-44.441C414.219,185.61,411.133,189.24,411.785,193.229z"/>
						</g>
                        <g>
							<path style="fill:#E1E5FF;" d="M413.958,206.554l10.814,66.21c0.522,3.174,3.26,5.5,6.478,5.5h44.441
								c4.043,0,7.13-3.619,6.478-7.619l-1.38-8.445c-1.141-0.304-2.304-0.533-3.445-0.695c-7.51-1.033-15.216,0.032-22.65-1.424
								c-12.651-2.478-22.965-12.086-29.388-23.258c-3.141-5.477-5.499-11.357-7.423-17.357
								C416.752,215.922,415.849,210.814,413.958,206.554z"/>
						</g>
                        <g>
							<path style="fill:#112544;" d="M475.687,279.268h-44.434c-3.727,0-6.868-2.67-7.47-6.348l-12.989-79.527
								c-0.752-4.606,2.806-8.787,7.469-8.787h44.434c3.727,0,6.868,2.67,7.469,6.348l12.989,79.527
								c0.358,2.194-0.262,4.426-1.702,6.12C480.014,278.296,477.912,279.268,475.687,279.268z M418.264,186.606
								c-3.439,0-6.048,3.087-5.494,6.465l0,0l12.989,79.527c0.442,2.706,2.753,4.67,5.495,4.67h44.434
								c1.637,0,3.183-0.715,4.243-1.962c1.059-1.247,1.516-2.888,1.251-4.503l-12.989-79.527c-0.441-2.706-2.752-4.67-5.494-4.67
								H418.264z"/>
						</g>
                        <g>
							<path style="fill:#FFC25E;" d="M462.695,185.603c3.224,0,5.962,2.335,6.489,5.507l12.987,79.537
								c0.651,3.988-2.439,7.625-6.478,7.625h6.86c4.05,0,7.14-3.637,6.478-7.625l-12.987-79.537
								c-0.517-3.172-3.265-5.507-6.478-5.507H462.695z"/>
                            <path style="fill:#112544;" d="M482.553,279.272h-6.86c-0.553,0-1-0.447-1-1c0-0.553,0.447-1,1-1
								c1.631,0,3.175-0.716,4.235-1.964c1.062-1.249,1.52-2.89,1.256-4.501l-12.987-79.536c-0.449-2.703-2.763-4.668-5.501-4.668
								c-0.553,0-1-0.447-1-1c0-0.553,0.447-1,1-1h6.87c3.727,0,6.866,2.669,7.466,6.346l12.987,79.536
								C490.778,275.067,487.23,279.272,482.553,279.272z M480.81,277.272h1.743c3.43,0,6.052-3.082,5.492-6.463l-12.988-79.538
								c-0.44-2.705-2.75-4.668-5.491-4.668h-1.733c1.204,1.11,2.051,2.615,2.338,4.343l12.988,79.539
								c0.357,2.191-0.265,4.422-1.706,6.118C481.25,276.84,481.036,277.064,480.81,277.272z"/>
						</g>
					</g>
                    <g>
						<path style="fill:#8D95FF;" d="M434.603,214.169c0.758,4.564,5.072,8.263,9.636,8.263c4.564,0,7.649-3.699,6.891-8.263
							c-0.758-4.564-5.072-8.263-9.635-8.263C436.93,205.905,433.845,209.605,434.603,214.169z"/>
					</g>
                    <g>
						<path style="fill:#757BFF;" d="M434.597,214.172c0.761,4.565,5.076,8.26,9.64,8.26c3.119,0,5.554-1.728,6.532-4.282
							c-1.076,0.663-2.369,1.033-3.815,1.033c-6.39,0-11.367-6.907-9.26-12.249C435.369,208.325,434.086,211.042,434.597,214.172z"
                        />
					</g>
                    <g>
						<path style="fill:#112544;" d="M444.238,223.432c-8.104,0-13.898-9.913-8.915-15.793c4.944-5.836,15.454-1.689,16.793,6.365
							C452.982,219.222,449.382,223.432,444.238,223.432z M436.849,208.932c-3.783,4.464,0.792,12.5,7.39,12.5
							c3.948,0,6.563-3.144,5.905-7.1C449.05,207.755,440.588,204.521,436.849,208.932z"/>
					</g>
				</g>
                <g>
					<path style="fill:#FCBBA4;" d="M482.448,230.722c0,0-14.05-7.662-16.46-3.705c-0.934,1.534,0.623,3.722,2.97,5.138
						c-1.901-0.271-3.545-0.17-4.068,1.053c-0.921,2.154,1.746,5.836,5.51,6.55c-2.533-0.614-4.949-0.714-5.618,0.851
						c-0.921,2.155,4.421,6.467,8.185,7.181c-2.324-0.493-7.773-1.401-8.391,0.044c-0.921,2.154,2.183,5.998,5.947,6.712
						c0,0,17.745,6.852,24.635,1.307c4.511-3.788,4.639-11.641,3.814-19.346c0,0-7.498,0.508-7.617-4.163
						c-0.253-9.965-9.92-7.995-9.92-7.995L482.448,230.722z"/>
				</g>
                <g>
					<path style="fill:#FC6054;" d="M603.649,248.538c-6.04,26.96-12.21,46.86-25.87,55.09c-3.12,1.89-6.64,3.16-10.63,3.77
						c-44.09,6.691-82.75-49.74-82.75-49.74c7.41-2.11,16.28-11.13,15.06-21.84c17.62,0,50.38,28.329,50.48,28.39
						c2.06-30.31,13.7-60.15,25.63-55.67l-3.41-17.7C572.159,190.838,612.959,206.928,603.649,248.538z"/>
				</g>
                <g>
					<path style="fill:#E64B38;" d="M577.779,303.628c-3.12,1.89-6.64,3.16-10.63,3.77c-44.09,6.691-82.75-49.74-82.75-49.74
						c7.41-2.11,16.28-11.13,15.06-21.84c4.45,0,9.87,1.81,15.49,4.521c-0.91,2.27-2.16,4.35-3.46,5.939
						c-2.28,2.78-5.33,4.95-8.77,6.02c-1.88,0.59-3.86,0.88-5.62,1.76c-1.75,0.88-3.3,2.56-3.29,4.52c0.02,2.11,1.76,3.76,3.36,5.13
						c9.92,8.48,19.89,17.01,31.04,23.79c11.14,6.79,23.61,11.83,36.63,12.68C569.399,300.478,574.549,300.488,577.779,303.628z"/>
				</g>
                <g>
					<path style="fill:#112544;" d="M508.58,285.788c-15.098-13.203-24.912-27.428-25.01-27.569
						c-0.385-0.563-0.105-1.341,0.552-1.527c6.616-1.878,15.53-10.351,14.34-20.76c-0.069-0.59,0.394-1.113,0.993-1.113
						c15.856,0,42.906,21.736,49.633,27.353c2.028-24.902,10.16-47.702,19.208-53.523c2.545-1.638,5.113-1.989,7.628-1.045
						c0.518,0.194,0.778,0.771,0.585,1.288c-0.195,0.518-0.772,0.776-1.288,0.585c-11.208-4.227-22.368,26.673-24.284,54.795
						c-0.057,0.82-1.026,1.226-1.652,0.689c-0.318-0.276-31.408-26.99-48.739-28.105c0.564,10.428-7.571,18.662-14.549,21.318
						c5.665,7.767,41.406,54.243,81.002,48.233c12.332-1.874,20.719-10.362,27.191-27.523c0.195-0.518,0.771-0.779,1.288-0.583
						c0.518,0.194,0.778,0.771,0.583,1.288c-6.759,17.919-15.629,26.8-28.762,28.795C545.878,311.641,524.95,300.104,508.58,285.788
						z"/>
				</g>
                <g>
					<path style="fill:#E2805D;" d="M355.56,219.071c-0.243-0.131-0.335-0.434-0.204-0.677c0.13-0.243,0.434-0.333,0.677-0.204
						c8.228,4.416,10.932,1.475,7.643-2.97c-0.164-0.222-0.118-0.535,0.104-0.699c0.223-0.164,0.536-0.119,0.699,0.104
						c1.534,2.071,2.467,5.041,0.156,6.296C362.189,222.248,358.015,220.388,355.56,219.071z"/>
				</g>
                <g>
					<path style="fill:#E2805D;" d="M360.815,227.488c-1.865,0-4.01-0.729-5.735-1.488c-0.253-0.111-0.368-0.406-0.257-0.659
						c0.113-0.253,0.407-0.364,0.659-0.257c2.803,1.233,7.643,2.496,8.129-0.275c0.228-1.3-0.842-3.042-1.272-3.604
						c-0.168-0.22-0.127-0.533,0.092-0.701c0.217-0.167,0.532-0.128,0.701,0.092c0.074,0.097,1.813,2.391,1.465,4.386
						C364.294,226.709,362.619,227.488,360.815,227.488z"/>
				</g>
                <g>
					<path style="fill:#E2805D;" d="M355.432,233.25c-0.267-0.071-0.426-0.346-0.354-0.612c0.07-0.267,0.344-0.428,0.612-0.354
						c1.843,0.492,4.348,0.852,5.808-0.219c1.596-1.171,0.771-3.366-0.4-4.783c-0.42-0.509,0.348-1.149,0.771-0.637
						c1.596,1.924,2.337,4.671,0.221,6.227C360.307,234.179,357.569,233.819,355.432,233.25z"/>
				</g>
                <g>
					<path style="fill:#E2805D;" d="M352.917,238.66c-0.259-0.096-0.392-0.383-0.297-0.643c0.095-0.259,0.382-0.39,0.643-0.297
						c2.044,0.752,5.759,1.798,7.689,0.38c1.605-1.177,0.762-3.388-0.4-4.783c-0.42-0.511,0.352-1.149,0.771-0.637
						c1.6,1.928,2.333,4.674,0.221,6.227C359.309,240.546,355.521,239.616,352.917,238.66z"/>
				</g>
                <g>
					<g>

							<ellipse transform="matrix(0.3827 -0.9239 0.9239 0.3827 -0.9042 338.2539)" style="fill:#66D3D8;" cx="252.664" cy="169.804" rx="43.656" ry="43.656"/>
					</g>
                    <g>
						<path style="fill:#47B6C3;" d="M296.323,169.802c0,24.097-19.541,43.651-43.664,43.651c-14.787,0-27.856-7.368-35.747-18.62
							c7.779,7.157,18.148,11.526,29.536,11.526c24.11,0,43.651-19.554,43.651-43.663c0-9.31-2.925-17.948-7.891-25.031
							C290.884,145.643,296.323,157.082,296.323,169.802z"/>
					</g>
                    <g>
						<g>
							<path style="fill:#FFFFFF;" d="M252.664,191.322c-0.828,0-1.5-0.672-1.5-1.5c0-0.828,0.672-1.5,1.5-1.5
								c10.212,0,18.521-8.309,18.521-18.52c0-0.828,0.672-1.5,1.5-1.5s1.5,0.672,1.5,1.5
								C274.185,181.667,264.53,191.322,252.664,191.322z"/>
						</g>
                        <g>
							<g>
								<path style="fill:#FFFFFF;" d="M259.07,196.165c-0.779,0-0.431-0.077-9.808-4.307c-1.253-0.56-1.473-2.22-0.46-3.099
									l7.456-6.497c1.118-0.982,2.862-0.311,3.074,1.12l1.593,10.642C261.085,195.11,260.258,196.165,259.07,196.165z"/>
							</g>
						</g>
					</g>
                    <g>
						<g>
							<path style="fill:#FFFFFF;" d="M232.643,171.303c-0.828,0-1.5-0.672-1.5-1.5c0-11.866,9.654-21.52,21.521-21.52
								c0.828,0,1.5,0.672,1.5,1.5c0,0.828-0.672,1.5-1.5,1.5c-10.212,0-18.521,8.309-18.521,18.52
								C234.143,170.631,233.472,171.303,232.643,171.303z"/>
						</g>
                        <g>
							<g>
								<path style="fill:#FFFFFF;" d="M247.03,143.602l9.036,4.145c1.253,0.56,1.473,2.22,0.46,3.099l-7.456,6.497
									c-1.118,0.982-2.862,0.311-3.074-1.12l-1.593-10.642C244.187,144.113,245.694,143.001,247.03,143.602z"/>
							</g>
						</g>
					</g>
				</g>
                <g>
					<path style="fill:#112544;" d="M245.565,364.261c-9.516-7.394-16.445-19.493-19.513-34.069
						c-2.74-13.028-2.378-26.472-2.028-39.472c0.015-0.551,0.489-0.961,1.027-0.973c0.552,0.016,0.987,0.475,0.973,1.027
						c-0.348,12.884-0.706,26.207,1.985,39.005c2.97,14.114,9.641,25.799,18.782,32.901c12.509,9.72,31.252,12.005,48.92,5.971
						c11.506-3.931,22.572-10.944,34.286-21.803c-5.179-0.977-9.854-3.175-13.441-6.445c-7.2-6.565-9.272-17.676-4.719-25.293
						c6.127-10.248,24.87-14.776,33.146-8.934c5.993,4.23,6.816,12.465,5.045,18.325c-1.944,6.435-6.595,11.659-10.801,16.051
						c-1.607,1.678-3.199,3.285-4.779,4.824c11.24,0.613,21.729-4.667,30.99-11.045c15.824-10.9,29.207-25.49,38.703-42.191
						c0.271-0.48,0.881-0.65,1.363-0.375c0.48,0.272,0.648,0.883,0.375,1.363c-9.644,16.962-23.235,31.779-39.307,42.85
						c-10.225,7.042-21.704,12.587-34.049,11.245C297.775,380.062,264.223,378.758,245.565,364.261z M313.555,316.137
						c-4.084,6.83-2.174,16.841,4.35,22.788c3.646,3.325,8.526,5.451,13.925,6.2c1.963-1.876,3.946-3.86,5.954-5.955
						c4.045-4.225,8.514-9.235,10.331-15.246c1.62-5.361,0.669-12.617-4.284-16.113
						C336.066,302.329,318.736,307.469,313.555,316.137z"/>
				</g>
                <g>
					<path style="fill:#112544;" d="M233.513,300.656l-8.494-8.494l-8.486,8.494c-0.391,0.391-1.023,0.391-1.414,0
						c-0.391-0.39-0.391-1.023,0-1.414l9.193-9.201c0.375-0.374,1.039-0.376,1.414,0l9.201,9.201c0.391,0.391,0.391,1.023,0,1.414
						C234.536,301.046,233.903,301.046,233.513,300.656z"/>
				</g>
			</g>
            <g>
				<path style="fill:#112544;" d="M525.348,371.383c-0.131,0-0.263-0.025-0.39-0.079c-13.713-5.808-15.932-18.648-9.982-29.641
					c0.263-0.486,0.87-0.665,1.354-0.402c0.485,0.263,0.666,0.869,0.404,1.355c-5.636,10.332-3.228,21.666,9.003,26.847
					c0.509,0.216,0.746,0.803,0.531,1.311C526.107,371.155,525.736,371.383,525.348,371.383z"/>
			</g>
		</g>
        <g>
			<path style="fill:#CCD2FF;" d="M454.71,103.987h-11.348c-0.372,0-0.714-0.207-0.886-0.536
				c-0.092-0.176-9.282-17.583-17.145-19.12c-9.313-1.83-13.688,16.817-13.73,17.006c-0.099,0.432-0.47,0.747-0.912,0.774
				c-0.466,0.02-0.851-0.24-1.002-0.655c-0.1-0.273-10.225-27.424-25.658-25.532c-2.949,0.365-5.332,1.735-7.083,4.071
				c-5.655,7.55-3.269,22.68-3.243,22.831c0.047,0.29-0.035,0.585-0.226,0.809c-0.189,0.224-0.469,0.353-0.762,0.353h-8.388
				c-0.553,0-1-0.447-1-1c0-0.553,0.447-1,1-1h7.239c-0.473-3.848-1.485-16.166,3.778-23.191c2.089-2.788,4.928-4.422,8.438-4.856
				c14.037-1.731,23.537,16.86,26.667,24.078c1.766-5.631,6.556-17.35,15.266-15.649c8.054,1.575,16.559,16.519,18.245,19.619
				h10.749c0.553,0,1,0.447,1,1C455.71,103.54,455.263,103.987,454.71,103.987z"/>
		</g>
	</g>
</g>
</svg>
