<?xml version="1.0" encoding="utf-8"?>
<!-- Generator: Adobe Illustrator 27.5.0, SVG Export Plug-In . SVG Version: 6.00 Build 0)  -->
<svg version="1.1" id="Layer_1" xmlns="http://www.w3.org/2000/svg" xmlns:xlink="http://www.w3.org/1999/xlink" x="0px" y="0px"
	 viewBox="0 0 800 800" style="enable-background:new 0 0 800 800;" xml:space="preserve">
<g>
	<g>
		<rect style="fill:#FFFFFF;" width="800" height="800.001"/>
	</g>
	<g>
		
			<ellipse transform="matrix(0.7071 -0.7071 0.7071 0.7071 -166.4146 400.302)" style="fill:#16D2FF;" cx="400" cy="401.031" rx="224.259" ry="224.259"/>
		<path d="M400,626.368c-124.251,0-225.337-101.086-225.337-225.337S275.749,175.694,400,175.694
			c124.25,0,225.337,101.087,225.337,225.338S524.25,626.368,400,626.368z M400,177.85c-123.063,0-223.181,100.119-223.181,223.181
			S276.937,624.212,400,624.212c123.063,0,223.181-100.118,223.181-223.181S523.063,177.85,400,177.85z"/>
	</g>
	<g>
		<g>
			<rect x="288.42" y="232.893" style="fill:#16C2EB;" width="26.611" height="26.607"/>
		</g>
		<g>
			<rect x="337.559" y="232.893" style="fill:#16C2EB;" width="26.609" height="26.607"/>
		</g>
		<g>
			<rect x="386.695" y="232.893" style="fill:#16C2EB;" width="26.608" height="26.607"/>
		</g>
		<g>
			<rect x="435.832" y="232.893" style="fill:#16C2EB;" width="26.611" height="26.607"/>
		</g>
		<g>
			<rect x="484.971" y="232.893" style="fill:#16C2EB;" width="26.608" height="26.607"/>
		</g>
		<g>
			<rect x="288.42" y="279.724" style="fill:#16C2EB;" width="26.611" height="26.608"/>
		</g>
		<g>
			<rect x="337.559" y="279.724" style="fill:#16C2EB;" width="26.609" height="26.608"/>
		</g>
		<g>
			<rect x="386.695" y="279.724" style="fill:#16C2EB;" width="26.608" height="26.608"/>
		</g>
		<g>
			<rect x="435.832" y="279.724" style="fill:#16C2EB;" width="26.611" height="26.608"/>
		</g>
		<g>
			<rect x="484.971" y="279.724" style="fill:#16C2EB;" width="26.608" height="26.608"/>
		</g>
		<g>
			<rect x="288.42" y="326.556" style="fill:#16C2EB;" width="26.611" height="26.61"/>
		</g>
		<g>
			<rect x="337.559" y="326.556" style="fill:#16C2EB;" width="26.609" height="26.61"/>
		</g>
		<g>
			<rect x="386.695" y="326.556" style="fill:#16C2EB;" width="26.608" height="26.61"/>
		</g>
		<g>
			<rect x="435.832" y="326.556" style="fill:#16C2EB;" width="26.611" height="26.61"/>
		</g>
		<g>
			<rect x="484.971" y="326.556" style="fill:#16C2EB;" width="26.608" height="26.61"/>
		</g>
		<g>
			<rect x="288.42" y="373.389" style="fill:#16C2EB;" width="26.611" height="26.611"/>
		</g>
		<g>
			<rect x="337.559" y="373.389" style="fill:#16C2EB;" width="26.609" height="26.611"/>
		</g>
		<g>
			<rect x="386.695" y="373.389" style="fill:#16C2EB;" width="26.608" height="26.611"/>
		</g>
		<g>
			<rect x="435.832" y="373.389" style="fill:#16C2EB;" width="26.611" height="26.611"/>
		</g>
		<g>
			<rect x="484.971" y="373.389" style="fill:#16C2EB;" width="26.608" height="26.611"/>
		</g>
	</g>
	<g>
		<rect x="498.273" y="413.283" style="fill:#16C2EB;" width="26.612" height="26.608"/>
	</g>
	<g>
		<rect x="482.82" y="464.227" style="fill:#16C2EB;" width="26.611" height="26.608"/>
	</g>
	<g>
		<rect x="482.82" y="511.06" style="fill:#16C2EB;" width="26.611" height="26.61"/>
	</g>
	<g>
		<rect x="244.704" y="464.227" style="fill:#16C2EB;" width="26.611" height="26.608"/>
	</g>
	<g>
		<rect x="293.842" y="464.227" style="fill:#16C2EB;" width="26.609" height="26.608"/>
	</g>
	<g>
		<rect x="293.842" y="511.06" style="fill:#16C2EB;" width="26.609" height="26.61"/>
	</g>
	<g>
		<path style="fill:#FFFFFF;" d="M522.283,331.552h-4.052c-9.488-41.719-46.78-72.867-91.37-72.867
			c-29.66,0-56.083,13.789-73.256,35.291c-6.082-3.319-13.056-5.208-20.473-5.208c-23.627,0-42.781,19.153-42.781,42.783h-12.635
			c-32.631,0-59.08,26.449-59.08,59.077c0,32.634,26.449,59.084,59.08,59.084h244.567c32.632,0,59.084-26.45,59.084-59.084
			C581.367,358.001,554.915,331.552,522.283,331.552z"/>
		<path d="M522.283,450.791H277.716c-33.17,0-60.158-26.987-60.158-60.162c0-33.169,26.988-60.155,60.158-60.155h11.569
			c0.575-23.689,20.022-42.783,43.847-42.783c7.027,0,13.989,1.697,20.192,4.916c18.112-22.254,44.862-35,73.537-35
			c44.258,0,82.061,29.919,92.228,72.867h3.194c33.175,0,60.162,26.986,60.162,60.155
			C582.445,423.804,555.458,450.791,522.283,450.791z M277.716,332.63c-31.983,0-58.002,26.018-58.002,57.999
			c0,31.985,26.019,58.006,58.002,58.006h244.567c31.985,0,58.006-26.021,58.006-58.006c0-31.98-26.02-57.999-58.006-57.999h-4.052
			c-0.503,0-0.938-0.349-1.051-0.839c-9.646-42.409-46.786-72.028-90.319-72.028c-28.314,0-54.708,12.716-72.414,34.886
			c-0.327,0.412-0.905,0.52-1.358,0.274c-6.086-3.321-12.986-5.076-19.957-5.076c-22.995,0-41.703,18.709-41.703,41.705
			c0,0.596-0.482,1.079-1.078,1.079H277.716z"/>
	</g>
	<g>
		<path d="M492.663,314.382c-0.368,0-0.728-0.189-0.929-0.531c-13.595-23.067-37.848-36.837-64.873-36.837
			c-0.596,0-1.078-0.482-1.078-1.078c0-0.596,0.482-1.078,1.078-1.078c27.797,0,52.744,14.167,66.73,37.899
			c0.303,0.513,0.133,1.174-0.381,1.476C493.038,314.334,492.851,314.382,492.663,314.382z"/>
	</g>
	<g>
		<path d="M307.602,332.63c-0.596,0-1.078-0.483-1.078-1.079c0-14.673,11.936-26.611,26.609-26.611c0.596,0,1.078,0.482,1.078,1.078
			c0,0.596-0.482,1.079-1.078,1.079c-13.483,0-24.453,10.97-24.453,24.454C308.68,332.148,308.198,332.63,307.602,332.63z"/>
	</g>
	<g>
		<g>
			<path style="fill:#D1D3D4;" d="M400,386.439c-0.19,0-0.375-0.029-0.565-0.029c-26.761,0-48.53,21.766-48.53,48.521v29.296h17.663
				v-29.296c0-17.015,13.848-30.86,30.867-30.86c0.19,0,0.375,0.027,0.565,0.027V386.439z"/>
			<path d="M368.569,465.305h-17.663c-0.596,0-1.078-0.482-1.078-1.078v-29.296c0-27.35,22.254-49.6,49.608-49.6
				c0.122,0,0.244,0.008,0.366,0.019c0.596,0,1.276,0.493,1.276,1.089v17.659c0,0.596-0.482,1.078-1.078,1.078
				c-0.123,0-0.24-0.009-0.36-0.017c-0.006,0-0.015,0-0.021,0c-16.621,0-29.972,13.354-29.972,29.771v29.296
				C369.647,464.822,369.165,465.305,368.569,465.305z M351.983,463.148h15.507v-28.218c0-17.439,14.054-31.658,31.431-31.935
				v-15.492c-26.034,0.367-46.938,21.5-46.938,47.427V463.148z"/>
		</g>
	</g>
	<g>
		<path style="fill:#FFE5A7;" d="M342.604,464.227v54.456c0,29.262,23.715,52.982,52.981,52.982h8.827
			c29.267,0,52.984-23.72,52.984-52.982v-54.456H342.604z M407.563,520.188v26.786h-15.128v-26.786
			c-5.331-2.754-9.023-8.261-9.023-14.682c0-9.16,7.425-16.585,16.587-16.585c9.16,0,16.587,7.425,16.587,16.585
			C416.587,511.927,412.895,517.434,407.563,520.188z"/>
		<path d="M404.413,572.742h-8.827c-29.809,0-54.06-24.25-54.06-54.06v-54.456c0-0.596,0.482-1.078,1.079-1.078h114.793
			c0.596,0,1.078,0.482,1.078,1.078v54.456C458.476,548.492,434.223,572.742,404.413,572.742z M343.683,465.305v53.378
			c0,28.619,23.284,51.903,51.903,51.903h8.827c28.622,0,51.906-23.284,51.906-51.903v-53.378H343.683z M407.563,548.052h-15.128
			c-0.596,0-1.078-0.483-1.078-1.078V520.83c-5.582-3.144-9.023-8.958-9.023-15.324c0-9.739,7.924-17.663,17.665-17.663
			c9.741,0,17.665,7.924,17.665,17.663c0,6.366-3.44,12.181-9.023,15.324v26.143C408.642,547.569,408.16,548.052,407.563,548.052z
			 M393.514,545.896h12.972v-25.708c0-0.401,0.225-0.773,0.584-0.958c5.205-2.688,8.44-7.947,8.44-13.724
			c0-8.551-6.957-15.507-15.509-15.507c-8.552,0-15.509,6.956-15.509,15.507c0,5.776,3.234,11.035,8.44,13.724
			c0.358,0.185,0.583,0.557,0.583,0.958V545.896z"/>
	</g>
	<g>
		<path d="M400,421.104c-0.596,0-1.079-0.482-1.079-1.079v-50.311c0-0.596,0.482-1.078,1.079-1.078c0.596,0,1.078,0.482,1.078,1.078
			v50.311C401.078,420.622,400.596,421.104,400,421.104z"/>
	</g>
	<g>
		<rect x="430.959" y="449.713" style="fill:#BDBEBF;" width="17.664" height="14.514"/>
		<path d="M448.623,465.305h-17.664c-0.596,0-1.078-0.482-1.078-1.078v-14.514c0-0.596,0.482-1.078,1.078-1.078h17.664
			c0.596,0,1.078,0.482,1.078,1.078v14.514C449.701,464.822,449.219,465.305,448.623,465.305z M432.037,463.148h15.507v-12.357
			h-15.507V463.148z"/>
	</g>
	<g>
		<g>
			<path style="fill:#FFFFFF;" d="M708.583,180.489c0-0.186,0.027-0.362,0.027-0.545c0-30.013-24.333-54.342-54.34-54.342
				c-30.008,0-54.336,24.33-54.336,54.342h-19.702c-23.747,0-42.994,19.245-42.994,42.989v9.553
				c0,23.744,19.247,42.992,42.994,42.992h121.81c23.749,0,42.992-19.248,42.992-42.992v-9.553
				C745.034,201.417,729.22,183.645,708.583,180.489z"/>
			<path d="M702.042,276.555h-121.81c-24.301,0-44.072-19.771-44.072-44.07v-9.553c0-24.299,19.771-44.067,44.072-44.067h18.635
				c0.574-30.063,25.208-54.342,55.403-54.342c30.435,0,55.218,24.664,55.416,55.054c21.165,3.69,36.426,21.774,36.426,43.355v9.553
				C746.112,256.785,726.343,276.555,702.042,276.555z M580.232,181.021c-23.113,0-41.916,18.8-41.916,41.911v9.553
				c0,23.111,18.803,41.914,41.916,41.914h121.81c23.111,0,41.914-18.802,41.914-41.914v-9.553
				c0-20.827-14.945-38.227-35.535-41.378c-0.526-0.08-0.916-0.533-0.916-1.065c0-0.12,0.008-0.238,0.017-0.356
				c0.011-29.559-23.882-53.454-53.251-53.454c-29.368,0-53.258,23.895-53.258,53.264c0,0.596-0.482,1.078-1.078,1.078H580.232z"/>
		</g>
		<g>
			<rect x="580.824" y="130.375" style="fill:#85AE5C;" width="30.458" height="145.102"/>
			<path d="M611.282,276.555h-30.458c-0.596,0-1.078-0.482-1.078-1.079V130.375c0-0.596,0.482-1.078,1.078-1.078h30.458
				c0.597,0,1.078,0.482,1.078,1.078v145.102C612.36,276.073,611.879,276.555,611.282,276.555z M581.902,274.398h28.302V131.453
				h-28.302V274.398z"/>
		</g>
		<g>
			<rect x="625.911" y="170.983" style="fill:#FFE5A7;" width="30.452" height="104.494"/>
			<path d="M656.363,276.555h-30.452c-0.596,0-1.078-0.482-1.078-1.079V170.983c0-0.596,0.482-1.078,1.078-1.078h30.452
				c0.596,0,1.078,0.482,1.078,1.078v104.494C657.441,276.073,656.959,276.555,656.363,276.555z M626.989,274.398h28.296V172.061
				h-28.296V274.398z"/>
		</g>
		<g>
			<rect x="670.999" y="195.465" style="fill:#FF8C81;" width="30.445" height="80.012"/>
			<path d="M701.444,276.555h-30.445c-0.597,0-1.079-0.482-1.079-1.079v-80.012c0-0.596,0.482-1.078,1.079-1.078h30.445
				c0.596,0,1.078,0.482,1.078,1.078v80.012C702.522,276.073,702.04,276.555,701.444,276.555z M672.077,274.398h28.289v-77.855
				h-28.289V274.398z"/>
		</g>
		<g>
			<path d="M701.444,292.079h-120.62c-0.596,0-1.078-0.482-1.078-1.079c0-0.596,0.482-1.078,1.078-1.078h120.62
				c0.596,0,1.078,0.482,1.078,1.078C702.522,291.597,702.04,292.079,701.444,292.079z"/>
		</g>
	</g>
	<g>
		<g>
			<g>
				<g>
					<path style="fill:#687DAB;" d="M630.336,325.439l-26.803,25.838v54.362c0,0,7.686,64.055,66.762,68.896V325.439H630.336z"/>
					<path d="M670.295,475.612c-0.029,0-0.059-0.002-0.088-0.004c-59.267-4.856-67.666-69.192-67.743-69.841l-0.009-54.491
						c0-0.292,0.12-0.573,0.33-0.776l26.803-25.838c0.2-0.194,0.468-0.302,0.748-0.302h39.959c0.597,0,1.078,0.482,1.078,1.078
						v149.095c0,0.302-0.126,0.59-0.347,0.794C670.826,475.512,670.564,475.612,670.295,475.612z M604.611,351.735v53.904
						c0.067,0.499,8.16,62.263,64.606,67.717V326.517h-38.445L604.611,351.735z"/>
				</g>
				<g>
					<path style="fill:#687DAB;" d="M710.255,325.439h-39.96v149.095c59.076-4.841,66.761-68.896,66.761-68.896v-54.362
						L710.255,325.439z"/>
					<path d="M670.295,475.612c-0.269,0-0.53-0.101-0.73-0.284c-0.221-0.204-0.348-0.492-0.348-0.794V325.439
						c0-0.596,0.482-1.078,1.078-1.078h39.96c0.28,0,0.548,0.108,0.747,0.302l26.801,25.838c0.211,0.203,0.331,0.483,0.331,0.776
						v54.362c-0.087,0.777-8.482,65.113-67.75,69.97C670.354,475.61,670.325,475.612,670.295,475.612z M671.373,326.517v146.838
						c56.446-5.454,64.537-67.218,64.612-67.845l-0.009-53.776l-26.157-25.218H671.373z"/>
				</g>
			</g>
			<g>
				<path d="M644.508,450.137c-0.209,0-0.417-0.059-0.603-0.184c-21.469-14.438-27.003-41.145-27.055-41.412l-0.021-41.299
					c0-0.596,0.482-1.078,1.078-1.078s1.078,0.482,1.078,1.078v41.088c0.032,0.049,5.408,25.903,26.125,39.833
					c0.492,0.333,0.625,1.003,0.292,1.498C645.194,449.971,644.853,450.137,644.508,450.137z"/>
			</g>
			<g>
				<path d="M722.688,409.408c-0.596,0-1.078-0.482-1.078-1.078v-48.665l-14.66-14.484c-0.424-0.418-0.428-1.1-0.009-1.524
					c0.417-0.421,1.099-0.43,1.524-0.009l14.98,14.8c0.204,0.202,0.32,0.478,0.32,0.767v49.116
					C723.766,408.926,723.283,409.408,722.688,409.408z"/>
			</g>
		</g>
		<g>
			<rect x="633.728" y="365.561" style="fill:#FFE5A7;" width="36.566" height="15.912"/>
			<path d="M670.295,382.551h-36.566c-0.597,0-1.078-0.483-1.078-1.078v-15.912c0-0.596,0.481-1.078,1.078-1.078h36.566
				c0.597,0,1.078,0.482,1.078,1.078v15.912C671.373,382.069,670.892,382.551,670.295,382.551z M634.807,380.395h34.41V366.64
				h-34.41V380.395z"/>
		</g>
		<g>
			<rect x="670.295" y="381.473" style="fill:#FFE5A7;" width="36.567" height="15.911"/>
			<path d="M706.862,398.462h-36.567c-0.596,0-1.078-0.482-1.078-1.078v-15.911c0-0.596,0.482-1.078,1.078-1.078h36.567
				c0.596,0,1.078,0.482,1.078,1.078v15.911C707.94,397.98,707.458,398.462,706.862,398.462z M671.373,396.306h34.411v-13.755
				h-34.411V396.306z"/>
		</g>
		<g>
			<rect x="633.728" y="397.384" style="fill:#FFE5A7;" width="36.566" height="15.915"/>
			<path d="M670.295,414.378h-36.566c-0.597,0-1.078-0.482-1.078-1.078v-15.915c0-0.596,0.481-1.078,1.078-1.078h36.566
				c0.597,0,1.078,0.482,1.078,1.078V413.3C671.373,413.896,670.892,414.378,670.295,414.378z M634.807,412.222h34.41v-13.759
				h-34.41V412.222z"/>
		</g>
		<g>
			<rect x="670.295" y="413.3" style="fill:#FFE5A7;" width="36.567" height="15.914"/>
			<path d="M706.862,430.292h-36.567c-0.596,0-1.078-0.482-1.078-1.078V413.3c0-0.596,0.482-1.078,1.078-1.078h36.567
				c0.596,0,1.078,0.482,1.078,1.078v15.914C707.94,429.81,707.458,430.292,706.862,430.292z M671.373,428.136h34.411v-13.758
				h-34.411V428.136z"/>
		</g>
	</g>
	<g>
		<path style="fill:#FFFFFF;" d="M520.742,87.348H307.488c-10.125,0-18.329,8.207-18.329,18.327v61.093
			c0,10.121,8.204,18.328,18.329,18.328h26.372v29.527l53.993-29.527h132.889c10.122,0,18.326-8.207,18.326-18.328v-61.093
			C539.068,95.555,530.864,87.348,520.742,87.348z"/>
		<path d="M333.861,215.702c-0.189,0-0.381-0.05-0.549-0.15c-0.329-0.195-0.529-0.546-0.529-0.928v-28.449h-25.294
			c-10.702,0-19.407-8.706-19.407-19.406v-61.093c0-10.7,8.705-19.405,19.407-19.405h213.254c10.699,0,19.404,8.706,19.404,19.405
			v61.093c0,10.7-8.705,19.406-19.404,19.406H388.129l-53.75,29.395C334.217,215.658,334.038,215.702,333.861,215.702z
			 M307.488,88.426c-9.512,0-17.251,7.738-17.251,17.249v61.093c0,9.512,7.739,17.249,17.251,17.249h26.372
			c0.596,0,1.078,0.482,1.078,1.078v27.709l52.396-28.655c0.16-0.087,0.337-0.132,0.518-0.132h132.889
			c9.512,0,17.248-7.738,17.248-17.249v-61.093c0-9.511-7.736-17.249-17.248-17.249H307.488z"/>
	</g>
	<g>
		<rect x="311.021" y="106.439" style="fill:#E6E7E8;" width="206.183" height="11.71"/>
		<path d="M517.204,119.228H311.021c-0.596,0-1.078-0.482-1.078-1.078v-11.71c0-0.596,0.482-1.078,1.078-1.078h206.183
			c0.596,0,1.078,0.483,1.078,1.078v11.71C518.282,118.746,517.8,119.228,517.204,119.228z M312.1,117.072h204.026v-9.554H312.1
			V117.072z"/>
	</g>
	<g>
		<rect x="311.021" y="130.113" style="fill:#E6E7E8;" width="206.183" height="11.71"/>
		<path d="M517.204,142.901H311.021c-0.596,0-1.078-0.482-1.078-1.078v-11.71c0-0.596,0.482-1.078,1.078-1.078h206.183
			c0.596,0,1.078,0.482,1.078,1.078v11.71C518.282,142.419,517.8,142.901,517.204,142.901z M312.1,140.745h204.026v-9.554H312.1
			V140.745z"/>
	</g>
	<g>
		<rect x="311.021" y="153.786" style="fill:#E6E7E8;" width="206.183" height="11.71"/>
		<path d="M517.204,166.574H311.021c-0.596,0-1.078-0.482-1.078-1.078v-11.71c0-0.596,0.482-1.078,1.078-1.078h206.183
			c0.596,0,1.078,0.482,1.078,1.078v11.71C518.282,166.091,517.8,166.574,517.204,166.574z M312.1,164.417h204.026v-9.553H312.1
			V164.417z"/>
	</g>
	<g>
		<path style="fill:#85AE5C;" d="M135.601,230.866l-0.967,12.691c5.553,2.478,11.327,4.378,17.236,5.656l6.747-10.794l11.578,1.532
			l11.587-1.466l6.688,10.842c5.867-1.232,11.653-3.069,17.263-5.55l-0.889-12.712l10.264-5.565l8.518-7.997l11.786,4.842
			c4.119-4.548,7.682-9.462,10.697-14.643l-8.188-9.755l5.033-10.536l2.186-11.478l12.374-3.008
			c0.645-6.007,0.657-12.086,0.051-18.137l-12.351-3.078l-2.123-11.482l-4.976-10.571l8.25-9.717
			c-1.495-2.596-3.138-5.139-4.928-7.622c-1.794-2.48-3.693-4.839-5.688-7.074l-11.814,4.772l-8.467-8.044l-10.239-5.627
			l0.965-12.692c-5.555-2.478-11.33-4.379-17.234-5.657l-6.747,10.797l-11.578-1.53l-11.59,1.464l-6.684-10.843
			c-5.867,1.234-11.654,3.071-17.268,5.55l0.893,12.708l-10.268,5.571l-8.516,7.993l-11.784-4.84
			c-4.119,4.545-7.684,9.463-10.693,14.641l8.183,9.758l-5.031,10.538l-2.192,11.475l-12.368,3.005
			c-0.646,6.009-0.659,12.089-0.053,18.142l12.349,3.081l2.127,11.479l4.974,10.574l-8.251,9.709
			c1.497,2.596,3.138,5.142,4.932,7.625c1.79,2.48,3.692,4.84,5.686,7.077l11.811-4.774l8.468,8.041L135.601,230.866z
			 M132.699,190.844c-15.04-20.831-10.346-49.909,10.482-64.95c20.829-15.043,49.908-10.351,64.949,10.477
			c15.041,20.829,10.35,49.909-10.48,64.952C176.824,216.363,147.743,211.672,132.699,190.844z"/>
		<path d="M188.469,250.405c-0.369,0-0.718-0.189-0.919-0.512l-6.324-10.251l-10.897,1.378c-0.09,0.012-0.185,0.012-0.276-0.001
			l-10.889-1.44l-6.381,10.206c-0.242,0.384-0.701,0.574-1.141,0.482c-5.945-1.285-11.816-3.212-17.449-5.726
			c-0.415-0.185-0.669-0.613-0.636-1.066l0.914-11.999l-9.63-5.295c-0.08-0.044-0.156-0.099-0.223-0.162l-7.964-7.564l-11.167,4.514
			c-0.417,0.172-0.906,0.06-1.209-0.281c-2.041-2.288-3.976-4.698-5.755-7.164c-1.777-2.459-3.458-5.056-4.993-7.717
			c-0.227-0.395-0.181-0.89,0.114-1.237l7.8-9.18l-4.677-9.945c-0.04-0.084-0.067-0.172-0.085-0.262l-2-10.798l-11.676-2.912
			c-0.442-0.11-0.767-0.486-0.811-0.939c-0.617-6.139-0.598-12.317,0.053-18.365c0.048-0.452,0.375-0.825,0.817-0.932l11.694-2.84
			l2.062-10.794c0.017-0.09,0.046-0.179,0.086-0.262l4.731-9.912l-7.737-9.227c-0.292-0.348-0.334-0.842-0.107-1.235
			c3.094-5.32,6.737-10.308,10.828-14.823c0.306-0.336,0.789-0.444,1.209-0.272l11.142,4.576l8.01-7.519
			c0.067-0.064,0.141-0.117,0.223-0.161l9.657-5.24l-0.844-12.016c-0.032-0.454,0.225-0.878,0.64-1.063
			c5.574-2.46,11.456-4.351,17.482-5.618c0.444-0.092,0.899,0.102,1.139,0.489l6.319,10.252l10.902-1.378
			c0.09-0.012,0.185-0.012,0.276,0.001l10.889,1.44l6.38-10.21c0.24-0.385,0.697-0.575,1.142-0.482
			c5.938,1.286,11.807,3.212,17.446,5.727c0.415,0.185,0.669,0.611,0.636,1.066l-0.912,12l9.63,5.293
			c0.08,0.044,0.156,0.099,0.223,0.163l7.964,7.566l11.169-4.513c0.419-0.17,0.905-0.059,1.209,0.281
			c2.026,2.272,3.963,4.681,5.757,7.161c1.795,2.489,3.473,5.085,4.989,7.716c0.227,0.394,0.181,0.889-0.114,1.236l-7.8,9.188
			l4.679,9.944c0.04,0.083,0.067,0.171,0.084,0.263l1.999,10.799l11.677,2.909c0.442,0.111,0.766,0.487,0.81,0.939
			c0.615,6.134,0.598,12.312-0.051,18.359c-0.048,0.453-0.375,0.825-0.817,0.933l-11.7,2.844l-2.055,10.796
			c-0.017,0.09-0.046,0.179-0.086,0.262l-4.734,9.911l7.741,9.224c0.293,0.348,0.335,0.842,0.105,1.235
			c-3.098,5.325-6.743,10.312-10.83,14.824c-0.305,0.338-0.79,0.445-1.209,0.274l-11.144-4.578l-8.013,7.522
			c-0.067,0.063-0.141,0.117-0.223,0.161l-9.653,5.235l0.84,12.02c0.031,0.453-0.226,0.877-0.64,1.061
			c-5.57,2.462-11.449,4.353-17.479,5.618C188.616,250.398,188.542,250.405,188.469,250.405z M181.781,237.407
			c0.371,0,0.72,0.191,0.918,0.512l6.288,10.194c5.374-1.177,10.619-2.864,15.616-5.02l-0.836-11.954
			c-0.029-0.421,0.192-0.821,0.563-1.022l10.141-5.499l8.417-7.902c0.308-0.289,0.758-0.372,1.148-0.21l11.081,4.553
			c3.618-4.065,6.867-8.516,9.676-13.247l-7.696-9.172c-0.272-0.323-0.331-0.776-0.147-1.157l4.972-10.411l2.161-11.341
			c0.08-0.415,0.393-0.745,0.804-0.845l11.635-2.828c0.53-5.412,0.545-10.924,0.044-16.407l-11.611-2.894
			c-0.411-0.102-0.722-0.434-0.798-0.851l-2.098-11.345l-4.917-10.444c-0.181-0.382-0.12-0.835,0.154-1.157l7.756-9.136
			c-1.377-2.343-2.885-4.653-4.485-6.874c-1.603-2.214-3.321-4.371-5.117-6.42l-11.106,4.487c-0.39,0.162-0.84,0.075-1.148-0.218
			l-8.366-7.947l-10.116-5.56c-0.371-0.204-0.587-0.604-0.556-1.027l0.907-11.931c-5.054-2.203-10.291-3.922-15.589-5.119
			l-6.345,10.152c-0.221,0.359-0.634,0.554-1.055,0.497l-11.438-1.511l-11.454,1.447c-0.415,0.044-0.832-0.144-1.053-0.504
			L151.845,79.1c-5.372,1.179-10.62,2.865-15.621,5.02l0.84,11.948c0.03,0.422-0.189,0.822-0.562,1.023l-10.146,5.504l-8.415,7.899
			c-0.306,0.29-0.756,0.374-1.148,0.21l-11.079-4.55c-3.62,4.067-6.869,8.516-9.674,13.244l7.695,9.175
			c0.271,0.323,0.328,0.776,0.147,1.157l-4.969,10.412l-2.167,11.338c-0.08,0.415-0.394,0.745-0.805,0.845l-11.628,2.825
			c-0.533,5.412-0.547,10.925-0.046,16.413l11.609,2.896c0.411,0.103,0.722,0.434,0.798,0.85l2.102,11.343l4.915,10.448
			c0.181,0.382,0.12,0.835-0.154,1.157l-7.755,9.128c1.392,2.368,2.901,4.678,4.489,6.876c1.59,2.204,3.308,4.361,5.115,6.423
			l11.104-4.487c0.39-0.16,0.84-0.075,1.148,0.217l8.366,7.945l10.116,5.562c0.371,0.204,0.587,0.605,0.556,1.027l-0.91,11.93
			c5.05,2.202,10.289,3.921,15.592,5.118l6.345-10.149c0.223-0.358,0.644-0.546,1.055-0.497l11.439,1.513l11.449-1.448
			C181.69,237.41,181.736,237.407,181.781,237.407z M170.456,211.21c-15.265,0-29.707-7.378-38.631-19.734
			c-15.364-21.279-10.552-51.091,10.725-66.456c8.166-5.897,17.79-9.015,27.828-9.015c15.263,0,29.702,7.378,38.626,19.734
			c15.366,21.278,10.556,51.091-10.723,66.458C190.117,208.094,180.494,211.21,170.456,211.21z M170.378,118.161
			c-9.583,0-18.769,2.977-26.565,8.606c-20.315,14.669-24.907,43.13-10.24,63.446c8.52,11.796,22.309,18.84,36.883,18.84
			c9.583,0,18.769-2.976,26.563-8.604c20.314-14.671,24.907-43.134,10.238-63.446C198.736,125.205,184.95,118.161,170.378,118.161z"
			/>
	</g>
	<g>
		<g>
			<path style="fill:#FF8C81;" d="M147.574,290.606l12.951-7.778l-6.853-9.752l-2.253-11.705l-14.602,3.915
				c-3.277-3.954-7.078-7.255-11.229-9.878l1.997-14.97l-11.898-0.725l-10.554-5.54l-6.043,13.852
				c-4.961,0.092-9.933,0.956-14.73,2.621l-10.456-10.894l-7.987,8.848l-10.91,4.801l7.053,13.351
				c-3.098,4.042-5.49,8.507-7.137,13.203l-15.048,1.397l1.95,11.76l-3.037,11.524l14.84,2.797
				c1.186,4.767,3.129,9.414,5.856,13.764l-8.288,12.637l10.407,5.809l7.113,9.561l11.447-9.856
				c4.578,2.087,9.442,3.44,14.408,4.014l4.704,14.351l11.035-4.513l11.91,0.4l-0.568-15.086c2.194-1.113,4.33-2.408,6.385-3.892
				c2.072-1.497,3.984-3.135,5.74-4.877l14.151,5.272l3.353-11.442l7.741-9.059l-12.154-8.97
				C147.877,300.655,148.117,295.609,147.574,290.606z M116.646,318.842c-12.919,9.329-30.953,6.418-40.282-6.498
				c-9.329-12.918-6.418-30.952,6.498-40.28c12.921-9.328,30.956-6.419,40.284,6.497
				C132.476,291.478,129.565,309.513,116.646,318.842z"/>
			<path d="M99.275,358.79c-0.153,0-0.31-0.034-0.453-0.099c-0.271-0.126-0.478-0.359-0.573-0.643l-4.49-13.7
				c-4.624-0.6-9.129-1.855-13.412-3.737l-10.929,9.41c-0.225,0.196-0.52,0.29-0.821,0.254c-0.299-0.032-0.568-0.189-0.747-0.428
				l-6.974-9.376l-10.207-5.696c-0.261-0.146-0.448-0.394-0.52-0.685c-0.071-0.291-0.019-0.598,0.146-0.849l7.911-12.063
				c-2.43-4.001-4.262-8.305-5.452-12.813l-14.165-2.671c-0.295-0.055-0.552-0.23-0.712-0.483c-0.16-0.252-0.207-0.561-0.13-0.85
				l2.977-11.301l-1.912-11.531c-0.048-0.296,0.027-0.598,0.21-0.835c0.181-0.238,0.455-0.388,0.754-0.416l14.364-1.333
				c1.615-4.404,3.847-8.535,6.646-12.295l-6.732-12.746c-0.139-0.264-0.162-0.575-0.065-0.858c0.099-0.282,0.312-0.512,0.585-0.632
				l10.697-4.708l7.834-8.676c0.2-0.222,0.484-0.352,0.783-0.356c0.242-0.008,0.585,0.115,0.794,0.331l9.981,10.399
				c4.433-1.468,9.038-2.287,13.713-2.439l5.77-13.223c0.12-0.274,0.347-0.487,0.629-0.585c0.282-0.102,0.594-0.078,0.859,0.062
				l10.35,5.433l11.667,0.71c0.299,0.018,0.577,0.16,0.766,0.391c0.192,0.231,0.276,0.532,0.238,0.828l-1.906,14.291
				c3.904,2.546,7.415,5.635,10.451,9.196l13.938-3.736c0.291-0.079,0.596-0.032,0.853,0.127c0.252,0.159,0.429,0.416,0.486,0.71
				l2.209,11.479l6.72,9.563c0.172,0.245,0.233,0.551,0.172,0.843c-0.063,0.293-0.244,0.546-0.499,0.701l-12.365,7.425
				c0.442,4.662,0.221,9.334-0.657,13.907l11.603,8.563c0.24,0.178,0.398,0.447,0.432,0.746c0.034,0.297-0.057,0.595-0.252,0.822
				l-7.589,8.883l-3.289,11.221c-0.085,0.287-0.285,0.526-0.552,0.66c-0.268,0.136-0.577,0.154-0.859,0.047l-13.509-5.034
				c-1.697,1.636-3.502,3.149-5.374,4.502c-1.878,1.355-3.864,2.585-5.913,3.661l0.53,14.101c0.036,0.107,0.055,0.222,0.055,0.341
				c0,0.596-0.482,1.078-1.078,1.078c-0.008,0-0.025,0.001-0.042,0c-0.013,0-0.023,0-0.036-0.001l-11.681-0.392l-10.819,4.425
				C99.554,358.763,99.415,358.79,99.275,358.79z M80.164,338.269c0.151,0,0.303,0.031,0.446,0.097
				c4.479,2.042,9.217,3.361,14.085,3.924c0.417,0.048,0.769,0.334,0.901,0.735l4.342,13.25l9.962-4.075
				c0.141-0.058,0.284-0.098,0.444-0.079l10.754,0.361l-0.526-13.929c-0.015-0.421,0.215-0.812,0.589-1.002
				c2.169-1.099,4.269-2.379,6.242-3.804c1.965-1.42,3.854-3.025,5.612-4.769c0.299-0.296,0.746-0.389,1.137-0.245l13.064,4.868
				l3.028-10.33c0.042-0.146,0.116-0.281,0.215-0.397l6.989-8.179l-11.224-8.282c-0.339-0.249-0.501-0.674-0.415-1.085
				c0.99-4.794,1.224-9.708,0.691-14.605c-0.046-0.418,0.156-0.824,0.516-1.041l11.959-7.181l-6.187-8.804
				c-0.088-0.125-0.147-0.266-0.177-0.416l-2.034-10.568l-13.481,3.615c-0.409,0.115-0.84-0.028-1.11-0.354
				c-3.142-3.789-6.833-7.038-10.975-9.654c-0.356-0.225-0.548-0.637-0.493-1.054l1.844-13.823l-10.741-0.654
				c-0.152-0.009-0.301-0.05-0.436-0.121l-9.529-5.003l-5.581,12.79c-0.168,0.387-0.545,0.639-0.968,0.647
				c-4.915,0.091-9.761,0.952-14.396,2.561c-0.396,0.143-0.84,0.033-1.131-0.272l-9.655-10.058l-7.21,7.987
				c-0.101,0.113-0.228,0.203-0.366,0.264l-9.849,4.335l6.511,12.327c0.196,0.372,0.158,0.824-0.099,1.159
				c-2.997,3.911-5.343,8.251-6.975,12.904c-0.139,0.398-0.497,0.678-0.918,0.717l-13.894,1.29l1.76,10.616
				c0.025,0.151,0.019,0.305-0.021,0.452l-2.742,10.403l13.702,2.584c0.415,0.078,0.746,0.39,0.847,0.799
				c1.181,4.753,3.108,9.279,5.724,13.451c0.223,0.357,0.219,0.812-0.013,1.165l-7.652,11.668l9.396,5.245
				c0.133,0.074,0.249,0.176,0.339,0.298l6.423,8.633l10.569-9.102C79.66,338.358,79.911,338.269,80.164,338.269z M99.779,325.384
				c-9.598,0-18.676-4.639-24.288-12.409c-9.662-13.379-6.638-32.123,6.741-41.786c5.136-3.708,11.188-5.667,17.501-5.667
				c9.598,0,18.676,4.638,24.288,12.407c9.662,13.379,6.638,32.125-6.743,41.787C112.142,323.425,106.092,325.384,99.779,325.384z
				 M99.732,267.679c-5.858,0-11.472,1.818-16.238,5.258c-12.415,8.967-15.221,26.36-6.256,38.776
				c5.208,7.209,13.633,11.514,22.541,11.514c5.856,0,11.472-1.818,16.236-5.259c12.416-8.967,15.223-26.361,6.258-38.777
				C117.065,271.982,108.64,267.679,99.732,267.679z"/>
		</g>
	</g>
	<g>
		<path style="fill:#FFE5A7;" d="M192.2,163.605c0,12.032-9.754,21.787-21.787,21.787c-12.028,0-21.782-9.754-21.782-21.787
			c0-12.028,9.754-21.784,21.782-21.784C182.446,141.821,192.2,151.576,192.2,163.605z"/>
		<path d="M170.414,186.469c-12.605,0-22.861-10.257-22.861-22.865c0-12.607,10.255-22.862,22.861-22.862
			c12.607,0,22.865,10.255,22.865,22.862C193.278,176.212,183.021,186.469,170.414,186.469z M170.414,142.899
			c-11.416,0-20.704,9.289-20.704,20.705c0,11.418,9.288,20.708,20.704,20.708c11.418,0,20.709-9.29,20.709-20.708
			C191.122,152.188,181.831,142.899,170.414,142.899z"/>
	</g>
	<g>
		<path d="M113.852,297.02H85.461c-0.596,0-1.078-0.482-1.078-1.078c0-0.596,0.482-1.078,1.078-1.078h28.391
			c0.596,0,1.078,0.482,1.078,1.078C114.93,296.538,114.448,297.02,113.852,297.02z"/>
	</g>
	<g>
		<path d="M99.659,311.215c-0.596,0-1.078-0.482-1.078-1.078v-28.389c0-0.596,0.482-1.078,1.078-1.078
			c0.596,0,1.078,0.482,1.078,1.078v28.389C100.737,310.733,100.255,311.215,99.659,311.215z"/>
	</g>
	<g>
		<g>
			<path style="fill:#687DAB;" d="M207.244,486.202c-1.293-2.251-2.721-4.455-4.275-6.609c-1.554-2.154-3.201-4.199-4.928-6.137
				l-10.251,4.14l-7.343-6.976l-8.876-4.882l0.834-11.009c-4.818-2.148-9.826-3.797-14.947-4.902l-5.852,9.362l-10.042-1.327
				l-10.051,1.269l-5.797-9.402c-5.087,1.069-10.108,2.663-14.972,4.812l0.775,11.023l-8.907,4.833l-7.385,6.933l-10.224-4.199
				c-3.569,3.944-6.661,8.208-9.274,12.698l7.097,8.461l-3.353,7.033l22.018,16.92c1.508-10.415,7.05-20.227,16.263-26.878
				c18.065-13.046,43.285-8.978,56.328,9.086c3.936,5.448,6.305,11.548,7.211,17.765l21.959-16.872l-3.163-6.713L207.244,486.202z"
				/>
			<path d="M101.491,519.32c-0.233,0-0.465-0.076-0.657-0.223l-22.019-16.921c-0.404-0.31-0.535-0.858-0.315-1.318l3.053-6.407
				l-6.65-7.931c-0.293-0.348-0.335-0.843-0.105-1.236c2.689-4.62,5.854-8.953,9.404-12.879c0.306-0.337,0.786-0.44,1.211-0.273
				l9.581,3.936l6.879-6.456c0.067-0.063,0.141-0.118,0.223-0.162l8.297-4.503l-0.727-10.331c-0.031-0.452,0.226-0.878,0.64-1.061
				c4.841-2.138,9.95-3.78,15.187-4.882c0.444-0.086,0.899,0.103,1.139,0.489l5.433,8.813l9.362-1.182
				c0.091-0.013,0.186-0.011,0.276,0l9.354,1.236l5.486-8.772c0.24-0.388,0.697-0.582,1.141-0.482
				c5.155,1.111,10.255,2.783,15.158,4.97c0.417,0.185,0.671,0.612,0.638,1.067l-0.783,10.316l8.27,4.546
				c0.08,0.047,0.156,0.102,0.223,0.165l6.84,6.498l9.606-3.881c0.419-0.169,0.905-0.06,1.208,0.282
				c1.769,1.983,3.45,4.076,4.997,6.223c1.58,2.188,3.037,4.443,4.336,6.705c0.228,0.394,0.181,0.889-0.114,1.233l-6.704,7.899
				l2.866,6.085c0.217,0.459,0.084,1.005-0.318,1.314l-21.959,16.871c-0.303,0.234-0.704,0.293-1.063,0.144
				c-0.354-0.144-0.604-0.463-0.661-0.842c-0.904-6.208-3.33-12.186-7.017-17.289c-7.362-10.194-19.274-16.28-31.865-16.28
				c-8.282,0-16.221,2.571-22.957,7.436c-8.672,6.261-14.292,15.552-15.827,26.158c-0.055,0.38-0.308,0.702-0.661,0.845
				C101.767,519.295,101.628,519.32,101.491,519.32z M80.82,500.998l19.902,15.294c1.969-10.442,7.745-19.552,16.4-25.802
				c7.107-5.132,15.482-7.845,24.221-7.845c13.281,0,25.849,6.421,33.613,17.173c3.534,4.892,5.97,10.544,7.101,16.448l19.849-15.25
				l-2.792-5.928c-0.181-0.381-0.12-0.834,0.154-1.156l6.661-7.846c-1.163-1.978-2.451-3.946-3.832-5.862
				c-1.358-1.883-2.822-3.726-4.357-5.484l-9.544,3.857c-0.39,0.155-0.84,0.071-1.147-0.22l-7.242-6.879l-8.753-4.814
				c-0.371-0.204-0.588-0.607-0.556-1.027l0.777-10.247c-4.319-1.874-8.787-3.342-13.304-4.365l-5.448,8.716
				c-0.223,0.358-0.64,0.557-1.055,0.499l-9.905-1.31l-9.912,1.251c-0.419,0.057-0.832-0.146-1.053-0.503l-5.397-8.754
				c-4.582,1.011-9.057,2.449-13.325,4.281l0.722,10.264c0.029,0.421-0.189,0.821-0.563,1.023l-8.785,4.767l-7.284,6.836
				c-0.305,0.29-0.758,0.368-1.147,0.213l-9.518-3.911c-3.081,3.478-5.854,7.274-8.253,11.302l6.605,7.878
				c0.272,0.324,0.329,0.775,0.147,1.156L80.82,500.998z"/>
		</g>
		<g>
			<g>
				<polygon style="fill:#FFE5A7;" points="101.491,518.242 79.473,501.322 52.542,480.626 52.542,588.161 126.569,537.513 				"/>
				<path d="M52.542,589.239c-0.172,0-0.345-0.042-0.503-0.124c-0.354-0.188-0.575-0.555-0.575-0.954V480.626
					c0-0.41,0.234-0.785,0.602-0.966c0.366-0.186,0.806-0.137,1.133,0.111l74.027,56.886c0.274,0.211,0.43,0.539,0.421,0.885
					c-0.011,0.345-0.186,0.665-0.47,0.861L53.15,589.052C52.967,589.176,52.754,589.239,52.542,589.239z M53.62,482.815v103.302
					l71.113-48.654L53.62,482.815z"/>
			</g>
			<g>
				<path style="fill:#E6CC96;" d="M82.825,494.289l-7.097-8.461c2.613-4.49,5.705-8.754,9.274-12.698l10.224,4.199l7.385-6.933
					l8.907-4.833l-0.775-11.023c4.864-2.148,9.885-3.742,14.972-4.812l5.797,9.402l10.051-1.269l10.042,1.327l5.852-9.362
					c5.122,1.105,10.129,2.754,14.947,4.902l-0.834,11.009l8.876,4.882l7.343,6.976l10.251-4.14
					c1.727,1.938,3.374,3.982,4.928,6.137c1.554,2.154,2.982,4.358,4.275,6.609l-7.155,8.428l3.163,6.713l26.958-20.717
					l-74.031-56.881l-14.804-11.38l-14.806,11.38l-74.027,56.881l26.931,20.696L82.825,494.289z"/>
				<path d="M203.251,502.421c-0.084,0-0.171-0.01-0.255-0.029c-0.316-0.077-0.582-0.295-0.72-0.589l-3.163-6.714
					c-0.181-0.381-0.12-0.834,0.154-1.156l6.661-7.846c-1.163-1.978-2.451-3.946-3.832-5.862c-1.358-1.883-2.822-3.726-4.357-5.484
					l-9.544,3.857c-0.39,0.155-0.84,0.071-1.147-0.22l-7.242-6.879l-8.753-4.814c-0.371-0.204-0.588-0.607-0.556-1.027l0.777-10.247
					c-4.319-1.874-8.787-3.342-13.304-4.365l-5.448,8.716c-0.223,0.358-0.64,0.557-1.055,0.499l-9.905-1.31l-9.912,1.251
					c-0.419,0.057-0.832-0.146-1.053-0.503l-5.397-8.754c-4.582,1.011-9.057,2.449-13.325,4.281l0.722,10.264
					c0.029,0.421-0.189,0.821-0.563,1.023l-8.785,4.767l-7.284,6.836c-0.305,0.29-0.758,0.368-1.147,0.213l-9.518-3.911
					c-3.081,3.478-5.854,7.274-8.253,11.302l6.605,7.878c0.272,0.324,0.329,0.775,0.147,1.156l-3.353,7.033
					c-0.139,0.295-0.404,0.51-0.722,0.586c-0.312,0.069-0.65,0.004-0.908-0.194l-26.931-20.695
					c-0.266-0.204-0.421-0.521-0.421-0.855c0-0.334,0.156-0.65,0.421-0.854l88.833-68.262c0.387-0.299,0.926-0.299,1.314,0
					l88.835,68.262c0.265,0.204,0.421,0.52,0.421,0.854c0,0.335-0.156,0.651-0.421,0.855l-26.959,20.717
					C203.719,502.344,203.487,502.421,203.251,502.421z M201.36,494.799l2.295,4.874l24.785-19.047l-87.066-66.9l-87.064,66.9
					l24.762,19.028l2.48-5.203l-6.65-7.931c-0.293-0.348-0.335-0.843-0.107-1.236c2.691-4.62,5.856-8.953,9.406-12.879
					c0.306-0.337,0.786-0.44,1.211-0.273l9.581,3.936l6.879-6.456c0.067-0.063,0.141-0.118,0.223-0.162l8.297-4.503l-0.727-10.331
					c-0.031-0.452,0.226-0.878,0.64-1.061c4.841-2.138,9.95-3.78,15.187-4.882c0.444-0.086,0.899,0.103,1.139,0.489l5.433,8.813
					l9.362-1.182c0.091-0.013,0.186-0.011,0.276,0l9.354,1.236l5.486-8.772c0.24-0.388,0.697-0.582,1.141-0.482
					c5.155,1.111,10.255,2.783,15.158,4.97c0.417,0.185,0.671,0.612,0.638,1.067l-0.783,10.316l8.27,4.546
					c0.08,0.047,0.156,0.102,0.223,0.165l6.84,6.498l9.606-3.881c0.419-0.169,0.905-0.06,1.208,0.282
					c1.769,1.983,3.45,4.076,4.997,6.223c1.58,2.188,3.037,4.445,4.336,6.705c0.228,0.394,0.181,0.889-0.114,1.233L201.36,494.799z"
					/>
			</g>
			<g>
				<path style="fill:#E6CC96;" d="M117.754,491.364c-9.213,6.651-14.755,16.463-16.263,26.878l25.078,19.271l14.806,11.375
					l14.804-11.375l25.114-19.298c-0.905-6.217-3.274-12.316-7.211-17.765C161.039,482.387,135.819,478.318,117.754,491.364z"/>
				<path d="M141.374,549.966c-0.231,0-0.463-0.073-0.657-0.223l-39.884-30.646c-0.31-0.238-0.465-0.624-0.411-1.009
					c1.621-11.192,7.551-20.993,16.699-27.599c7.107-5.132,15.482-7.845,24.221-7.845c13.281,0,25.849,6.421,33.613,17.173
					c3.89,5.385,6.45,11.691,7.404,18.24c0.055,0.388-0.101,0.773-0.411,1.011l-39.917,30.674
					C141.838,549.893,141.606,549.966,141.374,549.966z M102.653,517.774l38.721,29.753l38.755-29.778
					c-0.973-5.984-3.358-11.735-6.921-16.667c-7.362-10.194-19.274-16.28-31.865-16.28c-8.282,0-16.221,2.571-22.957,7.436
					C109.885,498.376,104.315,507.427,102.653,517.774z"/>
			</g>
			<g>
				<polygon style="fill:#FFE5A7;" points="141.374,548.888 126.569,537.513 52.542,588.161 230.209,588.161 156.178,537.513 				
					"/>
				<path d="M230.252,589.239c-0.009,0-0.025,0-0.043,0H52.542c-0.472,0-0.891-0.308-1.03-0.761
					c-0.139-0.45,0.032-0.941,0.421-1.208l74.027-50.649c0.383-0.261,0.895-0.25,1.266,0.036l14.149,10.87l14.147-10.87
					c0.372-0.284,0.882-0.297,1.266-0.036l73.871,50.542c0.394,0.159,0.672,0.545,0.672,0.998
					C231.33,588.757,230.848,589.239,230.252,589.239z M56.027,587.083h170.698l-70.511-48.24l-14.182,10.9
					c-0.388,0.299-0.927,0.299-1.314,0l-14.185-10.9L56.027,587.083z"/>
			</g>
			<g>
				<polygon style="fill:#FFE5A7;" points="203.251,501.343 181.292,518.215 156.178,537.513 230.209,588.161 230.209,480.626 				
					"/>
				<path d="M230.209,589.239c-0.212,0-0.425-0.064-0.608-0.188l-74.031-50.648c-0.284-0.196-0.459-0.517-0.47-0.861
					c-0.008-0.346,0.147-0.674,0.421-0.885l74.031-56.886c0.326-0.248,0.769-0.297,1.133-0.111c0.369,0.181,0.602,0.556,0.602,0.966
					v107.535c0,0.399-0.221,0.767-0.575,0.954C230.555,589.197,230.382,589.239,230.209,589.239z M158.015,537.462l71.117,48.654
					V482.815L158.015,537.462z"/>
			</g>
		</g>
	</g>
	<g>
		<path d="M66.914,417.423c-8.52,0-15.45-6.93-15.45-15.448c0-8.52,6.93-15.45,15.45-15.45s15.453,6.93,15.453,15.45
			C82.366,410.493,75.434,417.423,66.914,417.423z M66.914,388.681c-7.33,0-13.294,5.963-13.294,13.293
			c0,7.328,5.964,13.292,13.294,13.292c7.333,0,13.296-5.964,13.296-13.292C80.21,394.645,74.246,388.681,66.914,388.681z"/>
	</g>
	<g>
		<g>
			<path style="fill:#FFFFFF;" d="M696.832,535.727H582.56l-42.849-44.892v44.892h-11.835c-11.592,0-20.988,9.4-20.988,20.99
				v149.251c0,11.59,9.396,20.986,20.988,20.986h168.956c11.591,0,20.986-9.396,20.986-20.986V556.717
				C717.818,545.127,708.423,535.727,696.832,535.727z"/>
			<path d="M696.832,728.032H527.876c-12.167,0-22.066-9.897-22.066-22.064V556.717c0-12.169,9.899-22.068,22.066-22.068h10.757
				v-43.813c0-0.439,0.268-0.836,0.678-1c0.404-0.166,0.876-0.063,1.18,0.255l42.53,44.559h113.811
				c12.168,0,22.065,9.9,22.065,22.068v149.251C718.896,718.135,709,728.032,696.832,728.032z M527.876,536.805
				c-10.979,0-19.91,8.933-19.91,19.912v149.251c0,10.978,8.931,19.908,19.91,19.908h168.956c10.978,0,19.908-8.931,19.908-19.908
				V556.717c0-10.979-8.931-19.912-19.908-19.912H582.56c-0.295,0-0.577-0.12-0.779-0.333l-40.991-42.945v42.2
				c0,0.596-0.482,1.078-1.078,1.078H527.876z"/>
		</g>
		<g>
			<polygon style="fill:#16D2FF;" points="588.032,662.565 631.405,607.368 695.08,688.409 695.08,558.465 529.624,558.465 
				529.624,692.659 570.653,640.445 			"/>
			<path d="M529.624,693.737c-0.118,0-0.235-0.02-0.352-0.06c-0.437-0.149-0.727-0.559-0.727-1.018V558.465
				c0-0.596,0.482-1.078,1.078-1.078H695.08c0.597,0,1.078,0.482,1.078,1.078v129.944c0,0.459-0.29,0.87-0.727,1.02
				c-0.435,0.149-0.916,0.008-1.2-0.354l-62.826-79.961l-42.524,54.117c-0.408,0.522-1.289,0.522-1.697,0l-16.53-21.039
				l-40.181,51.133C530.264,693.59,529.948,693.737,529.624,693.737z M530.702,559.543v129.999l39.103-49.762
				c0.408-0.522,1.289-0.522,1.697,0l16.53,21.039l42.524-54.117c0.408-0.522,1.289-0.522,1.697,0l61.748,78.591v-125.75H530.702z"
				/>
		</g>
		<g>
			<polygon style="fill:#D1D3D4;" points="631.405,607.368 588.032,662.565 570.653,640.445 529.624,692.659 529.624,704.216 
				555.307,704.216 620.763,704.216 695.08,704.216 695.08,688.409 			"/>
			<path d="M695.08,705.294H529.624c-0.596,0-1.078-0.482-1.078-1.078v-11.557c0-0.242,0.082-0.477,0.229-0.666l41.029-52.213
				c0.408-0.522,1.289-0.522,1.697,0l16.53,21.039l42.524-54.117c0.408-0.522,1.289-0.522,1.697,0l63.675,81.042
				c0.147,0.19,0.229,0.423,0.229,0.665v15.807C696.158,704.812,695.677,705.294,695.08,705.294z M530.702,703.137h163.3v-14.354
				l-62.597-79.669l-42.524,54.117c-0.408,0.522-1.289,0.522-1.697,0l-16.53-21.039l-39.951,50.84V703.137z"/>
		</g>
		<g>
			<path style="fill:#FFE5A7;" d="M604.089,603.799c0,9.659-7.829,17.486-17.49,17.486c-9.659,0-17.486-7.827-17.486-17.486
				c0-9.662,7.827-17.491,17.486-17.491C596.26,586.308,604.089,594.137,604.089,603.799z"/>
			<path d="M586.599,622.363c-10.236,0-18.565-8.328-18.565-18.564c0-10.238,8.329-18.569,18.565-18.569
				c10.238,0,18.568,8.331,18.568,18.569C605.167,614.035,596.837,622.363,586.599,622.363z M586.599,587.386
				c-9.049,0-16.408,7.362-16.408,16.413c0,9.048,7.359,16.408,16.408,16.408c9.051,0,16.412-7.36,16.412-16.408
				C603.011,594.748,595.649,587.386,586.599,587.386z"/>
		</g>
	</g>
	<g>
		<path style="fill:#D1D3D4;" d="M375.118,590.317c-31.755,0-58.722,20.431-68.518,48.858H150.472
			c-13.041,0-23.617,10.573-23.617,23.616c0,12.3,9.407,22.393,21.414,23.507v-14.353c0-5.054,4.1-9.154,9.16-9.154
			c5.05,0,9.152,4.101,9.152,9.154v14.463v6.465c0,5.054,4.098,9.153,9.154,9.153c5.056,0,9.154-4.1,9.154-9.153v-6.465v-3.345
			c0-5.054,4.098-9.153,9.156-9.153c5.054,0,9.151,4.1,9.151,9.153v3.345v13.477c0,5.05,4.098,9.152,9.156,9.152
			c5.054,0,9.154-4.103,9.154-9.152v-13.477v-8.575c0-5.054,4.096-9.156,9.154-9.156c5.054,0,9.154,4.103,9.154,9.156v8.575H306.6
			c9.796,28.428,36.763,48.86,68.518,48.86c40.029,0,72.477-32.45,72.477-72.477C447.595,622.766,415.146,590.317,375.118,590.317z
			 M375.118,700.065c-20.582,0-37.272-16.684-37.272-37.273c0-20.584,16.69-37.271,37.272-37.271
			c20.586,0,37.273,16.687,37.273,37.271C412.391,683.381,395.704,700.065,375.118,700.065z"/>
		<path d="M375.118,736.348c-31.115,0-58.859-19.603-69.283-48.86h-66.021c-0.596,0-1.078-0.482-1.078-1.078v-8.575
			c0-4.454-3.622-8.078-8.076-8.078c-4.454,0-8.076,3.624-8.076,8.078v22.052c0,5.642-4.59,10.231-10.232,10.231
			c-5.643,0-10.234-4.589-10.234-10.231v-16.821c0-4.453-3.622-8.075-8.073-8.075c-4.454,0-8.078,3.622-8.078,8.075v9.81
			c0,5.641-4.59,10.232-10.232,10.232s-10.232-4.591-10.232-10.232v-20.928c0-4.454-3.622-8.076-8.074-8.076
			c-4.456,0-8.082,3.622-8.082,8.076v14.353c0,0.304-0.128,0.592-0.352,0.797c-0.226,0.206-0.524,0.299-0.826,0.277
			c-12.768-1.185-22.393-11.752-22.393-24.581c0-13.616,11.079-24.694,24.695-24.694h155.363
			c10.424-29.258,38.167-48.858,69.283-48.858c40.558,0,73.555,32.995,73.555,73.553S415.676,736.348,375.118,736.348z
			 M240.892,685.331H306.6c0.459,0,0.87,0.292,1.019,0.725c9.92,28.791,37.047,48.135,67.499,48.135
			c39.37,0,71.399-32.029,71.399-71.399c0-39.367-32.029-71.396-71.399-71.396c-30.452,0-57.579,19.342-67.499,48.132
			c-0.15,0.434-0.56,0.727-1.019,0.727H150.472c-12.429,0-22.539,10.11-22.539,22.538c0,11.31,8.198,20.694,19.258,22.294v-13.14
			c0-5.642,4.593-10.232,10.238-10.232c5.642,0,10.23,4.591,10.23,10.232v20.928c0,4.453,3.622,8.075,8.076,8.075
			s8.076-3.622,8.076-8.075v-9.81c0-5.641,4.591-10.232,10.234-10.232c5.641,0,10.23,4.591,10.23,10.232v16.821
			c0,4.452,3.624,8.073,8.078,8.073c4.454,0,8.076-3.621,8.076-8.073v-22.052c0-5.644,4.591-10.234,10.232-10.234
			c5.642,0,10.232,4.591,10.232,10.234V685.331z M375.118,701.143c-21.146,0-38.351-17.204-38.351-38.351
			s17.204-38.349,38.351-38.349c21.147,0,38.351,17.202,38.351,38.349S396.264,701.143,375.118,701.143z M375.118,626.6
			c-19.957,0-36.194,16.236-36.194,36.192c0,19.957,16.238,36.194,36.194,36.194c19.957,0,36.195-16.237,36.195-36.194
			C411.313,642.836,395.074,626.6,375.118,626.6z"/>
	</g>
	<g>
		<rect x="248.928" y="674.212" style="fill:#B8B9BA;" width="55.342" height="6.111"/>
	</g>
	<g>
		<path d="M141.374,393.531h-22.368c-0.596,0-1.078-0.482-1.078-1.078c0-0.596,0.482-1.078,1.078-1.078h22.368
			c0.596,0,1.078,0.482,1.078,1.078C142.453,393.048,141.971,393.531,141.374,393.531z"/>
	</g>
	<g>
		<path d="M156.178,374.467h-18.303c-0.596,0-1.079-0.482-1.079-1.078c0-0.596,0.482-1.078,1.079-1.078h18.303
			c0.596,0,1.078,0.483,1.078,1.078C157.256,373.985,156.774,374.467,156.178,374.467z"/>
	</g>
	<g>
		<path d="M276.6,622.363h-57.964c-0.596,0-1.078-0.482-1.078-1.078s0.482-1.078,1.078-1.078H276.6c0.596,0,1.078,0.483,1.078,1.078
			S277.196,622.363,276.6,622.363z"/>
	</g>
	<g>
		<path d="M484.971,663.87h-37.376c-0.596,0-1.078-0.481-1.078-1.078c0-0.596,0.482-1.078,1.078-1.078h37.376
			c0.596,0,1.078,0.482,1.078,1.078C486.049,663.389,485.566,663.87,484.971,663.87z"/>
	</g>
	<g>
		<path d="M470.668,689.873H442.77c-0.596,0-1.078-0.482-1.078-1.078s0.482-1.078,1.078-1.078h27.898
			c0.596,0,1.078,0.482,1.078,1.078S471.264,689.873,470.668,689.873z"/>
	</g>
	<g>
		<path d="M652.013,511.038h-55.959c-0.597,0-1.078-0.482-1.078-1.078s0.481-1.078,1.078-1.078h55.959
			c0.596,0,1.078,0.482,1.078,1.078S652.608,511.038,652.013,511.038z"/>
	</g>
	<g>
		<path d="M688.578,511.038h-18.283c-0.596,0-1.078-0.482-1.078-1.078s0.482-1.078,1.078-1.078h18.283
			c0.596,0,1.078,0.482,1.078,1.078S689.174,511.038,688.578,511.038z"/>
	</g>
</g>
</svg>
