<?xml version="1.0" encoding="UTF-8"?><svg id="uuid-d88aa727-eaaf-4ec4-8143-8db5fbe5db53" xmlns="http://www.w3.org/2000/svg" viewBox="0 0 484.94 362.53"><defs><style>.uuid-8f2a623b-0423-485f-b65c-2ff9c014d937{fill:#0e74bb;}.uuid-e667f78a-f09e-4698-a977-1e2727c1ddde{fill:#fff;}.uuid-804cbbbc-62bf-4ae0-a15b-1a573944719f{fill:#080717;}.uuid-d6d159d0-7960-4125-be06-852baac6cb6b{fill:#1d1d1b;}</style></defs><polygon class="uuid-8f2a623b-0423-485f-b65c-2ff9c014d937" points="272.99 0 290.41 46.17 323.34 9.41 322.91 58.76 366.9 36.38 348.67 82.24 397.77 77.26 364.2 113.44 411.78 126.53 367.42 148.14 407.06 177.54 357.88 181.66 384.22 223.39 336.88 209.48 346.37 257.9 307.25 227.82 298.6 276.41 272.99 234.23 247.37 276.41 238.73 227.82 199.61 257.9 209.1 209.48 161.75 223.39 188.09 181.66 138.92 177.54 178.56 148.14 134.19 126.53 181.77 113.44 148.21 77.26 197.31 82.24 179.08 36.38 223.06 58.76 222.63 9.41 255.56 46.17 272.99 0"/><path class="uuid-804cbbbc-62bf-4ae0-a15b-1a573944719f" d="M140.18,301.21c-2.64,0-5.22-.76-7.48-2.25-3.08-2.02-5.18-5.12-5.92-8.73l-39.53-194c-.5-2.45-.15-4.93.99-6.99,1.18-2.14,3.07-3.57,5.31-4.03L434.98,14.56c2.24-.46,4.54.12,6.47,1.63,1.85,1.45,3.14,3.59,3.64,6.04l39.57,194.21c1.5,7.34-3.25,14.58-10.57,16.14,0,0,0,0,0,0l-331.02,68.33c-.96.2-1.92.3-2.87.3ZM436.47,17.61c-.28,0-.57.03-.84.09L94.19,88.37c-1.31.27-2.42,1.13-3.15,2.44-.77,1.39-1,3.09-.65,4.79l39.53,194c.56,2.77,2.17,5.14,4.53,6.69,2.36,1.55,5.18,2.08,7.94,1.49l331.03-68.33c5.61-1.2,9.24-6.74,8.1-12.36l-39.57-194.21c-.35-1.7-1.23-3.18-2.48-4.16-.92-.72-1.96-1.1-3-1.1ZM473.76,231.01h.02-.02Z"/><path d="M114.24,100.92c.48,2.34-1.03,4.63-3.38,5.1-2.34.48-4.63-1.03-5.1-3.38-.48-2.34,1.04-4.63,3.38-5.1,2.34-.48,4.63,1.04,5.11,3.38Z"/><path d="M126.7,98.38c.48,2.34-1.04,4.63-3.38,5.1-2.34.48-4.63-1.04-5.1-3.38-.48-2.34,1.03-4.63,3.38-5.1,2.34-.48,4.63,1.04,5.11,3.38Z"/><path d="M139.15,95.85c.48,2.34-1.03,4.63-3.38,5.1-2.34.48-4.63-1.03-5.11-3.38-.48-2.34,1.04-4.63,3.38-5.1,2.34-.48,4.63,1.04,5.1,3.38Z"/><polygon class="uuid-d6d159d0-7960-4125-be06-852baac6cb6b" points="430 221.18 416.6 212.32 425.46 198.91 428.14 200.68 421.04 211.41 431.77 218.51 430 221.18"/><polygon class="uuid-d6d159d0-7960-4125-be06-852baac6cb6b" points="451.83 216.74 449.15 214.97 456.24 204.24 445.52 197.14 447.29 194.47 460.69 203.33 451.83 216.74"/><rect class="uuid-d6d159d0-7960-4125-be06-852baac6cb6b" x="397.17" y="36.88" width="3.21" height="9.92" transform="translate(-.33 80.39) rotate(-11.51)"/><rect class="uuid-d6d159d0-7960-4125-be06-852baac6cb6b" x="393.81" y="40.23" width="9.92" height="3.21" transform="translate(-.34 80.29) rotate(-11.49)"/><polygon class="uuid-d6d159d0-7960-4125-be06-852baac6cb6b" points="415.59 33.03 411.64 33.83 412.44 37.78 416.39 36.98 415.59 33.03 415.59 33.03"/><polygon class="uuid-d6d159d0-7960-4125-be06-852baac6cb6b" points="416.89 39.42 412.94 40.23 413.75 44.18 417.7 43.37 416.89 39.42 416.89 39.42"/><polygon class="uuid-d6d159d0-7960-4125-be06-852baac6cb6b" points="422.04 31.71 418.09 32.52 418.9 36.47 422.85 35.66 422.04 31.71 422.04 31.71"/><polygon class="uuid-d6d159d0-7960-4125-be06-852baac6cb6b" points="423.35 38.11 419.4 38.91 420.2 42.86 424.15 42.06 423.35 38.11 423.35 38.11"/><polygon class="uuid-804cbbbc-62bf-4ae0-a15b-1a573944719f" points="298.04 56.69 306.32 5.5 319.81 3.32 298.04 56.69"/><polygon class="uuid-804cbbbc-62bf-4ae0-a15b-1a573944719f" points="316.23 56.5 329.87 19.97 340.31 24.66 316.23 56.5"/><polygon class="uuid-804cbbbc-62bf-4ae0-a15b-1a573944719f" points="288.65 52.7 280.6 29.6 289.43 29.89 288.65 52.7"/><path class="uuid-e667f78a-f09e-4698-a977-1e2727c1ddde" d="M224.35,257.33s2.97,13.89-20.16,11.85c-23.73-2.09-32.89-9.72-35.13-13.75l55.29,1.89Z"/><path class="uuid-e667f78a-f09e-4698-a977-1e2727c1ddde" d="M188.98,284.5s28.1,4.74,36.55-1.79c9.43-7.29,7.94-17.25.61-26.79l-37.15,28.58Z"/><path class="uuid-e667f78a-f09e-4698-a977-1e2727c1ddde" d="M177.77,302.82s16.76,2.64,26.38-.08c13.25-3.75,19.61-16.54,17.78-17.16l-44.16,17.24Z"/><path class="uuid-e667f78a-f09e-4698-a977-1e2727c1ddde" d="M171.03,316.2s8.9,1.27,18.29-.28c9.39-1.54,14.97-7.17,14.84-13.19l-33.13,13.47Z"/><path class="uuid-e667f78a-f09e-4698-a977-1e2727c1ddde" d="M202.05,240.92l-31.75-6.12c-14.98-2.89-30.49.14-43.29,8.43l-18.05,11.7-82.01,32.05c-8.33,3.25-15.05,9.64-18.72,17.79l-3.56,7.9c-6.93,15.37-1.62,33.5,12.51,42.7h0c10.51,6.85,23.93,7.39,34.96,1.41l74.33-40.3s24.01,11.57,45.73,9.51c13.46-1.27,17.12-10.07,17.12-10.07l12.73-75.01Z"/><path class="uuid-804cbbbc-62bf-4ae0-a15b-1a573944719f" d="M248.54,226.7c-10.31,0-19.79-2.83-27.77-8.43-13.74-9.64-21.26-26.23-21.16-46.72.09-19.94,7.43-41.31,20.66-60.17,13.23-18.86,30.83-33.03,49.55-39.9,19.24-7.06,37.39-5.64,51.13,4,13.74,9.64,21.26,26.23,21.16,46.72-.09,19.94-7.43,41.31-20.66,60.17-13.23,18.86-30.83,33.03-49.55,39.9-8.05,2.96-15.93,4.43-23.36,4.43ZM293.13,75.08c-6.49,0-13.42,1.3-20.56,3.92-17.2,6.32-33.45,19.45-45.74,36.98-12.3,17.53-19.12,37.28-19.2,55.6-.08,17.78,6.22,32.03,17.75,40.12,11.53,8.09,27.07,9.17,43.76,3.04,17.2-6.32,33.45-19.45,45.75-36.98,12.3-17.53,19.12-37.28,19.2-55.6.08-17.78-6.22-32.03-17.75-40.12-6.6-4.63-14.51-6.96-23.2-6.96Z"/><path class="uuid-804cbbbc-62bf-4ae0-a15b-1a573944719f" d="M242.21,221.02c-8.74,0-16.68-2.35-23.34-7.01-25.01-17.55-23.5-62.96,3.35-101.24,12.94-18.44,29.77-32.53,47.4-39.68,17.87-7.24,34.44-6.5,46.66,2.07,12.23,8.58,18.56,23.91,17.83,43.17-.72,19.01-8.24,39.63-21.18,58.07-12.94,18.44-29.77,32.53-47.4,39.68-8.14,3.3-16.01,4.94-23.32,4.94ZM292.94,71.36c-6.9,0-14.36,1.56-22.11,4.7-17.06,6.91-33.39,20.6-45.98,38.55-25.84,36.83-27.69,80.25-4.13,96.78,11.3,7.93,26.79,8.54,43.62,1.73,17.06-6.91,33.39-20.6,45.98-38.55,12.59-17.94,19.9-37.96,20.6-56.35.69-18.14-5.16-32.49-16.47-40.42-6.1-4.28-13.42-6.43-21.51-6.43Z"/><rect class="uuid-804cbbbc-62bf-4ae0-a15b-1a573944719f" x="124.85" y="267.72" width="116.43" height="29.11" transform="translate(-153.37 280.52) rotate(-56.74)"/><path class="uuid-804cbbbc-62bf-4ae0-a15b-1a573944719f" d="M163.76,341.15l-27.02-17.72,65.61-100.03,27.02,17.72-65.62,100.04ZM141.19,322.5l21.65,14.21,62.1-94.67-21.66-14.2-62.1,94.67Z"/><path class="uuid-804cbbbc-62bf-4ae0-a15b-1a573944719f" d="M212.35,235.89l14.11-21.51-14.11,21.51Z"/><rect class="uuid-804cbbbc-62bf-4ae0-a15b-1a573944719f" x="206.54" y="221.13" width="25.73" height="8.02" transform="translate(-89.18 285.15) rotate(-56.74)"/><path class="uuid-e667f78a-f09e-4698-a977-1e2727c1ddde" d="M227.44,257.48c.24-.7,7.25,9.1,6.09,15.15-2.28,11.98-10.29,11.26-10.29,11.26,0,0-2.12,15.45-18.8,18.92-1.48.31-.9,9.87-15.52,14.45-3.04.95-3.12,9.12-20.97,9.83-26.72,1.06-46.74-12.88-46.74-12.88l40.94-66.32s16.1,17.57,32.26,19.54c22.6,2.74,30.37-2.38,33.01-9.95Z"/><path class="uuid-804cbbbc-62bf-4ae0-a15b-1a573944719f" d="M205.09,269.47c-1.26,0-2.6-.06-4-.17-26.01-2.15-32.41-11.27-33.43-13.08-.44-.77-.16-1.75.61-2.18.77-.44,1.75-.16,2.18.61.54.96,5.98,9.39,30.9,11.45,7.46.62,12.72-.54,15.23-3.35,2.17-2.43,1.62-5.35,1.59-5.48-.17-.86.39-1.71,1.25-1.89.86-.17,1.71.37,1.89,1.23.04.18.93,4.56-2.29,8.22-2.71,3.08-7.39,4.64-13.94,4.64Z"/><path class="uuid-804cbbbc-62bf-4ae0-a15b-1a573944719f" d="M208.45,287.76c-9.6,0-19.05-1.56-19.73-1.68-.87-.15-1.46-.97-1.32-1.85.15-.87.97-1.46,1.85-1.32,7.63,1.28,28.83,3.52,35.3-1.48,3.61-2.79,5.66-6.41,5.93-10.46.37-5.5-2.51-11.65-8.1-17.31-.62-.63-.62-1.65.02-2.27.63-.62,1.65-.62,2.27.02,6.24,6.33,9.44,13.35,9.01,19.78-.34,5-2.81,9.42-7.17,12.79-3.78,2.92-10.96,3.78-18.06,3.78Z"/><path class="uuid-804cbbbc-62bf-4ae0-a15b-1a573944719f" d="M192.75,305.58c-7.64,0-14.78-1.1-15.23-1.17-.88-.14-1.47-.96-1.33-1.83.14-.87.96-1.47,1.83-1.33.17.03,16.53,2.56,25.7-.04,10.94-3.09,16.48-12.4,16.89-14.7-.28-.4-.37-.93-.2-1.43.28-.84,1.2-1.29,2.03-1,.34.12,1.44.62,1.4,2.25-.09,3.66-6.95,14.49-19.25,17.97-3.45.98-7.72,1.3-11.84,1.3Z"/><path class="uuid-804cbbbc-62bf-4ae0-a15b-1a573944719f" d="M179.29,318.3c-4.82,0-8.26-.48-8.49-.51-.88-.13-1.49-.94-1.36-1.81.13-.88.93-1.48,1.81-1.36.09.01,8.78,1.21,17.8-.27,8.07-1.33,13.61-6.08,13.49-11.57-.02-.89.68-1.62,1.57-1.64.89,0,1.62.68,1.64,1.57.15,7.13-6.5,13.21-16.18,14.8-3.68.6-7.26.79-10.29.79Z"/><path class="uuid-804cbbbc-62bf-4ae0-a15b-1a573944719f" d="M35.84,362.53c-6.82,0-13.61-1.95-19.54-5.81-14.89-9.7-20.4-28.5-13.09-44.7l3.56-7.9c3.87-8.58,10.83-15.2,19.6-18.63l81.85-31.99,18.83-12.21c12.62-8.18,27.71-11.12,42.48-8.28l32.81,6.33c.87.17,1.44,1.01,1.27,1.88-.17.87-.99,1.44-1.88,1.27l-32.81-6.33c-13.95-2.69-28.2.09-40.13,7.82l-18.97,12.3c-.09.06-.19.11-.29.15l-82.01,32.05c-7.99,3.12-14.32,9.14-17.85,16.96l-3.56,7.9c-6.65,14.75-1.64,31.86,11.92,40.7,10.03,6.53,22.8,7.05,33.32,1.34l74.33-40.3c.45-.25,1-.26,1.46-.04.24.11,23.87,11.35,44.88,9.36,12.35-1.17,15.76-9.01,15.79-9.09.34-.82,1.28-1.2,2.1-.86.82.34,1.2,1.28.86,2.1-.16.4-4.2,9.7-18.45,11.05-20.01,1.9-41.5-7.34-45.83-9.32l-73.62,39.92c-5.34,2.9-11.21,4.33-17.06,4.33Z"/></svg>