<?xml version="1.0" encoding="UTF-8"?><svg id="uuid-f28f2529-cff8-4c33-8d0d-42145e5dae8b" xmlns="http://www.w3.org/2000/svg" viewBox="0 0 587.36 627.35"><defs><style>.uuid-247a337f-3a75-490b-9a21-6c56570c5c7d{fill:#282d33;}.uuid-8fee19d7-6c29-4c80-8ab6-55affd73a73c{fill:#fff;}.uuid-e1620c27-d881-42c5-9a31-9a738b2c839c{fill:#080717;}</style></defs><path class="uuid-8fee19d7-6c29-4c80-8ab6-55affd73a73c" d="M244.29,614.08l12.39-354.1-19.06-115.76.55-123.24c.03-7.2-5.14-13.37-12.24-14.6-8.52-1.47-16.47,4.66-17.2,13.27l-9.34,108.92L149.49,15.65c-2.91-6.59-10.15-10.11-17.13-8.33-8.37,2.13-13.13,10.98-10.28,19.14l38.07,109.34-.73.09-8.18-14.78c-3-5.42-10.15-6.85-15.01-3l-3.37,2.67c-7.1,5.62-9.03,15.43-4.9,23.25l-7.67,6.08c-7.07,5.6-8.56,15.72-3.42,23.12l15.34,22.09,24.18,78.9-53.25,339.86h141.17Z"/><path class="uuid-e1620c27-d881-42c5-9a31-9a738b2c839c" d="M103.13,616.73c-.14,0-.27-.01-.41-.03-1.45-.23-2.44-1.59-2.21-3.03l53.15-339.26-23.88-77.92-15.1-21.75c-5.92-8.53-4.19-20.27,3.95-26.72l6.04-4.78c-3.46-8.64-.89-18.66,6.54-24.55l3.37-2.67c2.92-2.32,6.7-3.24,10.37-2.49,2.07.41,3.97,1.32,5.55,2.62l-30.93-88.82c-1.6-4.59-1.2-9.68,1.1-13.96,2.3-4.28,6.32-7.42,11.03-8.62,8.27-2.1,16.77,2.03,20.21,9.83l45.72,103.45,8.46-98.6c.41-4.84,2.86-9.32,6.71-12.29,3.85-2.97,8.8-4.19,13.59-3.37,8.4,1.45,14.47,8.69,14.44,17.22l-.55,123.02,19.02,115.54c.03.17.04.35.03.52l-12.39,354.1c-.05,1.46-1.2,2.68-2.74,2.56-1.46-.05-2.61-1.28-2.56-2.74l12.38-353.83-19.02-115.5c-.02-.15-.04-.29-.04-.44l.55-123.24c.03-5.93-4.19-10.96-10.03-11.97-3.38-.59-6.73.25-9.45,2.34-2.71,2.1-4.37,5.13-4.66,8.54l-9.34,108.92c-.1,1.21-1.01,2.19-2.21,2.39-1.19.19-2.37-.44-2.86-1.54l-49.9-112.92c-2.4-5.42-8.3-8.29-14.05-6.83-3.32.85-6.04,2.98-7.66,6-1.62,3.02-1.89,6.47-.77,9.7l38.07,109.34c.26.76.17,1.6-.26,2.28-.42.68-1.14,1.13-1.93,1.23l-.73.09c-1.08.13-2.11-.41-2.64-1.35l-8.18-14.78c-1.05-1.9-2.88-3.24-5.01-3.66-2.13-.42-4.33.1-6.03,1.45l-3.37,2.67c-6.01,4.76-7.78,13.15-4.21,19.94.59,1.13.3,2.52-.7,3.32l-7.67,6.08c-5.95,4.71-7.22,13.29-2.89,19.53l15.34,22.09c.16.23.28.47.36.74l24.18,78.9c.12.38.15.79.08,1.19l-53.25,339.86c-.2,1.31-1.33,2.24-2.62,2.24Z"/><path class="uuid-e1620c27-d881-42c5-9a31-9a738b2c839c" d="M155.14,222.04c-.43,0-.86-.02-1.28-.06-4.32-.38-8.21-2.64-10.68-6.2l-28.5-41.05c-.84-1.2-.54-2.86.67-3.69,1.2-.84,2.85-.54,3.69.67l28.5,41.05c1.57,2.26,4.04,3.7,6.79,3.94,2.75.23,5.43-.74,7.37-2.7,2.88-2.9,3.51-7.42,1.53-11-.71-1.28-.25-2.9,1.04-3.61,1.28-.71,2.9-.24,3.61,1.04,3.11,5.63,2.12,12.74-2.41,17.31-2.75,2.77-6.45,4.3-10.31,4.3Z"/><path class="uuid-e1620c27-d881-42c5-9a31-9a738b2c839c" d="M170.86,198.96c-.46,0-.92-.02-1.38-.06-4.64-.41-8.82-2.83-11.47-6.66l-31.07-44.75c-.84-1.2-.54-2.86.67-3.69,1.2-.84,2.85-.54,3.69.67l31.07,44.75c1.75,2.53,4.51,4.13,7.58,4.4,3.08.26,6.06-.83,8.23-3.01,3.21-3.24,3.92-8.28,1.71-12.27l-20.86-37.68c-.71-1.28-.24-2.9,1.04-3.61,1.28-.71,2.9-.25,3.61,1.04l20.86,37.68c3.34,6.04,2.28,13.68-2.59,18.58-2.95,2.97-6.93,4.62-11.07,4.62Z"/><path class="uuid-8fee19d7-6c29-4c80-8ab6-55affd73a73c" d="M230.44,191.13l-69.76-35.26c-7.29-3.69-16.19-.52-19.52,6.94h0c-2.59,5.81-1.03,12.64,3.83,16.75l43.29,36.61h0c-6.72,15.07-7.2,32.18-1.33,47.6l6.15,16.15,37.34-88.8Z"/><path class="uuid-e1620c27-d881-42c5-9a31-9a738b2c839c" d="M193.1,282.58c-1.07,0-2.08-.65-2.48-1.71l-6.15-16.15c-5.93-15.56-5.7-32.45.6-47.79l-41.79-35.34c-5.73-4.84-7.59-13.01-4.54-19.86,1.91-4.28,5.39-7.5,9.81-9.07,4.42-1.56,9.15-1.27,13.33.84l69.76,35.26c1.31.66,1.83,2.26,1.17,3.56-.66,1.31-2.25,1.83-3.56,1.17l-69.76-35.26c-2.87-1.45-6.13-1.66-9.16-.58-3.03,1.08-5.43,3.29-6.74,6.23-2.1,4.71-.82,10.32,3.12,13.65l43.29,36.61c.9.76,1.19,2.03.71,3.11-6.48,14.53-6.93,30.71-1.27,45.58l6.15,16.15c.52,1.37-.17,2.9-1.53,3.42-.31.12-.63.17-.94.17Z"/><path class="uuid-8fee19d7-6c29-4c80-8ab6-55affd73a73c" d="M302.14,614.08V243.57l43.7-108.87,26.18-120.43c1.53-7.04,7.92-11.94,15.11-11.6,8.63.41,15.06,8.12,13.92,16.69l-14.49,108.35,73.19-99.42c4.27-5.8,12.1-7.67,18.53-4.42,7.71,3.9,10.43,13.56,5.89,20.91l-60.86,98.49.7.24,11.19-12.65c4.1-4.64,11.39-4.49,15.3.32l2.71,3.34c5.71,7.03,5.47,17.02-.25,23.76l6.17,7.6c5.68,7,4.95,17.2-1.67,23.32l-19.76,18.24-40.71,71.78,49.76,334.86h-144.61Z"/><path class="uuid-e1620c27-d881-42c5-9a31-9a738b2c839c" d="M446.74,616.73c-1.29,0-2.42-.95-2.62-2.26l-49.77-334.86c-.09-.59.02-1.18.32-1.7l40.71-71.78c.13-.24.31-.46.51-.64l19.76-18.24c5.58-5.15,6.2-13.8,1.41-19.69l-6.17-7.6c-.8-.99-.79-2.42.04-3.39,4.96-5.85,5.06-14.42.22-20.37l-2.71-3.34c-1.37-1.69-3.4-2.68-5.57-2.73-2.17.04-4.24.86-5.68,2.49l-11.19,12.65c-.71.81-1.84,1.1-2.86.75l-.7-.24c-.76-.27-1.36-.86-1.62-1.62-.27-.76-.18-1.6.24-2.28l60.86-98.49c1.8-2.92,2.28-6.34,1.35-9.64-.93-3.3-3.13-5.97-6.19-7.51-5.29-2.68-11.68-1.15-15.2,3.62l-73.19,99.42c-.72.97-2,1.35-3.13.89-1.12-.45-1.8-1.61-1.64-2.81l14.49-108.35c.45-3.4-.5-6.72-2.7-9.35-2.2-2.63-5.29-4.17-8.72-4.34-5.94-.32-11.13,3.72-12.39,9.51l-26.18,120.43c-.03.14-.08.28-.13.42l-43.51,108.4v369.99c0,1.47-1.19,2.65-2.65,2.65s-2.65-1.19-2.65-2.65V243.57c0-.34.06-.67.19-.99l43.62-108.67,26.13-120.21c1.81-8.33,9.33-14.1,17.83-13.69,4.86.23,9.43,2.51,12.54,6.24,3.11,3.73,4.53,8.64,3.88,13.45l-13.12,98.09,67.06-91.08c5.06-6.87,14.25-9.06,21.86-5.21,4.34,2.19,7.58,6.13,8.9,10.81,1.32,4.68.61,9.73-1.95,13.86l-49.44,80.01c1.83-.92,3.85-1.42,5.99-1.36,3.73.08,7.23,1.78,9.58,4.68l2.71,3.34c5.98,7.35,6.31,17.69,1.06,25.38l4.86,5.98c6.55,8.06,5.7,19.89-1.93,26.94l-19.46,17.96-40.05,70.63,49.63,333.96c.22,1.45-.78,2.8-2.23,3.02-.13.02-.26.03-.39.03Z"/><path class="uuid-e1620c27-d881-42c5-9a31-9a738b2c839c" d="M412.67,228.9c-.64,0-1.27-.04-1.91-.12-4.3-.57-8.09-2.99-10.4-6.65-3.43-5.44-2.86-12.6,1.4-17.41.97-1.1,2.64-1.2,3.74-.23,1.1.97,1.2,2.65.23,3.74-2.71,3.06-3.07,7.61-.89,11.07,1.47,2.33,3.88,3.87,6.61,4.23,2.72.37,5.46-.5,7.48-2.37l36.72-33.89c1.08-.99,2.76-.92,3.75.15.99,1.08.93,2.76-.15,3.75l-36.72,33.9c-2.71,2.5-6.22,3.86-9.86,3.86Z"/><path class="uuid-e1620c27-d881-42c5-9a31-9a738b2c839c" d="M402.56,202.99c-.68,0-1.37-.04-2.05-.13-4.61-.61-8.69-3.21-11.17-7.15-3.69-5.84-3.07-13.52,1.5-18.7l28.53-32.26c.97-1.1,2.64-1.2,3.74-.23,1.1.97,1.2,2.65.23,3.74l-28.53,32.26c-3.02,3.42-3.43,8.5-.99,12.35,1.64,2.6,4.33,4.32,7.38,4.72,3.06.4,6.09-.56,8.35-2.65l40.03-36.95c1.08-.99,2.76-.92,3.75.15.99,1.08.93,2.76-.15,3.75l-40.03,36.95c-2.91,2.69-6.68,4.15-10.58,4.15Z"/><path class="uuid-8fee19d7-6c29-4c80-8ab6-55affd73a73c" d="M342.68,182.05l75.74-19.3c7.92-2.02,15.92,3,17.55,11h0c1.27,6.24-1.73,12.57-7.37,15.53l-50.19,26.36h0c3.3,16.17.05,32.98-9.02,46.76l-9.51,14.44-17.2-94.78Z"/><path class="uuid-e1620c27-d881-42c5-9a31-9a738b2c839c" d="M359.88,279.49c-.5,0-1.01-.14-1.46-.44-1.22-.81-1.56-2.45-.76-3.67l9.51-14.44c8.75-13.28,11.82-29.18,8.64-44.77-.24-1.16.32-2.33,1.37-2.88l50.19-26.36c4.56-2.4,7.03-7.6,6-12.65-.64-3.16-2.5-5.83-5.23-7.55-2.73-1.71-5.95-2.21-9.07-1.42l-75.74,19.3c-1.43.36-2.87-.5-3.23-1.91-.36-1.42.5-2.87,1.92-3.22l75.74-19.3c4.54-1.16,9.22-.42,13.2,2.06,3.97,2.49,6.67,6.39,7.61,10.98,1.5,7.35-2.09,14.92-8.73,18.41l-48.46,25.45c2.82,16.33-.62,32.87-9.78,46.78l-9.51,14.44c-.51.77-1.35,1.19-2.22,1.19Z"/><rect class="uuid-247a337f-3a75-490b-9a21-6c56570c5c7d" x="538.4" y="86.47" width="5.31" height="17.65" transform="translate(-6.4 49.28) rotate(-5.18)"/><rect class="uuid-247a337f-3a75-490b-9a21-6c56570c5c7d" x="515.14" y="98.68" width="5.31" height="17.65" transform="translate(103.75 436.49) rotate(-50.2)"/><rect class="uuid-247a337f-3a75-490b-9a21-6c56570c5c7d" x="501.15" y="129.92" width="17.65" height="5.31" transform="translate(-9.89 46.61) rotate(-5.18)"/><rect class="uuid-247a337f-3a75-490b-9a21-6c56570c5c7d" x="513.35" y="153.18" width="17.65" height="5.31" transform="translate(68.06 457.04) rotate(-50.17)"/><rect class="uuid-247a337f-3a75-490b-9a21-6c56570c5c7d" x="544.6" y="154.82" width="5.31" height="17.65" transform="translate(-12.55 50.11) rotate(-5.18)"/><rect class="uuid-247a337f-3a75-490b-9a21-6c56570c5c7d" x="567.86" y="142.62" width="5.31" height="17.65" transform="translate(88.86 492.67) rotate(-50.18)"/><rect class="uuid-247a337f-3a75-490b-9a21-6c56570c5c7d" x="569.51" y="123.72" width="17.65" height="5.31" transform="translate(-9.05 52.76) rotate(-5.18)"/><rect class="uuid-247a337f-3a75-490b-9a21-6c56570c5c7d" x="557.3" y="100.46" width="17.65" height="5.31" transform="translate(124.32 471.81) rotate(-50.17)"/><polygon class="uuid-e1620c27-d881-42c5-9a31-9a738b2c839c" points="45.83 170.65 40.53 170.58 40.74 134.7 17.1 161.69 13.08 158.22 36.31 130.88 .85 136.36 0 131.12 35.37 125.1 4.69 106.51 7.4 101.95 38.37 120.07 26.81 86.11 31.82 84.36 43.89 118.15 56.87 84.7 61.83 86.58 49.36 120.22 80.8 102.95 83.39 107.58 52.22 125.33 87.41 132.31 86.42 137.52 51.12 131.08 73.6 159.04 69.49 162.4 46.59 134.78 45.83 170.65"/><path class="uuid-e1620c27-d881-42c5-9a31-9a738b2c839c" d="M298.27,137.37c-.94,0-1.81-.5-2.29-1.31l-8.33-14.18-14.66-7.44c-.87-.44-1.42-1.31-1.45-2.28-.03-.97.47-1.88,1.31-2.37l14.18-8.33,7.44-14.66c.44-.87,1.31-1.42,2.28-1.45.98,0,1.88.47,2.37,1.31l8.33,14.18,14.66,7.44c.86.44,1.42,1.31,1.45,2.28.03.97-.47,1.88-1.31,2.37l-14.18,8.33-7.44,14.66c-.44.86-1.31,1.42-2.28,1.45h-.08ZM279.72,111.9l11.03,5.6c.45.23.83.58,1.09,1.02l6.27,10.66,5.6-11.03c.23-.45.58-.83,1.02-1.09l10.66-6.27-11.03-5.6c-.45-.23-.83-.58-1.09-1.02l-6.27-10.66-5.6,11.03c-.23.45-.58.83-1.02,1.09l-10.66,6.26ZM289.04,103.35h.03-.03Z"/><path class="uuid-e1620c27-d881-42c5-9a31-9a738b2c839c" d="M285.31,595.17l-39.43,9.55c-45.33,10.98-91.39-17.13-102.36-62.45l-3.78-15.62c-13.74-56.75,21.45-114.43,78.2-128.18l8.1,14.58c35.58-8.61,71.73,13.44,80.34,49.02l17.09,70.57c6.71,27.69-10.46,55.84-38.16,62.54Z"/><polygon class="uuid-8fee19d7-6c29-4c80-8ab6-55affd73a73c" points="214.06 624.69 228.83 506.98 332.66 529.31 328.73 624.69 214.06 624.69"/><path class="uuid-e1620c27-d881-42c5-9a31-9a738b2c839c" d="M214.06,627.34c-.11,0-.22,0-.33-.02-1.45-.18-2.48-1.51-2.3-2.96l14.78-117.71c.09-.74.49-1.4,1.1-1.83.61-.43,1.36-.58,2.09-.43l103.82,22.33c1.26.27,2.14,1.41,2.09,2.7l-3.92,95.38c-.06,1.46-1.24,2.68-2.76,2.54-1.46-.06-2.6-1.3-2.54-2.76l3.83-93.14-98.81-21.25-14.42,114.84c-.17,1.34-1.31,2.32-2.63,2.32Z"/><circle class="uuid-e1620c27-d881-42c5-9a31-9a738b2c839c" cx="206.88" cy="434.86" r="40.11" transform="translate(-239.77 614.86) rotate(-86.51)"/><path class="uuid-e1620c27-d881-42c5-9a31-9a738b2c839c" d="M209.32,413.34c-40.88,15.57-65.16,58.77-56.23,102.4,11.04,4.01,23.5,4.93,35.98,1.91,32.43-7.85,52.66-39.23,45.19-70.08-3.56-14.7-12.77-26.61-24.93-34.22Z"/><path class="uuid-e1620c27-d881-42c5-9a31-9a738b2c839c" d="M159.23,474.09c-13.5,41.6,4.93,87.61,44.51,108.01,10.05-6.09,18.57-15.22,24.04-26.83,14.21-30.18,2.46-65.62-26.26-79.14-13.68-6.44-28.74-6.74-42.29-2.04Z"/><circle class="uuid-e1620c27-d881-42c5-9a31-9a738b2c839c" cx="233.48" cy="435.99" r="40.11" transform="translate(-215.93 642.48) rotate(-86.51)"/><path class="uuid-e1620c27-d881-42c5-9a31-9a738b2c839c" d="M318.4,417.5c5.36,22.15-8.24,44.45-30.39,49.81-22.15,5.36-44.45-8.24-49.81-30.39-5.36-22.15,8.24-44.45,30.39-49.81,22.15-5.36,44.45,8.24,49.81,30.39Z"/><path class="uuid-e1620c27-d881-42c5-9a31-9a738b2c839c" d="M273.13,411.56c5.36,22.15-8.24,44.45-30.39,49.81-22.15,5.36-44.45-8.24-49.81-30.39-5.36-22.15,8.24-44.45,30.39-49.81,22.15-5.36,44.45,8.24,49.81,30.39Z"/><path class="uuid-e1620c27-d881-42c5-9a31-9a738b2c839c" d="M132.92,475.76c-.89,0-1.75-.44-2.26-1.25-.77-1.24-.39-2.87.85-3.65.58-.36,14.34-8.77,26.83-1.21,1.25.76,1.65,2.39.89,3.64-.76,1.25-2.39,1.65-3.64.9-9.66-5.85-21.17,1.11-21.28,1.18-.44.27-.92.4-1.39.4Z"/><path class="uuid-e1620c27-d881-42c5-9a31-9a738b2c839c" d="M153.99,473.07c-12.17,0-20.34-10.45-20.72-10.94-.89-1.16-.67-2.83.49-3.72,1.16-.89,2.82-.67,3.72.49.14.18,8.45,10.66,19.5,8.59,1.45-.24,2.83.68,3.1,2.12.27,1.44-.68,2.83-2.12,3.1-1.37.25-2.69.37-3.97.37Z"/><path class="uuid-8fee19d7-6c29-4c80-8ab6-55affd73a73c" d="M335.46,462.66c-31.37-49.8-90.89-68.7-132.94-42.21-35.55,22.39-47.23,70.05-31.05,114.34-.98.23-1.96.47-2.94.81-14.83,5.05-23.78,20.89-20.45,36.2,3.74,17.2,20.88,27.86,37.89,23.74,7.49-1.81,13.64-6.22,17.85-12,32.74,30.38,78.24,38.7,112.29,17.25,42.05-26.49,50.72-88.33,19.35-138.13Z"/><path class="uuid-e1620c27-d881-42c5-9a31-9a738b2c839c" d="M273.59,615.5c-23.82,0-48.62-9.62-69.46-28.1-4.6,5.31-10.73,9.07-17.53,10.72-8.94,2.17-18.17.67-25.97-4.22-7.8-4.88-13.17-12.53-15.13-21.53-3.6-16.56,6.14-33.81,22.19-39.28.11-.04.23-.08.34-.11-15.53-45.7-2.14-92.58,33.09-114.77,43.23-27.23,104.5-7.92,136.6,43.03h0c32.1,50.96,23.04,114.56-20.18,141.79-13.31,8.38-28.41,12.47-43.94,12.47ZM203.82,580.89c.67,0,1.31.25,1.8.71,32.88,30.53,76.72,37.33,109.08,16.95,40.75-25.67,49.06-85.99,18.52-134.47-30.54-48.48-88.54-67.04-129.28-41.38-33.79,21.29-46.12,67.01-29.97,111.19.26.71.2,1.5-.16,2.17-.36.67-.99,1.15-1.73,1.32-.9.21-1.8.43-2.69.74-13.54,4.61-21.76,19.16-18.72,33.13,1.65,7.6,6.19,14.05,12.76,18.17,6.58,4.12,14.36,5.39,21.91,3.56,6.52-1.58,12.32-5.48,16.32-10.99.45-.61,1.13-1.01,1.89-1.08.09,0,.17-.01.26-.01Z"/><path class="uuid-e1620c27-d881-42c5-9a31-9a738b2c839c" d="M178.34,493.14l32.81,52.41c1.03,1.65,1.22,3.69.51,5.5h0c-1.4,3.53-5.64,4.96-8.88,2.98l-31.51-19.22,7.08-41.67Z"/><path class="uuid-e1620c27-d881-42c5-9a31-9a738b2c839c" d="M190.25,564.15c-.98,0-1.93-.55-2.39-1.49h0c-.05-.1-4.98-9.99-14.41-11.06-1.46-.16-2.5-1.48-2.34-2.93.17-1.46,1.48-2.53,2.93-2.34,12.37,1.4,18.34,13.5,18.59,14.01.64,1.32.08,2.91-1.24,3.54-.37.18-.76.26-1.15.26Z"/><path class="uuid-e1620c27-d881-42c5-9a31-9a738b2c839c" d="M147.18,456.09c-10.16,21.27-13.39,45.99-7.44,70.55l2.84,11.74c4.34.37,8.8.1,13.26-.98,22.15-5.36,35.75-27.66,30.39-49.81-4.49-18.54-20.85-31.04-39.05-31.5Z"/><path class="uuid-e1620c27-d881-42c5-9a31-9a738b2c839c" d="M303.86,546.72c-10.97,0-25.36-17.59-28.39-21.44-.9-1.15-.7-2.82.45-3.72,1.15-.9,2.82-.7,3.72.45,7.29,9.29,20.05,21.38,25.56,19.17,1.75-.7,5.6-4.45,3.72-24.23-.14-1.46.93-2.75,2.39-2.89,1.48-.19,2.75.93,2.89,2.39,1.68,17.65-.56,27.07-7.04,29.66-1.06.42-2.17.62-3.32.62Z"/><path class="uuid-e1620c27-d881-42c5-9a31-9a738b2c839c" d="M234.64,512.87c-.56,0-1.12-.18-1.6-.54-9.62-7.31-14.87-31.84-11.78-44.82,1.79-7.53,5.75-9.77,8.76-10.32,9.12-1.64,21.8,9.64,38.79,34.59.82,1.21.51,2.86-.7,3.68-1.21.83-2.86.51-3.69-.7-21.03-30.89-30.39-32.91-33.44-32.35-2.64.48-3.93,3.71-4.56,6.33-2.89,12.11,2.53,33.82,9.83,39.37,1.17.89,1.39,2.55.51,3.72-.52.69-1.31,1.05-2.11,1.05Z"/><path class="uuid-e1620c27-d881-42c5-9a31-9a738b2c839c" d="M301.65,474.17c-1.1,0-2.13-.69-2.51-1.78-3.33-9.6-13.46-41.35-3.78-46.92,4.13-2.37,11.66-1.83,33.6,23.65.96,1.11.83,2.78-.28,3.74-1.11.95-2.78.83-3.74-.28-21.27-24.7-26.41-22.81-26.93-22.52-3.9,2.25.11,23.19,6.15,40.59.48,1.38-.25,2.9-1.64,3.38-.29.1-.58.15-.87.15Z"/><path class="uuid-e1620c27-d881-42c5-9a31-9a738b2c839c" d="M206.97,456.64c-.15,0-.3-.01-.45-.04-1.44-.25-2.41-1.62-2.16-3.06,2.16-12.58,14.91-17.99,15.45-18.22,1.35-.56,2.91.08,3.47,1.44.56,1.35-.08,2.9-1.43,3.46-.2.08-10.6,4.59-12.26,14.22-.22,1.29-1.34,2.2-2.61,2.2Z"/><path class="uuid-e1620c27-d881-42c5-9a31-9a738b2c839c" d="M264.47,422.39c-.61,0-1.22-.21-1.72-.63-1.12-.95-1.25-2.62-.3-3.74,8.28-9.72,22-7.87,22.58-7.79,1.45.21,2.46,1.55,2.25,3.01-.21,1.45-1.54,2.47-3,2.25-.17-.03-11.45-1.47-17.79,5.98-.52.62-1.27.93-2.02.93Z"/><rect class="uuid-e1620c27-d881-42c5-9a31-9a738b2c839c" x="320.44" y="14.07" width="20.49" height="5.3" transform="translate(85.04 238.73) rotate(-45)"/><rect class="uuid-e1620c27-d881-42c5-9a31-9a738b2c839c" x="328.03" y="6.47" width="5.3" height="20.49" transform="translate(85.04 238.74) rotate(-45)"/><rect class="uuid-e1620c27-d881-42c5-9a31-9a738b2c839c" x="70.26" y="282.45" width="36.5" height="5.3" transform="translate(-175.68 146.1) rotate(-45)"/><rect class="uuid-e1620c27-d881-42c5-9a31-9a738b2c839c" x="85.86" y="266.85" width="5.3" height="36.5" transform="translate(-175.68 146.1) rotate(-45)"/></svg>