<?xml version="1.0" encoding="UTF-8"?><svg id="uuid-8227002e-7644-4176-b8f8-27767039d347" xmlns="http://www.w3.org/2000/svg" viewBox="0 0 444.6 596.44"><defs><style>.uuid-9fafaec4-427b-4d46-af02-8e295f306073{fill:#0e74bb;}.uuid-4b874147-ca24-4dc0-8ceb-ad384f592b4d{fill:#99b9ff;}.uuid-e783f4e0-3101-4f58-95c6-382fe99df5b3{fill:#fff;}.uuid-cbfd0195-e2dc-458c-a4fa-7e7b9bc02f7e{fill:#7ca0fc;}.uuid-3ce2d052-1568-465a-aeff-dabc10775469{fill:#080717;}</style></defs><path class="uuid-3ce2d052-1568-465a-aeff-dabc10775469" d="M387.62,582.14v-182.13c36.07-36.13,58.02-86.31,56.94-141.61-2.02-103.77-86.4-188.6-190.16-191.1-109.92-2.65-199.86,85.66-199.86,194.98,0,2.95.11,5.88.23,8.8l-48.66,58.76c-11.28,13.63-6.35,34.27,9.87,41.32l21.05,9.15v76.98c0,29.05,23.55,52.59,52.59,52.59h83.27v72.25h214.72Z"/><path class="uuid-9fafaec4-427b-4d46-af02-8e295f306073" d="M330.98,296.03l-55.2-69.28c-2.68-3.37-8.08-2.02-8.87,2.21-1.09,5.84-.16,11.87,2.64,17.11l35.38,66.18c4.11,7.69,3.91,16.95-.5,24.46,2.42.37,4.88.62,7.37.74,9.73.46,19.1-1.12,27.7-4.36l.5-9.14c.55-10.1-2.66-20.04-9.02-27.91Z"/><path class="uuid-9fafaec4-427b-4d46-af02-8e295f306073" d="M335.37,320.23l-66.64-58.37c-3.24-2.84-8.31-.56-8.34,3.75-.04,5.94,1.95,11.71,5.64,16.37l46.58,58.84c5.41,6.84,30.42-13.98,22.76-20.59Z"/><path class="uuid-9fafaec4-427b-4d46-af02-8e295f306073" d="M318.62,337.53l-49.5-43.36c-2.41-2.11-6.18-.41-6.2,2.79-.03,4.41,1.45,8.7,4.19,12.16l34.6,43.71c4.02,5.08,22.59-10.38,16.91-15.3Z"/><path class="uuid-3ce2d052-1568-465a-aeff-dabc10775469" d="M309.56,312.1c-.77,0-1.53-.37-1.99-1.06l-21.67-32.31c-.74-1.1-.44-2.58.65-3.32,1.1-.74,2.58-.45,3.32.65l21.67,32.31c.74,1.1.44,2.58-.65,3.32-.41.28-.87.41-1.33.41Z"/><path class="uuid-e783f4e0-3101-4f58-95c6-382fe99df5b3" d="M158.89,134.36c-.87-51.75,40.38-94.4,92.13-95.27,51.75-.87,94.4,40.38,95.27,92.13.58,34.66-17.78,65.17-45.49,81.85l.6,36.06-93.7,1.57-.6-36.06c-28.25-15.74-47.63-45.62-48.21-80.28Z"/><path d="M204.18,254.35l-.63-37.6c-29.24-17.13-47.67-48.48-48.24-82.32h0c-.9-53.64,42.01-98.01,95.65-98.91,26.04-.46,50.58,9.27,69.27,27.34,18.68,18.07,29.21,42.33,29.64,68.31.57,33.84-16.8,65.79-45.45,83.89l.63,37.6-100.87,1.69ZM252.63,42.67c-.52,0-1.03,0-1.55.01-24.07.4-46.54,10.16-63.28,27.46-16.73,17.3-25.73,40.09-25.32,64.16h0c.54,31.98,18.3,61.57,46.37,77.2l1.8,1.01.58,34.54,86.52-1.45-.58-34.54,1.77-1.07c27.52-16.57,44.29-46.73,43.75-78.71-.4-24.07-10.15-46.54-27.46-63.28-16.93-16.38-39.11-25.34-62.61-25.34Z"/><path class="uuid-4b874147-ca24-4dc0-8ceb-ad384f592b4d" d="M242.61,248.89l-4.78-.11c.01-.51,1.17-51.31-1.46-83.12-.26-3.2-.59-6.16-.97-8.92-9.6-2.55-17.87-7.54-23.54-12.67-7.06-6.4-10.65-13.48-9.61-18.92.9-4.68,6.55-9.44,13.59-9.08,5.74.31,18.59,4.73,23.8,36.77,6.61,1.32,13.79,1.31,21.08-.85,3.75-1.11,7.7-2.36,11.64-3.78.65-5.3,1.42-9.87,2.34-13.35,4.87-18.39,17.37-30.44,26.21-30.44.14,0,.27,0,.41,0,4.55.19,7.72,3.5,8.7,9.08,3.41,19.5-14.43,30.92-33.24,38.15-3.66,33.87-2.81,94.51-2.8,95.23l-4.78.07c-.04-2.89-.83-59.23,2.58-93.48-3.29,1.14-6.57,2.16-9.7,3.09-7.49,2.21-14.87,2.38-21.72,1.24.3,2.35.56,4.83.78,7.45,2.65,32.07,1.49,83.12,1.48,83.63ZM215.08,120.83c-4.37,0-7.71,3.01-8.13,5.22-.71,3.68,2.48,9.36,8.13,14.48,4.78,4.34,11.6,8.56,19.51,11.02-4.92-27.56-15.5-30.52-19-30.7-.17,0-.34-.01-.51-.01ZM300.91,109.19c-5.98,0-17.19,10.29-21.58,26.88-.72,2.73-1.35,6.19-1.9,10.19,16.16-6.57,30.59-16.42,27.87-31.94-.87-4.98-3.37-5.09-4.19-5.13-.07,0-.14,0-.21,0Z"/><path class="uuid-cbfd0195-e2dc-458c-a4fa-7e7b9bc02f7e" d="M304.31,264.8l-2.63.04-.16-9.38,3.34-.06-.17-10.08-101.2,1.7.17,10.08,4.64-.08.16,9.38-5.36.09.17,10.08,5.36-.09.36,21.64c.17,9.98,8.39,17.93,18.37,17.76l57.09-.96c9.98-.17,17.93-8.39,17.76-18.37l-.36-21.64,2.62-.04-.17-10.08Z"/><path class="uuid-9fafaec4-427b-4d46-af02-8e295f306073" d="M392.71,455.09l-71.27-54.13,22.94-67.74c3.69-10.89,3.21-22.75-1.35-33.3l-39.27-92.68c-1.91-4.5-8.23-4.68-10.39-.29-2.98,6.06-3.8,12.95-2.34,19.53l18.52,83.23c2.18,9.82-.98,20.05-8.32,26.93-11.8,11.06-30.44,10.05-40.99-2.21l-27.63-32.12c-8.1-9.42-20.22-14.39-32.6-13.38-4.04.33-6.34,4.78-4.26,8.27l14.63,24.54c11.37,19.07,17.64,40.74,18.23,62.93h0c.7,26.54,11.29,51.87,29.71,71l134.38,140.77v-141.35Z"/><path class="uuid-3ce2d052-1568-465a-aeff-dabc10775469" d="M291.34,345.07c-.98,0-1.91-.61-2.25-1.59-.44-1.24.21-2.61,1.45-3.05,3.37-1.2,6.42-3.06,9.07-5.54,6.69-6.26,9.61-15.71,7.62-24.66l-13.16-59.17c-.29-1.29.53-2.57,1.82-2.85,1.27-.27,2.56.53,2.85,1.82l13.16,59.17c2.35,10.59-1.1,21.78-9.02,29.19-3.13,2.93-6.74,5.13-10.73,6.55-.26.09-.53.14-.8.14Z"/><path class="uuid-3ce2d052-1568-465a-aeff-dabc10775469" d="M305.53,333.07c-.74,0-1.46-.34-1.93-.98l-14.33-19.58c-.78-1.07-.55-2.56.52-3.34,1.07-.78,2.56-.55,3.34.52l14.33,19.58c.78,1.07.55,2.56-.52,3.34-.43.31-.92.46-1.41.46Z"/><path class="uuid-e783f4e0-3101-4f58-95c6-382fe99df5b3" d="M196.02,592.28c-.51,0-1.03-.07-1.55-.21-3.19-.85-5.08-4.13-4.23-7.32l59-220.21c.86-3.19,4.15-5.07,7.32-4.23,3.19.85,5.08,4.13,4.23,7.32l-59,220.21c-.72,2.67-3.13,4.43-5.77,4.43Z"/><path class="uuid-e783f4e0-3101-4f58-95c6-382fe99df5b3" d="M246.77,592.28c-.51,0-1.03-.07-1.55-.21-3.19-.85-5.08-4.13-4.23-7.32l59-220.21c.86-3.19,4.14-5.07,7.32-4.23,3.19.85,5.08,4.13,4.23,7.32l-59,220.21c-.72,2.67-3.13,4.43-5.77,4.43Z"/><path class="uuid-e783f4e0-3101-4f58-95c6-382fe99df5b3" d="M298.96,394.35h-49.62c-3.3,0-5.98-2.68-5.98-5.98s2.68-5.98,5.98-5.98h49.62c3.3,0,5.98,2.68,5.98,5.98s-2.68,5.98-5.98,5.98Z"/><path class="uuid-e783f4e0-3101-4f58-95c6-382fe99df5b3" d="M291.1,423.67h-49.62c-3.3,0-5.98-2.68-5.98-5.98s2.68-5.98,5.98-5.98h49.62c3.3,0,5.98,2.68,5.98,5.98s-2.68,5.98-5.98,5.98Z"/><path class="uuid-e783f4e0-3101-4f58-95c6-382fe99df5b3" d="M283.24,452.99h-49.62c-3.3,0-5.98-2.68-5.98-5.98s2.68-5.98,5.98-5.98h49.62c3.3,0,5.98,2.68,5.98,5.98s-2.68,5.98-5.98,5.98Z"/><path class="uuid-e783f4e0-3101-4f58-95c6-382fe99df5b3" d="M275.39,482.31h-49.62c-3.3,0-5.98-2.68-5.98-5.98s2.68-5.98,5.98-5.98h49.62c3.3,0,5.98,2.68,5.98,5.98s-2.68,5.98-5.98,5.98Z"/><path class="uuid-e783f4e0-3101-4f58-95c6-382fe99df5b3" d="M267.53,511.64h-49.62c-3.3,0-5.98-2.68-5.98-5.98s2.68-5.98,5.98-5.98h49.62c3.3,0,5.98,2.68,5.98,5.98s-2.68,5.98-5.98,5.98Z"/><path class="uuid-e783f4e0-3101-4f58-95c6-382fe99df5b3" d="M259.67,540.96h-49.62c-3.3,0-5.98-2.68-5.98-5.98s2.68-5.98,5.98-5.98h49.62c3.3,0,5.98,2.68,5.98,5.98s-2.68,5.98-5.98,5.98Z"/><path class="uuid-e783f4e0-3101-4f58-95c6-382fe99df5b3" d="M251.82,570.28h-49.62c-3.3,0-5.98-2.68-5.98-5.98s2.68-5.98,5.98-5.98h49.62c3.3,0,5.98,2.68,5.98,5.98s-2.68,5.98-5.98,5.98Z"/><rect class="uuid-3ce2d052-1568-465a-aeff-dabc10775469" x="333.37" y="39.05" width="37.29" height="4.79" transform="translate(50.99 228.56) rotate(-38.58)"/><rect class="uuid-3ce2d052-1568-465a-aeff-dabc10775469" x="305.85" y="14.77" width="37.29" height="4.78" transform="translate(140.66 285.11) rotate(-58.57)"/><rect class="uuid-3ce2d052-1568-465a-aeff-dabc10775469" x="350.92" y="71.27" width="37.28" height="4.78" transform="translate(-4.23 121.45) rotate(-18.56)"/></svg>