<?xml version="1.0" encoding="UTF-8"?><svg id="uuid-989329f1-0b0b-4310-acd4-3a0a0bd6dd6b" xmlns="http://www.w3.org/2000/svg" viewBox="0 0 250.47 515.5"><defs><style>.uuid-40b4ba44-0320-47ef-94bc-19a370de8596{fill:#0e74bb;}.uuid-76694aea-54c9-4abd-894b-0015ed0a23be{fill:#99b9ff;}.uuid-b3229083-9d03-40e5-a180-60996f8aa8d0{fill:#fff;}.uuid-b6db95cc-8de0-4a56-b44c-78722c74ae52{fill:#7ca0fc;}.uuid-9cc71129-dea1-4fcf-9ce5-4026a651e25b{fill:#080717;}</style></defs><path class="uuid-40b4ba44-0320-47ef-94bc-19a370de8596" d="M197.72,258.76l-47.18-59.21c-2.29-2.88-6.91-1.73-7.58,1.89-.93,4.99-.14,10.15,2.25,14.62l30.23,56.56c3.51,6.57,3.34,14.49-.42,20.9,2.07.32,4.17.53,6.3.63,8.32.39,16.32-.96,23.68-3.73l.43-7.81c.47-8.63-2.27-17.13-7.71-23.85Z"/><path class="uuid-40b4ba44-0320-47ef-94bc-19a370de8596" d="M201.47,279.44l-56.95-49.88c-2.77-2.42-7.1-.48-7.13,3.21-.03,5.08,1.67,10.01,4.82,13.99l39.8,50.29c4.63,5.84,26-11.95,19.46-17.6Z"/><path class="uuid-40b4ba44-0320-47ef-94bc-19a370de8596" d="M187.15,294.23l-42.3-37.05c-2.06-1.8-5.28-.35-5.29,2.38-.02,3.77,1.24,7.44,3.58,10.39l29.57,37.35c3.44,4.34,19.31-8.87,14.45-13.07Z"/><path class="uuid-9cc71129-dea1-4fcf-9ce5-4026a651e25b" d="M179.42,272.5c-.66,0-1.31-.32-1.7-.91l-18.52-27.61c-.63-.94-.38-2.21.56-2.83.94-.63,2.21-.38,2.83.56l18.52,27.61c.63.94.38,2.21-.56,2.83-.35.24-.74.35-1.14.35Z"/><path class="uuid-b3229083-9d03-40e5-a180-60996f8aa8d0" d="M50.65,120.6c-.74-44.22,34.51-80.68,78.73-81.42,44.22-.74,80.67,34.51,81.42,78.73.5,29.62-15.2,55.69-38.88,69.95l.52,30.82-80.07,1.34-.52-30.82c-24.14-13.45-40.7-38.98-41.2-68.61Z"/><path d="M89.35,223.14l-.54-32.14c-24.99-14.64-40.74-41.43-41.23-70.35h0c-.77-45.84,35.9-83.76,81.75-84.53,22.26-.39,43.23,7.93,59.2,23.37,15.97,15.44,24.96,36.17,25.33,58.38.48,28.92-14.36,56.23-38.85,71.69l.54,32.14-86.21,1.45ZM130.76,42.23c-.44,0-.88,0-1.32.01-20.57.35-39.78,8.68-54.08,23.47-14.3,14.79-21.99,34.26-21.64,54.83h0c.46,27.33,15.64,52.62,39.62,65.98l1.54.86.49,29.52,73.95-1.24-.49-29.52,1.51-.91c23.52-14.16,37.85-39.94,37.39-67.27-.34-20.57-8.68-39.77-23.47-54.08-14.47-13.99-33.43-21.66-53.51-21.66Z"/><path class="uuid-76694aea-54c9-4abd-894b-0015ed0a23be" d="M122.2,218.47l-4.09-.1c.01-.44,1-43.85-1.25-71.04-.23-2.73-.5-5.27-.83-7.62-8.21-2.18-15.28-6.44-20.12-10.83-6.04-5.47-9.11-11.52-8.21-16.17.77-4,5.6-8.07,11.62-7.76,4.9.26,15.89,4.04,20.34,31.42,5.65,1.13,11.79,1.12,18.02-.72,3.2-.95,6.58-2.01,9.95-3.23.55-4.53,1.22-8.43,2-11.41,4.16-15.71,14.84-26.01,22.4-26.01.12,0,.23,0,.35,0,3.89.17,6.6,3,7.43,7.76,2.91,16.66-12.33,26.42-28.41,32.61-3.13,28.94-2.4,80.77-2.39,81.38l-4.09.06c-.04-2.47-.71-50.62,2.21-79.89-2.82.98-5.61,1.85-8.29,2.64-6.4,1.89-12.71,2.03-18.56,1.06.26,2.01.48,4.13.66,6.37,2.27,27.4,1.27,71.03,1.26,71.47ZM98.67,109.03c-3.74,0-6.59,2.58-6.95,4.46-.6,3.14,2.12,8,6.94,12.38,4.09,3.71,9.91,7.31,16.67,9.41-4.2-23.56-13.24-26.08-16.24-26.24-.15,0-.29-.01-.43-.01ZM172.02,99.09c-5.11,0-14.69,8.8-18.44,22.97-.62,2.33-1.15,5.29-1.62,8.71,13.81-5.61,26.14-14.03,23.82-27.29-.74-4.26-2.88-4.35-3.58-4.38-.06,0-.12,0-.18,0Z"/><path class="uuid-b6db95cc-8de0-4a56-b44c-78722c74ae52" d="M174.92,232.07l-2.24.04-.13-8.01,2.86-.05-.14-8.62-86.49,1.45.14,8.62,3.96-.07.13,8.01-4.58.08.14,8.62,4.58-.08.31,18.49c.14,8.53,7.17,15.32,15.7,15.18l48.79-.82c8.53-.14,15.32-7.17,15.18-15.7l-.31-18.49,2.24-.04-.14-8.62Z"/><path class="uuid-40b4ba44-0320-47ef-94bc-19a370de8596" d="M250.47,394.7l-60.91-46.26,19.61-57.89c3.15-9.3,2.74-19.44-1.15-28.46l-33.56-79.2c-1.63-3.85-7.03-4-8.88-.25-2.55,5.18-3.25,11.06-2,16.69l15.83,71.13c1.87,8.39-.84,17.14-7.11,23.01-10.09,9.45-26.02,8.59-35.03-1.89l-23.61-27.45c-6.92-8.05-17.28-12.3-27.86-11.43-3.45.28-5.42,4.09-3.64,7.07l12.5,20.97c9.72,16.3,15.08,34.82,15.58,53.78h0c.59,22.69,9.65,44.33,25.39,60.68l114.84,120.31v-120.8Z"/><path class="uuid-9cc71129-dea1-4fcf-9ce5-4026a651e25b" d="M163.84,300.67c-.84,0-1.63-.52-1.93-1.36-.38-1.06.18-2.23,1.24-2.61,2.88-1.03,5.49-2.62,7.75-4.73,5.72-5.35,8.21-13.43,6.51-21.08l-11.25-50.56c-.24-1.1.45-2.19,1.55-2.44,1.09-.23,2.19.45,2.44,1.55l11.25,50.56c2.01,9.05-.94,18.61-7.71,24.95-2.67,2.5-5.76,4.38-9.17,5.6-.23.08-.46.12-.68.12Z"/><path class="uuid-9cc71129-dea1-4fcf-9ce5-4026a651e25b" d="M175.96,290.42c-.63,0-1.25-.29-1.65-.84l-12.25-16.73c-.67-.91-.47-2.19.44-2.86.91-.67,2.19-.47,2.86.44l12.25,16.73c.67.91.47,2.19-.44,2.86-.37.27-.79.39-1.21.39Z"/><rect class="uuid-9cc71129-dea1-4fcf-9ce5-4026a651e25b" x="199.76" y="39.14" width="31.87" height="4.09" transform="translate(21.4 143.49) rotate(-38.58)"/><rect class="uuid-9cc71129-dea1-4fcf-9ce5-4026a651e25b" x="176.24" y="18.39" width="31.87" height="4.09" transform="translate(74.54 173.77) rotate(-58.57)"/><rect class="uuid-9cc71129-dea1-4fcf-9ce5-4026a651e25b" x="214.76" y="66.67" width="31.86" height="4.09" transform="translate(-9.87 77) rotate(-18.56)"/><rect class="uuid-9cc71129-dea1-4fcf-9ce5-4026a651e25b" x="28.71" y="19.48" width="4.09" height="31.87" transform="translate(-16.11 37.37) rotate(-51.42)"/><rect class="uuid-9cc71129-dea1-4fcf-9ce5-4026a651e25b" x="52.23" y="-1.27" width="4.09" height="31.87" transform="translate(.31 30.45) rotate(-31.43)"/><rect class="uuid-9cc71129-dea1-4fcf-9ce5-4026a651e25b" x="13.71" y="47.02" width="4.09" height="31.86" transform="translate(-48.94 57.85) rotate(-71.44)"/></svg>