<?xml version="1.0" encoding="UTF-8"?><svg id="uuid-4963737a-31d2-46a9-9bdb-f2d58ee4726b" xmlns="http://www.w3.org/2000/svg" viewBox="0 0 515.98 384.4"><defs><style>.uuid-a6b2fd90-eed8-436b-beda-3fd859ac954f{fill:#282d33;}.uuid-8b131ae9-ed62-453f-9fad-356e1b30c74e{fill:#99b9ff;}.uuid-30ce1d04-bb8d-4115-8eff-4efd7113e0a1{fill:#fff;}.uuid-d62250c7-5e9f-44ef-8dfa-c7489bf393ec{fill:#080717;}.uuid-f661cf6d-1f69-41b4-a1ba-bf0cc22a561f{fill:#1d1d1b;}.uuid-711d8f14-ca77-49f5-8965-c0cd40cf2d3f{fill:#10101a;}</style></defs><path class="uuid-8b131ae9-ed62-453f-9fad-356e1b30c74e" d="M120.51,159.69c-.34,0-.68-.11-.95-.31-.35-.26-.58-.64-.64-1.07l-9.21-63.65c-.13-.87.47-1.68,1.34-1.82l124.08-19.86c.43-.07.86.04,1.21.29.35.26.58.64.64,1.07l9.21,63.65c.13.87-.47,1.68-1.34,1.82l-124.08,19.86c-.08.01-.17.02-.25.02ZM113.12,95.77l8.75,60.46,120.9-19.35-8.75-60.46-120.9,19.35Z"/><path class="uuid-8b131ae9-ed62-453f-9fad-356e1b30c74e" d="M120.51,159.69c-.34,0-.68-.11-.95-.31-.35-.26-.58-.64-.64-1.07l-9.21-63.65c-.08-.55.13-1.11.56-1.46.43-.36,1.01-.47,1.54-.3l133.29,43.79c.71.23,1.16.92,1.1,1.66-.06.74-.62,1.34-1.35,1.46l-124.08,19.86c-.08.01-.17.02-.25.02ZM113.26,96.77l8.61,59.46,115.91-18.55-124.52-40.91Z"/><path class="uuid-8b131ae9-ed62-453f-9fad-356e1b30c74e" d="M120.51,159.69c-.21,0-.42-.04-.63-.13-.52-.22-.89-.69-.97-1.25l-9.21-63.65c-.13-.87.47-1.68,1.34-1.82l124.08-19.86c.74-.12,1.46.28,1.74.97.29.69.06,1.48-.54,1.92l-114.86,83.5c-.28.2-.61.31-.95.31ZM113.12,95.77l8.6,59.44,107.27-77.98-115.87,18.55Z"/><rect class="uuid-8b131ae9-ed62-453f-9fad-356e1b30c74e" x="257.99" y="102.25" width="130.67" height="3.22" transform="translate(-11.95 49.83) rotate(-8.65)"/><rect class="uuid-8b131ae9-ed62-453f-9fad-356e1b30c74e" x="259.46" y="111.5" width="141.89" height="3.22" transform="translate(-13.26 51) rotate(-8.65)"/><rect class="uuid-8b131ae9-ed62-453f-9fad-356e1b30c74e" x="261.22" y="124.5" width="103.41" height="3.22" transform="translate(-15.41 48.52) rotate(-8.65)"/><rect class="uuid-8b131ae9-ed62-453f-9fad-356e1b30c74e" x="263.19" y="140.38" width="26.45" height="3.22" transform="translate(-18.22 43.2) rotate(-8.65)"/><rect class="uuid-8b131ae9-ed62-453f-9fad-356e1b30c74e" x="252.5" y="65.68" width="79.91" height="8.05" transform="translate(-7.16 44.78) rotate(-8.65)"/><rect class="uuid-8b131ae9-ed62-453f-9fad-356e1b30c74e" x="254.82" y="79.78" width="110.79" height="8.05" transform="translate(-9.07 47.6) rotate(-8.65)"/><path class="uuid-a6b2fd90-eed8-436b-beda-3fd859ac954f" d="M105.27,330.6c-3.07,0-6.03-.98-8.53-2.85-3.08-2.3-5.06-5.67-5.59-9.47L56.8,71.68c-.76-5.42,2.5-10.37,7.25-11.03L471.47.08c2.36-.33,4.71.42,6.61,2.11,1.83,1.63,3.03,3.94,3.39,6.52l34.37,246.82c1.08,7.74-4.33,14.96-12.06,16.11l-396.38,58.82c-.71.11-1.42.16-2.13.16ZM472.55,3.22c-.21,0-.41.01-.62.04L64.51,63.84c-3.01.42-5.03,3.74-4.52,7.4l34.34,246.59c.41,2.95,1.95,5.55,4.33,7.34,2.38,1.78,5.31,2.53,8.26,2.09l396.38-58.82.24,1.59-.24-1.59c5.99-.89,10.18-6.49,9.34-12.48L478.28,9.14c-.25-1.82-1.09-3.44-2.34-4.55-1.01-.9-2.19-1.37-3.39-1.37Z"/><path d="M84.66,78.36c.35,2.48-1.39,4.77-3.87,5.12-2.48.35-4.77-1.39-5.12-3.87-.35-2.48,1.39-4.77,3.87-5.12,2.48-.35,4.77,1.39,5.12,3.87Z"/><path d="M97.86,76.52c.35,2.48-1.39,4.77-3.87,5.12-2.48.35-4.77-1.39-5.12-3.87-.35-2.48,1.38-4.77,3.87-5.12,2.48-.35,4.77,1.39,5.12,3.87Z"/><path d="M111.05,74.68c.35,2.48-1.39,4.77-3.87,5.12-2.48.35-4.77-1.39-5.12-3.87-.35-2.48,1.39-4.77,3.87-5.12,2.48-.35,4.77,1.39,5.12,3.87Z"/><polygon class="uuid-f661cf6d-1f69-41b4-a1ba-bf0cc22a561f" points="458.46 256.84 445.08 246.73 455.18 233.34 457.75 235.28 449.59 246.1 460.4 254.27 458.46 256.84"/><polygon class="uuid-f661cf6d-1f69-41b4-a1ba-bf0cc22a561f" points="481.49 253.63 478.92 251.69 487.08 240.87 476.27 232.7 478.21 230.13 491.59 240.24 481.49 253.63"/><rect class="uuid-f661cf6d-1f69-41b4-a1ba-bf0cc22a561f" x="430.2" y="20.97" width="3.22" height="10.4" transform="translate(.52 59.8) rotate(-7.93)"/><rect class="uuid-f661cf6d-1f69-41b4-a1ba-bf0cc22a561f" x="426.61" y="24.56" width="10.4" height="3.22" transform="translate(.51 59.72) rotate(-7.92)"/><polygon class="uuid-f661cf6d-1f69-41b4-a1ba-bf0cc22a561f" points="449.97 18.05 445.79 18.64 446.37 22.82 450.55 22.24 449.97 18.05 449.97 18.05"/><polygon class="uuid-f661cf6d-1f69-41b4-a1ba-bf0cc22a561f" points="450.91 24.83 446.73 25.41 447.31 29.6 451.5 29.02 450.91 24.83 450.91 24.83"/><polygon class="uuid-f661cf6d-1f69-41b4-a1ba-bf0cc22a561f" points="456.81 17.1 452.62 17.68 453.21 21.87 457.39 21.29 456.81 17.1 456.81 17.1"/><polygon class="uuid-f661cf6d-1f69-41b4-a1ba-bf0cc22a561f" points="457.75 23.88 453.57 24.46 454.15 28.65 458.33 28.06 457.75 23.88 457.75 23.88"/><path class="uuid-d62250c7-5e9f-44ef-8dfa-c7489bf393ec" d="M261.7,169.29c-19.75-11.45-41.3-10.46-41.3-10.46-22.26-.17-50.99,37.06-52.61,60.05-1.02,3.52-1.59,7.24-1.62,11.09-.17,22.64,18.17,38.95,40.69,41.31,47.4,4.97,50.58,32.52,87.35,42.35,77.68,20.77,138.11-38.8,140.16-77.63,1.93-36.63-41.1-110.71-120.28-85.74-13.29,4.19-33.5,30-52.41,19.04Z"/><path class="uuid-d62250c7-5e9f-44ef-8dfa-c7489bf393ec" d="M302.81,307.89c-5.16-4.9-9.44-4.69-14.39-4.45-4.48.21-9.55.46-14.99-3.83-3.98-3.14-6.55-7.58-9.03-11.88-4.42-7.66-8.6-14.9-20.38-15.96-1.29-.12-2.75-.23-4.35-.36-3.58-.28-8.04-.63-12.8-1.19l-12.41.58c-22.46,1.01-41.6-16.33-44.55-40.45-2.18-17.82,5.02-38.53,19.26-55.41,10.37-12.28,22.53-19.9,32.53-20.37.81-.08,22.08-2.09,42.61,8.37,12.36,6.3,24.68-3.55,35.55-12.24,5.17-4.14,10.06-8.04,14.44-9.69l1.13,3.01c-3.9,1.47-8.6,5.22-13.56,9.19-11.05,8.84-24.81,19.84-39.03,12.6-19.66-10.02-40.7-8.05-40.91-8.03-9.21.44-20.51,7.62-30.31,19.24-13.68,16.21-20.6,36-18.53,52.94,2.75,22.42,20.47,38.59,41.21,37.62l12.67-.59.13.02c4.75.56,9.22.91,12.81,1.19,1.61.13,3.08.24,4.38.36,13.44,1.22,18.45,9.9,22.87,17.56,2.44,4.22,4.74,8.21,8.24,10.97,4.5,3.54,8.55,3.35,12.85,3.14,4.97-.24,10.6-.51,16.76,5.33l-2.21,2.34Z"/><path class="uuid-30ce1d04-bb8d-4115-8eff-4efd7113e0a1" d="M248.91,307c-44.7,0-88.28-10.13-122.7-28.53-36.19-19.34-60.79-46.91-69.27-77.63-3.07-11.13,3.46-22.63,14.59-25.7,11.12-3.07,22.63,3.46,25.7,14.59,5.4,19.57,22.69,37.99,48.68,51.88,28.47,15.22,65.05,23.6,103,23.6,84.34,0,141-38.57,151.51-74.85,3.21-11.09,14.8-17.47,25.88-14.26,11.09,3.21,17.47,14.8,14.27,25.89-8.81,30.42-33.5,57.7-69.53,76.81-34.32,18.2-77.69,28.22-122.12,28.22Z"/><path class="uuid-d62250c7-5e9f-44ef-8dfa-c7489bf393ec" d="M248.92,308.61c-44.96,0-88.81-10.2-123.46-28.72-36.59-19.55-61.47-47.47-70.06-78.62-1.6-5.79-.85-11.87,2.12-17.09,2.97-5.23,7.79-8.99,13.59-10.59,5.8-1.6,11.87-.85,17.1,2.12,5.23,2.97,8.99,7.79,10.59,13.59,5.28,19.14,22.29,37.21,47.89,50.89,28.24,15.09,64.55,23.41,102.25,23.41,83.55,0,139.62-37.97,149.96-73.69,3.45-11.92,15.96-18.8,27.88-15.36,11.92,3.45,18.81,15.96,15.36,27.88-8.93,30.85-33.9,58.47-70.32,77.78-34.55,18.32-78.19,28.41-122.88,28.41ZM77.12,175.98c-1.72,0-3.46.23-5.17.7-4.97,1.37-9.1,4.59-11.64,9.07-2.54,4.48-3.19,9.68-1.82,14.65,8.36,30.29,32.68,57.5,68.48,76.64,34.2,18.27,77.5,28.34,121.95,28.34s87.28-9.96,121.37-28.03c35.64-18.9,60.06-45.83,68.74-75.83,2.96-10.22-2.95-20.93-13.17-23.89-10.22-2.95-20.93,2.95-23.89,13.17-10.66,36.85-67.93,76.01-153.05,76.01-38.21,0-75.06-8.45-103.76-23.79-26.38-14.1-43.95-32.88-49.47-52.88-1.37-4.97-4.59-9.1-9.08-11.65-2.94-1.67-6.19-2.52-9.48-2.52Z"/><path class="uuid-30ce1d04-bb8d-4115-8eff-4efd7113e0a1" d="M439.66,205.3h0c.98-.61,1.91-1.3,2.79-2.06,7.28-6.38,12.63-20,15.83-28.14.78-1.98,1.37-3.48,1.8-4.4.8-1.7,2.42-4.22,4.13-6.89,3.86-6.01,6.34-10.06,5.66-11.66-.27-.62-.72-1.33-1.28-2l-.71-.84.4-1.02c.9-2.32,2.6-8.2-1.1-12.68-.14-.17-.33-.37-.54-.57l-1.04-1,.72-1.25c.86-1.5,1.09-3.16.68-4.8-.59-2.37-2.39-4.26-4.57-4.81-3.28-.83-6.52-.44-9.91,1.18l-1.09.52-.91-.78c-4.88-4.18-10.38-4.42-16.36-.72-1.34.83-2.71,1.87-4.09,3.08-4.3,3.8-16.27,21.34-26.04,36.49l-.97,1.51-1.54-.93c-2.31-1.4-7.01-4.5-12.56-9.55-5.72-5.2-13.19-5.8-17.1-3.37-.22.14-.43.28-.62.43-2.09,1.64-2.52,4.1-1.16,6.59,3.43,6.27,9.18,13.07,14.74,19.65,3.16,3.74,6.1,7.22,8.51,10.46,6.08,8.17,12.17,9.17,14.46,9.55l1.02.17,30.86,7.85Z"/><path class="uuid-d62250c7-5e9f-44ef-8dfa-c7489bf393ec" d="M439.66,206.91c-.54,0-1.06-.27-1.37-.76-.47-.76-.24-1.75.52-2.22.9-.56,1.77-1.2,2.57-1.91,6.99-6.12,12.25-19.51,15.39-27.5.78-1.98,1.39-3.53,1.85-4.51.84-1.78,2.47-4.32,4.19-7.01,2.18-3.4,5.77-8.98,5.56-10.28-.18-.41-.56-1-1.01-1.53l-.71-.84c-.38-.45-.48-1.07-.27-1.62l.4-1.02c.8-2.06,2.31-7.25-.84-11.08-.11-.13-.25-.28-.41-.43l-1.05-1c-.53-.51-.65-1.32-.28-1.96l.72-1.25c.65-1.13.82-2.38.51-3.61-.45-1.8-1.79-3.23-3.4-3.64-2.9-.74-5.79-.38-8.82,1.07l-1.08.52c-.57.28-1.26.19-1.74-.23l-.91-.78c-4.34-3.72-9.08-3.91-14.46-.57-1.26.78-2.56,1.76-3.87,2.92-3.44,3.04-13.55,17.23-25.76,36.15l-.97,1.51c-.47.73-1.44.96-2.19.5l-1.54-.93c-2.36-1.43-7.16-4.6-12.8-9.74-5.09-4.63-11.83-5.26-15.17-3.19-.16.1-.32.21-.47.33-1.46,1.15-1.73,2.77-.75,4.55,3.35,6.13,9.05,12.87,14.56,19.38,3.18,3.76,6.15,7.27,8.58,10.54,5.69,7.65,11.32,8.58,13.43,8.92l1.02.17c.88.14,1.47.97,1.33,1.85-.14.88-.97,1.47-1.85,1.33l-1.02-.17c-2.47-.41-9.03-1.49-15.5-10.18-2.37-3.19-5.31-6.66-8.41-10.34-5.65-6.68-11.45-13.54-14.96-19.96-1.74-3.19-1.13-6.49,1.58-8.62.24-.19.49-.37.76-.53,4.44-2.75,12.77-2.17,19.04,3.55,5.45,4.95,10.05,7.99,12.31,9.36l.2.12.12-.19c4.77-7.4,20.77-31.91,26.33-36.82,1.45-1.28,2.9-2.37,4.31-3.24,6.54-4.05,12.85-3.76,18.25.86l.12.1.14-.07c3.74-1.8,7.34-2.22,11.01-1.29,2.75.7,5,3.04,5.74,5.98.52,2.05.23,4.13-.84,5.99l-.09.16.13.13c.26.25.5.5.67.71,4.24,5.13,2.36,11.7,1.36,14.29l-.05.13.09.11c.66.78,1.2,1.63,1.53,2.41.97,2.27-.92,5.58-5.79,13.16-1.71,2.66-3.28,5.11-4.03,6.7-.41.88-1.01,2.39-1.76,4.31-3.25,8.28-8.69,22.13-16.27,28.76-.94.82-1.95,1.57-3,2.22-.26.16-.56.24-.85.24Z"/><path class="uuid-d62250c7-5e9f-44ef-8dfa-c7489bf393ec" d="M428.03,151.63c-.3,0-.61-.09-.89-.27-.74-.49-.95-1.49-.46-2.23.27-.41,6.76-10.19,14.4-17.51,6.29-6.03,13.14-11.73,21.62-9.58.86.22,1.38,1.09,1.17,1.96-.22.86-1.1,1.38-1.95,1.17-6.89-1.75-12.97,3.38-18.61,8.78-7.37,7.07-13.87,16.87-13.94,16.96-.31.47-.82.72-1.34.72Z"/><path class="uuid-d62250c7-5e9f-44ef-8dfa-c7489bf393ec" d="M438.99,156.86c-.26,0-.51-.06-.76-.19-.78-.42-1.08-1.39-.66-2.18.27-.51,6.74-12.59,12.53-17.55,4.33-3.71,8.39-5.42,12.08-5.11,3.2.28,5.08,2.01,5.91,3.02.57.69.47,1.7-.22,2.27-.68.57-1.7.47-2.27-.22-.51-.62-1.67-1.69-3.71-1.86-2.74-.23-6.11,1.27-9.71,4.34-5.32,4.56-11.71,16.49-11.78,16.61-.29.54-.85.85-1.42.85Z"/><path class="uuid-d62250c7-5e9f-44ef-8dfa-c7489bf393ec" d="M446.01,164.77c-.31,0-.62-.09-.9-.28-.74-.5-.93-1.5-.43-2.24.82-1.21,8.12-11.92,11.83-14.51,3.34-2.33,6.24-2.19,8.08-1.66,3.61,1.04,5.76,4.12,6.39,5.61.35.82-.04,1.76-.85,2.11-.82.35-1.76-.04-2.11-.85-.4-.94-1.98-3.1-4.31-3.78-1.7-.49-3.5-.08-5.34,1.21-2.73,1.9-8.87,10.52-11,13.67-.31.46-.82.71-1.34.71Z"/><path class="uuid-d62250c7-5e9f-44ef-8dfa-c7489bf393ec" d="M447.53,169.53c-.59,0-1.16-.32-1.44-.89-.07-.14-7.1-13.8-23.63-18.89-.85-.26-1.33-1.16-1.06-2.01.26-.85,1.16-1.33,2.01-1.07,17.89,5.51,25.26,19.92,25.56,20.53.4.8.07,1.76-.72,2.16-.23.12-.48.17-.72.17Z"/><path class="uuid-d62250c7-5e9f-44ef-8dfa-c7489bf393ec" d="M419.35,196.75c-.12,0-.25-.01-.37-.04-.87-.2-1.4-1.07-1.2-1.94l1.11-4.74c2-8.55,1.05-17.63-2.7-25.57-.38-.8-.03-1.76.77-2.14.8-.38,1.76-.03,2.14.77,4.05,8.6,5.09,18.43,2.92,27.68l-1.11,4.74c-.17.74-.84,1.24-1.57,1.24Z"/><path class="uuid-8b131ae9-ed62-453f-9fad-356e1b30c74e" d="M248.91,312.38c-43.01,0-83.9-8.85-118.25-25.59l23.03-47.25c26.83,13.08,60.64,20.28,95.21,20.28,36.68,0,72.07-8,99.65-22.53l24.5,46.51c-35,18.43-79.09,28.59-124.15,28.59Z"/><path class="uuid-8b131ae9-ed62-453f-9fad-356e1b30c74e" d="M305.13,280.49l38.14,77.34h0c-18.71,19.38-45.34,29-72.12,26.05l-63.49-6.98-.79-105.62,98.26,9.21Z"/><path class="uuid-d62250c7-5e9f-44ef-8dfa-c7489bf393ec" d="M212.07,228.24l23.32-34.06c-13.53-7.3-30.79-4.65-41.42,7.36-12.41,14-11.11,35.42,2.89,47.82,13.14,11.64,32.8,11.22,45.42-.44l-30.21-20.68Z"/><path class="uuid-30ce1d04-bb8d-4115-8eff-4efd7113e0a1" d="M203.9,211.41c-3.73,6.42-2.4,14.76,2.68,22.18l-.07.05c-3.47-1.45-7.24-.96-9.44,1.56-2.78,3.18-1.98,8.64,1.78,12.19,4.07,3.85,9.94,4.17,12.94.79.64-.73,1.09-1.56,1.37-2.46l34.42,42.34c3.17,3.65,8.63,4.2,12.48,1.26l1.78-1.36c6.52-4.98,6.5-15.11-.04-22.62l-12.12-16.72c3.02-1.47,5.5-3.64,7.15-6.48,5.97-10.29-1.04-25.5-15.65-33.98-14.62-8.48-31.3-7.02-37.27,3.26Z"/><path class="uuid-d62250c7-5e9f-44ef-8dfa-c7489bf393ec" d="M240.94,253.58c-2.26,0-4.59-.23-6.94-.7-.87-.17-1.44-1.02-1.26-1.89.17-.87,1.01-1.45,1.89-1.26,5.85,1.16,11.48.73,15.87-1.21.81-.36,1.76,0,2.12.82.36.81,0,1.76-.82,2.12-3.18,1.41-6.9,2.13-10.86,2.13Z"/><path class="uuid-d62250c7-5e9f-44ef-8dfa-c7489bf393ec" d="M230.18,206.84c.34.64,2.04.4,3.81-.53s2.93-2.21,2.59-2.84c-.34-.64-2.04-.4-3.81.53s-2.93,2.21-2.59,2.84Z"/><path class="uuid-d62250c7-5e9f-44ef-8dfa-c7489bf393ec" d="M220.2,224.29c.84.31,2.21-1.33,3.07-3.66.85-2.33.86-4.46.02-4.77-.84-.31-2.21,1.33-3.07,3.66-.85,2.33-.86,4.46-.02,4.77Z"/><path class="uuid-d62250c7-5e9f-44ef-8dfa-c7489bf393ec" d="M243.02,234.43c-3.46,0-6.79-.53-7.91-.73-.88-.15-1.46-.99-1.3-1.86.15-.88.99-1.46,1.87-1.3,5.67,1,12.52,1,13.72-.74.43-.62-.18-1.84-.58-2.51-.46-.76-.21-1.75.55-2.21.76-.45,1.75-.21,2.21.55,1.77,2.95,1.23,4.88.47,5.99-1.53,2.22-5.36,2.81-9.03,2.81Z"/><path class="uuid-d62250c7-5e9f-44ef-8dfa-c7489bf393ec" d="M239.88,214.83c1.14.98,2.65,1.08,3.37.24s.38-2.32-.75-3.29c-1.14-.98-2.65-1.08-3.37-.24-.72.84-.38,2.32.75,3.29Z"/><path class="uuid-d62250c7-5e9f-44ef-8dfa-c7489bf393ec" d="M231.88,224.99c1.24.84,2.75.77,3.37-.14.62-.92.12-2.34-1.12-3.18-1.24-.84-2.75-.77-3.37.14-.62.92-.12,2.34,1.12,3.18Z"/><path class="uuid-d62250c7-5e9f-44ef-8dfa-c7489bf393ec" d="M212.63,202.41s-.07-.1-.11-.14c0,0,0,0-.01,0-4.6,1.31-8.3,3.9-10.47,7.75-4.09,7.27-1.7,17.15,5.23,25.82l5.97-8.73c5.14-7.51,4.97-17.52-.61-24.7Z"/><rect class="uuid-a6b2fd90-eed8-436b-beda-3fd859ac954f" x="11.65" y="206.54" width="3.22" height="21.5" transform="translate(-141.08 63.76) rotate(-41.66)"/><path class="uuid-711d8f14-ca77-49f5-8965-c0cd40cf2d3f" d="M98.99,126.63L1.71,213.17c-2.43,2.16-2.25,6.34.41,9.32l4.81,5.4c2.66,2.98,6.78,3.65,9.21,1.49l97.28-86.54-14.42-16.21Z"/><path class="uuid-30ce1d04-bb8d-4115-8eff-4efd7113e0a1" d="M12.64,229.04c-1.59,0-3.28-.83-4.51-2.22l-4.81-5.4c-2.06-2.32-2.3-5.48-.54-7.05l2.6-2.31,12.29,13.81-2.6,2.31c-.64.56-1.47.86-2.42.86Z"/><path class="uuid-d62250c7-5e9f-44ef-8dfa-c7489bf393ec" d="M5.24,214.34l10.14,11.4-1.39,1.24c-.34.3-.8.46-1.35.46-1.14,0-2.38-.63-3.31-1.68l-4.81-5.4c-1.57-1.77-1.62-3.94-.67-4.78l1.39-1.24h0ZM5.51,209.79l-3.8,3.38c-2.43,2.16-2.25,6.34.41,9.32l4.81,5.4c1.6,1.8,3.74,2.76,5.72,2.76,1.3,0,2.53-.41,3.49-1.27l3.8-3.38-14.42-16.21h0Z"/><polygon class="uuid-30ce1d04-bb8d-4115-8eff-4efd7113e0a1" points="101.78 127.4 122.84 119.93 112.97 139.98 101.78 127.4"/><path class="uuid-d62250c7-5e9f-44ef-8dfa-c7489bf393ec" d="M119.64,122.77l-7.06,14.35-8.01-9.01,15.08-5.35h0ZM126.03,117.09l-27.05,9.59,14.37,16.16,12.67-25.75h0Z"/><polygon class="uuid-711d8f14-ca77-49f5-8965-c0cd40cf2d3f" points="119.82 129.69 112.79 121.79 126.03 117.09 119.82 129.69"/><path class="uuid-30ce1d04-bb8d-4115-8eff-4efd7113e0a1" d="M68,212.47c-7.24,2.74-15.72,1.02-21.3-5.01l-16.19-17.49c-2.31-2.49-2.17-6.39.32-8.7l4.7-4.36c-.98-2.32-.49-5.09,1.46-6.9l6.57-6.1c1.16-1.07,2.62-1.6,4.08-1.62-.08-1.75.55-3.52,1.93-4.8l6.57-6.1c1.25-1.16,2.86-1.7,4.44-1.64.2-1.33.81-2.61,1.87-3.59l6.57-6.1c2.49-2.31,6.39-2.17,8.7.32l19.79,21.32c8,8.61,7.5,22.08-1.12,30.08l-.32-.34s-.03.04-.06.06l-28.03,20.98Z"/><path d="M61.02,215.37c-5.78,0-11.41-2.38-15.51-6.8l-16.19-17.49c-1.41-1.52-2.14-3.5-2.07-5.57.08-2.07.96-3.99,2.48-5.4l3.94-3.66c-.69-2.72.13-5.66,2.22-7.6l6.57-6.1c1.02-.95,2.28-1.59,3.64-1.88.25-1.74,1.08-3.34,2.37-4.54l6.57-6.1c1.19-1.11,2.67-1.8,4.25-2.01.4-1.24,1.1-2.34,2.06-3.22l6.57-6.1c3.14-2.91,8.06-2.73,10.97.41l19.79,21.32c4.16,4.48,6.33,10.32,6.1,16.43-.23,6.11-2.82,11.77-7.3,15.93-.64.59-1.63.57-2.23-.04-.14-.08-.28-.18-.39-.3-.62-.64-.6-1.66.04-2.28.31-.29.73-.45,1.14-.47,3.39-3.49,5.35-8.06,5.53-12.96.2-5.25-1.67-10.26-5.24-14.11l-19.79-21.32c-1.71-1.84-4.59-1.94-6.43-.24l-6.57,6.1c-.74.69-1.22,1.61-1.37,2.66-.12.81-.85,1.41-1.66,1.37-1.22-.06-2.38.38-3.28,1.21l-6.57,6.1c-.97.9-1.48,2.19-1.42,3.55.02.44-.14.86-.43,1.18-.3.32-.71.5-1.15.51-1.14.02-2.21.44-3.01,1.19l-6.57,6.1c-1.39,1.29-1.82,3.33-1.08,5.09.26.62.11,1.35-.39,1.8l-4.7,4.36c-.89.83-1.4,1.95-1.45,3.16-.05,1.21.39,2.37,1.21,3.26l16.2,17.49c4.99,5.39,12.67,7.2,19.55,4.59.83-.31,1.76.1,2.07.94.31.83-.11,1.76-.94,2.08-2.47.93-5.02,1.38-7.54,1.38Z"/><path d="M79.29,194.97c-.38,0-.76-.13-1.06-.4-.13-.12-13.27-11.94-3.37-25.92.51-.73,1.52-.9,2.24-.38.73.51.9,1.52.38,2.24-8.25,11.64,2.41,21.23,2.87,21.64.67.59.73,1.61.15,2.27-.32.36-.76.55-1.21.55Z"/><path d="M64.59,180.11c-2.06,0-4.1-.54-5.9-1.58-1.63-.94-2.67-2.54-2.86-4.41-.19-1.86.5-3.65,1.9-4.89l22.3-19.84c.5-.45,1.22-.54,1.81-.22l12.03,6.26c.79.41,1.1,1.38.69,2.17-.41.79-1.38,1.1-2.17.68l-11.05-5.75-21.47,19.1c-.62.55-.92,1.34-.84,2.16.08.82.54,1.53,1.26,1.94,1.78,1.02,3.87,1.38,5.89,1l6.08-1.15c.87-.17,1.72.41,1.88,1.28.16.87-.41,1.72-1.28,1.88l-6.08,1.15c-.73.14-1.46.21-2.19.21Z"/><path d="M69.67,161.16c-.44,0-.89-.18-1.2-.54l-7.42-8.34c-.59-.66-.53-1.68.13-2.27.66-.59,1.68-.53,2.27.13l7.42,8.34c.59.66.53,1.68-.13,2.27-.31.27-.69.41-1.07.41Z"/><path d="M57.37,174.12c-.44,0-.89-.18-1.2-.54l-8.22-9.24c-.59-.66-.53-1.68.13-2.27.66-.59,1.68-.53,2.27.13l8.22,9.24c.59.66.53,1.68-.13,2.27-.31.27-.69.41-1.07.41Z"/><path d="M68.74,185.69c-.95,0-1.91-.17-2.84-.52-.83-.32-1.25-1.24-.93-2.08.32-.83,1.25-1.25,2.08-.94,1.66.63,3.52.29,4.85-.89.66-.59,1.68-.53,2.27.13.59.66.53,1.68-.13,2.27-1.49,1.33-3.37,2.02-5.29,2.02Z"/><path d="M47.38,200.99c-.16,0-.32,0-.47-.01-2.12-.12-4.06-1.07-5.47-2.65l-5.38-6.04c-.59-.66-.53-1.68.13-2.27.66-.59,1.68-.53,2.27.13l5.38,6.04c.84.94,2,1.5,3.26,1.58,1.27.09,2.48-.35,3.42-1.19.94-.84,1.5-2,1.58-3.26.07-1.26-.35-2.47-1.19-3.42l-8.18-9.19c-1.51-1.69-3.46-2.92-5.64-3.54-.86-.24-1.35-1.13-1.11-1.99.24-.86,1.13-1.36,1.99-1.11,2.77.79,5.25,2.34,7.16,4.49l8.18,9.19c1.41,1.59,2.12,3.63,2,5.75-.12,2.12-1.07,4.06-2.65,5.48-1.47,1.3-3.32,2.01-5.27,2.01Z"/><path d="M58.91,194.23c-.22,0-.45,0-.67-.02-2.42-.18-4.65-1.28-6.28-3.12l-.61-.68c-.59-.66-.53-1.68.13-2.27.66-.59,1.68-.53,2.27.13l.61.68c1.07,1.2,2.53,1.93,4.11,2.04,1.56.12,3.05-.39,4.2-1.41,1.15-1.02,1.82-2.44,1.89-4.01.07-1.58-.48-3.11-1.55-4.32l-1.62-1.82c-.59-.66-.53-1.68.13-2.27.66-.59,1.68-.53,2.27.13l1.62,1.82c1.63,1.83,2.47,4.18,2.36,6.6-.11,2.44-1.16,4.67-2.96,6.27-1.64,1.46-3.71,2.24-5.9,2.24Z"/></svg>