<?xml version="1.0" encoding="UTF-8"?><svg id="uuid-1626a7b4-19eb-405b-a643-185b831473ab" xmlns="http://www.w3.org/2000/svg" viewBox="0 0 622.66 593.5"><defs><style>.uuid-06236022-3289-46c9-80a0-63b1db191813{fill:#282d33;}.uuid-9db9efd9-66f2-4c2d-b733-873dbb892593{fill:#0e74bb;}.uuid-c4d4c45c-c443-449c-9a6a-bc452f2a1e18{fill:#99b9ff;}.uuid-780e947b-5c0c-418d-8114-d06c9201df81{fill:#fff;}.uuid-6db42578-a408-46be-9ae2-d3b7278e48bc{isolation:isolate;}.uuid-11f62886-7cb9-4450-825a-f403337aad7a{fill:#080717;}.uuid-74735605-1f29-4cac-8999-bfcaa970d753{fill:#1d1d1b;}</style></defs><path class="uuid-9db9efd9-66f2-4c2d-b733-873dbb892593" d="M200.16,57.02c-10.45-32.37-54.23-47.22-97.79-33.15-43.56,14.06-70.39,51.7-59.94,84.08,8.75,27.09,40.83,41.89,76.59,37.77l74.62,126.05-49.94-131.86c41.49-14.9,66.63-51.38,56.46-82.88Z"/><ellipse class="uuid-c4d4c45c-c443-449c-9a6a-bc452f2a1e18" cx="448.68" cy="463.07" rx="84.69" ry="200.22" transform="translate(-184.34 585.67) rotate(-56.87)"/><ellipse class="uuid-c4d4c45c-c443-449c-9a6a-bc452f2a1e18" cx="212.25" cy="430.58" rx="200.22" ry="84.69" transform="translate(-111.05 75.71) rotate(-16.09)"/><ellipse class="uuid-c4d4c45c-c443-449c-9a6a-bc452f2a1e18" cx="322.4" cy="448.27" rx="84.69" ry="136.42" transform="translate(-181.2 674.72) rotate(-78.49)"/><path class="uuid-780e947b-5c0c-418d-8114-d06c9201df81" d="M352.21,338.91l3.61-46.6,77.58,6.01-4.61,59.58c6.93,2.6,13.7,5.4,20.32,8.37-16.57,36.49-47.82,58.43-75.48,50.52-26.92-7.69-41.79-41.17-37.77-79.57,5.42.4,10.88,1,16.36,1.69Z"/><path class="uuid-11f62886-7cb9-4450-825a-f403337aad7a" d="M384.91,420.55c-4.02,0-8-.54-11.89-1.65-27.39-7.83-43.57-41.51-39.35-81.91.12-1.18,1.11-2.05,2.34-1.96,4.28.32,8.95.78,14.19,1.42l3.43-44.31c.04-.58.32-1.12.76-1.49.44-.38,1.01-.56,1.59-.52l77.58,6.01c.58.04,1.12.32,1.49.76.38.44.56,1.01.52,1.59l-4.49,57.94c6.33,2.41,12.69,5.05,18.91,7.84.53.24.95.68,1.15,1.22.21.54.19,1.15-.06,1.68-14.84,32.7-41.26,53.37-66.19,53.37ZM337.82,339.57c-3.24,37.3,11.56,68.02,36.4,75.12,25.42,7.26,55.41-12.58,71.96-47.32-6-2.64-12.1-5.13-18.17-7.42-.91-.34-1.49-1.25-1.41-2.22l4.45-57.4-73.21-5.67-3.44,44.41c-.05.6-.34,1.15-.8,1.53-.46.38-1.06.55-1.66.48-5.22-.66-9.87-1.16-14.11-1.51Z"/><path class="uuid-11f62886-7cb9-4450-825a-f403337aad7a" d="M351.63,346.4l4.19-54.09,49.28,3.82,14.3,19.72c-13.86,19.76-37.8,31.14-67.77,30.56Z"/><path class="uuid-11f62886-7cb9-4450-825a-f403337aad7a" d="M365.33,300.64h0c-41.38-14.96-62.8-60.64-47.84-102.02l1.44-3.99c14.96-41.38,60.64-62.8,102.02-47.84h0c41.38,14.96,62.8,60.64,47.84,102.02l-1.44,3.99c-14.96,41.38-60.64,62.8-102.02,47.84Z"/><path class="uuid-11f62886-7cb9-4450-825a-f403337aad7a" d="M391.87,284.59h0c-34.54-12.49-52.41-50.61-39.92-85.14l4.62-12.79c12.49-34.54,50.61-52.41,85.14-39.92h0c34.54,12.49,52.41,50.61,39.92,85.14l-4.62,12.79c-12.49,34.54-50.61,52.41-85.14,39.92Z"/><path class="uuid-11f62886-7cb9-4450-825a-f403337aad7a" d="M490.47,227.12c-.1,0-.2,0-.3-.02-1.2-.17-2.03-1.27-1.87-2.47,2.71-19.52-1.1-36.21-11.32-49.6-10.79-14.13-28.99-24.09-48.67-26.64-1.2-.16-2.05-1.25-1.89-2.45.15-1.2,1.26-2.06,2.45-1.89,20.82,2.69,40.11,13.28,51.59,28.33,10.96,14.35,15.05,32.13,12.18,52.86-.15,1.09-1.09,1.89-2.17,1.89Z"/><path class="uuid-780e947b-5c0c-418d-8114-d06c9201df81" d="M329.41,211.6l8.78,3.36.16-.44c12.61-34.89,51.12-52.94,86-40.33l3.56,1.29c23.63,8.54,39.53,28.98,43.41,52.11l4.5.26c9.15.53,16.14,8.38,15.6,17.53h0c-.53,9.15-8.38,16.14-17.53,15.61l-5.39-.31c-.09.27-.17.54-.27.81l-8.75,24.19c-12.61,34.89-51.12,52.94-86,40.33l-3.56-1.29c-32.35-11.7-50.21-45.66-42.58-78.36l-9.8-3.75c-8.56-3.27-12.84-12.87-9.57-21.43,3.27-8.56,12.87-12.84,21.43-9.57Z"/><path class="uuid-11f62886-7cb9-4450-825a-f403337aad7a" d="M396.37,332.22c-7.95,0-15.93-1.38-23.63-4.17l-3.56-1.29c-32.44-11.73-51.25-45.47-44.38-79.05l-8.04-3.07c-9.67-3.7-14.53-14.58-10.83-24.25,1.79-4.69,5.3-8.39,9.88-10.44,4.58-2.05,9.68-2.19,14.37-.39l6.71,2.57c6.49-16.65,18.92-29.95,35.16-37.57,16.77-7.87,35.61-8.73,53.03-2.43l3.56,1.29c22.95,8.3,39.87,28.16,44.51,52.08l2.78.16c10.34.6,18.27,9.5,17.66,19.84-.6,10.34-9.48,18.29-19.84,17.66l-3.74-.22-8.48,23.46c-6.3,17.42-19,31.35-35.78,39.21-9.36,4.39-19.36,6.6-29.4,6.6ZM323.48,212.69c-2,0-3.99.42-5.87,1.26-3.51,1.57-6.21,4.41-7.58,8.01-2.84,7.42.89,15.76,8.31,18.6l9.8,3.75c1.02.39,1.6,1.48,1.35,2.54-7.47,32.02,10.23,64.61,41.19,75.8l3.56,1.29c16.33,5.9,33.97,5.09,49.68-2.28,15.71-7.37,27.62-20.42,33.52-36.74l9.01-24.97c.32-.92,1.19-1.52,2.19-1.47l5.39.31c7.96.48,14.75-5.62,15.22-13.54.46-7.93-5.62-14.75-13.55-15.21l-4.5-.26c-1.02-.06-1.86-.82-2.03-1.82-3.88-23.14-19.97-42.45-41.99-50.41l-3.56-1.29c-16.32-5.9-33.96-5.09-49.68,2.28-15.71,7.37-27.62,20.42-33.52,36.74l-.16.44c-.2.55-.61,1-1.15,1.25-.53.24-1.15.26-1.69.05l-8.78-3.36h0c-1.67-.64-3.41-.96-5.15-.96Z"/><path class="uuid-11f62886-7cb9-4450-825a-f403337aad7a" d="M335.23,213.12l-.04.11c13.92-3.52,31.7-26.88,43.03-58.23l.04-.11c-13.92,3.52-31.7,26.88-43.03,58.24Z"/><path class="uuid-11f62886-7cb9-4450-825a-f403337aad7a" d="M470.96,251.69c-.13,0-.26-.01-.4-.04-1.19-.22-1.98-1.36-1.76-2.55,1.98-10.8,12.09-12.9,12.51-12.98,1.19-.23,2.34.54,2.57,1.73.23,1.18-.54,2.33-1.72,2.57-.36.07-7.62,1.69-9.05,9.47-.19,1.06-1.11,1.79-2.15,1.79Z"/><path class="uuid-11f62886-7cb9-4450-825a-f403337aad7a" d="M328.73,236.59c-.17,0-.35-.02-.53-.06-1.17-.29-1.89-1.48-1.6-2.65,1.9-7.72-4.11-12.17-4.37-12.36-.98-.71-1.2-2.07-.5-3.05.7-.98,2.06-1.21,3.04-.51.36.25,8.7,6.31,6.08,16.98-.25,1-1.14,1.67-2.12,1.67Z"/><path class="uuid-11f62886-7cb9-4450-825a-f403337aad7a" d="M372.68,220.62c-.04,2.76-6.28,4.9-13.94,4.78-7.65-.12-13.82-2.46-13.77-5.23.04-2.76,6.28-4.9,13.94-4.78,7.65.12,13.82,2.46,13.77,5.23Z"/><path class="uuid-11f62886-7cb9-4450-825a-f403337aad7a" d="M421.65,236.4c-1.21,2.49-7.77,1.79-14.65-1.55-6.88-3.34-11.49-8.07-10.28-10.55,1.21-2.49,7.77-1.79,14.65,1.55,6.88,3.34,11.49,8.07,10.28,10.55Z"/><path class="uuid-11f62886-7cb9-4450-825a-f403337aad7a" d="M376.54,268.16c-.34,0-.7-.08-1.02-.25-2.8-1.48-4.85-4.09-5.63-7.16-.78-3.07-.22-6.34,1.54-8.97l10.03-15.06c.67-1.01,2.03-1.28,3.03-.61,1.01.67,1.28,2.03.61,3.04l-10.03,15.06c-1.08,1.63-1.42,3.57-.93,5.47.48,1.9,1.7,3.45,3.43,4.36,1.07.56,1.48,1.89.91,2.96-.39.74-1.15,1.17-1.94,1.17Z"/><path class="uuid-11f62886-7cb9-4450-825a-f403337aad7a" d="M385.21,301.85c-3.36,0-6.57-1.32-9.56-3.94-.91-.8-1-2.18-.21-3.09.8-.91,2.18-1,3.09-.21,2.57,2.24,5.15,3.15,7.91,2.77,6.7-.93,12.09-9.14,12.15-9.22.65-1.01,2.01-1.31,3.03-.65,1.02.66,1.31,2.01.65,3.02-.26.41-6.51,9.96-15.21,11.19-.62.09-1.24.13-1.85.13Z"/><path class="uuid-11f62886-7cb9-4450-825a-f403337aad7a" d="M451.89,169.15c11.2,8.89,20.28,18.57,26.33,27.48-1.13,2.22-2.47,4.35-4.06,6.35-7.53,9.48-18.96,14.49-31.63,15.05-6.27-3.52-12.76-7.87-19.16-12.95-25.84-20.51-40.4-45.19-32.52-55.11,7.88-9.92,35.21-1.33,61.05,19.18Z"/><path class="uuid-11f62886-7cb9-4450-825a-f403337aad7a" d="M348.19,170.55c-11.87,7.97-18.3,19.19-19.41,29.9,2.04,1.42,4.24,2.66,6.58,3.67,11.12,4.78,23.56,3.78,34.99-1.73-.35-8.39,9.23-21.3,23.29-28.5,29.37-15.03-9.78-27.28-45.45-3.34Z"/><path class="uuid-11f62886-7cb9-4450-825a-f403337aad7a" d="M402.82,250.44c-1.56,4.41-5.1,7.18-7.9,6.19s-3.82-5.37-2.26-9.78c1.56-4.41,5.1-7.18,7.9-6.19s3.82,5.37,2.26,9.78Z"/><path class="uuid-11f62886-7cb9-4450-825a-f403337aad7a" d="M358.38,243.84c-1.56,4.41-5.1,7.18-7.9,6.19s-3.82-5.37-2.26-9.78c1.56-4.41,5.1-7.18,7.9-6.19,2.81.99,3.82,5.37,2.26,9.78Z"/><path class="uuid-11f62886-7cb9-4450-825a-f403337aad7a" d="M404.04,151.13c-.2,0-.41-.03-.61-.09-1.16-.34-1.83-1.56-1.49-2.72,3.45-11.8,18.42-13.26,19.06-13.32,1.19-.11,2.26.78,2.37,1.98.11,1.2-.78,2.27-1.98,2.38-.13.01-12.64,1.26-15.24,10.18-.28.96-1.15,1.58-2.1,1.58Z"/><path class="uuid-11f62886-7cb9-4450-825a-f403337aad7a" d="M405.05,145.77c-.13,0-.27-.01-.4-.04-1.19-.22-1.97-1.37-1.75-2.56.83-4.43-2.28-5.91-2.64-6.07-1.1-.47-1.63-1.75-1.17-2.86.46-1.11,1.71-1.64,2.83-1.2,2.36.95,6.5,4.45,5.29,10.93-.2,1.05-1.12,1.79-2.15,1.79Z"/><path class="uuid-11f62886-7cb9-4450-825a-f403337aad7a" d="M424.98,215c-.4,0-.81-.11-1.17-.34-17-10.81-27.76-24.83-31.96-41.64-.29-1.17.42-2.36,1.59-2.66,1.17-.29,2.36.42,2.65,1.59,3.92,15.69,14.04,28.82,30.06,39.01,1.02.65,1.32,2,.67,3.02-.42.66-1.12,1.01-1.85,1.01Z"/><polygon class="uuid-11f62886-7cb9-4450-825a-f403337aad7a" points="477.35 210.96 463.84 253.68 456.35 253.04 456.82 198.37 477.35 210.96"/><path class="uuid-06236022-3289-46c9-80a0-63b1db191813" d="M537.32,380.18h-11.93c-2.99,0-5.42-2.44-5.42-5.44v-7.7c0-.84-.79-1.94-1.6-2.21l-3.62-1.49c-.89-.43-2.21-.22-2.8.37l-5.46,5.46c-2.04,2.05-5.64,2.04-7.68,0l-8.43-8.42c-2.12-2.13-2.12-5.58,0-7.69l5.45-5.44c.6-.6.82-1.93.44-2.68l-1.5-3.63c-.32-.94-1.41-1.72-2.26-1.72h-7.71c-3,0-5.44-2.44-5.44-5.44v-11.9c0-3,2.44-5.44,5.44-5.44h7.71c.85,0,1.94-.78,2.2-1.58l1.48-3.62c.44-.9.22-2.22-.37-2.82l-5.45-5.44c-2.12-2.14-2.11-5.58,0-7.69l8.43-8.44c2.12-2.1,5.56-2.1,7.67,0l5.46,5.46c.59.6,1.91.81,2.66.43l3.62-1.51c.96-.32,1.74-1.4,1.74-2.25v-7.7c0-3,2.43-5.45,5.42-5.45h11.93c3,0,5.45,2.44,5.45,5.45v7.7c0,.84.78,1.93,1.57,2.19l3.62,1.51c.9.45,2.21.23,2.82-.38l5.44-5.44c2.14-2.11,5.59-2.11,7.69,0l8.42,8.45c1.01,1,1.58,2.36,1.59,3.81,0,1.46-.56,2.83-1.58,3.87l-5.46,5.45c-.59.59-.8,1.92-.42,2.68l1.49,3.61c.32.95,1.41,1.73,2.27,1.73h7.7c3,0,5.43,2.44,5.43,5.44v11.9c0,3-2.44,5.44-5.43,5.44h-7.7c-.86,0-1.95.78-2.22,1.58l-1.49,3.63c-.44.9-.23,2.24.36,2.83l5.45,5.44c1.02,1.01,1.59,2.38,1.59,3.83,0,1.46-.56,2.83-1.59,3.86l-8.41,8.42c-1.02,1.02-2.38,1.59-3.83,1.59h-.01c-1.46,0-2.82-.56-3.85-1.59l-5.45-5.45c-.61-.6-1.92-.81-2.69-.44l-3.59,1.5c-.94.32-1.73,1.42-1.73,2.26v7.7c0,3-2.44,5.44-5.45,5.44ZM513.71,358.72c1,0,1.98.2,2.85.63l3.35,1.38c2.47.82,4.45,3.56,4.45,6.31v7.7c0,.59.47,1.06,1.04,1.06h11.93c.58,0,1.07-.49,1.07-1.06v-7.7c0-2.75,1.96-5.48,4.57-6.36l3.32-1.39c2.32-1.15,5.64-.61,7.59,1.32l5.46,5.46c.27.27.59.31.76.31h0c.17,0,.48-.04.74-.3l8.42-8.43c.27-.27.31-.59.31-.75s-.04-.48-.3-.74l-5.46-5.45c-1.91-1.91-2.45-5.31-1.25-7.73l1.37-3.35c.79-2.42,3.59-4.44,6.32-4.44h7.7c.58,0,1.05-.48,1.05-1.06v-11.9c0-.58-.48-1.06-1.05-1.06h-7.7c-2.78,0-5.52-1.97-6.38-4.59l-1.38-3.32c-1.16-2.33-.62-5.65,1.31-7.59l5.45-5.45c.27-.27.31-.59.31-.76,0-.16-.04-.47-.3-.73l-8.42-8.45c-.39-.39-1.11-.39-1.51.01l-5.44,5.44c-1.96,1.94-5.28,2.48-7.73,1.25l-3.33-1.38c-2.45-.8-4.42-3.53-4.42-6.29v-7.7c0-.57-.5-1.07-1.07-1.07h-11.93c-.56,0-1.04.49-1.04,1.07v7.7c0,2.72-2.02,5.51-4.6,6.35l-3.32,1.39c-2.29,1.16-5.68.6-7.59-1.32l-5.45-5.45c-.4-.4-1.09-.4-1.49,0l-8.43,8.43c-.4.4-.4,1.09,0,1.5l5.44,5.44c1.94,1.95,2.49,5.27,1.26,7.73l-1.37,3.33c-.81,2.47-3.55,4.44-6.31,4.44h-7.71c-.57,0-1.06.49-1.06,1.06v11.9c0,.57.48,1.06,1.06,1.06h7.71c2.71,0,5.5,2.01,6.36,4.57l1.38,3.35c1.14,2.27.59,5.67-1.32,7.59l-5.45,5.45c-.4.4-.4,1.09,0,1.5l8.43,8.42c.27.27.58.31.74.31s.48-.04.74-.3l5.46-5.46c1.21-1.23,3.05-1.9,4.86-1.9ZM531.36,346.06c-9.87,0-17.89-8.02-17.89-17.89s8.03-17.89,17.89-17.89,17.88,8.03,17.88,17.89-8.02,17.89-17.88,17.89ZM531.36,314.67c-7.45,0-13.51,6.06-13.51,13.51s6.06,13.51,13.51,13.51,13.5-6.06,13.5-13.51-6.06-13.51-13.5-13.51Z"/><path class="uuid-11f62886-7cb9-4450-825a-f403337aad7a" d="M25.44,301.05l-4.38-.09s.02-.84.15-2.32l4.36.38c-.11,1.26-.13,1.99-.13,2.03Z"/><path class="uuid-11f62886-7cb9-4450-825a-f403337aad7a" d="M26.1,294.74l-4.33-.68c.21-1.36.49-2.88.85-4.54l4.28.93c-.34,1.56-.6,3-.8,4.28ZM27.96,286.22l-4.22-1.17c.39-1.41.84-2.89,1.36-4.41l4.14,1.41c-.49,1.44-.91,2.83-1.28,4.16ZM30.76,277.98l-4.05-1.66c.57-1.39,1.19-2.8,1.87-4.22l3.95,1.9c-.65,1.34-1.23,2.67-1.76,3.98ZM34.53,270.15l-3.82-2.15c.76-1.35,1.57-2.69,2.4-3.96l3.67,2.39c-.78,1.19-1.53,2.44-2.25,3.71ZM39.26,262.9l-3.49-2.64c.93-1.23,1.91-2.44,2.93-3.6l3.3,2.88c-.94,1.08-1.86,2.21-2.73,3.36ZM44.95,256.39l-3.08-3.11c1.1-1.09,2.25-2.15,3.42-3.14l2.84,3.33c-1.08.92-2.15,1.9-3.18,2.92ZM51.51,250.79l-2.6-3.53c1.24-.91,2.53-1.79,3.83-2.61l2.34,3.7c-1.21.77-2.41,1.58-3.57,2.43ZM58.81,246.17l-2.07-3.86c1.34-.72,2.73-1.41,4.14-2.05l1.81,3.99c-1.32.6-2.62,1.25-3.88,1.92ZM66.7,242.58l-1.56-4.09c1.41-.53,2.86-1.04,4.35-1.51l1.31,4.18c-1.41.44-2.78.92-4.11,1.42Z"/><path class="uuid-11f62886-7cb9-4450-825a-f403337aad7a" d="M75.05,239.96l-1.07-4.25c.72-.18,1.45-.35,2.19-.52l.96,4.27c-.7.16-1.39.32-2.08.5Z"/><g class="uuid-6db42578-a408-46be-9ae2-d3b7278e48bc"><path class="uuid-74735605-1f29-4cac-8999-bfcaa970d753" d="M2.19,338.22c-.86,0-1.64-.5-1.99-1.28-.36-.79-.22-1.72.36-2.36l18.57-20.85c.41-.46,1-.73,1.61-.73l35.51-.39c.93-.03,1.66.49,2.02,1.28.36.79.22,1.72-.36,2.36l-18.57,20.85c-.41.46-1,.73-1.61.73l-35.51.39h-.02ZM21.75,317.36l-14.63,16.43,29.59-.32,14.63-16.43-29.59.32Z"/><path class="uuid-74735605-1f29-4cac-8999-bfcaa970d753" d="M48.02,371.16c-.15,0-.31-.02-.46-.05-.77-.17-1.39-.74-1.63-1.49l-10.32-33.33c-.23-.73-.05-1.53.46-2.1l18.57-20.85c.53-.59,1.32-.86,2.1-.68.77.17,1.39.74,1.63,1.49l10.32,33.33c.23.73.05,1.53-.46,2.1l-18.57,20.85c-.42.47-1.02.73-1.64.73ZM40.16,336.17l8.8,28.44,15.17-17.03-8.81-28.44-15.16,17.03Z"/><path class="uuid-74735605-1f29-4cac-8999-bfcaa970d753" d="M12.51,371.55c-.96,0-1.81-.62-2.09-1.54L.1,336.68c-.21-.66-.09-1.38.32-1.94.41-.56,1.05-.89,1.75-.9l35.51-.39h.02c.96,0,1.81.62,2.09,1.54l10.32,33.33c.21.66.09,1.38-.32,1.94-.41.56-1.06.89-1.75.9l-35.51.39h-.02ZM5.15,338.19l8.97,28.96,30.94-.34-8.96-28.96-30.95.34Z"/></g><path class="uuid-74735605-1f29-4cac-8999-bfcaa970d753" d="M115.12,500.42c-10.96,2.59-30.03-16.32-42.59-42.25-12.56-25.92-13.85-49.04-2.89-51.63,10.96-2.59,30.03,16.32,42.59,42.25,12.56,25.92,13.85,49.04,2.89,51.63Z"/><path class="uuid-780e947b-5c0c-418d-8114-d06c9201df81" d="M190.33,335.79h0c-1.07-2.55-.88-5.45.51-7.84l16.45-24.57,5.19-12.54-64.91-13.59-41.8,100.77h0c-14.18,11.94-36.58,31.35-36.58,31.35h0c-5.13,20.48,28.04,49.6,31.85,43.59l39.06-38.36,66.43-31.35,24.63-63.45-27.63,19.73c-4.59,3.28-11.03,1.45-13.22-3.74Z"/><path d="M99.36,455.95c-.98,0-2.2-.25-3.7-.89-10.46-4.48-33.21-27.77-28.59-46.22.11-.44.35-.83.69-1.12.22-.19,22.14-19.18,36.19-31.03l41.6-100.28c.4-.97,1.43-1.52,2.47-1.3l64.91,13.59c.64.13,1.18.54,1.49,1.12.31.58.34,1.26.09,1.86l-5.19,12.54c-.06.13-.12.26-.2.38l-16.45,24.57c-.97,1.67-1.11,3.87-.31,5.77h0c.78,1.86,2.35,3.24,4.29,3.79,1.94.55,4,.19,5.64-.98l27.63-19.73c.79-.56,1.85-.54,2.62.05.77.59,1.05,1.62.7,2.52l-24.63,63.45c-.2.52-.6.95-1.11,1.19l-66.1,31.19-38.66,37.96c-.55.74-1.57,1.57-3.37,1.57ZM71.17,410.56c-2.13,10.47,6.69,23.74,15.04,32.05,6.66,6.63,11.78,9.07,13.13,8.98.05-.07.11-.13.17-.18l39.07-38.36c.17-.17.38-.31.6-.42l65.64-30.98,21.66-55.79-21.66,15.47c-2.73,1.95-6.14,2.55-9.38,1.63-3.23-.91-5.83-3.21-7.13-6.31h0c-1.33-3.17-1.09-6.83.64-9.8l16.4-24.51,4.1-9.9-60.55-12.67-41.11,99.09c-.13.32-.34.61-.61.84-12.79,10.77-32.5,27.82-36.01,30.86Z"/><path class="uuid-74735605-1f29-4cac-8999-bfcaa970d753" d="M213.92,481.72c-9.06.13-16.39-7.32-16.12-16.38l5.52-185.28c-.01-8.54,7.15-15.34,15.68-14.88l80.81,4.36c8.41.45,14.76,7.79,14.02,16.17l-9.62,179.88c-.45,8.35-7.29,14.93-15.66,15.05l-74.63,1.06Z"/><path class="uuid-74735605-1f29-4cac-8999-bfcaa970d753" d="M377.43,513.79c7.53,5.27,26.58-8.87,42.55-31.58,15.97-22.72,22.82-45.41,15.29-50.68-7.53-5.27-26.58,8.87-42.55,31.58-15.97,22.72-22.82,45.41-15.29,50.68Z"/><path class="uuid-780e947b-5c0c-418d-8114-d06c9201df81" d="M422.52,417.09l-75.31-80.62-71-7.96h0c-1.68,8.94,3.92,17.62,12.75,19.8l40.5,7.08,9.46,12.94-67.68-11.45-56.73-3.48h0c-.57,9.14,5.66,17.3,14.63,19.16l13.24,2.74-20.54-.6c-2.72-.08-5.04,1.97-5.29,4.68h0c-.46,4.87,2.57,9.4,7.25,10.84l21.08,6.49h0c4.41,9.76,12.99,16.99,23.35,19.69l19.95,5.19,31.1,17.93c20.06,11.57,42.78,17.74,65.94,17.9h0l8.46,21.4h0c14.54,0,27.58-8.96,32.79-22.53l8.26-21.51-12.19-17.67Z"/><path class="uuid-11f62886-7cb9-4450-825a-f403337aad7a" d="M393.65,480.98c-.9,0-1.71-.55-2.04-1.38l-7.92-20.03c-22.98-.41-45.61-6.68-65.54-18.17l-30.84-17.78-19.66-5.12c-10.73-2.79-19.56-10.06-24.37-20l-20.15-6.2c-5.64-1.73-9.34-7.26-8.78-13.14.36-3.85,3.68-6.8,7.53-6.66l.98.03c-6.76-3.78-11.06-11.23-10.55-19.27.07-1.21,1.08-2.15,2.32-2.05l56.73,3.48c.08,0,.15.01.23.03l62.37,10.55-5.75-7.88-39.63-6.92c-10.09-2.48-16.41-12.29-14.52-22.36.21-1.13,1.24-1.9,2.4-1.77l71,7.96c.52.06,1,.3,1.36.68l75.31,80.62c.07.08.14.16.2.25l12.19,17.67c.41.59.5,1.35.24,2.03l-8.26,21.51c-5.5,14.32-19.5,23.93-34.84,23.93ZM221.68,376.87c-1.52,0-2.81,1.17-2.96,2.69-.36,3.82,2.04,7.41,5.71,8.54l21.08,6.49c.6.18,1.09.62,1.35,1.19,4.15,9.2,12.14,15.93,21.9,18.47l19.95,5.19c.19.05.37.12.54.22l31.1,17.93c19.7,11.36,42.13,17.45,64.86,17.61.89,0,1.69.55,2.02,1.38l7.9,19.98c12.95-.59,24.59-8.92,29.27-21.09l7.85-20.43-11.44-16.58-74.65-79.91-68.03-7.63c-.35,7.04,4.33,13.52,11.36,15.25l40.35,7.05c.56.1,1.06.41,1.39.87l9.45,12.94c.53.72.56,1.69.09,2.44-.47.76-1.34,1.16-2.23,1.01l-67.56-11.43-54.28-3.33c.53,7.1,5.75,13.21,12.87,14.68l13.24,2.74c1.11.23,1.86,1.27,1.73,2.4-.13,1.13-1.07,2.02-2.24,1.93l-20.54-.6s-.06,0-.09,0Z"/><polygon class="uuid-74735605-1f29-4cac-8999-bfcaa970d753" points="326.99 392.35 271.9 379.94 236.22 376.97 236.58 372.6 272.71 375.64 327.95 388.08 326.99 392.35"/><polygon class="uuid-74735605-1f29-4cac-8999-bfcaa970d753" points="321.39 413.22 276.35 400.35 244.76 398.87 244.96 394.49 277.31 396.07 322.6 409.01 321.39 413.22"/><polygon class="uuid-74735605-1f29-4cac-8999-bfcaa970d753" points="157.77 318.14 153.79 316.31 160.11 302.58 214.28 309.41 213.73 313.76 162.74 307.33 157.77 318.14"/><path class="uuid-74735605-1f29-4cac-8999-bfcaa970d753" d="M144.89,346.55l-4.08-1.58,4.54-11.74,21.84.74c7.28-.75,13.94-4.5,18.39-10.22l-53.96-7.01.56-4.34,60.76,7.89-1.68,2.86c-5.03,8.55-13.92,14.23-23.79,15.19h-.14s-19.02-.63-19.02-.63l-3.42,8.83Z"/><rect class="uuid-74735605-1f29-4cac-8999-bfcaa970d753" x="168.81" y="310.89" width="12.76" height="4.38" transform="translate(-179.46 367.22) rotate(-69.45)"/><path class="uuid-74735605-1f29-4cac-8999-bfcaa970d753" d="M138.98,405.14l-3.21-2.98c6.49-7.01,11.11-15.62,13.36-24.91,2.59-10.69-.21-22.09-7.48-30.49l3.31-2.87c8.2,9.47,11.35,22.33,8.43,34.39-2.42,10.01-7.41,19.3-14.41,26.85Z"/><path class="uuid-11f62886-7cb9-4450-825a-f403337aad7a" d="M573.93,513.29c-.35,0-.72-.09-1.05-.27l-139.22-76.35c-1.06-.58-1.45-1.91-.87-2.97.58-1.06,1.91-1.45,2.97-.87l139.22,76.35c1.06.58,1.45,1.91.87,2.97-.4.73-1.15,1.14-1.92,1.14Z"/><path class="uuid-06236022-3289-46c9-80a0-63b1db191813" d="M242.14,259.53l-20.74-19.49h-109.37c-18.61,0-33.76-15.14-33.76-33.75s15.14-33.76,33.76-33.76h124.6c18.61,0,33.76,15.14,33.76,33.76,0,16.67-12.01,30.66-28.24,33.31v19.94ZM112.03,176.91c-16.2,0-29.38,13.18-29.38,29.38s13.18,29.38,29.38,29.38h111.11l14.63,13.74v-13.7l1.96-.21c14.98-1.57,26.28-14.13,26.28-29.21,0-16.2-13.18-29.38-29.38-29.38h-124.6Z"/><rect class="uuid-06236022-3289-46c9-80a0-63b1db191813" x="116.18" y="197.45" width="116.3" height="4.38"/><rect class="uuid-06236022-3289-46c9-80a0-63b1db191813" x="116.18" y="210.74" width="116.3" height="4.38"/><path class="uuid-11f62886-7cb9-4450-825a-f403337aad7a" d="M122.17,94.6l-1.3.45c-5.04,1.73-10.53-.98-12.23-6.04L83.89,15.1c-1.89-5.63,1.74-11.6,7.6-12.54L106.79.12c5.3-.84,10.27,2.82,11.02,8.14l10.75,75.9c.65,4.56-2.04,8.94-6.4,10.44Z"/><path class="uuid-11f62886-7cb9-4450-825a-f403337aad7a" d="M133.38,124.93l-4.21,1.1c-4.91,1.28-9.97-1.49-11.55-6.31h0c-1.58-4.85.89-10.08,5.64-11.94l3.98-1.55c4.6-1.79,9.81.19,12.05,4.6l.23.46c2.78,5.47-.21,12.11-6.14,13.65Z"/><path class="uuid-11f62886-7cb9-4450-825a-f403337aad7a" d="M194.46,155.4c-.8,0-1.54-.44-1.92-1.14l-4.42-8.09-8.09-4.42c-.7-.38-1.14-1.12-1.14-1.92s.44-1.54,1.14-1.92l8.09-4.42,4.42-8.09c.38-.7,1.12-1.14,1.92-1.14h0c.8,0,1.54.44,1.92,1.14l4.42,8.09,8.09,4.42c.7.38,1.14,1.12,1.14,1.92s-.44,1.54-1.14,1.92l-8.09,4.42-4.42,8.09c-.38.7-1.12,1.14-1.92,1.14ZM185.64,139.83l5.14,2.81c.37.2.67.5.87.87l2.81,5.14,2.81-5.14c.2-.37.5-.67.87-.87l5.14-2.81-5.14-2.81c-.37-.2-.67-.5-.87-.87l-2.81-5.14-2.81,5.14c-.2.37-.5.67-.87.87l-5.14,2.81Z"/></svg>
