<svg width="99" height="28" viewBox="0 0 99 28" fill="none" xmlns="http://www.w3.org/2000/svg">
<path d="M25.6338 0H30.169V28H25.6338V0Z" fill="white"/>
<path d="M45.9435 19.1266C45.9435 23.4647 42.3942 23.859 41.2111 23.859C38.4506 23.859 38.0562 21.2957 38.0562 19.9154V9.07031H33.521V19.7182C33.521 22.2816 34.3097 24.6478 35.8872 26.0281C37.2675 27.4083 39.0421 27.9999 41.2111 27.9999C42.7886 27.9999 44.7604 27.6055 45.9435 26.4224V27.9999H50.4787V9.07031H45.9435V19.1266Z" fill="white"/>
<path d="M59.3522 2.16895H54.817V9.07035H51.4648V13.4084H54.817V27.9999H59.3522V13.4084H62.7043V9.07035H59.3522V2.16895Z" fill="white"/>
<path d="M76.9016 22.2814C75.9157 23.0701 74.5354 23.6617 73.1551 23.6617C70.0002 23.6617 67.8312 21.2955 67.8312 18.1406C67.8312 14.9856 70.0002 12.8166 73.1551 12.8166C74.5354 12.8166 75.9157 13.211 76.9016 14.1969L77.4932 14.7885L80.6481 11.8307L79.8594 11.2392C78.0847 9.66169 75.7185 8.67578 73.1551 8.67578C67.634 8.67578 63.4932 12.8166 63.4932 18.3378C63.4932 23.8589 67.634 27.9997 73.1551 27.9997C75.7185 27.9997 78.0847 27.0138 79.8594 25.4363L80.6481 24.8448L77.4932 21.6899L76.9016 22.2814Z" fill="white"/>
<path d="M96.6197 10.6479C95.2394 9.26761 93.8591 8.67606 91.6901 8.67606C90.1127 8.67606 88.5352 9.07042 87.3521 10.2535V0H82.8169V28H87.3521V17.5493C87.3521 13.2113 90.3099 12.8169 91.4929 12.8169C94.2535 12.8169 94.0563 15.3803 94.0563 16.7606V27.8028H98.5915V16.9578C98.5915 14.3944 98 12.0282 96.6197 10.6479Z" fill="white"/>
<path d="M72.9577 21.4925C74.7001 21.4925 76.1126 20.08 76.1126 18.3375C76.1126 16.5951 74.7001 15.1826 72.9577 15.1826C71.2152 15.1826 69.8027 16.5951 69.8027 18.3375C69.8027 20.08 71.2152 21.4925 72.9577 21.4925Z" fill="white"/>
<path d="M19.3239 21.0979C17.7465 22.6754 15.3803 23.6613 12.8169 23.6613C7.88732 23.6613 4.33803 19.7177 4.33803 14.3937C4.33803 9.06977 7.88732 5.1261 13.0141 5.1261C15.3803 5.1261 17.7465 6.11202 19.5211 7.88667L20.1127 8.47822L23.0704 5.52047L22.4789 4.92892C19.9155 2.36554 16.5634 0.985258 13.0141 0.985258C5.52113 0.788075 0 6.70357 0 14.3937C0 22.0839 5.52113 27.9993 12.8169 27.9993C16.3662 27.9993 19.9155 26.6191 22.2817 24.0557L22.8732 23.4641L19.9155 20.5064L19.3239 21.0979Z" fill="white"/>
</svg>
