<?xml version="1.0" encoding="utf-8"?>
<!-- Generator: Adobe Illustrator 27.5.0, SVG Export Plug-In . SVG Version: 6.00 Build 0)  -->
<svg version="1.1" id="Layer_1" xmlns="http://www.w3.org/2000/svg" xmlns:xlink="http://www.w3.org/1999/xlink" x="0px" y="0px"
	 viewBox="0 0 3824.817 5000" style="enable-background:new 0 0 3824.817 5000;" xml:space="preserve">
<g>
	<rect x="0" style="fill:#FFFFFF;" width="3824.817" height="5000"/>
	<g>
		<path style="fill:#FEFDE2;" d="M3303.778,2888.989c-9.865-35.736-65.614-145.415-73.722-171.496
			c-8.108-26.091-38.184-32.188-66.33-15.465c-4.432,2.631-31.819,17.576-69.512,38.136c1.266,41.028,1.354,120.287-16.783,122.878
			c-18.386,2.628-74.209-38.094-100.941-58.598c-75.464,41.342-148.085,81.536-162.225,91.061
			c-44.27,29.814-21.652,79.185-13.442,102.936c0,0,43.737,111.893,58.724,140.642c14.978,28.748,42.735,34.745,75.67,16.066
			c32.939-18.679,143.608-79.082,143.608-79.082l61.895,37.077l-27.32-55.421c0,0,129.649-73.277,153.733-88.482
			C3291.219,2954.035,3313.645,2924.724,3303.778,2888.989z"/>
		<path style="fill:#FEFDE2;" d="M2760.815,1549.611c75.221-13.585,117.723-51.564,119.468-104.146
			c1.729-52.589-87.458-743.988-96.865-825.847c-9.395-81.843-90.206-82.889-133.045-76.628
			c-42.855,6.264-1770.812,224.018-1832.468,242.484c-61.648,18.446-89.16,82.541-87.075,131.999
			c2.099,49.466,52.816,777.831,72.833,855.102c17.763,68.622,80.102,78.357,144.183,70.7
			C967.209,1840.972,2727.89,1555.552,2760.815,1549.611z"/>
		<polygon style="fill:#FFFFFF;" points="1150.417,1835.652 1015.075,803.598 2538.355,526.474 2669.632,1499.025 		"/>
		<polygon style="fill:#3C8CAF;" points="1174.92,1802.397 1036.076,775.596 2519.104,482.717 2652.121,1501.356 		"/>
		
			<path style="fill:#1B0242;stroke:#1B0242;stroke-width:7.001;stroke-linecap:round;stroke-linejoin:round;stroke-miterlimit:10;" d="
			M1336.605,1319.414c22.063-5.88,975.586-230.99,1025.204-241.321c41.083-8.561,54.771,20.537,59.904,44.495
			c3.248,15.157,20.354,124.964,25.672,172.87c3.427,30.807-13.686,56.48-46.211,63.323
			c-23.504,4.95-819.035,196.246-819.035,196.246l11.67,60.677l-49.869-52.145c0,0-148.62,35.661-159.415,38.259
			c-42.786,10.269-63.323-11.979-68.458-47.926c-8.799-61.587-13.694-106.108-22.247-166.013
			C1287.175,1341.353,1310.933,1326.264,1336.605,1319.414z"/>
		<path style="fill:#00D6A1;" d="M2464.847,2619.761c0,0,1.75-86.932-5.25-103.266c-7.001-16.333-21.005-116.678-21.005-116.678
			l23.342-95.682l-105.013-116.685c0,0,66.344,0.013,100.352-28.004c34.005-28.018,21.002-340.715-2.339-361.719
			c-23.341-21.002-249.696-63.001-334.885-79.341c-26.252-31.504-64.177-37.343-64.177-37.343l-47.839,86.35l-17.502-49.007
			c0,0-157.521,110.846-164.522,136.519c-7.001,25.672-50.169,87.52-50.169,87.52l15.165,145.263L1756,2486.166l-42.005,11.664
			c0,0-152.852,186.68-120.179,212.355c20.682,16.249,92.181,16.961,270.706,51.351c103.503,19.936,372.889,39.817,403.724,46.667
			c84.012,18.673,214.104-45.505,228.106-67.677C2513.299,2713.684,2464.847,2619.761,2464.847,2619.761z M1970.689,1961.082
			l3.509,403.725l-134.187,148.188l4.662-256.703l100.351-301.041l12.841-87.505c0,0,23.914-9.339,37.916-5.838
			c14.002,3.5,29.763,40.837,29.763,40.837L1970.689,1961.082z"/>
		<path style="fill:#FFCCB3;" d="M2823.646,2511.832l123.105,134.189c0,0,2.911,64.75,30.917,119.008
			c3.471,6.727,57.578,61.142,89.26,71.76c25.284,8.472,28.688-23.102,36.169-40.249c16.845-38.641-60.459-132.936-119.516-194.878
			c-41.063-43.064-120.263-159.838-120.263-159.838L2823.646,2511.832z"/>
		
			<path style="fill:#FFFFFF;stroke:#1B0242;stroke-width:7.001;stroke-linecap:round;stroke-linejoin:round;stroke-miterlimit:10;" d="
			M1315.602,1298.411c22.063-5.88,975.588-230.991,1025.203-241.322c41.082-8.559,54.771,20.539,59.905,44.495
			c3.248,15.157,20.354,124.964,25.672,172.87c3.427,30.807-13.687,56.479-46.21,63.323
			c-23.505,4.949-819.037,196.246-819.037,196.246l11.67,60.678l-49.868-52.146c0,0-148.62,35.661-159.416,38.259
			c-42.785,10.269-63.323-11.978-68.457-47.926c-8.799-61.586-13.694-106.108-22.248-166.013
			C1266.172,1320.35,1289.93,1305.261,1315.602,1298.411z"/>
		<path style="fill:none;stroke:#1B0242;stroke-width:7.001;stroke-linecap:round;stroke-linejoin:round;stroke-miterlimit:10;" d="
			M3058.76,2717.191c0,0,78.917-51.459,94.039-60.137c36.399-20.88,58.436,2.537,70.75,23.716
			c7.793,13.402,58.119,112.481,78.034,156.374c12.813,28.223,4.514,57.941-24.284,74.536
			c-20.811,11.999-157.855,103.059-157.855,103.059l29.917,54.059l-63.581-34.096c0,0-130.223,80.007-139.686,85.825
			c-37.485,23.032-63.911,8.259-79.942-24.326c-27.472-55.816-45.938-96.626-72.656-150.916
			c-20.751-42.172-2.845-63.886,19.438-78.358c6.748-4.383,148.982-91.39,148.982-91.39"/>
		<path style="fill:#F8888A;" d="M2711.632,4357.748c-10.504-14.003,84.01-35.004,105.014-49.006
			c21.003-14.003,42.005-105.016,42.005-105.016l-161.021-245.034l38.506-31.503c0,0,147.021,217.028,171.522,248.533
			c24.503,31.504,63.008,77.01,63.008,77.01l-38.505,38.506l-38.506-49.006c0,0-28.002,63.008-45.505,94.512
			C2830.646,4368.249,2722.133,4371.749,2711.632,4357.748z"/>
		<polygon style="fill:#FF354D;" points="2855.149,4181.555 2890.154,4132.547 2722.133,3908.517 2690.627,3929.521 		"/>
		<path style="fill:#F8888A;" d="M807.377,4077.717c11.677-13.995,87.505,84.004,108.508,98.006
			c21.003,14.002,98.014,21.003,126.018-7c28.003-28.004,154.021-189.027,154.021-189.027l17.502-17.503l31.504,7.002
			l-224.031,371.05l-49.007-49.006l42.006-59.508c0,0-93.111,11.403-117.841-9.332
			C859.891,4192.063,796.595,4090.639,807.377,4077.717z"/>
		<path style="fill:#FF354D;" d="M1003.396,4196.726c0,0,39.675,31.505,88.682,28.003l149.351-259.035l-30.335,4.669
			l-116.685,149.353C1094.41,4119.715,1041.902,4196.726,1003.396,4196.726z"/>
		<g>
			<g>
				
					<path style="fill:#1B0242;stroke:#1B0242;stroke-width:7.001;stroke-linecap:round;stroke-linejoin:round;stroke-miterlimit:10;" d="
					M2737.918,3976.264c-3.891-1.962-8.641-0.39-10.611,3.516c-1.954,3.896-0.375,8.654,3.521,10.608
					c3.905,1.963,8.649,0.383,10.611-3.514C2743.4,3982.97,2741.829,3978.219,2737.918,3976.264z"/>
				
					<path style="fill:#1B0242;stroke:#1B0242;stroke-width:7.001;stroke-linecap:round;stroke-linejoin:round;stroke-miterlimit:10;" d="
					M2752.823,3946.592c-3.897-1.956-8.648-0.383-10.611,3.52c-1.955,3.904-0.377,8.65,3.514,10.605
					c3.911,1.97,8.65,0.39,10.611-3.515C2758.299,3953.305,2756.726,3948.561,2752.823,3946.592z"/>
				
					<path style="fill:#1B0242;stroke:#1B0242;stroke-width:7.001;stroke-linecap:round;stroke-linejoin:round;stroke-miterlimit:10;" d="
					M2708.116,4035.587c-3.891-1.948-8.649-0.375-10.604,3.521c-1.962,3.903-0.39,8.655,3.516,10.609
					c3.896,1.955,8.647,0.385,10.604-3.513C2713.592,4042.307,2712.027,4037.549,2708.116,4035.587z"/>
				
					<path style="fill:#1B0242;stroke:#1B0242;stroke-width:7.001;stroke-linecap:round;stroke-linejoin:round;stroke-miterlimit:10;" d="
					M2723.021,4005.936c-3.904-1.962-8.65-0.396-10.619,3.508c-1.956,3.903-0.383,8.648,3.521,10.604
					c3.904,1.969,8.655,0.389,10.611-3.501C2728.496,4012.637,2726.924,4007.891,2723.021,4005.936z"/>
			</g>
			<g>
				
					<path style="fill:#1B0242;stroke:#1B0242;stroke-width:7.001;stroke-linecap:round;stroke-linejoin:round;stroke-miterlimit:10;" d="
					M2756.016,4001.272c-3.891-1.956-8.648-0.381-10.604,3.521c-1.962,3.904-0.382,8.655,3.515,10.605
					c3.911,1.962,8.648,0.39,10.609-3.516C2761.491,4007.979,2759.926,4003.234,2756.016,4001.272z"/>
				
					<path style="fill:#1B0242;stroke:#1B0242;stroke-width:7.001;stroke-linecap:round;stroke-linejoin:round;stroke-miterlimit:10;" d="
					M2770.928,3971.606c-3.898-1.955-8.649-0.389-10.611,3.522c-1.963,3.897-0.383,8.647,3.513,10.611
					c3.906,1.955,8.649,0.382,10.612-3.522C2776.396,3978.314,2774.831,3973.57,2770.928,3971.606z"/>
				
					<path style="fill:#1B0242;stroke:#1B0242;stroke-width:7.001;stroke-linecap:round;stroke-linejoin:round;stroke-miterlimit:10;" d="
					M2726.221,4060.603c-3.898-1.954-8.655-0.382-10.612,3.515c-1.961,3.905-0.381,8.654,3.517,10.611
					c3.902,1.956,8.646,0.389,10.609-3.514C2731.696,4067.317,2730.124,4062.572,2726.221,4060.603z"/>
				
					<path style="fill:#1B0242;stroke:#1B0242;stroke-width:7.001;stroke-linecap:round;stroke-linejoin:round;stroke-miterlimit:10;" d="
					M2741.126,4030.944c-3.899-1.961-8.657-0.389-10.619,3.507c-1.956,3.906-0.383,8.664,3.521,10.618
					c3.905,1.963,8.648,0.384,10.611-3.515C2746.593,4037.651,2745.021,4032.9,2741.126,4030.944z"/>
			</g>
			<g>
				
					<path style="fill:#1B0242;stroke:#1B0242;stroke-width:7.001;stroke-linecap:round;stroke-linejoin:round;stroke-miterlimit:10;" d="
					M2786.898,4000.862c-3.905-1.955-8.649-0.39-10.611,3.515c-1.963,3.896-0.396,8.647,3.514,10.609
					c3.897,1.963,8.656,0.386,10.611-3.513C2792.366,4007.57,2790.796,4002.817,2786.898,4000.862z"/>
				
					<path style="fill:#1B0242;stroke:#1B0242;stroke-width:7.001;stroke-linecap:round;stroke-linejoin:round;stroke-miterlimit:10;" d="
					M2801.796,3971.191c-3.905-1.956-8.648-0.378-10.605,3.526c-1.961,3.898-0.395,8.643,3.515,10.611
					c3.896,1.948,8.643,0.383,10.611-3.526C2807.271,3977.906,2805.699,3973.145,2801.796,3971.191z"/>
				
					<path style="fill:#1B0242;stroke:#1B0242;stroke-width:7.001;stroke-linecap:round;stroke-linejoin:round;stroke-miterlimit:10;" d="
					M2757.089,4060.192c-3.904-1.962-8.655-0.382-10.611,3.515c-1.954,3.903-0.382,8.656,3.514,10.611
					c3.898,1.961,8.656,0.383,10.611-3.514C2762.564,4066.907,2760.985,4062.148,2757.089,4060.192z"/>
				
					<path style="fill:#1B0242;stroke:#1B0242;stroke-width:7.001;stroke-linecap:round;stroke-linejoin:round;stroke-miterlimit:10;" d="
					M2771.993,4030.535c-3.905-1.97-8.648-0.397-10.611,3.508c-1.954,3.902-0.382,8.647,3.514,10.61
					c3.899,1.962,8.657,0.382,10.612-3.509C2777.471,4037.242,2775.891,4032.49,2771.993,4030.535z"/>
			</g>
			<g>
				
					<path style="fill:#1B0242;stroke:#1B0242;stroke-width:7.001;stroke-linecap:round;stroke-linejoin:round;stroke-miterlimit:10;" d="
					M2804.988,4025.873c-3.897-1.957-8.643-0.384-10.596,3.52c-1.971,3.904-0.391,8.649,3.512,10.611
					c3.892,1.955,8.643,0.382,10.598-3.52C2810.471,4032.586,2808.893,4027.833,2804.988,4025.873z"/>
				
					<path style="fill:#1B0242;stroke:#1B0242;stroke-width:7.001;stroke-linecap:round;stroke-linejoin:round;stroke-miterlimit:10;" d="
					M2819.899,3996.214c-3.904-1.969-8.647-0.396-10.61,3.513c-1.964,3.897-0.39,8.643,3.513,10.611
					c3.897,1.956,8.649,0.384,10.611-3.521C2825.377,4002.914,2823.797,3998.169,2819.899,3996.214z"/>
				
					<path style="fill:#1B0242;stroke:#1B0242;stroke-width:7.001;stroke-linecap:round;stroke-linejoin:round;stroke-miterlimit:10;" d="
					M2775.192,4085.202c-3.911-1.961-8.654-0.376-10.61,3.514c-1.955,3.904-0.39,8.65,3.514,10.612
					c3.897,1.961,8.65,0.396,10.611-3.515C2780.662,4091.917,2779.09,4087.165,2775.192,4085.202z"/>
				
					<path style="fill:#1B0242;stroke:#1B0242;stroke-width:7.001;stroke-linecap:round;stroke-linejoin:round;stroke-miterlimit:10;" d="
					M2790.097,4055.544c-3.91-1.97-8.654-0.39-10.617,3.508c-1.954,3.904-0.39,8.654,3.521,10.616
					c3.898,1.956,8.649,0.384,10.611-3.515C2795.566,4062.25,2793.995,4057.499,2790.097,4055.544z"/>
			</g>
		</g>
		
			<path style="fill:#1B0242;stroke:#1B0242;stroke-width:7.001;stroke-linecap:round;stroke-linejoin:round;stroke-miterlimit:10;" d="
			M1601.979,2404.48c-3.897-1.955-8.649-0.383-10.61,3.521c-1.956,3.904-0.376,8.649,3.514,10.604
			c3.911,1.969,8.649,0.389,10.611-3.514C1607.455,2411.194,1605.882,2406.45,1601.979,2404.48z"/>
		
			<path style="fill:#1B0242;stroke:#1B0242;stroke-width:7.001;stroke-linecap:round;stroke-linejoin:round;stroke-miterlimit:10;" d="
			M1829.557,2568.941c-3.897-1.956-8.648-0.391-10.61,3.521c-1.962,3.897-0.384,8.649,3.514,10.611
			c3.904,1.954,8.649,0.384,10.611-3.521C1835.027,2575.648,1833.462,2570.903,1829.557,2568.941z"/>
		
			<path style="fill:#1B0242;stroke:#1B0242;stroke-width:7.001;stroke-linecap:round;stroke-linejoin:round;stroke-miterlimit:10;" d="
			M1948.622,4322.621c-3.898-1.957-8.656-0.383-10.611,3.512c-1.962,3.903-0.382,8.656,3.516,10.611
			c3.903,1.955,8.646,0.391,10.61-3.514C1954.098,4329.333,1952.525,4324.588,1948.622,4322.621z"/>
		
			<path style="fill:#1B0242;stroke:#1B0242;stroke-width:7.001;stroke-linecap:round;stroke-linejoin:round;stroke-miterlimit:10;" d="
			M1815.556,2663.453c-3.904-1.954-8.649-0.389-10.612,3.515c-1.962,3.898-0.396,8.649,3.515,10.611
			c3.897,1.961,8.655,0.383,10.611-3.515C1821.026,2670.16,1819.453,2665.41,1815.556,2663.453z"/>
		
			<path style="fill:#1B0242;stroke:#1B0242;stroke-width:7.001;stroke-linecap:round;stroke-linejoin:round;stroke-miterlimit:10;" d="
			M677.955,1046.267c-3.903-1.955-8.648-0.375-10.603,3.528c-1.963,3.897-0.398,8.642,3.514,10.61
			c3.896,1.948,8.641,0.383,10.61-3.527C683.431,1052.981,681.858,1048.222,677.955,1046.267z"/>
		
			<path style="fill:#1B0242;stroke:#1B0242;stroke-width:7.001;stroke-linecap:round;stroke-linejoin:round;stroke-miterlimit:10;" d="
			M2722.227,1893.287c-3.903-1.962-8.654-0.382-10.609,3.514c-1.955,3.904-0.384,8.655,3.514,10.611
			c3.897,1.962,8.656,0.382,10.61-3.515C2727.704,1900.001,2726.124,1895.243,2722.227,1893.287z"/>
		
			<path style="fill:#1B0242;stroke:#1B0242;stroke-width:7.001;stroke-linecap:round;stroke-linejoin:round;stroke-miterlimit:10;" d="
			M2753.686,3545.582c-3.906-1.97-8.649-0.396-10.612,3.508c-1.955,3.902-0.382,8.647,3.515,10.608
			c3.896,1.964,8.655,0.384,10.611-3.507C2759.16,3552.288,2757.582,3547.537,2753.686,3545.582z"/>
		
			<path style="fill:#1B0242;stroke:#1B0242;stroke-width:7.001;stroke-linecap:round;stroke-linejoin:round;stroke-miterlimit:10;" d="
			M2603.211,3275.976c-3.902-1.969-8.647-0.395-10.611,3.515c-1.962,3.896-0.39,8.643,3.516,10.611
			c3.896,1.954,8.649,0.383,10.611-3.521C2608.688,3282.678,2607.106,3277.932,2603.211,3275.976z"/>
		
			<path style="fill:#1B0242;stroke:#1B0242;stroke-width:7.001;stroke-linecap:round;stroke-linejoin:round;stroke-miterlimit:10;" d="
			M1287.031,4056.585c-3.911-1.964-8.656-0.379-10.611,3.512c-1.955,3.904-0.39,8.649,3.515,10.612
			c3.897,1.962,8.649,0.396,10.611-3.516C1292.501,4063.297,1290.928,4058.546,1287.031,4056.585z"/>
		
			<path style="fill:#1B0242;stroke:#1B0242;stroke-width:7.001;stroke-linecap:round;stroke-linejoin:round;stroke-miterlimit:10;" d="
			M1052.458,3111.523c-3.911-1.972-8.656-0.391-10.619,3.506c-1.955,3.903-0.389,8.655,3.521,10.617
			c3.897,1.956,8.648,0.383,10.611-3.514C1057.928,3118.23,1056.355,3113.477,1052.458,3111.523z"/>
		<g>
			<g>
				
					<path style="fill:#1B0242;stroke:#1B0242;stroke-width:7.001;stroke-linecap:round;stroke-linejoin:round;stroke-miterlimit:10;" d="
					M1613.676,2358.646c-3.89-1.962-8.642-0.39-10.611,3.514c-1.955,3.898-0.375,8.656,3.521,10.612
					c3.904,1.961,8.649,0.382,10.611-3.515C1619.16,2365.353,1617.587,2360.602,1613.676,2358.646z"/>
				
					<path style="fill:#1B0242;stroke:#1B0242;stroke-width:7.001;stroke-linecap:round;stroke-linejoin:round;stroke-miterlimit:10;" d="
					M1628.581,2328.974c-3.897-1.956-8.649-0.383-10.611,3.521c-1.956,3.904-0.375,8.648,3.514,10.604
					c3.911,1.969,8.649,0.39,10.611-3.514C1634.058,2335.688,1632.484,2330.942,1628.581,2328.974z"/>
				
					<path style="fill:#1B0242;stroke:#1B0242;stroke-width:7.001;stroke-linecap:round;stroke-linejoin:round;stroke-miterlimit:10;" d="
					M1583.875,2417.969c-3.89-1.948-8.649-0.375-10.604,3.521c-1.962,3.904-0.39,8.656,3.514,10.61
					c3.897,1.956,8.648,0.383,10.604-3.513C1589.351,2424.689,1587.785,2419.931,1583.875,2417.969z"/>
				
					<path style="fill:#1B0242;stroke:#1B0242;stroke-width:7.001;stroke-linecap:round;stroke-linejoin:round;stroke-miterlimit:10;" d="
					M1598.779,2388.318c-3.904-1.962-8.649-0.396-10.618,3.507c-1.956,3.903-0.383,8.648,3.521,10.604
					c3.904,1.969,8.656,0.39,10.611-3.501C1604.256,2395.018,1602.683,2390.272,1598.779,2388.318z"/>
			</g>
			<g>
				
					<path style="fill:#1B0242;stroke:#1B0242;stroke-width:7.001;stroke-linecap:round;stroke-linejoin:round;stroke-miterlimit:10;" d="
					M1631.773,2383.655c-3.889-1.955-8.649-0.383-10.604,3.521c-1.962,3.905-0.383,8.655,3.514,10.604
					c3.91,1.962,8.648,0.391,10.61-3.513C1637.25,2390.362,1635.684,2385.617,1631.773,2383.655z"/>
				
					<path style="fill:#1B0242;stroke:#1B0242;stroke-width:7.001;stroke-linecap:round;stroke-linejoin:round;stroke-miterlimit:10;" d="
					M1646.685,2353.99c-3.897-1.956-8.649-0.39-10.61,3.521c-1.963,3.897-0.384,8.648,3.514,10.611
					c3.904,1.955,8.648,0.382,10.61-3.521C1652.154,2360.696,1650.588,2355.952,1646.685,2353.99z"/>
				
					<path style="fill:#1B0242;stroke:#1B0242;stroke-width:7.001;stroke-linecap:round;stroke-linejoin:round;stroke-miterlimit:10;" d="
					M1601.979,2442.986c-3.897-1.956-8.655-0.383-10.61,3.514c-1.963,3.902-0.383,8.656,3.514,10.609
					c3.904,1.957,8.649,0.391,10.611-3.514C1607.455,2449.7,1605.882,2444.955,1601.979,2442.986z"/>
				
					<path style="fill:#1B0242;stroke:#1B0242;stroke-width:7.001;stroke-linecap:round;stroke-linejoin:round;stroke-miterlimit:10;" d="
					M1616.884,2413.327c-3.897-1.962-8.656-0.39-10.619,3.507c-1.955,3.903-0.382,8.662,3.522,10.617
					c3.904,1.962,8.648,0.383,10.61-3.513C1622.353,2420.033,1620.78,2415.283,1616.884,2413.327z"/>
			</g>
			<g>
				
					<path style="fill:#1B0242;stroke:#1B0242;stroke-width:7.001;stroke-linecap:round;stroke-linejoin:round;stroke-miterlimit:10;" d="
					M1662.655,2383.246c-3.903-1.957-8.647-0.39-10.61,3.513c-1.962,3.897-0.397,8.649,3.514,10.611
					c3.896,1.962,8.655,0.382,10.61-3.514C1668.125,2389.951,1666.553,2385.2,1662.655,2383.246z"/>
				
					<path style="fill:#1B0242;stroke:#1B0242;stroke-width:7.001;stroke-linecap:round;stroke-linejoin:round;stroke-miterlimit:10;" d="
					M1677.553,2353.573c-3.903-1.956-8.648-0.375-10.604,3.528c-1.962,3.896-0.397,8.643,3.514,10.611
					c3.897,1.949,8.642,0.383,10.611-3.528C1683.03,2360.286,1681.457,2355.528,1677.553,2353.573z"/>
				
					<path style="fill:#1B0242;stroke:#1B0242;stroke-width:7.001;stroke-linecap:round;stroke-linejoin:round;stroke-miterlimit:10;" d="
					M1632.847,2442.576c-3.904-1.964-8.656-0.383-10.611,3.514c-1.956,3.904-0.383,8.654,3.514,10.609
					c3.897,1.963,8.655,0.383,10.611-3.512C1638.324,2449.291,1636.743,2444.529,1632.847,2442.576z"/>
				
					<path style="fill:#1B0242;stroke:#1B0242;stroke-width:7.001;stroke-linecap:round;stroke-linejoin:round;stroke-miterlimit:10;" d="
					M1647.752,2412.917c-3.904-1.969-8.649-0.396-10.611,3.507c-1.955,3.905-0.382,8.649,3.515,10.612
					c3.897,1.961,8.655,0.381,10.61-3.508C1653.228,2419.623,1651.648,2414.873,1647.752,2412.917z"/>
			</g>
			<g>
				
					<path style="fill:#1B0242;stroke:#1B0242;stroke-width:7.001;stroke-linecap:round;stroke-linejoin:round;stroke-miterlimit:10;" d="
					M1680.747,2408.253c-3.897-1.955-8.642-0.382-10.598,3.521c-1.968,3.905-0.389,8.65,3.515,10.611
					c3.89,1.957,8.641,0.383,10.596-3.521C1686.229,2414.968,1684.65,2410.216,1680.747,2408.253z"/>
				
					<path style="fill:#1B0242;stroke:#1B0242;stroke-width:7.001;stroke-linecap:round;stroke-linejoin:round;stroke-miterlimit:10;" d="
					M1695.657,2378.596c-3.904-1.969-8.649-0.397-10.611,3.514c-1.962,3.897-0.39,8.642,3.515,10.611
					c3.896,1.955,8.649,0.383,10.61-3.521C1701.134,2385.296,1699.554,2380.552,1695.657,2378.596z"/>
				
					<path style="fill:#1B0242;stroke:#1B0242;stroke-width:7.001;stroke-linecap:round;stroke-linejoin:round;stroke-miterlimit:10;" d="
					M1650.951,2467.586c-3.911-1.964-8.655-0.379-10.611,3.513c-1.955,3.905-0.39,8.647,3.514,10.611
					c3.897,1.962,8.648,0.396,10.61-3.515C1656.42,2474.299,1654.848,2469.547,1650.951,2467.586z"/>
				
					<path style="fill:#1B0242;stroke:#1B0242;stroke-width:7.001;stroke-linecap:round;stroke-linejoin:round;stroke-miterlimit:10;" d="
					M1665.855,2437.925c-3.91-1.969-8.655-0.388-10.617,3.508c-1.956,3.904-0.39,8.655,3.52,10.617
					c3.897,1.956,8.649,0.383,10.611-3.514C1671.325,2444.633,1669.753,2439.881,1665.855,2437.925z"/>
			</g>
		</g>
		<g>
			<g>
				
					<path style="fill:#1B0242;stroke:#1B0242;stroke-width:7.001;stroke-linecap:round;stroke-linejoin:round;stroke-miterlimit:10;" d="
					M2888.746,2437.009c-3.89-1.961-8.642-0.389-10.611,3.514c-1.954,3.898-0.376,8.656,3.522,10.61
					c3.903,1.964,8.649,0.384,10.609-3.515C2894.229,2443.716,2892.658,2438.965,2888.746,2437.009z"/>
				
					<path style="fill:#1B0242;stroke:#1B0242;stroke-width:7.001;stroke-linecap:round;stroke-linejoin:round;stroke-miterlimit:10;" d="
					M2903.649,2407.338c-3.896-1.955-8.647-0.382-10.61,3.521c-1.954,3.903-0.375,8.649,3.516,10.605
					c3.909,1.969,8.648,0.389,10.61-3.514C2909.127,2414.051,2907.555,2409.306,2903.649,2407.338z"/>
				
					<path style="fill:#1B0242;stroke:#1B0242;stroke-width:7.001;stroke-linecap:round;stroke-linejoin:round;stroke-miterlimit:10;" d="
					M2858.944,2496.333c-3.889-1.948-8.649-0.376-10.604,3.522c-1.962,3.903-0.388,8.654,3.514,10.609
					c3.897,1.956,8.65,0.384,10.606-3.513C2864.422,2503.055,2862.855,2498.295,2858.944,2496.333z"/>
				
					<path style="fill:#1B0242;stroke:#1B0242;stroke-width:7.001;stroke-linecap:round;stroke-linejoin:round;stroke-miterlimit:10;" d="
					M2873.85,2466.682c-3.903-1.961-8.65-0.396-10.619,3.508c-1.956,3.904-0.382,8.65,3.521,10.604
					c3.904,1.968,8.655,0.388,10.611-3.501C2879.324,2473.383,2877.754,2468.637,2873.85,2466.682z"/>
			</g>
			<g>
				
					<path style="fill:#1B0242;stroke:#1B0242;stroke-width:7.001;stroke-linecap:round;stroke-linejoin:round;stroke-miterlimit:10;" d="
					M2906.843,2462.018c-3.889-1.953-8.647-0.38-10.604,3.523c-1.961,3.902-0.384,8.654,3.515,10.604
					c3.911,1.961,8.649,0.39,10.61-3.516C2912.32,2468.727,2910.754,2463.98,2906.843,2462.018z"/>
				
					<path style="fill:#1B0242;stroke:#1B0242;stroke-width:7.001;stroke-linecap:round;stroke-linejoin:round;stroke-miterlimit:10;" d="
					M2921.754,2432.354c-3.896-1.956-8.647-0.39-10.611,3.521c-1.961,3.896-0.381,8.648,3.517,10.61
					c3.902,1.956,8.648,0.384,10.609-3.521C2927.226,2439.063,2925.658,2434.316,2921.754,2432.354z"/>
				
					<path style="fill:#1B0242;stroke:#1B0242;stroke-width:7.001;stroke-linecap:round;stroke-linejoin:round;stroke-miterlimit:10;" d="
					M2877.048,2521.35c-3.896-1.954-8.655-0.383-10.611,3.514c-1.96,3.905-0.382,8.655,3.517,10.611
					c3.902,1.956,8.647,0.389,10.61-3.514C2882.525,2528.064,2880.952,2523.32,2877.048,2521.35z"/>
				
					<path style="fill:#1B0242;stroke:#1B0242;stroke-width:7.001;stroke-linecap:round;stroke-linejoin:round;stroke-miterlimit:10;" d="
					M2891.953,2491.691c-3.896-1.962-8.656-0.389-10.617,3.508c-1.957,3.904-0.384,8.662,3.521,10.616
					c3.903,1.964,8.648,0.384,10.611-3.515C2897.424,2498.397,2895.851,2493.647,2891.953,2491.691z"/>
			</g>
			<g>
				
					<path style="fill:#1B0242;stroke:#1B0242;stroke-width:7.001;stroke-linecap:round;stroke-linejoin:round;stroke-miterlimit:10;" d="
					M2937.726,2461.609c-3.903-1.955-8.648-0.391-10.61,3.515c-1.963,3.896-0.396,8.647,3.515,10.609
					c3.896,1.963,8.655,0.384,10.609-3.514C2943.195,2468.316,2941.623,2463.565,2937.726,2461.609z"/>
				
					<path style="fill:#1B0242;stroke:#1B0242;stroke-width:7.001;stroke-linecap:round;stroke-linejoin:round;stroke-miterlimit:10;" d="
					M2952.623,2431.938c-3.902-1.956-8.647-0.377-10.604,3.528c-1.963,3.896-0.396,8.641,3.515,10.61
					c3.896,1.947,8.641,0.382,10.61-3.527C2958.101,2438.651,2956.527,2433.892,2952.623,2431.938z"/>
				
					<path style="fill:#1B0242;stroke:#1B0242;stroke-width:7.001;stroke-linecap:round;stroke-linejoin:round;stroke-miterlimit:10;" d="
					M2907.917,2520.938c-3.903-1.961-8.655-0.381-10.611,3.515c-1.956,3.904-0.383,8.655,3.515,10.611
					c3.896,1.962,8.654,0.383,10.61-3.515C2913.393,2527.653,2911.814,2522.894,2907.917,2520.938z"/>
				
					<path style="fill:#1B0242;stroke:#1B0242;stroke-width:7.001;stroke-linecap:round;stroke-linejoin:round;stroke-miterlimit:10;" d="
					M2922.821,2491.281c-3.903-1.969-8.648-0.396-10.61,3.508c-1.956,3.903-0.383,8.648,3.516,10.61
					c3.895,1.964,8.654,0.383,10.608-3.507C2928.298,2497.989,2926.719,2493.236,2922.821,2491.281z"/>
			</g>
			<g>
				
					<path style="fill:#1B0242;stroke:#1B0242;stroke-width:7.001;stroke-linecap:round;stroke-linejoin:round;stroke-miterlimit:10;" d="
					M2955.816,2486.619c-3.896-1.957-8.643-0.383-10.597,3.521c-1.97,3.903-0.39,8.648,3.514,10.611
					c3.89,1.955,8.641,0.382,10.599-3.521C2961.299,2493.333,2959.72,2488.58,2955.816,2486.619z"/>
				
					<path style="fill:#1B0242;stroke:#1B0242;stroke-width:7.001;stroke-linecap:round;stroke-linejoin:round;stroke-miterlimit:10;" d="
					M2970.728,2456.96c-3.903-1.969-8.649-0.397-10.61,3.515c-1.964,3.896-0.391,8.641,3.513,10.611
					c3.897,1.955,8.649,0.381,10.612-3.523C2976.204,2463.66,2974.625,2458.914,2970.728,2456.96z"/>
				
					<path style="fill:#1B0242;stroke:#1B0242;stroke-width:7.001;stroke-linecap:round;stroke-linejoin:round;stroke-miterlimit:10;" d="
					M2926.021,2545.948c-3.91-1.961-8.655-0.376-10.611,3.514c-1.955,3.904-0.391,8.65,3.514,10.611
					c3.897,1.962,8.649,0.397,10.611-3.514C2931.491,2552.663,2929.918,2547.912,2926.021,2545.948z"/>
				
					<path style="fill:#1B0242;stroke:#1B0242;stroke-width:7.001;stroke-linecap:round;stroke-linejoin:round;stroke-miterlimit:10;" d="
					M2940.927,2516.29c-3.911-1.969-8.656-0.39-10.619,3.507c-1.955,3.905-0.39,8.656,3.521,10.619
					c3.896,1.955,8.648,0.383,10.61-3.516C2946.395,2522.997,2944.822,2518.247,2940.927,2516.29z"/>
			</g>
		</g>
		<path style="fill:#00D6A1;" d="M1318.44,2160.616c0,0-11.09-19.841,8.751-60.678c16.203-33.357,192.526-108.515,192.526-108.515
			s6.413,22.172,4.082,53.683c-1.895,25.597-37.336,53.669-37.336,53.669s-68.806,44.242-103.264,55.42
			C1340.024,2168.198,1318.44,2160.616,1318.44,2160.616z"/>
		<path style="fill:#00D6A1;" d="M2786.304,2588.844c-8.902,5.448-47.838-51.338-44.338-71.178
			c3.5-19.842,86.355-113.193,119.022-134.189c18.104-11.636,46.909,37.378,44.337,56.009
			C2900.657,2473.313,2843.479,2553.832,2786.304,2588.844z"/>
		<path style="fill:#00D6A1;" d="M2261.244,2068.441c0,0-53.683-72.348-58.346-100.352c-4.662-28.004,44.338-179.735,44.338-179.735
			s233.362,49.048,273.618,73.551c24.982,15.205,337.796,283.552,344.798,365.225c7,81.673,18.663,156.367,14.001,189.026
			c-4.663,32.659-91.039,99.189-108.515,110.839c-31.503,21.003-103.257,29.165-164.516,15.164
			c-43.168-9.864-133.02-221.693-133.02-221.693L2261.244,2068.441z"/>
		<path style="fill:#8568AA;" d="M2881.985,3720.668c-42.589-54.266-193.695-72.349-207.69-105.016
			c-14.27-33.302,42.648-91.963,26.833-166.278c-17.501-82.262-148.771-150.521-148.771-150.521s-85.754-140.595-102.087-217.605
			c23.333-39.674,42.833-82.746,44.338-130.686c2.337-74.68-21.005-177.356-21.005-177.356s-191.938,61.251-210.028,60.671
			c-11.895-0.384-277.714-37.337-277.714-37.337s-214.69-46.682-266.029-39.681c-51.338,7.001-63.268,53.998-226.369,112.022
			c-121.354,43.175-148.011,142.986-179.693,238.032c-25.673,77.011-138.262,191.939-156.352,210.028
			c-29.173,29.173-96.845,39.675-130.688,75.842c-33.643,35.955-21.002,120.186-30.335,157.528
			c-9.332,37.343-63.009,75.836-63.009,75.836c2.059,28.803,98.506,222.539,124.268,250.283
			c45.506,49.007,172.221,68.908,185.525,71.76c24.504,5.251,133.599,24.511,145.27,24.511l252.041-403.726l232.188-193.701
			l17.516,2.331l86.35,119.017c-28.018,84.018,73.497,173.28,114.334,221.712c23.341,90.993,107.352,303.352,107.352,303.352
			s-41.944,57.779,7.002,63.024c65.34,7,184.357-10.502,184.357-10.502c232.786-41.419,387.89-154.911,430.557-210.029
			C2862.151,3809.923,2909.805,3756.117,2881.985,3720.668z"/>
		<path style="fill:#00D6A1;" d="M1429.286,2098.776l-47.837,35.005c0,0-78.159,125.313-64.178,175.024
			c21.003,74.68,279.457,237.444,300.461,233.945c19.067-3.181,109.095-110.286,109.095-110.286l23.334-203.028l-44.337-74.679
			l-95.676-123.679l-121.355,23.334L1429.286,2098.776z"/>
		<path style="fill:#715499;" d="M1432.793,3641.325l4.663,74.666c0,0-35.005,53.095-35.005,69.427
			c0,16.335,3.883,88.121-1.75,96.265c-15.752,22.753-84.012,94.513-84.012,94.513s57.758,12.252,92.764-3.501
			c35.039-15.766,85.188-50.75,115.515-117.265c30.328-66.518,122.517-263.118,159.853-291.123
			c36.249-27.189,137.688-52.506,206.528-127.18c0,0-35.005-107.351-45.506-220.528c0,0-0.917,47.051-38.506,89.836
			c-29.083,33.103-58.339,59.508-59.5,80.52c-0.644,11.647-21.01,48.998-53.677,51.343c-21.46,1.54-53.669,2.332-67.671,9.333
			C1612.487,3454.631,1442.126,3599.319,1432.793,3641.325z"/>
		<path style="fill:#FF354D;" d="M1959.026,1949.417l-12.824,392.061l-102.684,161.022l-9.339-235.702l100.352-291.708
			l23.334-107.346c0,0,23.914-19.84,43.168-0.588C2008.033,1874.158,1959.026,1949.417,1959.026,1949.417z"/>
		<path style="fill:#FFCCB3;" d="M1376.778,2091.775c-13.837-2.126-50.168-71.178-50.168-71.178l-17.502-127.179l35.011-11.671
			l46.668-16.333c0,0,36.79-91.396,64.171-82.268c15.752,5.251,13.415,73.524,5.832,89.269
			c-7.582,15.745-47.235,50.716-54.838,73.51c-11.671,35.004,5.839,108.515,5.839,108.515S1391.95,2094.107,1376.778,2091.775z"/>
		<path style="fill:#FFCCB3;" d="M2004.533,1825.151c-11.669,0-52.506-222.28-52.506-222.28s19.663-45.157,27.128-50.757
			c9.338-7.001,38.97-62.708,44.63-33.255c8.753,45.507,37.927,190.482,37.632,204.779
			C2061.121,1737.934,2016.205,1825.151,2004.533,1825.151z"/>
		<path style="fill:#FF354D;" d="M1650.992,2735.863l30.328-36.174l110.86,33.842l-4.669,39.669
			C1759.507,2773.2,1650.992,2735.863,1650.992,2735.863z"/>
		<path style="fill:#FF354D;" d="M1894.856,2754.528l-4.67,40.843c0,0,294.074,63.296,308.05,64.173
			c84.012,5.249,338.371-85.764,338.371-85.764l-47.258-50.757c0,0-174.442,81.682-195.445,81.682
			C2272.902,2804.705,1894.856,2754.528,1894.856,2754.528z"/>
		<path style="fill:#FEFDE2;" d="M1780.503,2795.365c-10.508-14.009,0-51.338,0-51.338l110.846,12.832
			c0,0,12.505,55.748,1.169,65.346C1877.354,2835.046,1791.012,2809.373,1780.503,2795.365z"/>
		<path style="fill:#FFCCB3;" d="M2002.784,1595.87c-12.253,15.752-90.336,66.051-119.017,50.756
			c-26.253-14.002-22.753-102.676-22.753-140.019c0-37.343-23.922-147.026,17.502-176.774
			c25.782-18.514,105.618-23.328,144.696,5.838c39.079,29.167,46.668,63.009,44.339,119.017
			c-2.334,56.007-29.764,71.172-29.764,71.172S2008.383,1588.67,2002.784,1595.87z"/>
		<path style="fill:#FFFFFF;" d="M1953.189,1536.361l-56.008,31.504c0,0,11.561,35.744,29.467,23.628
			C1955.971,1571.653,1953.189,1536.361,1953.189,1536.361z"/>
		<path style="fill:#FF354D;" d="M1932.773,1589.743c-11.875,12.867-23.627-6.125-23.627-6.125l39.379-23.628
			C1948.525,1559.989,1946.775,1574.573,1932.773,1589.743z"/>
		<path style="fill:#715499;" d="M1565.162,3249.571c19.314-29.472,285.528,0.603,294.682,46.369
			c7.001,35.004,9.142,73.838,9.142,73.838S1557.949,3260.581,1565.162,3249.571z"/>
		<polygon style="fill:#715499;" points="1681.32,3145.42 1838.842,3180.424 1864.515,3327.444 		"/>
		<path style="fill:#715499;" d="M1600.796,3350.724c0,0,180.404-37.137,201.873-36.112c24.503,1.169,86.342,59.501,73.51,75.842
			S1600.796,3350.724,1600.796,3350.724z"/>
		
			<path style="fill:#1B0242;stroke:#1B0242;stroke-width:7.001;stroke-linecap:round;stroke-linejoin:round;stroke-miterlimit:10;" d="
			M1497.005,2957.494c-3.897-1.955-8.642-0.383-10.597,3.521c-1.97,3.903-0.39,8.648,3.514,10.611
			c3.89,1.955,8.642,0.383,10.597-3.521C1502.488,2964.207,1500.909,2959.457,1497.005,2957.494z"/>
		<path style="fill:#715499;" d="M2517.936,3659.984c-14.003-51.34,9.339-182.025,9.339-182.025s-123.687-42.007-130.688-70.012
			c-6.999-28.004-52.507-243.863-52.507-243.863s1.982-87.73-19.842-166.853c-18.663-67.68-70.008-123.688-70.008-123.688
			l51.345-27.996l171.522-61.847c31.511,85.175,31.498,158.692,22.167,215.867c-8.908,54.567-32.668,107.34-32.668,107.34
			s63.009,155.19,85.761,191.946c16.923,2.925,155.773,92.762,169.775,162.771c14.002,70.011-47.838,154.027-47.838,154.027
			s152.85,56.001,205.358,87.506c52.507,31.504,8.171,101.512-30.334,143.52c-40.694,44.393-69.294,74.945-142.352,116.685
			c-32.673,18.665-105.015,51.338-105.015,51.338l-28.004-287.038C2573.949,3727.662,2529.948,3704.012,2517.936,3659.984z"/>
		<g>
			<g>
				
					<path style="fill:#1B0242;stroke:#1B0242;stroke-width:7.001;stroke-linecap:round;stroke-linejoin:round;stroke-miterlimit:10;" d="
					M2429.418,2871.417c-3.11-3.041-8.116-2.98-11.179,0.146c-3.035,3.123-2.966,8.135,0.157,11.177
					c3.126,3.058,8.13,2.98,11.178-0.143C2432.625,2879.465,2432.557,2874.46,2429.418,2871.417z"/>
				
					<path style="fill:#1B0242;stroke:#1B0242;stroke-width:7.001;stroke-linecap:round;stroke-linejoin:round;stroke-miterlimit:10;" d="
					M2452.59,2847.633c-3.126-3.037-8.131-2.975-11.173,0.15c-3.05,3.131-2.974,8.135,0.144,11.171
					c3.13,3.063,8.129,2.98,11.179-0.145C2455.781,2855.687,2455.72,2850.688,2452.59,2847.633z"/>
				
					<path style="fill:#1B0242;stroke:#1B0242;stroke-width:7.001;stroke-linecap:round;stroke-linejoin:round;stroke-miterlimit:10;" d="
					M2383.092,2918.969c-3.118-3.035-8.129-2.968-11.173,0.15c-3.048,3.13-2.986,8.136,0.145,11.18
					c3.125,3.04,8.128,2.98,11.172-0.145C2386.284,2927.027,2386.229,2922.019,2383.092,2918.969z"/>
				
					<path style="fill:#1B0242;stroke:#1B0242;stroke-width:7.001;stroke-linecap:round;stroke-linejoin:round;stroke-miterlimit:10;" d="
					M2406.255,2895.204c-3.124-3.05-8.122-2.988-11.18,0.135c-3.041,3.134-2.98,8.13,0.15,11.173
					c3.134,3.055,8.137,2.987,11.173-0.131C2409.454,2903.244,2409.386,2898.246,2406.255,2895.204z"/>
			</g>
			<g>
				
					<path style="fill:#1B0242;stroke:#1B0242;stroke-width:7.001;stroke-linecap:round;stroke-linejoin:round;stroke-miterlimit:10;" d="
					M2439.12,2900.728c-3.118-3.042-8.129-2.981-11.172,0.149c-3.05,3.133-2.981,8.137,0.143,11.172
					c3.14,3.05,8.13,2.981,11.179-0.143C2442.312,2908.775,2442.251,2903.776,2439.12,2900.728z"/>
				
					<path style="fill:#1B0242;stroke:#1B0242;stroke-width:7.001;stroke-linecap:round;stroke-linejoin:round;stroke-miterlimit:10;" d="
					M2462.297,2876.948c-3.132-3.042-8.129-2.98-11.186,0.151c-3.042,3.125-2.974,8.129,0.15,11.177
					c3.131,3.044,8.129,2.976,11.178-0.148C2465.482,2884.996,2465.421,2879.998,2462.297,2876.948z"/>
				
					<path style="fill:#1B0242;stroke:#1B0242;stroke-width:7.001;stroke-linecap:round;stroke-linejoin:round;stroke-miterlimit:10;" d="
					M2392.793,2948.285c-3.124-3.043-8.136-2.98-11.171,0.144c-3.051,3.132-2.98,8.136,0.137,11.178
					c3.131,3.044,8.135,2.981,11.178-0.145C2395.985,2956.34,2395.925,2951.342,2392.793,2948.285z"/>
				
					<path style="fill:#1B0242;stroke:#1B0242;stroke-width:7.001;stroke-linecap:round;stroke-linejoin:round;stroke-miterlimit:10;" d="
					M2415.963,2924.514c-3.123-3.043-8.135-2.987-11.185,0.136c-3.043,3.133-2.98,8.144,0.15,11.187
					c3.131,3.049,8.128,2.973,11.179-0.145C2419.148,2932.56,2419.088,2927.556,2415.963,2924.514z"/>
			</g>
			<g>
				
					<path style="fill:#1B0242;stroke:#1B0242;stroke-width:7.001;stroke-linecap:round;stroke-linejoin:round;stroke-miterlimit:10;" d="
					M2468.683,2909.663c-3.133-3.041-8.13-2.987-11.179,0.145c-3.049,3.126-2.988,8.122,0.144,11.177
					c3.124,3.043,8.137,2.981,11.178-0.143C2471.868,2917.711,2471.806,2912.705,2468.683,2909.663z"/>
				
					<path style="fill:#1B0242;stroke:#1B0242;stroke-width:7.001;stroke-linecap:round;stroke-linejoin:round;stroke-miterlimit:10;" d="
					M2491.847,2885.878c-3.134-3.049-8.13-2.973-11.173,0.157c-3.049,3.125-2.995,8.114,0.145,11.177
					c3.123,3.036,8.12,2.977,11.178-0.157C2495.039,2893.933,2494.977,2888.921,2491.847,2885.878z"/>
				
					<path style="fill:#1B0242;stroke:#1B0242;stroke-width:7.001;stroke-linecap:round;stroke-linejoin:round;stroke-miterlimit:10;" d="
					M2422.341,2957.214c-3.122-3.05-8.135-2.974-11.171,0.15c-3.049,3.132-2.981,8.137,0.145,11.172
					c3.123,3.05,8.135,2.98,11.179-0.139C2425.541,2965.275,2425.475,2960.263,2422.341,2957.214z"/>
				
					<path style="fill:#1B0242;stroke:#1B0242;stroke-width:7.001;stroke-linecap:round;stroke-linejoin:round;stroke-miterlimit:10;" d="
					M2445.512,2933.449c-3.124-3.063-8.129-2.995-11.179,0.136c-3.034,3.133-2.974,8.13,0.151,11.18
					c3.118,3.042,8.135,2.975,11.17-0.145C2448.705,2941.495,2448.636,2936.484,2445.512,2933.449z"/>
			</g>
			<g>
				
					<path style="fill:#1B0242;stroke:#1B0242;stroke-width:7.001;stroke-linecap:round;stroke-linejoin:round;stroke-miterlimit:10;" d="
					M2478.37,2938.967c-3.125-3.043-8.114-2.974-11.165,0.157c-3.056,3.131-2.98,8.128,0.15,11.178
					c3.118,3.035,8.123,2.975,11.157-0.157C2481.576,2947.027,2481.501,2942.016,2478.37,2938.967z"/>
				
					<path style="fill:#1B0242;stroke:#1B0242;stroke-width:7.001;stroke-linecap:round;stroke-linejoin:round;stroke-miterlimit:10;" d="
					M2501.547,2915.201c-3.124-3.056-8.129-2.995-11.179,0.144c-3.048,3.118-2.98,8.123,0.145,11.178
					c3.124,3.044,8.128,2.975,11.178-0.156C2504.74,2923.242,2504.671,2918.245,2501.547,2915.201z"/>
				
					<path style="fill:#1B0242;stroke:#1B0242;stroke-width:7.001;stroke-linecap:round;stroke-linejoin:round;stroke-miterlimit:10;" d="
					M2432.051,2986.53c-3.139-3.056-8.137-2.975-11.18,0.145c-3.042,3.131-2.987,8.127,0.145,11.178
					c3.124,3.048,8.122,2.988,11.178-0.15C2435.235,2994.585,2435.169,2989.58,2432.051,2986.53z"/>
				
					<path style="fill:#1B0242;stroke:#1B0242;stroke-width:7.001;stroke-linecap:round;stroke-linejoin:round;stroke-miterlimit:10;" d="
					M2455.214,2962.758c-3.13-3.063-8.137-2.987-11.179,0.131c-3.042,3.13-2.988,8.137,0.145,11.185
					c3.131,3.051,8.135,2.98,11.184-0.137C2458.399,2970.805,2458.339,2965.802,2455.214,2962.758z"/>
			</g>
		</g>
		<path style="fill:#715499;" d="M2299.735,3414.956l285.878-18.677c0,0,126.011,81.686-7.001,91.019
			C2445.602,3496.63,2299.735,3414.956,2299.735,3414.956z"/>
		<path style="fill:#715499;" d="M1311.438,3685.655l245.041-179.694l18.664,98.014
			C1575.144,3603.975,1423.455,3666.982,1311.438,3685.655z"/>
		<path style="fill:#715499;" d="M2492.277,3916.688l93.342-217.029l65.34,28.004
			C2650.959,3727.662,2597.29,3870.011,2492.277,3916.688z"/>
		<path style="fill:#715499;" d="M1311.446,3109.244l-114.354,364.045l-63.008-137.681c0,0,44.344-25.673,100.351-105.016
			C1261.687,3191.992,1311.446,3109.244,1311.446,3109.244z"/>
		<path style="fill:#715499;" d="M2088.545,3713.652c172.692,77.005,332.547,133.025,332.547,133.025l-288.203-2.345
			C2132.889,3844.333,2111.886,3783.663,2088.545,3713.652z"/>
		<path style="fill:#715499;" d="M1542.478,2850.203l140.012,54.845l-49-101.513
			C1633.49,2803.535,1577.481,2831.531,1542.478,2850.203z"/>
		<polygon style="fill:#715499;" points="1964.865,3153.582 1862.19,3354.272 1829.51,3221.254 		"/>
		<path style="fill:#715499;" d="M1808.514,3181.586l77.01-123.686c0,0,11.671,53.678-9.333,109.684
			c-19.389,51.716-20.879,71.891-44.344,74.672L1808.514,3181.586z"/>
		<polygon style="fill:#715499;" points="2223.901,2957.55 2429.261,2815.198 2233.233,2859.544 2172.556,2959.881 		"/>
		<path style="fill:#00D6A1;" d="M1687.16,2243.458c0,0,49.588-278.288,84.592-299.29c35.005-21.003,110.265,15.753,117.267,70.009
			c7,54.257-108.516,115.515-108.516,115.515l-35.005,168.024L1687.16,2243.458z"/>
		<g>
			<path style="fill:#00B986;" d="M2340.586,2658.846c7.836-31.34,63.967-132.273,100.346-116.677
				c36.392,15.594,110.846,163.504,78.173,198.357c-26.254,28.004-172.83,46.647-172.83,46.647
				C2328.082,2781.973,2326.584,2714.854,2340.586,2658.846z"/>
			<path style="fill:#00B986;" d="M2373.26,2621.517c-16.348-23.349-46.682-204.204-39.682-246.209
				c4.99-29.925,59.508-143.52,59.508-143.52l79.344,86.343l-16.334,92.182c0,0-8.177,20.961,3.501,49.006
				c11.676,28.045,21.018,103.858,11.676,122.523C2461.934,2600.508,2389.607,2644.865,2373.26,2621.517z"/>
			<path style="fill:#00B986;" d="M2832.985,2516.502l-60.678,16.333l114.353-147.02c0,0,16.334,37.344,14.004,58.347
				C2898.33,2465.163,2877.323,2516.502,2832.985,2516.502z"/>
			<path style="fill:#00B986;" d="M1397.789,2147.783c0,0,32.673-98.013,46.676-116.677c14.001-18.666,32.673-42.013,32.673-42.013
				s35.005,44.343,35.005,58.345C1512.143,2061.439,1474.799,2108.109,1397.789,2147.783z"/>
			<path style="fill:#00B986;" d="M2575.434,2162.947c-9.682-58.113-23.923-100.761-27.15-138.85
				c-2.182-25.863-31.586-154.772-18.669-147.02c12.913,7.746,71.839,28.681,77.009,70.01
				C2611.79,1988.416,2608.365,2112.587,2575.434,2162.947z"/>
			<path style="fill:#00B986;" d="M2676.626,2129.692c0,0,115.515,96.264,122.517,112.016c7.001,15.752-1.163,153.434-1.163,153.434
				s44.337,14.001,37.337,63.007l51.344-67.67c0,0-14.008-159.272-24.509-190.776c-10.501-31.505-162.772-218.78-162.772-218.78
				s-147.021-110.265-196.025-131.268c-14.838-6.358,61.256,108.515,61.256,108.515s59.509,40.254,84.013,70.009
				C2673.126,2057.933,2676.626,2129.692,2676.626,2129.692z"/>
			<polygon style="fill:#00B986;" points="2235.572,2453.493 2356.921,2206.122 2436.269,2336.808 			"/>
			<polygon style="fill:#00B986;" points="1537.814,2448.823 1663.832,2460.494 1726.84,2397.486 1764.176,2213.129 
				1668.495,2362.481 			"/>
			<path style="fill:#00B986;" d="M2048.289,2050.932c15.753-3.5,121.943-157.514,121.943-157.514l-51.345-149.352l-32.667,79.341
				l-44.351,91.013l-16.326-11.677l-53.677,53.683l4.669,51.338C1976.536,2007.764,2032.538,2054.433,2048.289,2050.932z"/>
			<path style="fill:#00B986;" d="M2086.221,1874.745c0,0,191.357-18.67,219.361-65.339c28.003-46.668-109.685-77.01-109.685-77.01
				l-75.849-14.009l-64.177-37.343l9.338,46.676l-28.011,49.013L2086.221,1874.745z"/>
		</g>
		
			<path style="fill:#1B0242;stroke:#1B0242;stroke-width:7.001;stroke-linecap:round;stroke-linejoin:round;stroke-miterlimit:10;" d="
			M3306.273,2873.543c2.988-10.082-9.195,34.882-10.938,41.788c-3.563,14.18-13.113,26.841-28.537,35.729
			c-14.89,8.587-133.361,88.756-133.361,88.756l16.629,30.63l-11.207,37.733l-63.582-34.097c0,0-130.222,80.006-139.685,85.822
			c-37.487,23.035-63.911,8.26-79.943-24.324c-27.471-55.816-45.938-96.625-72.656-150.917c-6.713-13.654-9.38-25.166-9.162-34.984
			c0.248-10.575,6.058-25.379,11.309-45.507c0,0-1.169,16.04,5.252,31.21c6.42,15.172,78.761,167.442,78.761,167.442
			s15.17,46.088,73.51,19.833l141.181-87.51l63.597,32.673l-27.996-53.082l142.343-93.939
			C3261.786,2920.8,3295.917,2908.55,3306.273,2873.543z"/>
		
			<path style="fill:#1B0242;stroke:#1B0242;stroke-width:7.001;stroke-linecap:round;stroke-linejoin:round;stroke-miterlimit:10;" d="
			M1489.875,875.243c-26.616,6.925-39.045,22.938-34.39,58.715c4.587,35.264,19.793,146.22,24.778,180.513
			c5.27,36.113,26.752,43.675,57.723,36.892c31.435-6.898,763.296-175.899,763.296-175.899l6.071,53.143l31.633-61.867
			c0,0,106.17-25.016,112.527-26.93c26.336-7.91,33.242-28.462,28.92-56.958c-7.458-49.157-18.021-137.654-24.733-173.78
			c-2.223-11.937-6.502-50.436-56.118-39.093C2349.27,681.479,1516.025,868.453,1489.875,875.243z"/>
		<path style="fill:none;stroke:#1B0242;stroke-width:7.001;stroke-linecap:round;stroke-linejoin:round;stroke-miterlimit:10;" d="
			M2550.609,2469.82c0,0,67.662-46.675,93.343-42.005"/>
		<path style="fill:none;stroke:#1B0242;stroke-width:7.001;stroke-linecap:round;stroke-linejoin:round;stroke-miterlimit:10;" d="
			M2135.22,2563.164c56.009-51.339,121.355-56.007,196.027-56.007c34.09,0,82.774-7.788,125.628-16.245"/>
		<path style="fill:none;stroke:#1B0242;stroke-width:7.001;stroke-linecap:round;stroke-linejoin:round;stroke-miterlimit:10;" d="
			M1773.502,2169.948c-7.001,57.758-31.258,197.558-35.004,227.531c-3.501,28.004,17.502,56.007,7,63.008s-3.5,0-45.505,77.012
			c-42.006,77.01-63.009,119.016-59.509,136.519c2.626,13.127,56.015,19.834,41.841,42.333c-6.002,9.524,22.918,9.298,38.67,13.675
			c63.008,17.501,133.018,17.501,255.534,38.505c122.518,21.003,275.369,42.012,327.876,35.013
			c52.507-7.003,137.688-22.173,183.196-59.516c38.503-7.001,24.503-80.512,24.503-80.512"/>
		<path style="fill:none;stroke:#1B0242;stroke-width:7.001;stroke-linecap:round;stroke-linejoin:round;stroke-miterlimit:10;" d="
			M1967.239,1943.456c3.35,31.32,22.314,219.395,28.03,239.906c5.716,20.511,58.046,81.796,68.485,80.682
			c10.44-1.114,2.611,24.367,2.611,24.367"/>
		<path style="fill:none;stroke:#1B0242;stroke-width:7.001;stroke-linecap:round;stroke-linejoin:round;stroke-miterlimit:10;" d="
			M1946.188,1942.424c0,0,9.341-53.677,9.341-67.679c0-14.001,44.342-16.339,51.343-7.007
			c14.413,19.218-39.681,74.687-39.681,74.687"/>
		<path style="fill:none;stroke:#1B0242;stroke-width:7.001;stroke-linecap:round;stroke-linejoin:round;stroke-miterlimit:10;" d="
			M1962.521,1954.088c0,0-16.333,214.691-20.994,249.696c-2.777,20.818-3.502,106.183-9.341,135.356
			c-1.654,8.252-70.009,154.02-70.009,154.02"/>
		<path style="fill:none;stroke:#1B0242;stroke-width:7.001;stroke-linecap:round;stroke-linejoin:round;stroke-miterlimit:10;" d="
			M1836.511,2525.836c0,0,11.664-30.336,11.664-42.008c0-11.67-9.332-35.005-9.332-42.004c0-7.002,4.67-53.678,4.67-67.679
			c0-14.002-2.339-67.671,4.662-109.677c7.002-42.005,88.673-305.711,88.673-305.711"/>
		<path style="fill:none;stroke:#1B0242;stroke-width:7.001;stroke-linecap:round;stroke-linejoin:round;stroke-miterlimit:10;" d="
			M2758.306,2551.506c0,0,14.009,12.835,30.335,23.335c6.209,3.993,65.347-49.013,74.678-60.676
			c9.334-11.664,32.668-51.338,39.67-65.342c7-14.001-18.666-58.338-18.666-58.338"/>
		<path style="fill:none;stroke:#1B0242;stroke-width:7.001;stroke-linecap:round;stroke-linejoin:round;stroke-miterlimit:10;" d="
			M2312.582,2150.114c0,0,76.786,52.624,88.675,58.346c63.016,30.335,102.684,4.663,102.684,4.663"/>
		<path style="fill:none;stroke:#1B0242;stroke-width:7.001;stroke-linecap:round;stroke-linejoin:round;stroke-miterlimit:10;" d="
			M2816.646,2484.991c11.663-16.335,74.678-85.167,74.678-115.509c0-30.342,14.002-128.355-25.671-172.693
			c-22.822-25.508-147.902-121.847-218.199-199.534c-22.172-24.503-74.693-81.707-94.514-85.167
			c-23.444-4.096-70.002-49.021-79.342-56.021"/>
		<path style="fill:none;stroke:#1B0242;stroke-width:7.001;stroke-linecap:round;stroke-linejoin:round;stroke-miterlimit:10;" d="
			M2321.915,2098.77c18.664,16.333,23.335,49.006,25.672,72.348c29.146,48.262,82.022,102.109,93.337,112.015
			c18.673,16.34,123.692,142.356,128.356,163.36c4.663,21.004,70.008,114.341,84.011,123.679
			c14.002,9.341,72.348,2.339,84.012-9.332"/>
		<path style="fill:none;stroke:#1B0242;stroke-width:7.001;stroke-linecap:round;stroke-linejoin:round;stroke-miterlimit:10;" d="
			M2005.696,1853.736c0,0,12.846,30.349,36.174,60.684c0,0,84.011-144.688,74.68-186.694"/>
		<path style="fill:none;stroke:#1B0242;stroke-width:7.001;stroke-linecap:round;stroke-linejoin:round;stroke-miterlimit:10;" d="
			M1677.826,2739.356c0,0-58.345,43.175-82.849,99.185c-17.501,24.501-186.42,74.896-297.54,280.037
			c-30.342,56.016-109.684,80.518-133.019,154.021c-45.212,142.418-131.849,113.177-163.353,158.683
			c-31.504,45.508,1.169,169.192-30.335,200.696c-31.504,31.505-56.007,51.345-56.007,51.345s80.511,127.18,101.514,148.184
			c21.003,21.003,84.011,38.504,112.015,56.007c28.004,17.504,80.511,66.51,115.517,77.012
			c35.003,10.5,108.514,17.502,108.514,17.502s206.529-192.526,231.032-234.533c24.503-42.005,164.523-199.526,185.525-231.03
			c21.002-31.505,119.01-96.838,119.01-96.838"/>
		<path style="fill:none;stroke:#1B0242;stroke-width:7.001;stroke-linecap:round;stroke-linejoin:round;stroke-miterlimit:10;" d="
			M1831.841,3109.244c-0.848,15.63,28.469,192.241,33.842,227.531c26.834,176.194,151.978,318.046,186.98,356.552
			c35.007,38.505,126.019,255.535,126.019,255.535s105.903,168.515,133.899,159.182c0,0,136.513-23.333,210.021-54.838
			c73.512-31.506,294.328-190.688,318.545-227.531c24.216-36.845,50.175-119.023,26.841-147.021
			c-19.278-23.129-163.36-50.756-180.861-75.259c-17.503-24.503,9.284-94.479-5.825-134.771
			c-14.002-37.336-79.35-93.343-106.191-143.52c-10.569-19.766-66.509-157.521-66.509-157.521s-35.005-133.018-31.505-143.52
			c3.501-10.501,35.007-119.01,31.505-182.025c-3.05-54.953-21.001-98.012-21.001-98.012"/>
		<path style="fill:none;stroke:#1B0242;stroke-width:7.001;stroke-linecap:round;stroke-linejoin:round;stroke-miterlimit:10;" d="
			M2305.575,2873.543c0,0,17.503,66.51,35.004,77.012c17.504,10.502,115.517,59.509,115.517,59.509"/>
		
			<line style="fill:none;stroke:#1B0242;stroke-width:7.001;stroke-linecap:round;stroke-linejoin:round;stroke-miterlimit:10;" x1="1889.019" y1="2793.034" x2="2170.226" y2="2840.878"/>
		
			<line style="fill:none;stroke:#1B0242;stroke-width:7.001;stroke-linecap:round;stroke-linejoin:round;stroke-miterlimit:10;" x1="1678.989" y1="2744.027" x2="1760.662" y2="2763.86"/>
		<path style="fill:none;stroke:#1B0242;stroke-width:7.001;stroke-linecap:round;stroke-linejoin:round;stroke-miterlimit:10;" d="
			M2508.603,2649.513c0,0,3.502-63.008-10.501-80.51c-14.001-17.503-10.5-119.017-10.5-140.019
			c0-21.003-28.005-42.006-28.005-42.006c10.501-28.004,14.001-66.51,14.001-66.51"/>
		<path style="fill:none;stroke:#1B0242;stroke-width:7.001;stroke-linecap:round;stroke-linejoin:round;stroke-miterlimit:10;" d="
			M2494.608,1835.064c0-35.004-53.677-20.996-102.684-34.999c-49.006-14.001-121.349-91.018-268.375-88.681"/>
		<path style="fill:none;stroke:#1B0242;stroke-width:7.001;stroke-linecap:round;stroke-linejoin:round;stroke-miterlimit:10;" d="
			M1505.142,2027.597c0,0,58.338-22.171,85.167,1.163c21.297,18.521,123.686,130.687,123.686,130.687"/>
		<path style="fill:none;stroke:#1B0242;stroke-width:7.001;stroke-linecap:round;stroke-linejoin:round;stroke-miterlimit:10;" d="
			M1321.934,2193.282c0,0-3.5,77.011,14.002,105.015s164.523,189.025,182.024,203.027c17.502,14.001,63.009,31.505,80.511,28.005
			c17.503-3.501,140.027-96.846,140.027-96.846"/>
		<path style="fill:none;stroke:#1B0242;stroke-width:7.001;stroke-linecap:round;stroke-linejoin:round;stroke-miterlimit:10;" d="
			M1353.445,2161.778c-11.664-18.671-9.298-25.413-17.509-35.004c-6.995-8.17,8.177-38.505,29.179-53.676"/>
		<path style="fill:none;stroke:#1B0242;stroke-width:7.001;stroke-linecap:round;stroke-linejoin:round;stroke-miterlimit:10;" d="
			M1421.109,2047.431c28.003-24.502,61.846-57.177,61.846-57.177l19.847,40.844c0,0,11.658,25.665,4.657,36.167
			c-4.766,7.144-45.691,45.383-84.005,71.178"/>
		<path style="fill:none;stroke:#1B0242;stroke-width:7.001;stroke-linecap:round;stroke-linejoin:round;stroke-miterlimit:10;" d="
			M1971.279,1741.14c0,0-29.283,51.194-32.093,60.096c-7.001,22.172-23.333,94.506-23.333,94.506l42.005-37.335"/>
		<path style="fill:none;stroke:#1B0242;stroke-width:7.001;stroke-linecap:round;stroke-linejoin:round;stroke-miterlimit:10;" d="
			M1960.204,1984.422c0,0,11.663,172.46,16.332,198.358c4.67,25.892,9.333,44.338,9.333,44.338"/>
		<path style="fill:none;stroke:#1B0242;stroke-width:7.001;stroke-linecap:round;stroke-linejoin:round;stroke-miterlimit:10;" d="
			M1780.503,2737.026c0,0-5.832,38.511-3.5,59.508c26.834,9.332,57.176,15.163,100.345,16.333c7.001,0.19,5.838-56.008,5.838-56.008
			"/>
		<path style="fill:none;stroke:#1B0242;stroke-width:7.001;stroke-linecap:round;stroke-linejoin:round;stroke-miterlimit:10;" d="
			M2267.069,2843.21c0,0,47.838,2.337,109.678-16.334"/>
		<path style="fill:none;stroke:#1B0242;stroke-width:7.001;stroke-linecap:round;stroke-linejoin:round;stroke-miterlimit:10;" d="
			M1332.441,1901.58c16.333-42.006,71.179-36.755,71.179-36.755s-9.66-25.344-4.663-49.587
			c7.582-36.755,39.886-54.756,32.667-18.671c-3.5,17.502,1.163,71.179-2.338,85.181c-3.5,14.002-33.835,46.668-37.335,74.672
			c-3.501,28.003,19.253,94.513,19.253,94.513l-22.754,33.255"/>
		<path style="fill:none;stroke:#1B0242;stroke-width:7.001;stroke-linecap:round;stroke-linejoin:round;stroke-miterlimit:10;" d="
			M1367.446,2078.935c0,0-54.25-107.346-66.509-136.518c-16.094-38.307,5.838-54.838,5.838-54.838"/>
		<path style="fill:none;stroke:#1B0242;stroke-width:7.001;stroke-linecap:round;stroke-linejoin:round;stroke-miterlimit:10;" d="
			M2005.408,1828.651c0,0,26.302-40.468,35.005-56.008c16.333-29.172,23.629-49.882,19.253-64.759"/>
		<path style="fill:none;stroke:#1B0242;stroke-width:7.001;stroke-linecap:round;stroke-linejoin:round;stroke-miterlimit:10;" d="
			M2849.319,2535.174c0,0,97.424,136.512,107.926,165.685c-1.168,9.334-15.165,26.843-19.834,53.676
			c-1.572,9.053-3.501,33.837-3.501,33.837"/>
		<path style="fill:none;stroke:#1B0242;stroke-width:7.001;stroke-linecap:round;stroke-linejoin:round;stroke-miterlimit:10;" d="
			M2597.276,2161.778c0,0,23.334-46.675,14.002-88.681c-9.331-42.006-39.667-161.022-39.667-161.022"/>
		
			<path style="fill:#1B0242;stroke:#1B0242;stroke-width:7.001;stroke-linecap:round;stroke-linejoin:round;stroke-miterlimit:10;" d="
			M2632.281,2003.088c-23.334-9.34,27.252-32.975,44.352-21.004C2699.966,1998.424,2647.604,2009.22,2632.281,2003.088z"/>
		
			<path style="fill:#1B0242;stroke:#1B0242;stroke-width:7.001;stroke-linecap:round;stroke-linejoin:round;stroke-miterlimit:10;" d="
			M2347.587,2320.476c-32.672-23.341-30.341-126.018-21.009-158.698c21.002,9.332,86.349,93.351,86.349,93.351
			S2387.515,2348.999,2347.587,2320.476z"/>
		<path style="fill:none;stroke:#1B0242;stroke-width:7.001;stroke-linecap:round;stroke-linejoin:round;stroke-miterlimit:10;" d="
			M1980.031,1857.236c0,0,4.08-29.74,9.331-54.832"/>
		
			<path style="fill:#1B0242;stroke:#1B0242;stroke-width:7.001;stroke-linecap:round;stroke-linejoin:round;stroke-miterlimit:10;" d="
			M1929.855,2348.473c0,0,15.169,15.752,11.671,39.674c-2.032,13.852-15.753,3.494-14.003,39.668
			c1.75,36.173-25.672,21.001-51.345,44.343L1929.855,2348.473z"/>
		
			<path style="fill:#1B0242;stroke:#1B0242;stroke-width:7.001;stroke-linecap:round;stroke-linejoin:round;stroke-miterlimit:10;" d="
			M2003.953,2832.121c0,0,1.743-41.419,5.83-61.834c11.664,2.331,29.756,5.25,29.756,5.25l-7.582,67.084
			C2031.957,2842.621,2016.205,2839.12,2003.953,2832.121z"/>
		
			<path style="fill:#1B0242;stroke:#1B0242;stroke-width:7.001;stroke-linecap:round;stroke-linejoin:round;stroke-miterlimit:10;" d="
			M2163.217,3069.571"/>
		
			<path style="fill:#1B0242;stroke:#1B0242;stroke-width:7.001;stroke-linecap:round;stroke-linejoin:round;stroke-miterlimit:10;" d="
			M1416.46,2068.434c0,0,36.98-25.673,46.491-37.924c9.511-12.251,20.005-40.255,20.005-40.255l-73.496,61.847L1416.46,2068.434z"/>
		
			<path style="fill:#1B0242;stroke:#1B0242;stroke-width:7.001;stroke-linecap:round;stroke-linejoin:round;stroke-miterlimit:10;" d="
			M2340.579,2950.555c0,0,105.022-2.332,116.685,7.002c11.664,9.331-16.34,39.675-16.34,39.675S2375.584,2978.559,2340.579,2950.555
			z"/>
		
			<path style="fill:#1B0242;stroke:#1B0242;stroke-width:7.001;stroke-linecap:round;stroke-linejoin:round;stroke-miterlimit:10;" d="
			M1831.841,3109.244c0,0,16.34,126.017,25.672,201.859c0,0-65.34-93.343-72.341-130.68c-7.001-37.336,12.833-72.34,12.833-72.34
			l-11.671-79.349l47.852,5.838L1831.841,3109.244z"/>
		
			<path style="fill:#1B0242;stroke:#1B0242;stroke-width:7.001;stroke-linecap:round;stroke-linejoin:round;stroke-miterlimit:10;" d="
			M1683.652,2464.568c0,0-72.341,28.006-63.009-7c9.332-35.005,56.007-56.007,70.009-81.674
			c14.001-25.665,11.691-57.169,24.517-99.763c12.942-42.983,51.338-67.671,51.338-67.671l-31.511,225.773L1683.652,2464.568z"/>
		
			<path style="fill:#1B0242;stroke:#1B0242;stroke-width:7.001;stroke-linecap:round;stroke-linejoin:round;stroke-miterlimit:10;" d="
			M2865.652,2557.339c0,0,42.681,8.662,59.515-8.164c16.34-16.332-12.839-67.677-12.839-67.677l-8.172-21.011
			c0,0-32.673,51.345-53.677,68.848C2855.149,2539.838,2865.652,2557.339,2865.652,2557.339z"/>
		<path style="fill:none;stroke:#1B0242;stroke-width:7.001;stroke-linecap:round;stroke-linejoin:round;stroke-miterlimit:10;" d="
			M1966.028,1673.755c0,0-370.736,81.728-523.417,114.895"/>
		
			<line style="fill:none;stroke:#1B0242;stroke-width:7.001;stroke-linecap:round;stroke-linejoin:round;stroke-miterlimit:10;" x1="1988.782" y1="1735.889" x2="1431.624" y2="1858.406"/>
		<path style="fill:none;stroke:#1B0242;stroke-width:7.001;stroke-linecap:round;stroke-linejoin:round;stroke-miterlimit:10;" d="
			M1406.109,1795.158c-222.158,48.227-365.376,79.553-384.581,82.904c-63.577,11.11-126.353,4.751-147.793-62.803
			c-24.162-76.081-114.155-800.646-118.92-849.926c-4.759-49.267,19.253-114.757,79.814-136.511
			c60.566-21.769,1774.236-332.552,1816.686-341.126c42.445-8.566,123.189-11.89,136.997,69.333
			c13.819,81.229,140.226,766.795,141.333,819.406c1.108,52.603-39.284,92.817-113.664,110.45
			c-32.557,7.705-367.871,81.406-740.152,162.82"/>
		<path style="fill:none;stroke:#1B0242;stroke-width:7.001;stroke-linecap:round;stroke-linejoin:round;stroke-miterlimit:10;" d="
			M2929.535,1382.341c0,0,0.273,57.662,0.417,64.184c1.095,52.617-39.285,92.818-113.669,110.45
			c-32.551,7.719-686.689,150.89-686.689,150.89"/>
		<path style="fill:none;stroke:#1B0242;stroke-width:7.001;stroke-linecap:round;stroke-linejoin:round;stroke-miterlimit:10;" d="
			M1349.944,1879.415c-222.15,48.235-308.911,65.395-328.101,68.752c-63.583,11.11-126.366,4.738-147.813-62.817
			c-24.149-76.081-114.149-800.645-118.908-849.919c-2.385-24.633-6.864-83.095,6.112-108.343"/>
		
			<line style="fill:none;stroke:#1B0242;stroke-width:7.001;stroke-linecap:round;stroke-linejoin:round;stroke-miterlimit:10;" x1="1161.007" y1="1814.773" x2="1015" y2="816.445"/>
		
			<line style="fill:none;stroke:#1B0242;stroke-width:7.001;stroke-linecap:round;stroke-linejoin:round;stroke-miterlimit:10;" x1="2681.488" y1="1489.933" x2="2522.658" y2="518.119"/>
		<path style="fill:none;stroke:#1B0242;stroke-width:7.001;stroke-linecap:round;stroke-linejoin:round;stroke-miterlimit:10;" d="
			M2710.455,957.409l-13.701-89.639c-4.376-22.752,13.126-34.13,19.859-2.542l31.793,210.945"/>
		
			<line style="fill:none;stroke:#1B0242;stroke-width:7.001;stroke-linecap:round;stroke-linejoin:round;stroke-miterlimit:10;" x1="2727.964" y1="1071.967" x2="2715.098" y2="987.812"/>
		<path style="fill:none;stroke:#1B0242;stroke-width:7.001;stroke-linecap:round;stroke-linejoin:round;stroke-miterlimit:10;" d="
			M2389.594,2243.465c0,0-18.665,16.333-16.334,37.336c2.331,21.003,4.663,84.011-11.671,112.015
			c-16.333,28.004-81.679,175.024-81.679,182.024"/>
		<path style="fill:none;stroke:#1B0242;stroke-width:7.001;stroke-linecap:round;stroke-linejoin:round;stroke-miterlimit:10;" d="
			M2471.26,2647.175c0,0-31.504,7.002-35.004,14.001c-3.501,7.003,39.675,2.348,28.01,18.681
			c-25.775,36.092-158.049,59.05-182.024,79.341c-30.343,25.672-152.86,37.343-241.541,33.844"/>
		<path style="fill:none;stroke:#1B0242;stroke-width:7.001;stroke-linecap:round;stroke-linejoin:round;stroke-miterlimit:10;" d="
			M1847.012,3286.602c-3.5,84.012-41.991,67.451-76.367,95.722c-7.268,5.983,6.836,37.979-0.644,44.297
			c-5.784,4.882-33.117-15.964-38.929-10.98c-10.138,8.697-3.706,30.314-13.578,38.983c-8.868,7.794-37.542,0.069-42.402,10.105
			c-18.856,38.901-25.542,6.501-32.271,13.23c-17.502,17.502-140.02,189.023-140.02,189.023l-79.335,131.851
			c0,0,2.325,50.176-8.176,67.679c-10.501,17.502-124.848,138.856-124.848,138.856"/>
		<path style="fill:none;stroke:#1B0242;stroke-width:7.001;stroke-linecap:round;stroke-linejoin:round;stroke-miterlimit:10;" d="
			M2856.032,3564.978c0,0,17.501,58.169-46.381,97.345c-53.37,32.727-99.142,21.646-134.771,42.004
			c-22.238,12.711-26.895,37.973-48.998,49.014c-28.012,13.994-52.31,0.548-75.268,8.744c-24.504,8.752-30.629,40.927-30.629,40.927
			"/>
		<path style="fill:none;stroke:#1B0242;stroke-width:7.001;stroke-linecap:round;stroke-linejoin:round;stroke-miterlimit:10;" d="
			M2564.616,2304.128c0,0,7.002,58.346-42.005,67.678c0,0,28.004,16.34,58.34-11.663"/>
		<path style="fill:none;stroke:#1B0242;stroke-width:7.001;stroke-linecap:round;stroke-linejoin:round;stroke-miterlimit:10;" d="
			M1243.768,3968.026c0,0-169.165,267.067-183.967,284.829c-14.809,17.77-44.412,65.148-44.412,65.148l-35.538-44.419l29.611-41.451
			c0,0-97.712-5.921-124.363-23.692c-26.65-17.76-74.023-151.009-56.261-165.813c8.205-6.836,56.718,91.087,116.227,136.594
			c0,0,52.555,11.459,79.205-3.35c26.644-14.809,168.16-196.178,168.16-196.178"/>
		<path style="fill:none;stroke:#1B0242;stroke-width:7.001;stroke-linecap:round;stroke-linejoin:round;stroke-miterlimit:10;" d="
			M2735.642,3931.359c0,0,157.453,250.824,169.678,265.366c28.01,18.671,36.427,62.352,36.427,62.352l-29.904,36.332l-18.188-42.677
			c0,0-36.255,67.521-54.475,86.492c-18.234,18.975-156.271,24.532-165.671,8.021c-4.342-7.622,94.129-25.672,140.799-49.006
			c0,0,36.111-63.817,28.004-87.513c-8.124-23.697-148.185-266.035-148.185-266.035"/>
		
			<path style="fill:#1B0242;stroke:#1B0242;stroke-width:7.001;stroke-linecap:round;stroke-linejoin:round;stroke-miterlimit:10;" d="
			M1183.097,3984.365c0,0-17.125,73.358-4.676,82.843l35.004-49.007l31.504-52.508l-37.521-12.464L1183.097,3984.365z"/>
		<path style="fill:none;stroke:#1B0242;stroke-width:7.001;stroke-linecap:round;stroke-linejoin:round;stroke-miterlimit:10;" d="
			M2078.665,2583.448l-32.071,3.55c0,0,28.558-31.936,100.312-60.118"/>
		<path style="fill:#FFFFFF;" d="M1052.15,1361.946c11.062,39.887-14.583,81.858-57.307,93.707
			c-42.716,11.861-86.322-10.884-97.392-50.819c-11.069-39.893,14.583-81.851,57.294-93.692
			C997.462,1299.286,1041.074,1322.019,1052.15,1361.946z"/>
		
			<path style="fill:#1B0242;stroke:#1B0242;stroke-width:7.001;stroke-linecap:round;stroke-linejoin:round;stroke-miterlimit:10;" d="
			M882.049,4381.09c7.521-15.049,380.391-46.676,464.401,0c130.688-21.003,260.458-4.616,270.707-2.34
			c63.008,14.002-67.678,30.342-105.014,31.504c-30.459,0.951-205.462-13.345-276.539-10.501
			C1148.092,4403.254,877.379,4390.428,882.049,4381.09z"/>
		
			<path style="fill:#1B0242;stroke:#1B0242;stroke-width:7.001;stroke-linecap:round;stroke-linejoin:round;stroke-miterlimit:10;" d="
			M2970.673,4371.755c-3.233-9.708-119.018-18.669-170.04-19.121c-35.332,7.453-86.09,6.569-107.674,5.122
			c-34.998-2.348-21.03-13.278-21.03-13.278c-32.544-0.116-71.596,8.714-89.815,13.271
			c-150.521-35.004-527.403,28.011-537.905,28.011c-77.009,0-86.343,18.671,160.632,24.495c59.488,1.402,343.438-1.162,461.283-14
			C2753.636,4399.753,2977.674,4392.76,2970.673,4371.755z"/>
		
			<path style="fill:#1B0242;stroke:#1B0242;stroke-width:7.001;stroke-linecap:round;stroke-linejoin:round;stroke-miterlimit:10;" d="
			M2767.646,3979.695c0,0,32.672,38.506,18.67,49.007c-14.001,10.502-61.176-30.834-61.176-30.834l-39.379-42.675l49.006-33.256
			L2767.646,3979.695z"/>
		
			<path style="fill:#1B0242;stroke:#1B0242;stroke-width:7.001;stroke-linecap:round;stroke-linejoin:round;stroke-miterlimit:10;" d="
			M2303.306,2840.344c20.352-5.175,9.729,56.911,9.729,56.911S2282.672,2845.596,2303.306,2840.344z"/>
		
			<path style="fill:#1B0242;stroke:#1B0242;stroke-width:7.001;stroke-linecap:round;stroke-linejoin:round;stroke-miterlimit:10;" d="
			M2403.588,3283.101c0,0-28.004-70.011-3.501-70.011s59.51,38.507,59.51,38.507s-24.504-14.001-35.007,7
			c-10.501,21.003-6.999,63.009-6.999,63.009L2403.588,3283.101z"/>
		<path style="fill:none;stroke:#1B0242;stroke-width:7.001;stroke-linecap:round;stroke-linejoin:round;stroke-miterlimit:10;" d="
			M2491.106,1987.93c0,0,24.777-23.75,30.334-60.677c6.414-42.594-23.339-72.348-23.339-72.348"/>
		<path style="fill:none;stroke:#1B0242;stroke-width:7.001;stroke-linecap:round;stroke-linejoin:round;stroke-miterlimit:10;" d="
			M1433.962,2365.981c0,0,8.164,65.334,23.335,84.013"/>
		
			<line style="fill:none;stroke:#1B0242;stroke-width:7.001;stroke-linecap:round;stroke-linejoin:round;stroke-miterlimit:10;" x1="1299.098" y1="3181.717" x2="1280.611" y2="3081.119"/>
		<path style="fill:none;stroke:#1B0242;stroke-width:7.001;stroke-linecap:round;stroke-linejoin:round;stroke-miterlimit:10;" d="
			M2059.666,3628.568c0,0,0,80.511,10.502,115.516"/>
		
			<line style="fill:none;stroke:#1B0242;stroke-width:7.001;stroke-linecap:round;stroke-linejoin:round;stroke-miterlimit:10;" x1="967.231" y1="3610.977" x2="995.233" y2="3596.976"/>
		
			<path style="fill:#FFFFFF;stroke:#1B0242;stroke-width:7.001;stroke-linecap:round;stroke-linejoin:round;stroke-miterlimit:10;" d="
			M1468.871,857.74c-26.615,6.926-39.045,22.938-34.389,58.715c4.587,35.264,19.792,146.221,24.777,180.514
			c5.271,36.112,26.752,43.674,57.723,36.892c31.436-6.898,763.296-175.899,763.296-175.899l6.07,53.144l31.636-61.867
			c0,0,106.17-25.017,112.526-26.93c26.338-7.911,33.243-28.462,28.921-56.958c-7.459-49.157-18.022-137.653-24.736-173.78
			c-2.222-11.936-6.501-50.435-56.116-39.092C2328.266,663.977,1495.022,850.951,1468.871,857.74z"/>
		
			<path style="fill:#1B0242;stroke:#1B0242;stroke-width:7.001;stroke-linecap:round;stroke-linejoin:round;stroke-miterlimit:10;" d="
			M1671.96,4393.764c4.902-21.87,165.001-7.604,199.562,1.326c34.567,8.93-32.359,12.067-81.681,16.334
			C1740.521,4415.702,1667.298,4414.535,1671.96,4393.764z"/>
		
			<path style="fill:#1B0242;stroke:#1B0242;stroke-width:7.001;stroke-linecap:round;stroke-linejoin:round;stroke-miterlimit:10;" d="
			M712.857,4378.75c14.001-28.004,52.507-14,66.509-7.001C800.369,4382.251,709.356,4385.75,712.857,4378.75z"/>
		
			<line style="fill:none;stroke:#1B0242;stroke-width:7.001;stroke-linecap:round;stroke-linejoin:round;stroke-miterlimit:10;" x1="1139.916" y1="4154.719" x2="1129.414" y2="4130.217"/>
		
			<line style="fill:none;stroke:#1B0242;stroke-width:7.001;stroke-linecap:round;stroke-linejoin:round;stroke-miterlimit:10;" x1="912.384" y1="3115.077" x2="933.387" y2="3125.579"/>
		
			<line style="fill:none;stroke:#1B0242;stroke-width:7.001;stroke-linecap:round;stroke-linejoin:round;stroke-miterlimit:10;" x1="1412.953" y1="4340.244" x2="1391.95" y2="4361.248"/>
		
			<line style="fill:none;stroke:#1B0242;stroke-width:7.001;stroke-linecap:round;stroke-linejoin:round;stroke-miterlimit:10;" x1="656.85" y1="4350.746" x2="639.347" y2="4340.244"/>
		
			<line style="fill:none;stroke:#1B0242;stroke-width:7.001;stroke-linecap:round;stroke-linejoin:round;stroke-miterlimit:10;" x1="2148.054" y1="2992.561" x2="2130.551" y2="3013.563"/>
		
			<line style="fill:none;stroke:#1B0242;stroke-width:7.001;stroke-linecap:round;stroke-linejoin:round;stroke-miterlimit:10;" x1="2484.101" y1="4084.711" x2="2487.602" y2="4028.702"/>
		
			<polygon style="fill:#1B0242;stroke:#1B0242;stroke-width:7.001;stroke-linecap:round;stroke-linejoin:round;stroke-miterlimit:10;" points="
			2049.458,1652.458 2057.041,1678.13 2114.225,1711.392 2548.277,1615.704 2592.614,1536.361 		"/>
		
			<polygon style="fill:#1B0242;stroke:#1B0242;stroke-width:7.001;stroke-linecap:round;stroke-linejoin:round;stroke-miterlimit:10;" points="
			1747.829,1723.048 1706.992,1795.397 1801.506,1774.394 1843.512,1702.634 		"/>
		
			<polygon style="fill:#1B0242;stroke:#1B0242;stroke-width:7.001;stroke-linecap:round;stroke-linejoin:round;stroke-miterlimit:10;" points="
			1112.493,1863.068 1071.656,1935.416 1166.169,1914.413 1208.175,1839.152 		"/>
		
			<polygon style="fill:#1B0242;stroke:#1B0242;stroke-width:7.001;stroke-linecap:round;stroke-linejoin:round;stroke-miterlimit:10;" points="
			1896.601,1689.795 1855.764,1762.142 1883.767,1755.142 1925.773,1683.381 		"/>
		
			<polygon style="fill:#1B0242;stroke:#1B0242;stroke-width:7.001;stroke-linecap:round;stroke-linejoin:round;stroke-miterlimit:10;" points="
			1974.779,1699.133 1951.445,1744.64 1983.531,1736.764 		"/>
		
			<polygon style="fill:#1B0242;stroke:#1B0242;stroke-width:7.001;stroke-linecap:round;stroke-linejoin:round;stroke-miterlimit:10;" points="
			2638.701,1528.772 2597.866,1601.12 2653.872,1588.869 2695.879,1517.109 		"/>
		
			<path style="fill:#1B0242;stroke:#1B0242;stroke-width:7.001;stroke-linecap:round;stroke-linejoin:round;stroke-miterlimit:10;" d="
			M2865.652,1538.111l-15.752,7.876l58.338-105.603l20.421-33.541c0,0,6.127,48.131-6.126,75.26
			C2913.763,1501.528,2888.405,1527.61,2865.652,1538.111z"/>
		
			<polygon style="fill:#1B0242;stroke:#1B0242;stroke-width:7.001;stroke-linecap:round;stroke-linejoin:round;stroke-miterlimit:10;" points="
			2733.214,1507.77 2692.378,1580.118 2708.131,1574.867 2750.137,1503.107 		"/>
		
			<polygon style="fill:#1B0242;stroke:#1B0242;stroke-width:7.001;stroke-linecap:round;stroke-linejoin:round;stroke-miterlimit:10;" points="
			1435.125,1788.402 1432.787,1853.736 1640.49,1809.406 1682.489,1737.051 		"/>
		
			<path style="fill:#1B0242;stroke:#1B0242;stroke-width:7.001;stroke-linecap:round;stroke-linejoin:round;stroke-miterlimit:10;" d="
			M756.038,955.289l109.678,830.783c0,0,1.312,34.123,24.612,63.001c7.766,9.626,26.145,19.834,39.559,26.835l-29.167,52.514
			c0,0-25.673-16.347-35.004-74.679c-11.282-70.501-110.594-818.313-110.594-818.313S749.038,994.963,756.038,955.289z"/>
		
			<path style="fill:#1B0242;stroke:#1B0242;stroke-width:7.001;stroke-linecap:round;stroke-linejoin:round;stroke-miterlimit:10;" d="
			M1274.684,1825.151l-40.255,75.261l109.69-18.665c0,0,30.335-19.833,59.501-16.922c0,0-19.84-41.424,1.163-67.097
			L1274.684,1825.151z"/>
		<g>
			<path style="fill:#1B0242;" d="M1591.628,960.458c-9.052,1.538-15.15,10.132-13.605,19.197
				c1.539,9.066,10.132,15.158,19.191,13.613c9.072-1.539,15.157-10.132,13.619-19.198
				C1609.287,965.003,1600.693,958.912,1591.628,960.458z"/>
			<path style="fill:#1B0242;" d="M1643.704,951.597c-9.065,1.538-15.164,10.132-13.619,19.198
				c1.545,9.059,10.132,15.158,19.198,13.612c9.065-1.539,15.157-10.132,13.612-19.198
				C1661.351,956.144,1652.763,950.052,1643.704,951.597z"/>
			<path style="fill:#1B0242;" d="M1695.768,942.736c-9.073,1.538-15.158,10.139-13.619,19.198
				c1.544,9.066,10.132,15.157,19.197,13.612c9.066-1.545,15.157-10.132,13.612-19.198
				C1713.419,947.29,1704.833,941.191,1695.768,942.736z"/>
		</g>
		<path style="fill:none;stroke:#1B0242;stroke-width:7.001;stroke-linecap:round;stroke-linejoin:round;stroke-miterlimit:10;" d="
			M1027.073,1342.221c11.718,42.259-13.4,86.152-56.118,97.993c-42.716,11.869-86.855-12.798-98.587-55.105
			c-11.719-42.259,13.4-86.137,56.11-97.979C971.195,1275.275,1015.341,1299.929,1027.073,1342.221z"/>
		
			<path style="fill:#1B0242;stroke:#1B0242;stroke-width:7.001;stroke-linecap:round;stroke-linejoin:round;stroke-miterlimit:10;" d="
			M1708.743,2728.275l-1.75,38.505l-28.003-12.252l3.336-38.178C1699.993,2723.023,1708.743,2728.275,1708.743,2728.275z"/>
		
			<path style="fill:#1B0242;stroke:#1B0242;stroke-width:7.001;stroke-linecap:round;stroke-linejoin:round;stroke-miterlimit:10;" d="
			M1937.15,1370.964c0,0,51.336-8.17,56.007,24.503c2.953,20.661,11.376,56.883,11.376,56.883
			c3.5-19.253,42.006-40.255,45.507,7.001c1.319,17.796-6.419,46.675-29.754,59.507c8.75,28.004,21.003,43.756,21.003,43.756
			s20.414-22.165,36.755-66.508c16.339-44.345,22.753-85.181,1.75-129.518c-21.242-44.844-99.763-49.007-99.763-49.007
			S1959.026,1344.71,1937.15,1370.964z"/>
		
			<path style="fill:#1B0242;stroke:#1B0242;stroke-width:7.001;stroke-linecap:round;stroke-linejoin:round;stroke-miterlimit:10;" d="
			M2004.533,1339.46c0,0-19.252,33.255-17.502,87.511c0.458,14.187,4.431,52.48,12.839,44.057
			c9.913-9.928,29.844-40.741,29.844-40.741s21.482-19.956,19.156-49.116C2046.546,1352.011,2004.533,1339.46,2004.533,1339.46z"/>
		<path style="fill:none;stroke:#1B0242;stroke-width:7.001;stroke-linecap:round;stroke-linejoin:round;stroke-miterlimit:10;" d="
			M1995.781,1821.65c0,0,2.817-23.122,1.17-33.842c-3.501-22.752-43.175-165.684-43.175-165.684"/>
		
			<line style="fill:none;stroke:#1B0242;stroke-width:7.001;stroke-linecap:round;stroke-linejoin:round;stroke-miterlimit:10;" x1="2061.703" y1="1718.394" x2="2029.036" y2="1538.111"/>
		<path style="fill:none;stroke:#1B0242;stroke-width:7.001;stroke-linecap:round;stroke-linejoin:round;stroke-miterlimit:10;" d="
			M1974.779,1608.122c0,0-31.504,31.504-75.26,40.255c-27.73,5.545-29.753-17.502-31.504-42.005
			c-1.62-22.767-12.6-150.588-10.501-182.025c2.01-30.137,3.5-61.258,36.755-70.01c42.313-11.137,84.011-15.752,84.011-15.752"/>
		
			<path style="fill:#1B0242;stroke:#1B0242;stroke-width:7.001;stroke-linecap:round;stroke-linejoin:round;stroke-miterlimit:10;" d="
			M1872.411,1512.637c0,0-43.449-15.635-34.547,0.876c8.916,16.517,26.007,6.7,26.007,6.7L1872.411,1512.637z"/>
		
			<path style="fill:#1B0242;stroke:#1B0242;stroke-width:5.5347;stroke-linecap:round;stroke-linejoin:round;stroke-miterlimit:10;" d="
			M1897.058,1434.567c11.794-3.801,10.208,39.38,1.457,39.38S1888.908,1437.192,1897.058,1434.567z"/>
		
			<path style="fill:#1B0242;stroke:#1B0242;stroke-width:5.5347;stroke-linecap:round;stroke-linejoin:round;stroke-miterlimit:10;" d="
			M1851.552,1439.483c8.56-0.021,10.207,39.387,1.457,39.387C1844.257,1478.871,1840.592,1439.517,1851.552,1439.483z"/>
		<path style="fill:none;stroke:#1B0242;stroke-width:7.001;stroke-linecap:round;stroke-linejoin:round;stroke-miterlimit:10;" d="
			M1900.395,1567.865c2.332,14.296,17.502,31.504,28.879,25.378c11.443-6.16,22.754-30.629,23.923-55.713"/>
		
			<path style="fill:#1B0242;stroke:#1B0242;stroke-width:7.001;stroke-linecap:round;stroke-linejoin:round;stroke-miterlimit:10;" d="
			M1970.697,1286.658c0,0,18.085,29.174,54.839,39.675c0,0,46.58,21.331-2.331,26.834c-48.924,5.511-79.93-12.833-79.93-12.833
			s-53.56-25.064-50.757-75.26c1.422-25.202,36.701-51.181,75.179-40.475C2008.731,1236.038,2032.448,1292.292,1970.697,1286.658z"
			/>
		
			<path style="fill:#1B0242;stroke:#1B0242;stroke-width:7.001;stroke-linecap:round;stroke-linejoin:round;stroke-miterlimit:10;" d="
			M1925.295,1299.478c0,0,20.708,30.718,46.927,35.224c0,0,68.11,38.71,20.061,49.39c-78.761,17.501-133.723-26.063-133.723-26.063
			s-31.333-19.978-29.05-70.201c1.75-38.505,39.647-67.603,78.76-59.509C1959.026,1238.821,1987.045,1305.111,1925.295,1299.478z"/>
		
			<line style="fill:none;stroke:#1B0242;stroke-width:7.001;stroke-linecap:round;stroke-linejoin:round;stroke-miterlimit:10;" x1="1893.688" y1="1569.035" x2="1953.196" y2="1538.692"/>
		
			<line style="fill:none;stroke:#1B0242;stroke-width:7.001;stroke-linecap:round;stroke-linejoin:round;stroke-miterlimit:10;" x1="670.851" y1="3902.686" x2="684.852" y2="3927.189"/>
		
			<line style="fill:none;stroke:#1B0242;stroke-width:7.001;stroke-linecap:round;stroke-linejoin:round;stroke-miterlimit:10;" x1="520.331" y1="3993.697" x2="565.837" y2="4011.2"/>
		
			<line style="fill:none;stroke:#1B0242;stroke-width:7.001;stroke-linecap:round;stroke-linejoin:round;stroke-miterlimit:10;" x1="3016.172" y1="4095.211" x2="2977.668" y2="4123.214"/>
		
			<line style="fill:none;stroke:#1B0242;stroke-width:7.001;stroke-linecap:round;stroke-linejoin:round;stroke-miterlimit:10;" x1="3096.683" y1="4210.728" x2="3079.18" y2="4203.727"/>
		
			<line style="fill:none;stroke:#1B0242;stroke-width:7.001;stroke-linecap:round;stroke-linejoin:round;stroke-miterlimit:10;" x1="1101.41" y1="640.238" x2="1115.412" y2="654.241"/>
		
			<path style="fill:#1B0242;stroke:#1B0242;stroke-width:7.001;stroke-linecap:round;stroke-linejoin:round;stroke-miterlimit:10;" d="
			M1971.279,1940.667c0,0,22.752,95.682,22.752,105.014c0,9.333-43.755,89.263-43.755,89.263l10.501-187.276L1971.279,1940.667z"/>
		
			<path style="fill:#1B0242;stroke:#1B0242;stroke-width:7.001;stroke-linecap:round;stroke-linejoin:round;stroke-miterlimit:10;" d="
			M2380.261,2257.46c5.791-0.964,31.923-8.218,42.581,7.001c23.496,33.549,32.692,108.508,13.427,121.348
			C2408.264,2404.473,2352.257,2262.129,2380.261,2257.46z"/>
		<path style="fill:none;stroke:#1B0242;stroke-width:7.001;stroke-linecap:round;stroke-linejoin:round;stroke-miterlimit:10;" d="
			M1782.841,2894.548c0,0-2.332,60.669,1.162,101.514c4.67,7,45.513,36.174,45.513,36.174"/>
		
			<line style="fill:none;stroke:#1B0242;stroke-width:7.001;stroke-linecap:round;stroke-linejoin:round;stroke-miterlimit:10;" x1="1787.511" y1="2801.204" x2="1787.511" y2="2833.877"/>
		
			<line style="fill:none;stroke:#1B0242;stroke-width:7.001;stroke-linecap:round;stroke-linejoin:round;stroke-miterlimit:10;" x1="1318.44" y1="3633.148" x2="1468.96" y2="3601.644"/>
		
			<line style="fill:none;stroke:#1B0242;stroke-width:7.001;stroke-linecap:round;stroke-linejoin:round;stroke-miterlimit:10;" x1="1598.479" y1="3230.593" x2="1661.486" y2="3262.098"/>
		
			<line style="fill:none;stroke:#1B0242;stroke-width:7.001;stroke-linecap:round;stroke-linejoin:round;stroke-miterlimit:10;" x1="1706.992" y1="3097.574" x2="1759.5" y2="3174.585"/>
		
			<line style="fill:none;stroke:#1B0242;stroke-width:7.001;stroke-linecap:round;stroke-linejoin:round;stroke-miterlimit:10;" x1="1899.519" y1="2064.934" x2="1941.526" y2="2176.949"/>
		
			<line style="fill:none;stroke:#1B0242;stroke-width:7.001;stroke-linecap:round;stroke-linejoin:round;stroke-miterlimit:10;" x1="1878.516" y1="2153.622" x2="1936.855" y2="2264.468"/>
		
			<line style="fill:none;stroke:#1B0242;stroke-width:7.001;stroke-linecap:round;stroke-linejoin:round;stroke-miterlimit:10;" x1="1855.176" y1="2179.281" x2="1917.021" y2="2295.965"/>
		<path style="fill:none;stroke:#1B0242;stroke-width:7.001;stroke-linecap:round;stroke-linejoin:round;stroke-miterlimit:10;" d="
			M1897.188,1398.673c0,0,17.502-7.001,23.341,11.671"/>
		<path style="fill:none;stroke:#1B0242;stroke-width:7.001;stroke-linecap:round;stroke-linejoin:round;stroke-miterlimit:10;" d="
			M1845.85,1391.672c0,0-10.508,4.67-11.671,16.341"/>
		
			<path style="fill:#1B0242;stroke:#1B0242;stroke-width:7.001;stroke-linecap:round;stroke-linejoin:round;stroke-miterlimit:10;" d="
			M1978.279,1858.406l1.752-71.76l1.748-51.632c0,0,14.879,42.006,12.252,70.885c-0.799,8.8-0.874,29.754-5.249,52.508H1978.279z"/>
		
			<path style="fill:#1B0242;stroke:#1B0242;stroke-width:7.001;stroke-linecap:round;stroke-linejoin:round;stroke-miterlimit:10;" d="
			M2030.788,1903.911c0,0-31.505,14.002-31.505,1.75l15.752-33.255L2030.788,1903.911z"/>
		
			<line style="fill:none;stroke:#1B0242;stroke-width:7.001;stroke-linecap:round;stroke-linejoin:round;stroke-miterlimit:10;" x1="3108.354" y1="2660.015" x2="3146.859" y2="2674.018"/>
		<path style="fill:none;stroke:#1B0242;stroke-width:7.001;stroke-linecap:round;stroke-linejoin:round;stroke-miterlimit:10;" d="
			M2291.573,3265.599c62.297-2.899,153.188-26.583,210.027-56.022c80.484-41.699,114.354-86.342,87.513-108.502
			c0,0,14.002-17.5,42.006-17.5"/>
		<path style="fill:none;stroke:#1B0242;stroke-width:7.001;stroke-linecap:round;stroke-linejoin:round;stroke-miterlimit:10;" d="
			M1948.525,1746.39c0,0-75.26,50.757-136.518,119.017c-15.752,31.505-31.504,12.251-40.256,49.007"/>
		<path style="fill:none;stroke:#1B0242;stroke-width:7.001;stroke-linecap:round;stroke-linejoin:round;stroke-miterlimit:10;" d="
			M1775.84,1942.424c0,0-51.345,87.504-63.596,108.507c-12.251,21.003-36.748,68.84-36.748,68.84"/>
		<path style="fill:none;stroke:#1B0242;stroke-width:7.001;stroke-linecap:round;stroke-linejoin:round;stroke-miterlimit:10;" d="
			M2965.414,2773.206c0,0,51.34,92.183,66.51,115.517c9.395,14.446,23.334,7,15.677-15.376
			c-10.515-30.732-28.516-83.806-28.516-83.806"/>
		
			<line style="fill:none;stroke:#1B0242;stroke-width:7.001;stroke-linecap:round;stroke-linejoin:round;stroke-miterlimit:10;" x1="2923.971" y1="2101.108" x2="2900.636" y2="2133.781"/>
		
			<line style="fill:none;stroke:#1B0242;stroke-width:7.001;stroke-linecap:round;stroke-linejoin:round;stroke-miterlimit:10;" x1="698.855" y1="2046.269" x2="740.86" y2="2064.934"/>
		
			<line style="fill:none;stroke:#1B0242;stroke-width:7.001;stroke-linecap:round;stroke-linejoin:round;stroke-miterlimit:10;" x1="1061.722" y1="2455.817" x2="1076.907" y2="2449.986"/>
		
			<line style="fill:none;stroke:#1B0242;stroke-width:7.001;stroke-linecap:round;stroke-linejoin:round;stroke-miterlimit:10;" x1="2956.65" y1="1032.286" x2="2928.646" y2="1120.967"/>
		
			<line style="fill:none;stroke:#1B0242;stroke-width:7.001;stroke-linecap:round;stroke-linejoin:round;stroke-miterlimit:10;" x1="2228.55" y1="481.548" x2="2172.544" y2="579.562"/>
		
			<line style="fill:none;stroke:#1B0242;stroke-width:7.001;stroke-linecap:round;stroke-linejoin:round;stroke-miterlimit:10;" x1="1046.551" y1="1190.976" x2="1107.228" y2="1214.31"/>
		
			<line style="fill:none;stroke:#1B0242;stroke-width:7.001;stroke-linecap:round;stroke-linejoin:round;stroke-miterlimit:10;" x1="2874.826" y1="582.063" x2="2889.149" y2="563.065"/>
		
			<line style="fill:none;stroke:#1B0242;stroke-width:7.001;stroke-linecap:round;stroke-linejoin:round;stroke-miterlimit:10;" x1="2205.209" y1="1494.349" x2="2233.213" y2="1503.688"/>
		
			<line style="fill:none;stroke:#1B0242;stroke-width:7.001;stroke-linecap:round;stroke-linejoin:round;stroke-miterlimit:10;" x1="2363.9" y1="1653.04" x2="2359.229" y2="1671.71"/>
		<path style="fill:none;stroke:#1B0242;stroke-width:7.001;stroke-linecap:round;stroke-linejoin:round;stroke-miterlimit:10;" d="
			M3106.311,2832.414c0,0,6.562-10.502-2.046-30.041c-5.503-12.498-31.504-57.179-31.504-57.179
			c-65.34-105.013-169.772-287.038-169.772-287.038"/>
		<path style="fill:none;stroke:#1B0242;stroke-width:7.001;stroke-linecap:round;stroke-linejoin:round;stroke-miterlimit:10;" d="
			M3072.617,2772.468c0,0,30.521,59.687,35.879,72.197c5.251,12.252-1.311,21.441-5.395,23.049"/>
		<path style="fill:none;stroke:#1B0242;stroke-width:7.001;stroke-linecap:round;stroke-linejoin:round;stroke-miterlimit:10;" d="
			M3052.489,2779.907c0,0,41.542,84.708,44.774,92.476c4.671,11.226,8.785,21.438,0.73,26.103
			c-8.312,4.813-16.626-7.001-16.626-7.001l-54.694-80.073"/>
		
			<line style="fill:none;stroke:#1B0242;stroke-width:7.001;stroke-linecap:round;stroke-linejoin:round;stroke-miterlimit:10;" x1="2261.817" y1="4410.254" x2="2286.321" y2="4424.258"/>
		
			<line style="fill:none;stroke:#1B0242;stroke-width:7.001;stroke-linecap:round;stroke-linejoin:round;stroke-miterlimit:10;" x1="3331.216" y1="3129.078" x2="3292.711" y2="3108.076"/>
		
			<line style="fill:none;stroke:#1B0242;stroke-width:7.001;stroke-linecap:round;stroke-linejoin:round;stroke-miterlimit:10;" x1="3037.175" y1="1672.88" x2="3019.672" y2="1672.88"/>
	</g>
</g>
</svg>
