<?xml version="1.0" encoding="UTF-8"?><svg id="uuid-536952bd-819d-48ad-b7c2-d8c2c2a25d8c" xmlns="http://www.w3.org/2000/svg" viewBox="0 0 519.88 408.13"><defs><style>.uuid-5bba12bb-1840-4d51-b476-db6c37ae697f{fill:#282d33;}.uuid-cc61cfd3-6a5c-42c8-8ede-15274b8c8431{fill:#0e74bb;}.uuid-59acb2e6-67dd-4e60-ba05-089111371a04{fill:#fff;}.uuid-17e2f05a-8fb6-4165-a75d-7b9bea079909{fill:#080717;}</style></defs><polygon class="uuid-cc61cfd3-6a5c-42c8-8ede-15274b8c8431" points="180.41 18.93 149.15 89.51 199.66 145.73 126.45 143.31 110.03 229.87 71.6 152.96 0 120.35 70.06 81.63 55 9.95 107.8 50.34 180.41 18.93"/><polygon class="uuid-cc61cfd3-6a5c-42c8-8ede-15274b8c8431" points="204.81 82.48 150.45 120.52 167.63 198.83 99.59 149.22 33.68 207.67 52.08 123.73 13.56 53.74 92.67 65.93 124.58 0 141.67 64.24 204.81 82.48"/><path class="uuid-5bba12bb-1840-4d51-b476-db6c37ae697f" d="M97.04,142.75l-36.28-32.99,12.3-13.53c-4.66-15.81-.75-33.06,10.33-45.24,8.5-9.35,20.14-14.83,32.76-15.43,12.66-.61,24.73,3.75,34.07,12.25,19.3,17.55,20.73,47.53,3.18,66.83-11.08,12.18-27.88,17.71-44.06,14.57l-12.3,13.53ZM65.62,109.53l31.18,28.35,11.31-12.44.97.21c15.3,3.31,31.29-1.8,41.76-13.32,7.88-8.67,11.92-19.89,11.36-31.59-.56-11.7-5.64-22.49-14.31-30.37-8.67-7.88-19.9-11.94-31.59-11.36-11.7.56-22.49,5.64-30.37,14.3h0c-10.48,11.52-14.04,27.93-9.3,42.84l.3.95-11.31,12.44Z"/><path class="uuid-17e2f05a-8fb6-4165-a75d-7b9bea079909" d="M86.3,132.18c-.39,0-.79-.13-1.11-.41-.73-.62-.81-1.7-.2-2.43.94-1.1,15.54-18.28,28.76-32.03-.76-.44-1.5-.9-2.19-1.39-2.35-1.67-4.41-3.64-6.12-5.79-11.58,13.22-28.78,30.84-29.67,31.74-.66.68-1.76.69-2.44.03-.68-.66-.69-1.76-.03-2.44.22-.23,18.46-18.9,30.1-32.25-2.28-3.76-3.52-7.9-3.48-11.94.06-4.91,2.03-8.92,5.55-11.31,2.47-1.67,6.47-.91,8.92,1.7,1.35,1.44,5.18,6.86-2.12,16.28-1.27,1.63-2.81,3.51-4.55,5.54,1.49,1.98,3.41,3.9,5.83,5.62.82.59,1.72,1.13,2.68,1.63,6.26-6.38,11.98-11.68,15.46-13.71,2.87-1.67,8.97-.83,12.54,2.74,1.87,1.87,4.44,5.98.66,12.43-1.44,2.46-4.24,4.2-8.11,5.03-6.01,1.29-13.57.31-19.8-2.33-13.52,14.01-29.14,32.38-29.38,32.66-.34.4-.83.61-1.32.61ZM119.6,96.23c5.33,1.98,11.58,2.69,16.46,1.63,2.02-.43,4.68-1.38,5.86-3.4,1.99-3.4,1.94-6.18-.13-8.26-2.42-2.42-6.85-3.07-8.36-2.2-3.07,1.79-8.15,6.46-13.83,12.22ZM108.58,66.52c-.47,0-.87.1-1.17.3-2.56,1.73-3.99,4.75-4.03,8.5-.03,2.63.67,5.87,2.41,9.13,1.43-1.69,2.71-3.24,3.77-4.61,3.86-4.97,4.71-9.28,2.33-11.81-.94-1.01-2.27-1.5-3.31-1.5Z"/><path class="uuid-17e2f05a-8fb6-4165-a75d-7b9bea079909" d="M51.45,120.75h35.15c2.82,0,5.1,2.29,5.1,5.1v27.94h-45.35v-27.94c0-2.82,2.29-5.1,5.1-5.1Z" transform="translate(27.75 285.27) rotate(-137.72)"/><rect class="uuid-17e2f05a-8fb6-4165-a75d-7b9bea079909" x="69.87" y="108.32" width="4.4" height="49.24" transform="translate(-74.78 96.82) rotate(-47.72)"/><rect class="uuid-17e2f05a-8fb6-4165-a75d-7b9bea079909" x="76.49" y="101.55" width="4.4" height="49.24" transform="translate(-67.6 99.51) rotate(-47.72)"/><path class="uuid-17e2f05a-8fb6-4165-a75d-7b9bea079909" d="M252.03,106.32c-27.4-4.47-53.87,5.7-71.93,24.84,7.45-.78,15.06-.65,22.73.6,52.03,8.48,86.5,62.67,76.99,121.02-.53,3.24-1.2,6.42-1.97,9.54,21.12-12.13,36.91-33.64,41.21-60,7.46-45.77-22.55-88.75-67.03-96.01Z"/><path class="uuid-17e2f05a-8fb6-4165-a75d-7b9bea079909" d="M352.19,357.65c-1.01,0-1.93-.14-2.78-.42-2.13-.72-9.45-.6-17.2-.46-25.47.44-68.09,1.17-79.09-21.02-7.18-14.47.13-35.2,22.32-63.37,2.17-2.75,3.02-5.47,2.62-8.3-1.39-9.7-16.9-20.73-34.86-33.51-20.64-14.68-44.03-31.33-58.06-53.41-6.37-10.02,3.7-27.52,26.93-46.8h0c9.73-8.08,35.13-18.61,61.85-12.48,22.56,5.17,40.68,21.48,52.38,47.17,11.34,24.9,52.32,20.88,79.44,18.22,6.92-.68,12.89-1.26,17.17-1.22,11.72.12,21.81,7.62,27.68,20.56,10.18,22.43,7.22,60.52-22.34,95.06-6.79,7.93-56.35,59.99-76.07,59.99ZM340.9,351.25c5.1,0,8.29.19,10.24.85,11.11,3.77,56.71-38.94,72.99-57.96,28.01-32.72,30.99-68.43,21.52-89.29-4.97-10.94-13.28-17.28-22.8-17.38-4.02-.08-9.82.53-16.58,1.19-28.65,2.81-71.95,7.06-84.9-21.36-11.14-24.44-27.51-39.29-48.66-44.13-23.49-5.38-47.58,3.41-57.17,11.37h0c-22.97,19.06-29.49,33.95-25.82,39.72,13.46,21.19,36.4,37.5,56.63,51.9,19.75,14.05,35.36,25.15,37.08,37.15.62,4.32-.63,8.5-3.72,12.42-20.48,26-27.79,45.38-21.73,57.61,9.48,19.11,49.95,18.42,74.14,18.01,3.42-.06,6.32-.1,8.78-.1Z"/><path class="uuid-17e2f05a-8fb6-4165-a75d-7b9bea079909" d="M205.15,109.09c21.75-11.61,97.3-21.65,115.23,55.13,8.92,38.18,83.68,33.29,106.6,37.1,35.53,5.91,37.81,72.34-23.43,118.78-17.59,13.34-84.93,56.72-99.55,49.21-14.62-7.52-175.25-5.47-61.89-98.46,29.25-23.99-54.45-63.55-77.13-120.37-3.85-9.65,10.58-25.59,40.17-41.39Z"/><circle class="uuid-17e2f05a-8fb6-4165-a75d-7b9bea079909" cx="433.15" cy="314.36" r="74.59" transform="translate(25 660.56) rotate(-76.28)"/><path class="uuid-17e2f05a-8fb6-4165-a75d-7b9bea079909" d="M442.73,390.42c-25.93,0-51.29-13.02-65.89-36.65h0c-22.4-36.26-11.13-83.99,25.13-106.39,36.26-22.4,83.98-11.13,106.39,25.13,22.4,36.26,11.13,83.99-25.13,106.39-12.63,7.8-26.65,11.52-40.5,11.52ZM442.48,241.28c-12.88,0-25.92,3.46-37.66,10.71-33.72,20.83-44.2,65.21-23.37,98.93h0c20.83,33.72,65.21,44.2,98.93,23.37,33.72-20.83,44.2-65.21,23.37-98.93-13.58-21.97-37.15-34.08-61.27-34.08Z"/><circle class="uuid-17e2f05a-8fb6-4165-a75d-7b9bea079909" cx="337.62" cy="338.58" r="62.13"/><path class="uuid-cc61cfd3-6a5c-42c8-8ede-15274b8c8431" d="M102.63,327.82l160.38-22.22c39.15-5.42,74.98,22.72,78.99,62.03l3.78,37.06H76.56l26.07-76.87Z"/><path class="uuid-59acb2e6-67dd-4e60-ba05-089111371a04" d="M122.18,406.56l-5.96-56.59,11.53-19.56c8.43-14.29,11.26-31.2,7.97-47.46l-2.45-12.06-7.06-3.53-11.23-103.87c-.48-4.49-4.49-7.75-8.98-7.31-4.26.41-7.49,4.01-7.44,8.29.24,21.32.92,80.47.92,81.71,0,.59-1.16-.28-2.56-1.56-3.32-3.02-7.99-4.06-12.28-2.72l-1.1.34c-4.73,1.48-8.16,5.58-8.77,10.5l-28.78,18.58c-6.59,4.25-9.66,12.28-7.59,19.84l19.69,72.07-6.52,43.34h70.61Z"/><path class="uuid-17e2f05a-8fb6-4165-a75d-7b9bea079909" d="M51.57,408.13c-.08,0-.16,0-.24-.02-.86-.13-1.45-.93-1.32-1.79l6.47-43.01-19.61-71.75c-2.26-8.26,1.06-16.93,8.26-21.58l28.19-18.2c.93-5.18,4.69-9.47,9.75-11.06l1.1-.34c4.76-1.49,10-.35,13.71,2.97-.13-11.9-.66-58.23-.89-78.89-.06-5.13,3.75-9.38,8.86-9.87,5.33-.5,10.12,3.39,10.7,8.71l11.14,103.02,6.29,3.15c.43.22.74.62.84,1.09l2.45,12.06c3.38,16.67.48,33.92-8.15,48.58l-11.27,19.11,5.9,56.07c.09.86-.54,1.64-1.4,1.73-.86.08-1.64-.53-1.73-1.4l-5.96-56.59c-.04-.33.04-.67.21-.96l11.53-19.56c8.24-13.98,11.01-30.45,7.78-46.36l-2.29-11.31-6.38-3.19c-.48-.24-.8-.7-.86-1.24l-11.23-103.87c-.39-3.61-3.65-6.3-7.27-5.92-3.47.33-6.06,3.22-6.02,6.71.24,20.52.92,80.47.92,81.73,0,.72-.39,1.33-1.02,1.61-1.14.5-2.2-.22-4.17-2.01-2.9-2.64-7.01-3.55-10.76-2.38l-1.1.34c-4.13,1.29-7.14,4.9-7.68,9.19-.06.46-.32.87-.71,1.13l-28.78,18.58c-6.04,3.9-8.82,11.17-6.93,18.11l19.69,72.07c.06.21.07.43.04.65l-6.52,43.34c-.12.78-.79,1.34-1.55,1.34Z"/><path class="uuid-17e2f05a-8fb6-4165-a75d-7b9bea079909" d="M75,326.58c-4.86,0-9.6-2.22-12.68-6.18l-23.59-30.39c-.53-.69-.41-1.67.28-2.21.69-.53,1.67-.41,2.21.28l23.59,30.39c3.26,4.2,8.83,5.96,13.9,4.42l1.55-.82c.77-.41,1.72-.11,2.12.65.41.77.11,1.72-.65,2.12l-1.68.89c-.08.05-.17.08-.26.11-1.57.5-3.18.74-4.78.74Z"/><path class="uuid-17e2f05a-8fb6-4165-a75d-7b9bea079909" d="M92.55,336.82c-.64,0-1.29-.06-1.93-.18-3.16-.59-5.83-2.56-7.32-5.42l-31.61-60.62c-.4-.77-.1-1.72.67-2.12.77-.4,1.72-.1,2.12.67l31.61,60.62c1.04,1.99,2.9,3.37,5.11,3.78,2.21.41,4.44-.21,6.13-1.69,2.07-1.83,2.94-4.72,2.2-7.38l-3.23-10.66c-.25-.83.22-1.71,1.05-1.96.85-.25,1.71.22,1.96,1.05l3.24,10.69c1.06,3.85-.18,8-3.15,10.62-1.92,1.69-4.35,2.6-6.85,2.6Z"/><path class="uuid-17e2f05a-8fb6-4165-a75d-7b9bea079909" d="M99.09,314.87c-1.74,0-3.47-.42-5.06-1.24-2.64-1.36-4.58-3.67-5.47-6.51l-15.8-50.4c-.26-.83.2-1.71,1.03-1.97.83-.26,1.71.2,1.97,1.03l15.8,50.4c.64,2.03,2.02,3.68,3.91,4.66,1.89.97,4.04,1.16,6.06.5,3.83-1.24,6.11-5.15,5.31-9.09l-4.37-21.46c-.17-.85.38-1.68,1.23-1.85.84-.18,1.68.38,1.85,1.23l4.37,21.46c1.12,5.51-2.07,10.98-7.42,12.71-1.12.36-2.27.54-3.42.54Z"/><path class="uuid-17e2f05a-8fb6-4165-a75d-7b9bea079909" d="M117.64,326.93c-.6,0-1.17-.34-1.44-.93-4.39-9.8-6.41-20.64-5.83-31.36l.11-2.11-15.59-22.27c-1.32-1.89-2.02-4.2-1.95-6.51.1-3.86,2.18-7.29,5.56-9.17,3.38-1.88,7.39-1.84,10.72.1l17.82,11.12c.74.46.96,1.43.5,2.17-.46.73-1.43.96-2.17.5l-17.78-11.1c-2.33-1.35-5.17-1.38-7.57-.04-2.4,1.33-3.87,3.77-3.94,6.51-.05,1.64.45,3.28,1.39,4.62l15.9,22.71c.2.29.3.64.28.99l-.14,2.66c-.55,10.22,1.37,20.56,5.56,29.91.35.79,0,1.72-.79,2.08-.21.09-.43.14-.64.14Z"/><rect class="uuid-5bba12bb-1840-4d51-b476-db6c37ae697f" x="56.44" y="194.17" width="6.14" height="3.44" transform="translate(-92.03 58.23) rotate(-30.85)"/><rect class="uuid-5bba12bb-1840-4d51-b476-db6c37ae697f" x="56.44" y="194.17" width="6.14" height="3.44" transform="translate(-92.03 58.23) rotate(-30.85)"/><rect class="uuid-5bba12bb-1840-4d51-b476-db6c37ae697f" x="58.06" y="212.11" width="3.45" height="6.14" transform="translate(-157.2 162.33) rotate(-60.78)"/><rect class="uuid-5bba12bb-1840-4d51-b476-db6c37ae697f" x="41.49" y="221.99" width="3.45" height="6.14" transform="translate(-3.21 .64) rotate(-.82)"/><rect class="uuid-5bba12bb-1840-4d51-b476-db6c37ae697f" x="23.31" y="213.92" width="6.14" height="3.45" transform="translate(-106.62 43.86) rotate(-30.77)"/><rect class="uuid-5bba12bb-1840-4d51-b476-db6c37ae697f" x="24.38" y="193.3" width="3.45" height="6.13" transform="translate(-158.01 123.28) rotate(-60.78)"/><rect class="uuid-5bba12bb-1840-4d51-b476-db6c37ae697f" x="40.95" y="183.42" width="3.45" height="6.14" transform="translate(-2.5 .59) rotate(-.77)"/><rect class="uuid-17e2f05a-8fb6-4165-a75d-7b9bea079909" x="29.65" y="29.25" width="3.45" height="7.98" transform="translate(-13.06 22.51) rotate(-33.07)"/><rect class="uuid-17e2f05a-8fb6-4165-a75d-7b9bea079909" x="16.27" y="8.71" width="3.45" height="7.98" transform="translate(-4.01 11.88) rotate(-33.07)"/><rect class="uuid-17e2f05a-8fb6-4165-a75d-7b9bea079909" x="32.94" y="20.59" width="7.98" height="3.45" transform="translate(-1.14 2.01) rotate(-3.08)"/><rect class="uuid-17e2f05a-8fb6-4165-a75d-7b9bea079909" x="8.45" y="21.9" width="7.98" height="3.45" transform="translate(-1.25 .7) rotate(-3.08)"/><rect class="uuid-17e2f05a-8fb6-4165-a75d-7b9bea079909" x="15.14" y="32.18" width="7.98" height="3.45" transform="translate(-19.76 35.6) rotate(-63.06)"/><rect class="uuid-17e2f05a-8fb6-4165-a75d-7b9bea079909" x="26.25" y="10.32" width="7.98" height="3.45" transform="translate(5.8 33.54) rotate(-63.06)"/><polygon class="uuid-17e2f05a-8fb6-4165-a75d-7b9bea079909" points="422.66 61.9 390.82 57.51 358.98 53.11 374.14 81.45 389.3 109.79 396.19 87.32 415.13 100.51 422.91 89.35 403.97 76.16 422.66 61.9"/><rect class="uuid-5bba12bb-1840-4d51-b476-db6c37ae697f" x="356.27" y="25.97" width="6.13" height="3.44" transform="translate(239.58 367.62) rotate(-75)"/><rect class="uuid-5bba12bb-1840-4d51-b476-db6c37ae697f" x="356.27" y="25.97" width="6.13" height="3.44" transform="translate(239.58 367.62) rotate(-75)"/><rect class="uuid-5bba12bb-1840-4d51-b476-db6c37ae697f" x="338.99" y="29.63" width="3.44" height="6.14" transform="translate(76.76 250.59) rotate(-45.02)"/><rect class="uuid-5bba12bb-1840-4d51-b476-db6c37ae697f" x="332.65" y="49.6" width="6.14" height="3.45" transform="translate(-1.84 88.64) rotate(-15)"/><rect class="uuid-5bba12bb-1840-4d51-b476-db6c37ae697f" x="346.3" y="63.24" width="6.14" height="3.44" transform="translate(196.5 385.75) rotate(-75.05)"/><rect class="uuid-5bba12bb-1840-4d51-b476-db6c37ae697f" x="366.27" y="56.89" width="3.45" height="6.13" transform="translate(65.51 277.95) rotate(-45.03)"/><rect class="uuid-5bba12bb-1840-4d51-b476-db6c37ae697f" x="369.91" y="39.61" width="6.14" height="3.45" transform="translate(2.07 98.3) rotate(-15.06)"/><path d="M234.56,304.04s35.26,25.41,63.92,23.13c28.66-2.28,81.43-18.86,48.54-97.01-32.89-78.15-54.97-75.78-78.01-89.91-23.04-14.14-63.43-53.71-74.31-34.1-10.87,19.61-2.27,46.62,1.53,57.49,3.81,10.87,38.32,140.4,38.32,140.4Z"/><path class="uuid-59acb2e6-67dd-4e60-ba05-089111371a04" d="M258.66,328.58c-4.7-22.26-.76-67.58-.76-67.58,0,0,24.45-7.08,34.55-16.61,10.1-9.52,14.65-35.55-.6-38.94-13.01-2.89-24.75,14.46-25.94,13.98-14.7-5.91.17-49.03-39.01-58.75-27.12-6.73-36.01-26.56-36.01-26.56,0,0-46.95,90.36-47.58,113.52-1.34,49.13,59.38,33.67,59.38,33.67l-17.19,34.95c-2.05-.04-1.09,33.9,15.47,36.66,22.72,3.8,58.33-21.25,57.68-24.34Z"/><path d="M205.82,355.02c-1.76,0-3.47-.13-5.12-.4-15.69-2.62-18.26-29.1-17.59-36.36.07-.81.22-2.41,1.08-3.23l15.39-31.29c-8.85,1.68-32.1,4.65-46.44-6.82-8.02-6.41-11.9-16.28-11.54-29.33.64-23.29,45.85-110.56,47.77-114.27.31-.59.99-.93,1.58-.93.66.02,1.25.41,1.52,1.01.09.19,8.93,19.16,34.85,25.6,25.52,6.34,29.15,26.6,31.8,41.4,1.47,8.2,2.65,14.77,6.68,17.06.41-.39.98-.98,1.51-1.52,4.59-4.73,14.15-14.57,24.93-12.18,5.24,1.17,8.83,4.77,10.39,10.41,2.68,9.73-1.52,24.43-8.98,31.46-9.14,8.62-29.07,15.12-34.11,16.67-.57,7.22-3.35,46.13.82,65.91.27,1.27-.64,2.43-1.67,3.5-6.36,6.64-32.8,23.3-52.87,23.3ZM186.69,317.51c-.61,2.48-.23,16.31,4.93,25.72,2.56,4.66,5.8,7.35,9.65,7.99,21.32,3.55,53.15-18.91,55.63-22.69-4.57-22.38-.87-65.83-.7-67.68.06-.71.55-1.31,1.24-1.51.24-.07,24.17-7.08,33.85-16.2,6.54-6.17,10.36-19.53,8.02-28.04-1.21-4.4-3.84-7.08-7.81-7.96-8.88-1.98-17.55,6.93-21.71,11.22-2.28,2.35-3.14,3.23-4.5,2.68-6.42-2.58-7.87-10.66-9.55-20.02-2.62-14.64-5.89-32.86-29.24-38.66-21.55-5.35-31.87-18.6-35.54-24.57-7.96,15.57-45.35,89.69-45.91,109.9-.33,11.91,3.12,20.84,10.25,26.54,16.3,13.03,46.68,5.49,46.98,5.41.65-.17,1.34.06,1.76.58.42.52.5,1.24.21,1.85l-17.19,34.94c-.09.19-.22.36-.37.5ZM256.97,328.92s0,0,0,.01h0s0,0,0-.01ZM185.48,317.97h0,0Z"/><path class="uuid-17e2f05a-8fb6-4165-a75d-7b9bea079909" d="M263.26,243.7c-.07,0-.15,0-.23-.02-.94-.12-1.61-.99-1.48-1.93,1.08-8.2,9.93-15.3,12.62-17.27,2.72-2,5.53-4.07,8.35-5.03.9-.31,1.88.17,2.19,1.07.31.9-.17,1.88-1.07,2.19-2.31.79-4.91,2.7-7.42,4.55-4.96,3.66-10.52,9.5-11.24,14.95-.11.87-.85,1.5-1.71,1.5Z"/><path class="uuid-17e2f05a-8fb6-4165-a75d-7b9bea079909" d="M216.52,214.17c-7.21,0-14.35-3.43-18.87-9.38-.58-.76-.43-1.84.33-2.41.76-.58,1.84-.43,2.41.33,4.85,6.38,13.19,9.37,20.76,7.45.9-.24,1.86.32,2.09,1.24.24.92-.32,1.86-1.24,2.09-1.8.46-3.64.68-5.48.68Z"/><path class="uuid-17e2f05a-8fb6-4165-a75d-7b9bea079909" d="M180.54,190.92c-5.97,0-11.79-3.6-14.65-9.14-.44-.84-.1-1.88.74-2.32.84-.43,1.88-.1,2.32.74,2.37,4.59,7.27,7.54,12.14,7.27.93-.04,1.76.69,1.81,1.64.05.95-.69,1.76-1.64,1.81-.24.01-.48.02-.73.02Z"/><path class="uuid-17e2f05a-8fb6-4165-a75d-7b9bea079909" d="M223.41,186.67c-.43,0-.87-.16-1.2-.49-2.68-2.62-5.98-4.43-9.53-5.25-.93-.21-1.51-1.14-1.29-2.06.21-.93,1.14-1.51,2.06-1.29,4.17.96,8.03,3.08,11.17,6.14.68.67.69,1.76.03,2.44-.34.34-.79.52-1.23.52Z"/><path class="uuid-17e2f05a-8fb6-4165-a75d-7b9bea079909" d="M192.1,171.17c-.49,0-.98-.21-1.32-.61-1.57-1.85-7.15-4.93-10.08-4.78-.93.08-1.75-.69-1.8-1.64-.04-.95.69-1.76,1.64-1.8,4.34-.19,10.76,3.51,12.87,6,.61.73.52,1.81-.2,2.43-.32.27-.72.41-1.11.41Z"/><path class="uuid-17e2f05a-8fb6-4165-a75d-7b9bea079909" d="M175.37,228.96c-.21,0-.42-.04-.63-.12-3.88-1.53-7.13-4.48-9.17-8.32-.34-.65-.24-1.45.27-1.99,3.07-3.25,10.01-11.13,14.35-16.56.59-.74,1.68-.86,2.42-.27.74.59.86,1.68.27,2.42-4.02,5.03-10.24,12.13-13.66,15.83,1.65,2.58,4.07,4.62,6.78,5.68.88.35,1.32,1.35.97,2.23-.27.68-.92,1.09-1.6,1.09Z"/><path class="uuid-17e2f05a-8fb6-4165-a75d-7b9bea079909" d="M183.38,246.81c-2.67,0-5.32-.65-7.69-2.01-.83-.47-1.11-1.53-.64-2.35.47-.83,1.53-1.11,2.35-.64,5.7,3.27,13.78,1.09,17.66-4.74.53-.79,1.59-1.01,2.39-.48.79.53,1.01,1.6.48,2.39-3.33,5.01-8.97,7.83-14.54,7.83Z"/><path class="uuid-17e2f05a-8fb6-4165-a75d-7b9bea079909" d="M202.26,282.56c-.72,0-1.39-.45-1.63-1.17-.3-.9.18-1.88,1.08-2.18,5.97-2.02,11.45-4.84,15.83-8.16.76-.58,1.84-.43,2.41.33.58.76.43,1.84-.33,2.41-4.68,3.54-10.49,6.54-16.81,8.68-.18.06-.37.09-.55.09Z"/><path class="uuid-17e2f05a-8fb6-4165-a75d-7b9bea079909" d="M258.27,203.97h-.02c-.95,0-1.72-.79-1.71-1.74.13-12.39-9.08-23.93-22.9-28.72-25.4-8.79-44.28-26.69-42.97-40.74.09-.95.93-1.65,1.88-1.56.95.09,1.64.93,1.56,1.88-1,10.76,14.26,28.03,40.67,37.17,15.23,5.27,25.36,18.13,25.22,32.01-.01.95-.78,1.71-1.72,1.71Z"/><path class="uuid-cc61cfd3-6a5c-42c8-8ede-15274b8c8431" d="M261.49,286.97c-4.33,0-8.39-1.74-11.49-4.93-6.61-6.81-6.72-18.29-.26-25.59,3.53-3.98,8.45-6.1,13.51-5.8.95.06,1.67.87,1.62,1.82-.06.95-.88,1.68-1.82,1.62-4.02-.22-7.91,1.46-10.73,4.64-5.3,5.98-5.23,15.36.15,20.9,2.5,2.58,5.76,3.9,9.31,3.88,3.67-.08,7.12-1.74,9.71-4.66,5.3-5.98,5.23-15.36-.15-20.9-.66-.68-.65-1.77.04-2.44.68-.66,1.77-.65,2.44.04,6.61,6.81,6.72,18.29.26,25.58-3.23,3.65-7.57,5.72-12.21,5.82-.12,0-.25,0-.37,0Z"/><path class="uuid-17e2f05a-8fb6-4165-a75d-7b9bea079909" d="M183.52,66.47l-2.35-2.52s.48-.45,1.39-1.19l2.18,2.67c-.77.63-1.19,1.02-1.21,1.04Z"/><path class="uuid-17e2f05a-8fb6-4165-a75d-7b9bea079909" d="M187.45,63.38l-1.99-2.82c.88-.62,1.89-1.3,3.02-2l1.82,2.92c-1.07.67-2.02,1.31-2.86,1.9ZM193.26,59.76l-1.65-3.02c1.01-.56,2.09-1.11,3.23-1.65l1.47,3.12c-1.08.51-2.09,1.03-3.05,1.55ZM242.19,59.24c-1.02-.55-2.04-1.07-3.06-1.54l1.46-3.12c1.07.5,2.15,1.04,3.24,1.63l-1.64,3.03ZM199.45,56.82l-1.29-3.19c1.09-.44,2.23-.86,3.4-1.26l1.09,3.27c-1.11.37-2.18.77-3.21,1.18ZM235.99,56.35c-1.05-.41-2.13-.79-3.21-1.13l1.04-3.29c1.15.37,2.31.77,3.43,1.21l-1.26,3.21ZM205.93,54.66l-.88-3.33c1.18-.31,2.37-.59,3.55-.82l.66,3.38c-1.1.22-2.22.47-3.32.77ZM229.5,54.3c-1.11-.27-2.23-.5-3.33-.68l.57-3.4c1.18.2,2.38.44,3.57.73l-.8,3.35ZM212.62,53.36l-.43-3.42c1.21-.15,2.44-.26,3.63-.32l.18,3.44c-1.12.06-2.25.16-3.38.3ZM222.8,53.19c-1.12-.11-2.26-.17-3.39-.19l.06-3.45c1.22.02,2.44.09,3.65.2l-.32,3.43Z"/><path class="uuid-17e2f05a-8fb6-4165-a75d-7b9bea079909" d="M246.6,61.87c-.47-.31-.94-.61-1.41-.9l1.8-2.93c.5.31,1,.62,1.5.95l-1.88,2.88Z"/><path class="uuid-17e2f05a-8fb6-4165-a75d-7b9bea079909" d="M331.69,68.69l-2.17-2.68c.77-.63,1.19-1.01,1.21-1.03l2.35,2.52s-.48.45-1.4,1.19Z"/><path class="uuid-17e2f05a-8fb6-4165-a75d-7b9bea079909" d="M294.78,81.89c-1.22-.02-2.44-.09-3.65-.2l.32-3.43c1.12.11,2.26.17,3.39.19l-.06,3.45ZM298.43,81.83l-.18-3.44c1.12-.06,2.25-.16,3.38-.3l.43,3.42c-1.21.15-2.44.26-3.63.32ZM287.52,81.22c-1.18-.2-2.38-.44-3.57-.73l.8-3.35c1.11.27,2.23.5,3.33.68l-.57,3.4ZM305.66,80.94l-.66-3.38c1.1-.22,2.22-.47,3.32-.77l.88,3.33c-1.18.31-2.37.59-3.55.82ZM280.44,79.51c-1.15-.37-2.31-.77-3.43-1.21l1.26-3.21c1.05.41,2.13.79,3.21,1.13l-1.04,3.29ZM312.69,79.07l-1.09-3.27c1.11-.37,2.18-.77,3.21-1.18l1.29,3.19c-1.09.44-2.23.86-3.41,1.26ZM273.67,76.87c-1.07-.5-2.15-1.04-3.24-1.63l1.64-3.03c1.02.55,2.04,1.07,3.06,1.54l-1.46,3.12ZM319.41,76.36l-1.47-3.12c1.08-.51,2.09-1.03,3.05-1.55l1.65,3.02c-1.01.56-2.09,1.11-3.23,1.65ZM325.77,72.88l-1.82-2.92c1.07-.67,2.02-1.31,2.86-1.9l1.99,2.82c-.88.62-1.89,1.3-3.02,2Z"/><path class="uuid-17e2f05a-8fb6-4165-a75d-7b9bea079909" d="M267.26,73.41c-.5-.31-1-.62-1.5-.95l1.88-2.88c.47.31.94.61,1.41.9l-1.8,2.93Z"/></svg>