<?xml version="1.0" encoding="utf-8"?>
<!-- Generator: Adobe Illustrator 27.5.0, SVG Export Plug-In . SVG Version: 6.00 Build 0)  -->
<svg version="1.1" id="Layer_1" xmlns="http://www.w3.org/2000/svg" xmlns:xlink="http://www.w3.org/1999/xlink" x="0px" y="0px"
	 viewBox="0 0 4000 4000" style="enable-background:new 0 0 4000 4000;" xml:space="preserve">
<g>
	<rect style="fill:#CCEEFF;" width="4000" height="4000"/>
	<g>
		<ellipse style="opacity:0.2;fill:#390176;" cx="2000.184" cy="3539.548" rx="789.956" ry="205.452"/>
		<g>
			<defs>
				<filter id="Adobe_OpacityMaskFilter" filterUnits="userSpaceOnUse" x="1676.966" y="315" width="646.767" height="505.271">
					<feFlood  style="flood-color:white;flood-opacity:1" result="back"/>
					<feBlend  in="SourceGraphic" in2="back" mode="normal"/>
				</filter>
			</defs>
			<mask maskUnits="userSpaceOnUse" x="1676.966" y="315" width="646.767" height="505.271" id="SVGID_1_">
				<g style="filter:url(#Adobe_OpacityMaskFilter);">
					<defs>
						
							<filter id="Adobe_OpacityMaskFilter_00000126287752742856085480000012077213265713191837_" filterUnits="userSpaceOnUse" x="1676.966" y="315" width="646.767" height="505.271">
							<feFlood  style="flood-color:white;flood-opacity:1" result="back"/>
							<feBlend  in="SourceGraphic" in2="back" mode="normal"/>
						</filter>
					</defs>
					<mask maskUnits="userSpaceOnUse" x="1676.966" y="315" width="646.767" height="505.271" id="SVGID_1_">
						<g style="filter:url(#Adobe_OpacityMaskFilter_00000126287752742856085480000012077213265713191837_);">
						</g>
					</mask>
					
						<radialGradient id="SVGID_00000040568487674914766370000014720122077707249041_" cx="2000.3494" cy="1299.0905" r="1046.6002" gradientUnits="userSpaceOnUse">
						<stop  offset="0.476" style="stop-color:#000000"/>
						<stop  offset="0.6511" style="stop-color:#5A5A5A"/>
						<stop  offset="0.8891" style="stop-color:#D0D0D0"/>
						<stop  offset="0.9946" style="stop-color:#FFFFFF"/>
					</radialGradient>
					<path style="mask:url(#SVGID_1_);fill:url(#SVGID_00000040568487674914766370000014720122077707249041_);" d="
						M2002.061,315.619c-1.016-0.826-2.406-0.826-3.422,0c-21.838,17.752-246.653,206.309-321.672,504.651h646.767
						C2248.713,521.928,2023.899,333.371,2002.061,315.619z"/>
				</g>
			</mask>
			
				<radialGradient id="SVGID_00000116927554150393284440000015884111447605459879_" cx="2000.3494" cy="1299.0905" r="1046.6002" gradientUnits="userSpaceOnUse">
				<stop  offset="0.476" style="stop-color:#F2F91C"/>
				<stop  offset="0.6113" style="stop-color:#C2EB5A"/>
				<stop  offset="0.877" style="stop-color:#67D0D0"/>
				<stop  offset="0.9946" style="stop-color:#43C5FF"/>
			</radialGradient>
			<path style="fill:url(#SVGID_00000116927554150393284440000015884111447605459879_);" d="M2002.061,315.619
				c-1.016-0.826-2.406-0.826-3.422,0c-21.838,17.752-246.653,206.309-321.672,504.651h646.767
				C2248.713,521.928,2023.899,333.371,2002.061,315.619z"/>
			<defs>
				
					<filter id="Adobe_OpacityMaskFilter_00000047039046326799857980000016179011458114235319_" filterUnits="userSpaceOnUse" x="429.966" y="1572.217" width="711.748" height="650.268">
					<feFlood  style="flood-color:white;flood-opacity:1" result="back"/>
					<feBlend  in="SourceGraphic" in2="back" mode="normal"/>
				</filter>
			</defs>
			
				<mask maskUnits="userSpaceOnUse" x="429.966" y="1572.217" width="711.748" height="650.268" id="SVGID_00000124849221790480727650000009606388847694171526_">
				<g style="filter:url(#Adobe_OpacityMaskFilter_00000047039046326799857980000016179011458114235319_);">
					<defs>
						
							<filter id="Adobe_OpacityMaskFilter_00000034078911611156029350000009693002478527200958_" filterUnits="userSpaceOnUse" x="429.966" y="1572.217" width="711.748" height="650.268">
							<feFlood  style="flood-color:white;flood-opacity:1" result="back"/>
							<feBlend  in="SourceGraphic" in2="back" mode="normal"/>
						</filter>
					</defs>
					
						<mask maskUnits="userSpaceOnUse" x="429.966" y="1572.217" width="711.748" height="650.268" id="SVGID_00000124849221790480727650000009606388847694171526_">
						<g style="filter:url(#Adobe_OpacityMaskFilter_00000034078911611156029350000009693002478527200958_);">
						</g>
					</mask>
					
						<radialGradient id="SVGID_00000098910296766324384340000014586963128749381529_" cx="1997.8754" cy="1973.8528" r="2206.3608" gradientUnits="userSpaceOnUse">
						<stop  offset="0.3895" style="stop-color:#000000"/>
						<stop  offset="0.4014" style="stop-color:#0A0A0A"/>
						<stop  offset="0.4717" style="stop-color:#434343"/>
						<stop  offset="0.5441" style="stop-color:#757575"/>
						<stop  offset="0.6171" style="stop-color:#9F9F9F"/>
						<stop  offset="0.6906" style="stop-color:#C2C2C2"/>
						<stop  offset="0.765" style="stop-color:#DDDDDD"/>
						<stop  offset="0.8405" style="stop-color:#F0F0F0"/>
						<stop  offset="0.9178" style="stop-color:#FBFBFB"/>
						<stop  offset="1" style="stop-color:#FFFFFF"/>
					</radialGradient>
					
						<path style="mask:url(#SVGID_00000124849221790480727650000009606388847694171526_);fill:url(#SVGID_00000098910296766324384340000014586963128749381529_);" d="
						M429.966,1897.351c0,0,174.981,315.675,711.748,325.134v-650.268C604.948,1581.675,429.966,1897.351,429.966,1897.351z"/>
				</g>
			</mask>
			
				<radialGradient id="SVGID_00000104692728138874750910000014740122510547861166_" cx="1997.8754" cy="1973.8528" r="2206.3608" gradientUnits="userSpaceOnUse">
				<stop  offset="0.3895" style="stop-color:#F2F91C"/>
				<stop  offset="0.4433" style="stop-color:#D3F044"/>
				<stop  offset="0.5183" style="stop-color:#ADE575"/>
				<stop  offset="0.5954" style="stop-color:#8DDBA0"/>
				<stop  offset="0.673" style="stop-color:#72D3C2"/>
				<stop  offset="0.7516" style="stop-color:#5DCDDD"/>
				<stop  offset="0.8314" style="stop-color:#4FC8F0"/>
				<stop  offset="0.9132" style="stop-color:#46C6FB"/>
				<stop  offset="1" style="stop-color:#43C5FF"/>
			</radialGradient>
			<path style="fill:url(#SVGID_00000104692728138874750910000014740122510547861166_);" d="M429.966,1897.351
				c0,0,174.981,315.675,711.748,325.134v-650.268C604.948,1581.675,429.966,1897.351,429.966,1897.351z"/>
			<defs>
				
					<filter id="Adobe_OpacityMaskFilter_00000021106719925848451330000001795135815954668455_" filterUnits="userSpaceOnUse" x="918.846" y="805.909" width="678.568" height="693.791">
					<feFlood  style="flood-color:white;flood-opacity:1" result="back"/>
					<feBlend  in="SourceGraphic" in2="back" mode="normal"/>
				</filter>
			</defs>
			
				<mask maskUnits="userSpaceOnUse" x="918.846" y="805.909" width="678.568" height="693.791" id="SVGID_00000089534896332061058890000014537252683784574653_">
				<g style="filter:url(#Adobe_OpacityMaskFilter_00000021106719925848451330000001795135815954668455_);">
					<defs>
						
							<filter id="Adobe_OpacityMaskFilter_00000097493355980832857570000006286718621291594904_" filterUnits="userSpaceOnUse" x="918.846" y="805.909" width="678.568" height="693.791">
							<feFlood  style="flood-color:white;flood-opacity:1" result="back"/>
							<feBlend  in="SourceGraphic" in2="back" mode="normal"/>
						</filter>
					</defs>
					
						<mask maskUnits="userSpaceOnUse" x="918.846" y="805.909" width="678.568" height="693.791" id="SVGID_00000089534896332061058890000014537252683784574653_">
						<g style="filter:url(#Adobe_OpacityMaskFilter_00000097493355980832857570000006286718621291594904_);">
						</g>
					</mask>
					
						<radialGradient id="SVGID_00000140715218836114810680000016975210473813964160_" cx="1997.8711" cy="1973.851" r="2206.3447" gradientUnits="userSpaceOnUse">
						<stop  offset="0.4327" style="stop-color:#000000"/>
						<stop  offset="0.4661" style="stop-color:#1A1A1A"/>
						<stop  offset="0.5503" style="stop-color:#565656"/>
						<stop  offset="0.6342" style="stop-color:#898989"/>
						<stop  offset="0.7157" style="stop-color:#B4B4B4"/>
						<stop  offset="0.7945" style="stop-color:#D5D5D5"/>
						<stop  offset="0.8697" style="stop-color:#ECECEC"/>
						<stop  offset="0.9399" style="stop-color:#FAFAFA"/>
						<stop  offset="1" style="stop-color:#FFFFFF"/>
					</radialGradient>
					
						<path style="mask:url(#SVGID_00000089534896332061058890000014537252683784574653_);fill:url(#SVGID_00000140715218836114810680000016975210473813964160_);" d="
						M918.937,806.567c0,0-12.155,336.079,245.333,693.133l433.145-464.577C1197.169,781.867,918.937,806.567,918.937,806.567z"/>
				</g>
			</mask>
			
				<radialGradient id="SVGID_00000092437454266135341740000001515008867323551373_" cx="1997.8711" cy="1973.851" r="2206.3447" gradientUnits="userSpaceOnUse">
				<stop  offset="0.4327" style="stop-color:#F2F91C"/>
				<stop  offset="0.521" style="stop-color:#C5EC57"/>
				<stop  offset="0.6094" style="stop-color:#9EE08A"/>
				<stop  offset="0.6965" style="stop-color:#7DD6B4"/>
				<stop  offset="0.7806" style="stop-color:#64CFD5"/>
				<stop  offset="0.8609" style="stop-color:#52C9EC"/>
				<stop  offset="0.9358" style="stop-color:#47C6FA"/>
				<stop  offset="1" style="stop-color:#43C5FF"/>
			</radialGradient>
			<path style="fill:url(#SVGID_00000092437454266135341740000001515008867323551373_);" d="M918.937,806.567
				c0,0-12.155,336.079,245.333,693.133l433.145-464.577C1197.169,781.867,918.937,806.567,918.937,806.567z"/>
			<defs>
				
					<filter id="Adobe_OpacityMaskFilter_00000084522524610856370870000016717807529537707672_" filterUnits="userSpaceOnUse" x="2871.593" y="1572.217" width="711.748" height="650.268">
					<feFlood  style="flood-color:white;flood-opacity:1" result="back"/>
					<feBlend  in="SourceGraphic" in2="back" mode="normal"/>
				</filter>
			</defs>
			
				<mask maskUnits="userSpaceOnUse" x="2871.593" y="1572.217" width="711.748" height="650.268" id="SVGID_00000167367240456547569570000010440632275271528847_">
				<g style="filter:url(#Adobe_OpacityMaskFilter_00000084522524610856370870000016717807529537707672_);">
					<defs>
						
							<filter id="Adobe_OpacityMaskFilter_00000055706792646186020280000008766457153312070814_" filterUnits="userSpaceOnUse" x="2871.593" y="1572.217" width="711.748" height="650.268">
							<feFlood  style="flood-color:white;flood-opacity:1" result="back"/>
							<feBlend  in="SourceGraphic" in2="back" mode="normal"/>
						</filter>
					</defs>
					
						<mask maskUnits="userSpaceOnUse" x="2871.593" y="1572.217" width="711.748" height="650.268" id="SVGID_00000167367240456547569570000010440632275271528847_">
						<g style="filter:url(#Adobe_OpacityMaskFilter_00000055706792646186020280000008766457153312070814_);">
						</g>
					</mask>
					
						<radialGradient id="SVGID_00000014598397258189463640000001510342861078452405_" cx="5007.52" cy="1973.8528" r="2206.3608" gradientTransform="matrix(-1 0 0 1 7022.9517 0)" gradientUnits="userSpaceOnUse">
						<stop  offset="0.3895" style="stop-color:#000000"/>
						<stop  offset="0.4014" style="stop-color:#0A0A0A"/>
						<stop  offset="0.4717" style="stop-color:#434343"/>
						<stop  offset="0.5441" style="stop-color:#757575"/>
						<stop  offset="0.6171" style="stop-color:#9F9F9F"/>
						<stop  offset="0.6906" style="stop-color:#C2C2C2"/>
						<stop  offset="0.765" style="stop-color:#DDDDDD"/>
						<stop  offset="0.8405" style="stop-color:#F0F0F0"/>
						<stop  offset="0.9178" style="stop-color:#FBFBFB"/>
						<stop  offset="1" style="stop-color:#FFFFFF"/>
					</radialGradient>
					
						<path style="mask:url(#SVGID_00000167367240456547569570000010440632275271528847_);fill:url(#SVGID_00000014598397258189463640000001510342861078452405_);" d="
						M3583.34,1897.351c0,0-174.981,315.675-711.748,325.134v-650.268C3408.359,1581.675,3583.34,1897.351,3583.34,1897.351z"/>
				</g>
			</mask>
			
				<radialGradient id="SVGID_00000084489833228120060690000002368205797347457158_" cx="5007.52" cy="1973.8528" r="2206.3608" gradientTransform="matrix(-1 0 0 1 7022.9517 0)" gradientUnits="userSpaceOnUse">
				<stop  offset="0.3895" style="stop-color:#F2F91C"/>
				<stop  offset="0.4433" style="stop-color:#D3F044"/>
				<stop  offset="0.5183" style="stop-color:#ADE575"/>
				<stop  offset="0.5954" style="stop-color:#8DDBA0"/>
				<stop  offset="0.673" style="stop-color:#72D3C2"/>
				<stop  offset="0.7516" style="stop-color:#5DCDDD"/>
				<stop  offset="0.8314" style="stop-color:#4FC8F0"/>
				<stop  offset="0.9132" style="stop-color:#46C6FB"/>
				<stop  offset="1" style="stop-color:#43C5FF"/>
			</radialGradient>
			<path style="fill:url(#SVGID_00000084489833228120060690000002368205797347457158_);" d="M3583.34,1897.351
				c0,0-174.981,315.675-711.748,325.134v-650.268C3408.359,1581.675,3583.34,1897.351,3583.34,1897.351z"/>
			<defs>
				
					<filter id="Adobe_OpacityMaskFilter_00000046311985076503219540000010289464506085657248_" filterUnits="userSpaceOnUse" x="2415.893" y="805.909" width="678.568" height="693.791">
					<feFlood  style="flood-color:white;flood-opacity:1" result="back"/>
					<feBlend  in="SourceGraphic" in2="back" mode="normal"/>
				</filter>
			</defs>
			
				<mask maskUnits="userSpaceOnUse" x="2415.893" y="805.909" width="678.568" height="693.791" id="SVGID_00000151524112209774516830000012668323598413533339_">
				<g style="filter:url(#Adobe_OpacityMaskFilter_00000046311985076503219540000010289464506085657248_);">
					<defs>
						
							<filter id="Adobe_OpacityMaskFilter_00000067197521361796932890000015533858206122725544_" filterUnits="userSpaceOnUse" x="2415.893" y="805.909" width="678.568" height="693.791">
							<feFlood  style="flood-color:white;flood-opacity:1" result="back"/>
							<feBlend  in="SourceGraphic" in2="back" mode="normal"/>
						</filter>
					</defs>
					
						<mask maskUnits="userSpaceOnUse" x="2415.893" y="805.909" width="678.568" height="693.791" id="SVGID_00000151524112209774516830000012668323598413533339_">
						<g style="filter:url(#Adobe_OpacityMaskFilter_00000067197521361796932890000015533858206122725544_);">
						</g>
					</mask>
					
						<radialGradient id="SVGID_00000063619351645804310310000017621277034708660626_" cx="5007.5161" cy="1973.851" r="2206.3447" gradientTransform="matrix(-1 0 0 1 7022.9517 0)" gradientUnits="userSpaceOnUse">
						<stop  offset="0.4327" style="stop-color:#000000"/>
						<stop  offset="0.4661" style="stop-color:#1A1A1A"/>
						<stop  offset="0.5503" style="stop-color:#565656"/>
						<stop  offset="0.6342" style="stop-color:#898989"/>
						<stop  offset="0.7157" style="stop-color:#B4B4B4"/>
						<stop  offset="0.7945" style="stop-color:#D5D5D5"/>
						<stop  offset="0.8697" style="stop-color:#ECECEC"/>
						<stop  offset="0.9399" style="stop-color:#FAFAFA"/>
						<stop  offset="1" style="stop-color:#FFFFFF"/>
					</radialGradient>
					
						<path style="mask:url(#SVGID_00000151524112209774516830000012668323598413533339_);fill:url(#SVGID_00000063619351645804310310000017621277034708660626_);" d="
						M3094.37,806.567c0,0,12.155,336.079-245.333,693.133l-433.145-464.577C2816.137,781.867,3094.37,806.567,3094.37,806.567z"/>
				</g>
			</mask>
			
				<radialGradient id="SVGID_00000014607633597959331880000004107429728010640063_" cx="5007.5161" cy="1973.851" r="2206.3447" gradientTransform="matrix(-1 0 0 1 7022.9517 0)" gradientUnits="userSpaceOnUse">
				<stop  offset="0.4327" style="stop-color:#F2F91C"/>
				<stop  offset="0.521" style="stop-color:#C5EC57"/>
				<stop  offset="0.6094" style="stop-color:#9EE08A"/>
				<stop  offset="0.6965" style="stop-color:#7DD6B4"/>
				<stop  offset="0.7806" style="stop-color:#64CFD5"/>
				<stop  offset="0.8609" style="stop-color:#52C9EC"/>
				<stop  offset="0.9358" style="stop-color:#47C6FA"/>
				<stop  offset="1" style="stop-color:#43C5FF"/>
			</radialGradient>
			<path style="fill:url(#SVGID_00000014607633597959331880000004107429728010640063_);" d="M3094.37,806.567
				c0,0,12.155,336.079-245.333,693.133l-433.145-464.577C2816.137,781.867,3094.37,806.567,3094.37,806.567z"/>
			<g>
				<g>
					<path style="fill:#390176;" d="M1141.715,2222.484c-0.017,0.898-5.72,1.57-16.599,2.029c-5.437,0.229-12.17,0.403-20.129,0.525
						c-3.987,0.044-8.271,0.093-12.852,0.142c-4.583-0.149-9.458-0.308-14.619-0.474c-10.33-0.391-21.829-0.764-34.407-1.436
						c-12.561-1.062-26.199-2.217-40.847-3.457c-14.624-1.606-30.222-3.767-46.797-5.891c-8.237-1.406-16.709-2.854-25.405-4.338
						c-8.704-1.477-17.644-2.959-26.697-5.039c-72.61-14.863-158.462-40.774-245.51-87.839
						c-10.989-5.64-21.614-12.271-32.581-18.584c-5.447-3.223-10.745-6.765-16.169-10.164c-5.405-3.43-10.859-6.855-16.143-10.605
						c-21.563-14.351-42.539-30.574-63.127-47.986c-20.532-17.488-40.427-36.523-59.214-57.229
						c-9.429-10.32-18.499-21.133-27.212-32.405c-4.375-5.62-8.616-11.394-12.744-17.327c-4.199-6.001-8.015-11.787-12.07-18.75
						c0.066-25.32,0.134-7.224,0.203-12.969l0.205-0.359l0.393-0.676l0.735-1.23l1.475-2.417l2.966-4.673
						c1.995-3.069,4.019-6.091,6.094-9.038c4.128-5.93,8.369-11.704,12.744-17.324c8.713-11.272,17.783-22.085,27.212-32.405
						c18.787-20.706,38.682-39.741,59.214-57.229c20.588-17.412,41.565-33.635,63.127-47.988
						c5.283-3.748,10.737-7.173,16.143-10.603c5.425-3.401,10.723-6.941,16.169-10.164c10.967-6.313,21.592-12.944,32.581-18.586
						c87.048-47.065,172.9-72.974,245.51-87.839c9.053-2.08,17.993-3.562,26.697-5.037c8.696-1.487,17.168-2.932,25.405-4.338
						c16.575-2.124,32.173-4.285,46.797-5.894c14.648-1.24,28.286-2.393,40.847-3.457c12.578-0.669,24.077-1.042,34.407-1.433
						c5.161-0.168,10.037-0.327,14.619-0.474c4.58,0.049,8.865,0.095,12.852,0.139c7.959,0.122,14.692,0.298,20.129,0.527
						c10.879,0.457,16.582,1.13,16.599,2.026c0.015,0.898-5.657,1.98-16.44,3.213c-5.393,0.618-12.063,1.272-19.941,1.96
						c-3.943,0.33-8.184,0.684-12.712,1.062c-4.526,0.518-9.341,1.067-14.438,1.648c-10.203,1.106-21.528,2.334-33.921,3.674
						c-12.349,1.704-25.754,3.552-40.156,5.54c-14.353,2.271-29.639,5.061-45.867,7.778c-8.054,1.685-16.338,3.416-24.841,5.193
						c-8.506,1.753-17.239,3.499-26.064,5.83c-70.85,16.877-154.077,44.06-237.913,90.872
						c-10.598,5.613-20.806,12.183-31.365,18.418c-5.242,3.181-10.329,6.672-15.544,10.02c-5.2,3.374-10.447,6.741-15.515,10.422
						c-20.725,14.084-40.835,29.922-60.562,46.824c-19.67,16.975-38.704,35.371-56.609,55.237
						c-8.989,9.897-17.61,20.234-25.84,30.916c-4.133,5.325-8.125,10.776-11.963,16.301c-1.943,2.759-3.804,5.544-5.625,8.347
						l-2.663,4.197l-1.265,2.075l-0.615,1.028l-0.269,0.461l-0.122,0.212c-0.042-5.554-0.081,12.732-0.122-12.397
						c3.018,5.164,6.865,11.113,10.681,16.531c3.838,5.527,7.83,10.979,11.963,16.304c8.23,10.681,16.851,21.018,25.84,30.916
						c17.905,19.863,36.938,38.262,56.609,55.234c19.727,16.904,39.836,32.742,60.562,46.826
						c5.068,3.679,10.315,7.046,15.515,10.422c5.215,3.345,10.303,6.836,15.544,10.02c10.559,6.235,20.767,12.803,31.365,18.416
						c83.835,46.814,167.063,73.997,237.913,90.874c8.826,2.329,17.559,4.077,26.064,5.828c8.504,1.78,16.787,3.511,24.841,5.195
						c16.228,2.715,31.514,5.508,45.867,7.778c14.402,1.985,27.808,3.835,40.156,5.537c12.393,1.343,23.718,2.571,33.921,3.677
						c5.098,0.581,9.912,1.13,14.438,1.646c4.529,0.378,8.77,0.732,12.712,1.062c7.878,0.691,14.548,1.345,19.941,1.963
						C1136.058,2220.507,1141.73,2221.588,1141.715,2222.484z"/>
				</g>
			</g>
			<g>
				<g>
					<path style="fill:#390176;" d="M1164.269,1499.701c-1.453,1.052-14.409-14.998-36.687-45.076
						c-2.776-3.77-5.706-7.749-8.784-11.929c-1.536-2.097-3.105-4.248-4.712-6.445c-1.475-2.288-2.983-4.626-4.524-7.017
						c-6.13-9.607-12.783-20.034-19.932-31.233c-3.555-5.625-7.234-11.443-11.03-17.449c-1.892-3.008-3.816-6.064-5.769-9.165
						c-1.777-3.206-3.579-6.455-5.408-9.753c-7.285-13.228-14.983-27.207-23.066-41.882
						c-30.967-59.397-63.816-132.651-89.695-217.729c-3.169-10.647-6.611-21.362-9.646-32.332
						c-2.815-11.03-5.664-22.185-8.54-33.462c-1.387-5.649-2.991-11.282-4.211-17.034c-1.216-5.757-2.437-11.54-3.662-17.354
						c-1.223-5.813-2.454-11.655-3.687-17.524l-1.853-8.826l-1.521-8.935c-8.726-47.683-14.749-97.505-15.652-149.512
						c-0.017-3.591-0.061-7.114,0.051-10.947v-0.027c0.195-6.614,5.408-11.919,11.846-12.456c3.66-0.293,6.807-0.354,10.103-0.483
						c3.293-0.166,6.489-0.129,9.702-0.142l9.614-0.02l9.514,0.315c12.693,0.229,25.154,1.384,37.568,2.234
						c12.358,1.199,24.587,2.632,36.714,4.055c12.051,1.846,24.004,3.677,35.85,5.491c23.506,4.529,46.624,8.828,68.877,14.607
						c22.456,4.995,43.914,11.711,64.993,17.722c83.982,25.334,156.196,57.375,215.129,86.843
						c14.675,7.495,28.652,14.631,41.877,21.387c12.866,7.38,25.002,14.338,36.357,20.85c11.294,6.563,21.807,12.668,31.492,18.296
						c9.468,5.972,17.981,11.648,25.667,16.692c30.684,20.278,47.124,32.158,46.172,33.662c-0.955,1.504-19.197-7.5-51.287-25.017
						c-8.018-4.407-16.914-9.299-26.648-14.651c-9.929-5.012-20.71-10.454-32.292-16.299c-11.543-5.908-23.884-12.224-36.968-18.919
						c-13.345-6.164-27.449-12.681-42.258-19.521c-59.285-27.036-131.221-56.855-214.014-80.439
						c-20.767-5.571-41.899-11.892-63.918-16.514c-21.85-5.418-44.453-9.385-67.417-13.638c-11.541-1.687-23.184-3.389-34.922-5.105
						c-11.77-1.306-23.645-2.639-35.605-3.757c-11.965-0.762-24.036-1.851-36.133-2.034l-9.094-0.286l-9.065,0.034
						c-3.022,0.015-6.077-0.017-9.033,0.139c-2.956,0.117-6.077,0.195-8.674,0.403l11.846-12.483
						c-0.088,3.071-0.049,6.492-0.032,9.858c0.857,49.604,6.528,98.638,14.734,145.22l1.419,8.747l1.748,8.65
						c1.16,5.757,2.314,11.484,3.462,17.185c1.145,5.703,2.285,11.379,3.418,17.026c1.14,5.644,2.659,11.179,3.955,16.731
						c2.688,11.086,5.347,22.056,7.976,32.9c2.837,10.793,6.072,21.348,9.023,31.843c24.143,83.855,54.683,156.619,83.14,216.265
						c7.41,14.788,14.468,28.87,21.145,42.2c1.663,3.337,3.303,6.628,4.917,9.871c1.787,3.147,3.545,6.248,5.278,9.302
						c3.452,6.116,6.799,12.039,10.034,17.766c6.423,11.487,12.402,22.185,17.913,32.039c1.365,2.468,2.703,4.888,4.011,7.251
						c1.433,2.283,2.832,4.517,4.202,6.694c2.717,4.368,5.305,8.525,7.759,12.466
						C1155.56,1480.612,1165.724,1498.649,1164.269,1499.701z"/>
				</g>
			</g>
			<g>
				<path style="fill:#7BA2FF;" d="M2642.21,3492.925c0,69.141-287.347,169.59-641.85,169.59s-641.85-100.449-641.85-169.59
					c0-17.025,17.498-35.611,49.231-53.913c96.76-55.852,325.654-109.103,592.619-109.103c268.005,0,497.608,53.677,593.706,109.718
					C2625.09,3457.739,2642.21,3476.088,2642.21,3492.925z"/>
			</g>
			<g style="opacity:0.3;">
				<path style="fill:#390176;" d="M2594.067,3439.626c-9.458,68.952-271.41,165.806-593.092,165.806
					c-322.675,0-585.241-97.422-593.233-166.421c96.76-55.852,325.654-109.103,592.619-109.103
					C2268.365,3329.908,2497.969,3383.585,2594.067,3439.626z"/>
			</g>
			<g>
				<path style="fill:#390176;" d="M2000.358,3674.357c-163.125,0-325.483-21.079-457.168-59.353
					c-59.087-17.175-196.519-63.452-196.519-122.075c0-88.237,323.789-174.841,653.687-174.841s653.682,86.604,653.682,174.841
					c0,58.623-137.432,104.9-196.519,122.075C2325.841,3653.278,2163.483,3674.357,2000.358,3674.357z M2000.358,3341.735
					c-161.987,0-322.056,19.59-450.718,55.161c-123.208,34.065-179.326,73.66-179.326,96.033c0,22.734,56.167,63.525,179.478,99.368
					c129.595,37.668,289.609,58.413,450.566,58.413s320.967-20.745,450.566-58.413c123.306-35.842,179.473-76.633,179.473-99.368
					c0-22.373-56.118-61.968-179.326-96.033C2322.413,3361.324,2162.345,3341.735,2000.358,3341.735z"/>
			</g>
			<g>
				<g>
					<path style="fill:#390176;" d="M1421.329,3474c0.608-0.051,0.391,4.473,4.319,11.443c3.857,6.968,12.28,15.645,24.998,24.302
						c25.408,17.485,67.119,35.396,120.337,51.328c106.497,31.897,259.951,56.311,429.971,56.335
						c170.02-0.024,323.477-24.438,429.971-56.335c53.218-15.933,94.932-33.843,120.342-51.328
						c12.715-8.657,21.138-17.334,24.995-24.302c3.931-6.97,3.711-11.494,4.316-11.443c0.269-0.115,1.47,4.663-1.978,12.622
						c-3.374,7.905-11.709,17.659-24.365,27.219c-25.322,19.331-67.144,38.774-120.576,56.013
						c-106.919,34.49-261.382,60.53-432.705,60.559c-171.318-0.029-325.781-26.069-432.703-60.559
						c-53.43-17.239-95.254-36.682-120.579-56.013c-12.656-9.561-20.989-19.314-24.365-27.219
						C1419.862,3478.663,1421.061,3473.885,1421.329,3474z"/>
				</g>
			</g>
			<g>
				<ellipse style="fill:#4C63A8;" cx="2000.36" cy="3254.503" rx="318.028" ry="110.609"/>
			</g>
			<g style="opacity:0.3;">
				<ellipse style="fill:#390176;" cx="2000.36" cy="3254.503" rx="318.028" ry="110.609"/>
			</g>
			<g>
				<path style="fill:#FF7AA4;" d="M2315.933,3202.994l-23.316,2.317c-194.37,19.437-390.16,19.437-584.531,0l-23.315-2.317
					c0,0-3.122-32.301,7.945-64.602c11.066-32.347,0-76.708,0-76.708c59.068-67.533,85.315-148.828,95.341-222.699
					c6.196-45.731,6.196-88.624,3.973-123.621c-2.175-34.24-6.479-60.959-9.269-75.478l2.223-11.208
					c21.99,4.398,45.212,8.182,69.803,11.255c1.135,2.033,31.071,54.339,145.566,56.277
					c114.494-1.938,144.431-54.244,145.566-56.277c24.592-3.073,47.812-6.857,69.803-11.255l2.222,11.208
					c-10.168,53.488-41.333,271.599,90.092,421.799c0,0,0,0,0,0.047c-0.426,1.703-10.83,44.975,0,76.66
					C2319.101,3170.693,2315.933,3202.994,2315.933,3202.994z"/>
			</g>
			<g>
				<path style="fill:#390176;" d="M2000.348,3231.686c-98.047,0-196.094-4.866-293.457-14.597l-23.296-2.329
					c-5.615-0.562-10.049-5.012-10.591-10.627c-0.137-1.421-3.237-35.242,8.525-69.573c9.776-28.572-0.186-69.612-0.288-70.022
					c-0.928-3.75,0.034-7.727,2.573-10.635c126.23-144.314,98.755-351.689,87.329-411.809c-0.283-1.489-0.278-3.018,0.02-4.507
					l2.222-11.208c0.61-3.079,2.417-5.789,5.029-7.532c2.608-1.746,5.801-2.38,8.887-1.763c22.114,4.421,45.313,8.162,68.95,11.118
					c3.74,0.466,7.031,2.688,8.862,5.977c0.273,0.486,28.242,48.396,135.439,50.21c106.738-1.814,134.775-49.744,135.049-50.227
					c1.836-3.281,5.122-5.493,8.853-5.959c23.628-2.954,46.826-6.694,68.945-11.118c3.091-0.62,6.274,0.017,8.887,1.76
					c2.607,1.743,4.419,4.453,5.029,7.529l2.227,11.208c0.298,1.489,0.303,3.022,0.02,4.514
					c-11.431,60.115-38.916,267.478,87.368,411.804c1.885,2.156,2.925,4.922,2.925,7.786c0,0.964-0.117,1.973-0.352,2.91
					c-2.842,11.382-8.428,46.138-0.283,69.973c11.763,34.329,8.618,68.157,8.481,69.58c-0.552,5.608-4.985,10.049-10.591,10.61
					l-23.301,2.329C2196.447,3226.82,2098.4,3231.686,2000.348,3231.686z M1696.183,3192.252l13.062,1.306
					c193.164,19.314,389.048,19.314,582.212,0l13.062-1.304c0.029-11.243-1.074-30.784-7.671-50.029
					c-9.629-28.179-4.36-63.311-1.606-77.28c-125.581-148.237-102.056-354.333-89.839-422.241
					c-17.104,3.169-34.746,5.942-52.642,8.274c-11.304,15.276-50.562,55.332-152.207,57.053
					c-102.075-1.721-141.323-41.763-152.617-57.053c-17.9-2.332-35.532-5.105-52.632-8.271
					c12.212,67.91,35.737,274.004-89.785,422.231c2.754,14.004,8.013,49.136-1.616,77.28
					C1697.267,3161.581,1696.154,3181.049,1696.183,3192.252z M2315.934,3202.994h0.049H2315.934z M2315.934,3202.994h0.049
					H2315.934z"/>
			</g>
			<g>
				<path style="fill:#4C63A8;" d="M1978.786,3307.795c0,0,128.917,106.454,82.807,235.325c0,0,131.633,37.441,299.123,0
					c190.578-42.6,213.406-122.959,198.332-223.456c-15.074-100.496-98.053-176.99-219.613-139.512
					C2194.275,3224.904,1978.786,3307.795,1978.786,3307.795z"/>
			</g>
			<g style="opacity:0.6;">
				<g>
					<path style="fill:#FFFFFF;" d="M1995.094,3323.215c26.234-10.043,222.454-84.815,357.678-126.504
						c74.803-23.063,134.962-2.931,173.713,39.358c-37.477-53.27-103.042-81.818-187.051-55.917
						c-145.16,44.752-360.649,127.643-360.649,127.643S1985.416,3313.29,1995.094,3323.215z"/>
				</g>
				<g>
					<path style="fill:#FFFFFF;" d="M2078.865,3547.186c22.58-82.028-23.344-153.567-56.577-192.248
						c32.393,43.125,66.669,111.705,39.305,188.182C2061.594,3543.119,2067.692,3544.848,2078.865,3547.186z"/>
				</g>
			</g>
			<g style="opacity:0.3;">
				<path style="fill:#390176;" d="M2545.26,3312.281c-9.198-59.706-44.406-110.446-98.557-131.204
					c3.401,10.235,6.008,20.884,7.698,31.854c14.657,95.142-7.539,171.221-192.834,211.552
					c-74.884,16.299-142.349,17.595-193.435,14.254c5.192,26.289,4.505,55.043-6.539,85.097c0,0,127.984,35.447,290.832,0
					C2537.721,3483.502,2559.917,3407.423,2545.26,3312.281z"/>
			</g>
			<g>
				<path style="fill:#390176;" d="M2208.19,3571.705c-87.808,0-146.201-16.182-149.829-17.214c-3.149-0.896-5.786-3.054-7.28-5.964
					c-1.499-2.91-1.724-6.309-0.62-9.39c42.72-119.392-77.988-221.218-79.209-222.234c-3.232-2.678-4.81-6.875-4.131-11.018
					s3.501-7.617,7.422-9.126c2.158-0.83,217.529-83.547,361.411-127.905c56.768-17.498,109.434-12.49,152.329,14.485
					c43.696,27.485,73.755,76.536,82.461,134.573c14.346,95.669-0.85,190.566-207.446,236.746
					C2306.134,3567.435,2253.282,3571.705,2208.19,3571.705z M2076.72,3534.598c35.659,7.8,147.417,26.936,281.421-3.018
					c177.847-39.756,204.258-109.89,189.214-210.164c-7.681-51.216-33.799-94.248-71.665-118.062
					c-36.88-23.198-82.783-27.312-132.773-11.904c-119.023,36.694-287.524,99.89-342.1,120.598
					C2033.278,3344.269,2106.027,3430.692,2076.72,3534.598z"/>
			</g>
			<g>
				<path style="fill:#FFC891;" d="M2754.898,3254.448c-7.945,5.392-13.998,5.722-13.998,5.722
					c-0.33,5.817-3.547,11.209-8.748,14.14c-35.327,19.674-64.932-1.514-64.932-1.514c-5.629,6.101-17.168,10.027-35.611,8.23
					c-44.549-4.304-77.653-40.577-77.653-40.577c-69.756-18.303-86.308-70.938-86.308-70.938
					c-69.851-26.437-121.542-64.271-159.611-107.779c0-0.047,0-0.047,0-0.047c-131.425-150.2-100.26-368.311-90.092-421.799
					c67.864-2.554,126.979,25.49,167.887,77.134c26.105,32.915,44.738,75.478,53.535,125.797
					c22.51,129.25,127.026,199.62,127.026,199.62c31.922-41.427,103.429-2.979,111.705,13.573
					c5.391,10.735-3.831,20.005-10.972,25.16c-3.878,2.79-7.141,4.398-7.141,4.398c-60.108-6.574-69.377,57.319-24.45,52.59
					c44.927-4.729,43.177-56.751,43.177-56.751c26.011-14.756,57.933,13.62,48.711,53.25c-9.222,39.584-36.32,46.678-36.32,46.678
					c9.269,14.756,34.192,28.518,59.256,36.699c0.426,0.142,0.899,0.284,1.324,0.426c5.155,1.655,8.75,6.431,10.688,11.492
					C2765.728,3238.888,2762.749,3249.104,2754.898,3254.448z"/>
			</g>
			<g style="opacity:0.6;">
				<g>
					<path style="fill:#FFFFFF;" d="M2676.413,3100.155c19.256,3.968,35.1,27.146,28.253,56.571
						c-2.157,9.258-5.309,16.678-8.846,22.706c8.175-3.995,24.775-15.472,31.603-44.775c9.222-39.63-22.7-68.006-48.711-53.25
						C2678.711,3081.406,2678.987,3089.805,2676.413,3100.155z"/>
				</g>
				<g>
					<path style="fill:#FFFFFF;" d="M2363.075,2739.09c32.562,45.002,43.934,70.666,53.535,125.795
						c22.51,129.25,127.026,199.62,127.026,199.62c31.922-41.427,103.428-2.979,111.705,13.573c1.262,2.512,1.698,4.939,1.573,7.257
						c1.02,0.073,2.018,0.117,3.069,0.232c0,0,3.263-1.608,7.141-4.398c7.141-5.155,16.363-14.424,10.972-25.16
						c-8.276-16.552-79.782-55-111.705-13.573c0,0-104.516-70.37-127.026-199.62c-8.797-50.318-27.43-92.881-53.535-125.796
						c-40.908-51.644-100.024-79.688-167.887-77.134c-0.586,3.285-0.586,3.285-1.758,9.854c1.172-6.569,1.172-6.569,1.758-9.854
						c20.842,5.191,53.709,16.133,87.452,40.654C2315.334,2687.762,2339.405,2706.376,2363.075,2739.09z"/>
				</g>
			</g>
			<g>
				<path style="fill:#390176;" d="M2701.066,3294.545c-14.131,0-25.693-4.17-32.852-7.629c-7.646,4.443-19.497,7.659-37.754,5.879
					c-41.787-4.038-73.735-32.844-82.729-41.787c-59.824-16.897-82.612-57.351-89.175-72.327
					c-64.438-25.176-118.052-61.885-159.419-109.163c-0.19-0.217-0.371-0.442-0.547-0.669
					c-132.71-152.339-104.18-368.486-92.261-431.174c1.03-5.415,5.664-9.399,11.172-9.604
					c118.594-4.426,210.195,79.058,233.511,212.715c17.769,102.007,89.839,166.687,114.033,185.867
					c12.876-11.274,30.029-16.16,50.347-14.197c32.041,3.101,65.703,23.115,73.281,38.267c2.646,5.271,3.438,10.759,2.471,16.177
					c5.474-1.072,11.167-0.659,16.489,1.299c21.162,7.788,39.326,34.666,31.304,69.138c-5.918,25.408-18.555,39.548-28.916,47.18
					c10.347,8.406,26.846,16.802,45.254,22.676c8.013,2.576,14.614,9.329,18.135,18.535c5.376,14.29,0.483,30.093-11.865,38.496
					c-0.005,0.002-0.005,0.005-0.01,0.007c-3.97,2.695-7.661,4.456-10.771,5.603c-2.397,6.189-6.86,11.428-12.813,14.778
					C2724.679,3292.006,2712.091,3294.542,2701.066,3294.545z M2667.223,3260.973c2.393,0,4.8,0.725,6.875,2.209
					c0.908,0.632,24.268,16.421,52.3,0.798c1.563-0.879,2.588-2.566,2.7-4.485c0.342-6.008,5.142-10.801,11.152-11.13
					c0,0,0,0-0.005,0c-0.137,0,3.252-0.471,8.008-3.701c3.237-2.207,4.517-6.643,3.052-10.552c-1.064-2.773-2.559-4.18-3.242-4.402
					c-11.88-3.789-51.885-18.047-66.978-42.09c-2.002-3.188-2.363-7.141-0.977-10.64c1.387-3.501,4.355-6.13,7.998-7.085
					c0.659-0.2,20.464-6.428,27.803-37.922c4.946-21.26-4.78-37.295-16.44-41.584c-2.549-0.945-4.683-0.212-6.035,0.571
					c-2.261,1.294-3.823,3.55-4.292,6.184c-5.454,30.605-24.541,49.841-52.368,52.771c-15.864,1.665-29.038-3.535-36.123-14.287
					c-6.797-10.317-6.802-24.25-0.015-36.365c9.551-17.048,29.644-26.792,53.691-25.947c2.07,0.056,4.189-0.522,5.801-1.677
					c1.611-1.16,9.15-6.843,7.402-10.322c-2.759-5.229-27.427-23.02-55.181-25.396c-16.177-1.392-28.501,3.232-36.592,13.73
					c-3.799,4.937-10.786,6.079-15.967,2.59c-4.438-2.988-108.965-74.709-132.07-207.397
					c-20.532-117.664-98.462-192.529-199.868-193.289c-11.973,70.073-31.245,264.829,89.077,402.344
					c0.186,0.21,0.361,0.427,0.532,0.649c39.761,45.229,91.689,80.183,154.37,103.904c3.394,1.282,6.006,4.05,7.095,7.51
					c0.601,1.841,15.952,46.763,78.032,63.052c2.202,0.579,4.194,1.782,5.732,3.467c0.288,0.313,30.742,32.979,70.054,36.777
					c14.629,1.431,22.92-1.377,25.786-4.48C2660.846,3262.269,2664.02,3260.973,2667.223,3260.973z M2754.894,3254.447h0.049
					H2754.894z M2651.564,3096.918c-14.136,0-25.381,5.125-30.298,13.906c-2.412,4.304-2.754,8.936-0.869,11.797
					c2.051,3.113,7.104,4.492,13.901,3.779c16.689-1.758,27.158-12.258,31.143-31.221c-3.804,1.296-7.842,1.914-11.895,1.77
					C2652.882,3096.927,2652.218,3096.918,2651.564,3096.918z"/>
			</g>
			<g>
				<path style="fill:#FFC891;" d="M2145.917,2639.886c0,0,0,0,0,0.047c-1.135,2.033-31.071,54.339-145.566,56.277
					c-114.495-1.938-144.431-54.244-145.566-56.277c0-0.047,0-0.047,0-0.047H2145.917z"/>
			</g>
			<g style="opacity:0.3;">
				<path style="fill:#390176;" d="M2145.917,2639.886c0,0,0,0,0,0.047c-1.135,2.033-31.071,54.339-145.566,56.277
					c-114.495-1.938-144.431-54.244-145.566-56.277c0-0.047,0-0.047,0-0.047H2145.917z"/>
			</g>
			<g>
				<path style="fill:#FFC891;" d="M2733.665,2261.879c0,62.708-59.873,127.31-124.947,127.31c-9.174,0-18.066-0.993-26.625-2.979
					c-31.308,67.532-121.258,193.425-366.373,242.467c-21.992,4.398-45.212,8.182-69.803,11.255
					c-44.124,5.485-92.504,8.701-145.566,8.985c-53.062-0.284-101.442-3.5-145.566-8.985c-24.592-3.073-47.813-6.857-69.803-11.255
					c-245.116-49.042-335.018-174.935-366.373-242.467c-8.56,1.986-17.451,2.979-26.626,2.979
					c-65.074,0-124.946-64.602-124.946-127.31c0-54.717,45.684-89.903,100.591-97.942h35.374v-389.547
					c0,0,290.232-309.527,597.348-309.527c307.115,0,589.876,310.71,589.876,310.71l5.154,388.364h37.693
					C2687.98,2171.977,2733.665,2207.162,2733.665,2261.879z"/>
			</g>
			<g style="opacity:0.3;">
				<path style="fill:#390176;" d="M2608.718,2305.111c-4.523,0-9.048-0.22-13.543-0.683c-1.996-0.206-11.594-2.813-13.082-2.049
					c-1.186,0.61-2.607,5.026-3.173,6.076c-2.878,5.343-5.946,10.6-9.183,15.768c-7.019,11.208-14.836,21.993-23.311,32.318
					c-22.552,27.477-49.761,51.603-79.729,72.221c-93.477,64.311-210.536,94.138-325.063,106.788
					c-136.9,15.121-281.041,10.464-414.402-23.354c-93.452-23.698-184.662-64.659-250.757-131.156
					c-21.824-21.957-40.716-46.513-55.02-73.204c-3.311-6.177-3.488-5.038-11.513-3.938c-8.447,1.157-17.07,1.542-25.589,0.944
					c-15.929-1.118-31.37-5.748-45.368-12.721c-28.908-14.4-52.338-38.822-64.151-66.99
					c-29.004,58.502,24.619,128.438,85.899,145.964c18.863,5.395,34.495,2.529,53.57,2.599c5.74,0.021,4.882,0.416,7.484,5.241
					c1.634,3.031,3.33,6.033,5.082,9.008c7.868,13.361,16.877,26.153,26.798,38.307c66.236,81.147,168.912,129.889,273.565,156.426
					c156.172,39.601,329.984,41.637,488.489,12.552c116.085-21.302,233.53-65.302,313.224-148.52
					c12.219-12.76,23.426-26.347,33.342-40.692c4.078-5.899,7.94-11.926,11.557-18.073c1.629-2.77,3.21-5.564,4.737-8.382
					c2.769-5.107,1.917-5.637,7.819-5.867c9.144-0.357,18.545,2.222,27.933,1.735c8.708-0.452,17.314-1.947,25.636-4.334
					c15.695-4.503,30.215-12.059,42.926-21.587c25.597-19.188,45.057-47.086,49.731-77.399c2.449-15.883,0.516-32.31-6.757-46.978
					C2707.76,2268.313,2660.723,2305.111,2608.718,2305.111z"/>
			</g>
			<g>
				<path style="fill:#555176;" d="M1839.42,980.048c0,0-50.233-52.093-160.939,18.356
					c-112.713,71.727-62.084,254.299,20.191,266.661h186.712C1885.384,1265.066,1941.243,1055.882,1839.42,980.048z"/>
			</g>
			<g style="opacity:0.6;">
				<path style="fill:#FFFFFF;" d="M1711.194,1008.651c52.459-33.383,91.317-39.234,117.708-36.168
					c-19.915-11.301-68.656-26.111-150.421,25.921c-112.713,71.727-62.084,254.299,20.192,266.662h6.504
					C1639.859,1223.386,1611.092,1072.353,1711.194,1008.651z"/>
			</g>
			<g>
				<path style="fill:#555176;" d="M2161.301,980.048c0,0,50.233-52.093,160.939,18.356
					c112.713,71.727,62.084,254.299-20.191,266.661h-186.712C2115.337,1265.066,2059.477,1055.882,2161.301,980.048z"/>
			</g>
			<g style="opacity:0.6;">
				<path style="fill:#FFFFFF;" d="M2322.24,998.404c-110.706-70.449-160.939-18.356-160.939-18.356
					c-9.831,7.323-18.179,15.899-25.262,25.399c9.121-7.796,59.75-43.659,159.402,19.756c83.99,53.447,77.255,168.406,34.34,228.662
					C2394.025,1210.837,2421.567,1061.613,2322.24,998.404z"/>
			</g>
			<g style="opacity:0.3;">
				<path style="fill:#390176;" d="M1839.42,980.048c0,0-4.302-4.425-13.09-8.953c-7.721,4.73-15.653,10.329-23.763,17.063
					c-73.303,60.866-91.887,168.22,17.028,259.114h69.859C1900.224,1195.151,1923.215,1042.456,1839.42,980.048z"/>
			</g>
			<g style="opacity:0.3;">
				<path style="fill:#390176;" d="M2161.303,980.048c0,0,4.302-4.425,13.09-8.953c7.721,4.73,15.653,10.329,23.763,17.063
					c73.303,60.866,91.887,168.22-17.028,259.114h-69.859C2100.498,1195.151,2077.507,1042.456,2161.303,980.048z"/>
			</g>
			<g>
				<path style="fill:#555176;" d="M2116.645,1210.621h-232.535c-108.915-90.894-90.331-198.249-17.028-259.114
					c73.303-60.866,133.273-33.483,133.273-33.483s60.011-27.382,133.314,33.483
					C2206.971,1012.372,2225.509,1119.726,2116.645,1210.621z"/>
			</g>
			<g style="opacity:0.3;">
				<path style="fill:#390176;" d="M2050.841,1149.551h-100.953c-63.817,0-121.237-41.837-137.675-103.5
					c-0.543-2.038-1.04-4.073-1.49-6.104c-12.051,53.468,6.837,115.136,73.387,170.675h232.535
					c66.525-55.543,85.415-117.218,73.366-170.691c-0.451,2.032-0.947,4.068-1.49,6.106
					C2172.087,1107.706,2114.664,1149.551,2050.841,1149.551z"/>
			</g>
			<g style="opacity:0.6;">
				<path style="fill:#FFFFFF;" d="M1867.081,987.763c73.303-60.866,133.273-33.483,133.273-33.483s60.011-27.382,133.314,33.483
					c31.904,26.491,53.416,61.792,58.584,100.706c6.918-52.952-17.005-102.438-58.584-136.963
					c-73.303-60.866-133.314-33.483-133.314-33.483s-59.97-27.382-133.273,33.483c-41.583,34.527-65.52,84.019-58.6,136.974
					C1813.651,1049.563,1835.174,1014.258,1867.081,987.763z"/>
			</g>
			<g>
				<path style="fill:#390176;" d="M2116.647,1222.445h-232.539c-2.769,0-5.449-0.972-7.573-2.747
					c-67.109-56.008-81.143-112.209-81.094-149.497c0.059-48.142,22.822-93.525,64.087-127.791
					c66.855-55.51,124.024-42.656,140.825-37.017c16.816-5.642,74.004-18.501,140.869,37.017
					c41.25,34.253,64.004,79.626,64.072,127.759c0.049,37.292-13.975,93.503-81.069,149.526
					C2122.096,1221.471,2119.415,1222.445,2116.647,1222.445z M1888.439,1198.798h223.877
					c45.435-39.038,69.395-83.43,69.331-128.596c-0.054-40.986-19.775-79.91-55.532-109.597
					c-66.172-54.946-118.721-32.764-120.923-31.792c-3.096,1.36-6.685,1.365-9.751-0.034c-2.134-0.938-54.644-23.11-120.806,31.826
					c-35.771,29.7-55.498,68.633-55.547,109.627C1819.03,1115.387,1842.994,1159.772,1888.439,1198.798z"/>
			</g>
			<g>
				<path style="fill:#555176;" d="M2590.227,2220.12c-9.458-249.088-256.181-393.708-256.181-393.708
					c31.922-74.485,0-190.351,0-190.351c-128.871-61.766-333.692-61.48-333.692-61.48s-204.825-0.286-333.696,61.48
					c0,0-31.922,115.866,0,190.351c0,0-246.723,144.62-256.182,393.708c0,0-256.939-264.837-40.623-626.765l0.046-0.046
					c66.92-227.192,232.157-275.052,235.422-275.999h0.046c85.408-67.391,184.25-74.578,184.25-74.578
					s100.875-40.956,151.335-42.563c50.46-1.561,59.402,16.552,59.402,16.552s8.983-18.113,59.397-16.552
					c50.46,1.607,151.335,42.563,151.335,42.563s98.889,7.186,184.297,74.578c0,0,167.887,46.489,235.468,275.999l0.051,0.097
					C2847.115,1955.33,2590.227,2220.12,2590.227,2220.12z"/>
			</g>
			<g>
				<g>
					<path style="fill:#FFFFFF;" d="M1664.008,1828.021c1.72-1.063,2.649-1.608,2.649-1.608c-1.585-3.698-2.971-7.522-4.252-11.405
						C1662.819,1819.372,1663.364,1823.711,1664.008,1828.021z"/>
				</g>
				<g style="opacity:0.6;">
					<path style="fill:#FFFFFF;" d="M1385.506,1636.027l0.045-0.046c56.469-180.418,131.602-206.84,131.602-206.84
						c129.012-128.065,277.707-143.736,277.707-143.736s98.373-40.956,147.581-42.563c49.209-1.561,66.688-1.561,115.852,0
						c49.209,1.607,147.582,42.563,147.582,42.563s148.885,19.612,262.152,120.408c0,0,99.074,49.831,147.201,230.168l0.05,0.097
						c107.771,184.989,94.995,344.574,56.762,456.423c50.494-111.848,84.304-289.115-41.138-499.094l-0.051-0.097
						c-67.581-229.51-235.468-275.999-235.468-275.999c-85.408-67.391-184.297-74.578-184.297-74.578
						s-100.875-40.956-151.335-42.563c-50.414-1.561-59.397,16.552-59.397,16.552s-8.941-18.113-59.402-16.552
						c-50.46,1.607-151.335,42.563-151.335,42.563s-98.843,7.186-184.25,74.578h-0.046c-3.265,0.947-168.502,48.807-235.422,275.999
						l-0.046,0.046c-125.597,210.142-91.647,387.534-41.084,499.38C1290.466,1980.861,1277.602,1821.159,1385.506,1636.027z"/>
				</g>
				<g>
					<path style="fill:#FFFFFF;" d="M2334.046,1826.412c0,0,0.938,0.55,2.676,1.626c0.652-4.355,1.2-8.739,1.616-13.15
						C2337.045,1818.813,2335.647,1822.676,2334.046,1826.412z"/>
				</g>
			</g>
			<g>
				<path style="fill:#390176;" d="M2590.226,2231.945c-1.421,0-2.856-0.256-4.233-0.784c-4.419-1.694-7.402-5.862-7.583-10.591
					c-9.106-239.841-247.935-382.544-250.342-383.958c-5.142-3.013-7.236-9.38-4.893-14.858
					c26.201-61.13,6.304-154.482,0.776-177.368c-124.932-57.417-320.474-57.981-323.56-57.981c-0.015-0.002-0.029-0.005-0.039,0
					c-2.861,0-198.672,0.566-323.604,57.981c-5.527,22.886-25.42,116.238,0.776,177.371c2.344,5.471,0.249,11.838-4.888,14.854
					c-2.407,1.416-241.255,144.426-250.347,383.96c-0.181,4.729-3.164,8.896-7.583,10.591c-4.419,1.699-9.419,0.591-12.72-2.808
					c-2.7-2.783-66.543-69.438-104.16-182.148c-34.644-103.821-52.095-267.424,61.172-457.729
					c64.868-218.123,219.541-274.968,240.82-281.838c81.274-63.25,172.319-74.15,187.021-75.532
					c13.931-5.571,104.79-41.194,153.735-42.751c32.212-1.006,50.059,5.603,59.78,12.114c9.722-6.509,27.666-13.12,59.761-12.114
					c48.955,1.558,139.81,37.18,153.74,42.751c14.712,1.382,105.781,12.278,187.051,75.518
					c21.87,6.831,175.542,62.087,240.869,281.941c113.184,190.286,95.728,353.865,61.079,457.666
					c-37.617,112.698-101.445,179.343-104.146,182.124C2596.442,2230.692,2593.365,2231.945,2590.226,2231.945z M1379.743,1599.857
					c-87.437,146.516-107.559,293.838-59.805,437.891c23.804,71.816,59.507,124.885,80.913,152.544
					c23.594-211.653,208.227-341.272,251.23-368.77c-26.982-77.021,1.885-183.904,3.179-188.601
					c0.908-3.301,3.198-6.042,6.284-7.522c129.814-62.214,330.576-62.642,338.823-62.642c8.599,0.059,208.96,0.42,338.789,62.642
					c3.081,1.479,5.376,4.221,6.284,7.522c1.294,4.695,30.166,111.58,3.179,188.601c43.003,27.498,227.637,157.117,251.23,368.77
					c21.401-27.656,57.1-80.72,80.903-152.522c47.798-144.177,27.612-291.643-60.005-438.298c-0.151-0.254-0.293-0.513-0.425-0.776
					c-0.313-0.625-0.615-1.375-0.815-2.046c-64.761-219.924-225.684-267.495-227.305-267.949c-1.499-0.422-2.92-1.143-4.146-2.107
					c-81.357-64.202-176.885-71.997-177.842-72.068c-1.226-0.093-2.441-0.376-3.579-0.837c-0.986-0.4-99.502-40.181-147.261-41.702
					c-36.128-1.113-46.841,8.511-48.579,10.415c-1.665,4.634-5.479,7.744-10.444,7.744c-0.005,0-0.01,0-0.02,0
					c-4.971-0.007-8.779-3.118-10.439-7.761c-1.738-1.907-12.358-11.504-48.574-10.398c-47.749,1.521-146.27,41.301-147.256,41.702
					c-1.147,0.464-2.358,0.747-3.589,0.837c-0.947,0.071-96.426,7.866-177.783,72.068c-1.343,1.057-2.891,1.807-4.526,2.205
					c-11.274,3.391-163.628,52.964-226.924,267.852C1380.905,1597.792,1380.397,1598.871,1379.743,1599.857z M1989.752,1221.954
					L1989.752,1221.954L1989.752,1221.954z"/>
			</g>
			<g>
				<path style="fill:#390176;" d="M2508.116,1704.283c-8.442,70.205-25.859,139.429-47.759,207.029
					c-1.611,4.976-6.948,7.703-11.924,6.091c-4.976-1.614-7.7-6.951-6.089-11.926c0.088-0.264,0.195-0.554,0.303-0.808
					C2470.128,1840.106,2493.439,1773.441,2508.116,1704.283z"/>
			</g>
			<g>
				<path style="fill:#390176;" d="M2401.241,1309.886c21.768,18.362,41.177,39.451,57.28,62.737
					c16.177,23.25,28.662,48.818,37.954,75.254c9.199,26.487,15.371,53.889,18.364,81.543c3.081,27.646,3.501,55.422,2.275,83.042
					c-0.347-27.659-2.358-55.244-6.958-82.366c-4.507-27.129-12.124-53.65-22.52-78.843c-10.483-25.146-23.901-49.006-40.571-70.264
					c-16.611-21.296-36.094-40.144-57.539-56.252l-0.073-0.051c-4.175-3.14-5.02-9.07-1.88-13.25
					c3.135-4.18,9.067-5.024,13.247-1.885C2400.958,1309.655,2401.115,1309.779,2401.241,1309.886z"/>
			</g>
			<g>
				<path style="fill:#390176;" d="M2645.934,1970.446c-7.393,85.188-22.3,169.995-41.748,253.765
					c-1.821,7.837-9.648,12.712-17.48,10.894c-7.837-1.819-12.715-9.646-10.894-17.48c0.122-0.54,0.283-1.084,0.464-1.594
					C2604.718,2136.017,2628.942,2054.24,2645.934,1970.446z"/>
			</g>
			<g>
				<g>
					<path style="fill:#716C82;" d="M2630.898,1593.404c20.241,68.715,31.449,153.889,26.484,259.114"/>
				</g>
				<g>
					<path style="fill:#390176;" d="M2639.972,1590.731c10.928,42.998,17.075,86.833,19.57,130.649
						c2.5,43.833,1.387,87.654-2.158,131.138c0.396-43.633-1.665-87.231-7.261-130.259c-5.581-43.008-14.741-85.444-28.296-126.184
						l-0.01-0.024c-1.65-4.958,1.03-10.317,5.991-11.968c4.961-1.653,10.317,1.03,11.968,5.991
						C2639.85,1590.284,2639.918,1590.519,2639.972,1590.731z"/>
				</g>
			</g>
			<g>
				<path style="fill:#390176;" d="M2593.873,1480.98c5.82,16.609,10.073,32.742,13.945,49.316
					c1.846,8.262,3.525,16.55,5.151,24.841c1.357,8.342,2.92,16.643,4.102,24.998c4.922,33.398,6.982,67.158,6.318,100.791
					c-0.093,8.411-0.151,16.814-0.933,25.198l-1.841,25.129c-2.402,16.638-3.818,33.376-7.603,49.749
					c-5.728,33.076-16.411,64.973-27.92,96.25c10.034-31.831,19.131-63.984,23.257-97.041c2.983-16.357,3.594-33.022,5.195-49.512
					l0.64-24.868c0.386-8.279,0.044-16.565-0.254-24.844c-0.908-33.096-4.497-66.091-10.85-98.494
					c-1.543-8.105-3.452-16.138-5.156-24.199c-1.968-8-3.979-15.991-6.147-23.926c-4.448-15.737-9.546-31.699-15.459-46.34
					l-0.151-0.374c-1.958-4.846,0.381-10.361,5.229-12.319c4.844-1.958,10.361,0.383,12.319,5.227
					C2593.766,1480.692,2593.824,1480.851,2593.873,1480.98z"/>
			</g>
			<g>
				<path style="fill:#390176;" d="M2594.357,2236.429c-0.947,0.002-3.101,0.471-4.766,0.898c-1.792,0.437-3.589,0.996-5.396,1.599
					c-3.623,1.196-7.153,2.744-10.664,4.441c-6.968,3.479-13.447,8.083-19.15,13.699c-5.693,5.598-10.786,12.209-14.385,19.792
					c-2.114,3.689-3.359,7.737-4.873,11.792c-1.411,4.08-2.114,8.359-3.223,12.654c-0.103-4.343-0.605-8.818-0.361-13.276
					c0.352-4.441,0.474-9.028,1.558-13.472c1.533-9.058,4.966-17.937,9.668-26.238c4.697-8.32,10.825-16.03,18.032-22.661
					c3.633-3.274,7.437-6.428,11.543-9.248c2.051-1.416,4.15-2.798,6.357-4.075c2.31-1.335,4.219-2.449,7.407-3.794l2.363-0.996
					c7.646-3.225,16.465,0.364,19.688,8.013c3.228,7.649-0.361,16.465-8.013,19.69
					C2598.278,2236.036,2596.261,2236.412,2594.357,2236.429z"/>
			</g>
			<g>
				<g>
					<path style="fill:#FDC7A3;" d="M2608.34,3211.696c0,0,23.268,20.856,45.353,32.679c12.911,6.905,16.789,19.816,8.796,28.423"/>
				</g>
				<g>
					<path style="fill:#390176;" d="M2609.147,3210.797c12.207,8.84,25.024,16.987,38.193,23.689
						c3.354,1.719,6.479,3.079,10.078,4.7c4.087,1.912,8.052,4.624,11.367,8.43c3.247,3.796,5.913,8.904,6.255,14.888
						c0.483,5.981-1.914,12.268-5.62,16.729l-0.537,0.652c-3.369,4.053-9.38,4.612-13.433,1.245
						c-4.058-3.364-4.614-9.377-1.25-13.433c0.405-0.483,0.889-0.95,1.357-1.335c1.372-1.106,2.305-2.173,2.627-3.811
						c0.386-1.609-0.024-3.86-1.255-6.091c-1.26-2.227-3.267-4.395-5.757-6.184c-2.998-2.073-6.465-4.412-9.497-6.75
						c-12.388-9.475-23.574-19.885-34.141-30.93c-0.464-0.483-0.444-1.248,0.039-1.709c0.43-0.41,1.079-0.444,1.543-0.107
						L2609.147,3210.797z"/>
				</g>
			</g>
			<g>
				<path style="fill:#FDC7A3;" d="M2220.497,2627.684c0,0-1.04,4.304-2.554,12.201"/>
				<path style="fill:#390176;" d="M2217.955,2654.43c-0.908,0-1.826-0.085-2.754-0.261c-7.886-1.514-13.052-9.131-11.543-17.019
					c1.597-8.337,2.7-12.881,2.7-12.881c1.895-7.8,9.771-12.588,17.549-10.708c7.798,1.885,12.598,9.729,10.723,17.532
					c-0.044,0.188-1.011,4.241-2.407,11.531C2230.89,2649.586,2224.791,2654.43,2217.955,2654.43z"/>
			</g>
			<g>
				<g>
					<path style="fill:#FDC7A3;" d="M2736.171,3264.899c0.142-1.466,0.094-2.932-0.189-4.398
						c-1.135-6.621-5.911-12.012-12.343-13.999c-19.201-5.911-51.028-11.586-68.385-39.158"/>
				</g>
				<g>
					<path style="fill:#390176;" d="M2726.754,3263.988c0.127-0.486,0.195-0.916,0.225-1.323c0.044-0.269-0.059-1.274-0.122-1.665
						c-0.146-1.077-0.542-2.131-1.104-3.13c-0.591-0.977-1.353-1.904-2.31-2.639c-1.03-0.803-1.714-1.187-4.067-2.021
						c-7.969-2.983-16.616-5.811-24.907-9.58c-8.311-3.718-16.46-8.242-23.569-14.158c-7.134-5.85-13.193-12.988-17.5-20.957
						c-0.581-1.069-0.181-2.402,0.889-2.981c0.977-0.527,2.183-0.227,2.822,0.642c5.034,6.838,11.392,12.451,18.462,16.78
						c7.056,4.382,14.873,7.405,22.939,9.746c8.086,2.4,16.421,3.899,25.22,5.857c1.846,0.347,5.391,1.26,8.076,2.808
						c2.808,1.494,5.327,3.56,7.446,6.008c2.09,2.471,3.784,5.344,4.858,8.467c0.571,1.702,0.889,2.852,1.216,4.749
						c0.273,1.763,0.347,3.533,0.259,5.22l-0.054,1.011c-0.278,5.264-4.766,9.304-10.024,9.028
						c-5.264-0.273-9.307-4.763-9.028-10.024C2726.51,3265.211,2726.617,3264.564,2726.754,3263.988z"/>
				</g>
			</g>
			<g>
				<g>
					<path style="fill:#390176;" d="M2579.391,3186.063c-4.097,0.352-6.289-18.147-17.412-35.227
						c-5.674-8.408-12.417-14.773-17.949-18.95c-5.459-4.316-9.346-6.694-8.975-8.484c0.308-1.726,5.669-2.424,13.32,0.381
						c7.656,2.598,17.432,9.382,24.448,19.878c6.831,10.581,9.404,21.785,9.521,29.629
						C2582.531,3181.198,2581.08,3185.97,2579.391,3186.063z"/>
				</g>
			</g>
			<g>
				<path style="fill:#390176;" d="M2608.737,2403.732c-10.254,0-20.317-1.13-29.917-3.357c-7.822-1.816-12.69-9.631-10.874-17.454
					c1.821-7.825,9.644-12.705,17.451-10.876c7.446,1.729,15.298,2.605,23.34,2.605c55.718,0,110.405-55.859,110.405-112.771
					c0-52.144-47.49-77.6-88.154-83.555c-7.949-1.162-13.447-8.547-12.285-16.494c1.167-7.947,8.608-13.43,16.494-12.28
					c67.607,9.897,113.027,55.039,113.027,112.329C2748.224,2334.794,2680.436,2403.732,2608.737,2403.732z"/>
			</g>
			<g>
				<g>
					<path style="fill:#390176;" d="M2034.938,1200.087c-1.738-1.128,6.904-15.576,16.792-40.347
						c9.678-24.788,19.385-60.576,20.391-101.177c1.299-40.559-5.21-77.217-11.362-103.232
						c-6.201-26.101-11.973-41.787-10.332-42.551c1.592-0.793,10.518,13.919,19.175,40.042
						c8.599,25.999,16.865,63.784,15.518,106.143c-0.527,21.13-3.721,41.177-8.267,58.916c-4.57,17.759-10.679,33.157-16.709,45.571
						C2047.672,1188.185,2036.163,1200.963,2034.938,1200.087z"/>
				</g>
			</g>
			<g>
				<path style="fill:#390176;" d="M2302.032,1276.888c-5.752,0.002-10.796-4.204-11.675-10.068
					c-0.972-6.455,3.477-12.478,9.932-13.447c31.685-4.761,61.118-42.561,71.577-91.921c10.605-50.034,1.465-116.519-55.977-153.071
					c-101.392-64.519-145.649-20.576-146.079-20.125c-4.536,4.697-12.021,4.832-16.719,0.303
					c-4.697-4.534-4.834-12.017-0.303-16.719c2.324-2.407,58.271-58.193,175.796,16.589
					c67.642,43.047,78.662,120.134,66.416,177.922c-12.661,59.744-49.307,104.111-91.196,110.405
					C2303.209,1276.847,2302.618,1276.888,2302.032,1276.888z"/>
			</g>
			<g>
				<g>
					<path style="fill:#390176;" d="M2290.319,1236.442c-1.748-1.311,7.217-13.311,15.952-35.039
						c4.434-10.803,8.662-24.08,11.382-39.233c2.759-15.142,4.048-32.107,3.662-49.951c-0.991-35.762-8.306-67.839-14.478-90.691
						c-6.221-22.913-11.313-36.807-9.683-37.593c1.587-0.801,9.78,12.002,18.433,34.753c8.574,22.666,17.676,55.596,18.73,93.203
						c0.41,18.757-1.323,36.741-4.927,52.688c-3.555,15.962-8.999,29.8-14.771,40.686
						C2303.131,1227.225,2291.339,1237.379,2290.319,1236.442z"/>
				</g>
			</g>
			<g>
				<g>
					<path style="fill:#390176;" d="M2211.105,1242.745c-0.796-1.841,9.995-7.493,25.41-18.772
						c15.273-11.404,34.644-29.475,49.741-54.214c15.283-24.592,23.726-49.934,28.804-68.438c5.059-18.596,6.89-30.518,8.696-30.461
						c1.777,0.015,3.208,12.515,0.308,32.336c-2.92,19.685-10.381,47.041-26.748,73.411c-8.071,13.188-17.69,24.561-27.407,33.779
						c-9.741,9.231-19.673,16.182-28.35,21.274C2223.927,1241.549,2211.676,1244.208,2211.105,1242.745z"/>
				</g>
			</g>
			<g>
				<path style="fill:#390176;" d="M1492.604,1704.283c14.675,69.158,37.991,135.823,65.469,200.386
					c2.058,4.81-0.173,10.374-4.98,12.432c-4.807,2.056-10.371-0.173-12.429-4.98c-0.11-0.256-0.217-0.549-0.303-0.808
					C1518.463,1843.712,1501.049,1774.489,1492.604,1704.283z"/>
			</g>
			<g>
				<path style="fill:#390176;" d="M1483.59,1612.462c-1.23-27.62-0.808-55.396,2.275-83.042
					c2.991-27.654,9.163-55.056,18.364-81.543c9.289-26.436,21.772-52.004,37.949-75.254c16.106-23.286,35.515-44.375,57.283-62.737
					c3.994-3.372,9.966-2.864,13.335,1.13c3.369,3.994,2.864,9.966-1.13,13.335c-0.129,0.11-0.261,0.215-0.396,0.317l-0.093,0.068
					c-21.448,16.108-40.93,34.956-57.539,56.252c-16.675,21.257-30.088,45.117-40.576,70.264
					c-10.395,25.193-18.01,51.714-22.517,78.843C1485.944,1557.218,1483.934,1584.803,1483.59,1612.462z"/>
			</g>
			<g>
				<path style="fill:#390176;" d="M1354.789,1970.446c16.992,83.794,41.213,165.571,69.656,245.583
					c2.698,7.578-1.257,15.908-8.835,18.608c-7.576,2.698-15.908-1.257-18.606-8.835c-0.185-0.52-0.344-1.067-0.466-1.592
					C1377.086,2140.441,1362.179,2055.634,1354.789,1970.446z"/>
			</g>
			<g>
				<g>
					<path style="fill:#716C82;" d="M1343.321,1852.518c-4.966-105.272,6.29-190.446,26.531-259.161"/>
				</g>
				<g>
					<path style="fill:#390176;" d="M1343.322,1852.518c-3.545-43.494-4.653-87.324-2.144-131.165
						c2.51-43.823,8.667-87.666,19.6-130.669c1.289-5.068,6.44-8.13,11.506-6.843c5.066,1.289,8.13,6.44,6.841,11.506
						c-0.054,0.215-0.115,0.427-0.183,0.635l-0.017,0.046c-13.562,40.75-22.734,83.191-28.328,126.206
						C1344.991,1765.27,1342.924,1808.878,1343.322,1852.518z"/>
				</g>
			</g>
			<g>
				<path style="fill:#390176;" d="M1424.403,1488.029c-5.916,14.641-11.013,30.603-15.459,46.34
					c-2.168,7.935-4.182,15.925-6.15,23.926c-1.702,8.062-3.613,16.094-5.154,24.199c-6.355,32.402-9.944,65.398-10.854,98.494
					c-0.295,8.279-0.635,16.565-0.251,24.844l0.642,24.868c1.597,16.489,2.209,33.154,5.195,49.512
					c4.123,33.057,13.22,65.21,23.254,97.041c-11.511-31.277-22.192-63.174-27.917-96.25c-3.787-16.372-5.205-33.11-7.605-49.749
					l-1.841-25.129c-0.781-8.384-0.837-16.787-0.935-25.198c-0.662-33.633,1.399-67.393,6.323-100.791
					c1.182-8.354,2.742-16.655,4.101-24.998c1.626-8.291,3.303-16.58,5.149-24.841c3.872-16.575,8.127-32.708,13.948-49.316
					c1.726-4.932,7.127-7.529,12.061-5.803c4.932,1.729,7.529,7.129,5.801,12.061c-0.046,0.132-0.093,0.259-0.144,0.386
					L1424.403,1488.029z"/>
			</g>
			<g>
				<path style="fill:#716C82;" d="M2590.232,2222.485c0,0-61.087,78.032,7.486,119.413
					C2597.718,2341.897,2666.685,2275.296,2590.232,2222.485z"/>
			</g>
			<g>
				<path style="fill:#390176;" d="M2597.711,2353.722c-2.1,0-4.209-0.559-6.104-1.702c-20.781-12.542-33.247-29.392-37.051-50.085
					c-7.813-42.478,24.966-84.951,26.362-86.738c3.857-4.924,10.879-5.994,16.03-2.441c25.195,17.405,38.955,38.293,40.903,62.092
					c3.359,40.977-30.483,74.163-31.924,75.557C2603.663,2352.589,2600.699,2353.722,2597.711,2353.722z M2593.014,2239.547
					c-7.778,12.866-19.233,36.394-15.186,58.188c2.07,11.177,7.974,20.564,17.954,28.491c7.896-9.946,20.229-29.036,18.496-49.561
					C2613.151,2263.285,2606.007,2250.836,2593.014,2239.547z"/>
			</g>
			<g>
				<path style="fill:#716C82;" d="M1410.49,2222.485c0,0,61.087,78.032-7.486,119.413
					C1403.004,2341.897,1334.037,2275.296,1410.49,2222.485z"/>
			</g>
			<g>
				<path style="fill:#390176;" d="M1403.009,2353.722c-2.993,0-5.952-1.133-8.218-3.32c-1.44-1.392-35.278-34.578-31.924-75.554
					c1.948-23.799,15.708-44.688,40.903-62.09c5.151-3.562,12.173-2.485,16.03,2.439c1.396,1.787,34.175,44.26,26.367,86.736
					c-3.804,20.696-16.274,37.546-37.056,50.088C1407.218,2353.163,1405.109,2353.722,1403.009,2353.722z M1407.706,2239.547
					c-13.032,11.318-20.171,23.806-21.27,37.229c-1.67,20.344,10.649,39.458,18.525,49.431c9.971-7.925,15.864-17.305,17.935-28.474
					C1426.94,2275.939,1415.485,2252.413,1407.706,2239.547z"/>
			</g>
			<g>
				<path style="fill:#390176;" d="M1414.613,2208.541c3.191,1.345,5.1,2.458,7.412,3.794c2.207,1.277,4.307,2.659,6.355,4.075
					c4.106,2.82,7.91,5.974,11.543,9.248c7.205,6.631,13.333,14.341,18.032,22.661c4.7,8.301,8.135,17.18,9.668,26.238
					c1.086,4.443,1.204,9.031,1.558,13.472c0.244,4.458-0.256,8.933-0.361,13.276c-1.106-4.294-1.812-8.574-3.22-12.654
					c-1.516-4.055-2.759-8.103-4.873-11.792c-3.601-7.583-8.691-14.194-14.387-19.792c-5.701-5.615-12.183-10.22-19.148-13.699
					c-3.513-1.697-7.041-3.245-10.664-4.441c-1.809-0.603-3.604-1.162-5.398-1.599c-1.665-0.427-3.816-0.896-4.763-0.898
					c-8.301-0.029-15.01-6.78-14.983-15.083c0.029-8.301,6.78-15.007,15.083-14.98c2.026,0.007,3.958,0.413,5.72,1.147
					L1414.613,2208.541z"/>
			</g>
			<g>
				<path style="fill:#390176;" d="M2000.446,2663.444c-284.854-1.655-435.61-87.166-511.948-158.608
					c-84.131-78.735-99.199-157.036-99.8-160.33c-1.44-7.903,3.799-15.474,11.699-16.914c7.93-1.423,15.454,3.789,16.909,11.672
					c0.264,1.355,14.951,73.921,92.7,145.859c72.632,67.202,216.675,147.646,490.439,149.238
					c273.599-1.592,417.642-82.036,490.269-149.238c78.091-72.256,92.568-145.146,92.705-145.874
					c1.484-7.876,9.082-13.069,16.943-11.628c7.876,1.46,13.096,8.999,11.66,16.885c-0.601,3.293-15.669,81.594-99.8,160.33
					C2435.885,2576.278,2285.128,2661.788,2000.446,2663.444z"/>
			</g>
			<g>
				<path style="fill:#390176;" d="M2000.524,2705.653c-121.274-2.041-152.813-58.914-154.092-61.333
					c-2.451-4.614-0.693-10.339,3.921-12.788c4.614-2.434,10.283-0.708,12.754,3.857c0.488,0.864,29.111,49.521,137.417,51.348
					c109.585-1.853,136.792-50.786,137.056-51.279c2.446-4.617,8.164-6.365,12.788-3.926c4.614,2.449,6.372,8.174,3.921,12.788
					C2153.009,2646.74,2121.471,2703.612,2000.524,2705.653z"/>
			</g>
			<g>
				<path style="fill:#FFC891;" d="M1788.056,2838.983c-10.026,73.875-36.273,155.168-95.342,222.703
					c-38.069,43.556-89.809,81.344-159.657,107.825c0,0-16.552,52.636-86.308,70.938c0,0-33.104,36.273-77.653,40.577
					c-18.446,1.796-29.983-2.129-35.562-8.23h-0.051c-1.51,1.09-30.454,20.667-64.884,1.515c-5.251-2.933-8.419-8.276-8.798-14.141
					c0,0-6.055-0.333-13.952-5.722c-7.897-5.344-10.876-15.559-7.472-24.496c0.522-1.418,1.182-2.794,1.99-4.069
					c1.889-3.122,4.494-5.768,7.8-7.048l0.901-0.379c1.986-0.661,4.018-1.321,6.004-2.032c23.411-8.322,45.921-21.281,54.529-35.091
					c0,0-27.101-7.094-36.319-46.678c-9.177-39.63,22.699-68.006,48.71-53.25c0,0-1.75,52.021,43.177,56.751
					c44.928,4.729,35.705-59.166-24.45-52.59c0,0-3.782-1.847-8.041-5.062c-6.951-5.293-15.227-14.188-10.073-24.496
					c8.276-16.552,79.782-55,111.751-13.573c0,0,104.468-70.37,127.029-199.62c15.887-91.176,64.223-156.776,130.335-186.001
					c27.572-12.248,58.312-18.159,91.037-16.931c2.789,14.52,7.094,41.242,9.269,75.478
					C1794.254,2750.361,1794.254,2793.252,1788.056,2838.983z"/>
			</g>
			<g>
				<g style="opacity:0.6;">
					<path style="fill:#FFFFFF;" d="M1466.28,3045.983c0,0,104.468-70.37,127.028-199.62
						c15.887-91.176,64.223-156.776,130.335-186.001c18.655-8.288,38.789-13.595,59.978-15.832c-0.298-1.651-0.59-3.224-0.863-4.646
						c-32.726-1.229-63.466,4.683-91.037,16.931c-66.112,29.225-114.448,94.825-130.335,186.001
						c-17.471,100.092-84.031,164.839-113.187,188.974C1454.962,3034.744,1461.136,3039.318,1466.28,3045.983z"/>
				</g>
				<g style="opacity:0.6;">
					<path style="fill:#FFFFFF;" d="M1353.909,3085.297c5.936,0.414,11.129,1.665,15.735,3.415c0.267-0.262,0.51-0.548,0.782-0.806
						c-1.495-0.864-3.585-2.164-5.824-3.854c-6.951-5.292-15.227-14.188-10.073-24.496c4.986-9.971,32.919-27.866,61.331-31.48
						c-35.256-14.999-86.336,14.098-93.254,27.933c-5.154,10.308,3.122,19.203,10.073,24.496c0.455,0.344,0.901,0.663,1.341,0.974
						c6.508-1.21,13.385-0.219,19.895,3.473C1353.915,3084.953,1353.911,3085.094,1353.909,3085.297z"/>
				</g>
				<g>
					<path style="fill:#FFFFFF;" d="M1365.456,3276.344h-0.051c-0.491,0.354-3.916,2.659-9.447,4.954
						c3.92,0.258,8.273,0.202,13.137-0.271c0.754-0.073,1.477-0.224,2.224-0.315
						C1368.933,3279.453,1366.959,3277.988,1365.456,3276.344z"/>
				</g>
				<g style="opacity:0.6;">
					<path style="fill:#FFFFFF;" d="M1298.631,3175.698c9.408-0.208,18.785,0.129,28.059,1.205c0.337,0.039,0.66,0.122,0.996,0.166
						c-8.125-6.595-17.7-18.338-22.481-38.866c-5.402-23.331,3.462-42.676,16.943-51.7c-0.217-3.152-0.155-5.096-0.155-5.096
						c-26.011-14.756-57.887,13.62-48.71,53.25C1278.641,3157.668,1290.023,3169.656,1298.631,3175.698z"/>
				</g>
			</g>
			<g>
				<path style="fill:#390176;" d="M1299.723,3294.574c-11.006,0-23.579-2.539-36.87-9.932c-5.967-3.33-10.459-8.579-12.886-14.8
					c-3.115-1.15-6.807-2.917-10.781-5.632c-12.397-8.379-17.29-24.209-11.86-38.467c0.791-2.144,1.836-4.275,3.066-6.206
					c3.311-5.476,8.027-9.609,13.506-11.729l0.601-0.259c0.278-0.115,0.562-0.222,0.85-0.315l0.967-0.322
					c1.592-0.525,3.198-1.057,4.78-1.621c16.196-5.759,30.376-13.296,39.59-20.774c-10.361-7.629-22.998-21.768-28.916-47.18
					c-7.163-30.928,6.67-55.122,23.555-65.388c7.476-4.539,16.157-5.828,24.502-3.752c-1.728-7.734,0.508-14.08,2.207-17.478
					c7.573-15.137,41.221-35.149,73.252-38.259c20.337-1.965,37.524,2.917,50.41,14.194c24.18-19.17,96.235-83.855,114.048-185.872
					c16.089-92.351,66.094-163.347,137.197-194.78c29.668-13.179,62.061-19.202,96.265-17.932c5.498,0.205,10.127,4.18,11.167,9.585
					c2.549,13.284,7.168,40.945,9.453,76.958c2.764,43.367,1.396,85.745-4.053,125.957c0,0.002,0,0.002,0,0.002
					c-12.442,91.641-45.464,168.652-98.154,228.896c-41.275,47.219-94.902,83.943-159.463,109.209
					c-6.563,14.973-29.355,55.43-89.18,72.329c-8.994,8.94-40.947,37.749-82.744,41.787c-18.257,1.782-30.088-1.431-37.715-5.872
					C1325.372,3290.394,1313.839,3294.574,1299.723,3294.574z M1253.219,3229.537l-0.483,0.203c-0.596,0.234-1.387,0.83-2.251,2.263
					c-0.469,0.737-0.762,1.348-1.016,2.036c-1.523,4.006-0.244,8.418,3.003,10.613c4.805,3.281,8.198,3.723,8.34,3.74
					c5.977,0.327,10.4,5.039,10.786,11.011c0.132,2.007,1.138,3.677,2.764,4.583c28.105,15.642,51.274-0.132,52.251-0.811
					c4.702-3.276,11.768-2.59,15.645,1.641c2.817,3.081,11.04,5.859,25.688,4.443c39.575-3.823,69.771-36.45,70.073-36.78
					c1.533-1.682,3.525-2.886,5.728-3.464c62.08-16.289,77.432-61.211,78.052-63.115c1.113-3.398,3.726-6.177,7.07-7.444
					c63.081-23.918,115.215-59.094,154.946-104.551c49.59-56.699,80.723-129.543,92.529-216.511v0.002
					c5.234-38.667,6.543-79.473,3.887-121.284c-1.758-27.654-4.927-50.125-7.378-64.561c-27.07,0.181-52.705,5.574-76.333,16.069
					c-63.774,28.193-108.774,92.786-123.486,177.224c-23.159,132.688-127.637,204.409-132.07,207.395
					c-5.176,3.486-12.158,2.349-15.967-2.581c-8.106-10.508-20.415-15.129-36.66-13.735c-27.749,2.385-52.407,20.168-55.156,25.381
					c-1.587,3.171,4.697,8.301,6.66,9.797c2.002,1.499,4.692,2.292,7.29,2.192c23.838-0.557,43.691,9.202,53.076,26.182
					c6.68,12.09,6.611,25.967-0.186,36.218c-7.095,10.703-20.259,15.886-36.084,14.221c-27.046-2.847-45.981-21.277-51.953-50.566
					c-0.688-3.389-3.003-6.243-6.187-7.632c-1.616-0.706-4.844-1.594-8.188,0.437c-9.614,5.845-17.3,20.43-12.807,39.836
					c7.329,31.477,27.134,37.705,27.974,37.954c3.535,1.052,6.479,3.723,7.783,7.173c1.309,3.45,1.025,7.341-0.923,10.471
					c-13.325,21.37-46.816,35.076-60.6,39.976c-1.738,0.62-3.525,1.213-5.293,1.799L1253.219,3229.537z M1335.245,3095.052
					c4.004,19.045,14.487,29.592,31.162,31.348c6.802,0.715,11.846-0.662,13.901-3.77c1.88-2.834,1.567-7.434-0.801-11.714
					c-5.039-9.119-16.836-14.375-31.802-13.984C1343.351,3097.037,1339.186,3096.385,1335.245,3095.052z M1788.058,2838.983h0.049
					H1788.058z"/>
			</g>
			<g>
				<g>
					<path style="fill:#FDC7A3;" d="M1338.213,3272.797c-7.945-8.607-4.115-21.518,8.844-28.423
						c22.038-11.823,45.306-32.679,45.306-32.679"/>
				</g>
				<g>
					<path style="fill:#390176;" d="M1331.264,3279.213c-3.718-4.446-6.138-10.72-5.689-16.724
						c0.308-6.003,2.947-11.167,6.189-15.012c3.308-3.857,7.292-6.624,11.384-8.577c3.586-1.658,6.665-3.037,9.998-4.788
						c13.044-6.812,25.754-15.076,37.813-23.984l0.047-0.034c0.938-0.693,2.258-0.493,2.949,0.442c0.625,0.845,0.525,2-0.186,2.727
						c-10.708,10.972-21.985,21.267-34.478,30.645c-3.049,2.307-6.555,4.636-9.565,6.67c-2.488,1.741-4.48,3.848-5.749,6.018
						c-1.238,2.175-1.668,4.37-1.323,5.955c0.286,1.614,1.169,2.698,2.51,3.831c4.016,3.394,4.524,9.399,1.13,13.416
						c-3.391,4.016-9.397,4.521-13.413,1.13c-0.413-0.352-0.789-0.728-1.128-1.128L1331.264,3279.213z"/>
				</g>
			</g>
			<g>
				<path style="fill:#FDC7A3;" d="M1782.76,2639.885c-1.513-7.898-2.554-12.201-2.554-12.201"/>
				<path style="fill:#390176;" d="M1782.745,2654.43c-6.836,0-12.93-4.844-14.268-11.807c-1.396-7.29-2.363-11.343-2.407-11.531
					c-1.875-7.803,2.925-15.647,10.723-17.532c7.793-1.86,15.654,2.905,17.549,10.708c0,0,1.104,4.543,2.7,12.881
					c1.509,7.888-3.657,15.505-11.543,17.019C1784.572,2654.344,1783.654,2654.43,1782.745,2654.43z"/>
			</g>
			<g>
				<g>
					<path style="fill:#FDC7A3;" d="M1345.449,3207.345c-17.309,27.572-49.184,33.247-68.337,39.158
						c-6.432,1.986-11.256,7.378-12.391,13.999c-0.236,1.466-0.331,2.979-0.189,4.398"/>
				</g>
				<g>
					<path style="fill:#390176;" d="M1347.059,3208.356c-4.255,7.954-10.274,15.088-17.368,20.942
						c-7.073,5.923-15.195,10.459-23.486,14.197c-8.274,3.789-16.909,6.638-24.868,9.648c-2.346,0.84-3.035,1.235-4.077,2.051
						c-0.969,0.745-1.741,1.687-2.334,2.671c-0.564,1.008-0.957,2.063-1.099,3.135c-0.244,1.047,0.251,2.026,0.117,2.959
						l-0.544,3.73c-0.73,5.024-5.396,8.506-10.422,7.776c-4.746-0.691-8.11-4.927-7.856-9.624c0.195-3.411,0.288-6.895,1.497-10.024
						c1.089-3.127,2.8-5.989,4.897-8.442c2.126-2.432,4.644-4.475,7.441-5.957c2.676-1.531,6.208-2.444,8.059-2.783
						c8.804-1.941,17.144-3.416,25.244-5.793c8.083-2.322,15.923-5.327,23.013-9.702c7.104-4.321,13.499-9.944,18.564-16.804
						c0.623-0.852,1.814-1.04,2.666-0.417C1347.277,3206.481,1347.496,3207.533,1347.059,3208.356z"/>
				</g>
			</g>
			<g>
				<g>
					<path style="fill:#390176;" d="M1421.329,3186.063c-1.687-0.093-3.137-4.866-2.957-12.773
						c0.12-7.844,2.693-19.048,9.521-29.629c7.017-10.496,16.794-17.28,24.453-19.878c7.649-2.805,13.013-2.107,13.318-0.381
						c0.374,1.79-3.518,4.167-8.972,8.484c-5.532,4.177-12.28,10.542-17.952,18.95
						C1427.621,3167.916,1425.426,3186.415,1421.329,3186.063z"/>
				</g>
			</g>
			<g>
				<path style="fill:#390176;" d="M1391.984,2403.732c-71.699,0-139.487-68.938-139.487-141.853
					c0-57.29,45.42-102.432,113.027-112.329c7.905-1.167,15.327,4.333,16.494,12.28c1.162,7.947-4.336,15.332-12.285,16.494
					c-40.664,5.955-88.154,31.411-88.154,83.555c0,56.912,54.688,112.771,110.405,112.771c8.042,0,15.894-0.876,23.34-2.605
					c7.798-1.819,15.63,3.052,17.451,10.876c1.816,7.822-3.052,15.637-10.874,17.454
					C1412.301,2402.601,1402.238,2403.732,1391.984,2403.732z"/>
			</g>
			<g>
				<g>
					<path style="fill:#390176;" d="M2871.593,2222.484c-0.015-0.896,5.654-1.978,16.44-3.21c5.391-0.618,12.061-1.272,19.941-1.963
						c3.94-0.33,8.179-0.684,12.71-1.062c4.526-0.515,9.341-1.064,14.438-1.646c10.2-1.106,21.528-2.334,33.921-3.677
						c12.349-1.702,25.757-3.552,40.156-5.537c14.355-2.271,29.639-5.063,45.869-7.778c8.052-1.685,16.338-3.416,24.839-5.195
						c8.506-1.75,17.241-3.499,26.064-5.828c70.85-16.877,154.077-44.06,237.915-90.874c10.596-5.613,20.806-12.18,31.362-18.416
						c5.244-3.184,10.327-6.675,15.547-10.02c5.2-3.376,10.444-6.743,15.513-10.422c20.728-14.084,40.835-29.922,60.562-46.826
						c19.673-16.973,38.706-35.371,56.611-55.234c8.989-9.897,17.607-20.234,25.835-30.916c4.136-5.325,8.13-10.776,11.968-16.304
						c3.813-5.417,7.661-11.367,10.679-16.531c-0.039,25.129-0.078,6.843-0.122,12.397l-0.122-0.212l-0.269-0.461l-0.615-1.028
						l-1.265-2.075l-2.661-4.197c-1.821-2.803-3.682-5.588-5.625-8.347c-3.838-5.525-7.832-10.977-11.968-16.301
						c-8.228-10.681-16.846-21.018-25.835-30.916c-17.905-19.866-36.938-38.262-56.611-55.237
						c-19.727-16.902-39.834-32.739-60.562-46.824c-5.068-3.682-10.313-7.048-15.513-10.422c-5.22-3.347-10.303-6.838-15.547-10.02
						c-10.557-6.235-20.767-12.805-31.362-18.418c-83.838-46.812-167.065-73.994-237.915-90.872
						c-8.823-2.332-17.559-4.077-26.064-5.83c-8.501-1.777-16.787-3.508-24.839-5.193c-16.23-2.717-31.514-5.508-45.869-7.778
						c-14.399-1.987-27.808-3.835-40.156-5.54c-12.393-1.34-23.721-2.568-33.921-3.674c-5.098-0.581-9.912-1.13-14.438-1.648
						c-4.531-0.378-8.77-0.732-12.71-1.062c-7.881-0.688-14.551-1.343-19.941-1.96c-10.786-1.233-16.455-2.314-16.44-3.213
						c0.015-0.896,5.718-1.57,16.597-2.026c5.439-0.229,12.168-0.405,20.132-0.527c3.984-0.044,8.271-0.09,12.852-0.139
						c4.58,0.146,9.458,0.305,14.619,0.474c10.327,0.391,21.826,0.764,34.404,1.433c12.563,1.064,26.201,2.217,40.85,3.457
						c14.624,1.609,30.22,3.77,46.797,5.894c8.237,1.406,16.709,2.852,25.405,4.338c8.701,1.475,17.642,2.957,26.694,5.037
						c72.612,14.866,158.462,40.774,245.508,87.839c10.991,5.642,21.616,12.273,32.583,18.586
						c5.449,3.223,10.747,6.763,16.167,10.164c5.41,3.43,10.864,6.855,16.147,10.603c21.563,14.353,42.539,30.576,63.125,47.988
						c20.532,17.488,40.43,36.523,59.214,57.229c9.429,10.32,18.501,21.133,27.212,32.405c4.375,5.62,8.618,11.394,12.744,17.324
						c2.075,2.947,4.102,5.969,6.094,9.038l2.969,4.673l1.475,2.417l0.732,1.23l0.396,0.676l0.205,0.359
						c0.063,5.745,0.132-12.351,0.2,12.969c-4.053,6.963-7.871,12.749-12.07,18.75c-4.126,5.933-8.369,11.707-12.744,17.327
						c-8.711,11.272-17.783,22.085-27.212,32.405c-18.784,20.706-38.682,39.741-59.214,57.229
						c-20.586,17.412-41.563,33.635-63.125,47.986c-5.283,3.75-10.737,7.175-16.147,10.605c-5.42,3.398-10.718,6.941-16.167,10.164
						c-10.967,6.313-21.592,12.944-32.583,18.584c-87.046,47.065-172.896,72.976-245.508,87.839
						c-9.053,2.08-17.993,3.562-26.694,5.039c-8.696,1.484-17.168,2.932-25.405,4.338c-16.577,2.124-32.173,4.285-46.797,5.891
						c-14.648,1.24-28.286,2.395-40.85,3.457c-12.578,0.671-24.077,1.045-34.404,1.436c-5.161,0.166-10.039,0.325-14.619,0.474
						c-4.58-0.049-8.867-0.098-12.852-0.142c-7.964-0.122-14.692-0.295-20.132-0.525
						C2877.311,2224.054,2871.608,2223.383,2871.593,2222.484z"/>
				</g>
			</g>
			<g>
				<g>
					<path style="fill:#390176;" d="M2849.039,1499.701c-1.455-1.052,8.706-19.089,28.232-50.649
						c2.456-3.94,5.044-8.098,7.759-12.466c1.367-2.178,2.769-4.412,4.204-6.694c1.309-2.363,2.642-4.783,4.009-7.251
						c5.513-9.854,11.489-20.552,17.915-32.039c3.232-5.728,6.577-11.65,10.034-17.766c1.733-3.054,3.491-6.155,5.278-9.302
						c1.611-3.242,3.252-6.533,4.917-9.871c6.675-13.33,13.735-27.412,21.143-42.2c28.457-59.646,58.999-132.41,83.14-216.265
						c2.954-10.496,6.187-21.05,9.023-31.843c2.632-10.845,5.288-21.814,7.979-32.9c1.294-5.552,2.813-11.086,3.95-16.731
						c1.138-5.647,2.275-11.323,3.423-17.026c1.147-5.701,2.3-11.428,3.462-17.185l1.748-8.65l1.416-8.747
						c8.208-46.582,13.877-95.615,14.736-145.22c0.015-3.367,0.054-6.787-0.034-9.858l11.846,12.483
						c-2.598-0.208-5.718-0.286-8.672-0.403c-2.959-0.156-6.011-0.124-9.033-0.139l-9.067-0.034l-9.092,0.286
						c-12.1,0.183-24.17,1.272-36.138,2.034c-11.958,1.118-23.833,2.451-35.601,3.757c-11.738,1.716-23.384,3.418-34.922,5.105
						c-22.964,4.253-45.566,8.22-67.417,13.638c-22.021,4.622-43.154,10.942-63.921,16.514
						c-82.793,23.584-154.727,53.403-214.014,80.439c-14.81,6.841-28.911,13.357-42.256,19.521
						c-13.086,6.694-25.425,13.01-36.968,18.919c-11.582,5.845-22.363,11.287-32.295,16.299
						c-9.731,5.352-18.633,10.244-26.646,14.651c-32.09,17.517-50.332,26.521-51.289,25.017
						c-0.952-1.504,15.488-13.384,46.172-33.662c7.686-5.044,16.201-10.72,25.669-16.692c9.683-5.628,20.195-11.733,31.489-18.296
						c11.353-6.511,23.491-13.469,36.357-20.85c13.228-6.755,27.202-13.892,41.88-21.387
						c58.931-29.468,131.147-61.509,215.127-86.843c21.079-6.011,42.539-12.727,64.995-17.722
						c22.251-5.779,45.371-10.078,68.877-14.607c11.846-1.814,23.799-3.645,35.85-5.491c12.124-1.423,24.355-2.856,36.714-4.055
						c12.412-0.85,24.873-2.004,37.568-2.234l9.512-0.315l9.614,0.02c3.213,0.012,6.411-0.024,9.702,0.142
						c3.296,0.129,6.445,0.19,10.103,0.483c6.597,0.527,11.631,5.933,11.846,12.39v0.093c0.112,3.833,0.068,7.356,0.054,10.947
						c-0.903,52.007-6.929,101.829-15.654,149.512l-1.519,8.935l-1.855,8.826c-1.235,5.869-2.461,11.711-3.687,17.524
						c-1.226,5.813-2.446,11.597-3.662,17.354c-1.221,5.752-2.822,11.384-4.209,17.034c-2.876,11.277-5.728,22.432-8.54,33.462
						c-3.037,10.969-6.479,21.685-9.648,32.332c-25.879,85.078-58.726,158.333-89.692,217.729
						c-8.086,14.675-15.781,28.655-23.066,41.882c-1.831,3.298-3.633,6.548-5.41,9.753c-1.953,3.101-3.877,6.157-5.771,9.165
						c-3.794,6.006-7.471,11.824-11.025,17.449c-7.148,11.199-13.804,21.626-19.937,31.233c-1.538,2.39-3.047,4.729-4.521,7.017
						c-1.606,2.197-3.174,4.348-4.712,6.445c-3.076,4.18-6.006,8.159-8.784,11.929
						C2863.444,1484.703,2850.49,1500.753,2849.039,1499.701z"/>
				</g>
			</g>
			<g>
				<g>
					<path style="fill:#390176;" d="M1965.78,1200.087c-1.223,0.876-12.732-11.902-25.205-36.636
						c-6.025-12.415-12.136-27.813-16.707-45.571c-4.548-17.739-7.739-37.786-8.267-58.916
						c-1.348-42.358,6.919-80.144,15.518-106.143c8.655-26.123,17.586-40.835,19.175-40.042c1.643,0.764-4.131,16.45-10.33,42.551
						c-6.155,26.016-12.661,62.673-11.365,103.232c1.006,40.601,10.71,76.389,20.391,101.177
						C1958.881,1184.51,1967.518,1198.959,1965.78,1200.087z"/>
				</g>
			</g>
			<g>
				<path style="fill:#390176;" d="M1698.688,1276.888c-0.586,0-1.177-0.042-1.772-0.132c-41.89-6.294-78.535-50.662-91.196-110.405
					c-12.246-57.788-1.226-134.875,66.416-177.922c117.51-74.78,173.467-19.001,175.796-16.589
					c4.531,4.702,4.395,12.185-0.303,16.719c-4.668,4.507-12.09,4.404-16.641-0.222c-2.031-2-46.274-43.521-146.157,20.044
					c-57.441,36.553-66.582,103.037-55.977,153.071c10.459,49.36,39.893,87.161,71.577,91.921
					c6.455,0.969,10.903,6.992,9.932,13.447C1709.484,1272.682,1704.44,1276.888,1698.688,1276.888z"/>
			</g>
			<g>
				<g>
					<path style="fill:#390176;" d="M1710.404,1236.442c-1.023,0.938-12.815-9.216-24.302-31.177
						c-5.771-10.886-11.221-24.724-14.775-40.686c-3.599-15.947-5.334-33.931-4.924-52.688
						c1.057-37.607,10.156-70.537,18.733-93.203c8.647-22.751,16.846-35.554,18.428-34.753c1.636,0.786-3.46,14.68-9.68,37.593
						c-6.172,22.852-13.486,54.929-14.48,90.691c-0.383,17.844,0.903,34.81,3.662,49.951c2.72,15.154,6.948,28.43,11.382,39.233
						C1703.187,1223.131,1712.15,1235.131,1710.404,1236.442z"/>
				</g>
			</g>
			<g>
				<g>
					<path style="fill:#390176;" d="M1789.618,1242.745c-0.571,1.462-12.825-1.196-30.457-11.084
						c-8.677-5.093-18.611-12.043-28.347-21.274c-9.719-9.219-19.338-20.591-27.407-33.779
						c-16.372-26.37-23.828-53.726-26.748-73.411c-2.903-19.822-1.472-32.322,0.307-32.336c1.807-0.056,3.635,11.865,8.694,30.461
						c5.078,18.503,13.521,43.845,28.804,68.438c15.1,24.739,34.468,42.81,49.741,54.214
						C1779.623,1235.253,1790.414,1240.905,1789.618,1242.745z"/>
				</g>
			</g>
			<g>
				<path style="fill:#390176;" d="M1868.192,2210.68c-0.608-4.434-1.948-9.424-3.799-13.647c-1.85-4.319-4.463-8.064-7.307-11.326
					c-5.906-6.428-13.723-10.134-22.432-12.017c-2.07-0.649-4.441-0.757-6.692-1.064l-3.384-0.435
					c-1.15-0.09-2.361-0.034-3.533-0.063c-2.356,0.024-4.722-0.127-7.029-0.056l-6.804,0.601c-8.994,1.25-17.63,4.009-25.835,8.059
					c-16.367,8.176-30.85,21.545-42.734,36.914c-1.511,1.899-2.927,3.875-4.321,5.835c-0.667,0.989-1.396,1.975-2.019,2.964
					l-0.964,1.482l-0.742,1.116c-0.476,0.691-1.035,1.355-1.611,1.982c-1.179,1.252-2.549,2.341-4.036,3.215
					c-2.978,1.748-6.418,2.6-9.807,2.471c-1.699-0.054-3.376-0.369-4.968-0.881c-0.798-0.261-1.567-0.571-2.305-0.933l-0.798-0.408
					l-3.482-1.987c-2.288-1.389-4.556-2.817-6.702-4.478c-4.36-3.196-8.477-6.86-12.273-11.145c-3.794-4.29-7.31-9.124-10.117-15.32
					c-0.068-0.151-0.002-0.33,0.149-0.398c0.022-0.01,0.046-0.017,0.068-0.022c6.68-1.294,12.654-1.226,18.347-0.613
					c5.693,0.618,11.062,1.858,16.191,3.564c2.598,0.791,5.073,1.814,7.529,2.876l3.635,1.689l0.225,0.112
					c0.095,0.049,0.208,0.1-0.127-0.068c-0.439-0.212-0.901-0.4-1.379-0.559c-0.955-0.317-1.973-0.491-3-0.537
					c-2.056-0.078-4.155,0.43-5.979,1.504c-0.918,0.527-1.755,1.201-2.478,1.97c-0.361,0.371-0.688,0.793-0.984,1.201l-0.339,0.518
					l0.146-0.239l1.179-1.899c0.779-1.287,1.607-2.471,2.412-3.708c1.643-2.429,3.298-4.829,5.059-7.148
					c13.972-18.43,31.814-34.978,54.402-44.717c11.189-4.875,23.457-7.737,35.755-8.218l9.209,0.125
					c3.025,0.186,5.977,0.684,8.945,1.062c1.484,0.225,2.952,0.364,4.438,0.664l4.475,1.111c2.979,0.762,5.925,1.394,8.848,2.717
					c11.709,4.15,22.8,12.502,29.504,23.428c3.162,5.557,5.31,11.489,6.416,17.454c0.974,6.072,1.099,11.792-0.027,18.037
					c-0.437,2.434-2.766,4.05-5.2,3.613c-1.958-0.354-3.386-1.926-3.645-3.794L1868.192,2210.68z"/>
			</g>
			<g>
				<path style="fill:#390176;" d="M1705.58,1965.734c13.108-10.11,27.856-18.181,43.494-24.275
					c15.618-6.162,32.246-10.125,49.263-11.677c17.009-1.34,34.5-0.256,51.162,4.602c16.604,4.722,32.417,13.181,44.348,25.298
					c2.817,2.861,2.783,7.466-0.081,10.283c-2.153,2.122-5.295,2.627-7.92,1.526l-0.254-0.11
					c-13.657-5.752-27.405-9.041-41.345-10.266c-13.931-1.13-27.974-0.427-41.863,2c-13.919,2.224-27.654,6.147-41.218,10.845
					c-13.562,4.783-26.863,10.576-40.422,16.589l-0.303,0.134c-7.383,3.276-16.023-0.054-19.299-7.439
					C1698.353,1976.957,1700.365,1969.755,1705.58,1965.734z"/>
			</g>
			<g>
				<path style="fill:#390176;" d="M2135.826,2211.464c-1.123-6.245-1.001-11.965-0.024-18.037
					c1.104-5.964,3.252-11.897,6.416-17.454c6.704-10.925,17.793-19.277,29.502-23.428c2.92-1.323,5.869-1.956,8.848-2.717
					l4.478-1.111c1.484-0.3,2.954-0.439,4.438-0.664c2.969-0.378,5.918-0.876,8.945-1.062l9.209-0.125
					c12.295,0.481,24.565,3.342,35.752,8.218c22.588,9.739,40.43,26.287,54.399,44.717c1.763,2.319,3.418,4.719,5.063,7.148
					c0.806,1.238,1.631,2.422,2.412,3.708l1.177,1.899l0.146,0.239l-0.337-0.518c-0.298-0.408-0.625-0.83-0.986-1.201
					c-0.723-0.769-1.563-1.443-2.476-1.97c-1.826-1.074-3.926-1.582-5.981-1.504c-1.025,0.046-2.046,0.22-2.998,0.537
					c-0.483,0.159-0.942,0.347-1.382,0.559c-0.332,0.168-0.22,0.117-0.127,0.068l0.225-0.112l3.638-1.689
					c2.456-1.062,4.932-2.085,7.529-2.876c5.127-1.707,10.498-2.947,16.191-3.564c5.693-0.613,11.665-0.681,18.345,0.613
					c0.166,0.032,0.273,0.19,0.239,0.354c-0.005,0.022-0.01,0.046-0.02,0.066c-2.813,6.196-6.323,11.03-10.117,15.32
					c-3.799,4.285-7.915,7.949-12.275,11.145c-2.148,1.66-4.414,3.088-6.699,4.478l-3.481,1.987l-0.801,0.408
					c-0.737,0.361-1.504,0.671-2.305,0.933c-1.592,0.513-3.267,0.828-4.966,0.881c-3.389,0.129-6.831-0.723-9.81-2.471
					c-1.484-0.874-2.856-1.963-4.033-3.215c-0.581-0.627-1.138-1.292-1.611-1.982l-0.742-1.116l-0.967-1.482
					c-0.62-0.989-1.353-1.975-2.017-2.964c-1.396-1.96-2.813-3.936-4.321-5.835c-11.89-15.369-26.367-28.738-42.734-36.914
					c-8.208-4.05-16.841-6.809-25.835-8.059l-6.807-0.601c-2.305-0.071-4.673,0.081-7.026,0.056
					c-1.172,0.029-2.383-0.027-3.535,0.063l-3.384,0.435c-2.251,0.308-4.619,0.415-6.689,1.064
					c-8.711,1.882-16.528,5.588-22.437,12.017c-2.842,3.262-5.454,7.007-7.305,11.326c-1.851,4.224-3.188,9.214-3.799,13.647
					l-0.083,0.596c-0.332,2.451-2.593,4.165-5.044,3.831C2137.657,2214.835,2136.163,2213.317,2135.826,2211.464z"/>
			</g>
			<g>
				<path style="fill:#390176;" d="M2292.203,1990.548c-13.56-6.013-26.86-11.807-40.425-16.589
					c-13.564-4.697-27.3-8.621-41.216-10.845c-13.892-2.427-27.935-3.13-41.865-2c-13.94,1.226-27.686,4.514-41.343,10.266
					l-0.249,0.105c-3.701,1.56-7.969-0.178-9.526-3.879c-1.172-2.788-0.474-5.896,1.519-7.925
					c11.934-12.117,27.744-20.576,44.351-25.298c16.66-4.858,34.15-5.942,51.162-4.602c17.017,1.553,33.643,5.515,49.263,11.677
					c15.635,6.094,30.386,14.165,43.491,24.275c6.396,4.932,7.583,14.116,2.651,20.513c-4.199,5.447-11.484,7.114-17.505,4.443
					L2292.203,1990.548z"/>
			</g>
			<g>
				<g>
					<path style="fill:#390176;" d="M2090.509,2380.052c2.246,2.468-3.535,12.964-18.545,25.042
						c-7.554,5.872-17.485,12.065-29.746,16.548c-12.207,4.509-26.692,7.205-41.829,6.902c-15.132-0.439-29.25-3.613-41.179-8.237
						c-12.002-4.514-21.87-10.378-29.558-15.94c-15.33-11.318-21.831-21.685-19.443-24.314c2.38-2.715,12.441,2.002,28.391,8.247
						c15.898,6.147,37.942,13.655,62.4,14.238c12.195,0.22,23.728-1.243,34.104-3.782c10.386-2.515,19.561-6.135,27.354-9.409
						C2077.946,2382.56,2087.999,2377.196,2090.509,2380.052z"/>
				</g>
			</g>
			<g>
				<path style="fill:#FFC891;" d="M2226.456,3576.178c0,0,8.512,33.151-32.49,29.604c-46.581-4.018-168.691-67.013-253.013-62.662
					c-84.322,4.351-75.811-177.156-38.402-220.523c0,0,123.528-33.673,165.523-7.662c41.949,26.011,75.667,91.038,122.96,122.96
					c0,0,43.51,27.193,43.935,48.096c0.143,6.198-2.222,10.784-5.533,14.188c0,0,4.586,6.526,6.48,14.802
					c0.947,4.258,0.522,8.655-0.947,12.677c0,0,5.344,9.786,7.14,21.231C2244.047,3561.325,2236.718,3571.966,2226.456,3576.178z"/>
			</g>
			<g style="opacity:0.6;">
				<path style="fill:#FFFFFF;" d="M2210.705,3502.86c6.484-3.531,13.603-5.97,20.968-7.313c2.068-2.965,3.396-6.646,3.29-11.247
					c-0.417-20.394-43.141-46.925-43.141-46.925c-46.438-31.145-79.547-94.588-120.738-119.965
					c-41.236-25.377-162.532,7.475-162.532,7.475c-6.083,6.966-11.378,17.671-15.557,30.591
					c20.897-5.306,121.853-29.207,158.724-6.507c41.191,25.377,74.301,88.821,120.738,119.965
					C2172.457,3468.934,2199.436,3485.726,2210.705,3502.86z"/>
			</g>
			<g style="opacity:0.3;">
				<path style="fill:#390176;" d="M2237.648,3509.923c1.071-2.933,1.569-6.064,1.403-9.198c-2.681,3.113-6.093,5.579-9.915,7.147
					c0,0,8.512,33.151-32.49,29.604c-46.581-4.018-168.691-67.013-253.013-62.662c-40.618,2.097-59.688-38.935-64.372-86.876
					c-5.91,65.094,9.747,140.265,64.372,137.448c84.322-4.351,206.432,58.644,253.013,62.662
					c41.002,3.547,32.49-29.604,32.49-29.604c10.262-4.212,17.591-14.853,15.652-27.29
					C2242.991,3519.709,2237.648,3509.923,2237.648,3509.923z"/>
			</g>
			<g>
				<path style="fill:#390176;" d="M2199.835,3617.87c-2.212,0-4.507-0.103-6.89-0.308c-18.979-1.638-47.896-11.736-81.377-23.43
					c-53.325-18.625-119.702-41.78-170.005-39.207c-27.007,1.367-48.433-12.593-62.065-40.439
					c-28.398-57.996-15.732-165.024,14.102-199.612c1.533-1.782,3.569-3.066,5.84-3.684c13.149-3.586,129.8-34.221,174.858-6.306
					c22.5,13.95,41.704,36.992,62.036,61.387c19.141,22.971,38.94,46.721,61.313,61.824c7.822,4.88,48.613,31.672,49.141,57.656
					c0.122,5.427-1.04,10.542-3.408,15.125c1.499,3.147,3.057,7.087,4.058,11.465c1.035,4.651,1.064,9.458,0.107,14.17
					c2.036,4.561,4.912,12.068,6.24,20.544c2.173,13.901-3.726,27.458-14.766,35.544c0.059,6.584-1.343,15.474-7.72,22.996
					C2224.391,3613.754,2213.824,3617.87,2199.835,3617.87z M1949.449,3531.083c53.306,0,117.651,22.473,169.917,40.725
					c31.973,11.167,59.59,20.813,75.615,22.195c9.043,0.779,15.518-0.513,18.232-3.635c2.837-3.276,2.207-9.46,1.763-11.37
					c-1.318-5.649,1.626-11.555,6.992-13.757c5.015-2.058,9.575-7.349,8.457-14.526c-1.436-9.146-5.811-17.339-5.854-17.422
					c-1.597-2.974-1.87-6.519-0.708-9.692c0.752-2.068,0.933-4.16,0.508-6.052c-1.304-5.71-4.614-10.576-4.648-10.625
					c-3.184-4.646-2.69-10.952,1.235-14.99c1.587-1.631,2.241-3.328,2.188-5.671c-0.171-8.545-20.366-27.056-38.384-38.345
					c-25.503-17.205-46.392-42.268-66.592-66.506c-19.072-22.881-37.085-44.495-56.328-56.426
					c-29.766-18.44-116.733-1.279-152.456,8.027c-21.177,29.382-33.325,120.686-8.652,171.077
					c9.409,19.211,22.432,28.079,39.609,27.224C1943.341,3531.156,1946.378,3531.083,1949.449,3531.083z"/>
			</g>
			<g>
				<path style="fill:#390176;" d="M2176.481,3523.026l16.646,5.322c5.469,1.714,11.221,3.665,16.436,5.173
					c3.843,0.654,7.783-0.784,10.767-3.516c3.022-2.7,5.146-6.626,5.747-10.303c0.859-5.234,5.796-8.782,11.03-7.925
					c5.229,0.857,8.779,5.793,7.92,11.028c-0.142,0.884-0.405,1.721-0.767,2.495l-0.4,0.847c-3.394,7.212-8.838,12.871-15.61,16.399
					c-6.699,3.55-15.347,4.453-22.5,1.025c-5.435-3.062-10.181-6.079-15.293-9.114l-15.044-9.08
					c-0.615-0.371-0.811-1.172-0.439-1.787C2175.289,3523.068,2175.919,3522.848,2176.481,3523.026z"/>
			</g>
			<g>
				<path style="fill:#390176;" d="M2231.759,3582.064c-5.85,1.626-11.968,1.763-17.578,0.442c-2.808-0.649-5.483-1.628-7.954-2.903
					c-2.383-1.272-4.023-2.346-6.074-3.53l-23.418-13.887c-0.796-0.471-1.06-1.499-0.586-2.295c0.386-0.654,1.147-0.947,1.851-0.769
					l26.382,6.67c2.109,0.508,4.595,1.216,6.396,1.56c1.733,0.31,3.462,0.374,5.112,0.234c3.311-0.259,6.353-1.409,8.853-3.091
					c4.419-2.976,10.415-1.804,13.394,2.615c2.974,4.421,1.807,10.417-2.617,13.394c-0.869,0.588-1.802,1.013-2.764,1.284
					L2231.759,3582.064z"/>
			</g>
			<g>
				<path style="fill:#390176;" d="M2236.383,3501.864c-6.45,5.784-13.989,8.235-21.489,8.438
					c-7.388,0.198-14.609-2.141-20.176-5.869l-28.965-19.285c-1.016-0.676-1.294-2.048-0.615-3.066
					c0.586-0.884,1.704-1.206,2.656-0.828l32.329,12.849c4.556,1.797,9.102,2.024,13.203,0.994c2.026-0.515,3.872-1.343,5.449-2.41
					c0.791-0.544,1.494-1.133,2.168-1.787c0.82-0.769,1.172-1.389,1.543-1.865l0.059-0.078c3.223-4.141,9.189-4.885,13.33-1.665
					c4.141,3.223,4.888,9.192,1.665,13.333C2237.198,3501.066,2236.783,3501.5,2236.383,3501.864z"/>
			</g>
			<g>
				<path style="fill:#4C63A8;" d="M1978.786,3294.835c0,0-83.944,119.413-37.834,248.284c0,0-131.628,37.441-299.123,0
					c-190.578-42.6-213.406-122.959-198.332-223.456c15.074-100.496,98.053-176.99,219.613-139.512
					C1808.276,3224.904,1978.786,3294.835,1978.786,3294.835z"/>
			</g>
			<g style="opacity:0.6;">
				<path style="fill:#FFFFFF;" d="M1978.786,3294.835c-1.849,2.669-3.727,5.58-5.581,8.737c-2.489,4.239-4.579,8.313-6.337,12.124
					c-26.54-12.056-58.182-25.863-94.197-40.457c-32.672-13.24-55.477-21.635-101.087-38.425
					c-93.18-34.302-109.174-37.905-121.186-40.198c-40.785-7.788-69.325-13.238-102.861-2.956
					c-50.258,15.41-78.285,55.898-88.966,73.509c15.646-35.495,41.321-64.472,75.139-81.163
					c44.629-22.027,89.431-14.719,129.4-5.854C1784.174,3207.002,1898.411,3255.699,1978.786,3294.835z"/>
			</g>
			<g>
				<path style="fill:#4C63A8;" d="M1940.952,3543.119c0,0-9.553,2.743-26.814,5.958c-46.773,8.798-149.964,21.425-272.309-5.958
					c-190.588-42.609-213.43-122.959-198.343-223.456c2.79-18.492,7.85-36.178,15.086-52.495
					c37.692-51.974,102.671-79.499,185.622-53.913c145.187,44.738,315.675,114.684,315.675,114.684l0.095,0.047
					C1938.351,3372.348,1909.598,3455.534,1940.952,3543.119z"/>
			</g>
			<g style="opacity:0.3;">
				<path style="fill:#390176;" d="M1689.469,3470.487c-186.054-41.003-208.341-118.351-193.624-215.079
					c2.819-18.526,8.089-36.19,15.57-52.413c-29.32,26.218-48.388,64.044-54.814,106.278
					c-14.717,96.729,7.57,174.076,193.624,215.079c163.519,36.038,292.023,0,292.023,0c-5.421-14.938-8.963-29.734-11.066-44.224
					C1879.033,3487.448,1791.018,3492.866,1689.469,3470.487z"/>
			</g>
			<g>
				<path style="fill:#390176;" d="M1794.357,3571.705c-45.098,0-97.93-4.268-155.107-17.048
					c-206.597-46.179-221.792-141.077-207.446-236.746c8.706-58.037,38.765-107.087,82.461-134.573
					c42.896-26.978,95.566-31.985,152.329-14.485c144.014,44.395,314.971,114.341,316.68,115.042c3.325,1.365,5.85,4.17,6.86,7.622
					c1.011,3.45,0.396,7.168-1.67,10.11c-0.908,1.299-79.78,116.218-36.377,237.507c1.104,3.081,0.879,6.482-0.62,9.392
					c-1.494,2.91-4.131,5.068-7.28,5.964C1940.558,3555.524,1882.15,3571.703,1794.357,3571.705z M1602.423,3182.303
					c-27.754,0-53.306,7.048-75.566,21.052c-37.866,23.813-63.984,66.846-71.665,118.062
					c-15.044,100.273,11.367,170.408,189.214,210.164c134.141,29.983,245.61,10.884,281.318,3.054
					c-31.553-105.276,15.728-200.742,35.493-234.153c-42.622-17.126-181.616-72.048-301.587-109.031
					C1639.821,3185.343,1620.646,3182.303,1602.423,3182.303z"/>
			</g>
			<g>
				<g>
					<path style="fill:#390176;" d="M1676.967,820.27c-1.741-0.435,1.318-17.253,8.423-47.537c1.558-7.639,4.258-15.83,7.117-24.839
						c2.898-9.019,6.045-18.804,9.421-29.309c0.864-2.627,1.746-5.298,2.639-8.013c1.052-2.656,2.122-5.354,3.21-8.093
						c2.188-5.483,4.443-11.135,6.765-16.953c4.78-11.585,9.272-24.109,15.535-36.543c22.803-50.796,55.513-108.977,99.131-168.425
						c5.503-7.393,11.074-14.878,16.709-22.449c5.701-7.522,11.846-14.832,17.859-22.378c3.032-3.752,6.079-7.527,9.141-11.318
						c3.186-3.691,6.389-7.4,9.607-11.126c6.524-7.375,12.815-15.088,19.717-22.375c6.858-7.329,13.623-14.863,20.737-22.188
						c7.214-7.234,14.285-14.717,21.795-21.895c7.48-7.202,14.997-14.473,22.878-21.514c3.865-3.582,7.854-7.09,11.902-10.574
						c2.029-1.746,3.997-3.516,6.104-5.237l3.123-2.6l1.565-1.301l0.659-0.513c0.359-0.271,0.74-0.527,1.135-0.769
						c0.786-0.486,1.636-0.908,2.527-1.255c1.777-0.696,3.73-1.074,5.686-1.072c1.953-0.002,3.906,0.376,5.684,1.072
						c0.891,0.347,1.741,0.769,2.527,1.255c0.396,0.242,0.776,0.498,1.138,0.769l0.657,0.513l1.565,1.301l3.123,2.6
						c2.107,1.721,4.077,3.491,6.103,5.237c4.048,3.484,8.04,6.992,11.902,10.574c7.881,7.041,15.4,14.311,22.881,21.514
						c7.51,7.178,14.575,14.661,21.792,21.895c7.114,7.324,13.882,14.858,20.737,22.188c6.904,7.288,13.193,15,19.717,22.375
						c3.218,3.726,6.421,7.434,9.604,11.126c3.066,3.792,6.113,7.566,9.146,11.318c6.011,7.546,12.153,14.856,17.856,22.378
						c5.635,7.571,11.206,15.056,16.709,22.449c43.618,59.448,76.328,117.629,99.131,168.425
						c6.265,12.434,10.757,24.958,15.532,36.543c2.324,5.818,4.58,11.47,6.768,16.953c1.089,2.739,2.158,5.437,3.213,8.093
						c0.894,2.715,1.772,5.386,2.637,8.013c3.379,10.505,6.523,20.29,9.424,29.309c2.856,9.009,5.557,17.2,7.114,24.839
						c7.104,30.283,10.166,47.102,8.423,47.537c-1.738,0.435-8.12-15.52-18.086-44.512c-2.271-7.317-5.659-15.168-9.17-23.808
						c-3.467-8.657-7.231-18.047-11.274-28.132c-1.006-2.522-2.026-5.085-3.066-7.693c-1.187-2.549-2.397-5.139-3.623-7.771
						c-2.441-5.264-4.961-10.693-7.549-16.279c-5.283-11.125-10.229-23.157-16.909-35.103
						c-24.458-48.801-58.081-104.736-101.802-162.119c-5.503-7.141-11.074-14.37-16.709-21.68
						c-5.688-7.268-11.807-14.331-17.783-21.633c-3.008-3.633-6.035-7.283-9.072-10.955c-3.159-3.569-6.333-7.158-9.521-10.764
						c-6.455-7.139-12.671-14.621-19.478-21.677c-6.763-7.095-13.423-14.409-20.415-21.509c-7.08-6.999-14.018-14.277-21.353-21.221
						c-7.31-6.977-14.651-14.031-22.283-20.818c-3.76-3.474-7.603-6.838-11.484-10.171c-1.936-1.663-3.862-3.396-5.818-4.988
						l-2.927-2.434l-1.465-1.221l6.338-7.986l0.049-0.095l0.02-0.071l0.017,0.071l0.049,0.095l6.338,7.986l-1.465,1.221
						l-2.927,2.434c-1.956,1.592-3.882,3.325-5.818,4.988c-3.879,3.333-7.725,6.697-11.484,10.171
						c-7.632,6.787-14.971,13.84-22.28,20.818c-7.336,6.943-14.275,14.221-21.357,21.221c-6.987,7.1-13.65,14.414-20.41,21.509
						c-6.807,7.056-13.025,14.539-19.482,21.677c-3.188,3.606-6.36,7.195-9.517,10.764c-3.042,3.672-6.067,7.322-9.075,10.955
						c-5.974,7.302-12.095,14.365-17.783,21.633c-5.635,7.31-11.206,14.539-16.709,21.68
						c-43.721,57.383-77.344,113.318-101.802,162.119c-6.68,11.946-11.626,23.977-16.907,35.103
						c-2.59,5.586-5.107,11.016-7.551,16.279c-1.226,2.632-2.434,5.222-3.623,7.771c-1.04,2.607-2.061,5.171-3.066,7.693
						c-4.043,10.086-7.805,19.475-11.275,28.132c-3.511,8.64-6.899,16.492-9.17,23.808
						C1685.087,804.75,1678.707,820.704,1676.967,820.27z"/>
				</g>
			</g>
			<g>
				<g style="opacity:0.3;">
					<path style="fill:#390176;" d="M1283.391,1896.996c4.802,197.042,127.085,323.124,127.085,323.124
						c2.172-57.208,16.879-108.888,38.219-154.589C1380.891,2017.509,1324.647,1960.477,1283.391,1896.996z"/>
				</g>
				<g style="opacity:0.3;">
					<path style="fill:#390176;" d="M2543.616,2048.508c25.822,49.759,44.165,107.18,46.611,171.612
						c0,0,144.254-148.703,125.573-375.546C2677.803,1921.517,2618.64,1990.792,2543.616,2048.508z"/>
				</g>
			</g>
			<g style="opacity:0.3;">
				<path style="fill:#390176;" d="M2313.975,3190.656c-8.969,3.168-17.937,6.337-26.905,9.506
					c-82.874,11.796-178.473,20.333-284.511,20.866c-108.178,0.544-205.628-7.352-289.893-18.698
					c-6.568-2.627-13.137-5.255-19.705-7.882c-2.691-3.5-5.383-7.001-8.074-10.501c3.326-13.148,6.248-28.018,8.122-44.414
					c3.373-29.507,2.398-55.59,0-76.708c-38.07,43.556-89.808,81.342-159.658,107.826c0,0-16.552,52.636-86.308,70.938
					c0,0-33.104,36.273-77.653,40.577c-18.445,1.797-29.984-2.129-35.564-8.23c0,0,0,0-0.047,0
					c-1.514,1.089-30.457,20.667-64.885,1.513c-5.25-2.931-8.418-8.276-8.797-14.14c0,0-6.054-0.33-13.951-5.722
					c-7.898-5.343-10.877-15.559-7.472-24.497c0.521-1.419,1.182-2.791,1.986-4.068c2.979-2.932,5.581-5.344,7.803-7.047
					c4.54-3.689,7.141-4.635,6.904-2.412c-2.507,25.632,21.234,24.167,21.234,24.167c11.445,27.949,66.02,3.784,66.02,3.784
					s8.655,6.715,37.03,4.351c28.375-2.365,52.021-37.03,52.021-37.03c54.67-9.174,83.802-74.106,83.802-74.106
					c194.938-74.485,272.828-298.792,272.828-298.792c0,0.047,0,0.142,0.047,0.188c-29.359,115.295-11.684,163.216,11.591,185.23
					c16.17,15.294,63.661,45.153,66.718,47.273c-0.009,0-111.035,1.074-111.035,1.074c29.794,54.718,99.598,111.61,245.021,111.61
					s181.791-103.334,181.791-103.334c-54.859,17.479-55.413-9.538-43.714-38.937c24.762-62.226,29.874-130.803,10.123-194.797
					c-0.291-0.942-0.583-1.878-0.876-2.809c-15.843-50.314-62.376-84.941-115.125-85.199
					c-104.841-0.512-183.755-20.351-240.521-43.732c-49.515-20.336-82.099-43.366-100.307-58.548
					c27.571-12.248,58.311-18.159,91.038-16.93l2.223-11.208c21.99,4.398,45.212,8.181,69.803,11.255
					c1.135,2.033,31.071,54.339,145.566,56.277c114.494-1.938,144.431-54.244,145.566-56.277
					c24.592-3.074,47.812-6.857,69.803-11.255l2.222,11.208c-10.168,53.488-41.333,271.599,90.092,421.799c0,0,0,0,0,0.047
					c0,54.807-0.441,63.813,0,76.66C2308.738,3151.471,2309.987,3169.003,2313.975,3190.656z"/>
			</g>
			<g style="opacity:0.3;">
				<path style="fill:#390176;" d="M2762.37,3229.951c-1.938-5.061-5.533-9.837-10.688-11.492c-0.425-0.142-0.898-0.284-1.324-0.426
					c-3.83,13.147-21.99,23.741-21.99,23.741c-10.641,23.22-61.48,12.249-61.48,12.249c-33.673,11.823-100.78-44.029-100.78-44.029
					c-65.311-22.464-82.477-74.769-82.477-74.769c-266.16-99.787-221.091-422.872-221.091-422.872
					c-0.198-2.876-1.512-27.252,15.663-41.272c17.953-14.655,49.23-12.378,70.7,9.503c-36.544-28.045-81.399-42.563-130.959-40.698
					c-10.168,53.488-41.333,271.599,90.092,421.799c0,0,0,0,0,0.047c38.069,43.509,89.761,81.343,159.611,107.779
					c0,0,16.552,52.635,86.308,70.938c0,0,33.104,36.273,77.653,40.577c18.444,1.797,29.983-2.129,35.611-8.23
					c0,0,29.605,21.188,64.932,1.514c5.202-2.931,8.418-8.323,8.749-14.14c0,0,6.053-0.33,13.998-5.722
					C2762.749,3249.104,2765.728,3238.888,2762.37,3229.951z"/>
			</g>
		</g>
	</g>
</g>
</svg>
