<?xml version="1.0" encoding="utf-8"?>
<!-- Generator: Adobe Illustrator 27.5.0, SVG Export Plug-In . SVG Version: 6.00 Build 0)  -->
<svg version="1.1" id="Capa_1" xmlns="http://www.w3.org/2000/svg" xmlns:xlink="http://www.w3.org/1999/xlink" x="0px" y="0px"
	 viewBox="0 0 425.2 425.2" style="enable-background:new 0 0 425.2 425.2;" xml:space="preserve">
<rect x="0.002" y="0.002" style="fill:#C6CFD9;" width="425.196" height="425.196"/>
<g>
	<path style="fill:none;stroke:#3C2415;stroke-width:2.8427;stroke-miterlimit:10;" d="M93.688,197.119c0,1.895,0,133.289,0,133.289
		h93.149"/>
	<path style="fill:#A7A9AC;" d="M275.168,150.637c-0.016-0.315-0.048-0.625-0.069-0.938c-0.035-0.499-0.064-1-0.114-1.494
		c-0.04-0.4-0.098-0.795-0.148-1.192c-0.05-0.4-0.092-0.802-0.152-1.199c-0.068-0.453-0.155-0.9-0.235-1.349
		c-0.06-0.333-0.112-0.669-0.179-1c-0.099-0.494-0.217-0.98-0.331-1.469c-0.065-0.277-0.123-0.558-0.192-0.834
		c-0.133-0.527-0.284-1.046-0.434-1.566c-0.066-0.23-0.126-0.462-0.196-0.69c-0.17-0.555-0.356-1.102-0.544-1.649
		c-0.064-0.185-0.122-0.372-0.189-0.556c-0.207-0.58-0.432-1.151-0.661-1.72c-0.058-0.143-0.111-0.289-0.171-0.432
		c-0.247-0.6-0.512-1.191-0.783-1.778c-0.049-0.106-0.095-0.215-0.145-0.321c-0.289-0.612-0.592-1.215-0.905-1.813
		c-0.039-0.077-0.078-0.155-0.118-0.23c-0.329-0.621-0.672-1.231-1.026-1.835c-0.029-0.05-0.057-0.1-0.086-0.15
		c-0.368-0.622-0.75-1.234-1.145-1.838c-0.019-0.029-0.038-0.06-0.057-0.089c-0.406-0.618-0.826-1.226-1.258-1.824
		c-0.01-0.014-0.02-0.028-0.03-0.043c-0.44-0.607-0.894-1.203-1.361-1.789c-0.004-0.005-0.009-0.011-0.013-0.017
		c-0.471-0.59-0.956-1.169-1.454-1.736c-0.001-0.001-0.003-0.003-0.005-0.005c-0.497-0.567-1.008-1.121-1.53-1.664
		c-0.003-0.002-0.005-0.005-0.008-0.008c0,0,0,0,0,0c-8.838-9.175-21.241-14.892-34.987-14.892c-6.611,0-12.911,1.326-18.657,3.717
		c-0.741-28.017-23.669-50.506-51.865-50.506c-28.663,0-51.899,23.237-51.899,51.9c0,2.876,0.244,5.692,0.693,8.441
		c-0.231-0.004-0.461-0.018-0.694-0.018c-22.396,0-40.832,16.938-43.21,38.702c-0.004,0.031-0.008,0.061-0.012,0.091
		c-0.073,0.681-0.128,1.366-0.168,2.056c-0.006,0.098-0.017,0.195-0.022,0.294c-0.041,0.773-0.064,1.551-0.064,2.335
		c0,24.012,19.466,43.477,43.477,43.477c10.987,0,21.014-4.083,28.668-10.805c9.516,11.726,24.038,19.226,40.316,19.226
		c14.145,0,26.962-5.665,36.324-14.842c5.324,2.005,11.088,3.109,17.114,3.109c26.835,0,48.589-21.755,48.589-48.588
		C275.23,152.277,275.209,151.454,275.168,150.637z"/>
	<g>
		<g>
			<path style="fill:#BEE5EB;" d="M162.78,211.51c-15.125,0-29.277-6.749-38.827-18.517c-0.329-0.405-0.808-0.658-1.328-0.702
				c-0.054-0.005-0.107-0.007-0.161-0.007c-0.464,0-0.914,0.168-1.265,0.477c-7.584,6.66-17.316,10.328-27.403,10.328
				c-22.917,0-41.561-18.644-41.561-41.56s18.644-41.56,41.561-41.56c0.113,0,0.683,0.018,0.693,0.018
				c0.556,0,1.086-0.242,1.45-0.663c0.372-0.43,0.533-1.002,0.442-1.563c-0.443-2.712-0.668-5.448-0.668-8.132
				c0-27.561,22.422-49.983,49.982-49.983c13.115,0,25.506,5.043,34.889,14.202c9.366,9.14,14.714,21.371,15.06,34.438
				c0.017,0.631,0.344,1.214,0.874,1.558c0.315,0.204,0.678,0.308,1.042,0.308c0.25,0,0.5-0.048,0.737-0.147
				c5.691-2.369,11.721-3.57,17.92-3.57c25.735,0,46.672,20.937,46.672,46.672c0,25.735-20.937,46.671-46.672,46.671
				c-5.648,0-11.178-1.005-16.438-2.986c-0.22-0.083-0.449-0.123-0.675-0.123c-0.493,0-0.978,0.191-1.342,0.548
				C188.36,206.434,175.936,211.51,162.78,211.51z"/>
			<g>
				<path style="fill:#3C2415;" d="M145.696,61.562c12.612,0,24.527,4.85,33.55,13.656c9.006,8.79,14.15,20.551,14.482,33.117
					c0.033,1.263,0.687,2.429,1.748,3.116c0.63,0.408,1.355,0.616,2.085,0.616c0.499,0,0.999-0.097,1.473-0.294
					c5.457-2.271,11.239-3.423,17.184-3.423c24.678,0,44.755,20.077,44.755,44.755c0,24.678-20.077,44.754-44.755,44.754
					c-5.416,0-10.719-0.963-15.762-2.863c-0.44-0.166-0.897-0.246-1.351-0.246c-0.986,0-1.955,0.381-2.685,1.096
					c-9.042,8.864-20.989,13.746-33.64,13.746c-14.545,0-28.154-6.491-37.339-17.808c-0.657-0.81-1.615-1.317-2.654-1.404
					c-0.108-0.009-0.215-0.014-0.323-0.014c-0.927,0-1.828,0.336-2.53,0.953c-7.235,6.353-16.518,9.852-26.138,9.852
					c-21.859,0-39.644-17.784-39.644-39.643s17.784-39.643,39.644-39.643c0.089,0,0.178,0.004,0.267,0.007
					c0.121,0.004,0.241,0.008,0.361,0.01c0.022,0,0.044,0,0.065,0c1.113,0,2.171-0.483,2.9-1.327
					c0.743-0.859,1.067-2.004,0.883-3.125c-0.426-2.61-0.643-5.242-0.643-7.823C97.631,83.124,119.193,61.562,145.696,61.562
					 M145.696,57.728c-28.663,0-51.899,23.237-51.899,51.9c0,2.876,0.244,5.692,0.693,8.441c-0.23-0.004-0.46-0.018-0.693-0.018
					c-24.011,0-43.478,19.465-43.478,43.477s19.467,43.477,43.478,43.477c10.987,0,21.014-4.083,28.668-10.805
					c9.516,11.726,24.038,19.226,40.316,19.226c14.146,0,26.963-5.665,36.324-14.842c5.324,2.005,11.088,3.109,17.114,3.109
					c26.835,0,48.589-21.755,48.589-48.588c0-26.835-21.754-48.589-48.589-48.589c-6.612,0-12.912,1.326-18.657,3.717
					C196.82,80.216,173.893,57.728,145.696,57.728L145.696,57.728z"/>
			</g>
		</g>
		<g>
			<g>
				<polygon style="fill:#F26B69;" points="117.124,168.239 117.124,114.872 159.522,114.872 159.522,123.165 189.801,123.165 
					189.801,168.239 				"/>
				<g>
					<path style="fill:#3C2415;" d="M157.988,116.406v5.226v3.067h3.067h27.212v42.006h-69.609v-50.299H157.988 M161.056,113.338
						h-45.465v56.434h75.744v-48.141h-30.279V113.338L161.056,113.338z"/>
				</g>
			</g>
			<path style="fill:#BCBEC0;" d="M139.56,159.996c-10.263-10.264-16.103-24.353-16.103-38.876c0-2.615,0.197-5.215,0.567-7.782
				h-8.434v56.434h37.291C148.007,167.217,143.5,163.936,139.56,159.996z"/>
			<g>
				<g>
					<path style="fill:#3C2415;" d="M157.988,116.406v5.226v3.067h3.067h27.212v42.006h-69.609v-50.299H157.988 M161.056,113.338
						h-45.465v56.434h75.744v-48.141h-30.279V113.338L161.056,113.338z"/>
				</g>
			</g>
			<g>
				<rect x="117.124" y="159.141" style="fill:#F5DE7F;" width="72.677" height="9.098"/>
				<g>
					<path style="fill:#3C2415;" d="M188.268,160.675v6.03h-69.609v-6.03H188.268 M191.335,157.607h-75.744v12.165h75.744V157.607
						L191.335,157.607z"/>
				</g>
			</g>
			<g>
				<rect x="181.376" y="118.499" style="fill:#FFFFFF;" width="3.834" height="8.818"/>
				<path style="fill:#3C2415;" d="M184.444,119.267v7.284h-2.3v-7.284H184.444 M185.977,117.733h-5.368v10.351h5.368V117.733
					L185.977,117.733z"/>
			</g>
		</g>
		<path style="fill:#BCBEC0;" d="M251.205,119.407c0.473,4.531,0.782,9.061,0.754,13.699c-0.03,4.909-0.211,9.815-0.224,14.725
			c-0.054,18.888-15.721,34.65-34.651,34.65c-3.758,0-7.393-0.635-10.81-1.788c-4.426-1.418-8.467-3.768-11.874-6.821
			c-7.972,9.942-20.18,16.402-33.677,16.402c-14.23,0-27.029-7.18-34.938-18.055c-7.962,8.917-19.493,14.605-32.159,14.605
			c-20.595,0-38.209-15.028-42.31-34.549c-0.647,2.983-0.998,6.076-0.998,9.253c0,24.012,19.467,43.477,43.478,43.477
			c10.987,0,21.014-4.083,28.668-10.805c9.516,11.726,24.038,19.226,40.316,19.226c14.146,0,26.963-5.665,36.324-14.842
			c5.324,2.005,11.088,3.109,17.114,3.109c26.835,0,48.589-21.755,48.589-48.588C264.807,140.015,259.622,128.143,251.205,119.407z"
			/>
		<g>
			<g>
				<path style="fill:#FFFFFF;" d="M66.021,161.633c0.038-7.964,0.644-18.623,8.83-22.552c2.674-1.283,0.338-5.249-2.322-3.972
					c-9.756,4.682-11.062,16.928-11.108,26.524C61.405,164.601,66.006,164.6,66.021,161.633L66.021,161.633z"/>
			</g>
			<g>
				<path style="fill:#FFFFFF;" d="M77.14,135.178c2.967,0,2.967-4.601,0-4.601C74.172,130.577,74.172,135.178,77.14,135.178
					L77.14,135.178z"/>
			</g>
			<g>
				<path style="fill:#FFFFFF;" d="M250.057,149.747c0.236,5.378-1.134,10.37-2.6,15.492c-0.819,2.858,3.62,4.069,4.435,1.222
					c1.578-5.506,3.02-10.938,2.767-16.714C254.528,146.793,249.928,146.78,250.057,149.747L250.057,149.747z"/>
			</g>
			<g>
				<path style="fill:#FFFFFF;" d="M252.741,144.38c2.967,0,2.967-4.601,0-4.601S249.774,144.38,252.741,144.38L252.741,144.38z"/>
			</g>
		</g>
	</g>
	<path style="fill:#A7A9AC;" d="M380.693,374.257c-7.149-20.008-29.812-12.245-45.457-11.125
		c-10.859,0.778-22.006-1.009-32.873-1.442c-11.951-0.477-23.909-0.767-35.843-1.591c-21.687-1.497-43.514-0.796-65.251-1.152
		c-3.01-0.494-6.085-0.676-9.249-0.73c-5.588-0.097-11.381-0.469-16.913,0.491c-9.306,1.612-20.43,11.919-15.168,22.198
		c5.416,10.58,21.222,8.716,30.887,8.196c14.622-0.786,28.832,4.495,43.432,4.154c14.842-0.347,29.169-5.105,44.042-5.457
		c15.027-0.357,30.065,0.372,45.076,0.966c7.19,0.284,14.124,0.668,21.248,1.544c6.687,0.82,13.466,1.533,20.207,1.083
		C374.292,390.761,384.701,385.474,380.693,374.257z"/>
	<g>
		<g>
			<rect x="188.745" y="231.016" style="fill:#FFFFFF;" width="162.669" height="142.09"/>
			<path style="fill:#3C2415;" d="M349.506,232.923v138.275H190.652V232.923H349.506 M353.321,229.108H186.837v145.904h166.483
				V229.108L353.321,229.108z"/>
		</g>
		<path style="fill:#BCBEC0;" d="M289.982,365.201c-52.041,0-95.467-43.427-95.467-95.468c0-14.456,3.355-28.246,9.312-40.625
			h-16.989v145.904h166.483v-34.336C336.367,355.867,314.102,365.201,289.982,365.201z"/>
		<g>
			<rect x="188.745" y="231.016" style="fill:#BDC9D3;" width="162.669" height="37.318"/>
			<g>
				<path style="fill:#3C2415;" d="M349.506,232.923v33.504H190.652v-33.504H349.506 M353.321,229.108H186.837v41.133h166.483
					V229.108L353.321,229.108z"/>
			</g>
		</g>
		<path style="fill:#BCBEC0;" d="M318.14,229.108c-17.626,20.839-43.874,34.246-72.787,34.246c-21.895,0-42.263-7.688-58.516-20.469
			v27.356h166.483v-41.133H318.14z"/>
		<g>
			<path style="fill:#7BBD95;" d="M294.534,258.366c-4.192,0-7.603-3.411-7.603-7.604c0-4.192,3.411-7.603,7.603-7.603
				c4.192,0,7.603,3.41,7.603,7.603C302.137,254.955,298.727,258.366,294.534,258.366z"/>
			<path style="fill:#3C2415;" d="M294.534,245.067c3.141,0,5.696,2.555,5.696,5.695c0,3.141-2.555,5.696-5.696,5.696
				c-3.141,0-5.696-2.556-5.696-5.696C288.838,247.622,291.393,245.067,294.534,245.067 M294.534,241.253
				c-5.252,0-9.511,4.259-9.511,9.51c0,5.253,4.258,9.511,9.511,9.511c5.252,0,9.51-4.258,9.51-9.511
				C304.044,245.512,299.786,241.253,294.534,241.253L294.534,241.253z"/>
		</g>
		<g>
			<path style="fill:#F5DE7F;" d="M315.793,258.366c-4.192,0-7.604-3.411-7.604-7.604c0-4.192,3.411-7.603,7.604-7.603
				c4.192,0,7.603,3.41,7.603,7.603C323.396,254.955,319.986,258.366,315.793,258.366z"/>
			<path style="fill:#3C2415;" d="M315.793,245.067c3.141,0,5.696,2.555,5.696,5.695c0,3.141-2.555,5.696-5.696,5.696
				c-3.141,0-5.696-2.556-5.696-5.696C310.097,247.622,312.652,245.067,315.793,245.067 M315.793,241.253
				c-5.253,0-9.511,4.259-9.511,9.51c0,5.253,4.258,9.511,9.511,9.511c5.252,0,9.51-4.258,9.51-9.511
				C325.304,245.512,321.045,241.253,315.793,241.253L315.793,241.253z"/>
		</g>
		<g>
			<path style="fill:#F076A7;" d="M337.053,258.366c-4.193,0-7.604-3.411-7.604-7.604c0-4.192,3.411-7.603,7.604-7.603
				c4.192,0,7.603,3.41,7.603,7.603C344.656,254.955,341.245,258.366,337.053,258.366z"/>
			<path style="fill:#3C2415;" d="M337.053,245.067c3.141,0,5.696,2.555,5.696,5.695c0,3.141-2.555,5.696-5.696,5.696
				c-3.141,0-5.697-2.556-5.697-5.696C331.356,247.622,333.912,245.067,337.053,245.067 M337.053,241.253
				c-5.253,0-9.511,4.259-9.511,9.51c0,5.253,4.258,9.511,9.511,9.511c5.252,0,9.51-4.258,9.51-9.511
				C346.563,245.512,342.305,241.253,337.053,241.253L337.053,241.253z"/>
		</g>
		<g>
			<g>
				<rect x="199.44" y="252.725" style="fill:#A0DBE9;" width="63.841" height="5.656"/>
				<g>
					<path style="fill:#3C2415;" d="M261.755,254.251v2.604h-60.79v-2.604H261.755 M264.807,251.199h-66.893v8.707h66.893V251.199
						L264.807,251.199z"/>
				</g>
			</g>
			<g>
				<rect x="199.44" y="239.95" style="fill:#F5DE7F;" width="63.841" height="5.656"/>
				<g>
					<path style="fill:#3C2415;" d="M261.755,241.477v2.604h-60.79v-2.604H261.755 M264.807,238.425h-66.893v8.707h66.893V238.425
						L264.807,238.425z"/>
				</g>
			</g>
		</g>
		<g>
			<g>
				<g>
					<rect x="308.673" y="344.435" style="fill:#A0DBE9;" width="34.254" height="5.656"/>
					<g>
						<path style="fill:#3C2415;" d="M341.402,345.962v2.603h-31.203v-2.603H341.402 M344.454,342.91h-37.306v8.707h37.306V342.91
							L344.454,342.91z"/>
					</g>
				</g>
			</g>
			<g>
				<rect x="323.931" y="357.211" style="fill:#F5DE7F;" width="18.997" height="5.654"/>
				<g>
					<path style="fill:#3C2415;" d="M341.402,358.737v2.602h-15.945v-2.602H341.402 M344.454,355.685h-22.048v8.705h22.048V355.685
						L344.454,355.685z"/>
				</g>
			</g>
		</g>
		<g>
			<g>
				<path style="fill:#FFFFFF;" d="M198.817,363.822c0-5.678,0-11.357,0-17.037c0-2.952-4.578-2.952-4.578,0
					c0,5.68,0,11.359,0,17.037C194.24,366.775,198.817,366.775,198.817,363.822L198.817,363.822z"/>
			</g>
			<g>
				<path style="fill:#FFFFFF;" d="M196.274,342.463c2.952,0,2.952-4.579,0-4.579C193.323,337.884,193.323,342.463,196.274,342.463
					L196.274,342.463z"/>
			</g>
		</g>
		<g>
			<g>
				<path style="fill:#FFFFFF;" d="M282.735,250.662c-0.169-3.037,0.402-6.33,3.443-7.688c2.691-1.2,0.361-5.144-2.311-3.952
					c-4.451,1.986-5.962,7.113-5.711,11.64C278.321,253.597,282.898,253.612,282.735,250.662L282.735,250.662z"/>
			</g>
			<g>
				<path style="fill:#FFFFFF;" d="M289.855,240.744c2.952,0,2.952-4.577,0-4.577C286.903,236.167,286.903,240.744,289.855,240.744
					L289.855,240.744z"/>
			</g>
		</g>
	</g>
	<g>
		<g>
			<path style="fill:#F5DE7F;" d="M262.927,216.532c-0.189,0-0.368-0.073-0.503-0.207l-0.515-0.515c-0.276-0.278-0.276-0.73,0-1.006
				l1.402-1.401l-1.314-1.314c-0.277-0.277-0.277-0.728,0-1.005l0.483-0.482c0.134-0.134,0.313-0.209,0.502-0.209
				c0.19,0,0.368,0.074,0.503,0.209l1.313,1.314l1.386-1.386c0.134-0.134,0.313-0.208,0.502-0.208c0.19,0,0.368,0.074,0.502,0.208
				l0.515,0.514c0.277,0.277,0.277,0.728,0,1.005l-1.386,1.385l1.313,1.314c0.135,0.135,0.209,0.314,0.208,0.504
				c0,0.19-0.074,0.368-0.209,0.502l-0.481,0.481c-0.134,0.135-0.313,0.209-0.503,0.209c-0.19,0-0.369-0.074-0.503-0.209
				l-1.313-1.313l-1.402,1.402C263.295,216.459,263.116,216.532,262.927,216.532z"/>
			<path style="fill:#3C2415;" d="M266.688,210.559c0.121,0,0.242,0.046,0.335,0.139l0.515,0.514c0.185,0.185,0.185,0.485,0,0.67
				l-1.554,1.553l1.481,1.482c0.186,0.186,0.186,0.485,0,0.67l-0.482,0.482c-0.093,0.093-0.214,0.139-0.335,0.139
				c-0.121,0-0.243-0.046-0.335-0.139l-1.481-1.48l-1.569,1.569c-0.093,0.093-0.214,0.139-0.335,0.139s-0.242-0.046-0.335-0.139
				l-0.515-0.515c-0.184-0.186-0.184-0.485,0-0.67l1.57-1.569l-1.482-1.482c-0.185-0.185-0.185-0.485,0-0.67l0.482-0.482
				c0.092-0.093,0.213-0.139,0.335-0.139c0.121,0,0.242,0.046,0.335,0.139l1.481,1.481l1.554-1.553
				C266.445,210.605,266.566,210.559,266.688,210.559 M266.688,210.085c-0.253,0-0.491,0.099-0.67,0.278l-1.219,1.218l-1.146-1.146
				c-0.179-0.179-0.417-0.278-0.67-0.278c-0.253,0-0.491,0.099-0.67,0.278l-0.482,0.482c-0.37,0.369-0.37,0.971,0,1.34l1.146,1.146
				l-1.235,1.234c-0.369,0.368-0.369,0.969-0.001,1.339l0.516,0.516c0.179,0.179,0.417,0.277,0.67,0.277
				c0.253,0,0.491-0.099,0.669-0.277l1.235-1.234l1.146,1.146c0.179,0.179,0.417,0.278,0.67,0.278c0.253,0,0.491-0.099,0.67-0.278
				l0.482-0.482c0.179-0.178,0.278-0.415,0.278-0.668c0.001-0.254-0.098-0.492-0.278-0.672l-1.146-1.146l1.219-1.218
				c0.37-0.369,0.37-0.971,0-1.34l-0.515-0.514C267.179,210.184,266.94,210.085,266.688,210.085L266.688,210.085z"/>
		</g>
	</g>
	<g>
		<g>
			<path style="fill:#F5DE7F;" d="M222.704,80.304c-0.19,0-0.368-0.074-0.502-0.208l-0.515-0.515c-0.277-0.277-0.277-0.728,0-1.005
				l1.402-1.402l-1.314-1.314c-0.277-0.277-0.277-0.728,0-1.005l0.482-0.482c0.134-0.134,0.313-0.208,0.503-0.208
				c0.189,0,0.368,0.074,0.502,0.208l1.314,1.313l1.386-1.386c0.134-0.134,0.313-0.208,0.503-0.208c0.19,0,0.368,0.074,0.502,0.208
				l0.515,0.515c0.134,0.134,0.208,0.313,0.208,0.502c0,0.19-0.074,0.368-0.208,0.503l-1.386,1.386l1.313,1.313
				c0.135,0.135,0.209,0.314,0.209,0.503c0,0.19-0.074,0.368-0.209,0.502l-0.482,0.482c-0.134,0.134-0.313,0.208-0.503,0.208
				c-0.19,0-0.368-0.074-0.502-0.208l-1.313-1.313l-1.402,1.402C223.072,80.23,222.894,80.304,222.704,80.304z"/>
			<path style="fill:#3C2415;" d="M226.464,74.33c0.121,0,0.242,0.046,0.335,0.139l0.515,0.515c0.185,0.185,0.185,0.485,0,0.67
				l-1.554,1.553l1.481,1.481c0.186,0.186,0.186,0.485,0,0.67l-0.482,0.482c-0.093,0.093-0.214,0.139-0.335,0.139
				c-0.121,0-0.242-0.046-0.335-0.139l-1.481-1.481l-1.569,1.569c-0.092,0.092-0.214,0.139-0.335,0.139
				c-0.121,0-0.243-0.046-0.335-0.139l-0.515-0.515c-0.185-0.185-0.185-0.485,0-0.67l1.569-1.569l-1.481-1.481
				c-0.185-0.185-0.185-0.485,0-0.67l0.482-0.482c0.092-0.093,0.213-0.139,0.335-0.139c0.121,0,0.242,0.046,0.335,0.139l1.482,1.481
				l1.553-1.553C226.222,74.376,226.343,74.33,226.464,74.33 M226.464,73.856c-0.253,0-0.491,0.098-0.67,0.277l-1.218,1.218
				l-1.146-1.146c-0.179-0.179-0.417-0.278-0.67-0.278c-0.253,0-0.491,0.099-0.67,0.278l-0.482,0.481c-0.37,0.37-0.37,0.971,0,1.34
				l1.146,1.146l-1.234,1.234c-0.37,0.37-0.37,0.97,0,1.34l0.515,0.515c0.179,0.179,0.417,0.278,0.67,0.278s0.491-0.099,0.67-0.278
				l1.234-1.234l1.146,1.146c0.179,0.179,0.417,0.277,0.67,0.277c0.253,0,0.491-0.098,0.67-0.277l0.482-0.482
				c0.179-0.178,0.278-0.416,0.278-0.669c0.001-0.253-0.099-0.492-0.278-0.671l-1.146-1.146l1.219-1.218
				c0.37-0.369,0.37-0.971,0-1.34l-0.515-0.515C226.955,73.954,226.717,73.856,226.464,73.856L226.464,73.856z"/>
		</g>
	</g>
	<g>
		<g>
			<path style="fill:#F5DE7F;" d="M74.152,302.297c-0.19,0-0.369-0.074-0.503-0.209l-0.514-0.513
				c-0.134-0.135-0.208-0.314-0.208-0.503c0-0.19,0.074-0.368,0.208-0.503l1.402-1.401l-1.314-1.314
				c-0.134-0.135-0.208-0.313-0.208-0.503c0-0.19,0.074-0.368,0.208-0.503l0.482-0.482c0.134-0.134,0.312-0.209,0.502-0.209
				c0.19,0,0.368,0.074,0.503,0.21l1.313,1.314l1.386-1.386c0.134-0.135,0.313-0.209,0.502-0.209c0.19,0,0.369,0.074,0.503,0.208
				l0.514,0.516c0.134,0.134,0.208,0.312,0.208,0.502c0,0.189-0.074,0.368-0.208,0.502l-1.387,1.387l1.313,1.313
				c0.134,0.134,0.208,0.311,0.208,0.502c0.001,0.19-0.074,0.369-0.208,0.504L78.375,302c-0.134,0.135-0.313,0.209-0.502,0.209
				c-0.19,0-0.369-0.074-0.503-0.209l-1.313-1.314l-1.402,1.402C74.521,302.223,74.342,302.297,74.152,302.297z"/>
			<path style="fill:#3C2415;" d="M77.913,296.322c0.122,0,0.243,0.047,0.335,0.14l0.514,0.515c0.185,0.185,0.185,0.484,0,0.67
				l-1.554,1.554l1.481,1.48c0.186,0.185,0.186,0.484,0,0.67l-0.482,0.483c-0.092,0.093-0.214,0.14-0.335,0.14
				c-0.121,0-0.243-0.047-0.335-0.14l-1.481-1.482l-1.569,1.569c-0.093,0.093-0.214,0.14-0.335,0.14
				c-0.121,0-0.242-0.047-0.335-0.14l-0.515-0.514c-0.185-0.186-0.185-0.485,0-0.67l1.569-1.569l-1.481-1.481
				c-0.185-0.186-0.185-0.485,0-0.67l0.482-0.483c0.093-0.093,0.214-0.14,0.335-0.14s0.242,0.047,0.335,0.14l1.481,1.482
				l1.553-1.554C77.67,296.369,77.791,296.322,77.913,296.322 M77.913,295.849c-0.253,0-0.491,0.1-0.67,0.278l-1.218,1.219
				l-1.146-1.147c-0.178-0.18-0.416-0.278-0.67-0.278c-0.254,0-0.492,0.099-0.671,0.279l-0.481,0.481
				c-0.369,0.368-0.37,0.97-0.001,1.34l1.147,1.147l-1.234,1.234c-0.369,0.368-0.37,0.97,0,1.34l0.516,0.514
				c0.178,0.179,0.416,0.278,0.669,0.278c0.254,0,0.491-0.1,0.671-0.278l1.234-1.234l1.146,1.147
				c0.179,0.179,0.417,0.278,0.67,0.278c0.253,0,0.491-0.1,0.67-0.278l0.481-0.482c0.18-0.18,0.278-0.418,0.278-0.672
				c0-0.253-0.099-0.49-0.279-0.669l-1.145-1.145l1.219-1.219c0.37-0.37,0.369-0.972,0-1.341l-0.514-0.514
				C78.404,295.947,78.166,295.849,77.913,295.849L77.913,295.849z"/>
		</g>
	</g>
	<g>
		<g>
			<path style="fill:#F5DE7F;" d="M110.842,232.214c-0.189,0-0.368-0.073-0.502-0.207l-0.515-0.515
				c-0.134-0.135-0.208-0.313-0.208-0.503c0-0.19,0.074-0.369,0.208-0.503l1.402-1.401l-1.314-1.315
				c-0.134-0.134-0.208-0.313-0.208-0.502c0-0.19,0.074-0.369,0.208-0.503l0.482-0.481c0.134-0.134,0.313-0.209,0.503-0.209
				c0.19,0,0.369,0.075,0.503,0.21l1.313,1.313l1.386-1.386c0.134-0.134,0.313-0.207,0.502-0.207c0.189,0,0.368,0.073,0.503,0.207
				l0.514,0.516c0.134,0.134,0.208,0.311,0.208,0.502c0,0.189-0.074,0.368-0.207,0.502l-1.387,1.386l1.313,1.313
				c0.277,0.277,0.277,0.729,0,1.006l-0.481,0.482c-0.135,0.135-0.313,0.208-0.503,0.208c-0.189,0-0.368-0.073-0.502-0.207
				l-1.314-1.313l-1.402,1.402C111.21,232.141,111.031,232.214,110.842,232.214z"/>
			<path style="fill:#3C2415;" d="M114.603,226.24c0.121,0,0.242,0.047,0.335,0.139l0.514,0.515c0.185,0.185,0.185,0.484,0,0.67
				l-1.554,1.553l1.481,1.48c0.186,0.186,0.186,0.484,0,0.67l-0.482,0.483c-0.092,0.092-0.214,0.139-0.335,0.139
				s-0.243-0.047-0.335-0.139l-1.481-1.48l-1.569,1.569c-0.093,0.093-0.214,0.139-0.335,0.139s-0.242-0.046-0.335-0.139
				l-0.515-0.515c-0.185-0.186-0.185-0.485,0-0.67l1.569-1.569l-1.481-1.482c-0.185-0.186-0.185-0.485,0-0.67l0.482-0.482
				c0.093-0.094,0.214-0.14,0.335-0.14s0.242,0.046,0.335,0.14l1.481,1.48l1.554-1.553
				C114.36,226.287,114.481,226.24,114.603,226.24 M114.603,225.767c-0.253,0-0.491,0.099-0.669,0.276l-1.219,1.219l-1.146-1.146
				c-0.178-0.18-0.416-0.278-0.67-0.278s-0.492,0.099-0.671,0.279l-0.48,0.48c-0.37,0.368-0.37,0.97-0.001,1.34l1.147,1.147
				l-1.234,1.234c-0.369,0.368-0.37,0.97,0,1.34l0.515,0.515c0.179,0.179,0.417,0.277,0.67,0.277s0.491-0.099,0.669-0.277
				l1.235-1.234l1.146,1.145c0.179,0.179,0.417,0.277,0.67,0.277s0.491-0.099,0.669-0.276l0.483-0.484
				c0.179-0.179,0.277-0.417,0.277-0.67s-0.099-0.491-0.278-0.67l-1.146-1.146l1.218-1.218c0.37-0.37,0.369-0.972-0.001-1.34
				l-0.514-0.515C115.093,225.865,114.855,225.767,114.603,225.767L114.603,225.767z"/>
		</g>
	</g>
	<g>
		<g>
			<path style="fill:#F5DE7F;" d="M338.04,191.167c-0.19,0-0.368-0.074-0.502-0.208l-0.515-0.515
				c-0.134-0.134-0.208-0.313-0.208-0.502c0-0.19,0.074-0.368,0.208-0.502l1.402-1.402l-1.314-1.315
				c-0.134-0.134-0.208-0.313-0.208-0.502c0-0.19,0.074-0.368,0.208-0.503l0.482-0.481c0.134-0.134,0.313-0.208,0.502-0.208
				c0.189,0,0.368,0.074,0.503,0.209l1.313,1.313l1.386-1.385c0.134-0.134,0.313-0.208,0.503-0.208c0.19,0,0.368,0.074,0.502,0.208
				l0.515,0.515c0.134,0.134,0.208,0.313,0.208,0.503c0,0.19-0.074,0.368-0.208,0.502l-1.386,1.385l1.314,1.313
				c0.135,0.135,0.208,0.313,0.208,0.503s-0.074,0.368-0.208,0.502l-0.482,0.482c-0.134,0.134-0.313,0.208-0.503,0.208
				c-0.19,0-0.368-0.074-0.502-0.208l-1.314-1.313l-1.402,1.402C338.409,191.094,338.23,191.167,338.04,191.167z"/>
			<path style="fill:#3C2415;" d="M341.801,185.194c0.121,0,0.242,0.046,0.335,0.139l0.515,0.515c0.185,0.185,0.185,0.485,0,0.67
				l-1.554,1.553l1.481,1.48c0.186,0.186,0.186,0.485,0,0.67l-0.482,0.483c-0.093,0.093-0.214,0.139-0.335,0.139
				c-0.121,0-0.242-0.046-0.335-0.139l-1.481-1.48l-1.569,1.569c-0.092,0.093-0.214,0.139-0.335,0.139s-0.243-0.046-0.335-0.139
				l-0.515-0.515c-0.185-0.185-0.185-0.485,0-0.67l1.569-1.569l-1.482-1.482c-0.185-0.185-0.185-0.485,0-0.67l0.482-0.481
				c0.092-0.093,0.213-0.14,0.335-0.14c0.121,0,0.242,0.046,0.335,0.14l1.481,1.48l1.554-1.553
				C341.559,185.24,341.68,185.194,341.801,185.194 M341.801,184.72c-0.253,0-0.491,0.099-0.67,0.278l-1.219,1.218l-1.146-1.146
				c-0.179-0.179-0.417-0.278-0.67-0.278c-0.253,0-0.492,0.099-0.671,0.279l-0.481,0.479c-0.37,0.37-0.37,0.971-0.001,1.34
				l1.147,1.147l-1.234,1.234c-0.37,0.369-0.37,0.971,0,1.34l0.515,0.515c0.179,0.179,0.417,0.277,0.67,0.277
				c0.253,0,0.491-0.098,0.67-0.277l1.234-1.234l1.146,1.145c0.179,0.179,0.417,0.277,0.67,0.277c0.253,0,0.491-0.098,0.67-0.277
				l0.482-0.483c0.179-0.178,0.277-0.416,0.277-0.669s-0.099-0.491-0.277-0.67l-1.146-1.146l1.218-1.218c0.37-0.37,0.37-0.97,0-1.34
				l-0.515-0.515C342.292,184.818,342.054,184.72,341.801,184.72L341.801,184.72z"/>
		</g>
	</g>
	<g>
		<path style="fill:#F26B69;" d="M148.133,243.85c-0.19,0-0.369-0.074-0.503-0.209l-0.514-0.514
			c-0.134-0.135-0.208-0.313-0.208-0.503c0-0.189,0.074-0.368,0.208-0.502l1.402-1.402l-1.314-1.313
			c-0.134-0.135-0.208-0.313-0.208-0.503c0-0.189,0.074-0.368,0.208-0.502l0.483-0.482c0.134-0.134,0.312-0.208,0.502-0.208
			c0.189,0,0.368,0.074,0.502,0.208l1.314,1.314l1.386-1.386c0.134-0.134,0.313-0.208,0.503-0.208c0.19,0,0.369,0.074,0.503,0.209
			l0.514,0.513c0.134,0.135,0.208,0.313,0.208,0.503c0,0.19-0.074,0.368-0.208,0.503l-1.386,1.385l1.314,1.316
			c0.277,0.276,0.277,0.727,0,1.005l-0.482,0.482c-0.134,0.134-0.313,0.208-0.503,0.208c-0.19,0-0.369-0.074-0.502-0.209
			l-1.314-1.313l-1.402,1.402C148.501,243.775,148.323,243.85,148.133,243.85z"/>
		<path style="fill:#3C2415;" d="M151.893,237.875c0.121,0,0.243,0.047,0.335,0.14l0.515,0.514c0.185,0.186,0.185,0.485,0,0.67
			l-1.554,1.553l1.481,1.482c0.186,0.186,0.186,0.484,0,0.67l-0.482,0.481c-0.092,0.093-0.214,0.139-0.335,0.139
			s-0.243-0.046-0.335-0.139l-1.481-1.48l-1.569,1.569c-0.093,0.093-0.214,0.14-0.335,0.14s-0.242-0.047-0.335-0.14l-0.515-0.515
			c-0.185-0.184-0.185-0.484,0-0.67l1.569-1.569l-1.481-1.481c-0.185-0.185-0.185-0.484,0-0.67l0.482-0.481
			c0.093-0.093,0.214-0.14,0.335-0.14c0.121,0,0.242,0.047,0.335,0.14l1.482,1.48l1.553-1.553
			C151.65,237.922,151.772,237.875,151.893,237.875 M151.893,237.401c-0.253,0-0.491,0.1-0.67,0.278l-1.218,1.218l-1.146-1.145
			c-0.179-0.18-0.417-0.278-0.67-0.278c-0.253,0-0.491,0.1-0.67,0.278l-0.482,0.481c-0.37,0.37-0.37,0.972,0,1.341l1.146,1.145
			l-1.234,1.234c-0.37,0.37-0.369,0.972,0.001,1.341l0.514,0.514c0.179,0.179,0.417,0.278,0.67,0.278s0.491-0.1,0.67-0.278
			l1.234-1.234l1.146,1.145c0.179,0.179,0.417,0.278,0.67,0.278s0.491-0.1,0.67-0.278l0.482-0.481
			c0.179-0.18,0.278-0.417,0.278-0.67s-0.099-0.491-0.278-0.67l-1.146-1.148l1.219-1.218c0.369-0.368,0.37-0.97,0.001-1.34
			l-0.516-0.514C152.384,237.501,152.146,237.401,151.893,237.401L151.893,237.401z"/>
	</g>
	<g>
		<path style="fill:#F26B69;" d="M91.808,354.723c-0.19,0-0.369-0.074-0.503-0.209l-0.514-0.515
			c-0.134-0.134-0.208-0.311-0.208-0.502c0-0.189,0.074-0.368,0.207-0.502l1.402-1.402l-1.314-1.313
			c-0.134-0.135-0.208-0.313-0.208-0.503c0-0.189,0.074-0.368,0.207-0.502l0.483-0.483c0.134-0.134,0.313-0.208,0.503-0.208
			c0.189,0,0.368,0.074,0.502,0.208l1.313,1.314l1.386-1.386c0.134-0.134,0.313-0.208,0.502-0.208c0.19,0,0.369,0.074,0.503,0.209
			l0.514,0.513c0.134,0.135,0.208,0.313,0.208,0.503c0,0.19-0.074,0.368-0.208,0.503l-1.386,1.385l1.313,1.315
			c0.277,0.276,0.277,0.728,0,1.005l-0.482,0.481c-0.134,0.134-0.313,0.208-0.503,0.208c-0.19,0-0.369-0.074-0.502-0.209
			l-1.314-1.313l-1.402,1.402C92.177,354.648,91.998,354.723,91.808,354.723z"/>
		<path style="fill:#3C2415;" d="M95.569,348.748c0.121,0,0.243,0.047,0.335,0.14l0.515,0.514c0.185,0.186,0.185,0.485,0,0.67
			l-1.554,1.553l1.481,1.482c0.186,0.185,0.186,0.484,0,0.67l-0.482,0.482c-0.092,0.093-0.214,0.139-0.335,0.139
			s-0.243-0.046-0.335-0.139l-1.481-1.48l-1.569,1.569c-0.092,0.093-0.214,0.14-0.335,0.14s-0.243-0.047-0.335-0.14l-0.514-0.515
			c-0.185-0.185-0.185-0.484,0-0.67l1.569-1.569l-1.481-1.481c-0.185-0.185-0.185-0.484,0-0.67l0.482-0.482
			c0.093-0.093,0.214-0.14,0.335-0.14c0.121,0,0.242,0.047,0.335,0.14l1.481,1.48l1.554-1.553
			C95.326,348.795,95.448,348.748,95.569,348.748 M95.569,348.274c-0.253,0-0.491,0.1-0.67,0.278l-1.218,1.218l-1.146-1.146
			c-0.179-0.18-0.417-0.278-0.67-0.278c-0.254,0-0.491,0.1-0.671,0.278l-0.481,0.481c-0.37,0.37-0.37,0.972,0,1.341l1.146,1.146
			l-1.234,1.234c-0.37,0.37-0.369,0.972,0,1.341l0.514,0.514c0.179,0.179,0.417,0.278,0.67,0.278c0.253,0,0.491-0.1,0.67-0.278
			l1.234-1.234l1.146,1.146c0.179,0.179,0.416,0.278,0.67,0.278s0.491-0.1,0.67-0.278l0.481-0.481
			c0.179-0.18,0.278-0.417,0.278-0.67c0-0.253-0.099-0.49-0.278-0.67l-1.146-1.147l1.219-1.218c0.369-0.368,0.37-0.969,0-1.34
			l-0.516-0.514C96.06,348.374,95.822,348.274,95.569,348.274L95.569,348.274z"/>
	</g>
	<g>
		<path style="fill:#F26B69;" d="M73.034,107.072c-0.19,0-0.369-0.074-0.503-0.208l-0.514-0.515
			c-0.134-0.134-0.208-0.313-0.208-0.503c0-0.19,0.074-0.368,0.208-0.502l1.402-1.402l-1.314-1.314
			c-0.134-0.134-0.208-0.313-0.208-0.502c0-0.19,0.074-0.368,0.208-0.502l0.482-0.482c0.134-0.134,0.313-0.209,0.502-0.209
			c0.189,0,0.368,0.074,0.503,0.209l1.313,1.313l1.386-1.385c0.134-0.134,0.313-0.209,0.502-0.209c0.19,0,0.369,0.074,0.503,0.209
			l0.514,0.514c0.277,0.277,0.277,0.728,0,1.005l-1.386,1.386l1.313,1.313c0.135,0.135,0.209,0.313,0.209,0.503
			c0,0.19-0.074,0.368-0.209,0.502l-0.482,0.483c-0.134,0.134-0.313,0.208-0.502,0.208c-0.19,0-0.368-0.074-0.502-0.208
			l-1.313-1.313l-1.402,1.402C73.402,106.998,73.224,107.072,73.034,107.072z"/>
		<path style="fill:#3C2415;" d="M76.794,101.098c0.121,0,0.243,0.046,0.335,0.139l0.515,0.514c0.185,0.185,0.185,0.485,0,0.67
			l-1.554,1.553l1.481,1.481c0.186,0.186,0.186,0.485,0,0.67l-0.482,0.483c-0.092,0.093-0.214,0.139-0.335,0.139
			s-0.243-0.046-0.335-0.139l-1.481-1.481l-1.569,1.569c-0.093,0.092-0.214,0.139-0.335,0.139c-0.122,0-0.243-0.046-0.336-0.139
			l-0.514-0.515c-0.185-0.185-0.185-0.485,0-0.67l1.569-1.569l-1.481-1.481c-0.185-0.185-0.185-0.485,0-0.67l0.482-0.482
			c0.093-0.093,0.214-0.139,0.335-0.139c0.121,0,0.242,0.046,0.335,0.139l1.481,1.481l1.554-1.553
			C76.552,101.145,76.673,101.098,76.794,101.098 M76.794,100.624c-0.253,0-0.491,0.099-0.67,0.278l-1.218,1.217l-1.146-1.146
			c-0.179-0.179-0.417-0.278-0.67-0.278c-0.253,0-0.491,0.099-0.67,0.278l-0.482,0.482c-0.37,0.37-0.37,0.97,0,1.34l1.146,1.146
			l-1.234,1.234c-0.37,0.37-0.37,0.97,0,1.34l0.514,0.515c0.179,0.179,0.417,0.278,0.67,0.278c0.253,0,0.491-0.099,0.67-0.278
			l1.234-1.234l1.146,1.146c0.179,0.179,0.417,0.277,0.67,0.277s0.491-0.098,0.67-0.277l0.482-0.483
			c0.178-0.178,0.277-0.415,0.277-0.668c0.001-0.253-0.099-0.492-0.278-0.671l-1.146-1.146l1.219-1.218c0.37-0.37,0.37-0.97,0-1.34
			l-0.515-0.514C77.286,100.723,77.048,100.624,76.794,100.624L76.794,100.624z"/>
	</g>
	<g>
		<path style="fill:#F26B69;" d="M276.25,57.964c-0.19,0-0.368-0.074-0.503-0.208l-0.515-0.514
			c-0.277-0.277-0.277-0.728-0.001-1.005l1.402-1.402l-1.314-1.314c-0.277-0.277-0.277-0.728,0-1.005l0.483-0.482
			c0.134-0.134,0.313-0.208,0.502-0.208c0.19,0,0.368,0.074,0.503,0.208l1.314,1.313l1.386-1.386
			c0.134-0.134,0.313-0.208,0.502-0.208c0.19,0,0.368,0.074,0.503,0.208l0.514,0.515c0.134,0.134,0.208,0.313,0.208,0.502
			c0,0.19-0.074,0.368-0.208,0.502l-1.386,1.386l1.314,1.313c0.135,0.135,0.208,0.313,0.208,0.503c0,0.19-0.074,0.368-0.208,0.502
			l-0.483,0.482c-0.134,0.134-0.313,0.208-0.502,0.208c-0.19,0-0.368-0.074-0.502-0.208l-1.314-1.313l-1.402,1.402
			C276.619,57.891,276.44,57.964,276.25,57.964z"/>
		<path style="fill:#3C2415;" d="M280.011,51.991c0.121,0,0.243,0.046,0.335,0.139l0.514,0.515c0.185,0.185,0.185,0.485,0,0.67
			l-1.554,1.553l1.482,1.481c0.186,0.186,0.186,0.485,0,0.67l-0.482,0.482c-0.093,0.092-0.214,0.139-0.335,0.139
			c-0.121,0-0.242-0.046-0.335-0.139l-1.481-1.481l-1.569,1.569c-0.092,0.093-0.214,0.139-0.335,0.139s-0.243-0.046-0.335-0.139
			l-0.515-0.514c-0.185-0.185-0.185-0.485,0-0.67l1.569-1.569l-1.481-1.481c-0.185-0.185-0.185-0.485,0-0.67l0.483-0.482
			c0.093-0.093,0.214-0.139,0.335-0.139c0.121,0,0.242,0.046,0.335,0.139l1.481,1.481l1.554-1.553
			C279.769,52.037,279.89,51.991,280.011,51.991 M280.011,51.517c-0.253,0-0.491,0.099-0.67,0.278l-1.219,1.218l-1.146-1.146
			c-0.179-0.179-0.417-0.278-0.67-0.278c-0.253,0-0.491,0.099-0.67,0.278l-0.482,0.481c-0.37,0.37-0.37,0.971-0.001,1.34
			l1.147,1.146l-1.234,1.234c-0.369,0.37-0.369,0.971,0,1.34l0.515,0.514c0.179,0.179,0.417,0.277,0.67,0.277
			s0.491-0.098,0.67-0.277l1.234-1.234l1.146,1.146c0.179,0.179,0.417,0.278,0.67,0.278s0.491-0.099,0.67-0.278l0.482-0.482
			c0.179-0.178,0.278-0.416,0.278-0.669c0.001-0.253-0.098-0.492-0.278-0.671l-1.146-1.146l1.219-1.218c0.37-0.37,0.37-0.97,0-1.34
			l-0.514-0.515C280.502,51.615,280.264,51.517,280.011,51.517L280.011,51.517z"/>
	</g>
	<g>
		<g>
			<path style="fill:#7BBD95;" d="M276.25,104.204c-0.19,0-0.368-0.074-0.503-0.208l-0.515-0.515
				c-0.134-0.134-0.208-0.313-0.208-0.502c0-0.19,0.074-0.368,0.208-0.503l1.402-1.402l-1.314-1.314
				c-0.277-0.277-0.277-0.728,0-1.005l0.483-0.482c0.134-0.134,0.313-0.208,0.502-0.208c0.19,0,0.368,0.074,0.503,0.208l1.314,1.314
				l1.386-1.386c0.134-0.134,0.313-0.208,0.502-0.208c0.19,0,0.368,0.074,0.503,0.208l0.514,0.514
				c0.134,0.134,0.208,0.313,0.208,0.503c0,0.19-0.074,0.368-0.208,0.503l-1.386,1.385l1.314,1.313
				c0.135,0.135,0.208,0.313,0.208,0.503c0,0.189-0.074,0.368-0.208,0.502l-0.483,0.482c-0.134,0.134-0.313,0.208-0.502,0.208
				c-0.19,0-0.368-0.074-0.502-0.208l-1.314-1.314l-1.402,1.402C276.619,104.13,276.44,104.204,276.25,104.204z"/>
			<path style="fill:#3C2415;" d="M280.011,98.23c0.121,0,0.243,0.046,0.335,0.139l0.514,0.514c0.185,0.185,0.185,0.485,0,0.67
				l-1.554,1.553l1.482,1.481c0.186,0.186,0.186,0.485,0,0.67l-0.482,0.482c-0.093,0.092-0.214,0.139-0.335,0.139
				c-0.121,0-0.242-0.046-0.335-0.139l-1.481-1.481l-1.569,1.569c-0.092,0.093-0.214,0.139-0.335,0.139s-0.243-0.046-0.335-0.139
				l-0.515-0.515c-0.185-0.185-0.185-0.485,0-0.67l1.569-1.569l-1.481-1.482c-0.185-0.185-0.185-0.485,0-0.67l0.483-0.482
				c0.093-0.093,0.214-0.139,0.335-0.139c0.121,0,0.242,0.046,0.335,0.139l1.481,1.481l1.554-1.553
				C279.769,98.276,279.89,98.23,280.011,98.23 M280.011,97.756c-0.253,0-0.491,0.099-0.67,0.278l-1.219,1.218l-1.146-1.146
				c-0.18-0.179-0.418-0.278-0.67-0.278c-0.253,0-0.491,0.099-0.67,0.278l-0.483,0.482c-0.37,0.369-0.37,0.971,0,1.34l1.147,1.147
				l-1.234,1.234c-0.37,0.369-0.37,0.971,0,1.34l0.515,0.515c0.179,0.179,0.417,0.277,0.67,0.277s0.491-0.098,0.67-0.277
				l1.234-1.234l1.146,1.146c0.179,0.179,0.417,0.278,0.67,0.278s0.491-0.099,0.67-0.278l0.482-0.482
				c0.179-0.178,0.278-0.417,0.278-0.669c0.001-0.253-0.098-0.492-0.278-0.671l-1.146-1.146l1.219-1.218
				c0.179-0.178,0.277-0.416,0.277-0.669c0-0.253-0.098-0.492-0.277-0.671l-0.514-0.514
				C280.502,97.854,280.264,97.756,280.011,97.756L280.011,97.756z"/>
		</g>
	</g>
	<g>
		<g>
			<path style="fill:#7BBD95;" d="M77.484,57.964c-0.19,0-0.368-0.074-0.502-0.208l-0.515-0.514
				c-0.277-0.277-0.277-0.728-0.001-1.005l1.402-1.402l-1.314-1.314c-0.277-0.277-0.277-0.728,0-1.005l0.483-0.482
				c0.134-0.134,0.313-0.208,0.502-0.208c0.19,0,0.368,0.074,0.503,0.208l1.313,1.313l1.386-1.386
				c0.134-0.134,0.313-0.208,0.502-0.208c0.19,0,0.368,0.074,0.502,0.208l0.514,0.515c0.277,0.277,0.277,0.728,0,1.005l-1.386,1.386
				l1.313,1.313c0.135,0.135,0.208,0.313,0.208,0.503c0,0.19-0.074,0.368-0.208,0.502l-0.482,0.482
				c-0.134,0.134-0.313,0.208-0.502,0.208c-0.19,0-0.368-0.074-0.502-0.208l-1.313-1.313l-1.402,1.402
				C77.853,57.891,77.674,57.964,77.484,57.964z"/>
			<path style="fill:#3C2415;" d="M81.245,51.991c0.121,0,0.242,0.046,0.335,0.139l0.514,0.515c0.185,0.185,0.185,0.485,0,0.67
				l-1.553,1.553l1.481,1.481c0.185,0.186,0.185,0.485,0,0.67L81.54,57.5c-0.092,0.092-0.214,0.139-0.335,0.139
				c-0.121,0-0.243-0.046-0.335-0.139l-1.481-1.481l-1.569,1.569c-0.093,0.093-0.214,0.139-0.335,0.139s-0.242-0.046-0.335-0.139
				l-0.515-0.514c-0.185-0.185-0.185-0.485,0-0.67l1.569-1.569l-1.481-1.481c-0.185-0.185-0.185-0.485,0-0.67l0.483-0.482
				c0.092-0.093,0.213-0.139,0.335-0.139c0.121,0,0.242,0.046,0.335,0.139l1.481,1.481l1.554-1.553
				C81.003,52.037,81.124,51.991,81.245,51.991 M81.245,51.517c-0.253,0-0.491,0.099-0.67,0.278l-1.219,1.218l-1.146-1.146
				c-0.179-0.179-0.417-0.278-0.67-0.278c-0.253,0-0.491,0.099-0.67,0.278l-0.482,0.481c-0.37,0.37-0.37,0.971,0,1.34l1.146,1.146
				L76.3,56.069c-0.369,0.37-0.369,0.971,0,1.34l0.515,0.514c0.179,0.179,0.417,0.277,0.67,0.277c0.253,0,0.491-0.098,0.67-0.277
				l1.234-1.234l1.146,1.146c0.179,0.179,0.417,0.278,0.67,0.278s0.491-0.099,0.67-0.278l0.482-0.482
				c0.179-0.178,0.278-0.416,0.278-0.669c0-0.253-0.099-0.492-0.278-0.671l-1.146-1.146l1.218-1.218c0.37-0.37,0.37-0.97,0-1.34
				l-0.514-0.515C81.736,51.615,81.498,51.517,81.245,51.517L81.245,51.517z"/>
		</g>
	</g>
	<g>
		<g>
			<path style="fill:#7BBD95;" d="M75.902,239.272c-0.189,0-0.368-0.073-0.502-0.207l-0.514-0.516
				c-0.134-0.134-0.208-0.313-0.208-0.502c0-0.19,0.074-0.369,0.208-0.503l1.402-1.401l-1.314-1.315
				c-0.134-0.134-0.208-0.313-0.208-0.502c0-0.19,0.074-0.369,0.208-0.503l0.482-0.481c0.134-0.134,0.312-0.209,0.502-0.209
				c0.19,0,0.368,0.074,0.503,0.21l1.313,1.313l1.386-1.386c0.134-0.134,0.313-0.207,0.503-0.207c0.189,0,0.368,0.073,0.502,0.207
				l0.515,0.515c0.134,0.135,0.208,0.313,0.208,0.503c0,0.189-0.074,0.368-0.207,0.502l-1.387,1.386l1.313,1.313
				c0.277,0.277,0.277,0.729,0,1.006l-0.481,0.482c-0.135,0.135-0.313,0.208-0.503,0.208c-0.189,0-0.368-0.073-0.502-0.207
				l-1.314-1.314l-1.402,1.402C76.271,239.199,76.092,239.272,75.902,239.272z"/>
			<path style="fill:#3C2415;" d="M79.663,233.299c0.121,0,0.242,0.047,0.335,0.139l0.515,0.515c0.185,0.185,0.185,0.484,0,0.67
				l-1.554,1.553l1.481,1.48c0.186,0.186,0.186,0.484,0,0.67l-0.482,0.483c-0.093,0.092-0.214,0.139-0.335,0.139
				c-0.121,0-0.242-0.047-0.335-0.139l-1.481-1.481l-1.569,1.57c-0.093,0.093-0.214,0.139-0.335,0.139
				c-0.121,0-0.242-0.046-0.335-0.139l-0.514-0.515c-0.185-0.186-0.185-0.485,0-0.67l1.569-1.569l-1.481-1.482
				c-0.185-0.186-0.185-0.485,0-0.67l0.482-0.481c0.092-0.094,0.213-0.14,0.335-0.14c0.121,0,0.242,0.046,0.335,0.14l1.481,1.48
				l1.554-1.553C79.421,233.346,79.542,233.299,79.663,233.299 M79.663,232.825c-0.253,0-0.491,0.099-0.669,0.276l-1.219,1.219
				l-1.146-1.145c-0.178-0.18-0.417-0.278-0.67-0.278c-0.254,0-0.492,0.099-0.671,0.279l-0.48,0.48
				c-0.37,0.368-0.37,0.97-0.001,1.34l1.147,1.147l-1.234,1.234c-0.369,0.368-0.37,0.97-0.001,1.34l0.515,0.515
				c0.179,0.179,0.417,0.277,0.67,0.277c0.253,0,0.491-0.099,0.67-0.277l1.235-1.235l1.146,1.146
				c0.179,0.179,0.417,0.277,0.67,0.277c0.253,0,0.491-0.099,0.67-0.276l0.483-0.484c0.179-0.179,0.277-0.417,0.277-0.67
				s-0.099-0.491-0.278-0.67l-1.146-1.145l1.218-1.218c0.37-0.37,0.369-0.972-0.001-1.34l-0.514-0.515
				C80.154,232.924,79.916,232.825,79.663,232.825L79.663,232.825z"/>
		</g>
	</g>
	<g>
		<g>
			<path style="fill:#7BBD95;" d="M164.851,279.705c-0.19,0-0.369-0.074-0.503-0.209l-0.514-0.514
				c-0.134-0.135-0.208-0.313-0.208-0.503c0-0.189,0.074-0.368,0.208-0.502l1.402-1.402l-1.314-1.315
				c-0.134-0.134-0.208-0.311-0.208-0.502c0-0.19,0.074-0.368,0.208-0.502l0.483-0.482c0.134-0.134,0.313-0.208,0.503-0.208
				c0.189,0,0.368,0.074,0.502,0.208l1.314,1.314l1.386-1.386c0.134-0.134,0.313-0.207,0.502-0.207c0.189,0,0.368,0.073,0.503,0.207
				l0.515,0.515c0.134,0.135,0.208,0.314,0.208,0.503c0,0.19-0.074,0.368-0.208,0.503l-1.386,1.385l1.313,1.313
				c0.277,0.279,0.277,0.73,0,1.006l-0.481,0.482c-0.135,0.135-0.313,0.208-0.503,0.208s-0.368-0.073-0.502-0.207l-1.313-1.314
				l-1.402,1.402C165.219,279.631,165.04,279.705,164.851,279.705z"/>
			<path style="fill:#3C2415;" d="M168.611,273.73c0.121,0,0.243,0.047,0.335,0.139l0.515,0.515c0.185,0.186,0.185,0.485,0,0.67
				l-1.554,1.553l1.481,1.48c0.186,0.186,0.186,0.485,0,0.67l-0.482,0.483c-0.092,0.092-0.214,0.139-0.335,0.139
				c-0.121,0-0.243-0.047-0.335-0.139l-1.481-1.48l-1.569,1.569c-0.093,0.093-0.214,0.14-0.335,0.14
				c-0.121,0-0.242-0.047-0.335-0.14l-0.515-0.515c-0.185-0.185-0.185-0.484,0-0.67l1.569-1.569l-1.481-1.482
				c-0.185-0.185-0.185-0.484,0-0.67l0.482-0.481c0.093-0.093,0.214-0.139,0.335-0.139c0.121,0,0.242,0.046,0.335,0.139l1.481,1.48
				l1.554-1.553C168.368,273.777,168.49,273.73,168.611,273.73 M168.611,273.257c-0.253,0-0.491,0.099-0.669,0.276l-1.219,1.219
				l-1.146-1.145c-0.179-0.18-0.417-0.278-0.67-0.278c-0.253,0-0.491,0.1-0.671,0.278l-0.481,0.481c-0.37,0.37-0.37,0.972,0,1.34
				l1.146,1.147l-1.234,1.234c-0.37,0.37-0.369,0.972,0,1.341l0.514,0.514c0.179,0.179,0.417,0.278,0.67,0.278s0.491-0.1,0.67-0.278
				l1.234-1.234l1.146,1.146c0.179,0.179,0.417,0.277,0.67,0.277s0.491-0.099,0.669-0.276l0.483-0.484
				c0.178-0.178,0.277-0.416,0.277-0.669s-0.098-0.49-0.277-0.67l-1.146-1.146l1.218-1.218c0.369-0.368,0.37-0.97,0.001-1.34
				l-0.515-0.515C169.102,273.355,168.864,273.257,168.611,273.257L168.611,273.257z"/>
		</g>
	</g>
	<g>
		<path style="fill:#F076A7;" d="M302.164,160.911c-0.19,0-0.368-0.074-0.503-0.208l-0.514-0.515c-0.277-0.277-0.277-0.728,0-1.005
			l1.402-1.402l-1.314-1.314c-0.277-0.277-0.277-0.728,0-1.005l0.482-0.482c0.134-0.135,0.312-0.21,0.502-0.21
			c0.19,0,0.368,0.075,0.503,0.21l1.313,1.314l1.386-1.386c0.134-0.134,0.313-0.208,0.502-0.208c0.19,0,0.368,0.074,0.502,0.208
			l0.515,0.514c0.134,0.134,0.208,0.313,0.208,0.502c0,0.19-0.074,0.368-0.208,0.503l-1.386,1.386l1.313,1.313
			c0.134,0.133,0.209,0.312,0.209,0.501c0,0.19-0.074,0.369-0.209,0.504l-0.482,0.483c-0.134,0.134-0.313,0.208-0.502,0.208
			c-0.19,0-0.368-0.074-0.503-0.208l-1.314-1.314l-1.402,1.402C302.532,160.837,302.354,160.911,302.164,160.911z"/>
		<path style="fill:#3C2415;" d="M305.925,154.938c0.121,0,0.242,0.046,0.335,0.139l0.515,0.514c0.185,0.185,0.185,0.485,0,0.67
			l-1.554,1.554l1.481,1.481c0.186,0.184,0.186,0.484,0,0.67l-0.482,0.483c-0.093,0.092-0.214,0.139-0.335,0.139
			s-0.242-0.046-0.335-0.139l-1.481-1.481l-1.57,1.569c-0.093,0.092-0.214,0.139-0.335,0.139s-0.242-0.046-0.335-0.139l-0.514-0.515
			c-0.185-0.185-0.185-0.485,0-0.67l1.569-1.569l-1.481-1.481c-0.185-0.185-0.185-0.485,0-0.67l0.482-0.482
			c0.092-0.093,0.213-0.14,0.335-0.14c0.121,0,0.242,0.046,0.335,0.14l1.481,1.481l1.554-1.554
			C305.683,154.983,305.804,154.938,305.925,154.938 M305.925,154.464c-0.253,0-0.491,0.098-0.67,0.277l-1.219,1.219l-1.146-1.146
			c-0.178-0.18-0.417-0.279-0.67-0.279c-0.254,0-0.492,0.1-0.671,0.28l-0.481,0.48c-0.37,0.37-0.37,0.971,0,1.34l1.146,1.146
			l-1.234,1.234c-0.37,0.37-0.37,0.97,0,1.34l0.514,0.515c0.179,0.179,0.417,0.278,0.67,0.278c0.253,0,0.491-0.099,0.67-0.278
			l1.235-1.234l1.146,1.146c0.179,0.179,0.417,0.278,0.67,0.278c0.253,0,0.491-0.099,0.67-0.278l0.482-0.483
			c0.179-0.179,0.278-0.417,0.277-0.671c0-0.253-0.099-0.491-0.279-0.67l-1.145-1.145l1.219-1.219c0.37-0.37,0.37-0.97,0-1.34
			l-0.515-0.514C306.416,154.562,306.178,154.464,305.925,154.464L305.925,154.464z"/>
	</g>
	<g>
		<g>
			<path style="fill:#F076A7;" d="M141.251,305.165c-0.189,0-0.368-0.073-0.503-0.207l-0.515-0.515
				c-0.134-0.135-0.208-0.313-0.208-0.503c0-0.19,0.074-0.368,0.208-0.502l1.402-1.402l-1.314-1.315
				c-0.276-0.276-0.276-0.728-0.001-1.004l0.483-0.482c0.134-0.134,0.313-0.208,0.502-0.208c0.189,0,0.368,0.074,0.503,0.208
				l1.314,1.313l1.386-1.386c0.134-0.134,0.313-0.207,0.502-0.207c0.189,0,0.368,0.073,0.502,0.207l0.515,0.515
				c0.134,0.135,0.208,0.314,0.208,0.503c0,0.19-0.074,0.368-0.208,0.503l-1.386,1.385l1.314,1.313
				c0.135,0.136,0.208,0.315,0.208,0.504c0,0.19-0.074,0.368-0.209,0.502l-0.481,0.482c-0.135,0.135-0.313,0.208-0.503,0.208
				c-0.189,0-0.368-0.073-0.503-0.207l-1.313-1.314l-1.402,1.402C141.62,305.092,141.441,305.165,141.251,305.165z"/>
			<path style="fill:#3C2415;" d="M145.012,299.191c0.121,0,0.242,0.047,0.335,0.139l0.515,0.515c0.185,0.186,0.185,0.485,0,0.67
				l-1.554,1.553l1.481,1.48c0.186,0.187,0.186,0.485,0,0.67l-0.482,0.483c-0.093,0.092-0.214,0.139-0.335,0.139
				c-0.121,0-0.242-0.047-0.335-0.139l-1.481-1.48l-1.569,1.569c-0.092,0.093-0.214,0.139-0.335,0.139s-0.243-0.046-0.335-0.139
				l-0.515-0.515c-0.185-0.185-0.185-0.484,0-0.67l1.569-1.569l-1.481-1.482c-0.185-0.186-0.185-0.484,0-0.67l0.482-0.481
				c0.092-0.093,0.213-0.139,0.335-0.139c0.121,0,0.242,0.046,0.335,0.139l1.481,1.48l1.553-1.553
				C144.77,299.238,144.891,299.191,145.012,299.191 M145.012,298.718c-0.253,0-0.491,0.099-0.669,0.276l-1.219,1.219l-1.146-1.146
				c-0.179-0.18-0.417-0.278-0.67-0.278c-0.253,0-0.491,0.1-0.67,0.278l-0.481,0.482c-0.369,0.369-0.369,0.971-0.001,1.34
				l1.147,1.147l-1.234,1.234c-0.37,0.37-0.369,0.972,0.001,1.341l0.514,0.514c0.179,0.179,0.417,0.277,0.67,0.277
				c0.253,0,0.491-0.099,0.669-0.277l1.235-1.234l1.146,1.146c0.179,0.179,0.417,0.277,0.67,0.277s0.491-0.099,0.669-0.276
				l0.483-0.484c0.179-0.178,0.277-0.416,0.277-0.669c0-0.253-0.098-0.49-0.277-0.67l-1.146-1.147l1.218-1.218
				c0.369-0.368,0.37-0.97,0.001-1.34l-0.515-0.515C145.502,298.816,145.265,298.718,145.012,298.718L145.012,298.718z"/>
		</g>
	</g>
	<g>
		<path style="fill:#F076A7;" d="M159.571,345.568c-0.19,0-0.369-0.074-0.503-0.209l-0.514-0.514
			c-0.134-0.135-0.208-0.313-0.208-0.503c0-0.189,0.074-0.368,0.208-0.502l1.402-1.402l-1.314-1.315
			c-0.134-0.134-0.208-0.311-0.208-0.502c0-0.189,0.074-0.368,0.208-0.502l0.483-0.482c0.134-0.134,0.313-0.208,0.502-0.208
			c0.189,0,0.368,0.074,0.503,0.208l1.313,1.314l1.386-1.385c0.134-0.134,0.313-0.208,0.502-0.208c0.19,0,0.369,0.074,0.503,0.209
			l0.514,0.513c0.134,0.135,0.208,0.313,0.208,0.503c0,0.19-0.074,0.368-0.208,0.503l-1.386,1.385l1.314,1.313
			c0.277,0.279,0.277,0.73-0.001,1.006l-0.482,0.483c-0.134,0.135-0.313,0.208-0.502,0.208c-0.189,0-0.368-0.073-0.502-0.207
			l-1.313-1.313l-1.402,1.402C159.94,345.494,159.761,345.568,159.571,345.568z"/>
		<path style="fill:#3C2415;" d="M163.332,339.594c0.121,0,0.242,0.047,0.335,0.14l0.515,0.514c0.185,0.186,0.185,0.485,0,0.67
			l-1.554,1.553l1.481,1.48c0.186,0.186,0.186,0.485,0,0.67l-0.482,0.483c-0.092,0.092-0.214,0.139-0.335,0.139
			c-0.121,0-0.243-0.047-0.335-0.139l-1.481-1.48l-1.569,1.569c-0.093,0.093-0.214,0.14-0.335,0.14c-0.121,0-0.242-0.047-0.335-0.14
			l-0.515-0.515c-0.185-0.185-0.185-0.484,0-0.67l1.569-1.569l-1.481-1.482c-0.185-0.185-0.185-0.484,0-0.67l0.483-0.482
			c0.092-0.093,0.213-0.139,0.335-0.139c0.121,0,0.242,0.046,0.335,0.139l1.481,1.48l1.554-1.552
			C163.09,339.641,163.211,339.594,163.332,339.594 M163.332,339.12c-0.253,0-0.491,0.1-0.67,0.278l-1.218,1.217l-1.146-1.146
			c-0.179-0.18-0.417-0.278-0.67-0.278c-0.253,0-0.491,0.1-0.67,0.278l-0.482,0.48c-0.18,0.181-0.278,0.419-0.278,0.671
			c0,0.254,0.099,0.491,0.278,0.67l1.146,1.147l-1.234,1.234c-0.179,0.18-0.278,0.417-0.278,0.67c0,0.254,0.099,0.491,0.278,0.671
			l0.514,0.514c0.179,0.179,0.417,0.278,0.67,0.278c0.253,0,0.491-0.1,0.67-0.278l1.234-1.234l1.146,1.145
			c0.179,0.179,0.417,0.277,0.67,0.277c0.253,0,0.491-0.099,0.669-0.276l0.483-0.484c0.369-0.367,0.369-0.968,0.001-1.339
			l-1.146-1.147l1.218-1.218c0.179-0.179,0.278-0.416,0.278-0.67c0-0.252-0.099-0.49-0.277-0.67l-0.516-0.514
			C163.823,339.22,163.585,339.12,163.332,339.12L163.332,339.12z"/>
	</g>
	<g>
		<g>
			<path style="fill:#FFFFFF;" d="M330.289,112.142c-1.411,0-2.558-1.148-2.558-2.559c0-1.411,1.147-2.558,2.558-2.558
				c1.411,0,2.559,1.147,2.559,2.558C332.848,110.994,331.7,112.142,330.289,112.142z"/>
			<path style="fill:#3C2415;" d="M330.289,107.262c1.28,0,2.322,1.041,2.322,2.321c0,1.28-1.041,2.322-2.322,2.322
				c-1.28,0-2.321-1.042-2.321-2.322C327.968,108.303,329.009,107.262,330.289,107.262 M330.289,106.788
				c-1.541,0-2.795,1.254-2.795,2.795c0,1.541,1.254,2.795,2.795,2.795c1.542,0,2.795-1.254,2.795-2.795
				C333.085,108.042,331.831,106.788,330.289,106.788L330.289,106.788z"/>
		</g>
		
			<path style="fill:#F076A7;stroke:#3C2415;stroke-width:0.4738;stroke-linecap:round;stroke-linejoin:round;stroke-miterlimit:10;" d="
			M330.289,107.688c1.047,0,1.896,0.849,1.896,1.895c0,1.047-0.849,1.896-1.896,1.896c-1.046,0-1.895-0.849-1.895-1.896
			C328.394,108.537,329.243,107.688,330.289,107.688 M330.289,106.835c-1.515,0-2.748,1.232-2.748,2.748
			c0,1.516,1.232,2.748,2.748,2.748c1.516,0,2.748-1.232,2.748-2.748C333.037,108.068,331.805,106.835,330.289,106.835
			L330.289,106.835z"/>
	</g>
	<g>
		<g>
			<path style="fill:#FFFFFF;" d="M128.498,357.863c-1.411,0-2.559-1.148-2.559-2.559c0-1.41,1.148-2.558,2.559-2.558
				c1.411,0,2.559,1.147,2.559,2.558C131.057,356.715,129.909,357.863,128.498,357.863z"/>
			<path style="fill:#3C2415;" d="M128.498,352.983c1.28,0,2.322,1.041,2.322,2.32c0,1.28-1.042,2.322-2.322,2.322
				c-1.28,0-2.322-1.042-2.322-2.322C126.177,354.024,127.218,352.983,128.498,352.983 M128.498,352.51
				c-1.541,0-2.795,1.253-2.795,2.794c0,1.542,1.254,2.796,2.795,2.796c1.542,0,2.795-1.254,2.795-2.796
				C131.294,353.763,130.04,352.51,128.498,352.51L128.498,352.51z"/>
		</g>
		
			<path style="fill:#F076A7;stroke:#3C2415;stroke-width:0.4738;stroke-linecap:round;stroke-linejoin:round;stroke-miterlimit:10;" d="
			M128.498,353.408c1.047,0,1.895,0.85,1.895,1.896c0,1.047-0.848,1.895-1.895,1.895c-1.046,0-1.895-0.848-1.895-1.895
			C126.604,354.258,127.452,353.408,128.498,353.408 M128.498,352.557c-1.515,0-2.747,1.232-2.747,2.747
			c0,1.516,1.232,2.748,2.747,2.748c1.516,0,2.748-1.232,2.748-2.748C131.247,353.789,130.014,352.557,128.498,352.557
			L128.498,352.557z"/>
	</g>
	<g>
		<g>
			<path style="fill:#FFFFFF;" d="M109.854,279.157c-1.411,0-2.559-1.147-2.559-2.558c0-1.412,1.148-2.561,2.559-2.561
				c1.411,0,2.559,1.148,2.559,2.561C112.412,278.01,111.264,279.157,109.854,279.157z"/>
			<path style="fill:#3C2415;" d="M109.854,274.276c1.28,0,2.322,1.042,2.322,2.323c0,1.279-1.042,2.32-2.322,2.32
				c-1.28,0-2.322-1.041-2.322-2.32C107.532,275.318,108.573,274.276,109.854,274.276 M109.854,273.803
				c-1.542,0-2.795,1.255-2.795,2.797c0,1.541,1.254,2.794,2.795,2.794c1.541,0,2.795-1.253,2.795-2.794
				C112.649,275.058,111.395,273.803,109.854,273.803L109.854,273.803z"/>
		</g>
		<g>
			
				<path style="fill:#7BBD95;stroke:#3C2415;stroke-width:0.4738;stroke-linecap:round;stroke-linejoin:round;stroke-miterlimit:10;" d="
				M109.854,274.704c1.046,0,1.895,0.848,1.895,1.896c0,1.045-0.849,1.895-1.895,1.895c-1.047,0-1.895-0.85-1.895-1.895
				C107.958,275.552,108.807,274.704,109.854,274.704 M109.854,273.85c-1.515,0-2.748,1.233-2.748,2.749
				c0,1.515,1.233,2.747,2.748,2.747c1.515,0,2.748-1.232,2.748-2.747C112.601,275.084,111.369,273.85,109.854,273.85
				L109.854,273.85z"/>
		</g>
	</g>
	<g>
		<g>
			<path style="fill:#FFFFFF;" d="M307.147,199.678c-1.411,0-2.559-1.148-2.559-2.559s1.148-2.559,2.559-2.559
				c1.411,0,2.558,1.148,2.558,2.559S308.558,199.678,307.147,199.678z"/>
			<path style="fill:#3C2415;" d="M307.147,194.797c1.28,0,2.321,1.042,2.321,2.322c0,1.28-1.041,2.322-2.321,2.322
				c-1.28,0-2.322-1.042-2.322-2.322C304.826,195.839,305.867,194.797,307.147,194.797 M307.147,194.324
				c-1.542,0-2.795,1.254-2.795,2.795c0,1.542,1.254,2.795,2.795,2.795c1.541,0,2.795-1.254,2.795-2.795
				C309.942,195.578,308.689,194.324,307.147,194.324L307.147,194.324z"/>
		</g>
		<g>
			
				<path style="fill:#F26B69;stroke:#3C2415;stroke-width:0.4738;stroke-linecap:round;stroke-linejoin:round;stroke-miterlimit:10;" d="
				M307.147,195.224c1.046,0,1.895,0.848,1.895,1.895c0,1.046-0.849,1.895-1.895,1.895c-1.047,0-1.895-0.849-1.895-1.895
				C305.252,196.072,306.101,195.224,307.147,195.224 M307.147,194.371c-1.516,0-2.748,1.233-2.748,2.748
				c0,1.515,1.232,2.748,2.748,2.748c1.515,0,2.747-1.232,2.747-2.748C309.895,195.604,308.663,194.371,307.147,194.371
				L307.147,194.371z"/>
		</g>
	</g>
	<g>
		<g>
			<path style="fill:#FFFFFF;" d="M107.105,66.135c-1.411,0-2.558-1.147-2.558-2.558c0-1.411,1.147-2.559,2.558-2.559
				c1.411,0,2.559,1.148,2.559,2.559C109.664,64.988,108.516,66.135,107.105,66.135z"/>
			<path style="fill:#3C2415;" d="M107.105,61.255c1.28,0,2.322,1.042,2.322,2.322c0,1.28-1.042,2.321-2.322,2.321
				c-1.28,0-2.321-1.041-2.321-2.321C104.784,62.297,105.825,61.255,107.105,61.255 M107.105,60.782
				c-1.541,0-2.795,1.254-2.795,2.795c0,1.541,1.254,2.795,2.795,2.795c1.542,0,2.795-1.254,2.795-2.795
				C109.901,62.036,108.647,60.782,107.105,60.782L107.105,60.782z"/>
		</g>
		<g>
			
				<path style="fill:#F26B69;stroke:#3C2415;stroke-width:0.4738;stroke-linecap:round;stroke-linejoin:round;stroke-miterlimit:10;" d="
				M107.105,61.682c1.047,0,1.896,0.849,1.896,1.896c0,1.046-0.849,1.895-1.896,1.895c-1.046,0-1.895-0.849-1.895-1.895
				C105.21,62.53,106.059,61.682,107.105,61.682 M107.105,60.829c-1.515,0-2.748,1.232-2.748,2.748c0,1.515,1.232,2.748,2.748,2.748
				c1.516,0,2.748-1.232,2.748-2.748C109.854,62.062,108.621,60.829,107.105,60.829L107.105,60.829z"/>
		</g>
	</g>
	<g>
		<g>
			<circle style="fill:#FFFFFF;" cx="192.715" cy="51.991" r="2.559"/>
			<path style="fill:#3C2415;" d="M192.715,49.669c1.28,0,2.322,1.042,2.322,2.322s-1.042,2.322-2.322,2.322
				c-1.28,0-2.322-1.042-2.322-2.322S191.435,49.669,192.715,49.669 M192.715,49.195c-1.542,0-2.795,1.254-2.795,2.795
				s1.254,2.795,2.795,2.795c1.541,0,2.795-1.254,2.795-2.795S194.257,49.195,192.715,49.195L192.715,49.195z"/>
		</g>
		<g>
			
				<path style="fill:#F5DE7F;stroke:#3C2415;stroke-width:0.4738;stroke-linecap:round;stroke-linejoin:round;stroke-miterlimit:10;" d="
				M192.715,50.096c1.046,0,1.895,0.849,1.895,1.895c0,1.046-0.849,1.895-1.895,1.895c-1.046,0-1.895-0.849-1.895-1.895
				C190.82,50.944,191.669,50.096,192.715,50.096 M192.715,49.243c-1.515,0-2.748,1.233-2.748,2.748
				c0,1.515,1.232,2.748,2.748,2.748c1.515,0,2.748-1.232,2.748-2.748C195.463,50.475,194.23,49.243,192.715,49.243L192.715,49.243z
				"/>
		</g>
	</g>
	
		<line style="fill:none;stroke:#3C2415;stroke-width:1.8951;stroke-linecap:round;stroke-linejoin:round;stroke-miterlimit:10;" x1="72.046" y1="77.198" x2="76.496" y2="77.198"/>
	
		<line style="fill:none;stroke:#3C2415;stroke-width:1.8951;stroke-linecap:round;stroke-linejoin:round;stroke-miterlimit:10;" x1="109.427" y1="43.299" x2="122.272" y2="43.299"/>
	
		<line style="fill:none;stroke:#3C2415;stroke-width:1.8951;stroke-linecap:round;stroke-linejoin:round;stroke-miterlimit:10;" x1="217.975" y1="92.099" x2="231.36" y2="92.099"/>
	
		<line style="fill:none;stroke:#3C2415;stroke-width:1.8951;stroke-linecap:round;stroke-linejoin:round;stroke-miterlimit:10;" x1="231.36" y1="46.616" x2="247.355" y2="46.616"/>
	
		<line style="fill:none;stroke:#3C2415;stroke-width:1.8951;stroke-linecap:round;stroke-linejoin:round;stroke-miterlimit:10;" x1="297.096" y1="80.067" x2="307.147" y2="80.067"/>
	
		<line style="fill:none;stroke:#3C2415;stroke-width:1.8951;stroke-linecap:round;stroke-linejoin:round;stroke-miterlimit:10;" x1="294.534" y1="132.877" x2="304.044" y2="132.877"/>
	
		<line style="fill:none;stroke:#3C2415;stroke-width:1.8951;stroke-linecap:round;stroke-linejoin:round;stroke-miterlimit:10;" x1="207.646" y1="216.296" x2="214.659" y2="216.296"/>
	
		<line style="fill:none;stroke:#3C2415;stroke-width:1.8951;stroke-linecap:round;stroke-linejoin:round;stroke-miterlimit:10;" x1="130.82" y1="216.296" x2="136.485" y2="216.296"/>
	
		<line style="fill:none;stroke:#3C2415;stroke-width:1.8951;stroke-linecap:round;stroke-linejoin:round;stroke-miterlimit:10;" x1="133.653" y1="270.241" x2="140.263" y2="270.241"/>
	
		<line style="fill:none;stroke:#3C2415;stroke-width:1.8951;stroke-linecap:round;stroke-linejoin:round;stroke-miterlimit:10;" x1="58.786" y1="270.241" x2="72.046" y2="270.241"/>
	
		<line style="fill:none;stroke:#3C2415;stroke-width:1.8951;stroke-linecap:round;stroke-linejoin:round;stroke-miterlimit:10;" x1="79.365" y1="213.427" x2="82.233" y2="213.427"/>
	
		<line style="fill:none;stroke:#3C2415;stroke-width:1.8951;stroke-linecap:round;stroke-linejoin:round;stroke-miterlimit:10;" x1="78.901" y1="339.593" x2="82.233" y2="339.593"/>
	
		<line style="fill:none;stroke:#3C2415;stroke-width:1.8951;stroke-linecap:round;stroke-linejoin:round;stroke-miterlimit:10;" x1="125.751" y1="311.931" x2="130.82" y2="311.931"/>
	
		<line style="fill:none;stroke:#3C2415;stroke-width:1.8951;stroke-linecap:round;stroke-linejoin:round;stroke-miterlimit:10;" x1="150.013" y1="357.626" x2="155.436" y2="357.626"/>
	
		<line style="fill:none;stroke:#3C2415;stroke-width:1.8951;stroke-linecap:round;stroke-linejoin:round;stroke-miterlimit:10;" x1="172.019" y1="308.141" x2="180.61" y2="308.141"/>
	
		<line style="fill:none;stroke:#3C2415;stroke-width:1.8951;stroke-linecap:round;stroke-linejoin:round;stroke-miterlimit:10;" x1="302.121" y1="213.427" x2="309.895" y2="213.427"/>
	
		<line style="fill:none;stroke:#3C2415;stroke-width:1.8951;stroke-linecap:round;stroke-linejoin:round;stroke-miterlimit:10;" x1="332.611" y1="163.689" x2="342.789" y2="163.689"/>
	
		<line style="fill:none;stroke:#3C2415;stroke-width:1.8951;stroke-linecap:round;stroke-linejoin:round;stroke-miterlimit:10;" x1="342.789" y1="210.559" x2="353.321" y2="210.559"/>
	
		<line style="fill:none;stroke:#3C2415;stroke-width:1.8951;stroke-linecap:round;stroke-linejoin:round;stroke-miterlimit:10;" x1="270.079" y1="185.193" x2="275.262" y2="185.193"/>
	
		<line style="fill:none;stroke:#3C2415;stroke-width:1.8951;stroke-linecap:round;stroke-linejoin:round;stroke-miterlimit:10;" x1="325.304" y1="49.243" x2="337.052" y2="49.243"/>
	
		<line style="fill:none;stroke:#3C2415;stroke-width:1.8951;stroke-linecap:round;stroke-linejoin:round;stroke-miterlimit:10;" x1="355.844" y1="95.889" x2="361.529" y2="95.889"/>
	
		<line style="fill:none;stroke:#3C2415;stroke-width:1.8951;stroke-linecap:round;stroke-linejoin:round;stroke-miterlimit:10;" x1="366.267" y1="139.779" x2="373.374" y2="139.779"/>
	
		<line style="fill:none;stroke:#3C2415;stroke-width:1.8951;stroke-linecap:round;stroke-linejoin:round;stroke-miterlimit:10;" x1="43.625" y1="132.877" x2="50.319" y2="132.877"/>
	
		<line style="fill:none;stroke:#3C2415;stroke-width:1.8951;stroke-linecap:round;stroke-linejoin:round;stroke-miterlimit:10;" x1="46.972" y1="229.108" x2="55.47" y2="229.108"/>
	
		<line style="fill:none;stroke:#3C2415;stroke-width:1.8951;stroke-linecap:round;stroke-linejoin:round;stroke-miterlimit:10;" x1="55.47" y1="360.038" x2="63.524" y2="360.038"/>
	
		<line style="fill:none;stroke:#3C2415;stroke-width:1.8951;stroke-linecap:round;stroke-linejoin:round;stroke-miterlimit:10;" x1="109.427" y1="375.668" x2="115.85" y2="375.668"/>
	
		<line style="fill:none;stroke:#3C2415;stroke-width:1.8951;stroke-linecap:round;stroke-linejoin:round;stroke-miterlimit:10;" x1="55.47" y1="34.771" x2="65.416" y2="34.771"/>
	
		<line style="fill:none;stroke:#3C2415;stroke-width:1.8951;stroke-linecap:round;stroke-linejoin:round;stroke-miterlimit:10;" x1="45.52" y1="84.992" x2="50.319" y2="84.992"/>
	
		<line style="fill:none;stroke:#3C2415;stroke-width:1.8951;stroke-linecap:round;stroke-linejoin:round;stroke-miterlimit:10;" x1="164.409" y1="49.669" x2="167.986" y2="49.669"/>
	
		<line style="fill:none;stroke:#3C2415;stroke-width:1.8951;stroke-linecap:round;stroke-linejoin:round;stroke-miterlimit:10;" x1="203.288" y1="31.929" x2="207.646" y2="31.929"/>
	
		<line style="fill:none;stroke:#3C2415;stroke-width:1.8951;stroke-linecap:round;stroke-linejoin:round;stroke-miterlimit:10;" x1="254.966" y1="95.889" x2="260.141" y2="95.889"/>
	
		<line style="fill:none;stroke:#3C2415;stroke-width:1.8951;stroke-linecap:round;stroke-linejoin:round;stroke-miterlimit:10;" x1="302.121" y1="37.14" x2="314.152" y2="37.14"/>
	
		<line style="fill:none;stroke:#3C2415;stroke-width:1.8951;stroke-linecap:round;stroke-linejoin:round;stroke-miterlimit:10;" x1="361.529" y1="273.73" x2="364.372" y2="273.73"/>
	
		<line style="fill:none;stroke:#3C2415;stroke-width:1.8951;stroke-linecap:round;stroke-linejoin:round;stroke-miterlimit:10;" x1="358.686" y1="342.462" x2="364.372" y2="342.462"/>
	
		<line style="fill:none;stroke:#3C2415;stroke-width:1.8951;stroke-linecap:round;stroke-linejoin:round;stroke-miterlimit:10;" x1="373.374" y1="314.3" x2="379.533" y2="314.3"/>
	
		<line style="fill:none;stroke:#3C2415;stroke-width:1.8951;stroke-linecap:round;stroke-linejoin:round;stroke-miterlimit:10;" x1="362.951" y1="231.977" x2="369.82" y2="231.977"/>
	
		<line style="fill:none;stroke:#3C2415;stroke-width:1.8951;stroke-linecap:round;stroke-linejoin:round;stroke-miterlimit:10;" x1="164.409" y1="381.576" x2="172.019" y2="381.576"/>
</g>
</svg>
