<?xml version="1.0" encoding="UTF-8"?>
<svg xmlns="http://www.w3.org/2000/svg" viewBox="0 0 2174.99 2068.98">
  <defs>
    <style>
      .cls-1 {
        fill: #75c2ec;
      }

      .cls-1, .cls-2, .cls-3, .cls-4, .cls-5, .cls-6, .cls-7, .cls-8, .cls-9 {
        stroke-linecap: round;
        stroke-linejoin: round;
      }

      .cls-1, .cls-2, .cls-4, .cls-5, .cls-6 {
        stroke: #48413f;
        stroke-width: 7.48px;
      }

      .cls-2, .cls-10 {
        fill: #fff;
      }

      .cls-3, .cls-4, .cls-5, .cls-6 {
        fill: none;
      }

      .cls-3, .cls-7, .cls-8, .cls-9 {
        stroke: #4a403e;
        stroke-width: 14.95px;
      }

      .cls-4 {
        stroke-dasharray: 11.43 29.19;
      }

      .cls-5 {
        stroke-dasharray: 14.7 22.05;
      }

      .cls-11 {
        isolation: isolate;
      }

      .cls-7 {
        fill: #f7ce6d;
      }

      .cls-12 {
        fill: #bcdfe9;
      }

      .cls-13, .cls-14 {
        mix-blend-mode: multiply;
      }

      .cls-15 {
        fill: #48413f;
      }

      .cls-10 {
        opacity: .32;
      }

      .cls-8 {
        fill: #59b5c5;
      }

      .cls-14, .cls-16 {
        fill: #94d9f8;
      }

      .cls-9 {
        fill: #f1f2f2;
      }
    </style>
  </defs>
  <g class="cls-11">
    <g id="Layer_2" data-name="Layer 2">
      <g id="Capa_1" data-name="Capa 1">
        <rect class="cls-14" width="2174.99" height="2068.98"/>
        <g>
          <g>
            <circle class="cls-5" cx="1116.57" cy="1010.61" r="809.47" transform="translate(-387.57 1085.54) rotate(-45)"/>
            <circle class="cls-4" cx="1116.57" cy="1010.61" r="629.64" transform="translate(-387.57 1085.54) rotate(-45)"/>
          </g>
          <g>
            <path class="cls-1" d="M367.58,550.9c-9.08,0-16.51-2.52-16.51-11.72v173.5h146.7v-162.22c-1.18.27-2.4.43-3.66.43h-126.53Z"/>
            <g class="cls-13">
              <path class="cls-16" d="M465.42,668.29c-21.1-2.43-41.53-9.43-58.5-22.43-28.85-22.11-46.5-59.2-47.21-95.82-5.14-1.36-8.64-4.53-8.64-10.85v173.5h146.7v-43.49c-10.84.61-21.75.3-32.35-.92Z"/>
            </g>
            <path class="cls-2" d="M484.91,539.86v-.67c0-5.23,5.52-9.64,12.86-10.76-1.18-.18-2.4-.28-3.66-.28h-126.53c-9.08,0-16.51,4.97-16.51,11.04v.67c0,6.07,7.43,11.04,16.51,11.04h126.53c1.26,0,2.48-.1,3.66-.29-7.34-1.12-12.86-5.53-12.86-10.76Z"/>
            <rect class="cls-15" x="369.03" y="535.03" width="109.12" height="2.77"/>
            <rect class="cls-15" x="369.03" y="541.94" width="109.12" height="2.77"/>
          </g>
          <g>
            <path class="cls-2" d="M1937.92,1104.22c0-30.49-24.72-55.2-55.21-55.2-2.06,0-4.1.12-6.09.34-7.55-27.19-32.48-47.15-62.08-47.15s-54.47,19.92-62.05,47.07c-1.77-.17-3.55-.27-5.36-.27-30.49,0-55.21,24.71-55.21,55.2s23.66,54.1,53.22,55.15v.05h143.62v-.34c27.64-3.02,49.15-26.42,49.15-54.86Z"/>
            <path class="cls-2" d="M1876.63,1049.37s-26.33,5.54-32.21,42.19"/>
            <path class="cls-2" d="M1752.5,1049.29s10.47,2,17.26,17.38"/>
          </g>
          <g>
            <path class="cls-2" d="M787.9,495.09c.06-.42.11-.84.11-1.28v-35.99c0-5.06-4.15-9.2-9.21-9.2s-9.2,4.14-9.2,9.2v-4.67c0-5.06-4.14-9.2-9.2-9.2s-9.21,4.14-9.21,9.2v-5.09c0-5.06-4.14-9.2-9.2-9.2-3.29,0-6.18,1.76-7.82,4.38l-.17-28.84s.86-22.5-9.35-22.5c-12.31,0-10.61,22.29-10.61,22.29l-.57,59.73s-13.71-22.49-18.53-28.65c-5.23-6.68-15.36-6.8-14.95,7.74.18,6.71,7.47,14.67,18.28,32.96,24.14,40.84,27.09,68.2,27.09,68.2l-1.7,5.94,59.97-1.06s-1.69-11.89,2.55-32.27c1.94-9.3,2.1-21.34,1.71-31.68Z"/>
            <line class="cls-2" x1="734.18" y1="443.23" x2="734.18" y2="472.84"/>
            <line class="cls-2" x1="751.27" y1="448.33" x2="751.27" y2="477.94"/>
            <line class="cls-2" x1="769.63" y1="453" x2="769.63" y2="482.61"/>
            <rect class="cls-1" x="714.33" y="553.1" width="73.75" height="26.96"/>
          </g>
          <g>
            <g>
              <path class="cls-1" d="M1583.56,342.63v108.45c0,5.47,35.22,9.9,78.66,9.9s78.66-4.43,78.66-9.9v-108.45h-157.31Z"/>
              <path class="cls-14" d="M1723.45,425.88c-18.5,1.93-37.25.78-55.47-2.9-15.42-3.11-30.34-7.66-42.99-17.33-19.93-15.23-30.15-39.14-25.14-63.02h-16.29v108.45c0,5.47,35.22,9.9,78.66,9.9s78.66-4.43,78.66-9.9v-27.97c-5.74,1.21-11.56,2.14-17.42,2.76Z"/>
              <polygon class="cls-1" points="1789.24 342 1662.22 387.11 1535.2 342 1662.22 298.15 1789.24 342"/>
              <rect class="cls-15" x="1533.65" y="341.34" width="4.47" height="91.54"/>
              <path class="cls-15" d="M1540.88,431.91c0,2.76-2.24,5-5,5s-4.99-2.24-4.99-5,2.24-5,4.99-5,5,2.24,5,5Z"/>
              <path class="cls-15" d="M1530.57,440.65c-.2,3.02.39,6.04.4,9.06.02,4.44-1.2,8.78-2.39,13.05,4.09-.85,7.81,3.6,11.93,2.96,2.08-.32,3.8-1.97,4.68-3.89.89-1.92,1.07-4.09,1.06-6.2-.04-7.59-2.37-15.16-6.63-21.45-4.62-6.85-8.73,1.61-9.05,6.47Z"/>
            </g>
            <path class="cls-15" d="M1670.55,341.64c0-.11.02-.21.02-.32,0-4.61-3.74-8.35-8.35-8.35s-8.34,3.74-8.34,8.35c0,.11,0,.21.02.32,0,0,2.32,1.56,8.32,1.56s8.33-1.56,8.33-1.56Z"/>
          </g>
          <g>
            <path class="cls-2" d="M577.37,913.12c-4.14-6.04-12.54-7.08-18.02-2.49l-37.04,31.71c-1.74,1.42-3.97,2.11-6.22,1.91h0c5.59-.81,9.92-5.64,9.92-11.44v-.82c0-6.36-5.21-11.57-11.57-11.57h-55.95c-5.16.89-12.16,2.39-24.77,6.99l-38.23,12.25v44.32h110.93l.23-.36c3.16.31,6.44-.6,9.06-2.79l59.13-51.16c4.88-4.1,6.14-11.29,2.54-16.55Z"/>
            <line class="cls-2" x1="516.95" y1="944.37" x2="461.87" y2="944.37"/>
            <rect class="cls-1" x="376.88" y="921.93" width="29.54" height="73.18"/>
          </g>
          <g>
            <path class="cls-1" d="M1105.22,325.95h225.22c5.87,0,10.64,4.77,10.64,10.64v168.43c0,5.87-4.77,10.64-10.64,10.64h-225.22c-5.87,0-10.64-4.77-10.64-10.64v-168.43c0-5.87,4.76-10.63,10.63-10.63Z"/>
            <path class="cls-2" d="M1298.55,496.44c-2.18-10.85,2.63-22.35,12.75-28.19,4.22-2.44,8.83-3.58,13.38-3.55v-87.97c-11.16,2.7-23.2-2.09-29.22-12.53-3.46-5.99-4.31-12.77-2.92-19.03h-151.62c2.45,11.01-2.36,22.8-12.65,28.74-5.43,3.14-11.52,4.13-17.28,3.25v89.55c12.13-5.03,26.39-.42,33.13,11.25,3.36,5.82,4.26,12.37,3.04,18.48h151.39Z"/>
            <g>
              <polygon class="cls-1" points="1233.54 524.29 1217.83 515.37 1202.13 524.29 1202.13 488.23 1233.54 488.23 1233.54 524.29"/>
              <path class="cls-2" d="M1250.22,469.03c0-1.88-1.53-3.64-4.22-5.17-3.91-2.22-5.79-6.76-4.59-11.1.82-2.98.65-5.31-.67-6.63-1.33-1.33-3.66-1.49-6.64-.67-4.33,1.19-8.88-.69-11.1-4.59-1.52-2.68-3.28-4.22-5.17-4.22s-3.63,1.53-5.16,4.22c-2.22,3.91-6.77,5.79-11.1,4.59-2.98-.82-5.31-.66-6.64.67-1.32,1.33-1.49,3.66-.67,6.63,1.2,4.33-.68,8.88-4.59,11.1-2.68,1.52-4.22,3.29-4.22,5.17s1.54,3.64,4.22,5.17c3.91,2.22,5.79,6.76,4.59,11.1-.82,2.97-.65,5.31.67,6.63,1.33,1.33,3.66,1.49,6.64.67,4.33-1.19,8.88.69,11.1,4.6,1.53,2.68,3.29,4.22,5.16,4.22s3.65-1.53,5.17-4.22c2.22-3.91,6.77-5.79,11.1-4.6,2.98.82,5.31.66,6.64-.67,1.32-1.33,1.49-3.66.67-6.63-1.2-4.33.68-8.88,4.59-11.1,2.69-1.52,4.22-3.29,4.22-5.17Z"/>
              <path class="cls-1" d="M1237.03,469.03c0,10.6-8.59,19.2-19.2,19.2s-19.19-8.59-19.19-19.2,8.59-19.2,19.19-19.2,19.2,8.6,19.2,19.2Z"/>
            </g>
            <rect class="cls-15" x="1161.62" y="369.37" width="112.43" height="4.51"/>
            <rect class="cls-15" x="1161.62" y="384.86" width="112.43" height="4.51"/>
            <rect class="cls-15" x="1155.46" y="400.36" width="124.75" height="4.51"/>
            <rect class="cls-15" x="1146.64" y="415.86" width="142.39" height="4.51"/>
          </g>
          <g>
            <path class="cls-2" d="M1729.23,710.54c0,48.74-39.51,88.26-88.25,88.26s-88.26-39.51-88.26-88.26,39.51-88.26,88.26-88.26,88.25,39.52,88.25,88.26Z"/>
            <path class="cls-14" d="M1619.64,731.22c-16.54-17.61-26.82-40.89-23.65-65.31,1.8-13.99,7.41-26.91,15.22-38.47-34.1,12.22-58.5,44.8-58.5,83.1,0,48.74,39.51,88.26,88.26,88.26,28.07,0,53.05-13.12,69.22-33.54-33.09,3.52-67.91-9.89-90.56-34.03Z"/>
            <path class="cls-6" d="M1698.69,710.54c0,48.74-25.85,88.26-57.72,88.26s-57.73-39.51-57.73-88.26,25.85-88.26,57.73-88.26,57.72,39.52,57.72,88.26Z"/>
            <path class="cls-6" d="M1640.98,756.31c-48.75,0-88.26-20.49-88.26-45.77s39.51-45.77,88.26-45.77,88.25,20.49,88.25,45.77-39.51,45.77-88.25,45.77Z"/>
            <line class="cls-6" x1="1640.98" y1="622.28" x2="1640.98" y2="798.79"/>
            <line class="cls-6" x1="1729.23" y1="710.54" x2="1552.71" y2="710.54"/>
          </g>
          <g>
            <path class="cls-2" d="M1990.73,895.92h-148.52v-166.66c0-10.34,8.38-18.72,18.71-18.72h129.81v185.38Z"/>
            <g>
              <polygon class="cls-1" points="1969.46 884.88 1956.85 877.72 1944.25 884.88 1944.25 855.93 1969.46 855.93 1969.46 884.88"/>
              <path class="cls-2" d="M1982.85,840.52c0-1.51-1.23-2.92-3.39-4.14-3.13-1.78-4.64-5.43-3.69-8.9.66-2.39.54-4.26-.54-5.33-1.07-1.07-2.94-1.19-5.32-.54-3.48.96-7.13-.55-8.91-3.69-1.22-2.15-2.64-3.38-4.15-3.38s-2.92,1.23-4.15,3.38c-1.78,3.14-5.42,4.65-8.91,3.69-2.38-.66-4.25-.53-5.32.54-1.07,1.07-1.2,2.94-.55,5.33.96,3.48-.55,7.12-3.69,8.9-2.15,1.22-3.38,2.64-3.38,4.14s1.23,2.93,3.38,4.15c3.13,1.78,4.65,5.43,3.69,8.9-.65,2.39-.53,4.26.55,5.33,1.06,1.07,2.93,1.2,5.32.54,3.48-.96,7.13.55,8.91,3.69,1.23,2.15,2.64,3.38,4.15,3.38s2.93-1.23,4.15-3.38c1.78-3.14,5.43-4.65,8.91-3.69,2.38.66,4.25.53,5.32-.54,1.07-1.07,1.2-2.94.54-5.33-.95-3.48.55-7.12,3.69-8.9,2.16-1.22,3.39-2.64,3.39-4.15Z"/>
              <path class="cls-1" d="M1972.26,840.52c0,8.51-6.9,15.41-15.41,15.41s-15.4-6.9-15.4-15.41,6.89-15.41,15.4-15.41,15.41,6.9,15.41,15.41Z"/>
            </g>
            <path class="cls-2" d="M1995.93,710.54h-135.48c7.68,0,13.96,6.83,13.96,15.19h0c0,8.35-6.28,15.19-13.96,15.19h135.48c7.68,0,13.96-6.83,13.96-15.19h0c0-8.35-6.28-15.19-13.96-15.19Z"/>
            <rect class="cls-15" x="1871.73" y="761.56" width="97.73" height="4.51"/>
            <rect class="cls-15" x="1871.73" y="775.47" width="97.73" height="4.51"/>
            <rect class="cls-15" x="1871.73" y="789.38" width="97.73" height="4.51"/>
            <rect class="cls-15" x="1871.73" y="803.29" width="97.73" height="4.51"/>
          </g>
          <g>
            <rect class="cls-1" x="950.3" y="114.4" width="36.22" height="226.73" transform="translate(740.64 1196.17) rotate(-90)"/>
            <rect class="cls-2" x="1070.07" y="209.66" width="11.7" height="36.22"/>
            <rect class="cls-2" x="955.73" y="121.22" width="11.72" height="213.1" transform="translate(733.82 1189.36) rotate(-90)"/>
            <path class="cls-2" d="M1082.52,245.97c.1,0,.18.01.27.01,10.06,0,18.21-8.15,18.21-18.22s-8.16-18.22-18.21-18.22c-.09,0-.17.01-.27.01v36.4Z"/>
            <polygon class="cls-2" points="815.62 227.77 835.33 218.37 855.04 208.97 855.04 227.77 855.04 246.57 835.33 237.17 815.62 227.77"/>
            <polygon class="cls-15" points="832.21 219.85 815.62 227.77 832.21 235.68 832.21 219.85"/>
          </g>
          <g>
            <path class="cls-1" d="M1820.11,1597.21h0c-5.91,1.41-11.89-2.27-13.3-8.18l-18.27-76.7c-1.41-5.91,2.27-11.89,8.18-13.3h0c5.9-1.41,11.89,2.27,13.29,8.18l18.28,76.7c1.4,5.9-2.28,11.89-8.18,13.3Z"/>
            <polygon class="cls-1" points="1824.24 1506.08 1774.56 1517.91 1768.43 1492.18 1818.12 1480.34 1824.24 1506.08"/>
            <g>
              <path class="cls-10" d="M1798.47,1386.42c-6.23-2.68-13.04-4.12-20.05-4.03-14.61,23.64-29.24,47.28-43.88,70.9,3.1,6.4,7.5,11.91,12.76,16.32l51.17-83.19Z"/>
              <path class="cls-10" d="M1820.84,1405.58c-3.46-5.51-7.92-10.23-13.1-13.94-17.25,27.94-34.52,55.86-51.77,83.79,5.67,2.99,11.92,4.88,18.45,5.49,15.49-25.11,30.96-50.22,46.42-75.35Z"/>
              <path class="cls-1" d="M1762.84,1364.08c-37.38,8.9-60.45,46.42-51.54,83.8,8.9,37.37,46.41,60.45,83.79,51.54,37.38-8.91,60.45-46.42,51.55-83.79-8.91-37.38-46.42-60.45-83.8-51.55ZM1790.41,1479.79c-26.53,6.32-53.16-10.06-59.48-36.59-6.33-26.53,10.06-53.16,36.59-59.48,26.53-6.32,53.15,10.06,59.47,36.58,6.32,26.53-10.06,53.16-36.58,59.48Z"/>
            </g>
          </g>
          <g>
            <g>
              <path class="cls-8" d="M1164.57,1819.05H315.16c-31.18,0-56.46-25.27-56.46-56.45v-524.53c0-31.17,25.28-56.45,56.46-56.45h849.41c31.19,0,56.45,25.28,56.45,56.45v524.53c0,31.18-25.27,56.45-56.45,56.45Z"/>
              <path class="cls-8" d="M1288.15,1780.92h-414.48c-4.34,0-7.85,3.13-7.85,6.99v13.43c0,7.33-6.68,13.27-14.9,13.27h-222.11c-8.23,0-14.89-5.94-14.89-13.27v-13.43c0-3.86-3.52-6.99-7.86-6.99H191.58c-14.63,0-26.48,10.56-26.48,23.59v39.74c0,13.02,11.85,23.59,26.48,23.59h1096.58c14.63,0,26.48-10.56,26.48-23.59v-39.74c0-13.03-11.86-23.59-26.48-23.59Z"/>
              <path class="cls-9" d="M348.13,1223h783.47c26.87,0,48.69,21.82,48.69,48.69v420.72c0,26.88-21.82,48.7-48.7,48.7H348.13c-26.88,0-48.7-21.82-48.7-48.7v-420.71c0-26.88,21.82-48.7,48.7-48.7Z"/>
              <path class="cls-12" d="M303.33,1694.63c1.17,23.7,20.81,42.63,44.8,42.63h783.47c24.73,0,44.85-20.12,44.85-44.85v-420.72c0-24.4-19.59-44.31-43.85-44.83l-829.27,467.78Z"/>
            </g>
            <g>
              <path class="cls-7" d="M1555.78,1267.87c-6.96-11.27-13.05-23.1-18.33-34.51,33.14-38.67,52.45-84.7,52.45-134.14,0-136.73-147.04-247.57-328.43-247.57s-328.43,110.84-328.43,247.57,147.06,247.58,328.43,247.58c54.09,0,105.09-9.93,150.07-27.38,11.41,7,24.71,13.51,40.32,19.37,59.9,22.49,140.31,27.2,180.07,22.97,0,0-44.55-42.73-76.15-93.89Z"/>
              <g>
                <path class="cls-8" d="M797.13,1338.19c6.97-11.28,13.03-23.1,18.33-34.52-33.14-38.66-52.45-84.68-52.45-134.13,0-136.74,147.04-247.58,328.42-247.58s328.43,110.85,328.43,247.58-147.04,247.56-328.43,247.56c-54.09,0-105.08-9.91-150.07-27.38-11.4,7-24.7,13.53-40.33,19.38-59.89,22.48-140.31,27.19-180.08,22.97.01-.02,44.56-42.73,76.17-93.88Z"/>
                <g>
                  <line class="cls-3" x1="1272.21" y1="1080.82" x2="902.99" y2="1080.82"/>
                  <line class="cls-3" x1="1272.21" y1="1177.71" x2="902.99" y2="1177.71"/>
                  <line class="cls-3" x1="1272.21" y1="1274.61" x2="1087.6" y2="1274.61"/>
                </g>
              </g>
            </g>
          </g>
        </g>
      </g>
    </g>
  </g>
</svg>