<?xml version="1.0" encoding="utf-8"?>
<!-- Generator: Adobe Illustrator 27.5.0, SVG Export Plug-In . SVG Version: 6.00 Build 0)  -->
<svg version="1.1" id="Ñëîé_1" xmlns="http://www.w3.org/2000/svg" xmlns:xlink="http://www.w3.org/1999/xlink" x="0px" y="0px"
	 viewBox="0 0 3600 2000" style="enable-background:new 0 0 3600 2000;" xml:space="preserve">
<g>
	<rect id="_x31_6" x="21.851" style="fill:#B1D2EF;" width="3556.417" height="2000"/>
	<polygon id="_x31_5" style="fill:#8BADE8;" points="0.12,204.763 0.12,259.726 0,259.726 0,1635.952 90.824,1635.952 
		90.824,273.736 1765.573,273.736 1765.573,1635.952 1834.547,1635.952 1834.547,273.736 3509.296,273.736 3509.296,1635.952 
		3600,1635.952 3600,273.736 3600,259.726 3600,204.763 	"/>
	<g id="_x31_4">
		
			<rect x="282.744" y="558.948" transform="matrix(-1.836970e-16 1 -1 -1.836970e-16 1890.1226 33.7249)" style="fill:#A3BCEF;" width="1290.91" height="805.951"/>
		<rect x="557.548" y="349.418" style="fill:#C5E2FF;" width="741.299" height="1225.008"/>
		<polygon style="fill:#A3BCEF;" points="1314.493,476.152 1314.493,465.513 933.518,465.513 933.518,325.05 922.879,325.05 
			922.879,465.513 542.814,465.513 542.814,476.152 922.879,476.152 922.879,601.92 542.814,601.92 542.814,612.559 
			922.879,612.559 922.879,738.328 542.814,738.328 542.814,748.967 922.879,748.967 922.879,874.735 542.814,874.735 
			542.814,885.374 922.879,885.374 922.879,1011.142 542.814,1011.142 542.814,1021.781 922.879,1021.781 922.879,1147.551 
			542.814,1147.551 542.814,1158.189 922.879,1158.189 922.879,1283.958 542.814,1283.958 542.814,1294.596 922.879,1294.596 
			922.879,1420.365 542.814,1420.365 542.814,1431.003 922.879,1431.003 922.879,1575.894 933.518,1575.894 933.518,1431.003 
			1314.493,1431.003 1314.493,1420.365 933.518,1420.365 933.518,1294.596 1314.493,1294.596 1314.493,1283.958 933.518,1283.958 
			933.518,1158.189 1314.493,1158.189 1314.493,1147.551 933.518,1147.551 933.518,1021.781 1314.493,1021.781 1314.493,1011.142 
			933.518,1011.142 933.518,885.374 1314.493,885.374 1314.493,874.735 933.518,874.735 933.518,748.967 1314.493,748.967 
			1314.493,738.328 933.518,738.328 933.518,612.559 1314.493,612.559 1314.493,601.92 933.518,601.92 933.518,476.152 		"/>
		<polygon style="opacity:0.2;fill:#FFFFFF;" points="832.156,349.418 569.812,1574.426 557.548,1574.426 557.548,1336.405 
			768.922,349.418 		"/>
		<polygon style="opacity:0.2;fill:#FFFFFF;" points="1121.214,349.418 858.87,1574.426 670.891,1574.426 933.235,349.418 		"/>
		<polygon style="opacity:0.2;fill:#FFFFFF;" points="1298.847,349.418 1298.847,423.852 1052.441,1574.426 922.987,1574.426 
			1185.332,349.418 		"/>
	</g>
	<g id="_x31_3">
		
			<rect x="2026.466" y="558.948" transform="matrix(-1.836970e-16 1 -1 -1.836970e-16 3633.845 -1709.9974)" style="fill:#A3BCEF;" width="1290.91" height="805.951"/>
		<rect x="2301.273" y="349.418" style="fill:#C5E2FF;" width="741.299" height="1225.008"/>
		<polygon style="fill:#A3BCEF;" points="3058.215,476.152 3058.215,465.513 2677.24,465.513 2677.24,325.05 2666.602,325.05 
			2666.602,465.513 2286.536,465.513 2286.536,476.152 2666.602,476.152 2666.602,601.92 2286.536,601.92 2286.536,612.559 
			2666.602,612.559 2666.602,738.328 2286.536,738.328 2286.536,748.967 2666.602,748.967 2666.602,874.735 2286.536,874.735 
			2286.536,885.374 2666.602,885.374 2666.602,1011.142 2286.536,1011.142 2286.536,1021.781 2666.602,1021.781 2666.602,1147.551 
			2286.536,1147.551 2286.536,1158.189 2666.602,1158.189 2666.602,1283.958 2286.536,1283.958 2286.536,1294.596 
			2666.602,1294.596 2666.602,1420.365 2286.536,1420.365 2286.536,1431.003 2666.602,1431.003 2666.602,1575.894 2677.24,1575.894 
			2677.24,1431.003 3058.215,1431.003 3058.215,1420.365 2677.24,1420.365 2677.24,1294.596 3058.215,1294.596 3058.215,1283.958 
			2677.24,1283.958 2677.24,1158.189 3058.215,1158.189 3058.215,1147.551 2677.24,1147.551 2677.24,1021.781 3058.215,1021.781 
			3058.215,1011.142 2677.24,1011.142 2677.24,885.374 3058.215,885.374 3058.215,874.735 2677.24,874.735 2677.24,748.967 
			3058.215,748.967 3058.215,738.328 2677.24,738.328 2677.24,612.559 3058.215,612.559 3058.215,601.92 2677.24,601.92 
			2677.24,476.152 		"/>
		<polygon style="opacity:0.2;fill:#FFFFFF;" points="2575.881,349.418 2313.536,1574.426 2301.273,1574.426 2301.273,1336.405 
			2512.646,349.418 		"/>
		<polygon style="opacity:0.2;fill:#FFFFFF;" points="2864.939,349.418 2602.594,1574.426 2414.605,1574.426 2676.96,349.418 		"/>
		<polygon style="opacity:0.2;fill:#FFFFFF;" points="3042.572,349.418 3042.572,423.852 2796.166,1574.426 2666.712,1574.426 
			2929.056,349.418 		"/>
	</g>
	<g id="_x31_2_1_">
		<rect x="2056.941" y="1373.513" style="fill:#98B7ED;" width="1543.059" height="626.487"/>
		<rect x="2056.941" y="1386.62" style="fill:#4867AA;" width="1543.059" height="25.764"/>
		<path style="fill:#3A5C99;" d="M3600,1323.931v70.111H2056.941v-29.481c0-22.441,18.2-40.63,40.641-40.63H3600z"/>
		<path style="fill:#A3BCEF;" d="M3500.379,1358.986c0,7.271-5.9,13.165-13.178,13.165s-13.177-5.894-13.177-13.165
			c0-7.271,5.9-13.165,13.177-13.165S3500.379,1351.715,3500.379,1358.986z"/>
		<path style="fill:#A3BCEF;" d="M3576.069,1358.986c0,7.271-5.9,13.165-13.177,13.165s-13.178-5.894-13.178-13.165
			c0-7.271,5.9-13.165,13.178-13.165S3576.069,1351.715,3576.069,1358.986z"/>
		<path style="fill:#A3BCEF;" d="M2137.949,1358.986c0,7.271-5.9,13.165-13.178,13.165s-13.177-5.894-13.177-13.165
			c0-7.271,5.9-13.165,13.177-13.165S2137.949,1351.715,2137.949,1358.986z"/>
		<path style="fill:#A3BCEF;" d="M2213.64,1358.986c0,7.271-5.9,13.165-13.177,13.165c-7.278,0-13.178-5.894-13.178-13.165
			c0-7.271,5.9-13.165,13.178-13.165C2207.74,1345.821,2213.64,1351.715,2213.64,1358.986z"/>
		<path style="fill:#A3BCEF;" d="M2289.33,1358.986c0,7.271-5.9,13.165-13.177,13.165s-13.177-5.894-13.177-13.165
			c0-7.271,5.9-13.165,13.177-13.165S2289.33,1351.715,2289.33,1358.986z"/>
		<path style="fill:#A3BCEF;" d="M2365.021,1358.986c0,7.271-5.9,13.165-13.178,13.165s-13.177-5.894-13.177-13.165
			c0-7.271,5.9-13.165,13.177-13.165S2365.021,1351.715,2365.021,1358.986z"/>
		<path style="fill:#A3BCEF;" d="M2440.711,1358.986c0,7.271-5.9,13.165-13.177,13.165s-13.178-5.894-13.178-13.165
			c0-7.271,5.9-13.165,13.178-13.165S2440.711,1351.715,2440.711,1358.986z"/>
		<path style="fill:#A3BCEF;" d="M2516.402,1358.986c0,7.271-5.9,13.165-13.178,13.165s-13.177-5.894-13.177-13.165
			c0-7.271,5.9-13.165,13.177-13.165S2516.402,1351.715,2516.402,1358.986z"/>
		<path style="fill:#A3BCEF;" d="M2592.092,1358.986c0,7.271-5.9,13.165-13.177,13.165s-13.178-5.894-13.178-13.165
			c0-7.271,5.9-13.165,13.178-13.165S2592.092,1351.715,2592.092,1358.986z"/>
		<path style="fill:#A3BCEF;" d="M2667.783,1358.986c0,7.271-5.9,13.165-13.178,13.165s-13.177-5.894-13.177-13.165
			c0-7.271,5.9-13.165,13.177-13.165S2667.783,1351.715,2667.783,1358.986z"/>
		<path style="fill:#A3BCEF;" d="M2743.473,1358.986c0,7.271-5.9,13.165-13.177,13.165s-13.178-5.894-13.178-13.165
			c0-7.271,5.9-13.165,13.178-13.165S2743.473,1351.715,2743.473,1358.986z"/>
		<path style="fill:#A3BCEF;" d="M2819.164,1358.986c0,7.271-5.9,13.165-13.178,13.165s-13.178-5.894-13.178-13.165
			c0-7.271,5.9-13.165,13.178-13.165S2819.164,1351.715,2819.164,1358.986z"/>
		<path style="fill:#A3BCEF;" d="M2894.854,1358.986c0,7.271-5.9,13.165-13.177,13.165c-7.278,0-13.178-5.894-13.178-13.165
			c0-7.271,5.9-13.165,13.178-13.165C2888.955,1345.821,2894.854,1351.715,2894.854,1358.986z"/>
		<path style="fill:#A3BCEF;" d="M2970.545,1358.986c0,7.271-5.9,13.165-13.177,13.165s-13.178-5.894-13.178-13.165
			c0-7.271,5.9-13.165,13.178-13.165S2970.545,1351.715,2970.545,1358.986z"/>
		<path style="fill:#A3BCEF;" d="M3046.236,1358.986c0,7.271-5.9,13.165-13.177,13.165c-7.278,0-13.178-5.894-13.178-13.165
			c0-7.271,5.9-13.165,13.178-13.165C3040.336,1345.821,3046.236,1351.715,3046.236,1358.986z"/>
		<path style="fill:#A3BCEF;" d="M3121.926,1358.986c0,7.271-5.9,13.165-13.177,13.165s-13.178-5.894-13.178-13.165
			c0-7.271,5.9-13.165,13.178-13.165S3121.926,1351.715,3121.926,1358.986z"/>
		<path style="fill:#A3BCEF;" d="M3197.617,1358.986c0,7.271-5.9,13.165-13.178,13.165c-7.278,0-13.177-5.894-13.177-13.165
			c0-7.271,5.9-13.165,13.177-13.165C3191.717,1345.821,3197.617,1351.715,3197.617,1358.986z"/>
		<path style="fill:#A3BCEF;" d="M3273.307,1358.986c0,7.271-5.9,13.165-13.177,13.165s-13.178-5.894-13.178-13.165
			c0-7.271,5.9-13.165,13.178-13.165S3273.307,1351.715,3273.307,1358.986z"/>
		<path style="fill:#A3BCEF;" d="M3348.998,1358.986c0,7.271-5.9,13.165-13.178,13.165c-7.278,0-13.177-5.894-13.177-13.165
			c0-7.271,5.9-13.165,13.177-13.165C3343.098,1345.821,3348.998,1351.715,3348.998,1358.986z"/>
		<path style="fill:#A3BCEF;" d="M3424.688,1358.986c0,7.271-5.9,13.165-13.177,13.165s-13.178-5.894-13.178-13.165
			c0-7.271,5.9-13.165,13.178-13.165S3424.688,1351.715,3424.688,1358.986z"/>
	</g>
	<g id="_x31_1_1_">
		<path style="fill:#3A5C99;" d="M1605.663,1024.985c-5.948,0-10.771-4.822-10.771-10.771V754.613
			c0-5.948,4.822-10.771,10.771-10.771h261.064c5.948,0,10.771,4.822,10.771,10.771c0,5.948-4.822,10.771-10.771,10.771h-250.294
			v248.831C1616.434,1020.163,1611.612,1024.985,1605.663,1024.985z"/>
		<path style="fill:#3A5C99;" d="M1609.391,1465.712h-104.874c-5.948,0-10.771-4.822-10.771-10.771v-339.677
			c0-2.858,1.136-5.6,3.158-7.62l101.147-101.049c4.207-4.204,11.028-4.201,15.232,0.007c4.204,4.209,4.201,11.029-0.007,15.233
			l-97.988,97.894v324.442h94.104c5.948,0,10.771,4.822,10.771,10.771C1620.162,1460.889,1615.34,1465.712,1609.391,1465.712z"/>
		
			<rect x="2351.719" y="824.546" transform="matrix(0.7075 -0.7068 0.7068 0.7075 68.6131 1924.1432)" style="fill:#3A5C99;" width="13.664" height="109.291"/>
		<rect x="1774.452" y="1199.13" style="fill:#3A5C99;" width="49.421" height="90.063"/>
		<path style="fill:#4867AA;" d="M1620.248,1072.634l129.565,170.812c22.216,29.289,65.174,32.235,91.18,6.253v0
			c26.039-26.014,23.09-69.038-6.256-91.255l-170.932-129.408C1634.983,1007.216,1598.401,1043.831,1620.248,1072.634z"/>
		<path style="fill:#4867AA;" d="M2004.005,1564.339h-409.686v-155.902c0-33.616,27.251-60.867,60.867-60.867h287.953
			c33.616,0,60.867,27.251,60.867,60.867V1564.339z"/>
		<path style="fill:#A3BCEF;" d="M1714.566,1493.712v-77.542c0-5.655,4.584-10.239,10.239-10.239h148.715
			c5.655,0,10.239,4.584,10.239,10.239v77.542c0,5.655-4.584,10.239-10.239,10.239h-148.715
			C1719.15,1503.95,1714.566,1499.366,1714.566,1493.712z"/>
		<rect x="1728.066" y="1419.418" style="fill:#3A5C99;" width="142.191" height="71.045"/>
		<rect x="1737.403" y="1411.034" style="fill:#A3BCEF;" width="6.747" height="87.813"/>
		<rect x="1854.174" y="1411.034" style="fill:#A3BCEF;" width="6.747" height="87.813"/>
		<rect x="1754.085" y="1411.034" style="fill:#A3BCEF;" width="6.747" height="87.813"/>
		<rect x="1787.448" y="1411.034" style="fill:#A3BCEF;" width="6.747" height="87.813"/>
		<rect x="1804.129" y="1411.034" style="fill:#A3BCEF;" width="6.747" height="87.813"/>
		<rect x="1820.811" y="1411.034" style="fill:#A3BCEF;" width="6.747" height="87.813"/>
		<rect x="1837.492" y="1411.034" style="fill:#A3BCEF;" width="6.747" height="87.813"/>
		<rect x="1770.766" y="1411.034" style="fill:#A3BCEF;" width="6.747" height="87.813"/>
		<rect x="1594.319" y="1547.847" style="fill:#3A5C99;" width="409.686" height="59.532"/>
		<path style="fill:#4F72B2;" d="M1948.978,1340.509h-299.632v-25.389c0-19.329,15.669-34.998,34.998-34.998h229.636
			c19.329,0,34.998,15.669,34.998,34.998V1340.509z"/>
		<rect x="1649.346" y="1333.447" style="fill:#3A5C99;" width="299.632" height="14.123"/>
		<rect x="1733.658" y="1301.952" style="fill:#3A5C99;" width="16.743" height="16.727"/>
		<rect x="1771.808" y="1301.952" style="fill:#3A5C99;" width="16.743" height="16.727"/>
		<rect x="1809.958" y="1301.952" style="fill:#3A5C99;" width="16.743" height="16.727"/>
		<rect x="1848.108" y="1301.952" style="fill:#3A5C99;" width="16.743" height="16.727"/>
		<rect x="1886.258" y="1301.952" style="fill:#3A5C99;" width="16.743" height="16.727"/>
		<rect x="1695.508" y="1301.952" style="fill:#3A5C99;" width="16.743" height="16.727"/>
		<ellipse style="fill:#3A5C99;" cx="1799.162" cy="1207.814" rx="35.768" ry="35.733"/>
		<ellipse style="fill:#4867AA;" cx="1799.162" cy="1207.814" rx="27.539" ry="27.512"/>
		<path style="fill:#A3BCEF;" d="M1805.309,1201.674c3.395,3.391,3.395,8.89,0,12.281c-3.395,3.391-8.898,3.391-12.293,0
			c-3.395-3.391-3.395-8.89,0-12.281C1796.41,1198.282,1801.914,1198.282,1805.309,1201.674z"/>
		<path style="fill:#3A5C99;" d="M1616.622,1003.435c6.085,6.079,6.085,15.935,0,22.013c-6.085,6.079-15.95,6.079-22.035,0
			c-6.085-6.079-6.085-15.935,0-22.013C1600.672,997.357,1610.538,997.357,1616.622,1003.435z"/>
		<path style="fill:#A3BCEF;" d="M1608.283,1011.767c1.479,1.477,1.479,3.872,0,5.35c-1.479,1.477-3.876,1.477-5.355,0
			c-1.479-1.477-1.479-3.872,0-5.35C1604.406,1010.29,1606.804,1010.29,1608.283,1011.767z"/>
		<path style="fill:#4F72B2;" d="M1848.908,737.117l-280.145,226.032c-28.948,23.357-31.246,66.661-4.932,92.95v0
			c26.281,26.256,69.517,23.961,92.871-4.929l226.294-279.933C1901.276,748.625,1871.538,718.859,1848.908,737.117z"/>
		<ellipse style="fill:#3A5C99;" cx="1605.663" cy="1014.214" rx="35.767" ry="35.733"/>
		<ellipse style="fill:#4867AA;" cx="1605.663" cy="1014.214" rx="27.539" ry="27.512"/>
		<path style="fill:#A3BCEF;" d="M1611.81,1020.355c-3.395,3.391-8.898,3.391-12.293,0c-3.395-3.391-3.395-8.89,0-12.281
			c3.395-3.391,8.898-3.391,12.293,0C1615.204,1011.465,1615.204,1016.963,1611.81,1020.355z"/>
		<path style="fill:#5780BC;" d="M2243.251,731.404l-366.597-38.98c-36.948-3.929-69.152,25.033-69.152,62.189v0
			c0,37.156,32.204,66.117,69.152,62.189l366.597-38.98C2271.08,774.862,2271.08,734.363,2243.251,731.404z"/>
		<path style="fill:#608EC6;" d="M2377.222,882.342L2260.43,728.369c-13.81-18.206-40.512-20.037-56.677-3.887l0,0
			c-16.186,16.17-14.352,42.914,3.889,56.724l154.08,116.65C2371.978,905.621,2384.996,892.591,2377.222,882.342z"/>
		<ellipse style="fill:#3A5C99;" cx="1866.728" cy="754.613" rx="35.768" ry="35.733"/>
		<ellipse style="fill:#4867AA;" cx="1866.728" cy="754.613" rx="27.538" ry="27.512"/>
		<ellipse style="fill:#A3BCEF;" cx="1866.728" cy="754.613" rx="8.692" ry="8.684"/>
		<ellipse style="fill:#3A5C99;" cx="2234.211" cy="754.613" rx="15.581" ry="15.566"/>
		
			<ellipse transform="matrix(1 -0.0011 0.0011 1 -0.8239 2.4437)" style="fill:#4867AA;" cx="2234.211" cy="754.613" rx="11.996" ry="11.985"/>
		<ellipse style="fill:#A3BCEF;" cx="2234.211" cy="754.613" rx="3.786" ry="3.783"/>
		<path style="fill:#4867AA;" d="M2441.365,893.273l-68.719,68.654C2322.559,914.822,2394.09,843.183,2441.365,893.273z"/>
		<path style="fill:#3A5C99;" d="M2383.2,950.721l-4.982,31.683l26.553,32.467l35.621,2.651c1.464,0.109,2.562,1.384,2.453,2.848
			c-0.099,1.33-1.162,2.359-2.453,2.453l-35.621,2.651c-1.225,0.091-2.369-0.331-3.222-1.084l-34.572-30.734
			c-1.372-1.22-2.132-2.871-2.257-4.568l-2.726-38.366c-0.416-5.856,3.994-10.94,9.849-11.356c5.856-0.416,10.94,3.994,11.356,9.849
			C2383.235,949.702,2383.23,950.245,2383.2,950.721z"/>
		<path style="fill:#3A5C99;" d="M2468.676,885.202c1.829,0.13,3.448,0.987,4.582,2.253l30.758,34.532
			c0.818,0.918,1.177,2.099,1.096,3.236l-2.651,35.587c-0.109,1.464-1.384,2.562-2.848,2.453c-1.33-0.099-2.358-1.162-2.453-2.453
			l-1.096-31.836l-28.427-27.941l-37.344,2.651c-5.856,0.416-10.94-3.994-11.355-9.85c-0.416-5.856,3.994-10.94,9.85-11.355
			C2429.276,882.443,2468.676,885.202,2468.676,885.202z"/>
		<path style="fill:#3A5C99;" d="M2441.365,893.273l-68.719,68.654l-2.554-2.562c-4.698-4.694-8.233-10.109-10.604-15.89
			l63.407-63.346c5.787,2.368,11.207,5.9,15.906,10.594L2441.365,893.273z"/>
	</g>
	<rect id="_x31_0" y="1607.358" style="fill:#779ED8;" width="3599.88" height="392.642"/>
	<g id="_x39_">
		<rect x="2280.483" y="1163.957" style="fill:#4867AA;" width="233.668" height="159.973"/>
		<rect x="2280.483" y="1163.957" style="fill:#4E73B5;" width="76.176" height="159.973"/>
		<polygon style="fill:#4E73B5;" points="2356.659,1163.957 2335.56,1142.878 2259.856,1143.35 2280.483,1163.957 		"/>
		<polygon style="fill:#4867AA;" points="2514.152,1163.957 2535.478,1142.651 2377.635,1143.001 2356.659,1163.957 		"/>
	</g>
	<g id="_x38_">
		<rect x="2790.586" y="1163.957" style="fill:#4867AA;" width="233.668" height="159.973"/>
		<rect x="2790.586" y="1163.957" style="fill:#4E73B5;" width="76.176" height="159.973"/>
		<polygon style="fill:#4E73B5;" points="2866.762,1163.957 2845.663,1142.878 2769.959,1143.35 2790.586,1163.957 		"/>
		<polygon style="fill:#4867AA;" points="3024.254,1163.957 3045.581,1142.651 2887.739,1143.001 2866.762,1163.957 		"/>
	</g>
	<g id="_x37_">
		<rect x="3269.58" y="1163.957" style="fill:#4867AA;" width="233.668" height="159.973"/>
		<rect x="3269.58" y="1163.957" style="fill:#4E73B5;" width="76.176" height="159.973"/>
		<polygon style="fill:#4E73B5;" points="3345.756,1163.957 3324.656,1142.878 3248.952,1143.35 3269.58,1163.957 		"/>
		<polygon style="fill:#4867AA;" points="3503.248,1163.957 3524.574,1142.651 3366.732,1143.001 3345.756,1163.957 		"/>
	</g>
	<g id="_x36__1_">
		<rect x="21.851" y="1.123" style="fill:#A3BCEF;" width="3556.417" height="184.508"/>
		<polygon style="fill:#D4E8FF;" points="3559.494,1.123 3559.494,185.63 3345.84,185.63 3345.84,1.123 3305.334,1.123 
			3305.334,185.63 3091.679,185.63 3091.679,1.123 3051.174,1.123 3051.174,185.63 2837.519,185.63 2837.519,1.123 2836.389,1.123 
			2797.013,1.123 2795.884,1.123 2795.884,185.63 2583.359,185.63 2583.359,1.123 2582.229,1.123 2542.853,1.123 2541.723,1.123 
			2541.723,185.63 2329.198,185.63 2329.198,1.123 2328.069,1.123 2288.693,1.123 2287.563,1.123 2287.563,185.63 2075.038,185.63 
			2075.038,1.123 2073.908,1.123 2034.532,1.123 2033.402,1.123 2033.402,185.63 1820.878,185.63 1820.878,1.123 1819.748,1.123 
			1780.372,1.123 1779.242,1.123 1779.242,185.63 1566.718,185.63 1566.718,1.123 1565.588,1.123 1526.212,1.123 1525.082,1.123 
			1525.082,185.63 1312.557,185.63 1312.557,1.123 1311.427,1.123 1272.052,1.123 1270.922,1.123 1270.922,185.63 1058.397,185.63 
			1058.397,1.123 1057.267,1.123 1017.891,1.123 1016.761,1.123 1016.761,185.63 804.237,185.63 804.237,1.123 803.107,1.123 
			763.731,1.123 762.601,1.123 762.601,185.63 548.946,185.63 548.946,1.123 508.441,1.123 508.441,185.63 294.786,185.63 
			294.786,1.123 254.28,1.123 254.28,185.63 40.626,185.63 40.626,1.123 0.12,1.123 0.12,225.608 763.731,225.608 2836.389,225.608 
			3600,225.608 3600,1.123 		"/>
	</g>
	<g id="_x35_">
		<rect x="806.685" y="1011.525" style="fill:#4867AA;" width="247.042" height="449.803"/>
		<rect x="806.685" y="1418.601" style="fill:#3A5C99;" width="247.042" height="42.727"/>
		<path style="fill:#4867AA;" d="M1091.794,1471.015v52.463H769.396v-52.463c0-20.366,16.51-36.876,36.876-36.876h248.646
			C1075.283,1434.138,1091.794,1450.648,1091.794,1471.015z"/>
		<rect x="769.396" y="1489.296" style="fill:#3A5C99;" width="322.398" height="34.182"/>
		<path style="fill:#4867AA;" d="M1131.414,1607.379H729.776v-60.975c0-22.959,18.612-41.57,41.57-41.57h318.497
			c22.959,0,41.57,18.612,41.57,41.57V1607.379z"/>
		<rect x="806.685" y="1011.525" style="fill:#3A5C99;" width="247.042" height="182.563"/>
		<rect x="769.396" y="907.425" style="fill:#4867AA;" width="322.398" height="271.125"/>
		<rect x="802.024" y="938.5" style="fill:#A3BCEF;" width="257.141" height="170.133"/>
		<path style="fill:#1D3F70;" d="M1031.198,964.425H889.971c-1.447,0-2.62-1.173-2.62-2.62c0-1.447,1.173-2.62,2.62-2.62h141.227
			c1.447,0,2.62,1.173,2.62,2.62C1033.818,963.253,1032.645,964.425,1031.198,964.425z"/>
		<path style="fill:#1D3F70;" d="M877.45,964.425h-47.459c-1.447,0-2.62-1.173-2.62-2.62c0-1.447,1.173-2.62,2.62-2.62h47.459
			c1.447,0,2.62,1.173,2.62,2.62C880.07,963.253,878.897,964.425,877.45,964.425z"/>
		<path style="fill:#1D3F70;" d="M1031.198,989.13h-66.102c-1.447,0-2.62-1.173-2.62-2.62c0-1.447,1.173-2.62,2.62-2.62h66.102
			c1.447,0,2.62,1.173,2.62,2.62C1033.818,987.957,1032.645,989.13,1031.198,989.13z"/>
		<path style="fill:#1D3F70;" d="M950.734,989.13H829.991c-1.447,0-2.62-1.173-2.62-2.62c0-1.447,1.173-2.62,2.62-2.62h120.743
			c1.447,0,2.62,1.173,2.62,2.62C953.353,987.957,952.18,989.13,950.734,989.13z"/>
		<path style="fill:#1D3F70;" d="M1031.198,1013.834H829.991c-1.447,0-2.62-1.173-2.62-2.62c0-1.447,1.173-2.62,2.62-2.62h201.207
			c1.447,0,2.62,1.173,2.62,2.62C1033.818,1012.661,1032.645,1013.834,1031.198,1013.834z"/>
		<path style="fill:#1D3F70;" d="M1031.198,1038.538h-48.794c-1.447,0-2.62-1.173-2.62-2.62c0-1.447,1.173-2.62,2.62-2.62h48.794
			c1.447,0,2.62,1.173,2.62,2.62C1033.818,1037.365,1032.645,1038.538,1031.198,1038.538z"/>
		<path style="fill:#1D3F70;" d="M970.252,1038.538h-63.341c-1.447,0-2.62-1.173-2.62-2.62c0-1.447,1.173-2.62,2.62-2.62h63.341
			c1.447,0,2.62,1.173,2.62,2.62C972.871,1037.365,971.698,1038.538,970.252,1038.538z"/>
		<path style="fill:#1D3F70;" d="M891.444,1038.538h-61.453c-1.447,0-2.62-1.173-2.62-2.62c0-1.447,1.173-2.62,2.62-2.62h61.453
			c1.447,0,2.62,1.173,2.62,2.62C894.064,1037.365,892.891,1038.538,891.444,1038.538z"/>
		<path style="fill:#1D3F70;" d="M1031.198,1063.243H829.991c-1.447,0-2.62-1.173-2.62-2.62c0-1.447,1.173-2.62,2.62-2.62h201.207
			c1.447,0,2.62,1.173,2.62,2.62C1033.818,1062.07,1032.645,1063.243,1031.198,1063.243z"/>
		<path style="fill:#1D3F70;" d="M1031.198,1087.947h-91.144c-1.447,0-2.62-1.173-2.62-2.62c0-1.447,1.173-2.62,2.62-2.62h91.144
			c1.447,0,2.62,1.173,2.62,2.62C1033.818,1086.774,1032.645,1087.947,1031.198,1087.947z"/>
		<path style="fill:#1D3F70;" d="M926.797,1087.947h-96.806c-1.447,0-2.62-1.173-2.62-2.62c0-1.447,1.173-2.62,2.62-2.62h96.806
			c1.447,0,2.62,1.173,2.62,2.62C929.416,1086.774,928.243,1087.947,926.797,1087.947z"/>
		<path style="fill:#1D3F70;" d="M930.595,1263.229c-16.064,0-29.132-13.069-29.132-29.132c0-16.064,13.069-29.132,29.132-29.132
			c16.064,0,29.132,13.069,29.132,29.132C959.727,1250.16,946.658,1263.229,930.595,1263.229z M930.595,1216.617
			c-9.638,0-17.479,7.842-17.479,17.479c0,9.638,7.841,17.479,17.479,17.479c9.638,0,17.479-7.841,17.479-17.479
			C948.074,1224.458,940.232,1216.617,930.595,1216.617z"/>
		<path style="fill:#1D3F70;" d="M930.206,1237.592c-2.145,0-3.884-1.739-3.884-3.884v-10.099c0-2.146,1.739-3.884,3.884-3.884
			s3.884,1.739,3.884,3.884v10.099C934.09,1235.853,932.352,1237.592,930.206,1237.592z"/>
		<path style="fill:#1D3F70;" d="M821.971,1159.144c-8.437,0-15.301-6.864-15.301-15.301v-7.494c0-8.437,6.864-15.301,15.301-15.301
			c8.437,0,15.301,6.864,15.301,15.301v7.494C837.272,1152.28,830.408,1159.144,821.971,1159.144z M821.971,1127.293
			c-4.993,0-9.056,4.063-9.056,9.056v7.494c0,4.994,4.063,9.056,9.056,9.056c4.993,0,9.055-4.063,9.055-9.056v-7.494
			C831.026,1131.355,826.964,1127.293,821.971,1127.293z"/>
		<path style="fill:#1D3F70;" d="M876.282,1159.144c-8.437,0-15.301-6.864-15.301-15.301v-7.494c0-8.437,6.864-15.301,15.301-15.301
			c8.437,0,15.301,6.864,15.301,15.301v7.494C891.584,1152.28,884.719,1159.144,876.282,1159.144z M876.282,1127.293
			c-4.993,0-9.055,4.063-9.055,9.056v7.494c0,4.994,4.063,9.056,9.055,9.056c4.993,0,9.056-4.063,9.056-9.056v-7.494
			C885.339,1131.355,881.276,1127.293,876.282,1127.293z"/>
		<path style="fill:#1D3F70;" d="M930.595,1159.144c-8.437,0-15.301-6.864-15.301-15.301v-7.494c0-8.437,6.864-15.301,15.301-15.301
			c8.437,0,15.301,6.864,15.301,15.301v7.494C945.896,1152.28,939.032,1159.144,930.595,1159.144z M930.595,1127.293
			c-4.994,0-9.056,4.063-9.056,9.056v7.494c0,4.994,4.063,9.056,9.056,9.056c4.993,0,9.056-4.063,9.056-9.056v-7.494
			C939.651,1131.355,935.588,1127.293,930.595,1127.293z"/>
		<path style="fill:#1D3F70;" d="M984.907,1159.144c-8.437,0-15.301-6.864-15.301-15.301v-7.494c0-8.437,6.864-15.301,15.301-15.301
			s15.301,6.864,15.301,15.301v7.494C1000.207,1152.28,993.344,1159.144,984.907,1159.144z M984.907,1127.293
			c-4.993,0-9.056,4.063-9.056,9.056v7.494c0,4.994,4.063,9.056,9.056,9.056c4.993,0,9.055-4.063,9.055-9.056v-7.494
			C993.962,1131.355,989.899,1127.293,984.907,1127.293z"/>
		<path style="fill:#1D3F70;" d="M1039.218,1159.144c-8.437,0-15.301-6.864-15.301-15.301v-7.494
			c0-8.437,6.864-15.301,15.301-15.301s15.301,6.864,15.301,15.301v7.494C1054.519,1152.28,1047.655,1159.144,1039.218,1159.144z
			 M1039.218,1127.293c-4.993,0-9.055,4.063-9.055,9.056v7.494c0,4.994,4.063,9.056,9.055,9.056c4.993,0,9.056-4.063,9.056-9.056
			v-7.494C1048.274,1131.355,1044.211,1127.293,1039.218,1127.293z"/>
		<path style="fill:#1D3F70;" d="M942.636,1313.336H840.09c-2.145,0-3.884-1.739-3.884-3.884c0-2.145,1.739-3.884,3.884-3.884
			h102.546c2.146,0,3.884,1.739,3.884,3.884C946.52,1311.597,944.781,1313.336,942.636,1313.336z"/>
		<path style="fill:#1D3F70;" d="M942.636,1336.642H840.09c-2.145,0-3.884-1.739-3.884-3.884c0-2.145,1.739-3.884,3.884-3.884
			h102.546c2.146,0,3.884,1.739,3.884,3.884C946.52,1334.903,944.781,1336.642,942.636,1336.642z"/>
		<path style="fill:#1D3F70;" d="M942.636,1359.948H840.09c-2.145,0-3.884-1.739-3.884-3.884s1.739-3.884,3.884-3.884h102.546
			c2.146,0,3.884,1.739,3.884,3.884S944.781,1359.948,942.636,1359.948z"/>
		<path style="fill:#1D3F70;" d="M979.148,1356.452c0,2.574-2.087,4.661-4.661,4.661s-4.661-2.087-4.661-4.661
			c0-2.574,2.087-4.661,4.661-4.661S979.148,1353.878,979.148,1356.452z"/>
		<path style="fill:#1D3F70;" d="M999.735,1356.452c0,2.574-2.087,4.661-4.661,4.661c-2.574,0-4.661-2.087-4.661-4.661
			c0-2.574,2.087-4.661,4.661-4.661C997.648,1351.791,999.735,1353.878,999.735,1356.452z"/>
		<path style="fill:#1D3F70;" d="M1020.322,1356.452c0,2.574-2.087,4.661-4.661,4.661c-2.574,0-4.661-2.087-4.661-4.661
			c0-2.574,2.087-4.661,4.661-4.661C1018.235,1351.791,1020.322,1353.878,1020.322,1356.452z"/>
		<circle style="fill:#1D3F70;" cx="974.487" cy="1332.369" r="4.661"/>
		<path style="fill:#1D3F70;" d="M999.735,1332.369c0,2.574-2.087,4.661-4.661,4.661c-2.574,0-4.661-2.087-4.661-4.661
			c0-2.574,2.087-4.661,4.661-4.661C997.648,1327.708,999.735,1329.795,999.735,1332.369z"/>
		<circle style="fill:#1D3F70;" cx="1015.661" cy="1332.369" r="4.661"/>
		<circle style="fill:#1D3F70;" cx="974.487" cy="1309.063" r="4.661"/>
		<path style="fill:#1D3F70;" d="M999.735,1309.063c0,2.574-2.087,4.661-4.661,4.661c-2.574,0-4.661-2.087-4.661-4.661
			c0-2.574,2.087-4.661,4.661-4.661C997.648,1304.402,999.735,1306.489,999.735,1309.063z"/>
		<circle style="fill:#1D3F70;" cx="1015.661" cy="1309.063" r="4.661"/>
	</g>
	<g id="_x34_">
		<rect x="179.073" y="1287.815" style="fill:#4867AA;" width="487.535" height="26.67"/>
		<polygon style="fill:#395B96;" points="137.063,1274.816 708.617,1274.816 708.617,1288.794 676.143,1288.794 676.143,1606.378 
			663.508,1606.378 663.508,1288.794 182.172,1288.794 182.172,1606.378 169.538,1606.378 169.538,1288.794 137.063,1288.794 		"/>
		<rect x="472.331" y="1228.831" style="fill:#255084;" width="33.856" height="36.417"/>
		<rect x="472.331" y="1206.241" style="fill:#1D3F70;" width="33.856" height="43.718"/>
		<path style="fill:#1D3F70;" d="M554.376,1274.715H424.143c-2.614,0-4.733-2.119-4.733-4.733l0,0c0-2.614,2.119-4.733,4.733-4.733
			h130.233c2.614,0,4.733,2.119,4.733,4.733l0,0C559.109,1272.596,556.99,1274.715,554.376,1274.715z"/>
		<path style="fill:#255084;" d="M361.301,1233.384l4.738-150.027c0-5.682,4.606-10.287,10.287-10.287h235.342
			c5.682,0,10.287,4.606,10.287,10.287l-4.738,150.027c0,5.682-4.606,10.287-10.287,10.287H371.588
			C365.907,1243.671,361.301,1239.065,361.301,1233.384z"/>
		<polygon style="fill:#DCECFF;" points="611.936,1083.089 607.197,1221.738 371.321,1221.738 376.06,1083.089 		"/>
		<circle style="fill:#1D3F70;" cx="489.259" cy="1232.849" r="5.854"/>
		<polygon style="fill:#98B6EA;" points="386.177,1204.728 586.858,1204.728 592.341,1100.099 391.66,1100.099 		"/>
		<path style="fill:#CE4ABF;" d="M275.603,1310.354l14.767-22.28c0,0-10.784-10.435-18.308-14.173
			c-8.304-4.134-8.653-13.847-4.414-23.933c0,0,0.012,0,0.012-0.012c4.926-11.704,16.049-23.921,28.137-28.545
			c1.27-0.489,2.551-0.885,3.832-1.199c0.478-0.105,0.944-0.245,1.409-0.384c27.055-8.257,31.748-63.612,32.563-82.421v-0.012
			c0.175-3.89,0.175-6.219,0.175-6.219s-2.399,0.093-6.65,0.769c-12.974,2.061-43.103,9.62-74.327,37
			C211.361,1205.304,180.103,1295.459,275.603,1310.354z"/>
		<path style="fill:#A523A2;" d="M267.656,1249.96c5.447-12.928,18.449-26.484,31.971-29.744c0.476-0.115,0.946-0.244,1.408-0.384
			l-2.19-24.426C298.844,1195.406,274.223,1227.305,267.656,1249.96z"/>
		<path style="fill:#F99370;" d="M333.779,1114.301v16.875c0,0,11.89,11.764,28.783-1.193v-25.339L333.779,1114.301z"/>
		<path style="fill:#F99370;" d="M323.12,1220.775c0,0,106.522,53.111,112.465,73.581c106.556,40.888,70.424,143.621-0.696,235.588
			c-10.882,20.087,24.908,26.177,26.471,42.763c0.348,3.877-3.775,6.587-7.225,4.783l-60.01-31.385
			c14.916-21.112,63.273-124.256,31.333-170.523c-32.86-30.078-50.124-69.311-88.358-77.257
			C306.605,1291.412,296.402,1255.365,323.12,1220.775z"/>
		<path style="fill:#395B96;" d="M395.324,1539.372c-0.816,2.157-1.287,4.422-1.199,6.732l60.594,31.691
			c2.946,1.541,6.595-0.244,7.072-3.534c1.096-7.699-1.96-21.304-29.126-37.372c0,0-11.727-2.784-25.871-13.782
			C406.794,1523.107,398.622,1530.62,395.324,1539.372z"/>
		<path style="fill:#1D3F70;" d="M461.808,1574.144l-66.483-34.771c-0.816,2.157-1.287,4.422-1.199,6.732l60.594,31.691
			C457.704,1579.362,461.409,1577.491,461.808,1574.144z"/>
		<path style="fill:#F99370;" d="M337.155,1231.039c0,0,24.501,23.355,30.444,43.825c106.556,40.888,70.424,143.622-0.696,235.588
			c-10.882,20.087,24.908,26.177,26.471,42.763c0.348,3.877-3.775,6.587-7.225,4.783l-60.009-31.385
			c14.916-21.112,63.272-124.256,31.333-170.523c-32.86-30.078-35.97-46.512-74.204-54.459
			C283.27,1301.63,310.437,1265.629,337.155,1231.039z"/>
		<path style="fill:#EB5648;" d="M285.553,1280.238h139.671c0,0,52.747,15.222,71.778,56.515c0.021,0.045,0.039,0.09,0.06,0.135
			c8.198,15.584,13.832,37.06,10.717,65.835c-6.224,57.519-34.296,96.964-47.55,112.719c0,0,0,0-0.007,0
			c-4.242,5.047-6.971,7.665-6.971,7.665s-30.88,1.953-53.035-19.492c0,0,1.689-3.635,4.301-9.867
			c8.53-20.353,26.844-68.413,27.886-107.841c-1.8,18.207-11.021,52.726-46.452,110.113h-0.011
			c-0.641,0.932-1.281,1.864-1.934,2.807c-1.106,1.572-2.224,3.168-3.377,4.787c0,0-31.725-4.041-52.385-24.946
			c0,0,2.015-3.692,5.136-9.981c9.271-18.678,28.244-60.298,32.93-96.409l-76.861-3.787
			C254.172,1334.591,285.553,1280.238,285.553,1280.238z"/>
		<path style="fill:#CE3932;" d="M328.244,1478.666c20.655,20.911,52.384,24.949,52.384,24.949c1.836-2.582,3.606-5.113,5.31-7.599
			c0,0-42.203-11.681-52.56-27.318v-0.007C330.263,1474.98,328.244,1478.666,328.244,1478.666z"/>
		<path style="fill:#395B96;" d="M327.338,1519.88c-0.816,2.157-1.287,4.422-1.199,6.732l60.594,31.691
			c2.946,1.541,6.595-0.244,7.072-3.534c1.096-7.699-1.96-21.304-29.126-37.372c0,0-11.727-2.784-25.871-13.783
			C338.808,1503.615,330.636,1511.128,327.338,1519.88z"/>
		<path style="fill:#1D3F70;" d="M393.822,1554.652l-66.484-34.771c-0.816,2.157-1.287,4.422-1.199,6.732l60.594,31.691
			C389.718,1559.87,393.423,1557.999,393.822,1554.652z"/>
		<path style="fill:#677CC1;" d="M580.64,1116.499h-55.417c-0.892,0-1.617-0.724-1.617-1.616s0.724-1.616,1.617-1.616h55.417
			c0.893,0,1.617,0.724,1.617,1.616S581.532,1116.499,580.64,1116.499z"/>
		<path style="fill:#677CC1;" d="M516.608,1116.499H458.55c-0.893,0-1.617-0.724-1.617-1.616s0.724-1.616,1.617-1.616h58.059
			c0.893,0,1.617,0.724,1.617,1.616S517.501,1116.499,516.608,1116.499z"/>
		<path style="fill:#677CC1;" d="M449.723,1116.499H407.67c-0.893,0-1.617-0.724-1.617-1.616s0.724-1.616,1.617-1.616h42.052
			c0.893,0,1.617,0.724,1.617,1.616S450.615,1116.499,449.723,1116.499z"/>
		<path style="fill:#677CC1;" d="M407.105,1127.276c-0.892,0-1.616-0.723-1.617-1.614c-0.001-0.893,0.722-1.617,1.615-1.618
			l173.22-0.189c0.001,0,0.002,0,0.002,0c0.892,0,1.616,0.723,1.617,1.614c0.001,0.893-0.722,1.617-1.615,1.618l-173.22,0.189
			C407.106,1127.276,407.106,1127.276,407.105,1127.276z"/>
		<path style="fill:#677CC1;" d="M579.562,1138.054H492.65c-0.893,0-1.617-0.724-1.617-1.616s0.724-1.616,1.617-1.616h86.912
			c0.893,0,1.617,0.724,1.617,1.616S580.455,1138.054,579.562,1138.054z"/>
		<path style="fill:#677CC1;" d="M483.405,1138.054h-76.881c-0.893,0-1.617-0.724-1.617-1.616s0.724-1.616,1.617-1.616h76.881
			c0.893,0,1.617,0.724,1.617,1.616S484.298,1138.054,483.405,1138.054z"/>
		<path style="fill:#677CC1;" d="M579.095,1148.83H449.723c-0.893,0-1.617-0.724-1.617-1.616s0.724-1.616,1.617-1.616h129.373
			c0.893,0,1.617,0.724,1.617,1.616S579.988,1148.83,579.095,1148.83z"/>
		<path style="fill:#677CC1;" d="M440.665,1148.83h-34.689c-0.893,0-1.617-0.724-1.617-1.616s0.724-1.616,1.617-1.616h34.689
			c0.892,0,1.617,0.724,1.617,1.616S441.557,1148.83,440.665,1148.83z"/>
		<path style="fill:#677CC1;" d="M577.976,1170.195H406.815c-0.893,0-1.617-0.724-1.617-1.616s0.724-1.616,1.617-1.616h171.161
			c0.893,0,1.617,0.724,1.617,1.616S578.868,1170.195,577.976,1170.195z"/>
		<path style="fill:#677CC1;" d="M577.092,1180.973H459.65c-0.893,0-1.617-0.724-1.617-1.616s0.724-1.616,1.617-1.616h117.441
			c0.893,0,1.617,0.724,1.617,1.616S577.984,1180.973,577.092,1180.973z"/>
		<path style="fill:#677CC1;" d="M449.723,1180.973h-42.908c-0.893,0-1.617-0.724-1.617-1.616s0.724-1.616,1.617-1.616h42.908
			c0.893,0,1.617,0.724,1.617,1.616S450.615,1180.973,449.723,1180.973z"/>
		<path style="fill:#677CC1;" d="M576.846,1191.749h-86.011c-0.893,0-1.617-0.724-1.617-1.616s0.724-1.616,1.617-1.616h86.011
			c0.893,0,1.617,0.724,1.617,1.616S577.738,1191.749,576.846,1191.749z"/>
		<path style="fill:#677CC1;" d="M483.405,1191.749h-76.59c-0.893,0-1.617-0.724-1.617-1.616s0.724-1.616,1.617-1.616h76.59
			c0.893,0,1.617,0.724,1.617,1.616S484.298,1191.749,483.405,1191.749z"/>
		<path style="fill:#677CC1;" d="M578.484,1159.607c0,0-0.001,0-0.002,0l-70.956-0.078c-0.893-0.001-1.616-0.726-1.615-1.618
			c0.001-0.892,0.725-1.614,1.617-1.614c0,0,0.001,0,0.002,0l70.956,0.078c0.893,0.001,1.616,0.726,1.615,1.618
			C580.1,1158.885,579.377,1159.607,578.484,1159.607z"/>
		<path style="fill:#677CC1;" d="M499.824,1159.521c0,0-0.001,0-0.002,0l-93.009-0.103c-0.893-0.001-1.616-0.726-1.615-1.618
			c0.001-0.892,0.725-1.614,1.617-1.614c0,0,0.001,0,0.002,0l93.009,0.103c0.893,0.001,1.616,0.726,1.615,1.618
			C501.439,1158.798,500.716,1159.521,499.824,1159.521z"/>
		<path style="fill:#CE3932;" d="M404.516,1493.748c-2.611,6.232-4.301,9.867-4.301,9.867
			c22.155,21.445,53.035,19.493,53.035,19.493s2.728-2.619,6.97-7.665C459.519,1515.354,419.767,1510.381,404.516,1493.748z"/>
		<path style="fill:#CE3932;" d="M372.349,1495.46l11.658,3.366c0.652-0.943,1.293-1.875,1.933-2.807h0.012
			c58.127-94.149,45.712-126.747,45.712-126.747l-10.388-1.514C421.275,1367.759,423.196,1428.261,372.349,1495.46z"/>
		<path style="fill:#CE4ABF;" d="M285.548,1280.237c0,0,51.745,34.252,139.674,0c0-1.467-0.012-3.063-0.058-4.775
			c-0.058-3.145-0.198-6.65-0.396-10.435c-0.885-16.899-3.133-39.155-6.778-57.253c-1.106-5.485-2.341-10.586-3.703-15.047
			c-6.44-28.103-27.404-51.232-46.492-60.526c-1.759-0.862-3.506-1.596-5.229-2.213c0,0-7.78,5.311-14.896,5.264
			c-9.142-0.058-13.894-4.076-13.894-4.076c-1.677,0.734-3.319,1.596-4.915,2.586c-18.098,11.39-30.63,40.483-33.064,87.65
			c-0.128,2.376-0.221,4.787-0.291,7.256C293.864,1251.028,292.571,1261.3,285.548,1280.237z"/>
		<path style="fill:#F99370;" d="M360.43,1175.332c33.263,28.223,56.13,96.877,107.547,93.75
			c31.488-6.159,49.095-36.233,63.658-61.526c2.296-4.412,4.438-8.722,6.427-13.314c4.615-9.832-9.542-18.474-16.186-10.046
			c-14.895,16.01-36.868,46.924-58.105,49.033c-12.45-5.78-19.715-20.291-27.432-31.624c-13.351-21.258-25.779-42.482-44.611-60.018
			c-22.503-20.162-53.138,12.812-31.277,33.764L360.43,1175.332z"/>
		<path style="fill:#CE3932;" d="M446.984,1357.388c0,0-25.782,2.969-41.843,1.985l22.82,8.386
			C427.961,1367.759,435.487,1363.732,446.984,1357.388z"/>
		<path style="fill:#F99370;" d="M527.109,1158.564c3.64,0.681,0.643,8.943,2.014,12.031c4.427-3.975,7.738-9.262,7.778-9.267
			c2.714-6.851,5.053-13.837,7.076-20.93c8.105-7.738-0.158,19.221-0.485,22.011c0.033,0.016,0.066,0.034,0.099,0.05
			c4.278-6.425,8.211-13.096,11.556-20.053c10.077-6.101-5.457,21.226-6.64,23.9c0.012,0.014,0.024,0.027,0.036,0.041
			c5.046-5.362,9.44-11.344,13.141-17.715c10.7-5.245-7.234,21.291-9.244,23.465c0.013,0.026,0.027,0.052,0.041,0.078
			c4.577-3.634,8.689-7.851,12.553-12.244c10.668-3.456-8.111,17.294-10.167,19.087c-0.798,1.946-8.366,9.675-19.434,16.81
			c-3.627,2.338-12.495-5.851-12.756-10.081c-0.245-3.966,0.88-9.267,1.233-11.193
			C523.987,1170.69,522.813,1159.75,527.109,1158.564z"/>
		<path style="fill:#A523A2;" d="M367.422,1202.358c0,0,13.352,46.596,56.718,72.358c0.364,0.217,0.687,0.501,1.025,0.745
			c-0.349-17.19-2.714-45.549-7.174-67.688L367.422,1202.358z"/>
		<path style="fill:#F99370;" d="M334.364,1114.739c22.105,8.847,41.189,6.064,52.3-5.247c17.945-18.268,0.618-39.773,0-59.184
			c-0.42-5.235-0.227-8.991-0.227-8.991C311.549,1049.696,330.407,1114.413,334.364,1114.739z"/>
		<path style="fill:#E57D61;" d="M349.122,1111.808c3.879-0.486,19.126-2.89,20.443-10.882c1.314-7.999,2.949-11.249,2.949-11.249
			l7.861-13.325c-1.934-12.253,6.033-25.622,6.284-26.034c0.004-0.01,0.004-0.01,0.004-0.01c-0.42-5.235-0.227-8.991-0.227-8.991
			c-1.85,0.301-3.644,0.629-5.384,0.983l-12.568,8.388l-14.036,14.104C354.45,1064.792,345.25,1112.292,349.122,1111.808z"/>
		<path style="fill:#8C4225;" d="M367.854,1007.12c4.71-0.489,14.112-4.407,21.734,2.805c5.718,5.411,2.043,6.889,6.186,16.834
			c2.922,7.014-0.631,13.095-7.841,19.439c-7.211,6.344-10.845,13.262-9.563,21.491s-9.687,20.392-11.342,25.803
			c-1.656,5.411,0.414,10.22-4.347,15.631c-4.761,5.411-11.038,2.073-16.655,2.809s-8.597,5.207-18.325,3.804
			c-9.728-1.403-10.781-7.648-12.626-12.625s-8.76-6.075-11.418-12.857c-2.657-6.782,1.208-10.69,0-17.654
			c-1.208-6.964-9.281-13.777-1.829-23.396c7.452-9.619,8.9-10.421,9.314-19.038s6.831-14.629,13.868-15.431
			c7.038-0.802,12.212-5.01,18.836-9.82C350.468,1000.106,360.13,1007.922,367.854,1007.12z"/>
		<path style="fill:#F99370;" d="M367.657,1082.026c2.121,6.172,7.871,9.792,12.844,8.085c4.973-1.707,7.284-8.095,5.163-14.267
			c-2.121-6.173-7.871-9.792-12.844-8.085C367.848,1069.465,365.536,1075.853,367.657,1082.026z"/>
		<path style="fill:#C16256;" d="M378.735,1072.127c-0.207-0.052-5.111-1.278-7.44,1.484c-0.594,0.702-0.937,1.596-1.062,2.651
			c0,0.003,0,0.005-0.001,0.007c-0.012,0.098-0.034,0.188-0.042,0.29c0,0.002-0.001,0.003-0.001,0.005c0,0,0.001,0.001,0,0.001
			c-0.142,1.955,0.465,4.469,1.826,7.527c0.153,0.341,0.527,0.517,0.88,0.43c0.043-0.01,0.085-0.026,0.128-0.043
			c0.385-0.171,0.559-0.624,0.388-1.008c-1.105-2.479-1.664-4.536-1.703-6.137c4.46,0.239,7.254,4.853,7.282,4.903
			c0.174,0.3,0.522,0.437,0.843,0.358c0.067-0.017,0.135-0.045,0.2-0.083c0.366-0.21,0.488-0.675,0.278-1.041
			c-0.136-0.231-3.192-5.395-8.432-5.705c0.128-0.451,0.309-0.852,0.577-1.171c1.711-2.03,5.859-1.001,5.898-0.991
			c0.413,0.102,0.822-0.145,0.929-0.552C379.388,1072.646,379.142,1072.232,378.735,1072.127z"/>
		<path style="fill:#CE4ABF;" d="M348.171,1160.14c-0.279,16.363,25.086,50.941,38.491,70.518
			c6.639,9.69,20.87,24.422,38.107,34.368c17.574,10.132,38.27,15.292,57.195,5.031c29.057-15.769,45.514-49.671,51.43-64.089
			c1.712-4.181,2.539-6.72,2.539-6.72c-10.412-2.236-17.097-11.6-17.097-11.6c-1.537,1.666-3.11,3.308-4.693,4.903
			c-18.576,18.704-39.481,31.713-51.814,28.219c-14.127-4.018-40.017-45.712-56.473-68.352
			c-12.065-16.608-27.962-20.975-36.744-22.093c-4.018-0.512-6.545-0.338-6.545-0.338s-4.414,4.321-8.35,10.994
			C351.106,1146.234,348.299,1152.943,348.171,1160.14z"/>
		<path style="fill:#A523A2;" d="M327.126,1131.944c0.524,0.582,1.095,1.2,1.735,1.817c1.293,1.246,2.842,2.516,4.74,3.634v0.012
			c3.831,2.306,9.084,4.064,16.444,4.006c1.479-0.012,2.865-0.163,4.169-0.431c7.023-1.456,11.541-6.138,13.58-8.781
			c0.885-1.118,1.316-1.875,1.316-1.875c-4.018-0.512-6.545-0.338-6.545-0.338s-7.78,5.311-14.896,5.264
			c-9.142-0.058-13.894-4.076-13.894-4.076S331.377,1131.269,327.126,1131.944z"/>
		<path style="fill:#A523A2;" d="M514.142,1192.552c4.705,10.214,19.239,13.417,19.239,13.417h0.012
			c1.712-4.181,2.539-6.72,2.539-6.72c-10.412-2.236-17.059-11.742-17.059-11.742
			C517.336,1189.172,515.726,1190.956,514.142,1192.552z"/>
		<path style="fill:#4867AA;" d="M333.659,1563.634c4.932,0,8.931-3.999,8.931-8.931v-164.069c0-4.932-3.999-8.931-8.931-8.931
			c-4.932,0-8.931,3.999-8.931,8.931v164.069C324.727,1559.635,328.726,1563.634,333.659,1563.634z"/>
		<path style="fill:#4867AA;" d="M247.15,1599.662c16.463-0.434,0.344-28.328,31.013-31.012c-0.001,0,113.559,0,113.559,0
			c12.175,0,22.081,9.905,22.081,22.081c0.008,11.661,17.839,11.684,17.863,0c0-22.024-17.919-39.943-39.943-39.943h-113.56
			C250.067,1547.332,223.066,1595.084,247.15,1599.662z"/>
		<path style="fill:#7689D6;" d="M316.495,1393.826h34.328c10.841-0.247,13.596-9.988,12.623-19.155h-59.573
			C302.9,1383.842,305.656,1393.58,316.495,1393.826z"/>
		<path style="fill:#1D3F70;" d="M312.588,1572.945h42.142c9.83-0.152,8.926-10.76,8.715-17.736
			c0.001-4.813-3.901-8.716-8.715-8.716h-42.142c-4.814,0-8.716,3.902-8.716,8.716
			C303.68,1562.189,302.734,1572.786,312.588,1572.945z"/>
		<path style="fill:#1D3F70;" d="M405.859,1590.731c0.379,22.181,33.373,22.178,33.749-0.001
			C439.229,1568.55,406.235,1568.553,405.859,1590.731z"/>
		<path style="fill:#1D3F70;" d="M230.275,1590.731c0.379,22.181,33.373,22.178,33.749-0.001
			C263.645,1568.55,230.651,1568.553,230.275,1590.731z"/>
		<path style="fill:#1D3F70;" d="M187.973,1111.99c0,0,46.746-0.022,71.642-0.009c9.855,0.005,19.319,3.569,26.402,9.947
			c12.32,11.093,24.895,22.273,32.115,28.466c56.228,48.235-32.794,207.39,79.181,208.385c17.02,0.151,31.351,7.597,43.545,17.528
			c7.669,6.246,15.246,23.101,0.249,23.258c-4.762,0.05-10.66-6.546-13.776-9.12c-9.797-9.119-22.823-14.139-36.688-14.139h-87.24
			c-98.451-1.654-71.593-121.717-71.073-179.516c0.245-27.229-36.826-51.931-53.418-69.715
			C171.393,1120.252,178.846,1111.99,187.973,1111.99z"/>
	</g>
	<g id="_x33_">
		<path style="fill:#F99370;" d="M2095.328,1385.176c-3.473,40.39-13.411,53.733-39.618,79.681
			c-31.392,31.082-75.716,38.62-112.222,24.881c-7.542-3.06-21.837-6.047-17.223-17.142c2.877-6.376,10.012-5.266,15.646-4.606
			c19.241,1.136,40.998,2.021,57.054-9.531c17.25-13.567,47.179-87.915,61.603-104.374
			C2088.635,1322.061,2090.627,1355.999,2095.328,1385.176z"/>
		<path style="fill:#CE3932;" d="M1939.29,1488.469c23.838,23.662,85.285,20.754,118.109-19.027
			c0.193-0.226,0.377-0.461,0.562-0.687c8.24-10.109,14.4-20.552,18.96-30.946c22.816-51.993,5.398-102.594,5.683-102.711
			c-35.648,11.542-68.22,101.638-88.521,115.963c-10.159,9.128-46.109,5.859-52.169,16.931
			C1941.913,1467.992,1943.137,1480.405,1939.29,1488.469z"/>
		<path style="fill:#F99370;" d="M1962.46,1778.875h67.977c3.105,0,5.552-2.602,5.397-5.699c-0.075-1.497-0.252-3.265-0.602-5.271
			c-0.983-5.662-1.392-11.402-1.289-17.143c0.047-2.748,0.212-5.497,0.495-8.238l4.894-47.687c0.326-3.182-2.174-5.948-5.376-5.948
			h-30.001c-3.252,0-5.767,2.847-5.362,6.069l5.457,43.451c1.194,9.506-4.937,18.373-14.246,20.687
			c-6.633,1.649-13.369,2.638-18.187,3.877c-0.621,0.165-1.242,0.33-1.84,0.503h-0.008c-5.109,1.456-9.331,3.366-11.773,6.949
			C1955.551,1774.014,1958.114,1778.875,1962.46,1778.875z"/>
		<path style="fill:#103663;" d="M2037.821,1771.832c-0.183,3.329-1.836,7.127-5.697,7.044c0,0-70.511,0-70.511,0
			c-3.644,0.005-6.228-3.643-4.934-7.044c2.737-7.688,12.46-19.146,45.779-21.025c4.784,0.465,15.693,2.097,31.486-0.045
			C2033.943,1750.762,2039.361,1759.271,2037.821,1771.832z"/>
		<path style="fill:#E8C0A6;" d="M1978.422,1769.345c0.187,0,0.379-0.035,0.564-0.11c0.766-0.312,1.135-1.183,0.825-1.951
			c-3.217-7.921-9.223-10.362-9.477-10.461c-0.773-0.299-1.639,0.075-1.942,0.843c-0.304,0.766,0.071,1.632,0.838,1.938l0,0
			c0.207,0.084,5.093,2.129,7.803,8.807C1977.27,1768.992,1977.83,1769.345,1978.422,1769.345z"/>
		<path style="fill:#E8C0A6;" d="M1990.065,1767.94c0.146,0,0.295-0.022,0.444-0.067c0.79-0.245,1.232-1.084,0.988-1.873
			c-2.765-8.914-10.368-12.945-10.689-13.11c-0.739-0.385-1.636-0.097-2.018,0.634c-0.383,0.731-0.099,1.634,0.633,2.019
			c0.069,0.034,6.828,3.654,9.21,11.342C1988.833,1767.527,1989.425,1767.94,1990.065,1767.94z"/>
		<path style="fill:#E8C0A6;" d="M2003.314,1766.314c0.164,0,0.33-0.028,0.493-0.084c0.781-0.271,1.193-1.125,0.922-1.905
			c-3.139-9.016-10.2-13.76-10.5-13.958c-0.687-0.456-1.615-0.269-2.074,0.419c-0.456,0.688-0.269,1.617,0.418,2.075
			c0.064,0.043,6.529,4.415,9.326,12.448C2002.115,1765.927,2002.694,1766.314,2003.314,1766.314z"/>
		<path style="fill:#0F2E54;" d="M1956.678,1771.832h81.142c-0.299,2.474-0.983,4.877-2.225,7.044h-73.983
			c-3.594,0-6.169-3.537-4.977-6.923C1956.65,1771.913,1956.664,1771.872,1956.678,1771.832z"/>
		<path style="fill:#F99370;" d="M2364.906,1770.369l-30.856-60.571c-1.409-2.767-4.839-3.766-7.528-2.222
			c-1.3,0.747-2.794,1.707-4.424,2.929c-4.599,3.446-9.528,6.416-14.69,8.93c-2.47,1.206-8.5-0.886-11.07,0.105l-41.208-3.392
			c-2.984,1.153-4.313,4.637-2.86,7.49l9.448,18.546c1.476,2.897,6.538,6.401,9.226,4.578l38.598,0.996
			c8.939,0,19.04-0.02,25.328,7.224c4.48,5.162,8.419,10.715,11.71,14.445c0.429,0.479,0.858,0.957,1.283,1.411l0.003,0.007
			c3.617,3.891,7.235,6.787,11.536,7.336C2363.71,1778.732,2366.879,1774.242,2364.906,1770.369z"/>
		<path style="fill:#103663;" d="M2324.423,1706.416c3.05-1.348,7.183-1.599,8.862,1.879c0,0,32.006,62.829,32.006,62.829
			c1.658,3.244-0.419,7.203-4.037,7.594c-8.093,1.05-22.716-2.412-39.514-31.247c-1.758-4.474-5.254-14.935-14.332-28.035
			C2307.408,1719.435,2312.532,1710.745,2324.423,1706.416z"/>
		<path style="fill:#E8C0A6;" d="M2349.168,1760.472c-0.085-0.167-0.203-0.322-0.354-0.453c-0.626-0.541-1.569-0.474-2.113,0.151
			c-5.597,6.462-5.047,12.921-5.019,13.192c0.084,0.825,0.811,1.426,1.633,1.348c0.82-0.077,1.422-0.804,1.346-1.626l0,0
			c-0.019-0.222-0.414-5.504,4.305-10.951C2349.377,1761.659,2349.437,1761,2349.168,1760.472z"/>
		<path style="fill:#E8C0A6;" d="M2342.632,1750.735c-0.066-0.13-0.153-0.253-0.261-0.365c-0.577-0.593-1.525-0.605-2.118-0.03
			c-6.688,6.51-6.828,15.114-6.83,15.475c-0.008,0.833,0.656,1.502,1.481,1.51c0.825,0.009,1.501-0.654,1.512-1.481
			c0-0.077,0.156-7.743,5.926-13.355C2342.823,1752.02,2342.923,1751.305,2342.632,1750.735z"/>
		<path style="fill:#E8C0A6;" d="M2335.17,1739.668c-0.074-0.146-0.175-0.281-0.299-0.401c-0.596-0.573-1.544-0.552-2.116,0.044
			c-6.608,6.89-7.631,15.334-7.671,15.691c-0.094,0.819,0.494,1.561,1.315,1.657c0.821,0.094,1.563-0.495,1.66-1.314
			c0.009-0.077,0.971-7.822,6.858-13.96C2335.369,1740.912,2335.451,1740.22,2335.17,1739.668z"/>
		<path style="fill:#0F2E54;" d="M2361.254,1778.718l-36.832-72.302c2.34-0.857,4.791-1.338,7.287-1.215l33.582,65.922
			c1.631,3.202-0.351,7.102-3.91,7.577C2361.34,1778.707,2361.297,1778.712,2361.254,1778.718z"/>
		<path style="fill:#F99370;" d="M2092.028,1332.619c-5.318-13.651-8.453-34.593-8.679-43.424
			c-0.788-17.416,27.063-17.914,26.971-0.568c-0.983-0.308,4.165,30.273,8.209,38.075c15.331,0.524-4.314,38.586-17.828,43.507
			C2090.858,1373.794,2085.911,1348.886,2092.028,1332.619z"/>
		<path style="fill:#E57D61;" d="M2110.214,1287.203c0.02,0.198,0.049,0.401,0.06,0.601c0.024,0.278,0.039,0.55,0.046,0.824
			c-0.714-0.243,1.913,16.686,5.042,28.652c-9.912,8.069-23.05,9.118-25.47,9.25c-3.825-12.514-5.975-28.707-6.489-34.84
			c-0.057-1.455-0.048-2.318-0.054-2.495c-0.007-0.396,0.004-0.789,0.032-1.178c0.269-4.082,2.365-7.677,5.486-9.967
			c0.007-0.002,0.007-0.002,0.007-0.002c2.169-1.585,4.822-2.534,7.708-2.594c2.856-0.052,5.522,0.782,7.73,2.256
			c0.096,0.056,0.187,0.121,0.275,0.179C2107.601,1280.013,2109.728,1283.344,2110.214,1287.203z"/>
		<path style="fill:#163260;" d="M2054.939,1279.979c0,0-5.92-13.311-6.034-24.334l9.275,0.187L2054.939,1279.979z"/>
		<path style="fill:#F99370;" d="M2072.706,1318.717c17.117,6.002,36.403-0.867,46.186-14.689l0.005-0.002
			c0.704-1.077,1.328-2.186,1.878-3.344l0.014-0.005c22.401-62.051-67.178-104.86-65.087-32.088
			C2054.818,1289.768,2043.704,1306.071,2072.706,1318.717z"/>
		<path style="fill:#F9F8F3;" d="M2072.499,1297.413l9.687-5.659c0,0,0.905,5.402-2.959,7.102
			C2075.535,1300.48,2072.499,1297.413,2072.499,1297.413z"/>
		<path style="fill:#C16256;" d="M2074.85,1275.864c-0.811-0.634-0.953-1.805-0.318-2.615c0.635-0.81,1.807-0.953,2.618-0.319
			c0.811,0.634,0.953,1.805,0.318,2.615C2076.833,1276.355,2075.661,1276.498,2074.85,1275.864z"/>
		<path style="fill:#C16256;" d="M2059.528,1280.104c-0.811-0.634-0.953-1.805-0.318-2.615c0.635-0.81,1.807-0.953,2.618-0.319
			c0.81,0.634,0.953,1.805,0.317,2.615C2061.511,1280.595,2060.339,1280.738,2059.528,1280.104z"/>
		<path style="fill:#C16256;" d="M2070.746,1292.675c1.045-0.344,2.031-0.869,2.757-1.541c0.287-0.264,0.303-0.711,0.04-0.996
			c-0.265-0.289-0.714-0.297-0.997-0.039c-1.823,1.684-5.36,2.028-6.229,1.252c-0.305-0.273-0.004-0.825,0.304-1.239
			c2.711-3.652,1.947-11.641,1.913-11.979c-0.039-0.388-0.384-0.671-0.772-0.631c-0.402,0.039-0.671,0.386-0.633,0.772
			c0.007,0.077,0.744,7.783-1.642,10.997c-1.301,1.752-0.512,2.772-0.113,3.13
			C2066.415,1293.334,2068.696,1293.349,2070.746,1292.675z"/>
		<path style="fill:#E57D61;" d="M2055.71,1263.489c6.919-9.098,25.591-12.436,33.723-16.3c0,0,4.761,14.764,23.478,18.149
			c7.164,12.279,11.883,16.899,5.982,38.69l0.005-0.002c0.704-1.077,1.328-2.186,1.878-3.344l0.014-0.005
			C2142.548,1241.326,2057.54,1196.864,2055.71,1263.489z"/>
		<path style="fill:#163260;" d="M2048.906,1241.665c22.626-43.236,75.124-8.186,78.105,2.893
			c3.73,13.864,0.153,22.634,0.153,22.634l-13.178-6.089c-16.404-4.096-22.638-18.438-22.638-18.438l0.002-0.003
			c-2.597,1.368-5.448,2.556-8.221,3.076c-8.591,1.612-20.393,5.95-27.569,13.166
			C2048.384,1266.12,2039.126,1260.352,2048.906,1241.665z"/>
		<path style="fill:#F99370;" d="M2130.389,1265.2c1.365,5.881-1.369,11.541-6.106,12.641c-4.737,1.1-9.683-2.775-11.048-8.656
			c-1.365-5.881,1.369-11.541,6.106-12.641C2124.078,1255.443,2129.025,1259.319,2130.389,1265.2z"/>
		<path style="fill:#C16256;" d="M2116.846,1262.871c0.137-0.142,3.381-3.51,6.563-2.487c0.81,0.259,1.517,0.792,2.133,1.559
			c0.002,0.002,0.002,0.004,0.004,0.005c0.057,0.072,0.119,0.131,0.175,0.207c0.001,0.001,0.002,0.002,0.003,0.003
			c0,0,0,0.001,0,0.001c1.071,1.464,1.828,3.733,2.261,6.799c0.047,0.342-0.16,0.664-0.479,0.769
			c-0.039,0.013-0.079,0.022-0.122,0.029c-0.385,0.054-0.744-0.215-0.798-0.6c-0.349-2.486-0.92-4.373-1.675-5.648
			c-3.38,2.376-3.308,7.365-3.305,7.418c0.01,0.321-0.195,0.599-0.486,0.694c-0.061,0.02-0.128,0.031-0.198,0.033
			c-0.39,0.015-0.714-0.29-0.729-0.679c-0.007-0.247-0.143-5.797,3.814-8.611c-0.321-0.291-0.66-0.516-1.027-0.635
			c-2.337-0.753-5.086,2.089-5.112,2.116c-0.274,0.283-0.716,0.29-0.999,0.023
			C2116.589,1263.599,2116.578,1263.154,2116.846,1262.871z"/>
		<path style="fill:#EB5648;" d="M2241.161,1526.408c-76.056,23.841-128.096,21.503-172.694-24.227
			c-12.076-27.411-3.252-43.668-5.925-72.931c-3.93-43.081,2.539-73.333,21.377-90.504c2.48-2.262,5.179-4.299,8.095-6.109
			c0.277,20.179,25.559,4.508,26.146-6.888c0,0,3.956-0.251,10.19,0.268c17.514,1.433,53.02,8.874,69.168,44.724
			c4.165,9.26,8.363,36.947,15.486,56.816C2221.845,1452.203,2241.161,1526.408,2241.161,1526.408z"/>
		<path style="fill:#CE3932;" d="M2128.35,1326.018c-0.981,2.02-11.062,22.081-26.405,23.095
			c-10.953,0.729-15.947-5.975-18.025-10.366c2.48-2.262,5.179-4.299,8.095-6.109c0.277,20.179,25.559,4.508,26.146-6.888
			C2118.16,1325.75,2122.116,1325.498,2128.35,1326.018z"/>
		<path style="fill:#1D3F70;" d="M2292.513,1702.675c0,0-5.457,0.31-13.721,0.536c-25.648,0.721-78.287,0.738-78.11-11.198
			c0.385-26.311,27.601-69.779,39.789-112.032c5.297-18.365,4.283-36,1.45-50.065c-0.241-1.196-0.496-2.367-0.761-3.511l0,0
			c-2.873-19.497-12.224-45.494-12.224-45.494s-14.223,3.412-48.741-8.284c-34.519-11.696-52.736-72.689-52.736-72.689
			c-1.02-12.533-2.829-43.526,0.963-74.089c0,0-5.71-1.575-10.263-0.099c0,0-8.977,33.112-7.035,76.951
			c-12.675,1.673-25.383,2.428-34.825,2.766c-0.419-10.681-0.041-41.87,15.717-72.826c0,0-5.534-0.709-9.413,2.456
			c0,0-24.699,32.005-21.745,81.268c-0.342,20.002-0.865,62.042,0.586,71.097c0.541,3.374,1.598,8.536,4.271,14.441
			c-46.308,2.795-88.093,21.073-91.608,72.391c-2.08,16.239,10.956,105.823,16.272,141.114c1.334,8.854,2.181,14.291,2.181,14.291
			s24.719,10.554,59.932,0.703c1.991-19.099,3.817-52.047,0.547-76.482c-2.493-25.682-3.335-44.887,18.837-49.565
			c6.317-1.144,24.07-1.211,41.036-0.939c-2.477,20.314-4.429,40.224-4.916,55.473c-1.802,56.393,9.773,116.927,75.596,119.341
			c45.698,1.676,88.202-9.371,109.92-16.277v-0.008c9.555-3.034,15.079-5.272,15.079-5.272
			C2310.081,1722.901,2292.513,1702.675,2292.513,1702.675z"/>
		<path style="fill:#C16256;" d="M2082.126,1267.644c-0.262,0.178-0.612,0.21-0.913,0.053c-5.216-2.731-10.129-0.733-10.178-0.713
			c-0.453,0.19-0.974-0.023-1.164-0.474c-0.19-0.453,0.021-0.974,0.471-1.163c0.23-0.098,5.712-2.357,11.696,0.775
			c0.435,0.228,0.604,0.765,0.375,1.201C2082.343,1267.455,2082.243,1267.564,2082.126,1267.644z"/>
		<path style="fill:#C16256;" d="M2064.955,1267.78c-0.13,0.088-0.285,0.143-0.454,0.152c-5.499,0.281-6.985,3.609-7,3.643
			c-0.192,0.451-0.715,0.661-1.167,0.468c-0.451-0.193-0.661-0.716-0.468-1.167c0.076-0.178,1.947-4.383,8.544-4.72
			c0.49-0.025,0.908,0.352,0.933,0.843C2065.361,1267.321,2065.204,1267.611,2064.955,1267.78z"/>
		<path style="fill:#F99370;" d="M2045.755,1503.536c0,0-21.243-8.465-37.399,1.342c-12.455,7.56-11.43,20.463-11.43,20.463
			s31.214,7.132,50.924-1.073L2045.755,1503.536z"/>
		<path style="fill:#103663;" d="M2234.812,1499.18c0,0-93.337,18.211-170.174,0.168v19.87c0,0,99.513,15.863,175.657,3.666
			C2240.294,1522.884,2240.765,1511.921,2234.812,1499.18z"/>
		<polygon style="fill:#F99370;" points="2061.441,1501.942 2043.79,1503.736 2043.79,1523.501 2062.276,1526.995 		"/>
		<path style="fill:#CE3932;" d="M2062.276,1526.995c36.237,25.76,126.444-12.027,143.356-59.302
			c23.107-64.593-9.566-146.118-77.21-141.842c0,0-6.609,35.806,1.232,91.451c10.88,77.204-58.773,66.799-69.396,86.435
			C2056.452,1510.77,2062.276,1526.995,2062.276,1526.995z"/>
		<path style="fill:#103663;" d="M2293.506,1761.945c9.557-3.034,15.084-5.274,15.084-5.274
			c1.49-33.772-16.075-53.991-16.075-53.991s-5.461,0.307-13.72,0.535C2278.795,1703.214,2298.39,1728.87,2293.506,1761.945z"/>
		<path style="fill:#103663;" d="M1990.378,1715.408c1.333,8.854,2.181,14.291,2.181,14.291s24.719,10.554,59.932,0.703
			c0,0,0.727-6.56,1.37-16.483l-0.036-0.024C2053.825,1713.895,2026.793,1726.125,1990.378,1715.408z"/>
		<path style="fill:#E57D61;" d="M1998.043,1522.127c0.11,0.025,0.228,0.019,0.343-0.024c8.136-3.061,21.726-2.988,21.863-2.987
			c0.332,0.003,0.603-0.264,0.605-0.596c0.002-0.332-0.266-0.603-0.596-0.606c-0.566-0.005-13.949-0.076-22.296,3.065
			c-0.31,0.117-0.467,0.464-0.35,0.774C1997.686,1521.948,1997.852,1522.084,1998.043,1522.127z"/>
		<path style="fill:#E57D61;" d="M2000.042,1516.393c0.129,0.029,0.269,0.016,0.397-0.048c6.53-3.223,17.549-3.99,17.659-3.998
			c0.331-0.022,0.582-0.308,0.559-0.639c-0.023-0.331-0.308-0.582-0.639-0.559c-0.461,0.031-11.366,0.79-18.111,4.119
			c-0.297,0.147-0.42,0.507-0.273,0.805C1999.717,1516.242,1999.871,1516.354,2000.042,1516.393z"/>
		<path style="fill:#E57D61;" d="M2004.389,1510.001c0.117,0.026,0.244,0.018,0.364-0.033c5.131-2.158,12.049-3.569,12.118-3.583
			c0.326-0.066,0.536-0.383,0.47-0.708c-0.066-0.325-0.382-0.538-0.707-0.47c-0.071,0.014-7.104,1.448-12.347,3.653
			c-0.306,0.129-0.449,0.481-0.321,0.787C2004.045,1509.833,2004.205,1509.96,2004.389,1510.001z"/>
		<path style="fill:#C16256;" d="M2072.5,1298.119c-0.242,0-0.479-0.125-0.61-0.35c-0.197-0.337-0.083-0.769,0.254-0.966
			l9.687-5.659c0.337-0.196,0.769-0.083,0.966,0.254c0.197,0.337,0.083,0.769-0.254,0.966l-9.687,5.659
			C2072.743,1298.088,2072.621,1298.119,2072.5,1298.119z"/>
		<path style="fill:#EB5648;" d="M2127.01,1244.558c0,0-34.904-18.16-80.324,12.224c0,0-15.644-45.985,36.461-54.367
			C2113.999,1197.452,2127.01,1244.558,2127.01,1244.558z"/>
		<path style="fill:#CE3932;" d="M2106.39,1239.448c0,0-15.666-3.484-28.192-1.477c-12.526,2.008-33.346,10.003-39.075,18.767
			c-5.729,8.764,7.564,0.044,7.564,0.044S2073.602,1237.477,2106.39,1239.448z"/>
		<path style="fill:#CE3932;" d="M2065.341,1207.761c0,0-18.42,14.502-15.407,40.139c0,0,20.902-8.346,21.521-8.477
			c0.62-0.131-5.484-21.54,8.069-36.486C2079.524,1202.937,2071.081,1201.7,2065.341,1207.761z"/>
		<path style="fill:#103663;" d="M2056.222,1614.448c3.37-5.839,8.602-9.059,15.654-10.092c10.092-1.478,22.767-1.421,41.035-0.94
			l1.801-17.069C2114.712,1586.347,2065.217,1587.142,2056.222,1614.448z"/>
		<path style="fill:#F99370;" d="M1937.925,1487.686c0,0-25.257,0-29.946-9.417c-5.628-11.305-10.507-22.152-3.679-22.976
			c6.828-0.824,25.648,7.224,29.04,10.061C1933.34,1465.353,1936.29,1472.81,1937.925,1487.686z"/>
		<polygon style="fill:#CE3932;" points="1894.968,1446.909 1893.13,1449.057 1863.788,1423.965 1864.672,1422.931 
			1865.625,1421.816 		"/>
		
			<rect x="1900.412" y="1436.943" transform="matrix(0.6507 -0.7593 0.7593 0.6507 -441.3305 1955.9105)" style="fill:#EB5648;" width="9.787" height="41.431"/>
		<path style="fill:#F99370;" d="M1914.971,1476.007c-0.326,0.286-0.407,0.34-0.585,0.476c-0.154,0.116-0.303,0.219-0.451,0.318
			c-0.297,0.198-0.597,0.373-0.904,0.537c-0.614,0.323-1.271,0.585-1.96,0.764c-0.685,0.182-1.406,0.276-2.105,0.256
			c-0.706-0.005-1.367-0.141-1.986-0.329c-1.833-0.555-2.629-2.641-1.778-4.66c0.6-1.423,1.858-2.432,3.19-2.71l2.027-0.417
			c0.04-0.008-0.049,0.004-0.033-0.001c0,0,0.034-0.006,0.078-0.03l0.061-0.037c0.008-0.006,0.012-0.008,0.012-0.008l-0.14,0.121
			c1.758-1.592,4.207-1.602,5.47-0.022C1917.13,1471.844,1916.729,1474.416,1914.971,1476.007z"/>
		<path style="fill:#F99370;" d="M1909.024,1471.913c-0.315,0.167-0.411,0.207-0.594,0.293l-0.47,0.201
			c-0.31,0.125-0.617,0.233-0.931,0.331c-0.628,0.194-1.286,0.34-1.981,0.416c-0.692,0.08-1.441,0.066-2.186-0.057
			c-0.751-0.119-1.496-0.401-2.166-0.782c-1.736-1.032-2.071-3.465-0.747-5.436c1.324-1.97,3.806-2.73,5.542-1.699
			c-0.071-0.061-0.137-0.02,0.066-0.037c0.095-0.012,0.232-0.037,0.389-0.085c0.078-0.024,0.161-0.053,0.236-0.084l0.105-0.044
			c0.007-0.001,0.101-0.051-0.027,0.018c2.046-1.117,4.323-0.463,5.087,1.46C1912.11,1468.332,1911.07,1470.796,1909.024,1471.913z"
			/>
		<path style="fill:#F99370;" d="M1901.812,1468.236l-4.04,0.402c-2.219,0.22-3.895-1.362-3.744-3.535
			c0.151-2.173,2.072-4.113,4.291-4.333l4.04-0.401c2.219-0.22,3.895,1.362,3.745,3.535
			C1905.952,1466.075,1904.031,1468.015,1901.812,1468.236z"/>
		<path style="fill:#F99370;" d="M1897.404,1463.323l-4.04,0.401c-2.219,0.22-3.895-1.362-3.744-3.535
			c0.151-2.172,2.072-4.112,4.291-4.333l4.04-0.402c2.219-0.221,3.895,1.362,3.745,3.535
			C1901.544,1461.163,1899.623,1463.103,1897.404,1463.323z"/>
		<path style="fill:#F99370;" d="M1924.37,1472.4c-5.079-7.029-11.622-14.01-20.041-16.713c-2.433-0.759-6.566-0.143-6.384-3.801
			c0.401-3.685,4.954-2.861,7.581-2.738c10.162,1.319,23.084,5.676,34.14,17.606C1948.105,1475.86,1929.965,1481.264,1924.37,1472.4
			z"/>
	</g>
	<g id="_x32_">
		<path style="fill:#CE3932;" d="M3184.966,1128.004c0,0-68.212,15.823-92.782,110.877l66.374,13.988L3184.966,1128.004z"/>
		<path style="fill:#F99370;" d="M3263.664,1757.975l1.205-0.629c0,0.843,1.043,3.773,1.887,3.773l35.639,0.734
			c0.844,0,1.363-1.588,1.363-2.432l3.04-0.87c0-5.337-0.439-7.272-2.797-11.402c-3.047-5.329-4.299-11.791-3.737-18.163
			l5.118-58.312c0.078-0.893-0.625-1.661-1.521-1.661h-36.564c-0.891,0-1.593,0.76-1.522,1.648l4.668,58.85
			c0.493,6.175-0.689,12.44-3.61,17.612c-0.007,0.025-0.021,0.041-0.035,0.066
			C3264.448,1751.313,3263.664,1752.655,3263.664,1757.975z"/>
		<path style="fill:#F99370;" d="M3104.371,1763.104h70.989c3.242,0,5.798-2.721,5.636-5.959c-0.078-1.566-0.263-3.413-0.628-5.512
			c-1.026-5.92-1.453-11.922-1.346-17.924c0.049-2.874,0.222-5.748,0.517-8.613l5.11-49.861c0.341-3.327-2.27-6.219-5.615-6.219
			h-31.33c-3.396,0-6.023,2.977-5.6,6.346l5.698,45.432c1.247,9.94-5.156,19.21-14.877,21.63
			c-6.927,1.724-13.961,2.758-18.993,4.053c-0.648,0.172-1.297,0.345-1.921,0.526h-0.008c-5.335,1.523-9.745,3.52-12.294,7.266
			C3097.156,1758.021,3099.832,1763.104,3104.371,1763.104z"/>
		<path style="fill:#103663;" d="M3183.07,1755.74c-0.138,1.141-0.354,2.268-0.664,3.366c-0.667,2.365-2.828,4-5.285,4h-73.635
			c-3.753,0-6.442-3.698-5.198-7.239c0.015-0.042,0.03-0.084,0.045-0.127c2.859-8.038,11.792-20.019,46.587-21.984
			c0,0,19.398,2.533,34.093,0.497c0,0,0.852,1.331,1.69,3.849C3182.14,1742.418,3183.859,1749.28,3183.07,1755.74z"/>
		<path style="fill:#103663;" d="M3301.151,1763.105h-31.472c-3.958,0-7.156-3.284-6.985-7.239c0.002-0.042,0.004-0.084,0.006-0.127
			c0.394-8.654,4.056-21.858,22.711-22.03c18.721-0.164,22.342,13.269,22.72,22.03c0.002,0.051,0.004,0.101,0.006,0.152
			C3308.29,1759.837,3305.1,1763.105,3301.151,1763.105z"/>
		<path style="fill:#E8C0A6;" d="M3121.04,1753.139c-0.619,0-1.204-0.369-1.45-0.977c-2.831-6.982-7.934-9.119-8.15-9.206
			c-0.798-0.324-1.188-1.233-0.868-2.033c0.319-0.799,1.221-1.191,2.023-0.876c0.265,0.105,6.537,2.656,9.895,10.94
			c0.324,0.801-0.062,1.713-0.862,2.038C3121.435,1753.101,3121.236,1753.139,3121.04,1753.139z"/>
		<path style="fill:#E8C0A6;" d="M3133.198,1751.671c-0.668,0-1.286-0.431-1.494-1.102c-2.488-8.039-9.547-11.824-9.618-11.861
			c-0.764-0.401-1.061-1.345-0.661-2.11c0.399-0.764,1.34-1.062,2.106-0.665c0.336,0.175,8.276,4.389,11.162,13.711
			c0.255,0.825-0.207,1.702-1.032,1.957C3133.507,1751.649,3133.351,1751.671,3133.198,1751.671z"/>
		<path style="fill:#E8C0A6;" d="M3147.035,1749.97c-0.647,0-1.253-0.405-1.478-1.051c-2.922-8.398-9.67-12.97-9.738-13.016
			c-0.718-0.478-0.914-1.449-0.436-2.168c0.477-0.719,1.444-0.917,2.166-0.44c0.312,0.206,7.683,5.166,10.964,14.595
			c0.284,0.816-0.147,1.708-0.964,1.992C3147.379,1749.943,3147.206,1749.97,3147.035,1749.97z"/>
		<path style="fill:#E8C0A6;" d="M3273.851,1743.067c-0.595,0-1.164-0.341-1.426-0.918c-0.357-0.787-0.008-1.715,0.779-2.071
			c0.556-0.252,13.735-6.103,24.287,0.075c0.746,0.436,0.996,1.395,0.56,2.14c-0.436,0.745-1.394,0.998-2.141,0.56
			c-9.172-5.369-21.293,0.019-21.414,0.075C3274.287,1743.022,3274.067,1743.067,3273.851,1743.067z"/>
		<path style="fill:#0F2E54;" d="M3098.333,1755.74h84.737c-0.312,2.586-1.026,5.099-2.324,7.365h-77.26
			c-3.753,0-6.442-3.698-5.198-7.239C3098.303,1755.824,3098.318,1755.782,3098.333,1755.74z"/>
		<path style="fill:#0F2E54;" d="M3301.151,1763.105h-31.472c-3.958,0-7.156-3.284-6.985-7.239l0.006-0.127h45.431
			c0.002,0.051,0.004,0.101,0.006,0.152C3308.29,1759.837,3305.1,1763.105,3301.151,1763.105z"/>
		<path style="fill:#F99370;" d="M3207.267,1118.145c-1.746-15.223,0.636-37.176,2.759-46.219c1.117-4.884,4.611-8.578,8.54-9.804
			c10.048-3.49,21.945,5.071,18.852,16.397c-0.911-0.573-3.828,31.72-1.815,40.685
			C3262.125,1127.16,3182.36,1153.323,3207.267,1118.145z"/>
		<path style="fill:#E57D61;" d="M3237.689,1077.049c-0.033,0.205-0.057,0.419-0.099,0.624c-0.049,0.287-0.107,0.567-0.172,0.846
			c-0.657-0.435-2.496,17.382-2.513,30.315c-12.152,5.526-25.7,3.095-28.18,2.586c-0.542-13.671,1.585-30.619,2.693-36.957
			c0.328-1.486,0.566-2.357,0.607-2.537c0.099-0.402,0.214-0.797,0.345-1.182c1.355-4.056,4.426-7.135,8.186-8.621
			c0.008,0,0.008,0,0.008,0c2.611-1.026,5.542-1.281,8.474-0.575c2.898,0.706,5.37,2.258,7.209,4.335
			c0.082,0.082,0.156,0.172,0.23,0.255C3236.958,1069.084,3238.222,1073.017,3237.689,1077.049z"/>
		<path style="fill:#EB5648;" d="M3133.48,1329.574c7.661,28.484,172.282,25.138,174.739,4.995l-4.929-58.593
			c-3.178-38.949-22.135-113.987-45.724-150.987c0,0-8.613-3.906-22.082-6.844c0,0-36.557,31.377-28.252,0.072
			c-12.234,2.129-19.611,7.161-19.611,7.161C3152.627,1173.069,3140.868,1273.939,3133.48,1329.574z"/>
		<path style="fill:#CE3932;" d="M3196.185,1125.654c3.052,23.214,40.889,8.529,50.292-4.627c0,0-4.513-2.818-10.992-2.882
			c-31.24,21.766-28.604,1.506-28.236,0.016c0,0-4.42-0.389-11.065,3.038C3196.031,1122.111,3196.185,1124.741,3196.185,1125.654z"
			/>
		<path style="fill:#1D3F70;" d="M3129.972,1350.312L3129.972,1350.312c1.73-31.798,18.357-180.088,44.344-217.167
			c2.469-5.373,13.306-7.767,13.306-7.767c-13.914,31.576-17.044,65.383-17.044,65.383s12.722,7.001,25.538,8.729
			c15.189,2.047,31.474-0.593,31.474-0.593c5.13-58.51,29.976-73.907,29.976-73.907c7.92,0.17,12.484,5.48,12.484,5.48
			c-32.241,88.897,33.24,145.507,33.24,145.507c2.714,24.119,7.112,77.919,7.112,77.919l0,0
			c5.141,34.588,9.847,180.129,2.829,369.048c0,0-35.482,8.153-53.761-0.608c-9.514-56.435-35.926-213.604-45.125-321.302
			c-0.352,6.28-19.678,259.541-23.357,321.302c-12.632,4-38.002,8.81-52.199-0.862
			C3133.245,1658.064,3105.108,1517.975,3129.972,1350.312z"/>
		<path style="fill:#103663;" d="M3190.988,1722.336c0,0-4.383,1.47-10.849,2.783l-0.104-0.025c0,0,17.828-251.337,20.484-284.878
			c2.656-33.541,13.826-39.182,13.826-39.182S3190.693,1716.908,3190.988,1722.336z"/>
		<path style="fill:#103663;" d="M3191.691,1710.151c-0.478,7.25-0.738,11.586-0.703,12.185c0,0-4.383,1.47-10.849,2.783
			c-11.518,2.34-29.632,4.188-41.35-3.646c0,0-0.451-3.982-1.189-11.323C3137.6,1710.151,3162.476,1720.973,3191.691,1710.151z"/>
		<path style="fill:#103663;" d="M3313.231,1722.943c0,0-35.482,8.153-53.761-0.608c0,0-0.755-4.368-2.075-12.185
			c0,0,24.181,6.626,55.454,0C3312.988,1717.77,3313.119,1722.311,3313.231,1722.943z"/>
		<path style="fill:#103663;" d="M3305.303,1299.494c0,0-104.96,20.206-169.432-2.989c0,0-4.486,12.546-2.186,19.404
			c0,0,66.293,22.843,173.649,2.05C3307.334,1317.959,3309.182,1307.64,3305.303,1299.494z"/>
		<path style="fill:#F99370;" d="M3276.292,1137.302c26.647,32.811,46.319,86.188,39.213,127.239
			c-16.229,77.171-88.814,64.981-135.363,21.654c-9.915-8.733,4.079-23.824,15.484-17.428c8.328,4.586,14.115,8.212,22.842,10.719
			c77.462,22.26,58.415-52.987,35.438-89.05L3276.292,1137.302z"/>
		<path style="fill:#CE3932;" d="M3187.47,1292.579c0,0,3.074,3.017,8.645,7.207c16.316,12.249,54.083,34.513,99.048,20.373
			c78.353-24.639,40.396-164.802-25.112-189.687c0,0-17.025,22.36-20.421,47.746c-2.762,20.61,2.998,39.924,11.038,54.423
			c24.79,44.728-25.434,43.262-49.155,40.359c-6.848-0.832-11.482-1.788-11.482-1.788
			C3199.965,1286.119,3187.47,1292.579,3187.47,1292.579z"/>
		<polygon style="fill:#CE4ABF;" points="3189.149,1327.806 3098.573,1325.437 3063.026,1172.392 3153.602,1174.761 		"/>
		<path style="fill:#F99370;" d="M3089.167,1271.763c-3.917,0.972-12.001-3.01-6.17-6.858c2.224-1.345,4.419-0.358,6.311,0.294
			l-0.189,0.02C3095.207,1264.633,3094.543,1271.203,3089.167,1271.763z"/>
		<path style="fill:#F99370;" d="M3086.681,1265.9c-2.711-0.173-5.773-1.022-7.184-3.542c-1.93-4.07,6.518-6.86,8.219-3.262
			c-0.024-0.08-0.103-0.079,0.077,0.002c0.175,0.076,0.51,0.152,0.736,0.174c0.007,0.002,0.114,0.008-0.034,0.001
			C3094.694,1259.837,3091.521,1266.325,3086.681,1265.9z"/>
		<path style="fill:#F99370;" d="M3083.848,1259.846l-3.807-1.196c-5.496-2.24,0.558-7.787,4.406-6.194c0,0,3.807,1.196,3.807,1.196
			C3093.75,1255.892,3087.696,1261.439,3083.848,1259.846z"/>
		<path style="fill:#F99370;" d="M3082.358,1254.188l-3.807-1.196c-5.496-2.24,0.558-7.787,4.406-6.194c0,0,3.807,1.196,3.807,1.196
			C3092.26,1250.234,3086.206,1255.781,3082.358,1254.188z"/>
		<path style="fill:#F99370;" d="M3195.789,1268.679c-0.914-1.694-2.386-3.325-3.769-4.775c-6.426-6.999-14.26-12.737-23.042-16.381
			c-3.491-1.45-7.128-2.523-10.808-3.238c-3.562-0.777-5.05,4.749-1.508,5.822c3.815,1.238,7.447,2.897,10.831,5.005
			c-4.518-1.693-9.263-3.139-13.974-4.197c-3.438-0.919-5.24,4.344-1.896,5.697c6.324,2.625,12.395,5.989,18.092,9.779
			c-5.983-2.322-11.829-4.982-17.543-7.908c-3.305-1.745-6.166,3.376-2.908,5.265c6.104,3.74,12.404,7.156,18.885,10.208
			c-3.398-1.094-6.853-2.385-10.17-3.701c-3.334-1.387-5.798,3.714-2.563,5.437c1.175,0.66,2.346,1.333,3.53,1.984
			c7.336,3.955,14.931,7.551,22.895,10.074C3182.993,1288.116,3197.14,1271.184,3195.789,1268.679z"/>
		<path style="fill:#8C4225;" d="M3186.157,1010.53c0,0-9.038-2.157-11.798,6.112c-2.76,8.269,3.849,11.528-0.292,19.282
			c-13.581,19.789,2.36,13.283,3.891,27.915C3179.077,1063.48,3205.984,1013.403,3186.157,1010.53z"/>
		<path style="fill:#F99370;" d="M3191.861,1103.428c12.996,7.492,29.456,6.08,41.216-0.103c4.923-2.481,9.201-5.94,12.315-10.428
			l0.016-0.005c12.236-19.69,8.733-51.538-6.381-68.188c-22.066-24.615-56.862-9.652-56.256,23.145
			c-0.337,5.107-2.01,11.095-4.811,15.985C3170.599,1076.99,3175.083,1093.155,3191.861,1103.428z"/>
		<path style="fill:#F9F8F3;" d="M3195.264,1084.706l14.183-13.054C3213.875,1081.055,3204.825,1090.701,3195.264,1084.706z"/>
		<path style="fill:#C16256;" d="M3201.571,1058.831c-1.764-1.87,1.213-4.599,2.922-2.677
			C3206.257,1058.024,3203.28,1060.752,3201.571,1058.831z"/>
		<path style="fill:#C16256;" d="M3184.771,1060.603c-1.765-1.87,1.213-4.599,2.922-2.677
			C3189.457,1059.796,3186.479,1062.524,3184.771,1060.603z"/>
		<path style="fill:#C16256;" d="M3195.538,1085.404c-0.729,0.315-1.4-0.715-0.783-1.25c0.507,0.036,14.761-14.779,15.244-13.011
			c0.28,0.305,0.26,0.78-0.043,1.06C3209.656,1072.408,3195.89,1085.283,3195.538,1085.404z"/>
		<path style="fill:#E57D61;" d="M3184.654,1034.586c12.166,6.72,23.626-11.694,27.342,2.328c1.414,5.899,11.583,1.216,13.606,3.605
			c2.014,2.391,2.012,8.014,5.397,10.896c3.385,2.882,16.607,3.905,16.607,3.905c0.509,12.774,5.126,22.543-4.276,40.206
			c0.738-0.831,1.427-1.711,2.062-2.628l0.016-0.005c12.234-19.689,8.733-51.538-6.381-68.188
			C3224.106,1005.874,3189.791,1009.29,3184.654,1034.586z"/>
		<path style="fill:#C16256;" d="M3196.289,1075.24c-3.505,1.368-10.628,0.66-6.867-3.973c3.063-2.959,3.629-11.171,3.635-11.253
			c0.047-0.966,1.575-0.877,1.496,0.097c-0.023,0.361-0.613,8.876-4.09,12.236c-0.395,0.381-0.808,0.908-0.535,1.248
			c0.774,0.966,4.553,1.222,6.747-0.226C3198.606,1072.876,3197.688,1075.156,3196.289,1075.24z"/>
		<path style="fill:#8C4225;" d="M3185.298,1030.021c0,0-6.904-5.802-1.952-13.182c4.951-7.379,2.221-15.619,11.58-16.726
			c9.36-1.107,13.003-0.954,22.014-6.298c9.012-5.344,19.885,1.722,21.231,8c1.347,6.278,14.432,2.633,18.707,10.443
			c4.275,7.809,3.024,10.858,4.032,14.477c1.008,3.619,13.741,5.173,13.918,14.424s-7.431,9.945-7.281,15.866
			s7.053,14.227,1.534,19.122c-8.184,7.259-18.032,3.439-18.032,3.439c7.212-41.459-15.775-17.272-19.458-38.684
			c-0.333-8.608-12.159-2.191-15.535-6.174C3201.276,1017.289,3205.586,1035.135,3185.298,1030.021z"/>
		<path style="fill:#F99370;" d="M3261.648,1057.343c1.125,15.057-17.891,16.264-18.677,1.184
			C3241.847,1043.471,3260.863,1042.264,3261.648,1057.343z"/>
		<path style="fill:#C16256;" d="M3257.998,1061.547c-2.17,0.08-0.202-8.305-3.513-9.144c-3.438-1.501-5.454,2.359-6.777,1.178
			c-0.795-1.341,3.982-3.977,7.461-2.514C3257.148,1051.85,3259.64,1057.197,3257.998,1061.547z"/>
		<path style="fill:#C16256;" d="M3250.972,1062.416c-2.927,1.353,1.44-10.931,6.314-9.081c0.138,0.391-0.07,0.824-0.458,0.957
			C3251.446,1056.422,3252.084,1061.84,3250.972,1062.416z"/>
		<path style="fill:#C16256;" d="M3210.094,1051.994c-0.326,0.128-0.706,0.01-0.898-0.298c-3.531-5.675-10.639-5.181-10.711-5.175
			c-0.406,0.032-0.763-0.271-0.796-0.678c-0.033-0.407,0.269-0.761,0.676-0.797c0.327-0.026,8.071-0.585,12.086,5.868
			c0.216,0.347,0.109,0.803-0.237,1.019C3210.176,1051.957,3210.135,1051.978,3210.094,1051.994z"/>
		<path style="fill:#C16256;" d="M3183.977,1052.261c-0.208,0.082-0.452,0.069-0.658-0.058c-0.347-0.214-0.457-0.668-0.244-1.016
			c0.136-0.222,3.406-5.448,9.347-5.188c0.408,0.018,0.724,0.363,0.707,0.771c-0.018,0.408-0.362,0.725-0.771,0.707
			c-5.057-0.219-7.993,4.438-8.022,4.485C3184.249,1052.103,3184.121,1052.205,3183.977,1052.261z"/>
	</g>
	<g id="_x31_">
		<path style="fill:#F99370;" d="M1038.718,1156.497l-13.355,2.735l3.32-16.657l5.691-8.491l8.069,5.754
			C1042.443,1139.838,1050.471,1149.861,1038.718,1156.497z"/>
		<path style="fill:#EB5648;" d="M1283.2,1016.323l31.202,107.581l29.587,102.014l0.208,0.704c0.496-0.208,0.984-0.424,1.464-0.648
			c7.711-3.551,13.981-8.798,18.877-15.365c22.58-30.242,16.125-88.416-12.022-137.231
			C1322.544,1021.378,1294.422,1017.234,1283.2,1016.323z"/>
		<path style="fill:#F99370;" d="M1118.292,1658.307l74.738,0.099c0.969-6.461-1.535-15.829-1.655-28.884
			c-0.222-24.276,5.257-67.19,5.257-67.19h-43.112l6.391,67.149c0,0,4.403,3.423-8.091,6.915
			c-13.861,4.713-28.681,3.055-38.105,12.807C1110.915,1652.954,1113.611,1658.301,1118.292,1658.307z"/>
		<path style="fill:#EB5648;" d="M1195.324,1651.173c-0.31,2.541-1.015,5.009-2.293,7.234l-75.884-0.101
			c-3.69-0.005-6.355-3.64-5.127-7.119c2.892-8.131,12.91-19.924,47.891-21.706c0,0,11.895,3.557,31.464,0.042
			C1191.375,1629.522,1196.596,1640.872,1195.324,1651.173z"/>
		<path style="fill:#E8C0A6;" d="M1134.381,1648.537c-0.608,0-1.183-0.364-1.426-0.963c-2.772-6.863-7.785-8.97-7.996-9.055
			c-3.949-6.17,7.478-1.769,10.847,7.905C1136.228,1647.405,1135.443,1648.558,1134.381,1648.537z"/>
		<path style="fill:#E8C0A6;" d="M1146.33,1647.111c-0.657,0-1.265-0.425-1.469-1.085c-2.435-7.902-9.365-11.632-9.435-11.668
			c-3.239-7.153,9.546,0.484,12.373,10.762C1148.116,1646.088,1147.342,1647.126,1146.33,1647.111z"/>
		<path style="fill:#E8C0A6;" d="M1159.927,1645.457c-0.636,0-1.232-0.399-1.453-1.034c-2.859-8.255-9.484-12.755-9.552-12.8
			c-1.667-1.079,0.056-3.688,1.702-2.561c0.307,0.204,7.543,5.086,10.755,14.354
			C1161.738,1644.39,1160.96,1645.475,1159.927,1645.457z"/>
		<path style="fill:#CE3932;" d="M1112.064,1651.062l83.259,0.111c-0.31,2.541-1.015,5.009-2.293,7.234l-75.884-0.101
			C1113.406,1658.306,1110.731,1654.557,1112.064,1651.062z"/>
		<path style="fill:#F99370;" d="M1360.932,1657.273l66.429-34.248c-2.107-6.185-8.636-13.355-14.74-24.895
			c-11.35-21.46-26.199-62.095-26.199-62.095l-38.293,19.806l36.526,56.707c0,0,5.483,1.017-4.01,9.859
			c-10.146,10.554-24.072,15.89-27.962,28.882C1351.92,1655.908,1356.771,1659.418,1360.932,1657.273z"/>
		<path style="fill:#EB5648;" d="M1426.076,1615.548c0.892,2.399,1.399,4.915,1.287,7.479l-67.448,34.773
			c-3.28,1.691-7.317-0.313-7.825-3.968c-1.167-8.551,2.314-23.628,32.565-41.282c0,0,12.2-2.305,27.966-14.418
			C1412.621,1598.131,1422.473,1605.814,1426.076,1615.548z"/>
		<path style="fill:#E8C0A6;" d="M1370.734,1641.204c-0.54,0.279-1.218,0.221-1.709-0.2c-5.615-4.823-11.036-4.392-11.262-4.37
			c-6.342-3.666,5.83-5.007,13.267,2.038C1371.854,1639.35,1371.687,1640.735,1370.734,1641.204z"/>
		<path style="fill:#E8C0A6;" d="M1380.692,1634.448c-0.584,0.302-1.319,0.204-1.803-0.289c-5.793-5.9-13.662-6.029-13.741-6.028
			c-6.164-4.865,8.702-3.956,15.934,3.874C1381.808,1632.719,1381.598,1633.996,1380.692,1634.448z"/>
		<path style="fill:#E8C0A6;" d="M1392.01,1626.732c-0.565,0.292-1.278,0.211-1.766-0.251c-6.332-6.019-14.284-6.972-14.365-6.981
			c-1.976-0.192-1.645-3.301,0.335-3.057c0.366,0.04,9.036,1.052,16.148,7.808
			C1393.128,1624.953,1392.935,1626.273,1392.01,1626.732z"/>
		<path style="fill:#CE3932;" d="M1352.072,1653.7l74.004-38.152c0.892,2.399,1.399,4.915,1.287,7.479l-67.448,34.773
			C1356.592,1659.518,1352.493,1657.417,1352.072,1653.7z"/>
		<path style="fill:#1D3F70;" d="M1134.698,1593.155c0.639,11.109,1.222,17.213,1.222,17.213
			c39.322,18.49,78.212,4.765,78.212,4.765c-5.824-157.212,45.714-303.675,45.028-294.37
			c-4.277,68.219,22.351,198.705,86.904,288.322l70.666-34.832c-82.518-124.074-45.922-233.288-69.677-343.552
			c-24.361-11.83-166.366-23.633-172.593-2.843C1127.639,1384.24,1131.745,1541.92,1134.698,1593.155z"/>
		<path style="fill:#CE3932;" d="M1314.402,1123.903l29.587,102.014l1.672,0.056c7.711-3.551,13.981-8.798,18.877-15.365
			c-3.16-37.665-16.021-63.277-22.972-89.136c-7.895-29.355-14.669-46.344-14.669-46.344L1314.402,1123.903z"/>
		<rect x="1248.28" y="985.134" style="fill:#F99370;" width="27.833" height="32.861"/>
		<path style="fill:#EB5648;" d="M1169.212,1246.137c0,0,113.956,33.602,182.159,4.431c0.008-0.056,10.318-24.18-8.271-96.343
			c-14.375-55.043-11.785-126.441-65.332-140.815l-31.194-1.296c-22.818,1.563-44.138,23.177-59.022,69.379
			c-6.025,20.134-9.459,39.129-13.397,63.557C1166.885,1191.763,1162.989,1242.314,1169.212,1246.137z"/>
		<path style="fill:#103663;" d="M1247.906,1011.758c20.475,6.75,28.608,0.017,28.608,0.017l-0.078-0.017l-0.322-8.524
			c0,0-8.246,4.662-27.833,0L1247.906,1011.758z"/>
		<path style="fill:#CE3932;" d="M1238.312,1013.411c0,0,8.645,10.866,23.898,11.954c15.245,1.088,25.117-8.586,25.117-8.586
			c-2.968-1.352-6.151-2.48-9.558-3.367l-31.194-1.296C1244.015,1012.115,1241.239,1012.531,1238.312,1013.411z"/>
		<path style="fill:#F99370;" d="M1277.772,995.123c-23.958,9.588-44.641,6.572-56.683-5.687c-19.449-19.799-0.669-43.106,0-64.145
			c0.456-5.674,0.247-9.745,0.247-9.745C1302.499,924.628,1282.061,994.77,1277.772,995.123z"/>
		<path style="fill:#F99370;" d="M1277.772,995.123v18.29c0,0-12.041,10.865-31.196-1.294v-27.463L1277.772,995.123z"/>
		<path style="fill:#E57D61;" d="M1261.777,991.947c-4.204-0.527-20.729-3.132-22.156-11.794c-1.424-8.67-3.196-12.192-3.196-12.192
			l-8.52-14.442c2.096-13.28-6.539-27.77-6.811-28.216c-0.004-0.011-0.004-0.011-0.004-0.011c0.456-5.674,0.247-9.745,0.247-9.745
			c2.005,0.326,3.949,0.682,5.835,1.066l13.621,9.091l15.212,15.286C1256.003,940.99,1265.974,992.471,1261.777,991.947z"/>
		<path style="fill:#662948;" d="M1231.67,948.888c0,0-0.895-18.746-10.302-29.188c-20.142-22.358,1.355-32.261,16.212-34.418
			c14.858-2.157,67.956,13.827,60.771,39.634c0,0,18.553,6.753,0.632,48.26c-6.248,14.471-21.21,21.947-21.21,21.947
			s-6.937-2.285-16-3.174c-6.529-0.64-16.76-5.455-17.701-11.948C1242.452,968.811,1238.944,953.749,1231.67,948.888z"/>
		<path style="fill:#F99370;" d="M1241.688,959.668c-2.299,6.69-8.531,10.613-13.92,8.762c-5.389-1.851-7.895-8.774-5.596-15.463
			c2.299-6.69,8.531-10.613,13.92-8.763C1241.481,946.055,1243.987,952.978,1241.688,959.668z"/>
		<path style="fill:#C16256;" d="M1229.682,948.939c0.224-0.056,5.54-1.385,8.064,1.608c0.643,0.761,1.015,1.73,1.151,2.874
			c0,0.003,0,0.005,0.001,0.008c0.012,0.107,0.037,0.204,0.045,0.315c0,0.002,0.001,0.004,0.001,0.005c0,0.001-0.001,0.001,0,0.001
			c0.154,2.119-0.504,4.844-1.979,8.158c-0.166,0.369-0.571,0.56-0.954,0.466c-0.046-0.011-0.092-0.028-0.139-0.047
			c-0.417-0.186-0.605-0.676-0.42-1.092c1.198-2.686,1.803-4.916,1.846-6.651c-4.834,0.259-7.863,5.26-7.893,5.314
			c-0.189,0.325-0.566,0.473-0.914,0.388c-0.073-0.018-0.146-0.049-0.217-0.09c-0.396-0.227-0.529-0.732-0.302-1.128
			c0.147-0.25,3.46-5.847,9.139-6.184c-0.138-0.489-0.335-0.923-0.626-1.269c-1.854-2.2-6.351-1.085-6.392-1.074
			c-0.448,0.11-0.892-0.157-1.007-0.598C1228.975,949.502,1229.241,949.054,1229.682,948.939z"/>
		<path style="fill:#EB5648;" d="M1038.718,1156.497c0,0,2.729,1.478,7.493,3.732c12.883,6.088,40.665,17.859,69.737,21.459
			c60.111,8.458,112.547-31.329,126-60.216c20.345-43.684-3.637-108.061-3.637-108.061s-32.119,9.093-49.859,34.551
			c-17.071,24.498-21.269,49.484-49.895,67.505c-19.851,12.498-49.231,17.623-90.449,21.757c-2.688,0.27-5.426,0.513-8.231,0.73
			C1039.876,1137.954,1044.633,1146.5,1038.718,1156.497z"/>
		<path style="fill:#CE3932;" d="M1038.718,1156.497c0,0,2.729,1.478,7.493,3.732c6.892-13.939,1.897-23.004,1.897-23.004
			c-2.688,0.27-5.426,0.513-8.231,0.73C1039.876,1137.954,1044.633,1146.5,1038.718,1156.497z"/>
		<path style="fill:#103663;" d="M1259.152,1320.846c0.007-0.055,0.007-0.082,0.007-0.082s11.356-10.127,15.744-25.576
			c0,0-7.539,59.625,5.788,123.068c11.782,56.13,40.984,129.027,71.188,175.429c38.114-8.878,57.153-31.351,57.153-31.351
			c4.697,7.69,7.697,11.92,7.697,11.92s-11.526,13.645-34.41,23.878c-16.799,7.512-36.255,10.954-36.255,10.954
			s-8.351-9.277-12.468-15.93C1282.109,1509.945,1255.053,1386.719,1259.152,1320.846z"/>
		<path style="fill:#103663;" d="M1134.698,1593.155c0.639,11.109,1.222,17.213,1.222,17.213
			c39.322,18.49,78.212,4.765,78.212,4.765c-0.089-5.033-0.377-9.939-0.383-14.862
			C1213.748,1600.272,1172.42,1611.35,1134.698,1593.155z"/>
		<path style="fill:#F99370;" d="M1023.499,1133.605c-10.087-2.015-20.627-1.573-30.412,1.573
			c-3.367,1.74-11.881,2.822-10.296,7.908c0.671,1.216,2.116,1.733,3.382,1.276c10.791-4.249,23.174-3.773,33.996,0.077
			C1027.698,1147.68,1031.559,1135.166,1023.499,1133.605z"/>
		<path style="fill:#F99370;" d="M1038.046,1154.842c0,0-13.325,7.747-24.628,3.468c-11.302-4.28-12.054-16.862-12.054-16.862
			S1030.899,1135.073,1038.046,1154.842z"/>
		<path style="fill:#F99370;" d="M1033.517,1134.593c0,0-19.214,0.356-31.506,9.368l29.742,2.303L1033.517,1134.593z"/>
		<path style="fill:#F99370;" d="M1005.878,1127.52c0.529,1.442,1.641,2.598,2.987,3.336c6.432,3.524,13.628,6.804,18.228,12.465
			c6.508,7.359,17.708-2.907,9.377-7.798C1033.646,1132.63,1002.667,1118.767,1005.878,1127.52z"/>
		<path style="fill:#E57D61;" d="M1011.79,1145.755c0.038-0.087,0.056-0.185,0.047-0.286c-0.028-0.323-0.312-0.562-0.635-0.534
			c-6.539,0.567-7.92,3.571-7.936,3.662c-0.128,0.298,0.01,0.644,0.308,0.771c0.297,0.127,0.638-0.007,0.769-0.301
			c0.026-0.053,1.242-2.467,6.96-2.962C1011.524,1146.086,1011.706,1145.946,1011.79,1145.755z"/>
		<path style="fill:#E57D61;" d="M1014.555,1151.881c0.042-0.095,0.059-0.203,0.043-0.314c-0.042-0.321-0.338-0.547-0.66-0.504
			c-4.682,0.627-6.241,2.696-6.305,2.784c-0.193,0.259-0.134,0.629,0.129,0.821c0.261,0.19,0.625,0.134,0.818-0.125
			c0.032-0.042,1.411-1.766,5.514-2.316C1014.306,1152.2,1014.476,1152.063,1014.555,1151.881z"/>
		<path style="fill:#CE3932;" d="M1247.748,1103.748c0,0-12.072,61.893-78.792,80.648l0.825-7.321
			C1169.781,1177.075,1228.531,1155.865,1247.748,1103.748z"/>
	</g>
</g>
</svg>
