<?xml version="1.0" encoding="utf-8"?>
<!-- Generator: Adobe Illustrator 27.5.0, SVG Export Plug-In . SVG Version: 6.00 Build 0)  -->
<svg version="1.1" id="Ñëîé_1" xmlns="http://www.w3.org/2000/svg" xmlns:xlink="http://www.w3.org/1999/xlink" x="0px" y="0px"
	 viewBox="0 0 566.93 283.46" style="enable-background:new 0 0 566.93 283.46;" xml:space="preserve">
<g>
	<defs>
		<rect id="SVGID_1_" y="-0.002" width="566.93" height="283.465"/>
	</defs>
	<clipPath id="SVGID_00000128469502229005464540000009190133983350326425_">
		<use xlink:href="#SVGID_1_"  style="overflow:visible;"/>
	</clipPath>
	
		<radialGradient id="SVGID_00000177463656431979942770000003242414067727579582_" cx="428.4669" cy="142.0648" r="453.6613" gradientUnits="userSpaceOnUse">
		<stop  offset="0" style="stop-color:#00325A"/>
		<stop  offset="0.1305" style="stop-color:#002241"/>
		<stop  offset="0.2801" style="stop-color:#00152D"/>
		<stop  offset="0.4503" style="stop-color:#000C1F"/>
		<stop  offset="0.6568" style="stop-color:#000717"/>
		<stop  offset="1" style="stop-color:#000514"/>
	</radialGradient>
	
		<rect x="0.002" y="0" style="clip-path:url(#SVGID_00000128469502229005464540000009190133983350326425_);fill:url(#SVGID_00000177463656431979942770000003242414067727579582_);" width="566.93" height="283.463"/>
	<g style="clip-path:url(#SVGID_00000128469502229005464540000009190133983350326425_);">
		<g style="opacity:0.15;">
			<polygon style="opacity:0.8;fill:#D4D4D4;" points="479.319,171.453 466.756,149.698 479.319,127.939 504.445,127.939 
				517.008,149.698 504.445,171.453 			"/>
			<polygon style="opacity:0.6;fill:#D4D4D4;" points="440.653,193.784 428.095,172.02 440.653,150.266 465.774,150.266 
				478.338,172.02 465.774,193.784 			"/>
			<polygon style="opacity:0.4;fill:#D4D4D4;" points="479.319,216.105 466.756,194.352 479.319,172.588 504.445,172.588 
				517.008,194.352 504.445,216.105 			"/>
			<polygon style="opacity:0.8;fill:#D4D4D4;" points="401.992,171.453 389.424,149.698 401.992,127.939 427.113,127.939 
				439.672,149.698 427.113,171.453 			"/>
			<polygon style="opacity:0.6;fill:#D4D4D4;" points="363.321,193.784 350.763,172.02 363.321,150.266 388.442,150.266 
				401.011,172.02 388.442,193.784 			"/>
			<polygon style="opacity:0.4;fill:#D4D4D4;" points="324.655,216.105 312.093,194.352 324.655,172.588 349.781,172.588 
				362.34,194.352 349.781,216.105 			"/>
			<polygon style="opacity:0.8;fill:#D4D4D4;" points="285.984,193.784 273.422,172.02 285.984,150.266 311.111,150.266 
				323.674,172.02 311.111,193.784 			"/>
			<polygon style="opacity:0.6;fill:#D4D4D4;" points="285.984,149.131 273.422,127.372 285.984,105.612 311.111,105.612 
				323.674,127.372 311.111,149.131 			"/>
			<polygon style="opacity:0.4;fill:#D4D4D4;" points="247.319,171.453 234.761,149.698 247.319,127.939 272.44,127.939 
				285.003,149.698 272.44,171.453 			"/>
			<polygon style="opacity:0.4;fill:#D4D4D4;" points="556.66,126.805 544.097,105.045 556.66,83.29 581.781,83.29 594.345,105.045 
				581.781,126.805 			"/>
			<polygon style="opacity:0.8;fill:#D4D4D4;" points="556.66,171.453 544.097,149.698 556.66,127.939 581.781,127.939 
				594.345,149.698 581.781,171.453 			"/>
			<polygon style="opacity:0.6;fill:#D4D4D4;" points="517.989,149.131 505.427,127.372 517.989,105.612 543.115,105.612 
				555.679,127.372 543.115,149.131 			"/>
			<polygon style="opacity:0.8;fill:#D4D4D4;" points="517.989,104.479 505.427,82.724 517.989,60.967 543.115,60.967 
				555.679,82.724 543.115,104.479 			"/>
			<polygon style="opacity:0.6;fill:#D4D4D4;" points="517.989,59.833 505.427,38.078 517.989,16.318 543.115,16.318 
				555.679,38.078 543.115,59.833 			"/>
			<polygon style="opacity:0.4;fill:#D4D4D4;" points="479.319,126.805 466.756,105.045 479.319,83.29 504.445,83.29 
				517.008,105.045 504.445,126.805 			"/>
			<polygon style="opacity:0.6;fill:#D4D4D4;" points="440.653,104.479 428.095,82.724 440.653,60.967 465.774,60.967 
				478.338,82.724 465.774,104.479 			"/>
			<polygon style="opacity:0.4;fill:#D4D4D4;" points="401.992,126.805 389.424,105.045 401.992,83.29 427.113,83.29 
				439.672,105.045 427.113,126.805 			"/>
		</g>
		<g style="opacity:0.2;">
			<path style="fill:#D4D4D4;" d="M275.109,160.731h-6.498v-6.496c0-0.866-0.708-1.573-1.574-1.573h-4.783
				c-0.865,0-1.574,0.707-1.574,1.573v6.496h-6.496c-0.866,0-1.574,0.708-1.574,1.574v4.784c0,0.866,0.708,1.574,1.574,1.574h6.496
				v6.498c0,0.865,0.709,1.574,1.574,1.574h4.783c0.866,0,1.574-0.709,1.574-1.574v-6.498h6.498c0.866,0,1.573-0.708,1.573-1.574
				v-4.784C276.683,161.439,275.976,160.731,275.109,160.731z"/>
			<path style="fill:#D4D4D4;" d="M454.715,56.618h-6.498v-6.496c0-0.866-0.708-1.573-1.574-1.573h-4.783
				c-0.865,0-1.574,0.707-1.574,1.573v6.496h-6.496c-0.866,0-1.574,0.708-1.574,1.574v4.784c0,0.866,0.708,1.574,1.574,1.574h6.496
				v6.498c0,0.865,0.709,1.574,1.574,1.574h4.783c0.866,0,1.574-0.709,1.574-1.574V64.55h6.498c0.866,0,1.573-0.708,1.573-1.574
				v-4.784C456.288,57.326,455.581,56.618,454.715,56.618z"/>
			<path style="fill:#D4D4D4;" d="M405.705,135.71h-6.498v-6.496c0-0.866-0.708-1.573-1.574-1.573h-4.783
				c-0.865,0-1.574,0.707-1.574,1.573v6.496h-6.496c-0.866,0-1.574,0.708-1.574,1.574v4.784c0,0.866,0.708,1.574,1.574,1.574h6.496
				v6.498c0,0.865,0.709,1.574,1.574,1.574h4.783c0.866,0,1.574-0.709,1.574-1.574v-6.498h6.498c0.866,0,1.573-0.708,1.573-1.574
				v-4.784C407.278,136.418,406.571,135.71,405.705,135.71z"/>
			<path style="fill:#D4D4D4;" d="M458.523,195.405h-6.498v-6.496c0-0.866-0.708-1.573-1.574-1.573h-4.783
				c-0.865,0-1.574,0.707-1.574,1.573v6.496h-6.496c-0.866,0-1.574,0.708-1.574,1.574v4.784c0,0.866,0.708,1.574,1.574,1.574h6.496
				v6.498c0,0.865,0.709,1.574,1.574,1.574h4.783c0.866,0,1.574-0.709,1.574-1.574v-6.498h6.498c0.866,0,1.573-0.708,1.573-1.574
				v-4.784C460.097,196.113,459.39,195.405,458.523,195.405z"/>
			<path style="fill:#D4D4D4;" d="M337.573,109.731h-6.498v-6.496c0-0.866-0.708-1.573-1.574-1.573h-4.783
				c-0.865,0-1.574,0.707-1.574,1.573v6.496h-6.496c-0.866,0-1.574,0.708-1.574,1.574v4.784c0,0.866,0.708,1.574,1.574,1.574h6.496
				v6.498c0,0.865,0.709,1.574,1.574,1.574h4.783c0.866,0,1.574-0.709,1.574-1.574v-6.498h6.498c0.866,0,1.573-0.708,1.573-1.574
				v-4.784C339.146,110.439,338.439,109.731,337.573,109.731z"/>
			<path style="fill:#D4D4D4;" d="M365.031,145.975h-10.952v-10.948c0-1.46-1.193-2.651-2.653-2.651h-8.061
				c-1.458,0-2.653,1.191-2.653,2.651v10.948h-10.948c-1.46,0-2.653,1.193-2.653,2.653v8.064c0,1.46,1.193,2.653,2.653,2.653h10.948
				v10.952c0,1.458,1.195,2.652,2.653,2.652h8.061c1.46,0,2.653-1.194,2.653-2.652v-10.952h10.952c1.46,0,2.651-1.193,2.651-2.653
				v-8.064C367.683,147.168,366.491,145.975,365.031,145.975z"/>
			<path style="fill:#D4D4D4;" d="M539.195,194.975h-10.952v-10.948c0-1.46-1.193-2.651-2.653-2.651h-8.062
				c-1.458,0-2.653,1.191-2.653,2.651v10.948h-10.948c-1.46,0-2.653,1.193-2.653,2.653v8.064c0,1.46,1.193,2.653,2.653,2.653h10.948
				v10.952c0,1.458,1.195,2.652,2.653,2.652h8.062c1.46,0,2.653-1.194,2.653-2.652v-10.952h10.952c1.46,0,2.651-1.193,2.651-2.653
				v-8.064C541.847,196.168,540.655,194.975,539.195,194.975z"/>
			<path style="fill:#D4D4D4;" d="M559.991,113.592h-13.767V99.83c0-1.835-1.5-3.332-3.335-3.332h-10.133
				c-1.833,0-3.335,1.497-3.335,3.332v13.762H515.66c-1.835,0-3.335,1.5-3.335,3.336v10.135c0,1.835,1.5,3.335,3.335,3.335h13.762
				v13.767c0,1.833,1.502,3.334,3.335,3.334h10.133c1.835,0,3.335-1.501,3.335-3.334v-13.767h13.767c1.835,0,3.333-1.5,3.333-3.335
				v-10.135C563.324,115.092,561.826,113.592,559.991,113.592z"/>
			<path style="fill:#D4D4D4;" d="M473.945,138.383h-10.952v-10.948c0-1.46-1.193-2.651-2.653-2.651h-8.061
				c-1.458,0-2.653,1.191-2.653,2.651v10.948h-10.948c-1.46,0-2.653,1.193-2.653,2.653v8.063c0,1.46,1.193,2.653,2.653,2.653h10.948
				v10.952c0,1.458,1.195,2.652,2.653,2.652h8.061c1.46,0,2.653-1.194,2.653-2.652v-10.952h10.952c1.46,0,2.651-1.193,2.651-2.653
				v-8.063C476.597,139.576,475.405,138.383,473.945,138.383z"/>
			<path style="fill:#D4D4D4;" d="M303.303,160.799h-6.785c-1.427,0-2.588-1.16-2.588-2.588v-8.863h-8.86
				c-1.427,0-2.588-1.16-2.588-2.587v-6.787c0-1.427,1.161-2.588,2.588-2.588h8.86v-8.86c0-1.425,1.161-2.586,2.588-2.586h6.785
				c1.427,0,2.588,1.161,2.588,2.586v8.86h8.863c1.425,0,2.586,1.161,2.586,2.588v6.787c0,1.427-1.161,2.587-2.586,2.587h-8.863
				v8.863C305.891,159.639,304.729,160.799,303.303,160.799z M285.069,138.096c-1.036,0-1.879,0.842-1.879,1.878v6.787
				c0,1.036,0.843,1.878,1.879,1.878h9.569v9.572c0,1.036,0.843,1.879,1.879,1.879h6.785c1.036,0,1.878-0.843,1.878-1.879v-9.572
				h9.573c1.034,0,1.877-0.842,1.877-1.878v-6.787c0-1.036-0.843-1.878-1.877-1.878h-9.573v-9.57c0-1.034-0.842-1.877-1.878-1.877
				h-6.785c-1.036,0-1.879,0.843-1.879,1.877v9.57H285.069z"/>
			<path style="fill:#D4D4D4;" d="M493.569,106.909h-6.785c-1.427,0-2.588-1.16-2.588-2.588v-8.863h-8.86
				c-1.427,0-2.588-1.16-2.588-2.587v-6.787c0-1.427,1.161-2.588,2.588-2.588h8.86v-8.86c0-1.425,1.161-2.586,2.588-2.586h6.785
				c1.427,0,2.588,1.161,2.588,2.586v8.86h8.863c1.425,0,2.586,1.161,2.586,2.588v6.787c0,1.427-1.161,2.587-2.586,2.587h-8.863
				v8.863C496.157,105.749,494.996,106.909,493.569,106.909z M475.336,84.206c-1.036,0-1.879,0.842-1.879,1.878v6.787
				c0,1.036,0.843,1.878,1.879,1.878h9.569v9.572c0,1.036,0.843,1.879,1.879,1.879h6.785c1.036,0,1.878-0.843,1.878-1.879v-9.572
				h9.573c1.034,0,1.877-0.842,1.877-1.878v-6.787c0-1.036-0.843-1.878-1.877-1.878h-9.573v-9.57c0-1.034-0.842-1.877-1.878-1.877
				h-6.785c-1.036,0-1.879,0.843-1.879,1.877v9.57H475.336z"/>
			<path style="fill:#D4D4D4;" d="M426.027,127.641h-6.785c-1.427,0-2.588-1.16-2.588-2.588v-8.863h-8.86
				c-1.427,0-2.588-1.16-2.588-2.587v-6.787c0-1.427,1.161-2.588,2.588-2.588h8.86v-8.86c0-1.425,1.161-2.586,2.588-2.586h6.785
				c1.427,0,2.588,1.161,2.588,2.586v8.86h8.863c1.425,0,2.586,1.161,2.586,2.588v6.787c0,1.427-1.161,2.587-2.586,2.587h-8.863
				v8.863C428.615,126.48,427.454,127.641,426.027,127.641z M407.794,104.938c-1.036,0-1.879,0.842-1.879,1.878v6.787
				c0,1.036,0.843,1.878,1.879,1.878h9.569v9.572c0,1.036,0.843,1.879,1.879,1.879h6.785c1.036,0,1.878-0.843,1.878-1.879v-9.572
				h9.573c1.034,0,1.877-0.842,1.877-1.878v-6.787c0-1.036-0.843-1.878-1.877-1.878h-9.573v-9.57c0-1.034-0.842-1.877-1.878-1.877
				h-6.785c-1.036,0-1.879,0.843-1.879,1.877v9.57H407.794z"/>
			<path style="fill:#D4D4D4;" d="M383.42,199.373h-5.715c-1.201,0-2.18-0.978-2.18-2.18v-7.465h-7.462
				c-1.202,0-2.18-0.977-2.18-2.179v-5.716c0-1.202,0.978-2.18,2.18-2.18h7.462v-7.463c0-1.2,0.978-2.178,2.18-2.178h5.715
				c1.201,0,2.18,0.977,2.18,2.178v7.463h7.465c1.2,0,2.178,0.978,2.178,2.18v5.716c0,1.202-0.978,2.179-2.178,2.179H385.6v7.465
				C385.6,198.395,384.621,199.373,383.42,199.373z M368.063,180.252c-0.873,0-1.583,0.709-1.583,1.582v5.716
				c0,0.873,0.71,1.582,1.583,1.582h8.06v8.062c0,0.873,0.71,1.582,1.582,1.582h5.715c0.873,0,1.582-0.709,1.582-1.582v-8.062h8.062
				c0.871,0,1.581-0.709,1.581-1.582v-5.716c0-0.873-0.71-1.582-1.581-1.582h-8.062v-8.061c0-0.871-0.709-1.58-1.582-1.58h-5.715
				c-0.872,0-1.582,0.709-1.582,1.58v8.061H368.063z"/>
			<path style="fill:#D4D4D4;" d="M233.118,167.264H228.8c-0.91,0-1.648-0.738-1.648-1.648v-5.643h-5.641
				c-0.908,0-1.648-0.739-1.648-1.647v-4.321c0-0.908,0.74-1.647,1.648-1.647h5.641v-5.641c0-0.907,0.738-1.646,1.648-1.646h4.318
				c0.908,0,1.648,0.739,1.648,1.646v5.641h5.643c0.906,0,1.646,0.739,1.646,1.647v4.321c0,0.908-0.74,1.647-1.646,1.647h-5.643
				v5.643C234.767,166.525,234.026,167.264,233.118,167.264z M221.511,152.81c-0.66,0-1.197,0.536-1.197,1.195v4.321
				c0,0.66,0.537,1.195,1.197,1.195h6.092v6.095c0,0.659,0.537,1.196,1.197,1.196h4.318c0.66,0,1.195-0.537,1.195-1.196v-6.095
				h6.096c0.658,0,1.195-0.535,1.195-1.195v-4.321c0-0.659-0.537-1.195-1.195-1.195h-6.096v-6.093c0-0.658-0.535-1.195-1.195-1.195
				H228.8c-0.66,0-1.197,0.537-1.197,1.195v6.093H221.511z"/>
			<path style="fill:#D4D4D4;" d="M492.337,178.36h-4.319c-0.909,0-1.648-0.738-1.648-1.647v-5.643h-5.641
				c-0.908,0-1.647-0.739-1.647-1.647v-4.321c0-0.908,0.739-1.647,1.647-1.647h5.641v-5.641c0-0.907,0.739-1.646,1.648-1.646h4.319
				c0.908,0,1.647,0.739,1.647,1.646v5.641h5.643c0.907,0,1.646,0.739,1.646,1.647v4.321c0,0.908-0.739,1.647-1.646,1.647h-5.643
				v5.643C493.984,177.622,493.245,178.36,492.337,178.36z M480.728,163.906c-0.659,0-1.196,0.536-1.196,1.195v4.321
				c0,0.66,0.537,1.195,1.196,1.195h6.093v6.095c0,0.659,0.536,1.196,1.196,1.196h4.319c0.659,0,1.195-0.537,1.195-1.196v-6.095
				h6.095c0.658,0,1.195-0.535,1.195-1.195v-4.321c0-0.659-0.537-1.195-1.195-1.195h-6.095v-6.093c0-0.658-0.536-1.195-1.195-1.195
				h-4.319c-0.66,0-1.196,0.537-1.196,1.195v6.093H480.728z"/>
		</g>
		<g>
			<path style="opacity:0.15;fill:#D4D4D4;" d="M191.467,143.281c0.5-0.348,0.847-0.899,0.847-1.553c0-0.653-0.347-1.201-0.845-1.55
				l17.89-30.99c0.249,0.118,0.521,0.194,0.815,0.194c0.996,0,1.789-0.767,1.892-1.736h35.803c0.102,0.969,0.895,1.736,1.892,1.736
				c0.27,0,0.527-0.057,0.76-0.159l17.901,31.003c-0.456,0.353-0.767,0.88-0.767,1.5c0,0.62,0.314,1.149,0.771,1.5l-17.908,31.02
				c-0.241-0.105-0.5-0.171-0.78-0.171c-0.997,0-1.79,0.768-1.889,1.741h-35.816c-0.098-0.973-0.891-1.741-1.888-1.741
				c-0.286,0-0.551,0.068-0.795,0.183L191.467,143.281z M251.667,176.007c0-0.645-0.337-1.188-0.824-1.539l17.908-31.018
				c0.254,0.121,0.531,0.205,0.83,0.205c0.996,0,1.787-0.768,1.89-1.736h35.801c0.1,0.969,0.893,1.736,1.887,1.736
				c0.268,0,0.521-0.054,0.75-0.152l17.875,30.966c-0.483,0.351-0.819,0.894-0.819,1.538c0,0.644,0.336,1.187,0.819,1.536
				l-17.89,30.987c-0.242-0.108-0.506-0.179-0.791-0.179c-0.997,0-1.789,0.768-1.889,1.74h-35.797c-0.1-0.973-0.896-1.74-1.892-1.74
				c-0.283,0-0.548,0.07-0.79,0.179l-17.892-30.987C251.329,177.193,251.667,176.65,251.667,176.007z M310.235,143.284
				c0.502-0.35,0.854-0.899,0.854-1.557c0-0.655-0.35-1.209-0.849-1.556l17.875-30.966c0.242,0.109,0.506,0.177,0.788,0.177
				c0.996,0,1.79-0.767,1.892-1.736h35.799c0.102,0.969,0.894,1.736,1.891,1.736c0.281,0,0.544-0.065,0.784-0.173l17.891,30.982
				c-0.485,0.353-0.822,0.895-0.822,1.539c0,0.646,0.341,1.191,0.829,1.54l-17.889,30.984c-0.243-0.11-0.508-0.179-0.793-0.179
				c-0.997,0-1.791,0.768-1.889,1.741h-35.814c-0.098-0.973-0.893-1.741-1.892-1.741c-0.28,0-0.541,0.067-0.781,0.172
				L310.235,143.284z M387.48,139.977l-17.891-30.985c0.484-0.35,0.821-0.894,0.821-1.538c0-0.646-0.338-1.19-0.827-1.542
				l17.891-30.986c0.245,0.113,0.512,0.183,0.796,0.183c0.998,0,1.79-0.767,1.892-1.739h35.799c0.1,0.972,0.893,1.739,1.889,1.739
				c0.282,0,0.545-0.066,0.787-0.177l17.887,30.986c-0.485,0.35-0.821,0.893-0.821,1.537c0,0.644,0.336,1.188,0.823,1.538
				l-17.888,30.983c-0.241-0.109-0.503-0.176-0.784-0.176c-0.999,0-1.792,0.77-1.89,1.742h-35.807
				c-0.1-0.971-0.893-1.742-1.891-1.742C387.986,139.799,387.721,139.868,387.48,139.977z M188.456,141.728
				c0,1.066,0.864,1.929,1.928,1.929c0.274,0,0.533-0.059,0.769-0.164l17.881,30.976c-0.484,0.352-0.82,0.894-0.82,1.538
				c0,1.063,0.865,1.927,1.93,1.927c0.997,0,1.79-0.767,1.888-1.738h35.816c0.099,0.972,0.892,1.738,1.889,1.738
				c0.284,0,0.548-0.069,0.79-0.179l17.893,30.989c-0.485,0.35-0.82,0.892-0.82,1.535c0,1.065,0.863,1.932,1.927,1.932
				c0.997,0,1.793-0.771,1.892-1.74h35.797c0.1,0.97,0.892,1.74,1.889,1.74c1.065,0,1.929-0.866,1.929-1.932
				c0-0.644-0.337-1.186-0.822-1.535l17.892-30.989c0.242,0.109,0.506,0.179,0.789,0.179c0.998,0,1.792-0.767,1.892-1.738h35.814
				c0.101,0.972,0.894,1.738,1.889,1.738c1.064,0,1.931-0.865,1.931-1.93c0-0.646-0.337-1.187-0.823-1.536l17.889-30.985
				c0.243,0.11,0.506,0.175,0.786,0.175c0.998,0,1.791-0.767,1.891-1.738h35.807c0.098,0.972,0.891,1.738,1.89,1.738
				c0.282,0,0.547-0.068,0.79-0.178l17.89,30.988c-0.484,0.352-0.823,0.895-0.823,1.536c0,1.064,0.865,1.93,1.928,1.93
				c0.999,0,1.791-0.767,1.893-1.738h35.8c0.097,0.972,0.891,1.738,1.888,1.738c1.064,0,1.93-0.863,1.93-1.927
				c0-0.645-0.336-1.188-0.823-1.539l17.891-30.987c0.244,0.112,0.506,0.18,0.793,0.18c0.997,0,1.791-0.77,1.892-1.741h35.788
				c0.1,0.972,0.893,1.741,1.889,1.741c0.285,0,0.55-0.067,0.792-0.18l17.883,30.98c-0.493,0.35-0.837,0.895-0.837,1.547
				c0,0.643,0.336,1.187,0.819,1.535l-17.889,30.99c-0.243-0.109-0.508-0.179-0.792-0.179c-0.995,0-1.789,0.768-1.889,1.738h-35.788
				c-0.101-0.971-0.896-1.738-1.892-1.738c-1.064,0-1.929,0.866-1.929,1.928c0,0.646,0.336,1.188,0.822,1.538l-17.892,30.987
				c-0.241-0.109-0.506-0.18-0.789-0.18c-1.064,0-1.928,0.864-1.928,1.928c0,1.065,0.864,1.93,1.928,1.93
				c0.284,0,0.548-0.068,0.792-0.18l17.889,30.989c-0.486,0.35-0.822,0.893-0.822,1.537c0,1.065,0.864,1.927,1.929,1.927
				c0.996,0,1.791-0.768,1.892-1.738h35.781c0.1,0.971,0.893,1.738,1.89,1.738c0.285,0,0.552-0.069,0.795-0.18l17.892,30.987
				c-0.487,0.351-0.826,0.894-0.826,1.539c0,1.063,0.862,1.929,1.927,1.929c0.997,0,1.791-0.77,1.892-1.739h35.798
				c0.1,0.97,0.892,1.739,1.889,1.739c1.065,0,1.932-0.866,1.932-1.929c0-0.643-0.338-1.185-0.822-1.533l17.893-30.989
				c0.243,0.108,0.506,0.176,0.787,0.176c0.998,0,1.79-0.768,1.889-1.738h35.798c0.1,0.971,0.893,1.738,1.889,1.738
				c0.284,0,0.549-0.069,0.791-0.179l17.892,30.989c-0.486,0.35-0.823,0.894-0.823,1.536c0,1.063,0.864,1.929,1.928,1.929
				c0.996,0,1.792-0.77,1.892-1.739h35.798c0.1,0.97,0.892,1.739,1.89,1.739c1.063,0,1.93-0.866,1.93-1.929
				c0-0.643-0.338-1.187-0.824-1.536l17.893-30.989c0.242,0.109,0.508,0.179,0.79,0.179c1.063,0,1.929-0.862,1.929-1.927
				c0-1.065-0.865-1.931-1.929-1.931c-0.284,0-0.548,0.069-0.792,0.18l-17.875-30.96c0.514-0.346,0.871-0.905,0.871-1.57
				c0-1.063-0.864-1.929-1.928-1.929c-0.998,0-1.793,0.773-1.891,1.746h-35.797c-0.098-0.973-0.892-1.746-1.892-1.746
				c-0.304,0-0.582,0.087-0.837,0.21l-17.892-30.983c0.513-0.349,0.871-0.907,0.871-1.572c0-1.063-0.865-1.927-1.928-1.927
				c-0.999,0-1.795,0.77-1.892,1.743H627.59c-0.101-0.971-0.894-1.738-1.891-1.738c-0.281,0-0.544,0.066-0.785,0.175l-17.89-30.983
				c0.486-0.352,0.823-0.895,0.823-1.538c0-0.636-0.33-1.174-0.807-1.526l17.92-31.037c0.257,0.125,0.533,0.211,0.837,0.211
				c1.065,0,1.929-0.864,1.929-1.928c0-1.065-0.863-1.93-1.929-1.93c-0.305,0-0.584,0.086-0.841,0.213l-17.892-30.988
				c0.514-0.345,0.873-0.905,0.873-1.571c0-1.063-0.864-1.927-1.928-1.927c-0.999,0-1.795,0.77-1.891,1.744h-35.816
				c-0.095-0.974-0.892-1.744-1.89-1.744c-0.297,0-0.57,0.08-0.821,0.201l-17.891-30.99c0.505-0.347,0.856-0.899,0.856-1.556
				c0-0.658-0.351-1.209-0.852-1.56l17.89-30.985c0.251,0.119,0.523,0.197,0.818,0.197c0.997,0,1.792-0.768,1.893-1.737v-0.377
				c-0.099-0.972-0.896-1.742-1.893-1.742c-0.297,0-0.568,0.08-0.819,0.199L547.697,6.178c0.495-0.349,0.84-0.899,0.84-1.549
				c0-0.655-0.348-1.204-0.846-1.553l-0.314-0.213c-0.235-0.104-0.496-0.164-0.768-0.164c-0.998,0-1.79,0.769-1.89,1.741h-35.8
				c-0.099-0.972-0.892-1.741-1.89-1.741c-0.294,0-0.566,0.077-0.815,0.194l-17.896-31.001c0.487-0.35,0.824-0.893,0.824-1.538
				c0-1.063-0.864-1.928-1.928-1.928c-0.998,0-1.792,0.768-1.892,1.74h-35.798c-0.1-0.971-0.893-1.74-1.892-1.74
				c-1.064,0-1.928,0.865-1.928,1.928c0,0.643,0.338,1.186,0.82,1.538L428.634,2.88c-0.242-0.11-0.507-0.179-0.791-0.179
				c-0.996,0-1.79,0.767-1.889,1.738h-35.797c-0.101-0.971-0.895-1.738-1.893-1.738c-0.28,0-0.544,0.065-0.784,0.173l-0.315,0.214
				c-0.488,0.349-0.829,0.893-0.829,1.54c0,0.644,0.337,1.188,0.822,1.539l-17.887,30.985c-0.242-0.109-0.506-0.178-0.788-0.178
				c-0.997,0-1.793,0.771-1.891,1.742v0.377c0.1,0.971,0.894,1.739,1.891,1.739c0.282,0,0.546-0.068,0.788-0.175l17.888,30.989
				c-0.482,0.35-0.815,0.891-0.815,1.533c0,0.642,0.334,1.184,0.817,1.536l-17.89,30.985c-0.242-0.108-0.506-0.176-0.788-0.176
				c-0.998,0-1.795,0.77-1.891,1.744h-35.799c-0.097-0.974-0.893-1.744-1.892-1.744c-1.064,0-1.929,0.866-1.929,1.931
				c0,0.643,0.339,1.188,0.824,1.539l-17.874,30.964c-0.235-0.102-0.493-0.161-0.766-0.161c-0.996,0-1.79,0.771-1.887,1.744h-35.801
				c-0.097-0.973-0.892-1.744-1.89-1.744c-0.307,0-0.587,0.088-0.845,0.217l-17.9-31.003c0.503-0.349,0.852-0.901,0.852-1.557
				c0-1.065-0.863-1.931-1.927-1.931c-0.999,0-1.796,0.77-1.892,1.744h-35.803c-0.099-0.974-0.895-1.744-1.892-1.744
				c-1.064,0-1.929,0.866-1.929,1.931c0,0.633,0.328,1.169,0.801,1.521l-17.892,30.99c-0.237-0.103-0.496-0.166-0.77-0.166
				C189.32,139.799,188.456,140.665,188.456,141.728z M428.637,6.379l8.938,15.483l8.951,15.504
				c-0.487,0.351-0.823,0.897-0.823,1.541c0,0.642,0.339,1.187,0.823,1.537l-17.889,30.985c-0.241-0.109-0.505-0.178-0.787-0.178
				c-0.996,0-1.792,0.77-1.889,1.742h-35.799c-0.096-0.973-0.893-1.742-1.892-1.742c-0.284,0-0.552,0.071-0.796,0.185
				l-17.891-30.991c0.488-0.349,0.827-0.893,0.827-1.537c0-0.644-0.334-1.186-0.817-1.538l17.886-30.985
				c0.24,0.109,0.503,0.176,0.785,0.176c0.998,0,1.793-0.769,1.893-1.741h35.797c0.099,0.972,0.893,1.741,1.889,1.741
				C428.129,6.56,428.393,6.49,428.637,6.379z M505.121,73.179c0,0.63,0.324,1.166,0.793,1.516l-17.891,30.987
				c-0.234-0.101-0.491-0.158-0.761-0.158c-1,0-1.795,0.77-1.892,1.744h-35.85c-0.097-0.974-0.893-1.744-1.892-1.744
				c-0.285,0-0.55,0.069-0.794,0.182L428.95,74.72c0.49-0.35,0.829-0.895,0.829-1.541c0-0.646-0.339-1.189-0.827-1.54l17.889-30.983
				c0.242,0.108,0.507,0.177,0.789,0.177c0.997,0,1.792-0.768,1.892-1.739h35.814c0.098,0.971,0.892,1.739,1.888,1.739
				c0.282,0,0.548-0.068,0.789-0.177l17.9,31.006C505.442,72.014,505.121,72.547,505.121,73.179z M505.102,4.628
				c0,0.633,0.326,1.171,0.8,1.522l-17.895,30.999c-0.241-0.108-0.504-0.175-0.784-0.175c-0.996,0-1.79,0.771-1.888,1.742h-35.814
				c-0.099-0.972-0.894-1.742-1.892-1.742c-0.284,0-0.548,0.07-0.79,0.179l-8.938-15.481L428.95,6.168
				c0.487-0.352,0.824-0.896,0.824-1.54c0-0.644-0.339-1.187-0.824-1.535l17.891-30.99c0.244,0.111,0.508,0.18,0.792,0.18
				c0.998,0,1.792-0.769,1.892-1.739h35.798c0.101,0.969,0.895,1.739,1.892,1.739c0.281,0,0.545-0.068,0.789-0.179l17.898,31.002
				C505.428,3.459,505.102,3.996,505.102,4.628z M547.391,71.409c-0.234-0.102-0.493-0.161-0.764-0.161
				c-0.997,0-1.791,0.771-1.89,1.744h-35.8c-0.098-0.973-0.893-1.744-1.89-1.744c-0.296,0-0.571,0.079-0.823,0.201l-17.897-31.006
				c0.487-0.351,0.826-0.895,0.826-1.537c0-0.646-0.337-1.189-0.825-1.542l17.895-30.998c0.246,0.116,0.517,0.19,0.808,0.19
				c0.998,0,1.791-0.769,1.89-1.739h35.8c0.1,0.97,0.892,1.739,1.89,1.739c0.272,0,0.532-0.06,0.768-0.162l17.896,30.994
				c-0.466,0.354-0.788,0.887-0.788,1.515c0,0.632,0.325,1.164,0.795,1.519L547.391,71.409z M667.204,278.832
				c0-0.645-0.337-1.188-0.82-1.537l17.91-31.022c0.256,0.123,0.531,0.207,0.834,0.207c0.994,0,1.785-0.767,1.889-1.736h35.801
				c0.104,0.97,0.896,1.736,1.89,1.736c0.263,0,0.513-0.054,0.741-0.149l17.877,30.965c-0.483,0.35-0.822,0.893-0.822,1.537
				c0,0.645,0.339,1.187,0.822,1.537l-17.892,30.988c-0.243-0.109-0.508-0.179-0.791-0.179c-0.998,0-1.79,0.767-1.89,1.739h-35.798
				c-0.1-0.973-0.896-1.739-1.892-1.739c-0.284,0-0.549,0.069-0.79,0.179l-17.89-30.988
				C666.867,280.019,667.204,279.477,667.204,278.832z M624.914,277.079l-17.893-30.987c0.486-0.352,0.822-0.895,0.822-1.536
				c0-0.643-0.338-1.183-0.822-1.533l17.891-30.985c0.241,0.109,0.504,0.177,0.787,0.177c0.996,0,1.792-0.769,1.891-1.742h35.863
				c0.103,0.969,0.894,1.737,1.89,1.737c0.263,0,0.513-0.058,0.741-0.152l17.893,30.989c-0.46,0.354-0.776,0.883-0.776,1.505
				c0,0.625,0.316,1.154,0.778,1.508l-17.909,31.022c-0.244-0.11-0.509-0.18-0.793-0.18c-0.996,0-1.789,0.77-1.889,1.741H627.59
				c-0.099-0.972-0.891-1.741-1.889-1.741C625.42,276.901,625.157,276.97,624.914,277.079z M547.657,280.365
				c0.483-0.35,0.817-0.893,0.817-1.533c0-0.639-0.331-1.178-0.811-1.53l17.891-30.986c0.239,0.105,0.5,0.17,0.779,0.17
				c0.997,0,1.792-0.769,1.892-1.742h35.798c0.1,0.974,0.892,1.742,1.889,1.742c0.284,0,0.549-0.068,0.792-0.18l17.888,30.989
				c-0.482,0.353-0.817,0.896-0.817,1.537c0,0.646,0.338,1.19,0.826,1.539l-17.893,30.988c-0.245-0.111-0.512-0.181-0.796-0.181
				c-0.997,0-1.789,0.767-1.889,1.739h-35.798c-0.101-0.973-0.894-1.739-1.892-1.739c-0.281,0-0.546,0.065-0.787,0.176
				L547.657,280.365z M547.346,212.032l17.888,30.985c-0.487,0.349-0.826,0.893-0.826,1.538c0,0.646,0.337,1.19,0.824,1.541
				l-17.888,30.987c-0.245-0.111-0.512-0.183-0.797-0.183c-0.997,0-1.79,0.77-1.89,1.741h-35.781
				c-0.1-0.972-0.896-1.741-1.892-1.741c-0.287,0-0.55,0.069-0.793,0.18l-17.889-30.986c0.488-0.352,0.824-0.895,0.824-1.539
				c0-0.643-0.339-1.188-0.824-1.536l17.889-30.987c0.242,0.111,0.506,0.182,0.793,0.182c0.996,0,1.792-0.769,1.892-1.742h35.788
				c0.1,0.974,0.893,1.742,1.889,1.742C546.838,212.214,547.102,212.144,547.346,212.032z M565.549,177.758
				c0.242,0.109,0.507,0.179,0.792,0.179c0.996,0,1.79-0.768,1.892-1.738h35.798c0.1,0.971,0.893,1.738,1.888,1.738
				c0.283,0,0.549-0.069,0.792-0.179l17.889,30.985c-0.488,0.35-0.828,0.894-0.828,1.539c0,0.646,0.337,1.188,0.821,1.538
				l-17.89,30.987c-0.242-0.109-0.507-0.18-0.79-0.18c-0.997,0-1.789,0.769-1.889,1.74h-35.798c-0.101-0.972-0.894-1.74-1.892-1.74
				c-0.278,0-0.54,0.064-0.779,0.169l-17.889-30.98c0.483-0.353,0.817-0.893,0.817-1.535c0-0.643-0.338-1.186-0.824-1.536
				L565.549,177.758z M547.683,143.27c0.487-0.352,0.823-0.896,0.823-1.54c0-0.641-0.334-1.182-0.816-1.534l17.904-31.014
				c0.251,0.121,0.522,0.2,0.819,0.2c0.994,0,1.786-0.767,1.889-1.736h35.818c0.104,0.969,0.895,1.736,1.89,1.736
				c0.263,0,0.511-0.056,0.738-0.149l17.894,30.992c-0.457,0.352-0.771,0.881-0.771,1.503c0,0.623,0.316,1.152,0.773,1.503
				l-17.919,31.039c-0.247-0.115-0.517-0.189-0.808-0.189c-0.993,0-1.787,0.768-1.888,1.737h-35.798
				c-0.102-0.97-0.895-1.737-1.892-1.737c-0.277,0-0.537,0.064-0.774,0.167L547.683,143.27z M497.276,124.499l-8.942-15.488
				c0.506-0.348,0.857-0.901,0.857-1.56c0-0.656-0.351-1.208-0.853-1.558l17.891-30.988c0.251,0.121,0.524,0.199,0.819,0.199
				c0.996,0,1.787-0.766,1.89-1.735h35.8c0.102,0.969,0.894,1.735,1.89,1.735c0.269,0,0.527-0.056,0.76-0.158l17.89,30.991
				c-0.469,0.351-0.791,0.884-0.791,1.514c0,0.63,0.322,1.162,0.788,1.515l-17.907,31.016c-0.241-0.11-0.506-0.18-0.79-0.18
				c-0.996,0-1.789,0.769-1.889,1.739h-35.788c-0.101-0.97-0.895-1.739-1.892-1.739c-0.285,0-0.549,0.07-0.792,0.18L497.276,124.499
				z M428.957,143.267c0.485-0.35,0.822-0.893,0.822-1.536c0-0.644-0.337-1.188-0.821-1.539l17.887-30.982
				c0.241,0.107,0.504,0.173,0.785,0.173c0.997,0,1.79-0.767,1.892-1.736h35.852c0.104,0.969,0.896,1.736,1.89,1.736
				c0.268,0,0.523-0.056,0.757-0.157l8.93,15.463l8.952,15.507c-0.485,0.349-0.822,0.892-0.822,1.535
				c0,0.643,0.337,1.188,0.822,1.537l-17.891,30.989c-0.244-0.112-0.508-0.181-0.793-0.181c-0.997,0-1.791,0.768-1.888,1.741h-35.8
				c-0.096-0.973-0.893-1.741-1.893-1.741c-0.284,0-0.548,0.068-0.79,0.181L428.957,143.267z"/>
			<path style="opacity:0.3;fill:#D4D4D4;" d="M246.519,142.971c0.4-0.278,0.677-0.719,0.677-1.242c0-0.523-0.277-0.962-0.676-1.242
				l14.321-24.808c0.199,0.095,0.417,0.156,0.651,0.156c0.798,0,1.433-0.615,1.515-1.39h28.66c0.082,0.775,0.717,1.39,1.515,1.39
				c0.216,0,0.422-0.046,0.609-0.127l14.329,24.818c-0.364,0.282-0.614,0.705-0.614,1.201c0,0.496,0.251,0.92,0.618,1.201
				l-14.337,24.831c-0.192-0.085-0.4-0.138-0.624-0.138c-0.799,0-1.434,0.616-1.513,1.393h-28.669
				c-0.079-0.777-0.714-1.393-1.512-1.393c-0.23,0-0.441,0.056-0.636,0.146L246.519,142.971z M294.709,169.169
				c0-0.517-0.27-0.952-0.661-1.233l14.338-24.829c0.201,0.099,0.424,0.164,0.664,0.164c0.797,0,1.43-0.613,1.513-1.389h28.658
				c0.08,0.776,0.714,1.389,1.51,1.389c0.215,0,0.417-0.043,0.601-0.121l14.309,24.788c-0.388,0.279-0.657,0.715-0.657,1.231
				c0,0.516,0.27,0.949,0.657,1.229l-14.319,24.806c-0.194-0.087-0.406-0.143-0.633-0.143c-0.799,0-1.434,0.614-1.513,1.392H310.52
				c-0.081-0.777-0.718-1.392-1.515-1.392c-0.227,0-0.439,0.056-0.633,0.143l-14.324-24.806
				C294.438,170.118,294.709,169.685,294.709,169.169z M341.592,142.974c0.402-0.279,0.684-0.719,0.684-1.246
				c0-0.525-0.28-0.967-0.681-1.246l14.31-24.788c0.194,0.087,0.404,0.142,0.631,0.142c0.799,0,1.434-0.615,1.516-1.39h28.654
				c0.082,0.775,0.717,1.39,1.515,1.39c0.226,0,0.436-0.053,0.629-0.139l14.319,24.802c-0.387,0.282-0.656,0.716-0.656,1.231
				c0,0.517,0.272,0.953,0.663,1.232l-14.32,24.804c-0.194-0.089-0.406-0.145-0.635-0.145c-0.798,0-1.434,0.616-1.512,1.393H358.04
				c-0.079-0.777-0.716-1.393-1.514-1.393c-0.225,0-0.435,0.055-0.626,0.139L341.592,142.974z M403.426,140.327l-14.32-24.804
				c0.389-0.279,0.658-0.714,0.658-1.231c0-0.516-0.272-0.952-0.663-1.233l14.322-24.804c0.196,0.09,0.407,0.145,0.636,0.145
				c0.798,0,1.434-0.614,1.515-1.391h28.657c0.079,0.777,0.714,1.391,1.511,1.391c0.226,0,0.437-0.052,0.63-0.14l14.318,24.803
				c-0.388,0.28-0.656,0.715-0.656,1.229c0,0.517,0.269,0.952,0.659,1.231l-14.319,24.802c-0.193-0.087-0.402-0.141-0.63-0.141
				c-0.798,0-1.433,0.617-1.512,1.396h-28.662c-0.08-0.778-0.715-1.396-1.513-1.396C403.83,140.184,403.619,140.239,403.426,140.327
				z M244.108,141.73c0,0.851,0.691,1.543,1.542,1.543c0.22,0,0.428-0.047,0.616-0.13l14.314,24.795
				c-0.388,0.282-0.658,0.715-0.658,1.231c0,0.851,0.693,1.542,1.546,1.542c0.798,0,1.433-0.614,1.512-1.393h28.669
				c0.079,0.778,0.714,1.393,1.513,1.393c0.227,0,0.438-0.055,0.632-0.144l14.324,24.808c-0.388,0.279-0.657,0.713-0.657,1.229
				c0,0.853,0.69,1.545,1.543,1.545c0.797,0,1.435-0.615,1.515-1.394h28.655c0.079,0.778,0.714,1.394,1.513,1.394
				c0.851,0,1.542-0.692,1.542-1.545c0-0.516-0.269-0.949-0.657-1.229l14.32-24.808c0.195,0.089,0.406,0.144,0.634,0.144
				c0.798,0,1.433-0.614,1.514-1.393h28.668c0.08,0.778,0.716,1.393,1.512,1.393c0.853,0,1.546-0.692,1.546-1.546
				c0-0.516-0.27-0.948-0.66-1.229l14.32-24.803c0.194,0.088,0.404,0.14,0.631,0.14c0.798,0,1.433-0.614,1.513-1.391h28.662
				c0.079,0.777,0.714,1.391,1.512,1.391c0.228,0,0.439-0.054,0.634-0.143l14.32,24.806c-0.388,0.281-0.657,0.716-0.657,1.229
				c0,0.854,0.691,1.546,1.542,1.546c0.8,0,1.434-0.614,1.515-1.393h28.656c0.079,0.778,0.714,1.393,1.513,1.393
				c0.852,0,1.545-0.691,1.545-1.542c0-0.517-0.27-0.952-0.659-1.233l14.321-24.804c0.194,0.089,0.405,0.144,0.634,0.144
				c0.798,0,1.436-0.616,1.515-1.394h28.648c0.08,0.778,0.715,1.394,1.512,1.394c0.229,0,0.44-0.055,0.634-0.144l14.315,24.798
				c-0.395,0.28-0.67,0.719-0.67,1.24c0,0.515,0.27,0.95,0.655,1.229l-14.319,24.806c-0.194-0.087-0.406-0.144-0.634-0.144
				c-0.796,0-1.432,0.616-1.511,1.394h-28.65c-0.08-0.777-0.716-1.394-1.514-1.394c-0.852,0-1.542,0.693-1.542,1.544
				c0,0.516,0.268,0.951,0.655,1.231l-14.32,24.805c-0.193-0.087-0.404-0.144-0.632-0.144c-0.853,0-1.544,0.691-1.544,1.544
				c0,0.852,0.691,1.544,1.544,1.544c0.228,0,0.439-0.055,0.634-0.143l14.318,24.805c-0.388,0.28-0.655,0.716-0.655,1.232
				c0,0.851,0.69,1.542,1.542,1.542c0.798,0,1.434-0.614,1.514-1.392h28.643c0.08,0.777,0.716,1.392,1.513,1.392
				c0.228,0,0.441-0.056,0.636-0.145l14.322,24.807c-0.39,0.28-0.662,0.713-0.662,1.231c0,0.851,0.692,1.543,1.543,1.543
				c0.798,0,1.435-0.614,1.516-1.392h28.654c0.079,0.777,0.715,1.392,1.513,1.392c0.854,0,1.547-0.692,1.547-1.543
				c0-0.515-0.271-0.947-0.658-1.228l14.322-24.807c0.194,0.088,0.404,0.141,0.63,0.141c0.799,0,1.433-0.614,1.513-1.392h28.655
				c0.079,0.777,0.715,1.392,1.512,1.392c0.228,0,0.439-0.055,0.634-0.143l14.32,24.807c-0.389,0.279-0.657,0.715-0.657,1.23
				c0,0.851,0.691,1.543,1.543,1.543c0.797,0,1.434-0.614,1.515-1.392h28.655c0.079,0.777,0.714,1.392,1.513,1.392
				c0.852,0,1.544-0.692,1.544-1.543c0-0.515-0.271-0.95-0.659-1.23l14.324-24.807c0.193,0.088,0.404,0.143,0.633,0.143
				c0.852,0,1.542-0.691,1.542-1.542c0-0.853-0.69-1.547-1.542-1.547c-0.229,0-0.439,0.057-0.635,0.145l-14.309-24.784
				c0.41-0.277,0.696-0.724,0.696-1.257c0-0.85-0.691-1.544-1.543-1.544c-0.8,0-1.435,0.618-1.513,1.397h-28.656
				c-0.078-0.779-0.714-1.397-1.513-1.397c-0.244,0-0.467,0.07-0.672,0.17l-14.321-24.803c0.409-0.28,0.697-0.727,0.697-1.26
				c0-0.851-0.692-1.542-1.545-1.542c-0.799,0-1.436,0.616-1.512,1.396h-28.707c-0.08-0.777-0.717-1.394-1.515-1.394
				c-0.224,0-0.435,0.055-0.628,0.142L579.171,170.4c0.389-0.28,0.659-0.716,0.659-1.23c0-0.51-0.266-0.94-0.648-1.222
				l14.347-24.845c0.204,0.099,0.426,0.167,0.669,0.167c0.852,0,1.543-0.69,1.543-1.542c0-0.852-0.691-1.545-1.543-1.545
				c-0.244,0-0.468,0.069-0.673,0.17l-14.323-24.805c0.411-0.277,0.698-0.724,0.698-1.258c0-0.851-0.691-1.543-1.543-1.543
				c-0.8,0-1.436,0.616-1.513,1.396h-28.67c-0.078-0.78-0.716-1.396-1.515-1.396c-0.236,0-0.457,0.063-0.659,0.16l-14.319-24.806
				c0.405-0.278,0.686-0.721,0.686-1.247c0-0.526-0.28-0.967-0.682-1.248l14.321-24.805c0.2,0.096,0.418,0.159,0.653,0.159
				c0.798,0,1.436-0.615,1.516-1.392v-0.301c-0.08-0.778-0.717-1.395-1.516-1.395c-0.236,0-0.454,0.064-0.655,0.159l-14.326-24.812
				c0.397-0.279,0.672-0.719,0.672-1.24c0-0.524-0.278-0.963-0.676-1.243l-0.252-0.169c-0.189-0.084-0.397-0.132-0.615-0.132
				c-0.798,0-1.433,0.616-1.513,1.394h-28.657c-0.079-0.778-0.714-1.394-1.512-1.394c-0.236,0-0.453,0.062-0.653,0.156
				L484.146,5.775c0.391-0.278,0.659-0.713,0.659-1.23c0-0.851-0.691-1.544-1.543-1.544c-0.798,0-1.435,0.616-1.515,1.393h-28.655
				c-0.08-0.777-0.717-1.393-1.516-1.393c-0.85,0-1.543,0.693-1.543,1.544c0,0.514,0.272,0.949,0.659,1.23l-14.324,24.807
				c-0.193-0.088-0.404-0.143-0.633-0.143c-0.798,0-1.433,0.615-1.512,1.391h-28.655c-0.081-0.776-0.717-1.391-1.516-1.391
				c-0.225,0-0.435,0.052-0.628,0.139l-0.251,0.17c-0.392,0.28-0.663,0.716-0.663,1.233c0,0.516,0.27,0.952,0.656,1.231
				l-14.317,24.804c-0.193-0.087-0.405-0.142-0.631-0.142c-0.798,0-1.435,0.616-1.515,1.395v0.301
				c0.081,0.778,0.717,1.393,1.515,1.393c0.226,0,0.438-0.054,0.631-0.14l14.319,24.805c-0.387,0.281-0.654,0.713-0.654,1.228
				c0,0.514,0.27,0.948,0.656,1.229l-14.321,24.805c-0.193-0.087-0.405-0.142-0.631-0.142c-0.8,0-1.436,0.616-1.515,1.396h-28.654
				c-0.078-0.78-0.716-1.396-1.516-1.396c-0.853,0-1.543,0.693-1.543,1.544c0,0.517,0.272,0.952,0.66,1.232l-14.309,24.787
				c-0.188-0.081-0.394-0.128-0.612-0.128c-0.796,0-1.433,0.617-1.51,1.396h-28.658c-0.079-0.78-0.715-1.396-1.513-1.396
				c-0.246,0-0.471,0.07-0.678,0.174l-14.329-24.817c0.401-0.28,0.681-0.722,0.681-1.248c0-0.852-0.69-1.544-1.542-1.544
				c-0.799,0-1.436,0.616-1.515,1.396h-28.66c-0.079-0.78-0.714-1.396-1.515-1.396c-0.852,0-1.543,0.693-1.543,1.544
				c0,0.508,0.263,0.937,0.642,1.218l-14.322,24.809c-0.19-0.083-0.398-0.134-0.618-0.134
				C244.8,140.184,244.108,140.877,244.108,141.73z M436.371,33.382l7.155,12.394l7.167,12.412c-0.392,0.28-0.66,0.717-0.66,1.232
				c0,0.514,0.27,0.95,0.66,1.23l-14.322,24.803c-0.191-0.088-0.404-0.142-0.63-0.142c-0.797,0-1.434,0.616-1.511,1.394h-28.657
				c-0.078-0.777-0.716-1.394-1.515-1.394c-0.229,0-0.441,0.057-0.637,0.147l-14.321-24.807c0.39-0.28,0.663-0.714,0.663-1.232
				c0-0.515-0.27-0.948-0.656-1.23l14.317-24.803c0.194,0.087,0.403,0.14,0.629,0.14c0.799,0,1.436-0.616,1.516-1.394h28.655
				c0.079,0.778,0.714,1.394,1.512,1.394C435.965,33.527,436.176,33.471,436.371,33.382z M497.596,86.855
				c0,0.504,0.262,0.934,0.636,1.214l-14.321,24.805c-0.188-0.08-0.393-0.126-0.609-0.126c-0.8,0-1.436,0.616-1.514,1.396H453.09
				c-0.077-0.78-0.715-1.396-1.515-1.396c-0.228,0-0.44,0.056-0.636,0.146l-14.317-24.804c0.392-0.28,0.665-0.717,0.665-1.234
				c0-0.516-0.272-0.951-0.663-1.232l14.321-24.802c0.194,0.088,0.404,0.142,0.63,0.142c0.799,0,1.435-0.615,1.515-1.393h28.669
				c0.077,0.778,0.713,1.393,1.511,1.393c0.226,0,0.438-0.054,0.632-0.142l14.327,24.82
				C497.854,85.923,497.596,86.35,497.596,86.855z M497.58,31.981c0,0.507,0.263,0.937,0.641,1.218l-14.323,24.814
				c-0.193-0.086-0.403-0.139-0.628-0.139c-0.798,0-1.434,0.616-1.511,1.395H453.09c-0.079-0.778-0.716-1.395-1.515-1.395
				c-0.227,0-0.438,0.056-0.632,0.143l-7.155-12.392l-7.166-12.41c0.391-0.282,0.659-0.718,0.659-1.233
				c0-0.514-0.271-0.95-0.659-1.229l14.323-24.807c0.194,0.089,0.405,0.144,0.632,0.144c0.799,0,1.436-0.616,1.516-1.392h28.655
				c0.08,0.776,0.717,1.392,1.515,1.392c0.226,0,0.438-0.054,0.632-0.143l14.326,24.817C497.843,31.045,497.58,31.475,497.58,31.981
				z M531.434,85.438c-0.188-0.082-0.395-0.128-0.611-0.128c-0.798,0-1.435,0.617-1.512,1.395h-28.659
				c-0.077-0.778-0.714-1.395-1.511-1.395c-0.238,0-0.459,0.063-0.66,0.16l-14.327-24.819c0.39-0.281,0.662-0.717,0.662-1.232
				c0-0.517-0.272-0.952-0.661-1.234l14.325-24.813c0.195,0.093,0.413,0.153,0.647,0.153c0.798,0,1.433-0.616,1.512-1.393h28.657
				c0.08,0.777,0.715,1.393,1.513,1.393c0.219,0,0.425-0.048,0.615-0.131l14.325,24.812c-0.373,0.282-0.63,0.71-0.63,1.212
				c0,0.505,0.26,0.932,0.636,1.215L531.434,85.438z M627.344,251.48c0-0.516-0.27-0.951-0.658-1.232l14.339-24.834
				c0.203,0.101,0.425,0.168,0.668,0.168c0.795,0,1.429-0.613,1.512-1.391h28.658c0.082,0.777,0.717,1.391,1.512,1.391
				c0.21,0,0.411-0.044,0.594-0.121l14.31,24.787c-0.388,0.28-0.659,0.716-0.659,1.232c0,0.516,0.271,0.95,0.659,1.23
				l-14.323,24.807c-0.194-0.09-0.405-0.146-0.633-0.146c-0.799,0-1.434,0.615-1.513,1.393h-28.655
				c-0.081-0.777-0.718-1.393-1.515-1.393c-0.227,0-0.438,0.056-0.633,0.146l-14.321-24.807
				C627.074,252.43,627.344,251.995,627.344,251.48z M593.49,250.074l-14.322-24.803c0.389-0.281,0.658-0.716,0.658-1.229
				c0-0.516-0.271-0.947-0.658-1.228l14.322-24.804c0.192,0.088,0.402,0.141,0.628,0.141c0.798,0,1.435-0.615,1.515-1.394h28.708
				c0.082,0.775,0.716,1.39,1.511,1.39c0.212,0,0.411-0.045,0.595-0.121l14.323,24.808c-0.367,0.282-0.621,0.705-0.621,1.203
				c0,0.501,0.254,0.925,0.622,1.207l-14.336,24.834c-0.195-0.089-0.406-0.145-0.635-0.145c-0.797,0-1.433,0.617-1.512,1.395
				h-28.655c-0.08-0.777-0.714-1.395-1.513-1.395C593.894,249.933,593.685,249.988,593.49,250.074z M531.646,252.707
				c0.388-0.279,0.655-0.714,0.655-1.227c0-0.512-0.265-0.943-0.648-1.226l14.321-24.804c0.191,0.085,0.4,0.136,0.623,0.136
				c0.798,0,1.435-0.616,1.516-1.395h28.654c0.079,0.778,0.715,1.395,1.513,1.395c0.229,0,0.44-0.055,0.634-0.143l14.319,24.805
				c-0.387,0.283-0.654,0.717-0.654,1.232c0,0.516,0.271,0.952,0.662,1.231l-14.324,24.807c-0.195-0.091-0.408-0.147-0.637-0.147
				c-0.798,0-1.434,0.615-1.513,1.393h-28.654c-0.081-0.777-0.718-1.393-1.516-1.393c-0.225,0-0.437,0.054-0.63,0.142
				L531.646,252.707z M531.397,198.007l14.318,24.804c-0.39,0.279-0.662,0.715-0.662,1.232c0,0.517,0.27,0.951,0.661,1.232
				l-14.32,24.806c-0.195-0.089-0.408-0.147-0.637-0.147c-0.797,0-1.433,0.617-1.513,1.395h-28.643
				c-0.079-0.777-0.716-1.395-1.514-1.395c-0.229,0-0.439,0.057-0.635,0.145l-14.319-24.805c0.392-0.281,0.659-0.716,0.659-1.231
				c0-0.516-0.271-0.952-0.659-1.23l14.319-24.806c0.194,0.089,0.406,0.145,0.635,0.145c0.798,0,1.435-0.615,1.514-1.394h28.65
				c0.079,0.778,0.715,1.394,1.511,1.394C530.99,198.151,531.202,198.096,531.397,198.007z M545.969,170.569
				c0.194,0.089,0.406,0.144,0.634,0.144c0.799,0,1.433-0.614,1.514-1.392h28.656c0.08,0.777,0.715,1.392,1.512,1.392
				c0.227,0,0.439-0.055,0.634-0.142l14.319,24.802c-0.391,0.28-0.661,0.716-0.661,1.232c0,0.516,0.268,0.951,0.656,1.231
				l-14.32,24.805c-0.193-0.087-0.405-0.144-0.633-0.144c-0.798,0-1.434,0.616-1.513,1.393h-28.654
				c-0.081-0.776-0.718-1.393-1.516-1.393c-0.222,0-0.432,0.051-0.623,0.137l-14.319-24.8c0.387-0.283,0.654-0.715,0.654-1.23
				c0-0.514-0.271-0.95-0.659-1.23L545.969,170.569z M531.668,142.962c0.39-0.282,0.659-0.717,0.659-1.232
				c0-0.513-0.268-0.946-0.654-1.228l14.332-24.827c0.201,0.097,0.419,0.16,0.655,0.16c0.797,0,1.43-0.614,1.512-1.39h28.673
				c0.083,0.775,0.717,1.39,1.513,1.39c0.21,0,0.409-0.044,0.592-0.12l14.323,24.809c-0.366,0.282-0.616,0.705-0.616,1.203
				c0,0.499,0.253,0.922,0.619,1.204l-14.344,24.845c-0.198-0.093-0.414-0.152-0.647-0.152c-0.795,0-1.431,0.614-1.512,1.391
				h-28.656c-0.081-0.776-0.715-1.391-1.514-1.391c-0.222,0-0.431,0.052-0.619,0.135L531.668,142.962z M491.316,127.937
				l-7.157-12.397c0.404-0.28,0.686-0.723,0.686-1.25c0-0.525-0.281-0.967-0.683-1.247l14.319-24.806
				c0.201,0.098,0.42,0.16,0.658,0.16c0.796,0,1.43-0.613,1.511-1.389h28.659c0.081,0.776,0.715,1.389,1.512,1.389
				c0.216,0,0.422-0.045,0.608-0.126l14.32,24.808c-0.376,0.28-0.633,0.708-0.633,1.212c0,0.504,0.257,0.93,0.63,1.212
				l-14.333,24.828c-0.194-0.089-0.406-0.144-0.634-0.144c-0.797,0-1.432,0.614-1.512,1.392h-28.648
				c-0.079-0.778-0.717-1.392-1.515-1.392c-0.228,0-0.439,0.055-0.633,0.144L491.316,127.937z M436.627,142.96
				c0.39-0.28,0.66-0.714,0.66-1.23c0-0.515-0.27-0.951-0.658-1.231l14.318-24.802c0.192,0.086,0.403,0.139,0.628,0.139
				c0.799,0,1.433-0.615,1.515-1.39h28.699c0.082,0.775,0.716,1.39,1.512,1.39c0.215,0,0.419-0.046,0.606-0.125l7.147,12.378
				l7.166,12.414c-0.388,0.279-0.657,0.713-0.657,1.229c0,0.515,0.27,0.95,0.657,1.231l-14.321,24.805
				c-0.194-0.089-0.406-0.145-0.634-0.145c-0.799,0-1.434,0.616-1.513,1.393h-28.656c-0.076-0.777-0.715-1.393-1.515-1.393
				c-0.228,0-0.438,0.056-0.633,0.145L436.627,142.96z"/>
			<path style="fill:#D4D4D4;" d="M301.571,142.662c0.3-0.209,0.509-0.541,0.509-0.933c0-0.393-0.209-0.722-0.509-0.932
				l10.752-18.625c0.15,0.07,0.314,0.117,0.489,0.117c0.6,0,1.076-0.461,1.137-1.043h21.518c0.061,0.582,0.538,1.043,1.138,1.043
				c0.162,0,0.317-0.034,0.456-0.096l10.76,18.633c-0.274,0.212-0.462,0.529-0.462,0.901c0,0.374,0.189,0.691,0.463,0.903
				l-10.763,18.642c-0.144-0.064-0.302-0.103-0.467-0.103c-0.601,0-1.077,0.462-1.137,1.046H313.93
				c-0.06-0.584-0.536-1.046-1.135-1.046c-0.172,0-0.331,0.041-0.478,0.109L301.571,142.662z M337.751,162.331
				c0-0.389-0.203-0.716-0.496-0.926l10.763-18.643c0.153,0.074,0.319,0.124,0.499,0.124c0.599,0,1.073-0.461,1.136-1.043h21.516
				c0.061,0.582,0.536,1.043,1.134,1.043c0.161,0,0.313-0.032,0.451-0.091l10.743,18.61c-0.291,0.21-0.493,0.537-0.493,0.926
				c0,0.387,0.202,0.712,0.493,0.922l-10.752,18.624c-0.145-0.066-0.305-0.108-0.475-0.108c-0.599,0-1.074,0.461-1.135,1.045H349.62
				c-0.06-0.584-0.538-1.045-1.138-1.045c-0.169,0-0.328,0.042-0.474,0.108l-10.754-18.624
				C337.548,163.043,337.751,162.718,337.751,162.331z M372.948,142.664c0.303-0.209,0.513-0.541,0.513-0.936
				c0-0.393-0.209-0.726-0.51-0.935l10.744-18.609c0.145,0.065,0.303,0.106,0.473,0.106c0.599,0,1.076-0.461,1.137-1.043h21.514
				c0.061,0.582,0.538,1.043,1.138,1.043c0.169,0,0.326-0.039,0.472-0.104l10.752,18.62c-0.293,0.211-0.494,0.538-0.494,0.925
				c0,0.389,0.205,0.716,0.498,0.925l-10.751,18.621c-0.146-0.065-0.306-0.106-0.477-0.106c-0.6,0-1.076,0.462-1.136,1.046h-21.522
				c-0.059-0.584-0.538-1.046-1.137-1.046c-0.168,0-0.326,0.041-0.47,0.103L372.948,142.664z M419.372,140.677l-10.752-18.622
				c0.292-0.21,0.495-0.537,0.495-0.924c0-0.389-0.205-0.716-0.498-0.926l10.752-18.623c0.148,0.067,0.307,0.11,0.478,0.11
				c0.599,0,1.076-0.46,1.138-1.045h21.514c0.061,0.585,0.537,1.045,1.135,1.045c0.17,0,0.328-0.039,0.473-0.106l10.75,18.622
				c-0.29,0.21-0.492,0.537-0.492,0.923c0,0.387,0.202,0.714,0.494,0.924l-10.75,18.621c-0.146-0.065-0.303-0.105-0.472-0.105
				c-0.6,0-1.076,0.463-1.136,1.047h-21.52c-0.06-0.585-0.535-1.047-1.136-1.047C419.676,140.57,419.518,140.611,419.372,140.677z
				 M299.761,141.73c0,0.639,0.52,1.158,1.157,1.158c0.166,0,0.322-0.035,0.463-0.098l10.747,18.616
				c-0.291,0.211-0.492,0.537-0.492,0.926c0,0.638,0.519,1.157,1.159,1.157c0.599,0,1.075-0.461,1.135-1.046h21.525
				c0.06,0.585,0.536,1.046,1.137,1.046c0.169,0,0.327-0.042,0.474-0.107l10.753,18.623c-0.291,0.21-0.492,0.536-0.492,0.924
				c0,0.64,0.518,1.16,1.156,1.16c0.6,0,1.078-0.462,1.138-1.047h21.514c0.061,0.585,0.536,1.047,1.135,1.047
				c0.64,0,1.159-0.521,1.159-1.16c0-0.388-0.202-0.714-0.494-0.924l10.752-18.623c0.147,0.065,0.304,0.107,0.476,0.107
				c0.599,0,1.076-0.461,1.137-1.046h21.522c0.061,0.585,0.537,1.046,1.136,1.046c0.64,0,1.159-0.52,1.159-1.16
				c0-0.388-0.201-0.713-0.495-0.923l10.752-18.622c0.146,0.065,0.304,0.104,0.473,0.104c0.601,0,1.076-0.46,1.136-1.044h21.52
				c0.06,0.584,0.536,1.044,1.136,1.044c0.17,0,0.329-0.041,0.475-0.107l10.751,18.624c-0.291,0.21-0.493,0.537-0.493,0.923
				c0,0.64,0.521,1.16,1.158,1.16c0.6,0,1.076-0.461,1.138-1.046h21.514c0.06,0.585,0.537,1.046,1.136,1.046
				c0.64,0,1.161-0.52,1.161-1.157c0-0.389-0.203-0.716-0.496-0.926l10.752-18.624c0.147,0.067,0.304,0.109,0.476,0.109
				c0.599,0,1.078-0.462,1.137-1.047h21.509c0.06,0.585,0.536,1.047,1.136,1.047c0.171,0,0.33-0.042,0.476-0.109L526.21,161.4
				c-0.296,0.211-0.503,0.539-0.503,0.931c0,0.387,0.203,0.713,0.492,0.922l-10.75,18.624c-0.147-0.066-0.307-0.107-0.476-0.107
				c-0.598,0-1.074,0.463-1.134,1.046h-21.51c-0.06-0.583-0.539-1.046-1.137-1.046c-0.64,0-1.159,0.52-1.159,1.159
				c0,0.388,0.203,0.714,0.494,0.925l-10.753,18.622c-0.145-0.065-0.304-0.107-0.474-0.107c-0.639,0-1.158,0.52-1.158,1.158
				c0,0.642,0.52,1.16,1.158,1.16c0.171,0,0.33-0.041,0.476-0.107l10.751,18.624c-0.291,0.209-0.494,0.537-0.494,0.924
				c0,0.639,0.52,1.158,1.159,1.158c0.598,0,1.077-0.462,1.137-1.045h21.504c0.061,0.583,0.537,1.045,1.136,1.045
				c0.172,0,0.332-0.043,0.478-0.109l10.752,18.624c-0.292,0.21-0.497,0.537-0.497,0.925c0,0.639,0.519,1.159,1.158,1.159
				c0.599,0,1.077-0.463,1.137-1.047h21.514c0.061,0.584,0.536,1.047,1.136,1.047c0.641,0,1.16-0.521,1.16-1.159
				c0-0.387-0.202-0.712-0.492-0.922l10.753-18.624c0.146,0.064,0.304,0.107,0.473,0.107c0.599,0,1.076-0.462,1.135-1.045h21.514
				c0.061,0.583,0.536,1.045,1.136,1.045c0.171,0,0.33-0.043,0.476-0.107l10.751,18.623c-0.291,0.21-0.493,0.537-0.493,0.924
				c0,0.639,0.52,1.159,1.158,1.159c0.6,0,1.077-0.463,1.138-1.047h21.513c0.06,0.584,0.537,1.047,1.136,1.047
				c0.641,0,1.16-0.521,1.16-1.159c0-0.387-0.203-0.714-0.494-0.924l10.753-18.623c0.146,0.064,0.305,0.107,0.475,0.107
				c0.64,0,1.158-0.52,1.158-1.158c0-0.641-0.519-1.161-1.158-1.161c-0.171,0-0.329,0.043-0.477,0.107l-10.742-18.606
				c0.309-0.208,0.522-0.543,0.522-0.943c0-0.638-0.518-1.158-1.157-1.158c-0.602,0-1.078,0.464-1.137,1.049h-21.514
				c-0.059-0.585-0.536-1.049-1.137-1.049c-0.183,0-0.35,0.051-0.503,0.126L587,183.871c0.307-0.211,0.521-0.547,0.521-0.945
				c0-0.64-0.519-1.158-1.158-1.158c-0.601,0-1.077,0.462-1.136,1.048h-21.553c-0.06-0.583-0.537-1.046-1.137-1.046
				c-0.168,0-0.326,0.041-0.471,0.105l-10.752-18.62c0.292-0.211,0.496-0.537,0.496-0.924c0-0.383-0.2-0.706-0.486-0.918
				l10.771-18.652c0.153,0.074,0.32,0.126,0.503,0.126c0.639,0,1.159-0.518,1.159-1.158c0-0.639-0.521-1.16-1.159-1.16
				c-0.184,0-0.352,0.052-0.506,0.129l-10.754-18.623c0.31-0.208,0.524-0.545,0.524-0.946c0-0.638-0.518-1.157-1.158-1.157
				c-0.6,0-1.078,0.463-1.136,1.048h-21.524c-0.058-0.585-0.537-1.048-1.137-1.048c-0.179,0-0.344,0.048-0.494,0.12l-10.752-18.623
				c0.305-0.21,0.515-0.541,0.515-0.937c0-0.395-0.21-0.726-0.512-0.937l10.752-18.622c0.151,0.072,0.313,0.119,0.491,0.119
				c0.599,0,1.078-0.461,1.138-1.044V79.82c-0.06-0.584-0.538-1.047-1.138-1.047c-0.179,0-0.342,0.049-0.492,0.12l-10.755-18.628
				c0.297-0.209,0.504-0.54,0.504-0.931c0-0.394-0.208-0.724-0.507-0.934l-0.19-0.128c-0.142-0.062-0.297-0.099-0.461-0.099
				c-0.599,0-1.076,0.463-1.136,1.047h-21.515c-0.06-0.584-0.536-1.047-1.136-1.047c-0.178,0-0.341,0.047-0.49,0.118l-10.756-18.63
				c0.292-0.211,0.494-0.538,0.494-0.925c0-0.639-0.519-1.159-1.158-1.159c-0.599,0-1.076,0.462-1.136,1.046H456.66
				c-0.061-0.584-0.538-1.046-1.138-1.046c-0.639,0-1.157,0.52-1.157,1.159c0,0.387,0.201,0.712,0.493,0.925l-10.753,18.624
				c-0.146-0.067-0.304-0.107-0.475-0.107c-0.6,0-1.077,0.46-1.136,1.044H420.98c-0.061-0.584-0.538-1.044-1.138-1.044
				c-0.167,0-0.325,0.039-0.471,0.104l-0.189,0.127c-0.293,0.21-0.498,0.537-0.498,0.926c0,0.387,0.201,0.713,0.494,0.924
				l-10.751,18.622c-0.145-0.065-0.304-0.106-0.473-0.106c-0.6,0-1.078,0.463-1.138,1.047v0.227
				c0.061,0.583,0.538,1.045,1.138,1.045c0.169,0,0.327-0.041,0.473-0.105L419.18,99.61c-0.289,0.21-0.491,0.536-0.491,0.921
				c0,0.387,0.202,0.711,0.493,0.923l-10.753,18.623c-0.145-0.066-0.304-0.106-0.473-0.106c-0.601,0-1.078,0.463-1.138,1.048
				h-21.514c-0.058-0.585-0.537-1.048-1.137-1.048c-0.64,0-1.159,0.52-1.159,1.16c0,0.387,0.203,0.714,0.496,0.925l-10.743,18.61
				c-0.141-0.063-0.295-0.098-0.46-0.098c-0.598,0-1.076,0.463-1.134,1.049h-21.516c-0.059-0.586-0.536-1.049-1.136-1.049
				c-0.184,0-0.354,0.053-0.508,0.13l-10.757-18.632c0.301-0.209,0.511-0.541,0.511-0.936c0-0.64-0.519-1.16-1.158-1.16
				c-0.602,0-1.078,0.463-1.138,1.048h-21.518c-0.058-0.585-0.536-1.048-1.137-1.048c-0.639,0-1.158,0.52-1.158,1.16
				c0,0.381,0.195,0.703,0.481,0.914l-10.753,18.625c-0.143-0.063-0.299-0.1-0.465-0.1C300.28,140.57,299.761,141.09,299.761,141.73
				z M444.105,60.386l5.373,9.304l5.38,9.318c-0.293,0.211-0.495,0.538-0.495,0.926c0,0.386,0.202,0.713,0.495,0.924l-10.753,18.621
				c-0.144-0.065-0.303-0.106-0.473-0.106c-0.599,0-1.076,0.462-1.135,1.046h-21.514c-0.058-0.584-0.537-1.046-1.138-1.046
				c-0.171,0-0.331,0.042-0.478,0.11l-10.751-18.624c0.293-0.211,0.498-0.538,0.498-0.925c0-0.387-0.202-0.712-0.492-0.923
				l10.748-18.622c0.146,0.065,0.303,0.106,0.472,0.106c0.6,0,1.078-0.463,1.138-1.047h21.515c0.059,0.584,0.536,1.047,1.136,1.047
				C443.802,60.495,443.961,60.452,444.105,60.386z M490.072,100.531c0,0.379,0.195,0.701,0.477,0.913l-10.751,18.623
				c-0.142-0.061-0.296-0.095-0.459-0.095c-0.6,0-1.077,0.463-1.136,1.048h-21.545c-0.059-0.585-0.536-1.048-1.137-1.048
				c-0.172,0-0.33,0.041-0.477,0.109l-10.751-18.623c0.295-0.21,0.501-0.537,0.501-0.927c0-0.388-0.206-0.714-0.498-0.925
				l10.751-18.621c0.146,0.065,0.304,0.106,0.474,0.106c0.599,0,1.077-0.462,1.137-1.045h21.522
				c0.059,0.583,0.536,1.045,1.136,1.045c0.17,0,0.328-0.041,0.475-0.106l10.757,18.634
				C490.266,99.832,490.072,100.152,490.072,100.531z M490.06,59.334c0,0.38,0.197,0.703,0.481,0.915l-10.753,18.63
				c-0.146-0.065-0.303-0.105-0.472-0.105c-0.6,0-1.076,0.463-1.136,1.047h-21.522c-0.059-0.584-0.538-1.047-1.137-1.047
				c-0.171,0-0.33,0.042-0.476,0.107l-5.37-9.304l-5.382-9.317c0.294-0.212,0.496-0.538,0.496-0.925
				c0-0.387-0.203-0.713-0.496-0.923l10.754-18.625c0.146,0.067,0.305,0.108,0.475,0.108c0.6,0,1.077-0.462,1.138-1.045h21.515
				c0.06,0.583,0.537,1.045,1.136,1.045c0.17,0,0.329-0.041,0.474-0.108l10.757,18.632C490.257,58.63,490.06,58.953,490.06,59.334z
				 M515.476,99.467c-0.141-0.061-0.295-0.097-0.458-0.097c-0.6,0-1.076,0.463-1.136,1.048h-21.516
				c-0.059-0.585-0.536-1.048-1.136-1.048c-0.178,0-0.344,0.049-0.494,0.122l-10.757-18.633c0.293-0.212,0.497-0.539,0.497-0.925
				c0-0.389-0.203-0.715-0.496-0.927l10.754-18.629c0.148,0.07,0.311,0.115,0.486,0.115c0.6,0,1.075-0.462,1.136-1.046h21.515
				c0.06,0.583,0.537,1.046,1.136,1.046c0.164,0,0.319-0.036,0.461-0.099l10.755,18.628c-0.278,0.212-0.472,0.534-0.472,0.911
				c0,0.379,0.194,0.7,0.477,0.912L515.476,99.467z M587.482,224.127c0-0.387-0.202-0.715-0.493-0.924l10.765-18.645
				c0.153,0.075,0.318,0.127,0.501,0.127c0.597,0,1.073-0.462,1.135-1.045h21.516c0.063,0.583,0.538,1.045,1.137,1.045
				c0.157,0,0.308-0.034,0.445-0.092l10.743,18.61c-0.291,0.209-0.493,0.537-0.493,0.924c0,0.387,0.202,0.713,0.493,0.922
				l-10.753,18.625c-0.146-0.067-0.305-0.107-0.475-0.107c-0.599,0-1.076,0.461-1.136,1.045h-21.513
				c-0.06-0.584-0.538-1.045-1.138-1.045c-0.17,0-0.329,0.04-0.475,0.107l-10.752-18.625
				C587.28,224.84,587.482,224.514,587.482,224.127z M562.067,223.072l-10.753-18.622c0.291-0.211,0.492-0.537,0.492-0.924
				c0-0.385-0.202-0.71-0.492-0.921l10.752-18.62c0.144,0.064,0.303,0.104,0.472,0.104c0.6,0,1.078-0.461,1.137-1.045h21.554
				c0.063,0.582,0.538,1.043,1.135,1.043c0.159,0,0.309-0.034,0.445-0.093l10.754,18.626c-0.275,0.212-0.466,0.529-0.466,0.903
				c0,0.375,0.19,0.694,0.468,0.907l-10.764,18.643c-0.146-0.064-0.306-0.107-0.477-0.107c-0.6,0-1.075,0.463-1.136,1.047h-21.514
				c-0.059-0.584-0.536-1.047-1.135-1.047C562.371,222.966,562.213,223.008,562.067,223.072z M515.637,225.048
				c0.289-0.21,0.491-0.536,0.491-0.921c0-0.385-0.199-0.709-0.487-0.92l10.752-18.623c0.143,0.064,0.301,0.102,0.468,0.102
				c0.599,0,1.078-0.461,1.137-1.047h21.514c0.061,0.586,0.536,1.047,1.136,1.047c0.172,0,0.331-0.041,0.476-0.107l10.752,18.624
				c-0.291,0.211-0.491,0.537-0.491,0.924c0,0.387,0.202,0.714,0.496,0.925l-10.754,18.624c-0.146-0.069-0.307-0.109-0.479-0.109
				c-0.6,0-1.075,0.461-1.136,1.045h-21.514c-0.06-0.584-0.538-1.045-1.137-1.045c-0.169,0-0.327,0.04-0.473,0.104L515.637,225.048z
				 M515.45,183.98l10.749,18.622c-0.292,0.209-0.497,0.537-0.497,0.924c0,0.389,0.203,0.716,0.496,0.926l-10.75,18.624
				c-0.147-0.067-0.308-0.11-0.479-0.11c-0.599,0-1.075,0.463-1.136,1.047h-21.504c-0.06-0.584-0.539-1.047-1.137-1.047
				c-0.172,0-0.329,0.043-0.477,0.107l-10.751-18.622c0.294-0.211,0.495-0.537,0.495-0.925c0-0.387-0.202-0.714-0.495-0.922
				l10.751-18.624c0.146,0.067,0.305,0.108,0.477,0.108c0.598,0,1.077-0.461,1.137-1.045h21.51c0.06,0.584,0.536,1.045,1.134,1.045
				C515.144,184.089,515.303,184.048,515.45,183.98z M526.39,163.381c0.146,0.067,0.305,0.108,0.476,0.108
				c0.599,0,1.075-0.461,1.137-1.045h21.515c0.06,0.584,0.536,1.045,1.134,1.045c0.171,0,0.33-0.041,0.477-0.107l10.75,18.621
				c-0.293,0.209-0.497,0.537-0.497,0.925c0,0.388,0.203,0.714,0.494,0.925l-10.752,18.622c-0.146-0.065-0.306-0.107-0.476-0.107
				c-0.6,0-1.075,0.463-1.136,1.046h-21.514c-0.06-0.583-0.538-1.046-1.137-1.046c-0.166,0-0.324,0.039-0.468,0.103l-10.75-18.619
				c0.29-0.211,0.49-0.537,0.49-0.923c0-0.387-0.203-0.713-0.494-0.924L526.39,163.381z M515.652,142.655
				c0.293-0.212,0.494-0.539,0.494-0.925c0-0.386-0.2-0.71-0.491-0.922l10.761-18.639c0.15,0.073,0.313,0.119,0.492,0.119
				c0.598,0,1.072-0.46,1.135-1.042h21.527c0.063,0.582,0.538,1.042,1.135,1.042c0.158,0,0.307-0.033,0.444-0.089l10.755,18.625
				c-0.275,0.211-0.465,0.529-0.465,0.903c0,0.376,0.191,0.693,0.466,0.903l-10.769,18.655c-0.148-0.069-0.311-0.114-0.486-0.114
				c-0.597,0-1.074,0.461-1.134,1.044h-21.515c-0.062-0.583-0.538-1.044-1.137-1.044c-0.167,0-0.323,0.039-0.465,0.101
				L515.652,142.655z M485.358,131.374l-5.374-9.308c0.304-0.21,0.515-0.542,0.515-0.939c0-0.394-0.211-0.725-0.513-0.935
				l10.752-18.624c0.15,0.074,0.314,0.121,0.492,0.121c0.599,0,1.074-0.461,1.136-1.043h21.516c0.062,0.582,0.537,1.043,1.136,1.043
				c0.162,0,0.317-0.034,0.456-0.096l10.752,18.626c-0.281,0.21-0.475,0.531-0.475,0.908c0,0.379,0.193,0.699,0.472,0.912
				l-10.761,18.639c-0.146-0.065-0.305-0.108-0.475-0.108c-0.6,0-1.076,0.461-1.136,1.046h-21.509
				c-0.06-0.585-0.538-1.046-1.137-1.046c-0.17,0-0.329,0.043-0.475,0.108L485.358,131.374z M444.3,142.653
				c0.292-0.21,0.495-0.537,0.495-0.923c0-0.387-0.203-0.714-0.495-0.925l10.75-18.62c0.145,0.065,0.303,0.104,0.472,0.104
				c0.599,0,1.076-0.461,1.137-1.043h21.546c0.063,0.582,0.539,1.042,1.135,1.042c0.162,0,0.316-0.033,0.456-0.094l5.366,9.293
				l5.38,9.32c-0.291,0.21-0.493,0.536-0.493,0.923c0,0.386,0.202,0.713,0.493,0.924l-10.751,18.622
				c-0.147-0.066-0.306-0.107-0.477-0.107c-0.599,0-1.076,0.462-1.136,1.046h-21.514c-0.059-0.584-0.537-1.046-1.138-1.046
				c-0.17,0-0.329,0.041-0.475,0.107L444.3,142.653z"/>
		</g>
	</g>
	<g style="clip-path:url(#SVGID_00000128469502229005464540000009190133983350326425_);">
		
			<radialGradient id="SVGID_00000099653504401095848160000006824403883098541227_" cx="324.9825" cy="141.8179" r="33.8513" gradientUnits="userSpaceOnUse">
			<stop  offset="0" style="stop-color:#0071BC"/>
			<stop  offset="0.1126" style="stop-color:#005A95"/>
			<stop  offset="0.2629" style="stop-color:#003E68"/>
			<stop  offset="0.4144" style="stop-color:#002842"/>
			<stop  offset="0.5645" style="stop-color:#001625"/>
			<stop  offset="0.713" style="stop-color:#000A11"/>
			<stop  offset="0.8591" style="stop-color:#000304"/>
			<stop  offset="1" style="stop-color:#000000"/>
		</radialGradient>
		<path style="fill:url(#SVGID_00000099653504401095848160000006824403883098541227_);" d="M358.834,141.818
			c0,18.695-15.156,33.85-33.852,33.85s-33.852-15.155-33.852-33.85c0-18.696,15.156-33.852,33.852-33.852
			S358.834,123.122,358.834,141.818z"/>
		
			<radialGradient id="SVGID_00000071522047119939472320000012066717710424776631_" cx="396" cy="141.8159" r="33.8513" gradientUnits="userSpaceOnUse">
			<stop  offset="0" style="stop-color:#0071BC"/>
			<stop  offset="0.1126" style="stop-color:#005A95"/>
			<stop  offset="0.2629" style="stop-color:#003E68"/>
			<stop  offset="0.4144" style="stop-color:#002842"/>
			<stop  offset="0.5645" style="stop-color:#001625"/>
			<stop  offset="0.713" style="stop-color:#000A11"/>
			<stop  offset="0.8591" style="stop-color:#000304"/>
			<stop  offset="1" style="stop-color:#000000"/>
		</radialGradient>
		<path style="fill:url(#SVGID_00000071522047119939472320000012066717710424776631_);" d="M429.852,141.816
			c0,18.695-15.156,33.851-33.852,33.851c-18.695,0-33.852-15.155-33.852-33.851c0-18.696,15.156-33.852,33.852-33.852
			C414.695,107.965,429.852,123.12,429.852,141.816z"/>
		
			<radialGradient id="SVGID_00000125564628700588916580000011394100411717063586_" cx="431.6797" cy="79.9771" r="33.8513" gradientUnits="userSpaceOnUse">
			<stop  offset="0" style="stop-color:#0071BC"/>
			<stop  offset="0.1126" style="stop-color:#005A95"/>
			<stop  offset="0.2629" style="stop-color:#003E68"/>
			<stop  offset="0.4144" style="stop-color:#002842"/>
			<stop  offset="0.5645" style="stop-color:#001625"/>
			<stop  offset="0.713" style="stop-color:#000A11"/>
			<stop  offset="0.8591" style="stop-color:#000304"/>
			<stop  offset="1" style="stop-color:#000000"/>
		</radialGradient>
		<path style="fill:url(#SVGID_00000125564628700588916580000011394100411717063586_);" d="M465.531,79.978
			c0,18.695-15.156,33.851-33.852,33.851s-33.852-15.155-33.852-33.851c0-18.696,15.156-33.852,33.852-33.852
			S465.531,61.281,465.531,79.978z"/>
		
			<radialGradient id="SVGID_00000057141663642765623190000001776517198778914707_" cx="503.3369" cy="79.9775" r="33.8513" gradientUnits="userSpaceOnUse">
			<stop  offset="0" style="stop-color:#0071BC"/>
			<stop  offset="0.1126" style="stop-color:#005A95"/>
			<stop  offset="0.2629" style="stop-color:#003E68"/>
			<stop  offset="0.4144" style="stop-color:#002842"/>
			<stop  offset="0.5645" style="stop-color:#001625"/>
			<stop  offset="0.713" style="stop-color:#000A11"/>
			<stop  offset="0.8591" style="stop-color:#000304"/>
			<stop  offset="1" style="stop-color:#000000"/>
		</radialGradient>
		<path style="fill:url(#SVGID_00000057141663642765623190000001776517198778914707_);" d="M537.188,79.978
			c0,18.695-15.156,33.851-33.852,33.851s-33.852-15.155-33.852-33.851c0-18.696,15.156-33.851,33.852-33.851
			S537.188,61.282,537.188,79.978z"/>
		
			<radialGradient id="SVGID_00000082327679179998955080000005566547918661459895_" cx="467.3906" cy="142.6665" r="33.8513" gradientUnits="userSpaceOnUse">
			<stop  offset="0" style="stop-color:#0071BC"/>
			<stop  offset="0.1126" style="stop-color:#005A95"/>
			<stop  offset="0.2629" style="stop-color:#003E68"/>
			<stop  offset="0.4144" style="stop-color:#002842"/>
			<stop  offset="0.5645" style="stop-color:#001625"/>
			<stop  offset="0.713" style="stop-color:#000A11"/>
			<stop  offset="0.8591" style="stop-color:#000304"/>
			<stop  offset="1" style="stop-color:#000000"/>
		</radialGradient>
		<path style="fill:url(#SVGID_00000082327679179998955080000005566547918661459895_);" d="M501.242,142.667
			c0,18.695-15.156,33.851-33.852,33.851c-18.695,0-33.852-15.155-33.852-33.851c0-18.696,15.156-33.852,33.852-33.852
			C486.086,108.815,501.242,123.971,501.242,142.667z"/>
		
			<radialGradient id="SVGID_00000119831805024588308070000000564611442067502745_" cx="538.832" cy="140.114" r="33.8512" gradientUnits="userSpaceOnUse">
			<stop  offset="0" style="stop-color:#0071BC"/>
			<stop  offset="0.1126" style="stop-color:#005A95"/>
			<stop  offset="0.2629" style="stop-color:#003E68"/>
			<stop  offset="0.4144" style="stop-color:#002842"/>
			<stop  offset="0.5645" style="stop-color:#001625"/>
			<stop  offset="0.713" style="stop-color:#000A11"/>
			<stop  offset="0.8591" style="stop-color:#000304"/>
			<stop  offset="1" style="stop-color:#000000"/>
		</radialGradient>
		<path style="fill:url(#SVGID_00000119831805024588308070000000564611442067502745_);" d="M572.684,140.115
			c0,18.696-15.156,33.85-33.852,33.85s-33.851-15.154-33.851-33.85c0-18.696,15.156-33.852,33.851-33.852
			S572.684,121.419,572.684,140.115z"/>
		
			<radialGradient id="SVGID_00000012443288897595924220000000545510829187280263_" cx="503.1494" cy="202.6474" r="33.8511" gradientUnits="userSpaceOnUse">
			<stop  offset="0" style="stop-color:#0071BC"/>
			<stop  offset="0.1126" style="stop-color:#005A95"/>
			<stop  offset="0.2629" style="stop-color:#003E68"/>
			<stop  offset="0.4144" style="stop-color:#002842"/>
			<stop  offset="0.5645" style="stop-color:#001625"/>
			<stop  offset="0.713" style="stop-color:#000A11"/>
			<stop  offset="0.8591" style="stop-color:#000304"/>
			<stop  offset="1" style="stop-color:#000000"/>
		</radialGradient>
		<path style="fill:url(#SVGID_00000012443288897595924220000000545510829187280263_);" d="M537.001,202.648
			c0,18.695-15.156,33.85-33.852,33.85s-33.852-15.154-33.852-33.85c0-18.696,15.156-33.852,33.852-33.852
			S537.001,183.952,537.001,202.648z"/>
	</g>
	<g style="opacity:0.9;clip-path:url(#SVGID_00000128469502229005464540000009190133983350326425_);">
		<g>
			<path style="fill:#51FFFF;" d="M506.405,204.5h-2.021v-2.021c0-0.271-0.221-0.492-0.49-0.492h-1.488
				c-0.27,0-0.491,0.221-0.491,0.492v2.021h-2.021c-0.27,0-0.489,0.22-0.489,0.49v1.488c0,0.27,0.22,0.49,0.489,0.49h2.021v2.021
				c0,0.27,0.221,0.489,0.491,0.489h1.488c0.27,0,0.49-0.22,0.49-0.489v-2.021h2.021c0.27,0,0.489-0.22,0.489-0.49v-1.488
				C506.895,204.72,506.675,204.5,506.405,204.5z"/>
			<path style="fill:#51FFFF;" d="M510.656,195.186h-1.624c0-1.885-0.699-3.811-5.882-3.811c-5.185,0-5.885,1.926-5.885,3.811
				h-1.623c0-5.436,5.649-5.436,7.508-5.436C505.006,189.75,510.656,189.75,510.656,195.186z"/>
			<path style="fill:#51FFFF;" d="M510.255,195.922h-14.211c-2.69,0-4.872,2.182-4.872,4.871v9.881c0,2.691,2.182,4.871,4.872,4.871
				h14.211c2.69,0,4.872-2.181,4.872-4.871v-9.881C515.127,198.104,512.945,195.922,510.255,195.922z M503.15,211.542
				c-3.208,0-5.809-2.601-5.809-5.808c0-3.209,2.601-5.811,5.809-5.811c3.207,0,5.808,2.602,5.808,5.811
				C508.958,208.941,506.357,211.542,503.15,211.542z"/>
		</g>
		<g>
			<g>
				<path style="fill:#51FFFF;" d="M551.834,144.508c-0.553,0.534-1.307,0.864-2.137,0.864c-0.83,0-1.584-0.33-2.137-0.864
					c-0.313,0.054-0.609,0.124-0.892,0.21c0.793,0.893,1.256,2.102,1.256,3.729h7.619
					C555.543,145.972,554.006,144.883,551.834,144.508z"/>
				<path style="fill:#51FFFF;" d="M546.701,140.641c-0.052,0.225-0.08,0.457-0.08,0.697c0,1.699,1.377,3.077,3.076,3.077
					c1.698,0,3.076-1.378,3.076-3.077c0-0.24-0.027-0.473-0.08-0.697H546.701z"/>
				<g>
					<path style="fill:#51FFFF;" d="M551.367,136.96h-3.341c-0.913,0-1.66,0.748-1.66,1.661l0.337,1.67h5.986l0.338-1.67
						C553.027,137.708,552.281,136.96,551.367,136.96z M549.697,139.933c-0.723,0-1.307-0.585-1.307-1.307
						c0-0.723,0.584-1.307,1.307-1.307c0.723,0,1.307,0.584,1.307,1.307C551.004,139.348,550.42,139.933,549.697,139.933z"/>
					<path style="fill:#51FFFF;" d="M550.546,138.305h-0.526v-0.528c0-0.07-0.058-0.129-0.128-0.129h-0.389
						c-0.07,0-0.128,0.059-0.128,0.129v0.528h-0.527c-0.07,0-0.128,0.058-0.128,0.127v0.388c0,0.071,0.058,0.128,0.128,0.128h0.527
						v0.526c0,0.07,0.058,0.129,0.128,0.129h0.389c0.07,0,0.128-0.059,0.128-0.129v-0.526h0.526c0.071,0,0.13-0.058,0.13-0.128
						v-0.388C550.676,138.362,550.617,138.305,550.546,138.305z"/>
				</g>
			</g>
			<g>
				<path style="fill:#51FFFF;" d="M541.932,142.732c-0.803,0.775-1.894,1.255-3.1,1.255c-1.205,0-2.297-0.48-3.102-1.255
					c-3.148,0.543-5.38,2.125-5.38,5.714h16.962C547.313,144.857,545.082,143.275,541.932,142.732z"/>
				<path style="fill:#51FFFF;" d="M534.485,137.121c-0.076,0.325-0.117,0.664-0.117,1.012c0,2.465,1.997,4.464,4.464,4.464
					c2.465,0,4.463-1.999,4.463-4.464c0-0.348-0.041-0.687-0.116-1.012H534.485z"/>
				<g>
					<path style="fill:#51FFFF;" d="M541.256,131.782h-4.849c-1.325,0-2.407,1.085-2.407,2.408l0.487,2.424h8.688l0.488-2.424
						C543.664,132.867,542.58,131.782,541.256,131.782z M538.832,136.096c-1.049,0-1.896-0.85-1.896-1.898
						c0-1.047,0.848-1.896,1.896-1.896c1.047,0,1.897,0.849,1.897,1.896C540.729,135.247,539.879,136.096,538.832,136.096z"/>
					<path style="fill:#51FFFF;" d="M540.063,133.731h-0.764v-0.764c0-0.102-0.083-0.186-0.184-0.186h-0.564
						c-0.103,0-0.186,0.084-0.186,0.186v0.764H537.6c-0.102,0-0.186,0.085-0.186,0.186v0.563c0,0.102,0.084,0.185,0.186,0.185h0.766
						v0.765c0,0.102,0.083,0.186,0.186,0.186h0.564c0.101,0,0.184-0.084,0.184-0.186v-0.765h0.764c0.104,0,0.188-0.083,0.188-0.185
						v-0.563C540.25,133.816,540.166,133.731,540.063,133.731z"/>
				</g>
			</g>
			<g>
				<path style="fill:#51FFFF;" d="M530.104,144.508c-0.555,0.534-1.307,0.864-2.137,0.864c-0.832,0-1.584-0.33-2.137-0.864
					c-2.172,0.375-3.709,1.464-3.709,3.939h7.619c0-1.627,0.461-2.836,1.254-3.729C530.712,144.632,530.416,144.561,530.104,144.508
					z"/>
				<path style="fill:#51FFFF;" d="M524.971,140.641c-0.053,0.225-0.082,0.457-0.082,0.697c0,1.699,1.379,3.077,3.078,3.077
					c1.698,0,3.076-1.378,3.076-3.077c0-0.24-0.028-0.473-0.08-0.697H524.971z"/>
				<g>
					<path style="fill:#51FFFF;" d="M529.637,136.96h-3.342c-0.914,0-1.66,0.748-1.66,1.661l0.338,1.67h5.986l0.338-1.67
						C531.297,137.708,530.551,136.96,529.637,136.96z M527.967,139.933c-0.723,0-1.307-0.585-1.307-1.307
						c0-0.723,0.584-1.307,1.307-1.307s1.307,0.584,1.307,1.307C529.273,139.348,528.69,139.933,527.967,139.933z"/>
					<path style="fill:#51FFFF;" d="M528.815,138.305h-0.527v-0.528c0-0.07-0.058-0.129-0.127-0.129h-0.39
						c-0.069,0-0.128,0.059-0.128,0.129v0.528h-0.525c-0.071,0-0.13,0.058-0.13,0.127v0.388c0,0.071,0.059,0.128,0.13,0.128h0.525
						v0.526c0,0.07,0.058,0.129,0.128,0.129h0.39c0.069,0,0.127-0.059,0.127-0.129v-0.526h0.527c0.07,0,0.129-0.058,0.129-0.128
						v-0.388C528.944,138.362,528.886,138.305,528.815,138.305z"/>
				</g>
			</g>
		</g>
		<g>
			<path style="fill:#51FFFF;" d="M325.989,141.818c3.449-3.12,6.832-6.489,6.832-12.891h-1.349c0,5.886-3.093,8.917-6.491,11.983
				c-3.396-3.066-6.49-6.098-6.49-11.983h-1.348c0,6.402,3.383,9.771,6.832,12.891c-3.449,3.12-6.832,6.489-6.832,12.891h1.348
				c0-5.887,3.094-8.918,6.49-11.984c3.398,3.066,6.491,6.097,6.491,11.984h1.349C332.821,148.307,329.438,144.938,325.989,141.818z
				"/>
			<path style="fill:#51FFFF;" d="M329.411,148.98c0,0.23-0.215,0.42-0.478,0.42h-7.903c-0.263,0-0.478-0.189-0.478-0.42
				c0-0.232,0.215-0.422,0.478-0.422h7.903C329.196,148.559,329.411,148.748,329.411,148.98z"/>
			<path style="fill:#51FFFF;" d="M330.574,152.202c0,0.231-0.215,0.421-0.478,0.421h-10.228c-0.264,0-0.479-0.189-0.479-0.421
				c0-0.231,0.215-0.421,0.479-0.421h10.228C330.359,151.781,330.574,151.971,330.574,152.202z"/>
			<path style="fill:#51FFFF;" d="M327.074,145.758c0,0.23-0.216,0.42-0.478,0.42h-3.229c-0.263,0-0.478-0.189-0.478-0.42
				c0-0.232,0.215-0.422,0.478-0.422h3.229C326.858,145.336,327.074,145.525,327.074,145.758z"/>
			<path style="fill:#51FFFF;" d="M330.557,131.446c0,0.262-0.215,0.477-0.477,0.477h-10.193c-0.264,0-0.478-0.215-0.478-0.477
				v-0.026c0-0.263,0.215-0.477,0.478-0.477h10.193c0.263,0,0.477,0.215,0.477,0.477V131.446z"/>
			<path style="fill:#51FFFF;" d="M329.415,134.656c0,0.232-0.214,0.421-0.477,0.421h-7.912c-0.264,0-0.479-0.189-0.479-0.421
				c0-0.232,0.215-0.421,0.479-0.421h7.912C329.201,134.235,329.415,134.424,329.415,134.656z"/>
			<path style="fill:#51FFFF;" d="M327.075,137.878c0,0.232-0.214,0.421-0.477,0.421h-3.232c-0.264,0-0.478-0.189-0.478-0.421
				c0-0.232,0.215-0.421,0.478-0.421h3.232C326.861,137.457,327.075,137.646,327.075,137.878z"/>
		</g>
		<polygon style="fill:#51FFFF;" points="507.566,75.747 507.566,67.287 499.105,67.287 499.105,75.747 490.646,75.747 
			490.646,84.208 499.105,84.208 499.105,92.668 507.566,92.668 507.566,84.208 516.027,84.208 516.027,75.747 		"/>
		<g>
			<path style="fill:#51FFFF;" d="M462.002,141.453c0.165,0,0.319,0.08,0.414,0.214l1.276,1.81l0.447-1.651l1.582-5.92
				c0.06-0.221,0.26-0.376,0.489-0.376c0.23,0,0.431,0.154,0.489,0.376l2.675,10.012l1.094-4.091l0.721-2.692
				c0.051-0.189,0.207-0.333,0.4-0.367c0.193-0.034,0.39,0.046,0.502,0.206l1.755,2.478h6.913c1.384-3.046,0.825-6.759-1.681-9.264
				c-3.228-3.228-8.46-3.228-11.688,0c-3.228-3.228-8.461-3.228-11.689,0c-2.505,2.505-3.064,6.218-1.681,9.264H462.002z"/>
			<path style="fill:#51FFFF;" d="M473.584,142.466c-0.164,0-0.317-0.08-0.413-0.214l-1.282-1.811l-0.442,1.649l-1.582,5.92
				c-0.059,0.222-0.26,0.376-0.489,0.376c-0.23,0-0.43-0.154-0.489-0.376l-2.675-10.011l-1.094,4.091l-0.729,2.693
				c-0.052,0.188-0.208,0.332-0.401,0.366c-0.192,0.033-0.389-0.047-0.501-0.207l-1.746-2.477h-7.167
				c0.318,0.5,0.694,0.974,1.131,1.411l11.689,11.688l11.688-11.688c0.436-0.438,0.813-0.911,1.131-1.411H473.584z"/>
		</g>
		<path style="fill:#51FFFF;" d="M448.284,77.9c-0.907,0-1.678,0.583-1.961,1.395h-6.485l-2.364-3.338
			c-0.152-0.217-0.416-0.324-0.677-0.278c-0.261,0.047-0.471,0.24-0.539,0.495l-0.972,3.628l-1.474,5.513l-3.605-13.492
			c-0.08-0.299-0.351-0.507-0.659-0.507c-0.31,0-0.579,0.208-0.66,0.507l-2.131,7.977l-0.603,2.226l-1.72-2.44
			c-0.128-0.182-0.336-0.29-0.558-0.29h-6.84c-0.283-0.812-1.053-1.395-1.961-1.395c-1.148,0-2.078,0.93-2.078,2.078
			c0,1.147,0.93,2.078,2.078,2.078c0.908,0,1.678-0.583,1.961-1.395h6.485l2.353,3.337c0.152,0.216,0.416,0.325,0.676,0.279
			c0.262-0.046,0.472-0.238,0.541-0.494l0.983-3.63l1.474-5.512l3.605,13.492c0.08,0.299,0.351,0.506,0.659,0.506
			c0.309,0,0.58-0.208,0.659-0.506l2.133-7.979l0.595-2.223l1.729,2.441c0.128,0.181,0.336,0.288,0.557,0.288h6.839
			c0.283,0.812,1.054,1.395,1.961,1.395c1.148,0,2.078-0.93,2.078-2.078C450.362,78.83,449.433,77.9,448.284,77.9z"/>
		<g>
			<path style="fill:#51FFFF;" d="M395.399,143.45c0.713,0,1.29-0.578,1.29-1.29c0-0.712-0.577-1.29-1.29-1.29
				c-0.712,0-1.29,0.578-1.29,1.29C394.109,142.873,394.688,143.45,395.399,143.45z"/>
			<path style="fill:#51FFFF;" d="M396.207,139.562c0.548,0,0.991-0.443,0.991-0.991c0-0.547-0.443-0.991-0.991-0.991
				c-0.547,0-0.99,0.444-0.99,0.991C395.217,139.119,395.66,139.562,396.207,139.562z"/>
			<path style="fill:#51FFFF;" d="M395.38,145.986c0.016-0.113,0.023-0.229,0.016-0.348c-0.065-0.969-0.904-1.701-1.873-1.637
				c-0.121,0.009-0.238,0.028-0.35,0.059c0.099-0.184,0.16-0.389,0.16-0.611c0-0.712-0.578-1.29-1.29-1.29
				c-0.713,0-1.29,0.578-1.29,1.29c0,0.713,0.577,1.29,1.29,1.29c0.063,0,0.124-0.009,0.184-0.018
				c-0.237,0.322-0.372,0.723-0.343,1.153c0.002,0.037,0.011,0.074,0.017,0.11h-4.634c0,3.027,1.541,5.694,3.881,7.261h9.699
				c2.341-1.566,3.881-4.233,3.881-7.261H395.38z"/>
			<path style="fill:#51FFFF;" d="M404.362,140.259c-1.125-1.606-2.664-2.842-4.464-3.586v-6.659c0.303,0,0.548-0.245,0.548-0.548
				c0-0.303-0.245-0.548-0.548-0.548h-7.798c-0.303,0-0.548,0.245-0.548,0.548c0,0.303,0.245,0.548,0.548,0.548v6.659
				c-1.801,0.745-3.34,1.98-4.464,3.586c-1.203,1.718-1.839,3.739-1.839,5.843c0,3.46,1.732,6.656,4.634,8.549l0.096,0.063h10.944
				l0.095-0.063c2.902-1.893,4.635-5.089,4.635-8.549C406.201,143.998,405.565,141.977,404.362,140.259z M401.242,153.946h-10.485
				c-2.627-1.758-4.191-4.682-4.191-7.844c0-3.881,2.434-7.422,6.057-8.811l0.246-0.095v-7.183h6.263v7.183l0.246,0.095
				c3.622,1.389,6.057,4.93,6.057,8.811C405.434,149.265,403.868,152.189,401.242,153.946z"/>
		</g>
	</g>
</g>
</svg>
