<?xml version="1.0" encoding="utf-8"?>
<!-- Generator: Adobe Illustrator 27.5.0, SVG Export Plug-In . SVG Version: 6.00 Build 0)  -->
<svg version="1.1" id="Peoples" xmlns="http://www.w3.org/2000/svg" xmlns:xlink="http://www.w3.org/1999/xlink" x="0px" y="0px"
	 viewBox="0 0 500 500" style="enable-background:new 0 0 500 500;" xml:space="preserve">
<g>
	<g>
		<g>
			<rect y="0" style="fill:#2181F1;" width="500" height="500"/>
		</g>
	</g>
	<g>
		<g>
			<g>
				<polygon style="fill:#F7931E;" points="321.279,318.083 425.689,363.996 452.583,308.831 348.173,262.917 				"/>
			</g>
			<g>
				<g>
					<path style="fill:#FFFFFF;" d="M370.041,280.06c-6.123-2.693-12.246-5.385-18.369-8.078c-2.364-1.04-4.069,2.448-1.701,3.489
						c6.123,2.693,12.246,5.385,18.369,8.078C370.704,284.589,372.409,281.101,370.041,280.06z"/>
				</g>
			</g>
			<g>
				<g>
					<path style="fill:#FFFFFF;" d="M400.565,293.483c-3.499-1.539-6.998-3.077-10.497-4.616c-2.364-1.039-4.069,2.448-1.701,3.489
						c3.499,1.539,6.998,3.077,10.497,4.616C401.227,298.012,402.932,294.524,400.565,293.483z"/>
				</g>
			</g>
			<g>
				<g>
					<path style="fill:#FFFFFF;" d="M375.504,289.153c-8.839-3.887-17.679-7.774-26.518-11.661c-2.364-1.04-4.069,2.448-1.701,3.489
						c8.839,3.887,17.679,7.774,26.518,11.661C376.167,293.682,377.872,290.194,375.504,289.153z"/>
				</g>
			</g>
			<g>
				<g>
					<path style="fill:#FFFFFF;" d="M397.879,298.992c-3.499-1.539-6.998-3.077-10.497-4.616c-2.364-1.039-4.069,2.448-1.701,3.489
						c3.499,1.539,6.998,3.077,10.497,4.616C398.542,303.521,400.247,300.033,397.879,298.992z"/>
				</g>
			</g>
			<g>
				<g>
					<path style="fill:#FFFFFF;" d="M367.431,292.293c-7.044-3.097-14.088-6.195-21.132-9.293c-2.364-1.039-4.069,2.448-1.701,3.489
						c7.044,3.098,14.088,6.195,21.132,9.293C368.094,296.822,369.799,293.335,367.431,292.293z"/>
				</g>
			</g>
			<g>
				<g>
					<path style="fill:#FFFFFF;" d="M395.193,304.501c-2.164-0.952-4.328-1.903-6.491-2.855c-2.364-1.04-4.069,2.448-1.701,3.489
						c2.164,0.952,4.328,1.903,6.492,2.855C395.856,309.03,397.561,305.543,395.193,304.501z"/>
				</g>
			</g>
			<g>
				<g>
					<path style="fill:#FFFFFF;" d="M381.572,332.442c-2.164-0.951-4.328-1.903-6.492-2.855c-2.364-1.039-4.069,2.448-1.701,3.489
						c2.164,0.952,4.328,1.903,6.491,2.855C382.235,336.97,383.939,333.483,381.572,332.442z"/>
				</g>
			</g>
			<g>
				<g>
					<path style="fill:#FFFFFF;" d="M403.865,348.426c-0.012,0.025-0.009,0.049-0.013,0.074l0.794,0.349
						c0.017-0.019,0.038-0.032,0.051-0.057l5.18-10.625l-0.831-0.366L403.865,348.426z"/>
				</g>
			</g>
			<g>
				<g>
					<path style="fill:#FFFFFF;" d="M413.378,352.609c-0.012,0.025-0.009,0.049-0.013,0.074l0.794,0.349
						c0.017-0.019,0.038-0.032,0.051-0.057l5.18-10.625l-0.831-0.366L413.378,352.609z"/>
				</g>
			</g>
			<g>
				<g>
					<path style="fill:#FFFFFF;" d="M407.652,350.091c-0.012,0.025-0.009,0.049-0.013,0.074l0.794,0.349
						c0.017-0.019,0.038-0.032,0.051-0.057l5.18-10.625l-0.831-0.365L407.652,350.091z"/>
				</g>
			</g>
			<g>
				<g>
					<path style="fill:#FFFFFF;" d="M408.853,350.619c-0.012,0.025-0.009,0.049-0.013,0.074l0.794,0.349
						c0.017-0.019,0.039-0.032,0.051-0.057l5.18-10.625l-0.831-0.366L408.853,350.619z"/>
				</g>
			</g>
			<g>
				<g>
					<path style="fill:#FFFFFF;" d="M411.9,351.959c-0.012,0.025-0.009,0.049-0.013,0.074l0.794,0.349
						c0.017-0.019,0.038-0.032,0.051-0.057l5.18-10.625l-0.831-0.365L411.9,351.959z"/>
				</g>
			</g>
			<g>
				<g>
					<path style="fill:#FFFFFF;" d="M405.204,349.015c-0.012,0.025-0.005,0.049-0.013,0.074l1.625,0.715
						c0.015-0.022,0.038-0.032,0.051-0.057l5.18-10.625l-1.663-0.731L405.204,349.015z"/>
				</g>
			</g>
			<g>
				<g>
					<path style="fill:#FFFFFF;" d="M409.915,351.086c-0.012,0.025-0.005,0.049-0.013,0.074l1.625,0.715
						c0.015-0.022,0.038-0.032,0.051-0.057l5.18-10.625l-1.663-0.731L409.915,351.086z"/>
				</g>
			</g>
			<g>
				<g>
					<path style="fill:#FFFFFF;" d="M418.089,354.681c-0.012,0.025-0.009,0.049-0.013,0.074l0.794,0.349
						c0.017-0.019,0.038-0.032,0.051-0.057l5.18-10.625l-0.831-0.366L418.089,354.681z"/>
				</g>
			</g>
			<g>
				<g>
					<path style="fill:#FFFFFF;" d="M416.565,354.01c-0.012,0.025-0.009,0.049-0.013,0.074l0.794,0.349
						c0.017-0.019,0.039-0.032,0.051-0.057l5.18-10.625l-0.831-0.366L416.565,354.01z"/>
				</g>
			</g>
			<g>
				<g>
					<path style="fill:#FFFFFF;" d="M414.625,353.157c-0.012,0.025-0.005,0.049-0.013,0.074l1.625,0.715
						c0.015-0.022,0.038-0.032,0.051-0.057l5.18-10.625l-1.663-0.731L414.625,353.157z"/>
				</g>
			</g>
		</g>
		<g>
			<g>
				<polygon style="fill:#FF00FF;" points="295.656,321.435 400.067,367.348 426.96,312.183 322.55,266.269 				"/>
			</g>
			<g>
				<g>
					<path style="fill:#FFFFFF;" d="M344.418,283.412c-6.123-2.693-12.246-5.385-18.369-8.078c-2.364-1.04-4.069,2.448-1.701,3.489
						c6.123,2.693,12.246,5.385,18.369,8.078C345.081,287.941,346.786,284.453,344.418,283.412z"/>
				</g>
			</g>
			<g>
				<g>
					<path style="fill:#FFFFFF;" d="M374.942,296.835c-3.499-1.539-6.998-3.077-10.497-4.616c-2.364-1.04-4.069,2.448-1.701,3.489
						c3.499,1.539,6.998,3.077,10.497,4.616C375.605,301.363,377.31,297.876,374.942,296.835z"/>
				</g>
			</g>
			<g>
				<g>
					<path style="fill:#FFFFFF;" d="M349.881,292.505c-8.84-3.887-17.679-7.774-26.518-11.661c-2.364-1.04-4.069,2.448-1.701,3.489
						c8.839,3.887,17.679,7.774,26.518,11.661C350.544,297.034,352.249,293.546,349.881,292.505z"/>
				</g>
			</g>
			<g>
				<g>
					<path style="fill:#FFFFFF;" d="M372.256,302.344c-3.499-1.539-6.998-3.077-10.497-4.616c-2.364-1.04-4.069,2.448-1.701,3.489
						c3.499,1.539,6.998,3.077,10.497,4.616C372.919,306.873,374.624,303.385,372.256,302.344z"/>
				</g>
			</g>
			<g>
				<g>
					<path style="fill:#FFFFFF;" d="M341.809,295.646c-7.044-3.098-14.088-6.195-21.132-9.293c-2.364-1.04-4.069,2.448-1.701,3.489
						c7.044,3.098,14.088,6.195,21.132,9.293C342.472,300.174,344.177,296.687,341.809,295.646z"/>
				</g>
			</g>
			<g>
				<g>
					<path style="fill:#FFFFFF;" d="M369.57,307.853c-2.164-0.952-4.328-1.903-6.491-2.855c-2.364-1.039-4.069,2.448-1.701,3.489
						c2.164,0.952,4.328,1.903,6.491,2.854C370.233,312.382,371.938,308.895,369.57,307.853z"/>
				</g>
			</g>
			<g>
				<g>
					<path style="fill:#FFFFFF;" d="M355.949,335.793c-2.164-0.951-4.328-1.903-6.491-2.854c-2.364-1.039-4.069,2.448-1.701,3.489
						c2.164,0.952,4.328,1.903,6.491,2.855C356.612,340.322,358.317,336.835,355.949,335.793z"/>
				</g>
			</g>
			<g>
				<g>
					<path style="fill:#FFFFFF;" d="M378.242,351.778c-0.012,0.025-0.009,0.049-0.013,0.074l0.794,0.349
						c0.017-0.019,0.038-0.032,0.051-0.057l5.18-10.625l-0.831-0.366L378.242,351.778z"/>
				</g>
			</g>
			<g>
				<g>
					<path style="fill:#FFFFFF;" d="M387.756,355.961c-0.012,0.025-0.009,0.049-0.013,0.074l0.794,0.349
						c0.017-0.019,0.039-0.032,0.051-0.057l5.18-10.625l-0.831-0.365L387.756,355.961z"/>
				</g>
			</g>
			<g>
				<g>
					<path style="fill:#FFFFFF;" d="M382.029,353.443c-0.012,0.025-0.009,0.049-0.013,0.074l0.794,0.349
						c0.017-0.019,0.038-0.032,0.051-0.057l5.18-10.625l-0.831-0.365L382.029,353.443z"/>
				</g>
			</g>
			<g>
				<g>
					<path style="fill:#FFFFFF;" d="M383.23,353.971c-0.012,0.025-0.009,0.049-0.013,0.074l0.794,0.349
						c0.017-0.019,0.039-0.032,0.051-0.057l5.18-10.625l-0.831-0.366L383.23,353.971z"/>
				</g>
			</g>
			<g>
				<g>
					<path style="fill:#FFFFFF;" d="M386.278,355.311c-0.012,0.025-0.009,0.049-0.013,0.074l0.794,0.349
						c0.017-0.019,0.038-0.032,0.051-0.057l5.18-10.625l-0.831-0.366L386.278,355.311z"/>
				</g>
			</g>
			<g>
				<g>
					<path style="fill:#FFFFFF;" d="M379.582,352.367c-0.012,0.025-0.005,0.049-0.013,0.074l1.625,0.715
						c0.015-0.022,0.039-0.032,0.051-0.057l5.18-10.625l-1.663-0.731L379.582,352.367z"/>
				</g>
			</g>
			<g>
				<g>
					<path style="fill:#FFFFFF;" d="M384.292,354.438c-0.012,0.025-0.005,0.049-0.013,0.074l1.625,0.715
						c0.015-0.022,0.038-0.032,0.051-0.057l5.18-10.625l-1.662-0.731L384.292,354.438z"/>
				</g>
			</g>
			<g>
				<g>
					<path style="fill:#FFFFFF;" d="M392.466,358.032c-0.012,0.025-0.009,0.049-0.013,0.074l0.794,0.349
						c0.017-0.019,0.039-0.033,0.051-0.057l5.18-10.625l-0.831-0.366L392.466,358.032z"/>
				</g>
			</g>
			<g>
				<g>
					<path style="fill:#FFFFFF;" d="M390.942,357.362c-0.012,0.025-0.009,0.049-0.013,0.074l0.794,0.349
						c0.017-0.019,0.039-0.033,0.051-0.057l5.18-10.625l-0.831-0.366L390.942,357.362z"/>
				</g>
			</g>
			<g>
				<g>
					<path style="fill:#FFFFFF;" d="M389.002,356.509c-0.012,0.025-0.005,0.049-0.013,0.074l1.625,0.714
						c0.015-0.022,0.039-0.032,0.051-0.057l5.18-10.625l-1.663-0.731L389.002,356.509z"/>
				</g>
			</g>
		</g>
		<g>
			<g>
				<path style="fill:#2181F1;" d="M341.059,113.551H207.402c-4.535,0-8.246,3.524-8.246,7.831v242.045
					c0,4.307,3.71,7.831,8.246,7.831h133.658c4.535,0,8.246-3.524,8.246-7.831V121.383
					C349.305,117.076,345.595,113.551,341.059,113.551z"/>
				<path style="fill:#FFFFFF;" d="M341.06,371.759H207.402c-4.823,0-8.746-3.737-8.746-8.331V121.382
					c0-4.594,3.923-8.331,8.746-8.331H341.06c4.822,0,8.746,3.737,8.746,8.331v242.045
					C349.806,368.022,345.882,371.759,341.06,371.759z M207.402,114.051c-4.271,0-7.746,3.289-7.746,7.331v242.045
					c0,4.042,3.475,7.331,7.746,7.331H341.06c4.272,0,7.746-3.289,7.746-7.331V121.382c0-4.043-3.475-7.331-7.746-7.331H207.402z"/>
			</g>
		</g>
		<g>
			<g>
				<path style="fill:#2181F1;" d="M341.992,126.952H206.469c-1.91,0-3.473,1.652-3.473,3.67v223.565c0,2.019,1.563,3.67,3.473,3.67
					h135.523c1.91,0,3.473-1.652,3.473-3.67V130.622C345.465,128.603,343.903,126.952,341.992,126.952z"/>
				<path style="fill:#FFFFFF;" d="M341.992,358.358H206.469c-2.191,0-3.973-1.871-3.973-4.171V130.622c0-2.3,1.782-4.17,3.973-4.17
					h135.523c2.191,0,3.974,1.871,3.974,4.17v223.565C345.966,356.487,344.184,358.358,341.992,358.358z M206.469,127.451
					c-1.639,0-2.973,1.422-2.973,3.17v223.565c0,1.748,1.334,3.171,2.973,3.171h135.523c1.64,0,2.974-1.423,2.974-3.171V130.622
					c0-1.748-1.334-3.17-2.974-3.17H206.469z"/>
			</g>
		</g>
		<g>
			<g>
				<path style="fill:#2181F1;" d="M290.931,117.16H257.53c-1.417,0-2.576,1.101-2.576,2.447c0,1.346,1.159,2.447,2.576,2.447
					h33.401c1.417,0,2.576-1.101,2.576-2.447C293.507,118.261,292.348,117.16,290.931,117.16z"/>
				<path style="fill:#FFFFFF;" d="M290.932,122.553H257.53c-1.696,0-3.076-1.322-3.076-2.947s1.38-2.947,3.076-2.947h33.401
					c1.696,0,3.076,1.322,3.076,2.947S292.628,122.553,290.932,122.553z M257.53,117.66c-1.145,0-2.076,0.874-2.076,1.947
					c0,1.073,0.932,1.947,2.076,1.947h33.401c1.145,0,2.076-0.873,2.076-1.947c0-1.073-0.932-1.947-2.076-1.947H257.53z"/>
			</g>
		</g>
		<g>
			<g>
				<path style="fill:#2181F1;" d="M280.078,361.381h-11.695c-1.417,0-2.576,1.101-2.576,2.447c0,1.346,1.159,2.447,2.576,2.447
					h11.695c1.417,0,2.576-1.101,2.576-2.447C282.654,362.482,281.495,361.381,280.078,361.381z"/>
				<path style="fill:#FFFFFF;" d="M280.078,366.775h-11.695c-1.696,0-3.076-1.321-3.076-2.946s1.38-2.947,3.076-2.947h11.695
					c1.696,0,3.076,1.322,3.076,2.947S281.774,366.775,280.078,366.775z M268.383,361.881c-1.145,0-2.076,0.874-2.076,1.947
					c0,1.073,0.932,1.946,2.076,1.946h11.695c1.145,0,2.076-0.873,2.076-1.946c0-1.073-0.932-1.947-2.076-1.947H268.383z"/>
			</g>
		</g>
		<g>
			<g>
				<g>
					<path style="fill:#FFFFFF;" d="M332.069,318.265c-1.245-0.868-2.642-1.388-4.183-1.409c-4.784-0.066-9.569-0.089-14.354-0.12
						c-0.275-0.002-0.429-0.077-0.559-0.314c-0.558-1.02-1.14-2.028-1.712-3.041c-0.266-0.471-0.53-0.943-0.807-1.437
						c0.831-0.207,1.109-0.739,1.037-1.483c-0.005-0.057,0-0.115,0.001-0.173c0.008-0.904-0.574-1.417-1.53-1.352
						c-0.262,0.018-0.527,0.01-0.785,0.049c-0.294,0.044-0.442-0.057-0.582-0.308c-2.051-3.651-4.116-7.295-6.177-10.941
						c-0.423-0.748-0.843-1.497-1.275-2.264c-0.524-0.004-1.085-0.009-1.685-0.014c0.014,0.198,0.003,0.381,0.043,0.554
						c0.87,3.73,1.747,7.458,2.622,11.187c0.164,0.698,0.327,1.395,0.495,2.112c-0.143,0.008-0.253,0.016-0.363,0.02
						c-0.121,0.004-0.243-0.002-0.363,0.007c-0.392,0.029-0.477,0.106-0.488,0.476c-0.012,0.402-0.006,0.804-0.01,1.206
						c-0.002,0.226,0.098,0.368,0.347,0.385c0.372,0.026,0.744,0.059,1.116,0.067c0.226,0.005,0.303,0.106,0.347,0.3
						c0.225,0.992,0.463,1.981,0.695,2.972c0.146,0.624,0.288,1.249,0.441,1.912c-0.144-0.001-0.253-0.004-0.361-0.003
						c-1.2,0.022-2.403-0.003-3.599,0.076c-2.899,0.192-5.794,0.429-8.69,0.657c-0.218,0.017-0.346-0.038-0.48-0.201
						c-1.891-2.306-3.79-4.607-5.689-6.908c-0.053-0.064-0.121-0.16-0.187-0.165c-0.285-0.02-0.573-0.012-0.918-0.015
						c0.885,2.571,1.751,5.086,2.616,7.599c-0.834,0.284-1.195,0.672-1.216,1.286c-0.022,0.648,0.313,1.045,1.191,1.391
						c-0.911,2.499-1.822,4.999-2.753,7.552c0.262,0.002,0.444-0.012,0.622,0.009c0.245,0.029,0.399-0.054,0.555-0.238
						c1.918-2.262,3.843-4.517,5.775-6.768c0.079-0.092,0.247-0.179,0.365-0.169c1.608,0.136,3.214,0.294,4.821,0.437
						c2.531,0.226,5.053,0.562,7.605,0.492c0.088-0.002,0.176,0.011,0.269,0.017c0,0.05,0.005,0.08-0.002,0.107
						c-0.407,1.611-0.813,3.221-1.231,4.829c-0.02,0.079-0.147,0.18-0.232,0.187c-0.361,0.032-0.726,0.025-1.088,0.048
						c-0.37,0.023-0.458,0.111-0.468,0.462c-0.011,0.374-0.014,0.748-0.012,1.121c0.002,0.398,0.085,0.482,0.514,0.509
						c0.224,0.014,0.449,0.006,0.695,0.008c-0.04,0.172-0.062,0.274-0.088,0.376c-1.086,4.281-2.173,8.562-3.254,12.843
						c-0.048,0.19-0.049,0.392-0.075,0.607c0.614,0.005,1.183,0.01,1.712,0.014c0.102-0.19,0.181-0.354,0.274-0.511
						c2.475-4.206,4.953-8.41,7.424-12.619c0.119-0.203,0.248-0.289,0.497-0.253c0.288,0.042,0.583,0.047,0.875,0.067
						c0.419,0.029,0.806-0.059,1.129-0.322c0.574-0.467,0.59-1.892,0.019-2.364c-0.171-0.141-0.391-0.228-0.604-0.348
						c0.027-0.051,0.06-0.119,0.098-0.185c0.835-1.422,1.675-2.841,2.502-4.266c0.113-0.195,0.237-0.26,0.471-0.258
						c4.815,0.046,9.63,0.106,14.445,0.109c1.591,0.001,3.057-0.502,4.315-1.45c0.823-0.62,0.811-1.382,0.025-2.044
						C332.162,318.338,332.117,318.299,332.069,318.265z"/>
				</g>
			</g>
			<g>
				<path style="fill:#FFFFFF;" d="M278.503,316.995c-2.159-1.032-4.317-2.064-6.476-3.095c-0.813-0.388-1.477,0.801-0.659,1.192
					c2.159,1.032,4.317,2.063,6.476,3.095C278.657,318.576,279.321,317.386,278.503,316.995z"/>
			</g>
			<g>
				<path style="fill:#FFFFFF;" d="M262.195,306.218c-0.679-0.577-1.65,0.404-0.969,0.983c1.801,1.531,3.601,3.061,5.402,4.592
					c0.679,0.577,1.65-0.404,0.968-0.983C265.797,309.279,263.996,307.749,262.195,306.218z"/>
			</g>
			<g>
				<path style="fill:#FFFFFF;" d="M254.174,296.267c-0.521-0.708-1.732-0.008-1.209,0.703c1.384,1.882,2.768,3.763,4.152,5.644
					c0.521,0.708,1.732,0.008,1.209-0.703C256.942,300.03,255.558,298.148,254.174,296.267z"/>
			</g>
			<g>
				<path style="fill:#FFFFFF;" d="M248.612,285.423c-0.332-0.802-1.692-0.423-1.359,0.384c0.883,2.137,1.765,4.273,2.648,6.41
					c0.331,0.802,1.692,0.422,1.359-0.384C250.378,289.696,249.495,287.559,248.612,285.423z"/>
			</g>
			<g>
				<path style="fill:#FFFFFF;" d="M244.218,271.573c-0.26-0.832-1.618-0.447-1.359,0.384c0.688,2.2,1.377,4.4,2.065,6.6
					c0.26,0.832,1.619,0.446,1.359-0.384C245.595,275.973,244.906,273.773,244.218,271.573z"/>
			</g>
			<g>
				<path style="fill:#FFFFFF;" d="M231.842,215.475c-1.386,1.88-2.772,3.76-4.158,5.64c-0.521,0.707,0.738,1.328,1.255,0.626
					c1.386-1.88,2.772-3.76,4.158-5.64C233.619,215.394,232.36,214.773,231.842,215.475z"/>
			</g>
			<g>
				<path style="fill:#FFFFFF;" d="M224.659,227.732c-0.559,2.233-1.117,4.466-1.676,6.699c-0.211,0.843,1.171,1.143,1.382,0.298
					c0.559-2.233,1.117-4.466,1.676-6.699C226.252,227.188,224.87,226.887,224.659,227.732z"/>
			</g>
			<g>
				<path style="fill:#FFFFFF;" d="M222.997,241.065c0.385,2.266,0.77,4.532,1.155,6.798c0.143,0.845,1.562,0.81,1.417-0.045
					c-0.385-2.266-0.77-4.532-1.155-6.797C224.27,240.176,222.852,240.211,222.997,241.065z"/>
			</g>
			<g>
				<path style="fill:#FFFFFF;" d="M228.081,253.443c-0.564-0.668-1.778,0.029-1.209,0.703c1.511,1.791,3.023,3.581,4.535,5.372
					c0.564,0.668,1.778-0.029,1.209-0.703C231.105,257.024,229.593,255.233,228.081,253.443z"/>
			</g>
			<g>
				<path style="fill:#FFFFFF;" d="M243.043,266.489c-1.981-1.315-3.961-2.63-5.942-3.945c-0.745-0.494-1.399,0.701-0.659,1.192
					c1.981,1.315,3.962,2.63,5.942,3.945C243.129,268.176,243.783,266.98,243.043,266.489z"/>
			</g>
			<g>
				<path style="fill:#FFFFFF;" d="M256.366,267.871c-2.413-0.129-4.825-0.259-7.238-0.388c-0.912-0.049-0.858,1.297,0.047,1.345
					c2.413,0.129,4.826,0.259,7.238,0.388C257.325,269.265,257.271,267.919,256.366,267.871z"/>
			</g>
			<g>
				<path style="fill:#FFFFFF;" d="M269.285,262.353c-1.984,1.31-3.969,2.62-5.953,3.93c-0.747,0.493-0.009,1.643,0.74,1.148
					c1.984-1.31,3.969-2.62,5.953-3.93C270.772,263.009,270.034,261.858,269.285,262.353z"/>
			</g>
			<g>
				<path style="fill:#FFFFFF;" d="M278.79,252.235c-1.471,1.821-2.942,3.642-4.413,5.463c-0.55,0.681,0.479,1.608,1.035,0.92
					c1.471-1.821,2.942-3.642,4.413-5.463C280.375,252.474,279.346,251.547,278.79,252.235z"/>
			</g>
			<g>
				<path style="fill:#FFFFFF;" d="M285.347,239.224c-0.869,2.142-1.738,4.283-2.606,6.425c-0.324,0.798,0.927,1.435,1.255,0.626
					c0.869-2.142,1.738-4.283,2.607-6.425C286.926,239.052,285.675,238.414,285.347,239.224z"/>
			</g>
			<g>
				<path style="fill:#FFFFFF;" d="M285.318,227.591c0.191,2.288,0.382,4.576,0.573,6.864c0.072,0.862,1.489,0.821,1.417-0.044
					c-0.191-2.288-0.382-4.576-0.573-6.864C286.663,226.685,285.246,226.725,285.318,227.591z"/>
			</g>
		</g>
		<g>
			<g>
				<g>
					<path style="fill:#2181F1;" d="M289.72,158.973c-0.143,0.145-0.031,0.659-0.23,0.82c-0.592,0.482-1.695-0.098-2.18-0.386
						c-1.645-0.979-2.543-2.736-4.165-3.743c-0.429-0.266-1.653-0.606-0.648-1.068c-0.398-0.967-2.084-2.03-3.135-2.165
						c0.074-2.21-0.645-1.543-2.69-2.162c-1.63-0.493-3.458-2.079-6.009-2.283c-0.887,0.017-1.293-0.891-1.824-1.444
						c0.787-0.404,2.425,0.045,3.421-0.062c0.983-0.105,1.905-0.217,2.932-0.145c0.635,0.045,1.613,0.04,2.377,0.172
						c-5.48-2.976-11.659-4.951-18.308-5.64c-11.944-1.238-23.353,1.882-32.541,8.04c1.768-0.432,3.335-0.405,4.235-0.312
						c1.161,0.12,4.309,0.681,4.268-0.333c-0.04-1.014-0.084-1.316-1.253-1.363c-1.17-0.047-3.827-0.099-1.593-1.132
						c2.234-1.033,4.625-0.711,5.468-0.549c0.843,0.162,2.974-0.659,4.125-1.135c1.151-0.476,4.134-1.208,2.263,0.755
						c-1.871,1.964-3.591,3.986-3.591,3.986s-2.976,1.36,0.531,0.831c2.162-0.326,3.526-0.962,4.819-1.205
						c-1.816-0.349-3.224-0.907-3.199-1.802c1.468-0.476,3.35,0.502,4.893,0.382c0.84-0.065,1.609-0.452,2.501-0.464
						c1.492-0.019,3.024,0.394,4.452,0.738c0.963,0.231,2.712,1.02,3.535,0.17c-0.791-0.855-1.85-1.738-2.859-2.36
						c-1.376-0.847-4.435-0.522-5.033-1.942c1.263-0.18,2.361-0.508,3.669-0.38c2.083,0.203,4.165,0.433,6.247,0.649
						c2.44,0.253,5.803,0.012,8.045,1.057c0.733,1.293-0.417,0.819-1.48,0.78c-2.231-0.082-5.505,0.076-7.527,0.961
						c2.031,0.962-0.366,2.261-0.288,3.501c-0.858,0.348-1.987,0.149-2.908,0.209c0.817,0.417,1.748,0.594,2.578,0.992
						c-1.129,0.165-2.229,0.511-3.366,0.621c0.031-0.041,0.065-0.081,0.102-0.118c-0.72-0.514-2.347-0.967-2.422-1.843
						c0.481,0.019,0.676-0.168,0.8-0.573c-0.292-0.001-2.311,0.004-4.536-0.174c2.047,0.647,3.497,0.772,3.527,0.507
						c0.034-0.294,0.08,1.347-1.102,3.457c-1.182,2.109,7.434,3.505,7.6,4.089c0.166,0.584,0.327,3.279,2.218,3.178
						c1.892-0.102,1.361-1.942,1.361-1.942l1.591-0.7l0.24-2.086l-1.392-1.037l1.654-1.249c0,0,2.558,1.834,5.899,4.412l3.815-0.944
						l4.948,4.977c0,0,0.744,1.268-0.135,1.176c-0.879-0.091-7.426,0.272-7.426,0.272l-1.326,1.351c0,0,2.289,0.386,3.011,0.312
						c0.722-0.074,2.324,0.985,2.324,0.985s2.502,1.45,1.133,1.754c-1.369,0.305-6.597,0.804-6.597,0.804s0.414-1.445-0.809-1.423
						c-1.223,0.022-1.648,2.359-2.766,2.54c-1.118,0.182-3.155-0.624-3.443,0.239c-0.287,0.863,0.088,2.241-0.321,2.794
						c-0.409,0.553-3.364,1.735-3.364,1.735l-1.609,5.621l-2.946-4.159l-3.009,0.283l-1.323,0.607l-2.124-0.964l-4.84,1.582
						l1.033,6.006l2.697,2.073l2.69-2.599l2.819,1.376l-1.556,2.634l-0.145,1.26l4.104,0.425l1.314,2.666l-1.787,1.452l2.418,1.441
						l2.617,0.271l0.445,0.918c0.833-1.039,2.559-2.107,3.836-2.306c1.759-0.273,1.449,0.791,1.184,1.989
						c1.34,0.521,1.215-1.299,2.247-1.414c0.826-0.092,1.468,0.783,2.225,1.005c0.553,0.163,1.076-0.043,1.585-0.02
						c2.023,0.091,3.948,1.84,5.385,3.083c0.544,0.471,0.875,1.034,1.586,1.299c0.521,0.194,1.35-0.072,1.827,0.18
						c0.481,0.254,1.246,1.484,1.195,2.094c-0.09,1.075-1.554,1.234-1.794,2.055c-0.275,0.94,0.9,1.615,1.839,1.539
						c0.703-0.056,0.887-0.613,1.475-0.627c0.218-0.005,0.409-0.095,0.645-0.006c0.576,0.217,0.35,0.68,0.601,0.854
						c0.713,0.493,1.663,0.265,2.514,0.454c1.707,0.378,1.329,1.678,3,1.943c0.246,3.014-2.634,4.41-3.532,7.072
						c-0.54,1.6-1.263,2.071-2.619,3.125c-1.392,1.082-2.504,2.279-4.094,3.117c-1.432,0.754-3.057,1.329-4.255,2.392
						c-1.111,0.986-1.361,1.474-2.916,1.834c-0.751,0.174-1.415,0.106-1.762,0.758c-0.447,0.841,0.114,1.134-0.926,1.742
						c-1.099,0.643-2.662,0.033-3.796,0.554c-0.256,0.117-0.261,0.453-0.428,0.546c-0.348,0.193-0.936-0.021-1.245,0.223
						c-0.259,0.204-0.264,0.867-0.396,1.181c-0.291,0.69-0.445,0.862-1.025,1.414c-0.855,0.815-2.146,1.894-3.153,2.537
						c20.235-2.503,37.101-17.34,41.237-37.211c-0.135-0.541-0.24-1.01-0.261-1.237c-0.07-0.751,0.025-4.312,0.777-6.764
						c0.142-0.464,0.295-0.894,0.45-1.289c0.016-10.588-3.673-20.499-9.986-28.426C291.069,158.708,290.403,158.282,289.72,158.973z
						 M272.57,153.516c-0.016,0.65,0.41,1,1.044,0.948c0.411,1.464-1.675,0.235-2.1,0.024c-0.821-0.405-5.701-1.243-5.481-2.224
						c0.153-0.683,1.236-0.265,1.179-1.15c-0.042-0.657-1.432-1.505-1.888-1.793c-0.9-0.568-3.619-0.77-4.06-1.686
						c-0.487-1.012,0.894-1.318,1.738-1.335c2.011-0.042,3.358,1.509,5.03,2.083c1.456,1.125,6.125,2.93,6.61,5.245
						C273.984,153.611,273.215,153.394,272.57,153.516z M262.01,186.484c-0.16,0.403-0.612,0.416-0.97,0.128
						c0.052-0.535,0.658-0.304,1.064-0.267L262.01,186.484z M260,183.523l-1.755-0.405c-0.535-0.269-2.156,0.05-1.928-0.876
						c1.195-0.1,3.014-0.017,4.152,0.456c0.684,0.284,1.011,0.887,1.68,1.215c0.629,0.308,1.046,0.293,1.299,0.98
						C262.029,185.069,261.265,183.668,260,183.523z M267.899,186.571c-0.274,0.18-0.411,0.739-0.672,0.993
						c-0.154-0.881-1.127-0.905-1.544-1.538c0.263-0.471,0.795-0.265,1.262-0.22l0.611,0.138c0.482,0.125,1.62,0.067,1.731,0.578
						C268.884,186.557,268.272,186.325,267.899,186.571z M270.848,187.481c-0.923,0.811-0.479-0.533-0.462-0.947l-0.172,0.131
						C270.555,186.096,271.576,186.842,270.848,187.481z M279.125,165.64c-0.754-1.24,0.268-1.704,0.655-2.908l0.447,0.195
						c-0.531,2.116,0.903,2.76,2.309,3.941C281.399,166.782,279.793,166.739,279.125,165.64z"/>
				</g>
			</g>
			<g>
				<path style="fill:#2181F1;" d="M260.177,212.749c-0.94-0.592-2.141-1.134-2.227-2.259c-0.057-0.75,0.333-1.055,0.038-1.83
					c-0.243-0.637-0.733-1.084-1.253-1.543c-1.158-1.023-2.326-1.241-0.69-2.276c0.581-0.367,1.138-0.2,1.025-1.047
					c-0.099-0.742-0.887-0.794-0.853-1.773c0.024-0.684,0.662-1.992,1.242-2.469c0.523-0.431,1.061-0.194,1.581-0.504
					c0.862-0.513,0.839-1.844,1.087-2.945l-1.534-1.348l-2.076-0.215l-3.148-2.403l-1.329-2.072l-3.012-1.056l-2.377-2.49
					l-2.787-0.289l-6.834-3.243l-0.768-4.229l-3.102-3l-2.122-3.345l-0.774-0.08l2.862,5.09l0.78,1.388l-4.206-4.305l-1.574-4.032
					l-2.774-3.133l0.519-5.88l2.094-1.866l-3.517-0.067l-0.761-2.237l-1.284-1.1l-1.048,1.305l-0.761-2.609l-1.323,0.173
					c-7.111,7.186-11.935,16.61-13.158,27.256c-2.944,25.628,16.076,48.622,42.483,51.358c2.937,0.304,5.841,0.344,8.688,0.141
					c-0.321-0.155-0.615-0.386-0.853-0.7c-1.401-1.85,0.669-2.434,1.406-3.834c0.93-1.767,0.738-3.646,1.878-5.421
					c1.164-1.812,1.374-4.093,3.415-6.235c0.306-0.539,1.131-2.251,0.792-2.908C263.483,213.862,261.091,213.325,260.177,212.749z"
					/>
			</g>
			<g>
				<path style="fill:#FFFFFF;" d="M280.74,148.768c-0.228-0.12-0.442-0.261-0.648-0.412c-0.824-0.515-1.665-1.008-2.524-1.474
					c-0.764-0.132-1.741-0.127-2.377-0.172c-1.027-0.072-1.949,0.04-2.932,0.145c-0.996,0.106-2.635-0.342-3.421,0.062
					c0.531,0.552,0.938,1.461,1.824,1.444c2.55,0.204,4.379,1.79,6.009,2.283c2.045,0.619,2.764-0.048,2.69,2.162
					c1.051,0.135,2.737,1.198,3.135,2.165c-1.004,0.462,0.22,0.802,0.648,1.068c1.622,1.007,2.52,2.764,4.165,3.743
					c0.485,0.289,1.588,0.868,2.18,0.386c0.199-0.162,0.087-0.675,0.23-0.82c0.682-0.691,1.349-0.266,2.334-0.334
					C288.895,155.047,285.078,151.577,280.74,148.768z"/>
			</g>
			<g>
				<path style="fill:#FFFFFF;" d="M286.983,205.503c-0.851-0.189-1.801,0.04-2.514-0.454c-0.251-0.174-0.026-0.636-0.601-0.854
					c-0.236-0.089-0.427,0.001-0.645,0.006c-0.588,0.013-0.772,0.57-1.475,0.627c-0.939,0.075-2.114-0.6-1.839-1.539
					c0.241-0.821,1.704-0.98,1.794-2.055c0.051-0.609-0.714-1.839-1.195-2.094c-0.477-0.252-1.306,0.015-1.827-0.18
					c-0.711-0.265-1.042-0.829-1.586-1.299c-1.437-1.243-3.362-2.992-5.385-3.083c-0.509-0.023-1.031,0.183-1.585,0.02
					c-0.756-0.222-1.399-1.097-2.225-1.005c-1.032,0.115-0.907,1.936-2.247,1.414c0.264-1.198,0.574-2.262-1.184-1.989
					c-1.278,0.198-3.004,1.267-3.836,2.306l0.39,0.805l-0.118,1.029l-0.777-0.683c-0.247,1.102-0.224,2.432-1.087,2.945
					c-0.52,0.31-1.058,0.073-1.581,0.504c-0.58,0.478-1.217,1.785-1.242,2.469c-0.034,0.979,0.754,1.031,0.853,1.773
					c0.112,0.847-0.444,0.679-1.025,1.047c-1.636,1.035-0.468,1.253,0.69,2.276c0.519,0.459,1.01,0.905,1.253,1.543
					c0.295,0.775-0.095,1.079-0.038,1.83c0.086,1.126,1.286,1.667,2.227,2.259c0.914,0.576,3.306,1.113,3.747,1.968
					c0.34,0.658-0.486,2.369-0.792,2.908c-2.041,2.143-2.251,4.424-3.415,6.235c-1.14,1.775-0.948,3.654-1.878,5.421
					c-0.737,1.401-2.806,1.984-1.406,3.834c0.238,0.314,0.531,0.545,0.853,0.7c0.856-0.061,1.706-0.145,2.55-0.25
					c1.007-0.643,2.298-1.721,3.153-2.537c0.58-0.553,0.734-0.724,1.025-1.414c0.132-0.313,0.137-0.976,0.396-1.181
					c0.31-0.244,0.897-0.03,1.245-0.223c0.167-0.093,0.172-0.429,0.428-0.546c1.134-0.52,2.697,0.089,3.796-0.554
					c1.04-0.608,0.479-0.901,0.926-1.742c0.347-0.653,1.012-0.584,1.762-0.758c1.555-0.36,1.805-0.848,2.916-1.834
					c1.198-1.063,2.823-1.638,4.255-2.392c1.59-0.837,2.702-2.034,4.094-3.117c1.355-1.054,2.079-1.525,2.619-3.125
					c0.898-2.662,3.777-4.057,3.532-7.072C288.312,207.182,288.691,205.882,286.983,205.503z"/>
			</g>
			<g>
				<path style="fill:#FFFFFF;" d="M274.607,156.917l-3.815,0.944c-3.34-2.578-5.899-4.412-5.899-4.412l-1.654,1.249l1.392,1.037
					l-0.24,2.086l-1.591,0.7c0,0,0.531,1.841-1.361,1.942c-1.892,0.102-2.052-2.593-2.218-3.178c-0.166-0.585-8.783-1.98-7.6-4.089
					c1.182-2.11,1.136-3.751,1.102-3.457c-0.03,0.265-1.48,0.14-3.527-0.507c-1.077-0.086-2.202-0.214-3.203-0.407
					c-1.293,0.243-2.657,0.879-4.819,1.205c-3.508,0.529-0.531-0.831-0.531-0.831s1.721-2.022,3.591-3.986
					c1.871-1.964-1.112-1.231-2.263-0.755c-1.151,0.476-3.282,1.297-4.125,1.135c-0.843-0.162-3.235-0.484-5.468,0.549
					c-2.234,1.033,0.424,1.085,1.593,1.132c1.17,0.047,1.213,0.349,1.253,1.363c0.04,1.014-3.107,0.454-4.268,0.333
					c-0.9-0.093-2.468-0.119-4.235,0.312c-2.687,1.801-5.182,3.864-7.446,6.153l1.323-0.173l0.761,2.609l1.048-1.305l1.284,1.1
					l0.761,2.237l3.517,0.067l-2.094,1.866l-0.519,5.88l2.774,3.133l1.574,4.032l4.206,4.305l-0.78-1.388l-2.862-5.09l0.774,0.08
					l2.122,3.345l3.102,3l0.768,4.229l6.834,3.243l2.787,0.289l2.377,2.49l3.012,1.056l1.329,2.072l3.148,2.403l2.076,0.215
					l1.534,1.348c0.09-0.402,0.215-0.774,0.434-1.064c0.022-0.029,0.048-0.059,0.071-0.088l-0.445-0.918l-2.617-0.271l-2.418-1.441
					l1.787-1.452l-1.314-2.666l-4.104-0.425l0.145-1.26l1.556-2.634l-2.819-1.376l-2.69,2.599l-2.697-2.073l-1.033-6.006l4.84-1.582
					l2.124,0.964l1.323-0.607l3.009-0.283l2.946,4.159l1.609-5.621c0,0,2.956-1.182,3.364-1.735
					c0.408-0.553,0.033-1.931,0.321-2.794c0.288-0.863,2.325-0.057,3.443-0.239c1.117-0.182,1.543-2.518,2.766-2.54
					c1.223-0.022,0.809,1.423,0.809,1.423s5.228-0.5,6.597-0.804c1.369-0.305-1.133-1.754-1.133-1.754s-1.602-1.059-2.324-0.985
					c-0.722,0.074-3.011-0.312-3.011-0.312l1.326-1.351c0,0,6.548-0.363,7.426-0.272c0.879,0.091,0.135-1.176,0.135-1.176
					L274.607,156.917z"/>
			</g>
			<g>
				<path style="fill:#FFFFFF;" d="M274.642,154.004c-0.485-2.316-5.154-4.12-6.61-5.245c-1.672-0.574-3.019-2.125-5.03-2.083
					c-0.845,0.018-2.226,0.323-1.738,1.335c0.441,0.916,3.16,1.117,4.06,1.686c0.455,0.288,1.846,1.136,1.888,1.793
					c0.057,0.885-1.026,0.467-1.179,1.15c-0.219,0.98,4.66,1.818,5.481,2.224c0.426,0.21,2.512,1.44,2.1-0.024
					c-0.634,0.052-1.059-0.298-1.044-0.948C273.215,153.769,273.984,153.986,274.642,154.004z"/>
			</g>
			<g>
				<path style="fill:#FFFFFF;" d="M260.198,143.817c-2.082-0.216-4.163-0.446-6.247-0.649c-1.308-0.128-2.406,0.201-3.669,0.38
					c0.598,1.42,3.657,1.094,5.033,1.942c1.01,0.622,2.068,1.505,2.859,2.36c-0.823,0.85-2.572,0.061-3.535-0.17
					c-1.428-0.344-2.961-0.757-4.452-0.738c-0.891,0.011-1.66,0.398-2.501,0.464c-1.544,0.119-3.425-0.858-4.893-0.382
					c-0.025,0.895,1.383,1.453,3.199,1.802c0.805-0.151,1.582-0.15,2.507,0.175c0.24,0.084,0.471,0.16,0.697,0.232
					c2.225,0.178,4.244,0.173,4.536,0.174c-0.124,0.405-0.319,0.592-0.8,0.573c0.075,0.876,1.702,1.329,2.422,1.843
					c-0.037,0.037-0.071,0.076-0.102,0.118c1.137-0.11,2.237-0.456,3.366-0.621c-0.829-0.398-1.761-0.576-2.578-0.992
					c0.921-0.06,2.049,0.138,2.908-0.209c-0.078-1.239,2.319-2.538,0.288-3.501c2.021-0.885,5.295-1.043,7.527-0.961
					c1.063,0.039,2.213,0.513,1.48-0.78C266.001,143.83,262.638,144.07,260.198,143.817z"/>
			</g>
			<g>
				<g>
					<path style="fill:#2181F1;" d="M245.992,148.825c1.001,0.192,2.126,0.321,3.203,0.407c-0.226-0.071-0.457-0.147-0.697-0.232
						C247.574,148.674,246.797,148.674,245.992,148.825z"/>
					<path style="fill:#FFFFFF;" d="M253.513,150.078l-4.357-0.348c-1.247-0.1-2.343-0.239-3.258-0.414l-2.586-0.496l2.588-0.487
						c0.997-0.188,1.85-0.127,2.765,0.194c0.234,0.083,0.46,0.157,0.682,0.227L253.513,150.078z"/>
				</g>
			</g>
		</g>
		<g>
			<path style="fill:#FFFFFF;" d="M253.755,234.816c-1.738,0-3.48-0.09-5.208-0.269c-13.165-1.364-24.891-7.688-33.016-17.807
				c-7.802-9.716-11.322-21.829-9.911-34.107c1.199-10.444,5.798-19.971,13.299-27.55c2.287-2.312,4.818-4.403,7.523-6.217
				c9.606-6.439,21.283-9.322,32.871-8.123c6.565,0.681,12.787,2.598,18.494,5.698c0.846,0.459,1.704,0.96,2.551,1.49
				c0.216,0.156,0.409,0.284,0.615,0.393c4.406,2.851,8.253,6.334,11.473,10.376c6.525,8.194,10.11,18.4,10.095,28.738l-0.5,0.018
				h0.5c0,3.066-0.331,6.141-0.983,9.141l0.03,0.121l-0.023,0.112c-4.147,19.923-20.892,35.036-41.665,37.605
				c-0.874,0.108-1.74,0.193-2.577,0.252C256.139,234.774,254.947,234.816,253.755,234.816z M254.153,141.479
				c-9.655,0-19.14,2.847-27.155,8.22c-2.65,1.776-5.129,3.825-7.369,6.089c-7.342,7.419-11.843,16.742-13.017,26.961
				c-1.38,12.01,2.064,23.86,9.698,33.366c7.957,9.909,19.442,16.102,32.34,17.438c2.856,0.297,5.749,0.343,8.601,0.14
				c0.819-0.058,1.668-0.141,2.524-0.247c20.31-2.512,36.688-17.258,40.786-36.708l-0.03-0.13l0.024-0.11
				c0.653-2.965,0.984-6.006,0.984-9.039v-0.017c0.015-10.114-3.492-20.099-9.877-28.116c-3.152-3.958-6.919-7.369-11.194-10.137
				c-0.212-0.109-0.446-0.263-0.672-0.428c-0.799-0.498-1.64-0.989-2.467-1.438c-5.592-3.037-11.688-4.915-18.121-5.582
				C257.523,141.565,255.835,141.479,254.153,141.479z"/>
		</g>
		<g>
			<g>
				<path style="fill:#F7931E;" d="M236.693,162.757c-0.065,2.071,0.664,5.16,3.049,9.76c2.385-4.6,3.114-7.689,3.049-9.76
					C242.676,159.063,236.809,159.063,236.693,162.757z M239.743,164.738c-1.007,0-1.823-0.775-1.823-1.731
					c0-0.956,0.816-1.731,1.823-1.731c1.007,0,1.823,0.775,1.823,1.731C241.566,163.962,240.75,164.738,239.743,164.738z"/>
			</g>
		</g>
		<g>
			<g>
				<path style="fill:#F7931E;" d="M281.622,144.044c-0.065,2.071,0.664,5.159,3.049,9.76c2.385-4.6,3.114-7.689,3.049-9.76
					C287.605,140.35,281.737,140.35,281.622,144.044z M284.671,146.025c-1.007,0-1.823-0.775-1.823-1.731s0.816-1.731,1.823-1.731
					c1.007,0,1.823,0.775,1.823,1.731S285.678,146.025,284.671,146.025z"/>
			</g>
		</g>
		<g>
			<g>
				<path style="fill:#FF7348;" d="M275.827,205.252c-0.065,2.071,0.664,5.159,3.049,9.76c2.385-4.601,3.114-7.689,3.049-9.76
					C281.81,201.558,275.943,201.558,275.827,205.252z M278.877,207.232c-1.007,0-1.823-0.775-1.823-1.731
					c0-0.956,0.816-1.731,1.823-1.731c1.007,0,1.823,0.775,1.823,1.731C280.7,206.457,279.884,207.232,278.877,207.232z"/>
			</g>
		</g>
		<g>
			<g>
				<g>
					<path style="fill:#FFFFFF;" d="M95.841,254.871c0,11.892,0,23.784,0,35.677c0,1.699,0,3.399,0,5.099
						c0,1.189,1.945,1.19,1.945,0c0-11.892,0-23.784,0-35.677c0-1.7,0-3.399,0-5.099C97.786,253.682,95.841,253.68,95.841,254.871z"
						/>
				</g>
			</g>
			<g>
				<g>
					<path style="fill:#FFFFFF;" d="M117.327,254.871c0,11.892,0,23.784,0,35.677c0,1.699,0,3.399,0,5.099
						c0,1.189,1.945,1.19,1.945,0c0-11.892,0-23.784,0-35.677c0-1.7,0-3.399,0-5.099
						C119.272,253.682,117.327,253.68,117.327,254.871z"/>
				</g>
			</g>
			<g>
				<path style="fill:#F7931E;" d="M132.826,292.335h-24.732h-0.91H82.451c0,0-6.531,3.707-6.99,10.36
					c-0.459,6.654,0,78.059,0,78.059s2.82,6.827,12.892,7.151c8.786,0.284,17.264,0.073,19.285,0.014
					c2.021,0.059,10.499,0.27,19.285-0.014c10.072-0.325,12.892-7.151,12.892-7.151s0.459-71.406,0-78.059
					C139.357,296.041,132.826,292.335,132.826,292.335z"/>
			</g>
			<g>
				<path style="fill:#4C4C4C;" d="M128.539,383.695c-2.991,0-5.415,1.95-5.415,4.355c0,2.405,2.424,4.355,5.415,4.355
					c2.991,0,5.415-1.95,5.415-4.355C133.954,385.645,131.53,383.695,128.539,383.695z"/>
			</g>
			<g>
				<path style="fill:#9AE2FB;" d="M128.539,386.187c-1.279,0-2.316,0.834-2.316,1.863c0,1.029,1.037,1.863,2.316,1.863
					c1.279,0,2.316-0.834,2.316-1.863C130.856,387.021,129.819,386.187,128.539,386.187z"/>
			</g>
			<g>
				<path style="fill:#4C4C4C;" d="M86.154,383.695c-2.991,0-5.415,1.95-5.415,4.355c0,2.405,2.424,4.355,5.415,4.355
					s5.415-1.95,5.415-4.355C91.569,385.645,89.144,383.695,86.154,383.695z"/>
			</g>
			<g>
				<ellipse style="fill:#9AE2FB;" cx="86.154" cy="388.05" rx="2.316" ry="1.863"/>
			</g>
			<g>
				<path style="fill:#FBB03B;" d="M130.065,303.315H85.213c-2.139,0-3.89,1.663-3.89,3.694v69.732c0,2.032,1.75,3.694,3.89,3.694
					h44.852c2.139,0,3.89-1.662,3.89-3.694v-69.732C133.954,304.977,132.204,303.315,130.065,303.315z"/>
			</g>
			<g>
				<path style="fill:#F7931E;" d="M120.222,250.659H95.056c-1.159,0-2.106,0.9-2.106,2.001v0.21c0,1.1,0.948,2.001,2.106,2.001
					h25.166c1.159,0,2.106-0.9,2.106-2.001v-0.21C122.329,251.559,121.381,250.659,120.222,250.659z"/>
			</g>
			<g>
				<g>
					<path style="fill:#FBB03B;" d="M133.954,298.708c-15.346,0-30.692,0-46.039,0c-2.198,0-4.395,0-6.592,0
						c-0.626,0-0.627,0.924,0,0.924c15.346,0,30.692,0,46.039,0c2.197,0,4.395,0,6.592,0
						C134.58,299.632,134.581,298.708,133.954,298.708z"/>
				</g>
			</g>
		</g>
		<g>
			<path style="fill:#58E9FE;" d="M229.076,332.381c0.645-4.9,4.258-54.73-19.798-79.427h-23.111c0,0-11.908,7.152-15.133,27.977
				c-3.225,20.825,15.133,104.737,15.133,104.737h7.439c0,0-0.15-91.874,4.117-91.874c4.267,0,8.781,34.3,15.875,45.937
				c7.094,11.638,30.35,42.262,31.298,42.262s6.92-2.891,6.92-2.891S228.431,337.281,229.076,332.381z"/>
		</g>
		<g>
			<path style="fill:#4C4C4C;" d="M295.681,224.769c0,0-2.359,2.066-1.715,2.954c0.643,0.887,3.878-1.49,3.38-3.127
				C296.848,222.959,295.681,224.769,295.681,224.769z"/>
		</g>
		<g>
			<path style="fill:#4C4C4C;" d="M293.094,191.977c0,0-1.858-2.485-2.866-1.992c-1.009,0.493,1.063,3.843,2.835,3.582
				C294.835,193.307,293.094,191.977,293.094,191.977z"/>
		</g>
		<g>
			<path style="fill:#4C4C4C;" d="M246.902,213.809c0,0-1.858-2.485-2.866-1.992c-1.009,0.493,1.063,3.843,2.835,3.582
				C248.644,215.139,246.902,213.809,246.902,213.809z"/>
		</g>
		<g>
			<path style="fill:#4C4C4C;" d="M215.485,173.789c0,0-1.231-1.646-1.899-1.319c-0.668,0.327,0.704,2.546,1.878,2.373
				C216.639,174.669,215.485,173.789,215.485,173.789z"/>
		</g>
		<g>
			<path style="fill:#FF00FF;" d="M197.723,200.591c-7.389,0.093-26.737,2.135-33.616,17.244
				c-6.879,15.109-8.599,26.543-11.609,29.81c-3.01,3.267-39.986-2.859-38.696,0c1.29,2.858-1.72,4.083,2.15,6.534
				c3.87,2.45,35.687,14.292,45.146,7.759c9.459-6.534,18.841-23.342,18.841-23.342l6.229,14.359c0,0,12.388,7.759,23.111,0
				c0,0,3.844-19.192,5.134-17.559c1.29,1.633,18.202,23.004,22.501,23.82c4.299,0.817,17.055,0.681,0.717-30.354
				C226.015,206.798,205.112,200.498,197.723,200.591z"/>
		</g>
		<g>
			<path style="fill:#58E9FE;" d="M200.506,218.754h-11.244c-0.601,0-1.088,0.463-1.088,1.033v19.166
				c0,0.571,0.487,1.033,1.088,1.033h11.244c0.601,0,1.088-0.463,1.088-1.033v-19.166
				C201.594,219.217,201.107,218.754,200.506,218.754z"/>
		</g>
		<g>
			<path style="fill:#FF52FF;" d="M200.733,232.276l-3.01,4.492c0,0,27.192,27.161,40.468,23.993
				C251.468,257.594,247.943,243.766,200.733,232.276z"/>
		</g>
		<g>
			<path style="fill:#FFBC89;" d="M195.743,173.574c-3.543,1.079-6.704,4.398-6.548,8.029c0.146,3.398,0.617,7.916,2.077,11.029
				c0.753,1.606,2.025,3.059,3.554,4.063v6.299h6.607v-5.287c2.805-1.005,4.614-3.733,5.773-6.407
				c2.015-4.65,2.705-10.381-0.473-14.403C204.271,173.782,199.648,172.384,195.743,173.574z"/>
		</g>
		<g>
			<path style="fill:#4C4C4C;" d="M279.244,188.073c-13.947-2.092-29.862,10.738-40.251-2.741c-5.996-7.78-11.745-2.789-16.293-4.88
				c-4.548-2.091-4.628-2.208-15.684-8.831c-11.057-6.623-21.426,1.394-20.508,9.063c0.918,7.669,4.765,11.948,4.765,11.948
				s-1.673-6.359,2.943-7.474c4.616-1.115,6.056-7.495,6.423-3.312c0.367,4.183,5.299,11.892,4.253,13.337
				c-1.046,1.446,9.266,20.824,34.624,15.595c12.247-2.525,12.692,10.806,24.07,18.475c11.378,7.669,26.871-2.208,32.155-10.225
				C301.022,211.012,293.191,190.165,279.244,188.073z"/>
		</g>
		<g>
			<path style="fill:#4C4C4C;" d="M186.168,385.668c0,0-8.947,2.246-12.601,6.738h21.068l-1.028-6.738H186.168z"/>
		</g>
		<g>
			<path style="fill:#4C4C4C;" d="M244.875,381.643c0,0-7.498,5.151-9.207,10.591l19.659-7.196l-3.51-5.936L244.875,381.643z"/>
		</g>
		<g>
			<path style="fill:#FFBC89;" d="M197.723,229.882c-7.875,2.246-11.043-3.471-11.273,0c-0.23,3.471,11.273,6.886,11.273,6.886
				l3.01-4.492C203.743,227.785,205.598,227.636,197.723,229.882z"/>
		</g>
		<g>
			<path style="fill:#FFBC89;" d="M114.538,246.959c0,0-11.835-2.159-13.362,1.002c-1.527,3.161,4.112-0.452,9.931,5.065
				c5.819,5.517,4.258,4.552,3.844-0.757L114.538,246.959z"/>
		</g>
	</g>
</g>
</svg>
