<?xml version="1.0" encoding="utf-8"?>
<!-- Generator: Adobe Illustrator 27.5.0, SVG Export Plug-In . SVG Version: 6.00 Build 0)  -->
<svg version="1.1" id="Слой_1" xmlns="http://www.w3.org/2000/svg" xmlns:xlink="http://www.w3.org/1999/xlink" x="0px" y="0px"
	 viewBox="0 0 200 200" style="enable-background:new 0 0 200 200;" xml:space="preserve">
<g>
	<linearGradient id="SVGID_1_" gradientUnits="userSpaceOnUse" x1="-2.500000e-04" y1="200.0007" x2="200.0002" y2="2.500000e-04">
		<stop  offset="0" style="stop-color:#2AA9CE"/>
		<stop  offset="1" style="stop-color:#8437A0"/>
	</linearGradient>
	<rect style="fill:url(#SVGID_1_);" width="200" height="200.001"/>
	<g>
		<path style="opacity:0.4;fill:#D1D3D4;" d="M172.113,125.288v0.625L91.201,79.197c-2.594-1.497-6.797-1.497-9.391,0l-37.741,21.79
			v-0.461h-3.984v4.214h0.011c-0.063,1.025,0.578,2.063,1.934,2.847l82.432,47.591c2.593,1.496,6.797,1.496,9.391,0l39.779-22.968
			c1.258-0.725,1.9-1.67,1.938-2.62h0.008v-4.302H172.113z"/>
		<path style="fill:#FFFFFF;" d="M173.631,122.589c2.594,1.497,2.594,3.923,0,5.422l-39.779,22.967
			c-2.594,1.497-6.798,1.497-9.391,0l-82.432-47.59c-2.593-1.499-2.593-3.926,0-5.423L81.81,74.997c2.594-1.497,6.797-1.497,9.391,0
			L173.631,122.589z"/>
		
			<linearGradient id="SVGID_00000170269620336247470600000007818826923517659070_" gradientUnits="userSpaceOnUse" x1="67.3697" y1="147.1835" x2="145.8498" y2="75.1842">
			<stop  offset="0" style="stop-color:#2AA9CE"/>
			<stop  offset="1" style="stop-color:#EF73DB"/>
		</linearGradient>
		<polygon style="fill:url(#SVGID_00000170269620336247470600000007818826923517659070_);" points="163.419,119.298 
			118.761,145.081 48.33,104.419 92.988,78.635 		"/>
		<path style="fill:#E6E7E8;" d="M152.146,133.261c2.54,1.467,2.54,3.846,0,5.313c-2.541,1.467-6.66,1.467-9.201,0
			c-2.54-1.467-2.54-3.846,0-5.313C145.486,131.794,149.605,131.794,152.146,133.261z"/>
		<path style="fill:#E6E7E8;" d="M165.691,124.79c1.025,0.591,1.025,1.553,0,2.145l-8.604,4.968l-3.725-2.15l8.605-4.967
			C162.992,124.192,164.658,124.192,165.691,124.79z"/>
		<path style="fill:#E6E7E8;" d="M128.264,146.39c-1.024-0.595-1.024-1.555,0-2.146l8.605-4.967l3.724,2.15l-8.604,4.967
			C130.963,146.985,129.299,146.985,128.264,146.39z"/>
		<path style="fill:#E6E7E8;" d="M73.104,85.332c0.558,0.323,0.558,0.846,0,1.168l-12.847,7.417c-0.559,0.322-1.464,0.322-2.022,0
			l0,0c-0.558-0.322-0.558-0.845,0-1.167l12.847-7.418C71.641,85.01,72.546,85.01,73.104,85.332L73.104,85.332z"/>
		<path style="fill:#414042;" d="M87.029,77.438c1.293,0.747,1.459,1.89,0.497,2.738l-0.011,0.006
			c-0.145,0.121-0.299,0.236-0.486,0.345c-0.111,0.063-0.232,0.121-0.343,0.172c-0.255,0.122-0.53,0.218-0.829,0.288
			c-0.686,0.179-1.459,0.229-2.188,0.152c-0.729-0.076-1.437-0.28-2.001-0.605c-1.481-0.856-1.492-2.24,0-3.102
			c0.188-0.108,0.398-0.204,0.608-0.287c0.642-0.242,1.393-0.357,2.122-0.345c0.332,0,0.641,0.025,0.961,0.07
			c0.388,0.07,0.774,0.166,1.117,0.3C86.676,77.246,86.852,77.336,87.029,77.438z"/>
		<path style="fill:#6D6E71;" d="M84.398,76.8l1.459,4.187c-0.686,0.179-1.459,0.229-2.188,0.152l-1.393-3.994
			C82.918,76.902,83.669,76.787,84.398,76.8z"/>
		<path style="fill:#6D6E71;" d="M86.477,77.17l1.05,3.006l-0.011,0.006c-0.145,0.121-0.299,0.236-0.486,0.345
			c-0.111,0.063-0.232,0.121-0.343,0.172l-1.327-3.828C85.747,76.94,86.134,77.036,86.477,77.17z"/>
		<path style="fill:#231F20;" d="M85.81,78.14c0.706,0.407,0.796,1.03,0.272,1.494l-0.007,0.003
			c-0.078,0.066-0.162,0.129-0.265,0.188c-0.061,0.035-0.127,0.066-0.187,0.094c-0.14,0.066-0.29,0.119-0.453,0.157
			c-0.374,0.098-0.797,0.125-1.195,0.083c-0.397-0.041-0.783-0.152-1.092-0.33c-0.809-0.467-0.814-1.223,0-1.693
			c0.104-0.059,0.218-0.111,0.332-0.157c0.35-0.132,0.76-0.194,1.158-0.188c0.182,0,0.351,0.014,0.525,0.038
			c0.211,0.038,0.422,0.091,0.609,0.164C85.616,78.035,85.713,78.084,85.81,78.14z"/>
	</g>
	<g>
		
			<linearGradient id="SVGID_00000150797408507580853190000015115907008034080182_" gradientUnits="userSpaceOnUse" x1="75.9594" y1="114.4801" x2="139.7025" y2="114.4801">
			<stop  offset="0" style="stop-color:#2AA9CE"/>
			<stop  offset="1" style="stop-color:#EF73DB"/>
		</linearGradient>
		<path style="opacity:0.3;fill:url(#SVGID_00000150797408507580853190000015115907008034080182_);" d="M138.725,116.515
			l-20.673-11.938l-13.726-7.921c-1.395-0.807-3.663-0.807-5.057,0l-0.379,0.219l-21.924,12.65c-1.291,0.736-1.395,2.116,0,2.924
			l34.406,19.857c1.395,0.806,3.654,0.806,5.058,0l22.294-12.87C140.06,118.464,139.996,117.192,138.725,116.515z"/>
		
			<linearGradient id="SVGID_00000080194511581008808630000016104406794466078112_" gradientUnits="userSpaceOnUse" x1="75.9411" y1="119.738" x2="139.685" y2="119.738">
			<stop  offset="0" style="stop-color:#2AA9CE"/>
			<stop  offset="1" style="stop-color:#EF73DB"/>
		</linearGradient>
		<path style="opacity:0.2;fill:url(#SVGID_00000080194511581008808630000016104406794466078112_);" d="M138.707,121.772
			l-20.673-11.939l-13.726-7.921c-1.395-0.807-3.663-0.807-5.058,0l-0.378,0.219l-21.925,12.649c-1.291,0.737-1.394,2.117,0,2.925
			l34.407,19.858c1.395,0.805,3.654,0.805,5.058,0l22.294-12.869C140.043,123.722,139.978,122.449,138.707,121.772z"/>
		
			<linearGradient id="SVGID_00000163040599900952860240000003167314709358945188_" gradientUnits="userSpaceOnUse" x1="75.9411" y1="124.9896" x2="139.685" y2="124.9896">
			<stop  offset="0" style="stop-color:#2AA9CE"/>
			<stop  offset="1" style="stop-color:#EF73DB"/>
		</linearGradient>
		<path style="opacity:0.1;fill:url(#SVGID_00000163040599900952860240000003167314709358945188_);" d="M138.707,127.022
			l-20.673-11.938l-13.726-7.921c-1.395-0.807-3.663-0.807-5.058,0l-0.378,0.218l-21.925,12.652c-1.291,0.734-1.394,2.114,0,2.922
			l34.407,19.858c1.395,0.808,3.654,0.808,5.058,0l22.294-12.869C140.043,128.972,139.978,127.699,138.707,127.022z"/>
		<g>
			<path style="fill:#A7A9AC;" d="M109.248,73.836c-0.553,0-1-0.447-1-1v-4.45c0-1.181-1.373-4.253-2.475-6.722
				c-2.152-4.817-2.832-6.595-2.023-7.623c0.627-0.798,1.789-0.733,3.027,0.168c0.91,0.661,0.561,1.342,0.432,1.534
				c-0.092,0.136-0.596,0.783-1.535,0.21c-0.039-0.023-0.074-0.05-0.107-0.077c0.363,1.236,1.336,3.412,2.033,4.972
				c1.361,3.05,2.648,5.931,2.648,7.538v4.45C110.248,73.389,109.801,73.836,109.248,73.836z"/>
		</g>
		
			<linearGradient id="SVGID_00000135658630318578458580000007138311795238851762_" gradientUnits="userSpaceOnUse" x1="73.5586" y1="91.334" x2="142.8195" y2="91.334">
			<stop  offset="0.249" style="stop-color:#DF1E68"/>
			<stop  offset="1" style="stop-color:#CC1F5E"/>
		</linearGradient>
		<path style="fill:url(#SVGID_00000135658630318578458580000007138311795238851762_);" d="M142.103,89.861
			c-0.055-0.063-0.164-0.165-0.368-0.29l-38.644-22.311c-0.516-0.298-1.268-0.47-2.058-0.47c-0.79,0-1.542,0.172-2.058,0.47
			L73.918,81.723c-0.088,0.052-0.147,0.097-0.2,0.14l-0.011-0.015v0.021c-0.07,0.058-0.122,0.107-0.148,0.143l0.17,0.888
			l0.166,8.049l4.195,19.259l21.747-13.35c1.299-0.751,3.412-0.751,4.711,0l32.87,19.02l5.366-24.543
			C143.012,91.209,142.064,89.908,142.103,89.861z M79.091,89.634c0.947-0.509,1.878-0.642,2.591-0.43
			c0.704,0.195,1.197,0.712,1.322,1.486l0.807,4.798l-6.308,3.545l-1.236-5.76C76.477,91.927,77.572,90.448,79.091,89.634z
			 M82.417,105.496c-0.782,0.469-1.542,0.667-2.145,0.619c-0.61-0.054-1.063-0.369-1.213-0.938l-1.009-3.969l6.127-3.514
			l0.681,4.063C85.055,102.922,83.959,104.572,82.417,105.496z M86.143,88.984c-0.204-1.581,1.103-3.693,2.895-4.656
			c0.893-0.47,1.714-0.556,2.324-0.313c0.596,0.227,0.986,0.774,1.025,1.572l0.273,4.907l-5.9,3.326L86.143,88.984z M90.524,100.653
			c-0.735,0.437-1.433,0.61-1.956,0.524c-0.541-0.079-0.916-0.422-0.994-1.016l-0.524-4.11l5.744-3.286l0.227,4.187
			C93.091,98.148,91.973,99.784,90.524,100.653z M100.713,92.42c-0.047,1.229-1.182,2.849-2.559,3.671
			c-0.688,0.414-1.322,0.555-1.792,0.445c-0.462-0.109-0.767-0.485-0.774-1.096l-0.102-4.218l5.383-3.083L100.713,92.42z
			 M100.956,85.815l-5.525,3.114l-0.117-4.938c-0.039-1.612,1.3-3.702,2.966-4.586c0.838-0.446,1.573-0.493,2.082-0.22
			c0.516,0.251,0.813,0.822,0.782,1.636L100.956,85.815z M108.437,95.019c-0.078,1.26-1.197,1.643-2.496,0.876
			c-0.65-0.384-1.221-0.979-1.621-1.628c-0.414-0.657-0.656-1.385-0.633-2.034l0.156-4.297l4.875,2.817L108.437,95.019z
			 M108.859,88.522l-4.938-2.832l0.164-4.657c0.047-1.463,1.236-2.034,2.653-1.236c0.712,0.392,1.346,1.064,1.776,1.816
			c0.445,0.743,0.688,1.564,0.642,2.293L108.859,88.522z M115.176,98.954c-0.134,1.253-1.323,1.605-2.646,0.83
			c-0.665-0.398-1.237-0.994-1.636-1.651c-0.406-0.657-0.626-1.385-0.579-2.019l0.321-4.25l4.992,2.88L115.176,98.954z
			 M116.365,87.975l-0.494,4.563l-5.063-2.903l0.352-4.602c0.109-1.447,1.378-1.987,2.834-1.174c0.727,0.407,1.361,1.08,1.799,1.84
			C116.216,86.434,116.443,87.255,116.365,87.975z M122.077,102.993c-0.195,1.235-1.448,1.557-2.81,0.759
			c-0.673-0.4-1.252-1.009-1.65-1.668c-0.392-0.656-0.596-1.376-0.525-2.003l0.51-4.202l5.117,2.958L122.077,102.993z
			 M123.752,92.146l-0.696,4.515l-5.188-2.974l0.548-4.555c0.172-1.432,1.519-1.948,3.005-1.11c0.76,0.422,1.393,1.096,1.808,1.854
			C123.658,90.62,123.861,91.441,123.752,92.146z M129.137,107.124c-0.243,1.222-1.574,1.511-2.967,0.689
			c-0.696-0.406-1.275-1.019-1.666-1.675c-0.384-0.657-0.572-1.379-0.463-1.995l0.697-4.141l5.235,3.03L129.137,107.124z
			 M125.098,97.836l0.76-4.5c0.234-1.417,1.658-1.901,3.192-1.041c0.767,0.431,1.417,1.119,1.823,1.87
			c0.415,0.751,0.596,1.565,0.454,2.262l-0.907,4.453L125.098,97.836z M136.375,111.357c-0.305,1.198-1.714,1.463-3.131,0.628
			c-0.719-0.425-1.307-1.042-1.674-1.7c-0.384-0.656-0.557-1.369-0.423-1.978l0.899-4.087l5.369,3.107L136.375,111.357z
			 M139.098,100.825l-1.135,4.383l-5.446-3.124l0.971-4.437c0.306-1.4,1.831-1.847,3.404-0.962c0.79,0.445,1.432,1.134,1.839,1.894
			C139.121,99.323,139.278,100.135,139.098,100.825z"/>
		<path style="fill:#F6428D;" d="M82.417,105.496c-0.782,0.469-1.542,0.667-2.145,0.619c-0.603-0.054-1.048-0.361-1.205-0.915
			c0.22,0.21,0.524,0.335,0.892,0.366c0.611,0.048,1.378-0.147,2.168-0.616c1.558-0.924,2.661-2.576,2.465-3.742l-0.578-3.42
			l0.164-0.094l0.681,4.063C85.055,102.922,83.959,104.572,82.417,105.496z"/>
		<path style="fill:#F6428D;" d="M83.81,95.488l-6.308,3.545l-0.141-0.658l6.167-3.435l-0.813-4.798
			c-0.016-0.109-0.039-0.203-0.07-0.305c0.18,0.234,0.305,0.517,0.359,0.853L83.81,95.488z"/>
		<path style="fill:#F6428D;" d="M93.02,96.951c0.07,1.197-1.048,2.833-2.496,3.702c-0.735,0.437-1.433,0.61-1.956,0.524
			c-0.518-0.079-0.885-0.391-0.979-0.946c0.172,0.219,0.43,0.352,0.743,0.398c0.532,0.086,1.236-0.086,1.979-0.525
			c1.464-0.867,2.591-2.503,2.521-3.701l-0.196-3.553l0.157-0.086L93.02,96.951z"/>
		<path style="fill:#F6428D;" d="M92.66,90.495l-5.9,3.326l-0.078-0.642l5.783-3.232l-0.273-4.907
			c-0.008-0.117-0.016-0.227-0.039-0.328c0.141,0.242,0.219,0.54,0.234,0.876L92.66,90.495z"/>
		<path style="fill:#F6428D;" d="M100.869,88.14l-0.156,4.28c-0.047,1.229-1.182,2.849-2.559,3.671
			c-0.688,0.414-1.322,0.555-1.792,0.445c-0.431-0.102-0.728-0.438-0.767-0.978c0.133,0.227,0.344,0.367,0.609,0.43
			c0.479,0.109,1.111-0.031,1.809-0.445c1.393-0.822,2.535-2.442,2.582-3.671l0.141-3.654L100.869,88.14z"/>
		<path style="fill:#F6428D;" d="M101.144,80.822l-0.188,4.993l-5.525,3.114l-0.015-0.634l5.43-3.028l0.188-4.993
			c0.008-0.109,0-0.219-0.008-0.32C101.112,80.204,101.159,80.494,101.144,80.822z"/>
		<path style="fill:#F6428D;" d="M108.719,90.753l-0.281,4.266c-0.078,1.26-1.197,1.643-2.496,0.876
			c-0.65-0.384-1.221-0.979-1.621-1.628c-0.359-0.563-0.586-1.189-0.625-1.769c0.109,0.407,0.289,0.83,0.547,1.221
			c0.399,0.65,0.979,1.245,1.637,1.628c1.314,0.768,2.441,0.384,2.52-0.876l0.25-3.757L108.719,90.753z"/>
		<path style="fill:#F6428D;" d="M109.157,83.906l-0.298,4.616l-4.938-2.832l0.016-0.493l4.891,2.777l0.298-4.616v-0.079
			C109.157,83.491,109.173,83.702,109.157,83.906z"/>
		<path style="fill:#F6428D;" d="M116.381,87.654c0,0.109-0.008,0.219-0.016,0.32l-0.494,4.563l-5.063-2.903l0.039-0.516
			l5.055,2.871L116.381,87.654z"/>
		<path style="fill:#F6428D;" d="M115.629,94.744l-0.453,4.21c-0.134,1.253-1.323,1.605-2.646,0.83
			c-0.665-0.398-1.237-0.994-1.636-1.651c-0.406-0.657-0.626-1.377-0.579-2.011c0.07,0.484,0.274,0.993,0.563,1.463
			c0.406,0.657,0.979,1.252,1.651,1.652c1.338,0.773,2.535,0.422,2.677-0.831l0.398-3.678L115.629,94.744z"/>
		<path style="fill:#F6428D;" d="M122.141,102.57l-0.063,0.423c-0.195,1.235-1.448,1.557-2.81,0.759
			c-0.673-0.4-1.252-1.009-1.65-1.668c-0.392-0.656-0.596-1.376-0.525-2.003l0.031-0.266c0.009,0.557,0.212,1.158,0.549,1.723
			c0.398,0.656,0.986,1.268,1.666,1.665C120.661,103.971,121.89,103.706,122.141,102.57z"/>
		<polygon style="fill:#F6428D;" points="123.142,96.106 123.056,96.661 117.867,93.688 117.93,93.147 		"/>
		<path style="fill:#F6428D;" d="M130.537,100.301l-0.117,0.578l-5.322-3.043l0.76-4.5c0.023-0.133,0.055-0.259,0.102-0.376
			l-0.736,4.328L130.537,100.301z"/>
		<path style="fill:#F6428D;" d="M129.176,106.944l-0.039,0.18c-0.243,1.222-1.574,1.511-2.967,0.689
			c-0.696-0.406-1.275-1.019-1.666-1.675c-0.384-0.657-0.572-1.379-0.463-1.995l0.697-4.141l0.023,0.016l-0.603,3.577
			c-0.118,0.619,0.078,1.339,0.462,1.995c0.398,0.659,0.979,1.268,1.682,1.676C127.555,107.993,128.76,107.845,129.176,106.944z"/>
		<path style="fill:#F6428D;" d="M136.391,111.295l-0.016,0.063c-0.305,1.198-1.714,1.463-3.131,0.628
			c-0.719-0.425-1.307-1.042-1.674-1.7c-0.384-0.656-0.557-1.369-0.423-1.978l0.899-4.087l0.063,0.039l-0.782,3.498
			c-0.133,0.612,0.04,1.323,0.431,1.98c0.367,0.656,0.963,1.276,1.689,1.697C134.661,112.141,135.858,112.063,136.391,111.295z"/>
		<path style="fill:#F6428D;" d="M138.12,104.604l-0.157,0.604l-5.446-3.124l0.971-4.437c0.039-0.188,0.102-0.359,0.196-0.517
			l-0.971,4.407L138.12,104.604z"/>
		<path style="fill:#CC1F5E;" d="M136.594,118.081l-20.77,11.987c-1.307,0.752-3.412,0.752-4.711,0l-32.054-18.5
			c-1.299-0.75-1.202-2.036,0-2.723l20.425-11.785l13.085,7.552c0.517,0.298,1.268,0.471,2.058,0.471
			c0.791,0,1.542-0.173,2.058-0.471l0.65-0.375l19.259,11.12C137.779,115.989,137.838,117.174,136.594,118.081z"/>
		<path style="fill:#E01E68;" d="M104.548,96.857c-1.299-0.751-3.412-0.751-4.711,0l-0.353,0.203l13.085,7.552
			c0.517,0.298,1.268,0.471,2.058,0.471c0.791,0,1.542-0.173,2.058-0.471l0.65-0.375L104.548,96.857z"/>
		<path style="fill:#CC1F5E;" d="M117.335,104.237l-0.65,0.375c-0.517,0.298-1.267,0.471-2.058,0.471
			c-0.79,0-1.541-0.173-2.058-0.471l-13.085-7.552l0.353-0.203c1.299-0.751,3.412-0.751,4.711,0L117.335,104.237z"/>
		
			<linearGradient id="SVGID_00000096775273897300050160000013877961021597500556_" gradientUnits="userSpaceOnUse" x1="73.1357" y1="110.5715" x2="142.5176" y2="110.5715">
			<stop  offset="0" style="stop-color:#E01E68"/>
			<stop  offset="0.3124" style="stop-color:#E1206A"/>
			<stop  offset="0.4335" style="stop-color:#E52671"/>
			<stop  offset="0.5212" style="stop-color:#EC327D"/>
			<stop  offset="0.5217" style="stop-color:#EC327D"/>
			<stop  offset="0.7554" style="stop-color:#DA276B"/>
			<stop  offset="0.9921" style="stop-color:#CC1F5E"/>
		</linearGradient>
		<path style="fill:url(#SVGID_00000096775273897300050160000013877961021597500556_);" d="M117.469,112.82
			c-1.566,0.908-4.117,0.908-5.682,0l-38.651-22.31l0.29,1.143l4.664,18.554c0.113,0.504,0.32,0.986,0.97,1.361l32.054,18.5
			c1.299,0.752,3.404,0.752,4.711,0l20.77-11.987c0.635-0.367,0.801-0.882,0.971-1.383l4.641-17.18l0.313-1.159L117.469,112.82z
			 M75.162,95.081c-0.313-1.291,0.18-1.957,1.15-1.761c0.29,0.063,0.619,0.195,0.986,0.414c0.313,0.188,0.634,0.423,0.939,0.697
			c0.469,0.414,0.916,0.899,1.299,1.424c0.642,0.854,1.119,1.784,1.291,2.599l1.096,5.116l-5.471-3.238L75.162,95.081z
			 M81.392,111.545c-0.704-0.405-1.401-1.056-1.964-1.768c-0.579-0.72-1.025-1.509-1.197-2.214l-1.158-4.727l5.368,3.177
			l0.985,4.617C83.716,111.985,82.801,112.383,81.392,111.545z M83.035,99.76c-0.32-1.573,0.642-2.16,2.16-1.315l0.234,0.142
			c0.752,0.47,1.486,1.197,2.066,2.003c0.594,0.83,1.033,1.736,1.166,2.519l0.813,4.938l-5.431-3.214L83.035,99.76z M88.467,115.71
			c-0.713-0.415-1.394-1.05-1.934-1.738c-0.548-0.703-0.955-1.479-1.088-2.151l-0.916-4.569l5.338,3.159l0.735,4.454
			C90.822,116.17,89.859,116.531,88.467,115.71z M90.846,104.408c-0.235-1.563,0.845-2.097,2.41-1.157
			c0.798,0.47,1.549,1.213,2.113,2.034c0.578,0.808,0.97,1.69,1.056,2.441l0.548,4.767L91.58,109.3L90.846,104.408z M95.471,119.84
			c-0.689-0.405-1.354-1.03-1.879-1.713c-0.516-0.682-0.885-1.432-0.986-2.082l-0.664-4.414l5.297,3.139l0.494,4.298
			C97.873,120.327,96.863,120.663,95.471,119.84z M98.592,109.019c-0.148-1.503,0.986-1.997,2.56-1.065
			c0.774,0.463,1.511,1.198,2.051,1.997c0.54,0.79,0.892,1.643,0.938,2.37l0.282,4.586l-5.353-3.17L98.592,109.019z
			 M102.443,123.942c-0.689-0.407-1.339-1.019-1.832-1.682c-0.492-0.667-0.829-1.396-0.893-2.021l-0.422-4.25l5.259,3.108
			l0.251,4.139C104.885,124.457,103.82,124.756,102.443,123.942z M106.293,113.597c-0.063-1.448,1.142-1.895,2.691-0.971
			c0.775,0.463,1.479,1.173,1.996,1.956c0.501,0.769,0.814,1.588,0.814,2.294l0.023,4.422l-5.322-3.154L106.293,113.597z
			 M109.377,128.027c-0.697-0.408-1.323-1.009-1.785-1.651c-0.477-0.657-0.782-1.361-0.806-1.974l-0.188-4.092l5.229,3.092
			l0.016,3.983C111.842,128.56,110.738,128.832,109.377,128.027z M121.318,123.942c-0.117,1.135-1.299,2.636-2.652,3.389
			c-0.674,0.375-1.261,0.492-1.684,0.391c-0.422-0.103-0.664-0.438-0.641-0.986l0.172-3.741l5.188-2.949L121.318,123.942z
			 M121.913,117.956l-5.306,3.034l0.203-4.255c0.063-1.37,1.369-3.249,2.935-4.172c0.782-0.453,1.479-0.578,1.948-0.398
			c0.471,0.171,0.729,0.633,0.658,1.346L121.913,117.956z M128.909,119.685c-0.204,1.205-1.503,2.787-2.896,3.56
			c-0.696,0.393-1.291,0.511-1.69,0.386c-0.415-0.11-0.626-0.471-0.556-1.057l0.493-3.984l5.368-3.051L128.909,119.685z
			 M130.834,108.572l-0.821,4.734l-5.485,3.146l0.555-4.53c0.172-1.371,1.464-3.209,2.967-4.228l0.109-0.069
			c0.063-0.039,0.133-0.079,0.195-0.118c0.07-0.038,0.141-0.077,0.211-0.117l0.031-0.015c0.705-0.369,1.307-0.439,1.715-0.258
			C130.756,107.313,130.967,107.813,130.834,108.572z M136.766,115.288c-0.313,1.282-1.729,2.94-3.169,3.739
			c-0.72,0.4-1.315,0.517-1.706,0.383c-0.383-0.133-0.564-0.523-0.445-1.142l0.829-4.242l5.564-3.161L136.766,115.288z
			 M139.247,101.882c0.431,0.211,0.595,0.751,0.392,1.563l-1.221,5.05l-5.697,3.261l0.954-4.836
			c0.259-1.313,1.433-3.004,2.794-4.092c0.258-0.21,0.532-0.408,0.807-0.564c0.305-0.18,0.594-0.313,0.852-0.39
			C138.598,101.726,138.98,101.732,139.247,101.882z"/>
		<path style="fill:#F6428D;" d="M83.465,111.295c-0.117,0.799-0.931,0.933-2.073,0.25c-0.704-0.405-1.401-1.056-1.964-1.768
			c-0.579-0.72-1.025-1.509-1.197-2.214l-1.158-4.727l0.61,0.358l0.923,3.812c0.172,0.705,0.611,1.495,1.182,2.214
			c0.557,0.713,1.244,1.361,1.941,1.769C82.495,111.452,83.113,111.538,83.465,111.295z"/>
		<path style="fill:#F6428D;" d="M81.924,103.57l-5.471-3.238l-1.291-5.251c-0.211-0.877-0.055-1.464,0.376-1.683
			c-0.086,0.289-0.07,0.665,0.039,1.127l1.276,5.25l4.883,2.936L81.924,103.57z"/>
		<path style="fill:#F6428D;" d="M89.476,108.047l-5.431-3.214l-1.01-5.073c-0.148-0.719-0.023-1.228,0.297-1.487
			c-0.063,0.251-0.055,0.563,0.016,0.932l0.994,5.071l5.009,2.998L89.476,108.047z"/>
		<path style="fill:#F6428D;" d="M90.626,115.357c-0.078,0.891-0.962,1.058-2.159,0.353c-0.713-0.415-1.394-1.05-1.934-1.738
			c-0.548-0.703-0.955-1.479-1.088-2.151l-0.916-4.569l0.463,0.273l0.734,3.74c0.133,0.674,0.533,1.446,1.08,2.151
			c0.533,0.69,1.205,1.323,1.902,1.736C89.577,115.67,90.281,115.718,90.626,115.357z"/>
		<path style="fill:#F6428D;" d="M97.748,119.317c-0.016,1.048-0.979,1.29-2.277,0.522c-0.689-0.405-1.354-1.03-1.879-1.713
			c-0.516-0.682-0.885-1.432-0.986-2.082l-0.664-4.414l0.313,0.189l0.548,3.67c0.102,0.649,0.462,1.4,0.97,2.083
			c0.518,0.679,1.174,1.307,1.856,1.712C96.637,119.89,97.442,119.864,97.748,119.317z"/>
		<path style="fill:#F6428D;" d="M96.973,112.493L91.58,109.3l-0.734-4.892c-0.079-0.538-0.008-0.963,0.203-1.236
			c-0.023,0.196-0.023,0.423,0.016,0.682l0.72,4.892l5.11,3.061L96.973,112.493z"/>
		<path style="fill:#F6428D;" d="M104.423,116.906l-5.353-3.17l-0.479-4.718c-0.039-0.367,0.008-0.68,0.11-0.917
			c-0.008,0.11-0.008,0.237,0.008,0.362l0.47,4.718l5.203,3.121L104.423,116.906z"/>
		<path style="fill:#F6428D;" d="M104.807,123.182v0.055c0.078,1.221-0.986,1.52-2.363,0.706c-0.689-0.407-1.339-1.019-1.832-1.682
			c-0.492-0.667-0.829-1.396-0.893-2.021l-0.422-4.25l0.172,0.103l0.353,3.592c0.063,0.626,0.399,1.354,0.884,2.019
			c0.485,0.666,1.127,1.275,1.809,1.683C103.664,124.074,104.595,123.965,104.807,123.182z"/>
		<path style="fill:#F6428D;" d="M111.842,127.386c0,1.174-1.104,1.446-2.465,0.642c-0.697-0.408-1.323-1.009-1.785-1.651
			c-0.477-0.657-0.782-1.361-0.806-1.974l-0.188-4.092l0.039,0.024l0.165,3.513c0.023,0.609,0.329,1.315,0.798,1.973
			c0.454,0.641,1.072,1.244,1.762,1.651c1.346,0.806,2.434,0.53,2.434-0.644l-0.016-3.451l0.047,0.025L111.842,127.386z"/>
		<path style="fill:#F6428D;" d="M111.818,121.298l-5.322-3.154l-0.203-4.547c-0.008-0.157,0-0.306,0.031-0.438l0.195,4.427
			l5.252,3.154l-0.023-4.351c0.031,0.166,0.047,0.329,0.047,0.486L111.818,121.298z"/>
		<path style="fill:#F6428D;" d="M121.701,120.045l-0.383,3.897c-0.117,1.135-1.299,2.636-2.652,3.389
			c-0.674,0.375-1.261,0.492-1.684,0.391c-0.414-0.103-0.656-0.431-0.641-0.971c0.102,0.221,0.289,0.36,0.531,0.415
			c0.415,0.103,0.994-0.015,1.659-0.393c1.339-0.75,2.505-2.251,2.622-3.388l0.305-3.208L121.701,120.045z"/>
		<path style="fill:#F6428D;" d="M122.352,113.511l-0.438,4.445l-5.306,3.034l0.031-0.633l5.102-2.959l0.432-4.442
			c0.016-0.143,0.016-0.275,0-0.4C122.328,112.79,122.391,113.111,122.352,113.511z"/>
		<path style="fill:#F6428D;" d="M129.629,115.538l-0.72,4.146c-0.204,1.205-1.503,2.787-2.896,3.56
			c-0.696,0.393-1.291,0.511-1.69,0.386c-0.345-0.086-0.548-0.354-0.571-0.776c0.101,0.11,0.219,0.181,0.368,0.22
			c0.399,0.125,0.985,0.008,1.667-0.384c1.377-0.774,2.66-2.354,2.863-3.56l0.58-3.365L129.629,115.538z"/>
		<path style="fill:#F6428D;" d="M130.834,108.572l-0.821,4.734l-5.485,3.146l0.086-0.728l5.125-2.975l0.814-4.735
			c0.047-0.281,0.055-0.531,0.008-0.733C130.826,107.532,130.935,107.97,130.834,108.572z"/>
		<path style="fill:#F6428D;" d="M137.838,110.865l-1.072,4.423c-0.313,1.282-1.729,2.94-3.169,3.739
			c-0.72,0.4-1.315,0.517-1.706,0.383c-0.266-0.093-0.438-0.313-0.477-0.648c0.055,0.04,0.117,0.07,0.18,0.095
			c0.383,0.133,0.97,0.016,1.682-0.385c1.425-0.798,2.826-2.457,3.131-3.74l0.854-3.538L137.838,110.865z"/>
		<path style="fill:#F6428D;" d="M139.639,103.445l-1.221,5.05l-5.697,3.261l0.164-0.828l5.156-2.989l1.206-5.048
			c0.094-0.39,0.109-0.728,0.047-0.985C139.693,102.132,139.834,102.664,139.639,103.445z"/>
		
			<linearGradient id="SVGID_00000067229246145449079660000002812147424215126401_" gradientUnits="userSpaceOnUse" x1="71.9619" y1="97.7566" x2="143.6992" y2="97.7566">
			<stop  offset="0" style="stop-color:#E01E68"/>
			<stop  offset="0.3142" style="stop-color:#E1206A"/>
			<stop  offset="0.4361" style="stop-color:#E52771"/>
			<stop  offset="0.5244" style="stop-color:#EC327D"/>
			<stop  offset="0.5929" style="stop-color:#F6428D"/>
			<stop  offset="0.6029" style="stop-color:#F23F89"/>
			<stop  offset="0.6644" style="stop-color:#E13176"/>
			<stop  offset="0.7359" style="stop-color:#D52768"/>
			<stop  offset="0.8257" style="stop-color:#CE2160"/>
			<stop  offset="0.9921" style="stop-color:#CC1F5E"/>
		</linearGradient>
		<path style="fill:url(#SVGID_00000067229246145449079660000002812147424215126401_);" d="M143.699,90.088v6.77h-0.023
			c-0.023,0.219-0.086,0.438-0.219,0.642c-0.188,0.313-0.501,0.61-0.939,0.86l-25.049,14.461c-1.566,0.908-4.117,0.908-5.682,0
			l-38.651-22.31c-0.454-0.267-0.774-0.571-0.963-0.9c-0.141-0.242-0.211-0.492-0.211-0.743c0-0.031,0.016-0.055,0.016-0.086h-0.016
			v-6.769c0,0.251,0.07,0.501,0.211,0.744c0.188,0.328,0.509,0.634,0.963,0.899l38.651,22.31c1.564,0.909,4.115,0.909,5.682,0
			l25.049-14.46c0.438-0.251,0.752-0.548,0.939-0.861c0.117-0.18,0.187-0.368,0.219-0.556H143.699z"/>
		<path style="fill:#CC1F5E;" d="M142.518,98.359l-0.313,1.159l-4.077,2.356l-1.659,0.954l-7.873,4.548l-0.031,0.015l-0.406,0.235
			l-0.109,0.069l-10.58,6.103c-1.566,0.908-4.117,0.908-5.682,0L85.43,98.587l-0.234-0.142l-6.957-4.014l-1.926-1.111l-2.887-1.667
			l-0.29-1.143l38.651,22.31c1.564,0.908,4.115,0.908,5.682,0L142.518,98.359z"/>
		<path style="fill:#F6428D;" d="M142.515,88.216l-6.1-3.52l-2-1.16l-30.539-17.63c-1.57-0.91-4.12-0.91-5.68,0l-25.061,14.46
			c-0.779,0.46-1.17,1.05-1.17,1.649c0,0.25,0.07,0.5,0.21,0.74c0.19,0.33,0.51,0.63,0.96,0.9l38.65,22.309
			c1.57,0.911,4.119,0.911,5.68,0l25.05-14.459c0.441-0.25,0.75-0.55,0.941-0.859c0.119-0.181,0.189-0.37,0.22-0.561
			c0.02-0.07,0.02-0.15,0.02-0.22C143.695,89.266,143.305,88.676,142.515,88.216z M141.744,90.146l-24.409,14.091l-0.65,0.378
			c-0.521,0.292-1.271,0.472-2.06,0.472c-0.79,0-1.54-0.18-2.061-0.472l-13.08-7.56l-25.57-14.75
			c-0.219-0.14-0.319-0.239-0.359-0.29c0.051-0.069,0.15-0.17,0.359-0.29l25.06-14.47c0.52-0.29,1.27-0.46,2.061-0.46
			c0.789,0,1.539,0.17,2.06,0.46l31.319,18.09l2,1.16l5.32,3.07c0.2,0.12,0.311,0.22,0.371,0.29
			C142.064,89.906,141.975,90.016,141.744,90.146z"/>
		<g>
			<path style="fill:#A7A9AC;" d="M79.775,92.887c-0.529,0-0.973-0.416-0.998-0.951c-0.109-2.235-0.25-6.12,0.051-7.018
				c1.025-3.069,19.766-27.924,19.949-28.156c0.625-0.797,1.787-0.732,3.027,0.168c0.91,0.66,0.561,1.341,0.432,1.534
				c-0.092,0.137-0.596,0.786-1.535,0.209c-0.115-0.071-0.211-0.161-0.287-0.265c-0.09-0.053-0.188-0.103-0.273-0.14
				c-2.381,3.104-18.615,24.883-19.416,27.283c-0.133,0.521-0.078,3.673,0.051,6.285c0.027,0.552-0.398,1.021-0.951,1.049
				C79.809,92.886,79.791,92.887,79.775,92.887z"/>
		</g>
		
			<linearGradient id="SVGID_00000143591970370899520940000017563065688130383017_" gradientUnits="userSpaceOnUse" x1="112.2691" y1="62.6225" x2="115.4501" y2="54.837">
			<stop  offset="0" style="stop-color:#E01E68"/>
			<stop  offset="0.5943" style="stop-color:#EF3681"/>
			<stop  offset="1" style="stop-color:#F6428D"/>
		</linearGradient>
		<path style="fill:url(#SVGID_00000143591970370899520940000017563065688130383017_);" d="M108.268,52.682l-0.008,0.012
			c-0.424-0.264-1.054-0.231-1.768,0.182c-1.276,0.737-2.312,2.37-2.312,3.646c0,0.611,0.242,1.024,0.63,1.214l-0.004,0.005
			l15.31,8.822l3.434-5.072L108.268,52.682z"/>
		<path style="fill:#CC1F5E;" d="M124.105,62.673c0,1.276-1.034,2.908-2.311,3.645c-1.277,0.737-2.313,0.3-2.313-0.977
			c0-1.277,1.035-2.909,2.313-3.646C123.071,60.958,124.105,61.396,124.105,62.673z"/>
		
			<linearGradient id="SVGID_00000067226059664609151720000001369518889234740613_" gradientUnits="userSpaceOnUse" x1="107.6511" y1="65.4048" x2="110.8319" y2="57.6199">
			<stop  offset="0" style="stop-color:#E01E68"/>
			<stop  offset="0.5943" style="stop-color:#EF3681"/>
			<stop  offset="1" style="stop-color:#F6428D"/>
		</linearGradient>
		<path style="fill:url(#SVGID_00000067226059664609151720000001369518889234740613_);" d="M103.65,55.465l-0.008,0.012
			c-0.424-0.264-1.055-0.23-1.768,0.182c-1.277,0.737-2.313,2.369-2.313,3.646c0,0.611,0.242,1.024,0.631,1.214l-0.004,0.005
			l15.309,8.821l3.434-5.071L103.65,55.465z"/>
		<path style="fill:#CC1F5E;" d="M119.488,65.455c0,1.277-1.035,2.909-2.312,3.646c-1.276,0.737-2.312,0.3-2.312-0.977
			c0-1.277,1.035-2.909,2.312-3.646C118.453,63.741,119.488,64.179,119.488,65.455z"/>
		<g>
			<path style="fill:#A7A9AC;" d="M106.945,108.27c-0.529,0-0.973-0.416-0.998-0.95c-0.109-2.236-0.248-6.122,0.049-7.018
				c0.469-1.398,3.289-9.186,6.018-16.716c2.457-6.786,5.242-14.477,5.391-14.981c0.09-0.324,0.111-0.402-0.404-0.719
				c-0.471-0.289-0.617-0.905-0.328-1.376c0.289-0.471,0.904-0.617,1.375-0.328c0.445,0.273,1.799,1.104,1.283,2.962
				c-0.127,0.456-2.148,6.044-5.438,15.123c-2.723,7.52-5.539,15.295-5.998,16.668c-0.131,0.519-0.078,3.672,0.051,6.287
				c0.025,0.551-0.398,1.02-0.951,1.048C106.978,108.269,106.961,108.27,106.945,108.27z"/>
		</g>
		<g>
			<path style="fill:#A7A9AC;" d="M136.414,83.236v1.46l-2-1.16v-0.3c0-2.561-8.069-12.86-11.75-17.16
				c-0.59-0.7-0.939-0.96-1.09-1.05c-0.469-0.29-0.619-0.91-0.33-1.38c0.291-0.471,0.91-0.62,1.381-0.33
				c0.449,0.279,0.96,0.76,1.56,1.46C124.685,65.356,136.414,79.116,136.414,83.236z"/>
		</g>
	</g>
	<g>
		<path style="opacity:0.5;fill:#FFFFFF;" d="M126.336,42.685c0,1.01-0.359,1.744-0.994,2.196c-0.049,0.033-0.099,0.066-0.148,0.094
			c-0.281,0.171-0.607,0.292-0.971,0.358c-0.535,0.11-1.158,0.104-1.843-0.017c-0.033,0.452,0.065,1.893,2.218,3.89
			c-0.209-0.088-3.592-1.605-5.986-5.379c-4.132-2.438-7.465-6.847-7.465-9.908c0-0.922,0.305-1.617,0.84-2.075h0.005l0.017-0.017
			c0.121-0.104,0.248-0.188,0.392-0.265c1.357-0.733,3.69-0.392,6.339,1.143C122.937,35.121,126.336,39.59,126.336,42.685z"/>
		<path style="opacity:0.5;fill:#FFFFFF;" d="M149.7,62.718c0,1.286-0.448,2.236-1.233,2.83l-0.363,0.244l-0.013,0.007
			c-1.755,0.977-4.776,0.561-8.22-1.386c-3.254,1.379-7.898-2.025-7.898-2.025c2.217,0.521,2.791-0.429,2.916-1.181
			c0.033-0.211,0.033-0.409,0.027-0.555c-3.107-3.041-5.213-6.689-5.213-9.48c0-1.246,0.423-2.177,1.162-2.777l0.488-0.329
			c1.787-0.964,4.856-0.509,8.346,1.504C145.221,52.763,149.7,58.647,149.7,62.718z"/>
		<path style="opacity:0.2;fill:#FFFFFF;" d="M150.334,64.301l0.006,0.007l-1.873,1.24c0.785-0.594,1.233-1.544,1.233-2.83
			c0-4.07-4.479-9.955-10.001-13.148c-3.49-2.013-6.559-2.468-8.346-1.504l1.722-1.162l0.007,0.014
			c1.734-1.168,4.928-0.785,8.596,1.333c5.523,3.192,10.002,9.078,10.002,13.148C151.68,62.737,151.185,63.707,150.334,64.301z"/>
		<path style="opacity:0.2;fill:#FFFFFF;" d="M134.889,61.207c-0.125,0.752-0.699,1.702-2.916,1.181l1.979-1.319
			C134.309,61.147,134.619,61.193,134.889,61.207z"/>
		<path style="opacity:0.2;fill:#FFFFFF;" d="M127.99,41.581c0,1.043-0.386,1.794-1.059,2.234v0.006l-1.59,1.06
			c0.635-0.452,0.994-1.187,0.994-2.196c0-3.095-3.398-7.563-7.598-9.979c-2.648-1.534-4.981-1.876-6.339-1.143l1.362-0.915
			c1.297-0.972,3.779-0.695,6.632,0.954C124.592,34.018,127.99,38.486,127.99,41.581z"/>
		<path style="opacity:0.2;fill:#FFFFFF;" d="M126.253,48.103c-0.006-0.006-0.022-0.011-0.044-0.017l-1.601,1.126l-0.011-0.006
			c-2.152-1.997-2.251-3.438-2.218-3.89c0.685,0.121,1.308,0.127,1.843,0.017c0.254,0.685,0.805,1.628,1.997,2.736l0.005,0.006
			C126.23,48.08,126.242,48.086,126.253,48.103z"/>
	</g>
	<g>
		<path style="fill:#FFFFFF;" d="M29.127,113.038c0,0-3.352-1.901-3.969-2.248c-2.055-1.161-3.147-2.593-3.154-4.141
			c-0.008-1.719,1.354-3.455,3.836-4.89c0.227-0.133,22.758-13.27,26.445-15.333c3.414-1.911,6.771-3.353,10.305-0.083
			c0.102,0.094,0.107,0.252,0.014,0.354c-0.094,0.101-0.252,0.108-0.353,0.014c-2.994-2.771-5.727-2.084-9.721,0.152
			c-3.684,2.061-26.211,15.198-26.439,15.328c-2.32,1.341-3.594,2.923-3.586,4.455c0.006,1.357,1.01,2.642,2.9,3.707
			c0.617,0.349,3.969,2.249,3.969,2.249L29.127,113.038z"/>
	</g>
	<g>
		<path style="fill:#FFFFFF;" d="M97.182,152.553c-0.043,0-0.086-0.009-0.127-0.033l-4.545-2.643c-0.119-0.07-0.16-0.222-0.09-0.342
			c0.068-0.12,0.221-0.159,0.342-0.092l4.545,2.643c0.119,0.07,0.16,0.224,0.09,0.342C97.352,152.508,97.268,152.553,97.182,152.553
			z"/>
	</g>
	<g>
		<path style="fill:#FFFFFF;" d="M74.91,139.59c-0.043,0-0.086-0.009-0.127-0.033l-4.545-2.642c-0.119-0.071-0.16-0.223-0.09-0.342
			c0.068-0.121,0.221-0.161,0.342-0.092l4.545,2.642c0.119,0.07,0.16,0.224,0.09,0.342C75.08,139.545,74.996,139.59,74.91,139.59z"
			/>
	</g>
	<g>
		<g>
			<path style="fill:#FFFFFF;" d="M138.377,175.133c-1.545,0-2.936-0.742-4.461-1.555c-0.285-0.151-0.576-0.309-0.875-0.463
				c-2.207-1.137-12.885-7.226-17.373-9.791c-0.121-0.068-0.162-0.222-0.094-0.342c0.068-0.118,0.221-0.162,0.342-0.093
				c3.5,2.001,15.094,8.618,17.353,9.783c0.301,0.154,0.596,0.31,0.883,0.464c2.34,1.249,4.188,2.235,6.764,0.749
				c2.742-1.584,26.893-15.528,30.238-17.499c1.814-1.068,2.773-2.164,2.775-3.168c0-0.869-0.697-1.725-2.076-2.541
				c-3.332-1.975-16.369-9.291-16.5-9.363c-0.121-0.067-0.164-0.221-0.096-0.342c0.068-0.12,0.223-0.162,0.34-0.096
				c0.131,0.075,13.172,7.393,16.512,9.371c1.541,0.914,2.322,1.912,2.32,2.971c-0.002,1.209-1.02,2.421-3.021,3.6
				c-3.348,1.972-27.5,15.917-30.242,17.498C140.154,174.901,139.242,175.133,138.377,175.133z"/>
		</g>
	</g>
	<g style="opacity:0.3;">
		<g>
			<path style="fill:#FFFFFF;" d="M29.249,113.82c-0.17,0-0.343-0.043-0.5-0.135c-3.343-1.935-3.343-1.896-3.96-2.243
				c-2.91-1.643-3.529-3.512-3.535-4.79c-0.01-2,1.484-3.969,4.21-5.543c0.224-0.128,22.761-13.27,26.454-15.338
				c3.517-1.967,7.279-3.586,11.18,0.022c0.406,0.375,0.43,1.008,0.055,1.413c-0.375,0.405-1.008,0.429-1.412,0.055
				c-2.674-2.473-5.076-1.854-8.846,0.255c-3.678,2.059-26.199,15.191-26.427,15.323c-2.05,1.185-3.22,2.568-3.214,3.804
				c0.006,1.355,1.373,2.409,2.519,3.057c0.618,0.349,0.628,0.314,3.979,2.256c0.477,0.276,0.642,0.888,0.364,1.364
				C29.93,113.641,29.594,113.82,29.249,113.82z"/>
		</g>
	</g>
	<g style="opacity:0.3;">
		<g>
			<path style="fill:#FFFFFF;" d="M97.18,153.303c-0.17,0-0.344-0.045-0.502-0.137l-4.545-2.64c-0.479-0.278-0.641-0.89-0.363-1.367
				c0.278-0.479,0.891-0.64,1.367-0.361l4.547,2.641c0.477,0.276,0.639,0.89,0.361,1.367
				C97.859,153.126,97.524,153.303,97.18,153.303z"/>
		</g>
	</g>
	<g style="opacity:0.3;">
		<g>
			<path style="fill:#FFFFFF;" d="M74.908,140.34c-0.17,0-0.343-0.045-0.501-0.137l-4.546-2.643
				c-0.478-0.276-0.64-0.888-0.361-1.367c0.277-0.476,0.889-0.638,1.367-0.361l4.545,2.643c0.478,0.277,0.64,0.891,0.361,1.368
				C75.588,140.162,75.254,140.34,74.908,140.34z"/>
		</g>
	</g>
	<g>
		<path style="fill:#FFFFFF;" d="M52.412,126.561c-0.043,0-0.086-0.012-0.127-0.034l-4.545-2.641
			c-0.119-0.071-0.16-0.225-0.09-0.342c0.068-0.121,0.221-0.161,0.342-0.092l4.545,2.642c0.119,0.069,0.16,0.224,0.09,0.342
			C52.582,126.516,52.498,126.561,52.412,126.561z"/>
	</g>
	<g style="opacity:0.3;">
		<g>
			<path style="fill:#FFFFFF;" d="M52.41,127.31c-0.17,0-0.343-0.044-0.501-0.136l-4.546-2.642c-0.478-0.276-0.64-0.891-0.361-1.366
				c0.277-0.477,0.889-0.639,1.367-0.362l4.545,2.643c0.478,0.277,0.64,0.89,0.361,1.368C53.09,127.131,52.756,127.31,52.41,127.31z
				"/>
		</g>
	</g>
	<path style="fill:#FFFFFF;" d="M156.553,141.097c0,0.596-0.482,1.077-1.078,1.077c-0.595,0-1.077-0.481-1.077-1.077
		c0-0.596,0.482-1.078,1.077-1.078C156.07,140.019,156.553,140.501,156.553,141.097z"/>
	<g style="opacity:0.3;">
		<g>
			<path style="fill:#FFFFFF;" d="M172.492,149.604c-2.711-1.606-11.789-6.718-15.209-8.64c-0.068-0.944-0.848-1.69-1.809-1.69
				c-1.006,0-1.82,0.816-1.82,1.823c0,1.006,0.814,1.819,1.82,1.819c0.301,0,0.58-0.08,0.83-0.206
				c3.416,1.917,12.474,7.017,15.168,8.614c1.102,0.653,1.708,1.324,1.707,1.894c-0.001,0.702-0.878,1.622-2.406,2.522
				c-2.069,1.22-12.3,7.141-29.587,17.121l-0.645,0.374c-2.213,1.276-3.733,0.467-6.033-0.758c-0.292-0.157-0.589-0.315-0.893-0.472
				c-2.172-1.119-12.841-7.204-17.327-9.767c-0.479-0.275-1.09-0.108-1.364,0.371c-0.274,0.479-0.107,1.089,0.372,1.364
				c4.498,2.57,15.197,8.673,17.403,9.81c0.296,0.151,0.585,0.306,0.868,0.456c1.517,0.809,3.067,1.637,4.825,1.637
				c0.976,0,2.016-0.255,3.149-0.909l0.645-0.374c17.292-9.983,27.528-15.908,29.603-17.13c2.248-1.324,3.389-2.753,3.391-4.245
				C175.182,151.877,174.277,150.66,172.492,149.604z"/>
		</g>
	</g>
	<g>
		<g>
			<path style="fill:#76DB26;" d="M42.409,125.255c-2.149,1.239-5.634,1.239-7.783,0l-7.636-4.408c-2.148-1.243-2.148-3.254,0-4.494
				l7.636-4.409c2.149-1.24,5.634-1.24,7.783,0l7.636,4.409c2.148,1.24,2.148,3.251,0,4.494L42.409,125.255z"/>
		</g>
		<g>
			<path style="fill:#ED1C24;" d="M64.526,138.722c-2.149,1.239-5.634,1.239-7.783,0l-7.636-4.408c-2.148-1.243-2.148-3.254,0-4.495
				l7.636-4.408c2.149-1.24,5.634-1.24,7.783,0l7.636,4.408c2.148,1.241,2.148,3.252,0,4.495L64.526,138.722z"/>
		</g>
		<g>
			<path style="fill:#58DFEC;" d="M86.916,151.545c-2.148,1.24-5.634,1.24-7.783,0l-7.635-4.408c-2.149-1.239-2.149-3.251,0-4.493
				l7.635-4.408c2.149-1.241,5.635-1.241,7.783,0l7.635,4.408c2.15,1.242,2.15,3.254,0,4.493L86.916,151.545z"/>
		</g>
		<g>
			<path style="fill:#58DFEC;" d="M110.174,164.526c-2.15,1.239-5.635,1.239-7.783,0l-7.636-4.408c-2.149-1.241-2.149-3.253,0-4.495
				l7.636-4.408c2.148-1.24,5.633-1.24,7.783,0l7.635,4.408c2.148,1.242,2.148,3.254,0,4.495L110.174,164.526z"/>
		</g>
		<g>
			<path style="fill:#FFFFFF;" d="M48.297,119.155c0-0.633-0.887-1.145-1.982-1.145l-9.933,1.012l1.052-3.712
				c0-0.633-0.887-1.145-1.982-1.145s-1.982,0.512-1.982,1.145l-1.051,4.855c0,0.316,0.221,0.603,0.58,0.812
				c0.358,0.207,0.854,0.333,1.401,0.333l11.915-1.012C47.41,120.299,48.298,119.788,48.297,119.155z"/>
		</g>
		<path style="fill:#FFFFFF;" d="M88.053,144.553c0.25-0.144,0.574-0.301,0.953-0.48c1.865-0.892,1.705-2.167,0.873-2.646
			c-1.065-0.616-2.154,0.013-3.804,0.964l-0.244,0.141c-0.398,0.187-2.437,0.161-3.42,0.055c-0.011-0.291-0.204-0.58-0.587-0.801
			l-1.141-0.658c-0.79-0.454-2.076-0.454-2.865,0l-4.59,2.65c-0.789,0.455-0.789,1.197,0.001,1.654l1.14,0.658
			c0.377,0.217,0.867,0.322,1.36,0.334c0.626,0.899,2.458,2.048,3.611,2.713c0.871,0.504,2.913,1.682,4.62,0.842
			c0.159-0.077,0.285-0.155,0.391-0.23c0.679,0.076,1.423-0.042,1.943-0.343c0.223-0.129,0.396-0.261,0.523-0.391
			c0.521-0.014,1.031-0.142,1.426-0.37c0.476-0.272,0.67-0.65,0.581-1.008c0.199-0.073,0.339-0.154,0.417-0.198
			c0.68-0.394,0.732-0.975,0.438-1.302c-0.166-0.222-0.354-0.323-0.597-0.468c-0.313-0.19-0.935-0.565-1.165-0.7
			c-0.184-0.104-0.209-0.155-0.211-0.155C87.709,144.807,87.738,144.735,88.053,144.553z M74.396,144.452l4.59-2.65
			c0.146-0.084,0.384-0.084,0.529,0l1.141,0.658c0.145,0.084,0.145,0.221,0.001,0.305l-4.595,2.651
			c-0.146,0.082-0.381,0.082-0.525,0l-1.141-0.658C74.251,144.673,74.25,144.535,74.396,144.452z M86.75,145.645
			c0.227,0.129,0.834,0.496,1.139,0.683c0.137,0.082,0.195,0.101,0.289,0.207c0.078,0.172-0.198,0.323-0.334,0.314
			c-0.357-0.045-0.723,0.051-0.9,0.238c-0.175,0.184-0.117,0.415,0.142,0.565c0.151,0.088,0.147,0.23-0.009,0.32
			c-0.219,0.126-0.439,0.092-0.525,0.069c-0.271-0.068-0.586-0.06-0.822,0.041c-0.035,0.016-0.068,0.032-0.098,0.049
			c-0.172,0.1-0.258,0.233-0.226,0.377c-0.008,0.023-0.073,0.107-0.278,0.224c-0.156,0.089-0.458,0.112-0.608,0.042
			c-0.202-0.092-0.469-0.122-0.718-0.085c-0.252,0.036-0.455,0.139-0.555,0.276c-0.111,0.15-0.19,0.201-0.355,0.29
			c-0.548,0.269-1.834-0.474-2.383-0.791c-1.875-1.083-2.936-1.938-3.253-2.386l4.527-2.614c1.464,0.222,4.305,0.268,5.21-0.254
			l0.25-0.146c0.59-0.34,1.195-0.688,1.551-0.842c0.084,0.234-0.008,0.72-0.839,1.113c-0.425,0.204-0.789,0.382-1.069,0.544
			C85.826,144.49,85.779,145.085,86.75,145.645z"/>
		<g>
			<path style="fill:#FFFFFF;" d="M106.887,163.557c-0.147,0.087-0.346,0.137-0.557,0.142c-0.229,0.004-0.449-0.047-0.611-0.142
				l-9.287-5.361c-0.162-0.093-0.249-0.221-0.241-0.352c0.007-0.132,0.114-0.254,0.281-0.342l7.465-3.776
				c0.327-0.165,0.82-0.156,1.128,0.023l8.361,4.826c0.307,0.178,0.322,0.462,0.037,0.651l-6.539,4.31
				C106.912,163.544,106.9,163.549,106.887,163.557z M98.223,157.881l8.041,4.643l5.447-3.592l-7.268-4.195L98.223,157.881z"/>
		</g>
		<g>
			<path style="fill:#FFFFFF;" d="M112.934,156.993l-1.708,0.984c-0.322,0.188-0.845,0.188-1.167,0
				c-0.322-0.186-0.322-0.487,0-0.675l1.707-0.985c0.699-0.402,0.7-1.061,0-1.465l-0.145-0.083c-0.699-0.404-1.838-0.404-2.537,0
				l-1.707,0.985c-0.322,0.188-0.846,0.188-1.168,0c-0.322-0.186-0.322-0.486,0-0.674l1.707-0.987c1.344-0.775,3.529-0.775,4.873,0
				l0.145,0.084C114.276,154.953,114.276,156.218,112.934,156.993z"/>
		</g>
		<g>
			<path style="fill:#FFFFFF;" d="M106.583,161.494c-0.148,0.087-0.347,0.137-0.558,0.142c-0.229,0.004-0.449-0.047-0.609-0.142
				l-5.412-3.125c-0.162-0.092-0.249-0.218-0.242-0.35c0.008-0.132,0.118-0.258,0.279-0.342l3.965-2.021
				c0.326-0.166,0.822-0.158,1.13,0.018l4.949,2.857c0.309,0.179,0.323,0.466,0.036,0.653l-3.502,2.288
				C106.607,161.481,106.596,161.489,106.583,161.494z M101.791,158.056l4.171,2.408l2.407-1.574l-3.852-2.224L101.791,158.056z"/>
		</g>
		<g>
			<path style="fill:#FFFFFF;" d="M68.111,134.784L68.111,134.784c-0.152,0.088-0.315,0.172-0.49,0.253
				c-1.879,0.875-4.639,1.119-7.203,0.64c-2.036-0.379-4.371-0.258-4.395-0.257c-0.318,0.019-0.634-0.047-0.865-0.173
				c-0.231-0.129-0.354-0.309-0.337-0.492c0.001-0.015,0.122-1.456-0.451-2.581c-0.781-1.533-0.364-3.081,1.118-4.143
				c1.877-1.35,5.065-1.611,7.158-0.666c1.273,0.574,1.972,1.434,1.99,2.39c1.656,0.011,3.143,0.414,4.139,1.15
				C70.291,132.023,70.005,133.689,68.111,134.784z M57.029,134.13c1.039,0.003,2.596,0.064,4.066,0.338
				c1.867,0.35,3.838,0.188,5.144-0.42c1.378-0.646,1.705-1.691,0.801-2.362c-1.107-0.816-2.881-0.666-3.397-0.6
				c-0.367,0.047-0.75-0.018-1.016-0.171c-0.266-0.154-0.378-0.375-0.297-0.587c0.114-0.298,0.376-1.322-1.041-1.96
				c-1.158-0.524-2.969-0.337-4.09,0.463c-1.027,0.736-1.297,1.85-0.719,2.983C56.894,132.623,57.006,133.526,57.029,134.13z"/>
		</g>
	</g>
	<g>
		<path style="opacity:0.8;fill:#FFFFFF;" d="M45.977,61.97c0.289,0.269,0.697,0.391,1.173,0.348c0.38-0.032,0.81-0.173,1.263-0.435
			c0.453-0.262,0.883-0.617,1.263-1.023c0.476-0.507,0.884-1.099,1.167-1.704c-0.029-0.641-0.352-0.822-0.833-0.754
			c-0.407,0.638-0.968,1.216-1.597,1.579c-0.629,0.363-1.189,0.432-1.597,0.265C46.328,60.736,46.012,61.287,45.977,61.97z"/>
		<path style="opacity:0.2;fill:#FFFFFF;" d="M20.166,72.035v6.479c0,0.939,0.76,1.261,1.699,0.718l29.554-17.063
			c0.006,0.002,0.006,0.008,0.006,0.019c1.382,0.929,3.143-0.551,3.143-0.551c-0.951-0.023-1.121-0.599-1.121-1.013
			c0-0.243,0.057-0.429,0.057-0.429c0.175-0.367,0.277-0.743,0.277-1.089v-6.479c0-0.934-0.759-1.26-1.698-0.718L21.865,69.355
			C20.926,69.898,20.166,71.101,20.166,72.035z M44.855,60.975c0-1.948,1.58-4.44,3.528-5.564c1.954-1.128,3.533-0.46,3.533,1.487
			c0,1.954-1.579,4.446-3.533,5.574C46.435,63.596,44.855,62.928,44.855,60.975z"/>
		<path style="opacity:0.8;fill:#FFFFFF;" d="M46.842,58.616c0,0.623,0.362,0.952,0.889,0.902c0.204-0.016,0.436-0.093,0.68-0.233
			c0.244-0.141,0.475-0.331,0.68-0.551c0.526-0.56,0.889-1.307,0.889-1.93c0-0.866-0.702-1.163-1.568-0.662
			C47.544,56.643,46.842,57.75,46.842,58.616z"/>
		<polygon style="fill:#FFFFFF;" points="31.819,66.292 23.313,71.203 23.313,69.882 31.819,64.971 		"/>
		<polygon style="fill:#58DFEC;" points="28.457,71.779 23.313,74.749 23.313,73.428 28.457,70.458 		"/>
		<polygon style="fill:#58DFEC;" points="43.274,65.511 23.313,77.035 23.313,75.714 43.274,64.189 		"/>
	</g>
	<g>
		<path style="opacity:0.8;fill:#FFFFFF;" d="M28.334,86.294c-0.288,0.601-0.694,1.191-1.168,1.696
			c-0.379,0.404-0.807,0.759-1.258,1.02c-0.452,0.261-0.881,0.401-1.259,0.434c-0.474,0.042-0.88-0.079-1.163-0.356
			c0.029-0.671,0.351-1.223,0.83-1.709c0.406,0.166,0.965,0.098,1.592-0.264c0.625-0.362,1.184-0.939,1.59-1.573
			C27.984,85.47,28.3,85.653,28.334,86.294z"/>
		<path style="opacity:0.2;fill:#FFFFFF;" d="M52.359,65.911L22.251,83.295c-0.937,0.541-1.692,1.739-1.692,2.67v6.455
			c0,0.344,0.102,0.602,0.276,0.766c0,0,0.056,0.12,0.056,0.362c0,0.412-0.168,1.182-1.117,2.299c0,0,1.755-0.551,3.133-3.066
			c0-0.012,0-0.018,0.005-0.026l29.448-17.002c0.938-0.541,1.693-1.733,1.693-2.67v-6.455
			C54.053,65.696,53.297,65.371,52.359,65.911z M25.935,89.563c-1.946,1.124-3.52,0.459-3.52-1.488c0-1.94,1.574-4.424,3.52-5.548
			c1.942-1.121,3.516-0.455,3.516,1.485C29.451,85.96,27.877,88.443,25.935,89.563z"/>
		<path style="opacity:0.8;fill:#FFFFFF;" d="M27.473,83.948c0,0.62-0.361,1.365-0.887,1.922c-0.203,0.219-0.434,0.408-0.677,0.549
			c-0.243,0.14-0.474,0.217-0.677,0.233c-0.525,0.049-0.887-0.279-0.887-0.899c0-0.863,0.7-1.967,1.563-2.466
			C26.772,82.789,27.473,83.085,27.473,83.948z"/>
		<polygon style="fill:#FFFFFF;" points="42.352,74.31 31.092,80.811 31.092,79.494 42.352,72.992 		"/>
		<polygon style="fill:#58DFEC;" points="50.98,72.86 31.092,84.344 31.092,83.027 50.98,71.544 		"/>
		<polygon style="fill:#58DFEC;" points="46.138,77.936 31.092,86.623 31.092,85.307 46.138,76.619 		"/>
	</g>
	<g>
		<g style="opacity:0.9;">
			<polygon style="opacity:0.5;fill:#FFFFFF;" points="172.134,76.512 172.134,79.707 153.4,68.903 153.412,65.697 			"/>
			<path style="opacity:0.5;fill:#FFFFFF;" d="M156.502,74.531l-3.682-2.125c-0.693-0.399-1.264-0.075-1.266,0.722l-0.012,4.229
				c-0.002,0.81,0.564,1.79,1.257,2.19l3.681,2.125c0.705,0.406,1.275,0.082,1.277-0.728l0.012-4.229
				C157.771,75.919,157.205,74.938,156.502,74.531z"/>
			<path style="opacity:0.5;fill:#FFFFFF;" d="M164.602,79.209l-3.681-2.126c-0.692-0.399-1.263-0.075-1.265,0.722l-0.013,4.229
				c-0.003,0.809,0.563,1.79,1.257,2.19l3.682,2.125c0.704,0.407,1.263,0.075,1.265-0.734l0.013-4.229
				C165.861,80.59,165.307,79.615,164.602,79.209z"/>
			<path style="opacity:0.5;fill:#FFFFFF;" d="M173.961,86.063l-0.012,4.229c0,0.414-0.148,0.701-0.391,0.839l-0.104,0.035
				c-0.218,0.068-0.482,0.034-0.77-0.139l-3.689-2.126c-0.69-0.402-1.252-1.379-1.252-2.195l0.011-4.229
				c0-0.413,0.149-0.689,0.392-0.815l0.16-0.058c0.207-0.046,0.448,0.012,0.713,0.161l3.678,2.126
				C173.41,84.293,173.961,85.27,173.961,86.063z"/>
			<path style="opacity:0.5;fill:#FFFFFF;" d="M156.476,83.657l-3.681-2.125c-0.693-0.4-1.264-0.075-1.266,0.721l-0.012,4.243
				c-0.002,0.796,0.563,1.776,1.256,2.177l3.682,2.125c0.705,0.407,1.274,0.082,1.277-0.714l0.012-4.243
				C157.746,85.045,157.18,84.063,156.476,83.657z"/>
			<path style="opacity:0.5;fill:#FFFFFF;" d="M164.576,88.334l-3.682-2.125c-0.692-0.4-1.263-0.075-1.265,0.721l-0.013,4.243
				c-0.002,0.796,0.564,1.776,1.258,2.177l3.681,2.125c0.704,0.407,1.263,0.076,1.265-0.721l0.013-4.243
				C165.835,89.715,165.28,88.741,164.576,88.334z"/>
			<path style="opacity:0.5;fill:#FFFFFF;" d="M172.676,93.011l-3.68-2.125c-0.693-0.4-1.264-0.075-1.266,0.721l-0.012,4.243
				c-0.003,0.796,0.563,1.777,1.256,2.177l3.682,2.126c0.705,0.406,1.263,0.074,1.266-0.723l0.012-4.242
				C173.935,94.392,173.381,93.418,172.676,93.011z"/>
			<path style="opacity:0.5;fill:#FFFFFF;" d="M156.449,92.782l-3.681-2.125c-0.692-0.4-1.263-0.075-1.265,0.734l-0.013,4.229
				c-0.003,0.797,0.564,1.777,1.257,2.178l3.682,2.125c0.704,0.406,1.273,0.082,1.275-0.715l0.013-4.23
				C157.721,94.17,157.154,93.189,156.449,92.782z"/>
			<path style="opacity:0.5;fill:#FFFFFF;" d="M164.55,97.459l-3.681-2.125c-0.693-0.4-1.264-0.075-1.266,0.734l-0.012,4.229
				c-0.002,0.797,0.564,1.778,1.258,2.178l3.68,2.125c0.705,0.406,1.264,0.076,1.266-0.722l0.012-4.23
				C165.81,98.84,165.254,97.866,164.55,97.459z"/>
			<path style="opacity:0.5;fill:#FFFFFF;" d="M172.65,102.135l-3.681-2.125c-0.692-0.398-1.263-0.074-1.265,0.734l-0.013,4.231
				c-0.002,0.796,0.564,1.776,1.257,2.177l3.682,2.125c0.704,0.406,1.263,0.074,1.265-0.72l0.013-4.231
				C173.91,103.519,173.355,102.544,172.65,102.135z"/>
		</g>
		<polygon style="opacity:0.2;fill:#FFFFFF;" points="173.628,75.961 173.628,79.155 172.134,79.707 172.134,76.512 153.412,65.697 
			154.906,65.146 		"/>
		<path style="opacity:0.2;fill:#FFFFFF;" d="M175.455,85.511l-0.012,4.229c0,0.46-0.195,0.759-0.482,0.862l-0.023,0.012
			c-0.011,0.012-0.033,0.022-0.057,0.022l-1.322,0.494c0.242-0.138,0.391-0.425,0.391-0.839l0.012-4.229
			c0-0.793-0.551-1.77-1.264-2.172l-3.678-2.126c-0.265-0.149-0.506-0.207-0.713-0.161l1.448-0.528
			c0.218-0.069,0.472-0.035,0.759,0.138l3.678,2.126C174.904,83.741,175.455,84.718,175.455,85.511z"/>
		<path style="opacity:0.2;fill:#FFFFFF;" d="M167.352,80.832l-0.012,4.229c0,0.46-0.195,0.759-0.482,0.862l-0.022,0.012
			c-0.012,0.011-0.035,0.022-0.059,0.022l-1.321,0.494c0.241-0.138,0.391-0.425,0.391-0.839l0.012-4.229
			c0-0.793-0.552-1.769-1.265-2.172l-3.678-2.126c-0.264-0.149-0.506-0.207-0.712-0.161l1.448-0.528
			c0.219-0.069,0.471-0.035,0.758,0.138l3.678,2.126C166.801,79.063,167.352,80.039,167.352,80.832z"/>
		<path style="opacity:0.2;fill:#FFFFFF;" d="M167.326,89.958l-0.012,4.229c0,0.459-0.195,0.758-0.482,0.861l-0.022,0.012
			c-0.012,0.012-0.034,0.023-0.058,0.023l-1.322,0.494c0.242-0.139,0.392-0.426,0.392-0.839l0.011-4.229
			c0-0.793-0.551-1.77-1.264-2.173l-3.678-2.126c-0.264-0.149-0.506-0.207-0.713-0.161l1.448-0.528
			c0.219-0.069,0.472-0.034,0.759,0.138l3.678,2.126C166.775,88.188,167.326,89.165,167.326,89.958z"/>
		<path style="opacity:0.2;fill:#FFFFFF;" d="M167.301,99.083l-0.012,4.23c0,0.458-0.195,0.757-0.483,0.861l-0.023,0.012
			c-0.012,0.011-0.034,0.022-0.057,0.022l-1.322,0.494c0.242-0.139,0.391-0.426,0.391-0.839l0.012-4.229
			c0-0.793-0.552-1.77-1.264-2.172l-3.678-2.126c-0.265-0.149-0.506-0.207-0.713-0.161l1.447-0.528
			c0.219-0.069,0.472-0.035,0.76,0.138l3.678,2.126C166.749,97.313,167.301,98.29,167.301,99.083z"/>
		<path style="opacity:0.2;fill:#FFFFFF;" d="M159.211,94.406l-0.011,4.229c0,0.46-0.195,0.759-0.483,0.863l-0.022,0.012
			c-0.011,0.012-0.034,0.021-0.058,0.021l-1.321,0.494c0.241-0.137,0.391-0.424,0.391-0.838l0.011-4.23
			c0-0.793-0.551-1.77-1.264-2.172l-3.678-2.126c-0.264-0.149-0.506-0.207-0.713-0.161l1.449-0.528
			c0.218-0.069,0.471-0.035,0.758,0.138l3.678,2.126C158.66,92.637,159.211,93.613,159.211,94.406z"/>
		<path style="opacity:0.2;fill:#FFFFFF;" d="M159.237,85.281l-0.011,4.229c0,0.459-0.196,0.758-0.483,0.861l-0.023,0.012
			c-0.012,0.012-0.035,0.023-0.059,0.023l-1.32,0.494c0.24-0.139,0.391-0.426,0.391-0.84l0.011-4.23c0-0.793-0.552-1.77-1.265-2.172
			l-3.678-2.126c-0.264-0.149-0.505-0.207-0.712-0.161l1.448-0.528c0.219-0.069,0.471-0.034,0.758,0.138l3.678,2.126
			C158.685,83.511,159.237,84.488,159.237,85.281z"/>
		<path style="opacity:0.2;fill:#FFFFFF;" d="M159.264,76.155l-0.012,4.23c0,0.46-0.195,0.759-0.483,0.862l-0.023,0.012
			c-0.012,0.011-0.034,0.022-0.058,0.022l-1.321,0.494c0.241-0.138,0.391-0.425,0.391-0.839l0.012-4.229
			c0-0.793-0.552-1.77-1.265-2.172l-3.678-2.126c-0.265-0.149-0.505-0.207-0.712-0.161l1.447-0.529
			c0.219-0.068,0.472-0.034,0.759,0.139l3.678,2.126C158.712,74.386,159.264,75.362,159.264,76.155z"/>
		<path style="opacity:0.2;fill:#FFFFFF;" d="M175.428,94.635l-0.012,4.229c0,0.46-0.195,0.759-0.482,0.861l-0.023,0.012
			c-0.012,0.012-0.035,0.023-0.058,0.023l-1.321,0.494c0.24-0.137,0.391-0.426,0.391-0.838l0.012-4.23
			c0-0.793-0.553-1.771-1.265-2.173l-3.678-2.126c-0.265-0.149-0.506-0.207-0.712-0.161l1.447-0.528
			c0.219-0.069,0.471-0.034,0.759,0.138l3.678,2.127C174.875,92.864,175.428,93.842,175.428,94.635z"/>
		<path style="opacity:0.2;fill:#FFFFFF;" d="M175.401,103.76l-0.012,4.229c0,0.461-0.195,0.76-0.482,0.862l-0.022,0.012
			c-0.012,0.013-0.035,0.021-0.059,0.021l-1.321,0.497c0.241-0.139,0.391-0.426,0.391-0.841l0.012-4.228
			c0-0.795-0.552-1.772-1.265-2.175l-3.678-2.125c-0.264-0.15-0.506-0.207-0.712-0.162l1.448-0.527
			c0.218-0.07,0.471-0.035,0.758,0.137l3.678,2.127C174.85,101.99,175.401,102.968,175.401,103.76z"/>
	</g>
	<g>
		<path style="fill:#163FA1;" d="M99.996,25.357l-0.859-0.542l-0.009,0.005c-0.376-0.203-0.916-0.161-1.524,0.19L59.645,46.926
			c-1.133,0.654-2.052,2.103-2.052,3.236V70.68c0,0.518,0.199,0.872,0.516,1.051l0.001,0.01l0.505,0.276l-0.068-0.159
			c0.318,0.02,0.693-0.076,1.099-0.311l37.958-21.915c1.134-0.654,2.053-2.104,2.053-3.236V25.878c0-0.2-0.038-0.368-0.092-0.52
			H99.996z"/>
		
			<linearGradient id="SVGID_00000074432563762212620500000011847561376025573012_" gradientUnits="userSpaceOnUse" x1="69.1544" y1="90.9181" x2="89.5799" y2="55.5402" gradientTransform="matrix(1 -0.5774 0 1 0 21.3435)">
			<stop  offset="0" style="stop-color:#418EC6"/>
			<stop  offset="1" style="stop-color:#9162D7"/>
		</linearGradient>
		<path style="fill:url(#SVGID_00000074432563762212620500000011847561376025573012_);" d="M100.398,46.863
			c0,1.133-0.919,2.582-2.053,3.236L60.388,72.015c-1.133,0.654-2.052,0.266-2.052-0.867V50.629c0-1.133,0.919-2.582,2.052-3.236
			l37.958-21.915c1.134-0.654,2.053-0.266,2.053,0.867V46.863z"/>
		<path style="opacity:0.5;fill:#FCF586;" d="M94.826,47.547c0,1.579-1.281,3.598-2.859,4.51c-1.58,0.911-2.859,0.37-2.859-1.209
			c0-1.579,1.279-3.598,2.859-4.51C93.545,45.427,94.826,45.968,94.826,47.547z"/>
		<path style="fill:#ED1C24;" d="M98.361,45.505c0,1.579-1.279,3.599-2.858,4.51c-1.579,0.912-2.859,0.371-2.859-1.208
			c0-1.579,1.28-3.599,2.859-4.51C97.082,43.385,98.361,43.926,98.361,45.505z"/>
		<g style="opacity:0.8;">
			
				<linearGradient id="SVGID_00000058576508146496047360000001866296650264951686_" gradientUnits="userSpaceOnUse" x1="60.1192" y1="70.6987" x2="67.0007" y2="65.592" gradientTransform="matrix(1 -0.5774 0 1 0 21.3435)">
				<stop  offset="0" style="stop-color:#6D6E71"/>
				<stop  offset="1" style="stop-color:#BCBEC0"/>
			</linearGradient>
			<path style="fill:url(#SVGID_00000058576508146496047360000001866296650264951686_);" d="M64.34,51.95
				c0.512-0.296,0.973-0.389,1.313-0.308l0.064-0.037v-1.278l-2.757,1.592v1.278l0.068-0.04
				C63.367,52.685,63.828,52.245,64.34,51.95z"/>
			
				<linearGradient id="SVGID_00000109023310286828450730000018143098657693562035_" gradientUnits="userSpaceOnUse" x1="59.1913" y1="69.5076" x2="66.0172" y2="64.4422" gradientTransform="matrix(1 -0.5774 0 1 0 21.3435)">
				<stop  offset="0" style="stop-color:#6D6E71"/>
				<stop  offset="1" style="stop-color:#BCBEC0"/>
			</linearGradient>
			<path style="fill:url(#SVGID_00000109023310286828450730000018143098657693562035_);" d="M60.704,53.606v0.893l1.957-1.13v-1.277
				l-1.597,0.922C60.866,53.128,60.704,53.391,60.704,53.606z"/>
			
				<linearGradient id="SVGID_00000126282122144690557420000012548308051139951272_" gradientUnits="userSpaceOnUse" x1="60.0165" y1="70.481" x2="66.8193" y2="65.4328" gradientTransform="matrix(1 -0.5774 0 1 0 21.3435)">
				<stop  offset="0" style="stop-color:#6D6E71"/>
				<stop  offset="1" style="stop-color:#BCBEC0"/>
			</linearGradient>
			<path style="fill:url(#SVGID_00000126282122144690557420000012548308051139951272_);" d="M60.704,56.277l1.929-1.113
				c-0.112-0.132-0.17-0.317-0.17-0.549c0-0.254,0.072-0.534,0.198-0.818v-0.107l-1.957,1.129V56.277z"/>
			
				<linearGradient id="SVGID_00000157280555531057564270000008686900018831529401_" gradientUnits="userSpaceOnUse" x1="60.9256" y1="71.5852" x2="67.7421" y2="66.5268" gradientTransform="matrix(1 -0.5774 0 1 0 21.3435)">
				<stop  offset="0" style="stop-color:#6D6E71"/>
				<stop  offset="1" style="stop-color:#BCBEC0"/>
			</linearGradient>
			<path style="fill:url(#SVGID_00000157280555531057564270000008686900018831529401_);" d="M60.704,57.651
				c0,0.216,0.162,0.291,0.36,0.177l1.597-0.922v-1.439l-1.957,1.13V57.651z"/>
			
				<linearGradient id="SVGID_00000009578237763598998930000008571509901966671025_" gradientUnits="userSpaceOnUse" x1="61.9413" y1="72.8529" x2="68.8147" y2="67.7523" gradientTransform="matrix(1 -0.5774 0 1 0 21.3435)">
				<stop  offset="0" style="stop-color:#6D6E71"/>
				<stop  offset="1" style="stop-color:#BCBEC0"/>
			</linearGradient>
			<path style="fill:url(#SVGID_00000009578237763598998930000008571509901966671025_);" d="M62.96,55.395v1.339l2.757-1.591v-1.336
				c-0.342,0.51-0.832,0.988-1.377,1.303C63.793,55.426,63.299,55.515,62.96,55.395z"/>
			
				<linearGradient id="SVGID_00000018223187766275541200000015241714330416744379_" gradientUnits="userSpaceOnUse" x1="61.1503" y1="71.9045" x2="67.9883" y2="66.8302" gradientTransform="matrix(1 -0.5774 0 1 0 21.3435)">
				<stop  offset="0" style="stop-color:#6D6E71"/>
				<stop  offset="1" style="stop-color:#BCBEC0"/>
			</linearGradient>
			<path style="fill:url(#SVGID_00000018223187766275541200000015241714330416744379_);" d="M67.612,49.233l-1.597,0.922v1.277
				l1.957-1.13V49.41C67.973,49.194,67.81,49.119,67.612,49.233z"/>
			
				<linearGradient id="SVGID_00000165930491234439442570000015410686796086914475_" gradientUnits="userSpaceOnUse" x1="62.0469" y1="72.9267" x2="68.847" y2="67.8805" gradientTransform="matrix(1 -0.5774 0 1 0 21.3435)">
				<stop  offset="0" style="stop-color:#6D6E71"/>
				<stop  offset="1" style="stop-color:#BCBEC0"/>
			</linearGradient>
			<path style="fill:url(#SVGID_00000165930491234439442570000015410686796086914475_);" d="M66.016,51.853
				c0.13,0.141,0.202,0.341,0.202,0.595c0,0.231-0.062,0.486-0.166,0.742l1.921-1.108v-1.459l-1.957,1.13V51.853z"/>
			
				<linearGradient id="SVGID_00000082336655252037406990000016091889044440035002_" gradientUnits="userSpaceOnUse" x1="62.9053" y1="73.9667" x2="69.7117" y2="68.9157" gradientTransform="matrix(1 -0.5774 0 1 0 21.3435)">
				<stop  offset="0" style="stop-color:#6D6E71"/>
				<stop  offset="1" style="stop-color:#BCBEC0"/>
			</linearGradient>
			<path style="fill:url(#SVGID_00000082336655252037406990000016091889044440035002_);" d="M66.016,54.97l1.597-0.922
				c0.198-0.114,0.36-0.378,0.36-0.593V52.4l-1.957,1.13V54.97z"/>
			
				<linearGradient id="SVGID_00000144330787059455404170000001983979667388257672_" gradientUnits="userSpaceOnUse" x1="61.0526" y1="71.7742" x2="67.9011" y2="66.692" gradientTransform="matrix(1 -0.5774 0 1 0 21.3435)">
				<stop  offset="0" style="stop-color:#6D6E71"/>
				<stop  offset="1" style="stop-color:#BCBEC0"/>
			</linearGradient>
			<path style="fill:url(#SVGID_00000144330787059455404170000001983979667388257672_);" d="M65.541,52.026
				c-0.123-0.06-0.272-0.082-0.443-0.064c-0.225,0.022-0.483,0.109-0.758,0.268c-0.273,0.158-0.533,0.37-0.756,0.606
				c-0.174,0.181-0.324,0.376-0.447,0.577c-0.072,0.115-0.13,0.229-0.177,0.341c-0.105,0.233-0.162,0.463-0.162,0.667
				c0,0.208,0.058,0.367,0.162,0.479c0.011,0.021,0.028,0.034,0.047,0.047c0.079,0.077,0.185,0.124,0.306,0.143
				c0.272,0.048,0.635-0.035,1.027-0.263c0.393-0.226,0.754-0.561,1.023-0.922c0.123-0.159,0.228-0.327,0.307-0.496l0.047-0.027
				v-0.072c0.104-0.233,0.162-0.46,0.162-0.667c0-0.204-0.058-0.367-0.162-0.48C65.67,52.105,65.612,52.059,65.541,52.026z"/>
			
				<linearGradient id="SVGID_00000107550999920099032630000003223611536207210143_" gradientUnits="userSpaceOnUse" x1="62.1225" y1="72.9046" x2="68.8215" y2="67.9334" gradientTransform="matrix(1 -0.5774 0 1 0 21.3435)">
				<stop  offset="0" style="stop-color:#6D6E71"/>
				<stop  offset="1" style="stop-color:#BCBEC0"/>
			</linearGradient>
			<path style="fill:url(#SVGID_00000107550999920099032630000003223611536207210143_);" d="M66.016,53.272
				c0.012-0.025,0.025-0.054,0.036-0.083l-0.036,0.021V53.272z"/>
		</g>
		<g style="opacity:0.8;">
			<path style="fill:#FFFFFF;" d="M88.634,33.265c0.187-0.146,0.481-0.346,0.78-0.518c0.427-0.247,0.701-0.332,0.908-0.284
				c0.172,0.028,0.274,0.165,0.274,0.426c0,0.319-0.211,0.721-0.56,1.049v0.01c0.314-0.103,0.682-0.055,0.682,0.436
				c0,0.285-0.112,0.566-0.279,0.824c-0.23,0.345-0.604,0.658-1.143,0.97c-0.295,0.17-0.521,0.28-0.663,0.343V33.265z M89.06,34.373
				l0.388-0.224c0.452-0.261,0.716-0.649,0.716-0.968c0-0.388-0.294-0.37-0.726-0.121c-0.196,0.113-0.31,0.193-0.378,0.248V34.373z
				 M89.06,35.958c0.084-0.033,0.206-0.099,0.358-0.187c0.441-0.255,0.849-0.652,0.849-1.134c0-0.451-0.387-0.414-0.854-0.145
				l-0.354,0.204V35.958z"/>
			<path style="fill:#FFFFFF;" d="M92.596,34.241l-0.035-0.279l-0.014,0.009c-0.133,0.263-0.389,0.576-0.727,0.772
				c-0.48,0.277-0.727,0.08-0.727-0.263c0-0.574,0.51-1.184,1.428-1.708v-0.049c0-0.197-0.054-0.518-0.539-0.238
				c-0.221,0.127-0.451,0.329-0.619,0.533l-0.098-0.228c0.196-0.241,0.48-0.488,0.78-0.661c0.726-0.42,0.903-0.026,0.903,0.45v0.888
				c0,0.206,0.01,0.402,0.039,0.547L92.596,34.241z M92.531,33.066c-0.471,0.262-1.006,0.654-1.006,1.115
				c0,0.279,0.188,0.305,0.408,0.177c0.309-0.178,0.505-0.487,0.574-0.728c0.014-0.053,0.023-0.107,0.023-0.151V33.066z"/>
			<path style="fill:#FFFFFF;" d="M93.646,31.902c0-0.246-0.004-0.444-0.019-0.632l0.383-0.222l0.025,0.379l0.01-0.006
				c0.117-0.294,0.393-0.673,0.785-0.899c0.328-0.19,0.839-0.288,0.839,0.526v1.418l-0.433,0.249v-1.368
				c0-0.383-0.142-0.62-0.549-0.385c-0.285,0.164-0.506,0.493-0.579,0.775c-0.02,0.065-0.029,0.144-0.029,0.219v1.428l-0.433,0.249
				V31.902z"/>
			<path style="fill:#FFFFFF;" d="M96.799,30.528l0.01-0.006c0.059-0.117,0.143-0.268,0.211-0.392l0.697-1.222l0.52-0.3
				l-0.917,1.506l1.045,0.795l-0.524,0.304l-0.82-0.665l-0.221,0.372v0.894l-0.427,0.246v-3.484l0.427-0.246V30.528z"/>
		</g>
		<path style="opacity:0.8;fill:#FFFFFF;" d="M62.375,60.067c0,0.83-0.332,1.48-0.914,1.816c-0.514,0.297-0.862,0.051-0.87-0.753
			c0-0.819,0.38-1.49,0.914-1.798C62.059,59.013,62.375,59.289,62.375,60.067z M60.947,60.929c0,0.636,0.21,0.875,0.533,0.688
			c0.364-0.211,0.538-0.706,0.538-1.329c0-0.602-0.166-0.9-0.534-0.688C61.173,59.779,60.947,60.264,60.947,60.929z"/>
		<path style="opacity:0.8;fill:#FFFFFF;" d="M64.45,58.869c0,0.83-0.331,1.481-0.914,1.816c-0.514,0.296-0.861,0.05-0.87-0.753
			c0-0.819,0.381-1.49,0.914-1.799C64.135,57.814,64.45,58.091,64.45,58.869z M63.022,59.73c0,0.635,0.21,0.875,0.534,0.688
			c0.363-0.21,0.537-0.705,0.537-1.329c0-0.601-0.165-0.9-0.533-0.688C63.249,58.581,63.022,59.065,63.022,59.73z"/>
		<path style="opacity:0.8;fill:#FFFFFF;" d="M66.526,57.67c0,0.831-0.331,1.48-0.914,1.817c-0.514,0.296-0.862,0.05-0.87-0.754
			c0-0.819,0.381-1.489,0.914-1.798C66.211,56.615,66.526,56.892,66.526,57.67z M65.099,58.532c0,0.635,0.21,0.874,0.534,0.688
			c0.363-0.21,0.537-0.705,0.537-1.329c0-0.601-0.166-0.9-0.533-0.688C65.325,57.383,65.099,57.867,65.099,58.532z"/>
		<path style="opacity:0.8;fill:#FFFFFF;" d="M68.602,56.472c0,0.83-0.331,1.48-0.914,1.816c-0.514,0.297-0.861,0.051-0.869-0.753
			c0-0.819,0.381-1.49,0.914-1.798C68.287,55.417,68.602,55.693,68.602,56.472z M67.174,57.333c0,0.636,0.211,0.875,0.535,0.688
			c0.363-0.211,0.537-0.706,0.537-1.329c0-0.602-0.166-0.9-0.533-0.689C67.4,56.185,67.174,56.668,67.174,57.333z"/>
		<path style="opacity:0.8;fill:#FFFFFF;" d="M72.394,54.282c0,0.831-0.331,1.48-0.913,1.817c-0.514,0.296-0.862,0.05-0.87-0.754
			c0-0.819,0.38-1.489,0.914-1.798C72.078,53.229,72.394,53.504,72.394,54.282z M70.967,55.145c0,0.635,0.209,0.874,0.533,0.688
			c0.364-0.21,0.538-0.705,0.538-1.329c0-0.601-0.166-0.9-0.534-0.688C71.192,53.995,70.967,54.479,70.967,55.145z"/>
		<path style="opacity:0.8;fill:#FFFFFF;" d="M74.47,53.084c0,0.83-0.331,1.48-0.914,1.816c-0.514,0.297-0.861,0.051-0.87-0.753
			c0-0.819,0.381-1.49,0.914-1.798C74.154,52.029,74.47,52.306,74.47,53.084z M73.042,53.945c0,0.636,0.21,0.875,0.534,0.688
			c0.363-0.211,0.537-0.706,0.537-1.329c0-0.602-0.165-0.9-0.533-0.688C73.269,52.797,73.042,53.28,73.042,53.945z"/>
		<path style="opacity:0.8;fill:#FFFFFF;" d="M76.545,51.886c0,0.83-0.331,1.48-0.913,1.816c-0.514,0.297-0.862,0.051-0.87-0.753
			c0-0.819,0.381-1.49,0.914-1.798C76.23,50.831,76.545,51.107,76.545,51.886z M75.118,52.747c0,0.636,0.21,0.875,0.534,0.688
			c0.363-0.21,0.537-0.705,0.537-1.329c0-0.601-0.166-0.899-0.533-0.688C75.344,51.598,75.118,52.082,75.118,52.747z"/>
		<path style="opacity:0.8;fill:#FFFFFF;" d="M78.621,50.687c0,0.831-0.331,1.48-0.914,1.817c-0.513,0.296-0.861,0.05-0.869-0.754
			c0-0.819,0.381-1.489,0.914-1.798C78.307,49.633,78.621,49.908,78.621,50.687z M77.194,51.549c0,0.635,0.21,0.874,0.534,0.688
			c0.363-0.21,0.537-0.705,0.537-1.329c0-0.602-0.166-0.9-0.533-0.688C77.42,50.399,77.194,50.884,77.194,51.549z"/>
		<path style="opacity:0.8;fill:#FFFFFF;" d="M82.413,48.498c0,0.83-0.331,1.48-0.914,1.816c-0.514,0.297-0.861,0.051-0.87-0.753
			c0-0.819,0.381-1.49,0.914-1.798C82.098,47.443,82.413,47.72,82.413,48.498z M80.985,49.359c0,0.636,0.21,0.875,0.534,0.688
			c0.364-0.21,0.538-0.705,0.538-1.329c0-0.601-0.166-0.899-0.534-0.688C81.212,48.21,80.985,48.694,80.985,49.359z"/>
		<path style="opacity:0.8;fill:#FFFFFF;" d="M84.489,47.299c0,0.831-0.331,1.48-0.914,1.817c-0.514,0.296-0.861,0.05-0.87-0.754
			c0-0.819,0.381-1.489,0.914-1.798C84.174,46.245,84.489,46.521,84.489,47.299z M83.061,48.161c0,0.635,0.21,0.874,0.534,0.688
			c0.363-0.21,0.537-0.705,0.537-1.329c0-0.602-0.165-0.9-0.533-0.688C83.288,47.012,83.061,47.496,83.061,48.161z"/>
		<path style="opacity:0.8;fill:#FFFFFF;" d="M86.565,46.101c0,0.831-0.332,1.48-0.914,1.816c-0.514,0.297-0.862,0.051-0.87-0.753
			c0-0.819,0.381-1.49,0.914-1.798C86.25,45.046,86.565,45.322,86.565,46.101z M85.138,46.962c0,0.636,0.21,0.875,0.534,0.688
			c0.363-0.211,0.537-0.706,0.537-1.329c0-0.602-0.166-0.9-0.533-0.688C85.364,45.813,85.138,46.297,85.138,46.962z"/>
		<path style="opacity:0.8;fill:#FFFFFF;" d="M88.641,44.902c0,0.83-0.331,1.48-0.914,1.816c-0.514,0.297-0.861,0.051-0.869-0.753
			c0-0.819,0.381-1.49,0.914-1.798C88.326,43.848,88.641,44.124,88.641,44.902z M87.213,45.764c0,0.636,0.211,0.875,0.535,0.688
			c0.363-0.21,0.537-0.705,0.537-1.329c0-0.601-0.166-0.899-0.533-0.688C87.439,44.614,87.213,45.099,87.213,45.764z"/>
		<path style="opacity:0.8;fill:#FFFFFF;" d="M92.434,42.713c0,0.831-0.332,1.481-0.914,1.816c-0.514,0.297-0.862,0.051-0.87-0.753
			c0-0.819,0.38-1.49,0.914-1.798C92.117,41.658,92.434,41.935,92.434,42.713z M91.006,43.574c0,0.636,0.209,0.875,0.533,0.688
			c0.364-0.211,0.538-0.706,0.538-1.329c0-0.602-0.166-0.9-0.534-0.689C91.231,42.426,91.006,42.909,91.006,43.574z"/>
		<path style="opacity:0.8;fill:#FFFFFF;" d="M94.509,41.515c0,0.83-0.331,1.48-0.914,1.817c-0.514,0.297-0.861,0.051-0.87-0.753
			c0-0.819,0.381-1.49,0.914-1.798C94.193,40.46,94.509,40.736,94.509,41.515z M93.081,42.376c0,0.636,0.21,0.875,0.534,0.688
			c0.363-0.21,0.537-0.705,0.537-1.328c0-0.602-0.165-0.9-0.533-0.688C93.308,41.227,93.081,41.711,93.081,42.376z"/>
		<path style="opacity:0.8;fill:#FFFFFF;" d="M96.585,40.315c0,0.831-0.332,1.48-0.914,1.817c-0.514,0.296-0.862,0.05-0.87-0.754
			c0-0.818,0.381-1.489,0.914-1.798C96.269,39.262,96.585,39.538,96.585,40.315z M95.157,41.178c0,0.635,0.21,0.874,0.534,0.688
			c0.363-0.21,0.537-0.705,0.537-1.329c0-0.601-0.166-0.9-0.533-0.688C95.383,40.028,95.157,40.513,95.157,41.178z"/>
		<path style="opacity:0.8;fill:#FFFFFF;" d="M98.66,39.117c0,0.831-0.331,1.48-0.914,1.817c-0.514,0.296-0.861,0.05-0.869-0.754
			c0-0.819,0.381-1.489,0.914-1.798C98.346,38.063,98.66,38.339,98.66,39.117z M97.232,39.979c0,0.636,0.211,0.875,0.535,0.688
			c0.363-0.21,0.537-0.705,0.537-1.329c0-0.602-0.166-0.9-0.533-0.688C97.459,38.83,97.232,39.314,97.232,39.979z"/>
		<path style="fill:#FFFFFF;" d="M76.426,56.084c0,0.673-0.25,1.188-0.688,1.442c-0.388,0.223-0.649,0.012-0.655-0.64
			c0-0.664,0.287-1.195,0.688-1.427C76.187,55.219,76.426,55.453,76.426,56.084z M75.35,56.735c0,0.515,0.159,0.716,0.402,0.575
			c0.274-0.159,0.406-0.555,0.406-1.06c0-0.487-0.125-0.735-0.402-0.575C75.521,55.811,75.35,56.196,75.35,56.735z"/>
		<path style="fill:#FFFFFF;" d="M77.988,55.182c0,0.673-0.249,1.188-0.688,1.441c-0.387,0.224-0.648,0.013-0.655-0.639
			c0-0.664,0.286-1.195,0.689-1.428C77.752,54.316,77.988,54.551,77.988,55.182z M76.914,55.832c0,0.516,0.158,0.716,0.402,0.575
			c0.273-0.158,0.404-0.554,0.404-1.06c0-0.487-0.125-0.734-0.402-0.575C77.084,54.908,76.914,55.293,76.914,55.832z"/>
		<path style="fill:#FFFFFF;" d="M78.096,56.252l0.851-2.699l0.207-0.119l-0.853,2.701L78.096,56.252z"/>
		<path style="fill:#FFFFFF;" d="M80.598,53.675c0,0.673-0.25,1.189-0.688,1.442c-0.387,0.224-0.648,0.012-0.655-0.64
			c0-0.664,0.287-1.194,0.689-1.427C80.36,52.81,80.598,53.044,80.598,53.675z M79.522,54.326c0,0.515,0.159,0.716,0.402,0.575
			c0.274-0.158,0.405-0.554,0.405-1.06c0-0.487-0.125-0.735-0.402-0.575C79.693,53.402,79.522,53.787,79.522,54.326z"/>
		<path style="fill:#FFFFFF;" d="M82.161,52.772c0,0.673-0.249,1.188-0.688,1.442c-0.387,0.223-0.648,0.012-0.654-0.64
			c0-0.664,0.286-1.195,0.688-1.427C81.924,51.907,82.161,52.142,82.161,52.772z M81.086,53.423c0,0.516,0.158,0.717,0.402,0.575
			c0.273-0.158,0.404-0.554,0.404-1.059c0-0.487-0.124-0.735-0.401-0.575C81.257,52.499,81.086,52.885,81.086,53.423z"/>
		<polygon style="opacity:0.8;fill:#FFFFFF;" points="68.036,61.838 60.641,66.107 60.641,64.708 68.036,60.438 		"/>
		<polygon style="opacity:0.8;fill:#FFFFFF;" points="87.146,54.069 60.641,69.373 60.641,67.973 87.146,52.67 		"/>
	</g>
	<g>
		<path style="opacity:0.6;fill:#58DFEC;" d="M70.275,69.256c0.404,0.172,0.404,0.828,0,1.468l-2.77,4.368l2.77,1.171
			c0.404,0.171,0.404,0.828,0,1.468c-0.406,0.64-1.063,1.019-1.469,0.848l-3.503-1.481C65.102,77.012,65,76.805,65,76.539
			c0-0.266,0.102-0.59,0.304-0.91l3.503-5.525C69.212,69.464,69.869,69.085,70.275,69.256z"/>
		<path style="opacity:0.4;fill:#58DFEC;" d="M77.994,64.799c0.406,0.171,0.406,0.828,0,1.468l-2.769,4.368l2.769,1.171
			c0.406,0.171,0.406,0.828,0,1.468c-0.404,0.639-1.063,1.019-1.467,0.847l-3.504-1.48c-0.203-0.085-0.304-0.293-0.304-0.559
			c0-0.265,0.101-0.589,0.304-0.909l3.504-5.525C76.932,65.007,77.59,64.627,77.994,64.799z"/>
		<path style="opacity:0.2;fill:#58DFEC;" d="M85.715,60.342c0.405,0.171,0.405,0.828,0,1.468l-2.77,4.368l2.77,1.17
			c0.405,0.172,0.405,0.829,0,1.468c-0.405,0.64-1.063,1.02-1.468,0.848l-3.503-1.48c-0.203-0.086-0.305-0.293-0.305-0.559
			s0.102-0.589,0.305-0.909l3.503-5.525C84.652,60.55,85.31,60.17,85.715,60.342z"/>
	</g>
</g>
</svg>
