<?xml version="1.0" encoding="UTF-8"?><svg id="uuid-8e0eadbd-4215-46f9-9c65-20140e38c6f2" xmlns="http://www.w3.org/2000/svg" viewBox="0 0 766.76 628.37"><defs><style>.uuid-cff2dbd3-98a2-4a6f-a921-7064d02baa9f{fill:#0e74bb;}.uuid-d476c596-b8c6-484f-b117-bbbbbb53630c{fill:#fff;}.uuid-cb650369-976e-42d1-abcc-829795638633{fill:#080717;}</style></defs><path class="uuid-cb650369-976e-42d1-abcc-829795638633" d="M487.52,424.66l-104.67,99.76c-51.81,49.38-134.18,46.18-182-7.08l-33.73-37.56,217.87-138.22,102.53,83.09Z"/><path class="uuid-d476c596-b8c6-484f-b117-bbbbbb53630c" d="M470.51,436.56c-39.62-18.11-69.59-52.23-82.43-93.91l231.34-157.33,42.07,76.4-190.98,174.84Z"/><path class="uuid-cb650369-976e-42d1-abcc-829795638633" d="M618.51,189.15l39.67,72.03-188.15,172.24c-37.56-17.7-66.09-50.13-78.83-89.69l227.32-154.59h0ZM620.34,181.52l-235.35,160.05.45,1.48c13.15,43.1,44.38,78.36,85.57,96.64l193.8-177.41-44.48-80.76h0Z"/><path class="uuid-cb650369-976e-42d1-abcc-829795638633" d="M196.56,323.08l-71.78,8.66c-49.32,5.95-90.53,40.33-105.24,87.77L2.75,493.75c-14.63,64.7,30.75,127.58,96.76,134.09h0c38.9,3.84,76.93-13.21,99.96-44.8l76.15-104.49-79.06-155.48Z"/><path class="uuid-cb650369-976e-42d1-abcc-829795638633" d="M231.08,288.92l-28.95,7.01c-33.28,8.06-67.1-12.58-75.16-45.85l-2.78-11.47c-10.09-41.67,15.75-84.02,57.42-94.11l5.95,10.7c26.12-6.32,52.66,9.87,58.99,35.99l12.55,51.81c4.92,20.33-7.68,40.99-28.01,45.92Z"/><path class="uuid-d476c596-b8c6-484f-b117-bbbbbb53630c" d="M144.27,331.46l21.36-.93,23.98-106.36,76.23,16.4-16.01,86.3,22.95-1c.9,2.62,1.37,5.34,1.37,8.12-.01,21.86-29.13,39.56-65.03,39.54-35.9-.02-65-17.75-64.99-39.61,0-.83.06-1.65.14-2.47Z"/><path class="uuid-cb650369-976e-42d1-abcc-829795638633" d="M209.17,376.18h-.06c-37.3-.02-67.64-18.97-67.63-42.25,0-.92.06-1.83.15-2.73.13-1.31,1.2-2.32,2.52-2.37l19.34-.84,23.54-104.39c.32-1.41,1.72-2.31,3.13-2l76.23,16.4c1.4.3,2.3,1.66,2.04,3.06l-15.41,83.04,19.63-.85c1.17-.06,2.23.68,2.62,1.78,1.01,2.94,1.52,5.96,1.51,8.98,0,11.53-7.22,22.26-20.32,30.23-12.68,7.71-29.47,11.95-47.29,11.95ZM146.77,333.99c.05,20.33,28,36.88,62.35,36.9h.05c16.87,0,32.69-3.97,44.55-11.18,11.47-6.97,17.78-16.1,17.79-25.72,0-1.8-.22-3.61-.67-5.39l-20.89.91c-.75.05-1.58-.3-2.11-.91-.53-.61-.75-1.42-.6-2.22l15.55-83.78-71.16-15.31-23.41,103.81c-.26,1.16-1.27,2.01-2.46,2.06l-18.98.83Z"/><circle class="uuid-cb650369-976e-42d1-abcc-829795638633" cx="173.5" cy="171.22" r="29.45" transform="translate(-63.03 230.15) rotate(-58.61)"/><path class="uuid-cb650369-976e-42d1-abcc-829795638633" d="M175.29,155.42c-30.01,11.43-47.84,43.15-41.29,75.18,8.11,2.95,17.25,3.62,26.42,1.4,23.81-5.77,38.66-28.8,33.18-51.45-2.61-10.79-9.37-19.54-18.31-25.13Z"/><path class="uuid-cb650369-976e-42d1-abcc-829795638633" d="M138.51,200.03c-9.91,30.55,3.62,64.32,32.68,79.3,7.38-4.47,13.64-11.17,17.65-19.7,10.44-22.16,1.8-48.18-19.28-58.11-10.04-4.73-21.1-4.95-31.05-1.49Z"/><path class="uuid-cb650369-976e-42d1-abcc-829795638633" d="M221.65,165.12c3.83,15.81-5.88,31.73-21.69,35.56-15.81,3.83-31.73-5.88-35.56-21.69-3.83-15.81,5.88-31.73,21.69-35.56,15.81-3.83,31.73,5.88,35.56,21.69Z"/><path class="uuid-cb650369-976e-42d1-abcc-829795638633" d="M255.37,158.47c3.94,16.26-6.05,32.63-22.31,36.57s-32.63-6.05-36.57-22.31c-3.94-16.26,6.05-32.63,22.31-36.57s32.63,6.05,36.57,22.31Z"/><path class="uuid-cb650369-976e-42d1-abcc-829795638633" d="M222.13,154.12c3.94,16.26-6.05,32.63-22.31,36.57-16.26,3.94-32.63-6.05-36.57-22.31-3.94-16.26,6.05-32.63,22.31-36.57,16.26-3.94,32.63,6.05,36.57,22.31Z"/><path class="uuid-cb650369-976e-42d1-abcc-829795638633" d="M119.19,201.94c-.88,0-1.75-.44-2.25-1.25-.77-1.24-.39-2.86.84-3.63.44-.27,10.9-6.67,20.43-.89,1.25.76,1.65,2.38.89,3.63-.76,1.25-2.39,1.64-3.63.89-6.72-4.07-14.82.81-14.9.86-.43.27-.91.39-1.38.39Z"/><path class="uuid-cb650369-976e-42d1-abcc-829795638633" d="M134.66,199.96c-9.28,0-15.47-7.93-15.76-8.31-.89-1.16-.67-2.82.49-3.7,1.16-.88,2.81-.67,3.7.48.1.13,5.96,7.47,13.64,6.05,1.45-.27,2.81.68,3.08,2.11.27,1.43-.68,2.81-2.11,3.08-1.05.2-2.07.29-3.05.29Z"/><path class="uuid-d476c596-b8c6-484f-b117-bbbbbb53630c" d="M267.9,191.63c-23.03-36.56-66.73-50.44-97.61-30.99-26.1,16.44-34.68,51.43-22.8,83.95-.72.17-1.44.35-2.16.59-10.89,3.71-17.46,15.34-15.01,26.58,2.75,12.63,15.33,20.45,27.82,17.43,5.5-1.33,10.02-4.57,13.1-8.81,24.04,22.31,57.44,28.41,82.45,12.67,30.88-19.45,37.24-64.85,14.21-101.42Z"/><path class="uuid-cb650369-976e-42d1-abcc-829795638633" d="M222.48,304.54c-17.46,0-35.61-6.96-50.94-20.35-3.42,3.73-7.86,6.38-12.77,7.57-6.75,1.64-13.71.5-19.6-3.18-5.88-3.69-9.94-9.46-11.42-16.25-2.69-12.36,4.48-25.23,16.34-29.5-11.16-33.65-1.17-68.06,24.8-84.42,32.06-20.19,77.48-5.92,101.25,31.81h0c11.47,18.21,16.26,39.13,13.49,58.9-2.79,19.94-12.93,36.33-28.53,46.16-9.88,6.23-21.1,9.26-32.63,9.26ZM171.25,277.74c.66,0,1.31.25,1.8.7,23.91,22.19,55.76,27.17,79.24,12.37,14.27-8.98,23.54-24.05,26.11-42.42,2.6-18.54-1.93-38.2-12.73-55.35h0c-22.22-35.27-64.36-48.8-93.96-30.16-24.53,15.45-33.47,48.68-21.72,80.81.26.71.2,1.5-.16,2.16-.36.67-.98,1.15-1.72,1.32-.64.15-1.28.3-1.91.52-9.61,3.27-15.45,13.6-13.29,23.52,1.17,5.39,4.39,9.98,9.06,12.9,4.67,2.93,10.19,3.82,15.55,2.53,4.63-1.12,8.74-3.89,11.59-7.8.44-.61,1.13-1,1.88-1.08.09,0,.17-.01.26-.01Z"/><path class="uuid-cb650369-976e-42d1-abcc-829795638633" d="M152.54,214.01l24.09,38.48c.76,1.21.9,2.71.37,4.04h0c-1.02,2.6-4.14,3.64-6.52,2.19l-23.13-14.11,5.2-30.59Z"/><path class="uuid-cb650369-976e-42d1-abcc-829795638633" d="M161.28,266.84c-.98,0-1.92-.55-2.38-1.49h0c-.03-.07-3.51-6.99-10.03-7.73-1.45-.16-2.49-1.47-2.33-2.92.16-1.45,1.45-2.52,2.92-2.33,9.46,1.07,14,10.28,14.19,10.68.63,1.31.08,2.89-1.23,3.53-.37.18-.76.26-1.15.26Z"/><path class="uuid-cb650369-976e-42d1-abcc-829795638633" d="M129.66,186.81c-7.46,15.62-9.83,33.77-5.46,51.8l2.09,8.62c3.18.27,6.46.07,9.73-.72,16.26-3.94,26.25-20.31,22.31-36.57-3.3-13.61-15.31-22.79-28.67-23.12Z"/><path class="uuid-d476c596-b8c6-484f-b117-bbbbbb53630c" d="M14.73,520.72c-.81,0-1.62-.37-2.13-1.08-.86-1.18-.61-2.83.57-3.69l94.14-69.07c1.18-.87,2.83-.61,3.69.57.86,1.18.61,2.83-.57,3.69l-94.14,69.07c-.47.35-1.02.51-1.56.51Z"/><path class="uuid-cb650369-976e-42d1-abcc-829795638633" d="M244.75,254.03c-8.42,0-19.18-13.11-21.44-16-.9-1.15-.7-2.81.45-3.71,1.15-.9,2.81-.7,3.71.45,5.27,6.71,14.43,15.26,17.96,13.86.63-.25,3.71-2.26,2.3-17.08-.14-1.45.93-2.74,2.38-2.88,1.46-.18,2.74.93,2.88,2.38,1.27,13.31-.51,20.46-5.6,22.49-.84.34-1.73.49-2.64.49Z"/><path class="uuid-cb650369-976e-42d1-abcc-829795638633" d="M193.87,229.19c-.56,0-1.12-.18-1.6-.54-7.37-5.61-11.27-23.7-8.9-33.62,1.41-5.89,4.57-7.66,6.98-8.1,6.97-1.29,16.53,7.12,29.18,25.68.82,1.2.51,2.85-.7,3.67-1.2.83-2.85.51-3.67-.7-15.64-22.96-22.22-23.76-23.86-23.46-1.57.29-2.39,2.4-2.8,4.13-2.03,8.52,1.87,24.32,6.96,28.19,1.16.88,1.39,2.54.5,3.7-.52.68-1.31,1.04-2.11,1.04Z"/><path class="uuid-cb650369-976e-42d1-abcc-829795638633" d="M243.08,200.78c-1.09,0-2.12-.68-2.49-1.77-3.19-9.2-9.83-31.04-2.47-35.28,4.91-2.82,12.54,2.41,25.54,17.51.95,1.1.83,2.77-.28,3.73-1.1.95-2.77.83-3.72-.28-15.09-17.52-18.87-16.4-18.9-16.38-1.97,1.15-.26,14.33,4.82,28.97.48,1.38-.25,2.88-1.63,3.36-.29.1-.58.15-.87.15Z"/><path class="uuid-cb650369-976e-42d1-abcc-829795638633" d="M173.56,187.91c-.15,0-.3-.01-.45-.04-1.44-.25-2.4-1.61-2.15-3.05,1.65-9.61,11.36-13.73,11.77-13.9,1.34-.55,2.89.08,3.45,1.43.56,1.34-.08,2.89-1.42,3.45-.1.04-7.43,3.22-8.59,9.92-.22,1.28-1.34,2.19-2.6,2.19Z"/><path class="uuid-cb650369-976e-42d1-abcc-829795638633" d="M215.78,162.76c-.61,0-1.21-.21-1.71-.63-1.11-.95-1.24-2.61-.3-3.72,6.33-7.43,16.77-6.02,17.21-5.96,1.44.21,2.45,1.55,2.24,2.99-.21,1.44-1.53,2.45-2.98,2.24h0c-.08-.01-8.03-1.03-12.44,4.15-.52.61-1.27.93-2.01.93Z"/><path class="uuid-cff2dbd3-98a2-4a6f-a921-7064d02baa9f" d="M546.83,466.1l164.36-46.87c-7.05-19.02-11.66-50.85-.5-94.7,13.76-54.08,66.31-106.45,20.23-220.07C677.12-28.2,519.52,1.57,504.87,5.75v-.05s-.16.05-.42.14c-.27.06-.42.09-.42.09v.05c-17.45,4.98-164.24,62.01-139.98,203.1,20.78,120.83,93.04,137.62,133.26,176.31,32.61,31.37,45.48,60.84,49.52,80.72Z"/><path d="M547.88,441.65h189.43v84.5c0,7.09-5.75,12.84-12.84,12.84h-163.75c-7.09,0-12.84-5.75-12.84-12.84v-84.5h0Z" transform="translate(-109.82 195.01) rotate(-15.92)"/><path d="M588.54,498.53h132.17v58.96c0,4.94-4.01,8.96-8.96,8.96h-114.25c-4.94,0-8.96-4.01-8.96-8.96v-58.96h0Z" transform="translate(-120.93 199.92) rotate(-15.92)"/><rect x="572.13" y="285.06" width="5.28" height="142.07" transform="translate(-75.61 171.26) rotate(-15.92)"/><rect x="626.78" y="269.47" width="5.28" height="142.07" transform="translate(-69.25 185.66) rotate(-15.92)"/><rect x="511.59" y="277.35" width="142.07" height="5.28" transform="translate(-54.46 170.57) rotate(-15.92)"/><path class="uuid-d476c596-b8c6-484f-b117-bbbbbb53630c" d="M358.91,110.07l45.81-19.59c3.06-1.31,6.63-.65,9.06,1.83,1.59,1.62,2.32,3.91,2.27,6.19-.18,7.18-3.82,13.83-9.81,17.86l-16.33,10.98-.77,7.64,16.84-17.62c.26-.19.51-.37.77-.55l36.29-17.21c1.89-.9,4.07-1.18,6.05-.51,2.66.9,4.57,3.06,5.14,5.74,1.13,5.31.02,10.92-3.05,15.4l-.74,1.08,19.38-5.13c1.21-.32,2.45.27,3.01,1.38,1.9,3.78,3.15,11.64-2.31,19.12,1.76.74,3.32,2.03,3.59,5.3.07.84,0,1.71-.23,2.52-2.13,7.58-7.38,13.83-14.51,17.23l-17.44,8.33-21.8,31.39,11.1,47.1c4.65,19.73.59,40.53-11.15,57.06l-171.41,209.37c-.48.67.5-.4-.33-.38-.79.02-.81-.94-1.31-1.54-.02-.03-.04-.05-.06-.08l-18.13,6.21c-42.8,14.65-89.76-5.34-108.86-46.34l-11.15-23.92c-.78-.99-2.45-.94-1.61-1.89l250.78-206.75-.64-127.81c0-1.05.62-2,1.58-2.41Z"/><path class="uuid-cb650369-976e-42d1-abcc-829795638633" d="M198.31,527.17c-12.49,0-24.24-2.53-35.17-7.61-41.52-19.27-56.2-67.75-56.8-69.8-.3-1.01.04-2.11.85-2.78l250.75-206.94-.64-127.56c0-1.06.63-2.02,1.6-2.44l45.81-19.58c2.54-1.08,5.42-.82,7.72.7,2.3,1.52,3.67,4.08,3.66,6.83-.02,7.4-3.69,14.28-9.83,18.41l-16.31,10.97-1.57,15.63c-.15,1.45-1.41,2.5-2.89,2.36-1.45-.15-2.51-1.44-2.36-2.89l1.7-16.86c.08-.78.5-1.49,1.15-1.93l17.34-11.66c4.68-3.15,7.48-8.39,7.49-14.03,0-.99-.47-1.87-1.29-2.41-.83-.54-1.82-.64-2.72-.24l-44.2,18.89.64,127.06c0,.79-.35,1.55-.96,2.05l-250.33,206.59c2.94,8.59,18.26,48.57,53.46,64.88,22.9,10.61,49.8,9.3,79.97-3.88l170.52-208.47c10.75-15.16,14.52-34.41,10.21-52.68l-11.36-48.23c-.17-.73-.03-1.5.4-2.11l22.86-32.91c.26-.38.62-.68,1.03-.88l18.06-8.63c5.96-2.85,10.3-8.16,11.89-14.57.1-.39-.1-.65-.22-.77s-.4-.3-.78-.2l-44.54,12.26-28.2,33.27c-.94,1.11-2.61,1.25-3.72.31-1.11-.94-1.25-2.61-.31-3.72l28.73-33.89c.34-.4.8-.7,1.31-.84l45.33-12.48c2.12-.58,4.31-.02,5.87,1.51,1.56,1.53,2.18,3.71,1.66,5.83-1.98,7.95-7.35,14.53-14.75,18.06l-17.43,8.33-21.79,31.37,11.09,47.09c4.65,19.74.58,40.55-11.16,57.09l-171.03,209.1c-.26.32-.6.58-.98.75-17.64,7.79-34.27,11.68-49.76,11.68Z"/><path class="uuid-cb650369-976e-42d1-abcc-829795638633" d="M373.17,158.12c-.66,0-1.31-.24-1.82-.73-1.06-1.01-1.09-2.68-.09-3.73l34.7-36.31c.22-.23.48-.43.78-.56l36.6-17.36c2.16-1.03,4.63-1.01,6.77.05,2.14,1.06,3.66,3.01,4.16,5.35,1.14,5.32.02,10.95-3.06,15.43l-3.57,5.2c-.82,1.21-2.47,1.51-3.67.68-1.2-.83-1.51-2.47-.68-3.67l3.57-5.2c2.26-3.3,3.08-7.43,2.25-11.34-.16-.75-.64-1.37-1.33-1.71-.69-.34-1.48-.34-2.17-.02l-36.16,17.15-34.37,35.96c-.52.54-1.21.82-1.91.82Z"/><path class="uuid-cb650369-976e-42d1-abcc-829795638633" d="M382.81,173.35c-.62,0-1.24-.22-1.74-.66-1.1-.96-1.2-2.63-.24-3.73l32.99-37.53c.35-.39.8-.68,1.31-.81l54.67-14.47c1.2-.32,2.47.25,3.03,1.35,2.4,4.73,3.85,15.99-7.9,24.81-1.17.87-2.82.64-3.7-.53-.87-1.17-.64-2.82.53-3.7,8.16-6.13,7.84-12.92,7.03-16.21l-51.54,13.64-32.46,36.93c-.52.59-1.25.9-1.98.9Z"/><path class="uuid-d476c596-b8c6-484f-b117-bbbbbb53630c" d="M742.46,152.35l.81,16.79,10.64-11.37c4.11-4.39,6.49-10.12,6.72-16.13h0c.2-5.35-1.84-7.99-8.46-11.56l-34.94-17.27-1.08,8.05c-.77,5.74,1.51,11.46,6.02,15.1l20.29,16.38Z"/><path class="uuid-cb650369-976e-42d1-abcc-829795638633" d="M743.27,171.79c-.3,0-.61-.05-.91-.16-1-.37-1.68-1.29-1.73-2.35l-.75-15.61-19.37-15.63c-5.19-4.19-7.87-10.9-6.98-17.51l1.08-8.05c.11-.84.63-1.58,1.38-1.98.75-.4,1.65-.42,2.41-.04l34.94,17.27c6.67,3.59,10.19,6.87,9.93,14.02-.25,6.65-2.89,12.98-7.43,17.84l-10.64,11.37c-.51.54-1.21.84-1.93.84ZM719.36,116.82l-.59,4.41c-.65,4.79,1.29,9.66,5.06,12.69l20.29,16.38c.59.47.94,1.18.98,1.93l.51,10.56,6.37-6.81c3.68-3.93,5.81-9.05,6.01-14.43.14-3.92-.86-5.79-7.08-9.13l-31.55-15.6Z"/><path class="uuid-d476c596-b8c6-484f-b117-bbbbbb53630c" d="M740.07,175.61l.96,19.94,12.63-13.5c4.88-5.22,7.71-12.02,7.98-19.15h0c.24-6.35-3.92-12.03-10.05-13.73l-52.26-15.26-.04,13.17c-.02,6.81,3.96,13,10.17,15.8l30.61,12.72Z"/><path class="uuid-cb650369-976e-42d1-abcc-829795638633" d="M741.03,198.19c-.3,0-.61-.05-.91-.16-1-.37-1.68-1.29-1.73-2.35l-.88-18.27-29.06-12.08c-7.22-3.26-11.82-10.41-11.8-18.25l.04-13.17c0-.83.39-1.61,1.06-2.11.67-.5,1.53-.66,2.32-.42l52.26,15.26c7.3,2.02,12.23,8.75,11.95,16.36-.29,7.77-3.37,15.18-8.69,20.86l-12.63,13.5c-.51.54-1.21.84-1.93.84ZM701.96,137.43l-.03,9.66c-.02,5.76,3.37,11.02,8.62,13.39l30.53,12.69c.94.39,1.58,1.29,1.63,2.31l.66,13.7,8.36-8.94c4.44-4.75,7.03-10.95,7.27-17.45.19-5.15-3.14-9.71-8.11-11.08l-48.93-14.28Z"/><path class="uuid-d476c596-b8c6-484f-b117-bbbbbb53630c" d="M741.33,201.84l.96,19.94,12.63-13.5c4.88-5.22,7.71-12.02,7.98-19.15h0c.24-6.35-3.92-12.03-10.05-13.73l-47.81-13.76-.04,13.17c-.02,6.81,3.96,13,10.17,15.8l26.15,11.23Z"/><path class="uuid-cb650369-976e-42d1-abcc-829795638633" d="M742.3,224.43c-.3,0-.61-.05-.91-.16-1-.37-1.68-1.29-1.73-2.35l-.88-18.29-24.64-10.58c-7.19-3.25-11.8-10.4-11.77-18.24l.04-13.17c0-.83.39-1.61,1.06-2.11.66-.5,1.52-.66,2.32-.43l47.81,13.76c7.31,2.02,12.24,8.76,11.96,16.36-.29,7.77-3.37,15.18-8.69,20.86l-12.63,13.5c-.51.54-1.21.84-1.93.84ZM707.68,165.15l-.03,9.67c-.02,5.76,3.37,11.02,8.62,13.39l26.11,11.21c.93.4,1.55,1.29,1.6,2.3l.66,13.71,8.36-8.94c4.44-4.75,7.02-10.95,7.27-17.45.19-5.15-3.14-9.71-8.11-11.08l-44.47-12.8Z"/><path class="uuid-d476c596-b8c6-484f-b117-bbbbbb53630c" d="M742.54,226.77l.96,19.94,12.63-13.5c4.88-5.22,7.71-12.02,7.98-19.15h0c.24-6.35-3.92-12.03-10.05-13.73l-41.46-11.47-.04,13.17c-.02,6.81,3.96,13,10.17,15.8l19.8,8.94Z"/><path class="uuid-cb650369-976e-42d1-abcc-829795638633" d="M743.5,249.36c-.3,0-.61-.05-.91-.16-1-.37-1.68-1.29-1.73-2.35l-.88-18.33-18.33-8.27c-7.15-3.22-11.75-10.37-11.73-18.22l.04-13.16c0-.82.39-1.6,1.04-2.1.66-.5,1.51-.66,2.3-.44l41.46,11.47c7.34,2.03,12.27,8.76,11.98,16.37-.29,7.77-3.37,15.18-8.69,20.86l-12.63,13.5c-.51.54-1.21.84-1.93.84ZM715.23,192.33l-.03,9.7c-.02,5.77,3.37,11.02,8.62,13.39l19.8,8.94c.91.41,1.5,1.29,1.55,2.28l.66,13.7,8.36-8.94c4.44-4.75,7.03-10.95,7.27-17.45.19-5.15-3.14-9.71-8.11-11.08l-38.13-10.55Z"/></svg>