<?xml version="1.0" encoding="UTF-8"?><svg id="uuid-a0649adc-7304-45ad-bc85-2a38e8a56bf9" xmlns="http://www.w3.org/2000/svg" viewBox="0 0 830.82 651.99"><defs><style>.uuid-403d7ed0-d4f0-4c15-b5f7-b49b62269c73{fill:#fff;}.uuid-d0ef3a79-2824-4a8e-8589-9f253733f8f2{fill:#080717;}.uuid-d3d897d2-616d-4357-a1c8-fcf8b1571ff6{fill:#1d1d1b;}</style></defs><path class="uuid-d0ef3a79-2824-4a8e-8589-9f253733f8f2" d="M92.43,498.73c-4.59,0-9.08-1.33-13.01-3.91-5.36-3.51-9.01-8.9-10.29-15.18L.39,142.31c-.87-4.26-.26-8.57,1.72-12.15,2.06-3.72,5.34-6.21,9.23-7L605.06.27c3.9-.8,7.89.21,11.24,2.83,3.22,2.52,5.47,6.25,6.33,10.51l68.81,337.71c2.6,12.76-5.65,25.36-18.39,28.07,0,0-.01,0-.02,0L97.43,498.2c-1.66.35-3.34.53-5,.53ZM607.65,5.58c-.49,0-.98.05-1.47.15L12.46,128.62c-2.28.46-4.22,1.97-5.47,4.24-1.33,2.42-1.74,5.38-1.14,8.33l68.74,337.34c.98,4.81,3.78,8.94,7.88,11.63,4.11,2.69,9.01,3.61,13.81,2.59l575.63-118.82c9.75-2.08,16.07-11.72,14.08-21.5L617.17,14.72c-.6-2.96-2.13-5.53-4.31-7.23-1.6-1.26-3.41-1.91-5.21-1.91ZM672.48,376.65h.03-.03Z"/><path d="M47.32,150.44c.83,4.07-1.8,8.05-5.88,8.88-4.07.83-8.05-1.8-8.88-5.87-.83-4.07,1.8-8.05,5.87-8.88,4.08-.83,8.05,1.8,8.88,5.87Z"/><path d="M68.98,146.03c.83,4.07-1.8,8.05-5.88,8.88-4.07.83-8.04-1.8-8.87-5.87-.83-4.07,1.8-8.05,5.87-8.88,4.07-.83,8.05,1.8,8.88,5.87Z"/><path d="M90.64,141.62c.83,4.07-1.8,8.05-5.87,8.88-4.07.83-8.05-1.8-8.88-5.87-.83-4.07,1.8-8.05,5.88-8.88,4.07-.83,8.04,1.8,8.87,5.87Z"/><polygon class="uuid-d3d897d2-616d-4357-a1c8-fcf8b1571ff6" points="119.1 463.44 95.81 448.02 111.21 424.71 115.86 427.79 103.53 446.45 122.18 458.79 119.1 463.44"/><polygon class="uuid-d3d897d2-616d-4357-a1c8-fcf8b1571ff6" points="157.06 455.7 152.41 452.63 164.74 433.97 146.1 421.63 149.18 416.98 172.47 432.4 157.06 455.7"/><rect class="uuid-d3d897d2-616d-4357-a1c8-fcf8b1571ff6" x="539.31" y="39.08" width="5.58" height="17.26" transform="translate(1.38 109.1) rotate(-11.51)"/><rect class="uuid-d3d897d2-616d-4357-a1c8-fcf8b1571ff6" x="533.48" y="44.92" width="17.25" height="5.58" transform="translate(1.36 108.97) rotate(-11.49)"/><polygon class="uuid-d3d897d2-616d-4357-a1c8-fcf8b1571ff6" points="571.33 32.38 564.47 33.78 565.86 40.65 572.73 39.25 571.33 32.38 571.33 32.38"/><polygon class="uuid-d3d897d2-616d-4357-a1c8-fcf8b1571ff6" points="573.6 43.51 566.73 44.91 568.13 51.78 575 50.38 573.6 43.51 573.6 43.51"/><polygon class="uuid-d3d897d2-616d-4357-a1c8-fcf8b1571ff6" points="582.56 30.1 575.69 31.5 577.09 38.37 583.96 36.97 582.56 30.1 582.56 30.1"/><polygon class="uuid-d3d897d2-616d-4357-a1c8-fcf8b1571ff6" points="584.82 41.22 577.95 42.62 579.35 49.49 586.22 48.09 584.82 41.22 584.82 41.22"/><ellipse class="uuid-d0ef3a79-2824-4a8e-8589-9f253733f8f2" cx="713.94" cy="619.33" rx="117.23" ry="29.26" transform="translate(-47.74 59.75) rotate(-4.64)"/><path class="uuid-403d7ed0-d4f0-4c15-b5f7-b49b62269c73" d="M614.34,339.55l152.4,276.36-13.92,5.57c-38.96,15.58-98.21,20.82-138.17,8.03h0l-78.21-291.2-64.77-81.54,44.96-54.93,23.08,14.02,63.08,42.98c1.94,1.33,3.36,3.29,4.01,5.55l7.55,75.15Z"/><path class="uuid-d0ef3a79-2824-4a8e-8589-9f253733f8f2" d="M667.52,639.24c-19.73,0-38.48-2.35-53.67-7.22-.86-.27-1.51-.96-1.75-1.83l-78.07-290.67-64.43-81.11c-.77-.97-.76-2.36.02-3.32l44.96-54.93c.83-1.02,2.29-1.27,3.42-.58l23.08,14.02,63.2,43.06c2.45,1.67,4.25,4.16,5.06,7.02.04.15.07.3.09.46l7.49,74.61,152.14,275.89c.37.66.43,1.45.17,2.17-.26.71-.8,1.28-1.51,1.57l-13.92,5.57c-25.09,10.04-56.77,15.31-86.28,15.31ZM616.83,627.42c36.95,11.29,94.65,7.75,135.01-8.4l11.14-4.46-150.96-273.74c-.17-.31-.28-.66-.32-1.01l-7.52-74.9c-.5-1.58-1.52-2.95-2.89-3.89l-63.08-42.98-20.99-12.75-42.15,51.5,63.45,79.87c.23.28.39.61.48.96l77.83,289.79Z"/><path class="uuid-d0ef3a79-2824-4a8e-8589-9f253733f8f2" d="M292.13,631.34c.89,14.85,55.59,23.67,122.18,19.69,66.59-3.97,119.86-19.23,118.97-34.08-.89-14.85-55.59-23.67-122.18-19.69-66.59,3.97-119.86,19.23-118.97,34.08Z"/><path class="uuid-403d7ed0-d4f0-4c15-b5f7-b49b62269c73" d="M260.33,455.63l52.99,174.9,28.75,6.79c29.28,6.91,59.86,7.25,89.03-.1,14.03-3.53,26.83-8.5,35.75-14.75h0l-104.42-169.74-87.22-167.13-70.16,10.74.32,27,2.29,35.7c1.83,28.5,13.6,55.46,33.27,76.17l19.39,20.42Z"/><path class="uuid-d0ef3a79-2824-4a8e-8589-9f253733f8f2" d="M386.99,645.23c-15.11,0-30.43-1.78-45.52-5.34l-28.75-6.79c-.92-.22-1.65-.9-1.92-1.81l-52.81-174.3-18.95-19.97c-20.05-21.12-32.12-48.76-33.99-77.82l-2.29-35.7-.33-27.13c-.01-1.32.94-2.45,2.24-2.64l70.16-10.74c1.12-.18,2.22.39,2.75,1.39l87.21,167.13,104.33,169.58c.73,1.19.41,2.75-.74,3.55-8.64,6.05-21.31,11.29-36.62,15.15-14.43,3.64-29.5,5.45-44.76,5.45ZM315.41,628.31l27.27,6.44c29.53,6.97,59.88,6.94,87.78-.09,13.5-3.4,24.77-7.86,32.81-12.97l-103.08-167.57-86.43-165.61-66.02,10.11.29,24.7,2.28,35.57c1.79,27.83,13.34,54.29,32.54,74.52l19.39,20.42c.28.3.49.66.61,1.05l52.55,173.44Z"/><polygon class="uuid-d3d897d2-616d-4357-a1c8-fcf8b1571ff6" points="636.03 306.24 413.48 233.92 190.92 161.6 263.24 384.15 335.56 606.71 413.75 454.49 532.58 573.32 602.62 503.27 483.79 384.45 636.03 306.24"/><rect class="uuid-d0ef3a79-2824-4a8e-8589-9f253733f8f2" x="143.63" y="172.5" width="26.24" height="5.58" transform="translate(-53.21 69.38) rotate(-21.43)"/><rect class="uuid-d0ef3a79-2824-4a8e-8589-9f253733f8f2" x="218.69" y="143.05" width="26.24" height="5.58" transform="translate(-37.26 94.77) rotate(-21.43)"/><rect class="uuid-d0ef3a79-2824-4a8e-8589-9f253733f8f2" x="175.14" y="197.64" width="26.24" height="5.58" transform="translate(-37.96 356.75) rotate(-81.44)"/><rect class="uuid-d0ef3a79-2824-4a8e-8589-9f253733f8f2" x="187.17" y="117.91" width="26.24" height="5.58" transform="translate(51.12 300.78) rotate(-81.44)"/><rect class="uuid-d0ef3a79-2824-4a8e-8589-9f253733f8f2" x="159.97" y="122.3" width="5.58" height="26.24" transform="translate(-44.6 178.23) rotate(-51.43)"/><rect class="uuid-d0ef3a79-2824-4a8e-8589-9f253733f8f2" x="223.01" y="172.58" width="5.58" height="26.24" transform="translate(-60.17 246.45) rotate(-51.43)"/><path class="uuid-403d7ed0-d4f0-4c15-b5f7-b49b62269c73" d="M220.26,398.62c-8.31-19.25-11.66-70.2-11.8-72.35l-1.66-25.08c-.11-1.59.96-2.94,2.47-3.14l65.29-9.4c1.19-.15,1.48,1.6,2.13,2.68,2.86,4.73,4.11,10.92-1.85,21.7l18.39-1.73c1.33-.19,4.25-1.14,4.84.15.34.75,6.43,17.56-4.17,27.22,1.42,3.62,3.39,12.18,1.47,18.52-1.13,3.73-5.65,6.91-9.07,8.97,2.21,4.16,5.01,10.56,1.65,16.4-3.28,5.7-20.84,11.89-29.42,14.08,3.41,2.32,11.75,8.98,13.44,15.1.49,1.77-42.6,8.01-51.72-13.12Z"/><path class="uuid-d0ef3a79-2824-4a8e-8589-9f253733f8f2" d="M293.42,338.39c-.62,0-1.24-.22-1.74-.65-1.1-.96-1.21-2.63-.25-3.73,9.28-10.61,6.4-19.56,4.79-22.84l-86.98,13.87c-1.44.24-2.8-.75-3.03-2.19-.23-1.44.75-2.8,2.2-3.03l88.77-14.15c.97-.15,1.96.25,2.55,1.05.1.14,10.12,14.28-4.32,30.77-.52.6-1.25.9-1.99.9Z"/><path class="uuid-d0ef3a79-2824-4a8e-8589-9f253733f8f2" d="M285.81,365.65c-.99,0-1.93-.56-2.39-1.51-.63-1.32-.07-2.9,1.25-3.52,10.75-5.13,8.2-16.97,6.69-21.64l-81.94,14.05c-1.43.24-2.81-.72-3.05-2.16-.25-1.44.72-2.81,2.16-3.05l84.11-14.42c1.2-.21,2.38.43,2.87,1.55,3.3,7.54,5.75,23.61-8.55,30.44-.37.18-.75.26-1.14.26Z"/><path class="uuid-d0ef3a79-2824-4a8e-8589-9f253733f8f2" d="M252.44,397.42c-1.25,0-2.36-.89-2.6-2.17-.26-1.44.69-2.81,2.12-3.08,11.04-2.03,29.86-7.4,33.39-13.15,3.34-5.44.51-10.7-1.08-12.95l-59.21,12.24c-1.43.3-2.83-.62-3.12-2.05-.29-1.43.63-2.83,2.06-3.12l60.81-12.57c.9-.19,1.85.11,2.47.79,3.14,3.39,7.73,12.03,2.58,20.43-5.91,9.63-33.78,15.01-36.94,15.59-.16.03-.32.05-.48.05Z"/><path class="uuid-403d7ed0-d4f0-4c15-b5f7-b49b62269c73" d="M594.81,265.72c-12.34-16.95-54.49-45.77-56.27-46.98l-20.75-14.2c-1.31-.9-3.02-.66-3.96.53l-41.32,51.42c-.73.95.62,2.09,1.22,3.2,2.62,4.87,7.31,9.1,19.62,9.45l-10.84,14.95c-.84,1.05-3.14,3.08-2.33,4.24.47.67,11.84,14.47,25.55,10.26,2.39,3.06,8.76,9.11,15.19,10.69,3.79.93,8.83-1.35,12.34-3.24,2.46,4.02,6.54,9.69,13.27,9.77,6.58.08,35.59-21.32,41.84-27.58l6.44-22.51Z"/><path class="uuid-d0ef3a79-2824-4a8e-8589-9f253733f8f2" d="M499.31,301.21c-16.3,0-21.87-12.47-21.93-12.61-.39-.91-.24-1.97.39-2.73l57.36-69.2c.93-1.12,2.6-1.28,3.72-.35,1.12.93,1.28,2.6.35,3.72l-56.21,67.82c1.99,3.07,8.18,10.1,22.1,7.5,1.45-.27,2.82.68,3.09,2.11.27,1.44-.68,2.82-2.11,3.08-2.43.46-4.68.66-6.76.66Z"/><path class="uuid-d0ef3a79-2824-4a8e-8589-9f253733f8f2" d="M490.64,271.83c-12.11,0-20.56-12.85-20.97-13.47-.62-.95-.56-2.2.15-3.08l43.65-54.71c.91-1.14,2.58-1.33,3.71-.42,1.14.91,1.33,2.57.42,3.72l-42.39,53.13c2.78,3.53,10.47,11.83,19.32,8.91,1.4-.45,2.88.3,3.34,1.68.46,1.39-.3,2.88-1.68,3.34-1.92.63-3.78.91-5.56.91Z"/><path class="uuid-d0ef3a79-2824-4a8e-8589-9f253733f8f2" d="M523.76,310.9c-8.89,0-16.45-6.72-19.93-11.56-.71-.99-.66-2.33.13-3.26l55.23-65.06c.94-1.12,2.61-1.25,3.73-.31,1.11.95,1.25,2.61.3,3.73l-53.8,63.38c3.25,3.68,12.15,11.9,22.03,5.25,1.21-.81,2.85-.49,3.67.72.81,1.21.49,2.85-.72,3.67-3.64,2.44-7.23,3.42-10.63,3.42Z"/><path class="uuid-d0ef3a79-2824-4a8e-8589-9f253733f8f2" d="M546.74,318.32c-9.67,0-14.69-8.23-16-12.62-.27-.9-.04-1.87.6-2.56l46.3-49.68c1-1.07,2.67-1.13,3.74-.13,1.07,1,1.13,2.67.13,3.74l-45.17,48.48c1.13,2.51,4.13,7.62,10.59,7.5,6.82-.11,25.62-16.42,35.86-26.67,1.03-1.03,2.7-1.04,3.74,0,1.03,1.03,1.03,2.7,0,3.74-2.87,2.87-28.33,28.04-39.52,28.22-.09,0-.18,0-.27,0Z"/></svg>