<?xml version="1.0" encoding="UTF-8"?>
<svg xmlns="http://www.w3.org/2000/svg" xmlns:xlink="http://www.w3.org/1999/xlink" viewBox="0 0 3000 2000">
  <defs>
    <style>
      .cls-1 {
        fill: aqua;
      }

      .cls-2 {
        fill: url(#radial-gradient-2);
        mix-blend-mode: color-dodge;
      }

      .cls-3, .cls-4 {
        fill: #fff;
      }

      .cls-5 {
        fill: none;
      }

      .cls-6 {
        fill: url(#radial-gradient);
      }

      .cls-7 {
        isolation: isolate;
      }

      .cls-4, .cls-8 {
        mix-blend-mode: overlay;
      }

      .cls-9 {
        opacity: .1;
      }

      .cls-10 {
        clip-path: url(#clippath);
      }
    </style>
    <clipPath id="clippath">
      <rect class="cls-5" width="3000" height="2000"/>
    </clipPath>
    <radialGradient id="radial-gradient" cx="38.62" cy="839.15" fx="38.62" fy="839.15" r="2523.7" gradientUnits="userSpaceOnUse">
      <stop offset=".19" stop-color="#004463"/>
      <stop offset=".34" stop-color="#003b56"/>
      <stop offset=".61" stop-color="#002536"/>
      <stop offset=".98" stop-color="#000202"/>
      <stop offset="1" stop-color="#000"/>
    </radialGradient>
    <radialGradient id="radial-gradient-2" cx="1056.49" cy="979.46" fx="1056.49" fy="979.46" r="845.47" gradientTransform="translate(1002.02 -460.17) rotate(45)" gradientUnits="userSpaceOnUse">
      <stop offset="0" stop-color="#a3a3a3"/>
      <stop offset=".04" stop-color="#929292"/>
      <stop offset=".13" stop-color="#6b6b6b"/>
      <stop offset=".24" stop-color="#4a4a4a"/>
      <stop offset=".35" stop-color="#2f2f2f"/>
      <stop offset=".47" stop-color="#1a1a1a"/>
      <stop offset=".6" stop-color="#0b0b0b"/>
      <stop offset=".76" stop-color="#020202"/>
      <stop offset="1" stop-color="#000"/>
    </radialGradient>
  </defs>
  <g class="cls-7">
    <g id="Layer_2" data-name="Layer 2">
      <g id="Layer_1-2" data-name="Layer 1">
        <g class="cls-10">
          <rect class="cls-6" x="-12.32" y="-7.54" width="3018.32" height="2012.21"/>
          <circle class="cls-2" cx="1056.49" cy="979.46" r="845.47" transform="translate(-383.14 1033.92) rotate(-45)"/>
          <g>
            <g>
              <g>
                <path class="cls-4" d="M1093.71,326.04l-2.51-10.83c-14.38,3.34-28.22,8.62-41.14,15.71l5.34,9.75c12.03-6.6,24.92-11.52,38.31-14.63Z"/>
                <g>
                  <path class="cls-4" d="M1224.81,377.98c-25.74-25.74-59.96-39.91-96.36-39.91s-70.62,14.18-96.37,39.91c-25.73,25.74-39.91,59.96-39.91,96.36s14.18,70.62,39.91,96.37c24.86,24.85,57.63,38.92,92.62,39.85,1.25.04,2.49.06,3.74.06s2.5-.02,3.74-.06c35-.93,67.76-15,92.62-39.85,25.74-25.74,39.91-59.96,39.91-96.37s-14.18-70.62-39.91-96.36ZM1128.45,603.15c-71.02,0-128.8-57.78-128.8-128.8s57.78-128.79,128.8-128.79,128.8,57.78,128.8,128.79-57.79,128.8-128.8,128.8Z"/>
                  <path class="cls-4" d="M1224.81,377.98c-25.74-25.74-59.96-39.91-96.36-39.91s-70.62,14.18-96.37,39.91c-25.73,25.74-39.91,59.96-39.91,96.36s14.18,70.62,39.91,96.37c24.86,24.85,57.63,38.92,92.62,39.85,1.25.04,2.49.06,3.74.06s2.5-.02,3.74-.06c35-.93,67.76-15,92.62-39.85,25.74-25.74,39.91-59.96,39.91-96.37s-14.18-70.62-39.91-96.36ZM1128.45,603.15c-71.02,0-128.8-57.78-128.8-128.8s57.78-128.79,128.8-128.79,128.8,57.78,128.8,128.79-57.79,128.8-128.8,128.8Z"/>
                  <g class="cls-8">
                    <path class="cls-3" d="M1112.97,311.69l1.03,11.07c4.77-.44,9.62-.67,14.44-.67,40.67,0,78.91,15.84,107.67,44.6l7.86-7.86c-30.86-30.86-71.89-47.85-115.53-47.85-5.16,0-10.36.24-15.47.72Z"/>
                    <path class="cls-3" d="M1020.78,366.68c5.4-5.4,11.22-10.42,17.3-14.93l-6.62-8.93c-6.52,4.83-12.76,10.21-18.55,16-30.86,30.86-47.85,71.89-47.85,115.53,0,23.01,4.65,45.21,13.82,65.98l10.17-4.49c-8.54-19.35-12.87-40.03-12.87-61.49,0-40.67,15.84-78.91,44.6-107.67Z"/>
                    <path class="cls-3" d="M1244.94,572.41l8.49,7.17c9.55-11.31,17.5-23.81,23.62-37.15l-10.1-4.64c-5.7,12.43-13.11,24.08-22.01,34.62Z"/>
                    <path class="cls-3" d="M1128.45,626.61c-31.79,0-62.18-9.63-87.86-27.85l-6.43,9.07c27.57,19.56,60.18,29.9,94.29,29.9,40.69,0,79.64-15.02,109.67-42.28l-7.47-8.23c-27.99,25.41-64.28,39.4-102.2,39.4Z"/>
                    <path class="cls-3" d="M998.61,554.02l-9.46,5.83c6.67,10.83,14.67,20.93,23.76,30.02,1.36,1.36,2.75,2.71,4.15,4.01l7.58-8.13c-1.3-1.22-2.61-2.48-3.87-3.74-8.48-8.48-15.94-17.9-22.16-28Z"/>
                    <path class="cls-3" d="M1264.57,383.91l-9.25,6.17c16.61,24.89,25.39,54.03,25.39,84.27,0,15.06-2.17,29.91-6.46,44.13l10.64,3.21c4.6-15.26,6.93-31.19,6.93-47.34,0-32.44-9.42-63.72-27.26-90.44Z"/>
                  </g>
                </g>
              </g>
              <g>
                <path class="cls-4" d="M738.84,743.65l-2.51-10.83c-14.38,3.34-28.22,8.62-41.14,15.71l5.34,9.75c12.03-6.6,24.92-11.52,38.31-14.63Z"/>
                <g>
                  <path class="cls-4" d="M869.95,795.59c-25.74-25.74-59.97-39.91-96.37-39.91s-70.62,14.18-96.36,39.91c-25.74,25.74-39.92,59.96-39.92,96.37s14.18,70.62,39.92,96.36c24.86,24.85,57.62,38.92,92.62,39.86,1.24.04,2.49.05,3.74.05s2.5-.02,3.74-.05c34.99-.94,67.76-15.01,92.62-39.86,25.73-25.74,39.91-59.96,39.91-96.36s-14.18-70.62-39.91-96.37ZM773.58,1020.75c-71.02,0-128.8-57.78-128.8-128.79s57.78-128.8,128.8-128.8,128.8,57.78,128.8,128.8-57.78,128.79-128.8,128.79Z"/>
                  <path class="cls-4" d="M869.95,795.59c-25.74-25.74-59.97-39.91-96.37-39.91s-70.62,14.18-96.36,39.91c-25.74,25.74-39.92,59.96-39.92,96.37s14.18,70.62,39.92,96.36c24.86,24.85,57.62,38.92,92.62,39.86,1.24.04,2.49.05,3.74.05s2.5-.02,3.74-.05c34.99-.94,67.76-15.01,92.62-39.86,25.73-25.74,39.91-59.96,39.91-96.36s-14.18-70.62-39.91-96.37ZM773.58,1020.75c-71.02,0-128.8-57.78-128.8-128.79s57.78-128.8,128.8-128.8,128.8,57.78,128.8,128.8-57.78,128.79-128.8,128.79Z"/>
                  <g class="cls-8">
                    <path class="cls-3" d="M758.11,729.3l1.03,11.07c4.76-.44,9.62-.67,14.44-.67,40.67,0,78.91,15.84,107.67,44.6l7.86-7.86c-30.86-30.86-71.89-47.85-115.53-47.85-5.16,0-10.36.24-15.47.72Z"/>
                    <path class="cls-3" d="M665.91,784.29c5.4-5.4,11.22-10.42,17.3-14.93l-6.62-8.93c-6.52,4.83-12.76,10.21-18.55,16-30.86,30.86-47.85,71.89-47.85,115.53,0,23.01,4.65,45.21,13.82,65.98l10.17-4.49c-8.54-19.35-12.87-40.03-12.87-61.49,0-40.67,15.84-78.91,44.6-107.67Z"/>
                    <path class="cls-3" d="M890.08,990.02l8.49,7.17c9.55-11.31,17.5-23.81,23.62-37.15l-10.1-4.64c-5.7,12.43-13.11,24.08-22.01,34.62Z"/>
                    <path class="cls-3" d="M773.58,1044.22c-31.79,0-62.18-9.63-87.86-27.85l-6.43,9.07c27.57,19.56,60.18,29.9,94.29,29.9,40.69,0,79.64-15.02,109.67-42.28l-7.47-8.23c-27.99,25.41-64.28,39.4-102.2,39.4Z"/>
                    <path class="cls-3" d="M643.75,971.63l-9.46,5.83c6.67,10.83,14.67,20.93,23.76,30.02,1.36,1.36,2.75,2.71,4.15,4.01l7.58-8.13c-1.3-1.22-2.61-2.48-3.87-3.74-8.48-8.48-15.94-17.9-22.16-28Z"/>
                    <path class="cls-3" d="M909.71,801.52l-9.25,6.17c16.61,24.89,25.39,54.03,25.39,84.27,0,15.06-2.17,29.91-6.46,44.13l10.64,3.21c4.6-15.26,6.93-31.19,6.93-47.34,0-32.44-9.42-63.72-27.26-90.44Z"/>
                  </g>
                </g>
              </g>
              <g>
                <path class="cls-4" d="M889.2,1277.07l-2.51-10.83c-14.38,3.34-28.22,8.62-41.14,15.71l5.34,9.75c12.03-6.6,24.92-11.52,38.31-14.63Z"/>
                <g>
                  <path class="cls-4" d="M1020.31,1329.02c-25.74-25.74-59.96-39.91-96.36-39.91s-70.62,14.18-96.37,39.91c-25.74,25.74-39.91,59.96-39.91,96.37s14.18,70.62,39.91,96.36c24.86,24.85,57.62,38.92,92.62,39.86,1.25.04,2.49.05,3.74.05s2.5-.02,3.74-.05c35-.94,67.76-15.01,92.62-39.86,25.74-25.74,39.91-59.96,39.91-96.36s-14.18-70.62-39.91-96.37ZM923.95,1554.18c-71.02,0-128.8-57.78-128.8-128.79s57.77-128.8,128.8-128.8,128.8,57.78,128.8,128.8-57.79,128.79-128.8,128.79Z"/>
                  <path class="cls-4" d="M1020.31,1329.02c-25.74-25.74-59.96-39.91-96.36-39.91s-70.62,14.18-96.37,39.91c-25.74,25.74-39.91,59.96-39.91,96.37s14.18,70.62,39.91,96.36c24.86,24.85,57.62,38.92,92.62,39.86,1.25.04,2.49.05,3.74.05s2.5-.02,3.74-.05c35-.94,67.76-15.01,92.62-39.86,25.74-25.74,39.91-59.96,39.91-96.36s-14.18-70.62-39.91-96.37ZM923.95,1554.18c-71.02,0-128.8-57.78-128.8-128.79s57.77-128.8,128.8-128.8,128.8,57.78,128.8,128.8-57.79,128.79-128.8,128.79Z"/>
                  <g class="cls-8">
                    <path class="cls-3" d="M908.47,1262.72l1.03,11.07c4.76-.44,9.62-.67,14.44-.67,40.67,0,78.91,15.84,107.67,44.6l7.86-7.86c-30.86-30.86-71.89-47.85-115.53-47.85-5.16,0-10.36.24-15.47.72Z"/>
                    <path class="cls-3" d="M816.27,1317.71c5.4-5.4,11.22-10.42,17.3-14.93l-6.62-8.93c-6.52,4.83-12.76,10.21-18.55,16-30.86,30.86-47.85,71.89-47.85,115.53,0,23.01,4.65,45.21,13.82,65.98l10.17-4.49c-8.54-19.35-12.87-40.03-12.87-61.49,0-40.67,15.84-78.91,44.6-107.67Z"/>
                    <path class="cls-3" d="M1040.44,1523.44l8.49,7.17c9.55-11.31,17.5-23.81,23.62-37.15l-10.1-4.64c-5.7,12.43-13.11,24.08-22.01,34.62Z"/>
                    <path class="cls-3" d="M923.94,1577.65c-31.79,0-62.18-9.63-87.86-27.85l-6.43,9.07c27.57,19.56,60.18,29.9,94.29,29.9,40.69,0,79.64-15.02,109.67-42.28l-7.47-8.23c-27.99,25.41-64.28,39.4-102.2,39.4Z"/>
                    <path class="cls-3" d="M794.11,1505.05l-9.46,5.83c6.67,10.83,14.67,20.93,23.76,30.02,1.36,1.36,2.75,2.71,4.15,4.01l7.58-8.13c-1.3-1.22-2.61-2.48-3.87-3.74-8.48-8.48-15.94-17.9-22.16-28Z"/>
                    <path class="cls-3" d="M1060.07,1334.95l-9.25,6.17c16.61,24.89,25.39,54.03,25.39,84.27,0,15.06-2.17,29.91-6.46,44.13l10.64,3.21c4.6-15.26,6.93-31.19,6.93-47.34,0-32.44-9.42-63.72-27.26-90.44Z"/>
                  </g>
                </g>
              </g>
              <g>
                <path class="cls-4" d="M1979.44,327.26l2.51-10.83c14.38,3.34,28.22,8.62,41.14,15.71l-5.34,9.75c-12.03-6.6-24.92-11.52-38.31-14.63Z"/>
                <g>
                  <path class="cls-4" d="M1808.43,475.57c0,36.4,14.18,70.62,39.91,96.37,24.86,24.85,57.63,38.92,92.62,39.85,1.24.04,2.49.06,3.74.06s2.49-.02,3.74-.06c35-.93,67.76-15,92.62-39.85,25.73-25.74,39.91-59.96,39.91-96.37s-14.18-70.62-39.91-96.36c-25.74-25.74-59.96-39.91-96.37-39.91s-70.62,14.18-96.36,39.91c-25.74,25.74-39.91,59.96-39.91,96.36ZM1815.91,475.57c0-71.02,57.79-128.79,128.8-128.79s128.8,57.78,128.8,128.79-57.78,128.8-128.8,128.8-128.8-57.78-128.8-128.8Z"/>
                  <path class="cls-4" d="M1808.43,475.57c0,36.4,14.18,70.62,39.91,96.37,24.86,24.85,57.63,38.92,92.62,39.85,1.24.04,2.49.06,3.74.06s2.49-.02,3.74-.06c35-.93,67.76-15,92.62-39.85,25.73-25.74,39.91-59.96,39.91-96.37s-14.18-70.62-39.91-96.36c-25.74-25.74-59.96-39.91-96.37-39.91s-70.62,14.18-96.36,39.91c-25.74,25.74-39.91,59.96-39.91,96.36ZM1815.91,475.57c0-71.02,57.79-128.79,128.8-128.79s128.8,57.78,128.8,128.79-57.78,128.8-128.8,128.8-128.8-57.78-128.8-128.8Z"/>
                  <g class="cls-8">
                    <path class="cls-3" d="M1960.18,312.91l-1.03,11.07c-4.76-.44-9.62-.67-14.44-.67-40.67,0-78.91,15.84-107.67,44.6l-7.86-7.86c30.86-30.86,71.89-47.85,115.53-47.85,5.16,0,10.36.24,15.47.72Z"/>
                    <path class="cls-3" d="M2052.38,367.9c-5.4-5.4-11.22-10.42-17.3-14.93l6.62-8.93c6.52,4.83,12.76,10.21,18.55,16,30.86,30.86,47.85,71.89,47.85,115.53,0,23.01-4.65,45.21-13.82,65.98l-10.17-4.49c8.54-19.35,12.87-40.03,12.87-61.49,0-40.67-15.84-78.91-44.6-107.67Z"/>
                    <path class="cls-3" d="M1828.21,573.63l-8.49,7.17c-9.55-11.31-17.5-23.81-23.62-37.15l10.1-4.64c5.7,12.43,13.11,24.08,22.01,34.62Z"/>
                    <path class="cls-3" d="M1944.71,627.84c31.79,0,62.18-9.63,87.86-27.85l6.43,9.07c-27.57,19.56-60.18,29.9-94.29,29.9-40.69,0-79.64-15.02-109.67-42.28l7.47-8.23c27.99,25.41,64.28,39.4,102.2,39.4Z"/>
                    <path class="cls-3" d="M2074.54,555.24l9.46,5.83c-6.67,10.83-14.67,20.93-23.76,30.02-1.36,1.36-2.75,2.71-4.15,4.01l-7.58-8.13c1.3-1.22,2.61-2.48,3.87-3.74,8.48-8.48,15.94-17.9,22.16-28Z"/>
                    <path class="cls-3" d="M1808.58,385.14l9.25,6.17c-16.61,24.89-25.39,54.03-25.39,84.27,0,15.06,2.17,29.91,6.46,44.13l-10.64,3.21c-4.6-15.26-6.93-31.19-6.93-47.34,0-32.44,9.42-63.72,27.26-90.44Z"/>
                  </g>
                </g>
              </g>
              <g>
                <path class="cls-4" d="M2331.73,743.21l2.51-10.83c14.38,3.34,28.22,8.62,41.14,15.71l-5.34,9.75c-12.03-6.6-24.92-11.52-38.31-14.63Z"/>
                <g>
                  <path class="cls-4" d="M2160.71,891.53c0,36.4,14.18,70.62,39.91,96.36,24.86,24.85,57.63,38.92,92.62,39.86,1.24.04,2.49.05,3.74.05s2.49-.02,3.74-.05c35-.94,67.76-15.01,92.62-39.86,25.74-25.74,39.92-59.96,39.92-96.36s-14.18-70.62-39.92-96.37c-25.74-25.74-59.96-39.91-96.36-39.91s-70.62,14.18-96.37,39.91c-25.73,25.74-39.91,59.96-39.91,96.37ZM2168.2,891.53c0-71.02,57.78-128.8,128.8-128.8s128.8,57.78,128.8,128.8-57.78,128.79-128.8,128.79-128.8-57.78-128.8-128.79Z"/>
                  <path class="cls-4" d="M2160.71,891.53c0,36.4,14.18,70.62,39.91,96.36,24.86,24.85,57.63,38.92,92.62,39.86,1.24.04,2.49.05,3.74.05s2.49-.02,3.74-.05c35-.94,67.76-15.01,92.62-39.86,25.74-25.74,39.92-59.96,39.92-96.36s-14.18-70.62-39.92-96.37c-25.74-25.74-59.96-39.91-96.36-39.91s-70.62,14.18-96.37,39.91c-25.73,25.74-39.91,59.96-39.91,96.37ZM2168.2,891.53c0-71.02,57.78-128.8,128.8-128.8s128.8,57.78,128.8,128.8-57.78,128.79-128.8,128.79-128.8-57.78-128.8-128.79Z"/>
                  <g class="cls-8">
                    <path class="cls-3" d="M2312.47,728.86l-1.03,11.07c-4.76-.44-9.62-.67-14.44-.67-40.67,0-78.91,15.84-107.67,44.6l-7.86-7.86c30.86-30.86,71.89-47.85,115.53-47.85,5.16,0,10.36.24,15.47.72Z"/>
                    <path class="cls-3" d="M2404.66,783.85c-5.4-5.4-11.22-10.42-17.3-14.93l6.62-8.93c6.52,4.83,12.76,10.21,18.55,16,30.86,30.86,47.85,71.89,47.85,115.53,0,23.01-4.65,45.21-13.82,65.98l-10.17-4.49c8.54-19.35,12.87-40.03,12.87-61.49,0-40.67-15.84-78.91-44.6-107.67Z"/>
                    <path class="cls-3" d="M2180.5,989.59l-8.49,7.17c-9.55-11.31-17.5-23.81-23.62-37.15l10.1-4.64c5.7,12.43,13.11,24.08,22.01,34.62Z"/>
                    <path class="cls-3" d="M2296.99,1043.79c31.79,0,62.18-9.63,87.86-27.85l6.43,9.07c-27.57,19.56-60.18,29.9-94.29,29.9-40.69,0-79.64-15.02-109.67-42.28l7.47-8.23c27.99,25.41,64.28,39.4,102.2,39.4Z"/>
                    <path class="cls-3" d="M2426.83,971.2l9.46,5.83c-6.67,10.83-14.67,20.93-23.76,30.02-1.36,1.36-2.75,2.71-4.15,4.01l-7.58-8.13c1.3-1.22,2.61-2.48,3.87-3.74,8.48-8.48,15.94-17.9,22.16-28Z"/>
                    <path class="cls-3" d="M2160.87,801.09l9.25,6.17c-16.61,24.89-25.39,54.03-25.39,84.27,0,15.06,2.17,29.91,6.46,44.13l-10.64,3.21c-4.6-15.26-6.93-31.19-6.93-47.34,0-32.44,9.42-63.72,27.26-90.44Z"/>
                  </g>
                </g>
              </g>
              <g>
                <path class="cls-4" d="M2220.52,1278.62l2.51-10.83c14.38,3.34,28.22,8.62,41.14,15.71l-5.34,9.75c-12.03-6.6-24.92-11.52-38.31-14.63Z"/>
                <g>
                  <path class="cls-4" d="M2049.51,1426.93c0,36.4,14.18,70.62,39.91,96.36,24.86,24.85,57.63,38.92,92.62,39.86,1.24.04,2.49.05,3.74.05s2.49-.02,3.74-.05c35-.94,67.76-15.01,92.62-39.86,25.74-25.74,39.91-59.96,39.91-96.36s-14.18-70.62-39.91-96.37c-25.74-25.74-59.96-39.91-96.37-39.91s-70.62,14.18-96.36,39.91c-25.74,25.74-39.91,59.96-39.91,96.37ZM2056.98,1426.93c0-71.02,57.79-128.8,128.8-128.8s128.8,57.78,128.8,128.8-57.78,128.79-128.8,128.79-128.8-57.78-128.8-128.79Z"/>
                  <path class="cls-4" d="M2049.51,1426.93c0,36.4,14.18,70.62,39.91,96.36,24.86,24.85,57.63,38.92,92.62,39.86,1.24.04,2.49.05,3.74.05s2.49-.02,3.74-.05c35-.94,67.76-15.01,92.62-39.86,25.74-25.74,39.91-59.96,39.91-96.36s-14.18-70.62-39.91-96.37c-25.74-25.74-59.96-39.91-96.37-39.91s-70.62,14.18-96.36,39.91c-25.74,25.74-39.91,59.96-39.91,96.37ZM2056.98,1426.93c0-71.02,57.79-128.8,128.8-128.8s128.8,57.78,128.8,128.8-57.78,128.79-128.8,128.79-128.8-57.78-128.8-128.79Z"/>
                  <g class="cls-8">
                    <path class="cls-3" d="M2201.26,1264.27l-1.03,11.07c-4.76-.44-9.62-.67-14.44-.67-40.67,0-78.91,15.84-107.67,44.6l-7.86-7.86c30.86-30.86,71.89-47.85,115.53-47.85,5.16,0,10.36.24,15.47.72Z"/>
                    <path class="cls-3" d="M2293.45,1319.26c-5.4-5.4-11.22-10.42-17.3-14.93l6.62-8.93c6.52,4.83,12.76,10.21,18.55,16,30.86,30.86,47.85,71.89,47.85,115.53,0,23.01-4.65,45.21-13.82,65.98l-10.17-4.49c8.54-19.35,12.87-40.03,12.87-61.49,0-40.67-15.84-78.91-44.6-107.67Z"/>
                    <path class="cls-3" d="M2069.29,1524.99l-8.49,7.17c-9.55-11.31-17.5-23.81-23.62-37.15l10.1-4.64c5.7,12.43,13.11,24.08,22.01,34.62Z"/>
                    <path class="cls-3" d="M2185.78,1579.2c31.79,0,62.18-9.63,87.86-27.85l6.43,9.07c-27.57,19.56-60.18,29.9-94.29,29.9-40.69,0-79.64-15.02-109.67-42.28l7.47-8.23c27.99,25.41,64.28,39.4,102.2,39.4Z"/>
                    <path class="cls-3" d="M2315.62,1506.6l9.46,5.83c-6.67,10.83-14.67,20.93-23.76,30.02-1.36,1.36-2.75,2.71-4.15,4.01l-7.58-8.13c1.3-1.22,2.61-2.48,3.87-3.74,8.48-8.48,15.94-17.9,22.16-28Z"/>
                    <path class="cls-3" d="M2049.66,1336.5l9.25,6.17c-16.61,24.89-25.39,54.03-25.39,84.27,0,15.06,2.17,29.91,6.46,44.13l-10.64,3.21c-4.6-15.26-6.93-31.19-6.93-47.34,0-32.44,9.42-63.72,27.26-90.44Z"/>
                  </g>
                </g>
              </g>
              <g>
                <g>
                  <g class="cls-8">
                    <g>
                      <path class="cls-3" d="M1535.51,662.93h-5.98v-26.47h5.98v26.47ZM1535.51,610h-5.98v-26.47h5.98v26.47ZM1535.51,557.06h-5.98v-26.47h5.98v26.47ZM1535.51,504.13h-5.98v-26.47h5.98v26.47Z"/>
                      <polygon class="cls-3" points="1535.51 451.2 1529.53 451.2 1529.53 439.24 1517.56 439.24 1517.56 433.26 1535.51 433.26 1535.51 451.2"/>
                      <g>
                        <rect class="cls-3" x="941.45" y="433.26" width="28.81" height="5.98"/>
                        <rect class="cls-3" x="826.23" y="433.26" width="28.81" height="5.98"/>
                        <rect class="cls-3" x="883.84" y="433.26" width="28.81" height="5.98"/>
                        <rect class="cls-3" x="1344.73" y="433.26" width="28.81" height="5.98"/>
                        <rect class="cls-3" x="1459.95" y="433.26" width="28.81" height="5.98"/>
                        <rect class="cls-3" x="1287.12" y="433.26" width="28.81" height="5.98"/>
                        <rect class="cls-3" x="1402.34" y="433.26" width="28.81" height="5.98"/>
                      </g>
                      <polygon class="cls-3" points="785.46 451.2 779.48 451.2 779.48 433.26 797.43 433.26 797.43 439.24 785.46 439.24 785.46 451.2"/>
                      <g>
                        <rect class="cls-3" x="779.48" y="540.15" width="5.98" height="29.65"/>
                        <rect class="cls-3" x="779.48" y="480.85" width="5.98" height="29.65"/>
                        <rect class="cls-3" x="779.48" y="599.45" width="5.98" height="29.65"/>
                        <rect class="cls-3" x="779.48" y="658.75" width="5.98" height="29.65"/>
                        <rect class="cls-3" x="779.48" y="718.05" width="5.98" height="29.65"/>
                      </g>
                      <g>
                        <rect class="cls-3" x="469.75" y="907.91" width="29.78" height="5.98"/>
                        <rect class="cls-3" x="410.2" y="907.91" width="29.78" height="5.98"/>
                        <rect class="cls-3" x="529.3" y="907.91" width="29.78" height="5.98"/>
                        <rect class="cls-3" x="588.86" y="907.91" width="29.78" height="5.98"/>
                      </g>
                      <rect class="cls-3" x="365.47" y="907.91" width="14.95" height="5.98"/>
                    </g>
                  </g>
                  <g class="cls-8">
                    <rect class="cls-3" x="508.1" y="1219.13" width="5.98" height="29.91"/>
                    <rect class="cls-3" x="508.1" y="1278.95" width="5.98" height="29.91"/>
                    <rect class="cls-3" x="508.1" y="1338.76" width="5.98" height="29.91"/>
                    <rect class="cls-3" x="508.1" y="1159.32" width="5.98" height="29.91"/>
                    <rect class="cls-3" x="508.1" y="920.06" width="5.98" height="29.91"/>
                    <polygon class="cls-3" points="514.08 1398.58 508.1 1398.58 508.1 1427.61 514.95 1427.61 514.95 1421.63 514.08 1421.63 514.08 1398.58"/>
                    <rect class="cls-3" x="508.1" y="1099.5" width="5.98" height="29.91"/>
                    <rect class="cls-3" x="508.1" y="1039.69" width="5.98" height="29.91"/>
                    <rect class="cls-3" x="508.1" y="979.87" width="5.98" height="29.91"/>
                    <rect class="cls-3" x="1143.01" y="1421.63" width="29.91" height="5.98"/>
                    <rect class="cls-3" x="544.86" y="1421.63" width="29.91" height="5.98"/>
                    <rect class="cls-3" x="1262.64" y="1421.63" width="29.91" height="5.98"/>
                    <rect class="cls-3" x="1083.19" y="1421.63" width="29.91" height="5.98"/>
                    <rect class="cls-3" x="1202.82" y="1421.63" width="29.91" height="5.98"/>
                    <rect class="cls-3" x="664.49" y="1421.63" width="29.91" height="5.98"/>
                    <rect class="cls-3" x="604.68" y="1421.63" width="29.91" height="5.98"/>
                    <rect class="cls-3" x="724.31" y="1421.63" width="29.91" height="5.98"/>
                    <rect class="cls-3" x="1023.38" y="1421.63" width="29.91" height="5.98"/>
                  </g>
                  <g class="cls-8">
                    <path class="cls-3" d="M808.12,1716.58v-5.98s19.44,0,19.44,0v5.98s-19.44,0-19.44,0ZM857.48,1716.57v-5.98s29.91,0,29.91,0v5.98s-29.91,0-29.91,0ZM917.29,1716.56v-5.98s29.91,0,29.91,0v5.98s-29.91,0-29.91,0ZM977.11,1716.55v-5.98h29.91s0,5.98,0,5.98h-29.91ZM1036.93,1716.55v-5.98s29.91,0,29.91,0v5.98h-29.91ZM1126.65,1716.55h-29.91v-5.98h29.91v5.98ZM1147.31,1701.33h-5.98v-29.91h5.98v29.91ZM1147.31,1641.52h-5.98v-29.91h5.98v29.91ZM1141.33,1581.7v-29.91h5.98v29.9s-5.98,0-5.98,0ZM1147.31,1521.89h-5.98v-29.85s5.98-.06,5.98-.06v29.91ZM1147.32,1462.07h-5.98s0-29.91,0-29.91h5.98s0,29.91,0,29.91Z"/>
                  </g>
                  <g class="cls-8">
                    <path class="cls-3" d="M782.47,439.24h-29.91v-5.98h29.91v5.98ZM722.66,439.24h-29.91v-5.98h29.91v5.98ZM662.84,439.24h-29.91v-5.98h29.91v5.98ZM603.03,439.24h-29.91v-5.98h29.91v5.98ZM543.21,439.24h-29.91v-5.98h29.91v5.98ZM494.56,428.08h-5.98v-29.91h5.98v29.91ZM494.56,368.26h-5.98v-29.91h5.98v29.91ZM494.56,308.45h-5.98v-29.91h5.98v29.91Z"/>
                  </g>
                </g>
                <g>
                  <g class="cls-8">
                    <g>
                      <rect class="cls-3" x="1528.75" y="433.26" width="14.95" height="5.98"/>
                      <g>
                        <rect class="cls-3" x="1687.73" y="433.26" width="28.81" height="5.98"/>
                        <rect class="cls-3" x="1630.12" y="433.26" width="28.81" height="5.98"/>
                        <rect class="cls-3" x="1745.34" y="433.26" width="28.81" height="5.98"/>
                        <rect class="cls-3" x="1572.51" y="433.26" width="28.81" height="5.98"/>
                        <rect class="cls-3" x="2148.62" y="433.26" width="28.81" height="5.98"/>
                        <rect class="cls-3" x="2206.23" y="433.26" width="28.81" height="5.98"/>
                        <rect class="cls-3" x="2091.01" y="433.26" width="28.81" height="5.98"/>
                      </g>
                      <polygon class="cls-3" points="2281.79 451.2 2275.8 451.2 2275.8 439.24 2263.84 439.24 2263.84 433.26 2281.79 433.26 2281.79 451.2"/>
                      <g>
                        <rect class="cls-3" x="2275.8" y="480.85" width="5.98" height="29.65"/>
                        <rect class="cls-3" x="2275.8" y="540.15" width="5.98" height="29.65"/>
                        <rect class="cls-3" x="2275.8" y="718.05" width="5.98" height="29.65"/>
                        <rect class="cls-3" x="2275.8" y="599.45" width="5.98" height="29.65"/>
                        <rect class="cls-3" x="2275.8" y="658.75" width="5.98" height="29.65"/>
                      </g>
                      <g>
                        <rect class="cls-3" x="2502.19" y="907.91" width="29.78" height="5.98"/>
                        <rect class="cls-3" x="2442.63" y="907.91" width="29.78" height="5.98"/>
                        <rect class="cls-3" x="2561.74" y="907.91" width="29.78" height="5.98"/>
                        <rect class="cls-3" x="2621.29" y="907.91" width="29.78" height="5.98"/>
                      </g>
                      <rect class="cls-3" x="2680.85" y="907.91" width="14.95" height="5.98"/>
                    </g>
                  </g>
                  <g class="cls-8">
                    <rect class="cls-3" x="2366.87" y="1421.63" width="29.91" height="5.98"/>
                    <polygon class="cls-3" points="2314.29 1427.61 2336.96 1427.61 2336.96 1421.63 2313.49 1421.63 2314.29 1427.61"/>
                    <rect class="cls-3" x="2426.68" y="1421.63" width="29.91" height="5.98"/>
                    <rect class="cls-3" x="2007.98" y="1421.63" width="29.91" height="5.98"/>
                    <rect class="cls-3" x="1888.35" y="1421.63" width="29.91" height="5.98"/>
                    <rect class="cls-3" x="1828.53" y="1421.63" width="29.91" height="5.98"/>
                    <rect class="cls-3" x="2486.5" y="1421.63" width="29.91" height="5.98"/>
                    <rect class="cls-3" x="1948.16" y="1421.63" width="29.91" height="5.98"/>
                    <rect class="cls-3" x="1768.72" y="1421.63" width="29.91" height="5.98"/>
                    <rect class="cls-3" x="2547.19" y="1039.69" width="5.98" height="29.91"/>
                    <polygon class="cls-3" points="2547.19 1421.63 2546.31 1421.63 2546.31 1427.61 2553.17 1427.61 2553.17 1398.58 2547.19 1398.58 2547.19 1421.63"/>
                    <rect class="cls-3" x="2547.19" y="1099.5" width="5.98" height="29.91"/>
                    <rect class="cls-3" x="2547.19" y="920.06" width="5.98" height="29.91"/>
                    <rect class="cls-3" x="2547.19" y="979.87" width="5.98" height="29.91"/>
                    <rect class="cls-3" x="2547.19" y="1159.32" width="5.98" height="29.91"/>
                    <rect class="cls-3" x="2547.19" y="1338.76" width="5.98" height="29.91"/>
                    <rect class="cls-3" x="2547.19" y="1278.95" width="5.98" height="29.91"/>
                    <rect class="cls-3" x="2547.19" y="1219.13" width="5.98" height="29.91"/>
                  </g>
                  <g class="cls-8">
                    <path class="cls-3" d="M2253.14,1716.58h-19.44s0-5.99,0-5.99h19.44s0,5.99,0,5.99ZM2203.79,1716.57h-29.91s0-5.99,0-5.99h29.91s0,5.99,0,5.99ZM2143.97,1716.56h-29.91v-5.98h29.91s0,5.98,0,5.98ZM2084.16,1716.55h-29.91v-5.98h29.91v5.98ZM2024.34,1716.55h-29.91v-5.98h29.91v5.98ZM1964.53,1716.55h-29.91v-5.98h29.91v5.98ZM1919.94,1701.33h-5.98v-29.91h5.98v29.91ZM1913.96,1641.52v-29.91s5.98,0,5.98,0v29.91s-5.98,0-5.98,0ZM1919.94,1581.7h-5.98v-29.9s5.98,0,5.98,0v29.91ZM1913.95,1521.89v-29.91s5.98,0,5.98,0v29.91s-5.98,0-5.98,0ZM1913.95,1462.07v-29.91s5.98,0,5.98,0v29.91s-5.98,0-5.98,0Z"/>
                  </g>
                  <g class="cls-8">
                    <path class="cls-3" d="M2547.96,439.24h-29.91v-5.98h29.91v5.98ZM2488.15,439.24h-29.91v-5.98h29.91v5.98ZM2428.33,439.24h-29.91v-5.98h29.91v5.98ZM2368.52,439.24h-29.91v-5.98h29.91v5.98ZM2308.7,439.24h-29.91v-5.98h29.91v5.98ZM2572.69,428.08h-5.98v-29.91h5.98v29.91ZM2572.69,368.26h-5.98v-29.91h5.98v29.91ZM2572.69,308.45h-5.98v-29.91h5.98v29.91Z"/>
                  </g>
                </g>
              </g>
            </g>
            <g>
              <path class="cls-1" d="M2176.23,1462.92c0,2.24-1.81,4.05-4.05,4.05s-4.05-1.81-4.05-4.05,1.81-4.05,4.05-4.05,4.05,1.82,4.05,4.05Z"/>
              <path class="cls-1" d="M2190.63,1450.8c0,3.5-2.84,6.33-6.33,6.33s-6.33-2.84-6.33-6.33,2.83-6.33,6.33-6.33,6.33,2.83,6.33,6.33Z"/>
              <path class="cls-1" d="M2197.48,1460.81c0,1.74-1.42,3.17-3.17,3.17s-3.17-1.42-3.17-3.17,1.42-3.17,3.17-3.17,3.17,1.42,3.17,3.17Z"/>
              <path class="cls-1" d="M2215.65,1460.18c0,3.06-2.48,5.54-5.54,5.54s-5.54-2.48-5.54-5.54,2.48-5.54,5.54-5.54,5.54,2.48,5.54,5.54Z"/>
              <path class="cls-1" d="M2248.16,1485.25l-45.58-78.97c-.06-.09-.11-.17-.17-.26v-66c3.07,0,5.54-2.48,5.54-5.54s-2.48-5.54-5.54-5.54h-33.25c-3.06,0-5.54,2.48-5.54,5.54,0,2.79,2.06,5.09,4.75,5.48v67.42l-44.96,77.88c-7.47,12.92,1.86,29.07,16.78,29.07h91.19c14.92,0,24.25-16.15,16.78-29.07ZM2242.52,1501.59c-2.68,4.64-7.49,7.42-12.86,7.42h-87.76c-5.36,0-10.17-2.77-12.86-7.42-2.68-4.65-2.68-10.2,0-14.85l27.06-46.86h59.36l27.06,46.86c2.68,4.65,2.68,10.2,0,14.85Z"/>
              <path class="cls-1" d="M2176.23,1462.92c0,2.24-1.81,4.05-4.05,4.05s-4.05-1.81-4.05-4.05,1.81-4.05,4.05-4.05,4.05,1.82,4.05,4.05Z"/>
              <path class="cls-1" d="M2190.63,1450.8c0,3.5-2.84,6.33-6.33,6.33s-6.33-2.84-6.33-6.33,2.83-6.33,6.33-6.33,6.33,2.83,6.33,6.33Z"/>
              <path class="cls-1" d="M2197.48,1460.81c0,1.74-1.42,3.17-3.17,3.17s-3.17-1.42-3.17-3.17,1.42-3.17,3.17-3.17,3.17,1.42,3.17,3.17Z"/>
              <path class="cls-1" d="M2215.65,1460.18c0,3.06-2.48,5.54-5.54,5.54s-5.54-2.48-5.54-5.54,2.48-5.54,5.54-5.54,5.54,2.48,5.54,5.54Z"/>
              <path class="cls-1" d="M2176.23,1462.92c0,2.24-1.81,4.05-4.05,4.05s-4.05-1.81-4.05-4.05,1.81-4.05,4.05-4.05,4.05,1.82,4.05,4.05Z"/>
              <path class="cls-1" d="M2215.65,1460.18c0,3.06-2.48,5.54-5.54,5.54s-5.54-2.48-5.54-5.54,2.48-5.54,5.54-5.54,5.54,2.48,5.54,5.54Z"/>
              <path class="cls-1" d="M2197.48,1460.81c0,1.74-1.42,3.17-3.17,3.17s-3.17-1.42-3.17-3.17,1.42-3.17,3.17-3.17,3.17,1.42,3.17,3.17Z"/>
              <path class="cls-1" d="M2190.63,1450.8c0,3.5-2.84,6.33-6.33,6.33s-6.33-2.84-6.33-6.33,2.83-6.33,6.33-6.33,6.33,2.83,6.33,6.33Z"/>
            </g>
            <g>
              <path class="cls-1" d="M730.21,840.66c-.44-.05-.88-.09-1.32-.13-.19-.02-.38-.04-.56-.05.19.01.38.03.56.05.44.04.88.09,1.32.13Z"/>
              <path class="cls-1" d="M702.37,929.82c.64.63,1.37,1.22,2.18,1.76-.82-.54-1.55-1.13-2.18-1.76Z"/>
              <path class="cls-1" d="M737.45,934.9h0c-.28-.91-.55-1.83-.8-2.77.26.93.53,1.85.81,2.77Z"/>
              <path class="cls-1" d="M772.26,906.34c.5.12,1.02.2,1.53.25-.52-.06-1.03-.14-1.53-.25ZM772.26,874.81c.5-.11,1.02-.19,1.53-.25-.52.05-1.03.13-1.53.25Z"/>
              <path class="cls-1" d="M718.19,889.12c.99.91,2.01,1.82,3.06,2.73-1.06-.91-2.08-1.82-3.07-2.72h0Z"/>
              <path class="cls-1" d="M721.25,891.84c1.06.91,2.14,1.81,3.26,2.73-1.12-.91-2.2-1.82-3.26-2.73Z"/>
              <path class="cls-1" d="M727.58,897.01c1.06.81,2.13,1.62,3.23,2.43-1.1-.8-2.18-1.61-3.23-2.43Z"/>
              <path class="cls-1" d="M731.59,900.02h0c-.03-.67-.06-1.33-.08-2,.03.66.05,1.33.09,2h0Z"/>
              <path class="cls-1" d="M839,889.26c1.48-1.53,2.89-3.06,4.22-4.59,12.47-14.5,16.63-27.77,11.68-37.38-4.95-9.61-18.16-13.95-37.21-12.21-3.49.32-7.11.83-10.83,1.53-.42-.94-.86-1.87-1.31-2.77-8.08-16.26-19.08-25.22-30.97-25.27h-.09c-11.94,0-22.97,8.97-31.07,25.27-.37.72-.7,1.47-1.05,2.21-4.45-.9-8.77-1.57-12.9-1.94l-1.39-.12h0c.07.43.11.86.11,1.29,0,.47-.03.93-.11,1.38-.07.49-.19.97-.34,1.43-.05.15-.1.31-.16.45,0,.03-.02.06-.03.09-.07.17-.14.35-.22.52-.18.39-.39.77-.62,1.13-.02.02-.03.05-.05.07h0c.37.03.73.05,1.1.08.19.02.37.03.56.05.19.01.37.03.56.05.44.04.88.08,1.32.13,1.77.19,3.58.42,5.42.72.92.15,1.85.31,2.77.47.47.09.94.17,1.41.27-3.07,8.07-5.36,17.1-6.76,26.72-7.26,5.06-13.83,10.4-19.49,15.85-13.98-14.23-19.63-27.51-15.57-35.41.27-.52.57-1.01.92-1.48.17-.24.36-.47.55-.7.2-.23.4-.45.62-.66.42-.43.89-.84,1.4-1.23.13-.1.25-.19.38-.29.26-.19.53-.38.81-.55.56-.36,1.16-.69,1.8-1,.32-.16.64-.31.98-.45.17-.07.33-.14.5-.21.35-.14.7-.27,1.06-.4.36-.13.73-.25,1.11-.37.38-.12.76-.23,1.16-.33.39-.11.8-.21,1.21-.3.41-.09.84-.19,1.26-.27-.13-.17-.27-.35-.39-.53-.09-.14-.19-.28-.27-.42-.17-.29-.33-.58-.48-.88-.07-.15-.13-.3-.2-.46-.06-.13-.11-.27-.15-.41-.05-.13-.09-.27-.14-.4-.04-.14-.08-.29-.11-.43-.03-.11-.06-.23-.08-.35-.07-.31-.12-.63-.15-.96-.02-.15-.03-.3-.03-.45,0-.15-.01-.31-.01-.46s.01-.29.02-.43c-8.5,1.78-14.52,5.66-17.5,11.46-4.95,9.61-.8,22.89,11.68,37.39,1.59,1.85,3.31,3.7,5.12,5.54-1,1.08-1.99,2.15-2.91,3.23-12.49,14.5-16.64,27.77-11.69,37.38,2.62,5.1,7.57,8.72,14.5,10.72-1.51-1.64-2.44-3.82-2.44-6.23,0-.28.01-.55.05-.82,0-.12.02-.25.04-.37.01-.12.03-.24.05-.37-.75-.37-1.45-.77-2.1-1.2-.81-.54-1.54-1.13-2.18-1.76-.64-.63-1.19-1.31-1.66-2.03-.19-.29-.36-.58-.52-.89-.11-.21-.21-.42-.3-.64-.19-.44-.35-.88-.48-1.35-.62-2.16-.66-4.63-.13-7.34.15-.75.34-1.53.58-2.32.15-.53.33-1.06.53-1.61.29-.82.63-1.65,1.01-2.49.25-.56.52-1.14.82-1.71.15-.29.3-.58.45-.87.31-.58.64-1.17.99-1.76.52-.89,1.09-1.8,1.69-2.72.4-.6.82-1.22,1.27-1.84,1.1-1.55,2.32-3.12,3.65-4.72.53-.64,1.08-1.27,1.65-1.92h0c.57-.65,1.15-1.29,1.76-1.94,5.48,5.03,11.7,9.94,18.53,14.61h0c.12,1.18.25,2.35.39,3.51.07.58.15,1.16.23,1.75.15,1.16.33,2.3.5,3.45.37,2.28.78,4.52,1.24,6.72.21,1,.43,1.99.66,2.97.18.78.37,1.55.57,2.32.2.79.4,1.57.62,2.34.06.26.13.52.21.77.25.94.52,1.86.8,2.77-2.83.44-5.55.74-8.14.91-1.55.11-3.05.17-4.51.18-.49,2.73-2.18,5.03-4.5,6.36,1.15.05,2.31.09,3.51.09,2.5,0,5.12-.12,7.87-.37,2.55-.23,5.18-.58,7.85-1.02,1.17,3.17,2.47,6.18,3.89,9.03,8.1,16.3,19.13,25.27,31.07,25.27h.09c9.17-.03,17.79-5.37,24.97-15.25-1.93-1.46-3.25-3.67-3.56-6.19-.78,1.21-1.59,2.36-2.41,3.44-.41.53-.82,1.04-1.23,1.53-.17.21-.34.41-.52.61-.11.13-.23.27-.35.4-.15.17-.29.33-.43.48-.2.22-.4.44-.6.64-.24.25-.48.48-.72.72-.41.42-.84.81-1.26,1.19-.23.19-.44.38-.67.57-.22.19-.44.37-.66.54-.23.17-.45.35-.68.52-.36.27-.73.53-1.1.77-.19.13-.37.25-.56.37-.19.12-.37.24-.56.35-.19.12-.38.23-.56.33-.42.25-.85.46-1.28.67-.18.08-.36.17-.54.25-.18.08-.36.15-.54.23-.36.15-.72.29-1.09.4-.21.07-.42.15-.62.21-.48.15-.96.27-1.44.37-.09.02-.18.04-.28.07-.12.03-.25.05-.37.07-.26.05-.52.09-.78.12-.04,0-.09.01-.13.02-.1.01-.21.02-.32.03h-.03s-.03,0-.05,0c-.3.04-.6.06-.9.07-.19,0-.37.01-.55.01-.06,0-.11,0-.17,0h-.09c-9.35,0-18.34-7.7-25.29-21.69-1.16-2.34-2.22-4.81-3.22-7.37.65-.13,1.29-.28,1.94-.43.44-.11.88-.21,1.31-.31.66-.16,1.31-.33,1.98-.49,1.15-.29,2.31-.6,3.48-.93.61-.17,1.23-.35,1.85-.52,1.16-.34,2.32-.69,3.5-1.06.6-.19,1.19-.38,1.79-.57.66-.21,1.31-.43,1.96-.64.46-.17.94-.32,1.41-.49.78-.27,1.57-.54,2.36-.83.56-.21,1.13-.42,1.7-.62.48-.18.97-.36,1.45-.54,1.29-.5,2.59-1.01,3.88-1.53.07-.03.13-.05.21-.08,9.78,3.83,19.38,6.7,28.43,8.5-.68,1.8-1.4,3.55-2.16,5.24,1.22-.6,2.6-.96,4.07-.96,1.1,0,2.15.21,3.12.56.5-1.21.98-2.46,1.44-3.72,1.96.29,3.9.53,5.8.7,2.75.25,5.36.37,7.87.37,14.82,0,25.12-4.36,29.35-12.58,4.95-9.61.79-22.89-11.68-37.39-.65-.75-1.32-1.5-2.01-2.24ZM731.77,881.02c-.06.9-.11,1.8-.16,2.71-.13,2.72-.21,5.46-.21,8.22,0,1.35.01,2.7.05,4.05.01.67.03,1.34.06,2.01.02.66.05,1.33.08,1.99h0c-.22-.16-.44-.32-.66-.48-.04-.03-.07-.06-.11-.09-1.1-.81-2.18-1.62-3.23-2.43-1.05-.81-2.08-1.62-3.07-2.44h0c-1.12-.92-2.2-1.82-3.26-2.73-1.05-.91-2.07-1.82-3.06-2.73.25-.25.5-.48.76-.72.51-.48,1.04-.97,1.57-1.45.43-.39.87-.79,1.31-1.18.11-.09.21-.19.31-.28.34-.3.69-.6,1.04-.91,1.61-1.4,3.31-2.81,5.08-4.2.92-.74,1.87-1.47,2.83-2.19.32-.25.64-.48.97-.73-.11,1.19-.2,2.38-.28,3.58ZM818.28,841.49c16.02-1.46,27.28,1.73,30.89,8.74,3.61,7.02-.34,18.03-10.84,30.22-1.19,1.39-2.48,2.77-3.81,4.16-5.39-5.29-11.63-10.49-18.56-15.45-1.36-9.51-3.58-18.45-6.57-26.45,3.04-.54,6.02-.96,8.9-1.21ZM816.96,877.93c4.75,3.66,9.09,7.41,12.96,11.21-3.8,3.54-8,7.06-12.54,10.45.11-2.53.18-5.08.18-7.64,0-4.75-.21-9.43-.6-14.03ZM808.6,864.15c-5.83-3.78-12.04-7.39-18.53-10.72-2.34-1.21-4.67-2.35-7.02-3.45,6.82-2.5,13.5-4.51,19.92-5.97,2.38,6.15,4.27,12.92,5.63,20.14ZM749.19,836.7c6.95-13.99,15.94-21.69,25.29-21.69h.09c.09,0,.17,0,.26,0,.04,0,.08,0,.12,0h.2c.09,0,.19,0,.29.01h.03c.21.01.41.03.61.05.02,0,.04,0,.05,0,.06,0,.12.01.18.02.55.06,1.1.15,1.65.26.17.03.34.07.5.11.11.03.21.05.3.07.11.03.21.05.31.08.15.04.31.08.45.13.08.03.16.05.23.07.07.02.15.05.23.07.13.04.27.09.4.13.09.03.16.07.24.09.25.09.49.19.73.29.08.03.17.07.24.09.04.02.08.04.12.05.05.03.09.05.14.07.07.03.16.07.23.1.16.07.32.15.48.23.01,0,.03.01.05.02.08.03.15.07.23.11,0,0,.01,0,.02.01,0,0,.02,0,.03.02.01,0,.03.01.04.02.08.03.16.07.24.12.56.29,1.12.61,1.66.96.28.17.55.36.82.54.35.24.7.48,1.04.75.22.17.44.34.65.51.22.17.44.36.66.54.03.02.05.05.07.07.23.19.46.39.68.6.04.03.07.07.11.11.02.01.03.03.05.05.21.19.42.4.64.6.03.04.07.07.11.11.27.27.54.54.8.82.21.22.42.44.62.68.03.02.04.04.06.06.05.06.11.12.16.19.23.23.44.47.65.72.51.59,1.01,1.21,1.51,1.86.25.32.5.66.74.99.99,1.34,1.94,2.79,2.87,4.34.2.33.38.65.58.98.08.14.17.29.25.42.17.3.34.61.52.92.23.43.47.88.7,1.33.23.42.44.86.66,1.29.21.42.4.86.6,1.28-8.24,1.96-16.88,4.76-25.62,8.3-.07-.03-.13-.05-.19-.08-.17-.07-.33-.13-.49-.2-.52-.23-1.04-.43-1.57-.64-.59-.24-1.18-.48-1.77-.71-.37-.14-.72-.29-1.08-.42-.49-.19-.99-.38-1.48-.56-.6-.23-1.2-.46-1.81-.68-1.05-.38-2.1-.76-3.14-1.12-.58-.2-1.16-.4-1.73-.59-.98-.33-1.96-.65-2.94-.96-.09-.03-.19-.06-.28-.09-1.06-.34-2.1-.66-3.15-.97-2.14-.62-4.25-1.2-6.35-1.73.13-.27.25-.55.38-.82ZM740.96,861.22h0c.19-.91.38-1.81.6-2.69.13-.56.27-1.12.4-1.67.01-.07.03-.13.05-.19.02-.07.03-.13.05-.2.08-.35.17-.69.27-1.04.05-.18.09-.36.14-.53.11-.43.23-.86.35-1.28.12-.41.23-.82.35-1.22.07-.25.15-.5.22-.75.03-.09.05-.17.08-.25.19-.63.38-1.25.58-1.87.13-.42.27-.83.4-1.23.14-.41.27-.82.42-1.21.09-.27.18-.52.28-.79.09-.27.19-.53.29-.8.02-.05.04-.11.06-.16.23-.61.46-1.22.7-1.83,6.53,1.59,13.32,3.74,20.21,6.38-1.61.74-3.22,1.49-4.83,2.28-.72.35-1.43.7-2.15,1.06-.78.39-1.55.78-2.32,1.18-.72.37-1.45.75-2.17,1.13-1.08.57-2.16,1.15-3.23,1.75-.8.44-1.59.88-2.38,1.33-.31.18-.62.35-.92.52-.31.17-.61.35-.92.53-.1.05-.19.11-.29.17-.23.14-.47.27-.7.41-.68.4-1.37.81-2.05,1.22-1.36.82-2.7,1.65-4.02,2.48.17-.92.36-1.83.55-2.73ZM763.29,928.27c-.49.17-.98.34-1.47.5-.97.33-1.94.64-2.89.96-.48.15-.96.31-1.43.45-.95.29-1.89.58-2.83.85-.7.21-1.39.4-2.09.59-.58.16-1.15.32-1.73.46-.25.07-.48.13-.72.19-.33.08-.65.17-.98.25-.26.07-.51.13-.76.19-.64.16-1.28.31-1.92.46-.88.21-1.76.4-2.63.58h0c-2.03-6.47-3.57-13.48-4.58-20.85.62.39,1.25.78,1.88,1.16,1.26.76,2.54,1.53,3.82,2.28.66.38,1.31.76,1.98,1.14.64.36,1.29.72,1.93,1.08.66.37,1.31.72,1.97,1.08.01,0,.02.01.03.02.66.36,1.32.71,1.99,1.06.67.36,1.34.71,2.02,1.06,3.78,1.94,7.57,3.75,11.36,5.43-.99.37-1.98.72-2.95,1.06ZM805.32,933.13c-7.02-1.35-14.4-3.38-21.98-6.04,2.98-1.37,5.96-2.81,8.93-4.33,6.1-3.14,11.94-6.52,17.46-10.05-.98,7.22-2.46,14.08-4.41,20.43ZM810.62,904.41c-6.58,4.47-13.74,8.72-21.3,12.6-4.95,2.55-9.8,4.81-14.54,6.82-.07-.03-.14-.06-.21-.09-5.56-2.26-11.16-4.83-16.73-7.7-7.06-3.64-13.55-7.45-19.47-11.35-.34-4.17-.52-8.42-.52-12.74,0-6.66.41-13.19,1.2-19.48,6.32-4.25,13.33-8.4,21-12.35,4.83-2.49,9.7-4.76,14.52-6.78.05-.02.09-.04.13-.07,4.13,1.8,8.28,3.76,12.41,5.88,8.14,4.2,15.83,8.81,22.83,13.67.76,6.17,1.15,12.59,1.15,19.13,0,4.21-.17,8.37-.49,12.45ZM846.96,925.94c-3.61,7.01-14.87,10.2-30.89,8.74-1.42-.13-2.87-.31-4.33-.5,2.43-8.09,4.13-16.93,5.03-26.19,6.49-4.55,12.41-9.33,17.62-14.19.58.64,1.17,1.28,1.73,1.93,10.5,12.19,14.44,23.2,10.84,30.22Z"/>
              <path class="cls-1" d="M791.76,890.58c0,8.9-7.22,16.12-16.12,16.12-.18,0-.36,0-.53-.01-.18,0-.36-.01-.53-.03-.03,0-.05,0-.07,0-.09,0-.17-.01-.24-.02-.02,0-.05,0-.07-.01,0,.01-.01.01-.02,0-.13-.01-.26-.03-.38-.04-.52-.05-1.03-.13-1.53-.25-.25-.05-.5-.11-.75-.17-.25-.06-.48-.13-.72-.21-.45-.14-.89-.3-1.31-.48-.15-.05-.29-.11-.42-.19-.13-.05-.27-.11-.4-.18-.24-.11-.47-.23-.7-.36-.66-.36-1.31-.76-1.91-1.22-.09-.07-.19-.15-.29-.22-.09-.06-.17-.13-.25-.2-.1-.08-.2-.16-.29-.25-.7-.59-1.35-1.24-1.93-1.94-.07-.07-.13-.15-.19-.23-.13-.15-.25-.31-.36-.46-.16-.21-.31-.42-.45-.64-.11-.15-.22-.32-.32-.49-.05-.07-.09-.14-.14-.21-.07-.13-.14-.25-.21-.38-.01,0-.02-.02-.02-.03-.07-.12-.14-.25-.21-.38-.19-.35-.36-.7-.51-1.06-.05-.1-.09-.19-.13-.29-.02-.04-.03-.08-.05-.12-.05-.13-.1-.26-.15-.39-.1-.27-.19-.54-.29-.82-.07-.23-.13-.46-.19-.69-.01-.05-.03-.1-.04-.15-.07-.23-.11-.45-.16-.68-.01-.07-.03-.13-.04-.21-.03-.17-.07-.34-.1-.51-.05-.31-.09-.62-.12-.94-.03-.23-.04-.45-.05-.68-.02-.33-.03-.66-.03-1,0-.25,0-.48.02-.72,0-.21.02-.42.04-.62,0-.07,0-.13.01-.19.01-.14.03-.27.04-.4.01-.12.03-.24.05-.36.02-.15.04-.29.07-.42.03-.13.05-.26.07-.38.02-.12.05-.25.08-.37.07-.38.17-.76.29-1.14.02-.07.05-.14.07-.22.14-.44.29-.86.46-1.28.05-.13.09-.24.15-.35.06-.16.13-.32.21-.48.08-.17.16-.32.24-.48.07-.13.13-.25.19-.37.07-.13.14-.25.21-.37.07-.11.13-.23.21-.34.25-.41.51-.79.8-1.17.15-.21.31-.41.47-.61,0-.01.02-.02.03-.03.16-.19.32-.37.48-.55.15-.17.31-.33.47-.5.04-.05.09-.09.14-.13.14-.15.3-.29.44-.43.01-.01.03-.03.05-.04.11-.1.22-.2.34-.29.02-.03.04-.05.07-.06.09-.09.19-.17.29-.25.08-.07.17-.15.25-.2.09-.07.19-.15.29-.22.6-.45,1.25-.86,1.91-1.22.23-.13.46-.25.7-.36.13-.07.27-.13.4-.18.14-.07.28-.13.42-.19.42-.19.86-.35,1.31-.48.24-.07.47-.14.72-.21.25-.07.5-.13.75-.17.5-.12,1.02-.2,1.53-.25.13-.01.26-.03.38-.04,0,0,.01,0,.02,0,.02,0,.05,0,.07,0,.07,0,.15-.01.24-.02.02,0,.05,0,.07,0,.17-.01.35-.03.53-.03.17-.01.35-.01.53-.01,8.9,0,16.12,7.22,16.12,16.13Z"/>
              <path class="cls-1" d="M724.96,934.34c0,.56-.06,1.12-.16,1.65-.49,2.73-2.18,5.03-4.5,6.36-1.34.77-2.89,1.21-4.56,1.21-2.68,0-5.09-1.15-6.77-2.99-1.51-1.64-2.44-3.82-2.44-6.23,0-.28.01-.55.05-.82.02-.25.05-.49.1-.74.74-4.34,4.51-7.65,9.07-7.65,5.09,0,9.22,4.13,9.22,9.21Z"/>
              <path class="cls-1" d="M728.18,835.28c0,.47-.03.93-.1,1.38-.07.49-.19.97-.34,1.43-.05.15-.1.31-.16.45,0,.03-.02.06-.03.09-.07.17-.14.35-.22.52-.18.39-.39.77-.62,1.13-.01.02-.03.05-.04.07h0c-1.65,2.5-4.48,4.14-7.69,4.14-2.91,0-5.5-1.35-7.2-3.47-.13-.17-.27-.35-.39-.53-.09-.14-.19-.28-.27-.42-.17-.29-.33-.58-.48-.88-.07-.15-.13-.3-.2-.46-.06-.13-.11-.27-.15-.41-.05-.13-.09-.27-.14-.4-.04-.14-.08-.29-.11-.43-.03-.11-.06-.23-.08-.35-.07-.31-.12-.63-.15-.96-.02-.15-.03-.3-.03-.45,0-.15-.01-.31-.01-.46s.01-.29.02-.43c.23-4.89,4.26-8.78,9.19-8.78,4.65,0,8.48,3.44,9.11,7.92h0c.06.42.1.86.1,1.29Z"/>
              <path class="cls-1" d="M814.34,952.77c0,5.09-4.12,9.22-9.22,9.22-2.1,0-4.02-.71-5.57-1.89-1.93-1.46-3.25-3.67-3.56-6.19-.05-.37-.08-.74-.08-1.13,0-3.62,2.1-6.75,5.15-8.26,1.23-.61,2.61-.96,4.07-.96,1.1,0,2.15.2,3.12.56,3.55,1.28,6.09,4.67,6.09,8.66Z"/>
            </g>
            <path class="cls-1" d="M1983.8,475.57c0-24.22-16.55-37.01-33.7-48.7,17.15-11.69,33.7-24.48,33.7-48.7h-6.05c0,7.89-2.03,14.41-5.43,20.07h-55.22c-3.4-5.66-5.43-12.18-5.43-20.07h-6.05c0,24.22,16.55,37.01,33.7,48.7-17.15,11.69-33.7,24.48-33.7,48.7s16.55,37.01,33.7,48.7c-17.15,11.69-33.7,24.48-33.7,48.7h6.05c0-8.91,2.6-16.07,6.82-22.22h52.44c4.22,6.15,6.82,13.31,6.82,22.22h6.05c0-24.22-16.55-37.01-33.7-48.7,17.15-11.69,33.7-24.48,33.7-48.7ZM1911.78,478.59h65.85c-.45,6.56-2.37,12.14-5.32,17.06h-55.21c-2.96-4.92-4.87-10.5-5.32-17.06ZM1977.64,472.55h-65.85c.45-6.56,2.37-12.14,5.32-17.06h55.21c2.96,4.92,4.87,10.5,5.32,17.06ZM1921.48,404.29h46.45c-6.13,7.19-14.5,13.03-23.23,18.93-8.73-5.91-17.09-11.74-23.23-18.93ZM1944.71,430.52c8.73,5.9,17.09,11.74,23.22,18.93h-46.44c6.13-7.18,14.49-13.02,23.22-18.93ZM1966,544.7h-42.59c5.9-6.23,13.45-11.48,21.3-16.78,7.84,5.31,15.4,10.56,21.3,16.78ZM1944.71,520.62c-8.73-5.9-17.09-11.74-23.22-18.93h46.44c-6.13,7.18-14.49,13.02-23.22,18.93Z"/>
            <rect class="cls-9" x="940.95" y="1253.49" width="22.42" height="2.36"/>
            <g>
              <path class="cls-1" d="M1128.44,562.19l-38.77-22.38v-44.76l38.77-22.38,38.77,22.38v44.76l-38.77,22.38ZM1095.66,536.35l32.79,18.93,32.79-18.93v-37.86l-32.79-18.93-32.79,18.93v37.86Z"/>
              <path class="cls-1" d="M1164.22,501.99l-38.77-22.38v-44.76l38.77-22.38,38.77,22.38v44.76l-38.77,22.38ZM1131.43,476.15l32.79,18.93,32.79-18.93v-37.86l-32.79-18.93-32.79,18.93v37.86Z"/>
              <path class="cls-1" d="M1092.67,500.48l-38.77-22.38v-44.76l38.77-22.38,38.77,22.38v44.76l-38.77,22.38ZM1059.88,474.64l32.79,18.93,32.79-18.93v-37.86l-32.79-18.93-32.79,18.93v37.86Z"/>
              <rect class="cls-1" x="1102.3" y="506.26" width="5.98" height="24.44"/>
              <rect class="cls-1" x="1089.69" y="389.96" width="5.98" height="24.44"/>
              <rect class="cls-1" x="1171.81" y="425.4" width="5.98" height="24.44" transform="translate(208.41 1236.21) rotate(-60)"/>
              <rect class="cls-1" x="1172.54" y="532.4" width="5.98" height="24.44" transform="translate(116.12 1290.35) rotate(-60)"/>
            </g>
            <g>
              <path class="cls-1" d="M2361.56,826.96c-21.5-21.5-56.36-21.5-77.86,0-19.54,19.54-21.32,50.09-5.37,71.64l-21.05,21.05-2.26-2.26c-1.55-1.55-4.07-1.55-5.62,0l-31.93,31.93c-1.55,1.55-1.55,4.07,0,5.62l16.11,16.11c1.55,1.55,4.07,1.55,5.62,0l31.93-31.93c1.55-1.55,1.55-4.07,0-5.62l-2.26-2.26,21.05-21.05c21.55,15.95,52.11,14.17,71.64-5.37,21.5-21.5,21.5-56.36,0-77.86ZM2353.68,896.94c-17.16,17.16-44.96,17.16-62.11,0-17.15-17.15-17.15-44.95,0-62.1,17.15-17.16,44.95-17.16,62.11,0,17.15,17.15,17.15,44.95,0,62.1Z"/>
              <path class="cls-1" d="M2319.66,874.4s0,0,0,0c1.41-2.34,2.86-4.97,4.31-7.93,9.19-18.76-16.96-37.38-16.96-37.38-17.86,27.91,1.56,37.62,5.75,43.46.85-4.11,1.44-9.21,1.06-14.94-.31-4.63-1.17-8.55-2.1-11.63,1.42,2.41,3.29,6.31,4.08,11.57,1.29,8.57-1.06,15.68-2.3,18.79,0,0,0,0-.01,0-1.27,5.73-10.54,12.95-10.54,12.95l2.61,1.79s3.99-2.54,9.34-9.62c0,0,0,0,0,0,13.42,7.38,25.13,9.06,31,4.55,6.01-4.62,8.9-5.12,8.9-5.12-17.81-17.89-30.41-10.62-35.14-6.51Z"/>
            </g>
            <g>
              <path class="cls-1" d="M972.17,1454.8h-76.82l-17.64,36.49h70.08c-2.3-9.71-4.59-19.43-6.89-29.14h31.27c.99,0,1.8-.8,1.8-1.8v-3.76c0-.99-.8-1.8-1.8-1.8Z"/>
              <path class="cls-1" d="M939.91,1334.83l-13.85,4.29,2.07,6.69h0s-5.6,1.74-5.6,1.74l5.2,16.76c6.62.13,11.94,5.52,11.94,12.17,0,4.08-2.01,7.69-5.09,9.9l6.56,21.17,25-7.75-18.6-60.01-5.55,1.72h0s-2.07-6.68-2.07-6.68Z"/>
              <rect class="cls-1" x="921.5" y="1328.86" width="19.95" height="5.87" transform="translate(-352.59 335.56) rotate(-17.22)"/>
              <rect class="cls-1" x="948.14" y="1406.53" width="15.26" height="11.09" transform="translate(-375.27 346.35) rotate(-17.22)"/>
              <path class="cls-1" d="M867.66,1495.51h95.44c2.73,0,4.94,2.21,4.94,4.94v6.16c0,.92-.75,1.67-1.67,1.67h-101.99c-.92,0-1.67-.75-1.67-1.67v-6.16c0-2.73,2.21-4.94,4.94-4.94Z"/>
              <path class="cls-1" d="M915.38,1454.8c-11.54-14.69-13.38-33.7-4.97-47.38,7.04-11.43,18.84-15.25,22.57-16.28-.34-1.11-.67-2.22-1-3.34-1.39.55-2.91.86-4.5.86-6.72,0-12.18-5.45-12.18-12.18,0-5.87,4.16-10.77,9.68-11.92-.37-1.21-.73-2.42-1.1-3.63-5.04,2.48-23.55,12.32-32.71,34.55-12.12,29.42,2.27,55.95,4.18,59.32h20.03Z"/>
              <path class="cls-1" d="M928.91,1368.13c-.46-.09-.94-.13-1.42-.13s-.96.04-1.42.13c-4,.67-7.05,4.16-7.05,8.35,0,4.68,3.8,8.48,8.48,8.48,1.22,0,2.38-.26,3.42-.73.93-.4,1.77-.97,2.48-1.67,1.59-1.54,2.57-3.69,2.57-6.08,0-4.2-3.05-7.68-7.05-8.35Z"/>
            </g>
            <g>
              <g>
                <path class="cls-1" d="M1649.94,1454.91c-9.53,6.27-19.39,12.76-28.87,19.38-22.24,15.51-39.53,38.78-51.38,69.15-9.36,23.98-15.37,52.45-17.87,84.6-3.37,43.47.54,81.32,2.42,95.82h-49.41c1.87-14.51,5.78-52.35,2.41-95.82-2.49-32.16-8.51-60.62-17.87-84.61-11.85-30.37-29.14-53.64-51.38-69.15-9.49-6.62-19.34-13.11-28.87-19.37-38.12-25.1-77.54-51.05-106.18-93.31-31.52-46.5-64.07-129.62-40.21-261.53,7.16-39.59,18.89-70.09,32.05-99.73-3.99-.14-7.35-2.12-9.53-5.08-13.56,30.46-25.69,61.79-33.12,102.89-4.49,24.8-10.18,63.1-7.9,109.2,3.08,62.15,19.83,116.09,49.8,160.29,29.84,44.04,70.17,70.58,109.17,96.25,9.47,6.23,19.26,12.68,28.63,19.21,46.57,32.49,60.87,97.08,64.65,145.55,4.16,53.24-3.1,99.27-3.18,99.73l-1,6.24h74.45l-1.01-6.24c-.07-.46-7.32-46.3-3.19-99.52,3.77-48.54,18.05-113.24,64.67-145.76,9.37-6.53,19.16-12.98,28.64-19.21,30-19.75,60.78-40.02,86.96-68.37l-7.39-7.9c-25.5,27.77-55.88,47.77-85.49,67.27Z"/>
                <path class="cls-1" d="M1814.82,1207.36c-2.84,57.2-17.24,107.43-42.88,149.54-2.07,3.4-4.21,6.75-6.43,10.04-.99-3.23-4-5.58-7.55-5.58-.62,0-1.23.07-1.81.21,2.21-3.27,4.43-6.71,6.63-10.34,29.17-48.08,55.72-128.53,33.54-251.14-4.52-25-10.86-46.37-18.23-66.18-7.38-19.82-15.78-38.08-24.42-56.87-26.91-58.49-52.3-92.67-81.7-132.26-12.95-17.43-26.34-35.46-41.01-57.06-38.12-56.14-72.23-118.27-101.44-184.78-29.21,66.51-63.31,128.64-101.44,184.78-14.67,21.61-28.06,39.63-41.01,57.06-27.23,36.67-51.03,68.71-75.78,119.73-3.1-1.31-7.32-3.09-9.94-4.18,25.25-52.2,49.41-84.73,77.07-121.97,12.88-17.34,26.2-35.28,40.75-56.69,39.21-57.75,74.14-121.91,103.82-190.72.53-1.22,1.05-2.45,1.58-3.67l4.95-11.53,4.95,11.53c.53,1.23,1.05,2.45,1.58,3.67,29.68,68.81,64.61,132.98,103.82,190.72,14.55,21.41,27.86,39.35,40.75,56.69,29.75,40.06,55.45,74.67,82.83,134.17,17.58,38.21,34.19,74.3,43.47,125.64,4.49,24.8,10.18,63.1,7.9,109.2Z"/>
              </g>
              <g class="cls-8">
                <path class="cls-3" d="M1691.36,1432.16h-5.98v-70.55l.9-.88c14.59-14.22,29.11-28.93,43.15-43.16,16.34-16.55,33.23-33.67,50.59-50.38.15-.15.7-.7.88-1.03v-114.1l.88-.88c8.31-8.31,16.16-16.16,24.47-24.35l4.2,4.26c-8,7.89-15.58,15.46-23.56,23.44v111.81c0,2.44-1.8,4.24-2.67,5.11-17.34,16.7-34.21,33.79-50.52,50.31-13.77,13.95-28.01,28.37-42.33,42.36v68.03Z"/>
              </g>
              <g class="cls-8">
                <polygon class="cls-3" points="1428.4 890.48 1349.64 890.48 1349.64 884.5 1425.93 884.5 1487.27 823.15 1487.27 673.57 1493.25 673.57 1493.25 825.63 1428.4 890.48"/>
              </g>
              <path class="cls-4" d="M1415.36,1341.32c-2.49,0-4.82.71-6.8,1.93l-94.05-94.05v-160.78l-42.2-42.2-4.23,4.23,40.45,40.45v160.78l95.8,95.8c-1.22,1.98-1.93,4.31-1.93,6.8,0,7.15,5.81,12.96,12.96,12.96s12.96-5.81,12.96-12.96-5.81-12.96-12.96-12.96ZM1415.36,1361.26c-3.85,0-6.98-3.13-6.98-6.98s3.13-6.98,6.98-6.98,6.98,3.13,6.98,6.98-3.13,6.98-6.98,6.98Z"/>
              <path class="cls-4" d="M1496.56,1409.86v174.36c1.96-.9,3.95-1.74,5.98-2.52v-169.36l78.23-78.23.88-.88v-89.16c5.71-1.35,9.97-6.49,9.97-12.61,0-7.15-5.81-12.96-12.96-12.96s-12.96,5.81-12.96,12.96c0,6.12,4.26,11.25,9.97,12.61v86.68l-79.11,79.11ZM1571.68,1231.46c0-3.85,3.13-6.98,6.98-6.98s6.98,3.13,6.98,6.98-3.13,6.98-6.98,6.98-6.98-3.13-6.98-6.98Z"/>
              <path class="cls-4" d="M1502.67,988.32c-7.15,0-12.96,5.81-12.96,12.96,0,6.12,4.26,11.25,9.97,12.61v303.26l-38.98,38.98v-45.54l-104.92-104.92v-235.72l-35.88-35.89-4.23,4.23,34.13,34.13v235.72l104.92,104.92v184.59h5.98v-133.06l44.97-44.96v-305.74c5.71-1.35,9.97-6.49,9.97-12.61,0-7.15-5.81-12.96-12.96-12.96ZM1502.67,1008.26c-3.85,0-6.98-3.13-6.98-6.98s3.13-6.98,6.98-6.98,6.98,3.13,6.98,6.98-3.13,6.98-6.98,6.98Z"/>
              <path class="cls-4" d="M1751.35,1216.49v-167.24l-112.88-112.88v-152.94h-5.98v155.42l112.88,112.88v164.76c-5.71,1.35-9.97,6.49-9.97,12.61,0,7.15,5.81,12.96,12.96,12.96s12.96-5.81,12.96-12.96c0-6.12-4.26-11.25-9.97-12.61ZM1748.36,1236.08c-3.85,0-6.98-3.13-6.98-6.98s3.13-6.98,6.98-6.98,6.98,3.13,6.98,6.98-3.13,6.98-6.98,6.98Z"/>
              <path class="cls-4" d="M1530.93,593.08h-5.98c-.07,33.06-.05,66.63-.04,99.09.03,71.48.05,145.38-.76,218.33-31.38,30.79-62.88,62.31-93.67,93.68l-.87.88v1.24c.25,26.3.1,52.95-.04,78.72-.04,7.1-.08,14.26-.11,21.44l-23.57-23.57v-117.36l-64.48-64.48-4.23,4.23,62.72,62.73v117.36l29.51,29.51c-.1,29.18-.01,58.84.79,88.26l.03,1.12.76.83c9.06,9.79,13.93,14.5,19.55,19.95,3.32,3.22,7.05,6.83,12.16,11.99-1.42,2.08-2.24,4.58-2.24,7.28,0,7.15,5.81,12.96,12.96,12.96s12.96-5.81,12.96-12.96-5.81-12.96-12.96-12.96c-2.29,0-4.43.6-6.3,1.64-5.25-5.29-9.04-8.97-12.42-12.24-5.63-5.45-10.11-9.79-18.56-18.89-1.04-39.06-.82-78.57-.61-116.8.14-25.39.28-51.63.06-77.57,30.77-31.35,62.25-62.83,93.6-93.58l.88-.87v-1.24c.84-73.38.81-147.73.78-219.63-.01-32.46-.03-66.02.04-99.09ZM1473.46,1237.33c3.85,0,6.98,3.13,6.98,6.98s-3.13,6.98-6.98,6.98-6.98-3.13-6.98-6.98,3.13-6.98,6.98-6.98Z"/>
              <g class="cls-8">
                <polygon class="cls-3" points="1428.4 890.48 1349.64 890.48 1349.64 884.5 1425.93 884.5 1487.27 823.15 1487.27 673.57 1493.25 673.57 1493.25 825.63 1428.4 890.48"/>
              </g>
              <path class="cls-4" d="M1502.67,988.32c-7.15,0-12.96,5.81-12.96,12.96,0,6.12,4.26,11.25,9.97,12.61v303.26l-38.98,38.98v-45.54l-104.92-104.92v-235.72l-35.88-35.89-4.23,4.23,34.13,34.13v235.72l104.92,104.92v184.59h5.98v-133.06l44.97-44.96v-305.74c5.71-1.35,9.97-6.49,9.97-12.61,0-7.15-5.81-12.96-12.96-12.96ZM1502.67,1008.26c-3.85,0-6.98-3.13-6.98-6.98s3.13-6.98,6.98-6.98,6.98,3.13,6.98,6.98-3.13,6.98-6.98,6.98Z"/>
              <path class="cls-4" d="M1751.35,1216.49v-167.24l-112.88-112.88v-152.94h-5.98v155.42l112.88,112.88v164.76c-5.71,1.35-9.97,6.49-9.97,12.61,0,7.15,5.81,12.96,12.96,12.96s12.96-5.81,12.96-12.96c0-6.12-4.26-11.25-9.97-12.61ZM1748.36,1236.08c-3.85,0-6.98-3.13-6.98-6.98s3.13-6.98,6.98-6.98,6.98,3.13,6.98,6.98-3.13,6.98-6.98,6.98Z"/>
              <path class="cls-4" d="M1724.05,949.28c-2.25,0-4.36.58-6.21,1.59l-44.67-44.67v-72.88h-5.98v75.36l46.21,46.2c-1.45,2.09-2.3,4.63-2.3,7.36,0,7.15,5.81,12.96,12.96,12.96s12.96-5.81,12.96-12.96-5.81-12.96-12.96-12.96ZM1724.05,969.22c-3.85,0-6.98-3.13-6.98-6.98s3.13-6.98,6.98-6.98,6.98,3.13,6.98,6.98-3.13,6.98-6.98,6.98Z"/>
              <path class="cls-4" d="M1402.17,1375.97l-88.7-88.7c1.26-2,2-4.37,2-6.9,0-7.15-5.81-12.96-12.96-12.96s-12.96,5.81-12.96,12.96,5.81,12.96,12.96,12.96c2.45,0,4.74-.68,6.69-1.87l86.95,86.95c-.06,4.6-.27,21.01-.38,37.3-.08,11.23-.09,20.21-.05,26.69.03,3.87.08,6.88.14,8.97.12,3.61.17,4.95,1.65,5.93l3.3-4.99c1.01.67,1.2,1.65,1.2,1.69-.62-3.53-.25-48.96.14-76.76l.02-1.26ZM1295.54,1280.38c0-3.85,3.13-6.98,6.98-6.98s6.98,3.13,6.98,6.98-3.13,6.98-6.98,6.98-6.98-3.13-6.98-6.98Z"/>
              <path class="cls-4" d="M1732.37,1091.59c0-7.15-5.81-12.96-12.96-12.96s-12.96,5.81-12.96,12.96c0,6.12,4.26,11.25,9.97,12.61v143.6l-84.4,84.4-.88.88v138.78h5.98v-136.31l84.4-84.4.88-.88v-146.08c5.71-1.35,9.97-6.49,9.97-12.61ZM1719.41,1098.57c-3.85,0-6.98-3.13-6.98-6.98s3.13-6.98,6.98-6.98,6.98,3.13,6.98,6.98-3.13,6.98-6.98,6.98Z"/>
              <path class="cls-4" d="M1607,975.4v-203.9l-43.68-43.68v-64.89h-5.98v67.37l43.68,43.68v201.42c-5.39,1.34-9.4,6.21-9.4,12,0,6.83,5.56,12.38,12.38,12.38s12.38-5.56,12.38-12.38c0-5.79-4-10.66-9.39-12ZM1604.01,993.8c-3.53,0-6.4-2.87-6.4-6.4s2.87-6.4,6.4-6.4,6.4,2.87,6.4,6.4-2.87,6.4-6.4,6.4Z"/>
              <path class="cls-4" d="M1591.62,1151.01c-2.47,0-4.78.74-6.71,1.99l-49.6-49.6v-143.27c5.2-1.47,9.03-6.24,9.03-11.91,0-6.83-5.56-12.38-12.38-12.38s-12.38,5.56-12.38,12.38c0,5.93,4.19,10.89,9.75,12.1v145.56l51.49,51.49c-1,1.79-1.58,3.84-1.58,6.03,0,6.83,5.56,12.38,12.38,12.38s12.38-5.55,12.38-12.38-5.56-12.38-12.38-12.38ZM1525.55,948.22c0-3.53,2.87-6.4,6.4-6.4s6.4,2.87,6.4,6.4-2.87,6.4-6.4,6.4-6.4-2.87-6.4-6.4ZM1591.62,1169.8c-3.53,0-6.4-2.87-6.4-6.4s2.87-6.4,6.4-6.4,6.4,2.87,6.4,6.4-2.87,6.4-6.4,6.4Z"/>
              <path class="cls-4" d="M1649.34,1000.76c1.07-1.89,1.69-4.06,1.69-6.38,0-7.15-5.81-12.96-12.96-12.96s-12.96,5.81-12.96,12.96,5.81,12.96,12.96,12.96c2.66,0,5.14-.81,7.2-2.19l35.48,35.48v131.3l-62.49,62.49v-171.84l-58.19-58.19v-201.34c5.58-1.44,9.72-6.52,9.72-12.55,0-7.15-5.81-12.96-12.96-12.96s-12.96,5.81-12.96,12.96c0,6.21,4.39,11.41,10.22,12.67v203.7l58.19,58.19v301.4l-85.73,85.73v1.24c-.02,10.71-.34,262.36,0,272.07l5.98-.21c-.19-5.4-.17-89.88-.11-163.25l25.39-25.39v-60.11l50.69-50.69c.94.58,2.05.91,3.23.91,3.43,0,6.21-2.78,6.21-6.21s-2.78-6.21-6.21-6.21-6.21,2.78-6.21,6.21c0,1.16.32,2.24.88,3.17l-51.58,51.58v60.11l-22.4,22.4c.04-50.7.1-95.19.11-103.13l84.86-84.86.88-.88v-126.06l67.6-67.6.88-.88v-136.26l-37.39-37.39ZM1638.06,1001.36c-3.85,0-6.98-3.13-6.98-6.98s3.13-6.98,6.98-6.98,6.98,3.13,6.98,6.98-3.13,6.98-6.98,6.98ZM1549.84,790.5c0-3.85,3.13-6.98,6.98-6.98s6.98,3.13,6.98,6.98-3.13,6.98-6.98,6.98-6.98-3.13-6.98-6.98Z"/>
              <path class="cls-4" d="M1649.34,1000.76c1.07-1.89,1.69-4.06,1.69-6.38,0-7.15-5.81-12.96-12.96-12.96s-12.96,5.81-12.96,12.96,5.81,12.96,12.96,12.96c2.66,0,5.14-.81,7.2-2.19l35.48,35.48v131.3l-62.49,62.49v-171.84l-58.19-58.19v-201.34c5.58-1.44,9.72-6.52,9.72-12.55,0-7.15-5.81-12.96-12.96-12.96s-12.96,5.81-12.96,12.96c0,6.21,4.39,11.41,10.22,12.67v203.7l58.19,58.19v301.4l-85.73,85.73v1.24c-.02,10.71-.34,262.36,0,272.07l5.98-.21c-.19-5.4-.17-89.88-.11-163.25l25.39-25.39v-60.11l50.69-50.69c.94.58,2.05.91,3.23.91,3.43,0,6.21-2.78,6.21-6.21s-2.78-6.21-6.21-6.21-6.21,2.78-6.21,6.21c0,1.16.32,2.24.88,3.17l-51.58,51.58v60.11l-22.4,22.4c.04-50.7.1-95.19.11-103.13l84.86-84.86.88-.88v-126.06l67.6-67.6.88-.88v-136.26l-37.39-37.39ZM1638.06,1001.36c-3.85,0-6.98-3.13-6.98-6.98s3.13-6.98,6.98-6.98,6.98,3.13,6.98,6.98-3.13,6.98-6.98,6.98ZM1549.84,790.5c0-3.85,3.13-6.98,6.98-6.98s6.98,3.13,6.98,6.98-3.13,6.98-6.98,6.98-6.98-3.13-6.98-6.98Z"/>
              <path class="cls-4" d="M1525.32,677.42l-19.09,19.09v161.99l-78.56,78.56-.44.44v34.9c-2.71.67-4.72,3.11-4.72,6.02,0,3.43,2.78,6.21,6.21,6.21s6.21-2.78,6.21-6.21c0-2.91-2.01-5.35-4.72-6.02v-33.66l78.56-78.56.44-.44v-161.99l18.21-18.22-2.11-2.11Z"/>
              <path class="cls-4" d="M1479.71,1146.28v-95.53l-20.61-20.61c.47-.87.74-1.88.74-2.94,0-3.43-2.78-6.21-6.21-6.21s-6.21,2.78-6.21,6.21,2.78,6.21,6.21,6.21c1.28,0,2.47-.39,3.46-1.05l19.63,19.63v95.53l25.98,25.98,2.11-2.11-25.1-25.1Z"/>
              <g class="cls-8">
                <polygon class="cls-3" points="1258.22 1240.91 1256.1 1238.8 1284.48 1210.42 1284.48 1113.83 1263.3 1092.65 1265.41 1090.53 1287.47 1112.59 1287.47 1211.66 1258.22 1240.91"/>
              </g>
              <g class="cls-8">
                <polygon class="cls-3" points="1258.22 1240.91 1256.1 1238.8 1284.48 1210.42 1284.48 1113.83 1263.3 1092.65 1265.41 1090.53 1287.47 1112.59 1287.47 1211.66 1258.22 1240.91"/>
              </g>
              <path class="cls-4" d="M1343.42,1005.99c0-3.43-2.78-6.21-6.21-6.21s-6.21,2.78-6.21,6.21c0,3.14,2.33,5.73,5.36,6.15v107.75l-22.9,22.9,2.11,2.11,23.78-23.78v-109.31c2.37-.87,4.07-3.15,4.07-5.82Z"/>
              <path class="cls-4" d="M1380.4,1169.18v-146.47c2.71-.67,4.72-3.11,4.72-6.02,0-3.43-2.78-6.21-6.21-6.21s-6.21,2.78-6.21,6.21c0,2.91,2.01,5.35,4.72,6.02v147.71l49.06,49.06v60.9h2.99v-62.14l-49.06-49.06Z"/>
              <path class="cls-4" d="M1589.19,1184.36c-3.43,0-6.21,2.78-6.21,6.21,0,1.41.47,2.7,1.26,3.74l-46.87,46.87v126.06h2.99v-124.82l46.22-46.22c.79.37,1.68.58,2.61.58,3.43,0,6.21-2.78,6.21-6.21s-2.78-6.21-6.21-6.21Z"/>
              <path class="cls-4" d="M1775.23,1127.03v-84.6l-37.09-37.09c.28-.71.44-1.48.44-2.29,0-3.43-2.78-6.21-6.21-6.21s-6.21,2.78-6.21,6.21,2.78,6.21,6.21,6.21c1.52,0,2.92-.55,4-1.46l35.87,35.87v83.36c-2.71.67-4.72,3.11-4.72,6.02,0,3.43,2.78,6.21,6.21,6.21s6.21-2.78,6.21-6.21c0-2.91-2.01-5.35-4.72-6.02Z"/>
              <g class="cls-8">
                <rect class="cls-3" x="1498.05" y="1185.28" width="8.93" height="8.93"/>
                <rect class="cls-3" x="1498.05" y="1200.35" width="8.93" height="8.93"/>
                <rect class="cls-3" x="1498.05" y="1215.42" width="8.93" height="8.93"/>
              </g>
              <g class="cls-8">
                <rect class="cls-3" x="1429.6" y="1039.56" width="8.93" height="8.93"/>
                <rect class="cls-3" x="1429.6" y="1054.63" width="8.93" height="8.93"/>
                <rect class="cls-3" x="1429.6" y="1069.7" width="8.93" height="8.93"/>
              </g>
              <g class="cls-8">
                <rect class="cls-3" x="1714.94" y="1141.97" width="8.93" height="8.93"/>
                <rect class="cls-3" x="1714.94" y="1157.04" width="8.93" height="8.93"/>
                <rect class="cls-3" x="1714.94" y="1172.11" width="8.93" height="8.93"/>
              </g>
              <g class="cls-8">
                <rect class="cls-3" x="1493.59" y="1470.84" width="8.93" height="8.93"/>
                <rect class="cls-3" x="1493.59" y="1485.91" width="8.93" height="8.93"/>
                <rect class="cls-3" x="1493.59" y="1500.98" width="8.93" height="8.93"/>
              </g>
              <g class="cls-8">
                <rect class="cls-3" x="1525.06" y="1632.35" width="8.93" height="8.93"/>
                <rect class="cls-3" x="1525.06" y="1647.42" width="8.93" height="8.93"/>
                <rect class="cls-3" x="1525.06" y="1662.49" width="8.93" height="8.93"/>
              </g>
              <g class="cls-8">
                <rect class="cls-3" x="1599.54" y="809.63" width="8.93" height="8.93"/>
                <rect class="cls-3" x="1599.54" y="824.7" width="8.93" height="8.93"/>
                <rect class="cls-3" x="1599.54" y="839.77" width="8.93" height="8.93"/>
              </g>
              <g class="cls-8">
                <rect class="cls-3" x="1262.53" y="1151.5" width="11.1" height="11.1"/>
                <rect class="cls-3" x="1262.53" y="1170.23" width="11.1" height="11.1"/>
                <rect class="cls-3" x="1262.53" y="1188.95" width="11.1" height="11.1"/>
              </g>
              <g class="cls-8">
                <rect class="cls-3" x="1544.29" y="1250.97" width="11.1" height="11.1"/>
                <rect class="cls-3" x="1544.29" y="1269.7" width="11.1" height="11.1"/>
                <rect class="cls-3" x="1544.29" y="1288.42" width="11.1" height="11.1"/>
              </g>
              <g class="cls-8">
                <rect class="cls-3" x="1504.25" y="900.43" width="11.1" height="11.1" transform="translate(1082.83 -802.24) rotate(45)"/>
                <rect class="cls-3" x="1491.01" y="913.67" width="11.1" height="11.1" transform="translate(1088.33 -789) rotate(45)"/>
                <rect class="cls-3" x="1477.77" y="926.91" width="11.1" height="11.1" transform="translate(1093.79 -775.75) rotate(45)"/>
              </g>
              <g class="cls-8">
                <rect class="cls-3" x="1726.92" y="1315.42" width="8.93" height="8.93" transform="translate(1440.43 -837.69) rotate(45)"/>
                <rect class="cls-3" x="1716.27" y="1326.07" width="8.93" height="8.93" transform="translate(1444.82 -827.04) rotate(45)"/>
                <rect class="cls-3" x="1705.61" y="1336.73" width="8.93" height="8.93" transform="translate(1449.24 -816.38) rotate(45)"/>
              </g>
              <path class="cls-1" d="M1771.94,1356.9c-2.4-2.7-5.56-4.71-9.16-5.68-1.54-.41-3.16-.63-4.83-.63-10.29,0-18.66,8.37-18.66,18.67,0,3.85,1.17,7.44,3.18,10.41,2.03,3.02,4.93,5.42,8.33,6.83,2.2.92,4.62,1.43,7.15,1.43,10.29,0,18.67-8.37,18.67-18.67,0-4.74-1.77-9.06-4.68-12.36ZM1758.23,1377.15c-.09,0-.19,0-.28,0-4.09,0-7.46-3.13-7.85-7.11-.03-.26-.04-.53-.04-.79,0-3.73,2.6-6.87,6.09-7.69.58-.14,1.18-.21,1.81-.21,3.55,0,6.56,2.35,7.55,5.58.23.74.35,1.51.35,2.32,0,4.26-3.39,7.75-7.63,7.9Z"/>
              <path class="cls-1" d="M1294.79,1006.06c-10.29,0-18.67-8.37-18.67-18.67s8.37-18.67,18.67-18.67,18.67,8.37,18.67,18.67-8.37,18.67-18.67,18.67ZM1294.79,979.5c-4.36,0-7.9,3.54-7.9,7.9s3.54,7.9,7.9,7.9,7.9-3.54,7.9-7.9-3.54-7.9-7.9-7.9Z"/>
              <g class="cls-8">
                <polygon class="cls-3" points="1453.11 1143.43 1441.74 1132.01 1441.74 1097.96 1453.11 1109.38 1453.11 1143.43"/>
                <polygon class="cls-3" points="1453.11 1163.35 1441.74 1151.93 1441.74 1140.57 1453.11 1151.99 1453.11 1163.35"/>
                <polygon class="cls-3" points="1453.11 1191.83 1441.74 1180.41 1441.74 1160.49 1453.11 1171.91 1453.11 1191.83"/>
              </g>
              <g class="cls-8">
                <polygon class="cls-3" points="1353.84 1351.96 1337.73 1351.92 1313.65 1327.85 1329.76 1327.89 1353.84 1351.96"/>
                <polygon class="cls-3" points="1367.93 1366.05 1351.82 1366.01 1343.78 1357.97 1359.89 1358.01 1367.93 1366.05"/>
                <polygon class="cls-3" points="1388.07 1386.19 1371.95 1386.15 1357.87 1372.06 1373.98 1372.1 1388.07 1386.19"/>
              </g>
              <g class="cls-8">
                <polygon class="cls-3" points="1672.86 1119.23 1661.5 1107.81 1661.5 1073.76 1672.86 1085.18 1672.86 1119.23"/>
                <polygon class="cls-3" points="1672.86 1139.15 1661.5 1127.73 1661.5 1116.37 1672.86 1127.79 1672.86 1139.15"/>
                <polygon class="cls-3" points="1672.86 1167.63 1661.5 1156.21 1661.5 1136.29 1672.86 1147.71 1672.86 1167.63"/>
              </g>
              <g class="cls-8">
                <polygon class="cls-3" points="1579.39 930.99 1568.03 919.57 1568.03 885.52 1579.39 896.94 1579.39 930.99"/>
                <polygon class="cls-3" points="1579.39 950.91 1568.03 939.49 1568.03 928.13 1579.39 939.55 1579.39 950.91"/>
                <polygon class="cls-3" points="1579.39 979.4 1568.03 967.97 1568.03 948.05 1579.39 959.47 1579.39 979.4"/>
              </g>
              <g class="cls-8">
                <polygon class="cls-3" points="1452.48 837.66 1452.52 821.55 1476.6 797.48 1476.56 813.59 1452.48 837.66"/>
                <polygon class="cls-3" points="1438.39 851.75 1438.43 835.64 1446.47 827.61 1446.43 843.72 1438.39 851.75"/>
                <polygon class="cls-3" points="1418.25 871.89 1418.3 855.78 1432.38 841.69 1432.34 857.8 1418.25 871.89"/>
              </g>
              <g class="cls-8">
                <polygon class="cls-3" points="1680.33 1303.92 1680.29 1320.03 1656.21 1344.11 1656.25 1328 1680.33 1303.92"/>
                <polygon class="cls-3" points="1694.41 1289.83 1694.37 1305.95 1686.34 1313.98 1686.38 1297.87 1694.41 1289.83"/>
                <polygon class="cls-3" points="1714.55 1269.7 1714.51 1285.81 1700.42 1299.89 1700.46 1283.78 1714.55 1269.7"/>
              </g>
            </g>
          </g>
        </g>
      </g>
    </g>
  </g>
</svg>