<?xml version="1.0" encoding="UTF-8"?><svg id="uuid-2d02aca3-4662-4f10-9774-bb32419fe640" xmlns="http://www.w3.org/2000/svg" viewBox="0 0 832.65 706.34"><defs><style>.uuid-bc87f916-af60-472b-840b-4b7c15892de4{fill:#0e74bb;}.uuid-6a928796-b7d2-4109-886e-9bb77a54011b{fill:#fff;}.uuid-a775a83d-7b18-45d7-ba04-d14284e5b69c{fill:#080717;}.uuid-111840d8-5728-4ead-84fa-2498defa4418{fill:#1d1d1b;}</style></defs><path class="uuid-bc87f916-af60-472b-840b-4b7c15892de4" d="M18.31,273.5l64.9,28.24c2.75-7.94,9.65-19.33,24.75-30.42,18.63-13.68,49.21-16.61,64.36-65.07,17.69-56.58-40.55-88.52-46.34-91.04v-.02s-.05-.02-.16-.06c-.1-.05-.16-.08-.16-.08v.02c-6.9-3-68.86-23.37-98.21,28.14-25.14,44.11-6.44,68.49-3.75,91.44,2.18,18.61-1.46,31.42-5.39,38.84Z"/><path d="M3.35,286.28h78.44v35.78c0,2.5-2.03,4.53-4.53,4.53H7.89c-2.5,0-4.53-2.03-4.53-4.53v-35.78h0Z" transform="translate(125.81 8.46) rotate(23.52)"/><path d="M7.96,309.02h54.73v24.96c0,1.75-1.42,3.16-3.16,3.16H11.13c-1.75,0-3.16-1.42-3.16-3.16v-24.96h0Z" transform="translate(131.85 12.74) rotate(23.52)"/><rect x="26.77" y="242.56" width="58.83" height="6.2" transform="translate(-191.49 199.19) rotate(-66.49)"/><rect x="48.35" y="251.95" width="58.83" height="6.2" transform="translate(-187.13 224.61) rotate(-66.49)"/><rect x="75.62" y="193.96" width="6.2" height="58.83" transform="translate(-157.52 206.43) rotate(-66.48)"/><path class="uuid-111840d8-5728-4ead-84fa-2498defa4418" d="M644.33,114.94C594.87,51.6,486.5,6.89,380.78,6.2c-.86,0-1.72,0-2.57,0-99.26,0-183.9,37.44-238.55,105.58l-4.83-3.88C191.16,37.66,278.46-.62,380.82,0c107.48.7,217.85,46.39,268.39,111.12l-4.88,3.81Z"/><path class="uuid-111840d8-5728-4ead-84fa-2498defa4418" d="M654.55,120.85l-57.91-23.18,23.58-39.54,34.33,62.73ZM605.67,94.61l35.15,14.07-20.84-38.08-14.31,24.01Z"/><path class="uuid-a775a83d-7b18-45d7-ba04-d14284e5b69c" d="M64.67,703.24l114.67-161.32c31.64-44.52,87.92-64.25,140.43-49.24l196.04,56.01c28.57,8.16,53.45,25.95,70.41,50.35l26.29,104.2h0s-547.84-7.1-547.84,0Z"/><path class="uuid-6a928796-b7d2-4109-886e-9bb77a54011b" d="M423.64,524.41l-39.67-125.02-102.55,32.54,35.73,112.6c-14.79,15.78-24.34,33.74-14.34,49.4,24.48,38.32,94.74,0,125.61-27.68l30.87-27.68-35.65-14.17Z"/><path class="uuid-a775a83d-7b18-45d7-ba04-d14284e5b69c" d="M335.16,613.18c-2.55,0-5.04-.16-7.46-.49-12.05-1.64-21.3-7.4-27.5-17.09-9.25-14.48-4.73-31.92,13.45-51.85l-35.18-110.88c-.25-.78-.18-1.63.2-2.36.38-.73,1.03-1.28,1.81-1.53l102.55-32.54c1.64-.52,3.38.39,3.89,2.02l39.23,123.62,34.28,13.63c1,.4,1.72,1.28,1.91,2.34.19,1.06-.18,2.13-.98,2.85l-30.87,27.68c-20.21,18.12-62.31,44.62-95.33,44.62ZM285.31,433.95l34.79,109.65c.34,1.07.08,2.24-.69,3.06-17.02,18.16-21.73,33.5-13.99,45.61,5.17,8.1,12.95,12.9,23.11,14.29,16.85,2.32,58.35-7.23,97.81-42.61l27.15-24.34-31-12.33c-.87-.34-1.53-1.06-1.81-1.94l-38.73-122.06-96.65,30.67Z"/><path class="uuid-a775a83d-7b18-45d7-ba04-d14284e5b69c" d="M403.55,474.24l-25.72-81.04-96.41,30.59,27.53,86.76c34.3,2.75,69.37-9.6,94.6-36.31Z"/><path class="uuid-6a928796-b7d2-4109-886e-9bb77a54011b" d="M471.98,415.95c32.44-49.37,24.36-116.34-21.34-156.36l-16.12-14.11c-35.75-31.31-90.12-27.7-121.42,8.06l-65.47,74.78c-31.31,35.75-27.7,90.12,8.06,121.42l12.79,11.2c42.4,37.12,102.84,40.34,148.26,11.88,7.26,7.81,17.58,12.72,29.08,12.72,21.95,0,39.74-17.79,39.74-39.74,0-11.91-5.27-22.57-13.57-29.85Z"/><path class="uuid-a775a83d-7b18-45d7-ba04-d14284e5b69c" d="M350.79,494.73c-30.37,0-60.61-10.65-84.37-31.45l-12.79-11.2c-36.98-32.38-40.73-88.81-8.35-125.8l65.47-74.78c32.38-36.98,88.81-40.72,125.8-8.35l16.11,14.11c45.4,39.75,55.2,107.32,23.31,158.19,8.08,8.03,12.67,18.95,12.67,30.35,0,23.62-19.22,42.84-42.84,42.84-10.98,0-21.61-4.31-29.56-11.89-20.12,12.05-42.82,17.97-65.45,17.98ZM377.88,227.31c-23.1,0-46.08,9.57-62.46,28.27l-65.47,74.78c-30.13,34.41-26.64,86.92,7.77,117.05l12.79,11.2c40.05,35.07,99.5,39.82,144.57,11.59,1.26-.79,2.9-.57,3.91.52,7.03,7.56,16.55,11.73,26.81,11.73,20.2,0,36.64-16.44,36.64-36.64,0-10.51-4.56-20.55-12.51-27.53-1.16-1.02-1.39-2.74-.55-4.03,31.89-48.53,22.95-114.02-20.8-152.32l-16.11-14.11c-15.71-13.75-35.19-20.5-54.59-20.5Z"/><path class="uuid-a775a83d-7b18-45d7-ba04-d14284e5b69c" d="M445.81,406.07c10.46,0,19.94,4.07,27.04,10.68l12.65-14.45c30.7-35.07,27.17-88.38-7.9-119.09l-43.08-37.72c-35.75-31.31-90.12-27.7-121.42,8.06,0,0,42.56-28.9,117.1,75.88h0l-8.23,16.47c-5.67,11.34-7.02,24.36-3.79,36.62l2.09,7.94-16.71,21.72c-6.42,8.34-5,20.26,3.13,26.88,3.21-18.73,19.48-32.99,39.13-32.99Z"/><path class="uuid-bc87f916-af60-472b-840b-4b7c15892de4" d="M269.25,351.42c-2.57,0-5.17-.24-7.75-.72-10.99-2.05-20.53-8.25-26.85-17.47-6.33-9.22-8.68-20.35-6.63-31.34,2.05-10.99,8.25-20.53,17.47-26.85,9.22-6.32,20.36-8.68,31.34-6.63,10.99,2.05,20.53,8.25,26.85,17.47,6.33,9.22,8.68,20.35,6.63,31.34h0c-2.05,10.99-8.25,20.53-17.47,26.85-7.05,4.84-15.22,7.35-23.59,7.35ZM269.08,273.89c-7.13,0-14.09,2.14-20.1,6.26-7.85,5.39-13.14,13.51-14.88,22.88-1.75,9.36.26,18.85,5.65,26.7,5.39,7.85,13.51,13.14,22.88,14.88,9.37,1.75,18.85-.26,26.7-5.65,7.85-5.39,13.14-13.51,14.88-22.88h0c1.75-9.36-.26-18.85-5.65-26.7-5.39-7.85-13.51-13.14-22.88-14.88-2.2-.41-4.41-.61-6.61-.61Z"/><path class="uuid-bc87f916-af60-472b-840b-4b7c15892de4" d="M343.34,402.77c-2.53,0-5.1-.23-7.68-.71-22.69-4.22-37.71-26.12-33.48-48.81,4.23-22.69,26.16-37.71,48.81-33.48,22.69,4.22,37.71,26.12,33.48,48.81h0c-3.75,20.11-21.38,34.19-41.13,34.19ZM343.31,325.25c-16.83,0-31.85,12-35.04,29.13-3.6,19.33,9.2,37.98,28.52,41.58,19.33,3.59,37.98-9.19,41.59-28.53,3.6-19.33-9.2-37.98-28.53-41.58-2.2-.41-4.38-.61-6.54-.61ZM381.43,368h.03-.03Z"/><path class="uuid-bc87f916-af60-472b-840b-4b7c15892de4" d="M425.22,413.07c-.65,0-1.31-.21-1.87-.63l-45.85-34.85c-1.36-1.03-1.62-2.98-.59-4.34,1.03-1.36,2.97-1.63,4.34-.59l45.85,34.85c1.36,1.03,1.62,2.98.59,4.34-.61.8-1.53,1.22-2.47,1.22Z"/><path class="uuid-bc87f916-af60-472b-840b-4b7c15892de4" d="M315.2,335.23c-.72,0-1.45-.25-2.03-.76l-10.56-9.19c-1.29-1.12-1.43-3.08-.31-4.37,1.13-1.29,3.08-1.43,4.37-.3l10.56,9.19c1.29,1.12,1.43,3.08.31,4.37-.61.7-1.47,1.06-2.34,1.06Z"/><path class="uuid-a775a83d-7b18-45d7-ba04-d14284e5b69c" d="M356.18,363.04c-3.88,5.17-9.7,7.36-12.99,4.89-3.29-2.47-2.81-8.66,1.07-13.84,3.88-5.17,9.7-7.36,12.99-4.89,3.29,2.47,2.81,8.67-1.07,13.84Z"/><path class="uuid-a775a83d-7b18-45d7-ba04-d14284e5b69c" d="M295.62,321.99c-3.88,5.17-9.7,7.36-12.99,4.89-3.29-2.47-2.81-8.66,1.07-13.84,3.88-5.17,9.7-7.36,12.99-4.89s2.81,8.66-1.07,13.84Z"/><path class="uuid-a775a83d-7b18-45d7-ba04-d14284e5b69c" d="M285.65,402.53c-10.33,0-18.12-6.96-21.35-11.71-.96-1.42-.59-3.34.83-4.3,1.41-.96,3.33-.6,4.3.82.41.59,9.56,13.57,23.87,7.31,1.58-.68,3.4.03,4.08,1.6.69,1.57-.03,3.39-1.6,4.08-3.58,1.56-6.97,2.21-10.13,2.21Z"/><path class="uuid-a775a83d-7b18-45d7-ba04-d14284e5b69c" d="M387.96,337.95c-1.4,0-2.67-.96-3.01-2.38-4.41-18.49-26.07-25.72-26.29-25.79-1.63-.53-2.52-2.27-1.99-3.9.53-1.63,2.28-2.52,3.9-1.99,1.03.33,25.2,8.41,30.41,30.25.4,1.66-.63,3.33-2.29,3.73-.24.06-.48.08-.72.08Z"/><path class="uuid-a775a83d-7b18-45d7-ba04-d14284e5b69c" d="M318,289.19c-1.19,0-2.32-.68-2.83-1.84-.33-.72-8.03-17.36-27.1-19.93-1.69-.23-2.88-1.79-2.66-3.48.23-1.69,1.77-2.88,3.48-2.66,22.58,3.05,31.56,22.72,31.93,23.55.69,1.56,0,3.39-1.57,4.09-.41.18-.84.27-1.26.27Z"/><path class="uuid-a775a83d-7b18-45d7-ba04-d14284e5b69c" d="M418.84,447.13c-.56,0-1.12-.15-1.63-.47-1.45-.9-1.9-2.81-1-4.26.44-.71,10.89-17.34,26.43-20.54,7.21-1.49,14.3.15,21.03,4.86,1.4.98,1.74,2.91.76,4.31-.98,1.4-2.91,1.74-4.31.76-5.27-3.69-10.71-4.99-16.21-3.87-12.91,2.64-22.34,17.59-22.43,17.74-.59.94-1.6,1.46-2.63,1.46Z"/><path class="uuid-a775a83d-7b18-45d7-ba04-d14284e5b69c" d="M481.64,302.36c-.69,0-1.38-.23-1.96-.7-1.32-1.08-1.52-3.04-.44-4.36,8.15-9.96-.21-25.11-.3-25.26-.84-1.49-.31-3.38,1.18-4.22,1.49-.84,3.38-.31,4.22,1.18.44.77,10.49,19.03-.3,32.22-.61.75-1.5,1.14-2.4,1.14Z"/><path class="uuid-a775a83d-7b18-45d7-ba04-d14284e5b69c" d="M486.96,297.04c-.79,0-1.59-.3-2.19-.91-1.21-1.21-1.21-3.17,0-4.38,6.47-6.47,13.74-4.48,16.68-2.52,1.42.95,1.81,2.87.86,4.3-.94,1.41-2.85,1.8-4.27.88-.47-.29-4.53-2.63-8.89,1.72-.6.6-1.4.91-2.19.91Z"/><path class="uuid-6a928796-b7d2-4109-886e-9bb77a54011b" d="M151.68,487.11v-126.12c0-14.09-7.63-27.13-19.91-34.04-4.28-2.41-9.37-2.37-13.61.11-4.24,2.48-6.78,6.9-6.78,11.81v90.86c-4.1-2.42-8.86-3.83-13.95-3.83h-1.06c-9.06,0-17.39,4.41-22.56,11.79-1.65-.31-3.34-.49-5.07-.49h-1.06c-9.46,0-18.15,4.76-23.26,12.74-.05.08-.06.17-.1.25-2.25-.52-4.58-.82-6.98-.82-17.18,0-31.16,13.98-31.16,31.16v222.71c0,.88.72,0,1.6,0h134.22c.88,0,1.6.88,1.6,0v-113.15l1.66-1.66c15.35-15.35,23.8-35.76,23.8-57.47v-15.43c0-12.38-7.08-23.12-17.39-28.44Z"/><path class="uuid-a775a83d-7b18-45d7-ba04-d14284e5b69c" d="M104.87,629.67c-.79,0-1.59-.3-2.19-.91-1.21-1.21-1.21-3.17,0-4.38l39.26-39.26c14.46-14.46,22.43-33.69,22.43-54.15v-15.43c0-15.05-12.25-27.3-27.3-27.3h-57.07c-3.29,0-6.38,1.44-8.5,3.95-2.11,2.51-3.01,5.81-2.45,9.04,1.53,8.86,8.52,15.76,17.4,17.18l33.97,5.4c1.48.24,2.58,1.5,2.61,2.99.03,1.5-1.02,2.8-2.48,3.1-.1.02-9.84,2.04-19.38,8.22-12.41,8.04-18.71,19.07-18.71,32.8,0,1.71-1.39,3.1-3.1,3.1s-3.1-1.39-3.1-3.1c0-15.8,7.51-28.98,21.71-38.11,3.12-2,6.23-3.6,9.06-4.86l-21.56-3.43c-11.5-1.83-20.55-10.77-22.53-22.24-.87-5.04.52-10.17,3.82-14.09,3.29-3.91,8.12-6.16,13.23-6.16h57.07c18.47,0,33.5,15.03,33.5,33.5v15.43c0,22.11-8.61,42.9-24.24,58.53l-39.26,39.26c-.6.6-1.4.91-2.19.91Z"/><path class="uuid-a775a83d-7b18-45d7-ba04-d14284e5b69c" d="M150.08,490.55c-1.71,0-3.1-1.39-3.1-3.1v-126.47c0-12.4-6.71-23.87-17.52-29.95-2.81-1.59-6.15-1.56-8.94.07-2.78,1.63-4.45,4.53-4.45,7.75v90.95c0,1.71-1.39,3.1-3.1,3.1s-3.1-1.39-3.1-3.1v-90.95c0-5.45,2.81-10.35,7.52-13.1,4.7-2.75,10.35-2.8,15.1-.13,12.75,7.17,20.67,20.72,20.67,35.35v126.47c0,1.71-1.39,3.1-3.1,3.1Z"/><path class="uuid-a775a83d-7b18-45d7-ba04-d14284e5b69c" d="M123.42,487.07c-1.71,0-3.1-1.39-3.1-3.1v-30.49c0-12.62-10.27-22.89-22.89-22.89h-1.06c-7.85,0-15.06,3.95-19.3,10.57-.93,1.44-2.84,1.86-4.28.94-1.44-.92-1.86-2.84-.94-4.28,5.38-8.41,14.54-13.43,24.52-13.43h1.06c16.04,0,29.09,13.05,29.09,29.09v30.49c0,1.71-1.39,3.1-3.1,3.1Z"/><path class="uuid-a775a83d-7b18-45d7-ba04-d14284e5b69c" d="M94.73,487.92c-1.71,0-3.1-1.39-3.1-3.1v-20.03c0-12.62-10.27-22.89-22.89-22.89h-1.06c-7.85,0-15.06,3.95-19.29,10.57-.93,1.44-2.84,1.86-4.28.94-1.44-.92-1.86-2.84-.94-4.28,5.38-8.41,14.54-13.43,24.52-13.43h1.06c16.04,0,29.08,13.05,29.08,29.08v20.03c0,1.71-1.39,3.1-3.1,3.1Z"/><path class="uuid-a775a83d-7b18-45d7-ba04-d14284e5b69c" d="M142.01,706.34c-1.71,0-3.1-1.39-3.1-3.1v-108.88c0-1.71,1.39-3.1,3.1-3.1s3.1,1.39,3.1,3.1v108.88c0,1.71-1.39,3.1-3.1,3.1Z"/><path class="uuid-a775a83d-7b18-45d7-ba04-d14284e5b69c" d="M7.79,706.34c-1.71,0-3.1-1.39-3.1-3.1v-222.7c0-18.01,14.65-32.66,32.66-32.66s32.66,14.65,32.66,32.66v42.56c0,6.03-4.91,10.94-10.94,10.94-12.73,0-23.09-10.36-23.09-23.09v-20.01c0-1.71,1.39-3.1,3.1-3.1s3.1,1.39,3.1,3.1v20.01c0,9.31,7.58,16.89,16.89,16.89,2.61,0,4.74-2.13,4.74-4.74v-42.56c0-14.59-11.87-26.46-26.46-26.46s-26.46,11.87-26.46,26.46v222.7c0,1.71-1.39,3.1-3.1,3.1Z"/><path class="uuid-a775a83d-7b18-45d7-ba04-d14284e5b69c" d="M46.04,494.04h-14.78c-1.71,0-3.1-1.39-3.1-3.1s1.39-3.1,3.1-3.1h14.78c1.71,0,3.1,1.39,3.1,3.1s-1.39,3.1-3.1,3.1Z"/><path class="uuid-6a928796-b7d2-4109-886e-9bb77a54011b" d="M555.66,703.24l.45-68.26-3.19-60.24c-1.44-27.15,7.81-53.79,25.77-74.2l51.72-58.79c4.37-4.97,11.3-6.79,17.55-4.62l.38.13c10.07,3.5,14.46,15.23,9.19,24.43-11,19.22-27.02,47.2-27.02,47.2l72.68,19.85,84.14-33.91c8.05-3.24,17.26-.14,21.72,7.3l.16.27c2.82,4.71,1.15,10.74-3.63,13.3-33.67,18.01-152.08,82.71-152.08,82.71l12.52,104.83h-110.36Z"/><path class="uuid-a775a83d-7b18-45d7-ba04-d14284e5b69c" d="M666.02,706.34c-1.55,0-2.89-1.16-3.07-2.73l-12.52-104.83c-.15-1.26.48-2.48,1.59-3.09,1.18-.65,118.81-64.92,152.1-82.72,1.55-.83,2.66-2.22,3.13-3.91.47-1.72.23-3.52-.7-5.06l-.16-.27c-3.69-6.18-11.23-8.72-17.9-6.02l-84.14,33.91c-.64.25-1.32.29-1.98.11l-72.68-19.85c-.92-.25-1.68-.92-2.04-1.8-.37-.89-.3-1.89.17-2.72l27.02-47.2c2.05-3.58,2.4-7.84.95-11.71-1.45-3.88-4.54-6.89-8.47-8.26l-.38-.13c-5.07-1.77-10.65-.3-14.2,3.74l-51.72,58.79c-17.53,19.92-26.41,45.49-25,71.99l3.19,60.24-.45,68.44c-.01,1.7-1.4,3.08-3.1,3.08h-.02c-1.71-.01-3.09-1.41-3.08-3.12l.45-68.26-3.19-60.05c-1.49-28.13,7.93-55.26,26.54-76.41l51.72-58.79c5.23-5.94,13.42-8.09,20.89-5.5l.38.13c5.67,1.98,10.13,6.33,12.23,11.94,2.09,5.59,1.59,11.77-1.37,16.95l-25.03,43.73,67.81,18.52,83.17-33.52c9.53-3.84,20.26-.23,25.53,8.59l.16.27c1.81,3.02,2.29,6.53,1.36,9.9-.93,3.34-3.12,6.08-6.18,7.72-30.97,16.57-135.05,73.41-150.22,81.69l12.28,102.75c.2,1.7-1.01,3.24-2.71,3.44-.12.01-.25.02-.37.02Z"/><path class="uuid-6a928796-b7d2-4109-886e-9bb77a54011b" d="M741.95,530.79l32.75-57.45c3.03-5.31-1.23-11.82-7.31-11.16h0c-7.75.83-14.79,4.88-19.41,11.15l-40.13,51.3,34.11,6.16Z"/><path class="uuid-a775a83d-7b18-45d7-ba04-d14284e5b69c" d="M741.94,533.89c-.52,0-1.05-.13-1.53-.41-1.49-.85-2.01-2.74-1.16-4.22l32.75-57.45c.83-1.46.78-3.18-.14-4.59-.92-1.41-2.44-2.15-4.15-1.96-6.87.74-13.15,4.35-17.25,9.91l-40.19,51.37c-1.06,1.34-3,1.59-4.35.53-1.35-1.05-1.59-3-.53-4.35l40.13-51.3c5.07-6.88,12.93-11.4,21.52-12.33,3.98-.45,7.8,1.38,9.99,4.73,2.19,3.34,2.32,7.58.34,11.05l-32.75,57.45c-.57,1-1.62,1.56-2.7,1.56Z"/><path class="uuid-6a928796-b7d2-4109-886e-9bb77a54011b" d="M627.35,563.31l49.98-26.5,27.33-56.17c3.73-7.67,11.23-12.8,19.73-13.5h0c5.5-.46,9.69,4.82,8,10.08l-23.47,72.98-81.57,13.12Z"/><path class="uuid-a775a83d-7b18-45d7-ba04-d14284e5b69c" d="M627.35,566.41c-1.11,0-2.18-.6-2.74-1.65-.8-1.51-.22-3.39,1.29-4.19l49.09-26.03,26.88-55.26c4.19-8.61,12.71-14.44,22.26-15.24,3.61-.29,7.12,1.22,9.38,4.06,2.26,2.84,2.94,6.6,1.83,10.05l-23.47,72.98c-.52,1.63-2.25,2.53-3.9,2-1.63-.53-2.52-2.27-2-3.9l23.47-72.98c.48-1.5.2-3.07-.78-4.3-.98-1.23-2.47-1.85-4.01-1.74-7.37.61-13.96,5.12-17.2,11.77l-27.33,56.17c-.29.59-.76,1.07-1.33,1.38l-49.98,26.5c-.46.25-.96.36-1.45.36Z"/><path d="M724.59,307.37l-18.55,12.23c-22.02,14.52-55.93,6.02-81.1-22.18-28.77-32.22-35.22-77.95-14.42-102.14l18.54-12.23c-20.8,24.19-14.34,69.92,14.42,102.14,25.16,28.19,59.07,36.7,81.09,22.18Z"/><path class="uuid-bc87f916-af60-472b-840b-4b7c15892de4" d="M629.07,183.04c20.8-24.19,60.97-17.68,89.74,14.54,28.76,32.22,35.22,77.95,14.42,102.14-20.8,24.19-60.98,17.68-89.74-14.54-28.77-32.22-35.22-77.95-14.42-102.14Z"/><path class="uuid-bc87f916-af60-472b-840b-4b7c15892de4" d="M642.89,198.51c15.28-17.77,44.8-12.98,65.94,10.69,21.13,23.68,25.88,57.28,10.6,75.05-15.28,17.77-44.8,12.99-65.94-10.69-21.14-23.67-25.88-57.27-10.6-75.05Z"/><rect class="uuid-a775a83d-7b18-45d7-ba04-d14284e5b69c" x="606.06" y="140.12" width="6.2" height="19.34"/><rect class="uuid-a775a83d-7b18-45d7-ba04-d14284e5b69c" x="599.48" y="146.7" width="19.35" height="6.2"/><rect class="uuid-a775a83d-7b18-45d7-ba04-d14284e5b69c" x="610.07" y="334.18" width="6.2" height="35.06"/><rect class="uuid-a775a83d-7b18-45d7-ba04-d14284e5b69c" x="595.63" y="348.61" width="35.06" height="6.2"/><rect class="uuid-a775a83d-7b18-45d7-ba04-d14284e5b69c" x="661.56" y="249.13" width="6.2" height="34.46"/><rect class="uuid-a775a83d-7b18-45d7-ba04-d14284e5b69c" x="647.43" y="263.26" width="34.46" height="6.2"/><path d="M714.08,216.62c-4.33,0-8.58-.62-12.64-1.9-.28-.09-.54-.21-.77-.37l-15.46-10.23c-1.29-.85-1.75-2.52-1.09-3.92.67-1.4,2.27-2.08,3.73-1.62,23.93,7.58,55.28-11.66,69.91-42.88,12.44-26.54,8.88-54.14-8.48-65.62h0c-1.43-.94-1.82-2.87-.87-4.29.94-1.43,2.86-1.82,4.29-.87l15.46,10.23c19.94,13.19,24.42,44.07,10.67,73.42-13.49,28.79-40.52,48.06-64.76,48.06ZM703.72,208.94c23.85,7.24,54.96-11.95,69.51-43,11.95-25.5,9.13-51.99-6.51-64.2,6.95,15.39,6.14,36.36-3.35,56.6-13.26,28.3-39.62,47.41-63.53,48.04l3.88,2.57Z"/><path d="M698.61,206.39c-4.33,0-8.57-.61-12.63-1.9h0c-10.78-3.42-19.01-10.99-23.78-21.89-6.94-15.85-5.61-36.27,3.64-56.03,15.9-33.94,50.62-54.65,77.39-46.16,10.79,3.42,19.01,10.99,23.79,21.9,6.94,15.85,5.61,36.27-3.65,56.02-13.49,28.79-40.53,48.06-64.76,48.06ZM687.85,198.58c23.93,7.58,55.28-11.66,69.91-42.88,8.37-17.87,9.71-36.9,3.58-50.91-4.04-9.22-10.95-15.61-19.98-18.48-23.94-7.58-55.27,11.66-69.91,42.88-8.37,17.87-9.71,36.91-3.58,50.92,4.04,9.22,10.95,15.61,19.98,18.47h0Z"/><path d="M800.31,281.55c-17.83,0-32.33-14.5-32.33-32.33s14.5-32.33,32.33-32.33,32.33,14.5,32.33,32.33-14.51,32.33-32.33,32.33ZM800.31,223.09c-14.41,0-26.13,11.72-26.13,26.13s11.72,26.13,26.13,26.13,26.14-11.72,26.14-26.13-11.73-26.13-26.14-26.13Z"/><path d="M796.31,262.34c-.31,0-.57-.04-.79-.08-5.31-.89-10.65-9.57-12.16-12.21l5.38-3.08c2.41,4.2,5.76,8.25,7.42,9.05,2.83-1.65,10.65-12.08,16.51-21.29l5.23,3.33c-14.09,22.13-19.35,24.29-21.59,24.29ZM795.84,256.17h0Z"/></svg>