<?xml version="1.0" encoding="UTF-8"?><svg id="uuid-442c79ec-bc26-4530-a700-dca8e650ecb1" xmlns="http://www.w3.org/2000/svg" viewBox="0 0 817.26 711.93"><defs><style>.uuid-f9156e21-4fe3-40ec-9eb7-db4435d6f5ba{fill:#0e74bb;}.uuid-9e0f1c92-d30a-4473-bde8-bf1f7a3bb6a4{fill:#fff;}.uuid-44e21526-5faa-4ece-bb1a-092c8295f7c2{fill:#080717;}.uuid-885e4b08-63f9-43e4-bbb6-e71ae6ba0344{fill:#1d1d1b;}</style></defs><ellipse class="uuid-44e21526-5faa-4ece-bb1a-092c8295f7c2" cx="160.53" cy="675.96" rx="100.72" ry="35.97"/><path class="uuid-9e0f1c92-d30a-4473-bde8-bf1f7a3bb6a4" d="M225.16,569.95v-99.96c0-42.8-9.29-85.08-27.22-123.86l-44.3-95.82h0c-14.66,16.42-20.67,38.92-16.18,60.56l17.29,83.21c2.38,11.47-11.45,19.07-19.69,10.81l-44.83-44.96L7.16,444.71l96.61,126.44v96.96l26.36,13.91c21.49,11.34,47.19,11.34,68.67,0l26.36-13.91v-98.15Z"/><path class="uuid-44e21526-5faa-4ece-bb1a-092c8295f7c2" d="M164.47,693.47c-12.26,0-24.53-2.95-35.71-8.85l-26.36-13.91c-.97-.51-1.57-1.51-1.57-2.6v-95.96L4.82,446.49c-.89-1.16-.79-2.8.24-3.85l83.09-84.78c.55-.56,1.3-.88,2.09-.88h.01c.78,0,1.53.31,2.08.87l44.83,44.96c3.38,3.39,7.52,3.01,10.26,1.53,2.81-1.51,5.46-4.85,4.46-9.66l-17.29-83.22c-4.67-22.47,1.64-46.06,16.86-63.12.66-.74,1.66-1.1,2.63-.95.98.15,1.82.78,2.24,1.68l44.3,95.82c17.99,38.9,27.49,82.16,27.49,125.1v198.12c0,1.09-.6,2.09-1.57,2.6l-26.36,13.91c-11.18,5.9-23.45,8.85-35.71,8.85ZM106.72,666.33l24.79,13.08c20.65,10.89,45.29,10.89,65.93,0l24.79-13.08v-196.34c0-42.09-9.32-84.5-26.94-122.63l-42.35-91.59c-11.87,15.3-16.56,35.34-12.58,54.5l17.29,83.22c1.37,6.58-1.55,12.87-7.43,16.04-5.81,3.13-12.56,2.12-17.23-2.55l-42.73-42.85L11.05,444.95l95.07,124.42c.39.51.6,1.14.6,1.79v95.18ZM225.16,668.11h.03-.03Z"/><rect class="uuid-f9156e21-4fe3-40ec-9eb7-db4435d6f5ba" x="78.88" y="31.07" width="442.54" height="418.87" rx="12.89" ry="12.89" transform="translate(-34.89 51.61) rotate(-9.29)"/><path class="uuid-44e21526-5faa-4ece-bb1a-092c8295f7c2" d="M492.8,48.26l-2.08-12.71c-3.38-20.68-22.89-34.7-43.57-31.32L85.31,63.43c-20.68,3.38-34.7,22.89-31.32,43.57l2.08,12.71L492.8,48.26Z"/><path class="uuid-9e0f1c92-d30a-4473-bde8-bf1f7a3bb6a4" d="M142.54,287.31l-.54-3.29c-1.88-11.46,5.9-22.28,17.36-24.15l265.99-43.51c11.46-1.88,22.28,5.9,24.15,17.36l.54,3.29c1.88,11.46-5.9,22.28-17.36,24.15l-265.99,43.51c-11.46,1.88-22.28-5.9-24.15-17.36Z"/><path class="uuid-44e21526-5faa-4ece-bb1a-092c8295f7c2" d="M339.75,255.09l-.54-3.29c-1.87-11.45,5.89-22.25,17.34-24.12l71.77-11.74c11.45-1.87,22.25,5.89,24.12,17.34l.54,3.29c1.87,11.45-5.89,22.25-17.34,24.12l-71.77,11.74c-11.45,1.87-22.25-5.89-24.12-17.34Z"/><rect class="uuid-9e0f1c92-d30a-4473-bde8-bf1f7a3bb6a4" x="246.77" y="184.53" width="67.76" height="13.89" transform="translate(-27.23 47.82) rotate(-9.29)"/><rect class="uuid-9e0f1c92-d30a-4473-bde8-bf1f7a3bb6a4" x="196.01" y="150.26" width="158.07" height="13.89" transform="translate(-21.77 46.46) rotate(-9.29)"/><rect class="uuid-9e0f1c92-d30a-4473-bde8-bf1f7a3bb6a4" x="366.6" y="237.06" width="46.92" height="13.89" transform="translate(-34.27 66.16) rotate(-9.29)"/><rect class="uuid-9e0f1c92-d30a-4473-bde8-bf1f7a3bb6a4" x="82.45" y="80.47" width="12.98" height="13.89" transform="translate(-12.94 15.5) rotate(-9.29)"/><rect class="uuid-9e0f1c92-d30a-4473-bde8-bf1f7a3bb6a4" x="109.59" y="76.03" width="12.98" height="13.89" transform="translate(-11.87 19.82) rotate(-9.29)"/><rect class="uuid-9e0f1c92-d30a-4473-bde8-bf1f7a3bb6a4" x="136.73" y="71.59" width="12.97" height="13.89" transform="translate(-10.8 24.15) rotate(-9.29)"/><circle class="uuid-f9156e21-4fe3-40ec-9eb7-db4435d6f5ba" cx="533.03" cy="131.36" r="61.59"/><polygon class="uuid-44e21526-5faa-4ece-bb1a-092c8295f7c2" points="519.71 158.6 502.83 141.72 506.99 137.55 519.68 150.24 560.48 108.87 564.67 113.01 519.71 158.6"/><rect class="uuid-f9156e21-4fe3-40ec-9eb7-db4435d6f5ba" x="391.76" y="462.56" width="31.78" height="31.78"/><rect class="uuid-f9156e21-4fe3-40ec-9eb7-db4435d6f5ba" x="391.76" y="519.94" width="31.78" height="31.78"/><path class="uuid-44e21526-5faa-4ece-bb1a-092c8295f7c2" d="M423.54,610.93h-31.78c-1.63,0-2.94-1.32-2.94-2.94v-31.78c0-1.63,1.32-2.94,2.94-2.94h31.78c1.63,0,2.94,1.32,2.94,2.94v31.78c0,1.63-1.32,2.94-2.94,2.94ZM394.7,605.04h25.9v-25.89h-25.9v25.89Z"/><rect class="uuid-44e21526-5faa-4ece-bb1a-092c8295f7c2" x="443.41" y="474.18" width="114.54" height="5.89"/><polygon class="uuid-44e21526-5faa-4ece-bb1a-092c8295f7c2" points="409.64 486.57 397.63 474.55 401.79 470.39 409.64 478.24 434.7 453.18 438.87 457.34 409.64 486.57"/><rect class="uuid-44e21526-5faa-4ece-bb1a-092c8295f7c2" x="443.41" y="531.56" width="88.11" height="5.89"/><rect class="uuid-44e21526-5faa-4ece-bb1a-092c8295f7c2" x="443.41" y="587.82" width="63.56" height="5.89"/><polygon class="uuid-44e21526-5faa-4ece-bb1a-092c8295f7c2" points="409.64 543.95 397.63 531.94 401.79 527.77 409.64 535.62 434.7 510.56 438.87 514.72 409.64 543.95"/><ellipse class="uuid-44e21526-5faa-4ece-bb1a-092c8295f7c2" cx="641.69" cy="665.98" rx="131.25" ry="35.97"/><path class="uuid-9e0f1c92-d30a-4473-bde8-bf1f7a3bb6a4" d="M702.9,668.66l31.29-199.73c12.83,4.67,26.96,4.33,39.55-1.02h0c18.3-7.79,30.83-25.02,32.61-44.83l7.76-86.68c1.31-14.69-3.6-29.26-13.54-40.15l-6.63-7.27-8.99-22.21c-5.17-12.77-18.96-19.79-32.32-16.44l-48.35,12.09c-8.52,2.13-16.63-4.7-15.98-13.46l7.57-101.5c.91-12.21-8.75-22.63-21-22.63h0c-10.17,0-18.89,7.27-20.72,17.27l-18.82,102.88c-4.91,26.87-6.13,54.24-3.66,81.36l-94.42,342.33,10.57,1.98c51.32,9.59,104.02,8.92,155.08-1.98h0Z"/><path class="uuid-44e21526-5faa-4ece-bb1a-092c8295f7c2" d="M620.47,680.35c-24.43,0-48.87-2.27-73.19-6.82l-10.57-1.98c-.81-.15-1.52-.64-1.95-1.33-.44-.7-.56-1.55-.34-2.34l94.28-341.81c-2.43-27.28-1.17-54.73,3.75-81.62l18.82-102.88c2.08-11.41,12.01-19.68,23.61-19.68,6.66,0,13.07,2.8,17.6,7.68,4.53,4.88,6.84,11.48,6.34,18.11l-7.57,101.5c-.24,3.22,1.04,6.26,3.51,8.34,2.48,2.08,5.68,2.83,8.82,2.04l48.35-12.09c14.67-3.68,30.08,4.14,35.76,18.2l8.79,21.72,6.28,6.87c10.47,11.47,15.69,26.92,14.3,42.39l-7.76,86.68c-1.87,20.93-15.05,39.05-34.39,47.27-12.19,5.19-25.67,5.94-38.33,2.2l-30.75,196.31c-.19,1.2-1.1,2.17-2.29,2.42-27.51,5.87-55.26,8.81-83.04,8.81ZM540.94,666.36l7.43,1.39c50.54,9.45,101.65,8.93,151.94-1.55l30.97-197.72c.14-.87.66-1.63,1.41-2.08.76-.45,1.67-.53,2.5-.23,12.21,4.44,25.49,4.09,37.39-.97,17.34-7.38,29.15-23.62,30.83-42.38l7.76-86.68c1.24-13.83-3.42-27.64-12.78-37.9l-6.63-7.27c-.24-.26-.43-.56-.55-.88l-8.99-22.21c-4.59-11.35-17-17.66-28.88-14.69l-48.35,12.09c-4.98,1.25-10.11.06-14.04-3.25-3.93-3.31-5.97-8.16-5.58-13.29l7.57-101.5c.38-5.08-1.32-9.94-4.78-13.67-3.47-3.74-8.18-5.79-13.28-5.79-8.75,0-16.24,6.25-17.82,14.86l-18.82,102.88c-4.86,26.53-6.07,53.64-3.63,80.56.03.35,0,.71-.1,1.05l-93.57,339.24ZM702.9,668.66h.03-.03Z"/><path class="uuid-44e21526-5faa-4ece-bb1a-092c8295f7c2" d="M733.34,471.6c-.35,0-.71-.06-1.05-.2l-61.97-23.71c-24.49-9.37-39.67-34.12-36.92-60.2l1.88-17.92-3.04-16.97c-.29-1.6.78-3.13,2.38-3.42,1.61-.28,3.13.78,3.42,2.38l3.11,17.38c.05.27.06.55.03.83l-1.93,18.33c-2.47,23.43,11.18,45.66,33.17,54.08l61.97,23.71c1.52.58,2.28,2.28,1.7,3.8-.45,1.17-1.56,1.89-2.75,1.89Z"/><path class="uuid-44e21526-5faa-4ece-bb1a-092c8295f7c2" d="M683.7,381.94c-5.79,0-11-3.74-12.77-9.4l-6.4-20.43c-1.1-3.5-.73-7.2,1.02-10.42,1.76-3.22,4.67-5.53,8.21-6.5l14.65-4.54c1.56-.47,3.2.39,3.68,1.94s-.39,3.2-1.94,3.68l-14.74,4.56c-2.07.57-3.71,1.87-4.69,3.67-.99,1.81-1.19,3.88-.57,5.84l6.4,20.43c1.1,3.5,4.55,5.7,8.16,5.21l79.17-10.49c1.62-.21,3.09.92,3.31,2.53.21,1.61-.92,3.09-2.53,3.3l-79.17,10.49c-.6.08-1.2.12-1.79.12Z"/><path class="uuid-44e21526-5faa-4ece-bb1a-092c8295f7c2" d="M692.72,423.15c-6.02,0-11.29-3.82-13.16-9.56l-6.31-19.36c-1.31-4.02-.73-8.35,1.59-11.88,2.32-3.53,6.06-5.79,10.27-6.19l5.83-.7c1.63-.19,3.08.96,3.28,2.57.19,1.61-.96,3.08-2.57,3.27l-5.91.71c-2.49.24-4.64,1.54-5.97,3.57-1.33,2.03-1.66,4.52-.91,6.83l6.31,19.36c1.07,3.3,4.1,5.49,7.56,5.49.03,0,.07,0,.11,0l71.4-.95h.04c1.61,0,2.92,1.29,2.94,2.91.02,1.63-1.28,2.96-2.9,2.98l-71.4.95c-.06,0-.13,0-.19,0Z"/><path class="uuid-44e21526-5faa-4ece-bb1a-092c8295f7c2" d="M676.89,339.21c-6.25,0-12.03-4.15-13.79-10.43l-4.47-15.95c-1.82-6.5,1.21-13.47,7.21-16.56,69.11-35.57,70.97-35.57,72.08-35.57,1.63,0,2.94,1.32,2.94,2.94,0,1.46-1.07,2.68-2.47,2.91-3.2,1.03-29.87,14.37-69.86,34.95-3.53,1.82-5.31,5.91-4.24,9.73l4.47,15.95c1.23,4.4,5.83,7.02,10.25,5.85l72.85-19.37c1.57-.42,3.18.52,3.6,2.09.42,1.57-.52,3.18-2.09,3.6l-72.85,19.37c-1.21.32-2.43.48-3.64.48Z"/><path class="uuid-44e21526-5faa-4ece-bb1a-092c8295f7c2" d="M755.09,466.29c-.27,0-.55-.04-.83-.12l-60.57-17.85c-3.15-.93-5.63-3.48-6.46-6.66l-3.3-12.59c-.73-2.8-.16-5.73,1.58-8.04,1.73-2.31,4.39-3.69,7.28-3.77,1.58-.06,2.98,1.23,3.03,2.86.05,1.63-1.24,2.98-2.86,3.03-1.09.03-2.08.55-2.73,1.42-.65.87-.87,1.97-.59,3.02l3.3,12.59c.31,1.19,1.24,2.15,2.42,2.5l60.57,17.85c1.56.46,2.45,2.1,1.99,3.66-.38,1.28-1.55,2.11-2.82,2.11Z"/><path class="uuid-44e21526-5faa-4ece-bb1a-092c8295f7c2" d="M699.59,449.12c-1.45,0-2.71-1.07-2.91-2.54l-20.03-143.91c-.22-1.61.9-3.1,2.51-3.32,1.62-.24,3.1.9,3.32,2.51l20.03,143.91c.22,1.61-.9,3.1-2.51,3.32-.14.02-.27.03-.41.03Z"/><path class="uuid-9e0f1c92-d30a-4473-bde8-bf1f7a3bb6a4" d="M52.69,381.63l-41.57-123.33,48.18-70.65h0c11.59,14.35,13.61,34.19,5.15,50.58l-11.76,22.8,42.93,100.17-42.93,20.44Z"/><path class="uuid-44e21526-5faa-4ece-bb1a-092c8295f7c2" d="M52.68,384.57c-.39,0-.78-.08-1.15-.23-.78-.33-1.37-.97-1.64-1.77l-41.56-123.33c-.3-.87-.16-1.84.36-2.6l48.18-70.65c.53-.77,1.38-1.25,2.31-1.28.88-.04,1.82.37,2.41,1.09,12.31,15.25,14.46,36.36,5.47,53.78l-11.13,21.56,42.38,98.89c.62,1.45-.01,3.14-1.44,3.82l-42.93,20.44c-.4.19-.83.29-1.27.29ZM14.38,258.74l40.04,118.8,37.38-17.8-41.81-97.56c-.35-.81-.31-1.73.09-2.51l11.76-22.8c7.3-14.15,6.26-31.05-2.44-44.14l-45.01,66Z"/><path class="uuid-9e0f1c92-d30a-4473-bde8-bf1f7a3bb6a4" d="M175.58,516.85h-.48c-1.63-17.37-10.53-34.03-26.17-45-10.72-7.52-23.67-11.18-36.76-11.18h-53.87l27.6-27.6,23.34-7.34,2.49-.78c2.46-.77,4.79-1.78,7.02-2.96,7.27-3.84,13.2-9.68,17.12-16.75,3.04-5.47,4.88-11.65,5.22-18.17h0l-72.06,10.73-34.36,20.72,43.9-41.68,55.15-6.51c18.46-2.18,33.08-16.62,35.48-35.05l-107.66,8.18-16.35,12.55v-39.81l53.14-17.29c20.02-6.51,34.57-23.87,37.48-44.71L2.94,288.27v149.4h0v26.06h0l82.15,92.44c1.89,1.82,3.9,3.45,5.96,4.98v106.96h0c18.6,14.42,41.47,22.24,65.01,22.24h16.45l3.06-173.5Z"/><path class="uuid-44e21526-5faa-4ece-bb1a-092c8295f7c2" d="M172.52,693.3h-16.45c-24.06,0-47.79-8.12-66.81-22.86-.72-.56-1.14-1.42-1.14-2.33v-105.49c-1.94-1.49-3.57-2.89-5.07-4.33L.74,465.69c-.48-.54-.74-1.23-.74-1.95v-175.46c0-1.34.91-2.52,2.21-2.85l132.87-34.07c.95-.24,1.96,0,2.69.66.73.65,1.09,1.63.95,2.6-3.05,21.8-18.55,40.29-39.49,47.11l-51.11,16.63v31.7l11.61-8.92c.45-.35,1-.56,1.57-.6l107.66-8.18c.88-.07,1.75.27,2.36.91.61.64.9,1.53.78,2.41-2.58,19.79-18.23,35.25-38.05,37.59l-54.17,6.4-23.56,22.37,11.19-6.75c.33-.2.7-.33,1.09-.39l72.06-10.73c.87-.14,1.76.14,2.41.73.65.59,1.01,1.45.96,2.33-.36,6.78-2.29,13.5-5.59,19.45-4.23,7.63-10.57,13.83-18.32,17.92-2.5,1.32-5.02,2.38-7.51,3.16l-25.14,7.9-22.06,22.06h46.76c14.23,0,27.52,4.05,38.45,11.72,15.2,10.67,25.07,27.2,27.24,45.56.41.51.66,1.15.66,1.85,0,1.63-1.32,2.94-2.94,2.94h-.47c-1.52,0-2.79-1.16-2.93-2.67-1.62-17.26-10.71-32.89-24.93-42.86-9.93-6.97-22.05-10.65-35.07-10.65h-53.87c-1.19,0-2.27-.72-2.72-1.82-.46-1.1-.2-2.37.64-3.21l27.6-27.6c.34-.33.75-.58,1.2-.73l25.83-8.12c2.15-.67,4.34-1.6,6.53-2.75,6.74-3.56,12.24-8.94,15.92-15.57,2.27-4.1,3.8-8.63,4.49-13.27l-67.74,10.09-33.86,20.42c-1.29.78-2.95.46-3.86-.74-.91-1.19-.77-2.88.32-3.92l43.9-41.68c.46-.44,1.05-.71,1.68-.79l55.15-6.51c15.92-1.88,28.72-13.54,32.26-28.91l-103,7.82-15.66,12.02c-.89.68-2.09.8-3.1.3-1.01-.5-1.64-1.52-1.64-2.64v-39.81c0-1.28.82-2.4,2.03-2.8l53.14-17.29c17.38-5.66,30.59-20.27,34.66-37.92L5.89,290.56v172.06l81.41,91.6c1.44,1.38,3.25,2.88,5.52,4.57.75.56,1.19,1.43,1.19,2.36v105.5c17.8,13.4,39.78,20.76,62.06,20.76h16.45c1.63,0,2.94,1.32,2.94,2.94s-1.32,2.94-2.94,2.94Z"/><rect class="uuid-885e4b08-63f9-43e4-bbb6-e71ae6ba0344" x="-7.1" y="364.87" width="80.57" height="5.89" transform="translate(-232.27 111.07) rotate(-40.8)"/><rect class="uuid-885e4b08-63f9-43e4-bbb6-e71ae6ba0344" x="-3.37" y="415.89" width="81" height="5.89" transform="translate(-230.34 94.39) rotate(-34.44)"/></svg>