<?xml version="1.0" encoding="utf-8"?>
<!-- Generator: Adobe Illustrator 27.5.0, SVG Export Plug-In . SVG Version: 6.00 Build 0)  -->
<svg version="1.1" id="Layer_1" xmlns="http://www.w3.org/2000/svg" xmlns:xlink="http://www.w3.org/1999/xlink" x="0px" y="0px"
	 viewBox="0 0 2500 2500" style="enable-background:new 0 0 2500 2500;" xml:space="preserve">
<rect y="0" style="fill:#08082D;" width="2500" height="2500"/>
<g>
	<linearGradient id="SVGID_1_" gradientUnits="userSpaceOnUse" x1="942.9801" y1="2045.0588" x2="1460.085" y2="624.325">
		<stop  offset="0" style="stop-color:#2254E3"/>
		<stop  offset="0.4049" style="stop-color:#0080FF"/>
		<stop  offset="0.4388" style="stop-color:#018AFF"/>
		<stop  offset="0.6484" style="stop-color:#08C5FF"/>
		<stop  offset="0.8033" style="stop-color:#0BE9FF"/>
		<stop  offset="0.8854" style="stop-color:#0DF7FF"/>
	</linearGradient>
	<path style="fill:url(#SVGID_1_);" d="M1992.155,1214.074l-51.133-26.133c2.289-23.45,0.852-46.9-4.287-69.867l47.432-32.224
		c3.182-2.162,4.291-6.332,2.6-9.789l-32.869-67.188c-1.693-3.464-5.676-5.155-9.324-3.955l-54.561,17.669
		c-14.967-18.174-32.598-33.722-52.535-46.319l10.756-56.38c0.721-3.777-1.445-7.51-5.084-8.759l-70.742-24.269
		c-3.639-1.23-7.643,0.37-9.395,3.796l-26.072,51.051c-22.836-2.196-45.537-0.893-67.67,3.845
		c-25.59-207.968-202.988-369.845-417.879-370.548l-1.424-0.004c-215.064,0-393.512,162.108-419.223,370.557
		c-22.143-4.735-44.857-6.04-67.686-3.85l-26.072-51.051c-1.752-3.427-5.736-5.03-9.395-3.796l-70.742,24.269
		c-3.635,1.249-5.803,4.981-5.082,8.759l10.754,56.38c-19.936,12.597-37.566,28.145-52.533,46.319l-54.563-17.669
		c-3.668-1.196-7.633,0.502-9.324,3.955l-32.869,67.188c-1.691,3.457-0.582,7.627,2.6,9.789l47.434,32.224
		c-5.141,22.967-6.578,46.417-4.287,69.867l-51.135,26.133c-3.424,1.751-5.043,5.751-3.793,9.389l24.258,70.743
		c1.246,3.638,4.98,5.766,8.754,5.087l56.352-10.74c12.652,19.922,28.203,37.538,46.322,52.489l-17.65,54.599
		c-1.182,3.661,0.506,7.63,3.959,9.321l67.184,32.866c3.445,1.683,7.619,0.585,9.789-2.597l32.262-47.447
		c22.918,5.128,46.357,6.585,69.834,4.366l26.152,51.074c1.354,2.645,4.049,4.208,6.879,4.208c0.834,0,1.68-0.136,2.506-0.419
		l70.746-24.265c3.639-1.245,5.809-4.981,5.088-8.759l-10.76-56.41c21.469-13.559,40.262-30.526,55.928-50.489
		c0.141-0.179,0.268-0.365,0.389-0.552c76.529,71.429,175.221,111.39,280.23,113.269v145.701c0,4.268,3.461,7.728,7.729,7.728
		c4.27,0,7.73-3.46,7.73-7.728v-145.703c107.971-1.945,206.283-44.733,280.059-113.541c0.168,0.282,0.35,0.56,0.557,0.825
		c15.666,19.963,34.459,36.93,55.928,50.489l-10.76,56.41c-0.721,3.778,1.449,7.514,5.088,8.759l70.746,24.265
		c0.826,0.283,1.672,0.419,2.506,0.419c2.83,0,5.525-1.563,6.879-4.208l26.152-51.074c23.461,2.219,46.912,0.762,69.834-4.366
		l32.262,47.447c2.162,3.181,6.336,4.28,9.789,2.597l67.184-32.866c3.453-1.691,5.141-5.661,3.959-9.321l-17.65-54.599
		c18.119-14.952,33.67-32.568,46.324-52.489l56.35,10.74c3.766,0.679,7.506-1.449,8.754-5.087l24.258-70.743
		C1997.198,1219.825,1995.579,1215.825,1992.155,1214.074z M1649.579,1144.195c9.721-28.33,36.359-47.368,66.293-47.368
		c7.717,0,15.367,1.283,22.74,3.812c17.711,6.076,31.994,18.68,40.221,35.5c8.227,16.816,9.412,35.828,3.34,53.535
		c-9.721,28.337-36.359,47.376-66.293,47.372c-7.717,0-15.371-1.283-22.744-3.812
		C1656.583,1220.693,1637.042,1180.751,1649.579,1144.195z M1249.968,590.457l1.369,0.004
		c108.711,0.355,210.773,43.024,287.387,120.149c76.619,77.12,118.613,179.461,118.258,288.167
		c-0.734,223.674-183.291,405.648-406.945,405.648l-1.369-0.004c-108.711-0.355-210.775-43.025-287.391-120.149
		c-76.615-77.12-118.613-179.461-118.258-288.168C843.753,772.431,1026.313,590.457,1249.968,590.457z M806.864,1233.233
		c-7.377,2.528-15.029,3.812-22.744,3.812c-29.934,0-56.572-19.035-66.293-47.372c-12.537-36.553,7-76.494,43.557-89.034
		c7.377-2.529,15.027-3.812,22.744-3.812c29.934,0,56.572,19.038,66.293,47.368C862.958,1180.751,843.417,1220.693,806.864,1233.233
		z M949.493,1297.549c-15.608,19.888-34.559,36.579-56.326,49.61c-2.781,1.664-4.23,4.891-3.623,8.079l10.502,55.063l-58.074,19.918
		l-25.518-49.84c-1.475-2.883-4.631-4.536-7.793-4.155c-25.205,3.004-50.402,1.427-74.912-4.683
		c-3.145-0.785-6.441,0.472-8.262,3.151l-31.484,46.304l-55.145-26.975l17.223-53.285c0.996-3.079-0.033-6.457-2.582-8.457
		c-19.85-15.589-36.559-34.519-49.666-56.259c-0.191-0.317-0.404-0.619-0.637-0.906c-1.781-2.204-4.631-3.276-7.461-2.74
		l-54.981,10.48l-19.91-58.067l49.916-25.507c2.887-1.479,4.547-4.6,4.154-7.819c-3.072-25.16-1.527-50.365,4.594-74.92
		c0.783-3.144-0.477-6.442-3.156-8.261l-46.289-31.45l26.979-55.142l53.252,17.242c3.088,1.004,6.465-0.03,8.465-2.585
		c15.611-19.925,34.56-36.632,56.322-49.659c2.781-1.664,4.23-4.891,3.623-8.08l-10.498-55.033l58.063-19.918l25.443,49.817
		c1.475,2.887,4.641,4.559,7.801,4.159c23.508-2.805,46.896-1.661,69.615,3.388c-0.994,11.554-1.529,23.236-1.566,35.033
		c-0.121,36.5,4.367,72.307,13.176,106.761c-15.287-13.498-35.258-21.444-56.609-21.444c-9.426,0-18.768,1.566-27.756,4.649
		c-44.621,15.303-68.471,64.056-53.164,108.669c11.861,34.583,44.375,57.814,80.912,57.814c9.428,0,18.768-1.562,27.756-4.649
		c31.127-10.676,52.141-37.632,56.811-68.105c20.232,42.234,47.645,81.218,81.623,115.42c0.273,0.276,0.553,0.548,0.828,0.823
		C950.53,1296.417,949.976,1296.935,949.493,1297.549z M1959.245,1282.854l-54.98-10.48c-2.793-0.539-5.668,0.544-7.461,2.74
		c-0.232,0.287-0.445,0.589-0.637,0.906c-13.107,21.741-29.816,40.67-49.666,56.259c-2.549,2-3.578,5.378-2.582,8.457l17.223,53.285
		l-55.145,26.975l-31.484-46.304c-1.826-2.679-5.133-3.936-8.262-3.151c-24.514,6.11-49.715,7.687-74.912,4.683
		c-3.182-0.374-6.316,1.276-7.793,4.155l-25.518,49.84l-58.074-19.918l10.502-55.063c0.607-3.189-0.842-6.415-3.623-8.079
		c-21.768-13.031-40.719-29.722-56.326-49.61c-0.551-0.7-1.199-1.272-1.908-1.726c33.723-33.747,61.787-73.148,82.627-116.634
		c4.496,30.703,25.58,57.923,56.898,68.664c8.988,3.083,18.328,4.649,27.756,4.649c0.004,0,0.004,0,0.004,0
		c36.533,0,69.047-23.231,80.908-57.814c7.416-21.612,5.967-44.817-4.074-65.342c-10.043-20.526-27.475-35.915-49.09-43.327
		c-8.988-3.083-18.33-4.649-27.756-4.649c-21.447,0-41.506,8.016-56.818,21.626c8.621-33.325,13.268-68.226,13.387-104.166
		c0.041-12.74-0.484-25.352-1.555-37.812c22.719-5.043,46.104-6.187,69.602-3.386c3.227,0.407,6.334-1.272,7.801-4.159
		l25.443-49.817l58.063,19.918l-10.498,55.033c-0.607,3.189,0.842,6.415,3.623,8.08c21.762,13.027,40.711,29.733,56.322,49.659
		c2,2.555,5.381,3.589,8.465,2.585l53.252-17.242l26.979,55.142l-46.289,31.45c-2.68,1.819-3.939,5.117-3.154,8.261
		c6.121,24.556,7.664,49.761,4.592,74.92c-0.393,3.219,1.268,6.34,4.154,7.819l49.916,25.507L1959.245,1282.854z M990.161,1545.413
		v-141.969c0-4.268,3.459-7.729,7.729-7.729c4.268,0,7.729,3.461,7.729,7.729v141.969c0,4.268-3.461,7.729-7.729,7.729
		C993.62,1553.141,990.161,1549.681,990.161,1545.413z M1502.11,1553.141c-4.268,0-7.729-3.46-7.729-7.729v-141.969
		c0-4.268,3.461-7.729,7.729-7.729c4.27,0,7.73,3.461,7.73,7.729v141.969C1509.841,1549.681,1506.38,1553.141,1502.11,1553.141z
		 M1109.392,1585.656c0-4.268,3.461-7.729,7.729-7.729c4.27,0,7.729,3.46,7.729,7.729v54.969c0,4.268-3.459,7.729-7.729,7.729
		c-4.268,0-7.729-3.461-7.729-7.729V1585.656z M1109.392,1519.061v-80.819c0-4.268,3.461-7.729,7.729-7.729
		c4.27,0,7.729,3.46,7.729,7.729v80.819c0,4.268-3.459,7.729-7.729,7.729C1112.853,1526.789,1109.392,1523.329,1109.392,1519.061z
		 M1375.151,1585.656c0-4.268,3.461-7.729,7.729-7.729s7.729,3.46,7.729,7.729v54.969c0,4.268-3.461,7.729-7.729,7.729
		s-7.729-3.461-7.729-7.729V1585.656z M1375.151,1519.061v-80.819c0-4.268,3.461-7.729,7.729-7.729s7.729,3.46,7.729,7.729v80.819
		c0,4.268-3.461,7.729-7.729,7.729S1375.151,1523.329,1375.151,1519.061z M1248.806,1360.661l1.219,0.004
		c199.613,0,362.541-162.407,363.197-362.031c0.656-200.281-161.746-363.756-362.027-364.412l-1.219-0.004
		c-199.613,0-362.541,162.407-363.197,362.027C886.122,1196.526,1048.524,1360.005,1248.806,1360.661z M1249.976,649.675
		l1.166,0.004c191.76,0.63,347.254,157.147,346.623,348.902c-0.627,191.129-156.623,346.627-347.74,346.627l-1.166-0.004
		c-191.76-0.63-347.254-157.15-346.623-348.906C902.862,805.169,1058.858,649.675,1249.976,649.675z M1162.058,1133.534h72.635
		c4.268,0,7.729-3.46,7.729-7.729V869.039c0-4.268-3.461-7.729-7.729-7.729h-72.635c-4.268,0-7.729,3.461-7.729,7.729v256.766
		C1154.329,1130.074,1157.79,1133.534,1162.058,1133.534z M1169.786,876.768h57.178v241.309h-57.178V876.768z M982.657,1125.806
		V869.039c0-4.268,3.461-7.729,7.73-7.729h72.633c4.268,0,7.729,3.461,7.729,7.729v88.74h51.305c4.268,0,7.729,3.46,7.729,7.729
		c0,4.268-3.461,7.729-7.729,7.729h-59.033c-4.268,0-7.729-3.461-7.729-7.729v-88.74h-57.176v241.309h57.176v-92.408
		c0-4.268,3.461-7.729,7.729-7.729h58.768c4.27,0,7.729,3.46,7.729,7.729c0,4.268-3.459,7.729-7.729,7.729h-51.039v92.408
		c0,4.268-3.461,7.729-7.729,7.729h-72.633C986.118,1133.534,982.657,1130.074,982.657,1125.806z M1436.413,964.074
		c0-19.986-12.584-30.122-37.404-30.122h-113.02c-4.27,0-7.729-3.461-7.729-7.729c0-4.268,3.459-7.729,7.729-7.729h113.02
		c33.594,0,52.863,16.612,52.863,45.579c0,28.684-19.27,45.134-52.863,45.134h-40.322c-4.27,0-7.729-3.461-7.729-7.729
		c0-4.268,3.459-7.729,7.729-7.729h40.322C1423.829,993.751,1436.413,983.765,1436.413,964.074z M1278.261,1125.843v-124.87
		c0-4.268,3.459-7.729,7.729-7.729c4.268,0,7.729,3.461,7.729,7.729v117.141h57.24v-60.527c0-4.268,3.459-7.729,7.729-7.729h39.521
		c2.551,0,4.939,1.26,6.383,3.37l44.34,64.886h58.977l-47.096-68.652c-1.271-1.86-1.676-4.181-1.094-6.359
		c0.576-2.178,2.074-3.993,4.105-4.974c30.023-14.514,45.893-40.122,45.893-74.056c0-53.844-40.758-87.294-106.363-87.294h-117.363
		c-4.27,0-7.729-3.461-7.729-7.729c0-4.268,3.459-7.729,7.729-7.729h117.363c74.002,0,121.82,40.334,121.82,102.752
		c0,36.628-16.514,66.056-46.727,83.766l50.512,73.63c1.623,2.366,1.799,5.438,0.465,7.974c-1.336,2.54-3.971,4.129-6.84,4.129
		h-77.73c-2.551,0-4.939-1.26-6.383-3.37l-44.34-64.886h-27.715v60.527c0,4.268-3.461,7.729-7.729,7.729h-72.697
		C1281.72,1133.572,1278.261,1130.111,1278.261,1125.843z M1725.231,1852.928c-0.816-0.464-1.613-0.883-1.885-0.977
		c-16.305-7.612-35.725-14.725-52.857-20.997c-16.314-5.974-31.764-11.635-38.418-15.608c-1.074-2.762-2.004-10.589-2.219-18.518
		c9.656-9.397,40.443-43.938,40.443-102.299c0-39.353-25.164-98.269-94.604-99.272h-1.898
		c-69.227,1.004-94.355,59.916-94.355,99.272c0,58.395,30.723,92.94,40.322,102.31c-0.17,7.917-1.053,15.74-2.113,18.518
		c-6.623,3.959-22.08,9.619-38.398,15.593c-17.033,6.238-36.33,13.306-52.574,20.869c-0.816,0.321-1.68,0.762-2.729,1.355
		c-11.67,5.388-21.729,13.988-28.941,24.592c-15.41-6.901-33.15-13.398-48.938-19.177c-16.512-6.046-32.148-11.77-38.832-15.763
		c-1.076-2.759-1.986-10.578-2.182-18.491c9.627-9.389,40.391-43.972,40.391-102.302c0-39.345-25.156-98.261-94.453-99.318v0.026
		c-0.598-0.045-1.23-0.049-1.982-0.023v-0.004c-69.297,1.057-94.453,59.972-94.453,99.318c0,58.331,30.768,92.913,40.395,102.302
		c-0.199,7.917-1.109,15.733-2.186,18.491c-6.676,3.993-22.316,9.717-38.834,15.763c-15.785,5.778-33.527,12.275-48.938,19.176
		c-7.223-10.612-17.34-19.245-29.365-24.844c-0.811-0.46-1.6-0.872-1.887-0.974c-16.295-7.578-35.617-14.661-52.666-20.906
		c-16.391-6.008-31.914-11.699-38.598-15.695c-1.076-2.762-2.004-10.589-2.219-18.518c9.656-9.397,40.443-43.938,40.443-102.299
		c0-39.353-25.168-98.269-94.609-99.272h-1.898c-69.326,1.004-94.49,59.92-94.49,99.272c0,58.361,30.787,92.902,40.443,102.299
		c-0.215,7.929-1.143,15.759-2.219,18.518c-6.623,3.97-22.088,9.642-38.418,15.635c-16.977,6.23-36.213,13.287-52.435,20.839
		c-0.815,0.321-1.68,0.766-2.744,1.362c-25.145,11.702-41.391,37.239-41.391,65.063c0,31.737,20.971,60.014,50.98,68.766
		c22.396,6.593,85.307,10.453,147.225,10.449c53.211,0,105.689-2.849,131.053-9.268c2.521-0.632,5.096-1.462,7.691-2.448
		c9.057,13.574,22.609,24,38.809,28.74c24.699,7.227,94.717,10.517,149.318,10.517c0.004,0,0.004,0,0.008,0
		c58.531,0,105.533-3.408,128.945-9.351c18.049-4.581,33.072-15.466,42.891-29.859c1.186,0.425,2.393,0.836,3.656,1.22
		c22.393,6.593,85.289,10.449,147.209,10.449c53.219,0,105.719-2.853,131.098-9.276c32.521-8.249,55.236-37.009,55.236-69.939
		C1767.06,1890.42,1750.813,1864.884,1725.231,1852.928z M1251.403,1637.824c-0.287,0.089-0.563,0.16-0.813,0.208
		C1250.866,1637.978,1251.136,1637.906,1251.403,1637.824z M1253.073,1637.084c-0.117,0.069-0.23,0.122-0.346,0.183
		C1252.843,1637.206,1252.96,1637.151,1253.073,1637.084z M1252.233,1637.513c-0.158,0.07-0.307,0.123-0.461,0.178
		C1251.929,1637.635,1252.083,1637.58,1252.233,1637.513z M1058.427,1973.202c-55.436,14.027-234.357,9.506-270.162-1.026
		c-23.473-6.846-39.865-29.02-39.865-53.931c0-21.835,12.74-41.873,32.65-51.142l1.434-0.807c0.291-0.098,0.574-0.208,0.846-0.336
		c15.688-7.325,34.719-14.306,51.508-20.469c19.574-7.182,35.031-12.853,42.521-17.82c2.27-1.491,8.291-5.446,8.291-34.183
		c0-2.268-1.012-4.434-2.738-5.902c-0.379-0.321-37.75-32.79-37.75-93.057c0-22.994,14.238-82.875,79.147-83.815h1.672
		c65.025,0.94,79.264,60.822,79.264,83.815c0,60.267-37.371,92.736-37.733,93.042c-1.748,1.472-2.756,3.634-2.756,5.917
		c0,28.737,6.023,32.692,8.262,34.164c7.543,5,23.076,10.695,42.736,17.899c16.764,6.147,35.766,13.11,51.467,20.412
		c0.137,0.06,0.635,0.344,0.77,0.396c0.445,0.257,0.906,0.513,1.582,0.845c8.584,3.964,16.055,10.151,21.607,17.774
		c-20.582,13.077-33.477,36.017-33.477,60.682c0,9.169,1.76,18.046,4.975,26.254
		C1061.241,1972.408,1059.819,1972.852,1058.427,1973.202z M1383.167,2000.667c-22.225,5.642-67.838,8.876-125.15,8.876
		c-64.406,0-125.383-4.162-144.979-9.899c-23.48-6.868-39.877-29.069-39.877-53.983c0-21.745,12.77-41.791,32.797-51.199l2.08-1.102
		c15.584-7.215,34.51-14.144,51.205-20.254c19.785-7.246,35.412-12.963,42.975-17.967c2.27-1.498,8.295-5.479,8.229-34.164
		c-0.004-2.272-1.008-4.423-2.748-5.887c-0.373-0.321-37.686-32.488-37.686-93.057c0-22.99,14.236-82.872,79.23-83.86
		c0.129-0.004,0.258-0.008,0.385-0.015c-0.074,0.004-0.146,0.007-0.211,0.007l0.012-0.128c0.188,0.038,0.377,0.064,0.57,0.087
		c0.191-0.023,0.385-0.053,0.576-0.087c-0.207,0.042-0.4,0.068-0.574,0.087c0.25,0.026,0.5,0.045,0.756,0.049
		c64.996,0.989,79.23,60.871,79.23,83.86c0,60.214-37.322,92.747-37.686,93.057c-1.732,1.464-2.74,3.615-2.744,5.887
		c-0.07,28.684,5.955,32.666,8.221,34.16c7.566,5.008,23.193,10.725,42.975,17.967c16.699,6.114,35.625,13.042,51.207,20.258
		c0.406,0.189,0.814,0.415,1.227,0.638l1.119,0.593c0.004,0.001,0.006,0.002,0.008,0.003v0c0.002,0,0.002,0.001,0.004,0.001
		c19.756,9.278,32.523,29.321,32.523,51.065C1426.841,1971.518,1408.88,1994.138,1383.167,2000.667z M1708.026,1973.202
		c-55.438,14.019-234.35,9.514-270.084-1.004c-0.242-0.074-0.469-0.153-0.707-0.228c3.279-8.206,5.063-17.095,5.063-26.309
		c0-24.584-12.807-47.452-33.479-60.673c5.557-7.631,13.064-13.838,21.824-17.885l1.438-0.807c0.291-0.098,0.574-0.208,0.85-0.336
		c15.703-7.336,34.791-14.325,51.633-20.491c19.578-7.17,35.043-12.835,42.533-17.801c2.271-1.491,8.307-5.457,8.148-34.22
		c-0.012-2.249-1.02-4.393-2.729-5.853c-0.377-0.321-37.621-32.794-37.621-93.064c0-22.994,14.217-82.875,79.012-83.815h1.672
		c65.021,0.94,79.26,60.822,79.26,83.815c0,60.267-37.371,92.736-37.734,93.042c-1.746,1.472-2.754,3.634-2.754,5.917
		c0,28.737,6.021,32.692,8.26,34.164c7.514,4.981,22.982,10.646,42.561,17.816c16.842,6.166,35.93,13.155,51.633,20.491
		c0.143,0.064,0.639,0.343,0.781,0.4c0.445,0.253,0.906,0.513,1.563,0.838c19.713,9.174,32.453,29.213,32.453,51.047
		C1751.601,1944.094,1733.681,1966.692,1708.026,1973.202z"/>
</g>
</svg>
