<?xml version="1.0" encoding="UTF-8"?><svg id="uuid-bb63e3b2-ea08-4a9a-9214-5618c5c4a06f" xmlns="http://www.w3.org/2000/svg" viewBox="0 0 811.54 619.05"><defs><style>.uuid-7a085b81-d026-4b99-b3a6-a939b3490f67{fill:#0e74bb;}.uuid-ba066b3d-4fbb-41f5-9d00-2cff383f0cdf{fill:#fff;}.uuid-9471f683-66e1-4840-bf08-60fa8d91a95b{isolation:isolate;}.uuid-c5279473-ff71-4c2e-8119-004a0ea0b3b0{fill:#080717;}.uuid-991b8d95-9ea1-4a02-afe3-6362a807bd63{fill:#1d1d1b;}</style></defs><polygon class="uuid-7a085b81-d026-4b99-b3a6-a939b3490f67" points="731.77 46.66 651.11 200.55 786.85 319.84 592.21 317.97 543.88 508.54 494.87 291.86 345.13 252.8 469.41 176.46 443.27 16.24 560.33 110.23 731.77 46.66"/><polygon class="uuid-7a085b81-d026-4b99-b3a6-a939b3490f67" points="811.54 193.64 650.37 269.43 680.61 444.53 529.48 328.81 370.25 452.93 469.93 250.8 305.76 100.45 523.52 143.53 605.14 0 636.87 143.9 811.54 193.64"/><path class="uuid-ba066b3d-4fbb-41f5-9d00-2cff383f0cdf" d="M263,508.82v96.58c0,3.96.19,7.7.5,11.1h158.16c.32-3.4.5-7.14.5-11.1v-96.58h-159.16Z"/><path class="uuid-c5279473-ff71-4c2e-8119-004a0ea0b3b0" d="M421.66,619.05h-158.16c-1.32,0-2.42-1.01-2.54-2.32-.34-3.72-.51-7.53-.51-11.33v-96.58c0-1.41,1.14-2.55,2.55-2.55h159.16c1.41,0,2.55,1.14,2.55,2.55v96.58c0,3.92-.17,7.74-.51,11.34-.12,1.31-1.22,2.31-2.54,2.31ZM265.85,613.95h153.46c.2-2.75.3-5.62.3-8.55v-94.03h-154.06v94.03c0,2.86.1,5.73.3,8.55Z"/><path d="M682.61,525.77c0,13.5-10.94,24.44-24.44,24.44H27c-13.5,0-24.45-10.95-24.45-24.45V106.84c0-8.44,6.84-15.28,15.28-15.28h649.5c8.44,0,15.28,6.84,15.28,15.28v418.92Z"/><path class="uuid-c5279473-ff71-4c2e-8119-004a0ea0b3b0" d="M658.17,552.76H27c-14.89,0-27-12.11-27-27V106.84c0-9.83,8-17.83,17.83-17.83h649.5c9.83,0,17.83,8,17.83,17.83v418.92c0,14.88-12.11,26.99-26.99,26.99ZM17.83,94.11c-7.02,0-12.73,5.71-12.73,12.73v418.92c0,12.08,9.82,21.9,21.9,21.9h631.17c12.07,0,21.89-9.82,21.89-21.89V106.85c0-7.02-5.71-12.74-12.73-12.74H17.83Z"/><path class="uuid-ba066b3d-4fbb-41f5-9d00-2cff383f0cdf" d="M15.3,479.15c0-60,0,0,0,0V104.31h654.55s0,0,0,0v374.83H15.3Z"/><path class="uuid-c5279473-ff71-4c2e-8119-004a0ea0b3b0" d="M15.3,481.7c-.67,0-1.32-.27-1.8-.75s-.75-1.13-.75-1.8V104.31c0-1.41,1.14-2.55,2.55-2.55h654.55c1.41,0,2.56,1.15,2.56,2.56v374.83c0,1.41-1.14,2.55-2.55,2.55H15.3ZM17.85,479.15h.02-.02ZM17.85,476.6h649.46V106.86H17.85v345.64s0,.39,0,.95c0,.13,0,.26,0,.38v22.76Z"/><path class="uuid-ba066b3d-4fbb-41f5-9d00-2cff383f0cdf" d="M2.55,492.72v33.05c0,13.5,10.94,24.44,24.45,24.44h631.16c13.5,0,24.45-10.94,24.45-24.44v-33.05H2.55Z"/><path class="uuid-c5279473-ff71-4c2e-8119-004a0ea0b3b0" d="M658.16,552.75H27c-14.89,0-27-12.11-27-26.99v-33.05c0-1.41,1.14-2.55,2.55-2.55h680.05c1.41,0,2.55,1.14,2.55,2.55v33.05c0,14.88-12.11,26.99-27,26.99ZM5.1,495.27v30.5c0,12.07,9.82,21.89,21.9,21.89h631.16c12.08,0,21.9-9.82,21.9-21.89v-30.5H5.1Z"/><path class="uuid-c5279473-ff71-4c2e-8119-004a0ea0b3b0" d="M460.59,619.05h-234.32c-1.41,0-2.55-1.14-2.55-2.55s1.14-2.55,2.55-2.55h234.32c1.41,0,2.55,1.14,2.55,2.55s-1.14,2.55-2.55,2.55Z"/><rect class="uuid-7a085b81-d026-4b99-b3a6-a939b3490f67" x="90.4" y="264.74" width="153.08" height="174.49"/><rect class="uuid-7a085b81-d026-4b99-b3a6-a939b3490f67" x="243.48" y="264.74" width="90.75" height="174.49" transform="translate(577.71 703.96) rotate(180)"/><path class="uuid-c5279473-ff71-4c2e-8119-004a0ea0b3b0" d="M196.27,316.53H36.05l53.28-54.34h160.22l-53.29,54.34ZM48.19,311.43h145.94l43.29-44.14H91.47l-43.28,44.14Z"/><path class="uuid-c5279473-ff71-4c2e-8119-004a0ea0b3b0" d="M388.59,316.53h-97.89l-53.28-54.34h97.89l53.28,54.34ZM292.84,311.43h83.61l-43.28-44.14h-83.61l43.28,44.14Z"/><rect class="uuid-c5279473-ff71-4c2e-8119-004a0ea0b3b0" x="240.93" y="264.74" width="5.1" height="174.49"/><path d="M575.86,222.34c-19.23,0-34.88-15.65-34.88-34.88s15.65-34.88,34.88-34.88,34.88,15.65,34.88,34.88-15.65,34.88-34.88,34.88ZM575.86,157.68c-16.42,0-29.78,13.36-29.78,29.78s13.36,29.78,29.78,29.78,29.78-13.36,29.78-29.78-13.36-29.78-29.78-29.78Z"/><path d="M571.2,201.05c-.17,0-.33-.01-.49-.04-5.64-.94-11.68-11.06-12.83-13.08l4.43-2.53c2.67,4.67,6.85,9.87,9.03,10.53,2.89-1.11,12.03-13.19,18.93-24.04l4.3,2.74c-11.16,17.54-19.02,26.42-23.37,26.42ZM571.19,195.98h0Z"/><path class="uuid-991b8d95-9ea1-4a02-afe3-6362a807bd63" d="M197.25,266.13l-4.67-2.06c20.9-47.29,69.9-84.71,134.44-102.65,63.87-17.75,136.32-14.74,198.76,8.26l-1.76,4.79c-61.45-22.65-132.75-25.61-195.63-8.14-63.06,17.53-110.85,53.9-131.13,99.8Z"/><path class="uuid-991b8d95-9ea1-4a02-afe3-6362a807bd63" d="M485.98,177.75l3.54-34.79,43.77,32.16-47.31,2.63ZM493.69,152.35l-2.03,19.98,27.16-1.51-25.13-18.46Z"/><rect class="uuid-7a085b81-d026-4b99-b3a6-a939b3490f67" x="413.49" y="256.2" width="113.38" height="10.2"/><rect class="uuid-7a085b81-d026-4b99-b3a6-a939b3490f67" x="413.49" y="278.46" width="151.71" height="10.2"/><rect class="uuid-7a085b81-d026-4b99-b3a6-a939b3490f67" x="413.49" y="307.04" width="80.26" height="5.1"/><rect class="uuid-7a085b81-d026-4b99-b3a6-a939b3490f67" x="413.49" y="318.34" width="47.48" height="5.1"/><path class="uuid-7a085b81-d026-4b99-b3a6-a939b3490f67" d="M527.66,380.8h-94.96c-10.61,0-19.22-8.6-19.22-19.22h0c0-10.61,8.6-19.22,19.22-19.22h94.96c10.61,0,19.22,8.6,19.22,19.22h0c0,10.61-8.6,19.22-19.22,19.22Z"/><path class="uuid-c5279473-ff71-4c2e-8119-004a0ea0b3b0" d="M514.26,363.01h-68.16c-1.41,0-2.55-1.14-2.55-2.55s1.14-2.55,2.55-2.55h68.16c1.41,0,2.55,1.14,2.55,2.55s-1.14,2.55-2.55,2.55Z"/><polygon class="uuid-c5279473-ff71-4c2e-8119-004a0ea0b3b0" points="625.37 388 576.07 376.72 526.77 365.44 546.62 411.96 566.48 458.47 580.38 424.2 608.25 447.49 621.97 431.06 594.11 407.77 625.37 388"/><g class="uuid-9471f683-66e1-4840-bf08-60fa8d91a95b"><path d="M164.18,185.79c-.52,0-1.02-.16-1.45-.46l-41.64-28.9c-.83-.58-1.24-1.59-1.05-2.58.19-.99.95-1.77,1.93-2l38.84-8.92c.7-.15,1.43-.02,2.02.39l41.64,28.9c.83.58,1.24,1.59,1.05,2.58-.19.99-.95,1.78-1.93,2l-38.83,8.92c-.19.04-.38.06-.57.06ZM128.73,155.54l35.98,24.96,32.11-7.37-35.97-24.96-32.12,7.37Z"/><path d="M148.64,233.09c-.71,0-1.39-.3-1.88-.83-.62-.68-.82-1.64-.54-2.51l15.54-47.3c.28-.85.98-1.49,1.85-1.69l38.83-8.92c.89-.21,1.83.09,2.45.77.62.68.83,1.64.54,2.51l-15.53,47.3c-.28.85-.98,1.49-1.85,1.69l-38.84,8.92c-.19.04-.38.06-.57.06ZM166.15,185.4l-13.68,41.64,33.03-7.58,13.67-41.64-33.03,7.58ZM187.48,221.63h.02-.02Z"/><path d="M148.64,233.09c-.51,0-1.02-.15-1.45-.46l-41.64-28.9c-.93-.64-1.32-1.82-.97-2.89l15.54-47.3c.25-.76.85-1.36,1.61-1.62.76-.26,1.6-.14,2.26.32l41.64,28.9c.93.64,1.32,1.82.97,2.89l-15.54,47.3c-.25.76-.85,1.36-1.61,1.62-.26.09-.54.13-.81.13ZM110.01,200.64l37.27,25.86,13.88-42.25-37.27-25.86-13.88,42.25Z"/></g><rect class="uuid-c5279473-ff71-4c2e-8119-004a0ea0b3b0" x="293.54" y="53.06" width="5.1" height="15.92"/><rect class="uuid-c5279473-ff71-4c2e-8119-004a0ea0b3b0" x="288.13" y="58.47" width="15.92" height="5.1"/><rect class="uuid-c5279473-ff71-4c2e-8119-004a0ea0b3b0" x="265.19" y="210.52" width="5.1" height="28.86"/><rect class="uuid-c5279473-ff71-4c2e-8119-004a0ea0b3b0" x="253.31" y="222.4" width="28.86" height="5.1"/><rect class="uuid-c5279473-ff71-4c2e-8119-004a0ea0b3b0" x="229.57" y="132.6" width="5.1" height="28.36"/><rect class="uuid-c5279473-ff71-4c2e-8119-004a0ea0b3b0" x="217.94" y="144.23" width="28.36" height="5.1"/></svg>