<?xml version="1.0" encoding="utf-8"?>
<!-- Generator: Adobe Illustrator 27.5.0, SVG Export Plug-In . SVG Version: 6.00 Build 0)  -->
<svg version="1.1" id="Capa_1" xmlns="http://www.w3.org/2000/svg" xmlns:xlink="http://www.w3.org/1999/xlink" x="0px" y="0px"
	 viewBox="0 0 425.197 425.197" style="enable-background:new 0 0 425.197 425.197;" xml:space="preserve">
<rect x="0" y="0" style="fill:#4CB2DF;" width="425.197" height="425.197"/>
<g id="Paquete_de_vectores:_motivo_de_puntos_15">
</g>
<g id="Paquete_de_vectores:_motivo_de_puntos_15_1_">
</g>
<g id="Paquete_de_vectores:_motivo_de_puntos_03">
</g>
<path style="fill:#AFDDF5;" d="M353.91,193.025c-23.335-14.148-27.573-29.267-14.34-52.65c-2.6-5.148-5.48-10.133-8.679-14.884
	c-26.848,0.173-37.66-10.648-37.498-37.5c-4.756-3.195-9.735-6.083-14.887-8.67c-23.382,13.229-38.494,8.994-52.646-14.342
	c-3.022-0.206-6.076-0.341-9.159-0.341c-3.087,0-6.123,0.135-9.159,0.341c-14.137,23.335-29.258,27.571-52.654,14.342
	c-5.141,2.598-10.129,5.475-14.882,8.677c0.177,26.845-10.639,37.666-37.494,37.493c-3.197,4.751-6.081,9.737-8.675,14.884
	c13.237,23.384,9,38.503-14.337,52.65c-0.204,3.027-0.343,6.077-0.343,9.159c0,3.083,0.139,6.125,0.343,9.155
	c23.337,14.145,27.574,29.268,14.337,52.652c2.594,5.147,5.478,10.126,8.675,14.879c26.86-0.166,37.676,10.645,37.494,37.496
	c4.76,3.202,9.741,6.085,14.888,8.682c23.387-13.238,38.512-9,52.648,14.337c3.036,0.201,6.072,0.341,9.159,0.341
	c3.083,0,6.137-0.14,9.159-0.341c14.151-23.337,29.264-27.573,52.646-14.334c5.151-2.598,10.131-5.483,14.887-8.679
	c-0.171-26.858,10.65-37.669,37.498-37.503c3.199-4.753,6.079-9.732,8.679-14.879c-13.233-23.384-8.995-38.507,14.34-52.652
	c0.199-3.03,0.339-6.072,0.339-9.155C354.249,199.102,354.109,196.052,353.91,193.025z M216.702,303.401
	c-55.893,0-101.214-45.318-101.214-101.216c0-55.9,45.321-101.224,101.214-101.224c55.898,0,101.221,45.324,101.221,101.224
	C317.923,258.082,272.6,303.401,216.702,303.401z"/>
<g>
	<g>
		<path style="fill:#0B294B;" d="M283.285,103.09c0,4.236-36.465,6.749-59.039,6.749c-22.313,0-56.015-2.512-56.015-6.749V69.318
			c0-4.236,3.433-7.67,7.671-7.67h99.712c4.235,0,7.671,3.435,7.671,7.67V103.09z"/>
		<g>
			<g>
				<g>
					<rect x="175.12" y="66.827" style="fill:#78B3E0;" width="6.426" height="2.683"/>
					<rect x="182.926" y="66.827" style="fill:#78B3E0;" width="6.426" height="2.683"/>
					<rect x="190.733" y="66.827" style="fill:#78B3E0;" width="6.425" height="2.683"/>
					<rect x="198.538" y="66.827" style="fill:#78B3E0;" width="6.426" height="2.683"/>
					<rect x="206.345" y="66.827" style="fill:#78B3E0;" width="6.424" height="2.683"/>
					<rect x="214.15" y="66.827" style="fill:#78B3E0;" width="6.425" height="2.683"/>
					<rect x="221.955" y="66.827" style="fill:#78B3E0;" width="6.426" height="2.683"/>
					<rect x="229.761" y="66.827" style="fill:#78B3E0;" width="6.425" height="2.683"/>
					<rect x="237.567" y="66.827" style="fill:#78B3E0;" width="6.425" height="2.683"/>
					<rect x="245.373" y="66.827" style="fill:#78B3E0;" width="6.426" height="2.683"/>
				</g>
				<g>
					<rect x="173.424" y="73.435" style="fill:#78B3E0;" width="4.167" height="4.168"/>
					<rect x="179.686" y="73.435" style="fill:#78B3E0;" width="4.168" height="4.168"/>
					<rect x="185.949" y="73.435" style="fill:#78B3E0;" width="4.167" height="4.168"/>
					<rect x="192.213" y="73.435" style="fill:#78B3E0;" width="4.167" height="4.168"/>
					<rect x="198.476" y="73.435" style="fill:#78B3E0;" width="4.167" height="4.168"/>
					<rect x="204.739" y="73.435" style="fill:#78B3E0;" width="4.167" height="4.168"/>
					<rect x="211.002" y="73.435" style="fill:#78B3E0;" width="4.167" height="4.168"/>
					<rect x="217.265" y="73.435" style="fill:#78B3E0;" width="4.169" height="4.168"/>
					<rect x="223.528" y="73.435" style="fill:#78B3E0;" width="4.168" height="4.168"/>
					<rect x="229.793" y="73.435" style="fill:#78B3E0;" width="4.165" height="4.168"/>
					<rect x="173.424" y="79.447" style="fill:#78B3E0;" width="4.167" height="4.166"/>
					<rect x="179.686" y="79.447" style="fill:#78B3E0;" width="4.168" height="4.166"/>
					<rect x="185.949" y="79.447" style="fill:#78B3E0;" width="4.167" height="4.166"/>
					<rect x="192.213" y="79.447" style="fill:#78B3E0;" width="4.167" height="4.166"/>
					<rect x="198.476" y="79.447" style="fill:#78B3E0;" width="4.167" height="4.166"/>
					<rect x="204.739" y="79.447" style="fill:#78B3E0;" width="4.167" height="4.166"/>
					<rect x="211.002" y="79.447" style="fill:#78B3E0;" width="4.167" height="4.166"/>
					<rect x="217.265" y="79.447" style="fill:#78B3E0;" width="4.169" height="4.166"/>
					<rect x="223.528" y="79.447" style="fill:#78B3E0;" width="4.168" height="4.166"/>
					<rect x="229.793" y="79.447" style="fill:#78B3E0;" width="4.165" height="4.166"/>
					<rect x="173.424" y="85.457" style="fill:#78B3E0;" width="4.167" height="4.168"/>
					<rect x="179.686" y="85.457" style="fill:#78B3E0;" width="4.168" height="4.168"/>
					<rect x="185.949" y="85.457" style="fill:#78B3E0;" width="4.167" height="4.168"/>
					<rect x="192.213" y="85.457" style="fill:#78B3E0;" width="4.167" height="4.168"/>
					<rect x="198.476" y="85.457" style="fill:#78B3E0;" width="4.167" height="4.168"/>
					<rect x="204.739" y="85.457" style="fill:#78B3E0;" width="4.167" height="4.168"/>
					<rect x="211.002" y="85.457" style="fill:#78B3E0;" width="4.167" height="4.168"/>
					<rect x="217.265" y="85.457" style="fill:#78B3E0;" width="4.169" height="4.168"/>
					<rect x="223.528" y="85.457" style="fill:#78B3E0;" width="4.168" height="4.168"/>
					<rect x="229.793" y="85.457" style="fill:#78B3E0;" width="4.165" height="4.168"/>
					<rect x="173.424" y="91.468" style="fill:#78B3E0;" width="4.167" height="4.167"/>
					<rect x="179.686" y="91.468" style="fill:#78B3E0;" width="4.168" height="4.167"/>
					<rect x="185.949" y="91.468" style="fill:#78B3E0;" width="4.167" height="4.167"/>
					<rect x="192.213" y="91.468" style="fill:#78B3E0;" width="4.167" height="4.167"/>
					<rect x="198.476" y="91.468" style="fill:#78B3E0;" width="4.167" height="4.167"/>
					<rect x="204.739" y="91.468" style="fill:#78B3E0;" width="4.167" height="4.167"/>
					<rect x="211.002" y="91.468" style="fill:#78B3E0;" width="4.167" height="4.167"/>
					<rect x="217.265" y="91.468" style="fill:#78B3E0;" width="4.169" height="4.167"/>
					<rect x="223.528" y="91.468" style="fill:#78B3E0;" width="4.168" height="4.167"/>
					<rect x="229.793" y="91.468" style="fill:#78B3E0;" width="4.165" height="4.167"/>
					<rect x="173.424" y="97.48" style="fill:#78B3E0;" width="4.167" height="4.168"/>
					<rect x="179.686" y="97.48" style="fill:#78B3E0;" width="4.168" height="4.168"/>
					<rect x="185.949" y="97.48" style="fill:#78B3E0;" width="29.22" height="4.168"/>
					<rect x="217.265" y="97.48" style="fill:#78B3E0;" width="4.169" height="4.168"/>
					<rect x="223.528" y="97.48" style="fill:#78B3E0;" width="4.168" height="4.168"/>
					<rect x="229.793" y="97.48" style="fill:#78B3E0;" width="4.165" height="4.168"/>
				</g>
				<g>
					<g>
						<rect x="237.578" y="73.435" style="fill:#78B3E0;" width="4.167" height="4.168"/>
						<rect x="243.105" y="73.435" style="fill:#78B3E0;" width="4.169" height="4.168"/>
						<rect x="248.634" y="73.435" style="fill:#78B3E0;" width="4.169" height="4.168"/>
						<rect x="237.578" y="79.053" style="fill:#78B3E0;" width="4.167" height="4.167"/>
						<rect x="243.105" y="79.053" style="fill:#78B3E0;" width="4.169" height="4.167"/>
						<rect x="248.634" y="79.053" style="fill:#78B3E0;" width="4.169" height="4.167"/>
					</g>
					<g>
						<rect x="243.105" y="92.329" style="fill:#78B3E0;" width="4.169" height="4.167"/>
						<rect x="243.105" y="97.48" style="fill:#78B3E0;" width="4.169" height="4.168"/>
						<g>
							<rect x="237.949" y="97.48" style="fill:#78B3E0;" width="4.167" height="4.168"/>
							<rect x="248.266" y="97.48" style="fill:#78B3E0;" width="4.167" height="4.168"/>
						</g>
					</g>
				</g>
				<g>
					<g>
						<rect x="260.942" y="81.535" style="fill:#78B3E0;" width="3.924" height="3.923"/>
						<rect x="266.148" y="81.535" style="fill:#78B3E0;" width="3.922" height="3.923"/>
						<rect x="271.354" y="81.535" style="fill:#78B3E0;" width="3.92" height="3.923"/>
						<rect x="260.942" y="76.04" style="fill:#78B3E0;" width="3.924" height="3.923"/>
						<rect x="266.148" y="76.04" style="fill:#78B3E0;" width="3.922" height="3.923"/>
						<rect x="271.354" y="76.04" style="fill:#78B3E0;" width="3.92" height="3.923"/>
						<rect x="260.942" y="86.932" style="fill:#78B3E0;" width="3.924" height="3.922"/>
						<rect x="266.148" y="86.932" style="fill:#78B3E0;" width="3.922" height="3.922"/>
						<rect x="260.942" y="92.329" style="fill:#78B3E0;" width="3.924" height="3.922"/>
						<rect x="266.148" y="92.329" style="fill:#78B3E0;" width="3.922" height="3.922"/>
						<rect x="260.942" y="97.725" style="fill:#78B3E0;" width="3.924" height="3.923"/>
						<rect x="255.821" y="81.535" style="fill:#78B3E0;" width="3.922" height="3.923"/>
						<rect x="255.821" y="76.04" style="fill:#78B3E0;" width="3.922" height="3.923"/>
						<rect x="255.821" y="86.932" style="fill:#78B3E0;" width="3.922" height="3.922"/>
						<rect x="255.821" y="92.329" style="fill:#78B3E0;" width="3.922" height="3.922"/>
						<rect x="255.821" y="97.725" style="fill:#78B3E0;" width="3.922" height="3.923"/>
						<rect x="266.148" y="97.725" style="fill:#78B3E0;" width="3.922" height="3.923"/>
						<rect x="271.354" y="86.932" style="fill:#78B3E0;" width="3.92" height="14.716"/>
					</g>
					<g>
						<path style="fill:#78B3E0;" d="M261.132,68.786c0,0.644-0.522,1.165-1.163,1.165c-0.643,0-1.166-0.521-1.166-1.165
							c0-0.643,0.522-1.163,1.166-1.163C260.61,67.622,261.132,68.143,261.132,68.786z"/>
						<path style="fill:#78B3E0;" d="M266.713,68.786c0,0.644-0.521,1.165-1.165,1.165c-0.642,0-1.164-0.521-1.164-1.165
							c0-0.643,0.522-1.163,1.164-1.163C266.191,67.622,266.713,68.143,266.713,68.786z"/>
						<path style="fill:#78B3E0;" d="M272.293,68.786c0,0.644-0.521,1.165-1.164,1.165c-0.642,0-1.164-0.521-1.164-1.165
							c0-0.643,0.522-1.163,1.164-1.163C271.772,67.622,272.293,68.143,272.293,68.786z"/>
					</g>
				</g>
			</g>
		</g>
	</g>
	<path style="fill:#FFFFFF;" d="M258.313,137.858l-7.529-22.124c0.031-0.323,0.048-0.659,0.022-1.023
		c-0.175-2.577-0.325-3.203-1.118-8.182c0.021-0.191,0.026-0.385-0.013-0.578l-0.377-1.898c-0.001-0.009-0.004-0.018-0.004-0.028
		h-0.001l-1.484-7.45c-0.241-1.226-1.68-1.972-3.206-1.669c-1.526,0.303-2.566,1.544-2.323,2.768l1.247,6.271l-0.171-0.002
		l-1.961-9.853c-0.305-1.525-1.79-2.519-3.316-2.214c-1.528,0.305-2.519,1.789-2.215,3.315l1.726,8.672l-0.209-0.003l-2.148-10.791
		c-0.328-1.648-1.931-2.719-3.58-2.39c-1.649,0.328-2.721,1.931-2.393,3.579l1.512,7.593l-2.896-8.353
		c-0.002-0.005-0.005-0.008-0.007-0.015c-0.002-0.003-0.002-0.006-0.003-0.01l-3.728-10.758c-0.487-1.406-2.021-2.152-3.425-1.663
		c-1.408,0.486-2.152,2.021-1.666,3.426l3.73,10.758c0.001,0.005,0.004,0.008,0.005,0.012c0.001,0.005,0.001,0.01,0.004,0.014
		l2.922,8.434l0,0c0,0,0.033,0.099,0.088,0.251l0.719,2.074c0.006,0.019,0.017,0.033,0.025,0.051
		c0.012,0.037,0.023,0.069,0.032,0.095c0.673,1.96,0.833,3.15-0.479,2.16v0.002l-4.593-4.168c-3.48-2.839-6.648,1.949-6.648,1.949
		s2.258,1.85,3.437,2.921l3.761,3.41l-0.002,0.001c0,0,5.908,6.518,10.428,10.063c0.582,0.457,1.154,0.824,1.747,1.07l6.891,20.248
		L258.313,137.858z"/>
</g>
<g>
	<path style="fill:#0B294B;" d="M173.747,203.526c0,4.812-3.903,8.715-8.717,8.715H94.637c-4.815,0-8.716-3.903-8.716-8.715v-70.395
		c0-4.814,3.901-8.715,8.716-8.715h70.393c4.814,0,8.717,3.901,8.717,8.715V203.526z"/>
	<g>
		<g>
			<g>
				<g>
					<g>
						<polyline style="fill:none;stroke:#FFFFFF;stroke-width:1.2013;stroke-miterlimit:10;" points="111.093,143.769 
							111.093,139.785 121.458,129.163 121.458,102.35 						"/>
						<g>
							<circle style="fill:#FFFFFF;" cx="121.458" cy="102.462" r="2.258"/>
						</g>
					</g>
				</g>
				<g>
					<g>
						<polyline style="fill:none;stroke:#FFFFFF;stroke-width:1.2013;stroke-miterlimit:10;" points="117.794,143.769 
							117.794,139.785 128.159,129.163 128.159,109.877 						"/>
						<g>
							<circle style="fill:#FFFFFF;" cx="128.159" cy="109.99" r="2.258"/>
						</g>
					</g>
				</g>
				<g>
					<g>
						<polyline style="fill:none;stroke:#FFFFFF;stroke-width:1.2013;stroke-miterlimit:10;" points="124.495,143.769 
							124.495,139.785 134.858,129.163 134.858,115.278 						"/>
						<g>
							<circle style="fill:#FFFFFF;" cx="134.858" cy="115.391" r="2.258"/>
						</g>
					</g>
				</g>
				<g>
					<g>
						<polyline style="fill:none;stroke:#FFFFFF;stroke-width:1.2013;stroke-miterlimit:10;" points="131.195,143.769 
							131.195,139.785 141.561,129.163 141.561,105.132 						"/>
						<g>
							<circle style="fill:#FFFFFF;" cx="141.561" cy="105.245" r="2.258"/>
						</g>
					</g>
				</g>
				<g>
					<g>
						<polyline style="fill:none;stroke:#FFFFFF;stroke-width:1.2013;stroke-miterlimit:10;" points="137.897,143.769 
							137.897,139.785 148.261,129.163 148.261,100.059 						"/>
						<g>
							<circle style="fill:#FFFFFF;" cx="148.261" cy="100.171" r="2.258"/>
						</g>
					</g>
				</g>
				<g>
					<g>
						<polyline style="fill:none;stroke:#FFFFFF;stroke-width:1.2013;stroke-miterlimit:10;" points="144.597,143.769 
							144.597,139.785 154.962,129.163 154.962,109.061 						"/>
						<g>
							<circle style="fill:#FFFFFF;" cx="154.962" cy="109.173" r="2.258"/>
						</g>
					</g>
				</g>
			</g>
		</g>
		<g>
			<g>
				<g>
					<g>
						<g>
							<polyline style="fill:none;stroke:#FFFFFF;stroke-width:1.2013;stroke-miterlimit:10;" points="154.393,149.587 
								158.378,149.587 168.999,159.953 195.813,159.953 							"/>
							<g>
								<circle style="fill:#FFFFFF;" cx="195.7" cy="159.953" r="2.258"/>
							</g>
						</g>
					</g>
				</g>
				<g>
					<g>
						<g>
							<polyline style="fill:none;stroke:#FFFFFF;stroke-width:1.2013;stroke-miterlimit:10;" points="154.393,156.287 
								158.378,156.287 168.999,166.652 188.285,166.652 							"/>
							<g>
								<circle style="fill:#FFFFFF;" cx="188.172" cy="166.652" r="2.258"/>
							</g>
						</g>
					</g>
				</g>
				<g>
					<g>
						<g>
							<polyline style="fill:none;stroke:#FFFFFF;stroke-width:1.2013;stroke-miterlimit:10;" points="154.393,162.987 
								158.378,162.987 168.999,173.354 182.884,173.354 							"/>
							<g>
								<circle style="fill:#FFFFFF;" cx="182.771" cy="173.354" r="2.258"/>
							</g>
						</g>
					</g>
				</g>
				<g>
					<g>
						<g>
							<polyline style="fill:none;stroke:#FFFFFF;stroke-width:1.2013;stroke-miterlimit:10;" points="154.393,169.688 
								158.378,169.688 168.999,180.055 193.031,180.055 							"/>
							<g>
								<circle style="fill:#FFFFFF;" cx="192.918" cy="180.055" r="2.258"/>
							</g>
						</g>
					</g>
				</g>
				<g>
					<g>
						<g>
							<polyline style="fill:none;stroke:#FFFFFF;stroke-width:1.2013;stroke-miterlimit:10;" points="154.393,176.39 
								158.378,176.39 168.999,186.754 198.104,186.754 							"/>
							<g>
								<circle style="fill:#FFFFFF;" cx="197.991" cy="186.754" r="2.258"/>
							</g>
						</g>
					</g>
				</g>
				<g>
					<g>
						<g>
							<polyline style="fill:none;stroke:#FFFFFF;stroke-width:1.2013;stroke-miterlimit:10;" points="154.393,183.091 
								158.378,183.091 168.999,193.455 189.102,193.455 							"/>
							<g>
								<circle style="fill:#FFFFFF;" cx="188.989" cy="193.455" r="2.258"/>
							</g>
						</g>
					</g>
				</g>
			</g>
			<g>
				<g>
					<g>
						<g>
							<polyline style="fill:none;stroke:#FFFFFF;stroke-width:1.2013;stroke-miterlimit:10;" points="104.706,187.069 
								101.292,187.069 90.269,176.704 63.455,176.704 							"/>
							<g>
								<circle style="fill:#FFFFFF;" cx="63.568" cy="176.704" r="2.258"/>
							</g>
						</g>
					</g>
				</g>
				<g>
					<g>
						<g>
							<polyline style="fill:none;stroke:#FFFFFF;stroke-width:1.2013;stroke-miterlimit:10;" points="104.706,180.367 
								101.292,180.367 90.269,170.003 70.984,170.003 							"/>
							<g>
								<circle style="fill:#FFFFFF;" cx="71.097" cy="170.003" r="2.258"/>
							</g>
						</g>
					</g>
				</g>
				<g>
					<g>
						<g>
							<polyline style="fill:none;stroke:#FFFFFF;stroke-width:1.2013;stroke-miterlimit:10;" points="104.706,173.668 
								101.292,173.668 90.269,163.303 76.384,163.303 							"/>
							<g>
								<path style="fill:#FFFFFF;" d="M76.496,161.044c-1.247,0-2.258,1.011-2.258,2.258s1.011,2.258,2.258,2.258
									c1.247,0,2.258-1.011,2.258-2.258S77.744,161.044,76.496,161.044z"/>
							</g>
						</g>
					</g>
				</g>
				<g>
					<g>
						<g>
							<polyline style="fill:none;stroke:#FFFFFF;stroke-width:1.2013;stroke-miterlimit:10;" points="104.706,166.967 
								101.292,166.967 90.269,156.601 66.236,156.601 							"/>
							<g>
								<circle style="fill:#FFFFFF;" cx="66.349" cy="156.601" r="2.258"/>
							</g>
						</g>
					</g>
				</g>
				<g>
					<g>
						<g>
							<polyline style="fill:none;stroke:#FFFFFF;stroke-width:1.2013;stroke-miterlimit:10;" points="104.706,160.265 
								101.292,160.265 90.269,149.901 61.164,149.901 							"/>
							<g>
								<circle style="fill:#FFFFFF;" cx="61.277" cy="149.901" r="2.258"/>
							</g>
						</g>
					</g>
				</g>
				<g>
					<g>
						<g>
							<polyline style="fill:none;stroke:#FFFFFF;stroke-width:1.2013;stroke-miterlimit:10;" points="104.706,153.565 
								101.292,153.565 90.269,143.201 70.165,143.201 							"/>
							<g>
								<circle style="fill:#FFFFFF;" cx="70.278" cy="143.201" r="2.258"/>
							</g>
						</g>
					</g>
				</g>
			</g>
		</g>
	</g>
	
		<rect x="101.569" y="140.063" style="fill:#0B294B;stroke:#78B3E0;stroke-width:2.3042;stroke-miterlimit:10;" width="56.53" height="56.53"/>
	<rect x="109.809" y="148.305" style="fill:#78B3E0;" width="40.05" height="40.047"/>
</g>
<g>
	<g>
		<path style="fill:#FFFFFF;" d="M334.935,149.958l-58.074,59.605c-3.074,3.155-8.116,3.22-11.268,0.149
			c-3.154-3.072-3.217-8.116-0.147-11.267l58.076-59.607L334.935,149.958z"/>
		<g>
			<path style="fill:#A4A3A8;" d="M275.455,203.845c-0.47,0.485-0.46,1.256,0.024,1.727l0,0c0.481,0.469,1.257,0.46,1.727-0.021
				l48.401-49.676c0.47-0.484,0.46-1.26-0.024-1.73l0,0c-0.482-0.47-1.256-0.461-1.727,0.024L275.455,203.845z"/>
			<path style="fill:#A4A3A8;" d="M272.456,200.919c-0.472,0.483-0.462,1.258,0.022,1.727l0,0c0.481,0.472,1.256,0.461,1.725-0.023
				l48.402-49.674c0.471-0.485,0.461-1.26-0.023-1.73l0,0c-0.481-0.468-1.255-0.458-1.727,0.023L272.456,200.919z"/>
			<path style="fill:#A4A3A8;" d="M269.452,197.998c-0.468,0.48-0.46,1.254,0.022,1.725l0,0c0.486,0.472,1.259,0.462,1.73-0.022
				l48.4-49.676c0.471-0.483,0.46-1.257-0.022-1.726l0,0c-0.484-0.471-1.257-0.461-1.728,0.02L269.452,197.998z"/>
		</g>
	</g>
	<path style="fill:#FFFFFF;" d="M345.866,107.142l-17.91,18.377l20.119,19.601l17.907-18.381c0.879,6.662-1.192,13.646-6.246,18.833
		c-8.751,8.982-23.129,9.171-32.114,0.414c-8.985-8.75-9.174-23.132-0.419-32.114C332.257,108.686,339.181,106.437,345.866,107.142z
		"/>
	<g>
		<path style="fill:#0B294B;" d="M338.972,134.338l15.717,3.993l11.314-11.614l-4.401-15.604l-15.716-3.995l-11.313,11.614
			L338.972,134.338z M344.788,128.368l-2.136-7.583l5.498-5.643l7.634,1.941l2.136,7.58l-5.496,5.643L344.788,128.368z"/>
		<polygon style="fill:#A2A1A6;" points="361.602,111.113 361.625,111.198 355.809,117.173 355.784,117.084 348.15,115.143 
			342.652,120.786 344.788,128.368 344.878,128.389 339.059,134.362 338.972,134.338 334.573,118.732 345.886,107.118 		"/>
	</g>
</g>
<g>
	<g>
		<polygon style="fill:#0B294B;" points="140.037,342.009 94.408,342.009 109.694,287.195 155.321,287.195 		"/>
		<path style="fill:#FFFFFF;" d="M196.78,267.177l-11.617-31.334c-5.016-22.774-25.302-39.818-49.58-39.818
			c-28.052,0-50.786,22.737-50.786,50.786c0,18.128,9.506,34.031,23.801,43.017l-0.008,0.006c0,0,17.652,17.958,64.945,17.958
			c8.534,0,10.17-3.92,10.17-6.895c0-4.399,0.018-15.16,0.018-18.773c0-2.723,1.749-5.257,5.059-5.257
			c1.916,0,2.506-0.03,6.281-0.03C198.836,276.836,200.154,274.651,196.78,267.177z"/>
		<path style="fill:#FFFFFF;" d="M168.055,425.197v-34.03c0-23.853-6.054-68.202-43.192-68.202c-23.85,0-43.188,19.337-43.188,43.19
			v59.042H168.055z"/>
		<path style="fill:#E5E6E9;" d="M168.055,425.197v-34.03c0-23.817-6.037-68.068-43.028-68.199v102.229H168.055z"/>
		<polygon style="fill:#0B294B;" points="134.032,425.197 134.737,361.709 118.149,361.709 118.911,425.197 		"/>
		<g>
			<polygon style="fill:#BDBEC4;" points="143.773,425.197 144.916,387.173 107.978,387.173 109.121,425.197 			"/>
			<polygon style="fill:#CACBD0;" points="143.773,425.197 144.916,387.173 127.296,387.173 127.296,425.197 			"/>
		</g>
		<g>
			<path style="fill:#6B5D5A;" d="M108.766,364.979c0,9.764,7.913,17.677,17.68,17.677c9.765,0,17.677-7.913,17.677-17.677
				c0-9.767-7.912-17.678-17.677-17.678C116.679,347.302,108.766,355.212,108.766,364.979z"/>
			<path style="fill:#D0D2D6;" d="M115.023,364.979c0,6.309,5.111,11.42,11.422,11.42c6.309,0,11.421-5.112,11.421-11.42
				c0-6.31-5.112-11.421-11.421-11.421C120.135,353.558,115.023,358.669,115.023,364.979z"/>
		</g>
		<g>
			<path style="fill:#7C7B80;" d="M149.294,308.62c-28.543-4.196-30.652-16.928-30.652-30.368v-7.231
				c0-14.158-4.054-22.932-24.233-22.932h-9.611v-2.554h9.611c23.541,0,26.786,12.249,26.786,25.486v7.231
				c0,10.48,0.151,23.687,28.834,27.903L149.294,308.62z"/>
		</g>
		<path style="fill:#0B294B;" d="M165.195,228.484c-4.63-2.807-5.471-5.807-2.846-10.447c-0.516-1.021-1.087-2.01-1.722-2.953
			c-5.327,0.034-7.473-2.113-7.44-7.441c-0.943-0.634-1.932-1.207-2.954-1.72c-4.639,2.624-7.638,1.784-10.445-2.846
			c-0.601-0.041-1.206-0.068-1.817-0.068c-0.613,0-1.215,0.027-1.817,0.068c-2.806,4.63-5.806,5.47-10.448,2.846
			c-1.02,0.515-2.01,1.086-2.953,1.722c0.035,5.327-2.11,7.474-7.439,7.439c-0.634,0.943-1.206,1.932-1.721,2.953
			c2.626,4.64,1.785,7.64-2.845,10.447c-0.041,0.601-0.068,1.206-0.068,1.817c0,0.612,0.027,1.216,0.068,1.817
			c4.63,2.807,5.471,5.807,2.845,10.447c0.515,1.021,1.087,2.009,1.721,2.952c5.33-0.033,7.476,2.112,7.439,7.44
			c0.945,0.636,1.934,1.207,2.954,1.723c4.641-2.626,7.642-1.786,10.447,2.845c0.602,0.04,1.204,0.068,1.817,0.068
			c0.611,0,1.217-0.028,1.817-0.068c2.808-4.63,5.807-5.471,10.445-2.844c1.022-0.516,2.011-1.088,2.954-1.722
			c-0.034-5.329,2.113-7.474,7.44-7.441c0.635-0.943,1.206-1.931,1.722-2.952c-2.625-4.64-1.784-7.641,2.846-10.447
			c0.039-0.601,0.067-1.205,0.067-1.817C165.263,229.69,165.234,229.085,165.195,228.484z M137.971,248.122
			c-9.841,0-17.82-7.979-17.82-17.82c0-9.842,7.979-17.821,17.82-17.821c9.841,0,17.82,7.979,17.82,17.821
			C155.791,240.143,147.811,248.122,137.971,248.122z"/>
		<path style="fill:#0B294B;" d="M115.082,263.326c-1.964-1.191-2.32-2.463-1.206-4.432c-0.22-0.433-0.462-0.852-0.73-1.253
			c-2.26,0.015-3.169-0.896-3.155-3.155c-0.402-0.27-0.82-0.513-1.255-0.73c-1.967,1.114-3.239,0.758-4.43-1.207
			c-0.255-0.017-0.512-0.028-0.771-0.028c-0.26,0-0.516,0.012-0.772,0.028c-1.19,1.964-2.462,2.32-4.432,1.207
			c-0.433,0.219-0.852,0.461-1.252,0.731c0.015,2.258-0.895,3.169-3.155,3.154c-0.269,0.401-0.51,0.82-0.729,1.253
			c1.112,1.969,0.755,3.241-1.208,4.432c-0.018,0.254-0.028,0.51-0.028,0.77c0,0.26,0.011,0.516,0.028,0.771
			c1.963,1.19,2.32,2.464,1.208,4.431c0.219,0.434,0.46,0.853,0.729,1.253c2.262-0.015,3.172,0.896,3.155,3.155
			c0.4,0.269,0.819,0.511,1.255,0.73c1.967-1.114,3.239-0.756,4.429,1.207c0.257,0.017,0.513,0.028,0.772,0.028
			c0.259,0,0.516-0.011,0.771-0.028c1.19-1.963,2.463-2.32,4.43-1.207c0.435-0.217,0.853-0.461,1.254-0.73
			c-0.014-2.26,0.896-3.17,3.156-3.155c0.269-0.4,0.511-0.82,0.73-1.253c-1.115-1.967-0.758-3.241,1.206-4.431
			c0.017-0.255,0.028-0.511,0.028-0.771C115.11,263.836,115.099,263.58,115.082,263.326z M103.535,270.504
			c-3.54,0-6.409-2.869-6.409-6.409c0-3.539,2.869-6.408,6.409-6.408c3.538,0,6.409,2.869,6.409,6.408
			C109.944,267.636,107.073,270.504,103.535,270.504z"/>
		<path style="fill:#E3E4E8;" d="M127.934,308.75c-1.759-1.065-2.076-2.204-1.081-3.965c-0.194-0.387-0.411-0.762-0.653-1.12
			c-2.021,0.013-2.834-0.802-2.821-2.823c-0.359-0.242-0.734-0.459-1.121-0.654c-1.762,0.997-2.899,0.678-3.964-1.079
			c-0.228-0.016-0.458-0.025-0.69-0.025c-0.231,0-0.461,0.01-0.688,0.025c-1.065,1.758-2.204,2.076-3.965,1.079
			c-0.388,0.195-0.763,0.412-1.12,0.654c0.013,2.021-0.802,2.835-2.824,2.823c-0.24,0.358-0.457,0.733-0.65,1.12
			c0.995,1.762,0.676,2.9-1.081,3.965c-0.016,0.228-0.025,0.457-0.025,0.688c0,0.232,0.01,0.461,0.025,0.689
			c1.757,1.065,2.076,2.204,1.081,3.964c0.193,0.387,0.41,0.763,0.65,1.121c2.024-0.012,2.838,0.801,2.824,2.822
			c0.357,0.242,0.732,0.458,1.122,0.654c1.759-0.997,2.897-0.677,3.963,1.08c0.228,0.015,0.457,0.025,0.688,0.025
			c0.232,0,0.463-0.01,0.69-0.025c1.064-1.757,2.202-2.077,3.964-1.08c0.387-0.195,0.762-0.412,1.12-0.652
			c-0.013-2.022,0.802-2.836,2.822-2.824c0.242-0.358,0.459-0.733,0.653-1.121c-0.996-1.76-0.678-2.899,1.081-3.964
			c0.015-0.228,0.024-0.457,0.024-0.689C127.958,309.207,127.948,308.978,127.934,308.75z M117.603,316.246
			c-3.759,0-6.808-3.047-6.808-6.808c0-3.76,3.049-6.807,6.808-6.807c3.76,0,6.81,3.047,6.81,6.807
			C124.412,313.199,121.362,316.246,117.603,316.246z"/>
		<path style="fill:#E3E4E8;" d="M143.913,316.661c-0.919-1.121-0.866-1.952,0.209-2.891c-0.038-0.303-0.095-0.604-0.171-0.899
			c-1.349-0.464-1.698-1.197-1.217-2.539c-0.184-0.245-0.382-0.478-0.594-0.697c-1.405,0.251-2.088-0.229-2.385-1.646
			c-0.149-0.064-0.298-0.125-0.453-0.18c-0.154-0.053-0.309-0.101-0.464-0.145c-1.12,0.92-1.952,0.866-2.892-0.209
			c-0.303,0.039-0.604,0.096-0.898,0.172c-0.465,1.349-1.196,1.7-2.539,1.218c-0.244,0.182-0.476,0.38-0.696,0.593
			c0.251,1.405-0.229,2.087-1.647,2.384c-0.064,0.149-0.123,0.299-0.178,0.453c-0.055,0.155-0.102,0.31-0.146,0.465
			c0.92,1.12,0.867,1.953-0.209,2.891c0.039,0.303,0.096,0.604,0.172,0.899c1.349,0.464,1.7,1.197,1.217,2.538
			c0.182,0.244,0.381,0.477,0.595,0.697c1.403-0.251,2.087,0.228,2.385,1.647c0.147,0.063,0.297,0.123,0.452,0.179
			c0.155,0.053,0.311,0.101,0.466,0.144c1.12-0.92,1.95-0.866,2.89,0.21c0.303-0.039,0.603-0.097,0.898-0.172
			c0.465-1.348,1.197-1.701,2.539-1.218c0.244-0.182,0.477-0.38,0.696-0.594c-0.251-1.403,0.229-2.086,1.648-2.384
			c0.063-0.148,0.124-0.297,0.179-0.453C143.823,316.97,143.869,316.816,143.913,316.661z M135.627,318.257
			c-1.964-0.691-2.995-2.844-2.305-4.807c0.691-1.965,2.844-2.997,4.807-2.306c1.965,0.69,2.996,2.843,2.307,4.808
			C139.743,317.916,137.592,318.947,135.627,318.257z"/>
		<path style="fill:#525154;" d="M108.323,264.095c0,2.644-2.143,4.789-4.788,4.789c-2.646,0-4.79-2.145-4.79-4.789
			c0-2.644,2.145-4.789,4.79-4.789C106.18,259.307,108.323,261.452,108.323,264.095z"/>
		<path style="fill:#525154;" d="M152.693,230.301c0,8.13-6.593,14.723-14.723,14.723c-8.131,0-14.723-6.593-14.723-14.723
			c0-8.13,6.592-14.724,14.723-14.724C146.101,215.578,152.693,222.171,152.693,230.301z"/>
		<path style="fill:#6C6B70;" d="M122.472,309.439c0,2.689-2.181,4.868-4.869,4.868c-2.688,0-4.868-2.18-4.868-4.868
			c0-2.688,2.181-4.869,4.868-4.869C120.291,304.57,122.472,306.75,122.472,309.439z"/>
		<path style="fill:#6C6B70;" d="M139.32,314.7c0,1.349-1.095,2.442-2.441,2.442c-1.35,0-2.442-1.093-2.442-2.442
			c0-1.349,1.093-2.442,2.442-2.442C138.226,312.258,139.32,313.351,139.32,314.7z"/>
		<path style="fill:#C1C3C8;" d="M105.746,264.76c-0.917,0.846-2.345,0.789-3.191-0.126l0,0c-0.846-0.916-0.789-2.345,0.127-3.191
			l33.394-32.501c0.916-0.845,2.344-0.788,3.189,0.127l0,0c0.846,0.917,0.789,2.344-0.126,3.19L105.746,264.76z"/>
		<path style="fill:#C1C3C8;" d="M117.347,310.789c-0.637-0.328-0.886-1.11-0.558-1.747l0,0c0.329-0.636,1.111-0.886,1.748-0.558
			l18.626,5.242c0.636,0.33,0.886,1.111,0.558,1.749l0,0c-0.329,0.636-1.11,0.886-1.747,0.557L117.347,310.789z"/>
		<path style="fill:#0B294B;" d="M183.731,286.892h-8.571c-1.087,0-1.967,0.88-1.967,1.967c0,1.087,0.88,1.967,1.967,1.967h8.571
			V286.892z"/>
		<path style="fill:#0B294B;" d="M196.263,265.8l-10.3-27.784h-10.581c-7.671,0-13.892,6.219-13.892,13.892
			c0,7.672,6.221,13.892,13.892,13.892H196.263z"/>
		<path style="fill:#30B3C8;" d="M194.64,261.407l-7.043-18.998h-11.058c-5.246,0-9.5,4.252-9.5,9.499
			c0,5.246,4.254,9.499,9.5,9.499H194.64z"/>
		<g>
			<g>
				<path style="fill:#E3E4E8;" d="M185.024,254.104c-0.287,0-0.577-0.097-0.816-0.296l-7.753-6.453
					c-0.541-0.451-0.615-1.256-0.163-1.798c0.45-0.542,1.255-0.616,1.798-0.165l7.753,6.454c0.541,0.451,0.614,1.256,0.164,1.798
					C185.755,253.946,185.392,254.104,185.024,254.104z"/>
			</g>
			<g>
				<path style="fill:#E3E4E8;" d="M184.406,258.72c-0.288,0-0.577-0.097-0.816-0.295l-7.752-6.453
					c-0.543-0.451-0.616-1.256-0.165-1.798c0.451-0.542,1.257-0.616,1.798-0.164l7.753,6.453c0.541,0.45,0.615,1.256,0.165,1.798
					C185.137,258.563,184.772,258.72,184.406,258.72z"/>
			</g>
		</g>
	</g>
	<g>
		<rect x="279.499" y="280.679" style="fill:#E69B84;" width="44.466" height="61.331"/>
		<path style="fill:#F2AD9A;" d="M231.506,268.033l12.269-33.091c5.296-24.051,26.722-42.051,52.359-42.051
			c29.626,0,53.635,24.013,53.635,53.634c0,19.146-10.039,35.939-25.136,45.43l0.008,0.006c0,0-18.642,18.965-68.585,18.965
			c-9.015,0-10.741-4.14-10.741-7.281c0-4.646-0.02-16.01-0.02-19.827c0-2.875-1.847-5.552-5.342-5.552
			c-2.025,0-2.646-0.033-6.634-0.033C229.333,278.233,227.942,275.926,231.506,268.033z"/>
		<path style="fill:#EB7E00;" d="M345.081,425.197v-59.042c0-23.854-19.336-43.19-43.186-43.19
			c-37.137,0-43.191,44.35-43.191,68.202v34.03H345.081z"/>
		<path style="fill:#CCC9AD;" d="M301.732,425.197V322.968c-36.991,0.131-43.029,44.382-43.029,68.199v34.03H301.732z"/>
		<path style="fill:#0B294B;" d="M257.015,220.598c0,0,38.298,0.567,38.298,27.242c0,0,0,11.83,0,15.98
			c0,3.058,1.862,8.424,10.377,8.424c0,0-0.054-13.229-0.054-18.747c0-4.384,8.638-13.72,16.866-7.289
			c8.23,6.431-3.511,19.591-3.511,19.591s-0.036,18.505-0.036,25.042c0,2.31,1.233,5.911,6.952,3.785
			c13.8-5.129,25.824-19.971,25.824-50.618c0-18.821-4.824-54.91-47.959-54.91c-13.6,0-35.948-3.444-50.893,19.226
			C251.098,211.027,250.456,220.598,257.015,220.598z"/>
		<g>
			
				<path style="fill:none;stroke:#C17F68;stroke-width:1.7026;stroke-linecap:round;stroke-linejoin:round;stroke-miterlimit:10;" d="
				M312.925,260.362c0,0,5.402-2.659,5.959-9.258"/>
			
				<path style="fill:none;stroke:#C17F68;stroke-width:1.7026;stroke-linecap:round;stroke-linejoin:round;stroke-miterlimit:10;" d="
				M314.682,251.908c0,0,2.188,1.43,2.826,3.824"/>
		</g>
		<g>
			<g>
				<path style="fill:#FFFFFF;" d="M267.783,256.31l-12.402-3.863c0,0-2.987,5.981,0,8.943L267.783,256.31z"/>
				<path style="fill:#0B294B;" d="M260.919,256.917c0-1.154-0.39-2.208-1.022-3.064l-4.517-1.406c0,0-2.987,5.981,0,8.943
					l4.89-2.003C260.67,258.652,260.919,257.818,260.919,256.917z"/>
				<g>
					<g>
						<path style="fill:#CE9282;" d="M249.622,248.708c1.355,0.952,2.805,1.751,4.28,2.483c1.479,0.726,2.996,1.368,4.539,1.925
							c3.086,1.117,6.276,1.9,9.497,2.356c0.466,0.065,0.791,0.496,0.726,0.962c-0.066,0.466-0.497,0.791-0.962,0.725
							c-0.024-0.003-0.05-0.008-0.073-0.014c-3.285-0.756-6.478-1.841-9.512-3.243c-1.517-0.7-2.993-1.48-4.419-2.338
							C252.277,250.701,250.892,249.774,249.622,248.708z"/>
					</g>
					<g>
						<path style="fill:#CE9282;" d="M253.216,262.756c0.971-0.898,2.112-1.6,3.262-2.259c1.159-0.651,2.358-1.228,3.58-1.757
							c2.444-1.055,4.973-1.914,7.534-2.653c0.452-0.13,0.925,0.13,1.055,0.583c0.13,0.452-0.13,0.925-0.583,1.056
							c-0.03,0.008-0.06,0.015-0.09,0.021c-2.57,0.45-5.123,1.02-7.622,1.792c-1.248,0.387-2.482,0.825-3.686,1.34
							C255.469,261.403,254.275,261.97,253.216,262.756z"/>
					</g>
				</g>
			</g>
			<path style="fill:#FFFFFF;" d="M257.485,255.354c0,0.767-0.592,1.387-1.321,1.387c-0.731,0-1.323-0.62-1.323-1.387
				c0-0.766,0.592-1.386,1.323-1.386C256.893,253.968,257.485,254.588,257.485,255.354z"/>
		</g>
		<path style="fill:#ED8D83;" d="M274.536,284.594c0,3.67-5.015,6.646-11.2,6.646c-6.186,0-11.2-2.976-11.2-6.646
			c0-3.671,5.015-6.646,11.2-6.646C269.522,277.947,274.536,280.923,274.536,284.594z"/>
		<path style="fill:none;stroke:#2F2B20;stroke-width:1.7026;stroke-miterlimit:10;" d="M245.303,291.243
			c8.749,0,15.196-2.384,18.033-7.257"/>
		<g>
			<g>
				<g>
					<polygon style="fill:#F2AD9A;" points="319.223,425.197 320.387,376.4 283.447,376.4 284.611,425.197 					"/>
				</g>
			</g>
			<path style="fill:#EB7E00;" d="M323.039,403.608v-33.293c0-11.666-9.456-21.122-21.122-21.122
				c-11.665,0-21.122,9.456-21.122,21.122v33.293H323.039z"/>
		</g>
	</g>
</g>
</svg>
