<?xml version="1.0" encoding="utf-8"?>
<!-- Generator: Adobe Illustrator 27.5.0, SVG Export Plug-In . SVG Version: 6.00 Build 0)  -->
<svg version="1.1" id="Capa_1" xmlns="http://www.w3.org/2000/svg" xmlns:xlink="http://www.w3.org/1999/xlink" x="0px" y="0px"
	 viewBox="0 0 425.2 425.2" style="enable-background:new 0 0 425.2 425.2;" xml:space="preserve">
<g>
	<g>
		<rect x="0.002" y="0.001" style="fill:#F68A2D;" width="425.195" height="425.197"/>
		<circle style="opacity:0.3;fill:#FFFFFF;" cx="217.194" cy="204.271" r="189"/>
	</g>
	<g>
		<path style="fill:#FFFFFF;" d="M214.424,236.856h-6.447v-37.542h17.492v5.499h-11.045v7.442h11.045v6.684h-11.045V236.856z"/>
		<path style="fill:#FFFFFF;" d="M228.74,199.361h6.398v37.495h-6.398V199.361z"/>
		<path style="fill:#FFFFFF;" d="M244.808,213.77v23.085h-6.494v-37.605l25.929,23.596v-23.486h6.209v37.495L244.808,213.77z"/>
		<path style="fill:#FFFFFF;" d="M273.723,218.132c0-1.074,0.37-1.974,1.113-2.701c0.742-0.727,1.651-1.091,2.725-1.091
			c1.043,0,1.936,0.372,2.68,1.114c0.741,0.743,1.114,1.635,1.114,2.678c0,1.075-0.364,1.984-1.092,2.726
			c-0.727,0.743-1.627,1.114-2.702,1.114c-1.073,0-1.982-0.371-2.725-1.114C274.093,220.116,273.723,219.207,273.723,218.132z"/>
		<path style="fill:#FFFFFF;" d="M297.517,236.856h-6.494V204.86H281.4v-5.499h25.692v5.499h-9.575V236.856z"/>
		<path style="fill:#FFFFFF;" d="M305.433,199.313h17.491v5.499h-11.045v7.442h11.045v6.684h-11.045v12.419h11.045v5.498h-17.491
			V199.313z"/>
		<path style="fill:#FFFFFF;" d="M345.297,205.713c-3.539,0-6.543,1.236-9.006,3.705c-2.466,2.47-3.697,5.478-3.697,9.022
			c0,3.515,1.239,6.507,3.72,8.976c2.482,2.47,5.476,3.704,8.983,3.704c2.274,0,4.391-0.585,6.352-1.754v7.016
			c-2.055,0.727-4.171,1.09-6.352,1.09c-5.309,0-9.821-1.845-13.532-5.538c-3.716-3.693-5.571-8.19-5.571-13.494
			c0-5.302,1.855-9.807,5.571-13.516c3.711-3.708,8.224-5.563,13.532-5.563c2.181,0,4.297,0.361,6.352,1.083v7.022
			C349.688,206.298,347.572,205.713,345.297,205.713z"/>
		<path style="fill:#FFFFFF;" d="M361.317,236.856h-6.398v-37.495h6.398v12.893h12.656v-12.893h6.399v37.495h-6.399v-17.917h-12.656
			V236.856z"/>
	</g>
	<g>
		
			<polyline style="fill:#419DD7;stroke:#152E54;stroke-width:2.9469;stroke-linecap:round;stroke-linejoin:round;stroke-miterlimit:10;" points="
			128.761,425.092 128.151,383.051 44.245,396.712 38.775,425.2 		"/>
		<g>
			
				<path style="fill:#C7C8CA;stroke:#152E54;stroke-width:2.9469;stroke-linecap:round;stroke-linejoin:round;stroke-miterlimit:10;" d="
				M87.13,373.77c21.722,0.913,43.02-3.534,43.232-8.63c0.216-5.096-20.736-8.915-42.456-9.828
				c-21.724-0.914-39.504,2.478-39.717,7.576C47.975,367.988,65.41,372.857,87.13,373.77z"/>
			
				<path style="fill:#E4B69D;stroke:#152E54;stroke-width:2.9469;stroke-linecap:round;stroke-linejoin:round;stroke-miterlimit:10;" d="
				M125.468,372.039c0,0-1.08-12.495,0.403-16.408c0,0,56.543-84.182,19.354-146.617l-84.205-7.243c0,0-38.865,56.793-1.192,133.29
				c0,0,3.495,21.464-10.359,33.22"/>
			<g>
				
					<path style="fill:#092143;stroke:#152E54;stroke-width:1.8613;stroke-linecap:round;stroke-linejoin:round;stroke-miterlimit:10;" d="
					M32.261,250.411c-0.306,2.205,1.231,4.235,3.436,4.542l122.705,16.994c2.201,0.305,4.23-1.233,4.537-3.435l29.739-214.708
					c0.306-2.202-1.234-4.233-3.434-4.538L66.539,32.27c-2.204-0.305-4.235,1.233-4.54,3.434L32.261,250.411z"/>
				
					<path style="fill:#152E53;stroke:#152E54;stroke-width:1.8613;stroke-linecap:round;stroke-linejoin:round;stroke-miterlimit:10;" d="
					M36.793,247.595c-0.295,2.126,1.141,4.083,3.204,4.368l115.074,15.94c2.066,0.285,3.977-1.209,4.272-3.333l28.719-207.363
					c0.296-2.126-1.139-4.083-3.204-4.368L69.786,36.899c-2.065-0.285-3.978,1.207-4.272,3.333L36.793,247.595z"/>
				
					<path style="fill:#092143;stroke:#152E54;stroke-width:1.8613;stroke-linecap:round;stroke-linejoin:round;stroke-miterlimit:10;" d="
					M89.075,242.596c-0.815,5.886,3.294,11.319,9.182,12.134c5.885,0.815,11.318-3.296,12.134-9.181
					c0.815-5.886-3.295-11.319-9.184-12.134C95.321,232.599,89.889,236.708,89.075,242.596z"/>
				
					<path style="fill:none;stroke:#D1D3D4;stroke-width:1.8613;stroke-linecap:round;stroke-linejoin:round;stroke-miterlimit:10;" d="
					M93.166,245.111c-0.305,2.2,1.234,4.233,3.435,4.539l4.628,0.642c2.202,0.305,4.231-1.232,4.54-3.436l0.638-4.625
					c0.305-2.202-1.233-4.235-3.434-4.539l-4.627-0.641c-2.202-0.305-4.232,1.232-4.538,3.436L93.166,245.111z"/>
				
					<path style="fill:#092143;stroke:#152E54;stroke-width:1.8613;stroke-linecap:round;stroke-linejoin:round;stroke-miterlimit:10;" d="
					M111.105,53.074c-0.179,1.297,0.723,2.491,2.018,2.669l24.907,3.45c1.295,0.178,2.49-0.725,2.669-2.021l0,0
					c0.179-1.294-0.724-2.49-2.021-2.668l-24.904-3.448C112.478,50.876,111.282,51.78,111.105,53.074L111.105,53.074z"/>
				<path style="fill:#FFFFFF;" d="M150.094,58.474c-0.18,1.294,0.726,2.491,2.019,2.671l0,0c1.296,0.178,2.491-0.728,2.67-2.022
					l0,0c0.179-1.292-0.724-2.488-2.02-2.667l0,0C151.468,56.276,150.273,57.182,150.094,58.474L150.094,58.474z"/>
				<path style="fill:#D1D3D4;" d="M41.014,217.121c-0.228,1.643,1.261,3.205,3.326,3.492l115.075,15.938
					c2.064,0.287,3.923-0.814,4.151-2.456L185.749,73.91c0.23-1.642-1.261-3.207-3.326-3.493L67.349,54.479
					c-2.063-0.287-3.921,0.816-4.148,2.457L41.014,217.121z"/>
				<g>
					<g>
						<g>
							
								<path style="fill:#E3D558;stroke:#152E54;stroke-width:0.4653;stroke-linecap:round;stroke-linejoin:round;stroke-miterlimit:10;" d="
								M125.325,104.582c-0.663,4.863-5.141,8.266-10.003,7.604c-4.863-0.663-8.266-5.14-7.604-10.003
								c0.662-4.861,5.14-8.264,10.002-7.602C122.582,95.244,125.988,99.721,125.325,104.582z"/>
							<g>
								<path style="fill:#B89C20;" d="M124.104,104.416c-0.571,4.19-4.427,7.12-8.615,6.549c-4.188-0.57-7.119-4.425-6.548-8.615
									c0.57-4.187,4.426-7.12,8.614-6.549C121.743,96.371,124.675,100.229,124.104,104.416z"/>
								
									<path style="fill:none;stroke:#152E54;stroke-width:0.4653;stroke-linecap:round;stroke-linejoin:round;stroke-miterlimit:10;" d="
									M124.104,104.416c-0.571,4.19-4.427,7.12-8.615,6.549c-4.188-0.57-7.119-4.425-6.548-8.615
									c0.57-4.187,4.426-7.12,8.614-6.549C121.743,96.371,124.675,100.229,124.104,104.416z"/>
							</g>
							
								<path style="fill:#E3D558;stroke:#152E54;stroke-width:0.4653;stroke-linecap:round;stroke-linejoin:round;stroke-miterlimit:10;" d="
								M123.548,104.341c-0.529,3.881-4.103,6.597-7.983,6.068c-3.88-0.529-6.597-4.102-6.068-7.983
								c0.528-3.879,4.101-6.595,7.982-6.066C121.359,96.888,124.077,100.461,123.548,104.341z"/>
							<g>
								<g>
									<g>
										<path style="fill:#B89C20;" d="M118.222,103.595c0.792-0.265,1.379-0.855,1.481-1.608c0.142-1.035-0.684-2.023-1.894-2.35
											l0.068-0.498c0.025-0.186-0.117-0.357-0.316-0.384c-0.2-0.027-0.38,0.1-0.406,0.286l-0.064,0.47
											c-0.078-0.01-0.171-0.023-0.283-0.039l0,0l0.06-0.438c0.025-0.184-0.115-0.356-0.315-0.383
											c-0.199-0.027-0.381,0.101-0.406,0.285l-0.06,0.439l0,0c-0.729-0.1-1.515-0.207-1.521-0.208c0,0-0.054-0.008-0.083-0.012
											c-0.203-0.027-0.387,0.082-0.409,0.247c-0.022,0.164,0.124,0.311,0.328,0.341c0.118,0.02,0.083,0.015,0.083,0.015
											c0.007,0.001-0.24-0.033,0.49,0.067l-0.89,6.532c-0.303-0.041-0.438-0.06-0.492-0.067c-0.007,0-0.033-0.004-0.048-0.006
											c-0.204-0.028-0.387,0.083-0.409,0.247c-0.022,0.163,0.125,0.319,0.329,0.346c0.018,0.002,0.05,0.007,0.05,0.007
											c0.007,0,0.791,0.107,1.521,0.207l-0.07,0.507c-0.025,0.186,0.116,0.357,0.315,0.385c0.201,0.027,0.382-0.101,0.407-0.287
											l0.068-0.506c0.111,0.015,0.206,0.028,0.283,0.038l-0.069,0.504c-0.025,0.185,0.114,0.356,0.314,0.384
											c0.199,0.027,0.383-0.101,0.408-0.286l0.071-0.524c0,0,2.124,0.2,2.455-1.766
											C119.344,104.793,118.914,104.063,118.222,103.595z M115.93,100.186c0.728,0.101,1.406,0.194,1.413,0.194
											c0.847,0.131,1.453,0.784,1.358,1.47c-0.088,0.646-0.761,1.095-1.547,1.067c-0.052-0.011-0.103-0.022-0.157-0.029
											c-0.009-0.001-1.021-0.139-1.41-0.192L115.93,100.186z M116.512,106.479c-0.006-0.001-0.695-0.095-1.434-0.195
											l0.348-2.547c0.395,0.054,1.421,0.194,1.43,0.195c0.055,0.008,0.108,0.011,0.16,0.015
											c0.778,0.187,1.313,0.808,1.224,1.462C118.144,106.104,117.375,106.578,116.512,106.479z"/>
									</g>
									<g>
										
											<path style="fill:none;stroke:#152E54;stroke-width:0.4653;stroke-linecap:round;stroke-linejoin:round;stroke-miterlimit:10;" d="
											M118.222,103.595c0.792-0.265,1.379-0.855,1.481-1.608c0.142-1.035-0.684-2.023-1.894-2.35l0.068-0.498
											c0.025-0.186-0.117-0.357-0.316-0.384c-0.2-0.027-0.38,0.1-0.406,0.286l-0.064,0.47c-0.078-0.01-0.171-0.023-0.283-0.039
											l0,0l0.06-0.438c0.025-0.184-0.115-0.356-0.315-0.383c-0.199-0.027-0.381,0.101-0.406,0.285l-0.06,0.439l0,0
											c-0.729-0.1-1.515-0.207-1.521-0.208c0,0-0.054-0.008-0.083-0.012c-0.203-0.027-0.387,0.082-0.409,0.247
											c-0.022,0.164,0.124,0.311,0.328,0.341c0.118,0.02,0.083,0.015,0.083,0.015c0.007,0.001-0.24-0.033,0.49,0.067
											l-0.89,6.532c-0.303-0.041-0.438-0.06-0.492-0.067c-0.007,0-0.033-0.004-0.048-0.006
											c-0.204-0.028-0.387,0.083-0.409,0.247c-0.022,0.163,0.125,0.319,0.329,0.346c0.018,0.002,0.05,0.007,0.05,0.007
											c0.007,0,0.791,0.107,1.521,0.207l-0.07,0.507c-0.025,0.186,0.116,0.357,0.315,0.385c0.201,0.027,0.382-0.101,0.407-0.287
											l0.068-0.506c0.111,0.015,0.206,0.028,0.283,0.038l-0.069,0.504c-0.025,0.185,0.114,0.356,0.314,0.384
											c0.199,0.027,0.383-0.101,0.408-0.286l0.071-0.524c0,0,2.124,0.2,2.455-1.766
											C119.344,104.793,118.914,104.063,118.222,103.595z M115.93,100.186c0.728,0.101,1.406,0.194,1.413,0.194
											c0.847,0.131,1.453,0.784,1.358,1.47c-0.088,0.646-0.761,1.095-1.547,1.067c-0.052-0.011-0.103-0.022-0.157-0.029
											c-0.009-0.001-1.021-0.139-1.41-0.192L115.93,100.186z M116.512,106.479c-0.006-0.001-0.695-0.095-1.434-0.195
											l0.348-2.547c0.395,0.054,1.421,0.194,1.43,0.195c0.055,0.008,0.108,0.011,0.16,0.015
											c0.778,0.187,1.313,0.808,1.224,1.462C118.144,106.104,117.375,106.578,116.512,106.479z"/>
									</g>
								</g>
							</g>
						</g>
					</g>
				</g>
				<g>
					<g>
						<g>
							
								<rect x="51.501" y="168.542" transform="matrix(0.135 -0.9908 0.9908 0.135 -107.6465 225.3725)" style="fill:#F15A3C;" width="47.516" height="11.598"/>
							
								<rect x="51.501" y="168.542" transform="matrix(0.135 -0.9908 0.9908 0.135 -107.6465 225.3725)" style="fill:none;stroke:#152E54;stroke-width:1.8613;stroke-linecap:round;stroke-linejoin:round;stroke-miterlimit:10;" width="47.516" height="11.598"/>
						</g>
						<g>
							
								<rect x="61.984" y="164.601" transform="matrix(0.135 -0.9908 0.9908 0.135 -89.3578 238.4438)" style="fill:#E3D558;" width="59.812" height="11.602"/>
							
								<rect x="61.984" y="164.601" transform="matrix(0.135 -0.9908 0.9908 0.135 -89.3578 238.4438)" style="fill:none;stroke:#152E54;stroke-width:1.8613;stroke-linecap:round;stroke-linejoin:round;stroke-miterlimit:10;" width="59.812" height="11.602"/>
						</g>
						<g>
							
								<rect x="97.127" y="172.291" transform="matrix(0.135 -0.9908 0.9908 0.135 -69.4511 276.6294)" style="fill:#E3D558;" width="53.165" height="11.601"/>
							
								<rect x="97.127" y="172.291" transform="matrix(0.135 -0.9908 0.9908 0.135 -69.4511 276.6294)" style="fill:none;stroke:#152E54;stroke-width:1.8613;stroke-linecap:round;stroke-linejoin:round;stroke-miterlimit:10;" width="53.165" height="11.601"/>
						</g>
						<g>
							
								<rect x="121.307" y="183.708" transform="matrix(0.135 -0.9908 0.9908 0.135 -67.8943 301.2464)" style="fill:#F15A3C;" width="34.558" height="11.602"/>
							
								<rect x="121.307" y="183.708" transform="matrix(0.135 -0.9908 0.9908 0.135 -67.8943 301.2464)" style="fill:none;stroke:#152E54;stroke-width:1.8613;stroke-linecap:round;stroke-linejoin:round;stroke-miterlimit:10;" width="34.558" height="11.602"/>
						</g>
						<g>
							
								<rect x="66.999" y="154.989" transform="matrix(0.135 -0.9908 0.9908 0.135 -65.2919 246.7848)" style="fill:#689F56;" width="83.402" height="11.599"/>
							
								<rect x="66.999" y="154.989" transform="matrix(0.135 -0.9908 0.9908 0.135 -65.2919 246.7848)" style="fill:none;stroke:#152E54;stroke-width:1.8613;stroke-linecap:round;stroke-linejoin:round;stroke-miterlimit:10;" width="83.402" height="11.599"/>
						</g>
						<g>
							<g>
								<polyline style="fill:none;stroke:#152E54;stroke-width:1.8613;stroke-linecap:round;stroke-linejoin:round;" points="
									154.6,174.138 142.743,159.224 146.078,151.23 131.333,136.602 134.784,125.101 131.872,120.829 								"/>
								<g>
									<path style="fill:#152E54;" d="M125.544,111.547c4.598,3.263,11.057,6.797,16.275,8.16l-9.118,2.34l-5.509,7.63
										C127.831,124.322,126.903,117.018,125.544,111.547z"/>
								</g>
							</g>
						</g>
					</g>
				</g>
				<path style="fill:#D1D3D4;" d="M66.499,32.565l8.784,1.218c-4.976,72.184,16.396,144.669,60.229,202.598
					c8.452,11.169,17.666,21.667,27.517,31.468l-0.132,0.951c-0.303,2.204-2.337,3.741-4.535,3.436L35.658,255.24
					c-2.201-0.303-3.741-2.337-3.435-4.537L61.96,36.001C62.265,33.8,64.296,32.262,66.499,32.565z"/>
			</g>
			
				<path style="fill:#E4B69D;stroke:#152E54;stroke-width:2.9469;stroke-linecap:round;stroke-linejoin:round;stroke-miterlimit:10;" d="
				M84.71,293.11c-4.897-46.218-35.547-46.416-35.547-46.416c33.688,5.297,51.212-14.681,51.212-14.681
				c10.282-13.527-3.734-14.43-3.734-14.43c-12.748,8.145-37.922,5.434-37.922,5.434c-35.337-4.733-33.723,22.956-33.723,22.956
				c-3.121,11.823,12.998,64.236,12.998,64.236s3.727,16.345,21.626,32.087c0,0,2.59,5.753-6.545,21.982"/>
		</g>
		
			<path style="fill:#419DD7;stroke:#152E54;stroke-width:2.9469;stroke-linecap:round;stroke-linejoin:round;stroke-miterlimit:10;" d="
			M130.363,365.14c0,0-25.421,15.107-82.173-2.252l-6.631,42.63c0,0,48.291,27.185,86.189,3.45L130.363,365.14z"/>
		
			<path style="fill:#CDCFD0;stroke:#152E54;stroke-width:2.9469;stroke-linecap:round;stroke-linejoin:round;stroke-miterlimit:10;" d="
			M50.21,381.952c2.246,1.759,5.493,1.364,7.252-0.882c1.76-2.245,1.365-5.493-0.881-7.253c-2.246-1.757-5.494-1.365-7.252,0.882
			C47.568,376.945,47.964,380.192,50.21,381.952z"/>
		
			<path style="fill:#CDCFD0;stroke:#152E54;stroke-width:2.9469;stroke-linecap:round;stroke-linejoin:round;stroke-miterlimit:10;" d="
			M47.535,398.612c2.248,1.761,5.494,1.366,7.253-0.881c1.758-2.246,1.364-5.492-0.881-7.252c-2.248-1.76-5.494-1.365-7.252,0.882
			C44.893,393.606,45.291,396.853,47.535,398.612z"/>
	</g>
</g>
</svg>
