<?xml version="1.0" encoding="UTF-8"?>
<svg xmlns="http://www.w3.org/2000/svg" xmlns:xlink="http://www.w3.org/1999/xlink" viewBox="0 0 425.2 425.2">
  <defs>
    <style>
      .cls-1 {
        fill: #a5a7aa;
      }

      .cls-2 {
        fill: #00a9bb;
      }

      .cls-3 {
        fill: url(#linear-gradient-2);
      }

      .cls-3, .cls-4, .cls-5 {
        mix-blend-mode: multiply;
      }

      .cls-6 {
        fill: #00a4ae;
      }

      .cls-7 {
        mask: url(#mask-1);
      }

      .cls-8 {
        fill: #f1f2f2;
      }

      .cls-9 {
        fill: #231f20;
      }

      .cls-10 {
        fill: #cf3630;
      }

      .cls-11 {
        fill: #fff;
      }

      .cls-12 {
        fill: #e29c79;
      }

      .cls-13 {
        mask: url(#mask);
      }

      .cls-14 {
        fill: #cfd1d2;
      }

      .cls-15 {
        fill: #808285;
      }

      .cls-16 {
        fill: #6d6e71;
        opacity: .07;
      }

      .cls-17 {
        fill: #575a5b;
      }

      .cls-18 {
        isolation: isolate;
      }

      .cls-19 {
        fill: #939598;
      }

      .cls-20 {
        fill: #2d2932;
      }

      .cls-21 {
        fill: #d1d3d4;
      }

      .cls-22 {
        fill: #a7a9ac;
      }

      .cls-23 {
        fill: #603913;
      }

      .cls-5 {
        fill: url(#linear-gradient-3);
      }

      .cls-24 {
        fill: #ef4136;
      }

      .cls-25 {
        fill: #013b5a;
      }

      .cls-26 {
        fill: #fbb688;
      }

      .cls-27 {
        fill: url(#linear-gradient);
      }

      .cls-28 {
        fill: #bcbec0;
      }

      .cls-29 {
        filter: url(#luminosity-noclip);
      }
    </style>
    <linearGradient id="linear-gradient" x1="209.28" y1="145.7" x2="216.25" y2="385.34" gradientUnits="userSpaceOnUse">
      <stop offset="0" stop-color="#414042"/>
      <stop offset=".58" stop-color="#2c292b"/>
      <stop offset="1" stop-color="#231f20"/>
    </linearGradient>
    <filter id="luminosity-noclip" x="195.84" y="200.48" width="67.96" height="152.14" color-interpolation-filters="sRGB" filterUnits="userSpaceOnUse">
      <feFlood flood-color="#fff" result="bg"/>
      <feBlend in="SourceGraphic" in2="bg"/>
    </filter>
    <filter id="luminosity-noclip-2" x="195.84" y="-8405" width="67.96" height="32766" color-interpolation-filters="sRGB" filterUnits="userSpaceOnUse">
      <feFlood flood-color="#fff" result="bg"/>
      <feBlend in="SourceGraphic" in2="bg"/>
    </filter>
    <mask id="mask-1" x="195.84" y="-8405" width="67.96" height="32766" maskUnits="userSpaceOnUse"/>
    <linearGradient id="linear-gradient-2" x1="144.81" y1="249.31" x2="262.57" y2="281.58" gradientUnits="userSpaceOnUse">
      <stop offset="0" stop-color="#fff"/>
      <stop offset="1" stop-color="gray"/>
    </linearGradient>
    <mask id="mask" x="195.84" y="200.48" width="67.96" height="152.14" maskUnits="userSpaceOnUse">
      <g class="cls-29">
        <g class="cls-7">
          <polygon class="cls-3" points="263.79 221.05 227 200.48 209.49 259.95 195.84 314.34 261.39 352.62 263.79 340.87 263.79 221.05"/>
        </g>
      </g>
    </mask>
    <linearGradient id="linear-gradient-3" x1="144.81" y1="249.31" x2="262.57" y2="281.58" gradientUnits="userSpaceOnUse">
      <stop offset="0" stop-color="#414042"/>
      <stop offset="1" stop-color="#f1f2f2"/>
    </linearGradient>
  </defs>
  <g class="cls-18">
    <g id="Layer_2" data-name="Layer 2">
      <g id="Capa_1" data-name="Capa 1">
        <rect class="cls-8" width="425.2" height="425.2"/>
        <g>
          <g>
            <path class="cls-28" d="M109.42,167.66c0,21.74-17.62,39.36-39.36,39.36s-39.36-17.62-39.36-39.36,17.62-39.36,39.36-39.36,39.36,17.62,39.36,39.36Z"/>
            <g>
              <path class="cls-11" d="M77.06,147.3h1.2c.82,0,1.49.67,1.49,1.49v1.69h2.49v-4.72c0-1.03-.84-1.87-1.87-1.87h-3.25c.06.17.1.35.1.54v2.22c0,.24-.07.47-.17.67Z"/>
              <path class="cls-11" d="M60.38,148.79c0-.82.66-1.49,1.49-1.49h1.21c-.11-.2-.17-.42-.17-.67v-2.22c0-.19.04-.37.11-.54h-3.25c-1.03,0-1.87.84-1.87,1.87v4.72h2.49v-1.69Z"/>
              <path class="cls-11" d="M91.41,151.25h-42.69c-2.14,0-3.87,1.73-3.87,3.87v26.84c0,2.14,1.73,3.87,3.87,3.87h42.69c2.14,0,3.87-1.73,3.87-3.87v-26.84c0-2.14-1.73-3.87-3.87-3.87ZM80.11,171.5c0,.85-.69,1.54-1.54,1.54h-3.98v3.98c0,.85-.69,1.54-1.54,1.54h-6.66c-.85,0-1.54-.69-1.54-1.54v-3.98h-3.98c-.85,0-1.54-.69-1.54-1.54v-6.66c0-.85.69-1.54,1.54-1.54h3.98v-3.98c0-.85.69-1.54,1.54-1.54h6.66c.85,0,1.54.69,1.54,1.54v3.98h3.98c.85,0,1.54.69,1.54,1.54v6.66Z"/>
              <path class="cls-11" d="M64.98,148.05h10.17c.7,0,1.26-.64,1.26-1.42v-2.22c0-.79-.56-1.42-1.26-1.42h-10.17c-.69,0-1.26.64-1.26,1.42v2.22c0,.79.56,1.42,1.26,1.42Z"/>
            </g>
            <path class="cls-28" d="M374.23,108.74c0,11.94-9.68,21.62-21.62,21.62s-21.62-9.68-21.62-21.62,9.68-21.62,21.62-21.62,21.62,9.68,21.62,21.62Z"/>
            <g>
              <path class="cls-11" d="M356.45,97.56h.66c.45,0,.82.37.82.82v.93h1.37v-2.59c0-.57-.46-1.03-1.03-1.03h-1.78c.04.09.06.19.06.29v1.22c0,.13-.04.26-.09.37Z"/>
              <path class="cls-11" d="M347.3,98.38c0-.45.36-.82.82-.82h.66c-.06-.11-.1-.23-.1-.37v-1.22c0-.1.02-.2.06-.29h-1.78c-.57,0-1.03.46-1.03,1.03v2.59h1.37v-.93Z"/>
              <path class="cls-11" d="M364.33,99.73h-23.44c-1.17,0-2.13.95-2.13,2.13v14.74c0,1.17.95,2.13,2.13,2.13h23.44c1.17,0,2.13-.95,2.13-2.13v-14.74c0-1.17-.95-2.13-2.13-2.13ZM358.13,110.85c0,.47-.38.84-.84.84h-2.19v2.19c0,.47-.38.84-.84.84h-3.65c-.47,0-.84-.38-.84-.84v-2.19h-2.19c-.47,0-.84-.38-.84-.84v-3.66c0-.47.38-.84.84-.84h2.19v-2.19c0-.47.38-.84.84-.84h3.65c.47,0,.84.38.84.84v2.19h2.19c.46,0,.84.38.84.84v3.66Z"/>
              <path class="cls-11" d="M349.82,97.98h5.59c.38,0,.69-.35.69-.78v-1.22c0-.43-.31-.78-.69-.78h-5.59c-.38,0-.69.35-.69.78v1.22c0,.43.31.78.69.78Z"/>
            </g>
            <path class="cls-28" d="M180.44,187.02c0,17.72-14.36,32.09-32.08,32.09s-32.08-14.36-32.08-32.09,14.37-32.08,32.08-32.08,32.08,14.36,32.08,32.08Z"/>
            <path class="cls-28" d="M180.67,102.44c0,18.98-15.38,34.36-34.36,34.36s-34.36-15.38-34.36-34.36,15.38-34.36,34.36-34.36,34.36,15.38,34.36,34.36Z"/>
            <path class="cls-28" d="M98.97,101.18c0,12.1-9.81,21.91-21.91,21.91s-21.91-9.81-21.91-21.91,9.81-21.91,21.91-21.91,21.91,9.81,21.91,21.91Z"/>
            <path class="cls-28" d="M338.74,155.07c0,17.46-14.15,31.61-31.61,31.61s-31.61-14.15-31.61-31.61,14.15-31.61,31.61-31.61,31.61,14.15,31.61,31.61Z"/>
            <path class="cls-28" d="M258.44,126.49c0,17.52-14.2,31.72-31.72,31.72s-31.72-14.2-31.72-31.72,14.2-31.72,31.72-31.72,31.72,14.2,31.72,31.72Z"/>
            <path class="cls-28" d="M387.97,199.94c0,16.73-13.56,30.29-30.28,30.29s-30.29-13.56-30.29-30.29,13.56-30.29,30.29-30.29,30.28,13.56,30.28,30.29Z"/>
            <path class="cls-28" d="M319.51,76.4c0,16.05-13.01,29.07-29.06,29.07s-29.07-13.01-29.07-29.07,13.02-29.07,29.07-29.07,29.06,13.01,29.06,29.07Z"/>
            <g>
              <path class="cls-11" d="M295.98,177.67c-.09.15-.15.31-.15.49,0,.59.58,1.07,1.3,1.07h20c.71,0,1.29-.48,1.29-1.07,0-.18-.06-.34-.15-.49h-22.29Z"/>
              <path class="cls-11" d="M313.38,146.1v-12.08c.69-.34,1.16-.98,1.16-1.74,0-1.09-.99-1.98-2.2-1.98h-10.95c-1.22,0-2.2.89-2.2,1.98,0,.93.72,1.71,1.69,1.92v11.9c-6.88,2.54-11.78,9.16-11.78,16.92,0,5.81,2.75,10.98,7.03,14.28h22.01c4.27-3.3,7.03-8.46,7.03-14.28,0-7.76-4.9-14.37-11.78-16.92ZM317.32,176.44l-.17.14h-20.04l-.17-.14c-4.13-3.21-6.5-8.05-6.5-13.29,0-3.44,1.19-6.8,3.43-9.71,2-2.59,5.39-4.67,8.41-5.88v-13.28h9.95v13.28c3.02,1.21,6.21,3.29,8.2,5.88,2.22,2.9,3.39,6.26,3.39,9.71,0,5.24-2.37,10.09-6.5,13.29Z"/>
              <path class="cls-11" d="M322.89,159.89h-31.53c-.2.96-.3,1.96-.3,2.97,0,5.33,2.45,10.06,6.26,13.08h19.61c3.81-3.02,6.26-7.75,6.26-13.08,0-1.01-.1-2.01-.3-2.97ZM318.66,163.32c.06-.03.1.07.04.09-.06.03-.1-.07-.04-.09ZM318.39,162.3c.18-.08.3.19.13.27-.18.08-.3-.2-.13-.27ZM317.24,164.18c.1-.04.17.11.07.15-.1.04-.17-.11-.07-.15ZM315.22,161.17c.2-.09.34.22.14.31-.2.09-.34-.22-.14-.31ZM314.33,166.24c.22-.1.37.24.16.33-.22.1-.37-.24-.16-.33ZM314.12,164.58s.07.04.03.06c-.04.02-.07-.04-.03-.06ZM313.46,162.27c.1-.05.17.11.07.15-.1.04-.17-.11-.07-.15ZM313.42,166.07c.06-.03.1.06.04.09-.06.03-.1-.06-.04-.09ZM312.15,168.1c.22-.1.37.24.15.34-.22.1-.37-.24-.15-.34ZM305.22,166.69c.06-.03.1.07.04.09-.06.03-.1-.06-.04-.09ZM301.81,161.8c.1-.04.17.11.07.15-.1.05-.17-.11-.07-.15ZM300.06,162.39c.06-.03.1.06.04.09-.06.03-.1-.07-.04-.09ZM299.79,161.37c.18-.08.3.19.13.27-.18.08-.3-.19-.13-.27ZM298.64,163.25c.1-.05.17.11.07.15-.1.04-.17-.11-.07-.15ZM296.63,160.24c.19-.09.34.22.14.31-.2.09-.34-.22-.14-.31ZM295.74,165.3c.22-.1.37.24.15.34-.21.1-.37-.24-.15-.34ZM295.53,163.65s.07.05.03.06c-.04.02-.07-.04-.03-.06ZM294.86,161.34c.1-.04.17.11.07.15-.1.04-.17-.11-.07-.15ZM294.83,165.13c.06-.03.1.07.04.09-.06.03-.1-.06-.04-.09ZM292.69,161.53c.53-.24.91.58.38.83-.53.24-.91-.58-.38-.83ZM293.56,169.11c-.33.15-.57-.37-.24-.52.33-.15.57.37.24.52ZM293.71,167.5c-.22.1-.37-.24-.16-.34.22-.1.37.24.16.34ZM294.27,163.59c-.43.2-.74-.47-.31-.67.44-.2.74.47.31.67ZM294.55,164.11c.18-.08.3.19.13.27-.18.08-.3-.19-.13-.27ZM294.94,169.24c-.25.12-.44-.28-.18-.4.26-.12.44.28.18.4ZM295.64,171.87c-.12.05-.2-.13-.08-.18.12-.06.2.13.08.18ZM295.77,170.97c-.12.05-.2-.13-.08-.18.12-.05.2.13.08.18ZM295.74,167.25c-.34.15-.57-.37-.24-.52.33-.15.57.37.24.52ZM296.34,173.28c-.33.15-.57-.37-.23-.52.33-.15.57.37.23.52ZM296.65,164.7c-.1.04-.17-.11-.07-.15.1-.04.17.11.07.15ZM297.13,167.38c-.25.12-.44-.28-.18-.4.26-.12.44.28.18.4ZM297.31,168.41c-.08.04-.14-.09-.06-.12.08-.04.13.09.06.12ZM297.16,162.59c-.41.19-.71-.45-.29-.64.41-.19.71.45.29.64ZM298.04,170.97c-.12.05-.2-.13-.08-.18s.2.13.08.18ZM298.17,170.07c-.12.05-.2-.13-.08-.18.12-.05.2.13.08.18ZM298.73,172.38c-.34.15-.57-.37-.24-.52.33-.15.57.37.24.52ZM298.88,165.33c-.45.21-.77-.49-.32-.7.45-.21.77.49.32.7ZM299.84,173.63c-.06.03-.1-.07-.04-.09.06-.03.1.06.04.09ZM299.71,167.74c.41-.19.71.45.29.64-.42.19-.71-.45-.29-.64ZM300.35,171.72c.63-.29,1.08.69.44.98-.63.29-1.07-.69-.44-.98ZM301,175.32c-.21.1-.37-.24-.15-.34.22-.1.37.24.15.34ZM300.98,164.5c-.33.16-.57-.37-.24-.52.33-.15.58.37.24.52ZM301.13,162.9c-.22.1-.37-.24-.16-.34.22-.1.37.24.16.34ZM301.41,170.48c.34-.15.57.37.24.52-.33.15-.57-.37-.24-.52ZM301.8,172.31c.29-.13.5.32.21.46-.3.13-.51-.33-.21-.46ZM302.16,174.61c-.08.03-.13-.09-.06-.12.08-.04.13.09.06.12ZM302.37,164.63c-.25.12-.44-.28-.18-.4.26-.12.44.28.18.4ZM302.75,168.32c-.22.1-.37-.24-.15-.34.22-.1.37.24.15.34ZM303.5,167.37c-.1.05-.17-.11-.07-.15.1-.05.17.11.07.15ZM303.59,163.23c-.12.05-.2-.13-.09-.18.12-.05.2.13.09.18ZM303.91,165.02c.33-.15.57.37.24.52-.33.15-.57-.37-.24-.52ZM304.38,172.56c-.53.24-.91-.58-.38-.82.54-.24.91.58.38.82ZM305.58,173.79c-.43.2-.74-.47-.3-.67.43-.2.74.47.3.67ZM305.77,164.88c.63-.29,1.08.69.45.98-.63.29-1.08-.69-.45-.98ZM306.25,171.69c-.1.05-.17-.11-.07-.15.1-.04.17.11.07.15ZM306.43,168.47c-.22.1-.37-.24-.16-.34.22-.1.37.24.16.34ZM306.83,163.63c.33-.15.57.37.24.52-.33.15-.57-.37-.24-.52ZM307.22,165.46c.3-.13.5.32.21.46-.3.13-.5-.32-.21-.46ZM307.58,167.76c-.08.04-.13-.09-.06-.12.08-.04.14.09.06.12ZM307.95,170.44c.2-.09.33.21.14.3-.2.09-.33-.21-.14-.3ZM308.48,172.79c-.41.19-.71-.45-.29-.64.42-.19.71.45.29.64ZM308.63,161.57c-.53.24-.91-.58-.38-.83.53-.24.91.58.38.83ZM309.52,162.13c.43-.2.74.47.31.67-.43.2-.74-.47-.31-.67ZM310.03,173.61c-.1.04-.17-.11-.07-.15.1-.04.17.11.07.15ZM310.49,160.71c-.1.04-.17-.11-.07-.15.1-.04.17.11.07.15ZM311.24,171.84c-.18.08-.3-.19-.12-.27.18-.08.3.19.12.27ZM311.42,172.68c-.06.03-.1-.06-.04-.09.06-.03.1.07.04.09ZM311.28,162.46c.53-.24.91.58.38.82-.53.24-.91-.58-.38-.82ZM311.92,169.52c.33-.15.57.37.24.52-.33.15-.57-.37-.24-.52ZM312.45,173.1c-.22.1-.37-.24-.15-.34.22-.1.37.24.15.34ZM312.86,164.52c-.44.2-.74-.47-.31-.67.43-.2.74.47.31.67ZM313.15,165.04c.18-.08.3.2.13.28-.18.08-.3-.19-.13-.28ZM313.54,170.17c-.26.12-.44-.28-.18-.4.26-.12.44.28.18.4ZM314.24,172.8c-.12.05-.2-.13-.08-.19.12-.05.2.13.08.19ZM314.37,171.91c-.12.05-.2-.13-.09-.18.12-.05.2.13.09.18ZM314.34,168.18c-.33.15-.57-.37-.24-.52.33-.15.57.37.24.52ZM314.93,174.21c-.34.15-.57-.37-.24-.52.33-.15.57.37.24.52ZM315.24,165.63c-.1.04-.17-.11-.07-.15.1-.04.17.11.07.15ZM315.73,168.31c-.25.12-.44-.28-.18-.4.25-.12.44.28.18.4ZM315.9,169.34c-.08.04-.13-.09-.05-.12.08-.04.13.09.05.12ZM315.75,163.52c-.41.19-.71-.45-.29-.64.42-.19.71.45.29.64ZM316.63,171.9c-.12.05-.2-.13-.08-.18.12-.05.2.13.08.18ZM316.76,171.01c-.12.05-.2-.13-.08-.18.12-.05.2.13.08.18ZM317.32,173.32c-.34.15-.57-.37-.24-.52.33-.15.57.37.24.52ZM317.47,166.27c-.45.21-.77-.49-.32-.7.45-.21.77.49.32.7ZM318.3,168.67c.41-.19.71.45.29.64-.41.19-.71-.45-.29-.64ZM318.44,174.56c-.06.03-.1-.06-.04-.09.06-.03.1.06.04.09ZM319.02,171.47c-.63.29-1.08-.69-.45-.98.63-.29,1.08.69.45.98ZM319.57,165.43c-.33.15-.57-.37-.24-.52.33-.15.57.37.24.52Z"/>
            </g>
            <path class="cls-11" d="M85.76,106.77c.77-7.6,6.89-12.24,1.98-18.44-3.55-4.48-6.03,1.82-10.49,1.98-4.27.16-6.37-6.73-10.13-1.98-5.85,7.38-.28,10.93.54,18.68.49,4.58-.15,9.47,2.43,9.47s4.36-8.72,7.29-8.72c3.22,0,4,8.72,7.19,8.72s.68-4.68,1.19-9.71ZM76.82,93.42c-2.39-.45-4.7-3.05-4.28-4.07.41-1.01,1.98,2.24,4.51,1.96,1.86-.2,3.77-2.05,4.05-1.33.29.72-1.9,3.89-4.28,3.43Z"/>
            <g>
              <path class="cls-11" d="M156.93,122.71h-4.17v1.21h-.45v1.55c0,.45.28.82.63.82h4.03c.35,0,.63-.37.63-.82v-1.55h-.68v-1.21Z"/>
              <path class="cls-11" d="M148.42,122.71h-4.17v1.72h-.6v1.55c0,.45.28.82.64.82h4.03c.35,0,.64-.37.64-.82v-1.55h-.53v-1.72Z"/>
              <path class="cls-11" d="M158.37,78.25c-.88-2.56-5.95-4.53-12.06-4.53s-11.18,1.97-12.06,4.53c-2.54.19-4.55,2.31-4.55,4.9v34.24c0,2.72,2.2,4.92,4.92,4.92h23.38c2.71,0,4.92-2.2,4.92-4.92v-34.24c0-2.59-2.01-4.71-4.55-4.9ZM141.18,76.12h10.25c.75,0,1.37.61,1.37,1.37s-.61,1.37-1.37,1.37h-10.25c-.75,0-1.37-.61-1.37-1.37s.61-1.37,1.37-1.37ZM161,115.76c0,2.41-1.95,4.37-4.35,4.37h-20.68c-2.41,0-4.36-1.96-4.36-4.37v-30.42c0-2.41,1.95-4.37,4.36-4.37h20.68c2.41,0,4.35,1.96,4.35,4.37v30.42Z"/>
              <path class="cls-11" d="M156.07,82.06h-19.53c-2.27,0-4.11,1.84-4.11,4.12v28.72c0,2.28,1.84,4.13,4.11,4.13h19.53c2.27,0,4.11-1.85,4.11-4.13v-28.72c0-2.28-1.84-4.12-4.11-4.12ZM158.71,98.41c.16,0,.16.25,0,.25s-.16-.25,0-.25ZM133.83,98.87c.18,0,.18.27,0,.27s-.17-.27,0-.27ZM133.76,101.6c.27,0,.27.42,0,.42s-.27-.42,0-.42ZM133.42,105.74s-.04-.05,0-.05.04.05,0,.05ZM133.15,97.44c.08,0,.08.13,0,.13s-.08-.13,0-.13ZM133.15,103.75s-.03-.05,0-.05.04.05,0,.05ZM132.87,99.81c.12,0,.12.18,0,.18s-.12-.18,0-.18ZM132.74,105.37c0-.24.29-.44.51-.29,0,0,0,0,.01,0,.21.15.21.42,0,.56,0,0,0,0-.01,0-.22.15-.51-.05-.51-.29ZM133.35,113.77c-.08,0-.08-.13,0-.13s.08.13,0,.13ZM133.42,112.56c-.11,0-.11-.16,0-.16s.1.16,0,.16ZM133.63,117.02c-.13,0-.13-.2,0-.2s.13.2,0,.2ZM133.42,110.71c-.46,0-.46-.71,0-.71s.46.71,0,.71ZM133.76,107.85c-.2,0-.2-.31,0-.31s.2.31,0,.31ZM133.76,105.48s.04.05,0,.05-.04-.05,0-.05ZM133.91,104.02s-.03,0-.05,0c-.16.02-.16-.21,0-.19.02,0,.03,0,.05,0,.09.01.09.17,0,.18ZM134.51,113.92c-.19,0-.19-.29,0-.29s.19.29,0,.29ZM135.62,118.35s-.07,0-.1,0c-.09,0-.13-.06-.12-.13,0-.07.04-.14.12-.13.03,0,.07,0,.1,0,.17-.01.17.28,0,.27ZM135.68,116.32c-.38,0-.38-.58,0-.58s.37.58,0,.58ZM136.84,117.25c-.26,0-.26-.4,0-.4s.26.4,0,.4ZM137.45,115.16s-.02-.04,0-.04c.03,0,.03.04,0,.04ZM137.52,114.84c-.31,0-.31-.49,0-.49s.32.49,0,.49ZM138.14,115.65c-.13,0-.13-.2,0-.2s.13.2,0,.2ZM138.36,118.82s-.05,0-.07-.03c-.07-.05-.07-.13,0-.19.02-.02.05-.02.07-.03.21-.04.21.29,0,.24ZM138.55,116.6c-.12.01-.12-.19,0-.18-.01.03,0,.03.01,0,.03-.04.09-.04.11,0,.07.11-.01.18-.12.19ZM138.82,113.32c-.12,0-.12-.18,0-.18s.12.18,0,.18ZM140.6,118.39c-.13,0-.13-.2,0-.2s.13.2,0,.2ZM141.28,114.63c-.14,0-.14-.22,0-.22s.14.22,0,.22ZM142.49,117.18h-.05c-.25,0-.25-.38,0-.38h.05c.25,0,.25.38,0,.38ZM144.84,114.09c.21,0,.21.33,0,.33s-.21-.33,0-.33ZM144.9,117.09c-.14,0-.14-.22,0-.22s.14.22,0,.22ZM146.34,118.52c-.3,0-.3-.47,0-.47s.3.47,0,.47ZM146.95,114.93c-.16,0-.16-.26,0-.26s.16.26,0,.26ZM148.75,113.32c.49,0,.49.76,0,.76s-.49-.76,0-.76ZM149.13,116.78c0,.25-.38.25-.38,0v-.05c0-.25.38-.25.38,0v.05ZM151.39,115.22c.42,0,.42.65,0,.65s-.42-.65,0-.65ZM151.67,118.46c-.4,0-.4-.62,0-.62s.4.62,0,.62ZM152.76,113.79c-.11,0-.11-.16,0-.16s.1.16,0,.16ZM153.92,116.38c-.19,0-.19-.29,0-.29s.19.29,0,.29ZM154.06,115.09c-.2,0-.2-.31,0-.31s.2.31,0,.31ZM155.98,113.06c.48,0,.48.75,0,.75s-.48-.75,0-.75ZM156.18,117.64c-.4,0-.4-.62,0-.62s.4.62,0,.62ZM156.42,114.97s-.02-.02-.03-.02c0,0-.01.01-.02,0,0,0,0,0,0-.01,0,0,0,0,0,0,0,0,0,0,0,0,0,0,0,0,0,0,.01-.02.02,0,.02,0,0,0,.02,0,.03-.02.09-.11.09.17,0,.06ZM157.55,111.86h-22.69v-17.22h22.69v17.22ZM157.89,116.33c-.12,0-.12-.18,0-.18s.12.18,0,.18ZM158.51,105.89s-.05,0-.07,0c-.07,0-.07-.12,0-.11.03,0,.05,0,.07,0,.05,0,.05.08,0,.09ZM158.71,112.14c-.19,0-.19-.29,0-.29s.19.29,0,.29ZM159.05,108.26s-.03-.05,0-.05c.04,0,.04.05,0,.05ZM158.98,107.99c-.39,0-.39-.6,0-.6s.38.6,0,.6ZM159.25,104.39s-.01,0-.02,0c-.03.04-.1.03-.11-.04,0-.02,0-.04,0-.05,0-.02.01-.05.03-.06.03-.01.05-.01.07,0,.02,0,.04.04.04.06h0c.05,0,.05.09,0,.09ZM159.53,102.96c-.15,0-.15-.23,0-.23s.15.23,0,.23ZM159.45,97.77s0,0,0,0c.1-.09.25-.13.38-.05.01,0,.02.01.03.02.19.12.19.39,0,.51,0,0-.02.01-.03.02-.12.08-.27.04-.38-.05,0,0,0,0,0,0-.12-.1-.12-.33,0-.42ZM159.12,100.17c-.26,0-.26-.4,0-.4s.26.4,0,.4Z"/>
              <path class="cls-11" d="M139.72,103.2c.23-.14.4-.32.53-.56.16-.29.24-.65.24-1.08,0-.17-.01-.33-.04-.46-.05-.27-.13-.49-.23-.66-.15-.25-.34-.42-.57-.51.13-.06.25-.15.35-.26.24-.27.36-.63.36-1.08,0-.27-.03-.51-.09-.71-.12-.37-.31-.65-.59-.83-.32-.21-.68-.32-1.08-.32h-1.51v6.69h1.87c.25,0,.5-.08.76-.23ZM138.18,97.77h.42c.2,0,.36.07.49.2.13.14.2.35.2.63,0,.17-.02.31-.06.42-.11.31-.32.46-.63.46h-.42v-1.71ZM138.18,102.44v-1.99h.42c.25,0,.44.08.57.23.14.17.21.44.21.82,0,.16-.02.29-.07.41-.13.35-.37.53-.71.53h-.42Z"/>
              <polygon class="cls-11" points="142.04 100.69 142.78 100.69 142.78 99.34 144.13 99.34 144.13 98.6 142.78 98.6 142.78 97.25 142.04 97.25 142.04 98.6 140.69 98.6 140.69 99.34 142.04 99.34 142.04 100.69"/>
              <rect class="cls-11" x="146.73" y="96.38" width="9.3" height="1.64"/>
              <rect class="cls-11" x="146.73" y="98.53" width="9.3" height=".48"/>
              <rect class="cls-11" x="146.73" y="99.73" width="9.3" height=".48"/>
              <rect class="cls-11" x="146.73" y="100.92" width="9.3" height=".48"/>
              <rect class="cls-11" x="146.73" y="102.12" width="9.3" height=".48"/>
              <rect class="cls-11" x="147.29" y="106.09" width="1.01" height="4.3" transform="translate(-.17 .23) rotate(-.09)"/>
              <rect class="cls-11" x="154.82" y="106.08" width="1.01" height="4.3" transform="translate(-.25 .35) rotate(-.13)"/>
              <rect class="cls-11" x="148.66" y="106.09" width=".34" height="2.99" transform="translate(-.32 .44) rotate(-.17)"/>
              <rect class="cls-11" x="149.72" y="106.09" width="1.17" height="2.99" transform="translate(-.25 .35) rotate(-.13)"/>
              <polygon class="cls-11" points="151.2 106.09 151.21 109.08 151.5 109.08 151.49 106.09 151.2 106.09"/>
              <polygon class="cls-11" points="152.15 106.09 151.86 106.09 151.87 109.08 152.15 109.08 152.15 106.09"/>
              <polygon class="cls-11" points="149.24 106.09 149.11 106.09 149.11 109.08 149.25 109.08 149.24 106.09"/>
              <polygon class="cls-11" points="149.5 106.09 149.38 106.09 149.38 109.08 149.51 109.08 149.5 106.09"/>
              <rect class="cls-11" x="152.39" y="106.09" width=".34" height="2.99"/>
              <rect class="cls-11" x="153.45" y="106.08" width="1.17" height="2.99" transform="translate(-.17 .25) rotate(-.09)"/>
              <polygon class="cls-11" points="153.11 106.08 153.12 109.08 153.25 109.08 153.24 106.08 153.11 106.08"/>
              <path class="cls-11" d="M149.22,110.26h-.35s0-.24,0-.24h.29s.06,0,.08-.03c.03-.03.03-.06.03-.09v-.21s0-.06-.03-.09c-.02-.02-.05-.03-.08-.03h-.34s-.05.01-.05.05c0,.04.03.05.05.05h.35s0,.24,0,.24h-.28c-.08,0-.12.04-.12.11v.33h.45s.05-.02.05-.05-.02-.05-.05-.05Z"/>
              <path class="cls-11" d="M149.9,109.92v-.29s-.02-.05-.05-.05h-.2s-.05.03-.05.05v.29s-.06.01-.08.03c-.02.02-.03.04-.03.07v.24c0,.06.04.1.1.1h.3c.06,0,.1-.04.1-.1v-.24s0-.06-.03-.07c-.02-.02-.04-.03-.07-.03ZM149.7,109.68h.09v.24h-.09v-.24ZM149.9,110.26h-.3s0-.24,0-.24h.3v.24Z"/>
              <path class="cls-11" d="M150.62,109.58h-.29c-.06,0-.1.05-.1.1v.58c0,.06.04.1.1.1h.29c.06,0,.1-.04.1-.1v-.59c0-.05-.05-.1-.1-.1ZM150.33,110.26v-.58h.29s0,.58,0,.58h-.29Z"/>
              <path class="cls-11" d="M151.4,110s-.05.02-.05.05v.2h-.1v-.69s-.25,0-.25,0c-.02,0-.05.01-.05.05s.02.05.05.05h.15v.58h-.15s-.05.01-.05.05c0,.04.03.05.05.05h.4s.05-.01.05-.05v-.25s-.01-.05-.05-.05Z"/>
              <path class="cls-11" d="M152.08,109.92v-.29s-.02-.05-.05-.05h-.2s-.05.02-.05.05v.29s-.06.01-.07.03c-.02.02-.03.04-.03.07v.24c0,.06.04.1.11.1h.3c.06,0,.1-.04.1-.1v-.24s0-.06-.03-.08c-.02-.02-.04-.03-.08-.03ZM151.98,109.67v.24s-.1,0-.1,0v-.24h.1ZM151.78,110.26v-.24s.3,0,.3,0v.24h-.3Z"/>
              <path class="cls-11" d="M152.46,109.57s-.05.03-.05.05v.05s.02.05.05.05c.03,0,.05-.03.05-.05h.3v.14s0,.04-.03.07l-.14.12s-.03.03-.03.06v.24s.02.05.05.05.05-.02.05-.05v-.19s0-.04.03-.06l.14-.12s.03-.03.03-.06v-.29h-.45Z"/>
              <path class="cls-11" d="M154.26,109.57h-.3c-.06,0-.1.05-.1.1v.58c0,.06.04.1.1.1h.3c.06,0,.1-.05.1-.1v-.58c0-.05-.05-.1-.1-.1ZM153.96,110.25v-.58s.3,0,.3,0v.58h-.3Z"/>
            </g>
            <g>
              <g>
                <path class="cls-11" d="M284.07,58.91c-3.78,4.93-2.85,11.98,2.08,15.76,4.93,3.78,11.98,2.85,15.76-2.08,3.78-4.92,2.85-11.98-2.08-15.76-4.93-3.78-11.99-2.85-15.76,2.08ZM299.62,70.84c-2.81,3.66-8.06,4.35-11.72,1.54-3.66-2.81-4.35-8.06-1.54-11.72,2.81-3.66,8.06-4.35,11.72-1.54,3.66,2.81,4.36,8.06,1.54,11.72Z"/>
                <path class="cls-11" d="M312.78,81.04c-.24.31-.59.52-.98.57l-7.4,1.12c-.82.13-1.6-.44-1.72-1.27-.13-.83.44-1.6,1.27-1.72l5.9-.9-.86-5.61c-.13-.83.44-1.6,1.27-1.72.82-.13,1.6.44,1.72,1.27l1.09,7.11c.06.4-.04.8-.28,1.13,0,0-.01.01-.02.02Z"/>
                <path class="cls-11" d="M312.37,80.62c-.51.66-1.46.79-2.12.28l-9.83-7.55c-.66-.51-.79-1.46-.28-2.12.51-.66,1.46-.79,2.12-.28l9.83,7.55c.66.51.79,1.46.28,2.12Z"/>
              </g>
              <g>
                <path class="cls-11" d="M284.04,62.5c-6.21,0-11.24,5.03-11.24,11.24s5.03,11.24,11.24,11.24,11.24-5.03,11.24-11.24-5.03-11.24-11.24-11.24ZM284.04,82.1c-4.61,0-8.36-3.74-8.36-8.36s3.74-8.36,8.36-8.36,8.36,3.74,8.36,8.36-3.74,8.36-8.36,8.36Z"/>
                <path class="cls-11" d="M284.04,98.18c-.83,0-1.51-.68-1.51-1.51v-12.4c0-.84.68-1.51,1.51-1.51s1.51.68,1.51,1.51v12.4c0,.83-.67,1.51-1.51,1.51Z"/>
                <path class="cls-11" d="M287.78,94.57h-7.49c-.84,0-1.52-.68-1.52-1.51s.68-1.51,1.52-1.51h7.49c.84,0,1.52.68,1.52,1.51s-.68,1.51-1.52,1.51Z"/>
              </g>
            </g>
            <g>
              <path class="cls-11" d="M247.02,108.76l-.5-.54c-.84-.89-2.23-.93-3.13-.1l-3.22,3.03h0l-2.59,2.44c-2.12-1.23-4.86-.99-6.74.77l-23.62,22.21c-2.28,2.15-2.4,5.74-.25,8.03l1.3,1.38c2.15,2.29,5.74,2.4,8.03.25l23.62-22.21c1.88-1.76,2.28-4.49,1.19-6.67l2.59-2.43h0l3.22-3.02c.89-.83.93-2.23.1-3.13ZM239.52,117.85c.69,1.67.1,3.91-1.6,5.5l-21.43,20.15c-2.07,1.95-5.01,2.19-6.56.55l-.93-.99c-1.55-1.65-1.12-4.56.95-6.51l21.43-20.15c1.7-1.59,3.97-2.05,5.59-1.25l3.69-3.47,2.55,2.71-3.7,3.47Z"/>
              <path class="cls-11" d="M241.27,112.31l-5.64,5.3-.88-.93c-.06-.06-.15-.06-.21,0-.06.06-.06.15,0,.21l.88.93-.64.61-.88-.93c-.06-.06-.15-.06-.21,0-.06.06-.06.15,0,.21l.88.93-.65.61-.87-.93c-.06-.06-.15-.06-.21,0-.06.06-.06.15,0,.21l.87.93-.64.6-.88-.93c-.05-.06-.15-.06-.21,0-.06.06-.06.15,0,.21l.88.93-.64.6-.88-.93c-.05-.06-.15-.06-.21,0-.06.06-.06.15,0,.21l.88.93-.59.55-1.44-1.53c-.06-.06-.15-.06-.21,0-.06.06-.06.15,0,.21l1.44,1.53-.47.44-.88-.93c-.06-.06-.15-.06-.21,0-.06.06-.06.15,0,.21l.87.93-.64.6-.88-.93c-.06-.06-.15-.06-.21,0-.06.06-.06.15,0,.21l.87.93-.64.6-.88-.93c-.06-.06-.15-.06-.21,0-.06.06-.06.15,0,.21l.88.93-.64.6-.87-.93c-.06-.06-.15-.06-.21,0s-.06.15,0,.21l.88.93-.64.6-.88-.93c-.06-.06-.15-.06-.21,0-.06.06-.06.15,0,.21l.88.93-.59.55-1.43-1.53c-.06-.06-.15-.07-.21,0-.06.06-.06.15,0,.21l1.44,1.53-.47.44-.87-.93c-.06-.06-.15-.06-.21,0-.06.06-.06.15,0,.21l.87.93-.64.61-.88-.93c-.06-.06-.15-.06-.21,0-.06.06-.06.15,0,.21l.87.93-.64.61-.88-.93c-.06-.06-.15-.06-.21,0-.06.06-.06.15,0,.21l.87.93-.64.61-.87-.93c-.06-.06-.15-.06-.21,0-.06.06-.06.15,0,.21l.88.93-.64.61-.88-.93c-.06-.06-.16-.06-.21,0-.06.06-.06.15,0,.21l.88.93-.59.55-1.44-1.53c-.06-.06-.15-.06-.21,0-.06.06-.06.15,0,.21l1.44,1.53-.47.44-.87-.93c-.06-.06-.15-.06-.21,0-.06.06-.07.15,0,.21l.88.93-.64.6-.88-.93c-.05-.06-.15-.06-.21,0-.06.06-.06.15,0,.21l.88.93-.64.6-.88-.93c-.06-.06-.15-.06-.21,0-.06.06-.07.15,0,.21l.88.93-.64.6-.88-.93c-.05-.06-.15-.06-.21,0-.06.06-.06.15,0,.21l.87.93-.64.6-.87-.93c-.06-.06-.16-.06-.21,0-.06.06-.06.15,0,.21l.88.93-.59.55-1.44-1.53c-.06-.06-.15-.06-.21,0-.06.06-.07.15,0,.21l1.44,1.53-2.82,2.65c-.78-.3-1.7-.16-2.35.46-.91.85-.95,2.28-.1,3.19.85.91,2.28.95,3.19.1.65-.61.85-1.52.6-2.32l27.76-26.09-.49-.52-27.61,25.95c-.05-.07-.1-.14-.16-.21-.06-.07-.13-.12-.2-.17l27.61-25.95-.49-.52Z"/>
            </g>
            <g>
              <path class="cls-11" d="M347.05,193.99h1.28v1.27c0,.27.22.49.49.49h2.13c.27,0,.49-.22.49-.49v-1.27h1.27c.27,0,.49-.22.49-.49v-2.13c0-.27-.22-.49-.49-.49h-1.27v-1.27c0-.27-.22-.49-.49-.49h-2.13c-.27,0-.49.22-.49.49v1.27h-1.28c-.27,0-.49.22-.49.49v2.13c0,.27.22.49.49.49Z"/>
              <path class="cls-11" d="M382.34,204.69h-.48c-.43,0-1.93-.05-1.98-.34-.06-.34.18-2.38.4-2.79.15-.28.66-.45.94-.52.03,0,.05,0,.07,0l-.27-1.76c-.68-2.12-1.3-2.74-3.11-2.74h-1.56l-3.99-9.27c-.27-.9-.9-2.21-1.63-2.21h-29.82c-.73,0-1.33.67-1.33,1.49v21.23c0,.82.59,1.48,1.33,1.48h3.54c0-.06,0-.12,0-.17,0-2.75,2.23-4.98,4.98-4.98s4.98,2.23,4.98,4.98c0,.06,0,.12,0,.17l14.71-.02c0-.08,0-.16,0-.25,0-2.75,2.23-4.98,4.98-4.98s4.98,2.23,4.98,4.98c0,.08,0,.17,0,.25l3.29.02c.37,0,.67-.29.67-.65v-3.27c0-.36-.3-.65-.67-.65ZM345.15,188.3c0-.33.26-.59.59-.59h8.27c.33,0,.6.27.6.59v8.27c0,.33-.27.59-.6.59h-8.27c-.33,0-.59-.27-.59-.59v-8.27ZM339.7,200.43v-1.74h18.45l1.19,1.74h-19.64ZM360.74,209.24h-.18v-23.36h.18v23.36ZM366.74,198.24h-3.45c-.3,0-.54-.24-.54-.54s.24-.54.54-.54h3.45c.3,0,.54.24.54.54s-.24.54-.54.54ZM375.06,196.48h-12.3v-10.6h7.11c.68,0,1.27,1.22,1.53,2.06l3.67,8.22v.32Z"/>
              <path class="cls-11" d="M380.08,204.15c.05.29,1.82.29,1.82.29l-.2-1.33h-1.56c-.06.47-.09.91-.06,1.04Z"/>
              <path class="cls-11" d="M374.07,204.66c-2.65,0-4.8,2.15-4.8,4.8s2.15,4.8,4.8,4.8,4.8-2.15,4.8-4.8-2.15-4.8-4.8-4.8ZM374.07,212.31c-1.57,0-2.84-1.27-2.84-2.84s1.27-2.84,2.84-2.84,2.84,1.27,2.84,2.84-1.27,2.84-2.84,2.84Z"/>
              <path class="cls-11" d="M374.07,207.14c-1.28,0-2.32,1.04-2.32,2.32s1.04,2.32,2.32,2.32,2.33-1.04,2.33-2.32-1.04-2.32-2.33-2.32Z"/>
              <path class="cls-11" d="M349.42,204.76c-2.65,0-4.8,2.15-4.8,4.8s2.15,4.8,4.8,4.8,4.8-2.15,4.8-4.8-2.15-4.8-4.8-4.8ZM349.42,212.41c-1.57,0-2.84-1.27-2.84-2.84s1.27-2.84,2.84-2.84,2.84,1.27,2.84,2.84-1.27,2.84-2.84,2.84Z"/>
              <path class="cls-11" d="M349.42,207.25c-1.28,0-2.32,1.04-2.32,2.32s1.04,2.32,2.32,2.32,2.32-1.04,2.32-2.32-1.04-2.32-2.32-2.32Z"/>
            </g>
            <g>
              <path class="cls-11" d="M142.73,177.94c.35-.29.8-.46,1.29-.46h9.32c.49,0,.93.18,1.29.46h1.78v-9.63c0-4.09-3.33-5.83-7.42-5.83h-.62c-4.1,0-7.42,1.74-7.42,5.83v9.63h1.78ZM155,168.35c.33,0,.61.27.61.61s-.27.61-.61.61-.6-.27-.6-.61.27-.61.6-.61ZM154.78,172.55c.34,0,.61.27.61.6s-.27.61-.61.61-.6-.27-.6-.61.27-.6.6-.6ZM152.86,170.73c.33,0,.6.27.6.61s-.27.61-.6.61-.61-.27-.61-.61.27-.61.61-.61ZM152.64,174.92c.33,0,.6.27.6.6s-.27.6-.6.6-.61-.27-.61-.6.27-.6.61-.6ZM151.49,168.35c.33,0,.6.27.6.61s-.27.61-.6.61-.61-.27-.61-.61.27-.61.61-.61ZM151.27,172.55c.33,0,.6.27.6.6s-.27.61-.6.61-.61-.27-.61-.61.27-.6.61-.6ZM150.11,170.73c.33,0,.6.27.6.61s-.27.61-.6.61-.61-.27-.61-.61.27-.61.61-.61ZM149.89,174.92c.33,0,.61.27.61.6s-.27.6-.61.6-.61-.27-.61-.6.27-.6.61-.6ZM148.74,168.35c.34,0,.61.27.61.61s-.27.61-.61.61-.6-.27-.6-.61.27-.61.6-.61ZM148.52,172.55c.33,0,.6.27.6.6s-.27.61-.6.61-.61-.27-.61-.61.27-.6.61-.6ZM147.36,170.73c.34,0,.61.27.61.61s-.27.61-.61.61-.61-.27-.61-.61.27-.61.61-.61ZM147.14,174.92c.33,0,.61.27.61.6s-.27.6-.61.6-.6-.27-.6-.6.27-.6.6-.6ZM145.99,168.35c.33,0,.6.27.6.61s-.27.61-.6.61-.61-.27-.61-.61.27-.61.61-.61ZM145.77,172.55c.33,0,.6.27.6.6s-.27.61-.6.61-.6-.27-.6-.61.27-.6.6-.6ZM144.61,170.73c.34,0,.61.27.61.61s-.27.61-.61.61-.6-.27-.6-.61.27-.61.6-.61ZM144.39,174.92c.34,0,.61.27.61.6s-.27.6-.61.6-.61-.27-.61-.6.27-.6.61-.6ZM143.24,168.35c.33,0,.61.27.61.61s-.27.61-.61.61-.61-.27-.61-.61.27-.61.61-.61ZM143.02,172.55c.33,0,.6.27.6.6s-.27.61-.6.61-.6-.27-.6-.61.27-.6.6-.6Z"/>
              <path class="cls-11" d="M140.95,195.79v8.68c0,4.09,3.32,5.3,7.42,5.3h.62c4.1,0,7.42-1.21,7.42-5.3v-8.68h-15.46ZM142.86,202.15c-.33,0-.6-.27-.6-.6s.27-.61.6-.61.61.27.61.61-.27.6-.61.6ZM143.08,197.96c-.34,0-.61-.27-.61-.61s.27-.61.61-.61.61.27.61.61-.27.61-.61.61ZM144.23,204.53c-.33,0-.61-.27-.61-.61s.27-.61.61-.61.61.27.61.61-.27.61-.61.61ZM144.45,200.33c-.33,0-.6-.27-.6-.6s.27-.61.6-.61.61.27.61.61-.27.6-.61.6ZM145.6,202.15c-.33,0-.61-.27-.61-.6s.27-.61.61-.61.61.27.61.61-.27.6-.61.6ZM145.83,197.96c-.33,0-.6-.27-.6-.61s.27-.61.6-.61.61.27.61.61-.27.61-.61.61ZM146.98,204.53c-.34,0-.61-.27-.61-.61s.27-.61.61-.61.61.27.61.61-.27.61-.61.61ZM147.2,200.33c-.34,0-.61-.27-.61-.6s.27-.61.61-.61.6.27.6.61-.27.6-.6.6ZM148.35,202.15c-.33,0-.61-.27-.61-.6s.27-.61.61-.61.6.27.6.61-.27.6-.6.6ZM148.57,197.96c-.33,0-.6-.27-.6-.61s.27-.61.6-.61.61.27.61.61-.27.61-.61.61ZM149.73,204.53c-.34,0-.61-.27-.61-.61s.27-.61.61-.61.61.27.61.61-.27.61-.61.61ZM149.95,200.33c-.34,0-.61-.27-.61-.6s.27-.61.61-.61.61.27.61.61-.27.6-.61.6ZM151.1,202.15c-.34,0-.61-.27-.61-.6s.27-.61.61-.61.6.27.6.61-.27.6-.6.6ZM151.32,197.96c-.33,0-.6-.27-.6-.61s.27-.61.6-.61.61.27.61.61-.27.61-.61.61ZM152.48,204.53c-.34,0-.61-.27-.61-.61s.27-.61.61-.61.61.27.61.61-.27.61-.61.61ZM152.7,200.33c-.34,0-.61-.27-.61-.6s.27-.61.61-.61.6.27.6.61-.27.6-.6.6ZM154.62,202.15c-.33,0-.61-.27-.61-.6s.27-.61.61-.61.6.27.6.61-.27.6-.6.6ZM154.84,197.96c-.33,0-.6-.27-.6-.61s.27-.61.6-.61.6.27.6.61-.27.61-.6.61Z"/>
              <path class="cls-11" d="M166.17,178.78h-36.16c-4.09,0-5.3,3.32-5.3,7.43v.62c0,4.1,1.21,7.42,5.3,7.42h36.16c4.09,0,5.83-3.32,5.83-7.42v-.62c0-4.1-1.74-7.43-5.83-7.43ZM130.56,190.91c-.34,0-.61-.27-.61-.61s.27-.61.61-.61.61.27.61.61-.27.61-.61.61ZM130.56,188.16c-.34,0-.61-.27-.61-.61s.27-.61.61-.61.61.27.61.61-.27.61-.61.61ZM130.56,185.41c-.34,0-.61-.27-.61-.61s.27-.6.61-.6.61.27.61.6-.27.61-.61.61ZM130.56,182.67c-.34,0-.61-.27-.61-.6s.27-.61.61-.61.61.27.61.61-.27.6-.61.6ZM132.94,193.05c-.33,0-.61-.27-.61-.6s.27-.61.61-.61.61.27.61.61-.27.6-.61.6ZM132.94,189.54c-.33,0-.61-.27-.61-.6s.27-.61.61-.61.61.27.61.61-.27.6-.61.6ZM132.94,186.79c-.33,0-.61-.27-.61-.61s.27-.6.61-.6.61.27.61.6-.27.61-.61.61ZM132.94,184.04c-.33,0-.61-.27-.61-.6s.27-.61.61-.61.61.27.61.61-.27.6-.61.6ZM132.94,181.29c-.33,0-.61-.27-.61-.61s.27-.61.61-.61.61.27.61.61-.27.61-.61.61ZM134.75,191.13c-.33,0-.61-.27-.61-.61s.27-.61.61-.61.61.27.61.61-.27.61-.61.61ZM134.75,188.38c-.33,0-.61-.27-.61-.61s.27-.6.61-.6.61.27.61.6-.27.61-.61.61ZM134.75,185.64c-.33,0-.61-.27-.61-.61s.27-.6.61-.6.61.27.61.6-.27.61-.61.61ZM134.75,182.89c-.33,0-.61-.27-.61-.61s.27-.61.61-.61.61.27.61.61-.27.61-.61.61ZM137.13,193.28c-.33,0-.6-.27-.6-.6s.27-.61.6-.61.61.27.61.61-.27.6-.61.6ZM137.13,189.76c-.33,0-.6-.27-.6-.61s.27-.61.6-.61.61.27.61.61-.27.61-.61.61ZM137.13,187.01c-.33,0-.6-.27-.6-.61s.27-.6.6-.6.61.27.61.6-.27.61-.61.61ZM137.13,184.26c-.33,0-.6-.27-.6-.6s.27-.61.6-.61.61.27.61.61-.27.6-.61.6ZM137.13,181.51c-.33,0-.6-.27-.6-.61s.27-.6.6-.6.61.27.61.6-.27.61-.61.61ZM157.01,191.17c0,1.13-.92,2.04-2.05,2.04h-13.53c-1.13,0-2.05-.92-2.05-2.04v-9.33c0-1.13.92-2.05,2.05-2.05h13.53c1.13,0,2.05.92,2.05,2.05v9.33ZM158.96,191.08c-.33,0-.61-.27-.61-.6s.27-.61.61-.61.6.27.6.61-.27.6-.6.6ZM158.96,188.33c-.33,0-.61-.27-.61-.6s.27-.61.61-.61.6.27.6.61-.27.6-.6.6ZM158.96,185.58c-.33,0-.61-.27-.61-.61s.27-.6.61-.6.6.27.6.6-.27.61-.6.61ZM158.96,182.83c-.33,0-.61-.27-.61-.61s.27-.61.61-.61.6.27.6.61-.27.61-.6.61ZM161.33,193.22c-.33,0-.61-.27-.61-.6s.27-.61.61-.61.6.27.6.61-.27.6-.6.6ZM161.33,189.7c-.33,0-.61-.27-.61-.6s.27-.61.61-.61.6.27.6.61-.27.6-.6.6ZM161.33,186.95c-.33,0-.61-.27-.61-.61s.27-.6.61-.6.6.27.6.6-.27.61-.6.61ZM161.33,184.2c-.33,0-.61-.27-.61-.61s.27-.61.61-.61.6.27.6.61-.27.61-.6.61ZM161.33,181.45c-.33,0-.61-.27-.61-.6s.27-.61.61-.61.6.27.6.61-.27.6-.6.6ZM163.15,191.3c-.34,0-.61-.27-.61-.6s.27-.61.61-.61.61.27.61.61-.27.6-.61.6ZM163.15,188.55c-.34,0-.61-.27-.61-.6s.27-.61.61-.61.61.27.61.61-.27.6-.61.6ZM163.15,185.8c-.34,0-.61-.27-.61-.61s.27-.61.61-.61.61.27.61.61-.27.61-.61.61ZM163.15,183.05c-.34,0-.61-.27-.61-.61s.27-.6.61-.6.61.27.61.6-.27.61-.61.61ZM165.53,193.44c-.33,0-.61-.27-.61-.6s.27-.61.61-.61.6.27.6.61-.27.6-.6.6ZM165.53,189.92c-.33,0-.61-.27-.61-.61s.27-.6.61-.6.6.27.6.6-.27.61-.6.61ZM165.53,187.17c-.33,0-.61-.27-.61-.6s.27-.61.61-.61.6.27.6.61-.27.6-.6.6ZM165.53,184.42c-.33,0-.61-.27-.61-.61s.27-.6.61-.6.6.27.6.6-.27.61-.6.61ZM165.53,181.68c-.33,0-.61-.27-.61-.61s.27-.61.61-.61.6.27.6.61-.27.61-.6.61Z"/>
            </g>
          </g>
          <g>
            <g>
              <path class="cls-16" d="M271.22,365.8c0,4.82-26.25,8.73-58.62,8.73s-58.62-3.91-58.62-8.73,26.25-8.73,58.62-8.73,58.62,3.91,58.62,8.73Z"/>
              <path class="cls-16" d="M266.58,365.8c0,4.44-24.17,8.04-53.98,8.04s-53.98-3.6-53.98-8.04,24.17-8.04,53.98-8.04,53.98,3.6,53.98,8.04Z"/>
              <path class="cls-16" d="M293.6,365.8c0,6.66-36.27,12.07-81,12.07s-81-5.4-81-12.07,36.27-12.07,81-12.07,81,5.4,81,12.07Z"/>
              <path class="cls-16" d="M287.19,365.8c0,6.14-33.4,11.11-74.59,11.11s-74.59-4.98-74.59-11.11,33.4-11.11,74.59-11.11,74.59,4.98,74.59,11.11Z"/>
              <path class="cls-16" d="M281.77,365.8c0,5.69-30.97,10.3-69.17,10.3s-69.17-4.61-69.17-10.3,30.97-10.3,69.17-10.3,69.17,4.61,69.17,10.3Z"/>
              <path class="cls-16" d="M275.85,365.8c0,5.2-28.32,9.42-63.25,9.42s-63.25-4.22-63.25-9.42,28.32-9.42,63.25-9.42,63.25,4.22,63.25,9.42Z"/>
              <path class="cls-16" d="M238.78,365.8c0,2.15-11.72,3.9-26.18,3.9s-26.18-1.75-26.18-3.9,11.72-3.9,26.18-3.9,26.18,1.75,26.18,3.9Z"/>
              <path class="cls-16" d="M236.71,365.8c0,1.98-10.79,3.59-24.11,3.59s-24.11-1.61-24.11-3.59,10.79-3.59,24.11-3.59,24.11,1.61,24.11,3.59Z"/>
              <path class="cls-16" d="M234.96,365.8c0,1.84-10.01,3.33-22.36,3.33s-22.36-1.49-22.36-3.33,10.01-3.33,22.36-3.33,22.36,1.49,22.36,3.33Z"/>
              <path class="cls-16" d="M233.04,365.8c0,1.68-9.15,3.05-20.44,3.05s-20.45-1.36-20.45-3.05,9.15-3.05,20.45-3.05,20.44,1.36,20.44,3.05Z"/>
              <path class="cls-16" d="M248.5,365.8c0,2.95-16.07,5.35-35.91,5.35s-35.91-2.39-35.91-5.35,16.08-5.35,35.91-5.35,35.91,2.4,35.91,5.35Z"/>
              <path class="cls-16" d="M245.67,365.8c0,2.72-14.81,4.93-33.07,4.93s-33.06-2.21-33.06-4.93,14.8-4.93,33.06-4.93,33.07,2.21,33.07,4.93Z"/>
              <path class="cls-16" d="M243.26,365.8c0,2.52-13.73,4.57-30.66,4.57s-30.66-2.05-30.66-4.57,13.73-4.57,30.66-4.57,30.66,2.05,30.66,4.57Z"/>
              <path class="cls-16" d="M240.63,365.8c0,2.31-12.55,4.18-28.04,4.18s-28.04-1.87-28.04-4.18,12.55-4.18,28.04-4.18,28.04,1.87,28.04,4.18Z"/>
              <path class="cls-16" d="M262.21,365.8c0,4.08-22.21,7.39-49.62,7.39s-49.62-3.31-49.62-7.39,22.21-7.39,49.62-7.39,49.62,3.31,49.62,7.39Z"/>
              <path class="cls-16" d="M258.29,365.8c0,3.76-20.45,6.81-45.69,6.81s-45.69-3.05-45.69-6.81,20.46-6.81,45.69-6.81,45.69,3.05,45.69,6.81Z"/>
              <path class="cls-16" d="M254.96,365.8c0,3.49-18.97,6.31-42.37,6.31s-42.37-2.83-42.37-6.31,18.97-6.31,42.37-6.31,42.37,2.83,42.37,6.31Z"/>
              <path class="cls-16" d="M251.34,365.8c0,3.19-17.34,5.77-38.74,5.77s-38.74-2.58-38.74-5.77,17.35-5.77,38.74-5.77,38.74,2.58,38.74,5.77Z"/>
              <path class="cls-16" d="M230.65,365.8c0,1.49-8.08,2.69-18.05,2.69s-18.05-1.2-18.05-2.69,8.08-2.69,18.05-2.69,18.05,1.2,18.05,2.69Z"/>
              <path class="cls-16" d="M229.06,365.8c0,1.35-7.37,2.45-16.46,2.45s-16.46-1.1-16.46-2.45,7.37-2.45,16.46-2.45,16.46,1.1,16.46,2.45Z"/>
              <path class="cls-16" d="M227.94,365.8c0,1.26-6.87,2.29-15.34,2.29s-15.34-1.02-15.34-2.29,6.87-2.29,15.34-2.29,15.34,1.02,15.34,2.29Z"/>
              <path class="cls-16" d="M226.73,365.8c0,1.16-6.33,2.1-14.13,2.1s-14.13-.94-14.13-2.1,6.33-2.11,14.13-2.11,14.13.94,14.13,2.11Z"/>
              <path class="cls-16" d="M225.7,365.8c0,1.08-5.87,1.95-13.1,1.95s-13.1-.87-13.1-1.95,5.86-1.95,13.1-1.95,13.1.87,13.1,1.95Z"/>
              <path class="cls-16" d="M224.58,365.8c0,.99-5.36,1.78-11.98,1.78s-11.98-.8-11.98-1.78,5.36-1.79,11.98-1.79,11.98.8,11.98,1.79Z"/>
              <path class="cls-16" d="M223.18,365.8c0,.87-4.74,1.58-10.58,1.58s-10.58-.71-10.58-1.58,4.74-1.58,10.58-1.58,10.58.71,10.58,1.58Z"/>
              <path class="cls-16" d="M222.24,365.8c0,.79-4.32,1.44-9.64,1.44s-9.65-.64-9.65-1.44,4.32-1.44,9.65-1.44,9.64.64,9.64,1.44Z"/>
              <path class="cls-16" d="M222.24,365.8c0,.79-4.32,1.44-9.64,1.44s-9.65-.64-9.65-1.44,4.32-1.44,9.65-1.44,9.64.64,9.64,1.44Z"/>
              <path class="cls-16" d="M221.48,365.8c0,.73-3.98,1.32-8.88,1.32s-8.88-.59-8.88-1.32,3.98-1.32,8.88-1.32,8.88.59,8.88,1.32Z"/>
              <path class="cls-16" d="M220.83,365.8c0,.68-3.69,1.23-8.24,1.23s-8.24-.55-8.24-1.23,3.69-1.23,8.24-1.23,8.24.55,8.24,1.23Z"/>
              <path class="cls-16" d="M220.13,365.8c0,.62-3.37,1.12-7.53,1.12s-7.53-.5-7.53-1.12,3.37-1.12,7.53-1.12,7.53.5,7.53,1.12Z"/>
              <path class="cls-16" d="M219.25,365.8c0,.55-2.98.99-6.65.99s-6.65-.44-6.65-.99,2.98-.99,6.65-.99,6.65.44,6.65.99Z"/>
              <path class="cls-16" d="M218.66,365.8c0,.5-2.71.9-6.06.9s-6.06-.4-6.06-.9,2.71-.9,6.06-.9,6.06.4,6.06.9Z"/>
              <path class="cls-16" d="M218.25,365.8c0,.46-2.53.84-5.65.84s-5.65-.38-5.65-.84,2.53-.84,5.65-.84,5.65.38,5.65.84Z"/>
              <path class="cls-16" d="M217.8,365.8c0,.43-2.33.77-5.2.77s-5.2-.35-5.2-.77,2.33-.78,5.2-.78,5.2.35,5.2.78Z"/>
              <path class="cls-16" d="M217.42,365.8c0,.4-2.16.72-4.82.72s-4.83-.32-4.83-.72,2.16-.72,4.83-.72,4.82.32,4.82.72Z"/>
              <path class="cls-16" d="M217.01,365.8c0,.36-1.97.66-4.41.66s-4.41-.29-4.41-.66,1.98-.66,4.41-.66,4.41.29,4.41.66Z"/>
              <path class="cls-16" d="M216.5,365.8c0,.32-1.74.58-3.9.58s-3.9-.26-3.9-.58,1.75-.58,3.9-.58,3.9.26,3.9.58Z"/>
              <path class="cls-16" d="M216.15,365.8c0,.29-1.59.53-3.55.53s-3.55-.24-3.55-.53,1.59-.53,3.55-.53,3.55.24,3.55.53Z"/>
              <path class="cls-16" d="M215.65,365.8c0,.25-1.37.45-3.05.45s-3.05-.2-3.05-.45,1.37-.45,3.05-.45,3.05.2,3.05.45Z"/>
              <path class="cls-16" d="M215.11,365.8c0,.21-1.12.37-2.51.37s-2.51-.17-2.51-.37,1.12-.37,2.51-.37,2.51.17,2.51.37Z"/>
              <path class="cls-16" d="M214.33,365.8c0,.14-.78.26-1.73.26s-1.73-.12-1.73-.26.77-.26,1.73-.26,1.73.12,1.73.26Z"/>
              <path class="cls-16" d="M213.77,365.8c0,.1-.52.18-1.17.18s-1.18-.08-1.18-.18.53-.18,1.18-.18,1.17.08,1.17.18Z"/>
            </g>
            <g>
              <path class="cls-9" d="M274.24,359.2c0,5-4.06,9.06-9.06,9.06h-105.17c-5,0-9.05-4.05-9.05-9.06v-198.76c0-5,4.05-9.06,9.05-9.06h105.17c5,0,9.06,4.05,9.06,9.06v198.76Z"/>
              <path class="cls-27" d="M270.81,355.51c0,4.82-3.83,8.72-8.56,8.72h-99.31c-4.72,0-8.55-3.9-8.55-8.72v-191.38c0-4.82,3.83-8.72,8.55-8.72h99.31c4.72,0,8.56,3.9,8.56,8.72v191.38Z"/>
              <rect class="cls-22" x="157.5" y="174.02" width="110.2" height="159.22"/>
              <rect class="cls-11" x="160.46" y="176.32" width="104.28" height="154.63"/>
              <path class="cls-8" d="M226.64,165.47c0,1.11-1.17,2.01-2.61,2.01h-22.86c-1.44,0-2.61-.9-2.61-2.01h0c0-1.11,1.17-2.01,2.61-2.01h22.86c1.44,0,2.61.9,2.61,2.01h0Z"/>
              <path class="cls-8" d="M220.57,337.39h-17.91c-1.13,0-2.05.92-2.05,2.06v17.91c0,1.13.92,2.05,2.05,2.05h17.91c1.13,0,2.05-.92,2.05-2.05v-17.91c0-1.13-.92-2.06-2.05-2.06ZM217.72,353.37c0,.63-.51,1.14-1.14,1.14h-9.94c-.63,0-1.14-.51-1.14-1.14v-9.94c0-.63.51-1.14,1.14-1.14h9.94c.63,0,1.14.51,1.14,1.14v9.94Z"/>
              <g>
                <g class="cls-13">
                  <polygon class="cls-5" points="263.79 221.05 227 200.48 209.49 259.95 195.84 314.34 261.39 352.62 263.79 340.87 263.79 221.05"/>
                </g>
                <g>
                  <path class="cls-6" d="M237.28,311.22s-9.92,5.64-23.73,5.64c-15.14,0-22.83-5.64-22.83-5.64,0,0-11.89-36.41-9.62-42.56,2.27-6.15,21.62-10.99,21.62-10.99h23.19s17.6,5.44,20.03,10.99c2.43,5.56-8.65,42.56-8.65,42.56Z"/>
                  <path class="cls-12" d="M225.91,257.67c3.16,2.56-12.13,16.59-12.13,16.59,0,0-16.12-14.61-12.41-16.59,5.67-3.02,1.82-13.26,1.82-13.26h20.48s-3.97,8.23,2.24,13.26Z"/>
                  <path class="cls-26" d="M230.86,227s2.69-4.72,4.52-3.8c3.84,1.92.65,12.08-1.56,13.13-2.21,1.05-3.06-2.39-3.06-2.39"/>
                  <path class="cls-26" d="M194.45,227s-2.69-4.72-4.52-3.8c-3.84,1.92-.65,12.08,1.57,13.13,2.21,1.05,3.05-2.39,3.05-2.39"/>
                  <path class="cls-26" d="M192.1,220.76s3.29,22.33,5.34,24.79c2.05,2.46,12.34,9.96,15.62,9.96s14.18-7.54,16.02-10.93c1.98-3.64,4.08-23.82,4.08-23.82,0,0,2.36-22.5-20.1-22.5s-20.96,22.5-20.96,22.5Z"/>
                  <path class="cls-23" d="M192.69,224.55c.31,5.41,1.72,9.85,1.72,9.85,0,0-.5-4.83,1.28-9,1.8-4.2,5.89-7.76,6.45-14.12,4.74,11.86,25.05,4.72,27.31,8.93,2.96,5.53,1.97,14.19,1.97,14.19,0,0-.14-2.06,1.19-8.73.92-2.98,2.77-2.47,2.77-2.47,0,0-1.6-12.95-5.52-19.32-4.38-7.11-14.83-8-19.61-8.01-12.57-.01-20.05,13.55-20.88,17.45-.82,3.9,0,10.26,0,10.26,0,0,2.96-1.21,3.32.96Z"/>
                  <path class="cls-28" d="M237.96,289.6c0,3.77-3.06,6.83-6.83,6.83s-6.83-3.06-6.83-6.83,3.06-6.83,6.83-6.83,6.83,3.06,6.83,6.83Z"/>
                  <path class="cls-1" d="M237.4,289.6c0,3.46-2.81,6.27-6.28,6.27s-6.28-2.81-6.28-6.27,2.81-6.27,6.28-6.27,6.28,2.81,6.28,6.27Z"/>
                  <path class="cls-19" d="M234.88,289.6c0,2.07-1.68,3.75-3.75,3.75s-3.75-1.68-3.75-3.75,1.68-3.75,3.75-3.75,3.75,1.68,3.75,3.75Z"/>
                  <path class="cls-15" d="M197.37,277.12c3.05-.26,6.12.23,7.65,1.62,4.41,3.97,9.75,9.67,10.15,14.32.23,2.73-1.89,5.59-6.31,8.5l-1.28-1.95c3.55-2.34,5.42-4.59,5.27-6.34-.26-2.98-3.68-7.64-9.39-12.78-1.92-1.73-9.58-1.34-11.88,1.09-2.62,2.79-7.37,9.79-7,14.12.24,2.75,3.41,4.64,6.03,5.74l-.9,2.15c-4.67-1.96-7.18-4.55-7.45-7.7-.47-5.41,4.93-13.06,7.62-15.92,1.5-1.6,4.48-2.59,7.48-2.85Z"/>
                  <path class="cls-25" d="M212.7,286.53c-3.23-3.71-5.04-5.74-7.54-7.99-1.54-1.38-4.73-1.69-7.78-1.42-3,.26-6.16,1.09-7.66,2.7-1.83,1.94-5.06,6.26-6.7,10.42l3.23.08c1.52-3.41,3.68-6.97,5.34-8.75,2.3-2.44,9.96-2.82,11.88-1.09,3.08,2.77,5.07,5.71,6.68,8.02.59-.52,1.95-1.47,2.56-1.96Z"/>
                  <path class="cls-20" d="M204.88,299.47c2.15-.44,4.22-.96,4.22-.96,0,0,.41.17.75.89.34.71.29,1.25.29,1.25,0,0-1.45,1.89-2.33,3.12-.94,1.33-1.8-.18-2.61-1.37-.81-1.19-2.12-2.57-.32-2.93Z"/>
                  <path class="cls-20" d="M193.3,300.89c-2.2-.06-4.32-.23-4.32-.23,0,0-.38.24-.59,1.01-.21.76-.08,1.28-.08,1.28,0,0,1.75,1.61,2.83,2.68,1.16,1.16,1.75-.48,2.34-1.79.59-1.31,1.65-2.89-.18-2.94Z"/>
                  <path class="cls-15" d="M195.59,277.32c-.04-.58-.98-14.2.31-18.35.72-2.32,1.95-3.87,3.65-4.6,1.87-.81,3.78-.33,4.53.03l-1.08,2.21c-.24-.12-1.38-.47-2.48.01-1.01.44-1.78,1.47-2.27,3.07-.96,3.09-.47,13.65-.2,17.45l-2.45.17Z"/>
                  <path class="cls-15" d="M230.06,289.27c.08-.86.89-8.37,1.11-10.65.47-4.82,1.27-12.88.85-15-.47-2.38-2.23-6.39-4.53-7.42-.94-.42-1.91-.32-2.98.31l-1.25-2.12c1.76-1.03,3.57-1.18,5.24-.43,3.71,1.67,5.54,7.2,5.94,9.19.45,2.29-.13,8.74-.82,15.72-.21,2.1-.89,9.05-1.12,10.8-.23,1.76-2.63,1.74-2.44-.39Z"/>
                  <path class="cls-17" d="M193.45,279.62c-.21-2.5,2.05-4.74,3.58-4.87,1.53-.13,4.14,1.69,4.35,4.19.16,1.83-1.66,1.54-3.85,1.72-2.19.19-3.93.78-4.08-1.04Z"/>
                </g>
              </g>
            </g>
          </g>
          <g>
            <g>
              <path class="cls-16" d="M86.95,361.9c0,2.11-7.92,3.81-17.69,3.81s-17.69-1.71-17.69-3.81,7.92-3.82,17.69-3.82,17.69,1.71,17.69,3.82Z"/>
              <path class="cls-16" d="M85.55,361.9c0,1.94-7.29,3.51-16.29,3.51s-16.29-1.57-16.29-3.51,7.29-3.51,16.29-3.51,16.29,1.57,16.29,3.51Z"/>
              <path class="cls-16" d="M93.71,361.9c0,2.91-10.94,5.27-24.44,5.27s-24.44-2.36-24.44-5.27,10.94-5.27,24.44-5.27,24.44,2.36,24.44,5.27Z"/>
              <path class="cls-16" d="M91.77,361.9c0,2.68-10.08,4.85-22.5,4.85s-22.5-2.17-22.5-4.85,10.08-4.86,22.5-4.86,22.5,2.17,22.5,4.86Z"/>
              <path class="cls-16" d="M90.14,361.9c0,2.49-9.34,4.5-20.87,4.5s-20.87-2.02-20.87-4.5,9.34-4.5,20.87-4.5,20.87,2.02,20.87,4.5Z"/>
              <path class="cls-16" d="M88.35,361.9c0,2.27-8.54,4.12-19.08,4.12s-19.08-1.84-19.08-4.12,8.54-4.12,19.08-4.12,19.08,1.84,19.08,4.12Z"/>
              <path class="cls-16" d="M77.17,361.9c0,.94-3.54,1.7-7.9,1.7s-7.9-.76-7.9-1.7,3.54-1.71,7.9-1.71,7.9.76,7.9,1.71Z"/>
              <path class="cls-16" d="M76.54,361.9c0,.87-3.26,1.57-7.27,1.57s-7.28-.7-7.28-1.57,3.26-1.57,7.28-1.57,7.27.7,7.27,1.57Z"/>
              <path class="cls-16" d="M76.01,361.9c0,.8-3.02,1.45-6.75,1.45s-6.75-.65-6.75-1.45,3.02-1.46,6.75-1.46,6.75.65,6.75,1.46Z"/>
              <path class="cls-16" d="M75.43,361.9c0,.73-2.76,1.33-6.17,1.33s-6.17-.6-6.17-1.33,2.76-1.33,6.17-1.33,6.17.6,6.17,1.33Z"/>
              <path class="cls-16" d="M80.1,361.9c0,1.29-4.85,2.34-10.83,2.34s-10.83-1.05-10.83-2.34,4.85-2.34,10.83-2.34,10.83,1.05,10.83,2.34Z"/>
              <path class="cls-16" d="M79.24,361.9c0,1.19-4.46,2.15-9.97,2.15s-9.98-.96-9.98-2.15,4.47-2.15,9.98-2.15,9.97.96,9.97,2.15Z"/>
              <path class="cls-16" d="M78.52,361.9c0,1.1-4.14,2-9.25,2s-9.25-.89-9.25-2,4.14-2,9.25-2,9.25.89,9.25,2Z"/>
              <path class="cls-16" d="M77.73,361.9c0,1.01-3.79,1.82-8.46,1.82s-8.46-.82-8.46-1.82,3.79-1.83,8.46-1.83,8.46.82,8.46,1.83Z"/>
              <path class="cls-16" d="M84.24,361.9c0,1.78-6.7,3.23-14.97,3.23s-14.97-1.45-14.97-3.23,6.7-3.23,14.97-3.23,14.97,1.45,14.97,3.23Z"/>
              <path class="cls-16" d="M83.05,361.9c0,1.64-6.17,2.97-13.79,2.97s-13.79-1.33-13.79-2.97,6.17-2.97,13.79-2.97,13.79,1.33,13.79,2.97Z"/>
              <path class="cls-16" d="M82.05,361.9c0,1.52-5.72,2.76-12.78,2.76s-12.78-1.23-12.78-2.76,5.72-2.76,12.78-2.76,12.78,1.23,12.78,2.76Z"/>
              <path class="cls-16" d="M80.96,361.9c0,1.39-5.23,2.52-11.69,2.52s-11.69-1.13-11.69-2.52,5.23-2.52,11.69-2.52,11.69,1.13,11.69,2.52Z"/>
              <path class="cls-16" d="M74.71,361.9c0,.65-2.44,1.17-5.45,1.17s-5.45-.53-5.45-1.17,2.44-1.18,5.45-1.18,5.45.53,5.45,1.18Z"/>
              <path class="cls-16" d="M74.23,361.9c0,.59-2.22,1.07-4.96,1.07s-4.97-.48-4.97-1.07,2.22-1.07,4.97-1.07,4.96.48,4.96,1.07Z"/>
              <path class="cls-16" d="M73.9,361.9c0,.55-2.07,1-4.63,1s-4.63-.45-4.63-1,2.07-1,4.63-1,4.63.45,4.63,1Z"/>
              <path class="cls-16" d="M73.53,361.9c0,.51-1.91.92-4.26.92s-4.26-.41-4.26-.92,1.91-.92,4.26-.92,4.26.41,4.26.92Z"/>
              <path class="cls-16" d="M73.22,361.9c0,.47-1.77.85-3.95.85s-3.95-.38-3.95-.85,1.77-.85,3.95-.85,3.95.38,3.95.85Z"/>
              <path class="cls-16" d="M72.88,361.9c0,.43-1.62.78-3.61.78s-3.62-.35-3.62-.78,1.62-.78,3.62-.78,3.61.35,3.61.78Z"/>
              <path class="cls-16" d="M72.46,361.9c0,.38-1.43.69-3.19.69s-3.19-.31-3.19-.69,1.43-.69,3.19-.69,3.19.31,3.19.69Z"/>
              <path class="cls-16" d="M72.18,361.9c0,.35-1.3.63-2.91.63s-2.91-.28-2.91-.63,1.3-.63,2.91-.63,2.91.28,2.91.63Z"/>
              <path class="cls-16" d="M72.18,361.9c0,.35-1.3.63-2.91.63s-2.91-.28-2.91-.63,1.3-.63,2.91-.63,2.91.28,2.91.63Z"/>
              <path class="cls-16" d="M71.95,361.9c0,.32-1.2.58-2.68.58s-2.68-.26-2.68-.58,1.2-.58,2.68-.58,2.68.26,2.68.58Z"/>
              <path class="cls-16" d="M71.75,361.9c0,.3-1.11.54-2.48.54s-2.48-.24-2.48-.54,1.11-.54,2.48-.54,2.48.24,2.48.54Z"/>
              <path class="cls-16" d="M71.54,361.9c0,.27-1.02.49-2.27.49s-2.27-.22-2.27-.49,1.02-.49,2.27-.49,2.27.22,2.27.49Z"/>
              <path class="cls-16" d="M71.27,361.9c0,.24-.9.43-2.01.43s-2.01-.19-2.01-.43.9-.43,2.01-.43,2.01.19,2.01.43Z"/>
              <path class="cls-16" d="M71.1,361.9c0,.22-.82.39-1.83.39s-1.83-.18-1.83-.39.82-.4,1.83-.4,1.83.18,1.83.4Z"/>
              <path class="cls-16" d="M70.97,361.9c0,.2-.76.37-1.71.37s-1.7-.17-1.7-.37.76-.37,1.7-.37,1.71.17,1.71.37Z"/>
              <path class="cls-16" d="M70.84,361.9c0,.19-.7.34-1.57.34s-1.57-.15-1.57-.34.7-.34,1.57-.34,1.57.15,1.57.34Z"/>
              <path class="cls-16" d="M70.72,361.9c0,.17-.65.31-1.46.31s-1.46-.14-1.46-.31.65-.31,1.46-.31,1.46.14,1.46.31Z"/>
              <path class="cls-16" d="M70.6,361.9c0,.16-.6.29-1.33.29s-1.33-.13-1.33-.29.6-.29,1.33-.29,1.33.13,1.33.29Z"/>
              <path class="cls-16" d="M70.44,361.9c0,.14-.53.25-1.18.25s-1.18-.11-1.18-.25.53-.25,1.18-.25,1.18.11,1.18.25Z"/>
              <path class="cls-16" d="M70.34,361.9c0,.13-.48.23-1.07.23s-1.07-.1-1.07-.23.48-.23,1.07-.23,1.07.1,1.07.23Z"/>
              <path class="cls-16" d="M70.19,361.9c0,.11-.41.2-.92.2s-.92-.09-.92-.2.41-.2.92-.2.92.09.92.2Z"/>
              <path class="cls-16" d="M70.02,361.9c0,.09-.34.16-.76.16s-.76-.07-.76-.16.34-.16.76-.16.76.07.76.16Z"/>
              <path class="cls-16" d="M69.79,361.9c0,.06-.23.11-.52.11s-.52-.05-.52-.11.23-.11.52-.11.52.05.52.11Z"/>
              <path class="cls-16" d="M69.62,361.9s-.16.08-.35.08-.36-.03-.36-.08.16-.08.36-.08.35.03.35.08Z"/>
            </g>
            <g>
              <path class="cls-16" d="M133.79,361.34c0,2.11-7.92,3.81-17.69,3.81s-17.69-1.71-17.69-3.81,7.92-3.82,17.69-3.82,17.69,1.71,17.69,3.82Z"/>
              <path class="cls-16" d="M132.39,361.34c0,1.94-7.29,3.51-16.29,3.51s-16.29-1.57-16.29-3.51,7.29-3.51,16.29-3.51,16.29,1.57,16.29,3.51Z"/>
              <path class="cls-16" d="M140.54,361.34c0,2.91-10.94,5.27-24.44,5.27s-24.44-2.36-24.44-5.27,10.94-5.27,24.44-5.27,24.44,2.36,24.44,5.27Z"/>
              <path class="cls-16" d="M138.6,361.34c0,2.68-10.08,4.85-22.51,4.85s-22.5-2.17-22.5-4.85,10.08-4.86,22.5-4.86,22.51,2.17,22.51,4.86Z"/>
              <path class="cls-16" d="M136.97,361.34c0,2.49-9.34,4.5-20.87,4.5s-20.87-2.02-20.87-4.5,9.34-4.5,20.87-4.5,20.87,2.02,20.87,4.5Z"/>
              <path class="cls-16" d="M135.18,361.34c0,2.27-8.55,4.12-19.08,4.12s-19.08-1.84-19.08-4.12,8.54-4.12,19.08-4.12,19.08,1.84,19.08,4.12Z"/>
              <path class="cls-16" d="M124,361.34c0,.94-3.54,1.7-7.9,1.7s-7.9-.76-7.9-1.7,3.54-1.71,7.9-1.71,7.9.76,7.9,1.71Z"/>
              <path class="cls-16" d="M123.37,361.34c0,.87-3.26,1.57-7.28,1.57s-7.27-.7-7.27-1.57,3.26-1.57,7.27-1.57,7.28.7,7.28,1.57Z"/>
              <path class="cls-16" d="M122.84,361.34c0,.8-3.02,1.45-6.75,1.45s-6.75-.65-6.75-1.45,3.02-1.46,6.75-1.46,6.75.65,6.75,1.46Z"/>
              <path class="cls-16" d="M122.27,361.34c0,.73-2.76,1.33-6.17,1.33s-6.17-.6-6.17-1.33,2.76-1.33,6.17-1.33,6.17.6,6.17,1.33Z"/>
              <path class="cls-16" d="M126.93,361.34c0,1.29-4.85,2.34-10.83,2.34s-10.83-1.05-10.83-2.34,4.85-2.34,10.83-2.34,10.83,1.05,10.83,2.34Z"/>
              <path class="cls-16" d="M126.08,361.34c0,1.19-4.47,2.15-9.98,2.15s-9.97-.96-9.97-2.15,4.46-2.15,9.97-2.15,9.98.96,9.98,2.15Z"/>
              <path class="cls-16" d="M125.35,361.34c0,1.1-4.14,2-9.25,2s-9.25-.89-9.25-2,4.14-2,9.25-2,9.25.89,9.25,2Z"/>
              <path class="cls-16" d="M124.56,361.34c0,1.01-3.79,1.82-8.46,1.82s-8.46-.82-8.46-1.82,3.79-1.83,8.46-1.83,8.46.82,8.46,1.83Z"/>
              <path class="cls-16" d="M131.07,361.34c0,1.78-6.7,3.23-14.97,3.23s-14.97-1.45-14.97-3.23,6.7-3.23,14.97-3.23,14.97,1.45,14.97,3.23Z"/>
              <path class="cls-16" d="M129.88,361.34c0,1.64-6.17,2.97-13.79,2.97s-13.79-1.33-13.79-2.97,6.17-2.97,13.79-2.97,13.79,1.33,13.79,2.97Z"/>
              <path class="cls-16" d="M128.88,361.34c0,1.52-5.72,2.76-12.78,2.76s-12.78-1.23-12.78-2.76,5.72-2.76,12.78-2.76,12.78,1.23,12.78,2.76Z"/>
              <path class="cls-16" d="M127.79,361.34c0,1.39-5.23,2.52-11.69,2.52s-11.69-1.13-11.69-2.52,5.23-2.52,11.69-2.52,11.69,1.13,11.69,2.52Z"/>
              <path class="cls-16" d="M121.55,361.34c0,.65-2.44,1.17-5.45,1.17s-5.45-.53-5.45-1.17,2.44-1.18,5.45-1.18,5.45.53,5.45,1.18Z"/>
              <path class="cls-16" d="M121.06,361.34c0,.59-2.22,1.07-4.97,1.07s-4.97-.48-4.97-1.07,2.22-1.07,4.97-1.07,4.97.48,4.97,1.07Z"/>
              <path class="cls-16" d="M120.73,361.34c0,.55-2.07,1-4.63,1s-4.63-.45-4.63-1,2.07-1,4.63-1,4.63.45,4.63,1Z"/>
              <path class="cls-16" d="M120.36,361.34c0,.51-1.91.92-4.26.92s-4.26-.41-4.26-.92,1.91-.92,4.26-.92,4.26.41,4.26.92Z"/>
              <path class="cls-16" d="M120.05,361.34c0,.47-1.77.85-3.95.85s-3.95-.38-3.95-.85,1.77-.85,3.95-.85,3.95.38,3.95.85Z"/>
              <path class="cls-16" d="M119.71,361.34c0,.43-1.62.78-3.62.78s-3.61-.35-3.61-.78,1.62-.78,3.61-.78,3.62.35,3.62.78Z"/>
              <path class="cls-16" d="M119.29,361.34c0,.38-1.43.69-3.19.69s-3.19-.31-3.19-.69,1.43-.69,3.19-.69,3.19.31,3.19.69Z"/>
              <path class="cls-16" d="M119.01,361.34c0,.35-1.3.63-2.91.63s-2.91-.28-2.91-.63,1.3-.63,2.91-.63,2.91.28,2.91.63Z"/>
              <path class="cls-16" d="M119.01,361.34c0,.35-1.3.63-2.91.63s-2.91-.28-2.91-.63,1.3-.63,2.91-.63,2.91.28,2.91.63Z"/>
              <path class="cls-16" d="M118.78,361.34c0,.32-1.2.58-2.68.58s-2.68-.26-2.68-.58,1.2-.58,2.68-.58,2.68.26,2.68.58Z"/>
              <path class="cls-16" d="M118.58,361.34c0,.3-1.11.54-2.48.54s-2.48-.24-2.48-.54,1.11-.54,2.48-.54,2.48.24,2.48.54Z"/>
              <path class="cls-16" d="M118.37,361.34c0,.27-1.02.49-2.27.49s-2.27-.22-2.27-.49,1.02-.49,2.27-.49,2.27.22,2.27.49Z"/>
              <path class="cls-16" d="M118.1,361.34c0,.24-.9.43-2.01.43s-2-.19-2-.43.9-.43,2-.43,2.01.19,2.01.43Z"/>
              <path class="cls-16" d="M117.93,361.34c0,.22-.82.39-1.83.39s-1.83-.18-1.83-.39.82-.4,1.83-.4,1.83.18,1.83.4Z"/>
              <path class="cls-16" d="M117.8,361.34c0,.2-.76.37-1.71.37s-1.71-.17-1.71-.37.76-.37,1.71-.37,1.71.17,1.71.37Z"/>
              <path class="cls-16" d="M117.67,361.34c0,.19-.7.34-1.57.34s-1.57-.15-1.57-.34.7-.34,1.57-.34,1.57.15,1.57.34Z"/>
              <path class="cls-16" d="M117.56,361.34c0,.17-.65.31-1.46.31s-1.46-.14-1.46-.31.65-.31,1.46-.31,1.46.14,1.46.31Z"/>
              <path class="cls-16" d="M117.43,361.34c0,.16-.6.29-1.33.29s-1.33-.13-1.33-.29.6-.29,1.33-.29,1.33.13,1.33.29Z"/>
              <path class="cls-16" d="M117.27,361.34c0,.14-.53.25-1.18.25s-1.18-.11-1.18-.25.53-.25,1.18-.25,1.18.11,1.18.25Z"/>
              <path class="cls-16" d="M117.17,361.34c0,.13-.48.23-1.07.23s-1.07-.1-1.07-.23.48-.23,1.07-.23,1.07.1,1.07.23Z"/>
              <path class="cls-16" d="M117.02,361.34c0,.11-.41.2-.92.2s-.92-.09-.92-.2.41-.2.92-.2.92.09.92.2Z"/>
              <path class="cls-16" d="M116.86,361.34c0,.09-.34.16-.76.16s-.76-.07-.76-.16.34-.16.76-.16.76.07.76.16Z"/>
              <path class="cls-16" d="M116.62,361.34c0,.06-.23.11-.52.11s-.52-.05-.52-.11.23-.11.52-.11.52.05.52.11Z"/>
              <path class="cls-16" d="M116.45,361.34s-.16.08-.36.08-.35-.03-.35-.08.16-.08.35-.08.36.03.36.08Z"/>
            </g>
            <g>
              <g>
                <g>
                  <path class="cls-2" d="M44.76,300.44c-3.56-3.47-3.63-9.17-.16-12.73l15.46-15.84c3.47-3.56,9.17-3.63,12.73-.15l62.56,61.06c3.56,3.47,3.63,9.17.16,12.73l-15.46,15.84c-3.48,3.56-9.17,3.63-12.73.15l-62.56-61.06Z"/>
                  <path class="cls-11" d="M70.55,320.63c-2.05-2.01-2.09-5.29-.09-7.35l15.57-15.95c2-2.05,5.29-2.09,7.34-.09l15.95,15.57c2.05,2,2.09,5.29.09,7.35l-15.57,15.95c-2,2.05-5.29,2.09-7.35.09l-15.95-15.57Z"/>
                  <path class="cls-2" d="M72.52,320.23c-1.84-1.8-1.88-4.75-.08-6.6l13.99-14.33c1.8-1.84,4.75-1.88,6.6-.08l14.33,13.99c1.85,1.8,1.88,4.76.08,6.6l-13.99,14.34c-1.8,1.84-4.76,1.88-6.6.08l-14.34-13.99Z"/>
                  <path class="cls-11" d="M114.86,322.79c-.57-.55-.58-1.47-.02-2.04.56-.57,1.47-.58,2.04-.03.57.56.58,1.47.03,2.04-.56.57-1.47.58-2.04.02Z"/>
                  <path class="cls-11" d="M109.8,327.98c-.57-.56-.58-1.47-.02-2.04.56-.57,1.47-.58,2.04-.03.57.56.58,1.47.02,2.04-.56.57-1.47.58-2.04.02Z"/>
                  <path class="cls-11" d="M104.73,333.17c-.57-.56-.58-1.47-.03-2.04.56-.57,1.47-.58,2.04-.02.57.56.58,1.47.02,2.04-.55.57-1.47.58-2.04.02Z"/>
                  <path class="cls-11" d="M99.67,338.36c-.57-.55-.58-1.47-.03-2.04.56-.57,1.47-.58,2.04-.02.57.56.58,1.47.03,2.04-.56.57-1.47.58-2.04.02Z"/>
                  <path class="cls-11" d="M115.84,329.85c-.57-.56-.58-1.47-.02-2.04.56-.57,1.47-.58,2.04-.03.57.56.58,1.47.02,2.04-.56.57-1.47.58-2.04.03Z"/>
                  <path class="cls-11" d="M110.77,335.04c-.57-.55-.58-1.47-.03-2.04.56-.57,1.47-.58,2.04-.02.57.55.58,1.47.02,2.04-.55.57-1.47.58-2.04.02Z"/>
                  <path class="cls-11" d="M105.71,340.23c-.57-.56-.58-1.47-.03-2.04.56-.57,1.47-.58,2.04-.02.57.56.58,1.47.03,2.04-.56.57-1.47.58-2.04.02Z"/>
                  <path class="cls-11" d="M100.64,345.42c-.57-.55-.58-1.47-.02-2.04.56-.57,1.47-.58,2.04-.02.57.56.58,1.47.03,2.04-.56.57-1.47.58-2.04.02Z"/>
                  <path class="cls-11" d="M94.6,343.55c-.57-.56-.58-1.47-.02-2.04.55-.57,1.47-.58,2.04-.02.57.55.58,1.47.03,2.04-.56.57-1.47.58-2.04.03Z"/>
                  <path class="cls-11" d="M122.72,330.22c-.57-.56-.58-1.47-.02-2.04.56-.57,1.47-.58,2.04-.02.57.56.58,1.47.02,2.04-.56.57-1.47.58-2.04.03Z"/>
                  <path class="cls-11" d="M117.65,335.41c-.57-.55-.58-1.47-.02-2.04.56-.57,1.47-.58,2.04-.02.57.55.58,1.47.02,2.04-.55.57-1.47.58-2.04.02Z"/>
                  <path class="cls-11" d="M112.59,340.6c-.57-.56-.58-1.47-.02-2.04.55-.57,1.47-.58,2.04-.02.57.56.58,1.47.03,2.04-.56.57-1.47.58-2.04.03Z"/>
                  <path class="cls-11" d="M107.52,345.79c-.57-.55-.58-1.47-.02-2.04.56-.57,1.47-.58,2.04-.03.57.56.58,1.47.03,2.04-.56.57-1.47.58-2.04.02Z"/>
                  <path class="cls-11" d="M123.69,337.28c-.57-.56-.58-1.47-.02-2.04.56-.57,1.47-.58,2.04-.02.57.56.58,1.47.02,2.04-.55.57-1.47.58-2.04.03Z"/>
                  <path class="cls-11" d="M118.63,342.47c-.57-.55-.58-1.47-.02-2.04.56-.57,1.47-.58,2.04-.02.57.56.58,1.47.03,2.04-.56.57-1.47.58-2.04.02Z"/>
                  <path class="cls-11" d="M113.56,347.66c-.57-.56-.58-1.47-.03-2.04.56-.57,1.47-.58,2.04-.03.57.56.58,1.47.02,2.04-.56.57-1.47.58-2.04.02Z"/>
                  <path class="cls-11" d="M108.5,352.85c-.57-.56-.58-1.47-.02-2.04.56-.57,1.47-.58,2.04-.02.57.56.58,1.47.03,2.04-.56.57-1.47.58-2.04.03Z"/>
                  <path class="cls-11" d="M102.46,350.99c-.57-.56-.58-1.47-.03-2.04.56-.57,1.47-.58,2.04-.02.57.56.58,1.47.03,2.04-.56.57-1.47.58-2.04.02Z"/>
                  <path class="cls-11" d="M130.69,338c-.57-.56-.58-1.47-.03-2.04.56-.57,1.47-.58,2.04-.03.57.56.58,1.47.02,2.04-.55.57-1.47.58-2.04.03Z"/>
                  <path class="cls-11" d="M125.62,343.19c-.57-.55-.58-1.47-.02-2.04.56-.57,1.47-.58,2.04-.03.57.56.58,1.47.03,2.04-.56.57-1.47.58-2.04.02Z"/>
                  <path class="cls-11" d="M120.55,348.38c-.57-.56-.58-1.47-.03-2.04.55-.57,1.47-.58,2.04-.02.57.55.58,1.47.02,2.04-.56.57-1.47.58-2.04.03Z"/>
                  <path class="cls-11" d="M115.49,353.57c-.57-.55-.58-1.47-.03-2.04.56-.57,1.47-.58,2.04-.02.57.56.58,1.47.02,2.04-.56.57-1.47.58-2.04.02Z"/>
                  <path class="cls-11" d="M110.42,358.76c-.57-.56-.58-1.47-.02-2.04.55-.57,1.47-.58,2.04-.02.57.56.58,1.47.02,2.04-.55.57-1.47.58-2.04.03Z"/>
                  <path class="cls-11" d="M67.68,276.51c-.57-.56-.58-1.47-.03-2.04.56-.57,1.47-.58,2.04-.02.57.55.58,1.47.03,2.04-.56.57-1.47.58-2.04.03Z"/>
                  <path class="cls-11" d="M62.61,281.69c-.57-.55-.58-1.47-.02-2.04.56-.57,1.47-.58,2.04-.03.57.56.58,1.47.02,2.04-.55.57-1.47.58-2.04.02Z"/>
                  <path class="cls-11" d="M57.55,286.88c-.57-.55-.58-1.47-.02-2.04.56-.57,1.47-.58,2.04-.03.57.56.58,1.47.02,2.04-.56.57-1.47.58-2.04.02Z"/>
                  <path class="cls-11" d="M52.48,292.08c-.57-.56-.58-1.47-.02-2.04.55-.57,1.47-.58,2.04-.02.57.56.58,1.47.03,2.04-.56.57-1.47.58-2.04.03Z"/>
                  <path class="cls-11" d="M68.65,283.56c-.57-.56-.58-1.47-.02-2.04.56-.57,1.47-.58,2.04-.02.57.56.58,1.47.02,2.04-.55.57-1.47.58-2.04.02Z"/>
                  <path class="cls-11" d="M63.59,288.75c-.57-.56-.58-1.47-.03-2.04.56-.57,1.47-.58,2.04-.03.57.56.58,1.47.02,2.04-.56.57-1.47.58-2.04.02Z"/>
                  <path class="cls-11" d="M58.52,293.94c-.57-.55-.58-1.47-.02-2.04.55-.57,1.47-.58,2.04-.02.57.56.58,1.47.02,2.04-.56.57-1.47.58-2.04.02Z"/>
                  <path class="cls-11" d="M53.46,299.14c-.57-.56-.58-1.47-.02-2.04.55-.57,1.47-.58,2.04-.02.57.56.58,1.47.02,2.04-.56.57-1.47.58-2.04.02Z"/>
                  <path class="cls-11" d="M47.42,297.27c-.57-.55-.58-1.47-.02-2.04.55-.57,1.47-.58,2.04-.02.57.56.58,1.47.03,2.04-.56.57-1.47.58-2.04.03Z"/>
                  <path class="cls-11" d="M75.54,283.94c-.57-.55-.58-1.47-.03-2.04.56-.57,1.47-.58,2.04-.03.57.56.58,1.47.02,2.04-.56.57-1.47.58-2.04.02Z"/>
                  <path class="cls-11" d="M70.47,289.13c-.57-.55-.58-1.47-.03-2.04.56-.57,1.47-.58,2.04-.02.57.56.58,1.47.02,2.04-.56.57-1.47.58-2.04.02Z"/>
                  <path class="cls-11" d="M65.41,294.32c-.57-.56-.58-1.47-.03-2.04.55-.57,1.47-.58,2.04-.03.57.56.58,1.47.02,2.04-.56.57-1.47.58-2.04.02Z"/>
                  <path class="cls-11" d="M60.34,299.51c-.57-.56-.58-1.47-.02-2.04.56-.57,1.47-.58,2.04-.02.57.55.58,1.47.02,2.04-.56.57-1.47.58-2.04.03Z"/>
                  <path class="cls-11" d="M76.51,291c-.57-.56-.58-1.47-.03-2.04.56-.57,1.47-.58,2.04-.03.57.56.58,1.47.03,2.04-.56.57-1.47.58-2.04.03Z"/>
                  <path class="cls-11" d="M71.44,296.18c-.57-.55-.58-1.47-.02-2.04.56-.57,1.47-.58,2.04-.02.57.56.58,1.47.03,2.04-.56.57-1.47.58-2.04.02Z"/>
                  <path class="cls-11" d="M66.38,301.38c-.57-.56-.58-1.47-.02-2.04.55-.57,1.47-.58,2.04-.02.57.55.58,1.47.03,2.04-.56.57-1.47.58-2.04.03Z"/>
                  <path class="cls-11" d="M61.31,306.57c-.57-.55-.58-1.47-.03-2.04.56-.57,1.47-.58,2.04-.02.57.56.58,1.47.02,2.04-.55.57-1.47.58-2.04.02Z"/>
                  <path class="cls-11" d="M55.27,304.7c-.57-.56-.58-1.47-.02-2.04.55-.57,1.47-.58,2.04-.02.57.55.58,1.47.02,2.04-.56.57-1.47.58-2.04.02Z"/>
                  <path class="cls-11" d="M83.5,291.71c-.57-.55-.58-1.47-.02-2.04.56-.57,1.47-.58,2.04-.03.57.56.58,1.47.03,2.04-.56.57-1.47.58-2.04.02Z"/>
                  <path class="cls-11" d="M78.44,296.9c-.57-.56-.58-1.47-.02-2.04.56-.57,1.47-.58,2.04-.02.57.55.58,1.47.02,2.04-.56.57-1.47.58-2.04.03Z"/>
                  <path class="cls-11" d="M73.37,302.09c-.57-.56-.58-1.47-.03-2.04.56-.57,1.47-.58,2.04-.02.57.56.58,1.47.02,2.04-.56.57-1.47.58-2.04.03Z"/>
                  <path class="cls-11" d="M68.3,307.28c-.57-.56-.58-1.47-.03-2.04.56-.57,1.47-.58,2.04-.03.57.56.58,1.47.02,2.04-.55.57-1.47.58-2.04.02Z"/>
                  <path class="cls-11" d="M63.24,312.47c-.57-.56-.58-1.47-.02-2.04.56-.57,1.47-.58,2.04-.03.57.56.58,1.47.02,2.04-.55.57-1.47.58-2.04.02Z"/>
                </g>
                <g>
                  <path class="cls-24" d="M73.9,361.9c-3.47,3.56-9.17,3.63-12.73.16l-15.84-15.46c-3.56-3.48-3.63-9.18-.16-12.73l61.06-62.56c3.47-3.56,9.17-3.63,12.73-.15l15.84,15.46c3.56,3.47,3.63,9.17.15,12.73l-61.06,62.56Z"/>
                  <path class="cls-11" d="M94.09,336.11c-2,2.05-5.29,2.09-7.34.09l-15.95-15.57c-2.05-2-2.09-5.29-.09-7.34l15.57-15.95c2-2.05,5.29-2.09,7.34-.09l15.95,15.57c2.05,2.01,2.09,5.29.09,7.34l-15.57,15.95Z"/>
                  <path class="cls-24" d="M93.69,334.14c-1.8,1.84-4.76,1.88-6.6.08l-14.33-13.99c-1.84-1.8-1.88-4.76-.08-6.6l13.99-14.33c1.8-1.84,4.76-1.88,6.6-.08l14.33,13.99c1.84,1.8,1.88,4.76.08,6.6l-13.99,14.33Z"/>
                  <path class="cls-11" d="M96.25,291.8c-.56.57-1.47.58-2.04.03-.57-.56-.58-1.47-.02-2.04.56-.57,1.47-.58,2.04-.02.57.56.58,1.47.03,2.04Z"/>
                  <path class="cls-11" d="M101.44,296.86c-.55.57-1.47.58-2.04.03-.57-.56-.58-1.47-.03-2.04.56-.57,1.47-.58,2.04-.02.57.55.58,1.47.02,2.04Z"/>
                  <path class="cls-11" d="M106.63,301.93c-.56.57-1.47.58-2.04.02-.57-.56-.58-1.47-.02-2.04.56-.57,1.47-.58,2.04-.02.57.55.58,1.47.02,2.04Z"/>
                  <path class="cls-11" d="M111.82,307c-.56.57-1.47.58-2.04.03-.57-.56-.58-1.47-.02-2.04.55-.57,1.47-.58,2.04-.03.57.56.58,1.47.03,2.04Z"/>
                  <path class="cls-11" d="M103.3,290.82c-.55.57-1.47.58-2.04.03-.57-.56-.58-1.47-.03-2.04.56-.57,1.47-.58,2.04-.03.57.56.58,1.47.02,2.04Z"/>
                  <path class="cls-11" d="M108.5,295.89c-.56.57-1.47.58-2.04.03-.57-.56-.58-1.47-.03-2.04.56-.57,1.47-.58,2.04-.02.57.55.58,1.47.03,2.04Z"/>
                  <path class="cls-11" d="M113.69,300.96c-.56.57-1.47.58-2.04.03-.57-.56-.58-1.47-.02-2.04.56-.57,1.47-.58,2.04-.02.57.56.58,1.47.02,2.04Z"/>
                  <path class="cls-11" d="M118.88,306.02c-.56.57-1.47.58-2.04.03-.57-.56-.58-1.47-.03-2.04.56-.57,1.47-.58,2.04-.02.57.56.58,1.47.03,2.04Z"/>
                  <path class="cls-11" d="M117.01,312.06c-.56.57-1.47.58-2.04.02-.57-.55-.58-1.47-.02-2.04.56-.57,1.47-.58,2.04-.03.57.56.58,1.47.03,2.04Z"/>
                  <path class="cls-11" d="M103.68,283.94c-.56.57-1.47.58-2.04.02-.57-.55-.58-1.47-.03-2.04.56-.57,1.47-.58,2.04-.03.57.56.58,1.47.02,2.04Z"/>
                  <path class="cls-11" d="M108.87,289.01c-.56.57-1.47.58-2.04.02-.57-.56-.58-1.47-.03-2.04.55-.57,1.47-.58,2.04-.02.57.55.58,1.47.03,2.04Z"/>
                  <path class="cls-11" d="M114.06,294.07c-.56.57-1.47.58-2.04.03-.57-.56-.58-1.47-.02-2.04.55-.57,1.47-.58,2.04-.02.57.56.58,1.47.03,2.04Z"/>
                  <path class="cls-11" d="M119.25,299.14c-.56.57-1.47.58-2.04.02-.57-.56-.58-1.47-.03-2.04.56-.57,1.47-.58,2.04-.03.57.56.58,1.47.03,2.04Z"/>
                  <path class="cls-11" d="M110.74,282.97c-.55.57-1.47.58-2.04.03-.57-.56-.58-1.47-.03-2.04.56-.57,1.47-.58,2.04-.02.57.55.58,1.47.02,2.04Z"/>
                  <path class="cls-11" d="M115.93,288.03c-.56.57-1.47.58-2.04.02-.57-.56-.58-1.47-.02-2.04.56-.57,1.47-.58,2.04-.02.57.56.58,1.47.03,2.04Z"/>
                  <path class="cls-11" d="M121.12,293.1c-.55.57-1.47.58-2.04.02-.57-.56-.58-1.47-.02-2.04.55-.57,1.47-.58,2.04-.02.57.55.58,1.47.02,2.04Z"/>
                  <path class="cls-11" d="M126.31,298.17c-.55.57-1.47.58-2.04.03-.57-.56-.58-1.47-.03-2.04.56-.57,1.47-.58,2.04-.03.57.56.58,1.47.02,2.04Z"/>
                  <path class="cls-11" d="M124.44,304.21c-.56.57-1.47.58-2.04.02-.57-.55-.58-1.47-.02-2.04.56-.57,1.47-.58,2.04-.02.57.56.58,1.47.03,2.04Z"/>
                  <path class="cls-11" d="M111.45,275.98c-.56.57-1.47.58-2.04.02-.57-.55-.58-1.47-.02-2.04.56-.57,1.47-.58,2.04-.03.57.56.58,1.47.02,2.04Z"/>
                  <path class="cls-11" d="M116.64,281.04c-.56.57-1.47.58-2.04.02-.57-.56-.58-1.47-.03-2.04.56-.57,1.47-.58,2.04-.03.57.56.58,1.47.02,2.04Z"/>
                  <path class="cls-11" d="M121.84,286.11c-.56.57-1.47.58-2.04.02-.57-.55-.58-1.47-.03-2.04.56-.57,1.47-.58,2.04-.02.57.55.58,1.47.03,2.04Z"/>
                  <path class="cls-11" d="M127.03,291.18c-.56.57-1.47.58-2.04.03-.57-.56-.58-1.47-.02-2.04.56-.57,1.47-.58,2.04-.02.57.56.58,1.47.02,2.04Z"/>
                  <path class="cls-11" d="M132.22,296.24c-.56.57-1.47.58-2.04.02-.57-.55-.58-1.47-.02-2.04.55-.57,1.47-.58,2.04-.02.57.55.58,1.47.02,2.04Z"/>
                  <path class="cls-11" d="M49.96,338.98c-.56.57-1.47.58-2.04.02-.57-.56-.58-1.47-.02-2.04.56-.57,1.47-.58,2.04-.02.57.55.58,1.47.03,2.04Z"/>
                  <path class="cls-11" d="M55.15,344.05c-.56.57-1.47.58-2.04.03-.57-.56-.58-1.47-.02-2.04.56-.57,1.47-.58,2.04-.02.57.56.58,1.47.02,2.04Z"/>
                  <path class="cls-11" d="M60.34,349.11c-.56.57-1.47.58-2.04.02-.57-.56-.58-1.47-.02-2.04.55-.57,1.47-.58,2.04-.02.57.55.58,1.47.03,2.04Z"/>
                  <path class="cls-11" d="M65.53,354.18c-.56.57-1.47.58-2.04.02-.57-.55-.58-1.47-.03-2.04.56-.57,1.47-.58,2.04-.02.57.56.58,1.47.03,2.04Z"/>
                  <path class="cls-11" d="M57.02,338.01c-.56.57-1.47.58-2.04.02-.57-.55-.58-1.46-.02-2.04.55-.57,1.47-.58,2.04-.03.57.56.58,1.47.03,2.04Z"/>
                  <path class="cls-11" d="M62.21,343.07c-.56.57-1.47.58-2.04.03-.57-.56-.58-1.47-.03-2.04.56-.57,1.47-.58,2.04-.02.57.56.58,1.47.03,2.04Z"/>
                  <path class="cls-11" d="M67.4,348.14c-.56.57-1.47.58-2.04.02-.57-.55-.58-1.47-.02-2.04.55-.57,1.47-.58,2.04-.02.57.55.58,1.47.02,2.04Z"/>
                  <path class="cls-11" d="M72.59,353.2c-.55.57-1.47.58-2.04.03-.57-.56-.58-1.47-.03-2.04.56-.57,1.47-.58,2.04-.02.57.56.58,1.47.02,2.04Z"/>
                  <path class="cls-11" d="M70.72,359.25c-.56.57-1.47.58-2.04.02-.57-.56-.58-1.47-.02-2.04.56-.57,1.47-.58,2.04-.03.57.56.58,1.47.02,2.04Z"/>
                  <path class="cls-11" d="M57.4,331.13c-.56.57-1.47.58-2.04.02-.57-.56-.58-1.47-.03-2.04.56-.57,1.47-.58,2.04-.02.57.56.58,1.47.03,2.04Z"/>
                  <path class="cls-11" d="M62.59,336.19c-.56.57-1.47.58-2.04.03-.57-.56-.58-1.47-.02-2.04.56-.57,1.47-.58,2.04-.02.57.56.58,1.47.02,2.04Z"/>
                  <path class="cls-11" d="M67.77,341.26c-.55.57-1.47.58-2.04.03-.57-.56-.58-1.47-.02-2.04.55-.57,1.47-.58,2.04-.02.57.55.58,1.47.02,2.04Z"/>
                  <path class="cls-11" d="M72.97,346.32c-.56.57-1.47.58-2.04.03-.57-.56-.58-1.47-.03-2.04.56-.57,1.47-.58,2.04-.02.57.56.58,1.47.03,2.04Z"/>
                  <path class="cls-11" d="M64.45,330.15c-.55.57-1.47.58-2.04.02-.57-.55-.58-1.47-.03-2.04.55-.57,1.47-.58,2.04-.03.57.56.58,1.47.02,2.04Z"/>
                  <path class="cls-11" d="M69.64,335.22c-.56.57-1.47.58-2.04.02-.57-.55-.58-1.47-.02-2.04.56-.57,1.47-.58,2.04-.02.57.55.58,1.47.03,2.04Z"/>
                  <path class="cls-11" d="M74.84,340.28c-.56.57-1.47.58-2.04.02-.57-.55-.58-1.47-.03-2.04.55-.57,1.47-.58,2.04-.02.57.56.58,1.47.03,2.04Z"/>
                  <path class="cls-11" d="M80.02,345.35c-.55.57-1.47.58-2.04.02-.57-.56-.58-1.47-.02-2.04.55-.57,1.47-.58,2.04-.02.57.55.58,1.47.02,2.04Z"/>
                  <path class="cls-11" d="M78.16,351.39c-.56.57-1.47.58-2.04.02-.57-.55-.58-1.47-.02-2.04.56-.57,1.47-.58,2.04-.02.57.56.58,1.47.03,2.04Z"/>
                  <path class="cls-11" d="M65.17,323.16c-.56.57-1.47.58-2.04.02-.57-.56-.58-1.47-.02-2.04.55-.57,1.47-.58,2.04-.02.57.55.58,1.47.03,2.04Z"/>
                  <path class="cls-11" d="M70.36,328.23c-.56.57-1.47.58-2.04.02-.57-.55-.58-1.47-.03-2.04.56-.57,1.47-.58,2.04-.02.57.56.58,1.47.03,2.04Z"/>
                  <path class="cls-11" d="M75.55,333.29c-.56.57-1.47.58-2.04.03s-.58-1.47-.02-2.04c.55-.57,1.47-.58,2.04-.02.57.56.58,1.47.03,2.04Z"/>
                  <path class="cls-11" d="M80.74,338.36c-.56.57-1.47.58-2.04.02-.57-.55-.58-1.47-.03-2.04.56-.57,1.47-.58,2.04-.02.57.56.58,1.47.02,2.04Z"/>
                  <path class="cls-11" d="M85.93,343.42c-.56.57-1.47.58-2.04.02-.57-.56-.58-1.47-.03-2.04.56-.57,1.47-.58,2.04-.03.57.56.58,1.47.03,2.04Z"/>
                </g>
              </g>
              <g class="cls-4">
                <g>
                  <path class="cls-21" d="M135.36,332.77l-46.01-44.9v56.09l17.97,17.54c3.56,3.47,9.26,3.4,12.73-.15l15.46-15.84c3.47-3.56,3.4-9.26-.16-12.73Z"/>
                  <path class="cls-21" d="M109.33,312.81l-15.95-15.57c-1.11-1.09-2.59-1.55-4.03-1.44v41.8c1.6.24,3.29-.25,4.5-1.49l15.57-15.95c2-2.05,1.96-5.34-.09-7.35Z"/>
                  <path class="cls-21" d="M107.36,313.21l-14.33-13.99c-1.02-.99-2.37-1.41-3.68-1.29v37.55c1.45.24,3-.2,4.1-1.34l13.99-14.34c1.8-1.84,1.76-4.8-.08-6.6Z"/>
                  <path class="cls-21" d="M114.86,322.79c-.57-.55-.58-1.47-.02-2.04.56-.57,1.47-.58,2.04-.03.57.56.58,1.47.03,2.04-.56.57-1.47.58-2.04.02Z"/>
                  <path class="cls-21" d="M109.8,327.98c-.57-.56-.58-1.47-.02-2.04.56-.57,1.47-.58,2.04-.03.57.56.58,1.47.02,2.04-.56.57-1.47.58-2.04.02Z"/>
                  <path class="cls-21" d="M104.73,333.17c-.57-.56-.58-1.47-.03-2.04.56-.57,1.47-.58,2.04-.02.57.56.58,1.47.02,2.04-.55.57-1.47.58-2.04.02Z"/>
                  <path class="cls-21" d="M99.67,338.36c-.57-.55-.58-1.47-.03-2.04.56-.57,1.47-.58,2.04-.02.57.56.58,1.47.03,2.04-.56.57-1.47.58-2.04.02Z"/>
                  <path class="cls-21" d="M115.84,329.85c-.57-.56-.58-1.47-.02-2.04.56-.57,1.47-.58,2.04-.03.57.56.58,1.47.02,2.04-.56.57-1.47.58-2.04.03Z"/>
                  <path class="cls-21" d="M110.77,335.04c-.57-.55-.58-1.47-.03-2.04.56-.57,1.47-.58,2.04-.02.57.55.58,1.47.02,2.04-.55.57-1.47.58-2.04.02Z"/>
                  <path class="cls-21" d="M105.71,340.23c-.57-.56-.58-1.47-.03-2.04.56-.57,1.47-.58,2.04-.02.57.56.58,1.47.03,2.04-.56.57-1.47.58-2.04.02Z"/>
                  <path class="cls-21" d="M100.64,345.42c-.57-.55-.58-1.47-.02-2.04.56-.57,1.47-.58,2.04-.02.57.56.58,1.47.03,2.04-.56.57-1.47.58-2.04.02Z"/>
                  <path class="cls-21" d="M94.6,343.55c-.57-.56-.58-1.47-.02-2.04.55-.57,1.47-.58,2.04-.02.57.55.58,1.47.03,2.04-.56.57-1.47.58-2.04.03Z"/>
                  <path class="cls-21" d="M122.72,330.22c-.57-.56-.58-1.47-.02-2.04.56-.57,1.47-.58,2.04-.02.57.56.58,1.47.02,2.04-.56.57-1.47.58-2.04.03Z"/>
                  <path class="cls-21" d="M117.65,335.41c-.57-.55-.58-1.47-.02-2.04.56-.57,1.47-.58,2.04-.02.57.55.58,1.47.02,2.04-.55.57-1.47.58-2.04.02Z"/>
                  <path class="cls-21" d="M112.59,340.6c-.57-.56-.58-1.47-.02-2.04.55-.57,1.47-.58,2.04-.02.57.56.58,1.47.03,2.04-.56.57-1.47.58-2.04.03Z"/>
                  <path class="cls-21" d="M107.52,345.79c-.57-.55-.58-1.47-.02-2.04.56-.57,1.47-.58,2.04-.03.57.56.58,1.47.03,2.04-.56.57-1.47.58-2.04.02Z"/>
                  <path class="cls-21" d="M123.69,337.28c-.57-.56-.58-1.47-.02-2.04.56-.57,1.47-.58,2.04-.02.57.56.58,1.47.02,2.04-.55.57-1.47.58-2.04.03Z"/>
                  <path class="cls-21" d="M118.63,342.47c-.57-.55-.58-1.47-.02-2.04.56-.57,1.47-.58,2.04-.02.57.56.58,1.47.03,2.04-.56.57-1.47.58-2.04.02Z"/>
                  <path class="cls-21" d="M113.56,347.66c-.57-.56-.58-1.47-.03-2.04.56-.57,1.47-.58,2.04-.03.57.56.58,1.47.02,2.04-.56.57-1.47.58-2.04.02Z"/>
                  <path class="cls-21" d="M108.5,352.85c-.57-.56-.58-1.47-.02-2.04.56-.57,1.47-.58,2.04-.02.57.56.58,1.47.03,2.04-.56.57-1.47.58-2.04.03Z"/>
                  <path class="cls-21" d="M102.46,350.99c-.57-.56-.58-1.47-.03-2.04.56-.57,1.47-.58,2.04-.02.57.56.58,1.47.03,2.04-.56.57-1.47.58-2.04.02Z"/>
                  <path class="cls-21" d="M130.69,338c-.57-.56-.58-1.47-.03-2.04.56-.57,1.47-.58,2.04-.03.57.56.58,1.47.02,2.04-.55.57-1.47.58-2.04.03Z"/>
                  <path class="cls-21" d="M125.62,343.19c-.57-.55-.58-1.47-.02-2.04.56-.57,1.47-.58,2.04-.03.57.56.58,1.47.03,2.04-.56.57-1.47.58-2.04.02Z"/>
                  <path class="cls-21" d="M120.55,348.38c-.57-.56-.58-1.47-.03-2.04.55-.57,1.47-.58,2.04-.02.57.55.58,1.47.02,2.04-.56.57-1.47.58-2.04.03Z"/>
                  <path class="cls-21" d="M115.49,353.57c-.57-.55-.58-1.47-.03-2.04.56-.57,1.47-.58,2.04-.02.57.56.58,1.47.02,2.04-.56.57-1.47.58-2.04.02Z"/>
                  <path class="cls-21" d="M110.42,358.76c-.57-.56-.58-1.47-.02-2.04.55-.57,1.47-.58,2.04-.02.57.56.58,1.47.02,2.04-.55.57-1.47.58-2.04.03Z"/>
                </g>
                <g>
                  <path class="cls-21" d="M134.8,286.61l-15.84-15.46c-3.56-3.47-9.26-3.4-12.73.15l-16.87,17.29v57.47l45.6-46.72c3.47-3.56,3.4-9.26-.15-12.73Z"/>
                  <path class="cls-21" d="M109.57,312.81l-15.95-15.57c-1.18-1.15-2.75-1.6-4.27-1.41v41.74c1.67.34,3.46-.15,4.74-1.46l15.57-15.95c2-2.05,1.96-5.34-.09-7.34Z"/>
                  <path class="cls-21" d="M107.6,313.21l-14.33-13.99c-1.08-1.05-2.53-1.46-3.92-1.26v37.47c1.52.33,3.17-.09,4.34-1.28l13.99-14.33c1.8-1.84,1.76-4.8-.08-6.6Z"/>
                  <path class="cls-21" d="M96.25,291.8c-.56.57-1.47.58-2.04.03-.57-.56-.58-1.47-.02-2.04.56-.57,1.47-.58,2.04-.02.57.56.58,1.47.03,2.04Z"/>
                  <path class="cls-21" d="M101.44,296.86c-.55.57-1.47.58-2.04.03-.57-.56-.58-1.47-.03-2.04.56-.57,1.47-.58,2.04-.02.57.55.58,1.47.02,2.04Z"/>
                  <path class="cls-21" d="M106.63,301.93c-.56.57-1.47.58-2.04.02-.57-.56-.58-1.47-.02-2.04.56-.57,1.47-.58,2.04-.02.57.55.58,1.47.02,2.04Z"/>
                  <path class="cls-21" d="M111.82,307c-.56.57-1.47.58-2.04.02-.57-.55-.58-1.47-.02-2.04.55-.57,1.47-.58,2.04-.03.57.56.58,1.47.03,2.04Z"/>
                  <path class="cls-21" d="M103.3,290.82c-.55.57-1.47.58-2.04.02-.57-.55-.58-1.47-.03-2.04.56-.57,1.47-.58,2.04-.03.57.56.58,1.47.02,2.04Z"/>
                  <path class="cls-21" d="M108.5,295.89c-.56.57-1.47.58-2.04.03-.57-.56-.58-1.47-.03-2.04.56-.57,1.47-.58,2.04-.02.57.56.58,1.47.03,2.04Z"/>
                  <path class="cls-21" d="M113.69,300.96c-.56.57-1.47.58-2.04.02-.57-.56-.58-1.47-.02-2.04.56-.57,1.47-.58,2.04-.02.57.56.58,1.47.02,2.04Z"/>
                  <path class="cls-21" d="M118.88,306.02c-.56.57-1.47.58-2.04.03-.57-.56-.58-1.47-.03-2.04.56-.57,1.47-.58,2.04-.02.57.56.58,1.47.03,2.04Z"/>
                  <path class="cls-21" d="M117.01,312.06c-.56.57-1.47.58-2.04.02-.57-.55-.58-1.47-.02-2.04.56-.57,1.47-.58,2.04-.03.57.56.58,1.47.03,2.04Z"/>
                  <path class="cls-21" d="M103.68,283.94c-.56.57-1.47.58-2.04.02-.57-.55-.58-1.47-.03-2.04.56-.57,1.47-.58,2.04-.02.57.56.58,1.47.02,2.04Z"/>
                  <path class="cls-21" d="M108.87,289.01c-.56.57-1.47.58-2.04.02-.57-.56-.58-1.47-.03-2.04.55-.57,1.47-.58,2.04-.02.57.55.58,1.47.03,2.04Z"/>
                  <path class="cls-21" d="M114.06,294.07c-.56.57-1.47.58-2.04.02-.57-.55-.58-1.47-.02-2.04.55-.57,1.47-.58,2.04-.02.57.56.58,1.47.03,2.04Z"/>
                  <path class="cls-21" d="M119.25,299.14c-.56.57-1.47.58-2.04.02-.57-.56-.58-1.47-.03-2.04.56-.57,1.47-.58,2.04-.03.57.56.58,1.47.03,2.04Z"/>
                  <path class="cls-21" d="M110.74,282.97c-.55.57-1.47.58-2.04.03-.57-.56-.58-1.47-.03-2.04.56-.57,1.47-.58,2.04-.02.57.56.58,1.47.02,2.04Z"/>
                  <path class="cls-21" d="M115.93,288.03c-.56.57-1.47.58-2.04.02-.57-.56-.58-1.47-.02-2.04.56-.57,1.47-.58,2.04-.02.57.56.58,1.47.03,2.04Z"/>
                  <path class="cls-21" d="M121.12,293.1c-.55.57-1.47.58-2.04.02-.57-.55-.58-1.47-.02-2.04.55-.57,1.47-.58,2.04-.02.57.56.58,1.47.02,2.04Z"/>
                  <path class="cls-21" d="M126.31,298.17c-.55.57-1.47.58-2.04.02-.57-.56-.58-1.47-.03-2.04.56-.57,1.47-.58,2.04-.03.57.56.58,1.47.02,2.04Z"/>
                  <path class="cls-21" d="M124.44,304.21c-.56.57-1.47.58-2.04.02-.57-.55-.58-1.47-.02-2.04.56-.57,1.47-.58,2.04-.02.57.56.58,1.47.03,2.04Z"/>
                  <path class="cls-21" d="M111.45,275.98c-.56.57-1.47.58-2.04.02-.57-.55-.58-1.47-.02-2.04.56-.57,1.47-.58,2.04-.03.57.56.58,1.47.02,2.04Z"/>
                  <path class="cls-21" d="M116.64,281.04c-.56.57-1.47.58-2.04.02-.57-.56-.58-1.47-.03-2.04.56-.57,1.47-.58,2.04-.02.57.56.58,1.47.02,2.04Z"/>
                  <path class="cls-21" d="M121.84,286.11c-.56.57-1.47.58-2.04.02-.57-.55-.58-1.47-.03-2.04.56-.57,1.47-.58,2.04-.02.57.55.58,1.47.03,2.04Z"/>
                  <path class="cls-21" d="M127.03,291.17c-.56.57-1.47.58-2.04.03-.57-.56-.58-1.47-.02-2.04.56-.57,1.47-.58,2.04-.02.57.56.58,1.47.02,2.04Z"/>
                  <path class="cls-21" d="M132.22,296.24c-.56.57-1.47.58-2.04.02-.57-.55-.58-1.47-.02-2.04.55-.57,1.47-.58,2.04-.02.57.55.58,1.47.02,2.04Z"/>
                </g>
              </g>
            </g>
          </g>
          <g>
            <g>
              <path class="cls-16" d="M347.86,365c0,1.69-6.36,3.06-14.21,3.06s-14.21-1.37-14.21-3.06,6.36-3.07,14.21-3.07,14.21,1.37,14.21,3.07Z"/>
              <path class="cls-16" d="M346.74,365c0,1.56-5.86,2.82-13.09,2.82s-13.09-1.26-13.09-2.82,5.86-2.82,13.09-2.82,13.09,1.26,13.09,2.82Z"/>
              <path class="cls-16" d="M353.29,365c0,2.34-8.79,4.24-19.64,4.24s-19.64-1.9-19.64-4.24,8.79-4.24,19.64-4.24,19.64,1.9,19.64,4.24Z"/>
              <path class="cls-16" d="M351.73,365c0,2.15-8.09,3.9-18.08,3.9s-18.08-1.75-18.08-3.9,8.1-3.9,18.08-3.9,18.08,1.75,18.08,3.9Z"/>
              <path class="cls-16" d="M350.42,365c0,2-7.51,3.62-16.77,3.62s-16.77-1.62-16.77-3.62,7.51-3.62,16.77-3.62,16.77,1.62,16.77,3.62Z"/>
              <path class="cls-16" d="M348.99,365c0,1.83-6.87,3.31-15.33,3.31s-15.33-1.48-15.33-3.31,6.87-3.31,15.33-3.31,15.33,1.48,15.33,3.31Z"/>
              <path class="cls-16" d="M340,365c0,.76-2.84,1.37-6.35,1.37s-6.35-.61-6.35-1.37,2.84-1.37,6.35-1.37,6.35.61,6.35,1.37Z"/>
              <path class="cls-16" d="M339.5,365c0,.7-2.62,1.26-5.84,1.26s-5.84-.56-5.84-1.26,2.62-1.26,5.84-1.26,5.84.56,5.84,1.26Z"/>
              <path class="cls-16" d="M339.07,365c0,.65-2.43,1.17-5.42,1.17s-5.42-.52-5.42-1.17,2.42-1.17,5.42-1.17,5.42.52,5.42,1.17Z"/>
              <path class="cls-16" d="M338.61,365c0,.59-2.22,1.07-4.96,1.07s-4.96-.48-4.96-1.07,2.22-1.07,4.96-1.07,4.96.48,4.96,1.07Z"/>
              <path class="cls-16" d="M342.36,365c0,1.04-3.9,1.88-8.71,1.88s-8.71-.84-8.71-1.88,3.9-1.88,8.71-1.88,8.71.84,8.71,1.88Z"/>
              <path class="cls-16" d="M341.67,365c0,.95-3.59,1.73-8.02,1.73s-8.02-.77-8.02-1.73,3.59-1.73,8.02-1.73,8.02.77,8.02,1.73Z"/>
              <path class="cls-16" d="M341.08,365c0,.88-3.33,1.6-7.43,1.6s-7.43-.72-7.43-1.6,3.33-1.6,7.43-1.6,7.43.72,7.43,1.6Z"/>
              <path class="cls-16" d="M340.45,365c0,.81-3.04,1.47-6.8,1.47s-6.8-.66-6.8-1.47,3.04-1.47,6.8-1.47,6.8.66,6.8,1.47Z"/>
              <path class="cls-16" d="M345.68,365c0,1.43-5.38,2.59-12.03,2.59s-12.03-1.16-12.03-2.59,5.38-2.6,12.03-2.6,12.03,1.16,12.03,2.6Z"/>
              <path class="cls-16" d="M344.73,365c0,1.32-4.96,2.39-11.08,2.39s-11.08-1.07-11.08-2.39,4.96-2.39,11.08-2.39,11.08,1.07,11.08,2.39Z"/>
              <path class="cls-16" d="M343.92,365c0,1.22-4.6,2.21-10.27,2.21s-10.27-.99-10.27-2.21,4.6-2.22,10.27-2.22,10.27.99,10.27,2.22Z"/>
              <path class="cls-16" d="M343.04,365c0,1.12-4.21,2.03-9.39,2.03s-9.39-.91-9.39-2.03,4.21-2.03,9.39-2.03,9.39.91,9.39,2.03Z"/>
              <path class="cls-16" d="M338.03,365c0,.52-1.96.94-4.38.94s-4.38-.42-4.38-.94,1.96-.94,4.38-.94,4.38.42,4.38.94Z"/>
              <path class="cls-16" d="M337.64,365c0,.47-1.79.86-3.99.86s-3.99-.38-3.99-.86,1.79-.86,3.99-.86,3.99.39,3.99.86Z"/>
              <path class="cls-16" d="M337.37,365c0,.44-1.66.8-3.72.8s-3.72-.36-3.72-.8,1.66-.8,3.72-.8,3.72.36,3.72.8Z"/>
              <path class="cls-16" d="M337.08,365c0,.41-1.53.74-3.43.74s-3.43-.33-3.43-.74,1.54-.74,3.43-.74,3.43.33,3.43.74Z"/>
              <path class="cls-16" d="M336.83,365c0,.38-1.42.68-3.18.68s-3.18-.31-3.18-.68,1.42-.69,3.18-.69,3.18.31,3.18.69Z"/>
              <path class="cls-16" d="M336.56,365c0,.35-1.3.63-2.9.63s-2.9-.28-2.9-.63,1.3-.63,2.9-.63,2.9.28,2.9.63Z"/>
              <path class="cls-16" d="M336.22,365c0,.31-1.15.55-2.56.55s-2.56-.25-2.56-.55,1.15-.55,2.56-.55,2.56.25,2.56.55Z"/>
              <path class="cls-16" d="M335.99,365c0,.28-1.05.5-2.34.5s-2.34-.23-2.34-.5,1.04-.5,2.34-.5,2.34.23,2.34.5Z"/>
              <path class="cls-16" d="M335.99,365c0,.28-1.05.5-2.34.5s-2.34-.23-2.34-.5,1.04-.5,2.34-.5,2.34.23,2.34.5Z"/>
              <path class="cls-16" d="M335.8,365c0,.26-.96.46-2.15.46s-2.15-.21-2.15-.46.96-.46,2.15-.46,2.15.21,2.15.46Z"/>
              <path class="cls-16" d="M335.65,365c0,.24-.89.43-2,.43s-2-.19-2-.43.89-.43,2-.43,2,.19,2,.43Z"/>
              <path class="cls-16" d="M335.48,365c0,.22-.82.39-1.83.39s-1.83-.18-1.83-.39.82-.39,1.83-.39,1.83.18,1.83.39Z"/>
              <path class="cls-16" d="M335.26,365c0,.19-.72.35-1.61.35s-1.61-.16-1.61-.35.72-.35,1.61-.35,1.61.16,1.61.35Z"/>
              <path class="cls-16" d="M335.12,365c0,.17-.66.32-1.47.32s-1.47-.14-1.47-.32.66-.32,1.47-.32,1.47.14,1.47.32Z"/>
              <path class="cls-16" d="M335.02,365c0,.16-.62.3-1.37.3s-1.37-.13-1.37-.3.62-.3,1.37-.3,1.37.13,1.37.3Z"/>
              <path class="cls-16" d="M334.91,365c0,.15-.56.27-1.26.27s-1.26-.12-1.26-.27.56-.27,1.26-.27,1.26.12,1.26.27Z"/>
              <path class="cls-16" d="M334.82,365c0,.14-.52.25-1.17.25s-1.17-.11-1.17-.25.52-.25,1.17-.25,1.17.11,1.17.25Z"/>
              <path class="cls-16" d="M334.72,365c0,.13-.48.23-1.07.23s-1.07-.1-1.07-.23.48-.23,1.07-.23,1.07.1,1.07.23Z"/>
              <path class="cls-16" d="M334.6,365c0,.11-.42.2-.95.2s-.95-.09-.95-.2.42-.2.95-.2.95.09.95.2Z"/>
              <path class="cls-16" d="M334.51,365c0,.1-.39.18-.86.18s-.86-.08-.86-.18.39-.19.86-.19.86.08.86.19Z"/>
              <path class="cls-16" d="M334.39,365c0,.09-.33.16-.74.16s-.74-.07-.74-.16.33-.16.74-.16.74.07.74.16Z"/>
              <path class="cls-16" d="M334.26,365c0,.07-.27.13-.61.13s-.61-.06-.61-.13.27-.13.61-.13.61.06.61.13Z"/>
              <path class="cls-16" d="M334.07,365s-.19.09-.42.09-.42-.04-.42-.09.19-.09.42-.09.42.04.42.09Z"/>
              <path class="cls-16" d="M333.94,365s-.13.06-.29.06-.29-.03-.29-.06.13-.06.29-.06.29.03.29.06Z"/>
            </g>
            <g>
              <g>
                <path class="cls-10" d="M325.83,329.59l5.98-15.49,6.17,23.59,7.16-34.03,4.79,26.16,24.89-.15c4.59-7.23,7.72-15.22,7.94-23.69,2.03-29.49-43.75-32.08-48.35-1.54-1.82-28.48-47.54-33.34-48.35-1.53-.24,9.44,3.15,18.5,8.2,26.68h31.56Z"/>
                <path class="cls-10" d="M346.37,334.12l-1.51-8.28-6.42,30.49-7.41-28.31-2.26,5.85h-31.66c13.83,19.48,35.71,33.03,35.71,33.03,0,0,24.35-13.12,39.05-32.94l-25.5.16Z"/>
              </g>
              <g class="cls-4">
                <path class="cls-14" d="M335.09,301.6v25.36l2.9,11.09,7.16-34.03,4.79,26.16,24.89-.15c4.59-7.23,7.72-15.22,7.94-23.69,1.95-28.42-40.48-31.85-47.69-4.73Z"/>
                <path class="cls-14" d="M346.37,334.48l-1.51-8.28-6.42,30.49-3.35-12.81v22.09c6.37-3.76,24.79-15.47,36.79-31.64l-25.5.16Z"/>
              </g>
            </g>
          </g>
        </g>
      </g>
    </g>
  </g>
</svg>