<?xml version="1.0" encoding="UTF-8"?><svg id="uuid-3e9ebcc3-777e-465b-bb3f-403c9aade235" xmlns="http://www.w3.org/2000/svg" viewBox="0 0 735.82 700.4"><defs><style>.uuid-1371e903-8e89-48d8-8e00-d583e276cad2{fill:#0e74bb;}.uuid-a2deeb77-7e18-43ed-964d-011e74de6243{fill:#fff;}.uuid-c7eae1ff-50be-4cc3-b689-5bfd7c866415{fill:#080717;}.uuid-afff6f37-b367-4040-a976-40178e5ee835{fill:#1d1d1b;}</style></defs><path class="uuid-c7eae1ff-50be-4cc3-b689-5bfd7c866415" d="M262.79,555.3v-102.16c0-43.74-9.5-86.95-27.82-126.58l-45.27-97.92h0c-14.98,16.78-21.13,39.77-16.53,61.89l17.67,85.04c2.44,11.72-11.7,19.49-20.12,11.04l-45.81-45.94-84.91,86.64,98.74,129.22v99.09h124.06v-100.31Z"/><path class="uuid-1371e903-8e89-48d8-8e00-d583e276cad2" d="M520.29,268.02v-80.31h-44.78c-4.6-20.13-12.53-38.95-23.22-55.91l31.71-31.72-56.78-56.78-31.71,31.72c-16.96-10.69-35.78-18.65-55.92-23.23V7h-80.31v44.78c-20.14,4.58-38.96,12.54-55.92,23.23l-31.71-31.72-56.78,56.78,31.71,31.72c-10.69,16.96-18.64,35.78-23.22,55.91h-44.78v80.31h44.78c4.58,20.14,12.53,38.96,23.22,55.92l-31.71,31.72,56.78,56.78,31.71-31.72c16.96,10.68,35.78,18.66,55.92,23.23v44.78h80.31v-44.78c20.14-4.57,38.96-12.55,55.92-23.23l31.71,31.72,56.78-56.78-31.71-31.72c10.69-16.96,18.62-35.78,23.22-55.92h44.78ZM299.42,288.1c-33.26,0-60.24-26.96-60.24-60.24s26.97-60.24,60.24-60.24,60.24,26.97,60.24,60.24-26.97,60.24-60.24,60.24Z"/><path class="uuid-a2deeb77-7e18-43ed-964d-011e74de6243" d="M299.43,336.91c-60.13,0-109.05-48.92-109.05-109.05s48.92-109.05,109.05-109.05,109.05,48.92,109.05,109.05-48.92,109.05-109.05,109.05ZM299.43,126.29c-56,0-101.57,45.56-101.57,101.57s45.56,101.57,101.57,101.57,101.57-45.56,101.57-101.57-45.56-101.57-101.57-101.57Z"/><ellipse class="uuid-c7eae1ff-50be-4cc3-b689-5bfd7c866415" cx="556.4" cy="653.44" rx="134.13" ry="36.76"/><path class="uuid-a2deeb77-7e18-43ed-964d-011e74de6243" d="M618.95,656.17l31.98-204.12c13.11,4.77,27.56,4.43,40.42-1.05h0c18.7-7.96,31.51-25.57,33.32-45.81l7.93-88.59c1.34-15.01-3.68-29.9-13.84-41.03l-6.78-7.43-9.19-22.7c-5.28-13.05-19.37-20.22-33.03-16.81l-49.41,12.35c-8.71,2.18-17-4.81-16.33-13.76l7.74-103.73c.93-12.48-8.95-23.12-21.46-23.12h0c-10.39,0-19.3,7.43-21.17,17.65l-19.23,105.14c-5.02,27.46-6.26,55.43-3.74,83.14l-96.5,349.85,10.8,2.02c52.44,9.8,106.31,9.12,158.48-2.02h0Z"/><path class="uuid-c7eae1ff-50be-4cc3-b689-5bfd7c866415" d="M534.72,668.12c-24.97,0-49.95-2.32-74.81-6.97l-10.8-2.02c-.83-.16-1.55-.65-2-1.36-.45-.71-.57-1.58-.35-2.39l96.35-349.32c-2.49-27.86-1.2-55.92,3.83-83.41l19.23-105.14c2.13-11.66,12.28-20.12,24.13-20.12,6.8,0,13.35,2.86,17.98,7.84,4.62,4.98,6.99,11.73,6.48,18.51l-7.74,103.73c-.24,3.29,1.06,6.4,3.59,8.53,2.53,2.13,5.81,2.89,9.01,2.09l49.41-12.35c15.01-3.77,30.74,4.24,36.55,18.6l8.99,22.19,6.41,7.03c10.7,11.72,16.03,27.51,14.62,43.32l-7.94,88.59c-1.92,21.39-15.38,39.91-35.14,48.31-12.45,5.3-26.23,6.07-39.17,2.24l-31.43,200.62c-.19,1.23-1.13,2.22-2.34,2.48-28.11,6-56.47,9-84.86,9ZM453.43,653.82l7.59,1.42c51.64,9.65,103.87,9.12,155.28-1.57l31.65-202.06c.14-.89.67-1.67,1.44-2.13.78-.45,1.71-.55,2.56-.23,12.48,4.53,26.05,4.18,38.21-.99,17.72-7.54,29.79-24.13,31.51-43.31l7.94-88.59c1.26-14.14-3.5-28.25-13.07-38.73l-6.78-7.43c-.24-.26-.43-.57-.57-.9l-9.19-22.7c-4.69-11.59-17.38-18.04-29.52-15.02l-49.41,12.35c-5.1,1.28-10.33.07-14.35-3.32-4.02-3.38-6.1-8.34-5.71-13.58l7.74-103.73c.39-5.19-1.35-10.15-4.89-13.97-3.54-3.82-8.36-5.92-13.57-5.92-8.94,0-16.6,6.38-18.21,15.18l-19.23,105.14c-4.96,27.13-6.21,54.83-3.7,82.33.03.36,0,.73-.1,1.07l-95.63,346.69ZM618.95,656.17h.03-.03Z"/><path class="uuid-c7eae1ff-50be-4cc3-b689-5bfd7c866415" d="M650.06,454.78c-.36,0-.72-.06-1.08-.2l-63.33-24.23c-25.02-9.58-40.54-34.87-37.73-61.52l1.92-18.31-3.11-17.34c-.29-1.64.8-3.2,2.43-3.49,1.63-.29,3.2.8,3.49,2.43l3.18,17.76c.05.28.06.56.03.85l-1.97,18.74c-2.52,23.94,11.42,46.67,33.9,55.27l63.33,24.23c1.55.59,2.33,2.33,1.73,3.88-.46,1.2-1.6,1.93-2.81,1.93Z"/><path class="uuid-c7eae1ff-50be-4cc3-b689-5bfd7c866415" d="M599.33,363.16c-5.92,0-11.24-3.82-13.05-9.61l-6.54-20.88c-1.12-3.58-.75-7.36,1.05-10.65,1.79-3.29,4.77-5.65,8.39-6.65l14.98-4.63c1.59-.48,3.27.4,3.76,1.98.49,1.59-.4,3.27-1.98,3.76l-15.07,4.66c-2.12.58-3.79,1.91-4.79,3.75-1.01,1.85-1.22,3.97-.59,5.97l6.54,20.88c1.12,3.58,4.62,5.81,8.34,5.32l80.91-10.72c1.64-.22,3.16.94,3.38,2.59.22,1.65-.94,3.16-2.59,3.38l-80.91,10.72c-.61.08-1.23.12-1.83.12Z"/><path class="uuid-c7eae1ff-50be-4cc3-b689-5bfd7c866415" d="M608.55,405.27c-6.15,0-11.54-3.9-13.45-9.77l-6.45-19.79c-1.34-4.1-.75-8.53,1.62-12.14,2.37-3.61,6.19-5.92,10.49-6.33l5.96-.72c1.67-.19,3.15.98,3.35,2.63.2,1.65-.98,3.15-2.63,3.35l-6.04.73c-2.55.24-4.75,1.57-6.11,3.64-1.36,2.07-1.7,4.62-.93,6.98l6.45,19.79c1.11,3.41,4.33,5.64,7.84,5.61l72.97-.97h.04c1.64,0,2.99,1.32,3.01,2.97.02,1.66-1.31,3.03-2.97,3.05l-72.97.97h-.19Z"/><path class="uuid-c7eae1ff-50be-4cc3-b689-5bfd7c866415" d="M592.38,319.48c-6.39,0-12.3-4.24-14.09-10.65l-4.57-16.3c-1.87-6.65,1.23-13.77,7.37-16.93,70.64-36.35,72.53-36.35,73.67-36.35,1.66,0,3.01,1.35,3.01,3.01,0,1.5-1.09,2.74-2.53,2.97-3.26,1.05-30.52,14.68-71.4,35.72-3.61,1.85-5.43,6.04-4.33,9.95l4.57,16.3c1.26,4.5,5.95,7.18,10.47,5.98l74.45-19.79c1.61-.42,3.25.53,3.68,2.14.43,1.6-.53,3.25-2.14,3.68l-74.45,19.79c-1.24.33-2.49.48-3.71.48Z"/><path class="uuid-c7eae1ff-50be-4cc3-b689-5bfd7c866415" d="M672.29,449.36c-.28,0-.57-.04-.85-.12l-61.9-18.24c-3.22-.95-5.75-3.56-6.6-6.8l-3.37-12.87c-.75-2.86-.16-5.86,1.61-8.22,1.77-2.37,4.48-3.77,7.44-3.85,1.6.07,3.05,1.26,3.09,2.92.05,1.66-1.26,3.05-2.92,3.09-1.11.03-2.13.56-2.79,1.45-.66.89-.88,2.01-.6,3.09l3.37,12.87c.32,1.22,1.27,2.19,2.48,2.55l61.9,18.24c1.6.47,2.51,2.14,2.04,3.73-.39,1.31-1.58,2.16-2.89,2.16Z"/><path class="uuid-c7eae1ff-50be-4cc3-b689-5bfd7c866415" d="M615.57,431.82c-1.48,0-2.77-1.09-2.98-2.59l-20.47-147.07c-.23-1.65.92-3.16,2.56-3.39,1.63-.25,3.16.92,3.39,2.56l20.47,147.07c.23,1.65-.92,3.16-2.57,3.39-.14.02-.28.03-.42.03Z"/><ellipse class="uuid-c7eae1ff-50be-4cc3-b689-5bfd7c866415" cx="196.73" cy="663.63" rx="102.94" ry="36.76"/><path class="uuid-c7eae1ff-50be-4cc3-b689-5bfd7c866415" d="M86.52,362.83l-42.48-126.04,49.24-72.2h0c11.84,14.67,13.9,34.94,5.26,51.69l-12.02,23.3,43.87,102.37-43.87,20.89Z"/><path class="uuid-a2deeb77-7e18-43ed-964d-011e74de6243" d="M208.99,678.34l3.13-177.31h-.49c-1.67-17.75-10.76-34.77-26.74-45.99-10.95-7.68-24.19-11.43-37.57-11.43h-55.05s28.2-28.2,28.2-28.2l23.85-7.5,2.55-.8c2.51-.79,4.9-1.82,7.17-3.02,7.43-3.93,13.49-9.9,17.5-17.11,3.1-5.59,4.98-11.91,5.33-18.57h0l-73.64,10.97-35.12,21.18,44.86-42.59,56.36-6.66c18.86-2.23,33.8-16.99,36.26-35.82l-110.03,8.36-16.71,12.83v-40.68l54.31-17.67c20.46-6.66,35.32-24.39,38.31-45.7l-135.79,34.82v152.68h0v26.64h0l83.96,94.47c1.93,1.86,3.99,3.52,6.09,5.09v109.31h0c19.01,14.74,42.38,22.73,66.43,22.73h16.81Z"/><path class="uuid-c7eae1ff-50be-4cc3-b689-5bfd7c866415" d="M208.99,681.35h-16.81c-24.59,0-48.84-8.3-68.28-23.36-.74-.57-1.17-1.45-1.17-2.38v-107.81c-1.99-1.53-3.65-2.96-5.18-4.42l-84.11-94.63c-.49-.55-.76-1.26-.76-2v-179.31c0-1.37.93-2.57,2.26-2.91l135.79-34.82c.97-.24,2.01,0,2.75.67.75.67,1.11,1.67.98,2.66-3.12,22.28-18.96,41.18-40.36,48.14l-52.23,17v32.39l11.87-9.11c.46-.36,1.02-.57,1.6-.61l110.02-8.36c.91-.06,1.79.27,2.41.93.62.66.92,1.56.8,2.46-2.64,20.23-18.63,36.03-38.89,38.42l-55.36,6.54-24.08,22.86,11.43-6.9c.34-.21.72-.34,1.11-.4l73.64-10.97c.89-.13,1.8.14,2.47.75.67.61,1.03,1.48.98,2.39-.36,6.93-2.34,13.8-5.71,19.87-4.33,7.79-10.8,14.13-18.72,18.31-2.54,1.34-5.12,2.43-7.67,3.23l-25.69,8.08-22.55,22.54h47.79c14.54,0,28.13,4.14,39.29,11.98,15.53,10.89,25.61,27.79,27.84,46.55.44.55.68,1.24.67,1.95l-3.13,177.31c-.03,1.64-1.37,2.96-3.01,2.96ZM128.75,654.12c18.19,13.69,40.65,21.21,63.43,21.21h13.86l3.05-172.7c-.24-.39-.4-.83-.45-1.32-1.65-17.65-10.94-33.61-25.47-43.81-10.15-7.12-22.54-10.88-35.84-10.88h-55.05c-1.22,0-2.32-.73-2.78-1.86-.47-1.13-.21-2.42.65-3.28l28.2-28.2c.34-.34.76-.6,1.23-.74l26.4-8.3c2.21-.69,4.45-1.64,6.67-2.81,6.88-3.64,12.51-9.14,16.27-15.91,2.36-4.26,3.9-8.81,4.59-13.57l-69.23,10.31-34.6,20.87c-1.32.79-3.01.46-3.95-.75-.93-1.22-.79-2.95.32-4.01l44.87-42.59c.47-.45,1.07-.73,1.72-.81l56.36-6.66c16.27-1.92,29.36-13.84,32.97-29.54l-105.26,7.99-16,12.28c-.91.7-2.13.82-3.16.31-1.03-.51-1.68-1.55-1.68-2.7v-40.68c0-1.3.84-2.46,2.08-2.86l54.31-17.67c17.77-5.78,31.27-20.72,35.43-38.75l-128.97,33.07v175.83l83.2,93.61c1.47,1.41,3.31,2.94,5.64,4.67.77.57,1.22,1.46,1.22,2.42v107.82Z"/><rect class="uuid-afff6f37-b367-4040-a976-40178e5ee835" x="25.43" y="345.71" width="82.34" height="6.02" transform="translate(-211.68 128.27) rotate(-40.8)"/><rect class="uuid-afff6f37-b367-4040-a976-40178e5ee835" x="29.24" y="397.86" width="82.78" height="6.01" transform="translate(-214.39 110.27) rotate(-34.45)"/><path class="uuid-c7eae1ff-50be-4cc3-b689-5bfd7c866415" d="M721.87,64.7v-15.68l-13.94-1.16c-.98-5.13-2.86-9.94-5.49-14.25l9.31-11-11.09-11.09-10.67,9.03c-4.18-2.84-8.9-4.96-13.96-6.18l-1.2-14.37h-15.68l-1.16,13.94c-5.13.98-9.94,2.86-14.24,5.5l-11-9.31-11.09,11.09,9.03,10.68c-2.84,4.18-4.95,8.9-6.18,13.96l-14.37,1.2v15.68l13.94,1.16c.97,5.13,2.86,9.94,5.5,14.24l-9.31,11.01,11.09,11.09,10.68-9.03c4.18,2.84,8.9,4.96,13.96,6.17l1.19,14.37h15.69l1.16-13.94c5.13-.98,9.94-2.86,14.24-5.5l11.01,9.31,11.09-11.09-9.03-10.67c2.84-4.19,4.95-8.9,6.17-13.96l14.37-1.2ZM666,79.03c-12.79,0-23.15-10.37-23.15-23.16s10.36-23.16,23.15-23.16,23.15,10.37,23.15,23.16-10.36,23.16-23.15,23.16Z"/><rect class="uuid-c7eae1ff-50be-4cc3-b689-5bfd7c866415" x=".51" y="131.05" width="16.99" height="6.02" transform="translate(-48.35 12.56) rotate(-21.43)"/><rect class="uuid-c7eae1ff-50be-4cc3-b689-5bfd7c866415" x="49.13" y="111.97" width="17" height="6.02" transform="translate(-38.02 29) rotate(-21.43)"/><rect class="uuid-c7eae1ff-50be-4cc3-b689-5bfd7c866415" x="20.93" y="147.33" width="17" height="6.02" transform="translate(-123.63 156.99) rotate(-81.41)"/><rect class="uuid-c7eae1ff-50be-4cc3-b689-5bfd7c866415" x="28.71" y="95.69" width="17" height="6.02" transform="translate(-65.93 120.75) rotate(-81.41)"/><rect class="uuid-c7eae1ff-50be-4cc3-b689-5bfd7c866415" x="9.89" y="99.74" width="6.02" height="17" transform="translate(-79.76 50.83) rotate(-51.42)"/><rect class="uuid-c7eae1ff-50be-4cc3-b689-5bfd7c866415" x="50.72" y="132.31" width="6.02" height="17" transform="translate(-89.85 95.01) rotate(-51.42)"/></svg>