<?xml version="1.0" encoding="UTF-8"?><svg id="uuid-a6c157f5-86da-421a-9348-f6d445bf083d" xmlns="http://www.w3.org/2000/svg" viewBox="0 0 749.01 662.07"><defs><style>.uuid-282b7877-67c1-46ca-b540-dbd44e65029e{fill:#0e74bb;}.uuid-272e031b-0acb-43ec-bf44-e01cb6db4428{fill:#fff;}.uuid-6a654760-9841-428d-adab-45338934a723{fill:#080717;}.uuid-77ccc9f1-3a07-4ce5-ad35-c26ec97c1a51{fill:#1d1d1b;}</style></defs><rect x="12.87" y="263.88" width="5.61" height="31.35"/><rect x="0" y="276.75" width="31.35" height="5.61"/><rect x="60.02" y="107.96" width="5.61" height="66.74"/><rect x="29.45" y="138.52" width="66.74" height="5.61"/><ellipse cx="115.71" cy="547.09" rx="54.45" ry="114.98"/><path class="uuid-282b7877-67c1-46ca-b540-dbd44e65029e" d="M142.4,610.52l80.06-55.99,129.29,20.52,194.96-113.9-22.57-58.49,129.84-84.95c16.45-12.26,20.62-35.16,9.55-52.44l-5.99-9.35-239.08,118h-148.79l-171.36,79.01-3.32,4.33c-54.82,94.32,47.43,153.24,47.43,153.24Z"/><path class="uuid-77ccc9f1-3a07-4ce5-ad35-c26ec97c1a51" d="M240.23,498.62l-2.53-5.01c49.4-24.92,86.68-67.4,104.96-119.62l5.3,1.86c-18.76,53.6-57.02,97.2-107.73,122.78Z"/><path class="uuid-77ccc9f1-3a07-4ce5-ad35-c26ec97c1a51" d="M296.02,471.91l19.99,23.54c10.37,12.21,26.77,17.48,42.31,13.6h0c5.15-1.29,10.01-3.54,14.33-6.63l365.47-262.16c10.29-7.38,13.8-21.09,8.31-32.51h0c-3.02-6.28-8.42-11.09-15-13.37l-45.78-15.83c-7.95-2.75-16.74-1.5-23.61,3.36l-361.73,256.05c-11.11,7.87-13.09,23.57-4.28,33.94Z"/><polygon class="uuid-272e031b-0acb-43ec-bf44-e01cb6db4428" points="303.33 445.49 670.61 184.84 727.48 206.16 336.5 484.59 303.33 445.49"/><path class="uuid-282b7877-67c1-46ca-b540-dbd44e65029e" d="M425.62,400.62l45.15,105.69-93.38,49.25-9.24-44.12,32.84-16.42-2.9-33.79c-2.02-23.62,8.41-46.59,27.52-60.61h0Z"/><path class="uuid-282b7877-67c1-46ca-b540-dbd44e65029e" d="M508.74,356.49l45.15,105.69-93.38,49.25-9.24-44.12,32.84-16.42-2.9-33.79c-2.02-23.62,8.41-46.59,27.52-60.61h0Z"/><path class="uuid-282b7877-67c1-46ca-b540-dbd44e65029e" d="M617.92,329.28l-44.37,106.02-73.34,2.2,55.06-85.75c15.54-17.91,39.28-26.42,62.66-22.48h0Z"/><rect class="uuid-77ccc9f1-3a07-4ce5-ad35-c26ec97c1a51" x="455.14" y="441.19" width="5.62" height="67.65" transform="translate(-145.93 209.14) rotate(-22.29)"/><rect class="uuid-77ccc9f1-3a07-4ce5-ad35-c26ec97c1a51" x="530.41" y="384.3" width="5.61" height="54.38" transform="translate(-114.81 227.91) rotate(-21.84)"/><path class="uuid-282b7877-67c1-46ca-b540-dbd44e65029e" d="M208.09,463.21h0c54.64-11.19,102.81-43.13,134.39-89.1l20.56-29.93,28.73-6.16h0c8.63,18.99,30.61,27.92,50.04,20.34l7.42-2.9-15.39-72.85h-134.42l-110.82,132.37,19.5,48.23Z"/><path class="uuid-272e031b-0acb-43ec-bf44-e01cb6db4428" d="M418.75,28.32c24.2-16.99,49.42-25.17,78.94-25.64v134.27l-78.94-108.63Z"/><path class="uuid-6a654760-9841-428d-adab-45338934a723" d="M495.03,5.41v123.35l-72.53-99.8c22.32-15.12,45.61-22.68,72.53-23.55h0ZM500.35,0c-32.06,0-59.37,8.88-85.33,27.71l85.33,117.43V0h0Z"/><path class="uuid-282b7877-67c1-46ca-b540-dbd44e65029e" d="M500.35,145.14V0C580.5,0,645.5,64.97,645.5,145.14s-65,145.17-145.15,145.17-145.16-65.01-145.16-145.17c0-48.1,20.92-89.15,59.83-117.43l85.33,117.43Z"/><path class="uuid-6a654760-9841-428d-adab-45338934a723" d="M500.33,145.14l138.04,44.86c24.78-76.24-16.96-158.13-93.18-182.91C529.94,2.14,516.35,0,500.33,0v145.14Z"/><path class="uuid-6a654760-9841-428d-adab-45338934a723" d="M164.55,250.34h-50.09v-61.12h50.09v61.12ZM120.07,244.73h38.86v-49.89h-38.86v49.89Z"/><path class="uuid-6a654760-9841-428d-adab-45338934a723" d="M237.88,250.34h-50.11V114.61h50.11v135.74ZM193.38,244.73h38.88v-124.51h-38.88v124.51Z"/><path class="uuid-6a654760-9841-428d-adab-45338934a723" d="M311.2,250.34h-50.11v-100.52h50.11v100.52ZM266.7,244.73h38.88v-89.29h-38.88v89.29Z"/><path class="uuid-6a654760-9841-428d-adab-45338934a723" d="M384.52,250.34h-50.1V84.48h50.1v165.87ZM340.04,244.73h38.87V90.09h-38.87v154.64Z"/><path class="uuid-6a654760-9841-428d-adab-45338934a723" d="M252.73,40.44h-81.89c-3.29,0-5.94,2.65-5.94,5.93v34.02c0,3.29,2.65,5.93,5.94,5.93h32.86l2.17,3.76,5.91,10.23,5.91-10.23,2.16-3.76h32.88c3.27,0,5.94-2.64,5.94-5.93v-34.02c0-3.28-2.67-5.93-5.94-5.93Z"/><rect class="uuid-272e031b-0acb-43ec-bf44-e01cb6db4428" x="189.68" y="60.89" width="44.18" height="5.61"/><rect class="uuid-6a654760-9841-428d-adab-45338934a723" x="102.95" y="244.73" width="302.72" height="5.61"/></svg>