<?xml version="1.0" encoding="UTF-8"?><svg id="uuid-0dd4e55b-5868-408c-96a4-219ca8516b8f" xmlns="http://www.w3.org/2000/svg" viewBox="0 0 806.14 661.72"><defs><style>.uuid-4d05cdf3-6395-4624-9626-2ba6a2049749{fill:#282d33;}.uuid-a1cb93b9-969e-434e-bb5a-38d24a36ef5a{fill:#0e74bb;}.uuid-4b62816b-abcc-48c8-bf6c-2e83bc2870fe{fill:#fff;}.uuid-87a8a53c-f568-4bd1-9f1d-87bd70eb6a33{isolation:isolate;}.uuid-42c7ec9f-733c-4133-915c-b72a627f0f6c{fill:#080717;}.uuid-6dea69eb-9356-4819-903c-4824dee7dbcc{fill:#1d1d1b;}</style></defs><polygon class="uuid-4b62816b-abcc-48c8-bf6c-2e83bc2870fe" points="738.94 249.88 135.05 249.88 91.61 290.44 771.12 290.44 738.94 249.88"/><path d="M771.12,293.28H91.61c-1.17,0-2.21-.71-2.64-1.8-.43-1.09-.15-2.32.7-3.12l43.45-40.56c.53-.49,1.22-.76,1.94-.76h603.89c.87,0,1.69.4,2.22,1.07l32.18,40.56c.68.85.81,2.02.33,3-.47.98-1.47,1.61-2.56,1.61ZM98.81,287.6h666.44l-27.68-34.88H136.17l-37.37,34.88Z"/><path class="uuid-4b62816b-abcc-48c8-bf6c-2e83bc2870fe" d="M132.98,298.98l-60.42,359.9,60.42-359.9Z"/><path d="M72.56,661.72c-.16,0-.31-.01-.47-.04-1.54-.26-2.59-1.72-2.33-3.27l60.42-359.9c.26-1.54,1.7-2.6,3.27-2.33,1.54.26,2.59,1.72,2.33,3.27l-60.42,359.9c-.23,1.39-1.44,2.37-2.8,2.37Z"/><path class="uuid-4b62816b-abcc-48c8-bf6c-2e83bc2870fe" d="M742.88,298.98l60.42,359.9-60.42-359.9Z"/><path d="M803.3,661.72c-1.36,0-2.56-.98-2.8-2.37l-60.42-359.9c-.26-1.55.78-3.01,2.33-3.27,1.57-.27,3.01.78,3.27,2.33l60.42,359.9c.26,1.55-.78,3.01-2.33,3.27-.16.02-.32.04-.47.04Z"/><rect class="uuid-4b62816b-abcc-48c8-bf6c-2e83bc2870fe" x="91.61" y="290.44" width="679.52" height="18.03"/><path d="M771.12,311.31H91.61c-1.57,0-2.84-1.27-2.84-2.84v-18.03c0-1.57,1.27-2.84,2.84-2.84h679.52c1.57,0,2.84,1.27,2.84,2.84v18.03c0,1.57-1.27,2.84-2.84,2.84ZM94.44,305.63h673.84v-12.35H94.44v12.35Z"/><path class="uuid-6dea69eb-9356-4819-903c-4824dee7dbcc" d="M495.53,283.52l-137.14-.73c-5.49,0-10.93-.67-11.72-1.46l-36.19-22.94v-6.18l151.42,8.6,35.24,14.5c4.3,1.77,3.04,8.21-1.6,8.21Z"/><path class="uuid-6dea69eb-9356-4819-903c-4824dee7dbcc" d="M306.56,254.32l-34.08-83.4c-2.53-6.18,2.02-12.95,8.7-12.95h138.84c3.91,0,7.42,2.42,8.79,6.09l31.39,83.4c2.31,6.14-2.23,12.71-8.79,12.71h-136.15c-3.82,0-7.25-2.31-8.7-5.84Z"/><path class="uuid-a1cb93b9-969e-434e-bb5a-38d24a36ef5a" d="M318.57,253.56c-1.11,0-2.1-.68-2.52-1.73l-33.26-83.4c-.48-1.2-.04-2.15.26-2.61s1-1.23,2.26-1.23h135.53c1.13,0,2.15.73,2.55,1.81l30.63,83.39c.44,1.19,0,2.12-.31,2.57s-1,1.2-2.24,1.2h-132.9Z"/><path class="uuid-6dea69eb-9356-4819-903c-4824dee7dbcc" d="M495.53,277.38l-137.14-.73c-5.49,0-10.93-.67-11.72-1.46l-34.06-15.38,149.29-5.13,35.24,14.5c4.3,1.77,3.04,8.21-1.6,8.21Z"/><path class="uuid-6dea69eb-9356-4819-903c-4824dee7dbcc" d="M496.1,21.52s-11.77,29.65-18.6,30.49c-6.83.84-25-.07-27.04-12.33-2.04-12.26,3.18-10.45,8.4-11.81s.68-13.4,3.86-14.76c3.18-1.36,7.27-.91,15.21.91,7.95,1.82,18.17,7.49,18.17,7.49Z"/><path class="uuid-4b62816b-abcc-48c8-bf6c-2e83bc2870fe" d="M588.38,138.3l-34.66-54.85c3.33-6.74,5.23-14.36,5.23-22.45,0-27.4-21.51-49-48.04-49.61-43.52-.99-50.15,37.96-48.85,45.94.3,1.87.59,3.68.86,5.44.1,3,.46,5.93,1.05,8.76.46,6.28-.1,11.26-2.94,14.38-4.28,4.68,20.37,43.25,49.09,25.67l19.6,33.95,58.66-7.23Z"/><path d="M529.72,148.37c-1.01,0-1.95-.54-2.46-1.42l-18.2-31.52c-17.33,8.85-33.76-.3-43.65-12.29-4.23-5.12-10.34-14.92-6.48-19.14,1.94-2.12,2.64-5.96,2.22-12.07-.6-2.91-.95-5.9-1.06-8.89-.25-1.69-.54-3.44-.83-5.24-.94-5.81,1.58-21.59,11.91-33.46,9.45-10.86,22.88-16.16,39.81-15.78,28.5.65,50.82,23.69,50.82,52.45,0,7.75-1.63,15.23-4.84,22.25l33.82,53.53c.52.82.58,1.85.16,2.73-.42.88-1.25,1.48-2.22,1.6l-58.66,7.23c-.12.01-.23.02-.35.02ZM510.12,108.74c.23,0,.47.03.7.09.74.19,1.38.67,1.76,1.33l18.66,32.32,52.35-6.45-32.27-51.06c-.53-.83-.58-1.89-.14-2.77,3.28-6.65,4.94-13.78,4.94-21.19,0-25.65-19.88-46.19-45.26-46.77-15.25-.41-27.11,4.31-35.4,13.83-9.7,11.14-11.17,25.22-10.59,28.82.3,1.88.6,3.7.86,5.47.01.11.02.22.03.32.1,2.79.43,5.58,1,8.28.03.12.04.25.05.37.39,5.27.33,11.83-3.43,16.22-.15,2.56,5.2,13.18,15.2,20.15,6.92,4.83,17.76,9,30.07,1.47.45-.28.96-.42,1.48-.42Z"/><path class="uuid-6dea69eb-9356-4819-903c-4824dee7dbcc" d="M514.47,0c-17.73,0-33.37,9.16-42.78,23.13,4.62-1.26,9.43-1.96,14.39-1.96,33.67,0,60.96,30.72,60.96,68.61,0,2.1-.1,4.18-.26,6.24,12.06-9.85,19.81-25.08,19.81-42.2,0-29.72-23.33-53.81-52.11-53.81Z"/><path class="uuid-6dea69eb-9356-4819-903c-4824dee7dbcc" d="M467.13,21.79s10.37,10.34,23.94,10.68c7.17.18-1.43,3.77.54,10.94,1.97,7.17,7.89,15.25,8.25,19.19.36,3.95,6.57,2.47,6.57,2.47l26.63,30.64c3.19,3.67,8.4,4.83,12.84,2.88l13.4-5.9-2.41-13.94-21.16-54.17s-46.99-23.51-68.61-2.79Z"/><circle class="uuid-4b62816b-abcc-48c8-bf6c-2e83bc2870fe" cx="517.19" cy="65.1" r="11.48"/><path d="M478.43,104.84c-.9,0-1.78-.42-2.33-1.21-.9-1.28-.59-3.05.7-3.95,2.3-1.61,2.38-4.84,2.38-4.87.03-1.56,1.42-2.87,2.86-2.8,1.56.01,2.81,1.27,2.81,2.83,0,.25-.06,6.18-4.8,9.5-.49.35-1.06.51-1.62.51Z"/><path d="M478.95,61.54c-1.14,0-2.22-.69-2.65-1.82-.23-.59-1.73-1.89-3.91-2.38-1.46-.32-3.58-.35-5.34,1.36-1.13,1.09-2.92,1.06-4.01-.07-1.09-1.13-1.06-2.93.07-4.01,2.75-2.66,6.59-3.69,10.51-2.82,3.74.83,6.95,3.19,7.98,5.89.56,1.46-.17,3.11-1.63,3.67-.34.13-.68.19-1.02.19Z"/><path d="M475.73,72.64c-.28,2.41-1.91,4.2-3.65,4-1.73-.2-2.91-2.32-2.63-4.73.28-2.41,1.91-4.2,3.65-4,1.73.2,2.91,2.32,2.63,4.73Z"/><polygon class="uuid-4b62816b-abcc-48c8-bf6c-2e83bc2870fe" points="483 611.6 458.54 531.38 501.38 546.18 516.73 611.6 483 611.6"/><path d="M462.88,535.88l36.09,12.47,14.18,60.41h-28.04l-22.22-72.88h0ZM454.2,526.87l26.7,87.57h39.41l-16.53-70.43-49.58-17.13h0Z"/><path class="uuid-6dea69eb-9356-4819-903c-4824dee7dbcc" d="M517.68,601.3l14.01,47.29h-131.41c-4.75,0-8.14-4.61-6.73-9.14l1.32-4.24c1.26-4.06,4.04-7.47,7.76-9.54l69.95-38.82s7.01,5.25,7.01,12.7,12.26,16.64,38.09,1.75Z"/><polygon class="uuid-a1cb93b9-969e-434e-bb5a-38d24a36ef5a" points="519.44 371.88 519.44 568.91 457.7 568.91 432.75 386.33 519.44 371.88"/><polygon class="uuid-4b62816b-abcc-48c8-bf6c-2e83bc2870fe" points="399.81 611.6 375.35 531.38 418.19 546.18 433.54 611.6 399.81 611.6"/><path d="M379.69,535.88l36.09,12.47,14.18,60.41h-28.04l-22.22-72.88h0ZM371.01,526.87l26.7,87.57h39.41l-16.53-70.43-49.58-17.13h0Z"/><path class="uuid-6dea69eb-9356-4819-903c-4824dee7dbcc" d="M434.5,601.3l14.01,47.29h-131.41c-4.75,0-8.14-4.61-6.73-9.14l1.32-4.24c1.26-4.06,4.04-7.47,7.76-9.54l69.95-38.82s7.01,5.25,7.01,12.7,12.26,16.64,38.09,1.75Z"/><path class="uuid-a1cb93b9-969e-434e-bb5a-38d24a36ef5a" d="M631.03,339.04l-288.36,14.46c-28.16,1.36-48.07,28.11-41.26,55.48l48.59,163.87h93.26l-47.29-145.8h194.83c23.83,0,44.79-15.75,51.42-38.64h0c2.44-23.09-11.19-49.36-11.19-49.36Z"/><polygon class="uuid-a1cb93b9-969e-434e-bb5a-38d24a36ef5a" points="437.12 283.88 507.8 283.83 509.37 233.97 437.12 233.97 437.12 283.88"/><path class="uuid-a1cb93b9-969e-434e-bb5a-38d24a36ef5a" d="M483.99,140.29l-63.97,105.28c-4.16,6.85-5.26,15.14-3.02,22.84h0c3.99,13.74,21.98,19.86,35.21,11.99l67.99-40.43s45.97-165.13-36.21-99.67Z"/><path class="uuid-a1cb93b9-969e-434e-bb5a-38d24a36ef5a" d="M643.34,352.18l-22.33-202.28c-2.72-10.95-18.94-25.9-30.21-23.64l-77.03-3.13c-23.4,4.68-39.6,25.67-37.84,49.01l12.42,176.1,154.99,3.94Z"/><path class="uuid-4b62816b-abcc-48c8-bf6c-2e83bc2870fe" d="M453.04,286.36c-.82,0-1.64-.35-2.2-1.04-.99-1.21-.81-3.01.4-4l65.52-53.49c1.22-.99,3.01-.81,4,.4.99,1.21.81,3.01-.4,4l-65.52,53.49c-.53.43-1.16.64-1.79.64Z"/><path d="M660.12,649.32c-1.03,0-2.03-.57-2.53-1.55l-102.52-201.04c-.71-1.4-.16-3.11,1.24-3.82,1.4-.72,3.11-.16,3.82,1.24l102.52,201.04c.71,1.4.16,3.11-1.24,3.82-.41.21-.85.31-1.29.31Z"/><path d="M425.92,649.32c-.43,0-.87-.1-1.29-.31-1.4-.71-1.95-2.42-1.24-3.82l102.52-201.04c.71-1.4,2.41-1.96,3.82-1.24,1.4.71,1.95,2.42,1.24,3.82l-102.52,201.04c-.5.98-1.5,1.55-2.53,1.55Z"/><path d="M543.02,653.19c-1.57,0-2.84-1.27-2.84-2.84v-204.26c0-1.57,1.27-2.84,2.84-2.84s2.84,1.27,2.84,2.84v204.26c0,1.57-1.27,2.84-2.84,2.84Z"/><path class="uuid-4b62816b-abcc-48c8-bf6c-2e83bc2870fe" d="M636.04,450.7h-167.47c-8.7,0-15.76-7.06-15.76-15.76h0c0-8.7,7.06-15.76,15.76-15.76h167.47c8.7,0,15.76,7.06,15.76,15.76h0c0,8.71-7.06,15.76-15.76,15.76Z"/><path d="M636.04,453.54h-167.47c-10.26,0-18.6-8.35-18.6-18.6s8.35-18.6,18.6-18.6h167.47c10.26,0,18.6,8.34,18.6,18.6s-8.35,18.6-18.6,18.6ZM468.57,422.02c-7.13,0-12.92,5.79-12.92,12.92s5.8,12.93,12.92,12.93h167.47c7.13,0,12.92-5.8,12.92-12.93s-5.8-12.92-12.92-12.92h-167.47Z"/><path class="uuid-4b62816b-abcc-48c8-bf6c-2e83bc2870fe" d="M652.76,450.48h-167.47c-8.71,0-15.76-7.06-15.76-15.76h0c0-8.71,7.06-15.76,15.76-15.76h167.47c8.7,0,15.76,7.06,15.76,15.76h0c0,8.7-7.06,15.76-15.76,15.76Z"/><path class="uuid-4b62816b-abcc-48c8-bf6c-2e83bc2870fe" d="M521.64,349.41s-43.53-27.11-69.61-4.28c-15.42,13.49-7.52,47.92,1.52,73.82h-3.72c-8.7,0-15.76,7.06-15.76,15.76s7.06,15.76,15.76,15.76h16.65c.07.14.11.22.11.22h70.28c11.77,0,22.05-7.97,24.98-19.37l-40.2-81.92Z"/><path d="M536.86,453.54h-70.28c-.39,0-.76-.08-1.11-.22h-15.66c-10.26,0-18.6-8.35-18.6-18.6s8.21-18.47,18.35-18.6c-8.83-26.51-15.2-59.31.58-73.12,27.35-23.93,71.14,2.86,72.98,4.01.45.28.82.68,1.05,1.16l40.2,81.92c.3.61.37,1.3.2,1.96-3.26,12.66-14.66,21.5-27.73,21.5ZM467.58,447.86h69.28c10.13,0,19.02-6.63,21.95-16.25l-39.35-80.19c-5.5-3.2-43.09-23.83-65.57-4.15-11.04,9.66-10.21,34.79,2.33,70.75.3.87.17,1.83-.37,2.58-.53.75-1.39,1.19-2.32,1.19h-3.72c-7.13,0-12.92,5.8-12.92,12.92s5.79,12.92,12.92,12.92h16.65c.39,0,.76.08,1.11.22Z"/><path class="uuid-4b62816b-abcc-48c8-bf6c-2e83bc2870fe" d="M528.75,450.7h116.33c11.77,0,22.05-7.97,24.98-19.37,0,0,29.46-93.46,14.45-120.69-14.76-26.77-124.97-27.15-160,34.49-17.12,30.13,4.24,105.57,4.24,105.57Z"/><path d="M645.08,453.54h-116.32c-1.27,0-2.38-.84-2.73-2.07-.89-3.13-21.48-76.94-3.98-107.75,22.29-39.23,72.95-53.1,109.99-53.1.32,0,.63,0,.94,0,27.07.17,47.77,7.32,54.02,18.64,15.42,27.97-13.01,119.05-14.23,122.92-3.22,12.51-14.62,21.35-27.69,21.35ZM530.93,447.86h114.15c10.48,0,19.62-7.09,22.23-17.23.33-1.07,28.97-92.75,14.71-118.62-5.09-9.24-24.82-15.55-49.08-15.7-35.52-.14-84.69,12.79-105.96,50.22-14.8,26.05.73,89.11,3.95,101.33Z"/><path d="M50.66,85.43H17.3v-7.87C6.59,71.53,0,60.36,0,47.98,0,29.25,15.24,14,33.98,14s33.98,15.24,33.98,33.98c0,12.37-6.58,23.54-17.3,29.57v7.87ZM22.98,79.75h22.01v-5.66l1.57-.78c9.7-4.82,15.73-14.53,15.73-25.32,0-15.61-12.7-28.3-28.3-28.3S5.68,32.38,5.68,47.98c0,10.8,6.02,20.5,15.73,25.32l1.57.78v5.66Z"/><rect x="16.68" y="90.13" width="34.6" height="5.68"/><rect x="31.14" y="51.44" width="5.68" height="27.68"/><rect x="27.06" y="48.61" width="13.84" height="5.68"/><path d="M54.12,47.98h-5.68c0-7.97-6.49-14.46-14.46-14.46v-5.68c11.1,0,20.14,9.04,20.14,20.14Z"/><path class="uuid-4d05cdf3-6395-4624-9626-2ba6a2049749" d="M212.49,134.76v-28.45c-23.56-3.7-41.01-23.94-41.01-48.07,0-26.84,21.84-48.68,48.68-48.68h140.8c26.84,0,48.68,21.84,48.68,48.68s-21.84,48.68-48.68,48.68h-118.82l-29.64,27.85ZM220.15,15.23c-23.71,0-43,19.29-43,43,0,22.08,16.54,40.47,38.47,42.76l2.54.27v20.37l21.71-20.4h121.07c23.71,0,43-19.29,43-43s-19.29-43-43-43h-140.8Z"/><rect class="uuid-4d05cdf3-6395-4624-9626-2ba6a2049749" x="226.18" y="45.75" width="128.74" height="5.68"/><rect class="uuid-4d05cdf3-6395-4624-9626-2ba6a2049749" x="226.18" y="65.05" width="128.74" height="5.68"/><g class="uuid-87a8a53c-f568-4bd1-9f1d-87bd70eb6a33"><path d="M143.44,159.98c-.57,0-1.14-.17-1.62-.51l-46.37-32.18c-.92-.64-1.38-1.77-1.17-2.87.21-1.1,1.06-1.98,2.15-2.23l43.25-9.93c.78-.17,1.6-.02,2.25.44l46.37,32.18c.92.64,1.38,1.77,1.17,2.87-.21,1.1-1.06,1.98-2.15,2.23l-43.24,9.93c-.21.05-.42.07-.63.07ZM103.97,126.29l40.06,27.8,35.76-8.21-40.06-27.8-35.76,8.21Z"/><path d="M126.14,212.66c-.79,0-1.55-.33-2.1-.93-.69-.76-.92-1.83-.6-2.8l17.3-52.68c.31-.94,1.09-1.66,2.06-1.88l43.24-9.93c1-.24,2.04.1,2.73.85.69.76.92,1.82.6,2.8l-17.3,52.68c-.31.95-1.09,1.66-2.06,1.88l-43.25,9.93c-.21.05-.42.07-.64.07ZM145.64,159.55l-15.23,46.37,36.79-8.45,15.23-46.37-36.78,8.45ZM169.39,199.89h.03-.03Z"/><path d="M126.14,212.66c-.57,0-1.14-.17-1.62-.51l-46.37-32.18c-1.03-.72-1.47-2.02-1.08-3.22l17.3-52.68c.28-.85.95-1.52,1.8-1.81.85-.29,1.78-.16,2.52.36l46.37,32.18c1.03.72,1.47,2.02,1.08,3.22l-17.3,52.68c-.28.85-.95,1.52-1.8,1.8-.29.1-.6.15-.9.15ZM83.13,176.51l41.5,28.8,15.45-47.05-41.5-28.8-15.45,47.05Z"/></g><path class="uuid-42c7ec9f-733c-4133-915c-b72a627f0f6c" d="M718.64,22h.01-.01ZM716.68,22h.17c.24.03.47.04.71.04.03,0,.07,0,.1,0s.07,0,.1,0c.24,0,.48-.02.71-.03h.15c.19,0,.38.03.56.05.44.05.87.1,1.18.12.54.04,1.07.08,1.66.15,20.36,1.95,40.32,20.17,56.37,34.8,5.74,5.24,10.75,9.81,15.22,13.13-4.47,3.32-9.49,7.89-15.22,13.12-16.04,14.64-36.01,32.86-56.42,34.81-.53.06-1.07.1-1.48.13-.44.02-.87.07-1.31.12-.2.02-.39.06-.55.06h-.17c-.24-.03-.47-.04-.71-.04-.03,0-.07,0-.1,0s-.07,0-.1,0c-.24,0-.48.02-.71.03h-.13c-.2,0-.39-.03-.59-.05-.43-.05-.87-.1-1.18-.12-.54-.04-1.07-.08-1.66-.15-20.36-1.95-40.32-20.17-56.37-34.81-5.69-5.19-10.74-9.8-15.22-13.12,4.48-3.32,9.53-7.93,15.22-13.12,16.04-14.64,36.01-32.86,56.42-34.81.54-.06,1.07-.1,1.49-.13.44-.02.87-.07,1.31-.12.2-.02.39-.06.55-.06h0ZM718.61,16.33c-.32,0-.63.04-.94.04-.32,0-.63-.04-.95-.04-.74,0-1.47.15-2.2.19-.59.05-1.18.09-1.77.15-31.44,3.01-60.72,40.34-77,50.81-3.25,2.09-3.25,3.46,0,5.55,16.28,10.47,45.56,47.8,77,50.81.59.06,1.18.11,1.77.15.73.04,1.46.19,2.2.19.32,0,.63-.04.95-.04.32,0,.63.04.94.04.74,0,1.46-.15,2.2-.19.59-.05,1.18-.09,1.77-.15,30.53-2.92,59.03-38.22,75.56-49.84,3.89-2.73,3.78-4.8-.2-7.63-16.56-11.76-44.95-46.79-75.36-49.7-.59-.06-1.18-.11-1.77-.15-.73-.04-1.46-.19-2.2-.19h0Z"/><path class="uuid-42c7ec9f-733c-4133-915c-b72a627f0f6c" d="M736.35,73.12c-7.61,0-13.78-6.17-13.78-13.78,0-6.41,4.4-11.76,10.34-13.29-4.53-2.96-9.94-4.69-15.76-4.69-15.96,0-28.9,12.94-28.9,28.9s12.94,28.9,28.9,28.9,28.9-12.94,28.9-28.9c0-.37-.04-.73-.06-1.09-2.49,2.44-5.89,3.95-9.65,3.95Z"/><path class="uuid-42c7ec9f-733c-4133-915c-b72a627f0f6c" d="M720.05,197.75c-6.55,0-11.89-5.33-11.89-11.89s5.33-11.89,11.89-11.89,11.89,5.33,11.89,11.89-5.33,11.89-11.89,11.89ZM720.05,179.65c-3.42,0-6.21,2.79-6.21,6.21s2.79,6.21,6.21,6.21,6.21-2.79,6.21-6.21-2.79-6.21-6.21-6.21Z"/><path class="uuid-42c7ec9f-733c-4133-915c-b72a627f0f6c" d="M750.51,197.75c-6.55,0-11.89-5.33-11.89-11.89s5.33-11.89,11.89-11.89,11.89,5.33,11.89,11.89-5.33,11.89-11.89,11.89ZM750.51,179.65c-3.42,0-6.21,2.79-6.21,6.21s2.79,6.21,6.21,6.21,6.21-2.79,6.21-6.21-2.79-6.21-6.21-6.21Z"/><path class="uuid-42c7ec9f-733c-4133-915c-b72a627f0f6c" d="M780.96,197.75c-6.55,0-11.89-5.33-11.89-11.89s5.33-11.89,11.89-11.89,11.89,5.33,11.89,11.89-5.33,11.89-11.89,11.89ZM780.96,179.65c-3.42,0-6.21,2.79-6.21,6.21s2.79,6.21,6.21,6.21,6.21-2.79,6.21-6.21-2.79-6.21-6.21-6.21Z"/></svg>