<?xml version="1.0" encoding="utf-8"?>
<!-- Generator: Adobe Illustrator 27.5.0, SVG Export Plug-In . SVG Version: 6.00 Build 0)  -->
<svg version="1.1" id="Capa_1" xmlns="http://www.w3.org/2000/svg" xmlns:xlink="http://www.w3.org/1999/xlink" x="0px" y="0px"
	 viewBox="0 0 5000 5000" style="enable-background:new 0 0 5000 5000;" xml:space="preserve">
<rect x="9" style="fill:#BAE8E8;" width="4991" height="4991"/>
<g>
	<g id="Layer_1_00000114762071023076370520000000522521842936711092_">
		<g id="FIGURES">
			<g>
				<path style="fill:#EFAF00;" d="M1466.603,1549.427h500.005c26.254,0,47.536,21.283,47.536,47.536v642.968
					c0,26.254-21.283,47.537-47.536,47.537h-500.005c-26.254,0-47.536-21.283-47.536-47.537v-642.968
					C1419.067,1570.71,1440.35,1549.427,1466.603,1549.427z"/>
				<path d="M1966.608,2291.4h-500.005c-28.38,0-51.468-23.089-51.468-51.469v-642.967c0-28.38,23.088-51.469,51.468-51.469h500.005
					c28.38,0,51.468,23.089,51.468,51.469v642.967C2018.077,2268.311,1994.988,2291.4,1966.608,2291.4z M1466.604,1553.359
					c-24.044,0-43.605,19.562-43.605,43.605v642.967c0,24.044,19.561,43.605,43.605,43.605h500.005
					c24.044,0,43.605-19.561,43.605-43.605v-642.967c0-24.044-19.561-43.605-43.605-43.605H1466.604z"/>
			</g>
			<g>
				<rect x="1770.381" y="1549.427" style="fill:#1C0E0C;" width="57.838" height="738.722"/>
			</g>
			<g>
				<path style="fill:#C5DCDD;" d="M4089.406,2632.308h-500.005c-26.253,0-47.536-21.283-47.536-47.537v-486.754
					c0-26.254,21.283-47.536,47.536-47.536h500.005c26.254,0,47.536,21.283,47.536,47.536v486.754
					C4136.942,2611.025,4115.66,2632.308,4089.406,2632.308z"/>
				<path d="M4089.406,2636.24h-500.005c-28.379,0-51.468-23.088-51.468-51.469v-486.754c0-28.38,23.088-51.468,51.468-51.468
					h500.005c28.381,0,51.469,23.088,51.469,51.468v486.754C4140.875,2613.152,4117.787,2636.24,4089.406,2636.24z
					 M3589.401,2054.413c-24.043,0-43.604,19.561-43.604,43.604v486.754c0,24.044,19.561,43.605,43.604,43.605h500.005
					c24.044,0,43.605-19.561,43.605-43.605v-486.754c0-24.044-19.561-43.604-43.605-43.604H3589.401z"/>
			</g>
			<g>
				<rect x="3727.791" y="2050.481" style="fill:#1C0E0C;" width="57.838" height="582.364"/>
			</g>
		</g>
		<g id="PLANT">
			<g>
				<path style="fill:#F4F1ED;" d="M4068.842,3165.589c56.488,33.736,276.359-605.038,265.926-644.344
					C4334.808,2521.245,3969.064,3105.995,4068.842,3165.589z"/>
				<path style="fill:#070707;" d="M4073.509,3170.839c-2.359,0-4.59-0.625-6.682-1.875l0,0
					c-8.438-5.039-14.158-13.535-17.004-25.251c-12.525-51.597,29.735-170.15,125.608-352.366
					c69.107-131.344,141.822-249.366,155.696-271.69l0.274-0.44c0.426-0.709,1.078-1.288,1.897-1.618
					c1.836-0.741,3.943,0.001,4.907,1.736c0.261,0.47,0.406,0.919,0.468,1.343c4.851,22.873-45.155,181.023-94.694,315.618
					c-30,81.512-59.454,153.996-85.177,209.619c-30.667,66.315-55.04,106.59-72.441,119.706
					C4081.749,3169.097,4077.45,3170.839,4073.509,3170.839z M4070.859,3162.214c0.961,0.571,3.883,2.315,10.769-2.874
					c30.395-22.912,88.329-144.691,154.971-325.761c51.632-140.279,86.69-256.54,93.462-297.228
					c-24.054,39.169-87.244,143.812-147.671,258.658c-93.618,177.929-136.816,297.867-124.925,346.849
					C4059.827,3151.583,4064.207,3158.241,4070.859,3162.214z"/>
			</g>
			<g>
				<path style="fill:#070707;" d="M4024.902,3353.402c-0.193,0-0.389-0.014-0.586-0.043c-2.148-0.321-3.629-2.322-3.307-4.469
					c0.156-1.05,16.202-106.677,61.939-259.64c42.207-141.156,119.066-352.724,245.547-559.024c1.135-1.852,3.556-2.43,5.408-1.297
					c1.851,1.135,2.432,3.556,1.296,5.408c-126.004,205.521-202.601,416.343-244.67,557.01
					c-45.598,152.466-61.587,257.66-61.743,258.704C4028.493,3352.001,4026.817,3353.402,4024.902,3353.402z"/>
			</g>
			<g>
				<path style="fill:#F4F1ED;" d="M4260.823,3020.424c0,0-117.472,307.604-184.576,274.039
					C4010.375,3261.514,4260.823,3020.424,4260.823,3020.424z"/>
				<path style="fill:#070707;" d="M4087.035,3300.956c-4.388,0-8.579-0.992-12.547-2.977c-7.289-3.645-11.611-9.61-12.849-17.726
					c-4.11-26.964,27.862-79.482,95.027-156.099c49.545-56.514,100.917-106.069,101.43-106.563c1.326-1.276,3.362-1.462,4.896-0.447
					c1.536,1.016,2.161,2.962,1.504,4.682c-0.238,0.622-24.102,62.894-55.97,127.588c-43.124,87.541-79.75,137.671-108.862,148.998
					C4095.307,3300.109,4091.089,3300.956,4087.035,3300.956z M4250.312,3036.276c-18.47,18.383-53.559,54.079-87.763,93.099
					c-81.64,93.133-95.709,132.809-93.135,149.693c0.842,5.521,3.653,9.407,8.592,11.879c5.643,2.82,11.792,2.866,18.807,0.138
					c26.831-10.44,63.013-60.614,104.634-145.097C4223.094,3102.052,4241.03,3059.232,4250.312,3036.276z"/>
			</g>
			<g>
				<path style="fill:#070707;" d="M4041.093,3353.402c-0.721,0-1.449-0.197-2.103-0.612c-1.834-1.163-2.377-3.594-1.213-5.427
					c1.459-2.299,146.699-230.958,219.932-328.243c1.304-1.737,3.771-2.083,5.506-0.776c1.734,1.305,2.083,3.771,0.776,5.506
					c-73.043,97.034-218.117,325.43-219.574,327.726C4043.668,3352.757,4042.395,3353.402,4041.093,3353.402z"/>
			</g>
			<g>
				<path style="fill:#F4F1ED;" d="M4090.638,2303.379c0,0,19.659,694.082-65.741,694.082
					C3924.791,2997.462,4090.638,2303.379,4090.638,2303.379z"/>
				<path style="fill:#070707;" d="M4024.897,3001.393c-7.653,0-14.201-3.382-19.464-10.05
					c-26.727-33.866-21.088-160.26,16.76-375.673c28.063-159.721,64.258-311.688,64.62-313.205c0.458-1.917,2.26-3.215,4.229-2.997
					c1.962,0.203,3.47,1.828,3.526,3.8c0.043,1.541,4.316,155.97,0.051,317.132c-5.748,217.23-23.612,342.754-53.094,373.083
					C4036.424,2998.732,4030.828,3001.393,4024.897,3001.393z M4087.405,2334.708c-11.958,52.38-36.904,165.288-57.472,282.355
					c-46.634,265.424-35.706,347.388-18.327,369.409c3.748,4.749,8.095,7.057,13.291,7.057c3.78,0,7.374-1.809,10.989-5.528
					c19.293-19.846,43.779-99.763,50.873-367.78C4089.878,2502.319,4088.424,2388.021,4087.405,2334.708z"/>
			</g>
			<g>
				<path style="fill:#070707;" d="M4009.066,3353.402c-0.018,0-0.037,0-0.055,0c-2.172-0.031-3.908-1.815-3.878-3.986
					c0.084-6.169,9.308-621.728,81.631-1041.972c0.369-2.14,2.41-3.578,4.541-3.208c2.14,0.369,3.576,2.402,3.209,4.542
					c-72.218,419.63-81.433,1034.583-81.518,1040.746C4012.967,3351.676,4011.212,3353.402,4009.066,3353.402z"/>
			</g>
			<g>
				<path style="fill:#F4F1ED;" d="M3801.5,2682.806c0,0,51.324,482.39,136.764,467.54
					C4024.897,3135.287,3801.5,2682.806,3801.5,2682.806z"/>
				<path style="fill:#070707;" d="M3934.4,3154.615c-6.369,0-12.685-2.336-18.835-6.976
					c-31.162-23.51-60.486-108.963-87.159-253.981c-19.758-107.426-30.706-209.419-30.815-210.437
					c-0.201-1.894,0.984-3.662,2.814-4.192c1.829-0.536,3.777,0.326,4.622,2.035c0.472,0.958,47.807,97.044,89.988,200.827
					c57.002,140.251,77.824,227.272,61.886,258.644c-3.905,7.687-9.949,12.291-17.962,13.685
					C3937.424,3154.483,3935.91,3154.615,3934.4,3154.615z M3808.085,2705.457c10.479,86.649,51.167,389.845,112.216,435.904
					c5.884,4.439,11.541,6.112,17.29,5.111c5.515-0.959,9.538-4.065,12.297-9.498c10.215-20.107,7.726-80.163-62.146-252.083
					C3857.362,2810.135,3824.294,2739.373,3808.085,2705.457z"/>
			</g>
			<g>
				<path style="fill:#070707;" d="M3996.757,3355.959c-1.705,0-3.277-1.117-3.774-2.838l-192.715-664.239
					c-0.605-2.085,0.595-4.267,2.68-4.871c2.09-0.608,4.267,0.594,4.871,2.68l192.715,664.239c0.605,2.085-0.595,4.267-2.68,4.871
					C3997.488,3355.908,3997.119,3355.959,3996.757,3355.959z"/>
			</g>
			<g>
				<path style="fill:#F4F1ED;" d="M4017.531,3573.273L4017.531,3573.273c-65.054-0.007-117.786-52.746-117.786-117.799v-31.115
					c0-14.683,6.568-28.596,17.903-37.929l31.285-25.767c8.8-7.236,19.839-11.193,31.232-11.193h74.706
					c11.393,0.002,22.431,3.958,31.232,11.193l31.285,25.767c11.335,9.333,17.902,23.246,17.903,37.929v31.115
					C4135.291,3520.517,4082.574,3573.251,4017.531,3573.273z"/>
				<path style="fill:#070707;" d="M4017.532,3577.206h-0.001c-67.116-0.008-121.718-54.616-121.718-121.732v-31.113
					c0.001-15.918,7.05-30.85,19.335-40.966l31.285-25.766c9.48-7.796,21.459-12.089,33.732-12.09h74.706
					c12.272,0.003,24.25,4.295,33.729,12.088l31.288,25.77c12.287,10.116,19.334,25.048,19.334,40.965v31.113
					C4139.222,3522.574,4084.633,3577.182,4017.532,3577.206z M3980.165,3353.402c-10.456,0.001-20.66,3.658-28.735,10.298
					l-31.282,25.765c-10.467,8.618-16.47,21.336-16.471,34.896v31.113c0,62.776,51.079,113.854,113.853,113.869
					c62.766-0.021,113.829-51.102,113.829-113.869v-31.113c0-13.558-6.002-26.277-16.47-34.894l-31.285-25.769
					c-8.073-6.636-18.278-10.293-28.734-10.296H3980.165z"/>
			</g>
			<g>
				<path style="fill:#070707;" d="M4038.214,2755.572c-1.06,0-2.116-0.425-2.89-1.265c-1.473-1.596-1.374-4.084,0.221-5.556
					l49.332-45.531c1.597-1.475,4.087-1.372,5.556,0.221c1.473,1.596,1.373,4.084-0.221,5.556l-49.332,45.531
					C4040.124,2755.228,4039.168,2755.572,4038.214,2755.572z"/>
			</g>
			<g>
				<path style="fill:#070707;" d="M4037.1,2778.875c-1.06,0-2.116-0.425-2.89-1.264c-1.473-1.596-1.373-4.083,0.221-5.556
					l49.333-45.544c1.597-1.472,4.087-1.374,5.556,0.221c1.473,1.596,1.373,4.083-0.221,5.556l-49.333,45.544
					C4039.009,2778.53,4038.053,2778.875,4037.1,2778.875z"/>
			</g>
			<g>
				<path style="fill:#070707;" d="M4052.25,2601.037c-1.6,0-3.105-0.985-3.69-2.575l-15.152-41.167
					c-0.75-2.038,0.294-4.298,2.332-5.048c2.032-0.751,4.298,0.293,5.048,2.332l15.152,41.167c0.75,2.038-0.294,4.298-2.332,5.048
					C4053.16,2600.959,4052.702,2601.037,4052.25,2601.037z"/>
			</g>
			<g>
				<path style="fill:#070707;" d="M4200.193,2945.981h-63.133c-2.172,0-3.932-1.76-3.932-3.932c0-2.172,1.76-3.932,3.932-3.932
					h63.133c2.172,0,3.932,1.76,3.932,3.932C4204.125,2944.221,4202.365,2945.981,4200.193,2945.981z"/>
			</g>
			<g>
				<path style="fill:#070707;" d="M4204.636,2930.449h-63.133c-2.172,0-3.932-1.76-3.932-3.932c0-2.172,1.76-3.932,3.932-3.932
					h63.133c2.172,0,3.932,1.76,3.932,3.932C4208.568,2928.689,4206.808,2930.449,4204.636,2930.449z"/>
			</g>
			<g>
				<path style="fill:#070707;" d="M4288.766,2706.136h-50.459c-2.172,0-3.932-1.76-3.932-3.932s1.76-3.932,3.932-3.932h50.459
					c2.172,0,3.932,1.76,3.932,3.932S4290.938,2706.136,4288.766,2706.136z"/>
			</g>
			<g>
				<path style="fill:#070707;" d="M3906.229,3043.964c-0.672,0-1.353-0.173-1.976-0.536l-47.956-27.943
					c-1.876-1.093-2.51-3.5-1.417-5.377c1.092-1.875,3.499-2.512,5.377-1.417l47.956,27.943c1.876,1.093,2.51,3.501,1.417,5.377
					C3908.9,3043.264,3907.582,3043.964,3906.229,3043.964z"/>
			</g>
			<g>
				<path style="fill:#070707;" d="M3911.786,3066.151c-0.681,0-1.369-0.177-1.998-0.548l-49.083-29.044
					c-1.87-1.106-2.488-3.517-1.382-5.386c1.107-1.87,3.518-2.486,5.386-1.382l49.083,29.044c1.87,1.106,2.488,3.517,1.382,5.386
					C3914.439,3065.463,3913.13,3066.151,3911.786,3066.151z"/>
			</g>
			<g>
				<path style="fill:#070707;" d="M4154.872,3244.135h-43.329c-2.172,0-3.932-1.76-3.932-3.932c0-2.172,1.76-3.932,3.932-3.932
					h43.329c2.172,0,3.932,1.76,3.932,3.932C4158.804,3242.375,4157.044,3244.135,4154.872,3244.135z"/>
			</g>
		</g>
		<g id="WEB_PAGE">
			<g id="WEB_PAGE-2">
				<g>
					<path style="fill:#F4F1ED;" d="M1875.008,1403.922h1801.838c26.869,0,48.651,21.782,48.651,48.651v1255.346
						c0,26.869-21.782,48.65-48.651,48.65H1875.008c-26.869,0-48.651-21.781-48.651-48.65V1452.572
						C1826.358,1425.703,1848.139,1403.922,1875.008,1403.922z"/>
					<path style="fill:#070707;" d="M3676.847,2760.5H1875.008c-28.994,0-52.583-23.589-52.583-52.583V1452.572
						c0-28.994,23.589-52.582,52.583-52.582h1801.839c28.994,0,52.581,23.588,52.581,52.582v1255.346
						C3729.428,2736.911,3705.841,2760.5,3676.847,2760.5z M1875.008,1407.854c-24.658,0-44.719,20.061-44.719,44.718v1255.346
						c0,24.659,20.061,44.719,44.719,44.719h1801.839c24.657,0,44.718-20.06,44.718-44.719V1452.572
						c0-24.657-20.06-44.718-44.718-44.718H1875.008z"/>
				</g>
				<g>
					<path style="fill:#070707;" d="M3725.497,1520.423H1826.358c-2.171,0-3.932-1.76-3.932-3.932s1.76-3.932,3.932-3.932h1899.139
						c2.172,0,3.932,1.76,3.932,3.932S3727.668,1520.423,3725.497,1520.423z"/>
				</g>
				<g>
					<path style="fill:#FFEFF0;" d="M2099.427,1450.278h9.62c7.593,0,13.749,6.155,13.749,13.749v9.62
						c0,7.593-6.156,13.749-13.749,13.749h-9.62c-7.593,0-13.748-6.155-13.748-13.749v-9.62
						C2085.679,1456.434,2091.834,1450.278,2099.427,1450.278z"/>
				</g>
				<g>
					<path style="fill:#FFEFF0;" d="M2036.111,1450.278h9.62c7.593,0,13.748,6.155,13.748,13.749v9.62
						c0,7.593-6.155,13.749-13.748,13.749h-9.62c-7.593,0-13.748-6.155-13.748-13.749v-9.62
						C2022.362,1456.434,2028.518,1450.278,2036.111,1450.278z"/>
				</g>
				<g>
					<path style="fill:#FFEFF0;" d="M1972.781,1450.278h9.62c7.593,0,13.748,6.155,13.748,13.749v9.62
						c0,7.593-6.155,13.749-13.748,13.749h-9.62c-7.593,0-13.749-6.155-13.749-13.749v-9.62
						C1959.033,1456.434,1965.188,1450.278,1972.781,1450.278z"/>
				</g>
				<g>
					<path style="fill:#C5DCDD;" d="M2091.773,1443.476h9.62c7.593,0,13.749,6.155,13.749,13.748v9.62
						c0,7.593-6.155,13.748-13.749,13.748h-9.62c-7.593,0-13.749-6.155-13.749-13.748v-9.62
						C2078.024,1449.632,2084.18,1443.476,2091.773,1443.476z"/>
					<path d="M2101.393,1484.526h-9.62c-9.749,0-17.681-7.932-17.681-17.681v-9.62c0-9.749,7.931-17.681,17.681-17.681h9.62
						c9.749,0,17.681,7.932,17.681,17.681v9.62C2119.073,1476.594,2111.142,1484.526,2101.393,1484.526z M2091.773,1447.408
						c-5.414,0-9.817,4.404-9.817,9.817v9.62c0,5.413,4.403,9.817,9.817,9.817h9.62c5.414,0,9.817-4.404,9.817-9.817v-9.62
						c0-5.413-4.403-9.817-9.817-9.817H2091.773z"/>
				</g>
				<g>
					<path style="fill:#EFAF00;" d="M2028.443,1443.476h9.62c7.593,0,13.749,6.155,13.749,13.748v9.62
						c0,7.593-6.156,13.748-13.749,13.748h-9.62c-7.593,0-13.749-6.155-13.749-13.748v-9.62
						C2014.695,1449.632,2020.85,1443.476,2028.443,1443.476z"/>
					<path d="M2038.064,1484.526h-9.62c-9.749,0-17.68-7.932-17.68-17.681v-9.62c0-9.749,7.931-17.681,17.68-17.681h9.62
						c9.749,0,17.68,7.932,17.68,17.681v9.62C2055.744,1476.594,2047.813,1484.526,2038.064,1484.526z M2028.443,1447.408
						c-5.413,0-9.816,4.404-9.816,9.817v9.62c0,5.413,4.404,9.817,9.816,9.817h9.62c5.413,0,9.816-4.404,9.816-9.817v-9.62
						c0-5.413-4.404-9.817-9.816-9.817H2028.443z"/>
				</g>
				<g>
					<path style="fill:#F46F40;" d="M1965.127,1443.476h9.62c7.593,0,13.748,6.155,13.748,13.748v9.62
						c0,7.593-6.155,13.748-13.748,13.748h-9.62c-7.593,0-13.749-6.155-13.749-13.748v-9.62
						C1951.378,1449.632,1957.534,1443.476,1965.127,1443.476z"/>
					<path d="M1974.747,1484.526h-9.62c-9.749,0-17.681-7.932-17.681-17.681v-9.62c0-9.749,7.932-17.681,17.681-17.681h9.62
						c9.749,0,17.68,7.932,17.68,17.681v9.62C1992.427,1476.594,1984.496,1484.526,1974.747,1484.526z M1965.127,1447.408
						c-5.413,0-9.817,4.404-9.817,9.817v9.62c0,5.413,4.404,9.817,9.817,9.817h9.62c5.413,0,9.816-4.404,9.816-9.817v-9.62
						c0-5.413-4.404-9.817-9.816-9.817H1965.127z"/>
				</g>
			</g>
			<g id="ICONS_PAGE">
				<g>
					<path style="fill:#070707;" d="M3386.214,2611.378h-1198.11c-14.895,0-27.012-12.118-27.012-27.013v-201.627
						c0-14.894,12.117-27.012,27.012-27.012h1198.11c14.894,0,27.012,12.117,27.012,27.012v201.627
						C3413.227,2599.259,3401.108,2611.378,3386.214,2611.378z M2188.104,2363.59c-10.559,0-19.149,8.589-19.149,19.148v201.627
						c0,10.559,8.59,19.149,19.149,19.149h1198.11c10.559,0,19.149-8.59,19.149-19.149v-201.627
						c0-10.559-8.589-19.148-19.149-19.148H2188.104z"/>
				</g>
				<g id="DELIVERY">
					<g>
						<rect x="3050.812" y="2428.518" style="fill:#EFAF00;" width="143.619" height="110.932"/>
						<path d="M3194.431,2543.381h-143.619c-2.172,0-3.932-1.76-3.932-3.932v-110.931c0-2.171,1.76-3.932,3.932-3.932h143.619
							c2.172,0,3.932,1.76,3.932,3.932v110.931C3198.363,2541.621,3196.603,2543.381,3194.431,2543.381z M3054.744,2535.517h135.755
							V2432.45h-135.755V2535.517z"/>
					</g>
					<g>
						<polygon style="fill:#F4F1ED;" points="3255.244,2539.45 3194.431,2539.45 3194.431,2456.238 3224.837,2456.238 
							3255.244,2500.301 						"/>
						<path style="fill:#070707;" d="M3255.243,2543.381h-60.812c-2.172,0-3.932-1.76-3.932-3.932v-83.211
							c0-2.171,1.76-3.932,3.932-3.932h30.406c1.293,0,2.502,0.635,3.236,1.698l30.407,44.063c0.453,0.656,0.696,1.436,0.696,2.233
							v39.149C3259.175,2541.621,3257.416,2543.381,3255.243,2543.381z M3198.363,2535.517h52.948v-33.992l-28.539-41.356h-24.409
							V2535.517z"/>
					</g>
					<g>
						<polygon style="fill:#F4F1ED;" points="3205.44,2471.651 3220.958,2471.651 3236.489,2494.128 3205.44,2494.128 						"/>
						<path style="fill:#070707;" d="M3236.489,2498.06h-31.049c-2.172,0-3.932-1.76-3.932-3.932v-22.477
							c0-2.172,1.76-3.932,3.932-3.932h15.518c1.291,0,2.501,0.634,3.234,1.697l15.531,22.477c0.832,1.202,0.927,2.766,0.247,4.061
							C3239.292,2497.248,3237.951,2498.06,3236.489,2498.06z M3209.372,2490.196h19.621l-10.097-14.613h-9.524V2490.196z"/>
					</g>
					<g>
						<circle style="fill:#F4F1ED;" cx="3093.171" cy="2540.538" r="15.597"/>
						<path style="fill:#070707;" d="M3093.171,2560.066c-10.768,0-19.528-8.761-19.528-19.529s8.76-19.528,19.528-19.528
							c10.768,0,19.529,8.76,19.529,19.528S3103.939,2560.066,3093.171,2560.066z M3093.171,2528.873
							c-6.431,0-11.664,5.232-11.664,11.664s5.232,11.665,11.664,11.665c6.432,0,11.665-5.233,11.665-11.665
							S3099.603,2528.873,3093.171,2528.873z"/>
					</g>
					<g>
						<circle style="fill:#F4F1ED;" cx="3224.627" cy="2540.538" r="15.596"/>
						<path style="fill:#070707;" d="M3224.627,2560.066c-10.768,0-19.528-8.761-19.528-19.529s8.76-19.528,19.528-19.528
							s19.529,8.76,19.529,19.528S3235.395,2560.066,3224.627,2560.066z M3224.627,2528.873c-6.432,0-11.664,5.232-11.664,11.664
							s5.232,11.665,11.664,11.665s11.665-5.233,11.665-11.665S3231.058,2528.873,3224.627,2528.873z"/>
					</g>
					<g>
						<path style="fill:#070707;" d="M3165.597,2460.17h-45.807c-2.172,0-3.932-1.76-3.932-3.932s1.76-3.932,3.932-3.932h45.807
							c2.172,0,3.932,1.76,3.932,3.932S3167.769,2460.17,3165.597,2460.17z"/>
					</g>
					<g>
						<path style="fill:#070707;" d="M3149.07,2479.122h-45.794c-2.172,0-3.932-1.76-3.932-3.932c0-2.172,1.76-3.932,3.932-3.932
							h45.794c2.172,0,3.932,1.76,3.932,3.932C3153.002,2477.362,3151.242,2479.122,3149.07,2479.122z"/>
					</g>
					<g>
						<path style="fill:#070707;" d="M3165.597,2498.06h-45.807c-2.172,0-3.932-1.76-3.932-3.932c0-2.172,1.76-3.932,3.932-3.932
							h45.807c2.172,0,3.932,1.76,3.932,3.932C3169.529,2496.3,3167.769,2498.06,3165.597,2498.06z"/>
					</g>
				</g>
				<g id="GLOBE">
					<g>
						<circle style="fill:#F4F1ED;" cx="2917.888" cy="2491.415" r="64.509"/>
						<path style="fill:#070707;" d="M2917.889,2559.856c-37.74,0-68.442-30.703-68.442-68.441
							c0-37.739,30.703-68.441,68.442-68.441c37.738,0,68.44,30.703,68.44,68.441
							C2986.329,2529.154,2955.627,2559.856,2917.889,2559.856z M2917.889,2430.838c-33.403,0-60.578,27.175-60.578,60.578
							c0,33.402,27.175,60.577,60.578,60.577c33.402,0,60.577-27.175,60.577-60.577
							C2978.465,2458.013,2951.29,2430.838,2917.889,2430.838z"/>
					</g>
					<g>
						<path style="fill:#070707;" d="M2918.164,2560.053c-2.172,0-3.932-1.76-3.932-3.932v-129.019c0-2.171,1.76-3.932,3.932-3.932
							c2.172,0,3.932,1.76,3.932,3.932v129.019C2922.096,2558.293,2920.336,2560.053,2918.164,2560.053z"/>
					</g>
					<g>
						<path style="fill:#F4F1ED;" d="M2929.566,2427.47c0,0,43.002,49.896,0,128.232"/>
						<path style="fill:#070707;" d="M2929.563,2559.635c-0.64,0-1.288-0.157-1.888-0.487c-1.905-1.044-2.6-3.435-1.555-5.338
							c41.212-75.077,0.881-123.295,0.469-123.773c-1.418-1.645-1.234-4.128,0.411-5.545c1.646-1.416,4.126-1.234,5.546,0.412
							c0.465,0.539,11.435,13.458,16.969,36.383c5.067,20.99,6.318,54.738-16.501,96.307
							C2932.298,2558.896,2930.951,2559.635,2929.563,2559.635z"/>
					</g>
					<g>
						<path style="fill:#070707;" d="M2906.752,2559.635c-1.389,0-2.735-0.737-3.45-2.042
							c-22.82-41.569-21.569-75.316-16.501-96.307c5.534-22.926,16.504-35.844,16.969-36.383c1.417-1.647,3.901-1.828,5.546-0.412
							c1.644,1.417,1.828,3.896,0.415,5.542c-0.186,0.218-10.378,12.38-15.385,33.512c-4.636,19.562-5.648,51.102,15.849,90.264
							c1.044,1.903,0.349,4.294-1.555,5.338C2908.04,2559.477,2907.391,2559.635,2906.752,2559.635z"/>
					</g>
					<g>
						<path style="fill:#070707;" d="M2982.66,2495.543h-129.006c-2.172,0-3.932-1.76-3.932-3.932c0-2.172,1.76-3.932,3.932-3.932
							h129.006c2.172,0,3.932,1.76,3.932,3.932C2986.592,2493.783,2984.832,2495.543,2982.66,2495.543z"/>
					</g>
					<g>
						<path style="fill:#070707;" d="M2957.465,2546.018c-0.669,0-1.348-0.171-1.969-0.531c-38.012-22.045-75.122-0.256-75.49-0.032
							c-1.864,1.12-4.278,0.516-5.396-1.344c-1.119-1.862-0.517-4.277,1.344-5.396c1.675-1.007,41.506-24.373,83.487-0.032
							c1.879,1.09,2.519,3.495,1.43,5.374C2960.141,2545.315,2958.821,2546.016,2957.465,2546.018z"/>
					</g>
					<g>
						<path style="fill:#070707;" d="M2918.779,2455.881c-23.997,0-41.72-10.406-42.826-11.071
							c-1.861-1.119-2.463-3.535-1.344-5.396c1.117-1.858,3.528-2.462,5.391-1.348l0,0c0.372,0.223,37.609,21.939,75.495-0.028
							c1.878-1.092,4.285-0.45,5.375,1.429c1.089,1.878,0.449,4.285-1.43,5.374
							C2945.168,2453.119,2931.141,2455.881,2918.779,2455.881z"/>
					</g>
				</g>
				<g id="SEARCH">
					<g>
						<ellipse style="fill:#FFEFF0;" cx="2731.045" cy="2478.165" rx="47.287" ry="44.955"/>
					</g>
					<g>
						<ellipse style="fill:#EFAF00;" cx="2722.12" cy="2473.276" rx="48.677" ry="46.265"/>
						<path d="M2722.12,2523.473c-29.009,0-52.609-22.519-52.609-50.197c0-27.679,23.6-50.198,52.609-50.198
							c29.008,0,52.608,22.519,52.608,50.198C2774.728,2500.955,2751.128,2523.473,2722.12,2523.473z M2722.12,2430.943
							c-24.673,0-44.746,18.991-44.746,42.334s20.073,42.333,44.746,42.333c24.672,0,44.744-18.99,44.744-42.333
							S2746.792,2430.943,2722.12,2430.943z"/>
					</g>
					<g>
						<path style="fill:#070707;" d="M2746.459,2500.34c-1.056,0-2.109-0.422-2.884-1.257c-1.477-1.592-1.384-4.081,0.208-5.557
							c0.497-0.461,0.977-0.941,1.437-1.438c5.026-5.41,7.644-12.452,7.372-19.831c-0.273-7.378-3.401-14.209-8.811-19.233
							c-1.591-1.479-1.682-3.966-0.205-5.557c1.477-1.59,3.965-1.684,5.557-0.205c6.948,6.455,10.968,15.228,11.317,24.706
							s-3.013,18.523-9.468,25.471c-0.59,0.636-1.213,1.26-1.851,1.851C2748.375,2499.993,2747.415,2500.34,2746.459,2500.34z"/>
					</g>
					<g>
						<path style="fill:#EFAF00;" d="M2756.484,2522.202l30.145,31.704c2.684,2.761,7.048,2.973,9.987,0.485l0,0
							c2.764-2.336,3.111-6.471,0.775-9.235c-0.081-0.096-0.165-0.189-0.251-0.28l-30.145-31.704
							c-2.684-2.761-7.048-2.973-9.987-0.485l0,0c-2.764,2.336-3.111,6.471-0.775,9.235
							C2756.314,2522.018,2756.398,2522.111,2756.484,2522.202z"/>
						<path d="M2791.89,2560.045c-2.949,0-5.89-1.146-8.081-3.399l-30.174-31.734c-0.004-0.004-0.008-0.008-0.01-0.011
							c-0.138-0.145-0.273-0.296-0.402-0.449c-3.723-4.407-3.168-11.035,1.248-14.768c4.494-3.806,11.238-3.48,15.344,0.748
							l30.174,31.735c0.137,0.142,0.277,0.299,0.412,0.461c1.801,2.128,2.667,4.844,2.435,7.635
							c-0.234,2.792-1.542,5.324-3.681,7.133C2797.056,2559.169,2794.469,2560.045,2791.89,2560.045z M2759.344,2519.503
							l30.134,31.693c1.211,1.243,3.245,1.34,4.597,0.193c0.538-0.453,0.864-1.087,0.923-1.784s-0.159-1.376-0.611-1.91
							c-0.002-0.004-0.095-0.107-0.097-0.11l-30.145-31.705c-1.208-1.243-3.242-1.34-4.596-0.193
							c-1.106,0.934-1.245,2.593-0.312,3.696L2759.344,2519.503z"/>
					</g>
				</g>
				<g id="PRESENT">
					<g>
						<path style="fill:#C5DCDD;" d="M2507.321,2446.264h91.351c4.806,0,8.703,3.896,8.703,8.703v91.351
							c0,4.806-3.896,8.702-8.703,8.702h-91.351c-4.806,0-8.703-3.896-8.703-8.702v-91.351
							C2498.618,2450.16,2502.514,2446.264,2507.321,2446.264z"/>
						<path d="M2598.671,2558.951h-91.351c-6.967,0-12.635-5.667-12.635-12.634v-91.35c0-6.967,5.668-12.635,12.635-12.635h91.351
							c6.967,0,12.635,5.668,12.635,12.635v91.35C2611.307,2553.284,2605.638,2558.951,2598.671,2558.951z M2507.321,2450.196
							c-2.631,0-4.771,2.14-4.771,4.771v91.35c0,2.63,2.14,4.77,4.771,4.77h91.351c2.631,0,4.771-2.14,4.771-4.77v-91.35
							c0-2.631-2.14-4.771-4.771-4.771H2507.321z"/>
					</g>
					<g>
						<path style="fill:#C5DCDD;" d="M2490.191,2446.264h83.199c4.806,0,8.702,3.896,8.702,8.703v91.351
							c0,4.806-3.896,8.702-8.702,8.702h-83.199c-4.806,0-8.703-3.896-8.703-8.702v-91.351
							C2481.488,2450.16,2485.385,2446.264,2490.191,2446.264z"/>
						<path d="M2573.389,2558.951h-83.198c-6.967,0-12.635-5.667-12.635-12.634v-91.35c0-6.967,5.668-12.635,12.635-12.635h83.198
							c6.967,0,12.635,5.668,12.635,12.635v91.35C2586.024,2553.284,2580.356,2558.951,2573.389,2558.951z M2490.191,2450.196
							c-2.631,0-4.771,2.14-4.771,4.771v91.35c0,2.63,2.14,4.77,4.771,4.77h83.198c2.632,0,4.771-2.14,4.771-4.77v-91.35
							c0-2.631-2.14-4.771-4.771-4.771H2490.191z"/>
					</g>
					<g>
						<path style="fill:#070707;" d="M2533.428,2564.849c-2.171,0-3.932-1.76-3.932-3.932v-121.495c0-2.171,1.76-3.932,3.932-3.932
							s3.933,1.76,3.933,3.932v121.495C2537.361,2563.089,2535.6,2564.849,2533.428,2564.849z"/>
					</g>
					<g>
						<path style="fill:#070707;" d="M2612.185,2504.312h-136.043c-2.171,0-3.932-1.76-3.932-3.932c0-2.172,1.76-3.932,3.932-3.932
							h136.043c2.172,0,3.932,1.76,3.932,3.932C2616.116,2502.552,2614.357,2504.312,2612.185,2504.312z"/>
					</g>
					<g>
						<path style="fill:#070707;" d="M2557.727,2450.183h-24.286c-2.171,0-3.932-1.76-3.932-3.932v-18.611
							c0-11.151,9.073-20.223,20.223-20.223c0.11,0,0.219,0.005,0.328,0.013h7.667c11.152,0,20.224,9.072,20.224,20.223v2.307
							C2577.951,2441.111,2568.879,2450.183,2557.727,2450.183z M2537.374,2442.319h20.353c6.815,0,12.36-5.544,12.36-12.359v-2.307
							c0-6.815-5.545-12.359-12.36-12.359h-7.994c-0.096,0-0.191-0.003-0.285-0.01c-6.684,0.152-12.073,5.637-12.073,12.356
							V2442.319z"/>
					</g>
					<g>
						<path style="fill:#070707;" d="M2533.245,2450.196h-22.188c-9.265,0-16.803-7.538-16.803-16.803v-1.821
							c0-9.265,7.537-16.803,16.803-16.803h9.318c9.265,0,16.802,7.537,16.802,16.803v14.692
							C2537.177,2448.435,2535.416,2450.196,2533.245,2450.196z M2511.056,2422.633c-4.929,0-8.939,4.01-8.939,8.939v1.821
							c0,4.929,4.01,8.939,8.939,8.939h18.257v-10.76c0-4.929-4.01-8.939-8.938-8.939H2511.056z"/>
					</g>
					<g>
						<path style="fill:#070707;" d="M2553.718,2472.464c-1.062,0-2.12-0.427-2.895-1.27l-17.708-19.25l-9.618,9.628
							c-1.534,1.536-4.024,1.538-5.561,0.003c-1.537-1.535-1.538-4.025-0.003-5.561l12.517-12.53
							c0.758-0.758,1.81-1.156,2.863-1.153c1.072,0.022,2.087,0.481,2.813,1.269l20.485,22.268c1.471,1.599,1.366,4.085-0.232,5.556
							C2555.624,2472.121,2554.669,2472.464,2553.718,2472.464z"/>
					</g>
				</g>
				<g id="PACK">
					<g>
						<path style="fill:#070707;" d="M2360.517,2447.968h-30.511c-2.171,0-3.932-1.76-3.932-3.932v-19.449
							c0-10.024,8.155-18.178,18.178-18.178h2.019c10.023,0,18.178,8.155,18.178,18.178v19.449
							C2364.449,2446.207,2362.688,2447.968,2360.517,2447.968z M2333.938,2440.104h22.647v-15.518
							c0-5.687-4.627-10.315-10.315-10.315h-2.019c-5.687,0-10.314,4.627-10.314,10.315V2440.104z"/>
					</g>
					<g>
						<path style="fill:#070707;" d="M2349.744,2447.968h-30.512c-2.171,0-3.932-1.76-3.932-3.932v-19.449
							c0-10.024,8.155-18.178,18.178-18.178h2.018c10.024,0,18.179,8.155,18.179,18.178v19.449
							C2353.676,2446.207,2351.916,2447.968,2349.744,2447.968z M2323.164,2440.104h22.648v-15.518
							c0-5.687-4.627-10.315-10.315-10.315h-2.018c-5.688,0-10.315,4.627-10.315,10.315V2440.104z"/>
					</g>
					<g>
						<polygon style="fill:#1C0E0C;" points="2392.051,2556.121 2359.102,2556.121 2372.837,2443.983 2378.315,2443.983 						"/>
					</g>
					<g>
						<polygon style="fill:#EFAF00;" points="2372.837,2443.983 2359.102,2556.121 2280.857,2556.121 2294.58,2443.983 						"/>
						<path d="M2359.102,2560.053h-78.244c-1.126,0-2.198-0.483-2.944-1.326c-0.746-0.844-1.095-1.966-0.959-3.083l13.722-112.138
							c0.242-1.972,1.916-3.455,3.903-3.455h78.258c1.126,0,2.198,0.483,2.944,1.326c0.746,0.843,1.095,1.966,0.958,3.084
							l-13.736,112.139C2362.763,2558.571,2361.088,2560.053,2359.102,2560.053z M2285.3,2552.189h70.322l12.772-104.274h-70.335
							L2285.3,2552.189z"/>
					</g>
				</g>
			</g>
			<g id="BAG_PAGE">
				<g>
					<path style="fill:#1C0E0C;" d="M2742.002,1903.074h264.616c12.747,0,23.08,10.333,23.08,23.08v264.616
						c0,12.747-10.333,23.08-23.08,23.08h-264.616c-12.747,0-23.08-10.333-23.08-23.08v-264.616
						C2718.922,1913.408,2729.255,1903.074,2742.002,1903.074z"/>
				</g>
				<g>
					<path style="fill:#F4F1ED;" d="M2729.079,1889.994h264.616c12.747,0,23.08,10.333,23.08,23.08v264.616
						c0,12.747-10.333,23.08-23.08,23.08h-264.616c-12.747,0-23.08-10.333-23.08-23.08v-264.616
						C2705.999,1900.328,2716.332,1889.994,2729.079,1889.994z"/>
					<path style="fill:#070707;" d="M2993.695,2204.702h-264.616c-14.894,0-27.011-12.118-27.011-27.012v-264.616
						c0-14.894,12.117-27.012,27.011-27.012h264.616c14.894,0,27.011,12.118,27.011,27.012v264.616
						C3020.706,2192.584,3008.589,2204.702,2993.695,2204.702z M2729.079,1893.926c-10.558,0-19.147,8.59-19.147,19.148v264.616
						c0,10.558,8.589,19.148,19.147,19.148h264.616c10.558,0,19.147-8.59,19.147-19.148v-264.616
						c0-10.558-8.589-19.148-19.147-19.148H2729.079z"/>
				</g>
				<g id="BAG">
					<g>
						<path style="fill:#EFAF00;" d="M2916.42,2166.917h-88.441c-30.662,0.024-55.538-24.813-55.561-55.475
							c-0.003-4.232,0.477-8.45,1.432-12.573l17.824-63.067c1.273-5.489,6.161-9.378,11.796-9.384h137.38
							c5.637,0.002,10.527,3.892,11.796,9.384l17.838,63.067c6.906,29.889-11.726,59.717-41.615,66.622
							C2924.786,2166.434,2920.61,2166.913,2916.42,2166.917z"/>
					</g>
					<g>
						<path style="fill:#070707;" d="M2905.738,2161.241L2905.738,2161.241h-88.44c-15.886,0.001-30.823-6.187-42.057-17.419
							c-11.234-11.234-17.421-26.17-17.421-42.057c0-4.503,0.514-9.013,1.531-13.403c0.014-0.062,0.031-0.123,0.047-0.184
							l17.813-62.967c1.719-7.271,8.12-12.343,15.601-12.347h137.396c7.482,0.011,13.882,5.083,15.603,12.347l17.801,62.968
							c0.017,0.06,0.033,0.121,0.047,0.182c7.397,31.943-12.571,63.949-44.514,71.347
							C2914.757,2160.725,2910.246,2161.241,2905.738,2161.241z M2766.992,2090.226c-0.868,3.781-1.308,7.662-1.308,11.539
							c0,13.786,5.369,26.748,15.117,36.496c9.749,9.749,22.711,15.116,36.497,15.116h88.44c3.91,0,7.824-0.448,11.633-1.33
							c27.687-6.412,45.007-34.133,38.647-61.821l-17.798-62.962c-0.018-0.061-0.033-0.123-0.047-0.186
							c-0.861-3.733-4.139-6.344-7.971-6.35h-137.387c-3.83,0.002-7.106,2.612-7.964,6.346c-0.014,0.063-0.031,0.127-0.049,0.189
							L2766.992,2090.226z"/>
					</g>
					<g>
						<path style="fill:#070707;" d="M2914.205,2020.729H2808.83c-1.94,0-3.59-1.415-3.886-3.333
							c-0.599-3.887-0.901-7.847-0.897-11.769c0-36.636,25.775-66.445,57.458-66.445c31.696,0,57.482,29.809,57.485,66.446l0,0
							c0.003,3.934-0.3,7.893-0.898,11.769C2917.795,2019.315,2916.144,2020.729,2914.205,2020.729z M2812.286,2012.865h98.465
							c0.251-2.401,0.376-4.821,0.375-7.232c0-0.001,0-0.002,0-0.003c0-32.304-22.26-58.585-49.621-58.585
							c-27.346,0-49.594,26.281-49.594,58.585C2811.908,2008.038,2812.034,2010.46,2812.286,2012.865z M2918.989,2005.631h0.013
							H2918.989z"/>
					</g>
					<g>
						<path style="fill:#070707;" d="M2861.505,2098.541c-20.462,0-40.254-8.027-55.735-22.603
							c-15.67-14.756-24.803-34.334-25.716-55.128c-0.046-1.054,0.333-2.082,1.053-2.854c3.017-3.234,7.284-5.09,11.706-5.09
							h137.382c4.421,0.003,8.692,1.849,11.721,5.063c0.728,0.773,1.112,1.809,1.066,2.87
							C2941.098,2063.666,2904.548,2098.541,2861.505,2098.541z M2788.013,2022.296c1.265,18.054,9.439,35.009,23.147,47.917
							c14.015,13.197,31.894,20.465,50.344,20.465c38.274,0,70.866-30.51,73.517-68.383c-1.395-1.005-3.09-1.564-4.829-1.565
							h-137.378C2791.083,2020.73,2789.398,2021.288,2788.013,2022.296z"/>
					</g>
					<g>
						<path style="fill:#070707;" d="M2866.852,2111.621h-10.681c-2.172,0-3.932-1.76-3.932-3.932v-25.151
							c0-2.171,1.76-3.932,3.932-3.932h10.681c2.172,0,3.932,1.76,3.932,3.932v25.151
							C2870.784,2109.861,2869.024,2111.621,2866.852,2111.621z M2860.103,2103.758h2.817v-17.287h-2.817V2103.758z"/>
					</g>
				</g>
				<g>
					<circle style="fill:#C5DCDD;" cx="2955.188" cy="1893.808" r="34.352"/>
					<path d="M2955.189,1932.092c-21.11,0-38.283-17.174-38.283-38.283c0-21.11,17.174-38.283,38.283-38.283
						s38.283,17.174,38.283,38.283C2993.472,1914.918,2976.299,1932.092,2955.189,1932.092z M2955.189,1863.388
						c-16.773,0-30.42,13.646-30.42,30.42s13.646,30.42,30.42,30.42s30.42-13.646,30.42-30.42S2971.962,1863.388,2955.189,1863.388z
						"/>
				</g>
				<g>
					<path style="fill:#070707;" d="M2953.812,1912.668c-1.267,0-2.468-0.614-3.208-1.66l-11.272-15.925
						c-1.256-1.773-0.836-4.226,0.937-5.481c1.775-1.255,4.229-0.833,5.481,0.938l7.375,10.419l11.166-23.751
						c0.923-1.965,3.265-2.809,5.231-1.885c1.965,0.923,2.809,3.266,1.885,5.231l-14.035,29.856
						c-0.595,1.266-1.818,2.12-3.211,2.244C2954.043,1912.663,2953.928,1912.668,2953.812,1912.668z"/>
				</g>
			</g>
			<g id="SHOES_PAGE">
				<g>
					<path style="fill:#070707;" d="M3393.489,1836.743h-668.485c-12.647,0-22.936-10.289-22.936-22.936v-98.979
						c0-12.647,10.289-22.936,22.936-22.936h668.485c12.647,0,22.936,10.289,22.936,22.936v98.979
						C3416.425,1826.454,3406.136,1836.743,3393.489,1836.743z M2725.004,1699.756c-8.311,0-15.072,6.761-15.072,15.072v98.979
						c0,8.311,6.762,15.072,15.072,15.072h668.485c8.311,0,15.072-6.761,15.072-15.072v-98.979c0-8.311-6.762-15.072-15.072-15.072
						H2725.004z"/>
				</g>
				<g>
					<path style="fill:#F4F1ED;" d="M2913.629,1809.613h-97.209c0,0-26.593-42.7-35.675-42.7c-5.242,0-7.392,42.713-7.392,42.713
						h-6.055c0,0-14.155-87.235,1.533-92.229c10.223-3.25,37.904,5.4,45.505,39.646c6.422,28.834,43.342,34.011,47.445,14.98
						C2861.78,1772.011,2911.898,1786.782,2913.629,1809.613z"/>
					<path style="fill:#070707;" d="M2773.352,1813.558h-6.055c-1.929,0-3.572-1.398-3.881-3.302
						c-0.036-0.22-3.586-22.244-5.158-44.596c-2.989-42.501,3.443-50.12,9.379-52.01c6.443-2.047,16.106-0.199,24.629,4.707
						c7.497,4.315,20.831,14.967,25.907,37.835c3.389,15.214,16.279,23.155,27.292,23.155c0.026,0,0.051-0.001,0.078-0.001
						c2.497-0.008,10.771-0.621,12.393-8.15c0.379-1.756,1.899-3.032,3.695-3.101c1.608-0.069,15.66,4.721,27.237,10.667
						c18.204,9.351,27.853,19.631,28.681,30.554c0.083,1.091-0.293,2.167-1.037,2.97c-0.745,0.802-1.789,1.259-2.884,1.259h-97.209
						c-1.358,0-2.62-0.701-3.338-1.853c-13.291-21.338-25.948-36.923-31.062-40.224c-1.684,4.811-3.785,19.378-4.741,38.356
						C2777.174,1811.916,2775.447,1813.558,2773.352,1813.558z M2818.584,1805.682h90.079c-3.361-8.079-13.943-15.024-22.936-19.691
						c-8.427-4.373-16.906-7.492-21.505-9.05c-3.113,6.4-9.912,10.239-18.652,10.269c-0.033,0-0.069,0.001-0.103,0.001
						c-14.152,0-30.679-10.051-34.971-29.312c-4.422-19.927-15.777-29.057-22.151-32.727c-7.578-4.361-14.809-5.143-18.323-4.028
						c-0.279,0.089-6.824,2.658-3.919,43.964c0.97,13.801,2.707,27.473,3.874,35.799c0.284-3.796,0.681-8.448,1.197-13.074
						c2.102-18.813,4.427-24.852,9.57-24.852c3.795,0,9.665,2.729,24.421,22.965
						C2811.034,1793.997,2816.316,1802.129,2818.584,1805.682z"/>
				</g>
				<g>
					<path style="fill:#F4F1ED;" d="M3163.002,1788.669c-0.17,2.031-3.827,11.704-3.827,11.704l-186.869-6.33v-10.485
						c0.208-13.543,3.305-26.885,9.083-39.135c4.862-10.131,11.586-7.602,11.586-7.602s18.27,17.864,38.768,17.864
						c3.637-0.035,6.986-1.989,8.807-5.138c1.206-1.889,2.145-3.935,2.792-6.081c0.863-2.795,1.464-5.665,1.796-8.572
						c0.539-4.222,4.399-7.207,8.621-6.668c0.883,0.113,1.74,0.378,2.532,0.783c8.047,4.141,17.812,13.395,43.972,27.523
						c1.311,0.708,2.621,1.442,4.063,2.176C3136.147,1775.472,3162.661,1769.246,3163.002,1788.669z"/>
					<path style="fill:#070707;" d="M3159.176,1804.305c-0.045,0-0.09-0.001-0.135-0.003l-186.869-6.33
						c-2.118-0.072-3.799-1.81-3.799-3.929v-10.485c0.219-14.259,3.401-27.97,9.458-40.813c5.092-10.609,13.04-10.919,16.528-9.604
						c0.509,0.191,0.974,0.488,1.364,0.868c0.169,0.165,17.409,16.743,36.018,16.743c2.199-0.022,4.285-1.238,5.405-3.174
						c0.028-0.05,0.058-0.099,0.088-0.146c1.012-1.585,1.8-3.301,2.342-5.1c0.796-2.583,1.35-5.227,1.654-7.883
						c0.399-3.136,1.971-5.882,4.43-7.784c2.46-1.902,5.521-2.734,8.595-2.338c1.339,0.17,2.626,0.569,3.827,1.183
						c3.252,1.673,6.662,4.05,10.98,7.058c7.129,4.967,16.894,11.77,33.068,20.505l1.087,0.59c0.929,0.507,1.876,1.024,2.891,1.54
						c12.405,6.534,24.144,9.515,33.577,11.91c14.483,3.677,26.991,6.853,27.248,21.486c0.001,0.132-0.003,0.266-0.014,0.397
						c-0.188,2.244-2.629,8.962-4.068,12.766C3162.273,1803.297,3160.805,1804.305,3159.176,1804.305z M2976.237,1790.242
						l180.234,6.105c1.23-3.391,2.37-6.795,2.591-7.909c-0.265-7.708-5.518-9.692-21.312-13.702
						c-9.836-2.498-22.077-5.605-35.258-12.549c-1.034-0.526-2.048-1.078-3.04-1.619l-1.059-0.575
						c-16.568-8.948-26.543-15.898-33.827-20.973c-4.078-2.841-7.298-5.084-10.077-6.514c-0.38-0.195-0.797-0.324-1.231-0.379
						c-0.997-0.127-1.989,0.141-2.788,0.758c-0.797,0.617-1.307,1.508-1.435,2.507c-0.351,3.087-1.006,6.211-1.939,9.233
						c-0.735,2.441-1.811,4.793-3.19,6.969c-2.516,4.286-7.155,6.975-12.128,7.023c-19.494,0-36.598-14.444-40.665-18.151
						c-1.14-0.028-3.748,0.585-6.183,5.658c-5.564,11.799-8.494,24.422-8.695,37.494V1790.242z"/>
				</g>
				<g>
					<path style="fill:#EFAF00;" d="M3141.992,1809.613c5.413,0,12.005-2.451,15.557-6.409c4.46-5.233,6.255-12.232,4.862-18.965
						h-0.144c-1.553,8.144-8.579,14.1-16.868,14.299l-162.007-4.758c-5.097-0.16-9.541-3.516-11.088-8.375v10.878
						c0,7.366,5.347,13.329,11.927,13.329L3141.992,1809.613z"/>
					<path d="M3141.992,1813.546l-157.76-0.001c-8.744,0-15.858-7.743-15.858-17.261v-10.878c0-1.938,1.413-3.588,3.328-3.885
						c1.926-0.303,3.761,0.846,4.35,2.692c1.039,3.264,4.039,5.531,7.464,5.638l161.888,4.754
						c6.351-0.199,11.81-4.853,13.001-11.103c0.354-1.854,1.975-3.195,3.863-3.195h0.143c1.865,0,3.472,1.309,3.85,3.136
						c1.651,7.978-0.434,16.111-5.72,22.312C3156.334,1810.445,3148.907,1813.546,3141.992,1813.546z M2976.237,1795.824v0.46
						c0,5.182,3.586,9.397,7.994,9.397l157.76,0.001c4.59,0,10.02-2.194,12.631-5.103c0.198-0.234,0.39-0.472,0.577-0.714
						c-2.922,1.59-6.23,2.521-9.706,2.604c-0.072,0.001-0.141,0.001-0.21-0.001l-162.007-4.757
						C2980.761,1797.632,2978.363,1796.964,2976.237,1795.824z"/>
				</g>
				<g>
					<path style="fill:#EFAF00;" d="M3107.379,1760.36c-40.472-13.84-60.721-20.105-64.037-16.776
						c0.863-2.795,1.464-5.665,1.796-8.571c0.539-4.222,4.399-7.207,8.621-6.668c0.883,0.113,1.74,0.378,2.532,0.783
						C3064.338,1733.204,3077.798,1745.497,3107.379,1760.36z"/>
					<path d="M3107.379,1764.293c-0.422,0-0.851-0.068-1.272-0.213c-20.553-7.028-54.813-18.75-60.353-17.391
						c-1.27,0.987-3.035,1.109-4.439,0.264c-1.55-0.932-2.264-2.8-1.73-4.529c0.788-2.558,1.343-5.202,1.646-7.857
						c0.399-3.136,1.971-5.882,4.43-7.784c2.46-1.902,5.521-2.734,8.595-2.339c1.339,0.17,2.626,0.569,3.827,1.183
						c2.967,1.503,6.499,3.958,10.973,7.066c8.294,5.764,20.827,14.474,40.089,24.152c1.848,0.929,2.661,3.129,1.86,5.036
						C3110.375,1763.379,3108.922,1764.293,3107.379,1764.293z M3046.127,1746.359c0,0.001-0.001,0.001-0.001,0.003
						C3046.125,1746.36,3046.127,1746.359,3046.127,1746.359z M3048.534,1738.89c4.862,0.389,12.328,2.209,24.258,5.894
						c-3.122-2.086-5.844-3.978-8.225-5.632c-4.222-2.935-7.558-5.253-10.054-6.517c-0.403-0.207-0.821-0.335-1.254-0.39
						c-0.997-0.127-1.989,0.141-2.788,0.758c-0.797,0.617-1.307,1.508-1.435,2.507
						C3048.909,1736.634,3048.741,1737.763,3048.534,1738.89z"/>
				</g>
				<g>
					<path style="fill:#070707;" d="M3063.207,1746.022c-0.741,0-1.49-0.209-2.155-0.647c-1.815-1.192-2.319-3.63-1.126-5.445
						l7.339-11.166c1.421-2.164,3.602-3.646,6.137-4.172c2.538-0.525,5.127-0.032,7.292,1.39c0.125,0.082,0.255,0.171,0.383,0.264
						c3.923,2.875,5.117,8.238,2.793,12.487l-0.983,1.797c-1.043,1.904-3.43,2.605-5.337,1.561
						c-1.905-1.042-2.603-3.432-1.562-5.337l0.983-1.796c0.439-0.802,0.214-1.817-0.526-2.358c-0.914-0.602-2.052-0.365-2.607,0.481
						l-7.34,11.167C3065.741,1745.398,3064.487,1746.022,3063.207,1746.022z"/>
				</g>
				<g>
					<path style="fill:#070707;" d="M3094.032,1752.693c-0.643,0-1.294-0.158-1.897-0.491c-1.901-1.05-2.591-3.442-1.541-5.343
						l1.94-3.513c0.324-0.559,0.198-1.181-0.248-1.522c-0.361-0.252-0.673-0.251-0.879-0.214c-0.207,0.038-0.5,0.148-0.717,0.462
						l-5.34,7.982c-1.207,1.805-3.648,2.289-5.454,1.082c-1.805-1.208-2.29-3.65-1.082-5.454l5.375-8.034
						c1.399-2.023,3.45-3.346,5.809-3.774c2.363-0.433,4.745,0.086,6.717,1.451c0.109,0.075,0.22,0.156,0.329,0.239
						c3.599,2.736,4.601,7.747,2.332,11.657l-1.899,3.44C3096.761,1751.96,3095.417,1752.693,3094.032,1752.693z"/>
				</g>
				<g>
					<path style="fill:#070707;" d="M3109.171,1760.36c-0.81,0-1.625-0.248-2.327-0.765c-1.75-1.287-2.125-3.748-0.837-5.497
						c0.808-1.099,0.699-2.082,0.308-2.37c-0.415-0.308-0.827-0.299-1.046-0.271c-0.212,0.031-0.613,0.143-0.913,0.545l-3.243,5.309
						c-1.134,1.853-3.553,2.437-5.406,1.306c-1.852-1.132-2.437-3.552-1.305-5.405l3.291-5.386c0.028-0.044,0.055-0.088,0.084-0.131
						c0.087-0.131,0.177-0.259,0.271-0.385c1.477-1.985,3.637-3.274,6.082-3.632c2.446-0.36,4.884,0.258,6.868,1.734
						c4.051,2.989,4.646,8.856,1.341,13.348C3111.57,1759.806,3110.378,1760.36,3109.171,1760.36z"/>
				</g>
				<g>
					<circle style="fill:#F46F40;" cx="3350.579" cy="1695.825" r="29.384"/>
					<path d="M3350.579,1729.141c-18.371,0-33.316-14.946-33.316-33.316c0-18.371,14.946-33.316,33.316-33.316
						s33.316,14.945,33.316,33.316C3383.895,1714.195,3368.949,1729.141,3350.579,1729.141z M3350.579,1670.372
						c-14.034,0-25.452,11.418-25.452,25.452c0,14.034,11.418,25.452,25.452,25.452s25.452-11.418,25.452-25.452
						C3376.031,1681.79,3364.613,1670.372,3350.579,1670.372z"/>
				</g>
				<g>
					<path style="fill:#070707;" d="M3340.919,1709.783c-0.982,0-1.965-0.365-2.728-1.1c-1.564-1.507-1.61-3.996-0.104-5.56
						l19.319-20.052c1.508-1.563,3.995-1.609,5.559-0.104c1.564,1.507,1.61,3.996,0.104,5.56l-19.319,20.052
						C3342.979,1709.379,3341.95,1709.783,3340.919,1709.783z"/>
				</g>
				<g>
					<path style="fill:#070707;" d="M3360.238,1709.783c-1.03,0-2.059-0.403-2.831-1.204l-19.319-20.052
						c-1.506-1.564-1.46-4.053,0.104-5.56c1.563-1.506,4.052-1.46,5.559,0.104l19.319,20.052c1.506,1.564,1.46,4.053-0.104,5.56
						C3362.203,1709.417,3361.22,1709.783,3360.238,1709.783z"/>
				</g>
				<g>
					<path style="fill:#F4F1ED;" d="M3219.228,1762.758c0,0-20.97,46.855,9.489,46.855h141.391c0,0,5.688-22.949-31.036-28.834
						c-5.111-0.826-19.659-3.617-19.659-3.617s4.535,18.349-27.785,16.894C3259.307,1792.601,3244.693,1765.065,3219.228,1762.758z"
						/>
					<path style="fill:#070707;" d="M3370.106,1813.546h-141.389c-7.825,0-13.544-2.702-16.997-8.029
						c-4.038-6.233-4.549-15.707-1.516-28.161c2.145-8.808,5.302-15.905,5.435-16.203c0.686-1.533,2.272-2.46,3.943-2.31
						c12.756,1.155,22.567,7.839,32.957,14.914c11.287,7.688,22.959,15.637,39.265,16.371c14.006,0.63,19.719-2.613,22.041-5.445
						c2.482-3.026,1.757-6.544,1.75-6.578c-0.323-1.301,0.041-2.677,0.964-3.649c0.923-0.972,2.273-1.408,3.594-1.156
						c0.145,0.028,14.55,2.79,19.545,3.598c14.857,2.381,25.154,7.761,30.599,15.992c5.757,8.703,3.716,17.308,3.626,17.669
						C3373.488,1812.314,3371.914,1813.546,3370.106,1813.546z M3221.694,1767.053c-3.445,8.744-8.578,26.167-3.373,34.19
						c1.938,2.987,5.339,4.439,10.396,4.439h137.775c-0.084-2.204-0.669-5.368-2.845-8.59c-4.157-6.156-12.869-10.454-25.198-12.429
						c-3.306-0.534-10.352-1.851-15.083-2.745c-0.385,2.464-1.376,5.234-3.439,7.752c-5.035,6.142-14.609,8.945-28.477,8.316
						c-18.536-0.834-31.712-9.81-43.339-17.728C3239.438,1774.348,3231.2,1768.738,3221.694,1767.053z"/>
				</g>
			</g>
			<g id="SHIRT_PAGE">
				<g>
					<path style="fill:#1C0E0C;" d="M2208.773,1716.755h450.922c12.747,0,23.08,10.333,23.08,23.08v450.922
						c0,12.747-10.333,23.08-23.08,23.08h-450.922c-12.747,0-23.08-10.333-23.08-23.08v-450.922
						C2185.693,1727.089,2196.026,1716.755,2208.773,1716.755z"/>
				</g>
				<g>
					<path style="fill:#EFAF00;" d="M2188.104,1695.825h450.922c12.747,0,23.08,10.333,23.08,23.08v450.922
						c0,12.747-10.333,23.08-23.08,23.08h-450.922c-12.747,0-23.08-10.333-23.08-23.08v-450.922
						C2165.024,1706.158,2175.357,1695.825,2188.104,1695.825z"/>
					<path d="M2639.026,2196.838h-450.921c-14.895,0-27.012-12.118-27.012-27.012v-450.922c0-14.894,12.117-27.012,27.012-27.012
						h450.921c14.894,0,27.012,12.118,27.012,27.012v450.922C2666.038,2184.721,2653.92,2196.838,2639.026,2196.838z
						 M2188.104,1699.756c-10.559,0-19.149,8.59-19.149,19.148v450.922c0,10.559,8.59,19.148,19.149,19.148h450.921
						c10.559,0,19.149-8.59,19.149-19.148v-450.922c0-10.558-8.59-19.148-19.149-19.148H2188.104z"/>
				</g>
				<g>
					<path style="fill:#1C0E0C;" d="M2598.475,1896.665l-65.99,55.898v149.766h-219.714v-149.713l-65.977-55.951l50.63-62.91
						c15.347-13.355,38.716-15.452,55.689-15.452h145.244c34.076,0,42.713,6.409,51.56,13.381L2598.475,1896.665z"/>
				</g>
				<g>
					<path style="fill:#F4F1ED;" d="M2592.983,1886.508l-67.183,56.894v152.478h-223.777v-152.478l-67.17-56.894l51.534-64.221
						c15.636-13.604,39.437-15.728,56.711-15.728h147.878c34.692,0,43.474,6.553,52.425,13.617L2592.983,1886.508z"/>
					<path style="fill:#070707;" d="M2525.801,2099.813h-223.777c-2.171,0-3.932-1.76-3.932-3.932v-150.656l-65.779-55.716
						c-1.626-1.377-1.859-3.799-0.525-5.461l51.534-64.221c0.146-0.183,0.309-0.352,0.486-0.506
						c12.91-11.233,32.304-16.693,59.292-16.693h147.878c36.533,0,45.85,7.352,54.861,14.462c0.269,0.212,0.508,0.458,0.714,0.733
						l49.581,66.331c1.244,1.664,0.978,4.01-0.609,5.354l-65.791,55.716v150.656
						C2529.733,2098.052,2527.972,2099.813,2525.801,2099.813z M2305.956,2091.949h215.913v-148.547
						c0-1.156,0.509-2.253,1.391-3.001l64.36-54.502l-47.057-62.955c-8.18-6.448-16.329-12.452-49.585-12.452h-147.878
						c-24.818,0-42.445,4.755-53.87,14.537l-48.912,60.954l64.248,54.419c0.882,0.747,1.391,1.844,1.391,3V2091.949z"/>
				</g>
				<g>
					<path style="fill:#070707;" d="M2302.05,1947.334c-2.171,0-3.932-1.76-3.932-3.932v-53.919c0-2.171,1.76-3.932,3.932-3.932
						c2.171,0,3.932,1.76,3.932,3.932v53.919C2305.982,1945.573,2304.221,1947.334,2302.05,1947.334z"/>
				</g>
				<g>
					<path style="fill:#070707;" d="M2525.696,1947.845c-2.171,0-3.932-1.76-3.932-3.932v-53.919c0-2.171,1.76-3.932,3.932-3.932
						c2.171,0,3.932,1.76,3.932,3.932v53.919C2529.628,1946.085,2527.867,1947.845,2525.696,1947.845z"/>
				</g>
				<g>
					<path style="fill:#070707;" d="M2413.899,2099.773c-2.171,0-3.932-1.76-3.932-3.932v-239.583c0-2.171,1.76-3.932,3.932-3.932
						s3.932,1.76,3.932,3.932v239.583C2417.831,2098.013,2416.07,2099.773,2413.899,2099.773z"/>
				</g>
				<g>
					<path style="fill:#F4F1ED;" d="M2483.375,1806.612h-50.367c-0.969-0.008-1.834,0.604-2.149,1.52l-16.959,48.126l-17.851-47.733
						c-0.432-1.152-1.535-1.915-2.765-1.913h-49.646l24.129-20.538c5.396-4.6,12.254-7.128,19.345-7.13h52.792
						c7.095,0.001,13.958,2.529,19.358,7.13L2483.375,1806.612z"/>
					<path style="fill:#070707;" d="M2413.899,1860.191c-1.639,0-3.108-1.017-3.683-2.555l-17.61-47.092h-48.969
						c-1.648,0-3.121-1.028-3.69-2.574c-0.569-1.547-0.113-3.284,1.142-4.352l24.129-20.537c6.099-5.2,13.875-8.065,21.892-8.067
						h52.794c8.022,0.001,15.802,2.867,21.908,8.069l24.115,20.537c1.254,1.069,1.709,2.806,1.14,4.352
						c-0.57,1.546-2.042,2.573-3.69,2.573h-49.198l-16.57,47.021c-0.55,1.56-2.017,2.609-3.671,2.625
						C2413.924,1860.191,2413.911,1860.191,2413.899,1860.191z M2393.29,1802.68c2.848,0,5.437,1.793,6.44,4.464l14.06,37.596
						l13.36-37.915c0.858-2.491,3.271-4.152,5.892-4.145h39.653l-15.984-13.613c-4.685-3.992-10.654-6.19-16.809-6.192h-52.792
						c-6.149,0.002-12.113,2.2-16.794,6.19l-15.994,13.613h38.96C2393.285,1802.68,2393.287,1802.68,2393.29,1802.68z
						 M2433.008,1810.544c0.009,0,0.018,0,0.027,0H2433.008z M2393.285,1810.544L2393.285,1810.544h0.001H2393.285z
						 M2434.576,1809.413l-0.008,0.022C2434.571,1809.428,2434.573,1809.42,2434.576,1809.413z"/>
				</g>
				<g>
					<path style="fill:#F4F1ED;" d="M2378.145,1786.219l17.182,20.393l-19.659,28.061l-32.058-28.061l25.112-21.193
						c2.81-2.383,7.02-2.036,9.402,0.775C2378.131,1786.202,2378.138,1786.21,2378.145,1786.219z"/>
					<path style="fill:#070707;" d="M2375.668,1838.604c-0.947,0-1.869-0.342-2.59-0.973l-32.058-28.06
						c-0.862-0.755-1.352-1.848-1.342-2.994c0.01-1.146,0.52-2.23,1.396-2.969l25.112-21.193c2.154-1.826,4.901-2.704,7.72-2.474
						c2.823,0.233,5.386,1.551,7.218,3.711c0.002,0.003,0.026,0.031,0.029,0.034l17.182,20.393c1.149,1.364,1.236,3.33,0.213,4.789
						l-19.659,28.06c-0.641,0.915-1.64,1.514-2.748,1.648C2375.982,1838.595,2375.825,1838.604,2375.668,1838.604z
						 M2349.642,1806.667l25.32,22.162l15.411-21.995l-15.25-18.099c-0.471-0.556-1.133-0.896-1.862-0.956
						c-0.729-0.06-1.438,0.167-1.996,0.64L2349.642,1806.667z"/>
				</g>
				<g>
					<path style="fill:#F4F1ED;" d="M2448.88,1786.219l-17.196,20.393l19.659,28.061l32.058-28.061l-25.112-21.193
						c-2.814-2.378-7.023-2.025-9.401,0.789C2448.886,1786.212,2448.883,1786.215,2448.88,1786.219z"/>
					<path style="fill:#070707;" d="M2451.344,1838.604c-0.157,0-0.314-0.01-0.472-0.028c-1.108-0.134-2.107-0.733-2.748-1.648
						l-19.659-28.06c-1.023-1.46-0.936-3.427,0.214-4.79l17.181-20.377c0.009-0.01,0.017-0.021,0.026-0.031
						c3.775-4.466,10.478-5.027,14.942-1.254l25.11,21.192c0.875,0.739,1.385,1.823,1.396,2.969c0.01,1.146-0.48,2.239-1.342,2.994
						l-32.058,28.06C2453.213,1838.262,2452.291,1838.604,2451.344,1838.604z M2436.641,1806.834l15.409,21.995l25.32-22.162
						l-21.616-18.243c-1.151-0.973-2.871-0.832-3.849,0.306c-0.01,0.012-0.019,0.023-0.029,0.035L2436.641,1806.834z
						 M2448.88,1786.219h0.013H2448.88z"/>
				</g>
				<g>
					<path style="fill:#F4F1ED;" d="M2447.504,1893.808h44.561l0,0v42.268c0,4.582-3.714,8.296-8.296,8.296H2455.8
						c-4.582,0-8.296-3.714-8.296-8.296L2447.504,1893.808L2447.504,1893.808z"/>
					<path style="fill:#070707;" d="M2483.769,1948.304H2455.8c-6.743,0-12.228-5.486-12.228-12.228v-42.268
						c0-2.171,1.76-3.932,3.932-3.932h44.561c2.171,0,3.932,1.76,3.932,3.932v42.268
						C2495.997,1942.818,2490.511,1948.304,2483.769,1948.304z M2451.436,1897.74v38.336c0,2.407,1.958,4.365,4.365,4.365h27.969
						c2.407,0,4.365-1.958,4.365-4.365v-38.336H2451.436z"/>
				</g>
				<g>
					<circle style="fill:#1C0E0C;" cx="2400.216" cy="1873.834" r="5.413"/>
				</g>
				<g>
					<circle style="fill:#1C0E0C;" cx="2400.216" cy="1915.263" r="5.413"/>
				</g>
				<g>
					<circle style="fill:#1C0E0C;" cx="2400.216" cy="1956.692" r="5.413"/>
				</g>
				<g>
					<circle style="fill:#1C0E0C;" cx="2400.216" cy="1998.121" r="5.413"/>
				</g>
				<g>
					<circle style="fill:#1C0E0C;" cx="2400.216" cy="2039.55" r="5.413"/>
				</g>
				<g>
					<circle style="fill:#F4F1ED;" cx="2572.04" cy="1706.074" r="53.867"/>
					<path style="fill:#070707;" d="M2572.039,1763.872c-31.87,0-57.798-25.928-57.798-57.798c0-31.87,25.928-57.799,57.798-57.799
						c31.871,0,57.8,25.928,57.8,57.799C2629.838,1737.944,2603.91,1763.872,2572.039,1763.872z M2572.039,1656.139
						c-27.533,0-49.934,22.401-49.934,49.935s22.401,49.934,49.934,49.934c27.535,0,49.936-22.4,49.936-49.934
						S2599.574,1656.139,2572.039,1656.139z"/>
				</g>
				<g>
					<path style="fill:#1C0E0C;" d="M2558.16,1681.984c-6.907,0-11.56,5.347-11.56,13.29c0,8.454,4.247,13.513,11.35,13.513
						c7.104,0,11.455-5.242,11.455-13.788C2569.392,1686.965,2565.106,1681.984,2558.16,1681.984z M2558.068,1703.754
						c-4.744,0-5.452-5.36-5.452-8.558c0-5.242,1.94-8.178,5.452-8.178c4.469,0,5.4,4.377,5.4,8.06
						C2563.468,1700.844,2561.646,1703.754,2558.068,1703.754L2558.068,1703.754z"/>
				</g>
				<g>
					<path style="fill:#1C0E0C;" d="M2587.571,1701.08c-6.789,0-11.547,5.465-11.547,13.277c0,8.336,4.351,13.513,11.35,13.513
						c6.999,0,11.455-5.243,11.455-13.788C2598.829,1706.061,2594.517,1701.08,2587.571,1701.08z M2587.492,1722.837
						c-4.744,0-5.452-5.347-5.452-8.545c0-5.243,1.979-8.192,5.452-8.192c4.456,0,5.387,4.391,5.387,8.06
						C2592.879,1719.73,2590.913,1722.837,2587.492,1722.837L2587.492,1722.837z"/>
				</g>
				<g>
					<polygon style="fill:#1C0E0C;" points="2590.795,1682.587 2560.703,1727.385 2554.7,1727.385 2584.766,1682.587 					"/>
				</g>
			</g>
			<g id="PRESENT_PAGE">
				<g>
					<path style="fill:#1C0E0C;" d="M3130.826,1903.074h264.616c12.747,0,23.08,10.333,23.08,23.08v264.616
						c0,12.747-10.333,23.08-23.08,23.08h-264.616c-12.747,0-23.08-10.333-23.08-23.08v-264.616
						C3107.746,1913.408,3118.079,1903.074,3130.826,1903.074z"/>
				</g>
				<g>
					<path style="fill:#C5DCDD;" d="M3117.903,1889.994h264.616c12.747,0,23.08,10.333,23.08,23.08v264.616
						c0,12.747-10.333,23.08-23.08,23.08h-264.616c-12.747,0-23.08-10.333-23.08-23.08v-264.616
						C3094.823,1900.328,3105.156,1889.994,3117.903,1889.994z"/>
					<path d="M3382.519,2204.702h-264.616c-14.894,0-27.011-12.118-27.011-27.012v-264.616c0-14.894,12.117-27.012,27.011-27.012
						h264.616c14.894,0,27.011,12.118,27.011,27.012v264.616C3409.53,2192.584,3397.413,2204.702,3382.519,2204.702z
						 M3117.903,1893.926c-10.558,0-19.147,8.59-19.147,19.148v264.616c0,10.558,8.59,19.148,19.147,19.148h264.616
						c10.558,0,19.147-8.59,19.147-19.148v-264.616c0-10.558-8.59-19.148-19.147-19.148H3117.903z"/>
				</g>
				<g id="PRESENT-2">
					<g>
						<path style="fill:#FFFFFF;" d="M3193.788,2009.497h141.705c4.806,0,8.703,3.896,8.703,8.703v123.291
							c0,4.806-3.896,8.703-8.703,8.703h-141.705c-4.806,0-8.703-3.896-8.703-8.703V2018.2
							C3185.086,2013.394,3188.982,2009.497,3193.788,2009.497z"/>
					</g>
					<g>
						<path style="fill:#070707;" d="M3329.796,2154.112h-35.417c-2.172,0-3.932-1.76-3.932-3.932s1.76-3.932,3.932-3.932
							c5.883,0,10.668-4.786,10.668-10.668v-122.871c0.002-2.857-1.106-5.541-3.122-7.56c-2.014-2.019-4.696-3.133-7.55-3.135
							c-2.171-0.002-3.929-1.762-3.928-3.934c0.001-2.171,1.761-3.93,3.932-3.93h35.387c4.957,0.004,9.614,1.938,13.113,5.443
							c3.499,3.506,5.424,8.165,5.419,13.119v122.867c0.005,4.943-1.917,9.595-5.412,13.096
							C3339.391,2152.177,3334.742,2154.107,3329.796,2154.112z M3309.524,2146.248h20.242c2.868-0.003,5.543-1.114,7.554-3.127
							c2.011-2.015,3.116-4.691,3.114-7.537v-122.875c0-0.001,0-0.002,0-0.004c0.002-2.853-1.106-5.537-3.122-7.556
							c-2.014-2.019-4.696-3.133-7.55-3.135h-20.23c2.199,3.109,3.383,6.813,3.379,10.699v122.867
							C3312.911,2139.548,3311.657,2143.229,3309.524,2146.248z"/>
					</g>
					<g>
						<path style="fill:#070707;" d="M3182.93,2154.112c-4.901,0-9.529-1.905-13.026-5.369c-3.516-3.485-5.465-8.13-5.487-13.081
							v-122.954c0-10.224,8.318-18.55,18.542-18.559h111.407c0.017,0,0.035,0,0.051,0c4.924,0,9.566,1.915,13.065,5.396
							c3.513,3.493,5.455,8.145,5.468,13.099c0,0.004,0,0.06,0,0.064v122.871c0,10.218-8.313,18.532-18.532,18.532h-111.403
							C3182.987,2154.112,3182.958,2154.112,3182.93,2154.112z M3294.406,2002.014c-0.009,0-0.019,0-0.03,0h-111.414
							c-5.889,0.005-10.682,4.803-10.682,10.695v122.871c0.013,2.898,1.134,5.572,3.159,7.578c2.024,2.006,4.749,3.073,7.558,3.09
							h111.421c5.883,0,10.668-4.786,10.668-10.668v-122.924c-0.008-2.842-1.126-5.521-3.148-7.533
							C3299.923,2003.117,3297.249,2002.014,3294.406,2002.014z"/>
					</g>
					<g>
						<path style="fill:#070707;" d="M3240.958,2160.94c-2.172,0-3.932-1.761-3.932-3.932v-169.909c0-2.171,1.76-3.932,3.932-3.932
							c2.172,0,3.932,1.76,3.932,3.932v169.909C3244.89,2159.179,3243.13,2160.94,3240.958,2160.94z"/>
					</g>
					<g>
						<path style="fill:#070707;" d="M3349.674,2077.702h-187.406c-2.172,0-3.932-1.76-3.932-3.932s1.76-3.932,3.932-3.932h187.406
							c2.172,0,3.932,1.76,3.932,3.932S3351.846,2077.702,3349.674,2077.702z"/>
					</g>
					<g>
						<path style="fill:#070707;" d="M3274.917,2002.026h-33.959c-2.172,0-3.932-1.76-3.932-3.932v-26.029
							c0.008-14.721,11.989-26.702,26.708-26.71c0.001,0,0.001,0,0.002,0h11.18c14.736,0,26.723,11.988,26.723,26.724v3.224
							C3301.64,1990.038,3289.653,2002.026,3274.917,2002.026z M3244.89,1994.163h30.027c10.399,0,18.859-8.46,18.859-18.859v-3.224
							c0-10.399-8.46-18.86-18.859-18.86h-11.177c-10.388,0.006-18.844,8.461-18.849,18.849V1994.163z"/>
					</g>
					<g>
						<path style="fill:#070707;" d="M3240.696,2002h-31.022c-12.091,0-21.927-9.836-21.927-21.927v-2.555
							c0-12.091,9.836-21.927,21.927-21.927h13.027c12.091,0,21.927,9.836,21.927,21.927v20.55
							C3244.628,2000.24,3242.868,2002,3240.696,2002z M3209.674,1963.455c-7.755,0-14.064,6.309-14.064,14.063v2.555
							c0,7.754,6.309,14.063,14.064,14.063h27.091v-16.618c0-7.754-6.309-14.063-14.064-14.063H3209.674z"/>
					</g>
					<g>
						<path style="fill:#070707;" d="M3269.334,2033.167c-1.062,0-2.12-0.427-2.895-1.27l-25.862-28.123l-14.624,14.624
							c-1.536,1.536-4.024,1.536-5.56,0c-1.536-1.535-1.536-4.025,0-5.56l17.523-17.523c0.756-0.757,1.783-1.183,2.862-1.151
							c1.071,0.022,2.088,0.481,2.812,1.27l28.637,31.141c1.471,1.599,1.366,4.086-0.233,5.555
							C3271.239,2032.824,3270.285,2033.167,3269.334,2033.167z"/>
					</g>
				</g>
			</g>
		</g>
		<g id="ABSTRACT_ELEMENTS">
			<g>
				<path style="fill:#070707;" d="M997.031,1957.583c-30.056,0-54.509-24.453-54.509-54.51c0-30.056,24.453-54.509,54.509-54.509
					c30.057,0,54.509,24.453,54.509,54.509C1051.541,1933.131,1027.088,1957.583,997.031,1957.583z M997.031,1856.429
					c-25.72,0-46.645,20.925-46.645,46.645s20.925,46.646,46.645,46.646c25.72,0,46.646-20.925,46.646-46.646
					S1022.752,1856.429,997.031,1856.429z"/>
			</g>
			<g>
				<path style="fill:#070707;" d="M1122.996,1705.759c-11.007,0-19.961-8.954-19.961-19.961s8.954-19.961,19.961-19.961
					s19.961,8.954,19.961,19.961S1134.003,1705.759,1122.996,1705.759z M1122.996,1673.701c-6.67,0-12.097,5.427-12.097,12.097
					c0,6.67,5.427,12.097,12.097,12.097c6.67,0,12.097-5.427,12.097-12.097C1135.093,1679.128,1129.667,1673.701,1122.996,1673.701z
					"/>
			</g>
		</g>
		<g id="PACKAGES">
			<g>
				<path style="fill:#070707;" d="M2907.56,3128.944h-92.91c-2.172,0-3.932-1.76-3.932-3.932v-41.94
					c0-26.082,21.219-47.307,47.299-47.313h0.001h6.16c26.088,0,47.313,21.225,47.313,47.313v41.94
					C2911.491,3127.184,2909.732,3128.944,2907.56,3128.944z M2818.582,3121.08h85.046v-38.008
					c0-21.752-17.697-39.449-39.449-39.449h-6.159c-21.746,0.006-39.438,17.702-39.438,39.449V3121.08z"/>
			</g>
			<g>
				<path style="fill:#070707;" d="M2938.897,3128.944h-92.962c-2.172,0-3.932-1.76-3.932-3.932v-41.94
					c0-26.088,21.225-47.313,47.313-47.313h6.2c26.089,0,47.313,21.225,47.313,47.313v41.94
					C2942.829,3127.184,2941.069,3128.944,2938.897,3128.944z M2849.866,3121.08h85.099v-38.008
					c0-21.752-17.697-39.449-39.449-39.449h-6.2c-21.752,0-39.449,17.697-39.449,39.449V3121.08z"/>
			</g>
			<g>
				<polygon style="fill:#1C0E0C;" points="3078.519,3573.194 2954.074,3573.194 3006.827,3124.933 3025.766,3124.933 				"/>
			</g>
			<g>
				<path style="fill:#070707;" d="M2954.074,3577.126h-289.189c-1.122,0-2.192-0.48-2.938-1.32
					c-0.746-0.838-1.097-1.957-0.966-3.072l52.765-448.26c0.233-1.98,1.911-3.472,3.905-3.472h289.177
					c1.123,0,2.193,0.48,2.939,1.32c0.746,0.838,1.097,1.957,0.966,3.072l-52.753,448.26
					C2957.746,3575.634,2956.068,3577.126,2954.074,3577.126z M2669.307,3569.262h281.271l51.827-440.397h-281.258
					L2669.307,3569.262z"/>
			</g>
			<g>
				<path style="fill:#FFFFFF;" d="M2969.92,3261.789h-42.359l5.4-61.691c1.218-11.866,11.101-20.957,23.028-21.18l0,0
					c10.544-0.194,19.25,8.198,19.443,18.742c0.015,0.814-0.022,1.628-0.111,2.438L2969.92,3261.789z"/>
			</g>
			<g>
				<path style="fill:#070707;" d="M2966.198,3262h-42.359c-1.102,0-2.154-0.463-2.899-1.276s-1.114-1.901-1.018-2.999l5.4-61.692
					c1.416-13.892,12.966-24.522,26.87-24.781c6.166-0.12,11.984,2.185,16.412,6.46c4.428,4.274,6.927,10.017,7.036,16.17
					c0.017,0.973-0.029,1.956-0.134,2.922l-5.392,61.606C2969.936,3260.442,2968.236,3262,2966.198,3262z M2928.13,3254.136h34.464
					l5.086-58.103c0.078-0.723,0.107-1.371,0.096-2.013c-0.07-4.052-1.716-7.834-4.633-10.65c-2.917-2.816-6.769-4.368-10.809-4.254
					c-9.927,0.184-18.176,7.777-19.185,17.66L2928.13,3254.136z"/>
			</g>
			<g>
				<path style="fill:#070707;" d="M2950.373,3200.788c-2.176,0-4.312-0.826-5.893-2.475c-3.169-3.313-2.926-8.705,0.54-12.021
					c1.635-1.564,3.75-2.451,5.959-2.498c0.059-0.001,0.118-0.001,0.178-0.001c2.239,0,4.38,0.9,5.896,2.484
					c3.167,3.309,2.925,8.701-0.54,12.02C2954.776,3199.957,2952.555,3200.788,2950.373,3200.788z M2951.158,3191.656
					c-0.005,0-0.009,0-0.013,0c-0.11,0.003-0.397,0.039-0.688,0.316l0,0c-0.393,0.376-0.385,0.809-0.296,0.902
					c0.091,0.094,0.522,0.115,0.915-0.26c0.392-0.375,0.385-0.808,0.296-0.9C2951.322,3191.661,2951.207,3191.656,2951.158,3191.656
					z M2947.739,3189.132h0.013H2947.739z"/>
			</g>
			<g>
				<path style="fill:#070707;" d="M2950.92,3195.708c-0.114,0-0.228-0.005-0.343-0.014c-2.163-0.187-3.765-2.091-3.58-4.256
					l6.03-70.028c0.603-6.933,6.304-12.162,13.26-12.166c7.345,0,13.319,5.973,13.319,13.316c0,2.172-1.76,3.932-3.932,3.932
					c-2.172,0-3.932-1.76-3.932-3.932c0-3.006-2.446-5.452-5.452-5.452c-2.846,0.001-5.181,2.143-5.428,4.98l-6.028,70.025
					C2954.656,3194.162,2952.939,3195.708,2950.92,3195.708z"/>
			</g>
			<g>
				<path style="fill:#070707;" d="M2948.164,3235.773c1.081-0.171,2.083-0.669,2.87-1.428c0.681-0.661,1.1-1.545,1.18-2.49
					c0.14-0.862-0.132-1.74-0.734-2.372c-0.762-0.655-1.656-1.137-2.621-1.416l-2.176-0.642c-1.317-0.355-2.595-0.843-3.814-1.455
					c-0.99-0.521-1.813-1.312-2.372-2.281c-0.602-1.17-0.827-2.498-0.642-3.801c0.114-1.899,0.96-3.679,2.359-4.967
					c1.615-1.375,3.647-2.164,5.767-2.241h2.228c1.088,0.081,2.156,0.343,3.158,0.773c0.872,0.388,1.63,0.992,2.202,1.756
					c0.447,0.558,0.804,1.181,1.062,1.848c0.211,0.556,0.305,1.149,0.275,1.743c-0.138,1.218-1.159,2.144-2.385,2.163
					c-1.084,0.059-2.011-0.771-2.07-1.856c0-0.002,0-0.004,0-0.006c-0.195-1.391-1.191-2.537-2.542-2.923l-2.228-0.079
					c-0.872,0.227-1.692,0.624-2.411,1.167c-0.625,0.554-0.995,1.341-1.022,2.176c-0.132,0.756,0.085,1.532,0.59,2.11
					c0.658,0.581,1.424,1.026,2.254,1.311l2.176,0.642c1.415,0.406,2.542,0.76,3.381,1.088c0.818,0.324,1.563,0.81,2.189,1.429
					c0.668,0.645,1.171,1.44,1.468,2.32c0.323,0.947,0.44,1.953,0.341,2.949c-0.128,1.337-0.577,2.623-1.311,3.749
					c-0.756,1.189-1.796,2.172-3.028,2.857c-1.369,0.765-2.891,1.212-4.456,1.311h-2.241c-1.218-0.121-2.406-0.449-3.512-0.97
					c-0.915-0.45-1.734-1.073-2.412-1.835c-0.583-0.671-1.028-1.451-1.311-2.293c-0.255-0.75-0.353-1.544-0.288-2.333
					c0.052-0.591,0.334-1.137,0.786-1.521c0.458-0.44,1.069-0.685,1.704-0.681c0.466-0.016,0.925,0.117,1.311,0.38
					c0.346,0.245,0.582,0.617,0.655,1.035c0.171,0.746,0.386,1.481,0.642,2.202c0.198,0.536,0.522,1.017,0.944,1.402
					c0.514,0.467,1.135,0.8,1.809,0.97L2948.164,3235.773z"/>
			</g>
			<g>
				<path style="fill:#070707;" d="M2946.486,3241.854h-0.092c-0.505-0.041-0.882-0.483-0.841-0.988
					c0-0.007,0.001-0.014,0.002-0.021l2.621-30.485c0.048-0.51,0.499-0.885,1.009-0.839c0.511,0.049,0.89,0.497,0.852,1.009
					l-2.621,30.472C2947.376,3241.486,2946.971,3241.856,2946.486,3241.854z"/>
			</g>
			<g>
				<path style="fill:#070707;" d="M2788.962,3252.602h-67.406c-2.172,0-3.932-1.76-3.932-3.932v-30.368
					c-0.008-19.51,15.861-35.391,35.373-35.4h0.041h4.469c19.512,0,35.387,15.875,35.387,35.387v30.381
					C2792.894,3250.843,2791.134,3252.602,2788.962,3252.602z M2725.487,3244.739h59.543v-26.449
					c0-15.176-12.347-27.523-27.523-27.523h-4.509c-15.175,0.006-27.516,12.359-27.51,27.535V3244.739z"/>
			</g>
			<g>
				<path style="fill:#070707;" d="M2811.701,3252.602h-67.418c-2.172,0-3.932-1.76-3.932-3.932v-30.368
					c0-19.421,15.728-35.237,35.113-35.386c0.105-0.009,0.21-0.014,0.312-0.014h4.469c19.512,0,35.387,15.875,35.387,35.387v30.381
					C2815.633,3250.843,2813.873,3252.602,2811.701,3252.602z M2748.215,3244.739h59.554v-26.449
					c0-15.176-12.347-27.523-27.523-27.523h-4.19c-0.106,0.009-0.211,0.013-0.318,0.013c-15.176,0-27.523,12.347-27.523,27.523
					V3244.739z"/>
			</g>
			<g>
				<polygon style="fill:#F4F1ED;" points="2913.026,3573.941 2822.737,3573.941 2861.02,3248.696 2874.755,3248.696 				"/>
				<path style="fill:#070707;" d="M2913.025,3577.874h-90.289c-1.122,0-2.192-0.48-2.938-1.32
					c-0.746-0.838-1.098-1.957-0.966-3.072l38.283-325.246c0.233-1.98,1.911-3.472,3.905-3.472h13.736
					c1.994,0,3.672,1.492,3.905,3.472l38.269,325.246c0.131,1.115-0.22,2.233-0.966,3.072
					C2915.217,3577.394,2914.147,3577.874,2913.025,3577.874z M2827.158,3570.01h81.445l-37.344-317.382h-6.742L2827.158,3570.01z"
					/>
			</g>
			<g>
				<polygon style="fill:#F4F1ED;" points="2861.02,3248.696 2822.737,3573.941 2612.905,3573.941 2651.188,3248.696 				"/>
				<path style="fill:#070707;" d="M2822.736,3577.874h-209.831c-1.123,0-2.193-0.48-2.939-1.32
					c-0.746-0.838-1.098-1.957-0.966-3.072l38.283-325.246c0.233-1.98,1.911-3.472,3.905-3.472h209.831
					c1.123,0,2.193,0.48,2.939,1.32c0.746,0.838,1.097,1.957,0.966,3.072l-38.283,325.246
					C2826.408,3576.381,2824.73,3577.874,2822.736,3577.874z M2617.327,3570.01h201.912l37.358-317.382h-201.912L2617.327,3570.01z"
					/>
			</g>
		</g>
		<g id="SHOPPING_CART">
			<g>
				<path style="fill:#C5DCDD;" d="M1049.824,2520.38h371.222c16.149,0,29.24,13.091,29.24,29.24v417.736
					c0,16.149-13.091,29.24-29.24,29.24h-371.222c-16.149,0-29.24-13.091-29.24-29.24V2549.62
					C1020.584,2533.471,1033.675,2520.38,1049.824,2520.38z"/>
				<path d="M1421.046,3000.529h-371.222c-18.291,0-33.172-14.881-33.172-33.173v-417.736c0-18.291,14.881-33.173,33.172-33.173
					h371.222c18.291,0,33.172,14.881,33.172,33.173v417.736C1454.218,2985.648,1439.337,3000.529,1421.046,3000.529z
					 M1049.824,2524.312c-13.955,0-25.308,11.354-25.308,25.309v417.736c0,13.955,11.354,25.309,25.308,25.309h371.222
					c13.955,0,25.308-11.354,25.308-25.309v-417.736c0-13.955-11.354-25.309-25.308-25.309H1049.824z"/>
			</g>
			<g>
				<path style="fill:#070707;" d="M1391.78,2690.749h-67.065c-2.171,0-3.932-1.76-3.932-3.932v-97.681
					c0.005-10.002,3.9-19.405,10.969-26.476c7.075-7.079,16.483-10.979,26.492-10.982c0.003,0,0.008,0,0.011,0
					c10.004,0,19.409,3.894,26.486,10.966l0,0c6.985,6.97,10.984,16.628,10.971,26.497v97.676
					C1395.712,2688.989,1393.951,2690.749,1391.78,2690.749z M1328.646,2682.885h59.202v-93.75
					c0.01-7.797-3.147-15.422-8.662-20.927c-0.001,0-0.001-0.001-0.002-0.001c-5.591-5.589-13.024-8.666-20.929-8.666
					c-0.003,0-0.006,0-0.008,0c-7.909,0.002-15.343,3.083-20.933,8.678c-5.585,5.587-8.664,13.017-8.667,20.917V2682.885z
					 M1358.254,2594.063c-6.157,0-11.167-5.01-11.167-11.166c0-6.158,5.01-11.167,11.167-11.167s11.167,5.01,11.167,11.167
					c-0.011,6.117-4.99,11.123-11.1,11.166C1358.312,2594.063,1358.264,2594.063,1358.254,2594.063z M1358.254,2579.594
					c-1.821,0-3.303,1.482-3.303,3.303s1.482,3.302,3.303,3.302h0.039c1.784-0.013,3.26-1.498,3.264-3.309
					C1361.557,2581.076,1360.075,2579.594,1358.254,2579.594z"/>
			</g>
			<g>
				<path style="fill:#F4F1ED;" d="M1377.454,2559.188c-13.084-13.102-34.311-13.116-47.413-0.032
					c-6.302,6.293-9.84,14.835-9.835,23.741v97.681h67.078v-97.681C1387.297,2574,1383.759,2565.466,1377.454,2559.188z
					 M1353.745,2583.893c-4.003,0.007-7.254-3.232-7.261-7.235s3.232-7.254,7.235-7.261c4.003-0.007,7.254,3.232,7.261,7.235
					c0,0.004,0,0.009,0,0.013C1360.98,2580.643,1357.743,2583.886,1353.745,2583.893z"/>
				<path style="fill:#070707;" d="M1387.284,2684.51h-67.078c-2.171,0-3.932-1.76-3.932-3.932v-97.681
					c-0.006-10.02,3.897-19.44,10.989-26.523c7.073-7.064,16.473-10.954,26.468-10.954c0.01,0,0.017,0,0.027,0
					c10.004,0.008,19.407,3.909,26.477,10.988c6.992,6.967,10.995,16.622,10.982,26.494v97.676
					C1391.216,2682.75,1389.456,2684.51,1387.284,2684.51z M1324.138,2676.646h59.214v-93.75c0.011-7.8-3.151-15.424-8.672-20.923
					c-0.003-0.003-0.005-0.005-0.008-0.008c-5.586-5.593-13.016-8.677-20.921-8.683c-0.006,0-0.014,0-0.021,0
					c-7.897,0-15.323,3.073-20.911,8.655c-5.604,5.596-8.687,13.039-8.682,20.956V2676.646z M1353.73,2587.825
					c-2.978,0-5.779-1.157-7.889-3.26c-2.116-2.108-3.284-4.914-3.289-7.9c-0.006-2.986,1.152-5.795,3.26-7.911
					c2.108-2.115,4.914-3.283,7.9-3.288c0.008,0,0.015,0,0.022,0c2.976,0,5.777,1.157,7.887,3.26
					c2.116,2.108,3.284,4.912,3.289,7.898c0,6.176-5.006,11.19-11.16,11.2l0,0
					C1353.745,2587.825,1353.738,2587.825,1353.73,2587.825z M1353.733,2573.33c-0.002,0-0.005,0-0.006,0
					c-0.887,0.001-1.719,0.348-2.344,0.975c-0.625,0.627-0.969,1.46-0.967,2.346c0.001,0.886,0.348,1.718,0.975,2.344
					c0.626,0.623,1.457,0.966,2.339,0.966c0.003,0,0.008,0.001,0.008,0c1.825-0.003,3.31-1.491,3.31-3.316
					c-0.002-0.891-0.348-1.723-0.976-2.349C1355.447,2573.673,1354.616,2573.33,1353.733,2573.33z"/>
			</g>
			<g>
				<path style="fill:#070707;" d="M1353.745,2577.852c-2.171,0-3.932-1.76-3.932-3.932v-58.258
					c0-11.412,9.284-20.695,20.695-20.695c0.006,0,0.012,0,0.018,0c5.518,0,10.71,2.148,14.618,6.05
					c3.911,3.905,6.068,9.1,6.073,14.629v1.693c0,2.172-1.76,3.932-3.932,3.932s-3.932-1.76-3.932-3.932v-1.678
					c-0.003-3.438-1.34-6.659-3.766-9.081c-2.422-2.418-5.642-3.75-9.065-3.75c-0.004,0-0.007,0-0.011,0
					c-7.079,0-12.834,5.756-12.834,12.831v58.258C1357.677,2576.092,1355.916,2577.852,1353.745,2577.852z"/>
			</g>
			<g>
				<path style="fill:#070707;" d="M1367.376,2633.487c-0.592-1.402-1.487-2.656-2.621-3.67c-1.066-0.975-2.307-1.74-3.657-2.254
					c-1.363-0.515-3.198-1.092-5.505-1.73h-0.157v-11.547h0.157c2.208,0.621,3.905,2.393,4.43,4.627
					c0.259,1.739,1.781,3.008,3.539,2.949c0.925,0.015,1.815-0.35,2.464-1.009c0.66-0.628,1.03-1.501,1.022-2.412
					c-0.033-0.959-0.266-1.901-0.682-2.765c-0.502-1.063-1.155-2.047-1.94-2.923c-1.01-1.201-2.284-2.152-3.722-2.779
					c-1.632-0.667-3.355-1.083-5.111-1.232h-0.157v-3.526c-0.004-0.941-0.77-1.7-1.711-1.696c-0.935,0.004-1.692,0.761-1.697,1.696
					v3.539c-3.259,0.089-6.377,1.35-8.781,3.552c-3.432,3.823-4.034,9.413-1.494,13.879c1.01,1.541,2.412,2.785,4.063,3.604
					c1.993,0.96,4.074,1.728,6.212,2.294v12.949c-1.088-0.282-2.099-0.801-2.962-1.521c-0.71-0.615-1.285-1.368-1.691-2.215
					c-0.367-0.813-0.799-1.979-1.311-3.5c-0.192-0.67-0.614-1.25-1.193-1.638c-0.631-0.409-1.372-0.615-2.123-0.59
					c-0.987-0.034-1.942,0.357-2.621,1.075c-0.661,0.629-1.039,1.499-1.048,2.412c0.016,1.266,0.278,2.517,0.773,3.683
					c0.58,1.344,1.397,2.574,2.412,3.631c1.167,1.207,2.544,2.193,4.063,2.909c1.797,0.81,3.714,1.323,5.675,1.52v2.621
					c-0.004,0.941,0.755,1.707,1.696,1.711c0.941,0.004,1.707-0.755,1.711-1.697c0-0.005,0-0.01,0-0.015v-2.726h0.157
					c2.424-0.154,4.779-0.867,6.881-2.084c1.848-1.085,3.366-2.652,4.391-4.535c0.987-1.823,1.496-3.865,1.481-5.937
					C1368.329,2636.541,1368.008,2634.956,1367.376,2633.487z M1348.28,2622.753c-1.657-1.968-1.618-4.854,0.092-6.776
					c1.063-0.859,2.296-1.484,3.617-1.835v10.655C1350.63,2624.367,1349.37,2623.672,1348.28,2622.753z M1359.905,2643.015
					c-1.164,1.21-2.692,2.007-4.351,2.267h-0.157v-12.241h0.157c1.6,0.444,3.093,1.206,4.391,2.241
					c1.028,0.967,1.575,2.339,1.494,3.748C1361.466,2640.508,1360.915,2641.938,1359.905,2643.015z"/>
			</g>
			<g>
				<path style="fill:#1C0E0C;" d="M980.649,2680.932h-57.851c0,0-55.571-49.214-79.857-78.244
					c-3.316-3.996-6.351-8.218-9.083-12.635c-7.963-12.948-3.921-29.9,9.027-37.862c4.273-2.627,9.182-4.038,14.197-4.078h0.629
					C916.428,2548.047,980.688,2654.47,980.649,2680.932z"/>
			</g>
			<g>
				<path style="fill:#F4F1ED;" d="M1012.563,2680.932h-40.708c0,0-39.096-34.627-56.187-55.046
					c-2.332-2.81-4.464-5.779-6.383-8.886c-5.617-9.088-2.804-21.009,6.284-26.626c3.024-1.869,6.504-2.869,10.059-2.889h0.432
					C967.372,2587.484,1012.576,2662.321,1012.563,2680.932z"/>
			</g>
			<g>
				<path style="fill:#EFAF00;" d="M891.552,2492.529c97.38-1.022,131.246,138.127,129.136,188.403h-40.04
					c0-26.461-64.221-132.832-122.937-132.832c-20.826,0-33.106,18.559-26.829,35.387
					C830.883,2583.434,790.529,2493.591,891.552,2492.529z"/>
				<path d="M1020.689,2684.864h-40.04c-2.171,0-3.932-1.76-3.932-3.932c0-11.862-15.516-44.394-38.615-73.916
					c-37.432-47.841-66.434-54.984-80.39-54.984c-8.659,0-16.188,3.691-20.657,10.128c-4.105,5.913-5.012,13.186-2.487,19.953
					l-0.003,0.001c0.156,0.436,0.251,0.924,0.251,1.373c0,1.902-1.362,3.531-3.234,3.869c-1.83,0.328-3.621-0.659-4.327-2.356
					c-1.911-4.427-17.631-42.863,0.086-70.135c11.109-17.098,32.699-25.936,64.171-26.268l0,0
					c28.397-0.273,53.589,10.76,75.008,32.863c42.37,43.723,59.715,121.105,58.099,159.637
					C1024.529,2683.202,1022.796,2684.864,1020.689,2684.864z M984.262,2677h32.581c0.115-34.125-15.31-108.106-55.971-150.067
					c-19.858-20.492-43.212-30.786-69.278-30.472l0,0c-28.675,0.301-48.075,7.935-57.659,22.689
					c-8.378,12.894-7.899,29.335-5.506,42.158c0.629-1.244,1.352-2.458,2.167-3.633c5.96-8.583,15.843-13.507,27.117-13.507
					c35.848,0,69.635,36.341,86.583,58.002C965.117,2628.783,981.781,2660.26,984.262,2677z"/>
			</g>
			<g>
				<path style="fill:#EFAF00;" d="M1189.301,2661.194c6.868-16.435-2.372-35.387-19.476-40.538
					c-79.306-23.919-160.395,60.289-160.395,60.289h-19.843c0,0,41.612-122.662,164.274-104.431
					C1180.716,2580.499,1215.972,2606.357,1189.301,2661.194z"/>
				<path d="M1009.43,2684.876h-19.842c-1.268,0-2.457-0.611-3.196-1.641s-0.935-2.354-0.527-3.554
					c0.435-1.284,10.964-31.767,36.949-60.429c24.125-26.609,66.544-56.303,131.626-46.627c14.427,2.141,33.182,10.758,42.552,28.52
					c11.132,21.104,3.885,45.238-4.155,61.77c-0.931,1.912-3.213,2.74-5.154,1.864c-1.94-0.877-2.83-3.136-2.009-5.099
					c2.842-6.802,2.642-14.284-0.563-21.069c-3.235-6.849-9.219-12.021-16.419-14.19c-76.058-22.928-155.635,58.429-156.43,59.252
					C1011.52,2684.441,1010.498,2684.876,1009.43,2684.876z M995.343,2677.013h12.445c4.814-4.791,23.557-22.685,50.08-38.556
					c40.47-24.217,79.578-31.675,113.092-21.565c9.327,2.81,17.077,9.502,21.26,18.36c0.433,0.917,0.823,1.847,1.17,2.79
					c2.687-12.606,1.583-23.868-3.355-33.228c-7.999-15.164-24.23-22.553-36.752-24.41c-49.39-7.342-91.272,7.438-124.464,43.93
					C1010.021,2645.002,999.459,2667.183,995.343,2677.013z"/>
			</g>
			<g>
				<path style="fill:#1C0E0C;" d="M1189.301,2661.469c-3.683,8.624-8.191,16.684-11.402,19.463h-45.086
					c0,0,10.786-3.656,21.219-19.463c12.674-19.201,6.802-42.949-10.551-44.562c8.948,0.089,17.846,1.358,26.462,3.775
					C1187.086,2625.846,1196.326,2645.034,1189.301,2661.469z"/>
			</g>
			<g>
				<path style="fill:#1C0E0C;" d="M911.998,2676.79h294.655c35.736,0,64.706,28.97,64.706,64.706v345.455
					c0,35.736-28.97,64.706-64.706,64.706H911.998c-35.736,0-64.706-28.97-64.706-64.706v-345.455
					C847.292,2705.76,876.262,2676.79,911.998,2676.79z"/>
			</g>
			<g>
				<path style="fill:#F4F1ED;" d="M845.051,2676.79h282.336c35.736,0,64.706,28.97,64.706,64.706v345.455
					c0,35.736-28.97,64.706-64.706,64.706H845.051c-35.736,0-64.706-28.97-64.706-64.706v-345.455
					C780.345,2705.76,809.315,2676.79,845.051,2676.79z"/>
				<path style="fill:#070707;" d="M1127.386,3155.589H845.051c-37.846,0-68.637-30.791-68.637-68.638v-345.455
					c0-37.847,30.791-68.638,68.637-68.638h282.335c37.847,0,68.638,30.791,68.638,68.638v345.455
					C1196.024,3124.798,1165.233,3155.589,1127.386,3155.589z M845.051,2680.722c-33.511,0-60.773,27.263-60.773,60.774v345.455
					c0,33.511,27.263,60.774,60.773,60.774h282.335c33.511,0,60.774-27.263,60.774-60.774v-345.455
					c0-33.511-27.263-60.774-60.774-60.774H845.051z"/>
			</g>
			<g id="SHOPPING_CART-2">
				<g>
					<path style="fill:#070707;" d="M811.156,3428.79c-5.756,0-11.508-0.698-17.094-2.075c-18.518-4.564-34.15-16.067-44.017-32.388
						c-9.848-16.292-12.776-35.436-8.248-53.921l17.018-90.458c0.013-0.072,0.029-0.143,0.046-0.214
						c9.63-39.094,44.479-66.399,84.741-66.399c0.005,0,0.004,0,0.009,0h467.277c27.613,0,53.955-8.663,76.178-25.052
						c22.222-16.389,38.28-38.996,46.436-65.376l134.995-436.714c13.015-42.119,51.374-70.412,95.453-70.412c0.019,0,0.031,0,0.05,0
						h84.022c2.171,0,3.932,1.76,3.932,3.932c0,2.172-1.76,3.932-3.932,3.932h-84.024c-0.015,0-0.031,0-0.046,0
						c-40.614,0-75.95,26.064-87.941,64.87l-134.995,436.714c-8.656,27.998-25.698,51.99-49.282,69.384
						c-23.583,17.393-51.539,26.586-80.842,26.586c-0.002,0-0.001,0-0.003,0H843.61c-0.002,0-0.006,0-0.008,0
						c-36.602,0-68.281,24.794-77.079,60.312l-17.018,90.457c-0.013,0.072-0.029,0.143-0.047,0.214
						c-4.061,16.479-1.463,33.553,7.317,48.077c8.78,14.524,22.691,24.76,39.169,28.821c4.971,1.226,10.089,1.847,15.212,1.847
						c0.005,0,0.01,0,0.015,0h569.691c2.171,0,3.932,1.76,3.932,3.932c0,2.172-1.76,3.932-3.932,3.932H811.172
						C811.167,3428.79,811.161,3428.79,811.156,3428.79z"/>
				</g>
				<g>
					<path style="fill:#070707;" d="M1311.382,3191.199c-0.027,0-0.051,0-0.078,0H877.883c-29.298-0.008-57.247-9.205-80.823-26.598
						c-23.576-17.393-40.612-41.381-49.266-69.372c-0.022-0.071-0.042-0.142-0.06-0.215l-86.619-349.254
						c-0.291-1.175-0.026-2.418,0.719-3.37c0.745-0.952,1.887-1.509,3.097-1.509h880.349c1.248,0,2.422,0.593,3.163,1.596
						c0.742,1.003,0.963,2.3,0.595,3.493l-107.472,349.112c-8.641,28.047-25.691,52.082-49.305,69.507
						C1368.668,3181.997,1340.7,3191.197,1311.382,3191.199z M755.34,3093.012c8.165,26.329,24.204,48.894,46.388,65.261
						c22.215,16.388,48.549,25.054,76.155,25.062h433.423c0.026,0.028,0.051,0.001,0.075,0c27.627,0,53.978-8.669,76.21-25.075
						c22.252-16.419,38.317-39.067,46.459-65.493l105.905-344.023H669.958L755.34,3093.012z"/>
				</g>
				<g>
					<path style="fill:#070707;" d="M1023.216,3191.2c-1.679,0-3.233-1.084-3.755-2.772l-136.803-442.455
						c-0.641-2.073,0.52-4.276,2.595-4.917c2.073-0.64,4.276,0.521,4.918,2.596l136.803,442.455c0.641,2.073-0.52,4.276-2.595,4.917
						C1023.993,3191.142,1023.601,3191.2,1023.216,3191.2z"/>
				</g>
				<g>
					<path style="fill:#070707;" d="M1138.725,3191.2c-0.385,0-0.776-0.058-1.163-0.177c-2.075-0.641-3.236-2.844-2.595-4.917
						l136.803-442.455c0.641-2.075,2.84-3.234,4.918-2.596c2.075,0.641,3.236,2.844,2.595,4.917l-136.803,442.455
						C1141.958,3190.116,1140.404,3191.2,1138.725,3191.2z"/>
				</g>
				<g>
					<path style="fill:#070707;" d="M1481.296,2955.561H718.156c-2.171,0-3.932-1.76-3.932-3.932s1.761-3.932,3.932-3.932h763.139
						c2.171,0,3.932,1.76,3.932,3.932S1483.467,2955.561,1481.296,2955.561z"/>
				</g>
				<g>
					<circle style="fill:#C5DCDD;" cx="1316.799" cy="3533.181" r="66.829"/>
				</g>
				<g>
					
						<ellipse transform="matrix(0.0217 -0.9998 0.9998 0.0217 -2688.0242 4319.2954)" style="fill:#C5DCDD;" cx="863.072" cy="3533.181" rx="66.829" ry="66.829"/>
				</g>
				<g>
					<path style="fill:#070707;" d="M1302.919,3592.186c-39.017,0-70.76-31.743-70.76-70.761c0-39.018,31.743-70.761,70.76-70.761
						c39.018,0,70.761,31.743,70.761,70.761C1373.68,3560.442,1341.937,3592.186,1302.919,3592.186z M1302.919,3458.527
						c-34.681,0-62.897,28.216-62.897,62.897c0,34.682,28.216,62.897,62.897,62.897c34.682,0,62.897-28.216,62.897-62.897
						C1365.816,3486.743,1337.601,3458.527,1302.919,3458.527z"/>
				</g>
				<g>
					<path style="fill:#070707;" d="M849.18,3592.186c-39.018,0-70.761-31.743-70.761-70.761c0-39.018,31.743-70.761,70.761-70.761
						c39.017,0,70.76,31.743,70.76,70.761C919.94,3560.442,888.197,3592.186,849.18,3592.186z M849.18,3458.527
						c-34.682,0-62.897,28.216-62.897,62.897c0,34.682,28.216,62.897,62.897,62.897c34.681,0,62.897-28.216,62.897-62.897
						C912.077,3486.743,883.861,3458.527,849.18,3458.527z"/>
				</g>
			</g>
			<g>
				<path style="fill:#F46F40;" d="M1303.378,3017.449h67.327c10.489,0,18.991,8.503,18.991,18.991v96.213
					c0,10.488-8.502,18.991-18.991,18.991h-67.327c-10.489,0-18.991-8.503-18.991-18.991v-96.213
					C1284.387,3025.951,1292.889,3017.449,1303.378,3017.449z"/>
				<path d="M1370.705,3155.576h-67.327c-12.64,0-22.923-10.283-22.923-22.923v-96.213c0-12.64,10.283-22.923,22.923-22.923h67.327
					c12.64,0,22.923,10.283,22.923,22.923v96.213C1393.628,3145.293,1383.345,3155.576,1370.705,3155.576z M1303.378,3021.38
					c-8.304,0-15.059,6.755-15.059,15.06v96.213c0,8.304,6.755,15.059,15.059,15.059h67.327c8.303,0,15.059-6.755,15.059-15.059
					v-96.213c0-8.304-6.755-15.06-15.059-15.06H1303.378z"/>
			</g>
		</g>
		<g>
			<rect x="3326.372" y="2385.7" style="fill:#1C0E0C;" width="215.493" height="47.51"/>
		</g>
	</g>
	<g id="Layer_3">
		<g id="WOMAN">
			<g id="LEGS">
				<g id="RIGHT_LEG">
					<path id="LEG" style="fill:#FCBE9F;stroke:#070707;stroke-width:6;stroke-linecap:round;stroke-linejoin:round;" d="
						M3513.529,3528.62c7.379,19.253,13.513,47.89-12.333,47.89h-139.752c0,0-0.406-21.298,32.228-24.142
						c55.243-4.81,72.622-48.598,73.395-69.319c1.586-111.639-41.94-452.285-49.188-518.17
						c47.104-1.452,93.991-7.035,140.119-16.684c-23.683,80.197,27.301,145.991,31.272,226.621
						c3.932,80.407-60.145,258.639-78.703,319.61C3509.034,3505.304,3510.213,3519.931,3513.529,3528.62z"/>
					<path id="SHOE" style="fill:#F46F40;stroke:#000000;stroke-width:6;stroke-linecap:round;stroke-linejoin:round;" d="
						M3513.529,3528.62c0,0,21.376,47.89-9.698,47.89h-144.523c0,0-5.806-18.113,31.717-24.142
						c5.242-0.826,20.157-3.696,20.157-3.696s-4.64,13.395,28.401,11.94C3472.624,3559.158,3487.5,3531.018,3513.529,3528.62z"/>
					<path id="SHADOW" style="fill:#1C0E0C;" d="M3553.962,2965.26c-43.573,12.201-88.224,20.154-133.33,23.749l0,0l-2.792-24.129
						c47.1-1.452,93.982-7.035,140.106-16.684L3553.962,2965.26z"/>
				</g>
				<g id="LEFT_LEG">
					<path id="LEG-2" style="fill:#FCBE9F;stroke:#070707;stroke-width:6;stroke-linecap:round;stroke-linejoin:round;" d="
						M3137.811,2918.955c46.486,18.041,94.842,30.829,144.169,38.126l-42.727,69.843c0,13.827,60.839,77.851,77.576,134.995
						c20.21,69.149,1.062,261.68,7.444,292.532c3.997,19.279-16.042,59.398-35.636,77.969c-11.796,11.153-26.763,6.999-26.763,6.999
						s31.678-63.343,16.658-112.622c-55.361-181.81-163.829-389.257-163.829-418.09c0-15.57,7.982-45.059,19.856-80.276
						L3137.811,2918.955z"/>
					<path id="SHOE-2" style="fill:#F46F40;stroke:#000000;stroke-width:6;stroke-linecap:round;stroke-linejoin:round;" d="
						M3322.086,3457.741c8.178-4.417,36.16,20.315,34.732,34.076l-67.667,83.684h-69.358c0,0-7.13-28.834,42.032-35.937
						S3290.408,3474.884,3322.086,3457.741z"/>
					<path id="SHADOW-2" style="fill:#1C0E0C;" d="M3137.811,2918.955c46.486,18.041,94.842,30.829,144.169,38.126l-15.872,26.094
						c-44.208-9.358-88.913-28.742-131.574-54.574L3137.811,2918.955z"/>
				</g>
			</g>
			<g id="DRESS">
				<path id="DRESS-2" style="fill:#F46F40;stroke:#000000;stroke-width:6;stroke-linecap:round;stroke-linejoin:round;" d="
					M3611.341,2934.407c0,0-238.207,80.84-482.848-19.135c0,0,178.704-397.828,193.58-427.605
					c14.876-29.777,13.853-77.642,13.853-77.642s-7.47-76.541-29.803-102.072c-22.333-25.531-35.086-54.247-23.395-90.433
					c11.691-36.187,25.492-107.472,25.492-107.472l48.965-15.963l172.662-3.198c0,0,21.363,24.902,16.763,71.705
					c-3.932,40.63-54.915,155.073-10.721,247.394c20.197,32.962,91.324,92.373,99.922,196.28
					C3646.938,2740.343,3611.341,2934.407,3611.341,2934.407z"/>
			</g>
			<path style="fill:#FCBE9F;stroke:#070707;stroke-width:6;stroke-linecap:round;stroke-linejoin:round;" d="M3343.672,2149.616
				c-0.931-36.409-29.384-58.035-58.153-22.045c-20.367,25.452-72.897,115.257-102.937,172.728
				c-29.568-44.836-95.165-122.531-131.653-156.725c1.232-15.098-6.055-56.855-10.485-59.974
				c-4.889-3.447-27.943-37.169-27.943-37.169s-8.493,4.561-0.629,18.519c9.174,16.199,7.143,21.337,7.143,21.337
				s-10.302,1.691-11.547,8.493c-1.245,6.802-9.279,2.018-12.962,12.346c-2.149,6.042-7.064,8.388-5.688,14.417
				c1.311,5.649,29.319,29.201,43.749,33.277c19.961,59.83,82.019,196.804,140.381,233.056c12.595,5.793,33.657-0.695,60.643-32.766
				C3346.097,2221.518,3344.471,2180.364,3343.672,2149.616z"/>
			<g id="HEAD">
				<g id="NECK">
					<path id="NECK-2" style="fill:#FCBE9F;stroke:#070707;stroke-width:6;stroke-linecap:round;stroke-linejoin:round;" d="
						M3475.141,1956.784c-1.062,27.654-5.124,70.472,60.669,144.667c35.282,39.778-72.085,51.272-129.582,21.206
						c-39.542-20.656-49.031-28.532-49.031-28.532s37.17-3.316,51.639-40.63c9.987-25.754,0.066-55.046-4.941-96.737
						L3475.141,1956.784z"/>
					<path id="SHADOW-3" style="fill:#1C0E0C;" d="M3458.208,1962.197c0.38,3.539-6.907,67.681-45.676,79.437
						c3.749-20.446-5.491-55.046-7.563-79.476L3458.208,1962.197z"/>
				</g>
				<g id="HAIR">
					<path style="fill:none;stroke:#070707;stroke-width:4;stroke-linecap:round;stroke-linejoin:round;" d="M3512.481,1965.696
						c8.86,42.582,134.746,30.931,143.173,135.467"/>
					<path style="fill:#1C0E0C;" d="M3521.629,2177.664c-46.593-21.337-111.573-84.85-47.392-182.282
						c-7.353-2.739-15.099-7.864-17.497-17.208c-4.928-19.41-71.442-42.241-74.483-82.95c-1.022-13.644,9.279-46.567,79.162-42.779
						c69.568,3.788,75.885,87.419,53.736,112.609c-0.042,0.033-0.077,0.073-0.105,0.118
						c9.791,47.484,143.147,47.746,124.051,164.785C3633.78,2162.644,3583.818,2206.131,3521.629,2177.664z"/>
				</g>
				<path id="HEAD-2" style="fill:#FCBE9F;stroke:#070707;stroke-width:6;stroke-linecap:round;stroke-linejoin:round;" d="
					M3453.778,1977.846c-0.17,3.526-6.789,26.514-53.604,37.497c-8.493,2.005-30.892,2.621-31.455-2.621
					c-0.629-6.16-4.404-30.485-4.757-43.5c-0.105-4.01-13.303-13.001-10.891-15.911c7.405-8.938,20.498-19.201,20.787-22.884
					c2.189-27.681,12.569-43.107,22.753-42.556c5.819,0.315-1.573,51.665,57.182,68.454c0,0,16.698-8.663,19.188,0.485
					C3475.469,1965.958,3453.778,1977.846,3453.778,1977.846z"/>
			</g>
		</g>
		<g id="LEGS-2">
			<g id="SHOES">
				<path style="fill:#1C0E0C;" d="M2079.768,3519.341c0,0-21.704,45.125-6.802,61.442h191.43c0,0-1.062-31.599-47.183-36.58
					c-41.376-4.469-66.58-24.902-66.58-24.902L2079.768,3519.341z"/>
				<path style="fill:#1C0E0C;" d="M2070.017,3580.783h196.555c1.44,0,2.608,1.167,2.608,2.608v6.134
					c0,1.441-1.168,2.608-2.608,2.608h-196.555c-1.44,0-2.608-1.167-2.608-2.608v-6.134
					C2067.408,3581.95,2068.576,3580.783,2070.017,3580.783z"/>
				<path style="fill:none;stroke:#070707;stroke-width:6;stroke-linecap:round;stroke-linejoin:round;" d="M2163.097,3542.696
					l6.435-14.509c1.513-3.454,5.541-5.028,8.995-3.514c0.114,0.05,0.226,0.103,0.337,0.159l0,0c3.067,1.55,4.513,5.13,3.381,8.375
					l-0.891,2.451"/>
				<path style="fill:none;stroke:#070707;stroke-width:6;stroke-linecap:round;stroke-linejoin:round;" d="M2182.01,3549.446
					l6.226-14.875c1.331-3.02,4.859-4.389,7.879-3.058c0.096,0.042,0.192,0.087,0.286,0.135l0,0c2.68,1.351,3.942,4.481,2.949,7.313
					l-0.537,2.058"/>
				<path style="fill:none;stroke:#070707;stroke-width:6;stroke-linecap:round;stroke-linejoin:round;" d="M2201.184,3555.501
					l4.089-15.033c0.943-3.163,4.271-4.963,7.435-4.02c0.091,0.027,0.182,0.057,0.272,0.088l0,0c2.831,0.996,4.692,3.722,4.26,7.706
					"/>
			</g>
			<g id="SHOES-2">
				<path style="fill:#1C0E0C;" d="M1738.886,3519.341c0,0-21.704,45.125-6.802,61.442h180.749c0,0-1.075-31.599-47.183-36.58
					c-41.39-4.469-66.58-24.902-66.58-24.902L1738.886,3519.341z"/>
				<path style="fill:#1C0E0C;" d="M1729.135,3580.783h185.86c1.44,0,2.608,1.167,2.608,2.608v6.134
					c0,1.441-1.168,2.608-2.608,2.608h-185.86c-1.44,0-2.608-1.167-2.608-2.608v-6.134
					C1726.527,3581.95,1727.695,3580.783,1729.135,3580.783z"/>
				<path style="fill:none;stroke:#070707;stroke-width:6;stroke-linecap:round;stroke-linejoin:round;" d="M1811.469,3542.696
					l6.435-14.509c1.53-3.463,5.578-5.029,9.04-3.499c0.103,0.045,0.204,0.093,0.304,0.143l0,0c3.067,1.55,4.508,5.134,3.368,8.375
					l-0.891,2.451"/>
				<path style="fill:none;stroke:#070707;stroke-width:6;stroke-linecap:round;stroke-linejoin:round;" d="M1830.447,3549.446
					l6.225-14.875c1.332-3.02,4.859-4.389,7.88-3.058c0.096,0.042,0.192,0.087,0.286,0.135l0,0c2.675,1.355,3.936,4.481,2.949,7.313
					l-0.537,2.058"/>
				<path style="fill:none;stroke:#070707;stroke-width:6;stroke-linecap:round;stroke-linejoin:round;" d="M1849.608,3555.501
					l4.102-15.033c0.943-3.163,4.272-4.963,7.435-4.02c0.091,0.027,0.182,0.057,0.272,0.088l0,0c2.831,0.996,4.692,3.722,4.26,7.706
					"/>
			</g>
			<path id="PANTS" style="fill:#C5DCDD;stroke:#000000;stroke-width:6;stroke-linecap:round;stroke-linejoin:round;" d="
				M2133.15,2544.469c14.417,53.736,19.371,234.353,24.037,500.516c3.394,193.121,20.17,468.052,20.17,468.052
				s-44.116,19.161-122.098,4.273c0,0-74.706-246.136-48.087-425.443c4.246-28.729-36.134-198.888-36.134-198.888
				s-160.762,580.372-160.762,627.869c0,0-62.661,12.045-99.883,0c0,0-56.226-264.393,32.975-418.379
				c48.035-82.923,37.025-386.203,38.336-410.646c4.417-86.213,46.606-151.142,46.606-151.142L2133.15,2544.469z"/>
			<path id="SHADOW-4" style="fill:none;stroke:#070707;stroke-width:6;stroke-linecap:round;stroke-linejoin:round;" d="
				M1971.038,2895.115c-5.321-23.408-33.041-192.662-40.485-199.098s-20.21-14.889-28.716-23.408"/>
			<path id="SHADOW-5" style="fill:#1C0E0C;" d="M2138.196,2570.708c-111.561,59.45-280.933,30.354-321.314-9.397
				c3.447-7.066,7.253-13.952,11.402-20.629l304.891,3.788C2135.354,2553.112,2137.03,2561.872,2138.196,2570.708z"/>
		</g>
		<g id="LEFT_HAND">
			<path id="HAND" style="fill:#FCBE9F;stroke:#070707;stroke-width:6;stroke-linecap:round;stroke-linejoin:round;" d="
				M1834.995,2442.542c-0.88,5.753-2.128,11.444-3.735,17.038c-43.998-0.708-82.897-7.143-101.574-25.073
				c-54.339-52.163-13.5-179.7-10.944-187.42c19.017,12.647,46.37,26.776,85.348,39.856
				C1821.666,2357.797,1837.734,2423.682,1834.995,2442.542z"/>
			<path id="SHADOW-6" style="fill:#1C0E0C;" d="M1718.794,2247.062c19.017,12.648,46.37,26.776,85.348,39.856
				c4.05,16.344,8.021,32.399,11.704,47.694c-52.425-23.421-79.005-51.35-101.941-70.446L1718.794,2247.062z"/>
		</g>
		<g id="RIGHT_HAND">
			<path style="fill:#FCBE9F;stroke:#070707;stroke-width:6;stroke-linecap:round;stroke-linejoin:round;" d="M2526.141,2012.944
				c-2.621-3.421-7.051-4.115-7.942-5.531c-0.891-1.415-0.59-4.98-3.211-7.274c-2.621-2.294-6.461-1.94-8.1-3.277
				c-1.638-1.337-0.524-5.243-3.644-8.585c-3.119-3.342-7.575-2.923-8.572-3.932s16.396-31.298,9.777-35.217
				c-6.619-3.919-40.499,39.031-47.183,49.096c-13.761,20.747-13.893,46.789-15.728,56.121c-0.143,0.099-0.275,0.214-0.393,0.341
				c-5.308,6.383-130.853,130.84-153.186,172.334l-19.882-30.145l-114.155,80.853c0,0,82.976,120.578,156.358,95.06
				c69.463-24.155,148.455-258.862,163.029-291.169c23.958-4.731,43.998-31.35,50.525-43.487
				C2532.314,2022.486,2528.763,2016.352,2526.141,2012.944z"/>
			<path id="SHADOW-7" style="fill:#1C0E0C;" d="M2273.623,2205.357c-19.107,44.081-51.798,80.904-93.304,105.099
				c-9.431-10.39-18.237-21.331-26.37-32.766l114.116-80.787L2273.623,2205.357z"/>
		</g>
		<path id="T-SHIRT" style="fill:#F4F1ED;stroke:#070707;stroke-width:6;stroke-linecap:round;stroke-linejoin:round;" d="
			M1804.09,2286.918c17.575,70.879,33.644,136.764,30.905,155.624c-5.74,39.568-37.536,88.31-22.635,99.608
			c41.77,31.861,176.594,64.955,331.654,10.485c0,0-19.856-37.432,1.612-186.935c3.172-22.097,7.353-52.858,11.599-86.685h0.092
			c69.66-24.482,123.645-97.222,123.645-97.222s-33.867-89.935-71.246-120.237c-23.591-19.135-145.807-53.421-155.794-59.24
			l-145.021-1.927c-9.672,0.813-113.265,33.644-155.847,65.007c-38.755,28.545-75.086,142.465-75.086,142.465
			S1697.982,2251.269,1804.09,2286.918z"/>
		<g id="NECK-3">
			<path style="fill:#FCBE9F;stroke:#070707;stroke-width:6;stroke-linecap:round;stroke-linejoin:round;" d="M1904.563,2001.28
				c11.573-5.387,51.98-46.947,45.61-97.131l89.87,10.223c0,0,8.978,62.36,23.866,93.841c-31.542,7.969-63.984,11.815-96.515,11.442
				C1913.777,2018.973,1904.563,2001.28,1904.563,2001.28z"/>
			<path style="fill:#1C0E0C;" d="M2052.598,1976.902c-9.03-1.048-28.283-4.994-38.493-14.417
				c-16.632-15.334-39.974-49.227-40.197-55.427l66.134,7.313C2040.042,1914.372,2045.599,1945.643,2052.598,1976.902z"/>
		</g>
		<path id="FACE" style="fill:#FCBE9F;stroke:#070707;stroke-width:6;stroke-linecap:round;stroke-linejoin:round;" d="
			M1995.612,1907.53c0,0,14.142,25.203,28.637,28.834s47.72,0.799,57.825-5.243c6.239-3.722,4.351-34.64,3.159-45.872
			c-0.236-2.163,16.828-9.384,15.728-15.977c-1.167-6.999-20.511-23.591-22.215-32.884c-5.007-27.274-11.796-53.028-14.024-53.985
			c-3.617-1.586-60.512,2.031-67.235,17.562s1.743,63.618,1.743,63.618s-18.349-10.734-23.853,3.604
			C1967.224,1888.199,1995.612,1907.53,1995.612,1907.53z"/>
		<g id="HAIR-2">
			<path style="fill:none;stroke:#000000;stroke-width:6;stroke-linecap:round;stroke-linejoin:round;" d="M2101.97,1765.039
				c19.764,15.963-9.948,81.94-70.197,35.099"/>
			<path style="fill:none;stroke:#000000;stroke-width:6;stroke-linecap:round;stroke-linejoin:round;" d="M1886.555,1815.983
				c11.612-20.721,34.443-3.395,34.443-3.395"/>
			<path style="fill:#1C0E0C;" d="M2083.66,1881.632c0,0-22.281,18.126-34.849,19.659c-12.569,1.533-23.002-36.239-26.881-52.936
				c-8.703-38.768-7.68-54.26,28.349-41.036c47.523,17.444,57.039-41.337,38.703-51.233c-11.678-6.291-17.34-4.338-33.801,3.932
				c-18.349,9.279-57.209-21.442-103.422-7.864c-43.395,12.739-36.776,56.541-36.776,56.541s-17.117-3.106-20.223,21.914
				c-2.451,19.79,25.007,54.85,46.173,94.064c5.937,10.996,34.719,4.43,41.809-6.658c0,0,9.489-16.186-2.385-35.833
				c-9.738-16.094,7.025-29.083,23.722-15.046c-2.451,11.258-7.759,41.665,2.294,57.353c15.033,23.46,92.517,26.96,94.444,13.919
				S2083.66,1881.632,2083.66,1881.632z"/>
		</g>
		<circle style="fill:#FCBE9F;" cx="3455.101" cy="1955.932" r="19.201"/>
		<path style="fill:none;stroke:#070707;stroke-width:4;stroke-linecap:round;stroke-linejoin:round;" d="M3447.801,1967.649
			c0,0-2.215-7.562-0.17-14.417c1.421-5.064,5.554-8.909,10.708-9.961"/>
		
			<line style="fill:none;stroke:#070707;stroke-width:4;stroke-linecap:round;stroke-linejoin:round;" x1="3458.339" y1="1958.225" x2="3447.631" y2="1953.258"/>
		
			<circle style="fill:#F7F3EF;stroke:#070707;stroke-width:4;stroke-linecap:round;stroke-linejoin:round;" cx="3469.361" cy="1977.452" r="8.925"/>
		<ellipse style="fill:#1C0E0C;" cx="3384.196" cy="1932.131" rx="4.364" ry="6.396"/>
		<path style="fill:none;stroke:#070707;stroke-width:4;stroke-linecap:round;stroke-linejoin:round;" d="M3368.796,1977.452
			c0,0,9.882,0.878,15.4-5.806"/>
		<path style="fill:#FCBE9F;stroke:#070707;stroke-width:6;stroke-linecap:round;stroke-linejoin:round;" d="M2014.656,1905.84
			c-18.096,5.02-36.835-5.58-41.855-23.676c-5.02-18.096,5.581-36.835,23.677-41.855"/>
		<path style="fill:#FCBE9F;stroke:#070707;stroke-width:6;stroke-linecap:round;stroke-linejoin:round;" d="M1984.852,1869.142
			c0,0,13.565-8.821,23.735,6.776"/>
		
			<line style="fill:none;stroke:#070707;stroke-width:6;stroke-linecap:round;stroke-linejoin:round;" x1="2000.095" y1="1868.002" x2="1993.109" y2="1881.632"/>
		
			<ellipse transform="matrix(0.9815 -0.1917 0.1917 0.9815 -315.55 429.3996)" style="fill:#1C0E0C;" cx="2061.816" cy="1845.796" rx="5.4" ry="8.139"/>
		<path style="fill:#1C0E0C;" d="M2043.227,1826.605l12.465-6.734c2.305-1.245,5.184-0.386,6.429,1.919l0,0
			c1.246,2.305,0.386,5.184-1.919,6.429l-12.465,6.734c-2.305,1.245-5.184,0.386-6.429-1.919l0,0
			C2040.063,1830.729,2040.922,1827.851,2043.227,1826.605z"/>
		
			<line style="fill:none;stroke:#070707;stroke-width:6;stroke-linecap:round;stroke-linejoin:round;" x1="1768.454" y1="2152.094" x2="1804.09" y2="2286.918"/>
		<path style="fill:none;stroke:#070707;stroke-width:6;stroke-linecap:round;stroke-linejoin:round;" d="M2207.147,2073.063
			c0,0-76.134,4.64-87.746,87.157"/>
	</g>
</g>
</svg>
