<?xml version="1.0" encoding="UTF-8"?>
<svg id="ap_2" data-name="ap 2" xmlns="http://www.w3.org/2000/svg" viewBox="0 0 4912 3143.29">
    <defs>
        <style>
            .cls-1, .cls-2, .cls-3, .cls-4, .cls-5 {
            opacity: .6;
            }

            .cls-6 {
            stroke: #fff;
            }

            .cls-6, .cls-7, .cls-8, .cls-9, .cls-10, .cls-11, .cls-12, .cls-13, .cls-14, .cls-15 {
            stroke-linecap: round;
            stroke-linejoin: round;
            }

            .cls-6, .cls-7, .cls-8, .cls-9, .cls-10, .cls-12, .cls-13, .cls-14, .cls-15 {
            stroke-width: 4px;
            }

            .cls-6, .cls-8, .cls-11 {
            fill: none;
            }

            .cls-16, .cls-9 {
            fill: #fff;
            }

            .cls-2, .cls-10 {
            fill: #e9d822;
            }

            .cls-7 {
            fill: #2855e0;
            }

            .cls-7, .cls-8, .cls-9, .cls-10, .cls-11, .cls-12, .cls-13, .cls-14, .cls-15 {
            stroke: #14033b;
            }

            .cls-3, .cls-13 {
            fill: #9782ff;
            }

            .cls-4, .cls-14 {
            fill: #aaf2d7;
            }

            .cls-5, .cls-12 {
            fill: #eb5638;
            }

            .cls-11 {
            stroke-width: 12px;
            }

            .cls-15 {
            fill: #14033b;
            }
        </style>
    </defs>
    <g>
        <path class="cls-14" d="M789.63,233.6h1872.51c27.28,0,49.42,22.14,49.42,49.42v1147.77c0,27.28-22.14,49.42-49.42,49.42H789.63c-27.28,0-49.42-22.14-49.42-49.42V283.02c0-27.28,22.14-49.42,49.42-49.42Z" transform="translate(3451.76 1713.81) rotate(180)"/>
        <path class="cls-13" d="M789.63,233.6h1872.51c27.29,0,49.42,22.13,49.42,49.42v104.65H740.21v-104.65c0-27.29,22.13-49.42,49.42-49.42Z"/>
        <g>
            <line class="cls-8" x1="2664.94" y1="300.71" x2="2609.23" y2="348.52"/>
            <line class="cls-8" x1="2609.23" y1="300.71" x2="2664.94" y2="348.52"/>
            <circle class="cls-8" cx="2528.2" cy="324.62" r="23.9" transform="translate(-6.95 589.55) rotate(-13.28)"/>
            <line class="cls-8" x1="2458.31" y1="324.62" x2="2402.46" y2="324.62"/>
        </g>
    </g>
    <g>
        <rect class="cls-13" x="233.6" y="955.26" width="1237.81" height="997.86" rx="39.56" ry="39.56"/>
        <path class="cls-10" d="M1431.85,955.26H273.16c-21.85,0-39.56,17.71-39.56,39.56v83.77h1237.81v-83.77c0-21.85-17.71-39.56-39.56-39.56Z"/>
        <g>
            <line class="cls-8" x1="1417.03" y1="1002.96" x2="1361.33" y2="1050.77"/>
            <line class="cls-8" x1="1361.33" y1="1002.96" x2="1417.03" y2="1050.77"/>
            <circle class="cls-8" cx="1280.3" cy="1026.87" r="23.9" transform="translate(-201.68 321.62) rotate(-13.28)"/>
            <line class="cls-8" x1="1210.41" y1="1026.87" x2="1154.56" y2="1026.87"/>
        </g>
    </g>
    <g>
        <path class="cls-10" d="M2526.28,755.02h1717.96c27.28,0,49.42,22.14,49.42,49.42v1147.77c0,27.28-22.14,49.42-49.42,49.42h-1717.96c-27.28,0-49.42-22.14-49.42-49.42V804.44c0-27.28,22.14-49.42,49.42-49.42Z" transform="translate(6770.53 2756.66) rotate(180)"/>
        <path class="cls-14" d="M2526.28,755.02h1717.96c27.29,0,49.42,22.13,49.42,49.42v104.65h-1816.8v-104.65c0-27.29,22.13-49.42,49.42-49.42Z"/>
        <g>
            <line class="cls-8" x1="4247.04" y1="822.13" x2="4191.33" y2="869.94"/>
            <line class="cls-8" x1="4191.33" y1="822.13" x2="4247.04" y2="869.94"/>
            <circle class="cls-8" cx="4110.31" cy="846.04" r="23.9" transform="translate(-84.43 966.99) rotate(-13.28)"/>
            <line class="cls-8" x1="4040.42" y1="846.04" x2="3984.56" y2="846.04"/>
        </g>
    </g>
    <g>
        <g>
            <g>
                <path class="cls-7" d="M2612.44,1663.08l25.36,57.89c12.57,28.69,34.25,52.43,61.69,67.53l28.94,15.93c15.68,8.63,18.68,29.91,5.99,42.54l-196.86,195.88c-4.9,4.88-11.54,7.62-18.45,7.62h-29.95c-6.92,0-13.55-2.74-18.45-7.62l-196.86-195.88c-12.69-12.63-9.69-33.9,5.99-42.54l28.94-15.93c27.44-15.1,49.13-38.84,61.69-67.53l25.36-57.89h216.61Z"/>
                <path class="cls-9" d="M2613.3,1895.78c13.97-39.97,10.32-83.99-10.02-121.12l-40.77-74.41h-116.75l-40.77,74.41c-20.34,37.13-23.98,81.15-10.02,121.12l38.4,109.91,37.34,37.15c4.9,4.88,11.54,7.62,18.45,7.62h29.95c6.92,0,13.55-2.74,18.45-7.62l37.34-37.15,38.4-109.91Z"/>
            </g>
            <g>
                <path class="cls-9" d="M2714.54,1555.86l-30.19,140.78c-2.57,12-11.91,21.38-23.9,24-32.26,7.07-97.09,24.74-137.94,59.18-10.62,8.95-26.15,8.95-36.76,0-40.84-34.43-105.68-52.11-137.94-59.18-11.99-2.63-21.33-12-23.9-24l-30.19-140.78,210.41-101.67,210.41,101.67Z"/>
                <path class="cls-9" d="M2323.92,1696.64c2.57,12,11.91,21.37,23.9,24,12.55,2.75,30.05,7.13,49.12,13.45.01,0,4.17-44.2,4.17-44.2,3.22-34.16-.62-68.61-11.28-101.22l-22.38-68.45-73.73,35.63,30.19,140.78Z"/>
                <path class="cls-9" d="M2684.36,1696.64c-2.57,12-11.91,21.37-23.9,24-12.55,2.75-30.05,7.13-49.12,13.45-.01,0-4.17-44.2-4.17-44.2-3.22-34.16.62-68.61,11.28-101.22l22.38-68.45,73.73,35.63-30.19,140.78Z"/>
                <g>
                    <path class="cls-15" d="M2453.88,1595.8c5.48,20.86,8.76,42.23,9.8,63.77l5.18,107.76c5.95,3.91,11.63,8.06,16.9,12.51,10.64,8.97,26.11,8.97,36.75,0,5.28-4.45,10.97-8.61,16.93-12.51l5.18-107.75c1.04-21.54,4.32-42.91,9.8-63.76l27.35-104.1-77.63-37.51-77.61,37.5,27.35,104.11Z"/>
                    <line class="cls-6" x1="2503.64" y1="1786.53" x2="2503.64" y2="1511.43"/>
                </g>
            </g>
            <g>
                <path class="cls-7" d="M2504.14,1051.83c133.23,0,313.25,28.6,425.79,49.24,52.63,9.65,80.78,67.58,55.79,114.9l-66.78,126.4c-17.62,33.35-32.79,67.94-45.39,103.49l-65.49,184.75c-6.9,19.47-25.32,32.49-45.98,32.49h-17.22c-24.19,0-47.23-10.29-63.3-28.37-39-43.9-60.21-123.27-177.41-123.27s-138.41,79.38-177.41,123.27c-16.07,18.08-39.11,28.37-63.3,28.37h-17.22c-20.66,0-39.08-13.01-45.98-32.49l-65.49-184.75c-12.6-35.55-27.77-70.14-45.39-103.49l-66.78-126.4c-25-47.31,3.15-105.24,55.79-114.9,112.54-20.64,292.56-49.24,425.79-49.24Z"/>
                <g>
                    <path class="cls-9" d="M2764.53,1102.38l32.12-23.67c-72.23-19.03-178.01-40.1-292.36-40.1s-220.14,21.07-292.32,40.09c-.04.01,32.08,23.68,32.08,23.68,50.24,37.02,70.75,102.29,50.72,161.39l-46.55,137.37c-8.77,25.89-9.16,53.88-1.11,80l15.32,49.67c8.18,26.54,41.3,35.4,61.64,16.48l110.38-102.69c12.03-11.19,27.85-17.41,44.28-17.41h51.12c16.43,0,32.25,6.22,44.28,17.41l110.38,102.69c20.34,18.92,53.45,10.06,61.64-16.48l15.32-49.67c8.05-26.12,7.67-54.11-1.11-80l-46.56-137.37c-20.03-59.1.48-124.37,50.72-161.39Z"/>
                    <g>
                        <ellipse class="cls-15" cx="2504.3" cy="1269.55" rx="71.86" ry="38.46"/>
                        <ellipse class="cls-7" cx="2504.3" cy="1262.49" rx="71.86" ry="38.46"/>
                    </g>
                </g>
            </g>
        </g>
        <g>
            <g>
                <circle class="cls-15" cx="3114.63" cy="1215.65" r="72.23"/>
                <path class="cls-7" d="M3175.94,1194.43l-20.51,30.36c-16.92,25.05-45.96,39.12-76.1,36.89l-35.53-2.63c-16.87-1.25-28.83,16.14-21.64,31.45l218.83,465.45c8.02,17.06,28,24.84,45.45,17.69l69.44-28.46c17.09-7,25.92-25.97,20.28-43.55l-160.86-501.56c-5.63-17.56-29.03-20.91-39.36-5.62Z"/>
            </g>
            <g>
                <path class="cls-9" d="M2936.7,1050.86l31-16.28c59.45-31.22,127.47-42.16,193.72-31.17l119.93,19.9c23.86,3.96,33.33,33.17,16.34,50.38l-75.11,76.06c-38.38,38.87-88.06,64.63-141.95,73.59l-135.8,22.6c-19.81,3.3-38.79-9.27-43.5-28.79l-13.88-57.56c-10.43-43.25,9.87-88.05,49.26-108.73Z"/>
                <path class="cls-9" d="M2967.7,1034.58l-31,16.28c-39.39,20.68-59.68,65.49-49.26,108.74l4.19,17.38,139.44-21.54c59.56-9.2,115.7-33.75,162.89-71.23l78.54-62.37-111.08-18.44c-66.24-10.99-134.27-.05-193.72,31.17Z"/>
            </g>
        </g>
        <g>
            <path class="cls-9" d="M2440.8,883.58h125.68v192.86c0,21.24-17.24,38.48-38.48,38.48h-48.72c-21.24,0-38.48-17.24-38.48-38.48v-192.86h0Z"/>
            <polygon class="cls-15" points="2566.48 959.34 2440.8 1003.62 2440.8 935.07 2566.48 935.07 2566.48 959.34"/>
        </g>
        <g>
            <g>
                <polygon class="cls-10" points="2826.35 839.56 2907.39 728.53 2758.03 412.3 2809.16 644.85 2862.07 696.63 2826.35 707.16 2826.35 839.56"/>
                <path class="cls-7" d="M2832.96,883.04l-60.18,11.61v-176.92l60.18,11.61c10.28,1.98,17.71,10.98,17.71,21.45v110.8c0,10.47-7.43,19.47-17.71,21.45Z"/>
            </g>
            <g>
                <polygon class="cls-10" points="2182.24 839.56 2101.2 728.53 2250.57 412.3 2199.43 644.85 2146.52 696.63 2182.24 707.16 2182.24 839.56"/>
                <path class="cls-7" d="M2175.63,883.04l60.18,11.61v-176.92l-60.18,11.61c-10.28,1.98-17.71,10.98-17.71,21.45v110.8c0,10.47,7.43,19.47,17.71,21.45Z"/>
            </g>
            <g>
                <path class="cls-9" d="M2446.53,522.82h115.53c140.83,0,255.17,114.34,255.17,255.17v64.14c0,64.69-52.52,117.2-117.2,117.2h-391.47c-64.69,0-117.2-52.52-117.2-117.2v-64.14c0-140.83,114.34-255.17,255.17-255.17Z"/>
                <path class="cls-7" d="M2562.06,522.82h-115.53c-36.35,0-70.91,7.65-102.2,21.36v161.96h319.43v-162.19c-31.17-13.56-65.55-21.13-101.7-21.13Z"/>
                <g>
                    <path class="cls-15" d="M2799.43,766.74c0,66.84-46.93,124.47-112.38,137.97-44.19,9.11-103.82,16.06-182.94,16.06s-138.49-6.92-182.6-16.01c-65.45-13.49-112.35-71.14-112.35-137.96v-45.77c0-22.43,20.05-39.55,42.21-36.03l44.34,7.04c40.43,6.42,81.61,6.42,122.04-.01l27.91-4.44c38.73-6.16,78.19-6.17,116.93-.02l28.33,4.49c40.38,6.41,81.52,6.4,121.89-.01l44.41-7.05c22.15-3.52,42.21,13.6,42.21,36.03v45.72Z"/>
                    <g>
                        <path class="cls-10" d="M2626.59,755.9c27.54,0,49.86,22.32,49.86,49.86v2.18c0,4.25-3.45,7.7-7.7,7.7h-84.33c-4.25,0-7.7-3.45-7.7-7.7v-2.18c0-27.54,22.32-49.86,49.86-49.86Z"/>
                        <path class="cls-9" d="M2505.32,886.78c-27.54,0-49.86-22.32-49.86-49.86v-2.18c0-4.25,3.45-7.7,7.7-7.7h84.33c4.25,0,7.7,3.45,7.7,7.7v2.18c0,27.54-22.32,49.86-49.86,49.86Z"/>
                        <path class="cls-10" d="M2382,755.9c27.54,0,49.86,22.32,49.86,49.86v2.18c0,4.25-3.45,7.7-7.7,7.7h-84.33c-4.25,0-7.7-3.45-7.7-7.7v-2.18c0-27.54,22.32-49.86,49.86-49.86Z"/>
                    </g>
                </g>
            </g>
        </g>
        <g>
            <circle class="cls-15" cx="3336.95" cy="1773.81" r="51.08" transform="translate(-228.21 520.32) rotate(-8.62)"/>
            <path class="cls-9" d="M3365.68,1814.84l-2.85-8.07c-10.31-29.23-37.67-49-68.66-49.6l-8.56-.17c-13.25-.26-21.45-14.54-14.99-26.11l244.07-450.78c17.73-31.76,54.03-48.33,89.64-40.92l21.21,4.41c50.81,10.57,94.72,42.29,120.72,87.2l10.85,18.75c18.22,31.48,13.9,71.15-10.68,97.96l-351.26,373.35c-8.96,9.77-25.09,6.47-29.5-6.03Z"/>
        </g>
        <g>
            <path class="cls-9" d="M3572.26,1268.3v39.44c0,58.23,47.2,105.43,105.43,105.43h156.1v-180.62s-31.56,0-31.56,0c-20.13,0-36.45-16.32-36.45-36.45v-33.24h-88.09c-58.23,0-105.43,47.2-105.43,105.43Z"/>
            <g>
                <path class="cls-16" d="M3823.03,1232.55v69.68h189.24c19.24,0,34.84-15.6,34.84-34.84s-15.6-34.84-34.84-34.84h-189.24Z"/>
                <path class="cls-8" d="M3833.79,1302.24h178.48c19.24,0,34.84-15.6,34.84-34.84s-15.6-34.84-34.84-34.84h-189.24"/>
                <circle class="cls-7" cx="3923.5" cy="1267.4" r="34.84"/>
            </g>
            <g>
                <path class="cls-16" d="M3823.03,1267.4v69.68h215.88c19.24,0,34.84-15.6,34.84-34.84s-15.6-34.84-34.84-34.84h-215.88Z"/>
                <path class="cls-8" d="M3831.57,1337.08h207.34c19.24,0,34.84-15.6,34.84-34.84s-15.6-34.84-34.84-34.84h-215.88"/>
                <circle class="cls-7" cx="3952.55" cy="1302.24" r="34.84"/>
            </g>
            <g>
                <path class="cls-16" d="M3823.03,1302.24v69.68s189.24,0,189.24,0c19.24,0,34.84-15.6,34.84-34.84s-15.6-34.84-34.84-34.84h-189.24Z"/>
                <path class="cls-8" d="M3829.9,1371.92h182.37c19.24,0,34.84-15.6,34.84-34.84s-15.6-34.84-34.84-34.84h-189.24"/>
                <circle class="cls-7" cx="3923.5" cy="1337.08" r="34.84"/>
            </g>
            <g>
                <path class="cls-16" d="M3823.03,1343.49v69.68h129.52c19.24,0,34.84-15.6,34.84-34.84s-15.6-34.84-34.84-34.84h-129.52Z"/>
                <path class="cls-8" d="M3823.03,1413.17h129.52c19.24,0,34.84-15.6,34.84-34.84s-15.6-34.84-34.84-34.84h-143.55l-60.62-40.43c-27.79-18.53-60.45-28.42-93.85-28.42"/>
                <circle class="cls-7" cx="3895.94" cy="1378.33" r="34.84"/>
            </g>
            <g>
                <path class="cls-16" d="M3637.24,1187.22l30.56,62.62,144.88-70.7c17.29-8.44,24.47-29.3,16.03-46.59-8.44-17.29-29.3-24.47-46.59-16.03l-144.88,70.7Z"/>
                <g>
                    <path class="cls-8" d="M3767.39,1206.84l-1.16-5.03,46.45-22.67c17.29-8.44,24.47-29.3,16.03-46.59-8.44-17.29-29.3-24.47-46.59-16.03l-94.98,46.35h-10.69"/>
                    <line class="cls-8" x1="3766.23" y1="1201.82" x2="3762.75" y2="1185.45"/>
                </g>
            </g>
        </g>
        <g>
            <g>
                <circle class="cls-15" cx="1893.67" cy="1215.65" r="72.23" transform="translate(-116.69 2226.71) rotate(-59.4)"/>
                <path class="cls-7" d="M1832.35,1194.43l20.51,30.36c16.92,25.05,45.96,39.12,76.1,36.89l35.53-2.63c16.87-1.25,28.83,16.14,21.64,31.45l-218.83,465.45c-8.02,17.06-28,24.84-45.45,17.69l-69.44-28.46c-17.09-7-25.92-25.97-20.28-43.55l160.86-501.56c5.63-17.56,29.03-20.91,39.36-5.62Z"/>
            </g>
            <g>
                <path class="cls-9" d="M2071.6,1050.86l-31-16.28c-59.45-31.22-127.47-42.16-193.72-31.17l-119.93,19.9c-23.86,3.96-33.33,33.17-16.34,50.38l75.11,76.06c38.38,38.87,88.06,64.63,141.95,73.59l135.8,22.6c19.81,3.3,38.79-9.27,43.5-28.79l13.88-57.56c10.43-43.25-9.87-88.05-49.26-108.73Z"/>
                <path class="cls-9" d="M2040.6,1034.58l31,16.28c39.39,20.68,59.68,65.49,49.26,108.74l-4.19,17.38-139.44-21.54c-59.56-9.2-115.7-33.75-162.89-71.23l-78.54-62.37,111.08-18.44c66.24-10.99,134.27-.05,193.72,31.17Z"/>
            </g>
        </g>
        <g>
            <circle class="cls-15" cx="1671.35" cy="1773.81" r="51.08" transform="translate(-614.71 2618.66) rotate(-66.99)"/>
            <path class="cls-9" d="M1642.61,1814.84l2.85-8.07c10.31-29.23,37.67-49,68.66-49.6l8.56-.17c13.25-.26,21.45-14.54,14.99-26.11l-244.07-450.78c-17.73-31.76-54.03-48.33-89.64-40.92l-21.21,4.41c-50.81,10.57-94.72,42.29-120.72,87.2l-10.85,18.75c-18.22,31.48-13.9,71.15,10.68,97.96l351.26,373.35c8.96,9.77,25.09,6.47,29.5-6.03Z"/>
        </g>
        <g>
            <path class="cls-9" d="M1436.04,1268.3v39.44c0,58.23-47.2,105.43-105.43,105.43h-156.1v-180.62h31.56c20.13,0,36.45-16.32,36.45-36.45v-33.24h88.09c58.23,0,105.43,47.2,105.43,105.43Z"/>
            <g>
                <path class="cls-16" d="M1185.27,1232.55v69.68h-189.24c-19.24,0-34.84-15.6-34.84-34.84s15.6-34.84,34.84-34.84h189.24Z"/>
                <path class="cls-8" d="M1174.51,1302.24h-178.48c-19.24,0-34.84-15.6-34.84-34.84s15.6-34.84,34.84-34.84h189.24"/>
                <circle class="cls-7" cx="1084.79" cy="1267.4" r="34.84"/>
            </g>
            <g>
                <path class="cls-16" d="M1185.27,1267.4v69.68h-215.88c-19.24,0-34.84-15.6-34.84-34.84s15.6-34.84,34.84-34.84h215.88Z"/>
                <path class="cls-8" d="M1176.72,1337.08h-207.34c-19.24,0-34.84-15.6-34.84-34.84s15.6-34.84,34.84-34.84h215.88"/>
                <circle class="cls-7" cx="1055.75" cy="1302.24" r="34.84"/>
            </g>
            <g>
                <path class="cls-16" d="M1185.27,1302.24v69.68h-189.24c-19.24,0-34.84-15.6-34.84-34.84s15.6-34.84,34.84-34.84h189.24Z"/>
                <path class="cls-8" d="M1178.4,1371.92h-182.37c-19.24,0-34.84-15.6-34.84-34.84s15.6-34.84,34.84-34.84h189.24"/>
                <circle class="cls-7" cx="1084.79" cy="1337.08" r="34.84"/>
            </g>
            <g>
                <path class="cls-16" d="M1185.27,1343.49v69.68h-129.52c-19.24,0-34.84-15.6-34.84-34.84,0-19.24,15.6-34.84,34.84-34.84h129.52Z"/>
                <path class="cls-8" d="M1185.27,1413.17h-129.52c-19.24,0-34.84-15.6-34.84-34.84,0-19.24,15.6-34.84,34.84-34.84h143.55l60.62-40.43c27.79-18.53,60.45-28.42,93.85-28.42"/>
                <circle class="cls-7" cx="1112.36" cy="1378.33" r="34.84"/>
            </g>
            <path class="cls-16" d="M1371.05,1187.22l-30.56,62.62-144.88-70.7c-17.29-8.44-24.47-29.3-16.03-46.59,8.44-17.29,29.3-24.47,46.59-16.03l144.88,70.7Z"/>
            <path class="cls-8" d="M1240.91,1206.84l1.16-5.03-46.45-22.67c-17.29-8.44-24.47-29.3-16.03-46.59,8.44-17.29,29.3-24.47,46.59-16.03l94.98,46.35h10.69"/>
            <line class="cls-8" x1="1242.07" y1="1201.82" x2="1245.54" y2="1185.45"/>
        </g>
    </g>
    <g>
        <g>
            <path class="cls-4" d="M1568.04,1201.82h1872.51c27.28,0,49.42,22.14,49.42,49.42v1147.77c0,27.28-22.14,49.42-49.42,49.42h-1872.51c-27.28,0-49.42-22.14-49.42-49.42v-1147.77c0-27.28,22.14-49.42,49.42-49.42Z"/>
            <path class="cls-8" d="M1568.04,1201.82h1872.51c27.28,0,49.42,22.14,49.42,49.42v1147.77c0,27.28-22.14,49.42-49.42,49.42h-1872.51c-27.28,0-49.42-22.14-49.42-49.42v-1147.77c0-27.28,22.14-49.42,49.42-49.42Z"/>
        </g>
        <g>
            <path class="cls-5" d="M3440.55,1201.81h-1872.51c-27.29,0-49.42,22.13-49.42,49.42v104.65h1971.35v-104.65c0-27.29-22.13-49.42-49.42-49.42Z"/>
            <path class="cls-8" d="M3440.55,1201.81h-1872.51c-27.29,0-49.42,22.13-49.42,49.42v104.65h1971.35v-104.65c0-27.29-22.13-49.42-49.42-49.42Z"/>
        </g>
        <g class="cls-1">
            <line class="cls-11" x1="2531.56" y1="1520.23" x2="3351.39" y2="1520.23"/>
            <line class="cls-11" x1="2079.02" y1="1520.23" x2="2440.8" y2="1520.23"/>
            <line class="cls-11" x1="1657.2" y1="1520.23" x2="1988.27" y2="1520.23"/>
            <line class="cls-11" x1="2842.03" y1="1642.49" x2="3351.39" y2="1642.49"/>
            <line class="cls-11" x1="2339.11" y1="1642.49" x2="2751.28" y2="1642.49"/>
            <line class="cls-11" x1="1657.2" y1="1642.49" x2="2248.35" y2="1642.49"/>
            <line class="cls-11" x1="2685.91" y1="1764.75" x2="3351.39" y2="1764.75"/>
            <line class="cls-11" x1="1950.7" y1="1764.75" x2="2595.37" y2="1764.75"/>
            <line class="cls-11" x1="1657.2" y1="1764.75" x2="1859.95" y2="1764.75"/>
            <line class="cls-11" x1="2985.46" y1="1887.01" x2="3351.39" y2="1887.01"/>
            <line class="cls-11" x1="2124.39" y1="1887.01" x2="2894.71" y2="1887.01"/>
            <line class="cls-11" x1="1657.2" y1="1887.01" x2="2033.64" y2="1887.01"/>
            <line class="cls-11" x1="2857.51" y1="2009.28" x2="3351.39" y2="2009.28"/>
            <line class="cls-11" x1="2384.48" y1="2009.28" x2="2766.76" y2="2009.28"/>
            <line class="cls-11" x1="1827.72" y1="2009.28" x2="2293.73" y2="2009.28"/>
            <line class="cls-11" x1="2667.04" y1="2131.54" x2="3351.39" y2="2131.54"/>
            <line class="cls-11" x1="1918.47" y1="2131.54" x2="2576.29" y2="2131.54"/>
            <line class="cls-11" x1="1657.2" y1="2131.54" x2="1827.72" y2="2131.54"/>
            <line class="cls-11" x1="2033.64" y1="2253.8" x2="3351.39" y2="2253.8"/>
        </g>
        <g>
            <line class="cls-6" x1="1565.24" y1="1268.93" x2="1620.95" y2="1316.74"/>
            <line class="cls-6" x1="1620.95" y1="1268.93" x2="1565.24" y2="1316.74"/>
            <circle class="cls-6" cx="1701.98" cy="1292.83" r="23.9" transform="translate(-365.19 749.73) rotate(-22.5)"/>
            <line class="cls-6" x1="1771.87" y1="1292.83" x2="1827.72" y2="1292.83"/>
        </g>
    </g>
    <g>
        <g>
            <rect class="cls-2" x="511.17" y="1663.08" width="1546.39" height="1246.61" rx="49.42" ry="49.42"/>
            <rect class="cls-8" x="511.17" y="1663.08" width="1546.39" height="1246.61" rx="49.42" ry="49.42"/>
        </g>
        <g>
            <path class="cls-5" d="M2008.14,1663.08H560.59c-27.29,0-49.42,22.13-49.42,49.42v104.65h1546.39v-104.65c0-27.29-22.13-49.42-49.42-49.42Z"/>
            <path class="cls-8" d="M2008.14,1663.08H560.59c-27.29,0-49.42,22.13-49.42,49.42v104.65h1546.39v-104.65c0-27.29-22.13-49.42-49.42-49.42Z"/>
        </g>
        <g class="cls-1">
            <line class="cls-11" x1="1284.89" y1="1981.5" x2="1918.97" y2="1981.5"/>
            <line class="cls-11" x1="1071.57" y1="1981.5" x2="1194.14" y2="1981.5"/>
            <line class="cls-11" x1="649.76" y1="1981.5" x2="980.82" y2="1981.5"/>
            <line class="cls-11" x1="1595.37" y1="2177.94" x2="1918.97" y2="2177.94"/>
            <line class="cls-11" x1="1092.44" y1="2177.94" x2="1504.62" y2="2177.94"/>
            <line class="cls-11" x1="649.76" y1="2177.94" x2="1001.69" y2="2177.94"/>
            <line class="cls-11" x1="1439.25" y1="2374.38" x2="1918.97" y2="2374.38"/>
            <line class="cls-11" x1="943.26" y1="2374.38" x2="1348.7" y2="2374.38"/>
            <line class="cls-11" x1="649.76" y1="2374.38" x2="852.5" y2="2374.38"/>
            <line class="cls-11" x1="1738.8" y1="2570.82" x2="1918.97" y2="2570.82"/>
            <line class="cls-11" x1="1116.95" y1="2570.82" x2="1648.04" y2="2570.82"/>
            <line class="cls-11" x1="649.76" y1="2570.82" x2="1026.19" y2="2570.82"/>
            <line class="cls-11" x1="1610.85" y1="2767.26" x2="1918.97" y2="2767.26"/>
            <line class="cls-11" x1="1137.82" y1="2767.26" x2="1520.1" y2="2767.26"/>
            <line class="cls-11" x1="820.27" y1="2767.26" x2="1047.06" y2="2767.26"/>
        </g>
        <g>
            <line class="cls-6" x1="557.79" y1="1730.19" x2="613.5" y2="1778"/>
            <line class="cls-6" x1="613.5" y1="1730.19" x2="557.79" y2="1778"/>
            <circle class="cls-6" cx="694.53" cy="1754.1" r="23.9" transform="translate(-1036.91 1004.87) rotate(-45)"/>
            <line class="cls-6" x1="764.42" y1="1754.1" x2="820.27" y2="1754.1"/>
        </g>
    </g>
    <g>
        <g>
            <rect class="cls-3" x="3132.02" y="1630.49" width="1546.39" height="1246.61" rx="49.42" ry="49.42"/>
            <rect class="cls-8" x="3132.02" y="1630.49" width="1546.39" height="1246.61" rx="49.42" ry="49.42"/>
        </g>
        <g>
            <path class="cls-5" d="M4628.98,1630.49h-1447.54c-27.29,0-49.42,22.13-49.42,49.42v104.65h1546.39v-104.65c0-27.29-22.13-49.42-49.42-49.42Z"/>
            <path class="cls-8" d="M4628.98,1630.49h-1447.54c-27.29,0-49.42,22.13-49.42,49.42v104.65h1546.39v-104.65c0-27.29-22.13-49.42-49.42-49.42Z"/>
        </g>
        <g class="cls-1">
            <line class="cls-11" x1="3905.74" y1="1948.91" x2="4539.82" y2="1948.91"/>
            <line class="cls-11" x1="3692.42" y1="1948.91" x2="3814.98" y2="1948.91"/>
            <line class="cls-11" x1="3270.6" y1="1948.91" x2="3601.66" y2="1948.91"/>
            <line class="cls-11" x1="4216.22" y1="2071.17" x2="4539.82" y2="2071.17"/>
            <line class="cls-11" x1="3713.29" y1="2071.17" x2="4125.46" y2="2071.17"/>
            <line class="cls-11" x1="3270.6" y1="2071.17" x2="3622.53" y2="2071.17"/>
            <line class="cls-11" x1="4060.09" y1="2193.43" x2="4539.82" y2="2193.43"/>
            <line class="cls-11" x1="3564.1" y1="2193.43" x2="3969.55" y2="2193.43"/>
            <line class="cls-11" x1="3270.6" y1="2193.43" x2="3473.35" y2="2193.43"/>
            <line class="cls-11" x1="4359.64" y1="2315.69" x2="4539.82" y2="2315.69"/>
            <line class="cls-11" x1="3737.79" y1="2315.69" x2="4268.89" y2="2315.69"/>
            <line class="cls-11" x1="3270.6" y1="2315.69" x2="3647.04" y2="2315.69"/>
            <line class="cls-11" x1="4231.7" y1="2437.95" x2="4539.82" y2="2437.95"/>
            <line class="cls-11" x1="3758.66" y1="2437.95" x2="4140.94" y2="2437.95"/>
            <line class="cls-11" x1="3441.12" y1="2437.95" x2="3667.91" y2="2437.95"/>
            <line class="cls-11" x1="4041.22" y1="2560.21" x2="4539.82" y2="2560.21"/>
            <line class="cls-11" x1="3531.87" y1="2560.21" x2="3950.47" y2="2560.21"/>
            <line class="cls-11" x1="3270.6" y1="2560.21" x2="3441.12" y2="2560.21"/>
            <line class="cls-11" x1="3436.13" y1="2682.47" x2="4539.82" y2="2682.47"/>
        </g>
        <g>
            <line class="cls-6" x1="3178.64" y1="1697.6" x2="3234.35" y2="1745.41"/>
            <line class="cls-6" x1="3234.35" y1="1697.6" x2="3178.64" y2="1745.41"/>
            <circle class="cls-6" cx="3315.38" cy="1721.51" r="23.9" transform="translate(878.21 4552.67) rotate(-76.72)"/>
            <line class="cls-6" x1="3385.26" y1="1721.51" x2="3441.12" y2="1721.51"/>
        </g>
    </g>
    <g>
        <g>
            <polyline class="cls-8" points="536.74 410.94 536.74 30.13 2235.81 30.13"/>
            <circle class="cls-7" cx="536.74" cy="410.94" r="28.13" transform="translate(14.68 840.37) rotate(-76.88)"/>
            <circle class="cls-12" cx="2235.81" cy="30.13" r="28.13" transform="translate(1692.8 2199.2) rotate(-76.72)"/>
        </g>
        <g>
            <polyline class="cls-8" points="4497.14 1176.97 4497.14 551.55 3166.75 551.55"/>
            <circle class="cls-12" cx="3166.75" cy="551.55" r="28.13" transform="translate(1902.38 3506.86) rotate(-76.72)"/>
            <circle class="cls-7" cx="4497.14" cy="1176.97" r="28.13" transform="translate(484.93 3524.68) rotate(-45)"/>
        </g>
        <g>
            <polyline class="cls-8" points="4405.17 1427.02 4881.87 1427.02 4881.87 1798.62"/>
            <circle class="cls-12" cx="4405.17" cy="1427.02" r="28.13"/>
            <circle class="cls-7" cx="4881.87" cy="1798.62" r="28.13" transform="translate(2009.74 6136.66) rotate(-76.72)"/>
        </g>
        <g>
            <polyline class="cls-8" points="4405.17 3080.57 4881.87 3080.57 4881.87 2630.33"/>
            <circle class="cls-7" cx="4881.87" cy="2640.6" r="28.13" transform="translate(-437.32 4225.42) rotate(-45)"/>
            <circle class="cls-12" cx="4405.17" cy="3080.57" r="28.13" transform="translate(394.91 6660.13) rotate(-76.72)"/>
        </g>
        <g>
            <polyline class="cls-8" points="307.7 2621.65 307.7 3113.16 780.54 3113.16"/>
            <circle class="cls-7" cx="780.54" cy="3113.16" r="28.13" transform="translate(-1622.06 985.12) rotate(-34.39)"/>
            <circle class="cls-12" cx="307.7" cy="2621.65" r="28.13" transform="translate(-1763.66 985.44) rotate(-45)"/>
        </g>
        <g>
            <polyline class="cls-8" points="30.13 1236.49 30.13 751.79 536.74 751.79 536.74 593.46"/>
            <circle class="cls-12" cx="536.74" cy="593.46" r="28.13" transform="translate(-262.43 553.35) rotate(-45)"/>
            <circle class="cls-7" cx="30.13" cy="1236.49" r="28.13" transform="translate(-1179.53 978.56) rotate(-76.57)"/>
        </g>
    </g>
</svg>