<?xml version="1.0" encoding="utf-8"?>
<!-- Generator: Adobe Illustrator 27.5.0, SVG Export Plug-In . SVG Version: 6.00 Build 0)  -->
<svg version="1.1" id="illustration" xmlns="http://www.w3.org/2000/svg" xmlns:xlink="http://www.w3.org/1999/xlink" x="0px"
	 y="0px" viewBox="0 0 4500 3600" style="enable-background:new 0 0 4500 3600;" xml:space="preserve">
<rect id="background" style="fill:#FFFFFF;" width="4500" height="3600"/>
<path id="die" style="fill:#EBF2FB;" d="M563.692,1055.174c167.656-327.951,507.777-568.952,846.697-573.651
	c284.654-3.947,330.821,162.091,689.685,252.188c592.274,148.696,793.573-221.459,1195.424-80.38
	c429.935,150.938,828.278,776.676,774.056,1402.524c-57.681,665.773-597.599,983.027-668.774,1023.146
	c-86.147,48.558-287.01,146.724-1048.9,88.032c-822.522-63.364-1233.783-95.045-1479.273-341.415
	C477.958,2429.553,269.979,1629.705,563.692,1055.174z"/>
<ellipse id="floor" style="fill:#A2D2EA;" cx="2250" cy="3135.679" rx="1936.652" ry="185.415"/>
<g id="decor_2_">
	<path id="mechanism" style="fill:#FFC536;" d="M2984.154,736.852V630.233h-79.342c-6.437-27.252-17.696-52.658-32.825-75.27
		l52.919-52.92l-75.391-75.391l-55.536,55.536c-18.266-10.456-38.085-18.487-59.016-23.678v-77.468h-106.619v76.294
		c-24.277,5.452-47.123,14.722-67.879,27.147l-57.831-57.831l-75.391,75.391l56.657,56.656
		c-13.896,21.66-24.28,45.776-30.365,71.534h-74.382v106.619h74.382c5.624,23.807,14.921,46.21,27.271,66.569l-53.563,53.563
		l75.391,75.391l52.843-52.843c22.061,13.974,46.629,24.324,72.867,30.217v76.294h106.619v-77.468
		c22.883-5.675,44.439-14.745,64.088-26.663l50.464,50.464l75.391-75.391l-49.742-49.743c13.532-21.366,23.67-45.081,29.649-70.389
		H2984.154z M2679.174,818.676c-74.63,0-135.132-60.501-135.132-135.133c0-74.631,60.502-135.131,135.132-135.131
		c74.631,0,135.133,60.5,135.133,135.131C2814.308,758.174,2753.806,818.676,2679.174,818.676z"/>
	<g id="decor_1_">
		<g>
			<g>
				<g>
					<path style="fill:#A2D2EA;" d="M3216.133,890.103c-4.451,8.747-11.236,14.925-20.349,18.545
						c-9.117,3.618-17.97,3.241-26.556-1.129c-8.433-4.291-13.832-11.167-16.193-20.626c-2.364-9.46-1.32-18.559,3.132-27.306
						c4.45-8.744,11.096-14.849,19.936-18.314c8.841-3.463,17.554-3.01,26.144,1.361c8.744,4.45,14.356,11.287,16.84,20.513
						C3221.565,872.372,3220.582,881.359,3216.133,890.103z M3391.006,711.617c-11.523,22.645-28.452,39.295-50.779,49.949
						c-2.754,1.156-22.074,7.447-57.965,18.867c-21.443,6.589-36.203,16.279-44.285,29.072c-2.064,3.277-4.124,6.555-6.182,9.831
						c-1.978,2.338-5.275,3.213-9.892,2.633c-5.327-0.744-9.237-1.751-11.733-3.022c-7.964-4.052-12.53-6.671-13.696-7.854
						c-3.033-3.313-3-8.014,0.099-14.104c9.536-18.74,20.322-32.023,32.372-39.853c17.14-8.184,34.241-16.489,51.306-24.909
						c20.445-10.041,34.442-22.479,41.992-37.317c7.39-14.523,9.171-28.362,5.348-41.514c-3.826-13.153-12.921-23.385-27.288-30.696
						c-11.558-5.881-26.469-8.354-44.731-7.427c-18.268,0.929-27.085,1.551-26.46,1.87c-4.842-2.464,0.367-18.687,15.625-48.669
						c1.112-2.185,4.846-3.727,11.2-4.622c33.176-4.544,63.273,0.055,90.293,13.803c26.388,13.429,43.806,32.517,52.254,57.26
						C3406.926,659.66,3404.435,685.228,3391.006,711.617z"/>
				</g>
			</g>
		</g>
		<g>
			<g>
				<path style="fill:#8DC695;" d="M1586.671,591.474c8.975,31.831,7.487,62.702-4.46,92.607
					c-1.613,3.537-14.535,26.613-38.777,69.226c-14.69,25.235-20.249,47.535-16.682,66.907c0.92,4.956,1.845,9.91,2.768,14.86
					c0.173,3.983-2.208,7.732-7.135,11.253c-5.75,3.993-10.381,6.481-13.889,7.47c-11.195,3.156-17.874,4.685-20.035,4.582
					c-5.826-0.49-9.945-5.016-12.359-13.577c-7.427-26.343-8.839-48.571-4.231-66.699c9.167-22.961,18.188-46.003,27.076-69.126
					c10.687-27.655,13.09-51.91,7.21-72.767c-5.756-20.414-16.272-35.223-31.54-44.424c-15.274-9.201-33.008-10.955-53.201-5.262
					c-16.248,4.581-32.692,15.381-49.339,32.393c-16.651,17.018-24.535,25.4-23.656,25.153
					c-6.807,1.918-16.148-18.196-28.031-60.343c-0.866-3.072,1.343-7.844,6.628-14.31c27.716-33.64,60.564-55.818,98.543-66.526
					c37.095-10.458,70.607-7.581,100.535,8.623C1556.019,527.725,1576.213,554.378,1586.671,591.474z M1577.026,916.585
					c3.467,12.297,2.434,24.195-3.085,35.704c-5.525,11.509-14.325,18.967-26.394,22.37c-11.854,3.342-23.089,1.532-33.699-5.428
					c-10.615-6.96-17.65-16.584-21.116-28.881c-3.465-12.291-2.501-23.999,2.895-35.118c5.396-11.118,14.13-18.379,26.205-21.783
					c12.291-3.465,23.695-1.882,34.218,4.748C1566.566,894.83,1573.561,904.294,1577.026,916.585z"/>
			</g>
		</g>
	</g>
	<g id="decor">
		<path style="fill:#A2D2EA;" d="M2062.837,782.72c-3.554,12.399-10.761,22.068-21.613,29.018
			c-10.857,6.949-22.373,8.677-34.544,5.189c-11.954-3.427-20.639-10.947-26.052-22.56c-5.418-11.614-6.345-23.614-2.79-36.013
			c3.553-12.394,10.599-21.935,21.138-28.615c10.539-6.68,21.893-8.277,34.071-4.786c12.394,3.553,21.345,10.97,26.857,22.252
			C2065.411,758.485,2066.39,770.326,2062.837,782.72z M2243.798,508.693c-9.202,32.098-26.876,57.816-53.017,77.147
			c-3.264,2.18-26.615,15.131-70.063,38.844c-26.017,13.865-42.635,30.06-49.861,48.587c-1.843,4.744-3.681,9.489-5.517,14.229
			c-1.967,3.512-6.001,5.466-12.103,5.873c-7.058,0.374-12.355,0.051-15.894-0.963c-11.289-3.236-17.834-5.472-19.636-6.707
			c-4.742-3.516-5.875-9.589-3.4-18.222c7.615-26.563,18.208-46.399,31.793-59.516c20.066-14.846,40.051-29.84,59.963-44.973
			c23.865-18.069,38.811-37.618,44.841-58.65c5.901-20.586,4.736-38.886-3.486-54.897c-8.227-16.013-22.522-26.938-42.885-32.775
			c-16.384-4.697-36.24-4.157-59.569,1.608c-23.336,5.769-34.557,8.778-33.671,9.033c-6.864-1.968-4.202-24.201,7.982-66.701
			c0.888-3.097,5.32-6.021,13.294-8.766c41.665-14.163,81.648-15.76,119.946-4.781c37.405,10.723,64.652,30.992,81.742,60.802
			C2251.339,437.678,2254.521,471.287,2243.798,508.693z"/>
	</g>
	<g id="buble_speach">
		<polygon style="fill:#8DC695;" points="3339.901,1100.735 3332.78,1065.207 3301.656,1091.207 3288.855,1062.473 
			3270.367,1089.26 3241.871,1077.09 3240.544,1112.742 3192.741,1133.156 3230.527,1155 3160.551,1231.868 3243.784,1203.904 
			3280.22,1245.805 3307.518,1209.171 3344.774,1229.033 3349.327,1187.734 3394.626,1169.763 3356.985,1144.03 3376.871,1095.89 		
			"/>
		<path style="fill:#FFC536;" d="M887.487,734.179l26.33-52.537l42.021,55.321l33.175-39.221
			c6.128,17.483,12.256,34.966,18.384,52.449c18.326-2.552,36.652-5.103,54.978-7.655l-12.13,56.655l72.407,54.285l-72.542,16.788
			l87.059,153.319l-129.131-82.606l-78.348,48.941l-31.282-70.258l-70.85,13.918l8.964-67.028l-69.169-49.283l73.865-22.969
			l-14.141-84.903L887.487,734.179z"/>
		<g>
			
				<ellipse transform="matrix(0.9934 -0.1147 0.1147 0.9934 -112.0392 382.0881)" style="fill:#3F8956;" cx="3265.19" cy="1164.918" rx="11.565" ry="12.495"/>
			<path style="fill:#3F8956;" d="M3304.756,1155.915c1.426,6.747-2.472,13.366-8.705,14.784
				c-6.233,1.418-12.442-2.901-13.868-9.648c-1.426-6.747,2.472-13.366,8.705-14.784
				C3297.122,1144.849,3303.33,1149.168,3304.756,1155.915z"/>
			<path style="fill:#3F8956;" d="M3333.036,1149.48c1.426,6.747-2.472,13.366-8.705,14.784c-6.233,1.418-12.442-2.901-13.867-9.648
				c-1.426-6.747,2.472-13.366,8.705-14.784C3325.402,1138.413,3331.61,1142.733,3333.036,1149.48z"/>
		</g>
		<g>
			
				<ellipse transform="matrix(0.9991 -0.0432 0.0432 0.9991 -33.7415 39.7712)" style="fill:#F0B422;" cx="902.418" cy="799.799" rx="18.475" ry="18.475"/>
			<circle style="fill:#F0B422;" cx="936.388" cy="831.249" r="18.475"/>
			<path style="fill:#F0B422;" d="M983.915,875.25c-6.932,7.487-18.621,7.938-26.108,1.006c-7.487-6.932-7.938-18.621-1.006-26.108
				c6.932-7.487,18.621-7.938,26.108-1.006C990.397,856.073,990.847,867.763,983.915,875.25z"/>
		</g>
	</g>
</g>
<g id="monitor">
	<path style="fill:#BBE0FF;" d="M3013.67,2629.147H942.316c-39.745,0-71.965-32.22-71.965-71.965v-1366.49
		c0-39.745,32.22-71.965,71.965-71.965H3013.67c39.745,0,71.965,32.22,71.965,71.965v1366.49
		C3085.635,2596.927,3053.416,2629.147,3013.67,2629.147z"/>
	<polygon style="opacity:0.53;fill:#BBE0FF;" points="2318.356,1118.726 870.351,2141.732 870.351,2540.186 2907.001,1118.726 	"/>
	<path style="opacity:0.53;fill:#BBE0FF;" d="M3085.635,1193.432c0-26.457-13.765-49.684-34.512-62.957L904.72,2617.306
		c11.637,7.482,25.474,11.841,40.337,11.841h277.934l1862.644-1338.613V1193.432z"/>
	<g>
		<path style="fill:#435D7A;" d="M3022.903,2679.423H928.543c-57.606,0-104.473-46.866-104.473-104.473V1178.051
			c0-57.606,46.866-104.473,104.473-104.473h2094.36c57.606,0,104.473,46.866,104.473,104.473V2574.95
			C3127.376,2632.557,3080.51,2679.423,3022.903,2679.423z M928.543,1128.578c-27.279,0-49.473,22.193-49.473,49.473V2574.95
			c0,27.279,22.193,49.473,49.473,49.473h2094.36c27.279,0,49.473-22.193,49.473-49.473V1178.051
			c0-27.279-22.193-49.473-49.473-49.473H928.543z"/>
	</g>
	<path style="fill:#DCF2FF;" d="M1931.356,971.577l-680.135,1178.028c-29.389,50.903,7.347,114.532,66.125,114.532h1360.269
		c58.778,0,95.514-63.629,66.125-114.532L2063.606,971.577C2034.217,920.674,1960.745,920.674,1931.356,971.577z"/>
	<g>
		<g>
			<path style="fill:#246096;" d="M1338.224,2323.983c-24.133,0-46.45-11.346-60.817-31.279c-15.913-22.076-18.75-50.076-7.587-74.9
				l563.087-1251.818c11.163-24.824,33.993-41.282,61.071-44.023c27.083-2.741,52.744,8.806,68.656,30.889l802.582,1113.542
				c15.912,22.083,18.746,50.083,7.581,74.901c-11.166,24.82-34.002,41.275-61.085,44.018l-1365.637,138.272
				C1343.442,2323.852,1340.821,2323.983,1338.224,2323.983z M1901.806,926.565c-2.426,0-4.867,0.123-7.325,0.372
				c-25.279,2.56-46.593,17.924-57.015,41.1l-563.087,1251.817c-10.421,23.176-7.773,49.316,7.083,69.927
				c14.858,20.611,38.829,31.39,64.108,28.829l1365.637-138.272c25.285-2.561,46.604-17.923,57.028-41.095
				c10.424-23.169,7.778-49.311-7.077-69.927v0.001L1958.577,955.775C1945.166,937.162,1924.33,926.565,1901.806,926.565z"/>
		</g>
	</g>
	<path style="fill:#435D7A;" d="M2746.836,2154.957L2060.511,966.23c-28.012-48.531-98.049-48.531-126.06,0l-686.325,1188.727
		c-28.012,48.531,7.007,109.174,63.046,109.174h1372.619C2739.829,2264.131,2774.848,2203.488,2746.836,2154.957z
		 M2489.533,2151.978h-984.103c-56.039,0-91.057-60.658-63.045-109.174l492.067-852.267c28.012-48.531,98.049-48.531,126.06,0
		l492.067,852.267C2580.59,2091.32,2545.571,2151.978,2489.533,2151.978z"/>
	<g>
		<path style="fill:#FFC536;" d="M1933.371,1993.28c-2.581-38.834,19.622-68.621,52.238-74.668
			c40.032-7.422,76.277,24.7,77.312,66.279c0.963,38.688-22.304,69.224-59.62,71.838
			C1966.951,2059.274,1935.84,2030.442,1933.371,1993.28z M1959.573,1788.197l-13.152-460.988
			c-0.633-22.178,16.782-40.508,38.485-40.508h26.304c21.704,0,39.118,18.33,38.485,40.508l-13.152,460.988
			c-0.607,21.282-17.659,38.213-38.485,38.213h0C1977.231,1826.41,1960.18,1809.479,1959.573,1788.197z"/>
	</g>
	<g>
		<g>
			<path style="fill:#254868;" d="M1613.632,2366.813h33.414v177.312h-33.414V2366.813z M1625.705,2366.813h106.704v32.194h-106.704
				V2366.813z M1625.705,2439.981h93.29v32.194h-93.29V2439.981z M1625.705,2511.931h106.704v32.194h-106.704V2511.931z"/>
			<path style="fill:#254868;" d="M1762.896,2366.691h33.414v177.434h-33.414V2366.691z M1776.188,2440.592h61.706
				c3.415,0,6.421-0.854,9.024-2.562c2.601-1.707,4.613-4.146,6.036-7.316c1.421-3.171,2.174-6.829,2.256-10.976
				c0-4.146-0.712-7.805-2.134-10.975c-1.423-3.171-3.436-5.61-6.037-7.317c-2.603-1.707-5.651-2.561-9.146-2.561h-61.706v-32.194
				h64.389c9.756,0,18.332,2.195,25.731,6.585c7.396,4.391,13.128,10.591,17.194,18.597c4.064,8.009,6.098,17.298,6.098,27.865
				c0,10.569-2.033,19.858-6.098,27.865c-4.066,8.009-9.817,14.207-17.255,18.597c-7.439,4.391-15.996,6.586-25.67,6.586h-64.389
				V2440.592z M1813.503,2467.298l35.731-5.609l47.803,82.437h-40.486L1813.503,2467.298z"/>
			<path style="fill:#254868;" d="M1925.695,2366.691h33.414v177.434h-33.414V2366.691z M1938.987,2440.592h61.706
				c3.415,0,6.421-0.854,9.024-2.562c2.601-1.707,4.613-4.146,6.036-7.316c1.421-3.171,2.174-6.829,2.256-10.976
				c0-4.146-0.712-7.805-2.134-10.975c-1.423-3.171-3.436-5.61-6.037-7.317c-2.603-1.707-5.651-2.561-9.146-2.561h-61.706v-32.194
				h64.389c9.756,0,18.332,2.195,25.731,6.585c7.396,4.391,13.128,10.591,17.194,18.597c4.064,8.009,6.098,17.298,6.098,27.865
				c0,10.569-2.033,19.858-6.098,27.865c-4.066,8.009-9.817,14.207-17.255,18.597c-7.439,4.391-15.996,6.586-25.67,6.586h-64.389
				V2440.592z M1976.303,2467.298l35.731-5.609l47.803,82.437h-40.486L1976.303,2467.298z"/>
			<path style="fill:#254868;" d="M2110.75,2537.845c-9.798-5.405-17.377-13.049-22.743-22.926
				c-5.366-9.878-8.049-21.32-8.049-34.329v-50.242c0-13.006,2.683-24.45,8.049-34.328s12.945-17.519,22.743-22.926
				c9.796-5.406,21.116-8.109,33.962-8.109c12.844,0,24.165,2.703,33.962,8.109c9.796,5.407,17.377,13.048,22.743,22.926
				s8.048,21.322,8.048,34.328v50.242c0,13.009-2.683,24.451-8.048,34.329c-5.366,9.877-12.947,17.521-22.743,22.926
				c-9.798,5.407-21.118,8.109-33.962,8.109C2131.866,2545.954,2120.546,2543.252,2110.75,2537.845z M2160.566,2508.699
				c4.552-2.561,8.068-6.198,10.548-10.914c2.479-4.714,3.72-10.162,3.72-16.341v-51.95c0-6.178-1.241-11.625-3.72-16.341
				c-2.48-4.714-5.996-8.354-10.548-10.914c-4.554-2.562-9.838-3.842-15.853-3.842c-6.018,0-11.301,1.28-15.854,3.842
				c-4.554,2.561-8.069,6.2-10.548,10.914c-2.481,4.716-3.719,10.163-3.719,16.341v51.95c0,6.179,1.238,11.627,3.719,16.341
				c2.479,4.716,5.995,8.354,10.548,10.914c4.552,2.561,9.836,3.842,15.854,3.842
				C2150.728,2512.541,2156.012,2511.26,2160.566,2508.699z"/>
			<path style="fill:#254868;" d="M2242.393,2366.691h33.413v177.434h-33.413V2366.691z M2255.686,2440.592h61.706
				c3.414,0,6.42-0.854,9.023-2.562c2.602-1.707,4.613-4.146,6.037-7.316c1.42-3.171,2.174-6.829,2.256-10.976
				c0-4.146-0.713-7.805-2.135-10.975c-1.424-3.171-3.436-5.61-6.037-7.317s-5.65-2.561-9.145-2.561h-61.706v-32.194h64.388
				c9.756,0,18.332,2.195,25.73,6.585c7.398,4.391,13.129,10.591,17.195,18.597c4.064,8.009,6.098,17.298,6.098,27.865
				c0,10.569-2.033,19.858-6.098,27.865c-4.066,8.009-9.816,14.207-17.256,18.597c-7.438,4.391-15.996,6.586-25.67,6.586h-64.388
				V2440.592z M2293.001,2467.298l35.73-5.609l47.805,82.437h-40.488L2293.001,2467.298z"/>
		</g>
	</g>
	<rect x="1832.872" y="2638.921" style="fill:#435D7A;" width="294.575" height="276.577"/>
	<rect x="1578.368" y="2906.625" style="fill:#435D7A;" width="802.095" height="88.727"/>
</g>
<g id="man2">
	<ellipse style="opacity:0.5;fill:#BBCDFC;" cx="2735.127" cy="3173.786" rx="390.567" ry="73.394"/>
	<path style="fill:#315B84;" d="M2522.692,2863.705c0,0-187.335,87.594-143.93,132.332
		c43.405,44.738,141.885,141.713,221.645,144.78c79.759,3.068,315.97-4.09,351.759-11.248
		c35.789-7.158,161.564-149.293,161.564-149.293l-251.549-116.571H2522.692z"/>
	<path style="fill:#8DC695;" d="M2440.887,2374.923c32.744-30.925,212.692-72.426,247.458-67.912
		c34.767,4.514,200.421,41.326,249.504,67.912c49.083,26.586,145.203,299.741,157.473,346.201
		c12.271,46.46-153.383,179.392-153.383,179.392h-73.624l2.045-44.992c0,0,91.846-120.778,106.162-149.41
		c-11.065-30.56-75.486-151.222-75.486-151.222l-4.09,204.511l-382.436-2.045l-30.677-192.24c0,0-67.489,94.075-75.669,114.526
		s96.12,139.068,96.12,139.068l-26.586,110.436c0,0-196.331-159.519-204.511-220.872
		C2269.253,2678.76,2404.075,2409.69,2440.887,2374.923z"/>
	<g>
		<path style="fill:#3F8956;" d="M2483.995,2565.103c-1.582,0-2.906-1.234-2.996-2.832c-3.516-61.43-18.269-120.948-43.852-176.903
			c-0.69-1.51-0.025-3.291,1.482-3.981c1.508-0.69,3.291-0.025,3.981,1.482c25.894,56.637,40.826,116.881,44.384,179.058
			c0.096,1.656-1.169,3.076-2.826,3.17C2484.11,2565.101,2484.052,2565.103,2483.995,2565.103z"/>
	</g>
	<g>
		<path style="fill:#3F8956;" d="M2901.038,2557.897c-1.658,0-3.004-1.345-3.004-3.004c0-55.769,13.386-123.364,34.934-176.404
			c0.624-1.537,2.376-2.276,3.913-1.653s2.276,2.376,1.653,3.913c-21.275,52.372-34.492,119.098-34.492,174.144
			C2904.042,2556.552,2902.696,2557.897,2901.038,2557.897z"/>
	</g>
	<path style="fill:#D3DCE2;" d="M2930.925,2965.96h-464.161c-2.665,0-4.826-2.161-4.826-4.826v-266.439
		c0-2.665,2.161-4.826,4.826-4.826h464.161c2.665,0,4.826,2.161,4.826,4.826v266.439
		C2935.751,2963.8,2933.59,2965.96,2930.925,2965.96z"/>
	<ellipse style="fill:#FFFFFF;" cx="2698.845" cy="2827.915" rx="49.083" ry="21.474"/>
	<path style="fill:#386396;" d="M2772.195,3048.788c0,0-253.269-158.496-288.198-192.241s-223.411-104.528-251.261-115.066
		c-37.834-14.316-108.63,45.532-91.246,94.615c17.383,49.083,129.654,114.526,199.187,143.158
		c69.651,28.68,69.683,28.687,343.861,129.865C2684.538,3109.118,2750.722,3105.028,2772.195,3048.788z"/>
	<path style="fill:#4D4749;" d="M2776.286,3109.118c0,0,94.075,73.624,129.865,83.85c35.789,10.225,92.03-9.203,104.301-23.519
		c12.271-14.316-27.609-52.151-40.902-60.331c-13.293-8.181-110.436-42.634-110.436-42.634L2776.286,3109.118z"/>
	<path style="fill:#4D4749;" d="M2693.687,3051.855c-17.612,11.248-65.672,31.699-95.326,37.835
		c-29.654,6.135-62.376,11.579-88.962,27.774c-26.586,16.196-68.481,47.895-69.519,69.368
		c-1.038,21.474,78.722,40.902,143.143,20.451c64.421-20.451,63.29-49.083,136.457-82.827
		C2792.646,3090.712,2693.687,3051.855,2693.687,3051.855z"/>
	<path style="fill:#386396;" d="M2982.842,2855.721c45.091-33.613,148.271-81.804,184.06-70.556
		c35.789,11.248,73.624,76.692,48.06,109.414c-25.564,32.722-100.21,105.323-141.113,124.752
		c-40.902,19.428-329.19,133.467-329.19,133.467s-70.63-18.941-76.765-87.452C2722.09,3020.353,2926.601,2897.646,2982.842,2855.721
		z"/>
	<g>
		<g>
			<g>
				<path style="fill:#275D93;" d="M2744.661,3152.798c-0.198,0-0.395-0.02-0.591-0.059c-65.08-13.062-79.001-89.117-79.134-89.884
					c-0.201-1.16,0.292-2.329,1.263-2.994l127.02-86.917c1.369-0.933,3.239-0.585,4.175,0.784c0.937,1.369,0.587,3.239-0.784,4.175
					l-125.37,85.789c2.532,11.405,18.386,71.425,73.185,82.987c17.221-6.36,299.594-111.024,367.563-159.387
					c1.349-0.96,3.225-0.646,4.189,0.706c0.96,1.353,0.645,3.229-0.706,4.191c-70.416,50.102-357.584,155.943-369.775,160.425
					C2745.365,3152.735,2745.013,3152.798,2744.661,3152.798z"/>
			</g>
		</g>
	</g>
	<path style="fill:#DB846A;" d="M2635.173,2218.813c0,0,0.533,18.834,0.782,40.078c11.701,14.366,27.383,25.17,44.551,28.603
		c25.222,4.204,47.497-7.286,66.15-22.794c0.776-28.263,0.998-56.113,0.998-56.113L2635.173,2218.813z"/>
	<path style="fill:#F9AD96;" d="M2680.506,2287.494c-17.167-3.433-32.85-14.237-44.551-28.603
		c0.239,20.332,0.218,42.87-0.782,53.241c-2.045,21.207,32.04,45.066,57.945,41.658c20.277-2.668,47.507-12.95,50.681-36.129
		c1.367-9.98,2.271-31.589,2.858-52.961C2728.003,2280.208,2705.728,2291.698,2680.506,2287.494z"/>
	<path style="fill:#7A4332;" d="M2552.005,2114.512c-0.682-29.995-8.18-114.526-3.408-141.113
		c4.772-26.587,86.46-85.213,135.942-79.759c49.482,5.453,111.517,42.266,122.424,66.807c10.907,24.541,0,158.837,0,158.837
		L2552.005,2114.512z"/>
	<path style="fill:#F9AD96;" d="M2593.589,2006.284c-5.262,3.412-10.576,7.615-14.738,14.354
		c-3.392,5.493-5.378,12.958-5.714,25.704c-0.682,25.905,1.364,67.489,0,81.123c-1.363,13.634,21.012,83.85,29.594,95.438
		s60.391,43.629,93.795,41.584c33.403-2.045,70.897-37.494,77.032-45.674c6.135-8.181,13.634-93.3,14.997-102.891
		c0.93-6.539-4.795-12.422-8.101-24.794c-2.728-10.207-2.12-18.479-2.125-22.291c-0.059-53.033,5.284-60.047,0.12-70.053
		c-14.885-28.846-84.152-18.775-137.143-11.069C2641.308,1987.715,2616.705,1991.293,2593.589,2006.284z"/>
	
		<ellipse transform="matrix(0.866 -0.5 0.5 0.866 -719.9095 1563.4424)" style="fill:#F9AD96;" cx="2557.459" cy="2125.086" rx="26.586" ry="35.789"/>
	
		<ellipse transform="matrix(0.5 -0.866 0.866 0.5 -437.8719 3491.7544)" style="fill:#F9AD96;" cx="2805.018" cy="2125.086" rx="35.789" ry="26.586"/>
	<g>
		<path style="fill:#B36048;" d="M2693.456,2166.834c-0.047-0.005-0.061,0-0.092,0c-6.741,0-13.409-1.068-19.82-3.173
			c-1.437-0.473-2.847-1.03-3.416-1.892c-0.962-1.459,0.18-4.231,1.424-6.748c4.715-9.547,11.007-30.987,10.373-44.78
			c-0.182-3.954-1.001-9.877-4.236-17.055c-0.507-1.818-2.458-2.755-4.03-2.146c-1.41,0.546-2.236,2.229-1.73,3.833
			c2.162,4.825,3.553,10.196,4.008,15.85c1.003,12.475-2.284,26.483-9.77,41.637c-1.312,2.657-4.042,8.184-1.052,12.719
			c1.582,2.396,4.085,3.478,6.555,4.291c7.017,2.305,14.315,3.473,21.695,3.473c1.699,0.002,3.098-1.318,3.096-3.008
			C2696.458,2168.177,2695.112,2166.834,2693.456,2166.834z"/>
	</g>
	<g>
		<path style="fill:#B36048;" d="M2682.816,2206.264c-6.164,0-12.314-0.867-18.175-2.633c-1.588-0.478-2.488-2.154-2.01-3.742
			c0.479-1.589,2.155-2.488,3.743-2.009c14.903,4.486,31.876,2.566,45.397-5.142c1.441-0.816,3.275-0.319,4.097,1.123
			c0.823,1.441,0.321,3.275-1.12,4.097C2705.139,2203.433,2693.953,2206.264,2682.816,2206.264z"/>
	</g>
	<path style="fill:#7A4332;" d="M2703.843,2069.195c4.566-2.169,9.41-3.398,14.306-4.14c4.902-0.748,9.879-0.89,14.82-0.591
		c4.943,0.303,9.861,1.044,14.655,2.28c4.781,1.288,9.476,2.926,13.835,5.406c1.492,0.849,2.013,2.746,1.164,4.237
		c-0.564,0.992-1.593,1.555-2.657,1.571h-0.041c-4.803,0.059-9.397-0.243-13.98-0.411l-13.613-0.633
		c-4.522-0.187-9.035-0.327-13.597-0.585c-4.567-0.251-9.162-0.502-13.958-1.2l-0.039-0.006c-1.712-0.249-2.897-1.839-2.649-3.551
		C2702.243,2070.505,2702.939,2069.633,2703.843,2069.195z"/>
	<path style="fill:#7A4332;" d="M2598.19,2070.284c4.604-2.722,9.594-4.504,14.699-5.73c5.109-1.231,10.357-1.838,15.61-1.918
		c5.253-0.101,10.522,0.407,15.642,1.645c5.102,1.302,10.103,3.157,14.577,6.352c1.456,1.04,1.792,3.063,0.753,4.518
		c-0.519,0.726-1.281,1.173-2.096,1.311l-0.066,0.011c-5.195,0.863-10,0.953-14.772,1.061c-4.756,0.042-9.428-0.076-14.122-0.235
		l-14.173-0.382c-4.782-0.145-9.617-0.276-14.709-0.777l-0.045-0.004c-1.733-0.17-2.999-1.713-2.829-3.446
		C2596.76,2071.656,2597.364,2070.78,2598.19,2070.284z"/>
	<g>
		<path style="fill:#275D93;" d="M2718.759,3021.074c-0.583,0-1.171-0.168-1.688-0.52l-76.578-52.11
			c-1.371-0.933-1.727-2.802-0.794-4.173c0.935-1.373,2.808-1.727,4.173-0.794l76.578,52.11c1.371,0.933,1.727,2.802,0.794,4.173
			C2720.664,3020.615,2719.719,3021.074,2718.759,3021.074z"/>
	</g>
	<g>
		<g>
			<g>
				<path style="fill:#275D93;" d="M2615.284,3085.476c-0.336-0.014-0.676-0.085-4.779-1.753l-229.454-84.772
					c2.283,0.787,1.45-0.924,1.99-2.491c0.54-1.571,2.249-2.402,3.818-1.862l229.683,85.095c1.537,0.625,2.276,2.378,1.651,3.914
					C2617.702,3084.814,2616.515,3085.528,2615.284,3085.476z"/>
			</g>
		</g>
	</g>
	<g>
		<ellipse style="fill:#47111B;" cx="2625.178" cy="2106.751" rx="8.998" ry="12.533"/>
		<ellipse style="fill:#47111B;" cx="2725.538" cy="2106.751" rx="8.998" ry="12.533"/>
	</g>
</g>
<g id="man1">
	<ellipse style="opacity:0.5;fill:#BBCDFC;" cx="1058.329" cy="3100.392" rx="390.567" ry="73.394"/>
	<g id="man_with_bouquet">
		<polygon style="fill:#4D4749;" points="1147.843,1901.647 1139.178,1991.291 830.944,2012.455 824.787,1924.333 		"/>
		<g>
			<g>
				<path style="fill:#F9AD96;" d="M1194.807,2997.83l-9.397,90.629l-61.185-2.309l-2.855-63.994
					C1146.708,3025.83,1175.545,3014.508,1194.807,2997.83z"/>
				<path style="fill:#DB846A;" d="M1197.34,2973.401l-2.533,24.429c-19.262,16.678-48.099,28-73.436,24.327l-1.763-39.521
					L1197.34,2973.401z"/>
				<path style="fill:#38659A;" d="M1106.539,3052.404l2.698,47.989l0.935,16.549h235.497v-8.033c0-2.984-0.588-5.863-1.673-8.516
					c-2.231-5.456-6.586-9.932-12.253-12.253l-128.834-52.781c-31.455-12.389-19.247,26.165-45.02,27.702
					c-28.455,1.703-25.788-12.691-32.043-22.336c-2.246-3.437-5.395-3.979-8.546-3.24
					C1110.578,3039.035,1106.147,3045.516,1106.539,3052.404z"/>
				<path style="fill:#313438;" d="M1109.237,3100.392l0.935,16.549h235.497v-8.033c0-2.984-0.588-5.863-1.673-8.516H1109.237z"/>
			</g>
			<g>
				<path style="fill:#F9AD96;" d="M869.318,2997.83l-9.397,90.629l-61.185-2.309l-2.855-63.994
					C821.219,3025.83,850.056,3014.508,869.318,2997.83z"/>
				<path style="fill:#DB846A;" d="M871.851,2973.401l-2.533,24.429c-19.262,16.678-48.099,28-73.436,24.327l-1.763-39.521
					L871.851,2973.401z"/>
				<path style="fill:#38659A;" d="M781.05,3052.404l2.698,47.989l0.935,16.549h235.497v-8.033c0-2.984-0.588-5.863-1.673-8.516
					c-2.231-5.456-6.586-9.932-12.253-12.253l-128.834-52.781c-31.455-12.389-19.247,26.165-45.02,27.702
					c-28.455,1.703-25.788-12.691-32.043-22.336c-2.246-3.437-5.396-3.979-8.546-3.24
					C785.089,3039.035,780.658,3045.516,781.05,3052.404z"/>
				<path style="fill:#313438;" d="M783.747,3100.392l0.935,16.549h235.497v-8.033c0-2.984-0.588-5.863-1.673-8.516H783.747z"/>
			</g>
			<path style="fill:#4D4749;" d="M968.67,1990.151l-13.298,3.532c-2.572,0.67-4.036,1.087-5.057,1.405l-3.715,1.1l-3.715,1.1
				c-1.458,0.417-2.244,0.681-2.729,0.877l-1.882,0.684c-0.758,0.258-1,0.399-1.297,0.552c-0.76,0.344-0.768,0.517-0.705,0.675
				l0.112,0.49l0.224,0.979l0.897,3.916l1.795,7.832l3.599,15.638l7.217,31.221l14.69,62.245l14.966,62.053
				c5.015,20.659,9.869,41.339,15.014,61.933l30.319,123.327c5.048,20.461,9.999,40.897,14.843,61.141l7.216,30.103
				c2.31,9.873,4.597,19.809,6.522,28.865l1.364,6.521l1.105,5.545l0.345,1.698l0.117,0.44c0.04,0.14,0.107,0.326,0.097,0.357
				c0.016,0.133,0.069,0.263,0.135,0.396l0.055,0.099l0.051,0.679l0.105,1.36l0.222,2.722c0.042,0.41,0.071,0.983,0.099,1.559
				l0.088,1.697l0.344,6.882c0.181,4.888,0.386,9.706,0.512,14.828c0.603,20.225,0.818,41.218,1.246,62.187l1.866,126.831
				l1.163,63.689c0.497,21.247,0.853,42.498,1.464,63.766c1.08,42.512,2.362,85.132,4.393,127.629c0,0,26.036,20.102,70.509,24.487
				c49.785,4.909,80.076-18.146,80.076-18.146c5.574-42.544,10.223-84.973,14.547-127.514c2.234-21.259,4.168-42.535,6.202-63.818
				c1.978-21.284,3.771-42.587,5.623-63.905l5.035-64.049c1.604-21.383,2.987-42.811,4.379-64.353
				c1.422-21.576,2.51-43.133,3.429-65.465c0.242-5.517,0.407-11.339,0.586-17.09l0.182-9.076l0.039-2.292
				c0.014-0.754,0.028-1.511,0.02-2.43l-0.022-5.254l-0.017-2.628l-0.01-1.315l-0.074-1.891c-0.106-2.522-0.225-5.046-0.38-7.568
				c-0.065-1.299-0.189-2.43-0.3-3.611l-0.353-3.522l-0.377-3.52l-0.339-2.689l-0.693-5.375l-0.686-4.844l-0.687-4.721l-0.69-4.478
				c-1.839-11.888-3.731-22.818-5.657-33.798c-1.928-10.919-3.884-21.692-5.873-32.377c-4.058-21.372-8.27-42.495-12.487-63.571
				c-8.335-42.158-17.409-83.911-26.272-125.668c-4.398-20.879-9.115-41.667-13.682-62.472l-13.799-62.337l-14.013-62.158
				c-6.031-23.995-12.063-47.99-18.094-71.985c-9.643,5.843-19.286,11.686-28.929,17.529L968.67,1990.151z"/>
			<path style="fill:#4D4749;" d="M840.463,1952.268c-4.765-3.899-9.531-7.798-14.296-11.697
				c-3.731,27.259-7.462,54.519-11.193,81.778l-2.07,30.705l-4.141,61.411l-8.237,122.826l-7.918,122.856l-3.949,61.429
				l-3.781,61.445l-7.504,122.895l-7.199,122.924c-4.582,81.97-9.216,163.935-13.147,245.966c0,0,17.305,23.232,71.178,29.072
				c35.803,3.881,78.875-14.933,78.875-14.933c11.462-81.322,22.221-162.709,33.031-244.092l15.89-122.105l15.584-122.134
				l7.764-61.069l7.595-61.086l15.17-122.173l14.852-122.203l7.403-61.104l3.702-30.552l1.851-15.276l0.925-7.638
				c0.55-2.523,0.589-5.094-6.76-8.362C962.879,1991.525,901.671,1971.896,840.463,1952.268z"/>
			<path style="fill:#382C30;" d="M1000.472,2269.51l20.993-172.662c0.427-3.516,5.632-3.173,5.594,0.369l-2.853,268.833
				L1000.472,2269.51z"/>
			<g>
				<path style="fill:#382C30;" d="M1089.934,2471.553c0.192,0,0.388-0.025,0.582-0.076c1.207-0.321,1.925-1.56,1.604-2.766
					l-69.756-262.427c-0.321-1.206-1.56-1.922-2.766-1.604c-1.207,0.321-1.925,1.559-1.604,2.766l69.756,262.427
					C1088.02,2470.884,1088.934,2471.553,1089.934,2471.553z"/>
			</g>
			<g>
				<path style="fill:#382C30;" d="M815.437,2493.855c1.178,0,2.171-0.913,2.253-2.105l33.007-479.69
					c0.085-1.246-0.855-2.325-2.1-2.411c-1.246-0.084-2.326,0.855-2.411,2.1l-33.007,479.69c-0.085,1.246,0.855,2.325,2.1,2.411
					C815.332,2493.854,815.384,2493.855,815.437,2493.855z"/>
			</g>
			<g>
				<path style="fill:#382C30;" d="M1088.28,2508.291c0.188,0,0.38-0.024,0.571-0.073l40.828-10.631
					c1.208-0.315,1.932-1.549,1.618-2.757c-0.314-1.207-1.548-1.932-2.758-1.618l-40.828,10.631
					c-1.208,0.315-1.933,1.549-1.618,2.757C1086.358,2507.616,1087.275,2508.291,1088.28,2508.291z"/>
			</g>
			<g>
				<path style="fill:#382C30;" d="M1097.669,2995.981c1.249,0,2.261-1.012,2.261-2.261v-439.755c0-1.249-1.012-2.261-2.261-2.261
					s-2.261,1.012-2.261,2.261v439.755C1095.408,2994.969,1096.42,2995.981,1097.669,2995.981z"/>
			</g>
			<g>
				<path style="fill:#382C30;" d="M781.028,2993.922c1.178,0,2.171-0.913,2.253-2.105l28.473-413.801
					c0.085-1.246-0.855-2.325-2.1-2.411c-1.262-0.075-2.326,0.855-2.411,2.1l-28.473,413.801c-0.085,1.246,0.855,2.325,2.1,2.411
					C780.923,2993.92,780.975,2993.922,781.028,2993.922z"/>
			</g>
			<g>
				<path style="fill:#382C30;" d="M1115.281,2520.745c1.197,0,2.195-0.939,2.256-2.147c0.063-1.247-0.898-2.309-2.145-2.371
					l-30.785-1.54c-1.24-0.077-2.308,0.897-2.37,2.145c-0.063,1.247,0.898,2.308,2.145,2.37l30.784,1.54
					C1115.205,2520.745,1115.243,2520.745,1115.281,2520.745z"/>
			</g>
			<g>
				<path style="fill:#382C30;" d="M797.395,2532.934c0.083,0,0.166-0.004,0.25-0.013l48.492-5.335c1.241-0.137,2.136-1.254,2-2.495
					c-0.137-1.241-1.264-2.127-2.495-2l-48.492,5.335c-1.241,0.137-2.136,1.254-2,2.495
					C795.278,2532.077,796.258,2532.934,797.395,2532.934z"/>
			</g>
			<g>
				<path style="fill:#382C30;" d="M828.206,2547.76c0.957,0,1.846-0.612,2.153-1.573c0.38-1.189-0.275-2.462-1.464-2.842
					c-9.94-3.178-20.27-4.752-30.714-4.725c-1.249,0.005-2.256,1.022-2.251,2.27c0.005,1.245,1.016,2.251,2.261,2.251
					c0.138,0.012,0.279-0.001,0.418-0.001c9.827,0,19.55,1.517,28.909,4.51C827.746,2547.725,827.978,2547.76,828.206,2547.76z"/>
			</g>
		</g>
	</g>
	<g>
		<path style="fill:#F9AD96;" d="M1063.244,1254.04c-3.299,19.111-30.502,77.146-37.733,79.725
			c-7.221,2.568-36.982,10.284-46.741,5.504c-9.749-4.77-66.912-36.366-75.318-51.064c-8.406-14.687-23.203-64.283-27.233-74.934
			l-35.985-119.394l181.582-47.762l16.12,55.661l4.731,16.349c0,0,4.109,20.093,8.682,44.978
			C1057.802,1198.217,1065.17,1242.86,1063.244,1254.04z"/>
		<path style="fill:#895142;" d="M1051.352,1163.103h-0.01c-14.184,6.766-27.845-51.226-27.845-51.226l14.441-10.101l4.731,16.349
			C1042.669,1118.125,1046.778,1138.218,1051.352,1163.103z"/>
		<path style="fill:#895142;" d="M857.494,1108.673c10.264,29.654,20.612,59.673,24.018,91.157
			c0.549,5.069,0.883,10.401-0.947,15.098c-1.83,4.697-5.058,7.523-9.73,7.523c0,0-62.208-103.228-65.907-130.046
			c-3.699-26.817,17.486-39.675,31.272-36.736c-16.813-18.735,8.07-49.594,41.697-47.389c33.626,2.204,36.316,1.837,68.597-9.919
			c32.281-11.755,67.589-19.103,85.747,0c18.158,19.103-0.676,34.532-8.744,37.103c10.702,2.081,21.831-1.328,32.487-3.677
			c10.656-2.348,23.022-2.469,30.895,5.72c5.513,5.734,7.605,14.494,7.528,22.809c-0.142,15.306-6.94,30.08-17.136,40.579
			s-23.548,16.921-37.32,19.735c-25.704,5.252-53.345-2.102-73.961-19.677C968.351,1118.12,922.165,1134.125,857.494,1108.673z"/>
		
			<ellipse transform="matrix(0.8167 -0.5771 0.5771 0.8167 -554.0982 726.7372)" style="fill:#F9AD96;" cx="866.8" cy="1235.492" rx="23.37" ry="30.634"/>
		
			<ellipse transform="matrix(0.2952 -0.9555 0.9555 0.2952 -373.0415 1852.338)" style="fill:#F9AD96;" cx="1068.939" cy="1179.005" rx="31.453" ry="22.762"/>
		<g>
			<path style="fill:#B36048;" d="M979.78,1253.44c0.171,0,0.346-0.033,0.515-0.102c7.374-3.002,13.944-8.069,19.002-14.654
				c1.375-1.791,2.773-3.979,2.707-6.626c-0.115-4.671-4.445-7.135-7.607-8.935c-10.934-6.224-19.174-17.76-22.041-30.859
				c-0.19-0.866-0.986-1.402-1.778-1.193c-0.793,0.207-1.282,1.077-1.092,1.943c3.063,13.995,11.866,26.321,23.547,32.969
				c2.79,1.588,5.953,3.388,6.022,6.162c0.037,1.57-0.999,3.139-2.019,4.466c-4.73,6.158-10.875,10.897-17.77,13.705
				c-0.764,0.311-1.153,1.24-0.868,2.074C978.619,1253.039,979.182,1253.44,979.78,1253.44z"/>
		</g>
		<g>
			<path style="fill:#B36048;" d="M968.907,1280.002c0.213,0,0.43-0.051,0.635-0.158c13.413-7.005,29.221-8.162,43.369-3.173
				c0.779,0.275,1.608-0.192,1.858-1.04c0.25-0.847-0.176-1.756-0.951-2.029c-14.858-5.239-31.462-4.024-45.548,3.333
				c-0.736,0.384-1.047,1.347-0.696,2.15C967.828,1279.663,968.357,1280.002,968.907,1280.002z"/>
		</g>
		<path style="fill:#54211A;" d="M941.737,1192.644c1.38,5.897-0.528,11.523-4.262,12.565c-3.733,1.043-7.879-2.893-9.258-8.79
			c-1.38-5.897,0.528-11.523,4.262-12.565C936.212,1182.811,940.357,1186.746,941.737,1192.644z"/>
		<path style="fill:#54211A;" d="M1017.06,1168.214c1.38,5.897-0.528,11.523-4.262,12.565c-3.734,1.043-7.879-2.893-9.258-8.79
			c-1.38-5.897,0.528-11.523,4.262-12.565C1011.535,1158.382,1015.68,1162.317,1017.06,1168.214z"/>
		<path style="fill:#895142;" d="M937.165,1162.872c1.862,4.827-5.022,11.977-15.375,15.97c-10.353,3.993-20.255,3.317-22.117-1.51
			c-1.862-4.827,5.022-11.977,15.375-15.97C925.402,1157.369,935.304,1158.045,937.165,1162.872z"/>
		<path style="fill:#895142;" d="M1010.852,1140.29c1.32,4.969-6.249,11.735-16.906,15.114c-10.657,3.379-20.366,2.09-21.685-2.879
			c-1.32-4.969,6.249-11.735,16.906-15.114C999.824,1134.032,1009.532,1135.321,1010.852,1140.29z"/>
		<path style="fill:#5E2E4B;" d="M685.05,1729.041c6.053,25.623,79.442,4.133,79.442,4.133l42.369-49.594l-11.349-45.461
			l-90.791,37.601L685.05,1729.041z"/>
		<path style="fill:#F9AD96;" d="M1028.248,1404.524c16.613-8.68,25.832-24.285,34.994-40.063
			c-33.931-18.138-61.937-32.996-61.937-32.996l-68.85-10.745c0,0-36.873,16.579-81.207,38.398
			C880.333,1429.656,969.987,1433.739,1028.248,1404.524z"/>
		<path style="fill:#8DC695;" d="M1270.646,1675.718c-8.998,4.176-17.74,7.716-26.176,10.683
			c-67.474,23.805-115.302,12.054-115.302,12.054l-1.739,104.427c0,0-9.611-1.101-51.473-1.651
			c-41.872-0.551-151.317-15.982-211.847-32.298c-14.422-3.896-29.841-7.154-43.274-8.827l4.188-104.632
			c0,0-5.295,1.003-13.898,3.14c-1.304,0.324-2.697,0.669-4.149,1.057c-24.585,6.388-68.986,20.46-99.251,44.589
			c-9.177,7.317-17.049,15.55-22.679,24.777c-6.045-27.269-11.349-245.489,19.676-282.676
			c15.597-18.712,73.105-50.384,126.425-77.244c12.446,31.456,37.14,53.773,66.714,64.542
			c65.637,22.597,155.001,12.982,189.138-56.481c34.918,18.723,70.715,38.082,86.371,47.039
			C1220.715,1451.314,1245.824,1540.817,1270.646,1675.718z"/>
		<path style="fill:#8DC695;" d="M1159.433,1938.991H813.674l5.413-135.236l1.748-43.65c13.434,1.673,28.853,4.932,43.274,8.827
			c60.53,16.317,169.975,31.748,211.847,32.298c41.862,0.55,51.473,1.651,51.473,1.651l1.739-104.427l27.608,219.385
			L1159.433,1938.991z"/>
		<g>
			<path style="fill:#3F8956;" d="M1129.167,1700.07c0.067,0,0.135-0.005,0.203-0.015c0.808-0.122,1.372-0.935,1.261-1.817
				c-4.84-38.465,0.978-127.802,11.32-173.801c0.194-0.864-0.29-1.737-1.082-1.95c-0.792-0.212-1.591,0.317-1.785,1.182
				c-10.407,46.29-16.255,136.247-11.377,175.008C1127.808,1699.486,1128.441,1700.07,1129.167,1700.07z"/>
		</g>
		<g>
			<path style="fill:#3F8956;" d="M825.02,1657.089c0.786,0,1.438-0.676,1.474-1.542c1.199-29.965-4.02-105.157-18.274-142.039
				c-0.318-0.821-1.183-1.204-1.933-0.859c-0.751,0.346-1.103,1.292-0.786,2.112c14.084,36.443,19.232,110.933,18.043,140.645
				c-0.036,0.889,0.596,1.642,1.41,1.681C824.977,1657.089,824.999,1657.089,825.02,1657.089z"/>
		</g>
		<path style="fill:#F9AD96;" d="M812.153,1729.037c0,0-27.993,161.188-62.032,149.609c-28.112-9.55-37.14-90.128-41.141-152.534
			c-0.484-7.608-0.899-14.946-1.254-21.852c30.265-24.129,74.666-38.201,99.251-44.589c1.452-0.388,2.845-0.734,4.149-1.057
			L812.153,1729.037z"/>
		<path style="fill:#DB846A;" d="M792.822,1685.322c-34.631,9.55-49.764,12.863-83.842,40.791
			c-0.484-7.608-0.899-14.946-1.254-21.852c30.265-24.129,74.666-38.201,99.251-44.589
			C808.597,1671.304,805.831,1681.729,792.822,1685.322z"/>
		<path style="fill:#B36048;" d="M735.865,1755.031c4.416-35.357,23.285-61.871,35.689-75.255
			c12.404-13.385,20.176,1.325,20.176,1.325l-46.656,71.382l-9.705,3.777L735.865,1755.031z"/>
		<path style="fill:#F9AD96;" d="M918.836,1449.663c0,0-60.96,124.811-93.655,171.925c-32.695,47.114-74.308,87.742-93.979,145.951
			c-19.671,58.209,3.783,111.109,24.211,120.202c20.428,9.092,68.85-5.786,90.791-52.073s129.289-347.982,129.333-396.75
			C975.581,1390.151,939.744,1407.893,918.836,1449.663z"/>
		<path style="fill:#F9AD96;" d="M1243.414,1884.981c-5.048,21.496-3.625,32.751-44.894,34.715
			c-8.534,0.41-23.015-0.108-41.743-1.856c-71.841-6.723-206.079-31.704-305.745-93.15c-12.634-7.791-23.203-14.741-31.945-20.935
			c-57.449-40.683-35.52-48.302,1.748-43.65c13.434,1.673,28.853,4.932,43.274,8.827c60.53,16.317,169.975,31.748,211.847,32.298
			c41.862,0.55,51.473,1.651,51.473,1.651l1.59-95.319l0.148-9.108c0,0,47.828,11.752,115.302-12.054
			c0.366,8.817,0.692,18.485,0.978,28.683C1247.286,1780.9,1247.315,1868.363,1243.414,1884.981z"/>
		<g>
			<path style="fill:#B36048;" d="M1190.957,1834.8c0.395,0,0.788-0.172,1.079-0.512c0.556-0.651,0.524-1.671-0.072-2.279
				c-16.687-17.015-38.946-27.641-64.37-30.731c-0.815-0.092-1.54,0.54-1.63,1.424c-0.089,0.885,0.494,1.682,1.304,1.781
				c24.788,3.011,46.464,13.345,62.683,29.883C1190.234,1834.656,1190.595,1834.8,1190.957,1834.8z"/>
		</g>
		<path style="fill:#DB846A;" d="M1245.448,1715.084c-33.347,10.176-87.684,12.097-116.429-7.522l0.148-9.108
			c0,0,47.828,11.752,115.302-12.054C1244.836,1695.218,1245.162,1704.886,1245.448,1715.084z"/>
		<g>
			<g>
				<g>
					<path style="fill:#8DC695;" d="M1063.241,1364.461c-9.162,15.778-18.381,31.383-34.994,40.063
						c-58.26,29.216-147.914,25.132-177-45.406c-6.567,3.232-13.296,6.578-20.095,10.003c12.44,31.449,37.134,53.769,66.71,64.539
						c65.639,22.593,155.005,12.985,189.138-56.479C1078.947,1372.862,1070.942,1368.577,1063.241,1364.461z"/>
					<g>
						<g>
							<path style="fill:#3F8956;" d="M897.395,1435.19c-31.429-11.445-55.435-34.681-67.598-65.429
								c-0.318-0.803,0.01-1.737,0.737-2.103c6.435-3.243,13.201-6.61,20.108-10.01c0.356-0.175,0.764-0.189,1.129-0.038
								c0.366,0.152,0.662,0.456,0.822,0.845c9.959,24.151,28.218,42.238,52.803,52.306c35.738,14.634,83.721,11.612,122.215-7.693
								c16.456-8.597,25.57-24.293,34.385-39.472c0.403-0.694,1.219-0.944,1.895-0.584c7.701,4.118,15.706,8.402,23.76,12.721
								c0.359,0.193,0.632,0.537,0.754,0.954c0.123,0.417,0.085,0.87-0.105,1.255c-15.903,32.365-44.86,54.349-83.741,63.575
								c-13.085,3.105-27.036,4.639-41.255,4.639C941.229,1446.157,918.509,1442.457,897.395,1435.19z M1063.78,1366.543
								c-8.823,15.179-18.125,30.672-34.917,39.445c-39.194,19.654-88.065,22.714-124.503,7.791
								c-24.84-10.171-43.426-28.316-53.841-52.535c-5.967,2.941-11.819,5.854-17.432,8.678
								c11.999,29.18,35.113,51.238,65.218,62.201c67.519,23.239,152.972,11.968,186.661-54.236
								C1077.793,1374.041,1070.671,1370.228,1063.78,1366.543z"/>
						</g>
					</g>
				</g>
				<g>
					<g>
						<path style="fill:#3F8956;" d="M841.995,1391.557c0.344,0,0.691-0.131,0.97-0.399c5.448-5.205,11.167-10.459,16.997-15.618
							c0.633-0.56,0.731-1.576,0.218-2.268c-0.513-0.694-1.441-0.798-2.076-0.238c-5.859,5.185-11.606,10.466-17.081,15.698
							c-0.614,0.586-0.676,1.605-0.139,2.275C841.174,1391.37,841.584,1391.557,841.995,1391.557z"/>
					</g>
				</g>
				<g>
					<g>
						<path style="fill:#3F8956;" d="M844.819,1395.614c0.334,0,0.671-0.124,0.946-0.377c5.691-5.208,11.495-10.271,17.251-15.048
							c0.649-0.539,0.775-1.55,0.282-2.259c-0.492-0.709-1.418-0.847-2.068-0.309c-5.793,4.808-11.635,9.903-17.361,15.145
							c-0.625,0.571-0.707,1.588-0.184,2.27C843.979,1395.418,844.398,1395.614,844.819,1395.614z"/>
					</g>
				</g>
				<g>
					<g>
						<path style="fill:#3F8956;" d="M865.472,1417.165c0.461,0,0.916-0.235,1.203-0.677c4.174-6.405,8.634-12.671,13.258-18.625
							c0.527-0.679,0.452-1.696-0.17-2.272c-0.623-0.577-1.553-0.492-2.08,0.186c-4.678,6.024-9.19,12.363-13.412,18.842
							c-0.473,0.725-0.318,1.732,0.346,2.248C864.876,1417.068,865.176,1417.165,865.472,1417.165z"/>
					</g>
				</g>
				<g>
					<g>
						<path style="fill:#3F8956;" d="M870.993,1421.297c0.473,0,0.938-0.248,1.223-0.708c3.998-6.454,8.219-12.878,12.547-19.092
							c0.494-0.709,0.368-1.72-0.281-2.259c-0.648-0.542-1.574-0.403-2.068,0.307c-4.361,6.262-8.614,12.735-12.642,19.237
							c-0.457,0.738-0.28,1.74,0.395,2.239C870.421,1421.208,870.708,1421.297,870.993,1421.297z"/>
					</g>
				</g>
				<g>
					<g>
						<path style="fill:#3F8956;" d="M897.151,1435.003c0.591,0,1.149-0.39,1.376-1.03l7.526-21.205
							c0.295-0.83-0.083-1.763-0.843-2.086c-0.755-0.322-1.614,0.088-1.909,0.921l-7.526,21.205
							c-0.295,0.83,0.083,1.764,0.842,2.086C896.792,1434.968,896.973,1435.003,897.151,1435.003z"/>
					</g>
				</g>
				<g>
					<g>
						<path style="fill:#3F8956;" d="M903.403,1437.085c0.607,0,1.176-0.412,1.391-1.074c2.24-6.898,4.653-13.962,7.174-20.993
							c0.298-0.829-0.077-1.764-0.836-2.089c-0.755-0.323-1.614,0.083-1.912,0.913c-2.533,7.064-4.958,14.16-7.208,21.092
							c-0.272,0.839,0.13,1.76,0.898,2.058C903.073,1437.056,903.24,1437.085,903.403,1437.085z"/>
					</g>
				</g>
				<g>
					<g>
						<path style="fill:#3F8956;" d="M1012.543,1439.341c0.196,0,0.395-0.042,0.586-0.133c0.747-0.354,1.091-1.302,0.767-2.12
							l-9.245-23.32c-0.324-0.817-1.192-1.197-1.941-0.838c-0.747,0.354-1.091,1.303-0.767,2.12l9.245,23.32
							C1011.429,1438.978,1011.972,1439.341,1012.543,1439.341z"/>
					</g>
				</g>
				<g>
					<g>
						<path style="fill:#3F8956;" d="M1021.483,1436.373c0.232,0,0.468-0.06,0.687-0.186c0.721-0.416,0.997-1.391,0.618-2.178
							c-2.577-5.341-5.159-10.677-7.743-16.015l-3.243-6.703c-0.38-0.787-1.273-1.087-1.995-0.672
							c-0.721,0.416-0.995,1.392-0.615,2.179l3.244,6.703c2.582,5.337,5.164,10.671,7.74,16.011
							C1020.44,1436.06,1020.953,1436.373,1021.483,1436.373z"/>
					</g>
				</g>
				<g>
					<g>
						<path style="fill:#3F8956;" d="M1049.772,1421.859c0.336,0,0.675-0.125,0.951-0.381c0.623-0.574,0.701-1.591,0.175-2.271
							c-5.056-6.539-10.114-13.079-15.161-19.617c-0.526-0.679-1.457-0.767-2.079-0.193c-0.624,0.574-0.702,1.591-0.177,2.271
							c5.048,6.54,10.105,13.08,15.163,19.619C1048.936,1421.665,1049.352,1421.859,1049.772,1421.859z"/>
					</g>
				</g>
				<g>
					<g>
						<path style="fill:#3F8956;" d="M1056.854,1416.593c0.395,0,0.789-0.172,1.079-0.512c0.556-0.652,0.524-1.672-0.072-2.279
							c-5.897-6.008-11.615-12.201-16.995-18.405c-0.56-0.647-1.494-0.676-2.086-0.062c-0.592,0.612-0.618,1.632-0.057,2.279
							c5.422,6.254,11.183,12.492,17.124,18.546C1056.131,1416.449,1056.494,1416.593,1056.854,1416.593z"/>
					</g>
				</g>
				<g>
					<g>
						<path style="fill:#3F8956;" d="M1075.699,1397.179c0.468,0,0.928-0.242,1.214-0.695c0.464-0.733,0.296-1.737-0.374-2.243
							l-6.242-4.716c-5.087-3.845-10.172-7.688-15.264-11.526c-0.67-0.506-1.589-0.323-2.052,0.411
							c-0.463,0.733-0.295,1.736,0.377,2.242c5.089,3.837,10.173,7.68,15.261,11.524l6.241,4.716
							C1075.117,1397.087,1075.409,1397.179,1075.699,1397.179z"/>
					</g>
				</g>
				<g>
					<g>
						<path style="fill:#3F8956;" d="M1080.974,1389.56c0.515,0,1.016-0.296,1.287-0.822c0.4-0.776,0.147-1.759-0.563-2.196
							c-7.64-4.696-15.257-9.735-22.637-14.978c-0.239-0.17-0.519-0.26-0.804-0.26c-0.815,0-1.481,0.722-1.481,1.612
							c0,0.615,0.313,1.15,0.775,1.422c7.403,5.255,15.039,10.306,22.7,15.015C1080.48,1389.494,1080.729,1389.56,1080.974,1389.56z
							"/>
					</g>
				</g>
			</g>
		</g>
		<g>
			<path style="fill:#F9AD96;" d="M919.257,1459.398c0,0-6.053-84.86-11.433-109.106c-5.38-24.246-7.398-35.634-9.415-44.818
				c-2.018-9.184,34.635-54.737,43.714-60.615c9.079-5.878,15.804,0.735,19.839,5.51s23.875,41.512,23.875,41.512
				s8.07-0.735,14.796,0.367c6.725,1.102,9.415,10.654,8.743,15.429c8.07,1.102,14.123,1.837,17.149,5.878
				c3.026,4.041,1.681,16.164,1.681,16.164s11.769,1.102,9.415,13.592s-8.07,33.43-14.123,40.41
				c-6.053,6.98-24.211,5.51-24.211,5.51s-3.026,40.131-5.716,55.332c-2.69,15.201-34.494,21.469-34.494,21.469L919.257,1459.398z"
				/>
			<g>
				<path style="fill:#B36048;" d="M996.979,1417.74c0.746,0,1.386-0.616,1.466-1.444c1.053-11.023,1.892-21.511,2.193-25.371
					c4.565,0.193,18.455,0.223,23.931-6.094c6.312-7.28,12.128-28.623,14.496-41.193c0.778-4.128,0.232-7.599-1.625-10.317
					c-2.199-3.219-5.666-4.472-7.629-4.942c0.279-3.613,0.602-12.175-2.145-15.844c-3.213-4.291-9.168-5.234-16.719-6.267
					c0.018-3.218-0.977-7.529-3.196-10.822c-1.814-2.692-4.199-4.349-6.899-4.791c-5.547-0.909-11.863-0.61-14.209-0.451
					c-3.087-5.698-19.803-36.438-23.596-40.927c-2.963-3.508-10.835-12.821-21.676-5.804c-4.615,2.988-15.966,15.639-26.403,29.427
					c-8.922,11.786-19.285,27.07-17.994,32.951c0.738,3.358,1.464,6.955,2.384,11.508c1.529,7.578,3.625,17.955,7.033,33.314
					c2.236,10.076,4.965,32.752,7.893,65.575c0.08,0.887,0.799,1.533,1.612,1.448c0.811-0.087,1.405-0.875,1.326-1.761
					c-2.051-22.992-5.097-53.109-7.962-66.022c-3.401-15.326-5.493-25.685-7.019-33.248c-0.922-4.569-1.651-8.179-2.395-11.566
					c-1.736-7.902,33.747-52.841,43.031-58.851c7.749-5.017,13.448-0.176,18.003,5.217c3.108,3.677,16.854,28.582,23.688,41.237
					c0.288,0.532,0.84,0.845,1.393,0.787c0.08-0.006,7.983-0.705,14.455,0.355c1.934,0.317,3.603,1.499,4.96,3.515
					c2.129,3.158,2.899,7.548,2.543,10.075c-0.06,0.43,0.04,0.869,0.281,1.217c0.24,0.348,0.599,0.574,0.994,0.628l0.584,0.08
					c7.563,1.031,13.027,1.775,15.605,5.219c1.915,2.556,1.85,10.526,1.359,14.949c-0.048,0.434,0.067,0.871,0.32,1.211
					c0.253,0.339,0.621,0.553,1.019,0.59c0.042,0.004,4.672,0.502,7.007,3.939c1.322,1.945,1.688,4.543,1.089,7.722
					c-2.214,11.742-7.902,32.884-13.748,39.626c-4.569,5.269-18.17,5.405-23.031,5.011c-0.792-0.072-1.512,0.593-1.58,1.476
					c-0.01,0.129-0.989,13.076-2.308,26.859c-0.084,0.886,0.504,1.679,1.314,1.772
					C996.876,1417.737,996.928,1417.74,996.979,1417.74z"/>
			</g>
			<g>
				<path style="fill:#B36048;" d="M934.387,1298.27c0.042,0,0.084-0.002,0.127-0.006l51.448-4.776
					c0.812-0.076,1.414-0.856,1.345-1.743c-0.068-0.887-0.79-1.543-1.595-1.47l-51.448,4.776c-0.812,0.076-1.414,0.856-1.345,1.743
					C932.984,1297.635,933.628,1298.27,934.387,1298.27z"/>
			</g>
			<g>
				<path style="fill:#B36048;" d="M959.075,1311.862c0.023,0,0.046,0,0.07-0.001l50.299-2.572c0.814-0.042,1.443-0.797,1.405-1.686
					c-0.038-0.889-0.705-1.578-1.543-1.535l-50.299,2.572c-0.814,0.042-1.443,0.797-1.405,1.686
					C957.639,1311.189,958.292,1311.862,959.075,1311.862z"/>
			</g>
			<g>
				<path style="fill:#B36048;" d="M988.19,1333.169c0.021,0,0.041,0,0.062-0.001l40.014-1.837c0.815-0.037,1.447-0.789,1.413-1.678
					c-0.035-0.889-0.729-1.591-1.536-1.543l-40.014,1.837c-0.815,0.037-1.447,0.789-1.413,1.678
					C986.749,1332.491,987.403,1333.169,988.19,1333.169z"/>
			</g>
			<g>
				<path style="fill:#B36048;" d="M957.245,1295.882c0.054,0,0.108-0.003,0.161-0.01c0.533-0.065,0.993-0.44,1.2-0.981
					c1.63-4.261,1.353-15.775-3.416-25.448c-0.386-0.784-1.284-1.076-1.998-0.656c-0.718,0.423-0.987,1.4-0.599,2.184
					c3.104,6.299,4.064,13.378,3.945,18.126c-1.103-2.723-2.738-5.365-9.489-8.353c-0.758-0.335-1.617,0.064-1.922,0.889
					c-0.306,0.825,0.059,1.765,0.814,2.1c6.466,2.862,7.264,4.972,8.276,7.643c0.43,1.136,0.918,2.424,1.823,3.824
					C956.318,1295.63,956.768,1295.882,957.245,1295.882z"/>
			</g>
			<g>
				<path style="fill:#B36048;" d="M999.289,1390.845c0.768,0,1.415-0.65,1.47-1.499c0.069-1.074,1.664-26.469-1.034-41.206
					c-0.159-0.874-0.944-1.44-1.736-1.265c-0.799,0.174-1.318,1.024-1.158,1.897c2.621,14.316,1,40.09,0.984,40.348
					c-0.058,0.888,0.555,1.659,1.368,1.721C999.219,1390.844,999.254,1390.845,999.289,1390.845z"/>
			</g>
			<g>
				<path style="fill:#B36048;" d="M999.806,1370.456c0.377,0,0.752-0.156,1.041-0.469c0.491-0.533,1.425-1.278,2.507-2.142
					c4.049-3.232,10.828-8.641,12.509-17.215c0.171-0.871-0.337-1.728-1.134-1.914c-0.799-0.185-1.581,0.367-1.752,1.238
					c-1.446,7.371-7.414,12.135-11.364,15.288c-1.228,0.979-2.196,1.753-2.847,2.459c-0.578,0.628-0.58,1.648-0.006,2.28
					C999.048,1370.298,999.427,1370.456,999.806,1370.456z"/>
			</g>
		</g>
		<g>
			<path style="fill:#B36048;" d="M851.031,1826.302c0.563,0,1.1-0.354,1.347-0.95c0.812-1.971,19.915-48.362,21.77-56.012
				c0.208-0.861-0.261-1.743-1.049-1.971c-0.794-0.229-1.596,0.285-1.804,1.146c-1.793,7.396-21.41,55.033-21.608,55.513
				c-0.334,0.812-0.003,1.766,0.74,2.133C850.622,1826.257,850.828,1826.302,851.031,1826.302z"/>
		</g>
	</g>
</g>
<g id="woman">
	<ellipse style="opacity:0.5;fill:#BBCDFC;" cx="3575.875" cy="3133.899" rx="390.566" ry="73.394"/>
	<g>
		<g>
			<g>
				<g>
					<path style="fill:#F9AD96;" d="M3805.516,3025.503l-0.334,6.36l-5.45,103.722l-67.705,2.177l-0.581-91.266
						C3758.106,3048.862,3785.498,3042.928,3805.516,3025.503z"/>
					<path style="fill:#DB846A;" d="M3731.446,3046.495l-0.37-58.159l-0.008-1.361l-0.294-46.168l79.158,0.672l-2.378,45.254
						l-2.038,38.77C3785.498,3042.928,3758.106,3048.862,3731.446,3046.495z"/>
					<path style="fill:#086082;" d="M3592.959,3143.466l0.292,6.602l0.6,12.844l216.17,0.289c0,0-0.016-6.006-0.016-14.852
						c-0.016-20.803,0.049-57.289,0.486-68.07c0.502-12.518-11.117-21.164-15.428,6.729c-4.311,27.912-51.479,26.067-54.46,12.446
						s2.333-38.729-18.313-31.367c-16.028,5.735-80.453,36.667-114.307,50.216
						C3598.567,3122.084,3592.457,3132.305,3592.959,3143.466z"/>
					<path style="fill:#38659A;" d="M3593.251,3150.069l0.6,12.844l216.17,0.289c0,0-0.016-6.006-0.016-14.852L3593.251,3150.069z"
						/>
				</g>
				<g>
					<path style="fill:#F9AD96;" d="M3481.169,3025.503l-0.334,6.36l-5.45,103.722l-67.705,2.177l-0.581-91.266
						C3433.759,3048.862,3461.151,3042.928,3481.169,3025.503z"/>
					<path style="fill:#DB846A;" d="M3407.099,3046.495l-0.37-58.159l-0.009-1.361l-0.294-46.168l79.158,0.672l-2.378,45.254
						l-2.038,38.77C3461.151,3042.928,3433.759,3048.862,3407.099,3046.495z"/>
					<path style="fill:#086082;" d="M3268.613,3143.466l0.292,6.602l0.6,12.844l216.17,0.289c0,0-0.016-6.006-0.016-14.852
						c-0.016-20.803,0.049-57.289,0.486-68.07c0.502-12.518-11.117-21.164-15.428,6.729c-4.311,27.912-51.479,26.067-54.461,12.446
						s2.334-38.729-18.313-31.367c-16.028,5.735-80.454,36.667-114.308,50.216C3274.22,3122.084,3268.11,3132.305,3268.613,3143.466
						z"/>
					<path style="fill:#38659A;" d="M3268.904,3150.069l0.6,12.844l216.17,0.289c0,0-0.016-6.006-0.016-14.852L3268.904,3150.069z"
						/>
				</g>
				<path style="fill:#46709B;" d="M3384.381,3010.488c0,0,54.427,31.192,123.567-8.21c14.25-106.008,39.025-398.048,55.792-591.391
					c4.014-46.261,7.567-86.885,10.409-117.948c27.943,151.048,116.686,661.719,140.232,722.472
					c25.498,13.521,125.031,6.589,140.722-29.555c-3.461-27.051-7.921-62.085-12.988-105.788
					c-18.666-161.003-22.695-237.924-34.084-365.468c-20.959-234.721-32.396-356.902-72.507-517.159
					c-16.265-64.985-32.576-117.581-43.839-151.92c-20.433,14.862-68.682,45.748-138.151,52.334
					c-65.399,6.201-115.947-12.327-139.048-22.491c1.125,12.869,2.251,25.737,3.376,38.606
					c-21.504,116.268-39.154,243.509-49.671,380.598C3347.434,2565.148,3359.604,2807.069,3384.381,3010.488z"/>
				<path style="fill:#29589B;" d="M3563.739,2410.888c4.014-46.261,7.567-86.885,10.409-117.948
					c-5.013-27.504-15.153-110.123-24.122-201.961C3539.541,2204.875,3563.739,2410.888,3563.739,2410.888z"/>
				<g>
					<path style="fill:#29589B;" d="M3741.637,2966.104c34.216,0,77.275-6.883,107.427-35.736c0.724-0.693,0.808-1.909,0.187-2.716
						c-0.621-0.811-1.712-0.902-2.435-0.209c-44.189,42.282-117.33,36.156-146.727,31.558c-0.938-0.152-1.817,0.585-1.949,1.641
						c-0.133,1.054,0.526,2.029,1.47,2.176C3709.576,2964.377,3724.498,2966.104,3741.637,2966.104z"/>
				</g>
				<g>
					<path style="fill:#29589B;" d="M3444.846,2968.149c24.386,0,47.559-6.614,70.564-19.894c0.847-0.49,1.179-1.653,0.74-2.597
						c-0.438-0.945-1.479-1.312-2.327-0.828c-40.947,23.642-82.5,25.671-130.771,6.39c-0.899-0.361-1.887,0.164-2.207,1.165
						c-0.321,1.001,0.146,2.106,1.044,2.464C3404.064,2963.705,3424.864,2968.149,3444.846,2968.149z"/>
				</g>
				<g>
					<path style="fill:#29589B;" d="M3703.416,2030.755c9.672,0,20.153-4.03,31.329-12.069c0.955-0.688,1.23-2.108,0.615-3.175
						c-0.615-1.063-1.888-1.37-2.843-0.686c-16.06,11.553-30.385,14.28-42.573,8.102c-24.157-12.237-41.829-59.546-52.529-140.611
						c-0.166-1.256-1.217-2.133-2.334-1.938c-1.124,0.184-1.901,1.352-1.736,2.606c11.069,83.875,29.027,131.02,54.899,144.125
						C3693.043,2029.54,3698.108,2030.755,3703.416,2030.755z"/>
				</g>
				<g>
					<path style="fill:#29589B;" d="M3574.147,2294.867c0.114,0,0.229-0.013,0.346-0.04c0.935-0.211,1.538-1.229,1.348-2.272
						c-4.586-25.159-14.59-104.431-24.097-201.785c-4.991-51.048-11.661-125.805-15.088-192.045
						c-0.055-1.063-0.875-1.85-1.824-1.813c-0.952,0.06-1.679,0.971-1.625,2.035c3.432,66.321,10.108,141.148,15.103,192.24
						c8.355,85.549,18.735,172.448,24.146,202.135C3572.623,2294.237,3573.342,2294.867,3574.147,2294.867z"/>
				</g>
				<g>
					<path style="fill:#29589B;" d="M3536.572,2099.745c4.034,0,8.735-0.665,14.284-1.978c0.932-0.222,1.529-1.244,1.33-2.285
						c-0.197-1.043-1.118-1.709-2.047-1.487c-13.026,3.085-20.809,2.448-26.025-2.127c-12.767-11.199-13.776-49.064-15.988-132.031
						c-0.487-18.274-1.039-38.987-1.787-62.081c-0.035-1.065-0.851-1.935-1.788-1.856c-0.953,0.038-1.698,0.932-1.664,1.995
						c0.749,23.083,1.3,43.788,1.787,62.056c2.312,86.735,3.269,122.635,17.305,134.946
						C3525.689,2098.153,3530.332,2099.745,3536.572,2099.745z"/>
				</g>
			</g>
		</g>
		<g>
			<path style="fill:#C97652;" d="M3558.794,1285.004c-8.816-0.029-17.121-1.958-24.258-5.663c-1.136-0.589-1.564-1.962-0.959-3.067
				c0.605-1.103,2.018-1.524,3.152-0.933c7.66,3.977,16.862,5.699,26.6,4.966c8.5-0.635,17.475-3.139,26.672-7.44
				c1.156-0.541,2.552-0.067,3.109,1.061s0.069,2.483-1.091,3.025c-9.721,4.546-19.253,7.195-28.333,7.874
				C3562.042,1284.951,3560.41,1285.009,3558.794,1285.004z"/>
		</g>
	</g>
	<path style="fill:#895142;" d="M3554.979,1063.706c-52.195-12.527-89.08,16.703-101.607,71.682
		c-12.527,54.979-25.054,231.747,17.398,290.206s313.172,34.797,313.172,34.797s-52.195-96.271-59.851-207.157
		c-7.655-110.886-43.844-169.345-76.553-187.439S3570.986,1043.524,3554.979,1063.706z"/>
	<path style="fill:#F9AD96;" d="M3541.066,1430.001l124.799-4.634l3.244-105.323l-48.709-66.808l-55.673,7.891l-15.101,50.958
		l-3.462,11.666c0.313,10.181-0.15,25.349-0.899,41.05v0.014C3543.751,1396.324,3541.066,1430.001,3541.066,1430.001z"/>
	<path style="fill:#DB846A;" d="M3545.264,1364.801c27.585-7.25,43.312-31.919,50.154-58.536l-45.793,5.819l-3.462,11.666
		C3546.477,1333.932,3546.014,1349.1,3545.264,1364.801z"/>
	<path style="fill:#F9AD96;" d="M3531.781,1114.973c-33.405,13.455-51.499,36.189-56.139,44.54
		c-4.64,8.351,0.464,41.756-6.495,63.098c-6.959,21.342-9.279,29.693-5.104,46.396c4.176,16.703,10.984,74.195,46.396,77.945
		s87.224-30.157,94.647-58.459c7.423-28.301,17.167-48.252,2.784-83.976C3593.488,1168.792,3572.146,1134.459,3531.781,1114.973z"/>
	<g>
		<g>
			<g>
				<path style="fill:#7A4136;" d="M3531.782,1117.017c1.113,0,2.025-0.894,2.044-2.012c0.005-0.302,0.746-30.449,22.51-49.77
					c0.844-0.749,0.922-2.042,0.172-2.885c-0.75-0.844-2.041-0.922-2.885-0.172c-23.142,20.543-23.865,51.459-23.885,52.765
					c-0.017,1.129,0.884,2.056,2.012,2.074C3531.76,1117.017,3531.771,1117.017,3531.782,1117.017z"/>
			</g>
		</g>
	</g>
	<path style="fill:#895142;" d="M3609.299,1273.413c-1.893,39.67,32.44,132.926,76.516,148.701
		c44.076,15.775,17.63-95.111,17.63-95.111l-67.274-61.242L3609.299,1273.413z"/>
	<g>
		<path style="fill:#B36048;" d="M3509.977,1271.516c0.899,0,1.723-0.598,1.971-1.507c0.297-1.089-0.345-2.213-1.435-2.51
			c-4.566-1.244-16.364-7.491-17.177-11.684c-0.066-0.339-0.219-1.133,1.173-2.189c4.599-3.491,20.083-16.402,26.232-35.969
			c0.338-1.077-0.26-2.225-1.337-2.563c-1.077-0.337-2.225,0.26-2.563,1.338c-5.787,18.413-20.447,30.632-24.803,33.938
			c-2.825,2.144-3.036,4.568-2.715,6.224c1.417,7.308,16.412,13.84,20.116,14.85
			C3509.617,1271.493,3509.799,1271.516,3509.977,1271.516z"/>
	</g>
	<g>
		<path style="fill:#B36048;" d="M3509.609,1297.966c11.588,0,23.26-3.93,32.09-11.31c0.866-0.724,0.982-2.013,0.258-2.88
			c-0.723-0.866-2.013-0.982-2.879-0.258c-12.27,10.253-30.524,13.245-45.423,7.443c-1.052-0.409-2.238,0.112-2.647,1.163
			c-0.409,1.052,0.111,2.237,1.163,2.647C3497.694,1296.923,3503.64,1297.966,3509.609,1297.966z"/>
	</g>
	<g>
		<path style="fill:#B36048;" d="M3516.892,1311.733c5.746,0,11.431-2.056,15.824-5.842c0.855-0.737,0.952-2.028,0.214-2.883
			c-0.737-0.856-2.028-0.952-2.883-0.214c-4.537,3.908-11.007,5.63-16.886,4.495c-1.103-0.218-2.181,0.51-2.394,1.62
			c-0.214,1.108,0.511,2.181,1.62,2.394C3513.877,1311.592,3515.387,1311.733,3516.892,1311.733z"/>
	</g>
	<g>
		<path style="fill:#B36048;" d="M3550.802,1291.93c0.604,0,1.202-0.266,1.605-0.777c0.7-0.886,0.55-2.171-0.336-2.872
			c-4.574-3.614-10.036-6.004-15.796-6.911c-1.116-0.169-2.162,0.586-2.338,1.702c-0.176,1.115,0.586,2.162,1.702,2.338
			c5.068,0.798,9.874,2.901,13.897,6.08C3549.911,1291.786,3550.358,1291.93,3550.802,1291.93z"/>
	</g>
	<path style="fill:#895142;" d="M3581.121,1198.681c-0.769-3.917-3.104-7.307-6.085-9.923c-3.005-2.608-6.749-4.445-10.755-5.244
		c-4.006-0.802-8.168-0.545-11.945,0.708c-3.758,1.269-7.217,3.502-9.431,6.823c-0.699,1.048-0.416,2.465,0.632,3.164
		c0.382,0.254,0.812,0.379,1.239,0.384l0.159,0.002c3.512,0.045,6.383,0.077,9.135,0.288c2.732,0.194,5.271,0.535,7.735,1.026
		c2.463,0.494,4.938,1.155,7.535,2.026c2.621,0.862,5.284,1.937,8.543,3.245l0.15,0.06c1.169,0.469,2.498-0.098,2.967-1.268
		C3581.171,1199.544,3581.204,1199.099,3581.121,1198.681z"/>
	<path style="fill:#F9AD96;" d="M3508.858,1457.121c-1.069-17.896-1.339-34.15-0.569-47.468c20.007-2.889,41.186-4.075,62.052-3.543
		c54.924,1.39,84.157,0,84.157,0c7.973,1.226,15.551,2.562,22.774,4.007c-1.688,5.869-3.892,12.12-6.781,18.596
		c-10.937,24.509-26.849,41.375-39.166,51.96c-9.456,4.544-27.176,11.397-49.828,10.381
		C3541.018,1489.238,3515.107,1463.655,3508.858,1457.121z"/>
	<path style="fill:#895142;" d="M3513.306,1186.767c-1.381-3.208-3.86-5.808-6.761-7.752c-2.919-1.934-6.326-3.2-9.869-3.654
		c-3.543-0.455-7.158-0.089-10.471,1.046c-3.299,1.149-6.353,3.039-8.499,5.795c-0.749,0.963-0.577,2.351,0.386,3.1
		c0.445,0.346,0.98,0.495,1.501,0.461l0.137-0.009c3.048-0.205,5.676-0.406,8.24-0.416c2.55-0.025,4.985,0.111,7.372,0.416
		c2.387,0.307,4.777,0.79,7.239,1.457c2.479,0.657,4.971,1.514,7.869,2.482l0.127,0.042c1.157,0.386,2.409-0.238,2.795-1.396
		C3513.551,1187.805,3513.512,1187.247,3513.306,1186.767z"/>
	<ellipse style="fill:#52141F;" cx="3548.982" cy="1222.843" rx="6.461" ry="9.511"/>
	<ellipse style="fill:#52141F;" cx="3488.903" cy="1215.652" rx="6.461" ry="9.511"/>
	<path style="fill:#FFC536;" d="M3716.319,1910.243c15.814-109.586,31.628-219.172,47.442-328.758
		c0,0,47.319-105.786,20.184-127.361c-18.985-15.087-43.749-27.789-78.584-37.384c0,0-0.373-0.089-28.089-6.623
		c-18.894,55.703-73.392,82.885-114.461,69.173c-27.827-9.292-48.199-36.928-54.522-69.636c-10.22,1.142-24.286,3.493-40.368,8.736
		c0,0-24.476,7.065-41.69,19.039c-32.014,22.269-1.39,237.304-1.39,237.304c-3.792,32.759-6.691,60.148-8.738,80.208
		c-5.95,58.302-6.589,73.165-6.765,85.611c-0.451,31.919,2.002,57.95,4.145,74.946c37.756,4.403,79.457,7.353,124.554,7.641
		C3604.744,1923.566,3664.704,1918.078,3716.319,1910.243z"/>
	<path style="fill:#FFC536;" d="M3426.231,1437.424c-52.891,38.973-65.418,146.843-78.641,187.903
		c-13.223,41.06-32.013,176.768-32.013,176.768l85.6-11.135l61.938-293.686L3426.231,1437.424z"/>
	<g>
		<path style="fill:#F0B422;" d="M3443.598,1672.267c-0.06,0-0.119-0.001-0.18-0.005c-1.654-0.098-2.916-1.518-2.818-3.171
			l5.19-87.892c0.098-1.654,1.515-2.927,3.172-2.818c1.654,0.098,2.916,1.518,2.818,3.171l-5.19,87.892
			C3446.495,1671.037,3445.174,1672.267,3443.598,1672.267z"/>
	</g>
	<g>
		<polygon style="fill:#4D4749;" points="3108.885,1465.122 3245.976,1758.25 3490.953,1758.25 3353.848,1465.122 		"/>
		<g>
			<g>
				<g>
					<path style="fill:#382C30;" d="M3492.367,1758.883c0.29,0,0.585-0.062,0.865-0.193c1.022-0.478,1.463-1.696,0.986-2.718
						l-137.106-293.128c-0.337-0.719-1.058-1.178-1.852-1.178h-244.963c-1.129,0-2.044,0.915-2.044,2.044
						c0,1.129,0.915,2.044,2.044,2.044h243.662l136.554,291.95C3490.861,1758.447,3491.597,1758.883,3492.367,1758.883z"/>
				</g>
			</g>
		</g>
		<polygon style="fill:#4D4749;" points="3203.138,1465.122 3194.484,1445.079 3250.854,1445.079 3259.591,1465.122 
			3291.237,1465.122 3306.529,1502.847 3186.827,1502.847 3166.957,1465.122 		"/>
		<g>
			<g>
				<g>
					<path style="fill:#382C30;" d="M3186.12,1502.698l-19.871-37.725c-0.334-0.634-0.312-1.396,0.059-2.009
						c0.37-0.613,1.034-0.988,1.75-0.988h33.072l-7.422-17.188c-0.273-0.631-0.209-1.358,0.168-1.934
						c0.378-0.575,1.02-0.921,1.708-0.921h56.371c0.813,0,1.549,0.482,1.874,1.228l8.201,18.815h30.307
						c0.832,0,1.582,0.505,1.895,1.276l15.292,37.725c0.256,0.63,0.181,1.346-0.199,1.91c-0.38,0.564-1.016,0.902-1.696,0.902
						h-119.702C3187.171,1503.789,3186.474,1503.368,3186.12,1502.698z M3290.961,1466.064h-30.269
						c-0.813,0-1.549-0.482-1.874-1.227l-8.201-18.815h-51.923l7.422,17.188c0.273,0.632,0.209,1.358-0.168,1.934
						c-0.378,0.575-1.02,0.921-1.708,0.921h-32.795l17.718,33.636h115.433L3290.961,1466.064z"/>
				</g>
			</g>
		</g>
		<path style="fill:#382C30;" d="M3224.407,1456.541c0.845,1.832,2.804,2.73,4.375,2.005s2.158-2.798,1.312-4.63
			c-0.845-1.832-2.804-2.73-4.375-2.005C3224.149,1452.636,3223.562,1454.709,3224.407,1456.541z"/>
	</g>
	<g>
		<path style="fill:#F9AD96;" d="M3711.922,1846.967c-45.051-16.453-108.905-8.227-128.884,0
			c-19.979,8.227,16.062,11.951,16.062,11.951s-14.103,0.193-23.896,6.461c-9.793,6.268,7.443,13.319,24.288,12.927
			c-19.979,3.134-31.339,11.752-24.68,16.453c6.66,4.701,33.298,1.567,33.298,1.567s-28.206,7.051-23.113,12.928
			c5.093,5.876,16.062,8.227,66.205,4.701c50.143-3.526,87.359-21.938,87.359-21.938l-11.752-40.741L3711.922,1846.967z"/>
		<g>
			<path style="fill:#B36048;" d="M3645.719,1860.963c1.063,0,1.96-0.823,2.037-1.899c0.081-1.126-0.767-2.104-1.894-2.184
				c-19.098-1.361-46.589-0.015-46.864-0.003c-1.128,0.056-1.996,1.016-1.94,2.144c0.056,1.127,1.004,2.022,2.144,1.94
				c0.273-0.013,27.519-1.344,46.37-0.003C3645.621,1860.961,3645.67,1860.963,3645.719,1860.963z"/>
		</g>
		<g>
			<path style="fill:#B36048;" d="M3599.489,1880.351c0.068,0,0.137-0.003,0.206-0.01c15.379-1.538,36.529-1.96,45.978-1.757
				c1.111,0.05,2.064-0.872,2.087-2c0.024-1.129-0.872-2.063-2-2.087c-9.547-0.206-30.925,0.221-46.472,1.776
				c-1.123,0.112-1.943,1.115-1.831,2.238C3597.563,1879.564,3598.451,1880.351,3599.489,1880.351z"/>
		</g>
		<g>
			<path style="fill:#B36048;" d="M3608.107,1898.372c0.13,0,0.261-0.013,0.393-0.039c15.672-3.058,43.18-2.71,43.456-2.704
				c1.07,0.007,2.057-0.886,2.073-2.016c0.016-1.129-0.886-2.057-2.016-2.073c-1.143-0.016-28.211-0.358-44.295,2.78
				c-1.108,0.216-1.831,1.29-1.615,2.398C3606.293,1897.694,3607.149,1898.372,3608.107,1898.372z"/>
		</g>
		<path style="fill:#F9AD96;" d="M3711.922,1846.967c-30.164-20.762-39.174-21.546-70.514-20.762
			c-31.339,0.783-6.268,16.062,1.567,17.628c7.835,1.567,58.37,12.144,58.37,12.144L3711.922,1846.967z"/>
	</g>
	<path style="fill:#F0B422;" d="M3249.695,1688.89c-25.054-14.847-90.783,58.521-54.747,75.625s67.738-22.734,67.738-22.734v-38.044
		L3249.695,1688.89z"/>
	<path style="fill:#FFC536;" d="M3194.95,1764.519c0,0,135.47,66.345,170.728,68.662c35.271,2.317,42.686-23.659,59.79-74.931
		h-38.447c0,0-62.624-31.319-137.323-69.357c4.797,27.435-8.423,46.188-23.074,58.154
		C3211.55,1759.381,3194.95,1764.519,3194.95,1764.519z"/>
	<path style="fill:#F9AD96;" d="M3163.863,1667.55c4.17,24.123,40.369,58.917,62.76,79.497
		c14.651-11.966,27.871-30.719,23.074-58.154c24.191-25.581,31.551-44.075,26.276-48.259c-3.789-3.012-9.022,0.504-11.653,2.685
		c4.307-4.102,15.333-15.591,10.426-21.234c-5.533-6.406-18.944,4.852-21.056,6.692c2.29-2.126,17.145-16.354,8.995-21.084
		c-8.818-5.097-14.378,0-30.16,13.929c12.525-11.598,9.745-19.026,0-15.782C3222.78,1609.083,3159.692,1643.427,3163.863,1667.55z"
		/>
	<g>
		<path style="fill:#B36048;" d="M3192.164,1658.921c0.516,0,1.033-0.194,1.431-0.584c0.231-0.226,23.292-22.775,40.136-35.063
			c0.912-0.665,1.112-1.945,0.447-2.857c-0.665-0.912-1.943-1.113-2.857-0.447c-17.085,12.465-40.354,35.219-40.587,35.447
			c-0.807,0.79-0.82,2.084-0.029,2.891C3191.104,1658.716,3191.634,1658.921,3192.164,1658.921z"/>
	</g>
	<g>
		<path style="fill:#B36048;" d="M3206.586,1676.069c0.538,0,1.074-0.211,1.475-0.63c0.328-0.342,32.958-34.329,46.876-45.043
			c0.895-0.689,1.062-1.972,0.373-2.867c-0.689-0.896-1.972-1.061-2.867-0.373c-14.162,10.902-45.985,44.048-47.333,45.453
			c-0.782,0.815-0.754,2.109,0.061,2.89C3205.567,1675.88,3206.076,1676.069,3206.586,1676.069z"/>
	</g>
	<g>
		<path style="fill:#B36048;" d="M3220.626,1687.216c0.544,0,1.085-0.215,1.487-0.641c0.258-0.273,25.933-27.436,43.494-41.668
			c0.877-0.711,1.012-1.998,0.301-2.875c-0.71-0.878-1.997-1.013-2.875-0.301c-17.774,14.405-43.635,41.765-43.894,42.04
			c-0.775,0.821-0.737,2.115,0.084,2.889C3219.619,1687.031,3220.123,1687.216,3220.626,1687.216z"/>
	</g>
	<g>
		<path style="fill:#B36048;" d="M3228.743,1723.446c0.473,0,0.947-0.162,1.333-0.495c0.434-0.373,10.749-9.419,21.485-33.218
			c0.464-1.029,0.007-2.24-1.023-2.704c-1.03-0.465-2.24-0.006-2.704,1.023c-10.367,22.98-20.326,31.714-20.425,31.8
			c-0.856,0.737-0.952,2.027-0.216,2.883C3227.597,1723.205,3228.169,1723.446,3228.743,1723.446z"/>
	</g>
	<path style="fill:#FFC536;" d="M3783.943,1454.127c41.06,30.621,176.768,189.991,202.518,228.963
		c25.75,38.973,6.264,70.986-32.013,96.039c-38.277,25.054-196.602,107.699-229.659,124.573
		c-15.895-6.719-25.477-49.806-19.834-66.114c32.013-27.142,163.197-114.83,163.197-114.83l-134.316-151.018L3783.943,1454.127z"/>
	
		<ellipse transform="matrix(0.5 -0.866 0.866 0.5 728.8997 3766.4719)" style="fill:#F9AD96;" cx="3626.275" cy="1251.997" rx="27.449" ry="23.176"/>
	<g>
		<path style="fill:#F0B422;" d="M3703.562,1840.512c-0.1,0-0.199-0.007-0.3-0.022c-1.092-0.163-1.845-1.182-1.681-2.274
			l1.029-6.859c0.091-0.61,0.46-1.145,0.999-1.447l23.503-13.188c0.966-0.541,2.183-0.198,2.723,0.766
			c0.541,0.963,0.197,2.183-0.766,2.723l-22.648,12.709l-0.885,5.892C3705.388,1839.8,3704.534,1840.512,3703.562,1840.512z"/>
	</g>
</g>
</svg>
