<?xml version="1.0" encoding="UTF-8"?>
<svg xmlns="http://www.w3.org/2000/svg" xmlns:xlink="http://www.w3.org/1999/xlink" viewBox="0 0 123.81 49.53">
    <defs>
        <style>
            .cls-1 {
            fill: #604d5d;
            }

            .cls-2 {
            fill: #2da8b7;
            }

            .cls-3 {
            fill: url(#radial-gradient);
            }

            .cls-4 {
            fill: #fec06f;
            }

            .cls-5 {
            isolation: isolate;
            }

            .cls-6 {
            fill: #fceed5;
            }

            .cls-7, .cls-8 {
            fill: #ed6354;
            }

            .cls-9 {
            fill: #443642;
            }

            .cls-8 {
            mix-blend-mode: screen;
            opacity: .33;
            }

            .cls-10 {
            fill: #f56f5b;
            }
        </style>
        <radialGradient id="radial-gradient" cx="94.44" cy="35" fx="94.44" fy="35" r="86.11" gradientUnits="userSpaceOnUse">
            <stop offset="0" stop-color="#2ba7ab"/>
            <stop offset="1" stop-color="#1a7f8a"/>
        </radialGradient>
    </defs>
    <g class="cls-5">
        <g id="Presentation">
            <rect class="cls-3" width="123.81" height="49.53"/>
        </g>
        <g id="Object">
            <g>
                <polygon class="cls-1" points="118.23 44.21 105.84 44.21 105.84 24.17 119.91 24.17 119.91 42.5 118.23 44.21"/>
                <rect class="cls-10" x="108.6" y="26.54" width="8.55" height="1.25"/>
                <rect class="cls-6" x="107.03" y="28.87" width="11.69" height=".35"/>
                <rect class="cls-6" x="107.03" y="30.22" width="11.69" height=".35"/>
                <rect class="cls-6" x="107.03" y="31.57" width="11.69" height=".35"/>
                <rect class="cls-6" x="107.03" y="32.93" width="11.69" height=".35"/>
                <rect class="cls-6" x="107.03" y="34.28" width="11.69" height=".35"/>
                <rect class="cls-6" x="107.03" y="35.64" width="11.69" height=".35"/>
                <g>
                    <g>
                        <rect class="cls-6" x="113.11" y="38.16" width="5.12" height=".35"/>
                        <rect class="cls-6" x="113.11" y="39.34" width="5.12" height=".35"/>
                        <rect class="cls-6" x="113.11" y="40.51" width="5.12" height=".35"/>
                    </g>
                    <rect class="cls-2" x="107.65" y="37.42" width="4.1" height="4.19"/>
                </g>
                <polygon class="cls-9" points="119.91 42.5 118.23 44.21 118.16 42.56 119.91 42.5"/>
            </g>
            <g>
                <g>
                    <path class="cls-10" d="M103.82,9.1v15.17c0,.06,0,.12-.02.18-.03.13-.1.24-.19.34l-1.12,1.09c-.09.09-.21.16-.34.18-.05,0-.1.02-.15.02h-10.4c-.39,0-.7-.31-.7-.7V9.1c0-.39.31-.71.7-.71h11.53c.39,0,.7.32.7.71Z"/>
                    <path class="cls-7" d="M103.8,24.45c-.03.13-.1.24-.19.34l-1.12,1.09c-.09.09-.21.16-.34.18l-.03-.68c-.02-.48.36-.89.84-.9l.85-.03Z"/>
                </g>
                <rect class="cls-4" x="92.72" y="10.14" width="4.35" height="1.13"/>
                <rect class="cls-1" x="92.72" y="12.19" width="9.4" height=".39"/>
                <rect class="cls-1" x="92.72" y="13.65" width="9.4" height=".39"/>
                <rect class="cls-1" x="94" y="23.06" width="6.85" height=".24"/>
                <rect class="cls-1" x="94" y="23.73" width="6.85" height=".24"/>
                <rect class="cls-1" x="92.72" y="15.12" width="9.4" height=".39"/>
                <rect class="cls-1" x="92.72" y="16.59" width="9.4" height=".39"/>
                <rect class="cls-4" x="93.26" y="18.4" width="3.51" height="3.93"/>
                <rect class="cls-6" x="98.07" y="18.4" width="3.51" height="3.93"/>
            </g>
            <g>
                <g>
                    <path class="cls-7" d="M122.57,16.74c0,2.99-2.43,5.42-5.42,5.42-.49,0-.96-.07-1.41-.19-.27-.07-.53-.16-.77-.27-.18-.08-.36-.17-.53-.26-.24-.14-.47-.29-.68-.46-1.24-.99-2.04-2.53-2.04-4.25,0-2.84,2.19-5.18,4.98-5.41.15,0,.29-.02.44-.02.14,0,.28,0,.42.02,2.8.21,5,2.56,5,5.41Z"/>
                    <circle class="cls-10" cx="117.14" cy="16.74" r="5"/>
                </g>
                <path class="cls-8" d="M117.56,11.33l-.52,4.5-.34-4.5c.15,0,.29-.02.44-.02.14,0,.28,0,.42.02Z"/>
                <path class="cls-8" d="M118.99,11.64l-1.74,4.19.91-4.42c.15.03.29.06.43.11.14.04.26.08.4.13Z"/>
                <path class="cls-8" d="M122.52,17.45l-4.46-.8,4.52-.06c0,.15,0,.29-.01.44,0,.14-.03.27-.04.42Z"/>
                <path class="cls-8" d="M116.92,17.86l-1.18,4.1c-.27-.07-.53-.16-.77-.27l1.95-3.84Z"/>
                <polygon class="cls-8" points="113.76 20.98 116.71 17.81 114.44 21.44 113.76 20.98"/>
                <g>
                    <path class="cls-4" d="M117.14,14.81c-1.06,0-1.93.86-1.93,1.93s.86,1.93,1.93,1.93,1.93-.86,1.93-1.93-.86-1.93-1.93-1.93ZM117.14,17.51c-.42,0-.77-.34-.77-.77s.34-.77.77-.77.77.34.77.77-.34.77-.77.77Z"/>
                    <path class="cls-2" d="M117.14,15.51c-.68,0-1.24.55-1.24,1.24s.55,1.24,1.24,1.24,1.24-.55,1.24-1.24-.55-1.24-1.24-1.24ZM117.14,17.23c-.27,0-.49-.22-.49-.49s.22-.49.49-.49.49.22.49.49-.22.49-.49.49Z"/>
                </g>
            </g>
            <g>
                <rect class="cls-1" x="84.25" y="35.54" width="10.05" height="1.15" transform="translate(125.39 -53.16) rotate(90)"/>
                <rect class="cls-10" x="88.88" y="40.96" width=".79" height="1.15" transform="translate(47.74 130.81) rotate(-90)"/>
                <rect class="cls-6" x="89.17" y="40.21" width=".2" height="1.15" transform="translate(48.49 130.06) rotate(-90)"/>
                <polygon class="cls-6" points="89.84 31.1 88.71 31.1 89.05 30.48 89.51 30.48 89.84 31.1"/>
                <polygon class="cls-1" points="89.51 30.48 89.04 30.48 89.28 30.05 89.51 30.48"/>
            </g>
            <g>
                <rect class="cls-10" x="93.48" y="34.37" width="10.05" height="1.15"/>
                <rect class="cls-1" x="103.52" y="34.37" width=".79" height="1.15" transform="translate(207.83 69.88) rotate(180)"/>
                <rect class="cls-1" x="103.06" y="34.37" width=".2" height="1.15" transform="translate(206.33 69.88) rotate(180)"/>
                <polygon class="cls-1" points="93.48 34.37 93.48 35.51 92.86 35.17 92.86 34.7 93.48 34.37"/>
                <polygon class="cls-10" points="92.86 34.7 92.86 35.17 92.43 34.93 92.86 34.7"/>
            </g>
            <path class="cls-10" d="M118.64,35.25c0,.17-.14.31-.31.31s-.31-.14-.31-.31.14-.31.31-.31.31.14.31.31Z"/>
        </g>
    </g>
</svg>