<?xml version="1.0" encoding="UTF-8"?>
<svg xmlns="http://www.w3.org/2000/svg" xmlns:xlink="http://www.w3.org/1999/xlink" viewBox="0 0 6000 4000">
    <defs>
        <style>
            .cls-1 {
            fill: #8abfde;
            }

            .cls-2 {
            stroke-dasharray: 30.94;
            stroke-width: 6.19px;
            }

            .cls-2, .cls-3, .cls-4, .cls-5, .cls-6, .cls-7, .cls-8, .cls-9, .cls-10 {
            stroke-miterlimit: 10;
            }

            .cls-2, .cls-5, .cls-6, .cls-7, .cls-10 {
            fill: none;
            }

            .cls-2, .cls-5, .cls-6, .cls-10 {
            stroke: #515151;
            }

            .cls-11 {
            fill: #ed724f;
            }

            .cls-12 {
            fill: #6691dd;
            }

            .cls-3 {
            stroke-width: 19.04px;
            }

            .cls-3, .cls-4, .cls-8, .cls-13, .cls-9 {
            fill: #c4c3fc;
            }

            .cls-3, .cls-4, .cls-8, .cls-9 {
            stroke: #5751bb;
            }

            .cls-4 {
            stroke-width: 33.08px;
            }

            .cls-14 {
            fill: #efa935;
            }

            .cls-15 {
            fill: #103942;
            }

            .cls-16 {
            fill: #f8a17a;
            }

            .cls-17 {
            fill: #2a2a7c;
            }

            .cls-18 {
            fill: #fff;
            }

            .cls-19 {
            fill: #f29175;
            }

            .cls-20 {
            fill: #dee9fc;
            }

            .cls-21 {
            fill: #9595ce;
            }

            .cls-22 {
            fill: #5751bb;
            }

            .cls-23 {
            fill: #0f3b47;
            }

            .cls-24 {
            fill: #6e66c9;
            }

            .cls-5, .cls-6, .cls-10 {
            stroke-width: 5.13px;
            }

            .cls-6 {
            stroke-dasharray: 40.57 40.57;
            }

            .cls-25 {
            fill: #fb8f69;
            }

            .cls-26 {
            fill: #7a79cc;
            }

            .cls-27 {
            fill: #0b2d4e;
            }

            .cls-28 {
            fill: #5851bc;
            }

            .cls-29 {
            fill: #d0dadb;
            }

            .cls-30 {
            fill: #b4bded;
            }

            .cls-31 {
            fill: #d8d5f7;
            }

            .cls-32 {
            fill: #6175c1;
            }

            .cls-7 {
            stroke: #fff;
            stroke-width: 8.49px;
            }

            .cls-33 {
            fill: #8896d8;
            }

            .cls-34 {
            fill: #f76d1a;
            }

            .cls-35 {
            fill: #ff8968;
            }

            .cls-8 {
            stroke-width: 16.82px;
            }

            .cls-36 {
            fill: #212121;
            }

            .cls-37 {
            fill: #2a3f9d;
            }

            .cls-9 {
            stroke-width: 28.41px;
            }

            .cls-38 {
            fill: #a3c1f5;
            }

            .cls-39 {
            fill: #f2c5ba;
            }

            .cls-40 {
            clip-path: url(#clippath);
            }

            .cls-10 {
            stroke-dasharray: 40.71 40.71;
            }

            .cls-41 {
            fill: #00a09d;
            }
        </style>
        <clipPath id="clippath">
            <path class="cls-21" d="M4713.18,411.54c68.13,398.95,60.47,1682.54-919.4,2033.62,22.42-1039.03,588.26-1057.19,919.4-2033.62Z"/>
        </clipPath>
    </defs>
    <g id="Layer_2" data-name="Layer 2">
        <rect class="cls-18" width="6000" height="4000"/>
    </g>
    <g id="Layer_1" data-name="Layer 1">
        <g>
            <g>
                <path class="cls-21" d="M4713.18,411.54c68.13,398.95,60.47,1682.54-919.4,2033.62,22.42-1039.03,588.26-1057.19,919.4-2033.62Z"/>
                <g class="cls-40">
                    <path class="cls-31" d="M4708.75,403.42c14.86,76.92-10.56,153.79-32.14,226.89-21.3,72.14-44.1,143.84-68.32,215.05-48.36,142.2-102.37,282.46-161.16,420.67-59.16,139.09-123.23,276.08-191.41,410.96-68.28,135.07-140.7,268.04-216.55,399.01-75.54,130.43-154.49,258.88-236.22,385.53-10.29,15.95-20.63,31.87-31.01,47.76-3.77,5.77-13.07.39-9.28-5.42,82.05-125.66,161.45-253.05,237.53-382.41,75.78-128.83,148.29-259.6,216.87-392.4,68.78-133.2,133.61-268.46,193.74-405.78,60.12-137.32,115.5-276.73,165.41-418.09,24.82-70.32,48.29-141.11,70.3-212.36,11.24-36.37,22.15-72.85,32.55-109.47,10.93-38.46,21.1-77.63,23.19-117.73,1.04-19.92-.07-39.76-3.86-59.35-1.31-6.76,9.05-9.65,10.36-2.86h0Z"/>
                    <path class="cls-31" d="M4598.73,841.37c-33.92-57.25-81.45-105-115.3-162.28-9.44-15.97-17.62-32.64-24.14-50.02-2.43-6.48,7.95-9.28,10.36-2.86,23.19,61.85,68.9,111.25,107.49,163.67,10.96,14.89,21.44,30.15,30.87,46.06,3.53,5.96-5.75,11.37-9.28,5.42h0Z"/>
                    <path class="cls-31" d="M4533.96,1019.01c-35.75-57.26-73.63-113.18-113.58-167.59-11.3-15.38-22.76-30.64-34.38-45.78-4.21-5.48,5.12-10.84,9.28-5.42,41.09,53.55,80.19,108.63,117.14,165.13,10.45,15.97,20.71,32.06,30.82,48.24,3.67,5.88-5.62,11.28-9.28,5.42h0Z"/>
                    <path class="cls-31" d="M4473.65,1179.55c-21.53-40.16-50.64-75.34-77.71-111.77-27-36.33-51.26-74.62-72.31-114.69-11.89-22.63-22.71-45.8-32.59-69.37-1.13-2.7,1.22-5.88,3.75-6.61,3.09-.89,5.49,1.09,6.61,3.75,17.54,41.82,38.46,82.25,62.4,120.76,23.59,37.96,51.1,72.86,77.64,108.73,15.1,20.41,29.49,41.37,41.5,63.77,3.27,6.09-6.01,11.53-9.28,5.42h0Z"/>
                    <path class="cls-31" d="M4457.22,1223.7c-46.36-65.78-100.41-126.06-160.7-179.36-17.07-15.09-34.64-29.6-52.66-43.55-2.31-1.79-1.85-5.71,0-7.6,2.24-2.29,5.32-1.77,7.6,0,64.21,49.7,122.58,106.84,173.55,170.05,14.42,17.89,28.26,36.25,41.5,55.03,3.99,5.66-5.32,11.04-9.28,5.42h0Z"/>
                    <path class="cls-31" d="M4346.15,1462.07c.26-22.79-12.95-43.01-23.61-62.24-11.81-21.31-23.7-42.58-35.7-63.78-24-42.41-48.45-84.56-73.56-126.32-14.05-23.36-28.31-46.6-42.81-69.69-3.69-5.87,5.61-11.27,9.28-5.42,52.75,84.02,102.28,170.01,150.39,256.75,12.13,21.87,27.06,44.77,26.77,70.71-.08,6.91-10.82,6.93-10.74,0h0Z"/>
                    <path class="cls-31" d="M4322.55,1517.37c-58.18-88.46-110.84-180.54-157.5-275.58-13.08-26.65-25.69-53.54-37.83-80.63-2.8-6.26,6.45-11.73,9.28-5.42,43.31,96.62,92.63,190.52,147.68,280.96,15.44,25.36,31.33,50.44,47.64,75.25,3.81,5.79-5.49,11.18-9.28,5.42h0Z"/>
                    <path class="cls-31" d="M4255.01,1648.78c-35.5-71.67-71.57-144.59-123.3-206.23-14.41-17.17-29.99-33.33-46.8-48.17-5.2-4.58,2.43-12.16,7.6-7.6,60.69,53.55,103.43,123.49,140.51,194.6,10.7,20.52,21,41.24,31.27,61.97,3.06,6.18-6.21,11.63-9.28,5.42h0Z"/>
                    <path class="cls-31" d="M4144.43,1867.88c-40.02-79.45-89.44-154.11-147.16-221.81-16.38-19.21-33.42-37.85-51.06-55.91-4.83-4.95,2.76-12.56,7.6-7.6,62.77,64.29,117.87,136.1,163.6,213.45,12.85,21.73,24.94,43.9,36.3,66.44,3.1,6.16-6.16,11.61-9.28,5.42h0Z"/>
                    <path class="cls-31" d="M4122.22,1906.51c-26.86-67.55-68.64-129-121.24-179.13-14.74-14.05-30.31-27.21-46.66-39.35-5.49-4.08-.14-13.41,5.42-9.28,59.87,44.46,109.92,101.7,145.75,167.14,10.23,18.67,19.22,37.98,27.08,57.76,2.56,6.43-7.83,9.22-10.36,2.86h0Z"/>
                    <path class="cls-31" d="M4042.89,2048.2c-17.28-44.82-39.96-87.52-67.17-127.1-27.21-39.59-59.06-75.98-94.63-108.27-20.19-18.33-41.58-35.26-64.04-50.72-5.66-3.89-.29-13.21,5.42-9.28,40.54,27.89,77.77,60.5,110.7,97.07,32.9,36.55,61.63,76.93,85.22,120.08,13.29,24.31,24.89,49.51,34.86,75.36,2.49,6.46-7.89,9.25-10.36,2.86h0Z"/>
                    <path class="cls-31" d="M3965.02,2180.82c-21.49-75.07-75.02-134.78-132.16-185.57-17.22-15.31-34.94-30.04-52.69-44.72-5.33-4.41,2.3-11.97,7.6-7.6,61.72,51.03,124.62,104.5,163.31,176,10.15,18.75,18.43,38.53,24.3,59.03,1.91,6.66-8.46,9.5-10.36,2.86h0Z"/>
                    <path class="cls-31" d="M3950.83,2202.96c-25.65-58.34-66.11-110.07-116.85-148.71-14.4-10.97-29.59-20.86-45.41-29.66-6.04-3.36-.63-12.65,5.42-9.28,57.13,31.78,105.78,78.24,140.44,133.65,9.73,15.55,18.29,31.79,25.67,48.58,2.76,6.27-6.5,11.75-9.28,5.42h0Z"/>
                    <path class="cls-31" d="M4515.88,1080.26c62.55-26.21,122.64-57.78,183.9-86.78,59.62-28.23,120.74-54.23,184.9-70.23,35.75-8.92,72.36-14.61,109.21-15.84,6.92-.23,6.91,10.51,0,10.74-65.41,2.18-129.25,18.99-190.21,42.03-62.36,23.57-121.86,53.85-181.73,83.01-34.05,16.59-68.28,32.79-103.22,47.43-2.7,1.13-5.88-1.22-6.61-3.75-.89-3.09,1.09-5.49,3.75-6.61h0Z"/>
                    <path class="cls-31" d="M4588.44,883.17c84.92-36.61,163.74-87.05,232.4-149.01,19.49-17.59,38.14-36.1,55.92-55.42,4.69-5.1,12.28,2.51,7.6,7.6-63.22,68.69-137.77,126.93-219.71,171.65-23.05,12.58-46.68,24.06-70.79,34.45-6.28,2.71-11.76-6.55-5.42-9.28h0Z"/>
                    <path class="cls-31" d="M4652.15,693.8c53.01-36.96,101.95-79.53,146-126.8,4.72-5.07,12.31,2.54,7.6,7.6-44.68,47.94-94.42,91-148.18,128.48-5.68,3.96-11.06-5.35-5.42-9.28h0Z"/>
                    <path class="cls-31" d="M4425.11,1308.91c69.29-23.72,137.91-49.37,205.76-76.95,67.68-27.51,134.56-56.97,200.57-88.27,37.19-17.64,74.09-35.87,110.71-54.68,6.14-3.15,11.58,6.11,5.42,9.28-65.4,33.59-131.74,65.34-198.93,95.18-67.1,29.79-135.03,57.71-203.7,83.69-38.76,14.66-77.76,28.7-116.97,42.12-6.56,2.24-9.37-8.13-2.86-10.36h0Z"/>
                    <path class="cls-31" d="M4317.35,1548.89c40.03-4.79,79.37-14.02,118.28-24.37,37.7-10.03,75.25-20.68,112.77-31.35,74.16-21.09,148.05-43.51,220.01-71.33,40.51-15.66,80.33-33.11,119.02-52.85,6.15-3.14,11.59,6.13,5.42,9.28-69.28,35.34-142.07,63.25-215.95,87.34-74.54,24.3-150.19,45.32-225.83,65.89-44,11.97-88.38,22.71-133.72,28.14-6.85.82-6.79-9.93,0-10.74h0Z"/>
                    <path class="cls-31" d="M4399.03,1369.07c88.85-17.94,176.74-40.53,263.22-67.67,86.55-27.17,171.71-58.87,254.91-95.02,46.63-20.26,92.66-41.91,138.02-64.88,6.15-3.12,11.6,6.15,5.42,9.28-81.28,41.15-164.71,78.03-249.85,110.44-84.71,32.24-171.1,60.04-258.72,83.23-49.69,13.15-99.77,24.8-150.15,34.98-6.75,1.36-9.64-8.99-2.86-10.36h0Z"/>
                    <path class="cls-31" d="M4234.22,1712.1c96.86,12.42,193.02-11.47,285.68-37.38,95.49-26.7,190.94-53.5,286.7-79.22,54.28-14.58,108.63-28.92,163.04-43.05,6.7-1.74,9.55,8.62,2.86,10.36-96.78,25.12-193.38,50.96-289.78,77.53-48.09,13.25-96.11,26.73-144.11,40.28-47.03,13.28-94.24,26.3-142.36,35.06-53.39,9.71-108,14.09-162.02,7.16-6.76-.87-6.85-11.62,0-10.74h0Z"/>
                    <path class="cls-31" d="M4198.34,1776.79c69.32,4.66,138.9,3.97,208.2-.72,70.01-4.73,139.7-13.45,208.97-24.6,68.84-11.08,137.27-24.53,205.5-38.83,68.35-14.32,136.52-29.48,204.84-43.97,68.63-14.55,137.41-28.43,206.6-40.07,8.56-1.44,17.13-2.84,25.71-4.22,6.76-1.08,9.68,9.27,2.86,10.36-69.28,11.09-138.15,24.56-206.81,38.92-68.7,14.37-137.2,29.61-205.86,44.18-68.55,14.55-137.27,28.44-206.38,40.1-69.12,11.66-138.65,21.14-208.53,26.86-69.56,5.7-139.47,7.64-209.2,4.24-8.64-.42-17.27-.93-25.9-1.51-6.86-.46-6.91-11.21,0-10.74h0Z"/>
                    <path class="cls-31" d="M4098.81,1958.96c74.46,7.22,149.49,8.17,224.12,2.86,74.42-5.3,148.37-16.87,220.86-34.52,40.95-9.97,81.41-21.91,121.24-35.71,6.55-2.27,9.36,8.11,2.86,10.36-71.22,24.68-144.48,43.31-218.84,55.66-73.72,12.24-148.43,18.45-223.16,18.35-42.43-.06-84.84-2.16-127.07-6.25-6.82-.66-6.89-11.41,0-10.74h0Z"/>
                    <path class="cls-31" d="M4010.38,2107.84c70.88-4.04,141.65-9.86,212.23-17.47,70.69-7.63,141.18-17.06,211.39-28.28,39.4-6.3,78.7-13.17,117.9-20.57,6.76-1.28,9.65,9.08,2.86,10.36-70.33,13.29-141,24.82-211.92,34.52-70.52,9.64-141.28,17.54-212.2,23.62-40.04,3.43-80.13,6.28-120.26,8.57-6.91.39-6.89-10.35,0-10.74h0Z"/>
                    <path class="cls-31" d="M3931.73,2249.74c76.39-11.56,152.79-23.09,229.47-32.54,76.36-9.41,153.04-16.73,229.94-19.79,43.27-1.72,86.6-2.07,129.89-.75,6.9.21,6.93,10.96,0,10.74-76.58-2.35-153.23.62-229.56,6.94-76.6,6.33-152.89,15.96-228.97,26.79-42.68,6.07-85.3,12.52-127.92,18.97-6.76,1.02-9.68-9.33-2.86-10.36h0Z"/>
                </g>
            </g>
            <g>
                <path class="cls-13" d="M1132.49,2639.89c-39.11-147.34,114.01-219.64,78.41-293.61-32.57-63.34-139.06-76.41-148.9-115.91-14.45-38.86,44.55-105.74,9.09-166.43-31.41-53.77-141.22-4.85-161.91-53.3-21.91-51.33-76.64-133.45-117.49-120.91-45.41,13.94-31.08,126.23-34.26,157.32-5.68,55.61-94.86,92.97-86.67,175.63,5.02,50.69,89.07,35.26,115.38,90.7,29.64,62.47-78.25,86.3-35.9,202.72,63.24,173.87,240.03,61.7,342.03,143.31,32.78,26.22,41.08-10.47,40.22-19.54Z"/>
                <path class="cls-18" d="M812.4,1962.18c5.31,17.35,10.63,34.69,15.94,52.04,5.31,17.35,10.63,34.69,15.94,52.04,5.31,17.35,10.63,34.69,15.94,52.04s10.63,34.69,15.94,52.04,10.42,34.17,15.76,51.21c5.29,16.88,10.74,33.72,16.62,50.41,4.37,12.41,8.87,24.81,13.99,36.94,2.97,7.05,6.12,14.02,9.38,20.94,3.72,7.9,7.57,15.74,11.5,23.54,4.44,8.84,8.98,17.63,13.57,26.39,5.02,9.56,10.1,19.09,15.23,28.6,5.44,10.08,10.94,20.13,16.48,30.15,5.73,10.38,11.5,20.73,17.31,31.06s11.79,20.9,17.72,31.33,11.79,20.65,17.72,30.95,11.51,19.96,17.3,29.92c5.47,9.43,10.96,18.84,16.46,28.25,5.06,8.65,10.13,17.29,15.21,25.93,4.49,7.63,8.98,15.25,13.49,22.87,3.82,6.46,7.64,12.92,11.47,19.37,1.57,2.64,3.13,5.28,4.7,7.92,1.28,2.16,4.37,3.13,6.56,1.72s3.09-4.25,1.72-6.56c-3.44-5.79-6.88-11.59-10.31-17.39-4.2-7.1-8.4-14.2-12.59-21.31-4.81-8.15-9.6-16.3-14.39-24.47-5.32-9.06-10.62-18.13-15.91-27.2-5.66-9.72-11.31-19.45-16.95-29.19s-11.68-20.25-17.49-30.39-11.88-20.8-17.77-31.22-11.74-20.83-17.56-31.28c-5.69-10.2-11.34-20.43-16.94-30.68s-10.61-19.51-15.83-29.31c-4.88-9.16-9.7-18.34-14.45-27.56-4.27-8.3-8.48-16.64-12.58-25.03-3.52-7.21-6.96-14.45-10.25-21.77-.74-1.64-1.47-3.29-2.19-4.94-.34-.78-.68-1.55-1.01-2.33-.16-.37-.31-.73-.47-1.1-.08-.2-.17-.39-.25-.59-.26-.62.51,1.22.17.4-1.77-4.23-3.44-8.49-5.09-12.77-6.34-16.52-12.13-33.24-17.63-50.05s-10.72-33.73-15.91-50.65-10.55-34.44-15.82-51.66c-5.31-17.35-10.63-34.69-15.94-52.04-5.31-17.35-10.63-34.69-15.94-52.04-5.29-17.27-10.58-34.54-15.87-51.8-2.58-8.43-5.17-16.87-7.75-25.3-.73-2.39-3.38-4.16-5.9-3.35s-4.13,3.33-3.35,5.9h0Z"/>
                <path class="cls-18" d="M842.46,2029.72c1.3-4.37,2.8-8.69,4.52-12.91.06-.15.75-1.81.39-.96.18-.42.36-.84.54-1.26.49-1.11.99-2.22,1.51-3.32.94-2,1.92-3.97,2.95-5.92,1.98-3.74,4.09-7.46,6.54-10.93.31-.44.64-.88.96-1.32-.63.85.18-.22.26-.31.68-.84,1.4-1.65,2.16-2.42.66-.67,1.35-1.32,2.06-1.92.21-.17.41-.34.62-.51-.44.34-.44.34,0,.02.45-.3.89-.61,1.35-.9,2.12-1.34,3.16-4.33,1.72-6.56s-4.29-3.16-6.56-1.72c-7.89,5-12.87,13.27-17.17,21.33-4.59,8.61-8.32,17.71-11.1,27.06-.71,2.4.86,5.33,3.35,5.9s5.13-.77,5.9-3.35h0Z"/>
                <path class="cls-18" d="M911.48,2254.98c.95-2.95,1.96-5.89,3.04-8.79.48-1.28.97-2.55,1.47-3.82.27-.69.55-1.38.84-2.07.14-.34.28-.69.43-1.03.21-.5.19-.46-.05.12.1-.23.19-.46.29-.68,2.34-5.47,4.94-10.83,7.77-16.06s6.01-10.56,9.37-15.62c1.64-2.48,3.34-4.93,5.09-7.33.87-1.2,1.76-2.4,2.66-3.58.18-.23,1.34-1.73.61-.8.54-.68,1.07-1.37,1.61-2.05,7.5-9.41,15.82-18.17,24.82-26.15,2.23-1.97,4.5-3.9,6.81-5.78,1.16-.94,2.32-1.86,3.5-2.78.99-.78-.8.6.21-.16.3-.22.59-.45.89-.68.69-.52,1.39-1.04,2.09-1.56,4.79-3.53,9.73-6.86,14.81-9.96,5.71-3.49,11.6-6.69,17.63-9.58,1.56-.75,3.14-1.48,4.72-2.19.79-.35,1.59-.7,2.38-1.05.28-.12.57-.24.85-.37.32-.14.23-.1-.29.12.23-.1.46-.19.69-.29,3.21-1.33,6.45-2.58,9.73-3.74,2.36-.84,4.18-3.31,3.35-5.9-.75-2.33-3.37-4.24-5.9-3.35-23.63,8.37-45.45,21.12-64.58,37.29-18.85,15.94-34.95,35.29-47.16,56.74-6.94,12.2-12.63,25.16-16.91,38.53-.76,2.39.89,5.34,3.35,5.9,2.62.6,5.08-.79,5.9-3.35h0Z"/>
                <path class="cls-18" d="M871.52,2124.33c-1.92-5-6.13-8.45-10.28-11.59-5.13-3.89-10.72-7.19-16.32-10.35-12.33-6.96-25.1-13.08-37.59-19.73-2.63-1.4-5.25-2.83-7.81-4.36-.96-.58-1.91-1.17-2.84-1.81-.4-.27-.79-.56-1.19-.85-.47-.34,1.18.97.42.32-.16-.14-.32-.27-.48-.41-1.87-1.67-4.96-1.98-6.78,0-1.67,1.82-2,5,0,6.78,3.37,3,7.49,5.17,11.42,7.32,5.66,3.09,11.43,5.99,17.17,8.93,12.4,6.35,25.09,12.57,36.54,20.56.65.45,1.29.91,1.92,1.38.32.23.63.49.95.71.01,0-1.02-.8-.47-.36.16.13.32.26.49.38,1.04.83,2.06,1.7,3.02,2.62.44.43.88.87,1.29,1.32.17.19.35.39.51.59.54.64.26.43-.15-.22.26.4.55.77.79,1.18.11.18.2.37.3.55.54.95-.46-1.21-.15-.4.89,2.33,3.27,4.2,5.9,3.35,2.27-.74,4.31-3.39,3.35-5.9h0Z"/>
                <path class="cls-18" d="M1037.23,2507.21c-.02-.39,0-.78.04-1.16.02-.24.06-.47.08-.71.02-.35-.25,1.66-.11.85.02-.15.05-.3.07-.45.23-1.42.54-2.83.88-4.23,1.02-4.2,2.3-8.34,3.67-12.44,1.86-5.56,3.91-11.06,6.11-16.49.29-.71.58-1.42.87-2.13.17-.41.34-.82.51-1.23.15-.37.84-1.93.13-.31.71-1.62,1.39-3.26,2.11-4.88,1.47-3.33,2.99-6.64,4.57-9.92,6.94-14.46,14.87-28.49,24.02-41.66,1.16-1.67,2.35-3.33,3.55-4.98.6-.82,1.21-1.64,1.83-2.46.28-.37.56-.74.84-1.11.17-.22.34-.44.51-.66.51-.67-.71.91.1-.13,2.56-3.28,5.21-6.49,7.97-9.61,5.42-6.14,11.24-11.94,17.54-17.18.76-.63,1.52-1.25,2.29-1.86.35-.28.7-.55,1.05-.83.78-.61-.91.7-.13.1.21-.16.42-.32.64-.48,1.62-1.23,3.27-2.41,4.95-3.56,3.25-2.21,6.61-4.25,10.08-6.08,1.68-.89,3.38-1.73,5.11-2.52.47-.21.94-.42,1.42-.63.2-.09.4-.17.59-.26.59-.26-1.18.49-.31.13.95-.39,1.91-.77,2.88-1.13,3.62-1.35,7.33-2.47,11.1-3.3,1.86-.41,3.73-.75,5.61-1.03,2.49-.37,4.08-3.64,3.35-5.9-.88-2.72-3.23-3.75-5.9-3.35-16.01,2.38-31,9.71-43.83,19.43-13.82,10.47-25.46,23.32-35.71,37.25-9.75,13.26-18.15,27.5-25.49,42.21-6.21,12.45-11.74,25.28-16.35,38.41-1.57,4.49-3.05,9.02-4.28,13.61-.84,3.14-1.62,6.35-1.89,9.59-.03.37-.05.74-.03,1.1.11,2.5,2.12,4.91,4.79,4.79,2.5-.11,4.92-2.11,4.79-4.79h0Z"/>
                <path class="cls-18" d="M795.22,2488.06c6.14-2.43,11.88-5.98,17.72-9.03,10.45-5.46,21.06-10.63,31.9-15.28.37-.16.74-.32,1.11-.47.19-.08.37-.16.56-.24.96-.41-.8.33-.16.07.8-.34,1.61-.67,2.41-1.01,1.69-.7,3.39-1.38,5.09-2.06,3.48-1.37,6.98-2.69,10.5-3.95,7.44-2.66,14.98-5.06,22.6-7.13,8-2.18,16.11-4,24.28-5.39,2.06-.35,4.12-.67,6.18-.96.24-.03.49-.07.73-.1,1.21-.17-.76.1,0,0,.49-.06.98-.13,1.47-.19,1.1-.14,2.21-.27,3.31-.39,4.27-.47,8.55-.8,12.83-1,8.69-.39,17.41-.19,26.06.71,1.01.11,2.03.22,3.04.34.25.03.51.06.76.1.04,0,1.29.17.5.06-.67-.09.15.02.31.05.32.04.63.09.95.14,2.22.33,4.44.7,6.64,1.13,4.39.85,8.75,1.89,13.05,3.13,2.15.62,4.28,1.3,6.39,2.01,2.38.81,5.34-.93,5.9-3.35.61-2.66-.8-5.03-3.35-5.9-17.16-5.83-35.39-8.36-53.48-8.2-17.37.16-34.73,2.72-51.59,6.86-15.12,3.72-29.91,8.74-44.31,14.65-11.82,4.86-23.4,10.27-34.76,16.11-6.4,3.29-12.65,6.98-19.18,10-.19.09-.37.17-.56.25-.69.32,1.47-.6.53-.23-2.32.92-4.21,3.25-3.35,5.9.73,2.25,3.4,4.34,5.9,3.35h0Z"/>
                <path class="cls-18" d="M833.75,2340.27c1.73-.26,3.46-.52,5.19-.76.43-.06.87-.12,1.3-.18-1.1.15.34-.04.46-.06,1.02-.13,2.03-.26,3.05-.38,3.64-.44,7.29-.82,10.94-1.13,7.16-.61,14.35-.95,21.54-.93s14.28.38,21.37,1.2c.86.1,1.73.21,2.59.32-1.12-.14.31.04.45.06.43.06.86.12,1.29.19,1.86.28,3.71.59,5.55.93,3.4.64,6.77,1.39,10.12,2.27,3.9,1.03,7.75,2.23,11.54,3.61.95.35,1.89.7,2.83,1.07.4.16.81.32,1.21.48.16.07,1.8.75.86.35,1.87.8,3.71,1.65,5.54,2.54,2.25,1.1,5.29.69,6.56-1.72,1.14-2.15.69-5.39-1.72-6.56-13.4-6.53-27.76-10.6-42.51-12.59-14.93-2.02-30-2.15-45.01-.99-8.6.66-17.17,1.74-25.7,3.04-2.49.38-4.08,3.63-3.35,5.9.88,2.71,3.23,3.76,5.9,3.35h0Z"/>
                <path class="cls-18" d="M897.85,2575.98c2.04-1.26,4.13-2.42,6.26-3.5,1.09-.55,2.2-1.09,3.31-1.6.55-.25,1.1-.5,1.65-.74.3-.13.6-.26.9-.39.13-.06.26-.11.39-.17.54-.24-1.16.48-.23.1,5-2.07,10.11-3.83,15.3-5.35,5.58-1.63,11.23-2.99,16.93-4.13,2.98-.6,5.98-1.14,8.98-1.63,1.55-.25,3.1-.49,4.65-.71.72-.1,1.45-.24,2.17-.3-.8.08-.51.07.07,0,.45-.06.9-.12,1.34-.17,12.25-1.54,24.61-2.29,36.96-2.28,5.88,0,11.76.2,17.63.59,2.82.19,5.63.43,8.44.72,1.34.14,2.67.29,4,.46.34.04.68.09,1.02.13,1.12.14-.81-.11.03,0,.67.09,1.33.19,2,.29,4.85.72,9.67,1.63,14.42,2.84,2.14.55,4.27,1.15,6.38,1.84.97.32,1.93.65,2.88,1,.44.16.88.33,1.32.51.23.09.46.18.7.28.1.04.2.08.29.12.7.28-.98-.43-.47-.2.84.37,1.67.74,2.49,1.14,2.25,1.1,5.29.69,6.56-1.72,1.14-2.15.69-5.39-1.72-6.56-8.3-4.04-17.34-6.32-26.4-7.88-11.48-1.98-23.15-2.9-34.79-3.11-12.47-.23-24.96.35-37.36,1.71-12.46,1.37-24.89,3.44-37.01,6.68-10.63,2.84-21.2,6.57-30.83,11.94-1.05.58-2.08,1.19-3.1,1.82-2.13,1.32-3.15,4.35-1.72,6.56s4.27,3.13,6.56,1.72h0Z"/>
                <path class="cls-18" d="M709.29,2196.67c23.55,3.8,47.32,6.11,71.12,7.6,23.68,1.48,47.41,2.17,71.13,2.67,13.2.28,26.4.5,39.61.77,2.51.05,4.91-2.24,4.79-4.79s-2.11-4.74-4.79-4.79c-23.46-.48-46.92-.8-70.37-1.57s-47.39-1.99-70.99-4.29c-6.44-.63-12.88-1.34-19.3-2.15-.85-.11-1.69-.22-2.54-.33-.31-.04-.61-.08-.92-.12-.06,0-1.55-.21-.57-.07-1.61-.22-3.21-.44-4.82-.67-3.27-.47-6.54-.97-9.8-1.49-2.47-.4-5.28.64-5.9,3.35-.52,2.3.7,5.47,3.35,5.9h0Z"/>
                <path class="cls-18" d="M968.28,2382.06c1.82-7.77,4.49-15.34,7.44-22.74.4-.99.8-1.98,1.2-2.97.14-.34.95-2.18.32-.77.29-.64.55-1.29.83-1.94.98-2.28,2-4.54,3.05-6.8,2.2-4.75,4.53-9.44,6.98-14.07,5.15-9.75,10.82-19.23,17.08-28.3,1.57-2.28,3.18-4.53,4.84-6.75.41-.55.82-1.1,1.24-1.65.21-.27.42-.55.62-.82.14-.18.84-1.14.09-.12.84-1.14,1.76-2.24,2.65-3.34,3.39-4.18,6.95-8.23,10.72-12.08,2.02-2.06,4.1-4.06,6.24-5.98,1.01-.9,2.03-1.79,3.07-2.65.55-.46,1.11-.91,1.67-1.36.24-.19.48-.38.72-.57,1.06-.84-.44.32.23-.18,4.17-3.15,8.55-6.01,13.24-8.33,2.25-1.11,3.05-4.49,1.72-6.56-1.49-2.31-4.15-2.91-6.56-1.72-9.04,4.47-17.12,10.86-24.35,17.84-8.02,7.74-15.11,16.43-21.61,25.47-12.83,17.82-23.36,37.33-31.79,57.59-3.54,8.52-6.77,17.26-8.87,26.25-.57,2.44.76,5.31,3.35,5.9,2.45.56,5.29-.74,5.9-3.35h0Z"/>
                <path class="cls-18" d="M977.7,2156.01c-.17-.49-.27-.99-.41-1.48-.2-.68-.03.7,0-.02,0-.21-.03-.44-.03-.65,0-.59.04-1.17.09-1.76,0,.09-.14.73-.02.17.08-.37.13-.74.21-1.1.47-2.2,1.19-4.35,1.84-6.51,1.39-4.64,2.75-9.3,4.08-13.96,2.68-9.4,5.25-18.84,7.69-28.3,1.37-5.33,2.71-10.67,4-16.02.59-2.43-.77-5.31-3.35-5.9s-5.26.74-5.9,3.35c-4.7,19.4-9.91,38.68-15.63,57.81-1.62,5.42-3.76,11.28-1.82,16.92.82,2.37,3.32,4.18,5.9,3.35,2.34-.76,4.22-3.36,3.35-5.9h0Z"/>
            </g>
            <g>
                <path class="cls-13" d="M1242.24,2981.97c-98.97-115.95,7.83-247.35-56.25-298.64-56.76-43.03-158.43-8.77-184.38-40.13-29.83-28.79-5.55-114.61-63.76-154-51.57-34.9-129.44,56.69-169.03,21.95-41.95-36.81-126.81-87.19-158.22-58.22-34.92,32.2,26.55,127.26,37.13,156.67,18.92,52.6-45.34,124.84-2.21,195.84,26.44,43.53,95.56-6.72,143.25,31.89,53.74,43.51-33.24,111.65,55.28,198.32,132.21,129.43,243.11-48.15,370.37-18.67,40.89,9.47,32.51-27.2,27.82-35.01Z"/>
                <path class="cls-18" d="M660.81,2509.54c12.29,13.34,24.58,26.69,36.87,40.03,12.29,13.34,24.58,26.69,36.87,40.03,12.35,13.41,24.7,26.81,37.04,40.22,12.29,13.34,24.58,26.69,36.87,40.03,12.01,13.03,23.98,26.1,36.07,39.06s23.97,25.45,36.32,37.82c9.41,9.42,18.93,18.77,28.89,27.6,5.48,4.85,11.09,9.55,16.77,14.17,6.77,5.51,13.62,10.91,20.53,16.25,8.07,6.24,16.2,12.4,24.38,18.5,8.65,6.45,17.34,12.84,26.07,19.18,9.3,6.76,18.64,13.47,28.01,20.15,9.65,6.88,19.33,13.72,29.03,20.52s19.66,13.75,29.52,20.59c9.77,6.77,19.56,13.52,29.36,20.25s19.02,13.02,28.55,19.51c9.06,6.16,18.12,12.31,27.2,18.45,8.31,5.62,16.62,11.22,24.94,16.81,7.38,4.96,14.77,9.92,22.16,14.86,6.24,4.17,12.48,8.34,18.72,12.51,2.55,1.7,5.11,3.41,7.67,5.11,2.09,1.39,5.4.48,6.56-1.72,1.27-2.41.51-5.07-1.72-6.56-5.61-3.74-11.21-7.48-16.81-11.22-6.86-4.58-13.72-9.17-20.57-13.77-7.9-5.3-15.79-10.6-23.67-15.91-8.71-5.87-17.42-11.76-26.12-17.66-9.31-6.32-18.62-12.65-27.91-19-9.7-6.63-19.38-13.27-29.04-19.94-9.86-6.8-19.7-13.62-29.53-20.47s-19.59-13.7-29.36-20.61-19.05-13.52-28.53-20.34-18.07-13.06-27.05-19.66c-8.35-6.14-16.66-12.33-24.91-18.59-1.96-1.49-3.92-2.98-5.87-4.47-.94-.72-1.88-1.44-2.81-2.16-.45-.34-.89-.69-1.34-1.03-.24-.18-.48-.37-.72-.55-.05-.04.87.67.46.36-.14-.1-.27-.21-.41-.31-3.57-2.76-7.12-5.54-10.66-8.34-6.29-4.98-12.52-10.03-18.64-15.21s-12.34-10.81-18.3-16.45c-12.69-12.02-24.98-24.44-37.06-37.07s-23.96-25.47-35.8-38.32c-12.24-13.28-24.48-26.57-36.71-39.86-12.29-13.34-24.58-26.69-36.87-40.03s-24.58-26.69-36.87-40.03c-12.29-13.34-24.58-26.69-36.87-40.03-5.98-6.49-11.95-12.98-17.93-19.47-1.7-1.85-5.08-1.85-6.78,0-1.82,1.98-1.82,4.81,0,6.78h0Z"/>
                <path class="cls-18" d="M716.8,2556.77c-.1-.64-.2-1.29-.3-1.93-.02-.13-.21-1.49-.1-.66-.15-1.13-.29-2.26-.41-3.4-.24-2.27-.43-4.54-.56-6.82-.26-4.55-.3-9.12-.11-13.68.09-2.26.24-4.51.45-6.76.09-.99.21-1.98.32-2.97-.12,1.11.04-.3.06-.42.09-.56.18-1.12.28-1.68.36-1.95.83-3.88,1.47-5.75.14-.4.29-.79.44-1.19.21-.51.21-.52,0-.02.08-.19.17-.38.26-.57.45-.96.96-1.88,1.52-2.77,1.33-2.13.52-5.37-1.72-6.56-2.35-1.24-5.14-.55-6.56,1.72-4.89,7.83-5.69,17.48-6.1,26.49-.45,9.89.24,19.76,1.79,29.53.4,2.48,3.62,4.08,5.9,3.35,2.7-.87,3.77-3.24,3.35-5.9h0Z"/>
                <path class="cls-18" d="M876.43,2730.04c-.18-1.32.13,1.03-.04-.29-.05-.39-.1-.78-.15-1.18-.08-.65-.16-1.31-.23-1.96-.18-1.57-.34-3.14-.48-4.71-.27-3.01-.47-6.04-.59-9.06-.26-6.05-.23-12.1.07-18.15.14-2.89.35-5.78.61-8.66.13-1.44.28-2.88.45-4.32.09-.78.18-1.57.28-2.35.05-.39.1-.78.15-1.17-.11.85-.02.16.04-.29.84-6,1.94-11.96,3.3-17.86s2.94-11.62,4.79-17.32c.91-2.82,1.88-5.62,2.91-8.4.5-1.36,1.02-2.71,1.55-4.06.29-.73.58-1.47.88-2.2.1-.24.2-.49.3-.73.08-.19.74-1.77.28-.68,4.66-11.03,10.29-21.66,16.8-31.71,1.86-2.87,3.79-5.69,5.8-8.46,1-1.39,2.02-2.76,3.06-4.12.16-.21.32-.42.48-.63-.7.91.34-.43.46-.59.49-.62.98-1.24,1.47-1.85,4.29-5.33,8.87-10.43,13.7-15.28,1.77-1.78,1.91-5.03,0-6.78s-4.89-1.9-6.78,0c-17.46,17.54-31.62,38.37-41.69,60.96-10.23,22.94-16.46,47.49-18.19,72.56-.97,13.98-.38,27.96,1.54,41.84.34,2.49,3.66,4.07,5.9,3.35,2.74-.89,3.72-3.22,3.35-5.9h0Z"/>
                <path class="cls-18" d="M783.78,2629.7c-3.54-3.35-8.67-4.7-13.33-5.64-6.63-1.34-13.42-1.95-20.16-2.41-14.17-.96-28.37-.95-42.55-1.55-2.95-.12-5.91-.28-8.85-.55-.61-.06-1.23-.12-1.84-.19-.13-.02-.26-.03-.39-.05-.85-.1,1.2.17.67.09-.26-.04-.52-.07-.78-.12-.86-.14-1.72-.3-2.56-.54-2.41-.69-5.33.84-5.9,3.35s.77,5.15,3.35,5.9c4.3,1.23,9.04,1.34,13.48,1.57,6.5.34,13.02.47,19.53.63,7.3.19,14.61.4,21.91.8,3.49.19,6.97.43,10.44.76,1.62.15,3.23.32,4.84.52.4.05.81.13,1.22.16-.02,0-1.31-.19-.55-.07.16.02.32.04.47.07.77.11,1.54.23,2.31.35,2.85.47,5.7,1.05,8.44,1.96.55.18,1.09.4,1.63.6.52.19-1.28-.57-.64-.27.14.06.28.12.41.19.22.1.44.21.65.32.44.23.86.48,1.27.75.77.5-.08.04-.38-.31.14.17.36.3.52.45,1.82,1.72,4.99,1.94,6.78,0s1.95-4.94,0-6.78h0Z"/>
                <path class="cls-18" d="M1098.79,2903.18c-.08-.15-.14-.31-.22-.45-.3-.56.58,1.48.35.83-.04-.12-.09-.24-.14-.35-.18-.48-.34-.97-.48-1.47-.41-1.39-.74-2.8-1.04-4.21-.4-1.9-.75-3.81-1.06-5.72-.18-1.1-.35-2.2-.5-3.3-.08-.59-.16-1.18-.25-1.76.3,2.1-.04-.35-.11-.91-1.6-12.78-2.27-25.68-2.27-38.56,0-7.84.26-15.67.82-23.49.29-4.04.66-8.08,1.11-12.1.11-.96.22-1.92.34-2.88.07-.55.14-1.1.21-1.65.02-.18.05-.37.07-.55.11-.87-.17,1.25.01-.1.28-2.02.58-4.04.9-6.05,1.33-8.25,3.07-16.45,5.34-24.5,1.12-3.98,2.38-7.93,3.78-11.83.68-1.88,1.39-3.76,2.14-5.61.2-.5.41-1.01.62-1.51.11-.27.37-.82-.17.39.11-.25.21-.5.32-.75.43-.99.87-1.98,1.32-2.96,3.28-7.14,7.18-14.02,11.83-20.36.31-.42.62-.84.94-1.25.78-1.02-.6.76.2-.27.64-.82,1.3-1.62,1.96-2.42,1.22-1.45,2.49-2.87,3.8-4.24,2.68-2.8,5.54-5.43,8.58-7.83.25-.2,1.03-.77-.15.11.14-.1.27-.21.41-.32.41-.31.83-.62,1.25-.93.77-.56,1.56-1.11,2.35-1.65,2.07-1.4,3.19-4.28,1.72-6.56-1.33-2.06-4.34-3.22-6.56-1.72-13.73,9.29-24.32,22.38-31.9,37.04-7.82,15.11-12.77,31.6-15.92,48.28s-4.59,33.16-4.87,49.86c-.23,13.62.31,27.29,1.81,40.84.56,5.12,1.24,10.23,2.19,15.29.52,2.8,1.06,5.67,2.08,8.34.27.71.55,1.43.91,2.1,1.19,2.21,4.44,3.09,6.56,1.72,2.25-1.45,2.99-4.19,1.72-6.56h0Z"/>
                <path class="cls-18" d="M872.73,2990.67c1.81-1.95,3.35-4.17,4.94-6.3,2.37-3.19,4.71-6.4,7.09-9.58,1.5-2.01,3.02-4.02,4.55-6.01.18-.24.37-.48.55-.72.71-.93-.71.91,0,0,.45-.58.9-1.16,1.35-1.74.89-1.14,1.79-2.28,2.7-3.42,4.04-5.08,8.19-10.07,12.47-14.95,9.99-11.41,20.66-22.25,32.14-32.17,3.1-2.68,6.26-5.29,9.48-7.83.41-.32.82-.64,1.22-.96.16-.13.32-.26.49-.38-1,.69-.35.27-.11.08.87-.66,1.74-1.33,2.62-1.98,1.68-1.25,3.38-2.49,5.09-3.69,6.96-4.91,14.19-9.44,21.69-13.47,3.8-2.05,7.68-3.96,11.62-5.74.99-.45,1.98-.88,2.98-1.31.2-.09.4-.18.6-.26-1.13.44-.37.16-.09.04.55-.23,1.11-.46,1.66-.68,2.03-.82,4.07-1.59,6.12-2.33,8.34-2.98,16.94-5.28,25.68-6.77,1.11-.19,2.22-.36,3.34-.53.36-.05,2.15-.42.74-.11.55-.12,1.13-.14,1.69-.21,2.48-.3,4.92-1.99,4.79-4.79-.1-2.34-2.13-5.11-4.79-4.79-18.46,2.22-36.17,7.77-52.85,15.94-15.58,7.63-29.98,17.46-43.37,28.44-12.08,9.92-23.29,20.88-33.76,32.48-8.59,9.52-16.66,19.49-24.4,29.71-2.65,3.5-5.26,7.04-7.87,10.57-.96,1.3-1.92,2.61-2.9,3.9-.19.25-.38.51-.58.76-.09.11-.17.22-.26.34-.25.33.97-1.24.37-.47-.32.41-.64.82-.98,1.22-.26.31-.52.62-.79.92-1.7,1.84-1.96,4.98,0,6.78,1.85,1.7,4.96,1.97,6.78,0h0Z"/>
                <path class="cls-18" d="M842.59,2841.5c12.05-8.23,24.57-15.82,37.74-22.12,1.58-.75,3.16-1.49,4.76-2.2.8-.36,1.59-.71,2.4-1.05.4-.17.8-.34,1.2-.51-.94.4.7-.29.86-.36,3.21-1.32,6.46-2.55,9.75-3.68,6.8-2.34,13.75-4.25,20.81-5.6,1.97-.38,3.95-.71,5.94-1,.14-.02,1.56-.21.43-.06.57-.07,1.14-.15,1.71-.21,1-.12,2-.22,3-.32,4.02-.37,8.06-.54,12.09-.52,2.51.02,4.91-2.22,4.79-4.79s-2.11-4.78-4.79-4.79c-14.8-.09-29.59,2.53-43.65,7.09s-27.85,11.08-40.79,18.54c-7.2,4.15-14.21,8.63-21.08,13.32-2.07,1.41-3.19,4.28-1.72,6.56,1.33,2.06,4.34,3.23,6.56,1.72h0Z"/>
                <path class="cls-18" d="M1003.2,3025.54c1.29-2.01,2.69-3.95,4.13-5.86.31-.41-.35.45-.32.42.09-.1.17-.22.26-.33.2-.26.41-.52.61-.77.39-.48.78-.96,1.17-1.43.84-1.01,1.69-2,2.56-2.97,3.59-4.03,7.45-7.82,11.47-11.43,2.15-1.93,4.34-3.8,6.58-5.63,1.12-.92,2.25-1.82,3.39-2.72.31-.24.62-.48.93-.73.42-.33-.29.23-.3.23.14-.09.27-.21.4-.31.63-.48,1.26-.96,1.9-1.44,4.86-3.64,9.85-7.1,14.96-10.38,10.37-6.68,21.17-12.7,32.3-18.02,2.71-1.3,5.44-2.55,8.19-3.76.66-.29,1.33-.58,2-.87.31-.13.61-.26.92-.39.5-.21-.38.16-.38.16.25-.11.51-.21.76-.32,1.31-.55,2.63-1.08,3.95-1.61,5.12-2.03,10.31-3.9,15.58-5.52,4.67-1.44,9.41-2.71,14.21-3.67,1.09-.22,2.18-.42,3.27-.6.53-.09,1.06-.17,1.59-.25.28-.04.56-.08.84-.12.76-.12-1.22.15-.2.03,2-.25,4-.44,6.01-.53.91-.04,1.82-.05,2.74-.05,2.51.02,4.91-2.22,4.79-4.79s-2.11-4.78-4.79-4.79c-9.18-.06-18.42,1.92-27.21,4.42-11.24,3.19-22.15,7.52-32.76,12.37-11.33,5.19-22.34,11.11-32.92,17.7-10.61,6.61-20.84,13.91-30.34,22.05-8.37,7.17-16.16,15.09-22.53,24.11-.69.98-1.36,1.97-2.01,2.98-1.36,2.11-.5,5.38,1.72,6.56,2.38,1.26,5.11.54,6.56-1.72h0Z"/>
                <path class="cls-18" d="M669.43,2765.22c22.55-6.66,44.65-14.77,66.44-23.6,22.31-9.04,44.32-18.81,66.24-28.76,12.01-5.45,23.99-10.95,35.99-16.41,2.29-1.04,3.02-4.54,1.72-6.56-1.52-2.36-4.11-2.83-6.56-1.72-21.37,9.72-42.67,19.57-64.16,29.02-5.43,2.39-10.86,4.75-16.31,7.07-1.25.53-2.51,1.07-3.76,1.6.12-.05-1.33.56-.76.32s-.87.37-.76.32c-.74.31-1.48.62-2.22.93-2.73,1.14-5.47,2.28-8.21,3.4-10.91,4.47-21.89,8.76-32.96,12.79-12.29,4.48-24.71,8.64-37.25,12.34-2.4.71-4.16,3.4-3.35,5.9s3.32,4.11,5.9,3.35h0Z"/>
                <path class="cls-18" d="M982.6,2820.07c-.37-1.69-.7-3.39-1-5.09-.15-.89-.3-1.78-.43-2.67-.07-.46-.14-.92-.2-1.39-.03-.24-.06-.47-.1-.71-.12-.84.17,1.36.01.08-.54-4.25-.95-8.52-1.24-12.8-.68-10.1-.77-20.25-.37-30.37.21-5.44.57-10.87,1.08-16.28.26-2.81.57-5.61.92-8.4.08-.67.15-1.35.26-2.02-.23,1.36-.03.2.01-.07.05-.34.09-.67.14-1.01.19-1.34.39-2.68.6-4.02,1.71-10.75,4.1-21.44,7.59-31.76.93-2.76,1.95-5.5,3.06-8.19.13-.32.64-1.1-.01.01.2-.34.32-.76.48-1.12.24-.55.49-1.11.74-1.66.58-1.27,1.18-2.52,1.8-3.77,1.22-2.41,2.53-4.78,3.95-7.07.69-1.11,1.41-2.2,2.15-3.28.37-.53.74-1.05,1.12-1.57.16-.22.33-.44.49-.66.79-1.05-.44.55.08-.11,1.54-1.97,2.06-4.88,0-6.78-1.72-1.58-5.13-2.11-6.78,0-6.47,8.25-11.14,17.54-14.81,27.33s-6.45,20.85-8.36,31.56c-2.03,11.42-3.3,22.99-3.92,34.57-.55,10.4-.6,20.84-.03,31.24.47,8.72,1.32,17.48,2.99,26.06.16.82.33,1.65.51,2.47.54,2.45,3.52,4.12,5.9,3.35,2.58-.83,3.93-3.27,3.35-5.9h0Z"/>
                <path class="cls-18" d="M893.21,2612.35c-.18-.18-.35-.37-.53-.55-.22-.22-.35-.67.05.08-.21-.38-.47-.74-.68-1.13-.09-.17-.16-.35-.25-.51.46.79.13.36.04.09-.17-.49-.34-.97-.48-1.47-.58-2.02-.86-4.12-1.18-6.19-.77-4.95-1.58-9.9-2.42-14.84-1.66-9.8-3.46-19.58-5.38-29.33-1.1-5.56-2.23-11.11-3.41-16.66-.52-2.46-3.53-4.11-5.9-3.35-2.59.84-3.91,3.26-3.35,5.9,4.25,20.01,7.97,40.13,11.13,60.34.82,5.21,1.69,10.49,5.57,14.4,1.77,1.78,5.03,1.9,6.78,0s1.89-4.88,0-6.78h0Z"/>
            </g>
            <g>
                <rect class="cls-22" x="1407.59" y="1055.93" width="2956.11" height="2070.64"/>
                <rect class="cls-18" x="1541.54" y="1152.97" width="2688.2" height="1785.56"/>
                <g>
                    <rect class="cls-13" x="2423.61" y="2786.57" width="1806.12" height="132.15"/>
                    <g>
                        <g>
                            <rect class="cls-18" x="2488.17" y="2804.22" width="1670.77" height="13.76"/>
                            <rect class="cls-18" x="2488.17" y="2829.45" width="1670.77" height="13.76"/>
                        </g>
                        <g>
                            <rect class="cls-18" x="2488.17" y="2852.96" width="1670.77" height="13.76"/>
                            <rect class="cls-18" x="2488.17" y="2878.19" width="1670.77" height="13.76"/>
                        </g>
                    </g>
                </g>
                <rect class="cls-21" x="1541.54" y="2317.5" width="882.07" height="469.07"/>
                <polygon class="cls-21" points="4428.32 3464.72 1311.21 3464.72 1288.28 3404.88 4428.32 3404.88 4428.32 3464.72"/>
                <rect class="cls-22" x="2167.05" y="3310.87" width="1437.19" height="105.58" rx="10.09" ry="10.09"/>
                <polygon class="cls-22" points="3116.09 3310.87 2655.19 3310.87 2763.06 3126.57 3008.22 3126.57 3116.09 3310.87"/>
                <g>
                    <g>
                        <rect class="cls-31" x="1664.03" y="2088.84" width="751.81" height="16.32"/>
                        <rect class="cls-31" x="1664.03" y="2118.77" width="751.81" height="16.32"/>
                    </g>
                    <g>
                        <rect class="cls-31" x="1664.03" y="2146.65" width="751.81" height="16.32"/>
                        <rect class="cls-31" x="1664.03" y="2176.57" width="751.81" height="16.32"/>
                    </g>
                    <g>
                        <rect class="cls-31" x="1664.03" y="2204.46" width="751.81" height="16.32"/>
                        <rect class="cls-31" x="1664.03" y="2234.38" width="751.81" height="16.32"/>
                    </g>
                    <g>
                        <rect class="cls-31" x="1664.03" y="2262.27" width="751.81" height="16.32"/>
                        <rect class="cls-31" x="1664.03" y="2292.19" width="751.81" height="16.32"/>
                    </g>
                </g>
                <g>
                    <g>
                        <rect class="cls-31" x="1664.03" y="2804.22" width="751.81" height="16.32"/>
                        <rect class="cls-31" x="1664.03" y="2834.15" width="751.81" height="16.32"/>
                    </g>
                    <g>
                        <rect class="cls-31" x="1664.03" y="2862.03" width="751.81" height="16.32"/>
                        <rect class="cls-31" x="1664.03" y="2891.95" width="751.81" height="16.32"/>
                    </g>
                </g>
                <g>
                    <g>
                        <rect class="cls-38" x="1664.03" y="1792.6" width="751.81" height="16.32"/>
                        <rect class="cls-38" x="1664.03" y="1822.52" width="751.81" height="16.32"/>
                    </g>
                    <g>
                        <rect class="cls-38" x="1664.03" y="1850.41" width="751.81" height="16.32"/>
                        <rect class="cls-38" x="1664.03" y="1880.33" width="751.81" height="16.32"/>
                    </g>
                    <g>
                        <rect class="cls-38" x="1664.03" y="1908.22" width="751.81" height="16.32"/>
                        <rect class="cls-38" x="1664.03" y="1938.14" width="751.81" height="16.32"/>
                    </g>
                    <g>
                        <rect class="cls-38" x="1664.03" y="1966.02" width="751.81" height="16.32"/>
                        <rect class="cls-38" x="1664.03" y="1995.95" width="751.81" height="16.32"/>
                    </g>
                </g>
            </g>
            <g>
                <rect class="cls-21" x="1099.21" y="1036.54" width="228.78" height="2479.72" transform="translate(2427.21 4552.8) rotate(-180)"/>
                <rect class="cls-18" x="1169.13" y="3331.84" width="158.87" height="15.55" transform="translate(2497.13 6679.23) rotate(-180)"/>
                <rect class="cls-18" x="1169.13" y="2896.07" width="158.87" height="15.55" transform="translate(2497.13 5807.68) rotate(-180)"/>
                <rect class="cls-18" x="1248.56" y="3276.97" width="79.43" height="7.77" transform="translate(2576.56 6561.72) rotate(-180)"/>
                <rect class="cls-18" x="1248.56" y="3230.33" width="79.43" height="7.77" transform="translate(2576.56 6468.43) rotate(-180)"/>
                <rect class="cls-18" x="1248.56" y="3183.69" width="79.43" height="7.77" transform="translate(2576.56 6375.15) rotate(-180)"/>
                <rect class="cls-18" x="1248.56" y="3137.05" width="79.43" height="7.77" transform="translate(2576.56 6281.87) rotate(-180)"/>
                <rect class="cls-18" x="1248.56" y="3090.41" width="79.43" height="7.77" transform="translate(2576.56 6188.59) rotate(-180)"/>
                <rect class="cls-18" x="1248.56" y="3043.77" width="79.43" height="7.77" transform="translate(2576.56 6095.3) rotate(-180)"/>
                <rect class="cls-18" x="1248.56" y="2997.12" width="79.43" height="7.77" transform="translate(2576.56 6002.02) rotate(-180)"/>
                <rect class="cls-18" x="1248.56" y="2950.48" width="79.43" height="7.77" transform="translate(2576.56 5908.74) rotate(-180)"/>
                <rect class="cls-18" x="1169.13" y="2896.07" width="158.87" height="15.55" transform="translate(2497.13 5807.68) rotate(-180)"/>
                <rect class="cls-18" x="1169.13" y="2460.29" width="158.87" height="15.55" transform="translate(2497.13 4936.13) rotate(-180)"/>
                <rect class="cls-18" x="1248.56" y="2841.2" width="79.43" height="7.77" transform="translate(2576.56 5690.17) rotate(-180)"/>
                <rect class="cls-18" x="1248.56" y="2794.55" width="79.43" height="7.77" transform="translate(2576.56 5596.88) rotate(-180)"/>
                <rect class="cls-18" x="1248.56" y="2747.91" width="79.43" height="7.77" transform="translate(2576.56 5503.6) rotate(-180)"/>
                <rect class="cls-18" x="1248.56" y="2701.27" width="79.43" height="7.77" transform="translate(2576.56 5410.32) rotate(-180)"/>
                <rect class="cls-18" x="1248.56" y="2654.63" width="79.43" height="7.77" transform="translate(2576.56 5317.04) rotate(-180)"/>
                <rect class="cls-18" x="1248.56" y="2607.99" width="79.43" height="7.77" transform="translate(2576.56 5223.75) rotate(-180)"/>
                <rect class="cls-18" x="1248.56" y="2561.35" width="79.43" height="7.77" transform="translate(2576.56 5130.47) rotate(-180)"/>
                <rect class="cls-18" x="1248.56" y="2514.71" width="79.43" height="7.77" transform="translate(2576.56 5037.19) rotate(-180)"/>
                <rect class="cls-18" x="1169.13" y="2460.29" width="158.87" height="15.55" transform="translate(2497.13 4936.13) rotate(-180)"/>
                <rect class="cls-18" x="1169.13" y="2024.52" width="158.87" height="15.55" transform="translate(2497.13 4064.58) rotate(-180)"/>
                <rect class="cls-18" x="1248.56" y="2405.42" width="79.43" height="7.77" transform="translate(2576.56 4818.62) rotate(-180)"/>
                <rect class="cls-18" x="1248.56" y="2358.78" width="79.43" height="7.77" transform="translate(2576.56 4725.33) rotate(-180)"/>
                <rect class="cls-18" x="1248.56" y="2312.14" width="79.43" height="7.77" transform="translate(2576.56 4632.05) rotate(-180)"/>
                <rect class="cls-18" x="1248.56" y="2265.5" width="79.43" height="7.77" transform="translate(2576.56 4538.77) rotate(-180)"/>
                <rect class="cls-18" x="1248.56" y="2218.86" width="79.43" height="7.77" transform="translate(2576.56 4445.49) rotate(-180)"/>
                <rect class="cls-18" x="1248.56" y="2172.21" width="79.43" height="7.77" transform="translate(2576.56 4352.2) rotate(-180)"/>
                <rect class="cls-18" x="1248.56" y="2125.57" width="79.43" height="7.77" transform="translate(2576.56 4258.92) rotate(-180)"/>
                <rect class="cls-18" x="1248.56" y="2078.93" width="79.43" height="7.77" transform="translate(2576.56 4165.64) rotate(-180)"/>
                <rect class="cls-18" x="1169.13" y="2024.52" width="158.87" height="15.55" transform="translate(2497.13 4064.58) rotate(-180)"/>
                <rect class="cls-18" x="1169.13" y="1588.74" width="158.87" height="15.55" transform="translate(2497.13 3193.03) rotate(-180)"/>
                <rect class="cls-18" x="1248.56" y="1969.65" width="79.43" height="7.77" transform="translate(2576.56 3947.06) rotate(-180)"/>
                <rect class="cls-18" x="1248.56" y="1923" width="79.43" height="7.77" transform="translate(2576.56 3853.78) rotate(-180)"/>
                <rect class="cls-18" x="1248.56" y="1876.36" width="79.43" height="7.77" transform="translate(2576.56 3760.5) rotate(-180)"/>
                <rect class="cls-18" x="1248.56" y="1829.72" width="79.43" height="7.77" transform="translate(2576.56 3667.22) rotate(-180)"/>
                <rect class="cls-18" x="1248.56" y="1783.08" width="79.43" height="7.77" transform="translate(2576.56 3573.93) rotate(-180)"/>
                <rect class="cls-18" x="1248.56" y="1736.44" width="79.43" height="7.77" transform="translate(2576.56 3480.65) rotate(-180)"/>
                <rect class="cls-18" x="1248.56" y="1689.8" width="79.43" height="7.77" transform="translate(2576.56 3387.37) rotate(-180)"/>
                <rect class="cls-18" x="1248.56" y="1643.16" width="79.43" height="7.77" transform="translate(2576.56 3294.09) rotate(-180)"/>
                <rect class="cls-18" x="1169.13" y="1588.74" width="158.87" height="15.55" transform="translate(2497.13 3193.03) rotate(-180)"/>
                <rect class="cls-18" x="1169.13" y="1152.97" width="158.87" height="15.55" transform="translate(2497.13 2321.48) rotate(-180)"/>
                <rect class="cls-18" x="1248.56" y="1533.87" width="79.43" height="7.77" transform="translate(2576.56 3075.51) rotate(-180)"/>
                <rect class="cls-18" x="1248.56" y="1487.23" width="79.43" height="7.77" transform="translate(2576.56 2982.23) rotate(-180)"/>
                <rect class="cls-18" x="1248.56" y="1440.59" width="79.43" height="7.77" transform="translate(2576.56 2888.95) rotate(-180)"/>
                <rect class="cls-18" x="1248.56" y="1393.95" width="79.43" height="7.77" transform="translate(2576.56 2795.67) rotate(-180)"/>
                <rect class="cls-18" x="1248.56" y="1347.3" width="79.43" height="7.77" transform="translate(2576.56 2702.38) rotate(-180)"/>
                <rect class="cls-18" x="1248.56" y="1300.66" width="79.43" height="7.77" transform="translate(2576.56 2609.1) rotate(-180)"/>
                <rect class="cls-18" x="1248.56" y="1254.02" width="79.43" height="7.77" transform="translate(2576.56 2515.82) rotate(-180)"/>
                <rect class="cls-18" x="1248.56" y="1207.38" width="79.43" height="7.77" transform="translate(2576.56 2422.54) rotate(-180)"/>
            </g>
            <g>
                <rect class="cls-21" x="2639.97" y="-752.11" width="228.78" height="3195.92" transform="translate(1908.52 3600.22) rotate(-90)"/>
                <rect class="cls-18" x="1900.63" y="873.03" width="158.87" height="15.55" transform="translate(1099.26 2860.87) rotate(-90)"/>
                <rect class="cls-18" x="2336.41" y="873.03" width="158.87" height="15.55" transform="translate(1535.03 3296.65) rotate(-90)"/>
                <rect class="cls-18" x="1999.11" y="916.64" width="79.43" height="7.77" transform="translate(1118.3 2959.35) rotate(-90)"/>
                <rect class="cls-18" x="2045.75" y="916.64" width="79.43" height="7.77" transform="translate(1164.94 3005.99) rotate(-90)"/>
                <rect class="cls-18" x="2092.39" y="916.64" width="79.43" height="7.77" transform="translate(1211.58 3052.63) rotate(-90)"/>
                <rect class="cls-18" x="2139.03" y="916.64" width="79.43" height="7.77" transform="translate(1258.22 3099.27) rotate(-90)"/>
                <rect class="cls-18" x="2185.67" y="916.64" width="79.43" height="7.77" transform="translate(1304.86 3145.91) rotate(-90)"/>
                <rect class="cls-18" x="2232.31" y="916.64" width="79.43" height="7.77" transform="translate(1351.5 3192.55) rotate(-90)"/>
                <rect class="cls-18" x="2278.95" y="916.64" width="79.43" height="7.77" transform="translate(1398.15 3239.19) rotate(-90)"/>
                <rect class="cls-18" x="2325.59" y="916.64" width="79.43" height="7.77" transform="translate(1444.79 3285.84) rotate(-90)"/>
                <rect class="cls-18" x="2336.41" y="873.03" width="158.87" height="15.55" transform="translate(1535.03 3296.65) rotate(-90)"/>
                <rect class="cls-18" x="1462.98" y="873.03" width="158.87" height="15.55" transform="translate(661.6 2423.22) rotate(-90)"/>
                <rect class="cls-18" x="1561.45" y="916.64" width="79.43" height="7.77" transform="translate(680.64 2521.69) rotate(-90)"/>
                <rect class="cls-18" x="1608.09" y="916.64" width="79.43" height="7.77" transform="translate(727.29 2568.33) rotate(-90)"/>
                <rect class="cls-18" x="1654.73" y="916.64" width="79.43" height="7.77" transform="translate(773.93 2614.98) rotate(-90)"/>
                <rect class="cls-18" x="1701.38" y="916.64" width="79.43" height="7.77" transform="translate(820.57 2661.62) rotate(-90)"/>
                <rect class="cls-18" x="1748.02" y="916.64" width="79.43" height="7.77" transform="translate(867.21 2708.26) rotate(-90)"/>
                <rect class="cls-18" x="1794.66" y="916.64" width="79.43" height="7.77" transform="translate(913.85 2754.9) rotate(-90)"/>
                <rect class="cls-18" x="1841.3" y="916.64" width="79.43" height="7.77" transform="translate(960.49 2801.54) rotate(-90)"/>
                <rect class="cls-18" x="1887.94" y="916.64" width="79.43" height="7.77" transform="translate(1007.13 2848.18) rotate(-90)"/>
                <rect class="cls-18" x="1898.75" y="873.03" width="158.87" height="15.55" transform="translate(1097.38 2858.99) rotate(-90)"/>
                <rect class="cls-18" x="2772.18" y="873.03" width="158.87" height="15.55" transform="translate(1970.81 3732.42) rotate(-90)"/>
                <rect class="cls-18" x="2434.88" y="916.64" width="79.43" height="7.77" transform="translate(1554.07 3395.12) rotate(-90)"/>
                <rect class="cls-18" x="2481.52" y="916.64" width="79.43" height="7.77" transform="translate(1600.71 3441.76) rotate(-90)"/>
                <rect class="cls-18" x="2528.16" y="916.64" width="79.43" height="7.77" transform="translate(1647.36 3488.41) rotate(-90)"/>
                <rect class="cls-18" x="2574.81" y="916.64" width="79.43" height="7.77" transform="translate(1694 3535.05) rotate(-90)"/>
                <rect class="cls-18" x="2621.45" y="916.64" width="79.43" height="7.77" transform="translate(1740.64 3581.69) rotate(-90)"/>
                <rect class="cls-18" x="2668.09" y="916.64" width="79.43" height="7.77" transform="translate(1787.28 3628.33) rotate(-90)"/>
                <rect class="cls-18" x="2714.73" y="916.64" width="79.43" height="7.77" transform="translate(1833.92 3674.97) rotate(-90)"/>
                <rect class="cls-18" x="2761.37" y="916.64" width="79.43" height="7.77" transform="translate(1880.56 3721.61) rotate(-90)"/>
                <rect class="cls-18" x="2772.18" y="873.03" width="158.87" height="15.55" transform="translate(1970.81 3732.42) rotate(-90)"/>
                <rect class="cls-18" x="3207.96" y="873.03" width="158.87" height="15.55" transform="translate(2406.58 4168.2) rotate(-90)"/>
                <rect class="cls-18" x="2870.66" y="916.64" width="79.43" height="7.77" transform="translate(1989.85 3830.9) rotate(-90)"/>
                <rect class="cls-18" x="2917.3" y="916.64" width="79.43" height="7.77" transform="translate(2036.49 3877.54) rotate(-90)"/>
                <rect class="cls-18" x="2963.94" y="916.64" width="79.43" height="7.77" transform="translate(2083.13 3924.18) rotate(-90)"/>
                <rect class="cls-18" x="3010.58" y="916.64" width="79.43" height="7.77" transform="translate(2129.77 3970.82) rotate(-90)"/>
                <rect class="cls-18" x="3057.22" y="916.64" width="79.43" height="7.77" transform="translate(2176.41 4017.46) rotate(-90)"/>
                <rect class="cls-18" x="3103.86" y="916.64" width="79.43" height="7.77" transform="translate(2223.06 4064.1) rotate(-90)"/>
                <rect class="cls-18" x="3150.5" y="916.64" width="79.43" height="7.77" transform="translate(2269.7 4110.75) rotate(-90)"/>
                <rect class="cls-18" x="3197.15" y="916.64" width="79.43" height="7.77" transform="translate(2316.34 4157.39) rotate(-90)"/>
                <rect class="cls-18" x="3207.96" y="873.03" width="158.87" height="15.55" transform="translate(2406.58 4168.2) rotate(-90)"/>
                <rect class="cls-18" x="3643.73" y="873.03" width="158.87" height="15.55" transform="translate(2842.36 4603.97) rotate(-90)"/>
                <rect class="cls-18" x="3306.43" y="916.64" width="79.43" height="7.77" transform="translate(2425.62 4266.67) rotate(-90)"/>
                <rect class="cls-18" x="3353.07" y="916.64" width="79.43" height="7.77" transform="translate(2472.27 4313.31) rotate(-90)"/>
                <rect class="cls-18" x="3399.71" y="916.64" width="79.43" height="7.77" transform="translate(2518.91 4359.96) rotate(-90)"/>
                <rect class="cls-18" x="3446.36" y="916.64" width="79.43" height="7.77" transform="translate(2565.55 4406.6) rotate(-90)"/>
                <rect class="cls-18" x="3493" y="916.64" width="79.43" height="7.77" transform="translate(2612.19 4453.24) rotate(-90)"/>
                <rect class="cls-18" x="3539.64" y="916.64" width="79.43" height="7.77" transform="translate(2658.83 4499.88) rotate(-90)"/>
                <rect class="cls-18" x="3586.28" y="916.64" width="79.43" height="7.77" transform="translate(2705.47 4546.52) rotate(-90)"/>
                <rect class="cls-18" x="3632.92" y="916.64" width="79.43" height="7.77" transform="translate(2752.11 4593.16) rotate(-90)"/>
                <rect class="cls-18" x="3643.73" y="873.03" width="158.87" height="15.55" transform="translate(2842.36 4603.97) rotate(-90)"/>
                <rect class="cls-18" x="4079.51" y="873.03" width="158.87" height="15.55" transform="translate(3278.13 5039.75) rotate(-90)"/>
                <rect class="cls-18" x="3742.21" y="916.64" width="79.43" height="7.77" transform="translate(2861.4 4702.45) rotate(-90)"/>
                <rect class="cls-18" x="3788.85" y="916.64" width="79.43" height="7.77" transform="translate(2908.04 4749.09) rotate(-90)"/>
                <rect class="cls-18" x="3835.49" y="916.64" width="79.43" height="7.77" transform="translate(2954.68 4795.73) rotate(-90)"/>
                <rect class="cls-18" x="3882.13" y="916.64" width="79.43" height="7.77" transform="translate(3001.32 4842.37) rotate(-90)"/>
                <rect class="cls-18" x="3928.77" y="916.64" width="79.43" height="7.77" transform="translate(3047.96 4889.01) rotate(-90)"/>
                <rect class="cls-18" x="3975.41" y="916.64" width="79.43" height="7.77" transform="translate(3094.61 4935.66) rotate(-90)"/>
                <rect class="cls-18" x="4022.06" y="916.64" width="79.43" height="7.77" transform="translate(3141.25 4982.3) rotate(-90)"/>
                <rect class="cls-18" x="4068.7" y="916.64" width="79.43" height="7.77" transform="translate(3187.89 5028.94) rotate(-90)"/>
            </g>
            <g>
                <ellipse class="cls-30" cx="1628.96" cy="3656.68" rx="317.75" ry="43.32"/>
                <path class="cls-1" d="M1790.38,3615.34l-97.53,10.22s-1.86,6.5-26.01-104.96c-24.15-111.46-144.59-643.68-144.59-643.68h-19.81s8.36,581.45,8.36,581.45c0,0,26.94,39.01,3.72,62.23,19.51,33.44,16.72,71.52,7.43,76.16-9.29,4.64-86.38,0-104.96,33.44-11.15-91.95-83.59-790.43-65.02-853.59l313.01-27.86s52.01,622.31,72.45,658.54c20.43,36.22,37.15,93.81,34.37,125.39-2.79,31.58,18.58,82.67,18.58,82.67Z"/>
                <path class="cls-23" d="M1883.26,3668.28h-183.29s-8.67-7.43,0-40.87c8.67-33.44,89.72-22.29,89.72-22.29,0,0,35.36,16.72,43.1,16.72,7.74,0,57.28-13,50.47,46.44Z"/>
                <path class="cls-23" d="M1549.35,3672.93s-111.46,1.16-114.71,0c-3.25-1.16-20.2-18.11-10.22-31.81,9.98-13.7,16.72-23.22,16.72-23.22,0,0,16.86-18.81,44.19-16.72,27.33,2.09,39.64,16.02,35.92,25.08,0,0,39.01,11.38,32.04,35.06-6.97,23.69-3.95,11.61-3.95,11.61Z"/>
                <path class="cls-29" d="M1647.34,2766.7s-117.65,53.25-213.01,33.44l-78.02-19.81,16.1-515.19s92.88-75.54,195.67-42.11c76.78,32.2,79.26,28.48,79.26,28.48v515.19Z"/>
                <path class="cls-24" d="M1480.15,2836.06s18.58-474.32,13.62-506.52c-4.95-32.2-40.87-68.11-40.87-68.11l-26.01-35.91s-105.27,3.72-102.79,70.59c2.48,66.88,13.62,489.18,13.62,489.18,0,0,1.24,34.52,50,41.49,48.76,6.97,92.42,9.29,92.42,9.29Z"/>
                <g>
                    <path class="cls-35" d="M1908.82,2421.24s12.34-23.88,6.94-41.8c-5.4-17.92-.5-46.95,7.65-47.01,8.16-.06,8.18,2.74,7.85,21.66-.34,18.92,15.94,18.67,27.22-3.75,4.89-9.73,76.72-25.12,71.59,31.32-6.53,71.85-99.41,56.2-99.41,56.2,0,0-18.34,8.47-21.84-16.63Z"/>
                    <path class="cls-24" d="M1909.44,2401.13s31.17,54.31,52.58,50.46c-66.27,76.44-130.71,172.61-173.38,141.75-42.67-30.86-119.43-113.89-119.43-113.89,0,0-73.96-273.59-35.36-233.03,38.6,40.56,157.86,232.83,166.62,240.09,8.76,7.27,108.21-73.5,108.97-85.39Z"/>
                </g>
                <path class="cls-24" d="M1623.19,2811.29l-46.44-466.89s-3.25-126.01-45.51-134.83c57.59,13,111.92,26.47,126.32,68.73,14.4,42.26,23.22,384.38,19.51,518.13-37.15,14.86-53.87,14.86-53.87,14.86Z"/>
                <path class="cls-17" d="M1570.71,2281.08s9.29-27.4,27.86-27.86c-18.11-30.19-50.62-86.85-140.72-64.09-39.01,13-56.19,72.45-20.43,110.99,21.36-13,42.73-7.9,42.73-7.9,0,0-45.51-36.22-40.87-53.41,4.64-17.18,39.01-42.73,102.64-24.15,19.51,8.82,31.58,70.13,28.79,66.41Z"/>
                <g>
                    <rect class="cls-26" x="1591.35" y="2380.8" width="454.1" height="326.95" transform="translate(3636.81 5088.56) rotate(-180)"/>
                    <rect class="cls-7" x="1617.28" y="2399.47" width="402.25" height="289.62" transform="translate(3636.81 5088.56) rotate(-180)"/>
                    <g>
                        <circle class="cls-34" cx="1818.41" cy="2544.28" r="95.71"/>
                        <path class="cls-18" d="M1786.22,2482.27v125.36s80-61.86,79.18-62.68c-.82-.82-79.18-62.68-79.18-62.68Z"/>
                    </g>
                </g>
                <path class="cls-35" d="M1958.48,2350.34c8.69-6.56,78.62-24.91,71.59,31.32-5.13,41.04-133.39,15.39-71.59-31.32Z"/>
                <g>
                    <path class="cls-25" d="M1675,2642.12s12.62,14,18.8,10.31c6.18-3.69,26.2-18.62,60.96,11.28,4.55,9.36-13.06,13.99-26.02,1.62,2.49,7.99-.6,38.81,27.51,39.96l34.43,2.96c1.76,2.04-14.14,7.6-14.14,7.6,0,0,3.95,4.12-7.99,10.3-11.94,6.18-46.89,16.72-60.2.4-13.3-16.32-25.57-33.07-30.46-36.34-4.89-3.27-14.59-9.37-14.59-9.37,0,0-3.08-28.85,11.7-38.72Z"/>
                    <path class="cls-28" d="M1330.65,2268.04s27.19-7.76,90.02,54.69c28.01,58.93,36.26,229.95,36.26,229.95,0,0,249.33,80.61,251.17,82.74-23.08-3.47-53.59,26.73-30.98,71.46-42.57-32.34-271.67-63.89-302.12-112.52-30.44-48.63-60.42-312.31-44.35-326.33Z"/>
                </g>
                <path class="cls-11" d="M1526.59,2237.43s-13.47,19.04-39.48,6.5c-26.01-12.54-30.19-19.04-30.19-19.04,0,0,10.68-70.59,12.54-97.53,1.86-26.94,59.91-5.57,59.91-5.57,0,0-5.11,103.1-2.79,115.64Z"/>
                <path class="cls-11" d="M1572.57,2032.62s5.11,17.18,4.18,78.49-17.65,72.45-79.41,62.23c-61.77-10.22-52.48-66.41-45.51-111.92,6.97-45.51,80.34-85.92,120.75-28.79Z"/>
                <path d="M1599.84,2090.6s-5.02,19.88-22.98,1.61c-17.96-18.27-18.2-42.88-12.32-48.14,0,0-62.85,64.26-122.91,46.52-60.06-17.73,19.06-83.29,39.63-93.59,20.57-10.3,141.18-25.53,118.58,93.59"/>
            </g>
            <g>
                <line class="cls-5" x1="2423.61" y1="2938.52" x2="2423.61" y2="2918"/>
                <line class="cls-6" x1="2423.61" y1="2877.43" x2="2423.61" y2="1193.77"/>
                <line class="cls-5" x1="2423.61" y1="1173.49" x2="2423.61" y2="1152.97"/>
            </g>
            <g>
                <line class="cls-5" x1="1542.41" y1="1351.19" x2="1562.93" y2="1351.19"/>
                <line class="cls-10" x1="1603.64" y1="1351.19" x2="4188.86" y2="1351.19"/>
                <line class="cls-5" x1="4209.22" y1="1351.19" x2="4229.74" y2="1351.19"/>
            </g>
            <rect class="cls-21" x="1541.54" y="1185.1" width="2688.2" height="127"/>
            <rect class="cls-13" x="2418.35" y="1854.3" width="1811.39" height="469.07"/>
            <rect class="cls-34" x="3036.52" y="1234.76" width="166.34" height="29.91"/>
            <rect class="cls-34" x="3238.21" y="1234.76" width="166.34" height="29.91"/>
            <rect class="cls-34" x="3439.9" y="1234.76" width="166.34" height="29.91"/>
            <rect class="cls-34" x="3641.58" y="1234.76" width="166.34" height="29.91"/>
            <rect class="cls-21" x="3847.87" y="1198.37" width="354.23" height="1303.41" rx="7.92" ry="7.92"/>
            <rect class="cls-34" x="3890.84" y="1234.76" width="268.1" height="26.23"/>
            <rect class="cls-18" x="3949.67" y="1317.08" width="209.28" height="26.23"/>
            <rect class="cls-18" x="3949.67" y="1399.41" width="209.28" height="26.23"/>
            <rect class="cls-18" x="3940.22" y="1481.74" width="218.72" height="26.23"/>
            <rect class="cls-18" x="3940.22" y="1564.07" width="218.72" height="26.23"/>
            <rect class="cls-18" x="3940.22" y="1646.39" width="218.72" height="26.23"/>
            <rect class="cls-18" x="3940.22" y="1728.72" width="218.72" height="26.23"/>
            <rect class="cls-18" x="3940.22" y="1811.05" width="218.72" height="26.23"/>
            <rect class="cls-18" x="3940.22" y="1893.38" width="218.72" height="26.23"/>
            <rect class="cls-18" x="3940.22" y="1975.7" width="218.72" height="26.23"/>
            <rect class="cls-18" x="3940.22" y="2058.03" width="218.72" height="26.23"/>
            <rect class="cls-18" x="3940.22" y="2140.36" width="218.72" height="26.23"/>
            <rect class="cls-18" x="3890.84" y="2222.69" width="268.1" height="26.23"/>
            <rect class="cls-18" x="3890.84" y="2305.02" width="268.1" height="26.23"/>
            <g>
                <rect class="cls-18" x="1689.26" y="1273.23" width="12.62" height="22.81"/>
                <rect class="cls-18" x="1705.62" y="1254.4" width="12.62" height="41.64"/>
                <rect class="cls-18" x="1888.53" y="1240.41" width="12.62" height="55.63"/>
                <rect class="cls-18" x="1905.72" y="1225.94" width="12.57" height="70.1"/>
                <g>
                    <path class="cls-18" d="M1722.14,1254.4h11.14v32.19h15.94v9.29h-27.07v-41.48Z"/>
                    <path class="cls-18" d="M1791.32,1274.7c0,13.35-8,21.85-20.8,21.85s-19.94-9.66-19.94-21.17c0-12.12,7.88-21.72,20.61-21.72s20.12,9.91,20.12,21.04ZM1762.34,1275.13c0,7.82,3.38,12.62,8.74,12.62s8.49-5.23,8.49-12.74-3.2-12.56-8.62-12.56-8.61,5.05-8.61,12.68Z"/>
                    <path class="cls-18" d="M1833.18,1293.96c-3.14,1.05-8.92,2.34-14.34,2.34-8.12,0-13.66-2.03-17.41-5.6-3.88-3.69-5.91-9.04-5.91-15.01.06-14.4,10.83-21.72,24.24-21.72,5.6,0,9.85.99,12,2.03l-2.21,8.86c-2.34-.98-5.17-1.72-9.85-1.72-6.83,0-12.49,3.57-12.49,12,0,7.76,4.99,12.25,11.75,12.25,1.54,0,2.95-.12,3.51-.37v-7.13h-5.54v-8.62h16.24v22.71Z"/>
                    <path class="cls-18" d="M1879.17,1274.7c0,13.35-8,21.85-20.8,21.85s-19.94-9.66-19.94-21.17c0-12.12,7.88-21.72,20.61-21.72s20.12,9.91,20.12,21.04ZM1850.19,1275.13c0,7.82,3.38,12.62,8.74,12.62s8.49-5.23,8.49-12.74-3.2-12.56-8.62-12.56-8.61,5.05-8.61,12.68Z"/>
                </g>
            </g>
            <g>
                <path class="cls-16" d="M4150.42,3320.75s-19.53,198.1-99.51,222.28c37.2,12.09,133-42.78,141.37-59.52,8.37-16.74,8.37-50.76,8.37-50.76,0,0-31.62-13.42-7.44-99.91-34.41-2.79-42.78-12.09-42.78-12.09Z"/>
                <ellipse class="cls-30" cx="4272.86" cy="3561.44" rx="306.85" ry="38.04"/>
                <path class="cls-27" d="M4055.56,3532.81s-59.52,37.2-6.51,39.99c53.01,2.79,123.2-21.56,130.64-54.11,7.44-32.55,7.93,43.88,7.93,43.88l10.35.44s32.67-111.04,10.4-130.25c-11.34-9.78-17.96-6.91-17.96-6.91,0,0-86.49,152.53-134.86,106.96Z"/>
                <path class="cls-27" d="M4252.73,2595.32s-146.33,706.84-109.13,753.96c64.48,14.88,193.45,2.48,245.53-644.83,9.92,260.41-7.44,597.71,49.6,634.91,62,24.8,89.28-76.88,64.48-406.74,4.96-109.13,64.48-186.01,32.24-290.17-32.24-104.17-282.73-47.12-282.73-47.12Z"/>
                <path class="cls-16" d="M4443.39,3311.45s-11.16,170.2-14.88,183.22c80.51,2.71,79.36,0,79.36,0,0,0-28.21-138.58-22.63-212.98l-41.85,29.76Z"/>
                <path class="cls-27" d="M4413.33,3548.55s-14.64,24.47,51.45,24.47c47.79,0,52.13-24.95,52.13-24.95,0,0-3.59-49.96-22.28-85.51-19.51-37.1-25.2-36.71-34.5-30.2-9.3,6.51-44.01,85.5-46.8,116.19Z"/>
                <path class="cls-37" d="M4435.02,3526.29l18.81,47.01s-2.06-63.75-5.78-62.82c-3.72.93-13.02,15.81-13.02,15.81Z"/>
                <path class="cls-37" d="M4473.15,3573.02s0-58.83,10.23-62.54c11.16,19.54,9.3,17.68,9.3,24.19s-19.53,38.35-19.53,38.35Z"/>
                <g>
                    <path class="cls-16" d="M4302.02,2129.37s-57.66-56.73-7.44-149.74c50.22-93,146.02-25.11,148.81,30.69,3.04,60.83,13.15,120.6-70.68,136.72-48.36,9.3-70.68-17.67-70.68-17.67Z"/>
                    <polygon class="cls-16" points="4348.83 2132.78 4348.83 2218.34 4430.06 2191.06 4401.53 2113.55 4348.83 2132.78"/>
                </g>
                <path class="cls-16" d="M4075.63,1937.53s-25.45,120.67,26.34,101.19c41.45,96.33,56.29,151.5,71.98,191.83,15.68,40.33,202.05,64.04,255.79,56.74,53.74-7.3,60.27-23.93,57.1-42.49,0,0,1.09-24.23-63.54-32.12-64.62-7.9-185.36,7.9-194.51-6.15-9.15-14.05-91.4-162.83-93.75-188.04-7.21-77.58-49.84-81.09-59.42-80.95Z"/>
                <path class="cls-20" d="M4325.89,2212.14s137.65-70.68,152.53-33.48c14.88,37.2,0,47.12,0,47.12,0,0,31-6.2,48.36,4.96,17.36,11.16-38.44,164.93-29.76,234.37,8.68,69.44,57.04,151.29,38.44,177.33-18.6,26.04-266.61,21.08-281.49,4.96-14.88-16.12-4.96-111.61,17.36-158.73,22.32-47.12,5.97-181.29,9.81-214.65,3.83-33.36,44.76-61.88,44.76-61.88Z"/>
                <path class="cls-31" d="M4344.82,2465.52c32.92-112.87,23.78-170.54,21.7-178.63-5.76-22.39-18.97-47.37-34.1-44.98-9.04,1.43-46.66,54.06-51.08,63.09-3.34,6.81.25,22.24.54,29.73.41,10.8.81,21.61,1.09,32.42.96,38.16,5.22,85.93-11.64,121.52-22.32,47.12-32.24,142.61-17.36,158.73,6.79,7.36,62.12,12.39,122.04,13.21.12-.06,8.88.16,9,.09,6.55-3.53-64.13-94.28-40.19-195.18Z"/>
                <g>
                    <rect class="cls-26" x="3443.5" y="1885.56" width="599.16" height="548.48" transform="translate(497.48 -693.52) rotate(11.33)"/>
                    <g>
                        <g>
                            <path class="cls-18" d="M3759.59,2051.87c-33.65-6.74-66.15,13.19-76.48,45.06l56.41,11.31-14.49,72.29c2.72.92,5.37,1.96,8.26,2.54,36.23,7.26,71.48-16.22,78.74-52.45,7.26-36.23-16.22-71.49-52.45-78.75Z"/>
                            <polygon class="cls-34" points="3683.11 2096.92 3616.75 2083.62 3592.15 2206.39 3714.92 2231 3725.03 2180.52 3739.52 2108.23 3683.11 2096.92"/>
                        </g>
                        <polygon class="cls-34" points="3857.77 2294.04 3735 2269.43 3820.99 2158.96 3857.77 2294.04"/>
                    </g>
                </g>
                <path class="cls-16" d="M3879.77,2468s8.18,74.91,106.12,49.56c104.85-1.88,171.48,5.13,214.74,5.88,43.27.76,135.8-162.75,149.39-215.25,13.6-52.5.68-64.84-17.7-68.94,0,0-22.01-10.18-53.79,46.64-31.78,56.82-62.89,174.54-79.36,177.69-16.47,3.15-147,9.42-175.7,12.33-18.93-1.21-46.07-63.57-56.18-55.02-10.11,8.55,11.54,30.04,11.06,40.43-.48,10.39-51.54,28.5-64.83,13.4-13.29-15.11-30.25-15.64-33.75-6.73Z"/>
                <path class="cls-22" d="M4265.81,1964.61s-2.87,85.85,72.3,93.25c21.62.93,13.1-29.25,19.28-33.51,7.72-5.32,30.03,5.3,24.17,29.87-5.86,24.57,39.02,56.61,61.38,29.03,22.36-27.58,29.59-136.61-41.23-160.14-70.81-23.53-136.01,6-135.91,41.51Z"/>
                <path class="cls-22" d="M4436.25,2100.12s-14.75-1.28-4.03-43.64c10.72-42.36,132.82-16.27,122.47,52.9-6,19.58-37.68,66.24-59.92,27.3-17.56-30.75-45.15,11.14-58.52-36.56Z"/>
            </g>
            <rect class="cls-2" x="2540.33" y="1808.92" width="599.82" height="510.14"/>
            <rect class="cls-13" x="1664.03" y="1460.51" width="759.58" height="224.31"/>
            <rect class="cls-13" x="2534.47" y="1460.51" width="208.93" height="224.31"/>
            <rect class="cls-13" x="2794.1" y="1460.51" width="208.93" height="224.31"/>
            <rect class="cls-13" x="3053.73" y="1460.51" width="208.93" height="224.31"/>
            <rect class="cls-13" x="3313.36" y="1460.51" width="208.93" height="224.31"/>
            <rect class="cls-13" x="3573" y="1460.51" width="208.93" height="224.31"/>
            <g>
                <g>
                    <path class="cls-36" d="M2100.1,589.15c-2.64-3.39-47.22-120.26-18.88-207.34,28.35-87.07,75.84-60.57,75.84-60.57,0,0,8.81-42.74,72.03-6.98,63.22,35.77,63.16,119.99,54.28,163.03-8.88,43.04-36.95,155.02-36.95,155.02l-146.32-43.16Z"/>
                    <ellipse class="cls-19" cx="2181.41" cy="436.75" rx="93.96" ry="72.82" transform="translate(1250.73 2457.42) rotate(-76.59)"/>
                    <ellipse class="cls-19" cx="2107.85" cy="431.28" rx="20.47" ry="15.77" transform="translate(1199.55 2381.68) rotate(-76.59)"/>
                    <path class="cls-36" d="M2105.34,395.5s15.27,27.1,12.92,42.75c-2.35,15.65,6.2,1.48,6.2,1.48,0,0,5.19-53.61,33.38-66.21,28.19-12.6-14.4-36.55-14.89-36.67s-50.67,21.99-37.61,58.65Z"/>
                    <path class="cls-36" d="M2171.16,332.13s-.27,19.94,15.99,25.54c16.26,5.6,65.21,44.79,33.43,108.66,0,0-1.45,7.55,5.55,1.32,7-6.23,49.37-103.75-1.14-131.66-50.51-27.91-53.83-3.86-53.83-3.86Z"/>
                </g>
                <g>
                    <path class="cls-16" d="M2229.43,1421.92s-63.13,177.46-80.3,201.75c3.95,46.24,35.56,46.93,35.56,46.93,0,0,66.11-199.53,88.97-231.51,22.86-31.98-44.23-17.17-44.23-17.17Z"/>
                    <path class="cls-15" d="M2154.89,1620.37s-8.3-16.25-23.81,1.64c-15.51,17.89-24.66,34.97-20.55,47.34,4.11,12.37,83.56,88.96,107,88.96s5.95-34.97-5.52-48.04c-11.47-13.07-8.15-48.07-6.63-59.23,1.52-11.16-25.4,4.08-50.49-30.67Z"/>
                </g>
                <g>
                    <path class="cls-16" d="M2114.42,1419.27s-56.99,179.53-73.32,204.39c5.54,46.07,37.15,45.68,37.15,45.68,0,0,59.21-201.69,80.96-234.43,21.75-32.75-44.79-15.64-44.79-15.64Z"/>
                    <path class="cls-15" d="M2046.75,1620.17s-8.85-15.95-23.74,2.46c-14.89,18.41-27.19,23.55-21.35,41.56,5.85,18.01,99.55,91.69,112.44,91.69s4.74-35.15-7.17-47.82c-11.91-12.67-9.8-47.76-8.66-58.97,1.14-11.21-25.24,4.95-51.52-28.92Z"/>
                </g>
                <path class="cls-19" d="M2195.63,573.1s-4.26,47.43,30.51,203.63c13.17,59.15,11.93,83.91,37.45,107.13,15.7,14.28,240.09,38.28,270.38,36.11,30.29-2.17,31.6-22.42,27.16-31.85-5.7-12.11-61.1-17.92-77.58-11.39-17.58,6.97-176.28-30.35-179.72-35.36-3.44-5.01,4.37-143.85-16.5-198.59-21.69-56.89-60.09-77.46-91.7-69.68Z"/>
                <path class="cls-33" d="M2393.86,1093.23c-12.75-85.1-133.79-246.05-133.79-246.05l-120.49,5.56h0c-34.68-8.7-46.83-18.24-46.83-18.24,0,0-129.45,231.73,36.7,286.64-84.84,146.65-71.43,420.34-71.43,420.34l62.26,20.78s141.58-352.22,141.53-435.17c27.69,10.3-4.66,154.18-32.88,239.12-28.21,84.94-60.14,190.22-58.61,185.63,3.45-10.37,67.11,10.42,67.11,10.42,0,0,208.09-309.38,156.43-469.01Z"/>
                <path class="cls-32" d="M2128.43,850.53c-30.74-7.09-27.42-.79-27.42-.79,0,0-36.75,44.66-43,110.51,23.76-18.07,69.3-59.02,74.85-110.54l-4.44.82Z"/>
                <path class="cls-32" d="M2268.14,1007.69l-7.75-2.93s-41.81-65.26-40.49-141.83l-27.38-1.73c-15.32,62.56,104.6,155.77,68.41,260.27,41.4-16.54,7.21-113.76,7.21-113.76Z"/>
                <path class="cls-19" d="M2037.16,568.8s84.26-31.5,188.12,6.51c27.76,69,14.24,91.35,14.24,91.35,0,0-107.66-4.3-109.67-4.43-2.01-.13-92.69-93.43-92.69-93.43Z"/>
                <path class="cls-17" d="M2045.8,567.31s112.44,103.96,183.34,67.43c11.14-6.02-8.69-62.58-8.69-62.58l11.75,3.6s114.65,164.62,50.79,238.58c-21.16,26.23-22.93,32.84-22.93,32.84,0,0-139.59,27.4-164.52-3.73-25.54-42.6-72.25-112.14-72.25-112.14,0,0-25.7-103.84-14.37-134.06,11.33-30.22,36.86-29.94,36.86-29.94Z"/>
                <g>
                    <polygon class="cls-36" points="2570.22 895.34 2246.06 874.8 2172.57 1058.95 2496.73 1079.49 2570.22 895.34"/>
                    <rect class="cls-36" x="2108.33" y="1065.88" width="388.6" height="13.4" transform="translate(72.43 -143.45) rotate(3.63)"/>
                </g>
                <path class="cls-19" d="M2024.06,581.4s-48.46,32.57-81.25,189.19c-32.79,156.62-21.31,145.25-10.35,163.42,10.95,18.18,127.06,138.51,147.14,161.3,20.07,22.79,67.96,31.2,78.18,29.16,10.22-2.04,18.32-34.48-34.37-51.94,0,0-15.65-7.72-4.09-9.67,11.56-1.96,33.18-24.8,9.9-18.2-23.28,6.59-40.49,12.9-56.69,3.13-16.19-9.77-99.26-142.13-99.55-148.2-.29-6.07,81.31-153.15,92.38-210.68,11.5-59.79-10.32-97.49-41.29-107.52Z"/>
                <path class="cls-19" d="M2102.72,566.5s28.96-60.31,25.27-90.65c40.42,22.55,56.2,38.36,56.2,38.36,0,0-28.51,42.55-8.23,72.39,20.28,29.84-24.13,9.85-24.13,9.85l-49.11-29.95Z"/>
            </g>
            <g>
                <g>
                    <path class="cls-26" d="M3370.97,1679.72v-15.61l12.88-11.31c18.89-16.32,28.48-26.05,28.62-35.5,0-6.72-4.44-11.58-13.88-11.58-7.73,0-14.74,3.86-19.89,7.58l-7.02-18.46c7.16-5.29,18.89-9.73,32.06-9.73,21.61,0,34.5,11.74,34.5,30.06,0,14.88-10.59,26.91-21.62,35.93l-9.16,7.16v.28h32.35v21.19h-68.84Z"/>
                    <path class="cls-26" d="M3524.73,1633.05c0,27.48-11.58,48.24-36.64,48.24-26.62,0-36.49-23.47-36.49-47.95s10.44-48.24,36.64-48.24,36.49,24.2,36.49,47.95ZM3477.36,1633.21c-.14,20.17,4.15,28.76,11.03,28.76s10.59-8.73,10.59-28.76-3.87-28.64-10.73-28.64-10.89,8.59-10.89,28.64Z"/>
                </g>
                <path class="cls-26" d="M3556.07,1561.17c0,14.74-9.97,22.65-20.7,22.65-11.49,0-20.27-8.45-20.27-21.35,0-12.03,7.7-22.22,20.92-22.22s20.05,9.43,20.05,20.91ZM3529.4,1562.04c0,6.72,2.06,11.38,6.39,11.38,3.9,0,5.96-3.9,5.96-11.38,0-6.5-1.62-11.38-6.18-11.38s-6.17,4.99-6.17,11.38ZM3536.88,1613.08l40.1-72.61h9.97l-39.99,72.61h-10.08ZM3608.95,1590.43c0,14.63-9.97,22.54-20.7,22.54-11.49,0-20.27-8.45-20.27-21.35,0-11.92,7.7-22.11,20.92-22.11s20.05,9.43,20.05,20.91ZM3582.29,1591.29c0,6.72,2.06,11.27,6.39,11.27,3.9,0,5.96-3.9,5.96-11.27,0-6.61-1.62-11.38-6.18-11.38s-6.17,4.98-6.17,11.38Z"/>
            </g>
            <g>
                <path class="cls-17" d="M1755.41,1570.78c0-16.54.01-33.08-.03-49.63,0-1.21.64-2.84-.71-3.55-1.64-.86-2.47.91-3.43,1.76-10.65,9.44-21.28,18.89-31.83,28.45-2.31,2.09-4.63,3.29-7.87,3.04-3.82-.29-7.69.05-11.53-.1-2.44-.1-3.41.64-3.39,3.24.11,11.03.1,22.06,0,33.08-.02,2.51.8,3.56,3.33,3.29,1.14-.12,2.33.15,3.46-.04,9.14-1.55,15.96,1.99,22.33,8.51,8.05,8.23,17.01,15.58,25.61,23.27.9.81,1.71,2.3,3.16,1.73,1.55-.61.87-2.27.88-3.44.05-16.54.04-33.08.04-49.63h-.02Z"/>
                <path class="cls-17" d="M1845.27,1568.86c-.57-23.6-7.26-45.1-22.05-63.77-4.52-5.71-7.48-6.76-10.8-4.04-3.43,2.82-3.09,7.1.96,12.13,24.62,30.51,26.42,74.46,4.33,106.86-1.8,2.63-3.99,4.99-5.88,7.57-2.65,3.62-2.34,8.28.76,10.52,3.84,2.77,6.59.68,9.07-2.32,16.08-19.42,23.27-41.97,23.6-66.94Z"/>
                <path class="cls-17" d="M1821.29,1562.87c-.01-10.7-5.1-26.59-16.22-40.46-2.63-3.28-5.46-5.31-9.45-2.43-3.11,2.25-3.42,6.91-.42,10.4,18.78,21.83,18.75,56.39.09,78.07-3.22,3.74-2.77,8.56.62,10.79,4.22,2.77,6.85.09,9.39-2.99,10.19-12.39,15.92-28.95,16-53.39Z"/>
                <path class="cls-17" d="M1797.53,1570.9c0-11.17-2.74-20.35-8.66-28.49-3.71-5.1-6.71-6.13-9.95-3.67-3.42,2.59-3.59,6.71-.18,11.23,6.15,8.15,8.09,17.14,5.86,27.06-1.07,4.76-3.39,8.89-6.41,12.68-2.53,3.18-2.73,6.51-.08,9.68,2.45,2.93,6.23,2.64,9.07-.74,7.01-8.33,10.15-18.09,10.35-27.75Z"/>
            </g>
            <g>
                <g>
                    <path class="cls-34" d="M4921.06,2630.62c13.08-10.46,27.32-18.46,42.16-24.12l-14.83-48.33c-20.76,7.53-40.67,18.47-58.87,33.02-45.39,36.3-71.47,87.78-76.85,141.38l50.06,7.02c3.62-41.27,23.42-81.05,58.33-108.97Z"/>
                    <path class="cls-24" d="M5221.61,2799.04l-49.71-9.12c-7.84,32.81-26.22,63.35-54.61,86.05-67.75,54.19-166.61,43.19-220.79-24.56-26.27-32.84-37.17-72.99-33.77-111.82l-50.06-7.02c-5.23,52.12,9.09,106.24,44.39,150.38,71.61,89.53,202.23,104.06,291.76,32.46,38.27-30.61,62.79-72.01,72.78-116.37Z"/>
                    <path class="cls-16" d="M5171.9,2789.92l49.71,9.12c13.38-59.41.67-124.13-40.32-175.39l-39.43,31.54c31.49,39.37,40.92,89.23,30.04,134.74Z"/>
                    <path class="cls-14" d="M5141.86,2655.18l39.43-31.54c-57.05-71.33-151.55-94.99-232.89-65.48l14.83,48.33c62.09-23.68,134.9-5.99,178.63,48.68Z"/>
                </g>
                <path class="cls-18" d="M4866.47,2702.94c-73.16,26.83-65.83-30.48-65.83-63.42s-98.76-141.4-185.27-31.71c-86.5,109.74,107.23,244.83,107.23,244.83,44.74,36.94,142.63,14.06,181.67-23.19,46.64-44.58,35.35-153.35-37.81-126.52ZM4878.68,2788.21c-13.44,0-24.32-10.87-24.32-24.32s10.88-24.32,24.32-24.32,24.27,10.88,24.27,24.32-10.88,24.32-24.27,24.32Z"/>
                <g>
                    <circle class="cls-12" cx="4643.36" cy="2673.68" r="16.46"/>
                    <circle class="cls-34" cx="4668.05" cy="2634.82" r="16.46"/>
                    <circle class="cls-14" cx="4656.16" cy="2721.22" r="16.46"/>
                    <circle class="cls-39" cx="4715.59" cy="2614.94" r="16.46"/>
                </g>
                <circle class="cls-18" cx="4715.59" cy="2788.21" r="16.46"/>
                <g>
                    <rect class="cls-4" x="4558.95" y="2802.61" width="731.23" height="196.32" transform="translate(9849.13 5801.54) rotate(-180)"/>
                    <rect class="cls-3" x="4676.49" y="2404.56" width="731.23" height="65.03" transform="translate(7122.45 7636.53) rotate(-137.6)"/>
                    <rect class="cls-4" x="4558.95" y="3243.96" width="731.23" height="196.32" transform="translate(9849.13 6684.23) rotate(-180)"/>
                    <g>
                        <rect class="cls-9" x="4558.95" y="2998.93" width="112.83" height="245.03" transform="translate(9230.74 6242.89) rotate(-180)"/>
                        <rect class="cls-9" x="4713.55" y="2998.93" width="112.83" height="245.03" transform="translate(9539.94 6242.89) rotate(-180)"/>
                        <rect class="cls-9" x="4868.15" y="2998.93" width="112.83" height="245.03" transform="translate(9849.13 6242.89) rotate(-180)"/>
                        <rect class="cls-9" x="5022.75" y="2998.93" width="112.83" height="245.03" transform="translate(10158.33 6242.89) rotate(-180)"/>
                        <rect class="cls-9" x="5177.35" y="2998.93" width="112.83" height="245.03" transform="translate(10467.53 6242.89) rotate(-180)"/>
                    </g>
                    <circle class="cls-8" cx="5351.74" cy="2753.32" r="48.29"/>
                </g>
                <circle class="cls-24" cx="4690" cy="3515.81" r="51.09"/>
                <circle class="cls-24" cx="5150.02" cy="3515.81" r="51.09"/>
            </g>
            <circle class="cls-41" cx="4684.51" cy="2758.71" r="16.46"/>
        </g>
    </g>
</svg>