<?xml version="1.0" encoding="UTF-8"?> <svg xmlns="http://www.w3.org/2000/svg" width="437" height="378" viewBox="0 0 437 378" fill="none"><rect width="437" height="378" fill="white"></rect><circle cx="209.5" cy="223.5" r="151.5" fill="#F3CE47"></circle><path d="M152 135.5H431.662C433.595 135.5 435.162 137.067 435.162 139V328.767C435.162 330.7 433.595 332.267 431.662 332.267H166.979H152C150.067 332.267 148.5 330.7 148.5 328.767V305.055V139C148.5 137.067 150.067 135.5 152 135.5Z" fill="#FDFAEC" stroke="#2E2E2E" stroke-width="3"></path><path fill-rule="evenodd" clip-rule="evenodd" d="M248.876 243.073C254.419 250.116 257.668 259.037 257.519 268.697C257.367 278.501 253.74 287.437 247.828 294.349L217.067 268.394L248.876 243.073Z" fill="#BA5AE2" stroke="#2E2E2E" stroke-width="3"></path><path fill-rule="evenodd" clip-rule="evenodd" d="M242.081 236.275C244.607 238.265 246.889 240.548 248.876 243.073L217.067 268.394" fill="#F3CE47"></path><path d="M242.081 236.275C244.607 238.265 246.889 240.548 248.876 243.073L217.067 268.394" stroke="#2E2E2E" stroke-width="3"></path><path fill-rule="evenodd" clip-rule="evenodd" d="M217.072 268.072L217.697 227.625C226.912 227.767 235.36 230.98 242.081 236.275L217.072 268.072Z" fill="#F3623F" stroke="#2E2E2E" stroke-width="3"></path><path fill-rule="evenodd" clip-rule="evenodd" d="M247.828 294.349C240.271 303.184 228.981 308.712 216.447 308.519C194.109 308.173 176.28 289.785 176.625 267.447C176.97 245.109 195.358 227.28 217.697 227.625L217.072 268.072L247.828 294.349Z" fill="#FDFAEC" stroke="#2E2E2E" stroke-width="3"></path><mask id="path-8-inside-1_79_3" fill="white"><rect x="161.837" y="170" width="96" height="45" rx="2"></rect></mask><rect x="161.837" y="170" width="96" height="45" rx="2" stroke="#2E2E2E" stroke-width="6" stroke-linejoin="round" mask="url(#path-8-inside-1_79_3)"></rect><circle cx="166.261" cy="149.512" r="2.89989" fill="#2E2E2E"></circle><circle cx="174.435" cy="149.512" r="2.89989" fill="#2E2E2E"></circle><circle cx="182.609" cy="149.512" r="2.89989" fill="#2E2E2E"></circle><path d="M5.16309 44.5H284.825C286.758 44.5 288.325 46.067 288.325 48V237.767C288.325 239.7 286.758 241.267 284.825 241.267H20.1424H5.16308C3.23009 241.267 1.66309 239.7 1.66309 237.767V214.055V48C1.66309 46.067 3.23009 44.5 5.16309 44.5Z" fill="#FDFAEC" stroke="#2E2E2E" stroke-width="3"></path><mask id="path-13-inside-2_79_3" fill="white"><rect x="15" y="72" width="252" height="90" rx="2"></rect></mask><rect x="15" y="72" width="252" height="90" rx="2" fill="#F3623F" stroke="#2E2E2E" stroke-width="6" stroke-linejoin="round" mask="url(#path-13-inside-2_79_3)"></rect><circle cx="19.4241" cy="58.5116" r="2.89989" fill="#2E2E2E"></circle><circle cx="27.5981" cy="58.5116" r="2.89989" fill="#2E2E2E"></circle><circle cx="35.7722" cy="58.5116" r="2.89989" fill="#2E2E2E"></circle><rect x="285.5" y="262.5" width="24" height="45" fill="#F3623F" stroke="#2E2E2E" stroke-width="3" stroke-linejoin="round"></rect><rect x="320.487" y="209.718" width="24.0326" height="97.4961" fill="#BA5AE2" stroke="#2E2E2E" stroke-width="3" stroke-linejoin="round"></rect><rect x="390.467" y="209.718" width="24.0326" height="97.4961" fill="#F3623F" stroke="#2E2E2E" stroke-width="3" stroke-linejoin="round"></rect><rect x="355.474" y="170.5" width="24.0326" height="136.714" fill="#F3CE47" stroke="#2E2E2E" stroke-width="3" stroke-linejoin="round"></rect><path d="M269.5 34C269.5 38.1398 268.16 43.0539 265.927 48.3297C263.702 53.5852 260.639 59.0932 257.298 64.3909C250.616 74.9859 242.898 84.6247 238.789 89.5447C237.846 90.6735 236.179 90.6682 235.243 89.533C231.142 84.5596 223.417 74.8016 216.724 64.1604C213.377 58.8395 210.308 53.3267 208.079 48.1019C205.84 42.8541 204.5 38.0121 204.5 34C204.5 16.0507 219.051 1.5 237 1.5C254.949 1.5 269.5 16.0507 269.5 34Z" fill="#BA5AE2" stroke="#2E2E2E" stroke-width="3"></path><circle cx="236.553" cy="31.7632" r="12.3684" fill="white" stroke="#2E2E2E" stroke-width="3"></circle><mask id="path-23-inside-3_79_3" fill="white"><rect x="17" y="177" width="139" height="66" rx="2"></rect></mask><rect x="17" y="177" width="139" height="66" rx="2" stroke="#2E2E2E" stroke-width="6" mask="url(#path-23-inside-3_79_3)"></rect><path d="M172 193.5L255.5 193.5" stroke="#2E2E2E" stroke-width="3" stroke-linecap="round"></path><path d="M172 207L247 207" stroke="#2E2E2E" stroke-width="3" stroke-linecap="round"></path><path d="M172 220L255.5 220" stroke="#2E2E2E" stroke-width="3" stroke-linecap="round"></path><path d="M44.4932 262.492L44.1442 261.842L43.4157 261.721L11.4495 256.447C10.974 256.368 10.8738 255.729 11.3025 255.508L69.4996 225.627C69.8613 225.441 70.2816 225.742 70.2227 226.144L60.7434 290.873C60.6735 291.35 60.0359 291.462 59.8081 291.037L44.4932 262.492Z" fill="#BA5AE2" stroke="#2E2E2E" stroke-width="3"></path><path d="M77.8742 214.683L91.5339 193.156" stroke="#2E2E2E" stroke-width="3" stroke-linecap="round"></path><path d="M82.0862 228.171L99.262 228.791" stroke="#2E2E2E" stroke-width="3" stroke-linecap="round"></path><path d="M57.3994 201.201L63.4644 214.546" stroke="#2E2E2E" stroke-width="3" stroke-linecap="round"></path><path d="M81.7027 218.972L97.4783 212.099" stroke="#2E2E2E" stroke-width="3" stroke-linecap="round"></path><path d="M70.8466 213.061L71.7869 192.628" stroke="#2E2E2E" stroke-width="3" stroke-linecap="round"></path></svg> 