<?xml version="1.0" encoding="UTF-8"?>
<svg id="Layer_1" data-name="Layer 1" xmlns="http://www.w3.org/2000/svg" viewBox="0 0 500 500">
    <defs>
        <style>
            .cls-1 {
            fill: #95cbd9;
            }

            .cls-2 {
            fill: #d82336;
            }

            .cls-3 {
            fill: #231f20;
            }

            .cls-4 {
            fill: #e09b33;
            }

            .cls-5 {
            fill: #fff;
            }

            .cls-6 {
            fill: #fee100;
            }

            .cls-7 {
            fill: #d2d3d4;
            }

            .cls-8 {
            fill: #835757;
            }

            .cls-9 {
            fill: #e9d3d1;
            }

            .cls-10 {
            fill: #ee2447;
            }

            .cls-11 {
            fill: #ea0a8c;
            }

            .cls-12 {
            fill: #faad1b;
            }

            .cls-13 {
            fill: #1f2b5d;
            }

            .cls-14 {
            fill: #939598;
            }

            .cls-15 {
            fill: #25a8e0;
            }

            .cls-16 {
            fill: #474342;
            }

            .cls-17 {
            fill: #665a45;
            }

            .cls-18 {
            fill: #e6e7e8;
            }

            .cls-19 {
            fill: #bedfb1;
            }

            .cls-20 {
            fill: #59595b;
            }

            .cls-21 {
            fill: #f15a29;
            }

            .cls-22 {
            fill: #5b523d;
            }

            .cls-23 {
            fill: #6d6e71;
            }

            .cls-24 {
            fill: #424142;
            }

            .cls-25 {
            fill: #faaf41;
            }

            .cls-26 {
            fill: #929497;
            }

            .cls-27 {
            fill: #f69320;
            }

            .cls-28 {
            fill: #f9a01e;
            }

            .cls-29 {
            fill: #3c853f;
            }

            .cls-30 {
            fill: #c13327;
            }

            .cls-31 {
            fill: #51352d;
            }

            .cls-32 {
            fill: #ffd54b;
            }

            .cls-33 {
            fill: #4689c8;
            }
        </style>
    </defs>
    <g id="BACKGROUND">
        <rect class="cls-19" width="500" height="500"/>
    </g>
    <g id="OBJECTS">
        <g>
            <rect class="cls-14" x="144.83" y="419.69" width="199.97" height="8.77"/>
            <g>
                <path class="cls-21" d="M104.94,258.5c0,3.3-2.68,5.98-5.98,5.98s-5.98-2.68-5.98-5.98,2.68-5.98,5.98-5.98c3.3,0,5.98,2.68,5.98,5.98Z"/>
                <path class="cls-21" d="M91.31,268.73c0,2.35-1.9,4.25-4.25,4.25s-4.25-1.9-4.25-4.25,1.9-4.25,4.25-4.25,4.25,1.9,4.25,4.25Z"/>
                <path class="cls-21" d="M104.94,275.73c0,2.35-1.9,4.25-4.25,4.25s-4.25-1.9-4.25-4.25,1.9-4.25,4.25-4.25,4.25,1.9,4.25,4.25Z"/>
                <polygon class="cls-21" points="100.07 277.02 83.68 268.99 98.1 258.19 99.82 260.49 89.15 268.48 101.33 274.44 100.07 277.02"/>
            </g>
            <g>
                <path class="cls-23" d="M315.82,223.7c0,2.71,2.2,4.91,4.9,4.91s4.91-2.2,4.91-4.91-2.2-4.9-4.91-4.9-4.9,2.2-4.9,4.9Z"/>
                <path class="cls-23" d="M327,232.09c0,1.92,1.56,3.48,3.48,3.48s3.48-1.56,3.48-3.48-1.56-3.48-3.48-3.48-3.48,1.56-3.48,3.48Z"/>
                <path class="cls-23" d="M315.82,237.83c0,1.92,1.56,3.48,3.48,3.48s3.48-1.56,3.48-3.48-1.56-3.48-3.48-3.48c-1.92,0-3.48,1.56-3.48,3.48Z"/>
                <polygon class="cls-23" points="319.82 238.89 333.26 232.3 321.43 223.45 320.02 225.33 328.77 231.88 318.78 236.77 319.82 238.89"/>
            </g>
            <g>
                <rect class="cls-28" x="144.91" y="206.22" width="42.13" height="28.49" transform="translate(-40.8 37.71) rotate(-11.55)"/>
                <polygon class="cls-4" points="164.78 214.58 189.43 229.99 148.16 238.43 164.78 214.58"/>
                <polygon class="cls-32" points="167.14 226.13 142.49 210.73 183.77 202.29 167.14 226.13"/>
            </g>
            <g>
                <rect class="cls-18" x="224.05" y="374.39" width="41.52" height="52.51"/>
                <rect class="cls-20" x="219.13" y="419.69" width="51.36" height="8.77"/>
                <path class="cls-5" d="M137.36,376.57v17.92c0,5.06,4.1,9.16,9.16,9.16h196.59c5.06,0,9.16-4.1,9.16-9.16v-17.91h-214.91Z"/>
                <rect class="cls-7" x="137.36" y="369.99" width="214.91" height="18.09"/>
                <rect class="cls-3" x="137.36" y="260.23" width="214.91" height="124.89"/>
                <rect class="cls-1" x="147.13" y="269.31" width="195.37" height="105.59"/>
                <path class="cls-16" d="M249.33,393.74c0,2.49-2.01,4.5-4.5,4.5s-4.5-2.02-4.5-4.5,2.02-4.5,4.5-4.5,4.5,2.02,4.5,4.5Z"/>
            </g>
            <g>
                <path class="cls-23" d="M169.21,159.38v-5.28h-4.98c-.45-3.12-1.67-5.99-3.48-8.4l3.52-3.52-3.74-3.73-3.52,3.52c-2.41-1.81-5.28-3.03-8.4-3.48v-4.98h-5.28v4.98c-3.12.45-5.99,1.67-8.4,3.48l-3.52-3.52-3.74,3.73,3.52,3.52c-1.81,2.41-3.03,5.28-3.48,8.4h-4.98v5.28h4.98c.45,3.12,1.67,5.99,3.48,8.4l-3.52,3.52,3.73,3.74,3.52-3.52c2.41,1.81,5.28,3.03,8.4,3.48v4.98h5.28v-4.98c3.12-.45,5.99-1.67,8.4-3.48l3.52,3.52,3.74-3.74-3.52-3.52c1.81-2.41,3.03-5.28,3.48-8.4h4.98ZM145.98,170.32c-7.5,0-13.59-6.08-13.59-13.59s6.08-13.58,13.59-13.58,13.58,6.08,13.58,13.58-6.08,13.59-13.58,13.59Z"/>
                <path class="cls-23" d="M145.98,148.84c-4.36,0-7.9,3.54-7.9,7.9s3.54,7.9,7.9,7.9,7.9-3.54,7.9-7.9-3.54-7.9-7.9-7.9ZM145.98,160.74c-2.21,0-4.01-1.79-4.01-4.01s1.79-4.01,4.01-4.01,4.01,1.79,4.01,4.01c0,2.21-1.79,4.01-4.01,4.01Z"/>
            </g>
            <g>
                <path class="cls-21" d="M424.58,177.39v-2.54h-2.39c-.21-1.5-.8-2.88-1.67-4.04l1.69-1.69-1.79-1.79-1.69,1.69c-1.16-.87-2.54-1.46-4.04-1.67v-2.39h-2.54v2.39c-1.5.22-2.88.8-4.04,1.67l-1.69-1.69-1.79,1.79,1.69,1.69c-.87,1.16-1.46,2.54-1.67,4.04h-2.39v2.54h2.39c.21,1.5.8,2.88,1.67,4.04l-1.69,1.69,1.79,1.79,1.69-1.69c1.16.87,2.54,1.46,4.04,1.67v2.39h2.54v-2.39c1.5-.22,2.88-.8,4.04-1.67l1.69,1.69,1.79-1.79-1.69-1.69c.87-1.16,1.46-2.54,1.67-4.04h2.39ZM413.42,182.65c-3.61,0-6.53-2.92-6.53-6.53s2.92-6.53,6.53-6.53,6.53,2.92,6.53,6.53c0,3.61-2.92,6.53-6.53,6.53Z"/>
                <path class="cls-21" d="M413.42,172.32c-2.1,0-3.8,1.7-3.8,3.79s1.7,3.79,3.8,3.79,3.8-1.7,3.8-3.79-1.7-3.79-3.8-3.79ZM413.42,178.04c-1.07,0-1.93-.86-1.93-1.93s.86-1.93,1.93-1.93,1.92.86,1.92,1.93-.86,1.93-1.92,1.93Z"/>
            </g>
            <g>
                <path class="cls-21" d="M305.48,116.98h-14c-3.67,0-6.65,2.98-6.65,6.64v7.86c0,3.67,2.98,6.65,6.65,6.65h1.93l5.06,5.07,5.07-5.07h1.93c3.67,0,6.64-2.98,6.64-6.65v-7.86c0-3.67-2.97-6.64-6.64-6.64Z"/>
                <path class="cls-23" d="M328.48,123.17h-14c-3.67,0-6.64,2.97-6.64,6.64v7.86c0,3.67,2.98,6.64,6.64,6.64h2.88l3.93,3.93,3.94-3.93h3.25c3.67,0,6.65-2.98,6.65-6.64v-7.86c0-3.67-2.98-6.64-6.65-6.64Z"/>
                <g>
                    <path class="cls-5" d="M293.26,127.56c0,.89-.72,1.61-1.61,1.61s-1.61-.72-1.61-1.61.72-1.61,1.61-1.61,1.61.72,1.61,1.61Z"/>
                    <path class="cls-5" d="M299.9,127.56c0,.89-.72,1.61-1.61,1.61s-1.61-.72-1.61-1.61.72-1.61,1.61-1.61,1.61.72,1.61,1.61Z"/>
                    <path class="cls-5" d="M306.55,127.56c0,.89-.72,1.61-1.61,1.61s-1.61-.72-1.61-1.61.72-1.61,1.61-1.61,1.61.72,1.61,1.61Z"/>
                </g>
                <g>
                    <path class="cls-5" d="M316.26,133.75c0,.89-.72,1.61-1.61,1.61s-1.61-.72-1.61-1.61.72-1.61,1.61-1.61,1.61.72,1.61,1.61Z"/>
                    <path class="cls-5" d="M322.9,133.75c0,.89-.72,1.61-1.61,1.61s-1.61-.72-1.61-1.61.72-1.61,1.61-1.61c.89,0,1.61.72,1.61,1.61Z"/>
                    <path class="cls-5" d="M329.55,133.75c0,.89-.72,1.61-1.61,1.61s-1.61-.72-1.61-1.61.72-1.61,1.61-1.61c.89,0,1.61.72,1.61,1.61Z"/>
                </g>
            </g>
            <rect class="cls-5" x="186.59" y="280.42" width="125.92" height="87.92"/>
            <g>
                <rect class="cls-15" x="212.99" y="290.84" width="2.75" height="61.36"/>
                <rect class="cls-21" x="223.91" y="313.9" width="2.75" height="38.3"/>
                <rect class="cls-15" x="236.81" y="298.93" width="2.75" height="53.27"/>
                <rect class="cls-15" x="258.79" y="298.01" width="2.75" height="54.18"/>
                <rect class="cls-21" x="247.72" y="324.11" width="2.75" height="28.08"/>
                <rect class="cls-21" x="271.53" y="324.11" width="2.75" height="28.08"/>
                <rect class="cls-21" x="201.93" y="324.11" width="2.75" height="28.08"/>
            </g>
            <g>
                <g>
                    <polygon class="cls-23" points="245.76 184.22 197.46 184.22 240.93 253.46 245.76 253.46 249.75 253.46 249.75 184.22 245.76 184.22"/>
                    <polygon class="cls-20" points="251.8 184.22 249.75 184.22 249.75 253.46 251.8 253.46 256.63 253.46 300.09 184.22 251.8 184.22"/>
                </g>
                <rect class="cls-21" x="192.53" y="171.54" width="111.7" height="14.45"/>
                <rect class="cls-21" x="238.23" y="248.85" width="21.09" height="26.63"/>
                <rect class="cls-17" x="235.58" y="268.17" width="26.39" height="7.31"/>
            </g>
            <g>
                <rect class="cls-5" x="363.66" y="290.73" width="83.57" height="94.48"/>
                <rect class="cls-21" x="368.35" y="296.05" width="41.01" height="24.55"/>
                <polygon class="cls-5" points="386.22 304.64 394.51 308.33 386.22 312.02 386.22 304.64"/>
                <rect class="cls-7" x="368.35" y="324.81" width="41.01" height="2.78"/>
                <rect class="cls-22" x="368.27" y="322.03" width="41.01" height="2.78"/>
                <rect class="cls-15" x="368.56" y="334.72" width="21.7" height="13.8"/>
                <rect class="cls-15" x="418.95" y="334.72" width="21.71" height="13.8"/>
                <rect class="cls-24" x="367.11" y="370.81" width="76.85" height="11.55"/>
                <g>
                    <rect class="cls-26" x="370.58" y="352.53" width="17.66" height="1"/>
                    <rect class="cls-26" x="370.58" y="355.1" width="17.66" height="1"/>
                    <rect class="cls-26" x="370.58" y="357.67" width="17.66" height="1"/>
                    <rect class="cls-26" x="370.58" y="360.24" width="17.66" height="1"/>
                    <rect class="cls-26" x="370.58" y="362.8" width="17.66" height="1"/>
                </g>
                <g>
                    <rect class="cls-26" x="420.97" y="352.53" width="17.66" height="1"/>
                    <rect class="cls-26" x="420.97" y="355.1" width="17.66" height="1"/>
                    <rect class="cls-26" x="420.97" y="357.67" width="17.66" height="1"/>
                    <rect class="cls-26" x="420.97" y="360.24" width="17.66" height="1"/>
                    <rect class="cls-26" x="420.97" y="362.8" width="17.66" height="1"/>
                </g>
                <rect class="cls-24" x="363.66" y="286.09" width="83.57" height="4.64"/>
                <g>
                    <rect class="cls-5" x="366.01" y="341.45" width="26.34" height=".75" transform="translate(-124.5 258.58) rotate(-32.65)"/>
                    <rect class="cls-5" x="378.78" y="328.67" width=".75" height="26.34" transform="translate(-113.26 476.52) rotate(-57.34)"/>
                </g>
                <g>
                    <rect class="cls-11" x="393.73" y="334.72" width="21.71" height="13.8"/>
                    <g>
                        <rect class="cls-26" x="395.76" y="352.53" width="17.66" height="1"/>
                        <rect class="cls-26" x="395.76" y="355.1" width="17.66" height="1"/>
                        <rect class="cls-26" x="395.76" y="357.67" width="17.66" height="1"/>
                        <rect class="cls-26" x="395.76" y="360.24" width="17.66" height="1"/>
                        <rect class="cls-26" x="395.76" y="362.8" width="17.66" height="1"/>
                    </g>
                    <g>
                        <rect class="cls-5" x="391.41" y="341.46" width="26.34" height=".75" transform="translate(-120.45 271.98) rotate(-32.62)"/>
                        <rect class="cls-5" x="404.18" y="328.66" width=".75" height="26.34" transform="translate(-101.56 497.91) rotate(-57.34)"/>
                    </g>
                </g>
                <g>
                    <rect class="cls-5" x="416.64" y="341.44" width="26.34" height=".75" transform="translate(-116.49 285.89) rotate(-32.65)"/>
                    <rect class="cls-5" x="429.4" y="328.67" width=".75" height="26.34" transform="translate(-89.96 519.14) rotate(-57.34)"/>
                </g>
                <g>
                    <rect class="cls-26" x="412.99" y="296.77" width="28.51" height=".86"/>
                    <rect class="cls-26" x="412.99" y="299.26" width="28.51" height=".86"/>
                    <rect class="cls-26" x="412.99" y="301.75" width="28.51" height=".86"/>
                    <rect class="cls-26" x="412.99" y="304.24" width="28.51" height=".86"/>
                    <rect class="cls-26" x="412.99" y="306.73" width="28.51" height=".86"/>
                    <rect class="cls-26" x="412.99" y="309.22" width="28.51" height=".86"/>
                    <rect class="cls-26" x="412.99" y="311.71" width="28.51" height=".86"/>
                    <rect class="cls-26" x="412.99" y="314.2" width="28.51" height=".86"/>
                    <rect class="cls-26" x="412.99" y="316.7" width="28.51" height=".86"/>
                    <rect class="cls-26" x="412.99" y="319.19" width="28.51" height=".86"/>
                    <rect class="cls-26" x="412.99" y="321.68" width="28.51" height=".86"/>
                    <rect class="cls-26" x="412.99" y="324.17" width="28.51" height=".86"/>
                </g>
                <path class="cls-25" d="M367.61,288.32c0,.62-.53,1.12-1.18,1.12s-1.18-.5-1.18-1.12.53-1.12,1.18-1.12c.65,0,1.18.5,1.18,1.12Z"/>
                <path class="cls-21" d="M370.72,288.41c0,.62-.53,1.12-1.18,1.12s-1.18-.5-1.18-1.12.53-1.12,1.18-1.12,1.18.5,1.18,1.12Z"/>
            </g>
            <g>
                <rect class="cls-26" x="285.94" y="339.87" width="19.66" height="1.11"/>
                <rect class="cls-26" x="285.94" y="342.73" width="19.66" height="1.11"/>
                <rect class="cls-26" x="285.94" y="345.59" width="19.66" height="1.11"/>
                <rect class="cls-26" x="285.94" y="348.45" width="19.66" height="1.11"/>
                <rect class="cls-26" x="285.94" y="351.31" width="19.66" height="1.11"/>
            </g>
            <g>
                <rect class="cls-26" x="285.94" y="325.56" width="19.66" height="1.11"/>
                <rect class="cls-26" x="285.94" y="328.42" width="19.66" height="1.11"/>
                <rect class="cls-26" x="285.94" y="331.28" width="19.66" height="1.11"/>
                <rect class="cls-26" x="285.94" y="334.14" width="19.66" height="1.11"/>
                <rect class="cls-26" x="285.94" y="337" width="19.66" height="1.11"/>
            </g>
            <g>
                <path class="cls-15" d="M296.92,298.98l-1.52,7.53-5.99-4.81c-1.06,1.32-1.69,2.99-1.69,4.81,0,4.24,3.44,7.68,7.68,7.68s7.68-3.44,7.68-7.68c0-3.72-2.65-6.82-6.16-7.53Z"/>
                <path class="cls-21" d="M296.92,298.98c-.49-.1-1-.15-1.52-.15-2.42,0-4.58,1.12-5.99,2.88l5.99,4.81,1.52-7.53Z"/>
            </g>
            <g>
                <path class="cls-12" d="M201,276.04c0,6.9-5.6,12.49-12.5,12.49s-12.49-5.6-12.49-12.49,5.59-12.5,12.49-12.5,12.5,5.6,12.5,12.5Z"/>
                <path class="cls-6" d="M198.41,276.04c0,5.47-4.43,9.9-9.9,9.9s-9.9-4.43-9.9-9.9,4.43-9.9,9.9-9.9,9.9,4.43,9.9,9.9Z"/>
                <path class="cls-3" d="M188.26,282.77v-1.24c-.71-.01-1.45-.23-1.88-.54l.29-.82c.44.3,1.08.53,1.77.53.87,0,1.46-.5,1.46-1.2s-.48-1.09-1.39-1.46c-1.25-.49-2.02-1.05-2.02-2.12s.72-1.79,1.85-1.98v-1.24h.76v1.19c.74.02,1.24.22,1.6.43l-.31.81c-.26-.15-.76-.42-1.55-.42-.94,0-1.3.57-1.3,1.05,0,.64.45.96,1.52,1.4,1.26.52,1.9,1.15,1.9,2.24,0,.97-.68,1.88-1.94,2.09v1.27h-.77Z"/>
            </g>
            <g>
                <path class="cls-12" d="M297.74,260.23c0,5.54-4.49,10.03-10.03,10.03s-10.03-4.49-10.03-10.03,4.49-10.03,10.03-10.03c5.54,0,10.03,4.49,10.03,10.03Z"/>
                <path class="cls-6" d="M295.66,260.23c0,4.39-3.56,7.95-7.95,7.95s-7.95-3.56-7.95-7.95,3.56-7.95,7.95-7.95,7.95,3.56,7.95,7.95Z"/>
                <path class="cls-3" d="M287.51,265.62v-.99c-.57-.01-1.16-.19-1.51-.43l.24-.66c.35.24.87.42,1.42.42.7,0,1.17-.4,1.17-.96s-.38-.88-1.11-1.17c-1-.39-1.62-.85-1.62-1.7s.58-1.44,1.49-1.58v-.99h.61v.95c.59.02.99.18,1.28.35l-.25.65c-.21-.12-.61-.33-1.24-.33-.76,0-1.04.45-1.04.85,0,.51.36.77,1.22,1.12,1.01.41,1.52.92,1.52,1.8,0,.78-.54,1.51-1.55,1.67v1.02h-.62Z"/>
            </g>
            <g>
                <path class="cls-12" d="M339.61,305.51c0,5.54-4.49,10.02-10.03,10.02s-10.03-4.49-10.03-10.02,4.49-10.03,10.03-10.03c5.54,0,10.03,4.49,10.03,10.03Z"/>
                <path class="cls-6" d="M337.53,305.51c0,4.39-3.56,7.95-7.95,7.95s-7.95-3.56-7.95-7.95,3.56-7.95,7.95-7.95,7.95,3.56,7.95,7.95Z"/>
                <path class="cls-3" d="M329.38,310.9v-.99c-.57-.01-1.16-.19-1.51-.43l.24-.66c.35.24.87.42,1.42.42.7,0,1.17-.4,1.17-.96s-.39-.88-1.11-1.17c-1-.39-1.62-.85-1.62-1.7s.58-1.44,1.49-1.58v-.99h.61v.95c.59.02.99.18,1.28.35l-.25.65c-.21-.12-.61-.33-1.24-.33-.76,0-1.04.45-1.04.85,0,.51.36.77,1.22,1.12,1.01.41,1.52.92,1.52,1.8,0,.78-.54,1.51-1.55,1.67v1.02h-.62Z"/>
            </g>
            <g>
                <path class="cls-12" d="M396.89,129.16c0,5.54-4.49,10.03-10.03,10.03s-10.03-4.49-10.03-10.03,4.49-10.03,10.03-10.03,10.03,4.49,10.03,10.03Z"/>
                <path class="cls-6" d="M394.81,129.16c0,4.39-3.56,7.95-7.95,7.95s-7.95-3.56-7.95-7.95,3.56-7.95,7.95-7.95c4.39,0,7.95,3.56,7.95,7.95Z"/>
                <path class="cls-3" d="M386.66,134.56v-.99c-.57,0-1.16-.19-1.51-.43l.24-.66c.35.24.87.42,1.42.42.7,0,1.17-.4,1.17-.96s-.39-.88-1.11-1.17c-1-.39-1.62-.85-1.62-1.7s.58-1.44,1.49-1.58v-.99h.61v.96c.59.02.99.18,1.28.35l-.25.65c-.21-.12-.61-.34-1.24-.34-.76,0-1.04.45-1.04.85,0,.51.36.77,1.22,1.12,1.01.41,1.52.93,1.52,1.8,0,.78-.54,1.51-1.55,1.67v1.02h-.62Z"/>
            </g>
            <g>
                <path class="cls-12" d="M98.2,151.86c0,5.54-4.49,10.03-10.03,10.03s-10.03-4.49-10.03-10.03,4.49-10.03,10.03-10.03,10.03,4.49,10.03,10.03Z"/>
                <path class="cls-6" d="M96.12,151.86c0,4.39-3.56,7.95-7.95,7.95s-7.95-3.56-7.95-7.95,3.56-7.95,7.95-7.95,7.95,3.56,7.95,7.95Z"/>
                <path class="cls-3" d="M87.97,157.26v-.99c-.57,0-1.16-.19-1.51-.43l.24-.66c.35.24.87.42,1.42.42.7,0,1.17-.4,1.17-.96s-.38-.88-1.11-1.17c-1-.39-1.62-.85-1.62-1.7s.58-1.44,1.49-1.58v-.99h.61v.96c.59.02.99.18,1.28.35l-.25.65c-.21-.12-.61-.33-1.24-.33-.76,0-1.04.45-1.04.85,0,.51.36.77,1.22,1.12,1.01.41,1.53.93,1.53,1.8,0,.78-.54,1.51-1.56,1.67v1.02h-.62Z"/>
            </g>
            <g>
                <path class="cls-12" d="M176.01,315.54c0,5.54-4.49,10.03-10.03,10.03s-10.03-4.49-10.03-10.03,4.49-10.03,10.03-10.03,10.03,4.49,10.03,10.03Z"/>
                <path class="cls-6" d="M173.93,315.54c0,4.39-3.56,7.95-7.95,7.95s-7.95-3.56-7.95-7.95,3.56-7.95,7.95-7.95,7.95,3.56,7.95,7.95Z"/>
                <path class="cls-3" d="M165.79,320.93v-.99c-.57-.01-1.16-.19-1.51-.43l.24-.66c.35.24.87.42,1.42.42.7,0,1.17-.4,1.17-.96s-.38-.88-1.11-1.17c-1-.39-1.62-.85-1.62-1.7s.58-1.44,1.49-1.58v-.99h.61v.95c.59.02.99.18,1.28.35l-.25.65c-.21-.12-.61-.33-1.24-.33-.76,0-1.04.45-1.04.85,0,.51.36.77,1.22,1.12,1.01.41,1.53.92,1.53,1.8,0,.78-.54,1.51-1.55,1.67v1.02h-.62Z"/>
            </g>
            <g>
                <path class="cls-3" d="M65.8,299.91c-11.98,6.38-16.53,21.27-10.14,33.26,6.38,11.98,21.27,16.52,33.26,10.14,11.98-6.38,16.53-21.27,10.14-33.26-6.38-11.99-21.27-16.53-33.26-10.14Z"/>
                <path class="cls-1" d="M86.81,339.36c-9.8,5.22-21.98,1.51-27.2-8.3-5.22-9.8-1.51-21.98,8.3-27.2,9.8-5.22,21.98-1.51,27.2,8.3,5.22,9.8,1.5,21.98-8.3,27.2Z"/>
                <path class="cls-15" d="M83.01,302.31c2.13,1.67,3.95,3.8,5.31,6.35,5.22,9.8,1.5,21.98-8.3,27.2-4.83,2.57-10.24,2.97-15.1,1.55,6.07,4.78,14.64,5.81,21.89,1.95,9.8-5.22,13.52-17.4,8.3-27.2-2.65-4.97-7.09-8.37-12.1-9.84Z"/>
                <rect class="cls-3" x="88.63" y="339.68" width="3.92" height="13.47" transform="translate(-152.3 83.33) rotate(-28.06)"/>
                <rect class="cls-6" x="96.37" y="347.45" width="12.49" height="43.17" transform="translate(-161.4 91.53) rotate(-28.03)"/>
                <path class="cls-5" d="M70.95,315.47c1.42,2.66.41,5.98-2.25,7.39-2.66,1.42-5.98.41-7.4-2.26s-.41-5.98,2.26-7.4c2.66-1.42,5.98-.41,7.4,2.26Z"/>
                <rect class="cls-27" x="105.77" y="385.1" width="12.5" height="3.17" transform="translate(-168.6 98.02) rotate(-28.03)"/>
            </g>
            <g>
                <rect class="cls-5" x="204.39" y="97.68" width="49.59" height="60.61"/>
                <g>
                    <rect class="cls-17" x="211.54" y="128.88" width="35.66" height="1.75"/>
                    <rect class="cls-17" x="211.54" y="133.37" width="35.66" height="1.75"/>
                    <rect class="cls-17" x="211.54" y="137.86" width="35.66" height="1.75"/>
                    <rect class="cls-17" x="211.54" y="142.34" width="35.66" height="1.75"/>
                    <rect class="cls-17" x="211.54" y="146.83" width="35.66" height="1.75"/>
                </g>
                <g>
                    <rect class="cls-17" x="211.54" y="106.43" width="35.66" height="1.75"/>
                    <rect class="cls-17" x="211.54" y="110.92" width="35.66" height="1.75"/>
                    <rect class="cls-17" x="211.54" y="115.4" width="35.66" height="1.75"/>
                    <rect class="cls-17" x="211.54" y="119.89" width="35.66" height="1.75"/>
                    <rect class="cls-17" x="211.54" y="124.38" width="35.66" height="1.75"/>
                </g>
                <g>
                    <path class="cls-10" d="M215.98,99.86c0,4.59-3.72,8.32-8.32,8.32s-8.32-3.72-8.32-8.32,3.72-8.32,8.32-8.32,8.32,3.72,8.32,8.32Z"/>
                    <g>
                        <path class="cls-5" d="M207.66,94.88c-.73,0-1.32.59-1.32,1.32v7.33c0,.73.59,1.32,1.32,1.32s1.32-.59,1.32-1.32v-7.33c0-.73-.59-1.32-1.32-1.32Z"/>
                        <path class="cls-5" d="M212.64,99.86c0-.73-.59-1.32-1.32-1.32h-7.33c-.73,0-1.32.59-1.32,1.32s.59,1.32,1.32,1.32h7.33c.73,0,1.32-.59,1.32-1.32Z"/>
                    </g>
                </g>
            </g>
            <g>
                <rect class="cls-30" x="387.65" y="246.1" width="10.72" height="19.54" transform="translate(-44.64 87.39) rotate(-12.01)"/>
                <rect class="cls-5" x="376.11" y="237.19" width="6.74" height="10.11" transform="translate(-42.12 84.31) rotate(-12.02)"/>
                <g>
                    <polygon class="cls-21" points="429.78 211.14 394.69 232.87 395.32 235.79 395.98 238.91 433.96 230.82 429.78 211.14"/>
                    <polygon class="cls-30" points="395.98 238.91 397.36 245.39 437.48 247.32 433.96 230.82 395.98 238.91"/>
                </g>
                <rect class="cls-23" x="433.61" y="220.78" width="4.7" height="16.22" transform="translate(-38.1 95.78) rotate(-12.02)"/>
                <g>
                    <rect class="cls-23" x="377.8" y="232.56" width="20.89" height="7.92" transform="translate(-40.73 86.01) rotate(-12.02)"/>
                    <rect class="cls-20" x="379.43" y="240.29" width="20.89" height="7.92" transform="translate(-42.28 86.44) rotate(-12.01)"/>
                </g>
                <rect class="cls-20" x="388.07" y="264.17" width="14.09" height="3.03" transform="translate(-46.66 88.08) rotate(-12.02)"/>
                <rect class="cls-5" x="429.69" y="209.71" width="3.9" height="39.16" transform="translate(-38.27 94.84) rotate(-12.01)"/>
                <g>
                    <rect class="cls-21" x="391.29" y="249.27" width="6.01" height="2.42" transform="translate(-43.51 87.58) rotate(-12.02)"/>
                    <rect class="cls-21" x="392.26" y="253.92" width="6.01" height="2.42" transform="translate(-44.45 87.88) rotate(-12.02)"/>
                    <rect class="cls-21" x="393.25" y="258.51" width="6.01" height="2.42" transform="translate(-45.39 88.19) rotate(-12.02)"/>
                </g>
            </g>
            <g>
                <path class="cls-21" d="M331.31,184.22c0-13.42,10.88-24.31,24.31-24.31v-3.82c-15.54,0-28.13,12.59-28.13,28.12s12.59,28.13,28.13,28.13v-3.82c-13.42,0-24.31-10.88-24.31-24.31Z"/>
                <path class="cls-2" d="M355.61,156.1v3.82c13.42,0,24.3,10.88,24.3,24.31s-10.88,24.31-24.3,24.31v3.82c15.53,0,28.12-12.59,28.12-28.13,0-15.53-12.59-28.12-28.12-28.12Z"/>
                <path class="cls-9" d="M375.14,184.22c0,10.78-8.74,19.52-19.52,19.52v4.78c13.42,0,24.3-10.88,24.3-24.31s-10.88-24.31-24.3-24.31v4.78c10.78,0,19.52,8.74,19.52,19.52Z"/>
                <path class="cls-5" d="M331.31,184.22c0,13.42,10.88,24.31,24.31,24.31v-4.78c-10.78,0-19.52-8.74-19.52-19.52s8.74-19.52,19.52-19.52v-4.78c-13.42,0-24.31,10.88-24.31,24.3Z"/>
                <path class="cls-8" d="M340.64,184.22c0-8.27,6.7-14.98,14.98-14.98v-4.55c-10.78,0-19.52,8.74-19.52,19.52s8.74,19.52,19.52,19.52v-4.55c-8.27,0-14.98-6.71-14.98-14.98Z"/>
                <path class="cls-31" d="M375.14,184.22c0-10.78-8.74-19.52-19.52-19.52v4.55c8.27,0,14.98,6.71,14.98,14.98s-6.71,14.98-14.98,14.98v4.55c10.78,0,19.52-8.74,19.52-19.52Z"/>
                <path class="cls-5" d="M340.64,184.22c0,8.27,6.7,14.98,14.98,14.98v-6.48c-4.69,0-8.49-3.8-8.49-8.49s3.8-8.49,8.49-8.49v-6.48c-8.27,0-14.98,6.71-14.98,14.98Z"/>
                <path class="cls-9" d="M364.11,184.22c0,4.69-3.8,8.49-8.49,8.49v6.48c8.27,0,14.98-6.71,14.98-14.98s-6.71-14.98-14.98-14.98v6.48c4.69,0,8.49,3.8,8.49,8.49Z"/>
                <path class="cls-21" d="M351.31,184.22c0-2.37,1.93-4.3,4.3-4.3v-4.19c-4.69,0-8.49,3.8-8.49,8.49s3.8,8.49,8.49,8.49v-4.19c-2.38,0-4.3-1.93-4.3-4.3Z"/>
                <path class="cls-30" d="M364.11,184.22c0-4.69-3.8-8.49-8.49-8.49v4.19c2.37,0,4.3,1.93,4.3,4.3s-1.93,4.3-4.3,4.3v4.19c4.69,0,8.49-3.8,8.49-8.49Z"/>
                <path class="cls-5" d="M351.31,184.22c0,2.38,1.93,4.3,4.3,4.3v-8.6c-2.38,0-4.3,1.93-4.3,4.3Z"/>
                <path class="cls-5" d="M359.91,184.22c0-2.37-1.93-4.3-4.3-4.3v8.6c2.37,0,4.3-1.93,4.3-4.3Z"/>
            </g>
            <g>
                <path class="cls-5" d="M121.98,203.99c-.26-1.09-1.06-1.9-2.05-2.23.74-.74,1.09-1.83.83-2.91-.4-1.68-2.08-2.71-3.75-2.31l-11.88,2.93-1.14-9.23c-1.74-5.85-6.48-3.85-6.48-3.85l1.29,7.38-2.37,7.77-.15.5,4.98,20.96,11.56-2.74h0c.44-.13.86-.28,1.26-.45.3.02.6,0,.91-.06l7.14-1.7c1.68-.4,2.71-2.08,2.31-3.75-.26-1.09-1.06-1.9-2.05-2.23.74-.74,1.09-1.83.83-2.91-.26-1.09-1.06-1.9-2.05-2.23.73-.74,1.09-1.82.83-2.91Z"/>
                <g>
                    <path class="cls-33" d="M96.73,203.96l-.85-3.6-4.94,1.17-2.18.52-6.83,1.62c-2.73.65-4.56,2.78-4.08,4.77l2.08,8.77,18.88-4.48-2.08-8.77Z"/>
                    <path class="cls-13" d="M79.92,217.21l2.08,8.77c.47,1.99,3.06,3.07,5.79,2.43l6.83-1.62,2.18-.52,4.94-1.17-.85-3.6-2.08-8.77-18.88,4.48Z"/>
                </g>
                <path class="cls-5" d="M94.86,207.25c.25,1.07-.41,2.14-1.47,2.39-1.07.25-2.14-.41-2.39-1.48-.25-1.07.41-2.14,1.47-2.39,1.07-.25,2.14.41,2.39,1.48Z"/>
            </g>
        </g>
        <g>
            <path class="cls-29" d="M46.26,63.07l-5.13-13.53h-.08c.03.29.05.63.07,1.05.02.41.04.86.05,1.34.01.48.02.98.02,1.48v9.66h-1.65v-15.29h2.64l4.84,12.72h.07l4.92-12.72h2.62v15.29h-1.76v-9.79c0-.45,0-.91.02-1.37s.03-.89.05-1.3.04-.76.06-1.06h-.08l-5.2,13.51h-1.46Z"/>
            <path class="cls-29" d="M70.53,63.07l-1.88-4.85h-6.13l-1.87,4.85h-1.8l5.98-15.35h1.6l5.94,15.35h-1.84ZM68.12,56.64l-1.79-4.82c-.04-.12-.11-.33-.2-.62-.09-.29-.19-.58-.29-.89s-.18-.55-.24-.74c-.07.29-.14.57-.22.85-.08.28-.16.54-.24.78-.08.24-.14.44-.2.61l-1.82,4.82h5Z"/>
            <path class="cls-29" d="M80.76,47.78c1.25,0,2.29.15,3.11.47.82.31,1.43.78,1.83,1.42.4.63.61,1.44.61,2.43,0,.81-.15,1.48-.44,2.02-.29.54-.68.98-1.15,1.31-.47.33-.98.59-1.52.77l4.19,6.87h-2.07l-3.75-6.38h-3.18v6.38h-1.78v-15.29h4.13ZM80.65,49.32h-2.25v5.87h2.43c1.25,0,2.17-.25,2.76-.76s.88-1.26.88-2.25c0-1.04-.31-1.77-.94-2.21-.62-.43-1.58-.65-2.88-.65Z"/>
            <path class="cls-29" d="M103.01,63.07h-2.1l-5.51-7.44-1.63,1.46v5.97h-1.78v-15.29h1.78v7.62c.4-.45.81-.9,1.22-1.35.42-.45.83-.9,1.25-1.37l4.47-4.9h2.08l-6.09,6.63,6.32,8.66Z"/>
            <path class="cls-29" d="M115.76,63.07h-8.51v-15.29h8.51v1.57h-6.74v4.95h6.35v1.55h-6.35v5.66h6.74v1.57Z"/>
            <path class="cls-29" d="M125.99,63.07h-1.79v-13.72h-4.81v-1.57h11.39v1.57h-4.79s0,13.72,0,13.72Z"/>
            <path class="cls-29" d="M135.23,63.07v-15.29h1.78v15.29h-1.78Z"/>
            <path class="cls-29" d="M155.31,63.07h-2.05l-8.34-12.84h-.08c.02.34.04.73.07,1.17s.05.9.07,1.39c.02.49.03.99.03,1.5v8.79h-1.65v-15.29h2.04l8.31,12.8h.07c-.01-.24-.03-.59-.05-1.04s-.04-.94-.06-1.45c-.02-.52-.03-1-.03-1.45v-8.86h1.67v15.29h0Z"/>
            <path class="cls-29" d="M168.16,55.06h5.34v7.42c-.8.27-1.63.47-2.47.61-.85.13-1.79.2-2.84.2-1.59,0-2.93-.32-4.02-.95-1.09-.63-1.92-1.54-2.48-2.71-.57-1.17-.85-2.57-.85-4.19s.31-2.96.94-4.14c.62-1.18,1.53-2.09,2.71-2.74,1.18-.65,2.6-.98,4.26-.98.85,0,1.66.08,2.42.24s1.47.38,2.13.66l-.68,1.55c-.57-.24-1.19-.45-1.87-.63s-1.38-.26-2.11-.26c-1.25,0-2.32.26-3.21.77-.89.52-1.57,1.24-2.04,2.19-.47.94-.71,2.06-.71,3.35s.21,2.39.62,3.33c.41.94,1.05,1.68,1.92,2.2s1.99.78,3.37.78c.69,0,1.28-.04,1.78-.12.49-.08.95-.18,1.35-.29v-4.69h-3.57v-1.59h0Z"/>
            <path class="cls-29" d="M193.59,49.13c-.84,0-1.6.15-2.27.43s-1.24.71-1.71,1.26-.83,1.21-1.08,1.98-.38,1.65-.38,2.62c0,1.28.2,2.4.6,3.34s1,1.67,1.8,2.19c.8.52,1.8.77,3,.77.68,0,1.33-.06,1.93-.17.6-.12,1.19-.26,1.76-.43v1.55c-.56.21-1.14.36-1.76.47s-1.34.15-2.19.15c-1.55,0-2.85-.32-3.9-.97s-1.82-1.56-2.34-2.74-.78-2.57-.78-4.17c0-1.16.16-2.22.49-3.17.32-.96.8-1.79,1.42-2.48s1.39-1.24,2.3-1.62c.91-.38,1.95-.57,3.13-.57.77,0,1.52.08,2.24.23s1.37.37,1.95.66l-.71,1.51c-.49-.22-1.02-.42-1.6-.58-.58-.16-1.21-.24-1.89-.24Z"/>
            <path class="cls-29" d="M215.95,55.41c0,1.18-.15,2.25-.45,3.22s-.74,1.79-1.33,2.49c-.59.69-1.32,1.23-2.19,1.6s-1.88.56-3.03.56-2.22-.19-3.1-.56-1.61-.91-2.2-1.61c-.58-.7-1.02-1.53-1.31-2.5-.29-.97-.43-2.04-.43-3.22,0-1.56.26-2.93.77-4.11s1.3-2.1,2.35-2.75c1.05-.66,2.37-.98,3.95-.98s2.79.32,3.82.97c1.04.65,1.82,1.56,2.35,2.74.53,1.18.8,2.56.8,4.16ZM203.77,55.41c0,1.3.18,2.42.55,3.37.37.95.94,1.68,1.7,2.2.76.52,1.73.77,2.91.77s2.16-.26,2.91-.77c.76-.52,1.32-1.25,1.68-2.2.36-.95.54-2.07.54-3.37,0-1.97-.41-3.52-1.24-4.63-.83-1.11-2.11-1.67-3.86-1.67-1.19,0-2.16.25-2.93.76-.77.51-1.34,1.23-1.71,2.17-.37.94-.56,2.06-.56,3.36Z"/>
            <path class="cls-29" d="M233.44,63.07h-2.05l-8.34-12.84h-.08c.02.34.04.73.07,1.17s.05.9.07,1.39c.02.49.03.99.03,1.5v8.79h-1.65v-15.29h2.04l8.31,12.8h.07c-.01-.24-.03-.59-.05-1.04s-.04-.94-.06-1.45c-.02-.52-.03-1-.03-1.45v-8.86h1.67v15.29h0Z"/>
            <path class="cls-29" d="M250.43,47.78l-5.49,15.29h-1.79l-5.49-15.29h1.86l3.58,10.07c.15.4.28.79.39,1.16.12.37.22.72.31,1.07.09.34.17.67.24.99.07-.32.15-.65.24-1,.09-.35.2-.7.31-1.08.12-.37.25-.76.4-1.18l3.56-10.04s1.88,0,1.88,0Z"/>
            <path class="cls-29" d="M263.18,63.07h-8.51v-15.29h8.51v1.57h-6.74v4.95h6.35v1.55h-6.35v5.66h6.74v1.57Z"/>
            <path class="cls-29" d="M272.85,47.78c1.26,0,2.29.15,3.11.47s1.43.78,1.84,1.42c.4.63.61,1.44.61,2.43,0,.81-.15,1.48-.44,2.02-.29.54-.68.98-1.15,1.31-.48.33-.98.59-1.52.77l4.19,6.87h-2.07l-3.74-6.38h-3.18v6.38h-1.78v-15.29h4.13ZM272.74,49.32h-2.25v5.87h2.43c1.25,0,2.17-.25,2.76-.76.59-.51.88-1.26.88-2.25,0-1.04-.31-1.77-.94-2.21-.62-.43-1.58-.65-2.88-.65Z"/>
            <path class="cls-29" d="M292.7,59.01c0,.91-.23,1.68-.67,2.32-.45.64-1.08,1.12-1.89,1.46-.81.33-1.76.5-2.86.5-.58,0-1.13-.03-1.64-.08-.52-.06-.99-.14-1.42-.24-.43-.1-.81-.23-1.14-.39v-1.71c.52.22,1.16.42,1.91.6s1.54.28,2.36.28c.77,0,1.42-.1,1.95-.31.53-.21.93-.5,1.21-.89s.41-.85.41-1.4-.11-.96-.35-1.31-.61-.67-1.15-.96c-.53-.29-1.26-.6-2.18-.93-.65-.23-1.22-.48-1.71-.76s-.91-.59-1.24-.94-.59-.75-.76-1.21c-.17-.46-.26-.99-.26-1.58,0-.82.21-1.51.62-2.1.41-.58.99-1.03,1.73-1.34.73-.31,1.58-.47,2.54-.47.82,0,1.57.08,2.27.23.69.15,1.33.36,1.91.62l-.55,1.53c-.55-.23-1.14-.42-1.75-.58s-1.25-.23-1.91-.23-1.21.1-1.66.29c-.45.19-.79.46-1.03.81-.24.35-.36.76-.36,1.24,0,.54.11.98.34,1.34.23.35.59.67,1.09.95.5.28,1.16.56,1.98.86.9.33,1.66.67,2.29,1.04.63.37,1.11.81,1.43,1.34.33.52.49,1.19.49,2Z"/>
            <path class="cls-29" d="M297.96,63.07v-15.29h1.78v15.29h-1.78Z"/>
            <path class="cls-29" d="M319.35,55.41c0,1.18-.15,2.25-.45,3.22s-.74,1.79-1.33,2.49-1.32,1.23-2.19,1.6c-.87.38-1.88.56-3.03.56s-2.22-.19-3.1-.56-1.61-.91-2.2-1.61c-.58-.7-1.02-1.53-1.31-2.5s-.43-2.04-.43-3.22c0-1.56.26-2.93.77-4.11s1.3-2.1,2.35-2.75c1.05-.66,2.37-.98,3.95-.98s2.79.32,3.82.97,1.82,1.56,2.35,2.74c.53,1.18.8,2.56.8,4.16ZM307.18,55.41c0,1.3.18,2.42.55,3.37.37.95.94,1.68,1.7,2.2s1.73.77,2.91.77,2.16-.26,2.91-.77,1.32-1.25,1.68-2.2c.36-.95.54-2.07.54-3.37,0-1.97-.41-3.52-1.24-4.63-.83-1.11-2.11-1.67-3.86-1.67-1.19,0-2.16.25-2.93.76-.77.51-1.34,1.23-1.71,2.17-.37.94-.56,2.06-.56,3.36Z"/>
            <path class="cls-29" d="M336.85,63.07h-2.05l-8.34-12.84h-.08c.02.34.05.73.07,1.17.03.44.05.9.07,1.39s.02.99.02,1.5v8.79h-1.65v-15.29h2.04l8.3,12.8h.07c-.02-.24-.03-.59-.05-1.04s-.04-.94-.06-1.45c-.02-.52-.03-1-.03-1.45v-8.86h1.67v15.29h0Z"/>
            <path class="cls-29" d="M352.65,63.07h-1.78v-15.29h8.51v1.57h-6.73v5.61h6.33v1.56h-6.33v6.56h0Z"/>
            <path class="cls-29" d="M375.63,47.78v9.89c0,1.08-.22,2.04-.65,2.89s-1.09,1.51-1.97,1.99c-.88.48-1.98.73-3.3.73-1.89,0-3.33-.51-4.31-1.54-.99-1.03-1.48-2.4-1.48-4.11v-9.85h1.79v9.9c0,1.3.34,2.3,1.03,3,.69.71,1.71,1.06,3.08,1.06.93,0,1.7-.17,2.3-.51s1.04-.81,1.33-1.42c.29-.61.43-1.32.43-2.12v-9.92h1.77Z"/>
            <path class="cls-29" d="M393.78,63.07h-2.05l-8.34-12.84h-.08c.02.34.05.73.07,1.17.03.44.05.9.07,1.39s.03.99.03,1.5v8.79h-1.65v-15.29h2.04l8.3,12.8h.07c-.01-.24-.03-.59-.05-1.04-.02-.45-.04-.94-.06-1.45-.02-.52-.03-1-.03-1.45v-8.86h1.67v15.29h0Z"/>
            <path class="cls-29" d="M412.05,63.07h-2.05l-8.34-12.84h-.08c.02.34.05.73.07,1.17.03.44.05.9.07,1.39s.02.99.02,1.5v8.79h-1.65v-15.29h2.04l8.3,12.8h.07c-.02-.24-.03-.59-.05-1.04s-.04-.94-.06-1.45c-.02-.52-.03-1-.03-1.45v-8.86h1.67v15.29h0Z"/>
            <path class="cls-29" d="M426.88,63.07h-8.51v-15.29h8.51v1.57h-6.73v4.95h6.35v1.55h-6.35v5.66h6.73v1.57Z"/>
            <path class="cls-29" d="M432.41,63.07v-15.29h1.78v13.7h6.79v1.59h-8.57Z"/>
        </g>
    </g>
</svg>