<?xml version="1.0" encoding="UTF-8"?>
<svg xmlns="http://www.w3.org/2000/svg" xmlns:xlink="http://www.w3.org/1999/xlink" viewBox="0 0 2624.63 1775.97">
    <defs>
        <style>
            .cls-1 {
            stroke-width: 32.2px;
            }

            .cls-1, .cls-2, .cls-3, .cls-4, .cls-5, .cls-6, .cls-7, .cls-8, .cls-9, .cls-10, .cls-11, .cls-12 {
            fill: none;
            }

            .cls-1, .cls-2, .cls-5, .cls-6, .cls-9, .cls-10, .cls-13, .cls-11 {
            stroke-miterlimit: 10;
            }

            .cls-1, .cls-8, .cls-9 {
            stroke: #17152f;
            }

            .cls-14 {
            fill: #5f50e9;
            opacity: .25;
            }

            .cls-14, .cls-15 {
            mix-blend-mode: multiply;
            }

            .cls-16 {
            fill: #e1ebf0;
            }

            .cls-2 {
            stroke-width: 32.6px;
            }

            .cls-2, .cls-6, .cls-10 {
            stroke: #013863;
            }

            .cls-17 {
            fill: #013863;
            }

            .cls-18 {
            fill: #ff9365;
            }

            .cls-19, .cls-20 {
            fill: #fff;
            }

            .cls-21 {
            fill: #e6edff;
            }

            .cls-22 {
            fill: #17152f;
            }

            .cls-4, .cls-7 {
            stroke: #fff;
            }

            .cls-4, .cls-7, .cls-8, .cls-20, .cls-12 {
            stroke-linecap: round;
            stroke-linejoin: round;
            }

            .cls-4, .cls-11 {
            stroke-width: 3px;
            }

            .cls-23 {
            fill: #595380;
            }

            .cls-24 {
            isolation: isolate;
            }

            .cls-5, .cls-6, .cls-20, .cls-12 {
            stroke-width: 7px;
            }

            .cls-5, .cls-20, .cls-12 {
            stroke: #d3d2e2;
            }

            .cls-25 {
            fill: #d3d2e2;
            }

            .cls-26 {
            fill: #052542;
            }

            .cls-7 {
            stroke-width: 5px;
            }

            .cls-27, .cls-28 {
            fill: #bcb6eb;
            }

            .cls-8 {
            stroke-width: 19.06px;
            }

            .cls-9 {
            stroke-width: 26.52px;
            }

            .cls-10 {
            stroke-dasharray: 52;
            stroke-width: 10px;
            }

            .cls-13 {
            fill: #244de6;
            stroke: #244de6;
            stroke-width: 12.43px;
            }

            .cls-11 {
            stroke: #000;
            }

            .cls-28 {
            opacity: .45;
            }

            .cls-29 {
            fill: #e6e6e6;
            mix-blend-mode: screen;
            }

            .cls-30 {
            clip-path: url(#clippath);
            }

            .cls-15 {
            fill: #262d56;
            opacity: .38;
            }

            .cls-31 {
            fill: #161233;
            }
        </style>
        <clipPath id="clippath">
            <path class="cls-3" d="M785.78,701.91c2.75,8.43,5.03,17.06,6.83,25.88.07.32.13.66.19.99,5.69,28.24,6.04,56.45,1.79,83.54-.91,5.78-2.03,11.52-3.34,17.19-.33,1.45-.69,2.9-1.06,4.35-2.42,9.6-5.44,19.01-9.01,28.19-16.53,42.53-44.94,80.07-81.98,107.68-23.89,17.87-51.4,31.56-81.63,39.82-4.49,1.22-9.08,2.36-13.7,3.33-36.7,7.81-73.79,7.14-108.98-1.59-.01,0-.03,0-.04,0-25.47-6.32-49.94-16.86-72.55-31.47-8.78-5.7-17.12-11.88-24.95-18.54-40.21-34.03-67.66-80.18-78.38-132.61-1.43-6.97-2.56-13.95-3.34-20.9-1.22-10.68-1.7-21.33-1.47-31.84.93-44.75,14.53-87.64,37.97-124.37,8.69-13.63,18.73-26.39,29.96-38.09,7.22-7.51,14.91-14.59,23.06-21.16.63-.52,1.29-1.03,1.93-1.53.43-.35.87-.69,1.3-1.03,13.44-10.45,28.06-19.59,43.69-27.14,2.68-1.3,5.4-2.56,8.17-3.74,15-6.58,30.87-11.74,47.47-15.3,25.28-5.38,50.76-6.74,75.67-4.2,37.42,3.81,73.56,16.39,105.86,37.28,7.66,4.96,14.96,10.29,21.91,15.99,4.26,3.48,8.37,7.09,12.36,10.83,0,.01.02.02.02.03,16.77,15.77,31.01,33.81,42.4,53.61,5.24,9.12,9.88,18.61,13.87,28.44,2.18,5.36,4.18,10.81,5.96,16.37Z"/>
        </clipPath>
    </defs>
    <g class="cls-24">
        <g id="picture">
            <g>
                <rect class="cls-10" x="1561.54" y="5.49" width="553.75" height="761.58"/>
                <rect class="cls-17" x="1556.51" width="563.88" height="117.81"/>
                <g>
                    <path class="cls-19" d="M1756.94,63.99l.03.08c-.09,2.34-.78,4.12-2.07,5.36-1.29,1.23-3.17,1.85-5.62,1.85s-4.47-.76-6.01-2.27c-1.54-1.52-2.31-3.48-2.31-5.9v-4.16c0-2.41.74-4.38,2.23-5.9,1.48-1.52,3.41-2.28,5.79-2.28,2.52,0,4.45.63,5.78,1.9,1.33,1.27,2.09,3.07,2.26,5.41l-.03.08h-4.51c-.06-1.3-.35-2.26-.87-2.89-.52-.63-1.39-.94-2.64-.94-1.05,0-1.88.42-2.48,1.27-.6.84-.9,1.95-.9,3.32v4.19c0,1.38.33,2.49.99,3.34.66.85,1.56,1.27,2.71,1.27s1.9-.3,2.37-.89c.47-.59.73-1.54.79-2.84h4.51Z"/>
                    <path class="cls-19" d="M1763.68,58.01c.45-.67.99-1.19,1.64-1.55.64-.37,1.35-.55,2.13-.55,1.53,0,2.74.53,3.62,1.6.88,1.07,1.32,2.73,1.32,4.97v8.52h-4.63v-8.55c0-1.13-.17-1.91-.51-2.34-.34-.43-.87-.64-1.57-.64-.45,0-.84.07-1.16.2-.33.13-.6.32-.82.55v10.78h-4.63v-21.37h4.63v8.38Z"/>
                    <path class="cls-19" d="M1783.48,70.98c-.13-.24-.25-.5-.35-.79-.11-.29-.19-.59-.27-.9-.44.61-.97,1.1-1.59,1.46-.62.36-1.37.54-2.26.54-1.41,0-2.55-.41-3.43-1.22-.88-.81-1.32-1.89-1.32-3.25,0-1.47.55-2.6,1.65-3.4,1.1-.8,2.77-1.2,5.02-1.2h1.68v-1.05c0-.63-.15-1.11-.45-1.45-.3-.34-.76-.51-1.38-.51-.53,0-.92.13-1.19.38-.26.25-.39.64-.39,1.17h-4.48s-.03-.1-.03-.1c-.06-1.35.5-2.48,1.68-3.39,1.19-.91,2.76-1.36,4.71-1.36,1.83,0,3.31.46,4.45,1.37,1.14.91,1.71,2.22,1.71,3.92v5.59c0,.79.07,1.53.2,2.21.13.68.33,1.35.6,2.01h-4.57ZM1780.42,67.98c.46,0,.88-.09,1.26-.27.38-.18.69-.42.93-.71v-2.31h-1.64c-.73,0-1.26.18-1.6.53-.33.36-.5.81-.5,1.36,0,.42.14.76.43,1.02.29.26.66.39,1.12.39Z"/>
                    <path class="cls-19" d="M1795.31,52.49v3.68h2.51v3.2h-2.51v6.79c0,.53.11.91.32,1.14.21.23.5.35.87.35.29,0,.52,0,.69-.03.17-.02.39-.05.65-.11l.33,3.42c-.51.12-.97.2-1.38.25-.41.05-.9.08-1.45.08-1.53,0-2.68-.41-3.47-1.22-.79-.81-1.18-2.1-1.18-3.86v-6.82h-2.08v-3.2h2.08v-3.68h4.62Z"/>
                    <path class="cls-19" d="M1813.72,63.9c0,2.26-.48,4.05-1.45,5.38-.97,1.33-2.4,2-4.3,2-.81,0-1.52-.18-2.12-.53-.6-.35-1.11-.86-1.53-1.51l-.3,1.75h-4.01v-21.37h4.63v7.99c.41-.55.89-.97,1.43-1.27.54-.3,1.17-.44,1.88-.44,1.91,0,3.35.7,4.32,2.1.97,1.4,1.46,3.27,1.46,5.62v.29ZM1809.1,63.61c0-1.32-.16-2.34-.49-3.06-.33-.73-.94-1.09-1.84-1.09-.5,0-.93.09-1.29.28-.36.19-.65.46-.86.81v6.22c.22.32.51.56.86.71.36.16.79.23,1.31.23.91,0,1.53-.32,1.84-.95.31-.63.47-1.59.47-2.87v-.29Z"/>
                    <path class="cls-19" d="M1815.14,63.44c0-2.23.63-4.04,1.89-5.44,1.26-1.4,3.02-2.1,5.27-2.1s4.03.7,5.29,2.1c1.26,1.4,1.89,3.22,1.89,5.44v.29c0,2.24-.63,4.05-1.89,5.45-1.26,1.4-3.01,2.1-5.26,2.1s-4.04-.7-5.3-2.1c-1.26-1.4-1.89-3.21-1.89-5.45v-.29ZM1819.77,63.73c0,1.24.19,2.22.58,2.92.39.71,1.05,1.06,1.98,1.06s1.55-.36,1.95-1.07c.39-.71.59-1.69.59-2.92v-.29c0-1.21-.2-2.17-.59-2.9-.39-.73-1.05-1.09-1.97-1.09s-1.56.37-1.95,1.1c-.39.73-.58,1.69-.58,2.89v.29Z"/>
                    <path class="cls-19" d="M1837,52.49v3.68h2.51v3.2h-2.51v6.79c0,.53.11.91.32,1.14.21.23.5.35.87.35.29,0,.52,0,.69-.03.17-.02.39-.05.65-.11l.33,3.42c-.51.12-.97.2-1.38.25-.41.05-.9.08-1.45.08-1.53,0-2.68-.41-3.47-1.22-.79-.81-1.18-2.1-1.18-3.86v-6.82h-2.08v-3.2h2.08v-3.68h4.62Z"/>
                </g>
                <polygon class="cls-19" points="1583.18 59.68 1599.05 43.81 1603.54 43.81 1589.25 58.09 1606.92 58.09 1625.02 58.09 1625.02 61.26 1606.92 61.26 1589.25 61.26 1603.54 75.55 1599.05 75.55 1583.18 59.68"/>
                <g>
                    <rect class="cls-19" x="1937.92" y="46.46" width="40.67" height="30.3" rx="5.6" ry="5.6"/>
                    <path class="cls-19" d="M1983.99,69.59l-4.29-6.17c-.14-.2-.22-.45-.22-.7v-3.05c0-.25.08-.49.22-.7l4.29-6.17c.68-.98,2.23-.5,2.23.7v15.4c0,1.2-1.54,1.68-2.23.7Z"/>
                </g>
                <rect class="cls-17" x="1579.15" y="695.86" width="518.53" height="46.38" rx="19.68" ry="19.68"/>
                <path class="cls-19" d="M1620.32,701.08c-9.93,0-17.96,8.05-17.96,17.97s8.04,17.96,17.96,17.96,17.96-8.05,17.96-17.96-8.05-17.97-17.96-17.97ZM1608.74,713.61c0-1.7,1.38-3.08,3.07-3.08s3.08,1.38,3.08,3.08-1.38,3.07-3.08,3.07-3.07-1.38-3.07-3.07ZM1630.54,725.58c-3.59,2.97-6.96,4.46-10.17,4.46-3.39,0-6.58-1.66-9.65-4.98-.31-.34-.29-.86.05-1.16.34-.31.86-.29,1.16.04,5.31,5.77,10.88,5.89,17.54.37.35-.29.87-.24,1.16.11.29.35.24.87-.11,1.16ZM1628.83,716.68c-1.7,0-3.07-1.38-3.07-3.07s1.37-3.08,3.07-3.08,3.07,1.38,3.07,3.08-1.37,3.07-3.07,3.07Z"/>
                <g>
                    <path class="cls-19" d="M1655.83,714.45l.19,1.94c.48-.7,1.1-1.25,1.84-1.64s1.61-.58,2.6-.58,1.83.23,2.54.68c.71.46,1.24,1.14,1.6,2.05.47-.84,1.08-1.51,1.85-2,.77-.49,1.66-.74,2.69-.74,1.51,0,2.7.52,3.57,1.55.88,1.04,1.32,2.6,1.32,4.68v8.86h-2.7v-8.89c0-1.46-.25-2.5-.75-3.1-.5-.61-1.25-.91-2.25-.91-.92,0-1.67.32-2.24.96-.57.64-.91,1.45-1.01,2.42v9.52h-2.71v-8.89c0-1.39-.26-2.4-.77-3.05-.52-.64-1.26-.97-2.23-.97-.82,0-1.5.17-2.03.51-.53.34-.94.81-1.22,1.42v10.97h-2.7v-14.82h2.41Z"/>
                    <path class="cls-19" d="M1684.09,729.56c-2.06,0-3.71-.69-4.92-2.06-1.22-1.37-1.83-3.16-1.83-5.35v-.6c0-2.11.63-3.86,1.88-5.27,1.26-1.4,2.74-2.1,4.46-2.1,2,0,3.51.6,4.53,1.81,1.02,1.21,1.53,2.81,1.53,4.82v1.68h-9.62l-.04.07c.03,1.42.39,2.59,1.08,3.5.69.92,1.67,1.37,2.92,1.37.91,0,1.71-.13,2.4-.39.69-.26,1.29-.62,1.79-1.08l1.05,1.76c-.53.52-1.23.96-2.1,1.31-.87.35-1.92.52-3.15.52ZM1683.68,716.3c-.9,0-1.68.38-2.32,1.14-.64.76-1.03,1.71-1.18,2.86l.03.07h6.83v-.36c0-1.06-.28-1.94-.85-2.65-.57-.71-1.41-1.06-2.52-1.06Z"/>
                    <path class="cls-19" d="M1701.39,725.33c0-.59-.23-1.08-.68-1.47-.45-.38-1.31-.72-2.57-1-1.8-.39-3.15-.92-4.06-1.59-.91-.67-1.36-1.58-1.36-2.74s.51-2.23,1.53-3.08c1.02-.85,2.36-1.27,4-1.27,1.73,0,3.1.44,4.12,1.33,1.02.89,1.5,1.96,1.46,3.23l-.03.08h-2.58c0-.65-.27-1.23-.82-1.75-.54-.52-1.26-.77-2.16-.77-.96,0-1.67.21-2.14.63-.47.42-.7.93-.7,1.52s.2,1.05.62,1.38c.41.34,1.25.64,2.51.9,1.87.4,3.26.95,4.18,1.64.91.69,1.37,1.61,1.37,2.77,0,1.31-.53,2.38-1.6,3.19-1.06.81-2.45,1.22-4.17,1.22-1.89,0-3.38-.48-4.46-1.44-1.09-.96-1.6-2.08-1.55-3.36l.03-.08h2.58c.04.95.4,1.65,1.07,2.09.67.44,1.45.66,2.34.66.96,0,1.71-.19,2.25-.58.54-.39.81-.9.81-1.53Z"/>
                    <path class="cls-19" d="M1716.06,725.33c0-.59-.23-1.08-.68-1.47-.45-.38-1.31-.72-2.57-1-1.8-.39-3.15-.92-4.06-1.59-.91-.67-1.36-1.58-1.36-2.74s.51-2.23,1.53-3.08c1.02-.85,2.36-1.27,4-1.27,1.73,0,3.1.44,4.12,1.33,1.02.89,1.5,1.96,1.46,3.23l-.03.08h-2.58c0-.65-.27-1.23-.82-1.75-.54-.52-1.26-.77-2.16-.77-.96,0-1.67.21-2.14.63-.47.42-.7.93-.7,1.52s.21,1.05.62,1.38c.41.34,1.25.64,2.51.9,1.87.4,3.26.95,4.18,1.64.91.69,1.37,1.61,1.37,2.77,0,1.31-.53,2.38-1.6,3.19-1.06.81-2.45,1.22-4.17,1.22-1.89,0-3.38-.48-4.46-1.44-1.09-.96-1.6-2.08-1.55-3.36l.03-.08h2.58c.05.95.4,1.65,1.07,2.09.67.44,1.45.66,2.34.66.96,0,1.71-.19,2.25-.58.54-.39.81-.9.81-1.53Z"/>
                    <path class="cls-19" d="M1731.22,729.27c-.09-.45-.16-.84-.21-1.18-.05-.34-.08-.69-.09-1.03-.5.71-1.16,1.31-1.96,1.79-.81.48-1.68.72-2.61.72-1.54,0-2.72-.39-3.53-1.18-.81-.79-1.21-1.88-1.21-3.27s.57-2.52,1.72-3.32c1.15-.8,2.7-1.2,4.66-1.2h2.93v-1.47c0-.87-.26-1.55-.79-2.06-.53-.51-1.28-.76-2.25-.76-.87,0-1.57.22-2.12.66-.54.44-.82.98-.82,1.6h-2.58l-.03-.08c-.05-1.08.45-2.06,1.53-2.96,1.07-.9,2.46-1.34,4.16-1.34s3.03.43,4.05,1.28c1.02.85,1.53,2.08,1.53,3.69v7.14c0,.53.03,1.04.08,1.53.05.49.16.98.3,1.45h-2.78ZM1726.74,727.29c.98,0,1.86-.25,2.64-.75.79-.5,1.3-1.07,1.53-1.72v-2.4h-3.03c-1.09,0-1.96.27-2.61.82-.65.55-.98,1.19-.98,1.93,0,.66.2,1.17.62,1.56.41.38,1.02.57,1.82.57Z"/>
                    <path class="cls-19" d="M1736.95,722.14c0-2.38.52-4.31,1.56-5.77,1.04-1.46,2.48-2.19,4.31-2.19.94,0,1.77.19,2.48.57.71.38,1.31.92,1.78,1.64l.33-1.93h2.15v14.9c0,1.9-.55,3.36-1.66,4.38-1.1,1.02-2.7,1.53-4.78,1.53-.71,0-1.48-.1-2.31-.29-.83-.2-1.55-.46-2.18-.8l.68-2.1c.48.27,1.07.5,1.75.66.69.17,1.36.25,2.03.25,1.32,0,2.27-.3,2.87-.9.6-.6.9-1.51.9-2.73v-1.67c-.48.62-1.06,1.09-1.74,1.4-.68.32-1.45.47-2.33.47-1.82,0-3.25-.66-4.29-1.97-1.04-1.31-1.56-3.04-1.56-5.16v-.29ZM1739.64,722.43c0,1.49.31,2.68.95,3.59.63.9,1.59,1.36,2.88,1.36.81,0,1.49-.19,2.04-.55.55-.37,1-.89,1.36-1.57v-6.82c-.35-.63-.8-1.13-1.36-1.5-.56-.37-1.23-.55-2.01-.55-1.29,0-2.25.54-2.89,1.62-.64,1.08-.96,2.46-.96,4.15v.29Z"/>
                    <path class="cls-19" d="M1759.63,729.56c-2.06,0-3.71-.69-4.92-2.06-1.22-1.37-1.83-3.16-1.83-5.35v-.6c0-2.11.63-3.86,1.88-5.27,1.26-1.4,2.74-2.1,4.46-2.1,2,0,3.51.6,4.53,1.81,1.02,1.21,1.53,2.81,1.53,4.82v1.68h-9.62l-.04.07c.03,1.42.39,2.59,1.08,3.5.69.92,1.67,1.37,2.92,1.37.91,0,1.71-.13,2.4-.39.69-.26,1.29-.62,1.79-1.08l1.05,1.76c-.53.52-1.23.96-2.1,1.31-.87.35-1.92.52-3.15.52ZM1759.22,716.3c-.9,0-1.68.38-2.32,1.14-.64.76-1.03,1.71-1.18,2.86l.03.07h6.83v-.36c0-1.06-.28-1.94-.85-2.65-.57-.71-1.41-1.06-2.52-1.06Z"/>
                </g>
                <g>
                    <path class="cls-19" d="M2037.2,707.23h-27.29c-2.86,0-5.18,2.33-5.18,5.19v17.68c0,2.86,2.32,5.18,5.18,5.18h27.29c2.86,0,5.18-2.32,5.18-5.18v-17.68c0-2.86-2.32-5.19-5.18-5.19ZM2023.55,726.8c-3.06,0-5.54-2.48-5.54-5.55s2.48-5.54,5.54-5.54,5.55,2.48,5.55,5.54-2.48,5.55-5.55,5.55Z"/>
                    <rect class="cls-19" x="2025.97" y="702.82" width="8.38" height="6.01" rx=".95" ry=".95"/>
                </g>
                <g>
                    <path class="cls-19" d="M2073.26,735.5s-.57-.63-5.15-.63-5.15.63-5.15.63c-.84,0-1.53.38-1.53.84v.21c0,.46.69.84,1.53.84h10.31c.84,0,1.53-.38,1.53-.84v-.21c0-.46-.69-.84-1.53-.84Z"/>
                    <path class="cls-19" d="M2068.1,736.75h0c-.46,0-.84-.38-.84-.84v-7.66c0-.46.38-.84.84-.84h0c.46,0,.84.38.84.84v7.66c0,.46-.38.84-.84.84Z"/>
                    <path class="cls-4" d="M2057.41,722.93c2.55,2.76,6.18,4.49,10.23,4.49,4.34,0,8.22-1.99,10.78-5.1"/>
                    <path class="cls-19" d="M2066.73,700.72h2.35c3.86,0,7,3.14,7,7v8.93c0,3.86-3.14,7-7,7h-2.35c-3.86,0-7-3.14-7-7v-8.93c0-3.86,3.14-7,7-7Z"/>
                </g>
                <g>
                    <rect class="cls-4" x="1942.32" y="704.43" width="49.8" height="30.85"/>
                    <path class="cls-19" d="M1977.41,711.49c0,2.39-1.94,4.34-4.34,4.34s-4.34-1.94-4.34-4.34,1.94-4.34,4.34-4.34,4.34,1.94,4.34,4.34Z"/>
                    <path class="cls-19" d="M1948.37,731.25h38.51s-5.75-12.4-9.78-12.3c-4.03.1-6.96,4.54-6.96,4.54,0,0-5.14-5.95-8.27-5.75s-13.51,13.51-13.51,13.51Z"/>
                </g>
                <path class="cls-19" d="M2027.17,46.67l-2.75-5.34c-1.2-2.33-4.07-3.25-6.4-2.05l-5.04,2.59c-2.5,1.29-.58,14.81.61,17.13,1.5,2.91,4.49,8.72,5.98,11.62.89,1.72,11.08,11.74,13.58,10.46l5.04-2.59c2.33-1.2,3.25-4.07,2.05-6.4l-2.75-5.34c-1.2-2.33-4.07-3.25-6.4-2.05h0c-.74.38-3.6,1.1-3.97.36l-4.61-8.95c-.38-.74,1.87-2.65,2.6-3.03h0c2.33-1.2,3.25-4.07,2.05-6.4Z"/>
                <path class="cls-17" d="M2054.92,135.02h-373.28c-15.49,0-28.05,12.56-28.05,28.05v67.66c0,15.49,12.56,28.05,28.05,28.05h373.28c7.75,0,33.29,6.73,33.29,6.73,0,0-5.24-21.43-5.24-29.17v-73.27c0-15.49-12.56-28.05-28.05-28.05Z"/>
                <path class="cls-17" d="M2063.06,472.35h-290.46c-15.49,0-28.05,12.56-28.05,28.05v15.71c0,15.49,12.56,28.05,28.05,28.05h290.46c7.75,0,33.29,6.73,33.29,6.73,0,0-5.24-21.43-5.24-29.17v-21.32c0-15.49-12.56-28.05-28.05-28.05Z"/>
                <g>
                    <path class="cls-19" d="M1708.43,631.02c0,3.18-2.57,5.75-5.74,5.76-3.18,0-5.75-2.57-5.76-5.74,0-3.18,2.57-5.76,5.74-5.76,3.18,0,5.75,2.57,5.76,5.74Z"/>
                    <path class="cls-19" d="M1722.81,631.01c0,3.18-2.57,5.75-5.74,5.76-3.18,0-5.75-2.57-5.76-5.74,0-3.18,2.57-5.75,5.74-5.76,3.18,0,5.76,2.57,5.76,5.74Z"/>
                    <path class="cls-19" d="M1737.21,621.1c0,3.18-2.57,5.76-5.74,5.76-3.18,0-5.75-2.57-5.76-5.74,0-3.18,2.57-5.76,5.74-5.76,3.18,0,5.76,2.57,5.76,5.74Z"/>
                    <path class="cls-19" d="M1751.59,630.99c0,3.18-2.57,5.76-5.74,5.76-3.18,0-5.75-2.57-5.76-5.74,0-3.18,2.57-5.76,5.74-5.76,3.18,0,5.75,2.57,5.76,5.74Z"/>
                </g>
                <path class="cls-25" d="M1609.13,307.27h279.77c15.49,0,28.05,12.56,28.05,28.05v67.66c0,15.49-12.56,28.05-28.05,28.05h-279.77c-7.75,0-33.29,6.73-33.29,6.73,0,0,5.24-21.43,5.24-29.17v-73.27c0-15.49,12.56-28.05,28.05-28.05Z"/>
                <path class="cls-25" d="M1609.13,585.49h290.16c15.49,0,28.05,12.56,28.05,28.05v5.32c0,15.49-12.56,28.05-28.05,28.05h-290.16c-7.75,0-33.29,6.73-33.29,6.73,0,0,5.24-21.43,5.24-29.17v-10.93c0-15.49,12.56-28.05,28.05-28.05Z"/>
                <g>
                    <path class="cls-19" d="M1614.83,631.02c0,3.18-2.57,5.75-5.74,5.76-3.18,0-5.75-2.57-5.76-5.74,0-3.18,2.57-5.76,5.74-5.76,3.18,0,5.75,2.57,5.76,5.74Z"/>
                    <path class="cls-19" d="M1629.21,631.01c0,3.18-2.57,5.75-5.74,5.76-3.18,0-5.75-2.57-5.76-5.74,0-3.18,2.57-5.75,5.74-5.76,3.18,0,5.75,2.57,5.76,5.74Z"/>
                    <path class="cls-19" d="M1643.61,621.1c0,3.18-2.57,5.76-5.74,5.76-3.18,0-5.75-2.57-5.76-5.74,0-3.18,2.57-5.76,5.74-5.76,3.18,0,5.76,2.57,5.76,5.74Z"/>
                    <path class="cls-19" d="M1657.99,630.99c0,3.18-2.57,5.76-5.74,5.76-3.18,0-5.75-2.57-5.76-5.74,0-3.18,2.57-5.76,5.74-5.76,3.18,0,5.75,2.57,5.76,5.74Z"/>
                </g>
                <g>
                    <circle class="cls-19" cx="1684.5" cy="51.39" r="15.01" transform="translate(422.07 1167.83) rotate(-43.24)"/>
                    <path class="cls-19" d="M1710.51,89.36c-6.62,7.63-16.46,12.37-27.35,12.15-10.14-.21-19.18-4.68-25.47-11.67.9-14.07,12.74-25.06,26.97-24.76,13.7.28,24.75,10.92,25.85,24.28Z"/>
                    <circle class="cls-7" cx="1684.5" cy="61.27" r="40.25" transform="translate(450.06 1209.07) rotate(-45)"/>
                </g>
                <g>
                    <circle class="cls-19" cx="2071.27" cy="41.53" r="4.94"/>
                    <circle class="cls-19" cx="2071.27" cy="57.21" r="4.94"/>
                    <circle class="cls-19" cx="2071.27" cy="72.89" r="4.94"/>
                </g>
            </g>
            <g>
                <path class="cls-25" d="M1637.61,1193.99l.04,12c.02,5.91,4.83,10.69,10.74,10.67l30.38-.11c5.91-.02,10.69-4.83,10.67-10.74l-.04-12c-.02-5.08,3.55-9.45,8.52-10.52,20.51-4.38,39.61-12.53,56.55-23.69,4.23-2.79,9.84-2.23,13.43,1.34l8.53,8.48c4.19,4.17,10.97,4.14,15.14-.05l21.4-21.55c4.17-4.19,4.14-10.97-.05-15.14l-8.53-8.48c-3.6-3.57-4.19-9.17-1.43-13.42,11.04-17.02,19.05-36.18,23.29-56.72,1.03-4.98,5.37-8.58,10.46-8.59l12-.04c5.91-.02,10.69-4.83,10.67-10.74l-.11-30.37c-.02-5.91-4.83-10.69-10.74-10.67l-12,.04c-5.08.02-9.45-3.55-10.52-8.52-4.38-20.51-12.53-39.61-23.69-56.55-2.79-4.23-2.23-9.84,1.34-13.43l8.48-8.53c4.17-4.19,4.14-10.97-.05-15.14l-21.55-21.4c-4.2-4.17-10.97-4.14-15.14.05l-8.48,8.53c-3.57,3.6-9.17,4.19-13.42,1.43-17.02-11.04-36.18-19.05-56.72-23.29-4.98-1.03-8.58-5.37-8.59-10.46l-.04-12c-.02-5.91-4.83-10.69-10.74-10.67l-30.38.11c-5.91.02-10.69,4.83-10.67,10.74l.04,12c.02,5.08-3.55,9.45-8.52,10.52-20.51,4.38-39.61,12.53-56.55,23.69-4.23,2.79-9.84,2.23-13.43-1.34l-8.53-8.48c-4.2-4.17-10.97-4.14-15.14.05l-21.4,21.55c-4.17,4.19-4.14,10.97.05,15.14l8.53,8.48c3.6,3.57,4.19,9.17,1.43,13.42-11.04,17.02-19.05,36.18-23.29,56.72-1.03,4.98-5.37,8.58-10.46,8.59l-12,.04c-5.91.02-10.69,4.83-10.67,10.74l.11,30.38c.02,5.91,4.83,10.69,10.74,10.67l12-.04c5.08-.02,9.45,3.55,10.52,8.52,4.38,20.51,12.53,39.61,23.69,56.55,2.79,4.23,2.23,9.84-1.34,13.43l-8.48,8.53c-4.17,4.19-4.14,10.97.05,15.14l21.55,21.4c4.19,4.17,10.97,4.14,15.14-.05l8.48-8.53c3.57-3.6,9.17-4.19,13.42-1.43,17.02,11.04,36.18,19.05,56.72,23.29,4.98,1.03,8.58,5.37,8.59,10.46ZM1637.3,1106.61c-5.9-1.74-11.55-4.07-16.88-6.92-15.52-8.31-28.33-21.03-36.74-36.49-2.89-5.31-5.26-10.94-7.04-16.83-2.48-8.19-3.84-16.88-3.87-25.88-.03-9,1.26-17.7,3.69-25.91,1.74-5.9,4.07-11.55,6.92-16.88,8.31-15.52,21.03-28.33,36.49-36.74,5.31-2.89,10.94-5.26,16.83-7.04,8.19-2.48,16.88-3.84,25.88-3.87,9-.03,17.69,1.26,25.91,3.69,5.9,1.74,11.55,4.07,16.88,6.92,15.52,8.31,28.33,21.03,36.74,36.49,2.89,5.31,5.26,10.94,7.04,16.83,2.48,8.19,3.84,16.88,3.87,25.88.03,9-1.26,17.7-3.69,25.91-1.74,5.9-4.07,11.55-6.92,16.88-8.31,15.52-21.03,28.33-36.49,36.74-5.31,2.89-10.94,5.26-16.83,7.04-8.19,2.48-16.88,3.84-25.88,3.87-9,.03-17.7-1.26-25.91-3.69Z"/>
                <path class="cls-25" d="M1623.35,1635.48l2.84,14.21c1.4,7,8.2,11.54,15.2,10.15l35.96-7.17c7-1.4,11.54-8.2,10.15-15.2l-2.84-14.21c-1.2-6.02,2.01-12.02,7.66-14.44,23.28-9.95,44.02-24.04,61.51-41.19,4.37-4.28,11.14-4.93,16.23-1.53l12.08,8.06c5.94,3.96,13.96,2.36,17.92-3.58l20.36-30.5c3.96-5.94,2.36-13.96-3.58-17.92l-12.08-8.06c-5.09-3.4-7.09-9.89-4.81-15.57,9.12-22.73,14.18-47.29,14.43-72.61.06-6.14,4.37-11.41,10.39-12.61l14.21-2.84c7-1.4,11.54-8.2,10.15-15.2l-7.17-35.96c-1.4-7-8.2-11.54-15.2-10.15l-14.21,2.84c-6.02,1.2-12.02-2.01-14.44-7.66-9.95-23.28-24.04-44.02-41.19-61.51-4.28-4.37-4.93-11.14-1.53-16.23l8.06-12.08c3.96-5.94,2.36-13.96-3.58-17.92l-30.5-20.36c-5.94-3.96-13.96-2.36-17.92,3.58l-8.06,12.08c-3.4,5.09-9.89,7.09-15.57,4.81-22.73-9.12-47.29-14.18-72.61-14.43-6.14-.06-11.41-4.37-12.61-10.39l-2.84-14.21c-1.4-7-8.2-11.54-15.2-10.15l-35.96,7.17c-7,1.4-11.54,8.2-10.15,15.2l2.84,14.21c1.2,6.02-2.01,12.02-7.66,14.44-23.28,9.95-44.02,24.04-61.51,41.19-4.37,4.28-11.14,4.93-16.23,1.53l-12.08-8.06c-5.94-3.96-13.96-2.36-17.92,3.58l-20.36,30.5c-3.96,5.94-2.36,13.96,3.58,17.92l12.08,8.06c5.09,3.4,7.09,9.89,4.81,15.57-9.12,22.73-14.18,47.29-14.43,72.61-.06,6.14-4.37,11.41-10.39,12.61l-14.21,2.84c-7,1.4-11.54,8.2-10.15,15.2l7.17,35.96c1.4,7,8.2,11.54,15.2,10.15l14.21-2.84c6.02-1.2,12.02,2.01,14.44,7.66,9.95,23.28,24.04,44.02,41.19,61.51,4.28,4.37,4.93,11.14,1.53,16.23l-8.06,12.08c-3.96,5.94-2.36,13.96,3.58,17.92l30.5,20.36c5.94,3.96,13.96,2.36,17.92-3.58l8.06-12.08c3.4-5.09,9.89-7.09,15.57-4.81,22.73,9.12,47.29,14.18,72.61,14.43,6.14.06,11.41,4.37,12.61,10.39ZM1602.71,1532.02c-7.39-.7-14.63-2.14-21.6-4.29-20.32-6.24-38.44-18.34-52-34.71-4.65-5.62-8.77-11.74-12.25-18.3-4.84-9.13-8.47-19.11-10.59-29.76-2.13-10.66-2.61-21.26-1.64-31.55.7-7.39,2.14-14.63,4.29-21.6,6.24-20.32,18.34-38.44,34.71-52,5.62-4.65,11.74-8.77,18.3-12.25,9.13-4.84,19.11-8.47,29.76-10.59s21.26-2.61,31.55-1.64c7.39.7,14.63,2.14,21.6,4.29,20.32,6.24,38.44,18.34,52,34.71,4.65,5.62,8.77,11.74,12.25,18.3,4.84,9.13,8.47,19.11,10.59,29.76,2.13,10.66,2.61,21.26,1.64,31.55-.7,7.39-2.14,14.63-4.29,21.6-6.24,20.32-18.34,38.44-34.71,52-5.62,4.65-11.74,8.77-18.3,12.25-9.13,4.84-19.11,8.47-29.76,10.59-10.66,2.13-21.26,2.61-31.55,1.64Z"/>
                <path class="cls-25" d="M1275.39,1150.67c-3.46-34.7-13.41-67.77-28.72-97.83-3.82-7.51-1.88-16.67,4.69-21.95l15.58-12.54c7.66-6.17,8.87-17.37,2.7-25.03l-31.68-39.34c-6.16-7.66-17.37-8.87-25.03-2.7l-15.58,12.54c-6.57,5.29-15.93,5.23-22.45-.11-26.1-21.38-56.29-38.16-89.44-48.95-8.04-2.62-13.18-10.46-12.28-18.86l2.14-19.85c1.06-9.77-6.01-18.55-15.79-19.61l-50.22-5.42c-9.77-1.06-18.55,6.01-19.61,15.79l-2.14,19.85c-.91,8.41-7.61,14.97-16.02,15.81-34.7,3.46-67.77,13.41-97.83,28.72-7.51,3.83-16.67,1.88-21.95-4.69l-12.54-15.58c-6.17-7.66-17.37-8.87-25.03-2.7l-39.35,31.68c-7.66,6.17-8.87,17.37-2.7,25.03l12.54,15.58c5.29,6.57,5.23,15.93-.11,22.45-21.38,26.1-38.16,56.29-48.95,89.44-2.62,8.04-10.46,13.18-18.86,12.28l-19.85-2.14c-9.77-1.06-18.55,6.01-19.61,15.79l-5.42,50.22c-1.06,9.77,6.01,18.55,15.79,19.61l19.85,2.14c8.41.91,14.97,7.61,15.81,16.02,3.46,34.7,13.41,67.77,28.72,97.83,3.82,7.51,1.88,16.67-4.69,21.95l-15.58,12.54c-7.66,6.17-8.87,17.37-2.7,25.03l31.68,39.34c6.17,7.66,17.37,8.87,25.03,2.7l15.58-12.54c6.57-5.29,15.93-5.23,22.45.11,26.1,21.38,56.29,38.16,89.44,48.95,8.04,2.62,13.18,10.46,12.28,18.86l-2.14,19.85c-1.06,9.77,6.01,18.55,15.79,19.61l50.22,5.42c9.77,1.06,18.55-6.01,19.61-15.79l2.14-19.85c.91-8.41,7.61-14.97,16.02-15.81,34.7-3.46,67.77-13.41,97.83-28.72,7.51-3.82,16.67-1.88,21.95,4.69l12.54,15.58c6.16,7.66,17.37,8.87,25.03,2.7l39.34-31.68c7.66-6.17,8.87-17.37,2.7-25.03l-12.54-15.58c-5.29-6.57-5.23-15.93.11-22.45,21.38-26.1,38.16-56.29,48.95-89.44,2.62-8.04,10.46-13.18,18.86-12.28l19.85,2.14c9.77,1.06,18.55-6.01,19.61-15.79l5.42-50.22c1.06-9.77-6.01-18.55-15.79-19.61l-19.85-2.14c-8.41-.91-14.97-7.61-15.81-16.02ZM1148.36,1194.58c-1.61,14.88-5.35,29.01-10.87,42.13-3.97,9.43-8.86,18.33-14.55,26.61-16.59,24.12-39.97,42.94-67.08,54-9.3,3.8-19.05,6.67-29.11,8.54-14,2.6-28.6,3.24-43.48,1.63-14.88-1.61-29.01-5.35-42.13-10.87-9.43-3.97-18.33-8.86-26.61-14.55-24.12-16.59-42.94-39.97-54-67.08-3.8-9.3-6.67-19.05-8.54-29.11-2.6-14-3.24-28.6-1.63-43.48,1.61-14.88,5.35-29.01,10.87-42.13,3.97-9.43,8.86-18.33,14.55-26.61,16.59-24.12,39.97-42.94,67.08-54,9.3-3.8,19.05-6.67,29.11-8.54,14-2.6,28.6-3.24,43.48-1.63,14.88,1.61,29.01,5.35,42.13,10.87,9.43,3.97,18.33,8.86,26.61,14.55,24.12,16.59,42.94,39.97,54,67.08,3.8,9.3,6.67,19.05,8.54,29.11,2.6,14,3.24,28.6,1.63,43.48Z"/>
                <path class="cls-6" d="M1855.29,1043.13c2.5-1.97,4.1-5.02,4.09-8.45l-.11-30.37c-.02-5.91-4.83-10.69-10.74-10.67l-12,.04c-5.08.02-9.45-3.55-10.52-8.52-4.38-20.51-12.53-39.61-23.69-56.55M1637.61,1193.99l.04,12c.02,5.91,4.83,10.69,10.74,10.67l30.38-.11c5.91-.02,10.69-4.83,10.67-10.74l-.04-12c-.02-5.08,3.55-9.45,8.52-10.52,20.51-4.38,39.61-12.53,56.55-23.69,4.23-2.79,9.84-2.23,13.43,1.34l8.53,8.48c4.19,4.17,10.97,4.14,15.14-.05l21.4-21.55M1637.3,1106.61c-5.9-1.74-11.55-4.07-16.88-6.92-15.52-8.31-28.33-21.03-36.74-36.49-2.89-5.31-5.26-10.94-7.04-16.83-2.48-8.19-3.84-16.88-3.87-25.88-.03-9,1.26-17.7,3.69-25.91,1.74-5.9,4.07-11.55,6.92-16.88,8.31-15.52,21.03-28.33,36.49-36.74,5.31-2.89,10.94-5.26,16.83-7.04,8.19-2.48,16.88-3.84,25.88-3.87,9-.03,17.69,1.26,25.91,3.69,5.9,1.74,11.55,4.07,16.88,6.92,15.52,8.31,28.33,21.03,36.74,36.49,2.89,5.31,5.26,10.94,7.04,16.83,2.48,8.19,3.84,16.88,3.87,25.88.03,9-1.26,17.7-3.69,25.91-1.74,5.9-4.07,11.55-6.92,16.88-8.31,15.52-21.03,28.33-36.49,36.74-5.31,2.89-10.94,5.26-16.83,7.04-8.19,2.48-16.88,3.84-25.88,3.87-9,.03-17.7-1.26-25.91-3.69Z"/>
                <path class="cls-6" d="M1841.96,1359.3c-1.4-7-8.2-11.54-15.2-10.15l-14.21,2.84c-6.02,1.2-12.02-2.01-14.44-7.66-9.95-23.28-24.04-44.02-41.19-61.51M1753.82,1567.62c4.37-4.28,11.14-4.93,16.23-1.53l12.08,8.06c5.94,3.96,13.96,2.36,17.92-3.58l20.36-30.5c3.96-5.94,2.36-13.96-3.58-17.92l-12.08-8.06c-5.09-3.4-7.09-9.89-4.81-15.57M1618.89,1628.05c2.23,1.84,3.85,4.42,4.45,7.43l2.84,14.21c1.4,7,8.2,11.54,15.2,10.15l35.96-7.17c7-1.4,11.54-8.2,10.15-15.2l-2.84-14.21c-1.2-6.02,2.01-12.02,7.66-14.44,23.28-9.95,44.02-24.04,61.51-41.19M1602.71,1532.02c-7.39-.7-14.63-2.14-21.6-4.29-20.32-6.24-38.44-18.34-52-34.71-4.65-5.62-8.77-11.74-12.25-18.3-4.84-9.13-8.47-19.11-10.59-29.76-2.13-10.66-2.61-21.26-1.64-31.55.7-7.39,2.14-14.63,4.29-21.6,6.24-20.32,18.34-38.44,34.71-52,5.62-4.65,11.74-8.77,18.3-12.25,9.13-4.84,19.11-8.47,29.76-10.59s21.26-2.61,31.55-1.64c7.39.7,14.63,2.14,21.6,4.29,20.32,6.24,38.44,18.34,52,34.71,4.65,5.62,8.77,11.74,12.25,18.3,4.84,9.13,8.47,19.11,10.59,29.76,2.13,10.66,2.61,21.26,1.64,31.55-.7,7.39-2.14,14.63-4.29,21.6-6.24,20.32-18.34,38.44-34.71,52-5.62,4.65-11.74,8.77-18.3,12.25-9.13,4.84-19.11,8.47-29.76,10.59-10.66,2.13-21.26,2.61-31.55,1.64Z"/>
                <path class="cls-6" d="M672.28,1174.63c1.72,7.09,7.72,12.68,15.39,13.51l19.85,2.14c8.41.91,14.97,7.61,15.81,16.02,3.46,34.7,13.41,67.77,28.72,97.83,3.82,7.51,1.88,16.67-4.69,21.95l-15.58,12.54c-7.66,6.17-8.87,17.37-2.7,25.03l31.68,39.34c6.17,7.66,17.37,8.87,25.03,2.7M971.54,902.46c-34.7,3.46-67.77,13.41-97.83,28.72-7.51,3.83-16.67,1.88-21.95-4.69l-12.54-15.58c-6.17-7.66-17.37-8.87-25.03-2.7l-39.35,31.68c-7.66,6.17-8.87,17.37-2.7,25.03l12.54,15.58c5.29,6.57,5.23,15.93-.11,22.45M1148.36,1194.58c-1.61,14.88-5.35,29.01-10.87,42.13-3.97,9.43-8.86,18.33-14.55,26.61-16.59,24.12-39.97,42.94-67.08,54-9.3,3.8-19.05,6.67-29.11,8.54-14,2.6-28.6,3.24-43.48,1.63-14.88-1.61-29.01-5.35-42.13-10.87-9.43-3.97-18.33-8.86-26.61-14.55-24.12-16.59-42.94-39.97-54-67.08-3.8-9.3-6.67-19.05-8.54-29.11-2.6-14-3.24-28.6-1.63-43.48,1.61-14.88,5.35-29.01,10.87-42.13,3.97-9.43,8.86-18.33,14.55-26.61,16.59-24.12,39.97-42.94,67.08-54,9.3-3.8,19.05-6.67,29.11-8.54,14-2.6,28.6-3.24,43.48-1.63,14.88,1.61,29.01,5.35,42.13,10.87,9.43,3.97,18.33,8.86,26.61,14.55,24.12,16.59,42.94,39.97,54,67.08,3.8,9.3,6.67,19.05,8.54,29.11,2.6,14,3.24,28.6,1.63,43.48Z"/>
            </g>
            <g>
                <path class="cls-6" d="M508.15,259.31h196.86l109.1,79.25-37.13-114.29V63.64c0-19.35-15.69-35.04-35.04-35.04h-233.79c-19.35,0-35.04,15.69-35.04,35.04v160.63c0,19.35,15.69,35.04,35.04,35.04Z"/>
                <g>
                    <path class="cls-17" d="M639.76,200.27h-3.87c-7.4,0-13.4-5.82-13.4-13v-25.76c0-7.18-6-13-13.4-13h-22.26c-7.4,0-13.4,5.82-13.4,13v25.76c0,7.18-6,13-13.4,13h-4.06c-7.4,0-13.4-5.82-13.4-13v-102.61c0-7.18,6-13,13.4-13h4.06c7.4,0,13.4,5.82,13.4,13v27.88c0,7.18,6,13,13.4,13h22.26c7.4,0,13.4-5.82,13.4-13v-27.88c0-7.18,6-13,13.4-13h3.87c7.4,0,13.4,5.82,13.4,13v102.61c0,7.18-6,13-13.4,13Z"/>
                    <path class="cls-17" d="M691.23,200.27h0c-8.15,0-14.75-6.66-14.75-14.88v-58.28c0-8.22,6.6-14.88,14.75-14.88h0c8.15,0,14.75,6.66,14.75,14.88v58.28c0,8.22-6.6,14.88-14.75,14.88Z"/>
                    <circle class="cls-17" cx="691.7" cy="85.64" r="14.2"/>
                </g>
            </g>
            <g>
                <path class="cls-27" d="M1654.81,344.25v1318.39c0,33.69-28.96,61-64.68,61h-609.37c-35.72,0-64.68-27.31-64.68-61V344.25c0-33.69,28.96-61.01,64.68-61.01h609.37c35.72,0,64.68,27.32,64.68,61.01Z"/>
                <path class="cls-19" d="M1654.81,362.46v6.08h-738.73v-6.08c0-35.39,28.96-64.08,64.68-64.08h609.37c35.72,0,64.68,28.69,64.68,64.08Z"/>
                <path class="cls-2" d="M1655.29,345.8v1315.28c0,34.72-28.14,62.88-62.86,62.88h-613.95c-34.72,0-62.88-28.15-62.88-62.88V345.8c0-34.71,28.15-62.87,62.88-62.87h613.95c34.72,0,62.86,28.15,62.86,62.87Z"/>
                <circle class="cls-27" cx="990.67" cy="333.45" r="14.12" transform="translate(438.53 1221.01) rotate(-76.72)"/>
                <circle class="cls-27" cx="1030.88" cy="334" r="14.12" transform="translate(468.97 1260.56) rotate(-76.72)"/>
                <circle class="cls-27" cx="1071.08" cy="334.54" r="14.12" transform="translate(499.4 1300.1) rotate(-76.72)"/>
                <rect class="cls-27" x="1545.88" y="317.7" width="52.15" height="31.51"/>
                <rect class="cls-27" x="1529.58" y="317.7" width="9.78" height="31.51"/>
            </g>
            <g>
                <polyline class="cls-1" points="1497.16 1059.36 1641.81 945.16 1631.88 744.44"/>
                <line class="cls-9" x1="1284.31" y1="572.91" x2="1284.31" y2="479.11"/>
                <polygon class="cls-22" points="1091.18 1062.69 1076.62 1104.52 1040.45 1208.38 1027.34 1246.04 1024.66 1312.93 1020.09 1427.32 1019.98 1430.08 1002.38 1429.37 986.85 1428.75 987.02 1424.31 991.8 1305.01 994.41 1239.79 1008.8 1198.43 1048.3 1085.02 1059.87 1051.78 1068.83 1054.9 1091.18 1062.69"/>
                <path class="cls-8" d="M1010.95,1488.76c6.66,8.72,10.46,39.94,13.51,52.89"/>
                <path class="cls-8" d="M1001.67,1510.55c-5.69,8.48-11.44,17.1-14.66,26.79-3.22,9.69-3.65,20.76,1.14,29.78"/>
                <path class="cls-8" d="M1013.77,1492.9c-14.17.45-27.33,8.61-36.31,19.58s-14.23,24.54-17.89,38.24"/>
                <path class="cls-8" d="M996.17,1483.52c-13.08,3.91-24.72,9.87-32.77,16.78-8.05,6.91-12.46,14.75-12.42,22.05"/>
                <path class="cls-19" d="M1036.9,1463.6c-9.04,19.23-15.05,34.1-39.9,32.17-4.17-.32-7.81-1.15-10.99-2.42-13.97-5.59-19.17-19.7-21.64-37.1-2.27-15.98,3.99-28.9,22.66-31.94,4.37-.71,9.43-.88,15.22-.42.66.05,1.34.12,2.02.18,6.08.62,11.35,1.73,15.82,3.26,19.43,6.61,24,20.97,16.81,36.27Z"/>
                <path class="cls-19" d="M1041.55,1259.42c-5.16,25.14-7.06,45.59-16.88,53.51-3.34,2.69-7.61,3.94-13.23,3.42-1.32-.12-2.59-.31-3.79-.56-6.98-1.44-12.09-5.04-15.85-10.78-7.66-11.7-9.68-32.32-10.32-61.94-.65-30.3,3.45-45.74,27.33-44.64,2.69.12,5.64.46,8.86,1,3.93.67,7.38,1.48,10.39,2.44,5.42,1.72,9.46,3.9,12.39,6.51,11.83,10.53,5.8,28.1,1.09,51.04Z"/>
                <path class="cls-19" d="M1350.53,565.52v20.31c0,2.34-.46,4.57-1.3,6.61-2.59,6.36-8.84,10.83-16.14,10.83h-100.31c-9.63,0-17.44-7.81-17.44-17.44v-20.31c0-9.63,7.81-17.43,17.44-17.43h100.31c9.63,0,17.44,7.8,17.44,17.43Z"/>
                <path class="cls-19" d="M1320.17,465.31c0,14.05-8.07,26.21-19.84,32.1-4.82,2.4-10.26,3.76-16.02,3.76-19.8,0-35.87-16.06-35.87-35.87,0-14.5,8.6-26.99,20.99-32.64,4.53-2.07,9.57-3.22,14.88-3.22,19.81,0,35.87,16.06,35.87,35.87Z"/>
                <path class="cls-19" d="M1496.51,1087.67l-21.22,198.17c-1.64,15.32-5.06,30.8-10.05,46.01-1.24,3.8-2.59,7.59-4.02,11.36-8.19,21.44-19.43,42.12-33.11,60.79-1.57,2.16-3.18,4.29-4.82,6.39-35.11,44.93-84.56,76.75-138.84,76.75-6.05,0-12.04-.4-17.96-1.17-46.9-6.1-89.25-35.56-120.41-75.26-1.65-2.09-3.26-4.22-4.84-6.37-13.28-18.05-24.3-37.97-32.48-58.63h0c-1.39-3.5-2.69-7.01-3.9-10.54-5.3-15.34-9.01-30.98-10.91-46.46l-24.39-199.38c-3.06-24.99,2.36-48.87,13.88-68.96,1.13-1.96,2.31-3.9,3.56-5.78.19-.29.38-.57.57-.85,1.58-2.37,3.25-4.67,5.01-6.9,20.38-25.94,52.09-42.84,88.15-42.84h204.42c36.24,0,68.12,17.07,88.5,43.28,1.75,2.24,3.41,4.55,4.98,6.92.12.19.26.39.38.58,1.24,1.89,2.42,3.82,3.54,5.79,11.17,19.58,16.57,42.76,13.97,67.09Z"/>
                <path class="cls-16" d="M1439.62,983.14c0,17.12-69.85,39.29-156.02,39.29s-156.02-22.17-156.02-39.29,69.85-31,156.02-31,156.02,13.88,156.02,31Z"/>
                <path class="cls-22" d="M1356.16,961.38c0,.9-.03,1.77-.08,2.63-1.03,15.06-11.02,23.06-26.22,27.22-12.57,3.43-28.69,4.25-46.27,4.25-38.88,0-70.6-3.98-72.48-31.47-.05-.85-.08-1.73-.08-2.63,0-4.01.59-7.93,1.71-11.7,7.16-24.26,36.16-42.41,70.85-42.41,19.61,0,37.42,5.81,50.48,15.24,9.96,7.18,17.16,16.47,20.32,26.91,1.16,3.85,1.77,7.84,1.77,11.94Z"/>
                <path class="cls-19" d="M1505.77,780.49c0,98.08-63.36,151.36-151.38,168.95-12.84,2.58-26.21,4.38-39.99,5.45-10.28.8-20.78,1.2-31.47,1.2-24.53,0-48.13-2.09-70.2-6.41-88.68-17.33-152.63-70.66-152.63-169.2s65.21-177.27,155.23-203.4c21.32-6.2,44.03-9.49,67.61-9.49.46,0,.91,0,1.37,0,14.87.07,29.4,1.47,43.44,4.08,7.75,1.43,15.35,3.24,22.78,5.4,90.03,26.13,155.24,103.89,155.24,203.4Z"/>
                <rect class="cls-22" x="1084.45" y="669.1" width="396.97" height="222.77" rx="94.2" ry="94.2"/>
                <circle class="cls-13" cx="1185.54" cy="780.49" r="27.3"/>
                <g>
                    <circle class="cls-22" cx="1234.97" cy="1120.34" r="17.36" transform="translate(-430.48 1201.4) rotate(-45)"/>
                    <circle class="cls-22" cx="1282.94" cy="1120.34" r="17.36" transform="translate(-28.44 2207.25) rotate(-80.78)"/>
                    <circle class="cls-22" cx="1330.9" cy="1120.34" r="17.36" transform="translate(-65.25 2158.23) rotate(-76.72)"/>
                </g>
                <circle class="cls-13" cx="1383.65" cy="780.49" r="27.3"/>
                <path class="cls-19" d="M1526.35,1057.03c0,7.46-1.28,14.52-3.57,20.81-1.75,4.8-4.08,9.14-6.86,12.86-5.11,6.81-11.75,11.55-19.17,13.19-1.89.42-3.83.64-5.8.64-19.56,0-20.66-21.27-20.66-47.5,0-18.74.56-34.95,8.01-42.67,2.98-3.09,7.06-4.82,12.65-4.82,19.55,0,35.41,21.26,35.41,47.5Z"/>
                <path class="cls-19" d="M1097.57,1057.03c0,26.23-1.1,47.5-20.66,47.5-.1,0-.19,0-.29,0-7.53-.07-14.49-3.3-20.19-8.74-3.12-2.97-5.87-6.61-8.12-10.75-4.28-7.85-6.81-17.52-6.81-27.99,0-26.23,15.86-47.5,35.41-47.5,1.71,0,3.28.17,4.72.48,15.03,3.27,15.95,23.08,15.95,47.02Z"/>
                <path class="cls-19" d="M1230.07,829.31c4.41-.42,8.81-.61,13.22-.92l13.22-.52c8.81-.3,17.62-.28,26.43-.43,8.81.16,17.62.13,26.43.44l13.22.52c4.41.31,8.81.49,13.22.91v3.74c-2.2,3.53-4.41,6.29-6.61,8.81-2.2,2.56-4.41,4.7-6.61,6.73-2.2,1.93-4.41,3.74-6.61,5.26-2.2,1.64-4.41,2.94-6.61,4.13-8.81,4.75-17.62,6.78-26.43,6.85-8.81,0-17.62-2.02-26.43-6.75-2.2-1.19-4.41-2.5-6.61-4.13-1.1-.83-2.2-1.55-3.3-2.47-1.1-.94-2.2-1.82-3.3-2.8-2.2-2.04-4.41-4.19-6.61-6.76-2.2-2.53-4.41-5.31-6.61-8.86v-3.74Z"/>
                <path class="cls-22" d="M1465.25,1331.85c-1.24,3.8-2.59,7.59-4.02,11.36-55.62,27.33-115.96,35.48-168.13,35.48-17.51,0-34.09-.92-49.29-2.34-55.83-5.21-103.53-18.09-135.05-30.63h0c-1.39-3.5-2.69-7.01-3.9-10.54,30.93,13.22,82.01,27.52,139.74,32.92,61.4,5.74,146.17,3.17,220.65-36.24Z"/>
                <path class="cls-22" d="M1478.63,1014.21c-13.71,6.88-28.61,12.94-44.67,18.16-44.27,14.41-97.08,21.98-153,21.98-1.55,0-3.11,0-4.67-.02-64.46-.49-120.96-12.44-188.72-40.58,1.58-2.37,3.25-4.67,5.01-6.9,65.91,27.17,121.04,38.73,183.78,39.2,77.65.58,145.61-13.1,197.29-38.76,1.75,2.24,3.41,4.55,4.98,6.92Z"/>
                <ellipse class="cls-14" cx="1282.94" cy="1634.43" rx="169.1" ry="27.22"/>
                <path class="cls-19" d="M1654.93,970.72c6.62-28.86,9.71-49.36,5.14-62.57-1.15-3.34-2.79-6.23-4.99-8.65-2.81-3.1-6.52-5.47-11.27-7.15-5.33-1.88-9.77-1.71-13.67.09-11.46,5.28-18.31,24.63-29.46,47.74-10.17,21.1-20.31,36.65-11.43,49.76,3.23,4.75,8.97,9.19,18.13,13.44.57.27,1.16.54,1.77.81,2.99,1.32,5.77,2.36,8.35,3.14,22.89,6.9,30.64-7.06,37.41-36.6Z"/>
                <path class="cls-8" d="M1621.73,711.1c-4.08-9.22-29.12-26.38-39.6-39.8"/>
                <path class="cls-8" d="M1620.81,686.11c1.09-10.15,2.18-20.46.53-30.53-1.65-10.08-6.42-20.08-14.86-25.84"/>
                <path class="cls-8" d="M1617.31,708.74c12.34-6.99,20.19-20.33,23.04-34.22,2.85-13.89,1.19-28.34-1.94-42.17"/>
                <path class="cls-8" d="M1637.25,708.87c9.77-9.54,17.3-20.23,21.21-30.1,3.91-9.86,4.17-18.85.74-25.3"/>
                <path class="cls-19" d="M1661.16,737.28c-4.58-21.08-12.91-36.94-35.41-37.05-8.81-.04-15.12,1.84-19.93,5.16-8.81,6.08-12.61,16.99-17.54,29.82-6.07,15.78-.46,29.78,19.4,34.96,4.57,1.2,9.91,1.92,16.02,2.1,4.01.12,7.68-.03,11-.42,2.2-.26,4.26-.62,6.17-1.07,18.41-4.39,23.72-17.72,20.29-33.5Z"/>
            </g>
            <g>
                <g>
                    <path class="cls-18" d="M299.47,1133.95s-29.07,25.78-50.6,11.46c-29.3-19.49-73.67-125.34-73.67-125.34-4.52-14.61,48.38-30.99,52.9-16.38l71.37,130.26Z"/>
                    <path class="cls-21" d="M175.03,988.91c-15.07,26.61,1.82,63.44,16.4,90.14,2.84,5.2,76.63-19.06,70.08-39.24-1.76-5.44-23.32-47.54-24.38-53.96-1.45-8.77-29.09-55.23-62.1,3.06Z"/>
                    <g>
                        <path class="cls-18" d="M254.23,1148.13c-10.78-3.11-6.81-46.62,5.3-49.74,35.08-9.01,126.32,10.98,126.32,10.98l2.88,32.85s-107.53,13.68-134.51,5.9Z"/>
                        <path class="cls-18" d="M421.58,1096.21c5.86-.83-6.64,21.69-2.46,23.37,3.8,1.52,20.3-14.08,24.28-13.3,9.49,1.87,9.34,28.93.5,35.54-33.81,25.27-44.08-.88-56.94.64-9.05,1.07-29.66-39.08-5.59-34.02,4.48.94,26.27-10.24,40.2-12.23Z"/>
                    </g>
                </g>
                <g>
                    <path class="cls-21" d="M1.03,1743.06c6.13,14.5,43.48,23.63,57.47,29.01,9.01,3.46,65.52,12.18,57.92-17.67-1.92-7.57-24.94-4.23-32.09-5.3-12.57-1.87-25.13-3.83-37.19-8.02-5.13-1.78-42.21-24.03-43.55-13.54-.46,3.61-5.79,7.88-2.56,15.52Z"/>
                    <path class="cls-18" d="M51.05,1672.01c-5.76-.83-11.53-1.66-17.29-2.49-.65-.09-1.33-.18-1.94.09-.84.39-1.34,1.4-1.76,2.35-5.92,13.33-9.77,28-11.32,43.07-.24,2.35-.34,5.04,1.05,6.8,1.07,1.36,2.72,1.74,4.25,2.05,8.22,1.67,16.44,3.34,24.67,5.01.96.2,1.99.38,2.86-.11.65-.37,1.12-1.08,1.54-1.77,5.74-9.26,9.84-19.86,12.83-30.84,1.02-3.73,1.91-7.69,1.28-11.6-1.33-8.23-10.16-11.7-16.18-12.57Z"/>
                    <path class="cls-31" d="M114.28,1751.48c10.43,9.84-15.2,15.07-23.13,15.69-11.74.92-22.93-1.56-33.79-5.26-11.64-3.96-37.99-16.01-48.41-22.69-7.41-4.76-8-8.05-1.9-19,1.24-2.22,8.26-16.07,13.64-11.19,4.38,3.97,13.13,10.1,19.31,10.58,12.28.96,15.63-3.2,19.22-.27,23.06,18.81,47.31,24.85,55.06,32.16Z"/>
                    <path class="cls-21" d="M364.8,1752.27c-5.72,11.91-72.64,7.15-85.76,7.38-7.84.14-49.2,5.74-38.05-18.38,3.76-8.14,32.11-2.87,40.49-3.01,13.22-.23,25.98-1.59,39.12-2.7,11.29-.95,40.32-12.02,45.64-1.13,1.4,2.87,1.25,12.25-1.43,17.84Z"/>
                    <path class="cls-31" d="M218.3,817.76c-2.32,7.77,9.68,12.94,13.79,21.18,12.35,24.75.82,46.35-16.22,55.49.73-11.32-2.98-30.12-13.24-44.74-2-2.85-3.73-5.4-5.23-7.69-5.2,4.43-13.01,10.16-23.39,8.51-78.06-12.39-7.56,107-44.93,71.47-18.84-17.91-36.36-22.93-31.2-47.34,6.67-31.57-5.13-15.33-.18-39.46,4.66-22.71,12.35-21.98,25.36-24.16,8.73-1.46,1.69-18.01,20-21.39,14.38-2.65,19.69,5.16,26.28,3,9.86-3.24,55.95,1.73,48.96,25.12Z"/>
                    <path class="cls-18" d="M249.97,1712.7c-2.56,23.3,1.87,23.66,25.59,24.74,19.51.89,18.62-5.01,17.08-25.58-1.46-19.53-2.21-16.17-21.64-19.18-15.04-2.33-18.97,1.24-21.03,20.02Z"/>
                    <path class="cls-22" d="M254.82,1261.85c13.79,40.24,41.05,164.35,44.15,196.22,3.77,38.76,10.12,169.89,6.8,226.44-1.1,18.65-64.64,18.52-65.62,1.48-2.65-45.78-19.63-153.4-16.25-201.05-11.47-21.46-52.53-134.97-74.74-171.45-19.82-32.55-42.41-20.58-41.94-58.57.32-25.61,84.25-96.68,119.45-76.67,15.43,8.77,17.71,53.15,28.15,83.6Z"/>
                    <path class="cls-22" d="M70.58,1258.5c-6.21,32.55-9.77,183.3-6.11,204.25-19.94,27.3-40.5,169.76-43.92,209.57-2.04,23.69,59.44,45.05,63.91,4.6,6.84-61.96,43.06-113.86,56.84-174.64,7.15-31.53,41.25-194.15,54.03-220.26,16.44-33.6,33.15-97.52,14.33-136.44-17.16-35.49-70.67-26.42-93.46.27-27.39,32.07-35.85,61.45-45.62,112.66Z"/>
                    <path class="cls-31" d="M361.83,1729.63c13.65,6.88-6.71,21.44-28.71,21.42-15.77-.01-70.45,2.23-83.14-1.41-9.03-2.59-10.62-5.79-7.62-18.93.61-2.67,3.69-19.06,10.67-15.72,5.69,2.73,16.47,6.15,22.99,4.89,4.82-.93,15.1-8.12,19.66-6.23,29.3,12.19,56.01,10.87,66.16,15.99Z"/>
                    <path class="cls-21" d="M237.26,988.56c6.14,87.95,4.12,190.85,20.58,271.95-16.18,10.36-179.93,14.48-189.88-1.49,27.76-131.48,0-180.39,3.12-247.39,1.53-32.74,28.31-50.66,72.86-60.29,27.5-5.94,91.07,5.03,93.32,37.22Z"/>
                    <path class="cls-11" d="M239.54,1028.64c3.66,77.97,4.28,162.82,18.3,231.86-16.18,10.36-179.93,14.48-189.88-1.49"/>
                    <path class="cls-18" d="M143.11,967.31c-.64,12.28,49.28,17.35,48.93,2.18-.39-16.91-.98-27.13-.16-43.33.42-8.24-45.1-17.93-46.2-5.21-1.07,12.34-1.74,30.38-2.57,46.36Z"/>
                    <path class="cls-23" d="M311.79,1691.49c-1.65,4.36-5.78,7.46-10.19,8.99s-40.49,5-53.79,1.84c-3.66-.87-7.49-2.18-9.7-5.2-1.95-2.66-1.22-23.69-1.84-31.3,5.67,2.27,8.98,3.07,14.97,4.35,5.54,1.18,11.29,1.92,16.92.93,13.21-2.33,21.74-8.19,33.26-15.24,1.17-.71,2.4-1.4,3.75-1.57,3.12-.39,5.9,2.23,6.78,5.22,1.21,4.09.79,29.45-.17,31.99Z"/>
                    <path class="cls-23" d="M76.34,1714.75c-4.47,1.73-49.09.26-60.47-12.57-4.36-4.91-.54-28.5.09-36.41,5.4,3.43,8.72,4.94,14.61,7.41,5.45,2.28,11.19,4.16,17.09,4.24,13.85.18,22.77-1.56,31.35-4.55,1.32-.46,5.51-1.35,6.91-1.44,7.95-.54,1.53,39.04-9.59,43.34Z"/>
                    <path d="M153.55,935.35c.03.29.07.58.11.87,1.13,7.22,12.05,13.97,23.84,16.09,6.73,1.21,14.48-4.18,14.89-12.68.16-6.25.17-1.02-.48-3.18-12.4-2.36-33.63-1.43-37.68-1.15-.44.02-.67.05-.68.06Z"/>
                    <path class="cls-18" d="M130.36,889.86c2.79,38.91,21.6,49.41,45.27,54.83,26.48,6.05,42.7-22.2,39.93-60.93-2.74-38.25-15.66-57.99-36.77-57.05-21.57.96-51.28,23.44-48.43,63.16Z"/>
                    <path class="cls-31" d="M221.27,817.94c-2.32,7.77-15.2,24.79-20.16,29.66-4.87,4.79-13.01,10.16-23.39,8.51-78.06-12.39-6.39,105.64-43.76,70.11-18.84-17.91-38.27-26.99-33.12-51.41,6.67-31.57-5.13-15.33-.18-39.46,4.66-22.71,12.35-21.98,25.36-24.16,8.73-1.46,1.69-18.01,20-21.39,14.38-2.65,19.69,5.16,26.28,3,9.86-3.24,55.95,1.73,48.96,25.12Z"/>
                    <path class="cls-18" d="M130.24,898.22c3.42,10.49,10.54,17.57,15.9,15.82,5.36-1.75,6.93-11.67,3.51-22.15-3.42-10.49-10.54-17.57-15.9-15.82-5.36,1.75-6.93,11.67-3.51,22.15Z"/>
                    <path class="cls-19" d="M169.56,914.03c9.02,21.6,30.04,9.38,26.95.41-4.07.16-22.17,2.9-26.95-.41Z"/>
                    <line class="cls-11" x1="172.75" y1="1362.15" x2="188.68" y2="1322.18"/>
                </g>
                <g>
                    <path class="cls-26" d="M815.32,645.92c-2.79-6.36-5.78-12.59-8.98-18.69-7.19-13.67-15.46-26.71-24.78-38.96-1.87-2.47-3.78-4.9-5.73-7.31-18.93-23.32-41.7-43.7-67.82-60.41-15.1-9.66-30.9-17.83-47.24-24.48-47.79-19.47-100.12-25.89-152.63-18.54-8.35,1.16-16.7,2.67-25.03,4.54-67.17,15.03-124.85,51.2-167.19,99.74-7.98,9.15-15.4,18.7-22.21,28.64-44.85,65.16-64.78,146.65-48.99,228.23,12.66,65.17,46.26,122.21,95.96,163.94.37.33.72.62,1.08.92.8.65,1.59,1.31,2.4,1.96,4.61,3.78,9.36,7.41,14.25,10.89,4.05,2.91,8.22,5.74,12.47,8.45.75.49,1.53.97,2.29,1.43,23.21,14.56,48,25.61,73.86,33.05,1.68.5,3.39.95,5.08,1.42.09.02.17.05.26.07,6.12,1.65,12.28,3.08,18.51,4.32,8.53,1.71,17.15,3.03,25.83,3.96,32.5,3.51,65.89,1.64,99.08-5.79.78-.16,1.57-.33,2.36-.54,23.6-5.45,46.02-13.57,66.99-23.86,15.81-7.8,30.8-16.84,44.87-27,45.2-32.62,80.8-76.67,103.11-126.69,17.04-38.14,26.39-79.73,26.43-122.38.02-9.39-.45-18.82-1.36-28.27-.89-9.27-2.21-18.55-4.03-27.82-2.01-10.43-4.57-20.66-7.67-30.65-3.18-10.34-6.89-20.41-11.16-30.18ZM447.96,1003.82s-.02,0-.02,0c-16.47-5.97-32.35-13.8-47.37-23.42-2.99-1.92-5.92-3.89-8.79-5.91-5.72-4.02-11.23-8.28-16.5-12.76-40.71-34.32-68.24-81.2-78.59-134.68-1.38-7.12-2.43-14.24-3.16-21.35-1.13-10.89-1.48-21.78-1.14-32.54,1.5-45.76,15.9-89.78,40.3-127.62,9.05-14.02,19.47-27.2,31.09-39.28,7.47-7.77,15.41-15.1,23.83-21.9,1.1-.88,2.22-1.79,3.33-2.67,13.86-10.84,28.92-20.37,45-28.26,2.76-1.37,5.55-2.67,8.39-3.92,15.41-6.91,31.7-12.38,48.71-16.2,10.92-2.45,21.88-4.16,32.79-5.15,36.27-3.29,72.19,1.37,105.64,13.65,16.26,5.95,31.95,13.71,46.81,23.22,7.77,4.97,15.17,10.34,22.21,16.08,9.1,7.41,17.58,15.44,25.36,24.02,11.47,12.64,21.48,26.45,29.89,41.27,5.25,9.26,9.89,18.91,13.86,28.92,5.48,13.77,9.7,28.15,12.59,43.06,5.66,29.16,5.75,58.35,1.02,86.4-1.25,7.45-2.83,14.82-4.75,22.08-14.61,55.43-48.21,105.15-94.65,140-24.64,18.56-52.93,32.87-83.92,41.67-4.62,1.29-9.33,2.5-14.05,3.56-29.3,6.55-58.78,7.85-87.33,4.08-17.26-2.27-34.2-6.41-50.54-12.35Z"/>
                    <path class="cls-26" d="M94.55,1456c32.31,26.4,77.54,16.55,104-15.78,3.39-4.13,6.42-8.87,8.79-13.4l91.43-136.74,160.24-239.65,10.05-15.01c9.28-18.1-26.9-35.28-44.99-44.53-10.24-5.22-26.88-15.82-40.24-18.94-7.18-1.69-13.38-1.22-17.14,3.38l-13.84,18.54-267.65,358.3c-26.46,32.34-22.95,77.45,9.34,103.83Z"/>
                    <path class="cls-17" d="M832.73,673.21c-1.72-4.42-3.55-8.79-5.47-13.1-2.85-6.34-5.89-12.56-9.14-18.63-8.77-16.39-19.06-31.88-30.77-46.29-1.9-2.33-3.83-4.64-5.8-6.92-17.77-20.53-38.51-38.7-61.85-53.99-20.03-13.11-41.28-23.61-63.3-31.41-45.84-16.27-95.08-20.86-144-13.08-4.77.76-9.55,1.65-14.32,2.64-65.73,13.73-121.78,48.52-162.57,95.82-7.67,8.91-14.81,18.23-21.34,27.96-42.94,63.68-61.15,143.96-44.25,224.91,10.91,52.13,35.08,99.25,70.01,137.62,4.39,4.82,8.96,9.52,13.69,14.07,1.96,1.89,3.93,3.74,5.94,5.57.01,0,.02,0,.02,0,2.42,2.21,4.89,4.38,7.39,6.51.01,0,.02,0,.02,0,.36.33.7.62,1.07.93,1.3,1.1,2.62,2.2,3.96,3.27.12.11.25.21.38.3h0c5.7,4.65,11.59,9.08,17.67,13.29.63.44,1.25.86,1.89,1.29,1.67,1.16,3.36,2.29,5.08,3.41.75.49,1.52.98,2.27,1.47,17.67,11.33,36.25,20.66,55.45,27.9,5.83,2.21,11.72,4.21,17.66,6.03,1.75.55,3.52,1.06,5.28,1.56,6.27,1.8,12.61,3.39,18.98,4.75h.01s.04,0,.06,0c.02,0,.03,0,.04.01,39.65,8.51,80.96,8.67,121.83.14.77-.15,1.54-.32,2.3-.49,23.1-4.99,44.99-12.65,65.42-22.49,15.4-7.44,29.97-16.13,43.62-25.92,43.86-31.51,78.09-74.48,99.17-123.58,6.83-15.88,12.28-32.4,16.24-49.37,2.41-10.26,4.26-20.69,5.55-31.25.13-1.09.27-2.18.37-3.27,1-9.05,1.59-18.19,1.72-27.4.06-3.09.05-6.2,0-9.31-.15-9.29-.75-18.63-1.8-27.99-1.04-9.18-2.5-18.38-4.43-27.59-.29-1.36-.58-2.73-.89-4.09-1.43-6.4-3.06-12.75-4.91-18.99-.71-2.47-1.48-4.92-2.26-7.37-.08-.27-.17-.52-.26-.79-1.76-5.46-3.67-10.84-5.74-16.15ZM725.82,605.09s.02.02.02.03c16.93,16.04,31.34,34.37,42.89,54.46,5.32,9.25,10.03,18.88,14.1,28.84.03.08.07.15.1.24.38.94.77,1.88,1.14,2.82.68,1.74,1.34,3.48,1.98,5.25,1.01,2.73,1.96,5.5,2.87,8.28.49,1.48.96,2.98,1.41,4.47.32,1.03.63,2.04.92,3.06.04.12.07.25.11.37.03.12.07.23.1.36.39,1.34.77,2.67,1.13,4.02.36,1.35.71,2.7,1.05,4.06.24.93.48,1.86.68,2.81.08.26.13.52.19.77.2.8.38,1.6.56,2.4.29,1.29.58,2.6.85,3.9.07.33.14.67.2,1,.23,1.14.46,2.28.67,3.42.13.59.24,1.18.33,1.76.26,1.41.51,2.82.74,4.24.21,1.27.41,2.54.6,3.81,0,.05.02.1.03.17.18,1.25.36,2.49.52,3.74.19,1.44.36,2.85.52,4.28.11.9.2,1.78.28,2.66.31,2.99.56,5.98.76,8.95.09,1.31.15,2.61.22,3.92.09,1.92.16,3.84.21,5.76.02.88.05,1.77.05,2.65.02.87.02,1.77.03,2.64,0,.74,0,1.49,0,2.22,0,.23,0,.46,0,.69,0,.79-.02,1.58-.04,2.36-.02.88-.04,1.76-.07,2.64-.01.67-.04,1.33-.06,1.98-.03,1.08-.09,2.15-.15,3.22-.08,1.56-.17,3.11-.28,4.65-.07,1.08-.15,2.15-.25,3.23-.02.3-.05.6-.08.91-.02.17-.03.34-.05.49-.08.89-.16,1.78-.26,2.66-.26,2.65-.57,5.29-.94,7.92-.16,1.18-.33,2.36-.5,3.53-.21,1.44-.44,2.87-.7,4.32,0,.07-.02.13-.04.2-.17,1.09-.37,2.19-.57,3.28-.1.56-.21,1.11-.32,1.68-.16.87-.33,1.73-.5,2.58-.11.54-.22,1.08-.33,1.62-.26,1.23-.52,2.46-.8,3.68-.33,1.47-.68,2.93-1.04,4.39-2.38,9.69-5.35,19.19-8.89,28.45-.6,1.56-1.21,3.13-1.84,4.68-.19.47-.38.93-.57,1.39-.48,1.21-1,2.42-1.54,3.62-.09.22-.17.44-.27.65-.63,1.48-1.29,2.97-1.98,4.44-.06.14-.12.27-.17.4-.47,1.02-.94,2.02-1.44,3.04-.23.5-.47,1-.72,1.51-.31.66-.64,1.33-.98,1.97-.44.94-.91,1.86-1.38,2.76-.18.36-.36.71-.55,1.06-.51,1.02-1.04,2.01-1.58,2.99-.39.77-.81,1.53-1.23,2.26-1.53,2.79-3.12,5.56-4.76,8.29-.65,1.08-1.31,2.15-1.97,3.19-1.5,2.43-3.06,4.83-4.67,7.21-.79,1.18-1.6,2.36-2.42,3.53-.74,1.09-1.51,2.15-2.28,3.2-.9,1.25-1.83,2.51-2.77,3.74-1.48,1.96-2.98,3.9-4.52,5.81-.08.09-.14.18-.22.27-.39.5-.8,1-1.21,1.5-1.31,1.62-2.66,3.22-4.03,4.81-.51.59-1.01,1.17-1.53,1.75-1.38,1.58-2.8,3.14-4.22,4.7-.72.77-1.44,1.54-2.16,2.3-.72.77-1.44,1.53-2.18,2.28-1.93,2-3.9,3.95-5.9,5.88-.79.76-1.58,1.51-2.38,2.25-.26.24-.51.48-.77.71-.92.85-1.85,1.7-2.79,2.55-1.06.95-2.13,1.89-3.21,2.83-.02,0-.03.02-.05.05-.83.72-1.66,1.43-2.5,2.13-.57.47-1.12.95-1.69,1.4-.78.67-1.58,1.31-2.38,1.95-.04.03-.08.05-.12.08-.86.71-1.74,1.41-2.63,2.08-.52.41-1.04.82-1.57,1.21-.85.67-1.7,1.33-2.57,1.97-1.63,1.22-3.27,2.43-4.94,3.59-.9.65-1.8,1.29-2.7,1.91-1.15.81-2.32,1.6-3.5,2.37-.62.42-1.25.83-1.89,1.23-.82.55-1.66,1.08-2.49,1.62h-.01c-1.97,1.26-3.96,2.49-5.98,3.68-.87.52-1.76,1.04-2.65,1.55-1.98,1.15-3.99,2.26-6.02,3.35-.83.45-1.66.89-2.5,1.32-.34.19-.67.37-1.02.53-.59.32-1.19.62-1.79.92-.61.31-1.23.62-1.85.93-2.7,1.34-5.43,2.63-8.19,3.86-1.04.47-2.1.94-3.14,1.38-3.17,1.38-6.37,2.67-9.61,3.91-1.08.42-2.17.83-3.25,1.22-1.92.7-3.85,1.39-5.79,2.04-1.94.66-3.9,1.29-5.87,1.9-2.82.88-5.67,1.7-8.54,2.47-4.5,1.21-9.1,2.33-13.74,3.29-1.54.32-3.08.63-4.62.91-.11.03-.23.05-.34.07-1.55.3-3.1.57-4.65.83-1.57.27-3.15.52-4.73.75-.09.02-.18.03-.27.04-1.52.22-3.06.43-4.59.62t-.02,0c-1,.15-2,.27-3,.37-1,.12-2,.23-3,.33-3,.32-6,.57-9,.76-.65.04-1.31.08-1.97.12-1.36.08-2.74.14-4.11.2-.97.03-1.93.06-2.89.09-1.39.04-2.8.07-4.19.08-2.63.03-5.26.02-7.87-.04-1.19-.03-2.38-.06-3.57-.11-.97-.04-1.95-.08-2.93-.13-3.91-.18-7.81-.46-11.7-.85-1.01-.09-2.02-.2-3.02-.31-.17-.02-.34-.03-.51-.07-1.27-.14-2.52-.28-3.77-.45-1.26-.16-2.52-.32-3.78-.51-.17-.02-.34-.04-.51-.08-1.3-.2-2.6-.39-3.89-.6-.15-.03-.29-.05-.42-.07-2.56-.42-5.1-.88-7.63-1.39-.24-.05-.48-.09-.72-.16-1.03-.2-2.05-.42-3.08-.64-.32-.05-.62-.12-.94-.2-1.22-.27-2.42-.55-3.63-.83-1.33-.31-2.66-.64-3.98-.98-.04,0-.07-.02-.12-.03-.01,0-.03,0-.04,0-25.62-6.54-50.26-17.33-73.04-32.24-8.85-5.81-17.27-12.11-25.17-18.89-40.58-34.64-68.41-81.48-79.48-134.56-1.48-7.06-2.65-14.12-3.47-21.16-1.29-10.81-1.83-21.58-1.66-32.21.68-45.25,14.09-88.54,37.42-125.55,8.65-13.73,18.66-26.58,29.87-38.35,7.21-7.55,14.89-14.66,23.04-21.26.63-.52,1.29-1.03,1.92-1.54.43-.35.87-.7,1.3-1.04,13.44-10.49,28.07-19.65,43.72-27.19,2.68-1.3,5.41-2.56,8.18-3.74,15.03-6.56,30.94-11.69,47.59-15.2,1.59-.34,3.17-.65,4.76-.95,1.38-.27,2.77-.51,4.17-.74.54-.11,1.1-.19,1.65-.28.89-.15,1.79-.3,2.69-.43.86-.14,1.73-.27,2.6-.38.89-.13,1.77-.25,2.65-.36.88-.12,1.76-.22,2.65-.33,1.11-.13,2.22-.26,3.33-.39.08,0,.17-.02.25-.02,1.85-.2,3.7-.37,5.54-.52,1.01-.08,2.01-.16,3.02-.23.02,0,.05,0,.08-.01,1.53-.1,3.07-.19,4.61-.27.04,0,.08,0,.12,0,1.48-.07,2.96-.14,4.43-.18.27-.01.55-.02.83-.02,1.15-.04,2.31-.06,3.47-.06.4-.02.8-.02,1.22-.02,1.78-.01,3.57-.02,5.37.02.97,0,1.94.02,2.91.05.4.01.79.02,1.18.04,1.08.03,2.16.07,3.25.12.63.02,1.27.06,1.9.09,1.29.06,2.6.15,3.9.23,1.38.09,2.76.2,4.15.32,1.76.14,3.51.32,5.26.5h.02c.9.1,1.8.2,2.7.31,1.44.17,2.89.36,4.32.56.98.13,1.96.27,2.95.43,1.37.21,2.75.42,4.1.65,1.15.19,2.29.39,3.43.61,2.24.41,4.48.84,6.71,1.32.91.2,1.82.39,2.73.6.87.2,1.73.39,2.59.61,4.42,1.04,8.82,2.22,13.18,3.53.18.06.38.11.56.18,1.02.29,2.04.6,3.04.93,4.14,1.3,8.23,2.72,12.3,4.25.61.23,1.22.47,1.83.7.97.37,1.94.74,2.9,1.14,1.37.54,2.71,1.1,4.06,1.67,1.33.56,2.67,1.14,4,1.73,2.93,1.29,5.84,2.65,8.73,4.07,1.09.54,2.18,1.08,3.26,1.63,1.31.66,2.63,1.36,3.92,2.05,1.23.64,2.43,1.3,3.64,1.98,1.05.58,2.11,1.17,3.15,1.78.89.5,1.78,1.02,2.64,1.54.3.17.59.33.87.51.84.49,1.66.99,2.49,1.5.9.55,1.79,1.11,2.69,1.67,1.23.77,2.47,1.57,3.7,2.37,7.72,5.06,15.09,10.49,22.1,16.3,4.28,3.54,8.43,7.2,12.44,11,.02,0,.02.02.04.03Z"/>
                    <path class="cls-17" d="M106.62,1470.59c32.39,26.49,77.69,16.68,104.16-15.7,3.39-4.14,6.42-8.88,8.79-13.42l91.43-136.93,160.24-239.98,10.05-15.03c9.27-18.13-26.98-35.38-45.11-44.68-10.26-5.24-26.95-15.88-40.33-19.02-7.19-1.7-13.41-1.23-17.16,3.36l-13.84,18.56-267.71,358.77c-26.47,32.38-22.9,77.59,9.48,104.07Z"/>
                    <g class="cls-30">
                        <path class="cls-28" d="M795.9,706.15c2.85,8.67,5.22,17.53,7.11,26.59.07.33.14.68.2,1.01,5.97,29.01,6.48,57.95,2.31,85.72-.89,5.93-2,11.81-3.3,17.62-.33,1.49-.69,2.97-1.05,4.46-2.41,9.84-5.43,19.47-9.02,28.87-16.59,43.54-45.33,81.89-82.91,110-24.25,18.2-52.19,32.08-82.95,40.37-4.57,1.23-9.24,2.36-13.94,3.33-37.35,7.8-75.15,6.89-111.06-2.28-.01,0-.03,0-.04,0-25.99-6.64-50.99-17.59-74.11-32.71-8.98-5.9-17.52-12.29-25.54-19.17-41.17-35.15-69.41-82.67-80.64-136.52-1.5-7.16-2.69-14.33-3.52-21.47-1.31-10.97-1.86-21.9-1.69-32.68.69-45.91,14.29-89.84,37.97-127.38,8.78-13.93,18.93-26.96,30.31-38.91,7.32-7.66,15.11-14.88,23.38-21.57.64-.53,1.31-1.05,1.95-1.56.44-.36.88-.71,1.32-1.05,13.64-10.64,28.48-19.94,44.36-27.59,2.72-1.32,5.49-2.59,8.3-3.79,15.25-6.66,31.39-11.86,48.28-15.42,25.73-5.37,51.69-6.62,77.09-3.86,38.16,4.13,75.05,17.25,108.09,38.88,7.83,5.13,15.31,10.64,22.42,16.53,4.36,3.6,8.57,7.33,12.66,11.19,0,.01.02.02.02.03,17.18,16.28,31.79,34.87,43.52,55.25,5.4,9.39,10.18,19.15,14.3,29.26,2.26,5.51,4.33,11.12,6.17,16.83Z"/>
                    </g>
                    <path class="cls-15" d="M379.28,617.2c12.2-9.06,25.29-17.05,39.2-23.75,2.69-1.3,5.41-2.55,8.18-3.74,15.02-6.57,30.94-11.69,47.59-15.2,25.36-5.29,50.94-6.52,75.97-3.81,37.61,4.08,73.98,17,106.54,38.32,7.73,5.05,15.09,10.49,22.1,16.29,4.3,3.55,8.45,7.23,12.48,11.04,0,.01.02.02.02.03,16.93,16.04,31.34,34.36,42.89,54.46,5.32,9.25,10.03,18.88,14.1,28.83,2.23,5.44,4.26,10.97,6.09,16.6,2.81,8.54,5.14,17.28,7,26.2.08.33.15.67.2,1,5.89,28.6,6.4,57.12,2.28,84.48-.88,5.85-1.96,11.64-3.26,17.38-.33,1.46-.68,2.92-1.03,4.39-2.38,9.69-5.35,19.19-8.9,28.45-10.89,28.59-27.11,54.92-47.67,77.48.15-.1.29-.2.43-.31,37.04-27.71,65.36-65.5,81.71-108.42,3.54-9.26,6.52-18.76,8.9-28.45.36-1.47.71-2.94,1.03-4.39,1.29-5.74,2.38-11.52,3.26-17.38,4.12-27.36,3.61-55.88-2.28-84.48-.05-.33-.12-.67-.2-1-1.86-8.93-4.2-17.66-7-26.2-1.83-5.63-3.86-11.16-6.09-16.6-4.07-9.95-8.78-19.57-14.1-28.83-11.55-20.1-25.95-38.42-42.89-54.46,0-.01-.02-.02-.02-.03-4.03-3.81-8.18-7.48-12.48-11.04-7.01-5.8-14.37-11.24-22.1-16.29-32.56-21.31-68.93-34.24-106.54-38.32-25.03-2.72-50.61-1.49-75.97,3.81-16.65,3.51-32.57,8.64-47.59,15.2-2.77,1.18-5.49,2.43-8.18,3.74-15.64,7.54-30.28,16.7-43.72,27.19-.43.34-.87.68-1.3,1.03-.63.5-1.3,1.02-1.93,1.54-8.16,6.6-15.84,13.7-23.04,21.25-1.25,1.31-2.48,2.63-3.7,3.98Z"/>
                    <path class="cls-29" d="M505.01,967.13c60.58,7.96,118.75-7,101.42-43.17-6.69-13.97-30.57,6.49-77.99,3.53-90.14-5.62-122.65-51.64-122.48-28.79.24,32.25,35.14,60.02,99.04,68.42Z"/>
                </g>
                <g>
                    <path class="cls-18" d="M203.21,1161.9s-31.71,22.45-51.54,5.87c-27-22.57-59.55-132.63-59.55-132.63-2.9-15.01,51.47-25.53,54.37-10.51l56.73,137.27Z"/>
                    <path class="cls-21" d="M95.33,1004.14c-17.88,24.81-5.11,63.26,6.47,91.39,2.26,5.48,78.25-10.58,73.94-31.35-9.28-44.77-35.63-122.14-80.41-60.03Z"/>
                    <path class="cls-11" d="M101.8,1095.53c2.26,5.48,78.8-10.7,73.94-31.35-3.8-16.16-15.04-38.49-22.19-58.44"/>
                    <g>
                        <path class="cls-18" d="M156.68,1171.05c-10.38-4.27-1.68-47.09,10.7-48.86,35.86-5.13,124.37,24.7,124.37,24.7l-.72,32.97s-108.38,1.86-134.35-8.82Z"/>
                        <path class="cls-18" d="M328.7,1137.7c5.91-.19-8.97,20.84-5,22.96,3.61,1.92,26.12,2.15,29.99,3.36,9.23,2.9,7.3,13.2-2.21,18.81-36.37,21.43-49.29-3.05-62.24-2.94-9.11.08-25.22-42.09-1.84-34.42,4.35,1.43,27.23-7.31,41.3-7.77Z"/>
                    </g>
                </g>
            </g>
            <g>
                <g>
                    <rect class="cls-25" x="2412.8" y="831.85" width="162" height="101.52" transform="translate(-2.35 6.66) rotate(-.15)"/>
                    <rect class="cls-20" x="2421.46" y="840.47" width="162" height="101.52" transform="translate(-2.37 6.68) rotate(-.15)"/>
                    <polygon class="cls-20" points="2502.6 940.91 2578.8 940.71 2540.62 909.49 2502.43 878.27 2464.41 909.69 2426.39 941.11 2502.6 940.91"/>
                    <polygon class="cls-20" points="2502.33 840.64 2579.64 840.44 2541.07 871.23 2502.49 902.03 2463.76 871.44 2425.02 840.85 2502.33 840.64"/>
                </g>
                <circle class="cls-5" cx="2498.13" cy="886.92" r="123"/>
                <circle class="cls-25" cx="2498.13" cy="763.42" r="22"/>
                <g>
                    <line class="cls-12" x1="2440.72" y1="740.92" x2="2467.72" y2="752.92"/>
                    <line class="cls-12" x1="2460.88" y1="716.88" x2="2478.55" y2="738.96"/>
                    <line class="cls-12" x1="2555.55" y1="740.92" x2="2528.55" y2="752.92"/>
                    <line class="cls-12" x1="2535.39" y1="716.88" x2="2517.72" y2="738.96"/>
                    <line class="cls-12" x1="2495.72" y1="707.92" x2="2495.72" y2="732.92"/>
                </g>
            </g>
            <g>
                <g>
                    <path class="cls-17" d="M68.91,243.32c-50.07,50.07-19.2,98.88-.36,111.96,14.29,9.92,26.41,9.76,36.36,4.68,11.28-5.76,14.08-15.23,13.56-20.52-.72-7.32-4.92-12.04-6.77-13.88-2.7-2.67-6.13-4.57-10.29-5.69-4.16-1.12-8.63-1.58-13.4-1.38-.26-6.06-11.9-25.26,8.74-43.98s49.65-10.36,54.72-8.16c5.07,2.2,10.23,5.9,15.48,11.09,4.48,4.43,7.92,8.85,10.35,13.27,2.43,4.42,4.47,8.85,5.34,13.47,1.71,8.98-1.8,28.64-1.9,33.99-.2,4.38-.29,8.82-.25,13.34.03,4.52.48,9.01,1.34,13.46.86,4.46,2.34,8.87,4.44,13.23,2.09,4.36,5.15,8.53,9.16,12.49,4.17,4.12,9.39,7.86,15.65,11.26,7.22,3.92,13.88-7.06,7.96-10.6-1.89-1.13-3.49-2.53-5.05-3.8-1.56-1.28-2.88-2.45-3.96-3.52-5.4-5.34-8.82-11.49-10.26-18.45-1.43-6.96-1.88-14.26-1.34-21.91.54-7.64,5.26-20.02,6.68-27.94,1.42-7.92,2.44-15.5,2.34-22.75-.89-70.08-96.07-92.13-138.55-49.65Z"/>
                    <path class="cls-17" d="M251.66,398.09c1.76,1.74,3.03,3.69,3.82,5.88.79,2.18,1.09,4.45.91,6.8-.19,2.35-.82,4.66-1.9,6.92s-2.59,4.37-4.52,6.33c-1.93,1.95-4.01,3.47-6.23,4.54-2.22,1.07-4.49,1.73-6.81,1.97-2.32.24-4.56,0-6.73-.75-2.16-.74-4.12-1.98-5.87-3.71-1.75-1.73-3.01-3.71-3.77-5.93-.76-2.22-1.05-4.47-.87-6.76.18-2.28.8-4.58,1.85-6.87,1.05-2.29,2.54-4.41,4.48-6.37,1.86-1.89,3.93-3.38,6.18-4.49,2.25-1.1,4.54-1.78,6.86-2.02,2.32-.24,4.56,0,6.73.75,2.16.74,4.12,1.98,5.87,3.71Z"/>
                </g>
                <g>
                    <path class="cls-25" d="M66.03,250.45c-50.07,50.07-19.2,98.88-.36,111.96,14.29,9.92,26.41,9.76,36.36,4.68,11.28-5.76,14.08-15.23,13.56-20.52-.72-7.32-4.92-12.04-6.77-13.88-2.7-2.67-6.13-4.57-10.29-5.69-4.16-1.12-8.63-1.58-13.4-1.38-.26-6.06-11.9-25.26,8.74-43.98s49.65-10.36,54.72-8.16c5.07,2.2,10.23,5.9,15.48,11.09,4.48,4.43,7.92,8.85,10.35,13.27,2.43,4.42,4.47,8.85,5.34,13.47,1.71,8.98-1.8,28.64-1.9,33.99-.2,4.38-.29,8.82-.25,13.34.03,4.52.48,9.01,1.34,13.46.86,4.46,2.34,8.87,4.44,13.23,2.09,4.36,5.15,8.53,9.16,12.49,4.17,4.12,9.39,7.86,15.65,11.26,7.22,3.92,13.88-7.06,7.96-10.6-1.89-1.13-3.49-2.53-5.05-3.8-1.56-1.28-2.88-2.45-3.96-3.52-5.4-5.34-8.82-11.49-10.26-18.45-1.43-6.96-1.88-14.26-1.34-21.91.54-7.64,5.26-20.02,6.68-27.94,1.42-7.92,2.44-15.5,2.34-22.75-.89-70.08-96.07-92.13-138.55-49.65Z"/>
                    <path class="cls-25" d="M248.78,405.22c1.76,1.74,3.03,3.69,3.82,5.88.79,2.18,1.09,4.45.91,6.8-.19,2.35-.82,4.66-1.9,6.92-1.08,2.26-2.59,4.37-4.52,6.33s-4.01,3.47-6.23,4.54c-2.22,1.07-4.49,1.73-6.81,1.97-2.32.24-4.56,0-6.73-.75-2.16-.74-4.12-1.98-5.87-3.71-1.75-1.73-3.01-3.71-3.77-5.93-.76-2.22-1.05-4.47-.87-6.76.18-2.28.8-4.58,1.85-6.87,1.05-2.29,2.54-4.41,4.48-6.37,1.86-1.89,3.93-3.38,6.18-4.49,2.25-1.1,4.54-1.78,6.86-2.02,2.32-.24,4.56,0,6.73.75,2.16.74,4.12,1.98,5.87,3.71Z"/>
                </g>
                <g>
                    <path class="cls-25" d="M66.03,250.45c-50.07,50.07-19.2,98.88-.36,111.96,14.29,9.92,26.41,9.76,36.36,4.68,11.28-5.76,14.08-15.23,13.56-20.52-.72-7.32-4.92-12.04-6.77-13.88-2.7-2.67-6.13-4.57-10.29-5.69-4.16-1.12-8.63-1.58-13.4-1.38-.26-6.06-11.9-25.26,8.74-43.98s49.65-10.36,54.72-8.16c5.07,2.2,10.23,5.9,15.48,11.09,4.48,4.43,7.92,8.85,10.35,13.27,2.43,4.42,4.47,8.85,5.34,13.47,1.71,8.98-1.8,28.64-1.9,33.99-.2,4.38-.29,8.82-.25,13.34.03,4.52.48,9.01,1.34,13.46.86,4.46,2.34,8.87,4.44,13.23,2.09,4.36,5.15,8.53,9.16,12.49,4.17,4.12,9.39,7.86,15.65,11.26,7.22,3.92,13.88-7.06,7.96-10.6-1.89-1.13-3.49-2.53-5.05-3.8-1.56-1.28-2.88-2.45-3.96-3.52-5.4-5.34-8.82-11.49-10.26-18.45-1.43-6.96-1.88-14.26-1.34-21.91.54-7.64,5.26-20.02,6.68-27.94,1.42-7.92,2.44-15.5,2.34-22.75-.89-70.08-96.07-92.13-138.55-49.65Z"/>
                    <path class="cls-25" d="M248.78,405.22c1.76,1.74,3.03,3.69,3.82,5.88.79,2.18,1.09,4.45.91,6.8-.19,2.35-.82,4.66-1.9,6.92-1.08,2.26-2.59,4.37-4.52,6.33s-4.01,3.47-6.23,4.54c-2.22,1.07-4.49,1.73-6.81,1.97-2.32.24-4.56,0-6.73-.75-2.16-.74-4.12-1.98-5.87-3.71-1.75-1.73-3.01-3.71-3.77-5.93-.76-2.22-1.05-4.47-.87-6.76.18-2.28.8-4.58,1.85-6.87,1.05-2.29,2.54-4.41,4.48-6.37,1.86-1.89,3.93-3.38,6.18-4.49,2.25-1.1,4.54-1.78,6.86-2.02,2.32-.24,4.56,0,6.73.75,2.16.74,4.12,1.98,5.87,3.71Z"/>
                </g>
            </g>
            <g>
                <g>
                    <path class="cls-17" d="M2275.82,1132.39c-96.23-52.79-155.46,14.32-166.75,48.03-8.57,25.57-3.06,43.54,8.81,56.13,13.46,14.29,28.77,14.34,36.42,11.28,10.58-4.25,15.79-12.55,17.71-16.1,2.8-5.18,4.14-11.1,4-17.77-.14-6.67-1.39-13.52-3.76-20.54,8.91-3.02,32.42-28.66,69.23-6.07,36.81,22.59,36.95,69.38,35.88,77.88-1.08,8.5-4.34,17.79-9.78,27.85-4.64,8.58-9.73,15.63-15.25,21.15-5.52,5.53-11.23,10.49-17.72,13.79-12.62,6.44-43.39,9.74-51.4,11.91-6.6,1.59-13.25,3.4-19.95,5.41-6.71,2.01-13.2,4.62-19.45,7.83-6.26,3.22-12.18,7.33-17.75,12.34-5.58,5.01-10.45,11.37-14.61,19.06-4.33,7.99-7.62,17.38-9.96,28.18-2.7,12.45,16.52,17.6,19.22,7.25.86-3.3,2.25-6.29,3.47-9.17,1.23-2.87,2.4-5.34,3.52-7.42,5.6-10.35,13.27-18.11,23.01-23.26,9.73-5.15,20.41-8.99,32.02-11.5,11.61-2.51,32.07-.85,44.47-2.18,12.4-1.32,24.12-3.1,34.86-6.38,103.9-31.72,95.42-182.92,13.78-227.7Z"/>
                    <path class="cls-17" d="M2124.79,1471.45c-1.82,3.37-4.18,6.11-7.09,8.24-2.9,2.12-6.15,3.56-9.73,4.3-3.58.74-7.29.8-11.12.18-3.84-.63-7.63-1.96-11.38-3.98s-6.9-4.46-9.46-7.3c-2.56-2.83-4.52-5.93-5.88-9.27-1.37-3.35-1.97-6.79-1.81-10.33.16-3.54,1.15-6.99,2.97-10.35,1.82-3.36,4.22-6.09,7.18-8.18,2.97-2.09,6.19-3.5,9.68-4.22,3.48-.72,7.16-.8,11.03-.23,3.86.57,7.67,1.87,11.42,3.9,3.61,1.96,6.74,4.38,9.36,7.24,2.62,2.87,4.62,5.98,5.98,9.33,1.36,3.35,1.97,6.8,1.81,10.33s-1.15,6.99-2.97,10.35Z"/>
                </g>
                <g>
                    <path class="cls-25" d="M2267.25,1127.66c-96.23-52.79-155.46,14.32-166.75,48.03-8.57,25.57-3.06,43.54,8.81,56.13,13.46,14.29,28.77,14.34,36.42,11.28,10.58-4.25,15.79-12.55,17.71-16.1,2.8-5.18,4.14-11.1,4-17.77-.14-6.67-1.39-13.52-3.76-20.54,8.91-3.02,32.42-28.66,69.23-6.07,36.81,22.59,36.95,69.38,35.88,77.88-1.08,8.5-4.34,17.79-9.78,27.85-4.64,8.58-9.73,15.63-15.25,21.15-5.52,5.53-11.23,10.49-17.72,13.79-12.62,6.44-43.39,9.74-51.39,11.91-6.6,1.59-13.25,3.4-19.95,5.41-6.71,2.01-13.2,4.62-19.45,7.83-6.26,3.22-12.18,7.33-17.75,12.34-5.58,5.01-10.45,11.37-14.61,19.06-4.33,7.99-7.62,17.38-9.96,28.18-2.7,12.45,16.52,17.6,19.22,7.25.86-3.3,2.25-6.29,3.47-9.17,1.23-2.87,2.4-5.34,3.52-7.42,5.6-10.35,13.27-18.11,23.01-23.26,9.73-5.15,20.41-8.99,32.02-11.5,11.61-2.51,32.07-.85,44.47-2.18,12.4-1.32,24.12-3.1,34.86-6.38,103.9-31.72,95.42-182.92,13.78-227.7Z"/>
                    <path class="cls-25" d="M2116.22,1466.73c-1.82,3.37-4.18,6.11-7.09,8.24-2.9,2.12-6.15,3.56-9.73,4.3-3.58.74-7.29.8-11.12.18-3.84-.63-7.63-1.96-11.38-3.98-3.75-2.03-6.9-4.46-9.46-7.3-2.56-2.83-4.52-5.93-5.88-9.27-1.37-3.35-1.97-6.79-1.81-10.33.16-3.54,1.15-6.99,2.97-10.35,1.82-3.36,4.22-6.09,7.18-8.18,2.97-2.09,6.19-3.5,9.68-4.22,3.48-.72,7.16-.8,11.03-.23,3.86.57,7.67,1.87,11.42,3.9,3.61,1.96,6.74,4.38,9.36,7.24,2.62,2.87,4.62,5.98,5.98,9.33,1.36,3.35,1.97,6.8,1.81,10.33-.16,3.54-1.15,6.99-2.97,10.35Z"/>
                </g>
            </g>
            <g>
                <g>
                    <path class="cls-17" d="M2385.99,291.24c-22.32-9.36-43.56,1.8-50.51,20.36-1.38,3.68-3.33,7.72-4.73,12.63-1.4,4.9-2.96,10.82-4.68,17.76-1.72,6.94-3.81,14.98-6.28,24.11-2.47,9.14-5.55,19.75-9.25,31.83-3.7,12.08-8.29,25.72-13.78,40.92-5.48,15.2-13.67,35.71-19.87,51.06-2.57,6.37,14.97,14.72,18.36,9.14,10.69-17.63,19.94-33.09,28.76-46.63,8.82-13.54,16.94-25.43,24.35-35.66,7.41-10.23,14.01-19.09,19.82-26.57,5.8-7.47,10.96-13.99,15.46-19.54,4.5-5.56,8.28-10.37,11.35-14.44,3.07-4.07,5.09-8.09,7.23-11.38,10.04-15.43,3.6-45.27-16.24-53.59Z"/>
                    <path class="cls-17" d="M2287.08,539.68c-1.36,2.73-3.12,5-5.27,6.83-2.16,1.82-4.49,3.15-7.01,4-2.52.84-5.15,1.16-7.87.93-2.73-.22-5.36-.97-7.91-2.24-2.64-1.31-4.89-3-6.76-5.07-1.87-2.06-3.23-4.33-4.1-6.81-.87-2.48-1.21-5.09-1.03-7.84.17-2.75.94-5.49,2.3-8.22,1.36-2.73,3.11-5,5.27-6.83,2.15-1.82,4.48-3.13,6.98-3.93,2.5-.8,5.12-1.11,7.87-.93,2.75.18,5.44.92,8.08,2.24,2.55,1.27,4.73,2.92,6.55,4.96,1.82,2.04,3.19,4.31,4.1,6.81.91,2.5,1.28,5.12,1.1,7.87-.18,2.75-.94,5.49-2.3,8.22Z"/>
                </g>
                <g>
                    <path class="cls-25" d="M2378.67,283.93c-22.32-9.36-43.56,1.8-50.51,20.36-1.38,3.68-3.33,7.72-4.73,12.63-1.4,4.9-2.96,10.82-4.68,17.76-1.72,6.94-3.81,14.98-6.28,24.11-2.47,9.14-5.55,19.75-9.25,31.83-3.7,12.08-8.29,25.72-13.78,40.92-5.48,15.2-13.67,35.71-19.87,51.06-2.57,6.37,14.97,14.72,18.36,9.14,10.69-17.63,19.94-33.09,28.76-46.63,8.82-13.54,16.94-25.43,24.35-35.66,7.41-10.23,14.01-19.09,19.82-26.57,5.8-7.47,10.96-13.99,15.46-19.54,4.5-5.56,8.28-10.37,11.35-14.44,3.07-4.07,5.09-8.09,7.23-11.38,10.04-15.43,3.6-45.27-16.24-53.59Z"/>
                    <path class="cls-25" d="M2279.77,532.37c-1.36,2.73-3.12,5-5.27,6.83-2.16,1.82-4.49,3.15-7.01,4-2.52.84-5.15,1.16-7.87.93-2.73-.22-5.36-.97-7.91-2.24-2.64-1.31-4.89-3-6.76-5.07-1.87-2.06-3.23-4.33-4.1-6.81-.87-2.48-1.21-5.09-1.03-7.84.17-2.75.94-5.49,2.3-8.22,1.36-2.73,3.11-5,5.27-6.83,2.15-1.82,4.48-3.13,6.98-3.93,2.5-.8,5.12-1.11,7.87-.93,2.75.18,5.44.92,8.08,2.24,2.55,1.27,4.73,2.92,6.55,4.96,1.82,2.04,3.19,4.31,4.1,6.81.91,2.5,1.28,5.12,1.1,7.87-.18,2.75-.94,5.49-2.3,8.22Z"/>
                </g>
            </g>
        </g>
    </g>
</svg>