<?xml version="1.0" encoding="UTF-8"?><svg id="uuid-4e450e2e-6e3b-49a9-a139-d775ed4334a0" xmlns="http://www.w3.org/2000/svg" viewBox="0 0 465.2 439.95"><defs><style>.uuid-d0a9359c-8f72-4495-a978-5a3c8834ba55{fill:#0e74bb;}.uuid-2bb071b6-2fe4-4710-854d-62ac6f8df724{fill:#99b9ff;}.uuid-66854c8b-5a63-4a1c-a05a-c6ad4da650fc{fill:#fff;}.uuid-2dd5d3df-f3e7-4166-bcae-96c0fedd5fe8{fill:#080717;}.uuid-0fe9c77a-a706-4230-9473-f91a975f409e{fill:#1d1d1b;}</style></defs><path class="uuid-d0a9359c-8f72-4495-a978-5a3c8834ba55" d="M352.44,357.58c-48.81,98.04-147.96,88.22-163.54,56.4-23.47-30.6-22.25-69.69-45.08-85.09-19.4-19.87-44.17-19.81-71.79-31.75-25.12-7.17-79.68-56.03-50.13-120.84,32.25-64.06,105.64-49.6,124.73-28.64,24.47,19.83,34.92,43.48,59.99,50.61,23.17,12.06,51.76-5.04,88.66-2.52,32.6-3.91,101.07,61.82,57.16,161.83Z"/><path class="uuid-d0a9359c-8f72-4495-a978-5a3c8834ba55" d="M56.87,71.27C147.67-38.19,266.85.02,276.12,43.77c19.37,44.3,5.66,92.71,29.01,117.89,17.71,29.85,48.28,36.26,78.59,58.38,28.73,15.51,80.74,90.72,24.06,163.78-59.78,71.43-145.74,34.18-162.73,3.05-23.98-31.13-29.47-63.35-58.16-78.8-24.8-21.11-65.4-7.27-110.1-20.07-41.42-3.66-105.3-103.53-19.92-216.73Z"/><path class="uuid-66854c8b-5a63-4a1c-a05a-c6ad4da650fc" d="M130.62,287.42l32.75,53.59c8.62,14.1,22.06,24.61,37.82,29.56h0l30.66,69.37h65.68l-15.99-191.66-84.55-25.16-66.38,64.29Z"/><path class="uuid-66854c8b-5a63-4a1c-a05a-c6ad4da650fc" d="M207.49,133L95.69,55.69c-7.55-5.22-17.71.97-16.54,10.07h0c.3,2.36,1.39,4.56,3.1,6.23l97.99,95.95,27.25-34.94Z"/><path class="uuid-66854c8b-5a63-4a1c-a05a-c6ad4da650fc" d="M207.49,176.32l-111.8-77.31c-7.55-5.22-17.71.97-16.54,10.07h0c.3,2.36,1.39,4.56,3.1,6.23l97.99,95.95,27.25-34.94Z"/><rect class="uuid-0fe9c77a-a706-4230-9473-f91a975f409e" x="119.05" y="34.07" width="150.04" height="310.65" rx="6.73" ry="6.73"/><path class="uuid-2dd5d3df-f3e7-4166-bcae-96c0fedd5fe8" d="M256.37,346.61h-124.59c-8.06,0-14.61-6.56-14.61-14.61V46.8c0-8.06,6.55-14.61,14.61-14.61h124.59c8.06,0,14.61,6.56,14.61,14.61v285.2c0,8.06-6.56,14.61-14.61,14.61ZM131.77,35.97c-5.97,0-10.83,4.86-10.83,10.83v285.2c0,5.97,4.86,10.83,10.83,10.83h124.59c5.97,0,10.83-4.86,10.83-10.83V46.8c0-5.97-4.86-10.83-10.83-10.83h-124.59Z"/><rect class="uuid-66854c8b-5a63-4a1c-a05a-c6ad4da650fc" x="114.16" y="34.07" width="150.04" height="310.65" rx="6.73" ry="6.73"/><path class="uuid-2dd5d3df-f3e7-4166-bcae-96c0fedd5fe8" d="M251.48,346.61h-124.59c-8.06,0-14.61-6.56-14.61-14.61V46.8c0-8.06,6.56-14.61,14.61-14.61h124.59c8.06,0,14.61,6.56,14.61,14.61v285.2c0,8.06-6.56,14.61-14.61,14.61ZM126.88,35.97c-5.97,0-10.83,4.86-10.83,10.83v285.2c0,5.97,4.86,10.83,10.83,10.83h124.59c5.97,0,10.83-4.86,10.83-10.83V46.8c0-5.97-4.86-10.83-10.83-10.83h-124.59Z"/><path class="uuid-66854c8b-5a63-4a1c-a05a-c6ad4da650fc" d="M113.85,162.7l-23.62,12.28c-6.04,3.14-8.02,10.83-4.24,16.49l34.85,52.28h0c6.09-10.44,6.39-23.27.8-33.98l-7.79-14.93v-32.14Z"/><path class="uuid-66854c8b-5a63-4a1c-a05a-c6ad4da650fc" d="M110.21,203.07l-19.68,12.26c-5.03,3.14-6.23,9.94-2.56,14.6l33.79,43.02h0c4.58-9.47,3.97-20.63-1.6-29.55l-7.77-12.43-2.17-27.9Z"/><path class="uuid-2dd5d3df-f3e7-4166-bcae-96c0fedd5fe8" d="M120.84,245.65c-.63,0-1.22-.32-1.57-.84l-34.85-52.28c-.58-.87-.35-2.04.52-2.62.87-.58,2.04-.35,2.62.52l33.09,49.63c4.36-9.35,4.16-20.13-.68-29.41l-7.79-14.93c-.48-.93-.12-2.07.8-2.55.93-.48,2.07-.12,2.55.8l7.79,14.93c5.92,11.36,5.61,24.74-.84,35.81-.33.56-.93.92-1.58.94h-.06Z"/><path class="uuid-2dd5d3df-f3e7-4166-bcae-96c0fedd5fe8" d="M121.75,274.85c-.28,0-.56-.06-.82-.19-.94-.45-1.33-1.59-.88-2.53,4.32-8.94,3.76-19.3-1.5-27.73l-7.77-12.43c-.55-.89-.28-2.05.6-2.61.89-.56,2.05-.29,2.61.6l7.77,12.43c5.96,9.53,6.59,21.26,1.7,31.38-.33.67-1,1.07-1.7,1.07Z"/><path class="uuid-66854c8b-5a63-4a1c-a05a-c6ad4da650fc" d="M278.41,371.97l-4.41-6.59c-31.24-46.67-34.12-106.78-7.46-156.22h0v-59.66c0-6.52,3.54-15.79,6.63-22.65,1.54-3.4,6.46-3.11,7.58.46l23.68,75.49c4.53,14.43,7.05,29.4,7.5,44.52l3.51,116.98,34.85,75.66h-51.71l-20.18-67.98Z"/><path class="uuid-2dd5d3df-f3e7-4166-bcae-96c0fedd5fe8" d="M278.42,373.86c-.61,0-1.21-.29-1.57-.84l-4.41-6.59c-31.72-47.38-34.61-107.98-7.56-158.17.49-.92,1.64-1.27,2.56-.77.92.49,1.26,1.64.77,2.56-26.39,48.95-23.56,108.06,7.37,154.27l4.41,6.59c.58.87.35,2.04-.52,2.62-.32.22-.69.32-1.05.32Z"/><path class="uuid-2dd5d3df-f3e7-4166-bcae-96c0fedd5fe8" d="M348.35,131.54h-32.54c-7.49,0-13.58-6.09-13.58-13.59v-32.54c0-7.49,6.09-13.59,13.58-13.59h32.54c7.49,0,13.59,6.09,13.59,13.59v32.54c0,7.49-6.09,13.59-13.59,13.59ZM315.81,75.61c-5.4,0-9.8,4.4-9.8,9.8v32.54c0,5.41,4.4,9.8,9.8,9.8h32.54c5.41,0,9.8-4.4,9.8-9.8v-32.54c0-5.41-4.4-9.8-9.8-9.8h-32.54Z"/><path class="uuid-2dd5d3df-f3e7-4166-bcae-96c0fedd5fe8" d="M45.75,140.21h-23.05c-5.61,0-10.17-4.56-10.17-10.17v-23.05c0-5.61,4.56-10.17,10.17-10.17h23.05c5.61,0,10.17,4.56,10.17,10.17v23.05c0,5.61-4.56,10.17-10.17,10.17ZM22.7,100.6c-3.52,0-6.39,2.87-6.39,6.39v23.05c0,3.52,2.87,6.39,6.39,6.39h23.05c3.52,0,6.39-2.87,6.39-6.39v-23.05c0-3.52-2.87-6.39-6.39-6.39h-23.05Z"/><rect class="uuid-d0a9359c-8f72-4495-a978-5a3c8834ba55" x="123" y="118.67" width="60.45" height="60.45" rx="6.69" ry="6.69"/><path d="M161.64,164.04h-16.83v-3.95c-5.22-3.01-8.41-8.49-8.41-14.56,0-9.28,7.55-16.83,16.83-16.83s16.83,7.55,16.83,16.83c0,6.07-3.2,11.55-8.41,14.56v3.95ZM148.18,160.67h10.1v-2.63l.93-.46c4.61-2.3,7.48-6.91,7.48-12.05,0-7.42-6.04-13.46-13.46-13.46s-13.46,6.04-13.46,13.46c0,5.13,2.87,9.75,7.48,12.05l.93.46v2.63Z"/><rect x="144.81" y="165.72" width="16.83" height="3.37"/><rect x="151.54" y="147.21" width="3.37" height="13.46"/><rect x="149.86" y="145.53" width="6.73" height="3.37"/><path d="M146.49,145.53h-3.37c0-5.57,4.53-10.1,10.1-10.1v3.37c-3.71,0-6.73,3.02-6.73,6.73Z"/><path class="uuid-2bb071b6-2fe4-4710-854d-62ac6f8df724" d="M129.69,191.61h47.08c3.69,0,6.69,3,6.69,6.69v47.08c0,3.69-3,6.69-6.69,6.69h-47.08c-3.69,0-6.69-3-6.69-6.69v-47.08c0-3.69,3-6.69,6.69-6.69Z"/><rect class="uuid-d0a9359c-8f72-4495-a978-5a3c8834ba55" x="192.16" y="47.02" width="60.45" height="60.45" rx="6.69" ry="6.69"/><path class="uuid-66854c8b-5a63-4a1c-a05a-c6ad4da650fc" d="M241.47,76.33c-3.91-2.78-10.62-11.06-17.81-11.74-.14-.01-.28-.03-.42-.04-.17,0-.35-.05-.52-.05-.08,0-.15,0-.22.01-.07,0-.15-.01-.22-.01-.17,0-.35.04-.52.05-.14.01-.28.02-.42.04-7.43.71-14.35,9.53-18.2,12.01-.77.49-.77.82,0,1.31,3.85,2.47,10.77,11.3,18.2,12.01.14.01.28.03.42.04.17,0,.35.05.52.05.08,0,.15,0,.22-.01.07,0,.15.01.22.01.17,0,.35-.04.52-.05.14-.01.28-.02.42-.04,7.21-.69,13.95-9.03,17.86-11.78.92-.65.89-1.14-.05-1.8Z"/><path d="M230.65,77.25c0,4.57-3.7,8.27-8.27,8.27s-8.27-3.7-8.27-8.27,3.7-8.27,8.27-8.27,8.27,3.7,8.27,8.27Z"/><path class="uuid-66854c8b-5a63-4a1c-a05a-c6ad4da650fc" d="M231.82,74.12c0,2.18-1.77,3.94-3.94,3.94s-3.94-1.77-3.94-3.94,1.77-3.94,3.94-3.94,3.94,1.77,3.94,3.94Z"/><path class="uuid-2bb071b6-2fe4-4710-854d-62ac6f8df724" d="M198.84,118.8h47.08c3.69,0,6.69,3,6.69,6.69v47.08c0,3.69-3,6.69-6.69,6.69h-47.08c-3.69,0-6.69-3-6.69-6.69v-47.08c0-3.69,3-6.69,6.69-6.69Z" transform="translate(444.76 298.05) rotate(180)"/><path class="uuid-66854c8b-5a63-4a1c-a05a-c6ad4da650fc" d="M222.38,130.47c10.23,0,18.56,8.32,18.56,18.56s-8.32,18.56-18.56,18.56-18.56-8.33-18.56-18.56,8.33-18.56,18.56-18.56ZM222.38,164.49c8.53,0,15.47-6.94,15.47-15.46s-6.94-15.47-15.47-15.47-15.46,6.94-15.46,15.47,6.94,15.46,15.46,15.46Z"/><path class="uuid-66854c8b-5a63-4a1c-a05a-c6ad4da650fc" d="M222.38,132.15l.7.36c6.24,3.19,10.12,9.52,10.12,16.52s-3.88,13.32-10.12,16.51l-.7.36-.71-.36c-6.24-3.19-10.12-9.52-10.12-16.51s3.88-13.32,10.12-16.52l.71-.36ZM222.38,162.4c4.79-2.77,7.73-7.82,7.73-13.38s-2.94-10.61-7.73-13.38c-4.79,2.77-7.73,7.82-7.73,13.38s2.94,10.61,7.73,13.38Z"/><path class="uuid-66854c8b-5a63-4a1c-a05a-c6ad4da650fc" d="M222.38,155.21c4.73,0,9.25,1.8,12.71,5.06l-2.12,2.25c-2.89-2.72-6.65-4.22-10.59-4.22s-7.7,1.5-10.59,4.22l-2.12-2.25c3.46-3.26,7.98-5.06,12.71-5.06Z"/><path class="uuid-66854c8b-5a63-4a1c-a05a-c6ad4da650fc" d="M211.79,135.53c2.89,2.72,6.65,4.22,10.59,4.22s7.7-1.5,10.59-4.22l2.12,2.25c-3.47,3.26-7.98,5.06-12.71,5.06s-9.25-1.8-12.71-5.06l2.12-2.25Z"/><rect class="uuid-66854c8b-5a63-4a1c-a05a-c6ad4da650fc" x="220.83" y="132.01" width="3.09" height="34.02"/><rect class="uuid-66854c8b-5a63-4a1c-a05a-c6ad4da650fc" x="205.37" y="147.48" width="34.03" height="3.09"/><path d="M105.75,14.13h57.73c4.52,0,8.2,3.67,8.2,8.2v57.73c0,4.52-3.67,8.2-8.2,8.2h-57.73c-4.52,0-8.2-3.67-8.2-8.2V22.33c0-4.52,3.67-8.2,8.2-8.2Z"/><path class="uuid-2bb071b6-2fe4-4710-854d-62ac6f8df724" d="M135.71,25.81v9.72c4.44,0,8.46,1.8,11.37,4.71l6.87-6.87c-4.67-4.67-11.12-7.56-18.24-7.56h0Z"/><path class="uuid-2bb071b6-2fe4-4710-854d-62ac6f8df724" d="M151.79,51.61h9.72c0-7.12-2.89-13.57-7.56-18.24l-6.87,6.87c2.91,2.91,4.71,6.93,4.71,11.37Z"/><path class="uuid-66854c8b-5a63-4a1c-a05a-c6ad4da650fc" d="M151.79,51.61c0,4.44-1.8,8.46-4.71,11.37l6.87,6.87h0c1.52-1.52,2.85-3.23,3.95-5.08.12-.21.24-.41.36-.62.25-.44.48-.89.7-1.35.3-.62.57-1.25.82-1.89.11-.29.22-.58.32-.87.03-.1.07-.2.1-.3.12-.35.23-.71.33-1.06.06-.2.11-.41.17-.62.11-.41.2-.83.29-1.25.34-1.68.52-3.42.52-5.2h-9.72Z"/><path class="uuid-66854c8b-5a63-4a1c-a05a-c6ad4da650fc" d="M144.53,75.84c-1.05.38-2.1.69-3.16.93.56-.13,1.12-.26,1.68-.43,0,0,0,0,.01,0,.39-.11.77-.24,1.15-.37.02,0,.04-.02.06-.02.36-.13.72-.26,1.08-.41.04-.02.09-.04.13-.05.33-.14.66-.28.99-.43.07-.03.13-.06.2-.09.3-.14.61-.29.91-.45.08-.04.17-.09.25-.13.28-.15.56-.31.84-.47.09-.05.18-.11.27-.16,0,0,0,0,0,0,.27-.16.54-.33.8-.5.04-.03.08-.06.13-.08.05-.03.1-.06.15-.1.27-.18.53-.36.79-.55,0,0,0,0,0,0,.08-.06.16-.11.23-.17.28-.21.55-.42.82-.64.06-.05.12-.09.17-.14.29-.24.59-.49.87-.75.03-.03.06-.05.09-.08.32-.29.63-.58.93-.89h0l-6.87-6.87c-1.64,1.64-3.64,2.93-5.87,3.74l3.32,9.12Z"/><path class="uuid-66854c8b-5a63-4a1c-a05a-c6ad4da650fc" d="M129.77,76.71c.27.06.53.12.8.18.11.02.22.05.33.07.29.06.59.1.88.15.26.04.52.07.78.1.09.01.18.02.27.03.27.03.53.06.8.08.07,0,.13,0,.2.01.62.04,1.24.07,1.86.07v-9.71c-4.44,0-8.46-1.8-11.37-4.71l-6.87,6.87s.03.03.05.05c.29.29.59.57.89.84.03.03.06.05.09.08.29.26.58.51.87.75.06.05.11.09.17.14.27.22.54.43.82.64.08.06.16.11.24.17.26.19.53.37.79.55.09.06.18.12.27.18.26.17.53.34.8.5.09.06.19.11.28.17.07.04.14.08.21.12.21.12.41.24.62.35-.21-.11-.42-.23-.62-.35.21.12.41.24.62.35.08.04.17.09.25.13.3.16.6.3.91.45.07.03.13.06.2.09.33.15.66.29.99.43.04.02.09.04.13.05.09.03.18.07.26.1.27.11.54.21.82.31-.27-.1-.55-.2-.82-.31.27.11.54.21.82.31.02,0,.04.01.06.02.38.13.77.26,1.15.37,0,0,0,0,.01,0,.36.11.72.2,1.08.29.11.03.22.05.33.08Z"/><path class="uuid-66854c8b-5a63-4a1c-a05a-c6ad4da650fc" d="M135.71,77.4h0s0,0,0,0c.36,0,.73-.01,1.09-.03.09,0,.18,0,.28-.01.35-.02.7-.04,1.05-.08.09,0,.17-.02.26-.03.25-.03.51-.06.76-.09.16-.02.33-.04.49-.07.16-.02.31-.05.47-.08.39-.07.77-.14,1.16-.23.03,0,.07-.01.1-.02,1.06-.24,2.11-.55,3.16-.93l-3.32-9.12c-1.72.63-3.57.97-5.5.97v9.71Z"/><path class="uuid-d0a9359c-8f72-4495-a978-5a3c8834ba55" d="M135.71,35.53v-9.72c-4.6,0-8.91,1.2-12.65,3.31-.13.07-.26.15-.39.23-1.9,1.12-3.65,2.47-5.2,4.02l6.87,6.87c2.91-2.91,6.93-4.71,11.37-4.71Z"/><path class="uuid-d0a9359c-8f72-4495-a978-5a3c8834ba55" d="M116.5,34.39c-.26.29-.51.58-.75.87-.05.06-.09.12-.14.17-.22.27-.43.54-.64.82-.06.08-.12.16-.17.24-.19.26-.37.53-.55.79-.06.09-.12.18-.18.27-.17.26-.34.53-.5.8-.06.09-.11.19-.17.28-.16.28-.32.56-.47.84-.05.08-.09.17-.13.25-.16.3-.3.6-.45.9-.03.07-.06.13-.09.2-.15.33-.29.66-.43.99-.02.04-.04.09-.06.13-.14.36-.28.72-.41,1.08,0,.02-.02.04-.02.07-.13.38-.26.77-.37,1.15,0,0,0,0,0,.01-.35,1.19-.62,2.41-.79,3.63,0,0,0,0,0,0-.06.4-.11.8-.14,1.21,0,.02,0,.03,0,.05-.04.39-.07.79-.09,1.19,0,.02,0,.04,0,.07-.02.4-.03.79-.03,1.19h0s9.72,0,9.72,0c0-4.44,1.8-8.46,4.71-11.37l-6.87-6.87c-.31.31-.6.62-.89.93-.03.03-.05.06-.08.09Z"/><path class="uuid-d0a9359c-8f72-4495-a978-5a3c8834ba55" d="M119.63,51.61h-9.72c0,.38.01.77.03,1.15,0,.04,0,.09,0,.14.02.38.05.75.08,1.13,0,.04,0,.07.01.11.04.39.08.78.14,1.17,0,0,0,.01,0,.02.18,1.22.44,2.43.79,3.62,0,0,0,0,0,.01.11.38.24.76.37,1.13.01.03.02.06.03.09.12.35.26.7.4,1.05.02.06.05.11.07.17.13.32.27.65.42.97.04.08.07.16.11.24.14.29.28.59.43.88.02.03.03.06.05.1.03.07.07.13.11.2.14.27.29.53.44.8.03.06.06.11.1.16.03.06.07.11.1.17.15.25.3.5.46.74.04.06.08.13.12.19.03.05.07.1.1.15.17.25.33.49.51.73,0,0,0,0,0,0,.04.06.09.12.13.18.03.04.06.08.09.12.19.26.39.51.59.76.04.05.07.09.11.14.02.03.04.05.07.08.23.28.47.56.71.83.02.02.04.04.06.07.02.02.03.04.05.06.27.3.55.59.84.88,0,0,.01.01.02.02l6.87-6.87c-2.91-2.91-4.71-6.93-4.71-11.37Z"/><rect class="uuid-2dd5d3df-f3e7-4166-bcae-96c0fedd5fe8" x="330.19" y="91.21" width="3.78" height="20.96"/><rect class="uuid-2dd5d3df-f3e7-4166-bcae-96c0fedd5fe8" x="321.6" y="99.8" width="20.96" height="3.78"/><rect class="uuid-2dd5d3df-f3e7-4166-bcae-96c0fedd5fe8" x="401.6" y="19.53" width="3.78" height="40.35"/><rect class="uuid-2dd5d3df-f3e7-4166-bcae-96c0fedd5fe8" x="383.31" y="37.82" width="40.35" height="3.78"/><rect class="uuid-2dd5d3df-f3e7-4166-bcae-96c0fedd5fe8" x="451.6" y="102.48" width="3.78" height="23.42"/><rect class="uuid-2dd5d3df-f3e7-4166-bcae-96c0fedd5fe8" x="441.78" y="112.3" width="23.42" height="3.78"/><rect class="uuid-2dd5d3df-f3e7-4166-bcae-96c0fedd5fe8" x="21.66" y="299.27" width="3.78" height="47.11"/><rect class="uuid-2dd5d3df-f3e7-4166-bcae-96c0fedd5fe8" y="320.93" width="47.11" height="3.78"/><rect class="uuid-2dd5d3df-f3e7-4166-bcae-96c0fedd5fe8" x="69.91" y="146.54" width="3.78" height="20.96"/><rect class="uuid-2dd5d3df-f3e7-4166-bcae-96c0fedd5fe8" x="61.32" y="155.12" width="20.96" height="3.78"/><path class="uuid-66854c8b-5a63-4a1c-a05a-c6ad4da650fc" d="M85.99,191.48l34.85,52.28h0c6.09-10.44,6.39-23.27.8-33.98l-7.79-14.93-27.86-3.36Z"/><path class="uuid-2dd5d3df-f3e7-4166-bcae-96c0fedd5fe8" d="M120.84,245.65c-.63,0-1.22-.32-1.57-.84l-34.85-52.28c-.58-.87-.35-2.04.52-2.62.87-.58,2.04-.35,2.62.52l33.09,49.63c4.36-9.35,4.16-20.13-.68-29.41l-7.79-14.93c-.48-.93-.12-2.07.8-2.55.93-.48,2.07-.12,2.55.8l7.79,14.93c5.92,11.36,5.61,24.74-.84,35.81-.33.56-.93.92-1.58.94h-.06Z"/><path d="M162.72,237.02c-1.13,0-2.05-.92-2.05-2.05,0-.55.21-1.07.6-1.45.39-.39.9-.6,1.45-.6,1.13,0,2.05.92,2.05,2.05,0,.55-.21,1.06-.6,1.45-.39.39-.9.6-1.45.6h0Z"/><path d="M162.72,234.8c.09,0,.16.07.16.17,0,.08-.09.16-.17.16-.09,0-.16-.07-.16-.16,0-.08.09-.16.16-.16h0ZM162.72,231.02c-2.18,0-3.95,1.77-3.95,3.95,0,2.18,1.76,3.94,3.94,3.94h0c2.18,0,3.94-1.77,3.94-3.94,0-2.18-1.77-3.94-3.94-3.95h0Z"/><path d="M146.94,237.02c-1.13,0-2.05-.92-2.05-2.05,0-.55.21-1.07.6-1.45.39-.39.9-.6,1.45-.6,1.13,0,2.05.92,2.05,2.05,0,.55-.21,1.06-.6,1.45-.39.39-.9.6-1.45.6h0Z"/><path d="M146.94,234.8c.09,0,.16.07.16.17,0,.08-.09.16-.17.16-.09,0-.16-.07-.16-.16s.07-.16.16-.16h0ZM146.94,231.02c-2.18,0-3.95,1.77-3.95,3.95,0,2.18,1.76,3.94,3.94,3.94h0c2.18,0,3.94-1.77,3.94-3.94,0-2.18-1.77-3.94-3.94-3.95h0Z"/><rect x="149.57" y="233.07" width="10.52" height="3.78"/><polygon points="131.16 206.04 136.42 206.04 143 225.76 166.66 225.76 170.86 211.04 138.17 211.04 137.01 207.94 131.16 206.04"/><path d="M168.09,227.65h-26.46l-6.4-19.04h.04s-.22-.68-.22-.68h-3.9v-3.78h6.62l1.7,5.01h33.89l-5.28,18.5ZM144.36,223.87h20.88l3.12-10.94h-27.64l3.64,10.94Z"/><path d="M143.65,236.86c-3.58,0-6.49-2.91-6.49-6.49s2.91-6.49,6.49-6.49v3.78c-1.49,0-2.71,1.22-2.71,2.71s1.22,2.71,2.71,2.71v3.78Z"/></svg>