<svg height="200px" width="200px" version="1.1" id="_x32_" xmlns="http://www.w3.org/2000/svg" xmlns:xlink="http://www.w3.org/1999/xlink" viewBox="0 0 512 512" xml:space="preserve" fill="#000000"><g id="SVGRepo_bgCarrier" stroke-width="0"></g><g id="SVGRepo_tracerCarrier" stroke-linecap="round" stroke-linejoin="round"></g><g id="SVGRepo_iconCarrier"> <style type="text/css"> .st0{fill:#000000;} </style> <g> <polygon class="st0" points="0,0 0,40.478 292.346,40.478 292.346,219.686 398.949,219.686 398.949,197.01 315.03,197.01 315.03,40.478 471.53,40.478 471.53,101.706 398.949,101.706 398.949,124.405 471.53,124.405 471.53,471.522 208.372,471.522 208.372,512 512,512 512,0 "></polygon> <polygon class="st0" points="315.03,410.239 315.03,314.998 387.611,314.998 387.611,398.9 410.294,398.9 410.294,292.314 292.346,292.314 292.346,387.555 219.718,387.555 219.718,197.01 124.422,197.01 124.422,124.405 208.372,124.405 208.372,101.706 0,101.706 0,512 124.422,512 124.422,398.9 101.738,398.9 101.738,471.522 40.479,471.522 40.479,124.405 101.738,124.405 101.738,219.686 197.026,219.686 197.026,292.314 113.083,292.314 113.083,314.998 197.026,314.998 197.026,410.239 "></polygon> </g> </g></svg>