<?xml version="1.0" encoding="UTF-8"?>
<svg id="uuid-42a3952d-456e-48b2-9c77-f90868c95395" xmlns="http://www.w3.org/2000/svg" viewBox="0 0 479.15 415.86">
    <defs>
        <style>
            .uuid-369c1789-f957-429b-a519-5d3edf1dd37b{fill:#282d33;}.uuid-1f4cf2bf-0257-4525-8abc-bfe2ef706f37{fill:#0e74bb;}.uuid-103468ee-961f-4cab-83ca-3a4e05a06e8e{fill:#99b9ff;}.uuid-f84e7dfe-42d6-48df-8f79-2f96ed5e5ad9{fill:#fff;}.uuid-27c0fcb3-faf0-4bec-b8cd-8f0c693e9757{fill:#080717;}
        </style>
    </defs>
    <rect class="uuid-f84e7dfe-42d6-48df-8f79-2f96ed5e5ad9" x="208.67" y="218.13" width="268.6" height="195.86"
          rx="17.65" ry="17.65"/>
    <path class="uuid-369c1789-f957-429b-a519-5d3edf1dd37b"
          d="M459.62,220.01c8.7,0,15.78,7.08,15.78,15.77v160.55c0,8.7-7.08,15.78-15.78,15.78h-233.3c-8.7,0-15.78-7.08-15.78-15.78v-160.55c0-8.7,7.08-15.77,15.78-15.77h233.3ZM459.62,216.26h-233.3c-10.78,0-19.53,8.74-19.53,19.53v160.55c0,10.78,8.74,19.53,19.53,19.53h233.3c10.78,0,19.53-8.74,19.53-19.53v-160.55c0-10.78-8.74-19.53-19.53-19.53h0Z"/>
    <path class="uuid-103468ee-961f-4cab-83ca-3a4e05a06e8e"
          d="M427.48,338.82c-3.62,14.5-16.7,25.26-32.32,25.26-18.42,0-33.35-14.93-33.35-33.35,0-15.99,11.26-29.33,26.27-32.58v-34.79c-34.09,3.54-60.66,32.35-60.66,67.37,0,37.41,30.33,67.74,67.74,67.74,34.67,0,63.24-26.06,67.24-59.65h-34.92Z"/>
    <path class="uuid-f84e7dfe-42d6-48df-8f79-2f96ed5e5ad9"
          d="M430.37,329.87c-.45-18.51-15.25-33.53-33.68-34.33v-30.65c35.38.87,63.87,29.6,64.32,64.98h-30.65Z"/>
    <path class="uuid-27c0fcb3-faf0-4bec-b8cd-8f0c693e9757"
          d="M398.57,266.84c32.8,1.73,59.13,28.28,60.52,61.16h-26.93c-1.32-18.05-15.62-32.56-33.59-34.21v-26.96h0ZM395.16,262.99c-.11,0-.22,0-.34,0v34.4c.11,0,.22-.02.34-.02,18.42,0,33.35,14.93,33.35,33.35,0,.34-.04.67-.05,1.01h34.42c0-.34.03-.67.03-1.01,0-37.41-30.33-67.74-67.74-67.74h0Z"/>
    <path class="uuid-27c0fcb3-faf0-4bec-b8cd-8f0c693e9757"
          d="M420.02,352.9l24.35,24.35c9.72-10.29,16.26-23.62,18.03-38.42h-34.92c-1.33,5.31-3.93,10.11-7.45,14.07Z"/>
    <rect class="uuid-1f4cf2bf-0257-4525-8abc-bfe2ef706f37" width="272.35" height="199.61" rx="10.41" ry="10.41"/>
    <path class="uuid-27c0fcb3-faf0-4bec-b8cd-8f0c693e9757"
          d="M252.82,0H19.53C8.74,0,0,8.74,0,19.53v12.14h272.35v-12.14c0-10.78-8.74-19.53-19.53-19.53Z"/>
    <path class="uuid-1f4cf2bf-0257-4525-8abc-bfe2ef706f37"
          d="M28.1,16.53c0,3.3-2.68,5.98-5.98,5.98s-5.98-2.68-5.98-5.98,2.68-5.98,5.98-5.98,5.98,2.68,5.98,5.98Z"/>
    <path class="uuid-1f4cf2bf-0257-4525-8abc-bfe2ef706f37"
          d="M46.52,16.53c0,3.3-2.68,5.98-5.98,5.98s-5.98-2.68-5.98-5.98,2.68-5.98,5.98-5.98,5.98,2.68,5.98,5.98Z"/>
    <circle class="uuid-1f4cf2bf-0257-4525-8abc-bfe2ef706f37" cx="58.96" cy="16.53" r="5.98"/>
    <path class="uuid-27c0fcb3-faf0-4bec-b8cd-8f0c693e9757"
          d="M459.62,216.26h-233.3c-10.78,0-19.53,8.74-19.53,19.53v12.14h272.35v-12.14c0-10.78-8.74-19.53-19.53-19.53Z"/>
    <path class="uuid-f84e7dfe-42d6-48df-8f79-2f96ed5e5ad9"
          d="M234.9,232.79c0,3.3-2.68,5.98-5.98,5.98s-5.98-2.68-5.98-5.98,2.68-5.98,5.98-5.98,5.98,2.68,5.98,5.98Z"/>
    <path class="uuid-f84e7dfe-42d6-48df-8f79-2f96ed5e5ad9"
          d="M253.32,232.79c0,3.3-2.68,5.98-5.98,5.98s-5.98-2.68-5.98-5.98,2.68-5.98,5.98-5.98,5.98,2.68,5.98,5.98Z"/>
    <path class="uuid-f84e7dfe-42d6-48df-8f79-2f96ed5e5ad9"
          d="M271.74,232.79c0,3.3-2.68,5.98-5.98,5.98s-5.98-2.68-5.98-5.98,2.68-5.98,5.98-5.98,5.98,2.68,5.98,5.98Z"/>
    <path class="uuid-27c0fcb3-faf0-4bec-b8cd-8f0c693e9757"
          d="M271.91,271.12c0,4.11-3.34,7.45-7.45,7.45s-7.45-3.34-7.45-7.45,3.34-7.45,7.45-7.45,7.45,3.34,7.45,7.45Z"/>
    <path class="uuid-27c0fcb3-faf0-4bec-b8cd-8f0c693e9757"
          d="M279.89,291.08c0,8.52-6.91,18.6-15.43,18.6s-15.43-10.07-15.43-18.6,6.91-15.43,15.43-15.43,15.43,6.91,15.43,15.43Z"/>
    <path class="uuid-27c0fcb3-faf0-4bec-b8cd-8f0c693e9757"
          d="M283.49,287.57h-38.06c-4.89,0-7.83,5.42-5.18,9.52l6.37,13.01h35.67l6.37-13.01c2.65-4.1-.29-9.52-5.18-9.52Z"/>
    <polygon class="uuid-27c0fcb3-faf0-4bec-b8cd-8f0c693e9757"
             points="278.37 316.18 276.24 316.18 252.68 316.18 250.54 316.18 240.53 369.21 252.68 369.21 276.24 369.21 288.39 369.21 278.37 316.18"/>
    <path class="uuid-27c0fcb3-faf0-4bec-b8cd-8f0c693e9757"
          d="M292.49,384.69v-4.85h-42.22c-12.3,0-22.27,9.97-22.27,22.27v12.86h72.9v-12.86c0-7.06-3.29-13.34-8.42-17.42Z"/>
    <path class="uuid-27c0fcb3-faf0-4bec-b8cd-8f0c693e9757"
          d="M242.96,308.58h33.28v12.15h-33.28c-.49,0-.9-.4-.9-.9v-10.36c0-.49.4-.9.9-.9Z"/>
    <path class="uuid-27c0fcb3-faf0-4bec-b8cd-8f0c693e9757"
          d="M253.57,308.58h33.28v12.15h-33.28c-.49,0-.9-.4-.9-.9v-10.36c0-.49.4-.9.9-.9Z"
          transform="translate(539.53 629.32) rotate(180)"/>
    <path class="uuid-27c0fcb3-faf0-4bec-b8cd-8f0c693e9757"
          d="M235.78,367.69h46.91v15.19h-46.91c-.52,0-.93-.42-.93-.93v-13.32c0-.52.42-.93.93-.93Z"/>
    <path class="uuid-27c0fcb3-faf0-4bec-b8cd-8f0c693e9757"
          d="M260.16,367.69h33.91v15.19h-33.91c-.52,0-.93-.42-.93-.93v-13.32c0-.52.42-.93.93-.93Z"
          transform="translate(553.3 750.57) rotate(180)"/>
    <rect class="uuid-27c0fcb3-faf0-4bec-b8cd-8f0c693e9757" x="318.91" y="322.62" width="58.78" height="3.75"/>
    <polygon class="uuid-27c0fcb3-faf0-4bec-b8cd-8f0c693e9757"
             points="305.99 329.17 300.87 324.04 303.52 321.39 305.99 323.86 315.05 314.8 317.7 317.46 305.99 329.17"/>
    <rect class="uuid-27c0fcb3-faf0-4bec-b8cd-8f0c693e9757" x="318.91" y="344.57" width="48.67" height="3.75"/>
    <polygon class="uuid-27c0fcb3-faf0-4bec-b8cd-8f0c693e9757"
             points="305.99 351.11 300.87 345.99 303.52 343.34 305.99 345.81 315.05 336.75 317.7 339.4 305.99 351.11"/>
    <path class="uuid-f84e7dfe-42d6-48df-8f79-2f96ed5e5ad9"
          d="M77.37,85.76h129.24c18.08,0,32.74,14.66,32.74,32.74h0c0,16.92-12.83,30.84-29.29,32.56v17.41l-18.34-17.23h-114.34c-18.08,0-32.74-14.66-32.74-32.74h0c0-18.08,14.66-32.74,32.74-32.74Z"/>
    <rect class="uuid-369c1789-f957-429b-a519-5d3edf1dd37b" x="81.67" y="109.73" width="120.63" height="3.75"/>
    <rect class="uuid-369c1789-f957-429b-a519-5d3edf1dd37b" x="81.67" y="123.52" width="120.63" height="3.75"/>
    <path class="uuid-27c0fcb3-faf0-4bec-b8cd-8f0c693e9757"
          d="M18.68,88.61c.4-20.87,14-32.89,34.61-32.89,16.51,0,33.03,8.72,33.03,26.95,0,12.81-6.34,17.44-16.25,23.78-6.87,4.49-8.72,6.47-8.72,14.4h-20.87v-6.6c0-10.17,5.81-14.8,10.7-18.36,5.42-3.57,10.57-6.47,10.57-13.08,0-5.15-3.83-8.06-8.59-8.06-7.4,0-10.97,4.36-11.36,11.36v2.51h-23.12ZM38.63,127.45h24.57v24.57h-24.57v-24.57Z"/>
    <path class="uuid-27c0fcb3-faf0-4bec-b8cd-8f0c693e9757"
          d="M248.21,199.48h-41v-3.95c0-7.88,6.41-14.29,14.29-14.29h12.42c7.88,0,14.29,6.41,14.29,14.29v3.95ZM210.96,195.73h33.5v-.19c0-5.81-4.73-10.54-10.54-10.54h-12.42c-5.81,0-10.54,4.73-10.54,10.54v.19Z"/>
    <path class="uuid-27c0fcb3-faf0-4bec-b8cd-8f0c693e9757"
          d="M227.71,178.79c-5.6,0-10.15-4.56-10.15-10.15s4.56-10.15,10.15-10.15,10.15,4.56,10.15,10.15-4.56,10.15-10.15,10.15ZM227.71,162.23c-3.53,0-6.4,2.87-6.4,6.4s2.87,6.4,6.4,6.4,6.4-2.87,6.4-6.4-2.87-6.4-6.4-6.4Z"/>
</svg>