<?xml version="1.0" encoding="utf-8"?>
<!-- Generator: Adobe Illustrator 27.5.0, SVG Export Plug-In . SVG Version: 6.00 Build 0)  -->
<svg version="1.1" id="Ñëîé_1" xmlns="http://www.w3.org/2000/svg" xmlns:xlink="http://www.w3.org/1999/xlink" x="0px" y="0px"
	 viewBox="0 0 600 450" style="enable-background:new 0 0 600 450;" xml:space="preserve">
<radialGradient id="SVGID_1_" cx="308.9898" cy="-78.5034" r="454.4018" gradientUnits="userSpaceOnUse">
	<stop  offset="0" style="stop-color:#31024A"/>
	<stop  offset="1" style="stop-color:#2A023F"/>
</radialGradient>
<rect x="0" y="0" style="fill:url(#SVGID_1_);" width="600" height="450"/>
<linearGradient id="SVGID_00000026874091525567358500000016197558508629112477_" gradientUnits="userSpaceOnUse" x1="123.2261" y1="304.1497" x2="476.3976" y2="304.1497">
	<stop  offset="0" style="stop-color:#2D0244"/>
	<stop  offset="0.3433" style="stop-color:#53A5F8"/>
	<stop  offset="0.3807" style="stop-color:#6ABDFA"/>
	<stop  offset="0.4236" style="stop-color:#7DD2FC"/>
	<stop  offset="0.4663" style="stop-color:#88DEFE"/>
	<stop  offset="0.5079" style="stop-color:#8CE2FE"/>
	<stop  offset="0.5578" style="stop-color:#79CEFC"/>
	<stop  offset="0.6687" style="stop-color:#53A5F8"/>
	<stop  offset="0.7337" style="stop-color:#497CCA"/>
	<stop  offset="0.8246" style="stop-color:#3D4891"/>
	<stop  offset="0.9025" style="stop-color:#342267"/>
	<stop  offset="0.9635" style="stop-color:#2F0B4E"/>
	<stop  offset="1" style="stop-color:#2D0244"/>
</linearGradient>
<rect x="123.226" y="303.34" style="fill:url(#SVGID_00000026874091525567358500000016197558508629112477_);" width="353.172" height="1.619"/>
<radialGradient id="SVGID_00000083791869030511467800000017037273497671257511_" cx="299.8119" cy="198.4485" r="180.0261" gradientUnits="userSpaceOnUse">
	<stop  offset="0" style="stop-color:#53A5F8"/>
	<stop  offset="0.3113" style="stop-color:#4875C3"/>
	<stop  offset="1" style="stop-color:#2D0244"/>
</radialGradient>
<circle style="opacity:0.15;fill:url(#SVGID_00000083791869030511467800000017037273497671257511_);" cx="299.812" cy="198.448" r="180.026"/>
<radialGradient id="SVGID_00000155115096456503743220000003165975820049026437_" cx="297.9863" cy="198.4485" r="145.2044" gradientUnits="userSpaceOnUse">
	<stop  offset="0" style="stop-color:#F429F9"/>
	<stop  offset="0.1982" style="stop-color:#B91EC3"/>
	<stop  offset="0.3958" style="stop-color:#861494"/>
	<stop  offset="0.5799" style="stop-color:#5E0C6F"/>
	<stop  offset="0.7475" style="stop-color:#420755"/>
	<stop  offset="0.893" style="stop-color:#300345"/>
	<stop  offset="1" style="stop-color:#2A023F"/>
</radialGradient>
<circle style="opacity:0.3;fill:url(#SVGID_00000155115096456503743220000003165975820049026437_);" cx="297.986" cy="198.448" r="145.204"/>
<radialGradient id="SVGID_00000114777064997753503660000007522134653606250674_" cx="297.9863" cy="331.5918" r="86.5398" gradientUnits="userSpaceOnUse">
	<stop  offset="0" style="stop-color:#F429F9"/>
	<stop  offset="0.1982" style="stop-color:#B91EC3"/>
	<stop  offset="0.3958" style="stop-color:#861494"/>
	<stop  offset="0.5799" style="stop-color:#5E0C6F"/>
	<stop  offset="0.7475" style="stop-color:#420755"/>
	<stop  offset="0.893" style="stop-color:#300345"/>
	<stop  offset="1" style="stop-color:#2A023F"/>
</radialGradient>
<circle style="opacity:0.1;fill:url(#SVGID_00000114777064997753503660000007522134653606250674_);" cx="297.986" cy="331.592" r="86.54"/>
<radialGradient id="SVGID_00000177480806743114364340000011899983572847348404_" cx="1649.4114" cy="11.2033" r="244.7849" gradientTransform="matrix(-1 0 0 -1 1952.4877 302.5104)" gradientUnits="userSpaceOnUse">
	<stop  offset="0" style="stop-color:#FC2FFD"/>
	<stop  offset="0.0314" style="stop-color:#E92BEC"/>
	<stop  offset="0.1121" style="stop-color:#BD21C5"/>
	<stop  offset="0.1991" style="stop-color:#9619A2"/>
	<stop  offset="0.2911" style="stop-color:#761285"/>
	<stop  offset="0.3895" style="stop-color:#5B0C6D"/>
	<stop  offset="0.497" style="stop-color:#47085B"/>
	<stop  offset="0.6178" style="stop-color:#38044E"/>
	<stop  offset="0.7633" style="stop-color:#300346"/>
	<stop  offset="1" style="stop-color:#2D0244"/>
</radialGradient>
<polygon style="opacity:0.2;fill:url(#SVGID_00000177480806743114364340000011899983572847348404_);" points="300.573,138.927 
	492.626,249.809 300.579,360.687 108.527,249.806 "/>
<radialGradient id="SVGID_00000156557360394969786380000008189840903286938303_" cx="1649.4114" cy="33.1937" r="244.7849" gradientTransform="matrix(-1 0 0 -1 1952.4877 302.5104)" gradientUnits="userSpaceOnUse">
	<stop  offset="0" style="stop-color:#FC2FFD"/>
	<stop  offset="0.0314" style="stop-color:#E92BEC"/>
	<stop  offset="0.1121" style="stop-color:#BD21C5"/>
	<stop  offset="0.1991" style="stop-color:#9619A2"/>
	<stop  offset="0.2911" style="stop-color:#761285"/>
	<stop  offset="0.3895" style="stop-color:#5B0C6D"/>
	<stop  offset="0.497" style="stop-color:#47085B"/>
	<stop  offset="0.6178" style="stop-color:#38044E"/>
	<stop  offset="0.7633" style="stop-color:#300346"/>
	<stop  offset="1" style="stop-color:#2D0244"/>
</radialGradient>
<polygon style="opacity:0.2;fill:url(#SVGID_00000156557360394969786380000008189840903286938303_);" points="300.573,116.937 
	492.626,227.818 300.579,338.697 108.527,227.815 "/>
<g>
	<path style="fill:#9CF5FE;" d="M426.332,189.129v98c0,8.975-7.275,16.25-16.25,16.25H189.542c-8.975,0-16.25-7.275-16.25-16.25v-98
		c0-8.975,7.275-16.25,16.25-16.25h220.541C419.057,172.879,426.332,180.155,426.332,189.129z"/>
	
		<radialGradient id="SVGID_00000160164915802661191040000015914259995960773781_" cx="779.02" cy="-246.329" r="203.1763" gradientTransform="matrix(0 -1 1 0 463.269 975.1493)" gradientUnits="userSpaceOnUse">
		<stop  offset="0" style="stop-color:#3E068D"/>
		<stop  offset="1" style="stop-color:#29013E"/>
	</radialGradient>
	<path style="fill:url(#SVGID_00000160164915802661191040000015914259995960773781_);" d="M423.707,190.067v96.125
		c0,8.043-6.52,14.563-14.563,14.563H190.479c-8.043,0-14.563-6.52-14.563-14.563v-96.125c0-8.043,6.52-14.563,14.563-14.563
		h218.666C417.187,175.504,423.707,182.024,423.707,190.067z"/>
	<path style="fill:#320C54;" d="M182.743,228.851v18.556c0,0.571-0.463,1.035-1.035,1.035l0,0c-0.571,0-1.035-0.463-1.035-1.035
		v-18.556c0-0.571,0.463-1.035,1.035-1.035l0,0C182.28,227.817,182.743,228.28,182.743,228.851z"/>
</g>
<radialGradient id="SVGID_00000033329665548163098600000003392501681403361458_" cx="195.1653" cy="191.1014" r="105.8354" gradientUnits="userSpaceOnUse">
	<stop  offset="0" style="stop-color:#86E1FE"/>
	<stop  offset="0.0537" style="stop-color:#7ECFEE"/>
	<stop  offset="0.2471" style="stop-color:#6591BA"/>
	<stop  offset="0.4326" style="stop-color:#505E8E"/>
	<stop  offset="0.6055" style="stop-color:#40366C"/>
	<stop  offset="0.7629" style="stop-color:#341A53"/>
	<stop  offset="0.8995" style="stop-color:#2D0844"/>
	<stop  offset="1" style="stop-color:#2A023F"/>
</radialGradient>
<circle style="opacity:0.3;fill:url(#SVGID_00000033329665548163098600000003392501681403361458_);" cx="195.165" cy="191.101" r="105.835"/>
<radialGradient id="SVGID_00000025403721991518323570000014166477046974620042_" cx="398.9863" cy="191.1014" r="105.8354" gradientUnits="userSpaceOnUse">
	<stop  offset="0" style="stop-color:#86E1FE"/>
	<stop  offset="0.0537" style="stop-color:#7ECFEE"/>
	<stop  offset="0.2471" style="stop-color:#6591BA"/>
	<stop  offset="0.4326" style="stop-color:#505E8E"/>
	<stop  offset="0.6055" style="stop-color:#40366C"/>
	<stop  offset="0.7629" style="stop-color:#341A53"/>
	<stop  offset="0.8995" style="stop-color:#2D0844"/>
	<stop  offset="1" style="stop-color:#2A023F"/>
</radialGradient>
<circle style="opacity:0.3;fill:url(#SVGID_00000025403721991518323570000014166477046974620042_);" cx="398.986" cy="191.101" r="105.835"/>
<linearGradient id="SVGID_00000106855435400519779790000017509624481906313904_" gradientUnits="userSpaceOnUse" x1="353.6609" y1="241.7784" x2="442.3276" y2="241.7784">
	<stop  offset="0" style="stop-color:#417EE6"/>
	<stop  offset="0.1342" style="stop-color:#3C64C3"/>
	<stop  offset="0.3385" style="stop-color:#364194"/>
	<stop  offset="0.5335" style="stop-color:#31266F"/>
	<stop  offset="0.7141" style="stop-color:#2D1255"/>
	<stop  offset="0.875" style="stop-color:#2B0645"/>
	<stop  offset="1" style="stop-color:#2A023F"/>
</linearGradient>
<polygon style="opacity:0.5;fill:url(#SVGID_00000106855435400519779790000017509624481906313904_);" points="367.956,279.216 
	442.328,279.216 442.328,204.34 353.661,204.737 353.661,279.216 "/>
<linearGradient id="SVGID_00000103224907371268954790000008471408115598846645_" gradientUnits="userSpaceOnUse" x1="180.0111" y1="241.3822" x2="268.6778" y2="241.3822" gradientTransform="matrix(-1 0 0 1 422.6003 0)">
	<stop  offset="0" style="stop-color:#A0F5FE"/>
	<stop  offset="0.1404" style="stop-color:#86C0D4"/>
	<stop  offset="0.3097" style="stop-color:#6A87A7"/>
	<stop  offset="0.4741" style="stop-color:#535782"/>
	<stop  offset="0.6292" style="stop-color:#413265"/>
	<stop  offset="0.7728" style="stop-color:#351850"/>
	<stop  offset="0.9007" style="stop-color:#2D0843"/>
	<stop  offset="1" style="stop-color:#2A023F"/>
</linearGradient>
<polygon style="opacity:0.5;fill:url(#SVGID_00000103224907371268954790000008471408115598846645_);" points="228.294,278.82 
	153.923,278.82 153.923,203.944 242.589,204.34 242.589,278.82 "/>
<g>
	<g>
		
			<radialGradient id="SVGID_00000057855963057278744020000013692141175586697148_" cx="295.3323" cy="172.9107" r="101.8853" gradientUnits="userSpaceOnUse">
			<stop  offset="0" style="stop-color:#86E1FE"/>
			<stop  offset="0.1808" style="stop-color:#7DDAFE"/>
			<stop  offset="0.6522" style="stop-color:#6CCBFE"/>
			<stop  offset="1" style="stop-color:#66C6FE"/>
		</radialGradient>
		<path style="fill:url(#SVGID_00000057855963057278744020000013692141175586697148_);" d="M310.606,240.616
			c-0.422-3.78-3.481-6.874-7.256-7.337c-1.754-0.215-3.416,0.115-4.842,0.842c-2.647,1.35-5.508,2.23-8.479,2.23
			c-1.013,0-1.834-0.821-1.834-1.834V204.34h-30.178c-1.013,0-1.834,0.821-1.834,1.834l0,0c0,2.971,0.88,5.832,2.23,8.479
			c0.727,1.426,1.057,3.088,0.842,4.842c-0.463,3.775-3.557,6.834-7.337,7.256c-5.051,0.564-9.329-3.374-9.329-8.311
			c0-1.443,0.366-2.799,1.01-3.982c1.383-2.543,2.127-5.383,2.127-8.278v-0.006c0-1.013-0.821-1.834-1.833-1.834h-30.178v70.137
			c0,2.399,1.945,4.343,4.343,4.343h70.137v-30.178c0-1.013,0.821-1.834,1.834-1.834h0.006c2.895,0,5.735,0.744,8.278,2.127
			c1.184,0.644,2.54,1.01,3.982,1.01C307.232,249.946,311.171,245.668,310.606,240.616z"/>
	</g>
	
		<radialGradient id="SVGID_00000150103315887305117190000010022760142850668176_" cx="324.9295" cy="199.4105" r="87.7486" gradientUnits="userSpaceOnUse">
		<stop  offset="0" style="stop-color:#417EE6"/>
		<stop  offset="1" style="stop-color:#2F3FA1"/>
	</radialGradient>
	<path style="fill:url(#SVGID_00000150103315887305117190000010022760142850668176_);" d="M358.992,204.737
		c-1.013,0-1.834-0.821-1.834-1.834v-0.006c0-2.895,0.744-5.734,2.127-8.277c0.644-1.184,1.01-2.54,1.01-3.983
		c0-4.938-4.278-8.876-9.33-8.312c-3.78,0.423-6.874,3.482-7.336,7.256c-0.215,1.754,0.115,3.416,0.842,4.842
		c1.35,2.647,2.23,5.508,2.23,8.479c0,1.013-0.821,1.834-1.834,1.834H314.69v30.178c0,1.013,0.821,1.834,1.834,1.834
		c2.971,0,5.832-0.88,8.479-2.23c1.426-0.727,3.088-1.057,4.842-0.842c3.775,0.462,6.834,3.557,7.256,7.337
		c0.565,5.052-3.374,9.33-8.311,9.33c-1.443,0-2.799-0.366-3.982-1.01c-2.543-1.383-5.383-2.127-8.278-2.127h-0.006
		c-1.013,0-1.834,0.821-1.834,1.833v30.178h70.137c2.399,0,4.343-1.945,4.343-4.343v-70.137H358.992z"/>
	<g>
		<g>
			<g>
				<g>
					
						<radialGradient id="SVGID_00000131360068753302565490000009576457517839713450_" cx="361.3789" cy="162.1014" r="123.4538" gradientUnits="userSpaceOnUse">
						<stop  offset="0" style="stop-color:#9CF5FE"/>
						<stop  offset="0.2511" style="stop-color:#99F2FE"/>
						<stop  offset="0.4394" style="stop-color:#8FE9FD"/>
						<stop  offset="0.6073" style="stop-color:#7FD9FD"/>
						<stop  offset="0.7631" style="stop-color:#69C3FC"/>
						<stop  offset="0.9095" style="stop-color:#4BA6FA"/>
						<stop  offset="0.9411" style="stop-color:#449FFA"/>
					</radialGradient>
					<path style="fill:url(#SVGID_00000131360068753302565490000009576457517839713450_);" d="M367.792,160.053
						c2.402,0.882,10.519,4.69,15.435,5.612c0,0-8.604,5.428-11.51,7.436c-2.905,2.008-4.429,12.87-8.102,18.726
						c-3.672,5.855-5.235,9.777-3.329,11.547s3.003,1.569,3.003,1.569s-2.266,3.952-0.373,7.305
						c1.242,2.201,5.068,2.923,8.564,3.236c3.496,0.313,16.422,3.724,19.358,5.306c2.936,1.582,3.585,2.031,9.183,3.413
						c0,0,12.353,11.979,21.267,14.424c6.282,1.724,14.868,1.098,24.215,4.491c0.032-0.948,0.085-1.913,0.183-2.913
						c1.584-16.202,11.49-33.566,23.084-41.49c-10.466-8.698-23.831-20.929-32.449-32.996c0,0-3.667-2.478-6.008-3.88
						c-2.341-1.402-0.579-3.91-8.055-6.833c-2.496-0.976-4.514-0.972-5.83-1.47c-2.625-0.993-3.237-2.074-4.742-3.555
						c0,0-3.098-1.09-3.898-2.361c-0.799-1.271-2.784-2.922-5.131-2.501c-2.347,0.421-2.666,2.764-2.666,2.764
						s-4.11-1.665-6.013-2.09c-1.903-0.425-5.87-3.873-7.521-5.431c-1.651-1.558-5.945-1.993-6.786,0.398
						c-0.841,2.392,1.5,7.54,5.361,10.316c0,0-2.673,0.172-7.054-0.71c-4.381-0.881-5.298-0.361-8.455-1.178
						c-3.158-0.818-2.684-1.017-4.127-1.708c-1.443-0.691-6.466-2.458-7.685,1.842c-1.219,4.299,2.907,6.74,3.744,7.071
						C362.292,156.726,365.39,159.172,367.792,160.053z M389.271,182.452c0,0,3.741,0.619,4.44-0.014c0,0,0.484,6.438,2.572,9.151
						c2.088,2.714-3.434,7.992-6.331,8.622c-2.897,0.63-5.737,1.097-12.346-0.641c0,0-2.744-0.501-3.431-0.388
						c0,0,1.268-2.633,2.085-3.567c0.817-0.934,4.505-5.306,5.23-9.449C381.49,186.166,388.24,184.655,389.271,182.452z"/>
					<g>
						<g>
							<g>
								<path style="fill:#4B95FA;" d="M421.605,235.539c-5.378-1.899-17.009-10.496-21.583-11.334c0,0,12.353,11.978,21.266,14.424
									c4.761,1.306,10.845,1.261,17.581,2.639l-2.751-4.311C436.117,236.958,426.982,237.438,421.605,235.539z"/>
							</g>
						</g>
					</g>
					<g>
						<g>
							<g>
								<path style="fill:#67E2E8;" d="M388.189,183.598c0.503-0.355,0.891-0.738,1.082-1.146c0,0,0.222,0.037,0.564,0.082
									c-3.474-1.045-5.4-5.192-5.4-5.192C384.208,180.485,388.181,183.592,388.189,183.598z"/>
							</g>
						</g>
					</g>
					<g>
						<g>
							<g>
								<path style="fill:#67E2E8;" d="M393.711,182.438c0,0,0.068,0.892,0.259,2.149l0,0c0.941-3.438-0.292-8.098-0.292-8.098
									c0.249,2.101-0.996,6.212-0.998,6.22C393.147,182.68,393.531,182.601,393.711,182.438z"/>
							</g>
						</g>
					</g>
					<g>
						<g>
							<g>
								<path style="fill:#67E2E8;" d="M381.172,187.447c0.131-0.427,0.243-0.855,0.318-1.281c0,0,0.586-0.133,1.429-0.371
									c-0.022,0-5.654-0.081-9.646-3.394C373.272,182.402,375.62,185.749,381.172,187.447z"/>
							</g>
						</g>
					</g>
					<g>
						<g style="opacity:0.52;">
							<g>
								<g>
									<path style="fill:#E28C61;" d="M375.176,199.213c0.633,0.134,1.113,0.195,1.47,0.197
										C376.193,199.338,375.652,199.261,375.176,199.213z"/>
								</g>
							</g>
						</g>
						<g>
							<g>
								<g>
									<path style="fill:#67E2E8;" d="M375.558,196.618c0,0-10.794,3.603-12.268,8.326l0,0c2.538-3.331,6.307-5.456,10.48-5.807
										l0.444-0.037C374.367,198.79,374.961,197.592,375.558,196.618L375.558,196.618z"/>
								</g>
							</g>
						</g>
					</g>
					<g>
						<g>
							<g>
								<path style="fill:#67E2E8;" d="M380.179,164.879c0,0,16.866-6.473,18.808-7.06l-15.759,7.847L380.179,164.879z"/>
							</g>
						</g>
					</g>
					<g>
						<g>
							<g>
								<path style="fill:#67E2E8;" d="M381.701,147.637c0.895,1.286,2.023,2.501,3.332,3.441c0,0-1.2,0.069-3.276-0.138l0,0.005
									l6.481,0.822C384.327,150.825,382.248,148.369,381.701,147.637z"/>
							</g>
						</g>
					</g>
					<g>
						<g>
							<g>
								<path style="fill:#67E2E8;" d="M400.902,148.499c-0.973-0.473-0.483-1.704-0.361-1.975c-0.446,0.689-0.55,1.362-0.55,1.362
									s-0.873-0.353-1.998-0.775C398.875,147.437,400.902,148.499,400.902,148.499z"/>
							</g>
						</g>
					</g>
					<g>
						<g>
							<g>
								<path style="fill:#67E2E8;" d="M363.291,204.944c0,0,5.517-7.056,14.744-5.263c0,0-3.921-1.059-5.366-1.029
									c-0.772,0.016-3.117,1.111-4.963,2.228c-1.608,0.973-2.793,1.988-2.793,1.988L363.291,204.944z"/>
							</g>
						</g>
					</g>
				</g>
				<g>
					<g>
						<g>
							<path style="fill:#4B95FA;" d="M441.975,204.808c0,0-14.729,16.465-9.621,32.665l6.434-0.058L441.975,204.808z"/>
						</g>
					</g>
				</g>
				<path style="fill:#FFFFFF;" d="M457.7,189.408c4.99-2.266,9.351-2.02,12.611,0.221l0.005-0.008l7.187,5.149
					c-1.391,0.291-2.838,0.758-4.34,1.44c-13.394,6.081-25.695,25.779-27.476,43.997c-0.459,4.692-0.167,8.82,0.737,12.27
					l-7.296-5.227l0.002-0.003c-4.294-3.154-6.576-9.887-5.686-18.997C435.015,212.167,445.875,194.776,457.7,189.408z"/>
			</g>
		</g>
		<g>
			<g>
				<g>
					<g>
						
							<linearGradient id="SVGID_00000106132452771084003570000011514437483574531973_" gradientUnits="userSpaceOnUse" x1="433.413" y1="200.177" x2="492.8547" y2="246.006">
							<stop  offset="0" style="stop-color:#3874DA"/>
							<stop  offset="1" style="stop-color:#2A023F"/>
						</linearGradient>
						<path style="fill:url(#SVGID_00000106132452771084003570000011514437483574531973_);" d="M534.292,230.83l0.001-0.002
							l-0.029-0.021c-0.029-0.022-0.059-0.041-0.088-0.063l-46.724-34.292l-0.005,0.009c-3.693-2.538-8.632-2.817-14.284-0.251
							c-13.394,6.081-25.695,25.779-27.476,43.997c-1.009,10.319,1.577,17.946,6.44,21.519l-0.002,0.004l46.265,33.955
							c0.038,0.029,0.077,0.054,0.115,0.082l0.41,0.294l0.005-0.009c3.682,2.476,8.584,2.727,14.186,0.183
							c13.394-6.081,25.695-25.779,27.476-43.997C541.58,242.026,539.059,234.448,534.292,230.83z"/>
					</g>
				</g>
			</g>
		</g>
	</g>
	<g>
		<g>
			<g>
				<g>
					
						<radialGradient id="SVGID_00000065033889103935888740000015540849010676328121_" cx="229.2044" cy="179.4348" r="90.863" gradientUnits="userSpaceOnUse">
						<stop  offset="0" style="stop-color:#9CF5FE"/>
						<stop  offset="0.2511" style="stop-color:#99F2FE"/>
						<stop  offset="0.4394" style="stop-color:#8FE9FD"/>
						<stop  offset="0.6073" style="stop-color:#7FD9FD"/>
						<stop  offset="0.7631" style="stop-color:#69C3FC"/>
						<stop  offset="0.9095" style="stop-color:#4BA6FA"/>
						<stop  offset="0.9411" style="stop-color:#449FFA"/>
					</radialGradient>
					<path style="fill:url(#SVGID_00000065033889103935888740000015540849010676328121_);" d="M238.545,156.395
						c0.837-0.331,4.963-2.772,3.744-7.071c-1.219-4.299-6.242-2.533-7.685-1.842c-1.443,0.691-0.969,0.891-4.127,1.708
						c-3.158,0.817-4.074,0.297-8.455,1.178c-4.381,0.881-7.054,0.71-7.054,0.71c3.862-2.776,6.203-7.924,5.361-10.316
						c-0.841-2.392-5.135-1.956-6.786-0.398c-1.651,1.558-5.618,5.006-7.521,5.431c-1.903,0.425-6.013,2.09-6.013,2.09
						s-0.319-2.343-2.666-2.764c-2.347-0.421-4.332,1.23-5.131,2.501c-0.799,1.271-3.898,2.361-3.898,2.361
						c-1.505,1.482-2.117,2.562-4.742,3.555c-1.316,0.498-3.334,0.494-5.83,1.47c-7.475,2.922-5.714,5.43-8.055,6.833
						c-2.341,1.402-6.008,3.88-6.008,3.88c-8.618,12.066-21.982,24.298-32.449,32.996c11.594,7.924,21.5,25.288,23.083,41.49
						c0.098,0.999,0.152,1.965,0.183,2.913c9.347-3.394,17.933-2.767,24.215-4.491c8.913-2.446,21.267-14.424,21.267-14.424
						c5.598-1.383,6.246-1.831,9.183-3.413c2.936-1.583,15.862-4.993,19.358-5.306c3.495-0.313,7.321-1.036,8.563-3.236
						c1.893-3.353-0.373-7.305-0.373-7.305s1.097,0.201,3.003-1.569c1.906-1.77,0.344-5.692-3.329-11.547
						c-3.672-5.855-5.196-16.718-8.102-18.726c-2.905-2.008-11.509-7.436-11.509-7.436c4.917-0.923,13.033-4.731,15.435-5.612
						C234.61,159.172,237.708,156.726,238.545,156.395z M218.51,186.166c0.724,4.143,4.412,8.515,5.23,9.449
						c0.817,0.934,2.085,3.567,2.085,3.567c-0.687-0.113-3.431,0.388-3.431,0.388c-6.609,1.738-9.449,1.271-12.346,0.641
						c-2.897-0.63-8.419-5.908-6.331-8.622c2.088-2.713,2.572-9.151,2.572-9.151c0.699,0.634,4.44,0.014,4.44,0.014
						C211.76,184.655,218.51,186.166,218.51,186.166z"/>
					<g>
						<g>
							<g>
								<path style="fill:#4B95FA;" d="M178.395,235.539c5.378-1.899,17.009-10.496,21.584-11.334c0,0-12.353,11.978-21.267,14.424
									c-4.761,1.306-10.845,1.261-17.581,2.639l2.751-4.311C163.883,236.958,173.018,237.438,178.395,235.539z"/>
							</g>
						</g>
					</g>
					<g>
						<g>
							<g>
								<path style="fill:#67E2E8;" d="M211.811,183.598c-0.503-0.355-0.891-0.738-1.082-1.146c0,0-0.222,0.037-0.563,0.082
									c3.474-1.045,5.4-5.192,5.4-5.192C215.792,180.485,211.819,183.592,211.811,183.598z"/>
							</g>
						</g>
					</g>
					<g>
						<g>
							<g>
								<path style="fill:#67E2E8;" d="M206.289,182.438c0,0-0.068,0.892-0.259,2.149l0,0c-0.941-3.438,0.292-8.098,0.292-8.098
									c-0.249,2.101,0.996,6.212,0.998,6.22C206.853,182.68,206.469,182.601,206.289,182.438z"/>
							</g>
						</g>
					</g>
					<g>
						<g>
							<g>
								<path style="fill:#67E2E8;" d="M218.828,187.447c-0.131-0.427-0.243-0.855-0.318-1.281c0,0-0.586-0.133-1.429-0.371
									c0.022,0,5.654-0.081,9.646-3.394C226.728,182.402,224.38,185.749,218.828,187.447z"/>
							</g>
						</g>
					</g>
					<g>
						<g style="opacity:0.52;">
							<g>
								<g>
									<path style="fill:#E28C61;" d="M224.824,199.213c-0.633,0.134-1.113,0.195-1.47,0.197
										C223.807,199.338,224.348,199.261,224.824,199.213z"/>
								</g>
							</g>
						</g>
						<g>
							<g>
								<g>
									<path style="fill:#67E2E8;" d="M224.442,196.618c0,0,10.794,3.603,12.268,8.326l0,0c-2.538-3.331-6.308-5.456-10.481-5.807
										l-0.444-0.037C225.633,198.79,225.038,197.592,224.442,196.618L224.442,196.618z"/>
								</g>
							</g>
						</g>
					</g>
					<g>
						<g>
							<g>
								<path style="fill:#67E2E8;" d="M219.821,164.879c0,0-16.866-6.473-18.808-7.06l15.759,7.847L219.821,164.879z"/>
							</g>
						</g>
					</g>
					<g>
						<g>
							<g>
								<path style="fill:#67E2E8;" d="M218.299,147.637c-0.895,1.286-2.023,2.501-3.332,3.441c0,0,1.2,0.069,3.276-0.138l0,0.005
									l-6.481,0.822C215.673,150.825,217.752,148.369,218.299,147.637z"/>
							</g>
						</g>
					</g>
					<g>
						<g>
							<g>
								<path style="fill:#67E2E8;" d="M199.098,148.499c0.973-0.473,0.483-1.704,0.361-1.975c0.446,0.689,0.55,1.362,0.55,1.362
									s0.873-0.353,1.998-0.775C201.125,147.437,199.098,148.499,199.098,148.499z"/>
							</g>
						</g>
					</g>
					<g>
						<g>
							<g>
								<path style="fill:#67E2E8;" d="M236.709,204.944c0,0-5.517-7.056-14.744-5.263c0,0,3.921-1.059,5.366-1.029
									c0.772,0.016,3.118,1.111,4.963,2.228c1.608,0.973,2.793,1.988,2.793,1.988L236.709,204.944z"/>
							</g>
						</g>
					</g>
				</g>
				<g>
					<g>
						<g>
							<path style="fill:#4B95FA;" d="M158.025,204.808c0,0,14.729,16.465,9.621,32.665l-6.434-0.058L158.025,204.808z"/>
						</g>
					</g>
				</g>
				<path style="fill:#FFFFFF;" d="M142.3,189.408c-4.99-2.266-9.351-2.02-12.611,0.221l-0.005-0.008l-7.187,5.149
					c1.391,0.291,2.838,0.758,4.339,1.44c13.394,6.081,25.695,25.779,27.476,43.997c0.459,4.692,0.167,8.82-0.736,12.27l7.296-5.227
					l-0.002-0.003c4.294-3.154,6.576-9.887,5.686-18.997C164.985,212.167,154.125,194.776,142.3,189.408z"/>
			</g>
		</g>
		<g>
			<g>
				<g>
					<g>
						
							<linearGradient id="SVGID_00000142894358811430519940000016588496800176520073_" gradientUnits="userSpaceOnUse" x1="235.7252" y1="200.1769" x2="295.167" y2="246.006" gradientTransform="matrix(-1 0 0 1 402.3122 0)">
							<stop  offset="0" style="stop-color:#3874DA"/>
							<stop  offset="1" style="stop-color:#2A023F"/>
						</linearGradient>
						<path style="fill:url(#SVGID_00000142894358811430519940000016588496800176520073_);" d="M65.708,230.83l-0.001-0.002
							l0.029-0.021c0.029-0.022,0.059-0.041,0.088-0.063l46.725-34.292l0.005,0.009c3.693-2.538,8.632-2.817,14.284-0.251
							c13.394,6.081,25.695,25.779,27.476,43.997c1.009,10.319-1.577,17.946-6.44,21.519l0.002,0.004l-46.265,33.955
							c-0.038,0.029-0.077,0.054-0.115,0.082l-0.41,0.294l-0.005-0.009c-3.682,2.476-8.584,2.727-14.186,0.183
							c-13.394-6.081-25.695-25.779-27.476-43.997C58.42,242.026,60.941,234.448,65.708,230.83z"/>
					</g>
				</g>
			</g>
		</g>
	</g>
</g>
<g>
	
		<rect x="144.827" y="145.226" transform="matrix(0.7071 -0.7071 0.7071 0.7071 -60.8947 146.4485)" style="fill:#81DAFE;" width="3.01" height="3.01"/>
	
		<rect x="148.888" y="141.164" transform="matrix(0.7071 -0.7071 0.7071 0.7071 -56.8335 148.1307)" style="fill:#81DAFE;" width="3.01" height="3.01"/>
	
		<rect x="148.475" y="148.874" transform="matrix(0.7071 -0.7071 0.7071 0.7071 -62.4059 150.0981)" style="fill:#81DAFE;" width="3.01" height="3.01"/>
	
		<rect x="152.537" y="144.813" transform="matrix(0.7071 -0.7071 0.7071 0.7071 -58.3449 151.7744)" style="fill:#81DAFE;" width="3.01" height="3.01"/>
</g>
<g>
	<rect x="369.203" y="314.925" style="fill:#99F1FE;" width="8.892" height="2.167"/>
	<rect x="382.986" y="314.925" style="opacity:0.6;fill:#99F1FE;" width="8.892" height="2.167"/>
	<rect x="396.77" y="314.925" style="opacity:0.4;fill:#99F1FE;" width="8.892" height="2.167"/>
	<rect x="410.553" y="314.925" style="opacity:0.2;fill:#99F1FE;" width="8.892" height="2.167"/>
</g>
<g>
	<rect x="234.694" y="163.907" style="opacity:0.9;fill:#81DAFE;" width="3.517" height="3.517"/>
	<rect x="245.246" y="163.907" style="fill:#81DAFE;" width="3.517" height="3.517"/>
	<rect x="252.281" y="163.907" style="opacity:0.8;fill:#81DAFE;" width="3.517" height="3.517"/>
	<rect x="241.729" y="163.907" style="opacity:0.7;fill:#81DAFE;" width="3.517" height="3.517"/>
	<rect x="259.315" y="163.907" style="opacity:0.6;fill:#81DAFE;" width="3.517" height="3.517"/>
	<rect x="248.763" y="163.907" style="opacity:0.4;fill:#81DAFE;" width="3.517" height="3.517"/>
	<rect x="266.35" y="163.907" style="opacity:0.3;fill:#81DAFE;" width="3.517" height="3.517"/>
	<rect x="255.798" y="163.907" style="opacity:0.2;fill:#81DAFE;" width="3.517" height="3.517"/>
	<rect x="273.384" y="163.907" style="opacity:0.1;fill:#81DAFE;" width="3.517" height="3.517"/>
</g>
<g>
	<polygon style="fill:#4B95FA;" points="294.908,157.424 294.908,151.494 299.907,154.459 	"/>
	<polygon style="fill:#81DAFE;" points="307.094,151.494 307.094,157.424 302.095,154.459 	"/>
</g>
<g>
	<g>
		<path style="opacity:0.3;fill:#FE4FFE;" d="M303.475,315.423c0-1.262,1.023-2.285,2.285-2.285c1.262,0,2.285,1.023,2.285,2.285
			c0,1.262-1.023,2.285-2.285,2.285C304.498,317.707,303.475,316.685,303.475,315.423z"/>
		<path style="fill:#81DAFE;" d="M293.107,315.423c0-1.262,1.023-2.285,2.285-2.285c1.262,0,2.285,1.023,2.285,2.285
			c0,1.262-1.023,2.285-2.285,2.285C294.13,317.707,293.107,316.685,293.107,315.423z"/>
	</g>
	<path style="opacity:0.3;fill:#81DAFE;" d="M298.291,323.448c0-1.262,1.023-2.285,2.285-2.285c1.262,0,2.285,1.023,2.285,2.285
		c0,1.262-1.023,2.285-2.285,2.285C299.314,325.733,298.291,324.71,298.291,323.448z"/>
</g>
</svg>
