<?xml version="1.0" encoding="UTF-8"?><svg id="uuid-8b7aa60d-9fae-4dc6-a77c-3ba16644f2f5" xmlns="http://www.w3.org/2000/svg" viewBox="0 0 423.32 386.99"><defs><style>.uuid-8c214225-ef54-4231-87e4-635c251333c6{fill:#0e74bb;}.uuid-31a6afb1-41fe-44a9-95b2-192ee5c94771{fill:#fff;}.uuid-4272ccfd-4cfd-45fc-bf25-253919f26126{fill:#587be1;}.uuid-784eef64-718b-4e5b-9c48-46acf407913e{fill:#080717;}</style></defs><path class="uuid-31a6afb1-41fe-44a9-95b2-192ee5c94771" d="M106.4,248.39c4.76-48.25,9.49-100.42,8.62-109.37-1.68-17.28-30.06-4.95-30.06-4.95,0,0-15.16,69.2-25.76,131.53l47.2-17.22Z"/><path class="uuid-784eef64-718b-4e5b-9c48-46acf407913e" d="M59.2,267.17c-.09,0-.17,0-.26-.02-.85-.14-1.42-.95-1.27-1.8,10.48-61.66,25.62-130.91,25.77-131.6.11-.49.44-.9.9-1.1.73-.32,18.14-7.78,27.11-2.5,3.01,1.77,4.74,4.71,5.13,8.72.73,7.47-2.18,44.36-8.62,109.67-.08.85-.82,1.49-1.7,1.4-.85-.08-1.48-.85-1.4-1.7,6.33-64.19,9.31-101.9,8.62-109.06-.29-3.01-1.47-5.08-3.61-6.34-6.69-3.94-20.27,1.06-23.56,2.37-1.72,7.89-15.71,72.65-25.57,130.66-.13.76-.79,1.3-1.53,1.3Z"/><path class="uuid-8c214225-ef54-4231-87e4-635c251333c6" d="M20.38,27.32h0c-10.03,20.32-4.81,44.87,12.62,59.35l6.56,5.45c16.12,13.4,28.21,30.99,34.95,50.84l.55,1.62,38.88-13.19-.55-1.62c-6.73-19.85-7.84-41.17-3.2-61.61l1.89-8.32c5.02-22.1-5.77-44.76-26.09-54.78h0C61.72-6.9,32.35,3.06,20.38,27.32Z"/><path class="uuid-784eef64-718b-4e5b-9c48-46acf407913e" d="M67.3,113.2h49.11v25.61c0,6.62-5.37,11.99-11.99,11.99h-25.13c-6.62,0-11.99-5.37-11.99-11.99v-25.61h0Z" transform="translate(-37.53 36.5) rotate(-18.74)"/><path class="uuid-784eef64-718b-4e5b-9c48-46acf407913e" d="M81.8,118.88c-.65,0-1.25-.41-1.48-1.06l-12.07-35.59c-1.53.37-3.05.61-4.55.71-8.8.6-15.3-4.21-15.85-9.06-.3-2.66,1.25-5.8,6.49-6.62,8.49-1.33,15.38,10.1,15.67,10.59.05.09.1.19.14.29l.08.24c2.66-.95,5.28-2.31,7.68-3.98-.46-1.24-.86-2.27-1.19-3.03-3.36-7.91-4.46-12.4-2.07-18.05,3.4-8.05,8.45-8.11,10.46-7.76,3.99.69,7.18,4.52,7.44,8.91.47,8.15-4.25,15.76-10.91,21.07,4.46,12.37,12.36,37.03,12.75,38.26.26.82-.19,1.7-1.01,1.96-.82.27-1.7-.19-1.96-1.01-.09-.3-7.88-24.6-12.41-37.3-2.46,1.63-5.1,2.95-7.78,3.9l12.03,35.48c.28.81-.16,1.7-.98,1.97-.17.06-.33.08-.5.08ZM55.75,70.27c-.3,0-.61.02-.91.07-1.55.24-4.12.98-3.88,3.2.33,2.96,5.25,6.78,12.54,6.3,1.23-.08,2.48-.28,3.74-.57-.8-1.27-5.9-9-11.49-9ZM83.87,48.57c-2.44,0-4.72,2.13-6.34,5.97-1.79,4.23-1.34,7.59,2.07,15.62.26.6.56,1.36.9,2.25,5.51-4.7,9.33-11.12,8.95-17.76-.17-2.93-2.3-5.58-4.86-6.02-.24-.04-.49-.06-.73-.06Z"/><path class="uuid-31a6afb1-41fe-44a9-95b2-192ee5c94771" d="M89.59,175.12l-6.59,25.23s-24.09-5.3-28.21-21.56c-4.12-16.26-5.47-42.05,7.83-47.27,13.3-5.21,36.12-1.07,36.12-1.07,0,0,3.24,5.07-3.56,9s-9.33,6.78-9.33,6.78l19.24.27s1.79,3.23.19,8.42c-1.61,5.19-1.72,13.69-15.67,20.18Z"/><path class="uuid-784eef64-718b-4e5b-9c48-46acf407913e" d="M86.53,201.75c-.08,0-.16,0-.24-.02-1.19-.18-29.16-4.66-33.03-22.61-3.28-15.21-6.51-41.79,8.68-49,13.67-6.49,36.18-1.4,37.14-1.18.48.11.88.44,1.08.89.09.22,2.3,5.33.43,9.15-.86,1.77-2.47,2.99-4.64,3.54-2.9.74-6.81.86-10.6.98-4.96.16-11.13.35-12.65,2.21-.54.67-1.52.77-2.19.22-.67-.54-.77-1.53-.22-2.19,2.42-2.96,8.51-3.15,14.97-3.36,3.62-.11,7.36-.23,9.93-.88,1.29-.33,2.14-.94,2.61-1.89.85-1.74.28-4.35-.21-5.82-4.11-.83-22.98-4.24-34.3,1.13-13.75,6.52-9.46,34.02-6.97,45.53,3.42,15.85,30.19,20.14,30.46,20.19.85.13,1.43.93,1.3,1.77-.12.77-.78,1.32-1.54,1.32Z"/><path class="uuid-784eef64-718b-4e5b-9c48-46acf407913e" d="M104.07,154.97c-.52,0-1.03-.26-1.33-.74-.45-.73-.23-1.69.51-2.14,2.87-1.77,1.79-5.32,1.1-6.95l-42.59,2.18c-.84.04-1.59-.62-1.64-1.48s.62-1.59,1.48-1.64l43.62-2.23c.59-.03,1.15.28,1.43.79,1.58,2.79,3.24,8.88-1.77,11.98-.25.16-.54.23-.82.23Z"/><path class="uuid-784eef64-718b-4e5b-9c48-46acf407913e" d="M64.87,172.09c-.75,0-1.41-.54-1.53-1.3-.14-.85.43-1.65,1.28-1.79.32-.05,31.88-5.34,36.51-6.87,2.36-.78,3.24-4.21,3.5-6.62l-42.56,4.26c-.86.09-1.62-.54-1.71-1.39-.09-.86.54-1.62,1.39-1.71l44.36-4.44c.43-.04.86.1,1.19.39.33.29.52.7.52,1.14,0,.38.1,9.42-5.72,11.34-4.85,1.6-35.66,6.77-36.97,6.99-.09.01-.17.02-.26.02Z"/><path class="uuid-784eef64-718b-4e5b-9c48-46acf407913e" d="M69.08,182.25c-.79,0-1.46-.59-1.55-1.39-.09-.85.53-1.62,1.38-1.72,8.39-.9,30.25-5.42,30.74-15.33.04-.86.77-1.51,1.63-1.48.86.04,1.52.77,1.48,1.63-.71,14.58-32.17,18.13-33.52,18.27-.06,0-.11,0-.17,0Z"/><path class="uuid-784eef64-718b-4e5b-9c48-46acf407913e" d="M212.76,40.03c-17.36-.32-32.84,8.34-42.31,21.8,4.54-1.15,9.27-1.75,14.13-1.66,32.97.61,59.14,31.07,58.47,68.05-.04,2.05-.17,4.08-.37,6.08,11.99-9.4,19.85-24.12,20.16-40.82.53-29-21.88-52.93-50.07-53.45Z"/><path class="uuid-784eef64-718b-4e5b-9c48-46acf407913e" d="M258.4,190.56c-10.25,0-19.75-1.98-24.37-8.67-5.7-8.27-3.03-21.7,8.17-41.08,1.12-1.93,1.41-3.72.89-5.48-1.74-5.94-12.35-11.39-24.64-17.71-14.08-7.24-30.03-15.45-40.67-27.85-4.79-5.58-.12-17.24,12.49-31.2h0c5.29-5.85,20.06-14.61,37.06-13.21,14.39,1.18,27.02,9.64,36.53,24.46,9.3,14.48,34.36,8.32,50.95,4.24,4.22-1.04,7.86-1.93,10.5-2.28,7.2-.96,14.08,2.75,18.84,10.19,8.28,12.94,9.84,36.73-5.34,60.69-3.67,5.79-32.16,45.92-43.35,43.86-1.41-.26-5.94.47-10.73,1.25-7.41,1.2-17.17,2.78-26.34,2.78ZM192.59,60.66h0c-12.64,13.99-15.36,23.68-12.44,27.08,10.24,11.93,25.91,19.99,39.73,27.1,13.46,6.92,24.08,12.39,26.2,19.61.76,2.58.36,5.24-1.18,7.92-10.39,17.97-13.18,30.67-8.3,37.75,7.63,11.06,32.68,7.01,47.64,4.59,6.48-1.05,9.94-1.58,11.8-1.24,7.21,1.34,31.76-29.2,40.15-42.46,14.45-22.81,13.1-45.24,5.35-57.35-4.08-6.38-9.84-9.58-15.8-8.78-2.47.33-6.04,1.21-10.17,2.22-17.45,4.29-43.81,10.77-54.32-5.59-9.1-14.17-20.59-21.92-34.17-23.04-15.06-1.24-29.24,6.38-34.49,12.19Z"/><path class="uuid-784eef64-718b-4e5b-9c48-46acf407913e" d="M183.98,45.93c12.43-9.13,58.3-22.09,76.26,23.84,8.93,22.84,54.78,13.14,69.31,13.45,22.52.49,29.86,41.41-3.9,75.63-9.7,9.83-47.51,42.7-57.24,39.35-9.73-3.35-108.98,12.26-47.1-55.43,15.97-17.46-39.38-34.48-58.5-67.63-3.25-5.63,4.26-16.79,21.17-29.21Z"/><circle class="uuid-784eef64-718b-4e5b-9c48-46acf407913e" cx="343.46" cy="152.65" r="46.65" transform="translate(159.81 480.59) rotate(-84.71)"/><path class="uuid-784eef64-718b-4e5b-9c48-46acf407913e" d="M349.28,199.27c-1.44,0-2.9-.06-4.36-.19-12.83-1.14-24.44-7.21-32.7-17.09-8.26-9.88-12.19-22.38-11.04-35.21,1.14-12.83,7.21-24.44,17.09-32.7,9.88-8.26,22.38-12.18,35.21-11.04,12.83,1.14,24.44,7.21,32.7,17.09,8.26,9.88,12.19,22.38,11.04,35.21-1.14,12.83-7.21,24.44-17.09,32.7-8.75,7.32-19.57,11.24-30.85,11.24ZM349.12,105.95c-10.55,0-20.67,3.66-28.86,10.51-9.24,7.73-14.91,18.59-15.98,30.59-1.07,12,2.6,23.69,10.33,32.93,7.73,9.24,18.59,14.91,30.59,15.98,12,1.07,23.69-2.6,32.93-10.33,9.24-7.73,14.92-18.59,15.98-30.59,1.07-12-2.6-23.69-10.33-32.93-7.73-9.24-18.59-14.92-30.59-15.98-1.36-.12-2.72-.18-4.07-.18Z"/><circle class="uuid-784eef64-718b-4e5b-9c48-46acf407913e" cx="305.97" cy="195.66" r="58.35"/><path class="uuid-31a6afb1-41fe-44a9-95b2-192ee5c94771" d="M113.32,306.71l31.17-77.38c7.48-18.57,23.83-32.11,43.48-35.98l51.8-17.93c26.33-9.11,55.55-1.73,74.4,18.79l99.17,107.98c14.64,17.9,9.64,44.68-10.49,56.08h0c-7.31,4.14-15.8,5.69-24.1,4.41l-128.17-46.85-137.26-9.11Z"/><path d="M384.41,364.67c-1.97,0-3.94-.15-5.9-.45-.1-.02-.2-.04-.3-.08l-127.96-46.77-137.04-9.1c-.5-.03-.95-.3-1.22-.73-.27-.42-.31-.95-.13-1.41l31.17-77.38c7.69-19.1,24.33-32.89,44.51-36.91l51.69-17.89c26.92-9.32,56.78-1.78,76.05,19.2l99.17,107.98c7.33,8.96,10.29,20.53,8.18,31.82-2.11,11.29-9.05,21.01-19.04,26.67-5.86,3.32-12.51,5.05-19.2,5.05ZM379.14,361.16c7.88,1.18,16.01-.32,22.94-4.25,9.19-5.21,15.58-14.15,17.52-24.53,1.94-10.38-.78-21.03-7.47-29.2l-99.11-107.92c-18.43-20.07-46.99-27.28-72.74-18.37l-51.8,17.93c-.07.02-.14.04-.21.06-19.2,3.79-35.02,16.89-42.33,35.04l-30.37,75.39,135.11,8.97c.15,0,.29.04.43.09l128.02,46.79Z"/><polygon class="uuid-31a6afb1-41fe-44a9-95b2-192ee5c94771" points="233.81 168.03 246.83 169.89 256.9 184.9 225.95 221.71 204 197.84 177.78 215.36 190.87 176.63 233.81 168.03"/><path d="M225.95,223.27c-.44,0-.85-.18-1.15-.5l-21.05-22.89-25.11,16.78c-.56.37-1.28.35-1.81-.06-.53-.41-.74-1.1-.53-1.74l13.08-38.72c.28-.82,1.16-1.25,1.97-.98.82.28,1.25,1.16.98,1.97l-11.62,34.39,22.41-14.98c.64-.43,1.49-.33,2.01.24l20.75,22.57,29.05-34.56-9.02-13.46-12.34-1.76c-.85-.12-1.45-.91-1.32-1.76.12-.85.91-1.43,1.76-1.32l13.03,1.86c.44.06.83.31,1.08.68l10.06,15.01c.39.58.34,1.34-.1,1.87l-30.94,36.81c-.29.34-.71.54-1.16.55-.01,0-.02,0-.04,0Z"/><rect class="uuid-31a6afb1-41fe-44a9-95b2-192ee5c94771" x="189.49" y="143.22" width="40.12" height="47.81" transform="translate(-55.32 126.08) rotate(-29.77)"/><path d="M204,199.39c-.54,0-1.07-.28-1.35-.78l-23.74-41.5c-.21-.36-.26-.78-.15-1.18.11-.4.37-.74.73-.94l34.83-19.92c.75-.43,1.7-.17,2.12.58l23.74,41.5c.21.36.26.78.15,1.18-.11.4-.37.74-.73.94l-34.83,19.92c-.24.14-.51.21-.77.21ZM182.39,156.91l22.19,38.8,32.12-18.37-22.19-38.8-32.12,18.37Z"/><path class="uuid-784eef64-718b-4e5b-9c48-46acf407913e" d="M215.09,136.42l-34.83,19.92,11.81,20.65c12.37-1.6,24.44-10.58,34.37-20.72l-11.35-19.85Z"/><path class="uuid-784eef64-718b-4e5b-9c48-46acf407913e" d="M131.47,85.88c4.25,13.06,18.29,20.2,31.35,15.95,13.06-4.25,20.2-18.29,15.95-31.35-4.25-13.06-18.29-20.2-31.35-15.95-13.06,4.25-20.2,18.29-15.95,31.35Z"/><path class="uuid-31a6afb1-41fe-44a9-95b2-192ee5c94771" d="M238.78,93.9c-6.03-24.5-29.34-41.43-55.15-38.75l-9.1.95c-20.19,2.1-34.85,20.16-32.76,40.35l4.39,42.22c2.1,20.19,20.16,34.85,40.35,32.76l7.22-.75c23.94-2.49,42.51-20.47,46.79-42.96,4.55,0,9.09-1.81,12.43-5.41,6.38-6.87,5.98-17.61-.89-23.99-3.73-3.46-8.6-4.91-13.29-4.43Z"/><path class="uuid-784eef64-718b-4e5b-9c48-46acf407913e" d="M182.69,173.19c-19.36,0-36.03-14.68-38.07-34.35l-4.39-42.22c-1.06-10.18,1.91-20.16,8.36-28.1,6.45-7.94,15.61-12.9,25.78-13.96l9.1-.95c25.68-2.67,49.74,13.88,56.49,38.66,4.82-.14,9.59,1.61,13.16,4.92,7.49,6.95,7.93,18.7.98,26.19-3.19,3.44-7.61,5.53-12.29,5.86-4.93,22.96-24.47,40.56-47.92,42.99l-7.22.75c-1.34.14-2.67.21-3.99.21ZM188.91,56.44c-1.69,0-3.4.09-5.11.26l-9.1.95c-9.35.97-17.76,5.53-23.69,12.82-5.92,7.3-8.65,16.47-7.68,25.82l4.39,42.22c2,19.3,19.35,33.37,38.64,31.37l7.22-.75c22.51-2.34,41.19-19.49,45.43-41.7.14-.73.78-1.26,1.53-1.27,4.34,0,8.36-1.75,11.29-4.91,5.78-6.23,5.42-16-.81-21.78-3.24-3.01-7.63-4.47-12.07-4.02-.77.09-1.49-.42-1.67-1.18-5.49-22.3-25.77-37.83-48.36-37.83Z"/><path class="uuid-784eef64-718b-4e5b-9c48-46acf407913e" d="M180.98,124.35c.49,2.72-.51,5.17-2.24,5.49s-3.53-1.64-4.02-4.35c-.49-2.72.51-5.17,2.24-5.49s3.53,1.64,4.02,4.35Z"/><path class="uuid-784eef64-718b-4e5b-9c48-46acf407913e" d="M156.1,129.56c.49,2.72-.51,5.17-2.24,5.49-1.73.31-3.53-1.64-4.02-4.35-.49-2.72.51-5.17,2.24-5.49,1.73-.31,3.53,1.64,4.02,4.35Z"/><path class="uuid-784eef64-718b-4e5b-9c48-46acf407913e" d="M167.28,148.76c-.59,0-1.14-.04-1.6-.11-.85-.13-1.43-.92-1.3-1.77.13-.85.91-1.44,1.77-1.3h0c.28.04,6.83.92,8.97-5.19.29-.81,1.17-1.24,1.98-.96.81.28,1.24,1.17.96,1.98-2.05,5.87-7.28,7.36-10.77,7.36Z"/><path class="uuid-784eef64-718b-4e5b-9c48-46acf407913e" d="M171.98,98.93c-.55,0-1.08-.29-1.36-.8-.42-.75-.15-1.7.6-2.12.41-.23,10.07-5.51,18.53-.73.75.42,1.01,1.37.59,2.12-.42.75-1.38,1.01-2.12.59-6.93-3.91-15.4.69-15.48.74-.24.13-.5.2-.75.2Z"/><path class="uuid-784eef64-718b-4e5b-9c48-46acf407913e" d="M138.02,108.85c-.45,0-.9-.19-1.2-.57-.55-.66-.45-1.65.21-2.19,7.61-6.26,16.5-3.32,16.87-3.19.81.28,1.25,1.16.97,1.98-.28.81-1.16,1.25-1.97.97h0c-.31-.1-7.65-2.49-13.89,2.65-.29.24-.64.36-.99.36Z"/><path class="uuid-784eef64-718b-4e5b-9c48-46acf407913e" d="M232.13,120.25c-.68,0-1.31-.45-1.5-1.14-.1-.35-2.29-8.55,1.27-14.42,1.67-2.75,4.29-4.53,7.78-5.28.85-.18,1.67.35,1.85,1.19.18.84-.35,1.67-1.19,1.85-2.66.57-4.55,1.83-5.77,3.84-2.87,4.72-.96,11.92-.94,11.99.23.83-.26,1.69-1.09,1.91-.14.04-.28.06-.41.06Z"/><path class="uuid-784eef64-718b-4e5b-9c48-46acf407913e" d="M199.26,80.68c-3.67-11.28-12.09-19.87-22.83-24.77l22.43-2.33c19.8-2.06,37.52,12.33,39.57,32.13l.85,8.16c-4.13.3-8.16,2.09-11.2,5.36-5.71,6.15-5.97,15.39-1.04,21.83-4.44.62-8.58-2.4-9.32-6.83l-1.95-11.54-3.09-1.65c-4.78-2.55-8.46-6.76-10.36-11.83l-2.55-6.8c-.16-.58-.32-1.16-.51-1.73Z"/><path class="uuid-784eef64-718b-4e5b-9c48-46acf407913e" d="M156.22,69.5c2.75,8.45,11.83,13.07,20.28,10.31s13.07-11.83,10.31-20.28c-2.75-8.45-11.83-13.07-20.28-10.31-8.45,2.75-13.07,11.83-10.31,20.28Z"/><circle class="uuid-784eef64-718b-4e5b-9c48-46acf407913e" cx="192.06" cy="72.08" r="17.07" transform="translate(-9.29 111.32) rotate(-31.6)"/><path class="uuid-4272ccfd-4cfd-45fc-bf25-253919f26126" d="M146.57,144.58c-5.54,0-11.02-2.53-14.56-7.31-5.95-8.02-4.27-19.38,3.75-25.33,3.88-2.88,8.66-4.08,13.44-3.37,4.79.71,9.01,3.24,11.89,7.12h0c5.95,8.02,4.27,19.38-3.75,25.33-3.24,2.4-7.02,3.56-10.77,3.56ZM146.52,111.48c-3.19,0-6.29,1.02-8.9,2.96-6.64,4.93-8.03,14.34-3.1,20.98,4.93,6.64,14.34,8.03,20.98,3.1,6.64-4.93,8.03-14.34,3.1-20.98-2.39-3.22-5.88-5.31-9.85-5.9-.74-.11-1.49-.16-2.23-.16Z"/><path class="uuid-4272ccfd-4cfd-45fc-bf25-253919f26126" d="M184.2,136.28c-5.54,0-11.02-2.53-14.56-7.31-5.95-8.02-4.27-19.38,3.75-25.33,8.02-5.95,19.38-4.27,25.33,3.75h0c2.88,3.88,4.08,8.66,3.37,13.44-.71,4.79-3.24,9.01-7.12,11.89-3.24,2.4-7.02,3.56-10.77,3.56ZM184.15,103.19c-3.11,0-6.24.96-8.92,2.95-6.64,4.93-8.03,14.34-3.1,20.98,4.93,6.64,14.34,8.03,20.98,3.1,3.22-2.39,5.31-5.88,5.9-9.85.59-3.96-.41-7.91-2.79-11.13-2.94-3.96-7.47-6.05-12.06-6.05Z"/><path class="uuid-4272ccfd-4cfd-45fc-bf25-253919f26126" d="M199.1,112.58c-.74,0-1.4-.53-1.53-1.29-.15-.85.42-1.65,1.27-1.8l24.23-4.23c.86-.14,1.65.42,1.8,1.27.15.85-.42,1.65-1.27,1.8l-24.23,4.23c-.09.02-.18.02-.27.02Z"/><path class="uuid-4272ccfd-4cfd-45fc-bf25-253919f26126" d="M161.05,120.82c-.79,0-1.46-.59-1.55-1.39-.09-.85.53-1.62,1.38-1.71l5.94-.64c.88-.09,1.62.53,1.71,1.38.09.85-.53,1.62-1.38,1.71l-5.94.64c-.06,0-.11,0-.17,0Z"/><path class="uuid-784eef64-718b-4e5b-9c48-46acf407913e" d="M199.88,385.92l72.96-38.11c7.05-3.68,6.65-13.91-.67-17.03l-119-50.7c-2.04-.87-4.33-.99-6.45-.34l-76.65,23.46c-8.03,2.46-9.08,13.39-1.67,17.33l122.69,65.36c2.75,1.46,6.04,1.48,8.8.04Z"/><path class="uuid-31a6afb1-41fe-44a9-95b2-192ee5c94771" d="M198.9,376.98c-.57,0-1.12-.32-1.39-.86-.38-.77-.07-1.71.7-2.09l70.56-35.18c.78-.38,1.71-.07,2.09.7.38.77.07,1.71-.7,2.09l-70.56,35.18c-.22.11-.46.16-.69.16Z"/><path class="uuid-784eef64-718b-4e5b-9c48-46acf407913e" d="M183.45,358.25l-44.93-112.03c-1.17-2.91-3.44-5.23-6.32-6.46l-109.66-46.73c-9.68-4.12-19.5,5.54-15.53,15.29l39.72,97.56c1.04,2.55,2.94,4.66,5.37,5.96l114.87,61.19c9.7,5.17,20.57-4.59,16.48-14.79Z"/><path class="uuid-31a6afb1-41fe-44a9-95b2-192ee5c94771" d="M183.63,374.77c-.61,0-1.19-.36-1.44-.96l-51.53-123.42c-.33-.79.04-1.71.84-2.04.79-.33,1.71.04,2.04.84l51.53,123.42c.33.79-.04,1.71-.84,2.04-.2.08-.4.12-.6.12Z"/><path class="uuid-31a6afb1-41fe-44a9-95b2-192ee5c94771" d="M85.91,298.72c-4.48,0-9.38-3.26-12.21-8.6h0c-1.75-3.29-2.47-6.9-2.04-10.16.46-3.45,2.15-6.11,4.75-7.49,2.6-1.38,5.75-1.29,8.87.26,2.94,1.46,5.52,4.09,7.27,7.38,1.75,3.29,2.47,6.9,2.04,10.16-.46,3.45-2.15,6.11-4.75,7.49-1.22.65-2.55.95-3.92.95ZM76.44,288.66c2.9,5.45,8.25,8.3,11.93,6.35,1.69-.9,2.8-2.73,3.13-5.15.35-2.62-.26-5.56-1.7-8.28-1.45-2.73-3.54-4.88-5.91-6.05-2.19-1.09-4.32-1.19-6.02-.3-1.69.9-2.8,2.73-3.13,5.15-.35,2.62.26,5.56,1.7,8.28h0Z"/><path class="uuid-31a6afb1-41fe-44a9-95b2-192ee5c94771" d="M231.64,310.31c-1.79,7.58,4.02,15.43,12.97,17.55,8.95,2.12,17.67-2.31,19.46-9.89,1.79-7.58-4.02-15.43-12.97-17.55-8.95-2.12-17.67,2.31-19.46,9.89Z"/><path class="uuid-31a6afb1-41fe-44a9-95b2-192ee5c94771" d="M241.07,320.62c-5.78,5.01-7.57,10.23-7.67,10.51-.42,1.28-1.23,2.34-2.25,3.08-1.54,1.12-3.58,1.53-5.52.91-3.23-1.03-5.04-4.44-4.04-7.69.13-.43,2.56-8.01,10.38-15.25-10.72,8.38-14.16,18.75-14.2,18.87-.42,1.3-1.23,2.37-2.26,3.12-1.53,1.12-3.56,1.52-5.5.91-3.25-1.02-5.07-4.46-4.07-7.71.06-.2.55-1.7,1.59-3.95-1.56,2.08-2.32,3.49-2.34,3.53-.46.88-1.1,1.61-1.85,2.16-1.83,1.33-4.32,1.62-6.46.52-3.03-1.55-4.25-5.24-2.72-8.28.19-.38,2.9-5.63,8.85-11.56-3.67,1.94-5.8,3.45-5.86,3.49-2.77,2-6.63,1.38-8.64-1.38-2-2.76-1.4-6.62,1.36-8.63.77-.56,19.09-13.71,44.03-14.51,0,0,23.89-2.8,39.56-.52,15.66,2.28,50.06,6.12,50.06,6.12l1.21,1.54c10.76,13.64,10.71,32.89-.12,46.48h0l-65.04-17.2-18.49-4.55Z"/><path d="M324.61,343.93c-.13,0-.27-.02-.4-.05l-65.04-17.2c-.83-.22-1.33-1.07-1.11-1.9.22-.83,1.08-1.32,1.9-1.11l64.04,16.93c9.81-13.02,9.65-30.87-.5-43.74l-.81-1.03c-4.81-.54-35.13-3.97-49.46-6.05-15.28-2.22-38.92.5-39.15.53-24.6.8-42.54,13.68-43.29,14.23-2.06,1.5-2.51,4.4-1.02,6.46,1.5,2.06,4.4,2.53,6.46,1.03.1-.07,2.31-1.63,6.04-3.61.68-.36,1.53-.17,1.98.45.46.62.39,1.48-.16,2.03-5.84,5.81-8.45,10.94-8.56,11.15-1.14,2.26-.22,5.04,2.04,6.19,1.56.8,3.41.65,4.84-.39.58-.43,1.05-.97,1.39-1.62,0-.01.8-1.52,2.47-3.75.48-.64,1.36-.81,2.04-.4.68.41.95,1.27.62,1.99-1.05,2.28-1.51,3.74-1.51,3.76-.74,2.41.62,5,3.04,5.76,1.41.44,2.91.19,4.12-.68.8-.58,1.39-1.39,1.69-2.34.03-.09,3.65-10.96,14.72-19.62.66-.52,1.6-.42,2.15.22.54.64.49,1.58-.13,2.15-7.53,6.98-9.85,14.27-9.95,14.57-.74,2.39.62,4.97,3.03,5.74,1.41.45,2.92.2,4.13-.68.79-.58,1.38-1.38,1.69-2.31.08-.24,1.99-5.88,8.12-11.2.65-.56,1.63-.5,2.2.16.56.65.49,1.63-.16,2.2-5.5,4.76-7.19,9.77-7.21,9.82-.51,1.56-1.48,2.89-2.81,3.85-2,1.46-4.58,1.88-6.91,1.13-2.98-.95-5-3.57-5.35-6.5-.38.88-.56,1.4-.56,1.42-.51,1.58-1.48,2.93-2.82,3.91-1.98,1.44-4.55,1.87-6.88,1.14-2.88-.91-4.87-3.36-5.33-6.16-2.37,1.7-5.45,1.94-8.05.62-3.78-1.93-5.31-6.58-3.41-10.37.17-.34,1.17-2.27,3.17-5.02-3.11,1.02-6.66-.03-8.69-2.81-2.5-3.45-1.74-8.3,1.7-10.8.78-.57,19.47-13.99,44.89-14.81.85-.11,24.15-2.79,39.83-.51,15.46,2.25,49.66,6.07,50.01,6.11.41.05.79.26,1.05.58l1.21,1.54c11.26,14.28,11.21,34.19-.13,48.41-.3.38-.75.59-1.22.59Z"/><path class="uuid-31a6afb1-41fe-44a9-95b2-192ee5c94771" d="M219.31,296.49s-10.95,6.38-16.3,13.31l16.3-13.31Z"/><path d="M203.01,311.35c-.33,0-.67-.11-.95-.33-.68-.53-.81-1.5-.28-2.19,5.48-7.08,16.29-13.43,16.75-13.7.74-.43,1.7-.18,2.13.56.43.74.18,1.7-.56,2.13-.11.06-10.75,6.32-15.85,12.91-.31.4-.77.6-1.23.6Z"/><path d="M207.54,324.98c-.2,0-.41-.04-.6-.12-.79-.33-1.17-1.25-.83-2.04,4.81-11.43,16.01-20.09,16.49-20.45.68-.52,1.66-.39,2.18.29.52.68.39,1.66-.29,2.18-.11.08-11.02,8.53-15.51,19.19-.25.6-.83.95-1.44.95Z"/><path d="M364.11,301.49c-.07,0-.14,0-.21-.01l-40.59-5.57c-.85-.12-1.45-.9-1.33-1.76.12-.85.9-1.45,1.75-1.33l40.59,5.57c.85.12,1.45.9,1.33,1.76-.11.78-.77,1.35-1.54,1.35Z"/><path class="uuid-784eef64-718b-4e5b-9c48-46acf407913e" d="M13.76,128.22l-4.86-8.89-8.89-4.86,8.89-4.86,4.86-8.89,4.86,8.89,8.89,4.86-8.89,4.86-4.86,8.89ZM6.49,114.46l4.7,2.57,2.57,4.7,2.57-4.7,4.7-2.57-4.7-2.57-2.57-4.7-2.57,4.7-4.7,2.57Z"/><path class="uuid-784eef64-718b-4e5b-9c48-46acf407913e" d="M188.32,303.29l-.06-4.8c-.38-32.48,3.63-64.88,11.91-96.29l3.01.79c-8.21,31.14-12.19,63.26-11.81,95.46l.06,4.8-3.12.04Z"/></svg>