<?xml version="1.0" encoding="utf-8"?>
<svg version="1.1" xmlns="http://www.w3.org/2000/svg" xmlns:xlink="http://www.w3.org/1999/xlink" x="0px" y="0px"
     viewBox="0 0 500 500" style="enable-background:new 0 0 500 500;" xml:space="preserve">
<g id="BACKGROUND">
	<rect style="fill:#FFFFFF;" width="500" height="500"/>
</g>
    <g id="OBJECTS">
	<g>
		<g>
			<rect x="202.05" y="140.567" style="fill:#FFD817;" width="47.051" height="62.427"/>

            <line style="fill:none;stroke:#FFA200;stroke-width:0.879;stroke-miterlimit:10;" x1="207.381" y1="151.551" x2="216.606" y2="151.551"/>

            <line style="fill:none;stroke:#FFA200;stroke-width:0.879;stroke-miterlimit:10;" x1="207.381" y1="160.761" x2="242.028" y2="160.761"/>

            <line style="fill:none;stroke:#FFA200;stroke-width:0.879;stroke-miterlimit:10;" x1="207.381" y1="169.971" x2="242.028" y2="169.971"/>

            <line style="fill:none;stroke:#FFA200;stroke-width:0.879;stroke-miterlimit:10;" x1="207.381" y1="179.181" x2="242.028" y2="179.181"/>

            <line style="fill:none;stroke:#FFA200;stroke-width:0.879;stroke-miterlimit:10;" x1="207.381" y1="188.391" x2="242.028" y2="188.391"/>
		</g>
        <g>
			<path style="fill:#FF7700;" d="M51.904,180.425c0,0,6.557-19.829,9.179-27.302c2.622-7.473,4.398-22.915-4.605-24.643
				c-9.002-1.728-12.643,10.98-12.551,22.878C44.02,163.221,51.904,180.425,51.904,180.425z"/>
            <path style="fill:#FF7700;" d="M50.337,212.216c0,0-6.531-38.03-18.466-33.981C19.935,182.283,31.272,208.855,50.337,212.216z"/>
            <path style="fill:#FF7700;" d="M56.319,199.388c0,0-1.083-12.936,4.649-24.225c5.732-11.289,12.92-10.118,14.363-4.972
				C78.484,181.437,60.696,192.07,56.319,199.388z"/>
            <path style="fill:#FF7700;" d="M59.425,230.956c0,0-0.405-11.151,3.584-24.641c3.989-13.49,14.616-17.796,20.128-11.368
				c2.932,3.418-0.92,18.141-10.357,24.826C64.852,225.39,59.425,230.956,59.425,230.956z"/>
            <path style="fill:#FF7700;" d="M56.516,240.913c0,0-6.885-17.946-16.603-22.357c-9.718-4.411-12.312,2.474-9.854,9.564
				C32.516,235.21,41.984,241.688,56.516,240.913z"/>
            <path style="fill:none;stroke:#995417;stroke-width:1.0223;stroke-miterlimit:10;" d="M55.6,129.523
				c0,0-12.153,58.017,7.329,126.289"/>
            <path style="fill:none;stroke:#995417;stroke-width:1.0223;stroke-miterlimit:10;" d="M75.932,197.34
				c-0.316,0.321-14.366,22.613-17.892,38.589"/>
            <path style="fill:none;stroke:#995417;stroke-width:1.0223;stroke-miterlimit:10;" d="M33.545,221.662
				c0,0,4.809,9.683,25.95,20.879"/>
            <path style="fill:none;stroke:#995417;stroke-width:1.0223;stroke-miterlimit:10;" d="M31.02,182.653
				c1.59,10.576,6.416,21.829,23.365,31.563"/>
            <path style="fill:none;stroke:#995417;stroke-width:1.0223;stroke-miterlimit:10;" d="M71.382,169.318
				c0,0-10.681,11.989-17.693,39.11"/>
		</g>
        <g>
			<path style="fill:#FF7700;" d="M462.023,245.26c0,0-1.703-13.052-2.438-17.988c-0.735-4.937,0-14.705,5.777-14.705
				c5.777,0,6.521,8.298,5.051,15.651C468.946,235.548,462.023,245.26,462.023,245.26z"/>
            <path style="fill:#FF7700;" d="M459.217,265.123c0,0,8.56-22.763,15.466-18.839C481.589,250.208,471.416,265.307,459.217,265.123
				z"/>
            <path style="fill:#FF7700;" d="M457.038,256.473c0,0,2.207-7.878,0-15.546c-2.207-7.668-6.795-7.797-8.299-4.784
				C445.451,242.729,455.198,251.424,457.038,256.473z"/>
            <path style="fill:none;stroke:#995417;stroke-width:1.0223;stroke-miterlimit:10;" d="M465.782,213.316
				c0,0,0.63,37.353-19.537,77.295"/>
            <path style="fill:none;stroke:#995417;stroke-width:1.0223;stroke-miterlimit:10;" d="M474.684,249.12
				c-2.241,6.357-6.564,12.749-18.211,16.76"/>
            <path style="fill:none;stroke:#995417;stroke-width:1.0223;stroke-miterlimit:10;" d="M451.287,236.072
				c0,0,5.187,8.689,6.305,26.308"/>
		</g>
        <path style="fill:#A6B1ED;" d="M395.404,185.582c10.025,0,42.064,0,48.648,0c6.583,0,12.289,0.658,12.728-2.414
			c0.439-3.072-4.252-3.731-6.186-6.364c-1.934-2.633-1.275-11.85-9.395-11.85s-10.215,6.527-13.337,5.348
			c-3.122-1.179-4.878-15.223-12.778-15.004c-7.9,0.219-12.586,18.404-16.756,16.897c-4.17-1.506-12.211-0.878-13.089,4.389
			c-0.878,5.267-16.174,2.658-16.665,6.803C368.083,187.532,383.624,185.582,395.404,185.582z"/>
        <g>
			<path style="fill:#FFEB8A;" d="M381.921,205.574c2.866,0.519,5.383,1.339,7.546,2.462c2.166,1.124,3.979,2.407,5.442,3.846
				c1.46,1.439,2.573,2.952,3.333,4.536c0.76,1.585,1.2,3.067,1.316,4.45c0.057,0.691-0.16,1.252-0.657,1.684
				c-0.499,0.433-1.069,0.648-1.713,0.648h-6.143c-0.994,0-1.74-0.186-2.237-0.561c-0.497-0.374-0.953-0.878-1.36-1.512
				c-0.877-1.439-2.209-2.693-3.993-3.759c-1.786-1.065-4.43-1.599-7.942-1.599c-1.52,0-2.97,0.159-4.343,0.476
				c-1.374,0.317-2.573,0.778-3.597,1.382c-1.026,0.605-1.829,1.339-2.413,2.203c-0.586,0.863-0.877,1.844-0.877,2.937
				c0,1.326,0.32,2.405,0.964,3.241c0.643,0.835,1.68,1.554,3.116,2.16c1.433,0.605,3.274,1.167,5.527,1.685
				c2.253,0.518,4.986,1.122,8.206,1.813c3.51,0.75,6.479,1.629,8.906,2.635c2.427,1.009,4.417,2.218,5.966,3.629
				c1.55,1.413,2.663,3.039,3.336,4.882c0.671,1.844,1.01,3.946,1.01,6.307c0,2.246-0.44,4.35-1.316,6.307
				c-0.879,1.958-2.15,3.715-3.816,5.269c-1.669,1.555-3.702,2.852-6.099,3.889c-2.4,1.037-5.119,1.756-8.162,2.16v5.876
				c0,0.633-0.234,1.18-0.7,1.641c-0.469,0.461-1.026,0.691-1.669,0.691h-7.106c-0.643,0-1.2-0.23-1.667-0.691
				c-0.469-0.461-0.703-1.008-0.703-1.641v-5.876c-2.633-0.404-5.103-1.08-7.416-2.03c-2.31-0.95-4.329-2.117-6.053-3.5
				c-1.726-1.382-3.116-2.98-4.169-4.795c-1.053-1.815-1.637-3.815-1.754-6.004c-0.06-0.692,0.16-1.253,0.657-1.685
				c0.497-0.432,1.067-0.648,1.713-0.648h6.143c0.993,0,1.754,0.172,2.28,0.519c0.527,0.345,0.966,0.863,1.317,1.555
				c0.407,0.748,0.906,1.498,1.493,2.246c0.584,0.749,1.374,1.411,2.367,1.987c0.996,0.576,2.239,1.052,3.73,1.425
				c1.493,0.376,3.35,0.563,5.573,0.563c1.756,0,3.45-0.13,5.089-0.389c1.637-0.259,3.073-0.691,4.3-1.296
				c1.23-0.605,2.223-1.352,2.983-2.246c0.76-0.893,1.14-2,1.14-3.326c0-1.267-0.41-2.304-1.227-3.111
				c-0.82-0.806-2.063-1.497-3.729-2.074c-1.667-0.575-3.73-1.122-6.186-1.641c-2.456-0.519-5.296-1.18-8.512-1.987
				c-2.926-0.691-5.483-1.513-7.676-2.463c-2.196-0.95-4.009-2.117-5.442-3.499c-1.433-1.383-2.5-3.009-3.203-4.882
				c-0.701-1.871-1.053-4.104-1.053-6.696c0-2.246,0.44-4.32,1.316-6.221c0.88-1.9,2.093-3.613,3.643-5.141
				c1.55-1.526,3.406-2.793,5.573-3.802c2.163-1.006,4.533-1.741,7.106-2.203v-5.875c0-0.633,0.234-1.18,0.703-1.641
				c0.467-0.461,1.023-0.692,1.667-0.692h7.106c0.643,0,1.2,0.231,1.669,0.692c0.467,0.461,0.7,1.008,0.7,1.641V205.574z"/>
		</g>
        <g>
			<g>
				<path style="fill:#8EAD46;" d="M322.629,367.367h139.669c0,0,7.667-1.09,3.333-9.045c-4.333-7.955-6.667-7.955-1.333-24.955
					c5.333-17,15-48.351,7.333-50.009c-7.667-1.658-16,22.431-25.667,23.387c-9.667,0.956,12-82.854-11.667-83.616
					c-23.667-0.762-33.667,56.238-42,66.238c-8.333,10-20.473-7.038-29.459,5.877c-8.986,12.915-6.485,54.744-15.293,50.458
					C332.822,338.538,322.629,367.367,322.629,367.367z"/>
                <path style="fill:none;stroke:#525730;stroke-width:0.8771;stroke-miterlimit:10;" d="M434.299,223.128
					c0,0-15.836,93.24-38.169,144.238"/>
                <path style="fill:none;stroke:#525730;stroke-width:0.8771;stroke-miterlimit:10;" d="M471.632,283.358
					c0,0-22.336,57.674-48.836,84.009"/>
                <path style="fill:none;stroke:#525730;stroke-width:0.8771;stroke-miterlimit:10;" d="M367.826,290.906
					c0,0,13.971,38.375,13.471,76.461"/>
                <path style="fill:none;stroke:#525730;stroke-width:0.8771;stroke-miterlimit:10;" d="M332.079,350.613
					c0,0,3.384,9.251,9.884,16.753"/>
                <path style="fill:none;stroke:#525730;stroke-width:0.8771;stroke-miterlimit:10;" d="M360.381,300.139
					c0,0,3.634,2.748,12.649,7.905"/>
                <path style="fill:none;stroke:#525730;stroke-width:0.8771;stroke-miterlimit:10;" d="M356.625,316.369
					c0,0,9.147,14.249,23.034,24.916"/>
                <path style="fill:none;stroke:#525730;stroke-width:0.8771;stroke-miterlimit:10;" d="M395.181,284.377
					c0,0-1.812,40.365,8.277,64.22"/>
                <path style="fill:none;stroke:#525730;stroke-width:0.8771;stroke-miterlimit:10;" d="M409.727,247.286
					c0,0-1.43,43.62,6.029,60.759"/>
                <path style="fill:none;stroke:#525730;stroke-width:0.8771;stroke-miterlimit:10;" d="M443.841,286.527
					c0,0-14.687,30.002-34.449,43.922"/>
                <path style="fill:none;stroke:#525730;stroke-width:0.8771;stroke-miterlimit:10;" d="M445.844,252.952
					c0,0-12.043,11.92-21.671,20.585"/>

                <line style="fill:none;stroke:#525730;stroke-width:0.8771;stroke-miterlimit:10;" x1="422.796" y1="227.713" x2="428.599" y2="252.952"/>
                <path style="fill:none;stroke:#525730;stroke-width:0.8771;stroke-miterlimit:10;" d="M473.072,301.457
					c0,0-7.456,8.828-16.366,14.911"/>
                <path style="fill:none;stroke:#525730;stroke-width:0.8771;stroke-miterlimit:10;" d="M464.299,333.367
					c0,0-17.802,16.881-32.402,23.608"/>
			</g>

            <line style="fill:none;stroke:#000000;stroke-width:0.9556;stroke-miterlimit:10;" x1="476.368" y1="367.367" x2="309.922" y2="367.367"/>
		</g>
        <path style="fill:#D4DAFF;" d="M82.056,298.642v-12.103l-7.634,0.408c-0.489-1.811-1.2-3.526-2.114-5.116l5.684-5.107
			l-8.558-8.558l-5.107,5.684c-1.59-0.915-3.305-1.625-5.116-2.115l0.408-7.634H47.515l0.408,7.634
			c-1.811,0.489-3.526,1.2-5.116,2.115l-5.107-5.684l-8.558,8.558l5.684,5.107c-0.915,1.589-1.625,3.305-2.114,5.116l-7.635-0.408
			v12.103l7.635-0.408c0.489,1.811,1.2,3.526,2.114,5.116l-5.684,5.107l8.558,8.558l5.107-5.684c1.59,0.915,3.305,1.625,5.116,2.114
			l-0.408,7.635h12.103l-0.408-7.635c1.811-0.489,3.526-1.2,5.116-2.114l5.106,5.684l8.558-8.558l-5.684-5.107
			c0.914-1.59,1.625-3.305,2.114-5.116L82.056,298.642z M53.567,303.163c-5.839,0-10.572-4.733-10.572-10.572
			c0-5.839,4.734-10.572,10.572-10.572c5.839,0,10.572,4.733,10.572,10.572C64.139,298.429,59.406,303.163,53.567,303.163z"/>
        <path style="fill:#D4DAFF;" d="M180.075,219.117v-13.803l-8.707,0.466c-0.558-2.065-1.368-4.022-2.411-5.834l6.482-5.824
			l-9.76-9.76l-5.824,6.482c-1.813-1.043-3.769-1.854-5.834-2.412l0.466-8.707h-13.803l0.466,8.707
			c-2.065,0.558-4.022,1.368-5.835,2.412l-5.824-6.482l-9.76,9.76l6.482,5.824c-1.043,1.813-1.854,3.769-2.411,5.834l-8.707-0.466
			v13.803l8.707-0.466c0.558,2.065,1.368,4.022,2.411,5.834l-6.482,5.824l9.76,9.76l5.824-6.482
			c1.813,1.043,3.769,1.854,5.835,2.411l-0.466,8.707h13.803l-0.466-8.707c2.065-0.558,4.022-1.368,5.835-2.411l5.824,6.482
			l9.76-9.76l-6.482-5.824c1.043-1.813,1.854-3.769,2.411-5.834L180.075,219.117z M147.585,224.273
			c-6.659,0-12.057-5.398-12.057-12.057c0-6.659,5.398-12.057,12.057-12.057c6.659,0,12.057,5.398,12.057,12.057
			C159.642,218.874,154.244,224.273,147.585,224.273z"/>
        <path style="fill:#ECFFBF;" d="M59.437,362.093h290c0,0-15-22.024-37-27.753c-22-5.729-28.517,3.751-41.009-17.239
			c-12.491-20.99-23.991-33.938-38.991-34.464c-15-0.526-39.68,15.512-67.532-1.708c-32.635-20.177-59.135-2.578-60.635,23.864
			C102.77,331.235,52.937,322.574,59.437,362.093z"/>
        <path style="fill:#598048;" d="M245.52,362.093c0,0,5.581-15.864,10.808-14.727c5.227,1.137,8.718,8.893,14.787,2.706
			c6.068-6.187,3.061-27.775,13.977-29.61c10.916-1.835,4.806,24.186,11.944,19.799c8.783-5.399,17.942-34.054,29.033-31.415
			c11.091,2.638,10.858,53.248,10.858,53.248H245.52z"/>
        <polygon style="fill:#FFD817;" points="211.977,362.093 254.31,278.878 278.818,287.736 307.586,223.805 336.387,234.471
			373.934,147.138 389.644,152.805 389.644,105.471 344.644,138.471 359.748,143.138 321.996,199.471 288.977,183.138
			245.644,244.646 209.977,226.9 128.742,362.093 		"/>
        <g>
			<path style="fill:#8EAD46;" d="M33.806,362.41c0,0-12.024-45.022-3.069-46.343c8.955-1.321,7.935,9.482,16.584,8.998
				c8.649-0.484-5.278-78.762,15.266-82.039c20.543-3.277,32.823,74.879,43.125,66.922c10.301-7.957,32.155-51.211,35.159,52.09
				L33.806,362.41z"/>
            <path style="fill:none;stroke:#525730;stroke-width:0.9512;stroke-miterlimit:10;" d="M62.586,243.026
				c0,0,4.2,69.257,21.559,119.384"/>
            <path style="fill:none;stroke:#525730;stroke-width:0.9512;stroke-miterlimit:10;" d="M69.123,244.714
				c0,0-1.779,13.674-4.492,21.065"/>
            <path style="fill:none;stroke:#525730;stroke-width:0.9512;stroke-miterlimit:10;" d="M51.692,263.351
				c0,0,1.571,6.434,15.66,24.124"/>
            <path style="fill:none;stroke:#525730;stroke-width:0.9512;stroke-miterlimit:10;" d="M86.633,274.734
				c0,0-2.838,46.699-10.613,59.352"/>
            <path style="fill:none;stroke:#525730;stroke-width:0.9512;stroke-miterlimit:10;" d="M30.736,316.067
				c0,0,6.325,20.076,28.786,46.343"/>
            <path style="fill:none;stroke:#525730;stroke-width:0.9512;stroke-miterlimit:10;" d="M50.493,293.784
				c0,0,8.372,30.573,30.054,57.355"/>
            <path style="fill:none;stroke:#525730;stroke-width:0.9512;stroke-miterlimit:10;" d="M40.898,322.37
				c0,0,1.971,8.525,2.729,18.797"/>
            <path style="fill:none;stroke:#525730;stroke-width:0.9512;stroke-miterlimit:10;" d="M28.983,340.147
				c0,0,10.273,7.251,24.858,15.327"/>
		</g>

        <line style="fill:none;stroke:#292E4A;stroke-width:1.0223;stroke-miterlimit:10;" x1="30.652" y1="362.093" x2="322.629" y2="362.093"/>
        <g>
			<path style="fill:#3747A3;" d="M95.635,398.758c-8.677,0-15.738-7.059-15.738-15.737V228.162c0-8.678,7.06-15.737,15.738-15.737
				h67.584c8.677,0,15.738,7.06,15.738,15.737v154.859c0,8.677-7.06,15.737-15.738,15.737H95.635z"/>
            <path style="fill:#4A60DB;" d="M103.359,398.758c-8.677,0-15.738-7.059-15.738-15.737V228.162c0-8.678,7.06-15.737,15.738-15.737
				h67.584c8.677,0,15.738,7.06,15.738,15.737v154.859c0,8.677-7.06,15.737-15.738,15.737H103.359z"/>
            <path style="fill:#292E4A;" d="M170.943,217.202H155.23c-0.832,0-1.568,0.542-1.814,1.337l-0.726,2.341
				c-0.404,1.302-1.608,2.19-2.972,2.19h-25.134c-1.363,0-2.568-0.888-2.972-2.19l-0.726-2.341
				c-0.246-0.795-0.982-1.337-1.814-1.337h-15.713c-6.053,0-10.96,4.907-10.96,10.96v154.859c0,6.053,4.907,10.96,10.96,10.96
				h67.584c6.053,0,10.96-4.907,10.96-10.96V228.162C181.903,222.109,176.996,217.202,170.943,217.202z"/>
            <path style="fill:#292E4A;" d="M144.119,219.352h-13.935c-0.418,0-0.757-0.339-0.757-0.757l0,0c0-0.418,0.339-0.757,0.757-0.757
				h13.935c0.418,0,0.756,0.339,0.756,0.757l0,0C144.875,219.014,144.537,219.352,144.119,219.352z"/>

            <line style="fill:none;stroke:#FFFFFF;stroke-width:1.4467;stroke-linecap:round;stroke-linejoin:round;stroke-miterlimit:10;" x1="83.322" y1="243.799" x2="83.322" y2="266.891"/>

            <line style="fill:none;stroke:#FFFFFF;stroke-width:1.4467;stroke-linecap:round;stroke-linejoin:round;stroke-miterlimit:10;" x1="83.322" y1="274.098" x2="83.322" y2="284.888"/>
		</g>
        <g>
			<polygon style="fill:#4A60DB;" points="299.477,391.581 317.732,287.131 452.512,287.131 434.257,391.581 			"/>
            <polygon style="fill:#292E4A;" points="430.561,387.17 304.743,387.17 321.428,291.542 447.246,291.542 			"/>
            <rect x="210.31" y="391.581" style="fill:#3747A3;" width="224.48" height="7.531"/>
            <rect x="210.31" y="391.581" style="fill:#4A60DB;" width="103.123" height="7.531"/>

            <line style="fill:none;stroke:#3747A3;stroke-width:0.9823;stroke-miterlimit:10;" x1="434.79" y1="391.581" x2="210.31" y2="391.581"/>
		</g>
        <g>
			<path style="fill:#F9B989;" d="M400.785,365.029c0,0,1.417,3.917,0.917,5.833c-0.5,1.917-2,3.583-2.083,6.417
				c-0.083,2.833,0.19,7.833,1.095,8c0.905,0.167,0.285-3.75,1.095-4.083c0.81-0.333,3.56,5.759,3.56,5.759h8.167
				c0,0-2.833-17.592-3.25-20.592C409.868,363.362,400.785,365.029,400.785,365.029z"/>
            <path style="fill:#F9B989;" d="M262.035,318.029c0,0-13.167-1.083-16.5-1.917c-3.333-0.833-12.083,1.917-12.083,1.917
				l14.662,12.073c0,0,3.671-2.304,7.671-2.98c4-0.676,6.75-0.426,6.75-0.426L262.035,318.029z"/>
            <path style="fill:#F9B989;" d="M318.439,242.588c-0.164,3.31-1.053,11.562-0.542,15.388c0.511,3.826,2.512,6.5,6.496,5.882
				c3.984-0.618,7.529,16.214,7.529,16.214l8.564,1.28l6.188-9.392l-5.788-10.303c0,0,4.193-11.374,2.004-18.048
				c-2.189-6.674-18.031-11.915-23.97-9.738C312.98,236.048,318.439,242.588,318.439,242.588z"/>
            <polygon style="fill:#FF7700;" points="326.859,270.969 336.702,274.862 338.785,279.362 338.785,273.612 346.136,265.862
				348.077,270.112 367.702,347.862 338.452,347.862 321.327,279.362 326.452,275.987 			"/>
            <polygon style="fill:#FFFFFF;" points="383.762,386.954 324.032,386.954 335.202,347.862 380.565,347.862 			"/>
            <path style="fill:#6470B5;" d="M326.452,275.987c2.917,7.958,16.042,63.292,18.063,70.792c2.021,7.5,3.188,28.167,3.188,28.167
				s-17.333,0.333-21.25,0c-3.917-0.333,1.25-24.333,1.083-29.833c-0.167-5.5-10.667-34-10.667-34s-19.667,17.167-22.667,17.5
				c-3,0.333-34-0.833-34-0.833v-10.833c0,0,26-1.5,28.833-3c2.833-1.5,20-21.333,24.167-26.333
				C317.368,282.612,321.202,276.195,326.452,275.987z"/>
            <path style="fill:#495285;" d="M310.577,298.862c-2.25,0.25-4.625,14.5-7.5,18.625c-1.828,2.623-4.46,6.656-6.041,9.635
				c6.334-4.228,19.833-16.01,19.833-16.01C315.577,308.112,312.827,298.612,310.577,298.862z"/>
            <path style="fill:#6470B5;" d="M400.111,367.408h11.341l-4.463-25.033c-1.441-9.236-4.407-18.163-8.785-26.422
				c-7.423-14.003-19.003-34.934-23.753-38.592c-3.132-2.412-17.25-7.75-26.375-7.25c0,0,10.375,63.75,11.875,73.75
				s7.75,29.75,7.75,29.75h20.962l-4.902-28.694l-5.56-26.806l11.84,15.914L400.111,367.408z"/>
            <path style="fill:#495285;" d="M378.202,318.112c0,0-7.125-9.875-8.75-15.375s-2.5-13.125-1.75-15.25s-1.75-3-2.875,6.125
				s-1.125,17.25,4.375,26.25s1.625,14.25,6,22.25s9.986,11.149,9.986,11.149L378.202,318.112z"/>
            <path d="M311.262,232.903c2.859-6.223,9.703-2.507,17.264-1.612c7.561,0.894,14.611,1.857,17.061,7.241
				c2.449,5.384-0.587,16.346-4.701,23.125c0,0-3.322-4.143-3.356-6.993c-0.034-2.851,3.355-4.688,1.949-7.442
				c-1.406-2.754-3.423-1.014-3.871,0.171s-0.714,2.431-1.23,1.808c-0.516-0.623,0.442-3.174,0.158-5.299
				c-0.284-2.125-1.31-5.276-6.059-4.556c-4.749,0.721-9.737-0.344-9.737-0.344l-0.3,3.588
				C318.439,242.588,308.044,239.909,311.262,232.903z"/>
		</g>
        <path style="fill:#A6B1ED;" d="M99.183,127.303c15.621,0,94.643,0,112.408,0s25.116-2.234,15.927-8.616
			c-9.189-6.382-11.945-6.701-15.008-13.083c-3.063-6.382-10.108-10.531-19.909-9.254c-9.801,1.276-16.421,4.787-23.984-2.872
			c-7.563-7.659-14.608-19.466-32.985-12.445c-19.155,7.318-20.079,24.89-35.529,28.401
			C84.651,112.943,67.635,127.303,99.183,127.303z"/>
        <g>
			<path style="fill:#4A60DB;" d="M192.174,272.58c0,0,6.715-1.174,9.319-8.93c2.604-7.756,9.692-15.856,22.132-14.699
				c12.44,1.157,18.732,10.226,17.033,23.629c-1.699,13.403-13.182,15.413-21.689,15.276c-8.508-0.137-14.35-8.961-18.01-11.854
				C197.298,273.108,192.174,272.58,192.174,272.58z"/>
            <path style="fill:#FFFFFF;" d="M231.291,270.389v-4.077l-2.572,0.138c-0.165-0.61-0.404-1.188-0.712-1.723l1.915-1.72
				l-2.883-2.883l-1.72,1.915c-0.535-0.308-1.113-0.547-1.723-0.712l0.138-2.572h-4.077l0.138,2.572
				c-0.61,0.165-1.188,0.404-1.723,0.712l-1.72-1.915l-2.883,2.883l1.915,1.72c-0.308,0.535-0.548,1.113-0.712,1.723l-2.572-0.138
				v4.077l2.572-0.138c0.165,0.61,0.404,1.188,0.712,1.723l-1.915,1.72l2.883,2.883l1.72-1.915c0.535,0.308,1.113,0.547,1.723,0.712
				l-0.138,2.572h4.077l-0.138-2.572c0.61-0.165,1.188-0.404,1.723-0.712l1.72,1.915l2.883-2.883l-1.915-1.72
				c0.308-0.535,0.548-1.113,0.712-1.723L231.291,270.389z M221.695,271.912c-1.967,0-3.561-1.594-3.561-3.561
				c0-1.967,1.594-3.561,3.561-3.561c1.967,0,3.561,1.594,3.561,3.561C225.256,270.318,223.662,271.912,221.695,271.912z"/>
		</g>
        <g>
			<rect x="258.328" y="129.867" style="fill:#FFEB8A;" width="30.427" height="40.371"/>

            <line style="fill:none;stroke:#FFA200;stroke-width:0.7146;stroke-miterlimit:10;" x1="261.775" y1="136.97" x2="267.741" y2="136.97"/>

            <line style="fill:none;stroke:#FFA200;stroke-width:0.7146;stroke-miterlimit:10;" x1="261.775" y1="142.926" x2="284.181" y2="142.926"/>

            <line style="fill:none;stroke:#FFA200;stroke-width:0.7146;stroke-miterlimit:10;" x1="261.775" y1="148.882" x2="284.181" y2="148.882"/>

            <line style="fill:none;stroke:#FFA200;stroke-width:0.7146;stroke-miterlimit:10;" x1="261.775" y1="154.838" x2="284.181" y2="154.838"/>

            <line style="fill:none;stroke:#FFA200;stroke-width:0.7146;stroke-miterlimit:10;" x1="261.775" y1="160.794" x2="284.181" y2="160.794"/>
		</g>
        <g>
			<path style="fill:#4A60DB;" d="M253.592,212.91c4.085-3.858,45.475-1.604,48.345,0.813c2.869,2.416,0.929,19.012,1.01,25.215
				c0.047,3.631,3.417,10.88,7.697,11.333c-4.932,2.567-12.785,0.755-16.712-1.51c-3.927-2.265-5.187-1.797-12.637-1.797
				c-7.45,0-19.313,0-24.213,0c-4.9,0-6.343-4.848-6.343-12.248C250.74,227.315,250.874,215.478,253.592,212.91z"/>
            <g>
				<path style="fill:#FFD817;" d="M280.387,219.968c0.897,0.162,1.685,0.419,2.362,0.77c0.678,0.352,1.245,0.753,1.703,1.204
					c0.457,0.45,0.805,0.924,1.043,1.419c0.238,0.496,0.376,0.96,0.412,1.393c0.018,0.216-0.05,0.392-0.206,0.527
					c-0.156,0.135-0.335,0.203-0.536,0.203h-1.922c-0.311,0-0.545-0.058-0.7-0.176c-0.155-0.117-0.298-0.275-0.426-0.473
					c-0.274-0.45-0.691-0.843-1.25-1.176c-0.559-0.333-1.386-0.5-2.486-0.5c-0.476,0-0.929,0.05-1.359,0.149
					c-0.43,0.099-0.805,0.243-1.126,0.432c-0.321,0.189-0.573,0.419-0.755,0.69c-0.184,0.27-0.274,0.577-0.274,0.919
					c0,0.415,0.1,0.753,0.302,1.014c0.201,0.261,0.526,0.486,0.975,0.676c0.449,0.189,1.025,0.365,1.73,0.527
					c0.705,0.162,1.561,0.351,2.568,0.567c1.098,0.235,2.028,0.51,2.787,0.825c0.76,0.316,1.382,0.694,1.867,1.136
					c0.485,0.442,0.833,0.951,1.044,1.528c0.21,0.577,0.316,1.235,0.316,1.974c0,0.703-0.138,1.361-0.412,1.974
					c-0.275,0.613-0.673,1.163-1.195,1.649c-0.522,0.487-1.159,0.893-1.909,1.217c-0.751,0.325-1.602,0.549-2.555,0.676v1.839
					c0,0.198-0.073,0.369-0.219,0.514c-0.147,0.144-0.321,0.216-0.522,0.216h-2.224c-0.201,0-0.376-0.072-0.522-0.216
					c-0.147-0.144-0.22-0.315-0.22-0.514v-1.839c-0.824-0.126-1.597-0.338-2.321-0.635c-0.723-0.297-1.355-0.663-1.894-1.095
					c-0.54-0.432-0.975-0.933-1.305-1.501c-0.33-0.568-0.512-1.194-0.549-1.879c-0.019-0.217,0.05-0.392,0.206-0.527
					s0.334-0.203,0.536-0.203h1.922c0.311,0,0.549,0.054,0.714,0.162c0.165,0.108,0.302,0.27,0.412,0.487
					c0.127,0.234,0.284,0.469,0.467,0.703c0.183,0.234,0.43,0.442,0.741,0.622c0.312,0.18,0.701,0.329,1.167,0.446
					c0.467,0.117,1.048,0.176,1.744,0.176c0.55,0,1.08-0.04,1.593-0.122c0.512-0.081,0.962-0.216,1.346-0.406
					c0.385-0.189,0.696-0.423,0.934-0.703c0.238-0.279,0.357-0.626,0.357-1.041c0-0.396-0.128-0.721-0.384-0.974
					c-0.257-0.252-0.646-0.468-1.167-0.649c-0.522-0.18-1.167-0.351-1.936-0.514c-0.769-0.162-1.657-0.369-2.664-0.622
					c-0.916-0.216-1.716-0.473-2.402-0.771c-0.687-0.297-1.255-0.662-1.703-1.095c-0.449-0.433-0.782-0.942-1.002-1.528
					c-0.219-0.585-0.33-1.284-0.33-2.096c0-0.703,0.138-1.352,0.412-1.947c0.275-0.595,0.655-1.131,1.14-1.609
					c0.485-0.478,1.066-0.874,1.744-1.19c0.677-0.315,1.419-0.545,2.224-0.69v-1.839c0-0.198,0.073-0.369,0.22-0.514
					c0.146-0.144,0.32-0.217,0.522-0.217h2.224c0.201,0,0.375,0.072,0.522,0.217c0.146,0.144,0.219,0.315,0.219,0.514V219.968z"/>
			</g>
		</g>
        <g>
			<path style="fill:#FFFFFF;" d="M163.577,354.362l2.322,39.583h-63.852c0,0,1.655-8.829,1.655-15.958
				c0-14.25,8.5-23.625,8.5-23.625H163.577z"/>
            <polygon style="fill:#D1D1D1;" points="144.468,393.945 165.899,393.945 163.577,354.362 155.407,354.362 			"/>
            <path style="fill:#F59462;" d="M183.285,235.695c0,0-0.667,9,0.5,10.583c1.167,1.583,0.727,2.583-0.345,3.083
				c-1.072,0.5-1.072,8.833-3.572,9.417c-2.5,0.583-4.666-1.309-5.583,1.346c-0.917,2.654-2.083,9.071-2.083,9.071l-15.75-1.083
				l4.417-11.667c0,0-3-8.667-1-16.167S182.785,228.195,183.285,235.695z"/>
            <path style="fill:#6470B5;" d="M152.702,264.612l26.363,3.715c0.606,0.086,1.004,0.679,0.851,1.272l-1.547,6.013
				c0,0,1.333,9.333,0.833,16.333s-6.167,31.333-7.667,38.833s-2.667,26-6.5,26.167c-3.833,0.167-48.333,0-56,0
				s3.833-7.833,7.667-14.667c3.833-6.833,8.5-29.833,14.667-43c6.167-13.167,19.833-27.917,20.167-30.792
				S151.231,264.405,152.702,264.612z"/>
            <path style="fill:#495285;" d="M150.441,291.371c-2.785-3.507-4.348-2.634-2.856,3.241s3.367,11.125,8.867,14.625
				c4.965,3.159,6.163,21.899,14.257,26.712c0.277-1.98,0.546-3.767,0.826-5.17c1.226-6.132,5.237-23.512,6.933-33.476
				C178.462,297.303,152.784,294.322,150.441,291.371z"/>
            <path style="fill:#F59462;" d="M183.952,298.862c0,0,9.5,12.861,12.583,13.764c3.083,0.903,33.917,3.403,36.583,3.403
				c2.667,0,8.75,3.75,11.167,4.917c2.417,1.167,8.75,6.5,5.5,8.417c-3.25,1.917-8.917,1.75-12.167,0s-5.917-4.083-8.833-4.083
				s-31.506,0.725-37.75-1.167c-8.666-2.625-22.117-17.25-24.308-19.167L183.952,298.862z"/>
            <path style="fill:#F9B989;" d="M230.389,327.487c0.25-1.897-0.125-3.813,2.625-2.813s5.563,3.313,7.75,3.938
				s-0.063,3.188-1.813,3.188S230.137,329.4,230.389,327.487z"/>
            <path style="fill:#F9B989;" d="M230.077,317.55c0,0,11.312-2.064,14.188-1.595c2.875,0.469,1.01,1.652-2.25,2.657
				C234.514,320.925,227.035,319.07,230.077,317.55z"/>
            <path style="fill:#995417;" d="M167.035,245.112c0,0-3-3-3.833,0c-0.833,3,2.5,5.5,1.917,7.167
				c-0.583,1.667-3.083,8.167-4.917,7.833c-1.833-0.333,0.5-4-1.667-7.333c-2.167-3.333-5-7.333-3.167-14.833
				c1.833-7.5,7.667-5.5,9.667-8.333c2-2.833,3.667-5.667,11.5-4.833c7.833,0.833,11.333-3.796,14.667-0.148
				c3.333,3.648,2.833,10.315-5.5,12.148c-8.333,1.833-10-0.667-11.75,1.333C172.202,240.112,169.202,244.945,167.035,245.112z"/>
            <path style="fill:#6470B5;" d="M148.618,289.279l16.333,18.75l20.917-8.083c0,0-9.833-14.833-13.167-18.833
				c-3.333-4-9.167-8.083-14.167-7.25C153.535,274.695,144.535,283.862,148.618,289.279z"/>
            <path style="fill:none;stroke:#495285;stroke-miterlimit:10;" d="M169.352,277.817c0,0,4.521,3.242,9.935,12.393"/>
		</g>

        <line style="fill:none;stroke:#292E4A;stroke-width:1.0223;stroke-miterlimit:10;" x1="68.39" y1="398.758" x2="186.89" y2="398.758"/>

        <line style="fill:none;stroke:#292E4A;stroke-width:1.0223;stroke-miterlimit:10;" x1="206.647" y1="398.758" x2="453.702" y2="398.758"/>
	</g>
</g>
</svg>
