<?xml version="1.0" encoding="UTF-8"?><svg id="uuid-ec26d545-b991-4c27-ad2e-ac602cfdb63d" xmlns="http://www.w3.org/2000/svg" viewBox="0 0 521.2 408.46"><defs><style>.uuid-06323013-c618-465e-8899-e62ee8c6fda2{fill:#0e74bb;}.uuid-e6ae0c2d-0b04-4075-a906-685925370a85{fill:#99b9ff;}.uuid-3496f9ff-199c-4400-bb9d-607cb426c5fe{fill:#fff;}.uuid-ec0f5bbf-83ed-4193-bef5-235c2b648091{fill:#080717;}</style></defs><rect class="uuid-ec0f5bbf-83ed-4193-bef5-235c2b648091" x="0" y="208.9" width="272.29" height="199.57" rx="10.41" ry="10.41"/><rect class="uuid-e6ae0c2d-0b04-4075-a906-685925370a85" x="248.9" y="0" width="272.29" height="199.57" rx="10.41" ry="10.41"/><path class="uuid-ec0f5bbf-83ed-4193-bef5-235c2b648091" d="M501.67,0h-233.25c-10.78,0-19.52,8.74-19.52,19.52v12.14h272.29v-12.14c0-10.78-8.74-19.52-19.52-19.52Z"/><circle class="uuid-e6ae0c2d-0b04-4075-a906-685925370a85" cx="271.02" cy="16.53" r="5.98"/><circle class="uuid-e6ae0c2d-0b04-4075-a906-685925370a85" cx="289.44" cy="16.53" r="5.98"/><path class="uuid-e6ae0c2d-0b04-4075-a906-685925370a85" d="M313.83,16.53c0,3.3-2.68,5.98-5.98,5.98s-5.98-2.68-5.98-5.98,2.68-5.98,5.98-5.98,5.98,2.68,5.98,5.98Z"/><path class="uuid-ec0f5bbf-83ed-4193-bef5-235c2b648091" d="M252.77,208.9H19.52c-10.78,0-19.52,8.74-19.52,19.52v12.14h272.29v-12.14c0-10.78-8.74-19.52-19.52-19.52Z"/><path class="uuid-3496f9ff-199c-4400-bb9d-607cb426c5fe" d="M28.1,225.43c0,3.3-2.68,5.98-5.98,5.98s-5.98-2.68-5.98-5.98,2.68-5.98,5.98-5.98,5.98,2.68,5.98,5.98Z"/><path class="uuid-3496f9ff-199c-4400-bb9d-607cb426c5fe" d="M46.51,225.43c0,3.3-2.68,5.98-5.98,5.98s-5.98-2.68-5.98-5.98,2.68-5.98,5.98-5.98,5.98,2.68,5.98,5.98Z"/><path class="uuid-3496f9ff-199c-4400-bb9d-607cb426c5fe" d="M64.93,225.43c0,3.3-2.68,5.98-5.98,5.98s-5.98-2.68-5.98-5.98,2.68-5.98,5.98-5.98,5.98,2.68,5.98,5.98Z"/><polygon class="uuid-3496f9ff-199c-4400-bb9d-607cb426c5fe" points="458.7 128.38 431.18 143.43 416.14 170.94 401.09 143.43 373.57 128.38 401.09 113.33 416.14 85.81 431.18 113.33 458.7 128.38"/><polygon class="uuid-3496f9ff-199c-4400-bb9d-607cb426c5fe" points="395.7 98.81 368.18 113.86 353.14 141.37 338.09 113.86 310.57 98.81 338.09 83.76 353.14 56.24 368.18 83.76 395.7 98.81"/><path class="uuid-3496f9ff-199c-4400-bb9d-607cb426c5fe" d="M177.55,294.96c0-25.63-20.78-46.42-46.42-46.42s-46.42,20.78-46.42,46.42c0,17.17,9.35,32.13,23.21,40.16v17.86h46.42v-17.86c13.86-8.03,23.21-22.99,23.21-40.16Z"/><path class="uuid-06323013-c618-465e-8899-e62ee8c6fda2" d="M108.63,346.01h45.02v26.93c0,3.24-2.63,5.87-5.87,5.87h-33.27c-3.24,0-5.87-2.63-5.87-5.87v-26.93h0Z"/><rect class="uuid-06323013-c618-465e-8899-e62ee8c6fda2" x="104.06" y="361.03" width="54.15" height="7.5"/><rect class="uuid-06323013-c618-465e-8899-e62ee8c6fda2" x="104.06" y="345.59" width="54.15" height="7.5"/><rect class="uuid-3496f9ff-199c-4400-bb9d-607cb426c5fe" x="129.08" y="229.17" width="3.75" height="7.74"/><rect class="uuid-3496f9ff-199c-4400-bb9d-607cb426c5fe" x="107.91" y="232.9" width="3.75" height="7.74" transform="translate(-74.37 51.84) rotate(-20)"/><rect class="uuid-3496f9ff-199c-4400-bb9d-607cb426c5fe" x="89.3" y="243.65" width="3.75" height="7.74" transform="translate(-137.79 116.56) rotate(-40.01)"/><rect class="uuid-3496f9ff-199c-4400-bb9d-607cb426c5fe" x="75.48" y="260.11" width="3.75" height="7.74" transform="translate(-189.94 199.01) rotate(-60.01)"/><rect class="uuid-3496f9ff-199c-4400-bb9d-607cb426c5fe" x="68.13" y="280.31" width="3.75" height="7.74" transform="translate(-222 303.88) rotate(-80.02)"/><rect class="uuid-3496f9ff-199c-4400-bb9d-607cb426c5fe" x="66.14" y="303.79" width="7.74" height="3.75" transform="translate(-52.06 16.82) rotate(-10.01)"/><rect class="uuid-3496f9ff-199c-4400-bb9d-607cb426c5fe" x="73.49" y="323.99" width="7.74" height="3.75" transform="translate(-152.55 82.32) rotate(-29.99)"/><rect class="uuid-3496f9ff-199c-4400-bb9d-607cb426c5fe" x="87.31" y="340.45" width="7.74" height="3.75" transform="translate(-229.75 192.29) rotate(-50.03)"/><rect class="uuid-3496f9ff-199c-4400-bb9d-607cb426c5fe" x="129.45" y="229.17" width="3.75" height="7.74"/><rect class="uuid-3496f9ff-199c-4400-bb9d-607cb426c5fe" x="148.62" y="234.89" width="7.74" height="3.75" transform="translate(-122.17 299) rotate(-69.98)"/><rect class="uuid-3496f9ff-199c-4400-bb9d-607cb426c5fe" x="167.23" y="245.64" width="7.74" height="3.75" transform="translate(-128.47 219.34) rotate(-49.97)"/><rect class="uuid-3496f9ff-199c-4400-bb9d-607cb426c5fe" x="181.05" y="262.1" width="7.74" height="3.75" transform="translate(-107.2 127.8) rotate(-29.99)"/><rect class="uuid-3496f9ff-199c-4400-bb9d-607cb426c5fe" x="188.4" y="282.3" width="7.73" height="3.75" transform="translate(-46.34 37.62) rotate(-9.98)"/><rect class="uuid-3496f9ff-199c-4400-bb9d-607cb426c5fe" x="190.39" y="301.8" width="3.75" height="7.73" transform="translate(-142.21 441.77) rotate(-79.97)"/><rect class="uuid-3496f9ff-199c-4400-bb9d-607cb426c5fe" x="183.04" y="322" width="3.75" height="7.73" transform="translate(-189.75 323.07) rotate(-60)"/><rect class="uuid-3496f9ff-199c-4400-bb9d-607cb426c5fe" x="169.23" y="338.46" width="3.75" height="7.74" transform="translate(-180 190.03) rotate(-39.99)"/><path d="M131.14,306.77c-7.02,0-12.72-5.71-12.72-12.72s5.71-12.72,12.72-12.72,12.72,5.71,12.72,12.72-5.71,12.72-12.72,12.72ZM131.14,286.95c-3.91,0-7.1,3.18-7.1,7.1s3.18,7.1,7.1,7.1,7.1-3.18,7.1-7.1-3.18-7.1-7.1-7.1Z"/><rect x="128.32" y="274.23" width="5.63" height="9.91"/><rect x="128.32" y="303.95" width="5.63" height="9.91"/><rect x="141.05" y="291.23" width="9.91" height="5.63"/><rect x="111.32" y="291.23" width="9.91" height="5.63"/><rect x="138.83" y="299.6" width="5.63" height="9.91" transform="translate(-173.86 189.34) rotate(-45)"/><rect x="117.82" y="278.58" width="5.63" height="9.91" transform="translate(-165.16 168.36) rotate(-45)"/><rect x="136.69" y="280.72" width="9.91" height="5.63" transform="translate(-158.98 183.14) rotate(-44.99)"/><rect x="115.67" y="301.74" width="9.91" height="5.63" transform="translate(-180.02 174.5) rotate(-45)"/></svg>