<?xml version="1.0" encoding="utf-8"?>
<!-- Generator: Adobe Illustrator 27.5.0, SVG Export Plug-In . SVG Version: 6.00 Build 0)  -->
<svg version="1.1" xmlns="http://www.w3.org/2000/svg" x="0px" y="0px"
	 viewBox="0 0 3710 3710" style="enable-background:new 0 0 3710 3710;" xml:space="preserve">
<g id="Illustration">
	<g>
		<linearGradient id="SVGID_1_" gradientUnits="userSpaceOnUse" x1="3566.3" y1="4051.2283" x2="1095.5626" y2="982.7272">
			<stop  offset="0" style="stop-color:#DAE3FE"/>
			<stop  offset="1" style="stop-color:#E9EFFD"/>
		</linearGradient>
		<path style="fill:url(#SVGID_1_);" d="M2886.585,2841.122c-56.752,59.746-110.45,98.275-152.876,128.716
			c-498.707,357.828-1088.81,253.523-1214.223,228.051c-185.196-37.614-543.177-110.322-801.99-414.682
			c-391.563-460.47-330.591-1185.928-26.868-1664.813c55.556-87.596,349.017-573.776,945.476-651.743
			c360.97-47.185,781.746,47.982,1086.46,303.272C3362.184,1305.799,3316.65,2388.363,2886.585,2841.122z"/>
		<g>
			<path style="fill:#91B3FA;" d="M494.736,502.493c-3.406-14.499,16.991-24.137,29.48-14.009
				c126.828,102.844,431.557,410.818,355.613,949.023c-95.284,675.259,67.615,921.655,270.384,1071.952
				c0,0-278.469-70.679-453.669-320.701C266.389,1574.897,555.299,760.299,494.736,502.493z"/>
			<path style="fill:#FFFFFF;" d="M591.254,713.404c15.866,75.173,30.008,150.576,40.935,226.318
				c11.386,75.679,20.112,151.622,26.082,227.69c5.632,76.082,9.611,152.243,9.837,228.437c0.623,76.189-2.545,152.316-6.035,228.74
				c-2.994,76.396-6.513,153.343-0.92,230.835c5.499,77.334,21.778,155.343,54.081,228.472
				c8.075,18.226,16.566,36.395,26.213,53.951c9.274,17.718,19.458,35.086,29.999,52.29c21.284,34.325,45.243,67.488,71.943,98.965
				c53.593,62.847,118.228,118.597,189.432,165.78c7.494,4.966,18.231,3.745,23.983-2.726c5.647-6.354,4.386-15.409-2.757-20.436
				l-0.051-0.036c-16.942-11.899-33.706-23.951-49.79-36.607c-8.161-6.219-15.985-12.736-23.948-19.124
				c-7.673-6.64-15.647-13.026-23.074-19.864c-30.235-26.911-58.246-55.622-83.658-85.98
				c-51.116-60.434-92.036-127.776-123.038-197.59c-15.049-35.069-27.079-71.034-35.863-107.674
				c-8.752-36.65-14.257-73.936-17.301-111.522c-6.097-75.215-3.343-151.4-0.985-227.81c2.244-76.43,3.89-153.247,1.873-230.002
				c-0.888-38.375-2.575-76.733-5.057-115.045c-1.113-19.161-2.655-38.3-4.158-57.439c-1.715-19.126-3.552-38.242-5.57-57.34
				c-8.233-76.385-19.161-152.515-32.859-228.241c-14.118-75.669-30.557-150.989-50.329-225.635
				c-0.566-2.134-3.026-3.468-5.496-2.979C592.346,709.305,590.821,711.334,591.254,713.404z"/>
		</g>
		<g>
			<g>
				<path style="fill:#7D97F4;" d="M795.943,2118.784c-15.551,16.499-42.898,11.755-52.252-8.898
					c-51.618-113.956-168.423-449.347,24.486-835.736c162.903-326.288,220.229-518.695,240.201-607.844
					c4.223-18.851,30.057-21.354,37.855-3.68C1132.265,857.631,1359.43,1520.929,795.943,2118.784z"/>
				<path style="fill:#91B3FA;" d="M767.696,2106.76c-0.553,0.099-1.122,0.146-1.706,0.136c-4.888-0.075-8.79-4.098-8.715-8.986
					c0.085-5.542,10.87-559.441,216.881-1023.355c1.984-4.464,7.213-6.478,11.684-4.498c4.468,1.986,6.481,7.215,4.498,11.685
					c-204.513,460.536-215.278,1010.935-215.363,1016.439C774.912,2102.487,771.783,2106.027,767.696,2106.76z"/>
			</g>
		</g>
		<g>
			<g>
				
					<linearGradient id="SVGID_00000029734572186216389210000006713254737516758711_" gradientUnits="userSpaceOnUse" x1="2106.8977" y1="2766.9541" x2="2277.7439" y2="1960.5629">
					<stop  offset="0" style="stop-color:#09005D"/>
					<stop  offset="1" style="stop-color:#1A0F91"/>
				</linearGradient>
				<polygon style="fill:url(#SVGID_00000029734572186216389210000006713254737516758711_);" points="1901.51,2267.645 
					1851.731,2714.098 2429.27,2714.098 2354.044,2267.645 				"/>
				
					<linearGradient id="SVGID_00000088850081669928157120000017127181208057311383_" gradientUnits="userSpaceOnUse" x1="1933.3557" y1="671.2809" x2="2155.4573" y2="2338.7402">
					<stop  offset="0" style="stop-color:#09005D"/>
					<stop  offset="1" style="stop-color:#1A0F91"/>
				</linearGradient>
				<path style="fill:url(#SVGID_00000088850081669928157120000017127181208057311383_);" d="M896.544,1135.773v1052.155
					c0,86.554,68.973,157.334,155.498,159.565c384.298,9.909,1728.387,33.938,2094.214,28.545
					c62.875-0.927,113.811-51.242,115.625-114.099c7.054-244.43,18.511-832.202-23.887-1105.081
					c-8.928-57.466-57.434-100.437-115.56-102.296c-321.993-10.301-1746.816-43.009-2112.471-34.797
					C946.9,1021.181,896.544,1072.694,896.544,1135.773z"/>
				
					<linearGradient id="SVGID_00000120549469533091850690000008834514350723953319_" gradientUnits="userSpaceOnUse" x1="2176.4387" y1="319.6263" x2="1995.3439" y2="2656.7908">
					<stop  offset="0" style="stop-color:#53D8FF"/>
					<stop  offset="1" style="stop-color:#3840F7"/>
				</linearGradient>
				<path style="fill:url(#SVGID_00000120549469533091850690000008834514350723953319_);" d="M962.564,1130.651v999.62
					c0,50.535,40.566,91.712,91.095,92.467l2039.967,25.203c50.096,0.749,91.159-39.555,91.346-89.657l3.413-990.688
					c0.134-35.824-28.406-65.176-64.22-66.048l-2088.548-42.194C995.561,1058.38,962.564,1090.584,962.564,1130.651z"/>
				<path style="fill:#91B3FA;" d="M3200.331,2289.359c-0.02,0-0.038,0-0.057,0l-2237.765-38.127
					c-1.81-0.033-3.253-1.525-3.222-3.335c0.029-1.81,1.506-3.237,3.334-3.224l2237.765,38.127c1.81,0.033,3.253,1.525,3.222,3.335
					C3203.578,2287.926,3202.115,2289.359,3200.331,2289.359z"/>
				
					<linearGradient id="SVGID_00000007402926771692366160000006015096238765354659_" gradientUnits="userSpaceOnUse" x1="2187.1101" y1="3306.6499" x2="2125.6057" y2="2725.7756">
					<stop  offset="0" style="stop-color:#09005D"/>
					<stop  offset="1" style="stop-color:#1A0F91"/>
				</linearGradient>
				<path style="fill:url(#SVGID_00000007402926771692366160000006015096238765354659_);" d="M2553.671,2805.441h-845.267
					c-22.963,0-40.208-16.347-35.768-33.907l10.846-42.895c3.261-12.9,17.453-22.371,34.309-22.896l814.868-25.427
					c17.61-0.549,33.203,8.798,37.04,22.205l19.553,68.322C2594.332,2788.593,2577.005,2805.441,2553.671,2805.441z"/>
				<path style="fill:#91B3FA;" d="M962.564,1130.651v999.62c0,50.535,40.566,91.712,91.095,92.467l2039.967,25.203
					c50.096,0.749,91.159-39.555,91.346-89.657l3.413-990.688c0.134-35.824-28.406-65.176-64.22-66.048l-2088.548-42.194
					C995.561,1058.38,962.564,1090.584,962.564,1130.651z"/>
				
					<linearGradient id="SVGID_00000029751668077312688000000009920255499435501746_" gradientUnits="userSpaceOnUse" x1="2017.3588" y1="2605.6321" x2="2104.4856" y2="519.713">
					<stop  offset="0" style="stop-color:#4F52FF"/>
					<stop  offset="1" style="stop-color:#4042E2"/>
				</linearGradient>
				<path style="fill:url(#SVGID_00000029751668077312688000000009920255499435501746_);" d="M3187.984,1283.474l0.4-116.096
					c0.134-35.823-28.406-65.067-64.22-65.938l-2088.014-42.14c-40.056-0.974-72.519,31.285-72.519,71.351v152.823H3187.984z"/>
				<g>
					<circle style="fill:#BDD0FB;" cx="1096.887" cy="1195.29" r="23.914"/>
					<circle style="fill:#BDD0FB;" cx="1179.738" cy="1195.29" r="23.914"/>
					<circle style="fill:#BDD0FB;" cx="1260.036" cy="1195.29" r="23.914"/>
				</g>
				<path style="fill:#BDD0FB;" d="M3064.057,2193.28l-1960.895-28.268c-29.804-0.43-53.739-24.712-53.739-54.519v-196.256
					c0-27.735,22.651-50.13,50.385-49.815l1965.5,22.348c22.567,0.257,40.727,18.624,40.727,41.192v223.941
					C3106.034,2174.991,3087.142,2193.613,3064.057,2193.28z"/>
				<path style="fill:#BDD0FB;" d="M2358.102,1839.895l-1253.488-18.033c-30.609-0.44-55.191-25.379-55.191-55.99v-388.047
					c0-21.914,17.765-39.68,39.68-39.68h1260.655c25.161,0,45.559,20.397,45.559,45.559v419.508
					C2395.317,1823.679,2378.568,1840.189,2358.102,1839.895z"/>
				<path style="opacity:0.42;fill:#FFFFFF;" d="M3093.534,1840.43h-652.733c-6.369,0-11.532-5.163-11.532-11.532v-476.389
					c0-7.934,6.431-14.365,14.365-14.365h653.733c4.786,0,8.667,3.88,8.667,8.667v481.119
					C3106.034,1834.834,3100.438,1840.43,3093.534,1840.43z"/>
			</g>
		</g>
		<g>
			
				<linearGradient id="SVGID_00000117672846888914160690000001945512777854697919_" gradientUnits="userSpaceOnUse" x1="1379.7451" y1="1951.0419" x2="1352.41" y2="3210.7461">
				<stop  offset="0" style="stop-color:#09005D"/>
				<stop  offset="1" style="stop-color:#1A0F91"/>
			</linearGradient>
			<path style="fill:url(#SVGID_00000117672846888914160690000001945512777854697919_);" d="M568.104,2929.924
				c0,15.894,13.017,28.898,28.926,28.898h1564.21c15.909,0,28.926-13.004,28.926-28.898l13.016-898.908
				c0-15.894-18.726-46.923-53.044-44.592l-1528.719-39.555c-19.962-0.516-39.262,7.167-53.398,21.256
				c-14.136,14.09-21.87,33.354-21.398,53.297L568.104,2929.924z"/>
			<path style="fill:#91B3FA;" d="M596.662,2902.2c0,15.051,12.315,27.366,27.366,27.366h1499.49
				c15.052,0,27.366-12.315,27.366-27.366l12.282-816.037c-1.447-49.107-44.5-66.757-70.598-65.715l-1465.137-39.307
				c-14.024-0.376-27.583,5.027-37.516,14.934c-9.933,9.907-15.395,23.466-15.044,37.49L596.662,2902.2z"/>
			
				<linearGradient id="SVGID_00000117663305748858127520000005617176686365309075_" gradientUnits="userSpaceOnUse" x1="1364.8002" y1="2940.728" x2="1390.0057" y2="2058.5486">
				<stop  offset="0" style="stop-color:#09005D"/>
				<stop  offset="1" style="stop-color:#1A0F91"/>
			</linearGradient>
			<path style="fill:url(#SVGID_00000117663305748858127520000005617176686365309075_);" d="M446.862,3033.443h1832.834
				c3.11,0,5.654-2.544,5.654-5.654v-67.674c0-3.109-2.544-5.654-5.654-5.654H446.862c-3.109,0-5.654,2.544-5.654,5.654v67.674
				C441.209,3030.899,443.753,3033.443,446.862,3033.443z"/>
			
				<linearGradient id="SVGID_00000182501820057653101860000009235415287169556129_" gradientUnits="userSpaceOnUse" x1="1211.0538" y1="2366.179" x2="1785.0651" y2="1371.9102">
				<stop  offset="0" style="stop-color:#4F52FF"/>
				<stop  offset="1" style="stop-color:#4042E2"/>
			</linearGradient>
			<path style="fill:url(#SVGID_00000182501820057653101860000009235415287169556129_);" d="M2161.944,2168.454l1.223-81.764
				c-1.447-49.107-44.5-67.02-70.598-65.978l-1465.138-39.439c-14.024-0.376-27.583,4.961-37.516,14.868
				c-9.932,9.907-15.394,23.96-15.043,37.984l3.358,134.328H2161.944z"/>
			<g>
				<path style="fill:#BDD0FB;" d="M2134.682,2514.525c0,0-0.04,0-0.06,0c-2.216-0.032-3.985-1.854-3.951-4.071l0.971-66.179
					c0.032-2.194,1.821-3.951,4.007-3.951h0.06c2.216,0.032,3.985,1.854,3.951,4.071l-0.971,66.179
					C2138.657,2512.768,2136.867,2514.525,2134.682,2514.525z"/>
				<path style="fill:#BDD0FB;" d="M2137.063,2352.352c-0.02,0-0.04,0-0.06,0c-2.216-0.032-3.985-1.858-3.951-4.071l3.721-253.468
					c-0.07-15.056-4.64-27.077-13.584-35.647c-16.697-15.996-43.205-15.18-44.322-15.128l-468.29-12.558
					c-2.214-0.056-3.961-1.901-3.901-4.115c0.058-2.214,1.759-4.099,4.117-3.899l468.012,12.558
					c2.912-0.172,31.136-0.661,49.933,17.349c10.574,10.132,15.976,24.091,16.056,41.48l-3.723,253.548
					C2141.039,2350.594,2139.249,2352.352,2137.063,2352.352z"/>
			</g>
			<path style="fill:#BDD0FB;" d="M1498.378,2584.177H679.459c-21.073,0-38.155-17.083-38.155-38.156v-299.549
				c0-21.073,17.083-38.156,38.155-38.156h818.919c21.073,0,38.156,17.083,38.156,38.156v299.549
				C1536.534,2567.095,1519.451,2584.177,1498.378,2584.177z"/>
			<path style="fill:#BDD0FB;" d="M2091.212,2584.177h-480.645c-15.097,0-27.335-12.238-27.335-27.335v-321.19
				c0-15.097,12.238-27.335,27.335-27.335h480.645c15.097,0,27.335,12.239,27.335,27.335v321.19
				C2118.547,2571.939,2106.309,2584.177,2091.212,2584.177z"/>
			<path style="fill:#BDD0FB;" d="M2084.948,2893.977H674.903c-18.556,0-33.6-15.043-33.6-33.6v-187.93
				c0-18.557,15.043-33.6,33.6-33.6h1410.045c18.556,0,33.6,15.043,33.6,33.6v187.93
				C2118.547,2878.934,2103.504,2893.977,2084.948,2893.977z"/>
			
				<ellipse transform="matrix(0.2298 -0.9732 0.9732 0.2298 -1513.9077 2231.5037)" style="fill:#BDD0FB;" cx="652.86" cy="2072.205" rx="18.815" ry="18.815"/>
			<circle style="fill:#BDD0FB;" cx="715.578" cy="2074.018" r="18.815"/>
			
				<ellipse transform="matrix(0.9239 -0.3827 0.3827 0.9239 -736.0994 454.381)" style="fill:#BDD0FB;" cx="774.115" cy="2077.503" rx="18.816" ry="18.815"/>
		</g>
		<g>
			
				<linearGradient id="SVGID_00000057108866744617372180000017090354826706066817_" gradientUnits="userSpaceOnUse" x1="2364.3018" y1="2560.3838" x2="2998.1221" y2="2560.3838">
				<stop  offset="0" style="stop-color:#09005D"/>
				<stop  offset="1" style="stop-color:#1A0F91"/>
			</linearGradient>
			<path style="fill:url(#SVGID_00000057108866744617372180000017090354826706066817_);" d="M2374.669,2116.581
				c-3.337,157.473-14.159,700.657-8.993,893.145c0.547,20.392,14.521,36.759,31.952,37.427
				c86.213,3.3,402.264,11.666,543.279,4.745c29.371-1.442,52.728-29.273,53.338-63.656c2.931-165.288,9.396-630.181-5.971-843.148
				c-1.842-25.516-18.961-45.836-40.742-48.386c-93.89-10.988-411.3-37.847-533.129-28.598
				C2392.432,2069.777,2375.215,2090.832,2374.669,2116.581z"/>
			<path style="fill:#91B3FA;" d="M2413.137,2164.895c-4.64,127.104-19.278,549.95-14.632,706.31
				c0.679,22.854,16.076,41.333,35.59,42.67c80.346,5.5,354.467,17.628,472.315,6.589c21.22-1.988,37.872-22.064,39.018-46.933
				c5.972-129.673,23.119-523.401,18.666-678.009c-0.711-24.664-17.042-44.807-38.052-47.013
				c-86.922-9.13-378.206-30.854-478.35-24.462C2428.893,2125.247,2413.941,2142.89,2413.137,2164.895z"/>
			<path style="opacity:0.5;fill:#FFFFFF;" d="M2587.735,2095.625L2587.735,2095.625c0,4.832,3.219,8.817,7.344,9.069
				c20.363,1.248,77.726,4.778,103.362,6.517c5.055,0.344,9.022-4.972,8.063-10.788l-0.164-0.993
				c-0.655-3.968-3.468-6.955-6.908-7.324c-17.329-1.858-69.618-7.008-104.262-5.562
				C2591.009,2086.72,2587.735,2090.754,2587.735,2095.625z"/>
			
				<linearGradient id="SVGID_00000134244442824444554640000010471468449644169640_" gradientUnits="userSpaceOnUse" x1="2633.9897" y1="3017.8186" x2="2702.3286" y2="2006.4115">
				<stop  offset="0" style="stop-color:#4F52FF"/>
				<stop  offset="1" style="stop-color:#4042E2"/>
			</linearGradient>
			<path style="fill:url(#SVGID_00000134244442824444554640000010471468449644169640_);" d="M2964.796,2243.625
				c-0.072-17.084-0.296-33.876-0.702-47.944c-0.711-24.664-17.042-44.886-38.052-47.093c-86.922-9.13-378.207-30.894-478.35-24.502
				c-18.799,1.2-33.751,18.984-34.555,40.989c-0.72,19.717-1.236,35.254-2.328,66.006L2964.796,2243.625z"/>
			<path style="fill:#BDD0FB;" d="M2683.868,2514.525h-226.55c-13.392,0-24.248-11.179-24.248-24.969v-198.928
				c0-12.603,10.077-22.734,22.312-22.433l228.649,5.627c12.577,0.31,22.616,10.898,22.616,23.853v193.394
				C2706.648,2504.023,2696.449,2514.525,2683.868,2514.525z"/>
			<path style="fill:#BDD0FB;" d="M2910.99,2514.525h-153.617c-16.963,0-30.714-13.751-30.714-30.714v-185.466
				c0-13.237,10.731-23.968,23.968-23.968h161.984c13.321,0,24.119,10.799,24.119,24.12v190.287
				C2936.73,2503,2925.206,2514.525,2910.99,2514.525z"/>
			<path style="fill:#BDD0FB;" d="M2912.002,2709.464h-459.698c-15.118,0-27.374-12.256-27.374-27.374v-113.858
				c0-12.266,9.944-22.21,22.21-22.21h463.762c14.264,0,25.828,11.564,25.828,25.828v112.886
				C2936.73,2698.393,2925.659,2709.464,2912.002,2709.464z"/>
			<path style="fill:#BDD0FB;" d="M2883.687,2893.973l-435.646-6.072c-12.914-0.18-23.277-9.598-23.277-21.154v-105.461
				c0-10.172,9.216-18.418,20.585-18.418h458.302c10.87,0,19.691,7.871,19.719,17.597l0.291,98.202
				C2923.719,2878.367,2905.703,2894.28,2883.687,2893.973z"/>
			<circle style="fill:#BDD0FB;" cx="2458.53" cy="2191.802" r="15.376"/>
			<circle style="fill:#BDD0FB;" cx="2509.783" cy="2193.285" r="15.376"/>
			<circle style="fill:#BDD0FB;" cx="2557.62" cy="2196.132" r="15.376"/>
		</g>
		<g>
			
				<linearGradient id="SVGID_00000064354602775348955860000004000108812270904237_" gradientUnits="userSpaceOnUse" x1="3590.1228" y1="-182.6979" x2="2975.1091" y2="529.6916">
				<stop  offset="0" style="stop-color:#E1473D"/>
				<stop  offset="1" style="stop-color:#E9605A"/>
			</linearGradient>
			<path style="fill:url(#SVGID_00000064354602775348955860000004000108812270904237_);" d="M3058.423,875.466
				c-2.61-40.344-26.974-76.083-63.493-93.427l-473.141-224.712c-30.3-14.391-65.466-14.391-95.767,0l-473.141,224.712
				c-36.519,17.344-60.883,53.083-63.493,93.427c-44.381,686.014,395.483,935.971,539.676,999.111
				c28.596,12.522,61.086,12.522,89.683,0C2662.939,1811.437,3102.804,1561.48,3058.423,875.466z"/>
			<path style="opacity:0.74;fill:#FFFFFF;" d="M2330.789,653.83c-3.197,0-6.26-1.802-7.721-4.882
				c-2.026-4.261-0.21-9.357,4.051-11.379l111.797-53.096c4.254-2.032,9.356-0.21,11.379,4.051c2.025,4.261,0.21,9.357-4.051,11.379
				l-111.797,53.096C2333.264,653.563,2332.016,653.83,2330.789,653.83z"/>
			<path style="opacity:0.74;fill:#FFFFFF;" d="M1925.568,1024.1c-4.585,0-8.375-3.637-8.532-8.255
				c-1.498-44.663-0.714-91.239,2.339-138.438c1.902-29.394,19.681-55.535,46.399-68.225l318.286-151.165
				c4.254-2.032,9.356-0.214,11.378,4.051c2.026,4.261,0.21,9.356-4.051,11.378l-318.286,151.168
				c-21.122,10.031-35.173,30.682-36.675,53.893c-3.02,46.646-3.797,92.657-2.312,136.763c0.157,4.715-3.537,8.666-8.252,8.826
				C1925.765,1024.1,1925.664,1024.1,1925.568,1024.1z"/>
			
				<linearGradient id="SVGID_00000098223361284375164020000000605476164232455852_" gradientUnits="userSpaceOnUse" x1="2749.4805" y1="673.0158" x2="1181.198" y2="3025.4368">
				<stop  offset="0" style="stop-color:#FF928E"/>
				<stop  offset="1" style="stop-color:#FE7062"/>
			</linearGradient>
			<path style="fill:url(#SVGID_00000098223361284375164020000000605476164232455852_);" d="M2944.008,902.241
				c-0.523-10.228-6.611-19.357-15.862-23.75l-442.306-210.068c-7.552-3.587-16.317-3.587-23.869,0l-442.305,210.068
				c-9.251,4.393-15.339,13.523-15.862,23.75c-13.08,255.904,46.029,469.423,175.81,634.914
				c98.945,126.171,214.692,193.786,282.519,225.331c7.473,3.475,16.072,3.476,23.544,0c67.826-31.544,183.574-99.16,282.52-225.331
				C2897.979,1371.665,2957.088,1158.144,2944.008,902.241z"/>
		</g>
		<g>
			
				<linearGradient id="SVGID_00000100350870017161262760000014891270130836583825_" gradientUnits="userSpaceOnUse" x1="1434.9856" y1="3167.2151" x2="1600.9541" y2="3167.2151">
				<stop  offset="0" style="stop-color:#4F52FF"/>
				<stop  offset="1" style="stop-color:#4042E2"/>
			</linearGradient>
			<path style="fill:url(#SVGID_00000100350870017161262760000014891270130836583825_);" d="M1596.267,3159.188
				c-28.432,2.458-77.778,6.45-116.68,8.162c-23.385,1.029-36.848-1.26-44.602-4.365c0.013,0.874,0.037,1.7,0.072,2.467
				c0.184,4.093,3.51,7.368,7.645,7.599c73.507,4.103,131.968,1.42,152.78,0.153c4.303-0.262,6.868-4.939,4.667-8.608
				C1599.049,3162.762,1597.715,3160.965,1596.267,3159.188z"/>
			
				<linearGradient id="SVGID_00000023259221797206190330000009835029221042038183_" gradientUnits="userSpaceOnUse" x1="1434.9761" y1="3134.6875" x2="1596.2675" y2="3134.6875">
				<stop  offset="0" style="stop-color:#09005D"/>
				<stop  offset="1" style="stop-color:#1A0F91"/>
			</linearGradient>
			<path style="fill:url(#SVGID_00000023259221797206190330000009835029221042038183_);" d="M1479.587,3167.35
				c38.902-1.712,88.248-5.704,116.68-8.162c-27.954-34.296-116.68-57.412-116.68-57.412h-25.059
				c-17.235,24.844-19.731,48.498-19.542,61.209C1442.739,3166.089,1456.202,3168.379,1479.587,3167.35z"/>
			
				<linearGradient id="SVGID_00000140719024083777468570000009279885193958838157_" gradientUnits="userSpaceOnUse" x1="1450.3083" y1="3089.2744" x2="1497.0582" y2="3089.2744">
				<stop  offset="0" style="stop-color:#FEBBBA"/>
				<stop  offset="1" style="stop-color:#FF928E"/>
			</linearGradient>
			<path style="fill:url(#SVGID_00000140719024083777468570000009279885193958838157_);" d="M1450.308,3060.865l2.345,46.405
				c0.254,5.025,4.015,9.248,9.048,9.968c5.007,0.716,11.713,0.807,18.824-1.56c4.375-1.456,7.623-5.142,8.429-9.639l8.103-45.174
				H1450.308z"/>
			<g>
				
					<linearGradient id="SVGID_00000172424383615933356810000015779745508241413814_" gradientUnits="userSpaceOnUse" x1="1138.754" y1="3208.3701" x2="1202.356" y2="3208.3701">
					<stop  offset="0" style="stop-color:#4F52FF"/>
					<stop  offset="1" style="stop-color:#4042E2"/>
				</linearGradient>
				<path style="fill:url(#SVGID_00000172424383615933356810000015779745508241413814_);" d="M1159.464,3212.72
					c-12.33-2.223-17.909-10.501-20.248-19.351c-0.016,0.08-0.031,0.159-0.046,0.238c-1.814,9.336,2.391,19.011,10.799,23.612
					c10.162,5.562,21.273,6.509,29.898,6.05c9.254-0.493,17.749-5.442,22.418-13.363l0.07-0.119
					C1193.067,3215.727,1180.027,3216.426,1159.464,3212.72z"/>
				
					<linearGradient id="SVGID_00000160148617757391603870000013936733553445589379_" gradientUnits="userSpaceOnUse" x1="1139.2167" y1="3145.0786" x2="1232.5718" y2="3145.0786">
					<stop  offset="0" style="stop-color:#09005D"/>
					<stop  offset="1" style="stop-color:#1A0F91"/>
				</linearGradient>
				<path style="fill:url(#SVGID_00000160148617757391603870000013936733553445589379_);" d="M1217.598,3075.163h-20.666
					c-31.478-0.831-51.245,84.976-57.716,118.206c2.339,8.85,7.918,17.128,20.248,19.351c20.563,3.706,33.602,3.007,42.891-2.933
					c17.006-28.923,25.437-71.283,29.49-96.005C1236.456,3085.666,1217.598,3075.163,1217.598,3075.163z"/>
			</g>
			
				<linearGradient id="SVGID_00000166668889518824827040000005120007483486773683_" gradientUnits="userSpaceOnUse" x1="1187.7412" y1="3064.8962" x2="1243.6121" y2="3064.8962">
				<stop  offset="0" style="stop-color:#FEBBBA"/>
				<stop  offset="1" style="stop-color:#FF928E"/>
			</linearGradient>
			<path style="fill:url(#SVGID_00000166668889518824827040000005120007483486773683_);" d="M1199.589,3032.091l-11.476,45.641
				c-1.407,5.596,1.271,11.384,6.445,14.039c6.42,3.294,15.458,6.756,23.764,5.754c3.906-0.471,7.151-3.223,8.442-6.901
				l16.847-48.02L1199.589,3032.091z"/>
			
				<linearGradient id="SVGID_00000105387790761333453830000007231356905655866519_" gradientUnits="userSpaceOnUse" x1="1639.6566" y1="2461.9792" x2="1162.6466" y2="3243.3672">
				<stop  offset="0" style="stop-color:#4F52FF"/>
				<stop  offset="1" style="stop-color:#4042E2"/>
			</linearGradient>
			<path style="fill:url(#SVGID_00000105387790761333453830000007231356905655866519_);" d="M1603.268,2430.966
				c0,0-102.55,641.025-100.861,644.548c0,0-28.324,12.873-59.201,1.64c0,0,9.273-342.674,31.003-474.063
				c0,0-175.018,306.283-230.597,458.897c0,0-28.988-3.457-52.983-19.249c0,0,188.446-551.295,238.721-624.725L1603.268,2430.966z"
				/>
			
				<linearGradient id="SVGID_00000112599346575453360840000004892099324606455440_" gradientUnits="userSpaceOnUse" x1="2229.9829" y1="2280.1375" x2="1731.1141" y2="2474.9011">
				<stop  offset="0" style="stop-color:#4F52FF"/>
				<stop  offset="1" style="stop-color:#4042E2"/>
			</linearGradient>
			<path style="fill:url(#SVGID_00000112599346575453360840000004892099324606455440_);" d="M1478.304,2599.754
				c-0.55,0-1.105-0.147-1.603-0.46c-1.419-0.889-1.848-2.758-0.961-4.174l38.323-61.212c0.443-0.705,1.154-1.2,1.969-1.365
				l28.203-5.676c1.649-0.325,3.238,0.737,3.569,2.372c0.328,1.64-0.734,3.238-2.372,3.569l-26.924,5.417l-37.632,60.107
				C1480.298,2599.25,1479.311,2599.754,1478.304,2599.754z"/>
			
				<linearGradient id="SVGID_00000015313945091525182980000016526665715956312712_" gradientUnits="userSpaceOnUse" x1="1956.2195" y1="1888.0356" x2="1734.9396" y2="2175.9148">
				<stop  offset="0" style="stop-color:#FEBBBA"/>
				<stop  offset="1" style="stop-color:#FF928E"/>
			</linearGradient>
			<path style="fill:url(#SVGID_00000015313945091525182980000016526665715956312712_);" d="M2073.864,1803.264
				c0,0-69.199,15.262-111.288,34.695c-8.359,3.859-15.027,10.608-18.824,18.926c-12.588,27.574-50.249,96.719-123.286,129.717
				c10.518,13.961,27.454,43,34.832,91.808c43.867-32.65,81.738-87.176,99.92-176.601c0,0,13.845,7.527,31.117-0.862
				c9.125-4.432,19.661-10.718,27.57-15.662c7.88-4.926,13.75-12.583,16.029-21.526c3.01-11.809,1.237-22.193,1.237-33.333
				l35.569-11.02C2066.74,1819.406,2077.433,1815.37,2073.864,1803.264z"/>
			
				<linearGradient id="SVGID_00000085956343116701103450000000742197309525467279_" gradientUnits="userSpaceOnUse" x1="2041.6904" y1="1686.7568" x2="1524.0559" y2="2173.6409">
				<stop  offset="0" style="stop-color:#FF928E"/>
				<stop  offset="1" style="stop-color:#FE7062"/>
			</linearGradient>
			<path style="fill:url(#SVGID_00000085956343116701103450000000742197309525467279_);" d="M1855.298,2078.409
				c-7.378-48.809-24.314-77.848-34.832-91.808c-45.372,20.499-104.392,27.052-179.549,1.009c-6.927-2.4-14.154-3.806-21.481-4.236
				c-40.01-2.346-171.854-6.627-280.952,29.418c-22.96,7.586-41.557,24.559-51.141,46.553
				c-29.512,67.727-77.292,221.964,55.35,299.832c10.191-25.301,21.953-45.638,32.011-60.58
				c-21.361-36.03-27.687-85.241,10.219-149.324c27.64,74.634,40.607,183.533,43.317,231.727
				c0.892,15.867-1.891,31.705-8.117,46.354l-0.679,1.598c-1.332,3.135,0.501,6.737,3.853,7.49
				c74.673,16.774,152.337,12.217,175.541,10.3c4.142-0.342,7.584-3.306,8.534-7.31c36.311-153,36.394-257.367,27.504-323.342
				C1668.84,2123.682,1772.707,2139.88,1855.298,2078.409z"/>
			
				<linearGradient id="SVGID_00000098909743874991682010000011621742352472828842_" gradientUnits="userSpaceOnUse" x1="1605.4862" y1="2070.1599" x2="1638.052" y2="2070.1599">
				<stop  offset="0" style="stop-color:#E1473D"/>
				<stop  offset="1" style="stop-color:#E9605A"/>
			</linearGradient>
			<path style="fill:url(#SVGID_00000098909743874991682010000011621742352472828842_);" d="M1635.021,2120.202
				c-1.497,0-2.798-1.108-2.999-2.631c-8.529-64.418-25.894-92.532-26.067-92.808c-0.892-1.413-0.472-3.284,0.941-4.179
				c1.408-0.886,3.279-0.475,4.174,0.936c0.743,1.166,18.229,29.317,26.956,95.257c0.219,1.658-0.947,3.181-2.605,3.399
				C1635.285,2120.194,1635.153,2120.202,1635.021,2120.202z"/>
			
				<linearGradient id="SVGID_00000075884379603083841980000005048184374597631113_" gradientUnits="userSpaceOnUse" x1="1462.9918" y1="2074.0959" x2="1487.2002" y2="1947.0023">
				<stop  offset="0" style="stop-color:#FEBBBA"/>
				<stop  offset="1" style="stop-color:#FF928E"/>
			</linearGradient>
			<path style="fill:url(#SVGID_00000075884379603083841980000005048184374597631113_);" d="M1450.741,1894.246
				c0,0-7.554,79.872-14.206,103.498c-1.009,3.584,0.548,7.364,3.805,9.225c11.288,6.45,38.363,16.971,75.398-1.179
				c6-2.94,9.607-9.194,9.327-15.813l-3.263-77.182L1450.741,1894.246z"/>
			<g>
				
					<linearGradient id="SVGID_00000011723410788383417430000015295651332839788219_" gradientUnits="userSpaceOnUse" x1="1528.4961" y1="1840.9191" x2="1390.3726" y2="1946.6047">
					<stop  offset="0" style="stop-color:#FEBBBA"/>
					<stop  offset="1" style="stop-color:#FF928E"/>
				</linearGradient>
				<path style="fill:url(#SVGID_00000011723410788383417430000015295651332839788219_);" d="M1523.431,1792.064
					c0,0,24.161,55.503,25.784,84.635c1.623,29.132,7.9,48.035-25.784,53.901s-62.06-10.914-77.432-39.932
					c0,0-24.086-44.714-18.683-63.026C1432.719,1809.33,1523.431,1792.064,1523.431,1792.064z"/>
				
					<linearGradient id="SVGID_00000116224380973615606040000015950424011146166417_" gradientUnits="userSpaceOnUse" x1="1431.2632" y1="1757.2394" x2="1559.9034" y2="1922.8634">
					<stop  offset="0" style="stop-color:#09005D"/>
					<stop  offset="1" style="stop-color:#1A0F91"/>
				</linearGradient>
				<path style="fill:url(#SVGID_00000116224380973615606040000015950424011146166417_);" d="M1457.509,1869.804l1.918-0.845
					c2.441-1.076,3.485-3.982,2.259-6.351c-4.75-9.178-14.01-30.208-2.047-35.114c15.416-6.323,76.482-18.776,89.658-40.444
					c12.663-20.825,1.443-47.707-15.419-55.353c-1.128-0.512-2.459-0.105-3.037,0.99l-1.405,2.659
					c-0.962,1.82-3.65,1.544-4.222-0.433c-0.549-1.898-3.074-2.267-4.122-0.591c-4.05,6.483-14.984,16.992-44.223,22.389
					c-41.555,7.669-69.029,24.486-69.713,53.201c-0.043,1.824-1.984,2.839-3.542,1.889c-3.068-1.87-7.978-2.747-14.54,2.771
					c-11.412,9.596-6.742,34.488,18.276,54.964c1.188,0.973,1.179,2.828-0.108,3.666c-4.536,2.952-11.297,9.977,6.222,19.342
					c18.12,9.686,31.652,8.892,36.862,8.032c1.296-0.214,2.132-1.469,1.849-2.752l-5.561-25.238
					c-0.315-1.428,0.773-2.781,2.235-2.781H1457.509z"/>
				
					<linearGradient id="SVGID_00000090276146107479319450000011300236199770646675_" gradientUnits="userSpaceOnUse" x1="1511.3634" y1="1818.528" x2="1373.24" y2="1924.2135">
					<stop  offset="0" style="stop-color:#FEBBBA"/>
					<stop  offset="1" style="stop-color:#FF928E"/>
				</linearGradient>
				<path style="fill:url(#SVGID_00000090276146107479319450000011300236199770646675_);" d="M1458.556,1875.13
					c0,0-9.218-35.454-25.113-25.514c-15.896,9.941,8.249,39.725,21.028,41.052L1458.556,1875.13z"/>
			</g>
			
				<linearGradient id="SVGID_00000102519431040974681710000011154109885601137597_" gradientUnits="userSpaceOnUse" x1="1963.5688" y1="1865.3724" x2="2017.8739" y2="1865.3724">
				<stop  offset="0" style="stop-color:#FF928E"/>
				<stop  offset="1" style="stop-color:#FE7062"/>
			</linearGradient>
			<path style="fill:url(#SVGID_00000102519431040974681710000011154109885601137597_);" d="M1973.672,1893.561
				c-0.671,0-1.347-0.222-1.908-0.679c-1.298-1.053-1.494-2.962-0.438-4.26c2.617-3.221,25.839-31.613,34.785-36.665
				c3.255-1.839,5.196-3.739,5.607-5.492c0.199-0.838,0.066-1.779-0.406-2.85l-27.284,5.469l-15.46,13.264
				c-1.264,1.091-3.181,0.947-4.269-0.325c-1.091-1.269-0.944-3.181,0.325-4.271l16.059-13.782c0.394-0.337,0.866-0.567,1.376-0.671
				l30.206-6.053c1.212-0.245,2.427,0.265,3.109,1.278c2.214,3.284,2.948,6.338,2.239,9.332c-0.835,3.537-3.621,6.606-8.523,9.375
				c-6.73,3.802-26.15,26.709-33.067,35.214C1975.428,1893.181,1974.553,1893.561,1973.672,1893.561z"/>
			
				<linearGradient id="SVGID_00000047739387217458458570000008938656207853897365_" gradientUnits="userSpaceOnUse" x1="1711.4808" y1="2058.2942" x2="1737.1064" y2="2027.5435">
				<stop  offset="0" style="stop-color:#FEBBBA"/>
				<stop  offset="1" style="stop-color:#FF928E"/>
			</linearGradient>
			<path style="fill:url(#SVGID_00000047739387217458458570000008938656207853897365_);" d="M1457.382,2397.562l106.799,1.322
				l-37.378-35.184c-9.291-8.745-23.471-10.162-34.195-3.206c-6.279,4.073-13.089,9.602-18.989,16.922
				c0,0-66.621-24.347-98.916-78.82c-10.058,14.942-21.82,35.279-32.011,60.58
				C1371.644,2376.172,1409.173,2389.537,1457.382,2397.562z"/>
			<g>
				
					<linearGradient id="SVGID_00000049191051159028923190000010722338333701858995_" gradientUnits="userSpaceOnUse" x1="-3917.7356" y1="2203.582" x2="-4136.1401" y2="2263.4412" gradientTransform="matrix(-0.9988 -0.0494 -0.0494 0.9988 -2381.2668 -55.0328)">
					<stop  offset="0" style="stop-color:#09005D"/>
					<stop  offset="1" style="stop-color:#1A0F91"/>
				</linearGradient>
				<path style="fill:url(#SVGID_00000049191051159028923190000010722338333701858995_);" d="M1468.889,2411.336
					c0.207,0.01,0.415,0.016,0.623,0.014l271.096-0.292c6.702-0.006,12.128-5.387,12.122-12.018
					c-0.007-6.633-5.465-12.113-12.148-11.993l-271.096,0.293c-6.702,0.005-12.128,5.387-12.121,12.018
					C1457.372,2405.781,1462.478,2411.022,1468.889,2411.336z"/>
				
					<linearGradient id="SVGID_00000155127196880230099720000016191050556409222832_" gradientUnits="userSpaceOnUse" x1="-4141.8237" y1="2200.0735" x2="-4295.8804" y2="2362.9021" gradientTransform="matrix(-1 0 0 1 -2422.7358 0)">
					<stop  offset="0" style="stop-color:#09005D"/>
					<stop  offset="1" style="stop-color:#1A0F91"/>
				</linearGradient>
				<path style="fill:url(#SVGID_00000155127196880230099720000016191050556409222832_);" d="M1984.312,2167.798h-225.771
					c-16.655,0-31.815,9.51-38.919,24.415l-104.373,218.98h280.572c10.733,0,20.376-6.489,24.321-16.365l80.937-202.634
					C2005.757,2180.486,1997.036,2167.798,1984.312,2167.798z"/>
				
					<linearGradient id="SVGID_00000115496342728802011180000006640532359451246764_" gradientUnits="userSpaceOnUse" x1="-4235.2407" y1="2240.771" x2="-4304.8789" y2="2345.6384" gradientTransform="matrix(-1 0 0 1 -2422.7358 0)">
					<stop  offset="0" style="stop-color:#4F52FF"/>
					<stop  offset="1" style="stop-color:#4042E2"/>
				</linearGradient>
				<path style="fill:url(#SVGID_00000115496342728802011180000006640532359451246764_);" d="M1825.255,2280.076
					c-4.892,15.04-1.278,29.646,8.073,32.624c9.351,2.978,20.898-6.8,25.79-21.84c4.892-15.04,1.278-29.646-8.073-32.624
					C1841.694,2255.258,1830.147,2265.036,1825.255,2280.076z"/>
			</g>
		</g>
	</g>
</g>
</svg>
