<?xml version="1.0" encoding="UTF-8"?>
<svg id="Layer_1" data-name="Layer 1" xmlns="http://www.w3.org/2000/svg"
     viewBox="0 0 583.96 602.82">
    <defs>
        <style>
            .cls-1 {
            fill: #11111b;
            }

            .cls-2 {
            fill: #6b9ad2;
            }

            .cls-3 {
            fill: #465daa;
            }

            .cls-4 {
            fill: #fff;
            }

            .cls-5 {
            stroke: #11111b;
            }

            .cls-5, .cls-6 {
            stroke-linejoin: round;
            }

            .cls-5, .cls-6, .cls-7, .cls-8 {
            fill: none;
            stroke-width: 1.5px;
            }

            .cls-6 {
            stroke: #2e317a;
            }

            .cls-9 {
            fill: #4754a4;
            }

            .cls-10 {
            fill: #486eb5;
            }

            .cls-11 {
            fill: #f17d59;
            }

            .cls-7 {
            stroke: #8fbce5;
            }

            .cls-7, .cls-8 {
            stroke-miterlimit: 10;
            }

            .cls-12 {
            clip-path: url(#clippath);
            }

            .cls-8 {
            stroke: #6b9ad2;
            }
        </style>
        <clipPath id="clippath">
            <path class="cls-9"
                  d="M391.39,219.94c-14.2-16.09-40.58-49.04-60.07-59.24-19.54-10.22-39.61-2.68-56.57,8.63l-23.88,2.37-43.06-8.38c-7.23-3.25-14.69-6.13-21.32-8.11-12.57-3.75-26.39-3.18-38.81.9-13.35,4.38-20.91,12.15-29.22,23.26-13.46,18-25.59,43.49-34.5,68.16l60.41,22.77-1.08,73.17,157.89,3.48,13.94-93.28,16.28,17.12,59.99-50.85Z"/>
        </clipPath>
    </defs>
    <g>
        <path class="cls-2"
              d="M217.58,259.15h-42.43c-30.66,0-55.61-24.95-55.61-55.61v-76.57c0-11.36-9.25-20.61-20.61-20.61h-22.77v-35h22.77c30.66,0,55.61,24.95,55.61,55.61v76.57c0,11.36,9.25,20.61,20.61,20.61h42.43v35Z"/>
        <path class="cls-10"
              d="M191.64,406.56h-114.33c-30.66,0-55.61-24.95-55.61-55.61v-149.75h35v149.75c0,11.36,9.25,20.61,20.61,20.61h114.33v35Z"/>
        <path class="cls-2"
              d="M360.02,87.28c-11.36,0-20.61-9.25-20.61-20.61v-11.06c0-30.66-24.95-55.61-55.61-55.61h-42.67c-30.66,0-55.61,24.95-55.61,55.61v200.54h35V55.61c0-11.36,9.25-20.61,20.61-20.61h42.67c11.36,0,20.61,9.25,20.61,20.61v11.06c0,30.66,24.95,55.61,55.61,55.61h32.49s0-35,0-35h-32.49Z"/>
        <path class="cls-10"
              d="M453.83,366.51c-30.66,0-55.61-24.95-55.61-55.61v-91.49c0-11.36-9.25-20.61-20.61-20.61h-47.61c-11.36,0-20.61,9.25-20.61,20.61v70.36h-35v-70.36c0-30.66,24.95-55.61,55.61-55.61h47.61c30.66,0,55.61,24.95,55.61,55.61v91.49c0,11.36,9.25,20.61,20.61,20.61s20.61-9.25,20.61-20.61v-32.01h35v32.01c0,30.66-24.95,55.61-55.61,55.61Z"/>
        <path class="cls-2"
              d="M350.36,487.37h-35v-110.1c0-25.1,20.42-45.52,45.52-45.52h45.61c25.1,0,45.52,20.42,45.52,45.52,0,5.8,4.72,10.52,10.52,10.52h86.78v35h-86.78c-25.1,0-45.52-20.42-45.52-45.52,0-5.8-4.72-10.52-10.52-10.52h-45.61c-5.8,0-10.52,4.72-10.52,10.52v110.1Z"/>
        <polygon class="cls-2" points="411.69 104.78 369.61 65.57 369.61 143.99 411.69 104.78"/>
        <path class="cls-2"
              d="M233.26,449.91v-35h-117.09c-30.66,0-55.61,24.95-55.61,55.61v98.41h35v-98.41c0-11.36,9.25-20.61,20.61-20.61h117.09Z"/>
        <polygon class="cls-2" points="78.34 602.82 39.13 560.74 117.54 560.74 78.34 602.82"/>
        <polygon class="cls-2" points="583.96 405.25 541.89 366.04 541.89 444.45 583.96 405.25"/>
        <polygon class="cls-10" points="491.94 238.27 452.73 280.34 531.15 280.34 491.94 238.27"/>
        <polygon class="cls-10" points="39.21 165.26 0 207.34 78.41 207.34 39.21 165.26"/>
        <polygon class="cls-2" points="44.11 88.87 86.18 128.07 86.18 49.66 44.11 88.87"/>
    </g>
    <g>
        <g>
            <polygon class="cls-1"
                     points="143.29 343.46 112.23 504.97 235.31 506.54 241.58 406 249.73 389.06 262.22 325.49 143.29 343.46"/>
            <path class="cls-1"
                  d="M303.64,368.07l-2.46-21.13,2.02-33.03-90.95,7.36c-10.85,33.45,3.65,84.96,3.65,84.96l3.36,84.62h111.06l-26.68-122.78Z"/>
            <polyline class="cls-6" points="235.99 495.63 241.58 406 249.73 389.06"/>
            <line class="cls-6" x1="303.64" y1="368.07" x2="139.66" y2="362.38"/>
            <path class="cls-6" d="M145.54,395.75c14.91-3.24,27.53-16.31,30.99-32.09"/>
            <path class="cls-6" d="M287.76,367.18c.76,14.18,9.79,26.67,21.02,33.48"/>
        </g>
        <g>
            <g>
                <path class="cls-9"
                      d="M391.39,219.94c-14.2-16.09-40.58-49.04-60.07-59.24-19.54-10.22-39.61-2.68-56.57,8.63l-23.88,2.37-43.06-8.38c-7.23-3.25-14.69-6.13-21.32-8.11-12.57-3.75-26.39-3.18-38.81.9-13.35,4.38-20.91,12.15-29.22,23.26-13.46,18-25.59,43.49-34.5,68.16l60.41,22.77-1.08,73.17,157.89,3.48,13.94-93.28,16.28,17.12,59.99-50.85Z"/>
                <g class="cls-12">
                    <path class="cls-3"
                          d="M93.67,183.02c13.52,11.5,18.03,27.8,14.18,44.9-2.07,9.18-6.29,17.29-10.97,25.38-5.22,9.02-10.05,17.87-13.7,27.66-1.46,3.91.98,8.8,4.39,10.8,3.95,2.31,8.22,1.18,11.59-1.5,19.21-15.28,31.42-38.91,32.73-63.53,1.16-21.73-11.95-43.09-30.89-53.21-5.78-3.09-12.78,4.86-7.33,9.5h0Z"/>
                    <path class="cls-3"
                          d="M162.41,119.07c-31.56,31.73-25.26,82.29,3.36,113.68,16.82,18.44,41.18,27.13,64.64,33.6,5.44,1.5,10.89,2.93,16.3,4.53,2.94.87,5.86,1.77,8.76,2.76,1.21.41,2.42.84,3.63,1.29.5.19,5.73,2.33,3.49,1.35,10.43,4.58,18.85,9.84,25.57,16.56.9.9,1.79,1.83,2.64,2.78.69.76,1.35,1.54,2.01,2.33-.79-1.1-.65-.9.43.57,1.84,2.63,3.54,5.35,5.03,8.2,1.8,3.45,1.92,3.81,2.98,6.95s1.9,6.32,2.54,9.56c-.01-.07.75,5.22.44,2.45.18,1.64.27,3.29.36,4.93.18,3.29.28,6.58.11,9.88s-.64,5.51-.78,9.75c-.12,3.67.48,8.18.71,10.48.88,8.85,10.16,12.86,17.04,7.06,10.88-9.18,13.93-23.37,13.57-37.16-.35-13.66-4.18-27.29-10.51-39.36-11.7-22.3-33.1-36.52-56.05-45.33-11.37-4.37-23.29-7.3-35.05-10.43-11.67-3.11-22.23-6.24-31.92-11.57-2.61-1.44-5.16-2.99-7.61-4.7-.7-.49-1.41-.99-2.09-1.52,2.53,1.94-.79-.75-1.05-.98-1.63-1.42-3.19-2.92-4.69-4.48-.9-.94-1.78-1.9-2.63-2.88-.14-.16-2.81-3.44-1.03-1.14-2.94-3.8-5.48-7.95-7.68-12.22-.4-.78-.79-1.57-1.17-2.36-.1-.22-1.82-4.19-.7-1.45-1-2.45-1.97-4.92-2.85-7.41-1.75-4.95-3.06-10.05-3.86-15.24.39,2.51-.17-1.74-.18-1.81-.12-1.3-.2-2.61-.26-3.92-.1-2.59-.23-5.19-.27-7.78-.16-10.14,2.11-19.85,7.15-28.95,3.59-6.49-4.99-13.43-10.38-8.01h0Z"/>
                    <path class="cls-3"
                          d="M162.85,266.41c5.24,12.66,14.48,21.75,26.03,28.89,10.71,6.63,22.93,9.54,33.79,15.39,5.43,2.92,8.47,5.37,12.8,9.86,3.08,3.18,5.06,7.39,6.15,12.39.27,1.57.33,1.83.19.79.1.97.16,1.95.19,2.93.04,1.43-.01,2.85-.1,4.28-.15,1.65-.18,1.91-.08.79-.12.71-.27,1.41-.45,2.11-.39,1.63-.83,3.27-1.46,4.83.68-1.66-1.1,2.01-1.08,1.98-.94,1.65-2.06,3.19-3.14,4.75-1.26,1.81-3.32,4.92-5.23,7.95-2.32,3.68-1.78,8.87.86,12.18,2.98,3.74,6.95,4.61,11.53,3.93,18.25-2.69,25.86-25.27,25.08-41.39s-8.78-30.88-22.2-40.34c-22.38-15.77-57.2-10.14-72.84-35.55-3.1-5.04-12.49-1.74-10.02,4.23h0Z"/>
                    <path class="cls-3"
                          d="M295.89,134.58c-2.33,13.3-4.07,28.19.11,41.31,4.37,13.71,12.84,26.2,24.98,34.1,25.25,16.44,58.48,11.45,79.55-9.24,12.16-11.94,20.21-27.09,19.05-44.39-.72-10.65-15.85-16.66-21.49-5.82-3.07,5.91-6.81,11.47-10.05,17.3-.85,1.52-1.75,3.01-2.72,4.47-.28.42-2.74,3.76-1.15,1.74-2.1,2.68-4.5,5.16-7.04,7.42-.42.37-3.63,2.85-1.43,1.26-1.15.83-2.33,1.63-3.55,2.38-1.4.86-2.85,1.64-4.32,2.39-.62.32-1.25.63-1.88.93,1.35-.52,1.16-.45-.57.21-7.27,2.44-9.55,2.72-16.95,2.19-3.99-.28,1.73.68-2.15-.36-1.7-.45-3.41-.81-5.08-1.35-2.31-.74-1.26-.27-2.97-1.11-1.37-.67-2.7-1.38-4.01-2.16-4.73-2.84-8.74-6-12.17-10.3-7.87-9.9-14.15-24.38-12.34-37.13.55-3.86-.95-7.66-5.01-8.82-3.45-.99-8.16,1.2-8.82,5.01h0Z"/>
                </g>
            </g>
            <line class="cls-5" x1="316.17" y1="250.52" x2="375.16" y2="201.2"/>
            <line class="cls-5" x1="250.87" y1="171.7" x2="247.18" y2="345.75"/>
            <line class="cls-5" x1="93.53" y1="223.67" x2="168.99" y2="252.12"/>
            <line class="cls-5" x1="158.16" y1="275.48" x2="186.25" y2="214.73"/>
            <path class="cls-11"
                  d="M213.89,225.19l-84.28,39.59-44.24-16.73s-7.88,21.67-14.06,48.41c-5.91,25.54,2.54,44.72,21.14,49.37,18.6,4.65,41.3-.66,72.66-23.93,28.52-21.16,76.14-61.4,76.14-61.4l-27.35-35.32Z"/>
            <g>
                <polygon class="cls-11"
                         points="268.79 148.86 269.8 159.68 250.88 172.3 215.25 155.96 222.14 128.98 268.79 148.86"/>
                <polygon class="cls-4" points="250.87 171.7 228.81 198.72 206 162.96 216.9 148.61 250.87 171.7"/>
                <polygon class="cls-4" points="269.74 158.86 274.79 169.32 271.58 194.24 250.87 171.7 269.74 158.86"/>
                <path class="cls-11"
                      d="M280.08,119.68c1.7,4.75,2.48,10.18,1.56,15.02-1.26,6.6-6.5,12.54-12.84,14.5-7.77,2.39-17.34,2.54-24.56,1.28-12.5-2.17-20.52-9.22-26.19-21.12-5.68-11.9-7.96-27.82-2.97-40.14,2.84-7.01,8.63-12.19,15.78-13.88,11.63-2.75,23.82-.12,31.33,10.42,3.74,5.25,6.81,10.88,9.64,16.67,2.59,5.3,6.08,11.17,8.25,17.26Z"/>
                <path class="cls-5"
                      d="M252.4,98.74c-.32,1.8-.68,3.29.21,5.02.76,1.47,2.15,2.48,3.49,3.38,2,1.34,5.79,2.84,6.11,5.62.09.79-.12,1.58-.4,2.33-.44,1.17-1.06,2.26-1.84,3.23"/>
                <path class="cls-1"
                      d="M260.06,86.36c2.53-.62,4.25-.38,6.28,1.1,1,.73,1.97,2.26,1.42,3.38-.47.94-1.49,1.3-2.45,1.54-1.23.3-2.51.44-3.64,1.04-1.74.94-3.3,2.51-5.36,1.32-.93-.54-2.08-1.69-2.15-2.83-.08-1.43.76-2.74,1.85-3.6.99-.78,2.76-1.63,4.05-1.95Z"/>
                <path class="cls-1"
                      d="M242.08,108.08c1.14.33,1.85,1.49,2.48,2.54.58.96,1.19,1.95,1.41,3.05.22,1.11-.06,2.39-.96,2.99-.86.57-2.04.36-2.91-.25-.86-.61-1.46-1.54-2-2.47-.4-.69-.79-1.4-.99-2.17-.47-1.85.89-4.3,2.97-3.69Z"/>
                <path class="cls-1"
                      d="M265.42,97.37c1.14.33,1.85,1.49,2.48,2.54.58.97,1.19,1.95,1.41,3.05.22,1.11-.06,2.39-.96,2.99-.86.57-2.04.36-2.91-.25-.86-.61-1.46-1.54-2-2.47-.4-.69-.79-1.4-.99-2.17-.47-1.85.89-4.3,2.97-3.69Z"/>
                <path class="cls-1"
                      d="M230.35,98.04c1.32-.9,2.87-1.48,4.52-1.58,1.34-.08,3.27-.1,4.38.82,1.21.99,1.76,3.03,1.16,4.51-.55,1.35-1.81,1.78-3.16,1.94-1.47.17-2.75.62-3.92,1.54-1.49,1.18-2.8,3.7-4.94,3.65-3.14-.08-2.63-3.85-1.89-5.9.73-2.02,2.09-3.78,3.84-4.98Z"/>
                <path class="cls-5" d="M269.41,149.38c-11.64,3.37-21.07,2.67-32.78-.95"/>
                <line class="cls-8" x1="269.74" y1="158.86" x2="274.79" y2="169.32"/>
                <path class="cls-1"
                      d="M265.31,63.83c-4.27-4.24-11.45-4.98-16.7-2.04-2.9-6.93-8.8-7.95-12.96-6.77-4.16,1.18-7.99,3.01-11.41,8.9-2.99-1.27-9.29-.37-12.08,1.29-13.07,7.76-12.46,22.68-14.65,27.97-1.5,3.61-3.01,7.27-3.6,11.14-.99,6.47.77,13.32,4.75,18.52,3.99,5.2,10.15,8.67,16.65,9.39l3-10.68c1.77-2.91,2.52-6.38,2.48-9.79-.03-3.41-.81-6.78-1.89-10.02,2.2-.49,4.37-1.31,5.69-3.14,1.55-2.15,1.01-5.11.4-7.69,3.26.42,6.63.83,9.8-.07,3.16-.91,6.08-3.5,6.31-6.78,2.63,1.4,6.2,2.13,9.09,1.41,1.12-.28,2.23-.74,3.05-1.55.82-.81,1.31-2.02,1.03-3.15,3.08,1.49,6.21,3.3,9.33,1.91,1.16-.51,2.12-1.39,2.91-2.39,3.73-4.72,3.05-12.21-1.22-16.45Z"/>
                <path class="cls-4" d="M249.99,126.75c7.37,8.28,26.07,4.95,19.78-9.68l-19.78,9.68Z"/>
                <g>
                    <path class="cls-7"
                          d="M250.79,107.32c2.84,6.71.02,14.32-6.3,16.99s-13.75-.59-16.59-7.3-.02-14.32,6.3-16.99,13.75.59,16.59,7.3Z"/>
                    <path class="cls-7"
                          d="M276.64,96.38c2.84,6.71,1.24,13.8-3.59,15.84s-11.03-1.74-13.87-8.45c-2.84-6.71-1.24-13.8,3.59-15.84,4.82-2.04,11.03,1.74,13.87,8.45Z"/>
                    <path class="cls-7" d="M248.93,104.17c2.85-2.37,6.06-3.85,9.13-3.69"/>
                    <line class="cls-7" x1="226.96" y1="113.63" x2="218.41" y2="124.28"/>
                </g>
                <g>
                    <path class="cls-11"
                          d="M223.37,120.42c-2.92-2.6-6.68-3.77-10.24-2.24-4.01,1.73-5.65,4.99-5.23,9.21.4,4.09,2.14,7.75,5.13,10.46,2.92,2.65,8.42,5.21,13.56,3.09,3.66-1.52,4.36-4.34,4.14-8.43"/>
                    <path class="cls-5" d="M224.79,130.16c-2.66-4.43-7.68-7.35-11.77-3.99"/>
                    <path class="cls-5" d="M219.65,135.02c-2.32-2.81-3.26-6.71-2.47-10.29"/>
                    <path class="cls-5" d="M217.87,117.62c2.07.38,4.09,1.33,5.84,2.46"/>
                    <path class="cls-5" d="M216.81,140.6c8.31,4.03,16.16-.85,14.69-8.08"/>
                </g>
            </g>
            <g>
                <path class="cls-11"
                      d="M270.05,222.37c2.61-1.69,2.34-6.82.98-9.14-.53-.91-2.38-3.55-6.31-4.7,2.01-.92,6.45-3.6,8.96-4.26,3.77-.99,11.75-1.57,14.19-2.32,2.29-.71,4.35-2.48,5.19-4.79.83-2.28.34-5.54-2.07-6.67-2.18-1.03-13.5-.42-17.97.29-8.21,1.31-12.8,2.43-21.26,5.8-15.46,6.16-30.44,17.35-43.57,30.02-2.02,1.95-9.11,8.38-11.03,10.44-3.02,3.23-20.33,16.08-20.33,16.08l27.47,33.81,26.09-18.63c4.9.42,8.16.19,12.68-2.08,5.27-2.66,7.14-7.21,9.8-12.18,1.18-2.2,2.24-4.56,3.68-6.63,2.42,1.08,5.32.14,6.75-.3,2.78-.86,6.02-2.74,7.28-5.56,1.04-2.31.42-6.29-1.32-8.13-.16-.17-.34-.31-.52-.46.51-.27.95-.7,1.26-1.19.53-.82.77-1.8.96-2.76.39-1.97.6-4.14-.4-5.88-.15-.27-.33-.51-.53-.74Z"/>
                <g>
                    <path class="cls-5"
                          d="M245.69,208.94c3.65-.71,7.37-1.07,11.08-1.04,1.85.01,3.69.13,5.53.35,1.69.2,3.65.34,5.2,1.08"/>
                    <path class="cls-5" d="M247.63,220.27c5.15-.91,10.42-1.11,15.62-.6,2.8.27,5.94,1,7.33,3.44"/>
                    <path class="cls-5" d="M250.42,232.47c4.63-.93,10.73-1.98,15.45-.89,1.27.29,2.5.87,3.4,1.82"/>
                    <path class="cls-5" d="M266.38,242.24c-4.31.19-8.15,2.43-10.43,6.08"/>
                    <path class="cls-5" d="M225.9,266.55c2.45,1.09,5.03,1.26,7.64,1.91"/>
                </g>
            </g>
            <path class="cls-5"
                  d="M136.58,261.17c-10.87,4.86-22.09,9.33-31.89,16.21-9.07,6.37-15.75,14.91-20.02,25.13"/>
            <polyline class="cls-5" points="315.05 258.44 318.2 236.1 324.26 221.78"/>
            <path class="cls-11"
                  d="M437.15,143.42l-51.68,81.54-51.77,43.88s14.84,14.17,23.39,22.94c8.55,8.77,31.53,24.16,53.8,16.24,18.06-6.42,28.01-21.64,38.74-59.18,9.33-32.67,24.69-90.34,24.69-90.34l-37.17-15.08Z"/>
            <g>
                <path class="cls-11"
                      d="M439.09,159.51c-5.78-8.03-7.02-13.93-4.28-26.48,2.24-10.29,7.94-19.35,10.1-29.89.52-2.54.73-5.44,2.71-7.12,5.37-4.56,8.57,3.37,8.93,7.18.24,2.57.18,9.29.05,11.96,7.76-7.5,29.03-31.15,32.39-33.8,1.57-1.24,3.52-2.47,5.44-1.92,1.76.5,2.45,1.88,2.53,3.71.07,1.83-.64,3.67-1.49,5.29-3.26,6.2-7.2,11.44-11.91,17.22,2.32-.35,4.65,1.22,5.77,3.28,1.12,2.06,1.72,4.58.71,7.07,2.18-.77,4.63.78,5.56,2.89.93,2.12,1.01,5.14,0,7.22,1.95-.11,4.1,1.28,5.14,3.58,2.04,4.53-3.9,12.99-11.87,12.84.1,5.62-3.56,17.18-7.53,21.19-4.96,5.02-13.14,4.29-13.14,4.29"/>
                <path class="cls-5" d="M483.41,134.61c-.05,1.61-.08,3.3.54,4.82.73,1.81,2.76,3.31,4.89,3.11"/>
                <path class="cls-5" d="M456.68,113.05c-1.06,7.9,1.64,12.86,2.92,15.64,2.56,5.58,3.76,12.81.17,18.28"/>
                <path class="cls-5"
                      d="M490.37,115.16c-1.54,4.11-5.12,7.89-8.9,10.13-1.86,1.1-4.11,1.82-6.3,1.58-1.56-.17-3.02-1.03-3.87-2.36-2.18-3.38.33-6.54,2.93-8.65,2.19-1.77,4.16-3.93,5.95-6.09"/>
                <path class="cls-5"
                      d="M476.61,126.91c-.05,1.73-.08,3.58.81,5.06,1.03,1.7,3.11,2.55,5.09,2.53,5.8-.05,10.81-4,13.32-9.02"/>
                <path class="cls-5" d="M433.47,146.99c.76,3.74,2.15,7.35,4.12,10.62"/>
                <path class="cls-5" d="M466.41,168.49c2.86-.03,5.72-.65,8.34-1.81"/>
            </g>
            <path class="cls-5" d="M390.63,217.26c-4.81,8.18-11.48,18.43-14.4,27.46-2.92,9.03-3.7,21.17-.51,30.11"/>
        </g>
    </g>
    <line class="cls-5" x1="494.68" y1="54.69" x2="499.85" y2="8.96"/>
    <line class="cls-5" x1="510.39" y1="61.66" x2="538.92" y2="24.05"/>
    <line class="cls-5" x1="522.62" y1="76.62" x2="563.15" y2="68.35"/>
</svg>