<?xml version="1.0" encoding="UTF-8"?>
<svg xmlns="http://www.w3.org/2000/svg" viewBox="0 0 450.65 427.94">
    <defs>
        <style>
            .cls-1 {
            fill: #ffa8a7;
            }

            .cls-2 {
            fill: #fafafa;
            }

            .cls-3, .cls-4 {
            fill: #27debf;
            }

            .cls-5 {
            fill: #263238;
            }

            .cls-6 {
            fill: #f0f0f0;
            }

            .cls-7 {
            opacity: .3;
            }

            .cls-8 {
            fill: #37474f;
            }

            .cls-9, .cls-10, .cls-11, .cls-12 {
            fill: #fff;
            }

            .cls-13 {
            fill: #455a64;
            }

            .cls-14 {
            opacity: .15;
            }

            .cls-10 {
            opacity: .8;
            }

            .cls-4 {
            opacity: .2;
            }

            .cls-15 {
            fill: #f28f8f;
            }

            .cls-16 {
            opacity: .1;
            }

            .cls-11 {
            opacity: .7;
            }

            .cls-12 {
            opacity: .65;
            }
        </style>
    </defs>
    <g id="Plants">
        <g id="Plants-2" data-name="Plants">
            <g>
                <g>
                    <path class="cls-3"
                          d="M62.64,311.49s-.3-21.35-9.17-38.77-22.28-29.09-35.63-31.49c-13.36-2.4-25.46,8.9-11.9,18.84,13.56,9.94,38.28,21.16,46.89,54.15l9.81-2.72Z"/>
                    <path class="cls-14"
                          d="M62.64,311.49s-.3-21.35-9.17-38.77-22.28-29.09-35.63-31.49c-13.36-2.4-25.46,8.9-11.9,18.84,13.56,9.94,38.28,21.16,46.89,54.15l9.81-2.72Z"/>
                </g>
                <path class="cls-9"
                      d="M59.24,305.62s.1-.01.15-.03c.38-.11.6-.51.49-.9-10.72-36.4-36.31-53.7-48.35-57.76-.38-.13-.79.08-.92.45-.13.38.07.79.45.92,11.79,3.98,36.87,20.97,47.42,56.8.1.33.42.54.75.52Z"/>
            </g>
            <g id="Plant">
                <path class="cls-3"
                      d="M64,331.63c-4.96,2.85-7.8,4.7-16.9,5.46-5.43.46-12.77-.31-19.1-2.59-1.69-.61-4.3-1.94-2.83-3.56.76-.84,9.68-2.25,12.87-6.01-3.73,1-8.65,2.13-12.51,2.22-3.86.08-7.89-.84-10.85-3.32-2.94-2.46-4.54-6.14-6.03-9.67-.51-1.21-.99-2.69-.21-3.74.5-.67,1.36-.93,2.16-1.15,3.38-.94,6.76-1.88,10.14-2.82,2.2-.47.65-1.93-.19-2.05-1.45-.21-2.83-.21-3.67-.16-3.87.21-8.14.94-11.3-1.31-1.89-1.34-3.01-3.57-3.48-5.84-.17-.8-.83-11.24-.37-11.37,2.51-.69,5.15-1.05,7.73-1.35,2.45-.28,4.84-.39,7.28-.72,2.76-.37,5.54-.55,8.32-.55.94,0,1.94.04,2.74.55,1.1.69,1.53,2.08,1.67,3.36.14,1.29.07,2.63.52,3.84,1.19-.1,1.58-1.65,1.55-2.84-.03-1.19,0-2.68,1.07-3.19.55-.26,1.19-.16,1.78-.03,3.78.77,7.46,2,10.95,3.64,1.6.75,3.19,1.62,4.34,2.96,1.69,1.98,2.2,4.72,2.21,7.32s-.39,5.21-.22,7.8c2.04-1.82,4.87-7.35,5.09-10.07,4.38,2.82,6.98,8.62,7.79,16.56.54,5.24.41,12.13-.32,17.44-.02.18-.07,1.11-.23,1.2Z"/>
                <path class="cls-7"
                      d="M64,331.63c-4.96,2.85-7.8,4.7-16.9,5.46-5.43.46-12.77-.31-19.1-2.59-1.69-.61-4.3-1.94-2.83-3.56.76-.84,9.68-2.25,12.87-6.01-3.73,1-8.65,2.13-12.51,2.22-3.86.08-7.89-.84-10.85-3.32-2.94-2.46-4.54-6.14-6.03-9.67-.51-1.21-.99-2.69-.21-3.74.5-.67,1.36-.93,2.16-1.15,3.38-.94,6.76-1.88,10.14-2.82,2.2-.47.65-1.93-.19-2.05-1.45-.21-2.83-.21-3.67-.16-3.87.21-8.14.94-11.3-1.31-1.89-1.34-3.01-3.57-3.48-5.84-.17-.8-.83-11.24-.37-11.37,2.51-.69,5.15-1.05,7.73-1.35,2.45-.28,4.84-.39,7.28-.72,2.76-.37,5.54-.55,8.32-.55.94,0,1.94.04,2.74.55,1.1.69,1.53,2.08,1.67,3.36.14,1.29.07,2.63.52,3.84,1.19-.1,1.58-1.65,1.55-2.84-.03-1.19,0-2.68,1.07-3.19.55-.26,1.19-.16,1.78-.03,3.78.77,7.46,2,10.95,3.64,1.6.75,3.19,1.62,4.34,2.96,1.69,1.98,2.2,4.72,2.21,7.32s-.39,5.21-.22,7.8c2.04-1.82,4.87-7.35,5.09-10.07,4.38,2.82,6.98,8.62,7.79,16.56.54,5.24.41,12.13-.32,17.44-.02.18-.07,1.11-.23,1.2Z"/>
                <g>
                    <path class="cls-9"
                          d="M63.18,330.65c-.22,0-.43-.12-.53-.32-14.19-27.24-45.57-38.72-53.2-40.3-.32-.07-.53-.39-.47-.71.07-.32.39-.53.71-.47,7.75,1.61,39.61,13.26,54.02,40.92.15.29.04.66-.25.81-.09.05-.18.07-.28.07Z"/>
                    <path class="cls-9"
                          d="M21.95,314.95c-.31,0-.57-.24-.6-.55-.03-.33.22-.62.55-.65,15.66-1.23,20.72-7.36,20.77-7.42.21-.26.58-.3.84-.1.26.21.3.58.1.84-.21.27-5.37,6.6-21.62,7.88-.02,0-.03,0-.05,0Z"/>
                </g>
            </g>
        </g>
        <g id="Plants-3" data-name="Plants">
            <g>
                <g>
                    <path class="cls-3"
                          d="M442.17,238.98c-6.94,7.59-19.67,20.08-27.07,32.14-.02.03-.04.06-.05.09-2.89,4.73-4.96,9.39-5.53,13.66l-.52,7.71-3.17-1.83-.53-.31-1.31-.75h0c-1.88-1.09-3.06-3.08-3.11-5.24-.51-18.8,4.51-34.78,9.37-44.46,6.65-13.21,19.11-26.68,29.94-25.36,10.07,1.23,11.66,13.77,1.98,24.35Z"/>
                    <path class="cls-14"
                          d="M442.17,238.98c-6.94,7.59-19.67,20.08-27.07,32.14-.02.03-.04.06-.05.09-2.89,4.73-4.96,9.39-5.53,13.66l-.52,7.71-3.17-1.83-.53-.31-1.31-.75h0c-1.88-1.09-3.06-3.08-3.11-5.24-.51-18.8,4.51-34.78,9.37-44.46,6.65-13.21,19.11-26.68,29.94-25.36,10.07,1.23,11.66,13.77,1.98,24.35Z"/>
                </g>
                <path class="cls-9"
                      d="M437.06,221.92c-13.26,8.38-32.19,37.59-31.76,68.52l-1.31-.75c-.11-31.12,18.98-60.4,32.37-68.87.31-.2.71-.1.9.21.19.3.1.7-.2.89Z"/>
            </g>
            <g>
                <g>
                    <path class="cls-3"
                          d="M450.03,263.76c-2.31,6.27-15.49,11.71-25.22,20.76-2.56,2.38-4.79,4.84-6.67,7.25-1.88,2.41-5.25,3.05-7.9,1.52h0l-1.16-.67-.08-.04-3.17-1.83c1.88-7.08,5.26-13.79,9.22-19.54.01-.03.03-.06.05-.09,6.44-9.34,14.39-16.09,19.94-17.62,10.91-3,17.76,2.73,14.99,10.26Z"/>
                    <path class="cls-7"
                          d="M450.03,263.76c-2.31,6.27-15.49,11.71-25.22,20.76-2.56,2.38-4.79,4.84-6.67,7.25-1.88,2.41-5.25,3.05-7.9,1.52h0l-1.16-.67-.08-.04-3.17-1.83c1.88-7.08,5.26-13.79,9.22-19.54.01-.03.03-.06.05-.09,6.44-9.34,14.39-16.09,19.94-17.62,10.91-3,17.76,2.73,14.99,10.26Z"/>
                </g>
                <path class="cls-9"
                      d="M440.76,259.99c-7.97,2.25-23.41,11.97-30.52,33.3l-1.16-.67c7.21-21.59,22.56-31.41,31.33-33.88.36-.1.7.1.8.45.1.35-.1.71-.45.8Z"/>
            </g>
        </g>
    </g>
    <g id="Device">
        <g id="Laptop">
            <g>
                <path class="cls-13"
                      d="M55.24,343.99c0,3.47,2.6,7.78,5.8,9.63l126.29,72.93c3.2,1.85,8.4,1.85,11.6,0l222.38-128.39c3.2-1.85,5.8-6.16,5.8-9.63,0-3.47-2.6-7.78-5.8-9.63l-126.29-72.93c-3.2-1.85-8.4-1.85-11.6,0L61.04,334.36c-3.2,1.85-5.8,6.16-5.8,9.63Z"/>
                <path class="cls-8"
                      d="M427.11,288.53c0,3.47-2.6,7.78-5.8,9.63l-222.38,128.4c-1.6.92-3.7,1.38-5.79,1.38v-12.56c2.09,0,4.19-.47,5.79-1.39l222.38-128.39c2.81-1.62,3.16-4.12,1.05-5.96,2.7,2.09,4.75,5.81,4.75,8.89Z"/>
                <path class="cls-5"
                      d="M193.13,415.38v12.55c-2.1,0-4.21-.46-5.8-1.38l-126.29-72.93c-3.2-1.85-5.8-6.16-5.8-9.63,0-3.26,2.29-7.25,5.21-9.26-2.6,1.86-2.4,4.59.59,6.32l126.29,72.93c1.59.92,3.7,1.39,5.8,1.39Z"/>
            </g>
            <g>
                <path class="cls-8"
                      d="M49.79,334.57c-2.84-2-2.84-4.66-2.84-8.36v-186.88c0-3.7,2.6-8.2,5.8-10.05L275.13.89c3.2-1.85,6.16-.51,9.16,1.23,3.01,1.74,4.92,3.23,4.92,6.93v186.88c0,3.7-2.6,8.2-5.8,10.05L61.04,334.36c-4.85,3.27-8.15,2.38-11.24.21Z"/>
                <path class="cls-5"
                      d="M61.04,334.36c-4.85,3.26-8.16,2.38-11.24.2-2.83-2-2.84-4.67-2.84-8.36v-186.87c0-1.85.65-3.9,1.69-5.71l8.28,4.82c-1.05,1.8-1.69,3.85-1.69,5.69v186.88c0,3.7,2.59,5.19,5.8,3.35Z"/>
                <path class="cls-13"
                      d="M289.22,9.04c0-3.69-2.6-5.19-5.8-3.35L61.03,134.09c-1.6.93-3.06,2.52-4.1,4.34l-8.28-4.81h-.01c1.05-1.82,2.51-3.41,4.11-4.34L275.13.89c3.2-1.85,6.16-.51,9.16,1.22,3.01,1.74,4.93,3.24,4.93,6.93Z"/>
            </g>
            <g>
                <path class="cls-5"
                      d="M64.16,140.78L278.56,17.03c1.92-1.11,3.48-.21,3.48,2.01v171.41c0,2.22-1.56,4.92-3.48,6.03l-214.4,123.75c-1.92,1.11-3.48.21-3.48-2.01v-171.4c0-2.22,1.56-4.92,3.48-6.03Z"/>
                <path class="cls-3"
                      d="M64.16,140.78c-1.92,1.11-3.48,3.81-3.48,6.03v170.37l213.14-123.02c1.92-1.11,3.48-3.81,3.48-6.03V17.76l-213.14,123.02Z"/>
                <path class="cls-12"
                      d="M64.16,140.78c-1.92,1.11-3.48,3.81-3.48,6.03v170.37l213.14-123.02c1.92-1.11,3.48-3.81,3.48-6.03V17.76l-213.14,123.02Z"/>
            </g>
            <path class="cls-8"
                  d="M77.09,334.7l206.41-119.17c1.6-.92,4.2-.92,5.8,0l6.01,3.15c1.6.92,1.6,2.42,0,3.35l-206.45,119.15c-1.6.92-4.2.92-5.8,0l-5.97-3.14c-1.6-.92-1.6-2.42,0-3.35Z"/>
            <g>
                <path class="cls-5"
                      d="M93.28,344.33l206.41-119.17c1.6-.92,3.97-1.05,5.3-.29l53.73,31.02c1.33.76,1.1,2.13-.5,3.06l-206.17,119.01c-1.6.92-3.98,1.06-5.31.3l-53.95-30.88c-1.33-.76-1.11-2.13.49-3.05Z"/>
                <path class="cls-13"
                      d="M270.43,274.72l6.46-3.73c.27-.16.31-.39.09-.52l-5.7-3.29c-.22-.13-.63-.11-.9.05l-6.46,3.73c-.27.16-.31.39-.09.52l5.7,3.29c.23.13.63.11.9-.05ZM261.41,262.05l-6.46,3.73c-.27.16-.31.39-.09.52l5.7,3.29c.22.13.63.11.9-.05l6.46-3.73c.27-.16.32-.39.09-.52l-5.7-3.29c-.22-.13-.63-.11-.9.05ZM240.53,274.11l-10.94,6.31c-.27.16-.31.39-.09.52l5.7,3.29c.23.13.63.11.9-.05l10.94-6.31c.27-.16.31-.39.09-.52l-5.7-3.29c-.23-.13-.63-.11-.9.05ZM251.97,267.51l-6.46,3.73c-.27.16-.31.39-.09.52l5.7,3.29c.22.13.63.11.9-.05l6.46-3.73c.27-.16.32-.39.09-.52l-5.7-3.29c-.22-.13-.63-.11-.9.05ZM226.61,282.15l-6.46,3.73c-.28.16-.32.39-.09.52l5.7,3.29c.22.13.63.11.9-.05l6.46-3.73c.27-.16.31-.39.09-.52l-5.7-3.29c-.22-.13-.63-.11-.9.05ZM217.17,287.6l-6.46,3.73c-.27.16-.31.39-.09.52l5.7,3.29c.22.13.63.11.9-.05l6.46-3.73c.27-.16.31-.39.09-.52l-5.7-3.29c-.23-.13-.63-.11-.9.05ZM241.12,302l6.46-3.73c.27-.16.31-.39.09-.52l-5.7-3.29c-.23-.13-.63-.11-.9.05l-6.46,3.73c-.27.16-.32.39-.09.52l5.7,3.29c.22.13.63.11.9-.05ZM231.67,307.45l6.46-3.73c.27-.16.31-.39.09-.52l-5.7-3.29c-.23-.13-.63-.11-.9.05l-6.46,3.73c-.27.16-.31.39-.09.52l5.7,3.29c.23.13.63.11.9-.05ZM222.23,312.91l6.46-3.73c.27-.16.31-.39.09-.52l-5.7-3.29c-.23-.13-.63-.11-.9.05l-6.46,3.73c-.27.16-.31.39-.09.52l5.7,3.29c.23.13.63.11.9-.05ZM212.78,318.36l6.46-3.73c.27-.16.31-.39.09-.52l-5.7-3.29c-.22-.13-.63-.11-.9.05l-6.46,3.73c-.27.16-.32.39-.09.52l5.7,3.29c.22.13.63.11.9-.05ZM260.99,280.18l6.46-3.73c.27-.16.31-.39.09-.52l-5.7-3.29c-.22-.13-.63-.11-.9.05l-6.46,3.73c-.27.16-.32.39-.09.52l5.7,3.29c.23.13.63.11.91-.05ZM250.56,296.55l14.42-8.32c.27-.16.31-.39.09-.52l-14.67-8.47c-.23-.13-.63-.11-.9.05l-7.46,4.31c-.27.16-.31.39-.09.52l8.15,4.71c.22.13.18.36-.09.52l-5.97,3.44c-.27.16-.32.39-.09.52l5.7,3.29c.22.13.63.11.9-.05ZM207.72,293.05l-6.46,3.73c-.27.16-.31.39-.09.52l5.7,3.29c.22.13.63.11.9-.05l6.46-3.73c.27-.16.31-.39.09-.52l-5.7-3.29c-.22-.13-.63-.11-.9.05ZM198.28,298.51l-6.46,3.73c-.27.16-.31.39-.09.52l5.7,3.29c.23.13.63.11.9-.05l6.46-3.73c.27-.16.31-.39.09-.52l-5.7-3.29c-.22-.13-.63-.11-.9.05ZM145.76,356.59c.22.13.63.11.9-.05l6.46-3.73c.27-.16.31-.39.09-.52l-5.7-3.29c-.23-.13-.63-.11-.9.05l-6.46,3.73c-.27.16-.31.39-.09.52l5.7,3.29ZM122.71,342.13l-6.46,3.73c-.27.16-.32.39-.09.52l5.7,3.29c.23.13.63.11.9-.05l6.46-3.73c.27-.16.31-.39.09-.52l-5.7-3.29c-.23-.13-.63-.11-.9.05ZM134.31,352.85c.23.13.63.11.9-.05l6.46-3.73c.27-.16.31-.39.09-.52l-5.7-3.29c-.23-.13-.63-.11-.9.05l-6.46,3.73c-.27.16-.31.39-.09.52l5.7,3.29ZM160.6,358.84l6.46-3.73c.27-.16.32-.39.09-.52l-5.7-3.29c-.22-.13-.63-.11-.9.05l-6.46,3.73c-.27.16-.31.39-.09.52l5.7,3.29c.22.13.63.11.9-.05ZM150.25,364.35c.22.13.63.11.9-.05l6.46-3.73c.27-.16.31-.39.09-.52l-5.7-3.29c-.23-.13-.63-.11-.9.05l-6.46,3.73c-.27.16-.31.39-.09.52l5.7,3.29ZM132.16,336.68l-6.46,3.73c-.28.16-.31.39-.09.52l5.7,3.29c.22.13.63.11.9-.05l6.46-3.73c.27-.16.31-.39.09-.52l-5.7-3.29c-.22-.13-.63-.11-.9.05ZM179.39,309.41l-6.46,3.73c-.27.16-.31.39-.09.52l5.7,3.29c.23.13.63.11.9-.05l6.46-3.73c.27-.16.31-.39.09-.52l-5.7-3.29c-.22-.13-.63-.11-.9.05ZM141.6,331.23l-6.46,3.73c-.27.16-.31.39-.09.52l5.7,3.29c.23.13.63.11.9-.05l6.46-3.73c.27-.16.31-.39.09-.52l-5.7-3.29c-.23-.13-.63-.11-.9.05ZM188.83,303.96l-6.46,3.73c-.27.16-.31.39-.09.52l5.7,3.29c.23.13.63.11.9-.05l6.46-3.73c.27-.16.31-.39.09-.52l-5.7-3.29c-.23-.13-.63-.11-.9.05ZM169.94,314.87l-6.46,3.73c-.27.16-.32.39-.09.52l5.7,3.29c.22.13.63.11.9-.05l6.46-3.73c.27-.16.32-.39.09-.52l-5.7-3.29c-.22-.13-.63-.11-.9.05ZM160.49,320.32l-6.46,3.73c-.27.16-.32.39-.09.52l5.7,3.29c.22.13.63.11.9-.05l6.46-3.73c.27-.16.31-.39.09-.52l-5.7-3.29c-.22-.13-.63-.11-.9.05ZM151.05,325.77l-6.46,3.73c-.27.16-.31.39-.09.52l5.7,3.29c.23.13.63.11.9-.05l6.46-3.73c.27-.16.31-.39.09-.52l-5.7-3.29c-.23-.13-.63-.11-.9.05ZM193.89,329.27l6.46-3.73c.27-.16.32-.39.09-.52l-5.7-3.29c-.23-.13-.63-.11-.9.05l-6.46,3.73c-.27.16-.31.39-.09.52l5.7,3.29c.23.13.63.11.9-.05ZM282.29,250l-6.46,3.73c-.27.16-.31.39-.09.52l5.7,3.29c.22.13.63.11.9-.05l6.46-3.73c.27-.16.31-.39.09-.52l-5.7-3.29c-.22-.13-.63-.11-.9.05ZM270.86,256.6l-6.46,3.73c-.27.16-.31.39-.09.52l5.7,3.29c.22.13.63.11.9-.05l6.46-3.73c.27-.16.31-.39.09-.52l-5.7-3.29c-.22-.13-.63-.11-.9.05ZM291.74,244.55l-6.46,3.73c-.27.16-.31.39-.09.52l5.7,3.29c.22.13.63.11.9-.05l6.46-3.73c.27-.16.32-.39.09-.52l-5.7-3.29c-.23-.13-.63-.11-.91.05ZM239.11,292.81l6.46-3.73c.27-.16.31-.39.09-.52l-5.7-3.29c-.22-.13-.63-.11-.9.05l-6.46,3.73c-.27.16-.31.39-.09.52l5.7,3.29c.23.13.63.11.9-.05ZM302.09,239.04c-.22-.13-.63-.11-.9.05l-6.46,3.73c-.27.16-.32.39-.09.52l5.7,3.29c.22.13.63.11.9-.05l6.46-3.73c.27-.16.32-.39.09-.52l-5.7-3.29ZM203.34,323.81l6.46-3.73c.27-.16.31-.39.09-.52l-5.7-3.29c-.23-.13-.63-.11-.9.05l-6.46,3.73c-.27.16-.31.39-.09.52l5.7,3.29c.22.13.63.11.9-.05ZM319.17,256.94l6.46-3.73c.27-.16.31-.39.09-.52l-5.7-3.29c-.22-.13-.63-.11-.9.05l-6.46,3.73c-.27.16-.32.39-.09.52l5.7,3.29c.22.13.63.11.9-.05ZM300.76,257.22l6.46-3.73c.27-.16.31-.39.09-.52l-5.7-3.29c-.22-.13-.63-.11-.9.05l-6.46,3.73c-.27.16-.32.39-.09.52l5.7,3.29c.22.13.63.11.9-.05ZM311.05,244.22c-.22-.13-.63-.11-.9.05l-6.46,3.73c-.27.16-.31.39-.09.52l5.7,3.29c.22.13.63.11.9-.05l6.46-3.73c.27-.16.32-.39.09-.52l-5.7-3.29ZM313.04,243.07l14.67,8.47c.23.13.63.11.9-.05l6.46-3.73c.27-.16.31-.39.09-.52l-14.67-8.47c-.23-.13-.63-.11-.9.05l-6.46,3.73c-.27.16-.31.39-.09.52ZM291.26,255.18l-6.46,3.73c-.27.16-.32.39-.09.52l5.7,3.29c.23.13.63.11.9-.05l6.46-3.73c.27-.16.31-.39.09-.52l-5.7-3.29c-.23-.13-.63-.11-.9.05ZM220.17,296.22l-6.46,3.73c-.27.16-.31.39-.09.52l5.7,3.29c.22.13.63.11.9-.05l6.46-3.73c.27-.16.31-.39.09-.52l-5.7-3.29c-.23-.13-.63-.11-.9.05ZM308.82,262.44c.22.13.63.11.9-.05l6.46-3.73c.27-.16.31-.39.09-.52l-5.7-3.29c-.22-.13-.63-.11-.9.05l-6.46,3.73c-.27.16-.32.39-.09.52l5.7,3.29ZM229.61,290.77l-6.46,3.73c-.27.16-.31.39-.09.52l5.7,3.29c.22.13.63.11.9-.05l6.46-3.73c.27-.16.31-.39.09-.52l-5.7-3.29c-.22-.13-.63-.11-.9.05ZM155.2,351.13c.23.13.63.11.9-.05l6.46-3.73c.27-.16.31-.39.09-.52l-5.7-3.29c-.22-.13-.63-.11-.9.05l-6.46,3.73c-.27.16-.31.39-.09.52l5.7,3.29ZM144.6,339.85l-6.46,3.73c-.27.16-.31.39-.09.52l5.7,3.29c.23.13.63.11.9-.05l6.46-3.73c.27-.16.31-.39.09-.52l-5.7-3.29c-.22-.13-.63-.11-.9.05ZM165.55,345.63l6.46-3.73c.27-.16.32-.39.09-.52l-5.7-3.29c-.22-.13-.63-.11-.9.05l-6.46,3.73c-.27.16-.31.39-.09.52l5.7,3.29c.22.13.63.11.9-.05ZM175,340.18l6.46-3.73c.27-.16.32-.39.09-.52l-5.7-3.29c-.22-.13-.63-.11-.9.05l-6.46,3.73c-.27.16-.32.39-.09.52l5.7,3.29c.22.13.63.11.9-.05ZM184.44,334.72l6.46-3.73c.27-.16.31-.39.09-.52l-5.7-3.29c-.22-.13-.63-.11-.9.05l-6.46,3.73c-.27.16-.31.39-.09.52l5.7,3.29c.23.13.63.11.9-.05ZM154.05,334.39l-6.46,3.73c-.27.16-.31.39-.09.52l5.7,3.29c.22.13.63.11.9-.05l6.46-3.73c.27-.16.31-.39.09-.52l-5.7-3.29c-.23-.13-.63-.11-.9.05ZM163.5,328.94l-6.46,3.73c-.27.16-.32.39-.09.52l5.7,3.29c.23.13.63.11.9-.05l6.46-3.73c.27-.16.31-.39.09-.52l-5.7-3.29c-.22-.13-.63-.11-.9.05ZM201.28,307.13l-6.46,3.73c-.27.16-.31.39-.09.52l5.7,3.29c.23.13.63.11.9-.05l6.46-3.73c.27-.16.31-.39.09-.52l-5.7-3.29c-.22-.13-.63-.11-.9.05ZM191.83,312.58l-6.46,3.73c-.27.16-.32.39-.09.52l5.7,3.29c.22.13.63.11.9-.05l6.46-3.73c.27-.16.32-.39.09-.52l-5.7-3.29c-.22-.13-.63-.11-.9.05ZM210.72,301.67l-6.46,3.73c-.27.16-.31.39-.09.52l5.7,3.29c.22.13.63.11.9-.05l6.46-3.73c.27-.16.31-.39.09-.52l-5.7-3.29c-.22-.13-.63-.11-.9.05ZM172.94,323.49l-6.46,3.73c-.27.16-.32.39-.09.52l5.7,3.29c.22.13.63.11.9-.05l6.46-3.73c.27-.16.31-.39.09-.52l-5.7-3.29c-.22-.13-.63-.11-.9.05ZM182.39,318.03l-6.46,3.73c-.27.16-.31.39-.09.52l5.7,3.29c.22.13.63.11.9-.05l6.46-3.73c.27-.16.32-.39.09-.52l-5.7-3.29c-.22-.13-.63-.11-.9.05ZM170.04,353.39l6.46-3.73c.27-.16.31-.39.09-.52l-5.7-3.29c-.22-.13-.63-.11-.9.05l-6.46,3.73c-.27.16-.31.39-.09.52l5.7,3.29c.23.13.63.11.9-.05ZM119.87,350.83l-5.7-3.29c-.22-.13-.63-.11-.9.05l-6.46,3.73c-.27.16-.31.39-.09.52l5.7,3.29c.23.13.63.11.9-.05l6.46-3.73c.27-.16.31-.39.09-.52ZM132.32,353.99l-5.7-3.29c-.22-.13-.63-.11-.9.05l-9.94,5.74c-.27.16-.31.39-.09.52l5.7,3.29c.23.13.63.11.9-.05l9.94-5.74c.27-.16.31-.39.09-.52ZM111.48,344.26l-5.7-3.29c-.22-.13-.63-.11-.9.05l-7.95,4.59c-.27.16-.32.39-.09.52l5.7,3.29c.22.13.63.11.9-.05l7.95-4.59c.27-.16.31-.39.09-.52ZM117.58,340.74c.22.13.63.11.9-.05l6.46-3.73c.27-.16.32-.39.09-.52l-5.7-3.29c-.22-.13-.63-.11-.9.05l-6.46,3.73c-.28.16-.32.39-.09.52l5.7,3.29ZM143.77,357.73l-5.7-3.29c-.23-.13-.63-.11-.9.05l-12.43,7.17c-.27.16-.31.39-.09.52l5.7,3.29c.23.13.63.11.9-.05l12.43-7.18c.27-.16.32-.39.09-.52ZM148.26,365.49l-5.7-3.29c-.22-.13-.63-.11-.9.05l-7.95,4.59c-.27.16-.32.39-.09.52l5.7,3.29c.22.13.63.11.9-.05l7.95-4.59c.27-.16.31-.39.09-.52ZM187.81,300.19c.22.13.63.11.9-.05l6.46-3.73c.27-.16.32-.39.09-.52l-5.7-3.29c-.23-.13-.63-.11-.91.05l-6.46,3.73c-.27.16-.32.39-.09.52l5.7,3.29ZM168.92,311.1c.23.13.63.11.9-.05l6.46-3.73c.27-.16.31-.39.09-.52l-5.7-3.29c-.22-.13-.63-.11-.9.05l-6.46,3.73c-.27.16-.31.39-.09.52l5.7,3.29ZM127.02,335.28c.23.13.63.11.9-.05l6.46-3.73c.27-.16.32-.39.09-.52l-5.7-3.29c-.22-.13-.63-.11-.9.05l-6.46,3.73c-.27.16-.31.39-.09.52l5.7,3.29ZM178.36,305.64c.22.13.63.11.9-.05l6.46-3.73c.27-.16.31-.39.09-.52l-5.7-3.29c-.23-.13-.63-.11-.9.05l-6.46,3.73c-.27.16-.32.39-.09.52l5.7,3.29ZM159.47,316.55c.23.13.63.11.9-.05l6.46-3.73c.27-.16.31-.39.09-.52l-5.7-3.29c-.23-.13-.63-.11-.9.05l-6.46,3.73c-.27.16-.31.39-.09.52l5.7,3.29ZM153.51,366.23c-.23-.13-.63-.11-.9.05l-9.94,5.74c-.27.16-.31.39-.09.52l5.7,3.29c.23.13.63.11.9-.05l9.94-5.74c.27-.16.31-.39.09-.52l-5.7-3.29ZM145.91,324.38c.23.13.63.11.9-.05l6.46-3.73c.27-.16.31-.39.09-.52l-5.7-3.29c-.23-.13-.63-.11-.9.05l-6.46,3.73c-.27.16-.31.39-.09.52l5.7,3.29ZM136.47,329.83c.23.13.63.11.9-.05l6.46-3.73c.27-.16.31-.39.09-.52l-5.7-3.29c-.23-.13-.63-.11-.9.05l-6.46,3.73c-.27.16-.31.39-.09.52l5.7,3.29ZM328.51,265.2c-.23-.13-.63-.11-.9.05l-15.91,9.18c-.27.16-.32.39-.09.52l5.7,3.29c.22.13.63.11.9-.05l15.91-9.18c.27-.16.32-.39.09-.52l-5.7-3.29ZM307.63,277.25c-.22-.13-.63-.11-.9.05l-6.46,3.73c-.27.16-.31.39-.09.52l5.7,3.29c.23.13.63.11.9-.05l6.46-3.73c.27-.16.31-.39.09-.52l-5.7-3.29ZM179.49,347.93l6.46-3.73c.27-.16.31-.39.09-.52l-5.7-3.29c-.23-.13-.63-.11-.9.05l-6.46,3.73c-.27.16-.31.39-.09.52l5.7,3.29c.23.13.63.11.9-.05ZM288.74,288.16c-.23-.13-.63-.11-.9.05l-6.46,3.73c-.27.16-.31.39-.09.52l5.7,3.29c.23.13.63.11.9-.05l6.46-3.73c.27-.16.31-.39.09-.52l-5.7-3.29ZM337.95,259.75c-.23-.13-.63-.11-.9.05l-6.46,3.73c-.27.16-.31.39-.09.52l5.7,3.29c.23.13.63.11.9-.05l6.46-3.73c.27-.16.31-.39.09-.52l-5.7-3.29ZM353.1,257.58l-14.67-8.47c-.23-.13-.63-.11-.9.05l-6.46,3.73c-.27.16-.32.39-.09.52l14.67,8.47c.23.13.63.11.9-.05l6.46-3.73c.27-.16.31-.39.09-.52ZM253.44,308.54c-.22-.13-.63-.11-.9.05l-7.95,4.59c-.27.16-.31.39-.09.52l5.7,3.29c.23.13.63.11.9-.05l7.95-4.59c.27-.16.32-.39.09-.52l-5.7-3.29ZM277.3,294.76c-.23-.13-.63-.11-.9.05l-9.94,5.74c-.27.16-.31.39-.09.52l5.7,3.29c.22.13.63.11.9-.05l9.94-5.74c.27-.16.31-.39.09-.52l-5.7-3.29ZM231.56,321.17c-.22-.13-.63-.11-.9.05l-53.19,30.71c-.27.16-.32.39-.09.52l5.7,3.29c.22.13.63.11.9-.05l53.19-30.71c.27-.16.32-.39.09-.52l-5.7-3.29ZM175.39,353.6c-.22-.13-.63-.11-.9.05l-7.95,4.59c-.27.16-.31.39-.09.52l5.7,3.29c.23.13.63.11.9-.05l7.95-4.59c.27-.16.31-.39.09-.52l-5.7-3.29ZM242.5,314.85c-.22-.13-.63-.11-.9.05l-7.95,4.59c-.27.16-.32.39-.09.52l5.7,3.29c.22.13.63.11.9-.05l7.95-4.59c.27-.16.31-.39.09-.52l-5.7-3.29ZM164.45,359.92c-.22-.13-.63-.11-.9.05l-7.95,4.59c-.27.16-.31.39-.09.52l5.7,3.29c.23.13.63.11.9-.05l7.95-4.59c.27-.16.32-.39.09-.52l-5.7-3.29ZM264.38,302.23c-.22-.13-.63-.11-.9.05l-7.95,4.59c-.27.16-.31.39-.09.52l5.7,3.29c.22.13.63.11.9-.05l7.95-4.59c.27-.16.31-.39.09-.52l-5.7-3.29ZM298.18,282.71c-.23-.13-.63-.11-.9.05l-6.46,3.73c-.27.16-.31.39-.09.52l5.7,3.29c.22.13.63.11.9-.05l6.46-3.73c.27-.16.31-.39.09-.52l-5.7-3.29ZM318.69,267.57l6.46-3.73c.27-.16.32-.39.09-.52l-5.7-3.29c-.22-.13-.63-.11-.9.05l-6.46,3.73c-.27.16-.31.39-.09.52l5.7,3.29c.22.13.63.11.9-.05ZM279.88,269.27l6.46-3.73c.27-.16.31-.39.09-.52l-5.7-3.29c-.22-.13-.63-.11-.9.05l-6.46,3.73c-.28.16-.31.39-.09.52l5.7,3.29c.23.13.63.11.9-.05ZM255.05,304.31l18.89-10.91c.27-.16.31-.39.09-.52l-5.7-3.29c-.22-.13-.63-.11-.9.05l-18.89,10.91c-.27.16-.31.39-.09.52l5.7,3.29c.23.13.63.11.9-.05ZM308.34,273.07c.22.13.63.11.9-.05l6.46-3.73c.27-.16.32-.39.09-.52l-5.7-3.29c-.22-.13-.63-.11-.9.05l-6.46,3.73c-.27.16-.31.39-.09.52l5.7,3.29ZM300.28,267.85l6.46-3.73c.27-.16.31-.39.09-.52l-5.7-3.29c-.22-.13-.63-.11-.9.05l-6.46,3.73c-.27.16-.32.39-.09.52l5.7,3.29c.22.13.63.11.9-.05ZM245.61,309.76l6.46-3.73c.27-.16.31-.39.09-.52l-5.7-3.29c-.22-.13-.63-.11-.9.05l-6.46,3.73c-.27.16-.31.39-.09.52l5.7,3.29c.23.13.63.11.9-.05ZM287.46,285.13c.23.13.63.11.9-.05l6.46-3.73c.27-.16.31-.39.09-.52l-5.7-3.29c-.23-.13-.63-.11-.9.05l-6.46,3.73c-.27.16-.31.39-.09.52l5.7,3.29ZM198.38,337.03l6.46-3.73c.27-.16.31-.39.09-.52l-5.7-3.29c-.22-.13-.63-.11-.9.05l-6.46,3.73c-.27.16-.31.39-.09.52l5.7,3.29c.22.13.63.11.9-.05ZM207.83,331.57l6.46-3.73c.27-.16.31-.39.09-.52l-5.7-3.29c-.22-.13-.63-.11-.9.05l-6.46,3.73c-.27.16-.31.39-.09.52l5.7,3.29c.23.13.63.11.9-.05ZM188.94,342.48l6.46-3.73c.27-.16.31-.39.09-.52l-5.7-3.29c-.23-.13-.63-.11-.9.05l-6.46,3.73c-.27.16-.31.39-.09.52l5.7,3.29c.23.13.63.11.9-.05ZM226.72,320.67l6.46-3.73c.27-.16.32-.39.09-.52l-5.7-3.29c-.22-.13-.63-.11-.9.05l-6.46,3.73c-.27.16-.31.39-.09.52l5.7,3.29c.23.13.63.11.9-.05ZM217.27,326.12l6.46-3.73c.27-.16.32-.39.09-.52l-5.7-3.29c-.22-.13-.63-.11-.9.05l-6.46,3.73c-.27.16-.31.39-.09.52l5.7,3.29c.22.13.63.11.9-.05ZM236.16,315.21l6.46-3.73c.27-.16.31-.39.09-.52l-5.7-3.29c-.22-.13-.63-.11-.9.05l-6.46,3.73c-.27.16-.31.39-.09.52l5.7,3.29c.23.13.63.11.9-.05ZM288.36,239.72c.23.13.63.11.9-.05l6.46-3.73c.27-.16.31-.39.09-.52l-1.52-.88c-.22-.13-.63-.11-.9.05l-6.46,3.73c-.27.16-.31.39-.09.52l1.52.88ZM241.23,269.35c.22.13.63.11.9-.05l6.46-3.73c.27-.16.31-.39.09-.52l-5.7-3.29c-.22-.13-.63-.11-.9.05l-6.46,3.73c-.27.16-.32.39-.09.52l5.7,3.29ZM260.12,258.44c.22.13.63.11.9-.05l6.46-3.73c.28-.16.31-.39.09-.52l-5.7-3.29c-.22-.13-.63-.11-.9.05l-6.46,3.73c-.27.16-.31.39-.09.52l5.7,3.29ZM229.7,276.01c.23.13.63.11.9-.05l6.46-3.73c.27-.16.31-.39.09-.52l-5.7-3.29c-.22-.13-.63-.11-.9.05l-6.46,3.73c-.27.16-.31.39-.09.52l5.7,3.29ZM250.68,263.89c.22.13.63.11.9-.05l6.46-3.73c.27-.16.31-.39.09-.52l-5.7-3.29c-.22-.13-.63-.11-.9.05l-6.46,3.73c-.27.16-.32.39-.09.52l5.7,3.29ZM210.81,286.91c.23.13.63.11.9-.05l6.46-3.73c.27-.16.31-.39.09-.52l-5.7-3.29c-.23-.13-.63-.11-.9.05l-6.46,3.73c-.27.16-.31.39-.09.52l5.7,3.29ZM220.25,281.46c.23.13.63.11.9-.05l6.46-3.73c.27-.16.31-.39.09-.52l-5.7-3.29c-.23-.13-.63-.11-.9.05l-6.46,3.73c-.27.16-.31.39-.09.52l5.7,3.29ZM269.47,250.63c.22.13.63.11.9-.05l6.46-3.73c.27-.16.31-.39.09-.52l-1.52-.88c-.22-.13-.63-.11-.9.05l-6.46,3.73c-.27.16-.32.39-.09.52l1.52.88ZM297.8,234.27c.23.13.63.11.9-.05l6.46-3.73c.27-.16.31-.39.09-.52l-1.52-.88c-.23-.13-.63-.11-.9.05l-6.46,3.73c-.27.16-.31.39-.09.52l1.52.88ZM309.78,241.18c.23.13.63.11.9-.05l6.46-3.73c.27-.16.31-.39.09-.52l-5.7-3.29c-.22-.13-.63-.11-.9.05l-6.46,3.73c-.27.16-.31.39-.09.52l5.7,3.29ZM328.13,262.11l6.46-3.73c.27-.16.32-.39.09-.52l-5.7-3.29c-.22-.13-.63-.11-.9.05l-6.46,3.73c-.27.16-.31.39-.09.52l5.7,3.29c.22.13.63.11.9-.05ZM278.91,245.18c.22.13.63.11.9-.05l6.46-3.73c.27-.16.31-.39.09-.52l-1.52-.88c-.23-.13-.63-.11-.9.05l-6.46,3.73c-.27.16-.31.39-.09.52l1.52.88ZM201.36,292.37c.22.13.63.11.9-.05l6.46-3.73c.27-.16.32-.39.09-.52l-5.7-3.29c-.22-.13-.63-.11-.9.05l-6.46,3.73c-.27.16-.31.39-.09.52l5.7,3.29Z"/>
            </g>
            <g>
                <polygon class="cls-5"
                         points="230.28 341.14 231.61 341.91 266.8 362.22 329.4 326.09 330.7 325.34 294.18 304.26 230.28 341.14"/>
                <polygon class="cls-8" points="328.81 326.42 294.18 306.44 232.19 342.24 266.8 362.22 328.81 326.42"/>
            </g>
        </g>
    </g>
    <g id="Browser">
        <g id="Www">
            <g id="www">
                <g>
                    <path class="cls-3"
                          d="M368.35,48.11c0-2.63-.92-4.49-2.41-5.37-1.51-.89-10.23-5.92-11.75-6.78-1.5-.86-3.57-.73-5.86.59l-163.26,94.26v54.03s11.7,6.75,11.7,6.75l163.26-94.26c4.59-2.65,8.31-9.1,8.31-14.4v-34.83Z"/>
                    <path class="cls-14"
                          d="M368.35,48.11c0-2.63-.92-4.49-2.41-5.37-1.51-.89-10.23-5.92-11.75-6.78-1.5-.86-3.57-.73-5.86.59l-163.26,94.26v54.03s11.7,6.75,11.7,6.75l163.26-94.26c4.59-2.65,8.31-9.1,8.31-14.4v-34.83Z"/>
                    <path class="cls-3"
                          d="M360.04,43.31c4.59-2.65,8.31-.5,8.31,4.8v34.83c0,5.3-3.72,11.75-8.31,14.4l-163.26,94.26v-54.03s163.26-94.26,163.26-94.26Z"/>
                    <path class="cls-2"
                          d="M358.37,92.89c3.08-1.78,5.6-6.15,5.6-9.71v-32.18c0-2.54-1.8-3.57-3.99-2.31l-159.9,92.39v43.26l158.29-91.46Z"/>
                </g>
                <g>
                    <path class="cls-13"
                          d="M227.94,157.66c0,.25-.06.5-.18.74-.12.25-.26.42-.42.51l-2.76,1.59c-.16.09-.3.08-.42-.03-.12-.11-.17-.29-.17-.54v-8.54c0-.97-.15-1.66-.46-2.06-.31-.41-.79-.42-1.45-.04-.66.38-1.14.95-1.44,1.71-.3.76-.45,1.62-.45,2.59v8.54c0,.25-.06.5-.18.74-.12.25-.25.42-.42.51l-2.76,1.59c-.16.09-.3.08-.42-.03-.12-.11-.18-.29-.18-.54v-22.14c0-.25.06-.5.18-.74.12-.25.25-.42.42-.51l2.76-1.59c.16-.09.3-.08.42.03.12.11.18.29.18.54v7.19c.25-.62.64-1.29,1.16-2.04.53-.74,1.13-1.31,1.82-1.71.7-.4,1.34-.62,1.93-.66.58-.03,1.08.14,1.5.53.42.39.74,1,.97,1.83.23.83.35,1.91.35,3.24v9.28Z"/>
                    <path class="cls-13"
                          d="M235.53,147.34c0,.52.07.88.22,1.07.15.2.39.2.72,0l1.75-1.01c.16-.09.3-.08.42.03.12.11.17.29.17.54v3.41c0,.25-.06.5-.17.74-.12.25-.26.42-.42.51l-2.08,1.2c-.69.4-1.31.61-1.88.63s-1.04-.14-1.44-.49c-.39-.35-.7-.87-.92-1.56-.22-.69-.33-1.56-.33-2.59v-5.67l-1.62.94c-.16.09-.3.08-.42-.03-.12-.11-.17-.29-.17-.54v-3.41c0-.25.06-.5.17-.74.12-.25.26-.42.42-.51l1.62-.94v-5.5c0-.25.06-.5.17-.74.12-.25.26-.42.42-.51l2.76-1.59c.16-.09.3-.08.42.03.12.11.17.29.17.54v5.5l2.48-1.43c.16-.09.3-.08.42.03.12.11.17.29.17.54v3.41c0,.25-.06.5-.17.74-.12.25-.26.42-.42.51l-2.48,1.43v5.47Z"/>
                    <path class="cls-13"
                          d="M245.92,141.34c0,.52.07.88.22,1.07.15.2.39.2.72,0l1.75-1.01c.16-.09.3-.08.42.03.12.11.17.29.17.54v3.41c0,.25-.06.5-.17.74-.12.25-.26.42-.42.51l-2.08,1.2c-.69.4-1.31.61-1.88.63-.56.02-1.04-.14-1.44-.49-.39-.35-.7-.87-.92-1.56-.22-.7-.33-1.56-.33-2.6v-5.67l-1.62.94c-.16.09-.3.08-.42-.03-.12-.11-.17-.29-.17-.54v-3.41c0-.25.06-.49.17-.74.12-.25.26-.42.42-.51l1.62-.94v-5.5c0-.25.06-.49.17-.74.12-.25.26-.42.42-.51l2.76-1.59c.16-.09.3-.08.42.03.12.11.17.29.17.54v5.5l2.48-1.43c.16-.09.3-.08.42.03.12.11.17.29.17.54v3.41c0,.25-.06.5-.17.74-.12.25-.26.42-.42.51l-2.48,1.43v5.47Z"/>
                    <path class="cls-13"
                          d="M257.95,141.58c-.42.25-.8.39-1.12.44-.32.05-.6.04-.83-.03-.23-.07-.43-.17-.59-.32-.16-.14-.29-.29-.39-.43v7.19c0,.25-.06.5-.18.74-.12.25-.26.42-.42.51l-2.76,1.6c-.16.09-.3.08-.42-.03-.12-.11-.18-.29-.18-.54v-22.14c0-.25.06-.49.18-.74.12-.25.26-.42.42-.51l2.65-1.53c.16-.09.3-.08.42.03.12.11.17.29.17.54v.78c.13-.3.27-.62.43-.95.15-.34.34-.67.57-.99.23-.32.5-.64.83-.95.33-.31.74-.61,1.22-.89.66-.38,1.28-.59,1.86-.62.58-.03,1.1.14,1.53.53.44.39.79.99,1.06,1.8.27.81.42,1.87.45,3.18.01.33.02.78.02,1.35s0,1.03-.02,1.38c-.03,1.34-.18,2.58-.45,3.7s-.62,2.13-1.06,3.03c-.44.89-.95,1.67-1.53,2.32-.59.65-1.21,1.17-1.86,1.55ZM258.94,132.84c.04-.65.04-1.29,0-1.89-.04-.76-.21-1.35-.5-1.77-.29-.42-.78-.43-1.47-.03-.32.19-.6.43-.83.72-.23.29-.43.61-.58.96-.15.35-.27.7-.36,1.07-.09.37-.15.72-.17,1.08-.03.35-.04.76-.04,1.21s.01.83.04,1.16c.03.32.09.61.17.88.09.26.21.48.36.65.15.17.35.27.58.29.23.02.51-.06.83-.24.69-.4,1.18-.97,1.47-1.72.29-.75.46-1.54.5-2.35Z"/>
                    <path class="cls-13"
                          d="M268.96,122.17c0,.25-.06.5-.17.74-.12.25-.26.42-.42.51l-2.87,1.66c-.16.09-.3.08-.42-.03-.12-.11-.17-.29-.17-.54v-4.42c0-.25.06-.49.17-.74.12-.25.25-.42.42-.51l2.87-1.66c.16-.09.3-.08.42.03.12.11.17.29.17.54v4.42ZM268.96,133.98c0,.25-.06.49-.17.74-.12.25-.26.42-.42.51l-2.87,1.66c-.16.09-.3.08-.42-.03-.12-.11-.17-.29-.17-.54v-4.42c0-.25.06-.5.17-.74.12-.25.25-.42.42-.51l2.87-1.66c.16-.09.3-.08.42.03.12.11.17.29.17.54v4.42Z"/>
                    <path class="cls-13"
                          d="M278.08,104.11c.07-.29.18-.58.33-.88.15-.3.36-.53.64-.69l2.72-1.57c.13-.08.24-.07.34.02.09.09.14.24.14.44,0,.09-.01.2-.04.33l-7.39,31.57c-.06.26-.16.54-.31.85-.15.31-.37.55-.66.72l-2.67,1.54c-.13.08-.25.07-.34-.02-.1-.09-.14-.24-.14-.44,0-.09.01-.2.04-.33l7.34-31.55Z"/>
                    <path class="cls-13"
                          d="M285.6,99.76c.07-.29.18-.58.33-.88.15-.3.36-.53.64-.69l2.72-1.57c.13-.08.24-.07.34.02.09.09.14.24.14.44,0,.09-.01.2-.04.33l-7.39,31.57c-.06.26-.16.54-.31.85-.15.31-.37.55-.66.72l-2.68,1.54c-.13.08-.24.07-.34-.02-.1-.09-.14-.24-.14-.44,0-.09.01-.2.04-.33l7.34-31.55Z"/>
                    <path class="cls-13"
                          d="M300.09,99.36c.22-.13.39-.13.5-.02.12.11.2.25.24.4l1.62,6.73,1.62-8.6c.04-.21.12-.43.24-.68.12-.25.28-.44.5-.56l2.72-1.57c.15-.08.27-.08.37.02.1.1.15.26.15.49,0,.09,0,.18-.02.28l-3.49,17.64c-.04.23-.12.46-.23.71-.11.24-.27.43-.49.56l-2.5,1.44c-.22.13-.38.13-.48,0-.1-.12-.18-.27-.24-.43l-1.56-6.19-1.56,7.99c-.06.24-.14.47-.24.71-.1.24-.26.42-.48.55l-2.5,1.44c-.22.13-.38.13-.49.01-.11-.12-.19-.26-.23-.44l-3.49-13.62c-.01-.08-.02-.17-.02-.26,0-.22.05-.45.15-.66.1-.22.23-.37.37-.45l2.72-1.57c.22-.13.39-.13.5-.02.12.11.2.25.24.4l1.62,6.73,1.62-8.6c.04-.2.12-.43.24-.68.12-.25.29-.44.5-.56l2.06-1.19Z"/>
                    <path class="cls-13"
                          d="M319.08,88.4c.22-.13.39-.13.5-.02s.2.25.24.4l1.62,6.72,1.62-8.6c.04-.2.12-.43.24-.68.12-.25.29-.44.5-.56l2.72-1.57c.15-.08.27-.08.37.02.1.1.15.26.15.49,0,.09,0,.18-.02.28l-3.49,17.64c-.04.23-.12.46-.23.71-.11.24-.27.43-.49.56l-2.5,1.44c-.22.13-.38.13-.48,0-.1-.12-.18-.27-.24-.43l-1.56-6.19-1.56,7.99c-.06.24-.14.47-.24.71-.1.24-.26.42-.48.55l-2.5,1.44c-.22.13-.38.13-.49.01-.11-.12-.19-.26-.23-.44l-3.49-13.62c-.01-.08-.02-.17-.02-.26,0-.22.05-.45.15-.66.1-.22.23-.37.37-.45l2.72-1.57c.22-.13.39-.13.5-.02s.2.25.24.4l1.62,6.72,1.62-8.6c.04-.21.12-.43.24-.68.12-.25.28-.44.5-.56l2.06-1.19Z"/>
                    <path class="cls-13"
                          d="M338.06,77.44c.22-.13.39-.13.5-.02.12.11.2.25.24.4l1.62,6.73,1.62-8.6c.04-.2.12-.43.24-.68.12-.25.28-.43.5-.56l2.72-1.57c.15-.09.27-.08.37.02.1.1.15.26.15.49,0,.09,0,.18-.02.28l-3.49,17.64c-.04.23-.12.46-.23.71-.11.24-.27.43-.49.55l-2.5,1.44c-.22.13-.38.13-.48,0-.1-.12-.18-.27-.24-.43l-1.56-6.19-1.56,7.99c-.06.24-.14.47-.24.71-.1.24-.26.42-.48.55l-2.5,1.44c-.22.13-.38.13-.49.01-.11-.12-.19-.26-.23-.44l-3.49-13.62c-.01-.08-.02-.17-.02-.26,0-.22.05-.45.15-.66.1-.22.23-.37.37-.45l2.72-1.57c.22-.13.39-.13.5-.02.12.11.2.25.24.4l1.62,6.73,1.62-8.6c.04-.21.12-.43.24-.68s.29-.43.5-.56l2.06-1.19Z"/>
                    <path class="cls-13"
                          d="M350.89,86.68c0,.25-.06.5-.18.74-.12.25-.26.42-.42.51l-2.87,1.66c-.16.09-.3.08-.42-.03-.12-.11-.17-.29-.17-.54v-4.42c0-.25.06-.5.17-.74.12-.25.26-.42.42-.51l2.87-1.66c.16-.09.3-.08.42.03.12.11.18.29.18.54v4.42Z"/>
                </g>
            </g>
            <g id="World">
                <g id="Check">
                    <g id="Circle">
                        <path class="cls-8"
                              d="M189.58,121.84h0s-.08-.05-.08-.05c0,0,0,0,0,0l-20.01-11.88s-.01,0-.02-.01l-.11-.07h0c-8.81-5.31-20.57-4.47-33.22,3.79-25.41,16.59-44.77,56.82-43.24,89.87.76,16.47,6.57,28.04,15.34,33.46h0s.08.05.08.05c0,0,0,0,0,0l20.01,11.88s0,0,0,0l.09.06h0c8.81,5.32,20.58,4.49,33.24-3.77,25.41-16.59,44.77-56.82,43.24-89.87-.76-16.47-6.57-28.04-15.34-33.45Z"/>
                        <path class="cls-5"
                              d="M127.7,248.46l-19.36-11.47h-.01s-.08-.06-.08-.06c-8.77-5.43-14.58-17-15.34-33.44-.68-14.74,2.8-30.89,9.1-45.74l.13-.33,19.89,12.2c-6.31,14.84-9.78,31-9.1,45.74.74,16.12,6.32,27.54,14.79,33.1Z"/>
                        <path class="cls-13"
                              d="M161.69,245.16c25.41-16.59,44.76-56.82,43.24-89.87-1.52-33.04-23.36-46.38-48.76-29.79-25.41,16.59-44.77,56.82-43.24,89.87,1.53,33.04,23.36,46.38,48.76,29.79Z"/>
                    </g>
                </g>
                <g>
                    <path class="cls-3"
                          d="M147.35,236.43c-3.4,0-6.6-.82-9.47-2.48-8-4.6-12.59-15.16-12.59-28.96,0-25.39,15.43-55.02,34.4-66.05,8.63-5.02,17.05-5.66,23.73-1.82,8,4.6,12.59,15.16,12.59,28.96,0,25.39-15.43,55.02-34.4,66.05-4.91,2.86-9.76,4.3-14.26,4.3ZM173.94,138.48c-3.83,0-8.03,1.26-12.33,3.77-17.92,10.42-32.5,38.57-32.5,62.75,0,12.39,3.89,21.74,10.67,25.64,5.44,3.13,12.51,2.49,19.9-1.81,17.92-10.43,32.5-38.57,32.5-62.75,0-12.39-3.89-21.74-10.67-25.64-2.27-1.31-4.83-1.96-7.57-1.96Z"/>
                    <g>
                        <path class="cls-3"
                              d="M147.34,172.95c-4.21,0-8.08-1.31-11.42-3.93l1.77-2.26c5.84,4.58,13.74,4.38,22.24-.56,8.8-5.12,17.07-14.61,23.29-26.71l2.55,1.31c-6.46,12.58-15.13,22.48-24.4,27.88-4.89,2.84-9.64,4.27-14.03,4.27Z"/>
                        <path class="cls-3"
                              d="M138.08,231.58l-2.55-1.31c6.46-12.58,15.13-22.48,24.4-27.87,9.58-5.57,18.62-5.69,25.45-.34l-1.77,2.26c-5.85-4.58-13.74-4.38-22.24.56-8.8,5.12-17.07,14.6-23.29,26.7Z"/>
                    </g>
                    <path class="cls-3"
                          d="M156.94,233.01c-1.33,0-2.63-.36-3.87-1.07-6.74-3.88-10.93-17.85-10.93-36.47,0-25.66,7.81-50.31,17.79-56.11,2.82-1.64,5.69-1.72,8.3-.22,6.74,3.88,10.93,17.85,10.93,36.47,0,25.66-7.81,50.31-17.79,56.11-1.48.86-2.97,1.29-4.43,1.29ZM164.34,140.94c-.95,0-1.94.3-2.97.9-8.87,5.16-16.36,29.72-16.36,53.63,0,19.7,4.77,31.26,9.49,33.98,1.71.99,3.49.92,5.43-.21,8.87-5.16,16.36-29.72,16.36-53.63,0-19.7-4.77-31.26-9.49-33.98-.8-.46-1.61-.69-2.45-.69Z"/>
                    <rect class="cls-3" x="159.21" y="140.6" width="2.87" height="89.88"/>
                    <rect class="cls-3" x="121.95" y="184.11" width="77.4" height="2.87"
                          transform="translate(-71.52 105.97) rotate(-30.2)"/>
                </g>
            </g>
        </g>
    </g>
    <g id="Cursor">
        <g id="Cursor-2" data-name="Cursor">
            <g>
                <path class="cls-3"
                      d="M394.73,122.17c-.33-.69-.75-1.13-1.19-1.39h0s0,0,0,0l-2.98-1.72h0c-1.3-.74-2.88,0-3.72.51l-1.86-1.07h0c-2.26-1.36-5.4,1.49-6.1,2.17l-.8-.46h0c-1.06-.64-2.51-.23-3.79.41v-10.84c0-1.19-.41-2.03-1.07-2.44h0s-.03-.02-.03-.02c-.02,0-.03-.02-.05-.03l-2.93-1.69s0,0,0,0h-.02s0-.01,0-.01c-.69-.38-1.64-.32-2.68.28-2.11,1.22-3.83,4.19-3.83,6.63v33.19c-.15-.07-.3-.14-.46-.21-2.61-1.84-5.36-2.94-7.78-2.51-2.31.41-4.38,2.38-4.98,3.44-1.27,2.23.82,3.63,3.51,6.71,2.67,3.05,5.02,6.72,7.44,8.98,2.43,2.26,4.19,2.85,4.19,2.85v4.34l2.95,1.71,22.48-12.98v-4.34s2.79-11.12,3.68-15.77c.89-4.65,1.71-12.17,0-15.74Z"/>
                <path class="cls-10"
                      d="M394.73,122.17c-.33-.69-.75-1.13-1.19-1.39h0s0,0,0,0l-2.98-1.72h0c-1.3-.74-2.88,0-3.72.51l-1.86-1.07h0c-2.26-1.36-5.4,1.49-6.1,2.17l-.8-.46h0c-1.06-.64-2.51-.23-3.79.41v-10.84c0-1.19-.41-2.03-1.07-2.44h0s-.03-.02-.03-.02c-.02,0-.03-.02-.05-.03l-2.93-1.69s0,0,0,0h-.02s0-.01,0-.01c-.69-.38-1.64-.32-2.68.28-2.11,1.22-3.83,4.19-3.83,6.63v33.19c-.15-.07-.3-.14-.46-.21-2.61-1.84-5.36-2.94-7.78-2.51-2.31.41-4.38,2.38-4.98,3.44-1.27,2.23.82,3.63,3.51,6.71,2.67,3.05,5.02,6.72,7.44,8.98,2.43,2.26,4.19,2.85,4.19,2.85v4.34l2.95,1.71,22.48-12.98v-4.34s2.79-11.12,3.68-15.77c.89-4.65,1.71-12.17,0-15.74Z"/>
            </g>
            <path class="cls-4"
                  d="M374.29,120.65v3.68h0c.12-.11,1.39-1.21,2.89-1.98l-2.89-1.69ZM387.87,119.05c-.4.16-.75.34-1.03.51l.95.56c.53.27,1.01.77,1.41,1.55,0,0,.73-.59,1.7-.95l-3.04-1.67ZM380.88,119.09c-.94.59-1.69,1.28-2,1.58l1.95,1.13s.08.03.11.06c.28.14.53.36.75.66h0c.09-.1.93-.96,2.07-1.69l-2.89-1.74ZM363.68,112.49v33.19c.99.48,1.98,1.1,2.96,1.82v-33.31l-2.96-1.71ZM374.28,120.65h.01s0-.03,0-.03v.03ZM364.38,163.8c-2.43-2.26-4.78-5.93-7.44-8.98-2.52-2.89-4.53-4.3-3.7-6.31l-2.96-1.71c-.82,2.01,1.17,3.42,3.7,6.32,2.67,3.04,5.01,6.71,7.44,8.98,2.43,2.26,4.19,2.85,4.19,2.85v4.34l2.96,1.71v-4.34s-1.76-.59-4.19-2.86Z"/>
            <path class="cls-16"
                  d="M374.29,120.65v3.68h0c.12-.11,1.39-1.21,2.89-1.98l-2.89-1.69ZM387.87,119.05c-.4.16-.75.34-1.03.51l.95.56c.53.27,1.01.77,1.41,1.55,0,0,.73-.59,1.7-.95l-3.04-1.67ZM380.88,119.09c-.94.59-1.69,1.28-2,1.58l1.95,1.13s.08.03.11.06c.28.14.53.36.75.66h0c.09-.1.93-.96,2.07-1.69l-2.89-1.74ZM363.68,112.49v33.19c.99.48,1.98,1.1,2.96,1.82v-33.31l-2.96-1.71ZM374.28,120.65h.01s0-.03,0-.03v.03ZM364.38,163.8c-2.43-2.26-4.78-5.93-7.44-8.98-2.52-2.89-4.53-4.3-3.7-6.31l-2.96-1.71c-.82,2.01,1.17,3.42,3.7,6.32,2.67,3.04,5.01,6.71,7.44,8.98,2.43,2.26,4.19,2.85,4.19,2.85v4.34l2.96,1.71v-4.34s-1.76-.59-4.19-2.86Z"/>
            <g>
                <path class="cls-3"
                      d="M368.57,171v-4.34s-1.76-.59-4.19-2.85c-2.43-2.26-4.78-5.94-7.44-8.98-2.69-3.08-4.78-4.48-3.51-6.71.6-1.06,2.67-3.03,4.98-3.44,2.57-.46,5.49.8,8.24,2.84v-33.31c0-2.44,1.71-5.41,3.83-6.63h0c2.11-1.22,3.83-.23,3.83,2.21v14.55s5.27-4.68,7.4-1.81c0,0,5.18-5.43,7.52-.84,0,0,3.8-3.07,5.52.49,1.71,3.56.89,11.09,0,15.74-.89,4.65-3.68,15.77-3.68,15.77v4.34l-22.48,12.98Z"/>
                <path class="cls-12"
                      d="M368.57,171v-4.34s-1.76-.59-4.19-2.85c-2.43-2.26-4.78-5.94-7.44-8.98-2.69-3.08-4.78-4.48-3.51-6.71.6-1.06,2.67-3.03,4.98-3.44,2.57-.46,5.49.8,8.24,2.84v-33.31c0-2.44,1.71-5.41,3.83-6.63h0c2.11-1.22,3.83-.23,3.83,2.21v14.55s5.27-4.68,7.4-1.81c0,0,5.18-5.43,7.52-.84,0,0,3.8-3.07,5.52.49,1.71,3.56.89,11.09,0,15.74-.89,4.65-3.68,15.77-3.68,15.77v4.34l-22.48,12.98Z"/>
            </g>
            <g class="cls-16">
                <path d="M374.29,130.57s.48-6.64,2.92-8.22c0,0-.04.01-.09.03-1.55.81-2.83,1.94-2.83,1.94v-.13c-.03.08,0,.13,0,.13v6.25Z"/>
                <path d="M381.69,122.52v6.07s.67-6.24,2.07-7.75c-1.19.76-2.07,1.67-2.07,1.68Z"/>
                <path d="M389.21,121.67h0v6.1s.37-6.14,1.69-7.05c-.96.36-1.69.95-1.69.95Z"/>
            </g>
        </g>
    </g>
    <g id="Character">
        <g id="Character-2" data-name="Character">
            <path id="Shadow" class="cls-14"
                  d="M318.66,296.08c-17.27,8.61-25.11,17.65-16.17,23.98,8.94,6.34,33.27,14.91,33.27,14.91l3.19,10.72,35.35-20.41v-12.14s-21.81-15.04-30.32-17.93c-8.52-2.9-15.19-4.19-25.31.86Z"/>
            <g id="Character-3" data-name="Character">
                <g>
                    <g>
                        <path class="cls-1"
                              d="M367.4,350.82s-5.34,13.08-5.61,18.24c-.28,5.38-1.58,7.16-.67,13.01.2,1.27.87,3.83,1.03,4.86.15.92-.2,1.66-1.38,1.91-2.33.48-6.21-3.9-8.05-8.67-1.84-4.77-4.46-15.53-4.62-16.82-.16-1.24.26-2.79.74-3.76.85-1.71,1.07-1.95,1.07-1.95.77-2.34,1.14-6.79,1.79-9.87l15.7,3.05Z"/>
                        <g>
                            <path class="cls-5"
                                  d="M343.53,368.25s-.59,1.07-.62,1.76c-.06,1.07,2.37,4.61,3.32,5.89.95,1.29,1.88,2.9,1.75,6.11-.14,3.43,1.38,6.74,3.59,9.57,2.22,2.83,6.07,5.93,11.73,7.68,5.67,1.74,7.66-1.1,7.66-1.1,0,0,1.76-2.73.7-3.85s-28.13-26.07-28.13-26.07Z"/>
                            <path class="cls-13"
                                  d="M349.91,357.64c-.17,0-.48-.06-.92.48-.17.2-1.2,2.75-2.06,4.09-.92,1.43-3.11,3.88-3.4,6.05,1.31,4.2,5.25,7.12,5.84,11.09.59,3.97.66,8.57,6.75,13.42,6.09,4.85,12.36,5.35,14.61,4.07,2.25-1.28,2.05-3.7-1.09-8.29-3.33-4.88-5.58-15.44-5.58-15.45-.31-1.46-.47-3.01-.59-4.49-.11-1.45.31-2.99.42-4.45.05-.69.08-1.43-.28-2.01-.36-.59-1.04-.89-1.68-1.16-1.02-.43-2.04-.87-3.13-1.06-1.09-.19-2.25-.13-3.23.39-.7.38-1.28.98-2.02,1.29-.99.41-2.21.19-2.99-.53-1.16-1.07-.99-2.03-.81-2.75-.02-.02.14-.67.14-.67Z"/>
                            <path class="cls-2"
                                  d="M352.57,388.87s2.36-4.8,8.83-4.78c6.47.02,8.71,3.32,9.69,5.25,1.17,2.31,2.39,6.49-.28,7.68-2.88,1.3-6.22.9-11.48-1.74-5.25-2.63-6.77-6.42-6.77-6.42Z"/>
                            <g>
                                <path class="cls-2"
                                      d="M353.74,369.38c.18.09.4.09.59,0,1-.51,6.29-1.62,9.37,1.24.4-.32.32-.91-.19-1.73-3.6-2.29-8.61-1.27-9.82-.65-.32.16-.43.55-.25.86.07.13.18.22.3.28Z"/>
                                <path class="cls-2"
                                      d="M364.37,374.39c.22-.57-.06-1.46-.37-1.78-3.56-1.93-8.21-.96-9.36-.38-.32.16-.43.55-.25.86.07.13.18.22.3.28.18.09.4.09.59,0,.97-.49,5.99-1.54,9.09,1.01Z"/>
                                <path class="cls-2"
                                      d="M367.01,383.13c.03-.79-.26-1.58-.83-2.34-3.59-2.16-8.48-1.16-9.67-.56-.32.16-.43.55-.25.86.07.13.18.22.3.28.18.09.4.09.59,0,1.06-.54,6.89-1.74,9.86,1.76Z"/>
                                <path class="cls-2"
                                      d="M355.62,377.38c.18.09.4.09.59,0,.99-.5,6.17-1.58,9.26,1.15.14-.6-.03-1.24-.54-1.92-3.56-1.93-8.21-.97-9.36-.38-.32.16-.43.55-.25.86.07.13.18.22.3.28Z"/>
                            </g>
                        </g>
                    </g>
                    <g>
                        <path class="cls-1"
                              d="M373.15,366.88s2.65,15.96,5.59,22.15c2.94,6.19,4.45,9.18,8.51,13.87.88,1.02,2.89,2.92,3.61,3.74.64.73.75,1.58-.17,2.46-1.8,1.72-9.44,2.13-13.73-1.08-4.28-3.21-8.18-10.05-10.74-12.63-.96-.97-1.86-1.96-2.72-3.02-.83-1.02-.6-1.98-.67-3.12-.04-.55.04-2.05.04-2.05-.59-2.69-2.17-6.9-3.01-9.52l13.29-10.8Z"/>
                        <g>
                            <path class="cls-5"
                                  d="M361.37,399.26s-.08,1.28.2,1.95c.43,1.04,4.3,3.3,5.77,4.1,1.47.79,3.07,1.9,4.39,5,1.4,3.31,4.31,5.76,7.68,7.45,3.36,1.69,8.39,2.91,14.53,2.02,6.14-.88,6.76-4.46,6.76-4.46,0,0,.44-3.37-1.06-3.96-1.5-.59-38.26-12.1-38.26-12.1Z"/>
                            <path class="cls-13"
                                  d="M362.66,386.37c-.17.07-.48.16-.66.87-.07.27.09,3.14-.12,4.79-.23,1.76-1.21,5.06-.51,7.24,3.12,3.39,8.15,4.39,10.48,7.88,2.33,3.49,4.45,7.81,12.38,9.68,7.93,1.87,14.09-.45,15.64-2.68,1.56-2.22.28-4.41-4.74-7.36-5.33-3.13-12.18-12.12-12.18-12.13-.95-1.24-1.79-2.63-2.56-3.99-.75-1.32-1.05-2.97-1.59-4.4-.26-.68-.56-1.39-1.17-1.78-.61-.39-1.38-.38-2.1-.35-1.15.05-2.32.09-3.44.39s-2.19.88-2.88,1.81c-.5.67-.77,1.5-1.33,2.12-.75.83-2,1.17-3.07.83-1.57-.5-1.84-1.48-1.99-2.24-.03-.01-.16-.69-.16-.69Z"/>
                            <path class="cls-2"
                                  d="M379.13,414.74s.09-5.6,6.22-8.46c6.13-2.87,9.72-.75,11.52.64,2.14,1.66,5.16,5.07,3.17,7.4-2.15,2.51-5.49,3.63-11.64,3.48-6.15-.15-9.27-3.05-9.27-3.05Z"/>
                            <g>
                                <path class="cls-2"
                                      d="M371.53,395.77c.21,0,.42-.09.56-.27.72-.93,5.23-4.34,9.42-3.01.23-.48-.1-1-.96-1.55-4.43-.56-8.71,2.65-9.58,3.77-.23.29-.16.71.15.93.12.09.27.13.41.13Z"/>
                                <path class="cls-2"
                                      d="M383.83,395.76c-.05-.64-.7-1.35-1.15-1.52-4.23-.24-8.2,2.75-9.03,3.83-.23.29-.16.71.15.93.12.09.27.13.41.13.21,0,.42-.09.56-.27.7-.9,4.98-4.13,9.06-3.1Z"/>
                                <path class="cls-2"
                                      d="M390.23,402.86c-.33-.76-.95-1.38-1.83-1.85-4.37-.44-8.55,2.69-9.4,3.79-.23.29-.16.71.15.93.12.09.27.13.41.13.21,0,.42-.09.56-.27.76-.98,5.74-4.72,10.11-2.74Z"/>
                                <path class="cls-2"
                                      d="M376.88,402.5c.21,0,.42-.09.56-.27.71-.92,5.13-4.25,9.28-3.05-.13-.63-.58-1.16-1.37-1.57-4.23-.24-8.2,2.75-9.03,3.83-.23.29-.16.71.15.93.12.09.27.13.41.13Z"/>
                            </g>
                        </g>
                    </g>
                    <g>
                        <path class="cls-3"
                              d="M337.94,276c6.54,4.8,29.33,17.95,38.58,26.51,2.67,2.47,3.55,5.73,2.9,12.83-.89,9.63-8.46,42.47-8.46,42.47-1.04,1.85-2.88-1.66-2.88-1.66l-36.11-45.84,5.97-34.31Z"/>
                        <path class="cls-7"
                              d="M337.94,276c6.54,4.8,29.33,17.95,38.58,26.51,2.67,2.47,3.55,5.73,2.9,12.83-.89,9.63-8.46,42.47-8.46,42.47-1.04,1.85-2.88-1.66-2.88-1.66l-36.11-45.84,5.97-34.31Z"/>
                        <path class="cls-7"
                              d="M369.39,347.59c-8.35-6.98-35.34-49.56-35.34-49.56,0,0,0,0,.01-.01,3.68-3.11,5.57-13.87,5.57-13.87,1.46,4.15-.08,10.42-1.21,12.71,2.13,1.84,14.13,11.71,22.47,18.32,2.09,1.66,4.23,3.7,4.95,7.47,1.72,9.03,3.75,23.13,3.55,24.95Z"/>
                    </g>
                    <g>
                        <path class="cls-3"
                              d="M337.94,276h0l-46.48,10.29c2.27,8.53,2.92,12.94,5.29,17.43,2.38,4.51,5.01,9.31,17.1,15.27,11.64,5.73,25.86,11.63,28.7,12.99,2.14,1.02,3.16,5.31,4.13,10.86,1.02,5.83,1.11,10.39,6.87,22.62,5.65,11.98,6.8,14.57,6.8,14.57,0,0,8.74.91,14.53-4.19,0,0-7.91-41.07-9.6-48.46-.94-4.13-.96-6.31-6.09-10.84-4.4-3.89-24.03-18.75-24.03-18.75,0,0,7.8-10.47,2.77-21.78Z"/>
                        <path class="cls-7"
                              d="M337.94,276h0l-46.48,10.29c2.27,8.53,2.92,12.94,5.29,17.43,2.38,4.51,5.01,9.31,17.1,15.27,11.64,5.73,25.86,11.63,28.7,12.99,2.14,1.02,3.16,5.31,4.13,10.86,1.02,5.83,1.11,10.39,6.87,22.62,5.65,11.98,6.8,14.57,6.8,14.57,0,0,8.74.91,14.53-4.19,0,0-7.91-41.07-9.6-48.46-.94-4.13-.96-6.31-6.09-10.84-4.4-3.89-24.03-18.75-24.03-18.75,0,0,7.8-10.47,2.77-21.78Z"/>
                    </g>
                </g>
                <g>
                    <path class="cls-1"
                          d="M391.36,198.79c-.78-.08-1.59.13-2.3.46-.85.4-1.6.98-2.36,1.54-1.16.85-2.34,1.66-3.56,2.43-1.08.68-2.22,1.44-3.5,1.66-.43.07-1.35.09-.88-.57.61-.85,1.3-1.66,1.76-2.61.46-.94.66-2.07.26-3.04-.12-.29-.31-.58-.6-.71-.41-.19-.61.03-.85.3-.25.28-.54.52-.82.77-.58.51-1.16,1.03-1.73,1.55-3.34,3.04-7.41,5.67-8.84,10.06-.21.64-1.15,3.53-1.18,8.35-.03,4.82-.32,21.59-.32,21.59,0,0-13.32-11.2-19.1-16.03-2.79-2.33-6.68-5.15-10.97-5.56-3.04-.29-4.81-.27-4.81-.27l9.08,22.02s17.18,12.78,25.41,17.18c7.43,3.97,11.05,1.11,11.95-.97,1.49-3.45,3.02-5.07.92-24.35-.15-1.49-.34-5.76-.5-7.25-.22-3.11.14-6.27,1.34-6.95,2.22-1.24,4.39-2.6,6.3-4.27,1.26-1.1,2.4-2.35,3.33-3.74.39-.58,1.07-1.44,1.14-2.15.07-.73-.24-1.49-.02-2.21.15-.49.48-.89.6-1.41.25-1.06.16-2.28.84-3.2.37-.51.99-.96.91-1.58-.07-.5-.58-.81-1.07-.93-.14-.03-.29-.06-.43-.07Z"/>
                    <path class="cls-15"
                          d="M377.78,207.15c-.37,2.6-2.23,5.85-3.47,6.94,0,0,2.08-1.18,2.95-2.99.96-1.99.85-3,.52-3.94Z"/>
                    <path class="cls-3"
                          d="M330.65,218.24c4.64.2,8.25.3,12.2,2.59,3.95,2.28,21.61,17.06,21.61,17.06,0,0,.17-7.52.63-11.49.31-2.75.77-3.61,1.63-3.47,0,0,1.53,2.35,5.87,2.67,4.34.33,5.8-1.48,5.8-1.48,0,0,1.26-.3,1.72,1.48.46,1.77,1.27,20.99.48,26.53-.79,5.54-3.27,8.11-6.6,8.89-3.33.78-11.04-3.88-20.29-10.11-9.26-6.23-19.31-12.03-19.31-12.03l-3.72-20.64Z"/>
                    <path class="cls-11"
                          d="M330.65,218.24c4.64.2,8.25.3,12.2,2.59,3.95,2.28,21.61,17.06,21.61,17.06,0,0,.17-7.52.63-11.49.31-2.75.77-3.61,1.63-3.47,0,0,1.53,2.35,5.87,2.67,4.34.33,5.8-1.48,5.8-1.48,0,0,1.26-.3,1.72,1.48.46,1.77,1.27,20.99.48,26.53-.79,5.54-3.27,8.11-6.6,8.89-3.33.78-11.04-3.88-20.29-10.11-9.26-6.23-19.31-12.03-19.31-12.03l-3.72-20.64Z"/>
                    <path class="cls-16"
                          d="M364.46,237.89c-.75,5.16.38,10.79.38,10.79,0,0-3.39-6.54-2.34-12.53l1.96,1.74Z"/>
                </g>
                <g>
                    <path class="cls-2"
                          d="M292.53,222.3c-.76,4.05-8.46,42.55.29,71.26,15.76,1.86,43.45-5.38,47.6-15.81,0,0-2.8-9.9-4.01-14.74.26-7.94,0-23.1-.16-27.79-.32-9.29-1.77-16.48-6.38-17.16,0,0-9.26-.37-14.86-.14-4.84.2-8.48.25-8.48.25l-14,4.13Z"/>
                    <path class="cls-6"
                          d="M315.69,283.5c-1.02-2.26-19.73-13.81-19.73-13.81,0,0,.28-5.35,1.4-15.2s1.44-21.65-2.11-27.58l-3.58.14c-2.02,11.94-6.14,42.61,1.15,66.52,8.4.99,20.2-.6,30.01-3.89-1.81-1.21-6.33-4.38-7.14-6.18Z"/>
                    <g>
                        <path class="cls-13"
                              d="M304.91,209.13c.03-1.99-3.79-7.94-5.52-12.65-2.89-7.87-3.14-14.94,3.99-18,0,0,4.46-7.69,15.7-8.07,11.24-.38,19.89,9.11,16.15,21.8l-30.33,16.93Z"/>
                        <g>
                            <g>
                                <path class="cls-1"
                                      d="M307.69,196.98c-1.47,0-2-2.11-3.01-3.24-1.01-1.13-4.48-2.4-6.72.83-2.08,3.01-.06,7.34,2.21,9.02,2.86,2.11,4.82.07,4.82.07l-.26,15.89s.51,3.52,7,5.57c7.5,2.36,13.6-1.58,9.13-6.53l.17-4.19c2.13.48,5.04.74,7.25.4,2.5-.38,4.5-2.26,5.79-6.12,2.51-7.53,1.81-17.56-.78-26.72-2.47,1.96-13.92,5.62-24.23,1.99.36,6.33.06,13.02-1.37,13.02Z"/>
                                <path class="cls-5"
                                      d="M303.62,201.88c0,.51-.42.93-.93.93s-.93-.42-.93-.93.42-.93.93-.93.93.42.93.93Z"/>
                                <path class="cls-15"
                                      d="M321.04,214.4s-6.26-1.83-8.72-3.56c-1.82-1.28-3.44-3.31-3.84-4.38,0,0,.94,3.35,2.64,5.29,2.99,3.39,9.84,4.96,9.84,4.96l.08-2.32Z"/>
                            </g>
                            <g>
                                <path class="cls-5"
                                      d="M320.53,196.89c.02.89-.67,1.63-1.53,1.64-.86.01-1.57-.7-1.59-1.59-.02-.89.67-1.63,1.53-1.64.86-.01,1.57.7,1.59,1.59Z"/>
                                <path class="cls-5"
                                      d="M318.83,191.58l-3.37,1.77c-.47-.97-.1-2.15.83-2.64.93-.49,2.07-.1,2.54.86Z"/>
                                <path class="cls-15"
                                      d="M320.04,205.07l5.35,1.71c-.53,1.5-2.15,2.33-3.63,1.86-1.48-.47-2.25-2.07-1.72-3.57Z"/>
                                <path class="cls-5"
                                      d="M333.24,191.51l-3.7-1.01c.24-1.04,1.27-1.66,2.29-1.38,1.02.28,1.65,1.35,1.41,2.39Z"/>
                                <path class="cls-5"
                                      d="M332.28,195.66c.02.89-.67,1.63-1.53,1.64-.86.01-1.57-.7-1.59-1.59-.02-.89.67-1.63,1.53-1.64.86-.01,1.57.7,1.59,1.59Z"/>
                            </g>
                        </g>
                        <path class="cls-8"
                              d="M334.01,181.97c3.46-2.46,5.38-5.76,4.46-10.29-1.35,1.35-5.13,1.6-8.44.02-3.53-1.68-9.12-3.97-16.96-2.45-6.11,1.18-9.69,5.83-9.69,9.24,1.19,2.44,2.84,3.75,5.68,5.47,0,0,5.86,4.79,14.74,4.24,5.71-.35,8.68-3.14,8.68-3.14,0,0-3.19.28-4.69-.71,0,0,3.63-.54,6.21-2.38Z"/>
                        <polygon class="cls-15" points="325.59 203.09 330.36 200.91 324.26 192.51 325.59 203.09"/>
                    </g>
                </g>
                <g id="Laptop-2" data-name="Laptop">
                    <path class="cls-14"
                          d="M377.97,304.22c-.41-.62-.89-1.18-1.45-1.7-5.56-5.14-16-11.94-24.87-17.59l-40.36,23.3c-.25.14-.25.5,0,.64l29.31,16.92,37.36-21.57Z"/>
                    <g>
                        <g>
                            <path class="cls-8"
                                  d="M390.21,292.37v.65c0,.96-.51,1.84-1.34,2.32l-46.92,27.09c-.41.24-.88.36-1.34.36s-.93-.12-1.35-.36l-25.58-14.72c-.82-.47-1.34-1.37-1.34-2.32v-.9h0c0,.13.05.23.17.3l28.09,16.22,49.6-28.64Z"/>
                            <path class="cls-5"
                                  d="M340.61,321.01v1.78c.46,0,.93-.12,1.34-.36l46.92-27.09c.83-.48,1.34-1.37,1.34-2.32v-.65l-49.6,28.64Z"/>
                            <path class="cls-13"
                                  d="M390.21,292.37l-27.82-16.06c-.49-.29-1.1-.29-1.6,0l-48.27,27.87c-.24.14-.24.48,0,.62l28.08,16.22,49.6-28.64Z"/>
                            <g>
                                <polygon class="cls-8"
                                         points="340.35 318.65 325.34 309.99 369.22 284.66 384.31 293.27 340.35 318.65"/>
                                <polygon class="cls-5"
                                         points="384.31 293.27 383.73 293.6 369.22 285.32 325.92 310.32 325.35 309.99 369.22 284.66 384.31 293.27"/>
                            </g>
                            <g>
                                <polygon class="cls-5"
                                         points="332.98 294.57 333.25 294.73 340.61 298.98 353.69 291.42 353.96 291.27 346.33 286.86 332.98 294.57"/>
                                <polygon class="cls-8"
                                         points="333.25 294.73 340.61 298.98 353.69 291.42 346.33 287.18 333.25 294.73"/>
                            </g>
                        </g>
                        <g id="Arm">
                            <path class="cls-1"
                                  d="M347.21,299.83c-2.1-2.09-5.16-4.98-7.72-5.83-.33-.11-.83-.34-1.8-.56.88-.17,1.77-.24,2.64-.53.86-.29,1.67-.76,2.23-1.48.22-.29.38-.75.1-.98-.1-.08-.23-.13-.37-.13-1.92-.06-3.44-.36-5.18-.48-.76-.05-1.62-.16-2.35.04-.72.19-1.43.4-2.13.65-3.19,1.1-6.09,2.1-10.61,1.04l-8.12-4.33s-1.73-.43-4.29,3.9c-2.56,4.33-1.06,6.71-1.06,6.71l9.12,3.15h0s.09.03.13.05c1,.38,1.91,1.16,4.31,1.9,2.84.87,6.48-.16,8.95-.29s6.66,1.01,8.95,1.94,5.04-2.6,6.19-2.17c1.15.42,3.14-.5,1.03-2.59Z"/>
                            <path class="cls-15"
                                  d="M336.62,292.08c-1.66-.17-3.5.57-3.5.57,0,0,2.05.04,4.56.79.88-.17,1.77-.24,2.64-.53.76-.25,1.48-.65,2.02-1.24-1.38.94-4.06.57-5.72.4Z"/>
                            <g>
                                <path class="cls-3"
                                      d="M292.53,222.3c2.31.91,5.32,10.55,3.47,19.82l-4.3,28.99s5.27,3.12,12.66,7.7c5.12,3.17,9.52,6.08,9.52,8.43-3.36,1.21-6.37,7.39-5.36,10.61-2.29,2.72-23.45-9.01-30.85-14.07-3.43-2.35-5.16-3.27-3.84-13.86,1.46-11.72,2.46-24.74,4.74-33.43,2.38-9.07,5.04-12.59,13.95-14.18Z"/>
                                <path class="cls-11"
                                      d="M292.53,222.3c2.31.91,5.32,10.55,3.47,19.82l-4.3,28.99s5.27,3.12,12.66,7.7c5.12,3.17,9.52,6.08,9.52,8.43-3.36,1.21-6.37,7.39-5.36,10.61-2.29,2.72-23.45-9.01-30.85-14.07-3.43-2.35-5.16-3.27-3.84-13.86,1.46-11.72,2.46-24.74,4.74-33.43,2.38-9.07,5.04-12.59,13.95-14.18Z"/>
                            </g>
                        </g>
                        <g>
                            <path class="cls-8"
                                  d="M341.36,321.4c.89.34,1.9.28,2.74-.21l46.72-26.97c.82-.47,1.39-1.29,1.55-2.22l5.11-30.5c.03-.17.04-.35.04-.52,0-.85-.34-1.66-.94-2.26l-48.55,28.03c-.61.35-1.02.95-1.14,1.64l-5.53,33.01Z"/>
                            <path class="cls-13"
                                  d="M340.61,321.01l.32.18c.14.08.29.15.44.21l5.53-33.01c.12-.69.54-1.29,1.14-1.64l48.55-28.03c-.19-.19-.41-.35-.65-.49l-48.65,28.08c-.61.35-1.02.95-1.14,1.64l-5.54,33.05Z"/>
                            <path class="cls-5"
                                  d="M347.34,287.38l-.75-.43c-.22.3-.38.64-.45,1.01l-5.54,33.05.32.18c.14.08.29.15.44.21l5.53-33.01c.06-.38.23-.72.45-1.02Z"/>
                            <path class="cls-3"
                                  d="M367.67,293.25c.34-2.04,2.45-4.75,4.71-6.06,2.26-1.3,3.81-.7,3.47,1.34-.34,2.04-2.45,4.75-4.71,6.06-2.26,1.3-3.81.71-3.47-1.34Z"/>
                        </g>
                    </g>
                </g>
            </g>
        </g>
    </g>
</svg>