<svg xmlns="http://www.w3.org/2000/svg" width="40" height="40" viewBox="0 0 200 200">
    <defs>
        <linearGradient id="grad1" x1="0" x2="1" y1="0" y2="1">
            <stop offset="0" stop-color="#f0f" />
            <stop offset="0.3" stop-color="#b02de9" />
            <stop offset="0.6" stop-color="#8626d5" />
            <stop offset="1" stop-color="#6021c3" />
        </linearGradient>
    </defs>
    <path
            fill="url(#grad1)"
            d="M56.66 45.99.5 157.74a4.676 4.676 0 0 0 2.08 6.28l30.27 15.21c2.31 1.16 5.12.23 6.28-2.08L95.29 65.4c1.16-2.31.23-5.12-2.08-6.28L62.94 43.91c-1.71-.85-3.74-.17-4.96 1.08zM103.9 46.39 79.87 168.2a4.675 4.675 0 0 0 3.67 5.49l33.21 6.7c2.54.51 5.02-1.14 5.52-3.68L146.3 54.9c.5-2.53-1.14-4.98-3.67-5.49l-33.21-6.7c-2.69-.54-5.09 1.23-5.52 3.68M156.04 44.34h33.88c2.58 0 4.68 2.1 4.68 4.68v125.07c0 2.58-2.1 4.68-4.68 4.68h-33.88c-2.58 0-4.68-2.1-4.68-4.68V49.02c0-2.58 2.1-4.68 4.68-4.68"
    />
</svg>
