<svg xmlns="http://www.w3.org/2000/svg" xmlns:xlink="http://www.w3.org/1999/xlink" width="80" height="80" viewBox="0 0 80 80" version="1.1">
    <!-- Generator: Sketch 55.2 (78181) - https://sketchapp.com -->
    <title>Gauge</title>
    <desc>Created with Sketch.</desc>
    <g id="Page-1" stroke="none" stroke-width="1" fill="none" fill-rule="evenodd">
        <g id="Gauge" transform="translate(3.000000, 3.000000)">
            <circle id="Oval" fill="#FFFFFF" cx="37" cy="37" r="37"></circle>
            <circle id="Oval" stroke="#5E72E4" stroke-width="6" cx="37" cy="37" r="37"></circle>
            <path d="M16,66 L58,66 C53.4006466,62.7150964 49.9511315,60.6282001 47.6514548,59.7393112 C45.351778,58.8504224 41.902263,58.2706519 37.3029095,58 C32.5691578,58.2706305 29.0187584,58.8504009 26.6517114,59.7393112 C24.2846644,60.6282216 20.734094,62.7151178 16,66 Z" id="Path" stroke="#5E72E4" fill="#5E72E4"></path>
            <path d="M16,74 L58,74 C53.4006466,70.7150964 49.9511315,68.6282001 47.6514548,67.7393112 C45.351778,66.8504224 41.902263,66.2706519 37.3029095,66 C32.5691578,66.2706305 29.0187584,66.8504009 26.6517114,67.7393112 C24.2846644,68.6282216 20.734094,70.7151178 16,74 Z" id="Path" stroke="#5E72E4" fill="#5E72E4" transform="translate(37.000000, 70.000000) scale(1, -1) translate(-37.000000, -70.000000) "></path>
            <circle id="Oval" fill="#5E72E4" cx="37.5" cy="37.5" r="7.5"></circle>
            <polygon id="Path-2" stroke="#5E72E4" stroke-width="3" fill="#5E72E4" stroke-linejoin="round" points="35 32.3550502 53 21 43.1310341 40"></polygon>
            <path d="M37.5,10 L37.5,14" id="Path-3" stroke="#5E72E4" stroke-width="5" stroke-linecap="round"></path>
            <path d="M20,18 L20,22.1002782" id="Path-3" stroke="#5E72E4" stroke-width="5" stroke-linecap="round" transform="translate(20.000000, 20.050139) rotate(-44.000000) translate(-20.000000, -20.050139) "></path>
            <path d="M11.5,35 L11.5,39" id="Path-3" stroke="#5E72E4" stroke-width="5" stroke-linecap="round" transform="translate(11.500000, 37.000000) rotate(-90.000000) translate(-11.500000, -37.000000) "></path>
            <path d="M62.5,35 L62.5,39" id="Path-3" stroke="#5E72E4" stroke-width="5" stroke-linecap="round" transform="translate(62.500000, 37.000000) rotate(-90.000000) translate(-62.500000, -37.000000) "></path>
        </g>
    </g>
</svg>