<svg xmlns:xlink="http://www.w3.org/1999/xlink" xmlns="http://www.w3.org/2000/svg" width="174" height="48" viewBox="0 0 174 48" fill="none">
    <g clip-path="url(#clip0_3509_689)">
        <path d="M47.9999 0H0V48H47.9999V0Z" fill="#6E30F7"></path>
        <g clip-path="url(#clip1_3509_689)">
            <path d="M27.0974 19.1951V35.4573C27.0974 35.7561 26.857 36 26.5626 36H10.5349C10.2404 36 10.0001 35.7561 10.0001 35.4573V27.8659C10.0001 27.5671 10.2404 27.3232 10.5349 27.3232H17.9448C18.2753 27.3232 18.5457 27.0488 18.5457 26.7134V19.1951C18.5457 18.8963 18.7861 18.6524 19.0806 18.6524H26.5626C26.857 18.6524 27.0974 18.8963 27.0974 19.1951Z" fill="white"></path>
            <path d="M38.8462 11.6098V27.7317C38.8462 28.0671 38.5758 28.3415 38.2452 28.3415H30.9015C30.571 28.3415 30.3005 28.0671 30.3005 27.7317V11.6098C30.3005 11.2683 30.571 11 30.9015 11H38.2452C38.5758 11 38.8462 11.2683 38.8462 11.6098Z" fill="white"></path>
        </g>
    </g>
    <path d="M68.1599 38.5L61.0399 9.9H66.4799L71.4399 30.9L76.9999 9.9H81.3999L87.0799 31.02L92.1999 9.9H97.1599L89.9999 38.5H84.6799L79.0399 17.66L73.2399 38.5H68.1599ZM102.372 14.14C100.772 14.14 99.4924 12.94 99.4924 11.38C99.4924 9.78 100.772 8.58 102.372 8.58C103.972 8.58 105.252 9.78 105.252 11.38C105.252 12.94 103.972 14.14 102.372 14.14ZM100.012 38.5V17.58H104.852V38.5H100.012ZM107.752 38.5V37.94L118.832 21.42H108.832V17.58H125.992V18.26L114.952 34.62H125.672V38.5H107.752ZM137.844 38.9C131.684 38.9 127.244 34.86 127.244 28.26V27.94C127.244 21.46 131.684 17.14 137.644 17.14C142.844 17.14 147.524 20.22 147.524 27.7V29.1H132.204C132.364 33.06 134.364 35.3 137.964 35.3C140.884 35.3 142.404 34.14 142.764 32.1H147.444C146.764 36.5 143.204 38.9 137.844 38.9ZM132.284 25.86H142.724C142.484 22.26 140.644 20.66 137.644 20.66C134.724 20.66 132.764 22.62 132.284 25.86ZM158.887 38.9C153.647 38.9 149.687 35.18 149.687 28.38V28.06C149.687 21.38 153.647 17.14 159.087 17.14C162.487 17.14 164.607 18.7 165.767 20.78V7.9H170.607V38.5H165.767V34.98C164.647 37.06 161.967 38.9 158.887 38.9ZM160.087 35.06C163.447 35.06 165.927 32.82 165.927 28.14V27.82C165.927 23.22 163.807 20.94 160.287 20.94C156.727 20.94 154.647 23.42 154.647 27.94V28.26C154.647 32.86 156.967 35.06 160.087 35.06Z" fill="black"></path>
    <defs>
        <clipPath id="clip0_3509_689">
            <rect width="47.9999" height="48" rx="4" fill="black"></rect>
        </clipPath>
        <clipPath id="clip1_3509_689">
            <rect width="28.8462" height="25" fill="black" transform="translate(10 11)"></rect>
        </clipPath>
    </defs>
</svg>