<svg xmlns:xlink="http://www.w3.org/1999/xlink" xmlns="http://www.w3.org/2000/svg" width="1056" height="250" viewBox="0 0 956 190" fill="none">
    <path d="M904.653 133.436V56.3141H917.999V106.846L912.905 105.318L938.986 78.0142H955.592L935.115 100.325L956 133.436H940.718L922.584 104.706L930.53 103.076L913.822 121.007L917.999 112.857V133.436H904.653Z" fill="black"></path>
    <path d="M871.767 134.658C866.265 134.658 861.307 133.402 856.893 130.889C852.546 128.308 849.116 124.844 846.603 120.497C844.09 116.083 842.833 111.124 842.833 105.623C842.833 100.122 844.09 95.1975 846.603 90.8507C849.116 86.5039 852.546 83.074 856.893 80.561C861.307 78.048 866.265 76.7915 871.767 76.7915C875.706 76.7915 879.374 77.5046 882.77 78.9309C886.166 80.2893 889.086 82.191 891.531 84.6361C894.044 87.0133 895.844 89.8658 896.931 93.1939L885.215 98.2878C884.196 95.5031 882.464 93.2618 880.019 91.5638C877.642 89.8659 874.891 89.0169 871.767 89.0169C868.846 89.0169 866.231 89.73 863.922 91.1563C861.681 92.5826 859.915 94.5522 858.625 97.0652C857.334 99.5782 856.689 102.465 856.689 105.725C856.689 108.985 857.334 111.872 858.625 114.385C859.915 116.898 861.681 118.867 863.922 120.293C866.231 121.72 868.846 122.433 871.767 122.433C874.959 122.433 877.744 121.584 880.121 119.886C882.498 118.188 884.196 115.913 885.215 113.06L896.931 118.358C895.844 121.482 894.078 124.301 891.633 126.814C889.188 129.259 886.268 131.194 882.872 132.621C879.476 133.979 875.774 134.658 871.767 134.658Z" fill="black"></path>
    <path d="M805.992 134.658C802.121 134.658 798.759 134.013 795.906 132.723C793.054 131.432 790.847 129.598 789.284 127.221C787.722 124.776 786.941 121.957 786.941 118.765C786.941 115.709 787.62 112.992 788.979 110.615C790.337 108.17 792.443 106.132 795.295 104.502C798.148 102.872 801.748 101.718 806.094 101.038L824.229 98.084V108.272L808.641 110.921C805.992 111.396 804.023 112.245 802.732 113.468C801.442 114.69 800.797 116.286 800.797 118.256C800.797 120.158 801.51 121.686 802.936 122.84C804.43 123.927 806.264 124.47 808.437 124.47C811.222 124.47 813.667 123.893 815.773 122.739C817.946 121.516 819.61 119.852 820.765 117.747C821.987 115.641 822.599 113.332 822.599 110.819V96.5559C822.599 94.1787 821.648 92.209 819.746 90.6469C817.912 89.0169 815.467 88.2018 812.411 88.2018C809.558 88.2018 807.011 88.9829 804.77 90.545C802.596 92.0393 801 94.0429 799.982 96.5559L789.081 91.2582C790.167 88.3377 791.865 85.8247 794.175 83.7192C796.552 81.5458 799.336 79.8478 802.529 78.6253C805.721 77.4027 809.185 76.7915 812.92 76.7915C817.471 76.7915 821.478 77.6405 824.942 79.3384C828.406 80.9685 831.088 83.2777 832.99 86.2662C834.96 89.1867 835.945 92.6166 835.945 96.5559V133.436H823.312V123.961L826.164 123.757C824.738 126.135 823.04 128.138 821.07 129.768C819.101 131.33 816.859 132.553 814.346 133.436C811.833 134.251 809.049 134.658 805.992 134.658Z" fill="black"></path>
    <path d="M772.563 134.047C766.314 134.047 761.458 132.349 757.994 128.953C754.598 125.489 752.9 120.633 752.9 114.385V89.9339H743.324V78.0142H744.342C747.059 78.0142 749.165 77.301 750.659 75.8747C752.153 74.4485 752.9 72.3769 752.9 69.6602V65.3813H766.246V78.0142H778.981V89.9339H766.246V113.672C766.246 115.505 766.552 117.068 767.163 118.358C767.842 119.648 768.861 120.633 770.219 121.312C771.646 121.992 773.446 122.331 775.619 122.331C776.094 122.331 776.638 122.297 777.249 122.229C777.928 122.161 778.573 122.094 779.185 122.026V133.436C778.234 133.572 777.147 133.708 775.925 133.843C774.702 133.979 773.581 134.047 772.563 134.047Z" fill="black"></path>
    <path d="M717.656 134.658C711.747 134.658 706.586 133.266 702.171 130.481C697.824 127.629 694.836 123.791 693.206 118.969L703.19 114.181C704.616 117.305 706.586 119.75 709.099 121.516C711.679 123.282 714.532 124.165 717.656 124.165C720.101 124.165 722.037 123.622 723.463 122.535C724.89 121.448 725.603 120.022 725.603 118.256C725.603 117.169 725.297 116.286 724.686 115.607C724.143 114.86 723.362 114.249 722.343 113.773C721.392 113.23 720.339 112.788 719.185 112.449L710.117 109.902C705.431 108.544 701.865 106.472 699.42 103.687C697.043 100.903 695.854 97.6086 695.854 93.8051C695.854 90.4092 696.703 87.4547 698.401 84.9417C700.167 82.3608 702.578 80.3572 705.635 78.9309C708.759 77.5046 712.325 76.7915 716.332 76.7915C721.562 76.7915 726.18 78.048 730.187 80.561C734.195 83.074 737.047 86.6057 738.745 91.1563L728.557 95.9446C727.606 93.4316 726.01 91.428 723.769 89.9338C721.528 88.4396 719.015 87.6924 716.23 87.6924C713.989 87.6924 712.223 88.2018 710.932 89.2206C709.642 90.2394 708.997 91.5638 708.997 93.1939C708.997 94.2127 709.268 95.0956 709.812 95.8427C710.355 96.5898 711.102 97.2011 712.053 97.6765C713.072 98.1519 714.226 98.5934 715.517 99.0009L724.38 101.65C728.931 103.008 732.429 105.046 734.874 107.762C737.387 110.479 738.643 113.807 738.643 117.747C738.643 121.075 737.76 124.029 735.994 126.61C734.229 129.123 731.783 131.093 728.659 132.519C725.535 133.945 721.867 134.658 717.656 134.658Z" fill="black"></path>
    <path d="M660.065 133.436V78.0142H672.596V90.3414L671.577 88.5076C672.868 84.3646 674.872 81.478 677.588 79.848C680.373 78.2179 683.701 77.4029 687.572 77.4029H690.832V89.2208H686.044C682.241 89.2208 679.184 90.4094 676.875 92.7865C674.566 95.0958 673.411 98.3559 673.411 102.567V133.436H660.065Z" fill="black"></path>
    <path d="M625.572 134.658C619.867 134.658 614.875 133.368 610.596 130.787C606.317 128.206 602.989 124.708 600.612 120.293C598.235 115.879 597.046 110.989 597.046 105.623C597.046 100.054 598.235 95.1296 600.612 90.8507C603.057 86.5039 606.351 83.074 610.494 80.561C614.705 78.048 619.391 76.7915 624.553 76.7915C628.9 76.7915 632.703 77.5046 635.964 78.9309C639.292 80.3572 642.11 82.3269 644.419 84.8399C646.729 87.3529 648.495 90.2394 649.717 93.4995C650.94 96.6917 651.551 100.156 651.551 103.891C651.551 104.842 651.483 105.827 651.347 106.846C651.279 107.864 651.109 108.747 650.838 109.494H608.049V99.3066H643.299L636.982 104.095C637.594 100.971 637.424 98.1859 636.473 95.7408C635.59 93.2958 634.096 91.3601 631.99 89.9338C629.953 88.5075 627.474 87.7943 624.553 87.7943C621.768 87.7943 619.289 88.5075 617.116 89.9338C614.943 91.2921 613.279 93.3297 612.124 96.0465C611.037 98.6953 610.63 101.921 610.901 105.725C610.63 109.121 611.071 112.143 612.226 114.792C613.448 117.373 615.214 119.377 617.524 120.803C619.901 122.229 622.617 122.942 625.674 122.942C628.73 122.942 631.311 122.297 633.417 121.007C635.59 119.716 637.288 117.984 638.51 115.811L649.31 121.109C648.223 123.757 646.525 126.101 644.216 128.138C641.906 130.176 639.156 131.772 635.964 132.926C632.839 134.081 629.375 134.658 625.572 134.658Z" fill="black"></path>
    <path d="M563.499 134.658C559.492 134.658 555.791 133.877 552.395 132.315C549.067 130.685 546.418 128.376 544.448 125.388L545.773 122.739V133.436H533.242V56.3141H546.588V89.017L544.55 86.2663C546.452 83.2779 549.033 80.9686 552.293 79.3386C555.553 77.6406 559.322 76.7916 563.601 76.7916C568.831 76.7916 573.551 78.0821 577.762 80.663C581.973 83.2439 585.301 86.7078 587.746 91.0546C590.259 95.4014 591.516 100.292 591.516 105.725C591.516 111.091 590.293 115.981 587.848 120.396C585.403 124.81 582.075 128.308 577.864 130.889C573.653 133.402 568.865 134.658 563.499 134.658ZM561.971 122.433C565.028 122.433 567.744 121.72 570.122 120.294C572.499 118.867 574.332 116.898 575.623 114.385C576.981 111.872 577.661 108.985 577.661 105.725C577.661 102.465 576.981 99.6123 575.623 97.1673C574.332 94.6543 572.499 92.6846 570.122 91.2583C567.744 89.7641 565.028 89.017 561.971 89.017C559.051 89.017 556.402 89.7302 554.025 91.1565C551.716 92.5827 549.882 94.5864 548.523 97.1673C547.233 99.6803 546.588 102.533 546.588 105.725C546.588 108.985 547.233 111.872 548.523 114.385C549.882 116.898 551.716 118.867 554.025 120.294C556.402 121.72 559.051 122.433 561.971 122.433Z" fill="black"></path>
    <path d="M439.925 133.436V78.014H452.456V90.8507L451.03 88.7112C452.048 84.704 454.086 81.7156 457.142 79.7459C460.199 77.7763 463.798 76.7915 467.941 76.7915C472.492 76.7915 476.499 77.98 479.963 80.3572C483.427 82.7344 485.668 85.8586 486.687 89.73L482.917 90.0356C484.615 85.6209 487.162 82.3269 490.558 80.1535C493.954 77.9121 497.86 76.7915 502.274 76.7915C506.214 76.7915 509.711 77.6744 512.768 79.4403C515.892 81.2062 518.337 83.6852 520.103 86.8774C521.869 90.0017 522.752 93.6353 522.752 97.7784V133.436H509.406V100.937C509.406 98.4915 508.964 96.3861 508.081 94.6202C507.198 92.8543 505.976 91.4959 504.414 90.545C502.852 89.5263 500.95 89.0169 498.709 89.0169C496.603 89.0169 494.735 89.5263 493.105 90.545C491.475 91.4959 490.219 92.8543 489.336 94.6202C488.453 96.3861 488.011 98.4915 488.011 100.937V133.436H474.665V100.937C474.665 98.4915 474.224 96.3861 473.341 94.6202C472.458 92.8543 471.201 91.4959 469.571 90.545C468.009 89.5263 466.141 89.0169 463.968 89.0169C461.863 89.0169 459.995 89.5263 458.365 90.545C456.735 91.4959 455.478 92.8543 454.595 94.6202C453.712 96.3861 453.271 98.4915 453.271 100.937V133.436H439.925Z" fill="black"></path>
    <path d="M406.233 134.658C400.528 134.658 395.536 133.368 391.257 130.787C386.978 128.206 383.65 124.708 381.273 120.293C378.895 115.879 377.707 110.989 377.707 105.623C377.707 100.054 378.895 95.1296 381.273 90.8507C383.718 86.5039 387.012 83.074 391.155 80.561C395.366 78.048 400.052 76.7915 405.214 76.7915C409.561 76.7915 413.364 77.5046 416.624 78.9309C419.952 80.3572 422.771 82.3269 425.08 84.8399C427.39 87.3529 429.155 90.2394 430.378 93.4995C431.601 96.6917 432.212 100.156 432.212 103.891C432.212 104.842 432.144 105.827 432.008 106.846C431.94 107.864 431.77 108.747 431.499 109.494H388.71V99.3066H423.96L417.643 104.095C418.254 100.971 418.085 98.1859 417.134 95.7408C416.251 93.2958 414.757 91.3601 412.651 89.9338C410.614 88.5075 408.135 87.7943 405.214 87.7943C402.429 87.7943 399.95 88.5075 397.777 89.9338C395.604 91.2921 393.94 93.3297 392.785 96.0465C391.698 98.6953 391.291 101.921 391.562 105.725C391.291 109.121 391.732 112.143 392.887 114.792C394.109 117.373 395.875 119.377 398.184 120.803C400.562 122.229 403.278 122.942 406.335 122.942C409.391 122.942 411.972 122.297 414.077 121.007C416.251 119.716 417.949 117.984 419.171 115.811L429.97 121.109C428.884 123.757 427.186 126.101 424.877 128.138C422.567 130.176 419.817 131.772 416.624 132.926C413.5 134.081 410.036 134.658 406.233 134.658Z" fill="black"></path>
    <path d="M293.34 133.436V57.5364H306.584L335.008 96.1483H328.691L356.504 57.5364H369.748V133.436H355.791V73.3276L361.191 74.652L332.359 113.06H330.729L302.611 74.652L307.195 73.3276V133.436H293.34Z" fill="black"></path>
    <path fill-rule="evenodd" clip-rule="evenodd" d="M120.475 91.1267L120.451 91.0729L103.762 53.9559C100.766 47.292 94.1516 43.3426 87.2299 43.3666C80.1938 43.3423 73.4953 47.426 70.5737 54.2416L52.5008 96.4027L52.2759 96.9274L47.4736 108.131L44.5413 114.971L38.9203 128.084C35.0321 137.155 39.3057 147.629 48.4658 151.479C57.6258 155.329 68.2035 151.098 72.0915 142.027L75.9249 133.084L84.1192 113.968L84.3304 113.476L87.5234 106.027L87.6235 105.794L87.6861 105.933L91.0775 113.476L103.792 141.754C105.467 145.48 108.274 148.358 111.633 150.166C112.433 150.663 113.282 151.103 114.178 151.479C123.338 155.329 133.916 151.098 137.804 142.027L146.21 122.417L149.374 115.036L153.336 105.794L153.404 105.944L157.074 114.108L169.504 141.754C173.552 150.756 184.203 154.804 193.293 150.797C202.384 146.789 206.473 136.242 202.425 127.24L188.73 96.7806L188.714 96.7432L184.591 87.5766L182.423 82.7554L169.474 53.9559C166.479 47.292 159.864 43.3426 152.942 43.3666C145.906 43.3423 139.208 47.426 136.286 54.2416L124.398 81.9743L120.475 91.1267Z" fill="white"></path>
    <mask id="mask0_33_38" style="mask-type:luminance" maskUnits="userSpaceOnUse" x="0" y="7" width="241" height="183">
        <path d="M240.785 7.0744H0.686035V189.359H240.785V7.0744Z" fill="white"></path>
        <path fill-rule="evenodd" clip-rule="evenodd" d="M120.475 91.1267L120.451 91.0729L103.762 53.9559C100.766 47.292 94.1516 43.3426 87.2299 43.3666C80.1938 43.3423 73.4953 47.426 70.5737 54.2416L52.5008 96.4027L52.2759 96.9274L47.4736 108.131L44.5413 114.971L38.9203 128.084C35.0321 137.155 39.3057 147.629 48.4658 151.479C57.6258 155.329 68.2035 151.098 72.0915 142.027L75.9249 133.084L84.1192 113.968L84.3304 113.476L87.5234 106.027L87.6235 105.794L87.6861 105.933L91.0775 113.476L103.792 141.754C105.467 145.48 108.274 148.358 111.633 150.166C112.433 150.663 113.282 151.103 114.178 151.479C123.338 155.329 133.916 151.098 137.804 142.027L146.21 122.417L149.374 115.036L153.336 105.794L153.404 105.944L157.074 114.108L169.504 141.754C173.552 150.756 184.203 154.804 193.293 150.797C202.384 146.789 206.473 136.242 202.425 127.24L188.73 96.7806L188.714 96.7432L184.591 87.5766L182.423 82.7554L169.474 53.9559C166.479 47.292 159.864 43.3426 152.942 43.3666C145.906 43.3423 139.208 47.426 136.286 54.2416L124.398 81.9743L120.475 91.1267Z" fill="black"></path>
    </mask>
    <g mask="url(#mask0_33_38)">
        <path d="M120.451 91.0729L86.99 105.841L86.9902 105.841L120.451 91.0729ZM120.475 91.1266L87.0143 105.895L121.277 182.097L154.191 105.313L120.475 91.1266ZM87.2299 43.3666L87.1024 79.6582L87.2298 79.6587L87.3573 79.6582L87.2299 43.3666ZM70.5737 54.2416L104.29 68.4283V68.4282L70.5737 54.2416ZM52.5009 96.4027L18.7847 82.216L18.7839 82.2178L18.783 82.2198L52.5009 96.4027ZM52.2759 96.9274L85.9921 111.114L85.993 111.112L85.9938 111.11L52.2759 96.9274ZM47.4736 108.131L81.1897 122.318L81.1898 122.317L47.4736 108.131ZM44.5413 114.971L10.8252 100.784L10.825 100.785L44.5413 114.971ZM38.9203 128.084L72.6365 142.271L72.6367 142.271L38.9203 128.084ZM75.925 133.084L42.2088 118.898L42.2086 118.898L75.925 133.084ZM84.3304 113.476L118.046 127.663L118.047 127.662L84.3304 113.476ZM87.5235 106.027L53.8109 91.8314L53.8089 91.836L53.8071 91.8404L87.5235 106.027ZM87.6236 105.794L121.081 91.0176L86.8228 14.8759L53.911 91.5983L87.6236 105.794ZM87.6862 105.933L121.147 91.1653L121.145 91.1611L121.143 91.1568L87.6862 105.933ZM91.0775 113.476L57.6164 128.243L57.6166 128.244L91.0775 113.476ZM111.633 150.166L131.072 119.406L130.116 118.813L129.125 118.279L111.633 150.166ZM114.178 151.479L99.8717 184.889H99.8719L114.178 151.479ZM153.336 105.794L186.797 91.026L152.535 14.8221L119.62 91.6069L153.336 105.794ZM188.731 96.7806L155.254 111.515L155.261 111.532L155.269 111.548L188.731 96.7806ZM188.714 96.7432L222.189 82.0084L222.181 81.9919L222.175 81.9753L188.714 96.7432ZM152.943 43.3666L152.815 79.6582L152.943 79.6587L153.07 79.6582L152.943 43.3666ZM86.9902 105.841L87.0143 105.895L153.936 76.3586L153.912 76.3048L86.9902 105.841ZM70.3015 68.7236L86.99 105.841L153.912 76.3052L137.224 39.1882L70.3015 68.7236ZM87.3573 79.6582C80.3027 79.6826 73.4244 75.6696 70.3015 68.7236L137.224 39.1882C128.108 18.9145 108.001 7.00264 87.1024 7.07473L87.3573 79.6582ZM104.29 68.4282C101.245 75.5326 94.2814 79.683 87.1024 79.6582L87.3573 7.07473C66.1063 7.00148 45.7462 19.3193 36.8575 40.0549L104.29 68.4282ZM86.2171 110.589L104.29 68.4283L36.8575 40.0549L18.7847 82.216L86.2171 110.589ZM85.9938 111.11L86.2188 110.585L18.783 82.2198L18.5582 82.7447L85.9938 111.11ZM81.1898 122.317L85.9921 111.114L18.5597 82.7409L13.7574 93.9441L81.1898 122.317ZM78.2574 129.158L81.1897 122.318L13.7576 93.9437L10.8252 100.784L78.2574 129.158ZM72.6367 142.271L78.2575 129.158L10.825 100.785L5.20411 113.898L72.6367 142.271ZM62.7723 118.07C72.2298 122.045 76.6636 132.876 72.6365 142.271L5.20411 113.898C-6.59923 141.433 6.38196 173.213 34.1593 184.889L62.7723 118.07ZM38.3754 127.84C42.3983 118.456 53.3248 114.098 62.7723 118.07L34.1593 184.889C61.9268 196.56 94.0087 183.739 105.808 156.213L38.3754 127.84ZM42.2086 118.898L38.3754 127.841L105.808 156.213L109.641 147.271L42.2086 118.898ZM50.4031 99.7816L42.2088 118.898L109.641 147.271L117.836 128.155L50.4031 99.7816ZM50.6142 99.2892L50.4031 99.7816L117.836 128.155L118.046 127.663L50.6142 99.2892ZM53.8071 91.8404L50.6141 99.2895L118.047 127.662L121.24 120.213L53.8071 91.8404ZM53.911 91.5983L53.8109 91.8314L121.236 120.222L121.336 119.989L53.911 91.5983ZM121.143 91.1568L121.081 91.0176L54.1661 120.57L54.2289 120.709L121.143 91.1568ZM124.539 98.7084L121.147 91.1653L54.225 120.7L57.6164 128.243L124.539 98.7084ZM137.253 126.986L124.539 98.7082L57.6166 128.244L70.331 156.522L137.253 126.986ZM129.125 118.279C132.594 120.147 135.536 123.168 137.253 126.986L70.331 156.522C75.3987 167.793 83.9546 176.568 94.142 182.053L129.125 118.279ZM128.485 118.07C129.374 118.443 130.24 118.89 131.072 119.406L92.1943 180.926C94.6254 182.434 97.1905 183.762 99.8717 184.889L128.485 118.07ZM104.088 127.84C108.111 118.456 119.038 114.098 128.485 118.07L99.8719 184.889C127.639 196.56 159.721 183.739 171.521 156.213L104.088 127.84ZM112.494 108.23L104.088 127.84L171.521 156.213L179.927 136.603L112.494 108.23ZM115.658 100.85L112.494 108.23L179.927 136.603L183.091 129.223L115.658 100.85ZM119.62 91.6069L115.658 100.85L183.089 129.223L187.052 119.98L119.62 91.6069ZM186.866 91.1766L186.797 91.026L119.875 120.561L119.943 120.712L186.866 91.1766ZM190.535 99.3409L186.866 91.1766L119.943 120.712L123.613 128.876L190.535 99.3409ZM202.965 126.986L190.535 99.3407L123.613 128.876L136.044 156.522L202.965 126.986ZM178.401 117.639C187.776 113.505 198.779 117.674 202.965 126.986L136.044 156.522C148.326 183.839 180.628 196.103 208.187 183.953L178.401 117.639ZM168.963 142.008C164.772 132.685 169.015 121.778 178.401 117.639L208.187 183.953C235.755 171.8 248.172 139.799 235.886 112.472L168.963 142.008ZM155.269 111.548L168.963 142.008L235.886 112.472L222.191 82.0129L155.269 111.548ZM155.237 111.478L155.254 111.515L222.206 82.0459L222.189 82.0084L155.237 111.478ZM151.131 102.344L155.252 111.511L222.175 81.9753L218.052 72.8089L151.131 102.344ZM148.963 97.5231L151.131 102.344L218.052 72.8089L215.886 67.9877L148.963 97.5231ZM136.014 68.7234L148.963 97.5231L215.886 67.9879L202.937 39.1882L136.014 68.7234ZM153.07 79.6582C146.015 79.6826 139.137 75.6696 136.014 68.7234L202.937 39.1882C193.821 18.9145 173.714 7.00264 152.815 7.07473L153.07 79.6582ZM170.002 68.4283C166.957 75.5326 159.994 79.683 152.815 79.6582L153.07 7.07473C131.819 7.00148 111.459 19.3193 102.57 40.0549L170.002 68.4283ZM158.115 96.161L170.002 68.4283L102.57 40.0549L90.6822 67.7876L158.115 96.161ZM154.191 105.313L158.115 96.1608L90.6822 67.7876L86.7589 76.9401L154.191 105.313Z" fill="black"></path>
    </g>
    <path fill-rule="evenodd" clip-rule="evenodd" d="M120.475 91.1267L120.451 91.0729L103.762 53.9559C100.766 47.292 94.1516 43.3426 87.2299 43.3666C80.1938 43.3423 73.4953 47.426 70.5737 54.2416L52.5008 96.4027L52.2759 96.9274L47.4736 108.131L44.5413 114.971L38.9203 128.084C35.0321 137.155 39.3057 147.629 48.4658 151.479C57.6258 155.329 68.2035 151.098 72.0915 142.027L75.9249 133.084L84.1192 113.968L84.3304 113.476L87.5234 106.027L87.6235 105.794L87.6861 105.933L91.0775 113.476L103.792 141.754C105.467 145.48 108.274 148.358 111.633 150.166C112.433 150.663 113.282 151.103 114.178 151.479C123.338 155.329 133.916 151.098 137.804 142.027L146.21 122.417L149.374 115.036L153.336 105.794L153.404 105.944L157.074 114.108L169.504 141.754C173.552 150.756 184.203 154.804 193.293 150.797C202.384 146.789 206.473 136.242 202.425 127.24L188.73 96.7806L188.714 96.7432L184.591 87.5766L182.423 82.7554L169.474 53.9559C166.479 47.292 159.864 43.3426 152.942 43.3666C145.907 43.3423 139.208 47.426 136.286 54.2416L124.398 81.9743L120.475 91.1267Z" fill="white"></path>
    <mask id="mask1_33_38" style="mask-type:luminance" maskUnits="userSpaceOnUse" x="12" y="18" width="218" height="160">
        <path d="M229.129 18.6219H12.3413V177.812H229.129V18.6219Z" fill="white"></path>
        <path fill-rule="evenodd" clip-rule="evenodd" d="M120.475 91.1267L120.451 91.0729L103.763 53.9559C100.766 47.292 94.1517 43.3426 87.23 43.3666C80.1939 43.3423 73.4954 47.426 70.5738 54.2416L52.5009 96.4027L52.276 96.9274L47.4737 108.131L44.5414 114.971L38.9204 128.084C35.0322 137.155 39.3059 147.629 48.4659 151.479C57.6259 155.329 68.2036 151.098 72.0916 142.027L75.9251 133.084L84.1194 113.968L84.3305 113.476L87.5235 106.027L87.6236 105.794L87.6862 105.933L91.0776 113.476L103.792 141.754C105.468 145.48 108.274 148.358 111.633 150.166C112.433 150.663 113.282 151.103 114.178 151.479C123.339 155.329 133.916 151.098 137.804 142.027L146.211 122.417L149.374 115.036L153.336 105.794L153.404 105.944L157.075 114.108L169.504 141.754C173.552 150.756 184.203 154.804 193.293 150.797C202.384 146.789 206.473 136.242 202.426 127.24L188.731 96.7806L188.714 96.7432L184.591 87.5766L182.423 82.7554L169.474 53.9559C166.479 47.292 159.864 43.3426 152.943 43.3666C145.907 43.3423 139.208 47.426 136.286 54.2416L124.398 81.9743L120.475 91.1267Z" fill="white"></path>
    </mask>
    <g mask="url(#mask1_33_38)">
        <path d="M120.451 91.0729L97.6366 101.142L97.6368 101.142L120.451 91.0729ZM120.475 91.1267L97.6609 101.196L121.022 153.151L143.464 100.799L120.475 91.1267ZM87.2299 43.3666L87.1429 68.1109L87.2298 68.1113L87.3169 68.1109L87.2299 43.3666ZM52.5009 96.4027L29.5125 86.7299L29.512 86.7312L29.5115 86.7325L52.5009 96.4027ZM52.2759 96.9274L75.2643 106.6L75.2648 106.599L75.2655 106.598L52.2759 96.9274ZM47.4736 108.131L70.4618 117.804L70.462 117.803L47.4736 108.131ZM44.5413 114.971L21.553 105.298V105.299L44.5413 114.971ZM72.0916 142.027L95.0799 151.7H95.0801L72.0916 142.027ZM84.3304 113.476L107.319 123.149L107.319 123.148L84.3304 113.476ZM87.5235 106.027L64.5376 96.3481L64.5363 96.3512L64.535 96.3544L87.5235 106.027ZM87.6236 105.794L110.435 95.7191L87.0776 43.8042L64.6377 96.115L87.6236 105.794ZM87.6862 105.933L110.501 95.8641L110.499 95.8611L110.498 95.8583L87.6862 105.933ZM111.633 150.166L124.887 129.194L124.235 128.789L123.559 128.425L111.633 150.166ZM114.178 151.479L104.424 174.258H104.424L114.178 151.479ZM149.374 115.036L126.386 105.364V105.364L149.374 115.036ZM153.336 105.794L176.151 95.7248L152.79 43.7676L130.348 96.1208L153.336 105.794ZM188.731 96.7806L165.906 106.827L165.911 106.838L165.916 106.849L188.731 96.7806ZM188.714 96.7432L211.538 86.6967L211.533 86.6855L211.528 86.6741L188.714 96.7432ZM152.943 43.3666L152.856 68.1109L152.943 68.1113L153.029 68.1109L152.943 43.3666ZM97.6368 101.142L97.6609 101.196L143.289 81.0574L143.265 81.0037L97.6368 101.142ZM80.9481 64.0248L97.6366 101.142L143.265 81.004L126.577 43.887L80.9481 64.0248ZM87.3169 68.1109C84.7091 68.1198 82.1241 66.6403 80.9481 64.0248L126.577 43.887C119.408 27.9436 103.594 18.5654 87.1429 18.6222L87.3169 68.1109ZM93.5621 63.9143C92.4152 66.5896 89.7989 68.12 87.1429 68.1109L87.3169 18.6222C70.5887 18.5645 54.5754 28.2623 47.5854 44.569L93.5621 63.9143ZM75.4892 106.075L93.5621 63.9143L47.5854 44.5688L29.5125 86.7299L75.4892 106.075ZM75.2655 106.598L75.4904 106.073L29.5115 86.7325L29.2866 87.2574L75.2655 106.598ZM70.462 117.803L75.2643 106.6L29.2877 87.2548L24.4853 98.458L70.462 117.803ZM67.5295 124.644L70.4618 117.804L24.4854 98.4578L21.553 105.298L67.5295 124.644ZM61.9087 137.757L67.5297 124.644L21.553 105.299L15.932 118.411L61.9087 137.757ZM58.2203 128.7C61.754 130.185 63.4172 134.238 61.9087 137.757L15.932 118.411C6.64701 140.072 16.8577 165.073 38.7114 174.258L58.2203 128.7ZM49.1034 132.354C50.6091 128.842 54.6932 127.218 58.2203 128.7L38.7114 174.258C60.5583 183.442 85.798 173.353 95.0799 151.7L49.1034 132.354ZM52.9366 123.412L49.1032 132.355L95.0801 151.7L98.9133 142.757L52.9366 123.412ZM61.1309 104.296L52.9366 123.412L98.9133 142.757L107.108 123.641L61.1309 104.296ZM61.3421 103.803L61.1309 104.296L107.108 123.641L107.319 123.149L61.3421 103.803ZM64.535 96.3544L61.3419 103.803L107.319 123.148L110.512 115.699L64.535 96.3544ZM64.6377 96.115L64.5376 96.3481L110.509 115.706L110.609 115.472L64.6377 96.115ZM110.498 95.8583L110.435 95.7191L64.8117 115.868L64.8743 116.007L110.498 95.8583ZM113.892 103.407L110.501 95.8641L64.8716 116.002L68.2631 123.545L113.892 103.407ZM126.606 131.685L113.892 103.407L68.2631 123.545L80.9777 151.823L126.606 131.685ZM123.559 128.425C124.855 129.123 125.969 130.267 126.606 131.685L80.9777 151.823C84.966 160.693 91.6927 167.592 99.7074 171.908L123.559 128.425ZM123.933 128.7C124.254 128.835 124.574 128.999 124.887 129.194L98.3794 171.139C100.291 172.325 102.311 173.371 104.424 174.258L123.933 128.7ZM114.816 132.354C116.322 128.842 120.406 127.218 123.933 128.7L104.424 174.258C126.271 183.442 151.511 173.353 160.793 151.7L114.816 132.354ZM123.222 112.744L114.816 132.354L160.793 151.7L169.198 132.089L123.222 112.744ZM126.386 105.364L123.222 112.744L169.198 132.089L172.362 124.709L126.386 105.364ZM130.348 96.1208L126.386 105.364L172.362 124.709L176.324 115.466L130.348 96.1208ZM176.218 95.8753L176.151 95.7248L130.522 115.862L130.589 116.013L176.218 95.8753ZM179.889 104.04L176.218 95.8753L130.589 116.013L134.26 124.177L179.889 104.04ZM192.319 131.685L179.889 104.04L134.26 124.177L146.69 151.823L192.319 131.685ZM183.139 128.19C186.639 126.646 190.752 128.2 192.319 131.685L146.69 151.823C156.352 173.313 181.766 182.964 203.448 173.404L183.139 128.19ZM179.611 137.309C178.041 133.817 179.631 129.736 183.139 128.19L203.448 173.404C225.137 163.841 234.904 138.668 225.24 117.171L179.611 137.309ZM165.916 106.849L179.611 137.309L225.24 117.171L211.545 86.7117L165.916 106.849ZM165.888 106.789L165.906 106.827L211.555 86.7342L211.538 86.6967L165.888 106.789ZM161.777 97.6455L165.9 106.812L211.528 86.6741L207.406 77.5078L161.777 97.6455ZM159.61 92.8243L161.777 97.6455L207.406 77.5078L205.238 72.6865L159.61 92.8243ZM146.661 64.0246L159.61 92.8243L205.238 72.6865L192.289 43.887L146.661 64.0246ZM153.029 68.1109C150.422 68.1198 147.837 66.6403 146.661 64.0248L192.289 43.887C185.121 27.9436 169.306 18.5654 152.856 18.6222L153.029 68.1109ZM159.275 63.9143C158.128 66.5896 155.512 68.12 152.856 68.1109L153.029 18.6222C136.301 18.5645 120.288 28.2623 113.298 44.5688L159.275 63.9143ZM147.387 91.647L159.275 63.9143L113.298 44.5688L101.41 72.3015L147.387 91.647ZM143.464 100.799L147.387 91.647L101.41 72.3015L97.4869 81.454L143.464 100.799Z" fill="white"></path>
    </g>
    <mask id="mask2_33_38" style="mask-type:luminance" maskUnits="userSpaceOnUse" x="37" y="43" width="167" height="110">
        <path d="M203.987 43.2014H37.4834V152.902H203.987V43.2014Z" fill="white"></path>
    </mask>
    <g mask="url(#mask2_33_38)">
        <path d="M182.423 82.6277L202.425 127.112C206.473 136.114 202.384 146.661 193.293 150.669C184.203 154.677 173.552 150.628 169.504 141.626L153.336 105.666L146.21 122.289V82.6277H182.423Z" fill="#2AA8FF"></path>
        <path d="M184.591 87.4489L188.73 96.6528C186.23 95.793 183.545 95.3256 180.75 95.3256C169.201 95.3256 159.536 103.298 157.074 113.981L153.336 105.666L149.374 114.909V87.4489H184.591Z" fill="#393939" fill-opacity="0.2"></path>
        <path d="M124.398 81.8466V113.348H91.0775L87.6236 105.666L84.3304 113.348H47.4736V108.003L70.5737 54.1139C73.4954 47.2983 80.1938 43.2144 87.2299 43.2387C94.1517 43.2149 100.766 47.1643 103.762 53.8282L120.475 90.9989L124.398 81.8466Z" fill="#017ACE"></path>
        <path d="M120.451 90.945L120.475 90.999L136.286 54.1139C139.208 47.2983 145.906 43.2144 152.942 43.2387C159.864 43.2149 166.479 47.1643 169.474 53.8282L188.712 96.6153C184.833 93.2979 179.779 91.2916 174.251 91.2916C164.646 91.2916 156.47 97.3486 153.404 105.816L153.336 105.666L137.804 141.899C133.916 150.97 123.338 155.202 114.178 151.352C113.282 150.975 112.433 150.535 111.633 150.039C108.274 148.23 105.467 145.353 103.792 141.626L87.6859 105.805C90.1105 106.493 92.6712 106.861 95.3186 106.861C106.459 106.861 116.062 100.342 120.451 90.945Z" fill="#AEDEFF"></path>
        <path d="M87.5234 105.899L75.9249 132.957C73.0963 134.242 69.9444 134.958 66.6215 134.958C54.9654 134.958 45.4126 126.147 44.5413 114.844L52.501 96.2748C56.3339 93.1321 61.2548 91.2431 66.6215 91.2431C76.2816 91.2431 84.497 97.3634 87.5234 105.899Z" fill="black"></path>
        <path d="M84.1193 113.841L72.0915 141.899C68.2035 150.97 57.6258 155.202 48.4658 151.352C39.3057 147.501 35.0321 137.027 38.9203 127.956L52.2759 96.7997C55.1031 95.5605 58.2299 94.8723 61.5185 94.8723C72.8721 94.8723 82.2975 103.075 84.1193 113.841Z" fill="#393939"></path>
    </g>
</svg>