<svg width="864" height="256" viewBox="0 0 864 256" fill="none" xmlns="http://www.w3.org/2000/svg">
    <g clip-path="url(#clip0_2266_1559)">
        <mask id="mask0_2266_1559" style="mask-type:luminance" maskUnits="userSpaceOnUse" x="0" y="0" width="864" height="256">
            <path d="M852.853 0H11.1467C4.99053 0 0 4.99053 0 11.1467V244.853C0 251.009 4.99053 256 11.1467 256H852.853C859.01 256 864 251.009 864 244.853V11.1467C864 4.99053 859.01 0 852.853 0Z" fill="white"/>
        </mask>
        <g mask="url(#mask0_2266_1559)">
            <path d="M864 14.1867C864 6.35158 857.648 0 849.813 0H14.1866C6.35155 0 0 6.35159 0 14.1867V241.813C0 249.648 6.35159 256 14.1867 256H849.813C857.648 256 864 249.648 864 241.813V14.1867Z" fill="#111111"/>
            <path d="M808.256 168.512V187.28H792.512C775.712 186.752 766.736 177.68 766.736 160.64V117.776H755.744V101.312H766.736V82.8799H789.968V101.12H807.728V117.536H789.968V158.336C789.968 163.856 791.072 168.272 799.568 168.272L808.256 168.512Z" fill="white"/>
            <path d="M663.152 144.464V143.216C662.901 137.695 663.744 132.179 665.627 126.984C667.509 121.789 670.4 117.017 674.133 112.941C677.867 108.866 682.368 105.566 687.376 103.233C692.384 100.9 697.808 99.5781 703.328 99.344C704.432 99.344 705.584 99.344 706.688 99.344C728.624 99.344 747.872 112.112 747.872 142.544V149.024H686.912C687.536 163.04 695.12 170.96 707.888 170.96C718.88 170.96 724.016 166.16 725.504 159.152H747.44C744.752 177.44 730.16 187.616 707.072 187.616C681.728 187.424 663.152 171.392 663.152 144.464ZM725.024 134.336C724.208 121.568 717.776 115.424 706.592 115.424C695.408 115.424 688.976 122.336 687.392 134.336H725.024Z" fill="white"/>
            <path d="M568.304 144.464V143.216C568.053 137.703 568.891 132.195 570.768 127.005C572.645 121.816 575.531 117.048 579.253 112.974C582.976 108.899 587.461 105.598 592.464 103.26C597.461 100.921 602.869 99.5904 608.384 99.344C609.488 99.344 610.64 99.344 611.744 99.344C633.68 99.344 652.976 112.112 652.976 142.544V149.024H592.064C592.688 163.04 600.272 170.96 613.04 170.96C624.032 170.96 629.168 166.16 630.656 159.152H652.592C649.856 177.44 635.264 187.616 612.176 187.616C586.88 187.424 568.304 171.392 568.304 144.464ZM630.176 134.336C629.36 121.568 622.928 115.424 611.744 115.424C600.56 115.424 594.32 122.528 592.544 134.288L630.176 134.336Z" fill="white"/>
            <path d="M435.201 101.12H459.777L474.801 158.048L491.265 101.12H510.465L525.345 158.048L541.184 101.12H563.696L537.008 185.696H513.969L499.569 132.608L484.161 185.696H460.833L435.201 101.12Z" fill="white"/>
            <path d="M357.104 159.105H379.04C380.048 166.737 383.84 171.105 393.92 171.105C402.944 171.105 407.12 167.697 407.12 161.889C407.12 156.081 402.32 153.633 390.032 151.905C367.52 148.497 358.832 142.017 358.832 125.505C358.832 107.889 374.96 99.1526 392.432 99.1526C411.2 99.1526 425.36 105.969 427.376 125.409H405.728C405.59 123.906 405.155 122.445 404.45 121.111C403.743 119.777 402.78 118.596 401.615 117.637C400.451 116.677 399.107 115.958 397.663 115.521C396.218 115.083 394.701 114.937 393.2 115.089H392.48C384.896 115.089 380.48 118.641 380.48 123.825C380.48 129.009 384.56 131.265 396.944 133.041C417.968 136.209 429.728 141.537 429.728 159.633C429.728 177.729 416.432 187.425 394.16 187.425C371.888 187.425 357.728 177.393 357.104 159.105Z" fill="white"/>
            <path d="M263.888 101.12H287.12V114.512C289.739 109.596 293.713 105.536 298.572 102.813C303.431 100.091 308.969 98.8196 314.528 99.1519C330.992 99.1519 342.944 109.184 342.944 132.08V185.888H320V135.44C320 123.968 315.536 118.496 305.168 118.496C302.977 118.305 300.769 118.549 298.673 119.214C296.576 119.878 294.631 120.95 292.95 122.368C291.268 123.787 289.883 125.523 288.875 127.478C287.866 129.433 287.254 131.568 287.072 133.76C286.952 134.78 286.952 135.812 287.072 136.832V185.696H263.888V101.12Z" fill="white"/>
            <path d="M219.057 79.856C218.973 77.5397 219.578 75.2507 220.795 73.2784C222.013 71.3061 223.788 69.7392 225.897 68.7765C228.005 67.8139 230.352 67.4987 232.64 67.8704C234.928 68.2421 237.054 69.2843 238.749 70.8651C240.444 72.4459 241.632 74.4939 242.163 76.7504C242.693 79.0069 242.542 81.3696 241.729 83.5403C240.915 85.7109 239.476 87.5909 237.594 88.9435C235.711 90.2955 233.47 91.0587 231.153 91.136H230.721C229.283 91.2272 227.842 91.0331 226.479 90.5659C225.116 90.0987 223.859 89.3664 222.78 88.4123C221.701 87.4576 220.821 86.2997 220.19 85.0043C219.559 83.7093 219.19 82.3024 219.105 80.864C219.065 80.5296 219.049 80.1925 219.057 79.856ZM219.057 101.12H242.529V185.696H219.153L219.057 101.12Z" fill="white"/>
            <path d="M130.591 70.1121H204.799V90.6081H156.799V121.184H194.815V140.912H156.751V185.696H130.591V70.1121Z" fill="white"/>
            <path d="M85.8087 107.936C85.8087 115.184 85.8087 124.016 75.8247 127.616C86.0487 131.12 85.8087 138.56 85.8087 146.336V175.136C85.8087 180.608 88.0167 183.92 91.9527 184.736C92.8178 185.028 93.7287 185.158 94.6407 185.12H104.241V204.32H88.4007C71.5047 204.32 62.1927 194.72 62.1927 176.912V142.832C62.0727 141.083 61.3015 139.442 60.0306 138.233C58.7596 137.024 57.0823 136.336 55.3287 136.304H51.2007V119.456H55.3287C57.117 119.433 58.8279 118.722 60.1058 117.47C61.3842 116.219 62.1314 114.524 62.1927 112.736V78.1764C62.1927 60.6564 71.3127 51.2004 88.4007 51.2004H104.385V70.1124H94.7847C93.8716 70.1151 92.9644 70.2607 92.0967 70.5444C88.1607 71.5524 85.9527 74.8164 85.9527 80.1444L85.8087 107.936Z" fill="white"/>
        </g>
    </g>
    <defs>
        <clipPath id="clip0_2266_1559">
            <rect width="864" height="256" fill="white"/>
        </clipPath>
    </defs>
</svg>
