<?xml version="1.0" encoding="UTF-8"?><svg id="uuid-eca85550-db3e-449f-b37a-6fbf07ef2c95" xmlns="http://www.w3.org/2000/svg" viewBox="0 0 458.67 354.13"><defs><style>.uuid-10b2fed7-96bf-425a-982d-da55fab03e53{fill:#0e74bb;}.uuid-a0d87707-a614-4c66-996d-0bfd53697040{fill:#99b9ff;}.uuid-83510bed-f38e-4648-bba3-3bd493ed6614{fill:#fff;}.uuid-a9295f28-0ff8-419e-a2b3-42f61a9f2f11{fill:#080717;}</style></defs><path d="M60.57,354.13c-2.23,0-4.41-.68-6.28-1.99-2.43-1.7-4.05-4.24-4.55-7.16l-31.81-183.58c-.35-2,0-4,.97-5.64,1.02-1.72,2.6-2.84,4.44-3.16l303.21-55.43c3.73-.64,7.35,2.26,8.07,6.47l31.84,183.74c1.03,5.94-2.96,11.65-8.88,12.73l-295,53.83c-.67.12-1.34.18-2,.18ZM327.61,100.15c-.17,0-.35.01-.52.04L23.88,155.62c-.96.17-1.79.77-2.34,1.71-.6,1.02-.81,2.28-.59,3.56l31.81,183.58c.37,2.11,1.53,3.95,3.29,5.17,1.76,1.22,3.88,1.68,5.98,1.3l295-53.83c4.28-.78,7.16-4.9,6.41-9.19l-31.84-183.74c-.4-2.33-2.13-4.02-3.99-4.02Z"/><path d="M39.25,165.66c.32,1.85-.92,3.6-2.77,3.92-1.85.32-3.6-.92-3.92-2.77-.32-1.85.92-3.6,2.77-3.92,1.85-.32,3.61.92,3.93,2.76Z"/><path d="M49.07,163.95c.32,1.85-.92,3.6-2.77,3.92-1.85.32-3.6-.92-3.92-2.77-.32-1.85.92-3.6,2.76-3.92,1.85-.32,3.61.92,3.93,2.76Z"/><path d="M58.9,162.25c.32,1.85-.92,3.6-2.76,3.92-1.85.32-3.61-.92-3.93-2.77-.32-1.85.92-3.6,2.77-3.92,1.85-.32,3.6.92,3.92,2.77Z"/><polygon class="uuid-10b2fed7-96bf-425a-982d-da55fab03e53" points="371.71 120.58 251.91 191.29 369.32 63.94 371.71 120.58"/><ellipse class="uuid-10b2fed7-96bf-425a-982d-da55fab03e53" cx="358.2" cy="71.38" rx="101.4" ry="68.17" transform="translate(-5.62 103.59) rotate(-16.33)"/><path class="uuid-a0d87707-a614-4c66-996d-0bfd53697040" d="M295.5,292.48l-35.68-43.32c-13.67-16.6-33.41-27.04-54.83-28.98l-44.97-4.09c-11.2,4.07-83.52,26.48-83.52,26.48l-33.2,56.34,7.94,45.82c.9,5.2,5.87,8.66,11.06,7.72l216.13-39.44,17.07-20.52Z"/><path class="uuid-10b2fed7-96bf-425a-982d-da55fab03e53" d="M241.29,50.56c-.64,0-1.24-.41-1.45-1.05l-6.2-18.71-7.55,18.2c-.32.78-1.22,1.15-1.99.83-.78-.32-1.16-1.2-.85-1.98l7.28-18.31-17.49,9.09c-.75.39-1.67.1-2.06-.64-.39-.74-.11-1.67.63-2.06l17.35-9.35-19.24-4.28c-.82-.18-1.34-.99-1.17-1.82.18-.82.98-1.35,1.81-1.18l19.3,3.99-11.99-15.64c-.51-.67-.39-1.62.28-2.14.67-.52,1.62-.4,2.14.26l12.22,15.46.87-19.69c.04-.84.75-1.49,1.59-1.46.84.03,1.5.73,1.47,1.58l-.57,19.7,13.32-14.52c.57-.62,1.53-.66,2.16-.1.62.56.68,1.53.12,2.15l-13.1,14.72,19.54-2.56c.84-.1,1.6.48,1.72,1.31.12.83-.46,1.6-1.3,1.73l-19.5,2.86,16.61,10.6c.71.45.92,1.39.47,2.11-.45.71-1.38.93-2.1.49l-16.77-10.35,5.91,18.8c.25.8-.19,1.66-.99,1.92-.16.05-.32.07-.47.07Z"/><polygon points="371.48 189.6 369.12 187.65 370.36 186.15 372.58 175.87 363.05 179.84 361.81 181.33 359.45 179.38 361.17 177.3 376.81 170.78 373.19 187.53 371.48 189.6"/><polygon points="317.09 255.55 314.73 253.6 368.62 188.38 361.16 181.99 307.29 247.17 304.93 245.22 360.78 177.64 372.9 188.01 317.09 255.55"/><rect x="295.89" y="215.79" width="84.88" height="3.06" transform="translate(-44.75 339.56) rotate(-50.41)"/><path d="M310.17,262.12c-1.58,0-3.09-.56-4.31-1.6l-3.95-3.38c-2.74-2.34-3.1-6.51-.8-9.29l4.3-5.2,14.06,12.03-4.15,5.02c-1.14,1.38-2.76,2.23-4.55,2.39-.2.02-.39.03-.58.03ZM305.77,247.01l-2.31,2.8c-1.24,1.5-1.04,3.74.43,5.01l3.96,3.38c.74.63,1.67.93,2.64.85.96-.08,1.84-.54,2.45-1.29l2.23-2.7-9.4-8.04Z"/><path class="uuid-a9295f28-0ff8-419e-a2b3-42f61a9f2f11" d="M155.37,119.37c-27.49,0-54.15-2.57-63.04-6.21-2.49-1.02-3.82-2.14-4.17-3.53-5.63-22.15,1.54-39.98,11.13-47.82,5.57-4.55,11.83-5.68,17.18-3.11,1.94.93,4.49,2.52,7.45,4.37,11.54,7.19,28.99,18.05,39.51,9.47,11-8.97,22.8-12.29,34.14-9.59,13.42,3.2,22.53,13.62,25.12,19.44h0c6.19,13.9,6.81,24.08,1.64,27.22-11.62,7.05-40.73,9.76-68.97,9.76ZM91.13,108.88s.38.83,3.76,1.96c21,7,106.47,9.14,127.87-3.85,2.86-1.74,3.19-9.79-2.84-23.35-2.53-5.67-11.34-14.92-23.03-17.7-10.52-2.51-21.12.52-31.5,8.98-12.22,9.97-30.79-1.59-43.07-9.24-2.88-1.8-5.37-3.35-7.16-4.21-4.24-2.04-9.31-1.05-13.91,2.72-8.84,7.23-15.4,23.86-10.1,44.7h0Z"/><path class="uuid-a9295f28-0ff8-419e-a2b3-42f61a9f2f11" d="M230.38,74.45c-7.19-10.04-38.89-31.32-63.98-.83-12.48,15.17-44.97-3.63-56.11-7-17.27-5.23-33.04,24.09-15.85,58.54,4.94,9.9,121.99-2.73,144.79-23.2,3.87-3.48.93-13.84-8.85-27.51Z"/><circle class="uuid-a9295f28-0ff8-419e-a2b3-42f61a9f2f11" cx="82.43" cy="116.01" r="37.36" transform="translate(-50.05 167.98) rotate(-76.03)"/><path class="uuid-a9295f28-0ff8-419e-a2b3-42f61a9f2f11" d="M78.52,152.25c-12.98,0-25.68-6.48-33.06-18.28-11.36-18.19-5.8-42.23,12.39-53.59,18.19-11.36,42.23-5.8,53.59,12.39,11.36,18.19,5.8,42.23-12.39,53.59-6.39,3.99-13.51,5.89-20.54,5.89ZM78.4,77.54c-6.48,0-13.03,1.75-18.92,5.43-16.76,10.47-21.88,32.61-11.41,49.37,10.47,16.76,32.62,21.88,49.37,11.41,16.76-10.47,21.88-32.61,11.41-49.37-6.79-10.87-18.49-16.84-30.45-16.84Z"/><path class="uuid-a9295f28-0ff8-419e-a2b3-42f61a9f2f11" d="M122.83,119.62c-11.12,6.94-25.75,3.56-32.7-7.56-6.94-11.12-3.56-25.75,7.56-32.7,11.12-6.94,25.75-3.56,32.7,7.56,6.94,11.12,3.56,25.75-7.56,32.7Z"/><path class="uuid-a9295f28-0ff8-419e-a2b3-42f61a9f2f11" d="M107.54,86.74c-11.62,15.56-34.7,42.65-29.67,59.51,5.5,18.44,34.02,54.75,60.73,28.64,5.73-6.03,8.47-15.39,12.21-21.89,5.81-10.09,13.37-11.64,33.26-9.93,19.9,1.71,30.02,7.52,46.59-7.44,13.35-12.05,12.8-38.21,8.65-46.52-13.52-27.06-58.27-22.44-70.14-17.21-11.87,5.23-10.67,17.59-24.25,17.92-8.54.21-22.9-2.83-37.39-3.08Z"/><path class="uuid-83510bed-f38e-4648-bba3-3bd493ed6614" d="M144.96,224.49l21.8,34.52c5.78,9.15,19.64,7.29,22.8-3.07l24.71-81.06-48.67-15.44-20.64,65.05Z"/><path class="uuid-a9295f28-0ff8-419e-a2b3-42f61a9f2f11" d="M177.39,266.44c-4.83,0-9.28-2.43-11.93-6.61l-21.8-34.52c-.24-.38-.3-.85-.16-1.28l20.64-65.05c.12-.39.39-.71.76-.9.36-.19.78-.22,1.17-.1l48.67,15.44c.8.25,1.25,1.1,1,1.91l-24.71,81.06c-1.64,5.37-6.11,9.17-11.68,9.92-.66.09-1.31.13-1.95.13ZM146.63,224.28l21.42,33.92c2.35,3.72,6.53,5.66,10.89,5.08,4.36-.59,7.87-3.57,9.15-7.78l24.27-79.61-45.77-14.52-19.96,62.91Z"/><path class="uuid-a9295f28-0ff8-419e-a2b3-42f61a9f2f11" d="M156.31,197.9l12.2-38.46,45.75,14.52-13.06,41.17c-16.28,1.31-32.92-4.55-44.89-17.23Z"/><path class="uuid-a9295f28-0ff8-419e-a2b3-42f61a9f2f11" d="M227.14,73.77l7.7,9.69c17.95,22.58,18.9,53.59,2.3,75.21l-20.04,26.1c-7.49,9.76-21.8,11.23-32.14,3.31l-39.66-30.4,81.83-83.92Z"/><path class="uuid-a9295f28-0ff8-419e-a2b3-42f61a9f2f11" d="M198.86,82.93l-14.29-1.01c-33.31-2.35-62.94,15.17-71.87,42.49l-10.78,32.98c-4.03,12.33,4.31,25.73,18.74,30.09l55.36,16.72,22.85-121.27Z"/><path class="uuid-83510bed-f38e-4648-bba3-3bd493ed6614" d="M113.87,135.57c2.38-8.01,10.8-12.57,18.8-10.19l.26.08c6.63-23.02,23.94-39.44,44.25-39.44,22.47,0,41.25,20.1,45.98,46.99,6.99.31,13.05,5.45,14.24,12.63h0c1.37,8.24-4.2,16.03-12.44,17.4l-2.59.43c-5.78,24.93-23.82,43.12-45.2,43.12-23.36,0-42.74-21.72-46.48-50.23l-6.65-1.98c-8.01-2.38-12.57-10.8-10.19-18.8Z"/><path class="uuid-a9295f28-0ff8-419e-a2b3-42f61a9f2f11" d="M177.19,208.12c-23.63,0-43.63-21.21-47.87-50.57l-5.7-1.69c-4.26-1.27-7.78-4.12-9.9-8.03-2.12-3.91-2.59-8.41-1.32-12.68h0c1.27-4.26,4.12-7.78,8.03-9.9,3.54-1.92,7.57-2.48,11.46-1.63,7.29-23.46,25.34-39.12,45.3-39.12,22.64,0,41.95,19.3,47.28,47.09,7.26.86,13.25,6.5,14.46,13.8,1.51,9.06-4.64,17.65-13.7,19.16l-1.59.26c-6.31,25.55-25.29,43.3-46.45,43.3ZM128.37,126.29c-5.86,0-11.28,3.82-13.03,9.72h0c-1.04,3.48-.65,7.15,1.08,10.35,1.73,3.19,4.6,5.52,8.08,6.55l6.65,1.98c.58.17,1,.67,1.08,1.27,3.72,28.33,22.63,48.9,44.96,48.9,20,0,37.98-17.24,43.7-41.93.14-.6.63-1.06,1.24-1.16l2.59-.43c7.39-1.23,12.41-8.24,11.18-15.64-1.05-6.3-6.43-11.07-12.8-11.35-.72-.03-1.32-.56-1.44-1.26-4.66-26.5-23.37-45.73-44.48-45.73-18.98,0-36.17,15.41-42.78,38.34-.11.39-.38.72-.74.92-.36.2-.78.24-1.17.12l-.26-.08c-1.29-.38-2.59-.56-3.87-.56ZM113.87,135.57h.01-.01Z"/><path class="uuid-a9295f28-0ff8-419e-a2b3-42f61a9f2f11" d="M156.45,89.49c6.44-4.27,13.69-6.67,21.35-6.67,23.13,0,42.47,21.83,47.34,51.05,1.53.07,3.01.39,4.41.91-27.19,1.37-54.94-16.13-73.1-45.29Z"/><path class="uuid-a9295f28-0ff8-419e-a2b3-42f61a9f2f11" d="M211.51,140.42s-.1,0-.15,0c-21.94-2.16-42.52-19.55-53.71-45.38-.33-.78.02-1.68.8-2.01.78-.34,1.68.02,2.01.8,10.74,24.81,30.36,41.5,51.2,43.55.84.08,1.46.83,1.37,1.67-.08.79-.74,1.38-1.52,1.38Z"/><path class="uuid-a9295f28-0ff8-419e-a2b3-42f61a9f2f11" d="M165.79,118.23c-.48,0-.96-.23-1.26-.65-5.38-7.68-8.54-16.82-9.42-27.17-.07-.84.55-1.58,1.4-1.65.83-.07,1.58.55,1.65,1.4.83,9.8,3.81,18.43,8.88,25.67.48.69.32,1.65-.38,2.13-.27.19-.57.28-.88.28Z"/><path class="uuid-a9295f28-0ff8-419e-a2b3-42f61a9f2f11" d="M131.34,146.05c-.08,0-.17,0-.25-.02-.83-.14-1.4-.93-1.26-1.76.85-5.08-3.26-7.67-3.43-7.77-.72-.44-.95-1.38-.51-2.1.44-.72,1.37-.96,2.09-.52.25.15,6.06,3.73,4.87,10.9-.12.75-.77,1.28-1.51,1.28Z"/><path class="uuid-a9295f28-0ff8-419e-a2b3-42f61a9f2f11" d="M224.87,152.79c-.76,0-1.41-.56-1.52-1.33-.04-.29-.85-7.07,5.51-10.59.74-.41,1.67-.14,2.08.6.41.74.14,1.67-.6,2.08-4.5,2.5-3.98,7.32-3.95,7.52.1.84-.49,1.6-1.33,1.71-.06,0-.13.01-.19.01Z"/><path class="uuid-a0d87707-a614-4c66-996d-0bfd53697040" d="M192.99,163.15c-10.04,0-18.2-8.17-18.2-18.2s8.16-18.2,18.2-18.2,18.2,8.16,18.2,18.2-8.16,18.2-18.2,18.2ZM192.99,129.81c-8.35,0-15.14,6.79-15.14,15.14s6.79,15.14,15.14,15.14,15.14-6.79,15.14-15.14-6.79-15.14-15.14-15.14Z"/><path class="uuid-a0d87707-a614-4c66-996d-0bfd53697040" d="M153.89,163.15c-10.04,0-18.2-8.17-18.2-18.2s8.16-18.2,18.2-18.2,18.2,8.16,18.2,18.2-8.16,18.2-18.2,18.2ZM153.89,129.81c-8.35,0-15.14,6.79-15.14,15.14s6.79,15.14,15.14,15.14,15.14-6.79,15.14-15.14-6.79-15.14-15.14-15.14Z"/><path class="uuid-a0d87707-a614-4c66-996d-0bfd53697040" d="M175.25,148.13h-3.41c-.85,0-1.53-.69-1.53-1.53s.68-1.53,1.53-1.53h3.41c.85,0,1.53.69,1.53,1.53s-.69,1.53-1.53,1.53Z"/><path class="uuid-a9295f28-0ff8-419e-a2b3-42f61a9f2f11" d="M193.63,146.11c-.21,3.06-1.97,5.43-3.91,5.3-1.95-.14-3.35-2.73-3.14-5.79.21-3.06,1.97-5.43,3.91-5.3,1.95.14,3.35,2.73,3.14,5.79Z"/><path class="uuid-a9295f28-0ff8-419e-a2b3-42f61a9f2f11" d="M162.35,145.73c0,3.07-1.58,5.56-3.54,5.56s-3.54-2.49-3.54-5.56,1.58-5.56,3.54-5.56,3.54,2.49,3.54,5.56Z"/><path class="uuid-a9295f28-0ff8-419e-a2b3-42f61a9f2f11" d="M178.03,187.91c-.71,0-1.34-.49-1.5-1.22-.18-.83.36-1.64,1.18-1.81,8.81-1.86,13.13-8.36,13.17-8.43.46-.71,1.41-.91,2.12-.45.71.46.92,1.4.46,2.11-.2.31-5.01,7.63-15.12,9.76-.11.02-.21.03-.32.03Z"/><path class="uuid-a9295f28-0ff8-419e-a2b3-42f61a9f2f11" d="M172.45,170.06c-.11,0-.23-.01-.34-.04-2.05-.47-3.82-1.8-4.84-3.63-1.02-1.84-1.22-4.03-.55-6.03l3.81-11.25c.27-.8,1.14-1.23,1.94-.96.8.27,1.23,1.14.96,1.94l-3.81,11.25c-.4,1.19-.29,2.45.32,3.55.61,1.1,1.63,1.86,2.85,2.14.82.19,1.34,1.01,1.15,1.84-.16.71-.79,1.19-1.49,1.19Z"/><path class="uuid-83510bed-f38e-4648-bba3-3bd493ed6614" d="M109.08,283.98l17.64-33.64,6.37-11.36c1.88-3.35.03-7.71-3.75-8.4-4.3-.79-8.68.77-11.51,4.07l-10.79,12.59c-3.48,4.06-9.74,4.15-13.33.18l-.37-.41c-6.18-6.83-10.58-15.08-12.83-24.01l-8.99-35.74c-1.03-4.08-4.88-7-9.05-6.45-4.8.63-7.94,5.17-6.97,9.79l8.88,42.44-18.33-48.55c-1.49-3.96-5.69-6.43-9.8-5.38-4.72,1.2-7.29,6.11-5.78,10.59l16.13,47.74-20.29-31.47c-2.58-4-7.96-5.05-11.86-2.32h0c-3.57,2.51-4.62,7.34-2.41,11.1l21.27,36.22-19.31-20.57c-2.82-3-7.58-3.04-10.44-.07h0c-2.59,2.68-2.71,6.89-.28,9.71l27.82,32.34,14.59,21.99c5.74,8.64,15.16,14.13,25.51,14.84h0l11.41,38.98,53.65-9.51-27.18-54.67Z"/><path d="M82.61,349.7c-.67,0-1.27-.44-1.47-1.1l-11.11-37.97c-10.34-1.04-19.85-6.76-25.61-15.44l-14.54-21.91L2.13,241.02c-2.96-3.44-2.82-8.5.34-11.77,1.66-1.72,3.89-2.67,6.29-2.67.02,0,.04,0,.06,0,2.42.02,4.66,1,6.31,2.76l9.94,10.59-14.34-24.42c-2.59-4.42-1.34-10.18,2.85-13.13,2.23-1.56,4.93-2.14,7.59-1.62,2.67.52,4.95,2.07,6.43,4.36l13.61,21.1-12.18-36.05c-.87-2.56-.62-5.39.67-7.77,1.31-2.41,3.51-4.11,6.18-4.8,4.79-1.22,9.78,1.5,11.61,6.33l11.34,30.05-4.83-23.08c-.55-2.64.03-5.41,1.59-7.61,1.58-2.23,3.96-3.65,6.69-4.01,4.86-.63,9.48,2.63,10.73,7.6l8.99,35.74c2.18,8.66,6.49,16.74,12.48,23.36l.37.41c1.4,1.54,3.38,2.42,5.45,2.42.03,0,.06,0,.1,0,2.11-.03,4.11-.96,5.49-2.57l10.79-12.59c3.18-3.71,8.13-5.47,12.95-4.58,2.23.41,4.06,1.84,5.04,3.93,1.01,2.15.92,4.67-.24,6.73l-6.37,11.36-17.25,32.91,26.83,53.97c.22.43.21.94,0,1.37-.22.43-.63.73-1.1.82l-53.65,9.51c-.09.02-.18.02-.27.02ZM8.75,229.64c-1.55,0-3,.62-4.08,1.74-2.05,2.12-2.14,5.41-.22,7.64l27.82,32.34s.08.1.12.15l14.59,21.99c5.44,8.19,14.53,13.49,24.34,14.16.64.04,1.18.48,1.36,1.1l11.02,37.66,50.28-8.91-26.27-52.84c-.22-.44-.21-.96.01-1.39l17.64-33.64,6.4-11.4c.67-1.2.73-2.67.13-3.93-.55-1.18-1.58-1.99-2.82-2.22-3.73-.69-7.59.67-10.07,3.56l-10.79,12.59c-1.95,2.27-4.78,3.6-7.77,3.64-3.04.02-5.86-1.21-7.86-3.43l-.37-.41c-6.32-7-10.88-15.52-13.18-24.67l-8.99-35.74c-.86-3.4-4.08-5.73-7.36-5.31-1.88.25-3.5,1.22-4.59,2.75-1.07,1.51-1.46,3.4-1.09,5.21l8.89,42.44c.16.78-.3,1.56-1.07,1.78-.77.23-1.58-.18-1.86-.93l-18.33-48.55c-1.25-3.31-4.76-5.26-7.98-4.44-1.84.47-3.35,1.64-4.25,3.29-.89,1.63-1.05,3.57-.46,5.33l16.13,47.74c.25.73-.09,1.53-.79,1.87-.7.34-1.53.1-1.95-.55l-20.29-31.47c-1.02-1.58-2.6-2.65-4.44-3.01-1.85-.36-3.71.04-5.25,1.12-2.9,2.03-3.76,6.02-1.97,9.07l21.27,36.22c.39.67.22,1.53-.4,2-.62.46-1.5.39-2.03-.18l-19.31-20.57c-1.07-1.14-2.53-1.78-4.1-1.79h-.04Z"/><path class="uuid-83510bed-f38e-4648-bba3-3bd493ed6614" d="M72.42,292.38l-.24-5.98c-.45-11.26,3.22-22.3,10.32-31.04h0l-10.08,37.03Z"/><path d="M72.42,293.91c-.82,0-1.5-.65-1.53-1.47l-.24-5.98c-.47-11.64,3.32-23.03,10.66-32.07.53-.66,1.49-.76,2.15-.22.66.53.76,1.5.22,2.15-6.87,8.47-10.41,19.13-9.98,30.02l.24,5.98c.03.85-.62,1.56-1.47,1.59-.02,0-.04,0-.06,0Z"/><path class="uuid-83510bed-f38e-4648-bba3-3bd493ed6614" d="M282.49,317.5l2.27-5.9s18.28,3.98,23.02-13.63c1.16-4.3-13.96-22.61-24.55-24.32-20.74-3.35-53.09-2.18-58.13,14.99-5.04,17.17-7.73,44.71-7.73,44.71,0,0,13.24,3.01,15.35-6.6,2.95-13.46,9.32-26.77,9.32-26.77l3.39,40.76s7.31,1.13,13.61-1.45c6.3-2.58,16.9-3.66,23.45-21.79Z"/><path class="uuid-a9295f28-0ff8-419e-a2b3-42f61a9f2f11" d="M220,336.09c-1.47,0-2.49-.13-2.64-.15-.78-.1-1.36-.79-1.33-1.58.05-1.17,1.2-28.89,7.64-46.27,3.1-8.37,15-21.56,59.75-15.97.84.1,1.43.87,1.33,1.71-.1.84-.86,1.44-1.71,1.33-14.75-1.84-49.77-4.16-56.5,14-5.44,14.68-7.04,37.8-7.37,43.84,2.98.11,9.79-.26,11.69-5.39,1.06-2.87,2.06-6.74,3.12-10.85,2.08-8.07,4.23-16.41,7.52-19.62.6-.59,1.57-.58,2.17.03.59.61.58,1.57-.03,2.17-2.68,2.62-4.81,10.89-6.7,18.19-1.08,4.18-2.09,8.13-3.21,11.14-2.4,6.48-9.74,7.41-13.73,7.41Z"/><path class="uuid-a9295f28-0ff8-419e-a2b3-42f61a9f2f11" d="M250.32,343.32c-2.35,0-4.63-.65-6.16-1.35-.53-.24-.87-.76-.9-1.34l-2.03-54.69c-.03-.84.63-1.56,1.47-1.59.81-.02,1.56.63,1.59,1.47l1.99,53.68c2.06.72,7.21,1.99,9.34-2.25.38-.76,1.3-1.06,2.06-.68.76.38,1.06,1.3.68,2.06-1.79,3.57-4.98,4.68-8.04,4.68Z"/><path class="uuid-a9295f28-0ff8-419e-a2b3-42f61a9f2f11" d="M257.68,342.2c-.39,0-.77-.15-1.05-.42-.31-.29-.49-.7-.48-1.13l.65-55.85c.01-.84.69-1.51,1.53-1.51h.02c.84,0,1.52.7,1.51,1.55l-.63,54.09c3.09-.54,7.91-2.08,8.71-5.5,1.41-5.98,4.52-45.99,4.55-46.39.07-.84.79-1.47,1.65-1.41.84.07,1.47.8,1.41,1.65-.13,1.66-3.17,40.65-4.63,46.85-1.69,7.18-12.67,8.04-13.14,8.07-.04,0-.07,0-.11,0Z"/><path class="uuid-a9295f28-0ff8-419e-a2b3-42f61a9f2f11" d="M269.76,334.76c-.75,0-1.41-.56-1.52-1.32-.12-.84.47-1.61,1.31-1.73,7.73-1.07,11.7-11.8,13.67-20.61,2.22-9.93,2.43-19.75,2.43-19.85.02-.84.7-1.5,1.53-1.5,0,0,.02,0,.03,0,.85.02,1.52.71,1.5,1.56-.03,1.67-.98,40.99-18.74,43.44-.07,0-.14.01-.21.01Z"/><path class="uuid-a9295f28-0ff8-419e-a2b3-42f61a9f2f11" d="M289.33,313.16c-1.18,0-2.43-.08-3.75-.25-.84-.11-1.43-.87-1.33-1.71.11-.84.87-1.43,1.71-1.33,15.31,1.95,20.09-9.65,20.97-12.29-4.49-9.54-12.21-20.96-23.9-22.41-14.75-1.84-49.77-4.16-56.5,14-.29.79-1.17,1.2-1.97.9-.79-.29-1.2-1.17-.9-1.97,3.1-8.37,15-21.56,59.75-15.97,13.29,1.66,21.77,14.35,26.54,24.7.15.32.18.69.09,1.03-.04.16-4.26,15.3-20.73,15.3Z"/><path d="M314.14,32.37h14.82v35.23h12.88v-35.23h14.82v85.05h-14.82v-35.72h-12.88v35.72h-14.82V32.37Z"/><path d="M365.04,31.77h14.58v14.34h-14.58v-14.34ZM365.17,52.3h14.34v65.12h-14.34V52.3Z"/><path d="M388.37,34.8v-2.43h17.5v2.43l-5.1,56.13h-7.29l-5.1-56.13ZM388.74,100.53h16.77v16.89h-16.77v-16.89Z"/><rect x="390.37" y="208.19" width="5.27" height="3.06" transform="translate(180.02 600.97) rotate(-89.52)"/><rect x="390.37" y="208.19" width="5.27" height="3.06" transform="translate(180.02 600.97) rotate(-89.52)"/><rect x="377.05" y="215.26" width="3.06" height="5.27" transform="translate(-1.2 433.69) rotate(-59.53)"/><rect x="375.8" y="232.93" width="5.28" height="3.06" transform="translate(-66.39 216.61) rotate(-29.48)"/><rect x="390.09" y="241.34" width="5.27" height="3.06" transform="translate(146.6 633.57) rotate(-89.52)"/><rect x="405.61" y="232.07" width="3.06" height="5.27" transform="translate(-1.47 466.85) rotate(-59.56)"/><rect x="404.65" y="216.6" width="5.28" height="3.06" transform="translate(-54.61 229.18) rotate(-29.54)"/><polygon points="439.71 241.11 415.87 233.14 392.02 225.16 399.59 249.14 407.16 273.11 415.7 256.83 428.35 269.7 435.94 262.24 423.28 249.37 439.71 241.11"/><path class="uuid-a9295f28-0ff8-419e-a2b3-42f61a9f2f11" d="M453.92,192.59l3.2-4.76c1.77-2.63,2.07-5.6.67-6.64l-70.98-51.2-9.61,14.28,70.98,51.2c1.4,1.04,3.96-.25,5.73-2.88Z"/><path class="uuid-a9295f28-0ff8-419e-a2b3-42f61a9f2f11" d="M455.62,179.57l-9.61,14.28,2.18,1.62c1.4,1.04,3.96-.25,5.73-2.88l3.2-4.76c1.77-2.63,2.07-5.6.67-6.64l-2.18-1.62Z"/><polygon class="uuid-83510bed-f38e-4648-bba3-3bd493ed6614" points="370.41 128.29 384.18 130.97 377.27 141.25 370.41 128.29"/><path class="uuid-a9295f28-0ff8-419e-a2b3-42f61a9f2f11" d="M373.26,130.41l8.36,1.63-4.19,6.23-4.16-7.86h0ZM367.56,126.17l9.56,18.05,9.62-14.31-19.18-3.74h0Z"/><polygon class="uuid-a9295f28-0ff8-419e-a2b3-42f61a9f2f11" points="372.58 133.09 375.38 128.65 367.52 126.22 372.58 133.09"/><path d="M32.37,257.47c-.34,0-.69-.11-.97-.35-.65-.54-.75-1.5-.21-2.16l4.75-5.79c9.22-11.23,22.6-17.88,37.69-18.71.88-.04,1.57.6,1.61,1.44.05.84-.6,1.57-1.44,1.61-14.22.79-26.83,7.04-35.49,17.6l-4.75,5.79c-.3.37-.74.56-1.19.56Z"/></svg>