<?xml version="1.0" encoding="UTF-8"?><svg id="uuid-bf97e9e7-d669-43a0-af6c-4eb389d9f0b0" xmlns="http://www.w3.org/2000/svg" viewBox="0 0 496.76 434.62"><defs><style>.uuid-f0ad7be2-103d-4fc4-abc6-956d90abd822{fill:#0e74bb;}.uuid-797c8e54-d232-4026-b195-f189ad2cad0a{fill:#99b9ff;}.uuid-1c63aa76-bb27-4089-9066-ad60b33df433{fill:#fff;}.uuid-62e76d7c-6256-4c76-bd4d-ff3e98f916e6{fill:#080717;}</style></defs><polygon class="uuid-62e76d7c-6256-4c76-bd4d-ff3e98f916e6" points="409.82 220.98 487.89 228.84 495.99 245.93 409.82 220.98"/><polygon class="uuid-62e76d7c-6256-4c76-bd4d-ff3e98f916e6" points="415.45 233.99 471.66 256.43 466.95 269.53 415.45 233.99"/><polygon class="uuid-62e76d7c-6256-4c76-bd4d-ff3e98f916e6" points="412.27 208.79 443.23 197.31 446.01 208.59 412.27 208.79"/><path class="uuid-797c8e54-d232-4026-b195-f189ad2cad0a" d="M33.91,321l80.64-37.77c6.55-3.07,14.26-2.17,19.93,2.32h0s26.21-8.65,26.21-8.65c6.31-2.08,13.17,1.02,15.77,7.14l1.95,4.59,108.27-55.1h0c3.64,10.02.16,21.24-8.53,27.42l-83.17,59.27,12.07,25.82-13.23,8.48,39.11,9.57c7.48,1.83,11.42,10.04,8.17,17.01h0c-2.41,5.18-8.1,8-13.68,6.77l-43.23-9.47-22.06,6.84c-27.99,8.67-58.31,5.51-83.9-8.76h0s-63.51,58.14-63.51,58.14l-2.78-4.98c-16.85-30.19-15.79-67.19,2.78-96.36h0l19.2-12.29Z"/><path class="uuid-62e76d7c-6256-4c76-bd4d-ff3e98f916e6" d="M121.57,359.6c-.34,0-.69-.09-1-.27l-21.96-12.72c-.52-.3-.87-.82-.97-1.41-.1-.59.08-1.19.48-1.64,5.54-6.24,13.53-9.9,21.81-10.11l-4.49-5.18c-.72-.83-.63-2.09.2-2.81.83-.72,2.09-.63,2.81.2l7.51,8.67c.53.61.64,1.48.27,2.2-.36.72-1.13,1.15-1.93,1.09l-1.72-.13c-7.29-.54-14.48,2.03-19.77,6.95l18.79,10.88,30.85-16.49-20.15-41.23c-.48-.99-.07-2.18.91-2.66.99-.49,2.18-.07,2.66.91l21,42.96c.47.96.1,2.13-.85,2.63l-33.52,17.92c-.29.16-.62.24-.94.24Z"/><path class="uuid-62e76d7c-6256-4c76-bd4d-ff3e98f916e6" d="M120.41,376.94c-.71,0-1.4-.38-1.75-1.05l-2.74-5.09c-1.42-2.63-1.7-5.65-.79-8.5.9-2.85,2.88-5.15,5.56-6.48.98-.49,2.18-.09,2.67.9.49.99.09,2.18-.9,2.67-1.7.84-2.96,2.31-3.53,4.12-.58,1.81-.4,3.73.51,5.4l1.85,3.44,60.58-27.83-24.12-48.05c-.49-.98-.1-2.18.89-2.67.98-.49,2.18-.09,2.67.89l25.04,49.89c.24.48.28,1.04.1,1.55-.18.51-.56.93-1.05,1.15l-64.15,29.48c-.27.12-.55.18-.83.18Z"/><path class="uuid-62e76d7c-6256-4c76-bd4d-ff3e98f916e6" d="M152.84,381.43c-.57,0-1.14-.25-1.52-.71-5.38-6.39-5.44-15.71-.14-22.17.7-.85,2.02-1.05,2.86-.36.85.69,1.04,1.87.35,2.72,0,0-.13.16-.13.16-3.72,4.53-4.01,10.89-.91,15.71l51.11-31.49-27.47-56.56c-.48-.99-.07-2.18.92-2.66.99-.48,2.18-.07,2.66.92l28.26,58.18c.45.92.12,2.03-.75,2.57l-54.2,33.39c-.32.2-.68.3-1.04.3Z"/><path class="uuid-62e76d7c-6256-4c76-bd4d-ff3e98f916e6" d="M376.77,363.76l-.06-3.98c1.33-.02,2.63-.07,3.92-.14l.22,3.98c-1.34.07-2.7.12-4.08.14ZM372.7,363.75c-1.34-.03-2.69-.08-4.07-.15l.21-3.98c1.33.07,2.64.12,3.93.15l-.08,3.98ZM364.58,363.31c-1.33-.11-2.68-.25-4.04-.4l.46-3.96c1.32.15,2.63.28,3.92.39l-.33,3.97ZM384.92,363.31l-.39-3.96c1.31-.13,2.61-.29,3.88-.47l.57,3.94c-1.33.19-2.69.36-4.07.49ZM356.52,362.4c-1.32-.19-2.66-.39-4.01-.62l.66-3.93c1.31.22,2.61.42,3.9.6l-.56,3.94ZM393.03,362.12l-.78-3.91c1.29-.26,2.55-.55,3.79-.87l1,3.86c-1.31.34-2.65.65-4.01.92ZM348.52,361.06c-1.31-.25-2.63-.52-3.96-.8l.83-3.9c1.3.28,2.6.54,3.88.79l-.75,3.91ZM401.01,360.04l-1.25-3.78c1.24-.41,2.45-.86,3.62-1.34l1.51,3.69c-1.25.51-2.56.99-3.88,1.43ZM340.62,359.36c-1.3-.31-2.61-.63-3.92-.97l1-3.86c1.29.33,2.57.65,3.85.95l-.92,3.87ZM332.79,357.34c-1.28-.36-2.58-.73-3.88-1.12l1.14-3.82c1.28.38,2.55.75,3.81,1.1l-1.07,3.84ZM408.67,356.88l-1.8-3.56c1.16-.58,2.28-1.21,3.34-1.87l2.09,3.39c-1.16.71-2.38,1.4-3.64,2.03ZM325.05,355.03c-1.27-.41-2.55-.83-3.84-1.26l1.28-3.77c1.26.43,2.52.84,3.77,1.24l-1.21,3.8ZM415.77,352.49l-2.4-3.18c1.01-.76,1.99-1.58,2.92-2.43l2.7,2.93c-1.02.94-2.1,1.85-3.22,2.69ZM317.41,352.44c-1.26-.45-2.52-.91-3.79-1.38l1.4-3.73c1.25.47,2.49.92,3.73,1.36l-1.34,3.75ZM309.85,349.62c-1.24-.49-2.49-.99-3.74-1.5l1.51-3.68c1.23.51,2.46,1,3.69,1.48l-1.46,3.71ZM421.93,346.79l-2.99-2.63c.83-.94,1.62-1.94,2.35-2.97l3.37,2.14-.14.19c-.79,1.11-1.67,2.23-2.59,3.27ZM302.39,346.56c-1.23-.53-2.46-1.06-3.7-1.61l1.62-3.64c1.22.54,2.43,1.07,3.64,1.59l-1.56,3.66ZM295.02,343.29c-1.21-.56-2.43-1.13-3.65-1.71l1.72-3.59c1.2.57,2.4,1.14,3.6,1.69l-1.67,3.62ZM287.75,339.82c-1.2-.59-2.4-1.19-3.6-1.81l1.81-3.55c1.18.6,2.37,1.2,3.55,1.78l-1.76,3.57ZM426.86,339.79l-3.49-1.93c.61-1.1,1.17-2.25,1.67-3.41l3.66,1.56c-.55,1.29-1.17,2.56-1.85,3.78ZM280.58,336.16c-1.18-.62-2.37-1.25-3.56-1.9l1.91-3.5c1.17.64,2.34,1.26,3.51,1.88l-1.86,3.52ZM273.5,332.31c-1.17-.65-2.34-1.31-3.51-1.99l1.99-3.45c1.15.66,2.31,1.32,3.46,1.96l-1.94,3.48ZM430.16,332.08l-3.8-1.19c.38-1.2.7-2.45.97-3.69l3.89.83c-.29,1.37-.65,2.73-1.06,4.05ZM266.52,328.3c-1.15-.68-2.3-1.37-3.45-2.07l2.07-3.4c1.14.69,2.28,1.37,3.41,2.05l-2.03,3.43ZM259.64,324.12c-1.14-.71-2.27-1.43-3.4-2.15l2.15-3.35c1.12.72,2.24,1.43,3.36,2.13l-2.11,3.38ZM431.92,323.91l-3.95-.49c.16-1.26.27-2.55.33-3.83l3.98.19c-.07,1.39-.19,2.78-.36,4.14ZM252.86,319.77c-1.12-.74-2.23-1.48-3.35-2.23l2.22-3.31c1.11.74,2.21,1.48,3.32,2.21l-2.19,3.33ZM428.34,315.73c-.03-1.28-.1-2.57-.22-3.87l3.97-.34c.12,1.39.2,2.76.23,4.11l-3.98.1ZM246.18,315.27c-1.1-.76-2.2-1.53-3.3-2.31l2.3-3.25c1.08.77,2.17,1.53,3.26,2.28l-2.26,3.28ZM239.61,310.63c-1.09-.79-2.17-1.58-3.24-2.38l2.37-3.2c1.06.79,2.13,1.57,3.21,2.36l-2.34,3.23ZM427.67,308c-.19-1.27-.41-2.55-.66-3.84l3.91-.77c.27,1.36.5,2.71.69,4.04l-3.94.58ZM233.15,305.82c-1.07-.82-2.13-1.63-3.19-2.46l2.45-3.14c1.04.82,2.09,1.62,3.15,2.43l-2.41,3.17ZM226.81,300.88c-1.05-.84-2.1-1.68-3.13-2.53l2.52-3.08c1.02.84,2.05,1.67,3.09,2.5l-2.48,3.12ZM426.16,300.35c-.31-1.25-.65-2.51-1.02-3.78l3.82-1.12c.39,1.32.74,2.64,1.07,3.94l-3.87.96ZM220.57,295.78c-1.03-.87-2.06-1.74-3.07-2.61l2.6-3.02c1,.86,2.01,1.72,3.03,2.57l-2.56,3.05ZM423.96,292.83c-.41-1.23-.85-2.46-1.32-3.7l3.73-1.4c.49,1.29.94,2.57,1.37,3.84l-3.78,1.27ZM214.46,290.53c-1.01-.89-2.01-1.79-3-2.68l2.67-2.96c.98.88,1.97,1.77,2.97,2.65l-2.63,2.99ZM421.18,285.47c-.5-1.2-1.02-2.4-1.57-3.61l3.63-1.64c.56,1.25,1.1,2.49,1.62,3.73l-3.68,1.53ZM208.48,285.13c-.99-.92-1.97-1.83-2.94-2.75l2.74-2.89c.96.91,1.93,1.82,2.9,2.72l-2.71,2.92ZM202.65,279.58c-.97-.94-1.92-1.89-2.87-2.83l2.82-2.81c.93.94,1.87,1.87,2.82,2.8l-2.78,2.85ZM417.94,278.28c-.57-1.17-1.16-2.35-1.78-3.52l3.53-1.84c.63,1.21,1.24,2.42,1.83,3.62l-3.58,1.74ZM196.95,273.88c-.94-.97-1.87-1.94-2.79-2.91l2.89-2.74c.91.96,1.82,1.92,2.75,2.88l-2.86,2.77ZM414.29,271.28c-.63-1.15-1.28-2.29-1.95-3.44l3.44-2.01c.69,1.18,1.35,2.35,2,3.52l-3.49,1.93ZM191.42,268.02c-.91-.99-1.81-1.99-2.7-2.99l2.97-2.65c.88.98,1.77,1.97,2.67,2.95l-2.94,2.69ZM410.3,264.44c-.68-1.12-1.39-2.23-2.11-3.35l3.35-2.16c.74,1.15,1.46,2.29,2.16,3.43l-3.4,2.09ZM186.06,262c-.88-1.02-1.76-2.05-2.61-3.07l3.05-2.56c.85,1.01,1.7,2.02,2.58,3.02l-3.02,2.6ZM406.02,257.78c-.73-1.09-1.48-2.18-2.24-3.27l3.26-2.29c.78,1.11,1.54,2.22,2.29,3.33l-3.31,2.22ZM180.88,255.81c-.85-1.05-1.69-2.1-2.52-3.16l3.14-2.45c.81,1.03,1.63,2.07,2.47,3.1l-3.09,2.51ZM401.46,251.29c-.77-1.06-1.56-2.12-2.37-3.18l3.18-2.4c.82,1.08,1.62,2.16,2.41,3.24l-3.22,2.35ZM175.9,249.46c-.82-1.08-1.62-2.16-2.41-3.24l3.21-2.35c.78,1.06,1.57,2.12,2.37,3.19l-3.18,2.4ZM396.67,244.97c-.81-1.03-1.64-2.07-2.47-3.1l3.09-2.51c.85,1.05,1.69,2.1,2.52,3.15l-3.14,2.46ZM171.14,242.93c-.78-1.11-1.54-2.22-2.29-3.33l3.3-2.23c.74,1.09,1.48,2.18,2.25,3.27l-3.26,2.29ZM391.67,238.8c-.85-1.01-1.71-2.02-2.58-3.02l3.02-2.6c.88,1.02,1.75,2.04,2.61,3.07l-3.05,2.56ZM166.63,236.23c-.74-1.14-1.45-2.29-2.15-3.42l3.39-2.09c.69,1.11,1.39,2.23,2.11,3.35l-3.35,2.16ZM386.47,232.8c-.88-.98-1.77-1.97-2.67-2.95l2.94-2.69c.91.99,1.81,1.99,2.7,2.99l-2.97,2.65ZM162.4,229.33c-.69-1.18-1.36-2.35-2-3.52l3.49-1.92c.63,1.14,1.28,2.29,1.95,3.44l-3.44,2.01ZM381.1,226.94c-.9-.96-1.82-1.92-2.75-2.87l2.86-2.78c.94.97,1.87,1.94,2.79,2.91l-2.9,2.74ZM158.48,222.24c-.63-1.21-1.24-2.42-1.82-3.62l3.58-1.74c.57,1.17,1.16,2.35,1.77,3.53l-3.53,1.84ZM375.56,221.24c-.93-.93-1.88-1.87-2.83-2.8l2.78-2.85c.96.94,1.92,1.88,2.87,2.83l-2.82,2.82ZM369.87,215.69c-.96-.91-1.93-1.82-2.9-2.72l2.71-2.92c.99.92,1.97,1.83,2.94,2.75l-2.74,2.89ZM154.93,214.94c-.56-1.25-1.1-2.49-1.62-3.73l3.68-1.53c.5,1.2,1.02,2.41,1.57,3.62l-3.63,1.64ZM364.03,210.28c-.98-.89-1.97-1.76-2.97-2.64l2.63-2.99c1.01.89,2.02,1.79,3.01,2.68l-2.67,2.95ZM151.82,207.43c-.49-1.29-.94-2.57-1.37-3.84l3.78-1.27c.41,1.23.85,2.46,1.32,3.7l-3.73,1.4ZM358.06,205.03c-1-.86-2.01-1.72-3.03-2.57l2.56-3.05c1.03.87,2.06,1.73,3.07,2.6l-2.59,3.02ZM351.96,199.92c-1.02-.84-2.05-1.67-3.09-2.5l2.48-3.12c1.05.84,2.1,1.68,3.14,2.53l-2.52,3.08ZM149.23,199.7c-.39-1.32-.74-2.64-1.06-3.94l3.87-.95c.31,1.25.65,2.51,1.02,3.78l-3.82,1.12ZM345.74,194.95c-1.04-.81-2.09-1.62-3.15-2.43l2.41-3.17c1.07.82,2.14,1.63,3.19,2.46l-2.45,3.14ZM147.28,191.77c-.27-1.36-.5-2.71-.69-4.05l3.94-.56c.18,1.27.4,2.55.66,3.84l-3.91.77ZM339.41,190.14c-1.06-.79-2.13-1.57-3.21-2.36l2.34-3.23c1.09.79,2.17,1.58,3.24,2.38l-2.37,3.2ZM332.96,185.46c-1.08-.77-2.17-1.53-3.26-2.28l2.26-3.28c1.1.76,2.2,1.53,3.3,2.31l-2.3,3.25ZM146.11,183.63c-.12-1.39-.19-2.76-.22-4.12l3.98-.09c.03,1.27.1,2.56.21,3.87l-3.97.34ZM326.42,180.94c-1.1-.74-2.21-1.48-3.31-2.2l2.19-3.33c1.12.73,2.23,1.48,3.35,2.23l-2.22,3.31ZM319.76,176.57c-1.12-.72-2.24-1.42-3.36-2.12l2.11-3.38c1.14.71,2.27,1.43,3.4,2.15l-2.15,3.35ZM149.92,175.57l-3.98-.19c.07-1.39.19-2.78.36-4.14l3.95.5c-.16,1.26-.27,2.54-.33,3.83ZM313.02,172.36c-1.14-.69-2.28-1.37-3.42-2.05l2.03-3.43c1.15.68,2.3,1.37,3.45,2.07l-2.06,3.41ZM306.17,168.31c-1.15-.66-2.31-1.32-3.46-1.96l1.94-3.48c1.17.65,2.34,1.31,3.51,1.99l-1.99,3.45ZM150.9,167.96l-3.89-.84c.3-1.37.66-2.73,1.07-4.04l3.8,1.19c-.38,1.2-.7,2.44-.97,3.69ZM299.22,164.43c-1.17-.64-2.34-1.26-3.51-1.88l1.86-3.52c1.18.62,2.37,1.25,3.55,1.9l-1.9,3.5ZM292.18,160.73c-1.19-.6-2.37-1.2-3.56-1.78l1.76-3.57c1.2.59,2.4,1.19,3.6,1.8l-1.81,3.55ZM153.2,160.71l-3.66-1.57c.55-1.28,1.17-2.55,1.85-3.77l3.48,1.94c-.61,1.1-1.18,2.25-1.67,3.41ZM285.05,157.21c-1.2-.57-2.4-1.14-3.6-1.69l1.67-3.62c1.21.56,2.43,1.13,3.65,1.71l-1.72,3.59ZM156.93,154.04l-3.3-2.23.06-.09c.77-1.1,1.63-2.18,2.54-3.22l3,2.62c-.82.94-1.59,1.92-2.3,2.92ZM277.83,153.89c-1.22-.54-2.43-1.07-3.64-1.59l1.56-3.66c1.23.53,2.46,1.06,3.69,1.61l-1.61,3.64ZM270.52,150.77c-1.23-.51-2.46-1-3.69-1.48l1.46-3.71c1.24.49,2.49.99,3.74,1.5l-1.51,3.68ZM161.88,148.4l-2.71-2.92c1.01-.94,2.09-1.84,3.22-2.7l2.4,3.18c-1.02.77-2,1.59-2.91,2.44ZM263.13,147.87c-1.25-.47-2.49-.92-3.73-1.36l1.34-3.75c1.26.45,2.52.91,3.79,1.38l-1.4,3.73ZM255.65,145.21c-1.26-.43-2.52-.84-3.77-1.24l1.21-3.8c1.27.41,2.55.83,3.83,1.26l-1.27,3.78ZM167.93,143.8l-2.1-3.38c1.16-.72,2.38-1.41,3.64-2.04l1.8,3.56c-1.15.58-2.27,1.21-3.34,1.87ZM248.09,142.8c-1.28-.38-2.55-.75-3.81-1.1l1.07-3.84c1.29.36,2.58.73,3.88,1.12l-1.14,3.82ZM240.45,140.67c-1.29-.33-2.57-.65-3.85-.95l.92-3.87c1.3.31,2.61.63,3.92.97l-.99,3.86ZM174.77,140.33l-1.51-3.68c1.25-.51,2.55-1,3.88-1.44l1.25,3.78c-1.24.41-2.45.86-3.62,1.34ZM232.75,138.85c-1.3-.28-2.6-.54-3.88-.79l.75-3.91c1.31.25,2.63.52,3.96.81l-.83,3.89ZM182.1,137.9l-1.01-3.86c1.31-.34,2.65-.65,4.01-.92l.78,3.91c-1.29.26-2.55.55-3.78.87ZM224.97,137.36c-1.31-.22-2.62-.42-3.91-.6l.56-3.94c1.32.19,2.66.39,4.01.62l-.65,3.93ZM189.73,136.36l-.58-3.94c1.33-.2,2.69-.36,4.06-.5l.39,3.96c-1.31.13-2.6.29-3.88.47ZM217.15,136.27c-1.32-.15-2.63-.28-3.93-.39l.33-3.97c1.33.11,2.68.25,4.04.4l-.45,3.96ZM209.29,135.61c-1.33-.07-2.64-.12-3.93-.15l.08-3.98c1.34.03,2.69.08,4.07.15l-.21,3.98ZM197.51,135.59l-.22-3.98c1.34-.07,2.7-.12,4.08-.14l.06,3.98c-1.33.02-2.63.07-3.92.14Z"/><circle class="uuid-62e76d7c-6256-4c76-bd4d-ff3e98f916e6" cx="228.49" cy="136.28" r="27.82" transform="translate(57.36 339.99) rotate(-80.78)"/><circle class="uuid-1c63aa76-bb27-4089-9066-ad60b33df433" cx="333.62" cy="352.96" r="16.52"/><path d="M333.62,371.48c-10.21,0-18.51-8.31-18.51-18.51s8.31-18.52,18.51-18.52,18.52,8.31,18.52,18.52-8.31,18.51-18.52,18.51ZM333.62,338.43c-8.01,0-14.53,6.52-14.53,14.53s6.52,14.53,14.53,14.53,14.53-6.52,14.53-14.53-6.52-14.53-14.53-14.53Z"/><path class="uuid-f0ad7be2-103d-4fc4-abc6-956d90abd822" d="M333.18,45c23.34-42.15,76.43-57.41,118.58-34.07,42.15,23.34,57.41,76.43,34.07,118.58-15.63,28.23-44.62,44.32-74.72,44.9l-16.26,29.37-76.32-42.25,16.26-29.37c-15.48-25.82-17.24-58.93-1.6-87.16Z"/><path class="uuid-62e76d7c-6256-4c76-bd4d-ff3e98f916e6" d="M370.72,192.08c-.3,0-.61-.07-.9-.22-.98-.5-1.37-1.7-.87-2.68,1.27-2.5,21.51-42.12,40.27-73.72-2.16-.55-4.23-1.23-6.18-2.02-5.52-2.25-10.55-5.29-14.86-8.89-15.91,30.21-41.65,73.01-41.96,73.53-.57.94-1.8,1.25-2.73.68-.94-.57-1.25-1.79-.68-2.73.32-.52,26.54-44.15,42.33-74.24-6.08-5.97-10.36-13.16-12.06-20.74-1.96-8.74-.18-16.67,5.03-22.34,3.45-3.75,10.48-4,15.68-.56,3.75,2.49,11.53,10.35,2.76,29.62-1.73,3.8-3.94,8.27-6.48,13.17,4.14,3.59,9.04,6.61,14.47,8.81,2.12.87,4.41,1.58,6.81,2.14,8.97-14.89,17.41-27.53,23.04-32.88,4.18-3.97,15.36-4.97,22.97-.26,3.99,2.47,10.08,8.52,6.15,21.37-1.48,4.85-5.71,9.05-12.21,12.14-10.44,4.96-25.27,6.38-37.97,4.1-19.19,32.25-40.53,74.02-40.85,74.64-.35.69-1.05,1.09-1.78,1.09ZM415.53,112.71c11.54,1.8,24.7.41,34.06-4.04,5.47-2.6,8.96-5.95,10.11-9.71,2.37-7.73.83-13.55-4.44-16.81-6.35-3.93-15.37-2.85-18.13-.24-5.21,4.94-13.1,16.72-21.6,30.8ZM385.81,59.71c-2.02,0-3.79.64-4.77,1.7-4.3,4.68-5.75,11.35-4.08,18.77,1.45,6.49,5.01,12.67,10.1,17.91,2.28-4.43,4.28-8.49,5.86-11.97,7.51-16.48,1.57-22.73-1.33-24.65-1.86-1.23-3.93-1.77-5.78-1.77Z"/><path class="uuid-62e76d7c-6256-4c76-bd4d-ff3e98f916e6" d="M306.61,178.78h69.91c4.66,0,8.44,3.78,8.44,8.44v54.79h-86.79v-54.79c0-4.66,3.78-8.44,8.44-8.44Z" transform="translate(538.48 559.91) rotate(-151.03)"/><rect class="uuid-62e76d7c-6256-4c76-bd4d-ff3e98f916e6" x="341.1" y="153.88" width="8.42" height="94.22" transform="translate(2.21 405.75) rotate(-61.03)"/><rect class="uuid-62e76d7c-6256-4c76-bd4d-ff3e98f916e6" x="350.47" y="138.36" width="8.42" height="94.22" transform="translate(20.62 405.93) rotate(-61.03)"/></svg>