<?xml version="1.0" encoding="utf-8"?>
<!-- Generator: Adobe Illustrator 27.5.0, SVG Export Plug-In . SVG Version: 6.00 Build 0)  -->
<svg version="1.1" id="Layer_1" xmlns="http://www.w3.org/2000/svg" xmlns:xlink="http://www.w3.org/1999/xlink" x="0px" y="0px"
	 viewBox="0 0 491.52 491.52" style="enable-background:new 0 0 491.52 491.52;" xml:space="preserve">
<g>
	<path style="fill-rule:evenodd;clip-rule:evenodd;fill:#F0F0F0;" d="M340.94,478.8v-66.55h71.31v-71.31h66.55v104.58
		c0,18.35-14.93,33.27-33.27,33.27H340.94V478.8z"/>
	<path style="fill-rule:evenodd;clip-rule:evenodd;fill:#F0F0F0;" d="M412.25,150.58V79.27h-71.31V12.72h104.58
		c18.35,0,33.27,14.93,33.27,33.27v104.59H412.25z"/>
	<path style="fill-rule:evenodd;clip-rule:evenodd;fill:#F0F0F0;" d="M45.99,478.8c-18.35,0-33.27-14.93-33.27-33.27V340.94h66.55
		v71.31h71.31v66.55H45.99z"/>
	<path style="fill-rule:evenodd;clip-rule:evenodd;fill:#F0F0F0;" d="M12.72,150.58V45.99c0-18.35,14.93-33.27,33.27-33.27h104.58
		v66.55h-71.3v71.31H12.72z"/>
	<path style="fill-rule:evenodd;clip-rule:evenodd;fill:#F0F0F0;" d="M372.87,412.6c-10.31,0-20.1-4.58-26.78-12.4h-24.83
		c-3.48,0-6.9-0.8-10.01-2.33l-8.59,1.78l-3.55-16.84c-0.06-0.23-0.11-0.46-0.16-0.7l-3.77-17.88h0.01l-1.14-5.39l-28.67,10.46
		l8.55-9.96c-9.43,1.15-18.86,1.72-28.19,1.72c-9.25,0-18.6-0.57-27.95-1.7l8.69,10.07l-29.05-10.6l-1.32,6.26l-1.1,5.26
		l-2.47,11.74c-0.05,0.24-0.1,0.47-0.16,0.71l-3.55,16.84l-8.58-1.78c-3.11,1.53-6.53,2.33-10.01,2.33h-24.82
		c-6.68,7.82-16.47,12.4-26.78,12.4c-19.41,0-35.2-15.79-35.2-35.2c0-19.41,15.79-35.2,35.2-35.2c10.31,0,20.1,4.58,26.78,12.4h6.34
		l2.46-11.65c-34.86-13.84-69.95-35.83-104.36-65.42l-15.87-13.65l15.87-13.65c23.4-20.12,47.24-36.83,70.92-49.71l-3.88-18.74
		H97.75c-12.57,0-22.8-10.23-22.8-22.8c0-6.06,2.41-11.71,6.46-15.88c-4.05-4.16-6.46-9.81-6.46-15.88c0-4.5,1.35-8.87,3.8-12.57
		c-2.46-3.7-3.8-8.07-3.8-12.57c0-12.57,10.23-22.8,22.8-22.8h67.47c12.57,0,22.8,10.23,22.8,22.8c0,11.5-8.56,21.05-19.65,22.58
		c0.1,0.85,0.15,1.7,0.15,2.55c0,8.74-4.95,16.35-12.19,20.18l1.27,6.13c0.07,0.28,0.13,0.55,0.19,0.83l3.67,17.74h-0.01l1.91,9.24
		c0.34-0.12,0.69-0.24,1.03-0.36l62.32-22.74l-8.77,10.12c9.31-1.12,18.62-1.68,27.83-1.68c9.94,0,20,0.66,30.05,1.96l-7.46-9.11
		l58.86,21.47c0.32,0.11,0.64,0.22,0.96,0.34l1.97-9.53l1.17-5.72l2.43-11.75c0.06-0.29,0.12-0.57,0.19-0.84l1.26-6.11
		c-7.24-3.82-12.19-11.43-12.19-20.18c0-0.85,0.05-1.71,0.15-2.55c-11.09-1.54-19.65-11.08-19.65-22.58
		c0-12.57,10.23-22.8,22.8-22.8h67.47c12.57,0,22.8,10.23,22.8,22.8c0,4.5-1.35,8.87-3.8,12.57c2.46,3.7,3.8,8.07,3.8,12.57
		c0,6.06-2.41,11.71-6.46,15.88c4.05,4.16,6.46,9.81,6.46,15.88c0,12.57-10.23,22.8-22.8,22.8h-19.15l-3.88,18.74
		c23.68,12.88,47.52,29.59,70.92,49.71l15.87,13.65l-15.87,13.65c-34.41,29.59-69.5,51.58-104.36,65.42l2.46,11.65h6.34
		c6.67-7.82,16.47-12.4,26.78-12.4c19.41,0,35.2,15.79,35.2,35.2C408.07,396.81,392.28,412.6,372.87,412.6z"/>
	<path style="fill-rule:evenodd;clip-rule:evenodd;fill:#FFFFFF;" d="M418.25,418.26h-71.31v54.55h98.58
		c15.04,0,27.27-12.23,27.27-27.27v-98.58h-54.55v71.3H418.25z"/>
	<path style="fill-rule:evenodd;clip-rule:evenodd;fill:#FFFFFF;" d="M445.53,18.72h-98.58v54.55h71.31v71.31h54.55V45.99
		C472.8,30.95,460.57,18.72,445.53,18.72z"/>
	<path style="fill-rule:evenodd;clip-rule:evenodd;fill:#FFFFFF;" d="M73.27,346.94H18.72v98.58c0,15.04,12.23,27.27,27.27,27.27
		h98.58v-54.55h-71.3V346.94z"/>
	<path style="fill-rule:evenodd;clip-rule:evenodd;fill:#FFFFFF;" d="M73.27,73.27h71.31V18.72H45.99
		c-15.04,0-27.27,12.23-27.27,27.27v98.59h54.55V73.27z"/>
	<path style="fill-rule:evenodd;clip-rule:evenodd;fill:#FFFFFF;" d="M372.87,406.6c16.1,0,29.2-13.1,29.2-29.2
		s-13.1-29.2-29.2-29.2c-9.62,0-18.48,4.81-23.85,12.4h-14.13l-4.51-21.38l0.36-0.13l0.05-0.05
		c35.66-13.46,71.62-35.67,106.95-66.05l10.58-9.1l-10.58-9.1c-24.4-20.99-49.19-38.14-73.79-51.08l5.77-27.92h24.04
		c9.26,0,16.8-7.54,16.8-16.8c0-7.35-4.76-13.61-11.35-15.88c6.59-2.27,11.35-8.52,11.35-15.88c0-5-2.21-9.49-5.69-12.57
		c3.48-3.08,5.69-7.57,5.69-12.57c0-9.26-7.54-16.8-16.8-16.8h-67.47c-9.26,0-16.8,7.54-16.8,16.8s7.54,16.8,16.8,16.8h4.94
		c-1.41,2.46-2.23,5.3-2.23,8.34c0,9.26,7.54,16.8,16.8,16.8h2.65c-0.51,0.26-1.01,0.54-1.49,0.85l-4.92-1l-2.27,10.98
		c-0.06,0.24-0.12,0.48-0.17,0.72l-2.43,11.75h0.02l-4.57,22.1c-0.57-0.22-1.13-0.44-1.7-0.65l-0.05-0.06l-2.91-1.06
		c-0.94-0.34-1.88-0.68-2.82-1.01l-38.29-13.97l3.65,4.46c-14.93-2.96-29.89-4.44-44.75-4.44c-14.3,0-28.69,1.38-43.07,4.12
		l4.32-4.99l-40.64,14.83c-0.94,0.33-1.88,0.67-2.82,1.01l-2.96,1.08l-0.05,0.06c-0.55,0.21-1.1,0.42-1.65,0.63l-4.57-22.1h0.01
		l-2.43-11.75c-0.05-0.24-0.1-0.47-0.16-0.71l-2.27-11l-4.92,1c-0.48-0.31-0.98-0.59-1.49-0.85h2.65c9.26,0,16.8-7.54,16.8-16.8
		c0-3.04-0.82-5.88-2.23-8.34h4.94c9.26,0,16.8-7.54,16.8-16.8s-7.54-16.8-16.8-16.8H97.75c-9.26,0-16.8,7.54-16.8,16.8
		c0,5,2.21,9.49,5.69,12.57c-3.48,3.08-5.69,7.57-5.69,12.57c0,7.35,4.76,13.61,11.35,15.88c-6.59,2.27-11.35,8.52-11.35,15.88
		c0,9.26,7.54,16.8,16.8,16.8h24.04l5.77,27.92c-24.61,12.95-49.39,30.1-73.79,51.08l-10.58,9.1l10.58,9.1
		c35.26,30.32,71.16,52.51,106.75,65.97l0.05,0.06l0.57,0.21l-4.51,21.38H142.5c-5.38-7.59-14.23-12.4-23.85-12.4
		c-16.1,0-29.2,13.1-29.2,29.2s13.1,29.2,29.2,29.2c9.62,0,18.48-4.81,23.85-12.4h27.75c3.29,0,6.4-0.97,9.04-2.66l4.92,1.02
		l2.34-11.09c0.05-0.2,0.1-0.4,0.14-0.61l2.47-11.74h-0.01l3.86-18.29l13.88,5.06l-4.28-4.96c14.39,2.74,28.84,4.13,43.16,4.13
		c14.38,0,28.89-1.4,43.34-4.16l-4.21,4.9l13.62-4.97l3.85,18.29h-0.01l2.48,11.74c0.04,0.2,0.09,0.41,0.14,0.61l2.34,11.09
		l4.92-1.02c2.63,1.69,5.75,2.66,9.04,2.66h27.75C354.39,401.79,363.25,406.6,372.87,406.6z"/>
	<g id="Layer_x5F_1">
		<g id="_322725808">
			<g>
				<path id="_322727152" style="fill:#62DBFB;" d="M142.61,217.19c0.53,2.59,3.05,4.26,5.64,3.73s4.26-3.05,3.73-5.64l-11.84-57.25
					l-4.69,0.96l4.7-0.97c-0.47-2.29-2.51-3.86-4.77-3.83H97.75c-2.65,0-4.8,2.15-4.8,4.8c0,2.65,2.15,4.8,4.8,4.8h33.81
					L142.61,217.19L142.61,217.19z"/>
				<path id="_322727488" style="fill:#62DBFB;" d="M97.75,97.3c-2.65,0-4.8,2.15-4.8,4.8s2.15,4.8,4.8,4.8h67.47
					c2.65,0,4.8-2.15,4.8-4.8s-2.15-4.8-4.8-4.8H97.75z"/>
				<path id="_322727344" style="fill:#62DBFB;" d="M97.75,122.44c-2.65,0-4.8,2.15-4.8,4.8s2.15,4.8,4.8,4.8h47.97
					c2.65,0,4.8-2.15,4.8-4.8s-2.15-4.8-4.8-4.8H97.75z"/>
				<path id="_322727560" style="fill:#62DBFB;" d="M393.77,106.9c2.65,0,4.8-2.15,4.8-4.8s-2.15-4.8-4.8-4.8H326.3
					c-2.65,0-4.8,2.15-4.8,4.8s2.15,4.8,4.8,4.8H393.77z"/>
				<path id="_322727440" style="fill:#62DBFB;" d="M393.77,132.04c2.65,0,4.8-2.15,4.8-4.8s-2.15-4.8-4.8-4.8H345.8
					c-2.65,0-4.8,2.15-4.8,4.8s2.15,4.8,4.8,4.8H393.77z"/>
				<path id="_322727872" style="fill:#62DBFB;" d="M314.92,324.06c-0.54-2.59-3.07-4.25-5.66-3.71s-4.25,3.07-3.71,5.66
					l11.04,52.36l4.69-0.98l-4.7,0.99c0.48,2.28,2.51,3.84,4.75,3.81h37.94c2.65,0,4.8-2.15,4.8-4.8c0-2.65-2.15-4.8-4.8-4.8h-34.12
					L314.92,324.06L314.92,324.06z"/>
				<path id="_322726408" style="fill:#62DBFB;" d="M185.97,326.01c0.54-2.59-1.12-5.12-3.71-5.66c-2.59-0.54-5.12,1.12-5.66,3.71
					l-10.23,48.54h-34.12c-2.65,0-4.8,2.15-4.8,4.8s2.15,4.8,4.8,4.8h37.94c2.24,0.03,4.27-1.53,4.75-3.81l-4.7-0.99l4.69,0.98
					L185.97,326.01L185.97,326.01z"/>
				<path id="_322726792" style="fill:#62DBFB;" d="M339.53,215.28c-0.53,2.59,1.14,5.12,3.73,5.64c2.59,0.53,5.12-1.14,5.64-3.73
					l11.05-53.41h33.81c2.65,0,4.8-2.15,4.8-4.8c0-2.65-2.15-4.8-4.8-4.8h-37.64c-2.26-0.03-4.29,1.54-4.77,3.83l4.7,0.97
					l-4.69-0.96L339.53,215.28L339.53,215.28z"/>
			</g>
			<path id="_322726768" style="fill-rule:evenodd;clip-rule:evenodd;fill:#B9D4FA;" d="M61.6,263.89
				c35.35-30.4,70.69-52.02,106.04-64.92c-15.03,17.61-1.69,38.75-1.69,63.72s-13.33,48.51,1.69,66.12
				C132.29,315.91,96.95,294.28,61.6,263.89L61.6,263.89z M323.88,198.97c35.35,12.89,70.69,34.52,106.04,64.92
				c-35.35,30.4-70.69,52.02-106.04,64.92c15.03-17.61-0.71-36.35-0.71-61.32S338.91,216.58,323.88,198.97L323.88,198.97z
				 M245.76,211.52c28.92,0,52.37,23.45,52.37,52.37c0,28.92-23.45,52.37-52.37,52.37s-52.37-23.45-52.37-52.37
				C193.39,234.96,216.84,211.52,245.76,211.52L245.76,211.52z"/>
			<path id="_322726648" style="fill-rule:evenodd;clip-rule:evenodd;fill:#275589;" d="M167.66,198.94
				c-15.04,17.61-22.72,39.97-22.72,64.94c0,24.98,7.67,47.33,22.72,64.94c3.34,1.22,6.68,2.36,10.02,3.42
				c45.39,14.43,90.77,14.43,136.16,0c3.34-1.06,6.68-2.2,10.02-3.42c15.04-17.61,22.72-39.97,22.72-64.94
				c0-24.98-7.67-47.33-22.72-64.94C271.79,179.96,219.73,179.96,167.66,198.94L167.66,198.94z"/>
			<path id="_322726744" style="fill-rule:evenodd;clip-rule:evenodd;fill:#0087FF;" d="M61.27,61.27v71.31H30.72V45.99
				c0-8.44,6.84-15.27,15.27-15.27h86.58v30.55C132.58,61.27,61.27,61.27,61.27,61.27z M430.25,61.27h-71.31V30.72h86.58
				c8.44,0,15.27,6.84,15.27,15.27v86.59h-30.55C430.25,132.58,430.25,61.27,430.25,61.27z M430.25,430.25v-71.31h30.55v86.58
				c0,8.44-6.84,15.27-15.27,15.27h-86.58v-30.55h71.3V430.25z M61.27,430.25h71.31v30.55H45.99c-8.44,0-15.27-6.84-15.27-15.27
				v-86.58h30.55V430.25z"/>
			<circle id="_322726456" style="fill-rule:evenodd;clip-rule:evenodd;fill:#0087FF;" cx="245.76" cy="263.89" r="52.37"/>
			<circle id="_322726936" style="fill-rule:evenodd;clip-rule:evenodd;fill:#0087FF;" cx="372.87" cy="377.4" r="17.2"/>
			<circle id="_322726072" style="fill-rule:evenodd;clip-rule:evenodd;fill:#0087FF;" cx="118.65" cy="377.4" r="17.2"/>
			<circle id="_322725904" style="fill-rule:evenodd;clip-rule:evenodd;fill:#62DBFB;" cx="245.76" cy="263.89" r="28.05"/>
			<circle id="_322726264" style="fill-rule:evenodd;clip-rule:evenodd;fill:#FDFDFD;" cx="228.21" cy="246.33" r="11.34"/>
		</g>
	</g>
</g>
</svg>
