<?xml version="1.0" encoding="UTF-8"?><svg id="uuid-4c9a4694-39f7-4114-a61c-132591f53a93" xmlns="http://www.w3.org/2000/svg" viewBox="0 0 451.11 338.9"><defs><style>.uuid-45aa3c83-00bf-43bc-b8ba-8b18508d9769{fill:#fff;}.uuid-2b6e7861-38cc-42fd-b596-81217b072247{fill:#080717;}</style></defs><polygon class="uuid-2b6e7861-38cc-42fd-b596-81217b072247" points="340.08 144.99 440.67 155.12 451.11 177.13 340.08 144.99"/><polygon class="uuid-2b6e7861-38cc-42fd-b596-81217b072247" points="347.33 161.74 419.76 190.66 413.69 207.54 347.33 161.74"/><polygon class="uuid-2b6e7861-38cc-42fd-b596-81217b072247" points="343.24 129.27 383.13 114.48 386.71 129.02 343.24 129.27"/><path class="uuid-2b6e7861-38cc-42fd-b596-81217b072247" d="M297.49,328.96l-.08-5.13c1.71-.03,3.39-.09,5.05-.18l.28,5.12c-1.72.1-3.47.16-5.25.19ZM292.24,328.94c-1.72-.04-3.47-.1-5.24-.2l.28-5.13c1.71.09,3.4.16,5.07.19l-.11,5.13ZM281.78,328.38c-1.72-.14-3.45-.32-5.21-.52l.59-5.1c1.7.19,3.38.36,5.05.5l-.43,5.11ZM307.99,328.37l-.5-5.11c1.69-.17,3.36-.37,5-.6l.74,5.08c-1.72.25-3.46.46-5.24.63ZM271.39,327.2c-1.71-.24-3.43-.51-5.16-.8l.85-5.06c1.69.28,3.37.54,5.03.78l-.72,5.08ZM318.45,326.84l-1-5.03c1.66-.33,3.29-.7,4.88-1.12l1.29,4.97c-1.69.44-3.41.83-5.17,1.18ZM261.1,325.48c-1.69-.33-3.39-.67-5.1-1.04l1.07-5.02c1.68.36,3.35.7,5,1.02l-.97,5.04ZM328.72,324.16l-1.61-4.87c1.59-.53,3.16-1.11,4.67-1.72l1.94,4.75c-1.61.66-3.3,1.28-5,1.84ZM250.91,323.29c-1.68-.4-3.36-.81-5.06-1.25l1.28-4.97c1.66.43,3.31.84,4.96,1.23l-1.18,4.99ZM240.82,320.69c-1.65-.46-3.32-.95-5-1.45l1.47-4.92c1.64.49,3.28.97,4.91,1.42l-1.38,4.94ZM338.6,320.09l-2.31-4.58c1.49-.75,2.94-1.56,4.3-2.4l2.7,4.37c-1.49.92-3.07,1.8-4.69,2.62ZM230.85,317.7c-1.64-.52-3.29-1.07-4.94-1.62l1.64-4.86c1.62.55,3.25,1.08,4.86,1.59l-1.56,4.89ZM347.74,314.43l-3.09-4.1c1.31-.98,2.57-2.04,3.76-3.14l3.48,3.77c-1.31,1.21-2.71,2.38-4.15,3.47ZM221,314.37c-1.62-.58-3.25-1.17-4.88-1.78l1.8-4.81c1.61.6,3.21,1.19,4.81,1.76l-1.72,4.83ZM211.27,310.73c-1.6-.63-3.21-1.27-4.82-1.93l1.95-4.75c1.59.65,3.17,1.29,4.75,1.9l-1.87,4.78ZM355.68,307.09l-3.86-3.39c1.07-1.21,2.09-2.5,3.03-3.83l4.34,2.75-.18.25c-1.02,1.44-2.15,2.87-3.33,4.22ZM201.66,306.79c-1.58-.68-3.17-1.37-4.76-2.08l2.09-4.69c1.57.7,3.13,1.38,4.69,2.05l-2.02,4.72ZM192.16,302.58c-1.56-.72-3.13-1.46-4.7-2.21l2.22-4.63c1.55.74,3.09,1.46,4.63,2.18l-2.15,4.66ZM182.79,298.11c-1.54-.76-3.09-1.54-4.64-2.33l2.34-4.57c1.52.78,3.05,1.55,4.57,2.3l-2.27,4.6ZM362.03,298.08l-4.49-2.49c.78-1.42,1.51-2.9,2.15-4.39l4.72,2.02c-.71,1.66-1.51,3.3-2.38,4.86ZM173.54,293.39c-1.52-.8-3.05-1.62-4.58-2.45l2.46-4.51c1.51.82,3.01,1.62,4.52,2.42l-2.39,4.54ZM164.43,288.44c-1.5-.84-3.01-1.69-4.52-2.56l2.56-4.45c1.49.85,2.97,1.7,4.46,2.53l-2.5,4.48ZM366.28,288.13l-4.9-1.53c.48-1.55.9-3.15,1.25-4.76l5.02,1.07c-.38,1.76-.84,3.52-1.37,5.22ZM155.43,283.26c-1.48-.88-2.96-1.77-4.44-2.67l2.66-4.39c1.47.89,2.93,1.77,4.4,2.64l-2.62,4.42ZM146.57,277.88c-1.46-.91-2.92-1.84-4.38-2.77l2.77-4.32c1.44.93,2.88,1.84,4.33,2.74l-2.72,4.36ZM368.55,277.61l-5.09-.64c.2-1.62.35-3.28.42-4.94l5.13.25c-.09,1.79-.24,3.58-.46,5.33ZM137.83,272.28c-1.44-.95-2.88-1.9-4.31-2.87l2.86-4.26c1.43.96,2.85,1.91,4.27,2.84l-2.82,4.29ZM363.94,267.07c-.04-1.64-.13-3.31-.28-4.99l5.11-.44c.16,1.79.25,3.56.3,5.3l-5.13.13ZM129.23,266.48c-1.42-.98-2.83-1.97-4.25-2.97l2.97-4.19c1.4.99,2.8,1.97,4.2,2.94l-2.92,4.22ZM120.76,260.49c-1.4-1.02-2.8-2.04-4.18-3.07l3.06-4.13c1.37,1.02,2.75,2.03,4.14,3.04l-3.01,4.16ZM363.08,257.12c-.24-1.63-.52-3.29-.85-4.95l5.04-1c.35,1.75.64,3.49.89,5.21l-5.08.74ZM112.44,254.31c-1.38-1.05-2.75-2.11-4.11-3.17l3.16-4.05c1.34,1.05,2.7,2.09,4.06,3.13l-3.11,4.09ZM104.26,247.93c-1.36-1.08-2.7-2.17-4.04-3.26l3.25-3.97c1.32,1.08,2.64,2.15,3.98,3.22l-3.2,4.02ZM361.13,247.25c-.4-1.61-.84-3.23-1.32-4.87l4.92-1.45c.5,1.71.96,3.4,1.38,5.08l-4.98,1.24ZM96.23,241.36c-1.33-1.12-2.65-2.24-3.96-3.36l3.35-3.89c1.29,1.11,2.59,2.22,3.91,3.32l-3.29,3.94ZM358.29,237.56c-.53-1.58-1.1-3.17-1.7-4.77l4.8-1.81c.63,1.66,1.22,3.31,1.77,4.94l-4.87,1.64ZM88.35,234.6c-1.3-1.15-2.59-2.3-3.87-3.45l3.44-3.81c1.26,1.14,2.54,2.28,3.82,3.41l-3.39,3.86ZM354.72,228.08c-.64-1.55-1.31-3.1-2.02-4.66l4.68-2.12c.73,1.61,1.42,3.21,2.09,4.81l-4.74,1.97ZM80.65,227.64c-1.27-1.18-2.53-2.36-3.78-3.55l3.53-3.72c1.24,1.18,2.48,2.34,3.74,3.51l-3.49,3.76ZM73.13,220.49c-1.25-1.22-2.48-2.43-3.69-3.65l3.64-3.62c1.2,1.21,2.41,2.41,3.64,3.6l-3.58,3.67ZM350.54,218.82c-.73-1.51-1.5-3.02-2.29-4.54l4.55-2.37c.81,1.56,1.6,3.12,2.35,4.67l-4.62,2.25ZM65.79,213.14c-1.21-1.25-2.41-2.5-3.59-3.75l3.73-3.53c1.17,1.24,2.35,2.47,3.55,3.7l-3.68,3.57ZM345.84,209.79c-.81-1.48-1.65-2.95-2.52-4.43l4.43-2.59c.88,1.52,1.74,3.03,2.58,4.53l-4.49,2.49ZM58.66,205.59c-1.18-1.28-2.34-2.57-3.48-3.85l3.83-3.42c1.13,1.27,2.28,2.53,3.44,3.8l-3.78,3.47ZM340.7,200.99c-.88-1.44-1.79-2.88-2.72-4.32l4.32-2.78c.95,1.48,1.87,2.94,2.78,4.41l-4.38,2.69ZM51.75,197.83c-1.14-1.32-2.26-2.64-3.37-3.96l3.94-3.29c1.09,1.3,2.2,2.6,3.32,3.9l-3.89,3.35ZM335.17,192.4c-.94-1.4-1.91-2.8-2.89-4.21l4.2-2.95c1.01,1.43,1.99,2.86,2.95,4.29l-4.26,2.86ZM45.08,189.86c-1.1-1.36-2.18-2.71-3.25-4.07l4.05-3.16c1.04,1.33,2.11,2.67,3.19,4l-3.99,3.23ZM329.31,184.04c-1-1.37-2.02-2.73-3.05-4.1l4.1-3.1c1.05,1.39,2.09,2.78,3.1,4.17l-4.15,3.03ZM38.66,181.68c-1.05-1.39-2.09-2.78-3.1-4.17l4.14-3.03c1,1.37,2.02,2.73,3.06,4.11l-4.1,3.1ZM323.13,175.89c-1.04-1.33-2.11-2.66-3.19-4l3.99-3.23c1.1,1.35,2.18,2.71,3.24,4.06l-4.04,3.17ZM32.53,173.27c-1.01-1.43-1.99-2.86-2.95-4.29l4.26-2.87c.95,1.4,1.91,2.81,2.9,4.21l-4.2,2.95ZM316.69,167.95c-1.09-1.3-2.2-2.6-3.32-3.9l3.89-3.35c1.14,1.32,2.26,2.63,3.37,3.95l-3.93,3.3ZM26.72,164.63c-.95-1.47-1.87-2.95-2.77-4.41l4.37-2.69c.88,1.44,1.79,2.88,2.72,4.32l-4.32,2.78ZM309.99,160.21c-1.13-1.27-2.28-2.53-3.44-3.8l3.78-3.47c1.18,1.28,2.34,2.57,3.48,3.85l-3.83,3.42ZM21.27,155.74c-.89-1.52-1.75-3.03-2.58-4.54l4.5-2.48c.81,1.47,1.65,2.95,2.51,4.43l-4.43,2.59ZM303.07,152.66c-1.17-1.24-2.35-2.47-3.54-3.7l3.68-3.58c1.21,1.25,2.41,2.5,3.6,3.75l-3.73,3.52ZM16.22,146.61c-.81-1.56-1.6-3.12-2.35-4.67l4.62-2.25c.73,1.51,1.5,3.03,2.29,4.54l-4.55,2.37ZM295.93,145.32c-1.2-1.2-2.42-2.4-3.65-3.6l3.58-3.67c1.24,1.21,2.47,2.43,3.69,3.65l-3.63,3.63ZM288.6,138.16c-1.24-1.18-2.48-2.34-3.74-3.51l3.49-3.76c1.27,1.18,2.53,2.36,3.78,3.55l-3.53,3.72ZM11.65,137.2c-.73-1.61-1.42-3.21-2.08-4.8l4.74-1.97c.64,1.55,1.32,3.1,2.02,4.66l-4.68,2.11ZM281.07,131.2c-1.26-1.14-2.53-2.27-3.82-3.41l3.39-3.85c1.3,1.15,2.6,2.3,3.87,3.46l-3.44,3.8ZM7.64,127.52c-.63-1.66-1.21-3.31-1.76-4.94l4.87-1.64c.53,1.58,1.1,3.17,1.7,4.77l-4.8,1.81ZM273.39,124.43c-1.29-1.11-2.59-2.22-3.91-3.32l3.29-3.94c1.33,1.12,2.65,2.23,3.96,3.36l-3.34,3.9ZM265.53,117.84c-1.32-1.08-2.65-2.15-3.99-3.22l3.2-4.02c1.36,1.08,2.7,2.17,4.04,3.26l-3.25,3.97ZM4.3,117.57c-.5-1.71-.96-3.4-1.37-5.08l4.98-1.23c.4,1.61.84,3.24,1.32,4.87l-4.93,1.44ZM257.51,111.45c-1.34-1.05-2.7-2.09-4.06-3.13l3.1-4.09c1.38,1.05,2.75,2.11,4.12,3.17l-3.16,4.05ZM1.78,107.34c-.35-1.76-.64-3.5-.89-5.22l5.08-.73c.23,1.63.52,3.28.85,4.95l-5.04,1ZM249.35,105.24c-1.37-1.02-2.75-2.03-4.14-3.04l3.01-4.16c1.4,1.02,2.8,2.04,4.18,3.07l-3.06,4.13ZM241.04,99.22c-1.4-.99-2.8-1.97-4.2-2.94l2.91-4.23c1.42.98,2.84,1.97,4.25,2.97l-2.97,4.19ZM.29,96.86c-.15-1.79-.25-3.56-.29-5.31l5.13-.12c.03,1.64.13,3.3.27,4.99l-5.11.44ZM232.61,93.39c-1.42-.96-2.85-1.9-4.27-2.84l2.82-4.29c1.44.95,2.88,1.9,4.32,2.87l-2.86,4.26ZM224.04,87.76c-1.44-.92-2.89-1.83-4.33-2.74l2.72-4.36c1.46.91,2.93,1.84,4.38,2.77l-2.77,4.32ZM5.2,86.47l-5.13-.25c.09-1.79.25-3.58.47-5.33l5.09.65c-.21,1.62-.35,3.28-.43,4.94ZM215.35,82.34c-1.47-.89-2.94-1.77-4.4-2.64l2.62-4.42c1.48.87,2.96,1.76,4.44,2.66l-2.66,4.39ZM206.52,77.12c-1.49-.85-2.97-1.7-4.46-2.53l2.5-4.48c1.5.84,3.01,1.69,4.52,2.56l-2.56,4.45ZM6.45,76.66l-5.02-1.08c.38-1.77.84-3.52,1.38-5.21l4.9,1.54c-.49,1.54-.91,3.14-1.26,4.75ZM197.57,72.12c-1.51-.82-3.02-1.62-4.52-2.42l2.39-4.54c1.52.8,3.05,1.62,4.58,2.45l-2.45,4.51ZM188.5,67.35c-1.53-.78-3.06-1.54-4.58-2.3l2.27-4.6c1.54.76,3.09,1.54,4.64,2.32l-2.33,4.58ZM9.41,67.32l-4.72-2.03c.71-1.65,1.51-3.29,2.39-4.86l4.49,2.5c-.79,1.42-1.51,2.9-2.16,4.39ZM179.31,62.82c-1.55-.74-3.09-1.46-4.64-2.17l2.15-4.66c1.56.72,3.13,1.45,4.7,2.2l-2.21,4.63ZM14.22,58.72l-4.25-2.88.08-.12c1-1.41,2.11-2.81,3.27-4.15l3.86,3.38c-1.06,1.21-2.05,2.47-2.97,3.76ZM170,58.53c-1.57-.69-3.14-1.38-4.69-2.04l2.02-4.72c1.58.68,3.17,1.37,4.76,2.07l-2.08,4.69ZM160.59,54.51c-1.59-.65-3.17-1.29-4.75-1.9l1.87-4.78c1.6.63,3.21,1.27,4.82,1.93l-1.95,4.75ZM20.6,51.46l-3.49-3.76c1.3-1.21,2.7-2.38,4.15-3.47l3.1,4.1c-1.31.99-2.58,2.05-3.75,3.14ZM151.06,50.78c-1.61-.6-3.21-1.19-4.81-1.76l1.72-4.83c1.62.58,3.25,1.17,4.88,1.78l-1.8,4.81ZM141.43,47.35c-1.63-.55-3.25-1.08-4.86-1.59l1.56-4.89c1.64.52,3.29,1.07,4.94,1.62l-1.63,4.87ZM28.4,45.54l-2.7-4.36c1.49-.93,3.07-1.81,4.69-2.63l2.32,4.58c-1.48.75-2.93,1.56-4.3,2.41ZM131.68,44.25c-1.64-.49-3.28-.96-4.91-1.42l1.38-4.94c1.66.46,3.33.95,5,1.45l-1.47,4.92ZM121.84,41.5c-1.66-.43-3.31-.84-4.96-1.23l1.18-4.99c1.67.4,3.36.81,5.05,1.25l-1.28,4.97ZM37.21,41.07l-1.95-4.75c1.61-.66,3.29-1.29,5-1.85l1.61,4.87c-1.59.53-3.16,1.11-4.66,1.73ZM111.91,39.15c-1.68-.36-3.35-.7-5-1.01l.97-5.04c1.69.33,3.39.67,5.11,1.04l-1.07,5.02ZM46.66,37.93l-1.3-4.97c1.68-.44,3.41-.84,5.17-1.19l1,5.03c-1.66.33-3.28.71-4.87,1.12ZM101.9,37.24c-1.69-.28-3.37-.54-5.04-.77l.72-5.08c1.71.24,3.43.51,5.16.79l-.84,5.06ZM56.48,35.95l-.74-5.08c1.71-.25,3.46-.46,5.24-.64l.5,5.11c-1.69.17-3.36.37-5,.61ZM91.82,35.83c-1.7-.19-3.39-.36-5.06-.5l.43-5.11c1.72.14,3.46.32,5.2.52l-.58,5.1ZM81.69,34.98c-1.71-.09-3.4-.15-5.07-.19l.11-5.13c1.72.04,3.47.1,5.24.19l-.28,5.13ZM66.51,34.95l-.28-5.12c1.72-.1,3.47-.16,5.25-.19l.08,5.13c-1.71.03-3.39.09-5.05.18Z"/><circle class="uuid-2b6e7861-38cc-42fd-b596-81217b072247" cx="106.42" cy="35.85" r="35.85" transform="translate(53.99 135.16) rotate(-80.78)"/><circle class="uuid-45aa3c83-00bf-43bc-b8ba-8b18508d9769" cx="241.89" cy="315.04" r="21.29"/><path d="M241.89,338.9c-13.15,0-23.86-10.7-23.86-23.86s10.7-23.86,23.86-23.86,23.86,10.7,23.86,23.86-10.7,23.86-23.86,23.86ZM241.89,296.32c-10.32,0-18.72,8.4-18.72,18.73s8.4,18.72,18.72,18.72,18.73-8.4,18.73-18.72-8.4-18.73-18.73-18.73Z"/></svg>