<?xml version="1.0" encoding="UTF-8"?><svg id="uuid-83d18850-a337-4f17-88b4-1fa0a44c6d6b" xmlns="http://www.w3.org/2000/svg" viewBox="0 0 423.84 356.6"><defs><style>.uuid-902c02e1-7799-455d-bc1f-d6035faa64be{fill:#282d33;}.uuid-e0e7f5a9-9882-4500-8b36-9ddc6fcf0d36{fill:#0e74bb;}.uuid-fd589cce-26a7-46c7-88cf-759313b6abdd{fill:#99b9ff;}.uuid-1dc461bc-b9b8-4e00-b668-65ceef70fe8b{fill:#fff;}.uuid-fd982472-fd26-4a8e-b859-df2b67d792ba{fill:#080717;}.uuid-d4b6c348-3d8f-4c02-9d55-7b5b37909ec6{fill:#1d1d1b;}</style></defs><path class="uuid-902c02e1-7799-455d-bc1f-d6035faa64be" d="M98.61,319.65c-2.15,0-4.24-.65-6.04-1.91-2.34-1.63-3.89-4.07-4.38-6.88l-30.66-176.37c-.7-4.05,1.63-7.84,5.2-8.46l291.31-53.41c3.58-.63,7.06,2.16,7.76,6.21l30.69,176.53c.99,5.7-2.84,11.19-8.53,12.23l-283.42,51.88c-.64.12-1.29.18-1.93.18ZM355.06,75.47c-.17,0-.34.01-.5.04L63.25,128.93c-1.98.35-3.24,2.62-2.82,5.06l30.66,176.37c.35,2.02,1.47,3.79,3.16,4.96,1.69,1.18,3.73,1.62,5.75,1.25l283.42-51.88c4.11-.75,6.87-4.72,6.16-8.84l-30.69-176.53c-.39-2.24-2.05-3.86-3.84-3.86Z"/><path d="M78.03,138.57c.31,1.78-.88,3.46-2.66,3.77-1.77.31-3.46-.88-3.77-2.65-.31-1.77.88-3.46,2.65-3.77,1.78-.31,3.46.88,3.77,2.65Z"/><path d="M87.47,136.92c.31,1.78-.88,3.46-2.66,3.77-1.78.31-3.46-.88-3.77-2.66-.31-1.77.88-3.46,2.65-3.77s3.46.88,3.77,2.65Z"/><path d="M96.9,135.28c.31,1.78-.88,3.46-2.65,3.77-1.78.31-3.46-.88-3.77-2.65-.31-1.77.88-3.46,2.66-3.77,1.77-.31,3.46.88,3.77,2.65Z"/><rect class="uuid-d4b6c348-3d8f-4c02-9d55-7b5b37909ec6" x="324.76" y="88.9" width="2.94" height="7.48" transform="translate(-11.04 57.21) rotate(-9.86)"/><rect class="uuid-d4b6c348-3d8f-4c02-9d55-7b5b37909ec6" x="322.49" y="91.17" width="7.48" height="2.94" transform="translate(-11.07 57.44) rotate(-9.9)"/><polygon class="uuid-d4b6c348-3d8f-4c02-9d55-7b5b37909ec6" points="339.08 86.37 336.09 86.89 336.61 89.88 339.6 89.36 339.08 86.37 339.08 86.37"/><polygon class="uuid-d4b6c348-3d8f-4c02-9d55-7b5b37909ec6" points="339.93 91.22 336.93 91.74 337.45 94.73 340.45 94.21 339.93 91.22 339.93 91.22"/><polygon class="uuid-d4b6c348-3d8f-4c02-9d55-7b5b37909ec6" points="343.97 85.52 340.98 86.04 341.5 89.03 344.49 88.51 343.97 85.52 343.97 85.52"/><polygon class="uuid-d4b6c348-3d8f-4c02-9d55-7b5b37909ec6" points="344.82 90.37 341.82 90.89 342.34 93.88 345.34 93.36 344.82 90.37 344.82 90.37"/><path class="uuid-e0e7f5a9-9882-4500-8b36-9ddc6fcf0d36" d="M398.14,112.43h-101.44c-14.19,0-25.7,11.51-25.7,25.7h0c0,13.28,10.07,24.2,22.99,25.56v13.67l14.4-13.53h89.75c14.19,0,25.7-11.5,25.7-25.7h0c0-14.19-11.51-25.7-25.7-25.7Z"/><rect class="uuid-902c02e1-7799-455d-bc1f-d6035faa64be" x="300.09" y="131.24" width="94.68" height="2.94"/><rect class="uuid-902c02e1-7799-455d-bc1f-d6035faa64be" x="300.09" y="142.06" width="94.68" height="2.94"/><path class="uuid-fd589cce-26a7-46c7-88cf-759313b6abdd" d="M139.53,274.63H37.17c-14.32,0-25.93-11.61-25.93-25.93h0c0-13.4,10.16-24.42,23.2-25.79v-13.79l14.53,13.65h90.56c14.32,0,25.93,11.61,25.93,25.93h0c0,14.32-11.61,25.93-25.93,25.93Z"/><rect class="uuid-902c02e1-7799-455d-bc1f-d6035faa64be" x="40.58" y="252.68" width="95.54" height="2.94"/><rect class="uuid-902c02e1-7799-455d-bc1f-d6035faa64be" x="40.58" y="241.76" width="95.54" height="2.94"/><path d="M134.57,60.54s19.43-10.97,16.44-16.87c-3.71-7.35-15.31-.33-15.42,5.32-.11,5.65,6.61-8.47-.64-10.71-5.66-1.75-12.09,4.96-.39,22.26Z"/><path class="uuid-e0e7f5a9-9882-4500-8b36-9ddc6fcf0d36" d="M89.44,57.61l-3.5,6.9c-1.93,3.81-1.84,7.84.2,9l103.47,56.78,10.49-20.71-103.47-56.78c-2.04-1.16-5.26.99-7.19,4.8Z"/><path class="uuid-fd982472-fd26-4a8e-b859-df2b67d792ba" d="M89.33,75.32l10.49-20.71-3.19-1.81c-2.04-1.16-5.26.99-7.19,4.8l-3.5,6.9c-1.93,3.81-1.84,7.84.2,9l3.19,1.81Z"/><polygon class="uuid-1dc461bc-b9b8-4e00-b668-65ceef70fe8b" points="189.73 130.38 216.02 132.2 200.24 109.63 189.73 130.38"/><polygon class="uuid-fd982472-fd26-4a8e-b859-df2b67d792ba" points="203.66 131.35 216.02 132.2 208.59 121.58 203.66 131.35"/><path class="uuid-902c02e1-7799-455d-bc1f-d6035faa64be" d="M205.17,44.36l-14.53-14.53,9.34-9.34c2.86-2.86,7.52-2.86,10.38,0l4.15,4.15c1.38,1.38,2.14,3.22,2.14,5.19s-.76,3.81-2.14,5.19l-9.34,9.34ZM194.81,29.83l10.36,10.37,7.26-7.26c.83-.82,1.28-1.93,1.28-3.11s-.45-2.28-1.28-3.11l-4.15-4.15c-1.71-1.71-4.5-1.71-6.22,0l-7.26,7.26Z"/><rect class="uuid-902c02e1-7799-455d-bc1f-d6035faa64be" x="142.93" y="58.69" width="63.8" height="2.94" transform="translate(8.67 141.25) rotate(-45)"/><polygon class="uuid-902c02e1-7799-455d-bc1f-d6035faa64be" points="139.29 95.71 144.74 75.74 190.13 30.35 192.21 32.43 147.37 77.26 143.48 91.52 157.74 87.63 202.57 42.79 204.65 44.87 159.26 90.26 139.29 95.71"/><rect class="uuid-902c02e1-7799-455d-bc1f-d6035faa64be" x="199.81" y="20.44" width="2.94" height="11" transform="translate(40.62 149.94) rotate(-45)"/><path class="uuid-fd982472-fd26-4a8e-b859-df2b67d792ba" d="M220.76,149.2c.22,0,.51.04.83.07.35.04.71.08,1,.1.52.04,1.05.08,1.59.14,19.77,1.89,38.71,19.18,53.93,33.07,5.71,5.21,10.64,9.71,14.93,12.76.84.59,1.26,1.01,1.46,1.24-.19.21-.56.57-1.27,1.06-4.34,3.05-9.34,7.61-15.13,12.89-15.22,13.89-34.17,31.18-53.96,33.07-.52.05-1.04.1-1.5.13-.36.02-.71.06-1.07.1-.31.04-.61.07-.83.07-.09,0-.19,0-.28-.01-.18-.01-.37-.02-.55-.03-.02,0-.03,0-.05,0s-.03,0-.05,0c-.18,0-.37.01-.55.03-.09,0-.19.01-.28.01-.22,0-.52-.04-.83-.07-.35-.04-.71-.08-1-.1-.53-.04-1.05-.08-1.6-.14-19.77-1.89-38.71-19.18-53.93-33.07-6.4-5.84-11.92-10.88-16.57-13.87-.06-.04-.12-.07-.17-.11.05-.04.11-.07.17-.11,4.65-2.99,10.17-8.03,16.57-13.87,15.22-13.89,34.17-31.18,53.96-33.07.52-.05,1.04-.1,1.5-.13.35-.02.71-.06,1.06-.1.31-.04.61-.07.83-.07.09,0,.19,0,.28.01.18.01.37.02.55.03.02,0,.03,0,.05,0s.03,0,.05,0c.18,0,.37-.01.55-.03.09,0,.19-.01.28-.01h0ZM220.76,146.26c-.3,0-.59.04-.88.04-.3,0-.59-.04-.88-.04-.69,0-1.37.14-2.05.18-.55.04-1.1.09-1.65.14-29.32,2.8-56.63,37.63-71.82,47.39-3.03,1.95-3.03,3.22,0,5.17,15.18,9.76,42.5,44.58,71.82,47.39.55.06,1.1.1,1.65.14.68.04,1.36.18,2.05.18.3,0,.59-.04.88-.04.3,0,.58.04.88.04.69,0,1.37-.14,2.05-.18.55-.04,1.1-.09,1.65-.14,28.47-2.72,55.06-35.64,70.47-46.48,3.62-2.55,3.52-4.48-.18-7.11-15.44-10.97-41.93-43.64-70.29-46.35-.55-.06-1.1-.1-1.65-.14-.69-.04-1.36-.18-2.05-.18h0Z"/><path class="uuid-fd982472-fd26-4a8e-b859-df2b67d792ba" d="M237.3,199.22c-7.1,0-12.85-5.75-12.85-12.85,0-5.98,4.11-10.96,9.64-12.4-4.23-2.76-9.27-4.38-14.7-4.38-14.89,0-26.96,12.07-26.96,26.96s12.07,26.95,26.96,26.95,26.95-12.07,26.95-26.95c0-.35-.04-.68-.05-1.02-2.32,2.28-5.49,3.69-9,3.69Z"/><polygon class="uuid-fd982472-fd26-4a8e-b859-df2b67d792ba" points="379.8 262.46 342.39 256.01 304.98 249.55 321.75 283.61 338.52 317.67 347.55 291.42 369.38 307.74 379 294.87 357.17 278.55 379.8 262.46"/><rect class="uuid-902c02e1-7799-455d-bc1f-d6035faa64be" x="302.78" y="221.35" width="7.18" height="2.94" transform="translate(11.85 461.07) rotate(-75)"/><rect class="uuid-902c02e1-7799-455d-bc1f-d6035faa64be" x="302.78" y="221.35" width="7.18" height="2.94" transform="translate(11.85 461.07) rotate(-75)"/><rect class="uuid-902c02e1-7799-455d-bc1f-d6035faa64be" x="283.09" y="225.08" width="2.94" height="7.18" transform="translate(-78.33 268.35) rotate(-45.02)"/><rect class="uuid-902c02e1-7799-455d-bc1f-d6035faa64be" x="275.14" y="249" width="7.18" height="2.94" transform="translate(-55.33 80.68) rotate(-15)"/><rect class="uuid-902c02e1-7799-455d-bc1f-d6035faa64be" x="291.11" y="264.96" width="7.18" height="2.94" transform="translate(-38.72 482.44) rotate(-75.05)"/><rect class="uuid-902c02e1-7799-455d-bc1f-d6035faa64be" x="315.02" y="256.99" width="2.94" height="7.18" transform="translate(-91.53 300.4) rotate(-45.04)"/><rect class="uuid-902c02e1-7799-455d-bc1f-d6035faa64be" x="318.74" y="237.3" width="7.18" height="2.94" transform="translate(-50.95 91.91) rotate(-15.05)"/><path class="uuid-d4b6c348-3d8f-4c02-9d55-7b5b37909ec6" d="M73.93,2.77l1.19.95c.28.22.75.25,1.05.05l.65-.36c.32-.15.55-.56.51-.91l-.17-1.52c-.04-.35.22-.67.57-.71L80.07,0c.35-.04.67.22.71.57l.17,1.52c.04.35.35.7.7.77l.71.2c.33.12.78,0,1-.28l.95-1.19c.22-.28.63-.32.91-.1l1.85,1.47c.28.22.32.63.1.9l-.95,1.19c-.22.28-.24.75-.05,1.04l.36.65c.15.32.56.55.91.51l1.52-.17c.35-.04.67.22.71.57l.27,2.35c.04.35-.21.67-.57.71l-1.51.17c-.35.04-.7.36-.77.7l-.21.71c-.12.33,0,.78.28,1.01l1.19.95c.28.22.32.63.1.9l-1.47,1.84c-.22.28-.63.32-.9.1l-1.19-.95c-.28-.22-.75-.24-1.04-.05l-.65.36c-.32.15-.55.56-.51.91l.17,1.51c.04.35-.22.67-.57.71l-2.34.27c-.35.04-.67-.21-.71-.56l-.17-1.52c-.04-.35-.35-.7-.7-.77l-.72-.21c-.33-.12-.79,0-1.01.28l-.95,1.19c-.22.28-.63.32-.9.11l-1.85-1.47c-.28-.22-.32-.63-.1-.91l.95-1.19c.22-.28.24-.75.05-1.04l-.36-.65c-.15-.32-.56-.55-.91-.51l-1.52.17c-.35.04-.67-.22-.71-.57l-.26-2.34c-.04-.35.22-.67.57-.71l1.52-.17c.35-.04.7-.36.77-.7l.21-.72c.12-.33,0-.78-.29-1.01l-1.19-.95c-.28-.22-.32-.63-.1-.9l1.47-1.84c.22-.28.63-.32.9-.1ZM78.08,12.37c1.34,1.07,3.3.85,4.37-.5,1.07-1.34.85-3.3-.5-4.37-1.34-1.07-3.3-.85-4.37.5-1.07,1.34-.84,3.3.5,4.37Z"/><path class="uuid-fd982472-fd26-4a8e-b859-df2b67d792ba" d="M114.01,41.67l-2.93-.32s.08-.73.07-1.92l2.94-.02c.01,1.38-.08,2.23-.09,2.27Z"/><path class="uuid-fd982472-fd26-4a8e-b859-df2b67d792ba" d="M110.81,35.23c-.22-1.4-.53-2.77-.94-4.09l2.81-.87c.45,1.46.8,2.97,1.04,4.52l-2.91.45ZM108.31,27.27c-.63-1.25-1.36-2.44-2.18-3.53l2.35-1.76c.92,1.23,1.75,2.57,2.46,3.97l-2.63,1.32ZM103.35,20.67c-1-.92-2.11-1.78-3.29-2.53l1.59-2.48c1.32.85,2.57,1.81,3.7,2.85l-2,2.16Z"/><path class="uuid-fd982472-fd26-4a8e-b859-df2b67d792ba" d="M96.35,16.14c-.6-.26-1.22-.51-1.86-.75l1.01-2.76c.71.26,1.39.53,2.04.82l-1.19,2.69Z"/><path class="uuid-fd982472-fd26-4a8e-b859-df2b67d792ba" d="M55.53,199.69s-.24-1.9-.37-2.88c-1.22-9.55-9.95-16.3-19.5-15.08-3.15.4-14.14,1.81-17.29,2.21-9.55,1.22-16.3,9.95-15.08,19.5.13.98.37,2.88.37,2.88l51.87-6.63Z"/><path class="uuid-fd982472-fd26-4a8e-b859-df2b67d792ba" d="M35.97,161.19c.81,6.37-3.69,12.19-10.05,13-6.37.81-12.19-3.69-13-10.05-.81-6.37,3.69-12.19,10.05-13,6.37-.81,12.19,3.69,13,10.05Z"/><path class="uuid-fd589cce-26a7-46c7-88cf-759313b6abdd" d="M28.37,356.6c-.7,0-1.41-.08-2.12-.24-2.49-.56-4.61-2.06-5.98-4.21l-18.8-29.7c-2.82-4.45-1.49-10.37,2.96-13.18l29.7-18.8c4.45-2.82,10.37-1.49,13.18,2.96l18.8,29.7c2.82,4.45,1.49,10.37-2.96,13.18l-29.7,18.8c-1.55.98-3.3,1.48-5.09,1.48ZM39.24,291.94c-1.21,0-2.43.33-3.52,1.02l-29.7,18.8c-3.08,1.95-4,6.04-2.05,9.12l18.8,29.7c1.95,3.08,6.04,4,9.12,2.05l29.7-18.8c3.08-1.95,4-6.04,2.05-9.12l-18.8-29.7c-1.26-1.99-3.4-3.07-5.6-3.07Z"/><path class="uuid-fd589cce-26a7-46c7-88cf-759313b6abdd" d="M28.08,315.15c2.19,3.45,1.16,8.03-2.3,10.21s-8.03,1.16-10.21-2.3c-2.19-3.45-1.16-8.03,2.3-10.21,3.45-2.19,8.03-1.16,10.21,2.3Z"/><path class="uuid-fd589cce-26a7-46c7-88cf-759313b6abdd" d="M21.52,351.37l-4.27-6.74,1.11-4.95c.82-3.66,4.46-5.96,8.12-5.14h0c3.47.78,6.91-1.4,7.69-4.86l4.37-19.44c1.04-4.62,5.62-7.52,10.24-6.48l3.88.87,12.22,19.3c2.39,3.77,1.26,8.77-2.51,11.15l-29.7,18.8c-3.77,2.39-8.77,1.26-11.15-2.51Z"/></svg>