<?xml version="1.0" encoding="UTF-8"?><svg id="uuid-4ee6cc98-f08c-4867-b2ef-99f015ac224c" xmlns="http://www.w3.org/2000/svg" viewBox="0 0 444.32 347.29"><defs><style>.uuid-5454ff7d-8119-4dc7-b39c-ae558aa542ee{fill:#0e74bb;}.uuid-797ac5e4-939f-4167-b0c5-2655a4538a87{fill:#99b9ff;}.uuid-979c689a-6d72-4438-8fef-1879667b690a{fill:#fff;}.uuid-bf0f311e-0b28-467e-b619-a213e1447514{fill:#080717;}</style></defs><path d="M357.09,232.04h-17.62c-3.46,0-6.28-2.83-6.28-6.31v-11.37c0-2.02-1.62-4.26-3.54-4.9l-5.24-2.16c-1.87-.92-4.64-.47-6.02.93l-8.06,8.06c-1.18,1.19-2.76,1.84-4.45,1.84s-3.27-.65-4.45-1.84l-12.46-12.44c-2.45-2.47-2.45-6.47,0-8.92l8.04-8.04c1.4-1.41,1.86-4.19.98-5.96l-2.16-5.25c-.66-1.97-2.95-3.61-4.93-3.61h-11.39c-3.47,0-6.3-2.83-6.3-6.31v-17.58c0-3.48,2.83-6.31,6.3-6.31h11.39c1.99,0,4.27-1.64,4.89-3.52l2.15-5.24c.92-1.87.47-4.65-.93-6.05l-8.04-8.04c-2.45-2.48-2.44-6.47,0-8.91l12.46-12.46c2.45-2.43,6.44-2.44,8.9,0l8.06,8.06c1.39,1.4,4.16,1.85,5.92.96l5.24-2.18c1.99-.65,3.64-2.93,3.64-4.91v-11.37c0-3.48,2.82-6.32,6.28-6.32h17.62c3.48,0,6.31,2.83,6.31,6.32v11.37c0,1.98,1.64,4.26,3.51,4.87l5.23,2.18c1.89.94,4.61.5,6.05-.92l8.04-8.05c2.47-2.44,6.47-2.44,8.92,0l12.43,12.47c1.18,1.17,1.83,2.74,1.84,4.42,0,1.69-.65,3.29-1.84,4.48l-8.05,8.04c-1.39,1.39-1.83,4.17-.95,5.95l2.16,5.23c.66,2.01,2.91,3.62,4.95,3.62h11.37c3.47,0,6.3,2.83,6.3,6.31v17.58c0,3.48-2.83,6.31-6.3,6.31h-11.37c-2,0-4.3,1.64-4.92,3.51l-2.15,5.25c-.93,1.88-.48,4.66.91,6.06l8.05,8.04c1.18,1.17,1.84,2.75,1.84,4.44,0,1.7-.65,3.28-1.84,4.47l-12.43,12.44c-1.17,1.18-2.75,1.84-4.44,1.84h-.02c-1.69,0-3.28-.65-4.47-1.84l-8.05-8.05c-1.43-1.41-4.15-1.86-5.96-.97l-5.2,2.17c-2.01.68-3.62,2.92-3.62,4.94v11.37c0,3.48-2.83,6.31-6.31,6.31ZM322.18,203.78c1.22,0,2.42.25,3.47.77l5.05,2.09c3.04,1.01,5.5,4.42,5.5,7.72v11.37c0,1.82,1.46,3.3,3.26,3.3h17.62c1.82,0,3.3-1.48,3.3-3.3v-11.37c0-3.3,2.45-6.71,5.57-7.76l5.02-2.09c2.86-1.41,6.99-.73,9.33,1.58l8.05,8.06c.62.62,1.45.96,2.34.96h0c.88,0,1.7-.34,2.31-.95l12.43-12.45c.62-.62.96-1.45.96-2.34,0-.88-.34-1.7-.95-2.31l-8.05-8.05c-2.32-2.33-2.99-6.47-1.52-9.43l2.07-5.05c1-3.03,4.41-5.48,7.74-5.48h11.37c1.81,0,3.29-1.48,3.29-3.29v-17.58c0-1.82-1.48-3.3-3.29-3.3h-11.37c-3.33,0-6.75-2.46-7.78-5.59l-2.08-5.03c-1.42-2.87-.75-7.01,1.56-9.32l8.05-8.04c.62-.62.96-1.46.96-2.34,0-.88-.34-1.69-.95-2.3l-12.44-12.47c-1.26-1.25-3.39-1.25-4.67,0l-8.04,8.05c-2.35,2.32-6.49,2.99-9.43,1.52l-5.02-2.09c-3.02-.99-5.47-4.39-5.47-7.7v-11.37c0-1.79-1.51-3.31-3.3-3.31h-17.62c-1.8,0-3.26,1.48-3.26,3.31v11.37c0,3.31-2.46,6.71-5.61,7.74l-5.03,2.09c-2.86,1.44-7,.77-9.31-1.57l-8.05-8.05c-1.28-1.27-3.36-1.26-4.65,0l-12.45,12.46c-1.28,1.27-1.27,3.36,0,4.65l8.04,8.04c2.33,2.33,3.01,6.47,1.54,9.42l-2.07,5.04c-1,3.03-4.4,5.49-7.72,5.49h-11.39c-1.78,0-3.29,1.51-3.29,3.3v17.58c0,1.82,1.48,3.29,3.29,3.29h11.39c3.3,0,6.71,2.45,7.75,5.58l2.08,5.05c1.43,2.84.75,6.99-1.58,9.33l-8.05,8.05c-1.26,1.26-1.26,3.39,0,4.66l12.45,12.44c1.23,1.24,3.41,1.23,4.64,0l8.06-8.05c1.48-1.5,3.72-2.32,5.92-2.32ZM348.29,181.65c-13.62,0-24.7-11.08-24.7-24.69s11.08-24.69,24.7-24.69,24.69,11.08,24.69,24.69-11.07,24.69-24.69,24.69ZM348.29,135.28c-11.96,0-21.69,9.73-21.69,21.68s9.73,21.68,21.69,21.68,21.67-9.72,21.67-21.68-9.72-21.68-21.67-21.68Z"/><path class="uuid-bf0f311e-0b28-467e-b619-a213e1447514" d="M309.89,263.6c4.58-1.45,7.85-7.1,7.34-12.66l-18.19-198.33c-.33-3.64-2.84-6.96-5.59-7.42L3.94.04C1.18-.44-.52,3.99.14,9.94l36.01,323.16c1.02,9.17,5.64,15.45,10.27,13.99l263.47-83.48Z"/><path class="uuid-979c689a-6d72-4438-8fef-1879667b690a" d="M22.93,20.85c.35,3.17-.79,5.55-2.54,5.32-1.75-.23-3.46-3.02-3.82-6.22-.35-3.2.78-5.58,2.54-5.32,1.76.26,3.47,3.05,3.82,6.22Z"/><path class="uuid-979c689a-6d72-4438-8fef-1879667b690a" d="M32.27,22.17c.35,3.13-.8,5.48-2.55,5.25-1.75-.23-3.46-2.98-3.81-6.14-.35-3.16.79-5.51,2.55-5.25,1.76.26,3.46,3.01,3.81,6.14Z"/><path class="uuid-979c689a-6d72-4438-8fef-1879667b690a" d="M41.61,23.48c.34,3.09-.81,5.41-2.56,5.18-1.75-.23-3.46-2.95-3.8-6.07-.34-3.12.8-5.44,2.56-5.18,1.76.26,3.46,2.98,3.8,6.07Z"/><rect class="uuid-979c689a-6d72-4438-8fef-1879667b690a" x="263.28" y="51.68" width="3.01" height="8.9" transform="translate(-4.12 25.32) rotate(-5.43)"/><rect class="uuid-979c689a-6d72-4438-8fef-1879667b690a" x="263.28" y="52.46" width="3.01" height="7.35" transform="translate(173.31 310.88) rotate(-82.22)"/><polygon class="uuid-979c689a-6d72-4438-8fef-1879667b690a" points="274.78 52.94 275.11 56.46 278.07 56.87 277.74 53.37 274.78 52.94 274.78 52.94"/><polygon class="uuid-979c689a-6d72-4438-8fef-1879667b690a" points="275.32 58.65 275.65 62.18 278.6 62.55 278.28 59.05 275.32 58.65 275.32 58.65"/><polygon class="uuid-979c689a-6d72-4438-8fef-1879667b690a" points="279.62 53.64 279.95 57.13 282.91 57.54 282.59 54.07 279.62 53.64 279.62 53.64"/><polygon class="uuid-979c689a-6d72-4438-8fef-1879667b690a" points="280.15 59.3 280.48 62.79 283.43 63.17 283.11 59.69 280.15 59.3 280.15 59.3"/><path class="uuid-5454ff7d-8119-4dc7-b39c-ae558aa542ee" d="M334.55,224.31c.04-.36-.77-1.88-2.13-4.16-14.43-24.03-36.92-42.16-63.4-51.33l-33.49-11.61c-25.38-7.42-49.88-17.58-73.06-30.3l-41.27-22.65c-3.55-1.95-7.99-.08-9.07,3.82h0c-1.76,6.34.92,13.08,6.56,16.47l116.47,69.99c6.03,3.63,4.32,12.8-2.61,14l-44.46,7.74c-9.32,1.62-18,5.84-25.04,12.17l-3.76,3.38c-3.23,2.9-4.38,7.47-2.91,11.56h0c1.81,5.02,7.04,7.94,12.26,6.84l43.39-9.16,24.24,5.76c19.58,4.65,40.18,2.13,58.06-7.1h0l40.22-15.43Z"/><path class="uuid-5454ff7d-8119-4dc7-b39c-ae558aa542ee" d="M201.68,158.12l-37.33,27.54,15.32,72.41h0c10.23-3.4,16.41-13.81,14.5-24.42l25.35-6.95,42.06-23.88-59.89-44.69Z"/><path class="uuid-bf0f311e-0b28-467e-b619-a213e1447514" d="M190.71,216.26c-.72,0-1.35-.51-1.48-1.24l-2.54-14.29c-.11-.6.16-1.21.67-1.53l12.28-7.82c.45-.29,1.03-.31,1.51-.06l13.21,6.94c.4.21.68.58.77,1.02l2.44,11.31c.18.81-.34,1.61-1.15,1.79-.81.18-1.61-.34-1.79-1.15l-2.29-10.63-11.81-6.21-10.7,6.81,2.37,13.29c.15.82-.4,1.6-1.22,1.75-.09.02-.18.02-.26.02Z"/><path class="uuid-5454ff7d-8119-4dc7-b39c-ae558aa542ee" d="M216.79,221.84l4.94,18.59c1.95,7.33-1.42,15.04-8.13,18.59h0l-25.79-24.33,28.98-12.85Z"/><path class="uuid-bf0f311e-0b28-467e-b619-a213e1447514" d="M176.49,251.59c-.7,0-1.32-.49-1.47-1.2-.17-.81.35-1.61,1.16-1.78l35.53-7.5c.22-.05.44-.04.66,0l11.24,2.67c.81.19,1.31,1,1.12,1.81-.19.81-1,1.31-1.81,1.12l-10.91-2.6-35.2,7.43c-.1.02-.21.03-.31.03Z"/><path class="uuid-bf0f311e-0b28-467e-b619-a213e1447514" d="M170.93,222.53c-.51,0-1-.26-1.29-.72-.43-.71-.21-1.64.5-2.07,5.52-3.37,15.08-5.04,21.4-6.14l.41-.07,40.35-6.46c3.06-.53,4.55-2.87,4.93-4.88.38-2.01-.18-4.73-2.85-6.34l-46.66-26.35c-.72-.41-.98-1.33-.57-2.05.41-.72,1.33-.97,2.05-.57l46.69,26.38c3.33,2,5,5.72,4.3,9.5-.7,3.78-3.61,6.64-7.39,7.3l-40.74,6.53c-6.1,1.06-15.32,2.66-20.35,5.74-.24.15-.52.22-.78.22Z"/><path class="uuid-bf0f311e-0b28-467e-b619-a213e1447514" d="M188.33,201.65c-.21,0-.43-.05-.64-.14l-10.27-4.84c-.75-.35-1.08-1.25-.72-2,.35-.75,1.25-1.08,2-.72l10.27,4.84c.75.35,1.08,1.25.72,2-.26.55-.8.86-1.36.86Z"/><path class="uuid-bf0f311e-0b28-467e-b619-a213e1447514" d="M200.46,194.16c-.62,0-1.21-.39-1.42-1.01l-4.07-11.77c-.27-.79.15-1.64.93-1.92.78-.27,1.64.15,1.92.93l4.07,11.77c.27.79-.15,1.64-.93,1.92-.16.06-.33.08-.49.08Z"/><path class="uuid-5454ff7d-8119-4dc7-b39c-ae558aa542ee" d="M444.32,270.16l-150.33-89.08-11.86,40.02,105.56,106.16c24.31-14.86,43.87-34.56,56.63-57.1Z"/><polygon class="uuid-979c689a-6d72-4438-8fef-1879667b690a" points="66.57 186.86 47.26 177.87 64.7 165.64 66.43 168.11 53.26 177.34 67.84 184.13 66.57 186.86"/><polygon class="uuid-979c689a-6d72-4438-8fef-1879667b690a" points="87.26 185.04 85.53 182.57 98.7 173.34 84.12 166.55 85.39 163.82 104.7 172.81 87.26 185.04"/><rect class="uuid-979c689a-6d72-4438-8fef-1879667b690a" x="58.99" y="173.85" width="33.66" height="3.01" transform="translate(-113.85 198.24) rotate(-73.49)"/><path class="uuid-797ac5e4-939f-4167-b0c5-2655a4538a87" d="M117.51,61.14c-.11-.97-.19-1.95-.19-2.96,0-13.79,11.18-24.98,24.98-24.98,2.34,0,4.6.34,6.75.95,2.45-17.86,17.76-31.63,36.3-31.63,20.24,0,36.65,16.41,36.65,36.65,0,.08,0,.16,0,.24,11.15,1.27,19.81,10.73,19.81,22.21,0,12.35-10.01,22.37-22.36,22.37h-100.6s-.01-.03-.02-.05c-.32.02-.64.05-.97.05-6.32,0-11.43-5.12-11.43-11.44s4.93-11.24,11.09-11.42Z"/><rect x="178.62" y="27.4" width="3.01" height="38.96"/><polygon points="180.21 70.09 164.4 54.28 166.53 52.15 180.21 65.83 193.89 52.15 196.02 54.28 180.21 70.09"/><path class="uuid-979c689a-6d72-4438-8fef-1879667b690a" d="M55.67,98.8h-9.77v-9.77l24.42-24.42,9.77,9.77-24.42,24.42ZM48.91,95.79h5.51l21.41-21.41-5.51-5.51-21.41,21.41v5.51Z"/><rect class="uuid-979c689a-6d72-4438-8fef-1879667b690a" x="52.27" y="85.53" width="3.01" height="10.8" transform="translate(-48.55 64.66) rotate(-45)"/><path class="uuid-979c689a-6d72-4438-8fef-1879667b690a" d="M64.95,138.94l-.33-2.99,2.99-.33.33,2.99-2.99.33ZM64.28,132.96l-.33-2.99,2.99-.33.33,2.99-2.99.33ZM63.61,126.97l-.33-2.99,2.99-.33.33,2.99-2.99.33ZM62.95,120.98l-.33-2.99,2.99-.33.33,2.99-2.99.33ZM62.28,114.99l-.33-2.99,2.99-.33.33,2.99-2.99.33ZM61.61,109l-.33-2.99,2.99-.33.33,2.99-2.99.33Z"/><path class="uuid-979c689a-6d72-4438-8fef-1879667b690a" d="M76.07,238.99l-.33-2.99,2.99-.33.33,2.99-2.99.33ZM75.41,233l-.33-2.99,2.99-.34.33,2.99-2.99.34ZM74.74,227.01l-.33-2.99,2.99-.34.33,2.99-2.99.34ZM74.08,221.02l-.33-2.99,2.99-.33.33,2.99-2.99.33ZM73.41,215.03l-.33-2.99,2.99-.33.33,2.99-2.99.33ZM72.74,209.04l-.33-2.99,2.99-.33.33,2.99-2.99.33Z"/><rect class="uuid-979c689a-6d72-4438-8fef-1879667b690a" x="61.33" y="277.54" width="36.37" height="3.01" transform="translate(-174.03 137.97) rotate(-45)"/><rect class="uuid-979c689a-6d72-4438-8fef-1879667b690a" x="70.91" y="286.37" width="3.01" height="7.33" transform="translate(-183.88 136.15) rotate(-45)"/><rect class="uuid-979c689a-6d72-4438-8fef-1879667b690a" x="76.74" y="281.83" width="3.01" height="7.33" transform="translate(-178.98 138.99) rotate(-45.01)"/><rect class="uuid-979c689a-6d72-4438-8fef-1879667b690a" x="73.17" y="284.83" width="3.01" height="4.57" transform="translate(-181.15 136.9) rotate(-45)"/><path class="uuid-979c689a-6d72-4438-8fef-1879667b690a" d="M89.03,268.08c-1.92,0-3.84-.73-5.3-2.19s-2.2-3.3-2.2-5.3.78-3.89,2.2-5.3c2.93-2.92,7.68-2.92,10.6,0,2.92,2.92,2.92,7.68,0,10.6-1.46,1.46-3.38,2.19-5.3,2.19ZM89.03,256.11c-1.15,0-2.3.44-3.17,1.31s-1.31,1.97-1.31,3.17.47,2.32,1.31,3.17c1.69,1.69,4.65,1.69,6.34,0s1.75-4.59,0-6.34c-.87-.87-2.02-1.31-3.17-1.31Z"/><path class="uuid-979c689a-6d72-4438-8fef-1879667b690a" d="M97.69,276.75c-2,0-3.88-.78-5.3-2.2-2.92-2.92-2.92-7.68,0-10.6,2.92-2.92,7.68-2.92,10.6,0,2.92,2.92,2.92,7.68,0,10.6h0c-1.42,1.42-3.3,2.2-5.3,2.2ZM97.69,264.77c-1.15,0-2.3.44-3.17,1.31-1.75,1.75-1.75,4.59,0,6.34s4.65,1.69,6.34,0c1.75-1.75,1.75-4.6,0-6.34-.87-.87-2.02-1.31-3.17-1.31Z"/><path class="uuid-979c689a-6d72-4438-8fef-1879667b690a" d="M101.08,264.69c-1.92,0-3.84-.73-5.3-2.19-2.92-2.92-2.92-7.68,0-10.6,2.92-2.93,7.68-2.92,10.6,0,2.92,2.92,2.92,7.68,0,10.6-1.46,1.46-3.38,2.19-5.3,2.19ZM101.08,252.72c-1.15,0-2.3.44-3.17,1.31-1.75,1.75-1.75,4.59,0,6.34s4.65,1.7,6.34,0c.85-.85,1.31-1.97,1.31-3.17s-.47-2.32-1.31-3.17c-.87-.87-2.02-1.31-3.17-1.31Z"/></svg>