<?xml version="1.0" encoding="UTF-8"?>
<svg xmlns:xlink="http://www.w3.org/1999/xlink" id="Layer_2" data-name="Layer 2" xmlns="http://www.w3.org/2000/svg"
     viewBox="0 0 3235.67 3212.49">
    <defs>
        <style>
            .cls-1 {
            fill: url(#linear-gradient-61);
            }

            .cls-2 {
            fill: url(#linear-gradient-15);
            }

            .cls-3 {
            fill: url(#linear-gradient-13);
            }

            .cls-4 {
            fill: url(#linear-gradient-28);
            }

            .cls-5 {
            fill: url(#linear-gradient-53);
            }

            .cls-6 {
            fill: url(#linear-gradient-42);
            }

            .cls-7 {
            fill: url(#linear-gradient-46);
            }

            .cls-8 {
            fill: url(#linear-gradient-60);
            }

            .cls-9 {
            fill: url(#linear-gradient-2);
            }

            .cls-10 {
            fill: url(#linear-gradient-56);
            }

            .cls-11 {
            fill: url(#linear-gradient-43);
            }

            .cls-12 {
            fill: url(#linear-gradient-25);
            }

            .cls-13 {
            fill: url(#linear-gradient-10);
            }

            .cls-14 {
            fill: url(#linear-gradient-12);
            }

            .cls-15 {
            fill: url(#linear-gradient-40);
            }

            .cls-16 {
            fill: url(#linear-gradient-27);
            }

            .cls-17 {
            fill: url(#linear-gradient-37);
            }

            .cls-18 {
            fill: url(#linear-gradient-55);
            }

            .cls-19, .cls-20 {
            fill: #fff;
            }

            .cls-21 {
            mask: url(#mask);
            }

            .cls-22 {
            fill: url(#linear-gradient-39);
            }

            .cls-23 {
            fill: url(#linear-gradient-52);
            }

            .cls-24 {
            fill: url(#linear-gradient-58);
            }

            .cls-25 {
            fill: url(#linear-gradient-47);
            }

            .cls-26 {
            fill: url(#linear-gradient-26);
            }

            .cls-27, .cls-28, .cls-29 {
            fill: none;
            }

            .cls-30 {
            fill: url(#linear-gradient-4);
            }

            .cls-31 {
            fill: url(#linear-gradient-35);
            }

            .cls-32 {
            fill: url(#linear-gradient-30);
            }

            .cls-33 {
            fill: url(#linear-gradient-6);
            opacity: .53;
            }

            .cls-33, .cls-20 {
            isolation: isolate;
            }

            .cls-34 {
            fill: url(#linear-gradient-44);
            }

            .cls-35 {
            fill: url(#linear-gradient-49);
            }

            .cls-36 {
            fill: url(#linear-gradient-3);
            }

            .cls-37 {
            fill: url(#linear-gradient-34);
            }

            .cls-38 {
            clip-path: url(#clippath-1);
            }

            .cls-39 {
            fill: url(#linear-gradient-5);
            }

            .cls-40 {
            fill: url(#linear-gradient-38);
            }

            .cls-41 {
            fill: url(#linear-gradient-22);
            }

            .cls-42 {
            fill: url(#linear-gradient-24);
            }

            .cls-43 {
            fill: url(#linear-gradient-54);
            }

            .cls-20 {
            opacity: .78;
            }

            .cls-44 {
            fill: url(#linear-gradient-33);
            }

            .cls-28 {
            clip-path: url(#clippath);
            }

            .cls-45 {
            fill: url(#linear-gradient-51);
            }

            .cls-46 {
            fill: url(#linear-gradient-8);
            }

            .cls-29 {
            clip-path: url(#clippath-2);
            }

            .cls-47 {
            fill: url(#linear-gradient-57);
            }

            .cls-48 {
            clip-path: url(#clippath-3);
            }

            .cls-49 {
            fill: url(#linear-gradient-14);
            }

            .cls-50 {
            fill: url(#linear-gradient-62);
            }

            .cls-51 {
            fill: url(#linear-gradient-29);
            }

            .cls-52 {
            fill: url(#linear-gradient-20);
            }

            .cls-53 {
            fill: url(#linear-gradient-17);
            }

            .cls-54 {
            fill: url(#linear-gradient-50);
            }

            .cls-55 {
            fill: url(#linear-gradient-7);
            }

            .cls-56 {
            fill: url(#linear-gradient-9);
            }

            .cls-57 {
            fill: url(#linear-gradient-59);
            }

            .cls-58 {
            fill: url(#linear-gradient-11);
            }

            .cls-59 {
            fill: url(#linear-gradient-19);
            }

            .cls-60 {
            fill: #7d97f4;
            }

            .cls-61 {
            fill: #91b3fa;
            }

            .cls-62 {
            fill: url(#linear-gradient-36);
            }

            .cls-63 {
            fill: url(#linear-gradient-21);
            }

            .cls-64 {
            fill: url(#linear-gradient-45);
            }

            .cls-65 {
            fill: url(#linear-gradient-48);
            }

            .cls-66 {
            fill: url(#linear-gradient-32);
            }

            .cls-67 {
            fill: url(#linear-gradient-41);
            }

            .cls-68 {
            fill: url(#linear-gradient-16);
            }

            .cls-69 {
            fill: #bdd0fb;
            }

            .cls-70 {
            fill: url(#linear-gradient);
            }

            .cls-71 {
            fill: url(#linear-gradient-23);
            }

            .cls-72 {
            fill: url(#linear-gradient-31);
            }

            .cls-73 {
            fill: url(#linear-gradient-18);
            }
        </style>
        <linearGradient id="linear-gradient" x1="3399.76" y1="211.28" x2="1542.8" y2="2188.05"
                        gradientTransform="translate(0 3711.89) scale(1 -1)" gradientUnits="userSpaceOnUse">
            <stop offset="0" stop-color="#dae3fe"/>
            <stop offset="1" stop-color="#e9effd"/>
        </linearGradient>
        <linearGradient id="linear-gradient-2" x1="2423.46" y1="1558.02" x2="3019.4" y2="1558.02"
                        gradientTransform="translate(0 3711.89) scale(1 -1)" gradientUnits="userSpaceOnUse">
            <stop offset="0" stop-color="#4f52ff"/>
            <stop offset="1" stop-color="#4042e2"/>
        </linearGradient>
        <linearGradient id="linear-gradient-3" x1="2482.54" y1="1142.55" x2="2833.86" y2="1142.55"
                        xlink:href="#linear-gradient"/>
        <linearGradient id="linear-gradient-4" x1="2505.81" y1="2466.99" x2="1656.19" y2="4233.05"
                        gradientTransform="translate(0 3711.89) scale(1 -1)" gradientUnits="userSpaceOnUse">
            <stop offset="0" stop-color="#4042e2"/>
            <stop offset="1" stop-color="#4f52ff"/>
        </linearGradient>
        <clipPath id="clippath">
            <polygon class="cls-27" points="3 3 4 3 3 4 3 3"/>
        </clipPath>
        <clipPath id="clippath-1">
            <polygon class="cls-28" points="1 1 0 1 1 0 1 1"/>
        </clipPath>
        <clipPath id="clippath-2">
            <polygon class="cls-27" points="3 3 4 3 3 4 3 3"/>
        </clipPath>
        <clipPath id="clippath-3">
            <polygon class="cls-29" points="1 1 0 1 1 0 1 1"/>
        </clipPath>
        <linearGradient id="linear-gradient-5" x1="2070.3" y1="2603.37" x2="-194.06" y2="-294.31"
                        gradientTransform="translate(0 3711.89) scale(1 -1)" gradientUnits="userSpaceOnUse">
            <stop offset="0" stop-color="#fff"/>
            <stop offset="1" stop-color="#000"/>
        </linearGradient>
        <mask id="mask" x="0" y="0" width="2289.7" height="3048.54" maskUnits="userSpaceOnUse">
            <g class="cls-48">
                <path class="cls-39"
                      d="M750.08,714.17l1470.51-56.61c-60.65,449.01-35.05,1363.4-11.91,2264.54,1.37,53.42,32.7,101.5,81.02,124.34h0s-980.82,11.3-1402.26-18.59c-99.23-7.04-180.18-82.12-194.92-180.5-57.86-386.09-196.28-1383.49-167.47-1911.53,6.6-120.92,104.01-216.98,225.02-221.64Z"/>
            </g>
        </mask>
        <linearGradient id="linear-gradient-6" x1="2070.3" y1="2603.37" x2="-194.06" y2="-294.31"
                        gradientTransform="translate(0 3711.89) scale(1 -1)" gradientUnits="userSpaceOnUse">
            <stop offset="0" stop-color="#fff"/>
            <stop offset="1" stop-color="#fff"/>
        </linearGradient>
        <linearGradient id="linear-gradient-7" x1="730.29" y1="2228.02" x2="965.37" y2="2228.02"
                        xlink:href="#linear-gradient"/>
        <linearGradient id="linear-gradient-8" x1="1034.39" y1="2330.2" x2="2030.55" y2="2330.2"
                        xlink:href="#linear-gradient"/>
        <linearGradient id="linear-gradient-9" x1="1052.66" y1="2170.28" x2="1721.3" y2="2170.28"
                        xlink:href="#linear-gradient"/>
        <linearGradient id="linear-gradient-10" x1="730.29" y1="1770.88" x2="965.37" y2="1770.88"
                        xlink:href="#linear-gradient"/>
        <linearGradient id="linear-gradient-11" x1="1034.39" y1="1873.06" x2="2030.55" y2="1873.06"
                        xlink:href="#linear-gradient"/>
        <linearGradient id="linear-gradient-12" x1="730.29" y1="1313.74" x2="965.37" y2="1313.74"
                        xlink:href="#linear-gradient"/>
        <linearGradient id="linear-gradient-13" x1="1034.39" y1="1415.91" x2="2030.55" y2="1415.91"
                        xlink:href="#linear-gradient"/>
        <linearGradient id="linear-gradient-14" x1="1052.66" y1="1256" x2="1721.3" y2="1256"
                        xlink:href="#linear-gradient"/>
        <linearGradient id="linear-gradient-15" x1="1839.31" y1="1412.29" x2="1526.33" y2="610.96"
                        gradientTransform="translate(0 3711.89) scale(1 -1)" gradientUnits="userSpaceOnUse">
            <stop offset="0" stop-color="#09005d"/>
            <stop offset="1" stop-color="#1a0f91"/>
        </linearGradient>
        <linearGradient id="linear-gradient-16" x1="778.26" y1="11011.33" x2="835.07" y2="11011.33"
                        gradientTransform="translate(253.32 -8879.32) rotate(168.9) scale(1 -1)"
                        gradientUnits="userSpaceOnUse">
            <stop offset="0" stop-color="#febbba"/>
            <stop offset="1" stop-color="#ff928e"/>
        </linearGradient>
        <linearGradient id="linear-gradient-17" x1="273.31" y1="1691.9" x2="532.03" y2="1691.9"
                        gradientTransform="translate(1290.1 3711.89) scale(1 -1)" xlink:href="#linear-gradient-16"/>
        <linearGradient id="linear-gradient-18" x1="2331.04" y1="2560.3" x2="2173.44" y2="2249.53"
                        xlink:href="#linear-gradient-15"/>
        <linearGradient id="linear-gradient-19" x1="2582.69" y1="2432.67" x2="2425.09" y2="2121.91"
                        xlink:href="#linear-gradient-15"/>
        <linearGradient id="linear-gradient-20" x1="852.2" y1="1950.68" x2="810.71" y2="2075.14"
                        gradientTransform="translate(1290.1 3711.89) scale(1 -1)" xlink:href="#linear-gradient-16"/>
        <linearGradient id="linear-gradient-21" x1="2045.39" y1="2103.42" x2="2194.5" y2="2038.58"
                        gradientTransform="translate(0 3711.89) scale(1 -1)" xlink:href="#linear-gradient-16"/>
        <linearGradient id="linear-gradient-22" x1="8629.53" y1="-3693.47" x2="8807.65" y2="-3693.47"
                        gradientTransform="translate(10757.11 5449.47) rotate(-133.27)"
                        xlink:href="#linear-gradient-15"/>
        <linearGradient id="linear-gradient-23" x1="2036.1" y1="2082.04" x2="2185.21" y2="2017.21"
                        gradientTransform="translate(0 3711.89) scale(1 -1)" xlink:href="#linear-gradient-16"/>
        <linearGradient id="linear-gradient-24" x1="5543.2" y1="508.36" x2="5728.52" y2="508.36"
                        gradientTransform="translate(7871.76 3711.89) rotate(-180)" xlink:href="#linear-gradient-4"/>
        <linearGradient id="linear-gradient-25" x1="2775.85" y1="681.74" x2="2104.84" y2="490.49"
                        xlink:href="#linear-gradient-15"/>
        <linearGradient id="linear-gradient-26" x1="5560.31" y1="595.39" x2="5612.51" y2="595.39"
                        gradientTransform="translate(7871.76 3711.89) rotate(-180)" xlink:href="#linear-gradient-16"/>
        <linearGradient id="linear-gradient-27" x1="5173.76" y1="512.36" x2="5244.78" y2="512.36"
                        gradientTransform="translate(7871.76 3711.89) rotate(-180)" xlink:href="#linear-gradient-4"/>
        <linearGradient id="linear-gradient-28" x1="2401.78" y1="720.62" x2="2819.94" y2="448.32"
                        xlink:href="#linear-gradient-15"/>
        <linearGradient id="linear-gradient-29" x1="5228.46" y1="638.91" x2="5290.84" y2="638.91"
                        gradientTransform="translate(7871.76 3711.89) rotate(-180)" xlink:href="#linear-gradient-16"/>
        <linearGradient id="linear-gradient-30" x1="2886.66" y1="547.31" x2="3838.58" y2="1863.39"
                        gradientTransform="translate(5538.76 3711.89) rotate(-180)" xlink:href="#linear-gradient-15"/>
        <linearGradient id="linear-gradient-31" x1="166.8" y1="269.61" x2="161.01" y2="804.14"
                        gradientTransform="translate(2291.79 3281.84) rotate(-7.3) scale(1 -1)"
                        gradientUnits="userSpaceOnUse">
            <stop offset="0" stop-color="#ff928e"/>
            <stop offset="1" stop-color="#fe7062"/>
        </linearGradient>
        <linearGradient id="linear-gradient-32" x1="72.73" y1="914.27" x2="70.16" y2="976.66"
                        gradientTransform="translate(2291.79 3281.84) rotate(-7.3) scale(1 -1)"
                        gradientUnits="userSpaceOnUse">
            <stop offset="0" stop-color="#e1473d"/>
            <stop offset="1" stop-color="#e9605a"/>
        </linearGradient>
        <linearGradient id="linear-gradient-33" x1="69.48" y1="1007.94" x2="82.34" y2="829.14"
                        xlink:href="#linear-gradient-32"/>
        <linearGradient id="linear-gradient-34" x1="246.53" y1="921.42" x2="243.96" y2="983.82"
                        xlink:href="#linear-gradient-32"/>
        <linearGradient id="linear-gradient-35" x1="242.81" y1="1020.39" x2="255.68" y2="841.6"
                        xlink:href="#linear-gradient-32"/>
        <linearGradient id="linear-gradient-36" x1="171.42" y1="1107.45" x2="154.06" y2="980.13"
                        xlink:href="#linear-gradient-32"/>
        <linearGradient id="linear-gradient-37" x1="2247.07" y1="1460.91" x2="2188.24" y2="1794.98"
                        gradientTransform="translate(0 3711.89) scale(1 -1)" xlink:href="#linear-gradient-16"/>
        <linearGradient id="linear-gradient-38" x1="176.64" y1="1008.28" x2="112.98" y2="414.06"
                        xlink:href="#linear-gradient-31"/>
        <linearGradient id="linear-gradient-39" x1="181.26" y1="934.95" x2="156.18" y2="736.23"
                        xlink:href="#linear-gradient-32"/>
        <linearGradient id="linear-gradient-40" x1="127.5" y1="779.03" x2="200.44" y2="779.03"
                        xlink:href="#linear-gradient-31"/>
        <linearGradient id="linear-gradient-41" x1="2398.02" y1="1589.17" x2="2256.75" y2="1317.5"
                        gradientTransform="translate(0 3711.89) scale(1 -1)" xlink:href="#linear-gradient-16"/>
        <linearGradient id="linear-gradient-42" x1="2682.49" y1="2382.06" x2="2524.89" y2="2071.3"
                        xlink:href="#linear-gradient-15"/>
        <linearGradient id="linear-gradient-43" x1="2732.98" y1="2223.4" x2="1838.2" y2="1211.39"
                        xlink:href="#linear-gradient-4"/>
        <linearGradient id="linear-gradient-44" x1="-216.76" y1="557.11" x2="-95.19" y2="557.11"
                        gradientTransform="translate(1290.1 3711.89) scale(1 -1)" xlink:href="#linear-gradient-15"/>
        <linearGradient id="linear-gradient-45" x1="87.58" y1="700.53" x2="-354.69" y2="353.25"
                        gradientTransform="translate(1290.1 3711.89) scale(1 -1)" xlink:href="#linear-gradient-4"/>
        <linearGradient id="linear-gradient-46" x1="-182.95" y1="695.51" x2="-206.17" y2="492.85"
                        gradientTransform="translate(1290.1 3711.89) scale(1 -1)" gradientUnits="userSpaceOnUse">
            <stop offset="0" stop-color="#a22b25"/>
            <stop offset="1" stop-color="#c0423c"/>
        </linearGradient>
        <linearGradient id="linear-gradient-47" x1="166.15" y1="600.61" x2="-276.12" y2="253.34"
                        gradientTransform="translate(1290.1 3711.89) scale(1 -1)" xlink:href="#linear-gradient-4"/>
        <linearGradient id="linear-gradient-48" x1="-31.64" y1="554.02" x2="143.36" y2="554.02"
                        gradientTransform="translate(1290.1 3711.89) scale(1 -1)" xlink:href="#linear-gradient-15"/>
        <linearGradient id="linear-gradient-49" x1="205.72" y1="822.08" x2="182.5" y2="619.42"
                        gradientTransform="translate(1139.54 3871.16) rotate(-3.61) scale(1 -1)"
                        xlink:href="#linear-gradient-46"/>
        <linearGradient id="linear-gradient-50" x1="1100.74" y1="463.76" x2="1272.66" y2="1721.93"
                        xlink:href="#linear-gradient-2"/>
        <linearGradient id="linear-gradient-51" x1="3215.61" y1="4755.98" x2="2480.87" y2="4010.14"
                        gradientTransform="translate(1009.51 4057.96) rotate(-7.69) scale(1 -1)"
                        xlink:href="#linear-gradient-31"/>
        <linearGradient id="linear-gradient-52" x1="1177.58" y1="1847.95" x2="1302.62" y2="2129.28"
                        gradientTransform="translate(0 3711.89) scale(1 -1)" xlink:href="#linear-gradient-46"/>
        <linearGradient id="linear-gradient-53" x1="1136.19" y1="2288.4" x2="1313.77" y2="2017.59"
                        gradientTransform="translate(0 3711.89) scale(1 -1)" xlink:href="#linear-gradient-46"/>
        <linearGradient id="linear-gradient-54" x1="1152.82" y1="2241.04" x2="1286.17" y2="2084.86"
                        xlink:href="#linear-gradient-15"/>
        <linearGradient id="linear-gradient-55" x1="1089.76" y1="2257.95" x2="1267.34" y2="1987.14"
                        gradientTransform="translate(0 3711.89) scale(1 -1)" xlink:href="#linear-gradient-46"/>
        <linearGradient id="linear-gradient-56" x1="2141.48" y1="2629.92" x2="1406.74" y2="1884.09"
                        gradientTransform="translate(0 3711.89) scale(1 -1)" xlink:href="#linear-gradient-31"/>
        <linearGradient id="linear-gradient-57" x1="1698.27" y1="1902.52" x2="1359" y2="1733.75"
                        gradientTransform="translate(0 3711.89) scale(1 -1)" xlink:href="#linear-gradient-46"/>
        <linearGradient id="linear-gradient-58" x1="1693.31" y1="1944.85" x2="1577.26" y2="1823.64"
                        gradientTransform="translate(0 3711.89) scale(1 -1)" xlink:href="#linear-gradient-46"/>
        <linearGradient id="linear-gradient-59" x1="1699.89" y1="1904.52" x2="1360.61" y2="1735.75"
                        gradientTransform="translate(0 3711.89) scale(1 -1)" xlink:href="#linear-gradient-46"/>
        <linearGradient id="linear-gradient-60" x1="1841.66" y1="1618.16" x2="857.06" y2="1796.21"
                        gradientTransform="translate(0 3711.89) scale(1 -1)" xlink:href="#linear-gradient-46"/>
        <linearGradient id="linear-gradient-61" x1="1492.11" y1="2368.38" x2="603.15" y2="690.34"
                        gradientTransform="translate(0 3711.89) scale(1 -1)" xlink:href="#linear-gradient-32"/>
        <linearGradient id="linear-gradient-62" x1="1495.21" y1="2366.74" x2="606.25" y2="688.69"
                        gradientTransform="translate(0 3711.89) scale(1 -1)" xlink:href="#linear-gradient-32"/>
    </defs>
    <g id="Layer_1-2" data-name="Layer 1">
        <g id="Illustration">
            <g>
                <path class="cls-70"
                      d="M2842.21,2707.54c-68.55,70.66-129.89,112.2-176.85,143.55-458.01,305.82-981.57,217.68-1143.44,187.55-261.16-48.61-481.61-82.9-671.02-254.02-430.4-388.85-409.46-1200.01-80.59-1702.49,38.99-59.58,367.37-546.34,892.06-614.92,12.83-1.68,22.41-2.63,30.8-3.52,81.17-8.59,584.15-53.95,994.29,289.66,58.71,49.19,153.19,137.91,240.8,273.22,320.35,494.76,321.37,1261.03-86.04,1680.98Z"/>
                <g>
                    <path class="cls-9"
                          d="M2593.85,1411.78l233.62-54.39s156.2-14.04,177.32,124.79,15,961.35,8.39,1130.98c-2.18,55.92-1.91,107.57,2.85,152.62,9.91,93.83-63.3,175.79-157.64,177.43l-434.92,7.53,170.39-1538.96Z"/>
                    <g>
                        <path class="cls-69"
                              d="M2469.56,3017.58s46.67-654.39,378.61-1053.29c4.33-5.2,11.82-3.9,14.11,2.5,36.17,101.05,239.47,750.88-392.73,1050.79Z"/>
                        <path class="cls-36"
                              d="M2833.85,2154.19c-2.8,38.18-8.32,75.85-14.73,113.46-6.62,37.54-14.4,74.91-23.56,111.94-18.27,74.08-41.12,147.13-69.23,218.22-14.17,35.49-29.2,70.67-46.02,105.01-8.15,17.29-17.25,34.13-25.97,51.14-9.26,16.73-18.31,33.58-28.34,49.88-38.85,65.85-84.36,127.91-136.31,183.76-1.55,1.66-4.16,1.76-5.82.21-1.57-1.46-1.74-3.85-.47-5.52l.04-.05c46.23-59.92,87.88-122.91,124-189.03,9.31-16.36,17.59-33.3,26.46-49.9,8.24-16.94,16.85-33.68,24.52-50.88,3.85-8.59,8.03-17.03,11.75-25.68l11.37-25.86c3.73-8.65,7.23-17.39,10.85-26.08,3.67-8.68,7.09-17.45,10.48-26.24,7.02-17.48,13.54-35.16,20.13-52.82,6.28-17.77,12.56-35.54,18.43-53.46,12.11-35.72,22.87-71.89,33.25-108.18,10.17-36.35,19.63-72.94,28.12-109.76,8.66-36.77,16.34-73.9,22.86-111.04l.02-.12c.39-2.24,2.53-3.74,4.77-3.34,2.1.37,3.54,2.28,3.39,4.35Z"/>
                    </g>
                    <g>
                        <path class="cls-61"
                              d="M2510.7,2945.95s342.19-575.58,714.48-584.6c6.61-.16,11.62,5.91,10.26,12.37-15.85,75.24-126.69,469.09-724.74,572.23Z"/>
                        <path class="cls-69"
                              d="M3146.36,2452.67c-22.56,23.69-45.79,46.47-69.34,69.03-11.89,11.14-23.79,22.27-35.81,33.28-12.12,10.88-24.11,21.93-36.35,32.68-48.85,43.14-99.23,84.57-150.93,124.27-25.66,20.11-52.23,39-78.45,58.35l-40.12,27.95c-6.7,4.64-13.35,9.35-20.12,13.88l-20.48,13.36c-54.1,36.41-110.63,69.05-167.56,100.75-1.99,1.1-4.49.39-5.6-1.59-1.09-1.96-.41-4.42,1.51-5.55l.11-.06,42.01-24.64,21-12.32c6.94-4.21,13.75-8.63,20.63-12.93l41.27-25.84c13.6-8.85,27.04-17.97,40.56-26.94l20.25-13.5,19.94-13.96,39.86-27.97c26.06-19.36,52.46-38.26,77.95-58.38,25.83-19.67,51.09-40.06,76.38-60.44l37.44-31.15,36.98-31.7c12.32-10.58,24.37-21.45,36.57-32.17,12.09-10.83,24.06-21.8,36.03-32.77,23.83-22.02,47.52-44.33,70.27-67.34l.06-.06c1.6-1.61,4.2-1.63,5.82-.03,1.6,1.58,1.63,4.14.09,5.76Z"/>
                    </g>
                    <path class="cls-60"
                          d="M2118.91,1423.07s425.38,23.38,708.55-65.68c0,0-188.25-12.9-188.25,421.72,0,332.29,49.28,966.54,6.25,1086.94-43.03,120.4-203.92,282.24-434.56,143.15-230.64-139.09-92-1586.13-92-1586.13Z"/>
                    <path class="cls-30"
                          d="M2005.82,771.47s469.34,51.16,529.8-28.39c0,0-48.1-143.17-190.93-133.65-142.83,9.53-338.88,162.04-338.88,162.04Z"/>
                    <path class="cls-61"
                          d="M479.36,932.55c40.93,459.95,126.89,1432.82,164.29,1906.73,8.34,105.65,93.02,189.1,198.78,195.89,376.74,24.18,1224.59,71.1,1549.96,27.45h0c-74.53-36.74-121.47-112.9-120.79-195.99l17.28-2126.56c.61-75.14,75.46-129.14,145.82-102.77,44.33,16.61,77.9,52,100.93,105.79-30.72-89.52-79.03-155.01-190.93-133.65,0,0-1094.38,10.94-1625.43,43.87-144.3,8.95-252.72,135.24-239.91,279.25Z"/>
                    <g id="SVGID">
                        <g class="cls-38">
                            <g class="cls-21">
                                <path class="cls-39"
                                      d="M750.08,714.17l1470.51-56.61c-60.65,449.01-35.05,1363.4-11.91,2264.54,1.37,53.42,32.7,101.5,81.02,124.34h0s-980.82,11.3-1402.26-18.59c-99.23-7.04-180.18-82.12-194.92-180.5-57.86-386.09-196.28-1383.49-167.47-1911.53,6.6-120.92,104.01-216.98,225.02-221.64Z"/>
                            </g>
                        </g>
                    </g>
                    <path class="cls-33"
                          d="M750.08,714.17l1470.51-56.61c-60.65,449.01-35.05,1363.4-11.91,2264.54,1.37,53.42,32.7,101.5,81.02,124.34h0s-980.82,11.3-1402.26-18.59c-99.23-7.04-180.18-82.12-194.92-180.5-57.86-386.09-196.28-1383.49-167.47-1911.53,6.6-120.92,104.01-216.98,225.02-221.64Z"/>
                    <g>
                        <path class="cls-55"
                              d="M730.62,1410.64l17.16,164.71c3.15,30.19,28.01,53.48,58.34,54.64l95.9,3.68c34.59,1.33,63.35-26.35,63.35-60.97v-177.68c0-35.67-30.46-63.73-66.01-60.81l-113.06,9.29c-34.1,2.8-59.23,33.1-55.68,67.13Z"/>
                        <path class="cls-46"
                              d="M1067.85,1359.87c159.61-4.96,772.33-24.88,927.05-29.92,19.52-.64,35.65,15.02,35.65,34.54h0c0,18.59-14.7,33.84-33.28,34.53l-926.45,34.4c-17.85.66-33.26-12.38-35.55-30.09l-.58-4.48c-2.63-20.25,12.75-38.35,33.16-38.98Z"/>
                        <path class="cls-56"
                              d="M1057.83,1577.01h0c2.71,4.54,7.65,7.28,12.94,7.17l636.15-13.82c7.99-.17,14.38-6.7,14.38-14.69v-41.94c0-8.33-6.92-15-15.25-14.69l-618.41,23.12c-27.54,1.03-43.93,31.18-29.81,54.85Z"/>
                    </g>
                    <g>
                        <path class="cls-13"
                              d="M730.62,1867.78l17.16,164.71c3.15,30.19,28.01,53.48,58.34,54.64l95.9,3.68c34.59,1.33,63.35-26.35,63.35-60.97v-177.69c0-35.67-30.46-63.73-66.01-60.81l-113.06,9.29c-34.1,2.8-59.23,33.1-55.68,67.13Z"/>
                        <path class="cls-58"
                              d="M1067.85,1817.01c159.61-4.96,772.33-24.88,927.05-29.92,19.52-.64,35.65,15.01,35.65,34.54h0c0,18.59-14.7,33.84-33.28,34.53l-926.45,34.4c-17.85.66-33.26-12.38-35.55-30.09l-.58-4.48c-2.63-20.25,12.75-38.35,33.16-38.98Z"/>
                        <path class="cls-20"
                              d="M1057.83,2034.16h0c2.71,4.55,7.65,7.28,12.94,7.17l636.15-13.82c7.99-.17,14.38-6.7,14.38-14.69v-41.94c0-8.33-6.92-15-15.25-14.69l-618.41,23.12c-27.54,1.03-43.93,31.18-29.81,54.85Z"/>
                    </g>
                    <g>
                        <path class="cls-14"
                              d="M730.62,2324.93l17.16,164.72c3.15,30.19,28.01,53.48,58.34,54.64l95.9,3.68c34.59,1.33,63.35-26.35,63.35-60.97v-177.69c0-35.67-30.46-63.73-66.01-60.81l-113.06,9.29c-34.1,2.8-59.23,33.09-55.68,67.13Z"/>
                        <path class="cls-3"
                              d="M1067.85,2274.16c159.61-4.96,772.33-24.88,927.05-29.92,19.52-.64,35.65,15.01,35.65,34.54h0c0,18.59-14.7,33.84-33.28,34.53l-926.45,34.4c-17.85.66-33.26-12.38-35.55-30.09l-.58-4.48c-2.63-20.25,12.75-38.35,33.16-38.98Z"/>
                        <path class="cls-49"
                              d="M1057.83,2491.3h0c2.71,4.54,7.65,7.28,12.94,7.17l636.15-13.82c7.99-.17,14.38-6.7,14.38-14.7v-41.94c0-8.33-6.92-15-15.25-14.69l-618.41,23.12c-27.54,1.03-43.93,31.18-29.81,54.85Z"/>
                    </g>
                    <path class="cls-19"
                          d="M2583.97,2373.15c-3.89,0-7.08-3.12-7.16-7.02,0-.22-.44-22.77-2.61-100.07-.11-3.95,3-7.25,6.96-7.35,3.86-.2,7.25,3,7.35,6.96,2.17,77.39,2.61,99.98,2.61,100.2.07,3.95-3.07,7.22-7.02,7.29h-.14Z"/>
                    <path class="cls-19"
                          d="M2578.76,2184.48c-3.85,0-7.03-3.06-7.15-6.94-1.54-50.31-3.94-105.93-6.48-164.82-3.43-79.56-6.98-161.84-8.85-241.09-4.94-209.17,29.56-289.46,59.38-319.99,16.2-16.59,29.78-17.07,31.28-17.07,3.95,0,7.16,3.21,7.16,7.16s-3.13,7.08-7.01,7.16c-1.63.12-83.88,9.15-76.48,322.41,1.87,79.12,5.41,161.32,8.84,240.82,2.54,58.93,4.94,114.6,6.48,165,.12,3.95-2.98,7.25-6.94,7.38-.07,0-.15,0-.22,0Z"/>
                    <path class="cls-2"
                          d="M1541.33,2955.92c-7.26,0-14.53-3.43-22.19-10.48-28.19-25.9-35.47-65.71-37.45-103.57-13.01,14.56-26.32,28.74-39.48,42.76l-7.28-6.83c15.45-16.47,31.12-33.16,46.23-50.4-1.25-51.86,1.14-104.27,7.11-155.82,3.67-31.6,8.94-65.05,22.64-95.56,4.37-9.73,11.61-23.68,24.08-32.39,13.01-9.1,30.06-10.09,41.48-2.42,12.83,8.62,16.29,24.96,17.77,36.5,8.72,67.82-17.74,129.99-41.47,170.19-17.62,29.85-38.95,57.16-61.54,83.13,1.17,38.76,6.54,81.22,34.66,107.05,5.92,5.44,11.08,8.02,15.91,7.84,7.93-.29,14.34-7.98,19.57-15.47,23.77-34.05,42.26-70.97,55.19-110.12,1.51-11.78,4.8-23.34,9.81-34.12l9.38,3.28c-2.71,11.18-5.86,22.2-9.41,33.05-1.32,11.09-.92,22.38,1.28,33.35,1.17,5.83,6.09,25.07,20.29,27.77,10.6,2,21.64-6.01,33.84-24.55l50-76.01-6.32,27.21c-2.23,9.61-5.97,32.54,7.44,38.06,7.64,3.14,15.7-1.4,25.04-6.67,9.29-5.23,18.88-10.65,29.79-9.19l5.15.69-.88,5.11c-.51,2.93-4.55,28.66,8.8,31.6,6.11,1.36,11.22-2.88,18.92-10,6.05-5.6,12.31-11.38,20.55-13.38l2.35,9.71c-5.71,1.38-10.76,6.05-16.11,11-7.6,7.03-16.19,14.99-27.86,12.42-15.2-3.36-18.93-20.48-17.29-37.2-5.99.87-12.11,4.32-18.51,7.93-10.15,5.71-21.64,12.18-33.74,7.2-9.99-4.11-15.4-14.03-15.81-28.23l-23.17,35.22c-9.35,14.22-24.07,32.7-44.06,28.88-13.72-2.61-24.27-15.93-28.22-35.62-.55-2.74-1-5.51-1.34-8.28-12.26,30.45-27.95,59.42-46.93,86.6-6.25,8.95-15.01,19.28-27.39,19.73-.28.01-.56.02-.83.02ZM1558.71,2545.98c-6.56,0-13.19,2.47-18,5.83-10.44,7.3-16.81,19.65-20.7,28.29-13.14,29.27-18.26,61.82-21.83,92.62-5.49,47.41-7.93,95.57-7.26,143.34,19.56-23.07,37.89-47.23,53.25-73.25,22.94-38.86,48.53-98.83,40.17-163.84-1.97-15.27-6.24-24.64-13.44-29.48-3.7-2.49-7.93-3.52-12.18-3.52Z"/>
                    <path class="cls-20"
                          d="M1979.61,1154.06l-1171.46,34.76c-42.08,1.25-77.42-31.41-79.48-73.46l-4.3-87.63c-2.12-43.31,31.8-79.9,75.15-81.04l1177.28-31.13c44.02-1.16,80.11,34.63,79.31,78.65l-1.52,84c-.75,41.24-33.75,74.63-74.98,75.85Z"/>
                </g>
                <g>
                    <path class="cls-68"
                          d="M1610.6,2077.02s-39.07-25.63-44.48-19.72c-1.93,2.1-6.42,9.25-10.61,17.05-2.95,5.5-2.05,12.28,2.3,16.77l10.07,10.41c9.6,9.92,25.84,9.21,34.31-1.69,4.27-5.5,7.68-12.91,8.41-22.82Z"/>
                    <g>
                        <g>
                            <path class="cls-53"
                                  d="M1650.44,2028.33s-13.41-35.3-29.07-32.06c-15.66,3.23-32.8,15.27-32.8,15.27l-25.16,34.03s70.63,27.82,95.47,11.88c0,0,72.15,12.47,163.25-2.48-13.19-27.84-21.05-55.72-25.66-77.36-46.14,26.12-95.84,45.63-146.03,50.73Z"/>
                            <path class="cls-73"
                                  d="M2032.59,1772.31s-103.29,130.1-236.13,205.29c4.62,21.64,12.48,49.51,25.66,77.36,68.91-11.31,148.66-38.29,216.27-98.25l-5.81-184.39Z"/>
                        </g>
                        <path class="cls-59"
                              d="M2161.41,2348.94c-20.2-95.95-40.4-151.5-108.04-333.37-21.29-57.23-40.61-115.14-31.27-175.48l10.49-67.77s131.45-44.48,277.15-1.87c0,0,198.79,86.36,63.77,512.85-60.86,68.09-132.09,87.5-212.1,65.65Z"/>
                        <path class="cls-52"
                              d="M2054.97,1685.81l34.08,81.89c2.15,5.17,6.81,8.86,12.33,9.8,19.65,3.37,67.18,8.64,98.39-11.89,3.72-2.45,4.67-7.5,2.12-11.15l-62.97-90.41-83.96,21.76Z"/>
                        <g>
                            <path class="cls-63"
                                  d="M2090.22,1560.53c-1.43,1.35-60.41,117.17-60.41,117.17l66.85,32.27,72.21-101.47s-54.69-70.53-78.65-47.97Z"/>
                            <path class="cls-41"
                                  d="M2138.49,1620.68l-33.34,55.58c-.51.84-1.11,1.61-1.83,2.28-3.97,3.69-17.55,14.44-28.05-.19-8.95-12.47-17.34-23.81-26.34-28.48-5.25-2.73-11.72-.55-14.39,4.73-5.49,10.89-16.13,33.08-22.82,54.13-1.68,5.28,1.05,10.94,6.18,13.02,13.54,5.48,40.29,15.4,64.03,18.68,3.9.54,7.76-1.11,10.08-4.29,10.21-13.99,39-53.1,48.83-62.88,9.13-9.09,25.97-5.67,33.57-3.48,2.88.83,5.95.43,8.52-1.12,7.7-4.64,21.14-16.19,8.85-35.75-3.06-4.86-1.5-11.34,3.3-14.5,8.6-5.66,17.93-16.27,9.04-33.47-9-17.41-25.07-18.97-36.02-17.63-4.84.59-9.76-1.95-11.62-6.46-.83-2.01-2.46-3.72-5.5-4.33-5.74-1.16-9.5-6.41-8.38-12.16,1.93-9.85.48-22.65-15.25-31.29-28.84-15.86-54.11,9.98-60.53,31.8-6.43,21.81,25.82,37.23,46.11,39.8,14.9,1.89,23.07,18.15,26.36,26.65,1.19,3.08.9,6.53-.8,9.36Z"/>
                            <path class="cls-71"
                                  d="M2126.8,1689.89s14.35-33.76,30.76-32.38c16.42,1.38,29.34,17.73,8.99,36.12-25.31,22.87-39.76-3.74-39.76-3.74Z"/>
                        </g>
                        <g>
                            <path class="cls-42"
                                  d="M2148.47,3194.56c31.75,2.74,86.85,7.2,130.28,9.11,26.11,1.15,41.14-1.41,49.8-4.87-.01.98-.04,1.9-.08,2.75-.21,4.57-3.92,8.23-8.54,8.49-82.08,4.58-147.35,1.58-170.59.17-4.8-.29-7.67-5.51-5.21-9.61,1.23-2.05,2.72-4.05,4.34-6.04Z"/>
                            <path class="cls-12"
                                  d="M2278.75,3203.68c-43.44-1.91-98.54-6.37-130.28-9.11,31.21-38.29,130.28-64.1,130.28-64.1h27.98c19.24,27.74,22.03,54.15,21.82,68.34-8.66,3.46-23.69,6.02-49.8,4.87Z"/>
                            <path class="cls-26"
                                  d="M2311.45,3084.78l-2.62,51.81c-.28,5.61-4.48,10.33-10.1,11.13-5.59.8-13.08.9-21.02-1.74-4.89-1.63-8.51-5.74-9.41-10.76l-9.05-50.44h52.2Z"/>
                        </g>
                        <g>
                            <g>
                                <path class="cls-16"
                                      d="M2674.88,3203.29c13.77-1.92,20-9.07,22.61-16.72.02.07.03.14.05.21,2.02,8.06-2.67,16.42-12.06,20.4-11.35,4.8-23.75,5.62-33.39,5.23-10.33-.43-19.82-4.7-25.03-11.54l-.08-.1c10.37,5.13,24.93,5.74,47.89,2.53Z"/>
                                <path class="cls-4"
                                      d="M2609.96,3084.45h23.07c35.15-.72,57.22,73.42,64.44,102.12-2.61,7.65-8.84,14.8-22.61,16.72-22.96,3.2-37.52,2.6-47.89-2.53-18.99-24.99-28.4-61.58-32.93-82.94-5.15-24.29,15.91-33.36,15.91-33.36Z"/>
                            </g>
                            <path class="cls-51"
                                  d="M2630.07,3036.35l12.81,50.96c1.57,6.25-1.42,12.71-7.2,15.68-7.17,3.68-17.26,7.54-26.53,6.43-4.36-.53-7.99-3.6-9.43-7.71l-18.81-53.62,49.16-11.74Z"/>
                        </g>
                        <path class="cls-32"
                              d="M2645.36,3051.08c-15.94,14.14-67.79,16.01-67.79,16.01-186.78-448.29-264.65-571.7-264.65-571.7,26.97,169.21,5.81,603.53,5.81,603.53-30.82,13.6-70.56,0-70.56,0-2.5-277.01-41.5-574.67-91.8-765.13,126.24-2.84,194.85-30.36,216.77-47.7,105.23,169.65,272.23,764.99,272.23,764.99Z"/>
                        <g>
                            <path class="cls-72"
                                  d="M2124.56,2459.06l23.23,144.48c4.05,25.19,27.39,42.67,52.83,39.56l347.67-42.41c17.01-2.07,29.91-16.28,30.25-33.33.74-37.33-.72-103.77-16.39-164.3l-437.59,56Z"/>
                            <path class="cls-19"
                                  d="M2212.35,2633.42c-.57,0-1.06-.43-1.14-1-.08-.63.37-1.2,1-1.27l9.08-1.11c.66-.07,1.2.37,1.27,1,.08.63-.37,1.2-1,1.27l-9.08,1.11s-.09,0-.14,0ZM2191.16,2633.01c-.09,0-.18-.01-.28-.04-3.02-.75-5.99-1.81-8.81-3.15-.57-.27-.81-.96-.54-1.52.28-.57.97-.81,1.52-.54,2.68,1.28,5.5,2.28,8.38,3,.61.15.99.77.83,1.39-.13.52-.59.87-1.11.87ZM2242.62,2629.72c-.57,0-1.06-.43-1.14-1.01-.08-.62.37-1.2,1-1.27l9.08-1.1c.61-.09,1.19.37,1.27,1,.08.62-.37,1.2-1,1.27l-9.08,1.11s-.09,0-.14,0ZM2272.9,2626.03c-.57,0-1.06-.43-1.14-1-.08-.63.37-1.2,1-1.27l9.08-1.11c.66-.1,1.2.37,1.27,1,.08.63-.37,1.2-1,1.27l-9.08,1.11s-.09.01-.14.01ZM2303.17,2622.34c-.57,0-1.06-.43-1.14-1-.08-.63.37-1.2,1-1.27l9.08-1.1c.66-.07,1.2.37,1.27,1,.08.63-.37,1.2-1,1.27l-9.08,1.1s-.09,0-.14,0ZM2333.44,2618.65c-.57,0-1.06-.43-1.14-1-.08-.63.37-1.2,1-1.27l9.08-1.11c.66-.09,1.2.37,1.27,1,.08.63-.37,1.2-1,1.27l-9.08,1.11s-.09,0-.14,0ZM2166.1,2616.67c-.34,0-.68-.15-.9-.45-1.91-2.47-3.57-5.15-4.94-7.96-.28-.57-.04-1.25.53-1.53.57-.27,1.25-.04,1.53.53,1.3,2.67,2.88,5.22,4.69,7.56.39.5.3,1.22-.21,1.6-.21.16-.45.24-.7.24ZM2363.71,2614.95c-.57,0-1.06-.43-1.14-1-.08-.63.37-1.2,1-1.27l9.08-1.11c.66-.1,1.2.37,1.27,1,.08.63-.37,1.2-1,1.27l-9.08,1.11s-.09.01-.14.01ZM2393.98,2611.26c-.57,0-1.06-.43-1.14-1-.08-.63.37-1.2,1-1.27l9.08-1.1c.61-.07,1.19.37,1.27,1,.08.63-.37,1.2-1,1.27l-9.08,1.1s-.09,0-.14,0ZM2424.26,2607.57c-.57,0-1.06-.43-1.14-1-.08-.63.37-1.2,1-1.27l9.08-1.11c.66-.08,1.2.37,1.27,1,.08.63-.37,1.2-1,1.27l-9.08,1.11s-.09.01-.14.01ZM2454.53,2603.88c-.57,0-1.06-.43-1.14-1-.08-.63.37-1.2,1-1.27l9.08-1.11c.66-.1,1.2.37,1.27,1,.08.63-.37,1.2-1,1.27l-9.08,1.11s-.09,0-.14,0ZM2484.8,2600.18c-.57,0-1.06-.43-1.14-1-.08-.63.37-1.2,1-1.27l9.08-1.1c.66-.07,1.2.37,1.27,1,.08.63-.37,1.2-1,1.27l-9.08,1.1s-.09,0-.14,0ZM2515.07,2596.49c-.57,0-1.06-.43-1.14-1-.08-.63.37-1.2,1-1.27l9.08-1.11c.66-.08,1.2.37,1.27,1,.08.63-.37,1.2-1,1.27l-9.08,1.11s-.09,0-.14,0ZM2545.21,2592.09c-.48,0-.92-.3-1.08-.77-.21-.59.11-1.25.71-1.45,2.78-.96,5.42-2.29,7.84-3.99.51-.36,1.23-.24,1.59.28.36.52.24,1.23-.28,1.59-2.6,1.81-5.43,3.25-8.41,4.28-.12.04-.25.06-.37.06ZM2156.03,2588.32c-.55,0-1.04-.4-1.13-.96l-1.45-9.03c-.1-.62.32-1.21.95-1.31.63-.1,1.21.32,1.31.95l1.45,9.03c.1.62-.32,1.21-.95,1.31-.06,0-.12.02-.18.02ZM2565.76,2571.06c-.11,0-.23-.02-.34-.05-.6-.19-.94-.83-.75-1.43.89-2.8,1.37-5.72,1.44-8.68.02-.62.53-1.12,1.15-1.12h.03c.63.02,1.13.54,1.12,1.17-.08,3.17-.6,6.31-1.55,9.31-.15.49-.6.8-1.09.8ZM2151.2,2558.21c-.55,0-1.04-.4-1.13-.96l-1.45-9.03c-.1-.62.32-1.21.95-1.31.65-.11,1.21.32,1.31.95l1.45,9.03c.1.62-.32,1.21-.95,1.31-.06.01-.12.02-.18.02ZM2567.38,2540.72c-.63,0-1.14-.51-1.15-1.14-.03-2.95-.07-6-.14-9.14-.01-.63.49-1.15,1.12-1.17.68-.11,1.15.49,1.17,1.12.06,3.15.11,6.21.14,9.17,0,.63-.5,1.15-1.14,1.15,0,0,0,0,0,0ZM2146.35,2528.1c-.55,0-1.04-.4-1.13-.96l-1.45-9.03c-.1-.62.32-1.21.95-1.31.63-.09,1.21.32,1.31.95l1.45,9.03c.1.62-.32,1.21-.95,1.31-.06.01-.12.02-.18.02ZM2566.48,2510.23c-.6,0-1.11-.48-1.14-1.09-.15-3-.32-6.03-.52-9.12-.04-.63.44-1.18,1.07-1.22.76.05,1.18.44,1.22,1.07.2,3.1.37,6.15.52,9.15.03.63-.45,1.17-1.08,1.2-.02,0-.04,0-.06,0ZM2141.51,2497.99c-.55,0-1.04-.4-1.13-.96l-1.45-9.03c-.1-.62.32-1.21.95-1.31.65-.1,1.21.32,1.31.95l1.45,9.03c.1.62-.32,1.21-.95,1.31-.06,0-.12.02-.18.02ZM2564.25,2479.81c-.58,0-1.08-.44-1.14-1.03-.29-3-.61-6.03-.95-9.08-.07-.63.38-1.19,1.01-1.26.62-.08,1.19.38,1.26,1.01.35,3.06.66,6.1.96,9.12.06.63-.4,1.19-1.03,1.25-.04,0-.07,0-.11,0ZM2136.67,2467.88c-.55,0-1.04-.4-1.13-.96l-1.64-10.2,8.38-1.07c.65-.1,1.2.37,1.28.99.08.63-.36,1.2-.99,1.28l-6.03.77,1.26,7.87c.1.62-.32,1.21-.95,1.31-.06.01-.12.02-.18.02ZM2163.6,2455.21c-.57,0-1.06-.42-1.14-1-.08-.63.36-1.2.99-1.28l9.07-1.16c.73-.09,1.2.37,1.28.99.08.63-.36,1.2-.99,1.28l-9.07,1.16c-.05,0-.1.01-.15.01ZM2193.85,2451.34c-.57,0-1.06-.42-1.14-1-.08-.63.36-1.2.99-1.28l9.07-1.16c.72-.09,1.2.36,1.28.99.08.63-.36,1.2-.99,1.28l-9.07,1.16c-.05,0-.1.01-.15.01ZM2560.52,2449.54c-.56,0-1.04-.41-1.13-.97-.45-3-.94-6.01-1.45-9.02-.1-.62.31-1.21.94-1.32.65-.1,1.22.32,1.32.94.51,3.02,1,6.04,1.45,9.06.09.62-.33,1.21-.96,1.3-.06,0-.12.01-.17.01ZM2224.1,2447.47c-.57,0-1.06-.42-1.14-1-.08-.63.36-1.2.99-1.28l9.07-1.16c.72-.08,1.2.37,1.28.99.08.63-.36,1.2-.99,1.28l-9.07,1.16c-.05,0-.1,0-.15,0ZM2254.35,2443.6c-.57,0-1.06-.42-1.14-1-.08-.63.36-1.2.99-1.28l9.07-1.16c.71-.07,1.2.37,1.28.99.08.63-.36,1.2-.99,1.28l-9.07,1.16c-.05,0-.1,0-.15,0ZM2284.6,2439.73c-.57,0-1.06-.42-1.14-1-.08-.63.36-1.2.99-1.28l9.07-1.16c.71-.06,1.2.37,1.28.99.08.63-.36,1.2-.99,1.28l-9.07,1.16c-.05,0-.1,0-.15,0ZM2314.85,2435.86c-.57,0-1.06-.42-1.14-1-.08-.63.36-1.2.99-1.28l9.07-1.16c.7-.1,1.2.37,1.28.99.08.63-.36,1.2-.99,1.28l-9.07,1.16c-.05,0-.1,0-.15,0ZM2345.1,2431.99c-.57,0-1.06-.42-1.14-1-.08-.63.36-1.2.99-1.28l9.07-1.16c.65-.09,1.2.36,1.28.99.08.63-.36,1.2-.99,1.28l-9.07,1.16s-.1,0-.15,0ZM2375.35,2428.12c-.57,0-1.06-.42-1.14-1-.08-.63.36-1.2.99-1.28l9.07-1.16c.69-.08,1.2.37,1.28.99.08.63-.36,1.2-.99,1.28l-9.07,1.16c-.05,0-.1.01-.15.01ZM2405.6,2424.25c-.57,0-1.06-.42-1.14-1-.08-.63.36-1.2.99-1.28l9.07-1.16c.73-.07,1.2.37,1.28.99.08.63-.36,1.2-.99,1.28l-9.07,1.16c-.05,0-.1,0-.15,0ZM2435.85,2420.38c-.57,0-1.06-.42-1.14-1-.08-.63.36-1.2.99-1.28l9.07-1.16c.72-.06,1.2.37,1.28.99.08.63-.36,1.2-.99,1.28l-9.07,1.16c-.05,0-.1,0-.15,0ZM2555,2419.55c-.53,0-1-.36-1.12-.9-.65-2.97-1.34-5.94-2.05-8.89-.15-.61.23-1.23.84-1.38.63-.16,1.24.23,1.38.84.72,2.97,1.41,5.95,2.07,8.94.13.61-.26,1.23-.88,1.36-.08.02-.16.03-.24.03ZM2466.1,2416.5c-.57,0-1.06-.42-1.14-1-.08-.63.36-1.2.99-1.28l9.07-1.16c.72-.1,1.2.37,1.28.99.08.63-.36,1.2-.99,1.28l-9.07,1.16c-.05,0-.1,0-.15,0ZM2496.35,2412.63c-.57,0-1.06-.42-1.14-1-.08-.63.36-1.2.99-1.28l9.07-1.16c.71-.09,1.2.37,1.28.99.08.63-.36,1.2-.99,1.28l-9.07,1.16c-.05,0-.1,0-.15,0ZM2526.6,2408.76c-.57,0-1.06-.42-1.14-1-.08-.63.36-1.2.99-1.28l9.07-1.16c.71-.09,1.2.37,1.28.99.08.63-.36,1.2-.99,1.28l-9.07,1.16c-.05,0-.1,0-.15,0Z"/>
                            <path class="cls-66"
                                  d="M2212.9,2340.72l-.39-11.32c.84-2.82,3.04-5.03,5.88-5.86,10.6-3.11,37.06-9.57,51.22-1.57l3.59,12.75-60.31,5.99Z"/>
                            <path class="cls-44"
                                  d="M2245.33,2325.63c-2.42.93-4.91,1.25-7.49.95-3.12-.36-5.6-2.79-6-5.89l-4.48-35.03,17.83-2.28,4.48,35.01c.4,3.11-1.39,6.12-4.34,7.25Z"/>
                            <path class="cls-37"
                                  d="M2385.59,2318.62l-.39-11.32c.84-2.82,3.05-5.03,5.88-5.86,10.6-3.11,37.06-9.57,51.22-1.57l3.59,12.75-60.31,5.99Z"/>
                            <path class="cls-31"
                                  d="M2418.02,2303.53c-2.41.93-4.91,1.25-7.49.95-3.12-.36-5.6-2.79-6-5.89l-4.96-38.73,17.83-2.28,4.95,38.7c.4,3.12-1.39,6.12-4.34,7.25Z"/>
                            <path class="cls-62"
                                  d="M2226.65,2294.47l190.93-30.88c4.35-.7,7.66-4.33,7.86-8.72.28-6.14.06-15.24-2.51-24.38-2.93-10.39-13.04-17.1-23.83-15.98-35.88,3.73-126.94,15.4-174.58,41.68-5.04,2.78-8.4,7.82-9.03,13.52-.61,5.43-.56,12.58,2.03,19.53,1.38,3.69,5.23,5.86,9.14,5.23Z"/>
                            <path class="cls-17"
                                  d="M2221.94,2287.14c-1.39,0-2.64-.95-2.97-2.36-.07-.31-1.78-7.82-.74-15.39.85-6.21,4.98-11.64,10.77-14.17,10.38-4.55,30.31-12.56,47.17-15.2,1.68-.22,3.22.88,3.49,2.54.26,1.67-.88,3.22-2.54,3.49-16.78,2.63-37.53,11.2-45.67,14.76-3.86,1.69-6.6,5.3-7.17,9.42-.89,6.43.62,13.12.64,13.19.38,1.64-.65,3.28-2.29,3.66-.23.06-.46.08-.69.08Z"/>
                            <path class="cls-40"
                                  d="M2123.38,2347.74c61.84-8.72,329.46-45.82,408.5-46.39,6.8-.05,12.9,4.16,15.19,10.53,7.26,20.21,22.7,67.33,27.73,115.35.68,6.53-3.39,12.65-9.67,14.69l-173.38,56.35-63.12,8.08-194.14-13.41c-6.84-.47-12.49-5.5-13.7-12.22-4.31-23.93-13.47-80.21-11.61-117.43.4-7.91,6.32-14.44,14.2-15.55Z"/>
                            <path class="cls-19"
                                  d="M2328.32,2491.98l-9.35-.62c-.63-.05-1.1-.59-1.06-1.22.04-.63.64-1.06,1.22-1.06l9.13.63,4.89-.65c.73-.06,1.2.37,1.28.99.08.63-.36,1.2-.99,1.28l-5.11.65ZM2297.75,2489.88s-.05,0-.08,0l-9.13-.63c-.63-.04-1.1-.59-1.06-1.22.04-.63.63-1.07,1.22-1.06l9.13.63c.63.05,1.11.59,1.06,1.22-.04.6-.54,1.07-1.14,1.07ZM2354.47,2488.62c-.57,0-1.06-.42-1.14-1-.08-.63.36-1.2.99-1.28l9.07-1.16c.72-.09,1.2.37,1.28.99.08.63-.36,1.2-.99,1.28l-9.07,1.16c-.05,0-.1,0-.15,0ZM2267.33,2487.78s-.05,0-.08,0l-9.13-.63c-.63-.05-1.1-.59-1.06-1.22.04-.63.62-1.08,1.22-1.06l9.13.63c.63.04,1.1.59,1.06,1.22-.04.6-.54,1.07-1.14,1.07ZM2236.91,2485.68s-.05,0-.08,0l-9.13-.63c-.63-.05-1.1-.59-1.06-1.22.05-.63.6-1.08,1.22-1.06l9.13.63c.63.04,1.1.59,1.06,1.22-.04.6-.54,1.07-1.14,1.07ZM2384.72,2484.75c-.57,0-1.06-.42-1.14-1-.08-.63.36-1.2.99-1.28l3.64-.47,5.01-1.65c.6-.18,1.25.14,1.44.74.2.6-.14,1.25-.74,1.44l-5.22,1.69-3.84.51c-.05,0-.1,0-.15,0ZM2206.48,2483.58s-.05,0-.08,0l-9.13-.63c-.63-.05-1.1-.59-1.06-1.22.04-.63.59-1.01,1.22-1.06l9.13.63c.63.05,1.1.59,1.06,1.22-.04.6-.54,1.07-1.14,1.07ZM2176.06,2481.48s-.05,0-.08,0l-9.13-.63c-.63-.04-1.11-.59-1.06-1.22.05-.63.58-1.02,1.22-1.06l9.13.63c.63.05,1.1.59,1.06,1.22-.04.6-.54,1.07-1.14,1.07ZM2145.63,2479.38s-.05,0-.08,0l-9.13-.63c-.63-.05-1.1-.59-1.06-1.22.05-.63.65-1.02,1.22-1.06l9.13.63c.63.04,1.1.59,1.06,1.22-.04.6-.54,1.07-1.14,1.07ZM2413.87,2475.99c-.48,0-.93-.31-1.09-.79-.2-.6.14-1.25.74-1.44l8.7-2.83c.6-.18,1.25.14,1.44.74.2.6-.14,1.25-.74,1.44l-8.7,2.83c-.12.03-.24.05-.35.05ZM2442.88,2466.56c-.48,0-.93-.31-1.09-.79-.2-.6.14-1.25.74-1.44l8.7-2.82c.59-.18,1.25.14,1.44.74.2.6-.14,1.25-.74,1.44l-8.7,2.83c-.12.03-.24.05-.35.05ZM2132.46,2458.23c-.56,0-1.04-.4-1.13-.97-.46-2.89-.92-5.92-1.39-9.06-.09-.62.34-1.21.97-1.3.6-.1,1.21.34,1.3.97.46,3.14.93,6.16,1.38,9.04.1.62-.32,1.21-.95,1.31-.06,0-.12.02-.18.02ZM2471.88,2457.14c-.48,0-.93-.31-1.09-.79-.2-.6.14-1.25.74-1.44l8.7-2.83c.61-.18,1.25.14,1.44.74.2.6-.14,1.25-.74,1.44l-8.7,2.82c-.12.04-.24.06-.35.06ZM2500.88,2447.71c-.48,0-.93-.31-1.09-.79-.2-.6.14-1.25.74-1.44l8.7-2.83c.6-.18,1.25.14,1.44.74.2.6-.14,1.25-.74,1.44l-8.7,2.82c-.12.04-.24.06-.35.06ZM2529.89,2438.28c-.48,0-.93-.31-1.09-.79-.2-.6.14-1.25.74-1.44l8.7-2.83c.6-.18,1.25.14,1.44.74.2.6-.14,1.25-.74,1.44l-8.7,2.83c-.12.04-.24.05-.35.05ZM2558.89,2428.86c-.49,0-.93-.31-1.09-.79-.14-.43-.01-.87.29-1.17-.29-2.61-.61-5.21-.96-7.81-.08-.63.36-1.2.98-1.29.64-.1,1.2.36,1.29.98.39,2.88.74,5.78,1.06,8.67l.1.93-1.31.42c-.12.04-.24.05-.35.05ZM2128.2,2428.01c-.57,0-1.06-.43-1.14-1-.37-3.01-.72-6.05-1.05-9.11-.07-.63.39-1.19,1.01-1.26.67-.04,1.19.39,1.26,1.01.33,3.05.68,6.08,1.05,9.07.08.63-.37,1.2-1,1.27-.05,0-.09.01-.14.01ZM2554.81,2399c-.54,0-1.02-.38-1.12-.93-.58-3.01-1.18-6-1.8-8.95-.13-.62.26-1.23.88-1.36.65-.12,1.23.27,1.36.88.63,2.97,1.23,5.97,1.81,8.99.12.62-.29,1.22-.91,1.34-.07.02-.15.02-.22.02ZM2125.23,2397.65c-.59,0-1.1-.46-1.14-1.07-.22-3.09-.39-6.15-.53-9.17-.03-.63.46-1.17,1.09-1.19.69-.12,1.17.46,1.19,1.09.14,3,.31,6.04.53,9.11.04.63-.43,1.17-1.06,1.22-.03,0-.05,0-.08,0ZM2548.15,2369.24c-.51,0-.98-.34-1.11-.86-.77-3.02-1.56-5.97-2.34-8.83-.17-.61.19-1.24.8-1.41.63-.18,1.24.2,1.41.8.79,2.88,1.57,5.84,2.35,8.86.16.61-.21,1.24-.82,1.4-.1.02-.19.03-.29.03ZM2124.51,2367.16s-.03,0-.04,0c-.63-.02-1.12-.56-1.1-1.19l.08-1.95c.05-1.08.85-1.97,1.91-2.12l5.64-.79c.63-.14,1.21.34,1.29.97.09.63-.35,1.2-.97,1.29l-5.63.79-.04,1.9c-.02.62-.53,1.1-1.14,1.1ZM2152.32,2360.43c-.56,0-1.05-.42-1.13-.99-.09-.62.35-1.2.98-1.29l9.06-1.25c.68-.11,1.2.35,1.29.98.09.63-.35,1.2-.98,1.29l-9.06,1.25c-.05,0-.1.01-.16.01ZM2182.54,2356.28c-.57,0-1.05-.42-1.13-.99-.09-.63.35-1.2.98-1.29l9.07-1.24c.65-.08,1.2.36,1.29.98.08.62-.35,1.2-.98,1.29l-9.06,1.23c-.06.01-.11.01-.16.01ZM2212.78,2352.2c-.57,0-1.06-.42-1.14-.99-.08-.63.36-1.2.98-1.29l9.07-1.21c.6-.08,1.2.36,1.28.99.08.62-.36,1.2-.99,1.28l-9.07,1.21c-.05,0-.1.01-.15.01ZM2243.02,2348.18c-.57,0-1.06-.42-1.14-1-.08-.63.36-1.2.99-1.28l9.07-1.19c.63-.1,1.2.36,1.28.99.08.63-.36,1.2-.99,1.28l-9.07,1.19c-.05,0-.1.01-.15.01ZM2273.28,2344.25c-.57,0-1.06-.42-1.14-1-.08-.63.36-1.2.99-1.28l9.08-1.17c.66-.09,1.2.37,1.28.99.08.62-.36,1.2-.99,1.28l-9.07,1.17s-.1,0-.15,0ZM2303.73,2340.37l-.29-2.27,9.02-1.13c.65-.08,1.2.37,1.28.99.08.63-.37,1.2-.99,1.28l-9.02,1.13ZM2539.8,2339.9c-.49,0-.94-.31-1.09-.8-.97-3.1-1.91-6.01-2.79-8.7-.2-.6.13-1.25.73-1.44.6-.2,1.25.13,1.44.73.89,2.7,1.83,5.61,2.81,8.73.19.6-.15,1.25-.75,1.43-.11.04-.23.05-.34.05ZM2303.53,2339.25h.03-.03ZM2333.8,2336.64c-.57,0-1.06-.43-1.14-1-.08-.63.37-1.2,1-1.27l9.08-1.1c.61-.06,1.19.37,1.27,1,.08.62-.37,1.2-1,1.27l-9.08,1.1s-.1.01-.14.01ZM2364.07,2333c-.57,0-1.07-.43-1.14-1.01-.07-.63.37-1.2,1-1.27l9.09-1.06c.67-.08,1.2.38,1.27,1,.07.63-.37,1.2-1,1.27l-9.09,1.06s-.09.01-.13.01ZM2394.38,2329.51c-.57,0-1.07-.43-1.14-1.02-.07-.63.38-1.19,1.01-1.26l9.09-1.01c.63-.05,1.2.38,1.26,1.01.07.63-.38,1.19-1.01,1.26l-9.09,1.01s-.08,0-.13,0ZM2424.69,2326.2c-.58,0-1.08-.44-1.14-1.02-.06-.63.39-1.19,1.02-1.26l9.1-.95c.62-.06,1.19.39,1.25,1.02.06.63-.39,1.19-1.02,1.25l-9.09.95s-.08,0-.12,0ZM2455.04,2323.14c-.58,0-1.08-.45-1.14-1.04-.06-.63.4-1.19,1.03-1.25,3.11-.3,6.15-.58,9.11-.85.66-.08,1.19.41,1.24,1.03.06.63-.41,1.19-1.03,1.24-2.97.27-6,.56-9.11.85-.04,0-.07,0-.11,0ZM2485.42,2320.44c-.59,0-1.09-.46-1.14-1.05-.05-.63.42-1.18,1.05-1.23,3.15-.25,6.19-.49,9.13-.7.73.04,1.18.43,1.23,1.06.04.63-.43,1.18-1.06,1.23-2.94.22-5.97.45-9.12.7-.03,0-.06,0-.09,0ZM2515.85,2318.42c-.61,0-1.11-.48-1.14-1.09-.03-.63.46-1.17,1.09-1.2,3.27-.16,6.33-.28,9.16-.36h.04c.62,0,1.12.49,1.15,1.11.02.63-.48,1.16-1.11,1.18-2.83.08-5.87.2-9.12.36-.02,0-.04,0-.06,0Z"/>
                            <path class="cls-22"
                                  d="M2389.2,2525.53l-55.29,7.08c-7.25.93-14.04-3.68-15.81-10.74l-13.2-52.39c-2.1-8.34,3.59-16.65,12.17-17.75l66.43-8.5c8.4-1.07,15.91,5.25,16.24,13.68l2.06,53.82c.28,7.43-5.18,13.86-12.59,14.81Z"/>
                            <path class="cls-15"
                                  d="M2381.14,2516.61l-42.09,5.39c-5.51.71-10.69-2.8-12.04-8.17l-10.04-39.88c-1.6-6.35,2.74-12.68,9.26-13.51l50.56-6.47c6.4-.82,12.11,4,12.36,10.41l1.57,40.96c.22,5.66-3.94,10.55-9.58,11.27Z"/>
                        </g>
                        <path class="cls-67"
                              d="M2348.25,2092.59c13.04,53.89,13.39,106.62,11.4,125.81-.75,7.24-6.56,12.89-13.82,13.4-8.25.58-19.47,1.33-29.5,1.91-11.02.64-23.26-6.33-31.44-12.15-4.18-2.97-9.58,1.66-7.25,6.22,4.02,7.86,11,14.06,17.93,19.32,4.17,3.17,18.02,8.79,17.06,15.03-.3,1.97-1.49,3.68-2.77,5.21-7.7,9.24-19.35,14.17-30.84,17.7-1.44.44-2.97.92-3.98,2.03-.29,7.44,22.58,15.69,28.49,17.65,8.84,2.94,18.22,4.18,27.51,3.2,23.01-2.42,44.26-18.31,56.66-37.46,33.13-51.2,50.26-113.02,56.52-160.3-30.82-30.81-77.35-23-95.96-17.58Z"/>
                        <g>
                            <path class="cls-6"
                                  d="M2444.22,2115.04c24.58-185.68-118.51-328.46-118.51-328.46l-85.14,99.25c64.64,80.57,95.36,154.39,109.4,212.38,18.61-5.42,63.43-13.98,94.25,16.83Z"/>
                            <path class="cls-11"
                                  d="M2347.94,2097.3c-2.38,0-4.54-1.62-5.12-4.03-17.3-71.48-53.77-142.24-108.38-210.32-1.82-2.27-1.46-5.59.81-7.41,2.27-1.82,5.59-1.46,7.41.81,55.59,69.3,92.74,141.45,110.41,214.44.69,2.83-1.06,5.68-3.89,6.36-.42.1-.83.15-1.24.15Z"/>
                        </g>
                    </g>
                    <g>
                        <g>
                            <path class="cls-34"
                                  d="M1194.91,3198.07c.01-.91-.05-1.82-.28-2.75-13.69-54.28-81.65-88.09-81.65-88.09l-26.93,2.11c-15.48,47.85-13.49,77.19-11.01,90.26.07.37.18.72.28,1.07,22.21,1.98,67.94,3.28,119.59-2.6Z"/>
                            <path class="cls-64"
                                  d="M1075.32,3200.66c1.2,4.36,4.42,7.76,8.55,8.63,31.6,6.65,81.83,1.3,102.91-1.46,4.65-.61,8.05-4.91,8.13-9.77-51.65,5.88-97.38,4.58-119.59,2.6Z"/>
                            <path class="cls-7"
                                  d="M1075.22,3069.23l11.41,54.91c.83,4.02,3.93,7.04,7.67,7.39,4.58.43,11.11.68,17.67-.28,5.88-.86,9.98-6.84,8.94-13.26l-7.93-48.75h-37.76Z"/>
                            <path class="cls-25"
                                  d="M1311.54,3199.97c-29.74-.83-45.12-4.33-53.08-7.59-.02,2.96,0,5.97.09,9.08.1,3.33,2.57,5.99,5.6,5.97l163.3-1.05c5.21-.03,8.26-6.08,6-10.86-21.41,1.77-75.95,5.73-121.92,4.44Z"/>
                            <path class="cls-65"
                                  d="M1433.46,3195.53c-.2-.42-.37-.84-.65-1.23-14.42-20.15-51.15-60.28-123.73-77.68l-34.82-1.1s-15.51,26.95-15.8,76.87c7.95,3.25,23.34,6.75,53.08,7.59,45.97,1.29,100.51-2.67,121.92-4.44Z"/>
                            <path class="cls-35"
                                  d="M1266.25,3064.37c.55,2.57,7.8,41.64,10.6,56.78.67,3.6,3.47,6.24,6.81,6.43,5.96.33,15.58.37,23.85-1.87,4.46-1.21,7.46-5.76,7.14-10.81l-3.9-61.8-44.5,11.27Z"/>
                            <path class="cls-54"
                                  d="M1239.87,2343.01s47.9,329.13,82.46,720.8c.64,7.29-5.17,13.64-12.33,15.15-10.56,2.22-26.08,4.86-38.93,4.5-6.86-.19-12.59-5.28-13.75-12.04-11.78-69.06-95.8-439.67-117.86-521.24,0,0-25.33,346.49-17.23,526.25.2,4.47-3.07,8.35-7.52,8.86-6.74.78-17.53,1.37-31.26-.09-5.21-.55-9.41-4.49-10.16-9.68-8.39-58.44-56.66-406.33-54.61-656.93.12-14.13,16.58-130.24,16.58-130.24l204.6,54.67Z"/>
                        </g>
                        <path class="cls-45"
                              d="M1028.07,2361.98c-4.92-1.75-8.36-6.21-8.89-11.41-6.37-61.8-37.21-444.95,157.49-602.57,0,0,11.17-29.21,102.94,42.6,91.78,71.81,42.64,147.08,20.67,250.9-26.59,125.63-73.24,228.32-52.6,305.63,1.42,5.33-1.38,10.94-6.56,12.85-71.29,26.27-142.31,27.15-213.05,2.01Z"/>
                        <path class="cls-23"
                              d="M1252.61,1633.19c-.06,5.45-77.81,115.88-77.81,115.88,0,0,13.95,27.48,80.58,49.8l57.51-118.24-60.28-47.44Z"/>
                        <g>
                            <path class="cls-5"
                                  d="M1313.83,1569.91s27.66,63.55,29.52,96.9,9.05,55-29.52,61.71c-38.57,6.72-71.06-12.5-88.66-45.72,0,0-27.58-51.2-21.39-72.16,6.19-20.97,110.05-40.73,110.05-40.73Z"/>
                            <path class="cls-43"
                                  d="M1238.35,1658.92l2.19-.97c2.8-1.23,3.99-4.56,2.59-7.27-5.44-10.51-16.04-34.59-2.34-40.2,17.65-7.24,87.57-21.5,102.65-46.31,14.5-23.84,1.65-54.62-17.65-63.38-1.29-.59-2.81-.12-3.48,1.13l-1.61,3.04c-1.1,2.08-4.18,1.77-4.83-.5h0c-.63-2.17-3.52-2.59-4.72-.68-4.64,7.42-17.16,19.46-50.63,25.63-47.58,8.78-79.04,28.04-79.82,60.91-.05,2.09-2.27,3.25-4.06,2.16-3.51-2.14-9.14-3.15-16.65,3.17-13.07,10.99-7.72,39.49,20.92,62.93,1.36,1.11,1.35,3.24-.12,4.2-5.19,3.38-12.93,11.42,7.12,22.15,20.75,11.09,36.24,10.18,42.2,9.2,1.48-.24,2.44-1.68,2.12-3.15l-6.37-28.9c-.36-1.64.88-3.19,2.56-3.19h9.92Z"/>
                            <path class="cls-18"
                                  d="M1239.55,1665.02s-10.55-40.59-28.75-29.21c-18.2,11.38,9.44,45.48,24.08,47l4.68-17.79Z"/>
                        </g>
                        <g>
                            <path class="cls-10"
                                  d="M1309.13,1823.92l5.36,143.96c15.22,5.24,29.72,9.31,43.52,12.36,8.63-27.8,27.65-61.91,43.21-87.28-57.19-20.22-92.09-69.04-92.09-69.04Z"/>
                            <path class="cls-47"
                                  d="M1594.69,1821.47c-78.46,84.71-141.96,89.7-193.46,71.49-15.57,25.37-34.58,59.48-43.21,87.28,209.52,46.19,258.86-146.42,258.86-146.42l-22.19-12.35Z"/>
                            <path class="cls-24"
                                  d="M1610.6,1812.47s9.04-9.7,25.77-6.66c16.73,3.05,31.62,8.86,42.04,0s14.09,3.03,14.09,3.03l-31.21,23.72-50.68-20.1Z"/>
                            <path class="cls-57"
                                  d="M1591.94,1829.06s6.19-25.89,24.85-22.34c18.66,3.55,61.03,26.59,71.95,22.34s24.88-14.4,32.04-10.81l-12.62,15.69s32.44-18.71,38.02-7.21l-53.97,30.37s-78.96-7.9-100.28-28.03Z"/>
                        </g>
                        <path class="cls-8"
                              d="M1222.04,2012.33s147.51,123.54,306.79,69.63c9.88-3.34,20.68-2.62,29.9,2.25l45.79,24.19c19.22,10.15,43.02,3.49,54.18-15.17,6.36-10.64,11.79-22.8,12.87-34.44l-89.6-36.27,6.61-10.99s-43.75-3.71-55.2,27.65c0,0-83.33,34.66-223.85-119.91,0,0-63.77,54.22-87.48,93.06Z"/>
                        <path class="cls-1"
                              d="M1214.1,2011.06c-.49,0-.98-.14-1.41-.43-62.11-41.96-91.33-109.69-91.61-110.38-.54-1.29.06-2.77,1.34-3.31,1.29-.55,2.76.05,3.31,1.34.28.67,28.96,67.06,89.79,108.17,1.16.78,1.46,2.35.68,3.51-.49.72-1.28,1.11-2.09,1.11Z"/>
                        <path class="cls-50"
                              d="M1306.61,1917.18c-.83,0-1.64-.41-2.12-1.16-.19-.29-19.16-29.83-55.3-94.54-11.11-19.9-25.72-32.5-43.41-37.45-29.3-8.19-57.53,7.52-57.81,7.68-1.21.67-2.75.27-3.44-.95-.69-1.21-.27-2.75.95-3.44,1.22-.69,30.26-16.94,61.62-8.16,19.06,5.32,34.7,18.73,46.51,39.86,36.05,64.55,54.95,93.98,55.14,94.27.76,1.17.42,2.73-.76,3.49-.42.28-.9.41-1.37.41Z"/>
                    </g>
                </g>
            </g>
        </g>
    </g>
</svg>