<?xml version="1.0" encoding="UTF-8"?>
<svg id="Layer_1" data-name="Layer 1" xmlns="http://www.w3.org/2000/svg" viewBox="0 0 78.64 79.15">
    <defs>
        <style>
            .cls-1 {
            fill: #5572b7;
            }
        </style>
    </defs>
    <g id="Layer_1-2" data-name="Layer 1-2">
        <g>
            <path class="cls-1"
                  d="M15.05,10.76C20.13,6.32,26.35,2.5,33.5,1.88c1.36-.12,2.75-.12,4.12.06.07,0,.52.07.69.1-.62-.1.94.18,0,0,.3.06,0-.01-.29-.08.53.12.05.03-.06-.03.03,0,.75.27.27.09,2.26.86,4.49,2.25,6.41,3.8,8.61,6.95,13.51,18.24,13.3,28.67-.09,4.67-1.33,9.52-4.52,13.24-1.57,1.83-3.6,3.33-5.89,4.33-2.79,1.22-5.6,1.56-8.66,1.53-.07,0-.29,0-.33-.05.49.4,1.95-.11,2.21.59-.02-.07.33.24.07,0-.06-.06-.18-.08-.24-.14-.44-.34-.86-.62-1.21-1.04-.66-.8-.97-1.79-1.02-2.78-.13-2.36,1.1-4.66,2.6-6.49,1.95-2.37,4.64-4.25,7.64-5.36,1.64-.6,3.36-1,5.13-1.17.92-.08,1.83-.12,2.75-.07.5.03.98.06,1.46.14.14.02,1.27.25.55.08s.14.05.31.1c.26.08.53.16.79.25.51.17,1,.35,1.5.55,1.1.44,2.18.95,3.2,1.53,1.76,1,3.38,2.26,4.7,3.72,2.28,2.56,3.36,5.75,3.4,9.01.07,7.22-3.98,14.2-8,20.16-1.06,1.59-2.19,3.14-3.35,4.67-.18.24,2.79,1.15,3.03,1.2.44.12,2.89.97,3.26.5,4.92-6.56,10.03-13.98,11.16-22.05.49-3.52.02-7.12-1.98-10.22-2.38-3.68-6.41-6.05-10.59-7.74-8.72-3.53-19.19-5.93-27.48-.37-3.84,2.57-9.14,8.98-4.85,13.21,1.22,1.2,3.05,1.81,4.7,2.33,2.35.73,4.8,1.29,7.3,1.33,3.23.05,6.44-.74,9.24-2.2,4.91-2.54,7.79-7.17,8.87-12.15,2.4-11.18-2.52-24.14-11.09-32.25C47.52,4.07,40.69,1.3,33.56.26s-13.88,1.08-19.65,4.85c-1.81,1.2-3.52,2.53-5.13,3.94-.15.13,2.79,1.15,3.03,1.2.57.16,2.71.98,3.26.5h-.01Z"/>
            <g>
                <polygon class="cls-1" points="7.42 2.1 19.82 14.21 1.9 20.58 7.42 2.1"/>
                <path class="cls-1"
                      d="M5.63,2.65c3.63,3.53,7.24,7.07,10.87,10.6l1.54,1.51.7-.83c-5.23,1.86-10.46,3.72-15.71,5.58l-2.23.79,2.97.03c1.62-5.41,3.23-10.8,4.85-16.2.23-.76.45-1.51.68-2.27s-3.49-.4-3.75.5C3.93,7.76,2.31,13.15.7,18.55c-.23.76-.45,1.51-.68,2.27-.27.93,2.64.15,2.97.03,5.23-1.86,10.46-3.72,15.71-5.58l2.23-.79c.29-.1,1.07-.47.7-.83-3.63-3.53-7.24-7.07-10.87-10.6l-1.54-1.51c-.69-.67-4.2.51-3.6,1.1h.01Z"/>
            </g>
        </g>
    </g>
</svg>