<?xml version="1.0" encoding="UTF-8"?>
<svg id="Layer_2" data-name="Layer 2" xmlns="http://www.w3.org/2000/svg" viewBox="0 0 460.52 466.61">
    <defs>
        <style>
            .cls-1 {
            fill: #37474f;
            }

            .cls-2 {
            fill: #ba68c8;
            }

            .cls-3 {
            fill: #b16668;
            }

            .cls-4 {
            fill: #263238;
            }

            .cls-5 {
            fill: #f28f8f;
            }

            .cls-6 {
            fill: #e0e0e0;
            }

            .cls-7 {
            fill: #f0997a;
            }

            .cls-8 {
            fill: #455a64;
            }

            .cls-9 {
            fill: #ffbda7;
            }

            .cls-10 {
            fill: #fafafa;
            }

            .cls-11 {
            fill: #fff;
            isolation: isolate;
            opacity: .8;
            }
        </style>
    </defs>
    <g id="Layer_1-2" data-name="Layer 1">
        <g id="Floor">
            <ellipse id="Floor-2" data-name="Floor" class="cls-10" cx="230.26" cy="330.53" rx="230.26" ry="136.08"/>
        </g>
        <g id="Plants">
            <g id="Plants-2" data-name="Plants">
                <g>
                    <path class="cls-2"
                          d="M143.21,396.47c-.18-.11-.3-.29-.32-.48-3.43-26.74-29.2-46.03-40.2-54.27-1.78-1.33-3.18-2.38-4.09-3.16-4.04-3.47-5.88-8.04-4.9-12.21.88-3.77,4-6.71,8.57-8.07,11.18-3.34,29.19,9.2,40.98,28.54,16.53,27.09,9.62,47.13,9.55,47.33-.07.21-.26.37-.5.43l-8.48,2c-.1.02-.2.03-.29.01-.11-.02-.22-.05-.32-.11ZM141.97,347.44c-11.46-18.78-28.68-31.03-39.21-27.9-4.13,1.23-6.84,3.76-7.62,7.11-.87,3.72.8,7.82,4.47,10.96.87.74,2.25,1.78,4.01,3.1,11.04,8.26,36.74,27.51,40.63,54.38l7.26-1.71c.8-2.69,5.5-21.29-9.54-45.94Z"/>
                    <path class="cls-2"
                          d="M148.35,395.45s.07,0,.1,0c.41,0,.74-.29.73-.65-.18-31.24-24.97-61.28-41.28-67.44-.38-.14-.81.02-.96.35-.15.34.03.73.41.87,16.13,6.09,40.19,36.57,40.36,66.2,0,.34.28.62.64.67Z"/>
                </g>
                <g>
                    <path class="cls-2"
                          d="M152.02,394.59c.1.01.22,0,.32-.02l5.75-1.59c.23-.06.41-.23.48-.44.1-.3,9.52-30.17.96-70.36-4.36-20.47-18.14-40.42-32.75-47.43-7.03-3.37-13.86-3.77-20.31-1.2-3.64,1.45-5.89,3.59-6.69,6.34-2.19,7.61,6.87,18.92,16.47,30.88,6.71,8.37,13.65,17.03,16.92,24.68.15.35.57.52.95.4.38-.13.57-.51.42-.85-3.33-7.82-10.33-16.55-17.1-24.99-9.38-11.7-18.25-22.75-16.23-29.76.69-2.38,2.61-4.18,5.88-5.48,6.01-2.4,12.41-2.01,19.01,1.16,14.24,6.83,27.69,26.38,31.98,46.48,8.01,37.6.17,66.04-.83,69.41l-5.37,1.49c-.39.11-.6.48-.47.83.09.25.34.43.61.46Z"/>
                    <path class="cls-2"
                          d="M152.96,375.57s.04,0,.05,0c.41.03.75-.24.78-.61,3.11-48.34-27.83-86.96-36.86-93.58-.32-.23-.78-.2-1.04.09-.25.28-.2.7.12.93,8.9,6.52,39.38,44.64,36.3,92.46-.02.35.26.66.64.71Z"/>
                </g>
            </g>
        </g>
        <g id="Shadows">
            <ellipse id="Shadow" class="cls-6" cx="203.75" cy="391.82" rx="71.48" ry="41.27"/>
        </g>
        <g id="Circle">
            <g id="Circle-2" data-name="Circle">
                <circle class="cls-2" cx="212.4" cy="133.91" r="133.91"/>
                <circle class="cls-11" cx="212.4" cy="133.91" r="133.91"/>
            </g>
        </g>
        <g id="Character">
            <g id="Character-2" data-name="Character">
                <g id="Bottom">
                    <g>
                        <path class="cls-9"
                              d="M214.74,356.77l-2.17-18.92,22.82-2.66s-.78,14.96-.59,21.83c.09,3.23,2.37,9.3,2.37,9.3,0,0-8.96,4.88-13.64,2.95-4.69-1.92-7.84-9.47-7.74-10.86l-1.04-1.63Z"/>
                        <path class="cls-4"
                              d="M263.51,389.05c.32.01.49,3.03-1.3,4.47-2.06,1.66-8.57,4.78-16.26,3.46s-11.79-3.91-14.78-6.65c-2.99-2.74-7.18-6.61-10.65-7.54-3.22-.86-7.52-3.7-8.52-4.75-1-1.06-.68-5.57-.68-5.57l52.19,16.58Z"/>
                        <path class="cls-8"
                              d="M214.54,354.96s-.42.21-.66,1.24c-.29,1.24-.69,4.85-1.28,6.87-.82,2.81-1.53,8.62-1.19,10.95s6.4,5.36,9.73,6.8c3.41,1.47,7.3,4.38,10.69,7.45,3.51,3.18,11.04,6.64,16.08,6.8,5.97.19,12.76-1.5,14.41-4.23,2.04-3.39,3.59-7.36-5.09-11.86-1.64-.85-7.38-4.61-9.34-5.96-5.29-3.67-8.98-6.99-11.23-13.2-.26-.73-.54-1.53-1.2-1.92-.51-.3-1.13-.29-1.71-.23-1.48.15-7.39.74-8.76,1.33-1.21.53-2.92,1.12-2.96,2.67-.01.54.12,1.06.27,1.58.09.32.16.74-.12.92-.26.17-.6-.05-.82-.27-.89-.88-1.53-1.98-2.27-2.99-.4-.54-1.66-2.27-2.17-2.71-.46-.4-1.07-.61-1.48-1.05-.52-.56-.91-1.46-.91-2.19Z"/>
                        <path class="cls-1"
                              d="M231.84,388.29c-1.49-1.35-3.08-2.66-4.68-3.84h0s10.15,6.8,14.46,4.07c2.78-1.76,1.58-4.09,1.55-4.82-.04-.73,9.72-5.48,12.37-5.69h0c.72.44,1.31.82,1.7.99,6.8,3.07,7.57,6.71,6.24,11.2-1.65,2.74-7.75,5.39-15.46,5.09-5.04-.2-12.66-3.81-16.18-6.99Z"/>
                        <path class="cls-1"
                              d="M242.52,381.55c5.41,2.44,3.02,3.39,1.48,3.55-1.55.16-10.59-5.68-16.06-10.42-5.7-4.95-10.04-11.46-12.16-13.28-.79-.68-1.64-1.51-2.39-2.28.19-1.22.35-2.33.49-2.91.24-1.04.66-1.24.66-1.24,0,0,.39,1.62.91,2.19.41.45,1.01.66,1.48,1.05.51.44,1.78,2.17,2.17,2.71.74,1.01,1.38,2.11,2.27,2.99,4.56,6.36,15.74,15.2,21.15,17.65Z"/>
                        <g>
                            <path class="cls-4"
                                  d="M243.64,384.27c-.12,0-.24-.05-.34-.14-.23-.2-.25-.55-.05-.78,1.63-1.86,9.16-6.14,13.19-5.53.3.04.5.33.46.62-.04.3-.29.5-.62.46-3.76-.56-10.93,3.69-12.22,5.17-.11.13-.27.19-.43.19Z"/>
                            <path class="cls-4"
                                  d="M238.96,381.09c-.12,0-.24-.05-.34-.14-.23-.2-.24-.55-.05-.78,1.63-1.86,9.16-6.13,13.19-5.52.3.04.5.33.46.62-.04.3-.31.51-.62.46-3.76-.56-10.93,3.69-12.22,5.17-.11.13-.27.19-.43.19Z"/>
                            <path class="cls-4"
                                  d="M234.27,378.07c-.12,0-.24-.05-.34-.14-.23-.2-.24-.55-.05-.78,1.63-1.86,9.16-6.14,13.19-5.52.3.04.5.33.46.63-.04.3-.31.51-.62.46-3.76-.56-10.93,3.69-12.22,5.17-.11.13-.27.19-.43.18Z"/>
                            <path class="cls-4"
                                  d="M229.96,374.66c-.12,0-.24-.05-.34-.14-.23-.2-.24-.55-.05-.78,1.63-1.86,9.18-6.13,13.19-5.52.3.04.5.33.46.62-.04.3-.31.51-.62.46-3.76-.56-10.93,3.69-12.22,5.16-.11.13-.27.19-.43.19Z"/>
                            <path class="cls-4"
                                  d="M225.73,371.26c-.12,0-.24-.05-.33-.13-.23-.2-.25-.55-.06-.78,2.24-2.64,10.09-6.15,14.12-5.54.3.04.5.33.46.62-.04.3-.31.5-.62.46-3.63-.55-11.15,2.83-13.14,5.17-.11.14-.28.2-.44.19Z"/>
                        </g>
                    </g>
                    <g>
                        <path class="cls-9"
                              d="M177.1,364.63l4.91-23.35-22.39-3.4-.16,23.01s-1.65,6.2-.38,8.32c1.28,2.12,14.73,4.24,15.95,2.82,1.22-1.43,2.06-7.39,2.06-7.39Z"/>
                        <path class="cls-4"
                              d="M175.19,401.37c-.54,5.23-1.58,8.62-3.75,11.47-2.18,2.85-6.09,3.36-9.98,2s-8.83-4.38-9.78-9.06c-.95-4.68-.6-7.77.48-12.55l23.03,8.14Z"/>
                        <path class="cls-8"
                              d="M159.46,360.89c-1.62-.07-1.15,4.04-1.85,11.09-.76,7.63-4.05,13.64-5.19,19.76-1.3,7-1.01,10.22,1.56,14.85,2.57,4.62,12.11,9.98,17.13,4.39,4.09-4.57,4.47-10.12,4.39-17.27-.08-7.39-.2-12.59.34-18.13.52-5.29,2.64-10.19,1.26-10.95-.14.77-1.47,6.14-2.38,6.06-.06-.69-.02-1.32.06-2.01.07-.6.04-1.26-.38-1.77-.42-.51-1.97-1.15-2.62-1.34-1.58-.47-4.4-1.06-6.02-1.38-.8-.16-1.61-.29-2.42-.38-.66-.07-1.43-.11-2.06.02-.39.08-.75.29-.9.62-.12.24-.11.53-.12.8-.02.49-.11.98-.26,1.44-.07.2-.24.44-.47.36-.19-.06-.25-.29-.25-.46.03-.86.11-5.25.16-5.7Z"/>
                        <path class="cls-1"
                              d="M152.87,389.76c-.2,1.01-1.42,7.69.57,9.16,2.15,1.58,3.57-3.62,3.57-3.62,0,0,5.22-.83,12.62,3.04-.43,1.06.59,4.83,2.68,4.3,2.08-.52,3.19-8.22,3.2-8.32.05,6.85-.42,12.22-4.4,16.65-5.02,5.6-14.56.24-17.13-4.39-2.57-4.62-2.86-7.85-1.56-14.85.13-.7.28-1.35.45-1.98Z"/>
                        <path class="cls-1"
                              d="M157.57,395.82c-.13,2.57-2.89,1.37-2.87-2.27s1.8-12.52,2.46-18.48c.39-8.58.68-14.25,2.3-14.18,0,.09-.01.17-.02.26,0,0-.12,4.89-.14,5.44-.24,5.24-.22,15.42-.9,20.16-.68,4.74-.69,6.5-.82,9.07Z"/>
                        <path class="cls-1"
                              d="M168.75,398.17c.63-2.46,1.14-4.12,1.89-8.84.74-4.69,3.39-14.09,4.7-19.14.43-.83,1.76-5.55,1.76-5.55,1.12.32.04,4.82-.46,6.92-.51,2.11-1.13,4.36-1.76,7.39-1.63,5.96-1.71,14.88-2.76,18.31-1.05,3.43-4,3.38-3.37.92Z"/>
                        <g>
                            <path class="cls-4"
                                  d="M169.77,398.57c-.07-.02-.15-.04-.22-.08-.06-.04-5.82-3.46-12.42-2.64-.32.04-.65-.17-.72-.47-.07-.3.13-.58.45-.62,7.06-.88,13.03,2.68,13.28,2.83.29.17.39.52.22.77-.12.19-.37.27-.6.22Z"/>
                            <path class="cls-4"
                                  d="M171.34,393.15c-.07-.01-.13-.04-.2-.07-.06-.04-6.56-3.63-13.9-2.95-.32.02-.64-.19-.7-.49-.06-.3.15-.57.48-.6,7.77-.71,14.41,2.97,14.69,3.12.29.17.41.51.25.76-.12.2-.37.29-.61.24Z"/>
                            <path class="cls-4"
                                  d="M157.83,384.86c-.23-.05-.43-.21-.49-.43-.09-.3.09-.59.4-.65,7.34-1.38,14.38,2.82,14.68,3,.29.17.39.52.22.77-.16.25-.54.3-.82.14-.07-.04-6.9-4.11-13.74-2.82-.09.02-.17.01-.26,0Z"/>
                            <path class="cls-4"
                                  d="M158.44,379.91c-.22-.05-.42-.2-.49-.42-.1-.3.07-.59.39-.66,8.08-1.66,14.7,2.8,14.97,2.99s.35.54.17.77c-.18.24-.56.28-.83.09-.06-.04-6.43-4.32-13.95-2.77-.09.02-.18.02-.26,0Z"/>
                            <path class="cls-4"
                                  d="M159.16,374.35c-.22-.05-.41-.2-.49-.41-.1-.3.06-.59.38-.66,7.58-1.67,14.77,2.95,15.07,3.15.28.18.37.53.19.77-.17.24-.54.29-.83.1-.07-.05-7.02-4.51-14.06-2.96-.09.02-.18.02-.27,0Z"/>
                        </g>
                    </g>
                    <g>
                        <path class="cls-1"
                              d="M164.79,186.55c-1.91,20.75-2.86,28.62-3.27,57.67-.15,10.29-.91,17.26-.87,27.55.01,2.92-.83,11.62-1.16,17.77-.25,4.61-1.74,17.82-1.56,27.04.11,6.01,0,10.12-.12,15.36-.05,2.26-1.12,4.39-1.29,6.64-.09,1.21-.02,2.46.32,3.63.35,1.18,1.31,1.96,1.69,3.03.56,1.56.1,3.91.12,5.59,0,0,13.49,5.79,21.81,2.67.37-1.5.45-3.97,1.27-5.21.58-.89,1.98-1.41,2.7-2.29.77-.93,1.33-2.03,1.61-3.2.39-1.64.25-3.35.38-5.03.29-3.96,2.03-7.65,3.24-11.43,3.26-10.2,2.5-20.98,4.46-31.4,2.64-14.07,5.8-22.96,7.26-32.98,1.46-10.02,5.99,19.84,5.99,19.85.26,1.7-.13,3.74-.18,5.45-.09,3.55.05,7.04-.35,10.55-.89,7.79-.57,15.72.98,23.41.81,4.04,1.51,6.83,1.35,10.96-.09,2.42-.48,4.57.49,6.8.69,1.6,1.67,1.99,2.53,3.47.35.61.44,5.47.82,5.7,0,0,13.89,7.09,22.51-.31.1-1.42-.07-4.22.49-5.48,1.48-1.63,2.35-2.92,2.49-5.36.13-2.29-.58-3.94-.63-6.23-.05-2.81.38-5.6.64-8.4.37-3.99.84-5.72,1.36-10.78.24-2.31.59-5.06.82-10.93.23-5.74.77-13.1.86-18.85.35-22.64-.42-65.55-.78-95.25h-75.98Z"/>
                        <path class="cls-4"
                              d="M180.23,196.28c.14,23.64-11.42,30.48-17.11,30.48,0,0,14.73-5.63,17.11-30.48Z"/>
                        <path class="cls-4"
                              d="M206.86,221.47l-6.09,44.63c.2-1.38.4-2.75.6-4.16,1.46-10.02,5.99,19.85,5.99,19.85l-1.32-19.53c-.36-6.11-.04-12.23.97-18.27l3.68-19.18c9.52-2.71,13.34-10.69,13.34-10.69-5.15,5.19-17.17,7.35-17.17,7.35Z"/>
                    </g>
                    <path class="cls-4"
                          d="M158.43,351.63c3.78,2.99,14.73,5.48,22.19,2.64l1.45-6.51c-5.63,2-17.27.86-23.57-3.06l-.07,6.93Z"/>
                    <path class="cls-4"
                          d="M213.01,348.89c2.55,2.62,15.65,4.21,22.54-.02l.46-6.52c-5.23,3.05-18.64,3.13-23.82.08l.83,6.46Z"/>
                    <g>
                        <path class="cls-4"
                              d="M161.38,249.57s-1.35,28.72-1.26,30.84c.1,2.12,17.11,6.63,17.49,5.28.65-2.25.43-7.25,1.55-31.37-12.77-1.59-17.79-4.75-17.79-4.75Z"/>
                        <path d="M176.85,262.63c-.46-.16-.97-.1-1.45-.11-.57-.01-1.13-.03-1.69-.07-1.19-.09-2.38-.27-3.55-.53-1.32-.29-2.63-.69-3.9-1.18-1.04-.4-2.02-.94-3.05-1.33-.1-.04-.11.16-.05.2.98.73,2.15,1.22,3.27,1.67,1.05.42,2.13.77,3.22,1.04,1.17.29,2.35.49,3.54.62.6.06,1.19.1,1.79.12.57.02,1.37.14,1.88-.15.08-.05.08-.24-.01-.27Z"/>
                        <path d="M170.11,258.62c-.15-.3-.27-.48-.6-.52-.27-.03-.55.04-.77.21-.21.16-.35.4-.38.66-.05.46.18.88.56,1.09.33.19.79.21,1.1-.03.21-.16.26-.41.26-.67,0-.26-.06-.52-.18-.75ZM169.83,259.51c-.17.24-.54.29-.77.15-.4-.23-.32-1.01.16-1.07.15-.02.31.02.43.11.2.16.35.56.18.8Z"/>
                    </g>
                </g>
                <g id="Top">
                    <g id="Arm">
                        <g>
                            <path class="cls-9"
                                  d="M324.09,96.66c-1.06-.23-2.25.58-3.46,1.77.51-.94.81-1.74.69-2.19-.37-1.36-1.44-1.82-3.71.21-2.27,2.03-7.83,7.43-13.09,9.06-.95.29-2.77,1.12-3.74.73h0c-1.35-.54-.21-2.47.26-3.3.45-.79.85-1.6,1.19-2.44.38-.94.7-1.92.7-2.93s-.38-2.06-1.17-2.69c-.43-.34-1.01-.53-1.36-.04-1.42,1.96-2.9,3.86-4.32,5.82-1.35,1.85-2.84,3.71-3.85,5.78-1.16,2.37-2.58,5.2-4.28,7.3-1.28,1.63-4.3,4.43-8.51,8.12-5.2,4.55-16.44,13.49-16.44,13.49,0,0-3.7-3.7-13.05-14.1-12.13-13.48-17.29-19.37-28.17-18.62-4.53,10.64,4.05,29.37,4.05,29.37,0,0,14.86,15.04,30.7,28.42,5.19,4.39,11.6,4.26,18.9-3.37,10.99-11.49,15.82-20.99,22.81-29.84,1.16-1.48,3.56-3.45,8.14-4.88,1.79-.56,3.76-1.33,4.92-1.75,1.41-.52,3.82-1.84,5.08-2.65,2.67-1.71,2.76-1.5,6.1-5.67.41-.51,2.02-2.77,1.71-3.35-.27-.49-.77-.63-1.31-.5-.77.18-1.25.76-2.64,1.62,1.36-1.41,3.27-3.49,3.94-5.84.1-.35.16-.89.05-1.24-.1-.33-.54-1.22-1.12-1.27,0,0,.58-1.12,1.09-2.09.42-.78,1.24-2.65-.1-2.94Z"/>
                            <path class="cls-7"
                                  d="M262.98,135.36c-3.84,3.37-6.89,8.78-6.55,12.12-1.68-5.08,1-11.38,4.48-14.05l2.07,1.93Z"/>
                            <g>
                                <path class="cls-7"
                                      d="M295.17,118.91c-.04-.29-.06-.58-.03-.87.05-.55.23-1.12.45-1.63.44-1.02,1.13-1.94,1.98-2.66,1.83-1.55,4.64-2.16,6.91-1.3.06.02.18.23.05.23-2.29.07-4.56.26-6.4,1.79-1.52,1.27-2.19,3.31-2.35,5.24-.02.18-.21.17-.27.02-.14-.3-.28-.5-.33-.84Z"/>
                                <path class="cls-7"
                                      d="M308.99,107.69c2.1-1.21,4.07-2.79,5.97-4.3,1.82-1.44,3.55-3.03,5.28-4.57.02-.02.06.03.05.05-1.55,2.02-3.37,3.71-5.37,5.27-1.85,1.44-3.84,2.47-5.89,3.59-.02.01-.05-.03-.03-.04Z"/>
                                <path class="cls-7"
                                      d="M310.01,111.68c2.1-1.21,4.07-2.79,5.97-4.3.73-.58,1.44-1.18,2.15-1.79.69-.6,1.41-1.18,2.04-1.85.19-.21.39-.41.58-.62.25-.26.46-.54.75-.76.3-.22.64-.39,1-.5.03-.01.09,0,.08.03-.43.2-.8.5-1.13.84-.22.23-.42.47-.61.73-.17.23-.36.42-.54.63-.58.66-1.19,1.29-1.83,1.89-.81.76-1.65,1.47-2.52,2.15-1.85,1.44-3.84,2.48-5.89,3.59-.02.01-.05-.03-.03-.04Z"/>
                                <path class="cls-7"
                                      d="M320.23,110.03c-1.18.94-2.35,1.81-3.64,2.54-1.25.79-2.59,1.42-3.87,2.23,1.46-.38,2.84-1,4.15-1.76,1.27-.8,2.5-1.76,3.35-3.02Z"/>
                            </g>
                            <path class="cls-7"
                                  d="M287.93,113.74c1.31-1.39,2.29-2.61,3.21-4.63.34-.87.88-1.77,1.31-2.57.42-.81,1.06-1.67,1.58-2.43,1.04-1.53,2.18-3.03,3.23-4.58,1.07-1.54,2.12-3.09,3.11-4.68-1.25,1.41-2.42,2.87-3.59,4.33-1.17,1.47-2.31,2.93-3.39,4.49-.52.79-1.03,1.6-1.44,2.46-.42.87-.88,1.69-1.24,2.6s-.49,1.15-.99,2.24c-.51,1.09-1.27,1.99-1.78,2.78Z"/>
                        </g>
                        <g>
                            <path class="cls-8"
                                  d="M223.84,100.45c11.67,1.73,14.63,7.05,18.94,11.75,4.3,4.7,20.74,22.73,20.74,22.73,0,0-6.05,4.91-7.02,12.18-1.15,8.68,1.08,12.74,1.92,15.1,0,0-4.89-3.27-7.23-5.71-2.35-2.45-22.78-20.57-22.78-20.57l-4.57-35.48Z"/>
                            <path class="cls-1"
                                  d="M264.52,134.13l-.67.54s-6.58,6.24-6.48,14.69,2.39,13.13,2.39,13.13c0,0,1.17.46,1.7.58-1.08,1.19-3.58,1.21-5.77-1.32-2.2-2.53-4.13-3.79-6.42-4.87-2.28-1.08-5.08-2.78-2.88-10.97,2.2-8.19,9.22-15.1,13.32-15.68,2.05-.29,1.88,1.38,2.68,2.17.88.86,1.56.6,2.12,1.73Z"/>
                        </g>
                    </g>
                    <g id="Chest">
                        <path class="cls-10"
                              d="M199.93,205.13c-20.73,0-33.97-6.48-35.99-7.54.21-3.94.57-8.41.91-12.74.63-7.85,1.22-15.28.88-18.73-.64-6.65-2.12-13.1-3.42-18.79-.57-2.49-1.11-4.84-1.56-7.1-5.84-29.32,3.85-33.92,3.95-33.96,8.83-3.32,20.08-6.97,21.11-7.3h23.92c4.74.44,9.3,1.08,13.9,1.94,5.95,4.45,13.95,13.32,15.34,38.64.95,17.24,1.74,50.11,1.79,52.4-.52.98-5.73,9.59-27.89,12.35-4.34.54-8.7.81-12.95.81,0,0,0,0,0,0Z"/>
                        <path class="cls-6"
                              d="M209.69,99.48c4.71.44,9.21,1.07,13.74,1.91,5.86,4.41,13.68,13.21,15.05,38.2.93,16.95,1.71,49.04,1.79,52.25-.74,1.29-6.18,9.33-27.45,11.97-4.32.54-8.66.81-12.89.81-19.82,0-32.74-5.96-35.47-7.34.21-3.85.56-8.2.89-12.4.63-7.88,1.22-15.32.88-18.82-.64-6.68-2.12-13.15-3.43-18.85-.57-2.48-1.1-4.83-1.55-7.09-5.63-28.28,3.25-33.19,3.65-33.4,8.66-3.25,19.6-6.81,21-7.26h23.8M209.74,98.48h-24s-11.87,3.83-21.23,7.34c0,0-10.26,4.3-4.24,34.51,1.52,7.62,4.06,16.41,4.97,25.84.52,5.36-1.24,20.65-1.82,31.71,0,0,13.64,7.75,36.51,7.75,4.06,0,8.4-.24,13.01-.82,24.04-2.99,28.33-12.73,28.33-12.73,0,0-.81-34.55-1.8-52.54-1.35-24.57-8.96-34.13-15.64-39.09-4.27-.8-8.9-1.49-14.1-1.97h0Z"/>
                    </g>
                    <g id="Head">
                        <g>
                            <path class="cls-4"
                                  d="M186.77,91.15c-2.52-5.16-5.45-8.16-10.48-15.02-4.02-5.5-5.9-11.73-5.37-16.07.57-4.71,3.73-6.83,6.08-7.57-.14-4.57,1.46-8.44,4.27-11.36,3.34-3.45,8.35-4.8,13.15-5.21,3.36-.28,6.76.29,10.11-.1s6.89-2.09,8.02-5.27c.59,2.14.54,4.46-.14,6.57.11-.34,2.43-.37,2.77-.38.84-.02,1.74.02,2.56.19,1.51.31,2.96,1.33,3.68,2.7.81,1.53.61,3.62-.66,4.79.95,1.21,2.5,1.85,4.03,1.87,1.53.02,3.03-.53,4.32-1.37.27,1.04-.43,2.08-1.23,2.8-1.25,1.12-2.85,1.86-4.52,2.1,1.6,1.71,2.26,4.31,1.45,6.51-.81,2.2-3.15,3.79-5.48,3.54.59.07-.48,2.26-.68,2.45-.71.68-1.53,1.33-2.26,2.01-2.16,2.02-4.32,4.04-6.49,6.04-5.19,4.81-10.4,9.6-15.68,14.31-.53.47-7.52,6.34-7.46,6.43Z"/>
                            <path class="cls-9"
                                  d="M180.8,82.84c2.88.4,4.97-1.27,5.01-2.73l-.08,19.66c6.87,11.22,34.23,12.5,24.07.83l-.2-7.01s1.61-.14,4.13-.77c4.2-1.05,7.73-4.14,8.59-8.91.88-4.91.14-10.21-.52-15.09-.38-2.83-.86-5.66-1.39-8.47-.24-1.27-.49-2.54-.76-3.81-.29-1.39-.69-2.6-1.29-3.9-1.13-2.46-1.99-3.38-4.07-5.29-1.5,1.49-2.51,3.94-4.33,5.01-1.75,1.02-3.93.19-5.84-.49-2.55-.9-5.24-1.48-7.95-1.49-1.35,0-2.71.14-4.03.47-1.11.28-2.71.58-2.84,1.97-.05.51.09,1.02.21,1.53.78,3.21,1.4,6.67-.19,9.73-.25.48-.55.95-.73,1.46-.28.79-.28,1.64-.4,2.47-.12.83-.4,1.69-1.06,2.2-.57.43-1.39.51-2.04.2-.77-.37-1.21-1.18-1.7-1.87-.96-1.35-2.45-2.3-4.15-2.29-2.44.02-3.99.97-5.09,2.72s-1.27,3.97-.9,6.01c.49,2.7,2.74,7.2,7.56,7.87Z"/>
                            <path class="cls-7"
                                  d="M209.6,93.59c-5.59.45-10.6.19-14.02-.93s-6.73-5.37-8.08-9.76c.31,3.6,2.43,9.84,7.66,12.06,5.23,2.21,10.78,1.99,14.44,1.75v-3.12Z"/>
                        </g>
                        <path class="cls-3"
                              d="M202.69,78.28l7.1,2.42c-.63,2.03-2.74,3.14-4.7,2.47-1.96-.67-3.04-2.86-2.4-4.89Z"/>
                        <path class="cls-5"
                              d="M203.43,79.57c-.3-.07-.61-.09-.9-.09,0,1.63.99,3.16,2.57,3.69.4.14.79.18,1.19.18.31-1.66-.94-3.34-2.85-3.78Z"/>
                        <path class="cls-4"
                              d="M218.17,61.41l-4.34-.89c.2-1.22,1.34-2.01,2.54-1.76,1.2.24,2.01,1.43,1.81,2.65Z"/>
                        <path class="cls-4"
                              d="M200.72,62.06l-3.96,1.99c-.6-1.08-.19-2.4.9-2.96,1.09-.55,2.46-.12,3.06.96Z"/>
                        <path class="cls-4"
                              d="M198.79,67.09c.08,1.14,1.07,1.99,2.21,1.91,1.14-.08,1.99-1.07,1.91-2.21-.08-1.14-1.07-1.99-2.21-1.91-1.14.08-1.99,1.07-1.91,2.21Z"/>
                        <path class="cls-4"
                              d="M213.13,65.47c.08,1.14,1.07,1.99,2.21,1.91,1.14-.08,1.99-1.07,1.91-2.21-.08-1.14-1.07-1.99-2.21-1.91-1.14.08-1.99,1.07-1.91,2.21Z"/>
                        <path class="cls-7" d="M205.58,63.03c5.1-.27,10.23,10.6,10.23,10.6l-7.61,2.89-2.62-13.48Z"/>
                    </g>
                    <g id="Arm-2" data-name="Arm">
                        <path id="Thumb" class="cls-7"
                              d="M195.81,163.07c2.1-.57,8.39-8.21,9.31-10.15.92-1.94,2.41-4.18,3.86-5.93,1.44-1.75,2.04-3.88,1.41-4.76s-1.37-1.3-2.51-.25-2.32,2.28-5.41,3.73c-3.09,1.45-5.24,2.2-7.62,6.9-1.9,3.75.96,10.46.96,10.46Z"/>
                        <path class="cls-2"
                              d="M346.46,62.01l-25.44-16.48c-1.77-1.06-4.24-.6-5.5,1.04l-70.47,91.26-28.33-21.6c-1.64-1.26-4.05-.99-5.38.6l-18.75,21.72c-1.32,1.59-1.07,3.9.58,5.15l56.7,43.33c1.64,1.26,4,.95,5.27-.69,15.49-20.06,76.75-99.38,92.24-119.44,1.27-1.64.85-3.83-.92-4.9Z"/>
                        <g>
                            <path class="cls-9"
                                  d="M214.01,153.8c1.65-.26,2.47-1.51,1.61-2.56-.86-1.05-5.21-2.63-6.68-2.89-1.46-.26-3.24-.39-5.83.03s-5.58.72-6.42,1.39c-1.04.83-1.52,2.31-2.7,4.52-1.19,2.23-2.09,4.31-3.51,6.62-1.29,2.09-2.63,2.82-6.99,2.62-2.68-.12-8.24-.66-16.04-1.72,1.17-4.93,5.35-22.74,5.91-29.07.65-7.38-1.38-24.54-10.23-25.67-8.6,4.78-10.7,8.97-12.67,19.08-1.95,10.01-6.62,36.71-5.86,49.1,0,.01,0,.03,0,.04.11,3.06.84,7.24,13.09,7.31,12.25.07,25.1-2.07,37.63-4.12,5.72-.94,7.4-3.99,8.57-6.34,1.51-3.04,2.24-4.43,5.13-5.72,1.58-.7,2.91-1.03,4.22-1.93,1.31-.9,1.95-1.99,1.69-2.77-.26-.78-1.29-.54-1.29-.54,0,0,.16-.29.1-.93-.05-.65-.31-1.25-.31-1.25,0,0,.57-.03,1.17-.28.61-.25.84-1.5.78-2.14-.05-.65-1.73-1.64-2.63-1.83-.91-.19-3.66-.89-4.48-.94-.82-.05-6.61.34-6.61.34,0,0,4.42-.93,6.18-1.12,1.76-.18,4.72,1,6.17.77Z"/>
                            <path class="cls-7"
                                  d="M168.21,158.59c-7.54.22-11.95,2.05-14.1,4.9,3.41-1.94,8.3-2.08,13.34-1.66l.76-3.23Z"/>
                            <path class="cls-7"
                                  d="M214.6,158.73c.26-.11.45-.41.58-.76,0,0-.48.34-1.76.42-1.29.08-4.85-.43-6.95-.11-2.11.32-4.39.94-5.37.67.67.3,3.02.2,5.51-.09,2.49-.29,6.82.15,6.82.15,0,0,.57-.03,1.17-.28Z"/>
                            <path class="cls-7"
                                  d="M211.25,162.12c-.75.26-4.35.74-5.66.95s-3.49.37-3.49.37c0,0,1.69.23,2.93.08,1.24-.15,4.83-.63,6.18-1.01,1.35-.37,2.01-.87,2.44-1.33,0,0,.16-.29.1-.93-.38,1.05-1.74,1.61-2.49,1.87Z"/>
                        </g>
                        <g>
                            <path class="cls-8"
                                  d="M164.51,105.82c-6.81,3.47-12.29,6.85-14.37,17.82s-5.49,34.24-5.88,40.59.31,10.52.31,10.52c0,0,5.41-13.31,22.87-12.93l1.42.19s3.75-19.15,4.88-24.75c1.12-5.6,3.09-24.97-9.23-31.44Z"/>
                            <path class="cls-1"
                                  d="M170.5,162.23l-1.63-.21s-9.05-.75-15.3,4.06c-8.44,6.5-8.02,12.85-8.02,12.85,0,0,.73.93,1.13,1.22,0,0-2.2.38-3.05-2.07-.79-2.28-.07-5.19-.39-7.65-.25-1.95-2.32-6.15,1.34-9.68,4.27-4.11,13.04-6.64,19.3-5.95,6.26.7,7.61,2.19,6.97,3.71-.64,1.52.3,2.35-.35,3.71Z"/>
                        </g>
                    </g>
                </g>
            </g>
        </g>
    </g>
</svg>