<?xml version="1.0" encoding="UTF-8"?>
<svg id="Layer_2" data-name="Layer 2" xmlns="http://www.w3.org/2000/svg" viewBox="0 0 465.53 336.09">
    <defs>
        <style>
            .cls-1 {
            fill: #7b4b45;
            }

            .cls-2 {
            fill: #583d88;
            }

            .cls-3 {
            fill: #a26760;
            }

            .cls-4 {
            fill: #263238;
            }

            .cls-5 {
            fill: #fff;
            }

            .cls-6 {
            fill: #a285e0;
            }

            .cls-7 {
            fill: #ffbe9d;
            }

            .cls-8 {
            fill: #b2b2b2;
            }

            .cls-9 {
            fill: #e0e0e0;
            }

            .cls-10 {
            fill: #f2f2f2;
            }

            .cls-11 {
            fill: #2d3f44;
            }

            .cls-12 {
            fill: #455a64;
            }

            .cls-13 {
            fill: #4b357c;
            }

            .cls-14 {
            fill: #7e57c2;
            }

            .cls-15 {
            fill: #ea9773;
            }
        </style>
    </defs>
    <g id="Layer_1-2" data-name="Layer 1">
        <g id="OBJECTS">
            <path class="cls-10"
                  d="M220.84,296.43c-52.87,0-114.41-15.61-156.74-47.3-22.88-17.12-43.67-40.17-54.57-70.81C-23.17,86.43,31.21,4.48,127.81.13c96.6-4.36,154.18,106.3,258.33,110.69,104.15,4.38,88.82,113.69,49.84,144.24-28.9,22.65-119.67,41.38-215.13,41.38Z"/>
            <g>
                <polygon class="cls-9" points="435.46 307.2 42.41 307.2 42.41 285.67 435.98 285.67 435.46 307.2"/>
                <polygon class="cls-9"
                         points="10.74 276.06 78.26 186.4 403.56 186.4 462.87 276.06 22.2 289.05 10.74 276.06"/>
                <rect class="cls-8" x="9.53" y="276.06" width="452.13" height="12.99"/>
            </g>
            <g>
                <path class="cls-12"
                      d="M285.94,241.29c-3.14-4.18-8.06-6.64-13.29-6.64H108.95c-5.23,0-10.15,2.46-13.29,6.64l-15.8,21.03h221.87l-15.8-21.03Z"/>
                <path class="cls-4"
                      d="M297.19,268.93H84.41c-2.51,0-4.55-2.04-4.55-4.55v-2.06h221.87v2.06c0,2.51-2.04,4.55-4.55,4.55Z"/>
                <path class="cls-4"
                      d="M278.65,256.06l-3.01-4.28h9.4v-1.14h-10.2l-3.01-4.28h8.69v-1.14h-9.49l-3.01-4.28h10.33v-1.14H104.31v1.14h10.33l-3.01,4.28h-10.9v1.14h10.1l-3.01,4.28h-11.59v1.14h10.79l-3.01,4.28h-12.66v1.14h197.92v-1.14h-10.62ZM277.26,256.06h-13.32l-2.27-4.28h12.58l3.01,4.28ZM149.3,246.36h10.9l-1.55,4.28h-11.15l1.8-4.28ZM146.26,250.64h-11.62l2.27-4.28h11.15l-1.8,4.28ZM161.41,246.36h10.55l-1.55,4.28h-10.55l1.55-4.28ZM173.17,246.36h10.66l-.56,4.28h-11.65l1.55-4.28ZM184.98,246.36h10.85l.56,4.28h-11.97l.56-4.28ZM196.97,246.36h12.52l1.55,4.28h-13.51l-.56-4.28ZM210.7,246.36h10.55l1.55,4.28h-10.55l-1.55-4.28ZM222.46,246.36h10.9l1.8,4.28h-11.15l-1.55-4.28ZM234.6,246.36h11.15l2.27,4.28h-11.62l-1.8-4.28ZM247.04,246.36h10.48l2.27,4.28h-10.48l-2.27-4.28ZM246.43,245.23l-2.27-4.28h10.48l2.27,4.28h-10.48ZM245.15,245.23h-11.03l-1.8-4.28h10.57l2.27,4.28ZM232.88,245.23h-10.83l-1.55-4.28h10.58l1.8,4.28ZM220.84,245.23h-10.55l-1.55-4.28h10.55l1.55,4.28ZM209.08,245.23h-12.26l-.56-4.28h11.27l1.55,4.28ZM195.68,245.23h-10.55l.56-4.28h9.44l.56,4.28ZM183.98,245.23h-10.4l1.55-4.28h9.41l-.56,4.28ZM172.37,245.23h-10.55l1.55-4.28h10.55l-1.55,4.28ZM160.61,245.23h-10.83l1.8-4.28h10.58l-1.55,4.28ZM148.55,245.23h-11.03l2.27-4.28h10.57l-1.8,4.28ZM136.23,245.23h-10.48l2.27-4.28h10.48l-2.27,4.28ZM135.63,246.36l-2.27,4.28h-10.48l2.27-4.28h10.48ZM132.76,251.78l-2.27,4.28h-10.48l2.27-4.28h10.48ZM134.04,251.78h11.74l-1.8,4.28h-12.21l2.27-4.28ZM147.02,251.78h11.22l-1.55,4.28h-11.47l1.8-4.28ZM159.45,251.78h10.55l-1.55,4.28h-10.55l1.55-4.28ZM171.21,251.78h11.91l-.56,4.28h-12.9l1.55-4.28ZM184.27,251.78h12.26l.56,4.28h-13.38l.56-4.28ZM197.68,251.78h13.77l1.55,4.28h-14.76l-.56-4.28ZM212.66,251.78h10.55l1.55,4.28h-10.55l-1.55-4.28ZM224.43,251.78h11.22l1.8,4.28h-11.47l-1.55-4.28ZM236.88,251.78h11.74l2.27,4.28h-12.21l-1.8-4.28ZM249.91,251.78h10.48l2.27,4.28h-10.48l-2.27-4.28ZM273.45,250.64h-12.39l-2.27-4.28h11.65l3.01,4.28ZM269.65,245.23h-11.45l-2.27-4.28h10.71l3.01,4.28ZM116.03,240.95h10.71l-2.27,4.28h-11.45l3.01-4.28ZM112.22,246.36h11.65l-2.27,4.28h-12.39l3.01-4.28ZM108.41,251.78h12.58l-2.27,4.28h-13.32l3.01-4.28Z"/>
            </g>
            <g>
                <path class="cls-4"
                      d="M319.67,240.16c-5.24-5.03-4-13.55,2.37-17.04,3.71-2.03,9.14-3.41,16.6-1.64,16.49,3.9,15.93,19.13,10.36,23.44-6.39,4.95-21.81,2.46-29.33-4.76Z"/>
                <path class="cls-12"
                      d="M349,244.92c2.01-1.56,3.36-4.54,3.5-7.9-3.12,2.56-9.67,7.18-22.31,3.66-7.98-2.22-11.76-6.54-13.57-10.24-.68,3.37.26,7.04,3.05,9.71,7.52,7.22,22.94,9.7,29.33,4.76Z"/>
                <path class="cls-12"
                      d="M325.33,225.05c-.85-.26-.97-1.41-.19-1.83,1.29-.71,3.29-1.32,5.88-.64,2.44.64,3.47,2.04,3.89,3.26.34.98-.64,1.93-1.63,1.62l-7.95-2.42Z"/>
            </g>
            <g>
                <polygon class="cls-11"
                         points="238.88 200.02 192.13 200.02 145.37 200.02 133.51 220.52 142.08 226.19 192.13 226.19 242.17 226.19 250.74 220.52 238.88 200.02"/>
                <rect class="cls-12" x="133.51" y="220.52" width="117.22" height="11.34"/>
                <rect class="cls-4" x="152.52" y="197.75" width="79.21" height="15.7"/>
                <path class="cls-12"
                      d="M310.67,204.39H73.59c-3.12,0-5.65-2.53-5.65-5.64V55.75c0-3.12,2.53-5.65,5.65-5.65h237.08c3.12,0,5.64,2.53,5.64,5.65v143c0,3.12-2.53,5.64-5.64,5.64Z"/>
                <path class="cls-4"
                      d="M194.82,54.73c0,1.49-1.2,2.69-2.69,2.69s-2.69-1.21-2.69-2.69,1.2-2.69,2.69-2.69,2.69,1.21,2.69,2.69Z"/>
                <path class="cls-6"
                      d="M299.88,189.56H84.37c-3.12,0-5.65-2.53-5.65-5.64v-118.13c0-3.12,2.53-5.65,5.65-5.65h215.5c3.12,0,5.64,2.53,5.64,5.65v118.13c0,3.12-2.53,5.64-5.64,5.64Z"/>
                <path class="cls-5"
                      d="M299.88,60.14h-107.75v129.42h107.75c3.12,0,5.64-2.53,5.64-5.64v-118.13c0-3.12-2.53-5.65-5.65-5.65Z"/>
                <g>
                    <path class="cls-6"
                          d="M289.78,68.6h-86.42c-1,0-1.81.81-1.81,1.81v14.33h0c0,3.25,3.93,4.88,6.23,2.58l2.05-2.05c.34-.34.8-.53,1.28-.53h78.67c1,0,1.81-.81,1.81-1.81v-12.52c0-1-.81-1.81-1.81-1.81Z"/>
                    <path class="cls-6"
                          d="M289.78,91.6h-86.42c-1,0-1.81.81-1.81,1.81v14.33h0c0,3.25,3.93,4.88,6.23,2.58l2.05-2.05c.34-.34.8-.53,1.28-.53h78.67c1,0,1.81-.81,1.81-1.81v-12.52c0-1-.81-1.81-1.81-1.81Z"/>
                    <path class="cls-6"
                          d="M289.78,139h-86.42c-1,0-1.81.81-1.81,1.81v14.33h0c0,3.25,3.93,4.88,6.23,2.58l2.05-2.05c.34-.34.8-.53,1.28-.53h78.67c1,0,1.81-.81,1.81-1.81v-12.52c0-1-.81-1.81-1.81-1.81Z"/>
                    <path class="cls-8"
                          d="M203.36,114.95h86.42c1,0,1.81.81,1.81,1.81v14.33h0c0,3.25-3.93,4.88-6.23,2.58l-2.05-2.05c-.34-.34-.8-.53-1.28-.53h-78.67c-1,0-1.81-.81-1.81-1.81v-12.52c0-1,.81-1.81,1.81-1.81Z"/>
                    <path class="cls-9" d="M299.88,189.56c3.12,0,5.64-2.53,5.64-5.64v-18.89h-113.39v24.53h107.75Z"/>
                </g>
            </g>
            <g>
                <path class="cls-7"
                      d="M278.36,242.78s-6.99-9.64-10.6-30.6.48-20.48-4.1-33.01c-4.58-12.53-15.18-20-13.25-24.58s10.36-5.06,21.33,18.07c0,0,2.05-2.23-2.29-15.33-4.34-13.1-12.58-16.52-8.45-20.93,3.37-3.6,9.78,3.93,9.78,3.93,0,0-1.84-5.99,3.04-6,6.18-.02,15.39,21.46,16.36,38.09,0,0,1.45-12.53,0-20.24s-2.54-10.44.64-12.29c3.68-2.14,9.32,9.34,8.97,32.26,0,0,5.57,1.74,7.02,14.26,1.45,12.52-5.78,25.78-5.78,25.78l1.25,25.79s-15.95,11.33-23.9,4.82Z"/>
                <path class="cls-12"
                      d="M422.25,307.2h43.2l-4.22-78.91c-.59-11.03-9.7-19.67-20.74-19.67h0c-12.1,0-21.64,10.31-20.71,22.37l2.47,76.2Z"/>
                <path class="cls-4" d="M447.54,209.87l4.3,97.32h13.61l-4.22-78.91c-.46-8.56-6.05-15.65-13.69-18.41Z"/>
                <path class="cls-7"
                      d="M323.33,72.12s-4.33,18.41-7.02,43.07c0,0-14.05,27.56-14.05,31.6s13.45,6.72,13.45,6.72c0,0-2.72,31.31,8.04,41.18,10.76,9.87,34.56,6.58,34.56,6.58v43.05s25.11-8.52,49.33-39.01l1.84-18.91,6.68-21.45s21.97-38.12,21.97-39.46-51.12-60.99-51.12-60.99l-24.22-6.28-13.01-2.24-26.46,16.14Z"/>
                <path class="cls-15"
                      d="M358.31,201.27v18.73c32.85-11.38,32.85-42.81,32.85-42.81-18.83,19.42-32.85,24.08-32.85,24.08Z"/>
                <path class="cls-4"
                      d="M351.52,65.48s-40.45,20.43-53.37,10.42,21.65-19.95,21.65-19.95c0,0-23.32-.48-18.74-10.49,4.59-10.01,39.61-9.59,39.61-9.59,0,0,2.08-19.18,32.52-18.35,30.44.83,40.86,21.68,40.86,21.68,0,0,11.26-12.51,29.6,5,18.35,17.51,27.52,53.37,17.93,77.14s-42.53,39.61-52.12,65.05l-3.75-26.27s14.59-4.59,14.59-26.69-22.1-25.85-31.27-17.1c-5.42,5.17-6.62,11.94-6.69,16.62-.04,2.37-3.01,3.48-4.54,1.66-2.68-3.16-5.64-8.8-6.7-18.7-2.08-19.6,1.67-32.11,1.67-32.11,0,0-15.01-4.17-21.27-18.35Z"/>
                <path class="cls-14"
                      d="M424.46,242.18c-2-11.42-7.02-22.1-14.61-30.86l3.02-13.1c.62-2.69-.6-5.47-3-6.83l-.83-.47-.39,3.97-39.87,9.12c-2.21.52-3.09,3.18-1.64,4.91l6.39,7.63c-8.04,4.4-15.22,7.9-15.22,7.9l-9.96,46.14-29.96,17.36s-1.5-8.12-1.5-14.74.6-24.07-9.93-27.07l-2.28-10.28c-.42-1.87-2.21-3.09-4.1-2.76-4.34.74-12.64,2.48-23.66,6.25-1.73.59-2.75,2.4-2.35,4.19l2.01,8.91s-3.91,1.8-4.81,10.23c-.9,8.42,14.44,39.71,16.55,52.64,2.11,12.93,11.13,23.46,24.07,20.15,12.93-3.31,62.87-28.28,62.87-28.28h55.35s-.59-33.22-6.14-65.02Z"/>
                <polygon class="cls-2" points="395.26 216.39 409.85 211.32 411.57 203.88 395.26 216.39"/>
                <polygon class="cls-2" points="375.25 307.2 409.55 289.05 403.41 307.2 375.25 307.2"/>
                <polygon class="cls-4"
                         points="373.41 216.39 358.31 224.45 348.35 270.58 363.23 262.1 375.34 218.7 373.41 216.39"/>
                <path class="cls-9"
                      d="M374.87,220.36l-1.66.28c-1.84.34-3.33,1.71-3.82,3.52l-11.08,40.75,4.92-2.8,11.65-41.74Z"/>
                <g>
                    <path class="cls-4"
                          d="M405.27,142.53l-30.96,19.42c-1.8,1.13-4.17.59-5.3-1.21l-3.42-5.46c-1.13-1.8-.58-4.17,1.21-5.3l30.96-19.42c1.8-1.13,4.17-.59,5.3,1.21l3.42,5.46c1.13,1.8.58,4.17-1.21,5.3Z"/>
                    <path class="cls-12"
                          d="M406.49,137.24l-3.42-5.46c-.04-.07-.1-.12-.15-.19l-37.71,22.86c.1.29.21.57.38.84l3.42,5.46c1.13,1.8,3.5,2.34,5.3,1.21l30.96-19.42c1.8-1.13,2.34-3.5,1.21-5.3Z"/>
                </g>
                <path class="cls-4"
                      d="M319.8,163.18c1.55.96,3.12,1.77,4.67,2.1,1.56.32,2.95.04,4.14-.85,1.2-.88,2.23-2.2,3.13-3.65.92-1.45,1.74-3.01,2.7-4.59-.05,1.84-.42,3.65-1.11,5.4-.68,1.73-1.7,3.46-3.39,4.71-.84.61-1.88,1.06-2.96,1.16-1.08.1-2.15-.07-3.07-.48-1.85-.79-3.25-2.17-4.13-3.79Z"/>
                <path class="cls-4"
                      d="M316.31,115.19c-1.56,3.92-3.26,7.74-4.99,11.56-1.71,3.82-3.51,7.59-5.17,11.4-.85,1.89-1.68,3.8-2.35,5.71-.18.47-.33.95-.45,1.4-.07.23-.12.46-.14.65-.02.1-.04.22-.03.27v.1s-.01.05-.01.05c0,0,0-.02,0-.04,0-.03-.02-.05-.05-.06-.03-.01.05.09.07.13l.2.32c.14.2.28.41.42.59.28.4.59.74.92,1.09,1.35,1.33,3.2,2.27,5.09,3.06,1.9.8,3.9,1.43,5.9,2.09-2.1-.17-4.19-.5-6.26-1.03-2.05-.57-4.15-1.31-5.93-2.8-.43-.38-.86-.78-1.22-1.21-.19-.21-.35-.44-.53-.66l-.24-.33c-.05-.07-.07-.07-.14-.21-.07-.14-.13-.29-.18-.44-.02-.07-.05-.15-.06-.22v-.15s-.02-.29-.02-.29c-.01-.21,0-.36.03-.51.03-.32.08-.61.14-.89.12-.56.26-1.09.43-1.61.66-2.07,1.49-4.01,2.32-5.95,1.74-3.85,3.63-7.6,5.67-11.27,2.04-3.68,4.19-7.29,6.58-10.76Z"/>
                <path class="cls-12"
                      d="M401.87,48.33c-7.13-3.05-14.47-5.63-21.97-7.31-3.75-.78-7.56-1.4-11.32-1.27-1.87.07-3.73.3-5.45.86-1.71.54-3.31,1.47-4.4,2.74l-.39.46-.26.51c-.23.32-.21.7-.34,1.05,0,.73.04,1.49.44,2.25.68,1.53,1.94,2.93,3.3,4.18,2.75,2.52,6,4.59,9.29,6.55,3.3,1.95,6.73,3.71,10.21,5.37,3.46,1.68,7,3.27,10.55,4.71l2.2.9-2.18.91c-2.86,1.19-5.77,2.61-8.18,4.5-1.16.94-2.31,2.09-2.54,3.3-.11.58.05,1.22.45,1.68.4.48,1.04.86,1.72,1.15,2.84,1.08,6.12,1.28,9.29,1.36,3.2.05,6.41-.1,9.61-.35-3.17.55-6.37.9-9.6,1.04-1.61.07-3.23.08-4.86-.01-1.63-.11-3.27-.3-4.89-.88-.8-.3-1.62-.7-2.29-1.42-.69-.73-1.01-1.78-.88-2.78.12-1.01.62-1.82,1.15-2.52.54-.7,1.16-1.29,1.8-1.84,2.6-2.15,5.48-3.68,8.5-5.02l.02,1.8c-7.29-2.82-14.39-6.04-21.19-9.96-3.39-1.97-6.7-4.13-9.67-6.87-1.46-1.38-2.88-2.91-3.79-4.94-.5-.98-.67-2.21-.57-3.4.16-.57.23-1.21.56-1.7l.43-.77.55-.64c1.49-1.65,3.41-2.65,5.39-3.26,1.98-.6,4.02-.8,6.02-.8,4,0,7.9.73,11.69,1.72,3.79.99,7.48,2.28,11.08,3.76,3.6,1.47,7.14,3.08,10.56,4.93Z"/>
                <path class="cls-13"
                      d="M318.4,287.94c7.25-4.68,14.58-9.23,21.97-13.66,7.38-4.45,14.83-8.79,22.29-13.11l11.24-6.39c1.9-1.04,3.72-2.14,5.73-3.12,1.99-.97,4.07-1.76,6.2-2.33,4.26-1.17,8.74-1.55,13.11-.86,2.17.39,4.31,1.1,6.18,2.28,1.89,1.14,3.4,2.83,4.44,4.72-1.25-1.76-2.86-3.23-4.74-4.2-1.87-.99-3.95-1.49-6.03-1.7-4.19-.4-8.46.21-12.46,1.46-2,.64-3.94,1.46-5.81,2.42-1.84.96-3.68,2.13-5.54,3.21l-11.18,6.5c-7.48,4.28-14.98,8.53-22.54,12.67-7.54,4.17-15.16,8.21-22.85,12.12Z"/>
                <path class="cls-13"
                      d="M315.79,257.91c.74,3.67,1.25,7.36,1.69,11.06.47,3.7.72,7.41,1.07,11.08.14,1.84.33,3.67.54,5.5.18,1.83.43,3.66.67,5.48.5,3.65,1.16,7.29,1.79,10.98-1.53-3.42-2.69-7-3.53-10.66-.87-3.65-1.39-7.39-1.73-11.11-.3-3.73-.46-7.45-.57-11.16-.1-3.72-.12-7.44.08-11.18Z"/>
                <path class="cls-13"
                      d="M306.97,246.13l-.09-.39c-.43.2-.87.42-1.3.61l-2.99-13.02c-.38-.17-.8-.26-1.23-.28l3.16,13.76c-.97.41-1.93.8-2.89,1.15l-3.32-14.45c-.36.07-.73.14-1.11.22l3.36,14.62c-1.13.4-2.24.76-3.34,1.08l-3.43-14.96c-.36.08-.73.17-1.11.26l3.45,15.01c-1.16.32-2.29.61-3.39.85l-3.45-15.01c-.36.1-.73.19-1.1.29l3.43,14.96c-1.19.25-2.34.45-3.44.62l-3.36-14.63c-.36.11-.73.22-1.09.33l3.32,14.47c-1.23.17-2.4.29-3.49.39l-3.17-13.82c-.36.11-.72.23-1.08.35l3.11,13.55c-1.26.08-2.39.12-3.39.13l-2.87-12.5c-.38.24-.7.55-.96.9l2.66,11.6c-.49,0-.94-.02-1.33-.04l.06.26s-.46.22-1.09.83c.73.05,1.73.09,2.99.09,5.92,0,17.23-.95,29.5-6.88-.33-.13-.67-.25-1.02-.35Z"/>
                <path class="cls-15"
                      d="M395.26,119.46c2.23-.47,4.56-.48,6.86-.15,2.29.36,4.59,1.16,6.57,2.54,1,.68,1.9,1.52,2.66,2.47.78.94,1.41,2,1.9,3.11.99,2.23,1.4,4.63,1.5,6.98,0,.59.03,1.18-.01,1.76l-.13,1.75c-.04,1.16-.25,2.33-.49,3.48l-.17.87-.27.85-.55,1.69c-.51,1.08-.94,2.2-1.68,3.16-1.31,2-3.18,3.65-5.34,4.64-2.15.97-4.52,1.39-6.78,1.07,4.54-.35,8.59-2.91,10.61-6.65.27-.46.54-.91.71-1.43.2-.5.42-.98.6-1.48l.42-1.56.21-.78.12-.81.26-1.6c.1-.53.08-1.09.13-1.63l.09-1.64c.03-.54-.01-1.08-.01-1.62-.07-4.3-1.52-8.57-4.84-11.24-3.31-2.67-7.88-3.73-12.37-3.81Z"/>
                <path class="cls-15"
                      d="M259.95,138.19c.17-.99.61-2,1.49-2.7.43-.37,1-.54,1.57-.63.57-.05,1.15,0,1.68.17.55.14,1.02.39,1.51.62.45.26.91.5,1.34.79.89.55,1.7,1.21,2.49,1.91,1.58,1.39,2.87,3.05,4.05,4.76.55.87,1.11,1.75,1.58,2.67.51.9.95,1.83,1.37,2.76,1.66,3.76,2.86,7.67,3.73,11.63.91,3.96,1.42,7.98,1.68,12.02-1.2-3.87-2.18-7.76-3.4-11.56-1.2-3.8-2.46-7.57-4.09-11.16-1.59-3.59-3.53-7.03-6.15-9.86-.66-.71-1.36-1.36-2.12-1.97-.76-.62-1.54-1.22-2.36-1.57-.82-.39-1.73-.49-2.54-.06-.8.42-1.45,1.26-1.84,2.18Z"/>
                <path class="cls-15"
                      d="M271.73,135.29c.27-.39.66-.71,1.11-.94.46-.22.98-.3,1.5-.27,1.05.06,1.98.58,2.82,1.13,1.61,1.21,2.88,2.76,3.93,4.38,2.16,3.25,3.77,6.72,5.17,10.31,1.34,3.6,2.4,7.31,3.04,11.09.67,3.77.95,7.6.85,11.41-.84-3.72-1.61-7.41-2.59-11.03-.97-3.62-2.1-7.18-3.43-10.67-.64-1.75-1.37-3.47-2.12-5.18-.76-1.71-1.56-3.39-2.43-5.01-.88-1.62-1.87-3.18-3.14-4.45-.64-.6-1.36-1.15-2.2-1.37-.82-.22-1.8-.04-2.52.59Z"/>
                <path class="cls-15"
                      d="M290.81,139.88c.39-.4,1.03-.56,1.61-.43.58.13,1.11.46,1.53.85.87.78,1.49,1.76,2.06,2.74,1.08,1.99,1.87,4.11,2.47,6.27,1.23,4.31,1.9,8.72,2.37,13.13.41,4.42.61,8.85.53,13.27-.07,4.42-.37,8.85-1.06,13.22l-.71-13.18c-.28-4.38-.57-8.74-1.02-13.09-.2-2.17-.45-4.34-.76-6.5-.26-2.17-.66-4.3-1.07-6.43-.44-2.12-.97-4.22-1.76-6.22-.39-.99-.86-1.96-1.51-2.78-.32-.42-.71-.76-1.18-.96-.46-.21-1.04-.21-1.51.1Z"/>
                <path class="cls-15"
                      d="M250.4,154.58c.2-.8.67-1.55,1.37-2.1.69-.56,1.62-.83,2.53-.86,1.83.05,3.47.83,4.9,1.74,2.85,1.87,5.16,4.32,7.21,6.95,1.99,2.67,3.65,5.58,4.93,8.63,1.26,3.05,2.23,6.23,2.59,9.5-1.27-3.02-2.67-5.92-4.19-8.74-1.55-2.79-3.22-5.51-5.14-8.02-.93-1.28-1.96-2.48-3.03-3.64-1.05-1.18-2.21-2.24-3.39-3.24-1.21-.94-2.52-1.79-3.95-2.07-.71-.11-1.44-.04-2.12.28-.67.33-1.28.87-1.7,1.58Z"/>
                <g>
                    <circle class="cls-4" cx="331" cy="121.94" r="3.52"/>
                    <path class="cls-4"
                          d="M326.9,116.81c.25-2.02,1.05-3.99,2.45-5.65.7-.83,1.61-1.52,2.65-2.04,1.07-.47,2.27-.63,3.44-.54,1.14.16,2.3.52,3.24,1.23.92.71,1.68,1.57,2.18,2.54,1.01,1.92,1.37,4.03,1.15,6.06-.71-1.89-1.54-3.66-2.64-5.09-.58-.69-1.18-1.3-1.89-1.71-.7-.43-1.48-.63-2.29-.76-.81-.07-1.61.02-2.39.26-.78.27-1.5.75-2.21,1.3-1.39,1.17-2.57,2.72-3.7,4.4Z"/>
                    <path class="cls-4"
                          d="M327.48,99.03c4.35-.24,11.63-.05,20.69,2.4,1.9.51,3.48-1.59,2.71-3.54-1.33-3.37-4.53-7.5-12.29-8.42-6.7-.79-10.76,2.39-13.05,5.38-1.31,1.71-.1,4.3,1.94,4.19Z"/>
                </g>
            </g>
            <g>
                <g>
                    <path class="cls-4"
                          d="M182.73,189.56c-2.08-9.59-8.89-33.17-26.59-39.5h-36.03c-16.26,7.6-21.45,29.6-22.99,39.5h85.6Z"/>
                    <g>
                        <path class="cls-12"
                              d="M114.27,158.62c.4,2.44.84,4.88,1.46,7.29-.15-2.48-.48-4.94-.86-7.38-.25-1.54-.52-3.07-.84-4.6-.12.1-.24.2-.35.29.16,1.47.37,2.93.59,4.4Z"/>
                        <path class="cls-12"
                              d="M167.48,157.57c-.14-.15-.29-.29-.43-.44-.2.94-.37,1.88-.54,2.82-.32,1.97-.6,3.95-.69,5.95.57-1.93.95-3.89,1.29-5.85.13-.83.26-1.66.36-2.49Z"/>
                    </g>
                    <path class="cls-12"
                          d="M114.36,189.56c.18-1.72.35-3.43.51-5.15.19-2.15.37-4.3.51-6.46l.21-3.23c.05-1.08.11-2.16.14-3.24-.17,1.07-.29,2.14-.44,3.21l-.38,3.22c-.25,2.14-.45,4.3-.65,6.44-.15,1.73-.29,3.47-.42,5.21h.51Z"/>
                    <path class="cls-12"
                          d="M166.05,177.75c.09,2.09.23,4.18.38,6.26.14,1.85.28,3.7.45,5.54h.49c-.09-1.86-.21-3.73-.34-5.59-.15-2.09-.31-4.17-.52-6.25l-.31-3.12c-.12-1.04-.23-2.08-.37-3.12,0,1.05.05,2.09.07,3.14l.14,3.13Z"/>
                </g>
                <g>
                    <path class="cls-3"
                          d="M148.49,146.94v-5.65h-20.66v5.71l-7.62,3.14c3.95,16.54,18.01,15.77,18.01,15.77,0,0,14.07.77,18.01-15.77l-7.75-3.19Z"/>
                    <path class="cls-1"
                          d="M148.49,144.82v-3.53h-20.66v5.71l-.02-1.21c1.85,1.57,5.32,4.88,10.77,4.9,4.36.02,7.67-3.52,9.9-5.86Z"/>
                </g>
                <path class="cls-3"
                      d="M157.35,111.7l.96-8.5c.02-.18.04-.35.06-.52l.02-.14h0c.05-.6.09-1.2.09-1.8,0-11.57-9.38-20.94-20.94-20.94s-20.94,9.38-20.94,20.94c0,.26.03.52.04.78h-.02s.05.52.05.52c.03.47.07.93.13,1.4l.76,8.3c-.18-.02-.36-.03-.55-.03-3.58,0-6.49,2.9-6.49,6.49s2.9,6.49,6.49,6.49c.02,0,.04,0,.06,0-.04.48-.06.97-.06,1.46,0,11.15,9.04,20.18,20.18,20.18s20.18-9.04,20.18-20.18c0-.49-.02-.98-.06-1.46.02,0,.04,0,.06,0,3.58,0,6.49-2.9,6.49-6.49,0-3.58-2.9-6.49-6.49-6.49Z"/>
                <path class="cls-1"
                      d="M116.08,113.46c-1,.41-1.88,1.06-2.48,1.88-.62.82-.87,1.84-.87,2.86-.02,1.03.24,2.04.82,2.88.59.83,1.49,1.45,2.52,1.78-1.08-.09-2.16-.6-2.9-1.48-.74-.88-1.07-2.05-1.06-3.17,0-1.12.34-2.3,1.11-3.15.74-.87,1.78-1.4,2.85-1.59Z"/>
                <path class="cls-1"
                      d="M158.47,122.85c1-.41,1.88-1.06,2.48-1.88.62-.82.87-1.84.87-2.86.02-1.03-.24-2.04-.82-2.88-.59-.83-1.49-1.45-2.52-1.78,1.08.09,2.16.6,2.89,1.48.74.88,1.07,2.05,1.06,3.17,0,1.12-.33,2.3-1.11,3.15-.74.87-1.78,1.4-2.85,1.59Z"/>
                <g>
                    <path class="cls-4"
                          d="M134.93,112.21c-.27,1.63-.56,3.25-.8,4.87-.22,1.62-.45,3.23-.49,4.84-.03,1.59.04,3.24,1.15,4.28.52.5,1.27.76,2.06.72.79,0,1.58-.23,2.35-.54-.67.49-1.46.83-2.31.98-.85.15-1.82-.06-2.55-.63-.74-.55-1.18-1.42-1.38-2.28-.22-.86-.22-1.71-.22-2.56.07-1.68.33-3.33.71-4.95.38-1.61.85-3.2,1.49-4.73Z"/>
                    <path class="cls-4"
                          d="M134.04,131.74c.86.04,1.7,0,2.52-.05.82-.07,1.62-.19,2.39-.4.78-.19,1.5-.53,2.2-.93.71-.39,1.32-.95,1.97-1.52-.36.77-.84,1.56-1.56,2.1-.68.57-1.51,1-2.37,1.23-1.73.46-3.58.32-5.15-.43Z"/>
                    <g>
                        <g>
                            <circle class="cls-4" cx="127.94" cy="116.1" r="1.78"/>
                            <path class="cls-4"
                                  d="M124.68,112.72c-.08-.75.4-1.51,1.04-1.98.66-.46,1.45-.65,2.2-.68.37-.03.79.02,1.18.11.39.12.77.29,1.09.55.63.51,1.02,1.26,1.02,2-.49-.55-1.01-.94-1.54-1.18-.55-.23-1.09-.3-1.71-.28-.63.02-1.23.09-1.79.29-.55.2-1.09.55-1.49,1.16Z"/>
                            <path class="cls-4"
                                  d="M123.24,105.67c1.35-.28,4.05-.69,7.85-.59.45.01.76-.4.52-.73-.58-.82-1.88-1.98-4.47-1.79-2.93.21-4.11,1.52-4.58,2.44-.19.37.2.77.67.68Z"/>
                        </g>
                        <g>
                            <path class="cls-4"
                                  d="M144.84,116.1c0,.98.8,1.78,1.78,1.78s1.78-.79,1.78-1.78-.8-1.78-1.78-1.78-1.78.8-1.78,1.78Z"/>
                            <path class="cls-4"
                                  d="M149.88,112.72c.08-.75-.4-1.51-1.04-1.98-.66-.46-1.45-.65-2.2-.68-.37-.03-.79.02-1.18.11-.39.12-.77.29-1.09.55-.63.51-1.03,1.26-1.02,2,.49-.55,1.01-.94,1.54-1.18.55-.23,1.09-.3,1.71-.28.63.02,1.23.09,1.79.29.55.2,1.09.55,1.49,1.16Z"/>
                            <path class="cls-4"
                                  d="M150.82,105.67c-1.35-.28-4.05-.69-7.85-.59-.45.01-.76-.4-.52-.73.58-.82,1.88-1.98,4.47-1.79,2.93.21,4.11,1.52,4.58,2.44.19.37-.2.77-.67.68Z"/>
                        </g>
                    </g>
                </g>
            </g>
        </g>
    </g>
</svg>