<?xml version="1.0" encoding="UTF-8"?>
<svg xmlns:xlink="http://www.w3.org/1999/xlink" id="Layer_2" data-name="Layer 2" xmlns="http://www.w3.org/2000/svg"
     viewBox="0 0 435.81 417.29">
    <defs>
        <style>
            .cls-1 {
            fill: url(#linear-gradient-13);
            }

            .cls-2 {
            fill: url(#linear-gradient-2);
            }

            .cls-3 {
            fill: url(#linear-gradient-10);
            }

            .cls-4 {
            fill: url(#linear-gradient-12);
            }

            .cls-5 {
            fill: #e16f5a;
            }

            .cls-6 {
            fill: #dc8987;
            }

            .cls-7 {
            fill: #fff;
            }

            .cls-8 {
            fill: #7e6cc0;
            }

            .cls-9 {
            fill: none;
            }

            .cls-10 {
            fill: url(#linear-gradient-4);
            }

            .cls-11 {
            fill: #f3cf58;
            }

            .cls-12 {
            fill: url(#linear-gradient-3);
            }

            .cls-13 {
            fill: url(#linear-gradient-5);
            }

            .cls-14 {
            fill: #e89fab;
            }

            .cls-15 {
            fill: url(#linear-gradient-8);
            }

            .cls-16 {
            fill: url(#linear-gradient-14);
            }

            .cls-17 {
            fill: url(#linear-gradient-7);
            }

            .cls-18 {
            fill: url(#linear-gradient-9);
            }

            .cls-19 {
            fill: #999;
            }

            .cls-20 {
            fill: url(#linear-gradient-11);
            }

            .cls-21 {
            fill: url(#linear-gradient-6);
            }

            .cls-22 {
            fill: #eeecfe;
            }

            .cls-23 {
            fill: #ccc;
            }

            .cls-24 {
            fill: #3e245c;
            }

            .cls-25 {
            fill: url(#linear-gradient);
            }
        </style>
        <linearGradient id="linear-gradient" x1="104.81" y1="411.48" x2="97.01" y2="442.69"
                        gradientTransform="translate(0 430.56) scale(1 -1)" gradientUnits="userSpaceOnUse">
            <stop offset="0" stop-color="#e16f5a"/>
            <stop offset="1" stop-color="#f3cf58"/>
        </linearGradient>
        <linearGradient id="linear-gradient-2" x1="337.93" y1="163.47" x2="450.86" y2="163.47"
                        xlink:href="#linear-gradient"/>
        <linearGradient id="linear-gradient-3" x1="391.08" y1="440.43" x2="163.2" y2="162.25"
                        gradientTransform="translate(0 430.56) scale(1 -1)" gradientUnits="userSpaceOnUse">
            <stop offset=".02" stop-color="#3e345c"/>
            <stop offset=".19" stop-color="#413761"/>
            <stop offset=".4" stop-color="#4b4071"/>
            <stop offset=".64" stop-color="#5c4e8a"/>
            <stop offset=".89" stop-color="#7262ae"/>
            <stop offset="1" stop-color="#7e6cc0"/>
        </linearGradient>
        <linearGradient id="linear-gradient-4" x1="348.2" y1="321.52" x2="354.7" y2="287.34"
                        gradientTransform="translate(0 430.56) scale(1 -1)" gradientUnits="userSpaceOnUse">
            <stop offset="0" stop-color="#eeecfe"/>
            <stop offset=".48" stop-color="#f3cf58"/>
        </linearGradient>
        <linearGradient id="linear-gradient-5" x1="425.41" y1="336.75" x2="426.91" y2="309.25"
                        gradientTransform="translate(0 430.56) scale(1 -1)" gradientUnits="userSpaceOnUse">
            <stop offset="0" stop-color="#f3cf58"/>
            <stop offset="1" stop-color="#e16f5a"/>
        </linearGradient>
        <linearGradient id="linear-gradient-6" x1="48.66" y1="196.91" x2="37.66" y2="119.93"
                        gradientTransform="translate(0 430.56) scale(1 -1)" gradientUnits="userSpaceOnUse">
            <stop offset="0" stop-color="#e16f5a"/>
            <stop offset=".21" stop-color="#e2735a"/>
            <stop offset=".41" stop-color="#e47f5a"/>
            <stop offset=".61" stop-color="#e89259"/>
            <stop offset=".81" stop-color="#edad59"/>
            <stop offset="1" stop-color="#f3cf58"/>
        </linearGradient>
        <linearGradient id="linear-gradient-7" x1="84.34" y1="8.89" x2="127.23" y2="28.93"
                        gradientTransform="translate(0 430.56) scale(1 -1)" gradientUnits="userSpaceOnUse">
            <stop offset="0" stop-color="#e16f5a"/>
            <stop offset=".38" stop-color="#e1715a"/>
            <stop offset=".56" stop-color="#e3795a"/>
            <stop offset=".69" stop-color="#e5855a"/>
            <stop offset=".8" stop-color="#e99859"/>
            <stop offset=".9" stop-color="#edaf59"/>
            <stop offset=".99" stop-color="#f2cc58"/>
            <stop offset="1" stop-color="#f3cf58"/>
        </linearGradient>
        <linearGradient id="linear-gradient-8" x1="19.66" y1="8.68" x2="62.56" y2="28.71"
                        xlink:href="#linear-gradient-7"/>
        <linearGradient id="linear-gradient-9" x1="52.43" y1="93.56" x2="80.6" y2="73.15"
                        gradientTransform="translate(0 430.56) scale(1 -1)" gradientUnits="userSpaceOnUse">
            <stop offset=".02" stop-color="#3e345c"/>
            <stop offset=".19" stop-color="#423762"/>
            <stop offset=".41" stop-color="#4c4172"/>
            <stop offset=".65" stop-color="#5e508e"/>
            <stop offset=".92" stop-color="#7665b4"/>
            <stop offset="1" stop-color="#7e6cc0"/>
        </linearGradient>
        <linearGradient id="linear-gradient-10" x1="88.04" y1="87.42" x2="118.62" y2="84.57"
                        xlink:href="#linear-gradient-3"/>
        <linearGradient id="linear-gradient-11" x1="65.16" y1="169.21" x2="143.21" y2="223.47"
                        xlink:href="#linear-gradient"/>
        <linearGradient id="linear-gradient-12" x1="30.61" y1="186.49" x2="108.65" y2="240.76"
                        gradientTransform="translate(56.08 456.43) rotate(-6.35) scale(1.03 -1.05) skewX(-1.48)"
                        xlink:href="#linear-gradient"/>
        <linearGradient id="linear-gradient-13" x1="74.48" y1="239.33" x2="109.98" y2="264.83"
                        gradientTransform="translate(0 430.56) scale(1 -1)" gradientUnits="userSpaceOnUse">
            <stop offset=".02" stop-color="#3e345c"/>
            <stop offset=".25" stop-color="#4e4274"/>
            <stop offset="1" stop-color="#7e6cc0"/>
        </linearGradient>
        <linearGradient id="linear-gradient-14" x1="61.59" y1="241.97" x2="80.88" y2="241.97"
                        xlink:href="#linear-gradient-5"/>
    </defs>
    <g id="Layer_1-2" data-name="Layer 1">
        <g id="BACKGROUND">
            <g>
                <path class="cls-22"
                      d="M395.89,164.86c-.42,6.4-1.48,12.76-3.14,18.97-3.04,11.46-8.1,22.39-14.86,32.14-4.1,5.94-8.84,11.44-14.14,16.35-1.7,1.58-3.46,3.07-5.27,4.49-7.35,5.75-15.55,10.2-24.2,13.6-7.39,2.9-15.11,5.04-22.92,6.59-1.1.22-2.23.41-3.37.58-9.31,1.38-19.82,1.29-29.75,2.57-8.35,1.07-16.29,3.09-22.78,7.76-.8.58-1.57,1.19-2.3,1.83-8.74,7.64-12.48,19.45-15.4,31.07-1.31,5.21-2.45,10.38-3.8,15.12-2.11,7.42-4.47,14.84-7.44,21.96-4.01,9.62-9.15,18.68-16.37,26.42-.3.32-.6.64-.91.95-6.37,6.57-13.89,11.67-22.04,15.59-8.43,4.05-17.53,6.83-26.71,8.64-1.25.25-2.51.48-3.77.69-8.95,1.51-17.47,1.31-25.8-.05-11.47-1.87-22.6-5.92-34.01-10.67-.86-.36-1.73-.72-2.59-1.09-.16-.07-.31-.13-.47-.2-13.71-5.89-27.77-12.96-40.75-21.55-17.04-11.28-32.24-25.17-42.44-42.45-10.86-18.4-13.38-39.07-7.74-57.27,3.06-9.92,8.54-19.1,16.43-26.77,3.59-3.51,7.68-6.7,12.27-9.5,3.55-2.17,7.2-4.21,10.85-6.25,7.88-4.44,15.75-8.9,22.48-14.74,1.59-1.37,3.11-2.82,4.56-4.37,5.95-6.35,10.19-13.85,13.24-21.94,4.31-11.41,6.27-24,7.32-36.22.21-2.5.4-5,.57-7.51,1.15-16.43,1.81-33.06,6.56-48.66.59-1.96,1.25-3.89,1.98-5.81,1.51-3.96,3.31-7.78,5.37-11.45,2.32-4.15,4.97-8.11,7.88-11.89,4.31-5.63,9.2-10.84,14.43-15.64,1.98-1.82,4-3.6,6.06-5.33,6.93-5.84,14.28-11.15,22.03-15.64,8.06-4.67,16.55-8.47,25.47-11.08,5.95-1.75,12.09-2.97,18.42-3.57,3.14-.3,6.28-.47,9.42-.51,11.06-.18,22.07,1.16,32.87,3.63,12.37,2.82,24.47,7.11,36.09,12.29,7.46,3.32,14.73,7.01,21.75,10.91,7.47,4.15,14.75,8.81,21.77,13.88,15.6,11.27,29.91,24.59,42.13,39.08,19.98,23.7,35.12,53.29,33.02,85.05Z"/>
                <g>
                    <path class="cls-22"
                          d="M93.85,378.17c-13.71-5.89-27.77-12.96-40.75-21.55L2.92,256.9c3.06-9.92,8.54-19.1,16.43-26.77l74.5,148.04Z"/>
                    <path class="cls-22"
                          d="M160.49,389.49c-1.25.25-2.51.48-3.77.69-8.95,1.51-17.47,1.31-25.8-.05L42.47,214.38c7.88-4.44,15.75-8.9,22.48-14.74l95.54,189.85Z"/>
                    <path class="cls-22"
                          d="M209.24,365.26c-6.37,6.57-13.89,11.67-22.04,15.59l-104.45-207.52c4.31-11.41,6.27-24,7.32-36.22.21-2.5.4-5,.57-7.51l118.6,235.66Z"/>
                    <path class="cls-22"
                          d="M237.76,300.81c-1.31,5.21-2.45,10.38-3.8,15.12-2.11,7.42-4.47,14.84-7.44,21.96L97.2,80.94c.59-1.96,1.25-3.89,1.98-5.81,1.51-3.96,3.31-7.78,5.37-11.45,2.32-4.15,4.97-8.11,7.88-11.89l125.33,249.02Z"/>
                    <path class="cls-22"
                          d="M278.24,260.15c-8.35,1.07-16.29,3.09-22.78,7.76-.8.58-1.57,1.19-2.3,1.83L132.92,30.82c6.93-5.84,14.28-11.15,22.03-15.64l123.29,244.97Z"/>
                    <path class="cls-22"
                          d="M334.28,250.41c-7.39,2.9-15.11,5.04-22.92,6.59-1.1.22-2.23.41-3.37.58L180.42,4.1c5.95-1.75,12.09-2.97,18.42-3.57,3.14-.3,6.28-.47,9.42-.51l126.02,250.39Z"/>
                    <path class="cls-22"
                          d="M377.89,215.97c-4.1,5.94-8.84,11.44-14.14,16.35-1.7,1.58-3.46,3.07-5.27,4.49L241.13,3.65c12.37,2.82,24.47,7.11,36.09,12.29l100.67,200.03Z"/>
                    <path class="cls-22"
                          d="M395.89,164.86c-.42,6.4-1.48,12.76-3.14,18.97l-72.01-143.1c15.6,11.27,29.91,24.59,42.13,39.08,19.98,23.7,35.12,53.29,33.02,85.05Z"/>
                </g>
            </g>
        </g>
        <g id="OBJECTS">
            <g>
                <g>
                    <path class="cls-8"
                          d="M146.46,96.53c-.44-1.95-1.05-3.81-1.8-5.58l5.35-4.6-13.52-15.72-5.49,4.72c-4.09-2.41-8.7-3.94-13.53-4.41l-1.61-7.12-20.23,4.56,1.61,7.12c-3.66,2.2-6.81,5.07-9.32,8.39l-6.89-2.27-6.51,19.69,6.71,2.22c-.02,2.48.24,5.01.81,7.53.39,1.75.93,3.44,1.57,5.06l-5.26,4.53,13.53,15.72,5.13-4.41c4.21,2.58,8.99,4.22,14.02,4.71l1.47,6.52,20.23-4.56-1.47-6.52c3.82-2.3,7.09-5.32,9.66-8.85l6.42,2.12,6.51-19.69-6.58-2.17c-.02-2.3-.28-4.64-.81-6.98ZM119.13,125.46c-12.13,2.74-24.18-4.88-26.92-17.01-2.74-12.13,4.88-24.18,17.01-26.92,12.13-2.74,24.18,4.88,26.92,17.01,2.74,12.13-4.88,24.18-17.01,26.92Z"/>
                    <path class="cls-8"
                          d="M363.07,221.45c.05-1.55-.06-3.07-.28-4.55l4.92-2.44-7.16-14.45-5.05,2.5c-2.62-2.6-5.8-4.64-9.35-5.94l.16-5.68-16.12-.46-.16,5.68c-3.18.96-6.11,2.5-8.64,4.53l-4.75-3.04-8.7,13.58,4.63,2.97c-.49,1.87-.79,3.82-.85,5.83-.04,1.4.04,2.77.21,4.11l-4.84,2.4,7.16,14.45,4.72-2.33c2.67,2.76,5.96,4.91,9.65,6.25l-.15,5.2,16.12.46.15-5.2c3.33-.99,6.37-2.64,8.98-4.8l4.43,2.84,8.7-13.58-4.54-2.91c.43-1.74.68-3.55.74-5.42ZM336.89,237.98c-9.67-.28-17.28-8.34-17-18.01.28-9.67,8.35-17.28,18.01-17,9.67.28,17.28,8.34,17,18.01-.28,9.67-8.34,17.28-18.01,17Z"/>
                </g>
                <g>
                    <path class="cls-11"
                          d="M338.57,303.96c.77-1.84,1.34-3.72,1.76-5.6l7.03-.66-1.95-20.65-7.21.68c-1.95-4.33-4.83-8.24-8.49-11.42l2.8-6.74-19.15-7.97-2.8,6.74c-4.26-.32-8.48.2-12.46,1.46l-4.3-5.83-16.69,12.31,4.2,5.69c-1.45,2.02-2.7,4.22-3.7,6.61-.69,1.66-1.23,3.35-1.64,5.04l-6.91.65,1.95,20.65,6.74-.64c1.94,4.54,4.9,8.64,8.72,11.95l-2.57,6.17,19.15,7.97,2.57-6.17c4.45.34,8.86-.25,12.99-1.64l4.01,5.44,16.69-12.31-4.11-5.58c1.31-1.89,2.45-3.95,3.37-6.16ZM299.54,311.77c-11.48-4.78-16.92-17.96-12.14-29.44s17.96-16.91,29.44-12.14c11.48,4.78,16.92,17.96,12.14,29.44-4.78,11.48-17.96,16.92-29.44,12.14Z"/>
                    <path class="cls-11"
                          d="M96.02,51.06c-.18-.79-.43-1.55-.73-2.28l2.18-1.88-5.52-6.41-2.24,1.93c-1.67-.98-3.55-1.61-5.52-1.8l-.65-2.9-8.25,1.86.65,2.9c-1.49.9-2.78,2.07-3.8,3.42l-2.81-.93-2.66,8.03,2.74.91c0,1.01.1,2.04.33,3.07.16.71.38,1.4.64,2.06l-2.15,1.85,5.52,6.41,2.09-1.8c1.72,1.05,3.67,1.72,5.72,1.92l.6,2.66,8.25-1.86-.6-2.66c1.56-.94,2.89-2.17,3.94-3.61l2.62.87,2.66-8.03-2.68-.89c0-.94-.11-1.89-.33-2.85ZM84.87,62.86c-4.95,1.12-9.86-1.99-10.98-6.94-1.12-4.95,1.99-9.86,6.94-10.98,4.95-1.12,9.86,1.99,10.98,6.94,1.12,4.95-1.99,9.86-6.94,10.98Z"/>
                </g>
                <g>
                    <path class="cls-25"
                          d="M119.41,38.67c-.12-.56-.3-1.08-.51-1.59l1.53-1.31-3.85-4.48-1.57,1.35c-1.17-.69-2.48-1.12-3.86-1.26l-.46-2.03-5.77,1.3.46,2.03c-1.04.63-1.94,1.44-2.66,2.39l-1.96-.65-1.86,5.61,1.91.63c0,.71.07,1.43.23,2.15.11.5.26.98.45,1.44l-1.5,1.29,3.85,4.48,1.46-1.26c1.2.74,2.56,1.2,4,1.34l.42,1.86,5.77-1.3-.42-1.86c1.09-.65,2.02-1.52,2.75-2.52l1.83.61,1.86-5.61-1.88-.62c0-.66-.08-1.32-.23-1.99ZM111.62,46.92c-3.46.78-6.89-1.39-7.67-4.85s1.39-6.89,4.85-7.67c3.46-.78,6.89,1.39,7.67,4.85.78,3.46-1.39,6.89-4.85,7.67Z"/>
                    <path class="cls-2"
                          d="M379.89,256.92c-.62-.98-1.33-1.87-2.08-2.69l2.01-3.57-10.49-5.91-2.07,3.66c-2.71-.51-5.53-.43-8.26.26l-2.28-3.57-10.14,6.49,2.28,3.57c-1.56,1.92-2.72,4.11-3.43,6.42l-4.21.12.33,12.03,4.1-.11c.48,1.36,1.12,2.69,1.93,3.95.56.88,1.19,1.7,1.86,2.45l-1.98,3.51,10.49,5.91,1.93-3.42c2.81.58,5.74.52,8.58-.2l2.09,3.27,10.14-6.49-2.09-3.27c1.63-2.01,2.82-4.31,3.52-6.74l3.92-.11-.33-12.03-4.02.11c-.47-1.25-1.07-2.48-1.82-3.65ZM370.68,278.11c-6.08,3.89-14.16,2.11-18.05-3.97-3.89-6.08-2.11-14.17,3.97-18.05,6.08-3.89,14.16-2.11,18.05,3.97,3.89,6.08,2.11,14.16-3.97,18.05Z"/>
                </g>
            </g>
            <g>
                <g>
                    <g>
                        <path class="cls-12"
                              d="M303.59,349.29h-172.4c-6.76,0-12.25-5.48-12.25-12.25V67.25c0-6.76,5.48-12.25,12.25-12.25h172.4c6.76,0,12.25,5.48,12.25,12.25v269.79c0,6.76-5.48,12.25-12.25,12.25Z"/>
                        <path class="cls-24"
                              d="M258.83,51.93h-1.8c0-3.64-2.98-6.62-6.62-6.62h-14.01c-6.64,0-12.03-5.38-12.03-12.03v-.29c0-2.35-.96-4.47-2.5-6.02-1.68-1.67-4.04-2.66-6.63-2.48-4.51.32-7.91,4.26-7.91,8.78h0c0,6.64-5.38,12.03-12.03,12.03h-14.01c-1.82,0-3.48.74-4.67,1.95-1.2,1.2-1.95,2.85-1.95,4.67h-1.8c-4.53,0-8.23,3.7-8.23,8.23h0v8.24h102.41v-8.24c0-4.52-3.7-8.23-8.23-8.23ZM215.85,40.3c-2.22,0-4.02-1.8-4.02-4.03s1.8-4.02,4.02-4.02,4.02,1.8,4.02,4.02c0,2.23-1.8,4.03-4.02,4.03Z"/>
                    </g>
                    <rect class="cls-7" x="131.6" y="73.69" width="171.59" height="256.93"/>
                </g>
                <g>
                    <g>
                        <g>
                            <path class="cls-23"
                                  d="M235.59,182.03h-86.57c-.9,0-1.64-.74-1.64-1.64h0c0-.9.74-1.64,1.64-1.64h86.57c.9,0,1.64.74,1.64,1.64h0c0,.9-.74,1.64-1.64,1.64Z"/>
                            <path class="cls-23"
                                  d="M173.56,188.34h-24.61c-.87,0-1.58-.71-1.58-1.58h0c0-.87.71-1.58,1.58-1.58h24.61c.87,0,1.58.71,1.58,1.58h0c0,.87-.71,1.58-1.58,1.58Z"/>
                            <path class="cls-23"
                                  d="M231.49,188.34h-49.6c-.87,0-1.58-.71-1.58-1.58h0c0-.87.71-1.58,1.58-1.58h49.6c.87,0,1.58.71,1.58,1.58h0c0,.87-.71,1.58-1.58,1.58Z"/>
                            <path class="cls-23"
                                  d="M192.87,194.65h-43.92c-.87,0-1.58-.71-1.58-1.58h0c0-.87.71-1.58,1.58-1.58h43.92c.87,0,1.58.71,1.58,1.58h0c0,.87-.71,1.58-1.58,1.58Z"/>
                            <path class="cls-23"
                                  d="M225.3,194.65h-22.59c-.87,0-1.58-.71-1.58-1.58h0c0-.87.71-1.58,1.58-1.58h22.59c.87,0,1.58.71,1.58,1.58h0c0,.87-.71,1.58-1.58,1.58Z"/>
                        </g>
                        <g>
                            <path class="cls-8"
                                  d="M173.56,172.76h-24.61c-.87,0-1.58-.71-1.58-1.58h0c0-.87.71-1.58,1.58-1.58h24.61c.87,0,1.58.71,1.58,1.58h0c0,.87-.71,1.58-1.58,1.58Z"/>
                            <path class="cls-8"
                                  d="M231.49,172.76h-49.6c-.87,0-1.58-.71-1.58-1.58h0c0-.87.71-1.58,1.58-1.58h49.6c.87,0,1.58.71,1.58,1.58h0c0,.87-.71,1.58-1.58,1.58Z"/>
                        </g>
                    </g>
                    <g>
                        <g>
                            <path class="cls-23"
                                  d="M235.59,284.49h-86.57c-.9,0-1.64-.74-1.64-1.64h0c0-.9.74-1.64,1.64-1.64h86.57c.9,0,1.64.74,1.64,1.64h0c0,.9-.74,1.64-1.64,1.64Z"/>
                            <path class="cls-23"
                                  d="M173.56,290.8h-24.61c-.87,0-1.58-.71-1.58-1.58h0c0-.87.71-1.58,1.58-1.58h24.61c.87,0,1.58.71,1.58,1.58h0c0,.87-.71,1.58-1.58,1.58Z"/>
                            <path class="cls-23"
                                  d="M231.49,290.8h-49.6c-.87,0-1.58-.71-1.58-1.58h0c0-.87.71-1.58,1.58-1.58h49.6c.87,0,1.58.71,1.58,1.58h0c0,.87-.71,1.58-1.58,1.58Z"/>
                            <path class="cls-23"
                                  d="M192.87,297.11h-43.92c-.87,0-1.58-.71-1.58-1.58h0c0-.87.71-1.58,1.58-1.58h43.92c.87,0,1.58.71,1.58,1.58h0c0,.87-.71,1.58-1.58,1.58Z"/>
                            <path class="cls-23"
                                  d="M225.3,297.11h-22.59c-.87,0-1.58-.71-1.58-1.58h0c0-.87.71-1.58,1.58-1.58h22.59c.87,0,1.58.71,1.58,1.58h0c0,.87-.71,1.58-1.58,1.58Z"/>
                        </g>
                        <g>
                            <path class="cls-8"
                                  d="M173.56,275.21h-24.61c-.87,0-1.58-.71-1.58-1.58h0c0-.87.71-1.58,1.58-1.58h24.61c.87,0,1.58.71,1.58,1.58h0c0,.87-.71,1.58-1.58,1.58Z"/>
                            <path class="cls-8"
                                  d="M231.49,275.21h-49.6c-.87,0-1.58-.71-1.58-1.58h0c0-.87.71-1.58,1.58-1.58h49.6c.87,0,1.58.71,1.58,1.58h0c0,.87-.71,1.58-1.58,1.58Z"/>
                        </g>
                    </g>
                    <g>
                        <g>
                            <path class="cls-23"
                                  d="M235.59,233.32h-86.57c-.9,0-1.64-.74-1.64-1.64h0c0-.9.74-1.64,1.64-1.64h86.57c.9,0,1.64.74,1.64,1.64h0c0,.9-.74,1.64-1.64,1.64Z"/>
                            <path class="cls-23"
                                  d="M173.56,239.63h-24.61c-.87,0-1.58-.71-1.58-1.58h0c0-.87.71-1.58,1.58-1.58h24.61c.87,0,1.58.71,1.58,1.58h0c0,.87-.71,1.58-1.58,1.58Z"/>
                            <path class="cls-23"
                                  d="M231.49,239.63h-49.6c-.87,0-1.58-.71-1.58-1.58h0c0-.87.71-1.58,1.58-1.58h49.6c.87,0,1.58.71,1.58,1.58h0c0,.87-.71,1.58-1.58,1.58Z"/>
                            <path class="cls-23"
                                  d="M192.87,245.94h-43.92c-.87,0-1.58-.71-1.58-1.58h0c0-.87.71-1.58,1.58-1.58h43.92c.87,0,1.58.71,1.58,1.58h0c0,.87-.71,1.58-1.58,1.58Z"/>
                            <path class="cls-23"
                                  d="M225.3,245.94h-22.59c-.87,0-1.58-.71-1.58-1.58h0c0-.87.71-1.58,1.58-1.58h22.59c.87,0,1.58.71,1.58,1.58h0c0,.87-.71,1.58-1.58,1.58Z"/>
                        </g>
                        <g>
                            <path class="cls-8"
                                  d="M231.49,224.61h-24.61c-.87,0-1.58-.71-1.58-1.58h0c0-.87.71-1.58,1.58-1.58h24.61c.87,0,1.58.71,1.58,1.58h0c0,.87-.71,1.58-1.58,1.58Z"/>
                            <path class="cls-8"
                                  d="M198.55,224.61h-49.6c-.87,0-1.58-.71-1.58-1.58h0c0-.87.71-1.58,1.58-1.58h49.6c.87,0,1.58.71,1.58,1.58h0c0,.87-.71,1.58-1.58,1.58Z"/>
                        </g>
                    </g>
                    <g>
                        <rect class="cls-8" x="203.73" y="116.95" width="33.06" height="33.07"/>
                        <path class="cls-11"
                              d="M236.8,149.17v.84h-32.4c1.73-6.16,6.85-10.9,13.22-12.08-3.5-1.27-6-4.62-6-8.56,0-5.03,4.08-9.11,9.11-9.11s9.12,4.08,9.12,9.11c0,3.94-2.51,7.29-6,8.56,6.08,1.12,11.02,5.49,12.96,11.24Z"/>
                    </g>
                    <path class="cls-8"
                          d="M273.72,90.52h-124.59c-.96,0-1.75.79-1.75,1.75h0c0,.96.79,1.75,1.75,1.75h124.59c.96,0,1.75-.79,1.75-1.75h0c0-.96-.79-1.75-1.75-1.75Z"/>
                    <path class="cls-8"
                          d="M230.16,98.21h-81.37c-.78,0-1.42.64-1.42,1.42v.66c0,.78.64,1.42,1.42,1.42h81.37c.78,0,1.42-.64,1.42-1.42v-.66c0-.78-.64-1.42-1.42-1.42Z"/>
                    <g>
                        <polygon class="cls-9" points="254.54 242.84 254.54 242.84 254.54 242.84 254.54 242.84"/>
                        <path class="cls-9" d="M254.54,242.84s-.02-.08-.03-.12"/>
                    </g>
                    <path class="cls-8"
                          d="M271.71,239.04l13.3-11.44.03-.02c-1.61-1.87-3.56-3.36-5.74-4.39-.25-.12-.5-.23-.75-.34-.01-.02-.02-.02-.04-.02-.2-.08-.4-.16-.6-.24-.12-.05-.25-.1-.37-.13-.21-.08-.42-.15-.63-.21-.27-.09-.55-.17-.83-.24-.27-.07-.54-.14-.82-.19-.85-.18-1.72-.3-2.59-.34-.32-.02-.64-.03-.96-.03-4.83,0-9.23,1.99-12.41,5.18-.4.4-.78.82-1.14,1.25-.36.43-.69.88-1.02,1.35h0c-.31.47-.61.96-.88,1.45-.28.5-.52,1.02-.75,1.54-.22.53-.42,1.06-.59,1.61-.59,1.88-.87,3.89-.78,5.97.01.26.03.52.05.77.01.18.03.36.06.54.01.15.03.3.05.45.01.09.02.17.04.26.02.1.03.21.05.31.03.19.08.38.12.57,0,.04.02.08.03.13,0-.04-.02-.08-.03-.12,0,.04.02.08.03.12,0,0,0,0,0,0,0,0,0,0,0,0,.07.31.14.62.23.92,0,.02,0,.03.01.04.05.19.11.38.17.57,0,0,0,0,0,0,0,.01,0,.02.01.03,1.72,5.36,5.99,9.65,11.35,11.37-.24-.08-.48-.17-.72-.26.4.15.8.28,1.2.4-.15-.05-.31-.08-.46-.13.19.06.38.12.58.17.22.07.44.13.66.18.03,0,.06.01.09.02.23.05.47.11.71.15.07.02.15.04.23.05.12.02.25.04.37.06.05.01.1.02.15.02.18.03.37.05.55.07.16.02.32.04.48.05h.03c.25.03.5.04.75.05.26.02.52.02.77.02,4.35,0,8.35-1.61,11.43-4.27l.02.02c1.82-1.56,3.28-3.46,4.3-5.57.15-.3.3-.61.43-.92.01-.02.01-.03.02-.04.08-.2.16-.4.24-.6.13-.35.25-.7.36-1.06.08-.26.16-.51.22-.77.07-.25.13-.51.18-.77.19-.86.3-1.74.35-2.64.02-.32.03-.64.03-.96h-17.58Z"/>
                    <path class="cls-11" d="M289.29,239.04c0-4.36-1.61-8.36-4.28-11.44l-13.3,11.44h17.58Z"/>
                    <g>
                        <g>
                            <path class="cls-11"
                                  d="M262.04,168.17h0c-1.53,0-2.77,1.24-2.77,2.77v28.5h5.55v-28.5c0-1.53-1.24-2.77-2.77-2.77Z"/>
                            <path class="cls-8"
                                  d="M268.83,174.55h0c-1.53,0-2.77,1.24-2.77,2.77v22.12h5.55v-22.12c0-1.53-1.24-2.77-2.77-2.77Z"/>
                            <path class="cls-11"
                                  d="M275.61,180.76h0c-1.53,0-2.77,1.24-2.77,2.77v15.91h5.55v-15.91c0-1.53-1.24-2.77-2.77-2.77Z"/>
                            <path class="cls-8"
                                  d="M283.01,185.34h0c-1.53,0-2.77,1.24-2.77,2.77v11.33h5.55v-11.33c0-1.53-1.24-2.77-2.77-2.77Z"/>
                        </g>
                        <path class="cls-8"
                              d="M287.17,201.93h-30.94c-.91,0-1.65-.74-1.65-1.65h0c0-.91.74-1.65,1.65-1.65h30.94c.91,0,1.65.74,1.65,1.65h0c0,.91-.74,1.65-1.65,1.65Z"/>
                    </g>
                    <g>
                        <rect class="cls-8" x="149.32" y="116.95" width="33.65" height="33.65"/>
                        <path class="cls-11"
                              d="M148.43,133.2h0c-1.37,1.32-1.41,3.49-.1,4.87l9.92,10.38c1.27,1.33,3.41,1.26,4.6-.14l21.37-25.36c1.13-1.35.83-3.38-.65-4.34h0c-1.21-.78-2.82-.56-3.77.53l-19.17,21.81-7.31-7.65c-1.32-1.38-3.52-1.43-4.89-.1Z"/>
                    </g>
                    <g>
                        <rect class="cls-8" x="254.88" y="116.95" width="33.65" height="33.65"/>
                        <path class="cls-11"
                              d="M253.99,133.2h0c-1.37,1.32-1.41,3.49-.1,4.87l9.92,10.38c1.27,1.33,3.42,1.26,4.6-.14l21.37-25.36c1.14-1.35.83-3.38-.65-4.34h0c-1.21-.78-2.82-.56-3.77.53l-19.17,21.81-7.31-7.65c-1.32-1.38-3.52-1.43-4.89-.1Z"/>
                    </g>
                    <path class="cls-8" d="M271.72,284.24l16.55-6.72c-1.61-3.96-4.58-7.21-8.39-9.17l-8.18,15.9h0Z"/>
                    <path class="cls-11"
                          d="M288.73,278.79c-.07-.22-.15-.44-.23-.66-.08-.2-.13-.41-.21-.61h-.02s-16.55,6.73-16.55,6.73h0s0,0,0,0l8.18-15.9v-.02c-.22-.12-.46-.21-.69-.31-.26-.12-.52-.24-.79-.35-.28-.11-.57-.21-.86-.31-.31-.11-.62-.21-.93-.3-.29-.08-.57-.15-.86-.22-.3-.07-.61-.14-.91-.19-.33-.06-.65-.1-.98-.14-.25-.03-.49-.05-.74-.07-.4-.03-.8-.05-1.21-.06-.14,0-.28,0-.42,0-2.21.02-4.43.43-6.52,1.28-2.11.86-3.95,2.09-5.52,3.58-.09.09-.19.17-.28.26-.16.16-.3.32-.45.48-2.94,3.14-4.68,7.26-4.86,11.56,0,.2-.03.4-.03.6,0,.16.01.32.02.47.04,2.13.44,4.29,1.28,6.37.82,2.02,1.99,3.8,3.4,5.32.16.17.31.36.48.53.08.08.16.15.24.22,3.19,3.08,7.45,4.89,11.88,5.06.15,0,.3.02.46.02.18,0,.37-.01.56-.02,2.11-.04,4.25-.44,6.31-1.27,2.08-.85,3.91-2.07,5.46-3.53.11-.11.24-.21.35-.32.14-.14.26-.28.39-.42,1.49-1.58,2.68-3.39,3.52-5.37,1.62-3.83,1.91-8.23.57-12.41Z"/>
                </g>
            </g>
            <g>
                <polygon class="cls-6"
                         points="273.42 138.63 281.82 141.99 290.21 145.34 286.08 125.72 279.76 132.17 273.42 138.63"/>
                <path class="cls-24" d="M273.42,138.63l8.4,3.36c-.63-3.03-1.44-6.9-2.06-9.82l-6.35,6.46Z"/>
                <g>
                    <polygon class="cls-10" points="286.08 125.72 290.21 145.34 415.39 119 411.26 99.38 286.08 125.72"/>
                    <rect class="cls-24" x="413.28" y="98.69" width="4.78" height="20.05"
                          transform="translate(-13.48 87.91) rotate(-11.88)"/>
                    <path class="cls-13"
                          d="M415.94,98.39l4.13,19.62.23-.05c1.21-.26,4.37-.93,7.66-1.63,5.27-1.13,8.68-6.25,7.68-11.55h0c-1.01-5.34-6.12-8.89-11.48-7.94-2.95.52-5.95,1.07-7.99,1.5l-.23.05Z"/>
                </g>
            </g>
            <g>
                <path class="cls-22"
                      d="M139.85,411.54c0,3.18-24.75,5.76-55.27,5.76s-55.27-2.58-55.27-5.76,24.75-5.76,55.27-5.76,55.27,2.58,55.27,5.76Z"/>
                <g>
                    <g>
                        <path class="cls-14"
                              d="M133.78,171.81c-1.19.52-2.19,1.1-2.87,1.53-.35-7.35-2.52-5.21-2.52-5.21l.18,7.97.03-.02-.25,4.38,3.83.58c2.77.64,4.58.2,5.75-.49.01,0,.03-.02.04-.03,1.18-.71,1.86-2.03,1.91-3.41l.04-1.15c.12-3.23-3.18-5.44-6.14-4.15Z"/>
                        <path class="cls-21"
                              d="M58.63,215.15l-23.51,37.08c-.14.22-.28.45-.4.67-2.19,3.83-2.56,8.44-1.28,12.66l7.86,36.26,7.8-1.48-6.63-35.19c.16-3.16,1.21-6.2,3.02-8.8l15.36-22.01-2.2-19.19Z"/>
                        <g>
                            <g>
                                <rect class="cls-5" x="30.06" y="286.95" width="31.52" height="20.85"
                                      transform="translate(-88.55 28.16) rotate(-17.76)"/>
                                <g>
                                    <rect class="cls-22" x="31.22" y="288.18" width="29.2" height="18.39"
                                          transform="translate(-88.55 28.16) rotate(-17.76)"/>
                                    <g>
                                        <path class="cls-19"
                                              d="M37.54,307.82h0c-.26.08-.54-.06-.62-.32l-4.24-13.11c-.08-.26.06-.54.32-.62h0c.26-.08.54.06.62.32l4.24,13.11c.08.26-.06.54-.32.62Z"/>
                                        <path class="cls-19"
                                              d="M40.55,306.84h0c-.26.08-.54-.06-.62-.32l-4.24-13.11c-.08-.26.06-.54.32-.62h0c.26-.08.54.06.62.32l4.24,13.11c.08.26-.06.54-.32.62Z"/>
                                        <path class="cls-19"
                                              d="M43.55,305.87h0c-.26.08-.54-.06-.62-.32l-4.24-13.11c-.08-.26.06-.54.32-.62h0c.26-.08.54.06.62.32l4.24,13.11c.08.26-.06.54-.32.62Z"/>
                                        <path class="cls-19"
                                              d="M46.56,304.9h0c-.26.08-.54-.06-.62-.32l-4.24-13.11c-.08-.26.06-.54.32-.62h0c.26-.08.54.06.62.32l4.24,13.11c.08.26-.06.53-.32.62Z"/>
                                        <path class="cls-19"
                                              d="M49.57,303.93h0c-.26.08-.54-.06-.62-.32l-4.24-13.11c-.08-.26.06-.54.32-.62h0c.26-.08.54.06.62.32l4.24,13.11c.08.26-.06.53-.32.62Z"/>
                                        <path class="cls-19"
                                              d="M52.58,302.95h0c-.26.08-.54-.06-.62-.32l-4.24-13.11c-.08-.26.06-.54.32-.62h0c.26-.08.54.06.62.32l4.24,13.11c.08.26-.06.54-.32.62Z"/>
                                        <path class="cls-19"
                                              d="M55.59,301.98h0c-.26.08-.54-.06-.62-.32l-4.24-13.11c-.08-.26.06-.54.32-.62h0c.26-.08.54.06.62.32l4.24,13.11c.08.26-.06.54-.32.62Z"/>
                                        <path class="cls-19"
                                              d="M58.6,301.01h0c-.26.08-.54-.06-.62-.32l-4.24-13.11c-.08-.26.06-.54.32-.62h0c.26-.08.54.06.62.32l4.24,13.11c.08.26-.06.54-.32.62Z"/>
                                    </g>
                                </g>
                            </g>
                            <path class="cls-14"
                                  d="M43.98,300.98c-.1.05-.2.11-.32.2-.93.67-1.33,1.86-1.1,2.98l.17.82c-.05,1.89,1.38,3.53,3.26,3.66,1.48.1,3.09-.22,4.83-.94.43-.18.76-.52.95-.95.47-1.1,1.4-3.99-.11-6.38-.11-.17-.29-.3-.49-.36h0c-.55-.16-1.1.25-1.1.83,0,1.01-.1,2.44-.61,3.15l-.52-2.41c-.2-.92-1.07-1.53-2.01-1.4-.89.12-1.99.36-2.94.8Z"/>
                        </g>
                        <g>
                            <path class="cls-17"
                                  d="M105.34,399.58c-.16.57-2.92,3.21-2.9,9.2,0,2.04,1.67,3.68,3.71,3.68h24.18c1.36-4.25-.33-4.72-4.1-5.56-7.26-.52-11.71-3.13-13.37-7.81l-7.51.49Z"/>
                            <path class="cls-15"
                                  d="M41.13,399.58c-.16.57-2.92,3.21-2.9,9.2,0,2.04,1.67,3.68,3.71,3.68h24.18c1.36-4.25-.33-4.72-4.1-5.56-7.26-.52-11.72-3.13-13.37-7.81l-7.51.49Z"/>
                        </g>
                        <g>
                            <path class="cls-18"
                                  d="M57.99,285.87c-.77.53-1.22,14.64-1.46,28.09-.31,16.5-2.91,32.87-7.73,48.66l-11.39,37.35,12.89,1.61,17.25-46.32c3.29-8.83,5.87-17.9,7.73-27.13l8.49-42.26h-25.78Z"/>
                            <path class="cls-3"
                                  d="M72.5,285.87h0c-.14.52-.26,1.04-.37,1.56-2.34,11.16,1.98,22.67,10.62,30.1l1.51,1.3c3.65,10.68,8.01,27.63,9.97,38.74l7.53,42.7h12.35l-14.65-111.48-26.98-2.92Z"/>
                        </g>
                        <path class="cls-24"
                              d="M61.4,192.77c-.25,1.66,1.05,4.31,1.88,5.76.85,1.48.89,1.53,2.22,2.54,1.88,1.42,4.84,2.45,7.21,2.02,1.46-.27,3.65-1,4.44-2.28.66-1.07.53-2.82.44-4.02-.14-1.79-.11-3.83-1-5.42-1.34-2.38-2.94-4.26-5.82-4.59-2.31-.26-6.38-.26-7.38,2.39"/>
                        <path class="cls-6"
                              d="M82.78,201.61c.16.62-2.96,10.92-1.09,14.51l-12.17-.78s4.84-2.18,5.46-21.37l7.8,7.64Z"/>
                        <path class="cls-20"
                              d="M56.24,288.79c3.57-10.97,5.36-22.4,5.36-33.86,0-6.15-.52-12.3-1.55-18.4l-2.75-16.15c-.5-4.04,2.34-7.73,6.37-8.28l9.56-1.29h8.76l2.86.81,10.61,3c.61,11.22-3.49,26.21-2.79,39.29.65,11.95,6.11,21.86,6.82,34.88h-43.24Z"/>
                        <path class="cls-4"
                              d="M137.53,181.57l-4.52,23.39v.05c-1.5,7.85-7.04,14.29-14.69,16.7l-14.69,4.62c-5.29,1.66-11.07,1.07-16.06-1.65h0c-4.05-2.21-3.44-8.26.94-9.32h0c.98-.24,1.97-.43,2.97-.58l20.45-3.05c5.63-.85,10.18-4.93,11.68-10.49l3.98-21.31,1.71.29,4.79.79,3.44.57Z"/>
                        <path class="cls-11"
                              d="M69.52,211.32l.81-2.64c.03-.1.07-.2.12-.3.43-.87,1.54-1.05,2.37-.54,1.72,1.06,6.07,1.28,8.63-.1,1.04-.56,2.39-.03,2.63,1.13,0,0,0,.02,0,.03l.5,2.66c-5.59,2.78-10.61,2.7-15.06-.23Z"/>
                        <path class="cls-14"
                              d="M82.1,179.55c.1.46,3.08,5.23,3.71,7.32l5.74,5.59s.43.47-1.84,1.77c0,0,.77,4.23.63,7.38-.08,1.85-1.68,3.29-3.53,3.2-2.9-.14-7.15-.89-10.98-7.2,0,0-6.27,3.1-6.85-5.24,0,0-1.96-10.82,3.8-5.08l2.16,1.67,7.17-9.43Z"/>
                        <path class="cls-24"
                              d="M84.87,188.7c.27.74.22,1.43-.11,1.56-.33.12-.82-.38-1.1-1.11-.27-.74-.22-1.43.11-1.56.33-.12.83.37,1.1,1.11Z"/>
                        <path class="cls-24"
                              d="M88.52,196.61c-1.94.43-3.55-1.44-3.62-1.53-.09-.1-.07-.25.03-.34.1-.09.25-.07.34.03.02.02,1.75,2.03,3.58,1.23.12-.05.26,0,.32.12.05.12,0,.26-.12.32-.17.07-.34.13-.51.17Z"/>
                        <path class="cls-24"
                              d="M81.65,188.85s.66-2.3,2.53-2.9c.34-.11.5-.5.33-.82h0c-.15-.28-.51-.4-.78-.23-.6.35-1.56,1.32-2.08,3.95Z"/>
                    </g>
                    <path class="cls-1"
                          d="M89.04,179.01c-.35-3.4-4.24-7.7-7.79-7.88-1.61-.07-3.02-.03-4.54.46-1.76.57-4.29,1.52-4.92,3.54-.32,1.03-.35,2.53-1.46,2.85-2.4.68-4.47.94-6.54,2.52-1.96,1.51-3.53,3.61-3.71,6.12-.2,2.79.49,6.9,1.48,9.62,1.35,3.68,6.38,7.23,10.93,7.34,0,.05,0,.1-.02.15-.26.99-1.33,1.39-1.87,2.18,1.37.51,3.15-.29,4.24-1.11,1.18,1.64,2.98,1.37,4.68,1.71-.83-.49-1.39-2.26-1.2-3.02.33-1.36,1.47-2.4,1.83-3.81.23-.87.36-2.05-.02-2.87.06-.25.12-.5.17-.77-.92-.14-1.83-.87-2.33-1.97-.7-1.55-.3-3.24.89-3.78.54-.25,1.15-.21,1.73.04-.07-1.26-.21-2.63-.44-4.11.62-.26,1.38-1.59,1.74-2.05.44-.55.81-1.63,1.42-1.96.4.33,1.64,2.62,1.64,2.62,1.27.1,3.56-5.96,2.69-7.62.54.55,1,1.15,1.4,1.8Z"/>
                    <g>
                        <path class="cls-16"
                              d="M72.99,173.95c-.21,0-1.01-.02-1.4,0-2.47.11-11.49,1.51-14,9.34-3.66,11.41,3.79,16.46,5.89,17.77.97.6,1.97,1.09,3.01,1.6.49.24,1.09.57,1.65.6.74.04.82-.25,1.31-.82,1.47-1.7,2.78-3.8,3.56-5.87.9-2.38,1.78-4.95,2.28-7.44.47-2.35.54-4.83.58-7.24.08-4.76-2.89-7.94-2.89-7.94Z"/>
                        <path class="cls-5"
                              d="M67.99,202.71s-1.89,1.58.58,2.12c0,0,4.33-.22,7.83-11.88.06-.18.11-.37.17-.56,2.24-6.93,1.53-13.49-1.82-19.74,0,0-2.06-1.14-2.47,1.29,4.77,8.25,2.25,18.08-4.28,28.78Z"/>
                    </g>
                </g>
            </g>
        </g>
    </g>
</svg>