<?xml version="1.0" encoding="UTF-8"?>
<svg id="Layer_2" data-name="Layer 2" xmlns="http://www.w3.org/2000/svg" viewBox="0 0 401.38 387.58">
    <defs>
        <style>
            .cls-1 {
            fill: #6c2d28;
            }

            .cls-2 {
            fill: #41b653;
            }

            .cls-3 {
            fill: #1e103f;
            }

            .cls-4 {
            fill: #402767;
            }

            .cls-5 {
            fill: #333;
            }

            .cls-6 {
            fill: #2c1e55;
            }

            .cls-7 {
            fill: #221717;
            }

            .cls-8 {
            fill: #2d2e2d;
            }

            .cls-9 {
            fill: #575757;
            }

            .cls-10 {
            fill: #64be6a;
            }

            .cls-11 {
            fill: #d7d6d6;
            }

            .cls-12 {
            fill: #d4effc;
            }

            .cls-13 {
            fill: #fff;
            }

            .cls-14 {
            fill: #ccc;
            }

            .cls-15 {
            fill: #fdfefd;
            }

            .cls-16 {
            fill: #201515;
            }

            .cls-17 {
            fill: #db2458;
            }

            .cls-18 {
            fill: #ef3859;
            }

            .cls-19 {
            fill: #fabca6;
            }

            .cls-20 {
            fill: #d3d3d3;
            }

            .cls-21 {
            fill: #e09b8a;
            }

            .cls-22 {
            fill: #eaeaea;
            }

            .cls-23 {
            fill: #9e9e9e;
            }

            .cls-24 {
            fill: #e52553;
            }

            .cls-25 {
            fill: #733329;
            }

            .cls-26 {
            fill: #2f1f1f;
            }

            .cls-27 {
            fill: #989798;
            }

            .cls-28 {
            fill: #f2b49d;
            }

            .cls-29 {
            fill: #e8e5e6;
            }

            .cls-30 {
            fill: #214289;
            }

            .cls-31 {
            fill: #f2ae99;
            }

            .cls-32 {
            fill: #223e7d;
            }

            .cls-33 {
            fill: #d2d2d2;
            }

            .cls-34 {
            fill: #212121;
            }

            .cls-35 {
            fill: #d8d9d8;
            }

            .cls-36 {
            fill: #4e3688;
            }

            .cls-37 {
            fill: #ee2f5b;
            }

            .cls-38 {
            fill: #898989;
            }

            .cls-39 {
            fill: #f0efef;
            }
        </style>
    </defs>
    <g id="Layer_1-2" data-name="Layer 1">
        <g id="OBJECT">
            <ellipse class="cls-39" cx="200.69" cy="371.77" rx="200.69" ry="15.81"/>
            <g>
                <g>
                    <polygon class="cls-28"
                             points="128.97 351.63 125.31 359.96 116.51 359 120.76 347.84 128.97 351.63"/>
                    <path class="cls-7"
                          d="M114.93,365.69c.25,1.06.56,1.75.56,1.75l30.81-.48v-2.36c0-3.72-3.79-3.57-3.79-3.57-3.84.77-16.35-2.74-16.35-2.74l-9.31-.57c-2.62,2.58-2.39,5.95-1.93,7.97Z"/>
                    <path class="cls-16" d="M114.93,365.69c.25,1.06.56,1.75.56,1.75l30.81-.48v-1.09l-31.37-.18Z"/>
                    <g>
                        <path class="cls-31"
                              d="M144.24,215.66c-2.39,18.9-19.12,4.65-19.12,4.65l-16.4-26.24-15.58-24.92,15.41-11.34,9.6,17.05,7.26,12.89-9.88-41.86c-4.07-6.98-2.62-13.37-2.62-13.37l-10.47-21.22,11.63-12.21s8.14,15.12,11.63,20.64c3.49,5.52-1.16,16.86-1.16,16.86,0,0,22.1,60.18,19.7,79.08Z"/>
                        <path class="cls-24"
                              d="M122.3,182.21c-2.15,4.52-9.97,7.81-12.81,13.49l-16.34-26.56,15.41-11.34,13.75,24.41Z"/>
                    </g>
                    <g>
                        <path class="cls-9"
                              d="M120.4,138.8l-15.46-.34c-.86-.02-1.55-.74-1.54-1.6l.63-28.49c.02-.86.74-1.55,1.6-1.54l15.46.34c.86.02,1.55.74,1.54,1.6l-.63,28.49c-.02.86-.74,1.55-1.6,1.53Z"/>
                        <rect class="cls-23" x="99.56" y="114.47" width="26.9" height="15.79"
                              transform="translate(-11.84 232.61) rotate(-88.72)"/>
                    </g>
                    <path class="cls-12"
                          d="M144.96,162.6s-6.61,64.79-4.85,73.16c1.76,8.37,31.73-9.7,31.73-9.7,0,0,3.97-63.46,6.61-66.11,2.64-2.64-16.75-2.64-33.49,2.64Z"/>
                    <g>
                        <polygon class="cls-34"
                                 points="21.58 140.71 83.92 138.97 95.01 288.32 28.53 287.03 21.58 140.71"/>
                        <path class="cls-5"
                              d="M33.41,292.18h72.45c3.07,0,5.55-2.48,5.55-5.55v-5.19H33.41c-2.96,0-5.37,2.4-5.37,5.37h0c0,2.97,2.4,5.37,5.37,5.37Z"/>
                        <path class="cls-5"
                              d="M38.82,286.56l-6.95-146.32-10.73.51,6.96,146.32c.14,2.96,2.66,5.25,5.62,5.11h0c2.96-.14,5.25-2.66,5.11-5.62Z"/>
                        <g>
                            <path class="cls-34"
                                  d="M56.92,295.96h29.75c1.55,0,2.81-1.26,2.81-2.81v-.93h-35.36v.93c0,1.55,1.26,2.81,2.81,2.81Z"/>
                            <rect class="cls-5" x="63.69" y="295.96" width="15" height="1.94"/>
                            <rect class="cls-11" x="67.9" y="297.9" width="5.75" height="49.51"/>
                            <rect class="cls-34" x="67.01" y="312.93" width="7.54" height="23.71"/>
                            <polygon class="cls-34"
                                     points="116.01 363.29 117.65 361.83 103.41 345.85 38.91 345.85 23.9 360.86 25.45 362.41 39.82 348.04 102.43 348.04 116.01 363.29"/>
                            <g>
                                <path class="cls-34"
                                      d="M109.2,367.17c0,3.5,2.84,6.35,6.35,6.35s6.35-2.84,6.35-6.35-2.84-6.35-6.35-6.35c-3.5,0-6.35,2.84-6.35,6.35Z"/>
                                <path class="cls-11"
                                      d="M112.11,367.17c0,1.89,1.54,3.43,3.43,3.43s3.43-1.54,3.43-3.43-1.54-3.43-3.43-3.43-3.43,1.54-3.43,3.43Z"/>
                                <path class="cls-5"
                                      d="M108.03,367.2c.31-3.87,3.55-6.92,7.51-6.92s7.2,3.05,7.51,6.92h-15.01Z"/>
                            </g>
                            <g>
                                <circle class="cls-34" cx="23.9" cy="367.17" r="6.34"/>
                                <path class="cls-11"
                                      d="M20.47,367.17c0,1.89,1.54,3.43,3.43,3.43s3.43-1.54,3.43-3.43-1.54-3.43-3.43-3.43-3.43,1.54-3.43,3.43Z"/>
                                <path class="cls-5"
                                      d="M16.4,367.2c.31-3.87,3.55-6.92,7.51-6.92s7.2,3.05,7.51,6.92h-15.01Z"/>
                            </g>
                        </g>
                    </g>
                    <rect class="cls-19" x="74.7" y="137.59" width="32.98" height="19.1"
                          transform="translate(-64.54 222.73) rotate(-84.11)"/>
                    <path class="cls-32"
                          d="M97.46,243.94s-1.14,9.76,13.26,10.14c14.4.38,46.22-6.44,46.6,16.29.38,22.73-28.75,84.91-28.75,84.91l-10.19-3.83,16.15-61.03s4.14-16.3-17.75-6.79c-16.38,7.12-64.41,9.47-57.59-29.93,6.82-39.4,38.27-9.76,38.27-9.76Z"/>
                    <g>
                        <polygon class="cls-19"
                                 points="108.92 357.71 105.26 366.05 96.46 365.08 100.71 353.92 108.92 357.71"/>
                        <path class="cls-30"
                              d="M108.52,361.35l-10.14-3.82-.05-.02,16.15-61.03s6.06-11.08-17.55-7.61c-15.03,2.21-64.6,10.29-57.78-29.11.25-1.45.54-2.81.85-4.08,8.25-33.17,37.41-5.67,37.41-5.67,0,0-1.14,9.76,13.26,10.14,14.4.38,46.22-6.44,46.6,16.29.38,22.73-28.75,84.91-28.75,84.91Z"/>
                        <path class="cls-26"
                              d="M94.88,371.77c.25,1.06.56,1.75.56,1.75l30.81-.48v-2.36c0-3.72-3.79-3.57-3.79-3.57-3.84.77-16.35-2.74-16.35-2.74l-9.31-.57c-2.62,2.58-2.39,5.95-1.93,7.97Z"/>
                        <path class="cls-16" d="M94.88,371.77c.25,1.06.56,1.75.56,1.75l30.81-.48v-1.09l-31.37-.18Z"/>
                    </g>
                    <path class="cls-18"
                          d="M100.82,234.53c-.2,2.47-.12,4.66.32,6.51l1.03,11.07s-45.47,15.55-62.02,7.51c-4.34-2.11-11.67-98.76,31.98-110.5,5.95-1.6,12.84-1.62,20.82.38,0,0,8.03.26,14.08,6.18,3.54,3.46,6.4,8.86,6.56,17.27.28,14.34-5.98,32.26-9.87,46.93-1.45,5.45-2.56,10.45-2.89,14.65Z"/>
                    <path class="cls-19"
                          d="M118.16,90.28s5.87,51.39-20.62,53.88c-26.48,2.49-22.64-52.98-19.51-58.08s32.09-13.44,40.13,4.2Z"/>
                    <path class="cls-25"
                          d="M68.62,102.45c.21,8.43.57,17.38,5.26,24.39.99,1.49,2.24,2.9,3.9,3.56,1.66.66,3.81.35,4.85-1.1.54-.75.72-1.7.82-2.62.44-3.85-.19-8.04,1.81-11.36.88-1.47,2.2-2.61,3.29-3.93,3.21-3.91,4.18-9.53,2.49-14.3,8.39,2.54,17.46,2.79,25.98.72,2.89-.7,5.94-1.83,7.57-4.33,1.32-2.02,1.45-4.62,1.01-6.99-.75-4.08-3.07-7.68-6.19-10.45-.2-.18-.41-.36-.62-.53-.52-.43-1.06-.83-1.61-1.22-1.04-.72-2.14-1.36-3.28-1.9-.35-.17-.7-.33-1.06-.48-10.48-4.41-23.86-3.69-32.59,3.99-3.83,3.37-6.38,8.7-5.03,13.62-2.67.21-4.84,2.46-5.77,4.97-.93,2.51-.88,5.27-.81,7.96Z"/>
                    <path class="cls-19"
                          d="M79.65,113.74c.02,3.01,2.48,5.43,5.48,5.41,3.01-.02,5.43-2.48,5.41-5.48-.02-3.01-2.48-5.43-5.48-5.41-3.01.02-5.43,2.48-5.41,5.48Z"/>
                    <path class="cls-19"
                          d="M83.93,165.59c9.15,3.79,19.12.7,22.27-6.9.41-.98.68-1.99.83-3.01-6.04-5.91-14.08-6.18-14.08-6.18-7.98-2.01-14.87-1.98-20.82-.38-.35,6.55,4.27,13.35,11.8,16.47Z"/>
                    <rect class="cls-5" x="67.01" y="253.11" width="9.72" height="30.09"/>
                    <path class="cls-5"
                          d="M48.89,257.5h56.41c2.83,0,5.12-2.29,5.12-5.12v-.36c0-2.83-2.29-5.12-5.12-5.12h-56.41c-2.83,0-5.12,2.29-5.12,5.12v.36c0,2.83,2.29,5.12,5.12,5.12Z"/>
                    <rect class="cls-34" x="67.01" y="257.5" width="9.72" height="2.88"/>
                    <g>
                        <path class="cls-8"
                              d="M110.34,112.06c-.1,2.03.65,3.72,1.69,3.77,1.03.05,1.95-1.55,2.05-3.59.1-2.03-.65-3.72-1.69-3.77-1.03-.05-1.95,1.55-2.05,3.59Z"/>
                        <path class="cls-8"
                              d="M98.17,110.66c-.1,2.03.65,3.72,1.69,3.77,1.03.05,1.95-1.55,2.05-3.59.1-2.03-.65-3.72-1.69-3.77-1.03-.05-1.95,1.55-2.05,3.59Z"/>
                        <path class="cls-21"
                              d="M105.35,124.86c1.03,0,2.08-.1,3.08-.41.28-.09.58-.2.82-.43.37-.35.53-.91.44-1.5-.07-.43-.24-.8-.41-1.16l-.05-.1c-1.09-2.35-1.71-4.95-1.78-7.53,0-.22-.2-.41-.41-.38-.22,0-.39.19-.38.41.07,2.69.71,5.4,1.85,7.84l.05.11c.15.33.3.63.35.95.04.26,0,.6-.2.8-.13.12-.32.19-.51.25-1.68.53-3.58.38-5.25.25-.22,0-.41.15-.43.36-.02.22.15.41.36.43.79.06,1.62.12,2.47.12Z"/>
                        <path class="cls-13" d="M112.42,128s-5.97,2.57-12.54-1.23c0,0,5.26,12.53,12.54,1.23Z"/>
                    </g>
                    <path class="cls-1"
                          d="M85.1,104.25l2.82.38c1.55-11.33,5.73-19.47,12.42-24.2,7.64-5.41,16.47-4.74,19.07-4.39-.2-.18-.41-.36-.62-.53-.52-.43-1.06-.83-1.61-1.22-.78-.49-1.59-.94-2.42-1.34-4.34.12-10.41,1.16-16.03,5.13-7.37,5.2-11.96,14.01-13.62,26.17Z"/>
                    <path class="cls-22"
                          d="M84.24,103.68l2.82.38c1.55-11.33,5.73-19.47,12.42-24.2,7.89-5.59,17.05-4.69,19.31-4.36-1.49-1.23-3.15-2.29-4.89-3.12-4.34.12-10.41,1.16-16.03,5.13-7.37,5.2-11.96,14.01-13.62,26.17Z"/>
                    <g>
                        <path class="cls-14"
                              d="M83,121.67s.06.04.09.06c.67.43,1.4.75,2.17.92.04,0,.08.02.12.03.26.05.52.09.79.12.93.08,1.84-.04,2.7-.34,3.38-1.15,6.05-4.94,6.42-9.64.46-5.9-2.86-10.99-7.44-11.37-1.71-.14-3.35.39-4.76,1.43-2.36,1.73-4.07,4.86-4.36,8.55-.35,4.41,1.43,8.38,4.26,10.25Z"/>
                        <path class="cls-22"
                              d="M81.99,120.99s.06.04.09.06c.67.42,1.4.72,2.17.89.04,0,.08.02.12.02.26.05.52.09.79.11.93.08,1.84-.04,2.7-.33,3.38-1.11,6.05-4.78,6.42-9.33.46-5.71-2.86-10.63-7.44-11.01-1.71-.14-3.35.38-4.76,1.38-2.36,1.68-4.07,4.7-4.36,8.27-.35,4.27,1.43,8.11,4.27,9.92Z"/>
                        <path class="cls-20"
                              d="M81.99,120.99s.06.04.09.06c.69.41,1.42.71,2.17.89.04,0,.08.02.12.02.76.17,1.55.21,2.34.1.41-.05.81-.15,1.19-.27-.01-.01-.03-.03-.04-.05-4.4-4.46-5.51-13.91-5.78-18.95-2.36,1.68-4.07,4.7-4.36,8.27-.35,4.27,1.43,8.11,4.26,9.92Z"/>
                    </g>
                    <path class="cls-22"
                          d="M104.01,128.75c1.26,0,2.07-.08,2.15-.09l-.14-1.32s-3.81.37-7.85-.54c-5.28-1.19-8.52-3.9-9.63-8.06l-1.28.34c1.23,4.61,4.91,7.73,10.65,9.02,2.34.52,4.55.64,6.1.64Z"/>
                    <path class="cls-20"
                          d="M102.25,128.46c0,1.49,1.7,2.69,3.79,2.69s3.79-1.21,3.79-2.69-1.7-2.69-3.79-2.69-3.79,1.21-3.79,2.69Z"/>
                    <path class="cls-24"
                          d="M103.71,219.89c-1.45,5.45-2.56,10.45-2.89,14.65-13.06,2.58-27.4,4.55-36.72,3.74-11.62-1-15.91-15.34-16.94-30.72-.67-9.96.03-20.35.99-27.82.98-7.61,4.06-12.4,7.4-15.42,8.07-7.29,21.06-1.61,21.26,9.26.23,12.2-7.56,28.25-9.04,33.1-.1.33-.17.61-.21.83-.92,5.35,3.96,11.15,3.96,11.15,0,0,14.21-1.41,27.79.75,1.46.23,2.94.39,4.41.48Z"/>
                    <g>
                        <path class="cls-19"
                              d="M138,220.25s16.16-.26,17.72-10.68c1.56-10.42,3.05-11.05,3.05-11.05,0,0,2.21-1.95,1.37-3-.84-1.05-2.43-.33-4.61,1.16-2.18,1.49-14.67,12.68-14.67,12.68,0,0-1.62-.19-.46-2.75,1.16-2.56,2.28-4.57,2.28-4.57,0,0,.08-1.26-.99-1.6s-1.62,1.26-2.61,2.65-4.99,8.76-10.74,10.75l2.95,9.94,6.71-3.53Z"/>
                        <path class="cls-19"
                              d="M131.28,223.78c-6.97,3.01-47.21,13.03-66.34,11.38-11.62-1-15.91-15.35-16.94-30.72-.67-9.96.03-20.35.99-27.82.98-7.61,4.06-12.4,7.4-15.42,8.07-7.29,21.06-1.61,21.26,9.26.23,12.2-7.56,28.25-9.04,33.1-.1.33-.17.61-.21.83-.92,5.35,3.96,11.15,3.96,11.15,0,0,14.21-1.41,27.79.75,13.59,2.15,28.16-2.49,28.16-2.49l2.98,9.98Z"/>
                        <path class="cls-18"
                              d="M68.61,203.57c-7.18-.05-15.49.48-20.6.87-.67-9.96.03-20.35.99-27.82.98-7.61,4.06-12.4,7.4-15.42,8.07-7.29,21.06-1.61,21.26,9.26.23,12.2-7.56,28.25-9.04,33.1Z"/>
                    </g>
                    <polygon class="cls-39" points="141.79 197.09 141.07 206.25 146.93 200.31 141.79 197.09"/>
                    <path class="cls-5"
                          d="M34.76,292.18h71.27c2.97,0,5.37-2.4,5.37-5.37h0c0-2.97-2.4-5.37-5.37-5.37H34.76s0,10.74,0,10.74Z"/>
                </g>
                <g>
                    <rect class="cls-4" x="80.45" y="229.03" width="286.89" height="10.85"/>
                    <rect class="cls-36" x="80.45" y="229.03" width="111.1" height="10.85"/>
                    <polygon class="cls-27"
                             points="193.94 374.59 187.06 374.59 173.27 251.25 101.96 251.25 87.14 374.59 80.95 374.59 93.46 245.74 94.04 239.89 181.89 239.89 182.41 245.74 193.94 374.59"/>
                    <polygon class="cls-6"
                             points="256.5 374.59 269.59 239.89 357.44 239.89 369.5 374.59 362.61 374.59 348.82 251.26 277.51 251.26 262.7 374.59 256.5 374.59"/>
                    <polygon class="cls-38"
                             points="182.41 245.74 93.46 245.74 94.04 239.89 181.89 239.89 182.41 245.74"/>
                    <polygon class="cls-3"
                             points="357.95 245.74 269.01 245.74 269.58 239.89 357.43 239.89 357.95 245.74"/>
                </g>
                <g>
                    <path class="cls-29"
                          d="M242.1,170.98l-15.81,52.31c-.42,1.39.62,2.79,2.07,2.79h75.13c.96,0,1.8-.63,2.07-1.55l15.52-52.31c.41-1.39-.63-2.78-2.07-2.78h-74.84c-.95,0-1.79.62-2.07,1.54Z"/>
                    <path class="cls-33"
                          d="M319.01,169.45h-2.42l-15.17,51.14c-.27.92-1.12,1.55-2.07,1.55h-72.71l-.35,1.15c-.42,1.39.62,2.79,2.07,2.79h75.13c.96,0,1.8-.63,2.07-1.55l15.52-52.31c.41-1.39-.63-2.78-2.07-2.78Z"/>
                    <path class="cls-35"
                          d="M304.95,229.03h-82.29c-1.28,0-2.33-1.05-2.33-2.33h0c0-1.28,1.05-2.33,2.33-2.33h82.29c1.28,0,2.33,1.05,2.33,2.33h0c0,1.28-1.05,2.33-2.33,2.33Z"/>
                    <path class="cls-29"
                          d="M226.62,229.03h-55.09c-1.07,0-1.94-.87-1.94-1.94v-.79c0-1.07.87-1.94,1.94-1.94h55.09c1.07,0,1.94.87,1.94,1.94v.79c0,1.07-.87,1.94-1.94,1.94Z"/>
                    <circle class="cls-15" cx="275.06" cy="197.04" r="8.4"/>
                </g>
                <g>
                    <g>
                        <path class="cls-10"
                              d="M345.48,192.2c-.1,3.2,1.09,6.45.53,9.62-.15.85-.44,1.71-1.03,2.35-.97,1.04-2.53,1.26-3.95,1.33-.12,0-.24.01-.36.01-.12,0-.25,0-.38,0-1.78.02-3.64-.27-4.78-1.59-1.19-1.37-1.13-3.21-.89-5.12.02-.12.03-.25.05-.38.32-2.35.79-4.77-.6-6.52-.52-.65-1.25-1.12-1.68-1.83-.34-.56-.45-1.16-.45-1.8,0-.12,0-.25.01-.38.08-1.4.6-2.91.39-4.32-.32-2.06-2.14-3.55-2.92-5.49-.02-.04-.03-.07-.04-.11-.05-.14-.1-.27-.14-.41h0c-1.14-3.62,1.64-5.74,4.4-7.53.11-.07.21-.14.32-.21.81-.52,1.6-1.01,2.27-1.51.64-.47,1.4-.67,2.17-.66.13,0,.26,0,.39.02,1.65.17,3.24,1.29,3.63,2.93.26,1.11.03,2.3.41,3.38.28.8.84,1.42,1.45,2.03.09.1.19.19.28.28.26.26.52.51.76.78,1.62,1.79,2.44,4.28,2.19,6.69-.25,2.49-1.58,4.78-1.92,7.26-.02.17-.04.34-.05.51-.02.22-.03.43-.04.65Z"/>
                        <path class="cls-2"
                              d="M340.67,205.52c-.12,0-.25,0-.38,0,.02-2.18.02-4.38-.04-6.58,0-.13,0-.25,0-.38-.02-.9-.06-1.8-.1-2.7h0s0-.1,0-.14c-.13-2.55-.34-5.09-.7-7.61-.02-.12-.03-.25-.05-.38,0,0,0-.01,0-.01-.49-3.36-1.2-6.5-2.14-9.4-.04-.12-.08-.25-.12-.37-.48-1.46-1.03-2.87-1.62-4.21-.02-.06-.05-.11-.08-.17h0c-.55-1.22-1.14-2.38-1.79-3.5.11-.07.21-.14.32-.21.61,1.07,1.19,2.18,1.72,3.34.06.13.12.26.18.39,1.24,2.78,2.24,5.81,2.99,9.09h0c.03.14.06.27.09.41.33,1.48.61,3.01.84,4.59.38,2.59.61,5.21.74,7.83,0,.14.02.27.02.41.16,3.21.17,6.43.15,9.62Z"/>
                        <path class="cls-2"
                              d="M345.52,191.56c-.02.22-.03.43-.04.65-1.35,1.59-3.06,2.88-4.96,3.7-.05.02-.09.04-.14.06-.02,0-.05.02-.07.02-.07,0-.14-.04-.17-.11h0s0,0,0,0c-.02-.05-.02-.1,0-.14.02-.05.05-.09.1-.11.09-.04.18-.07.26-.11,1.95-.87,3.7-2.25,5.02-3.94Z"/>
                        <path class="cls-2"
                              d="M344.55,176.32c-1.34,2.62-3.26,4.95-5.6,6.75,0,0-.02.01-.02.02-.03.02-.06.02-.09.02-.06,0-.11-.02-.15-.07-.07-.08-.05-.2.03-.27.04-.03.08-.06.11-.09h0c2.27-1.78,4.14-4.06,5.43-6.64.09.09.19.19.28.28Z"/>
                        <path class="cls-2"
                              d="M338.79,167.71c-.58,2.13-1.59,4.15-2.94,5.88-.03.04-.06.08-.09.11-.04.05-.09.07-.15.07-.04,0-.08-.01-.11-.04,0,0,0,0,0,0-.05-.04-.08-.11-.07-.17h0s.02-.07.04-.1c.07-.09.14-.18.21-.27,1.24-1.63,2.17-3.52,2.73-5.51.13,0,.26,0,.38.02Z"/>
                        <path class="cls-2"
                              d="M337.56,178.11c0,.1-.07.2-.18.2-.04,0-.09,0-.13,0-.8.05-1.61.07-2.41.07-1.41,0-2.82-.08-4.22-.23-.41-.04-.82-.1-1.24-.16-.05-.14-.1-.27-.14-.41.48.09.95.15,1.42.2,2.14.23,4.31.28,6.47.16.08,0,.15,0,.23-.01.11,0,.19.07.2.18Z"/>
                        <path class="cls-2"
                              d="M339.68,187.89c.01.1-.06.2-.16.21-.02,0-.05,0-.08,0-1.52.2-3.04.31-4.57.31-.98,0-1.96-.04-2.93-.13,0-.12,0-.25.01-.38,2.47.22,4.97.16,7.44-.17.02,0,.05,0,.08-.01.1-.01.2.06.21.16Z"/>
                        <path class="cls-2"
                              d="M340.5,198.72c.02.1-.06.2-.16.21-.03,0-.05,0-.08.01-.8.12-1.62.17-2.43.17-1.07,0-2.15-.1-3.2-.29.02-.12.03-.25.05-.38,1.83.34,3.73.39,5.57.12.01,0,.02,0,.04,0,.11-.02.2.06.22.16Z"/>
                    </g>
                    <polygon class="cls-18"
                             points="350.43 229.09 329.92 229.09 328.97 203.23 351.38 203.23 350.43 229.09"/>
                    <polygon class="cls-37"
                             points="349.67 203.23 348.78 227.36 329.86 227.36 329.92 229.09 350.43 229.09 351.38 203.23 349.67 203.23"/>
                    <path class="cls-17"
                          d="M351.93,205.5h-23.12c-.75,0-1.36-.61-1.36-1.36v-.86c0-.75.61-1.36,1.36-1.36h23.12c.75,0,1.36.61,1.36,1.36v.86c0,.75-.61,1.36-1.36,1.36Z"/>
                </g>
            </g>
            <g>
                <path class="cls-29"
                      d="M162.17,95.48l7.29-2.42c2.7,1.62,5.79,2.48,9,2.48,9.73,0,17.65-7.92,17.65-17.66s-7.92-17.66-17.65-17.66-17.65,7.92-17.65,17.66c0,3.2.85,6.3,2.48,9l-2.42,7.29c-.26.83.49,1.57,1.31,1.31ZM162.88,77.87c0-8.59,6.99-15.58,15.58-15.58s15.58,6.99,15.58,15.58-6.99,15.58-15.58,15.58c-2.97,0-5.84-.83-8.3-2.41-.27-.17-.59-.21-.89-.11l-5.79,1.92,1.92-5.79c.1-.3.06-.62-.11-.89-1.58-2.46-2.41-5.33-2.41-8.3Z"/>
                <path class="cls-29"
                      d="M203.39,110.07c-9.73,0-17.65,7.92-17.65,17.66s7.92,17.66,17.65,17.66c3.2,0,6.3-.85,9-2.48l7.29,2.42c.82.26,1.57-.48,1.31-1.31l-2.42-7.29c1.62-2.7,2.48-5.8,2.48-9,0-9.73-7.92-17.65-17.66-17.65ZM216.44,136.91l1.92,5.79-5.79-1.92c-.3-.1-.62-.05-.89.11-2.46,1.58-5.33,2.41-8.3,2.41-8.59,0-15.58-6.99-15.58-15.58s6.99-15.58,15.58-15.58,15.58,6.99,15.58,15.58c0,2.97-.83,5.84-2.41,8.3-.17.27-.21.59-.11.89Z"/>
                <path class="cls-29"
                      d="M182.62,126.69h-32.2v-47.78h4.76l-2.38,2.38c-.41.41-.41,1.06,0,1.47.41.41,1.06.41,1.47,0l4.15-4.15c.41-.41.41-1.06,0-1.47l-4.15-4.15c-.41-.41-1.06-.41-1.47,0-.41.41-.41,1.06,0,1.47l2.38,2.38h-5.8c-.57,0-1.04.47-1.04,1.04v49.85c0,.57.46,1.04,1.04,1.04h33.24c.57,0,1.04-.47,1.04-1.04,0-.57-.46-1.04-1.04-1.04Z"/>
                <path class="cls-29"
                      d="M232.47,76.83h-33.24c-.57,0-1.04.47-1.04,1.04s.47,1.04,1.04,1.04h32.2v47.78h-4.76l2.38-2.38c.41-.41.41-1.06,0-1.47-.41-.41-1.06-.41-1.47,0l-4.15,4.15c-.41.41-.41,1.06,0,1.47l4.15,4.15c.41.41,1.06.41,1.47,0s.41-1.06,0-1.47l-2.38-2.38h5.8c.57,0,1.04-.47,1.04-1.04v-49.85c0-.57-.47-1.04-1.04-1.04Z"/>
            </g>
            <g>
                <path class="cls-29"
                      d="M139.64,10.8h-53.05c-.42,0-.76.34-.76.76v34.46c0,.42.34.76.76.76h53.05c.42,0,.76-.34.76-.76V11.56c0-.42-.34-.76-.76-.76ZM137.24,12.31l-24.13,16.88-24.13-16.88h48.26ZM138.88,45.26h-51.54V13.01l25.34,17.72c.13.09.28.14.43.14s.3-.05.43-.14l25.34-17.72v32.26h0Z"/>
                <path class="cls-29"
                      d="M121.49,40.73h15.12c.42,0,.76-.34.76-.76s-.34-.76-.76-.76h-15.12c-.42,0-.76.34-.76.76s.34.76.76.76Z"/>
                <path class="cls-29"
                      d="M121.49,37.71h15.12c.42,0,.76-.34.76-.76s-.34-.76-.76-.76h-15.12c-.42,0-.76.34-.76.76s.34.76.76.76Z"/>
                <path class="cls-29"
                      d="M121.49,34.68h15.12c.42,0,.76-.34.76-.76s-.34-.76-.76-.76h-15.12c-.42,0-.76.34-.76.76s.34.76.76.76Z"/>
            </g>
            <g>
                <path class="cls-29"
                      d="M293.93,152.1c12.94,0,23.46-11.81,23.46-26.33s-10.53-26.33-23.46-26.33-23.46,11.81-23.46,26.33,10.52,26.33,23.46,26.33ZM279.41,135.17c-.31-.6-.99-.81-1.53-.46l-2.87,1.86c-1.32-2.9-2.13-6.13-2.29-9.55h3.32c.62,0,1.12-.56,1.12-1.25s-.5-1.25-1.12-1.25h-3.32c.16-3.42.97-6.66,2.29-9.55l2.87,1.86c.53.35,1.22.14,1.53-.46.31-.6.13-1.37-.41-1.71l-2.87-1.86c1.62-2.79,3.75-5.18,6.23-6.99l1.65,3.22c.31.6.99.81,1.53.46.54-.35.72-1.11.41-1.71l-1.66-3.22c2.58-1.48,5.46-2.39,8.51-2.57v3.73c0,.69.5,1.25,1.12,1.25s1.12-.56,1.12-1.25v-3.73c3.05.18,5.93,1.09,8.51,2.57l-1.66,3.22c-.31.6-.13,1.37.41,1.71.53.35,1.22.14,1.53-.46l1.66-3.22c2.48,1.82,4.61,4.2,6.23,6.99l-2.87,1.86c-.54.35-.72,1.11-.41,1.71.31.6,1,.81,1.52.46l2.87-1.86c1.32,2.9,2.13,6.13,2.29,9.56h-3.32c-.62,0-1.12.56-1.12,1.25s.5,1.25,1.12,1.25h3.32c-.16,3.43-.97,6.66-2.29,9.55l-2.87-1.86c-.53-.34-1.22-.14-1.52.46-.31.6-.13,1.37.41,1.71l2.87,1.86c-1.62,2.79-3.74,5.17-6.23,6.99l-1.66-3.22c-.31-.6-.99-.81-1.53-.46-.54.35-.72,1.11-.41,1.71l1.66,3.22c-2.58,1.48-5.46,2.39-8.51,2.57v-3.73c0-.69-.5-1.25-1.12-1.25s-1.12.56-1.12,1.25v3.73c-3.05-.18-5.93-1.09-8.51-2.57l1.66-3.22c.31-.6.13-1.37-.41-1.71-.53-.34-1.22-.14-1.53.46l-1.65,3.22c-2.48-1.82-4.61-4.2-6.23-6.99l2.87-1.86c.53-.35.72-1.11.41-1.71Z"/>
                <path class="cls-29"
                      d="M289.27,122.31c-.58.99-.93,2.18-.93,3.45,0,3.46,2.51,6.27,5.59,6.27s5.59-2.81,5.59-6.27c0-1.28-.34-2.46-.93-3.45l7.3-8.2c.44-.49.44-1.28,0-1.77s-1.14-.49-1.58,0l-7.31,8.2c-.88-.66-1.94-1.04-3.08-1.04s-2.2.38-3.08,1.04l-2.93-3.28c-.44-.49-1.14-.49-1.58,0-.44.49-.44,1.28,0,1.77l2.93,3.28ZM293.93,122c1.85,0,3.35,1.69,3.35,3.76s-1.5,3.76-3.35,3.76-3.35-1.69-3.35-3.76,1.5-3.76,3.35-3.76Z"/>
            </g>
            <g>
                <path class="cls-29"
                      d="M298.08,0c-16.03,0-29.07,13-29.07,28.8,0,3.84,3.18,6.86,6.93,6.86s6.92-3.05,6.92-6.86c0-8.3,6.88-15.09,15.22-15.09,9.23,0,15.22,7.54,15.22,15.08,0,5.84-3.3,11.04-8.54,13.57-8.38,4.06-13.6,11.98-13.6,20.65v4.18c0,3.78,3.1,6.86,6.92,6.86s6.92-3.08,6.92-6.86v-4.18c0-3.4,2.23-6.58,5.83-8.33,10.03-4.85,16.28-14.77,16.31-25.88h0c0-15.88-13.04-28.81-29.07-28.81ZM309.62,52.23c-4.55,2.21-7.38,6.34-7.38,10.8v4.18c0,2.27-1.86,4.11-4.15,4.11s-4.15-1.85-4.15-4.11v-4.18c0-7.62,4.62-14.59,12.04-18.19,6.18-2.99,10.05-9.13,10.1-16.03,0-9.83-8.07-17.83-18-17.83-9.94-.27-18.25,8.55-17.99,17.98.06,2.25-1.91,3.96-4.15,3.96s-4.16-1.89-4.16-4.28c0-14.13,11.86-25.89,26.3-25.89s26.3,11.69,26.3,26.06c-.03,10.06-5.68,19.04-14.76,23.43Z"/>
                <path class="cls-29"
                      d="M298.08,76.81c-3.82,0-6.92,3.07-6.92,6.86s3.1,6.86,6.92,6.86,6.92-3.07,6.92-6.86-3.1-6.86-6.92-6.86ZM298.08,87.78c-2.29,0-4.15-1.85-4.15-4.12s1.86-4.11,4.15-4.11,4.15,1.85,4.15,4.11-1.86,4.12-4.15,4.12Z"/>
            </g>
            <g>
                <path class="cls-29"
                      d="M230.65,172.27h-2.54c-.24-.77-.55-1.51-.93-2.21l1.82-1.82c.26-.26.3-.66.09-.96-1.21-1.78-2.72-3.29-4.49-4.49-.3-.2-.7-.16-.96.09l-1.82,1.82c-.69-.38-1.43-.69-2.2-.93v-2.54c0-.35-.25-.66-.59-.74-1.93-.43-4.43-.43-6.37,0-.35.07-.59.38-.59.74v2.54c-.78.23-1.51.55-2.2.93l-1.82-1.82c-.25-.26-.66-.29-.96-.09-1.77,1.21-3.28,2.72-4.49,4.49-.2.3-.16.7.09.96l1.82,1.82c-.38.7-.69,1.43-.93,2.21h-2.54c-.35,0-.65.25-.74.6-.4,1.63-.45,4.46,0,6.36.08.35.38.6.74.6h2.54c.24.77.55,1.51.93,2.2l-1.82,1.82c-.26.26-.29.66-.09.96,1.21,1.78,2.72,3.29,4.49,4.49.3.2.71.17.96-.09l1.82-1.82c.69.38,1.43.69,2.2.93v2.54c0,.35.25.66.59.74,1.72.41,4.47.44,6.37,0,.34-.08.59-.38.59-.74v-2.54c.78-.23,1.51-.55,2.2-.93l1.82,1.82c.25.26.66.3.96.09,1.77-1.2,3.28-2.72,4.49-4.49.2-.3.17-.7-.09-.96l-1.82-1.82c.38-.7.69-1.43.93-2.2h2.54c.35,0,.66-.25.74-.6.39-1.88.47-4.12,0-6.36-.07-.35-.38-.6-.74-.6ZM230.02,178.31h-2.49c-.35,0-.65.24-.73.57-.26,1.03-.66,1.99-1.21,2.87-.19.3-.14.69.11.93l1.78,1.79c-.91,1.23-1.99,2.31-3.22,3.22l-1.78-1.79c-.25-.25-.64-.29-.93-.11-.88.55-1.81.94-2.86,1.21-.34.08-.57.39-.57.73v2.49c-1.4.23-3.13.23-4.53,0v-2.49c0-.35-.24-.65-.57-.73-1.05-.26-1.99-.66-2.86-1.21-.3-.18-.69-.14-.93.11l-1.78,1.79c-1.23-.91-2.31-1.99-3.22-3.22l1.78-1.79c.25-.25.29-.64.11-.93-.54-.87-.95-1.84-1.21-2.87-.08-.34-.38-.57-.73-.57h-2.49c-.23-1.44-.22-3.34,0-4.53h2.49c.35,0,.65-.24.73-.57.26-1.03.66-1.99,1.21-2.87.19-.3.14-.69-.11-.93l-1.78-1.79c.91-1.23,1.99-2.31,3.22-3.22l1.78,1.79c.25.25.64.29.93.11.88-.55,1.81-.94,2.86-1.21.34-.08.57-.39.57-.73v-2.49c1.4-.23,3.13-.23,4.53,0v2.49c0,.35.24.65.57.73,1.05.26,1.98.66,2.86,1.21.3.19.69.15.93-.11l1.78-1.79c1.23.91,2.31,1.99,3.22,3.22l-1.78,1.79c-.25.25-.29.64-.11.93.54.87.95,1.84,1.21,2.87.08.34.38.57.73.57h2.49c.23,1.34.21,3.31,0,4.53Z"/>
                <path class="cls-29"
                      d="M215.85,167.74c-4.58,0-8.31,3.73-8.31,8.31s3.73,8.31,8.31,8.31,8.31-3.73,8.31-8.31c0-4.58-3.73-8.31-8.31-8.31ZM215.85,182.84c-3.75,0-6.8-3.05-6.8-6.8s3.05-6.8,6.8-6.8,6.8,3.05,6.8,6.8-3.05,6.8-6.8,6.8Z"/>
            </g>
        </g>
    </g>
</svg>