<?xml version="1.0" encoding="UTF-8"?>
<svg id="Layer_1" data-name="Layer 1" xmlns="http://www.w3.org/2000/svg" viewBox="0 0 506.63 526.45">
    <defs>
        <style>
            .cls-1 {
            fill: #4599a0;
            }

            .cls-1, .cls-2, .cls-3, .cls-4, .cls-5, .cls-6, .cls-7, .cls-8, .cls-9, .cls-10, .cls-11, .cls-12, .cls-13,
            .cls-14, .cls-15, .cls-16, .cls-17, .cls-18, .cls-19, .cls-20, .cls-21, .cls-22, .cls-23, .cls-24, .cls-25,
            .cls-26, .cls-27, .cls-28, .cls-29, .cls-30, .cls-31, .cls-32, .cls-33, .cls-34, .cls-35, .cls-36, .cls-37,
            .cls-38, .cls-39 {
            fill-rule: evenodd;
            }

            .cls-2 {
            fill: #3a3b3f;
            }

            .cls-3 {
            fill: #cce7d3;
            }

            .cls-40 {
            fill: #d4d2d3;
            }

            .cls-41 {
            fill: #333;
            }

            .cls-4 {
            fill: #fbc4ac;
            }

            .cls-5 {
            fill: #363638;
            }

            .cls-6 {
            fill: #59584c;
            }

            .cls-7, .cls-42, .cls-35 {
            fill: #424243;
            }

            .cls-8 {
            fill: #e6e7e7;
            }

            .cls-9 {
            fill: #3b3d3f;
            }

            .cls-10 {
            fill: #efb9a3;
            }

            .cls-11 {
            fill: #6d321f;
            }

            .cls-12 {
            fill: #fed09d;
            }

            .cls-13 {
            fill: #fff;
            }

            .cls-14 {
            fill: #43535b;
            }

            .cls-15 {
            fill: #343334;
            }

            .cls-16 {
            fill: #3c4951;
            }

            .cls-17 {
            fill: #b7d6c2;
            }

            .cls-18 {
            fill: #ebbead;
            }

            .cls-19 {
            fill: #9f9e9f;
            }

            .cls-20 {
            fill: #48a4ad;
            }

            .cls-21 {
            fill: #ebb194;
            }

            .cls-22 {
            fill: #fbd2c1;
            }

            .cls-23 {
            fill: #fcc9b3;
            }

            .cls-24 {
            fill: #bdd1d3;
            }

            .cls-25 {
            fill: #f9aa8f;
            }

            .cls-26 {
            fill: #231f20;
            }

            .cls-43 {
            fill: #e9e9e9;
            }

            .cls-27 {
            fill: #d7b4a6;
            }

            .cls-28 {
            fill: #994f3d;
            }

            .cls-29 {
            fill: #f7c081;
            }

            .cls-30 {
            fill: #808184;
            }

            .cls-31 {
            fill: #929497;
            }

            .cls-32 {
            fill: #a35843;
            }

            .cls-33 {
            fill: #5a5b5c;
            }

            .cls-34 {
            fill: #6e6f71;
            }

            .cls-35 {
            stroke: #231f20;
            stroke-miterlimit: 2.61;
            stroke-width: .22px;
            }

            .cls-36 {
            fill: #f2c0aa;
            }

            .cls-37 {
            fill: #4b555c;
            }

            .cls-38 {
            fill: #3a3a39;
            }

            .cls-39 {
            fill: #f2cab9;
            }
        </style>
    </defs>
    <g id="Layer_1-2" data-name="Layer 1-2">
        <path class="cls-14"
              d="M361.32,175.25c-2.99,2.1-18.65,6.77-18.65,6.77,0,0-3.38,2.29-2.49,15.26s9.95,25.11,12.97,27.89c1.54,1.42,3.14,2.49,4.3,2.44,6.4-.24,13.57-13.09,14.53-19.67,2.08-14.29-10.66-32.69-10.66-32.69Z"/>
        <path class="cls-22"
              d="M371.54,194.82c-8.06,5.66-25.14,18.34-46.7,32.65-21.57,19.51-45.92,36.28-65.58,46.74-1.44.76-2.81,3.28-3.99,4.21-10.76,11.11-26.58,1.39-33.11-3.15-15.61-10.85-19.06-9.72-16.2-14.55,2.86-4.83-3.97-11.22,8.46-6.92,12.43,4.31,19.01,7.09,27.41,7.9,4.83-.92,41.36-29.78,68.05-48.98,25.18-22.74,48.01-37.81,47.67-38.2-1.1-1.29,13.99,20.3,13.99,20.3h0Z"/>
        <path class="cls-20"
              d="M406.58,159.06c-8.88-11.37-16.13-9.63-28.56-4.3s-36.22,27.59-36.22,27.59c29.1,2.91,21.65,44.4,15.65,45.26,3.76,2.37,66.64-46.14,49.13-68.55h0Z"/>
        <path class="cls-1"
              d="M394.21,150.7c-2.51-.29-5.15.11-8.08.98-1.81,1.98-3.89,4.61-6.37,8.07-7.03,9.81-9.17,35.07-11.94,43.91-1.01,3.23-2.95,6.7-5,9.79-.62,7.68-3.1,13.83-5.37,14.16,1.86,1.17,18.17-10.1,32.07-24.5,3.75-17.67,4.53-42.46,4.7-52.41h-.01Z"/>
        <path class="cls-7"
              d="M291.88,526.45c6.02,0,10.92-4.91,10.92-10.92s-4.91-10.92-10.92-10.92-10.92,4.91-10.92,10.92,4.91,10.92,10.92,10.92Z"/>
        <path class="cls-7"
              d="M461.69,526.45c6.02,0,10.92-4.91,10.92-10.92s-4.91-10.92-10.92-10.92-10.92,4.91-10.92,10.92,4.91,10.92,10.92,10.92Z"/>
        <polygon class="cls-34"
                 points="367.11 479.86 377.06 479.86 387 479.86 381.32 505.59 377.06 505.59 372.79 505.59 367.11 479.86"/>
        <path class="cls-5"
              d="M378.48,476.28l11.7,3.03,77.06,12.54c6.36,1.69,3.07,14.7-1.78,13.86-.89-.16-88.76-8.11-88.76-8.11,0,0-87.16,7.96-88.05,8.11-4.84.84-8.13-12.17-1.78-13.86l76.35-12.54,11.7-3.03c.56.16,1.12.21,1.78.24.65-.03,1.22-.08,1.78-.24h0Z"/>
        <path class="cls-7"
              d="M378.48,476.28l11.7,3.03,77.06,12.54c1.79.47,2.81,1.84,3.25,3.55-.69,3.24-2.68,6.1-5.03,5.69-.89-.16-88.76-8.11-88.76-8.11,0,0-87.16,7.96-88.05,8.11-2.35.41-4.34-2.45-5.03-5.69.44-1.7,1.47-3.07,3.25-3.55l76.35-12.54,11.7-3.03c.56.16,1.12.21,1.78.24.65-.03,1.22-.08,1.78-.24h0Z"/>
        <path class="cls-7"
              d="M377.49,526.45c6.02,0,10.92-4.91,10.92-10.92s-4.91-10.92-10.92-10.92-10.92,4.91-10.92,10.92,4.91,10.92,10.92,10.92Z"/>
        <rect class="cls-40" x="369.29" y="366.58" width="14.03" height="72.73"/>
        <rect class="cls-43" x="369.3" y="366.58" width="7.02" height="72.73"/>
        <rect class="cls-42" x="365.62" y="408.4" width="21.38" height="71.46"/>
        <path class="cls-7"
              d="M411.12,365.13l12.54,5.02s-1.47,3.1-1.47,3.84,17.11,6.79,17.11,6.79c0,0,2.07.3,3.61-2.07,1.55-2.36,1.25-4.13.81-4.43s-16.47-8.63-17.07-8l-2.32,2.4-11.36-4.57-1.84,1.03h0Z"/>
        <path class="cls-7"
              d="M464.69,236.41c-6.66,37.3-20.75,71.75-34.82,106.76l-13.5-4.97,36.59-102.32,11.72.53h.01Z"/>
        <path class="cls-14"
              d="M459.13,336.59c62.15,36.09-218.91,52.71-179.06-2.49,1.65-2.28,170.11-2.71,179.06,2.49Z"/>
        <path class="cls-16"
              d="M276.22,344.28c-.02-3.08,1.16-6.46,3.85-10.18,1.65-2.28,170.11-2.71,179.06,2.49,9.01,11.91-23.25,19.72-56.5,21.37-43.18,2.14-92.41-4.17-100.35-5.34-10.84-1.6-19.46-4.84-26.05-8.33h-.01Z"/>
        <path class="cls-26" d="M389.45,58.49c-.94.06-33.84,11.35-33.79,10.73s.88,9.01.88,9.01l32.55-13.49.36-6.25h0Z"/>
        <path class="cls-35" d="M44.28,281.14c-2.45,4.9-2.43,27.48,3.03,31.4l18.02-1.95-1.33-22.38-19.72-7.06h0Z"/>
        <path class="cls-6"
              d="M58.96,264.27c-3.91-2.84-10.66-12.05-17.06-25.2-6.4-13.15-4.26-37.48-14.57-50.98-10.3-13.5-17.76-10.84-21.32-8.35-.21.15-4.84,115.34-2.13,123.99,1.78,5.68,3.55,7.46,11.37,6.39,7.82-1.07,39.08-4.62,39.08-4.62l27.11-3.92,2.57-29.14-25.06-8.18h0Z"/>
        <path class="cls-29"
              d="M18.07,179.4c-5.55-3.06-9.68-1.32-12.05.34-.21.15-4.84,115.34-2.13,123.99,1.78,5.68,3.55,7.46,11.37,6.39,1.36-.18,3.42-.44,5.9-.75.46-1.65.95-3.54,1.53-5.69,3.38-12.44,4.26-36.42,3.55-49.03-.71-12.61,2.13-20.07.35-40.33-1.77-20.2-8.49-34.86-8.52-34.93h0Z"/>
        <path class="cls-12"
              d="M.13,244.89c-.69,21.73,1.59,54.9,3.2,60.04,1.61,5.14,2.88,6.64,7.53,6.69,14.96-9.09,4.24-129.35-4.19-131.91-3.32-1.01-4.95,15.38-6.53,65.18h-.01Z"/>
        <path class="cls-38"
              d="M388.03,293.71c-6.4-1.42-168.84-17.06-174.8-15.63-5.96,1.42-158.28-17.39-158.28-17.39,12.2,16.57-7.64,51.85-7.64,51.85,0,0,156.5-.89,160.05-.89s88.64,13.68,88.64,13.68c0,0,67.5,5.68,71.06,4.26,3.55-1.42,20.97-35.88,20.97-35.88Z"/>
        <path class="cls-6"
              d="M198.93,426.31c-1.42,3.2-28.78,40.86-30.2,42.63-17.38,21.72-58.26-57.58-61.11-62.53-8.17-14.21-13.86-36.95-7.46-42.63,6.39-5.68,15.99-.71,30.2,14.21,14.21,14.92,28.78,26.29,28.78,26.29,0,0,11.01-.71,15.27-2.85,4.26-2.13,11.72,2.13,13.86,3.2,2.13,1.07,10.66,21.67,10.66,21.67h0Z"/>
        <path class="cls-29"
              d="M173.95,461.84c-2.84,3.9-4.86,6.65-5.22,7.1-17.38,21.72-58.26-57.58-61.11-62.53-8.17-14.21-13.86-36.95-7.46-42.63,3.15-2.8,7.08-3.01,11.96-.72,6.78,6.7,17.39,18.05,25.67,29.98,12.08,17.41,28.25,37.3,32.51,53.47,1.64,6.21,2.91,11.23,3.65,15.33h0Z"/>
        <path class="cls-12"
              d="M168.73,468.94c-17.38,21.72-58.26-57.58-61.11-62.53-8.17-14.21-13.86-36.95-7.46-42.63l.03-.02c3.62,2.08,7.38,4.95,10.98,8.91,15.66,12.39,60.46,86.63,57.56,96.28h0Z"/>
        <path class="cls-7"
              d="M391.32,304.27c15.96,11.13,33.28,35.94,13.49,48.1-19.8,12.16-133.39-9.55-133.39-9.55,0,0-55.42,73.19-63.24,88.82s-26.36,19.33-26.36,19.33c-1.95-20.69-.31-42.65-22.67-46.69,0,0,70.35-95.21,89.53-102.32,19.18-7.11,142.64,2.31,142.64,2.31h0Z"/>
        <path class="cls-9"
              d="M253,300.9c2.57-.45,5.79-.79,9.53-1.04,27.93,2.3,84.12,7.07,86.83,8.48,3.61,1.87,13.68,12.29,13.68,12.29,0,0-85.8-9.24-89.71-11.37-2.6-1.42-13.41-5.68-20.33-8.36h0Z"/>
        <path class="cls-14"
              d="M456.13,159.35c3.91,1.07,34.11,1.42,43.7,12.79,9.59,11.37,9.59,24.87-3.55,52.94-13.15,28.07-38.5,24.58-38.5,24.58,0,0-43.22-14.64-57.07-22.45-13.86-7.82-18.47-31.98-10.3-46.54s65.73-21.32,65.73-21.32h-.01Z"/>
        <path class="cls-16"
              d="M456.13,159.35c3.55.97,28.77,1.35,40.57,9.92,2.42,2.91,4.01,5.96,4.53,8.9,2.31,12.97-3.02,36.77-14.39,50.81-10.16,12.54-23.29,16.14-35.98,18.29-3.93-1.38-9.21-3.25-14.93-5.35-15.77-16.29-37.2-59.48-37.2-59.48,0,0,12.18-9.59,26.91-17.73,15.67-3.62,30.49-5.36,30.49-5.36h0Z"/>
        <path class="cls-3"
              d="M431.8,147.9c-2.13-.36-43.86,3.12-45.64,3.12s-16.54,45.91-21.51,72.92c-4.97,27-5.7,35.84-19.91,55.74-3.84,5.38-9.74,6.42-8.47,8.56,0,0,50.08,8.42,78.12,59.35,8.46,15.36,60.74-146.74,60.4-157.03-.71-21.32,2.13-29.84-5.68-31.98-7.82-2.13-37.3-10.66-37.3-10.66v-.02Z"/>
        <path class="cls-20"
              d="M431.8,147.9c-1.07-.18-12.86.07-23.8.9-1.13.08-2.19.15-2.59.79-4.4,4.65-6.36,9.37-4.79,12.99,3.04,7.04,18.24,7.24,33.94.45,6.32-2.73,11.75-6.17,15.8-9.78-.38-1.11-3.64-2.45-5.55-3-6.99-2.01-13.01-2.35-13.01-2.35h0Z"/>
        <path class="cls-17"
              d="M338.18,285.44c-1.56,1.05-2.49,1.8-1.91,2.78,0,0,50.08,8.42,78.12,59.35,7.23,13.14,46.49-103.44,57.51-143.97-1.42-7.64-2.62-12.52-2.62-12.52,0,0-12.88,51.67-25.62,70.17-12.75,18.5-16.58,18.93-23.83,21.91s0,26.01-10.23,25.15-34.69-22.59-52.01-23.45c-7.35-.37-14.09,0-19.41.56v.02Z"/>
        <path class="cls-14"
              d="M442.33,185.05c-2.99,2.1-18.65,6.77-18.65,6.77,0,0-3.38,2.29-2.49,15.26s9.95,25.11,12.97,27.89c1.54,1.42,3.14,2.49,4.3,2.44,6.4-.24,13.57-13.09,14.53-19.67,2.08-14.29-10.66-32.69-10.66-32.69Z"/>
        <path class="cls-32"
              d="M467.78,87.28c.75,3.5,1.95,13.32-3.03,22.02-4.97,8.7-12.82,17.13-12.82,17.13l1.24-6.57s-.42.35-3.38,3.55-7.46,5.51-7.46,5.51c0,0,.36-8.35.89-17.76.53-9.41,1.42-19.18,1.42-19.18l23.13-4.7h0Z"/>
        <path class="cls-18"
              d="M450.63,100.65s-8.17,27-8.53,37.3c-.36,10.3.71,16.7.71,16.7,0,0-5.33,5.33-18.47,8.53-13.15,3.2-17.05.36-18.47-3.55s-.36-7.82,2.13-8.53c2.49-.71,2.49.71,8.88-13.15s6.39-20.96,6.39-20.96c0,0,27.36-16.34,27.36-16.34Z"/>
        <path class="cls-22"
              d="M381.55,31.06c-19.3,20.28-17.13,52.04-4.99,78.37,1.02,2.21,9.97,19.08,11.04,20.84,6.94,11.47,11.89,14.05,19.34,14.1,12.61.08,29.42-11.57,41.97-23.93,10.75-10.58,9.84-14.98,15.6-26.98,5.79-12.06,21.33-32.96,13.47-51.02-7.85-18.06-16.63-26.6-47.55-27.01-30.92-.41-48.89,15.63-48.89,15.63h0Z"/>
        <path class="cls-23"
              d="M454.9,72.29c-.53.18-18.03,9.42-18.03,9.42,0,0,.09,15.72-2.66,21.41-2.75,5.68-19.53,6.8-23.89,5.4s-13.33-26.1-13.33-26.1l-1.35,4.09s-2.65-4-5.93-4.09-8.14,4.62-8.14,4.62l-.89-11.01s41.5,4.81,43.03,3.87c1.53-.94,31.52-13.7,32.8-13.38,1.27.32-1.6,5.77-1.6,5.77h0Z"/>
        <path class="cls-23"
              d="M381.54,31.07c-7.43,7.81-11.67,17.33-13.39,27.58,32.77,18.05,70.94-40.15,90.27-12.54,3.73,5.33.36,11.9-.44,12.7,0,0,17.73-21.26-7.9-41.47-5.35-1.18-11.77-1.81-19.63-1.91-26.57-.35-43.58,11.44-47.84,14.77h-.02c-.35.3-.7.59-1.04.87h0Z"/>
        <path class="cls-23"
              d="M391.89,136.56c4.92,6.19,9.22,7.78,15.06,7.82,12.61.08,29.42-11.57,41.97-23.93,10.75-10.58,9.84-14.98,15.6-26.98l-4.37-1.9s-6.86,20.92-14.58,27.57c-7.73,6.65-24.34,16.87-32.15,19.53-7.82,2.66-18.54.59-21.53-2.1h0Z"/>
        <path class="cls-32"
              d="M443.57,37.57c-29.51,6.03-34.04,13.99-53.19,20.01-16.25,3.49-54.15-12.45-51.41-28.87,1.34,7.8,11.67,11.31,18.65,12.28-5.26-5.74-14.44-20.27-13.98-28.53,27.86,20.81,58.64-28.41,107.8-6.89,14.95,6.54,22.25,21.17,22.25,21.17,0,0,9.93-2.25,13.46,7.91s5.45,36-3.7,54.28c-15,29.95-25.75,33.95-25.73,33.94,1.93-1.71,3.82-6.33,5.27-9.42,1.44-3.09,1.77-4.14,1.77-4.14-2.84,3.41-3.75,3.96-6,5.61s-5.18,3.74-3.34,1.88,3.68-5.06,5.71-12.13c2.04-7.07,3.54-11.67,3.54-11.67,0,0,4.06-1.7,7.21-5.14,25.31-27.66-1.55-40.97-9.4-21.93-1.54,3.74-3.92,18.27-3.03,22.15.9,3.88,1.18,5.75.31,6.91-3.79,5.09-11.95,10.51-11.9,10.43,11.58-17.34,2.43-31.52,4.78-38.46,3.28-9.68.82-4.15,4.27-13.69,3.45-9.53-13.34-15.7-13.34-15.7h0Z"/>
        <path class="cls-28"
              d="M489.99,52.28c.52,11.51-.94,25.5-6.53,36.66-15,29.95-25.75,33.95-25.73,33.94,6.35-3.43,18.43-22.65,20.83-30,2.26-6.96,2.72-11.84,1.81-17.21,5.13-11.24.18-18.19-6.07-18.63-4.41-9.93-9.05-13.9-9.05-13.9,0,0,3.73.53,8.7,5.15,4.97,4.62,10.48,17.76,10.48,16.7s1.6-9.06-2.49-17.94-8.09-12.94-8.09-12.94c4.24,3.95,14.08,12.61,16.16,18.18h-.02Z"/>
        <path class="cls-28"
              d="M357.62,40.99c-5.26-5.74-14.44-20.27-13.98-28.53,26,34.49,46.13,24.66,53.16,26.37,0,0-18.21,5.47-39.18,2.16Z"/>
        <path class="cls-28"
              d="M443.57,37.57c-29.51,6.03-34.04,13.99-53.19,20.01-16.03,3.45-53.14-12.02-51.5-28.21.07.21,1.62,4.78,6.17,10.89,4.66,6.26,15.46,10.26,29.44,13.19,13.99,2.93,45.43-16.12,62.62-20.12s32.1-5.63,31.18-4.8c-.93.83-2.66,1.47-8.13,4.13-5.46,2.66-4.66,5.86-4.66,5.86,0,0,4.13,5.86,5.06,13.06s-1.73,9.06-3.6,18.92.93,16.39-.93,23.05c-1.86,6.66-8.12,11.84-8.12,11.84h0s-.05.03-.04.02c9.86-24.4,2.43-31.52,4.78-38.46,3.28-9.68.82-4.15,4.27-13.69,3.45-9.53-13.34-15.7-13.34-15.7h0Z"/>
        <path class="cls-37"
              d="M380.14,71.64c-6.57-1.02-24.48-2.42-24.48-2.42,0,0,1.49,21.89,5,29.53,3.52,7.64,12.96,9.83,17.67,9.51,7.02-.48,7.21-15.06,6.46-25.75.28-2.97,7.43-2.93,8.33.55.42,5.26,1.3,11.66,3.18,16.6,3.84,10.14,15.7,12.95,23.71,12.56,8.01-.39,13.65-7.87,14.27-14.84.63-6.98-.08-17.33-.08-17.33l33.16-16.57-.18-5.28-34.32,16.11c-.7-.23-27.65-.79-35.45-.95-2.1-.04-4.66-.57-4.66,1.04v.61c-1.75-1.52-7.2-1.41-8.64.15-.03-.34-.11-.96-.18-1.56-.23-1.76-1.82-1.66-3.8-1.96h.01Z"/>
        <path class="cls-24"
              d="M395.79,76.26s-1.14,12.21,1.41,19.45c5.7,16.22,30.12,20,33.76,1.63,1.17-5.91-1.07-18.05-1.13-18.83-.05-.78-34.04-2.25-34.04-2.25Z"/>
        <path class="cls-24"
              d="M380.52,74.13c-1.3-.54-23.37-3.17-23.37-3.17,0,0,1.45,17.9,2.81,21.67,2.44,6.75,5.58,11.3,13.54,12.75,11.46,2.08,7.78-20.67,7.03-31.25h-.01Z"/>
        <path class="cls-25"
              d="M387.16,89.46c-.3,2.54-1.78,9.73-3.19,12.19s-2.88,3.98-2.28,4.73,2.57,1.8,3.88,2.65c1.32.86,10.1.26,10.1.26,0,0-3.62-2.27-6.44-3.11-2.81-.83-5.87-.55-5.87-.55,0,0,2.55-4.19,3.25-7.79.7-3.59.53-8.39.53-8.39h.02Z"/>
        <path class="cls-22"
              d="M483.31,62.92c1.51,7.61-1.11,15.55-5.69,21.78-4.58,6.22-7.21,8-11.24,8.42-4.02.43-4.75-3.21-5.36-11.07-2.51-32.17,19.95-30.93,22.29-19.13h0Z"/>
        <g>
            <path class="cls-27"
                  d="M423.93,113.21c-3.68,11.89-11.72,18.35-22.38,18.9-8.81.46-13.57-4.8-17.48-15.75-.35-.99,17.25,9.18,39.85-3.15h.01Z"/>
            <path class="cls-11"
                  d="M423.93,113.21c-.42,1.37-.91,2.67-1.45,3.9-4.19,8.91-11.42,13.75-20.58,14.23-8.58.44-13.31-4.53-17.17-14.9,3.39,1.09,19.36,7.59,39.19-3.23h.01Z"/>
            <path class="cls-8"
                  d="M412.93,127.78c-3.2,1.89-6.87,2.96-10.92,3.17-4.23.22-7.53-.88-10.24-3.3,3.49.61,9.71,1.47,15.05.95,2.48-.24,4.51-.53,6.12-.82h0Z"/>
            <path class="cls-8"
                  d="M422.97,114.07c-.64,2.05-1.4,3.9-2.48,5.74-7.06,3.59-22.78,6.09-32.43,2.41-1-1.75-1.44-2.95-2.3-5.28,3.36,1.77,18.96,6.67,37.21-2.87Z"/>
        </g>
        <path class="cls-39"
              d="M312.91,273.41c-6.41-3.09-19.01-13.5-22.56-14.92s-11.72-6.22-12.43-3.2,6.97,8.08,7.55,9.51,15.63,10.65,15.63,10.65l11.82-2.04h-.01Z"/>
        <path class="cls-22"
              d="M452.55,204.62c-8.06,5.66-25.14,18.34-46.7,32.65-21.57,19.51-45.92,36.28-65.58,46.74-1.44.77-2.81,3.28-3.99,4.21-10.76,11.11-26.58,1.39-33.11-3.15-15.61-10.85-19.06-9.72-16.2-14.55s-3.97-11.22,8.46-6.92c12.43,4.31,19.01,7.09,27.41,7.9,4.83-.92,41.36-29.78,68.05-48.98,25.18-22.74,48.01-37.81,47.67-38.2-1.1-1.29,13.99,20.3,13.99,20.3h0Z"/>
        <path class="cls-20"
              d="M487.58,168.86c-8.88-11.37-16.13-9.63-28.56-4.3s-36.22,27.59-36.22,27.59c29.1,2.91,21.03,45.06,14.77,45.59,3.79,1.83,67.52-46.48,50.01-68.89h0Z"/>
        <polygon class="cls-30"
                 points="194.18 275.43 193.93 267.83 262.53 274.03 363.18 308.36 315.89 308.29 280.47 303.57 194.18 275.43"/>
        <polygon class="cls-33" points="242.25 275.35 245.61 272.08 320.09 297.66 271.1 292.58 242.25 275.35"/>
        <polygon class="cls-34" points="194.19 275.62 279.8 307.23 280.59 299.71 193.93 267.83 194.19 275.62"/>
        <path class="cls-7" d="M273.04,301.48l.67-7.99-73.41-25.49c-2.21-.04-2.84,5.68-.73,6.46l73.47,27.03h0Z"/>
        <path class="cls-33" d="M273.71,293.49s-2.29.61-2.52,4.01c-.22,3.4,1.28,3.81,1.85,3.98l.67-7.99h0Z"/>
        <polygon class="cls-33"
                 points="285.92 296.67 270.76 203.38 180.71 170.24 175.95 172.96 190.54 266.57 280.53 299.32 285.92 296.67"/>
        <path class="cls-10"
              d="M476.8,62.16c5.1,7.55,1.91,21.17-6.22,25.57-4.93,2.67-5.63-3.71-4.99-5.22s3.13-5.46,2.39-6.53-2.74.11-3.4-.88c-2.58-3.86,7.92-19.3,12.22-12.95h0Z"/>
        <path class="cls-21"
              d="M466.96,87.9c-1.63-1.21-1.8-4.38-1.37-5.39.64-1.51,3.13-5.46,2.39-6.53s-2.74.11-3.4-.88c-1.65-2.47,2.06-9.69,6.07-12.9.38.24.73.59,1.04,1.06,4.78,7.07,2.28,19.47-4.74,24.63h0Z"/>
        <g>
            <path class="cls-22"
                  d="M277.79,261.53c-6.64,6.01-13.06,19.39-7.59,18.25,5.75-1.2,8.47-5.66,13.94-10.23,2.1.71,6.48,3.51,8.12,2.82,1.63-.69,7.1-6.57,3.82-8.26-8.25-4.26-12.61-7.72-18.28-2.58h-.01Z"/>
            <path class="cls-36"
                  d="M268.23,277.06c-.33,1.94.19,3.09,1.96,2.72,5.75-1.2,8.47-5.66,13.94-10.23,1.53.52,4.27,2.14,6.28,2.72,2.24-2,3.04-3.65,3.04-3.65-.94-.37,4.07-3.69,3.33-3.97-9.31-3.66-16.57,6.13-20.74,9.12-4.17,2.99-6.4,3.06-7.81,3.28h0Z"/>
        </g>
        <g>
            <path class="cls-22"
                  d="M285.36,266.28c-6.64,6.01-13.06,19.39-7.59,18.25,5.75-1.2,8.47-5.66,13.94-10.23,2.1.71,6.48,3.51,8.12,2.82,1.63-.69,7.1-6.57,3.82-8.26-8.25-4.26-12.61-7.72-18.28-2.58h-.01Z"/>
            <path class="cls-36"
                  d="M275.8,281.81c-.33,1.94.19,3.09,1.96,2.72,5.75-1.2,8.47-5.66,13.94-10.23,1.53.52,4.27,2.14,6.28,2.72,2.24-2,3.04-3.65,3.04-3.65-.94-.37,4.07-3.69,3.33-3.97-9.31-3.66-16.57,6.13-20.74,9.12-4.17,2.98-6.4,3.06-7.81,3.28h0Z"/>
        </g>
        <path class="cls-22"
              d="M294.24,270.28c-4.44,4.04-8.96,11.59-9.56,15.53-.29,1.91,1.14,2.75,2.9,2.38,5.75-1.19,7.53-5.32,13-9.89,2.1.71,6.48,3.51,8.12,2.82,1.63-.69,7.1-6.57,3.82-8.26-8.25-4.26-12.62-7.73-18.28-2.58Z"/>
        <path class="cls-36"
              d="M284.68,285.8c-.33,1.94,1.44,3.16,3.21,2.79,5.75-1.2,6.28-4.92,11.75-9.49,1.63.53,5.94,1.75,5.62,2.14.41-.36,8.85-7.49,7.96-7.83-8.81-3.86-18.46,9.15-22.63,12.14-4.17,2.99-5.58,1.42-5.92.26h.01Z"/>
        <path class="cls-22"
              d="M305.58,275.08c-6.08,5.5-11.95,17.75-6.95,16.71,5.27-1.1,7.75-5.18,12.76-9.36,1.92.65,5.93,3.22,7.43,2.58s6.5-6.01,3.5-7.56c-7.55-3.9-11.54-7.07-16.73-2.37h0Z"/>
        <path class="cls-36"
              d="M302.27,288.29c-1.6.93-3.87,1.49-5.52,1.8-.04,1.28.52,1.99,1.88,1.7,2.29-.48,4.05-1.52,5.72-2.88.93-.76,1.83-1.62,2.77-2.54.64-.62,1.3-1.27,2.01-1.94.7-.66.08-.15.89-.82,0,0,7.37,4.17,6.29,1.03-.31-.9-5.57-4.63-5.32-4.32.25.32-1.77,2.05-3.9,3.92-.48.43-.98.85-1.45,1.27-.93.81-1.81,1.56-2.46,2.13-.27.24-.58.45-.93.65h.02Z"/>
        <polygon class="cls-33" points="362.23 315.95 363.18 308.36 280.55 299.79 279.76 307.32 362.23 315.95"/>
        <path class="cls-34" d="M285.92,296.67c-.44.18-5.33,3.04-5.33,3.04l-15.38-93.16,5.54-3.16,15.16,93.28h0Z"/>
        <path class="cls-31"
              d="M280.59,299.71c-.44.18-90.06-33.14-90.06-33.14l-14.71-93.54,89.39,33.52,15.38,93.16h0Z"/>
        <path class="cls-25" d="M409.33,133.88c-2.69.77-8.86.84-11.75.4,3.14,2.31,10.25,1.83,12.93-.73l-1.18.34h0Z"/>
        <path class="cls-4"
              d="M350.45,271.11c-8.46,6.06-13.86,9.93-13.86,9.93,0,0-2.55,3.82-6.04,6.63-1.76,1.41-3.76,2.57-5.79,2.86-4.17.59-9.13.35-11.82.15,7.31,3.2,16.39,4.73,23.34-2.45,1.01-.79,2.15-2.73,3.36-3.76.21-.18.42-.33.64-.45,19.66-10.47,44.01-27.23,65.58-46.74,2.28-1.52,4.52-3.01,6.69-4.49,4.82-3.26,9.37-6.4,13.58-9.35,6.42-4.49,12.07-8.54,16.75-11.9-.37-1.95-.91-3.88-1.64-5.71-4.65,3.38-10.64,7.7-17.39,12.57-5.2,3.75-10.85,7.82-16.7,12.02-20.18,14.51-42.66,30.63-56.7,40.69h0Z"/>
        <path class="cls-4"
              d="M342.75,208.35c-19.56,15.05-45.86,34.67-61.47,46.27,1.79.5,4.01,1.54,5.97,2.46,12.53-8.59,25.5-18.67,37.6-29.61,7.34-4.87,14.15-9.55,20.28-13.83,6.42-4.49,12.07-8.54,16.75-11.9-.45-2.33-1.12-4.61-2.08-6.74-4.42,3.58-10.34,8.2-17.04,13.36h-.01Z"/>
        <path class="cls-1"
              d="M453.13,216.44c-3.13,2.11-6.38,4.09-9.68,5.98-.53,7.33-2.76,13.51-5,14.99-.3.2-.59.31-.88.34.31.15,1.02-.04,2.06-.52.96-.44,2.19-1.14,3.64-2.05,6.2-3.91,16.36-11.82,25.68-21.14,14.94-14.95,27.72-33.55,18.64-45.17-1.32-1.69-2.6-3.09-3.88-4.23-.54,4.03-1.39,9.26-2.7,15.37-1.38,6.45-3.97,12.12-7.43,17.17-5.22,7.63-12.43,13.86-20.45,19.27h0Z"/>
        <path class="cls-13"
              d="M369.9,90.57c3.78.2,7.73.71,11.78,1.55.04-2.6-.1-5.34-.3-8-4.53-.86-8.93-1.32-13.08-1.37-3.49-.04-6.82.19-9.91.71.34,2.83.72,5.55,1.11,7.42,3.26-.4,6.75-.5,10.4-.31Z"/>
        <path class="cls-13"
              d="M395.76,88.13c.23,2.66.66,5.35,1.44,7.57.16.45.33.89.52,1.32.78.32,1.57.64,2.35.98,7.28,3.16,13.84,7.03,19.43,11.29,2.44-.44,4.71-1.45,6.61-3.08-6.61-6.11-15.12-11.67-24.97-15.94-1.79-.78-3.59-1.49-5.38-2.15h0Z"/>
        <path class="cls-2"
              d="M374.42,338.96c-30-4.87-78.21-8.5-99.55-9.96-6.71-.46-10.76-.7-10.76-.7,0,0-43.7,71.94-59.95,88.73-2.24,2.32-4.42,4.38-6.51,6.22-7.05,6.2-13.06,9.8-17.1,11.79.5,5.17.76,10.59,1.27,15.93,0,0,18.55-3.7,26.36-19.33,7.82-15.63,63.24-88.82,63.24-88.82,0,0,2.38.46,6.52,1.2,24.42,4.38,109.94,18.75,126.87,8.35,3.83-2.35,6.27-5.18,7.6-8.29-1.72-2.9-3.51-5.65-5.35-8.26-6.21,3.65-16.17,5.81-32.63,3.14h0Z"/>
        <path class="cls-15"
              d="M47.31,312.53s156.5-.89,160.05-.89c1.19,0,11.53,1.53,24.75,3.57,3.83-3.85,7.33-7.07,10.34-9.42l-47.75-10.41s-78.35,4.15-112.9,2.16c-2.6-.15-4.95-.33-7.01-.56-3.9-.43-7.33-.81-10.34-1.17-3.74-.44-6.82-.82-9.35-1.16-1.45,4.31-3.1,8.22-4.5,11.27-1.86,4.05-3.29,6.59-3.29,6.59v.02Z"/>
        <path class="cls-19"
              d="M253.55,289.91c-26.88-20.69-44.89-58.62-44.89-101.99,0-.86,0-1.71.02-2.57l56.53,21.2,15.38,93.16c-.16.06-12-4.26-27.04-9.8h0Z"/>
        <path class="cls-28"
              d="M468.52,23.5c-32.81-32.01-61.23-17.47-79.4-9.95,21.58-6.81,51.3-8.57,68.39,8.53-49.29-15.42-39.71-4-81.71-.53-10.75.89-23.98-3.29-23.98-3.29,15.24,17.54,52.44-.16,67.77.09,10.84.18,26.11,5.86,25.22,6.04s-8.7-1.78-26.65,1.95c-17.94,3.73-23.45,5.86-34.64,5.15-11.19-.71-15.28-2.13-15.28-2.13,0,0,8.17,4.97,19.54,6.04s38.4-3.86,36.42-3.02c-6.49,2.75-16.08,7.75-58.8,14.03,21.43,14.15,81.24-26.16,103.12-22.92h0Z"/>
        <rect class="cls-41" x="341.61" y="306.49" width="2.01" height="7.38"
              transform="translate(-4.19 615.67) rotate(-83.53)"/>
        <rect class="cls-41" x="352.62" y="307.49" width="2.01" height="7.38"
              transform="translate(4.57 627.49) rotate(-83.53)"/>
    </g>
</svg>