<?xml version="1.0" encoding="UTF-8"?>
<svg id="Layer_2" data-name="Layer 2" xmlns="http://www.w3.org/2000/svg" viewBox="0 0 40 46">
    <defs>
        <style>
            .cls-1 {
            fill: #000;
            }
        </style>
    </defs>
    <g id="Layer_1-2" data-name="Layer 1">
        <path class="cls-1" d="M20.5,3.4h-1.1v9.3h1.1V3.4Z"/>
        <path class="cls-1" d="M20,3.9c-1.1,0-1.9-.9-1.9-2s.8-1.9,1.9-1.9,1.9.9,1.9,2-.8,1.9-1.9,1.9Z"/>
        <path class="cls-1" d="M38.1,14.4c-1.1,0-1.9-.9-1.9-2s.9-2,1.9-2c1.1,0,1.9.9,1.9,2s-.8,2-1.9,2Z"/>
        <path class="cls-1" d="M38.1,35.5c-1.1,0-1.9-.9-1.9-2s.9-2,1.9-2c1.1,0,1.9.9,1.9,2s-.8,2-1.9,2Z"/>
        <path class="cls-1" d="M20,46c-1.1,0-1.9-.9-1.9-2s.9-2,1.9-2,1.9.9,1.9,2-.8,2-1.9,2Z"/>
        <path class="cls-1" d="M1.9,14.4c-1.1,0-1.9-.9-1.9-2s.9-2,1.9-2,1.9.9,1.9,2-.8,2-1.9,2Z"/>
        <path class="cls-1" d="M1.9,35.5c-1.1,0-1.9-.9-1.9-2s.9-2,1.9-2,1.9.9,1.9,2-.8,2-1.9,2Z"/>
        <path class="cls-1" d="M10.7,28.4l8.7,5.1v-10.1l-8.7-5.2v10.2Z"/>
        <path class="cls-1" d="M20.6,23.4v10.2l8.7-5.1v-10.2l-8.7,5.1Z"/>
        <path class="cls-1" d="M36.8,14l-.6-1-7.7,4.4.5,1,7.8-4.4Z"/>
        <path class="cls-1" d="M38.7,14.1h-1.1v18h1.1V14.1Z"/>
        <path class="cls-1" d="M21.5,43.9l15.4-9-.7-.9-15.1,8.8.4,1.1Z"/>
        <path class="cls-1" d="M20.5,33.3h-1.1v9.1h1.1v-9.1Z"/>
        <path class="cls-1" d="M28.7,17.3l-8.7-5.1-8.7,5.1,8.7,5.1,8.7-5.1Z"/>
        <path class="cls-1" d="M20.6,23.4v10.1l8.7-5.1v-10.1l-8.7,5.1Z"/>
        <path class="cls-1" d="M19.4,23.4l-8.7-5.2v10.2l8.7,5.1v-10.1Z"/>
        <path class="cls-1" d="M11.6,17.4L3.4,12.6l-.1,1.2,7.8,4.6.5-1Z"/>
        <path class="cls-1" d="M2.5,14.1h-1.1v17.9h1.1V14.1Z"/>
        <path class="cls-1" d="M19.1,42.9l-15.6-9-.3,1,15.2,9h.1l.6-1Z"/>
        <path class="cls-1" d="M18.1,2.4L3.3,11s.5,1.1.5,1L18.8,3.4l-.7-1Z"/>
        <path class="cls-1" d="M21.9,2.4l-.6,1,14.9,8.6.6-1L21.9,2.4Z"/>
    </g>
</svg>