<?xml version="1.0" encoding="UTF-8"?>
<svg id="Layer_2" data-name="Layer 2" xmlns="http://www.w3.org/2000/svg" viewBox="0 0 387.78 316.58">
    <defs>
        <style>
            .cls-1, .cls-2 {
            opacity: .6;
            }

            .cls-3 {
            fill: #f5f6f6;
            }

            .cls-4 {
            fill: #dd897c;
            }

            .cls-5 {
            fill: #e4897b;
            }

            .cls-6, .cls-2, .cls-7, .cls-8, .cls-9, .cls-10 {
            fill: #fff;
            }

            .cls-2, .cls-7, .cls-8, .cls-11, .cls-12, .cls-9, .cls-10, .cls-13, .cls-14 {
            isolation: isolate;
            }

            .cls-15, .cls-16, .cls-17, .cls-13 {
            fill: none;
            }

            .cls-15, .cls-13 {
            stroke: #010101;
            stroke-miterlimit: 10;
            }

            .cls-18, .cls-8 {
            opacity: .4;
            }

            .cls-19 {
            fill: #a24f40;
            }

            .cls-7, .cls-20, .cls-13, .cls-14 {
            opacity: .3;
            }

            .cls-11, .cls-21, .cls-14 {
            fill: #010101;
            }

            .cls-11, .cls-10 {
            opacity: .2;
            }

            .cls-22 {
            fill: #5274b9;
            }

            .cls-17 {
            stroke: #fff;
            stroke-linecap: round;
            stroke-linejoin: round;
            stroke-width: .5px;
            }

            .cls-9, .cls-23 {
            opacity: .7;
            }

            .cls-24 {
            fill: #de5954;
            }

            .cls-25 {
            fill: #273339;
            }

            .cls-26 {
            opacity: .5;
            }
        </style>
    </defs>
    <g id="Layer_1-2" data-name="Layer 1">
        <g id="Shadow">
            <ellipse id="_Path_" data-name="&amp;lt;Path&amp;gt;" class="cls-3" cx="193.89" cy="305.26" rx="193.89"
                     ry="11.32"/>
        </g>
        <g id="Plant">
            <g>
                <path class="cls-22"
                      d="M32.48,281.8s4.75-10.36-.68-20.58c-5.43-10.22-7-12.62-3.54-14.72s5.05,8.17,5.05,8.17c0,0,2.92-7.06.51-14.45-2.41-7.39-3.92-19.43-.63-20.72,3.29-1.29.63,15.02,3.48,20.58,0,0,2.4-6.19,2.79-12.13s-.22-15.42,2.38-17.85,4.26-.75,1.71,12.35c-2.55,13.1-2.53,23.75-2.53,23.75,0,0,5.64-17.19,9.42-17.69,3.78-.5,3.78,5.06.54,9.89-3.24,4.83-9.48,13.48-10.51,17.93,0,0,6.19-12.93,11.75-8.97s-4.84,11.78-9.48,14.6-7.86,20.52-7.86,20.52l-2.39-.68Z"/>
                <path class="cls-11"
                      d="M32.48,281.8s4.75-10.36-.68-20.58c-5.43-10.22-7-12.62-3.54-14.72s5.05,8.17,5.05,8.17c0,0,2.92-7.06.51-14.45-2.41-7.39-3.92-19.43-.63-20.72,3.29-1.29.63,15.02,3.48,20.58,0,0,2.4-6.19,2.79-12.13s-.22-15.42,2.38-17.85,4.26-.75,1.71,12.35c-2.55,13.1-2.53,23.75-2.53,23.75,0,0,5.64-17.19,9.42-17.69,3.78-.5,3.78,5.06.54,9.89-3.24,4.83-9.48,13.48-10.51,17.93,0,0,6.19-12.93,11.75-8.97s-4.84,11.78-9.48,14.6-7.86,20.52-7.86,20.52l-2.39-.68Z"/>
                <path class="cls-22"
                      d="M36.23,286.05s-4.62-10.43.92-20.57,7.15-12.52,3.72-14.66-5.14,8.1-5.14,8.1c0,0-2.83-7.11-.33-14.46,2.5-7.36,4.15-19.37.88-20.71s-.81,15.01-3.73,20.52c0,0-2.32-6.22-2.64-12.17-.32-5.94.41-15.41-2.16-17.88-2.57-2.47-4.25-.81-1.86,12.33,2.39,13.14,2.25,23.79,2.25,23.79,0,0-5.43-17.27-9.21-17.83-3.78-.56-3.84,5.01-.66,9.88s9.32,13.62,10.29,18.08c0,0-6.03-13.02-11.64-9.14-5.61,3.88,4.7,11.85,9.31,14.74,4.61,2.89,7.61,20.63,7.61,20.63l2.4-.65Z"/>
                <polygon class="cls-25" points="14.9 278.61 53.11 278.61 50.02 305.95 17.99 305.95 14.9 278.61"/>
            </g>
        </g>
        <g id="Document">
            <g>
                <g>
                    <path class="cls-22"
                          d="M69.49,305.95h171.07c2.88,0,4.98-2.33,4.69-5.21l-26.02-258.16c-.29-2.88-2.86-5.21-5.74-5.21H42.42c-2.88,0-4.98,2.33-4.69,5.21l26.02,258.16c.29,2.88,2.86,5.21,5.74,5.21Z"/>
                    <path class="cls-22"
                          d="M71.29,305.95h171.07c2.88,0,4.98-2.33,4.69-5.21l-26.02-258.16c-.29-2.88-2.86-5.21-5.74-5.21H44.22c-2.88,0-4.98,2.33-4.69,5.21l26.02,258.16c.29,2.88,2.86,5.21,5.74,5.21Z"/>
                    <path class="cls-8"
                          d="M71.29,305.95h171.07c2.88,0,4.98-2.33,4.69-5.21l-26.02-258.16c-.29-2.88-2.86-5.21-5.74-5.21H44.22c-2.88,0-4.98,2.33-4.69,5.21l26.02,258.16c.29,2.88,2.86,5.21,5.74,5.21Z"/>
                </g>
                <g>
                    <path class="cls-25"
                          d="M103.71,56.93h56.03c2.31,0,4-1.87,3.76-4.18l-1.57-15.53c-.04-.41-.41-.75-.82-.75h-62.9c-.41,0-.72.34-.67.75l1.57,15.53c.23,2.31,2.29,4.18,4.61,4.18Z"/>
                    <path class="cls-25"
                          d="M125.18,33.56l.66,6.51h8.38l-.66-6.51c-.23-2.31-2.3-4.19-4.61-4.19s-4,1.88-3.77,4.19ZM127.72,33.91c-.09-.93.59-1.69,1.52-1.69s1.77.76,1.87,1.69c.09.93-.59,1.69-1.52,1.69-.94,0-1.77-.76-1.87-1.69Z"/>
                    <path class="cls-10"
                          d="M103.71,56.93h56.03c2.31,0,4-1.87,3.76-4.18l-1.57-15.53c-.04-.41-.41-.75-.82-.75h-62.9c-.41,0-.72.34-.67.75l1.57,15.53c.23,2.31,2.29,4.18,4.61,4.18Z"/>
                </g>
                <g>
                    <polygon class="cls-6" points="217.31 45.77 47.56 45.77 72.14 298.33 241.88 298.33 217.31 45.77"/>
                    <g>
                        <path class="cls-21" d="M85.12,68.54h1.41l.74,7.56h-1.41l-.74-7.56Z"/>
                        <path class="cls-21"
                              d="M94.55,72.8l.32,3.3h-1.35l-.3-3.13c-.1-1.03-.66-1.52-1.52-1.52-.96,0-1.55.58-1.44,1.74l.28,2.91h-1.35l-.56-5.77h1.29l.07.74c.39-.53,1.07-.81,1.91-.81,1.38,0,2.49.79,2.66,2.53Z"/>
                        <path class="cls-21"
                              d="M97.49,70.03l.03.35h1.59l.1,1.08h-1.55l.45,4.64h-1.35l-.45-4.64h-.95l-.1-1.08h.95l-.04-.37c-.12-1.21.53-2,1.87-2,.46,0,.93.1,1.25.31l-.28,1.01c-.22-.14-.49-.24-.77-.24-.56,0-.82.31-.76.93Z"/>
                        <path class="cls-21"
                              d="M99.74,73.22c-.17-1.73,1.01-2.95,2.79-2.95s3.2,1.22,3.37,2.95c.17,1.73-1,2.96-2.79,2.96s-3.19-1.23-3.36-2.96ZM104.53,73.22c-.11-1.1-.91-1.8-1.9-1.8s-1.64.7-1.53,1.8c.11,1.1.91,1.8,1.88,1.8.98,0,1.65-.7,1.54-1.8Z"/>
                        <path class="cls-21"
                              d="M110.25,70.27l.12,1.29c-.12-.02-.22-.03-.32-.03-1.03,0-1.62.6-1.5,1.78l.27,2.8h-1.35l-.56-5.77h1.29l.08.84c.33-.6,1-.91,1.97-.91Z"/>
                        <path class="cls-21"
                              d="M121.3,72.8l.32,3.3h-1.35l-.3-3.13c-.1-1.03-.62-1.52-1.45-1.52-.89,0-1.45.58-1.34,1.73l.29,2.93h-1.35l-.3-3.13c-.1-1.03-.62-1.52-1.45-1.52-.9,0-1.45.58-1.34,1.73l.29,2.93h-1.35l-.56-5.77h1.29l.07.73c.38-.52,1.03-.8,1.82-.8.84,0,1.58.31,2.04.96.41-.59,1.15-.96,2.07-.96,1.4,0,2.45.79,2.62,2.53Z"/>
                        <path class="cls-21"
                              d="M128.57,73.65h-4.53c.24.84,1,1.38,2.01,1.38.65,0,1.14-.21,1.51-.63l.81.83c-.46.62-1.24.94-2.23.94-1.94,0-3.31-1.24-3.48-2.96-.17-1.72.98-2.95,2.7-2.95s3.04,1.18,3.21,2.98c0,.11.01.27.02.4ZM123.94,72.75h3.28c-.19-.83-.88-1.4-1.77-1.4-.88,0-1.46.56-1.51,1.4Z"/>
                        <path class="cls-21"
                              d="M135.01,68.09l.78,8.01h-1.3l-.07-.74c-.4.55-1.04.82-1.84.82-1.68,0-3.03-1.17-3.21-2.96-.17-1.79.96-2.95,2.63-2.95.75,0,1.43.25,1.94.78l-.29-2.96h1.35ZM134.18,73.22c-.11-1.1-.92-1.8-1.9-1.8s-1.65.7-1.54,1.8c.11,1.1.92,1.8,1.9,1.8.97,0,1.65-.7,1.54-1.8Z"/>
                        <path class="cls-21"
                              d="M139.77,72.32c-.22-2.26,1.35-3.89,3.68-3.89,1.23,0,2.34.44,3.12,1.26l-.83.85c-.61-.59-1.32-.88-2.11-.88-1.57,0-2.6,1.1-2.45,2.66.15,1.55,1.39,2.66,2.96,2.66.79,0,1.44-.29,1.94-.9l.99.86c-.62.82-1.64,1.26-2.88,1.26-2.32,0-4.21-1.63-4.43-3.89Z"/>
                        <path class="cls-21"
                              d="M147.44,73.22c-.17-1.73,1.01-2.95,2.79-2.95s3.2,1.22,3.37,2.95-1,2.96-2.79,2.96-3.19-1.23-3.36-2.96ZM152.23,73.22c-.11-1.1-.91-1.8-1.9-1.8s-1.64.7-1.53,1.8c.11,1.1.91,1.8,1.88,1.8.99,0,1.65-.7,1.54-1.8Z"/>
                        <path class="cls-21"
                              d="M160.54,72.8l.32,3.3h-1.35l-.3-3.13c-.1-1.03-.66-1.52-1.52-1.52-.96,0-1.55.58-1.44,1.74l.28,2.91h-1.35l-.56-5.77h1.29l.07.74c.39-.53,1.07-.81,1.91-.81,1.38,0,2.49.79,2.66,2.53Z"/>
                        <path class="cls-21"
                              d="M161.86,75.53l.42-1.02c.54.33,1.34.57,2.07.57.85,0,1.19-.24,1.15-.64-.11-1.1-3.58-.06-3.8-2.37-.11-1.09.81-1.8,2.37-1.8.77,0,1.66.18,2.21.5l-.42,1.03c-.58-.32-1.15-.43-1.7-.43-.82,0-1.19.27-1.15.65.11,1.17,3.58.13,3.8,2.39.1,1.08-.82,1.78-2.44,1.78-.96,0-1.95-.28-2.51-.65Z"/>
                        <path class="cls-21"
                              d="M173.32,73.65h-4.53c.24.84,1,1.38,2.01,1.38.65,0,1.14-.21,1.51-.63l.81.83c-.46.62-1.24.94-2.23.94-1.94,0-3.31-1.24-3.48-2.96-.17-1.72.98-2.95,2.7-2.95s3.04,1.18,3.21,2.98c.01.11.01.27.02.4ZM168.69,72.75h3.28c-.19-.83-.88-1.4-1.77-1.4-.88,0-1.46.56-1.51,1.4Z"/>
                        <path class="cls-21"
                              d="M180.25,72.8l.32,3.3h-1.35l-.3-3.13c-.1-1.03-.66-1.52-1.52-1.52-.96,0-1.55.58-1.44,1.74l.28,2.91h-1.35l-.56-5.77h1.29l.07.74c.39-.53,1.07-.81,1.91-.81,1.38,0,2.49.79,2.66,2.53Z"/>
                        <path class="cls-21"
                              d="M185.73,75.79c-.3.26-.77.39-1.26.39-1.27,0-2.06-.67-2.18-1.94l-.27-2.77h-.95l-.1-1.08h.95l-.13-1.32h1.35l.13,1.32h1.55l.1,1.08h-1.55l.27,2.74c.05.56.37.86.88.86.28,0,.54-.08.73-.24l.47.96Z"/>
                    </g>
                    <line class="cls-13" x1="55.25" y1="92.33" x2="218.68" y2="92.33"/>
                    <polygon class="cls-14"
                             points="208.17 110.28 69.26 110.28 68.52 102.74 207.43 102.74 208.17 110.28"/>
                    <g class="cls-20">
                        <path class="cls-21"
                              d="M209.18,122.11h-125.31c-.8,0-1.46-.65-1.46-1.46s.65-1.46,1.46-1.46h125.31c.8,0,1.46.65,1.46,1.46s-.65,1.46-1.46,1.46Z"/>
                    </g>
                    <g class="cls-20">
                        <path class="cls-21"
                              d="M209.88,129.37H70.97c-.8,0-1.46-.65-1.46-1.46s.65-1.46,1.46-1.46h138.91c.8,0,1.46.65,1.46,1.46,0,.8-.65,1.46-1.46,1.46Z"/>
                    </g>
                    <g class="cls-20">
                        <path class="cls-21"
                              d="M210.59,136.63H71.68c-.8,0-1.46-.65-1.46-1.46s.65-1.46,1.46-1.46h138.91c.8,0,1.46.65,1.46,1.46s-.65,1.46-1.46,1.46Z"/>
                    </g>
                    <g class="cls-20">
                        <path class="cls-21"
                              d="M211.3,143.89H72.39c-.8,0-1.46-.65-1.46-1.46s.65-1.46,1.46-1.46h138.91c.8,0,1.46.65,1.46,1.46,0,.8-.65,1.46-1.45,1.46Z"/>
                    </g>
                    <g class="cls-20">
                        <path class="cls-21"
                              d="M212,151.15H73.09c-.8,0-1.46-.65-1.46-1.46s.65-1.46,1.46-1.46h138.91c.8,0,1.46.65,1.46,1.46,0,.8-.65,1.46-1.46,1.46Z"/>
                    </g>
                    <g class="cls-20">
                        <path class="cls-21"
                              d="M212.71,158.42H73.8c-.8,0-1.46-.65-1.46-1.46s.65-1.46,1.46-1.46h138.91c.8,0,1.46.65,1.46,1.46,0,.8-.65,1.46-1.46,1.46Z"/>
                    </g>
                    <g class="cls-20">
                        <path class="cls-21"
                              d="M199.82,165.68h-125.31c-.8,0-1.46-.65-1.46-1.46s.65-1.46,1.46-1.46h125.31c.8,0,1.46.65,1.46,1.46s-.65,1.46-1.46,1.46Z"/>
                    </g>
                    <polygon class="cls-14" points="215.72 187.9 76.81 187.9 76.08 180.36 214.99 180.36 215.72 187.9"/>
                    <g class="cls-20">
                        <path class="cls-21"
                              d="M216.73,199.73h-125.31c-.8,0-1.46-.65-1.46-1.46s.65-1.46,1.46-1.46h125.31c.8,0,1.46.65,1.46,1.46s-.65,1.46-1.46,1.46Z"/>
                    </g>
                    <g class="cls-20">
                        <path class="cls-21"
                              d="M217.44,206.99H78.53c-.8,0-1.46-.65-1.46-1.46s.65-1.46,1.46-1.46h138.91c.8,0,1.46.65,1.46,1.46s-.65,1.46-1.46,1.46Z"/>
                    </g>
                    <g class="cls-20">
                        <path class="cls-21"
                              d="M218.15,214.26H79.23c-.8,0-1.46-.65-1.46-1.46s.65-1.46,1.46-1.46h138.91c.8,0,1.46.65,1.46,1.46s-.65,1.46-1.46,1.46Z"/>
                    </g>
                    <g class="cls-20">
                        <path class="cls-21"
                              d="M218.85,221.52H79.94c-.8,0-1.46-.65-1.46-1.46s.65-1.46,1.46-1.46h138.91c.8,0,1.46.65,1.46,1.46s-.65,1.46-1.45,1.46Z"/>
                    </g>
                    <g class="cls-20">
                        <path class="cls-21"
                              d="M147.68,228.78h-67.04c-.8,0-1.46-.65-1.46-1.46s.65-1.46,1.46-1.46h67.04c.8,0,1.46.65,1.46,1.46s-.65,1.46-1.46,1.46Z"/>
                    </g>
                    <g class="cls-20">
                        <rect class="cls-21" x="124.98" y="270.76" width="51.26" height=".97"/>
                    </g>
                    <g>
                        <path class="cls-16"
                              d="M126.77,254.08c-.24-.28-.52-.52-.82-.73.02.05.06.1.08.14.33.67.62,1.34.88,2.01.08-.31.24-.61.16-.94-.05-.18-.17-.34-.3-.48Z"/>
                        <path class="cls-16"
                              d="M120.24,264.44s-.04-.05-.06-.08c-.05-.05-.17-.18-.17-.18.03.04-.05-.09-.06-.11,0-.02-.01-.04-.02-.06.02-.12.04-.23.05-.35.15-1.18.18-2.38.26-3.56l3.66-1.52c-.31-1.22-.75-2.45-1.35-3.64-.6-1.2-1.31-2.3-2.12-3.32l-17.02,7.07s0,0,0,0c-.04.33-.1.68-.35.88-.26.19-.76.05-.79-.28l-.31.29c-.1.13-.21.26-.36.34l.36-.34c.09-.12.17-.25.24-.4l-11.44,4.75c.31,1.22.75,2.44,1.35,3.64.6,1.2,1.31,2.3,2.12,3.32l3.9-1.62c-.04-.06-.08-.13-.09-.22-.1-1.28,3.43-2.28,4.34-2.64.45-.18,1.02-.33,1.43,0-.2.3-.6.38-.91.55-.3.16-.54.41-.78.65l16.3-6.77c-.02.68.12,1.44.21,1.92.08.39.15.84.29,1.26-.05.33-.12.67-.21.99,0,.02-.02.05-.02.07l-6.86,2.85s0,0,.01,0c.13.08.15.26.08.38-.07.12-.19.19-.31.25-.71.38-3.11,1.99-3.87,1.42.2-.23.44-.43.67-.64l-11.15,4.63c5.08,4.13,11.99,5.56,17.93,3.09.42-.17.82-.37,1.22-.57.02-.13.03-.26.04-.39v-.67c.28-.25.62-.44.99-.54-.08.37-.13.75-.2,1.13,4.65-2.82,7.25-7.88,7.19-13.33l-4.21,1.75Z"/>
                        <path class="cls-16"
                              d="M88.95,271.27c-.03-.29-.07-.6-.11-.98-.03-.3,0-.59.04-.88-.07-.14-.16-.27-.23-.41-1.76-3.54-2.48-7.25-2.3-10.78-.05.02-.09.05-.14.07-.12.05-.28.1-.38,0-.05-.05-.07-.12-.09-.19-.18-.85-.15-1.73.1-2.52l.11-.32c.12-.12.26-.25.43-.3.12-.04.27-.01.38.06.56-2.61,1.64-5.05,3.19-7.16.33-1.4.88-2.74,1.85-2.89-.11.3-.13.61-.14.92,1.66-1.68,3.66-3.09,6.01-4.06,9.23-3.83,20.37-.02,26.42,8.5.09-.02.18-.03.3-.02,1.15.11,2.34,2.72,2.86,3.57.43.69.87,1.57.47,2.2-.1.15-.26.28-.44.26-.05,0-.09-.04-.13-.06,2.07,6.02,1.36,12.24-1.62,17.09.34.59.2,1.9.13,2.76,4.83-6.17,5.82-15.1,1.77-23.23-5.73-11.52-19.41-17.15-30.5-12.55-11.09,4.6-15.45,17.73-9.72,29.25.51,1.02,1.08,1.99,1.71,2.92.05-.32.06-.61.04-.92,0-.11-.02-.22-.03-.33Z"/>
                        <path class="cls-16"
                              d="M102.41,280.98c0,.29-.32.52-.64.57-.7.11-1.49-.15-2.04-.68l-.55-.52c.51-.04,1.03-.03,1.54,0-4.8-2.04-9.02-5.72-11.68-10.64-.11.51-.14,1.03-.1,1.56.01.11.02.22.03.33.04.42.11.84.2,1.26,6.49,9.28,18.57,13.43,28.56,9.29,2.93-1.22,5.38-3.03,7.31-5.25,0-.27,0-.54,0-.8.03-.62.02-1.39.08-2.08-1.93,2.87-4.67,5.21-8.13,6.65-4.67,1.94-9.83,1.91-14.58.31Z"/>
                        <path class="cls-16"
                              d="M93.74,258.2l.59-.96c.19-.29.61-.34.97-.3.37.04.74.15,1.1.1.18-.03.37-.1.56-.06-.01.02-.03.03-.04.05l9.6-3.99s.03.06.04.09c.01.03.02.06.04.09,0,0,0,0,0,0,0,0,0,0,0,.01.04.13.07.27.08.4.03.32.44.51.7.4.6-.26.98-.78,1.29-1.33.07-.12.14-.25.21-.37.07-.12.16-.23.2-.36l8.32-3.45c-1.17-.95-2.45-1.76-3.78-2.41-.02-.14-.05-.27-.12-.4-.06-.11-.14-.2-.23-.28-.06.39-.12.78-.21,1.16l-.51.1c-.28-.22-.38-.61-.33-.94.02-.18.09-.34.16-.5-.1.04-.2.1-.28.18-4.07-1.57-8.57-1.7-12.63-.02-5.94,2.47-9.31,8.16-9.24,14.37l4.17-1.73c-.26-.05-.51-.05-.67.14Z"/>
                        <path class="cls-22"
                              d="M130.94,267.72c0-.3.1-.58.13-.88.04-.39-.04-.79.03-1.17.07-.42.39-.99.81-1.17.16-4.05-.7-8.28-2.72-12.34-3.34-6.71-9.16-11.58-15.69-13.88-.07.15-.16.29-.22.45-.18.51-.97.28-.95-.26,0-.21-.04-.41-.1-.6-5.3-1.58-10.99-1.48-16.16.66-1.02.42-1.99.92-2.9,1.47.04.41.07.82.1,1.23-.39-.1-.74-.34-1.01-.65-9.17,6.17-12.27,18.63-6.75,29.72.81,1.63,1.77,3.15,2.85,4.55,0-.48.12-.9.3-1.36.15-.38.24-.7.29-.99-.62-.93-1.2-1.9-1.71-2.92-5.73-11.52-1.37-24.65,9.72-29.25,11.09-4.6,24.77,1.03,30.5,12.55,4.04,8.14,3.06,17.06-1.77,23.23-.02.24-.04.46-.04.6,0,.49.02.99.02,1.48,0,.35,0,.7-.02,1.04,2.9-2.93,4.87-6.65,5.75-10.71-.04,0-.07.01-.11,0-.26-.18-.36-.52-.35-.82Z"/>
                        <path class="cls-22"
                              d="M117.74,282.14c-9.98,4.14-22.06,0-28.56-9.29.11.55.24,1.1.37,1.65.13.57.03,1.22-.16,1.62,3.31,3.83,7.57,6.64,12.16,8.19.2-.23.45-.41.74-.49.37-.11.77-.07,1.16-.03.11.01.22.02.31.08.1.07.16.18.22.3.16.32.31.63.47.95,4.72,1.02,9.66.71,14.19-1.17,2.49-1.03,4.66-2.46,6.49-4.19-.06-.95-.09-1.91-.07-2.86-1.93,2.22-4.38,4.03-7.31,5.25Z"/>
                        <path class="cls-22"
                              d="M127.17,256.27c-.23-.13-.33-.49-.26-.76,0,0,0-.01,0-.02-.26-.67-.55-1.35-.88-2.01-.02-.05-.05-.1-.08-.14-.02-.01-.04-.03-.05-.04-.3-.21-.65-.4-.82-.73-.16-.3-.16-.63-.38-.91-.17-.21-.56-.1-.71-.32-.33-.48-.29-.92.12-1.02-6.05-8.52-17.2-12.33-26.42-8.5-2.35.98-4.35,2.38-6.01,4.06,0,.24-.01.49-.06.73-.09.49-.44.85-.75,1.23-.67.82-1.18,1.79-1.4,2.85.11-.62.24-1.74.5-2.83-1.55,2.11-2.63,4.55-3.19,7.16.05.03.09.07.12.12.08.14.05.29.03.44-.05.37,0,.76.13,1.13.06.16.13.32.15.49.05.49-.39.81-.83,1.03-.18,3.53.54,7.23,2.3,10.78.07.14.15.27.23.41.02-.14.04-.28.07-.42.08-.41.15-.82.23-1.23.32.55.06,1.18-.09,1.76-.02.06-.02.13-.04.19,2.66,4.91,6.88,8.6,11.68,10.64.31.02.62.04.93.08.28.04.62.12.73.39.02.06.01.11.01.16,4.75,1.6,9.91,1.63,14.59-.31,3.46-1.44,6.2-3.78,8.13-6.65.03-.33.07-.65.15-.92.12.05.2.14.27.27,2.98-4.85,3.68-11.07,1.62-17.09ZM99.48,245.43c4.05-1.68,8.56-1.55,12.63.02.08-.08.18-.14.28-.18.07-.14.14-.27.22-.4.18-.3.43-.64.8-.59-.03.39-.08.78-.13,1.16.09.08.17.17.23.28.07.12.1.26.12.4,1.34.65,2.61,1.45,3.78,2.41l-8.32,3.45c-.04.13-.13.24-.2.36-.07.12-.14.24-.21.37-.32.55-.69,1.07-1.29,1.33-.26.11-.67-.08-.7-.4-.01-.14-.05-.27-.08-.4,0,0,0,0,0-.01,0,0,0,0,0,0-.01-.03-.02-.06-.04-.09-.01-.03-.03-.06-.04-.09l-9.6,3.99c-.45.62-1.04,1.27-1.84,1.18-.21-.02-.45-.1-.67-.14l-4.17,1.73c-.06-6.21,3.31-11.91,9.24-14.38ZM117.26,276.02c-.05.27-.1.55-.14.82-.13.91-.25,1.91-.94,2.47.03-.95.12-1.89.24-2.83-.39.21-.8.4-1.22.57-5.94,2.47-12.85,1.04-17.93-3.09l11.15-4.63c.35-.3.71-.6,1.05-.9.23-.2.46-.4.74-.51.44-.17.96-.12,1.45-.06.06,0,.12.02.17.05l6.86-2.85s.02-.05.02-.07c.09-.32.16-.65.21-.99-.13-.42-.21-.87-.29-1.26-.1-.48-.24-1.24-.21-1.92l-16.3,6.77c-.05.05-.11.11-.16.16-.48.44-3.32,2.18-3.83,1.5l-3.9,1.62c-.8-1.02-1.52-2.13-2.12-3.32s-1.03-2.42-1.35-3.64l11.44-4.75c.27-.54.46-1.17,1.02-1.36.24.21.23.56.19.86l17.02-7.07c.8,1.02,1.52,2.12,2.12,3.32.6,1.2,1.03,2.42,1.35,3.64l-3.66,1.52c-.08,1.19-.11,2.39-.26,3.56-.01.12-.04.23-.05.35,0,.02.01.04.02.06.01.03.09.16.06.11,0,0,.12.12.17.18.02.02.04.05.06.08l4.21-1.75c.06,5.46-2.54,10.51-7.19,13.33Z"/>
                    </g>
                    <path class="cls-15"
                          d="M135.06,260.42c5.63-3.26,10.04,10.42.35,18.44-9.68,8.03-22.99,1.51-15.9-14.42s21.44-16.5,26.32-11.7,3.72,16.51.21,15.93c-3.51-.58,3.09-11.71,7.96-10.94,4.88.77,3.85,11.97,1.05,10.78s2.71-7.71,6.57-7.52c3.86.19,2.87,7.75.73,7.52-2.13-.23,1.7-6.18,10-5.79"/>
                </g>
                <g>
                    <path class="cls-25"
                          d="M158.12,53.1h-22.69c-.44,0-.82-.32-.89-.76-.29-1.78-1.91-3.18-3.69-3.18-.82,0-1.56.3-2.09.86-.54.56-.81,1.32-.78,2.14,0,.24-.08.48-.25.66-.17.18-.4.28-.65.28h-22.69c-.46,0-.85-.35-.9-.81l-1.13-11.24c-.03-.25.06-.51.23-.7.17-.19.41-.3.67-.3h53.73c.46,0,.85.35.9.81l1.13,11.24c.02.25-.06.51-.23.7-.17.19-.42.3-.67.3ZM136.14,51.3h20.98l-.95-9.43h-51.92l.95,9.43h21.02c.14-.96.57-1.83,1.23-2.53.88-.91,2.08-1.41,3.39-1.41,2.38,0,4.57,1.68,5.29,3.94Z"/>
                    <g class="cls-1">
                        <path class="cls-6"
                              d="M158.12,53.1h-22.69c-.44,0-.82-.32-.89-.76-.29-1.78-1.91-3.18-3.69-3.18-.82,0-1.56.3-2.09.86-.54.56-.81,1.32-.78,2.14,0,.24-.08.48-.25.66-.17.18-.4.28-.65.28h-22.69c-.46,0-.85-.35-.9-.81l-1.13-11.24c-.03-.25.06-.51.23-.7.17-.19.41-.3.67-.3h53.73c.46,0,.85.35.9.81l1.13,11.24c.02.25-.06.51-.23.7-.17.19-.42.3-.67.3ZM136.14,51.3h20.98l-.95-9.43h-51.92l.95,9.43h21.02c.14-.96.57-1.83,1.23-2.53.88-.91,2.08-1.41,3.39-1.41,2.38,0,4.57,1.68,5.29,3.94Z"/>
                    </g>
                    <path class="cls-25"
                          d="M107.5,41.02c-.1-.94-.71-1.23-.71-1.23h46.87s.61.28.71,1.23c.1.97-.46,1.23-.46,1.23h-46.87s.56-.25.46-1.23Z"/>
                    <path class="cls-7"
                          d="M107.5,41.02c-.1-.94-.71-1.23-.71-1.23h46.87s.61.28.71,1.23c.1.97-.46,1.23-.46,1.23h-46.87s.56-.25.46-1.23Z"/>
                </g>
            </g>
        </g>
        <g id="Sign">
            <g>
                <polygon class="cls-22"
                         points="187.03 234.42 162.58 252.27 187.03 270.13 187.03 264.23 248.82 264.23 248.82 240.32 187.03 240.32 187.03 234.42"/>
                <g>
                    <path class="cls-6"
                          d="M193.19,254.37l.43-.97c.54.43,1.39.74,2.22.74,1.05,0,1.49-.38,1.49-.87,0-1.45-4-.5-4-3,0-1.09.87-2.01,2.71-2.01.81,0,1.65.21,2.24.6l-.4.97c-.6-.36-1.27-.53-1.85-.53-1.04,0-1.46.4-1.46.91,0,1.43,3.99.5,3.99,2.97,0,1.08-.88,2-2.72,2-1.05,0-2.1-.33-2.65-.81Z"/>
                    <path class="cls-6"
                          d="M199.52,248.38c0-.4.33-.72.77-.72s.77.3.77.69c0,.42-.32.75-.77.75-.44,0-.77-.32-.77-.72ZM199.69,249.95h1.2v5.13h-1.2v-5.13Z"/>
                    <path class="cls-6"
                          d="M207.56,249.95v4.36c0,1.86-.97,2.71-2.77,2.71-.96,0-1.91-.25-2.5-.73l.54-.9c.45.38,1.18.61,1.89.61,1.13,0,1.63-.52,1.63-1.56v-.27c-.42.46-1.03.68-1.72.68-1.47,0-2.6-1-2.6-2.49s1.12-2.47,2.6-2.47c.72,0,1.36.23,1.78.74v-.68h1.14ZM206.38,252.36c0-.86-.65-1.45-1.56-1.45s-1.57.59-1.57,1.45.65,1.47,1.57,1.47c.9,0,1.56-.6,1.56-1.47Z"/>
                    <path class="cls-6"
                          d="M214.19,252.14v2.94h-1.2v-2.79c0-.91-.45-1.36-1.22-1.36-.86,0-1.43.52-1.43,1.55v2.6h-1.2v-5.13h1.14v.66c.39-.47,1.02-.72,1.77-.72,1.23,0,2.14.7,2.14,2.25Z"/>
                    <path class="cls-6"
                          d="M223.43,252.14v2.94h-1.2v-2.79c0-.91-.45-1.36-1.22-1.36-.86,0-1.43.52-1.43,1.55v2.6h-1.2v-7.13h1.2v2.6c.39-.42,1-.65,1.71-.65,1.23,0,2.15.7,2.15,2.25Z"/>
                    <path class="cls-6"
                          d="M229.82,252.9h-4.03c.14.75.77,1.23,1.66,1.23.58,0,1.03-.18,1.39-.56l.64.74c-.46.55-1.18.84-2.07.84-1.72,0-2.84-1.11-2.84-2.63s1.12-2.62,2.65-2.62,2.6,1.05,2.6,2.65c0,.1,0,.24-.02.36ZM225.78,252.1h2.91c-.1-.74-.66-1.25-1.45-1.25s-1.35.5-1.46,1.25Z"/>
                    <path class="cls-6"
                          d="M233.96,249.89v1.14c-.11-.02-.19-.03-.28-.03-.91,0-1.49.54-1.49,1.59v2.49h-1.2v-5.13h1.14v.75c.35-.54.97-.81,1.83-.81Z"/>
                    <path class="cls-6"
                          d="M239.74,252.9h-4.03c.14.75.77,1.23,1.66,1.23.58,0,1.03-.18,1.39-.56l.64.74c-.46.55-1.18.84-2.07.84-1.72,0-2.84-1.11-2.84-2.63s1.12-2.62,2.65-2.62,2.6,1.05,2.6,2.65c0,.1,0,.24-.02.36ZM235.7,252.1h2.91c-.1-.74-.66-1.25-1.45-1.25s-1.35.5-1.46,1.25Z"/>
                </g>
            </g>
        </g>
        <g id="Speech_bubble" data-name="Speech bubble">
            <g>
                <path class="cls-22"
                      d="M321.9,0h-27.89c-4.74,0-8.59,3.84-8.59,8.59v24.27c0,4.74,3.85,8.59,8.59,8.59h17.86l5.8,9.61-.03-9.61h4.26c4.74,0,8.59-3.84,8.59-8.59V8.59c0-4.74-3.85-8.59-8.59-8.59Z"/>
                <g>
                    <g class="cls-12">
                        <circle class="cls-9" cx="307.97" cy="20.64" r="13.84"/>
                    </g>
                    <path class="cls-22"
                          d="M306.51,26.8c-.37,0-.73-.16-.97-.45l-5.43-6.4c-.45-.54-.39-1.34.15-1.79.54-.45,1.34-.39,1.79.15l4.46,5.26,7.37-8.68c.45-.54,1.26-.6,1.79-.15.54.46.6,1.26.15,1.79l-8.34,9.82c-.24.28-.6.45-.97.45Z"/>
                </g>
            </g>
        </g>
        <g id="Character">
            <g>
                <g>
                    <g>
                        <path class="cls-4"
                              d="M323.18,111.62c-3.67,3.05-7.41,5.81-11.38,8.45-1.97,1.33-4.01,2.6-6.18,3.79-1.09.6-2.21,1.18-3.44,1.71-.62.27-1.25.53-1.96.77-.34.12-.73.24-1.13.34-.12.03-.15.05-.34.09l-.5.1c-.33.05-.64.09-.95.1-2.44.04-3.97-.69-5.31-1.34-1.33-.68-2.43-1.44-3.48-2.22-2.06-1.57-3.83-3.26-5.51-4.99-3.35-3.48-6.25-7.15-8.94-11.1l3.6-3c3.27,3.07,6.69,6.12,10.12,8.88,1.72,1.37,3.47,2.67,5.2,3.72.86.52,1.71.98,2.48,1.27.74.31,1.46.37,1.33.3-.02,0-.05,0-.09,0-.03,0-.05,0-.08,0-.04.01.06-.02.08-.03.15-.06.31-.12.51-.21.36-.15.79-.37,1.21-.6.85-.46,1.75-.99,2.65-1.56,1.8-1.14,3.61-2.41,5.42-3.7,1.81-1.29,3.6-2.66,5.39-4.02,1.8-1.34,3.59-2.76,5.33-4.1l5.97,7.34Z"/>
                        <path class="cls-22"
                              d="M326.22,105.53c.81,9.66-18.37,19.02-18.37,19.02l-6.38-10.4s6.04-7.55,11.95-12.6c6.19-5.28,12.27-2.44,12.81,3.98Z"/>
                        <path class="cls-9"
                              d="M319.67,116.77c-1.54,1.35-3.19,2.56-4.76,3.62-3.8,2.55-7.07,4.15-7.07,4.15l-6.38-10.4s6.04-7.55,11.95-12.6c6.18-5.28,12.27-2.45,12.8,3.98.34,4.02-2.8,7.99-6.55,11.24Z"/>
                    </g>
                    <g>
                        <path class="cls-5" d="M277.59,104.72l-5.33-7.21-5.48,5.6s3.01,5.57,8.19,4.92l2.61-3.3Z"/>
                        <polygon class="cls-5"
                                 points="266.51 94.75 263.42 99.9 266.78 103.11 272.26 97.5 266.51 94.75"/>
                    </g>
                    <path class="cls-11"
                          d="M319.67,116.77c-1.54,1.35-3.19,2.56-4.76,3.62,1.08-3.85,3.3-7.29,3.3-7.29.89,1.04,1.33,2.31,1.46,3.67Z"/>
                    <g>
                        <path class="cls-25"
                              d="M310.74,298.29l7.53-.2c.28,0,.53.18.6.45l1.58,6.06c.16.63-.3,1.24-.95,1.25-2.72.03-6.65-.03-10.06.07-3.99.11-6.53-.09-11.21.04-2.83.08-3.72-2.75-2.54-3.04,5.35-1.32,8.85-1.06,13.41-4.05.5-.32,1.05-.56,1.64-.58Z"/>
                        <g class="cls-18">
                            <path class="cls-6"
                                  d="M310.74,298.29l7.53-.2c.28,0,.53.18.6.45l1.58,6.06c.16.63-.3,1.24-.95,1.25-2.72.03-6.65-.03-10.06.07-3.99.11-6.53-.09-11.21.04-2.83.08-3.72-2.75-2.54-3.04,5.35-1.32,8.85-1.06,13.41-4.05.5-.32,1.05-.56,1.64-.58Z"/>
                        </g>
                    </g>
                    <g>
                        <path class="cls-25"
                              d="M349.05,298.29l7.53-.2c.28,0,.53.18.6.45l1.58,6.06c.16.63-.3,1.24-.95,1.25-2.72.03-6.65-.03-10.06.07-3.99.11-6.53-.09-11.21.04-2.83.08-3.72-2.75-2.54-3.04,5.35-1.32,8.85-1.06,13.41-4.05.49-.32,1.05-.56,1.64-.58Z"/>
                        <g class="cls-18">
                            <path class="cls-6"
                                  d="M349.05,298.29l7.53-.2c.28,0,.53.18.6.45l1.58,6.06c.16.63-.3,1.24-.95,1.25-2.72.03-6.65-.03-10.06.07-3.99.11-6.53-.09-11.21.04-2.83.08-3.72-2.75-2.54-3.04,5.35-1.32,8.85-1.06,13.41-4.05.49-.32,1.05-.56,1.64-.58Z"/>
                        </g>
                    </g>
                    <path class="cls-25"
                          d="M361.9,149.58c3.62,15.7-3.58,149.66-3.58,149.66l-11.89-.37-4.27-113.01-22.65,114.05-11.56-1.73c8.39-79.72,18.27-137.66,18.27-137.66l-.02-6.01,35.69-4.92Z"/>
                    <path class="cls-22"
                          d="M355.43,91.44c-.43,7.69-.11,15.36.57,22.5.5,5.23,1.19,10.16,1.93,14.62,1.73,10.45,3.69,18.28,3.97,21.01-5.23.72-24.95,3.45-35.7,4.92-13.02-36.4-8.11-55.71-8.11-55.71l8.18-4.66s1.2-.32,1.81-.46c3.96-.92,10.59-1.68,15.18-2.09.96-.09,1.95-.15,2.9-.19,4.88-.22,9.27.05,9.27.05Z"/>
                    <g class="cls-23">
                        <path class="cls-6"
                              d="M361.9,149.58c-5.23.73-24.95,3.45-35.69,4.92-13.02-36.39-8.11-55.71-8.11-55.71l8.17-4.66s1.2-.32,1.82-.47c3.96-.91,10.58-1.68,15.17-2.09.97-.09,1.95-.15,2.9-.19,4.88-.22,9.27.05,9.27.05-.27,4.87-.23,9.74-.01,14.45.14,2.75.34,5.44.58,8.06.01.13.02.25.04.37.49,5.09,1.17,9.9,1.89,14.25,1.73,10.45,3.69,18.28,3.97,21.01Z"/>
                    </g>
                    <g>
                        <path class="cls-5"
                              d="M342,91.41s-8.19,6.46-10.65,6.43c-1.73-.02-4.23-2.85-4.23-2.85,1.26-.64,2.14-1.37,2.7-2.16,1.71-2.34.72-5.19-.67-7.8l7.18-9.98c.1,2,.37,4.64.92,7.24h0c.81,3.89,2.27,7.68,4.75,9.11Z"/>
                        <path class="cls-11"
                              d="M337.25,82.29h0c-.75,4.37-2.65,9.4-7.43,10.54,1.71-2.34.72-5.19-.67-7.8l7.18-9.98c.1,2,.37,4.64.92,7.24Z"/>
                    </g>
                    <g>
                        <path class="cls-22"
                              d="M331.35,97.84s1.99,1.81,4.28,3.57c2.74-1.83,9.1-6.59,8.32-10.2-.53-1.01-3.39-1.35-3.39-1.35,0,0-2.55,4.29-9.21,7.98Z"/>
                        <path class="cls-22"
                              d="M331.35,97.84s-2.07,2.04-3.28,4.47c-2.32-1.13-2.04-8.05-1.35-8.89,1.58-1.23,3.58-1.41,3.58-1.41,0,0-1.16,3.27,1.04,5.83Z"/>
                        <g class="cls-26">
                            <path class="cls-6"
                                  d="M331.35,97.84s1.99,1.81,4.28,3.57c2.74-1.83,9.1-6.59,8.32-10.2-.53-1.01-3.39-1.35-3.39-1.35,0,0-2.55,4.29-9.21,7.98Z"/>
                            <path class="cls-6"
                                  d="M331.35,97.84s-2.07,2.04-3.28,4.47c-2.32-1.13-2.04-8.05-1.35-8.89,1.58-1.23,3.58-1.41,3.58-1.41,0,0-1.16,3.27,1.04,5.83Z"/>
                        </g>
                    </g>
                    <path class="cls-11" d="M338.14,207.76l4.02-21.9-.77-11.59s-5.52,20.09-3.25,33.48Z"/>
                    <g>
                        <path class="cls-25"
                              d="M318.07,67.93c-.79,2.77-.16,8.41,3.63,6.47,3.79-1.94-2.27-11.23-3.63-6.47Z"/>
                        <path class="cls-5"
                              d="M337.98,71.1c.62,7.05,1.34,11.16-1.66,15.24-4.52,6.15-13.66,4.15-16.38-2.59-2.45-6.07-3.05-16.59,3.4-20.33,6.35-3.69,14.03.63,14.65,7.69Z"/>
                        <path class="cls-25"
                              d="M327.64,74.54c.08.57-.15,1.07-.52,1.13-.37.05-.74-.37-.83-.94-.08-.57.15-1.07.52-1.13.37-.05.74.37.83.94Z"/>
                        <path class="cls-25"
                              d="M321.18,75.45c.09.57-.15,1.07-.52,1.13-.37.05-.74-.37-.83-.94-.08-.57.15-1.07.52-1.13.37-.05.75.37.83.94Z"/>
                        <path class="cls-24" d="M323.27,75.44s-.86,3.35-2.07,5.09c1.13.75,2.78.08,2.78.08l-.71-5.17Z"/>
                        <path class="cls-25"
                              d="M329.32,72.18c-.11.03-.24,0-.33-.09-1.08-1.06-2.3-.82-2.32-.82-.18.04-.36-.08-.4-.26-.04-.18.08-.36.26-.4.07-.01,1.6-.32,2.94,1,.13.13.14.35,0,.48-.04.04-.09.07-.15.08Z"/>
                        <path class="cls-25"
                              d="M318.07,73.62c-.06.02-.13.02-.2,0-.18-.06-.28-.25-.22-.43.56-1.78,2.06-2.19,2.13-2.22.18-.05.37.06.42.24.05.18-.05.36-.23.41-.06.01-1.21.35-1.67,1.78-.04.11-.12.19-.23.22Z"/>
                        <path class="cls-25"
                              d="M326.21,66.99s1.74-1.64,2.83-.28c1.08,1.37,1.58,5.35,1.58,5.35l.29-.76s3.7,8.51,7,5.78,7.37-12.43-1.69-15.86c0,0-1.19-2.01-6.9-2.3s-11.97,4.07-12.62,7.91,1.25,5.67,1.25,5.67c.12-1.38.77-2.33.77-2.33.29,1.17,1.62,1.5,1.62,1.5-.23-1.45.16-2.23.16-2.23.21.77,1.17,1.64,1.17,1.64-.12-3.85,2.35-4.97,3.17-5.05,1.01-.1,1.37.95,1.37.95Z"/>
                        <path class="cls-5"
                              d="M341.55,76.52c-.29,1.88-1.43,3.45-2.71,4.35-1.93,1.35-3.7-.19-3.83-2.43-.12-2.01.74-5.13,3-5.59,2.23-.45,3.87,1.52,3.54,3.67Z"/>
                        <g>
                            <path class="cls-25"
                                  d="M324.53,82.93c.78.56,1.94,1.78,1.94,1.78.13-.09.26-.17.38-.26,1.73-1.19,2.14-2.32,2.07-3.2-.04-.48-.23-.9-.43-1.21-.22-.36-.46-.57-.46-.57-.54,1.18-2.07,2.42-2.91,3.04-.35.26-.58.41-.58.41Z"/>
                            <path class="cls-6"
                                  d="M325.12,82.51l.58.51c1.63-1.13,2.62-2.14,2.79-2.99-.22-.36-.46-.57-.46-.57-.54,1.18-2.06,2.42-2.91,3.04Z"/>
                            <path class="cls-19"
                                  d="M326.85,84.44c1.73-1.19,2.14-2.32,2.07-3.2-.57.43-1.22,1.01-1.66,1.71-.34.53-.43,1.05-.41,1.5Z"/>
                        </g>
                    </g>
                    <polygon class="cls-25"
                             points="326.21 156.31 325.52 152.54 361.9 147.18 362.46 153.79 326.21 156.31"/>
                    <g>
                        <polygon class="cls-21"
                                 points="328.46 153.11 328.78 155.21 325.87 155.56 325.52 153.48 328.46 153.11"/>
                        <polygon class="cls-21"
                                 points="348.75 150.58 349.08 152.78 330.09 155.05 329.77 152.95 348.75 150.58"/>
                        <polygon class="cls-21"
                                 points="362.46 151.18 350.4 152.63 350.06 150.42 362.24 148.9 362.46 151.18"/>
                        <path class="cls-17"
                              d="M336.2,152.92l.14.73c.07.36.41.61.78.57l3.14-.38c.39-.05.67-.4.62-.79l-.09-.75c-.05-.39-.4-.67-.79-.62l-3.2.4c-.41.05-.69.43-.61.84Z"/>
                        <line class="cls-17" x1="339.19" y1="152.83" x2="340.18" y2="152.72"/>
                    </g>
                    <g>
                        <path class="cls-5" d="M366.93,143.63l-8.95-.6.73,7.81s6.2,1.3,9.05-3.08l-.83-4.13Z"/>
                        <polygon class="cls-5"
                                 points="352.16 145.65 354.1 151.33 358.72 150.84 357.98 143.03 352.16 145.65"/>
                    </g>
                    <path class="cls-11"
                          d="M356.04,114.31c-2.44-3.62-3.09-9.66-3.09-9.66.88.15,1.71.6,2.47,1.23.14,2.75.34,5.44.58,8.06,0,.13.02.25.04.37Z"/>
                    <g>
                        <path class="cls-4"
                              d="M359.17,93.91c3.56,3.49,6.85,7.07,10.05,10.9,1.61,1.9,3.16,3.86,4.65,5.96.74,1.05,1.48,2.13,2.18,3.32.7,1.21,1.38,2.39,1.99,4.2.36,1.18.43,2.16.44,3.02,0,.87-.07,1.64-.18,2.38-.22,1.47-.55,2.79-.92,4.06-.74,2.54-1.69,4.89-2.68,7.19-2.02,4.59-4.35,8.89-6.98,13.11l-4.19-2.09c1.6-4.46,3.17-9.01,4.5-13.47.67-2.23,1.25-4.47,1.67-6.62.21-1.07.36-2.12.4-3.05.02-.46.02-.9-.01-1.24-.02-.34-.11-.58-.12-.54-.21-.47-.75-1.39-1.34-2.22-.6-.85-1.26-1.74-1.96-2.62-1.42-1.76-2.94-3.51-4.49-5.27-1.56-1.75-3.18-3.46-4.8-5.19-1.6-1.73-3.28-3.45-4.87-5.12l6.68-6.69Z"/>
                        <path class="cls-22"
                              d="M352.99,91.42c9.58-1.48,20.26,16.99,20.26,16.99l-9.93,7.1s-7.96-5.5-13.4-11.04c-5.71-5.8-3.3-12.07,3.07-13.05Z"/>
                        <path class="cls-9"
                              d="M352.99,91.42c9.58-1.48,20.26,16.99,20.26,16.99l-9.93,7.1s-7.96-5.5-13.4-11.04c-5.71-5.8-3.3-12.07,3.07-13.05Z"/>
                    </g>
                </g>
                <g>
                    <polygon class="cls-25"
                             points="267.9 304 268.64 305.95 269.4 304.02 269.5 293.88 268 293.86 267.9 304"/>
                    <path class="cls-25"
                          d="M267.01,90.59l7.41.07.2-20.47c0-.76-.6-1.38-1.37-1.39l-4.65-.04c-.76,0-1.39.6-1.39,1.37l-.2,20.47Z"/>
                    <path class="cls-7"
                          d="M267.01,90.59l7.41.07.2-20.51c0-.74-.59-1.35-1.33-1.35l-4.73-.05c-.74,0-1.35.59-1.35,1.33l-.2,20.51Z"/>
                    <path class="cls-25"
                          d="M265.71,85.6l10.09.1c1.87.02,3.4,1.52,3.45,3.39,1.66,63.96,1,128-1.97,191.91h0s-1.7,12.87-7.36,21.12l-2.49-.02c-5.5-8.36-6.95-21.26-6.95-21.26h0c-1.74-63.96-1.16-128,1.73-191.91.09-1.87,1.64-3.34,3.51-3.32Z"/>
                    <path class="cls-25"
                          d="M258.67,82.92l17.01.16c.57,0,1.03.47,1.03,1.05l-.02,1.71-17.3-.17c-1.46,25.75-.61,47.23-.61,47.23l1.26.62-1.36,5c-3.05-8.59-1.52-47.32-1.21-54.47.03-.63.56-1.13,1.19-1.12Z"/>
                    <rect class="cls-25" x="267.84" y="169.86" width="3.95" height="20.58"
                          transform="translate(87.09 448.23) rotate(-89.45)"/>
                    <path class="cls-25"
                          d="M280.45,215.01c-.41,19.03-1,38.04-1.82,56.98-.04.86-.75,1.54-1.61,1.53l-16.13-.16c-.86,0-1.56-.7-1.58-1.56-.45-18.95-.67-37.97-.72-57.01,0-.89.73-1.61,1.62-1.6l18.67.18c.89,0,1.6.74,1.58,1.63Z"/>
                    <rect class="cls-11" x="267.84" y="169.86" width="3.95" height="20.58"
                          transform="translate(87.09 448.23) rotate(-89.45)"/>
                    <path class="cls-2"
                          d="M258.67,82.92l17.01.16c.57,0,1.03.47,1.03,1.05l-.02,1.71-17.3-.17c-1.46,25.75-.61,47.23-.61,47.23l1.26.62-1.36,5c-3.05-8.59-1.52-47.32-1.21-54.47.03-.63.56-1.13,1.19-1.12Z"/>
                    <path class="cls-7"
                          d="M280.45,215.01c-.41,19.03-1,38.04-1.82,56.98-.04.86-.75,1.54-1.61,1.53l-16.13-.16c-.86,0-1.56-.7-1.58-1.56-.45-18.95-.67-37.97-.72-57.01,0-.89.73-1.61,1.62-1.6l18.67.18c.89,0,1.6.74,1.58,1.63Z"/>
                </g>
            </g>
        </g>
    </g>
</svg>