<?xml version="1.0" encoding="UTF-8"?>
<svg xmlns:xlink="http://www.w3.org/1999/xlink" id="OBJECTS" xmlns="http://www.w3.org/2000/svg"
     viewBox="0 0 353.52 438.86">
    <defs>
        <style>
            .cls-1 {
            fill: none;
            stroke: #6b371a;
            stroke-miterlimit: 10;
            stroke-width: 5px;
            }

            .cls-2 {
            fill: #ffaa3b;
            }

            .cls-3 {
            fill: #6b371a;
            }

            .cls-4 {
            fill: #e5e5e5;
            }

            .cls-5 {
            fill: #ff792e;
            }

            .cls-6 {
            filter: url(#drop-shadow-1);
            }

            .cls-7 {
            fill: #ddd;
            }

            .cls-8 {
            fill: #efefef;
            }

            .cls-9 {
            fill: #6d4300;
            }

            .cls-10 {
            fill: #c47870;
            }

            .cls-11 {
            fill: #ffcc3e;
            }

            .cls-12 {
            fill: #ffcea6;
            }

            .cls-13 {
            fill: #ccc;
            }

            .cls-14 {
            fill: #935231;
            }

            .cls-15 {
            fill: #4965bf;
            }

            .cls-16 {
            fill: #ef4b4b;
            }

            .cls-17 {
            fill: #ff7171;
            }

            .cls-18 {
            fill: #6d2f00;
            }

            .cls-19 {
            fill: #ffe840;
            }

            .cls-20 {
            fill: #f4cc71;
            }
        </style>
        <filter id="drop-shadow-1" x="0" y="174.14" width="353.52" height="264.72" filterUnits="userSpaceOnUse">
            <feOffset dx="7" dy="7"/>
            <feGaussianBlur result="blur" stdDeviation="5"/>
            <feFlood flood-color="#000" flood-opacity=".45"/>
            <feComposite in2="blur" operator="in"/>
            <feComposite in="SourceGraphic"/>
        </filter>
    </defs>
    <g class="cls-6">
        <g>
            <path class="cls-2"
                  d="M108.1,361.48c4.65,11.53.16,26.34-6.74,36.68-6.9,10.34-18.55,17.37-30.92,18.65,2.69-9.79,6.36-17.57,6.64-27.73-4.36,6.67-22.2,16.04-33.17,19.13-14.28,4.03-21.02,3.27-35.79,4.65,10.4-22.9,26.3-44.25,48.15-56.72-9.24-3.97-20.3-2.66-29.71.89,6.75-15.5,23.28-26.66,40.16-25.7,16.87.97,31.52,5.74,41.37,30.15Z"/>
            <path class="cls-11"
                  d="M102.16,362.47c4.57,9.64,3.07,20.84-.63,28.24-3.7,7.4-11.12,11.65-19.68,11.27.8-7.44,2.5-13.18,1.56-21.18-2.32,4.78-13.84,10.19-21.22,11.4-9.6,1.58-14.44.22-24.69-.35,4.75-16.94,13.56-32.03,27.55-39.43-6.96-4.17-14.6-4.39-20.83-2.64,3.01-11.49,13.41-18.46,25.4-15.8,11.99,2.66,22.85,8.08,32.53,28.49Z"/>
            <path class="cls-19"
                  d="M98.23,362.26c3.19,6.6,2.93,13.66,1.19,18.08-1.74,4.42-5.82,6.47-10.82,5.46.05-4.71.73-8.24-.26-13.46-1.09,2.86-7.48,5.29-11.71,5.4-5.5.15-8.38-1.16-14.37-2.45,1.83-10.45,6.12-19.34,13.85-22.83-4.27-3.31-8.73-4.14-12.25-3.58,1.12-7.11,6.78-10.64,13.9-7.85,7.12,2.79,13.73,7.25,20.48,21.23Z"/>
        </g>
        <g>
            <rect class="cls-13" x="81.59" y="344.18" width="40.95" height="8.61"
                  transform="translate(-117.1 638.01) rotate(-126.55)"/>
            <path class="cls-16"
                  d="M164.08,336.15l-11.21,8.35-8.76,47.36,3.7,4.61c1.63,2.03,4.89,1.21,5.37-1.35l10.91-58.97Z"/>
            <polygon class="cls-7" points="152.87 344.5 143.85 351.22 123.61 366.3 144.11 391.86 152.87 344.5"/>
            <polygon class="cls-17" points="152.87 344.5 143.85 351.22 123.61 366.3 144.11 391.86 152.87 344.5"/>
            <path class="cls-16"
                  d="M132.4,293.41l-11.25,8.3-47.86-5.38-3.34-4.88c-1.47-2.15.26-5.03,2.85-4.74l59.6,6.7Z"/>
            <polygon class="cls-7" points="121.15 301.71 112.09 308.39 91.79 323.37 73.29 296.33 121.15 301.71"/>
            <polygon class="cls-17" points="121.15 301.71 112.09 308.39 91.79 323.37 73.29 296.33 121.15 301.71"/>
            <path class="cls-7"
                  d="M265.61,195.49l27.12,37.74-173.02,124.32c-2.7,1.95-6.34,1.66-8.71-.48l5.28,7.36c2.24,3.12,6.59,3.83,9.71,1.59l173.02-124.32-33.28-46.31-.13.09Z"/>
            <path class="cls-8"
                  d="M92.72,319.72c-3.12,2.24-3.83,6.59-1.59,9.71l19.86,27.63s.01.01.02.02c2.37,2.14,6.01,2.42,8.71.48l173.02-124.32-27.12-37.74-172.89,124.23Z"/>
            <path class="cls-8"
                  d="M92.72,319.72c-3.12,2.24-3.83,6.59-1.59,9.71l19.86,27.63s.01.01.02.02c2.37,2.14,6.01,2.42,8.71.48l173.02-124.32-27.12-37.74-172.89,124.23Z"/>
            <path class="cls-16"
                  d="M322.1,183.46l-11.38,19.28-17.9,30.34,6.19,8.62,17.99-30.48,13.94-23.62c1.55-2.63-.75-5.84-3.74-5.22l-5.1,1.08Z"/>
            <polygon class="cls-8"
                     points="265.74 195.39 282.37 218.55 292.82 233.08 310.72 202.75 322.1 183.46 300.36 188.06 265.74 195.39"/>
            <polygon class="cls-17"
                     points="265.74 195.39 282.37 218.55 292.82 233.08 310.72 202.75 322.1 183.46 300.36 188.06 265.74 195.39"/>
            <path class="cls-16"
                  d="M150.11,313.2l-21.74,27.03c-.09.12-.22.21-.36.27l-32.18,12.94c-.84.34-1.59-.66-1.02-1.37l21.74-27.03c.09-.12.22-.21.36-.27l32.18-12.94c.84-.34,1.59.66,1.02,1.37Z"/>
            <path class="cls-13"
                  d="M255.78,221.94c-4.19,3.11-5.68,8.5-4.04,13.17.38,1.07.92,2.1,1.63,3.05,3.82,5.15,11.08,6.23,16.22,2.41,5.15-3.82,6.23-11.08,2.42-16.23-.71-.96-1.53-1.77-2.45-2.44-3.99-2.93-9.59-3.07-13.78.04Z"/>
            <path class="cls-13"
                  d="M218.8,249.37c-4.19,3.11-5.68,8.5-4.04,13.17.38,1.07.92,2.1,1.63,3.05,3.82,5.15,11.08,6.23,16.22,2.41,5.15-3.82,6.23-11.08,2.41-16.22-.71-.96-1.53-1.77-2.45-2.44-3.99-2.93-9.58-3.07-13.77.04Z"/>
            <path class="cls-4"
                  d="M255.78,221.94c-4.19,3.11-5.68,8.5-4.04,13.17,4,2.93,9.58,3.06,13.77-.04,4.19-3.11,5.69-8.49,4.05-13.17-3.99-2.93-9.59-3.07-13.78.04Z"/>
            <path class="cls-4"
                  d="M218.8,249.37c-4.19,3.11-5.68,8.5-4.04,13.17,4,2.93,9.58,3.06,13.77-.04,4.19-3.11,5.68-8.48,4.04-13.16-3.99-2.93-9.58-3.07-13.77.04Z"/>
            <path class="cls-13"
                  d="M180.85,278.15c-4.19,3.11-5.68,8.5-4.04,13.17.38,1.07.92,2.1,1.63,3.05,3.82,5.15,11.08,6.23,16.22,2.41,5.15-3.82,6.23-11.08,2.41-16.22-.71-.96-1.53-1.77-2.45-2.44-3.99-2.93-9.58-3.07-13.77.04Z"/>
            <path class="cls-4"
                  d="M180.85,278.15c-4.19,3.11-5.68,8.5-4.04,13.17,4,2.93,9.58,3.06,13.77-.04,4.19-3.11,5.68-8.48,4.04-13.16-3.99-2.93-9.58-3.07-13.77.04Z"/>
        </g>
    </g>
    <g>
        <g>
            <path d="M201.81,215.49c-.33.14-.5.51-.37.85,1.1,2.91,4.96,14.32,6.89,18.98.77,1.86,1.4,1.58,2.39,1.17,1.5-.62,3-1.25,4.5-1.86.63-.26,1.06-.85,1.1-1.53.09-1.56.17-3.13.26-4.69.02-.26.29-.41.51-.27,1.48.9,3.18,2.02,4.69,2.95.49.3,1.1.35,1.63.12,6.53-2.77,13.06-5.37,19.59-8.09,2.85-1.18,2.79-5.33-.13-6.3-1.1-.36-2.25-.52-3.29-.4-3.12.35-6.05,1.75-9.17,2.09-5.88.65-10.34-3.68-13.21-8.18-.36-.56-1.07-.78-1.68-.52l-13.71,5.69Z"/>
            <path d="M98.64,270.51c-.33,0-.6.24-.62.57-.16,2.81-1.15,13.66-1.26,18.22-.04,1.82.58,1.82,1.55,1.85,1.47.04,2.94.06,4.4.11.62.02,1.19-.31,1.47-.86.65-1.26,1.29-2.53,1.94-3.78.11-.21.39-.23.52-.04.9,1.29,1.88,2.84,2.79,4.16.3.43.78.69,1.3.7,6.42.1,12.77.35,19.17.5,2.79.07,4.27-3.39,2.2-5.26-.78-.71-1.67-1.25-2.57-1.54-2.71-.86-5.64-.77-8.35-1.63-5.1-1.62-7.2-6.84-7.92-11.61-.09-.59-.6-1.03-1.2-1.05l-13.42-.33Z"/>
            <path class="cls-15"
                  d="M147.46,153.99c.08,1.58.48,3.84,2.12,5.44,2.3,2.24,5.73,1.91,9.51,1.69,8.61-.51-.17.66,17.16-.19,5.8-.28,12.12-.68,17.11,1.45,1.75.75,2.88,1.61,3.58,2.23,2.63,2.34,3.54,5.19,3.83,6.02,1.5,4.29,9.14,19.8,20.59,42.43-6.43,2.8-12.87,5.6-19.3,8.39-7.34-12.35-14.69-24.7-22.03-37.05-6.45,1.09-13.44,2-20.91,2.62-9.81.81-20.81,1.24-29.06,1.01.27,8.73-.43,15.63-1.05,20.06-1.93,13.74-5.23,19.1-8.58,38.55-.47,2.73-.72,4.43-1.65,9.77-1.52,8.71-1.59,15.53-2.47,19.98-6.86-.28-15.13-1.41-21.71-2.32.08-10.31,1.05-15.76,1.48-20.25.94-9.87,3.54-13.05,5.13-26.08.99-8.13.87-14.25.84-15.66-.33-13.44-3.38-19.4-4.23-26.69-.94-8.07.57-19.84,12.01-35.48,12.55,1.36,25.11,2.71,37.66,4.07Z"/>
        </g>
        <g>
            <g>
                <path class="cls-1"
                      d="M60.78,171.32c-3.25,4.29-2.14,10.61,2.48,14.11,4.62,3.5,11,2.86,14.25-1.43,3.25-4.29,2.14-10.61-2.48-14.11-4.62-3.5-11-2.86-14.25,1.43Z"/>
                <path class="cls-3"
                      d="M46.2,158.71l-21.49,28.4c-1.75,2.31-1.3,5.61,1.02,7.37l38.54,29.19c2.31,1.75,5.61,1.3,7.36-1.02l21.49-28.4-46.92-35.54Z"/>
                <path class="cls-14"
                      d="M46.2,158.71l-.79,1.04c-5.69,7.51-4.21,18.22,3.3,23.9l19.73,14.94c7.51,5.69,18.21,4.21,23.9-3.3l.79-1.04-46.92-35.54Z"/>
                <path class="cls-20"
                      d="M56.08,194.41h0c.85.65,2.07.48,2.71-.38l2.49-3.29c.65-.85.48-2.07-.37-2.71h0c-.85-.65-2.07-.48-2.71.37l-2.49,3.29c-.65.85-.48,2.07.37,2.71Z"/>
            </g>
            <g>
                <g>
                    <path class="cls-12"
                          d="M83.96,161.8c-1.03,1.53-1.27,3.46-1.36,5.31-.1,1.85-.1,3.75-.77,5.47-.99,2.57-3.29,4.37-5.48,6.03-.31.24-.69.49-1.07.4-.35-.09-.57-.45-.61-.81-.04-.36.07-.72.18-1.06-.57-.02-1.17-.39-1.51-.85-.34-.46-.46-1.07-.32-1.62-.7-.65-1.12-1.65-1.13-2.61-1.69-1.23-2.42-3.59-1.61-5.52.78-1.88,2.66-3.03,4.13-4.44,1.19-1.15,2.15-2.53,2.81-4.05,2.08,1.46,4.4,2.78,6.75,3.74Z"/>
                    <path class="cls-12"
                          d="M200.15,27.62c3.27-3.45,6.54-6.9,9.8-10.34.38-.4.76-.81.96-1.31.2-.51.18-1.14-.2-1.54-.38-.39-1.15-.37-1.39.12.17-.36.21-.76.26-1.16.06-.39-.02-.82-.3-1.11-.28-.28-.78-.36-1.07-.09.3-.29.52-.71.56-1.13.04-.41-.09-.85-.37-1.15-.45-.49-1.21-.59-1.86-.41-.64.17-1.2.57-1.74.97,1.52-2.9,3.04-5.83,4.56-8.73.23-.43.45-.98.18-1.39-.29-.44-.96-.4-1.44-.19-1.25.54-2,1.8-2.71,2.96-1.84,2.97-3.98,5.76-6.38,8.31-.02-1.27-.41-2.48-1.17-3.5-.76-1.02-1.86-1.78-3.07-2.15-.43-.13-.99-.18-1.25.19-.15.22-.15.51-.06.76.09.25.26.46.42.68,1.43,1.96,2.09,4.47,1.81,6.87-.37,3.2-.24,6.55-2.02,9.24,2.15,1.32,4.31,2.79,6.47,4.11Z"/>
                    <polygon class="cls-12"
                             points="147.62 75.99 149.49 89.52 146.56 97.65 140.35 97.06 131.33 86.39 130.34 81.57 125.46 64.47 147.62 75.99"/>
                    <path class="cls-5"
                          d="M149.66,157.07c.7-.25,1.21-.86,1.36-1.59.9-4.53,4.19-21.24,5.67-32.09,1.73-12.64,3.95-30.21,3.95-30.21,4.9-4.65,7.89-9.15,11.62-14.43,4.29-6.07,8.33-12.33,12.06-18.76,6.31-10.88,12.61-21.75,18.92-32.63-3.63-2.17-7.02-4.7-10.65-6.87-4.51,4.98-8.47,10.48-12.97,15.46-2.74,3.03-5.49,6.06-7.85,9.39-4.47,6.3-7.46,13.51-11.17,20.29-3.71,6.78-12.53,15.56-12.53,15.56.35,1.63.93,3.58-.16,7.36-1.18,4.09-8.82,3.75-10.82,2.15-5.78-4.82-6.74-9.14-6.74-9.14-2.21.8-1.67.75-4.28,2.14-.29.15-3.9,2.08-5.53,3.36-4.59,3.59-2.71-.82-3.88,21.27-.36,6.86-3.15,20.96-3.26,21.82-1.21,9.38-7.81,22.21-7.74,23.25.28,4.11,13.5,6.74,22.03,7.14,5.06.24,12.75-.12,21.99-3.47Z"/>
                    <path class="cls-5"
                          d="M126.52,87.06c2.34,1.3,3.14,3.99,3.42,4.98,1.88,6.72-2.82,13.52-5.5,17.4-6.7,9.71-12.73,19.9-19.96,29.22-4.7,6.05-11.29,14.93-18.72,26.32-3.89-2.46-7.77-4.93-11.65-7.39,2.16-4.6,5.73-11.42,11.28-19.02,4.19-5.74,4.95-5.67,8.11-10.39,3.42-5.11,4.03-7.43,11.26-23.1,4.23-9.17,5.47-11.51,8.43-13.98.77-.64,8.33-6.81,13.35-4.03Z"/>
                    <g>
                        <path class="cls-12"
                              d="M152.38,72.54c-.87,1.32-1.58,2.22-2.98,2.92-.54.27-2.67,1.09-4.23,1.27-3.39.4-6.34.04-9.49-1.48-1.84-.89-3.61-1.34-4.99-3.18-.7-.94-1.24-2.04-2-2.94-1.28-1.51-2.31-2.58-3.13-4.49-.02-.06-.05-.12-.07-.17-.9-3.18-1.96-6.32-1.81-9.69.16-3.63,1.35-7.14,4.49-9.18,4.02-2.61,8.83-2.69,12.91-.16,4.08,2.53,6.18,6.91,8.53,10.89,1.19.2,2.42.3,3.62.51.36.06.8.18.89.59.09.41-.25.7-.54.92-.78.59-1.56,1.16-2.34,1.74.62,2.79,1.12,5.26,1.72,8.18.2.97.06,3.31-.59,4.29Z"/>
                        <path class="cls-18"
                              d="M145.69,56.91c.19.02.39.02.58-.02.62-.11,1.13-.49,1.46-1.1.06-.11.02-.26-.09-.32-.11-.06-.25-.02-.32.09-.19.34-.53.76-1.14.86-.48.08-.96-.05-1.43-.4-.1-.08-.25-.05-.33.05-.07.11-.05.25.05.33.38.28.79.45,1.2.5Z"/>
                        <path class="cls-10"
                              d="M152.09,64c-.85.19-1.86.15-2.61-.38.82-.16,1.65-.33,2.47-.49,0,.29.15.59.14.88Z"/>
                    </g>
                    <path class="cls-9"
                          d="M126.49,45.73c.09-1.3.91-2.47,1.97-3.23,1.06-.75,2.34-1.13,3.63-1.34,2.83-.46,5.67-.13,8.33.94,2.09-1.42,5.18-.88,6.85,1,1.67,1.89,1.89,4.84.72,7.08-1.17,2.24-3.56,3.71-6.06,4.01-1.87.22-3.76-.16-5.61-.53,0,0,.85,2.29,1.66,4.43-.68.3-1.37.6-2.05.9-.44-.66-1.39-1.17-2.16-.97-.77.2-1.39.82-1.7,1.55-.31.73-.34,1.56-.19,2.34.3,1.57,1.32,2.99,2.71,3.77-.29,2.4-2.22,4.57-4.58,5.1-2.36.54-4.91-.27-6.76-1.83-1.85-1.56-3.05-3.8-3.65-6.14-.32-1.24-.49-2.57-.13-3.8.36-1.23,1.35-2.34,2.62-2.54-.92-2.13-1.4-4.79-.58-6.97.82-2.18,2.68-4.06,4.99-3.77Z"/>
                </g>
                <polygon class="cls-15" points="144.9 91.06 148.55 93.79 145.38 97.86 141.17 94.03 144.9 91.06"/>
                <path class="cls-15"
                      d="M145.96,95.49c2.37.96,3.79,3.66,3.61,6.21-.18,2.55-1.77,4.88-3.87,6.33-2.11,1.45-4.69,2.1-7.24,2.26-7.68.47-14.94-3.22-21.75-6.82-4.17-2.2-8.33-4.4-12.5-6.59-.59-2.05-1.23-4.44-1.82-6.49,2.31-.03,4.59-.33,6.9-.36,10.05,6.57,17.56,10.21,28.68,13.59,2.05.62,5.75.16,7.07-1.02,1.86-1.66,1.43-4.66.92-7.1Z"/>
            </g>
        </g>
    </g>
</svg>