<?xml version="1.0" encoding="UTF-8"?>
<svg id="OBJECTS" xmlns="http://www.w3.org/2000/svg" viewBox="0 0 381.34 381.2">
    <defs>
        <style>
            .cls-1 {
            fill: #ec7d66;
            }

            .cls-2 {
            fill: #572d14;
            }

            .cls-3 {
            fill: #fdb771;
            }

            .cls-4 {
            fill: #d71a29;
            }

            .cls-5 {
            fill: #0b0b1d;
            }

            .cls-6 {
            fill: #83e2d6;
            }

            .cls-7 {
            fill: #1e1e1e;
            }

            .cls-8 {
            fill: #ff9115;
            }

            .cls-9 {
            fill: #001c34;
            }

            .cls-10 {
            fill: #005283;
            }

            .cls-11 {
            fill: #3e2200;
            }

            .cls-12 {
            fill: #d33436;
            }

            .cls-13 {
            fill: #001324;
            }

            .cls-14 {
            fill: #750028;
            }

            .cls-15 {
            fill: #823f00;
            }

            .cls-16 {
            fill: #fd8867;
            }

            .cls-17 {
            fill: #391301;
            }

            .cls-18 {
            fill: #160400;
            }

            .cls-19 {
            fill: #5f2402;
            }

            .cls-20 {
            fill: #cb1337;
            }

            .cls-21 {
            fill: #00cfd9;
            }

            .cls-22 {
            fill: #e6f6f5;
            }

            .cls-23 {
            fill: #ff4656;
            }

            .cls-24 {
            fill: #0099ae;
            }

            .cls-25 {
            fill: #ff6800;
            }

            .cls-26 {
            fill: #ffe019;
            }

            .cls-27 {
            fill: #00366a;
            }

            .cls-28 {
            fill: #d8f8ff;
            }

            .cls-29 {
            fill: #1c3948;
            }

            .cls-30 {
            fill: #a2073d;
            }

            .cls-31 {
            fill: #fd2337;
            }
        </style>
    </defs>
    <g>
        <path class="cls-24"
              d="M46.02,381.2H15.05c-6.16,0-11.2-5.04-11.2-11.2v-50.67c0-6.16,5.04-11.2,11.2-11.2h30.97c.91,0,1.72.47,3.96,1.17,3.54,1.12,5.94,4.42,5.94,8.13v57.32c0,2.16-1.46,4.05-3.55,4.59-4.16,1.07-5.17,1.85-6.35,1.85Z"/>
        <path class="cls-21"
              d="M5.24,308.13h34.36c2.89,0,5.24,2.35,5.24,5.24v67.83H0v-67.83c0-2.89,2.35-5.24,5.24-5.24Z"/>
    </g>
    <g>
        <path class="cls-27"
              d="M110.73,381.2h-30.97c-6.16,0-11.2-5.04-11.2-11.2v-80.56c0-6.16,5.04-11.2,11.2-11.2h30.97c.91,0,1.72.47,3.96,1.17,3.54,1.12,5.94,4.42,5.94,8.13v87.21c0,2.16-1.46,4.05-3.55,4.59-4.16,1.07-5.17,1.85-6.35,1.85Z"/>
        <path class="cls-10"
              d="M69.95,278.24h34.36c2.89,0,5.24,2.35,5.24,5.24v97.72h-44.83v-97.72c0-2.89,2.35-5.24,5.24-5.24Z"/>
    </g>
    <g>
        <path class="cls-4"
              d="M256.57,381.2h-37.63c-6.16,0-11.2-5.04-11.2-11.2v-186.01c0-6.16,5.04-11.2,11.2-11.2h37.63c.91,0,1.72.47,3.96,1.17,3.54,1.12,5.94,4.42,5.94,8.13v192.66c0,2.16-1.46,4.05-3.55,4.59-4.16,1.07-5.17,1.85-6.35,1.85Z"/>
        <path class="cls-23"
              d="M211.58,172.79h34.97c4.56,0,8.26,3.7,8.26,8.26v200.15h-51.49v-200.15c0-4.56,3.7-8.26,8.26-8.26Z"/>
    </g>
    <g>
        <path class="cls-14"
              d="M182.09,381.2h-37.63c-6.16,0-11.2-5.04-11.2-11.2v-128.06c0-6.16,5.04-11.2,11.2-11.2h37.63c.91,0,1.72.47,3.96,1.17,3.54,1.12,5.94,4.42,5.94,8.13v134.71c0,2.16-1.46,4.05-3.55,4.59-4.16,1.07-5.17,1.85-6.35,1.85Z"/>
        <path class="cls-30"
              d="M136.5,230.75c-1.79,0-3.44.62-4.75,1.66,3-.98,7.7-1.61,12.98-1.61,9.07,0,16.42,1.86,16.42,4.16s-7.35,4.16-16.42,4.16c-7.26,0-13.42-1.19-15.59-2.85-.2.68-.31,1.4-.31,2.15v142.79h51.49v-150.45h-43.83Z"/>
    </g>
    <g>
        <path class="cls-25"
              d="M336.93,381.2h-37.63c-6.16,0-11.2-6.89-11.2-15.31V111.47c0-8.42,5.04-15.31,11.2-15.31h37.63c.91,0,1.72.64,3.96,1.6,3.54,1.53,5.94,6.04,5.94,11.12v259.6c0,5.08-2.4,9.59-5.94,11.12-2.24.97-3.05,1.6-3.96,1.6Z"/>
        <path class="cls-8"
              d="M291.94,96.16h34.97c4.56,0,8.26,3.7,8.26,8.26v276.79h-51.49V104.42c0-4.56,3.7-8.26,8.26-8.26Z"/>
    </g>
    <g>
        <path class="cls-11"
              d="M309.39,101.35v-56.94c0-.89.72-1.62,1.62-1.62h0c.89,0,1.62.72,1.62,1.62v56.94c0,.89-.72,1.62-1.62,1.62h0c-.89,0-1.62-.72-1.62-1.62Z"/>
        <path class="cls-11"
              d="M309.39,41.18V1.62c0-.89.72-1.62,1.62-1.62h0c.89,0,1.62.72,1.62,1.62v39.56c0,.89-.72,1.62-1.62,1.62h0c-.89,0-1.62-.72-1.62-1.62Z"/>
        <g>
            <path class="cls-31" d="M309.39,6.47v38.99h3.23V5.32c-1.07.34-2.15.73-3.23,1.15Z"/>
            <path class="cls-31"
                  d="M351.11,11.74c-8.33-7.75-21.08-10.82-34.97-7.41-.75,9.64,1.07,33.61.21,39.22,6.23-2.69,19.45-6.28,33.21,3.12,13.3-16.18,1.56-34.92,1.56-34.93Z"/>
            <path class="cls-20"
                  d="M316.14,4.32c-1.17.29-2.34.62-3.52,1v40.14s1.36-.89,3.72-1.91c.86-5.61-.95-29.58-.21-39.22Z"/>
            <path class="cls-20"
                  d="M368.66,40.65c10.4-2.47,12.68-13.24,12.68-13.24-16.1,10.04-20.52,1.81-21.53-1.1,0-.02,0-.04-.01-.06-1.27-5.89-4.6-10.72-8.68-14.51,0,0,11.75,18.74-1.56,34.93.24.16.48.33.72.5,19.4,13.88,29.56-4.56,29.56-4.56,0,0-5.7,1.36-11.18-1.97Z"/>
        </g>
    </g>
    <g>
        <path class="cls-4"
              d="M261.34,175.81c1.33,2.11-5.2,4.64-17,6.39-9.75,1.44-17.53.79-17.73-1.31-.2-2.11,6.8-6.28,16.61-7.21,9.81-.93,16.99.35,18.12,2.13Z"/>
        <path class="cls-14"
              d="M161.15,234.96c0-2.3-7.35-4.16-16.42-4.16-5.28,0-9.98.63-12.98,1.61-1.23.97-2.15,2.32-2.6,3.85,2.17,1.66,8.1,4.38,15.37,4.38,9.07,0,16.64-3.39,16.64-5.69Z"/>
        <path class="cls-18"
              d="M180,54.61s2.82-3.24,8.23,1.07c6.49,5.17,2.4,20.74-1.44,22.64-3.85,1.9-11.93-7.61-10.62-18.06"/>
        <path class="cls-9"
              d="M153.76,93.91l-3.51,51.34s13.79,5.08,29.72-.6l2.42-3.4,2.63,1.97,3.15-1.17-7.71-44.6s-24.63.59-26.7-3.55Z"/>
        <path class="cls-3" d="M148.19,61.25s-4.37,39.62,19.09,40.73c25.4,1.2,21.66-37.06,18.73-48.03"/>
        <g>
            <path class="cls-17"
                  d="M155.36,60.07l-4.16-5.42s-1.01-1.03-2.86-1c0,0-5.27,3.04-4.93,9.21.35,6.17,6.77,5.18,6.77,5.18l-5.59,1.94-1.91,1.52-1.27.32c1.14,3.46,2.86,6.24,4.42,6.9,3.95,1.67,11.46-8.31,9.52-18.65Z"/>
            <path class="cls-18"
                  d="M144.6,69.98l5.59-1.94s-6.43.99-6.77-5.18c-.35-6.17,4.93-9.21,4.93-9.21-1.34.02-3.13.61-5.29,2.55-3.74,3.36-3.38,10.3-1.63,15.62l1.27-.32,1.91-1.52Z"/>
        </g>
        <path class="cls-17"
              d="M164.22,43.39c18.39-2.41,26.02,7.04,26.49,11.82,1.02,10.42-6.75,4.27-18.54,6.39-11.87,2.14-22.86.89-23.17-3.91-.55-8.4,3.26-12.74,15.22-14.31Z"/>
        <g>
            <path class="cls-12"
                  d="M181.21,84.34l-13.41.4s.12,1.64.59,3.66c0,0,7.5-.81,8.85,6.85,3.78-2.66,3.97-10.92,3.97-10.92Z"/>
            <path class="cls-16"
                  d="M168.4,88.4c.79,3.35,2.55,7.78,6.39,7.67.95-.03,1.76-.33,2.45-.82-1.34-7.67-8.85-6.85-8.85-6.85Z"/>
        </g>
        <path class="cls-7"
              d="M168.96,74.24c.04,1.34-.6,2.45-1.44,2.47-.83.02-1.54-1.04-1.58-2.38s.6-2.45,1.44-2.47,1.54,1.04,1.58,2.38Z"/>
        <path class="cls-7"
              d="M185.12,73.72c.04,1.34-.6,2.45-1.44,2.47-.83.02-1.54-1.04-1.58-2.38s.6-2.45,1.44-2.47c.83-.02,1.54,1.04,1.58,2.38Z"/>
        <polygon class="cls-22" points="168.03 86.53 181.04 86.41 181.28 84.34 167.8 84.74 168.03 86.53"/>
        <path class="cls-18"
              d="M141.18,71.06s2.53-3.49,7.58-3.15c5.05.34,5.9,1.86,5.9,1.86l-1.27,3.07s-8.76,3.8-11.44,1.12l-.77-2.9Z"/>
        <path class="cls-3"
              d="M155.73,78.02c.12,4.08-3.09,7.49-7.17,7.61-4.08.12-7.49-3.09-7.61-7.17-.12-4.08,3.09-7.49,7.17-7.61,4.08-.12,7.49,3.09,7.61,7.17Z"/>
        <path class="cls-16" d="M149.98,74.56s-2.8-1.04-4.48.79c-1.78,1.95-1.35,7.16,3.74,7.19l.74-7.98Z"/>
        <path class="cls-18"
              d="M150.03,53.95s4.8,1.63,5.6,8.25c0,0,7.69,1.88,18.88-1.14,0,0-9.84.69-13.51-2.77s-8.35-5.33-10.97-4.33Z"/>
        <path class="cls-18" d="M154.68,69.85s.69,12.17-1.91,12.25c-2.6.08.57-8.15-.66-11.36"/>
        <path class="cls-6" d="M167.5,101.98l9.55,14.61.88-17s-4.57,2.71-10.43,2.39Z"/>
        <path class="cls-28" d="M172.12,109.04l2.39-6.62,3.11,3.18.38-6.05s-4.96,2.75-10.5,2.43l4.62,7.06Z"/>
        <path class="cls-31" d="M172.1,109s1.01,1.27,3.6.71c2.58-.56,1.83-4.12,1.83-4.12l-3.02-3.16-2.41,6.57Z"/>
        <polyline class="cls-31" points="174.92 109.82 175.64 114.43 177.04 116.65 177.36 110.63 176.47 108.38"/>
        <path class="cls-29"
              d="M182,136.23c.02.67-.51,1.23-1.18,1.25-.67.02-1.23-.51-1.25-1.18s.51-1.23,1.18-1.25,1.23.51,1.25,1.18Z"/>
        <path class="cls-29"
              d="M180.91,128.57c.02.67-.51,1.23-1.18,1.25-.67.02-1.23-.51-1.25-1.18s.51-1.23,1.18-1.25c.67-.02,1.23.51,1.25,1.18Z"/>
        <path class="cls-29"
              d="M153.76,93.91l-.48,5.57,12.01,10.37,13.59,13.89h0c.44-2.19.53-3.01.66-5.25l1.31-16.83-.89-3.55-1.96,1.45-.95,17.1-9.54-14.67s-9.34-1.89-13.74-8.07Z"/>
        <path class="cls-11"
              d="M232.22,169.16s-1.1,5.83-.18,9.78c0,0,21.7,1.54,29.12-11.25,7.42-12.79-12.03.82-20.32-1.01,0,0-3.71-.25-8.61,2.48Z"/>
        <path class="cls-11"
              d="M132.54,220.64c-2.62,1.61-5.09,3.54-6.93,5.91,7.66,10.08,20.26,15.68,31.6,6.21,11.34-9.47-18.99.28-16.99-9.94.49-2.5-5.92-.53-7.68-2.18Z"/>
        <path class="cls-9"
              d="M181.95,107.98s11.34,12.17,19.96,11.39c10.96-1,26.23-25.62,26.23-25.62l-4.38-4.16s-13.56,15.63-22.11,17.73c-8.55,2.1-21.2-9.86-21.2-9.86l1.49,10.52Z"/>
        <path class="cls-16"
              d="M176.49,82.69c-1.18,0-1.99-.46-2.04-.49-.33-.19-.44-.6-.25-.93.19-.33.6-.44.93-.25.05.03,1.28.69,2.76-.02.24-.11.26-.21.27-.24.11-.47-.74-1.54-1.15-2.05-.41-.52-.66-.84-.71-1.17-.37-2.3-.37-4.09-.37-4.16,0-.38.3-.68.68-.68h0c.38,0,.68.3.68.68,0,.02,0,1.73.34,3.89.07.12.29.39.45.6.7.89,1.66,2.1,1.41,3.21-.08.35-.32.83-1.01,1.16-.71.34-1.39.45-1.98.45ZM177.64,77.33h0,0Z"/>
        <path class="cls-9"
              d="M157.37,112.71s-17.36-4.26-25.41,15.55c-7.15,17.59-2.36,25.89-2.36,25.89l-8.29.94c-2.63-6.14-4.32-18.44,3.27-32.66,7.59-14.22,21.8-22.9,29.55-22.75,2.24.05,4,.35,5.33.72,4.13,1.15,6.05,5.98,3.72,9.57-.05.07-.1.15-.15.22-2.92,4.18-5.67,2.52-5.67,2.52Z"/>
        <path class="cls-17"
              d="M177.36,43.83s5.25.87,7.87-1.31c2.44-2.04,3.77,1.13,4.16,2.41,1.53,5.04,5.25,13.14-1.23,16.4"/>
        <path class="cls-9"
              d="M150.64,144.1s-1.24,14.07,9.96,16.33c17.04,3.44,50.49-17.15,55.52-9.7,5.57,8.25,16.1,18.53,16.1,18.53l8.62-2.62s-12.54-23.51-19.71-26.64-22.95-5.29-48.44,4.9"/>
        <path class="cls-9"
              d="M176.91,156.58s.65,33.18-8.76,41.6c-12.48,11.17-23.21,20.58-28.02,25.4l-8.32-2.41s8.32-19.27,22.99-26.71c0,0,10.69-20.08,3.94-35.69"/>
        <path class="cls-19"
              d="M185.98,68.97c-.25,0-.49-.13-.62-.36-.38-.69-1.06-1.16-1.8-1.27-.63-.09-1.22.09-1.68.53-.28.27-.74.26-1.01-.02-.27-.28-.26-.74.02-1.01.78-.75,1.8-1.07,2.87-.91,1.18.18,2.24.92,2.84,1.99.19.34.07.78-.27.97-.11.06-.23.09-.35.09Z"/>
        <path class="cls-19"
              d="M163.33,70.11c-.09,0-.18-.02-.27-.05-.36-.15-.54-.57-.39-.93.46-1.13,1.43-2,2.57-2.32,1.05-.29,2.1-.09,2.96.55.32.24.38.68.15,1-.24.32-.68.38-1,.15-.5-.38-1.12-.49-1.73-.32-.73.2-1.34.76-1.64,1.48-.11.28-.38.44-.66.44Z"/>
        <path class="cls-3"
              d="M227.96,93.65s4.3-1.87,4.98-6.3c1.16-.04,2.12-.64,2.75-2.16,2.24-5.47-6.13-7.57-6.13-7.57,2.9-4.49,2.09-13.78-1.88-8.84-3.03,3.77-4.11,7.82-4.45,9.52-1.19.03-2.29.52-3.06,1.69-3.04,4.61,2.78,9.03,2.78,9.03"/>
        <path class="cls-1"
              d="M222.93,85.12s4.35,1.07,7-1.49c2.65-2.57-1.14-4.37-1.14-4.37,0,0,3.06.98,2.37,3.54-.69,2.56-4.7,4.11-8.22,2.31"/>
        <path class="cls-1"
              d="M229.66,84.83s.98,1.84,3.27,2.52c0,0-.24,1.68-1.06,2.9,0,0,.42-1.12-.8-2.24-1.23-1.12-2.45-2.25-2.54-2.9,0,0,.71-.65,1.13-.27Z"/>
        <path class="cls-1" d="M231.29,86.56s3.37-1.7,2.49-4.1c0,0,1.66,2.29-1.86,4.48,0,0-.65-.15-.63-.38Z"/>
        <path class="cls-1"
              d="M232.05,86.09s-.75.49-1.36-.2c-.6-.69-.37-1.63-.37-1.63,0,0-.84-.11-.86.46-.03.57,0,.31.22.84.22.54.47.81.71,1.09.24.28.62.43.62.43,0,0,.26.02.4-.1.14-.12.81-.38.65-.89Z"/>
        <path class="cls-1"
              d="M232.52,86.52s.22.66,1.31.66c0,0-2.07,1.08-2.14.52-.07-.57-.09-.83-.13-.87-.03-.04.55-.34.55-.34"/>
        <path class="cls-1" d="M228.75,85.35s1.04,2.3-2.26,2.99c0,0,2.94.03,3.15-1.7"/>
        <path class="cls-1" d="M223.12,78.36s3.16-.57,5.29.74c0,0-1.77-1.73-5.08-1.34l-.21.59"/>
        <g>
            <path class="cls-1" d="M130.06,155.71s5.64,3.01,6.35,5.25c1.31,4.16-2.8,3.91-2.8,3.91"/>
            <path class="cls-5"
                  d="M140.55,174.55l-2.16.4-1.91-10.31c-.06-.35-.35-.61-.61-.56l-13.6,2.51c-.26.05-.43.39-.37.74l1.91,10.31-2.16.4-1.91-10.31c-.29-1.55.67-3.03,2.13-3.3l13.6-2.51c1.46-.27,2.88.77,3.17,2.32l1.91,10.31Z"/>
            <path class="cls-3"
                  d="M121.31,155.05s-2.19,14.23,4.12,14.77c3.99.34,5.95,1,9.21-1.85,2.83-2.48-.07-7.54-1.72-9.41-2.76-3.15-3.5-4.38-3.5-4.38"/>
            <g>
                <path class="cls-2"
                      d="M148.47,170.62l-35.2,6.51c-.17.03-.33.09-.48.16l32.01-5.92c.95-.18,1.88.46,2.05,1.41l4.54,24.53c.14.78-.26,1.54-.94,1.89l3.19-.59c.95-.18,1.59-1.1,1.41-2.05l-4.54-24.53c-.18-.95-1.1-1.59-2.05-1.41Z"/>
                <path class="cls-15"
                      d="M151.4,197.32l-4.54-24.53c-.18-.95-1.1-1.59-2.05-1.41l-32.01,5.92c-.68.34-1.08,1.11-.94,1.89l4.54,24.53c.18.95,1.1,1.59,2.05,1.41l32.01-5.92c.68-.34,1.08-1.11.94-1.89Z"/>
            </g>
            <rect class="cls-15" x="120" y="174.01" width="4.55" height="3.52" rx="1.6" ry="1.6"
                  transform="translate(-29.92 25.16) rotate(-10.47)"/>
            <rect class="cls-15" x="137.02" y="170.86" width="4.55" height="3.52" rx="1.6" ry="1.6"
                  transform="translate(-29.07 28.21) rotate(-10.48)"/>
            <path class="cls-2"
                  d="M148.95,184.07s-3.98,5.11-16.78,6.88c-12.8,1.77-18.2-.41-18.2-.41l.21,1.15s8.39,2.23,18.2.41c11.11-2.05,16.03-5.31,16.87-6.4l-.3-1.64Z"/>
            <g>
                <path class="cls-25"
                      d="M132.88,188.88l-.48.09c.1-.02.19.05.2.14l.76,4.13c.02.1-.05.19-.14.2l.48-.09c.1-.02.16-.11.14-.2l-.76-4.13c-.02-.1-.11-.16-.2-.14Z"/>
                <rect class="cls-8" x="129.95" y="189.17" width="3.06" height="4.55" rx=".18" ry=".18"
                      transform="translate(-32.62 27.1) rotate(-10.48)"/>
            </g>
        </g>
        <path class="cls-13" d="M159.27,160.09s2.63,6.41,1.6,13.27l15.69-4.89.36-9.43s-11.22,4.13-17.66,1.05Z"/>
        <path class="cls-13"
              d="M150.42,144.76s15.76,5.91,30.87-.88l.66-2.63,3.28,1.09,2.87-1.09s-3.96,6.35-16.01,8.54c-12.04,2.19-17.51-2.19-20.14,3.07,0,0-1.31-2.41-1.53-8.1Z"/>
        <path class="cls-13" d="M180.42,97.47l2.02,10.91s4.27,4.26,6.27,5.51c0,0-4.95-8.22-5.08-13.74l-3.2-2.68Z"/>
        <rect class="cls-26" x="120.33" y="48.19" width="2.62" height="13.57" rx="1.19" ry="1.19"
              transform="translate(40.63 161.07) rotate(-76.96)"/>
        <path class="cls-26"
              d="M122.76,76.35h.24c.66,0,1.19.53,1.19,1.19v11.2c0,.66-.53,1.19-1.19,1.19h-.24c-.66,0-1.19-.53-1.19-1.19v-11.2c0-.66.53-1.19,1.19-1.19Z"
              transform="translate(76.13 223.94) rotate(-105.71)"/>
        <path class="cls-26"
              d="M135.22,24.76h.24c.66,0,1.19.53,1.19,1.19v11.19c0,.66-.53,1.19-1.19,1.19h-.24c-.66,0-1.19-.53-1.19-1.19v-11.2c0-.66.53-1.19,1.19-1.19Z"
              transform="translate(24.68 115.61) rotate(-50.34)"/>
        <path class="cls-26"
              d="M162.39,16.29h.24c.66,0,1.19.53,1.19,1.19v11.2c0,.66-.53,1.19-1.19,1.19h-.24c-.66,0-1.19-.53-1.19-1.19v-11.19c0-.66.53-1.19,1.19-1.19Z"
              transform="translate(-1.61 20.64) rotate(-7.23)"/>
        <path class="cls-26"
              d="M206.2,36.5h.24c.66,0,1.19.53,1.19,1.19v11.2c0,.66-.53,1.19-1.19,1.19h-.24c-.66,0-1.19-.53-1.19-1.19v-11.19c0-.66.53-1.19,1.19-1.19Z"
              transform="translate(259.2 247.37) rotate(-116.37)"/>
        <path class="cls-26"
              d="M211.49,64.19h.24c.66,0,1.19.53,1.19,1.19v11.2c0,.66-.53,1.19-1.19,1.19h-.24c-.66,0-1.19-.53-1.19-1.19v-11.2c0-.66.53-1.19,1.19-1.19Z"
              transform="translate(132.02 279.5) rotate(-87.65)"/>
        <path class="cls-26"
              d="M190.08,18.44h.24c.66,0,1.19.53,1.19,1.19v11.19c0,.66-.53,1.19-1.19,1.19h-.24c-.66,0-1.19-.53-1.19-1.19v-11.2c0-.66.53-1.19,1.19-1.19Z"
              transform="translate(342.3 142.19) rotate(-150)"/>
    </g>
</svg>