<?xml version="1.0" encoding="utf-8"?>
<!-- Generator: Adobe Illustrator 27.5.0, SVG Export Plug-In . SVG Version: 6.00 Build 0)  -->
<svg xmlns:xlink="http://www.w3.org/1999/xlink" version="1.1" xmlns="http://www.w3.org/2000/svg" x="0px" y="0px"
     viewBox="0 0 500 500" style="enable-background:new 0 0 500 500;" xml:space="preserve">
<g id="BACKGROUND">
</g>
    <g id="OBJECTS">
	<path style="opacity:0.32;fill:#69ADF7;" d="M48,370C48,260.371,69,98,246.5,98C417,98,445,260.371,445,370H48z"/>
        <g>
		<path style="fill:#A4BBF9;" d="M152.931,267.42l5.68-4.013l-5.427-11.257l-6.677,1.945l-7.525-8.736l2.912-6.315l-10.329-7.035
			l-4.81,5.023l-10.884-3.803l-0.636-6.926l-12.462-0.928l-1.654,6.755l-11.328,2.149l-4.013-5.68l-11.257,5.427l1.944,6.677
			l-8.736,7.525l-6.315-2.912l-7.035,10.329l5.023,4.81l-3.803,10.885l-6.925,0.635l-0.928,12.463l6.755,1.654l2.149,11.328
			l-5.68,4.013l5.427,11.257l6.677-1.945l7.525,8.736l-2.913,6.315l10.329,7.035l4.81-5.023l10.885,3.803l0.635,6.926l12.463,0.928
			l1.655-6.755l11.328-2.149l4.013,5.68l11.257-5.427l-1.945-6.677l8.736-7.525l6.315,2.912l7.035-10.329l-5.023-4.81l3.803-10.885
			l6.925-0.635l0.928-12.463l-6.755-1.654L152.931,267.42z M110.729,310.418c-15.463,3.281-30.658-6.595-33.939-22.058
			c-3.281-15.463,6.595-30.658,22.058-33.939c15.463-3.281,30.658,6.595,33.939,22.058
			C136.068,291.941,126.193,307.137,110.729,310.418z"/>
            <path style="fill:#A4BBF9;" d="M246.367,162.639l9.095-3.91l-4.232-17.279l-9.872,0.735l-7.897-14.388l5.921-7.933l-12.304-12.848
			l-8.182,5.573l-14.033-8.512l1.161-9.831l-17.079-4.974l-4.299,8.917l-16.409-0.355l-3.91-9.095l-17.279,4.231l0.735,9.872
			l-14.387,7.897l-7.933-5.921l-12.848,12.304l5.573,8.182l-8.512,14.033l-9.831-1.161l-4.975,17.08l8.917,4.299l-0.355,16.408
			l-9.095,3.91l4.231,17.279l9.872-0.735l7.897,14.388l-5.922,7.933l12.304,12.848l8.182-5.573l14.033,8.512l-1.162,9.831
			l17.08,4.975l4.3-8.917l16.408,0.355l3.91,9.095l17.279-4.231l-0.735-9.872l14.388-7.897l7.934,5.921l12.848-12.304l-5.573-8.182
			l8.512-14.033l9.831,1.161l4.975-17.08l-8.918-4.299L246.367,162.639z M174.899,210.044c-22.501,0-40.742-18.241-40.742-40.743
			s18.241-40.742,40.742-40.742s40.743,18.241,40.743,40.742S197.401,210.044,174.899,210.044z"/>
	</g>
        <g>

			<circle style="fill:none;stroke:#FFFFFF;stroke-width:3.4444;stroke-miterlimit:10;stroke-dasharray:13.7768,13.7768;"
                    cx="265.814" cy="242.386" r="122.783"/>
	</g>
        <g>
		<path style="fill:#82AD85;" d="M454.991,260.742c0.548,10.693-23.786,13.636-57.728,17.778
			c-33.942,4.141-67.837,25.946-67.837,25.946s17.592-43.157,59.552-55.867C430.938,235.89,454.456,250.316,454.991,260.742z"/>
            <path style="fill:none;stroke:#FFFFFF;stroke-width:0.9219;stroke-linecap:round;stroke-miterlimit:10;" d="M441.361,258.875
			c0,0-68.863-13.104-111.935,45.591"/>
            <polyline style="fill:none;stroke:#FFFFFF;stroke-width:0.9219;stroke-linecap:round;stroke-miterlimit:10;"
                      points="
			437.886,250.857 429.697,257.735 437.886,265.672 		"/>
            <polyline style="fill:none;stroke:#FFFFFF;stroke-width:0.9219;stroke-linecap:round;stroke-miterlimit:10;"
                      points="
			419.445,246.406 407.699,258.709 423.454,269.832 		"/>
            <polyline style="fill:none;stroke:#FFFFFF;stroke-width:0.9219;stroke-linecap:round;stroke-miterlimit:10;"
                      points="
			395.469,250.857 387.856,262.937 399.668,274.044 		"/>
            <polyline style="fill:none;stroke:#FFFFFF;stroke-width:0.9219;stroke-linecap:round;stroke-miterlimit:10;"
                      points="
			355.57,274.044 353.196,280.317 357.346,283.638 		"/>
	</g>
        <g>
		<path style="fill:#8BBB90;" d="M388.443,181.636c-0.567-1.955-20.579,5.345-20.579,5.345s0.604,16.883-1.302,17.127
			c-1.905,0.245-13.366-8.543-13.366-8.543s-16.508,11.816-23.771,28.074c0,0,9.842,10.904,9.307,13.849
			c-0.534,2.945-18.975,6.015-18.975,6.015s-3.084,15.248-2.21,28.538c0,0,9.159,2.868,9.159,4.204c0,1.336-9.315,8.285-9.315,8.285
			s-1.387,15.768,0.623,18.174c2.01,2.405,19.382-6.682,19.382-6.682s0.738-11.225,2.908-13.363
			c2.17-2.138,11.673,6.147,11.673,6.147s15.748-14.735,21.83-23.136c6.083-8.401,6.737-12.048,6.737-12.048
			s-14.483-7.316-13.983-10.119c0.5-2.803,21.881-6.015,21.881-6.015s3.207-16.458,3.207-25.999c0,0-13.63,1.094-14.432-1.417
			c-0.802-2.511,14.432-12.814,14.432-12.814S390.848,189.921,388.443,181.636z"/>
            <path style="fill:none;stroke:#FFFFFF;stroke-width:0.9219;stroke-linecap:round;stroke-miterlimit:10;" d="M383.632,186.982
			c0,0-36.635,68.578-65.618,115.724"/>
	</g>
        <g>
		<path style="fill:#8BBB90;" d="M446.511,290.26c0.309,1.692-24.897,39.921-66.453,42.728
			c-41.557,2.808-59.307-19.072-59.307-19.072s20.078-27.775,53.775-33.608C408.223,274.477,446.05,287.737,446.511,290.26z"/>
            <path style="fill:none;stroke:#FFFFFF;stroke-width:0.9219;stroke-linecap:round;stroke-miterlimit:10;" d="M320.751,313.917
			c0,0,62.087-16.404,109.327-19.234"/>
            <polyline style="fill:none;stroke:#FFFFFF;stroke-width:0.9219;stroke-linecap:round;stroke-miterlimit:10;"
                      points="
			418.448,286.381 410.894,296.43 422.402,304.622 		"/>
            <polyline style="fill:none;stroke:#FFFFFF;stroke-width:0.9219;stroke-linecap:round;stroke-miterlimit:10;"
                      points="
			402.145,285.263 393.224,298.859 408.493,313.797 		"/>
            <polyline style="fill:none;stroke:#FFFFFF;stroke-width:0.9219;stroke-linecap:round;stroke-miterlimit:10;"
                      points="
			357.154,293.858 349.915,307.018 357.937,320.803 		"/>
	</g>
        <path style="fill:none;stroke:#BA5454;stroke-width:0.9219;stroke-linecap:round;stroke-miterlimit:10;" d="M380.078,328.484
		c0,0-0.226,8.299,1.331,13.864"/>
        <g>
		<path style="fill:#69ADF7;" d="M168.593,212.341c-0.582-1.635-1.039-10.206-1.039-10.206v-34.11c0-5.307-4.302-9.608-9.608-9.608
			H74.144c-5.306,0-9.608,4.302-9.608,9.608v48.166c0,5.306,4.302,9.608,9.608,9.608h75.134h8.668h23.248
			C181.194,225.8,170.403,217.423,168.593,212.341z"/>
            <g>

				<ellipse transform="matrix(0.7071 -0.7071 0.7071 0.7071 -103.5004 118.992)" style="fill:#1F3E56;"
                         cx="91.886" cy="184.432" rx="7.677" ry="7.677"/>
                <path style="fill:#1F3E56;"
                      d="M78.983,208.587c0-7.126,5.777-12.903,12.903-12.903s12.903,5.777,12.903,12.903H78.983z"/>
		</g>
            <g>
			<path style="fill:#1F3E56;" d="M155.347,184.432h-43.909c-1.363,0-2.468-1.105-2.468-2.468l0,0c0-1.363,1.105-2.468,2.468-2.468
				h43.909c1.363,0,2.468,1.105,2.468,2.468l0,0C157.815,183.327,156.71,184.432,155.347,184.432z"/>
                <path style="fill:#1F3E56;" d="M155.347,193.625h-43.909c-1.363,0-2.468-1.105-2.468-2.468l0,0c0-1.363,1.105-2.468,2.468-2.468
				h43.909c1.363,0,2.468,1.105,2.468,2.468l0,0C157.815,192.52,156.71,193.625,155.347,193.625z"/>
                <path style="fill:#1F3E56;" d="M132.855,203.82h-21.417c-1.363,0-2.468-1.105-2.468-2.468l0,0c0-1.363,1.105-2.468,2.468-2.468
				h21.417c1.363,0,2.468,1.105,2.468,2.468l0,0C135.322,202.715,134.217,203.82,132.855,203.82z"/>
		</g>
            <path style="fill:#1F3E56;" d="M167.554,169.301H64.536v-1.37c0-5.254,4.259-9.513,9.513-9.513h83.991
			c5.254,0,9.514,4.259,9.514,9.513V169.301z"/>
            <g>
			<circle style="fill:#FFFFFF;" cx="145.676" cy="164.233" r="2.646"/>
                <path style="fill:#FFFFFF;" d="M156.995,164.233c0,1.461-1.184,2.646-2.646,2.646c-1.461,0-2.646-1.185-2.646-2.646
				s1.184-2.646,2.646-2.646C155.811,161.587,156.995,162.771,156.995,164.233z"/>
                <circle style="fill:#FFFFFF;" cx="137.003" cy="164.233" r="2.646"/>
		</g>
	</g>
        <g>
		<g>
			<path style="fill:#CC8C40;" d="M283.694,164.979h-70.086c-3.28,0-5.94-2.659-5.94-5.94v-23.176c0-3.281,2.659-5.94,5.94-5.94
				h70.086c3.281,0,5.94,2.659,5.94,5.94v23.176C289.634,162.319,286.974,164.979,283.694,164.979z"/>
            <path style="fill:#F4B247;" d="M283.816,164.979h-66.993c-3.213,0-5.818-2.605-5.818-5.818v-23.42
				c0-3.213,2.605-5.818,5.818-5.818h66.993c3.213,0,5.818,2.605,5.818,5.818v23.42
				C289.634,162.374,287.029,164.979,283.816,164.979z"/>
            <path style="fill:#E5A345;" d="M211.006,135.741c0,0,18.17,29.238,65.419,29.238h-59.87c-3.064,0-5.548-2.484-5.548-5.548
				V135.741z"/>
            <path style="fill:#F2CD70;" d="M269.989,129.923l13.379,2.71c0,0,4.064,0.965,4.064,5.478c0,4.513,0,25.602,0,25.602
				s2.202-1.564,2.202-4.552c0-2.989,0-23.42,0-23.42s-0.289-5.818-5.818-5.818C278.287,129.923,269.989,129.923,269.989,129.923z"
            />
		</g>
            <g>
			<path style="fill:#FFFFFF;" d="M223.299,154.877V139.34h3.137v6.115h6.147v-6.115h3.137v15.537h-3.137v-6.794h-6.147v6.794
				H223.299z"/>
                <path style="fill:#FFFFFF;"
                      d="M238.963,154.877V139.34h11.52v2.628h-8.383v3.445h7.8v2.618h-7.8v4.228h8.68v2.618H238.963z"/>
                <path style="fill:#FFFFFF;" d="M253.525,154.877v-15.41h3.137v12.792h7.801v2.618H253.525z"/>
                <path style="fill:#FFFFFF;" d="M266.699,154.877V139.34h5.033c1.908,0,3.151,0.078,3.73,0.233
				c0.891,0.233,1.637,0.74,2.236,1.521c0.601,0.781,0.901,1.79,0.901,3.026c0,0.954-0.173,1.755-0.52,2.406
				c-0.347,0.65-0.786,1.16-1.319,1.531c-0.533,0.371-1.076,0.617-1.627,0.736c-0.749,0.148-1.834,0.223-3.254,0.223h-2.045v5.861
				H266.699z M269.836,141.968v4.409h1.717c1.236,0,2.063-0.081,2.48-0.244c0.416-0.162,0.743-0.417,0.98-0.763
				c0.236-0.346,0.354-0.749,0.354-1.209c0-0.565-0.167-1.031-0.498-1.399c-0.333-0.367-0.753-0.597-1.261-0.689
				c-0.375-0.07-1.128-0.106-2.258-0.106H269.836z"/>
		</g>
	</g>
        <g>
		<circle style="fill:#A4BBF9;" cx="309.369" cy="128.559" r="12.763"/>
            <g>
			<polygon style="fill:#A4BBF9;"
                     points="301.484,112.247 293.763,96.801 302.198,94.132 304.768,111.208 			"/>
                <polygon style="fill:#A4BBF9;"
                         points="326.143,120.702 342.68,115.73 343.871,124.496 326.607,124.115 			"/>
                <polygon style="fill:#A4BBF9;"
                         points="316.31,111.628 322.664,95.572 330.28,100.074 319.275,113.381 			"/>
		</g>
	</g>
        <g>
		<g>
			<polygon style="fill:#1B4B52;" points="474,407.711 24,407.711 52.671,370.558 445.329,370.558 			"/>
            <path style="fill:#153C3F;" d="M463.815,417.896H34.185c-5.625,0-10.185-4.56-10.185-10.185l0,0h450l0,0
				C474,413.336,469.44,417.896,463.815,417.896z"/>
		</g>
            <g>
			<path style="fill:#151230;" d="M212.098,302.22l-11.114,7.496c0,0-0.527-32.083,0.328-50.818
				c0.855-18.735,2.074-27.424,2.956-31.6c0.882-4.176,2.346-7.042,29.933-9.137L212.098,302.22z"/>
                <path style="fill:#211944;" d="M212.098,302.22c0.611-21.22,3.195-58.599,3.847-67.453c0.651-8.854-3.451-19.195,56.671-18.745
				c60.122,0.45,59.082-0.575,59.535,23.602c0.453,24.177,2.206,64.372,2.206,64.372s-27.109,5.072-56.269,7.489
				C248.928,313.901,212.098,302.22,212.098,302.22z"/>
                <path style="fill:none;stroke:#FFFFFF;stroke-width:0.9219;stroke-linecap:round;stroke-miterlimit:10;"
                      d="M226.115,262.38
				c0,0,55.46-3.968,95.747-2.159"/>
		</g>
            <g>
			<path style="fill:#FBD995;" d="M258.189,273.216c0,0-8.472,1.636-14.077,3.244c-5.606,1.608-19.385,8.146-25.433,24.306
				c-6.048,16.16-19.442,72.867-19.442,72.867s42.579,6.99,79.527,6.827c36.947-0.163,72.589-10.042,72.589-10.042
				s-19.41-63.674-23.141-74.12c-3.731-10.446-12.355-19.688-23.114-22.144c-10.759-2.455-16.824-3.002-16.824-3.002
				L258.189,273.216z"/>
                <path style="fill:#EC6B65;" d="M267.524,185.207c-11.976,1.609-22.709,12.439-20.677,35.973
				c2.032,23.535,10.543,33.496,26.878,33.883c16.335,0.387,24.401-19.062,22.644-39.128
				C294.613,195.871,286.948,182.598,267.524,185.207z"/>
                <path style="fill:#1F3E56;" d="M246.705,219.185c0,0-3.261,1.63-3.806-1.326c-0.545-2.956-1.924-17.546,0.305-24.637
				c2.229-7.091,7.241-10.5,14.3-11.977c7.058-1.477,33.951-4.546,38.485,4.174c4.534,8.72,3.911,28.788,3.911,28.788
				s-1.073,2.661-3.53,1.73c0,0-1.396-31.6-24.575-31.048C247.971,185.455,246.392,208.827,246.705,219.185z"/>
                <path style="fill:none;stroke:#BA5454;stroke-width:0.9219;stroke-linecap:round;stroke-miterlimit:10;"
                      d="M272.235,214.162
				c0,0,2.444,11.723,2.448,13.643c0.005,1.92-2.13,3.452-2.13,3.452"/>
                <path style="fill:#FFFFFF;" d="M262.357,236.495l18.931,1.512c0,0-2.728,7.101-10.013,6.047
				C264.028,243.005,262.357,236.495,262.357,236.495z"/>
                <g>
				<path style="fill:#1F3E56;" d="M263.152,219.966c-0.152,1.079-1.15,1.832-2.229,1.68c-1.079-0.151-1.832-1.149-1.68-2.229
					s1.15-1.832,2.229-1.68C262.551,217.889,263.304,218.887,263.152,219.966z"/>
                    <path style="fill:none;stroke:#1F3E56;stroke-width:2.2963;stroke-linecap:round;stroke-miterlimit:10;"
                          d="M258.395,213.734
					c0,0,1.685-2.092,5.768-0.971"/>
			</g>
                <path style="fill:none;stroke:#BA5454;stroke-width:0.9219;stroke-linecap:round;stroke-miterlimit:10;"
                      d="M252.387,223.638
				c0,0,3.767,0.469,6.061,2.163"/>
                <g>
				<path style="fill:#69ADF7;" d="M244.802,212.499c0,0-1.598-19.277,2.635-24.03c5.876-6.6,10.068-7.224,10.068-7.224
					s0.775-2.603,1.32-3.457c0,0-12.502,2.932-15.413,11.761c-2.911,8.829-1.023,24.031-1.023,24.031L244.802,212.499z"/>
                    <path style="fill:#69ADF7;" d="M298.078,209.69c0,0-0.558-19.335-5.292-23.587c-6.574-5.905-10.809-6.059-10.809-6.059
					s-1.06-2.501-1.696-3.288c0,0,12.75,1.523,16.626,9.973c3.876,8.45,3.691,23.767,3.691,23.767L298.078,209.69z"/>
                    <g>
					<path style="fill:#69ADF7;" d="M246.852,212.379c0,0-5.913-0.936-7.515,6.503c-1.602,7.438,1.995,15.662,9.314,13.996
						C248.651,232.877,246.2,224.077,246.852,212.379z"/>
                        <path style="opacity:0.27;fill:#69ADF7;" d="M239.013,221.194c0,0,6.436,2.591,9.638,11.683
						C248.651,232.877,238.742,234.909,239.013,221.194z"/>
				</g>
                    <g>
					<path style="fill:#69ADF7;" d="M295.556,209.221c0,0,5.778-1.566,8.17,5.658c2.392,7.223-0.301,15.786-7.756,14.915
						C295.97,229.794,297.461,220.781,295.556,209.221z"/>
                        <path style="opacity:0.27;fill:#69ADF7;" d="M304.298,217.143c0,0-6.12,3.268-8.327,12.651
						C295.97,229.794,306.04,230.749,304.298,217.143z"/>
				</g>
                    <path style="fill:#69ADF7;" d="M244.742,232.585c0,0-0.371-1.976-2.997-1.877c0,0-3.39,11.811,2.446,15.019
					c5.836,3.208,21.144,1.334,21.144,1.334l0.398-2.836c0,0-13.466,0.624-18.522-1.091
					C242.156,241.419,244.742,232.585,244.742,232.585z"/>
                    <path style="fill:#69ADF7;" d="M265.457,241.368c-2.01,0.721-3.237,1.765-3.184,2.952c0.053,1.187-0.181,4.933,2.732,5.087
					c2.913,0.154,9.147,0.526,10.889-0.235c1.741-0.761,2.148-7.242-0.352-7.342C273.041,241.731,267.022,240.807,265.457,241.368z"
                    />
			</g>
                <path style="fill:#EC6B65;" d="M261.16,252.05l-2.971,21.166c0,0,7.687,5.228,16.259,4.168c8.573-1.06,13.825-6.232,13.825-6.232
				l-3.728-19.322L261.16,252.05z"/>
                <path style="fill:#B25252;" d="M261.16,252.05c0,0,4.784,3.214,12.565,3.014c7.782-0.2,10.82-3.233,10.82-3.233l1.11,5.752
				c0,0-4.572,3.885-12.266,4.063c-7.694,0.177-13.071-3.595-13.071-3.595L261.16,252.05z"/>
                <path style="fill:#EC6B65;" d="M367.415,222.766c-2.264,1.28-2.187,4.492-1.125,8.014c1.062,3.522,4.554,20.225,4.554,20.225
				s1.316,10.951,3.702,13.361c0,0,5.89,63.148,5.532,64.118c-0.358,0.97-16.458-10.834-16.458-10.834l-17.384,35.293
				c0,0,24.84,27.015,50.243,16.819c25.403-10.195,13.602-60.526,9.229-79.974c-4.373-19.448-7.025-24.272-7.025-24.272
				s2.603-2.73,1.843-8.385c-0.76-5.656-5.434-18.076-6.035-18.604c-0.601-0.528-19.53-1.663-19.53-1.663s-2.45-7.845-2.999-10.26
				C371.413,224.189,368.555,222.121,367.415,222.766z"/>
                <path style="fill:#EC6B65;" d="M188.62,323.997l26.104,19.529c0,0-18.025,32.084-28.807,31.832
				c-10.782-0.251-19.46-7.78-18.25-18.968C168.877,345.203,188.62,323.997,188.62,323.997z"/>
                <g>
				<path style="fill:#EC6B65;" d="M199.774,342.148c0,0,48.207,13.618,63.061,16.965c14.854,3.347,25.307,3.372,35.322,10.367
					c10.015,6.995,11.771,12.469,8.899,14.951c0,0-3.173,3.34-6.362,0.369c0,0-1.56,2.125-4.466,0.996
					c-2.906-1.129-4.935-4.659-8.924-4.498c-3.989,0.161-4.143,4.106-15.007,3.662c-10.865-0.443-86.541-6.035-93.746-11.023
					C171.345,368.949,173.061,342.365,199.774,342.148z"/>
                    <path style="fill:none;stroke:#BA5454;stroke-width:0.9219;stroke-linecap:round;stroke-miterlimit:10;"
                          d="M293.376,375.647
					c0,0,6.039,4.164,7.318,9.153"/>
                    <path style="fill:none;stroke:#BA5454;stroke-width:0.9219;stroke-linecap:round;stroke-miterlimit:10;"
                          d="M298.767,373.328
					c0,0,6.62,6.154,8.289,11.103"/>
			</g>
                <path style="fill:#FBD995;" d="M186.631,322.506l29.229,21.901c0,0,28.911-48.719,28.252-67.947c0,0-12.295,1.818-26.304,14.734
				C203.799,304.11,186.631,322.506,186.631,322.506z"/>
                <path style="fill:#FBD995;" d="M312.297,276.944c0,0,23.102,13.154,52.75,38.341l-18.811,37.657c0,0-37.901-49.04-41.036-61.529
				C302.065,278.926,312.297,276.944,312.297,276.944z"/>
                <path style="fill:#1F3E56;" d="M257.32,182.52c0.375-4.813,3.753-8.178,7.836-10.895c4.083-2.717,8.903-2.863,9.521-1.406
				c0.618,1.458-0.472,3.361-0.472,3.361s10.434-4.979,15.168-0.613c4.734,4.367,5.213,11.7,4.161,13.335
				c-1.052,1.635-6.473-0.771-6.473-0.771s3.475,7.48-0.84,9.891c-4.315,2.411-13.097-0.467-16.819-7.16
				C269.402,188.262,256.548,192.436,257.32,182.52z"/>
                <g>
				<path style="fill:#1F3E56;" d="M281.724,219.966c0.152,1.079,1.15,1.832,2.229,1.68c1.079-0.151,1.832-1.149,1.68-2.229
					s-1.15-1.832-2.229-1.68C282.325,217.889,281.573,218.887,281.724,219.966z"/>
                    <path style="fill:none;stroke:#1F3E56;stroke-width:2.2963;stroke-linecap:round;stroke-miterlimit:10;"
                          d="M286.481,213.734
					c0,0-1.685-2.092-5.768-0.971"/>
			</g>
                <path style="fill:none;stroke:#BA5454;stroke-width:0.9219;stroke-linecap:round;stroke-miterlimit:10;"
                      d="M290.597,223.638
				c0,0-3.767,0.469-6.061,2.163"/>
                <path style="fill:#EC6B65;" d="M370.844,251.005c-2.544-0.993-3.68,11.184,2.36,10.934c6.04-0.25,14.671-4.809,15.225-7.173
				c0.554-2.364-7.319-3.205-10.424-3.218C374.899,251.536,373.663,252.105,370.844,251.005z"/>
                <path style="fill:none;stroke:#BA5454;stroke-width:0.9219;stroke-linecap:round;stroke-miterlimit:10;"
                      d="M370.844,251.005
				c0,0,1.577,0.777,4.117,0.662c2.54-0.115,10.297-0.35,13.181,2.127c2.884,2.477-8.884,6.862-8.884,6.862"/>
		</g>
            <g>
			<path style="fill:#151230;" d="M325.444,309.815h-4.573c-4.755,0-8.861,3.327-9.847,7.978l-16.06,75.736h12.421L325.444,309.815z
				"/>
                <path style="fill:#211944;" d="M429.165,393.53H300.689l15.286-75.962c0.908-4.509,4.869-7.753,9.469-7.753h108.772
				c6.1,0,10.672,5.584,9.469,11.564L429.165,393.53z"/>
                <path style="fill:#151230;"
                      d="M300.689,393.53h-57.54c-4.147,0-7.509-3.362-7.509-7.509v-1.042h66.77L300.689,393.53z"/>
                <circle style="fill:#6B94F7;" cx="376.697" cy="356.376" r="11.403"/>
		</g>
            <path style="fill:#EC6B65;" d="M374.961,236.863c0,0,2.645,15.94,4.979,16.712c2.333,0.771,10.484,0.38,13.609,0.186
			c3.125-0.193,6.006-1.601,5.627-5.527c-0.382-3.961-2.94-11.494-6.155-12.314C389.807,235.1,375.202,231.982,374.961,236.863z"/>
            <g>

				<line style="fill:none;stroke:#BA5454;stroke-width:0.9219;stroke-linecap:round;stroke-miterlimit:10;"
                      x1="380.784" y1="234.184" x2="385.962" y2="254.033"/>

                <line style="fill:none;stroke:#BA5454;stroke-width:0.9219;stroke-linecap:round;stroke-miterlimit:10;"
                      x1="388.228" y1="234.921" x2="393.01" y2="253.793"/>
		</g>
            <path style="fill:none;stroke:#BA5454;stroke-width:0.9219;stroke-linecap:round;stroke-miterlimit:10;" d="M375.349,239.036
			c0,0,2.13,12.015,3.909,13.917c1.779,1.902,14.29,0.808,14.29,0.808"/>
	</g>
        <g>
		<path style="fill:#6B94F7;" d="M169.25,308.808H84.064c0,0-3.77,0.337-3.77,19.909v60.842h76.886c0,0,5.633-1.565,5.633-17.616
			c0,0,0-42.664,0-46.465C162.813,321.675,163.054,308.808,169.25,308.808z"/>
            <path style="fill:#5A80CC;" d="M169.25,308.808c2.03,0,2.481,8.321,2.481,13.056c0,4.736,0,11.05,0,11.05h-8.917v-7.437
			C162.813,325.477,162.259,308.808,169.25,308.808z"/>
            <g>
			<path style="fill:#1F3E56;" d="M148.726,330.813H92.353c-0.998,0-1.806-0.809-1.806-1.806v-0.375
				c0-0.998,0.809-1.806,1.806-1.806h56.373c0.998,0,1.806,0.809,1.806,1.806v0.375
				C150.532,330.004,149.724,330.813,148.726,330.813z"/>
                <path style="fill:#1F3E56;" d="M148.726,344.099H92.353c-0.998,0-1.806-0.809-1.806-1.806v-0.375
				c0-0.998,0.809-1.806,1.806-1.806h56.373c0.998,0,1.806,0.809,1.806,1.806v0.375
				C150.532,343.291,149.724,344.099,148.726,344.099z"/>
                <path style="fill:#1F3E56;" d="M148.726,357.386H92.353c-0.998,0-1.806-0.809-1.806-1.806v-0.375
				c0-0.998,0.809-1.806,1.806-1.806h56.373c0.998,0,1.806,0.809,1.806,1.806v0.375
				C150.532,356.577,149.724,357.386,148.726,357.386z"/>
                <path style="fill:#1F3E56;" d="M148.726,370.672H92.353c-0.998,0-1.806-0.809-1.806-1.806v-0.375
				c0-0.998,0.809-1.806,1.806-1.806h56.373c0.998,0,1.806,0.809,1.806,1.806v0.375
				C150.532,369.863,149.724,370.672,148.726,370.672z"/>
		</g>
            <path style="fill:#80AAFF;" d="M69.348,367.417h79.606c0,0-1.813,22.141,8.227,22.141H80.295
			C80.295,389.558,69.348,387.488,69.348,367.417z"/>
	</g>
        <g>
		<path style="fill:#FFFFFF;" d="M378.541,165.035h-50.247c-3.567,0-6.459,2.892-6.459,6.459v21.245
			c-1.595,8.548-12.869,18.166-12.869,18.166c13.053-0.542,20.727-3.65,20.727-3.65h48.849c3.567,0,6.459-2.892,6.459-6.459v-29.302
			C385,167.926,382.108,165.035,378.541,165.035z"/>
            <g>
			<path style="fill:#1F3E56;" d="M356.766,186.324c0,2.334-1.892,4.226-4.226,4.226c-2.334,0-4.226-1.892-4.226-4.226
				s1.892-4.226,4.226-4.226C354.874,182.098,356.766,183.99,356.766,186.324z"/>
                <path style="fill:#1F3E56;" d="M370.62,186.324c0,2.334-1.892,4.226-4.226,4.226c-2.334,0-4.226-1.892-4.226-4.226
				s1.892-4.226,4.226-4.226C368.728,182.098,370.62,183.99,370.62,186.324z"/>
                <circle style="fill:#1F3E56;" cx="338.686" cy="186.324" r="4.226"/>
		</g>
	</g>
</g>
</svg>
