<?xml version="1.0" encoding="UTF-8"?>
<svg id="Layer_1" data-name="Layer 1" xmlns="http://www.w3.org/2000/svg" viewBox="0 0 66 37.5">
    <defs>
        <style>
            .cls-1 {
            fill: #000;
            }
        </style>
    </defs>
    <path class="cls-1"
          d="M46.6,20.3c.6.3,1.1.9,1.1,1.6h15.9c-.7-2.4-2.8-4.1-5.3-4.4,0,1.1-1.7,2-3.7,2-2.1,0-3.7-.9-3.7-2-1.9.2-3.5,1.2-4.5,2.6,0,.1.1.1.2.2Z"/>
    <path class="cls-1"
          d="M49.6,12v.1c.3,3.4,2.3,6,4.7,6s4.4-2.7,4.7-6.1c0-.2.1-.5.1-.8s0-.5-.1-.8c-.3-2.4-2.3-4.2-4.7-4.2s-4.3,1.8-4.7,4.2c0,.2-.1.5-.1.8v.3c.1.2.1.3.1.5ZM51.4,9.3s3.3,1.6,5.5,0c0,0,1.3,2.1.9,2.9l.7-.8v.6c-.2,3-2,5.4-4.1,5.4s-3.8-2.3-4.1-5.2c.2,0,.4.1.7.3-.1-.1-.6-2.8.4-3.2Z"/>
    <path class="cls-1"
          d="M64.1,34.8h-18.6v-.4c.2.1.3.1.5.1h16.9c.8,0,1.4-.6,1.4-1.4l1.7-9.8c0-.8-.6-1.4-1.4-1.4h-16.9c0-.7-.5-1.4-1.1-1.6-.1,0-.2-.1-.3-.1h-26.6c-.4,0-.7.1-1,.3-.5.3-.8.8-.8,1.5H1.4c-.8,0-1.4.6-1.4,1.4l1.7,9.8c0,.8.6,1.4,1.4,1.4h17.1v.3H1.9c-.2,0-.3.2-.3.3,0,.2.2.3.3.3h18.5c.3.5.9.9,1.6.9h21.7c.7,0,1.2-.4,1.6-.9h18.8c.2,0,.3-.2.3-.3,0-.2-.2-.4-.3-.4ZM64.6,22.1c.7,0,1.3.6,1.3,1.3l-1.7,9.7c0,.7-.6,1.3-1.3,1.3h-16.8c-.2,0-.3,0-.5-.1l2.1-12.2h16.9ZM19.9,34.4H3.1c-.7,0-1.3-.6-1.3-1.3L.1,23.3c0-.7.6-1.3,1.3-1.3h16.6l2.1,12.3c0,.1-.1.1-.2.1ZM43.7,36.2h-21.7c-.9,0-1.6-.7-1.6-1.6l-2.2-12.6c0-.9.7-1.6,1.6-1.6h26c.9,0,1.6.7,1.6,1.6l-2.2,12.6c.1.8-.6,1.6-1.5,1.6Z"/>
    <path class="cls-1" d="M54.5,28.7c.33,0,.6-.27.6-.6s-.27-.6-.6-.6-.6.27-.6.6.27.6.6.6Z"/>
    <path class="cls-1"
          d="M18,21.9c0-.6.3-1.1.8-1.5.3-.2.6-.3,1-.3-1-1.4-2.6-2.4-4.5-2.6,0,1.1-1.7,2-3.7,2s-3.7-.9-3.7-2c-2.5.2-4.6,2-5.3,4.4h15.4Z"/>
    <path class="cls-1"
          d="M6.7,12v.1c.3,3.4,2.3,6,4.7,6s4.4-2.7,4.7-6.1c0-.2.1-.5.1-.8s0-.5-.1-.8c-.3-2.4-2.3-4.2-4.7-4.2s-4.3,1.8-4.7,4.2c0,.2-.1.5-.1.8v.3c0,.2,0,.3.1.5ZM8.4,9.3s3.3,1.6,5.5,0c0,0,1.3,2.1.9,2.9l.7-.8v.6c-.2,3-2,5.4-4.1,5.4s-3.8-2.3-4.1-5.2c.2,0,.4.1.7.3-.1-.1-.6-2.8.4-3.2Z"/>
    <path class="cls-1" d="M11.5,28.7c.33,0,.6-.27.6-.6s-.27-.6-.6-.6-.6.27-.6.6.27.6.6.6Z"/>
    <path class="cls-1"
          d="M44.5,20.1c-.9-3-3.6-5.3-6.9-5.6,0,1.4-2.2,2.6-4.8,2.6s-4.8-1.2-4.8-2.6c-3.3.3-6,2.6-6.9,5.6h23.4Z"/>
    <path class="cls-1"
          d="M26.6,7.3v.2c.4,4.3,2.9,7.7,6,7.7s5.7-3.4,6-7.8c0-.3.1-.6.1-1,0-.3,0-.7-.1-1-.4-3.1-3-5.4-6-5.4s-5.6,2.4-6,5.4c0,.3-.1.6-.1,1v.4c.1.2.1.3.1.5ZM28.9,3.9s4.2,2,7,0c0,0,1.7,2.6,1.2,3.7l.9-1c0,.3,0,.5-.1.8-.3,3.9-2.5,6.9-5.3,6.9s-4.9-2.9-5.3-6.7c.2.1.5.2.8.4.1-.1-.5-3.6.8-4.1Z"/>
    <path class="cls-1" d="M45.1,36.7h-24.6c-.2,0-.4.2-.4.4s.2.4.4.4h24.6c.2,0,.4-.2.4-.4s-.1-.4-.4-.4Z"/>
    <path class="cls-1" d="M32.8,28.8c.44,0,.8-.36.8-.8s-.36-.8-.8-.8-.8.36-.8.8.36.8.8.8Z"/>
</svg>