<?xml version="1.0" encoding="UTF-8"?>
<svg xmlns:xlink="http://www.w3.org/1999/xlink" xmlns="http://www.w3.org/2000/svg" viewBox="0 0 228.16 228.16">
    <defs>
        <style>
            .cls-1 {
            opacity: .2;
            }

            .cls-1, .cls-2 {
            mix-blend-mode: multiply;
            }

            .cls-1, .cls-2, .cls-3 {
            fill: #eba08c;
            }

            .cls-4 {
            fill: #fff;
            }

            .cls-5 {
            fill: none;
            }

            .cls-6 {
            isolation: isolate;
            }

            .cls-7 {
            opacity: .35;
            }

            .cls-8 {
            fill: #2847fb;
            }

            .cls-9 {
            fill: #000035;
            }

            .cls-10 {
            fill: #071882;
            }

            .cls-11 {
            clip-path: url(#clippath);
            }
        </style>
        <clipPath id="clippath">
            <circle class="cls-5" cx="114.08" cy="114.08" r="104.7"/>
        </clipPath>
    </defs>
    <g class="cls-6">
        <g id="OBJECTS">
            <g class="cls-11">
                <g>
                    <path class="cls-3"
                          d="M154.27,99.85c0,22.77-14.48,49.95-41.23,49.95s-41.23-27.18-41.23-49.95,18.46-41.23,41.23-41.23,41.23,18.46,41.23,41.23Z"/>
                    <path class="cls-9"
                          d="M76.4,102.22c2.09-2.95,3.17-6.5,3.8-10.05.7-3.93.85-8.2-1.08-11.7-.6-1.08-1.41-2.08-2.5-2.64-1.94-.99-4.41-.37-6.06,1.05s-2.62,3.47-3.3,5.53c-1.99,6.06-1.86,12.59-.73,18.8.54,2.96.43,5.2,3.86,3.88,2.43-.94,4.52-2.76,6.02-4.87Z"/>
                    <path class="cls-9"
                          d="M151.4,102.22c-2.09-2.95-3.17-6.5-3.8-10.05-.7-3.93-.85-8.2,1.08-11.7.6-1.08,1.41-2.08,2.5-2.64,1.94-.99,4.41-.37,6.06,1.05s2.62,3.47,3.3,5.53c1.99,6.06,1.86,12.59.73,18.8-.54,2.96-.43,5.2-3.86,3.88-2.43-.94-4.52-2.76-6.02-4.87Z"/>
                    <path class="cls-9"
                          d="M102.23,97.49c0,2.02-1.64,3.66-3.66,3.66s-3.66-1.64-3.66-3.66,1.64-3.66,3.66-3.66,3.66,1.64,3.66,3.66Z"/>
                    <path class="cls-9"
                          d="M86.12,95.23c.69-1.89,1.79-3.63,3.09-5.24,1.33-1.58,2.94-2.96,4.73-4.07.45-.27.91-.54,1.36-.83l1.41-.77c.49-.22.99-.41,1.5-.58.52-.13,1.05-.22,1.59-.29,2.14-.18,4.39.15,6.25,1.44l-.04.39c-2.03.86-3.75,1.38-5.45,1.97-.42.16-.84.29-1.27.38-.42.13-.86.22-1.3.3l-1.32.3c-.43.13-.86.28-1.3.43-1.69.69-3.31,1.6-4.82,2.72-1.53,1.1-2.88,2.47-4.09,4.02l-.34-.19Z"/>
                    <circle class="cls-9" cx="130.1" cy="97.49" r="3.66"/>
                    <path class="cls-9"
                          d="M142.2,95.42c-1.21-1.55-2.55-2.92-4.09-4.02-1.51-1.12-3.14-2.03-4.82-2.72-.43-.15-.86-.3-1.3-.43l-1.32-.3c-.44-.08-.88-.18-1.3-.3-.43-.1-.85-.23-1.27-.38-1.7-.59-3.42-1.12-5.45-1.97l-.04-.39c1.86-1.29,4.11-1.62,6.25-1.44.53.07,1.07.16,1.59.29.51.17,1.01.36,1.51.58l1.41.77c.45.29.91.56,1.36.83,1.79,1.11,3.4,2.49,4.73,4.07,1.31,1.6,2.41,3.35,3.09,5.24l-.34.19Z"/>
                    <path class="cls-9"
                          d="M101.77,122.84c1.96,1.82,4.1,3.39,6.42,4.56,1.16.57,2.35,1.07,3.59,1.34.61.18,1.24.24,1.86.34.63.02,1.26.1,1.87,0,1.23-.04,2.45-.41,3.6-.91,1.18-.47,2.26-1.18,3.32-1.92,2.11-1.52,4-3.39,5.75-5.4-1.26,2.37-2.97,4.52-5.05,6.29-2.06,1.76-4.64,3.2-7.53,3.39-1.43.1-2.84-.09-4.18-.48-1.34-.38-2.62-.95-3.78-1.68-2.34-1.43-4.35-3.33-5.87-5.54Z"/>
                    <g>
                        <path class="cls-3"
                              d="M116.02,180.08c10.55,0,17.01-8.17,20.23-13.84-4.01-2.05-6.94-4.24-7.85-6.7-3.44-9.3-2.06-19.82-2.06-19.82l-11.38.78-12.19-.78s2.19,10.51-1.25,19.82c-.97,2.62-4.21,4.93-8.62,7.09,3.71,4.98,11.71,13.45,23.13,13.45Z"/>
                        <path class="cls-8"
                              d="M175.31,182.79c-7.32-5.49-23.32-9.71-34.66-14.52-3.95,6.97-11.9,17.02-24.86,17.02-13.86,0-23.61-10.16-28.25-16.3-11.19,4.52-25.98,8.59-32.94,13.8-11.32,8.49-16.58,44.48-16.58,44.48h153.87s-5.26-35.99-16.58-44.48Z"/>
                        <path class="cls-10"
                              d="M115.79,185.28c12.97,0,20.91-10.04,24.86-17.02-1.57-.66-3.04-1.34-4.4-2.03-3.22,5.68-9.68,13.84-20.23,13.84-11.42,0-19.42-8.47-23.13-13.45-1.64.8-3.45,1.59-5.35,2.36,4.63,6.14,14.39,16.3,28.25,16.3Z"/>
                    </g>
                    <path class="cls-9"
                          d="M93.28,143.98c3.55,1.66,7.24,2.86,10.98,3.73,3.75.81,7.58,1.28,11.36,1.16,3.76-.12,7.48-1.07,11.02-2.51,3.54-1.46,6.93-3.37,10.1-5.67-2.65,2.91-5.92,5.26-9.48,7.04-1.78.91-3.67,1.6-5.6,2.15-1.94.52-3.95.84-5.98.92-4.03.09-8.01-.49-11.82-1.64-3.79-1.17-7.45-2.83-10.6-5.19Z"/>
                    <ellipse class="cls-1" cx="136.05" cy="113.21" rx="8.71" ry="6.61"/>
                    <ellipse class="cls-1" cx="93.81" cy="113.21" rx="8.71" ry="6.61"/>
                    <path class="cls-9"
                          d="M113.83,92.27c.54,3.9.85,7.81,1.9,11.5.53,1.83,1.21,3.62,2.16,5.24.92,1.64,2.11,3.12,3.54,4.32l.43.37-.28.46c-.99,1.63-2.25,3.06-3.66,4.27-1.41,1.22-2.98,2.24-4.64,3.03,1.46-1.12,2.83-2.32,4.06-3.64,1.22-1.32,2.3-2.75,3.14-4.3l.16.82c-1.65-1.23-2.97-2.85-4-4.61-1-1.77-1.74-3.68-2.18-5.64-.46-1.95-.67-3.94-.75-5.92-.08-1.98,0-3.94.13-5.91Z"/>
                    <path class="cls-9"
                          d="M160.86,97.12c4.17-4.02,7.64-36.48,5.83-41.93-.61,2.05-2,4.74-3.64,6.15.89-2.47,1.58-5.03,1.68-7.65.22-5.48-1.2-11.07-3.48-16.08-4.57,3.37-10.33,5-16.05,5.15-5.72.16-11.54-.08-16.92-2.01,1.61-1.68,2.86-3.91,3.64-6.09-5.25,1.49-10.79,1.59-16.25,1.58s-10.98-.13-16.33.94c-5.35,1.07-10.74,4.2-14.15,8.37.37-2.77,1.33-6.6,1.32-9.4-2.34,3.12-6.23,4.82-8.76,7.79-2.09,2.45-3.14,5.71-2.87,8.88-.6-.75-2.28-1.06-3.26-1.07-.98-.02-1.94.25-2.87.54-3.12.96-6.18,2.15-9.13,3.55,2.87,2,6.66,3.21,10.12,2.59-4.26,3.15-7.67,8.5-8.06,13.71-.39,5.21,1.05,22.14,4.79,25.87,4.59-.12,9.82-13.34,13.3-16.27,3.47-2.93,5.86-7.06,6.65-11.48,5.51,5.26,12.71,8.83,20.41,9.1-1.04-3.72-3.11-7.36-6.04-9.94,4.48,3.26,9.39,3.44,14.97,3.62,5.58.18,11.31-.03,16.58,1.78,5.9,2.03,15.12,8.96,19.22,13.58"/>
                    <g>
                        <path class="cls-3"
                              d="M165.22,106.78c-.55,2.94-2.18,5.66-4.24,7.7-1.4,1.38-3.04,2.5-4.79,2.97-1.75.47-3.62.26-5.01-.81-1.27-.98-2.07-2.59-2.46-4.32-.89-3.99.32-8.63,2.77-12.11,1.7-2.41,4.12-4.38,6.71-4.71,5.23-.66,8,6.08,7.02,11.28Z"/>
                        <path class="cls-2"
                              d="M150.5,112.91c1.25-.07,2.5-.52,3.56-1.28.32-.23.65-.56.64-.96,0-.23-.13-.43-.25-.61-.71-1.08-1.6-2.03-2.62-2.78.74-1.67,1.49-3.36,2.6-4.79,1.11-1.43,2.62-2.59,4.32-2.82,1.7-.24,3.55.63,4.2,2.3,0,0,2.28,4.81-3.09,10.02-5.66,5.49-9.36.92-9.36.92Z"/>
                        <path class="cls-9"
                              d="M162.95,101.97c-.64-1.19-1.88-1.83-3.08-1.91-1.21-.09-2.36.42-3.32,1.17-.96.76-1.73,1.74-2.38,2.83-.64,1.09-1.2,2.27-1.75,3.47l-.2-.77c.66.52,1.26,1.12,1.79,1.76.26.33.5.67.72,1.02.11.18.22.34.33.6.12.25.15.63.03.92-.24.57-.69.8-1.03,1.01-.36.21-.75.37-1.14.51-.78.26-1.6.4-2.41.33.79-.16,1.53-.41,2.2-.79.34-.19.65-.41.95-.64.31-.23.56-.49.59-.69.01-.09,0-.13-.06-.24-.06-.1-.18-.26-.3-.41-.23-.3-.48-.59-.74-.86-.51-.55-1.08-1.05-1.69-1.48l-.41-.29.21-.48c.52-1.22,1.05-2.47,1.78-3.64.72-1.18,1.64-2.3,2.83-3.1,1.16-.8,2.68-1.3,4.12-.98,1.41.29,2.66,1.34,2.97,2.67Z"/>
                    </g>
                    <g>
                        <path class="cls-3"
                              d="M59.72,106.78c.55,2.94,2.18,5.66,4.24,7.7,1.4,1.38,3.04,2.5,4.79,2.97,1.75.47,3.62.26,5.01-.81,1.27-.98,2.07-2.59,2.46-4.32.89-3.99-.32-8.63-2.77-12.11-1.7-2.41-4.12-4.38-6.71-4.71-5.23-.66-8,6.08-7.02,11.28Z"/>
                        <path class="cls-2"
                              d="M74.44,112.91c-1.25-.07-2.5-.52-3.55-1.28-.32-.23-.65-.56-.64-.96,0-.23.13-.43.25-.61.71-1.08,1.6-2.03,2.62-2.78-.74-1.67-1.49-3.36-2.6-4.79-1.11-1.43-2.62-2.59-4.32-2.82-1.7-.24-3.55.63-4.2,2.3,0,0-2.28,4.81,3.09,10.02,5.66,5.49,9.36.92,9.36.92Z"/>
                        <path class="cls-9"
                              d="M62,101.97c.31-1.32,1.56-2.38,2.97-2.67,1.45-.32,2.96.18,4.12.98,1.19.8,2.11,1.92,2.83,3.1.73,1.18,1.25,2.43,1.78,3.64l.21.48-.41.29c-.61.43-1.18.93-1.69,1.48-.26.27-.51.56-.74.86-.11.15-.24.31-.3.42-.06.11-.07.15-.06.24.03.19.28.46.59.69.3.23.61.45.95.64.67.38,1.42.64,2.2.79-.8.07-1.62-.07-2.41-.33-.39-.14-.78-.29-1.14-.51-.34-.21-.78-.44-1.03-1.01-.12-.29-.09-.67.03-.92.11-.26.23-.42.33-.6.22-.35.46-.69.72-1.02.53-.65,1.13-1.24,1.79-1.76l-.2.77c-.55-1.2-1.11-2.38-1.75-3.47-.65-1.09-1.42-2.08-2.38-2.83-.96-.75-2.11-1.26-3.32-1.17-1.2.08-2.44.72-3.08,1.91Z"/>
                    </g>
                    <g class="cls-7">
                        <path class="cls-4"
                              d="M84.75,50.74c1.44,3.04,3.92,5.45,6.73,7.18,2.84,1.73,5.98,2.87,9.18,3.8l-.37.49c-1.04-1.6-2.35-3.03-3.68-4.42l-4.11-4.13.62-.6c1.94,1.99,4.43,3.4,7.07,4.33,2.65.94,5.44,1.41,8.27,1.68,2.82.28,5.68.4,8.54.62,2.86.26,5.73.61,8.54,1.23,5.63,1.19,11.11,3.2,16.06,6.13,1.25.71,2.43,1.54,3.61,2.35l1.69,1.33c.57.44,1.08.95,1.62,1.42,2.11,1.95,4,4.12,5.59,6.5-3.42-4.59-7.84-8.35-12.81-11.1-4.95-2.8-10.4-4.61-15.94-5.78-2.78-.59-5.6-.92-8.43-1.15-2.84-.21-5.7-.28-8.56-.58-2.86-.29-5.74-.8-8.48-1.79-2.73-.98-5.34-2.48-7.38-4.61l.62-.6c1.35,1.39,2.74,2.75,4.06,4.19,1.32,1.44,2.62,2.92,3.67,4.61l.47.75-.84-.27c-3.19-1.01-6.39-2.21-9.21-4.09-2.8-1.86-5.25-4.4-6.52-7.52Z"/>
                        <path class="cls-4"
                              d="M107.15,43.44c2.75,2.26,5.83,4.09,9.09,5.45,3.26,1.37,6.72,2.2,10.22,2.54l-.28.79c-2.36-1.53-4.93-2.94-6.94-5.13l-3.03-3.3,3.67,2.59c1.22.86,2.67,1.32,4.18,1.5,1.51.2,3.07.15,4.64.06,1.56-.1,3.15-.22,4.75-.23,1.6,0,3.19.1,4.78.28,3.16.42,6.27,1.22,9.23,2.36,2.95,1.18,5.76,2.7,8.31,4.57-1.34-.83-2.72-1.6-4.13-2.29-1.42-.68-2.88-1.26-4.36-1.79-2.96-1.03-6.04-1.72-9.14-2.03-1.55-.15-3.11-.24-4.67-.22-1.56.03-3.12.16-4.7.28-1.58.11-3.19.18-4.82-.02-1.62-.19-3.25-.73-4.62-1.71l.63-.71c1.84,2.06,4.32,3.48,6.71,5.05l1.48.98-1.77-.19c-3.59-.38-7.09-1.41-10.35-2.89-3.26-1.49-6.28-3.52-8.86-5.96Z"/>
                        <path class="cls-4"
                              d="M79.75,60.34c0,.58-.02,1.16-.05,1.75l-.18,1.75-.34,1.73-.45,1.71c-.67,2.26-1.69,4.41-2.95,6.41-1.28,1.98-2.8,3.82-4.56,5.38l-1.36,1.13-1.42,1.03-1.5.9c-.52.27-1.04.53-1.56.78.47-.35.94-.68,1.42-1.01l1.36-1.08,1.31-1.12,1.23-1.2c1.59-1.65,3.03-3.43,4.25-5.36,1.24-1.92,2.24-3.98,3.06-6.11.81-2.14,1.37-4.38,1.74-6.68Z"/>
                    </g>
                </g>
            </g>
        </g>
    </g>
</svg>