<!-- Generator: Adobe Illustrator 27.5.0, SVG Export Plug-In . SVG Version: 6.00 Build 0)  -->
<svg xmlns:xlink="http://www.w3.org/1999/xlink" version="1.1" xmlns="http://www.w3.org/2000/svg" x="0px" y="0px"
     viewBox="0 0 3710 3710" style="enable-background:new 0 0 3710 3710;" xml:space="preserve">
<g id="Background">
	<g>
		<g>
			<rect style="fill:#FFFFFF;" width="3710" height="3710"/>
		</g>
	</g>
</g>
    <g id="Illustration">
	<g>
		<path style="fill:#F4F7FA;" d="M1127.84,593.242c-97.811,140.536,16.875,368.378-128.259,474.073
			c-141.277,102.887-314.831-65.758-447.975,22.806C354.094,1221.5,390.163,1822.665,678.936,2196.18
			c86.844,112.329,159.407,156.035,191.545,283.074c69.01,272.784-173.524,435.053-127.37,569.968
			c103.921,303.779,1702.163,558.685,2343.449-354.27c299.506-426.388,344.319-1042.096,76.719-1509.729
			C2679.73,340.217,1347.31,277.905,1127.84,593.242z"/>
        <g>
			<linearGradient id="SVGID_1_" gradientUnits="userSpaceOnUse" x1="1362.3409" y1="2743.4651" x2="1981.6068"
                            y2="2743.4651">
				<stop offset="0" style="stop-color:#444B8C"/>
                <stop offset="0.9964" style="stop-color:#3E4177"/>
			</linearGradient>
            <path style="fill:url(#SVGID_1_);" d="M1967.64,2867.64l-605.299,17.236v-29.586l591.32-16.369v-236.273l27.946-0.594v250.641
				C1981.607,2860.729,1975.354,2867.421,1967.64,2867.64z"/>

            <linearGradient id="SVGID_00000037692522459963254840000009611830859055479964_"
                            gradientUnits="userSpaceOnUse" x1="1626.6595" y1="1319.1025" x2="1916.0024" y2="1319.1025">
				<stop offset="0" style="stop-color:#444B8C"/>
                <stop offset="0.9964" style="stop-color:#3E4177"/>
			</linearGradient>
            <path style="fill:url(#SVGID_00000037692522459963254840000009611830859055479964_);" d="M1916.002,1544.385l-28.046-0.211
				v-146.763l-247.069-2.846c-7.856-0.091-14.228-6.741-14.228-14.852V1093.82l28.445,0.558v270.995l246.88,3.04
				c7.742,0.095,14.017,6.698,14.017,14.746V1544.385z"/>

            <linearGradient id="SVGID_00000097500437075382356660000015644221240979878806_"
                            gradientUnits="userSpaceOnUse" x1="2078.1902" y1="853.4023" x2="2257.5825" y2="853.4023">
				<stop offset="0" style="stop-color:#444B8C"/>
                <stop offset="0.9964" style="stop-color:#3E4177"/>
			</linearGradient>
            <polygon style="fill:url(#SVGID_00000097500437075382356660000015644221240979878806_);" points="2257.583,870.253
				2078.19,865.571 2078.19,836.552 2257.583,841.376 			"/>

            <linearGradient id="SVGID_00000008151047730910403480000010765783222628183191_"
                            gradientUnits="userSpaceOnUse" x1="2154.2805" y1="1456.665" x2="2452.6028" y2="1456.665">
				<stop offset="0" style="stop-color:#444B8C"/>
                <stop offset="0.9964" style="stop-color:#3E4177"/>
			</linearGradient>
            <path style="fill:url(#SVGID_00000008151047730910403480000010765783222628183191_);" d="M2181.922,1541.641l-27.642-0.212
				v-155.43c0-7.996,6.192-14.403,13.826-14.309l284.496,3.503v28.722l-270.68-3.118V1541.641z"/>

            <linearGradient id="SVGID_00000114791748259390981730000000283168432043487164_"
                            gradientUnits="userSpaceOnUse" x1="1808.3018" y1="1616.2598" x2="2323.3774" y2="3061.3315">
				<stop offset="0" style="stop-color:#444B8C"/>
                <stop offset="0.9964" style="stop-color:#3E4177"/>
			</linearGradient>
            <path style="fill:url(#SVGID_00000114791748259390981730000000283168432043487164_);" d="M2550.797,2053.012l-271.628-496.372
				c-4.821-8.81-13.735-14.284-23.385-14.358l-556.413-4.264c-9.952-0.077-19.154,5.347-24.135,14.229l-285.001,508.199
				c-5.06,9.021-5.06,20.097,0,29.049l285.001,504.326c4.981,8.814,14.183,14.112,24.135,13.901l556.413-11.826
				c9.65-0.205,18.563-5.8,23.385-14.676l271.628-500.063C2555.545,2072.416,2555.545,2061.688,2550.797,2053.012z"/>

            <linearGradient id="SVGID_00000115480430040123976720000015043329818943702963_"
                            gradientUnits="userSpaceOnUse" x1="2011.001" y1="360.7718" x2="2963.3201" y2="1032.7981">
				<stop offset="0" style="stop-color:#444B8C"/>
                <stop offset="0.9964" style="stop-color:#3E4177"/>
			</linearGradient>
            <path style="fill:url(#SVGID_00000115480430040123976720000015043329818943702963_);" d="M3222.171,646.685l-951.61-31.708
				c-14.916-0.497-27.018,11.808-27.018,27.485v440.746c0,15.677,12.102,28.623,27.018,28.916l951.61,18.719
				c14.135,0.278,25.587-11.854,25.587-27.099V675.141C3247.758,659.896,3236.306,647.156,3222.171,646.685z"/>

            <linearGradient id="SVGID_00000088116393265650805880000008500722487950676881_"
                            gradientUnits="userSpaceOnUse" x1="1623.6625" y1="850.5129" x2="2626.5535" y2="1558.2264">
				<stop offset="0" style="stop-color:#444B8C"/>
                <stop offset="0.9964" style="stop-color:#3E4177"/>
			</linearGradient>
            <path style="fill:url(#SVGID_00000088116393265650805880000008500722487950676881_);" d="M2036.825,607.188l-829.228-27.63
				c-15.801-0.527-28.619,12.126-28.619,28.26v453.618c0,16.135,12.817,29.466,28.619,29.777l829.228,16.312
				c15.097,0.297,27.325-12.233,27.325-27.987V636.624C2064.151,620.87,2051.923,607.692,2036.825,607.188z"/>

            <linearGradient id="SVGID_00000052807135414040016360000009939646528295771803_"
                            gradientUnits="userSpaceOnUse" x1="942.632" y1="2552.9998" x2="736.5083" y2="3736.3035">
				<stop offset="0" style="stop-color:#444B8C"/>
                <stop offset="0.9964" style="stop-color:#3E4177"/>
			</linearGradient>
            <path style="fill:url(#SVGID_00000052807135414040016360000009939646528295771803_);" d="M1319.897,2602.06l-862.366,18.328
				c-16.438,0.349-29.776,13.974-29.776,30.432v462.702c0,16.458,13.338,29.333,29.776,28.76l862.366-30.1
				c15.692-0.547,28.404-14.011,28.404-30.073v-451.571C1348.301,2614.477,1335.589,2601.727,1319.897,2602.06z"/>

            <linearGradient id="SVGID_00000074405959541468218930000015381110866302657154_"
                            gradientUnits="userSpaceOnUse" x1="1860.6875" y1="1729.8644" x2="2106.3806" y2="2407.2761">
				<stop offset="0" style="stop-color:#FFC444"/>
                <stop offset="0.9964" style="stop-color:#F36F56"/>
			</linearGradient>
            <path style="fill:url(#SVGID_00000074405959541468218930000015381110866302657154_);" d="M2564.837,2053.044l-271.628-496.372
				c-4.821-8.81-13.735-14.284-23.384-14.358l-556.413-4.264c-9.952-0.076-19.154,5.347-24.135,14.229l-285.001,508.199
				c-5.059,9.022-5.059,20.097,0,29.049l285.001,504.326c4.981,8.814,14.184,14.112,24.135,13.901l556.413-11.826
				c9.649-0.205,18.563-5.8,23.384-14.676l271.628-500.063C2569.585,2072.448,2569.585,2061.72,2564.837,2053.044z"/>
            <polygon style="opacity:0.31;fill:#FFFFFF;" points="1717.78,2571.031 1437.653,2074.777 1717.778,1574.715 2265.585,1578.371
				2533.448,2067.329 2265.584,2559.93 			"/>

            <linearGradient id="SVGID_00000002359719627791158160000005064143706363696041_"
                            gradientUnits="userSpaceOnUse" x1="2025.0406" y1="353.752" x2="2977.3599" y2="1025.7783">
				<stop offset="0" style="stop-color:#FF9085"/>
                <stop offset="1" style="stop-color:#FB6FBB"/>
			</linearGradient>
            <path style="fill:url(#SVGID_00000002359719627791158160000005064143706363696041_);" d="M3236.21,639.666l-951.61-31.708
				c-14.916-0.497-27.018,11.808-27.018,27.485v440.745c0,15.677,12.102,28.623,27.018,28.916l951.61,18.719
				c14.135,0.278,25.587-11.854,25.587-27.099V668.121C3261.798,652.877,3250.346,640.137,3236.21,639.666z"/>
            <polygon style="opacity:0.3;fill:#FFFFFF;" points="2291.933,1069.186 2291.933,644.264 3229.253,674.568 3229.253,1088.552
				"/>

            <linearGradient id="SVGID_00000177467486278562382800000005513689322287002008_"
                            gradientUnits="userSpaceOnUse" x1="1637.702" y1="843.4932" x2="2640.5933" y2="1551.2067">
				<stop offset="0" style="stop-color:#FF9085"/>
                <stop offset="1" style="stop-color:#FB6FBB"/>
			</linearGradient>
            <path style="fill:url(#SVGID_00000177467486278562382800000005513689322287002008_);" d="M2050.865,600.169l-829.228-27.63
				c-15.801-0.527-28.619,12.126-28.619,28.26v453.618c0,16.135,12.817,29.466,28.619,29.777l829.228,16.312
				c15.097,0.297,27.325-12.233,27.325-27.987V629.604C2078.19,613.85,2065.962,600.672,2050.865,600.169z"/>
            <polygon style="opacity:0.3;fill:#FFFFFF;" points="1229.404,1047.233 1229.404,609.911 2043.435,636.229 2043.435,1064.052
				"/>

            <linearGradient id="SVGID_00000021092146424618928830000002736876789917885606_"
                            gradientUnits="userSpaceOnUse" x1="956.6717" y1="2566.7585" x2="750.5479" y2="3750.0623">
				<stop offset="0.0036" style="stop-color:#E38DDD"/>
                <stop offset="1" style="stop-color:#9571F6"/>
			</linearGradient>
            <path style="fill:url(#SVGID_00000021092146424618928830000002736876789917885606_);" d="M1333.937,2615.819l-862.366,18.328
				c-16.438,0.349-29.776,13.974-29.776,30.432v462.702c0,16.458,13.338,29.333,29.776,28.76l862.366-30.1
				c15.692-0.547,28.404-14.011,28.404-30.073v-451.571C1362.341,2628.236,1349.628,2615.486,1333.937,2615.819z"/>
            <polygon style="opacity:0.3;fill:#FFFFFF;" points="479.652,3117.901 479.652,2671.832 1326.213,2653.001 1326.213,3089.191
				"/>
		</g>
        <g>
			
				<linearGradient id="SVGID_00000057869375621631159850000008513919712516227480_"
                                gradientUnits="userSpaceOnUse" x1="695.4699" y1="2639.3677" x2="744.3851" y2="2639.3677"
                                gradientTransform="matrix(0.9858 -0.1678 0.1678 0.9858 0.9801 -81.3323)">
				<stop offset="0.0036" style="stop-color:#F36F56"/>
                    <stop offset="1" style="stop-color:#FFC444"/>
			</linearGradient>
            <path style="fill:url(#SVGID_00000057869375621631159850000008513919712516227480_);" d="M1137.063,2370.8l-3.555,56.84
				c0,0,8.071,8.55,23.598,2.598l16.962-55.814L1137.063,2370.8z"/>

            <linearGradient id="SVGID_00000023277254235990595430000005939414660282616733_"
                            gradientUnits="userSpaceOnUse" x1="790.0031" y1="2437.8213" x2="661.7365" y2="2887.8423"
                            gradientTransform="matrix(0.9858 -0.1678 0.1678 0.9858 0.9801 -81.3323)">
				<stop offset="0" style="stop-color:#444B8C"/>
                <stop offset="0.9964" style="stop-color:#26264F"/>
			</linearGradient>
            <path style="fill:url(#SVGID_00000023277254235990595430000005939414660282616733_);" d="M1144.178,2412.592
				c0,0-27.838,11.354-22.434,23.667c2.901,6.611,12.942,21.544,21.62,33.956c8.031,11.488,22.538,16.573,35.965,12.55
				c4.506-1.35,9.115-2.67,13.194-3.722c8.438-2.176,8.932-13.971,0.714-16.869c-3.985-1.405-7.932-2.541-11.37-3.072
				c-10.192-1.573-24.214-25.649-25.856-35.293C1154.37,2414.165,1144.178,2412.592,1144.178,2412.592z"/>

            <linearGradient id="SVGID_00000051357778186087697790000012959865495638535355_"
                            gradientUnits="userSpaceOnUse" x1="1283.5421" y1="1981.6812" x2="868.7761" y2="2322.3823">
				<stop offset="0" style="stop-color:#AB316D"/>
                <stop offset="1" style="stop-color:#792D3D"/>
			</linearGradient>
            <path style="fill:url(#SVGID_00000051357778186087697790000012959865495638535355_);" d="M1077.265,1825.249
				c41.004,14.15,192.633,71.466,226.407,202.933c1.803,7.018,6.427,26.535,6.637,58.413
				c0.872,132.696-76.293,244.999-132.412,310.331c-17.693-0.295-35.385-0.591-53.077-0.887
				c-8.831-33.867-16.944-84.522-4.246-141.518c19.409-87.112,69.76-109.707,60.05-152.464
				c-17.632-77.645-197.925-65.897-214.914-135.424C959.573,1941.52,973.058,1898.9,1077.265,1825.249z"/>

            <linearGradient id="SVGID_00000045612856711229514440000015567782603457945265_"
                            gradientUnits="userSpaceOnUse" x1="961.7165" y1="1985.7933" x2="848.2094" y2="2384.031"
                            gradientTransform="matrix(0.9956 0.0937 -0.0937 0.9956 20.029 69.0563)">
				<stop offset="0" style="stop-color:#444B8C"/>
                <stop offset="0.9964" style="stop-color:#26264F"/>
			</linearGradient>
            <path style="fill:url(#SVGID_00000045612856711229514440000015567782603457945265_);" d="M570.108,2619.681l76.992-1.795
				c4.744-0.109,6.782-6.025,3.148-9.078c-3.581-3.009-8.531-5.472-14.858-4.813c-14.636,1.521-47.489-18.959-62.394-14.565
				c-4.869,1.436-8.825,12.891-10.853,16.058C558.161,2611.706,562.725,2619.854,570.108,2619.681z"/>

            <linearGradient id="SVGID_00000109744471478162795580000013539761447881718927_"
                            gradientUnits="userSpaceOnUse" x1="786.693" y1="2443.5752" x2="844.4055" y2="2443.5752"
                            gradientTransform="matrix(0.9956 0.0937 -0.0937 0.9956 20.029 69.0563)">
				<stop offset="0.0036" style="stop-color:#F36F56"/>
                <stop offset="1" style="stop-color:#FFC444"/>
			</linearGradient>
            <path style="fill:url(#SVGID_00000109744471478162795580000013539761447881718927_);" d="M604.698,2560.531l-31.703,28.899
				c0,0,11.068,8.27,27.216,4.725l32.405-22.302L604.698,2560.531z"/>
            <g style="opacity:0.3;">
				
					<linearGradient id="SVGID_00000068638771042331615140000015084585348892565147_"
                                    gradientUnits="userSpaceOnUse" x1="1057.0667" y1="2568.0542" x2="580.9465"
                                    y2="2311.5139"
                                    gradientTransform="matrix(0.9858 -0.1678 0.1678 0.9858 0.9801 -81.3323)">
					<stop offset="0" style="stop-color:#AB316D"/>
                        <stop offset="1" style="stop-color:#792D3D"/>
				</linearGradient>
                <path style="fill:url(#SVGID_00000068638771042331615140000015084585348892565147_);" d="M1213.287,2167.617
					c21.266-57.414,46.766-128.205,17.642-168.399c-29.474-40.677-94.047-6.343-158.824-39.119
					c-24.028-12.158-48.72-33.915-69.263-73.291c-36.366,37.543-41.306,62.741-37.131,79.826
					c16.989,69.527,197.282,57.779,214.914,135.424c9.71,42.757-40.641,65.351-60.05,152.464c-10.917,49-6.443,93.281,0.635,126.269
					c6.31-30.635,16.114-62.809,31.104-95.285C1175.551,2235.162,1190.885,2228.101,1213.287,2167.617z"/>
			</g>

            <linearGradient id="SVGID_00000011730418846809917630000018382212733551953074_"
                            gradientUnits="userSpaceOnUse" x1="275.8853" y1="2317.23" x2="-183.815" y2="2794.6106"
                            gradientTransform="matrix(0.9542 -0.2992 0.2992 0.9542 -14.04 -148.0025)">
				<stop offset="0" style="stop-color:#AB316D"/>
                <stop offset="1" style="stop-color:#792D3D"/>
			</linearGradient>
            <path style="fill:url(#SVGID_00000011730418846809917630000018382212733551953074_);" d="M1100.755,1808.669
				c-24.959,114.58-78.138,289.54-199.976,472.166c-90.2,135.201-189.291,231.528-267.014,295.886
				c-5.529,1.653-14.954,3.681-26.508,2.264c-8.586-1.054-15.396-3.649-19.974-5.834c5.354-32.302,16.645-80.02,43.423-131.559
				c48.998-94.311,92.631-91.282,141.846-174.519c36.036-60.948,47.754-125.693,71.188-255.184
				c18.095-99.989,18.107-123.888,42.885-152.559C936.721,1801.364,1030.788,1800.708,1100.755,1808.669z"/>
            <g style="opacity:0.3;">
				
					<linearGradient id="SVGID_00000019648104657951092070000008705312010770358917_"
                                    gradientUnits="userSpaceOnUse" x1="241.3073" y1="2303.7944" x2="-208.8452"
                                    y2="2771.26"
                                    gradientTransform="matrix(0.9542 -0.2992 0.2992 0.9542 -14.04 -148.0025)">
					<stop offset="0" style="stop-color:#AB316D"/>
                        <stop offset="1" style="stop-color:#792D3D"/>
				</linearGradient>
                <path style="fill:url(#SVGID_00000019648104657951092070000008705312010770358917_);" d="M649.49,2462.92
					c17.488-27.598,48.514-56.338,109.715-113.033c63.25-58.592,60.819-48,73.268-65.314
					c55.738-77.52,25.557-160.352,39.337-260.317c7.689-55.772,32.315-128.652,104.013-210.288
					c-33.602,6.196-65.774,19.52-89.199,45.362c-28.761,31.731-26.641,62.803-42.885,152.559
					c-23.435,129.491-35.152,194.236-71.188,255.184c-49.214,83.237-92.846,80.208-141.846,174.519
					c-26.777,51.539-38.068,99.257-43.423,131.559c4.579,2.185,11.388,4.78,19.974,5.834c6.809,0.835,12.849,0.461,17.818-0.314
					C621.033,2513.138,640.618,2476.921,649.49,2462.92z"/>
			</g>

            <linearGradient id="SVGID_00000031175229910359191280000000305275498208513675_"
                            gradientUnits="userSpaceOnUse" x1="1125.9906" y1="1363.9606" x2="1137.1002" y2="886.2388">
				<stop offset="0.0036" style="stop-color:#F36F56"/>
                <stop offset="1" style="stop-color:#FFC444"/>
			</linearGradient>
            <path style="fill:url(#SVGID_00000031175229910359191280000000305275498208513675_);" d="M1168.141,1064.094
				c0,0,20.503,152.658-140.353,260.29l171.165,40.83c0,0,54.784-102.438,15.122-272.116L1168.141,1064.094z"/>

            <linearGradient id="SVGID_00000146491287508146833020000009177735764589075623_"
                            gradientUnits="userSpaceOnUse" x1="-1499.87" y1="1046.6305" x2="-1492.7793" y2="1149.7677"
                            gradientTransform="matrix(-1 0 0 1 -318.9724 0)">
				<stop offset="0.0036" style="stop-color:#F36F56"/>
                <stop offset="1" style="stop-color:#FFC444"/>
			</linearGradient>
            <path style="fill:url(#SVGID_00000146491287508146833020000009177735764589075623_);" d="M1198.261,1093.097
				c0,0,9.223-22.771,7.736-33.022c-1.488-10.251-25.891-23.931-42.524-38.058c-16.632-14.128,0.624,14.208,4.492,20.653
				c3.867,6.447,17.437,16.115,15.486,38.032L1198.261,1093.097z"/>

            <linearGradient id="SVGID_00000172409760552750651970000003252253119341375382_"
                            gradientUnits="userSpaceOnUse" x1="-1411.1249" y1="1361.1384" x2="-1421.2407" y2="1239.7476"
                            gradientTransform="matrix(-0.9986 0.0537 0.0537 0.9986 -504.5519 -55.8024)">
				<stop offset="0" style="stop-color:#444B8C"/>
                <stop offset="0.9964" style="stop-color:#26264F"/>
			</linearGradient>
            <path style="fill:url(#SVGID_00000172409760552750651970000003252253119341375382_);" d="M1006.739,1209.314
				c8.406-16.555,11.873-16.459,13.937-25.198c4.706-19.914-7.442-45.207-17.742-45.557c-6.641-0.226-7.19,10.097-21.247,26.187
				c-17.221,19.709-27.672,17.124-37.807,34.234c-2.371,4.002-13.039,22.017-6.479,35.463c8.374,17.159,41.388,19.878,55.187,6.641
				C999.134,1234.807,996.384,1229.71,1006.739,1209.314z"/>

            <linearGradient id="SVGID_00000133529318312589897750000013515082745478379449_"
                            gradientUnits="userSpaceOnUse" x1="997.5961" y1="1114.7659" x2="1030.9257" y2="1614.7061">
				<stop offset="0.0036" style="stop-color:#F36F56"/>
                <stop offset="1" style="stop-color:#FFC444"/>
			</linearGradient>
            <path style="fill:url(#SVGID_00000133529318312589897750000013515082745478379449_);" d="M981.99,1227.179
				c0,0,5.896,31.466,1.7,57.049c-3.794,23.122-46.627,47.142-54.837,54.03c-8.209,6.888,21.775,14.362,49.281,10.761
				c27.505-3.599,102.816-27.697,114.26-41.129c11.445-13.431-13.325-6.813-34.157-9.356c-20.832-2.543-40.718-37.456-41.325-55.274
				C1016.304,1225.44,981.99,1227.179,981.99,1227.179z"/>
            <g>
				
					<linearGradient id="SVGID_00000128482045164386652830000015681613539525521291_"
                                    gradientUnits="userSpaceOnUse" x1="3977.6084" y1="1858.5919" x2="4073.0149"
                                    y2="1959.1556"
                                    gradientTransform="matrix(0.966 -0.2584 0.2584 0.966 -3411.8352 402.9503)">
					<stop offset="0.0036" style="stop-color:#F36F56"/>
                        <stop offset="1" style="stop-color:#FFC444"/>
				</linearGradient>
                <path style="fill:url(#SVGID_00000128482045164386652830000015681613539525521291_);" d="M990.961,1250.662
					c0,0,21.056,9.246,39.707-5.667c16.698-13.354-8.131-54.375-25.118-54.898c-5.667-0.175-13.938,3.885-18.822,9.825
					c-2.884,3.508-3.056,5.846-7.881,11.488c-4.448,5.201-6.406,5.671-7.081,8.197c-0.847,3.159,0.607,8.44,12.04,17.519
					c-5.697-1.051-10.61,0.451-12.512,3.772c-0.303,0.53-0.934,2.186-0.745,3.895
					C971.233,1250.984,979.319,1253.85,990.961,1250.662z"/>
			</g>

            <linearGradient id="SVGID_00000008141502106981679720000015656954748922605725_"
                            gradientUnits="userSpaceOnUse" x1="-1787.4149" y1="1142.8214" x2="-1767.4321" y2="1206.6373"
                            gradientTransform="matrix(-1 0 0 1 -318.9724 0)">
				<stop offset="0.0036" style="stop-color:#F36F56"/>
                <stop offset="1" style="stop-color:#FFC444"/>
			</linearGradient>
            <path style="fill:url(#SVGID_00000008141502106981679720000015656954748922605725_);" d="M1453.713,1141.218
				c0,0,12.752-1.777,8.777-26.132c-3.117-19.091-0.757-25.511,3.75-22.128c4.506,3.385,5.142,14.417,5.142,14.417
				s16.438-14.02,23.206-32.391c6.768-18.371,11.12-2.901,12.57,6.285c1.451,9.185-9.668,37.709-15.954,43.028
				c-6.285,5.317-15.47,28.755-15.47,28.755L1453.713,1141.218z"/>

            <linearGradient id="SVGID_00000075879195499404518340000008432876541677936049_"
                            gradientUnits="userSpaceOnUse" x1="747.9003" y1="2030.6033" x2="1358.9364" y2="1138.1206">
				<stop offset="0.0036" style="stop-color:#F36F56"/>
                <stop offset="1" style="stop-color:#FFC444"/>
			</linearGradient>
            <path style="fill:url(#SVGID_00000075879195499404518340000008432876541677936049_);" d="M1487.691,1147.742
				c-14.506-10.16-29.013-20.316-43.52-30.477c-17.65,108.502-57.771,151.085-91.848,169.713
				c-82.209,44.935-155.58-35.141-312.934-2.462c-43.362,9.004-118.944,25.778-160.854,87.551
				c-11.017,16.237-14.935,28.532-33.229,145.014c-23.383,148.898-24.214,174.883-20.918,206.943
				c6.033,58.672,9.689,94.228,36.743,125.698c71.835,83.568,224.519,40.479,243.662,34.809
				c35.364-10.474,90.326-26.756,112.162-73.485c10.276-21.986,9.184-42.087-6.609-122.492
				c-31.28-159.276-35.276-169.584-26.545-187.026c29.467-58.86,122.832-25.18,201.703-79.917
				C1431.622,1389.607,1483.602,1319.864,1487.691,1147.742z"/>

            <linearGradient id="SVGID_00000011752139242719282980000007962390004485864322_"
                            gradientUnits="userSpaceOnUse" x1="-1590.8322" y1="1347.2521" x2="-1467.0676" y2="1991.8604"
                            gradientTransform="matrix(-1 0 0 1 -318.9724 0)">
				<stop offset="0.0036" style="stop-color:#F36F56"/>
                <stop offset="1" style="stop-color:#FFC444"/>
			</linearGradient>
            <path style="opacity:0.3;fill:url(#SVGID_00000011752139242719282980000007962390004485864322_);" d="M1033.242,1863.258
				c15.396-31.575-5.295-60.674,17.403-98.625c28.928-48.369,80.975-31.946,100.56-67.685
				c33.493-61.119-98.34-146.359-71.552-243.662c12.791-46.457,57.45-80.084,94.758-92.823
				c82.827-28.283,137.004,43.813,214.656,21.272c18.404-5.344,39.528-16.415,60.893-39.387
				c-18.884,39.841-42.337,63.911-64.455,79.261c-78.871,54.737-172.237,21.057-201.703,79.917
				c-8.731,17.442-4.735,27.75,26.545,187.026c15.792,80.405,16.884,100.506,6.609,122.492
				c-21.837,46.729-76.798,63.012-112.162,73.485c-10.478,3.106-60.979,17.379-116.32,15.995
				C1013.164,1890.494,1026.451,1877.188,1033.242,1863.258z"/>
		</g>
        <g>
			
				<linearGradient id="SVGID_00000137098812810570837170000004819671581154496155_"
                                gradientUnits="userSpaceOnUse" x1="2500.9238" y1="1121.5518" x2="3392.896"
                                y2="2371.7739">
				<stop offset="0" style="stop-color:#444B8C"/>
                    <stop offset="0.9964" style="stop-color:#3E4177"/>
			</linearGradient>
            <path style="fill:url(#SVGID_00000137098812810570837170000004819671581154496155_);" d="M3217.447,1284.252l-825.464-12.706
				c-16.04-0.247-29.055,13.293-29.055,30.242v476.525c0,16.948,13.015,30.712,29.055,30.739l825.464,1.439
				c15.364,0.027,27.809-13.384,27.809-29.953v-465.856C3245.256,1298.112,3232.812,1284.488,3217.447,1284.252z"/>

            <linearGradient id="SVGID_00000028297940949862138240000006678445974446362519_"
                            gradientUnits="userSpaceOnUse" x1="2516.1848" y1="1113.9213" x2="3408.1572" y2="2364.1436">
				<stop offset="0" style="stop-color:#AA80F9"/>
                <stop offset="0.9964" style="stop-color:#6165D7"/>
			</linearGradient>
            <path style="fill:url(#SVGID_00000028297940949862138240000006678445974446362519_);" d="M3232.708,1276.621l-825.464-12.706
				c-16.04-0.247-29.055,13.293-29.055,30.242v476.525c0,16.949,13.015,30.712,29.055,30.739l825.464,1.439
				c15.364,0.027,27.809-13.384,27.809-29.953v-465.856C3260.517,1290.482,3248.073,1276.858,3232.708,1276.621z"/>
            <polygon style="opacity:0.3;fill:#FFFFFF;" points="2415.13,1762.445 2415.13,1303.026 3225.146,1314.692 3225.146,1764.659
				"/>
		</g>
        <g>
			
				<linearGradient id="SVGID_00000116933186029040155140000002786688901955588781_"
                                gradientUnits="userSpaceOnUse" x1="3244.5737" y1="1875.5586" x2="3280.0535"
                                y2="2127.7202"
                                gradientTransform="matrix(0.9977 0.0677 -0.0677 0.9977 140.8456 -248.989)">
				<stop offset="0" style="stop-color:#FFC444"/>
                    <stop offset="0.9964" style="stop-color:#F36F56"/>
			</linearGradient>
            <path style="fill:url(#SVGID_00000116933186029040155140000002786688901955588781_);" d="M3230.674,1863.845l3.285-48.393
				c0,0-6.255-10.803-8.172-36.628c-1.918-25.824,4.031-15.233,6.567-4.371c0.707,3.028,2.418,5.672,4.519,7.912
				c5.28,5.629,14.772,2.825,16.379-4.722l6.754-31.733c0,0,17.294,20.261,0.621,66.877c-5.219,14.593-3.446,50.773-3.446,50.773
				L3230.674,1863.845z"/>

            <linearGradient id="SVGID_00000049903134946043137850000018038304844433409669_"
                            gradientUnits="userSpaceOnUse" x1="2372.5146" y1="1998.2422" x2="2407.9941" y2="2250.4009"
                            gradientTransform="matrix(0.9977 0.0677 -0.0677 0.9977 140.8456 -248.989)">
				<stop offset="0" style="stop-color:#FFC444"/>
                <stop offset="0.9964" style="stop-color:#F36F56"/>
			</linearGradient>
            <path style="fill:url(#SVGID_00000049903134946043137850000018038304844433409669_);" d="M2380.576,1844.838l-8.993-47.947
				c0,0,12.949-17.283,8.575-36.122c-4.375-18.839-1.438-12.036-6.781-0.46c-5.343,11.576-12.937-9.155-18.691-27.961
				c-5.753-18.806-11.255,9.13-10.683,25.967c0.572,16.837,0.527,26.831,9.685,39.71c9.158,12.879,4.211,56.134,4.211,56.134
				L2380.576,1844.838z"/>
            <path style="fill:#26264F;" d="M2984.394,3188.943c1.094-10.356,25.971-6.571,42.258-3.886
				c16.289,2.684,23.061,9.755,25.206,16.075c2.145,6.319-0.808,21.359-15.522,13.973
				C3024.258,3209.041,2983.426,3198.097,2984.394,3188.943z"/>

            <linearGradient id="SVGID_00000154407976451180733190000014105592839374634163_"
                            gradientUnits="userSpaceOnUse" x1="3086.0303" y1="3123.3301" x2="3139.6462" y2="3282.9023"
                            gradientTransform="matrix(0.9977 0.0677 -0.0677 0.9977 140.8456 -248.989)">
				<stop offset="0" style="stop-color:#FFC444"/>
                <stop offset="0.9964" style="stop-color:#F36F56"/>
			</linearGradient>
            <path style="fill:url(#SVGID_00000154407976451180733190000014105592839374634163_);" d="M3017.264,3150.768l8.931,41.012
				c0,0,11.125,8.807,15.229,5.08l-1.197-46.649L3017.264,3150.768z"/>

            <linearGradient id="SVGID_00000164479030976667338530000003053122255049559439_"
                            gradientUnits="userSpaceOnUse" x1="3017.3604" y1="3146.9832" x2="3070.5806" y2="3305.3774"
                            gradientTransform="matrix(0.9977 0.0677 -0.0677 0.9977 140.8456 -248.989)">
				<stop offset="0" style="stop-color:#FFC444"/>
                <stop offset="0.9964" style="stop-color:#F36F56"/>
			</linearGradient>
            <polygon style="fill:url(#SVGID_00000164479030976667338530000003053122255049559439_);" points="2936.492,3121.377
				2973.967,3140.844 2966.158,3159.945 2928.167,3147.261 			"/>
            <path style="fill:#26264F;" d="M2929.146,3197.066c0,0,25.282,8.403,37.696-6.03c7.983-9.28,15.201-25.473,19.337-35.852
				c2.246-5.635-0.249-12.022-5.719-14.645c-7.943-3.809-18.807-8.074-23.721-5.732c-8.22,3.917-2.807,34.022-6.795,41.503
				C2945.956,3183.79,2928.795,3187.596,2929.146,3197.066z"/>

            <linearGradient id="SVGID_00000031208934939373609910000000995539615948022925_"
                            gradientUnits="userSpaceOnUse" x1="3233.9878" y1="3041.5073" x2="2982.2524" y2="2757.6719"
                            gradientTransform="matrix(0.9977 0.0677 -0.0677 0.9977 140.8456 -248.989)">
				<stop offset="0" style="stop-color:#444B8C"/>
                <stop offset="0.9964" style="stop-color:#3E4177"/>
			</linearGradient>
            <path style="fill:url(#SVGID_00000031208934939373609910000000995539615948022925_);" d="M2915.142,2515.164
				c-0.513,93.693,4.999,202.651,22.538,322.851c18.283,125.294,45.62,235.294,74.285,327.634c3.246,1.833,9.064,4.562,16.829,5.314
				c9.089,0.88,16.236-1.398,19.834-2.825c9.581-47.664,15.59-88.038,19.444-118.065c10.181-79.298,15.116-119.928,7.489-168.041
				c-7.156-45.148-15.569-42.234-22.853-92.091c-6.477-44.338-4.4-77.962-1.077-127.179c2.282-33.794,6.927-79.329,17.131-133.045
				C3017.555,2524.867,2966.349,2520.015,2915.142,2515.164z"/>

            <linearGradient id="SVGID_00000058558535514903177190000013220601141080035717_"
                            gradientUnits="userSpaceOnUse" x1="3233.988" y1="3041.5073" x2="2982.2524" y2="2757.6716"
                            gradientTransform="matrix(0.9977 0.0677 -0.0677 0.9977 140.8456 -248.989)">
				<stop offset="0" style="stop-color:#444B8C"/>
                <stop offset="0.9964" style="stop-color:#3E4177"/>
			</linearGradient>
            <path style="opacity:0.3;fill:url(#SVGID_00000058558535514903177190000013220601141080035717_);" d="M3019.253,3133.123
				c-7.99-33.626,13.191-47.297,13.678-89.245c0.597-51.25-30.741-54.91-36.782-112.99c-4.854-46.674,14.859-49.339,13.529-105.766
				c-1.412-59.969-24.069-73.646-16.726-109.089c4.083-19.706,17.525-46.05,60.199-72.838c2.656-31.073,7.25-69.465,15.611-113.478
				c-51.206-4.849-102.412-9.701-153.619-14.552c-0.513,93.693,4.999,202.651,22.538,322.851
				c18.283,125.294,45.62,235.294,74.285,327.634c3.246,1.833,9.064,4.562,16.829,5.314c4.12,0.399,7.768,0.106,10.94-0.421
				C3030.672,3160.479,3022.82,3148.129,3019.253,3133.123z"/>

            <linearGradient id="SVGID_00000161600918617487358900000005491376531181405354_"
                            gradientUnits="userSpaceOnUse" x1="2917.4238" y1="2879.7173" x2="2545.7385" y2="2810.449"
                            gradientTransform="matrix(0.9977 0.0677 -0.0677 0.9977 140.8456 -248.989)">
				<stop offset="0" style="stop-color:#444B8C"/>
                <stop offset="0.9964" style="stop-color:#3E4177"/>
			</linearGradient>
            <path style="fill:url(#SVGID_00000161600918617487358900000005491376531181405354_);" d="M2791.099,2490.234
				c-3.394,22.357-9.368,56.149-20.013,96.497c-24.003,90.981-46.377,119.124-55.841,179.035
				c-11.034,69.86,4.402,126.484,10.274,148.022c40.082,147.029,172.379,223.178,207.478,242.011
				c4.989-12.982,9.98-25.965,14.967-38.946c-8.281-12.802-20.444-33.328-31.404-60.17c-18.711-45.828-18.399-72.059-30.251-116.741
				c-21.382-80.614-42.454-70.834-44.611-111.287c-3.419-64.109,49.632-86.298,104.162-204.723
				c15.626-33.935,25.369-62.732,30.862-80.458C2914.848,2525.729,2852.974,2507.981,2791.099,2490.234z"/>

            <linearGradient id="SVGID_00000015337387757323961440000017804815164017890216_"
                            gradientUnits="userSpaceOnUse" x1="2739.4824" y1="1729.6283" x2="2970.9478" y2="2579.4631"
                            gradientTransform="matrix(0.9977 0.0677 -0.0677 0.9977 140.8456 -248.989)">
				<stop offset="0" style="stop-color:#AB316D"/>
                <stop offset="1" style="stop-color:#792D3D"/>
			</linearGradient>
            <path style="fill:url(#SVGID_00000015337387757323961440000017804815164017890216_);" d="M3223.602,1843.926
				c13.207-1.22,26.414-2.441,39.62-3.661c14.837,24.183,57.146,100.313,41.233,197.116c-3.77,22.942-18.503,98.911-87.408,155.469
				c-49.337,40.497-101.825,50.714-125.773,53.839c-7.744,113.473-10.452,185.176-9.459,228.268
				c0.12,5.195,1.201,48.8-8.455,104.287c-2.942,16.908-4.467,25.455-7.116,29.998c-36.756,63.047-218.583-1.236-267.176-26.268
				c-12.635-6.509-25.325-15.231-30.042-29.467c-6.059-18.292,2.003-33.952,5.789-47.869c9.298-34.173-9.521-61.722-46.258-131.736
				c-15.535-29.606-37.998-73.994-63.856-131.394c-34.961,7.676-116.972,20.114-193.505-22.987
				c-112.457-63.332-168.354-221.387-123.251-385.5c12.029-2.57,24.057-5.141,36.085-7.711
				c5.618,32.823,17.723,77.327,45.589,123.275c16.908,27.877,30.988,51.093,57.184,65.317
				c41.133,22.333,80.177,5.142,136.215-4.725c88.302-15.545,160.375-2.617,247.928,13.092
				c95.65,17.162,120.719,38.749,192.085,30.223c31.741-3.791,71.512-9.052,105.748-38.022
				C3236.126,1958.48,3225.298,1857.766,3223.602,1843.926z"/>

            <linearGradient id="SVGID_00000065070796857877341260000016708216555109728153_"
                            gradientUnits="userSpaceOnUse" x1="2845.2847" y1="2057.4817" x2="2887.1006" y2="2180.8174"
                            gradientTransform="matrix(0.9977 0.0677 -0.0677 0.9977 140.8456 -248.989)">
				<stop offset="0" style="stop-color:#FFC444"/>
                <stop offset="0.9964" style="stop-color:#F36F56"/>
			</linearGradient>
            <path style="fill:url(#SVGID_00000065070796857877341260000016708216555109728153_);" d="M2854.936,1946.291
				c0,0-7.349,22.74,0.088,33.66c7.436,10.919,31.92,52.498,40.638,55.039c4.967,1.447,17.468,4.216,27.307,6.332
				c5.179,1.113,5.8,8.388,0.809,10.163c-10.175,3.618-27.897,6.751-57.803,4.396c-43.228-3.403-76.907-22.225-91.498-31.783
				c-2.072-1.357-0.83-4.556,1.622-4.204l19.368,2.785c16.589,2.386,31.259-10.896,30.531-27.639l-0.475-10.903L2854.936,1946.291z"
            />
            <g>
				<g>
					
						<linearGradient id="SVGID_00000011746444670104553010000010233878705749323146_"
                                        gradientUnits="userSpaceOnUse" x1="2857.5664" y1="3590.6946" x2="2899.3818"
                                        y2="3714.0288"
                                        gradientTransform="matrix(0.9977 0.0677 -0.0677 0.9977 654.2445 -214.142)">
						<stop offset="0" style="stop-color:#FFC444"/>
                            <stop offset="0.9964" style="stop-color:#F36F56"/>
					</linearGradient>
                    <path style="fill:url(#SVGID_00000011746444670104553010000010233878705749323146_);" d="M2833.921,1991.647
						c-2.577-1.651-24.145-5.769-26.348-17.668c-2.994-16.151,12.586-34.504,14.575-37.494
						c8.325-12.512,10.315-14.143,13.926-16.114l4.994-2.489c0,0,0.285-0.086,0.582-0.162c3.134-0.806,13.51-0.182,15.565,0.455
						c6.566,2.037,11.224,29.963,5.695,68.346c0.144,1.494,0.278,3,0.402,4.518
						C2863.631,1994.983,2833.631,1993.009,2833.921,1991.647z"/>
                    <path style="fill:#26264F;" d="M2818.65,1913.895c-1.263,4.652,10.584,14.889,15.646,19.306
						c0.616,0.538,2.379,2.326,3.898,5.119c0.221,0.407,0.406,0.876,0.555,1.474c1.934,7.767-10.841,15.544-8.835,19.124
						c1.455,2.599,9.888,0.065,10.663,2.264c0.731,2.07-6.403,5.573-5.584,8.048c0.618,1.868,4.93,0.599,7.304,3.593
						c1.182,1.486,0.7,2.541,1.707,6.858c0.57,2.439,1.432,5.135,2.15,6.655c3.494,7.389,14.956,11.012,17.462,8.408
						c0.698-0.726,0.219-1.431,1.096-3.998c0,0,0.814-2.381,2.762-5.039c2.783-3.803,8.884-6.149,15.16-9.859
						c11.625-6.868,15.198-13.296,16.293-15.479c0.124-0.244,0.232-0.471,0.328-0.678c0.187-0.37,0.35-0.742,0.494-1.116
						c2.866-7.498-5.955-21.459-5.955-21.459c-7.09-11.026-16.467-18.74-24.04-23.753c-14.214-3.813-25.969-4.251-34.154-3.904
						C2828.934,1909.743,2819.65,1910.211,2818.65,1913.895z"/>
                    <path style="fill:#26264F;" d="M2811.463,1953.306c0,0,8.46,11.678,21.528-0.77l5.886,2.181c0,0-16.88,31.315-20.021,31.101
						c-3.141-0.213-12.171-2.925-12.171-2.925c-3.34-1.672-5.026-5.489-3.989-9.077
						C2804.59,1967.272,2809.021,1957.843,2811.463,1953.306z"/>

                    <linearGradient id="SVGID_00000156555216485817133820000003432352353462663572_"
                                    gradientUnits="userSpaceOnUse" x1="3759.2864" y1="4337.3013" x2="3866.9895"
                                    y2="4510.8936"
                                    gradientTransform="matrix(0.9977 0.0677 -0.0677 0.9977 654.2445 -214.142)">
						<stop offset="0" style="stop-color:#FFC444"/>
                        <stop offset="0.9964" style="stop-color:#F36F56"/>
					</linearGradient>
                    <path style="fill:url(#SVGID_00000156555216485817133820000003432352353462663572_);" d="M2835.652,1956.58
						c3.293-3.759,8.096,0.487,7.655,5.697c-0.442,5.208-5.976,10.164-10.777,8.691
						C2827.727,1969.498,2831.221,1961.638,2835.652,1956.58z"/>
				</g>
			</g>

            <linearGradient id="SVGID_00000157295397679447418410000000672540916834335633_"
                            gradientUnits="userSpaceOnUse" x1="2576.3433" y1="1774.0554" x2="2807.8105" y2="2623.8977"
                            gradientTransform="matrix(0.9977 0.0677 -0.0677 0.9977 140.8456 -248.989)">
				<stop offset="0" style="stop-color:#AB316D"/>
                <stop offset="1" style="stop-color:#792D3D"/>
			</linearGradient>
            <path style="opacity:0.3;fill:url(#SVGID_00000157295397679447418410000000672540916834335633_);" d="M3018.224,2586.933
				c-64.287,17.865-135.266-19.453-150.545-64.83c-11.293-33.544,19.683-62.71,1.551-97.688
				c-17.46-33.683-53.943-21.598-76.214-55.975c-24.271-37.464,9.283-66.913-11.155-116.332
				c-15.376-37.177-55.844-72.445-97.768-75.218c-49.832-3.298-71.556,41.309-113.74,29.111
				c-22.035-6.369-20.6-19.841-50.351-44.059c-51.633-42.03-89.093-28.434-131.925-58.486
				c-12.586-8.832-26.406-22.001-38.704-42.498c22.082,69.579,64.608,126.343,121.821,158.564
				c76.533,43.1,158.543,30.663,193.505,22.987c25.858,57.399,48.322,101.788,63.856,131.394
				c36.737,70.014,55.557,97.563,46.258,131.736c-3.786,13.917-11.848,29.577-5.789,47.869
				c4.717,14.236,17.407,22.958,30.042,29.467c48.594,25.032,230.421,89.314,267.176,26.268c2.649-4.543,4.174-13.09,7.116-29.998
				c1.833-10.532,3.277-20.632,4.416-30.127C3063.727,2564.805,3044.39,2579.662,3018.224,2586.933z"/>
		</g>
	</g>
</g>
</svg>
