<?xml version="1.0" encoding="UTF-8"?>
<svg id="Layer_2" data-name="Layer 2" xmlns="http://www.w3.org/2000/svg" xmlns:xlink="http://www.w3.org/1999/xlink" viewBox="0 0 930.38 596.16">
    <defs>
        <style>
            .cls-1 {
            font-family: SegoeUIVariable, 'Segoe UI Variable';
            font-size: 22px;
            font-variation-settings: 'wght' 400, 'opsz' 10;
            }

            .cls-2 {
            fill: #6994ff;
            }

            .cls-3 {
            stroke: url(#linear-gradient-4);
            }

            .cls-3, .cls-4, .cls-5, .cls-6, .cls-7, .cls-8, .cls-9, .cls-10, .cls-11, .cls-12, .cls-13, .cls-14 {
            fill: none;
            }

            .cls-3, .cls-4, .cls-5, .cls-7, .cls-8, .cls-9, .cls-10, .cls-11, .cls-12, .cls-13, .cls-14 {
            stroke-width: 2px;
            }

            .cls-3, .cls-4, .cls-7, .cls-8, .cls-9, .cls-10, .cls-11, .cls-12, .cls-13, .cls-14 {
            stroke-linecap: round;
            }

            .cls-15 {
            fill: #d77655;
            }

            .cls-15, .cls-16, .cls-17 {
            fill-rule: evenodd;
            }

            .cls-4 {
            stroke: url(#linear-gradient-6);
            }

            .cls-18, .cls-16 {
            fill: #fff;
            }

            .cls-19 {
            fill: #4285f4;
            }

            .cls-5 {
            stroke: #e4e4e7;
            }

            .cls-7 {
            stroke: url(#linear-gradient-2);
            }

            .cls-20 {
            letter-spacing: -.09em;
            }

            .cls-21 {
            clip-path: url(#clippath-1);
            }

            .cls-8 {
            stroke: url(#linear-gradient-8);
            }

            .cls-9 {
            stroke: #000;
            stroke-linejoin: round;
            }

            .cls-22 {
            fill: #fcf2ee;
            }

            .cls-10 {
            stroke: url(#linear-gradient-7);
            }

            .cls-11 {
            stroke: url(#linear-gradient-3);
            }

            .cls-12 {
            stroke: url(#linear-gradient);
            }

            .cls-23 {
            fill: #669df6;
            }

            .cls-13 {
            stroke: url(#linear-gradient-5);
            }

            .cls-24 {
            letter-spacing: -.03em;
            }

            .cls-14 {
            stroke: rgba(128, 128, 128, .2);
            }

            .cls-25 {
            clip-path: url(#clippath-2);
            }

            .cls-26 {
            letter-spacing: -.09em;
            }

            .cls-27 {
            fill: #aecbfa;
            }

            .cls-28 {
            clip-path: url(#clippath);
            }
        </style>
        <linearGradient id="linear-gradient" x1="-422.62" y1="565.04" x2="-40.62" y2="565.04" gradientTransform="translate(564 893.2) scale(1 -1)" gradientUnits="userSpaceOnUse">
            <stop offset="0" stop-color="#ffaa40"/>
            <stop offset=".33" stop-color="#9c40ff"/>
            <stop offset="1" stop-color="#9c40ff" stop-opacity="0"/>
        </linearGradient>
        <linearGradient id="linear-gradient-2" x1="-467.34" y1="681.37" x2="-477.34" y2="681.37" xlink:href="#linear-gradient"/>
        <linearGradient id="linear-gradient-3" x1="-385.64" y1="643" x2="-395.64" y2="643" xlink:href="#linear-gradient"/>
        <linearGradient id="linear-gradient-4" x1="-381.08" y1="604.54" x2="-391.08" y2="604.54" xlink:href="#linear-gradient"/>
        <linearGradient id="linear-gradient-5" x1="-384.68" y1="567.54" x2="-394.68" y2="567.54" xlink:href="#linear-gradient"/>
        <linearGradient id="linear-gradient-6" x1="-388.91" y1="528.26" x2="-398.91" y2="528.26" xlink:href="#linear-gradient"/>
        <linearGradient id="linear-gradient-7" x1="-414.56" y1="489.85" x2="-424.56" y2="489.85" xlink:href="#linear-gradient"/>
        <linearGradient id="linear-gradient-8" x1="-380.22" y1="451.49" x2="-390.22" y2="451.49" xlink:href="#linear-gradient"/>
        <clipPath id="clippath">
            <rect class="cls-6" x="508.38" y="313.27" width="28" height="29.8"/>
        </clipPath>
        <clipPath id="clippath-1">
            <rect class="cls-6" x="888.38" y="74.22" width="28" height="27.86"/>
        </clipPath>
        <clipPath id="clippath-2">
            <rect class="cls-6" x="888.38" y="154.22" width="28" height="27.86"/>
        </clipPath>
    </defs>
    <g id="Layer_1-2" data-name="Layer 1">
        <g>
            <path class="cls-14" d="M142.38,328.16h380"/>
            <path class="cls-12" d="M142.38,328.16h380"/>
            <path class="cls-14" d="M522.38,328.16c126.67,33.33,253.33-46.67,380-240"/>
            <path class="cls-7" d="M522.38,328.16c126.67,33.33,253.33-46.67,380-240"/>
            <path class="cls-14" d="M522.38,328.16c126.67,20,253.33-33.33,380-160"/>
            <path class="cls-11" d="M522.38,328.16c126.67,20,253.33-33.33,380-160"/>
            <path class="cls-14" d="M522.38,328.16c126.67,6.67,253.33-20,380-80"/>
            <path class="cls-3" d="M522.38,328.16c126.67,6.67,253.33-20,380-80"/>
            <path class="cls-14" d="M522.38,328.16c126.67-6.67,253.33-6.67,380,0"/>
            <path class="cls-13" d="M522.38,328.16c126.67-6.67,253.33-6.67,380,0"/>
            <path class="cls-14" d="M522.38,328.16c126.67-20,253.33,6.67,380,80"/>
            <path class="cls-4" d="M522.38,328.16c126.67-20,253.33,6.67,380,80"/>
            <path class="cls-14" d="M522.38,328.16c126.67-33.33,253.33,20,380,160"/>
            <path class="cls-10" d="M522.38,328.16c126.67-33.33,253.33,20,380,160"/>
            <path class="cls-14" d="M522.38,328.16c126.67-46.67,253.33,33.33,380,240"/>
            <path class="cls-8" d="M522.38,328.16c126.67-46.67,253.33,33.33,380,240"/>
            <g>
                <path class="cls-18" d="M114.38,328.16c0-15.46,12.54-28,28-28s28,12.54,28,28-12.54,28-28,28-28-12.54-28-28Z" shape-rendering="crispEdges"/>
                <path class="cls-5" d="M142.38,301.16c14.91,0,27,12.09,27,27s-12.09,27-27,27-27-12.09-27-27,12.09-27,27-27Z" shape-rendering="crispEdges"/>
                <path class="cls-9" d="M148.38,324.16v-2c0-.53-.21-1.04-.59-1.41s-.88-.59-1.41-.59h-12c-.53,0-1.04.21-1.41.59s-.59.88-.59,1.41v7c0,.53.21,1.04.59,1.41s.88.59,1.41.59h8"/>
                <path class="cls-9" d="M140.38,335.16v-3.96,3.15"/>
                <path class="cls-9" d="M137.38,335.16h5"/>
                <path class="cls-9" d="M150.38,328.16h-2c-1.1,0-2,.9-2,2v6c0,1.1.9,2,2,2h2c1.1,0,2-.9,2-2v-6c0-1.1-.9-2-2-2Z"/>
            </g>
            <g>
                <path class="cls-18" d="M494.38,328.16c0-15.46,12.54-28,28-28s28,12.54,28,28-12.54,28-28,28-28-12.54-28-28Z" shape-rendering="crispEdges"/>
                <path class="cls-5" d="M522.38,301.16c14.91,0,27,12.09,27,27s-12.09,27-27,27-27-12.09-27-27,12.09-27,27-27Z" shape-rendering="crispEdges"/>
                <g class="cls-28">
                    <g>
                        <path d="M536.38,320.9c0-.54-.3-1.03-.78-1.27l-11.81-5.91s.38.43.38.9v26.75c0,.52-.38.9-.38.9l1.96-.96c.38-.29.92-.96.95-2.06.04-1.28.08-10.9.09-15.55.06-.47.53-1.41,1.88-1.41s3.76.66,4.79.99c.31.09.98.54,1.13,1.56.15,1.02.12,7.58.09,10.74,0,.31.02.91.85.91s.84-.91.84-.91v-14.68Z"/>
                        <path d="M527.55,324.35c0-.72.66-1.25,1.36-1.11l4.04.85c.52.11.9.57.9,1.1v10.52c0,.75.66,1.18.66,1.18l-6.67-1.63c-.17-.04-.29-.19-.29-.37v-10.56ZM521.19,313.41c.94-.46,2.03.22,2.03,1.27v26.97c0,1.05-1.1,1.73-2.03,1.27l-12.03-5.95c-.48-.24-.79-.73-.79-1.27v-2.3l6.38,2.55c.52.21,1.08-.18,1.08-.74,0-.34-.22-.65-.54-.75l-6.93-2.32v-1.84l5.17.99c.51.1.98-.29.98-.81,0-.42-.32-.78-.73-.82l-5.42-.61v-1.85l10.08-.39c.53-.02.96-.46.96-1,0-.59-.52-1.06-1.1-.99l-9.93,1.12v-2.09l6.86-2.3c.31-.1.51-.39.51-.71,0-.53-.53-.89-1.02-.7l-6.36,2.45v-1.97c0-.54.3-1.03.79-1.27l12.03-5.95Z"/>
                    </g>
                </g>
            </g>
            <g>
                <path class="cls-18" d="M874.38,88.16c0-15.46,12.54-28,28-28s28,12.54,28,28-12.54,28-28,28-28-12.54-28-28Z" shape-rendering="crispEdges"/>
                <path class="cls-5" d="M902.38,61.16c14.91,0,27,12.09,27,27s-12.09,27-27,27-27-12.09-27-27,12.09-27,27-27Z" shape-rendering="crispEdges"/>
                <g class="cls-21">
                    <g>
                        <path class="cls-16" d="M894.71,74.22h15.35c3.48,0,6.32,2.84,6.32,6.32v15.22c0,3.48-2.84,6.32-6.32,6.32h-15.35c-3.48,0-6.32-2.84-6.32-6.32v-15.22c0-3.48,2.84-6.32,6.32-6.32Z"/>
                        <path d="M910.91,86.34c.17-.51.25-1.03.25-1.57,0-.88-.23-1.75-.68-2.51-.9-1.56-2.55-2.52-4.35-2.52-.35,0-.71.04-1.05.11-.47-.52-1.04-.94-1.68-1.23-.64-.29-1.33-.44-2.03-.44h-.03s0,0-.01,0c-2.18,0-4.11,1.4-4.78,3.47-1.4.29-2.61,1.16-3.32,2.41-.44.77-.68,1.63-.68,2.52,0,1.24.46,2.44,1.29,3.36-.17.51-.25,1.03-.25,1.57,0,.88.23,1.75.68,2.51.9,1.56,2.55,2.52,4.35,2.52.35,0,.71-.04,1.05-.11.47.52,1.04.94,1.68,1.23.64.29,1.33.44,2.03.44h.05c2.18,0,4.11-1.4,4.77-3.48,1.4-.29,2.61-1.16,3.32-2.41.44-.76.68-1.63.68-2.52,0-1.24-.46-2.44-1.29-3.36h0ZM903.42,96.8h0c-.87,0-1.72-.31-2.38-.86.04-.02.08-.04.12-.07l3.96-2.29c.1-.06.18-.14.24-.24s.09-.21.09-.32v-5.59l1.68.97s.03.03.03.05v4.63c0,2.06-1.67,3.73-3.73,3.73ZM895.4,93.38c-.33-.57-.5-1.21-.5-1.86,0-.21.02-.43.05-.64.03.02.08.05.12.07l3.97,2.29c.1.06.21.09.33.09.11,0,.23-.03.33-.09l4.84-2.8v1.94s0,.02,0,.03c0,0-.01.02-.02.02l-4.01,2.31c-.57.33-1.21.5-1.87.5-.65,0-1.3-.17-1.87-.5-.57-.33-1.04-.8-1.37-1.36h0ZM894.36,84.72c.44-.76,1.12-1.34,1.94-1.64,0,.03,0,.09,0,.14v4.58h0c0,.12.03.23.09.33.06.1.14.18.24.24l4.84,2.79-1.68.97s-.02,0-.03,0c-.01,0-.02,0-.03,0l-4.01-2.32c-.57-.33-1.04-.8-1.36-1.37-.33-.57-.5-1.21-.5-1.87,0-.65.17-1.3.5-1.86h0ZM908.13,87.93l-4.84-2.8,1.68-.97s.02,0,.03,0,.02,0,.03,0l4.01,2.31c1.15.67,1.87,1.9,1.87,3.23,0,1.56-.98,2.96-2.44,3.5v-4.72h0c0-.24-.12-.45-.32-.56ZM909.8,85.42s-.08-.05-.12-.07l-3.96-2.29c-.1-.06-.21-.09-.33-.09-.11,0-.23.03-.33.09l-4.84,2.8v-1.94h0s0-.02,0-.03c0,0,.01-.02.02-.02l4.01-2.31c.57-.33,1.21-.5,1.86-.5,2.06,0,3.73,1.67,3.73,3.73,0,.21-.02.42-.05.63h0ZM899.31,88.87l-1.68-.97s-.02-.01-.02-.02c0,0,0-.02-.01-.03v-4.63c0-2.06,1.67-3.73,3.73-3.73.87,0,1.72.31,2.39.86-.04.02-.08.04-.12.07l-3.97,2.29c-.1.06-.18.14-.24.24s-.09.21-.09.32h0s0,5.59,0,5.59ZM900.22,86.9l2.16-1.25,2.16,1.24v2.49l-2.16,1.24-2.16-1.24v-2.49Z"/>
                    </g>
                </g>
            </g>
            <g>
                <path class="cls-18" d="M874.38,168.16c0-15.46,12.54-28,28-28s28,12.54,28,28-12.54,28-28,28-28-12.54-28-28Z" shape-rendering="crispEdges"/>
                <path class="cls-5" d="M902.38,141.16c14.91,0,27,12.09,27,27s-12.09,27-27,27-27-12.09-27-27,12.09-27,27-27Z" shape-rendering="crispEdges"/>
                <g class="cls-25">
                    <g>
                        <path class="cls-15" d="M894.71,154.22h15.35c3.48,0,6.32,2.84,6.32,6.32v15.22c0,3.48-2.84,6.32-6.32,6.32h-15.35c-3.48,0-6.32-2.84-6.32-6.32v-15.22c0-3.48,2.84-6.32,6.32-6.32Z"/>
                        <path class="cls-22" d="M896.16,171.53l4.03-2.26.07-.2-.07-.11h-.2l-.67-.04-2.3-.06-1.99-.08-1.93-.1-.49-.1-.46-.6.05-.3.41-.28.59.05,1.3.09,1.94.14,1.41.08,2.09.22h.33l.05-.13-.11-.08-.09-.08-2.01-1.36-2.18-1.44-1.14-.83-.62-.42-.31-.39-.13-.86.56-.62.75.05.19.05.76.59,1.63,1.26,2.12,1.56.31.26.12-.09.02-.06-.14-.23-1.15-2.09-1.23-2.12-.55-.88-.15-.53c-.05-.22-.09-.4-.09-.62l.64-.86.35-.11.85.11.36.31.53,1.21.86,1.9,1.33,2.58.39.77.21.71.08.22h.13v-.12l.11-1.46.2-1.79.2-2.3.07-.65.32-.78.64-.42.5.24.41.59-.06.38-.24,1.58-.48,2.48-.31,1.66h.18l.21-.21.84-1.11,1.41-1.76.62-.7.73-.77.47-.37h.88l.65.96-.29,1-.91,1.15-.75.97-1.08,1.45-.67,1.16.06.09h.16s2.43-.53,2.43-.53l1.32-.24,1.57-.27.71.33.08.34-.28.69-1.68.41-1.97.39-2.93.69-.04.03.04.05,1.32.12.57.03h1.38l2.58.19.67.44.4.54-.07.42-1.04.53-1.4-.33-3.26-.78-1.12-.28h-.16v.09l.93.91,1.71,1.54,2.14,1.99.11.49-.27.39-.29-.04-1.88-1.41-.73-.64-1.64-1.38h-.11v.15l.38.55,2,3,.1.92-.15.3-.52.18-.57-.1-1.17-1.64-1.21-1.85-.97-1.66-.12.07-.58,6.19-.27.32-.62.24-.52-.39-.28-.64.28-1.26.33-1.64.27-1.3.24-1.62.15-.54v-.04s-.13.01-.13.01l-1.22,1.68-1.86,2.51-1.47,1.58-.35.14-.61-.32.06-.57.34-.5,2.04-2.59,1.23-1.61.79-.93v-.13h-.05l-5.41,3.51-.96.12-.41-.39.05-.64.2-.21,1.63-1.12h0s0,.01,0,.01Z"/>
                    </g>
                </g>
            </g>
            <g>
                <path class="cls-18" d="M874.38,248.16c0-15.46,12.54-28,28-28s28,12.54,28,28-12.54,28-28,28-28-12.54-28-28Z" shape-rendering="crispEdges"/>
                <path class="cls-5" d="M902.38,221.16c14.91,0,27,12.09,27,27s-12.09,27-27,27-27-12.09-27-27,12.09-27,27-27Z" shape-rendering="crispEdges"/>
                <path class="cls-23" d="M911.71,250.36c-.14-.17-.33-.28-.55-.31-.21-.04-.43.01-.62.12l-8.17,6v.26c.12-.01.24,0,.35.03.11.04.22.09.31.17.09.08.16.18.21.28.05.11.07.23.07.34s-.03.24-.07.35c-.05.11-.12.21-.21.28-.09.08-.19.14-.31.17-.11.03-.23.05-.35.03.19,0,.37-.06.53-.17l8.64-6.38c.17-.14.28-.34.31-.56.03-.22-.02-.44-.15-.62Z"/>
                <path class="cls-27" d="M902.38,258.1c-.2-.02-.39-.12-.53-.28-.14-.15-.21-.35-.21-.56s.08-.4.21-.56c.14-.15.33-.25.53-.28v-.26l-8.17-6c-.18-.12-.4-.16-.62-.13-.21.03-.41.15-.55.32-.12.18-.17.4-.14.62.04.22.15.41.32.55l8.64,6.38c.15.11.33.17.51.18h-.01Z"/>
                <path class="cls-19" d="M902.38,255.55c-.34,0-.67.1-.95.29-.28.19-.5.46-.63.77-.13.31-.16.66-.1.99.07.33.23.64.47.88.24.24.55.4.88.47.33.07.68.03.99-.1.31-.13.58-.35.77-.63.19-.28.29-.61.29-.95,0-.45-.18-.89-.5-1.21-.32-.32-.76-.5-1.21-.5ZM902.38,258.1c-.17,0-.33-.05-.47-.14-.14-.09-.25-.22-.31-.38-.06-.15-.08-.32-.05-.49.03-.16.11-.31.23-.43.12-.12.27-.2.43-.23.16-.03.33-.01.49.05.15.07.28.18.37.32.09.14.14.3.14.47,0,.11-.02.22-.06.32-.04.1-.1.19-.18.27-.08.08-.17.14-.27.18-.1.04-.21.06-.32.06Z"/>
                <path class="cls-27" d="M895.38,241.28c-.23,0-.45-.1-.61-.26-.16-.16-.26-.38-.26-.62v-2.19c-.01-.12,0-.25.03-.37.04-.12.1-.23.18-.32s.18-.17.3-.22c.11-.05.24-.08.36-.08s.25.03.36.08c.11.05.22.13.3.22.08.09.14.2.18.32.04.12.05.25.04.37v2.19c0,.23-.1.46-.26.62-.17.16-.39.26-.62.26Z"/>
                <path class="cls-27" d="M895.36,249.04c.49,0,.89-.4.89-.89s-.4-.89-.89-.89-.89.4-.89.89.4.89.89.89Z"/>
                <path class="cls-27" d="M895.36,246.46c.49,0,.89-.4.89-.89s-.4-.89-.89-.89-.89.4-.89.89.4.89.89.89Z"/>
                <path class="cls-27" d="M895.36,243.87c.49,0,.89-.4.89-.89s-.4-.89-.89-.89-.89.4-.89.89.4.89.89.89Z"/>
                <path class="cls-19" d="M909.38,243.85c-.23,0-.46-.1-.62-.26-.16-.17-.26-.39-.26-.62v-2.19c0-.23.09-.46.26-.62.16-.16.39-.26.62-.26s.46.09.62.26c.16.16.26.39.26.62v2.19c0,.12-.02.23-.06.34-.04.11-.11.21-.19.29-.08.08-.18.15-.28.19-.11.04-.22.07-.34.07Z"/>
                <path class="cls-19" d="M909.4,249.05c.49,0,.89-.4.89-.89s-.4-.89-.89-.89-.89.4-.89.89.4.89.89.89Z"/>
                <path class="cls-19" d="M909.4,246.43c.49,0,.89-.4.89-.89s-.4-.89-.89-.89-.89.4-.89.89.4.89.89.89Z"/>
                <path class="cls-19" d="M909.4,239.1c.49,0,.89-.4.89-.89s-.4-.89-.89-.89-.89.4-.89.89.4.89.89.89Z"/>
                <path class="cls-23" d="M902.38,251.66c-.23,0-.45-.1-.61-.26-.16-.16-.26-.38-.26-.61v-2.23c.03-.22.13-.42.29-.56.16-.15.37-.23.59-.23s.43.08.59.23c.16.14.27.34.29.56v2.21c0,.12-.02.23-.06.34-.04.11-.11.21-.19.29-.08.08-.18.15-.29.2-.11.04-.22.07-.34.07Z"/>
                <path class="cls-23" d="M902.38,254.23c.49,0,.89-.4.89-.89s-.4-.89-.89-.89-.89.4-.89.89.4.89.89.89Z"/>
                <path class="cls-23" d="M902.38,246.87c.49,0,.89-.4.89-.89s-.4-.89-.89-.89-.89.4-.89.89.4.89.89.89Z"/>
                <path class="cls-23" d="M902.38,244.28c.49,0,.89-.4.89-.89s-.4-.89-.89-.89-.89.4-.89.89.4.89.89.89Z"/>
                <path class="cls-19" d="M905.88,246.45c-.23,0-.45-.1-.61-.26-.16-.16-.26-.38-.26-.62v-2.19c-.01-.12,0-.25.03-.37.04-.12.1-.23.18-.32.08-.09.18-.17.3-.22.11-.05.24-.08.36-.08s.25.03.36.08c.11.05.22.13.3.22.08.09.14.2.18.32.04.12.05.24.04.37v2.19c0,.23-.1.46-.26.62-.17.16-.39.25-.62.25Z"/>
                <path class="cls-19" d="M905.89,241.68c.49,0,.89-.4.89-.89s-.4-.89-.89-.89-.89.4-.89.89.4.89.89.89Z"/>
                <path class="cls-19" d="M905.89,251.6c.49,0,.89-.4.89-.89s-.4-.89-.89-.89-.89.4-.89.89.4.89.89.89Z"/>
                <path class="cls-19" d="M905.89,249.01c.49,0,.89-.4.89-.89s-.4-.89-.89-.89-.89.4-.89.89.4.89.89.89Z"/>
                <path class="cls-27" d="M898.87,251.6c.49,0,.89-.4.89-.89s-.4-.89-.89-.89-.89.4-.89.89.4.89.89.89Z"/>
                <path class="cls-27" d="M898.87,244.28c.49,0,.89-.4.89-.89s-.4-.89-.89-.89-.89.4-.89.89.4.89.89.89Z"/>
                <path class="cls-27" d="M898.87,241.68c.49,0,.89-.4.89-.89s-.4-.89-.89-.89-.89.4-.89.89.4.89.89.89Z"/>
                <path class="cls-27" d="M898.88,249.01c-.23,0-.45-.09-.61-.25-.17-.16-.26-.38-.27-.6v-2.22c0-.23.09-.46.26-.62.16-.16.39-.26.62-.26s.46.09.62.26c.16.16.26.39.26.62v2.22c0,.23-.1.44-.26.6-.16.16-.38.25-.6.25Z"/>
            </g>
            <g>
                <path class="cls-18" d="M874.38,328.16c0-15.46,12.54-28,28-28s28,12.54,28,28-12.54,28-28,28-28-12.54-28-28Z" shape-rendering="crispEdges"/>
                <path class="cls-5" d="M902.38,301.16c14.91,0,27,12.09,27,27s-12.09,27-27,27-27-12.09-27-27,12.09-27,27-27Z" shape-rendering="crispEdges"/>
                <path d="M906.91,325.3l.28,10.86h2.21l.28-14.81-2.77,3.95ZM909.67,320.14h-3.38l-5.3,7.57,1.69,2.41,6.99-9.98ZM895.09,336.16h3.38l1.69-2.41-1.69-2.41-3.38,4.82ZM895.09,325.3l7.6,10.86h3.38l-7.6-10.86h-3.38Z"/>
            </g>
            <g>
                <path class="cls-18" d="M874.38,408.16c0-15.46,12.54-28,28-28s28,12.54,28,28-12.54,28-28,28-28-12.54-28-28Z" shape-rendering="crispEdges"/>
                <path class="cls-5" d="M902.38,381.16c14.91,0,27,12.09,27,27s-12.09,27-27,27-27-12.09-27-27,12.09-27,27-27Z" shape-rendering="crispEdges"/>
                <path class="cls-17" d="M898.5,408.16c0,.62-.5,1.12-1.12,1.12s-1.12-.5-1.12-1.12.5-1.12,1.12-1.12,1.12.5,1.12,1.12ZM903.5,408.16c0,.62-.5,1.12-1.12,1.12s-1.12-.5-1.12-1.12.5-1.12,1.12-1.12,1.12.5,1.12,1.12ZM907.38,409.28c.62,0,1.12-.5,1.12-1.12s-.5-1.12-1.12-1.12-1.12.5-1.12,1.12.5,1.12,1.12,1.12Z"/>
            </g>
            <g>
                <path class="cls-18" d="M874.38,488.16c0-15.46,12.54-28,28-28s28,12.54,28,28-12.54,28-28,28-28-12.54-28-28Z" shape-rendering="crispEdges"/>
                <path class="cls-5" d="M902.38,461.16c14.91,0,27,12.09,27,27s-12.09,27-27,27-27-12.09-27-27,12.09-27,27-27Z" shape-rendering="crispEdges"/>
                <path class="cls-2" d="M904.98,480.06v.8c-.76.42-1.36.63-1.8.63-.24,0-.52-.07-.83-.19l-.88-.37c-.33-.14-.67-.2-1.03-.2-.29,0-.56.05-.79.15-.23.1-.51.29-.85.58v-.85c.58-.42,1.08-.64,1.52-.64.37,0,.76.08,1.16.23l.9.34c.37.14.7.22.99.22.42,0,.96-.23,1.61-.69ZM904.98,482.46v.85c-.64.44-1.17.66-1.58.66-.39,0-.8-.09-1.22-.27l-.85-.35c-.28-.12-.58-.17-.9-.17-.29,0-.55.06-.78.17-.23.11-.51.32-.84.62v-.94c.58-.42,1.12-.63,1.6-.63.29,0,.52.02.69.07.17.05.57.21,1.2.48.4.17.74.26,1.02.26.45,0,1.01-.25,1.66-.75Z"/>
                <path class="cls-2" d="M904.98,480.06v.8c-.76.42-1.36.63-1.8.63-.24,0-.52-.07-.83-.19l-.88-.37c-.33-.14-.67-.2-1.03-.2-.29,0-.56.05-.79.15-.23.1-.51.29-.85.58v-.85c.58-.42,1.08-.64,1.52-.64.37,0,.76.08,1.16.23l.9.34c.37.14.7.22.99.22.42,0,.96-.23,1.61-.69ZM904.98,482.46v.85c-.64.44-1.17.66-1.58.66-.39,0-.8-.09-1.22-.27l-.85-.35c-.28-.12-.58-.17-.9-.17-.29,0-.55.06-.78.17-.23.11-.51.32-.84.62v-.94c.58-.42,1.12-.63,1.6-.63.29,0,.52.02.69.07.17.05.57.21,1.2.48.4.17.74.26,1.02.26.45,0,1.01-.25,1.66-.75Z"/>
                <path class="cls-2" d="M904.98,480.46v.8c-.76.42-1.36.63-1.8.63-.24,0-.52-.07-.83-.19l-.88-.37c-.33-.14-.67-.2-1.03-.2-.29,0-.56.05-.79.15-.23.1-.51.29-.85.58v-.85c.58-.42,1.08-.64,1.52-.64.37,0,.76.08,1.16.23l.9.34c.37.14.7.22.99.22.42,0,.96-.23,1.61-.69ZM904.98,482.87v.85c-.64.44-1.17.66-1.58.66-.39,0-.8-.09-1.22-.27l-.85-.35c-.28-.12-.58-.17-.9-.17-.29,0-.55.06-.78.17-.23.11-.51.32-.84.62v-.94c.58-.42,1.12-.63,1.6-.63.29,0,.52.02.69.07.17.05.57.21,1.2.48.4.17.74.26,1.02.26.45,0,1.01-.25,1.66-.75ZM899.78,496.24v-.8c.76-.42,1.36-.63,1.8-.63.24,0,.52.07.83.2l.88.37c.33.13.67.2,1.03.2.29,0,.56-.05.79-.15.23-.1.51-.29.85-.58v.85c-.58.42-1.08.64-1.52.64-.37,0-.76-.08-1.16-.23l-.9-.34c-.37-.15-.7-.22-.99-.22-.42,0-.96.23-1.61.69ZM899.78,493.83v-.85c.64-.44,1.17-.66,1.58-.66.39,0,.8.09,1.22.27l.85.35c.28.12.58.17.9.17.29,0,.55-.06.78-.17.23-.11.51-.32.84-.62v.94c-.58.42-1.12.63-1.6.63-.29,0-.52-.02-.69-.07-.17-.05-.57-.21-1.2-.48-.4-.17-.74-.26-1.02-.26-.45,0-1.01.25-1.66.75Z"/>
                <path class="cls-2" d="M899.78,495.95v-.8c.76-.42,1.36-.63,1.8-.63.24,0,.52.07.83.2l.88.37c.33.14.67.2,1.03.2.29,0,.56-.05.79-.15.23-.1.51-.29.85-.58v.85c-.58.42-1.08.64-1.52.64-.37,0-.76-.08-1.16-.23l-.9-.34c-.37-.15-.7-.22-.99-.22-.42,0-.96.23-1.61.69ZM899.78,493.54v-.85c.64-.44,1.17-.66,1.58-.66.39,0,.8.09,1.22.27l.85.36c.28.11.58.17.9.17.29,0,.55-.06.78-.17.23-.11.51-.32.84-.62v.94c-.58.42-1.12.63-1.6.63-.29,0-.52-.02-.69-.07-.17-.05-.57-.21-1.2-.48-.4-.17-.74-.26-1.02-.26-.45,0-1.01.25-1.66.75ZM896.63,481.86l.69.41c-.01.86-.13,1.48-.35,1.87-.12.21-.32.42-.58.62l-.76.58c-.28.22-.51.48-.69.79-.15.26-.23.51-.26.76-.03.25,0,.59.08,1.02l-.73-.44c-.08-.71-.02-1.24.2-1.62.18-.32.45-.62.78-.89l.75-.61c.31-.25.54-.5.68-.75.21-.37.28-.95.21-1.74ZM898.72,483.07l.74.43c.06.77-.01,1.33-.22,1.69-.2.34-.48.65-.84.92l-.73.56c-.24.18-.44.42-.6.69-.15.25-.23.51-.24.76-.02.26.02.6.12,1.04l-.82-.46c-.07-.72.02-1.29.26-1.71.15-.26.28-.44.41-.56.13-.12.46-.39,1.01-.8.35-.26.59-.51.73-.75.23-.39.29-1,.18-1.82Z"/>
                <path class="cls-2" d="M896.87,482.03l.69.41c-.01.86-.13,1.48-.35,1.87-.12.21-.32.42-.58.62l-.76.58c-.28.22-.51.48-.69.79-.15.26-.23.51-.26.76-.03.25,0,.59.08,1.02l-.73-.44c-.08-.71-.02-1.24.2-1.62.19-.32.45-.62.78-.89l.75-.61c.31-.25.54-.5.68-.75.21-.37.28-.95.21-1.74ZM898.95,483.24l.73.43c.06.77-.01,1.33-.22,1.69-.2.34-.48.65-.84.92l-.73.56c-.24.18-.44.41-.6.69-.14.25-.22.5-.24.76-.02.26.02.6.12,1.04l-.82-.46c-.07-.72.02-1.29.26-1.71.15-.25.28-.44.41-.56.13-.12.46-.39,1.01-.8.35-.26.59-.51.73-.75.23-.39.29-1,.18-1.82Z"/>
                <path class="cls-2" d="M894.03,489.89l.7-.39c.74.44,1.22.86,1.44,1.24.12.21.2.48.25.82l.12.95c.05.35.16.68.34,1,.15.25.32.46.53.61.2.15.51.29.92.44l-.75.41c-.65-.28-1.09-.61-1.3-.98-.18-.32-.31-.69-.38-1.12l-.16-.95c-.06-.39-.16-.72-.31-.97-.21-.37-.68-.72-1.41-1.05ZM896.12,488.69l.74-.42c.7.33,1.15.68,1.36,1.04.2.34.32.74.38,1.19l.12.92c.04.3.14.59.3.86.15.25.33.45.54.59.21.15.53.28.96.42l-.81.48c-.66-.3-1.11-.66-1.35-1.08-.15-.25-.24-.46-.28-.63-.04-.17-.1-.6-.19-1.28-.05-.43-.15-.77-.28-1.01-.23-.39-.72-.75-1.48-1.06Z"/>
                <path class="cls-2" d="M894.38,489.72l.7-.4c.74.44,1.22.85,1.44,1.24.12.21.2.48.25.82l.12.95c.05.35.16.68.34,1,.15.26.32.46.53.61.2.15.51.29.92.44l-.75.41c-.65-.28-1.09-.61-1.3-.98-.18-.32-.31-.69-.38-1.12l-.16-.95c-.06-.39-.16-.72-.31-.97-.21-.37-.68-.72-1.41-1.05ZM896.47,488.52l.74-.42c.7.33,1.15.68,1.36,1.04.2.34.32.73.38,1.19l.12.92c.04.3.14.59.3.86.15.25.33.45.54.59.21.15.53.28.96.42l-.81.48c-.66-.3-1.11-.66-1.35-1.08-.15-.26-.24-.47-.28-.63-.04-.17-.1-.6-.19-1.28-.05-.43-.14-.77-.28-1.01-.23-.39-.72-.75-1.48-1.06ZM910.71,486.36l-.7.39c-.74-.44-1.22-.85-1.44-1.24-.12-.21-.2-.48-.25-.82l-.12-.95c-.05-.35-.16-.68-.34-1-.15-.26-.32-.46-.53-.61-.2-.15-.51-.29-.92-.44l.75-.41c.65.28,1.09.61,1.3.98.19.32.31.69.38,1.12l.16.95c.06.39.16.72.31.97.21.37.68.72,1.41,1.05ZM908.62,487.55l-.74.42c-.7-.33-1.15-.68-1.36-1.04-.2-.34-.32-.73-.38-1.19l-.12-.92c-.04-.3-.14-.59-.3-.86-.14-.25-.33-.45-.54-.59-.21-.14-.53-.28-.96-.41l.81-.48c.66.3,1.11.66,1.35,1.08.15.26.24.46.28.63.04.17.1.6.19,1.28.05.43.14.77.28,1.01.23.39.72.75,1.48,1.06Z"/>
                <path class="cls-2" d="M910.36,486.53l-.7.39c-.74-.44-1.22-.86-1.44-1.24-.12-.21-.2-.48-.25-.82l-.12-.95c-.05-.35-.16-.68-.34-1-.15-.25-.32-.46-.53-.61-.2-.15-.51-.29-.92-.44l.75-.41c.65.28,1.09.61,1.3.99.19.32.31.69.38,1.12l.16.95c.06.39.16.72.31.97.21.37.68.72,1.41,1.05ZM908.27,487.73l-.74.42c-.7-.33-1.15-.68-1.36-1.04-.2-.34-.32-.74-.38-1.19l-.12-.92c-.04-.3-.14-.59-.3-.86-.14-.25-.33-.45-.54-.59-.21-.14-.53-.28-.96-.42l.81-.48c.66.3,1.11.66,1.35,1.08.15.26.24.46.28.63.04.17.11.6.19,1.28.05.43.14.77.28,1.01.23.39.72.75,1.48,1.06Z"/>
                <path class="cls-2" d="M908.11,494.5l-.69-.41c.01-.86.13-1.48.35-1.87.12-.21.32-.42.59-.62l.76-.58c.28-.22.51-.48.69-.79.15-.25.23-.51.26-.76.03-.25,0-.59-.08-1.02l.73.44c.08.7.02,1.24-.2,1.62-.18.32-.45.62-.78.89l-.75.61c-.31.25-.54.5-.68.75-.21.37-.28.95-.2,1.74ZM906.03,493.29l-.73-.43c-.06-.77.01-1.34.22-1.69.19-.34.48-.65.84-.92l.73-.56c.24-.18.44-.41.6-.69.14-.25.22-.51.24-.76.02-.26-.02-.6-.12-1.04l.82.46c.07.72-.02,1.29-.26,1.71-.15.26-.28.44-.41.56-.13.12-.46.39-1.01.8-.35.26-.6.51-.74.75-.23.39-.29,1-.18,1.82Z"/>
                <path class="cls-2" d="M907.76,494.33l-.69-.41c.01-.86.13-1.48.35-1.87.12-.21.32-.42.58-.62l.76-.58c.28-.22.51-.48.69-.79.15-.25.23-.51.26-.76.03-.25,0-.59-.08-1.02l.73.44c.08.7.02,1.24-.2,1.62-.18.32-.45.62-.78.89l-.75.61c-.31.25-.54.5-.68.75-.21.37-.28.95-.21,1.74ZM905.68,493.12l-.73-.43c-.06-.77.01-1.33.22-1.69.2-.34.48-.65.84-.93l.73-.56c.24-.18.44-.41.6-.69.15-.25.23-.51.24-.76.02-.26-.02-.6-.12-1.04l.82.46c.07.72-.02,1.29-.26,1.71-.15.26-.28.44-.41.56-.13.12-.46.39-1.01.8-.35.26-.6.51-.74.75-.23.39-.29,1-.18,1.82Z"/>
            </g>
            <g>
                <path class="cls-18" d="M874.38,568.16c0-15.46,12.54-28,28-28s28,12.54,28,28-12.54,28-28,28-28-12.54-28-28Z" shape-rendering="crispEdges"/>
                <path class="cls-5" d="M902.38,541.16c14.91,0,27,12.09,27,27s-12.09,27-27,27-27-12.09-27-27,12.09-27,27-27Z" shape-rendering="crispEdges"/>
                <path class="cls-9" d="M902.38,578.16c5.52,0,10-4.48,10-10s-4.48-10-10-10-10,4.48-10,10,4.48,10,10,10Z"/>
                <path class="cls-9" d="M899.47,565.16c.23-.67.7-1.23,1.31-1.59.61-.36,1.33-.49,2.03-.37.7.12,1.33.48,1.79,1.02.46.54.71,1.23.7,1.94,0,2-3,3-3,3"/>
                <path class="cls-9" d="M902.38,573.16h.01"/>
            </g>
            <path d="M843.39,77.45c-56,5.93-79.28-48.05-79.51-48.6l-1.39.58c.23.56,24,57.9,81.13,51.84l-.24-3.83Z"/>
            <path d="M849.25,80.99l-16.2-14.77-1.02,1.11,11.52,12.81-15.36,9.22.65,1.36,20.4-9.73Z"/>
            <path d="M123.16,294.67c-34.57-44.46-.97-92.7-.63-93.18l-1.23-.88c-.35.49-36.54,50.92-1.27,96.28l3.13-2.22Z"/>
            <path d="M123.24,301.52l4.01-21.55-1.48-.28-4.81,16.54-15.93-8.19-.81,1.27,19.02,12.21Z"/>
            <path d="M512.31,377.17c4.2,56.16-50.47,77.76-51.03,77.97l.54,1.41c.56-.22,58.61-22.2,54.32-79.5l-3.83.12Z"/>
            <path d="M516.04,371.41l-15.27,15.73,1.08,1.05,13.16-11.12,8.74,15.63,1.38-.61-9.09-20.69Z"/>
            <text class="cls-1" transform="translate(619.77 18.7)"><tspan x="0" y="0" xml:space="preserve">Purpose Built HPC for You</tspan></text>
            <text class="cls-1" transform="translate(317.84 479.56)"><tspan x="0" y="0" xml:space="preserve">True Bare Metal Access</tspan></text>
            <text class="cls-1" transform="translate(0 187.41)"><tspan x="0" y="0" xml:space="preserve">Your Partner, Not a Provider</tspan></text>
        </g>
    </g>
</svg>