<?xml version="1.0" encoding="utf-8"?>
<!-- Generator: Adobe Illustrator 27.5.0, SVG Export Plug-In . SVG Version: 6.00 Build 0)  -->
<svg version="1.1" id="Layer_1" xmlns="http://www.w3.org/2000/svg" xmlns:xlink="http://www.w3.org/1999/xlink" x="0px" y="0px"
     viewBox="0 0 4000 4000" style="enable-background:new 0 0 4000 4000;" xml:space="preserve">
<rect style="fill:#FFFFFF;" width="4000" height="4000"/>
    <g>
	<g>
		<g>
			<path style="fill:#B80000;" d="M3544.375,2447.674c-196.91-215.191-537.578-457.309-923.973-421.354
				c-569.835,53.022-671.015,634.144-830.896,781.185c-108.377,99.672-268.268,131.982-360.039,142.459
				c-4.36,33.262-12.303,76.092-26.425,109.044c-26.902,62.772-107.609,273.507-107.609,273.507s164.581,194.979,288.639,194.979
				s348.544-194.947,567.122-118.149c218.576,76.798,510.867,88.55,565.578-76.829c0,0-80.707-210.734-107.609-273.507
				s-31.387-161.414-31.387-161.414s-89.674-67.255-121.06-125.544c-31.386-58.288-49.321-286.959-49.321-286.959h1125.414
				C3537.361,2472.688,3541.252,2460.248,3544.375,2447.674z"/>
		</g>
        <g>
			<path style="fill:#FF4700;" d="M2523.366,1542.569c157.983-45.792,318.625-37.443,467.489,2.672
				c-12.564-45.214-22.604-98.067-29.794-161.085c-202.372-103.179-450.155-159.721-691.718-89.702
				c-549.672,159.326-454.879,590.751-773.885,844.774c-153.653,122.354-493.141-0.715-849.391,345.861h958.74
				c0,0-5.335,68.028-15.278,139.332c88.872-20.34,178.519-54.791,236.749-113.021
				C1979.875,2357.805,1973.694,1701.896,2523.366,1542.569z"/>
		</g>
        <g>
			<path style="fill:#FF6B17;" d="M2269.344,1294.454c241.563-70.019,489.346-13.477,691.718,89.702
				c-6.621-58.036-10.825-124.69-12.356-201.945c-11.814-596.658-531.675-573.028-702.993-378.08
				c-171.318,194.947-797.514,29.537-1045.629,94.519c-390.114,102.174-443.064,791.606-460.786,998.369
				c-17.723,206.764-171.317,53.168-254.022,236.301s-5.879,351.77-5.879,351.77h166.673
				c356.25-346.576,695.737-223.508,849.391-345.861C1814.465,1885.205,1719.672,1453.78,2269.344,1294.454z"/>
		</g>
        <g>
			<path style="fill:#FF0D00;" d="M2620.402,2026.319c386.395-35.954,727.063,206.163,923.973,421.354
				c28.79-115.935-8.006-243.535-199.865-462.042c-155.234-176.794-288.434-205.658-353.654-440.391
				c-148.864-40.115-309.506-48.464-467.489-2.672c-549.672,159.326-543.491,815.235-697.087,968.831
				c-58.23,58.23-147.877,92.682-236.749,113.021c-8.288,59.428-19.774,121.131-34.042,147.627
				c-31.387,58.289-121.061,125.544-121.061,125.544s-1.014,22.267-4.961,52.37c91.771-10.477,251.662-42.787,360.039-142.459
				C1949.388,2660.463,2050.567,2079.342,2620.402,2026.319z"/>
		</g>
	</g>
        <g>
		<g>
			<g>
				<path style="fill:#72B8D1;" d="M2468.49,1204.631c18.692,18.366,35.058,40.73,48.181,67.79
					c81.673-66.718,154.965-50.721,196.43-31.196c-11.903-34.774-31.676-78.109-64.014-118.754
					C2601.813,1114.539,2531.055,1121.702,2468.49,1204.631z"/>
			</g>
            <g>
				<path style="fill:#F7A77F;" d="M2516.671,1272.421c4.222,8.704,8.118,17.879,11.635,27.582c0,0-58.618,44.11-48.531,96.231
					c7.8,40.299,45.232,1.228,67.253-8.407c26.901-11.769,55.268-7.108,55.268-7.108s28.797,45.779,50.447,124.436
					c17.939,65.174,131.162,84.078,154.704-23.542s-77.352-171.52-77.352-171.52s-3.257-28.73-16.994-68.868
					C2671.636,1221.7,2598.344,1205.703,2516.671,1272.421z"/>
			</g>
            <g>
				<path style="fill:#72B8D1;" d="M1899.402,1404.26c0,0,83.051-223.051,137.535-336.294
					c-39.529,10.942-80.392,19.806-124.082,23.523c-8.963,0.764-18.21,1.595-27.697,2.482
					C1884.274,1172.359,1884.569,1330.099,1899.402,1404.26z"/>
			</g>
            <g>
				<polygon points="1908.356,1110.603 1931.669,1164.213 1869.461,1291.992 1892.999,1433.224 1960.252,1303.763
					1938.395,1162.532 1988.834,1113.774 				"/>
			</g>
            <g>
				<path d="M1092.69,2428.559c0,0-174.856,3.364-216.89,159.725h453.954c0,0-21.921-88.133-36.067-195.266H1086.97
					C1090.234,2415.36,1092.69,2428.559,1092.69,2428.559z"/>
			</g>
            <g>
				<path style="fill:#72B8D1;" d="M1261.974,1175.778c-43.404,6.549-78.654,11.992-101.822,15.6
					c-5.604,36.135-5.107,90.475,25.502,151.879c31.042-5.2,63.73-11.021,97.423-17.296
					C1254.431,1264.337,1255.719,1210.423,1261.974,1175.778z"/>
			</g>
            <g>
				<path d="M2857.893,2372.84c0,0-12.543-13.873-36.781-37.422c-102.943,8.484-163.941,74.229-188.848,108.14
					c3.49,3.317,6.955,6.649,10.389,9.997l6.728,131.163h477.563C3126.943,2584.718,3106.766,2433.376,2857.893,2372.84z"/>
			</g>
            <g>
				<path style="fill:#F7A77F;" d="M1160.151,1191.378c-19.517,3.04-30.471,4.78-30.471,4.78s-97.517-79.02-198.396-65.569
					s-131.142,75.658-114.329,97.515c16.813,21.857,129.46,8.407,188.307,72.297c0,0-88.801,32.869-80.702,57.164
					c6.889,20.669,115.982,9.997,261.093-14.308C1155.044,1281.853,1154.548,1227.513,1160.151,1191.378z"/>
			</g>
            <g>
				<defs>
					<path id="SVGID_1_" d="M2821.111,2335.418c-97.516-94.737-384.527-346.225-807.645-482.531c0,0,17.097-371.275,37.276-697.499
						c0,0,275.741-90.285,417.747,49.243c62.564-82.929,133.323-90.092,180.597-82.16
						c-55.631-69.915-148.447-131.856-302.389-128.512c-111.942,2.434-206.277,45.362-309.761,74.007
						c-54.484,113.243-137.535,336.294-137.535,336.294c-14.833-74.161-15.128-231.9-14.244-310.288
						c-183.781,17.234-460.61,57.275-623.185,81.807c-6.255,34.645-7.543,88.559,21.103,150.183
						c193.167-35.972,419.229-86.76,556.116-119.714c0,0-87.774,221.602-128.126,544.413c0,0-495.27-18.267-601.563,203.769
						c-60.202,125.756-35.243,351.569-22.533,438.589h206.718c-15.496-117.352-21.663-257.502,20.531-329.585
						c107.936-184.39,907.83-9.723,1318.045,380.125C2657.17,2409.646,2718.168,2343.902,2821.111,2335.418z"/>
				</defs>
                <use xlink:href="#SVGID_1_"  style="overflow:visible;fill:#384343;"/>
                <clipPath id="SVGID_00000024709698425206530290000005680434292088841877_">
					<use xlink:href="#SVGID_1_"  style="overflow:visible;"/>
				</clipPath>
                <g style="clip-path:url(#SVGID_00000024709698425206530290000005680434292088841877_);">
					<g>
						<rect x="1105.477" y="980.507" style="fill:#595959;" width="4.724" height="1493.228"/>
					</g>
                    <g>
						<rect x="1152.058" y="980.507" style="fill:#595959;" width="4.725" height="1493.228"/>
					</g>
                    <g>
						<rect x="1198.642" y="980.507" style="fill:#595959;" width="4.721" height="1493.228"/>
					</g>
                    <g>
						<rect x="1245.223" y="980.507" style="fill:#595959;" width="4.723" height="1493.228"/>
					</g>
                    <g>
						<rect x="1291.805" y="980.507" style="fill:#595959;" width="4.723" height="1493.228"/>
					</g>
                    <g>
						<rect x="1338.387" y="980.507" style="fill:#595959;" width="4.723" height="1493.228"/>
					</g>
                    <g>
						<rect x="1384.968" y="980.507" style="fill:#595959;" width="4.725" height="1493.228"/>
					</g>
                    <g>
						<rect x="1431.551" y="980.507" style="fill:#595959;" width="4.723" height="1493.228"/>
					</g>
                    <g>
						<rect x="1478.132" y="980.507" style="fill:#595959;" width="4.723" height="1493.228"/>
					</g>
                    <g>
						<rect x="1524.714" y="980.507" style="fill:#595959;" width="4.725" height="1493.228"/>
					</g>
                    <g>
						<rect x="1571.296" y="980.507" style="fill:#595959;" width="4.724" height="1493.228"/>
					</g>
                    <g>
						<rect x="1617.878" y="980.507" style="fill:#595959;" width="4.724" height="1493.228"/>
					</g>
                    <g>
						<rect x="1664.46" y="980.507" style="fill:#595959;" width="4.724" height="1493.228"/>
					</g>
                    <g>
						<rect x="1711.041" y="980.507" style="fill:#595959;" width="4.725" height="1493.228"/>
					</g>
                    <g>
						<rect x="1757.624" y="980.507" style="fill:#595959;" width="4.723" height="1493.228"/>
					</g>
                    <g>
						<rect x="1804.205" y="980.507" style="fill:#595959;" width="4.725" height="1493.228"/>
					</g>
                    <g>
						<rect x="1850.788" y="980.507" style="fill:#595959;" width="4.723" height="1493.228"/>
					</g>
                    <g>
						<rect x="1897.37" y="980.507" style="fill:#595959;" width="4.724" height="1493.228"/>
					</g>
                    <g>
						<rect x="1943.951" y="980.507" style="fill:#595959;" width="4.725" height="1493.228"/>
					</g>
                    <g>
						<rect x="1990.534" y="980.507" style="fill:#595959;" width="4.724" height="1493.228"/>
					</g>
                    <g>
						<rect x="2037.116" y="980.507" style="fill:#595959;" width="4.725" height="1493.228"/>
					</g>
                    <g>
						<rect x="2083.697" y="980.507" style="fill:#595959;" width="4.725" height="1493.228"/>
					</g>
                    <g>
						<rect x="2130.279" y="980.507" style="fill:#595959;" width="4.723" height="1493.228"/>
					</g>
                    <g>
						<rect x="2176.861" y="980.507" style="fill:#595959;" width="4.723" height="1493.228"/>
					</g>
                    <g>
						<rect x="2223.444" y="980.507" style="fill:#595959;" width="4.722" height="1493.228"/>
					</g>
                    <g>
						<rect x="2270.026" y="980.507" style="fill:#595959;" width="4.724" height="1493.228"/>
					</g>
                    <g>
						<rect x="2316.607" y="980.507" style="fill:#595959;" width="4.723" height="1493.228"/>
					</g>
                    <g>
						<rect x="2363.189" y="980.507" style="fill:#595959;" width="4.724" height="1493.228"/>
					</g>
                    <g>
						<rect x="2409.771" y="980.507" style="fill:#595959;" width="4.723" height="1493.228"/>
					</g>
                    <g>
						<rect x="2456.354" y="980.507" style="fill:#595959;" width="4.724" height="1493.228"/>
					</g>
                    <g>
						<rect x="2502.936" y="980.507" style="fill:#595959;" width="4.723" height="1493.228"/>
					</g>
                    <g>
						<rect x="2549.518" y="980.507" style="fill:#595959;" width="4.723" height="1493.228"/>
					</g>
                    <g>
						<rect x="2596.098" y="980.507" style="fill:#595959;" width="4.725" height="1493.228"/>
					</g>
                    <g>
						<rect x="2642.683" y="980.507" style="fill:#595959;" width="4.722" height="1493.228"/>
					</g>
                    <g>
						<rect x="2689.264" y="980.507" style="fill:#595959;" width="4.725" height="1493.228"/>
					</g>
                    <g>
						<rect x="2735.846" y="980.507" style="fill:#595959;" width="4.723" height="1493.228"/>
					</g>
                    <g>
						<rect x="2782.428" y="980.507" style="fill:#595959;" width="4.724" height="1493.228"/>
					</g>
				</g>
			</g>
		</g>
            <g>
			<path d="M1840.878,1193.785c-0.483,0-0.976-0.059-1.467-0.182c-3.23-0.808-5.195-4.082-4.388-7.313l18.495-73.979
				c0.808-3.231,4.081-5.197,7.313-4.388c3.23,0.808,5.195,4.081,4.388,7.313l-18.495,73.979
				C1846.039,1191.956,1843.58,1193.785,1840.878,1193.785z"/>
		</g>
            <g>
			<path d="M2052.714,1143.345c-2.791,0-5.297-1.949-5.895-4.789c-6.971-33.104,1.463-60.728,1.825-61.887
				c0.994-3.18,4.38-4.949,7.555-3.957c3.177,0.993,4.948,4.371,3.959,7.548c-0.113,0.37-7.82,25.976-1.538,55.811
				c0.687,3.26-1.398,6.457-4.658,7.144C2053.543,1143.302,2053.125,1143.345,2052.714,1143.345z"/>
		</g>
            <g>
			<path d="M1878.057,1258.53c-1.026,0-2.067-0.263-3.02-0.814l-34.526-20.026l24.828-86.901c0.915-3.202,4.252-5.058,7.455-4.142
				c3.202,0.915,5.057,4.253,4.142,7.455l-22.248,77.868l26.4,15.313c2.881,1.671,3.862,5.36,2.191,8.241
				C1882.16,1257.453,1880.137,1258.53,1878.057,1258.53z"/>
		</g>
            <g>
			<path d="M1882.913,1449.343c-2.04,0-4.029-1.034-5.163-2.905c-33.622-55.476-55.867-126.728-56.088-127.441l-0.716-2.313
				l36.392-72.781c1.489-2.979,5.11-4.188,8.09-2.696c2.979,1.489,4.187,5.111,2.697,8.09l-34.212,68.421
				c4.057,12.512,24.664,73.817,54.151,122.471c1.726,2.848,0.816,6.556-2.032,8.282
				C1885.056,1449.061,1883.978,1449.343,1882.913,1449.343z"/>
		</g>
            <g>
			<path d="M1971.162,1258.075c-2.267,0-4.438-1.284-5.464-3.473c-1.413-3.016-0.114-6.606,2.9-8.02l51.318-24.054l3.237-95.508
				c0.112-3.328,2.929-5.946,6.23-5.822c3.329,0.112,5.936,2.902,5.822,6.23l-3.487,102.887l-58.002,27.187
				C1972.891,1257.892,1972.02,1258.075,1971.162,1258.075z"/>
		</g>
            <g>
			<path d="M1871.143,1496.419c-1.869,0-3.713-0.866-4.892-2.497c-1.951-2.699-1.346-6.469,1.354-8.42
				c97.702-70.646,134.326-147.218,140.021-160.177l-24.542-76.894c-1.013-3.173,0.738-6.565,3.911-7.578
				c3.171-1.014,6.566,0.738,7.578,3.911l25.873,81.063l-0.782,1.995c-0.354,0.902-8.929,22.477-31.159,54.022
				c-20.398,28.947-56.706,72.123-113.834,113.431C1873.603,1496.047,1872.367,1496.419,1871.143,1496.419z"/>
		</g>
            <g>
			<path d="M980.042,1213.958c-1.354,0-2.716-0.454-3.841-1.385c-45.827-37.925-129.931-15.863-130.774-15.637
				c-3.217,0.867-6.524-1.039-7.391-4.255c-0.865-3.216,1.039-6.524,4.255-7.391c3.693-0.994,91.02-23.867,141.6,17.991
				c2.565,2.123,2.924,5.924,0.801,8.49C983.499,1213.213,981.777,1213.958,980.042,1213.958z"/>
		</g>
            <g>
			<path d="M995.175,1170.243c-1.399,0-2.806-0.484-3.946-1.473c-22.772-19.736-80.23-10.474-80.809-10.377
				c-3.283,0.543-6.39-1.676-6.936-4.96c-0.546-3.284,1.672-6.39,4.956-6.938c2.586-0.431,63.637-10.285,90.688,13.16
				c2.517,2.182,2.789,5.989,0.607,8.506C998.542,1169.538,996.863,1170.243,995.175,1170.243z"/>
		</g>
            <g>
			<path d="M2700.029,1528.364c-0.53,0-1.067-0.07-1.603-0.217c-3.212-0.884-5.099-4.202-4.216-7.414
				c17.6-63.995-17.469-122.452-17.825-123.035c-1.736-2.842-0.841-6.554,2.001-8.29c2.843-1.736,6.554-0.84,8.29,2.001
				c1.565,2.563,38.132,63.547,19.163,132.522C2705.104,1526.607,2702.676,1528.364,2700.029,1528.364z"/>
		</g>
            <g>
			<path d="M2745.419,1533.408c-0.772,0-1.559-0.149-2.316-0.465c-3.074-1.281-4.528-4.812-3.247-7.886
				c15.91-38.187,1.478-113.46,1.33-114.216c-0.639-3.269,1.493-6.436,4.761-7.075c3.269-0.636,6.437,1.492,7.075,4.761
				c0.632,3.23,15.282,79.609-2.033,121.169C2750.023,1532.012,2747.781,1533.408,2745.419,1533.408z"/>
		</g>
            <g>
			<path d="M2782.414,1501.463c-0.563,0-1.137-0.079-1.705-0.246c-3.194-0.94-5.022-4.292-4.083-7.487
				c7.919-26.92,1.59-64.145,1.524-64.518c-0.57-3.28,1.627-6.403,4.908-6.974c3.284-0.574,6.403,1.627,6.975,4.907
				c0.284,1.636,6.867,40.397-1.837,69.987C2787.424,1499.76,2785.02,1501.463,2782.414,1501.463z"/>
		</g>
            <g>
			<g>
				<g>
					<g>
						<path d="M1792.228,733.974c0,0-22.948-49.415,6.155-137.059c0,0-47.376-60.723-19.314-90.75
							c45.025-48.182,296.475,115.825,342.14,155.17c0,0,57.435,11.655,49.763,66.279c-10.881,77.457-63.477,155.147-63.477,155.147
							L1792.228,733.974z"/>
					</g>
                    <g>
						<path style="fill:#F7A77F;" d="M2052.523,836.563c0,0-59.422-60.95-12.93-168.324c0,0-124.355,1.28-212.991-52.471
							c0,0-203.359,398.518,105.012,364.288l4.683,118.841c-15.861,0.882-27.341,5.325-27.94,11.705
							c-0.803,8.526,18.132,17.28,42.289,19.553c24.158,2.271,44.39-2.798,45.194-11.325c0.649-6.905-11.65-13.959-29.184-17.599
							c3.214-36.489,13.735-121.055,44.525-166.896c0,0,60.387,34.228,114.342,16.225
							C2225.703,917.136,2174.775,756.244,2052.523,836.563z"/>
					</g>
                    <g>
						<path d="M2046.254,899.208c-1.501,0-3.004-0.557-4.173-1.678c-2.404-2.306-2.483-6.123-0.178-8.526
							c25.028-26.095,49.623-39.488,73.101-39.812c18.314-0.25,29.034,7.991,29.479,8.343c2.616,2.06,3.066,5.852,1.006,8.468
							c-2.052,2.604-5.816,3.063-8.433,1.034c-1.43-1.083-33.863-24.512-86.45,30.315
							C2049.423,898.587,2047.84,899.208,2046.254,899.208z"/>
					</g>
                    <g>
						<path d="M1972.479,722.294c-1.927,0-3.82-0.921-4.988-2.634c-10.397-15.25-20.934-23.346-30.468-23.413
							c-0.04,0-0.081-0.001-0.12-0.001c-10.611,0-17.695,9.907-17.766,10.008c-1.907,2.715-5.659,3.393-8.385,1.497
							c-2.725-1.894-3.417-5.62-1.537-8.354c0.428-0.622,10.654-15.21,27.684-15.21c0.02,0,0.038,0,0.058,0
							c13.916,0.026,27.542,9.676,40.499,28.68c1.876,2.752,1.166,6.504-1.585,8.38
							C1974.831,721.954,1973.649,722.294,1972.479,722.294z"/>
					</g>
                    <g>
						<path d="M1862.629,706.602c-2.073,0-4.09-1.069-5.212-2.987c-5.45-9.321-11.298-14.246-17.379-14.637
							c-8.324-0.533-16.552,7.648-19.019,10.845c-2.03,2.631-5.813,3.13-8.449,1.108c-2.637-2.023-3.146-5.79-1.133-8.434
							c0.516-0.676,12.827-16.563,29.298-15.56c10.359,0.633,19.475,7.56,27.093,20.589c1.682,2.875,0.714,6.568-2.161,8.25
							C1864.71,706.336,1863.662,706.602,1862.629,706.602z"/>
					</g>
                    <g>
						<path d="M1952.346,977.423c-2.016,0-3.985-1.01-5.128-2.848c-1.757-2.829-0.889-6.547,1.939-8.305
							c0.171-0.106,17.271-10.781,29.196-22.036c2.423-2.286,6.24-2.176,8.524,0.246c2.286,2.422,2.176,6.238-0.246,8.524
							c-12.823,12.103-30.37,23.05-31.11,23.51C1954.531,977.13,1953.432,977.423,1952.346,977.423z"/>
					</g>
                    <g>
						<path d="M1941.338,790.43c2.643,11.108-0.093,21.274-6.11,22.706c-6.018,1.431-13.037-6.414-15.681-17.522
							c-2.643-11.107,0.093-21.273,6.11-22.705S1938.695,779.32,1941.338,790.43z"/>
					</g>
                    <g>
						<path d="M1829.645,783.831c1.968,9.805-0.742,18.617-6.055,19.683c-5.31,1.067-11.21-6.018-13.179-15.822
							c-1.969-9.806,0.742-18.619,6.053-19.684C1821.774,766.94,1827.675,774.025,1829.645,783.831z"/>
					</g>
                    <g>
						<path style="fill:#F77E6A;" d="M2021.839,821.554c3.68,7.747-6.099,20.09-21.843,27.569
							c-15.745,7.481-31.491,7.264-35.172-0.483c-3.68-7.747,6.1-20.09,21.842-27.57
							C2002.411,813.59,2018.158,813.807,2021.839,821.554z"/>
					</g>
                    <g>
						<path style="fill:#F77E6A;" d="M1781.093,794.335c-4.553,4.555-0.739,15.745,8.518,24.997
							c9.257,9.253,20.45,13.059,25.003,8.504c4.552-4.555,0.738-15.745-8.519-24.997
							C1796.84,793.588,1785.645,789.78,1781.093,794.335z"/>
					</g>
                    <g>
						<path d="M1848.016,863.111c-8.627,0-18.188-3.228-25.151-9.045c-7.395-6.176-10.353-14.343-8.117-22.406
							c3.847-13.87,27.383-11.62,40.413-9.229c9.226-41.06,8.101-88.501,8.087-88.997c-0.087-3.329,2.54-6.099,5.869-6.188
							c3.337-0.1,6.099,2.539,6.188,5.868c0.059,2.186,1.296,54.028-9.79,97.889l-1.451,5.739l-5.766-1.345
							c-0.083-0.019-8.669-1.997-17.42-2.52c-11.194-0.669-14.386,1.566-14.508,2.005c-0.955,3.447,0.467,6.787,4.227,9.928
							c6.557,5.476,17.879,7.881,23.758,5.045c2.999-1.447,6.604-0.189,8.051,2.81c1.447,3,0.188,6.604-2.811,8.052
							C1856.234,862.338,1852.236,863.111,1848.016,863.111z"/>
					</g>
				</g>
                <g>
					<path d="M2119.966,672.577c-1.23,0-2.473-0.375-3.544-1.155c-0.709-0.516-71.806-52.179-148.105-100.693
						c-137.219-87.248-172.068-88.656-180.687-85.209c-7.277,2.911-11.898,7.763-14.125,14.832
						c-8.304,26.363,18.784,76.258,29.922,93.259c1.825,2.785,1.047,6.523-1.739,8.349c-2.786,1.826-6.523,1.045-8.349-1.739
						c-1.763-2.691-43.042-66.33-31.337-103.491c3.335-10.589,10.451-18.128,21.148-22.407c13.527-5.41,38.456,1.209,78.453,20.835
						c30.042,14.739,68.137,36.751,113.228,65.423c76.613,48.717,147.977,100.574,148.688,101.092
						c2.692,1.96,3.286,5.731,1.327,8.424C2123.666,671.717,2121.829,672.577,2119.966,672.577z"/>
				</g>
                <g>
					<path d="M2143.506,810.443c-1.321,0.001-2.651-0.432-3.763-1.321c-2.601-2.08-3.022-5.875-0.942-8.476
						c0.452-0.566,45.252-57.248,37.449-99.376c-7.246-39.133-69.907-30.529-70.542-30.438c-3.288,0.479-6.354-1.806-6.833-5.1
						s1.798-6.352,5.092-6.835c0.743-0.107,18.403-2.623,37.415,0.654c26.631,4.592,42.789,18.258,46.728,39.522
						c8.808,47.561-37.898,106.615-39.891,109.107C2147.027,809.669,2145.274,810.443,2143.506,810.443z"/>
				</g>
			</g>
                <g>
				<path d="M1875.74,912.901c-1.328,0-2.143-0.051-2.338-0.066c-3.321-0.237-5.822-3.122-5.585-6.444
					c0.236-3.315,3.104-5.817,6.426-5.586c1.191,0.078,28.933,1.563,51.189-22.719c2.25-2.456,6.064-2.621,8.521-0.371
					c2.455,2.251,2.621,6.065,0.37,8.521C1911.671,910.949,1883.932,912.901,1875.74,912.901z"/>
			</g>
                <g>
				<path d="M1943.207,892.826c-16.281,0-25.28-16.623-28.114-27.013c-0.876-3.213,1.019-6.528,4.231-7.404
					c3.208-0.872,6.519,1.013,7.4,4.217c0.055,0.196,5.596,19.603,18.099,18.035c3.307-0.406,6.319,1.932,6.731,5.236
					c0.413,3.305-1.931,6.318-5.235,6.731C1945.254,892.762,1944.216,892.826,1943.207,892.826z"/>
			</g>
		</g>
            <g>
			<path d="M1999.811,1783.893c-0.316,0-0.637-0.024-0.96-0.076c-35.902-5.744-71.374-29.774-102.581-69.491
				c-15.652-19.922-26.5-38.911-32.095-49.581c-16.36,19.13-41.015,32.859-71.957,39.961c-26.128,5.996-47.361,5.229-48.253,5.192
				c-3.328-0.134-5.918-2.939-5.784-6.267c0.133-3.328,2.926-5.933,6.267-5.784c1.026,0.035,81.271,2.476,115.861-47.837
				l6.045-8.791l4.414,9.712c0.491,1.079,50.131,108.199,129.988,120.977c3.289,0.526,5.528,3.618,5.002,6.907
				C2005.283,1781.78,2002.722,1783.893,1999.811,1783.893z"/>
		</g>
	</g>
        <g>
		<path style="fill:#FF6B17;" d="M596.069,2957.597c1.835,12.887-0.116,24.35-5.85,34.391c-3.746,6.785-9.595,11.983-17.549,15.597
			c-4.26,1.941-9.347,3.289-15.26,4.039c-10.939,1.389-20.352-0.171-28.233-4.679c-6.575-3.672-12.098-9.104-16.564-16.299
			c-4.469-7.193-7.623-15.681-9.465-25.463l26.366-5.299c2.553,10.649,6.403,18.112,11.554,22.391
			c3.814,3.241,7.879,4.487,12.191,3.737c6.085-0.972,10.581-4.6,13.49-10.885c1.508-3.097,1.926-7.309,1.25-12.636
			c-0.977-7.693-5.446-14.896-13.406-21.603c-6.185-4.525-15.459-11.317-27.822-20.374c-10.404-7.801-17.978-15.009-22.723-21.625
			c-5.154-7.465-8.325-15.883-9.515-25.254c-2.141-16.867,1.904-30.362,12.137-40.48c6.334-6.115,14.676-9.832,25.024-11.146
			c9.953-1.263,18.761-0.127,26.419,3.408c5.956,2.75,11.03,7.012,15.218,12.789s7.14,12.664,8.855,20.657l-26.139,8.273
			c-1.753-7.486-4.67-13.126-8.756-16.913c-2.952-2.729-6.842-3.789-11.669-3.177c-5.126,0.651-8.73,3.413-10.816,8.283
			c-1.706,3.923-2.214,8.595-1.526,14.014c1.076,8.478,5.815,16.638,14.224,24.482c3.183,3.002,7.823,6.42,13.919,10.251
			c7.192,4.596,11.961,7.847,14.306,9.751c7.773,6.023,13.958,12.148,18.556,18.374c2.175,2.931,3.971,5.656,5.395,8.179
			C593.178,2946.648,595.307,2952.387,596.069,2957.597z"/>
            <path style="fill:#FF6B17;" d="M669.446,2997.254c-12.321,1.563-23.31-1.398-32.974-8.884
			c-9.662-7.486-15.268-17.339-16.819-29.561l-18.18-143.251l27.349-3.471l18.143,142.955c0.563,4.435,2.616,8.004,6.166,10.709
			c3.548,2.704,7.54,3.774,11.975,3.212c4.435-0.563,8.008-2.594,10.719-6.092c2.71-3.499,3.783-7.466,3.221-11.9l-18.143-142.955
			l29.123-3.696l18.181,143.251c1.576,12.418-1.437,23.416-9.032,32.992C691.576,2990.142,681.666,2995.703,669.446,2997.254z"/>
            <path style="fill:#FF6B17;" d="M782.575,2983.198c-12.321,1.563-23.339-1.419-33.057-8.95
			c-9.719-7.527-15.353-17.402-16.903-29.625l-12.833-101.119c-1.563-12.317,1.442-23.339,9.023-33.065
			c7.577-9.723,17.477-15.361,29.699-16.912c12.318-1.563,23.316,1.448,32.991,9.032c9.676,7.585,15.289,17.488,16.84,29.707
			l2.683,21.141l-28.976,3.678l-2.758-21.731c-0.563-4.435-2.622-8.027-6.176-10.782c-3.556-2.753-7.548-3.85-11.983-3.286
			c-4.435,0.563-8.005,2.618-10.709,6.166c-2.704,3.549-3.774,7.539-3.212,11.974l12.87,101.414
			c0.564,4.436,2.594,8.008,6.093,10.719c3.498,2.71,7.465,3.783,11.899,3.221c4.436-0.563,8.031-2.596,10.793-6.101
			c2.759-3.505,3.858-7.475,3.295-11.91l-3.245-25.575l28.976-3.678l3.283,25.871c1.563,12.321-1.448,23.317-9.032,32.992
			C804.551,2976.052,794.697,2981.659,782.575,2983.198z"/>
            <path style="fill:#FF6B17;" d="M893.597,2969.107c-12.321,1.564-23.339-1.418-33.057-8.949
			c-9.719-7.527-15.352-17.402-16.903-29.625l-12.833-101.119c-1.563-12.317,1.442-23.339,9.023-33.066
			c7.577-9.722,17.477-15.36,29.699-16.912c12.319-1.563,23.316,1.449,32.991,9.033c9.676,7.585,15.289,17.488,16.84,29.707
			l2.683,21.141l-28.976,3.678l-2.758-21.731c-0.563-4.435-2.622-8.027-6.175-10.783c-3.557-2.753-7.549-3.849-11.984-3.285
			c-4.435,0.563-8.005,2.618-10.709,6.165c-2.704,3.55-3.774,7.54-3.212,11.975l12.87,101.414c0.563,4.436,2.594,8.008,6.093,10.719
			c3.498,2.71,7.465,3.783,11.9,3.221c4.435-0.563,8.03-2.596,10.792-6.102c2.759-3.504,3.858-7.474,3.295-11.909l-3.245-25.575
			l28.976-3.678l3.283,25.871c1.563,12.321-1.448,23.317-9.032,32.992C915.572,2961.962,905.719,2967.569,893.597,2969.107z"/>
            <path style="fill:#FF6B17;" d="M960.409,2958.225l-23.527-185.384l79.534-10.095l3.565,28.088l-51.594,6.549l6.416,50.56
			l37.697-4.785l3.565,28.089l-37.697,4.785l6.416,50.56l51.594-6.548l3.564,28.088L960.409,2958.225z"/>
            <path style="fill:#FF6B17;" d="M1145.704,2887.841c1.835,12.888-0.116,24.35-5.85,34.392c-3.747,6.784-9.596,11.982-17.549,15.596
			c-4.261,1.942-9.347,3.289-15.26,4.04c-10.94,1.388-20.353-0.171-28.234-4.679c-6.575-3.673-12.097-9.104-16.563-16.299
			c-4.469-7.194-7.623-15.682-9.466-25.463l26.366-5.299c2.554,10.648,6.404,18.112,11.555,22.39
			c3.814,3.241,7.878,4.488,12.191,3.738c6.085-0.972,10.581-4.6,13.489-10.885c1.508-3.097,1.926-7.309,1.25-12.636
			c-0.977-7.693-5.445-14.896-13.406-21.603c-6.185-4.526-15.458-11.318-27.822-20.374c-10.404-7.801-17.978-15.01-22.723-21.625
			c-5.153-7.465-8.325-15.883-9.515-25.254c-2.141-16.867,1.904-30.363,12.138-40.481c6.333-6.115,14.675-9.831,25.023-11.145
			c9.954-1.264,18.761-0.128,26.42,3.407c5.956,2.75,11.029,7.012,15.217,12.79c4.188,5.777,7.141,12.664,8.855,20.656
			l-26.138,8.274c-1.753-7.487-4.671-13.126-8.757-16.914c-2.951-2.729-6.841-3.788-11.669-3.176
			c-5.126,0.65-8.729,3.413-10.815,8.283c-1.706,3.923-2.215,8.594-1.526,14.013c1.075,8.478,5.814,16.639,14.223,24.483
			c3.184,3.001,7.823,6.419,13.919,10.251c7.193,4.595,11.962,7.846,14.307,9.75c7.773,6.024,13.957,12.148,18.555,18.374
			c2.175,2.932,3.972,5.656,5.395,8.179C1142.813,2876.893,1144.942,2882.631,1145.704,2887.841z"/>
            <path style="fill:#FF6B17;" d="M1257.316,2873.676c1.835,12.888-0.116,24.351-5.851,34.392
			c-3.746,6.784-9.595,11.983-17.548,15.597c-4.261,1.941-9.347,3.288-15.26,4.039c-10.94,1.389-20.353-0.171-28.234-4.679
			c-6.575-3.673-12.097-9.104-16.564-16.299c-4.468-7.193-7.623-15.682-9.465-25.463l26.366-5.299
			c2.553,10.648,6.403,18.112,11.555,22.391c3.814,3.24,7.878,4.487,12.19,3.737c6.085-0.972,10.582-4.6,13.49-10.885
			c1.508-3.097,1.926-7.309,1.25-12.636c-0.977-7.693-5.446-14.896-13.406-21.603c-6.185-4.525-15.458-11.318-27.822-20.374
			c-10.404-7.801-17.978-15.01-22.723-21.625c-5.154-7.465-8.325-15.883-9.515-25.254c-2.141-16.867,1.904-30.362,12.138-40.481
			c6.333-6.115,14.675-9.831,25.023-11.145c9.953-1.263,18.761-0.127,26.419,3.407c5.957,2.75,11.03,7.013,15.218,12.79
			c4.188,5.777,7.14,12.664,8.855,20.656l-26.139,8.274c-1.753-7.487-4.67-13.126-8.756-16.914
			c-2.952-2.729-6.842-3.788-11.669-3.176c-5.126,0.65-8.729,3.413-10.816,8.283c-1.705,3.923-2.214,8.595-1.525,14.013
			c1.075,8.479,5.814,16.639,14.223,24.483c3.184,3.001,7.823,6.419,13.919,10.251c7.192,4.596,11.962,7.846,14.307,9.75
			c7.772,6.024,13.957,12.148,18.555,18.375c2.175,2.931,3.972,5.656,5.395,8.178
			C1254.425,2862.729,1256.555,2868.466,1257.316,2873.676z"/>
	</g>
        <g>
		<path style="fill:#E20000;" d="M2747.649,2901.259l-28.079-2.519l16.708-186.309l79.931,7.168l-2.531,28.229l-51.852-4.649
			l-4.557,50.812l37.887,3.397l-2.532,28.229l-37.887-3.397L2747.649,2901.259z"/>
            <path style="fill:#E20000;" d="M2835.238,2865.981l-10.659,42.176l-29.238-2.622l48.342-183.322l38.626,3.464l14.504,188.959
			l-29.523-2.648l-2.732-43.377L2835.238,2865.981z M2859.022,2766.572l-16.981,72.462l20.801,1.865L2859.022,2766.572z"/>
            <path style="fill:#E20000;" d="M2948.515,2919.271l-28.08-2.518l16.694-186.161l28.08,2.519L2948.515,2919.271z"/>
            <path style="fill:#E20000;" d="M3050.136,2928.385l-76.514-6.861l16.694-186.16l28.079,2.518l-14.189,158.229l48.435,4.343
			L3050.136,2928.385z"/>
            <path style="fill:#E20000;" d="M3113.684,2936.181c-12.382-1.11-22.493-6.36-30.337-15.75
			c-7.846-9.391-11.216-20.225-10.114-32.508l12.91-143.967l27.485,2.465l-12.884,143.67c-0.399,4.457,0.844,8.388,3.734,11.791
			c2.89,3.404,6.564,5.308,11.021,5.707s8.385-0.821,11.785-3.661c3.399-2.84,5.299-6.488,5.698-10.946l12.884-143.669l29.27,2.625
			l-12.91,143.967c-1.119,12.479-6.422,22.588-15.899,30.324C3136.847,2933.966,3125.965,2937.282,3113.684,2936.181z"/>
            <path style="fill:#E20000;" d="M3244.367,2758.146c15.647,1.403,26.751,6.743,33.309,16.018
			c5.763,8.105,8.041,18.895,6.833,32.363l-2.425,27.04c-1.182,13.174-7.184,23.868-18.004,32.083l13.509,83.134l-30.366-2.724
			l-10.736-71.652c-0.793-0.071-1.634-0.146-2.524-0.227l-16.195-1.452l-6.289,70.126l-28.079-2.519l16.694-186.16
			L3244.367,2758.146z M3257.132,2804.521c0.968-10.795-3.896-16.674-14.594-17.634l-16.938-1.519l-5.343,59.577l16.938,1.519
			c4.457,0.4,8.388-0.843,11.792-3.734c3.404-2.889,5.307-6.563,5.706-11.021L3257.132,2804.521z"/>
            <path style="fill:#E20000;" d="M3301.658,2950.941l16.708-186.309l79.931,7.168l-2.531,28.229l-51.852-4.65l-4.557,50.813
			l37.887,3.397l-2.532,28.229l-37.887-3.397l-4.557,50.811l51.852,4.65l-2.531,28.229L3301.658,2950.941z"/>
	</g>
        <g>
		<path d="M1294.102,1593.472c-0.767,0-1.547-0.147-2.3-0.459c-94.688-39.11-147.203-84.854-174.585-116.343
			c-30.088-34.602-37.396-59.867-37.692-60.926c-0.898-3.207,0.974-6.534,4.181-7.433c3.202-0.896,6.526,0.969,7.429,4.168
			c0.123,0.421,7.289,24.435,35.837,57.024c26.536,30.293,77.473,74.378,169.436,112.362c3.078,1.271,4.543,4.798,3.271,7.876
			C1298.718,1592.067,1296.471,1593.472,1294.102,1593.472z"/>
	</g>
        <g>
		<path d="M1514.703,1569.836c-0.201,0-0.403-0.011-0.607-0.03c-54.507-5.451-105.618-18.065-151.913-37.492
			c-37.095-15.567-71.195-35.518-101.355-59.297c-51.522-40.624-73.45-77.942-74.358-79.512c-1.669-2.882-0.685-6.571,2.197-8.24
			c2.883-1.668,6.568-0.685,8.237,2.193l0,0c0.214,0.367,21.97,37.249,71.885,76.477c46.04,36.182,126.18,81.837,246.508,93.87
			c3.313,0.331,5.731,3.286,5.4,6.601C1520.385,1567.515,1517.763,1569.836,1514.703,1569.836z"/>
	</g>
        <g>
		<path d="M1353.188,1463.48c-0.793,0-1.598-0.157-2.373-0.489c-56.149-24.064-95.532-82.446-97.181-84.919
			c-1.848-2.771-1.099-6.516,1.673-8.363c2.77-1.846,6.513-1.099,8.36,1.671l0,0c0.385,0.576,39.099,57.897,91.898,80.526
			c3.062,1.312,4.479,4.856,3.167,7.918C1357.754,1462.11,1355.527,1463.48,1353.188,1463.48z"/>
	</g>
        <g>
		<path d="M1337.184,2458.933c-0.938,0-1.891-0.22-2.78-0.683c-2.954-1.539-4.102-5.181-2.563-8.134
			c34.302-65.859,85.387-115.741,151.838-148.262c52.952-25.913,115.676-40.874,186.43-44.465
			c120.071-6.1,223.381,23.153,224.41,23.45c3.2,0.92,5.048,4.261,4.128,7.461s-4.259,5.045-7.461,4.13
			c-1.013-0.292-102.67-29.041-220.779-22.98c-157.397,8.069-267.708,70.729-327.869,186.236
			C1341.462,2457.751,1339.36,2458.933,1337.184,2458.933z"/>
	</g>
        <g>
		<path d="M1343.341,2363.569c-1.403,0-2.813-0.486-3.954-1.479c-2.514-2.186-2.779-5.994-0.594-8.508
			c36.524-42.003,81.653-75.08,134.132-98.312c41.887-18.543,88.509-30.88,138.571-36.667c85.135-9.842,149.81,2.497,152.521,3.026
			c3.268,0.639,5.398,3.805,4.761,7.073c-0.638,3.268-3.803,5.398-7.073,4.764c-0.649-0.129-65.852-12.534-149.196-2.84
			c-76.543,8.903-184.585,38.835-264.615,130.869C1346.701,2362.867,1345.025,2363.569,1343.341,2363.569z"/>
	</g>
        <g>
		<path d="M1427.784,2458.933c-0.845,0-1.702-0.178-2.519-0.554c-3.025-1.394-4.349-4.975-2.955-8
			c13.951-30.295,35.736-56.848,64.749-78.919c23.053-17.538,50.692-32.292,82.15-43.852
			c53.385-19.616,98.725-23.209,100.629-23.353c3.324-0.227,6.214,2.239,6.465,5.56s-2.238,6.215-5.558,6.467
			c-0.452,0.034-45.821,3.653-97.668,22.754c-47.367,17.45-110.073,51.807-139.813,116.388
			C1432.248,2457.632,1430.065,2458.933,1427.784,2458.933z"/>
	</g>
        <g>
		<path d="M685.501,2594.01c-2.974,0-5.562-2.2-5.969-5.229c-0.443-3.301,1.873-6.336,5.174-6.779
			c0.797-0.11,55.564-7.997,70.867-42.287c8.921-19.99,2.887-45.686-17.937-76.372c-1.481-2.184-1.371-5.077,0.273-7.142
			c1.643-2.064,4.438-2.818,6.899-1.866c0.648,0.25,65.608,24.907,108.931,1.021c19.099-10.53,31.411-29.253,36.597-55.649
			c0.459-2.338,2.251-4.186,4.572-4.717c2.322-0.526,4.739,0.355,6.169,2.261c0.275,0.367,28.105,36.979,54.263,36.979
			c3.33,0,6.03,2.7,6.03,6.03s-2.7,6.03-6.03,6.03c-22.812,0-44.745-20.137-56.044-32.478
			c-7.081,23.969-20.425,41.473-39.773,52.126c-34.727,19.121-79.609,11.129-103.146,4.718
			c16.021,28.452,19.456,53.298,10.191,74.014c-18.111,40.498-77.728,48.944-80.257,49.284
			C686.039,2593.991,685.769,2594.01,685.501,2594.01z"/>
	</g>
        <g>
		<path d="M1489.091,2588.1c-46.415,0-78.527-13.031-95.443-38.732c-20.488-31.127-13.058-72.328-6.452-94.946
			c-38.145,18.996-71.007-0.181-72.559-1.111c-2.856-1.714-3.782-5.418-2.068-8.273c1.711-2.853,5.405-3.778,8.26-2.076
			c1.521,0.899,36.582,21.021,74.009-7.496c2.18-1.659,5.206-1.643,7.367,0.045c2.159,1.688,2.91,4.619,1.826,7.137
			c-0.26,0.605-25.836,61.364-0.287,100.124c14.552,22.076,43.267,33.27,85.348,33.27c3.331,0,6.03,2.7,6.03,6.03
			S1492.422,2588.1,1489.091,2588.1z"/>
	</g>
        <g>
		<path d="M844.548,2592.946h-47.261c-3.331,0-6.03-2.7-6.03-6.03s2.699-6.03,6.03-6.03h47.261c3.33,0,6.03,2.7,6.03,6.03
			S847.878,2592.946,844.548,2592.946z"/>
	</g>
        <g>
		<path d="M1393.895,2590.706h-41.353c-3.331,0-6.03-2.7-6.03-6.03s2.699-6.03,6.03-6.03h41.353c3.33,0,6.03,2.7,6.03,6.03
			S1397.225,2590.706,1393.895,2590.706z"/>
	</g>
        <g>
		<path d="M2608.672,2590.944h-62.048c-3.33,0-6.03-2.7-6.03-6.03s2.7-6.03,6.03-6.03h62.048c3.33,0,6.03,2.7,6.03,6.03
			S2612.002,2590.944,2608.672,2590.944z"/>
	</g>
        <g>
		<path d="M3246.875,2585.034h-82.73c-3.33,0-6.03-2.7-6.03-6.03s2.7-6.03,6.03-6.03h82.73c3.33,0,6.03,2.7,6.03,6.03
			S3250.205,2585.034,3246.875,2585.034z"/>
	</g>
</g>
</svg>
