<?xml version="1.0" encoding="UTF-8"?>
<svg id="Layer_1" data-name="Layer 1" xmlns="http://www.w3.org/2000/svg" viewBox="0 0 960 1200">
    <defs>
        <style>
            .cls-1 {
            fill: #92c4ea;
            }

            .cls-1, .cls-2, .cls-3, .cls-4, .cls-5, .cls-6, .cls-7, .cls-8, .cls-9, .cls-10, .cls-11, .cls-12, .cls-13, .cls-14, .cls-15, .cls-16 {
            fill-rule: evenodd;
            }

            .cls-2 {
            fill: #d15251;
            }

            .cls-3 {
            fill: #ddddde;
            }

            .cls-17, .cls-5 {
            fill: #fff;
            }

            .cls-4 {
            fill: #fbaf5f;
            }

            .cls-18, .cls-10 {
            fill: #f3797a;
            }

            .cls-6, .cls-19 {
            fill: #212121;
            }

            .cls-7 {
            fill: #ef4344;
            }

            .cls-8 {
            fill: #373635;
            }

            .cls-9 {
            fill: #555556;
            }

            .cls-20 {
            fill: #aad3f1;
            }

            .cls-11 {
            fill: #e6e7e8;
            }

            .cls-12 {
            fill: #151515;
            }

            .cls-13 {
            fill: #d1d3d4;
            }

            .cls-14 {
            fill: #82b4e1;
            }

            .cls-15 {
            fill: #f15b5c;
            }

            .cls-16 {
            fill: #4e4d4d;
            }
        </style>
    </defs>
    <rect class="cls-20" width="960" height="1200"/>
    <path class="cls-1" d="M960,266.93v933.07H0V266.93c143.46-46.3,306.74-72.53,480-72.53s336.54,26.23,480,72.53Z"/>
    <path class="cls-14" d="M960,638.93v561.07H0v-561.07c143.46-46.3,306.74-72.53,480-72.53s336.54,26.23,480,72.53Z"/>
    <path class="cls-19" d="M203.15,640.49h553.71c19.23,0,34.84,15.61,34.84,34.84v321.12c0,19.23-15.61,34.84-34.84,34.84H203.15c-19.23,0-34.84-15.61-34.84-34.84v-321.12c0-19.23,15.61-34.84,34.84-34.84Z"/>
    <path class="cls-12" d="M480,640.49h276.86c19.16,0,34.83,15.67,34.83,34.83v321.13c0,19.16-15.67,34.83-34.83,34.83h-276.86v-390.8Z"/>
    <rect class="cls-18" x="201.12" y="677.71" width="557.76" height="316.36"/>
    <path class="cls-3" d="M722.75,656.7c3.49,0,6.34-2.29,6.34-5.09s-2.85-5.09-6.34-5.09-6.34,2.29-6.34,5.09,2.85,5.09,6.34,5.09Z"/>
    <path class="cls-5" d="M722.75,647.97c2.51,0,4.55,1.63,4.55,3.65s-2.04,3.65-4.55,3.65-4.55-1.63-4.55-3.65,2.04-3.65,4.55-3.65Z"/>
    <path class="cls-3" d="M710.11,653.05c.98,0,1.78-.64,1.78-1.43s-.8-1.43-1.78-1.43-1.78.64-1.78,1.43.8,1.43,1.78,1.43Z"/>
    <path class="cls-6" d="M134.89,1034.65h690.22c-.21,22.92-20.88,46.03-56.97,46.28l-576.28.75c-24.2.49-55.92-14.32-56.96-47.02Z"/>
    <path class="cls-11" d="M206.52,807.46c-1.23,0-2.43.08-3.62.24v55.2c.24.03.47.06.71.08-.24.21-.47.42-.71.64v55.6h-.12v39.25h556.86v-39.25h-.12v-55.6c-.23-.22-.47-.43-.71-.64.24-.02.47-.05.71-.08v-55.2c-1.18-.16-2.39-.24-3.62-.24-15.3,0-27.7,12.46-27.7,27.84,0,8.4,3.7,15.93,9.55,21.03-7.25.76-13.68,4.34-18.16,9.63-3.67-1.81-7.8-2.82-12.16-2.82-14.52,0-26.43,11.23-27.6,25.53-4.39-2.94-9.66-4.65-15.33-4.65-8.61,0-16.3,3.95-21.38,10.14-5.05-5.39-12.21-8.75-20.16-8.75-1.7,0-3.36.15-4.97.45.53-2.15.81-4.4.81-6.71,0-15.37-12.4-27.83-27.7-27.83-14.28,0-26.04,10.87-27.53,24.82-5.01-5.02-11.92-8.12-19.55-8.12-2.91,0-5.71.45-8.35,1.29-.77-14.68-12.86-26.34-27.66-26.34-1.39,0-2.76.1-4.1.3-2.41-11.12-11.45-19.76-22.75-21.54-11.29,1.78-20.32,10.42-22.74,21.54-1.34-.2-2.71-.3-4.1-.3-14.79,0-26.88,11.66-27.65,26.34-2.63-.84-5.44-1.29-8.35-1.29-7.63,0-14.54,3.1-19.54,8.12-1.5-13.95-13.25-24.82-27.53-24.82-15.29,0-27.69,12.46-27.69,27.83,0,2.31.28,4.56.81,6.71-1.61-.29-3.27-.45-4.96-.45-7.94,0-15.11,3.36-20.16,8.75-5.08-6.2-12.77-10.14-21.38-10.14-5.67,0-10.94,1.71-15.32,4.65-1.17-14.29-13.07-25.53-27.59-25.53-4.36,0-8.49,1.01-12.16,2.82-4.49-5.29-10.91-8.86-18.16-9.63,5.85-5.1,9.55-12.63,9.55-21.03,0-15.37-12.4-27.84-27.69-27.84Z"/>
    <path class="cls-5" d="M202.9,910.7v8.52h-.12v39.25h556.86v-39.25h-.12v-8.52c-3.95-2.21-8.45-3.46-13.23-3.46-8.46,0-16.06,3.93-21.27,10.16-5.17-5.7-12.44-9.25-20.48-9.25-11.17,0-20.83,6.84-25.49,16.79-2.71-.91-5.6-1.41-8.6-1.41-5.14,0-9.97,1.45-14.13,3.99-3.05-13.2-14.26-22.99-27.62-22.99-12,0-22.26,7.89-26.44,19.06-3.62-1.78-7.65-2.77-11.91-2.77-5.31,0-10.28,1.55-14.54,4.24-4.52-14.36-17.29-24.71-32.33-24.71-5.44,0-10.59,1.36-15.15,3.77-4.3-14.76-17.25-25.48-32.57-25.48-5.22,0-10.17,1.25-14.6,3.48-4.42-2.23-9.37-3.48-14.6-3.48-15.31,0-28.26,10.72-32.56,25.48-4.56-2.41-9.71-3.77-15.15-3.77-15.04,0-27.8,10.35-32.32,24.71-4.25-2.69-9.22-4.24-14.53-4.24-4.25,0-8.28.99-11.9,2.77-4.18-11.16-14.44-19.06-26.43-19.06-13.36,0-24.57,9.79-27.62,22.99-4.16-2.54-8.98-3.99-14.13-3.99-3,0-5.88.49-8.59,1.41-4.65-9.95-14.31-16.79-25.48-16.79-8.04,0-15.31,3.55-20.48,9.25-5.21-6.23-12.8-10.16-21.26-10.16-4.77,0-9.27,1.25-13.22,3.46Z"/>
    <path class="cls-15" d="M522.93,375.8c.2.27.39.54.58.81.13.18.25.36.38.54.21.31.42.61.63.92.13.19.26.38.38.57.2.3.39.6.59.9.13.2.25.39.38.59.19.3.38.6.57.91.13.21.25.42.38.62.18.3.36.6.54.9.14.23.27.47.41.7.16.27.31.55.47.83.15.26.29.53.44.8.14.27.29.53.43.8.15.28.29.55.44.83.13.26.27.52.4.78.15.3.3.6.45.91.12.23.23.47.34.7.16.32.31.65.46.97.11.24.22.48.33.71.15.33.3.66.45,1,5.11,11.56,8.18,24.93,8.53,39.25.48,19.29-4.06,37.19-12.04,51.48,2.25-7.85,3.38-16.37,3.17-25.26-.4-16.03-5.13-30.61-12.71-41.92h0c-1.46-2.18-3.02-4.23-4.68-6.15l-.17.47-.06.18-.06.18-.31.84v.04s-.08.17-.08.17l-.06.17-.06.17-.18.47-.25.68-.13.35c-.11.29-.22.57-.33.86l-.1.25c-.12.31-.24.62-.36.93l-.06.16c-.14.34-.27.69-.41,1.03v.02s-.04.08-.04.08c-.14.34-.27.68-.41,1.01h0s-.01.03-.01.03v.02c-.16.37-.31.73-.46,1.1l-.02.04c-.14.34-.28.67-.42,1.01l-.03.06v.02c-.16.36-.32.73-.47,1.09l-21.72-.32-5.97,64.19h-4.18l-5.97-64.43-24.11-.36c-.14-.34-.27-.68-.41-1.02l-.08-.2c-.12-.31-.25-.62-.37-.93l-.07-.18c-.12-.3-.24-.61-.35-.91l-.11-.28c-.11-.29-.22-.57-.33-.86l-.1-.26c-.11-.29-.22-.58-.33-.88l-.1-.27-.26-.72-.06-.17-.14-.38-.22-.62-.19-.53-.02-.05-.06-.18-.14-.39-.22-.62v-.04s-.07-.18-.07-.18l-.06-.18-.06-.18-.17-.5-.22.26c-.22.26-.43.52-.65.78l-.28.34c-.21.26-.41.52-.61.78l-.27.35c-.2.27-.41.53-.61.8l-.27.37c-.2.27-.39.54-.58.81l-.26.38c-.19.27-.38.55-.57.83l-.26.39c-.18.28-.36.55-.54.83l-.05.07h0c-7.71,12.07-12.17,27.66-11.76,44.54.19,7.58,1.34,14.83,3.31,21.57-7.47-13.18-12.08-29.46-12.51-47.19-.37-14.96,2.28-29.08,7.2-41.33.18-.46.37-.91.56-1.37l.15-.36c.19-.44.38-.87.57-1.31l.18-.41c.19-.43.39-.85.58-1.27l.19-.41c.2-.43.41-.85.62-1.27l.19-.39c.21-.41.41-.81.62-1.22l.21-.4c.21-.39.42-.79.63-1.17l.24-.44c.21-.37.41-.74.62-1.1l.27-.46c.21-.37.43-.73.65-1.09.1-.16.2-.32.29-.48.21-.35.43-.69.64-1.03l.29-.46c.21-.33.43-.66.65-.99.11-.16.22-.33.33-.49.22-.32.44-.65.66-.97.11-.16.22-.32.34-.48.23-.32.45-.63.68-.95.11-.15.23-.31.34-.46l.08-.11c-1.81-11.81-2.7-24.14-2.56-36.81.41-37.44,9.75-71.64,24.95-98.14h0c1.34-2.33,2.72-4.61,4.15-6.82h0c.72-1.12,1.45-2.21,2.18-3.29l.02-.02c.36-.53.73-1.06,1.1-1.59l.02-.02c1.12-1.59,2.27-3.15,3.44-4.67h0c1.96-2.55,3.98-4.98,6.06-7.3h0c.83-.93,1.67-1.83,2.51-2.72l.03-.03c.41-.43.83-.86,1.25-1.29l.04-.04c.43-.43.85-.86,1.28-1.28l1.99.03c.41.43.83.86,1.24,1.3h0s.05.06.05.06h0s.02.02.02.02c.39.42.79.84,1.17,1.27l.08.09.02.02c.37.41.74.82,1.11,1.24l.02.02.02.02.06.06h0c.37.43.74.86,1.11,1.28l.02.02.02.02.1.12.02.02c.35.41.69.82,1.03,1.23l.02.02.02.02h0s.17.21.17.21h0s.02.02.02.02c.33.39.65.79.97,1.19h0s.21.27.21.27h0s.02.03.02.03c.3.38.61.77.91,1.15v.02s.03.02.03.02l.21.27h0c.3.39.59.78.89,1.16v.02s.03.02.03.02l.31.42v.02s.03.02.03.02v.02s.03.02.03.02v.02s.02.02.02.02c.24.32.48.64.71.96h0s.01.02.01.02h0s.38.52.38.52v.02s.02.02.02.02v.02s.02.02.02.02c.23.31.46.63.68.95v.02s.02.01.02.01h0s0,.02,0,.02h0s0,.02,0,.02l.39.55h0s.01.03.01.03h0s0,.02,0,.02h0s0,.03,0,.03h0s0,.03,0,.03h0s0,.03,0,.03c.17.24.34.48.5.72h0s0,.03,0,.03h0s0,.03,0,.03h0s0,.03,0,.03h0c.16.25.32.48.48.71h0s0,.03,0,.03h0s0,.03,0,.03h0s0,.03,0,.03h0s0,.02,0,.02h0s0,.02,0,.02c.15.22.3.44.45.66h0s0,.02,0,.02h0s0,.02,0,.02h0s0,.03,0,.03h0s.03.05.03.05h0c.16.26.33.5.49.75h0s0,.03,0,.03h0s0,.03,0,.03c.13.2.27.4.4.6v.02s.02.02.02.02v.02s.02.02.02.02v.02c.23.34.45.68.67,1.02v.02s.02.02.02.02v.02s.02.02.02.02l.02.03.29.46h0s.01.02.01.02v.02s.03.02.03.02v.02s.03.02.03.02v.02c.22.33.43.66.63.99v.02s.03.02.03.02v.02s.03.02.03.02v.02s.03.02.03.02v.02s.03.02.03.02v.02s.03.02.03.02v.02s.06.07.06.07c2.43,3.92,4.73,8.03,6.88,12.31l.03.07c.94,1.88,1.86,3.79,2.74,5.74l.04.08c.87,1.92,1.72,3.88,2.54,5.87l.07.17c.18.45.36.89.54,1.34l.13.34c.58,1.47,1.15,2.95,1.7,4.44v.03c.18.45.34.91.51,1.36l.15.42c.16.44.31.88.47,1.32l.1.3c.49,1.41.96,2.83,1.42,4.27l.17.53c.13.42.27.84.4,1.27l.16.52c.42,1.37.83,2.76,1.22,4.15l.17.62c.11.4.22.8.33,1.19l.19.7c.11.4.21.8.32,1.2l.16.62c.2.76.39,1.52.58,2.28.06.23.12.46.17.69.09.36.17.72.26,1.09.07.31.14.61.22.92.08.35.16.71.24,1.06.07.31.14.62.21.93.08.35.16.71.24,1.07v.02c.13.58.25,1.16.37,1.74h0c.07.34.14.68.21,1.02.07.35.14.69.21,1.04.07.33.13.66.19,1,.07.36.14.72.2,1.08.06.32.12.64.18.96.09.5.18,1,.27,1.5.06.35.12.71.18,1.06.08.47.16.94.23,1.41.05.3.1.6.14.9.07.42.13.84.2,1.26l.13.85c.07.47.14.95.21,1.42.03.23.07.46.1.68.09.67.18,1.35.27,2.02l.09.72c.06.48.12.96.18,1.45l.1.81c.05.46.11.93.16,1.4.03.25.06.51.08.76.07.69.14,1.39.21,2.09.02.16.03.33.05.49.05.56.1,1.12.15,1.68.02.26.04.52.07.79.04.48.08.95.11,1.43.02.27.04.53.06.8.05.64.09,1.27.13,1.91l.02.24c.05.73.09,1.46.13,2.19.01.23.02.46.04.68.03.52.05,1.04.07,1.57l.03.77c.02.54.04,1.09.06,1.64,0,.19.01.39.02.58.02.74.04,1.48.06,2.23v.46c.02.6.03,1.2.04,1.8v.7c.01.54.01,1.08.01,1.62v.71c0,.75,0,1.5-.01,2.25,0,.45-.01.9-.02,1.35v.26c-.01.34-.02.68-.02,1.02v.46s-.03.86-.03.86v.46s-.04.91-.04.91v.41c-.03.35-.04.71-.05,1.06v.23c-.03.45-.05.9-.07,1.34v.06c-.02.41-.04.82-.06,1.23l-.02.37c-.02.3-.03.6-.05.9l-.03.5-.05.77-.03.54c-.02.3-.04.59-.06.89l-.02.34c-.06.87-.13,1.73-.2,2.6l-.03.32c-.03.32-.05.63-.08.95l-.04.42-.08.85-.05.5-.07.76-.05.53-.08.76-.05.5c-.04.41-.09.81-.13,1.22v.03s-.04.29-.04.29l-.1.9-.07.6-.08.63-.08.66-.07.55-.1.73-.06.44-.1.75-.07.5-.1.71c-.05.37-.11.75-.17,1.12-.04.29-.09.59-.13.88l-.04.29-.14.87-.05.29-.15.91-.04.24-.15.9-.05.27-.14.81h0ZM510.69,418.19c.15-.36.3-.73.45-1.1l-.45,1.1Z"/>
    <path class="cls-2" d="M522.93,375.8c.2.27.39.54.58.81.13.18.25.36.38.54.21.31.42.61.63.92.13.19.26.38.38.57.2.3.39.6.59.9.13.2.25.39.38.59.19.3.38.6.57.91.13.21.25.42.38.62.18.3.36.6.54.9.14.23.27.47.41.7.16.27.31.55.47.83.15.26.29.53.44.8.14.27.29.53.43.8.15.28.29.55.44.83.13.26.27.52.4.78.15.3.3.6.45.91.12.23.23.47.34.7.16.32.31.65.46.97.11.24.22.48.33.71.15.33.3.66.45,1,5.11,11.56,8.18,24.93,8.53,39.25.48,19.29-4.06,37.19-12.04,51.48,2.25-7.85,3.38-16.37,3.17-25.26-.4-16.03-5.13-30.61-12.71-41.92h0c-1.46-2.18-3.02-4.23-4.68-6.15l-.17.47-.06.18-.06.18-.31.84v.04s-.08.17-.08.17l-.06.17-.06.18-.18.47-.25.68-.13.35c-.11.29-.22.57-.33.86l-.1.25c-.12.31-.24.62-.36.93l-.06.16c-.14.34-.27.69-.41,1.03v.02s-.04.08-.04.08c-.14.34-.27.68-.41,1.01h0s-.01.03-.01.03v.02c-.16.37-.31.73-.46,1.1l-.02.04c-.14.34-.28.67-.42,1.01l-.03.06v.02c-.16.36-.32.73-.47,1.09l-21.72-.32-5.97,64.19h-2.08V210.59l.11-.11,1.99.03c.41.43.83.86,1.24,1.3h0s.05.06.05.06h0s.02.02.02.02c.39.42.79.84,1.17,1.27l.08.09.02.02c.37.41.74.82,1.11,1.24l.02.02.02.02.06.06h0c.37.43.74.86,1.11,1.28l.02.02.02.02.1.12.02.02c.35.41.69.82,1.03,1.23l.02.02.02.02h0s.17.21.17.21h0s.02.02.02.02c.33.39.65.79.97,1.19h0s.21.27.21.27h0s.02.03.02.03c.3.38.61.77.91,1.15v.02s.03.02.03.02l.21.27h0c.3.39.59.78.89,1.16v.02s.03.02.03.02l.31.42v.02s.03.02.03.02v.02s.03.02.03.02v.02s.02.02.02.02c.24.32.48.64.71.96h0s.01.02.01.02h0s.38.52.38.52v.02s.02.02.02.02v.02s.02.02.02.02c.23.31.46.63.68.95v.02s.02.01.02.01h0s0,.02,0,.02h0s0,.02,0,.02l.39.55h0s.01.03.01.03h0s0,.02,0,.02h0s0,.03,0,.03h0s0,.03,0,.03h0s0,.03,0,.03c.17.24.34.48.5.72h0s0,.03,0,.03h0s0,.03,0,.03h0s0,.03,0,.03h0c.16.25.32.48.48.71h0s0,.03,0,.03h0s0,.03,0,.03h0s0,.03,0,.03h0s0,.02,0,.02h0s0,.02,0,.02c.15.22.3.44.45.66h0s0,.02,0,.02h0s0,.02,0,.02h0s0,.03,0,.03h0s.03.05.03.05h0c.16.26.33.5.49.75h0s0,.03,0,.03h0s0,.03,0,.03c.13.2.27.4.4.6v.02s.02.02.02.02v.02s.02.02.02.02v.02c.23.34.45.68.67,1.02v.02s.02.02.02.02v.02s.02.02.02.02l.02.03.29.46h0s.01.02.01.02v.02s.03.02.03.02v.02s.03.02.03.02v.02c.22.33.43.66.63.99v.02s.03.02.03.02v.02s.03.02.03.02v.02s.03.02.03.02v.02s.03.02.03.02v.02s.03.02.03.02v.02s.06.07.06.07c2.43,3.92,4.73,8.03,6.88,12.31l.03.07c.94,1.88,1.86,3.79,2.74,5.74l.04.08c.87,1.92,1.72,3.88,2.54,5.87l.07.17c.18.45.36.89.54,1.34l.13.34c.58,1.47,1.15,2.95,1.7,4.44v.03c.18.45.34.91.51,1.36l.15.42c.16.44.31.88.47,1.32l.1.3c.49,1.41.96,2.83,1.42,4.27l.17.53c.13.42.27.84.4,1.27l.16.52c.42,1.37.83,2.76,1.22,4.15l.17.62c.11.4.22.79.33,1.19l.19.7c.11.4.21.8.32,1.2l.16.62c.2.76.39,1.52.58,2.28.06.23.12.46.17.69.09.36.17.72.26,1.09.07.31.14.61.22.92.08.35.16.7.24,1.06.07.31.14.62.21.93.08.36.16.71.24,1.07v.02c.13.58.25,1.16.37,1.74h0c.07.34.14.68.21,1.02.07.35.14.69.21,1.04.07.33.13.66.19,1,.07.36.14.72.2,1.08.06.32.12.64.18.96.09.5.18,1,.27,1.5.06.35.12.71.18,1.06.08.47.16.94.23,1.41.05.3.1.6.14.9.07.42.13.84.2,1.26l.13.85c.07.47.14.95.21,1.42.03.23.07.46.1.69.09.67.18,1.35.27,2.02l.09.72c.06.48.12.96.18,1.45l.1.81c.05.46.11.93.16,1.4.03.25.06.51.08.76.07.69.14,1.39.21,2.09.02.16.03.33.05.49.05.56.1,1.12.15,1.68.02.26.04.52.07.79.04.48.08.95.11,1.43.02.27.04.53.06.8.05.64.09,1.27.13,1.91l.02.24c.05.73.09,1.46.13,2.19.01.23.02.46.04.68.03.52.05,1.04.07,1.57l.03.77c.02.54.04,1.09.06,1.64,0,.19.01.39.02.58.02.74.04,1.48.06,2.23v.46c.02.6.03,1.2.04,1.8v.7c.01.54.01,1.08.01,1.62v.71c0,.75,0,1.5-.01,2.25,0,.45-.01.9-.02,1.35v.26c-.01.34-.02.68-.02,1.02v.46s-.03.86-.03.86v.46s-.04.91-.04.91v.41c-.03.35-.04.71-.05,1.06v.23c-.03.45-.05.9-.07,1.34v.06c-.02.41-.04.82-.06,1.23l-.02.37c-.02.3-.03.6-.05.9l-.03.5-.05.77-.03.54c-.02.3-.04.59-.06.89l-.02.35c-.06.87-.13,1.73-.2,2.6l-.03.32c-.03.32-.05.63-.08.95l-.04.42-.08.85-.05.5-.07.76-.05.53-.08.76-.05.5c-.04.41-.09.81-.13,1.22v.03s-.04.29-.04.29l-.1.9-.07.6-.08.63-.08.66-.07.55-.1.73-.06.44-.1.75-.07.5-.1.71c-.05.37-.11.75-.17,1.12-.04.29-.09.59-.13.88l-.04.29-.14.87-.05.29-.15.91-.04.24-.15.9-.05.27-.14.81h0ZM510.69,418.19c.15-.36.3-.73.45-1.1l-.45,1.1Z"/>
    <path class="cls-5" d="M443.9,408.98l-.22.26c-.22.26-.43.52-.65.78l-.28.34c-.21.26-.41.52-.61.78l-.27.35c-.2.27-.41.53-.61.8l-.27.37c-.2.27-.39.54-.58.81l-.26.37c-.19.27-.38.55-.57.83l-.26.39c-.18.28-.36.55-.54.83l-.05.07h0c-7.71,12.07-12.17,27.66-11.76,44.54.19,7.58,1.34,14.83,3.31,21.57-7.47-13.18-12.08-29.46-12.51-47.19-.37-14.96,2.28-29.08,7.2-41.33.18-.46.37-.91.56-1.37l.15-.36c.19-.44.38-.87.57-1.31l.18-.41c.19-.43.39-.85.58-1.27l.19-.41c.2-.43.41-.85.62-1.27l.19-.39c.21-.41.41-.81.62-1.22l.21-.4c.21-.39.42-.79.63-1.17l.24-.44c.21-.37.41-.74.62-1.1l.27-.46c.21-.37.43-.73.65-1.09.1-.16.2-.32.29-.48.21-.35.43-.69.64-1.03l.29-.46c.21-.33.43-.66.65-.99.11-.17.22-.33.33-.49.22-.32.44-.65.66-.97.11-.16.22-.32.34-.48.23-.32.45-.63.68-.95.11-.15.23-.31.34-.46l.08-.11,8.31,34.48Z"/>
    <path class="cls-5" d="M522.93,375.8c.2.27.39.54.58.81.13.18.25.36.38.54.21.31.42.61.63.92.13.19.26.38.38.57.2.3.39.6.59.9.13.2.25.39.38.59.19.3.38.6.57.91.13.21.25.42.38.62.18.3.36.6.54.9.14.23.27.47.41.7.16.27.31.55.47.83.15.26.29.53.44.8.14.27.29.53.43.8.15.28.29.55.44.83.13.26.27.52.4.78.15.3.3.6.45.91.12.23.23.47.34.7.16.32.31.65.46.97.11.24.22.48.33.71.15.33.3.66.45,1,5.11,11.56,8.18,24.93,8.53,39.25.48,19.29-4.06,37.19-12.04,51.48,2.25-7.85,3.38-16.37,3.17-25.26-.4-16.03-5.13-30.61-12.71-41.92h0c-1.46-2.18-3.02-4.23-4.68-6.15l8.69-33.18Z"/>
    <path class="cls-16" d="M513.79,410.23l-.15.41v.04s-.08.17-.08.17l-.06.17-.06.18-.18.47-.25.68-.13.35c-.11.29-.22.57-.33.86l-.1.25c-.12.31-.24.62-.36.93l-.06.16c-.14.34-.27.69-.41,1.03v.02s-.04.08-.04.08c-.14.34-.27.68-.41,1.01h0s-.01.03-.01.03v.02c-.16.37-.31.73-.46,1.1l-.02.04c-.14.34-.28.67-.42,1.01l-.03.06v.02c-.16.36-.32.73-.47,1.09l-21.72-.32-16.11-.24-24.11-.36c-.14-.34-.27-.68-.41-1.02l-.08-.2c-.12-.31-.25-.62-.37-.93l-.07-.18c-.12-.3-.24-.61-.35-.91l-.11-.28c-.11-.29-.22-.57-.33-.86l-.1-.26c-.11-.29-.22-.58-.33-.88l-.1-.27-.26-.72-.06-.17-.14-.38-.22-.62-.19-.53-.02-.05-.06-.18-.14-.39-.22-.62v-.04s-.07-.18-.07-.18l-.06-.18-.06-.18-.17-.5h69.89v1.25h0ZM510.69,418.19c.15-.36.3-.73.45-1.1l-.45,1.1Z"/>
    <path class="cls-8" d="M513.79,410.23l-.15.41v.04s-.08.17-.08.17l-.06.17-.06.18-.18.47-.25.68-.13.35c-.11.29-.22.57-.33.86l-.1.25c-.12.31-.24.62-.36.93l-.06.16c-.14.34-.27.69-.41,1.03v.02s-.04.08-.04.08c-.14.34-.27.68-.41,1.01h0s-.01.03-.01.03v.02c-.16.37-.31.73-.46,1.1l-.02.04c-.14.34-.28.67-.42,1.01l-.03.06v.02c-.16.36-.32.73-.47,1.09l-21.72-.32-8.05-.12v-10.99h33.82v1.25h0ZM510.69,418.19c.15-.36.3-.73.45-1.1l-.45,1.1Z"/>
    <path class="cls-9" d="M460.39,235.51c.58-.94,1.16-1.87,1.75-2.78h0c.72-1.12,1.45-2.21,2.18-3.29l.02-.02c.36-.53.73-1.06,1.1-1.59l.02-.02c1.12-1.59,2.27-3.15,3.44-4.67h0c1.96-2.55,3.98-4.98,6.06-7.3h0c.83-.93,1.67-1.83,2.51-2.72l.03-.03c.41-.43.83-.86,1.25-1.29l.04-.04c.43-.43.85-.86,1.28-1.28l1.99.03c.41.43.83.86,1.24,1.3h0s.05.06.05.06h0s.02.02.02.02c.39.42.79.84,1.17,1.27l.08.09.02.02c.37.41.74.82,1.11,1.24l.02.02.02.02.06.06h0c.37.43.74.86,1.11,1.28l.02.02.02.02.1.12.02.02c.35.41.69.82,1.03,1.23l.02.02.02.02h0s.17.21.17.21h0s.02.02.02.02c.33.39.65.79.97,1.19h0s.21.27.21.27h0s.02.03.02.03c.3.38.61.77.91,1.15v.02s.03.02.03.02l.21.27h0c.3.39.59.78.89,1.16v.02s.03.02.03.02l.31.42v.02s.03.02.03.02v.02s.03.02.03.02v.02s.02.02.02.02c.24.32.48.64.71.96h0s.01.02.01.02h0s.38.52.38.52v.02s.02.02.02.02v.02s.02.02.02.02c.23.31.46.63.68.95v.02s.02.01.02.01h0s0,.02,0,.02h0s0,.02,0,.02l.39.55h0s.01.03.01.03h0s0,.02,0,.02h0s0,.03,0,.03h0s0,.03,0,.03h0s0,.03,0,.03c.17.24.34.48.5.72h0s0,.03,0,.03h0s0,.03,0,.03h0s0,.03,0,.03h0c.16.25.32.48.48.71h0s0,.03,0,.03h0s0,.03,0,.03h0s0,.03,0,.03h0s0,.02,0,.02h0s0,.02,0,.02c.15.22.3.44.45.66h0s0,.02,0,.02h0s0,.02,0,.02h0s0,.03,0,.03h0s.03.05.03.05h0c.16.26.33.5.49.75h0s0,.03,0,.03h0s0,.03,0,.03c.13.2.27.4.4.6v.02s.02.02.02.02v.02s.02.02.02.02v.02c.23.34.45.68.67,1.02v.02s.02.02.02.02v.02s.02.02.02.02l.02.03.29.46h0s.01.02.01.02v.02s.03.02.03.02v.02s.03.02.03.02v.02c.22.33.43.66.63.99v.02s.03.02.03.02v.02s.03.02.03.02v.02s.03.02.03.02v.02s.03.02.03.02v.02s.03.02.03.02v.02s.06.07.06.07c.7,1.14,1.4,2.29,2.08,3.46-5.75,3.09-12.62,4.9-20,4.9s-14.8-1.95-20.69-5.28Z"/>
    <path class="cls-8" d="M479.98,210.59l.11-.11,1.99.03c.41.43.83.86,1.24,1.3h0s.05.06.05.06h0s.02.02.02.02c.39.42.79.84,1.17,1.27l.08.09.02.02c.37.41.74.82,1.11,1.24l.02.02.02.02.06.06h0c.37.43.74.86,1.11,1.28l.02.02.02.02.1.12.02.02c.35.41.69.82,1.03,1.23l.02.02.02.02h0s.17.21.17.21h0s.02.02.02.02c.33.39.65.79.97,1.19h0s.21.27.21.27h0s.02.03.02.03c.3.38.61.77.91,1.15v.02s.03.02.03.02l.21.27h0c.3.39.59.78.89,1.16v.02s.03.02.03.02l.31.42v.02s.03.02.03.02v.02s.03.02.03.02v.02s.02.02.02.02c.24.32.48.64.71.96h0s.01.02.01.02h0s.38.52.38.52v.02s.02.02.02.02v.02s.02.02.02.02c.23.31.46.63.68.95v.02s.02.01.02.01h0s0,.02,0,.02h0s0,.02,0,.02l.39.55h0s.01.03.01.03h0s0,.02,0,.02h0s0,.03,0,.03h0s0,.03,0,.03h0s0,.03,0,.03c.17.24.34.48.5.72h0s0,.03,0,.03h0s0,.03,0,.03h0s0,.03,0,.03h0c.16.25.32.48.48.71h0s0,.03,0,.03h0s0,.03,0,.03h0s0,.03,0,.03h0s0,.02,0,.02h0s0,.02,0,.02c.15.22.3.44.45.66h0s0,.02,0,.02h0s0,.02,0,.02h0s0,.03,0,.03h0s.03.05.03.05h0c.16.26.33.5.49.75h0s0,.03,0,.03h0s0,.03,0,.03c.13.2.27.4.4.6v.02s.02.02.02.02v.02s.02.02.02.02v.02c.23.34.45.68.67,1.02v.02s.02.02.02.02v.02s.02.02.02.02l.02.03.29.46h0s.01.02.01.02v.02s.03.02.03.02v.02s.03.02.03.02v.02c.22.33.43.66.63.99v.02s.03.02.03.02v.02s.03.02.03.02v.02s.03.02.03.02v.02s.03.02.03.02v.02s.03.02.03.02v.02s.06.07.06.07c.7,1.14,1.4,2.29,2.08,3.46-5.75,3.09-12.62,4.9-20,4.9-.37,0-.74,0-1.1-.01v-30.19Z"/>
    <path class="cls-11" d="M479.98,301.23c9.05,0,16.44-6.7,16.44-14.91s-7.39-14.91-16.44-14.91-16.44,6.7-16.44,14.91,7.38,14.91,16.44,14.91Z"/>
    <path class="cls-13" d="M479.98,271.41c9.08,0,16.44,6.68,16.44,14.91s-7.36,14.91-16.44,14.91v-29.82Z"/>
    <path class="cls-5" d="M479.98,300.5c7.66,0,13.92-5.67,13.92-12.62s-6.25-12.62-13.92-12.62-13.92,5.67-13.92,12.62,6.25,12.62,13.92,12.62Z"/>
    <path class="cls-11" d="M479.98,275.26c7.69,0,13.92,5.65,13.92,12.62s-6.23,12.62-13.92,12.62v-25.24Z"/>
    <polygon class="cls-10" points="435.12 721.2 459.18 522.9 500.14 522.9 527.28 720.24 435.12 721.2"/>
    <polygon class="cls-5" points="448.03 419.82 465.88 420.73 441.79 974.33 392.94 974.33 448.03 419.82"/>
    <polygon class="cls-5" points="494.51 421.34 510.44 419.37 564.96 974.33 516.11 974.33 494.51 421.34"/>
    <path class="cls-5" d="M505.71,419.97h-52.1c0,1.01,0,2.02,0,3.03,0,80.46,10.21,152.02,26.05,197.7,15.85-45.68,26.05-117.24,26.05-197.7,0-1.01,0-2.02,0-3.03Z"/>
    <path class="cls-7" d="M501.25,419.99h-43.97c0,.82,0,1.64,0,2.47,0,65.52,8.61,123.8,21.99,161,13.37-37.2,21.99-95.48,21.99-161,0-.82,0-1.64,0-2.47Z"/>
    <path class="cls-4" d="M497.47,419.99h-36.4c-.16,31.49.38,69.93,18.2,100.34,17.8-30.38,18.37-68.89,18.2-100.34Z"/>
    <polygon class="cls-5" points="487.91 421.32 482.06 484.28 479.97 484.28 479.97 484.28 477.88 484.28 471.91 419.85 471.91 374.46 487.91 374.46 487.91 421.32"/>
    <polygon class="cls-11" points="487.91 421.32 482.06 484.28 479.98 484.28 479.98 374.46 487.91 374.46 487.91 421.32"/>
    <rect class="cls-17" x="202.84" y="945.3" width="556.57" height="49.62"/>
    <path class="cls-5" d="M216.24,712.19v-14.99h2.5v12.9h11.36v2.09h-13.86ZM238.25,706.58h8.08l-4.05-7.67-4.03,7.67h0ZM232.81,712.19l8.19-14.99h2.68l8.33,14.99h-2.75l-1.91-3.69h-10.15l-1.92,3.69h-2.47ZM258.19,697.2v12.9h10.92v-12.9h2.47v11.44c0,1.38-.24,2.32-.73,2.81-.49.49-1.41.74-2.76.74h-8.89c-1.36,0-2.28-.25-2.77-.75-.49-.5-.74-1.44-.74-2.8v-11.44h2.5ZM279.39,712.19v-14.99h1.57l11.21,10.03c.26.23.53.5.82.82.29.32.58.67.89,1.06-.08-.48-.13-.98-.17-1.51-.04-.52-.06-1.25-.06-2.17v-8.23h2.29v14.99h-1.4l-11.51-10.42c-.05-.05-.14-.12-.25-.23-.57-.51-.99-1-1.26-1.46.06.45.1.93.13,1.45.03.51.04,1.12.04,1.82v8.84h-2.3ZM316.42,699.23h-10.4v10.86h10.4v-3.75l2.5.52v1.77c0,1.38-.24,2.32-.72,2.81-.48.49-1.4.74-2.75.74h-8.4c-1.36,0-2.29-.25-2.78-.75-.49-.49-.74-1.43-.74-2.8v-7.9c0-1.37.25-2.3.74-2.79.49-.5,1.42-.75,2.78-.75h8.4c1.36,0,2.28.25,2.75.74.48.49.72,1.43.72,2.8v1.42l-2.5.47v-3.4h0ZM325.52,712.19v-14.99h2.5v6.13h11.82v-6.13h2.5v14.99h-2.5v-6.8h-11.82v6.8h-2.5Z"/>
    <rect class="cls-17" x="229.79" y="717.73" width="99.01" height=".65"/>
</svg>