<?xml version="1.0" encoding="UTF-8"?>
<svg id="Layer_1" data-name="Layer 1" xmlns="http://www.w3.org/2000/svg" viewBox="0 0 979.2 784.61">
    <defs>
        <style>
            .cls-1 {
            fill: #fcca01;
            }

            .cls-2 {
            fill: #de2c61;
            }

            .cls-3 {
            fill: #ff9cab;
            }

            .cls-4 {
            fill: #1e1a1b;
            }

            .cls-5 {
            fill: #0092a0;
            }

            .cls-6 {
            fill: #fff;
            }

            .cls-7 {
            fill: #e6eaeb;
            }

            .cls-8 {
            fill: #ffd033;
            }

            .cls-9 {
            fill: #c7d3d6;
            }

            .cls-10 {
            fill: #d6e3e6;
            }

            .cls-11 {
            fill: #fa4e6b;
            }
        </style>
    </defs>
    <path class="cls-7" d="M789,479.25c-.08,3.2,1.89,6.09,4.9,7.17l17.8,6.39h0c1.26,4.9,3.07,9.58,5.36,13.98l-9.04,16.48c-1.55,2.83-1.1,6.33,1.12,8.67l8.43,8.88c2.2,2.32,5.64,2.96,8.54,1.6l17.09-8.06c4.28,2.51,8.88,4.57,13.7,6.1,0,0,0,0,0,0l5.26,18.03c.9,3.09,3.7,5.25,6.92,5.33l12.24.32c3.2.08,6.09-1.89,7.17-4.9l6.38-17.78c4.9-1.28,9.59-3.09,14.01-5.37l16.47,9.03c2.83,1.55,6.33,1.1,8.67-1.12l8.88-8.43c2.32-2.2,2.97-5.64,1.6-8.54l-8.06-17.09s0,0,0,0c2.51-4.28,4.56-8.85,6.08-13.67,0,0,0,0,0,0l18.05-5.27c3.09-.9,5.25-3.7,5.33-6.92l.32-12.24c.08-3.2-1.89-6.09-4.9-7.17l-17.79-6.39h0c-1.28-4.89-3.09-9.56-5.37-13.97h0s9.04-16.5,9.04-16.5c1.55-2.83,1.1-6.33-1.12-8.67l-8.43-8.88c-2.2-2.32-5.64-2.96-8.54-1.6l-17.09,8.06c-4.28-2.51-8.88-4.57-13.69-6.1,0,0,0,0,0,0l-5.26-18.03c-.9-3.09-3.7-5.25-6.92-5.33l-12.24-.32c-3.2-.08-6.09,1.89-7.17,4.9l-6.38,17.78c-4.9,1.28-9.59,3.09-14,5.37l-16.47-9.03c-2.83-1.55-6.33-1.1-8.67,1.12l-8.88,8.43c-2.32,2.2-2.97,5.64-1.6,8.54l8.06,17.09s0,0,0,.01c-2.51,4.27-4.56,8.85-6.09,13.67,0,0,0,0,0,0l-18.04,5.26c-3.09.9-5.25,3.7-5.33,6.92l-.32,12.24ZM844.72,474.68c.47-18.17,15.58-32.5,33.75-32.03,18.17.47,32.51,15.57,32.04,33.74-.47,18.17-15.58,32.51-33.75,32.04-18.16-.47-32.51-15.58-32.04-33.75Z"/>
    <path class="cls-7" d="M119.04,92.32c-.08,3.2,1.89,6.09,4.9,7.17l17.8,6.39h0c1.26,4.9,3.07,9.58,5.36,13.98l-9.04,16.48c-1.55,2.83-1.1,6.33,1.12,8.67l8.43,8.88c2.2,2.32,5.64,2.96,8.54,1.6l17.09-8.06c4.28,2.51,8.88,4.57,13.7,6.1,0,0,0,0,0,0l5.26,18.03c.9,3.09,3.7,5.25,6.92,5.33l12.24.32c3.2.08,6.09-1.89,7.17-4.9l6.38-17.78c4.9-1.28,9.59-3.09,14.01-5.37l16.47,9.03c2.83,1.55,6.33,1.1,8.67-1.12l8.88-8.43c2.32-2.2,2.97-5.64,1.6-8.54l-8.06-17.09s0,0,0,0c2.51-4.28,4.56-8.85,6.08-13.67,0,0,0,0,0,0l18.05-5.27c3.09-.9,5.25-3.7,5.33-6.92l.32-12.24c.08-3.2-1.89-6.09-4.9-7.17l-17.79-6.39h0c-1.28-4.89-3.09-9.56-5.37-13.97h0s9.04-16.5,9.04-16.5c1.55-2.83,1.1-6.33-1.12-8.67l-8.43-8.88c-2.2-2.32-5.64-2.96-8.54-1.6l-17.09,8.06c-4.28-2.51-8.88-4.57-13.69-6.1,0,0,0,0,0,0l-5.26-18.03c-.9-3.09-3.7-5.25-6.92-5.33L203.94,0c-3.2-.08-6.09,1.89-7.17,4.9l-6.38,17.78c-4.9,1.28-9.59,3.09-14,5.37l-16.47-9.03c-2.83-1.55-6.33-1.1-8.67,1.12l-8.88,8.43c-2.32,2.2-2.97,5.64-1.6,8.54l8.06,17.09s0,0,0,.01c-2.51,4.27-4.56,8.85-6.09,13.67,0,0,0,0,0,0l-18.04,5.26c-3.09.9-5.25,3.7-5.33,6.92l-.32,12.24ZM174.75,87.75c.47-18.17,15.58-32.5,33.75-32.03,18.17.47,32.51,15.57,32.04,33.74-.47,18.17-15.58,32.51-33.75,32.04-18.16-.47-32.51-15.58-32.04-33.75Z"/>
    <g>
        <path class="cls-5" d="M195.23,95.18v358.32c0,17.57,14.6,31.75,32.65,31.75h582.75c17.98,0,32.58-14.18,32.58-31.75V95.18c0-17.56-14.6-31.82-32.58-31.82H227.88c-18.05,0-32.65,14.25-32.65,31.82Z"/>
        <path class="cls-6" d="M194.31,153.93v358.32c0,17.57,14.63,31.75,32.71,31.75h583.85c18.01,0,32.64-14.18,32.64-31.75V153.93c0-17.56-14.63-31.82-32.64-31.82H227.02c-18.08,0-32.71,14.25-32.71,31.82Z"/>
        <rect class="cls-10" x="222.37" y="166.29" width="138.88" height="46.74" transform="translate(583.63 379.31) rotate(180)"/>
        <rect class="cls-10" x="222.37" y="250.93" width="138.88" height="46.74" transform="translate(583.63 548.6) rotate(180)"/>
        <g>
            <path class="cls-10" d="M796.89,171.22h-197.98c-1.37,0-2.49,1.78-2.49,3.97s1.11,3.97,2.49,3.97h197.98c1.37,0,2.49-1.78,2.49-3.97s-1.11-3.97-2.49-3.97Z"/>
            <path class="cls-1" d="M571.78,179.16h17.02c1.37,0,2.49-1.78,2.49-3.97s-1.11-3.97-2.49-3.97h-17.02c-1.37,0-2.49,1.78-2.49,3.97s1.11,3.97,2.49,3.97Z"/>
            <path class="cls-11" d="M796.89,200.73h-69.44c-1.37,0-2.49,1.78-2.49,3.97s1.11,3.97,2.49,3.97h69.44c1.37,0,2.49-1.78,2.49-3.97s-1.11-3.97-2.49-3.97Z"/>
            <path class="cls-10" d="M567.55,208.67h147.38c1.37,0,2.49-1.78,2.49-3.97s-1.12-3.97-2.49-3.97h-147.38c-1.37,0-2.49,1.78-2.49,3.97s1.11,3.97,2.49,3.97Z"/>
            <path class="cls-10" d="M567.55,259.31h197.98c1.37,0,2.49,1.78,2.49,3.97s-1.12,3.97-2.49,3.97h-197.98c-1.37,0-2.49-1.78-2.49-3.97s1.11-3.97,2.49-3.97Z"/>
            <path class="cls-5" d="M797.01,267.25h-17.02c-1.37,0-2.49-1.78-2.49-3.97s1.11-3.97,2.49-3.97h17.02c1.37,0,2.49,1.78,2.49,3.97s-1.11,3.97-2.49,3.97Z"/>
            <path class="cls-1" d="M567.55,288.82h137.83c1.37,0,2.49,1.78,2.49,3.97s-1.11,3.97-2.49,3.97h-137.83c-1.37,0-2.49-1.78-2.49-3.97s1.11-3.97,2.49-3.97Z"/>
            <path class="cls-10" d="M798.67,296.76h-78.99c-1.37,0-2.49-1.78-2.49-3.97s1.12-3.97,2.49-3.97h78.99c1.37,0,2.49,1.78,2.49,3.97s-1.11,3.97-2.49,3.97Z"/>
            <path class="cls-10" d="M571.15,239.13h224.57c2.5,0,4.53-2.03,4.53-4.53h0c0-2.5-2.03-4.53-4.53-4.53h-224.57c-2.5,0-4.53,2.03-4.53,4.53h0c0,2.5,2.03,4.53,4.53,4.53Z"/>
        </g>
        <path class="cls-4" d="M810.87,545H227.02c-18.59,0-33.71-14.69-33.71-32.75V153.93c0-18.1,15.12-32.82,33.71-32.82h583.85c18.55,0,33.64,14.72,33.64,32.82v358.32c0,18.06-15.09,32.75-33.64,32.75ZM227.02,123.11c-17.48,0-31.71,13.83-31.71,30.82v358.32c0,16.96,14.22,30.75,31.71,30.75h583.85c17.45,0,31.64-13.79,31.64-30.75V153.93c0-16.99-14.19-30.82-31.64-30.82H227.02Z"/>
        <path class="cls-6" d="M724.23,98.25c0-3.24,2.44-5.87,5.45-5.87s5.45,2.63,5.45,5.87-2.44,5.87-5.45,5.87-5.45-2.63-5.45-5.87Z"/>
        <path class="cls-6" d="M751.84,98.25c0-3.24,2.44-5.87,5.45-5.87s5.45,2.63,5.45,5.87-2.44,5.87-5.45,5.87-5.45-2.63-5.45-5.87Z"/>
        <path class="cls-6" d="M779.44,98.25c0-3.24,2.44-5.87,5.45-5.87s5.45,2.63,5.45,5.87-2.44,5.87-5.45,5.87-5.45-2.63-5.45-5.87Z"/>
        <path class="cls-6" d="M373.86,104.12h-125.2c-3.24,0-5.87-2.63-5.87-5.87h0c0-3.24,2.63-5.87,5.87-5.87h125.2c3.24,0,5.87,2.63,5.87,5.87h0c0,3.24-2.63,5.87-5.87,5.87Z"/>
    </g>
    <g>
        <path class="cls-7" d="M520.58,782.67s-125.55-2.48-244.39-.82h-.09c-97.05,1.34-199.39,4.97-220.47.82-46.88-9.26-65.15-132.68-50.94-212.02.37-2.09.77-4.17,1.2-6.25v-.03c18.63-92.15,100.48-170.88,221.51-143.32,123.75,28.2,60.88,101.8,197.21,151.4,118.38,43.06,95.96,210.23,95.96,210.23Z"/>
        <path class="cls-9" d="M121.99,482.22l-17.46,53.36s-37.05,18.46-51.62,42.41c0,0,31.66-10.2,56.73,10.47,37.26,30.7,18.08,64.92,70.57,89.07,51.46,39.14,148.5-19,168.67-17.42,41.18,3.22,102.9,20.45,102.9,20.45,0,0-51.96-66.39-103.53-71.39,0,0-11.69-26.84-20.05-57.48-.48-1.78-69.05-2-71.29-29.73s20.54-42.01,20.54-42.01c0,0-11.35-3.68-24.65,0-17.6,4.86-19.69-20.66-8.57-25.81-6.29-8.72-108.59,15.91-122.25,28.09Z"/>
    </g>
    <g>
        <path class="cls-2" d="M392.99,566.85l-119.49,51.31c-61.14,23-127.46-75.17-56.09-101.47,0,0,131.43-28.09,174.04-27.56,56.98.7,54.58,57.77,1.54,77.72Z"/>
        <polygon class="cls-3" points="343.09 662.1 283.93 624.42 254.47 673.58 313.63 711.25 343.09 662.1"/>
        <g>
            <path class="cls-4" d="M334.57,678.51c2.76,1.37,27.15,13.09,29.7,52.72.91,14.15-3.28,25.78-6.81,33.06-10.74-5.72-131.12-69.86-131.13-69.87h0l42.29-47.04s33.5,43.72,65.94,31.13Z"/>
            <path class="cls-8" d="M220.61,711.26l126.8,67.49c3.97,2.11,8.9.61,11.01-3.36l.57-1.07c2.11-3.97.61-8.9-3.36-11.01l-126.8-67.49c-3.97-2.11-8.9-.61-11.01,3.36l-.57,1.07c-2.11,3.97-.61,8.9,3.36,11.01Z"/>
            <path class="cls-6" d="M334.44,720.4c-.21-.11-.41-.26-.58-.45-.81-.88-.75-2.25.13-3.06,15.06-13.8,23.59-11.59,24.52-11.3,1.14.37,1.76,1.58,1.4,2.72-.36,1.12-1.55,1.75-2.67,1.41-.23-.05-7.3-1.57-20.32,10.35-.69.64-1.69.73-2.48.31Z"/>
            <path class="cls-6" d="M323.25,704.38c-.21-.11-.41-.26-.58-.45-.81-.88-.75-2.25.13-3.06,15.06-13.8,23.59-11.59,24.52-11.3,1.14.38,1.76,1.58,1.4,2.72-.36,1.12-1.55,1.75-2.67,1.41-.23-.06-7.3-1.57-20.32,10.35-.69.64-1.69.73-2.48.31Z"/>
        </g>
        <path class="cls-2" d="M272.39,633.48l69.49-102.21c57.36-78.12,128.36-25.99,71,52.13l-64.16,91.3c-30.6-12.72-49.41-23.47-76.32-41.21Z"/>
        <path class="cls-3" d="M304.81,431.83c10.15,18.07,18.7,42.97,29.11,64.83,14.37,36.38-27.69,55.96-47.09,17.21-11.16-23.11-20.59-39.62-23.93-65.06-2.77-21.12,25.92-45.46,41.91-16.99Z"/>
        <path class="cls-3" d="M202.69,384.13s18.42,4.85,25.77,4.35c-.28-6.83-.57-13.65-.85-20.48l-.43-7.46-22.24-6.43-2.24,30.02Z"/>
        <path class="cls-4" d="M214.5,368.49c3.89,4.27,9.94,6.33,13.11-1.55l-.43-6.41-20.54-4.1s4.65,8.53,7.87,12.06Z"/>
        <path class="cls-3" d="M199.57,348.13c4.57,9.19,13.3,15.43,23.61,13.56,12.75-2.31,14.47-13.87,14.21-18.21-.89-14.49-1.68-27.57-11.56-32.49-8.11-4.04-20.31-1.57-26.4,5.39-10.02,11.45-1.2,29.1.14,31.76Z"/>
        <path class="cls-8" d="M268.04,468.78c1.5,11.99,25.22,50.98,27.15,57.16-4.18,31.25-14.73,40.25-31.57,33.83-23.07-8.8-93.25,45.6-118.45,34.97,10.1-30.85,9.4-87.03,10.25-139.56l-3.49-64.31s.01-.01.03-.01l-.03-.68c3.61-5.5,20.11-9.45,33.22-11.79,9.17-2.07,17.79-2.86,25.94-2.86,12.11,0,23.18,1.77,33.43,3.77.7.01,21.69,6.1,25.85,11.86,17.79,24.59-5.56,51.87-2.34,77.63Z"/>
        <path class="cls-6" d="M234.79,377.55c20.21,45.35,28.65,112.96,34.03,176.89l-59.74,32.66c1.5-73.24,1.7-145.22-15.62-210.11l9.87-1.45,24.55.99,6.91,1.03Z"/>
        <path class="cls-4" d="M170.26,548.8c-1.18-4.28,40.88-22.8,40.88-22.8,0,0-42.96-22.81-42.99-27.13-.14-24.46.18-48.49.18-48.49l-16.79,42.07s4.29,33.32,1.93,52.88c-2.04,16.89-10.07,47.64-8.3,49.4,10.74,6.19,30.81-.66,55.53-14.01,0,0-27.36-20.73-30.44-31.92Z"/>
        <path class="cls-3" d="M177.57,431.58c-.19,3.88-22.84,81.82-30.59,114.52-15.65,51.58-76.17,47.04-63.34-11.85,8.04-34.72,23.77-81.2,41-110.77,14.31-24.56,42.67-37.13,52.93,8.1Z"/>
        <path class="cls-8" d="M287.64,400.52c14.71,15.36,36.54,54.71,36.54,54.71l-55.1,25.31-24.55-101.25c9.73,2.35,29.72,7.25,43.11,21.23Z"/>
        <polygon class="cls-4" points="269.31 450.38 288.22 471.75 271.66 479.35 269.31 450.38"/>
        <path class="cls-3" d="M227.88,376.51s-2.1,10.35-9.62,11.84c-7.04,1.4-14.5-5.46-14.94-12.83,9.93-2.22,17.97-3.46,24.55.99Z"/>
        <g>
            <path class="cls-4" d="M216.02,334.65c-2.3-.69-7.8.56-8.36,4.55,1.29-1.39,4.39-2.97,7.55-2.09,1.34.38,1.32-2.31.81-2.46Z"/>
            <path class="cls-4" d="M226.7,333.54c2.08-1.21,7.72-1.3,9.2,2.44-1.58-1.04-4.97-1.85-7.83-.24-1.21.68-1.83-1.93-1.37-2.2Z"/>
            <g>
                <path class="cls-4" d="M234.52,339.03c-.15-1.28-1.32-2.2-2.6-2.05s-2.2,1.32-2.05,2.6,1.32,2.2,2.6,2.05,2.2-1.32,2.05-2.6Z"/>
                <path class="cls-4" d="M231.99,336.97c1.78-.12,2.21,1.39,4.02,1.09-.45.6-2.93,1.47-4.02-1.09Z"/>
            </g>
            <g>
                <path class="cls-4" d="M211.07,342.52c-.15-1.28.77-2.45,2.05-2.6,1.28-.15,2.45.77,2.6,2.05s-.77,2.45-2.05,2.6c-1.28.15-2.45-.77-2.6-2.05Z"/>
                <path class="cls-4" d="M213.04,339.94c-1.75.3-1.83,1.87-3.65,2,.57.47,3.19.74,3.65-2Z"/>
            </g>
            <path class="cls-4" d="M227.44,345.84c-1.04-2.58-4.01-4.25-3.87-7.31.04-.77-1.16-.7-1.19.06-.12,2.62,1.8,4.5,3.23,6.46.6.82,1.34,2.05.57,3-.75.92-2.11.91-3.19.93-.77.02-.71,1.21.06,1.19,1.3-.03,2.68-.12,3.71-1.02.97-.85,1.14-2.14.67-3.31Z"/>
        </g>
        <path class="cls-8" d="M190.91,377.23c.29,3.01-10.13,10.06-8.92,15.73,5.35,25.21-23.56,119.24-23.56,119.24,0,0-44.16-14.4-69.47-23.52,0,0,34.75-87.76,54.91-99.8,10.86-6.49,41.76-11.64,47.04-11.64Z"/>
        <path class="cls-3" d="M406.95,408.18c-.99,3.05-30.38,62.73-44.37,87.19-25.23,37.9-71.88,10.7-47.73-33.58,14.68-26.01,25.88-53.71,40.56-79.72,14.64,6.97,36.9,19.14,51.54,26.11Z"/>
        <path class="cls-4" d="M225.29,353.64c-.08-.29-.44-.54-.74-.42-.81.31-1.68.61-2.56.51-.58-.07-1.19-.39-1.49-.93-.37-.68-1.41-.08-1.04.61.44.82,1.32,1.35,2.23,1.49,1.1.17,2.16-.13,3.18-.52.3-.12.51-.41.42-.74Z"/>
        <path class="cls-6" d="M153.45,494.68c-.09,0-.18-.01-.27-.04-18.45-5.06-36.86-11.11-54.71-17.98-.52-.2-.77-.78-.57-1.29.2-.52.78-.77,1.29-.57,17.79,6.84,36.13,12.87,54.52,17.92.53.15.85.7.7,1.23-.12.44-.52.74-.96.74Z"/>
        <path class="cls-6" d="M202.11,452.49c-.33,0-.65-.16-.84-.46l-20.26-31.33c-.15-.24-.2-.53-.12-.81.07-.27.26-.5.52-.63l9.96-4.99-20.12-11.77c-.26-.15-.43-.41-.48-.7-.05-.29.04-.59.23-.82l19.17-22.19c.36-.42.99-.46,1.41-.1.42.36.46.99.1,1.41l-18.39,21.28,20.67,12.09c.32.19.51.53.49.9-.01.37-.22.7-.55.86l-10.62,5.32,19.66,30.4c.3.46.17,1.08-.3,1.38-.17.11-.36.16-.54.16Z"/>
        <path class="cls-6" d="M259.32,447.98c-.08,0-.16,0-.24-.03-.54-.13-.86-.68-.73-1.21l7.91-31.84-11.68-7.46c-.31-.2-.48-.54-.46-.9.02-.36.24-.68.56-.84l8.21-3.96-22.86-17.78c-.44-.34-.51-.97-.17-1.4.34-.44.97-.51,1.4-.17l24.13,18.77c.27.21.42.55.38.89-.04.34-.25.64-.56.79l-8.05,3.88,10.77,6.88c.36.23.54.67.43,1.08l-8.08,32.54c-.11.46-.52.76-.97.76Z"/>
        <path class="cls-6" d="M284.36,461.65c-.37,0-.73-.21-.9-.57-.24-.5-.02-1.1.47-1.33l31.1-14.75c.5-.24,1.1-.02,1.33.47.24.5.02,1.1-.47,1.33l-31.1,14.75c-.14.07-.28.1-.43.1Z"/>
        <path class="cls-4" d="M170.71,523.37c0,2.18,1.77,3.95,3.95,3.95h188.92c1.72,0,3.24-1.11,3.77-2.75l30.46-95.26c.82-2.55-1.09-5.16-3.77-5.16h-126.76c-1.72,0-3.24,1.11-3.76,2.74l-28.86,89.77c-.53,1.64-2.05,2.74-3.76,2.74h-56.23c-2.18,0-3.95,1.77-3.95,3.95h0Z"/>
        <path class="cls-6" d="M230.58,338.71c0-.35.29-.64.64-.64s.64.29.64.64-.29.64-.64.64-.64-.29-.64-.64Z"/>
        <circle class="cls-6" cx="212.63" cy="341.65" r=".64"/>
        <path class="cls-11" d="M348.11,596.12l-117.82,55.05c-60.39,24.92-129.76-71.13-59.26-99.66,0,0,105-34.02,138.65-39.17,56.32-8.62,90.81,62.17,38.43,83.78Z"/>
        <path class="cls-6" d="M183.45,617.95c-.32,0-.63-.15-.82-.43-.32-.45-.21-1.08.25-1.39,17.32-12.1,16.9-39.74,15.91-51.06-.05-.55.36-1.04.91-1.08.56-.05,1.04.36,1.08.91,1.02,11.67,1.42,40.17-16.76,52.87-.17.12-.37.18-.57.18Z"/>
        <path class="cls-4" d="M237.57,321.51c-.28,3.95-1.21,9.13-1.21,9.13,0,0-4.01-5.36-4.71-6.53-6.39,1-11.62,3.19-18.4,2.24-1.04-1.22-1.22-3.5-2.09-4.84-1.03.64-1.63,4.1-1.84,5.29-1.74.6-4.8,2.15-6.07,3.32-3.32,3.05-2.98,19.15-2.98,19.15,0,0-5.41-.88-4.01.43-8.35-7.76-12.24-7.18-17.96-17.31-5.39-9.56-7.86-17.62-3.5-29.53,6.33-17.3,35.76-16.36,37.09-12.55,19.77-18.99,40.8,7.48,25.68,31.21Z"/>
        <path class="cls-4" d="M187.47,283.58s-4.29,4.66-4.86,8.66c-4.36-1.39-10.64,2.12-11.82,4.39,0,0,4.33-.13,8.15,1.36l9.58-5.48c-1.87-2.66-1.05-8.93-1.05-8.93Z"/>
        <path class="cls-3" d="M197.57,339.24s-4.17-2.78-5.32-.01c-1.15,2.76,1.97,13.04,9.33,11.85,0,0-3.2-11.86-4.01-11.84Z"/>
        <polygon class="cls-3" points="483.2 634.6 440.4 686.06 490.61 725.89 533.41 674.43 483.2 634.6"/>
        <g>
            <path class="cls-4" d="M511.52,656.79c1.84-3.18,29.53-49.37,76.93-49.4,16.92-.01,30.46,5.86,38.86,10.62-7.63,12.36-93.18,150.87-93.18,150.88h0s-56.17-53.03-56.17-53.03c0,0,46.09-19.46,33.56-59.06Z"/>
            <rect class="cls-8" x="494.43" y="688.12" width="190.88" height="20.88" rx="9.72" ry="9.72" transform="translate(-314.37 833.76) rotate(-58.33)"/>
            <path class="cls-6" d="M573.29,642.1c-.15.24-.34.47-.58.65-1.11.89-2.74.72-3.63-.39-15.29-18.99-12.02-28.98-11.59-30.06.53-1.33,2.02-1.98,3.35-1.46,1.31.52,1.96,1.98,1.48,3.29-.08.27-2.43,8.57,10.79,24.99.71.88.75,2.07.19,2.97Z"/>
            <path class="cls-6" d="M553.35,654.22c-.15.24-.34.47-.58.65-1.11.89-2.74.72-3.63-.39-15.29-18.99-12.02-28.98-11.59-30.06.53-1.33,2.02-1.98,3.35-1.46,1.31.52,1.96,1.98,1.48,3.29-.08.27-2.43,8.57,10.79,24.99.71.88.75,2.07.19,2.97Z"/>
        </g>
        <path class="cls-11" d="M434.82,717.57l-117.44-105.18c-68.32-60.9-11.93-139.51,56.39-78.61l120.85,107.15-59.8,76.64Z"/>
        <path class="cls-3" d="M164.89,517.26s-55.06,10.08-69.25,16.03c-23.77,10.77-18.49,63.47,30.04,51.49,20.34-5.02,50.27-16.86,50.27-16.86l-11.05-50.67Z"/>
        <g>
            <path class="cls-3" d="M247.77,554.44c-1.8.6-3.81.6-5.72-.12l-35.18-11.94c-4.41-1.68-6.62-6.61-4.95-11.02,1.68-4.41,6.61-6.62,11.02-4.95l35.18,11.94c4.41,1.68,6.62,6.61,4.95,11.02-.95,2.5-2.94,4.29-5.29,5.07Z"/>
            <path class="cls-3" d="M209.37,488.32c-17.07-3.82-40.16,24.07-45.93,29.21l2.65,49.94c36.93,19.45,41.38-15.98,66.41-21.87,13.96-3.28-23.12-57.27-23.12-57.27Z"/>
            <path class="cls-3" d="M254.56,540.11c-1.64.39-3.42.3-5.11-.37l-38.81-12.38c-4.39-1.73-6.54-6.69-4.81-11.08,1.73-4.39,6.69-6.54,11.08-4.81l38.81,12.38c4.39,1.73,6.54,6.69,4.81,11.08-1.07,2.7-3.35,4.55-5.97,5.17Z"/>
            <path class="cls-3" d="M261.49,526.58c-1.62.38-3.36.3-5.03-.34l-44.36-13.88c-4.4-1.69-6.61-6.63-4.92-11.03,1.69-4.4,6.63-6.61,11.03-4.92l44.36,13.88c4.4,1.69,6.61,6.63,4.92,11.03-1.05,2.74-3.35,4.62-6.01,5.25Z"/>
            <path class="cls-3" d="M261.7,509.92c-1.64.59-3.11.73-19.89-2.4-28.44-5.31-35.55-2.16-36.46-1.65-6.3,8.79-20.18-1.05-13.9-9.92,6.2-9.1,21.69-9.13,51.07-5.66,12.78,1.51,17.79,2.24,18.51,2.45,8.46,1.6,8.15,14.61.66,17.18Z"/>
            <path class="cls-4" d="M257.29,526.88c-.15.03-.3.02-.45-.04-16.7-7.42-21.83-7.14-39.46-11.71-.38-.1-.61-.49-.51-.87.1-.38.49-.61.87-.51,17.73,4.6,22.93,4.34,39.68,11.79.36.16.52.58.36.94-.09.21-.28.35-.49.4Z"/>
            <path class="cls-4" d="M245.86,539.28c-.15.03-.3.02-.45-.04-16.7-7.42-16.1-7.16-33.73-11.73-.38-.1-.61-.49-.51-.87.1-.38.49-.61.87-.51,17.73,4.6,17.2,4.36,33.95,11.81.36.16.52.58.36.94-.09.21-.28.35-.49.4Z"/>
            <path class="cls-4" d="M262.41,510.46c-.14.03-.29.03-.43-.03-.56-.22-33.66-11.16-43.53-8.25-.38.1-.77-.11-.88-.49-.11-.38.11-.77.49-.88,10.4-2.95,42.13,7.37,44.45,8.29.37.15.54.56.4.92-.09.22-.28.38-.5.43Z"/>
        </g>
        <g>
            <path class="cls-3" d="M430.6,394.97c9.84-8.11,2.18-15.68,2.18-15.68,13.34-8.7,1.29-19.84,1.29-19.84,0,0,5.76-.65,6.13-7.18.74-12.8-22.29-10.41-24.28-12.97-1.81-4.06,16.94-17.05,4.52-22.47-23.81-10.4-64.02,48.36-72.22,84.16l33.93,20.51s30.9-3.05,43.11-8.57c12.2-5.52,5.35-17.95,5.35-17.95Z"/>
            <g>
                <rect class="cls-4" x="430.05" y="287.42" width="11.39" height="11.34" transform="translate(777.61 691.72) rotate(-164.54)"/>
                <path class="cls-4" d="M396.08,394.32c-1.88,6.05,1.63,12.45,7.76,14.14,6.13,1.69,12.43-1.99,13.92-8.15l20.21-83.38,1.13-4.64.84-3.48,1.13-4.64,1.41-5.81-15.21-4.21-1.78,5.7-1.42,4.56-1.07,3.42-1.42,4.56-25.5,81.91Z"/>
                <path class="cls-3" d="M440.25,305.01c8.79,13.36-26.93,35.98-26.93,35.98l-10.63-20.99s31.05-24.89,37.56-15Z"/>
                <circle class="cls-6" cx="456" cy="198.92" r="92.66" transform="translate(-7.1 380.71) rotate(-45)"/>
                <g>
                    <g>
                        <g>
                            <rect class="cls-4" x="419.21" y="200.88" width="13.96" height="3.19" rx="1.01" ry="1.01" transform="translate(-35.26 300.97) rotate(-37.46)"/>
                            <rect class="cls-4" x="414.66" y="198.46" width="1.81" height="13.53" rx=".57" ry=".57" transform="translate(139.59 577.59) rotate(-79.74)"/>
                            <path class="cls-4" d="M398.63,207.85l11.24-3.41-.3-.99-11.24,3.41c-.17.05-.27.24-.22.41l.11.36c.05.17.24.27.41.22Z"/>
                        </g>
                        <g>
                            <path class="cls-4" d="M428.65,177.71h.97c.47,0,.85.38.85.85v9.97c0,.47-.38.85-.85.85h-.97c-.47,0-.85-.38-.85-.85v-9.97c0-.47.38-.85.85-.85Z" transform="translate(212.06 596.72) rotate(-85.44)"/>
                            <rect class="cls-4" x="420.25" y="173.66" width="1.51" height="11.3" rx=".48" ry=".48" transform="translate(-21.7 295.11) rotate(-37.73)"/>
                            <path class="cls-4" d="M409.03,171.46l8.87,4.17.37-.79-8.87-4.17c-.14-.06-.3,0-.37.13l-.13.29c-.06.14,0,.3.13.37Z"/>
                        </g>
                        <g>
                            <rect class="cls-4" x="445.47" y="231.07" width="16.5" height="3.77" rx="1.2" ry="1.2" transform="translate(28.11 513.99) rotate(-60.61)"/>
                            <rect class="cls-4" x="451.2" y="237.85" width="2.14" height="15.99" rx=".68" ry=".68" transform="translate(-54.37 154.71) rotate(-18.33)"/>
                            <path class="cls-4" d="M452.01,266.09l2.12-13.71,1.21.19-2.12,13.71c-.03.21-.23.36-.45.33l-.44-.07c-.21-.03-.36-.23-.33-.45Z"/>
                        </g>
                        <g>
                            <rect class="cls-4" x="422.6" y="216.62" width="15.72" height="3.59" rx="1.14" ry="1.14" transform="translate(-12.48 410.26) rotate(-50.32)"/>
                            <rect class="cls-4" x="425.88" y="222.63" width="2.04" height="15.23" rx=".65" ry=".65" transform="translate(-27.99 61.92) rotate(-8.03)"/>
                            <path class="cls-4" d="M423.22,249.19l4.32-12.49,1.11.38-4.32,12.49c-.07.19-.28.3-.47.23l-.4-.14c-.19-.07-.3-.28-.23-.47Z"/>
                        </g>
                    </g>
                    <g>
                        <g>
                            <rect class="cls-4" x="473.4" y="175.84" width="13.96" height="3.19" rx="1.01" ry="1.01" transform="translate(-26.57 104.97) rotate(-12.14)"/>
                            <path class="cls-4" d="M483.18,170.23h12.38c.32,0,.57.26.57.57v.66c0,.32-.26.57-.57.57h-12.38c-.32,0-.57-.26-.57-.57v-.66c0-.32.26-.57.57-.57Z" transform="translate(95.65 508.4) rotate(-59.86)"/>
                            <path class="cls-4" d="M502.34,159.93l-9.88,6.35-.56-.87,9.88-6.35c.15-.1.36-.05.46.1l.2.32c.1.15.05.36-.1.46Z"/>
                        </g>
                        <g>
                            <path class="cls-4" d="M459.07,166.07h9.97c.47,0,.85.38.85.85v.97c0,.47-.38.85-.85.85h-9.97c-.47,0-.85-.38-.85-.85v-.97c0-.47.38-.85.85-.85Z" transform="translate(56.63 445.56) rotate(-54.16)"/>
                            <rect class="cls-4" x="465.35" y="152.82" width="1.51" height="11.3" rx=".48" ry=".48" transform="translate(-22.63 99.27) rotate(-11.87)"/>
                            <path class="cls-4" d="M467.89,144.27l-2.58,9.46-.84-.23,2.58-9.46c.04-.15.19-.23.34-.19l.31.08c.15.04.23.19.19.34Z"/>
                        </g>
                        <g>
                            <rect class="cls-4" x="483.87" y="209.9" width="3.77" height="16.5" rx="1.2" ry="1.2" transform="translate(178.8 653.27) rotate(-78.98)"/>
                            <rect class="cls-4" x="495.44" y="217.41" width="2.14" height="15.99" rx=".68" ry=".68" transform="translate(-44.87 290.46) rotate(-31.27)"/>
                            <path class="cls-4" d="M512.1,238.33l-11.82-7.27-.64,1.05,11.82,7.27c.18.11.42.06.54-.13l.23-.38c.11-.18.06-.42-.13-.54Z"/>
                        </g>
                        <g>
                            <rect class="cls-4" x="487.96" y="183.16" width="3.59" height="15.72" rx="1.14" ry="1.14" transform="translate(292.57 678.33) rotate(-89.28)"/>
                            <rect class="cls-4" x="500.06" y="188.36" width="2.04" height="15.23" rx=".65" ry=".65" transform="translate(-3.88 381.73) rotate(-41.56)"/>
                            <path class="cls-4" d="M517.89,205.45l-12.31-4.81-.43,1.09,12.31,4.81c.19.07.41-.02.48-.21l.16-.4c.07-.19-.02-.41-.21-.48Z"/>
                        </g>
                    </g>
                    <ellipse class="cls-4" cx="458.37" cy="200.68" rx="23.25" ry="35.7" transform="translate(-41.9 210.76) rotate(-24.8)"/>
                    <g>
                        <g>
                            <path class="cls-4" d="M442.47,167.91c-1.5-3.53-2.4-7.32-2.68-11.15-.14-1.92-.13-3.85.03-5.77.17-1.92.49-3.82.97-5.69.96-3.73,2.51-7.32,4.62-10.54l.81-1.2.86-1.16.91-1.12.96-1.08c1.3-1.42,2.73-2.72,4.26-3.88.08-.06.18-.04.24.03.05.07.04.18-.02.23-1.43,1.24-2.77,2.59-4.01,4.02l-.91,1.09-.86,1.13-.83,1.15-.78,1.18c-2.01,3.19-3.58,6.67-4.53,10.33-.48,1.83-.8,3.69-.98,5.57-.19,1.88-.22,3.78-.11,5.66.23,3.78,1.02,7.52,2.39,11.07.03.09,0,.19-.1.22-.09.03-.18,0-.22-.09Z"/>
                            <path class="cls-4" d="M440.38,168.92c-1.87-3.3-4.27-6.29-7.05-8.86-1.39-1.28-2.88-2.45-4.45-3.5-1.57-1.05-3.22-1.98-4.93-2.77-3.43-1.58-7.12-2.57-10.86-3.04l-1.41-.14-1.41-.09-1.42-.05h-1.42c-1.89.06-3.78.25-5.65.57-.09.02-.18-.05-.2-.14-.02-.09.04-.18.13-.2,1.86-.45,3.77-.73,5.69-.84l1.44-.05h1.44s1.44.08,1.44.08l1.44.13c3.83.41,7.59,1.48,11.09,3.1,1.75.81,3.43,1.77,5.02,2.86,1.59,1.09,3.09,2.31,4.48,3.63,2.79,2.65,5.15,5.75,6.93,9.14.04.08.01.19-.07.23-.08.04-.18.01-.23-.07Z"/>
                            <path class="cls-4" d="M446.52,161.89c.6,1.26.06,2.77-1.2,3.37-1.26.6-2.77.06-3.37-1.2-.6-1.26-.06-2.77,1.2-3.37,1.26-.6,2.77-.06,3.37,1.2Z"/>
                            <path class="cls-4" d="M433.53,168.04c.6,1.26,2.11,1.8,3.37,1.2,1.26-.6,1.8-2.11,1.2-3.37-.6-1.26-2.11-1.8-3.37-1.2-1.26.6-1.8,2.11-1.2,3.37Z"/>
                            <path class="cls-4" d="M449.97,164.82c1.16,2.46-1.4,6.11-5.72,8.16-4.33,2.05-8.78,1.72-9.94-.74-1.16-2.46,1.4-6.11,5.72-8.16,4.33-2.05,8.78-1.72,9.94.74Z"/>
                        </g>
                        <path class="cls-4" d="M432.12,191.6c3.08,6.67,13.46,8.43,23.17,3.94,9.72-4.49,15.1-13.54,12.02-20.2-3.08-6.67-15.69-13.27-25.41-8.78-9.72,4.49-12.87,18.37-9.78,25.04Z"/>
                    </g>
                    <path class="cls-11" d="M447.47,180.06l15.44-10c7.83,3.05,27.39,12.48,28,36.16.23,8.95-3.6,19.04-9.69,24.42l-33.75-50.59Z"/>
                    <path class="cls-11" d="M448.6,179.54l-17.62,5.28c-2.75,7.94-8.25,28.95,9.39,44.76,6.67,5.98,16.83,9.6,24.88,8.45l-16.65-58.49Z"/>
                    <path class="cls-4" d="M436.4,220.26c1,2.16,3.56,3.11,5.73,2.11s3.11-3.56,2.11-5.73c-1-2.16-3.56-3.11-5.73-2.11-2.16,1-3.11,3.56-2.11,5.73Z"/>
                    <path class="cls-4" d="M434.5,193.73c.48,1.04,1.71,1.49,2.75,1.01,1.04-.48,1.49-1.71,1.01-2.75-.48-1.04-1.71-1.49-2.75-1.01-1.04.48-1.49,1.71-1.01,2.75Z"/>
                    <path class="cls-4" d="M452.34,214.49c.36.78,1.28,1.12,2.06.76.78-.36,1.12-1.28.76-2.06-.36-.78-1.28-1.12-2.06-.76-.78.36-1.12,1.28-.76,2.06Z"/>
                    <path class="cls-4" d="M432.59,207.74c.36.78,1.28,1.12,2.06.76.78-.36,1.12-1.28.76-2.06-.36-.78-1.28-1.12-2.06-.76-.78.36-1.12,1.28-.76,2.06Z"/>
                    <path class="cls-4" d="M451.67,228.87c.48,1.04,1.71,1.49,2.75,1.01,1.04-.48,1.49-1.71,1.01-2.75-.48-1.04-1.71-1.49-2.75-1.01-1.04.48-1.49,1.71-1.01,2.75Z"/>
                    <path class="cls-4" d="M444.7,202.83c.83,1.8,2.97,2.59,4.77,1.76,1.8-.83,2.59-2.97,1.76-4.77-.83-1.8-2.97-2.59-4.77-1.76-1.8.83-2.59,2.97-1.76,4.77Z"/>
                    <path class="cls-4" d="M485.63,197.52c1,2.16.06,4.73-2.11,5.73-2.16,1-4.73.06-5.73-2.11-1-2.16-.06-4.73,2.11-5.73s4.73-.06,5.73,2.11Z"/>
                    <path class="cls-4" d="M466.65,178.88c.48,1.04.03,2.27-1.01,2.75-1.04.48-2.27.03-2.75-1.01-.48-1.04-.03-2.27,1.01-2.75,1.04-.48,2.27-.03,2.75,1.01Z"/>
                    <path class="cls-4" d="M470.9,205.92c.36.78.02,1.7-.76,2.06-.78.36-1.7.02-2.06-.76-.36-.78-.02-1.7.76-2.06.78-.36,1.7-.02,2.06.76Z"/>
                    <path class="cls-4" d="M478.56,186.5c.36.78.02,1.7-.76,2.06-.78.36-1.7.02-2.06-.76-.36-.78-.02-1.7.76-2.06.78-.36,1.7-.02,2.06.76Z"/>
                    <path class="cls-4" d="M482.28,214.73c.48,1.04.03,2.27-1.01,2.75-1.04.48-2.27.03-2.75-1.01-.48-1.04-.03-2.27,1.01-2.75,1.04-.48,2.27-.03,2.75,1.01Z"/>
                    <path class="cls-4" d="M466.97,192.54c.83,1.8.05,3.94-1.76,4.77-1.8.83-3.94.05-4.77-1.76-.83-1.8-.05-3.94,1.76-4.77,1.8-.83,3.94-.05,4.77,1.76Z"/>
                </g>
                <path class="cls-4" d="M456.06,292.59c-.83,0-1.65-.01-2.48-.03-25.01-.65-48.27-10.99-65.5-29.13-17.23-18.14-26.36-41.91-25.71-66.92.65-25.01,10.99-48.27,29.13-65.5,18.14-17.23,41.9-26.36,66.91-25.71,25.01.65,48.27,10.99,65.5,29.13,17.23,18.14,26.36,41.91,25.71,66.91-.65,25.01-10.99,48.27-29.13,65.5-17.54,16.66-40.34,25.74-64.43,25.74ZM453.63,290.56c24.49.64,47.73-8.3,65.49-25.16,17.75-16.86,27.88-39.62,28.51-64.1.63-24.48-8.3-47.73-25.16-65.49-16.86-17.75-39.62-27.88-64.1-28.51-24.47-.63-47.73,8.3-65.49,25.16-17.75,16.86-27.88,39.62-28.51,64.1-.63,24.48,8.3,47.73,25.16,65.49,16.86,17.75,39.62,27.88,64.1,28.51Z"/>
            </g>
            <g>
                <path class="cls-3" d="M410.87,349.1c1.73,1.29,6.06,2.32,9.96,3.03-3.7-.64-7.27-1.41-10.02-2.28-6.22-1.99-9.82,13.57-3.93,17.57,0,0-10.13,7.26-3.13,14.85-6.49,1.73-7.91,11.21-4.59,17.67,2.2,4.28,8.66,3.68,11.51,6.05,7.41,1.87,10.82,6.69,14.53,5.26,14.07-5.41,9.4-16.93,9.4-16.93,11.58-8.49,3.46-17.48,3.46-17.48,15.55-8.92,2.73-22.21,2.73-22.21,0,0,6.51-.36,7.35-7.68,1.65-14.33-24.37-13.14-26.44-16.14h-.55s-.03,0-.04,0c-16.37.63-15.81,14.14-10.23,18.29Z"/>
                <path class="cls-4" d="M438.06,377.83c-.07,0-.14,0-.21-.02-1.04-.22-25.54-5.52-31.53-9.57-4.14-2.81-4.29-10.37-1.85-15.4,1.6-3.29,4.08-4.77,6.64-3.95,2.46.78,5.79,1.54,9.89,2.25.12.03.19.04.25.05,0,0,.1.02.11.02,1.99.34,4.09.65,6.22.95.04,0,.13.02.21.03l.26.03s.12.01.13.02c6.81.91,12.62,1.38,12.68,1.39.55.04.96.53.92,1.08-.04.55-.53.96-1.08.92-.06,0-5.92-.48-12.78-1.4l-.29-.04s-.12-.02-.13-.02l-.15-.02c-2.2-.3-4.31-.62-6.32-.96-.2-.03-.31-.05-.42-.08-4.14-.71-7.56-1.49-10.11-2.31-2.12-.68-3.56,1.54-4.23,2.92-2.04,4.2-1.97,10.73,1.17,12.87,5.66,3.83,30.57,9.21,30.82,9.27.54.12.88.65.77,1.19-.1.47-.52.79-.98.79Z"/>
                <path class="cls-4" d="M428.21,354.24s-.09,0-.13,0l-.44-.05s-.1-.01-.1-.01c-.08,0-.17-.02-.25-.04-.67-.08-3.27-.41-6.26-.95-.19-.03-.3-.05-.41-.07-5.29-.96-8.78-2.05-10.34-3.21-3.27-2.43-4.76-7.42-3.46-11.61.93-2.99,4.01-8.07,14.21-8.48.03,0,.05,0,.08,0h0c.31-.01.63-.02.96-.02h.14s0,0,.01,0c.55,0,.99.44,1,.99,0,.55-.43,1.01-.99,1.01h-.14c-.29,0-.58,0-.86.02-.03,0-.06,0-.09,0-9,.35-11.64,4.58-12.42,7.07-1.06,3.42.12,7.46,2.74,9.42.74.55,2.96,1.65,9.54,2.85.11.02.18.03.25.04,0,0,.1.02.11.02,2.95.53,5.5.86,6.21.95l.2.03s.1.01.1.01l.47.06c.55.08.93.58.86,1.13-.07.5-.5.86-.99.86Z"/>
                <path class="cls-4" d="M434.6,395.31c-.06,0-.12,0-.18-.02-.99-.18-24.25-4.6-31.4-12.35-2.04-2.22-2.95-4.63-2.69-7.19.53-5.2,5.75-9,5.97-9.15.45-.32,1.07-.22,1.39.23.32.45.22,1.07-.23,1.39-.05.03-4.71,3.44-5.15,7.74-.2,1.96.53,3.85,2.17,5.62,6.7,7.27,30.06,11.7,30.29,11.74.54.1.9.62.8,1.17-.09.48-.51.82-.98.82Z"/>
                <path class="cls-4" d="M415.77,407.53c-.05,0-.11,0-.16-.01-1.53-.25-14.97-2.52-17.34-7.12-2.18-4.23-2.44-9.78-.65-13.8,1.23-2.76,3.26-4.59,5.87-5.29.54-.14,1.08.18,1.22.71.14.53-.18,1.08-.71,1.22-2.54.68-3.88,2.64-4.56,4.17-1.55,3.5-1.31,8.36.6,12.08,1.43,2.79,10.5,5.2,15.87,6.06.55.09.92.6.83,1.15-.08.49-.5.84-.99.84Z"/>
            </g>
        </g>
        <path class="cls-6" d="M441.36,665.99c-.24,0-.48-.09-.68-.26l-128.56-117.81-111.12,33.75c-.53.16-1.09-.14-1.25-.67-.16-.53.14-1.09.67-1.25l111.67-33.92c.34-.1.71-.02.97.22l128.98,118.19c.41.37.43,1.01.06,1.41-.2.21-.47.32-.74.32Z"/>
        <path class="cls-6" d="M420.11,691.07c-.23,0-.46-.08-.65-.24-.42-.36-.47-.99-.12-1.41l51.38-60.64c.36-.42.99-.47,1.41-.12.42.36.47.99.12,1.41l-51.38,60.64c-.2.23-.48.35-.76.35Z"/>
    </g>
    <path class="cls-4" d="M879.76,782.92H17.83c-.83,0-1.5-.67-1.5-1.5s.67-1.5,1.5-1.5h861.93c.83,0,1.5.67,1.5,1.5s-.67,1.5-1.5,1.5Z"/>
    <g>
        <path class="cls-11" d="M581.4,394.7c2.54,3.26,3.81,6.99,3.81,11.18,0,6.05-2.11,10.84-6.34,14.38-4.23,3.54-10.12,5.31-17.68,5.31h-33.7v-72.36h32.57c7.35,0,13.11,1.68,17.26,5.05,4.16,3.37,6.24,7.94,6.24,13.71,0,4.26-1.12,7.8-3.35,10.62-2.23,2.82-5.2,4.78-8.92,5.88,4.19.89,7.56,2.97,10.1,6.24ZM545.12,382.49h11.54c2.89,0,5.1-.63,6.65-1.91,1.55-1.27,2.32-3.14,2.32-5.62s-.77-4.36-2.32-5.67c-1.55-1.3-3.76-1.96-6.65-1.96h-11.54v15.15ZM564.96,409.34c1.61-1.34,2.42-3.28,2.42-5.82s-.84-4.54-2.53-5.98c-1.68-1.44-4-2.16-6.96-2.16h-12.78v15.98h12.99c2.95,0,5.24-.67,6.85-2.01Z"/>
        <path class="cls-11" d="M612.73,353.22v43.29c0,4.33,1.06,7.66,3.2,10,2.13,2.34,5.26,3.5,9.38,3.5s7.28-1.17,9.48-3.5c2.2-2.34,3.3-5.67,3.3-10v-43.29h17.63v43.19c0,6.46-1.38,11.92-4.12,16.39-2.75,4.47-6.44,7.83-11.08,10.1-4.64,2.27-9.81,3.4-15.51,3.4s-10.81-1.12-15.31-3.35c-4.5-2.23-8.06-5.6-10.67-10.1-2.61-4.5-3.92-9.98-3.92-16.44v-43.19h17.63Z"/>
        <path class="cls-11" d="M716.11,376.1c-1.31-2.4-3.18-4.24-5.62-5.51-2.44-1.27-5.31-1.91-8.61-1.91-5.7,0-10.27,1.87-13.71,5.62-3.44,3.75-5.15,8.74-5.15,15,0,6.67,1.8,11.87,5.41,15.62,3.61,3.75,8.57,5.62,14.89,5.62,4.33,0,7.99-1.1,10.98-3.3,2.99-2.2,5.17-5.36,6.55-9.48h-22.37v-12.99h38.34v16.39c-1.31,4.4-3.52,8.49-6.65,12.27-3.13,3.78-7.1,6.84-11.91,9.17-4.81,2.34-10.24,3.5-16.29,3.5-7.15,0-13.52-1.56-19.12-4.69-5.6-3.13-9.96-7.47-13.09-13.04-3.13-5.57-4.69-11.92-4.69-19.07s1.56-13.52,4.69-19.12c3.13-5.6,7.47-9.96,13.04-13.09,5.57-3.13,11.92-4.69,19.07-4.69,8.66,0,15.96,2.1,21.9,6.29,5.94,4.19,9.88,10,11.8,17.42h-19.48Z"/>
        <path class="cls-11" d="M758.58,423.72c-4.19-1.72-7.54-4.26-10.05-7.63-2.51-3.37-3.83-7.42-3.97-12.16h18.76c.27,2.68,1.2,4.73,2.78,6.13,1.58,1.41,3.64,2.11,6.18,2.11s4.67-.6,6.18-1.8c1.51-1.2,2.27-2.87,2.27-5,0-1.79-.6-3.26-1.8-4.43-1.2-1.17-2.68-2.13-4.43-2.89-1.75-.76-4.24-1.61-7.47-2.58-4.67-1.44-8.49-2.89-11.44-4.33-2.96-1.44-5.5-3.57-7.63-6.39-2.13-2.82-3.2-6.49-3.2-11.03,0-6.73,2.44-12.01,7.32-15.82,4.88-3.81,11.23-5.72,19.07-5.72s14.39,1.91,19.27,5.72c4.88,3.81,7.49,9.12,7.83,15.92h-19.07c-.14-2.34-1-4.17-2.58-5.51-1.58-1.34-3.61-2.01-6.08-2.01-2.13,0-3.85.57-5.15,1.7-1.31,1.13-1.96,2.77-1.96,4.9,0,2.34,1.1,4.16,3.3,5.46,2.2,1.31,5.63,2.72,10.31,4.23,4.67,1.58,8.47,3.09,11.39,4.54,2.92,1.44,5.45,3.54,7.58,6.29,2.13,2.75,3.2,6.29,3.2,10.62s-1.05,7.87-3.14,11.24c-2.1,3.37-5.14,6.05-9.12,8.04-3.99,1.99-8.69,2.99-14.12,2.99s-10.03-.86-14.22-2.58Z"/>
    </g>
    <g>
        <path class="cls-11" d="M36.08,211.27c-3.05,31.85,20.3,60.15,52.16,63.2,11.07,1.06,21.71-1.08,31.01-5.65l28.28,9.25-4.52-30.76c4.56-7.34,7.54-15.81,8.42-25,3.05-31.85-20.3-60.15-52.16-63.2-31.85-3.05-60.15,20.3-63.2,52.16Z"/>
        <path class="cls-6" d="M132.68,187.65c-20.25,9.32-36.47,24.12-50.71,40.32-7.84-4.81-15.96-9.11-24.89-11.99l-.72.77c7.93,7.1,20.85,25.48,29.04,32.52,16.07-16.48,32.53-44.06,48.08-60.92l-.8-.7Z"/>
    </g>
    <g>
        <path class="cls-1" d="M720.49,584.66l-97.98,187.03c-1.76,3.36.68,7.39,4.47,7.39h195.96c3.79,0,6.23-4.03,4.47-7.39l-97.98-187.03c-1.89-3.61-7.05-3.61-8.94,0Z"/>
        <path class="cls-6" d="M806.23,763.42h-162.55c-.35,0-.67-.18-.86-.48-.18-.3-.19-.67-.03-.98l81.28-155.15c.34-.66,1.43-.66,1.77,0l81.28,155.15c.16.31.15.68-.03.98-.18.3-.51.48-.86.48ZM645.33,761.42h159.25l-79.62-151.99-79.62,151.99Z"/>
        <path class="cls-4" d="M740.31,662.85l-4.22,54.09h-19.02l-1.95-54.09h25.19ZM736.91,732.78c0,1.51-.29,2.91-.87,4.22-.58,1.3-1.36,2.44-2.34,3.42-.98.98-2.12,1.75-3.42,2.31-1.3.57-2.69.85-4.16.85s-2.91-.28-4.22-.85c-1.3-.57-2.44-1.34-3.42-2.31-.98-.98-1.75-2.12-2.31-3.42-.57-1.3-.85-2.71-.85-4.22s.28-2.88.85-4.22c.57-1.34,1.34-2.49,2.31-3.47.98-.98,2.12-1.76,3.42-2.34,1.3-.58,2.71-.87,4.22-.87s2.86.29,4.16.87c1.3.58,2.44,1.36,3.42,2.34.98.98,1.76,2.13,2.34,3.47.58,1.34.87,2.74.87,4.22Z"/>
    </g>
    <g>
        <path class="cls-11" d="M819.8,491.14h101.14c7.54,0,13.66,6.12,13.66,13.66v101.14c0,7.54-6.12,13.66-13.66,13.66h-101.14c-7.54,0-13.66-6.12-13.66-13.66v-101.14c0-7.54,6.12-13.66,13.66-13.66Z"/>
        <g>
            <polygon class="cls-6" points="845.41 573.97 839.07 573.97 820.77 555.66 837.58 538.86 843.91 538.86 827.1 555.66 845.41 573.97"/>
            <polygon class="cls-6" points="919.97 555.66 901.67 573.97 895.33 573.97 913.64 555.66 896.83 538.86 903.16 538.86 919.97 555.66"/>
            <polygon class="cls-6" points="884.35 538.86 861.71 573.97 856.38 573.97 879.02 538.86 884.35 538.86"/>
        </g>
    </g>
    <g>
        <rect class="cls-1" x="815.78" y="149.72" width="162.15" height="162.15" rx="14.36" ry="14.36"/>
        <polygon class="cls-1" points="818.17 282.79 800.2 331.54 832.96 309.89 818.17 282.79"/>
        <g>
            <path class="cls-6" d="M897.91,238.87c7.9,0,15.43-2.74,21.43-7.75l-21.78-22.91-27.19,16.19c2.81,4.09,6.53,7.53,10.85,10.01,5.05,2.91,10.82,4.45,16.7,4.45Z"/>
            <path class="cls-6" d="M893.26,196.29v-31.14c-16.79,1-30.28,14.42-31.29,31.14h31.29Z"/>
            <path class="cls-6" d="M882.85,204.81h-25.99c.28,4.65,1.54,9.17,3.68,13.28l22.31-13.28Z"/>
            <path class="cls-5" d="M925.6,221.57c5.82-6.17,9.01-14.16,9.01-22.7,0-17.64-13.89-32.11-31.35-33.15v32.35l22.35,23.5Z"/>
        </g>
        <rect class="cls-6" x="846.19" y="250.35" width="115.1" height="3.62"/>
        <rect class="cls-6" x="846.19" y="287.51" width="115.1" height="3.62"/>
        <rect class="cls-6" x="846.19" y="268.56" width="62.38" height="3.62"/>
        <rect class="cls-5" x="920.51" y="268.56" width="41.02" height="3.62"/>
    </g>
</svg>