<?xml version="1.0" encoding="UTF-8"?>
<svg id="Layer_1" data-name="Layer 1" xmlns="http://www.w3.org/2000/svg" xmlns:xlink="http://www.w3.org/1999/xlink" viewBox="0 0 2331.56 2462.05">
    <defs>
        <style>
            .cls-1, .cls-2, .cls-3, .cls-4, .cls-5, .cls-6, .cls-7, .cls-8 {
            fill-rule: evenodd;
            }

            .cls-1, .cls-9 {
            fill: #084066;
            }

            .cls-2 {
            fill: #002935;
            }

            .cls-3 {
            fill: #5da6d8;
            }

            .cls-4 {
            fill: #fff;
            }

            .cls-5 {
            fill: #00ff7f;
            }

            .cls-10 {
            clip-path: url(#clippath-1);
            }

            .cls-6 {
            fill: #05000d;
            opacity: .35;
            }

            .cls-7, .cls-11 {
            fill: #4682b4;
            }

            .cls-11, .cls-9 {
            clip-rule: evenodd;
            }

            .cls-8 {
            fill: url(#linear-gradient);
            }

            .cls-12 {
            clip-path: url(#clippath);
            }
        </style>
        <linearGradient id="linear-gradient" x1="1109.4" y1="1827.51" x2="1709.63" y2="1827.51" gradientUnits="userSpaceOnUse">
            <stop offset="0" stop-color="#4a738c"/>
            <stop offset="1" stop-color="#213140"/>
        </linearGradient>
        <clipPath id="clippath">
            <path class="cls-11" d="M1479.39,1833.7v-402.86l-353.74,202.99v402.86c0,18.67,9.97,35.94,26.16,45.28l185.32,107.01c23.86,13.76,53.23,13.76,77.08,0l285.53-163.63c13.18-7.62,13.18-26.64,0-34.26l-194.21-112.12c-16.16-9.35-26.14-26.61-26.14-45.28"/>
        </clipPath>
        <clipPath id="clippath-1">
            <path class="cls-9" d="M433.17,2247.46c-13.67-6.35-22.46-23.46-22.46-48.36v-999.33c0-42.94,26.15-92.91,58.36-111.5L1991.77,209.13c14.63-8.45,28.01-8.98,38.26-3.02l66.01,38.13-45.91,24.1v984.23c0,42.94-26.15,92.91-58.36,111.5l-1512.66,873.34,10.29,10.77,5.77,35.78-62-36.51Z"/>
        </clipPath>
    </defs>
    <g>
        <path class="cls-8" d="M1463.15,1457.35v-18.76l-353.74,202.99v402.86c0,18.67,9.97,35.94,26.16,45.28l185.32,107c.1.06.2.11.29.17l15.96,9.21c23.86,13.76,53.23,13.76,77.08,0l285.53-163.63c6.33-3.66,9.62-9.94,9.87-16.33h.01v-17.62h-9.37c-.17-.11-.34-.21-.52-.31l-16.1-9.29c-.05-.03-.1-.06-.15-.09l-178.18-102.86c-16.04-9.38-25.92-26.57-25.92-45.16v-402.86l-16.25,9.38Z"/>
        <path class="cls-1" d="M1463.15,1457.35v-18.76l-353.74,202.99v402.86c0,18.67,9.97,35.94,26.16,45.28l185.32,107c.1.06.2.11.29.17l15.96,9.21c23.86,13.76,53.23,13.76,77.08,0l285.53-163.63c6.33-3.66,9.62-9.94,9.87-16.33h.01v-17.62h-9.37c-.17-.11-.34-.21-.52-.31l-16.1-9.29c-.05-.03-.1-.06-.15-.09l-178.18-102.86c-16.04-9.38-25.92-26.57-25.92-45.16v-402.86l-16.25,9.38Z"/>
        <g>
            <path class="cls-7" d="M1479.39,1833.7v-402.86l-353.74,202.99v402.86c0,18.67,9.97,35.94,26.16,45.28l185.32,107.01c23.86,13.76,53.23,13.76,77.08,0l285.53-163.63c13.18-7.62,13.18-26.64,0-34.26l-194.21-112.12c-16.16-9.35-26.14-26.61-26.14-45.28"/>
            <g class="cls-12">
                <polygon class="cls-6" points="948.88 1563.02 1683.02 1140.39 1683.02 1712.44 948.88 2135.06 948.88 1563.02"/>
                <polygon class="cls-6" points="1775.34 1716.64 2331.56 2036.78 1592.84 2462.05 1036.62 2141.91 1775.34 1716.64"/>
            </g>
        </g>
    </g>
    <g>
        <path class="cls-1" d="M433.17,2247.46c-13.67-6.35-22.46-23.46-22.46-48.36v-999.33c0-42.94,26.15-92.91,58.36-111.5L1991.77,209.13c14.63-8.45,28.01-8.98,38.26-3.02l66.01,38.13-45.91,24.1v984.23c0,42.94-26.15,92.91-58.36,111.5l-1512.66,873.34,10.29,10.77,5.77,35.78-62-36.51Z"/>
        <g class="cls-10">
            <polygon class="cls-6" points="630.42 1324.19 0 960.22 0 1946.34 630.42 2310.31 630.42 1324.19"/>
            <polygon class="cls-6" points="1560.06 0 73.87 851.03 708.87 1217.65 2195.06 366.62 1560.06 0"/>
        </g>
    </g>
    <path class="cls-3" d="M2115.31,290.88c0-42.94-26.15-62.71-58.36-44.12l-1522.7,879.13c-32.21,18.59-58.36,68.56-58.36,111.5v999.33c0,42.94,26.15,62.71,58.36,44.12l1522.7-879.13c32.21-18.6,58.36-68.56,58.36-111.5V290.88Z"/>
    <path class="cls-2" d="M2096.04,309.2c0-34.27-20.87-50.04-46.57-35.2l-1507.74,870.49c-25.7,14.84-46.57,54.7-46.57,88.97v984.94c0,34.27,20.87,50.04,46.57,35.2l1507.74-870.49c25.7-14.84,46.57-54.7,46.57-88.97V309.2Z"/>
    <g>
        <polygon class="cls-5" points="915.87 1870.62 712.45 1988.07 712.45 1972.41 915.87 1854.96 915.87 1870.62"/>
        <polygon class="cls-4" points="1004.03 1819.72 942.99 1854.96 942.99 1839.3 1004.03 1804.06 1004.03 1819.72"/>
        <polygon class="cls-3" points="1071.84 1780.58 1037.92 1800.15 1037.92 1784.49 1071.84 1764.91 1071.84 1780.58"/>
        <polygon class="cls-4" points="1126.08 1749.26 1098.96 1764.91 1098.96 1749.26 1126.08 1733.6 1126.08 1749.26"/>
        <polygon class="cls-3" points="1336.3 1627.89 1146.43 1737.51 1146.43 1721.85 1336.3 1612.23 1336.3 1627.89"/>
        <polygon class="cls-4" points="1383.77 1600.49 1356.62 1616.15 1356.62 1600.49 1383.77 1584.83 1383.77 1600.49"/>
        <polygon class="cls-3" points="1532.94 1514.36 1404.09 1588.74 1404.09 1573.08 1532.94 1498.7 1532.94 1514.36"/>
        <polygon class="cls-3" points="793.81 1909.77 712.45 1956.75 712.45 1941.09 793.81 1894.11 793.81 1909.77"/>
        <polygon class="cls-4" points="868.4 1866.7 827.73 1890.19 827.73 1874.53 868.4 1851.04 868.4 1866.7"/>
        <polygon class="cls-4" points="929.44 1831.47 888.75 1854.96 888.75 1839.3 929.44 1815.81 929.44 1831.47"/>
        <polygon class="cls-5" points="1085.39 1741.42 963.33 1811.89 963.33 1796.23 1085.39 1725.77 1085.39 1741.42"/>
        <polygon class="cls-3" points="1187.1 1682.7 1112.51 1725.77 1112.51 1710.1 1187.1 1667.04 1187.1 1682.7"/>
        <polygon class="cls-5" points="1241.37 1651.38 1214.25 1667.04 1214.25 1651.38 1241.37 1635.72 1241.37 1651.38"/>
        <polygon class="cls-4" points="1288.83 1623.98 1261.71 1639.64 1261.71 1623.98 1288.83 1608.32 1288.83 1623.98"/>
        <polygon class="cls-5" points="1458.35 1526.1 1315.95 1608.32 1315.95 1592.66 1458.35 1510.45 1458.35 1526.1"/>
        <polygon class="cls-3" points="1505.82 1498.7 1478.67 1514.36 1478.67 1498.7 1505.82 1483.04 1505.82 1498.7"/>
        <polygon class="cls-4" points="1607.53 1439.98 1526.14 1486.96 1526.14 1471.29 1607.53 1424.32 1607.53 1439.98"/>
        <polygon class="cls-5" points="1675.34 1400.83 1634.65 1424.32 1634.65 1408.66 1675.34 1385.17 1675.34 1400.83"/>
        <polygon class="cls-3" points="1716.01 1377.34 1695.66 1389.08 1695.66 1373.42 1716.01 1361.68 1716.01 1377.34"/>
        <polygon class="cls-4" points="1851.64 1299.04 1729.58 1369.51 1729.58 1353.85 1851.64 1283.38 1851.64 1299.04"/>
        <polygon class="cls-5" points="942.99 1792.32 712.45 1925.43 712.45 1909.77 942.99 1776.66 942.99 1792.32"/>
        <polygon class="cls-4" points="1010.8 1755.13 973.51 1776.66 973.51 1759.04 1010.8 1737.51 1010.8 1755.13"/>
        <polygon class="cls-4" points="1058.27 1727.72 1031.15 1743.38 1031.15 1725.77 1058.27 1710.1 1058.27 1727.72"/>
        <polygon class="cls-4" points="1105.74 1700.32 1088.79 1710.1 1088.79 1692.49 1105.74 1682.7 1105.74 1700.32"/>
        <polygon class="cls-4" points="1275.26 1600.49 1126.08 1686.61 1126.08 1670.96 1275.26 1584.83 1275.26 1600.49"/>
        <polygon class="cls-3" points="800.61 1843.21 712.45 1894.11 712.45 1878.45 800.61 1827.55 800.61 1843.21"/>
        <polygon class="cls-4" points="861.63 1807.98 834.51 1823.64 834.51 1807.98 861.63 1792.32 861.63 1807.98"/>
        <polygon class="cls-4" points="902.32 1784.49 881.97 1796.23 881.97 1780.58 902.32 1768.83 902.32 1784.49"/>
        <polygon class="cls-5" points="1024.38 1714.02 929.44 1768.83 929.44 1753.17 1024.38 1698.36 1024.38 1714.02"/>
        <polygon class="cls-5" points="848.08 1737.51 712.45 1815.81 712.45 1800.15 848.08 1721.85 848.08 1737.51"/>
        <polygon class="cls-4" points="895.52 1710.1 875.2 1721.85 875.2 1706.19 895.52 1694.45 895.52 1710.1"/>
        <polygon class="cls-5" points="976.91 1663.13 915.87 1698.36 915.87 1682.7 976.91 1647.47 976.91 1663.13"/>
        <polygon class="cls-4" points="1180.32 1545.68 1004.03 1647.47 1004.03 1631.81 1180.32 1530.02 1180.32 1545.68"/>
        <polygon class="cls-3" points="1295.61 1483.04 1214.25 1530.02 1214.25 1510.45 1295.61 1463.47 1295.61 1483.04"/>
        <polygon class="cls-4" points="1526.14 1349.93 1356.62 1447.8 1356.62 1428.23 1526.14 1330.36 1526.14 1349.93"/>
        <polygon class="cls-3" points="1587.18 1310.78 1560.06 1326.44 1560.06 1310.78 1587.18 1295.12 1587.18 1310.78"/>
        <polygon class="cls-3" points="854.85 1702.28 712.45 1784.49 712.45 1768.83 854.85 1686.61 854.85 1702.28"/>
        <polygon class="cls-4" points="942.99 1651.38 885.38 1684.66 885.38 1669 942.99 1635.72 942.99 1651.38"/>
        <polygon class="cls-3" points="983.68 1627.89 963.33 1639.64 963.33 1623.98 983.68 1612.23 983.68 1627.89"/>
        <polygon class="cls-5" points="1065.04 1580.91 1024.38 1604.4 1024.38 1588.74 1065.04 1565.25 1065.04 1580.91"/>
        <polygon class="cls-5" points="1241.37 1479.12 1092.19 1565.25 1092.19 1549.59 1241.37 1463.47 1241.37 1479.12"/>
        <polygon class="cls-4" points="773.47 1639.64 712.45 1674.87 712.45 1659.21 773.47 1623.98 773.47 1639.64"/>
        <polygon class="cls-5" points="868.4 1584.83 793.81 1627.89 793.81 1612.23 868.4 1569.17 868.4 1584.83"/>
        <polygon class="cls-4" points="909.09 1561.34 895.52 1569.17 895.52 1553.51 909.09 1545.68 909.09 1561.34"/>
        <polygon class="cls-5" points="946.39 1539.81 929.44 1549.59 929.44 1533.93 946.39 1524.15 946.39 1539.81"/>
        <polygon class="cls-3" points="1092.19 1455.64 976.91 1522.19 976.91 1506.53 1092.19 1439.98 1092.19 1455.64"/>
        <polygon class="cls-4" points="827.73 1577 712.45 1643.55 712.45 1627.89 827.73 1561.34 827.73 1577"/>
        <polygon class="cls-4" points="963.33 1498.7 854.85 1561.34 854.85 1545.68 963.33 1483.04 963.33 1498.7"/>
        <polygon class="cls-4" points="1024.38 1463.47 990.45 1483.04 990.45 1467.38 1024.38 1447.8 1024.38 1463.47"/>
        <polygon class="cls-5" points="1119.31 1408.66 1058.27 1443.89 1058.27 1428.23 1119.31 1393 1119.31 1408.66"/>
        <polygon class="cls-5" points="1349.85 1275.55 1153.2 1389.08 1153.2 1373.42 1349.85 1259.89 1349.85 1275.55"/>
        <polygon class="cls-4" points="1417.66 1236.4 1383.77 1255.97 1383.77 1240.31 1417.66 1220.74 1417.66 1236.4"/>
        <polygon class="cls-3" points="1519.37 1177.67 1444.78 1220.74 1444.78 1205.08 1519.37 1162.02 1519.37 1177.67"/>
        <polygon class="cls-4" points="1580.41 1142.44 1546.49 1162.02 1546.49 1146.36 1580.41 1126.78 1580.41 1142.44"/>
        <polygon class="cls-5" points="1688.89 1079.8 1621.07 1118.95 1621.07 1103.29 1688.89 1064.14 1688.89 1079.8"/>
        <polygon class="cls-4" points="1892.33 962.35 1716.01 1064.14 1716.01 1048.48 1892.33 946.69 1892.33 962.35"/>
        <polygon class="cls-5" points="915.87 1494.78 712.45 1612.23 712.45 1596.57 915.87 1479.12 915.87 1494.78"/>
        <polygon class="cls-3" points="1007.43 1441.93 942.99 1479.12 942.99 1463.47 1007.43 1426.27 1007.43 1441.93"/>
        <polygon class="cls-5" points="1088.79 1394.95 1044.72 1420.4 1044.72 1404.74 1088.79 1379.3 1088.79 1394.95"/>
        <polygon class="cls-3" points="1126.08 1373.42 1109.14 1383.21 1109.14 1367.55 1126.08 1357.76 1126.08 1373.42"/>
        <polygon class="cls-4" points="1166.78 1349.93 1139.66 1365.59 1139.66 1349.93 1166.78 1334.27 1166.78 1349.93"/>
        <polygon class="cls-4" points="1275.26 1287.29 1200.67 1330.36 1200.67 1314.7 1275.26 1271.63 1275.26 1287.29"/>
        <polygon class="cls-4" points="787.04 1522.19 712.45 1565.25 712.45 1549.59 787.04 1506.53 787.04 1522.19"/>
        <polygon class="cls-3" points="841.28 1490.87 800.61 1514.36 800.61 1498.7 841.28 1475.21 841.28 1490.87"/>
        <polygon class="cls-5" points="929.44 1439.98 868.4 1475.21 868.4 1459.55 929.44 1424.32 929.44 1439.98"/>
        <polygon class="cls-4" points="1065.04 1361.68 949.79 1428.23 949.79 1412.57 1065.04 1346.02 1065.04 1361.68"/>
        <polygon class="cls-3" points="1146.43 1314.7 1085.39 1349.93 1085.39 1334.27 1146.43 1299.04 1146.43 1314.7"/>
        <polygon class="cls-4" points="1187.1 1291.21 1166.78 1302.95 1166.78 1287.29 1187.1 1275.55 1187.1 1291.21"/>
        <polygon class="cls-3" points="1251.54 1254.02 1214.25 1275.55 1214.25 1259.89 1251.54 1238.36 1251.54 1254.02"/>
        <polygon class="cls-5" points="1370.19 1185.5 1275.26 1240.31 1275.26 1224.66 1370.19 1169.85 1370.19 1185.5"/>
        <polygon class="cls-4" points="1478.67 1122.87 1404.09 1165.93 1404.09 1150.27 1478.67 1107.21 1478.67 1122.87"/>
        <polygon class="cls-5" points="831.11 1355.81 712.45 1424.32 712.45 1408.66 831.11 1340.14 831.11 1355.81"/>
        <polygon class="cls-4" points="946.39 1289.25 868.4 1334.27 868.4 1318.61 946.39 1273.59 946.39 1289.25"/>
        <polygon class="cls-5" points="1017.6 1248.15 970.14 1275.55 970.14 1259.89 1017.6 1232.48 1017.6 1248.15"/>
        <polygon class="cls-3" points="1097.28 1202.14 1037.92 1236.4 1037.92 1220.74 1097.28 1186.48 1097.28 1202.14"/>
        <polygon class="cls-4" points="1251.54 1113.08 1117.6 1190.4 1117.6 1174.74 1251.54 1097.42 1251.54 1113.08"/>
        <polygon class="cls-5" points="1343.07 1060.23 1282.03 1095.46 1282.03 1079.8 1343.07 1044.57 1343.07 1060.23"/>
        <polygon class="cls-5" points="885.38 1183.55 712.45 1283.38 712.45 1267.72 885.38 1167.89 885.38 1183.55"/>
        <polygon class="cls-3" points="949.79 1146.36 907.41 1170.82 907.41 1155.16 949.79 1130.7 949.79 1146.36"/>
        <polygon class="cls-5" points="1117.6 1049.46 997.26 1118.95 997.26 1103.29 1117.6 1033.8 1117.6 1049.46"/>
        <polygon class="cls-3" points="1200.67 1002.48 1166.78 1022.06 1166.78 1005.42 1200.67 985.84 1200.67 1002.48"/>
        <polygon class="cls-3" points="1363.42 907.55 1237.96 979.97 1237.96 964.31 1363.42 891.88 1363.42 907.55"/>
        <polygon class="cls-5" points="1573.61 787.16 1397.31 888.95 1397.31 872.31 1573.61 770.52 1573.61 787.16"/>
        <polygon class="cls-4" points="807.39 1197.25 712.45 1252.06 712.45 1236.4 807.39 1181.59 807.39 1197.25"/>
        <polygon class="cls-3" points="928.6 1127.27 831.11 1183.55 831.11 1167.89 928.6 1111.61 928.6 1127.27"/>
        <polygon class="cls-4" points="990.45 1091.55 963.33 1107.21 963.33 1091.55 990.45 1075.89 990.45 1091.55"/>
        <polygon class="cls-5" points="1085.39 1036.25 1024.38 1071.48 1024.38 1056.31 1085.39 1021.08 1085.39 1036.25"/>
        <polygon class="cls-4" points="1139.66 1005.42 1109.14 1023.03 1109.14 1007.38 1139.66 989.76 1139.66 1005.42"/>
        <polygon class="cls-4" points="1227.79 954.53 1173.55 985.84 1173.55 970.18 1227.79 938.86 1227.79 954.53"/>
        <polygon class="cls-5" points="1444.78 828.76 1260.84 934.95 1260.84 919.78 1444.78 813.59 1444.78 828.76"/>
        <polygon class="cls-4" points="1512.6 790.1 1471.9 813.59 1471.9 797.93 1512.6 774.44 1512.6 790.1"/>
        <polygon class="cls-5" points="1675.34 695.65 1545.64 770.52 1545.64 755.35 1675.34 680.48 1675.34 695.65"/>
        <polygon class="cls-3" points="1749.93 652.59 1695.66 683.9 1695.66 668.73 1749.93 637.42 1749.93 652.59"/>
        <polygon class="cls-5" points="1790.6 629.1 1770.28 640.84 1770.28 625.67 1790.6 613.93 1790.6 629.1"/>
        <polygon class="cls-4" points="1865.18 586.52 1810.94 617.84 1810.94 602.18 1865.18 570.86 1865.18 586.52"/>
        <polygon class="cls-5" points="766.69 1189.42 712.45 1220.74 712.45 1205.08 766.69 1173.76 766.69 1189.42"/>
        <polygon class="cls-4" points="892.15 1116.99 787.04 1177.67 787.04 1162.02 892.15 1101.33 892.15 1116.99"/>
        <polygon class="cls-3" points="1065.04 1017.16 914.18 1104.27 914.18 1088.61 1065.04 1001.5 1065.04 1017.16"/>
        <polygon class="cls-5" points="1214.25 931.04 1115.91 987.8 1115.91 972.14 1214.25 915.37 1214.25 931.04"/>
        <polygon class="cls-4" points="1282.03 891.4 1248.14 910.97 1248.14 895.8 1282.03 876.23 1282.03 891.4"/>
        <polygon class="cls-4" points="1458.35 790.1 1309.18 876.23 1309.18 860.57 1458.35 774.44 1458.35 790.1"/>
        <polygon class="cls-3" points="1526.14 750.95 1485.47 774.44 1485.47 758.78 1526.14 735.29 1526.14 750.95"/>
    </g>
</svg>