<?xml version="1.0" encoding="UTF-8"?>
<svg id="Layer_1" data-name="Layer 1" xmlns="http://www.w3.org/2000/svg" viewBox="0 0 466.39 466.39">
    <defs>
        <style>
            .cls-1 {
            fill: #030509;
            }

            .cls-2 {
            fill: #090612;
            }

            .cls-2, .cls-3, .cls-4, .cls-5, .cls-6, .cls-7, .cls-8, .cls-9, .cls-10, .cls-11, .cls-12, .cls-13, .cls-14, .cls-15, .cls-16, .cls-17, .cls-18, .cls-19, .cls-20, .cls-21, .cls-22, .cls-23, .cls-24, .cls-25, .cls-26, .cls-27, .cls-28, .cls-29, .cls-30, .cls-31, .cls-32, .cls-33 {
            fill-rule: evenodd;
            }

            .cls-34 {
            fill: #5274e1;
            }

            .cls-35, .cls-36, .cls-31 {
            fill: #517cd8;
            }

            .cls-37 {
            fill: #aadd87;
            }

            .cls-38, .cls-3 {
            fill: #010101;
            }

            .cls-39 {
            fill: #010102;
            }

            .cls-40, .cls-27 {
            fill: #8758c8;
            }

            .cls-41 {
            fill: #080a06;
            }

            .cls-42 {
            fill: #030404;
            }

            .cls-43 {
            fill: #f1d571;
            }

            .cls-44 {
            fill: #b0e58c;
            }

            .cls-45, .cls-36, .cls-31 {
            opacity: .6;
            }

            .cls-4 {
            fill: #030408;
            }

            .cls-46 {
            fill: #ff7d7d;
            }

            .cls-47 {
            fill: #a8dc87;
            }

            .cls-48 {
            fill: #040408;
            }

            .cls-49 {
            fill: #a9e5ff;
            }

            .cls-50 {
            fill: #020202;
            }

            .cls-51 {
            fill: #040503;
            }

            .cls-52 {
            fill: #3c54a1;
            }

            .cls-53 {
            fill: #87c5f5;
            }

            .cls-54 {
            fill: #4a66be;
            }

            .cls-5 {
            fill: #4c6dd4;
            }

            .cls-55 {
            fill: #020201;
            }

            .cls-56 {
            fill: #04050b;
            }

            .cls-6 {
            fill: #5073df;
            }

            .cls-7 {
            fill: #4e4e4e;
            }

            .cls-57 {
            fill: #020302;
            }

            .cls-8 {
            fill: #080611;
            }

            .cls-58 {
            fill: #8bd6fe;
            }

            .cls-59 {
            fill: #aade88;
            }

            .cls-60 {
            fill: #010201;
            }

            .cls-61 {
            fill: #020205;
            }

            .cls-9 {
            fill: #010204;
            }

            .cls-62 {
            fill: #030101;
            }

            .cls-10 {
            fill: #5174e1;
            }

            .cls-11 {
            fill: #020407;
            }

            .cls-63 {
            fill: #3d55a2;
            }

            .cls-64 {
            fill: #a8c66b;
            }

            .cls-65 {
            fill: #070a06;
            }

            .cls-66 {
            fill: #070906;
            }

            .cls-67 {
            fill: #abde88;
            }

            .cls-12 {
            fill: #0d0908;
            }

            .cls-13 {
            fill: #07050e;
            }

            .cls-68 {
            fill: #a7db86;
            }

            .cls-69 {
            fill: #030402;
            }

            .cls-14 {
            fill: #fdaf9e;
            }

            .cls-70 {
            fill: #a67dff;
            }

            .cls-71 {
            fill: #0a0d08;
            }

            .cls-15 {
            fill: #4d6ed5;
            }

            .cls-16 {
            fill: #06040c;
            }

            .cls-72 {
            fill: #a6d98b;
            }

            .cls-17 {
            fill: #4f71dc;
            }

            .cls-73 {
            fill: #010000;
            }

            .cls-18 {
            fill: #4c6dd3;
            }

            .cls-74, .cls-29 {
            fill: #010100;
            }

            .cls-75 {
            fill: #afe48c;
            }

            .cls-19 {
            fill: #4e70da;
            }

            .cls-76 {
            fill: #060704;
            }

            .cls-77 {
            fill: #030301;
            }

            .cls-20 {
            fill: #e77c7c;
            }

            .cls-78 {
            fill: #aade87;
            }

            .cls-79 {
            fill: #040202;
            }

            .cls-80 {
            fill: #060911;
            }

            .cls-81 {
            fill: #9fd08c;
            }

            .cls-21 {
            fill: #4f72dd;
            }

            .cls-23 {
            fill: #06040b;
            }

            .cls-24, .cls-82 {
            fill: #020101;
            }

            .cls-83 {
            fill: #4a66bf;
            }

            .cls-25 {
            fill: #080504;
            }

            .cls-26 {
            fill: #4562bf;
            }

            .cls-84 {
            fill: #070805;
            }

            .cls-85 {
            fill: #a8dc86;
            }

            .cls-28 {
            fill: #99513d;
            }

            .cls-86 {
            fill: #020102;
            }

            .cls-36, .cls-31 {
            isolation: isolate;
            }

            .cls-30 {
            fill: #7754ec;
            }

            .cls-87 {
            fill: #010203;
            }

            .cls-88 {
            fill: #010103;
            }

            .cls-89 {
            fill: #010001;
            }

            .cls-32 {
            fill: #4f71db;
            }

            .cls-90 {
            fill: #4965bd;
            }

            .cls-91 {
            fill: #070905;
            }

            .cls-92 {
            fill: #020203;
            }

            .cls-33 {
            fill: #5073de;
            }

            .cls-93 {
            fill: #a5d884;
            }

            .cls-94 {
            fill: #8856d0;
            }

            .cls-95 {
            fill: #040509;
            }
        </style>
    </defs>
    <g id="BACKGROUND">
        <rect class="cls-53" width="466.39" height="466.39"/>
    </g>
    <g id="OBJECTS">
        <g>
            <path class="cls-74" d="M444.17,57.3c-.07-1.3-.23-1.41-1.52-1.44-2.27-.07-4.53-.12-6.8-.17-10.25-.27-20.5-.67-30.76-.66-12.43,0-24.84.54-37.27.83-1.9.04-1.96.11-2.01,2.02,0,.1,0,.2,0,.3.08,11.78.14,23.57.24,35.35.03,3.84.21,7.69.08,11.53-.08,2.36-.14,4.73-.14,7.1,0,1.28.16,2.55.23,3.83.03.57.17,1.13.76,1.32.53.17.93-.24,1.29-.57.87-.8,1.64-1.71,2.38-2.63,1.39-1.73,2.83-3.42,4.14-5.21.87-1.18,1.86-1.63,3.35-1.61,9.02.12,18.05.16,27.07.16,11.34,0,22.68-.05,34.02-.09.98,0,1.97-.09,2.95-.12.85-.03,1.24-.5,1.32-1.29.07-.73.18-1.47.21-2.21.1-3.35.21-6.7.24-10.05.11-10.5.2-21,.28-31.51.01-1.63.02-3.25-.07-4.88ZM442.62,58.17c-.03.24,0,.49,0,.74,0,14.59-.01,29.19-.02,43.78,0,.69-.08,1.38-.06,2.07.02.75-.23,1.02-1.03,1.02-6.95.02-13.9.07-20.85.14-14.64.13-29.29,0-43.93-.07-.76,0-1.28.18-1.79.75-2,2.25-4.06,4.44-5.91,6.81-.29.37-.51.85-1.2,1.12.02-2.14-.09-4.1-.13-6.06-.33-16.32-.24-32.63-.28-48.95,0-2.12-.01-2.08,2.03-2.12,7.1-.12,14.2-.29,21.29-.4,5.32-.08,10.64-.57,15.96-.37,10.74.41,21.49.43,32.23.75.94.03,1.87.04,2.81,0,.61-.03.95.11.88.8Z"/>
            <path class="cls-44" d="M441.73,57.37c-.93.04-1.87.03-2.81,0-10.74-.32-21.49-.34-32.23-.75-5.32-.2-10.64.29-15.96.37-7.1.11-14.2.28-21.29.4-2.05.04-2.04,0-2.03,2.12.04,16.32-.05,32.64.28,48.95.04,1.96.15,3.92.13,6.06.7-.28.91-.75,1.2-1.12,1.85-2.37,3.92-4.56,5.91-6.81.51-.57,1.04-.75,1.79-.75,14.64.06,29.29.2,43.93.07,6.95-.06,13.9-.12,20.85-.14.8,0,1.05-.27,1.03-1.02-.02-.69.06-1.38.06-2.07.01-14.59.02-29.19.02-43.78,0-.25-.02-.49,0-.74.07-.69-.28-.82-.88-.8ZM402.81,74.29c.07-.43.29-.77.77-.72.39.04.55.34.62.71.19.93.17,1.86.24,2.8,0,.74.02,1.48,0,2.22-.02.49-.28.87-.8.9-.6.04-.94-.35-.97-.9-.08-1.67-.13-3.35.15-5.01ZM389.38,65.2c0-.19.03-.39.09-.58.12-.4.35-.71.83-.67.45.04.74.31.76.75.03.93.01,1.86.01,2.79h0c0,.78,0,1.57,0,2.35,0,.41-.11.78-.43,1.05-.37.31-.76.29-.97-.15-.17-.34-.27-.75-.28-1.13-.03-1.47-.02-2.94-.02-4.4ZM388.43,74.91c.18-1.18,1-2.05,2.04-2.22,1.37-.22,2.52.3,3.09,1.46.33.67.5,1.38.45,2.21,0,.56-.06,1.2-.29,1.8-.37.98-1.06,1.64-2.14,1.78-1.05.14-1.79-.41-2.32-1.24-.73-1.16-1.04-2.43-.83-3.79ZM381.26,98.93c-.57,1.31-1.29,1.74-2.77,1.66-1.11-.06-2.1-.84-2.42-2.01-.44-1.64.11-3.16.96-4.46.86-1.31,3.2-.98,4.02.41.39.66.6,1.56.58,2.61.05.59-.11,1.2-.37,1.79ZM376.33,83.37c.36-.97,1.37-1.5,2.5-1.46,1.1.04,1.81.55,2.12,1.7.27.99.4,2.02.58,2.95.03,1.33-1.05,2.75-2.27,3.05-1.05.26-2.09-.29-2.74-1.52-.81-1.53-.78-3.13-.19-4.71ZM380.45,79.59c-1.05.87-2.2.81-3.17-.15-.94-.93-1.16-2.13-1.23-3.38-.02-.7.15-1.38.37-2.02.36-1.04,1.37-1.64,2.57-1.6,1.11.03,1.77.5,2.1,1.71.27.94.42,1.92.55,2.89.15,1.08-.4,1.9-1.19,2.56ZM381.24,70.28c-1.01,1.79-3.07,2-4.4.42-.64-.75-.94-1.65-.74-2.61.18-.86.45-1.71.78-2.53.32-.81,1.03-1.23,1.86-1.21.93.02,1.88.16,2.42,1.11.45.79.63,1.65.63,2.55-.03.79-.15,1.57-.55,2.27ZM385.71,99.01c-.02.56-.15,1.15-.84,1.17-.62.02-.77-.56-.82-1.04-.2-1.71-.11-3.42-.05-5.13.02-.44.28-.74.73-.78.55-.05.84.3.86.79.04.93.01,1.86.01,2.79h.11c0,.74.02,1.47,0,2.2ZM385.62,88.46c-.06.45-.3.87-.83.91-.62.05-.88-.41-.99-.9-.23-.97-.05-1.96-.08-2.95,0-.74,0-1.48,0-2.22,0-.49.18-.9.72-.96.48-.05.72.29.82.7.43,1.78.62,3.59.37,5.42ZM384.92,79.89c-.57.1-.98-.46-1.04-1.5-.05-.78-.01-1.57-.01-2.35h.02c0-.64-.01-1.28,0-1.92.01-.54-.03-1.19.71-1.23.7-.04.8.6.92,1.13.06.24.14.48.15.72.06,1.22.13,2.45.14,3.68,0,.65-.08,1.33-.9,1.48ZM385.83,69.93c0,.29-.04.6-.17.85-.3.59-.96.58-1.25-.01-.14-.3-.18-.65-.23-.99-.22-1.46-.08-2.93-.08-4.39,0-.4.08-.79.44-1.04.5-.35,1.17.03,1.22.75.06.88.02,1.76.02,2.64h.07c0,.73.01,1.47,0,2.2ZM390.89,99.02c0,.1-.03.19-.05.29-.11.41-.33.74-.78.75-.5.01-.67-.39-.7-.79-.08-.97-.11-1.95-.15-2.93.02,0,.04,0,.06,0,0-.78-.01-1.56,0-2.35.01-.52.16-1,.78-1.05.64-.05.86.42.88.94.07,1.71.09,3.42-.05,5.13ZM393.41,88.01c-.96,1.75-3.06,1.93-4.2.29-.83-1.2-1.22-2.56-.9-4.04.28-1.3,1.11-2.05,2.27-2.14,1.42-.1,2.4.48,2.94,1.72.28.65.34,1.32.28,2.22-.02.52-.03,1.26-.4,1.93ZM399.98,97.87c-.48,1.68-1.71,2.56-3.25,2.34-1.65-.24-2.97-1.74-2.9-3.37.03-.74.18-1.46.5-2.14.68-1.46,1.68-2.14,2.93-2.01,1.53.16,2.58,1.14,2.89,2.71.07.33.07.68.11,1.1-.08.41-.15.9-.28,1.37ZM397.26,83.65c.11-.32.19-.71.62-.69.37.02.58.32.72.65.27.65.24,1.35.34,2.02.15.98.14,1.96.02,2.93-.06.54-.36.97-.93.96-.64,0-.96-.44-.98-1.06-.02-.69,0-1.37,0-2.31.03-.68-.09-1.62.23-2.52ZM399.08,79.12c-.04.55-.36.93-.93.93-.58,0-.89-.37-.92-.94-.06-1.56-.08-3.12.1-4.68.02-.14.07-.29.14-.42.11-.2.15-.49.45-.53.34-.04.57.17.7.42.31.57.38,1.21.43,1.84.05.54.07,1.07.1,1.61-.02,0-.04,0-.06,0,0,.59.03,1.17,0,1.76ZM400.07,69.09c-.55,1.52-1.68,2.31-3.11,2.14-1.48-.17-2.79-1.43-2.94-2.86-.14-1.32.23-2.54,1.01-3.6.63-.85,1.53-1.26,2.59-1.03,1.2.27,2.21.85,2.55,2.16.12.47.15.96.19,1.24-.04.8-.09,1.38-.29,1.95ZM402.49,88.65c-.17-1.62-.01-3.23.14-4.84.04-.44.28-.78.73-.78.45,0,.69.35.73.78.07.88.12,1.76.18,2.64.03,0,.06,0,.08,0,0,.73.03,1.47-.01,2.2-.03.52-.25.99-.85,1.03-.7.05-.94-.45-1-1.03ZM404.77,98.94c-.02.58-.28,1.08-.95,1.09-.68,0-.93-.48-.94-1.08-.03-1.52-.02-3.04.17-4.56.04-.29.12-.58.24-.84.16-.33.45-.54.83-.46.38.07.62.32.63.71.02.83,0,1.67,0,2.5h.02c0,.88.03,1.76,0,2.65ZM404.96,69.86c-.06.8-.48,1.25-1.04,1.19-.75-.08-.93-.65-.94-1.28-.04-1.53.06-3.05.25-4.57.02-.19.07-.39.15-.57.15-.33.39-.59.79-.56.45.04.74.33.76.76.04.88.01,1.77.01,2.65h.03c0,.79.05,1.58-.01,2.36ZM430.73,67.46c.08-1.07.29-2.14.58-3.18.33-1.17,1.04-1.62,2.17-1.61,1.14,0,2.08.58,2.44,1.57.25.69.42,1.41.36,2.5-.05.5-.16,1.33-.57,2.08-.65,1.19-1.7,1.8-2.74,1.56-1.23-.28-2.36-1.64-2.26-2.92ZM426.4,86.98h.02c0-.78-.03-1.57,0-2.35.02-.54.08-1.15.83-1.16.73,0,.85.54.85,1.12,0,1.42,0,2.84-.03,4.26,0,.29-.06.59-.14.86-.11.39-.31.76-.79.71-.46-.04-.7-.41-.73-.81-.05-.88-.02-1.76-.02-2.64ZM428.14,80.02c-.08.46-.24.93-.77.93-.59,0-.82-.47-.82-1.01,0-1.66.02-3.33.05-4.99.01-.56.25-.96.87-.95.57,0,.75.44.78.89.04.73.01,1.46.01,2.2.09.98.05,1.96-.12,2.92ZM413.53,64.71c.05-.19.11-.38.21-.54.16-.25.36-.47.7-.43.3.03.38.31.44.52.12.37.21.75.23,1.14.04.58.01,1.17.01,1.76h.01c0,.73.02,1.47,0,2.2-.02.56-.33.94-.91.94-.58,0-.9-.38-.94-.92-.1-1.56-.12-3.12.25-4.66ZM414.53,73.55c.7-.19,1.37-.11,1.99.24,1.9,1.07,2.45,4.48,1,6.09-1.72,1.91-4.42,1.34-5.24-1.1-.19-.57-.23-1.15-.25-1.66,0-2.01.79-3.11,2.5-3.58ZM407.41,74.89c0-.55.2-1,.8-1.04.53-.03.8.38.87.84.27,1.71.39,3.42.28,5.15-.03.52-.32.95-.92.97-.6.02-.94-.4-.98-.91-.07-.88-.02-1.77-.02-2.65h-.03c0-.79,0-1.57,0-2.36ZM407.3,89.13c-.06-.83-.02-1.67-.02-2.5h.02c0-.83-.01-1.67,0-2.5,0-.44.24-.77.69-.82.44-.05.73.22.86.64.09.28.19.57.2.86.06,1.42.11,2.84.14,4.26.01.58-.18,1.08-.85,1.19-.56.09-.99-.34-1.06-1.14ZM409.58,98.42c-.06.58-.31,1.07-1.01,1.02-.6-.05-.82-.52-.84-1.04-.04-.78,0-1.56,0-2.35.03,0,.06,0,.09,0,.06-.83.1-1.66.17-2.49.04-.43.28-.78.73-.77.45,0,.68.35.72.79.15,1.61.31,3.22.14,4.84ZM409.72,69.46c-.02.55-.3.96-.9.98-.61.01-.89-.4-.89-.96-.01-1.63-.02-3.25.23-4.87.06-.42.21-.79.7-.8.49,0,.64.37.73.78.2.92.12,1.87.15,2.8,0,.69.03,1.38,0,2.07ZM415.02,98.37c-.03.56-.38.92-.95.93-.5,0-.84-.31-.91-.8-.26-1.72-.11-3.42.31-5.1.1-.42.41-.75.84-.68.36.05.43.48.54.81.29.91.15,1.85.18,2.78,0,.69.03,1.37-.01,2.06ZM412.16,88.34c-.2-.6-.36-1.23-.32-1.88.07-1.05.25-2.06,1.14-2.76,1.73-1.37,3.68-.96,4.65,1.03,1.01,2.07.76,3.61-.4,4.77-1.72,1.71-4.29,1.14-5.07-1.15ZM422.9,98c-.49.79-1.22,1.28-2.21,1.18-1.01-.11-1.68-.7-2.12-1.6-.32-.64-.27-1.33-.32-2.01-.06-.75.04-1.47.38-2.14.56-1.12,1.58-1.65,2.92-1.52,1.1.1,1.89.83,2.19,2.06.36,1.48-.07,2.82-.84,4.05ZM423.01,77.14c-.05,1,.1,1.98-.16,2.94-.09.34-.19.69-.6.74-.48.05-.7-.29-.85-.67-.09-.22-.11-.48-.11-.72-.02-1.52-.02-3.03-.02-4.55,0-.15,0-.29.03-.44.07-.44.32-.71.77-.74.48-.04.73.27.82.68.21.92.05,1.85.11,2.75ZM421.96,83.18c.54.01.8.37.82.85.03.88,0,1.76,0,2.64h-.05c0,.93.03,1.86-.01,2.78-.02.39-.18.81-.66.83-.53.02-.8-.37-.85-.84-.2-1.8-.16-3.61-.07-5.42.02-.47.25-.87.81-.85ZM423.06,69c-.55.83-1.31,1.33-2.36,1.16-1.01-.16-1.67-.79-2.03-1.71-.23-.6-.3-1.23-.31-1.88-.07-.75.1-1.47.42-2.14.55-1.17,1.67-1.72,3.06-1.52,1.1.15,1.95,1.06,2.11,2.31.18,1.36-.13,2.63-.89,3.78ZM428.37,97.49c0,.45-.07.89-.34,1.26-.37.51-1.01.54-1.35,0-.18-.28-.3-.64-.32-.97-.09-1.58.04-3.15.34-4.71.03-.14.1-.28.15-.42.14-.35.36-.61.77-.57.46.04.7.37.71.8.02.84,0,1.68,0,2.51h.03c0,.69,0,1.38,0,2.07ZM428.43,69.08c-.1.58-.33,1.09-1.01,1.03-.57-.05-.82-.52-.84-1.05-.09-1.72-.1-3.43.33-5.12.11-.44.32-.87.87-.83.56.04.67.5.68.97.01.79,0,1.57,0,2.36.02.88.12,1.77-.04,2.65ZM436.14,95.19c0,1-.12,1.86-.58,2.66-.73,1.27-1.78,1.81-2.89,1.47-1.24-.39-2.25-1.79-2.1-3.05.12-.97.3-1.95.55-2.89.31-1.15,1.02-1.67,2.12-1.7,1.2-.04,2.15.55,2.56,1.6.25.65.36,1.33.34,1.92ZM434.94,90.36c-1.16.96-2.73.8-3.65-.39-.63-.81-.89-1.74-.85-2.81-.05-.6.08-1.22.31-1.82.47-1.22,1.27-1.76,2.6-1.78,1.04-.01,1.75.58,2.19,1.82.28.79.59,1.56.59,2.42,0,1.06-.39,1.91-1.2,2.58ZM435.33,80.67c-1.31,1.31-3.15,1.08-4.13-.51-.45-.74-.59-1.55-.63-2.44.02-.65.1-1.32.38-1.97.5-1.17,1.36-1.72,2.68-1.67.98.04,1.68.63,2.07,1.79.2.6.42,1.21.54,1.83.23,1.14-.09,2.14-.92,2.97Z"/>
            <path class="cls-57" d="M397.26,92.7c-1.25-.14-2.25.55-2.93,2.01-.32.68-.47,1.4-.5,2.14-.06,1.63,1.25,3.13,2.9,3.37,1.54.22,2.77-.66,3.25-2.34.14-.47.2-.96.28-1.37-.04-.42-.05-.77-.11-1.1-.31-1.57-1.36-2.54-2.89-2.71ZM398.14,96.81c-.17.93-.64,1.45-1.24,1.41-.69-.05-1.33-.81-1.39-1.66-.01-.15,0-.29,0-.44.07-1.11.48-1.57,1.36-1.5.88.06,1.32.59,1.31,1.61,0,.2,0,.4-.04.59Z"/>
            <path class="cls-57" d="M417.63,84.73c-.97-1.99-2.92-2.4-4.65-1.03-.89.7-1.06,1.72-1.14,2.76-.04.66.12,1.28.32,1.88.78,2.29,3.36,2.86,5.07,1.15,1.16-1.15,1.41-2.69.4-4.77ZM416.35,87.6c-.32.46-.69.86-1.3.84-.67-.02-.86-.57-1.04-1.08-.06-.18-.1-.38-.13-.57-.14-1.23.38-1.93,1.41-1.94.87,0,1.27.55,1.25,1.76,0,.34,0,.69-.21.99Z"/>
            <path class="cls-55" d="M397.61,63.74c-1.05-.24-1.96.17-2.59,1.02-.78,1.06-1.15,2.28-1.01,3.6.15,1.44,1.46,2.69,2.94,2.86,1.44.17,2.57-.62,3.11-2.14.2-.57.25-1.15.29-1.95-.04-.28-.07-.77-.19-1.24-.34-1.31-1.35-1.89-2.55-2.16ZM397.15,69.22c-.78.02-1.51-.89-1.51-1.87,0-1.17.43-1.75,1.3-1.75.93,0,1.43.59,1.41,1.67-.02,1.12-.52,1.93-1.19,1.95Z"/>
            <path class="cls-55" d="M417.52,79.89c1.45-1.61.9-5.02-1-6.09-.62-.35-1.29-.43-1.99-.24-1.71.47-2.51,1.57-2.5,3.58.02.51.06,1.09.25,1.66.82,2.44,3.52,3,5.24,1.1ZM414.05,76.64c.12-.83.55-1.24,1.35-1.26.77-.02,1.06.24,1.25,1.13.04.19.07.39.09.49,0,.54-.08.98-.37,1.33-.32.39-.7.72-1.25.64-.57-.08-.8-.53-.93-1.02-.12-.43-.2-.86-.13-1.31Z"/>
            <path class="cls-55" d="M433.36,83.55c-1.34.02-2.13.56-2.6,1.78-.23.6-.37,1.22-.31,1.82-.04,1.07.22,2.01.85,2.81.92,1.19,2.49,1.36,3.65.39.81-.67,1.2-1.52,1.2-2.58,0-.86-.31-1.63-.59-2.42-.44-1.23-1.15-1.83-2.19-1.82ZM433.47,89.05c-.48.02-.91-.65-1-1.61-.02-.15-.02-.3-.02-.38,0-1.19.22-1.69.84-1.71.86-.03.89.79,1.2,1.3.1.15.1.38.12.57.06.91-.5,1.8-1.14,1.84Z"/>
            <path class="cls-57" d="M381.05,94.53c-.82-1.39-3.16-1.72-4.02-.41-.86,1.31-1.4,2.82-.96,4.46.31,1.17,1.3,1.96,2.42,2.01,1.48.08,2.21-.35,2.77-1.66.26-.59.42-1.21.37-1.79.02-1.05-.19-1.95-.58-2.61ZM379.45,97.94c-.11.37-.29.8-.72.86-.5.07-.81-.29-1.04-.69-.48-.8-.18-2.28.56-2.85.39-.3.99-.13,1.23.35.04.09.07.19.08.28.04.29.06.59.09.96-.05.31-.07.71-.19,1.08Z"/>
            <path class="cls-55" d="M378.73,64.34c-.84-.02-1.55.41-1.86,1.21-.33.82-.6,1.67-.78,2.53-.19.96.1,1.85.74,2.61,1.34,1.57,3.4,1.38,4.4-.42.4-.71.52-1.48.55-2.27,0-.9-.18-1.76-.63-2.55-.54-.95-1.49-1.09-2.42-1.11ZM379.81,67.77c0,.5-.09.98-.3,1.42-.39.81-1.01.85-1.56.11-.61-.81-.36-2.46.47-3.06.4-.29.96-.12,1.2.39.17.36.23.75.2,1.14Z"/>
            <path class="cls-55" d="M435.71,75.87c-.39-1.16-1.09-1.75-2.07-1.79-1.31-.05-2.18.5-2.68,1.67-.27.65-.36,1.32-.38,1.97.03.89.17,1.71.63,2.44.98,1.59,2.82,1.82,4.13.51.82-.82,1.15-1.83.92-2.97-.12-.62-.34-1.23-.54-1.83ZM434.41,79.07c-.56.73-1.17.68-1.55-.14-.21-.44-.31-.92-.29-1.67.02-.09.08-.42.15-.75.08-.39.36-.56.71-.64.41-.09.62.18.82.47.66.95.72,2,.17,2.72Z"/>
            <path class="cls-55" d="M433.23,91.67c-1.1.04-1.81.55-2.12,1.7-.26.95-.43,1.92-.55,2.89-.15,1.26.86,2.67,2.1,3.05,1.11.34,2.16-.2,2.89-1.47.46-.8.58-1.66.58-2.66.02-.6-.08-1.28-.34-1.92-.41-1.05-1.36-1.64-2.56-1.6ZM433.92,97.1c-.46.73-.95.71-1.47-.01-.31-.43-.32-.91-.28-1.6.01-.45.12-1.08.44-1.65.17-.31.41-.57.81-.54.43.03.74.26.86.68.28,1.08.26,2.15-.35,3.12Z"/>
            <path class="cls-55" d="M379.27,89.6c1.21-.3,2.3-1.72,2.27-3.05-.18-.92-.31-1.95-.58-2.95-.31-1.15-1.02-1.67-2.12-1.7-1.13-.04-2.14.5-2.5,1.46-.59,1.58-.62,3.18.19,4.71.65,1.23,1.7,1.78,2.74,1.52ZM377.66,84.96c.1-.63.11-1.38.97-1.41.84-.03,1,.73,1.12,1.32.19.9.44,1.85-.3,2.66-.45.49-.78.47-1.2-.05-.49-.61-.55-1.34-.64-2.07.02-.15.03-.3.05-.44Z"/>
            <path class="cls-57" d="M381.08,74.14c-.34-1.21-.99-1.67-2.1-1.71-1.2-.04-2.2.56-2.57,1.6-.22.65-.39,1.32-.37,2.02.08,1.25.29,2.45,1.23,3.38.97.96,2.13,1.03,3.17.15.79-.66,1.34-1.48,1.19-2.56-.13-.97-.29-1.94-.55-2.89ZM379.99,77.42c-.2.45-.44.95-.99.97-.52.02-.71-.48-.89-.87-.36-.78-.42-1.61-.26-2.45.1-.52.33-.95.91-1,.62-.05.85.44,1.01.9.18.56.26,1.14.37,1.65-.05.32-.05.58-.15.8Z"/>
            <path class="cls-57" d="M433,70.38c1.03.23,2.08-.37,2.74-1.56.41-.75.52-1.58.57-2.08.06-1.08-.11-1.81-.36-2.5-.36-.99-1.3-1.56-2.44-1.57-1.14,0-1.84.44-2.17,1.61-.29,1.03-.5,2.11-.58,3.18-.1,1.29,1.03,2.64,2.26,2.92ZM432.76,64.85c.16-.33.41-.57.8-.54.43.03.74.27.86.69.1.38.14.77.18.98-.03.98-.19,1.74-.71,2.38-.31.38-.65.39-1.01.06-.3-.27-.54-.6-.58-1-.1-.9.07-1.76.46-2.57Z"/>
            <path class="cls-55" d="M391.58,79.94c1.08-.14,1.77-.8,2.14-1.78.23-.6.29-1.24.29-1.8.05-.83-.12-1.54-.45-2.21-.57-1.15-1.72-1.68-3.09-1.46-1.04.17-1.86,1.04-2.04,2.22-.2,1.36.1,2.64.83,3.79.53.84,1.27,1.38,2.32,1.24ZM390.89,74.37c.67-.14,1.14.23,1.37.82.36.91.35,1.82-.28,2.62-.44.55-.91.51-1.28-.1-.38-.64-.52-1.35-.54-1.94,0-.71.06-1.27.72-1.4Z"/>
            <path class="cls-55" d="M421.83,62.92c-1.39-.19-2.5.35-3.06,1.52-.31.67-.48,1.39-.42,2.14,0,.64.07,1.28.31,1.88.37.92,1.03,1.55,2.03,1.71,1.05.17,1.81-.33,2.36-1.16.76-1.14,1.07-2.41.89-3.78-.16-1.25-1.01-2.15-2.11-2.31ZM422.2,66.18c-.07.59-.19,1.26-.57,1.85-.34.53-.76.54-1.2.09-.7-.71-.74-2.38-.06-3.11.36-.39.81-.55,1.32-.33.41.17.55.62.51,1.51Z"/>
            <path class="cls-57" d="M421.55,91.9c-1.35-.13-2.37.4-2.92,1.52-.33.68-.44,1.4-.38,2.14.05.68,0,1.37.32,2.01.44.9,1.11,1.49,2.12,1.6.99.11,1.72-.39,2.21-1.18.77-1.23,1.2-2.57.83-4.05-.3-1.23-1.09-1.95-2.19-2.06ZM421.58,96.85c-.36.76-.95.76-1.45.07-.26-.37-.35-.72-.36-1.46-.04-.54.08-1.09.52-1.54.3-.29.67-.41,1.07-.33.44.1.62.47.68.86.14.85-.11,1.65-.48,2.39Z"/>
            <path class="cls-50" d="M393.53,83.85c-.53-1.24-1.52-1.83-2.94-1.72-1.16.08-1.99.84-2.27,2.14-.32,1.47.07,2.84.9,4.04,1.14,1.64,3.23,1.46,4.2-.29.37-.67.38-1.41.4-1.93.06-.9,0-1.58-.28-2.22ZM392.31,85.69c-.02.24.01.5-.05.73-.15.57-.37,1.21-1.06,1.22-.66.02-.8-.64-.94-1.14-.14-.51-.34-1.02-.27-1.57.06-.5.19-.99.78-1.09.53-.09.94.16,1.23.6.25.38.33.8.31,1.25Z"/>
            <path class="cls-76" d="M404.94,67.5c0-.89.03-1.77-.01-2.65-.02-.43-.31-.73-.76-.76-.39-.03-.64.23-.79.56-.08.18-.13.37-.15.57-.2,1.52-.3,3.04-.25,4.57.02.63.19,1.2.94,1.28.56.06.98-.39,1.04-1.19.06-.78.01-1.57.01-2.36,0,0-.02,0-.03,0Z"/>
            <path class="cls-76" d="M407.44,77.25c0,.88-.05,1.77.02,2.65.04.51.38.93.98.91.6-.02.89-.45.92-.97.11-1.72,0-3.44-.28-5.15-.08-.46-.35-.87-.87-.84-.61.03-.8.49-.8,1.04,0,.79,0,1.57,0,2.36.01,0,.02,0,.03,0Z"/>
            <path class="cls-91" d="M428.33,92.9c-.01-.44-.25-.76-.71-.8-.4-.04-.63.23-.77.57-.05.14-.12.27-.15.42-.3,1.55-.43,3.12-.34,4.71.02.33.14.69.32.97.33.53.98.5,1.35,0,.27-.38.34-.81.34-1.26,0-.69,0-1.38,0-2.07h-.03c0-.84.02-1.68,0-2.51Z"/>
            <path class="cls-91" d="M384.44,82.34c-.53.06-.71.47-.72.96,0,.74,0,1.48,0,2.22.03.98-.15,1.98.08,2.95.12.5.37.95.99.9.53-.04.77-.46.83-.91.25-1.83.07-3.63-.37-5.42-.1-.41-.34-.75-.82-.7Z"/>
            <path class="cls-84" d="M422.89,74.39c-.09-.41-.34-.71-.82-.68-.45.03-.7.3-.77.74-.02.14-.03.29-.03.44,0,1.52,0,3.03.02,4.55,0,.24.02.5.11.72.15.37.37.72.85.67.42-.05.52-.4.6-.74.26-.96.11-1.95.16-2.94-.06-.9.1-1.84-.11-2.75Z"/>
            <path class="cls-84" d="M389.68,70.73c.21.44.6.46.97.15.32-.27.43-.65.43-1.05,0-.78,0-1.57,0-2.35h0c0-.93.02-1.86-.01-2.79-.02-.44-.31-.71-.76-.75-.48-.04-.71.27-.83.67-.06.18-.09.38-.09.58,0,1.47-.01,2.93.02,4.4,0,.38.11.79.28,1.13Z"/>
            <path class="cls-69" d="M408.36,90.27c.66-.11.86-.61.85-1.19-.03-1.42-.08-2.84-.14-4.26-.01-.29-.11-.58-.2-.86-.13-.42-.42-.69-.86-.64-.45.04-.68.37-.69.82-.01.83,0,1.67,0,2.5h-.02c0,.83-.05,1.67.02,2.5.06.8.5,1.23,1.06,1.14Z"/>
            <path class="cls-69" d="M404.75,96.29c0-.83.01-1.67,0-2.5,0-.39-.25-.64-.63-.71-.38-.07-.67.14-.83.46-.13.26-.21.56-.24.84-.19,1.51-.2,3.03-.17,4.56.01.6.27,1.08.94,1.08.68,0,.93-.5.95-1.09.04-.88,0-1.76,0-2.65h-.02Z"/>
            <path class="cls-66" d="M397.04,88.48c.02.62.35,1.06.98,1.06.57,0,.86-.43.93-.96.12-.98.13-1.96-.02-2.93-.1-.68-.07-1.37-.34-2.02-.14-.34-.35-.63-.72-.65-.43-.03-.51.37-.62.69-.32.9-.2,1.85-.23,2.52,0,.94-.02,1.62,0,2.31Z"/>
            <path class="cls-66" d="M414.85,93.53c-.11-.33-.18-.76-.54-.81-.42-.06-.73.27-.84.68-.42,1.68-.57,3.38-.31,5.1.07.49.41.81.91.8.56,0,.91-.38.95-.93.04-.68.01-1.37.01-2.06-.03-.93.11-1.87-.18-2.78Z"/>
            <path class="cls-55" d="M428.46,64.08c0-.47-.12-.92-.68-.97-.55-.04-.76.39-.87.83-.43,1.69-.42,3.4-.33,5.12.03.53.27,1,.84,1.05.68.06.91-.46,1.01-1.03.16-.88.05-1.76.04-2.65,0-.79,0-1.57,0-2.36Z"/>
            <path class="cls-66" d="M385.6,96.81c0-.93.03-1.86-.01-2.79-.02-.49-.31-.83-.86-.79-.45.04-.72.34-.73.78-.05,1.71-.15,3.43.05,5.13.05.48.2,1.06.82,1.04.69-.02.81-.62.84-1.17.03-.73,0-1.47,0-2.2h-.11Z"/>
            <path class="cls-65" d="M390.06,92.95c-.62.05-.77.53-.78,1.05-.02.78,0,1.56,0,2.35-.02,0-.04,0-.06,0,.05.98.07,1.95.15,2.93.03.39.2.8.7.79.45-.01.67-.34.78-.75.02-.09.04-.19.05-.29.13-1.71.11-3.42.05-5.13-.02-.52-.24-.99-.88-.94Z"/>
            <path class="cls-55" d="M385.68,74.74c-.01-.24-.09-.48-.15-.72-.13-.53-.22-1.17-.92-1.13-.74.04-.69.7-.71,1.23-.01.64,0,1.28,0,1.92h-.02c0,.79-.04,1.57.01,2.35.07,1.04.47,1.6,1.04,1.5.82-.14.91-.83.9-1.47-.01-1.23-.08-2.45-.14-3.68Z"/>
            <path class="cls-66" d="M427.14,90.43c.49.05.68-.32.79-.71.08-.28.13-.57.14-.86.02-1.42.02-2.84.03-4.26,0-.58-.12-1.13-.85-1.12-.74,0-.8.62-.83,1.16-.04.78,0,1.57,0,2.35h-.02c0,.88-.03,1.76.02,2.64.02.4.27.76.73.81Z"/>
            <path class="cls-41" d="M421.22,89.45c.05.47.31.86.85.84.48-.02.64-.44.66-.83.04-.93.01-1.85.01-2.78h.05c0-.88.02-1.76,0-2.64-.02-.49-.27-.84-.82-.85-.56-.01-.79.39-.81.85-.09,1.81-.13,3.62.07,5.42Z"/>
            <path class="cls-84" d="M385.77,67.73c0-.88.05-1.76-.02-2.64-.05-.72-.72-1.1-1.22-.75-.36.25-.44.64-.44,1.04,0,1.46-.14,2.93.08,4.39.05.33.09.69.23.99.29.6.95.6,1.25.01.13-.25.16-.56.17-.85.02-.73,0-1.47,0-2.2h-.07Z"/>
            <path class="cls-84" d="M428.25,74.9c-.03-.46-.21-.89-.78-.89-.62-.01-.86.39-.87.95-.02,1.66-.05,3.32-.05,4.99,0,.54.23,1.01.82,1.01.53,0,.69-.48.77-.93.17-.97.21-1.94.12-2.92,0-.73.03-1.47-.01-2.2Z"/>
            <path class="cls-71" d="M403.49,89.68c.6-.04.82-.51.85-1.03.04-.73.01-1.47.01-2.2-.03,0-.05,0-.08,0-.06-.88-.11-1.76-.18-2.64-.04-.43-.28-.78-.73-.78-.45,0-.68.33-.73.78-.15,1.61-.31,3.22-.14,4.84.06.58.3,1.08,1,1.03Z"/>
            <path class="cls-71" d="M408.72,92.79c-.45,0-.69.34-.73.77-.08.83-.12,1.66-.17,2.49-.03,0-.06,0-.09,0,0,.78-.03,1.57,0,2.35.02.52.24.99.84,1.04.7.06.95-.44,1.01-1.02.17-1.62.01-3.23-.14-4.84-.04-.44-.27-.78-.72-.79Z"/>
            <path class="cls-51" d="M403.63,80.2c.52-.03.78-.41.8-.9.03-.74,0-1.48,0-2.22-.07-.93-.05-1.87-.24-2.8-.08-.37-.23-.68-.62-.71-.48-.05-.7.29-.77.72-.28,1.66-.23,3.34-.15,5.01.03.55.38.93.97.9Z"/>
            <path class="cls-51" d="M409.58,64.59c-.09-.41-.24-.79-.73-.78-.49,0-.63.38-.7.8-.24,1.61-.24,3.24-.23,4.87,0,.55.29.97.89.96.59-.01.87-.43.9-.98.03-.69,0-1.38,0-2.07-.02-.93.06-1.88-.15-2.8Z"/>
            <path class="cls-55" d="M414.22,70.29c.58,0,.89-.38.91-.94.02-.73,0-1.46,0-2.2h-.01c0-.59.03-1.17-.01-1.76-.02-.38-.11-.77-.23-1.14-.07-.21-.15-.49-.44-.52-.34-.04-.55.18-.7.43-.1.16-.16.36-.21.54-.37,1.54-.34,3.1-.25,4.66.03.55.36.93.94.92Z"/>
            <path class="cls-55" d="M399.05,75.76c-.05-.63-.13-1.27-.43-1.84-.14-.25-.36-.47-.7-.42-.3.04-.34.32-.45.53-.07.12-.12.27-.14.42-.18,1.56-.17,3.12-.1,4.68.02.56.34.93.92.94s.89-.38.93-.93c.04-.58,0-1.17,0-1.76.02,0,.04,0,.06,0-.03-.54-.05-1.07-.1-1.61Z"/>
            <path class="cls-67" d="M396.88,94.61c-.88-.06-1.29.39-1.36,1.5,0,.15,0,.29,0,.44.06.85.69,1.61,1.39,1.66.6.04,1.07-.48,1.24-1.41.04-.19.04-.39.04-.59,0-1.02-.43-1.55-1.31-1.61Z"/>
            <path class="cls-67" d="M415.31,84.85c-1.03,0-1.55.71-1.41,1.94.02.19.06.39.13.57.18.52.37,1.06,1.04,1.08.6.02.98-.38,1.3-.84.21-.3.2-.65.21-.99.01-1.22-.38-1.77-1.25-1.77Z"/>
            <path class="cls-78" d="M396.93,65.61c-.87,0-1.3.58-1.3,1.75,0,.98.73,1.89,1.51,1.87.67-.01,1.17-.83,1.2-1.95.02-1.08-.48-1.66-1.41-1.67Z"/>
            <path class="cls-78" d="M415.11,78.97c.55.08.93-.25,1.25-.64.3-.36.37-.79.37-1.33-.02-.11-.05-.3-.09-.49-.19-.89-.48-1.15-1.25-1.13-.8.02-1.23.43-1.35,1.26-.07.45.02.88.13,1.31.13.49.36.94.93,1.02Z"/>
            <path class="cls-85" d="M434.49,86.65c-.32-.51-.33-1.33-1.2-1.3-.62.02-.85.52-.84,1.71,0,.08,0,.23.02.38.09.96.51,1.64,1,1.61.64-.03,1.2-.93,1.14-1.84-.02-.19-.02-.41-.12-.57Z"/>
            <path class="cls-85" d="M379.47,95.61c-.23-.48-.84-.65-1.23-.35-.74.57-1.03,2.05-.56,2.85.23.39.55.76,1.04.69.44-.06.61-.49.72-.86.12-.37.14-.77.19-1.08-.04-.38-.06-.67-.09-.96,0-.1-.03-.2-.08-.28Z"/>
            <path class="cls-81" d="M378.41,66.24c-.83.6-1.08,2.25-.47,3.06.55.74,1.17.7,1.56-.11.21-.44.31-.92.3-1.42.03-.4-.03-.79-.2-1.14-.24-.5-.8-.67-1.2-.39Z"/>
            <path class="cls-93" d="M433.43,75.87c-.35.07-.63.25-.71.64-.07.33-.13.66-.15.75-.02.75.08,1.23.29,1.67.39.82,1,.87,1.55.14.55-.72.49-1.77-.17-2.72-.2-.29-.41-.56-.82-.47Z"/>
            <path class="cls-59" d="M433.42,93.3c-.4-.03-.64.23-.81.54-.31.57-.43,1.19-.44,1.65-.04.69-.03,1.17.28,1.6.52.72,1.01.75,1.47.01.61-.97.64-2.04.35-3.12-.11-.43-.42-.65-.85-.68Z"/>
            <path class="cls-59" d="M379.45,87.53c.74-.81.49-1.76.3-2.66-.13-.6-.28-1.36-1.12-1.32-.86.03-.87.79-.97,1.41-.02.14-.03.29-.05.44.09.73.15,1.47.64,2.07.42.52.75.54,1.2.05Z"/>
            <path class="cls-37" d="M378.77,74.07c-.58.05-.81.48-.91,1-.16.84-.11,1.67.26,2.45.18.39.36.89.89.87.56-.02.8-.52.99-.97.1-.22.1-.47.15-.8-.11-.51-.19-1.1-.37-1.65-.15-.46-.38-.96-1.01-.9Z"/>
            <path class="cls-37" d="M432.88,68.41c.36.32.7.32,1.01-.06.52-.64.68-1.4.71-2.38-.04-.21-.08-.6-.18-.98-.11-.42-.42-.66-.86-.69-.39-.02-.64.21-.8.54-.4.81-.57,1.67-.46,2.57.04.4.29.72.58,1Z"/>
            <path class="cls-72" d="M391.98,77.82c.63-.8.64-1.71.28-2.62-.23-.6-.7-.96-1.37-.82-.67.14-.72.7-.73,1.4.01.59.16,1.31.54,1.94.37.61.84.65,1.28.1Z"/>
            <path class="cls-47" d="M421.69,64.67c-.51-.21-.95-.06-1.32.33-.67.73-.64,2.4.06,3.11.44.45.85.43,1.2-.09.38-.58.5-1.25.57-1.85.04-.89-.1-1.33-.51-1.51Z"/>
            <path class="cls-85" d="M421.37,93.6c-.4-.09-.78.03-1.07.33-.44.45-.57,1-.52,1.54,0,.74.1,1.09.36,1.46.49.69,1.08.69,1.45-.07.36-.75.61-1.55.48-2.39-.06-.39-.25-.76-.69-.86Z"/>
            <path class="cls-68" d="M390.76,83.83c-.59.1-.72.59-.78,1.09-.07.55.13,1.06.27,1.57.14.5.28,1.16.94,1.14.69-.02.91-.65,1.06-1.22.06-.23.04-.48.05-.73.02-.45-.06-.87-.31-1.25-.29-.45-.7-.7-1.23-.6Z"/>
        </g>
        <g>
            <path class="cls-38" d="M312.52,155.26c-1.48.01-1.62.15-1.61,1.77.08,10.11.06,20.21.36,30.32.09,2.97.62,3.09,3.19,3.09,17.5,0,35,0,52.51,0,2.87,0,3.11-.24,3.18-3.11.25-10.1.36-20.21.37-30.32,0-.2.01-.4,0-.59-.07-.87-.3-1.11-1.2-1.14-1.08-.04-2.17,0-3.26-.02-8.48-.08-16.96-.15-24.72-.23-10.09.08-19.45.16-28.82.24ZM366.27,156.99c3.22,0,2.62-.3,2.59,2.68-.09,9.46-.13,18.92.08,28.38,0,.19,0,.38,0,.71-18.84-.1-37.55-.11-56.27,0-.29-.39-.17-.85-.16-1.28.13-9.71.11-19.41.03-29.12-.01-1.29,0-1.33,1.26-1.36,1.53-.03,3.05,0,4.58,0,15.96-.01,31.93-.04,47.9-.02Z"/>
            <path class="cls-46" d="M313.79,157.01c-1.25.03-1.27.06-1.26,1.36.08,9.71.1,19.42-.03,29.12,0,.43-.12.89.16,1.28,18.73-.11,37.44-.1,56.27,0,0-.33,0-.52,0-.71-.21-9.46-.17-18.92-.08-28.38.03-2.99.63-2.68-2.59-2.68-15.97-.01-31.93.01-47.9.02-1.53,0-3.06-.04-4.58,0ZM353.76,174.52h.2c0-1.28-.01-2.56,0-3.84,0-.59.13-1.17.36-1.72.12-.29.37-.46.7-.44.33.02.55.22.61.54.07.38.12.78.13,1.17.06,2.16.13,4.33.14,6.5,0,.73.2,1.08.99,1.06.68-.02,1.38.05,2.06.14.38.05.77.2,1.11.38.47.24.76.65.61,1.21-.14.53-.55.84-1.08.85-.59,0-1.17-.1-1.76-.13-.83-.05-1.67-.07-2.51-.14-1.08-.09-1.51-.49-1.55-1.58-.05-1.33-.01-2.66-.01-3.99ZM338.88,178.08c.12-3.07.72-6.05,1.55-8.99.15-.53.41-1.04,1.06-1.08.72-.05,1.05.45,1.27,1.03.56,1.47,1.1,2.95,1.66,4.42.19.5.26,1.04.73,1.63.18-.53.35-.94.46-1.37.39-1.48.93-2.9,1.5-4.32.24-.59.62-1.04,1.3-1.01.68.03.99.53,1.18,1.14.85,2.73,1.62,5.47,2.32,8.24.06.24.12.48.12.73,0,.61-.02,1.24-.77,1.4-.63.13-1.02-.26-1.25-.8-.18-.4-.34-.82-.46-1.24-.33-1.13-.63-2.28-.95-3.41-.13-.45-.27-.89-.52-1.7-.48,1.5-.85,2.65-1.21,3.8-.19.61-.36,1.23-.56,1.83-.15.45-.42.79-.92.85-.57.07-.97-.23-1.18-.71-.45-.98-.87-1.98-1.26-2.99-.43-1.09-.8-2.19-1.41-3.27-.3,1.39-.6,2.77-.9,4.16-.13.62-.21,1.27-.39,1.88-.13.42-.11,1.14-.81.99-.6-.12-.57-.74-.55-1.23ZM329.67,168.35c.17-.09.36-.16.55-.2,2.18-.45,4.39-.45,6.6-.25.63.06,1.17.38,1.15,1.11-.03.74-.61.94-1.24,1.01-.29.03-.59.02-.88.02-1.88.03-1.65-.21-1.77,1.78-.12,2.01-.25,4.02-.43,6.03-.05.49.01,1.31-.64,1.32-.77.02-.67-.82-.75-1.36-.29-2.01-.21-4.02-.06-6.03.04-.53.17-1.06,0-1.6-.73.06-1.41.15-2.09.17-.54.02-.96-.23-1.08-.8-.12-.56.17-.95.64-1.2ZM320,173.42c.7-1.24.27-2.61.49-3.9.1-.58.18-1.17.3-1.74.07-.33.2-.72.62-.71.44.01.51.41.54.75.13,1.12.21,2.25.35,3.38.05.41-.19,1.02.35,1.17.7.19,1.46.19,2.18,0,.27-.08.21-.41.23-.64.06-.69.1-1.38.15-2.06.03-.44.08-.88.33-1.27.14-.22.33-.37.6-.35.28.03.46.21.51.46.13.68.28,1.36.3,2.04.08,1.97.14,3.94.34,5.71,0,.88.04,1.57-.01,2.26-.04.52-.32.96-.91.97-.52,0-.76-.37-.92-.82-.33-.95-.16-1.96-.32-2.93-.08-.46.18-1.11-.33-1.35-.58-.26-1.26-.11-1.89-.04-.29.03-.33.32-.33.57,0,.69.02,1.38.01,2.07,0,.39-.02.79-.1,1.17-.08.4-.29.75-.77.78-.47.03-.74-.27-.87-.66-.23-.7-.34-1.43-.39-2.17-.05-.76.16-1.59-.42-2.27-.08-.09-.11-.31-.06-.41Z"/>
            <path class="cls-38" d="M339.43,179.31c.7.14.69-.57.81-.99.18-.61.26-1.25.39-1.88.3-1.39.6-2.78.9-4.16.61,1.07.99,2.18,1.41,3.27.39,1.01.81,2,1.26,2.99.22.48.62.77,1.18.71.5-.06.77-.41.92-.85.2-.61.37-1.22.56-1.83.37-1.15.74-2.31,1.21-3.8.25.81.4,1.25.52,1.7.32,1.14.62,2.28.95,3.41.12.42.29.84.46,1.24.23.54.62.93,1.25.8.76-.15.78-.79.77-1.4,0-.24-.06-.49-.12-.73-.69-2.77-1.47-5.51-2.32-8.24-.19-.61-.5-1.11-1.18-1.14-.68-.04-1.06.42-1.3,1.01-.57,1.41-1.11,2.84-1.5,4.32-.11.43-.28.84-.46,1.37-.47-.59-.54-1.14-.73-1.63-.56-1.47-1.1-2.95-1.66-4.42-.22-.58-.55-1.08-1.27-1.03-.65.04-.91.55-1.06,1.08-.83,2.94-1.43,5.93-1.55,8.99-.02.49-.05,1.11.55,1.23Z"/>
            <path class="cls-82" d="M320.47,176.1c.05.74.16,1.47.39,2.17.13.39.4.69.87.66.47-.03.68-.39.77-.78.08-.38.09-.78.1-1.17.01-.69,0-1.38-.01-2.07,0-.26.03-.54.33-.57.63-.07,1.32-.22,1.89.04.52.24.26.88.33,1.35.16.97,0,1.97.32,2.93.16.45.4.83.92.82.6-.01.87-.45.91-.97.06-.68.01-1.38.01-2.26-.2-1.77-.27-3.74-.34-5.71-.03-.68-.18-1.36-.3-2.04-.05-.25-.23-.43-.51-.46-.27-.03-.46.13-.6.35-.24.39-.29.83-.33,1.27-.05.69-.09,1.38-.15,2.06-.02.23.04.57-.23.64-.72.2-1.48.2-2.18,0-.54-.15-.3-.76-.35-1.17-.14-1.12-.22-2.25-.35-3.38-.04-.34-.11-.73-.54-.75-.43-.01-.55.37-.62.71-.12.57-.2,1.16-.3,1.74-.21,1.29.21,2.67-.49,3.9-.05.1-.02.32.06.41.57.68.36,1.5.42,2.27Z"/>
            <path class="cls-79" d="M330.11,170.35c.68-.02,1.36-.11,2.09-.17.17.54.04,1.07,0,1.6-.15,2.01-.22,4.03.06,6.03.08.54-.02,1.38.75,1.36.66-.01.6-.83.64-1.32.18-2.01.31-4.01.43-6.03.12-1.99-.11-1.75,1.77-1.78.3,0,.59,0,.88-.02.62-.07,1.21-.27,1.24-1.01.03-.73-.52-1.05-1.15-1.11-2.21-.2-4.42-.2-6.6.25-.19.04-.38.11-.55.2-.48.25-.76.64-.64,1.2.12.57.54.82,1.08.8Z"/>
            <path class="cls-62" d="M355.32,180.09c.83.07,1.67.09,2.51.14.59.04,1.18.14,1.76.13.54,0,.94-.31,1.08-.85.15-.56-.14-.97-.61-1.21-.34-.18-.73-.32-1.11-.38-.68-.09-1.37-.16-2.06-.14-.79.02-.98-.33-.99-1.06,0-2.16-.08-4.33-.14-6.5-.01-.39-.06-.79-.13-1.17-.06-.32-.28-.52-.61-.54-.33-.02-.57.15-.7.44-.23.55-.36,1.13-.36,1.72-.02,1.28,0,2.56,0,3.84h-.2c0,1.33-.04,2.66.01,3.99.04,1.09.46,1.49,1.55,1.58Z"/>
        </g>
        <g>
            <rect class="cls-35" x="402.84" y="151.96" width="22.05" height="11.49"/>
            <rect class="cls-35" x="416.41" y="169.77" width="15.73" height="11.25"/>
        </g>
        <g>
            <path class="cls-38" d="M292.84,133.4c7.09.3,14.19.25,21.29.17,5.52,0,11.04.01,16.56,0,1.77,0,3.55-.1,5.32-.18,1.2-.06,1.45-.32,1.52-1.52.05-.98.14-1.97.12-2.95-.21-8.58-.21-17.15-.18-25.73,0-.94,0-1.88.04-2.81.03-.67-.16-1-.89-1.02-1.33-.05-2.64-.27-3.98-.27-5.62,0-11.24-.19-16.86-.23-6.21-.04-12.42.14-18.63.22-1.68.02-3.35.06-5.02.27-1.19.15-1.2.12-1.19,1.32.13,8.68.03,17.35-.15,26.03-.03,1.58-.04,3.16.03,4.73.08,1.74.34,1.92,2.02,1.99ZM292.75,106.94c.03-1.67-.14-3.35-.17-5.02-.02-1.05,0-1.07,1.03-1.08,6.85-.1,13.69-.41,20.54-.36,6.9-.05,13.79.29,20.69.34.86,0,.96.36.93,1.05-.22,4.68-.01,9.36-.06,14.04-.05,4.48-.04,8.97.14,13.45.1,2.66.07,2.66-2.54,2.62-6.21-.09-12.42.19-18.63.19-4.83,0-9.65-.13-14.48-.18-2.17-.02-4.33-.03-6.5.03-.78.02-1.1-.28-1.12-.99-.02-1.13-.04-2.27,0-3.4.25-6.9.02-13.8.16-20.69Z"/>
            <path class="cls-49" d="M292.59,131.03c.01.71.34,1.01,1.12.99,2.17-.06,4.34-.06,6.5-.03,4.83.05,9.65.18,14.48.18,6.21,0,12.42-.27,18.63-.19,2.61.04,2.64.04,2.54-2.62-.18-4.48-.18-8.97-.14-13.45.05-4.68-.16-9.36.06-14.04.03-.7-.07-1.05-.93-1.05-6.9-.05-13.79-.39-20.69-.34-6.85-.04-13.7.26-20.54.36-1.02.01-1.06.03-1.03,1.08.04,1.67.21,3.35.17,5.02-.13,6.9.1,13.8-.15,20.69-.04,1.13-.03,2.27,0,3.4ZM321.6,114.08c.02-.64.11-1.27.19-1.9.06-.43.27-.76.74-.79.55-.03.77.36.83.84.08.53.15,1.07.18,1.61.09,1.71.16,3.43.23,5.15q.05,1,1.09,1.03c.49.01.98.01,1.47.03.29.01.59.03.88.09.67.15,1.22.46,1.29,1.22.05.6-.54,1.17-1.39,1.26-.68.08-1.37.01-2.06.01v-.1c-.49,0-.98.02-1.47,0-1.5-.08-1.89-.45-1.95-1.97-.05-1.13-.02-2.26-.02-3.39,0-1.03-.04-2.06-.02-3.09ZM307.92,120.31c.52-2.31,1.07-4.61,1.8-6.86.09-.28.19-.56.32-.83.21-.46.48-.87,1.08-.87.59,0,.91.37,1.1.84.46,1.19.88,2.4,1.31,3.61.07.18.07.39.45.53.47-1.32.94-2.61,1.55-3.86.27-.55.57-1.09,1.28-1.05.71.04.96.61,1.15,1.19.66,1.96,1.28,3.93,1.7,5.96.11.53.2,1.08.04,1.61-.2.69-.82.85-1.38.39-.39-.33-.58-.79-.73-1.26-.33-1.13-.65-2.26-.98-3.4-.54,0-.42.48-.51.75-.41,1.27-.77,2.55-1.15,3.82-.2.64-.49,1.21-1.27,1.24-.64.03-1.09-.42-1.33-1.35-.4-1.57-.66-3.18-1.34-4.89-.55,1.86-1.04,3.54-1.55,5.2-.13.42-.29.83-.49,1.23-.14.28-.41.43-.74.32-.27-.08-.36-.32-.4-.57-.08-.59-.02-1.19.11-1.76ZM299.24,120.79c.48-.92,1.15-1.72,1.81-2.52.48-.58.52-1.06.11-1.7-.48-.74-.83-1.56-1.23-2.35-.13-.26-.24-.54-.33-.82-.1-.34-.13-.73.19-.95.32-.21.66-.06.95.17.63.5,1.04,1.18,1.5,1.81.23.31.35.72.77.89.51-.48.74-1.14,1.12-1.7.14-.2.27-.42.42-.61.64-.82,1.21-1.06,1.71-.74.51.33.49.81-.12,1.81-.46.76-.87,1.56-1.43,2.24-.62.75-.54,1.35,0,2.07.41.54.74,1.16,1.07,1.77.5.93.48,1.56-.02,1.85-.5.3-1.06.09-1.73-.74-.48-.6-.92-1.25-1.43-1.95-.74.83-1.4,1.62-2.11,2.35-.35.37-.76.96-1.35.45-.45-.39-.15-.91.08-1.35Z"/>
            <path class="cls-38" d="M308.21,122.64c.33.1.6-.04.74-.32.2-.39.36-.81.49-1.23.51-1.67,1-3.34,1.55-5.2.69,1.71.94,3.32,1.34,4.89.24.93.69,1.38,1.33,1.35.79-.03,1.08-.61,1.27-1.24.39-1.27.75-2.55,1.15-3.82.09-.28-.03-.75.51-.75.33,1.14.65,2.27.98,3.4.14.48.33.93.73,1.26.56.47,1.17.31,1.38-.39.15-.53.07-1.08-.04-1.61-.42-2.03-1.04-4-1.7-5.97-.19-.58-.44-1.15-1.15-1.19-.71-.04-1.01.5-1.28,1.05-.6,1.24-1.07,2.54-1.55,3.86-.38-.14-.39-.35-.45-.53-.43-1.21-.85-2.42-1.31-3.61-.18-.47-.51-.85-1.1-.84-.6,0-.86.41-1.08.87-.12.27-.23.55-.32.83-.73,2.25-1.28,4.55-1.8,6.86-.13.58-.19,1.17-.11,1.76.03.25.12.48.39.57Z"/>
            <path class="cls-39" d="M299.16,122.14c.59.5.99-.08,1.35-.45.7-.74,1.37-1.52,2.11-2.35.51.71.94,1.35,1.43,1.95.67.83,1.23,1.04,1.73.74.5-.29.52-.92.02-1.85-.33-.61-.65-1.22-1.07-1.77-.55-.72-.62-1.32,0-2.07.56-.68.97-1.48,1.43-2.24.61-1.01.63-1.48.12-1.81-.5-.32-1.08-.08-1.71.74-.15.19-.28.41-.42.61-.38.56-.62,1.22-1.12,1.7-.42-.17-.55-.57-.77-.89-.46-.64-.87-1.32-1.5-1.81-.29-.23-.63-.38-.95-.17-.32.21-.29.6-.19.95.08.28.2.56.33.82.4.79.75,1.61,1.23,2.35.41.64.37,1.12-.11,1.7-.66.79-1.32,1.59-1.81,2.52-.23.44-.53.96-.08,1.35Z"/>
            <path class="cls-42" d="M321.64,120.56c.06,1.52.45,1.89,1.95,1.97.49.03.98,0,1.47,0v.1c.69,0,1.38.06,2.06-.01.85-.1,1.44-.66,1.39-1.26-.07-.76-.62-1.07-1.29-1.22-.29-.06-.58-.08-.88-.09-.49-.02-.98-.02-1.47-.03q-1.05-.03-1.09-1.03c-.08-1.72-.15-3.43-.23-5.15-.03-.54-.11-1.07-.18-1.61-.07-.48-.28-.87-.83-.84-.46.02-.68.36-.74.79-.08.63-.17,1.27-.19,1.9-.02,1.03.01,2.06.02,3.09,0,1.13-.02,2.26.02,3.39Z"/>
        </g>
        <g>
            <rect class="cls-35" x="261.5" y="56.98" width="13.47" height="21.89"/>
            <rect class="cls-35" x="283.55" y="50.86" width="7.51" height="15.52"/>
        </g>
        <g>
            <path class="cls-73" d="M133.98,86.16c-.11,4.39.22,8.77.49,13.15.07,1.21.37,1.42,1.57,1.46.39.01.79,0,1.18,0,8.28-.04,16.56-.1,24.85-.1,5.72,0,11.44.08,17.16.11,1.47,0,1.6-.11,1.84-1.51.04-.24.08-.49.09-.73.11-2.31.27-4.63.31-6.94.06-4.43.07-8.87.07-13.31,0-2.12-.04-4.24-.1-6.36-.03-1.25-.33-1.53-1.59-1.65-.24-.02-.49-.02-.74-.02-7.15,0-14.3,0-21.44,0h0c-6.9,0-13.8-.01-20.7,0-.54,0-1.09,0-1.62.07-.92.14-1.18.41-1.21,1.37-.07,2.41-.3,4.82-.15,7.24.15,2.41.07,4.83.02,7.25ZM135.6,98.2c.27-4.82-.02-9.66.23-14.49.12-2.31.05-4.63-.1-6.95-.09-1.39.11-2.76.1-4.14,0-.41.13-.66.58-.64.25.01.49,0,.74,0,13.75-.17,27.51-.16,41.26,0,1.36.02,1.31-.07,1.31,1.27.01,6.61.04,13.21.04,19.82,0,1.73-.01,3.45.17,5.17.08.76.15.98-.94.97-4.93-.04-9.86-.07-14.79-.1-2.12-.01-4.24,0-6.36,0v.09h-20.41c-.3,0-.6-.03-.89,0-.81.11-.99-.25-.95-1.01Z"/>
            <path class="cls-43" d="M136.55,99.21c.29-.04.59,0,.89,0h20.41v-.09c2.12,0,4.24,0,6.36,0,4.93.03,9.86.05,14.79.1,1.09,0,1.02-.21.94-.97-.19-1.72-.17-3.44-.17-5.17,0-6.61-.03-13.21-.04-19.82,0-1.33.05-1.25-1.31-1.27-13.75-.16-27.51-.17-41.26,0-.25,0-.49.01-.74,0-.46-.02-.59.23-.58.64.01,1.38-.19,2.75-.1,4.14.15,2.31.22,4.64.1,6.95-.25,4.83.04,9.66-.23,14.49-.04.76.14,1.12.95,1.01ZM163.33,90.11c.37-.53.89-.92,1.44-1.25,1.54-.92,2.7-2.27,4.1-3.39-.7-1.12-1.65-1.92-2.47-2.82-.69-.77-1.35-1.56-2.01-2.36-.21-.25-.46-.56-.1-.9.31-.29.63-.21.95-.03.22.12.45.22.63.38,1.55,1.43,3.25,2.72,4.52,4.43.89,1.2.84,1.78-.29,2.78-1.61,1.44-3.06,3.07-4.88,4.27-.16.11-.31.25-.47.36-.48.34-1.01.5-1.47.03-.45-.46-.3-1,.04-1.48ZM153.31,90.57c.03-.34.06-.7.19-1.01,1.45-3.5,2.91-7,4.38-10.49.15-.36.39-.68.63-.99.18-.24.46-.37.81-.4.46.04.79.28.88.79.05.3-.02.58-.16.86-1.78,3.41-2.86,7.13-4.78,10.47-.24.43-.49.86-.77,1.25-.18.25-.49.33-.8.23-.34-.11-.41-.41-.39-.71ZM142.42,84.8c1.91-1.85,3.87-3.63,5.82-5.43.11-.1.23-.19.36-.25.23-.11.48-.12.69.05.24.19.2.44.07.66-.22.38-.45.76-.71,1.11-.9,1.17-1.99,2.17-3.07,3.18-.46.43-.99.79-1.34,1.48,1.47.62,2.63,1.72,4.04,2.41.57.28,1.11.64,1.61,1.02.47.35.72.85.35,1.41-.35.53-.89.62-1.43.36-.8-.38-1.6-.76-2.34-1.24-1.32-.85-2.61-1.75-3.87-2.69-.94-.71-1-1.26-.18-2.06Z"/>
            <path class="cls-55" d="M164.76,91.57c.16-.11.3-.25.47-.36,1.83-1.2,3.27-2.83,4.88-4.27,1.12-1,1.17-1.58.29-2.78-1.27-1.71-2.96-3-4.52-4.43-.18-.16-.41-.26-.63-.38-.32-.17-.64-.26-.95.03-.36.34-.11.65.1.9.65.8,1.32,1.59,2.01,2.36.82.91,1.77,1.7,2.47,2.82-1.4,1.13-2.57,2.47-4.1,3.39-.55.33-1.07.72-1.44,1.25-.34.48-.48,1.02-.03,1.48.46.47.98.31,1.46-.03Z"/>
            <path class="cls-55" d="M142.6,86.87c1.25.94,2.55,1.84,3.87,2.69.74.48,1.54.86,2.34,1.24.54.26,1.08.18,1.43-.36.37-.57.12-1.06-.35-1.41-.51-.38-1.05-.74-1.61-1.02-1.42-.69-2.57-1.79-4.04-2.41.35-.69.88-1.05,1.34-1.48,1.08-1.01,2.16-2,3.07-3.18.27-.35.49-.73.71-1.11.13-.22.16-.47-.07-.66-.21-.17-.46-.16-.69-.05-.13.06-.25.15-.36.25-1.94,1.81-3.91,3.59-5.82,5.43-.82.8-.77,1.35.18,2.06Z"/>
            <path class="cls-77" d="M153.69,91.29c.31.1.61.02.8-.23.29-.4.53-.83.77-1.25,1.91-3.34,3-7.07,4.78-10.47.14-.27.21-.56.16-.86-.09-.51-.42-.75-.88-.79-.35.03-.63.16-.81.4-.24.31-.48.64-.63.99-1.47,3.49-2.93,6.99-4.38,10.49-.13.31-.16.67-.19,1.01-.02.3.05.6.39.71Z"/>
        </g>
        <g>
            <path class="cls-38" d="M225.48,105.78c-4.65,4.26-7.21,9.59-7.2,15.94,0,4.1,1.5,7.83,3.86,11.15,4.31,6.07,10.26,9.22,17.7,9.35,2.67.04,5.27-.69,7.7-1.83,8.17-3.82,12.26-10.43,13.01-19.27,0-.44,0-.89,0-1.33,0-.2-.02-.4-.05-.59-1.04-6.08-3.81-11.14-8.84-14.84-3.55-2.61-7.56-4.14-11.94-4.18-5.43-.05-10.24,1.93-14.24,5.59ZM258.82,117.77c.1.38.22.77.24,1.15.04.69.01,1.38.01,2.07-.27,6.85-3.32,12.22-8.85,16.19-3.36,2.41-7.08,3.89-11.28,3.78-3.48-.09-6.63-1.32-9.54-3.19-4.59-2.94-7.7-7.01-9.15-12.26-.88-3.19-.89-6.41.31-9.57,3.02-7.98,8.66-12.85,17.1-14.35,2.75-.49,5.41.12,7.94,1.15,6.88,2.81,11.31,7.83,13.22,15.04Z"/>
            <path class="cls-70" d="M237.66,101.58c-8.44,1.51-14.08,6.37-17.1,14.35-1.2,3.16-1.18,6.38-.31,9.57,1.45,5.25,4.56,9.32,9.15,12.26,2.91,1.87,6.06,3.09,9.54,3.19,4.19.12,7.92-1.37,11.28-3.78,5.53-3.96,8.58-9.34,8.85-16.19,0-.69.03-1.38-.01-2.07-.02-.39-.14-.77-.24-1.15-1.91-7.21-6.34-12.23-13.22-15.04-2.53-1.03-5.18-1.64-7.94-1.15ZM234.97,127.93c-.18.22-.44.4-.7.53-2.18,1.18-4.87.46-6.21-1.66-2.06-3.25-.71-8.92,2.61-10.88.81-.48,1.68-.86,2.65-.41.27.13.54.29.5.64-.03.3-.33.31-.55.39-3.26,1.2-5.02,4.86-3.92,8.14.59,1.75,1.45,2.24,3.8,2.12.44,0,.89-.03,1.33,0,.68.06.91.58.49,1.11ZM245.04,117.97c.52-1.92,1.66-3.2,3.6-3.73.76-.21,1.47-.07,2.14.28.3.15.65.33.62.74-.04.46-.46.44-.77.51-.24.05-.49.02-.74.05-1.16.16-2.01.78-2.51,1.83-.59,1.21-.27,1.97.99,2.4.46.16.96.22,1.44.31,2.36.42,3.05,1.85,3.3,3.61.26,1.79-.63,3.32-2.36,4.19-1.08.55-2.26.87-3.1.86-.66-.02-1.29-.11-1.69-.72-.49-.73-.26-1.32.61-1.45.97-.15,1.95-.27,2.89-.59,1.34-.45,1.75-1.29,1.36-2.64-.17-.62-.53-1.04-1.18-1.18-.53-.11-1.06-.21-1.59-.32-.89-.19-1.65-.64-2.28-1.29-.77-.8-1.05-1.73-.75-2.84ZM241.39,114.5c.47.06,1.16,0,1.26.54.1.56-.6.46-.97.62-1.32.56-2.39,1.39-2.74,2.87-.23.96-.05,1.3.83,1.77.6.33,1.24.6,1.83.96,1.22.76,2.07,1.78,2.28,3.27.38,2.7-2.24,5.08-4.86,4.34-1.1-.31-1.92-.97-2.04-2.24.62-.22,1.2-.07,1.77.05.59.12,1.18.15,1.76.03.69-.15,1.29-.49,1.51-1.25.23-.79.04-1.47-.58-1.99-.37-.32-.79-.59-1.21-.83-.6-.34-1.23-.61-1.84-.94-.99-.55-1.48-1.41-1.47-2.54.03-2.12,1.67-4.14,3.73-4.58.24-.05.49-.1.73-.07Z"/>
            <path class="cls-38" d="M248.06,122.1c.53.11,1.06.21,1.59.32.64.14,1,.56,1.18,1.18.39,1.36-.03,2.19-1.36,2.64-.94.32-1.92.44-2.89.59-.87.13-1.1.72-.61,1.45.4.61,1.03.7,1.69.72.85.01,2.02-.31,3.1-.86,1.73-.87,2.62-2.4,2.36-4.19-.25-1.75-.94-3.19-3.3-3.61-.48-.09-.98-.15-1.44-.31-1.27-.42-1.58-1.18-.99-2.4.51-1.05,1.35-1.67,2.51-1.83.24-.03.5,0,.74-.05.32-.07.74-.05.77-.51.03-.42-.32-.59-.62-.74-.68-.34-1.38-.49-2.14-.28-1.95.53-3.09,1.81-3.6,3.73-.3,1.12-.03,2.04.74,2.85.63.65,1.39,1.09,2.28,1.29Z"/>
            <path class="cls-86" d="M236.93,119.15c-.01,1.14.47,1.99,1.47,2.54.6.33,1.24.6,1.84.94.43.24.84.52,1.21.83.61.53.81,1.2.58,1.99-.23.76-.82,1.09-1.51,1.25-.58.12-1.17.09-1.76-.03-.57-.12-1.15-.27-1.77-.05.12,1.27.94,1.93,2.04,2.24,2.62.74,5.24-1.64,4.86-4.34-.21-1.5-1.06-2.51-2.28-3.27-.58-.36-1.22-.64-1.83-.96-.88-.48-1.06-.81-.83-1.77.35-1.48,1.42-2.3,2.74-2.87.37-.16,1.07-.06.97-.62-.1-.54-.78-.48-1.26-.54-.24-.03-.49.02-.73.07-2.06.44-3.71,2.46-3.73,4.58Z"/>
            <path class="cls-86" d="M234.48,126.82c-.44-.04-.88,0-1.33,0-2.35.12-3.22-.37-3.8-2.12-1.1-3.28.66-6.95,3.92-8.14.22-.08.52-.09.55-.39.04-.35-.23-.52-.5-.64-.97-.45-1.84-.07-2.65.41-3.32,1.96-4.66,7.63-2.61,10.88,1.34,2.11,4.02,2.84,6.21,1.66.25-.14.52-.31.7-.53.42-.53.19-1.05-.49-1.11Z"/>
        </g>
        <g>
            <path class="cls-89" d="M241.39,169.88c-1.09.09-1.34.31-1.47,1.43-.11.9.15,1.76.29,2.63.27,1.69.32,1.74,2.07,1.75,6.15.03,12.31-.17,18.46.3.78.06,1.58,0,2.36,0v-.06c.59,0,1.18.03,1.77,0,5.76-.32,11.51-.38,17.27.02,1.18.08,2.36.15,3.54.18,1.08.03,1.61-.28,1.71-1.01.14-1.07.28-2.15.28-3.23,0-2.62-.59-3.27-3.19-3.28-5.81-.04-11.62-.11-17.43.05-8.56.23-17.12.49-25.65,1.22ZM277.96,170.42c2.17-.04,4.34-.05,6.5-.05,1.23,0,1.33.11,1.45,1.32.04.39,0,.79-.02,1.18-.02.49.03.99-.22,1.49-1.28-.06-2.56-.1-3.83-.2-5.07-.39-10.14-.39-15.21-.24-3.2.09-6.39.17-9.59,0-4.68-.25-9.36-.08-14.04-.05-.37,0-.91.21-1.04-.28-.19-.7-.47-1.42-.25-2.16.08-.26.4-.24.64-.26.79-.06,1.57-.16,2.36-.16,11.09.06,22.17-.41,33.25-.59Z"/>
            <path class="cls-39" d="M272.68,184.7c.69.04,1.38.04,2.07-.03,1.18-.12,1.54-.49,1.62-1.68.1-1.39-.14-2.74-.52-4.08-.23-.8-.73-1.13-1.5-1.14-.79,0-1.58-.02-2.36.02-6.06.25-12.12.33-18.18.27-3.45-.03-6.9-.09-10.33.32-.63.08-1.33.04-1.82.48-.46.41-.04,1.02-.14,1.54-.15.76-.4,1.52-.27,2.33.27,1.7.43,1.85,2.17,1.85,5.08,0,10.15,0,15.23,0,4.68,0,9.36-.15,14.04.12ZM244.6,183.03c-.29.02-.59.03-.89.03-.9-.02-1.11-.24-1.02-1.17.06-.63.2-1.26.31-1.91,3.51,0,6.9-.06,10.3.01,6.26.13,12.5-.14,18.74-.52,2.48-.15,2.54-.1,2.6,2.42.03,1.12.03,1.15-1.1,1.15-3.2-.02-6.4-.1-9.6-.12-6.44-.03-12.89-.25-19.33.11Z"/>
            <path class="cls-50" d="M242.14,191.86c.16.8.53,1.18,1.36,1.26,2.45.22,4.9.44,7.36.57,4.14.23,8.27-.2,12.41-.04,1.1.04,1.45-.29,1.44-1.37,0-1.08-.1-2.17-.23-3.24-.23-1.94-.72-2.35-2.67-2.34-2.76,0-5.51,0-8.27,0v-.05c-3.59.13-7.17.26-10.76.4-.51.02-.88.34-.84.84.11,1.32-.07,2.65.19,3.97ZM245.03,188.43c2.71,0,5.42,0,8.13,0h0c2.76,0,5.52,0,8.28,0,1.05,0,1.08.02,1.25.99.43,2.57.43,2.52-2.2,2.61-5.27.17-10.54-.09-15.8-.31-1.02-.04-1.02-.05-1.1-1.1-.02-.25-.04-.49-.03-.74,0-1.45.04-1.47,1.48-1.47Z"/>
            <path class="cls-58" d="M244.71,171.01c-.79,0-1.57.1-2.36.16-.24.02-.56,0-.64.26-.22.74.07,1.46.25,2.16.13.49.67.29,1.04.28,4.68-.04,9.36-.21,14.04.05,3.2.17,6.39.1,9.59,0,5.07-.15,10.15-.15,15.21.24,1.27.1,2.55.13,3.83.2.25-.5.2-1,.22-1.49.02-.39.06-.79.02-1.18-.12-1.22-.22-1.32-1.45-1.32-2.17,0-4.33.02-6.5.05-11.08.18-22.16.65-33.25.59Z"/>
            <path class="cls-70" d="M274.64,181.89c-.06-2.52-.12-2.57-2.6-2.42-6.24.38-12.48.65-18.74.52-3.39-.07-6.79-.01-10.3-.01-.11.65-.24,1.28-.31,1.91-.09.93.12,1.15,1.02,1.17.3,0,.59,0,.89-.03,6.44-.36,12.89-.14,19.33-.11,3.2.01,6.4.09,9.6.12,1.13,0,1.13-.03,1.1-1.14Z"/>
            <path class="cls-75" d="M244.69,191.73c5.27.22,10.53.48,15.8.31,2.63-.08,2.63-.04,2.2-2.61-.16-.97-.19-.99-1.25-.99-2.76,0-5.52,0-8.28,0h0c-2.71,0-5.42,0-8.13-.01-1.44,0-1.48.02-1.48,1.47,0,.25.02.49.03.74.08,1.05.08,1.05,1.1,1.1Z"/>
        </g>
        <g>
            <path class="cls-89" d="M437.19,281.27c.15-5.81.08-11.62.05-17.43-.02-2.6-.67-3.2-3.28-3.19-1.08,0-2.16.14-3.23.28-.73.1-1.04.63-1.01,1.71.03,1.18.1,2.36.18,3.54.4,5.76.34,11.51.02,17.27-.03.59,0,1.18,0,1.77h-.06c0,.79-.05,1.58,0,2.36.48,6.15.27,12.3.31,18.46,0,1.75.06,1.8,1.75,2.07.87.14,1.73.39,2.63.29,1.11-.13,1.33-.38,1.42-1.47.74-8.53.99-17.1,1.22-25.65ZM434.84,303.61c0,.79-.1,1.57-.16,2.36-.02.24,0,.57-.26.64-.74.22-1.46-.06-2.16-.25-.49-.13-.29-.67-.28-1.04.04-4.68.21-9.36-.05-14.04-.17-3.2-.1-6.39,0-9.59.15-5.07.14-10.15-.24-15.21-.1-1.27-.13-2.55-.2-3.82.5-.25,1-.2,1.49-.22.39-.02.79-.06,1.18-.02,1.22.12,1.32.22,1.32,1.45,0,2.17-.02,4.34-.05,6.5-.18,11.08-.65,22.16-.59,33.25Z"/>
            <path class="cls-39" d="M421.27,289.68c0,5.08,0,10.15,0,15.23,0,1.75.15,1.9,1.85,2.17.81.13,1.57-.12,2.33-.27.52-.1,1.13.32,1.54-.14.44-.49.4-1.2.48-1.82.41-3.43.36-6.89.32-10.34-.06-6.06.02-12.12.27-18.18.03-.79.02-1.58.02-2.36,0-.77-.35-1.27-1.14-1.5-1.34-.38-2.69-.62-4.08-.52-1.19.08-1.57.44-1.68,1.62-.07.68-.07,1.38-.03,2.07.27,4.68.12,9.36.12,14.04ZM422.93,284.38c-.01-3.2-.09-6.4-.11-9.6,0-1.13.03-1.13,1.14-1.1,2.52.06,2.57.12,2.42,2.6-.38,6.24-.65,12.48-.52,18.73.07,3.39.01,6.79.01,10.3-.65.11-1.27.25-1.91.31-.93.09-1.15-.12-1.17-1.02,0-.3,0-.59.03-.89.36-6.44.14-12.89.11-19.33Z"/>
            <path class="cls-50" d="M417.96,306.36c.51.04.82-.33.84-.84.14-3.59.27-7.17.4-10.76h-.05c0-2.76,0-5.51,0-8.27,0-1.94-.4-2.44-2.34-2.67-1.07-.13-2.16-.22-3.24-.23-1.09,0-1.42.35-1.37,1.45.16,4.14-.27,8.27-.04,12.41.14,2.46.35,4.91.58,7.36.07.83.46,1.21,1.26,1.36,1.32.26,2.65.08,3.97.19ZM415.95,304.76c-.25,0-.49-.02-.74-.03-1.05-.08-1.05-.08-1.1-1.1-.22-5.27-.48-10.53-.31-15.8.08-2.63.04-2.63,2.61-2.2.97.16.99.19.99,1.25v8.28h0c0,2.71,0,5.42,0,8.13,0,1.44-.02,1.47-1.47,1.48Z"/>
            <path class="cls-46" d="M434.84,303.61c0,.79-.1,1.57-.16,2.36-.02.24,0,.57-.26.64-.74.22-1.46-.06-2.16-.25-.49-.13-.29-.67-.28-1.04.04-4.68.21-9.36-.05-14.04-.17-3.2-.1-6.39,0-9.59.15-5.07.14-10.15-.24-15.21-.1-1.27-.13-2.55-.2-3.82.5-.25,1-.2,1.49-.22.39-.02.79-.06,1.18-.02,1.22.12,1.32.22,1.32,1.45,0,2.17-.02,4.34-.05,6.5-.18,11.08-.65,22.16-.59,33.25Z"/>
            <path class="cls-70" d="M423.96,273.68c2.52.06,2.57.12,2.42,2.6-.38,6.24-.65,12.48-.52,18.73.07,3.39.01,6.79.01,10.3-.65.11-1.27.25-1.91.31-.93.09-1.15-.12-1.17-1.02,0-.3,0-.59.03-.89.36-6.44.14-12.89.11-19.33-.01-3.2-.09-6.4-.11-9.6,0-1.13.03-1.13,1.14-1.1Z"/>
            <path class="cls-75" d="M414.12,303.63c-.22-5.27-.48-10.53-.31-15.8.08-2.63.04-2.63,2.61-2.2.97.16.99.19.99,1.25v8.28h0c0,2.71,0,5.42,0,8.13,0,1.44-.02,1.48-1.47,1.48-.25,0-.49-.02-.74-.03-1.05-.08-1.05-.08-1.1-1.1Z"/>
        </g>
        <g>
            <path class="cls-38" d="M36.48,130.88c.08,1.42.2,1.49,1.6,1.53,6.94.22,13.89.42,20.79.63,6.69-.2,13.34-.38,19.99-.62,2.14-.07,2.34.55,2.44-2.51.18-5.37.27-10.74.37-16.1.08-4.58.14-9.16.17-13.74.02-2.02-.02-4.04-.09-6.06-.04-1.11-.41-1.49-1.5-1.64-.68-.09-1.37-.13-2.06-.13-12.86,0-25.72,0-38.58,0-.64,0-1.28.03-1.92.1-1.31.15-1.63.47-1.71,1.75-.06.93-.09,1.87-.08,2.81.09,9.26.13,18.52.4,27.78.06,2.07.06,4.14.19,6.2ZM37.38,130.06c.42-11.38.12-22.77.15-34.15,0-2.05,0-2.04,2-2.04,13.06,0,26.12,0,39.18,0,.3,0,.59,0,.89-.01.44-.02.61.2.61.62,0,.39,0,.79,0,1.18-.04,7.05-.12,14.1-.09,21.14.02,4.38-.05,8.77.24,13.15.08,1.19.05,1.2-1.19,1.22-6.8.1-13.6.2-20.29.3-6.86-.1-13.61-.2-20.37-.3-1.15-.02-1.17-.03-1.13-1.12Z"/>
            <path class="cls-46" d="M38.51,131.18c6.75.1,13.5.2,20.37.3,6.69-.1,13.49-.2,20.29-.3,1.24-.02,1.26-.03,1.19-1.22-.29-4.38-.21-8.77-.24-13.15-.04-7.05.05-14.1.09-21.14,0-.39-.01-.79,0-1.18,0-.42-.16-.64-.61-.62-.3.01-.59.01-.89.01-13.06,0-26.12,0-39.19,0-1.99,0-1.99-.02-2,2.04-.03,11.38.28,22.77-.15,34.15-.04,1.09-.02,1.1,1.13,1.12ZM47.34,108.84c1.1-4.01,3.88-6.62,7.71-7.94,2.62-.9,5.31-.36,7.71.98,4.38,2.43,5.78,6.36,5.26,11.14-.15,1.37-.82,2.51-1.74,3.52-.16.18-.36.33-.36.65.44-.06.87-.16,1.3-.18.49-.02.86.21,1.02.69.18.55-.03,1.03-.52,1.24-1.33.57-2.75.73-4.18.68-.59-.02-.95-.51-1.08-1.08-.34-1.44-.55-2.91-.55-4.39,0-.19.05-.39.1-.58.11-.36.32-.62.72-.64.39-.02.64.21.81.54.32.61.28,1.35.75,2.01.99-.78,1.54-1.78,1.64-2.99.12-1.38.06-2.76-.31-4.11-.73-2.63-2.74-4.01-5.1-4.94-.86-.34-1.82-.42-2.74-.58-.95-.16-1.88-.03-2.74.4-4.41,2.22-7.09,6.24-5.42,11.53.82,2.59,2.5,4.43,4.44,6.13.72.63,1.69.75,2.64.82.42.03.89-.12,1.33.4-1.51.9-3.07.96-4.47.19-5.17-2.85-7.53-8.65-6.21-13.49Z"/>
            <path class="cls-38" d="M53.56,122.32c1.4.77,2.96.71,4.47-.19-.44-.51-.91-.36-1.33-.4-.94-.07-1.91-.19-2.64-.82-1.94-1.7-3.62-3.54-4.44-6.13-1.67-5.29,1-9.31,5.42-11.53.86-.43,1.79-.56,2.74-.4.92.16,1.88.24,2.74.58,2.36.93,4.37,2.31,5.1,4.94.38,1.35.43,2.73.31,4.11-.1,1.21-.64,2.21-1.64,2.99-.47-.66-.44-1.4-.75-2.01-.17-.32-.42-.56-.81-.54-.39.02-.61.29-.72.64-.06.19-.1.39-.1.58,0,1.49.21,2.95.55,4.39.13.56.49,1.06,1.08,1.08,1.43.05,2.86-.12,4.18-.68.49-.21.71-.69.52-1.24-.16-.48-.53-.72-1.02-.69-.43.02-.86.12-1.3.18,0-.32.2-.48.36-.65.92-1.01,1.59-2.15,1.74-3.52.52-4.78-.89-8.71-5.26-11.14-2.4-1.33-5.08-1.88-7.71-.98-3.83,1.32-6.62,3.93-7.71,7.94-1.32,4.84,1.04,10.64,6.21,13.49Z"/>
        </g>
        <g>
            <rect class="cls-35" x="52.63" y="187.12" width="13.46" height="7.76"/>
            <rect class="cls-35" x="63.73" y="173.33" width="4.42" height="5.71"/>
        </g>
        <g>
            <path class="cls-38" d="M72.35,262.15c1.18,0,2.37-.09,3.54-.19,1.27-.11,1.58-.43,1.59-1.65.11-7.69.26-15.38,0-23.07-.07-2.02-.09-4.04-.19-6.06-.09-1.76-.3-1.96-1.99-2.07-1.92-.12-3.84-.25-5.76-.29-7-.13-13.99-.21-20.99-.12-4.24.05-8.48.1-12.71.39-1.87.13-2.07.3-2.17,2.21-.09,1.77-.07,3.55-.14,5.32-.32,7.88-.13,15.77-.03,23.65.01,1.22.33,1.53,1.58,1.67.24.03.49.03.74.05,6.55.37,13.11.12,19.66.15,5.62,0,11.24.01,16.86,0ZM55.38,260.78s0,0,0,0c-6.56,0-13.11-.02-19.67.02-.74,0-.92-.21-.92-.9-.08-7.39-.22-14.78.18-22.17.11-2.02.15-4.04.24-6.06.05-1.2.06-1.23,1.28-1.27,3.89-.12,7.78-.28,11.68-.29,8.57-.01,17.15-.07,25.72.27.15,0,.3,0,.44.01,1.39.06,1.39.06,1.46,1.41.49,9.35.63,18.71.42,28.07-.02.91-.02.9-1.02.9-6.61,0-13.21,0-19.81,0Z"/>
            <path class="cls-49" d="M76.22,259.87c.21-9.36.07-18.72-.42-28.07-.07-1.34-.06-1.34-1.46-1.41-.15,0-.3,0-.44-.01-8.57-.34-17.15-.28-25.72-.27-3.89,0-7.78.17-11.68.29-1.22.04-1.23.07-1.28,1.27-.09,2.02-.13,4.04-.24,6.06-.4,7.38-.26,14.78-.18,22.16,0,.69.18.91.92.9,6.56-.04,13.11-.02,19.67-.02t0,0c6.6,0,13.21,0,19.81,0,1,0,1,0,1.02-.9ZM46.31,244.19c-.7.48-1.5.77-2.33.87-.66.07-.8.38-.78.96.06,1.52.1,3.05.11,4.57,0,.56.17,1.45-.51,1.52-.9.1-.7-.88-.8-1.45-.4-2.38-.55-4.78-.58-7.2.07-1.32.17-2.65.21-3.97.03-.76.42-1.18,1.08-1.42,1.41-.51,3.79.31,4.6,1.57.96,1.49.51,3.51-1.01,4.55ZM57.12,250.5c0,.15-.01.3-.05.44-.09.35-.27.65-.67.69-.4.03-.66-.2-.76-.57-.11-.43-.19-.87-.24-1.3-.04-.39-.03-.79-.04-1.18q-.06-2.18-2.3-1.92c-1.3.15-1.31.15-1.32,1.49,0,.84-.03,1.68-.24,2.49-.09.35-.27.65-.68.66-.49.02-.69-.31-.78-.72-.05-.24-.08-.49-.09-.73-.1-3.3.05-6.6.4-9.88.01-.1,0-.2.04-.29.17-.42.1-1.14.76-1.07.64.07.53.76.54,1.21.04,1.66.01,3.33.01,5.09,1.13-.08,1.96-.18,2.79-.19.64,0,.86-.27.85-.89-.01-1.18-.01-2.37.23-3.53.09-.41.06-1.04.6-1.02.54,0,.54.66.57,1.05.32,3.38.46,6.78.36,10.18ZM66.76,243.92c-.27.94-.93,1.61-1.88,1.94-.42.15-.85.25-1.26.41-.53.21-1.32-.07-1.6.49-.24.49-.12,1.15-.18,1.74-.11.98-.23,1.95-.38,2.92-.04.28-.19.6-.57.54-.26-.04-.41-.27-.45-.52-.12-.83-.28-1.65-.31-2.48-.05-1.38-.01-2.75-.01-4.13h-.06c0-1.52-.02-3.05,0-4.57.02-1.15.37-1.61,1.47-1.88,1.68-.42,3.1.05,4.28,1.31,1.16,1.23,1.39,2.68.94,4.24Z"/>
            <path class="cls-55" d="M56.19,239.27c-.54-.01-.51.61-.6,1.02-.25,1.16-.24,2.35-.23,3.53,0,.62-.21.88-.85.89-.83,0-1.67.11-2.79.19,0-1.76.02-3.43-.01-5.09-.01-.45.1-1.14-.54-1.21-.67-.07-.59.65-.76,1.07-.04.09-.03.19-.04.29-.35,3.29-.49,6.58-.4,9.88,0,.24.04.49.09.73.09.41.29.74.78.72.41-.02.6-.31.68-.66.21-.82.23-1.65.24-2.49.01-1.34.02-1.34,1.32-1.49q2.24-.26,2.3,1.92c.01.39,0,.79.04,1.18.05.44.13.88.24,1.3.1.37.36.6.76.57.4-.04.58-.33.67-.69.04-.14.04-.29.05-.44.1-3.4-.03-6.79-.36-10.18-.04-.4-.04-1.04-.58-1.05Z"/>
            <path class="cls-60" d="M61.54,238.37c-1.1.28-1.45.73-1.47,1.88-.02,1.52,0,3.05,0,4.57h.06c0,1.38-.04,2.75.01,4.13.03.83.19,1.66.31,2.48.04.25.19.49.45.52.38.06.53-.26.57-.54.15-.97.27-1.95.38-2.92.07-.58-.06-1.25.18-1.74.28-.56,1.06-.29,1.6-.49.41-.16.85-.26,1.26-.41.94-.33,1.61-1,1.88-1.94.45-1.56.21-3.01-.94-4.25-1.18-1.25-2.6-1.73-4.28-1.31ZM65.2,243.08c-.11.51-.39.91-.88,1.1-.41.16-.84.28-1.27.37-.96.19-1.03.15-1.08-.78-.03-.44,0-.88,0-1.32h-.07c0-.34,0-.69,0-1.03.01-1.04.3-1.29,1.31-1.15,1.22.16,2.24,1.62,1.99,2.82Z"/>
            <path class="cls-57" d="M42.72,238.08c-.65.24-1.05.66-1.08,1.42-.04,1.32-.14,2.65-.21,3.97.03,2.41.18,4.82.58,7.2.1.57-.11,1.54.8,1.45.68-.07.51-.96.51-1.52,0-1.52-.06-3.05-.11-4.57-.02-.58.12-.89.78-.96.83-.09,1.62-.39,2.33-.87,1.53-1.04,1.98-3.06,1.02-4.55-.81-1.26-3.19-2.08-4.61-1.57ZM45.58,242.66c-.62.51-1.38.71-2.3.9,0-1.1.01-2.07,0-3.05,0-.57.24-.78.8-.76.68.02,1.25.31,1.72.74.65.58.53,1.57-.22,2.18Z"/>
            <path class="cls-49" d="M63.21,240.26c-1.01-.14-1.3.11-1.31,1.15,0,.34,0,.69,0,1.03h.07c0,.44-.02.88,0,1.32.06.93.12.98,1.08.78.43-.09.86-.2,1.27-.37.49-.19.77-.59.88-1.1.26-1.2-.77-2.66-1.99-2.82Z"/>
            <path class="cls-49" d="M44.08,239.74c-.56-.02-.81.19-.8.76.02.98,0,1.96,0,3.05.92-.19,1.68-.38,2.3-.9.75-.62.87-1.6.22-2.18-.48-.43-1.05-.71-1.73-.74Z"/>
        </g>
        <g>
            <rect class="cls-35" x="28.01" y="315.24" width="14.65" height="13.57"/>
            <rect class="cls-35" x="44.28" y="296.5" width="8.62" height="9.15"/>
        </g>
        <g>
            <path class="cls-22" d="M88.75,399.16c-.72-.11-1.44-.23-2.16-.31-1.88-.22-3.25-1.59-3.32-3.44-.06-1.84.09-3.68.38-5.51.3-1.86,1.14-3.29,3.05-3.99-.71-.81-1.39-1.56-2.03-2.35-4.1-5-6.37-10.83-7.85-17.04-.98-4.13-1.38-8.33-1.42-12.56-.07-8.26.26-16.5,1.02-24.73.46-4.98.81-9.98,1.85-14.88,1.77-8.39,4.39-16.5,8.38-24.12,3.18-6.08,7.65-11.08,12.9-15.43,5.06-4.19,10.71-7.37,16.82-9.73,5.07-1.95,10.06-4.1,15.29-5.61,2.8-.81,5.64-1.45,8.5-1.96.79-.14,1.16-.4,1.19-1.27.1-2.91.26-5.82.45-8.73.05-.73-.33-.9-.88-1.08-3.23-1.07-6.39-2.32-9.38-3.95-9.25-5.02-15.9-12.41-20.08-22.08-2.37-5.49-3.54-11.27-4.65-17.09-.04-.24-.07-.48-.11-.72-.1-.72-.04-1.53-.35-2.14-.36-.7-1.31-.33-1.98-.59-1.57-.61-2.77-1.63-3.5-3.12-1.97-4.04-1.44-7.91.98-11.59.54-.81,1.27-1.49,2.18-1.88.55-.24.79-.54.82-1.18.38-6.73,2.11-13.1,5-19.17.12-.26.22-.54.34-.81-.45-.26-.87.02-1.29,0-.76-.05-1.16-.49-1.03-1.26.07-.42.22-.85.43-1.23,2.21-3.86,4.83-7.35,8.17-10.35,4.4-3.96,9.31-7.14,14.46-9.99.12-.07.23-.16.33-.24.02-.41-.38-.4-.56-.61-.44-.51-.35-.98.12-1.4.51-.46,1.12-.77,1.74-1.04,6.85-3.04,13.98-4.93,21.51-5.19,5.94-.21,11.85-.06,17.69,1.13,4.45.9,8.65,2.52,12.79,4.35.18.08.34.18.51.29,1.35.84,1.39,1.32.19,2.38.18.39.58.47.9.65,4.07,2.29,8.01,4.75,11.64,7.71,3.8,3.1,7.09,6.62,9.6,10.84.45.75.93,1.49,1.19,2.33.36,1.13-.06,1.65-1.27,1.61-.28,0-.56-.2-.85,0-.14.43.17.74.32,1.06,2.83,6.04,4.58,12.37,4.88,19.05.02.42.09.72.51.93,3.31,1.67,4.25,4.74,4.64,8.07.21,1.76-.16,3.48-.92,5.1-.99,2.12-2.54,3.56-4.95,3.79-.76.07-.84.47-.91,1.02-.47,3.76-1.28,7.46-2.21,11.13-2.72,10.8-8.18,19.86-17.13,26.66-4.3,3.26-9.15,5.47-14.21,7.25-1.79.63-1.76.61-1.63,2.59.15,2.42.22,4.85.34,7.27.06,1.27.07,1.29,1.24,1.49,6.29,1.1,12.34,2.99,18.23,5.44,2.37.99,4.8,1.84,7.18,2.82,6.66,2.76,12.65,6.56,17.94,11.48,5.49,5.11,9.71,11.09,12.54,18.03,2.77,6.8,5.1,13.74,6.32,21.01.76,4.5,1.16,9.05,1.56,13.6.71,8.13,1.02,16.28.94,24.45-.06,5.98-.99,11.79-2.91,17.45-1.75,5.17-4.29,9.87-8.14,13.8-.06.07-.1.17-.19.34,2.14.78,2.88,2.55,3.12,4.61.15,1.25.17,2.52.29,3.77.19,1.88-.52,3.3-2.09,4.32-.74,1.22-2.06,1.03-3.14,1.1-2.71.16-5.41.43-8.13.4-7.13-.09-14.25.23-21.38.36-4.75.09-9.51-.07-14.25.24-6.26.41-12.51.02-18.76.3-3.15.14-6.3.38-9.44.21-6.93-.36-13.87-.03-20.8-.34-4.61-.21-9.22.04-13.81-.26-5.09-.32-10.19,0-15.27-.31-4.17-.25-8.34-.15-12.5-.23-1.31-.02-2.6-.33-3.91-.35-.46,0-.85-.18-1.11-.58Z"/>
            <path class="cls-31" d="M88.75,399.16c4.89.25,9.79.29,14.69.38,8.54.16,17.09.35,25.63.51,10.05.18,20.1.51,30.15.47,12.72-.06,25.44-.43,38.16-.66,8.45-.16,16.9-.28,25.34-.5,2.85-.07,5.72-.14,8.54-.74.05.29.19.54.38.77,1.59,1.99.89,4.28-1.55,5.24-1.73.69-3.55.93-5.37,1.23-4.91.8-9.87.54-14.81.58-5.04.04-10.08.44-15.13.27-4.79-.17-9.59.08-14.38,0-2.03-.03-4.07.05-6.1-.2-1.29-.16-2.61-.14-3.92.1-.57.11-1.16.08-1.74.08-7.13.02-14.27-.13-21.4.08-15.04.46-30.08.17-45.12.19-2.95,0-5.91-.17-8.86-.3-1.82-.08-3.69-.3-5.34-1.23-1.95-1.1-1.96-1.96-1.71-3.88.1-.76.65-1.27,1.32-1.65.42-.24.83-.5,1.24-.75Z"/>
            <path class="cls-27" d="M206.52,319.42c-.45,1-.54,2.04-.59,3.08-.4,8.58-.72,17.17-1.23,25.75-.26,4.41-.99,8.79-2.35,13.01-.91,2.8-2.4,5.29-4.49,7.39-.42.42-.72.48-1.2.05-1.48-1.33-3.28-1.85-5.23-1.88-2.43-.03-4.81-.6-7.23-.77-3.39-.24-6.79-.52-10.18-.26-3.78.3-6.27,2.38-7.4,6.01-.74,2.38-1.18,4.8-1.26,7.3-.04,1.26-.15,2.52-.2,3.78-.02.64-.31.79-.91.79-3.93-.02-7.87-.03-11.8,0-.73,0-1.04-.17-1.06-.95-.04-1.7-.15-3.4-.27-5.09-.15-2.09-.57-4.14-1.26-6.12-1.3-3.71-4.03-5.71-8.04-5.78-3.4-.07-6.78.11-10.17.41-2.32.2-4.6.71-6.94.71-1.73,0-3.36.58-4.67,1.77-.6.54-.94.43-1.43-.08-1.94-2.04-3.4-4.37-4.27-7.03-1.54-4.69-2.24-9.55-2.54-14.45-.32-5.18-.45-10.38-.69-15.57-.15-3.3-.35-6.59-.51-9.89-.04-.76-.13-1.5-.51-2.43-.56,1.02-.5,1.95-.59,2.82-.29,2.7-.45,5.42-.45,8.14,0,5.97-.17,11.95.12,17.92.22,4.62.92,9.17,2.27,13.61.6,1.98,1.5,3.78,2.79,5.4,1.05,1.32,1.83,2.88,3.26,3.88.38.27.23.58.08.9-1.12,2.31-1.54,4.8-1.83,7.31-.21,1.79-.12,3.59,0,5.38.06.87.02.9-.87.81-5.81-.59-11.63-.59-17.45-.24-1.99.12-3.98.13-5.96.35-1.31.14-2.24-.33-3.13-1.17-1.92-1.82-3.46-3.95-4.74-6.24-3.25-5.81-5.07-12.08-5.63-18.68-.57-6.69-.43-13.39-.1-20.09.33-6.79.85-13.56,1.71-20.31.85-6.68,2.74-13.09,4.96-19.43,5.52-15.8,16.57-26.16,31.81-32.39,3.32-1.36,6.69-2.61,9.95-4.12,1.09-.5,1.11-.22,1.58.51,3.24,5.01,7.44,9.08,12.38,12.36,3.07,2.04,6.53,3.14,10.13,3.89,7.07,1.47,14,.95,20.81-1.36,2.68-.91,5.13-2.3,7.36-4.07,4.02-3.19,7.66-6.73,10.36-11.14.24-.38.47-.62.93-.4,6.07,2.92,12.62,4.77,18.48,8.21,11.05,6.49,19.04,15.5,23.42,27.62,2.31,6.4,4.26,12.9,5.2,19.67.56,4.04.93,8.1,1.25,12.17.6,7.51.83,15.02.77,22.56-.05,6.36-.87,12.58-3.03,18.59-1.38,3.82-3.19,7.39-5.75,10.56-.24.3-.48.61-.74.9-2.11,2.33-2.55,2.5-5.69,2.26-5.04-.38-10.08-.59-15.13-.46-2.04.05-4.07.18-6.11.33-1.67.12-1.67.16-1.58-1.57.16-2.98-.07-5.91-.82-8.81-.26-.99-.56-1.96-1.02-2.88-.26-.52-.16-.82.25-1.24,2.77-2.85,5.03-6,6.08-9.93,1.03-3.81,1.73-7.68,1.92-11.61.41-8.3.37-16.6-.05-24.9-.08-1.63-.13-3.29-.78-4.88Z"/>
            <path class="cls-14" d="M110.67,195.91c-.76.33-1.5.73-2.06,1.32-1.53,1.63-4.46,1.28-5.88-1.24-1-1.78-1.1-3.7-.83-5.66.22-1.66.85-3.18,1.85-4.54.57-.77,1.3-1.3,2.26-1.47,1.64-.3,2.46.16,3,1.74.44,1.29.8,2.6,1.07,3.93.31,1.51.32,1.51,1.93,1.49,1.12-.01,2.24.02,3.35-.03,1.16-.05,1.32-.21,1.55-1.32.12-.57.22-1.14.28-1.72.36-3.66,1.8-6.93,3.59-10.07,1.65-2.91,3.45-5.74,5.42-8.46.78-1.07.82-1.11,1.93-.44,7.02,4.22,14.79,5.97,22.77,7.06,2.89.4,5.79.71,8.7.53,8.08-.49,16.01-1.77,23.54-4.9,1.92-.8,3.73-1.86,5.56-2.86.61-.33.99-.43,1.44.22,3.12,4.51,6.25,9.02,8.2,14.21.66,1.75.92,3.56,1.18,5.39.33,2.34.35,2.35,2.72,2.38.92,0,1.85.02,2.77.02,1.1,0,1.23-.11,1.45-1.19.29-1.43.76-2.81,1.11-4.22.38-1.54,1.4-2.02,3.14-1.74.8.13,1.42.6,1.95,1.2,2.23,2.53,2.86,7.33,1.3,10.29-.69,1.31-1.72,2.22-3.28,2.36-.92.08-1.73-.15-2.42-.76-.68-.6-1.42-1.12-2.35-1.54-.13,1.5.65,2.53,1.63,3.15,1.17.74,1.01,1.5.75,2.57-.93,3.67-1.68,7.38-2.66,11.04-1.58,5.9-3.94,11.46-7.75,16.32-4.36,5.58-9.76,9.82-16.2,12.76-3.54,1.61-7.16,3.02-10.97,3.84-5.49,1.18-11.04,1.42-16.65,1.12-8.02-.43-15.46-2.79-22.41-6.66-8.79-4.91-15.06-12.08-18.72-21.52-1.68-4.32-2.64-8.82-3.71-13.3-.34-1.42-.62-2.85-1.02-4.24-.2-.71-.17-1.16.54-1.56.82-.46,1.34-1.26,1.79-2.07.22-.41.52-.84.17-1.41Z"/>
            <path class="cls-28" d="M110.49,159.82c-.06-.22.03-.4.14-.55,1.88-2.71,3.81-5.36,6.25-7.65,5.01-4.7,10.76-8.26,16.78-11.45.21-.11.44-.21.63-.36.69-.54.71-1.04.07-1.69-.16-.16-.43-.23-.48-.5,14.15-6.44,35.57-6.13,48.77,0-1.33,1.41-1.25,1.74.56,2.68,4.84,2.51,9.44,5.41,13.69,8.81,3.55,2.84,6.54,6.21,8.99,10.05.1.16.16.34.24.52-.4.36-.75.1-1.1.03-.45-.09-.88-.09-1.2.29-.37.45-.23.91.01,1.36.07.13.14.26.2.39,3.21,6.14,5.08,12.68,5.87,19.55.14,1.24.14,1.26-1,1.63-.99.32-1.63.99-2.1,1.89-.67,1.31-1.16,2.68-1.48,4.1-.19.83-.59,1.15-1.41,1.07-.9-.09-1.98.55-2.66-.12-.6-.59-.28-1.66-.36-2.52-.3-3.4-1.51-6.52-3.13-9.48-1.73-3.15-3.65-6.19-5.83-9.06-.32-.42-.66-.84-1.01-1.24-.79-.87-1.3-.98-2.3-.46-1.34.69-2.68,1.37-3.97,2.14-1.64.97-3.37,1.71-5.18,2.28-5.81,1.84-11.79,2.87-17.83,3.46-4.57.45-9.11-.14-13.62-.91-3.45-.6-6.85-1.37-10.22-2.31-3.22-.9-6.03-2.65-8.96-4.15-.35-.18-.67-.4-1.02-.56-.92-.42-1.38-.33-2.08.39-.2.21-.39.44-.56.67-2.81,3.61-5.27,7.45-7.29,11.56-1.43,2.91-2.23,5.99-2.33,9.24-.04,1.18-.11,1.23-1.28,1.17-.87-.05-1.86.08-2.56-.31-.67-.38-.56-1.48-.86-2.23-.31-.77-.61-1.53-.91-2.3-.49-1.25-1.29-2.16-2.68-2.41-.61-.11-.75-.47-.68-1.05.78-6.96,2.61-13.62,5.84-19.86.09-.17.19-.34.28-.51.24-.45.4-.9.06-1.37-.34-.48-.82-.45-1.31-.32-.32.08-.64.2-.98.07Z"/>
            <path class="cls-14" d="M143.38,247.35c10,2.12,19.84,2.11,29.72.03.26.36.08.8.09,1.22.03,2.62.03,5.24.08,7.86.03,1.61.27,1.86,1.86,2.3,1.02.28,2.06.53,3.05.78.13.51-.23.68-.44.91-1.46,1.48-2.84,3.05-4.56,4.27-4.35,3.09-9.3,4.51-14.49,5.21-1.1.15-2.22-.15-3.31-.39-4.24-.94-8.34-2.21-11.91-4.81-1.94-1.41-3.49-3.19-5.24-4.98.76-.52,1.55-.5,2.26-.73.41-.14.85-.2,1.27-.32,1.26-.37,1.48-.58,1.56-1.92.17-2.86.24-5.72.12-8.58-.01-.23-.02-.47-.04-.83Z"/>
            <path class="cls-14" d="M141.61,383.23c.11,2.28.23,4.56.32,6.83.05,1.23-.08,1.42-1.27,1.71-1.33.32-2.68.38-4.05.39-.76,0-1.08-.36-1.16-1.01-.13-1.11-.31-2.22-.3-3.33.03-3.64-.27-7.27-.41-10.91-.01-.38-.09-.77-.17-1.15-.08-.37-.32-.6-.71-.61-.46-.01-.72.26-.79.69-.07.43-.08.87-.11,1.3-.29,4.07-.18,8.15-.29,12.23-.05,2.01-.32,2.32-2.36,2.5-.48.04-.97.07-1.45.06-1.56-.03-2.23-.55-2.47-2.08-.19-1.24-.34-2.51-.34-3.76-.01-2.87-.21-5.72-.31-8.58-.01-.34-.02-.69-.11-1.01-.1-.35-.02-.9-.52-.92-.52-.03-.48.5-.56.86-.07.33-.15.67-.18,1-.34,4.35-.89,8.7-.06,13.05.13.69-.13,1.01-.73,1.16-.47.11-.95.23-1.43.26-2.85.22-3.34-.32-3.71-2.8-.43-2.79-.63-5.59-.55-8.42.06-2.1.36-4.16.9-6.18.59-2.23,1.7-4.12,3.79-5.29.69-.39,1.41-.63,2.21-.68.77-.05,1.55-.15,2.32-.17,4.65-.11,9.29-.65,13.95-.52.58.02,1.17.02,1.74.1,2.24.35,3.85,1.52,4.66,3.68.93,2.47,1.45,5.03,1.58,7.67.14,2.76.21,5.52.31,8.29.09,2.44-.92,3.54-3.37,3.73-.15.01-.29.02-.44.02-1.44.04-1.4.04-1.51-1.39-.3-3.72-.65-7.44-.97-11.16-.1-1.11-.18-2.23-.28-3.33-.04-.39-.1-.84-.6-.86-.59-.02-.67.46-.68.92-.03.97-.05,1.94-.06,2.91,0,1.6,0,3.2,0,4.8.05,0,.1,0,.15,0Z"/>
            <path class="cls-14" d="M167.37,383.61c.14-2.66.07-5.35.65-7.97.26-1.18.54-2.37.93-3.51.95-2.79,2.81-4.14,5.78-4.25,1.31-.05,2.62-.07,3.93,0,4.21.19,8.42.44,12.64.64,2.78.13,4.58,1.67,5.77,4.04,1.02,2.02,1.32,4.26,1.52,6.48.32,3.5.07,6.98-.5,10.44-.08.47-.25.93-.4,1.39-.16.5-.51.81-1.02.94-1.31.33-2.6.19-3.87-.22-.5-.16-.66-.46-.56-.99.9-4.55.32-9.09-.12-13.62-.05-.5.06-1.4-.7-1.36-.59.03-.49.88-.52,1.37-.15,2.66-.28,5.33-.34,7.99-.04,1.56-.12,3.1-.35,4.64-.28,1.83-.86,2.32-2.69,2.33-.15,0-.29,0-.44,0-2.82-.09-3.11-.39-3.16-3.2-.07-3.54-.14-7.08-.23-10.63-.02-.73-.11-1.45-.18-2.17-.04-.43-.25-.76-.71-.79-.54-.04-.78.31-.85.8-.04.29-.05.58-.07.87-.23,3.63-.51,7.26-.47,10.91.01,1.12-.08,2.23-.26,3.33-.12.72-.4,1.12-1.23,1.1-1.32-.02-2.62-.08-3.9-.37-1.27-.29-1.4-.48-1.36-1.78.14-3.73.3-7.47.43-11.2.04-1.02.02-2.04,0-3.06,0-.46.06-1.09-.6-1.14-.71-.05-.65.57-.69,1.04-.27,3.24-.54,6.48-.81,9.71-.15,1.74-.32,3.48-.46,5.22-.04.55-.28.77-.82.76-.73-.03-1.46,0-2.17-.21-1.76-.53-2.35-1.33-2.34-3.18,0-.44.01-.87.03-1.31.04-1.01.09-2.03.13-3.05Z"/>
            <path class="cls-10" d="M159.67,398.3c-11.02-.17-20.73-.32-30.44-.45-11.36-.16-22.72-.3-34.08-.47-2.47-.04-4.95-.17-7.42-.31-1.75-.1-2.38-.81-2.47-2.57-.08-1.56.05-3.1.31-4.64.2-1.18.85-1.93,2.04-2.17.47-.1.96-.18,1.44-.2,8.68-.39,17.37-.66,26.06-.54.24,0,.49.02.7.11.18.07.23.29.21.5-.02.18-.16.24-.29.25-.34.03-.68.05-1.02.04-4.03-.01-8.06-.06-12.08.27-3.97.32-7.95.39-11.92.6-.1,0-.19.02-.29.02-2.74.21-3.81,1.58-3.45,4.33.07.53.31.78.82.82,1.01.09,2.03.21,3.04.27,8.44.49,16.88.4,25.33.34,7.23-.05,14.46-.3,21.7-.34,2.9-.02,5.82-.21,8.72-.36,1.85-.1,3.69-.04,5.53-.07,4.56-.07,9.12.01,13.69.03,1.65,0,3.29.02,4.95.08,10.33.34,20.66.63,31,.66,5.87.02,11.75.21,17.62-.05,3.01-.13,6.01-.32,9.01-.51,1.2-.08,1.46-.37,1.3-1.56-.45-3.44-.79-3.55-3.71-3.65-7.95-.28-15.89-1.1-23.86-.89-.39.01-.78,0-1.16-.04-.21-.02-.32-.19-.31-.41.01-.21.11-.39.32-.43.23-.04.48-.02.73-.02,6.7-.04,13.4-.03,20.09.29,1.89.09,3.78.15,5.67.23.58.02,1.15.1,1.72.25.99.27,1.59.89,1.81,1.88.4,1.82.45,3.66.32,5.51-.08,1.15-.84,1.86-2.15,1.94-2.32.15-4.65.29-6.98.33-16.94.24-33.88.44-50.83.68-4.32.06-8.64.18-11.65.25Z"/>
            <path class="cls-30" d="M129.34,262.04c2.11-.79,4.32-1.3,6.5-1.89.48-.13.79.01,1.09.44,3.91,5.48,9.36,8.62,15.75,10.29,4.29,1.12,8.57.93,12.77-.44,1.84-.6,3.66-1.29,5.39-2.19,3.42-1.78,6.28-4.23,8.56-7.32.52-.7.97-.95,1.79-.69,1.99.61,4.04,1.05,5.98,1.76.21.43-.1.67-.29.92-3.09,4.23-6.71,7.94-11.04,10.9-3.18,2.17-6.81,3.2-10.55,3.97-7.54,1.56-14.76.56-21.78-2.43-2.31-.98-4.24-2.54-6.14-4.13-2.76-2.32-5.17-4.98-7.34-7.86-.23-.31-.44-.64-.65-.96-.04-.08-.03-.19-.05-.36Z"/>
            <path class="cls-33" d="M157.93,392.08c-.63-.1-1.61.24-2.54-.19.02-.92.04-1.83.08-2.75.05-1.05.08-1.09,1.07-1.11,1.21-.02,2.43.01,3.64-.01.58-.01.91.15.93.79.03.87.09,1.74.17,2.61.05.55-.25.66-.7.66-.78,0-1.56,0-2.65,0Z"/>
            <path class="cls-32" d="M223.03,392.79c-.65.27-1.28.15-1.9.14-1.21-.02-2.41-.11-3.62-.14-.47-.01-.73-.18-.73-.67,0-.1-.01-.19-.02-.29-.13-2.23-.45-1.93,1.77-1.91,1.06,0,2.13.02,3.19-.01.64-.02.99.2,1.04.88.05.67.17,1.33.26,2.01Z"/>
            <path class="cls-21" d="M96.6,392.93c-.34,0-.68,0-1.02,0-2.43-.02-2.03.42-1.77-2.06.07-.7.37-1,1.11-.98,1.45.04,2.9,0,4.35-.01.47,0,.68.1.66.66-.07,2.15-.05,2.15-2.19,2.27-.39.02-.77.06-1.16.09,0,.01,0,.02,0,.03Z"/>
            <path class="cls-6" d="M101.21,392.77q.34-3,3.03-3.18c.82-.06,1.65-.08,2.47-.1.14,0,.27.06.46.1-.04.77-.11,1.53-.12,2.29,0,.58-.15.9-.82.89-1.64-.03-3.28,0-5.03,0Z"/>
            <path class="cls-33" d="M209.37,389.54c1.76-.15,3.39.11,5.02.21.43.02.54.31.6.68.13.71.3,1.42.46,2.2-1.18.32-2.33.11-3.46.14-.72.02-1.57.27-2.13-.14-.6-.44-.19-1.36-.37-2.05-.07-.28-.07-.57-.13-1.05Z"/>
            <path class="cls-19" d="M203.01,389.51c1.56-.18,2.91-.15,4.26-.15.53,0,.77.21.8.77.04.82.16,1.64.26,2.55-1.46,0-2.9,0-4.34,0-.51,0-.65-.29-.68-.74-.05-.77-.04-1.54-.29-2.43Z"/>
            <path class="cls-17" d="M111.18,389.35c.68.11,1.66-.28,2.15.25.5.54-.14,1.46-.06,2.22.06.61-.22.87-.84.87-1.11,0-2.23.02-3.34.08-.78.05-.92-.31-.74-.96.05-.19.05-.39.1-.57.16-.56-.17-1.32.24-1.68.51-.46,1.3-.14,1.97-.2.14-.01.29,0,.51,0Z"/>
            <path class="cls-26" d="M158.28,385.74c1.36,0,2.72,0,4.08,0,.44,0,.88-.06,1.31.02.49.09,1.36-.37,1.33.6-.03.84-.8.46-1.27.48-1.11.05-2.21-.02-3.32,0-2.61.06-5.23.02-7.84.02-.15,0-.29,0-.44,0-.35-.02-.51-.21-.5-.56,0-.36.21-.52.54-.53.58-.02,1.16-.02,1.75-.02,1.46,0,2.91,0,4.37,0Z"/>
            <path class="cls-18" d="M166.91,392.07c-1.46,0-2.65,0-3.83,0-.45,0-.57-.29-.56-.68.01-.77.01-1.55.05-2.33.02-.36-.2-.86.3-1.01.6-.18,1.24-.29,1.86-.1.2.06.28.27.27.47-.04,1.46.65,2.57,1.91,3.65Z"/>
            <path class="cls-17" d="M228.49,393.04c-1.2,0-2.4,0-3.59,0-.33,0-.56-.18-.58-.52-.04-.81-.38-1.6-.26-2.4.4-.26.79-.17,1.17-.17,2.89.01,2.96.07,3.26,3.1Z"/>
            <path class="cls-17" d="M89.99,393.1c-.15,0-.29,0-.44,0q-1.61.06-1.25-1.56c.29-1.36.4-1.45,1.83-1.55.14-.01.29-.02.43-.02,2.14-.03,2.19-.37,1.79,2.09-.14.83-.45,1.07-1.2,1.02-.39-.03-.78,0-1.16,0,0,.01,0,.02,0,.03Z"/>
            <path class="cls-17" d="M149.99,392.06c1-1.03,1.59-2.1,1.62-3.44.01-.55.23-.81.79-.74.38.04.77.08,1.15.12.35.03.48.24.48.58,0,.92.01,1.84.03,2.75,0,.46-.15.73-.65.73-1.14,0-2.28,0-3.42,0Z"/>
            <path class="cls-5" d="M199.45,392.52c.28-.95.54-1.77.76-2.59.14-.49.51-.51.9-.5.48.01.45.37.49.71.09.8.22,1.58.34,2.44-.85.13-1.6.11-2.5-.06Z"/>
            <path class="cls-15" d="M115.69,392.66c-1.06,0-1.09-.04-.93-1.05.08-.48.15-.95.2-1.43.04-.33-.02-.72.47-.74.45-.02.88-.02.98.58.07.38.15.76.3,1.12.53,1.26.81,1.5-1.03,1.52Z"/>
            <path class="cls-29" d="M158.28,214c3.79-.07,7.57.09,11.35.35,1.19.08,1.39.19,1.41,1.36.08,7.05-4.21,12.79-11.41,13.4-4.61.4-8.56-.99-11.43-4.76-1.92-2.52-2.66-5.47-2.64-8.61,0-1.17.21-1.31,1.38-1.39,3.78-.26,7.56-.43,11.35-.36Z"/>
            <path class="cls-24" d="M135.68,199.66c-.05-.71.09-1.42.43-2.07.68-1.3,2.18-1.41,3.09-.26.88,1.11,1.05,3.45.34,4.69-.38.68-.91,1.11-1.74,1.1-.82-.02-1.35-.48-1.68-1.17-.34-.71-.47-1.47-.44-2.29Z"/>
            <path class="cls-3" d="M180.92,199.8c-.03.68-.08,1.35-.36,1.98-.33.76-.84,1.3-1.72,1.34-.88.04-1.48-.43-1.82-1.19-.7-1.58-.53-3.15.38-4.56.83-1.28,2.45-1.08,3.14.31.33.67.38,1.39.38,2.12Z"/>
            <path class="cls-25" d="M209.54,193.38c-.79-1.47-.49-2.81.33-4.09.26-.41.62-.75,1.15-.79.46-.03.88.25.68.66-.57,1.17-.67,2.51-1.37,3.62-.15.24-.33.47-.79.59Z"/>
            <path class="cls-25" d="M107.09,193.47c-.78-.42-1.04-.98-1.24-1.58-.28-.83-.43-1.7-.87-2.46-.17-.29-.18-.55.09-.78.25-.21.54-.2.82-.08.42.17.73.48.96.86.75,1.24.89,2.53.25,4.04Z"/>
            <path class="cls-12" d="M161.09,206.44c-.05.34-.26.43-.52.37-.56-.13-1.12-.31-1.68-.42-.99-.19-1.91.13-2.83.41-.19.06-.41.03-.51-.15-.1-.17-.04-.37.08-.54,1.06-1.57,4.29-1.6,5.33-.04.08.11.1.26.14.37Z"/>
            <path class="cls-4" d="M158.3,395.13c.48,0,.97-.05,1.44.01.46.06.8.35.77.88-.03.51-.35.8-.84.81-.91.03-1.83.03-2.74,0-.49-.02-.81-.31-.84-.81-.03-.52.32-.81.78-.88.47-.07.95-.02,1.43-.02Z"/>
            <path class="cls-11" d="M168.32,396.93c-.62-.04-1.25-.04-1.86-.13-.4-.06-.72-.34-.66-.8.05-.43.37-.66.8-.67,1.16-.04,2.3.12,3.43.32.3.05.52.27.52.6,0,.4-.27.61-.64.63-.53.03-1.05,0-1.58,0,0,.01,0,.02,0,.04Z"/>
            <path class="cls-9" d="M148.15,396.89c-.48,0-.97.02-1.45,0-.31-.02-.56-.18-.61-.52-.06-.4.15-.69.52-.74,1.14-.16,2.29-.37,3.46-.28.37.03.65.23.71.61.07.46-.2.74-.61.84-.66.17-1.34.08-2.02.09Z"/>
            <path class="cls-23" d="M159.24,275.51c-.02.48,0,.97-.15,1.44-.14.42-.42.65-.87.61-.37-.03-.64-.25-.71-.62-.16-.91-.18-1.83-.03-2.75.06-.38.25-.6.68-.6.41,0,.77,0,.94.48.17.47.12.96.14,1.44Z"/>
            <path class="cls-8" d="M145.65,270.78c-.21.88-.61,1.74-1.33,2.42-.16.16-.41.27-.66.13-.23-.14-.34-.39-.3-.62.18-.96.51-1.86,1.24-2.56.21-.2.46-.38.78-.22.32.16.28.47.28.85Z"/>
            <path class="cls-13" d="M152.24,274.72c0,1.11-.29,1.85-.68,1.7-.7-.27-.73-.97-.81-1.59-.07-.63-.07-1.26.09-1.88.07-.3.25-.54.6-.52.27.01.44.2.52.44.22.6.3,1.22.28,1.86Z"/>
            <path class="cls-13" d="M173.23,272.49c0,.46-.03.69-.28.83-.26.15-.51.04-.66-.12-.74-.73-1.21-1.62-1.36-2.65-.04-.24.04-.48.28-.62.26-.16.48-.02.66.12.86.67,1.08,1.68,1.35,2.44Z"/>
            <path class="cls-8" d="M164.37,274.51c.05-.59.04-1.17.3-1.71.1-.22.29-.42.56-.39.26.02.43.21.51.45.35,1.11.26,2.19-.27,3.23-.08.16-.23.32-.46.31-.29-.01-.45-.21-.49-.45-.08-.47-.1-.96-.15-1.43Z"/>
            <path class="cls-13" d="M181.89,264.88c-.75-.17-1.49-.49-2.12-1.04-.23-.2-.33-.47-.16-.77.14-.25.38-.32.61-.25.78.23,1.57.45,2.19,1.02.23.21.29.51.16.79-.12.25-.38.25-.69.25Z"/>
            <path class="cls-13" d="M137.08,263.44c-.07.11-.14.3-.28.41-.6.5-1.29.84-2.05,1.01-.29.07-.6.04-.76-.26-.15-.29-.04-.57.19-.77.64-.55,1.42-.81,2.21-1,.37-.09.65.11.68.62Z"/>
            <path class="cls-2" d="M175.94,266.97c-.03-.41.36-.71.78-.54.83.36,1.4,1,1.7,1.84.13.37-.08.66-.52.64-.62-.04-1.91-1.33-1.95-1.94Z"/>
            <path class="cls-16" d="M138.8,268.91c-.45-.01-.58-.2-.59-.46-.04-.67,1.12-1.98,1.81-2.05.42-.04.64.19.62.6-.04.64-1.39,1.92-1.83,1.92Z"/>
            <path class="cls-7" d="M166.68,223.24c-2.64-2.5-5.9-3.2-9.39-2.99-2.45.15-4.78.77-6.72,2.43-.7.6-.86.57-1.35-.19-1.12-1.75-1.73-3.67-1.87-5.74-.05-.73.29-.92.94-.94,1.5-.04,3-.18,4.5-.19,3.64-.03,7.27-.03,10.91,0,1.55.01,3.1.15,4.65.2.61.02.85.27.86.89.02,1.68-.71,4.73-2.53,6.53Z"/>
            <path class="cls-20" d="M150.66,224.14c3.93-3.17,11.53-3.09,15.21-.05-2.98,3.91-11.18,4.47-15.21.05Z"/>
        </g>
        <g>
            <path d="M396.08,212.28c-1.23.18-2.45.17-3.68.16-22.34-.17-44.68-.21-67.01-.16-37.82.09-125.6-.09-129.2-.08-.3,0-.59,0-.89,0-1.28.04-1.34.08-1.33,1.34.02,3.45.05,6.9.09,10.35.03,2.76.33,37.45.34,38.89.07,7.54.13,15.09.19,22.63.11,13.8.2,27.61.34,41.42.07,6.46.23,12.91.37,19.37.03,1.32.06,1.33,1.44,1.33,3.25,0,6.51,0,9.76.01.74,0,1.1.01,1.26.2h3.15c.19-.17.53-.17,1.22-.17,4.88,0,9.76,0,14.63,0v.16c4.83,0,9.66,0,14.49,0,.31,0,.54,0,.73.02h3.7c.12,0,.26-.01.43-.02.15,0,.3,0,.44,0,8.48,0,16.96-.01,25.44-.02.35,0,.69.02,1.03,0,.59-.04.78.26.75.8-.02.4,0,.79,0,1.18-.02,13.51-.03,27.01-.05,40.52,0,1.04,0,1.07-1.07,1.05-3.64-.06-7.29.08-10.94-.18-1.24-.09-2.47.03-3.68.2-1.75.24-2.24.74-2.67,2.44-.18.73-.24,1.46-.25,2.2-.06,3.09.58,3.84,3.6,4.27,3.25.1,6.5.11,9.74.32,3.6.23,7.19.23,10.78.24,3.74.01,7.49-.07,11.23-.22,5.62-.23,11.23.06,16.85.2,8.38.2,16.74-.21,25.11-.57.29-.01.59,0,.89,0,2.46-.71,2.98-1.43,2.95-4.02-.01-.79-.08-1.57-.26-2.35-.42-1.79-.92-2.3-2.75-2.54-1.42-.19-2.84-.24-4.28-.15-3.49.23-7,.08-10.5.16-.67.02-.84-.25-.83-.87.03-1.58,0-3.15,0-4.73-.01-12.03-.03-24.06-.04-36.1,0-2.13-.33-1.87,1.88-1.87,24.66,0,49.31.01,73.97.02.44,0,.89.02,1.33,0,1.13-.08,1.24-.2,1.27-1.31.06-1.92.12-3.85.15-5.77.38-21,.38-42.01.6-63.02.21-20.41.35-40.83.52-61.24,0-.99.04-1.97.03-2.96,0-1.15-.1-1.3-1.28-1.13ZM330.19,393.1c.89-.03,1.77.08,2.65.14.71.05,1.09.38,1.2,1.05.14.88.1,1.77.05,2.65-.03.63-.51.79-1,.91-1.25.3-2.55.26-3.81.44-.2.03-.39.02-.59.03-5.71.11-11.43.23-16.93.34-3.22-.12-6.23.08-9.23-.24-1.27-.13-2.56.1-3.84.12-2.46.05-4.93.14-7.39-.11-1.63-.17-3.25.13-4.87.14-5.22.03-10.45.15-15.67-.14-2.51-.14-5.03-.04-7.54-.11-1.43-.04-2.85-.16-4.27-.33-1.55-.18-1.72-.41-1.74-1.96-.04-2.71.15-2.98,2.91-2.94,5.02.08,10.05.28,15.07.4,2.91.07,5.82.15,8.72.1,10.11-.18,20.21.12,30.32-.07,5.32-.1,10.64-.29,15.96-.45ZM275.93,356.49c.27-12.66.24-24.01.23-35.35,0-1.63.39-3.01,1.73-4.03.81-.62,1.77-.84,2.74-1.01,2.19-.38,4.42-.44,6.62-.56,5.61-.31,11.24-.3,16.85,0,2.16.12,4.33.25,6.48.53,2.94.39,4.62,2.21,4.61,5.26-.04,10.6,0,21.2.11,31.8.1,10.65.32,21.3.48,31.95.02,1.73,0,3.45-.02,5.18-.02,1.02-.04,1.02-1.12,1.07-.25.01-.49,0-.74,0-12.13,0-24.26,0-36.39,0-2.18,0-1.96.21-1.96-2.01-.03-11.39.45-22.78.37-32.84ZM395.46,216.79c-.24,24.56-.44,49.11-.74,73.67-.21,17.85-.54,35.7-.5,53.55,0,.2-.02.4,0,.59.07.68-.29.87-.89.82-.24-.02-.49,0-.74,0-24.46-.04-48.92-.08-73.38-.11-1.77,0-1.62.11-1.64-1.56-.09-7.89-.2-15.78-.26-23.67-.02-2.43-1.06-4.11-3.24-5.17-2.19-1.05-4.54-1.32-6.9-1.41-7.69-.3-15.38-.3-23.07,0-2.36.1-4.71.36-6.9,1.43-2.12,1.04-3.14,2.67-3.19,5.05-.14,7.84-.22,15.68-.24,23.52,0,1.8.2,1.65-1.69,1.65-24.36,0-48.72,0-73.08-.02-2.16,0-1.89.3-1.89-1.87.02-14.4-.22-28.8-.36-43.19-.17-17.8-.36-35.6-.56-53.4-.11-10.16-.26-20.31-.4-30.47,0-.25,0-.49,0-.74-.02-.54.2-.83.78-.8.29.02.59,0,.89,0,32.74.25,65.49.27,98.23.21,32.64,0,65.29,0,97.93,0,2.1,0,1.86-.27,1.83,1.92Z"/>
            <g class="cls-45">
                <path class="cls-35" d="M332.41,400.14c-8.37.36-16.73.77-25.11.57-5.61-.14-11.23-.42-16.85-.2-3.74.15-7.48.23-11.23.22-3.6-.02-7.19-.01-10.78-.24-3.24-.21-6.49-.22-9.74-.32.53.25.83.48.42,1.18-.89,1.56-.43,3.19,1.04,4.08.5.31,1.04.52,1.64.64,3.34.65,6.74.73,10.12.81,4.42.1,8.86.25,13.29-.2,2.34-.23,4.72-.18,7.07-.27,5.86-.21,11.72-.07,17.58-.31,5.31-.22,10.64.02,15.94-.4,1.17-.09,2.37-.11,3.48-.55.87-.35,1.74-.58,2.7-.62,1.31-.05,1.85-.78,1.89-2.13.02-.82-.2-1.55-.59-2.25-.29,0-.59-.02-.88,0Z"/>
            </g>
            <path class="cls-34" d="M273.78,343.49c.02-7.84.11-15.68.24-23.52.04-2.38,1.07-4.01,3.19-5.05,2.18-1.07,4.54-1.34,6.9-1.43,7.69-.3,15.38-.3,23.07,0,2.36.09,4.71.36,6.9,1.41,2.19,1.05,3.22,2.74,3.24,5.17.06,7.89.17,15.78.26,23.67.02,1.67-.12,1.56,1.64,1.56,24.46.04,48.92.08,73.38.11.25,0,.49-.02.74,0,.6.05.95-.14.89-.82-.02-.19,0-.39,0-.59-.04-17.85.29-35.7.5-53.55.3-24.56.5-49.11.74-73.67.02-2.19.26-1.92-1.84-1.92-32.64,0-65.29,0-97.93,0-32.74.05-65.49.04-98.23-.21-.29,0-.59.01-.89,0-.58-.04-.8.25-.78.8,0,.25,0,.49,0,.74.13,10.16.28,20.31.4,30.47.2,17.8.39,35.6.56,53.4.13,14.4.38,28.8.36,43.19,0,2.17-.27,1.87,1.89,1.87,24.36.01,48.72.02,73.08.02,1.89,0,1.68.16,1.69-1.65ZM351.59,337.72c-.39.05-.78.08-1.17.08-4.48,0-8.96,0-13.35,0-4.76-.34-9.43-.3-14.11-.48-.45-.02-1.19.12-1.19-.5,0-.59.74-.46,1.19-.55.38-.07.78-.08,1.18-.09,5.7-.1,11.41-.12,17.12,0,2.95.06,5.9.02,8.86.04.54,0,1.09-.04,1.59.22.28.14.48.35.45.69-.03.35-.26.53-.57.57ZM321.98,333.68c.35-.57.87-.59,1.32-.67.72-.13,1.46-.26,2.19-.27,3.88-.09,7.76-.58,11.65-.3,3.83.27,7.67.17,11.5.34.59.03,1.18.1,1.75.24.33.08.6.37.51.78-.07.31-.31.5-.63.54-.19.03-.39.02-.59.02-8.95-.42-17.89-.7-26.85-.43-.25,0-.49,0-.84-.25ZM391.84,217.29c.69-.02,1.46.72,1.43,1.4-.02.51-.88,1.2-1.48,1.19-.59,0-1.11-.62-1.11-1.32,0-.68.51-1.24,1.17-1.26ZM389.55,340.93c.08-.8.56-1.31,1.18-1.25.59.05,1.05.78,1,1.59-.03.62-.57,1.19-1.11,1.18-.63-.02-1.15-.75-1.08-1.52ZM378.82,336.81c.01-.89,0-1.77,0-2.66h.08c0-1.04-.03-2.07,0-3.1.03-.88.2-1.02,1.06-1.01,1.68.02,3.35.05,5.02.13,1.08.05,1.26.25,1.35,1.33.15,1.83-.06,3.64-.21,5.46-.05.66-.35,1.05-1.14,1.02-1.72-.06-3.45-.01-5.17-.04-1.02-.02-1.02-.05-1.01-1.13ZM372.51,330.32c1.21.07,1.59.41,1.55,1.64-.05,1.57-.22,3.14-.35,4.7-.06.69-.43,1.06-1.15,1.09-.64.03-1.27.15-1.91.15-1.82.02-3.64,0-5.46,0,0,.04,0,.07,0,.11-2.02,0-4.04.02-6.05,0-1.31-.02-1.51-.23-1.69-1.51-.24-1.67-.2-3.34-.05-5.01.11-1.26.34-1.48,1.54-1.47,4.53.03,9.06.02,13.58.29ZM244.64,228.24c9.02-.33,18.04-.52,27.06-.63,19.67-.23,39.34-.45,59.01-.67,8.68-.1,17.35-.2,26.03-.3.25,0,.49-.01.74,0,.61.05,1.06.32,1.02,1.01-.02.58-.41.87-.97.91-.29.02-.59.01-.89.02-14.05.12-28.1.23-42.15.35-12.87.1-25.74.18-38.6.32-10.4.11-20.81.02-31.21-.13-.51,0-1.09.17-1.6-.4.45-.57,1.03-.46,1.55-.47ZM240.73,334.53c5.22-.14,10.43-.27,15.65.12,1.86.14,3.74.1,5.61.11.89.01,1.77.1,2.64.28.53.11.94.41.85,1.01-.09.6-.58.8-1.11.73-2.84-.41-5.71-.17-8.55-.38-2.26-.17-4.51-.34-6.77-.44-2.9-.14-5.81-.21-8.71-.33-.68-.03-1.38,0-2.24-.6,1-.4,1.82-.47,2.63-.49ZM198.72,219.26c-.5.02-.94-.46-.98-1.08-.04-.69.35-1.22.94-1.26.59-.04,1.08.46,1.09,1.12.01.59-.51,1.19-1.05,1.22ZM201.66,342.25c-.74,0-1.29-.55-1.29-1.3,0-.8.62-1.45,1.36-1.41.71.04,1.32.64,1.33,1.31,0,.73-.65,1.39-1.4,1.4ZM266.99,340.58c-3.64.07-7.28-.15-10.91-.36-2.85-.17-5.69-.41-8.54-.52-2.85-.11-5.69-.32-8.54-.5-.42-.03-.91.09-1.19-.47.31-.43.69-.32,1.02-.33,4.23-.22,8.47-.2,12.69-.03,3.88.16,7.74.59,11.64.56,1.28,0,2.56-.04,3.84-.03,1.02.01,1.48.3,1.48.84,0,.54-.46.82-1.49.84ZM263.75,237.95c-2.91-.01-5.82,0-8.72-.24-.41-.04-1.04.09-1.05-.52,0-.6.66-.53,1.05-.56,2.06-.15,4.13-.29,6.2-.34,6.11-.15,12.22-.29,18.33-.36,21.05-.24,42.1-.45,63.15-.67,1.33-.01,2.66-.06,3.99-.09.3,0,.6-.03.88.02.6.09,1.05.39,1,1.06-.04.57-.43.86-.99.91-.3.02-.59.02-.89.02-6.41.07-12.82.14-19.22.21-8.78.1-17.55.21-26.33.31-12.47.15-24.94.31-37.41.25Z"/>
            <path class="cls-83" d="M277.52,391.35c12.13.01,24.26,0,36.39,0,.24,0,.49,0,.74,0,1.08-.05,1.1-.05,1.12-1.07.03-1.73.05-3.45.02-5.18-.15-10.65-.37-21.3-.48-31.95-.1-10.6-.15-21.2-.11-31.8.01-3.05-1.67-4.88-4.61-5.26-2.15-.28-4.32-.41-6.48-.53-5.61-.31-11.24-.31-16.85,0-2.21.12-4.43.18-6.62.56-.98.17-1.93.39-2.74,1.01-1.33,1.02-1.73,2.4-1.73,4.03,0,11.34.04,22.68-.23,35.35.07,10.07-.4,21.45-.37,32.84,0,2.22-.22,2.01,1.96,2.01ZM309.8,319.99c.78-.04,1.81.89,1.82,1.65,0,.71-.6,1.27-1.36,1.25-.86-.02-1.69-.75-1.73-1.53-.03-.69.57-1.34,1.28-1.37ZM292.17,338.49c1.54-1.35,3.26-1.17,4.98-.52,1.54.58,2.02,1.9,2.14,3.4.06.78.15,1.57-.23,2.31-.76,1.46-1.92,2.18-3.49,2.03-1.73.05-3.07-.53-4.08-1.82-1.31-1.67-1.02-3.9.69-5.39ZM281.4,320.56c.96.12,1.7.8,1.66,1.53-.04.73-.62,1.17-1.43,1.09-.97-.1-1.7-.77-1.66-1.53.04-.72.65-1.19,1.43-1.1Z"/>
            <path class="cls-40" d="M241.97,347.73c-.19-.01-.42-.02-.73-.02-4.83,0-9.66,0-14.49,0v-.16c-4.88,0-9.76,0-14.63,0-.69,0-1.03,0-1.22.17h31.07Z"/>
            <path class="cls-63" d="M332.85,393.24c-.88-.06-1.76-.17-2.65-.14-5.32.16-10.64.35-15.96.45-10.11.19-20.21-.12-30.32.07-2.91.05-5.82-.03-8.72-.1-5.02-.12-10.05-.32-15.07-.4-2.76-.04-2.95.23-2.91,2.94.02,1.55.19,1.78,1.74,1.96,1.42.16,2.85.29,4.27.33,2.51.07,5.03-.03,7.54.11,5.22.29,10.45.17,15.67.14,1.62-.01,3.24-.3,4.87-.14,2.46.25,4.92.16,7.39.11,1.28-.03,2.56-.26,3.84-.12,3,.31,6.01.12,9.23.24,5.5-.11,11.22-.23,16.93-.34.2,0,.4,0,.59-.03,1.27-.18,2.56-.14,3.81-.44.49-.12.97-.28,1-.91.05-.88.09-1.77-.05-2.65-.11-.67-.49-1-1.2-1.05Z"/>
            <path class="cls-89" d="M244.68,229.11c10.4.14,20.8.23,31.21.13,12.86-.13,25.73-.21,38.6-.32,14.05-.12,28.1-.23,42.15-.35.3,0,.59,0,.89-.02.56-.04.95-.32.97-.91.03-.68-.42-.95-1.02-1.01-.25-.02-.49-.01-.74,0-8.68.1-17.35.2-26.03.3-19.67.22-39.34.44-59.01.67-9.02.11-18.04.3-27.06.63-.52.02-1.1-.09-1.55.47.5.57,1.08.39,1.6.4Z"/>
            <path class="cls-38" d="M327.49,237.39c6.41-.07,12.82-.14,19.22-.21.3,0,.59,0,.89-.02.56-.04.95-.34.99-.91.05-.66-.4-.97-1-1.06-.29-.04-.59-.02-.88-.02-1.33.03-2.66.08-3.99.09-21.05.23-42.1.43-63.15.67-6.11.07-12.22.22-18.33.36-2.07.05-4.14.19-6.2.34-.39.03-1.05-.05-1.05.56,0,.6.63.48,1.05.52,2.9.25,5.81.23,8.72.24,12.47.06,24.94-.1,37.42-.25,8.77-.1,17.55-.21,26.32-.31Z"/>
            <path class="cls-39" d="M357.39,331.49c-.14,1.67-.18,3.34.05,5.01.18,1.28.38,1.49,1.69,1.51,2.02.03,4.04,0,6.05,0,0-.04,0-.07,0-.11,1.82,0,3.64.01,5.46,0,.64,0,1.27-.13,1.91-.15.72-.03,1.09-.41,1.15-1.09.13-1.56.3-3.13.35-4.7.04-1.23-.34-1.57-1.55-1.64-4.52-.27-9.05-.26-13.58-.29-1.2,0-1.43.2-1.54,1.47ZM358.97,335.65c.04-1.13.02-2.26,0-3.39,0-.56.2-.78.78-.77,2.99.08,5.99-.08,8.98.17.98.08,1.96.07,2.95.06.72-.01.97.33.91,1-.09.98-.18,1.95-.24,2.93-.04.64-.46.66-.92.66-1.92,0-3.83,0-5.75,0-1.91.2-3.83.15-5.74.23-.67.03-1-.15-.97-.89Z"/>
            <path class="cls-88" d="M266.99,338.9c-1.28-.02-2.56.02-3.84.03-3.89.03-7.76-.4-11.64-.56-4.23-.17-8.46-.19-12.69.03-.32.02-.7-.1-1.02.33.27.56.76.44,1.19.47,2.85.18,5.69.39,8.54.5,2.85.11,5.69.35,8.54.52,3.63.21,7.27.43,10.91.36,1.03-.02,1.49-.3,1.49-.84,0-.54-.46-.83-1.48-.84Z"/>
            <path class="cls-86" d="M249.05,335.95c2.26.11,4.52.28,6.77.44,2.85.21,5.71-.03,8.55.38.53.08,1.02-.13,1.11-.73s-.32-.9-.85-1.01c-.87-.18-1.75-.27-2.64-.28-1.87-.02-3.75.02-5.61-.11-5.22-.39-10.43-.26-15.65-.12-.8.02-1.63.1-2.62.49.86.6,1.56.58,2.24.6,2.9.12,5.8.19,8.71.33Z"/>
            <path class="cls-38" d="M351.71,336.46c-.5-.26-1.05-.22-1.59-.22-2.95-.02-5.91.02-8.86-.04-5.71-.12-11.41-.1-17.12,0-.39,0-.79.02-1.18.09-.45.08-1.2-.04-1.19.55,0,.62.74.48,1.19.5,4.67.18,9.35.14,14.11.48,4.39,0,8.87,0,13.35,0,.39,0,.79-.03,1.17-.08.31-.04.54-.23.57-.57.03-.34-.17-.54-.45-.69Z"/>
            <path class="cls-92" d="M349.67,334.35c.2,0,.4,0,.59-.02.32-.04.56-.23.63-.54.1-.41-.17-.7-.51-.78-.57-.14-1.16-.22-1.75-.24-3.83-.17-7.67-.06-11.5-.34-3.89-.28-7.76.21-11.65.3-.73.02-1.47.14-2.19.27-.45.08-.97.1-1.32.67.36.25.6.25.85.25,8.95-.28,17.9,0,26.85.43Z"/>
            <path class="cls-87" d="M379.83,337.94c1.73.02,3.45-.02,5.17.04.79.03,1.09-.36,1.14-1.02.15-1.82.36-3.63.21-5.46-.09-1.09-.27-1.28-1.35-1.33-1.67-.08-3.35-.11-5.02-.13-.86-.01-1.03.14-1.06,1.01-.04,1.03,0,2.07,0,3.1h-.08c0,.89,0,1.77,0,2.66-.01,1.09-.01,1.12,1.01,1.13ZM380.38,334.92c0-.58.08-1.17.14-1.76q.16-1.67,1.9-1.68c2.26-.01,2.36.09,2.13,2.29-.05.44-.09.88-.17,1.31q-.31,1.79-2.17,1.75c-2.13-.1-1.86.27-1.84-1.92Z"/>
            <path class="cls-95" d="M201.73,339.54c-.74-.04-1.37.62-1.36,1.41,0,.75.55,1.3,1.29,1.3.75,0,1.41-.66,1.4-1.4,0-.68-.62-1.28-1.33-1.31Z"/>
            <path class="cls-56" d="M391.79,219.87c.6.01,1.46-.68,1.48-1.19.02-.67-.74-1.42-1.43-1.4-.65.02-1.17.58-1.17,1.26,0,.7.52,1.31,1.11,1.32Z"/>
            <path class="cls-1" d="M390.63,342.45c.54.02,1.07-.55,1.11-1.18.05-.81-.41-1.54-1-1.59-.62-.06-1.1.46-1.18,1.25-.07.76.45,1.5,1.08,1.52Z"/>
            <path class="cls-80" d="M198.68,216.91c-.59.04-.98.57-.94,1.26.04.62.48,1.1.98,1.08.54-.03,1.06-.63,1.05-1.22-.01-.66-.5-1.16-1.09-1.12Z"/>
            <path class="cls-88" d="M295.57,345.7c1.57.16,2.73-.57,3.49-2.03.38-.74.29-1.54.23-2.31-.11-1.5-.6-2.82-2.14-3.4-1.73-.65-3.44-.83-4.98.52-1.7,1.49-1.99,3.72-.69,5.39,1.01,1.29,2.36,1.87,4.08,1.82ZM294.91,338.89c1.79-.02,2.84,1.08,2.87,3,.02,1.44-.73,2.26-2.08,2.27-1.86.02-3.43-1.18-3.48-2.69-.04-1.26,1.32-2.57,2.7-2.59Z"/>
            <path class="cls-48" d="M310.25,322.89c.76.02,1.37-.54,1.36-1.25,0-.76-1.03-1.68-1.82-1.65-.7.03-1.31.68-1.27,1.37.03.78.86,1.51,1.73,1.53Z"/>
            <path class="cls-61" d="M281.63,323.19c.81.08,1.4-.36,1.43-1.09.04-.73-.7-1.42-1.66-1.53-.78-.1-1.39.38-1.43,1.1-.04.76.69,1.43,1.66,1.53Z"/>
            <path class="cls-54" d="M359.94,336.54c1.91-.08,3.83-.03,5.74-.23,1.92,0,3.83,0,5.75,0,.46,0,.89-.01.92-.66.05-.98.15-1.95.24-2.93.06-.67-.19-1.01-.91-1-.98.01-1.97.02-2.95-.06-2.99-.24-5.99-.09-8.98-.17-.58-.01-.79.21-.78.77.02,1.13.04,2.26,0,3.39-.03.74.3.92.97.89Z"/>
            <path class="cls-90" d="M382.22,336.83q1.85.03,2.17-1.75c.08-.43.12-.88.17-1.31.23-2.2.13-2.3-2.13-2.29q-1.74,0-1.9,1.68c-.06.59-.13,1.17-.14,1.76-.02,2.19-.29,1.82,1.84,1.92Z"/>
            <path class="cls-52" d="M295.7,344.16c1.35-.02,2.1-.84,2.08-2.27-.03-1.92-1.08-3.02-2.87-3-1.38.02-2.74,1.33-2.7,2.59.05,1.5,1.62,2.71,3.48,2.69Z"/>
        </g>
        <g>
            <path class="cls-73" d="M396.79,375.36c-.75-.06-1.51-.07-2.42-.1,1.18-2.51,1.62-4.96,1.79-7.48.22-3.21.07-6.41-.21-9.6-.11-1.26-.88-1.61-1.95-.9-.65.43-1.26.95-1.83,1.49-2.26,2.1-3.66,4.73-4.74,7.57-.16.42-.21.92-.68,1.25-.48-2.12-.92-4.14-1.4-6.14-.43-1.77-.98-3.52-1.74-5.17-.48-1.03-1.23-1.08-1.94-.23-.06.08-.11.17-.17.24-1.98,2.67-3.17,5.66-3.55,8.96-.11.92-.26,1.84-.43,3.05-.29-.51-.42-.72-.52-.94-1.29-2.73-2.9-5.26-4.93-7.51-.84-.92-1.77-1.72-2.8-2.39-1.05-.68-1.67-.35-1.75.89-.04.59-.05,1.18-.1,1.77-.4,4.84.15,9.54,2.01,14.05.12.3.42.57.17.93-.05.02-.1.07-.14.06-.39-.03-.78-.07-1.17-.11-2.69-.3-3.35.32-3.06,2.97.43,3.92.95,7.83,1.3,11.75.26,2.9,1.16,5.69,1.37,8.59.04.53.46.71.86.91,1.75.31,3.51.42,5.28.53,4.37.29,8.74.6,13.12.84,1.96.11,3.94.3,5.88-.23.62-.6.98-1.32,1.12-2.19.8-4.91,2.07-9.73,3.25-14.56.5-2.05,1.08-4.1,1.21-6.23.09-1.48-.37-1.96-1.84-2.08ZM388.18,368.72c.96-1.71,1.54-3.62,2.63-5.27.89-1.35,1.85-2.64,3.41-3.89.05,4.61.36,8.88-.94,13.05-.1.33-.2.66-.32.98-.56,1.43-.63,1.47-2.15,1.44-.94-.02-1.87-.06-2.8-.05-.6,0-.88-.17-.88-.84.02-1.87.09-3.69,1.05-5.41ZM379.14,368.2c.49-2.91.81-5.86,2.29-8.49.24-.42.37-.92.89-1.2.55.74.7,1.62.91,2.46.77,3.06,1.38,6.14,1.77,9.27.15,1.23.12,2.46.05,3.69-.04.68-.24,1.02-1.01,1.15-1.33.22-2.65.13-3.98.16-.64.02-.79-.33-.91-.89-.43-2.06-.36-4.09-.02-6.15ZM369.07,366.51c-.3-2.24-.32-4.49-.13-7.02,1.31.88,2.02,1.96,2.77,2.97,2.51,3.39,4.45,7.07,5.48,11.19.06.24.1.48.15.72.1.55-.09.84-.69.84-1.48,0-2.95-.01-4.43.02-.66.01-.92-.31-1.16-.88-1.05-2.52-1.63-5.15-1.98-7.85ZM396.68,378.39c-.31,1.55-.63,3.09-1.01,4.62-.73,2.96-1.55,5.91-2.24,8.88-.42,1.82-.64,3.69-.98,5.53-.23,1.26-.26,1.27-1.49,1.26-4.09-.03-8.16-.46-12.24-.76-2.66-.2-5.32-.15-7.97-.35-1.33-.1-1.32-.08-1.48-1.33-.71-5.42-1.18-10.87-1.71-16.31-.06-.59-.15-1.17-.24-1.76-.09-.59,0-.93.74-.88,2.52.16,5.02-.21,7.54-.21,5.12.42,10.24-.37,15.37-.03,1.62.11,3.24.24,4.87.21,1.03-.02,1.07.05.85,1.15Z"/>
            <path class="cls-36" d="M393.04,400.42c-1.94.54-3.92.34-5.88.23-4.38-.24-8.75-.56-13.12-.84-1.77-.11-3.53-.22-5.28-.53.3.45-.06.69-.29,1.01-.83,1.16-.73,2.03.33,2.96.75.66,1.57,1.07,2.65,1.06,5.16-.06,10.32-.05,15.48-.03,1.39,0,2.67-.23,3.98-.77,1.51-.62,2.24-1.49,2.13-3.09Z"/>
            <path class="cls-94" d="M395.83,377.24c-1.63.03-3.25-.1-4.87-.21-5.13-.34-10.24.45-15.37.03-2.52,0-5.02.38-7.54.21-.74-.05-.83.29-.74.88.09.58.18,1.17.24,1.76.53,5.44,1,10.89,1.71,16.31.16,1.26.15,1.23,1.48,1.33,2.65.2,5.32.15,7.97.35,4.08.3,8.15.73,12.24.76,1.23.01,1.25,0,1.49-1.26.34-1.84.56-3.7.98-5.53.69-2.98,1.51-5.92,2.24-8.88.38-1.53.7-3.07,1.01-4.62.22-1.1.18-1.16-.85-1.15Z"/>
            <path class="cls-64" d="M372.21,375.23c1.48-.03,2.95-.03,4.43-.02.6,0,.79-.29.69-.84-.05-.24-.09-.48-.15-.72-1.03-4.12-2.97-7.8-5.48-11.19-.75-1.01-1.46-2.09-2.77-2.97-.19,2.53-.17,4.77.13,7.02.35,2.7.93,5.33,1.98,7.85.24.57.5.89,1.16.88Z"/>
            <path class="cls-64" d="M380.07,375.24c1.33-.04,2.65.05,3.98-.16.77-.13.97-.47,1.01-1.15.07-1.23.1-2.46-.05-3.69-.39-3.13-1-6.21-1.77-9.27-.21-.84-.36-1.73-.91-2.46-.52.28-.65.78-.89,1.2-1.49,2.64-1.81,5.58-2.29,8.49-.35,2.06-.41,4.09.02,6.15.12.56.27.91.91.89Z"/>
            <path class="cls-64" d="M388.01,374.96c.93-.01,1.87.03,2.8.05,1.52.03,1.59-.01,2.15-1.44.12-.32.22-.65.32-.98,1.3-4.17.99-8.44.94-13.05-1.57,1.25-2.52,2.54-3.41,3.89-1.09,1.65-1.67,3.56-2.63,5.27-.96,1.72-1.04,3.54-1.05,5.41,0,.67.28.84.88.84Z"/>
        </g>
    </g>
</svg>