<?xml version="1.0" encoding="UTF-8"?>
<svg id="_Ñëîé_1" data-name="Ñëîé 1" xmlns="http://www.w3.org/2000/svg" viewBox="0 0 2906 1240.56">
    <path d="M847.24,200.89c-.94-1.23-2.09-2.32-3.5-3.23-2.98-1.92-6.48-2.84-9.92-3.75-71-18.7-140.76-40.54-212.72-55.56-25.67-5.36-51.81-8.92-77.38-14.59-67.76-11.49-136.03-19.98-204.55-25.27-68.61-5.3-137.48-7.38-206.29-6.16-17.8.3-35.72.46-53.49,1.61-19.27,1.24-37.87-.97-54.43-11.57C14.41,75.63-.82,63.13.03,49.14c.71-11.59,12.04-20.21,21.72-24.66,14-6.44,29.65-3.88,44.46-3.19,17.27.81,34.54,1.42,51.81,2.46,33.8,2.03,67.55,4.94,101.17,9,205.63,24.85,420.69,27.25,618.29,95.05,35.97,12.47,58.65.29,82.25-22.73,55.37-54,123.52-82.67,198.93-92.45,54.56-7.07,110.52-16.13,164.68-11.24,323.02,29.16,634.64,136.73,886.79,346.38,54.95,45.68,107.16,94.58,157.4,145.37,50.24,50.81,98.52,103.52,145.86,157.03,49.69,56.17,97.69,113.85,147.48,169.9,35.85,40.36,68.92,82.7,102.07,125.26,5.3,6.81,10.22,11.18,14.78.29,9.12-21.79,16.9-43.96,24.4-66.29,17.84-53.16,36.86-107.38,67.37-154.79,8.54-13.32,45.92-74.48,65.76-63.59,6.01,3.3,7.82,12.06,8.96,18.15,4.78,25.55-.66,52.04-8.28,76.48-8.03,25.74-14.37,52.34-19.9,78.74-8.13,38.8-6.74,78.56-14.71,117.17-8.56,41.48-25.51,79.25-40.33,118.6-10.1,26.83-12.94,56.57-14.91,84.94-1.15,16.64-.04,33.74-4.26,50.03-11.55,44.58-50.43,37.65-86.35,29.47-14.73-3.36-28.36-10.84-37.8-22.81-8.96-11.37-13.7-26.4-24.52-35.98-10.5-9.3-23.33-16.43-35.71-22.86-107.84-56.07-220.7-104.31-337.96-136.81-8.22-2.28-16.65-3.68-24.88-5.91-15.17-4.12-31.58-11.84-33.44-29.18-1.67-15.6,7.13-31.81,15.31-44.45,12.74-19.67,32.02-24.09,53.68-16.15,56.68,20.77,112.46,44.05,169.28,64.41,24.82,8.9,49.88,17.12,74.99,25.15,13.45,4.3,27.4,9.32,41.03,13.91,7.18,2.42,14.4,4.76,21.68,6.9,2.83.83,12.3,4.35,12.1-1.45-.05-1.32-.69-2.54-1.31-3.7-10.76-20.02-20.56-41.03-33.66-59.65-132.86-180-266.3-360.05-437.55-506.44-223.56-191.11-527.29-306.99-811.98-369.33-59.42-13.01-120.4-23.96-181.47-19.44-62.3,4.61-130.19,25.49-169.2,77.55-5.99,7.99-12.13,13.53-2.18,21.7,26.17,21.49,56.52,33.01,87.07,46.61,29.08,12.23,58.16,24.49,87.13,36.99,58.04,25.03,115.7,51.01,172.1,79.57,56.06,28.39,110.88,59.37,163.09,94.39,52.2,35.01,101.73,74.11,146.74,118.03,16.44,16.04,32.27,32.7,47.41,49.97,46.16,52.67,85.07,112.6,109.61,178.43,37.54,100.72,28.11,232.73-10.69,331.48-18.56,47.23-48.62,95.06-97.1,115.79-60.53,25.89-127.99,1.75-187.1-17.61-239.48-78.43-459.7-258.39-566.08-488.73-25.97-56.38-47.99-114.79-63.56-174.92-17.09-65.99-24.57-134.87-20.03-202.97,2.35-24.88,3.75-49.89,5.84-74.8.94-11.21,1.64-22.48,2.94-33.66,1.01-8.69,3.67-19.98-2.03-27.65ZM955.21,638.71c42.48,92.58,103.48,178.25,171.69,254.8,122.72,137.61,278.8,260.71,474.6,228.57,85.61-14.05,123.37-101.73,129.77-179.51,8.41-102.27-34.85-179.73-95.47-258.99-113.01-147.66-268.99-257.6-433.04-342-74.32-38.24-149.04-76.12-228.59-102.48-55.01-18.23-62.66-11.5-72.4,45.52-21.31,124.73,3.03,244.27,53.43,354.1ZM1691.76,126.76c184.81,75.65,344.32,191.48,502.06,310.25-141.94-144.38-307.47-251.03-502.06-310.25ZM2738.04,1083.01c-27.36-108.69-90.86-192.49-171.5-264.56,57.17,88.19,114.34,176.37,171.5,264.56ZM1740.87,1073.69c-10.29,17.53-32.33,49.57-72.25,74.6-30.06,18.85-58.58,26.4-76.95,29.72,8.67,4.79,40.63,21.04,76.39,10.44,43.12-12.79,74.3-59.46,72.82-114.75Z"/>
</svg>