<svg width="50" height="50" viewBox="0 0 50 50" fill="none" xmlns="http://www.w3.org/2000/svg">
<path d="M46.677 22.5352H46.6562C46.4918 17.7407 44.8537 13.1134 41.9649 9.28335C39.076 5.45332 35.077 2.60672 30.5122 1.13118C25.9474 -0.344352 21.0388 -0.377112 16.4547 1.03737C11.8707 2.45184 7.83396 5.24481 4.89429 9.03595C1.95462 12.8271 0.254859 17.4321 0.0264681 22.224C-0.201922 27.0159 1.05216 31.7618 3.61793 35.8153C6.18371 39.8688 9.93649 43.0331 14.3652 44.8771C18.794 46.7212 23.6835 47.1554 28.3679 46.1207V47.9832C28.3671 48.3327 28.4574 48.6764 28.6298 48.9804C28.8022 49.2844 29.0508 49.5383 29.3512 49.717C29.6515 49.8957 29.9932 49.9931 30.3426 49.9996C30.6921 50.0062 31.0372 49.9216 31.344 49.7542L38.5661 45.8377H46.677C47.5599 45.8377 48.4066 45.487 49.0309 44.8627C49.6552 44.2384 50.006 43.3917 50.006 42.5088V25.8642C50.006 24.9813 49.6552 24.1346 49.0309 23.5103C48.4066 22.886 47.5599 22.5352 46.677 22.5352ZM44.9918 22.5352H42.1497C42.7994 20.6078 43.4075 18.6798 43.9739 16.7512C44.5761 18.6236 44.9185 20.5698 44.9918 22.5352ZM42.9819 14.2304C42.2113 16.9817 41.3416 19.7697 40.402 22.5352H26.7035C26.234 22.5365 25.7702 22.6378 25.3428 22.8322C24.9155 23.0266 24.5345 23.3098 24.2251 23.6629C23.6358 22.7971 23.3379 21.766 23.3745 20.7193C23.4562 19.3936 24.0459 18.1505 25.0209 17.2486C25.996 16.3467 27.2813 15.8556 28.6093 15.8774H33.2698C33.9054 15.8867 34.5218 15.659 34.9987 15.2387C35.4757 14.8184 35.779 14.2355 35.8497 13.6037C35.875 13.2595 35.8297 12.9137 35.7166 12.5876C35.6036 12.2615 35.425 11.9619 35.192 11.7072C34.959 11.4525 34.6765 11.2482 34.3617 11.1066C34.0468 10.965 33.7064 10.8893 33.3613 10.884H27.7437C27.4112 10.8834 27.0847 10.7947 26.7975 10.6271C26.5102 10.4594 26.2725 10.2187 26.1084 9.92941C25.954 9.66635 25.8742 9.36614 25.8778 9.06112C25.8813 8.75609 25.9679 8.4578 26.1284 8.19837L26.14 8.17673C26.2632 7.96534 28.3488 4.48828 29.474 2.61076C32.4188 3.48304 35.1452 4.96963 37.4736 6.9725C39.8019 8.97536 41.6793 11.449 42.9819 14.2304ZM8.6257 7.55505H11.7649C12.0763 7.55959 12.3799 7.65366 12.6393 7.82602C12.8987 7.99838 13.1031 8.24176 13.2279 8.5271C13.3655 8.80722 13.4177 9.12159 13.378 9.43113C13.3384 9.74067 13.2086 10.0317 13.0049 10.2681L7.61787 16.554C6.98145 17.3043 6.63146 18.2558 6.63001 19.2396C6.62913 19.8927 6.36931 20.5187 5.90752 20.9805C5.44573 21.4423 4.81967 21.7021 4.1666 21.703H1.80723C2.22245 16.298 4.65661 11.2473 8.6257 7.55505ZM4.18242 33.3426L5.80111 29.6924C5.95736 29.3573 6.19281 29.0652 6.48713 28.8413C6.78146 28.6174 7.12583 28.4686 7.49054 28.4075C7.85407 28.3328 8.2303 28.3479 8.58671 28.4513C8.94312 28.5547 9.269 28.7433 9.53617 29.0008C10.0258 29.5306 10.6342 29.9364 11.3113 30.1851L15.2653 31.5009C15.9298 31.7206 16.5081 32.1443 16.9181 32.7116C17.328 33.2789 17.5488 33.9609 17.5489 34.6609V37.6652C17.5491 37.9892 17.4697 38.3083 17.3178 38.5944C17.1659 38.8806 16.946 39.125 16.6775 39.3064C16.1744 39.6348 15.7614 40.0839 15.4761 40.6127C15.1908 41.1415 15.0422 41.7332 15.0439 42.334C15.0439 42.334 15.0439 42.7726 15.0439 43.3327C10.3705 41.3691 6.52909 37.8359 4.18242 33.3426ZM16.7167 43.9519C16.7125 43.1247 16.7125 42.3349 16.7125 42.334C16.7114 42.0094 16.7916 41.6896 16.9458 41.404C17.1001 41.1183 17.3234 40.8758 17.5955 40.6987C18.0955 40.3668 18.5052 39.9158 18.7876 39.3863C19.07 38.8568 19.2163 38.2653 19.2134 37.6652V34.6609C19.2141 33.6105 18.8836 32.5867 18.2689 31.7351C17.6542 30.8834 16.7866 30.2473 15.7896 29.9171L11.834 28.6022C11.4062 28.4306 11.0232 28.1639 10.7138 27.8224C10.2556 27.3736 9.6951 27.043 9.0806 26.8593C8.46609 26.6756 7.8161 26.6442 7.18677 26.768C6.55617 26.8783 5.96193 27.1405 5.45543 27.532C4.94894 27.9235 4.54542 28.4325 4.27979 29.015L3.25781 31.3211C2.25178 28.7901 1.73553 26.0911 1.73649 23.3675H4.1666C5.26098 23.3661 6.31015 22.9308 7.08399 22.157C7.85783 21.3831 8.29315 20.334 8.29448 19.2396C8.29519 18.6511 8.50456 18.082 8.88536 17.6334L14.2699 11.35C14.672 10.8674 14.9294 10.2808 15.0122 9.65804C15.0951 9.03529 15 8.40181 14.738 7.83082C14.476 7.25983 14.0578 6.77462 13.5317 6.43129C13.0056 6.08795 12.393 5.9005 11.7649 5.89059H10.6414C13.0818 4.10688 15.8695 2.85529 18.8241 2.21678C21.7787 1.57826 24.8345 1.56703 27.7937 2.18383C25.7322 5.62178 24.9924 6.86014 24.7311 7.36031L24.7036 7.34367C24.3926 7.85591 24.2249 8.44227 24.218 9.04148C24.2112 9.64069 24.3653 10.2308 24.6645 10.75C24.9737 11.2946 25.4214 11.7477 25.9621 12.0635C26.5029 12.3794 27.1175 12.5467 27.7437 12.5484H33.3613C33.4749 12.5514 33.5866 12.5778 33.6895 12.6261C33.7923 12.6744 33.884 12.7434 33.9589 12.8289C34.0388 12.9123 34.1006 13.0115 34.1401 13.1201C34.1797 13.2287 34.1962 13.3444 34.1885 13.4597C34.1533 13.675 34.041 13.8701 33.8726 14.0086C33.7042 14.1472 33.4911 14.2198 33.2731 14.2129H28.6126C26.8512 14.1923 25.1499 14.8527 23.8638 16.0563C22.5776 17.26 21.8061 18.9138 21.7101 20.6727C21.6624 22.3858 22.2784 24.051 23.4295 25.3207C23.3963 25.5001 23.378 25.6818 23.3745 25.8642V42.5088C23.3757 42.9738 23.4749 43.4332 23.6656 43.8573C23.8564 44.2813 24.1343 44.6603 24.4814 44.9697C24.1127 44.988 23.744 45.0055 23.3745 45.0055C21.1137 45.0054 18.867 44.6499 16.7167 43.9519ZM48.3415 42.5088C48.3415 42.9503 48.1661 43.3736 47.854 43.6858C47.5418 43.9979 47.1185 44.1733 46.677 44.1733H38.3547C38.2161 44.1735 38.0797 44.2081 37.9577 44.274L30.5509 48.2912C30.4974 48.3205 30.4372 48.3352 30.3762 48.3338C30.3153 48.3323 30.2558 48.3147 30.2038 48.2828C30.1511 48.2528 30.1073 48.2091 30.0772 48.1564C30.047 48.1038 30.0316 48.0439 30.0324 47.9832V45.0055C30.0324 44.7848 29.9447 44.5731 29.7886 44.417C29.6326 44.261 29.4209 44.1733 29.2001 44.1733H26.7035C26.262 44.1733 25.8386 43.9979 25.5265 43.6858C25.2143 43.3736 25.039 42.9503 25.039 42.5088V25.8642C25.039 25.4227 25.2143 24.9994 25.5265 24.6872C25.8386 24.3751 26.262 24.1997 26.7035 24.1997H46.677C47.1185 24.1997 47.5418 24.3751 47.854 24.6872C48.1661 24.9994 48.3415 25.4227 48.3415 25.8642V42.5088Z" fill="url(#paint0_linear_8230_8494)"/>
<path d="M45.8448 33.3543H27.5357C27.315 33.3543 27.1033 33.4419 26.9472 33.598C26.7911 33.7541 26.7035 33.9658 26.7035 34.1865C26.7035 34.4072 26.7911 34.6189 26.9472 34.775C27.1033 34.931 27.315 35.0187 27.5357 35.0187H45.8448C46.0655 35.0187 46.2772 34.931 46.4333 34.775C46.5893 34.6189 46.677 34.4072 46.677 34.1865C46.677 33.9658 46.5893 33.7541 46.4333 33.598C46.2772 33.4419 46.0655 33.3543 45.8448 33.3543Z" fill="url(#paint1_linear_8230_8494)"/>
<path d="M27.5357 31.6898H39.1869C39.4077 31.6898 39.6193 31.6021 39.7754 31.446C39.9315 31.29 40.0192 31.0783 40.0192 30.8576C40.0192 30.6368 39.9315 30.4252 39.7754 30.2691C39.6193 30.113 39.4077 30.0253 39.1869 30.0253H27.5357C27.315 30.0253 27.1033 30.113 26.9472 30.2691C26.7911 30.4252 26.7035 30.6368 26.7035 30.8576C26.7035 31.0783 26.7911 31.29 26.9472 31.446C27.1033 31.6021 27.315 31.6898 27.5357 31.6898Z" fill="url(#paint2_linear_8230_8494)"/>
<path d="M45.8448 30.0253H42.5159C42.2951 30.0253 42.0835 30.113 41.9274 30.2691C41.7713 30.4252 41.6836 30.6368 41.6836 30.8576C41.6836 31.0783 41.7713 31.29 41.9274 31.446C42.0835 31.6021 42.2951 31.6898 42.5159 31.6898H45.8448C46.0655 31.6898 46.2772 31.6021 46.4333 31.446C46.5893 31.29 46.677 31.0783 46.677 30.8576C46.677 30.6368 46.5893 30.4252 46.4333 30.2691C46.2772 30.113 46.0655 30.0253 45.8448 30.0253Z" fill="url(#paint3_linear_8230_8494)"/>
<path d="M37.5225 40.0121H27.5357C27.315 40.0121 27.1033 40.0998 26.9472 40.2559C26.7911 40.4119 26.7035 40.6236 26.7035 40.8443C26.7035 41.0651 26.7911 41.2767 26.9472 41.4328C27.1033 41.5889 27.315 41.6766 27.5357 41.6766H37.5225C37.7432 41.6766 37.9549 41.5889 38.111 41.4328C38.267 41.2767 38.3547 41.0651 38.3547 40.8443C38.3547 40.6236 38.267 40.4119 38.111 40.2559C37.9549 40.0998 37.7432 40.0121 37.5225 40.0121Z" fill="url(#paint4_linear_8230_8494)"/>
<path d="M27.5357 38.3476H29.2001C29.4209 38.3476 29.6326 38.26 29.7886 38.1039C29.9447 37.9478 30.0324 37.7361 30.0324 37.5154C30.0324 37.2947 29.9447 37.083 29.7886 36.9269C29.6326 36.7709 29.4209 36.6832 29.2001 36.6832H27.5357C27.315 36.6832 27.1033 36.7709 26.9472 36.9269C26.7911 37.083 26.7035 37.2947 26.7035 37.5154C26.7035 37.7361 26.7911 37.9478 26.9472 38.1039C27.1033 38.26 27.315 38.3476 27.5357 38.3476Z" fill="url(#paint5_linear_8230_8494)"/>
<path d="M45.8448 36.6832H32.5291C32.3084 36.6832 32.0967 36.7709 31.9406 36.9269C31.7845 37.083 31.6968 37.2947 31.6968 37.5154C31.6968 37.7361 31.7845 37.9478 31.9406 38.1039C32.0967 38.26 32.3084 38.3476 32.5291 38.3476H45.8448C46.0655 38.3476 46.2772 38.26 46.4333 38.1039C46.5893 37.9478 46.677 37.7361 46.677 37.5154C46.677 37.2947 46.5893 37.083 46.4333 36.9269C46.2772 36.7709 46.0655 36.6832 45.8448 36.6832Z" fill="url(#paint6_linear_8230_8494)"/>
<path d="M45.8448 26.6964H27.5357C27.315 26.6964 27.1033 26.7841 26.9472 26.9402C26.7911 27.0962 26.7035 27.3079 26.7035 27.5286C26.7035 27.7494 26.7911 27.961 26.9472 28.1171C27.1033 28.2732 27.315 28.3609 27.5357 28.3609H45.8448C46.0655 28.3609 46.2772 28.2732 46.4333 28.1171C46.5893 27.961 46.677 27.7494 46.677 27.5286C46.677 27.3079 46.5893 27.0962 46.4333 26.9402C46.2772 26.7841 46.0655 26.6964 45.8448 26.6964Z" fill="url(#paint7_linear_8230_8494)"/>
<defs>
<linearGradient id="paint0_linear_8230_8494" x1="0" y1="25" x2="50.006" y2="25" gradientUnits="userSpaceOnUse">
<stop stop-color="#6595F3"/>
<stop offset="0.48" stop-color="#B771C2"/>
<stop offset="0.995" stop-color="#FF3A9B"/>
</linearGradient>
<linearGradient id="paint1_linear_8230_8494" x1="0" y1="25" x2="50.006" y2="25" gradientUnits="userSpaceOnUse">
<stop stop-color="#6595F3"/>
<stop offset="0.48" stop-color="#B771C2"/>
<stop offset="0.995" stop-color="#FF3A9B"/>
</linearGradient>
<linearGradient id="paint2_linear_8230_8494" x1="0" y1="25" x2="50.006" y2="25" gradientUnits="userSpaceOnUse">
<stop stop-color="#6595F3"/>
<stop offset="0.48" stop-color="#B771C2"/>
<stop offset="0.995" stop-color="#FF3A9B"/>
</linearGradient>
<linearGradient id="paint3_linear_8230_8494" x1="0" y1="25" x2="50.006" y2="25" gradientUnits="userSpaceOnUse">
<stop stop-color="#6595F3"/>
<stop offset="0.48" stop-color="#B771C2"/>
<stop offset="0.995" stop-color="#FF3A9B"/>
</linearGradient>
<linearGradient id="paint4_linear_8230_8494" x1="0" y1="25" x2="50.006" y2="25" gradientUnits="userSpaceOnUse">
<stop stop-color="#6595F3"/>
<stop offset="0.48" stop-color="#B771C2"/>
<stop offset="0.995" stop-color="#FF3A9B"/>
</linearGradient>
<linearGradient id="paint5_linear_8230_8494" x1="0" y1="25" x2="50.006" y2="25" gradientUnits="userSpaceOnUse">
<stop stop-color="#6595F3"/>
<stop offset="0.48" stop-color="#B771C2"/>
<stop offset="0.995" stop-color="#FF3A9B"/>
</linearGradient>
<linearGradient id="paint6_linear_8230_8494" x1="0" y1="25" x2="50.006" y2="25" gradientUnits="userSpaceOnUse">
<stop stop-color="#6595F3"/>
<stop offset="0.48" stop-color="#B771C2"/>
<stop offset="0.995" stop-color="#FF3A9B"/>
</linearGradient>
<linearGradient id="paint7_linear_8230_8494" x1="0" y1="25" x2="50.006" y2="25" gradientUnits="userSpaceOnUse">
<stop stop-color="#6595F3"/>
<stop offset="0.48" stop-color="#B771C2"/>
<stop offset="0.995" stop-color="#FF3A9B"/>
</linearGradient>
</defs>
</svg>
