<?xml version="1.0" encoding="UTF-8"?>
<svg id="Layer_1" data-name="Layer 1" xmlns="http://www.w3.org/2000/svg" xmlns:xlink="http://www.w3.org/1999/xlink" viewBox="0 0 3600 1800">
    <defs>
        <style>
            .cls-1 {
            fill: #8cc63f;
            }

            .cls-2 {
            fill: url(#linear-gradient-2);
            }

            .cls-3 {
            fill: #4c6fd8;
            }

            .cls-4 {
            fill: #fff;
            }

            .cls-5 {
            fill: #f9a449;
            }

            .cls-6 {
            fill: url(#linear-gradient-4);
            }

            .cls-7 {
            stroke-width: 3.48px;
            }

            .cls-7, .cls-8 {
            fill: none;
            stroke: #48a3d8;
            stroke-miterlimit: 10;
            }

            .cls-9 {
            fill: url(#linear-gradient-3);
            }

            .cls-10 {
            fill: url(#linear-gradient-5);
            }

            .cls-11 {
            fill: #54bcc5;
            }

            .cls-12 {
            fill: #fad031;
            }

            .cls-13 {
            opacity: .5;
            }

            .cls-13, .cls-14 {
            fill: #48a3d8;
            }

            .cls-15 {
            fill: url(#linear-gradient-6);
            }

            .cls-8 {
            stroke-width: 3px;
            }

            .cls-16 {
            fill: #ea7a5c;
            }

            .cls-17 {
            fill: url(#linear-gradient);
            }
        </style>
        <linearGradient id="linear-gradient" x1="387.9" y1="903.51" x2="697.58" y2="903.51" gradientTransform="translate(1053.84 -18.28) rotate(60)" gradientUnits="userSpaceOnUse">
            <stop offset="0" stop-color="#4c6fd8"/>
            <stop offset="1" stop-color="#48a3d8"/>
        </linearGradient>
        <linearGradient id="linear-gradient-2" x1="1398.97" y1="900.45" x2="1708.65" y2="900.45" gradientTransform="translate(1556.71 -895.41) rotate(60)" gradientUnits="userSpaceOnUse">
            <stop offset="0" stop-color="#48a3d8"/>
            <stop offset="1" stop-color="#8cc63f"/>
        </linearGradient>
        <linearGradient id="linear-gradient-3" x1="2410.03" y1="897.38" x2="2719.71" y2="897.38" gradientTransform="translate(2059.59 -1772.55) rotate(60)" gradientUnits="userSpaceOnUse">
            <stop offset="0" stop-color="#fad031"/>
            <stop offset="1" stop-color="#f9a449"/>
        </linearGradient>
        <linearGradient id="linear-gradient-4" x1="2906.37" y1="897.38" x2="3216.05" y2="897.38" gradientTransform="translate(858.82 -1410.38) rotate(30)" gradientUnits="userSpaceOnUse">
            <stop offset="0" stop-color="#f9a449"/>
            <stop offset="1" stop-color="#ea7a5c"/>
        </linearGradient>
        <linearGradient id="linear-gradient-5" x1="1895.31" y1="897.38" x2="2204.99" y2="897.38" gradientTransform="translate(723.36 -904.85) rotate(30)" gradientUnits="userSpaceOnUse">
            <stop offset="0" stop-color="#8cc63f"/>
            <stop offset=".25" stop-color="#a3c83c"/>
            <stop offset=".77" stop-color="#decd34"/>
            <stop offset="1" stop-color="#fad031"/>
        </linearGradient>
        <linearGradient id="linear-gradient-6" x1="884.24" y1="897.38" x2="1193.93" y2="897.38" gradientTransform="translate(587.9 -399.32) rotate(30)" gradientUnits="userSpaceOnUse">
            <stop offset="0" stop-color="#48a3d8"/>
            <stop offset="1" stop-color="#54bcc5"/>
        </linearGradient>
    </defs>
    <rect class="cls-17" x="469.21" y="767.17" width="147.06" height="272.68" transform="translate(-511.09 921.79) rotate(-60)"/>
    <rect class="cls-2" x="1480.28" y="764.11" width="147.06" height="272.68" transform="translate(-2.91 1795.86) rotate(-60)"/>
    <rect class="cls-9" x="2491.34" y="761.04" width="147.06" height="272.68" transform="translate(505.28 2669.94) rotate(-60)"/>
    <rect class="cls-6" x="2924.87" y="823.85" width="272.68" height="147.06" transform="translate(-38.57 1650.83) rotate(-30)"/>
    <rect class="cls-10" x="1913.81" y="823.85" width="272.68" height="147.06" transform="translate(-174.02 1145.3) rotate(-30)"/>
    <rect class="cls-15" x="902.74" y="823.85" width="272.68" height="147.06" transform="translate(-309.48 639.77) rotate(-30)"/>
    <g>
        <circle class="cls-3" cx="290.3" cy="768.26" r="220.6" transform="translate(-458.21 430.29) rotate(-45)"/>
        <path class="cls-4" d="M290.3,958.85c-105.1,0-190.6-85.5-190.6-190.6s85.5-190.6,190.6-190.6,190.6,85.5,190.6,190.6-85.5,190.6-190.6,190.6Z"/>
    </g>
    <g>
        <circle class="cls-14" cx="793.53" cy="1031.74" r="220.6" transform="translate(-497.13 863.3) rotate(-45)"/>
        <path class="cls-4" d="M793.53,1222.34c-105.1,0-190.6-85.5-190.6-190.6s85.5-190.6,190.6-190.6,190.6,85.5,190.6,190.6-85.5,190.6-190.6,190.6Z"/>
    </g>
    <g>
        <circle class="cls-11" cx="1296.77" cy="768.26" r="220.6" transform="translate(-163.42 1141.97) rotate(-45)"/>
        <path class="cls-4" d="M1296.77,958.85c-105.1,0-190.6-85.5-190.6-190.6s85.5-190.6,190.6-190.6,190.6,85.5,190.6,190.6-85.5,190.6-190.6,190.6Z"/>
    </g>
    <g>
        <circle class="cls-1" cx="1800" cy="1031.74" r="220.6" transform="translate(-202.35 1574.98) rotate(-45)"/>
        <path class="cls-4" d="M1800,1222.34c-105.1,0-190.6-85.5-190.6-190.6s85.5-190.6,190.6-190.6,190.6,85.5,190.6,190.6-85.5,190.6-190.6,190.6Z"/>
    </g>
    <g>
        <circle class="cls-12" cx="2303.23" cy="768.26" r="220.6" transform="translate(131.36 1853.65) rotate(-45)"/>
        <path class="cls-4" d="M2303.23,958.85c-105.1,0-190.6-85.5-190.6-190.6s85.5-190.6,190.6-190.6,190.6,85.5,190.6,190.6-85.5,190.6-190.6,190.6Z"/>
    </g>
    <g>
        <circle class="cls-5" cx="2806.47" cy="1031.74" r="220.6" transform="translate(92.44 2286.66) rotate(-45)"/>
        <path class="cls-4" d="M2806.47,1222.34c-105.1,0-190.6-85.5-190.6-190.6s85.5-190.6,190.6-190.6,190.6,85.5,190.6,190.6-85.5,190.6-190.6,190.6Z"/>
    </g>
    <g>
        <circle class="cls-16" cx="3309.7" cy="768.26" r="220.6" transform="translate(426.15 2565.33) rotate(-45)"/>
        <path class="cls-4" d="M3309.7,958.85c-105.1,0-190.6-85.5-190.6-190.6s85.5-190.6,190.6-190.6,190.6,85.5,190.6,190.6-85.5,190.6-190.6,190.6Z"/>
    </g>
    <g>
        <path class="cls-3" d="M305.87,499.22h-10.28v-53.35c0-1.68,0-3.47.03-5.38.02-1.91.06-3.81.12-5.7.06-1.89.12-3.7.18-5.43.06-1.73.11-3.26.15-4.59-.66.7-1.25,1.3-1.75,1.81-.51.51-1.02.99-1.55,1.46-.53.47-1.08.97-1.67,1.49-.58.53-1.28,1.14-2.1,1.84l-8.65,7.07-5.61-7.19,22.38-17.47h8.76v85.43Z"/>
        <path class="cls-14" d="M826.18,729.01h-53.29v-9.12l20.45-22.26c2.92-3.16,5.53-6.04,7.83-8.65,2.3-2.61,4.26-5.16,5.87-7.66,1.62-2.49,2.85-5,3.71-7.51.86-2.51,1.29-5.25,1.29-8.21,0-2.3-.33-4.32-.99-6.08-.66-1.75-1.61-3.24-2.83-4.47s-2.68-2.15-4.35-2.77-3.54-.93-5.61-.93c-3.7,0-7.04.75-10.02,2.25-2.98,1.5-5.81,3.42-8.5,5.76l-5.96-6.95c1.56-1.4,3.23-2.72,5.02-3.95,1.79-1.22,3.72-2.29,5.78-3.18,2.06-.89,4.25-1.61,6.54-2.13,2.3-.52,4.71-.79,7.25-.79,3.74,0,7.12.53,10.14,1.58,3.02,1.05,5.58,2.56,7.68,4.53,2.1,1.97,3.73,4.37,4.88,7.19,1.15,2.82,1.72,6.01,1.72,9.55,0,3.31-.52,6.47-1.55,9.47-1.03,3-2.45,5.95-4.27,8.85-1.81,2.9-3.97,5.81-6.48,8.74-2.51,2.92-5.23,5.96-8.15,9.11l-16.42,17.47v.47h40.26v9.7Z"/>
        <path class="cls-11" d="M1321.13,433.78c0,2.84-.45,5.43-1.34,7.77-.9,2.33-2.15,4.36-3.77,6.08-1.62,1.71-3.56,3.13-5.81,4.24-2.26,1.11-4.77,1.9-7.54,2.37v.35c6.89.86,12.13,3.05,15.72,6.57,3.58,3.52,5.38,8.11,5.38,13.76,0,3.74-.63,7.17-1.9,10.28-1.27,3.12-3.18,5.8-5.76,8.06-2.57,2.26-5.82,4.01-9.76,5.26-3.93,1.25-8.59,1.87-13.96,1.87-4.25,0-8.25-.33-12.01-.99-3.76-.66-7.29-1.87-10.61-3.62v-9.93c3.39,1.79,7.06,3.18,11.01,4.15,3.95.97,7.74,1.46,11.36,1.46s6.68-.39,9.29-1.17c2.61-.78,4.76-1.89,6.46-3.33,1.69-1.44,2.94-3.21,3.74-5.32.8-2.1,1.2-4.46,1.2-7.07s-.52-4.92-1.55-6.81c-1.03-1.89-2.5-3.45-4.41-4.68s-4.24-2.13-6.98-2.72c-2.75-.59-5.85-.88-9.32-.88h-7.77v-8.82h7.77c3.16,0,5.96-.39,8.41-1.17,2.46-.78,4.51-1.89,6.17-3.33,1.66-1.44,2.91-3.16,3.77-5.14.86-1.99,1.29-4.17,1.29-6.54,0-2.02-.35-3.83-1.05-5.43-.7-1.6-1.69-2.95-2.98-4.06-1.29-1.11-2.83-1.96-4.62-2.54-1.79-.59-3.78-.88-5.96-.88-4.17,0-7.84.65-11.01,1.96-3.18,1.3-6.2,3.01-9.09,5.11l-5.38-7.3c1.48-1.21,3.13-2.34,4.94-3.39,1.81-1.05,3.79-1.98,5.93-2.77,2.14-.8,4.43-1.43,6.86-1.9,2.43-.47,5.02-.7,7.74-.7,4.21,0,7.9.53,11.07,1.58,3.17,1.05,5.83,2.52,7.98,4.41,2.14,1.89,3.76,4.13,4.85,6.72,1.09,2.59,1.64,5.43,1.64,8.5Z"/>
        <path class="cls-1" d="M1831.09,709.84h-12.45v19.17h-10.28v-19.17h-39.44v-9.29l38.74-57.44h10.98v57.03h12.45v9.7ZM1808.36,700.14v-20.8c0-2.18.03-4.47.09-6.86.06-2.4.13-4.73.2-7.01.08-2.28.17-4.41.26-6.4.1-1.99.17-3.64.21-4.97h-.53c-.27.78-.61,1.65-1.02,2.6-.41.96-.86,1.91-1.34,2.86-.49.96-.98,1.88-1.49,2.77-.51.9-.97,1.66-1.4,2.28l-24.01,35.53h29.04Z"/>
        <path class="cls-12" d="M2301.63,446.81c3.86,0,7.45.54,10.78,1.61,3.33,1.07,6.23,2.66,8.71,4.76,2.47,2.1,4.41,4.71,5.81,7.83,1.4,3.12,2.1,6.72,2.1,10.81,0,4.44-.66,8.43-1.99,11.98-1.32,3.54-3.29,6.54-5.9,9-2.61,2.46-5.83,4.33-9.67,5.64-3.84,1.3-8.25,1.96-13.23,1.96-1.99,0-3.95-.1-5.87-.29-1.93-.2-3.78-.48-5.55-.85-1.78-.37-3.46-.85-5.06-1.43-1.6-.58-3.04-1.27-4.32-2.04v-10.05c1.29.9,2.79,1.69,4.53,2.39,1.73.7,3.55,1.29,5.46,1.75,1.91.47,3.83.83,5.75,1.08,1.93.25,3.71.38,5.35.38,3.08,0,5.82-.36,8.24-1.08,2.41-.72,4.46-1.84,6.13-3.36,1.67-1.52,2.96-3.42,3.86-5.72.9-2.3,1.34-5.02,1.34-8.18,0-5.57-1.71-9.83-5.14-12.77-3.43-2.94-8.41-4.41-14.96-4.41-1.05,0-2.19.05-3.42.15-1.23.1-2.46.23-3.68.38-1.23.16-2.4.32-3.51.5-1.11.18-2.07.34-2.89.5l-5.26-3.33,3.21-40.2h40.32v9.7h-31.08l-2.28,24.48c1.25-.23,2.89-.49,4.94-.76,2.04-.27,4.47-.41,7.27-.41Z"/>
        <path class="cls-5" d="M2779.56,692.49c0-4.09.2-8.16.62-12.21.41-4.05,1.13-7.94,2.16-11.66,1.03-3.72,2.44-7.18,4.24-10.37,1.79-3.19,4.07-5.97,6.83-8.33,2.77-2.36,6.08-4.21,9.93-5.55,3.86-1.34,8.37-2.02,13.56-2.02.74,0,1.56.02,2.46.06.89.04,1.8.11,2.72.21.91.1,1.79.21,2.63.35.83.13,1.58.3,2.25.5v9.06c-1.36-.47-2.9-.82-4.61-1.05-1.71-.23-3.41-.35-5.08-.35-3.51,0-6.59.42-9.26,1.26-2.67.84-4.97,2.02-6.92,3.53-1.95,1.52-3.57,3.33-4.88,5.43-1.31,2.1-2.37,4.43-3.18,6.98-.82,2.55-1.42,5.27-1.81,8.15-.39,2.88-.64,5.88-.76,9h.7c.78-1.4,1.73-2.72,2.84-3.94,1.11-1.23,2.41-2.28,3.88-3.16s3.15-1.57,5-2.07c1.85-.51,3.93-.76,6.22-.76,3.7,0,7.05.57,10.05,1.72,3,1.15,5.55,2.83,7.66,5.05,2.1,2.22,3.73,4.94,4.88,8.15,1.15,3.21,1.72,6.89,1.72,11.02,0,4.44-.6,8.43-1.81,11.98-1.21,3.54-2.94,6.55-5.2,9.03-2.26,2.47-4.99,4.37-8.18,5.7-3.2,1.32-6.78,1.99-10.75,1.99s-7.55-.76-10.96-2.28c-3.41-1.52-6.36-3.84-8.85-6.96-2.49-3.11-4.46-7.03-5.9-11.74-1.44-4.71-2.16-10.29-2.16-16.71ZM2807.32,721.24c2.34,0,4.47-.4,6.4-1.2,1.93-.8,3.59-2,5-3.62,1.4-1.62,2.48-3.66,3.24-6.13.76-2.48,1.14-5.41,1.14-8.79,0-2.73-.32-5.17-.96-7.33-.64-2.16-1.61-4-2.89-5.52-1.29-1.52-2.89-2.69-4.82-3.51-1.93-.82-4.18-1.22-6.75-1.22s-5,.46-7.16,1.37c-2.16.92-4,2.1-5.52,3.57-1.52,1.46-2.7,3.13-3.54,5-.84,1.87-1.26,3.74-1.26,5.61,0,2.61.36,5.21,1.08,7.8.72,2.59,1.79,4.92,3.21,6.98,1.42,2.07,3.21,3.75,5.35,5.05,2.14,1.31,4.63,1.96,7.48,1.96Z"/>
        <path class="cls-16" d="M3293.4,499.22l32.89-75.73h-44.06v-9.7h54.93v8.47l-32.43,76.95h-11.34Z"/>
        <g>
            <path d="M234.65,1105.26h-19.61v-3.94l6.39-1.45v-43.45l-6.39-1.52v-3.94h19.61v3.94l-6.39,1.52v43.45l6.39,1.45v3.94Z"/>
            <path d="M258.67,1106c-5.3,0-9.41-1.83-12.33-5.5-2.92-3.67-4.38-8.85-4.38-15.56s1.47-11.86,4.4-15.6c2.93-3.74,7.06-5.61,12.39-5.61s9.68,2.01,12.63,6.02h.48c-.07-.5-.17-1.49-.3-2.99-.12-1.5-.19-2.51-.19-3.03v-16.27h6.69v57.79h-5.39l-1-5.46h-.3c-2.85,4.14-7.08,6.2-12.7,6.2ZM259.75,1100.47c4.06,0,7.02-1.11,8.89-3.32,1.87-2.22,2.8-5.85,2.8-10.9v-1.23c0-5.67-.95-9.71-2.84-12.13-1.9-2.41-4.87-3.62-8.93-3.62-3.44,0-6.1,1.37-7.98,4.1-1.88,2.74-2.82,6.64-2.82,11.72s.94,8.88,2.8,11.47c1.87,2.6,4.56,3.9,8.08,3.9Z"/>
            <path d="M308.37,1106c-6.11,0-10.91-1.85-14.39-5.55-3.48-3.7-5.22-8.8-5.22-15.28s1.62-11.74,4.87-15.62c3.24-3.87,7.63-5.81,13.15-5.81,5.12,0,9.21,1.65,12.26,4.96,3.05,3.31,4.57,7.78,4.57,13.43v4.05h-27.93c.12,4.63,1.3,8.15,3.53,10.55,2.23,2.4,5.39,3.6,9.47,3.6,2.18,0,4.25-.19,6.2-.58,1.96-.38,4.25-1.13,6.87-2.25v5.87c-2.25.97-4.37,1.65-6.35,2.04-1.98.4-4.32.6-7.02.6ZM306.69,1069.2c-3.19,0-5.72,1.03-7.58,3.08-1.86,2.06-2.96,4.92-3.3,8.58h20.76c-.05-3.81-.93-6.71-2.64-8.69-1.71-1.98-4.12-2.97-7.24-2.97Z"/>
            <path d="M359.1,1105.26l-1.3-5.79h-.3c-2.03,2.55-4.05,4.28-6.07,5.18-2.02.9-4.56,1.35-7.63,1.35-4.01,0-7.16-1.05-9.43-3.16-2.28-2.1-3.42-5.08-3.42-8.91,0-8.27,6.52-12.6,19.57-13l6.91-.26v-2.42c0-3.09-.67-5.38-2.01-6.85-1.34-1.47-3.48-2.21-6.42-2.21-2.15,0-4.19.32-6.11.96-1.92.64-3.72,1.36-5.4,2.15l-2.04-5.01c2.05-1.09,4.3-1.94,6.72-2.56,2.43-.62,4.83-.93,7.2-.93,4.93,0,8.59,1.09,10.99,3.27,2.4,2.18,3.6,5.65,3.6,10.4v27.78h-4.86ZM345.32,1100.62c3.74,0,6.68-1.01,8.82-3.03,2.14-2.02,3.21-4.88,3.21-8.6v-3.68l-6.02.26c-4.68.17-8.09.92-10.23,2.23-2.14,1.31-3.21,3.38-3.21,6.2,0,2.13.65,3.76,1.95,4.9,1.3,1.14,3.13,1.71,5.48,1.71Z"/>
            <path d="M121.22,1167.86h18.76v26.63c-2.87.92-5.79,1.61-8.76,2.08-2.97.47-6.41.7-10.32.7-8.27,0-14.67-2.45-19.2-7.35-4.53-4.9-6.8-11.75-6.8-20.54,0-5.67,1.13-10.62,3.38-14.86,2.25-4.23,5.5-7.47,9.75-9.71,4.25-2.24,9.25-3.36,15.02-3.36s11.19,1.06,16.19,3.19l-2.6,5.94c-4.78-2.08-9.45-3.12-14-3.12-6.46,0-11.51,1.95-15.15,5.87-3.64,3.91-5.46,9.26-5.46,16.04,0,7.18,1.75,12.64,5.24,16.38s8.57,5.61,15.23,5.61c3.64,0,7.19-.43,10.66-1.3v-16.12h-11.92v-6.09Z"/>
            <path d="M169.43,1197.27c-6.11,0-10.91-1.85-14.39-5.55-3.48-3.7-5.22-8.8-5.22-15.28s1.62-11.74,4.87-15.62c3.24-3.87,7.63-5.81,13.15-5.81,5.12,0,9.21,1.65,12.26,4.96,3.05,3.31,4.57,7.78,4.57,13.43v4.05h-27.93c.12,4.63,1.3,8.15,3.53,10.55,2.23,2.4,5.39,3.6,9.47,3.6,2.18,0,4.25-.19,6.2-.58,1.96-.38,4.25-1.13,6.87-2.25v5.87c-2.25.97-4.37,1.65-6.35,2.04-1.98.4-4.32.6-7.02.6ZM167.76,1160.47c-3.19,0-5.72,1.03-7.58,3.08-1.86,2.06-2.96,4.92-3.3,8.58h20.76c-.05-3.81-.93-6.71-2.64-8.69-1.71-1.98-4.12-2.97-7.24-2.97Z"/>
            <path d="M222.76,1196.53v-26.07c0-3.32-.74-5.79-2.21-7.41-1.47-1.62-3.78-2.43-6.93-2.43-4.18,0-7.22,1.16-9.12,3.47-1.89,2.31-2.84,6.08-2.84,11.31v21.13h-6.68v-40.78h5.39l1,5.57h.37c1.26-2.01,3.03-3.56,5.31-4.66,2.28-1.1,4.79-1.65,7.54-1.65,5,0,8.71,1.21,11.14,3.64,2.43,2.43,3.64,6.2,3.64,11.33v26.56h-6.61Z"/>
            <path d="M259.34,1197.27c-6.11,0-10.91-1.85-14.39-5.55-3.48-3.7-5.22-8.8-5.22-15.28s1.62-11.74,4.87-15.62,7.63-5.81,13.15-5.81c5.12,0,9.21,1.65,12.26,4.96,3.05,3.31,4.57,7.78,4.57,13.43v4.05h-27.93c.12,4.63,1.3,8.15,3.53,10.55,2.23,2.4,5.39,3.6,9.47,3.6,2.18,0,4.25-.19,6.2-.58,1.96-.38,4.25-1.13,6.87-2.25v5.87c-2.25.97-4.37,1.65-6.35,2.04-1.98.4-4.32.6-7.02.6ZM257.67,1160.47c-3.19,0-5.72,1.03-7.58,3.08-1.86,2.06-2.96,4.92-3.3,8.58h20.76c-.05-3.81-.93-6.71-2.64-8.69-1.71-1.98-4.12-2.97-7.24-2.97Z"/>
            <path d="M303.91,1155.01c1.81,0,3.4.15,4.79.45l-.82,6.17c-1.51-.35-2.98-.52-4.42-.52-2.15,0-4.15.6-6,1.78-1.85,1.19-3.29,2.83-4.33,4.92-1.04,2.09-1.56,4.41-1.56,6.96v21.76h-6.69v-40.78h5.5l.74,7.47h.3c1.56-2.7,3.4-4.74,5.53-6.13,2.13-1.38,4.44-2.08,6.95-2.08Z"/>
            <path d="M340.75,1196.53l-1.3-5.79h-.3c-2.03,2.55-4.05,4.28-6.07,5.18-2.02.9-4.56,1.35-7.63,1.35-4.01,0-7.16-1.05-9.43-3.16-2.28-2.1-3.42-5.08-3.42-8.91,0-8.27,6.52-12.6,19.57-13l6.91-.26v-2.42c0-3.09-.67-5.38-2.01-6.85-1.34-1.47-3.48-2.21-6.42-2.21-2.15,0-4.19.32-6.11.96-1.92.65-3.72,1.36-5.4,2.15l-2.04-5.01c2.05-1.09,4.3-1.94,6.72-2.56,2.43-.62,4.83-.93,7.2-.93,4.93,0,8.59,1.09,10.99,3.27,2.4,2.18,3.6,5.65,3.6,10.4v27.78h-4.86ZM326.97,1191.89c3.74,0,6.68-1.01,8.82-3.03,2.14-2.02,3.21-4.88,3.21-8.6v-3.68l-6.02.26c-4.68.17-8.09.92-10.23,2.23-2.14,1.31-3.21,3.38-3.21,6.2,0,2.13.65,3.76,1.95,4.9,1.3,1.14,3.13,1.71,5.48,1.71Z"/>
            <path d="M371.87,1191.82c.87,0,1.88-.09,3.04-.26,1.16-.17,2.04-.37,2.64-.59v5.12c-.62.27-1.58.54-2.88.8-1.3.26-2.62.39-3.96.39-7.97,0-11.96-4.2-11.96-12.59v-23.73h-5.76v-3.19l5.83-2.67,2.67-8.69h3.97v9.36h11.77v5.2h-11.77v23.55c0,2.35.56,4.16,1.69,5.42,1.13,1.26,2.69,1.9,4.7,1.9Z"/>
            <path d="M385.17,1144.72c0-1.48.38-2.56,1.13-3.23.75-.67,1.69-1,2.8-1,1.04,0,1.95.33,2.73,1,.78.67,1.17,1.75,1.17,3.23s-.39,2.54-1.17,3.23c-.78.69-1.69,1.04-2.73,1.04-1.11,0-2.05-.35-2.8-1.04-.76-.69-1.13-1.77-1.13-3.23ZM392.37,1196.53h-6.69v-40.78h6.69v40.78Z"/>
            <path d="M440.73,1176.07c0,6.66-1.68,11.86-5.05,15.6-3.37,3.74-8.02,5.61-13.96,5.61-3.69,0-6.96-.86-9.81-2.58s-5.04-4.19-6.57-7.41c-1.54-3.22-2.3-6.96-2.3-11.22,0-6.63,1.66-11.8,4.98-15.5,3.32-3.7,7.97-5.55,13.96-5.55s10.31,1.89,13.69,5.67c3.38,3.78,5.07,8.91,5.07,15.39ZM409.94,1176.07c0,5.12,1.01,9.02,3.03,11.68,2.02,2.66,5,3.99,8.93,3.99s6.85-1.33,8.88-3.99c2.03-2.66,3.04-6.56,3.04-11.68s-1.02-8.98-3.06-11.57c-2.04-2.59-5.03-3.88-8.97-3.88-7.9,0-11.85,5.15-11.85,15.45Z"/>
            <path d="M479.09,1196.53v-26.07c0-3.32-.74-5.79-2.21-7.41-1.47-1.62-3.78-2.43-6.93-2.43-4.18,0-7.22,1.16-9.12,3.47-1.89,2.31-2.84,6.08-2.84,11.31v21.13h-6.68v-40.78h5.39l1,5.57h.37c1.26-2.01,3.03-3.56,5.31-4.66,2.28-1.1,4.79-1.65,7.54-1.65,5,0,8.71,1.21,11.14,3.64,2.43,2.43,3.64,6.2,3.64,11.33v26.56h-6.61Z"/>
        </g>
        <g>
            <path d="M578.06,1328.1v22.43h-6.83v-54.3h14.97c6.73,0,11.72,1.28,14.95,3.84,3.23,2.56,4.85,6.42,4.85,11.57,0,7.2-3.63,12.06-10.88,14.56l14.89,24.33h-7.98l-13.15-22.43h-10.81ZM578.06,1322.31h8.13c4.41,0,7.63-.87,9.66-2.6,2.03-1.73,3.05-4.31,3.05-7.72s-1.03-5.91-3.08-7.48c-2.05-1.57-5.39-2.36-9.99-2.36h-7.76v20.17Z"/>
            <path d="M634.95,1351.28c-6.11,0-10.91-1.85-14.39-5.55-3.48-3.7-5.22-8.8-5.22-15.28s1.62-11.74,4.87-15.62c3.24-3.87,7.63-5.81,13.15-5.81,5.12,0,9.21,1.65,12.26,4.96,3.05,3.31,4.57,7.78,4.57,13.43v4.05h-27.93c.12,4.63,1.3,8.15,3.53,10.55,2.23,2.4,5.39,3.6,9.47,3.6,2.18,0,4.25-.19,6.2-.58s4.25-1.13,6.87-2.25v5.87c-2.25.97-4.37,1.65-6.35,2.04-1.98.4-4.32.6-7.02.6ZM633.28,1314.47c-3.19,0-5.72,1.03-7.58,3.08-1.86,2.06-2.96,4.92-3.3,8.58h20.76c-.05-3.81-.93-6.71-2.64-8.69-1.71-1.98-4.12-2.97-7.24-2.97Z"/>
            <path d="M674.8,1351.28c-5.25,0-9.32-1.86-12.22-5.57-2.9-3.71-4.35-8.88-4.35-15.49s1.48-11.83,4.44-15.58c2.96-3.75,7.07-5.63,12.35-5.63,5.57,0,9.81,2.1,12.7,6.32h.3l1-5.57h5.31v59.05h-6.69v-17.42c0-2.72.12-4.83.37-6.32h-.45c-2.85,4.14-7.11,6.2-12.77,6.2ZM676.1,1345.74c3.99,0,6.9-1.09,8.73-3.27,1.83-2.18,2.8-5.78,2.9-10.81v-1.37c0-5.62-.94-9.65-2.82-12.09-1.88-2.44-4.87-3.66-8.95-3.66-3.49,0-6.16,1.37-8.02,4.12-1.86,2.75-2.79,6.65-2.79,11.7s.92,8.78,2.77,11.42c1.84,2.63,4.57,3.95,8.19,3.95Z"/>
            <path d="M713.61,1309.75v26.26c0,3.29.74,5.74,2.21,7.34,1.47,1.6,3.76,2.4,6.85,2.4,4.18,0,7.23-1.16,9.14-3.49,1.91-2.33,2.86-6.08,2.86-11.25v-21.24h6.72v40.78h-5.5l-.96-5.39h-.33c-1.21,1.96-2.93,3.47-5.16,4.53-2.23,1.06-4.82,1.6-7.76,1.6-4.9,0-8.6-1.18-11.09-3.53-2.49-2.35-3.73-6.11-3.73-11.29v-26.7h6.76Z"/>
            <path d="M753.8,1298.73c0-1.48.38-2.56,1.13-3.23.75-.67,1.69-1,2.8-1,1.04,0,1.95.33,2.73,1,.78.67,1.17,1.75,1.17,3.23s-.39,2.54-1.17,3.23c-.78.69-1.69,1.04-2.73,1.04-1.11,0-2.05-.35-2.8-1.04-.76-.69-1.13-1.77-1.13-3.23ZM761,1350.53h-6.68v-40.78h6.68v40.78Z"/>
            <path d="M792.94,1309.01c1.81,0,3.4.15,4.79.45l-.82,6.17c-1.51-.35-2.98-.52-4.42-.52-2.15,0-4.15.6-6,1.78-1.85,1.19-3.29,2.83-4.33,4.92-1.04,2.09-1.56,4.41-1.56,6.96v21.76h-6.68v-40.78h5.5l.74,7.47h.3c1.56-2.7,3.4-4.74,5.53-6.13,2.13-1.38,4.44-2.08,6.95-2.08Z"/>
            <path d="M821.94,1351.28c-6.11,0-10.91-1.85-14.39-5.55-3.48-3.7-5.22-8.8-5.22-15.28s1.62-11.74,4.87-15.62,7.63-5.81,13.15-5.81c5.12,0,9.21,1.65,12.26,4.96,3.05,3.31,4.57,7.78,4.57,13.43v4.05h-27.93c.12,4.63,1.3,8.15,3.53,10.55,2.23,2.4,5.39,3.6,9.47,3.6,2.18,0,4.25-.19,6.2-.58,1.96-.38,4.25-1.13,6.87-2.25v5.87c-2.25.97-4.37,1.65-6.35,2.04-1.98.4-4.32.6-7.02.6ZM820.27,1314.47c-3.19,0-5.72,1.03-7.58,3.08-1.86,2.06-2.96,4.92-3.3,8.58h20.76c-.05-3.81-.93-6.71-2.64-8.69-1.71-1.98-4.12-2.97-7.24-2.97Z"/>
            <path d="M899.38,1350.53v-26.26c0-6.44-2.76-9.66-8.28-9.66-3.79,0-6.57,1.1-8.36,3.31-1.78,2.2-2.67,5.57-2.67,10.1v22.51h-6.65v-26.26c0-3.22-.68-5.63-2.02-7.24-1.35-1.61-3.46-2.42-6.33-2.42-3.76,0-6.52,1.15-8.26,3.45-1.75,2.3-2.62,6.08-2.62,11.33v21.13h-6.69v-40.78h5.39l1,5.57h.37c1.16-1.98,2.8-3.53,4.92-4.64,2.12-1.11,4.49-1.67,7.11-1.67,6.39,0,10.55,2.28,12.48,6.83h.37c1.31-2.18,3.1-3.86,5.37-5.05,2.26-1.19,4.83-1.78,7.71-1.78,4.61,0,8.05,1.19,10.34,3.57,2.29,2.38,3.44,6.18,3.44,11.4v26.56h-6.61Z"/>
            <path d="M935.96,1351.28c-6.11,0-10.91-1.85-14.39-5.55-3.48-3.7-5.22-8.8-5.22-15.28s1.62-11.74,4.87-15.62,7.63-5.81,13.15-5.81c5.12,0,9.21,1.65,12.26,4.96,3.05,3.31,4.57,7.78,4.57,13.43v4.05h-27.93c.12,4.63,1.3,8.15,3.53,10.55,2.23,2.4,5.39,3.6,9.47,3.6,2.18,0,4.25-.19,6.2-.58,1.96-.38,4.25-1.13,6.87-2.25v5.87c-2.25.97-4.37,1.65-6.35,2.04-1.98.4-4.32.6-7.02.6ZM934.29,1314.47c-3.19,0-5.72,1.03-7.58,3.08-1.86,2.06-2.96,4.92-3.3,8.58h20.76c-.05-3.81-.93-6.71-2.64-8.69-1.71-1.98-4.12-2.97-7.24-2.97Z"/>
            <path d="M989.29,1350.53v-26.07c0-3.32-.74-5.79-2.21-7.41-1.47-1.62-3.78-2.43-6.93-2.43-4.18,0-7.22,1.16-9.12,3.47-1.89,2.31-2.84,6.08-2.84,11.31v21.13h-6.69v-40.78h5.39l1,5.57h.37c1.26-2.01,3.03-3.56,5.31-4.66,2.28-1.1,4.79-1.65,7.54-1.65,5,0,8.71,1.21,11.14,3.64,2.43,2.43,3.64,6.2,3.64,11.33v26.56h-6.61Z"/>
            <path d="M1022.16,1345.82c.87,0,1.88-.09,3.04-.26,1.16-.17,2.04-.37,2.64-.59v5.12c-.62.27-1.58.54-2.88.8-1.3.26-2.62.39-3.96.39-7.97,0-11.96-4.2-11.96-12.59v-23.73h-5.76v-3.19l5.83-2.67,2.67-8.69h3.97v9.36h11.77v5.2h-11.77v23.55c0,2.35.56,4.16,1.69,5.42,1.13,1.26,2.69,1.9,4.7,1.9Z"/>
            <path d="M693.54,1441.81l-6.54-16.82h-21.54l-6.46,16.82h-6.91l21.21-54.52h6.17l21.17,54.52h-7.09ZM684.96,1418.93l-6.09-16.45-2.6-8.13c-.74,2.97-1.52,5.68-2.34,8.13l-6.17,16.45h17.2Z"/>
            <path d="M734.95,1441.81v-26.07c0-3.32-.74-5.79-2.21-7.41-1.47-1.62-3.78-2.43-6.93-2.43-4.18,0-7.22,1.16-9.12,3.47-1.89,2.31-2.84,6.08-2.84,11.31v21.13h-6.69v-40.78h5.39l1,5.57h.37c1.26-2.01,3.03-3.56,5.31-4.66,2.28-1.1,4.79-1.65,7.54-1.65,5,0,8.71,1.21,11.14,3.64,2.43,2.43,3.64,6.2,3.64,11.33v26.56h-6.61Z"/>
            <path d="M779.37,1441.81l-1.3-5.79h-.3c-2.03,2.55-4.05,4.28-6.07,5.18-2.02.9-4.56,1.35-7.63,1.35-4.01,0-7.16-1.05-9.43-3.16-2.28-2.1-3.42-5.08-3.42-8.91,0-8.27,6.52-12.6,19.57-13l6.91-.26v-2.42c0-3.09-.67-5.38-2.01-6.85-1.34-1.47-3.48-2.21-6.42-2.21-2.15,0-4.19.32-6.11.96-1.92.65-3.72,1.36-5.4,2.15l-2.04-5.01c2.05-1.09,4.3-1.94,6.72-2.56,2.43-.62,4.83-.93,7.2-.93,4.93,0,8.59,1.09,10.99,3.27,2.4,2.18,3.6,5.65,3.6,10.4v27.78h-4.86ZM765.59,1437.16c3.74,0,6.68-1.01,8.82-3.03,2.14-2.02,3.21-4.88,3.21-8.6v-3.68l-6.02.26c-4.68.17-8.09.92-10.23,2.23-2.14,1.31-3.21,3.38-3.21,6.2,0,2.13.65,3.76,1.95,4.9,1.3,1.14,3.13,1.71,5.48,1.71Z"/>
            <path d="M803.54,1441.81h-6.69v-57.79h6.69v57.79Z"/>
            <path d="M810.08,1401.03h7.17l8.8,23.21c1.86,5.05,3,8.75,3.42,11.1h.3c.22-.92.73-2.63,1.52-5.14.79-2.51,1.46-4.52,2.01-6.03l8.28-23.14h7.21l-17.57,46.43c-1.71,4.5-3.74,7.74-6.09,9.69-2.35,1.95-5.26,2.93-8.73,2.93-1.86,0-3.7-.21-5.53-.63v-5.31c1.24.3,2.72.45,4.46.45,2.13,0,3.94-.59,5.42-1.76,1.49-1.18,2.7-2.99,3.64-5.44l2.12-5.42-16.41-40.93Z"/>
            <path d="M881.79,1430.55c0,3.81-1.42,6.77-4.27,8.86-2.85,2.09-6.85,3.14-12,3.14s-9.64-.85-12.81-2.56v-6.09c4.48,2.18,8.8,3.27,12.96,3.27,3.37,0,5.82-.55,7.35-1.64,1.54-1.09,2.3-2.55,2.3-4.38,0-1.61-.74-2.97-2.21-4.09s-4.09-2.39-7.86-3.82c-3.84-1.49-6.54-2.75-8.1-3.81-1.56-1.05-2.71-2.23-3.44-3.55-.73-1.31-1.1-2.91-1.1-4.79,0-3.34,1.36-5.98,4.09-7.91,2.72-1.93,6.46-2.9,11.22-2.9s8.96.92,13,2.75l-2.27,5.31c-4.14-1.73-7.86-2.6-11.18-2.6-2.77,0-4.88.44-6.31,1.32-1.44.88-2.15,2.09-2.15,3.62s.62,2.72,1.86,3.7c1.24.98,4.12,2.33,8.65,4.07,3.39,1.26,5.9,2.44,7.52,3.53,1.62,1.09,2.82,2.32,3.58,3.68.77,1.36,1.15,3,1.15,4.9Z"/>
            <path d="M891.15,1390c0-1.48.38-2.56,1.13-3.23.75-.67,1.69-1,2.8-1,1.04,0,1.95.33,2.73,1,.78.67,1.17,1.75,1.17,3.23s-.39,2.54-1.17,3.23c-.78.69-1.69,1.04-2.73,1.04-1.11,0-2.05-.35-2.8-1.04-.76-.69-1.13-1.77-1.13-3.23ZM898.36,1441.81h-6.68v-40.78h6.68v40.78Z"/>
            <path d="M937.84,1430.55c0,3.81-1.42,6.77-4.27,8.86s-6.85,3.14-12,3.14-9.64-.85-12.81-2.56v-6.09c4.48,2.18,8.8,3.27,12.96,3.27,3.37,0,5.82-.55,7.35-1.64,1.54-1.09,2.3-2.55,2.3-4.38,0-1.61-.74-2.97-2.21-4.09s-4.09-2.39-7.86-3.82c-3.84-1.49-6.54-2.75-8.1-3.81-1.56-1.05-2.71-2.23-3.44-3.55-.73-1.31-1.1-2.91-1.1-4.79,0-3.34,1.36-5.98,4.09-7.91,2.72-1.93,6.46-2.9,11.22-2.9s8.96.92,13,2.75l-2.27,5.31c-4.13-1.73-7.86-2.6-11.18-2.6-2.77,0-4.88.44-6.31,1.32-1.44.88-2.15,2.09-2.15,3.62s.62,2.72,1.86,3.7c1.24.98,4.12,2.33,8.65,4.07,3.39,1.26,5.9,2.44,7.52,3.53,1.62,1.09,2.82,2.32,3.58,3.68.77,1.36,1.15,3,1.15,4.9Z"/>
        </g>
        <g>
            <path d="M1195.82,1068.48c0,5.55-1.89,9.8-5.68,12.76-3.79,2.96-9.12,4.44-16.01,4.44h-6.24v21.13h-6.83v-54.3h14.37c13.59,0,20.39,5.32,20.39,15.97ZM1167.9,1079.8h5.46c5.4,0,9.31-.87,11.74-2.62,2.43-1.75,3.64-4.55,3.64-8.41,0-3.49-1.13-6.1-3.38-7.84-2.25-1.73-5.77-2.6-10.55-2.6h-6.91v21.47Z"/>
            <path d="M1225.16,1065.28c1.81,0,3.4.15,4.79.45l-.82,6.17c-1.51-.35-2.98-.52-4.42-.52-2.15,0-4.15.6-6,1.78-1.85,1.19-3.29,2.83-4.33,4.92-1.04,2.09-1.56,4.41-1.56,6.96v21.76h-6.69v-40.78h5.5l.74,7.47h.3c1.56-2.7,3.4-4.74,5.53-6.13,2.13-1.38,4.44-2.08,6.95-2.08Z"/>
            <path d="M1272.25,1086.34c0,6.66-1.68,11.86-5.05,15.6-3.37,3.74-8.02,5.61-13.96,5.61-3.69,0-6.96-.86-9.81-2.58-2.85-1.72-5.04-4.19-6.57-7.41-1.54-3.22-2.3-6.96-2.3-11.22,0-6.63,1.66-11.8,4.98-15.5s7.97-5.55,13.96-5.55,10.31,1.89,13.69,5.67c3.38,3.78,5.07,8.91,5.07,15.39ZM1241.47,1086.34c0,5.12,1.01,9.02,3.03,11.68,2.02,2.66,5,3.99,8.93,3.99s6.85-1.33,8.88-3.99c2.03-2.66,3.04-6.56,3.04-11.68s-1.02-8.98-3.06-11.57c-2.04-2.59-5.03-3.88-8.97-3.88-7.9,0-11.85,5.15-11.85,15.45Z"/>
            <path d="M1297.29,1107.55c-5.3,0-9.41-1.83-12.33-5.5-2.92-3.67-4.38-8.85-4.38-15.56s1.47-11.86,4.4-15.6c2.93-3.74,7.06-5.61,12.39-5.61s9.68,2.01,12.63,6.02h.48c-.07-.5-.17-1.49-.3-2.99-.12-1.5-.19-2.51-.19-3.03v-16.27h6.68v57.79h-5.39l-1-5.46h-.3c-2.85,4.14-7.08,6.2-12.7,6.2ZM1298.36,1102.01c4.06,0,7.02-1.11,8.89-3.32,1.87-2.22,2.8-5.85,2.8-10.9v-1.23c0-5.67-.95-9.71-2.84-12.13-1.9-2.41-4.87-3.62-8.93-3.62-3.44,0-6.1,1.37-7.98,4.1-1.88,2.74-2.82,6.64-2.82,11.72s.94,8.88,2.8,11.47c1.87,2.6,4.56,3.9,8.08,3.9Z"/>
            <path d="M1335.95,1066.03v26.26c0,3.29.74,5.74,2.21,7.34,1.47,1.6,3.76,2.4,6.85,2.4,4.18,0,7.23-1.16,9.14-3.49,1.91-2.33,2.86-6.08,2.86-11.25v-21.24h6.72v40.78h-5.5l-.96-5.39h-.34c-1.21,1.96-2.93,3.47-5.16,4.53-2.23,1.06-4.82,1.6-7.76,1.6-4.9,0-8.6-1.18-11.09-3.53-2.49-2.35-3.73-6.11-3.73-11.29v-26.7h6.76Z"/>
            <path d="M1392.99,1107.55c-5.87,0-10.44-1.8-13.7-5.4-3.27-3.6-4.9-8.77-4.9-15.5s1.65-12.1,4.96-15.8c3.31-3.7,8.02-5.55,14.13-5.55,1.98,0,3.94.2,5.89.61,1.94.41,3.55.94,4.81,1.58l-2.04,5.57c-3.44-1.29-6.38-1.93-8.8-1.93-4.11,0-7.14,1.29-9.1,3.88-1.96,2.59-2.93,6.44-2.93,11.57s.98,8.7,2.93,11.31c1.95,2.61,4.85,3.92,8.69,3.92,3.59,0,7.12-.79,10.58-2.38v5.94c-2.82,1.46-6.33,2.19-10.51,2.19Z"/>
            <path d="M1426.79,1102.09c.87,0,1.88-.09,3.04-.26,1.16-.17,2.04-.37,2.64-.59v5.12c-.62.27-1.58.54-2.88.8-1.3.26-2.62.39-3.96.39-7.97,0-11.96-4.2-11.96-12.59v-23.73h-5.76v-3.19l5.83-2.67,2.67-8.69h3.97v9.36h11.77v5.2h-11.77v23.55c0,2.35.56,4.16,1.69,5.42,1.13,1.26,2.69,1.89,4.7,1.89Z"/>
            <path d="M1220.65,1170.41c0,8.96-2.45,15.82-7.34,20.56-4.89,4.74-11.9,7.11-21.04,7.11h-15.11v-54.3h16.71c8.44,0,15.02,2.32,19.72,6.96,4.7,4.64,7.06,11.2,7.06,19.67ZM1213.45,1170.63c0-6.91-1.7-12.14-5.11-15.69-3.41-3.55-8.55-5.33-15.43-5.33h-8.91v42.6h7.39c14.71,0,22.06-7.19,22.06-21.58Z"/>
            <path d="M1249.1,1198.82c-6.11,0-10.91-1.85-14.39-5.55-3.48-3.7-5.22-8.8-5.22-15.28s1.62-11.74,4.87-15.62c3.24-3.87,7.63-5.81,13.15-5.81,5.12,0,9.21,1.65,12.26,4.96,3.05,3.31,4.57,7.78,4.57,13.43v4.05h-27.93c.12,4.63,1.3,8.15,3.53,10.55,2.23,2.4,5.39,3.6,9.47,3.6,2.18,0,4.25-.19,6.2-.58,1.96-.38,4.25-1.13,6.87-2.25v5.87c-2.25.97-4.37,1.65-6.35,2.04-1.98.4-4.32.6-7.02.6ZM1247.43,1162.02c-3.19,0-5.72,1.03-7.58,3.08-1.86,2.06-2.96,4.92-3.3,8.58h20.76c-.05-3.81-.93-6.71-2.64-8.69-1.71-1.98-4.12-2.97-7.24-2.97Z"/>
            <path d="M1301.2,1186.82c0,3.81-1.42,6.77-4.27,8.86s-6.85,3.14-12,3.14-9.64-.85-12.81-2.56v-6.09c4.48,2.18,8.8,3.27,12.96,3.27,3.37,0,5.82-.55,7.35-1.64,1.54-1.09,2.3-2.55,2.3-4.38,0-1.61-.74-2.97-2.21-4.09-1.47-1.11-4.09-2.39-7.86-3.83-3.84-1.49-6.54-2.75-8.1-3.81-1.56-1.05-2.71-2.23-3.44-3.55-.73-1.31-1.1-2.91-1.1-4.79,0-3.34,1.36-5.98,4.09-7.91,2.72-1.93,6.46-2.9,11.22-2.9s8.96.92,13,2.75l-2.27,5.31c-4.14-1.73-7.86-2.6-11.18-2.6-2.77,0-4.88.44-6.31,1.32-1.44.88-2.15,2.09-2.15,3.62s.62,2.72,1.86,3.7c1.24.98,4.12,2.33,8.65,4.07,3.39,1.26,5.9,2.44,7.52,3.53,1.62,1.09,2.82,2.32,3.58,3.68.77,1.36,1.15,3,1.15,4.9Z"/>
            <path d="M1310.56,1146.27c0-1.48.38-2.56,1.13-3.23.75-.67,1.69-1,2.8-1,1.04,0,1.95.33,2.73,1,.78.67,1.17,1.75,1.17,3.23s-.39,2.54-1.17,3.23c-.78.69-1.69,1.04-2.73,1.04-1.11,0-2.05-.35-2.8-1.04-.76-.69-1.13-1.77-1.13-3.23ZM1317.77,1198.08h-6.68v-40.78h6.68v40.78Z"/>
            <path d="M1357.91,1197.71l.22-5.02h-.3c-2.75,4.09-6.96,6.13-12.63,6.13-5.27,0-9.39-1.84-12.35-5.52-2.96-3.68-4.44-8.86-4.44-15.54s1.49-11.74,4.48-15.52c2.98-3.79,7.06-5.68,12.24-5.68,5.52,0,9.78,2.06,12.77,6.17h.41l.89-5.42h5.31v41.45c0,5.84-1.48,10.24-4.44,13.19-2.96,2.95-7.56,4.42-13.8,4.42s-10.83-.87-14.67-2.6v-6.16c3.96,2.13,8.97,3.19,15.04,3.19,3.47,0,6.21-1.02,8.23-3.05,2.02-2.03,3.03-4.84,3.03-8.43v-1.6ZM1346.22,1193.36c4.11,0,7.1-1.11,8.97-3.32,1.87-2.22,2.8-5.77,2.8-10.68v-1.6c0-5.45-.94-9.41-2.82-11.88-1.88-2.48-4.91-3.72-9.1-3.72-3.42,0-6.06,1.36-7.93,4.07-1.87,2.71-2.8,6.58-2.8,11.61s.91,8.9,2.73,11.55c1.82,2.65,4.54,3.97,8.15,3.97Z"/>
            <path d="M1405.27,1198.08v-26.07c0-3.32-.74-5.79-2.21-7.41-1.47-1.62-3.78-2.43-6.93-2.43-4.18,0-7.22,1.16-9.12,3.47-1.89,2.31-2.84,6.08-2.84,11.31v21.13h-6.68v-40.78h5.39l1,5.57h.37c1.26-2.01,3.03-3.56,5.31-4.66,2.28-1.1,4.79-1.65,7.54-1.65,5,0,8.71,1.21,11.14,3.64,2.43,2.43,3.64,6.2,3.64,11.33v26.56h-6.61Z"/>
        </g>
        <g>
            <path d="M1699.06,1312.05c0,5.55-1.89,9.8-5.68,12.76-3.79,2.96-9.12,4.44-16.01,4.44h-6.24v21.13h-6.83v-54.3h14.37c13.59,0,20.39,5.32,20.39,15.97ZM1671.13,1323.38h5.46c5.4,0,9.31-.87,11.74-2.62,2.43-1.75,3.64-4.55,3.64-8.41,0-3.49-1.13-6.1-3.38-7.84-2.25-1.73-5.77-2.6-10.55-2.6h-6.91v21.47Z"/>
            <path d="M1728.4,1308.86c1.81,0,3.4.15,4.79.45l-.82,6.17c-1.51-.35-2.98-.52-4.42-.52-2.15,0-4.15.6-6,1.78-1.85,1.19-3.29,2.83-4.33,4.92-1.04,2.09-1.56,4.41-1.56,6.96v21.76h-6.69v-40.78h5.5l.74,7.47h.3c1.56-2.7,3.4-4.74,5.53-6.13,2.13-1.38,4.44-2.08,6.95-2.08Z"/>
            <path d="M1775.49,1329.92c0,6.66-1.68,11.86-5.05,15.6-3.37,3.74-8.02,5.61-13.96,5.61-3.69,0-6.96-.86-9.81-2.58-2.85-1.72-5.04-4.19-6.57-7.41-1.54-3.22-2.3-6.96-2.3-11.22,0-6.63,1.66-11.8,4.98-15.5,3.32-3.7,7.97-5.55,13.96-5.55s10.31,1.89,13.69,5.67c3.38,3.78,5.07,8.91,5.07,15.39ZM1744.7,1329.92c0,5.12,1.01,9.02,3.03,11.68s5,3.99,8.93,3.99,6.85-1.33,8.88-3.99c2.03-2.66,3.04-6.56,3.04-11.68s-1.02-8.98-3.06-11.57c-2.04-2.59-5.03-3.88-8.97-3.88-7.9,0-11.85,5.15-11.85,15.45Z"/>
            <path d="M1800.52,1351.12c-5.3,0-9.41-1.83-12.33-5.5-2.92-3.67-4.38-8.85-4.38-15.56s1.47-11.86,4.4-15.6c2.93-3.74,7.06-5.61,12.39-5.61s9.68,2.01,12.63,6.02h.48c-.07-.5-.17-1.49-.3-2.99-.12-1.5-.19-2.51-.19-3.03v-16.27h6.69v57.79h-5.39l-1-5.46h-.3c-2.85,4.14-7.08,6.2-12.7,6.2ZM1801.6,1345.59c4.06,0,7.02-1.11,8.89-3.32,1.87-2.22,2.8-5.85,2.8-10.9v-1.23c0-5.67-.95-9.71-2.84-12.13-1.9-2.41-4.87-3.62-8.93-3.62-3.44,0-6.1,1.37-7.98,4.1-1.88,2.74-2.82,6.64-2.82,11.72s.94,8.88,2.8,11.47c1.87,2.6,4.56,3.9,8.08,3.9Z"/>
            <path d="M1839.18,1309.6v26.26c0,3.29.74,5.74,2.21,7.34,1.47,1.6,3.76,2.4,6.85,2.4,4.18,0,7.23-1.16,9.14-3.49,1.91-2.33,2.86-6.08,2.86-11.25v-21.24h6.72v40.78h-5.5l-.96-5.39h-.33c-1.21,1.96-2.93,3.47-5.16,4.53-2.23,1.06-4.82,1.6-7.76,1.6-4.9,0-8.6-1.18-11.09-3.53-2.49-2.35-3.73-6.11-3.73-11.29v-26.7h6.76Z"/>
            <path d="M1896.23,1351.12c-5.87,0-10.44-1.8-13.7-5.4-3.27-3.6-4.9-8.77-4.9-15.5s1.65-12.1,4.96-15.8c3.31-3.7,8.02-5.55,14.13-5.55,1.98,0,3.94.2,5.88.61,1.94.41,3.55.94,4.81,1.58l-2.04,5.57c-3.44-1.29-6.37-1.93-8.8-1.93-4.11,0-7.14,1.29-9.1,3.88-1.96,2.59-2.94,6.44-2.94,11.57s.98,8.7,2.94,11.31c1.95,2.61,4.85,3.92,8.69,3.92,3.59,0,7.12-.79,10.59-2.38v5.94c-2.82,1.46-6.33,2.19-10.51,2.19Z"/>
            <path d="M1930.02,1345.66c.87,0,1.88-.09,3.05-.26,1.16-.17,2.04-.37,2.64-.59v5.12c-.62.27-1.58.54-2.88.8-1.3.26-2.62.39-3.95.39-7.97,0-11.96-4.2-11.96-12.59v-23.73h-5.76v-3.19l5.83-2.67,2.67-8.69h3.97v9.36h11.77v5.2h-11.77v23.55c0,2.35.56,4.16,1.69,5.42,1.13,1.26,2.69,1.9,4.7,1.9Z"/>
            <path d="M1607.98,1413.98c0,8.96-2.45,15.82-7.33,20.56-4.89,4.74-11.9,7.11-21.04,7.11h-15.11v-54.3h16.71c8.44,0,15.02,2.32,19.72,6.96,4.7,4.64,7.06,11.2,7.06,19.67ZM1600.77,1414.21c0-6.91-1.7-12.14-5.11-15.69-3.41-3.55-8.55-5.33-15.43-5.33h-8.91v42.6h7.39c14.71,0,22.06-7.19,22.06-21.58Z"/>
            <path d="M1636.42,1442.39c-6.11,0-10.91-1.85-14.39-5.55-3.48-3.7-5.22-8.8-5.22-15.28s1.62-11.74,4.87-15.62,7.63-5.81,13.15-5.81c5.12,0,9.21,1.65,12.26,4.96,3.05,3.31,4.57,7.78,4.57,13.43v4.05h-27.93c.12,4.63,1.3,8.15,3.53,10.55,2.23,2.4,5.39,3.6,9.47,3.6,2.18,0,4.25-.19,6.2-.58,1.96-.38,4.25-1.13,6.87-2.25v5.87c-2.25.97-4.37,1.65-6.35,2.04-1.98.4-4.32.6-7.02.6ZM1634.75,1405.59c-3.19,0-5.72,1.03-7.58,3.08-1.86,2.06-2.96,4.92-3.3,8.58h20.76c-.05-3.81-.93-6.71-2.64-8.69-1.71-1.98-4.12-2.97-7.24-2.97Z"/>
            <path d="M1670.22,1441.65l-15.45-40.78h7.17l8.65,24.03c1.71,4.83,2.8,8.43,3.27,10.81h.3c.07-.32.17-.69.28-1.1.11-.41.24-.85.39-1.34.15-.48,1.06-3.27,2.75-8.37l8.69-24.03h7.13l-15.49,40.78h-7.69Z"/>
            <path d="M1717.2,1442.39c-6.11,0-10.91-1.85-14.39-5.55-3.48-3.7-5.22-8.8-5.22-15.28s1.62-11.74,4.87-15.62,7.63-5.81,13.15-5.81c5.12,0,9.21,1.65,12.26,4.96,3.05,3.31,4.57,7.78,4.57,13.43v4.05h-27.93c.12,4.63,1.3,8.15,3.53,10.55,2.23,2.4,5.39,3.6,9.47,3.6,2.18,0,4.25-.19,6.2-.58,1.96-.38,4.25-1.13,6.87-2.25v5.87c-2.25.97-4.37,1.65-6.35,2.04-1.98.4-4.32.6-7.02.6ZM1715.53,1405.59c-3.19,0-5.72,1.03-7.58,3.08-1.86,2.06-2.96,4.92-3.3,8.58h20.76c-.05-3.81-.93-6.71-2.64-8.69-1.71-1.98-4.12-2.97-7.24-2.97Z"/>
            <path d="M1749.44,1441.65h-6.68v-57.79h6.68v57.79Z"/>
            <path d="M1797.79,1421.19c0,6.66-1.68,11.86-5.05,15.6-3.37,3.74-8.02,5.61-13.96,5.61-3.69,0-6.96-.86-9.81-2.58-2.85-1.72-5.04-4.19-6.57-7.41-1.54-3.22-2.3-6.96-2.3-11.22,0-6.63,1.66-11.8,4.98-15.5,3.32-3.7,7.97-5.55,13.96-5.55s10.31,1.89,13.69,5.67c3.38,3.78,5.07,8.91,5.07,15.39ZM1767,1421.19c0,5.12,1.01,9.02,3.03,11.68,2.02,2.66,5,3.99,8.93,3.99s6.85-1.33,8.88-3.99c2.03-2.66,3.04-6.56,3.04-11.68s-1.02-8.98-3.06-11.57c-2.04-2.59-5.03-3.88-8.97-3.88-7.9,0-11.85,5.15-11.85,15.45Z"/>
            <path d="M1827.69,1442.39c-5.47,0-9.68-1.97-12.63-5.9h-.45l.15,1.52c.2,1.93.3,3.65.3,5.16v16.75h-6.68v-59.05h5.5l.89,5.57h.3c1.58-2.23,3.42-3.84,5.5-4.83,2.08-.99,4.48-1.49,7.21-1.49,5.3,0,9.41,1.84,12.35,5.52,2.93,3.68,4.4,8.86,4.4,15.54s-1.47,11.86-4.42,15.6c-2.95,3.74-7.08,5.61-12.41,5.61ZM1826.57,1405.74c-4.04,0-6.95,1.14-8.75,3.42-1.8,2.28-2.72,5.86-2.77,10.73v1.3c0,5.52.92,9.52,2.75,11.98,1.83,2.46,4.8,3.7,8.91,3.7,3.42,0,6.08-1.39,8-4.16,1.92-2.77,2.88-6.64,2.88-11.59s-.96-8.78-2.88-11.42c-1.92-2.64-4.64-3.96-8.15-3.96Z"/>
            <path d="M1907.05,1441.65v-26.26c0-6.44-2.76-9.66-8.28-9.66-3.79,0-6.57,1.1-8.35,3.31s-2.67,5.57-2.67,10.1v22.51h-6.65v-26.26c0-3.22-.68-5.63-2.02-7.24-1.35-1.61-3.46-2.42-6.33-2.42-3.76,0-6.52,1.15-8.26,3.45-1.75,2.3-2.62,6.08-2.62,11.33v21.13h-6.69v-40.78h5.39l1,5.57h.37c1.16-1.98,2.8-3.53,4.92-4.64,2.12-1.11,4.49-1.67,7.11-1.67,6.39,0,10.55,2.28,12.48,6.83h.37c1.31-2.18,3.1-3.86,5.37-5.05,2.26-1.19,4.83-1.78,7.7-1.78,4.61,0,8.05,1.19,10.34,3.57,2.29,2.38,3.43,6.18,3.43,11.4v26.56h-6.61Z"/>
            <path d="M1943.63,1442.39c-6.12,0-10.91-1.85-14.39-5.55-3.48-3.7-5.22-8.8-5.22-15.28s1.62-11.74,4.87-15.62c3.24-3.87,7.63-5.81,13.15-5.81,5.12,0,9.21,1.65,12.25,4.96,3.05,3.31,4.57,7.78,4.57,13.43v4.05h-27.93c.12,4.63,1.3,8.15,3.53,10.55,2.23,2.4,5.39,3.6,9.47,3.6,2.18,0,4.24-.19,6.2-.58s4.25-1.13,6.87-2.25v5.87c-2.25.97-4.37,1.65-6.35,2.04-1.98.4-4.32.6-7.02.6ZM1941.96,1405.59c-3.19,0-5.72,1.03-7.58,3.08-1.86,2.06-2.96,4.92-3.3,8.58h20.76c-.05-3.81-.93-6.71-2.64-8.69-1.71-1.98-4.12-2.97-7.24-2.97Z"/>
            <path d="M1996.96,1441.65v-26.07c0-3.32-.74-5.79-2.21-7.41-1.47-1.62-3.78-2.43-6.93-2.43-4.18,0-7.22,1.16-9.12,3.47-1.89,2.31-2.84,6.08-2.84,11.31v21.13h-6.69v-40.78h5.39l1,5.57h.37c1.26-2.01,3.03-3.56,5.31-4.66,2.28-1.1,4.79-1.65,7.54-1.65,5,0,8.71,1.21,11.14,3.64s3.64,6.2,3.64,11.33v26.56h-6.61Z"/>
            <path d="M2029.83,1436.94c.86,0,1.88-.09,3.05-.26,1.16-.17,2.04-.37,2.63-.59v5.12c-.62.27-1.58.54-2.88.8-1.3.26-2.62.39-3.96.39-7.97,0-11.96-4.2-11.96-12.59v-23.73h-5.76v-3.19l5.83-2.67,2.67-8.69h3.97v9.36h11.77v5.2h-11.77v23.55c0,2.35.56,4.16,1.69,5.42,1.13,1.26,2.69,1.9,4.7,1.9Z"/>
        </g>
        <g>
            <path d="M2125.77,1106.96h-19.61v-3.94l6.39-1.45v-43.45l-6.39-1.52v-3.94h19.61v3.94l-6.39,1.52v43.45l6.39,1.45v3.94Z"/>
            <path d="M2163.13,1106.96v-26.07c0-3.32-.74-5.79-2.21-7.41-1.47-1.62-3.78-2.43-6.93-2.43-4.18,0-7.22,1.16-9.12,3.47-1.89,2.31-2.84,6.08-2.84,11.31v21.13h-6.68v-40.78h5.38l1,5.57h.37c1.26-2.01,3.03-3.56,5.31-4.66,2.28-1.1,4.79-1.65,7.54-1.65,5,0,8.72,1.21,11.14,3.64,2.43,2.43,3.64,6.2,3.64,11.33v26.56h-6.61Z"/>
            <path d="M2196,1102.24c.87,0,1.88-.09,3.05-.26,1.16-.17,2.04-.37,2.64-.59v5.12c-.62.27-1.58.54-2.88.8-1.3.26-2.62.39-3.95.39-7.97,0-11.96-4.2-11.96-12.59v-23.73h-5.76v-3.19l5.83-2.67,2.67-8.69h3.97v9.36h11.77v5.2h-11.77v23.55c0,2.35.56,4.16,1.69,5.42,1.13,1.26,2.69,1.9,4.7,1.9Z"/>
            <path d="M2227.15,1107.7c-6.11,0-10.91-1.85-14.39-5.55-3.48-3.7-5.22-8.8-5.22-15.28s1.62-11.74,4.87-15.62c3.24-3.87,7.63-5.81,13.15-5.81,5.12,0,9.21,1.65,12.26,4.96,3.05,3.31,4.57,7.78,4.57,13.43v4.05h-27.93c.12,4.63,1.3,8.15,3.53,10.55,2.23,2.4,5.38,3.6,9.47,3.6,2.18,0,4.25-.19,6.2-.58,1.96-.38,4.25-1.13,6.87-2.25v5.87c-2.25.97-4.37,1.65-6.35,2.04-1.98.4-4.32.6-7.02.6ZM2225.48,1070.9c-3.19,0-5.72,1.03-7.58,3.08-1.86,2.06-2.96,4.92-3.3,8.58h20.76c-.05-3.81-.93-6.71-2.64-8.69-1.71-1.98-4.12-2.97-7.24-2.97Z"/>
            <path d="M2279.93,1106.59l.22-5.02h-.3c-2.75,4.09-6.96,6.13-12.63,6.13-5.27,0-9.39-1.84-12.35-5.52-2.96-3.68-4.44-8.86-4.44-15.54s1.49-11.74,4.48-15.52c2.98-3.79,7.06-5.68,12.24-5.68,5.52,0,9.78,2.06,12.77,6.17h.41l.89-5.42h5.31v41.45c0,5.84-1.48,10.24-4.44,13.19-2.96,2.95-7.56,4.42-13.8,4.42s-10.83-.87-14.67-2.6v-6.16c3.96,2.13,8.97,3.19,15.04,3.19,3.47,0,6.21-1.02,8.23-3.05,2.02-2.03,3.03-4.84,3.03-8.43v-1.6ZM2268.23,1102.24c4.11,0,7.1-1.11,8.97-3.32,1.87-2.22,2.8-5.77,2.8-10.68v-1.6c0-5.45-.94-9.41-2.82-11.88-1.88-2.48-4.91-3.72-9.1-3.72-3.42,0-6.06,1.36-7.93,4.07-1.87,2.71-2.8,6.58-2.8,11.61s.91,8.9,2.73,11.55c1.82,2.65,4.53,3.97,8.15,3.97Z"/>
            <path d="M2318.52,1065.44c1.81,0,3.4.15,4.79.45l-.82,6.17c-1.51-.35-2.98-.52-4.42-.52-2.15,0-4.15.6-6,1.78-1.85,1.19-3.29,2.83-4.33,4.92-1.04,2.09-1.56,4.41-1.56,6.96v21.76h-6.69v-40.78h5.5l.74,7.47h.3c1.56-2.7,3.4-4.74,5.53-6.13,2.13-1.38,4.45-2.08,6.95-2.08Z"/>
            <path d="M2355.36,1106.96l-1.3-5.79h-.3c-2.03,2.55-4.05,4.28-6.07,5.18-2.02.9-4.56,1.35-7.63,1.35-4.01,0-7.15-1.05-9.43-3.16-2.28-2.1-3.42-5.08-3.42-8.91,0-8.27,6.52-12.6,19.57-13l6.91-.26v-2.42c0-3.09-.67-5.38-2.01-6.85-1.34-1.47-3.48-2.21-6.42-2.21-2.15,0-4.19.32-6.11.96-1.92.64-3.72,1.36-5.4,2.15l-2.04-5.01c2.05-1.09,4.3-1.94,6.72-2.56,2.43-.62,4.83-.93,7.2-.93,4.93,0,8.59,1.09,10.99,3.27,2.4,2.18,3.6,5.65,3.6,10.4v27.78h-4.86ZM2341.58,1102.32c3.74,0,6.68-1.01,8.82-3.03,2.14-2.02,3.21-4.88,3.21-8.6v-3.68l-6.02.26c-4.68.17-8.09.92-10.23,2.23-2.14,1.31-3.21,3.38-3.21,6.2,0,2.13.65,3.76,1.95,4.9,1.3,1.14,3.13,1.71,5.48,1.71Z"/>
            <path d="M2386.48,1102.24c.87,0,1.88-.09,3.05-.26,1.16-.17,2.04-.37,2.64-.59v5.12c-.62.27-1.58.54-2.88.8-1.3.26-2.62.39-3.95.39-7.97,0-11.96-4.2-11.96-12.59v-23.73h-5.76v-3.19l5.83-2.67,2.67-8.69h3.97v9.36h11.77v5.2h-11.77v23.55c0,2.35.56,4.16,1.69,5.42,1.13,1.26,2.69,1.9,4.7,1.9Z"/>
            <path d="M2399.77,1055.15c0-1.48.38-2.56,1.13-3.23.75-.67,1.69-1,2.8-1,1.04,0,1.95.33,2.73,1,.78.67,1.17,1.75,1.17,3.23s-.39,2.54-1.17,3.23c-.78.69-1.69,1.04-2.73,1.04-1.11,0-2.05-.35-2.8-1.04-.75-.69-1.13-1.77-1.13-3.23ZM2406.98,1106.96h-6.69v-40.78h6.69v40.78Z"/>
            <path d="M2455.33,1086.5c0,6.66-1.68,11.86-5.05,15.6-3.37,3.74-8.02,5.61-13.96,5.61-3.69,0-6.96-.86-9.81-2.58-2.85-1.72-5.04-4.19-6.57-7.41-1.54-3.22-2.3-6.96-2.3-11.22,0-6.63,1.66-11.8,4.98-15.5,3.32-3.7,7.97-5.55,13.97-5.55s10.31,1.89,13.69,5.67c3.38,3.78,5.07,8.91,5.07,15.39ZM2424.55,1086.5c0,5.12,1.01,9.02,3.03,11.68,2.02,2.66,5,3.99,8.93,3.99s6.85-1.33,8.88-3.99c2.03-2.66,3.04-6.56,3.04-11.68s-1.02-8.98-3.06-11.57c-2.04-2.59-5.03-3.88-8.97-3.88-7.9,0-11.85,5.15-11.85,15.45Z"/>
            <path d="M2493.7,1106.96v-26.07c0-3.32-.74-5.79-2.21-7.41-1.47-1.62-3.78-2.43-6.93-2.43-4.18,0-7.22,1.16-9.12,3.47-1.89,2.31-2.84,6.08-2.84,11.31v21.13h-6.68v-40.78h5.38l1,5.57h.37c1.26-2.01,3.03-3.56,5.31-4.66,2.28-1.1,4.79-1.65,7.54-1.65,5,0,8.72,1.21,11.14,3.64,2.43,2.43,3.64,6.2,3.64,11.33v26.56h-6.61Z"/>
            <path d="M2141.18,1184.08c0-3.22.83-6.04,2.49-8.47,1.66-2.43,4.73-4.93,9.21-7.5-1.91-2.15-3.26-3.86-4.07-5.11-.8-1.25-1.43-2.54-1.88-3.86-.45-1.32-.67-2.72-.67-4.18,0-3.66,1.23-6.56,3.68-8.69,2.45-2.13,5.89-3.19,10.32-3.19,4.08,0,7.3,1.04,9.64,3.12,2.34,2.08,3.51,4.95,3.51,8.62,0,2.7-.85,5.17-2.54,7.43-1.7,2.25-4.47,4.52-8.34,6.8l14.67,14.11c2.3-2.67,4.08-6.7,5.35-12.07h6.76c-1.71,7.05-4.3,12.5-7.76,16.34l11.1,10.81h-9.06l-6.61-6.39c-2.82,2.53-5.74,4.34-8.75,5.46-3.01,1.11-6.33,1.67-9.97,1.67-5.32,0-9.5-1.3-12.54-3.9-3.03-2.6-4.55-6.26-4.55-10.99ZM2158.49,1193.07c5.62,0,10.36-1.81,14.22-5.42l-15.82-15.34c-3.42,2.05-5.73,3.92-6.93,5.61-1.2,1.68-1.8,3.67-1.8,5.94,0,2.8.95,5.03,2.86,6.7,1.91,1.67,4.4,2.51,7.47,2.51ZM2152.8,1154.89c0,1.61.44,3.22,1.32,4.83.88,1.61,2.31,3.39,4.29,5.35,3.07-1.71,5.24-3.34,6.5-4.9,1.26-1.56,1.9-3.34,1.9-5.35,0-1.88-.63-3.39-1.9-4.53-1.26-1.14-2.9-1.71-4.9-1.71-2.2,0-3.96.58-5.26,1.75-1.3,1.17-1.95,2.69-1.95,4.57Z"/>
            <path d="M2237.14,1198.23h-6.87v-48.28h-16.97v-6.02h40.7v6.02h-16.86v48.28Z"/>
            <path d="M2276.07,1198.97c-6.12,0-10.91-1.85-14.39-5.55-3.48-3.7-5.22-8.8-5.22-15.28s1.62-11.74,4.87-15.62c3.24-3.87,7.63-5.81,13.15-5.81,5.12,0,9.21,1.65,12.25,4.96,3.05,3.31,4.57,7.78,4.57,13.43v4.05h-27.93c.12,4.63,1.3,8.15,3.53,10.55,2.23,2.4,5.39,3.6,9.47,3.6,2.18,0,4.25-.19,6.2-.58,1.95-.38,4.25-1.13,6.87-2.25v5.87c-2.25.97-4.37,1.65-6.35,2.04-1.98.4-4.32.6-7.02.6ZM2274.4,1162.17c-3.19,0-5.72,1.03-7.58,3.08-1.86,2.06-2.96,4.92-3.3,8.58h20.76c-.05-3.81-.93-6.71-2.64-8.69-1.71-1.98-4.12-2.97-7.24-2.97Z"/>
            <path d="M2328.17,1186.98c0,3.81-1.42,6.77-4.27,8.86-2.85,2.09-6.85,3.14-12,3.14s-9.64-.85-12.81-2.56v-6.09c4.48,2.18,8.8,3.27,12.96,3.27,3.37,0,5.82-.55,7.35-1.64,1.54-1.09,2.3-2.55,2.3-4.38,0-1.61-.74-2.97-2.21-4.09-1.47-1.11-4.09-2.39-7.86-3.83-3.84-1.49-6.53-2.75-8.1-3.81-1.56-1.05-2.7-2.23-3.43-3.55-.73-1.31-1.1-2.91-1.1-4.79,0-3.34,1.36-5.98,4.08-7.91,2.72-1.93,6.46-2.9,11.22-2.9s8.96.92,13,2.75l-2.27,5.31c-4.13-1.73-7.86-2.6-11.18-2.6-2.77,0-4.88.44-6.31,1.32-1.44.88-2.15,2.09-2.15,3.62s.62,2.72,1.86,3.7c1.24.98,4.12,2.33,8.65,4.07,3.39,1.26,5.9,2.44,7.52,3.53,1.62,1.09,2.81,2.32,3.58,3.68.77,1.36,1.15,3,1.15,4.9Z"/>
            <path d="M2351.68,1193.52c.87,0,1.88-.09,3.05-.26,1.16-.17,2.04-.37,2.64-.59v5.12c-.62.27-1.58.54-2.88.8-1.3.26-2.62.39-3.95.39-7.97,0-11.96-4.2-11.96-12.59v-23.73h-5.76v-3.19l5.83-2.67,2.67-8.69h3.97v9.36h11.77v5.2h-11.77v23.55c0,2.35.56,4.16,1.69,5.42,1.13,1.26,2.69,1.9,4.7,1.9Z"/>
            <path d="M2364.98,1146.42c0-1.48.38-2.56,1.13-3.23.75-.67,1.69-1,2.8-1,1.04,0,1.95.33,2.73,1,.78.67,1.17,1.75,1.17,3.23s-.39,2.54-1.17,3.23c-.78.69-1.69,1.04-2.73,1.04-1.11,0-2.05-.35-2.8-1.04-.75-.69-1.13-1.77-1.13-3.23ZM2372.18,1198.23h-6.69v-40.78h6.69v40.78Z"/>
            <path d="M2412.89,1198.23v-26.07c0-3.32-.74-5.79-2.21-7.41-1.47-1.62-3.78-2.43-6.93-2.43-4.18,0-7.22,1.16-9.12,3.47-1.89,2.31-2.84,6.08-2.84,11.31v21.13h-6.68v-40.78h5.38l1,5.57h.37c1.26-2.01,3.03-3.56,5.31-4.66,2.28-1.1,4.79-1.65,7.54-1.65,5,0,8.72,1.21,11.14,3.64,2.43,2.43,3.64,6.2,3.64,11.33v26.56h-6.61Z"/>
            <path d="M2459.35,1197.86l.22-5.02h-.3c-2.75,4.09-6.96,6.13-12.63,6.13-5.27,0-9.39-1.84-12.35-5.52-2.96-3.68-4.44-8.86-4.44-15.54s1.49-11.74,4.48-15.52c2.98-3.79,7.06-5.68,12.24-5.68,5.52,0,9.78,2.06,12.77,6.17h.41l.89-5.42h5.31v41.45c0,5.84-1.48,10.24-4.44,13.19-2.96,2.95-7.56,4.42-13.8,4.42s-10.83-.87-14.67-2.6v-6.16c3.96,2.13,8.97,3.19,15.04,3.19,3.47,0,6.21-1.02,8.23-3.05,2.02-2.03,3.03-4.84,3.03-8.43v-1.6ZM2447.65,1193.52c4.11,0,7.1-1.11,8.97-3.32,1.87-2.22,2.8-5.77,2.8-10.68v-1.6c0-5.45-.94-9.41-2.82-11.88-1.88-2.48-4.91-3.72-9.1-3.72-3.42,0-6.06,1.36-7.93,4.07-1.87,2.71-2.8,6.58-2.8,11.61s.91,8.9,2.73,11.55c1.82,2.65,4.53,3.97,8.15,3.97Z"/>
        </g>
        <g>
            <path d="M2635.82,1314.66c0,8.96-2.45,15.82-7.33,20.56-4.89,4.74-11.9,7.11-21.04,7.11h-15.12v-54.3h16.71c8.44,0,15.02,2.32,19.72,6.96,4.7,4.64,7.06,11.2,7.06,19.67ZM2628.61,1314.88c0-6.91-1.7-12.14-5.11-15.69-3.4-3.55-8.55-5.33-15.43-5.33h-8.91v42.6h7.39c14.71,0,22.06-7.19,22.06-21.58Z"/>
            <path d="M2664.26,1343.07c-6.12,0-10.91-1.85-14.39-5.55-3.48-3.7-5.22-8.8-5.22-15.28s1.62-11.74,4.87-15.62c3.24-3.87,7.63-5.81,13.15-5.81,5.12,0,9.21,1.65,12.25,4.96,3.05,3.31,4.57,7.78,4.57,13.43v4.05h-27.93c.12,4.63,1.3,8.15,3.53,10.55,2.23,2.4,5.39,3.6,9.47,3.6,2.18,0,4.25-.19,6.2-.58,1.95-.38,4.25-1.13,6.87-2.25v5.87c-2.25.97-4.37,1.65-6.35,2.04-1.98.4-4.32.6-7.02.6ZM2662.59,1306.27c-3.19,0-5.72,1.03-7.58,3.08-1.86,2.06-2.96,4.92-3.3,8.58h20.76c-.05-3.81-.93-6.71-2.64-8.69-1.71-1.98-4.12-2.97-7.24-2.97Z"/>
            <path d="M2709.13,1343.07c-5.47,0-9.68-1.97-12.63-5.9h-.45l.15,1.52c.2,1.93.3,3.65.3,5.16v16.75h-6.68v-59.05h5.5l.89,5.57h.3c1.58-2.23,3.42-3.84,5.5-4.83,2.08-.99,4.48-1.49,7.21-1.49,5.3,0,9.41,1.84,12.35,5.52,2.94,3.68,4.4,8.86,4.4,15.54s-1.47,11.86-4.42,15.6c-2.95,3.74-7.08,5.61-12.4,5.61ZM2708.01,1306.41c-4.03,0-6.95,1.14-8.75,3.42-1.8,2.28-2.72,5.86-2.77,10.73v1.3c0,5.52.92,9.52,2.75,11.98,1.83,2.46,4.8,3.7,8.91,3.7,3.42,0,6.08-1.39,8-4.16,1.92-2.77,2.88-6.64,2.88-11.59s-.96-8.78-2.88-11.42c-1.92-2.64-4.64-3.96-8.15-3.96Z"/>
            <path d="M2743.29,1342.33h-6.68v-57.79h6.68v57.79Z"/>
            <path d="M2791.65,1321.86c0,6.66-1.68,11.86-5.05,15.6-3.37,3.74-8.02,5.61-13.97,5.61-3.69,0-6.96-.86-9.8-2.58-2.85-1.72-5.04-4.19-6.57-7.41-1.53-3.22-2.3-6.96-2.3-11.22,0-6.63,1.66-11.8,4.98-15.5,3.32-3.7,7.97-5.55,13.96-5.55s10.31,1.89,13.69,5.67c3.38,3.78,5.07,8.91,5.07,15.39ZM2760.86,1321.86c0,5.12,1.01,9.02,3.03,11.68,2.02,2.66,5,3.99,8.93,3.99s6.85-1.33,8.88-3.99c2.03-2.66,3.05-6.56,3.05-11.68s-1.02-8.98-3.06-11.57c-2.04-2.59-5.03-3.88-8.97-3.88-7.9,0-11.85,5.15-11.85,15.45Z"/>
            <path d="M2795.1,1301.55h7.17l8.8,23.21c1.86,5.05,3,8.75,3.42,11.1h.3c.22-.92.73-2.63,1.52-5.14.79-2.51,1.46-4.52,2-6.03l8.28-23.14h7.2l-17.57,46.43c-1.71,4.5-3.74,7.74-6.09,9.69s-5.26,2.93-8.73,2.93c-1.86,0-3.7-.21-5.53-.63v-5.31c1.24.3,2.72.45,4.46.45,2.13,0,3.94-.59,5.42-1.76,1.49-1.18,2.7-2.99,3.64-5.44l2.12-5.42-16.42-40.93Z"/>
            <path d="M2892.15,1342.33v-26.26c0-6.44-2.76-9.66-8.28-9.66-3.79,0-6.57,1.1-8.35,3.31-1.78,2.2-2.67,5.57-2.67,10.1v22.51h-6.65v-26.26c0-3.22-.68-5.63-2.02-7.24-1.35-1.61-3.46-2.42-6.33-2.42-3.76,0-6.52,1.15-8.26,3.45-1.75,2.3-2.62,6.08-2.62,11.33v21.13h-6.68v-40.78h5.38l1,5.57h.37c1.16-1.98,2.8-3.53,4.92-4.64,2.12-1.11,4.49-1.67,7.11-1.67,6.39,0,10.55,2.28,12.48,6.83h.37c1.31-2.18,3.1-3.86,5.37-5.05,2.27-1.19,4.83-1.78,7.71-1.78,4.6,0,8.05,1.19,10.34,3.57,2.29,2.38,3.44,6.18,3.44,11.4v26.56h-6.61Z"/>
            <path d="M2928.73,1343.07c-6.11,0-10.91-1.85-14.39-5.55-3.48-3.7-5.22-8.8-5.22-15.28s1.62-11.74,4.87-15.62c3.24-3.87,7.63-5.81,13.15-5.81,5.12,0,9.21,1.65,12.26,4.96,3.05,3.31,4.57,7.78,4.57,13.43v4.05h-27.93c.12,4.63,1.3,8.15,3.53,10.55,2.23,2.4,5.38,3.6,9.47,3.6,2.18,0,4.25-.19,6.2-.58,1.96-.38,4.25-1.13,6.87-2.25v5.87c-2.25.97-4.37,1.65-6.35,2.04-1.98.4-4.32.6-7.02.6ZM2927.06,1306.27c-3.19,0-5.72,1.03-7.58,3.08-1.86,2.06-2.96,4.92-3.3,8.58h20.76c-.05-3.81-.93-6.71-2.64-8.69-1.71-1.98-4.12-2.97-7.24-2.97Z"/>
            <path d="M2982.06,1342.33v-26.07c0-3.32-.74-5.79-2.21-7.41-1.47-1.62-3.78-2.43-6.93-2.43-4.18,0-7.22,1.16-9.12,3.47-1.9,2.31-2.84,6.08-2.84,11.31v21.13h-6.69v-40.78h5.39l1,5.57h.37c1.26-2.01,3.03-3.56,5.31-4.66,2.28-1.1,4.79-1.65,7.54-1.65,5,0,8.71,1.21,11.14,3.64s3.64,6.2,3.64,11.33v26.56h-6.61Z"/>
            <path d="M3014.93,1337.61c.87,0,1.88-.09,3.05-.26,1.16-.17,2.04-.37,2.64-.59v5.12c-.62.27-1.58.54-2.88.8-1.3.26-2.62.39-3.95.39-7.97,0-11.96-4.2-11.96-12.59v-23.73h-5.76v-3.19l5.83-2.67,2.67-8.69h3.97v9.36h11.77v5.2h-11.77v23.55c0,2.35.56,4.16,1.69,5.42,1.13,1.26,2.69,1.9,4.7,1.9Z"/>
        </g>
        <g>
            <path d="M3106.91,1097.36l-17.9-47.61h-.3c.37,3.96.56,8.85.56,14.67v32.94h-6.31v-54.3h10.1l16.75,44.49h.3l17.05-44.49h10.03v54.3h-6.76v-33.39c0-3.71.17-8.43.52-14.15h-.3l-18.12,47.54h-5.61Z"/>
            <path d="M3176.21,1097.36l-1.3-5.79h-.3c-2.03,2.55-4.05,4.28-6.07,5.18-2.02.9-4.56,1.35-7.63,1.35-4.01,0-7.15-1.05-9.43-3.16-2.28-2.1-3.42-5.08-3.42-8.91,0-8.27,6.52-12.6,19.57-13l6.91-.26v-2.42c0-3.09-.67-5.38-2.01-6.85-1.34-1.47-3.48-2.21-6.42-2.21-2.15,0-4.19.32-6.11.96-1.92.64-3.72,1.36-5.4,2.15l-2.04-5.01c2.05-1.09,4.3-1.94,6.72-2.56s4.83-.93,7.2-.93c4.93,0,8.59,1.09,10.99,3.27,2.4,2.18,3.6,5.65,3.6,10.4v27.78h-4.86ZM3162.43,1092.72c3.74,0,6.68-1.01,8.82-3.03,2.14-2.02,3.21-4.88,3.21-8.6v-3.68l-6.02.26c-4.68.17-8.09.92-10.23,2.23-2.14,1.31-3.21,3.38-3.21,6.2,0,2.13.65,3.76,1.95,4.9,1.3,1.14,3.13,1.71,5.48,1.71Z"/>
            <path d="M3193.18,1045.55c0-1.48.38-2.56,1.13-3.23.75-.67,1.69-1,2.8-1,1.04,0,1.95.33,2.73,1,.78.67,1.17,1.75,1.17,3.23s-.39,2.54-1.17,3.23c-.78.69-1.69,1.04-2.73,1.04-1.11,0-2.05-.35-2.8-1.04-.75-.69-1.13-1.77-1.13-3.23ZM3200.38,1097.36h-6.69v-40.78h6.69v40.78Z"/>
            <path d="M3241.09,1097.36v-26.07c0-3.32-.74-5.79-2.21-7.41-1.47-1.62-3.78-2.43-6.93-2.43-4.18,0-7.22,1.16-9.12,3.47-1.89,2.31-2.84,6.08-2.84,11.31v21.13h-6.68v-40.78h5.38l1,5.57h.37c1.26-2.01,3.03-3.56,5.31-4.66,2.28-1.1,4.79-1.65,7.54-1.65,5,0,8.72,1.21,11.14,3.64,2.43,2.43,3.64,6.2,3.64,11.33v26.56h-6.61Z"/>
            <path d="M3273.96,1092.64c.86,0,1.88-.09,3.04-.26,1.17-.17,2.04-.37,2.64-.59v5.12c-.62.27-1.58.54-2.88.8-1.3.26-2.62.39-3.96.39-7.97,0-11.96-4.2-11.96-12.59v-23.73h-5.76v-3.19l5.83-2.67,2.67-8.69h3.97v9.36h11.77v5.2h-11.77v23.55c0,2.35.56,4.16,1.69,5.42,1.13,1.26,2.69,1.9,4.7,1.9Z"/>
            <path d="M3305.11,1098.1c-6.11,0-10.91-1.85-14.39-5.55-3.48-3.7-5.22-8.8-5.22-15.28s1.62-11.74,4.87-15.62c3.24-3.87,7.63-5.81,13.15-5.81,5.12,0,9.21,1.65,12.26,4.96,3.05,3.31,4.57,7.78,4.57,13.43v4.05h-27.93c.12,4.63,1.3,8.15,3.53,10.55,2.23,2.4,5.38,3.6,9.47,3.6,2.18,0,4.25-.19,6.2-.58,1.96-.38,4.25-1.13,6.87-2.25v5.87c-2.25.97-4.37,1.65-6.35,2.04-1.98.4-4.32.6-7.02.6ZM3303.44,1061.3c-3.19,0-5.72,1.03-7.58,3.08-1.86,2.06-2.96,4.92-3.3,8.58h20.76c-.05-3.81-.93-6.71-2.64-8.69-1.71-1.98-4.12-2.97-7.24-2.97Z"/>
            <path d="M3358.44,1097.36v-26.07c0-3.32-.74-5.79-2.21-7.41-1.47-1.62-3.78-2.43-6.93-2.43-4.18,0-7.22,1.16-9.12,3.47-1.89,2.31-2.84,6.08-2.84,11.31v21.13h-6.68v-40.78h5.38l1,5.57h.37c1.26-2.01,3.03-3.56,5.31-4.66,2.28-1.1,4.79-1.65,7.54-1.65,5,0,8.72,1.21,11.14,3.64,2.43,2.43,3.64,6.2,3.64,11.33v26.56h-6.61Z"/>
            <path d="M3402.86,1097.36l-1.3-5.79h-.3c-2.03,2.55-4.05,4.28-6.07,5.18-2.02.9-4.56,1.35-7.63,1.35-4.01,0-7.16-1.05-9.43-3.16-2.28-2.1-3.42-5.08-3.42-8.91,0-8.27,6.52-12.6,19.57-13l6.91-.26v-2.42c0-3.09-.67-5.38-2-6.85-1.34-1.47-3.48-2.21-6.42-2.21-2.15,0-4.19.32-6.11.96-1.92.64-3.72,1.36-5.4,2.15l-2.04-5.01c2.05-1.09,4.3-1.94,6.72-2.56,2.43-.62,4.83-.93,7.2-.93,4.93,0,8.59,1.09,10.99,3.27,2.4,2.18,3.6,5.65,3.6,10.4v27.78h-4.87ZM3389.08,1092.72c3.74,0,6.68-1.01,8.82-3.03,2.14-2.02,3.21-4.88,3.21-8.6v-3.68l-6.02.26c-4.68.17-8.09.92-10.23,2.23-2.14,1.31-3.21,3.38-3.21,6.2,0,2.13.65,3.76,1.95,4.9,1.3,1.14,3.13,1.71,5.48,1.71Z"/>
            <path d="M3448.14,1097.36v-26.07c0-3.32-.74-5.79-2.21-7.41-1.47-1.62-3.78-2.43-6.93-2.43-4.18,0-7.22,1.16-9.12,3.47-1.89,2.31-2.84,6.08-2.84,11.31v21.13h-6.68v-40.78h5.38l1,5.57h.37c1.26-2.01,3.03-3.56,5.31-4.66,2.28-1.1,4.79-1.65,7.54-1.65,5,0,8.72,1.21,11.14,3.64,2.43,2.43,3.64,6.2,3.64,11.33v26.56h-6.61Z"/>
            <path d="M3483.71,1098.1c-5.87,0-10.43-1.8-13.7-5.4-3.27-3.6-4.9-8.77-4.9-15.5s1.65-12.1,4.96-15.8c3.31-3.7,8.02-5.55,14.13-5.55,1.98,0,3.94.2,5.89.61,1.94.41,3.55.94,4.81,1.58l-2.04,5.57c-3.44-1.29-6.38-1.93-8.8-1.93-4.11,0-7.14,1.29-9.1,3.88-1.96,2.59-2.94,6.44-2.94,11.57s.98,8.7,2.94,11.31c1.95,2.61,4.85,3.92,8.69,3.92,3.59,0,7.12-.79,10.59-2.38v5.94c-2.82,1.46-6.33,2.19-10.51,2.19Z"/>
            <path d="M3521.22,1098.1c-6.11,0-10.91-1.85-14.39-5.55-3.48-3.7-5.22-8.8-5.22-15.28s1.62-11.74,4.87-15.62c3.24-3.87,7.63-5.81,13.15-5.81,5.12,0,9.21,1.65,12.26,4.96,3.05,3.31,4.57,7.78,4.57,13.43v4.05h-27.93c.12,4.63,1.3,8.15,3.53,10.55,2.23,2.4,5.38,3.6,9.47,3.6,2.18,0,4.25-.19,6.2-.58,1.96-.38,4.25-1.13,6.87-2.25v5.87c-2.25.97-4.37,1.65-6.35,2.04-1.98.4-4.32.6-7.02.6ZM3519.55,1061.3c-3.19,0-5.72,1.03-7.58,3.08-1.86,2.06-2.96,4.92-3.3,8.58h20.76c-.05-3.81-.93-6.71-2.64-8.69-1.71-1.98-4.12-2.97-7.24-2.97Z"/>
        </g>
    </g>
    <g>
        <path class="cls-3" d="M280.3,823.22h19.99c11.03,0,19.99,8.96,19.99,19.99v19.99h-59.96v-19.99c0-11.03,8.96-19.99,19.99-19.99Z"/>
        <g>
            <circle class="cls-3" cx="290.3" cy="773.25" r="69.95" transform="translate(-515.79 953.28) rotate(-82.01)"/>
            <g>
                <path class="cls-3" d="M290.3,693.31c-5.52,0-9.99-4.47-9.99-9.99v-19.99c0-5.52,4.47-9.99,9.99-9.99s9.99,4.47,9.99,9.99v19.99c0,5.52-4.47,9.99-9.99,9.99Z"/>
                <path class="cls-3" d="M355.25,710.36c-2.56,0-5.12-.98-7.07-2.93-3.9-3.9-3.9-10.23,0-14.13l14.13-14.13c3.9-3.9,10.23-3.9,14.13,0,3.9,3.9,3.9,10.23,0,14.13l-14.13,14.13c-1.95,1.95-4.51,2.93-7.06,2.93Z"/>
                <path class="cls-3" d="M229.48,710.36c-2.56,0-5.11-.98-7.06-2.93l-14.13-14.13c-3.9-3.9-3.9-10.23,0-14.13,3.9-3.9,10.23-3.9,14.13,0l14.13,14.13c3.9,3.9,3.9,10.23,0,14.13-1.95,1.95-4.51,2.93-7.07,2.93Z"/>
                <path class="cls-4" d="M290.3,773.25c-5.52,0-9.99,4.47-9.99,9.99v69.95c0,5.52,4.47,9.99,9.99,9.99s9.99-4.47,9.99-9.99v-69.95c0-5.52-4.47-9.99-9.99-9.99Z"/>
                <path class="cls-3" d="M400.23,763.26h-19.99c-5.52,0-9.99-4.47-9.99-9.99s4.47-9.99,9.99-9.99h19.99c5.52,0,9.99,4.47,9.99,9.99s-4.47,9.99-9.99,9.99Z"/>
                <path class="cls-3" d="M200.36,763.26h-19.99c-5.52,0-9.99-4.47-9.99-9.99s4.47-9.99,9.99-9.99h19.99c5.52,0,9.99,4.47,9.99,9.99s-4.47,9.99-9.99,9.99Z"/>
                <g>
                    <path class="cls-4" d="M280.3,880.54c-9.57,0-17.35-7.78-17.35-17.35v-17.35h54.69v17.35c0,9.57-7.79,17.35-17.35,17.35h-19.99Z"/>
                    <path class="cls-3" d="M260.32,843.21v19.99c0,11.04,8.95,19.99,19.99,19.99h19.99c11.04,0,19.99-8.95,19.99-19.99v-19.99h-59.96ZM315.01,863.19c0,8.11-6.6,14.72-14.72,14.72h-19.99c-8.11,0-14.72-6.6-14.72-14.72v-14.72h49.42v14.72Z"/>
                </g>
            </g>
        </g>
    </g>
    <g>
        <path class="cls-16" d="M3355.81,766.9c9.63-10.95,10.72-26.35,4.01-38.41l-10.72,12.18-3.03,3.44c-1.85,2.1-4.3,3.36-6.97,3.69l-1.42.09-10.41.67-.67-10.41-.09-1.42c-.01-2.69.93-5.29,2.78-7.39l3.03-3.44,10.72-12.18c-12.81-5.12-27.95-2.08-37.59,8.87-9.63,10.95-10.72,26.35-4.01,38.41l-38.28,43.51c-4.08,4.64-3.63,11.7,1.01,15.78,4.64,4.08,11.7,3.63,15.78-1.01l38.28-43.51c12.81,5.12,27.95,2.08,37.59-8.87Z"/>
        <path class="cls-16" d="M3432.26,745.97h-11.14c-.75,0-1.48.08-2.19.22-2.57-12.79-7.33-24.78-13.86-35.57.83-.48,1.61-1.07,2.32-1.78l7.88-7.88c4.35-4.35,4.35-11.41,0-15.76l-15.76-15.76c-4.35-4.35-11.41-4.35-15.76,0l-7.88,7.88c-.25.25-.48.51-.7.78-12.7-9.24-27.44-15.86-43.41-19.07.14-.71.22-1.44.22-2.19v-11.14c0-6.15-4.99-11.14-11.14-11.14h-22.28c-6.15,0-11.14,4.99-11.14,11.14v11.14c0,.75.08,1.48.22,2.19-14.59,2.93-28.15,8.71-40.08,16.74-.54-1.3-1.34-2.51-2.4-3.57l-7.88-7.88c-4.35-4.35-11.41-4.35-15.76,0l-15.76,15.76c-4.35,4.35-4.35,11.41,0,15.76l7.88,7.88c1.06,1.06,2.27,1.85,3.57,2.4-8.03,11.92-13.81,25.49-16.74,40.08-.71-.14-1.44-.22-2.19-.22h-11.14c-6.15,0-11.14,4.99-11.14,11.14v22.28c0,6.15,4.99,11.14,11.14,11.14h11.14c.75,0,1.48-.08,2.19-.22,3.26,16.2,10.02,31.13,19.48,43.96-1.2.54-2.33,1.3-3.32,2.29l-7.88,7.88c-4.35,4.35-4.35,11.41,0,15.76l15.76,15.76c4.35,4.35,11.41,4.35,15.76,0l7.88-7.88c1.46-1.46,2.42-3.22,2.91-5.08,11.05,6.86,23.4,11.83,36.58,14.48-.14.71-.22,1.44-.22,2.19v11.14c0,6.15,4.99,11.14,11.14,11.14h22.28c6.15,0,11.14-4.99,11.14-11.14v-11.14c0-.75-.08-1.48-.22-2.19,14.79-2.97,28.53-8.87,40.57-17.07.5.91,1.13,1.78,1.91,2.55l7.88,7.88c4.35,4.35,11.41,4.35,15.76,0l15.76-15.76c4.35-4.35,4.35-11.41,0-15.76l-7.88-7.88c-.87-.87-1.84-1.56-2.88-2.08,7.67-11.67,13.21-24.87,16.05-39.04.71.14,1.44.22,2.19.22h11.14c6.15,0,11.14-4.99,11.14-11.14v-22.28c0-6.15-4.99-11.14-11.14-11.14ZM3309.7,841.79c-40.61,0-73.54-32.92-73.54-73.54s32.92-73.54,73.54-73.54,73.54,32.92,73.54,73.54-32.92,73.54-73.54,73.54Z"/>
    </g>
    <g>
        <circle class="cls-5" cx="2806.28" cy="995.05" r="20.59" transform="translate(614.25 3010.07) rotate(-62.11)"/>
        <path class="cls-5" d="M2896.57,1013.16l-7.66-3.04c-.52-.2-1.04-.35-1.57-.45,1.72-9.5,1.73-19.05.18-28.26.7-.1,1.41-.26,2.09-.56l7.56-3.26c4.18-1.8,6.1-6.65,4.3-10.83l-6.53-15.12c-1.8-4.18-6.65-6.1-10.83-4.3l-7.56,3.26c-.25.11-.46.26-.69.38-6.21-9.83-14.53-18.41-24.63-24.98.29-.45.55-.93.75-1.45l3.04-7.66c1.68-4.23-.39-9.02-4.62-10.69l-15.31-6.08c-4.23-1.68-9.02.39-10.69,4.62l-3.04,7.66c-.2.52-.35,1.04-.45,1.57-10.83-1.97-21.73-1.69-32.11.57-.02-1.04-.23-2.09-.67-3.11l-3.26-7.56c-1.8-4.18-6.65-6.1-10.83-4.3l-15.12,6.53c-4.18,1.8-6.1,6.65-4.3,10.83l3.26,7.56c.44,1.01,1.06,1.89,1.81,2.62-8.77,6-16.44,13.75-22.44,22.98-.45-.29-.93-.55-1.45-.75l-7.66-3.04c-4.23-1.68-9.02.39-10.69,4.62l-6.08,15.31c-1.68,4.23.39,9.02,4.62,10.69l7.66,3.04c.52.2,1.04.35,1.57.45-2.18,12.03-1.6,24.14,1.4,35.54-.98.04-1.97.23-2.92.65l-7.56,3.26c-4.18,1.8-6.1,6.65-4.3,10.83l6.53,15.12c1.8,4.18,6.65,6.1,10.83,4.3l7.56-3.26c1.41-.61,2.53-1.58,3.37-2.74,5.73,7.74,12.85,14.54,21.2,19.96-.29.45-.55.93-.75,1.45l-3.04,7.66c-1.68,4.23.39,9.02,4.62,10.69l15.31,6.08c4.23,1.68,9.02-.39,10.69-4.62l3.04-7.66c.2-.52.35-1.04.45-1.57,10.99,2,22.05,1.68,32.57-.68.09.77.26,1.54.58,2.29l3.26,7.56c1.8,4.18,6.65,6.1,10.83,4.3l15.12-6.53c4.18-1.8,6.1-6.65,4.3-10.83l-3.26-7.56c-.36-.84-.87-1.56-1.45-2.21,8.47-5.93,15.89-13.49,21.72-22.46.45.29.93.55,1.45.75l7.66,3.04c4.23,1.68,9.02-.39,10.69-4.62l6.08-15.31c1.68-4.23-.39-9.02-4.62-10.69ZM2786.22,1045.58c-27.91-11.08-41.55-42.68-30.47-70.58,11.08-27.91,42.68-41.55,70.58-30.47,27.91,11.08,41.55,42.68,30.47,70.58-11.08,27.9-42.68,41.55-70.58,30.47Z"/>
    </g>
    <g>
        <path class="cls-5" d="M2711.43,1115.94h58.28v52.85h-58.28c-8.42,0-15.26-6.84-15.26-15.26v-22.34c0-8.42,6.84-15.26,15.26-15.26Z"/>
        <rect class="cls-5" x="2769.7" y="1115.94" width="73.53" height="52.85"/>
        <path class="cls-5" d="M2890.34,1115.94h-47.11v52.85h47.11c14.59,0,26.43-11.83,26.43-26.43s-11.83-26.43-26.43-26.43ZM2890.34,1165.79h-44.11v-46.85h44.11c12.92,0,23.43,10.51,23.43,23.43s-10.51,23.43-23.43,23.43Z"/>
    </g>
    <g>
        <g>
            <circle class="cls-12" cx="2234.17" cy="705.91" r="14" transform="translate(264.81 1975.33) rotate(-50.34)"/>
            <path class="cls-12" d="M2295.57,718.22l-5.21-2.07c-.35-.14-.71-.24-1.07-.3,1.17-6.46,1.18-12.95.12-19.22.48-.07.96-.18,1.42-.38l5.14-2.22c2.84-1.23,4.15-4.52,2.92-7.36l-4.44-10.29c-1.23-2.84-4.52-4.15-7.36-2.92l-5.14,2.22c-.17.07-.31.17-.47.26-4.22-6.68-9.88-12.52-16.75-16.99.2-.31.37-.63.51-.98l2.07-5.21c1.14-2.88-.26-6.13-3.14-7.27l-10.41-4.13c-2.88-1.14-6.13.26-7.27,3.14l-2.07,5.21c-.14.35-.24.71-.3,1.07-7.37-1.34-14.78-1.15-21.84.39-.01-.71-.16-1.42-.45-2.11l-2.22-5.14c-1.23-2.84-4.52-4.15-7.36-2.92l-10.29,4.44c-2.84,1.23-4.15,4.52-2.92,7.36l2.22,5.14c.3.69.72,1.29,1.23,1.78-5.97,4.08-11.18,9.35-15.26,15.63-.31-.2-.63-.37-.98-.51l-5.21-2.07c-2.88-1.14-6.13.26-7.27,3.14l-4.13,10.41c-1.14,2.88.26,6.13,3.14,7.27l5.21,2.07c.35.14.71.24,1.07.3-1.48,8.18-1.09,16.42.96,24.17-.67.03-1.34.16-1.98.44l-5.14,2.22c-2.84,1.23-4.15,4.52-2.92,7.36l4.44,10.29c1.23,2.84,4.52,4.15,7.36,2.92l5.14-2.22c.96-.41,1.72-1.07,2.29-1.86,3.9,5.26,8.74,9.89,14.42,13.58-.2.31-.37.63-.51.98l-2.07,5.21c-1.14,2.88.26,6.13,3.14,7.27l10.41,4.13c2.88,1.14,6.13-.26,7.27-3.14l2.07-5.21c.14-.35.24-.71.3-1.07,7.47,1.36,14.99,1.14,22.15-.46.06.52.17,1.05.39,1.56l2.22,5.14c1.23,2.84,4.52,4.15,7.36,2.92l10.29-4.44c2.84-1.23,4.15-4.52,2.92-7.36l-2.22-5.14c-.25-.57-.59-1.06-.99-1.5,5.76-4.03,10.81-9.17,14.77-15.28.31.2.63.37.98.51l5.21,2.07c2.88,1.14,6.13-.26,7.27-3.14l4.13-10.41c1.14-2.88-.26-6.13-3.14-7.27ZM2220.53,740.27c-18.98-7.53-28.26-29.02-20.72-48,7.53-18.98,29.02-28.26,48-20.72,18.98,7.53,28.26,29.02,20.72,48-7.53,18.98-29.02,28.26-48,20.72Z"/>
        </g>
        <g>
            <path class="cls-12" d="M2377.21,818.51c-7.19-2.85-15.33.66-18.18,7.85-2.85,7.19.66,15.33,7.85,18.18,7.19,2.85,15.33-.66,18.18-7.85,2.85-7.19-.66-15.33-7.85-18.18Z"/>
            <path class="cls-12" d="M2433.45,843.84l-5.21-2.07c-.35-.14-.71-.24-1.07-.3,1.17-6.46,1.18-12.95.12-19.22.48-.07.96-.18,1.42-.38l5.14-2.22c2.84-1.23,4.15-4.52,2.92-7.36l-4.44-10.29c-1.23-2.84-4.52-4.15-7.36-2.92l-5.14,2.22c-.17.07-.31.17-.47.26-4.22-6.69-9.88-12.52-16.75-16.99.2-.31.37-.63.51-.98l2.07-5.21c1.14-2.88-.26-6.13-3.14-7.27l-10.41-4.13c-2.88-1.14-6.13.26-7.27,3.14l-2.07,5.21c-.14.35-.24.71-.3,1.07-7.37-1.34-14.78-1.15-21.84.39-.01-.71-.16-1.42-.45-2.11l-2.22-5.14c-1.23-2.84-4.52-4.15-7.36-2.92l-10.29,4.44c-2.84,1.23-4.15,4.52-2.92,7.36l2.22,5.14c.3.69.72,1.29,1.23,1.78-5.97,4.08-11.18,9.35-15.26,15.63-.31-.2-.63-.37-.98-.51l-5.21-2.07c-2.88-1.14-6.13.26-7.27,3.14l-4.13,10.41c-1.14,2.88.26,6.13,3.14,7.27l5.21,2.07c.35.14.71.24,1.07.3-1.48,8.18-1.09,16.42.96,24.17-.67.03-1.34.16-1.98.44l-5.14,2.22c-2.84,1.23-4.15,4.52-2.92,7.36l4.44,10.29c1.23,2.84,4.52,4.15,7.36,2.92l5.14-2.22c.96-.41,1.72-1.07,2.29-1.86,3.9,5.26,8.74,9.89,14.42,13.58-.2.31-.37.63-.51.98l-2.07,5.21c-1.14,2.88.26,6.13,3.14,7.27l10.41,4.13c2.88,1.14,6.13-.26,7.27-3.14l2.07-5.21c.14-.35.24-.71.3-1.07,7.47,1.36,14.99,1.14,22.15-.46.06.52.17,1.05.39,1.56l2.22,5.14c1.23,2.84,4.52,4.15,7.36,2.92l10.29-4.44c2.84-1.23,4.15-4.52,2.92-7.36l-2.22-5.14c-.25-.57-.59-1.06-.99-1.5,5.76-4.03,10.81-9.17,14.77-15.28.31.2.63.37.98.51l5.21,2.07c2.88,1.14,6.13-.26,7.27-3.14l4.13-10.41c1.14-2.88-.26-6.13-3.14-7.27ZM2358.4,865.88c-18.98-7.53-28.26-29.02-20.72-48,7.53-18.98,29.02-28.26,48-20.72,18.98,7.53,28.26,29.02,20.72,48-7.53,18.98-29.02,28.26-48,20.72Z"/>
        </g>
        <path class="cls-12" d="M2341.75,673.31c9.9.93,19.26,4.97,26.73,11.54,7.36,6.47,12.51,15.09,14.74,24.62l-12.13,2.68,33.93,25.12,20.16-37.09-9.34,2.07c-3.77-16.46-12.62-31.32-25.29-42.48-12.76-11.23-28.76-18.13-45.68-19.72l-3.11,33.26Z"/>
        <path class="cls-12" d="M2269.15,852.2c-9.93.5-19.77-2.17-28.1-7.6-8.21-5.36-14.53-13.15-18.1-22.26l11.62-4.39-37.17-20.02-14.66,39.59,8.95-3.38c6.08,15.75,16.96,29.2,31.1,38.43,14.23,9.29,31.05,13.84,48.03,12.99l-1.67-33.36Z"/>
    </g>
    <g>
        <g>
            <rect class="cls-8" x="638.19" y="941.14" width="238.52" height="181.22" rx="10.11" ry="10.11" transform="translate(-303.52 1747.69) rotate(-87.73)"/>
            <g>
                <rect class="cls-7" x="687.31" y="936.9" width="47.5" height="47.5" rx="4.43" ry="4.43" transform="translate(-277.03 1633.05) rotate(-87.73)"/>
                <line class="cls-7" x1="753.74" y1="939.6" x2="833.96" y2="942.79"/>
                <line class="cls-7" x1="753.14" y1="954.82" x2="833.36" y2="958.01"/>
                <line class="cls-7" x1="752.53" y1="970.04" x2="832.75" y2="973.23"/>
                <line class="cls-7" x1="751.93" y1="985.26" x2="832.15" y2="988.44"/>
            </g>
            <g>
                <rect class="cls-7" x="684.47" y="1008.35" width="47.5" height="47.5" rx="4.43" ry="4.43" transform="translate(-351.15 1698.83) rotate(-87.73)"/>
                <line class="cls-7" x1="750.91" y1="1011.05" x2="831.13" y2="1014.24"/>
                <line class="cls-7" x1="750.3" y1="1026.27" x2="830.52" y2="1029.46"/>
                <line class="cls-7" x1="749.7" y1="1041.49" x2="829.92" y2="1044.67"/>
                <line class="cls-7" x1="749.09" y1="1056.71" x2="829.31" y2="1059.89"/>
            </g>
            <g>
                <rect class="cls-7" x="681.63" y="1079.79" width="47.5" height="47.5" rx="4.43" ry="4.43" transform="translate(-425.26 1764.62) rotate(-87.73)"/>
                <line class="cls-7" x1="748.07" y1="1082.5" x2="828.29" y2="1085.69"/>
                <line class="cls-7" x1="747.47" y1="1097.72" x2="827.69" y2="1100.91"/>
                <line class="cls-7" x1="746.86" y1="1112.94" x2="827.08" y2="1116.12"/>
                <line class="cls-7" x1="746.26" y1="1128.16" x2="826.48" y2="1131.34"/>
            </g>
        </g>
        <g>
            <circle class="cls-13" cx="820" cy="1028.53" r="47.26" transform="translate(-82.34 71.42) rotate(-4.75)"/>
            <path class="cls-14" d="M932.21,1106.06c5.03,4.16,5.73,11.61,1.57,16.64-4.16,5.03-11.61,5.73-16.64,1.57l-45.51-37.67,15.07-18.2,45.51,37.67Z"/>
            <polygon class="cls-14" points="873.83 1065.41 877.59 1060.86 882.15 1064.63 867.08 1082.83 862.53 1079.07 866.29 1074.52 861.74 1070.75 865.51 1066.2 869.28 1061.65 873.83 1065.41"/>
            <path class="cls-14" d="M865.51,1066.2c20.8-25.13,17.29-62.37-7.84-83.18-25.13-20.8-62.37-17.29-83.18,7.84-20.8,25.13-17.29,62.37,7.84,83.18,25.13,20.8,62.37,17.29,83.18-7.84ZM789.87,1064.94c-20.08-16.61-22.89-46.47-6.28-66.54,16.61-20.08,46.47-22.89,66.54-6.28,20.07,16.61,22.89,46.47,6.28,66.54-16.61,20.08-46.47,22.89-66.54,6.28Z"/>
            <g>
                <rect class="cls-14" x="866.22" y="1073.81" width="21.35" height="3.62" transform="translate(-510.83 1065.19) rotate(-50.38)"/>
                <path class="cls-14" d="M867.08,1082.83l4.55,3.77,15.07-18.2-4.55-3.77-15.07,18.2ZM871.33,1083.39l-1.03-.85,12.15-14.69,1.03.85-12.15,14.68Z"/>
            </g>
        </g>
    </g>
    <g>
        <g>
            <rect class="cls-11" x="1211.51" y="788.14" width="42.31" height="93.91" rx="10.77" ry="10.77"/>
            <rect class="cls-11" x="1274.25" y="759.15" width="42.31" height="122.9" rx="10.77" ry="10.77"/>
            <rect class="cls-11" x="1336.98" y="718.56" width="42.31" height="163.49" rx="10.77" ry="10.77"/>
        </g>
        <g>
            <path class="cls-11" d="M1208.55,755.82c-1.25,0-2.5-.5-3.42-1.49-1.75-1.89-1.64-4.84.25-6.59l48-44.51,19.72,15.61,48.64-43.69,19.58,18.76,24.69-23.44c1.87-1.77,4.83-1.7,6.6.17,1.77,1.87,1.7,4.82-.17,6.6l-31.15,29.56-19.76-18.93-48.05,43.17-19.62-15.53-42.14,39.07c-.9.83-2.04,1.24-3.17,1.24Z"/>
            <path class="cls-11" d="M1389.65,654.46c-6.23,12.69-12.38,30.09-13.65,43.56l-9.46-21.62-21.1-10.57c13.51-.57,31.21-5.81,44.2-11.37Z"/>
        </g>
    </g>
    <path class="cls-1" d="M1922.56,1009.46h-11.14c-.75,0-1.48.08-2.19.22-2.57-12.79-7.33-24.78-13.86-35.57.83-.48,1.61-1.07,2.32-1.78l7.88-7.88c4.35-4.35,4.35-11.41,0-15.76l-15.76-15.76c-4.35-4.35-11.41-4.35-15.76,0l-7.88,7.88c-.25.25-.48.51-.7.78-12.7-9.24-27.44-15.86-43.41-19.07.14-.71.22-1.44.22-2.19v-11.14c0-6.15-4.99-11.14-11.14-11.14h-22.28c-6.15,0-11.14,4.99-11.14,11.14v11.14c0,.75.07,1.48.22,2.19-14.59,2.93-28.15,8.71-40.08,16.74-.54-1.3-1.34-2.51-2.4-3.57l-7.88-7.88c-4.35-4.35-11.41-4.35-15.76,0l-15.76,15.76c-4.35,4.35-4.35,11.41,0,15.76l7.88,7.88c1.06,1.06,2.27,1.85,3.57,2.4-8.03,11.92-13.81,25.49-16.74,40.08-.71-.14-1.44-.22-2.19-.22h-11.14c-6.15,0-11.14,4.99-11.14,11.14v22.28c0,6.15,4.99,11.14,11.14,11.14h11.14c.75,0,1.48-.08,2.19-.22,3.26,16.2,10.02,31.13,19.48,43.96-1.2.54-2.33,1.3-3.32,2.29l-7.88,7.88c-4.35,4.35-4.35,11.41,0,15.76l15.76,15.76c4.35,4.35,11.41,4.35,15.76,0l7.88-7.88c1.46-1.46,2.42-3.22,2.91-5.08,11.05,6.86,23.4,11.83,36.58,14.48-.14.71-.22,1.44-.22,2.19v11.14c0,6.15,4.99,11.14,11.14,11.14h22.28c6.15,0,11.14-4.99,11.14-11.14v-11.14c0-.75-.08-1.48-.22-2.19,14.79-2.97,28.53-8.87,40.57-17.07.5.92,1.13,1.78,1.91,2.55l7.88,7.88c4.35,4.35,11.41,4.35,15.76,0l15.76-15.76c4.35-4.35,4.35-11.41,0-15.76l-7.88-7.88c-.87-.87-1.84-1.56-2.88-2.08,7.67-11.67,13.21-24.87,16.05-39.04.71.14,1.44.22,2.19.22h11.14c6.15,0,11.14-4.99,11.14-11.14v-22.28c0-6.15-4.99-11.14-11.14-11.14ZM1800,1105.28c-40.61,0-73.54-32.92-73.54-73.54s32.92-73.54,73.54-73.54,73.54,32.92,73.54,73.54-32.92,73.54-73.54,73.54Z"/>
</svg>