<?xml version="1.0" encoding="utf-8"?>
<!-- Generator: Adobe Illustrator 27.5.0, SVG Export Plug-In . SVG Version: 6.00 Build 0)  -->
<svg version="1.1" xmlns="http://www.w3.org/2000/svg" xmlns:xlink="http://www.w3.org/1999/xlink" x="0px" y="0px"
     viewBox="0 0 500 500" style="enable-background:new 0 0 500 500;" xml:space="preserve">
<g id="BACKGROUND">
	<rect style="fill:#FFFFFF;" width="500" height="500"/>
</g>
    <g id="OBJECTS">
	<g>
		<path style="fill:#E1D4FC;" d="M84.497,120.084c-11.601,14.1-21.97,33.183-14.477,49.834c7.039,15.643,27.489,21.25,44.175,17.272
			c16.686-3.977,30.605-15.06,44.39-25.268c9.49-7.028,19.264-13.842,27.257-22.534c7.994-8.691,14.182-19.603,14.845-31.393
			c0.723-12.858-5.644-25.893-16.23-33.227C143.828,46.62,107.422,92.22,84.497,120.084z"/>
        <path style="fill:#E1D4FC;" d="M431.291,108.435c-2.101-4.538-4.728-8.831-7.837-12.749
			C391.9,55.932,320.311,62.469,282.412,89.335c-35.789,25.37-51.592,71.071-84.328,100.275
			c-12.581,11.225-27.347,19.711-40.532,30.219c-23.896,19.044-42.608,45.358-49.446,75.139
			c-9.416,41.008,7.907,85.32,39.568,112.482c21.817,18.717,51.075,26.889,79.782,28.39c35.568,1.861,71.981-6.039,102.238-24.827
			c35.383-21.971,60.283-59.478,68.074-100.251c6.68-34.96,0.588-72.563,14.538-105.308c9.728-22.835,24.054-42.073,24.94-67.913
			C437.588,127.55,435.489,117.503,431.291,108.435z"/>
	</g>
        <g>
		<g style="opacity:0.5;">
			<g>
				<path style="fill:#BFA7F2;" d="M80.061,95.475H64.949c-0.946,0-1.713,0.767-1.713,1.713l0,0c0,0.946,0.767,1.713,1.713,1.713
					h15.113c0.946,0,1.713-0.767,1.713-1.713l0,0C81.774,96.242,81.007,95.475,80.061,95.475z"/>
                <path style="fill:#BFA7F2;" d="M98.212,95.475H86.994c-0.895,0-1.694,0.654-1.779,1.545c-0.097,1.022,0.703,1.881,1.705,1.881
					h11.292c0.946,0,1.713-0.767,1.713-1.713l0,0C99.925,96.242,99.158,95.475,98.212,95.475z"/>
                <path style="fill:#BFA7F2;" d="M119.996,97.188L119.996,97.188c0,0.946,0.767,1.713,1.713,1.713h32.965
					c0.946,0,1.713-0.767,1.713-1.713l0,0c0-0.946-0.767-1.713-1.713-1.713h-32.965C120.763,95.475,119.996,96.242,119.996,97.188z"
                />
                <path style="fill:#BFA7F2;" d="M172.526,95.475h-10.535c-0.946,0-1.713,0.767-1.713,1.713l0,0c0,0.946,0.767,1.713,1.713,1.713
					h10.535c0.946,0,1.713-0.767,1.713-1.713l0,0C174.239,96.242,173.472,95.475,172.526,95.475z"/>
                <path style="fill:#BFA7F2;" d="M161.998,103.908h-29.989c-0.946,0-1.713,0.767-1.713,1.713l0,0c0,0.946,0.767,1.713,1.713,1.713
					h29.989c0.946,0,1.713-0.767,1.713-1.713l0,0C163.711,104.675,162.944,103.908,161.998,103.908z"/>
                <path style="fill:#BFA7F2;" d="M166.613,105.621L166.613,105.621c0,0.946,0.767,1.713,1.713,1.713h6.385
					c0.946,0,1.713-0.767,1.713-1.713l0,0c0-0.946-0.767-1.713-1.713-1.713h-6.385C167.38,103.908,166.613,104.675,166.613,105.621z
					"/>
                <path style="fill:#BFA7F2;" d="M125.484,103.908h-3.775c-0.946,0-1.713,0.767-1.713,1.713l0,0c0,0.946,0.767,1.713,1.713,1.713
					h3.775c0.946,0,1.713-0.767,1.713-1.713l0,0C127.197,104.675,126.43,103.908,125.484,103.908z"/>
                <path style="fill:#BFA7F2;" d="M114.254,103.908H99.145c-0.946,0-1.713,0.767-1.713,1.713l0,0c0,0.946,0.767,1.713,1.713,1.713
					h15.109c0.569,0,1.03-0.461,1.03-1.03v-1.366C115.284,104.369,114.823,103.908,114.254,103.908z"/>
                <path style="fill:#BFA7F2;" d="M92.576,103.908H71.974c-0.569,0-1.03,0.461-1.03,1.03v1.366c0,0.569,0.461,1.03,1.03,1.03
					h20.602c0.946,0,1.713-0.767,1.713-1.713l0,0C94.289,104.675,93.522,103.908,92.576,103.908z"/>
                <path style="fill:#BFA7F2;" d="M65.414,103.908h-0.465c-0.946,0-1.713,0.767-1.713,1.713l0,0c0,0.946,0.767,1.713,1.713,1.713
					h0.465c0.946,0,1.713-0.767,1.713-1.713l0,0C67.127,104.675,66.36,103.908,65.414,103.908z"/>
                <path style="fill:#BFA7F2;" d="M135.042,113.488L135.042,113.488c0,0.946,0.767,1.713,1.713,1.713h37.313
					c0.946,0,1.713-0.767,1.713-1.713l0,0c0-0.946-0.767-1.713-1.713-1.713h-37.313
					C135.809,111.775,135.042,112.542,135.042,113.488z"/>
                <path style="fill:#BFA7F2;" d="M74.391,113.488L74.391,113.488c0,0.946,0.767,1.713,1.713,1.713h28.616
					c0.946,0,1.713-0.767,1.713-1.713l0,0c0-0.946-0.767-1.713-1.713-1.713H76.104C75.158,111.775,74.391,112.542,74.391,113.488z"
                />
                <path style="fill:#BFA7F2;" d="M108.493,113.488L108.493,113.488c0,0.946,0.767,1.713,1.713,1.713h17.401
					c0.946,0,1.713-0.767,1.713-1.713l0,0c0-0.946-0.767-1.713-1.713-1.713h-17.401C109.26,111.775,108.493,112.542,108.493,113.488
					z"/>
                <path style="fill:#BFA7F2;" d="M87.208,121.922L87.208,121.922c0,0.946,0.767,1.713,1.713,1.713h2.754
					c0.946,0,1.713-0.767,1.713-1.713l0,0c0-0.946-0.767-1.713-1.713-1.713h-2.754C87.975,120.209,87.208,120.976,87.208,121.922z"
                />
                <path style="fill:#BFA7F2;" d="M81.784,120.209H66.949c-0.946,0-1.713,0.767-1.713,1.713c0,0.946,0.767,1.713,1.713,1.713
					h14.835V120.209z"/>
                <path style="fill:#BFA7F2;" d="M95.676,121.922L95.676,121.922c0,0.946,0.767,1.713,1.713,1.713h2.296
					c0.946,0,1.713-0.767,1.713-1.713l0,0c0-0.946-0.767-1.713-1.713-1.713h-2.296C96.443,120.209,95.676,120.976,95.676,121.922z"
                />
                <path style="fill:#BFA7F2;" d="M103.686,121.922L103.686,121.922c0,0.946,0.767,1.713,1.713,1.713h22.437
					c0.946,0,1.713-0.767,1.713-1.713l0,0c0-0.946-0.767-1.713-1.713-1.713h-22.437
					C104.453,120.209,103.686,120.976,103.686,121.922z"/>
                <path style="fill:#BFA7F2;" d="M133.211,121.922L133.211,121.922c0,0.946,0.767,1.713,1.713,1.713h8.247
					c0.946,0,1.713-0.767,1.713-1.713l0,0c0-0.946-0.767-1.713-1.713-1.713h-8.247C133.978,120.209,133.211,120.976,133.211,121.922
					z"/>
                <path style="fill:#BFA7F2;" d="M149.919,121.922L149.919,121.922c0,0.946,0.767,1.713,1.713,1.713h8.475
					c0.946,0,1.713-0.767,1.713-1.713l0,0c0-0.946-0.767-1.713-1.713-1.713h-8.475C150.686,120.209,149.919,120.976,149.919,121.922
					z"/>
                <path style="fill:#BFA7F2;" d="M167.771,121.922L167.771,121.922c0,0.946,0.767,1.713,1.713,1.713h4.585
					c0.946,0,1.713-0.767,1.713-1.713l0,0c0-0.946-0.767-1.713-1.713-1.713h-4.585C168.538,120.209,167.771,120.976,167.771,121.922
					z"/>
                <path style="fill:#BFA7F2;" d="M85.293,130.355L85.293,130.355c0,0.946,0.767,1.713,1.713,1.713h21.122
					c0.946,0,1.713-0.767,1.713-1.713l0,0c0-0.946-0.767-1.713-1.713-1.713H87.006C86.06,128.642,85.293,129.409,85.293,130.355z"/>
                <path style="fill:#BFA7F2;" d="M114.672,130.355L114.672,130.355c0,0.946,0.767,1.713,1.713,1.713h3.211
					c0.946,0,1.713-0.767,1.713-1.713l0,0c0-0.946-0.767-1.713-1.713-1.713h-3.211C115.439,128.642,114.672,129.409,114.672,130.355
					z"/>
                <path style="fill:#BFA7F2;" d="M128.093,130.355L128.093,130.355c0,0.946,0.767,1.713,1.713,1.713h16.121
					c0.946,0,1.713-0.767,1.713-1.713l0,0c0-0.946-0.767-1.713-1.713-1.713h-16.121C128.86,128.642,128.093,129.409,128.093,130.355
					z"/>
                <path style="fill:#BFA7F2;" d="M151.114,130.355L151.114,130.355c0,0.946,0.767,1.713,1.713,1.713h12.595
					c0.946,0,1.713-0.767,1.713-1.713l0,0c0-0.946-0.767-1.713-1.713-1.713h-12.595
					C151.881,128.642,151.114,129.409,151.114,130.355z"/>
                <path style="fill:#BFA7F2;" d="M135.477,72.855L135.477,72.855c0,0.946,0.767,1.713,1.713,1.713h37.313
					c0.946,0,1.713-0.767,1.713-1.713l0,0c0-0.946-0.767-1.713-1.713-1.713H137.19C136.244,71.142,135.477,71.909,135.477,72.855z"
                />
                <path style="fill:#BFA7F2;" d="M149.112,63.856h-4.561c-0.946,0-1.713,0.767-1.713,1.713l0,0c0,0.946,0.767,1.713,1.713,1.713
					h4.561c0.946,0,1.713-0.767,1.713-1.713l0,0C150.825,64.623,150.058,63.856,149.112,63.856z"/>
                <path style="fill:#BFA7F2;" d="M137.622,63.856h-15.491c-0.946,0-1.713,0.767-1.713,1.713l0,0c0,0.946,0.767,1.713,1.713,1.713
					h15.491c0.946,0,1.713-0.767,1.713-1.713l0,0C139.335,64.623,138.568,63.856,137.622,63.856z"/>
                <path style="fill:#BFA7F2;" d="M153.488,65.569L153.488,65.569c0,0.946,0.767,1.713,1.713,1.713h19.302
					c0.946,0,1.713-0.767,1.713-1.713l0,0c0-0.946-0.767-1.713-1.713-1.713h-19.302C154.255,63.856,153.488,64.623,153.488,65.569z"
                />
                <path style="fill:#BFA7F2;" d="M133.646,81.289L133.646,81.289c0,0.946,0.767,1.713,1.713,1.713h8.247
					c0.946,0,1.713-0.767,1.713-1.713l0,0c0-0.946-0.767-1.713-1.713-1.713h-8.247C134.413,79.576,133.646,80.342,133.646,81.289z"
                />
                <path style="fill:#BFA7F2;" d="M150.353,81.289L150.353,81.289c0,0.946,0.767,1.713,1.713,1.713h8.475
					c0.946,0,1.713-0.767,1.713-1.713l0,0c0-0.946-0.767-1.713-1.713-1.713h-8.475C151.12,79.576,150.353,80.342,150.353,81.289z"/>
                <path style="fill:#BFA7F2;" d="M167.22,81.289L167.22,81.289c0,0.946,0.767,1.713,1.713,1.713h6.242
					c0.946,0,1.713-0.767,1.713-1.713l0,0c0-0.946-0.767-1.713-1.713-1.713h-6.242C167.987,79.576,167.22,80.342,167.22,81.289z"/>
                <path style="fill:#BFA7F2;" d="M141.497,89.722L141.497,89.722c0,0.946,0.767,1.713,1.713,1.713h9.62
					c0.946,0,1.713-0.767,1.713-1.713l0,0c0-0.946-0.767-1.713-1.713-1.713h-9.62C142.264,88.009,141.497,88.776,141.497,89.722z"/>
                <path style="fill:#BFA7F2;" d="M115.107,89.722L115.107,89.722c0,0.946,0.767,1.713,1.713,1.713h3.211
					c0.946,0,1.713-0.767,1.713-1.713l0,0c0-0.946-0.767-1.713-1.713-1.713h-3.211C115.874,88.009,115.107,88.776,115.107,89.722z"
                />
                <path style="fill:#BFA7F2;" d="M124.949,89.722L124.949,89.722c0,0.946,0.767,1.713,1.713,1.713h7.102
					c0.946,0,1.713-0.767,1.713-1.713l0,0c0-0.946-0.767-1.713-1.713-1.713h-7.102C125.715,88.009,124.949,88.776,124.949,89.722z"
                />
                <path style="fill:#BFA7F2;" d="M160.882,89.722L160.882,89.722c0,0.946,0.767,1.713,1.713,1.713h12.595
					c0.946,0,1.713-0.767,1.713-1.713l0,0c0-0.946-0.767-1.713-1.713-1.713h-12.595C161.648,88.009,160.882,88.776,160.882,89.722z"
                />
			</g>
            <g>
				<path style="fill:#BFA7F2;" d="M114.396,69.487c-0.197,0-0.394-0.071-0.55-0.216l-4.079-3.77l4.047-4.17
					c0.313-0.322,0.827-0.329,1.148-0.017c0.322,0.312,0.329,0.826,0.017,1.148l-2.889,2.976l2.857,2.641
					c0.329,0.304,0.35,0.818,0.045,1.147C114.832,69.4,114.615,69.487,114.396,69.487z"/>
			</g>
            <g>
				<path style="fill:#BFA7F2;" d="M119.315,69.487c-0.197,0-0.394-0.071-0.55-0.216l-4.079-3.77l4.047-4.17
					c0.313-0.322,0.827-0.329,1.148-0.017c0.322,0.312,0.329,0.826,0.017,1.148l-2.889,2.976l2.858,2.641
					c0.329,0.304,0.349,0.818,0.045,1.147C119.751,69.4,119.533,69.487,119.315,69.487z"/>
			</g>
            <g>
				<path style="fill:#BFA7F2;" d="M174.63,134.788c-0.219,0-0.436-0.088-0.596-0.261c-0.304-0.329-0.284-0.842,0.045-1.147
					l2.857-2.641l-2.889-2.976c-0.312-0.321-0.304-0.835,0.017-1.148c0.321-0.312,0.835-0.304,1.148,0.017l4.047,4.17l-4.079,3.77
					C175.024,134.717,174.826,134.788,174.63,134.788z"/>
			</g>
            <g>
				<path style="fill:#BFA7F2;" d="M169.711,134.788c-0.219,0-0.436-0.088-0.596-0.261c-0.304-0.329-0.284-0.842,0.045-1.147
					l2.858-2.641l-2.889-2.976c-0.312-0.321-0.304-0.835,0.017-1.148c0.321-0.312,0.835-0.304,1.148,0.017l4.047,4.17l-4.079,3.77
					C170.105,134.717,169.908,134.788,169.711,134.788z"/>
			</g>
		</g>
            <g style="opacity:0.5;">
			<g>
				<path style="fill:#BFA7F2;" d="M414.635,398.191h15.113c0.946,0,1.713,0.767,1.713,1.713l0,0c0,0.946-0.767,1.713-1.713,1.713
					h-15.113c-0.946,0-1.713-0.767-1.713-1.713l0,0C412.922,398.958,413.689,398.191,414.635,398.191z"/>
                <path style="fill:#BFA7F2;" d="M393.623,398.191h11.218c0.895,0,1.694,0.654,1.779,1.545c0.097,1.022-0.703,1.881-1.705,1.881
					h-11.292c-0.946,0-1.713-0.767-1.713-1.713l0,0C391.91,398.958,392.677,398.191,393.623,398.191z"/>
                <path style="fill:#BFA7F2;" d="M381.376,399.904L381.376,399.904c0,0.946-0.767,1.713-1.713,1.713h-32.965
					c-0.946,0-1.713-0.767-1.713-1.713l0,0c0-0.946,0.767-1.713,1.713-1.713h32.965
					C380.609,398.191,381.376,398.958,381.376,399.904z"/>
                <path style="fill:#BFA7F2;" d="M328.846,398.191h10.535c0.946,0,1.713,0.767,1.713,1.713l0,0c0,0.946-0.767,1.713-1.713,1.713
					h-10.535c-0.946,0-1.713-0.767-1.713-1.713l0,0C327.133,398.958,327.9,398.191,328.846,398.191z"/>
                <path style="fill:#BFA7F2;" d="M339.374,406.624h29.989c0.946,0,1.713,0.767,1.713,1.713l0,0c0,0.946-0.767,1.713-1.713,1.713
					h-29.989c-0.946,0-1.713-0.767-1.713-1.713l0,0C337.661,407.391,338.428,406.624,339.374,406.624z"/>
                <path style="fill:#BFA7F2;" d="M334.759,408.337L334.759,408.337c0,0.946-0.767,1.713-1.713,1.713h-6.385
					c-0.946,0-1.713-0.767-1.713-1.713l0,0c0-0.946,0.767-1.713,1.713-1.713h6.385C333.992,406.624,334.759,407.391,334.759,408.337
					z"/>
                <path style="fill:#BFA7F2;" d="M375.888,406.624h3.775c0.946,0,1.713,0.767,1.713,1.713l0,0c0,0.946-0.767,1.713-1.713,1.713
					h-3.775c-0.946,0-1.713-0.767-1.713-1.713l0,0C374.175,407.391,374.942,406.624,375.888,406.624z"/>
                <path style="fill:#BFA7F2;" d="M382.451,416.756L382.451,416.756c0,0.946,0.767,1.713,1.713,1.713h9.048
					c0.946,0,1.713-0.767,1.713-1.713l0,0c0-0.946-0.767-1.713-1.713-1.713h-9.048C383.218,415.043,382.451,415.81,382.451,416.756z
					"/>
                <path style="fill:#BFA7F2;" d="M387.801,406.624h14.426c0.946,0,1.713,0.767,1.713,1.713l0,0c0,0.946-0.767,1.713-1.713,1.713
					h-14.426c-0.946,0-1.713-0.767-1.713-1.713l0,0C386.088,407.391,386.855,406.624,387.801,406.624z"/>
                <path style="fill:#BFA7F2;" d="M408.796,406.624h20.602c0.569,0,1.03,0.461,1.03,1.03v1.366c0,0.569-0.461,1.03-1.03,1.03
					h-20.602c-0.946,0-1.713-0.767-1.713-1.713l0,0C407.083,407.391,407.85,406.624,408.796,406.624z"/>
                <path style="fill:#BFA7F2;" d="M435.959,406.624h0.465c0.946,0,1.713,0.767,1.713,1.713l0,0c0,0.946-0.767,1.713-1.713,1.713
					h-0.465c-0.946,0-1.713-0.767-1.713-1.713l0,0C434.246,407.391,435.012,406.624,435.959,406.624z"/>
                <path style="fill:#BFA7F2;" d="M438.264,416.771L438.264,416.771c0,0.946-0.916,1.713-2.046,1.713h-36.089
					c-1.13,0-2.046-0.767-2.046-1.713l0,0c0-0.946,0.916-1.713,2.046-1.713h36.089C437.348,415.058,438.264,415.825,438.264,416.771
					z"/>
                <path style="fill:#BFA7F2;" d="M379.377,416.771L379.377,416.771c0,0.946-0.55,1.713-1.228,1.713h-35.599
					c-0.678,0-1.228-0.767-1.228-1.713l0,0c0-0.946,0.55-1.713,1.228-1.713h35.599C378.828,415.058,379.377,415.825,379.377,416.771
					z"/>
                <path style="fill:#BFA7F2;" d="M337.655,416.771L337.655,416.771c0,0.946-0.767,1.713-1.713,1.713h-10.499
					c-0.946,0-1.713-0.767-1.713-1.713l0,0c0-0.946,0.767-1.713,1.713-1.713h10.499
					C336.888,415.058,337.655,415.825,337.655,416.771z"/>
                <path style="fill:#BFA7F2;" d="M368.33,425.204L368.33,425.204c0,0.946-0.767,1.713-1.713,1.713h-37.313
					c-0.946,0-1.713-0.767-1.713-1.713l0,0c0-0.946,0.767-1.713,1.713-1.713h37.313C367.563,423.491,368.33,424.258,368.33,425.204z
					"/>
                <path style="fill:#BFA7F2;" d="M428.981,425.204L428.981,425.204c0,0.946-0.767,1.713-1.713,1.713h-28.616
					c-0.946,0-1.713-0.767-1.713-1.713l0,0c0-0.946,0.767-1.713,1.713-1.713h28.616
					C428.214,423.491,428.981,424.258,428.981,425.204z"/>
                <path style="fill:#BFA7F2;" d="M394.879,425.204L394.879,425.204c0,0.946-0.767,1.713-1.713,1.713h-17.401
					c-0.946,0-1.713-0.767-1.713-1.713l0,0c0-0.946,0.767-1.713,1.713-1.713h17.401
					C394.112,423.491,394.879,424.258,394.879,425.204z"/>
                <path style="fill:#BFA7F2;" d="M416.165,433.638L416.165,433.638c0,0.946-0.767,1.713-1.713,1.713h-2.754
					c-0.946,0-1.713-0.767-1.713-1.713l0,0c0-0.946,0.767-1.713,1.713-1.713h2.754C415.398,431.924,416.165,432.691,416.165,433.638
					z"/>
                <path style="fill:#BFA7F2;" d="M423.301,431.924l13.03,0c0.853,0,1.644,0.583,1.781,1.425c0.175,1.073-0.649,2.001-1.69,2.001
					h-13.122c-0.946,0-1.713-0.767-1.713-1.713l0,0C421.588,432.691,422.355,431.924,423.301,431.924z"/>
                <path style="fill:#BFA7F2;" d="M407.696,433.638L407.696,433.638c0,0.946-0.767,1.713-1.713,1.713h-2.296
					c-0.946,0-1.713-0.767-1.713-1.713l0,0c0-0.946,0.767-1.713,1.713-1.713h2.296C406.929,431.924,407.696,432.691,407.696,433.638
					z"/>
                <path style="fill:#BFA7F2;" d="M399.686,433.638L399.686,433.638c0,0.946-0.767,1.713-1.713,1.713h-22.436
					c-0.946,0-1.713-0.767-1.713-1.713l0,0c0-0.946,0.767-1.713,1.713-1.713h22.436
					C398.919,431.924,399.686,432.691,399.686,433.638z"/>
                <path style="fill:#BFA7F2;" d="M370.161,433.638L370.161,433.638c0,0.946-0.767,1.713-1.713,1.713h-8.246
					c-0.946,0-1.713-0.767-1.713-1.713l0,0c0-0.946,0.767-1.713,1.713-1.713h8.246C369.394,431.924,370.161,432.691,370.161,433.638
					z"/>
                <path style="fill:#BFA7F2;" d="M353.453,433.638L353.453,433.638c0,0.946-0.767,1.713-1.713,1.713h-8.475
					c-0.946,0-1.713-0.767-1.713-1.713l0,0c0-0.946,0.767-1.713,1.713-1.713h8.475C352.686,431.924,353.453,432.691,353.453,433.638
					z"/>
                <path style="fill:#BFA7F2;" d="M335.601,433.638L335.601,433.638c0,0.946-0.767,1.713-1.713,1.713h-4.584
					c-0.946,0-1.713-0.767-1.713-1.713l0,0c0-0.946,0.767-1.713,1.713-1.713h4.584C334.834,431.924,335.601,432.691,335.601,433.638
					z"/>
                <path style="fill:#BFA7F2;" d="M418.079,442.071L418.079,442.071c0,0.946-0.767,1.713-1.713,1.713h-21.122
					c-0.946,0-1.713-0.767-1.713-1.713l0,0c0-0.946,0.767-1.713,1.713-1.713h21.122
					C417.312,440.358,418.079,441.125,418.079,442.071z"/>
                <path style="fill:#BFA7F2;" d="M388.7,442.071L388.7,442.071c0,0.946-0.767,1.713-1.713,1.713h-3.211
					c-0.946,0-1.713-0.767-1.713-1.713l0,0c0-0.946,0.767-1.713,1.713-1.713h3.211C387.933,440.358,388.7,441.125,388.7,442.071z"/>
                <path style="fill:#BFA7F2;" d="M375.279,442.071L375.279,442.071c0,0.946-0.767,1.713-1.713,1.713h-16.121
					c-0.946,0-1.713-0.767-1.713-1.713l0,0c0-0.946,0.767-1.713,1.713-1.713h16.121
					C374.512,440.358,375.279,441.125,375.279,442.071z"/>
                <path style="fill:#BFA7F2;" d="M352.258,442.071L352.258,442.071c0,0.946-0.767,1.713-1.713,1.713H337.95
					c-0.946,0-1.713-0.767-1.713-1.713l0,0c0-0.946,0.767-1.713,1.713-1.713h12.595
					C351.491,440.358,352.258,441.125,352.258,442.071z"/>
			</g>
                <g>
				<path style="fill:#BFA7F2;" d="M427.032,446.929c0.197,0,0.394-0.071,0.551-0.216l4.079-3.77l-4.047-4.17
					c-0.313-0.322-0.827-0.329-1.148-0.017c-0.322,0.312-0.329,0.826-0.017,1.148l2.889,2.976l-2.857,2.641
					c-0.329,0.304-0.35,0.818-0.045,1.147C426.596,446.842,426.814,446.929,427.032,446.929z"/>
			</g>
                <g>
				<path style="fill:#BFA7F2;" d="M422.114,446.929c0.197,0,0.394-0.071,0.55-0.216l4.079-3.77l-4.047-4.17
					c-0.313-0.322-0.827-0.329-1.148-0.017c-0.322,0.312-0.329,0.826-0.017,1.148l2.889,2.976l-2.857,2.641
					c-0.329,0.304-0.349,0.818-0.045,1.147C421.677,446.842,421.895,446.929,422.114,446.929z"/>
			</g>
                <g>
				<path style="fill:#BFA7F2;" d="M318.931,404.019c0.219,0,0.436-0.088,0.596-0.261c0.304-0.329,0.284-0.842-0.045-1.147
					l-2.857-2.641l2.889-2.976c0.312-0.321,0.304-0.835-0.017-1.148c-0.321-0.312-0.835-0.304-1.148,0.017l-4.047,4.17l4.079,3.77
					C318.537,403.947,318.734,404.019,318.931,404.019z"/>
			</g>
                <g>
				<path style="fill:#BFA7F2;" d="M323.85,404.019c0.219,0,0.436-0.088,0.596-0.261c0.304-0.329,0.284-0.842-0.045-1.147
					l-2.858-2.641l2.889-2.976c0.312-0.321,0.304-0.835-0.018-1.148c-0.321-0.312-0.835-0.304-1.147,0.017l-4.047,4.17l4.079,3.77
					C323.456,403.947,323.653,404.019,323.85,404.019z"/>
			</g>
		</g>
            <g style="opacity:0.5;">
			<g>
				<path style="fill:#BFA7F2;" d="M102.37,375.776H87.258c-0.946,0-1.713,0.767-1.713,1.713l0,0c0,0.946,0.767,1.713,1.713,1.713
					h15.113c0.946,0,1.713-0.767,1.713-1.713l0,0C104.083,376.543,103.316,375.776,102.37,375.776z"/>
                <path style="fill:#BFA7F2;" d="M123.382,375.776h-11.218c-0.895,0-1.694,0.654-1.779,1.545
					c-0.097,1.022,0.703,1.881,1.705,1.881h11.292c0.946,0,1.713-0.767,1.713-1.713l0,0
					C125.095,376.543,124.328,375.776,123.382,375.776z"/>
                <path style="fill:#BFA7F2;" d="M135.629,377.49L135.629,377.49c0,0.946,0.767,1.713,1.713,1.713h32.965
					c0.946,0,1.713-0.767,1.713-1.713l0,0c0-0.946-0.767-1.713-1.713-1.713h-32.965C136.396,375.776,135.629,376.543,135.629,377.49
					z"/>
                <path style="fill:#BFA7F2;" d="M188.159,375.776h-10.535c-0.946,0-1.713,0.767-1.713,1.713l0,0c0,0.946,0.767,1.713,1.713,1.713
					h10.535c0.946,0,1.713-0.767,1.713-1.713l0,0C189.872,376.543,189.105,375.776,188.159,375.776z"/>
                <path style="fill:#BFA7F2;" d="M177.631,384.21h-29.989c-0.946,0-1.713,0.767-1.713,1.713l0,0c0,0.946,0.767,1.713,1.713,1.713
					h29.989c0.946,0,1.713-0.767,1.713-1.713l0,0C179.344,384.977,178.577,384.21,177.631,384.21z"/>
                <path style="fill:#BFA7F2;" d="M182.246,385.923L182.246,385.923c0,0.946,0.767,1.713,1.713,1.713h6.385
					c0.946,0,1.713-0.767,1.713-1.713l0,0c0-0.946-0.767-1.713-1.713-1.713h-6.385C183.013,384.21,182.246,384.977,182.246,385.923z
					"/>
                <path style="fill:#BFA7F2;" d="M141.117,384.21h-3.775c-0.946,0-1.713,0.767-1.713,1.713l0,0c0,0.946,0.767,1.713,1.713,1.713
					h3.775c0.946,0,1.713-0.767,1.713-1.713l0,0C142.83,384.977,142.063,384.21,141.117,384.21z"/>
                <path style="fill:#BFA7F2;" d="M129.887,384.21h-15.109c-0.946,0-1.713,0.767-1.713,1.713l0,0c0,0.946,0.767,1.713,1.713,1.713
					h15.109c0.569,0,1.03-0.461,1.03-1.03v-1.366C130.917,384.671,130.456,384.21,129.887,384.21z"/>
                <path style="fill:#BFA7F2;" d="M108.209,384.21H87.607c-0.569,0-1.03,0.461-1.03,1.03v1.366c0,0.569,0.461,1.03,1.03,1.03
					h20.602c0.946,0,1.713-0.767,1.713-1.713l0,0C109.922,384.977,109.155,384.21,108.209,384.21z"/>
                <path style="fill:#BFA7F2;" d="M81.046,384.21h-0.465c-0.946,0-1.713,0.767-1.713,1.713l0,0c0,0.946,0.767,1.713,1.713,1.713
					h0.465c0.946,0,1.713-0.767,1.713-1.713l0,0C82.759,384.977,81.993,384.21,81.046,384.21z"/>
                <path style="fill:#BFA7F2;" d="M78.741,394.356L78.741,394.356c0,0.946,0.916,1.713,2.046,1.713h36.089
					c1.13,0,2.046-0.767,2.046-1.713l0,0c0-0.946-0.916-1.713-2.046-1.713H80.787C79.657,392.643,78.741,393.41,78.741,394.356z"/>
                <path style="fill:#BFA7F2;" d="M137.628,394.356L137.628,394.356c0,0.946,0.55,1.713,1.228,1.713h35.599
					c0.678,0,1.228-0.767,1.228-1.713l0,0c0-0.946-0.55-1.713-1.228-1.713h-35.599C138.177,392.643,137.628,393.41,137.628,394.356z
					"/>
                <path style="fill:#BFA7F2;" d="M179.35,394.356L179.35,394.356c0,0.946,0.767,1.713,1.713,1.713h10.499
					c0.946,0,1.713-0.767,1.713-1.713l0,0c0-0.946-0.767-1.713-1.713-1.713h-10.499C180.117,392.643,179.35,393.41,179.35,394.356z"
                />
                <path style="fill:#BFA7F2;" d="M148.675,402.79L148.675,402.79c0,0.946,0.767,1.713,1.713,1.713h37.313
					c0.946,0,1.713-0.767,1.713-1.713l0,0c0-0.946-0.767-1.713-1.713-1.713h-37.313C149.442,401.077,148.675,401.844,148.675,402.79
					z"/>
                <path style="fill:#BFA7F2;" d="M88.024,402.79L88.024,402.79c0,0.946,0.767,1.713,1.713,1.713h28.616
					c0.946,0,1.713-0.767,1.713-1.713l0,0c0-0.946-0.767-1.713-1.713-1.713H89.737C88.791,401.077,88.024,401.844,88.024,402.79z"/>
                <path style="fill:#BFA7F2;" d="M122.126,402.79L122.126,402.79c0,0.946,0.767,1.713,1.713,1.713h17.401
					c0.946,0,1.713-0.767,1.713-1.713l0,0c0-0.946-0.767-1.713-1.713-1.713h-17.401C122.893,401.077,122.126,401.844,122.126,402.79
					z"/>
                <path style="fill:#BFA7F2;" d="M100.84,411.223L100.84,411.223c0,0.946,0.767,1.713,1.713,1.713h2.754
					c0.946,0,1.713-0.767,1.713-1.713l0,0c0-0.946-0.767-1.713-1.713-1.713h-2.754C101.607,409.51,100.84,410.277,100.84,411.223z"
                />
                <path style="fill:#BFA7F2;" d="M95.417,409.51H80.582c-0.946,0-1.713,0.767-1.713,1.713c0,0.946,0.767,1.713,1.713,1.713h14.835
					V409.51z"/>
                <path style="fill:#BFA7F2;" d="M109.309,411.223L109.309,411.223c0,0.946,0.767,1.713,1.713,1.713h2.296
					c0.946,0,1.713-0.767,1.713-1.713l0,0c0-0.946-0.767-1.713-1.713-1.713h-2.296C110.076,409.51,109.309,410.277,109.309,411.223z
					"/>
                <path style="fill:#BFA7F2;" d="M117.319,411.223L117.319,411.223c0,0.946,0.767,1.713,1.713,1.713h22.436
					c0.946,0,1.713-0.767,1.713-1.713l0,0c0-0.946-0.767-1.713-1.713-1.713h-22.436C118.086,409.51,117.319,410.277,117.319,411.223
					z"/>
                <path style="fill:#BFA7F2;" d="M146.844,411.223L146.844,411.223c0,0.946,0.767,1.713,1.713,1.713h8.246
					c0.946,0,1.713-0.767,1.713-1.713l0,0c0-0.946-0.767-1.713-1.713-1.713h-8.246C147.611,409.51,146.844,410.277,146.844,411.223z
					"/>
                <path style="fill:#BFA7F2;" d="M163.552,411.223L163.552,411.223c0,0.946,0.767,1.713,1.713,1.713h8.475
					c0.946,0,1.713-0.767,1.713-1.713l0,0c0-0.946-0.767-1.713-1.713-1.713h-8.475C164.319,409.51,163.552,410.277,163.552,411.223z
					"/>
                <path style="fill:#BFA7F2;" d="M181.404,411.223L181.404,411.223c0,0.946,0.767,1.713,1.713,1.713h4.585
					c0.946,0,1.713-0.767,1.713-1.713l0,0c0-0.946-0.767-1.713-1.713-1.713h-4.585C182.171,409.51,181.404,410.277,181.404,411.223z
					"/>
                <path style="fill:#BFA7F2;" d="M98.926,419.657L98.926,419.657c0,0.946,0.767,1.713,1.713,1.713h21.122
					c0.946,0,1.713-0.767,1.713-1.713l0,0c0-0.946-0.767-1.713-1.713-1.713h-21.122C99.693,417.944,98.926,418.711,98.926,419.657z"
                />
                <path style="fill:#BFA7F2;" d="M128.305,419.657L128.305,419.657c0,0.946,0.767,1.713,1.713,1.713h3.211
					c0.946,0,1.713-0.767,1.713-1.713l0,0c0-0.946-0.767-1.713-1.713-1.713h-3.211C129.072,417.944,128.305,418.711,128.305,419.657
					z"/>
                <path style="fill:#BFA7F2;" d="M141.726,419.657L141.726,419.657c0,0.946,0.767,1.713,1.713,1.713h16.121
					c0.946,0,1.713-0.767,1.713-1.713l0,0c0-0.946-0.767-1.713-1.713-1.713h-16.121
					C142.493,417.944,141.726,418.711,141.726,419.657z"/>
                <path style="fill:#BFA7F2;" d="M164.747,419.657L164.747,419.657c0,0.946,0.767,1.713,1.713,1.713h12.595
					c0.946,0,1.713-0.767,1.713-1.713l0,0c0-0.946-0.767-1.713-1.713-1.713H166.46C165.514,417.944,164.747,418.711,164.747,419.657
					z"/>
			</g>
                <g>
				<path style="fill:#BFA7F2;" d="M75.756,380.781c-0.197,0-0.394-0.071-0.55-0.216l-4.079-3.77l4.047-4.17
					c0.313-0.322,0.827-0.329,1.148-0.017c0.322,0.312,0.329,0.826,0.018,1.147l-2.889,2.976l2.858,2.641
					c0.329,0.304,0.349,0.818,0.045,1.147C76.192,380.693,75.975,380.781,75.756,380.781z"/>
			</g>
                <g>
				<path style="fill:#BFA7F2;" d="M80.675,380.781c-0.197,0-0.394-0.071-0.55-0.216l-4.079-3.77l4.047-4.17
					c0.313-0.322,0.827-0.329,1.148-0.017c0.322,0.312,0.329,0.826,0.017,1.147l-2.889,2.976l2.858,2.641
					c0.329,0.304,0.349,0.818,0.045,1.147C81.111,380.693,80.894,380.781,80.675,380.781z"/>
			</g>
                <g>
				<path style="fill:#BFA7F2;" d="M191.124,424.09c-0.219,0-0.436-0.088-0.596-0.261c-0.304-0.329-0.284-0.842,0.045-1.147
					l2.857-2.641l-2.889-2.976c-0.312-0.321-0.304-0.835,0.017-1.148c0.321-0.312,0.835-0.304,1.148,0.017l4.047,4.17l-4.079,3.77
					C191.518,424.018,191.32,424.09,191.124,424.09z"/>
			</g>
                <g>
				<path style="fill:#BFA7F2;" d="M186.205,424.09c-0.219,0-0.436-0.088-0.596-0.261c-0.304-0.329-0.284-0.842,0.045-1.147
					l2.858-2.641l-2.889-2.976c-0.312-0.321-0.304-0.835,0.017-1.148c0.321-0.312,0.835-0.304,1.148,0.017l4.047,4.17l-4.079,3.77
					C186.599,424.018,186.402,424.09,186.205,424.09z"/>
			</g>
		</g>
            <g style="opacity:0.5;">
			<path style="fill:#BFA7F2;" d="M331.862,76.115H316.75c-0.946,0-1.713,0.767-1.713,1.713l0,0c0,0.946,0.767,1.713,1.713,1.713
				h15.113c0.946,0,1.713-0.767,1.713-1.713l0,0C333.575,76.882,332.808,76.115,331.862,76.115z"/>
                <path style="fill:#BFA7F2;" d="M352.874,76.115h-11.218c-0.895,0-1.694,0.654-1.779,1.545c-0.098,1.022,0.703,1.881,1.705,1.881
				h11.292c0.946,0,1.713-0.767,1.713-1.713l0,0C354.587,76.882,353.82,76.115,352.874,76.115z"/>
                <path style="fill:#BFA7F2;" d="M365.121,77.828L365.121,77.828c0,0.946,0.767,1.713,1.713,1.713h32.965
				c0.946,0,1.713-0.767,1.713-1.713l0,0c0-0.946-0.767-1.713-1.713-1.713h-32.965C365.888,76.115,365.121,76.882,365.121,77.828z"
                />
                <path style="fill:#BFA7F2;" d="M417.651,76.115h-10.535c-0.946,0-1.713,0.767-1.713,1.713l0,0c0,0.946,0.767,1.713,1.713,1.713
				h10.535c0.946,0,1.713-0.767,1.713-1.713l0,0C419.364,76.882,418.597,76.115,417.651,76.115z"/>
                <path style="fill:#BFA7F2;" d="M404.279,84.548H376.98c-0.861,0-1.559,0.767-1.559,1.713l0,0c0,0.946,0.698,1.713,1.559,1.713
				h27.299c0.861,0,1.559-0.767,1.559-1.713l0,0C405.838,85.315,405.14,84.548,404.279,84.548z"/>
                <path style="fill:#BFA7F2;" d="M409.831,86.261L409.831,86.261c0,0.946,0.653,1.713,1.459,1.713h5.439
				c0.806,0,1.459-0.767,1.459-1.713l0,0c0-0.946-0.653-1.713-1.459-1.713h-5.439C410.484,84.548,409.831,85.315,409.831,86.261z"/>
                <path style="fill:#BFA7F2;" d="M370.609,84.548h-3.775c-0.946,0-1.713,0.767-1.713,1.713l0,0c0,0.946,0.767,1.713,1.713,1.713
				h3.775c0.946,0,1.713-0.767,1.713-1.713l0,0C372.322,85.315,371.555,84.548,370.609,84.548z"/>
                <path style="fill:#BFA7F2;" d="M359.379,84.548H344.27c-0.946,0-1.713,0.767-1.713,1.713l0,0c0,0.946,0.767,1.713,1.713,1.713
				h15.109c0.569,0,1.03-0.461,1.03-1.03v-1.366C360.409,85.009,359.948,84.548,359.379,84.548z"/>
                <path style="fill:#BFA7F2;" d="M337.701,84.548h-20.602c-0.569,0-1.03,0.461-1.03,1.03v1.366c0,0.569,0.461,1.03,1.03,1.03
				h20.602c0.946,0,1.713-0.767,1.713-1.713l0,0C339.414,85.315,338.647,84.548,337.701,84.548z"/>
                <path style="fill:#BFA7F2;" d="M310.538,84.548h-0.465c-0.946,0-1.713,0.767-1.713,1.713l0,0c0,0.946,0.767,1.713,1.713,1.713
				h0.465c0.946,0,1.713-0.767,1.713-1.713l0,0C312.251,85.315,311.484,84.548,310.538,84.548z"/>
                <path style="fill:#BFA7F2;" d="M308.233,94.695L308.233,94.695c0,0.946,0.916,1.713,2.046,1.713h36.089
				c1.13,0,2.046-0.767,2.046-1.713l0,0c0-0.946-0.916-1.713-2.046-1.713h-36.089C309.149,92.982,308.233,93.749,308.233,94.695z"/>
                <path style="fill:#BFA7F2;" d="M370.82,92.982h-15.346c-0.946,0-1.713,0.767-1.713,1.713l0,0c0,0.946,0.767,1.713,1.713,1.713
				h15.346c0.946,0,1.713-0.767,1.713-1.713l0,0C372.533,93.749,371.767,92.982,370.82,92.982z"/>
                <path style="fill:#BFA7F2;" d="M379.745,94.695L379.745,94.695c0,0.946,0.767,1.713,1.713,1.713h4.451
				c0.946,0,1.713-0.767,1.713-1.713l0,0c0-0.946-0.767-1.713-1.713-1.713h-4.451C380.512,92.982,379.745,93.749,379.745,94.695z"/>
                <path style="fill:#BFA7F2;" d="M397.138,94.695L397.138,94.695c0,0.946,0.767,1.713,1.713,1.713h17.158
				c0.946,0,1.713-0.767,1.713-1.713l0,0c0-0.946-0.767-1.713-1.713-1.713h-17.158C397.905,92.982,397.138,93.749,397.138,94.695z"
                />
                <path style="fill:#BFA7F2;" d="M378.167,103.128L378.167,103.128c0,0.946,0.767,1.713,1.713,1.713h37.313
				c0.946,0,1.713-0.767,1.713-1.713l0,0c0-0.946-0.767-1.713-1.713-1.713H379.88C378.934,101.415,378.167,102.182,378.167,103.128z
				"/>
                <path style="fill:#BFA7F2;" d="M317.516,103.128L317.516,103.128c0,0.946,0.767,1.713,1.713,1.713h28.616
				c0.946,0,1.713-0.767,1.713-1.713l0,0c0-0.946-0.767-1.713-1.713-1.713h-28.616C318.283,101.415,317.516,102.182,317.516,103.128
				z"/>
                <path style="fill:#BFA7F2;" d="M353.525,103.128L353.525,103.128c0,0.946,0.767,1.713,1.713,1.713h17.401
				c0.946,0,1.713-0.767,1.713-1.713l0,0c0-0.946-0.767-1.713-1.713-1.713h-17.401C354.292,101.415,353.525,102.182,353.525,103.128
				z"/>
                <path style="fill:#BFA7F2;" d="M328.425,111.562L328.425,111.562c0,0.946,0.767,1.713,1.713,1.713h2.753
				c0.946,0,1.713-0.767,1.713-1.713l0,0c0-0.946-0.767-1.713-1.713-1.713h-2.753C329.192,109.849,328.425,110.616,328.425,111.562z
				"/>
                <path style="fill:#BFA7F2;" d="M323.195,109.849l-12.99,0c-0.877,0-1.705,0.596-1.827,1.464
				c-0.149,1.057,0.668,1.962,1.695,1.962h13.122c0.946,0,1.713-0.767,1.713-1.713l0,0
				C324.908,110.616,324.142,109.849,323.195,109.849z"/>
                <path style="fill:#BFA7F2;" d="M338.801,111.562L338.801,111.562c0,0.946,0.767,1.713,1.713,1.713h2.296
				c0.946,0,1.713-0.767,1.713-1.713l0,0c0-0.946-0.767-1.713-1.713-1.713h-2.296C339.568,109.849,338.801,110.616,338.801,111.562z
				"/>
                <path style="fill:#BFA7F2;" d="M346.811,111.562L346.811,111.562c0,0.946,0.767,1.713,1.713,1.713h22.437
				c0.946,0,1.713-0.767,1.713-1.713l0,0c0-0.946-0.767-1.713-1.713-1.713h-22.437C347.578,109.849,346.811,110.616,346.811,111.562
				z"/>
                <path style="fill:#BFA7F2;" d="M376.336,111.562L376.336,111.562c0,0.946,0.767,1.713,1.713,1.713h8.246
				c0.946,0,1.713-0.767,1.713-1.713l0,0c0-0.946-0.767-1.713-1.713-1.713h-8.246C377.103,109.849,376.336,110.616,376.336,111.562z
				"/>
                <path style="fill:#BFA7F2;" d="M393.044,111.562L393.044,111.562c0,0.946,0.767,1.713,1.713,1.713h8.475
				c0.946,0,1.713-0.767,1.713-1.713l0,0c0-0.946-0.767-1.713-1.713-1.713h-8.475C393.811,109.849,393.044,110.616,393.044,111.562z
				"/>
                <path style="fill:#BFA7F2;" d="M409.942,111.562L409.942,111.562c0,0.946,0.767,1.713,1.713,1.713h4.584
				c0.946,0,1.713-0.767,1.713-1.713l0,0c0-0.946-0.767-1.713-1.713-1.713h-4.584C410.709,109.849,409.942,110.616,409.942,111.562z
				"/>
                <path style="fill:#BFA7F2;" d="M328.418,119.995L328.418,119.995c0,0.946,0.767,1.713,1.713,1.713h21.122
				c0.946,0,1.713-0.767,1.713-1.713l0,0c0-0.946-0.767-1.713-1.713-1.713h-21.122C329.185,118.282,328.418,119.049,328.418,119.995
				z"/>
                <path style="fill:#BFA7F2;" d="M357.797,119.995L357.797,119.995c0,0.946,0.767,1.713,1.713,1.713h3.211
				c0.946,0,1.713-0.767,1.713-1.713l0,0c0-0.946-0.767-1.713-1.713-1.713h-3.211C358.564,118.282,357.797,119.049,357.797,119.995z
				"/>
                <path style="fill:#BFA7F2;" d="M373.126,119.995L373.126,119.995c0,0.946,0.767,1.713,1.713,1.713h16.121
				c0.946,0,1.713-0.767,1.713-1.713l0,0c0-0.946-0.767-1.713-1.713-1.713h-16.121C373.893,118.282,373.126,119.049,373.126,119.995
				z"/>
                <path style="fill:#BFA7F2;" d="M403.776,119.995L403.776,119.995c0,0.946,0.767,1.713,1.713,1.713h12.595
				c0.946,0,1.713-0.767,1.713-1.713l0,0c0-0.946-0.767-1.713-1.713-1.713h-12.595C404.543,118.282,403.776,119.049,403.776,119.995
				z"/>
                <g>
				<path style="fill:#BFA7F2;" d="M306.202,82.073c-0.197,0-0.394-0.071-0.55-0.216l-4.079-3.77l4.047-4.17
					c0.313-0.322,0.827-0.329,1.148-0.017c0.322,0.312,0.329,0.826,0.017,1.147l-2.889,2.976l2.857,2.641
					c0.329,0.304,0.35,0.818,0.045,1.147C306.638,81.986,306.42,82.073,306.202,82.073z"/>
			</g>
                <g>
				<path style="fill:#BFA7F2;" d="M311.12,82.073c-0.197,0-0.394-0.071-0.55-0.216l-4.079-3.77l4.047-4.17
					c0.313-0.322,0.827-0.329,1.148-0.017c0.322,0.312,0.329,0.826,0.018,1.147l-2.889,2.976l2.858,2.641
					c0.329,0.304,0.349,0.818,0.045,1.147C311.557,81.986,311.339,82.073,311.12,82.073z"/>
			</g>
                <g>
				<path style="fill:#BFA7F2;" d="M427.292,124.428c-0.219,0-0.436-0.088-0.596-0.261c-0.304-0.329-0.284-0.842,0.045-1.147
					l2.858-2.641l-2.889-2.976c-0.312-0.321-0.304-0.835,0.017-1.147c0.321-0.312,0.835-0.304,1.148,0.017l4.047,4.17l-4.079,3.77
					C427.686,124.357,427.488,124.428,427.292,124.428z"/>
			</g>
                <g>
				<path style="fill:#BFA7F2;" d="M422.373,124.428c-0.219,0-0.436-0.088-0.596-0.261c-0.304-0.329-0.284-0.842,0.045-1.147
					l2.858-2.641l-2.889-2.976c-0.312-0.321-0.304-0.835,0.017-1.147c0.321-0.312,0.835-0.304,1.147,0.017l4.047,4.17l-4.079,3.77
					C422.767,124.357,422.57,124.428,422.373,124.428z"/>
			</g>
		</g>
	</g>
        <g>
		<path style="fill:#7A5CE0;" d="M312.441,224.227c2.332-4.729,3.607-9.84,3.607-15.174c0-24.259-26.336-43.925-58.823-43.925
			c-32.487,0-58.823,19.666-58.823,43.925c0,5.334,1.275,10.445,3.607,15.174C238.55,226.446,275.351,226.525,312.441,224.227z"/>
            <path style="fill:#7A5CE0;" d="M212.774,224.446c10.786,9.29,26.693,15.174,44.451,15.174c17.758,0,33.665-5.884,44.451-15.174
			H212.774z"/>
            <path style="fill:none;stroke:#000000;stroke-linecap:round;stroke-linejoin:round;stroke-miterlimit:10;" d="M212.774,224.832
			c29.165,3.852,58.814,3.733,88.902,0"/>
            <g>
			<path d="M232.436,202.503c0,2.908-2.358,5.266-5.266,5.266c-2.908,0-5.266-2.358-5.266-5.266c0-2.908,2.358-5.266,5.266-5.266
				C230.079,197.237,232.436,199.594,232.436,202.503z"/>
                <path d="M292.544,202.503c0,2.908-2.358,5.266-5.266,5.266c-2.908,0-5.266-2.358-5.266-5.266c0-2.908,2.358-5.266,5.266-5.266
				C290.187,197.237,292.544,199.594,292.544,202.503z"/>
		</g>
            <ellipse style="fill:#CCB5FC;" cx="257.224" cy="180.926" rx="13.743" ry="6.807"/>
            <path style="fill:#7A5CE0;" d="M298.067,319.365v-28.77c0-22.557-18.286-40.842-40.842-40.842h0
			c-22.557,0-40.842,18.286-40.842,40.842v28.77c0,22.557,18.286,40.842,40.842,40.842h0
			C279.781,360.207,298.067,341.921,298.067,319.365z"/>
            <path d="M267.172,250.851h-19.895c-2.805,0-5.079-2.274-5.079-5.079v-2.942c0-2.805,2.274-5.079,5.079-5.079h19.895
			c2.805,0,5.079,2.274,5.079,5.079v2.942C272.251,248.577,269.977,250.851,267.172,250.851z"/>
            <path style="fill:none;stroke:#7A5CE0;stroke-width:7;stroke-miterlimit:10;" d="M272.951,266.941
			c25.564,3.391,50.395,2.613,72.364-8.536c21.969-11.149,30.735-26.71,34.176-54.576"/>
            <path style="fill:none;stroke:#7A5CE0;stroke-width:7;stroke-miterlimit:10;" d="M238.443,268.038
			c-45.553,3.138-81.937,12.663-90.755,62.42"/>
            <path style="fill:none;stroke:#7A5CE0;stroke-width:7;stroke-miterlimit:10;" d="M239.23,266.592h-90.78
			c-10.872,0-19.685-8.813-19.685-19.685V197.53"/>
            <path style="fill:none;stroke:#7A5CE0;stroke-width:7;stroke-miterlimit:10;" d="M284.53,270.601h95.13
			c11.393,0,20.963,4.28,20.963,14.16l-0.335,22.231"/>
            <path style="fill:none;stroke:#7A5CE0;stroke-width:7;stroke-miterlimit:10;" d="M143.397,173.241v8.883
			c0,8.004-6.489,14.493-14.493,14.493l0,0c-8.004,0-14.493-6.489-14.493-14.493v-8.883"/>
            <path style="fill:none;stroke:#7A5CE0;stroke-width:7;stroke-miterlimit:10;" d="M393.983,180.454v8.883
			c0,8.004-6.489,14.493-14.493,14.493h0c-8.004,0-14.493-6.489-14.493-14.493v-8.883"/>
            <path style="fill:none;stroke:#7A5CE0;stroke-width:7;stroke-miterlimit:10;" d="M384.445,328.568l0.577-8.864
			c0.52-7.987,7.416-14.04,15.403-13.521h0c7.987,0.52,14.04,7.416,13.521,15.403l-0.577,8.864"/>
            <path style="fill:none;stroke:#7A5CE0;stroke-width:7;stroke-miterlimit:10;" d="M126.142,350.827l1.856-8.687
			c1.672-7.827,9.373-12.817,17.2-11.145h0c7.827,1.672,12.817,9.373,11.145,17.201l-1.856,8.687"/>
            <g>
			<rect x="90.893" y="142.922" style="fill:#FF9C40;" width="76.671" height="38.703"/>
                <path style="fill:none;stroke:#000000;stroke-linecap:round;stroke-miterlimit:10;" d="M167.563,142.922
				c0,0-35.539,17.521-38.335,19.351l-38.335-19.351"/>
		</g>
            <path style="fill:none;stroke:#7A5CE0;stroke-width:7;stroke-miterlimit:10;" d="M128.904,196.616
			c-8.004,0-14.493-6.489-14.493-14.493v-8.883"/>
            <g>
			<path style="fill:#FF9C40;" d="M373.517,312.241c-0.131-0.225-0.217-0.461-0.317-0.695c-1.861,1.581-3.535,3.322-5.016,5.192
				c0.237,0.098,0.477,0.182,0.706,0.313c2.917,1.665,3.938,5.396,2.279,8.333c-1.658,2.937-5.367,3.968-8.284,2.303
				c-0.202-0.115-0.371-0.262-0.554-0.395c-0.807,2.258-1.394,4.59-1.756,6.962c0.229-0.028,0.454-0.074,0.691-0.076
				c3.355-0.027,6.093,2.689,6.116,6.065c0.022,3.376-2.679,6.135-6.034,6.162c-0.218,0.002-0.424-0.039-0.636-0.06
				c0.411,2.324,1.052,4.629,1.924,6.885c0.177-0.133,0.34-0.278,0.534-0.393c2.894-1.711,6.616-0.739,8.313,2.172
				c1.697,2.911,0.727,6.657-2.168,8.368c-0.182,0.108-0.375,0.174-0.563,0.26c1.543,1.855,3.24,3.529,5.065,5.011
				c0.089-0.208,0.159-0.42,0.273-0.621c1.658-2.938,5.367-3.969,8.284-2.304c2.917,1.665,3.937,5.396,2.28,8.333
				c-0.111,0.197-0.254,0.363-0.382,0.542c2.239,0.824,4.553,1.428,6.908,1.804c-0.03-0.24-0.076-0.476-0.078-0.724
				c-0.022-3.376,2.68-6.135,6.034-6.161c3.355-0.026,6.093,2.689,6.116,6.065c0.002,0.252-0.041,0.493-0.069,0.738
				c2.341-0.406,4.663-1.046,6.936-1.927c-0.164-0.211-0.335-0.414-0.473-0.652c-1.697-2.91-0.727-6.657,2.168-8.368
				c2.894-1.711,6.616-0.739,8.314,2.172c0.142,0.243,0.237,0.498,0.342,0.75c1.893-1.579,3.598-3.321,5.106-5.196
				c-0.277-0.107-0.555-0.213-0.822-0.365c-2.917-1.665-3.938-5.396-2.279-8.333c1.658-2.937,5.367-3.968,8.284-2.303
				c0.267,0.152,0.501,0.34,0.736,0.525c0.846-2.306,1.464-4.693,1.843-7.121c-0.315,0.053-0.631,0.103-0.96,0.105
				c-3.355,0.027-6.093-2.689-6.116-6.065c-0.022-3.376,2.679-6.135,6.034-6.161c0.327-0.002,0.642,0.042,0.956,0.089
				c-0.411-2.403-1.063-4.787-1.967-7.119c-0.254,0.214-0.516,0.423-0.811,0.597c-2.894,1.711-6.616,0.738-8.314-2.172
				c-1.697-2.911-0.727-6.657,2.168-8.368c0.283-0.167,0.578-0.288,0.874-0.404c-1.593-1.919-3.353-3.642-5.246-5.163
				c-0.113,0.31-0.235,0.62-0.403,0.917c-1.658,2.937-5.367,3.968-8.284,2.303c-2.917-1.665-3.937-5.396-2.279-8.333
				c0.156-0.276,0.346-0.519,0.536-0.76c-2.296-0.834-4.67-1.434-7.085-1.798c0.049,0.307,0.098,0.616,0.1,0.937
				c0.022,3.376-2.679,6.135-6.034,6.161c-3.355,0.027-6.093-2.689-6.116-6.065c-0.002-0.296,0.042-0.579,0.081-0.864
				c-2.358,0.427-4.697,1.093-6.984,2.004c0.178,0.225,0.361,0.446,0.509,0.701c1.697,2.911,0.726,6.658-2.168,8.369
				C378.936,316.124,375.214,315.152,373.517,312.241z M411.079,326.087c7.532,7.929,7.329,20.536-0.451,28.103
				c-7.78,7.567-20.236,7.273-27.768-0.656c-7.532-7.929-7.331-20.536,0.449-28.103
				C391.088,317.864,403.547,318.158,411.079,326.087z"/>

                <ellipse transform="matrix(0.0907 -0.9959 0.9959 0.0907 22.4441 704.4612)" style="fill:none;stroke:#000000;stroke-linecap:round;stroke-linejoin:round;stroke-miterlimit:10;" cx="396.975" cy="339.941" rx="23.566" ry="23.416"/>
		</g>
            <path style="fill:none;stroke:#7A5CE0;stroke-width:7;stroke-miterlimit:10;" d="M398.811,306.115
			c0.727,0.047,3.052,0.216,3.743,0.365c6.906,1.487,11.865,7.847,11.392,15.107l-0.577,8.864"/>
            <g>
			<g>
				<path d="M125.765,336.778L125.765,336.778c0.809-1.547,2.719-2.145,4.266-1.336l46.162,24.137
					c1.547,0.809,2.145,2.719,1.336,4.266v0c-0.809,1.547-2.718,2.145-4.265,1.336L127.1,341.043
					C125.554,340.234,124.956,338.325,125.765,336.778z"/>
                <g>
					<defs>
						<path id="SVGID_1_" d="M142.855,339.634l-4.847,9.425c-0.724,1.408-2.452,1.962-3.86,1.238l-5.35-2.751l7.469-14.524
							l5.35,2.751C143.025,336.498,143.579,338.226,142.855,339.634z"/>
					</defs>
                    <clipPath id="SVGID_00000153701484838939416640000004894667479898893716_">
						<use xlink:href="#SVGID_1_"  style="overflow:visible;"/>
					</clipPath>
                    <g style="clip-path:url(#SVGID_00000153701484838939416640000004894667479898893716_);">

							<rect x="129.87" y="337.874" transform="matrix(0.4573 -0.8893 0.8893 0.4573 -230.3555 307.1391)" width="13.225" height="8.883"/>
					</g>
				</g>
                <path d="M101.08,310.133c11.657-6.852,26.661-2.957,33.513,8.7c6.852,11.657,2.957,26.661-8.7,33.513
					c-11.657,6.852-26.661,2.957-33.513-8.7C85.528,331.989,89.423,316.985,101.08,310.133z"/>
                <path style="fill:#FF9C40;" d="M103.436,314.141c9.443-5.551,21.598-2.395,27.149,7.048c5.551,9.443,2.395,21.598-7.048,27.149
					c-9.443,5.551-21.598,2.395-27.149-7.048C90.837,331.847,93.993,319.692,103.436,314.141z"/>
			</g>
                <path style="fill:none;stroke:#000000;stroke-linecap:round;stroke-linejoin:round;stroke-miterlimit:10;" d="M126.546,330.137
				c-0.147-1.938-0.56-3.861-1.316-5.654"/>
                <path style="fill:none;stroke:#000000;stroke-linecap:round;stroke-linejoin:round;stroke-miterlimit:10;" d="M115.478,345.176
				c5.887-1.578,10.588-5.74,11.076-12.06"/>
		</g>
            <path style="fill:none;stroke:#7A5CE0;stroke-width:7;stroke-miterlimit:10;" d="M145.199,330.995
			c7.827,1.672,12.817,9.373,11.145,17.201l-1.856,8.687"/>
            <g>
			<path style="fill:none;stroke:#000000;stroke-linecap:round;stroke-linejoin:round;stroke-miterlimit:10;" d="M259.062,335.141
				h-1.904c-7.135,0-12.919-5.784-12.919-12.919v-32.729c0-7.135,5.784-12.919,12.919-12.919h1.904
				c7.135,0,12.919,5.784,12.919,12.919v32.729C271.981,329.357,266.197,335.141,259.062,335.141z"/>
                <path style="fill:#CCB5FC;" d="M263.761,286.849c0,3.121-2.53,5.651-5.651,5.651c-3.121,0-5.651-2.53-5.651-5.651
				c0-3.121,2.53-5.651,5.651-5.651C261.231,281.198,263.761,283.728,263.761,286.849z"/>
                <path style="fill:#FF9C40;" d="M263.761,303.289c0,3.121-2.53,5.651-5.651,5.651c-3.121,0-5.651-2.53-5.651-5.651
				c0-3.121,2.53-5.651,5.651-5.651C261.231,297.638,263.761,300.168,263.761,303.289z"/>
                <path style="fill:#CCB5FC;" d="M263.761,319.728c0,3.121-2.53,5.651-5.651,5.651c-3.121,0-5.651-2.53-5.651-5.651
				c0-3.121,2.53-5.651,5.651-5.651C261.231,314.077,263.761,316.607,263.761,319.728z"/>
		</g>
            <g>
			<path style="fill:#FF9C40;" d="M408.82,143.714c-10.019-1.28-24.937-8.863-29.145-15.134c-0.387-0.577-1.183-0.554-1.565,0.028
				c-4.112,6.266-18.173,13.719-29.116,15.093c-0.859,0.108-1.545,0.807-1.664,1.72c-0.384,2.945-0.597,7.714-0.624,10.24
				c-0.304,28.822,24.43,40.216,31.195,42.791c0.643,0.245,1.341,0.245,1.985,0c6.765-2.574,31.499-13.962,31.195-42.784
				c-0.027-2.525-0.24-7.292-0.624-10.237C410.341,144.528,409.669,143.823,408.82,143.714z"/>
                <path style="fill:none;stroke:#1C1C1B;stroke-linecap:round;stroke-linejoin:round;stroke-miterlimit:10;" d="M405.788,145.709
				c-9.004-1.15-22.41-7.965-26.192-13.601c-0.348-0.519-1.063-0.498-1.406,0.025c-3.695,5.631-16.332,12.329-26.165,13.564
				c-0.772,0.097-1.388,0.725-1.495,1.546c-0.345,2.647-0.537,6.933-0.561,9.202c-0.273,25.901,21.954,36.141,28.034,38.455
				c0.578,0.22,1.206,0.22,1.784,0c6.079-2.313,28.307-12.547,28.034-38.448c-0.024-2.269-0.216-6.553-0.56-9.2
				C407.154,146.44,406.551,145.807,405.788,145.709z"/>
                <g>
				<circle cx="378.997" cy="160.403" r="6.86"/>
                    <polygon points="384,179.577 380.79,163.159 377.038,163.277 373.966,179.577 				"/>
			</g>
		</g>
            <path style="fill:none;stroke:#7A5CE0;stroke-width:7;stroke-miterlimit:10;" d="M393.983,180.454v8.883
			c0,8.004-6.489,14.493-14.493,14.493h0"/>
	</g>
        <g>
		<g>
			<g>
				<polyline style="fill:none;stroke:#1C1C1B;stroke-linecap:round;stroke-linejoin:round;stroke-miterlimit:10;" points="
					258.566,51.722 250.948,58.754 258.566,65.785 				"/>
                <polyline style="fill:none;stroke:#1C1C1B;stroke-linecap:round;stroke-linejoin:round;stroke-miterlimit:10;" points="
					263.711,51.722 256.094,58.754 263.711,65.785 				"/>
			</g>
            <g>
				<polyline style="fill:none;stroke:#1C1C1B;stroke-linecap:round;stroke-linejoin:round;stroke-miterlimit:10;" points="
					300.55,51.722 308.154,58.754 300.55,65.785 				"/>
			</g>
            <path style="fill:none;stroke:#1C1C1B;stroke-linecap:round;stroke-linejoin:round;stroke-miterlimit:10;" d="M269.779,58.721
				c0,1.592-1.29,2.882-2.882,2.882c-1.592,0-2.882-1.29-2.882-2.882c0-1.592,1.29-2.882,2.882-2.882
				C268.489,55.839,269.779,57.129,269.779,58.721z"/>

            <line style="fill:none;stroke:#1C1C1B;stroke-linecap:round;stroke-linejoin:round;stroke-miterlimit:10;" x1="274.789" y1="58.721" x2="286.077" y2="58.721"/>

            <line style="fill:none;stroke:#1C1C1B;stroke-linecap:round;stroke-linejoin:round;stroke-miterlimit:10;" x1="290.881" y1="58.721" x2="297.606" y2="58.721"/>
		</g>
            <g>
			<path style="fill:none;stroke:#1C1C1B;stroke-linecap:round;stroke-linejoin:round;stroke-miterlimit:10;" d="M380.381,251.864
				c0,1.598,1.313,2.894,2.934,2.894c1.62,0,2.934-1.296,2.934-2.894c0-1.598-1.314-2.894-2.934-2.894
				C381.695,248.969,380.381,250.265,380.381,251.864z"/>

                <line style="fill:none;stroke:#1C1C1B;stroke-linecap:round;stroke-linejoin:round;stroke-miterlimit:10;" x1="417.777" y1="244.409" x2="427.556" y2="256.468"/>

                <line style="fill:none;stroke:#1C1C1B;stroke-linecap:round;stroke-linejoin:round;stroke-miterlimit:10;" x1="411.91" y1="244.409" x2="421.689" y2="256.468"/>

                <line style="fill:none;stroke:#1C1C1B;stroke-linecap:round;stroke-linejoin:round;stroke-miterlimit:10;" x1="409.342" y1="252.112" x2="391.21" y2="252.112"/>
		</g>
            <g>
			<g>
				<path style="fill:#1D1D1B;" d="M69.026,283.431h-7.291v-7.291h7.291V283.431z M62.828,282.338h5.105v-5.105h-5.105V282.338z"/>
			</g>
                <g>
				<path style="fill:#1D1D1B;" d="M86.165,283.431H72.599l7.063-7.93L86.165,283.431z M75.037,282.338h8.819l-4.228-5.155
					L75.037,282.338z"/>
			</g>
                <g>
				<g>

						<rect x="87.347" y="279.067" transform="matrix(0.6993 -0.7148 0.7148 0.6993 -172.0201 150.3095)" style="fill:#1D1D1B;" width="10.593" height="1.093"/>
				</g>
                    <g>

						<rect x="91.652" y="279.067" transform="matrix(0.6992 -0.7149 0.7149 0.6992 -170.7336 153.404)" style="fill:#1D1D1B;" width="10.593" height="1.093"/>
				</g>
			</g>
                <g>
				<path style="fill:#1D1D1B;" d="M106.273,278.82v0.684h-0.291c-0.23,0-0.377,0.129-0.377,0.428v1.968
					c0,0.829-0.444,1.266-1.3,1.266h-0.377v-0.676h0.206c0.444,0,0.65-0.24,0.65-0.667v-1.874c0-0.488,0.145-0.684,0.462-0.787
					c-0.317-0.102-0.462-0.3-0.462-0.788v-1.873c0-0.428-0.206-0.667-0.65-0.667h-0.206v-0.677h0.377c0.856,0,1.3,0.436,1.3,1.267
					v1.967c0,0.3,0.146,0.428,0.377,0.428H106.273z"/>
			</g>
                <g>
				<path style="fill:#1D1D1B;" d="M111.778,283.947c-1.609,0-2.871-1.941-2.871-4.42c0-2.479,1.261-4.42,2.871-4.42
					c1.61,0,2.872,1.941,2.872,4.42C114.65,282.006,113.388,283.947,111.778,283.947z M111.778,276.2
					c-0.841,0-1.778,1.367-1.778,3.327c0,1.96,0.937,3.327,1.778,3.327c0.841,0,1.779-1.367,1.779-3.327
					C113.557,277.567,112.619,276.2,111.778,276.2z"/>
			</g>
                <g>
				<path style="fill:#1D1D1B;" d="M118.663,283.947c-1.609,0-2.871-1.941-2.871-4.42c0-2.479,1.261-4.42,2.871-4.42
					c1.609,0,2.871,1.941,2.871,4.42C121.534,282.006,120.273,283.947,118.663,283.947z M118.663,276.2
					c-0.841,0-1.778,1.367-1.778,3.327c0,1.96,0.937,3.327,1.778,3.327c0.841,0,1.778-1.367,1.778-3.327
					C120.441,277.567,119.504,276.2,118.663,276.2z"/>
			</g>
		</g>
            <g>
			<g>
				<rect x="237.043" y="142.989" style="fill:none;stroke:#1D1D1B;stroke-miterlimit:10;" width="6.856" height="6.856"/>
                <rect x="247.178" y="142.989" style="fill:none;stroke:#1D1D1B;stroke-miterlimit:10;" width="4.033" height="6.856"/>
                <path style="fill:none;stroke:#1D1D1B;stroke-miterlimit:10;" d="M259.101,146.864c0,1.976-1.068,3.577-2.385,3.577
					c-1.317,0-2.385-1.601-2.385-3.577c0-1.976,1.068-3.577,2.385-3.577C258.033,143.287,259.101,144.889,259.101,146.864z"/>
                <polygon style="fill:none;stroke:#1D1D1B;stroke-miterlimit:10;" points="271.025,150.143 263.87,150.143 263.87,142.989
					"/>
                <polygon style="fill:none;stroke:#1D1D1B;stroke-miterlimit:10;" points="290.4,150.143 283.246,150.143 283.246,142.989
					"/>
                <line style="fill:none;stroke:#1D1D1B;stroke-miterlimit:10;" x1="278.373" y1="142.989" x2="274.067" y2="151.038"/>
                <line style="fill:none;stroke:#1D1D1B;stroke-miterlimit:10;" x1="280.671" y1="142.989" x2="276.365" y2="151.038"/>
                <line style="fill:none;stroke:#1D1D1B;stroke-miterlimit:10;" x1="298.2" y1="142.989" x2="293.894" y2="151.038"/>
                <rect x="301.429" y="142.989" style="fill:none;stroke:#1D1D1B;stroke-miterlimit:10;" width="5.067" height="8.048"/>
                <rect x="309.179" y="142.989" style="fill:none;stroke:#1D1D1B;stroke-miterlimit:10;" width="8.216" height="8.048"/>
                <path style="fill:none;stroke:#1D1D1B;stroke-miterlimit:10;" d="M321.898,141.869c1.941,3.769,1.773,8.543-0.429,12.166"/>
                <path style="fill:none;stroke:#1D1D1B;stroke-miterlimit:10;" d="M233.958,139.947c-2.202,3.742-2.907,8.338-1.926,12.567"/>
			</g>
                <polyline style="fill:none;stroke:#1D1D1B;stroke-miterlimit:10;" points="331.536,142.989 326.468,148.355 331.536,151.932
				"/>
                <polyline style="fill:none;stroke:#1D1D1B;stroke-miterlimit:10;" points="222.735,142.095 227.802,147.46 222.735,151.038
				"/>
		</g>
            <g>
			<polyline style="fill:none;stroke:#1D1D1B;stroke-miterlimit:10;" points="245.906,372.505 251.081,377.985 245.906,381.638
				"/>
                <polyline style="fill:none;stroke:#1D1D1B;stroke-miterlimit:10;" points="250.168,372.505 255.343,377.985 250.168,381.638
				"/>
                <path style="fill:none;stroke:#1D1D1B;stroke-miterlimit:10;" d="M264.172,376.767c0,2.354-1.227,4.262-2.74,4.262
				c-1.513,0-2.74-1.908-2.74-4.262s1.227-4.262,2.74-4.262C262.945,372.505,264.172,374.413,264.172,376.767z"/>
                <line style="fill:none;stroke:#1D1D1B;stroke-miterlimit:10;" x1="270.565" y1="373.114" x2="270.565" y2="381.638"/>
                <rect x="274.523" y="373.723" style="fill:none;stroke:#1D1D1B;stroke-miterlimit:10;" width="4.871" height="7.915"/>
                <rect x="283.047" y="373.723" style="fill:none;stroke:#1D1D1B;stroke-miterlimit:10;" width="7.306" height="7.915"/>
                <rect x="293.702" y="373.723" style="fill:none;stroke:#1D1D1B;stroke-miterlimit:10;" width="8.22" height="7.915"/>
                <path style="fill:none;stroke:#1D1D1B;stroke-miterlimit:10;" d="M307.43,370.612c1.039-0.303,2.002,0.826,2.109,1.903
				s-0.304,2.136-0.374,3.216c-0.07,1.08,0.397,2.369,1.456,2.592c-0.579-0.205-1.21,0.294-1.398,0.879
				c-0.188,0.585-0.07,1.217,0.005,1.827c0.145,1.183,0.092,2.464-0.576,3.451c-0.668,0.987-2.116,1.513-3.107,0.85"/>
                <path style="fill:none;stroke:#1D1D1B;stroke-miterlimit:10;" d="M314.381,370.992c1.854,4.418,1.871,9.574,0.049,14.005"/>
                <path style="fill:none;stroke:#1D1D1B;stroke-miterlimit:10;" d="M318.116,370.651c2.389,5.153,2.233,11.415-0.41,16.443"/>
                <path style="fill:none;stroke:#1D1D1B;stroke-miterlimit:10;" d="M240.593,370.612c-1.039-0.303-2.002,0.826-2.109,1.903
				c-0.107,1.077,0.304,2.136,0.374,3.216c0.07,1.08-0.397,2.369-1.456,2.592c0.579-0.205,1.21,0.294,1.398,0.879
				c0.188,0.585,0.07,1.217-0.005,1.827c-0.145,1.183-0.092,2.464,0.576,3.451c0.668,0.987,2.116,1.513,3.107,0.85"/>
                <path style="fill:none;stroke:#1D1D1B;stroke-miterlimit:10;" d="M233.642,370.992c-1.853,4.418-1.871,9.574-0.049,14.005"/>
                <path style="fill:none;stroke:#1D1D1B;stroke-miterlimit:10;" d="M229.907,370.651c-2.389,5.153-2.233,11.415,0.41,16.443"/>
		</g>
            <g>
			<polyline style="fill:none;stroke:#1D1D1B;stroke-miterlimit:10;" points="213.098,435.669 207.704,441.38 213.098,445.188
				"/>
                <polyline style="fill:none;stroke:#1D1D1B;stroke-miterlimit:10;" points="208.656,435.669 203.262,441.38 208.656,445.188
				"/>
                <path style="fill:none;stroke:#1D1D1B;stroke-miterlimit:10;" d="M194.06,440.428c0,2.453,1.278,4.442,2.856,4.442
				s2.856-1.989,2.856-4.442c0-2.453-1.279-4.442-2.856-4.442S194.06,437.975,194.06,440.428z"/>
                <line style="fill:none;stroke:#1D1D1B;stroke-miterlimit:10;" x1="187.397" y1="435.986" x2="187.397" y2="444.87"/>
                <rect x="178.195" y="436.303" style="fill:none;stroke:#1D1D1B;stroke-miterlimit:10;" width="5.077" height="8.25"/>
                <rect x="166.772" y="436.303" style="fill:none;stroke:#1D1D1B;stroke-miterlimit:10;" width="7.615" height="8.25"/>
                <rect x="154.715" y="436.303" style="fill:none;stroke:#1D1D1B;stroke-miterlimit:10;" width="8.567" height="8.25"/>
                <path style="fill:none;stroke:#1D1D1B;stroke-miterlimit:10;" d="M148.974,432.63c-1.083-0.316-2.087,0.861-2.198,1.984
				c-0.111,1.122,0.317,2.226,0.39,3.352c0.073,1.126-0.414,2.469-1.517,2.701c0.604-0.214,1.261,0.307,1.457,0.916
				c0.196,0.609,0.072,1.268-0.005,1.904c-0.151,1.233-0.096,2.568,0.6,3.597c0.697,1.029,2.205,1.576,3.238,0.886"/>
                <path style="fill:none;stroke:#1D1D1B;stroke-miterlimit:10;" d="M141.729,433.129c-1.932,4.605-1.95,9.979-0.051,14.597"/>
                <path style="fill:none;stroke:#1D1D1B;stroke-miterlimit:10;" d="M218.635,432.63c1.083-0.316,2.087,0.861,2.198,1.984
				c0.111,1.122-0.317,2.226-0.39,3.352c-0.073,1.126,0.414,2.469,1.517,2.701c-0.604-0.214-1.261,0.307-1.457,0.916
				c-0.196,0.609-0.072,1.268,0.005,1.904c0.151,1.233,0.096,2.568-0.6,3.597c-0.697,1.029-2.205,1.576-3.238,0.886"/>
		</g>
	</g>
        <g>
		<g>

				<ellipse transform="matrix(0.1596 -0.9872 0.9872 0.1596 -47.5203 603.2665)" style="fill:none;stroke:#7A5CE0;stroke-miterlimit:10;" cx="330.542" cy="329.542" rx="12.441" ry="12.441"/>
            <circle style="fill:#7A5CE0;" cx="330.542" cy="329.542" r="6.873"/>
		</g>
            <g>
			<path style="fill:none;stroke:#7A5CE0;stroke-miterlimit:10;" d="M224.503,122.891h-0.25c-6.126,0-11.092-4.966-11.092-11.092
				V66.114c0-6.126,4.966-11.092,11.092-11.092h0.25c6.126,0,11.092,4.966,11.092,11.092v45.685
				C235.595,117.925,230.629,122.891,224.503,122.891z"/>
                <path style="fill:#7A5CE0;" d="M224.443,117.122h-0.131c-3.206,0-5.806-2.599-5.806-5.806v-44.72
				c0-3.206,2.599-5.806,5.806-5.806h0.131c3.206,0,5.806,2.599,5.806,5.806v44.72C230.249,114.523,227.65,117.122,224.443,117.122z
				"/>
		</g>
            <g>
			<path style="fill:#7A5CE0;" d="M82.802,218.331c-5.518,0-9.991,4.473-9.991,9.991c0,5.518,4.473,9.991,9.991,9.991V218.331z"/>
                <path style="fill:none;stroke:#7A5CE0;stroke-miterlimit:10;" d="M83.099,214.149c-7.827,0-14.173,6.345-14.173,14.173
				s6.345,14.173,14.173,14.173"/>
		</g>
	</g>
</g>
</svg>
