<?xml version="1.0" encoding="utf-8"?>
<!-- Generator: Adobe Illustrator 27.5.0, SVG Export Plug-In . SVG Version: 6.00 Build 0)  -->
<svg version="1.1" xmlns="http://www.w3.org/2000/svg" xmlns:xlink="http://www.w3.org/1999/xlink" x="0px" y="0px"
     viewBox="0 0 499 499" style="enable-background:new 0 0 499 499;" xml:space="preserve">
<g id="BG">
	<rect id="background_155_" x="0" y="0" style="fill:#03062E;" width="499" height="499"/>
</g>
    <g id="OBJECTS">
	<g>
		<linearGradient id="SVGID_1_" gradientUnits="userSpaceOnUse" x1="239.5" y1="368.9963" x2="239.5" y2="130.0037">
			<stop  offset="0.5" style="stop-color:#FFFFFF;stop-opacity:0"/>
            <stop  offset="0.501" style="stop-color:#00FEFF"/>
		</linearGradient>
        <path style="fill:url(#SVGID_1_);" d="M292.511,189.384c5.288,0,9.086,5.315,9.086,10.653v40.344c0,5.315-4.543,9.881-9.086,9.881
			c-4.543,0-9.855-4.566-9.855-9.881v-16.766l-42.399,43.387c-1.899,1.908-4.543,2.851-7.187,2.851
			c-2.668,0-5.312-0.943-7.211-2.851L213,253.305l-33.314,33.483c-1.899,1.908-4.543,2.85-7.211,2.85
			c-2.644,0-5.288-0.942-7.187-2.85c-3.798-3.793-3.798-10.654,0-14.446l40.14-39.57c1.899-1.909,4.543-2.875,7.187-2.875
			c2.644,0,5.312,0.966,7.187,2.875l12.883,12.924l36.342-35.777h-16.657c-5.288,0-9.086-5.315-9.086-9.881
			c0-5.338,4.543-10.653,9.086-10.653H292.511z M371.253,329.426c0,6.836,1.514,20.534-9.831,20.534H116.063
			c-5.288,0-9.831-5.315-9.831-10.653v-9.881H371.253L371.253,329.426z M136.518,130.004c-16.657,0-29.54,12.948-29.54,29.69
			v149.923h-9.831c-5.312,0-9.855,4.59-9.855,9.905v19.785c0,15.992,12.883,29.689,30.285,29.689h244.59
			c16.657,0,29.54-13.697,29.54-29.689v-19.785c-0.745-6.088-5.312-9.905-10.6-9.905h-9.855V159.694
			c0-16.742-13.628-29.69-29.516-29.69H136.518z"/>

        <linearGradient id="SVGID_00000116928240794618314720000011609104529574491043_" gradientUnits="userSpaceOnUse" x1="244.5" y1="368.9963" x2="244.5" y2="130.0037">
			<stop  offset="0.5" style="stop-color:#00FEFF"/>
            <stop  offset="0.501" style="stop-color:#FFFFFF;stop-opacity:0"/>
		</linearGradient>
        <path style="fill:url(#SVGID_00000116928240794618314720000011609104529574491043_);" d="M297.511,189.384
			c5.288,0,9.086,5.315,9.086,10.653v40.344c0,5.315-4.543,9.881-9.086,9.881c-4.543,0-9.855-4.566-9.855-9.881v-16.766
			l-42.399,43.387c-1.899,1.908-4.543,2.851-7.187,2.851c-2.668,0-5.312-0.943-7.211-2.851L218,253.305l-33.314,33.483
			c-1.899,1.908-4.543,2.85-7.211,2.85c-2.644,0-5.288-0.942-7.187-2.85c-3.798-3.793-3.798-10.654,0-14.446l40.14-39.57
			c1.899-1.909,4.543-2.875,7.187-2.875c2.644,0,5.312,0.966,7.187,2.875l12.883,12.924l36.342-35.777h-16.657
			c-5.288,0-9.086-5.315-9.086-9.881c0-5.338,4.543-10.653,9.086-10.653H297.511z M376.253,329.426
			c0,6.836,1.514,20.534-9.831,20.534H121.063c-5.288,0-9.831-5.315-9.831-10.653v-9.881H376.253L376.253,329.426z M141.518,130.004
			c-16.657,0-29.54,12.948-29.54,29.69v149.923h-9.831c-5.312,0-9.855,4.59-9.855,9.905v19.785
			c0,15.992,12.883,29.689,30.285,29.689h244.59c16.657,0,29.54-13.697,29.54-29.689v-19.785c-0.745-6.088-5.312-9.905-10.6-9.905
			h-9.855V159.694c0-16.742-13.628-29.69-29.516-29.69H141.518z"/>

        <linearGradient id="SVGID_00000037653238399492797650000014735853632584977282_" gradientUnits="userSpaceOnUse" x1="259.5" y1="368.9963" x2="259.5" y2="130.0037">
			<stop  offset="0.5" style="stop-color:#FFFFFF;stop-opacity:0"/>
            <stop  offset="0.501" style="stop-color:#FF0034"/>
		</linearGradient>
        <path style="fill:url(#SVGID_00000037653238399492797650000014735853632584977282_);" d="M312.511,189.384
			c5.288,0,9.086,5.315,9.086,10.653v40.344c0,5.315-4.543,9.881-9.086,9.881c-4.543,0-9.855-4.566-9.855-9.881v-16.766
			l-42.399,43.387c-1.899,1.908-4.543,2.851-7.187,2.851c-2.668,0-5.312-0.943-7.211-2.851L233,253.305l-33.314,33.483
			c-1.899,1.908-4.543,2.85-7.211,2.85c-2.644,0-5.288-0.942-7.187-2.85c-3.798-3.793-3.798-10.654,0-14.446l40.14-39.57
			c1.899-1.909,4.543-2.875,7.187-2.875c2.644,0,5.312,0.966,7.187,2.875l12.883,12.924l36.342-35.777h-16.657
			c-5.288,0-9.086-5.315-9.086-9.881c0-5.338,4.543-10.653,9.086-10.653H312.511z M391.253,329.426
			c0,6.836,1.514,20.534-9.831,20.534H136.063c-5.288,0-9.831-5.315-9.831-10.653v-9.881H391.253L391.253,329.426z M156.518,130.004
			c-16.657,0-29.54,12.948-29.54,29.69v149.923h-9.831c-5.312,0-9.855,4.59-9.855,9.905v19.785
			c0,15.992,12.883,29.689,30.285,29.689h244.59c16.657,0,29.54-13.697,29.54-29.689v-19.785c-0.745-6.088-5.312-9.905-10.6-9.905
			h-9.855V159.694c0-16.742-13.628-29.69-29.516-29.69H156.518z"/>

        <linearGradient id="SVGID_00000101823967246579938220000004366544014895952299_" gradientUnits="userSpaceOnUse" x1="225.5" y1="368.9963" x2="225.5" y2="130.0037">
			<stop  offset="0.5" style="stop-color:#FF0034"/>
            <stop  offset="0.501" style="stop-color:#FFFFFF;stop-opacity:0"/>
		</linearGradient>
        <path style="fill:url(#SVGID_00000101823967246579938220000004366544014895952299_);" d="M278.511,189.384
			c5.288,0,9.086,5.315,9.086,10.653v40.344c0,5.315-4.543,9.881-9.086,9.881c-4.543,0-9.855-4.566-9.855-9.881v-16.766
			l-42.399,43.387c-1.899,1.908-4.543,2.851-7.187,2.851c-2.668,0-5.312-0.943-7.211-2.851L199,253.305l-33.314,33.483
			c-1.899,1.908-4.543,2.85-7.211,2.85c-2.644,0-5.288-0.942-7.187-2.85c-3.798-3.793-3.798-10.654,0-14.446l40.14-39.57
			c1.899-1.909,4.543-2.875,7.187-2.875c2.644,0,5.312,0.966,7.187,2.875l12.883,12.924l36.342-35.777h-16.657
			c-5.288,0-9.086-5.315-9.086-9.881c0-5.338,4.543-10.653,9.086-10.653H278.511z M357.253,329.426
			c0,6.836,1.514,20.534-9.831,20.534H102.063c-5.288,0-9.831-5.315-9.831-10.653v-9.881H357.253L357.253,329.426z M122.518,130.004
			c-16.657,0-29.54,12.948-29.54,29.69v149.923h-9.831c-5.312,0-9.855,4.59-9.855,9.905v19.785
			c0,15.992,12.883,29.689,30.285,29.689h244.59c16.657,0,29.54-13.697,29.54-29.689v-19.785c-0.745-6.088-5.312-9.905-10.6-9.905
			h-9.855V159.694c0-16.742-13.628-29.69-29.516-29.69H122.518z"/>

        <linearGradient id="SVGID_00000136394999854182525640000017834492684545653414_" gradientUnits="userSpaceOnUse" x1="249.5" y1="364.9963" x2="249.5" y2="126.0037">
			<stop  offset="0.5" style="stop-color:#FFFFFF;stop-opacity:0"/>
            <stop  offset="0.501" style="stop-color:#FFFFFF"/>
		</linearGradient>
        <path style="fill:url(#SVGID_00000136394999854182525640000017834492684545653414_);" d="M302.511,185.384
			c5.288,0,9.086,5.315,9.086,10.653v40.344c0,5.315-4.543,9.881-9.086,9.881c-4.543,0-9.855-4.566-9.855-9.881v-16.766
			l-42.399,43.387c-1.899,1.908-4.543,2.851-7.187,2.851c-2.668,0-5.312-0.943-7.211-2.851L223,249.305l-33.314,33.483
			c-1.899,1.908-4.543,2.85-7.211,2.85c-2.644,0-5.288-0.942-7.187-2.85c-3.798-3.793-3.798-10.654,0-14.446l40.14-39.57
			c1.899-1.909,4.543-2.875,7.187-2.875c2.644,0,5.312,0.966,7.187,2.875l12.883,12.924l36.342-35.777h-16.657
			c-5.288,0-9.086-5.315-9.086-9.881c0-5.338,4.543-10.653,9.086-10.653H302.511z M381.253,325.426
			c0,6.836,1.514,20.534-9.831,20.534H126.063c-5.288,0-9.831-5.315-9.831-10.653v-9.881H381.253L381.253,325.426z M146.518,126.004
			c-16.657,0-29.54,12.948-29.54,29.69v149.923h-9.831c-5.312,0-9.855,4.59-9.855,9.905v19.785
			c0,15.992,12.883,29.689,30.285,29.689h244.59c16.657,0,29.54-13.697,29.54-29.689v-19.785c-0.745-6.088-5.312-9.905-10.6-9.905
			h-9.855V155.694c0-16.742-13.628-29.69-29.516-29.69H146.518z"/>

        <linearGradient id="SVGID_00000035508157087161043910000000120706278356076204_" gradientUnits="userSpaceOnUse" x1="235.1" y1="369.9963" x2="235.1" y2="131.0037">
			<stop  offset="0.5" style="stop-color:#FFFFFF"/>
            <stop  offset="0.501" style="stop-color:#FFFFFF;stop-opacity:0"/>
		</linearGradient>
        <path style="fill:url(#SVGID_00000035508157087161043910000000120706278356076204_);" d="M288.111,190.384
			c5.288,0,9.086,5.315,9.086,10.653v40.344c0,5.315-4.543,9.881-9.086,9.881c-4.543,0-9.855-4.566-9.855-9.881v-16.766
			l-42.399,43.387c-1.899,1.908-4.543,2.851-7.187,2.851c-2.668,0-5.312-0.943-7.211-2.851L208.6,254.305l-33.314,33.483
			c-1.899,1.908-4.543,2.85-7.211,2.85c-2.644,0-5.288-0.942-7.187-2.85c-3.798-3.793-3.798-10.654,0-14.446l40.14-39.57
			c1.899-1.909,4.543-2.875,7.187-2.875c2.644,0,5.312,0.966,7.187,2.875l12.883,12.924l36.342-35.777h-16.657
			c-5.288,0-9.086-5.315-9.086-9.881c0-5.338,4.543-10.653,9.086-10.653H288.111z M366.853,330.426
			c0,6.836,1.514,20.534-9.831,20.534H111.663c-5.288,0-9.831-5.315-9.831-10.653v-9.881H366.853L366.853,330.426z M132.118,131.004
			c-16.657,0-29.54,12.948-29.54,29.69v149.923h-9.831c-5.312,0-9.855,4.59-9.855,9.905v19.785
			c0,15.992,12.883,29.689,30.285,29.689h244.59c16.657,0,29.54-13.697,29.54-29.689v-19.785c-0.745-6.088-5.312-9.905-10.6-9.905
			h-9.855V160.694c0-16.742-13.628-29.69-29.516-29.69H132.118z"/>

        <linearGradient id="SVGID_00000129914857757835745450000013803823426510046368_" gradientUnits="userSpaceOnUse" x1="163.5" y1="367.9963" x2="163.5" y2="129.0037">
			<stop  offset="0.059" style="stop-color:#03062E;stop-opacity:0"/>
            <stop  offset="0.06" style="stop-color:#03062E"/>
            <stop  offset="0.08" style="stop-color:#03062E"/>
            <stop  offset="0.081" style="stop-color:#03062E;stop-opacity:0"/>
		</linearGradient>
        <path style="fill:url(#SVGID_00000129914857757835745450000013803823426510046368_);" d="M216.511,188.384
			c5.288,0,9.086,5.315,9.086,10.653v40.344c0,5.315-4.543,9.881-9.086,9.881s-9.855-4.566-9.855-9.881v-16.766l-42.399,43.387
			c-1.899,1.908-4.543,2.851-7.187,2.851c-2.668,0-5.312-0.943-7.211-2.851L137,252.305l-33.314,33.483
			c-1.899,1.908-4.543,2.85-7.211,2.85c-2.644,0-5.288-0.942-7.187-2.85c-3.798-3.793-3.798-10.654,0-14.446l40.14-39.57
			c1.899-1.909,4.543-2.875,7.187-2.875c2.644,0,5.312,0.966,7.187,2.875l12.883,12.924l36.342-35.777h-16.657
			c-5.288,0-9.086-5.315-9.086-9.881c0-5.338,4.543-10.653,9.086-10.653H216.511z M295.253,328.426
			c0,6.836,1.514,20.534-9.831,20.534H40.063c-5.288,0-9.831-5.315-9.831-10.653v-9.881H295.253L295.253,328.426z M60.518,129.004
			c-16.657,0-29.54,12.948-29.54,29.69v149.923h-9.831c-5.312,0-9.855,4.59-9.855,9.905v19.785
			c0,15.992,12.883,29.689,30.285,29.689h244.59c16.657,0,29.54-13.697,29.54-29.689v-19.785c-0.745-6.088-5.312-9.905-10.6-9.905
			h-9.855V158.694c0-16.742-13.628-29.69-29.516-29.69H60.518z"/>

        <linearGradient id="SVGID_00000106138899950402657470000001200321898385795772_" gradientUnits="userSpaceOnUse" x1="316.5" y1="394.9963" x2="316.5" y2="156.0037">
			<stop  offset="0.589" style="stop-color:#03062E;stop-opacity:0"/>
            <stop  offset="0.59" style="stop-color:#03062E"/>
            <stop  offset="0.61" style="stop-color:#03062E"/>
            <stop  offset="0.61" style="stop-color:#03062E;stop-opacity:0"/>
		</linearGradient>
        <path style="fill:url(#SVGID_00000106138899950402657470000001200321898385795772_);" d="M369.511,215.384
			c5.288,0,9.086,5.315,9.086,10.653v40.344c0,5.315-4.543,9.881-9.086,9.881c-4.543,0-9.855-4.566-9.855-9.881v-16.766
			l-42.399,43.387c-1.899,1.908-4.543,2.851-7.187,2.851c-2.668,0-5.312-0.943-7.211-2.851L290,279.305l-33.314,33.483
			c-1.899,1.908-4.543,2.85-7.211,2.85c-2.644,0-5.288-0.942-7.187-2.85c-3.798-3.793-3.798-10.654,0-14.446l40.14-39.57
			c1.899-1.909,4.543-2.875,7.187-2.875c2.644,0,5.312,0.966,7.187,2.875l12.883,12.924l36.342-35.777h-16.657
			c-5.288,0-9.086-5.315-9.086-9.881c0-5.338,4.543-10.653,9.086-10.653H369.511z M448.253,355.426
			c0,6.836,1.514,20.534-9.831,20.534H193.063c-5.288,0-9.831-5.315-9.831-10.653v-9.881H448.253L448.253,355.426z M213.518,156.004
			c-16.657,0-29.54,12.948-29.54,29.69v149.923h-9.831c-5.312,0-9.855,4.59-9.855,9.905v19.785
			c0,15.992,12.883,29.689,30.285,29.689h244.59c16.657,0,29.54-13.697,29.54-29.689v-19.785c-0.745-6.088-5.312-9.905-10.6-9.905
			h-9.855V185.694c0-16.742-13.628-29.69-29.516-29.69H213.518z"/>

        <linearGradient id="SVGID_00000041254158513397894030000012083795002520011683_" gradientUnits="userSpaceOnUse" x1="208.5" y1="404.9963" x2="208.5" y2="166.0037">
			<stop  offset="0.329" style="stop-color:#00FEFF;stop-opacity:0"/>
            <stop  offset="0.33" style="stop-color:#00FEFF"/>
            <stop  offset="0.35" style="stop-color:#00FEFF"/>
            <stop  offset="0.351" style="stop-color:#00FEFF;stop-opacity:0"/>
            <stop  offset="0.809" style="stop-color:#00FEFF;stop-opacity:0"/>
            <stop  offset="0.81" style="stop-color:#00FEFF"/>
            <stop  offset="0.83" style="stop-color:#00FEFF"/>
            <stop  offset="0.831" style="stop-color:#00FEFF;stop-opacity:0"/>
		</linearGradient>
        <path style="fill:url(#SVGID_00000041254158513397894030000012083795002520011683_);" d="M261.511,225.384
			c5.288,0,9.086,5.315,9.086,10.653v40.344c0,5.315-4.543,9.881-9.086,9.881c-4.543,0-9.855-4.566-9.855-9.881v-16.766
			l-42.399,43.387c-1.899,1.908-4.543,2.851-7.187,2.851c-2.668,0-5.312-0.943-7.211-2.851L182,289.305l-33.314,33.483
			c-1.899,1.908-4.543,2.85-7.211,2.85c-2.644,0-5.288-0.942-7.187-2.85c-3.798-3.793-3.798-10.654,0-14.446l40.14-39.57
			c1.899-1.909,4.543-2.875,7.187-2.875c2.644,0,5.312,0.966,7.187,2.875l12.883,12.924l36.342-35.777h-16.657
			c-5.288,0-9.086-5.315-9.086-9.881c0-5.338,4.543-10.653,9.086-10.653H261.511z M340.253,365.426
			c0,6.836,1.514,20.534-9.831,20.534H85.063c-5.288,0-9.831-5.315-9.831-10.653v-9.881H340.253L340.253,365.426z M105.518,166.004
			c-16.657,0-29.54,12.948-29.54,29.69v149.923h-9.831c-5.312,0-9.855,4.59-9.855,9.905v19.785
			c0,15.992,12.883,29.689,30.285,29.689h244.59c16.657,0,29.54-13.697,29.54-29.689v-19.785c-0.745-6.088-5.312-9.905-10.6-9.905
			h-9.855V195.694c0-16.742-13.628-29.69-29.516-29.69H105.518z"/>

        <linearGradient id="SVGID_00000147914574239662725070000016336941430492128387_" gradientUnits="userSpaceOnUse" x1="292.5" y1="342.9963" x2="292.5" y2="104.0037">
			<stop  offset="0.329" style="stop-color:#FF0034;stop-opacity:0"/>
            <stop  offset="0.33" style="stop-color:#FF0034"/>
            <stop  offset="0.35" style="stop-color:#FF0034"/>
            <stop  offset="0.351" style="stop-color:#FF0034;stop-opacity:0"/>
            <stop  offset="0.809" style="stop-color:#FF0034;stop-opacity:0"/>
            <stop  offset="0.81" style="stop-color:#FF0034"/>
            <stop  offset="0.83" style="stop-color:#FF0034"/>
            <stop  offset="0.831" style="stop-color:#FF0034;stop-opacity:0"/>
		</linearGradient>
        <path style="fill:url(#SVGID_00000147914574239662725070000016336941430492128387_);" d="M345.511,163.384
			c5.288,0,9.086,5.315,9.086,10.653v40.344c0,5.315-4.543,9.881-9.086,9.881c-4.543,0-9.855-4.566-9.855-9.881v-16.766
			l-42.399,43.387c-1.899,1.908-4.543,2.851-7.187,2.851c-2.668,0-5.312-0.943-7.211-2.851L266,227.305l-33.314,33.483
			c-1.899,1.908-4.543,2.85-7.211,2.85c-2.644,0-5.288-0.942-7.187-2.85c-3.798-3.793-3.798-10.654,0-14.446l40.14-39.57
			c1.899-1.909,4.543-2.875,7.187-2.875c2.644,0,5.312,0.966,7.187,2.875l12.883,12.924l36.342-35.777h-16.657
			c-5.288,0-9.086-5.315-9.086-9.881c0-5.338,4.543-10.653,9.086-10.653H345.511z M424.253,303.426
			c0,6.836,1.514,20.534-9.831,20.534H169.063c-5.288,0-9.831-5.315-9.831-10.653v-9.881H424.253L424.253,303.426z M189.518,104.004
			c-16.657,0-29.54,12.948-29.54,29.69v149.923h-9.831c-5.312,0-9.855,4.59-9.855,9.905v19.785
			c0,15.992,12.883,29.689,30.285,29.689h244.59c16.657,0,29.54-13.697,29.54-29.689v-19.785c-0.745-6.088-5.312-9.905-10.6-9.905
			h-9.855V133.694c0-16.742-13.628-29.69-29.516-29.69H189.518z"/>

        <linearGradient id="SVGID_00000010994159711797552970000014458225308835435707_" gradientUnits="userSpaceOnUse" x1="278.5" y1="385.9963" x2="278.5" y2="147.0037">
			<stop  offset="0.219" style="stop-color:#FFFFFF;stop-opacity:0"/>
            <stop  offset="0.22" style="stop-color:#FFFFFF"/>
            <stop  offset="0.24" style="stop-color:#FFFFFF"/>
            <stop  offset="0.241" style="stop-color:#FFFFFF;stop-opacity:0"/>
		</linearGradient>
        <path style="fill:url(#SVGID_00000010994159711797552970000014458225308835435707_);" d="M331.511,206.384
			c5.288,0,9.086,5.315,9.086,10.653v40.344c0,5.315-4.543,9.881-9.086,9.881c-4.543,0-9.855-4.566-9.855-9.881v-16.766
			l-42.399,43.387c-1.899,1.908-4.543,2.851-7.187,2.851c-2.668,0-5.312-0.943-7.211-2.851L252,270.305l-33.314,33.483
			c-1.899,1.908-4.543,2.85-7.211,2.85c-2.644,0-5.288-0.942-7.187-2.85c-3.798-3.793-3.798-10.654,0-14.446l40.14-39.57
			c1.899-1.909,4.543-2.875,7.187-2.875c2.644,0,5.312,0.966,7.187,2.875l12.883,12.924l36.342-35.777h-16.657
			c-5.288,0-9.086-5.315-9.086-9.881c0-5.338,4.543-10.653,9.086-10.653H331.511z M410.253,346.426
			c0,6.836,1.514,20.534-9.831,20.534H155.063c-5.288,0-9.831-5.315-9.831-10.653v-9.881H410.253L410.253,346.426z M175.518,147.004
			c-16.657,0-29.54,12.948-29.54,29.69v149.923h-9.831c-5.312,0-9.855,4.59-9.855,9.905v19.785
			c0,15.992,12.883,29.689,30.285,29.689h244.59c16.657,0,29.54-13.697,29.54-29.689v-19.785c-0.745-6.088-5.312-9.905-10.6-9.905
			h-9.855V176.694c0-16.742-13.628-29.69-29.516-29.69H175.518z"/>

        <linearGradient id="SVGID_00000018930011788408578490000006001205180304156593_" gradientUnits="userSpaceOnUse" x1="193.5" y1="368.9963" x2="193.5" y2="130.0037">
			<stop  offset="0.449" style="stop-color:#FFFFFF;stop-opacity:0"/>
            <stop  offset="0.45" style="stop-color:#FFFFFF"/>
            <stop  offset="0.46" style="stop-color:#FFFFFF"/>
            <stop  offset="0.461" style="stop-color:#FFFFFF;stop-opacity:0"/>
            <stop  offset="0.889" style="stop-color:#FFFFFF;stop-opacity:0"/>
            <stop  offset="0.89" style="stop-color:#FFFFFF"/>
            <stop  offset="0.9" style="stop-color:#FFFFFF"/>
            <stop  offset="0.901" style="stop-color:#FFFFFF;stop-opacity:0"/>
		</linearGradient>
        <path style="fill:url(#SVGID_00000018930011788408578490000006001205180304156593_);" d="M246.511,189.384
			c5.288,0,9.086,5.315,9.086,10.653v40.344c0,5.315-4.543,9.881-9.086,9.881s-9.855-4.566-9.855-9.881v-16.766l-42.399,43.387
			c-1.899,1.908-4.543,2.851-7.187,2.851c-2.668,0-5.312-0.943-7.211-2.851L167,253.305l-33.314,33.483
			c-1.899,1.908-4.543,2.85-7.211,2.85c-2.644,0-5.288-0.942-7.187-2.85c-3.798-3.793-3.798-10.654,0-14.446l40.14-39.57
			c1.899-1.909,4.543-2.875,7.187-2.875c2.644,0,5.312,0.966,7.187,2.875l12.883,12.924l36.342-35.777h-16.657
			c-5.288,0-9.086-5.315-9.086-9.881c0-5.338,4.543-10.653,9.086-10.653H246.511z M325.253,329.426
			c0,6.836,1.514,20.534-9.831,20.534H70.063c-5.288,0-9.831-5.315-9.831-10.653v-9.881H325.253L325.253,329.426z M90.518,130.004
			c-16.657,0-29.54,12.948-29.54,29.69v149.923h-9.831c-5.312,0-9.855,4.59-9.855,9.905v19.785
			c0,15.992,12.883,29.689,30.285,29.689h244.59c16.657,0,29.54-13.697,29.54-29.689v-19.785c-0.745-6.088-5.312-9.905-10.6-9.905
			h-9.855V159.694c0-16.742-13.628-29.69-29.516-29.69H90.518z"/>
	</g>
</g>
</svg>
