<?xml version="1.0" encoding="utf-8"?>
<!-- Generator: Adobe Illustrator 27.5.0, SVG Export Plug-In . SVG Version: 6.00 Build 0)  -->
<svg version="1.1" xmlns="http://www.w3.org/2000/svg" xmlns:xlink="http://www.w3.org/1999/xlink" x="0px" y="0px"
     viewBox="0 0 2000 2000" style="enable-background:new 0 0 2000 2000;" xml:space="preserve">
<g id="Layer_2">
</g>
    <g id="Layer_1">
	<g>
		<path style="fill:#4E68EC;" d="M632.415,736.486c-3.428,0.953-2.996,3.939-3.38,5.968c-1.08,5.704-1.791,11.485-2.463,17.257
			c-2.796,24.018-5.773,48.018-8.198,72.074c-1.898,18.831-3.218,37.724-4.546,56.607c-1.301,18.517-2.387,37.051-3.382,55.588
			c-0.894,16.672-1.562,33.357-2.279,50.038c-0.427,9.937-0.815,19.876-1.118,29.817c-0.43,14.075-0.786,28.152-1.137,42.229
			c-0.271,10.886-0.687,21.774-0.668,32.66c0.018,10.513-4.624,18.474-13.045,24.073c-7.332,4.875-15.038,9.247-22.842,13.34
			c-23.284,12.21-46.618,24.33-70.08,36.193c-26.144,13.219-52.324,26.379-78.719,39.086c-28.069,13.513-56.503,26.252-86,36.41
			c-17.057,5.874-34.431,10.785-52.465,12.245c-14.319,1.159-28.591,0.379-41.604-6.969c-13.414-7.575-21.722-19.332-27.049-33.442
			c-4.278-11.331-6.478-23.166-7.072-35.186c-0.677-13.687-1.349-27.45-0.648-41.11c0.833-16.256,2.728-32.49,4.874-48.64
			c4.351-32.757,12.103-64.902,18.09-97.366c4.795-26.002,8.837-52.148,12.909-78.277c4.966-31.863,9.605-63.777,14.421-95.663
			c0.269-1.783,0.868-3.516,1.464-5.87c8.919,6.033,17.787,2.629,27.06,1.258c-0.304,1.593-0.267,2.725-0.726,3.595
			c-4.75,8.996-6.356,18.831-7.348,28.733c-1.736,17.343-2.841,34.752-4.672,52.084c-1.971,18.666-5.504,37.091-9.328,55.473
			c-2.824,13.575-4.948,27.297-7.224,40.98c-0.413,2.484-0.059,5.096-0.059,7.544c2.659,0.617,3.118-0.796,3.329-2.385
			c0.518-3.901,0.791-7.846,1.512-11.708c2.994-16.034,6.017-32.064,9.22-48.058c3.391-16.938,5.912-33.986,7.396-51.199
			c1.4-16.243,2.833-32.486,4.511-48.702c0.992-9.586,3.029-18.954,9.143-26.824c1.092-1.405,2.486-2.881,4.067-3.553
			c25.038-10.644,50.101-21.229,75.216-31.69c20.951-8.727,42.06-17.08,62.941-25.969c14.87-6.33,29.076-14.02,42.597-22.924
			c1.348-0.887,2.801-1.614,4.687-2.69c1.434,5.02,1.024,9.452,0.544,13.814c-3.621,32.915-11.379,65.039-19.109,97.134
			c-9.23,38.322-19.115,76.486-28.668,114.73c-3.243,12.983-4.651,26.21-4.969,39.575c-0.327,13.701-0.343,27.427-1.225,41.094
			c-1.103,17.092-3.93,33.91-10.954,49.764c-1.238,2.793-2.033,5.783-3.037,8.697c3.054,1.219,3.676-0.476,4.362-2.001
			c5.962-13.256,10.336-26.978,12.139-41.455c1.696-13.616,2.4-27.274,2.388-41.004c-0.021-26.024,3.111-51.615,10.87-76.584
			c2.837-9.13,4.867-18.516,7.091-27.828c0.818-3.427,2.282-6.036,5.229-8.227c15.048-11.185,27.14-25.286,38.852-39.778
			c4.948-6.122,10.344-11.891,15.691-17.677c6.775-7.331,14.978-12.741,24.599-15.234c13.978-3.622,23.99-12.117,31.391-23.988
			c9.934-15.934,19.449-32.13,29.371-48.072c4.953-7.958,10.093-15.841,15.716-23.331c8.204-10.927,19.359-18.346,31.721-23.7
			c23.074-9.993,46.409-19.382,69.497-29.343c13.246-5.715,26.221-12.059,39.315-18.128c0.674-0.313,1.384-0.609,1.963-1.06
			c14.8-11.544,29.712-22.95,44.335-34.715c13.303-10.703,26.242-21.856,39.45-32.679c2.888-2.366,6.198-4.23,9.391-6.202
			c0.872-0.539,2.023-0.627,3.642-1.094c0.252,2.592,0.603,4.752,0.651,6.918c0.302,13.771-2.06,27.289-4.089,40.825
			c-4.657,31.071-12.984,61.3-21.276,91.527c-8.696,31.702-15.756,63.75-21.451,96.13c-5.557,31.599-9.896,63.352-13.076,95.263
			c-1.839,18.462-3.314,36.964-4.692,55.467c-0.711,9.539-0.927,19.118-1.236,28.683c-0.443,13.699-0.916,27.4-1.112,41.104
			c-0.354,24.808-0.539,49.618-0.745,74.428c-0.174,20.873-0.195,41.748-0.437,62.62c-0.281,24.236-0.706,48.471-1.114,72.706
			c-0.339,20.098-0.694,40.196-1.14,60.292c-0.279,12.575-0.472,25.161-1.176,37.715c-1.301,23.211-2.478,46.444-4.558,69.591
			c-3.648,40.59-9.722,80.828-20.146,120.301c-7.962,30.152-16.987,59.979-29.436,88.625c-3.804,8.753-8.34,17.246-13.192,25.474
			c-11.328,19.207-28.223,30.971-50.124,34.893c-11.039,1.976-22.277,3.19-33.477,3.832c-13.841,0.794-27.769,0.155-41.596,1.084
			c-7.326,0.492-14.568,0.1-21.842,0.102c-3.533,0.001-7.117-0.457-10.589-1.155c-9.887-1.986-14.345-7.018-14.271-17.206
			c0.06-8.227,0.477-16.56,1.873-24.649c4.573-26.485,11.916-52.333,19.213-78.159c13.674-48.391,27.702-96.683,41.47-145.048
			c6.478-22.756,11.965-45.773,14.993-69.253c1.604-12.442,2.431-25.035,2.734-37.581c0.377-15.594,0.181-31.221-0.382-46.811
			c-0.527-14.601-1.863-29.173-2.83-43.759c-0.534-8.047-1.01-16.097-1.564-24.142c-1.043-15.148-2.23-30.288-3.153-45.443
			c-0.639-10.488-1.126-20.992-1.341-31.496c-0.388-18.974-0.74-37.955-0.693-56.932c0.037-15.207,0.641-30.414,1.083-45.619
			c0.284-9.753,0.681-19.504,1.118-29.252c0.605-13.491,1.292-26.978,1.952-40.466c0.467-9.556,0.838-19.119,1.448-28.666
			c0.872-13.651,1.934-27.289,2.893-40.935c0.499-7.108,0.839-14.229,1.443-21.327c1.447-16.992,2.678-34.012,4.605-50.951
			c2.542-22.346,5.69-44.622,8.511-66.937C633.022,742.978,633.998,739.851,632.415,736.486z M742.34,732.66
			c-1.673,1.39-2.623,2.225-3.62,2.998c-5.335,4.14-10.962,7.953-15.958,12.466c-7.922,7.156-13.76,15.754-16.628,26.277
			c-3.224,11.827-2.708,23.774-1.361,35.678c2.638,23.327,7.97,46.18,12.672,69.148c5.306,25.913,10.269,51.897,15.19,77.887
			c2.965,15.659,5.141,31.475,8.429,47.061c4.685,22.211,9.898,44.316,15.212,66.387c2.896,12.028,6.469,23.893,9.736,35.832
			c0.483,1.765,0.763,3.688,3.082,4.09c2.375-1.924,0.77-4.025,0.322-5.787c-1.156-4.54-2.937-8.924-4.04-13.474
			c-5.039-20.786-10.083-41.574-14.824-62.429c-3.284-14.445-6.313-28.957-9.039-43.517c-4.902-26.18-9.275-52.461-14.27-78.623
			c-5.417-28.371-11.618-56.596-16.821-85.004c-2.39-13.049-3.891-26.33-1.899-39.72c1.362-9.152,4.695-17.336,10.565-24.492
			c7.623-9.293,17.308-16.104,27.372-22.356c13.877-8.62,28.203-16.538,41.863-25.482c12.869-8.426,25.136-17.775,37.627-26.774
			c1.01-0.727,1.704-1.892,2.545-2.853c-0.337-0.411-0.673-0.822-1.01-1.233c-1.35,0.722-2.827,1.278-4.032,2.191
			c-22.045,16.712-45.553,31.149-69.315,45.242c-5.23,3.102-9.774,3.158-14.841,0.902c-2.395-1.066-4.776-2.239-6.971-3.661
			c-8.935-5.789-11.209-13.675-6.676-23.31c1.433-3.046,3.27-5.905,4.966-8.825c2.828-4.869,5.723-9.699,8.513-14.589
			c0.693-1.214,1.88-2.676-1.12-4.459c-0.632,0.596-0.861,1.539-1.351,2.32c-2.885,4.595-5.989,9.06-8.709,13.748
			c-2.632,4.536-5.171,9.169-7.237,13.98c-2.444,5.692-1.987,11.439,1.635,16.611c2.955,4.22,6.867,7.442,11.492,9.741
			C736.336,729.875,738.88,731.026,742.34,732.66z M619.434,1392.419c0.016,0.505,0.033,1.01,0.05,1.515
			c1.493,0.298,2.979,0.803,4.481,0.861c8.241,0.316,16.486,0.508,24.729,0.773c3.75,0.12,7.525,0.082,11.243,0.508
			c13.758,1.575,27.491,3.36,41.244,4.977c13.272,1.56,19.547-4.461,22.827-17.144c0.768-2.97-0.464-5.688-3.173-7.222
			c-1.919-1.086-4.106-2.088-6.257-2.309c-11.352-1.168-22.718-2.251-34.102-3.024c-10.656-0.723-21.337-1.255-32.013-1.425
			c-6.717-0.107-13.449,0.576-20.171,0.973c-1.744,0.103-2.863,0.888-1.98,3.208c3.805,0,7.693-0.129,11.571,0.022
			c21.912,0.849,43.825,1.701,65.73,2.717c4.091,0.19,8.192,0.924,12.207,1.783c3.866,0.828,4.881,2.312,3.917,5.977
			c-2.367,8.997-6.392,13.328-15.788,12.407c-15.648-1.534-31.255-3.541-46.926-4.743c-11.205-0.86-22.486-0.771-33.735-0.985
			C622.011,1391.262,620.719,1392.022,619.434,1392.419z M540.574,848.981c-1.972,2.53-0.464,3.836,0.292,5.222
			c4.401,8.067,9.113,15.978,13.202,24.199c12.719,25.573,23.393,51.973,31.345,79.442c0.584,2.02,1.592,3.916,2.575,6.284
			c2.289-3.031,2.453-3.087,1.486-5.923c-4.958-14.546-9.675-29.187-15.103-43.557c-8.034-21.273-18.215-41.545-30.15-60.915
			C543.228,852.119,541.91,850.705,540.574,848.981z M443.781,991.051c-0.512,0.054-1.024,0.109-1.536,0.163
			c-0.171,1.304-0.708,2.683-0.457,3.899c3.654,17.655,4.618,35.553,5.007,53.508c0.044,2.048,0.061,4.093,3.129,5.584
			c0.456-2.047,1.138-3.703,1.129-5.356c-0.019-3.351-0.602-6.7-0.618-10.051c-0.07-14.466-2.224-28.681-4.98-42.825
			C445.127,994.288,444.35,992.69,443.781,991.051z"/>
        <path style="fill:#160B42;" d="M769.732,1484.096c14.334,0.358,28.016,0.673,41.696,1.05c12.191,0.336,24.379,0.847,36.572,1.09
			c22.907,0.457,45.816,0.771,68.724,1.156c21.78,0.367,43.56,0.781,65.34,1.115c18.967,0.292,37.936,0.498,56.903,0.757
			c0.93,0.013,1.858,0.17,3.061,0.286c0.201,1.078,0.505,2.125,0.579,3.187c1.657,23.749,2.832,47.542,5.061,71.236
			c2.007,21.345,6.233,42.312,15.225,62.03c8.086,17.731,19.657,32.36,37.056,41.801c10.179,5.523,21.182,8.511,32.55,10.333
			c21.608,3.462,43.396,3.3,65.156,2.896c15.173-0.282,30.333-1.382,45.495-2.18c13.474-0.708,26.944-1.494,40.416-2.264
			c4.828-0.276,9.653-0.603,14.585-0.913c17.999,74.625,30.225,149.799,46.736,224.323c-264.443,0-528.561,0-793.421,0
			c9.638-68.456,20.783-136.233,35.719-203.536c6.696-0.226,13.062-0.289,19.407-0.685c14.583-0.909,29.194-1.602,43.719-3.104
			c11.979-1.239,23.6-4.362,34.379-10.038c14.108-7.428,24.076-18.952,32.024-32.455c9.183-15.603,15.785-32.36,21.799-49.356
			c10.589-29.924,19.425-60.358,25.936-91.442c1.539-7.345,2.797-14.748,4.232-22.115
			C768.893,1486.188,769.373,1485.16,769.732,1484.096z M846.677,1887.589c4.28,1.161,3.974-1.549,4.132-3.417
			c0.756-8.958,1.453-17.922,2.036-26.893c0.875-13.464,1.688-26.933,2.435-40.405c0.757-13.661,1.44-27.327,2.085-40.995
			c0.575-12.178,0.924-24.368,1.605-36.539c0.847-15.149,1.961-30.282,2.904-45.426c0.582-9.357,0.909-18.731,1.615-28.077
			c1.256-16.621,2.707-33.228,4.087-49.84c1.257-15.124,2.508-30.248,3.798-45.369c1.83-21.459,3.713-42.914,5.501-64.377
			c0.14-1.682-0.288-3.411-0.452-5.118c-0.433-0.058-0.866-0.115-1.299-0.173c-0.572,1.017-1.485,1.983-1.649,3.062
			c-0.45,2.954-0.587,5.956-0.842,8.939c-1.294,15.122-2.541,30.247-3.892,45.364c-1.666,18.652-3.53,37.288-5.1,55.948
			c-1.43,16.992-2.618,34.004-3.844,51.013c-1.401,19.43-2.89,38.857-4.033,58.303c-1.001,17.03-1.582,34.085-2.331,51.13
			c-0.173,3.938-0.197,7.884-0.421,11.818c-0.958,16.835-1.915,33.67-2.973,50.499c-0.623,9.907-1.475,19.799-2.148,29.703
			C847.423,1873.62,847.084,1880.51,846.677,1887.589z M870.445,1727.122c3.23,2.498,4.295,0.402,5.544-0.709
			c12.184-10.831,20.636-24.228,26.784-39.187c12.509-30.437,18.645-62.5,23.718-94.779c2.151-13.686,3.497-27.521,4.653-41.335
			c1.016-12.135,1.273-24.334,1.82-36.507c0.1-2.215,0.128-4.499-2.31-5.919c-2.828,1.414-1.894,3.935-1.97,5.983
			c-0.462,12.564-0.198,25.192-1.38,37.685c-1.604,16.962-3.936,33.877-6.591,50.712c-4.126,26.163-9.818,51.994-19.127,76.877
			c-5.153,13.775-11.501,26.958-21.544,37.965C877.178,1721.048,873.908,1723.819,870.445,1727.122z"/>
        <path style="fill:#DBDBDB;" d="M996.027,1176.867c0-6.878,0-12.808,0-19.309c9.415-0.828,18.32-1.627,27.228-2.391
			c16.05-1.375,32.098-2.776,48.154-4.075c12.143-0.983,24.304-1.751,36.446-2.747c20.35-1.669,40.688-3.482,61.037-5.157
			c11.955-0.984,23.922-1.824,35.884-2.723c5.232-0.393,10.476-0.661,15.694-1.188c4.721-0.476,8.032-3.042,9.434-7.629
			c6.473-21.178,13.153-42.298,19.249-63.586c13.014-45.453,25.456-91.07,38.622-136.478c10.19-35.147,20.854-70.163,31.816-105.078
			c8.146-25.945,16.991-51.673,25.799-77.404c1.869-5.459,4.72-10.623,7.495-15.719c3.026-5.558,7.729-8.003,14.348-7.997
			c136.718,0.118,273.436,0.089,410.155,0.09c1.128,0,2.259-0.039,3.385,0.021c11.572,0.613,15.435,7.615,12.399,18.668
			c-2.98,10.85-7.06,21.398-10.684,32.07c-16.417,48.339-32.831,96.679-49.269,145.011c-14.382,42.287-28.776,84.57-43.199,126.843
			c-9.396,27.54-18.853,55.059-28.279,82.589c-0.364,1.064-0.9,2.124-0.995,3.217c-0.426,4.897-3.717,6.609-7.924,7.082
			c-3.901,0.438-7.836,0.577-11.76,0.789c-16.476,0.891-32.953,1.759-49.429,2.638c-14.227,0.759-28.454,1.521-42.682,2.284
			c-14.038,0.753-28.076,1.505-42.114,2.263c-13.851,0.748-27.703,1.499-41.554,2.255c-13.664,0.747-27.326,1.509-40.99,2.252
			c-14.039,0.763-28.079,1.507-42.118,2.265c-13.851,0.747-27.703,1.501-41.554,2.254c-13.851,0.753-27.705,1.457-41.552,2.282
			c-8.411,0.501-16.815,1.734-25.213,1.665c-12.124-0.101-24.128,1.406-36.21,1.81c-21.168,0.707-42.312,2.148-63.465,3.29
			c-13.664,0.738-27.33,1.443-40.99,2.252c-15.712,0.931-31.414,2.017-47.127,2.927c-10.672,0.618-21.356,1.02-32.032,1.569
			c-12.916,0.664-25.828,1.381-38.742,2.073C1008.954,1176.182,1002.623,1176.516,996.027,1176.867z M1244.335,1135.215
			c0.578,0.175,1.156,0.349,1.734,0.524c2.512-1.566,2.736-4.518,3.505-7.05c18.922-62.295,37.812-124.6,56.694-186.907
			c16.873-55.677,33.729-111.359,50.593-167.039c1.904-6.286,3.747-12.591,5.759-18.842c0.692-2.151,1.152-3.915-2.085-4.949
			c-0.676,1.494-1.419,2.748-1.831,4.103c-11.95,39.316-23.882,78.637-35.784,117.967c-14.077,46.515-28.117,93.042-42.186,139.56
			c-11.788,38.976-23.603,77.943-35.364,116.927C1244.814,1131.348,1244.67,1133.31,1244.335,1135.215z"/>
        <path style="fill:#FFFFFF;" d="M1031.751,1179.535c0,2.669,0,4.725,0,6.781c0,14.673-0.145,29.348,0.037,44.02
			c0.225,18.216,0.577,36.434,1.14,54.643c0.568,18.378,1.414,36.748,2.23,55.118c0.683,15.364,1.49,30.724,2.26,46.084
			c0.733,14.609,1.473,29.219,2.249,43.826c0.158,2.965,0.491,5.921,0.793,9.473c-5.331,0.489-10.321,1.375-15.301,1.323
			c-14.827-0.154-29.663-0.41-44.471-1.127c-15.906-0.771-31.777-2.232-47.678-3.141c-6.749-0.386-13.534-0.11-20.302-0.18
			c-1.752-0.018-3.501-0.204-5.419-1.387c1.019-0.581,1.973-1.378,3.068-1.709c20.131-6.103,40.376-11.676,61.535-12.891
			c2.614-0.15,5.236-0.403,7.813-0.848c1.34-0.231,2.59-0.984,3.987-1.543c-1.171-3.248-3.342-2.592-5.336-2.461
			c-25.84,1.702-50.656,8.115-75.226,15.923c-15.92,5.059-32.059,9.464-48.772,11.135c-12.679,1.267-25.343,2.489-38.138,1.076
			c-8.376-0.924-16.839-1.046-25.253-1.654c-4.649-0.336-9.279-0.932-14.088-1.429c-1.638-3.773-0.419-7.513-0.141-11.144
			c0.929-12.144,2.333-24.254,3.123-36.404c0.998-15.344,1.621-30.714,2.311-46.077c0.463-10.311,0.898-20.626,1.104-30.944
			c0.466-23.293,0.752-46.59,1.171-69.885c0.324-18.029,0.886-36.054,1.082-54.084c0.355-32.707,0.509-65.416,0.759-98.125
			c0.119-15.606,0.172-31.212,0.428-46.816c0.258-15.771,0.462-31.55,1.179-47.304c0.826-18.166,1.79-36.343,3.417-54.451
			c2.046-22.766,4.68-45.483,7.325-68.19c3.561-30.574,8.771-60.888,14.933-91.042c5.714-27.959,13.049-55.513,20.628-83.007
			c7.488-27.163,14.005-54.556,17.368-82.555c1.628-13.553,1.946-27.264,2.815-40.906c0.128-2.003,0.018-4.022,0.018-7.452
			c2.733,1.936,4.536,3.047,6.152,4.385c14.493,12.002,29.702,22.94,46.17,32.13c13.938,7.779,28.62,10.012,44.471,8.674
			c31.291-2.642,61.897-9.369,92.789-14.391c1.999-0.325,4.037-0.415,6.314-0.639c0.508,1.271,1.188,2.248,1.264,3.269
			c1.184,15.92,2.002,31.84,0.594,47.805c-0.478,5.417-0.29,10.89-0.482,16.335c-0.351,9.94-0.62,19.885-1.173,29.815
			c-0.856,15.346-1.979,30.677-2.88,46.021c-0.627,10.677-1.064,21.364-1.601,32.046c-0.669,13.297-1.377,26.591-2.022,39.889
			c-0.491,10.118-0.896,20.24-1.366,30.359c-0.652,14.048-1.353,28.094-1.988,42.143c-0.5,11.059-0.903,22.122-1.4,33.18
			c-0.573,12.739-1.225,25.474-1.793,38.213c-0.218,4.879-0.305,9.764-0.444,14.647c-0.383,13.511-0.691,27.026-1.159,40.534
			c-0.675,19.502-1.483,39-2.194,58.501c-0.308,8.44-0.62,16.882-0.744,25.326c-0.219,14.852-0.288,29.705-0.434,44.558
			c-0.054,5.518-0.078,5.431-5.661,5.836c-9.529,0.691-19.045,1.562-28.576,2.231c-3.093,0.217-5.072,1.481-5.25,4.661
			c-0.354,6.342-0.835,12.699-0.709,19.039c0.073,3.628,1.354,4.472,5.174,4.295c8.042-0.372,16.07-1.045,24.111-1.479
			C1024.692,1179.393,1027.843,1179.535,1031.751,1179.535z M900.372,654.773c1.548,4.618,3.146,8.613,4.207,12.746
			c1.253,4.882,2.862,9.883,2.866,14.833c0.007,10.866-0.23,21.816-1.565,32.584c-3.365,27.153-7.326,54.233-11.169,81.326
			c-5.872,41.389-11.695,82.786-17.823,124.138c-4.783,32.275-10.084,64.473-14.999,96.729
			c-5.959,39.11-11.877,78.228-17.581,117.376c-4.216,28.933-8.245,57.897-11.947,86.899c-0.969,7.588-0.922,15.404-0.424,23.056
			c0.724,11.142,6.301,20.473,13.555,28.51c11.068,12.263,22.552,24.165,34.185,35.896c3.646,3.677,8.202,6.529,12.59,9.375
			c6.559,4.254,13.394,3.808,19.48-0.763c5.83-4.379,11.484-9.124,16.57-14.339c11.402-11.688,22.337-23.829,33.588-35.667
			c8.279-8.711,13.199-18.614,12.124-30.955c-0.456-5.226-0.77-10.466-1.124-15.701c-1.138-16.833-2.553-33.654-3.318-50.503
			c-0.851-18.754-1.5-37.534-1.522-56.304c-0.029-24.231,0.642-48.463,1.029-72.694c0.364-22.727,0.867-45.452,1.075-68.18
			c0.088-9.567-0.413-19.139-0.669-28.708c-0.363-13.51-0.5-27.032-1.182-40.526c-0.983-19.469-2.021-38.948-3.677-58.368
			c-1.751-20.534-3.964-41.04-6.513-61.491c-2.48-19.901-5.515-39.736-8.551-59.563c-1.759-11.489-4.017-22.902-6.017-34.355
			c-1.143-6.544-0.424-12.65,3.917-18.083c3.866-4.839,7.404-9.939,11.233-14.809c3.06-3.893,3.518-3.878,6.874-0.448
			c5.781,5.909,11.515,11.865,17.248,17.82c6.805,7.068,14.612,8.727,23.541,4.421c1.182-0.57,2.358-1.158,3.507-1.792
			c14.285-7.888,24.574-20.171,35.138-32.13c0.491-0.556,0.085-1.905,0.097-2.885c-0.985,0.223-2.293,0.124-2.896,0.728
			c-2.25,2.251-4.204,4.794-6.385,7.119c-8.362,8.918-16.722,17.863-27.607,23.845c-8.515,4.679-16.571,4.752-23.92-2.996
			c-14.358-15.136-29.203-29.811-43.896-44.627c-4.887-4.928-6.542-5.22-12.021-0.946c-7.24,5.646-14.063,11.824-21.214,17.588
			c-6.702,5.401-13.271,11.076-20.5,15.686c-7.882,5.026-14.566,3.302-20.107-4.141c-2.457-3.301-4.406-6.976-6.682-10.418
			c-0.752-1.138-1.804-2.078-2.718-3.108c-0.387,0.185-0.774,0.37-1.161,0.555c0.285,1.285,0.264,2.756,0.909,3.823
			c2.518,4.169,4.976,8.419,7.952,12.255c6.262,8.073,13.205,9.61,22.242,5.023C891.416,660.417,895.455,657.7,900.372,654.773z
			 M896.271,1418.566c0.585-1.729,1.471-3.343,1.646-5.031c1.238-11.916,2.502-23.833,3.419-35.776
			c0.932-12.131,1.47-24.293,2.197-36.441c0.114-1.9,0.097-3.682-2.502-4.755c-0.492,1.441-1.146,2.58-1.241,3.764
			c-0.48,5.972-0.773,11.959-1.209,17.934c-0.681,9.335-1.349,18.672-2.161,27.996c-0.795,9.136-1.796,18.254-2.625,27.388
			C893.638,1415.371,893.035,1417.457,896.271,1418.566z"/>
        <path style="fill:#4E68EC;" d="M1065.111,1147.387c1.851-9.399,3.476-17.847,5.18-26.278
			c11.715-57.99,26.95-115.076,44.032-171.691c13.499-44.74,25.482-89.893,36.864-135.215c4.249-16.92,9.264-33.646,13.917-50.465
			c0.35-1.265,0.549-2.572,0.9-3.836c2.784-10.025-0.634-17.974-8.077-24.678c-8.877-7.996-19.212-13.78-29.569-19.488
			c-20.215-11.14-40.982-21.306-60.148-34.29c-1.138-0.771-2.457-2.149-4.231,0.588c1.441,1.28,2.832,2.956,4.596,4.01
			c11.76,7.029,23.534,14.04,35.431,20.834c13.038,7.445,26.279,14.535,39.288,22.03c4.04,2.328,7.69,5.369,11.382,8.257
			c7.729,6.047,9.494,14.128,7.283,23.251c-1.546,6.379-3.598,12.633-5.277,18.982c-6.572,24.854-12.829,49.794-19.681,74.57
			c-10.651,38.512-21.505,76.969-32.617,115.35c-13.047,45.065-25.241,90.336-34.734,136.302c-2.58,12.49-5.144,24.982-7.703,37.476
			c-1.039,5.071-1.165,5.154-6.089,5.449c-6.32,0.379-12.636,0.836-19.744,1.313c0-3.737-0.085-6.868,0.02-9.991
			c0.151-4.494,0.567-8.98,0.646-13.474c0.209-11.84,0.208-23.683,0.456-35.522c0.272-12.948,0.712-25.894,1.113-38.839
			c0.349-11.255,0.721-22.509,1.128-33.761c0.732-20.251,1.478-40.501,2.256-60.751c0.728-18.933,1.469-37.866,2.271-56.797
			c0.698-16.488,1.47-32.973,2.244-49.458c0.73-15.549,1.476-31.098,2.27-46.644c0.708-13.856,1.46-27.71,2.246-41.562
			c1.01-17.781,2.113-35.557,3.098-53.34c0.55-9.925,0.951-19.859,1.402-29.789c0.621-13.673,1.419-27.343,1.757-41.023
			c0.176-7.111-0.471-14.242-0.755-21.364c-0.356-8.961-0.721-17.922-1.118-27.773c2.467,0.766,4.62,1.107,6.455,2.06
			c8.328,4.323,16.602,8.754,24.828,13.268c10.232,5.615,20.689,10.586,32.17,13.193c6.248,1.419,11.349,4.585,14.734,10.406
			c0.996,1.714,3.275,3.288,5.238,3.739c17.912,4.113,35.861,8.068,53.844,11.859c15.441,3.255,31.17,4.2,46.847,5.668
			c13.596,1.273,27.181,3.063,40.624,5.452c12.716,2.26,22.528,9.759,30.719,19.573c8.289,9.932,13.861,21.394,19.114,33.056
			c4.701,10.436,9.471,20.841,12.545,31.929c0.736,2.655,0.699,4.942-0.223,7.613c-7.836,22.71-15.865,45.365-23.097,68.27
			c-10.959,34.708-21.52,69.545-31.89,104.435c-10.261,34.524-20.206,69.145-30.041,103.794
			c-6.506,22.922-12.431,46.01-18.919,68.938c-2.086,7.37-5.299,14.415-7.691,21.708c-1.448,4.416-2.195,9.056-3.469,13.536
			c-1.645,5.782-2.592,6.522-8.601,7.007c-14.939,1.207-29.886,2.325-44.826,3.519c-23.344,1.866-46.689,3.732-70.027,5.664
			c-10.821,0.896-21.628,1.968-32.445,2.911C1069.392,1147.51,1067.726,1147.387,1065.111,1147.387z M1276.596,913.863
			c0.682-0.036,1.365-0.072,2.047-0.109c0.261-2.3,0.717-4.597,0.753-6.9c0.421-26.861,0.451-53.732,1.261-80.581
			c0.616-20.418,1.848-40.835,3.468-61.2c1.291-16.237,3.474-32.407,5.469-48.582c1.101-8.928,2.562-17.815,4.02-26.694
			c0.308-1.874,0.424-3.246-2.352-4.195c-0.573,1.813-1.311,3.442-1.591,5.146c-1.818,11.096-3.958,22.163-5.197,33.327
			c-2.499,22.526-4.913,45.077-6.561,67.676c-1.391,19.072-1.673,38.225-2.391,57.345c-0.141,3.756-0.042,7.522-0.04,11.283
			c0.008,16.532-0.004,33.065,0.077,49.597C1275.564,911.274,1276.234,912.568,1276.596,913.863z M1139.645,889.466
			c0.042,0.644,0.085,1.288,0.127,1.932c1.942,0.244,3.887,0.724,5.824,0.692c9.185-0.152,18.37-0.4,27.552-0.696
			c14.805-0.478,29.612-0.924,44.408-1.6c3.896-0.178,7.767-1.084,11.629-1.772c5.474-0.975,8.498-4.408,9.465-9.786
			c0.432-2.399,0.937-4.788,1.261-7.201c0.95-7.05,2.192-14.088,2.618-21.173c0.366-6.091-2.494-9.584-8.615-10.56
			c-5.511-0.879-11.198-1.174-16.781-0.968c-10.848,0.4-21.672,1.417-32.515,2.016c-9.168,0.507-18.349,0.787-27.525,1.161
			c-1.798,0.073-3.751-0.172-4.672,3.013c2.013,0.219,3.762,0.622,5.495,0.563c8.615-0.297,17.226-0.696,25.836-1.096
			c9.734-0.452,19.461-1.094,29.199-1.366c6.56-0.183,13.155-0.161,19.693,0.325c4.64,0.345,6.087,2.388,6.311,7.016
			c0.063,1.304,0.028,2.641-0.187,3.926c-1.235,7.39-2.781,14.738-3.741,22.162c-0.805,6.228-2.407,7.92-9.027,8.612
			c-9.484,0.992-19.025,1.59-28.557,1.943c-15.556,0.576-31.124,0.808-46.686,1.209c-2.437,0.063-4.885,0.138-7.3,0.432
			C1142.157,888.409,1140.914,889.045,1139.645,889.466z M1156.486,1116.16c3.08-1.855,3.203-4.357,3.521-6.733
			c2.016-15.047,4.099-30.085,5.995-45.147c2.645-21.01,5.14-42.04,7.709-63.06c2.069-16.924,4.169-33.845,6.225-50.771
			c1.582-13.021,3.152-26.043,4.625-39.076c0.164-1.455,0.953-3.485-1.882-4.226c-0.398,0.717-1.096,1.438-1.198,2.235
			c-8.684,68.037-17.325,136.079-25.925,204.127C1155.479,1114.129,1155.999,1114.824,1156.486,1116.16z M1134.967,639.537
			c-0.379,0.025-0.758,0.05-1.137,0.076c-0.187,1.299-0.646,2.627-0.507,3.889c0.308,2.782,0.772,5.566,1.434,8.286
			c1.371,5.632,2.857,11.237,4.396,16.826c2.232,8.106,1.503,10.458-5.034,15.472c-0.149,0.114-0.272,0.264-0.429,0.363
			c-6.332,3.985-12.695,7.921-18.983,11.974c-1.857,1.197-4.68,1.719-4.426,5.487c1.431-0.323,2.705-0.36,3.724-0.888
			c3.154-1.635,6.306-3.311,9.284-5.24c5.181-3.355,10.443-6.643,15.277-10.459c4.91-3.875,6.901-8.795,4.886-15.414
			c-2.772-9.106-4.679-18.475-7.027-27.714C1136.186,641.246,1135.465,640.42,1134.967,639.537z"/>
        <path style="fill:#4E68EC;" d="M1036.5,1178.945c6.153-0.384,12.093-0.754,18.69-1.166c-0.2,2.3-0.271,4.087-0.521,5.848
			c-1.609,11.324-3.296,22.636-4.857,33.966c-0.263,1.906-0.037,3.879-0.037,6.092c2.581-0.221,2.956-1.523,3.195-3.082
			c1.843-12.045,3.713-24.085,5.595-36.123c0.316-2.021,0.729-4.026,1.236-6.799c5.736-0.367,11.469-0.779,17.207-1.091
			c12.541-0.681,25.084-1.312,37.627-1.961c9.365-0.484,18.733-0.903,28.094-1.459c15.712-0.934,31.415-2.033,47.131-2.913
			c11.611-0.651,23.239-1,34.853-1.6c12.165-0.628,24.322-1.415,36.485-2.085c2.211-0.122,4.434-0.017,7.016-0.017
			c0,4.995,0.277,9.623-0.053,14.206c-0.942,13.085-2.119,26.152-3.226,39.224c-1.313,15.497-2.684,30.989-3.964,46.488
			c-0.988,11.959-1.949,23.921-2.781,35.891c-0.727,10.472-1.348,20.954-1.853,31.439c-0.942,19.561,2.956,38.429,7.995,57.197
			c6.032,22.467,11.917,44.984,17.263,67.621c5,21.17,9.141,42.541,13.787,63.795c6.138,28.082,14.257,55.635,22.272,83.22
			c3.978,13.691,7.517,27.514,10.969,41.349c1.306,5.232,1.74,10.641,1.084,16.11c-0.473,3.939-2.628,6.32-6.227,7.011
			c-4.205,0.808-8.521,1.232-12.806,1.396c-13.128,0.505-26.276,0.578-39.395,1.24c-17.402,0.88-34.771,2.552-52.179,3.162
			c-20.084,0.704-40.21,1.207-60.29,0.692c-15.322-0.392-30.628-2.073-45.384-7.085c-17.474-5.935-30.643-16.956-40.364-32.446
			c-9.44-15.042-14.412-31.702-17.778-48.923c-3.351-17.141-5.101-34.488-6.063-51.914c-0.806-14.605-1.485-29.218-2.272-43.824
			c-0.542-10.061-1.202-20.115-1.748-30.176c-0.234-4.313-0.302-8.635-0.467-12.952c-0.38-9.937-0.659-19.88-1.189-29.81
			c-0.889-16.66-2.019-33.306-2.898-49.966c-0.652-12.367-1.046-24.747-1.592-37.12c-0.587-13.302-1.259-26.601-1.81-39.905
			c-0.249-6.006-0.364-12.02-0.415-18.032c-0.265-31.016-0.492-62.031-0.718-93.047
			C1036.109,1180.854,1036.279,1180.307,1036.5,1178.945z M1236.548,1382.517c0.009-0.545,0.018-1.09,0.027-1.636
			c-2.721-1.637-5.816-1.717-8.951-1.682c-22.537,0.248-45.075,0.416-67.611,0.752c-18.018,0.269-36.034,0.689-54.048,1.165
			c-3.165,0.084-6.35,0.597-9.462,1.225c-6.849,1.384-9.305,4.957-7.97,11.709c0.762,3.852,1.816,7.661,2.978,11.415
			c1.766,5.709,4.574,7.892,10.719,8.078c3.35,0.101,6.719-0.403,10.079-0.641c17.383-1.231,34.757-2.604,52.151-3.652
			c14.406-0.868,28.832-1.457,43.256-1.968c9.386-0.332,18.786-0.267,28.178-0.459c2.426-0.05,4.88-0.325,6.61-3.157
			c-1.117-0.465-2.027-1.154-2.947-1.167c-2.244-0.032-4.49,0.32-6.739,0.393c-19.496,0.635-39.001,1.076-58.488,1.914
			c-13.103,0.563-26.18,1.711-39.272,2.533c-11.032,0.693-22.066,1.397-33.108,1.882c-4.45,0.196-5.238-0.49-6.571-4.569
			c-1.104-3.378-2.073-6.821-2.8-10.299c-1.241-5.943,0.093-7.745,6.336-8.502c4.645-0.563,9.324-1.055,13.997-1.139
			c25.913-0.466,51.828-0.818,77.742-1.165c13.716-0.184,27.434-0.26,41.15-0.439
			C1233.388,1383.091,1234.967,1382.724,1236.548,1382.517z M1152.696,1189.718c-2.374,2.007-2.276,4.659-2.45,7.198
			c-0.912,13.282-1.784,26.566-2.718,39.846c-0.947,13.458-2.035,26.907-2.899,40.37c-0.661,10.296-0.914,20.618-1.625,30.91
			c-1.2,17.379-2.627,34.742-3.934,52.114c-0.129,1.708,0.082,3.334,2.776,4.407c0.536-1.959,1.238-3.587,1.394-5.266
			c0.521-5.598,0.852-11.213,1.246-16.822c0.972-13.83,2.002-27.656,2.888-41.492c0.647-10.108,1.019-20.233,1.664-30.341
			c0.882-13.834,1.913-27.659,2.869-41.488c0.736-10.654,1.526-21.305,2.128-31.966
			C1154.173,1194.752,1155.113,1191.997,1152.696,1189.718z"/>
        <path style="fill:#DE9575;" d="M876.533,438.245c-2.736,2.779-2.616,4.806-2.178,7.137c2.763,14.699,7.887,28.566,14.667,41.831
			c10.607,20.753,24.298,39.276,41.314,55.193c15.153,14.175,32.148,25.892,50.284,35.946c14.98,8.304,30.446,15.461,47.123,19.72
			c1.269,0.324,2.508,0.78,3.731,1.253c0.25,0.097,0.365,0.544,0.933,1.461c-6.577,1.257-12.882,2.613-19.24,3.648
			c-16.274,2.651-32.549,5.308-48.866,7.672c-10.979,1.591-22.106,2.245-33.134,1.094c-12.442-1.298-23.064-7.597-33.446-14.092
			c-13.548-8.476-26.434-17.863-38.758-28.058c-2.87-2.374-3.782-4.715-3.252-8.196c4.342-28.495,4.806-57.161,4.035-85.915
			c-0.422-15.749-0.076-31.52-0.076-46.995c2.354-1.166,3.95-1.956,5.706-2.826c-1.459-4.142-5.267-3.452-7.604-3.338
			c-3.32,0.162-6.029-0.679-8.422-2.378c-9.636-6.839-19.336-13.618-28.583-20.96c-6.668-5.294-11.552-12.29-15-20.126
			c-6.665-15.147-2.697-28.611,6.98-40.952c2.048-2.611,4.623-4.948,7.339-6.869c7.182-5.082,14.135-4.567,20.34,1.662
			c4.091,4.107,7.743,8.665,11.452,13.138c3.592,4.331,6.924,8.878,10.538,13.189c1.39,1.658,3.079,3.729,5.628,2.703
			c2.66-1.07,3.043-3.693,2.838-6.215c-0.411-5.039-1.22-10.052-1.458-15.095c-0.291-6.173-0.581-12.398-0.099-18.54
			c0.443-5.647,2.679-10.936,6-15.608c5.672-7.977,6.998-16.713,5.37-26.243c-2.203-12.9-2.054-25.671,1.903-38.394
			c2.443-7.854,3.756-16.06,5.578-24.108c3.334-14.732,12.508-23.914,26.737-28.476c13.497-4.328,27.401-6.485,41.458-7.124
			c17.998-0.817,36.043-1.443,54.047-1.106c25.503,0.478,50.855,2.863,75.916,8.144c11.36,2.394,19.632,8.677,26.862,17.192
			c9.846,11.596,15.064,25.422,19.603,39.605c4.211,13.157,6.376,26.611,5.757,40.467c-0.887,19.847,2.11,39.283,6.074,58.644
			c3.805,18.581,6.181,37.359,6.735,56.338c0.285,9.754,0.903,19.521,0.641,29.263c-0.584,21.762-4.68,42.805-13.961,62.694
			c-14.42,30.906-38.88,49.228-71.374,57.899c-10.322,2.754-20.411,1.911-30.519-0.335c-26.295-5.843-51.775-14.192-76.042-25.945
			c-22.509-10.902-42.897-24.756-59.306-43.967c-9.625-11.269-17.071-23.742-21.71-37.858
			C878.48,442.547,877.589,440.765,876.533,438.245z M985.39,413.871c-0.096,3.363,1.29,9.553,3.636,15.547
			c4.071,10.4,11.019,18.62,19.367,25.857c9.605,8.327,20.031,15.153,32.271,18.976c9.705,3.031,19.509,3.863,29.372,1.109
			c16.078-4.491,24.905-15.867,29.153-31.403c3.535-12.928,3.963-26.284,5.283-39.511c0.313-3.141,0.38-6.42-0.16-9.51
			c-1.069-6.115-3.835-8.494-10.094-9.486c-2.027-0.321-4.078-0.577-6.126-0.666c-13.317-0.579-26.534-1.932-39.602-4.659
			c-10.088-2.105-20.152-4.416-30.327-5.984c-10.279-1.584-18.81,2.183-24.982,10.616
			C987.543,392.458,985.518,401.336,985.39,413.871z M956.766,275.059c0.393-0.058,1.132-0.186,1.876-0.275
			c16.528-1.973,33.061-3.903,49.58-5.949c2.948-0.365,5.983-0.834,8.719-1.912c4.562-1.796,5.583-5.268,3.145-9.564
			c-2.144-3.779-5.539-5.972-9.656-7.213c-4.889-1.474-9.671-0.541-14.388,0.634c-10.349,2.579-20.685,5.219-30.96,8.075
			c-4.296,1.194-8.599,2.647-12.57,4.639c-3.44,1.726-5.001,5.514-4.214,7.851C949.143,273.855,952.11,275.217,956.766,275.059z
			 M1130.371,274.586c1.183-0.775,3.458-1.505,4.221-3.005c0.617-1.212-0.071-3.808-1.102-4.978
			c-1.676-1.901-3.897-3.752-6.251-4.548c-9.894-3.344-19.853-6.555-29.945-9.219c-3.039-0.802-6.633,0.062-9.887,0.642
			c-2.819,0.503-4.493,2.74-5.002,5.491c-0.546,2.951,1.278,5.046,3.45,6.585c1.483,1.051,3.314,1.78,5.096,2.2
			c2.717,0.64,5.513,1.04,8.299,1.275c9.514,0.803,18.973,1.864,28.122,4.792C1128.081,274.048,1128.815,274.192,1130.371,274.586z
			 M965.53,318.061c1.924-0.591,3.872-1.052,5.715-1.78c7.633-3.015,15.716-3.555,23.724-3.784
			c5.364-0.153,10.767,1.076,16.152,1.682c2.589,0.292,5.317,0.988,6.835-2.383c-1.353-4.522-5.474-5.264-9.191-6.145
			c-6.256-1.484-12.604-1.326-18.97-0.318c-7.644,1.21-14.96,3.408-21.967,6.654C965.409,313.107,963.702,314.628,965.53,318.061z
			 M1064.935,354.542c2.251,2.433,3.427,1.599,4.583,0.437c2.913-2.928,6.024-5.683,8.714-8.803
			c6.691-7.762,7.028-17.095,0.976-25.288c-1.658-2.245-3.539-4.459-5.731-6.153c-7.751-5.989-11.859-13.786-12.635-23.493
			c-0.097-1.215-0.922-2.371-1.409-3.555c-0.508,0.092-1.015,0.184-1.523,0.277c-0.114,1.518-0.42,3.051-0.311,4.553
			c0.764,10.574,5.892,18.885,13.986,25.314c9.439,7.498,10.556,21.205,1.175,28.69
			C1069.906,348.799,1067.606,351.767,1064.935,354.542z M840.776,364.963c-1.876,0.939-3.699,1.776-5.451,2.743
			c-6.146,3.39-7.747,9.225-4.008,15.19c1.584,2.527,3.531,4.835,5.412,7.162c0.979,1.211,2.184,2.188,4.289,0.246
			c-0.879-1.393-1.778-2.916-2.775-4.372c-1.055-1.542-2.338-2.94-3.283-4.542c-2.809-4.758-1.607-8.604,3.328-10.981
			c0.842-0.405,1.763-0.649,2.596-1.07c4.417-2.236,5.3-4.792,2.02-8.324c-2.87-3.09-6.284-5.976-9.999-7.913
			c-6.01-3.134-12.138-1.534-16.817,3.509c-0.604,0.651-0.796,1.686-1.706,3.72c4.074-2.044,6.852-3.892,9.909-4.849
			c3.346-1.047,6.664,0.132,9.649,1.925C836.841,359.149,839.576,361.062,840.776,364.963z M1104.684,309.21
			c-3.563,0.997-7.184,1.836-10.648,3.103c-0.87,0.318-1.661,2.006-1.678,3.077c-0.01,0.665,1.411,1.688,2.357,1.953
			c1.393,0.391,2.948,0.418,4.413,0.309c9.688-0.721,19.427-2.357,28.561,2.912c0.852,0.492,3.303-0.173,3.809-1.02
			c1.18-1.975-0.708-2.941-2.26-3.663C1121.509,312.284,1113.443,310.035,1104.684,309.21z"/>
        <path style="fill:#DE9575;" d="M662.256,462.875c-0.846-1.038-1.464-1.538-1.749-2.184c-3.818-8.662-10.846-14.047-19.281-17.159
			c-13.713-5.059-27.694-9.403-41.609-13.903c-21.071-6.814-42.178-13.514-63.283-20.221c-1.547-0.492-3.365-2.449-5.066,1.108
			c1.808,0.816,3.518,1.775,5.345,2.384c20.275,6.759,40.559,13.49,60.858,20.174c14.062,4.63,28.233,8.945,42.193,13.86
			c6.426,2.262,12.153,6.1,15.737,12.229c5,8.551,4.868,17.613,1.574,26.592c-3.32,9.049-9.222,16.273-17.177,21.783
			c-2.154,1.492-4.167,3.199-6.38,4.591c-1.141,0.718-2.58,0.961-5.149,1.862c1.029-2.688,1.531-4.168,2.151-5.597
			c4.892-11.27,3.11-20.524-5.365-29.433c-6.633-6.972-14.826-11.479-23.456-15.262c-16.044-7.032-33.032-11.164-49.822-15.9
			c-10.106-2.851-20.174-5.836-30.277-8.697c-1.674-0.474-3.963-2.065-4.986,0.286c-1.12,2.572,1.863,2.659,3.279,3.566
			c4.511,2.888,9.6,3.53,14.797,4.441c7.729,1.355,15.249,3.917,22.846,6.009c15.013,4.133,30.079,8.138,44.323,14.578
			c8.233,3.723,16.172,7.975,22.078,15.143c6.165,7.482,7.031,15.839,2.659,24.174c-2.927,5.58-6.839,10.795-11.038,15.527
			c-11.335,12.771-22.622,25.641-35.956,36.441c-7.372,5.971-15.342,10.876-25.019,12.13c-10.162,1.317-19.048-1.744-26.259-8.807
			c-6.046-5.921-6.456-13.486-3.472-20.924c4.139-10.318,11.669-17.792,21.48-22.946c3.344-1.757,6.816-3.053,10.547-1.177
			c1.263-3.352-1.34-3.548-2.523-4.652c-5.939-5.542-7.696-5.833-13.112,0.322c-6.306,7.167-12.239,14.736-17.599,22.63
			c-2.423,3.568-3.911,8.256-4.354,12.586c-1.077,10.528,5.303,17.275,13.549,22.238c10.944,6.587,22.494,6.698,33.813,1.059
			c5.501-2.741,10.579-6.388,15.646-9.916c1.931-1.345,3.688-2.19,6.084-2.367c4.093-0.302,8.146-1.134,12.086-1.723
			c2.929,3.718,5.596,7.817,8.958,11.229c8.57,8.698,19.111,11.464,30.995,9.037c4.153-0.848,8.231-2.063,12.343-3.11
			c0.208,0.334,0.416,0.669,0.624,1.003c-2.064,2.297-4.078,4.642-6.202,6.883c-6.462,6.815-12.709,13.86-19.511,20.319
			c-11.668,11.079-26.161,15.633-41.873,17.251c-12.476,1.285-25.01,2.428-37.335,4.649c-17.238,3.106-29.939,13.261-39.186,27.922
			c-7.463,11.834-12.402,24.82-17.219,37.859c-0.326,0.881-0.725,1.753-0.913,2.665c-0.778,3.785-3.065,5.488-6.906,5.921
			c-20.291,2.291-40.566,4.718-60.843,7.132c-17.944,2.136-35.97,2.089-53.979,1.737c-7.964-0.156-15.908-1.379-24.23-2.151
			c0.375-1.608,0.499-2.516,0.796-3.364c11.929-34.019,25.506-67.377,40.043-100.36c16.437-37.293,30.65-75.451,44.229-113.866
			c7.064-19.984,14.64-39.806,22.666-59.422c5.193-12.692,11.9-24.712,20.815-35.317c8.198-9.752,17.806-17.241,30.909-18.963
			c8.706-1.145,17.259,0.136,25.596,2.465c29.109,8.131,58.189,16.367,87.225,24.75c12.082,3.488,24.149,7.193,35.182,13.418
			c14.089,7.949,17.216,16.016,15.434,28.941c-0.785,5.695-2.817,11.221-4.333,16.81
			C663.532,461.614,663.016,461.965,662.256,462.875z"/>
        <path style="fill:#160F3A;" d="M1140.228,251.389c-3.295-0.261-2.924-2.753-3.506-4.272c-2.614-6.824-4.655-13.883-7.517-20.594
			c-4.704-11.028-12.226-20.044-20.541-28.66c-7.33-7.596-16.642-9.974-26.101-11.782c-13.413-2.563-26.994-4.351-40.563-5.966
			c-19.785-2.354-39.696-2.703-59.589-2.249c-21.949,0.501-43.872,1.694-65.124,7.961c-4.118,1.214-8.179,2.814-12.025,4.723
			c-10.346,5.137-17.121,13.574-19.944,24.621c-3.665,14.343-7.028,28.801-9.564,43.375c-1.096,6.297,0.143,13.014,0.444,19.534
			c0.112,2.426,0.629,4.83,0.864,7.253c0.711,7.328-0.481,14.153-4.805,20.37c-7.133,10.256-8.521,21.761-7.011,33.887
			c0.715,5.742,1.026,11.534,1.509,17.174c-2.645,1.166-3.527-0.674-4.478-1.89c-3.242-4.141-6.21-8.502-9.536-12.572
			c-3.203-3.919-6.39-7.956-10.166-11.279c-8.611-7.577-16.199-8.167-25.327-1.098c-11.418,8.842-17.96,20.767-18.853,35.134
			c-0.455,7.316,2.253,14.379,5.937,20.85c5.678,9.97,13.455,18.04,22.697,24.705c6.09,4.392,12.3,8.629,18.592,12.728
			c3.277,2.135,6.846,3.821,10.222,5.676c0,20.134,0,40.361,0,60.749c-2.927,0.082-3.009-2.108-3.51-3.382
			c-2.336-5.934-4.245-12.038-6.63-17.95c-3.977-9.86-10.603-18.1-16.794-26.59c-16.337-22.405-30.085-46.263-40.333-72.073
			c-9.526-23.993-12.404-48.985-11.036-74.597c0.2-3.739,0.524-7.475,0.613-11.216c0.024-1.016-0.312-2.312-0.972-3.03
			c-8.315-9.049-11.527-20.218-12.199-31.963c-1.444-25.229,6.85-47.335,23.66-66.041c7.484-8.328,17.084-14.172,27.293-18.609
			c16.684-7.251,33.61-13.942,50.403-20.945c19.573-8.162,39.047-16.566,58.686-24.564c16.205-6.6,32.881-11.662,50.442-13.133
			c24.326-2.037,47.501,2.16,69.318,13.231c7.364,3.737,14.775,7.45,21.808,11.756c13.798,8.448,28.614,13.897,44.466,16.909
			c10.545,2.003,20.853,4.954,29.927,11.009c16.319,10.888,17.385,20.718,14.988,35.158c-2.078,12.514-6.293,24.68-9.674,36.97
			C1144.41,237.565,1142.298,244.36,1140.228,251.389z M1052.325,163.659c0.395-0.402,0.789-0.804,1.184-1.205
			c-0.932-1.262-1.647-2.795-2.832-3.739c-5.418-4.315-10.589-9.12-16.536-12.558c-23.99-13.869-49.995-20.021-77.636-17.806
			c-8.521,0.683-16.889,3.353-25.305,5.21c-1.558,0.344-3.426,0.719-3.306,3.781c2.21-0.229,4.385-0.197,6.424-0.71
			c9.647-2.427,19.333-4.677,29.324-4.848c13.016-0.223,25.822,1.579,38.345,5.062c17.529,4.875,34.086,11.682,47.19,24.992
			C1049.997,162.671,1051.266,163.062,1052.325,163.659z M852.106,215.973c-0.198-0.707-0.395-1.413-0.593-2.119
			c-2.06,0.319-4.179,0.43-6.171,0.991c-13.245,3.733-24.808,10.551-35.254,19.406c-10.074,8.539-17.702,18.819-22.44,31.187
			c-0.758,1.978-1.986,3.966,0.243,7.106c1.033-2.112,1.816-3.441,2.358-4.862c4.804-12.605,12.812-22.797,23.129-31.361
			c9.664-8.022,20.346-14.052,32.398-17.663C847.958,218.003,849.999,216.88,852.106,215.973z M863.424,245.765
			c-11.859,0.28-42.539,18.561-47.156,27.814c1.547-0.188,2.828-0.001,3.69-0.517c1.916-1.146,3.629-2.635,5.414-3.999
			c10.877-8.312,21.834-16.471,35.234-20.462C861.422,248.358,861.982,247.255,863.424,245.765z M1100.697,157.701
			c-1.448,2.265,0.125,3.811,0.918,5.325c3.462,6.601,5.517,13.428,4.448,21.003c-0.143,1.01,0.801,2.174,1.242,3.267
			c0.774-0.86,1.711-1.627,2.268-2.609c0.433-0.764,0.508-1.793,0.545-2.712c0.356-8.977-3.133-16.703-7.92-23.983
			C1102.061,157.785,1101.516,157.847,1100.697,157.701z"/>
        <path style="fill:#DE9575;" d="M1443.058,1223.109c1.43-1.826,2.541-3.025,3.401-4.382c4.22-6.663,8.178-13.501,12.613-20.015
			c3.255-4.781,6.754-9.497,10.766-13.639c6.68-6.896,13.39-13.667,18.156-22.138c2.724-4.842,7.024-7.848,12.644-8.346
			c8.023-0.711,16.065-1.294,24.111-1.63c2.555-0.106,5.229,0.485,7.711,1.223c4.938,1.468,6.241,4.256,3.999,8.97
			c-1.602,3.37-3.683,6.54-5.786,9.639c-11.433,16.85-25.103,31.781-39.618,45.983c-2.136,2.09-2.092,2.134-2.313,5.114
			c2.042,1.056,3.069-0.578,4.194-1.695c13.201-13.106,26.172-26.441,36.751-41.827c5.557-8.082,13.224-13.192,21.997-16.886
			c9.154-3.855,18.399-7.495,27.624-11.182c6.33-2.53,12.878-3.908,19.741-3.992c5.048-0.062,10.095-0.894,15.135-0.828
			c6.344,0.083,12.694,0.591,19.014,1.2c2.749,0.265,3.773,1.818,2.705,4.343c-1.218,2.879-2.859,5.742-4.929,8.066
			c-5.751,6.454-13.483,10.073-21.135,13.65c-18.864,8.817-37.74,17.611-56.722,26.169c-10.041,4.527-18.776,10.919-27.422,17.573
			c-9.964,7.669-19.826,15.521-30.234,22.55c-17.229,11.635-35.824,20.568-56.431,24.404c-26.658,4.962-51.731,0.607-73.788-15.542
			c-8.782-6.431-17.604-13.283-24.09-22.402c-0.517-0.727-1.019-1.463-1.801-2.587c5.491-2.339,9.14,4.711,14.886,1.962
			c-1.148-1.155-1.827-2.205-2.792-2.734c-2.298-1.26-4.705-2.332-7.113-3.374c-9.793-4.24-17.152-11.301-23.25-19.87
			c-5.333-7.495-10.696-14.969-16.094-22.417c-4.437-6.121-1.939-11.977,5.58-12.809c2.42-0.268,4.871-0.268,7.308-0.366
			c8.898-0.357,16.378,2.556,21.207,10.269c5.694,9.093,14.147,14.199,23.781,17.999c7.85,3.096,15.584,6.485,23.355,9.78
			c5.141,2.18,8.564,1.693,11.864-2.682c4.176-5.539,7.924-11.405,11.806-17.163c8.392-12.447,19.401-21.36,34.188-24.951
			c4.16-1.01,8.495-1.309,12.758-1.875c3.639-0.484,7.29-0.884,10.709-1.294c3.129,5.055,3.369,9.716,1.936,14.666
			c-2.327,8.042-6.577,15.104-10.932,22.128c-5.142,8.293-10.286,16.585-15.402,24.893
			C1442.212,1218.583,1440.926,1220.122,1443.058,1223.109z"/>
        <path style="fill:#4E68EC;" d="M1272.623,1165.968c4.641-0.256,8.373-0.685,12.089-0.568c1.69,0.053,3.754,0.764,4.934,1.912
			c2.802,2.724,5.187,5.88,7.716,8.882c0.357,0.423,0.468,1.233,0.882,1.403c5.359,2.208,4.362,7.239,5.079,11.441
			c3,17.579,6.251,35.093,12.645,51.838c12.136,31.787,34.36,53.653,65.591,66.655c21.893,9.115,44.787,12.526,68.314,11.165
			c20.507-1.187,39.81-7.036,57.777-17.125c1.505-0.845,3.18-1.385,4.776-2.066c0.227,0.298,0.454,0.597,0.681,0.895
			c-0.435,0.909-0.752,1.9-1.321,2.715c-22.991,32.962-54.747,52.208-93.852,59.923c-10.872,2.145-21.85,3.159-32.916,3.935
			c-15.121,1.06-29.97-0.183-44.691-3.217c-19.426-4.003-36.931-12.535-52.847-24.198c-7.703-5.644-14.743-12.184-22.259-18.095
			c-3.596-2.828-4.158-6.278-3.778-10.469c1.218-13.433,2.277-26.88,3.343-40.326c1.289-16.255,2.452-32.521,3.801-48.771
			c1.255-15.122,2.737-30.226,3.996-45.348C1272.861,1173.207,1272.623,1169.821,1272.623,1165.968z"/>
        <path style="fill:#FFFFFF;" d="M1309.361,1190.393c1.12,1.622,2.159,3.306,3.373,4.854c5.087,6.486,10.29,12.882,15.314,19.416
			c1.921,2.499,3.417,5.32,5.209,7.923c9.047,13.136,20.443,23.964,33.145,33.474c6.762,5.063,13.773,9.802,20.419,15.01
			c7.522,5.895,14.997,11.892,22.047,18.332c5.616,5.13,11.442,7.093,18.318,3.42c5.617-3,11.06-6.344,16.456-9.733
			c13.829-8.685,27.391-17.813,41.429-26.143c15.775-9.36,30.268-20.139,42.92-33.496c4.608-4.865,10.104-8.956,15.513-12.973
			c3.732-2.771,4.286-2.492,9.152-1.418c1.281,6.141,0.057,12.182-1.544,18.146c-4.666,17.375-12.722,33.258-21.761,48.679
			c-8.497,14.496-21.952,22.714-36.969,28.939c-19.247,7.979-39.269,10.824-60.021,9.8c-19.351-0.955-37.859-5.105-55.43-13.285
			c-31.4-14.617-51.251-39.107-60.858-72.063c-3.041-10.43-5.202-21.12-7.661-31.715c-0.492-2.119-0.509-4.347-0.745-6.525
			C1308.232,1190.821,1308.796,1190.607,1309.361,1190.393z"/>
        <path style="fill:#FFFFFF;" d="M487.794,702.616c-2.803,8.311-5.251,15.928-8.013,23.429c-0.515,1.398-2.113,2.648-3.511,3.43
			c-12.429,6.946-24.726,14.172-37.444,20.551c-28.195,14.141-58.169,24.086-87.186,36.298
			c-13.825,5.818-27.602,11.749-41.411,17.605c-1.461,0.62-2.989,1.079-5.928,2.128c1.365-3.873,2.207-6.432,3.163-8.949
			c7.525-19.807,15.232-39.546,22.531-59.436c2.835-7.726,4.753-15.789,7.116-23.69c0.373-1.247,0.894-2.45,1.39-3.792
			c16.67,0.826,33.237,2.402,49.788,2.254c16.444-0.147,32.914-1.612,49.295-3.262C454.095,707.519,470.511,704.917,487.794,702.616
			z"/>
        <path style="fill:#160B42;" d="M1042.157,1485.172c-34.676-0.357-68.032-0.701-102.122-1.052
			c1.188-14.65,2.315-28.543,3.469-42.776c32.472,1.252,64.235,5.994,96.974,2.488
			C1041.047,1457.839,1041.582,1471.023,1042.157,1485.172z"/>
        <path style="fill:#DE9575;" d="M632.885,574.547c-10.528,0.477-18.647-3.947-24.652-12.194
			c-5.872-8.064-6.447-16.377,0.372-24.202c9.43-10.821,20.339-19.967,33.373-26.253c7.898-3.809,16.76-4.13,24.351,4.662
			c7.973,9.234,12.178,19.762,10.895,32.015c-0.435,4.157-1.085,8.74-6.407,10.154c-0.82,0.218-1.478,1.111-2.169,1.739
			C658.491,569.705,646.303,573.706,632.885,574.547z"/>
        <path style="fill:#160B42;" d="M939.94,1441.053c-1.353,14.657-2.621,28.392-3.955,42.837c-27.179-0.57-54.261-0.933-81.612-1.964
			c0-3.237-0.236-5.832,0.044-8.371c0.88-7.997,2.015-15.967,2.918-23.962c0.279-2.473,1.455-3.528,3.845-3.982
			c7.358-1.397,14.66-3.092,22.025-4.453c3.483-0.643,7.059-1.118,10.59-1.1c11.252,0.058,22.503,0.37,33.753,0.609
			C931.451,1440.75,935.353,1440.907,939.94,1441.053z"/>
        <path style="fill:#160B42;" d="M770.249,1480.208c1.682-12.112,3.292-23.706,5.001-36.012c13.079,1.234,25.991,2.977,38.954,3.528
			c13.018,0.553,26.087-0.081,39.706-0.199c-1.428,11.006-2.901,22.356-4.454,34.319
			C823.379,1481.829,797.247,1481.16,770.249,1480.208z"/>
        <path style="fill:#160B42;" d="M835.179,1233.728c1.029-9.206,2.122-20.968,3.7-32.664c2.732-20.253,5.752-40.468,8.672-60.695
			c3.241-22.453,6.42-44.915,9.781-67.35c3.806-25.405,7.738-50.791,11.699-76.172c4.308-27.603,8.843-55.17,13.032-82.79
			c3.345-22.06,6.339-44.173,9.454-66.268c4.03-28.586,8.097-57.167,12.012-85.769c2.771-20.243,5.536-40.491,7.881-60.786
			c1.525-13.2,0.638-26.269-4.931-38.656c-0.459-1.021-0.692-2.141-1.081-3.196c-1.923-5.215-1.538-9.161,3.511-13.156
			c7.179-5.681,13.339-12.638,21.167-17.616c3.531-2.245,4.769-2.447,7.414,0.076c6.254,5.967,12.462,11.983,18.591,18.077
			c3.019,3.002,2.995,3.798,0.47,7.191c-4.259,5.722-8.621,11.368-12.829,17.127c-4.315,5.905-5.473,12.187-4.074,19.651
			c6.875,36.678,12.679,73.537,16.495,110.677c2.03,19.755,3.904,39.528,5.617,59.313c2.072,23.93,3.331,47.903,3.446,71.935
			c0.1,20.856,0.677,41.711,0.618,62.566c-0.052,18.589-0.805,37.174-1.035,55.764c-0.346,28.001-0.914,56.01-0.599,84.006
			c0.205,18.167,1.828,36.316,2.794,54.475c0.916,17.231,1.764,34.465,2.718,51.693c0.407,7.354-1.938,13.724-6.699,19.183
			c-5.303,6.081-10.7,12.086-16.223,17.968c-8.357,8.899-16.761,17.758-25.346,26.435c-3.284,3.319-6.974,6.291-10.741,9.064
			c-5.948,4.38-12.336,4.527-18.322,0.242c-5.172-3.702-10.277-7.63-14.799-12.08c-11.773-11.588-23.391-23.344-33.3-36.652
			C837.83,1256.67,835.354,1246.864,835.179,1233.728z"/>
        <path style="fill:#858585;" d="M1101.317,403.074c-2.112,13.874-3.539,27.897-6.533,41.578
			c-2.857,13.055-10.855,22.57-24.232,26.474c-7.512,2.193-15.18,2.24-22.863,0.837c-13.53-2.47-24.791-9.412-35.186-17.988
			c-7.747-6.392-14.504-13.661-18.678-22.951c-5.309-11.815-5.953-23.98-1.724-36.2c4.497-12.996,14.655-19.075,28.165-16.687
			c10.885,1.924,21.601,4.815,32.495,6.679c8.845,1.514,17.835,2.201,26.774,3.135c4.987,0.521,10.008,0.709,14.996,1.216
			c3.288,0.334,5.29,2.293,5.774,5.92c0.344,2.582,0.067,5.247,0.067,7.875C1100.686,403,1101.002,403.037,1101.317,403.074z"/>

        <ellipse transform="matrix(0.7351 -0.678 0.678 0.7351 -234.0651 1288.7169)" style="fill:#BDBDBD;" cx="1531.967" cy="943.86" rx="71.78" ry="61.065"/>
        <path style="fill:#2842C7;" d="M739.9,733.034c-3.896-2.164-7.674-3.876-11.028-6.199c-10.288-7.124-13.011-16.703-7.826-28.055
			c2.254-4.934,5.221-9.553,8.007-14.231c2.012-3.379,4.257-6.62,6.403-9.918c1.107-1.701,2.055-4.13,4.677-2.544
			c2.539,1.535,1.063,3.686,0.074,5.424c-2.971,5.227-6.172,10.325-9.091,15.579c-2.089,3.76-4.172,7.574-5.714,11.574
			c-2.014,5.227-0.602,10.013,3.247,14.006c4.724,4.9,10.656,7.698,17.212,9.023c1.597,0.323,3.689-0.37,5.192-1.229
			c24.5-14.01,48.518-28.774,71.013-45.893c1.191-0.906,2.393-2.018,3.765-2.392c1-0.272,2.574,0.215,3.341,0.944
			c0.452,0.429,0.18,2.271-0.388,2.981c-1.033,1.293-2.502,2.249-3.834,3.289c-20.052,15.651-41.35,29.41-63.381,42.1
			c-8.299,4.78-16.234,10.193-24.333,15.319c-0.159,0.1-0.296,0.234-0.453,0.337c-22.403,14.662-30.41,35.47-27.386,61.666
			c2.723,23.583,7.396,46.771,12.451,69.902c7.585,34.71,13.829,69.658,19.962,104.647c4.116,23.485,9.508,46.764,14.885,70.006
			c4.401,19.025,9.623,37.86,14.478,56.78c0.232,0.904,0.751,1.886,0.567,2.704c-0.22,0.977-0.919,2.406-1.653,2.573
			c-1.037,0.236-2.793-0.141-3.355-0.907c-1.074-1.464-1.733-3.331-2.199-5.126c-4.104-15.818-8.444-31.584-12.102-47.506
			c-5.679-24.716-11.241-49.471-16.175-74.344c-4.68-23.588-8.212-47.402-12.759-71.018c-4.334-22.508-9.457-44.862-13.985-67.334
			c-3.119-15.479-5.973-31.032-6.393-46.878c-0.149-5.622-0.044-11.308,0.62-16.884c1.702-14.311,8.764-25.857,19.519-35.167
			C728.496,741.73,734.099,737.622,739.9,733.034z"/>
        <path style="fill:#2842C7;" d="M665.012,1375.562c-14.918,0-25.245,0-35.572,0c-0.75,0-1.675,0.269-2.211-0.071
			c-0.996-0.634-2.407-1.592-2.452-2.476c-0.048-0.948,1.083-2.307,2.056-2.86c1.068-0.607,2.543-0.675,3.84-0.675
			c11.259-0.001,22.53-0.244,33.774,0.189c14.448,0.556,28.882,1.57,43.306,2.612c3.896,0.281,7.848,1.012,11.568,2.19
			c4.765,1.508,6.664,4.72,5.728,9.585c-2.323,12.067-8.987,19.455-22.149,18.024c-11.757-1.278-23.462-3.143-35.243-4.059
			c-14.224-1.106-28.503-1.485-42.759-2.18c-1.497-0.073-3.079,0.108-4.461-0.333c-0.837-0.267-1.869-1.491-1.891-2.311
			c-0.023-0.842,0.9-2.115,1.726-2.477c1.133-0.497,2.564-0.397,3.869-0.408c24.271-0.208,48.436,1.083,72.433,4.953
			c3.319,0.535,6.733,0.707,10.099,0.671c6.481-0.071,12.592-6.428,12.286-12.854c-0.052-1.093-1.421-2.779-2.475-3.05
			c-3.616-0.929-7.341-1.652-11.063-1.914C690.432,1377.061,675.429,1376.207,665.012,1375.562z"/>
        <path style="fill:#2842C7;" d="M591.666,961.816c-0.551,0.739-1.229,2.457-2.008,2.504c-1.2,0.072-2.833-0.706-3.612-1.667
			c-0.881-1.087-1.052-2.766-1.48-4.203c-10.756-36.13-25.273-70.642-44.366-103.188c-0.659-1.123-1.45-2.3-1.625-3.53
			c-0.13-0.914,0.374-2.399,1.079-2.818c0.712-0.424,2.205-0.144,3.015,0.367c0.883,0.557,1.443,1.692,2.029,2.647
			c20.46,33.341,35.309,69.116,46.204,106.603C591.162,959.424,591.328,960.346,591.666,961.816z"/>
        <path style="fill:#2842C7;" d="M451.947,1039.752c0,3.938,0.069,7.877-0.031,11.812c-0.045,1.764-0.597,3.496-2.839,3.443
			c-2.115-0.05-2.742-1.693-3.005-3.454c-0.138-0.921-0.095-1.871-0.111-2.808c-0.316-18.028-1.56-35.966-5.139-53.682
			c-0.148-0.732-0.556-1.618-0.297-2.182c0.497-1.083,1.252-2.586,2.152-2.788c0.829-0.186,2.464,0.881,2.901,1.798
			c0.787,1.651,1.002,3.592,1.356,5.432C449.626,1011.341,451.461,1025.457,451.947,1039.752z"/>
        <path d="M851.176,1889.205c-1.783-0.11-3.383-0.208-5.47-0.337c0.433-6.469,0.868-12.592,1.249-18.718
			c1.424-22.895,2.918-45.787,4.216-68.689c1.16-20.465,1.961-40.95,3.165-61.412c1.878-31.909,3.695-63.826,6.041-95.702
			c2.07-28.122,4.809-56.195,7.29-84.287c1.604-18.165,3.275-36.324,4.915-54.486c0.101-1.122-0.13-2.427,0.374-3.319
			c0.562-0.994,1.781-2.204,2.725-2.214c0.798-0.008,2.145,1.478,2.306,2.458c0.33,2.006,0.143,4.125-0.032,6.181
			c-3.235,38.029-6.777,76.033-9.68,114.087c-3.003,39.37-5.607,78.774-7.982,118.187c-1.912,31.722-3.115,63.486-4.845,95.219
			c-0.901,16.521-2.252,33.017-3.439,49.522C851.932,1886.769,851.514,1887.819,851.176,1889.205z"/>
        <path d="M933.925,1528.552c-2.233,48.837-9.38,96.842-24.09,143.571c-3.448,10.953-7.828,21.537-13.613,31.498
			c-5.234,9.013-11.571,17.13-19.509,23.929c-1.64,1.405-3.527,3.825-5.691,1.367c-2.133-2.423,0.424-4.087,2.036-5.519
			c13.477-11.971,21.434-27.428,27.698-43.917c8.441-22.221,13.559-45.334,17.86-68.629c4.783-25.902,8.039-52.002,9.069-78.345
			c0.235-6.01,0.168-12.033,0.244-18.049c0.017-1.316-0.31-2.79,0.178-3.902c0.511-1.165,1.813-1.983,2.769-2.952
			c0.951,0.969,2.565,1.84,2.726,2.926c0.437,2.951,0.285,5.992,0.318,8.998C933.951,1522.534,933.925,1525.543,933.925,1528.552z"
        />
        <path d="M1243.278,1133.625c0.603-2.091,0.953-3.358,1.334-4.615c37.748-124.579,75.498-249.157,113.256-373.732
			c0.379-1.252,0.588-2.716,1.391-3.63c0.725-0.826,2.312-1.604,3.231-1.352c0.905,0.248,1.989,1.796,2.026,2.809
			c0.059,1.618-0.609,3.288-1.096,4.898c-24.554,81.079-49.119,162.155-73.689,243.229c-13.021,42.964-26.052,85.925-39.08,128.886
			c-0.436,1.438-0.807,2.903-1.359,4.296c-0.661,1.669-1.89,3.331-3.734,2.497
			C1244.383,1136.379,1243.829,1134.478,1243.278,1133.625z"/>
        <path d="M900.399,656.089c-2.216,1.456-3.555,2.422-4.974,3.25c-2.916,1.703-5.753,3.617-8.84,4.937
			c-8.482,3.625-16.037,2.042-21.795-5.086c-3.514-4.349-6.163-9.405-9.116-14.196c-1.054-1.71-1.58-3.67,0.684-4.845
			c2.011-1.043,3.101,0.534,4.006,2.015c1.666,2.726,3.181,5.549,4.929,8.22c7.426,11.341,13.53,12.821,24.778,5.013
			c6.763-4.695,12.785-10.457,19.15-15.728c6.217-5.149,12.321-10.445,18.706-15.377c5.699-4.402,8.159-4.189,13.171,0.834
			c13.817,13.846,27.531,27.793,41.285,41.7c1.719,1.738,3.425,3.489,5.161,5.211c4.695,4.656,10.181,5.605,16.03,2.762
			c4.2-2.041,8.619-4.112,12.041-7.175c7.967-7.129,15.393-14.861,23.03-22.357c1.338-1.314,2.442-3.023,4.018-3.879
			c0.978-0.531,2.898-0.17,3.897,0.516c0.544,0.374,0.146,2.275-0.025,3.459c-0.069,0.479-0.651,0.892-1.019,1.319
			c-7.979,9.282-16.043,18.532-26.016,25.734c-4.678,3.378-9.8,6.367-15.117,8.581c-7.618,3.173-14.836,1.598-20.759-4.318
			c-5.721-5.714-11.282-11.589-16.859-17.446c-1.283-1.347-2.34-2.909-3.957-4.948c-6.589,8.435-13.048,15.512-17.224,24.171
			c-1.137,2.358-1.474,5.517-1.068,8.136c2.301,14.855,5.283,29.61,7.388,44.49c3.897,27.539,7.856,55.086,10.838,82.732
			c2.862,26.534,5.001,53.169,6.587,79.812c2.101,35.309,2.02,70.681,1.526,106.051c-0.607,43.444-1.302,86.895-1.136,130.339
			c0.086,22.543,1.887,45.082,3.026,67.618c0.712,14.081,1.671,28.149,2.451,42.227c0.515,9.308-2.556,17.425-8.773,24.268
			c-8.978,9.883-18.017,19.714-27.206,29.401c-6.468,6.819-12.943,13.675-19.917,19.958c-12.712,11.452-21.899,11.724-34.925,0.804
			c-15.752-13.205-29.755-28.181-42.538-44.278c-8.18-10.301-12.156-22.07-11.118-35.189c1.022-12.918,2.313-25.833,4.04-38.674
			c3.758-27.942,7.774-55.85,11.859-83.746c4.602-31.427,9.306-62.839,14.129-94.233c5.764-37.523,11.903-74.989,17.504-112.536
			c5.407-36.249,10.358-72.565,15.468-108.858c3.799-26.986,7.724-53.957,11.207-80.984c1.558-12.09,3.598-24.315,1.493-36.505
			C905.12,671.752,902.609,664.423,900.399,656.089z M934.541,627.462c-8.436,4.793-14.915,10.773-21.359,16.833
			c-8.695,8.176-8.948,8.185-4.711,19.313c4.319,11.342,5.545,23.02,4.307,34.936c-1.612,15.514-3.38,31.021-5.541,46.466
			c-7.658,54.72-15.317,109.441-23.361,164.105c-5.553,37.739-11.815,75.374-17.622,113.076
			c-4.434,28.789-8.731,57.601-12.944,86.423c-4.078,27.893-8.089,55.797-11.897,83.728c-1.853,13.589-3.407,27.228-4.671,40.884
			c-1.179,12.74,2.593,24.149,10.682,34.097c1.542,1.897,2.941,3.928,4.622,5.691c10.122,10.612,20.155,21.314,30.55,31.653
			c3.688,3.668,8.123,6.693,12.552,9.479c4.291,2.699,9.042,2.508,13.365-0.245c2.84-1.808,5.745-3.715,8.055-6.121
			c15.234-15.868,30.352-31.848,45.424-47.87c5.294-5.627,7.481-12.552,7.217-20.18c-0.266-7.701-0.775-15.396-1.251-23.089
			c-1.264-20.454-2.857-40.892-3.794-61.36c-1.981-43.243-1.085-86.509,0.092-129.748c1.53-56.257,1.37-112.459-3.578-168.552
			c-2.395-27.143-4.893-54.305-8.486-81.307c-3.865-29.045-9.032-57.917-13.721-86.85c-0.913-5.632-0.391-10.917,2.871-15.655
			c3.941-5.724,8.072-11.319,12.149-16.949c1.401-1.934,2.886-3.807,4.332-5.708c-0.458,0.193-0.916,0.385-1.373,0.578
			C949.192,643.264,941.937,635.439,934.541,627.462z"/>
        <path style="fill:#B8C4FF;" d="M904.673,1348.195c-1.685,20.591-3.361,41.184-5.07,61.773c-0.155,1.867-0.49,3.723-0.807,5.572
			c-0.361,2.11-0.859,4.41-3.682,3.935c-2.885-0.485-2.366-3.003-2.179-4.992c0.386-4.112,1.091-8.195,1.419-12.31
			c1.462-18.351,2.836-36.709,4.247-55.064c0.216-2.809,0.443-5.617,0.697-8.422c0.146-1.612,0.697-3.083,2.585-3.091
			c2.296-0.01,2.608,1.761,2.631,3.546c0.039,3.003,0.011,6.007,0.011,9.01C904.575,1348.166,904.624,1348.181,904.673,1348.195z"/>
        <path style="fill:#2842C7;" d="M1274.195,852.473c1.611-28.52,2.864-57.066,4.938-85.552c1.883-25.861,5.152-51.594,9.832-77.123
			c0.438-2.388,0.482-5.574,3.831-5.084c3.435,0.503,2.416,3.619,2.078,5.954c-2.12,14.687-4.703,29.322-6.321,44.063
			c-2.132,19.419-3.787,38.901-5.165,58.389c-2.732,38.654-2.972,77.384-3.009,116.115c-0.002,2.229,0.884,5.644-2.791,5.578
			c-3.214-0.058-2.5-3.281-2.508-5.354c-0.075-18.985-0.044-37.97-0.044-56.955C1274.756,852.494,1274.476,852.484,1274.195,852.473
			z"/>
        <path style="fill:#2842C7;" d="M1191.834,844.917c-11.674,0.395-23.129,0.823-34.587,1.131c-2.096,0.056-4.818,0.871-5.586-2.267
			c-0.488-1.998,1.435-2.992,5.452-3.21c18.574-1.009,37.14-2.198,55.723-3.019c6.914-0.305,13.928-0.315,20.782,0.504
			c7.718,0.923,10.909,4.931,10.447,12.705c-0.4,6.721-1.718,13.391-2.714,20.07c-0.442,2.969-1.132,5.9-1.633,8.861
			c-0.857,5.061-3.967,8.226-8.792,9.101c-6.265,1.137-12.63,2.052-18.982,2.314c-21.407,0.883-42.828,1.436-64.243,2.107
			c-1.69,0.053-3.389,0.13-5.072,0.023c-1.978-0.126-3.923-0.671-3.838-3.154c0.085-2.464,2.117-2.835,4.045-2.995
			c1.683-0.14,3.381-0.099,5.071-0.155c23.29-0.773,46.581-1.507,69.868-2.369c3.549-0.131,7.1-0.722,10.605-1.349
			c2.986-0.534,5.024-2.122,5.545-5.484c1.238-7.979,2.887-15.896,4.018-23.888c1.074-7.591-0.537-9.966-8.056-10.114
			c-10.874-0.214-21.766,0.442-32.649,0.763C1195.362,844.546,1193.491,844.782,1191.834,844.917z"/>
        <path style="fill:#2842C7;" d="M1185.964,910.388c-1.912,16.033-3.808,32.068-5.742,48.098
			c-2.832,23.488-5.625,46.982-8.555,70.458c-3.349,26.826-6.82,53.637-10.277,80.449c-0.239,1.852-0.538,3.792-1.33,5.44
			c-0.447,0.93-2.034,1.943-2.969,1.825c-0.891-0.113-2.048-1.547-2.281-2.582c-0.313-1.393,0.087-2.969,0.284-4.452
			c2.893-21.772,5.93-43.526,8.674-65.316c3.002-23.843,5.675-47.727,8.607-71.58c2.337-19.007,4.845-37.992,7.288-56.985
			c0.264-2.048,0.603-4.086,0.911-6.128c0.291-1.932,0.663-4.018,3.253-3.624C1186.314,906.368,1186.267,908.439,1185.964,910.388z"
        />
        <path style="fill:#2842C7;" d="M1146.144,675.835c-1.053,2.199-1.945,5.111-3.677,7.383c-1.782,2.338-4.185,4.355-6.666,5.979
			c-6.589,4.312-13.36,8.345-20.074,12.465c-0.793,0.487-1.702,1.184-2.521,1.139c-1.344-0.074-2.659-0.678-3.986-1.058
			c0.38-1.301,0.43-2.878,1.226-3.83c0.91-1.086,2.502-1.587,3.768-2.39c6.651-4.217,13.461-8.21,19.887-12.746
			c6.007-4.24,6.28-6.299,4.416-13.491c-2.067-7.977-3.856-16.026-5.762-24.045c-0.13-0.548-0.275-1.1-0.321-1.658
			c-0.169-2.052-0.664-4.543,2.187-4.936c2.924-0.403,2.86,2.186,3.345,4.183c1.992,8.19,4.077,16.358,6.118,24.536
			C1144.717,669.9,1145.32,672.442,1146.144,675.835z"/>
        <path style="fill:#2842C7;" d="M1169.716,1384.473c-20.109,0.506-40.219,0.963-60.325,1.561c-3.93,0.117-7.887,0.54-11.753,1.251
			c-3.716,0.683-4.553,1.799-3.872,5.496c0.778,4.227,2.142,8.349,3.311,12.5c0.591,2.097,2.16,3.002,4.25,3
			c3.382-0.003,6.776,0.09,10.146-0.141c23.811-1.634,47.605-3.537,71.429-4.948c13.128-0.777,26.303-0.738,39.455-1.125
			c5.631-0.166,11.261-0.42,16.885-0.758c1.997-0.12,4.022-0.295,4.388,2.191c0.341,2.319-1.47,3.417-3.418,3.717
			c-3.141,0.484-6.325,0.798-9.501,0.916c-24.976,0.933-49.964,1.603-74.93,2.767c-14.636,0.682-29.233,2.174-43.855,3.181
			c-3.928,0.271-7.89,0.21-11.831,0.101c-4.432-0.122-7.468-2.345-8.714-6.668c-1.351-4.686-2.84-9.357-3.788-14.13
			c-1.237-6.226,1.414-10.302,7.504-11.816c3.083-0.767,6.304-1.308,9.471-1.352c42.668-0.597,85.338-1.099,128.008-1.571
			c2.132-0.024,4.837-0.52,5.439,2.601c0.375,1.94-1.515,2.937-5.689,2.943c-20.869,0.03-41.737,0.014-62.606,0.014
			C1169.718,1384.291,1169.717,1384.382,1169.716,1384.473z"/>
        <path style="fill:#2842C7;" d="M1150.563,1272.445c-1.98,28.88-3.95,57.761-5.969,86.638c-0.115,1.644-0.377,3.383-1.074,4.836
			c-0.343,0.714-1.853,1.209-2.809,1.171c-0.649-0.026-1.66-1.077-1.796-1.803c-0.305-1.631-0.297-3.354-0.188-5.025
			c1.898-29.263,3.782-58.526,5.77-87.782c1.72-25.315,3.565-50.62,5.366-75.929c0.093-1.31,0.046-2.715,0.529-3.884
			c0.364-0.883,1.637-2.158,2.21-2.021c1.053,0.251,2.215,1.249,2.719,2.246c0.449,0.887,0.121,2.196,0.05,3.314
			c-1.658,26.076-3.327,52.152-4.994,78.228C1150.439,1272.436,1150.501,1272.441,1150.563,1272.445z"/>
        <path style="fill:#FFFFFF;" d="M1106.849,400.642c-2.121,14.657-3.343,29.516-6.58,43.923
			c-4.499,20.024-17.691,30.92-37.722,33.229c-8.558,0.986-16.932-0.428-24.9-3.428c-17.485-6.583-31.985-17.413-42.927-32.546
			c-9.928-13.73-12.484-29.106-8.115-45.524c1.466-5.51,3.978-10.519,7.872-14.766c4.646-5.068,10.363-8.424,17.237-8.377
			c6.512,0.045,13.132,0.634,19.5,1.962c13.96,2.913,27.784,6.497,42.062,7.618c6.551,0.515,13.114,0.882,19.663,1.409
			c8.832,0.711,12.699,4.742,13.156,13.578c0.048,0.937,0.006,1.878,0.006,2.817
			C1106.349,400.573,1106.599,400.607,1106.849,400.642z"/>
        <path d="M1004.93,248.351c5.299,0.174,10.145,1.287,13.962,5.183c2.754,2.811,4.622,6.095,3.336,10.143
			c-1.189,3.742-4.608,4.877-7.989,5.349c-6.872,0.961-13.802,1.501-20.691,2.35c-11.172,1.377-22.321,2.939-33.499,4.252
			c-2.752,0.323-5.666,0.404-8.355-0.143c-3.974-0.809-5.639-4.077-3.849-7.684c1.108-2.234,2.997-4.338,5.045-5.777
			c2.083-1.464,4.722-2.291,7.234-2.964c11.772-3.153,23.57-6.217,35.393-9.174C998.591,249.118,1001.789,248.849,1004.93,248.351z"
        />
        <path style="fill:#C26C49;" d="M1084.72,333.218c0.058,4.498-1.241,8.648-4.071,12.027c-3.239,3.867-6.901,7.388-10.469,10.969
			c-1.462,1.467-3.3,2.051-4.913,0.245c-1.447-1.622-0.525-3.2,0.698-4.476c2.335-2.437,4.815-4.735,7.151-7.171
			c7.362-7.677,7.406-16.195,0.095-23.892c-2.323-2.446-4.85-4.697-7.219-7.101c-5.946-6.034-8.599-13.518-9.289-21.78
			c-0.178-2.131-0.772-5.133,2.385-5.389c3.18-0.259,2.897,2.68,3.114,4.888c0.803,8.183,4.037,15.127,10.376,20.544
			c2.135,1.824,4.159,3.798,6.083,5.845C1082.682,322.208,1084.689,327.335,1084.72,333.218z"/>
        <path d="M1001.328,303.476c2.286,0.405,6.536,1.039,10.722,1.963c1.596,0.352,3.133,1.232,4.541,2.118
			c1.839,1.156,3.204,2.829,2.45,5.159c-0.747,2.307-2.755,2.984-4.971,2.766c-3.164-0.311-6.311-0.795-9.463-1.226
			c-11.727-1.602-23.158-0.382-34.3,3.588c-0.705,0.251-1.415,0.81-2.088,0.759c-1.359-0.102-3.767-0.357-3.844-0.847
			c-0.259-1.656-0.034-3.606,0.688-5.118c0.468-0.979,2.077-1.492,3.257-2.038C978.149,306.049,988.524,303.864,1001.328,303.476z"
        />
        <path style="fill:#C26C49;" d="M839.651,364.341c-2.92-4.446-6.577-7.099-11.092-7.794c-2.338-0.36-4.996,0.88-7.408,1.697
			c-1.185,0.401-2.041,1.815-3.225,2.163c-1.06,0.312-2.901,0.2-3.417-0.474c-0.547-0.716-0.403-2.939,0.245-3.42
			c2.81-2.088,5.699-4.516,8.955-5.465c7.168-2.09,18.658,4.098,21.642,10.992c1.424,3.29,0.65,5.834-2.477,7.621
			c-1.458,0.833-3.109,1.327-4.583,2.137c-3.845,2.111-4.693,4.589-2.559,8.332c1.291,2.264,3.071,4.25,4.633,6.359
			c1.245,1.681,2.836,3.562,0.758,5.411c-2.029,1.805-3.903,0.364-5.258-1.338c-1.983-2.491-4.069-4.963-5.626-7.717
			c-3.628-6.417-1.722-12.65,4.715-16.258C836.247,365.863,837.631,365.3,839.651,364.341z"/>
        <path d="M1130.012,322.06c-1.871-0.451-3.293-0.481-4.373-1.105c-6.033-3.489-12.547-3.403-19.154-2.871
			c-3.362,0.271-6.724,0.665-10.091,0.732c-2.345,0.047-4.618-0.64-5.056-3.442c-0.438-2.802,1.592-4.062,3.751-4.901
			c4.848-1.882,9.947-1.883,15-1.37c6.955,0.707,13.595,2.701,19.901,5.735c0.991,0.477,2.148,1.029,2.695,1.886
			c0.527,0.826,0.85,2.424,0.395,3.09C1132.358,320.876,1130.913,321.445,1130.012,322.06z"/>
        <path style="fill:#4A4270;" d="M1055.648,162.789c-1.535,0.855-2.62,1.882-3.771,1.962c-0.886,0.062-2-0.922-2.765-1.688
			c-13.765-13.768-31.02-20.86-49.385-25.756c-21.326-5.685-42.673-6.196-64,0.119c-1.792,0.531-3.679,1.137-5.492,1.053
			c-1.182-0.055-2.31-1.296-3.462-2.006c0.773-1.143,1.438-2.387,2.366-3.386c0.444-0.479,1.383-0.508,2.105-0.717
			c38.173-11.102,73.991-5.097,107.671,15.208c4.928,2.971,9.081,7.247,13.498,11.031
			C1053.502,159.54,1054.217,160.906,1055.648,162.789z"/>
        <path style="fill:#4A4270;" d="M785.121,269.743c0.956-2.643,1.592-4.605,2.366-6.512c7.319-18.027,20.422-30.932,36.95-40.39
			c6.777-3.878,14.329-6.456,21.655-9.301c4.074-1.582,6.396-0.969,7.029,0.928c0.657,1.967-0.836,3.608-5.115,4.806
			c-15.578,4.361-28.774,12.662-40.234,23.92c-7.216,7.089-12.569,15.387-16.17,24.826c-0.334,0.876-0.383,2.019-0.987,2.597
			c-0.962,0.923-2.368,2.125-3.419,1.982C786.325,272.482,785.693,270.596,785.121,269.743z"/>
        <path style="fill:#4A4270;" d="M861.785,244.119c0.617,0.487,2.192,1.129,2.345,2.016c0.155,0.904-1.054,2.072-1.744,3.07
			c-0.185,0.268-0.641,0.391-0.997,0.493c-13.714,3.916-24.732,12.456-35.832,20.86c-1.796,1.36-3.527,2.925-5.541,3.832
			c-1.06,0.477-2.668-0.264-4.028-0.456c0.205-1.345-0.091-3.322,0.689-3.942c13.109-10.408,26.223-20.865,42.793-25.469
			C860.008,244.374,860.575,244.326,861.785,244.119z"/>
        <path style="fill:#4A4270;" d="M1111.374,181.046c-0.16,1.184-0.212,3.492-0.876,5.609c-0.295,0.941-1.879,2.127-2.775,2.047
			c-0.899-0.08-1.816-1.508-2.439-2.521c-0.338-0.549-0.208-1.489-0.073-2.211c1.361-7.256-1.067-13.707-4.175-20.023
			c-0.497-1.01-1.087-1.99-1.451-3.047c-0.561-1.629-1.106-3.654,1.077-4.227c1.02-0.267,2.857,0.693,3.62,1.655
			C1108.081,163.121,1111.497,173.974,1111.374,181.046z"/>
        <path style="fill:#2842C7;" d="M1066.683,1146.155c2.131-10.59,4.182-20.846,6.259-31.097
			c12.922-63.792,31.31-126.138,49.386-188.591c11.54-39.872,21.568-80.182,32.362-120.272c3.712-13.785,7.355-27.605,11.645-41.215
			c4.601-14.597,0.607-25.967-11.771-34.349c-8.702-5.894-17.678-11.426-26.807-16.636c-13.22-7.544-26.745-14.552-40.028-21.989
			c-5.734-3.21-11.19-6.917-16.77-10.404c-0.957-0.598-1.863-1.285-2.852-1.821c-1.642-0.89-3.547-1.151-4.327,0.784
			c-0.422,1.046,0.157,2.877,0.901,3.909c0.832,1.153,2.307,1.896,3.598,2.655c12.149,7.143,24.254,14.364,36.5,21.337
			c11.105,6.324,22.474,12.19,33.52,18.613c5.339,3.105,10.319,6.873,15.259,10.608c7.746,5.856,10.275,13.556,7.529,22.964
			c-2.527,8.656-5.09,17.305-7.386,26.023c-8.136,30.884-15.789,61.9-24.329,92.671c-10.902,39.28-22.573,78.346-33.755,117.549
			c-13.718,48.092-25.034,96.76-34.489,145.864c-0.244,1.265-0.616,2.505-1.078,4.357l10.513-0.792
			C1069.477,1146.411,1068.369,1146.237,1066.683,1146.155z"/>
        <path style="fill:#2842C7;" d="M1048.724,1220.629c-0.198,1.888-0.259,4.169,2.323,4.309c2.363,0.128,2.862-1.934,3.157-3.903
			c1.499-10.035,2.993-20.071,4.565-30.095c0.635-4.051,1.465-8.071,2.274-12.476l-6.524,0.438
			c-1.504,10.296-2.887,19.575-4.203,28.864C1049.709,1212.042,1049.175,1216.333,1048.724,1220.629z"/>
        <path d="M1798.863,734.095c-2.554-8.581-8.582-13.596-17.521-13.596c-44.02,0-88.039,0.003-132.059,0.003
			c-93.306,0-186.613,0.049-279.919-0.079c-8.964-0.012-15.607,3.228-20.244,10.806c-0.643,1.051-1.448,2.002-2.366,3.257
			c-0.568-0.815-0.943-1.2-1.141-1.661c-5.401-12.6-10.598-25.291-16.234-37.785c-3.876-8.591-8.995-16.499-15.106-23.725
			c-9.682-11.45-21.592-19.292-36.543-21.698c-10.937-1.76-21.942-3.221-32.969-4.266c-17.403-1.65-34.893-2.528-52.064-6.083
			c-17.111-3.542-34.18-7.291-51.293-10.826c-1.881-0.389-2.917-1.243-3.873-2.785c-3.966-6.397-9.858-10.008-17.019-12.119
			c-6.829-2.013-13.77-4.031-20.151-7.106c-14.855-7.158-29.402-14.954-44.695-22.81c0-7.386,0-15.367,0-23.487
			c2.328-0.538,4.32-0.997,6.312-1.459c2.197-0.51,4.408-0.964,6.586-1.543c29.612-7.863,53.395-23.674,69.023-50.619
			c11.639-20.068,17.751-41.857,19.223-64.847c2.103-32.833-0.667-65.405-7.191-97.617c-3.709-18.313-6.232-36.645-5.566-55.407
			c0.266-7.471-0.908-14.99-1.316-22.493c-0.088-1.629,0.062-3.351,0.504-4.917c3.974-14.099,8.011-28.18,12.084-42.251
			c2.926-10.11,6.095-20.155,6.752-30.767c0.735-11.874-3.028-21.969-12.38-29.431c-4.364-3.482-9.187-6.707-14.305-8.849
			c-7.062-2.956-14.461-5.499-21.961-6.936c-17.042-3.267-32.765-9.442-47.52-18.508c-6.71-4.123-13.798-7.686-20.916-11.081
			c-23.47-11.193-48.092-15.651-74.035-12.339c-15.403,1.967-30.216,6.146-44.532,11.931c-20.905,8.448-41.605,17.402-62.425,26.061
			c-15.961,6.638-32.042,12.988-47.934,19.785c-9.01,3.854-17.454,8.847-24.922,15.283c-17.649,15.21-26.794,35.008-30.441,57.581
			c-2.974,18.404,0.529,35.501,11.254,50.978c0.874,1.262,1.211,3.063,1.322,4.648c0.157,2.237-0.244,4.507-0.207,6.759
			c0.202,12.208-0.182,24.471,0.856,36.61c1.7,19.885,8.392,38.46,16.872,56.424c10.313,21.845,22.756,42.4,37.339,61.644
			c7.679,10.134,13.953,20.934,17.474,33.242c0.823,2.877,1.939,5.72,3.308,8.378c1.777,3.451,3.942,6.703,6.733,11.367
			c-0.146,24.835-3.312,51.091-6.431,76.439c-5.638,3.479-10.692,6.351-15.473,9.622c-4.028,2.755-7.777,5.925-11.584,8.993
			c-19.47,15.695-38.919,31.416-58.374,47.13c-4.968,4.013-9.909,8.061-14.913,12.029c-1.154,0.915-2.444,1.731-3.791,2.316
			c-11.032,4.79-22.062,9.587-33.15,14.243c-22.349,9.386-44.7,18.77-67.116,27.995c-21.661,8.914-38.313,23.423-49.995,43.724
			c-6.001,10.428-12.034,20.844-18.351,31.082c-6.018,9.754-12.276,19.369-18.702,28.859c-5.785,8.542-13.678,14.323-23.8,16.987
			c-11.404,3.001-20.997,9.184-28.985,17.719c-6.034,6.447-11.78,13.178-17.422,19.976c-8.654,10.426-17.211,20.925-27.369,29.968
			c-1.487,1.324-3.073,2.537-5.632,4.638c0.47-2.801,0.623-4.24,0.96-5.634c2.959-12.236,6.02-24.448,8.919-36.698
			c7.225-30.537,14.831-61.003,19.194-92.13c1.354-9.66,2.83-19.36,0.834-29.171c-0.309-1.516,0.265-3.338,0.814-4.882
			c5.289-14.869,10.492-29.772,16.066-44.534c3.855-10.209,8.541-20.062,14.938-29.002c7.628-10.66,17.586-18.251,30.463-20.854
			c10.831-2.189,21.929-3.041,32.889-4.624c7.985-1.153,16.066-2.008,23.878-3.922c13.973-3.424,25.039-11.843,34.641-22.232
			c10.603-11.472,21.309-22.797,33.546-32.606c10.351-8.297,13.544-19.313,9.925-31.859c-4.389-15.215-11.464-28.374-29.665-31.663
			c1.524-2.01,2.671-3.481,3.774-4.985c3.599-4.904,7.021-10.205,7.548-16.199c0.806-9.175,4.07-17.472,7.096-25.933
			c0.757-2.117,1.295-4.321,1.813-6.513c4.242-17.93-0.741-29.858-16.892-38.756c-6.381-3.516-13.193-6.483-20.126-8.716
			c-16.804-5.412-33.754-10.386-50.721-15.277c-18.772-5.411-37.584-10.699-56.467-15.708c-8.962-2.377-18.187-3.071-27.394-1.183
			c-13.236,2.714-22.907,10.872-31.228,20.932c-7.235,8.747-13.238,18.366-17.679,28.751c-7.161,16.746-14.13,33.604-20.359,50.714
			c-13.176,36.195-25.689,72.632-40.708,108.132c-11.129,26.306-22.426,52.543-33.267,78.967
			c-5.202,12.68-9.489,25.734-14.279,38.585c-0.629,1.688-1.592,4.366-2.733,4.554c-4.552,0.747-5.439,4.125-6.556,7.525
			c-1.348,4.103-2.629,8.228-3.994,12.325c-4.333,13.003-8.749,25.978-12.999,39.008c-1.028,3.152-2.88,4.898-6.027,5.96
			c-11.268,3.804-21.904,8.98-31.84,15.538c-8.379,5.531-16.1,11.797-21.545,20.408c-1.27,2.009-2.631,4.197-3.053,6.469
			c-3.256,17.552-6.596,35.097-9.32,52.736c-3.787,24.519-6.995,49.127-10.571,73.679c-5.448,37.399-13.193,74.375-20.552,111.425
			c-6.339,31.914-11.781,63.966-13.133,96.566c-0.796,19.199-0.73,38.361,2.472,57.386c2.203,13.093,6.023,25.618,13.369,36.829
			c11.016,16.812,26.611,26.112,46.598,28.046c16.719,1.618,32.987-1.068,49.092-5.242c25.556-6.624,49.945-16.456,74.03-27.084
			c45.593-20.118,89.977-42.738,134.335-65.39c27.612-14.101,55.539-27.662,81.541-44.717c0.656-0.43,1.616-0.399,3.14-0.742
			c0,5.21-0.25,9.917,0.043,14.589c1.294,20.644,2.825,41.273,4.116,61.917c1.783,28.526,3.947,57.042,4.945,85.597
			c0.656,18.762,0.166,37.623-0.939,56.373c-1.386,23.515-6.171,46.588-12.47,69.254c-10.614,38.194-21.755,76.24-32.576,114.377
			c-10.872,38.317-22.203,76.517-30.57,115.494c-2.328,10.845-4.261,21.783-3.867,32.969c0.5,14.208,7.273,21.854,21.375,23.788
			c4.643,0.637,9.353,0.86,14.041,1.056c4.085,0.171,8.182,0.035,13.037,0.035c-15.807,67.208-25.961,134.571-36.064,202.149
			l804.144-0.36c-0.602-2.133-1.158-3.817-1.513-5.527c-4.996-24.103-9.941-48.217-14.937-72.32
			c-8.542-41.213-17.092-82.424-25.687-123.627c-1.405-6.737-3.054-13.422-4.73-20.744c2.456,0,4.32,0.108,6.167-0.022
			c4.313-0.301,8.659-0.459,12.917-1.141c8.017-1.283,12.264-6.115,12.516-14.224c0.116-3.734,0.106-7.602-0.716-11.211
			c-2.752-12.081-5.465-24.2-8.969-36.075c-11.594-39.301-22.656-78.729-30.856-118.904c-7.104-34.804-14.639-69.503-24.743-103.59
			c-6.083-20.523-9.453-41.401-8.103-62.881c0.074-1.176,0.387-2.336,0.64-3.8c6.014,5.114,11.465,10.024,17.199,14.576
			c22.464,17.834,47.73,29.007,76.468,31.858c14.66,1.454,29.289,1.231,43.916-0.389c20.893-2.315,41.029-7.333,60.006-16.597
			c16.598-8.103,31.39-18.731,43.427-32.717c21.651-25.156,38.547-53.269,50.034-84.462c3.831-10.404,6.771-21.13,4.458-32.678
			c1.967-0.941,3.797-1.836,5.643-2.697c17.033-7.942,34.135-15.74,51.066-23.893c5.557-2.676,11.005-5.83,15.906-9.552
			c6.745-5.122,12.074-11.432,10.63-21.702c3.505,0,6.666,0.212,9.784-0.064c2.694-0.239,5.998-0.226,7.865-1.752
			c3.594-2.937,7.903-5.844,7.702-11.587c-0.043-1.226,0.801-2.479,1.225-3.724c38.476-112.933,76.95-225.867,115.424-338.8
			c4.544-13.338,8.777-26.794,13.774-39.96C1799.188,745.187,1800.65,740.101,1798.863,734.095z M1056.656,597.879
			c-0.04-2.054-0.005-4.111-0.005-7.041c2.72,1.197,5.116,2.074,7.344,3.264c8.123,4.34,16.194,8.777,24.278,13.191
			c9.437,5.153,19.203,9.469,29.717,11.959c6.486,1.536,11.678,4.766,15.124,10.804c0.953,1.67,3.402,3.021,5.401,3.475
			c18.136,4.113,36.229,8.534,54.528,11.772c14.773,2.614,29.813,3.72,44.734,5.492c12.313,1.462,24.655,2.72,36.933,4.432
			c15.11,2.107,26.973,9.934,36.304,21.784c2.207,2.803,4.414,5.657,6.198,8.732c10.023,17.281,18.327,35.338,24.216,54.469
			c0.685,2.226,0.956,4.191,0.017,6.512c-10.652,26.339-18.567,53.604-26.995,80.688c-21.27,68.348-41.852,136.902-60.859,205.92
			c-6.135,22.276-12.151,44.587-18.592,66.773c-2.7,9.3-7.058,18.1-8.734,27.737c-0.717,4.127-3.046,5.994-7.294,6.317
			c-17.622,1.34-35.226,2.917-52.84,4.365c-20.611,1.694-41.226,3.336-61.839,5.017c-11.244,0.917-22.484,1.878-33.729,2.783
			l-10.513,0.792c-7.536,0.602-14.618,1.168-22.11,1.767c-0.169-1.892-0.442-3.336-0.404-4.772
			c0.96-36.287,1.878-72.576,2.966-108.86c0.811-27.07,1.71-54.14,2.82-81.199c1.596-38.896,3.335-77.787,5.171-116.673
			c1.561-33.06,3.376-66.108,5.022-99.164c1.44-28.923,3.229-57.838,4.039-86.78C1058.052,633.605,1057,615.732,1056.656,597.879z
			 M854.944,485.899c-0.256,0.107-0.513,0.215-0.769,0.322c-0.613-1.157-1.466-2.249-1.803-3.481
			c-4.346-15.897-12.99-29.415-22.774-42.437c-14.735-19.612-26.692-40.883-36.661-63.295
			c-10.579-23.784-15.082-48.711-14.425-74.645c0.143-5.638,0.393-11.274,0.647-16.908c0.12-2.678-0.39-4.732-2.345-7.062
			c-6.334-7.549-9.215-16.79-10.361-26.406c-3.826-32.094,13.225-65.875,41.265-81.918c5.696-3.259,11.612-6.222,17.666-8.749
			c33.457-13.966,66.954-27.839,100.512-41.563c13.586-5.556,27.586-9.771,42.149-12.12c23.693-3.821,46.505-0.75,68.391,8.711
			c9.288,4.015,18.37,8.679,27.064,13.858c15.025,8.951,30.815,15.456,48.097,18.527c6.241,1.109,12.313,3.343,18.335,5.431
			c3.344,1.159,6.554,2.861,9.605,4.686c13.645,8.164,18.659,19.144,15.861,34.778c-0.892,4.986-1.998,9.958-3.398,14.823
			c-3.942,13.702-8.088,27.346-12.432,41.948c-0.837-2.289-1.362-3.76-1.911-5.223c-2.504-6.679-4.75-13.471-7.581-20.008
			c-4.775-11.026-12.27-20.053-20.802-28.495c-5.222-5.167-11.263-7.769-17.967-9.676c-14.888-4.234-30.151-6.335-45.5-7.792
			c-21.733-2.063-43.535-2.876-65.358-2.287c-19.933,0.538-39.836,1.715-59.258,6.73c-4.887,1.262-9.705,2.986-14.34,4.993
			c-10.766,4.662-18,12.757-21.674,23.886c-1.41,4.271-2.452,8.672-3.494,13.053c-1.608,6.759-2.723,13.656-4.68,20.308
			c-2.935,9.979-2.915,20.018-1.829,30.18c0.32,2.989,0.526,5.994,0.957,8.967c1.077,7.431-0.602,14.098-4.879,20.287
			c-6.028,8.721-7.805,18.628-7.194,29.007c0.408,6.92,1.174,13.819,1.87,21.753c-1.533-1.367-2.528-2.016-3.214-2.905
			c-3.444-4.466-6.642-9.132-10.249-13.459c-3.117-3.739-6.37-7.471-10.086-10.582c-7.765-6.501-16.567-6.592-24.931-0.825
			c-19.263,13.28-25.105,38.784-13.459,58.992c5.238,9.09,12.176,16.719,20.651,22.861c7.152,5.183,14.458,10.16,21.813,15.052
			c2.631,1.75,5.604,2.985,8.493,4.492C854.944,448.751,854.944,467.325,854.944,485.899z M851.982,421.354
			c-11.031-7.801-23.118-14.176-32.679-23.976c-5.435-5.572-9.894-11.813-12.895-19.031c-2.83-6.808-3.61-13.787-1.562-20.961
			c2.598-9.099,7.284-16.92,14.637-22.938c7.135-5.839,13.409-5.775,20.214,0.387c3.323,3.009,6.223,6.527,9.055,10.026
			c3.548,4.382,6.748,9.044,10.262,13.455c1.507,1.892,3.221,3.758,5.203,5.103c3.455,2.343,6.764,0.915,7.542-3.206
			c0.41-2.169,0.246-4.482,0.099-6.715c-0.506-7.686-1.238-15.358-1.659-23.048c-0.424-7.75,1.529-15.029,5.946-21.367
			c5.839-8.379,7.275-17.383,5.91-27.355c-1.243-9.086-2.855-18.255-0.687-27.48c2.664-11.337,5.385-22.663,7.856-34.042
			c3.277-15.086,12.556-24.304,27.075-28.845c11.735-3.671,23.776-5.573,35.956-6.706c33.082-3.076,66.137-2.158,99.129,1.26
			c14.205,1.472,28.403,3.318,42.059,7.784c2.962,0.969,5.902,2.496,8.369,4.395c7.681,5.911,13.983,13.152,18.694,21.631
			c8.105,14.59,12.792,30.384,16.345,47.299c-11.736-9.542-25.483-12.188-39.01-15.218c-3.157-0.707-6.74-0.221-9.995,0.407
			c-3.614,0.697-5.996,3.316-6.263,7.086c-0.267,3.772,1.722,6.887,5.196,7.897c5.183,1.507,10.605,2.205,15.938,3.178
			c7.745,1.413,15.574,2.456,23.224,4.265c4.213,0.997,7.686,0.97,11.443-3.181c0.204,3.368,0.447,5.873,0.492,8.381
			c0.191,10.528-0.455,21.14,0.666,31.564c1.504,13.985,4.276,27.839,6.648,41.724c4.764,27.888,7.286,55.937,5.843,84.237
			c-0.828,16.234-3.983,32.031-9.76,47.295c-13.399,35.4-38.618,57.338-75.089,66.931c-9.063,2.384-17.833,1.951-26.746,0.033
			c-34.396-7.403-67.324-18.743-97.649-36.883c-17.267-10.329-32.415-23.143-44.654-39.243
			c-7.347-9.665-13.031-20.194-16.833-31.732c-0.235-0.714-0.532-1.408-0.759-2.124c-0.576-1.815-1.119-3.989-3.482-3.733
			c-2.639,0.286-2.94,2.831-2.905,4.8c0.042,2.408,0.68,4.826,1.228,7.201c6.877,29.812,21.25,55.836,41.349,78.543
			c29.33,33.138,65.656,55.828,107.676,69.501c1.25,0.407,2.507,0.79,3.754,1.206c0.166,0.055,0.29,0.234,0.831,0.691
			c-1.013,0.507-1.809,1.169-2.689,1.307c-23.015,3.628-46.007,7.42-69.078,10.657c-7.211,1.012-14.646,0.82-21.96,0.599
			c-6.822-0.206-13.318-2.306-19.437-5.361c-20.315-10.142-38.551-23.352-55.906-37.876c-1.816-1.519-2.369-3.099-2.024-5.387
			c4.985-33.071,4.753-66.334,3.803-99.644c-0.315-11.068,0.276-22.163,0.453-33.245c0.357-0.041,0.714-0.083,1.071-0.124
			c1.478-1.472,4.036-2.83,4.205-4.439c0.333-3.174-3.022-2.521-5.034-3.028c-1.528-0.385-3.147-0.396-4.701-0.702
			C855.096,422.293,853.23,422.236,851.982,421.354z M855.939,574.34c2.318,1.822,3.789,2.928,5.206,4.099
			c13.507,11.159,27.757,21.225,42.919,30.052c13.605,7.921,28.052,11.186,43.759,10.149c21.814-1.44,43.271-5.234,64.751-8.949
			c10.739-1.857,21.448-3.883,32.18-5.781c1.63-0.288,3.308-0.299,5.58-0.49c0.482,4.945,1.275,9.551,1.317,14.164
			c0.126,13.725,0.376,27.469-0.183,41.174c-1.158,28.368-2.786,56.717-4.261,85.072c-2.08,39.997-4.347,79.986-6.251,119.991
			c-1.52,31.932-2.679,63.881-3.884,95.826c-1.411,37.397-2.827,74.795-3.994,112.201c-0.727,23.309-0.991,46.632-1.481,69.948
			c-0.05,2.396-0.224,4.79-0.357,7.518c-4.518,0.442-8.584,0.888-12.659,1.228c-6.745,0.562-13.495,1.055-20.243,1.579
			c-4.786,0.372-5.495,0.841-6.22,5.551c-1.198,7.785-2.392,15.611,0.638,23.966c12.414,0.579,24.884-1.312,37.864-1.366
			c0.173,1.853,0.44,3.453,0.456,5.055c0.264,27.083,0.182,54.174,0.825,81.247c0.63,26.505,1.868,52.998,3.063,79.486
			c1.288,28.552,2.842,57.091,4.257,85.638c0.101,2.041,0.013,4.092,0.013,6.932c-5.432,0.435-10.792,1.31-16.132,1.208
			c-15.599-0.298-31.197-0.845-46.784-1.556c-20.095-0.916-40.177-2.085-60.265-3.142c-1.053-0.056-2.106-0.095-3.297-0.886
			c1.113-0.462,2.201-1.001,3.342-1.376c20.277-6.661,41.081-10.643,62.355-12.231c1.486-0.111,3.098-0.132,4.387-0.749
			c0.988-0.472,2.183-1.85,2.134-2.764c-0.046-0.856-1.505-2.131-2.518-2.333c-1.796-0.357-3.73-0.101-5.6,0.004
			c-24.017,1.356-47.105,7.185-69.941,14.355c-16.676,5.236-33.473,10.011-50.895,12.247c-14.422,1.851-28.872,2.238-43.35,1.268
			c-11.594-0.777-23.166-1.891-35.196-2.893c0-1.76-0.081-3.001,0.012-4.228c1.862-24.556,4.095-49.09,5.513-73.671
			c1.126-19.519,1.528-39.091,1.79-58.646c1.116-83.501,2.042-167.004,3.076-250.506c0.477-38.558,2.058-77.059,5.432-115.491
			c5.514-62.814,14.47-125.073,29.633-186.331c6.228-25.163,13.355-50.103,19.61-75.26c6.037-24.282,10.486-48.879,12.124-73.9
			C855.233,593.001,855.487,584.234,855.939,574.34z M1039.729,1444.885c0.597,12.982,1.179,25.62,1.776,38.592
			c-10.768,1.216-92.826,0.177-100.064-1.303c1.058-13.052,2.123-26.203,3.227-39.815
			C976.553,1443.882,1007.695,1447.857,1039.729,1444.885z M939.067,1442.073c-1.282,13.749-2.497,26.778-3.709,39.775
			c-4.425,1.364-73.71,0.114-79.517-1.407c-0.806-5.708,1.221-24.679,3.69-33.434c11.098-1.905,22.438-4.488,33.921-5.627
			c9.666-0.959,19.5-0.343,29.257-0.219C927.939,1441.228,933.164,1441.729,939.067,1442.073z M852.939,1448.02
			c-1.425,11.178-2.769,21.72-4.207,32.998c-25.576-0.491-51.047-0.98-77.169-1.481c1.646-11.689,3.202-22.744,4.848-34.43
			C801.956,1448.258,827.144,1450.665,852.939,1448.02z M663.195,514.934c8.417,7.973,12.968,17.87,13.58,29.399
			c0.153,2.888-0.865,5.899-1.682,8.757c-0.555,1.94-1.504,3.707-3.932,4.349c-1.315,0.348-2.389,1.696-3.516,2.658
			c-10.091,8.616-22.082,12.361-34.123,13.839c-12.298-0.708-20.925-5.785-26.373-15.937c-3.25-6.057-2.992-12.039,1.326-17.395
			c3.165-3.926,6.549-7.813,10.426-10.998c6.364-5.228,13.123-9.993,19.895-14.695c2.268-1.575,5.01-2.583,7.664-3.461
			C652.645,509.406,658.389,510.382,663.195,514.934z M374.772,631.939c25.052-56.984,47.046-115.119,67.63-173.826
			c5.536-15.79,11.79-31.333,20.276-45.816c3.599-6.142,7.616-12.106,12.017-17.7c13.04-16.576,29.946-22.76,50.533-17.367
			c16.895,4.426,33.723,9.122,50.508,13.952c19.134,5.506,38.264,11.05,57.235,17.083c7.108,2.261,13.968,5.558,20.582,9.06
			c11.303,5.986,15.819,15.681,13.509,28.272c-0.903,4.925-2.456,9.731-3.693,14.512c-0.969-0.133-1.504-0.073-1.585-0.237
			c-4.335-8.756-11.617-14.289-20.429-17.66c-9.814-3.755-19.838-6.981-29.848-10.198c-24.678-7.931-49.405-15.708-74.099-23.588
			c-4.568-1.458-6.525-1.415-6.81,0.666c-0.528,3.859,2.946,3.938,5.201,4.68c24.26,7.988,48.561,15.854,72.855,23.74
			c8.218,2.668,16.503,5.14,24.647,8.014c4.052,1.43,7.983,3.334,11.745,5.426c11.052,6.145,15.273,16.704,12.414,29.891
			c-2.156,9.947-8.146,17.663-15.88,24.013c-3.262,2.678-6.868,4.937-11.012,6.785c0.586-1.502,1.171-3.005,1.757-4.507
			c3.836-9.83,2.256-18.799-4.339-26.938c-4.705-5.807-10.758-9.909-17.257-13.411c-10.647-5.738-22.026-9.646-33.573-13.03
			c-18.746-5.494-37.557-10.766-56.345-16.115c-0.896-0.255-1.955-0.701-2.73-0.44c-1.119,0.376-2.43,1.123-2.925,2.089
			c-0.329,0.642,0.337,2.492,1.044,2.856c4.596,2.364,8.768,5.883,14.389,5.7c1.105-0.036,2.269-0.005,3.321,0.295
			c18.063,5.152,36.228,9.987,54.112,15.701c8.163,2.608,16.03,6.499,23.526,10.707c4.634,2.601,8.8,6.477,12.314,10.528
			c4.921,5.672,5.858,12.586,2.761,19.551c-1.664,3.74-3.65,7.5-6.233,10.641c-12.078,14.686-24.996,28.618-39.275,41.204
			c-7.394,6.517-15.51,11.986-25.523,13.685c-9.953,1.688-18.652-1.121-25.906-8.039c-5.597-5.338-7.115-11.878-4.181-19.086
			c4.529-11.128,12.6-18.982,23.315-24.192c2.041-0.992,4.136-1.502,6.515-0.504c0.802,0.337,2.8-0.429,3.133-1.184
			c0.381-0.864-0.231-2.447-0.875-3.406c-0.7-1.042-2.011-1.651-2.923-2.578c-4.376-4.447-7.377-4.76-12.117-0.902
			c-1.883,1.533-3.641,3.294-5.16,5.188c-4.467,5.571-9.028,11.091-13.118,16.936c-11.565,16.529-6.607,33.512,12.004,41.395
			c9.863,4.178,19.928,4.033,29.576-0.395c5.585-2.564,10.795-6.061,15.867-9.58c2.711-1.88,5.199-3.374,8.628-3.491
			c3.336-0.114,6.648-0.93,9.842-1.419c13.841,20.496,22.288,23.484,51.278,17.798c-11.52,11.495-20.66,24.229-34.035,32.671
			c-9.793,6.18-20.71,8.646-32.013,9.952c-12.313,1.423-24.711,2.383-36.904,4.507c-16.575,2.888-29.305,12.1-38.622,26.08
			c-8.308,12.467-13.998,26.191-18.676,40.29c-1.837,5.535-4.402,7.864-10.361,8.656c-35.243,4.685-70.468,9.361-106.138,8.477
			c-7.51-0.186-15.007-0.933-22.503-1.514c-1.818-0.141-3.608-0.647-6.32-1.156C355.602,680.068,364.354,655.637,374.772,631.939z
			 M307.08,802.054c0.283-1.084,0.626-2.158,1.024-3.206c10.985-28.925,23.658-57.242,30.685-87.465
			c17.074,0.74,33.346,2.112,49.604,1.96c16.137-0.151,32.303-1.39,48.376-2.971c16.218-1.595,32.338-4.196,49.432-6.481
			c-2.376,7.341-4.341,14.004-6.763,20.497c-0.647,1.735-2.459,3.347-4.136,4.336c-9.222,5.431-18.273,11.281-27.934,15.809
			c-18.698,8.762-37.667,16.968-56.7,24.985c-25.788,10.861-51.741,21.331-77.628,31.958c-1.824,0.749-3.684,1.414-5.548,2.126
			C307.244,802.721,307.004,802.346,307.08,802.054z M559.532,1690.441c-14.475-0.734-19.668-6.67-19.473-21.306
			c0.169-12.662,2.494-25.103,5.743-37.266c11.441-42.834,23.096-85.613,34.898-128.349c9.152-33.139,18.943-66.103,27.901-99.294
			c9.065-33.591,13.346-67.899,12.264-102.7c-0.871-28-2.063-56.01-4.018-83.951c-3.532-50.477-7.677-100.916-5.997-151.582
			c1.221-36.843,2.465-73.691,4.248-110.509c1.565-32.302,3.593-64.59,5.964-96.844c2.811-38.257,6.962-76.383,13.005-114.284
			c0.295-1.851,0.662-3.797,0.368-5.597c-0.192-1.176-1.517-2.167-2.335-3.24c-1.053,0.878-2.805,1.601-3.039,2.66
			c-1.054,4.763-1.83,9.604-2.431,14.45c-3.007,24.25-6.258,48.477-8.774,72.779c-2.11,20.379-3.657,40.83-4.866,61.284
			c-2.273,38.484-4.485,76.977-6.036,115.495c-1.294,32.129-1.664,64.297-2.319,96.45c-0.19,9.351-4.289,16.734-11.474,22.086
			c-5.848,4.356-12.306,8.002-18.805,11.36c-40.578,20.965-81.13,41.986-121.915,62.54c-31.386,15.817-63.142,30.897-95.866,43.812
			c-20.652,8.15-41.574,15.467-63.574,19.147c-10.989,1.838-22,2.585-33.116,0.789c-17.484-2.825-30.558-11.989-39.575-27.07
			c-6.373-10.658-9.623-22.411-11.466-34.572c-3.146-20.755-2.853-41.606-1.525-62.484c2.324-36.512,9.504-72.269,16.786-108.005
			c7.808-38.316,14.584-76.796,19.918-115.546c4.049-29.415,8.831-58.73,13.297-88.088c0.111-0.727,0.344-1.434,0.725-2.989
			c8.449,4.005,16.568,2.321,25.584,0.221c-6.232,12.302-7.547,24.793-8.878,37.246c-1.039,9.719-1.829,19.471-2.487,29.224
			c-1.65,24.445-5.884,48.472-10.867,72.427c-2.981,14.332-4.972,28.871-7.35,43.326c-0.241,1.463-0.348,3.055-0.011,4.467
			c0.208,0.874,1.405,2.156,2.101,2.122c1.072-0.053,2.296-0.899,3.071-1.756c0.538-0.596,0.515-1.769,0.598-2.697
			c1.959-21.789,7.465-42.938,11.612-64.33c3.728-19.225,5.762-38.651,7.419-58.145c1.225-14.415,2.748-28.814,4.552-43.168
			c0.846-6.729,3.155-13.082,7.303-18.722c1.643-2.234,3.39-3.703,5.931-4.746c38.762-15.913,77.516-31.848,116.213-47.919
			c22.243-9.238,44.075-19.327,64.213-32.721c0.45-0.299,1.026-0.407,2.379-0.923c0.103,2.963,0.54,5.672,0.226,8.291
			c-1.139,9.513-2.147,19.067-3.888,28.479c-9.924,53.623-23.821,106.325-37.13,159.164c-3.669,14.565-7.015,29.223-9.988,43.944
			c-1.294,6.408-1.53,13.071-1.793,19.637c-0.565,14.093-0.58,28.211-1.291,42.295c-0.895,17.739-3.772,35.126-11.007,51.554
			c-1.057,2.401-2.134,4.856-2.671,7.398c-0.241,1.142,0.825,2.56,1.298,3.853c1.272-0.511,2.677-0.834,3.769-1.602
			c0.67-0.471,0.877-1.616,1.266-2.47c7.567-16.61,11.857-34.057,12.915-52.25c0.72-12.387,1.369-24.796,1.448-37.199
			c0.127-20.061,2.706-39.707,8.068-59.043c3.514-12.672,6.622-25.456,9.881-38.198c0.708-2.77,1.819-4.974,4.332-6.843
			c13.984-10.4,25.574-23.222,36.551-36.671c5.94-7.279,12.099-14.402,18.51-21.269c6.924-7.416,15.334-12.842,25.209-15.388
			c12.116-3.124,21.449-10.029,28.193-20.258c8.481-12.862,16.524-26.015,24.641-39.113c5.05-8.149,9.84-16.459,14.834-24.644
			c9.594-15.721,22.799-27.42,39.688-34.752c15.166-6.585,30.486-12.812,45.715-19.253c14.884-6.296,29.78-12.568,44.585-19.047
			c6.362-2.784,12.512-6.051,18.744-9.129c0.834-0.412,1.617-0.952,2.36-1.518c25.432-19.379,50.572-39.118,74.702-60.12
			c4.246-3.695,8.882-6.952,13.432-10.284c1.788-1.309,3.831-2.27,6.144-3.613c1.634,3.328,1.641,6.481,1.25,9.544
			c-2.164,16.958-3.992,33.977-6.81,50.829c-4.874,29.141-13.54,57.4-21.118,85.902c-10.734,40.373-18.719,81.286-24.752,122.609
			c-4.782,32.758-8.381,65.644-10.927,98.64c-3.142,40.717-3.817,81.526-4.182,122.348c-0.559,62.451-1.092,124.905-2.11,187.349
			c-0.61,37.421-1.633,74.849-3.352,112.234c-1.979,43.044-6.629,85.849-15.346,128.109c-8.866,42.98-21.04,84.987-38.455,125.34
			c-3.413,7.908-7.66,15.505-12.055,22.93c-11.408,19.275-28.517,30.437-50.393,34.705c-14.636,2.855-29.43,3.911-44.282,4.494
			c-5.262,0.207-10.529,0.475-15.793,0.453C586.406,1690.903,572.945,1691.12,559.532,1690.441z M1343.85,1898.985
			c-263.729,0-527.15,0-790.564,0c-0.503-14.278,28.472-180.273,35.29-201.835c1.934,0,4.121,0.036,6.307-0.005
			c18.431-0.344,36.869-0.733,55.15-3.357c6.495-0.932,12.986-2.189,19.323-3.881c17.96-4.794,32.158-15.033,42.825-30.28
			c9.675-13.828,16.537-29.067,22.493-44.724c15.541-40.85,27.312-82.769,35.079-125.796c0.228-1.264,0.577-2.505,0.822-3.554
			c90.325,1.76,180.347,3.515,270.995,5.282c0.092,0.989,0.295,2.591,0.384,4.199c1.531,27.784,2.491,55.614,6.747,83.176
			c2.619,16.963,6.498,33.592,13.782,49.237c10.365,22.263,26.002,39.181,49.923,46.772c9.072,2.879,18.602,4.689,28.062,5.893
			c20.952,2.666,42.054,2.417,63.111,1.447c28.742-1.325,57.469-2.993,86.204-4.479c2.594-0.134,5.201-0.018,7.921-0.018
			C1315.359,1750.635,1327.6,1825.008,1343.85,1898.985z M1259.844,1272.378c-1.396,17.803-2.608,35.62-3.932,53.429
			c-1.566,21.052,0.845,41.692,6.792,61.887c12.114,41.139,20.706,83.105,29.632,124.995c7.485,35.128,17.696,69.522,27.637,103.999
			c3.532,12.251,6.185,24.763,8.96,37.218c0.636,2.854,0.357,5.988,0.068,8.951c-0.32,3.282-2.277,5.546-5.599,6.28
			c-2.19,0.485-4.422,0.956-6.652,1.053c-18.785,0.815-37.578,1.43-56.359,2.328c-18.216,0.87-36.41,2.264-54.632,2.952
			c-20.107,0.759-40.263,1.286-60.309-0.897c-9.302-1.013-18.629-2.656-27.666-5.063c-18.832-5.015-33.092-16.473-43.399-32.943
			c-9.425-15.06-14.502-31.715-17.847-48.971c-4.052-20.9-5.761-42.068-6.874-63.295c-0.512-9.764-1.112-19.523-1.54-29.291
			c-0.113-2.587,0.252-5.196,0.42-7.794c0.048-0.736,0.376-1.507,0.24-2.195c-3.366-17.046-2.213-34.397-3.42-51.587
			c-1.515-21.566-2.258-43.185-3.346-64.781c-3.064-60.862-5.344-121.744-4.776-182.701c0.017-1.861,0.002-3.722,0.002-6.153
			c5.775-0.3,11.132-0.578,17.272-0.897l6.524-0.438c68.854-3.734,137.338-7.448,206.444-11.195
			c0.118,1.862,0.404,3.468,0.291,5.046c-0.937,13.125-1.895,26.249-2.948,39.365
			C1263.204,1231.914,1261.432,1252.139,1259.844,1272.378z M1450.169,1352.151c-27.765,11.561-56.802,15.409-86.652,13.781
			c-35.132-1.915-64.695-16.737-90.636-39.697c-3.506-3.103-8.086-5.932-9.751-9.902c-1.571-3.745-0.08-8.838,0.282-13.32
			c2.912-36.156,5.873-72.308,8.828-108.461c0.734-8.984,1.498-17.966,2.306-27.64c3.833-0.169,7.704-0.414,11.577-0.451
			c0.805-0.008,1.808,0.575,2.392,1.194c2.691,2.85,5.282,5.796,7.871,8.741c0.489,0.556,0.649,1.562,1.222,1.859
			c4.603,2.388,4.347,6.915,5.045,11.046c2.536,15.005,5.345,29.934,9.948,44.496c12.085,38.229,37.385,63.808,74.848,77.024
			c35.221,12.425,70.714,12.958,105.854-0.912c5.87-2.317,11.472-5.312,17.198-7.994
			C1495.375,1324.942,1475.316,1341.68,1450.169,1352.151z M1551.46,1222.275c-2.205,10.937-6.352,21.22-11.114,31.261
			c-5.077,10.703-10.777,21.027-18.077,30.431c-3.415,4.4-7.583,7.8-12.27,10.659c-19.338,11.796-40.272,18.173-62.964,19.013
			c-24.683,0.913-48.32-3.21-70.62-14.012c-26.8-12.982-45.521-33.367-55.802-61.414c-5.064-13.814-8.299-28.095-11.108-42.492
			c-0.127-0.65-0.016-1.346-0.016-3.219c1.743,2.395,2.758,3.906,3.89,5.324c4.681,5.865,9.393,11.706,14.107,17.545
			c0.588,0.728,1.432,1.295,1.862,2.095c7.631,14.197,18.804,25.277,31.25,35.147c8.246,6.539,16.923,12.533,25.216,19.014
			c7.395,5.779,14.714,11.684,21.727,17.915c7.762,6.897,13.209,8.108,22.487,3.426c4.683-2.364,9.083-5.306,13.529-8.115
			c14.62-9.238,29.034-18.814,43.847-27.729c14.753-8.878,28.425-18.928,40.379-31.417c5.158-5.388,11.336-9.82,17.194-14.507
			c2.053-1.643,4.532-2.768,7.476-1C1553.519,1214.267,1552.262,1218.295,1551.46,1222.275z M1628.604,1162.11
			c-5.133,3.748-10.479,7.38-16.179,10.143c-17.415,8.441-34.921,16.722-52.632,24.518c-12.317,5.422-23.614,12.211-34.216,20.487
			c-11.697,9.129-23.606,18.061-35.986,26.224c-15.323,10.104-32.087,17.309-50.215,20.824
			c-25.529,4.951-49.375,0.696-71.094-13.876c-3.553-2.384-6.613-5.514-9.848-8.36c-4.192-3.689-8.382-7.384-12.464-11.193
			c-1.417-1.322-2.51-2.992-3.134-5.219c2.038,0.835,4.053,1.735,6.123,2.479c1.215,0.437,2.558,0.956,3.771,0.815
			c0.908-0.105,2.003-1.05,2.441-1.913c0.298-0.587-0.127-2.01-0.702-2.475c-1.284-1.041-2.786-1.919-4.335-2.51
			c-12.583-4.803-22.13-13.166-29.535-24.323c-4.57-6.885-9.601-13.467-14.515-20.119c-3.776-5.111-1.756-10.068,4.596-10.916
			c1.861-0.248,3.747-0.323,5.625-0.44c9.543-0.59,17.437,2.443,22.735,10.731c5.192,8.12,12.631,13.153,21.439,16.641
			c8.558,3.389,16.974,7.135,25.451,10.727c6.377,2.702,10.017,1.871,14.092-3.758c4.739-6.546,9.1-13.367,13.839-19.913
			c7.908-10.923,18.426-18.266,31.601-21.224c7.065-1.586,14.354-2.173,21.425-3.194c2.822,4.149,3.259,8.056,2.212,12.285
			c-2.072,8.367-6.629,15.507-11.062,22.71c-5.22,8.483-10.473,16.945-15.706,25.42c-0.395,0.639-0.756,1.299-1.118,1.958
			c-0.93,1.691-1.036,3.327,0.856,4.357c1.818,0.99,3.305,0.145,4.317-1.434c2.534-3.958,5.131-7.885,7.455-11.966
			c6.371-11.186,14.087-21.227,23.466-30.131c4.163-3.952,7.583-8.881,10.567-13.832c3.942-6.539,9.121-10.192,16.844-10.391
			c7.688-0.198,15.365-0.859,23.052-1.003c2.159-0.04,4.409,0.838,6.491,1.628c2.551,0.967,3.354,2.99,2.093,5.463
			c-1.534,3.007-2.919,6.182-4.968,8.818c-8.414,10.819-16.877,21.61-25.685,32.108c-4.824,5.749-10.371,10.891-15.594,16.306
			c-0.261,0.271-0.538,0.526-0.801,0.795c-1.536,1.572-2.942,3.443-0.962,5.335c1.955,1.868,3.824,0.378,5.349-1.134
			c13.099-12.99,26.017-26.187,36.545-41.394c5.824-8.413,13.493-13.999,22.696-17.81c9.193-3.807,18.473-7.403,27.678-11.183
			c7.984-3.278,16.389-4.021,24.865-4.286c8.039-0.251,16.092-1.577,24.121,0.181c1.805,0.395,3.633,0.69,6.105,1.154
			C1634.887,1155.77,1632.223,1159.468,1628.604,1162.11z M1793.047,742.781c-0.593,2.362-1.496,4.648-2.284,6.96
			c-43.074,126.457-86.15,252.912-129.224,379.369c-0.424,1.245-0.856,2.489-1.24,3.746c-1.707,5.59-3.557,7.146-9.547,7.533
			c-8.445,0.545-16.899,0.965-25.35,1.422c-26.283,1.423-52.567,2.855-78.851,4.253c-31.738,1.688-63.48,3.302-95.216,5.025
			c-31.361,1.703-62.716,3.519-94.075,5.254c-26.664,1.475-53.319,3.277-80.003,4.148c-8.934,0.292-17.757,1.516-26.674,1.724
			c-9.21,0.215-18.413,0.783-27.615,1.279c-9.014,0.486-18.02,1.098-27.032,1.617c-9.013,0.518-18.028,1.002-27.043,1.477
			c-30.612,1.611-61.227,3.174-91.837,4.828c-24.413,1.32-48.819,2.754-73.23,4.109c-2.053,0.114-4.117,0.015-6.648,0.015
			c0-5.791,0-11.137,0-16.65c1.559-0.368,2.605-0.76,3.676-0.847c20.615-1.678,41.234-3.305,61.85-4.975
			c20.053-1.625,40.102-3.296,60.154-4.928c21.552-1.754,43.106-3.484,64.659-5.225c10.87-0.878,21.744-1.716,32.609-2.654
			c6.772-0.585,9.341-2.956,11.585-9.581c10.496-30.984,18.458-62.699,27.477-94.113c19.132-66.635,38.85-133.104,58.776-199.506
			c8.205-27.343,17.432-54.383,26.492-81.462c2.254-6.736,5.529-13.149,8.58-19.595c3.19-6.739,8.263-9.686,16.174-9.674
			c135.449,0.196,270.898,0.14,406.348,0.146c2.068,0,4.149-0.052,6.201,0.155C1791.074,727.57,1795.337,733.657,1793.047,742.781z"
        />
	</g>
        <rect style="fill:none;" width="2000" height="2000"/>
</g>
</svg>
