<?xml version="1.0" encoding="UTF-8"?>
<svg id="Layer_2" data-name="Layer 2" xmlns="http://www.w3.org/2000/svg" viewBox="0 0 437.53 451.44">
    <defs>
        <style>
            .cls-1 {
            fill: #d8b4fa;
            }

            .cls-1, .cls-2, .cls-3, .cls-4, .cls-5, .cls-6, .cls-7, .cls-8, .cls-9, .cls-10, .cls-11, .cls-12, .cls-13, .cls-14, .cls-15, .cls-16 {
            stroke-linecap: round;
            stroke-linejoin: round;
            }

            .cls-1, .cls-4, .cls-6, .cls-7, .cls-8, .cls-11, .cls-14 {
            stroke: #230a46;
            }

            .cls-17 {
            letter-spacing: -.08em;
            }

            .cls-18 {
            font-size: 4.33px;
            }

            .cls-18, .cls-19 {
            font-family: ReadexPro-Regular, 'ReadexPro Regular';
            font-variation-settings: ';
            }

            .cls-20 {
            fill: #181839;
            }

            .cls-2 {
            fill: #f9c2a9;
            }

            .cls-2, .cls-3, .cls-5, .cls-9, .cls-10, .cls-12, .cls-13, .cls-15, .cls-16 {
            stroke: #0e072b;
            }

            .cls-21 {
            letter-spacing: -.03em;
            }

            .cls-22 {
            letter-spacing: -.01em;
            }

            .cls-3 {
            fill: #ebebeb;
            }

            .cls-4 {
            fill: #8c92ef;
            }

            .cls-5 {
            fill: #97d78a;
            }

            .cls-23 {
            letter-spacing: 0em;
            }

            .cls-6 {
            fill: #baaafd;
            }

            .cls-24 {
            letter-spacing: .01em;
            }

            .cls-25 {
            letter-spacing: 0em;
            }

            .cls-7 {
            fill: #ddc1fa;
            }

            .cls-26 {
            letter-spacing: -.01em;
            }

            .cls-8 {
            fill: none;
            }

            .cls-9 {
            fill: #fff;
            }

            .cls-27 {
            font-size: 8.21px;
            }

            .cls-27, .cls-28, .cls-29 {
            font-family: ReadexPro-Bold, 'ReadexPro Bold';
            font-variation-settings: ';
            font-weight: 700;
            }

            .cls-30 {
            letter-spacing: 0em;
            }

            .cls-31 {
            letter-spacing: -.02em;
            }

            .cls-32 {
            font-family: ReadexPro-ExtraLight, 'ReadexPro ExtraLight';
            font-variation-settings: ';
            font-weight: 200;
            }

            .cls-32, .cls-19 {
            font-size: 5.2px;
            }

            .cls-33 {
            letter-spacing: 0em;
            }

            .cls-10 {
            fill: #fda803;
            }

            .cls-34 {
            letter-spacing: 0em;
            }

            .cls-35 {
            letter-spacing: -.05em;
            }

            .cls-36 {
            letter-spacing: .02em;
            }

            .cls-37 {
            letter-spacing: -.08em;
            }

            .cls-38 {
            letter-spacing: 0em;
            }

            .cls-39, .cls-13, .cls-15 {
            fill: #0e072b;
            }

            .cls-40 {
            letter-spacing: -.01em;
            }

            .cls-11 {
            fill: #aba5fd;
            }

            .cls-12 {
            fill: #0494c5;
            }

            .cls-41 {
            letter-spacing: 0em;
            }

            .cls-13 {
            opacity: .3;
            }

            .cls-14 {
            fill: #757bc6;
            }

            .cls-42 {
            letter-spacing: 0em;
            }

            .cls-43 {
            letter-spacing: -.01em;
            }

            .cls-44 {
            letter-spacing: -.01em;
            }

            .cls-45 {
            letter-spacing: 0em;
            }

            .cls-46 {
            letter-spacing: -.02em;
            }

            .cls-28 {
            font-size: 5.26px;
            }

            .cls-29 {
            font-size: 10.4px;
            }

            .cls-47 {
            letter-spacing: 0em;
            }

            .cls-48 {
            letter-spacing: 0em;
            }

            .cls-16 {
            fill: #fffced;
            }
        </style>
    </defs>
    <g id="Layer_1-2" data-name="Layer 1">
        <g>
            <g>
                <g>
                    <path class="cls-6" d="M120.08,268.07s-70.27-36.68-38.96-60.44c0,0-50.41-71.88-5.79-82.28s33.3,62.32,33.3,62.32c0,0,34.79-28.87,11.45,80.4Z"/>
                    <path class="cls-15" d="M101.34,215.54s-11.62-68.71-43.71-59.17c4.03,23.51,23.49,51.26,23.49,51.26-31.31,23.77,38.96,60.44,38.96,60.44,2.58-12.06,4.44-22.44,5.73-31.36-6.52-42.25-24.47-21.18-24.47-21.18Z"/>
                </g>
                <path class="cls-1" d="M124.05,302.91s-79.35-25.27-51.24-55.52c0,0-67.67-52.23-28.34-79.99,39.33-27.76,53.21,54.36,53.21,54.36,0,0,30.8-36.16,26.37,81.15Z"/>
                <g>
                    <path class="cls-15" d="M112.53,329.69s-9.8-117.13-99.01-111.32c0,0,.82,25.6,19.92,29.42l-8.33,3.87s7.5,31.61,37.18,38.09l-8.5,3.87s13.71,31.86,58.75,36.07Z"/>
                    <path class="cls-6" d="M119.53,331.7s-16.81-119.13-106.02-113.33c0,0,7.83,27.61,26.92,31.42l-8.33,3.87s7.5,31.61,37.18,38.09l-8.5,3.87s13.71,31.86,58.75,36.07Z"/>
                </g>
                <g>
                    <path class="cls-15" d="M120.99,348.89S69.54,259.05.5,296.91c0,0,10.19,20.13,26.85,16.06l-5.2,6.19s17.76,22.44,43.86,16.56l-5.35,6.26s22.81,20.32,60.33,6.91Z"/>
                    <path class="cls-1" d="M127.33,347.88S69.54,259.05.5,296.91c0,0,16.53,19.12,33.19,15.06l-5.2,6.19s17.76,22.44,43.86,16.56l-5.35,6.26s22.81,20.32,60.33,6.91Z"/>
                </g>
                <g>
                    <g>
                        <path class="cls-7" d="M63.96,320.77s-2.14,43.61,59.59,70.39c0,0-16.27-55.21-59.59-70.39Z"/>
                        <line class="cls-8" x1="80.55" y1="340.19" x2="123.55" y2="391.16"/>
                    </g>
                    <g>
                        <g>
                            <path class="cls-15" d="M35.99,363.17s20.4,46.3,98.26,42.05c0,0-45.49-48.78-98.26-42.05Z"/>
                            <line class="cls-8" x1="63.26" y1="374.7" x2="134.25" y2="405.22"/>
                        </g>
                        <g>
                            <path class="cls-6" d="M50.38,338.84s7.72,50.01,84.03,66.04c0,0-31.32-58.9-84.03-66.04Z"/>
                            <line class="cls-8" x1="73.73" y1="357.04" x2="134.41" y2="404.89"/>
                        </g>
                    </g>
                </g>
                <g>
                    <g>
                        <path class="cls-7" d="M67.7,362.53s-1.91,38.94,53.21,62.85c0,0-14.53-49.3-53.21-62.85Z"/>
                        <line class="cls-8" x1="82.51" y1="379.88" x2="120.91" y2="425.39"/>
                    </g>
                    <g>
                        <g>
                            <path class="cls-15" d="M42.72,400.4s18.22,41.35,87.75,37.55c0,0-40.62-43.56-87.75-37.55Z"/>
                            <line class="cls-8" x1="67.07" y1="410.69" x2="130.47" y2="437.94"/>
                        </g>
                        <g>
                            <path class="cls-6" d="M55.57,378.67s6.9,44.65,75.04,58.98c0,0-27.97-52.59-75.04-58.98Z"/>
                            <line class="cls-8" x1="76.42" y1="394.92" x2="130.61" y2="437.65"/>
                        </g>
                    </g>
                </g>
                <g>
                    <path class="cls-6" d="M317.45,268.07s70.27-36.68,38.96-60.44c0,0,50.41-71.88,5.79-82.28-45.3-10.56-33.3,62.32-33.3,62.32,0,0-34.79-28.87-11.45,80.4Z"/>
                    <path class="cls-15" d="M336.2,215.54s11.62-68.71,43.71-59.17c-4.03,23.51-23.49,51.26-23.49,51.26,31.31,23.77-38.96,60.44-38.96,60.44-2.58-12.06-4.44-22.44-5.73-31.36,6.52-42.25,24.47-21.18,24.47-21.18Z"/>
                </g>
                <path class="cls-1" d="M313.48,302.91s79.35-25.27,51.24-55.52c0,0,67.67-52.23,28.34-79.99-39.33-27.76-53.21,54.36-53.21,54.36,0,0-30.8-36.16-26.37,81.15Z"/>
                <g>
                    <path class="cls-15" d="M325.01,329.69s9.8-117.13,99.01-111.32c0,0-.82,25.6-19.92,29.42l8.33,3.87s-7.5,31.61-37.18,38.09l8.5,3.87s-13.71,31.86-58.75,36.07Z"/>
                    <path class="cls-6" d="M318,331.7s16.81-119.13,106.02-113.33c0,0-7.83,27.61-26.92,31.42l8.33,3.87s-7.5,31.61-37.18,38.09l8.5,3.87s-13.71,31.86-58.75,36.07Z"/>
                </g>
                <g>
                    <path class="cls-15" d="M316.54,348.89s51.44-89.84,120.49-51.98c0,0-10.19,20.13-26.85,16.06l5.2,6.19s-17.76,22.44-43.86,16.56l5.35,6.26s-22.81,20.32-60.33,6.91Z"/>
                    <path class="cls-1" d="M310.21,347.88s57.78-88.83,126.83-50.98c0,0-16.53,19.12-33.19,15.06l5.2,6.19s-17.76,22.44-43.86,16.56l5.35,6.26s-22.81,20.32-60.33,6.91Z"/>
                </g>
                <g>
                    <g>
                        <path class="cls-7" d="M373.58,320.77s2.14,43.61-59.59,70.39c0,0,16.27-55.21,59.59-70.39Z"/>
                        <line class="cls-8" x1="356.99" y1="340.19" x2="313.99" y2="391.16"/>
                    </g>
                    <g>
                        <g>
                            <path class="cls-15" d="M401.54,363.17s-20.4,46.3-98.26,42.05c0,0,45.49-48.78,98.26-42.05Z"/>
                            <line class="cls-8" x1="374.28" y1="374.7" x2="303.28" y2="405.22"/>
                        </g>
                        <g>
                            <path class="cls-6" d="M387.16,338.84s-7.72,50.01-84.03,66.04c0,0,31.32-58.9,84.03-66.04Z"/>
                            <line class="cls-8" x1="363.8" y1="357.04" x2="303.13" y2="404.89"/>
                        </g>
                    </g>
                </g>
                <g>
                    <g>
                        <path class="cls-7" d="M369.84,362.53s1.91,38.94-53.21,62.85c0,0,14.53-49.3,53.21-62.85Z"/>
                        <line class="cls-8" x1="355.02" y1="379.88" x2="316.62" y2="425.39"/>
                    </g>
                    <g>
                        <g>
                            <path class="cls-15" d="M394.81,400.4s-18.22,41.35-87.75,37.55c0,0,40.62-43.56,87.75-37.55Z"/>
                            <line class="cls-8" x1="370.46" y1="410.69" x2="307.06" y2="437.94"/>
                        </g>
                        <g>
                            <path class="cls-6" d="M381.96,378.67s-6.9,44.65-75.04,58.98c0,0,27.97-52.59,75.04-58.98Z"/>
                            <line class="cls-8" x1="361.11" y1="394.92" x2="306.93" y2="437.65"/>
                        </g>
                    </g>
                </g>
            </g>
            <g>
                <rect class="cls-6" x="100.93" y="8.12" width="230" height="442.83" rx="13.57" ry="13.57"/>
                <path class="cls-13" d="M112.69,450.94h206.48c.89,0,1.76-.11,2.59-.3h0c0-3.95-3.2-7.16-7.16-7.16H101.76c1.72,4.36,5.96,7.45,10.94,7.45Z"/>
                <path class="cls-9" d="M120.96,15.12h189.83c7.49,0,13.57,6.08,13.57,13.57v383.46c0,13.71-11.13,24.83-24.83,24.83h-167.31c-13.71,0-24.83-11.13-24.83-24.83V28.7c0-7.49,6.08-13.57,13.57-13.57Z"/>
                <g>
                    <rect class="cls-3" x="221.01" y="187.12" width="88.81" height="88.81"/>
                    <g>
                        <rect class="cls-4" x="247.13" y="210.47" width="38.46" height="28.48"/>
                        <polygon class="cls-15" points="285.59 238.95 285.59 218.85 247.13 210.47 247.13 238.95 285.59 238.95"/>
                        <polygon class="cls-6" points="247.13 210.47 247.13 241.29 279.18 252.59 279.18 219.71 247.13 210.47"/>
                    </g>
                    <text class="cls-19" transform="translate(230.37 266.86)"><tspan class="cls-44" x="0" y="0">L</tspan><tspan x="2.38" y="0">o</tspan><tspan class="cls-43" x="5.24" y="0">r</tspan><tspan x="6.88" y="0">em ipsum</tspan></text>
                    <rect class="cls-3" x="124.05" y="187.12" width="88.81" height="88.81"/>
                    <g>
                        <path class="cls-1" d="M160.68,196.18h18.09c6.27,0,11.36,5.09,11.36,11.36v43.57c0,2.67-2.17,4.83-4.83,4.83h-31.14c-2.67,0-4.83-2.17-4.83-4.83v-43.57c0-6.27,5.09-11.36,11.36-11.36Z"/>
                        <path class="cls-13" d="M161.01,196.19c-6.48.15-11.69,5.44-11.69,11.96v42.7c0,2.81,2.28,5.09,5.09,5.09h6.6v-59.75Z"/>
                        <polygon class="cls-11" points="183.77 212.95 169.5 218.23 155.23 212.95 155.23 203.2 183.77 203.2 183.77 212.95"/>
                        <g>
                            <rect class="cls-14" x="151.32" y="236.99" width="36.57" height="15.83" rx="3.9" ry="3.9"/>
                            <path class="cls-13" d="M151.32,248.7c0,2.27,1.84,4.12,4.12,4.12h1.08l26.77-6.95-31.97-3.92v6.75Z"/>
                            <path class="cls-11" d="M183.78,236.99h-28.34c-2.27,0-4.12,1.84-4.12,4.12v4.77h36.57v-4.77c0-2.27-1.84-4.12-4.12-4.12Z"/>
                        </g>
                        <rect class="cls-3" x="167.64" y="242.14" width="3.73" height="7.45"/>
                    </g>
                    <text class="cls-19" transform="translate(131.81 266.86)"><tspan class="cls-44" x="0" y="0">L</tspan><tspan x="2.38" y="0">o</tspan><tspan class="cls-43" x="5.24" y="0">r</tspan><tspan x="6.88" y="0">em ipsum</tspan></text>
                    <rect class="cls-3" x="221.01" y="283.58" width="88.81" height="88.81"/>
                    <g>
                        <rect class="cls-6" x="260.57" y="288.98" width="5.19" height="21.14"/>
                        <rect class="cls-13" x="260.57" y="288.98" width="2.59" height="21.14"/>
                        <rect class="cls-1" x="252.05" y="308.08" width="22.22" height="38.32"/>
                        <polygon class="cls-13" points="252.05 308.08 252.05 346.4 264.02 346.4 252.05 308.08"/>
                    </g>
                    <text class="cls-19" transform="translate(230.37 363.13)"><tspan class="cls-44" x="0" y="0">L</tspan><tspan x="2.38" y="0">o</tspan><tspan class="cls-43" x="5.24" y="0">r</tspan><tspan x="6.88" y="0">em ipsum</tspan></text>
                    <rect class="cls-3" x="124.05" y="283.58" width="88.81" height="88.81"/>
                    <g>
                        <polygon class="cls-1" points="180.04 304.22 181.88 314.23 185.38 314.23 182.79 302.91 159.54 302.91 156.41 314.23 159.94 314.23 162.17 304.22 180.04 304.22"/>
                        <rect class="cls-6" x="134.41" y="314.23" width="70.19" height="28.12" rx="4.26" ry="4.26"/>
                        <path class="cls-13" d="M204.6,317.64c0-1.88-1.53-3.41-3.41-3.41h-63.37c-1.88,0-3.41,1.53-3.41,3.41v21.3c0,1.88,1.53,3.41,3.41,3.41h1.62l8-17.63,57.15-6.77v-.31Z"/>
                        <path class="cls-7" d="M201.19,314.23h-63.37c-1.88,0-3.41,1.53-3.41,3.41v2.85h70.19v-2.85c0-1.88-1.53-3.41-3.41-3.41Z"/>
                    </g>
                    <text class="cls-19" transform="translate(131.81 363.13)"><tspan class="cls-44" x="0" y="0">L</tspan><tspan x="2.38" y="0">o</tspan><tspan class="cls-43" x="5.24" y="0">r</tspan><tspan x="6.88" y="0">em ipsum</tspan></text>
                </g>
                <g>
                    <text class="cls-18" transform="translate(180.33 162.28)"><tspan class="cls-17" x="0" y="0">F</tspan><tspan x="1.77" y="0">ASHION</tspan></text>
                    <text class="cls-18" transform="translate(208.71 162.28)"><tspan x="0" y="0">T</tspan><tspan class="cls-45" x="2.15" y="0">R</tspan><tspan class="cls-35" x="4.51" y="0">A</tspan><tspan class="cls-23" x="6.93" y="0">VEL</tspan></text>
                    <text class="cls-18" transform="translate(234.38 162.28)"><tspan class="cls-33" x="0" y="0">E</tspan><tspan class="cls-23" x="2.17" y="0">VE</tspan><tspan class="cls-26" x="6.72" y="0">R</tspan><tspan x="9" y="0">Y </tspan><tspan class="cls-22" x="12.27" y="0">D</tspan><tspan class="cls-37" x="15.09" y="0">A</tspan><tspan x="17.4" y="0">Y</tspan></text>
                </g>
                <path class="cls-3" d="M312.6,15.12H119.15c-6.5,0-11.76,6.02-11.76,13.44v123.98h216.98V28.56c0-7.42-5.27-13.44-11.76-13.44Z"/>
                <g>
                    <g>
                        <g>
                            <polygon class="cls-7" points="286.83 113.54 280.01 113.54 276.67 92.15 286.83 92.15 286.83 113.54"/>
                            <polygon class="cls-15" points="280 113.47 286.83 93.06 286.83 92.15 280.39 92.15 276.89 93.52 280 113.47"/>
                        </g>
                        <path class="cls-16" d="M261.37,60.22h25.85s.67,24.84,0,31.38c-.67,6.55-22.11,7.3-29.81,16.55s-25.55,8.37-46.25,8.37,37.22-24.45,43.83-34.58,6.39-21.73,6.39-21.73Z"/>
                        <path class="cls-7" d="M287.22,91.6c.07-.65.12-1.49.16-2.46-14.68,1.53-34.33,12.51-34.33,12.51-2.86-4.97-9.02-6.88-14.83-7.49-17.94,10.59-41.44,22.37-27.07,22.37,20.7,0,38.54.88,46.25-8.37,7.71-9.25,29.14-10.01,29.81-16.55Z"/>
                    </g>
                    <g>
                        <g>
                            <polygon class="cls-7" points="306.09 113.54 299.27 113.54 295.93 92.15 306.09 92.15 306.09 113.54"/>
                            <polygon class="cls-15" points="299.26 113.47 306.09 93.06 306.09 92.15 299.65 92.15 296.14 93.52 299.26 113.47"/>
                        </g>
                        <path class="cls-16" d="M280.62,60.22h25.85s.67,24.84,0,31.38-22.11,7.3-29.81,16.55c-7.71,9.25-25.55,8.37-46.25,8.37s37.22-24.45,43.83-34.58c6.61-10.13,6.39-21.73,6.39-21.73Z"/>
                        <path class="cls-7" d="M306.47,91.6c.07-.65.12-1.49.16-2.46-14.68,1.53-34.33,12.51-34.33,12.51-2.86-4.97-9.02-6.88-14.83-7.49-17.94,10.59-41.44,22.37-27.07,22.37,20.7,0,38.54.88,46.25-8.37,7.71-9.25,29.14-10.01,29.81-16.55Z"/>
                    </g>
                </g>
                <text class="cls-29" transform="translate(131.81 69.06)"><tspan x="0" y="0">S</tspan><tspan class="cls-21" x="5.13" y="0">T</tspan><tspan x="10.01" y="0">ORE</tspan></text>
                <text class="cls-32" transform="translate(131.81 77.1)"><tspan class="cls-44" x="0" y="0">L</tspan><tspan x="2.38" y="0">o</tspan><tspan class="cls-41" x="5.24" y="0">r</tspan><tspan x="6.88" y="0">em ipsum dolor sit ame</tspan><tspan class="cls-25" x="57.68" y="0">t</tspan><tspan x="59.39" y="0">, </tspan><tspan class="cls-30" x="0" y="6.24">c</tspan><tspan x="2.3" y="6.24">onse</tspan><tspan class="cls-24" x="12.7" y="6.24">c</tspan><tspan class="cls-34" x="15.1" y="6.24">t</tspan><tspan x="16.79" y="6.24">etuer adipiscing eli</tspan><tspan class="cls-25" x="57.76" y="6.24">t</tspan><tspan x="59.47" y="6.24">, </tspan><tspan x="0" y="12.48">sed diam nonum</tspan><tspan class="cls-40" x="36.62" y="12.48">m</tspan><tspan x="40.89" y="12.48">y nibh </tspan><tspan x="0" y="18.72">euismod tincidu</tspan><tspan class="cls-42" x="35.14" y="18.72">n</tspan><tspan x="38" y="18.72">t ut lao</tspan><tspan class="cls-41" x="53.1" y="18.72">r</tspan><tspan x="54.75" y="18.72">eet </tspan><tspan x="0" y="24.96">dolo</tspan><tspan class="cls-41" x="9.87" y="24.96">r</tspan><tspan x="11.52" y="24.96">e ma</tspan><tspan class="cls-30" x="22.07" y="24.96">g</tspan><tspan x="24.94" y="24.96">na aliquam e</tspan><tspan class="cls-47" x="52.73" y="24.96">ra</tspan><tspan x="56.88" y="24.96">t </tspan><tspan class="cls-41" x="0" y="31.2">v</tspan><tspan x="2.45" y="31.2">olutp</tspan><tspan class="cls-42" x="14.07" y="31.2">a</tspan><tspan class="cls-25" x="16.56" y="31.2">t</tspan><tspan x="18.26" y="31.2">. </tspan><tspan class="cls-48" x="20.44" y="31.2">U</tspan><tspan x="23.83" y="31.2">t wisi </tspan></text>
                <rect class="cls-39" x="240.19" y="120.19" width="69.64" height="1.22"/>
                <rect class="cls-39" x="215.15" y="120.19" width="20.73" height="1.22"/>
                <text class="cls-28" transform="translate(273.52 29.63)"><tspan x="0" y="0">G</tspan><tspan class="cls-36" x="3.4" y="0">E</tspan><tspan x="6.07" y="0">T</tspan></text>
                <text class="cls-28" transform="translate(289.55 29.63)"><tspan class="cls-46" x="0" y="0">A</tspan><tspan class="cls-31" x="3.14" y="0">CC</tspan><tspan x="9.03" y="0">OUNT</tspan></text>
                <text class="cls-27" transform="translate(195.59 29.06)"><tspan class="cls-38" x="0" y="0">y</tspan><tspan x="3.78" y="0">our logo</tspan></text>
                <g>
                    <rect class="cls-15" x="119.34" y="23.35" width="9.35" height="1.59" rx=".8" ry=".8"/>
                    <rect class="cls-15" x="119.42" y="26.67" width="9.35" height="1.59" rx=".8" ry=".8"/>
                    <rect class="cls-15" x="119.34" y="29.95" width="9.35" height="1.59" rx=".8" ry=".8"/>
                </g>
            </g>
            <g>
                <path class="cls-15" d="M364.18,240.62s-.41,6.02-14.85,6.63v-9.22s12.65-1.36,14.85,2.59Z"/>
                <g>
                    <g>
                        <polygon class="cls-2" points="319.12 412.89 317.72 431.28 338.18 431.28 339.95 412.89 319.12 412.89"/>
                        <path class="cls-12" d="M312.24,229.86h43.32s3.85,26.5-4.19,37.21c0,0-5.05,45.76-11.13,57.16,0,0,11.5,78.68,9.97,96l-56.22-1.02s17.53-61.21,14.34-100,3.91-89.35,3.91-89.35Z"/>
                        <path class="cls-15" d="M340.24,324.22c.47-.88.94-1.98,1.4-3.24l-26.92,1.31,26.1,97.77,9.4.17c1.53-17.33-9.97-96-9.97-96Z"/>
                        <path class="cls-5" d="M287.98,448.37h51.97v-20.52s-2.26-2.55-8.41-2.21-7.96,2.8-7.96,2.8c0,0-4.01-2.88-6.14-2.46s-7.16,7.31-20.19,8.92-9.26,13.47-9.26,13.47Z"/>
                        <rect class="cls-5" x="285.6" y="443.49" width="56.55" height="7.45"/>
                    </g>
                    <g>
                        <path class="cls-12" d="M294.3,227.84s-4.61,65.51,21.6,105.32c6.63,10.07,23.08,10.07,22.1-7.61-.98-17.68-3.93-60.15-3.93-60.15,0,0,14.3-15.71,8.99-36.58l-48.76-.98Z"/>
                        <path class="cls-15" d="M335.62,288.13c-15.17,8.54-10.39,29.56-10.39,29.56l12.1-3.36c-.51-8.12-1.14-17.69-1.71-26.2Z"/>
                        <polygon class="cls-2" points="340.24 296.39 364.18 279.76 368.39 293.99 346.32 324.22 340.24 296.39"/>
                        <g>
                            <path class="cls-5" d="M380.8,269.03s-8.4-2.13-20.76,13.34c0,0,4.9,49.15,20.76,41.96v-55.3Z"/>
                            <ellipse class="cls-15" cx="380.8" cy="296.68" rx="9.27" ry="27.65"/>
                        </g>
                        <path class="cls-12" d="M322.48,319.59s3.52-20.63,28.63-30.87c0,0-2.56,25.43,7.52,46.71,0,0-33.03,12.96-40.91,0"/>
                    </g>
                </g>
                <g>
                    <g>
                        <path class="cls-5" d="M359.66,164.21s15.57,61.59,10.25,65.73c-5.32,4.14-34.07,4.33-34.07,4.33,0,0-.62-65.67,23.82-70.06Z"/>
                        <path class="cls-15" d="M357.9,210.64l1.14-34.25-14.78,3.62c-8.73,20.74-8.42,54.26-8.42,54.26,0,0,21.98-.15,31.06-2.95l-9-20.68Z"/>
                    </g>
                    <g>
                        <path class="cls-5" d="M364.18,240.62l-12.83-31.93s10.06-32.95,8.31-44.47c-1.75-11.52-52.94-22.09-66.64,16.48-4.18,11.78.73,14.94,1.02,23.18.35,10.15-2.19,31.5-2.19,31.5,0,0,12.25,7.44,28.14,7.73s35.87-6.42,44.18-2.48Z"/>
                        <path class="cls-15" d="M293.02,180.69c-1.43,4.04-1.8,7.06-1.65,9.62l18.45-13.09-12.71-5.06c-1.58,2.53-2.97,5.36-4.09,8.53Z"/>
                    </g>
                    <g>
                        <g>
                            <path class="cls-2" d="M241.95,111.5s-13.63-19.74-16.58-23.3-19.74-17.8-23.81-18.92-3.97,2.44-2.14,4.37,10.07,7.53,10.07,7.53c0,0-5.08,20.04,10.58,19.74,0,0,8.34,21.36,15.15,27.27l6.71-16.68Z"/>
                            <path class="cls-15" d="M241.95,111.5s-2.12-3.06-4.86-6.99c-4.12,3.05-7.64,7.36-10.29,11.23,2.55,4.91,5.48,9.75,8.2,12.23.31-.52.64-1.08.99-1.68l5.95-14.79Z"/>
                            <path class="cls-2" d="M212.43,81.4s-3.49-3.01-8.89-.67c-4.1,1.78,1.39,5.07,1.39,5.07l4.45-.43"/>
                            <path class="cls-2" d="M212.43,84.38s-3.49-3.01-8.89-.67c-4.1,1.78,1.39,5.07,1.39,5.07l4.45-.43"/>
                            <path class="cls-2" d="M212.43,87.36s-3.49-3.01-8.89-.67c-4.1,1.78,1.39,5.07,1.39,5.07l4.45-.43"/>
                            <path class="cls-2" d="M212.43,90.83s-3.49-3.01-8.89-.67c-4.1,1.78.08,4.93,1.39,5.07,2.42.25,4.95-.37,4.95-.37"/>
                        </g>
                        <path class="cls-5" d="M310.13,180.12s-39.21-12.33-48.86-14.98-38.59-23.2-38.59-23.2c0,0,5.55-29.63,13.99-38.31,0,0,26.29,27.74,28.95,29.19s32.84,6.36,58.75,24.41"/>
                    </g>
                </g>
                <g>
                    <path class="cls-2" d="M335.96,126.65s-18.8,8.43-6.32,17.22c0,0-1.05,7.03-5.27,10.72l15.11,2.64s12.47-24.95-3.51-30.57Z"/>
                    <path class="cls-5" d="M320.22,155.3s7.46-7.27,22.85-3.62l-.62,7.04s-17.52-1.36-22.22-3.42Z"/>
                    <circle class="cls-15" cx="342.44" cy="135.38" r="13.96"/>
                    <path class="cls-15" d="M356.4,118.36c-14.98-.33-8.93,67,22.07,68.31s22.09-22.4,9.46-27.06c-27.85-10.28-19.7-40.99-31.53-41.25Z"/>
                </g>
            </g>
            <g>
                <g>
                    <path class="cls-20" d="M324.36,33.99c-9.37,0-16.99-7.62-16.99-16.99s7.62-16.99,16.99-16.99,16.99,7.62,16.99,16.99-7.62,16.99-16.99,16.99ZM324.36,1.07c-8.78,0-15.93,7.15-15.93,15.93s7.14,15.93,15.93,15.93,15.93-7.14,15.93-15.93-7.14-15.93-15.93-15.93Z"/>
                    <path class="cls-20" d="M324.36,26.54c-5.26,0-9.55-4.28-9.55-9.55s4.28-9.55,9.55-9.55,9.55,4.28,9.55,9.55-4.28,9.55-9.55,9.55ZM324.36,8.51c-4.68,0-8.48,3.8-8.48,8.48s3.8,8.48,8.48,8.48,8.48-3.8,8.48-8.48-3.8-8.48-8.48-8.48Z"/>
                </g>
                <g>
                    <path class="cls-20" d="M347.2,49.92c-5.89,0-10.68-4.79-10.68-10.68s4.79-10.68,10.68-10.68,10.68,4.79,10.68,10.68-4.79,10.68-10.68,10.68ZM347.2,29.22c-5.52,0-10.01,4.49-10.01,10.01s4.49,10.01,10.01,10.01,10.01-4.49,10.01-10.01-4.49-10.01-10.01-10.01Z"/>
                    <path class="cls-20" d="M347.2,45.24c-3.31,0-6-2.69-6-6s2.69-6,6-6,6,2.69,6,6-2.69,6-6,6ZM347.2,33.9c-2.94,0-5.33,2.39-5.33,5.33s2.39,5.33,5.33,5.33,5.33-2.39,5.33-5.33-2.39-5.33-5.33-5.33Z"/>
                </g>
                <g>
                    <circle class="cls-9" cx="383.36" cy="83.57" r="34.79"/>
                    <g>
                        <path class="cls-9" d="M367.62,73.28h29.16c4.72,0,8.55,3.83,8.55,8.55v7.84c0,4.72-3.83,8.55-8.55,8.55h-29.16v-24.93h0Z"/>
                        <rect class="cls-5" x="357.97" y="70.88" width="19.29" height="30.55" rx="8.89" ry="8.89"/>
                        <path class="cls-9" d="M381.59,56.03h0c4.6,0,8.33,3.73,8.33,8.33v8.93h-11.14v-14.44c0-1.55,1.26-2.81,2.81-2.81Z"/>
                    </g>
                </g>
                <polygon class="cls-10" points="340.49 53.04 345.1 55.54 349.78 53.16 348.82 58.32 352.53 62.03 347.33 62.72 344.94 67.39 342.68 62.66 337.5 61.83 341.31 58.22 340.49 53.04"/>
                <polygon class="cls-10" points="52.37 268.76 56.98 271.26 61.66 268.88 60.7 274.04 64.41 277.75 59.21 278.44 56.82 283.11 54.56 278.38 49.38 277.55 53.19 273.94 52.37 268.76"/>
                <polygon class="cls-10" points="391.78 123.72 398.84 127.55 406 123.91 404.54 131.81 410.21 137.49 402.25 138.54 398.6 145.7 395.14 138.44 387.2 137.18 393.03 131.65 391.78 123.72"/>
                <polygon class="cls-10" points="95.12 42.05 102.18 45.88 109.34 42.24 107.88 50.14 113.55 55.82 105.59 56.87 101.93 64.03 98.48 56.78 90.54 55.51 96.37 49.98 95.12 42.05"/>
                <g>
                    <polygon class="cls-20" points=".5 441.33 12.78 447.44 25.21 441.26 37.63 447.44 50.06 441.26 62.48 447.44 74.9 441.26 86.17 446.87 86.17 445.14 74.9 439.53 62.48 445.72 50.06 439.53 37.63 445.72 25.21 439.53 12.78 445.72 .5 439.6 .5 441.33"/>
                    <polygon class="cls-20" points=".5 434.3 12.78 440.42 25.21 434.23 37.63 440.42 50.06 434.23 62.48 440.42 74.9 434.23 86.17 439.84 86.17 438.11 74.9 432.51 62.48 438.69 50.06 432.51 37.63 438.69 25.21 432.51 12.78 438.69 .5 432.58 .5 434.3"/>
                </g>
                <g>
                    <polygon class="cls-20" points="37.26 77.17 43.77 80.41 50.35 77.14 56.93 80.41 63.51 77.14 70.08 80.41 76.66 77.14 82.63 80.11 82.63 79.19 76.66 76.22 70.08 79.5 63.51 76.22 56.93 79.5 50.35 76.22 43.77 79.5 37.26 76.26 37.26 77.17"/>
                    <polygon class="cls-20" points="37.26 73.45 43.77 76.69 50.35 73.41 56.93 76.69 63.51 73.41 70.08 76.69 76.66 73.41 82.63 76.38 82.63 75.47 76.66 72.5 70.08 75.77 63.51 72.5 56.93 75.77 50.35 72.5 43.77 75.77 37.26 72.54 37.26 73.45"/>
                </g>
                <g>
                    <rect class="cls-9" x="37.26" y="82.24" width="90.06" height="19.14"/>
                    <polygon class="cls-10" points="48.03 84.66 50.35 89.37 55.55 90.12 51.79 93.78 52.68 98.96 48.03 96.51 43.39 98.96 44.27 93.78 40.52 90.12 45.71 89.37 48.03 84.66"/>
                    <polygon class="cls-10" points="64.79 84.66 67.11 89.37 72.31 90.12 68.55 93.78 69.44 98.96 64.79 96.51 60.15 98.96 61.03 93.78 57.28 90.12 62.47 89.37 64.79 84.66"/>
                    <polygon class="cls-10" points="81.7 84.66 84.03 89.37 89.22 90.12 85.46 93.78 86.35 98.96 81.7 96.51 77.06 98.96 77.95 93.78 74.19 90.12 79.38 89.37 81.7 84.66"/>
                    <polygon class="cls-10" points="98.84 84.66 101.16 89.37 106.36 90.12 102.6 93.78 103.49 98.96 98.84 96.51 94.2 98.96 95.08 93.78 91.33 90.12 96.52 89.37 98.84 84.66"/>
                    <polygon class="cls-10" points="115.83 84.66 118.16 89.37 123.35 90.12 119.59 93.78 120.48 98.96 115.83 96.51 111.19 98.96 112.08 93.78 108.32 90.12 113.51 89.37 115.83 84.66"/>
                </g>
            </g>
        </g>
    </g>
</svg>