<?xml version="1.0" encoding="UTF-8"?>
<svg id="OBJECTS" xmlns="http://www.w3.org/2000/svg" xmlns:xlink="http://www.w3.org/1999/xlink" viewBox="0 0 403.45 439.62">
    <defs>
        <style>
            .cls-1 {
            fill: #9da2ad;
            }

            .cls-2 {
            fill: #8f97a2;
            }

            .cls-3 {
            fill: #a4d4e0;
            }

            .cls-4 {
            fill: #fff;
            }

            .cls-5 {
            fill: #bdebf2;
            }

            .cls-6 {
            fill: none;
            }

            .cls-7 {
            fill: #cbcfd7;
            }

            .cls-8 {
            fill: #202135;
            }

            .cls-9 {
            fill: #d4fbff;
            }

            .cls-10 {
            fill: #676d77;
            }

            .cls-11 {
            fill: #649db4;
            }

            .cls-12 {
            fill: #508099;
            }

            .cls-13 {
            fill: #8b929d;
            }

            .cls-14 {
            fill: #aaafba;
            }

            .cls-15 {
            fill: #7db5d0;
            }

            .cls-16 {
            fill: #7dbfe6;
            }

            .cls-17 {
            clip-path: url(#clippath);
            }

            .cls-18 {
            fill: #e5e7eb;
            }
        </style>
        <clipPath id="clippath">
            <path class="cls-6" d="M391,383.39c0,5.04-4.01,9.14-8.93,9.14h-59.26c-4.93,0-8.94-4.1-8.94-9.14v-145.99c0-5.04,4.01-9.14,8.94-9.14h59.26c4.92,0,8.93,4.1,8.93,9.14v145.99Z"/>
        </clipPath>
    </defs>
    <g>
        <g>
            <g>
                <path class="cls-7" d="M211.65,435.65c0,2.19-1.78,3.97-3.97,3.97H71.26c-2.19,0-3.97-1.78-3.97-3.97,0-1.1.44-2.09,1.16-2.81.72-.72,1.71-1.16,2.81-1.16h13.01c12.21,0,22.11-9.9,22.11-22.11v-11.27h66.2v11.27c0,12.21,9.9,22.11,22.11,22.11h13.01c2.19,0,3.97,1.78,3.97,3.97Z"/>
                <path class="cls-14" d="M194.68,431.68h-110.41c12.21,0,22.11-9.9,22.11-22.11v-11.27h66.2v11.27c0,12.21,9.9,22.11,22.11,22.11Z"/>
                <polygon class="cls-2" points="172.57 401.22 106.37 407.77 106.37 398.3 172.57 398.3 172.57 401.22"/>
            </g>
            <g>
                <path class="cls-8" d="M276.09,221.7v167.55H.68v-167.55c0-4.22,3.42-7.64,7.63-7.64h260.14c4.22,0,7.63,3.42,7.63,7.64Z"/>
                <rect class="cls-4" x="7.44" y="223.66" width="261.88" height="157.94"/>
                <path class="cls-10" d="M276.61,385.91h-1.05v-164.21c0-3.92-3.19-7.11-7.11-7.11H8.31c-3.92,0-7.11,3.19-7.11,7.11v164.21H.16v-164.21c0-4.5,3.66-8.16,8.16-8.16h260.14c4.5,0,8.16,3.66,8.16,8.16v164.21Z"/>
                <path class="cls-16" d="M112.29,218.76c0,1.2-.98,2.18-2.18,2.18s-2.18-.98-2.18-2.18.98-2.18,2.18-2.18,2.18.98,2.18,2.18Z"/>
                <path class="cls-7" d="M276.61,385.58v.34c0,7.06-5.72,12.79-12.79,12.79H12.94c-7.06,0-12.79-5.72-12.79-12.79v-.34h276.45Z"/>
                <path class="cls-14" d="M30.71,391.59c0,2.25-1.82,4.08-4.08,4.08s-4.08-1.82-4.08-4.08,1.82-4.08,4.08-4.08,4.08,1.82,4.08,4.08Z"/>
                <path class="cls-10" d="M276.61,371.55l.12,9.68.04,4.84c.05,4.96-3.03,9.72-7.56,11.77-2.23,1.09-4.77,1.28-7.22,1.23,0,0-2.42.02-2.42.02l-38.71.22c-62.99.27-140.63.2-203.67-.22,0,0-2.42-.02-2.42-.02h-1.21c-2.05,0-4.15-.36-6.01-1.23C3.04,395.79-.06,391.03,0,386.06l.04-4.84.12-9.68.12,9.68c.12,3.2-.32,6.54,1.03,9.47,2,4.85,7.06,7.94,12.26,7.66.71,0,2.88-.03,3.63-.03,76.08-.51,166.3-.5,242.38,0l2.42.02h1.21s.6.02.6.02l.59-.02c4.77-.12,9.24-3.22,11.06-7.64,1.36-2.94.91-6.27,1.03-9.47l.12-9.68h0Z"/>
                <path class="cls-10" d="M26.63,396.89c-2.92,0-5.3-2.38-5.3-5.3s2.38-5.3,5.3-5.3,5.3,2.38,5.3,5.3-2.38,5.3-5.3,5.3ZM26.63,386.92c-2.58,0-4.67,2.1-4.67,4.67s2.1,4.67,4.67,4.67,4.67-2.1,4.67-4.67-2.1-4.67-4.67-4.67Z"/>
                <rect class="cls-14" x="37.35" y="389.73" width="37.16" height="3.72" rx="1.67" ry="1.67"/>
            </g>
        </g>
        <g>
            <rect class="cls-9" x="7.44" y="235.14" width="261.88" height="76.1"/>
            <rect class="cls-3" x="7.44" y="301.36" width="261.88" height="9.88"/>
            <path class="cls-3" d="M7.44,301.36v-16.2l21.76,5.69s43.31,4.03,62.64.29h10.96l6.62-1.87h13.85l14-1.91,6.88-2.63,13.97,5.47,29.39,3.26-20.41,7.9H7.44Z"/>
            <path class="cls-5" d="M167.1,300.07v1.29H7.44s19.69-10.58,19.69-15.62h3.93l5.79-6.69h11.9l23.32,10.59c3.05,1.97,6.22,3.66,9.02,4.46h8.89l17.78,4.54h26.25l14.68,1.01,18.4.43Z"/>
            <polygon class="cls-3" points="31.07 285.74 42.51 285.74 58.67 292.53 45.95 285.53 52.77 282.43 42.02 282.43 36.85 279.04 31.07 285.74"/>
            <path class="cls-3" d="M81.1,294.09h-15.3l-9.32-9.36,9.32,4.9h6.28c3.05,1.97,6.22,3.66,9.02,4.46Z"/>
            <polygon class="cls-3" points="15.12 301.92 31.07 298.29 33.81 293.51 44.83 291.93 59.39 299.59 84.82 299.59 96.1 301.92 15.12 301.92"/>
            <polygon class="cls-5" points="144.16 284.73 152.12 290.2 141.25 291.16 126.38 297.59 108.8 294.63 97.43 294.63 107.36 293.05 102.81 291.14 109.42 289.27 123.28 289.27 137.28 287.35 144.16 284.73"/>
            <circle class="cls-3" cx="248.12" cy="258.36" r="8.7" transform="translate(-79.67 113.9) rotate(-22.37)"/>
            <polygon class="cls-5" points="196.37 290.2 171.29 290.73 166.23 294.48 152.12 297.5 156.25 298.22 172.32 299.23 187.51 293.35 196.37 290.2"/>
            <path class="cls-3" d="M269.32,285.29l-3.34,1.64h-9.02c-15.91,5.34-51.55-.41-51.55-.41l-38.32,14.84,20.41.16h81.81v-16.23Z"/>
            <path class="cls-5" d="M269.32,297.29l-13.89-6.14h-7.31c-2.31-1.15-4.91-3.55-7.42-6.36l-14.72-11.59-9.4,3.11-6.09,5.11-8.98,1.45-13.99,18.66h81.81v-4.23Z"/>
            <path class="cls-3" d="M248.12,291.15h-12.59l-7.66-13.35,7.66,6.99h5.16c2.51,2.81,5.12,5.22,7.42,6.36Z"/>
            <polygon class="cls-3" points="193.83 302.32 206.95 297.14 209.21 290.32 218.28 288.06 230.26 298.99 251.18 298.99 260.47 302.32 193.83 302.32"/>
            <polygon class="cls-5" points="269.32 285.29 265.98 286.93 269.32 289.36 269.32 285.29"/>
            <polygon class="cls-5" points="269.32 289.77 261.56 291.92 269.32 291.92 269.32 289.77"/>
            <polygon class="cls-3" points="216.57 276.3 220.08 280.9 229.06 288.86 216.57 283.62 201.5 282.86 210.48 281.41 216.57 276.3"/>
        </g>
        <g>
            <rect class="cls-1" x="7.44" y="223.68" width="261.88" height="11.46"/>
            <g>
                <circle class="cls-14" cx="252.84" cy="229.41" r="2.31"/>
                <circle class="cls-13" cx="244.75" cy="229.41" r="2.31"/>
                <circle class="cls-18" cx="260.93" cy="229.41" r="2.31"/>
            </g>
            <path class="cls-18" d="M224.8,229.42c0,.85-.35,1.63-.91,2.19-.56.57-1.34.91-2.19.91H68.71c-1.71,0-3.11-1.4-3.11-3.1,0-.85.35-1.63.91-2.19.57-.56,1.34-.91,2.19-.91h152.98c1.71,0,3.11,1.4,3.11,3.11Z"/>
            <path class="cls-14" d="M63.24,229.41c0,.86-.35,1.63-.91,2.19-.56.57-1.34.91-2.19.91h-8.21c-1.71,0-3.1-1.4-3.1-3.11,0-.85.35-1.63.91-2.19.56-.56,1.34-.91,2.19-.91h8.21c1.71,0,3.1,1.4,3.1,3.1Z"/>
            <path class="cls-13" d="M14.69,232.17c-.11,0-.23-.04-.31-.13l-2.34-2.31c-.08-.08-.13-.2-.13-.32s.05-.23.13-.32l2.34-2.31c.17-.17.46-.17.63,0,.17.17.17.46,0,.63l-2.02,2,2.02,2c.17.17.18.45,0,.63-.09.09-.2.13-.32.13Z"/>
            <path class="cls-13" d="M26.29,226.66c.11,0,.23.04.31.13l2.34,2.31c.08.08.13.2.13.32s-.05.23-.13.32l-2.34,2.31c-.17.17-.46.17-.63,0-.17-.17-.17-.46,0-.63l2.02-2-2.02-2c-.17-.17-.18-.45,0-.63.09-.09.2-.13.32-.13Z"/>
        </g>
        <g>
            <rect class="cls-12" x="7.44" y="235.14" width="261.88" height="9.68"/>
            <g>
                <path class="cls-9" d="M255.67,240.27c0,.63-.21,1.21-.55,1.62-.34.42-.8.68-1.32.68h-46.79c-1.02,0-1.86-1.03-1.86-2.3,0-.63.21-1.21.55-1.63.34-.42.8-.68,1.32-.68h46.79c1.02,0,1.86,1.04,1.86,2.3Z"/>
                <g>
                    <path class="cls-12" d="M252.6,241.32c-.77,0-1.41-.63-1.41-1.41s.63-1.41,1.41-1.41,1.4.63,1.4,1.41-.63,1.41-1.4,1.41ZM252.6,239c-.51,0-.92.41-.92.92s.41.92.92.92.92-.41.92-.92-.41-.92-.92-.92Z"/>
                    <path class="cls-12" d="M250.73,242.03c-.06,0-.13-.02-.17-.07-.1-.1-.1-.25,0-.35l1.03-1.03c.1-.1.25-.1.35,0s.1.25,0,.35l-1.03,1.03s-.11.07-.17.07Z"/>
                </g>
            </g>
        </g>
        <path class="cls-12" d="M121.78,282.11c0,.75-.31,1.43-.8,1.93-.49.5-1.17.8-1.93.8h-18.77c-1.5,0-2.73-1.23-2.73-2.73,0-.75.3-1.43.8-1.93.5-.5,1.18-.8,1.93-.8h18.77c1.5,0,2.73,1.22,2.73,2.73Z"/>
        <g>
            <rect class="cls-3" x="16.92" y="317.08" width="49.96" height="32.71"/>
            <polygon class="cls-15" points="16.92 349.79 16.92 339.72 29.89 334.25 40.96 334.25 51.36 327.67 62.91 333.44 66.88 334.47 66.88 349.79 16.92 349.79"/>
            <polygon class="cls-12" points="16.92 349.79 16.92 342.57 28.06 346.18 39.82 346.18 49.47 339.94 63.29 339.94 66.88 343.45 66.88 349.79 16.92 349.79"/>
            <path class="cls-12" d="M35.19,324.76c0,2.94-2.38,5.32-5.32,5.32s-5.32-2.38-5.32-5.32,2.38-5.32,5.32-5.32,5.32,2.38,5.32,5.32Z"/>
            <polygon class="cls-11" points="40.96 334.25 55.61 334.25 51.36 327.67 40.96 334.25"/>
            <polygon class="cls-11" points="29.89 334.25 32.82 341.12 39.43 343.8 25.84 343.8 16.92 339.72 29.89 334.25"/>
        </g>
        <rect class="cls-12" x="19.01" y="365.87" width="16.32" height="4.7" rx="2.03" ry="2.03"/>
        <g>
            <rect class="cls-15" x="74.15" y="317.06" width="49.96" height="32.71"/>
            <polygon class="cls-12" points="74.15 349.77 74.15 339.7 87.11 334.23 98.18 334.23 108.58 327.65 120.13 333.41 124.11 334.45 124.11 349.77 74.15 349.77"/>
            <polygon class="cls-11" points="74.15 349.77 74.15 342.55 85.28 346.16 97.05 346.16 106.7 339.92 120.51 339.92 124.11 343.43 124.11 349.77 74.15 349.77"/>
            <path class="cls-3" d="M92.42,324.74c0,2.94-2.38,5.32-5.32,5.32s-5.32-2.38-5.32-5.32,2.38-5.32,5.32-5.32,5.32,2.38,5.32,5.32Z"/>
            <polygon class="cls-11" points="98.18 334.23 112.83 334.23 108.58 327.65 98.18 334.23"/>
            <polygon class="cls-11" points="87.11 334.23 90.04 341.1 96.65 343.78 83.07 343.78 74.15 339.7 87.11 334.23"/>
        </g>
        <rect class="cls-12" x="76.24" y="365.85" width="16.32" height="4.7" rx="2.03" ry="2.03"/>
    </g>
    <g>
        <g>
            <path class="cls-7" d="M403.45,183.4c0,.39-.07.8-.24,1.18-1.67,3.89-5.5,6.41-9.73,6.41h-234.8c-4.23,0-8.06-2.52-9.73-6.41-.16-.37-.24-.76-.24-1.15,0-1.12.65-2.19,1.75-2.67l26.32-14.86h198.59l26.32,14.86c1.08.47,1.73,1.52,1.75,2.63Z"/>
            <path class="cls-8" d="M374.93,41.05v124.86h-197.68V41.05c0-3.14,2.55-5.69,5.69-5.69h186.31c3.14,0,5.69,2.55,5.69,5.69Z"/>
            <rect class="cls-4" x="182.28" y="42.51" width="187.61" height="117.7"/>
            <path class="cls-10" d="M375.32,165.91h-.78V41.05c0-2.92-2.38-5.3-5.3-5.3h-186.31c-2.92,0-5.3,2.38-5.3,5.3v124.86h-.78V41.05c0-3.35,2.73-6.08,6.08-6.08h186.31c3.35,0,6.08,2.73,6.08,6.08v124.86Z"/>
            <rect class="cls-8" x="259.18" y="183.83" width="33.81" height=".82"/>
            <rect class="cls-2" x="175.15" y="160.21" width="201.87" height="5.7" rx="1.69" ry="1.69"/>
            <polygon class="cls-14" points="383.08 175.99 169.09 175.99 181.98 166.98 370.19 166.98 383.08 175.99"/>
            <path class="cls-14" d="M304.74,181.92h-57.3c-2.03,0-3.1-1.29-1.74-2.11l4.44-2.65c.44-.26,1.08-.42,1.74-.42h48.42c.66,0,1.3.15,1.74.42l4.44,2.65c1.36.81.29,2.11-1.74,2.11Z"/>
            <path class="cls-14" d="M403.45,183.4c0,.39-.07.8-.24,1.18-1.67,3.89-5.5,6.41-9.73,6.41h-234.8c-4.23,0-8.06-2.52-9.73-6.41-.16-.37-.24-.76-.24-1.15h254.5c.08-.01.16-.02.24-.04Z"/>
            <path class="cls-10" d="M148.72,183.44c88.1-.8,166.56-.79,254.74-.04-88.2.78-166.61.81-254.74.04h0Z"/>
            <rect class="cls-10" x="253.87" y="183.83" width="44.44" height="2.82"/>
            <path class="cls-16" d="M259.61,38.86c0,.9-.73,1.63-1.63,1.63s-1.63-.73-1.63-1.63.73-1.63,1.63-1.63,1.63.73,1.63,1.63Z"/>
        </g>
        <g>
            <rect class="cls-9" x="182.33" y="50.72" width="187.61" height="54.51"/>
            <rect class="cls-3" x="182.33" y="98.15" width="187.6" height="7.08"/>
            <path class="cls-3" d="M182.33,98.15v-11.61l15.59,4.07s31.03,2.89,44.88.21h7.85l4.74-1.34h9.92l10.03-1.37,4.93-1.88,10.01,3.92,21.05,2.33-14.62,5.66h-114.38Z"/>
            <path class="cls-5" d="M296.7,97.23v.93h-114.38s14.11-7.58,14.11-11.19h2.81l4.15-4.8h8.53l16.7,7.58c2.18,1.41,4.45,2.62,6.46,3.19h6.37l12.74,3.25h18.81l10.52.72,13.18.31Z"/>
            <polygon class="cls-3" points="199.25 86.96 207.44 86.96 219.02 91.83 209.91 86.81 214.8 84.59 207.1 84.59 203.4 82.16 199.25 86.96"/>
            <path class="cls-3" d="M235.09,92.94h-10.96l-6.67-6.71,6.67,3.51h4.5c2.18,1.41,4.45,2.62,6.46,3.19Z"/>
            <polygon class="cls-3" points="187.83 98.55 199.25 95.96 201.22 92.53 209.11 91.39 219.54 96.88 237.76 96.88 245.84 98.55 187.83 98.55"/>
            <polygon class="cls-5" points="280.26 86.24 285.97 90.16 278.18 90.85 267.53 95.45 254.94 93.33 246.79 93.33 253.9 92.2 250.64 90.83 255.38 89.49 265.31 89.49 275.34 88.12 280.26 86.24"/>
            <path class="cls-3" d="M360.97,67.35c0,3.44-2.79,6.23-6.23,6.23s-6.23-2.79-6.23-6.23,2.79-6.23,6.23-6.23,6.23,2.79,6.23,6.23Z"/>
            <polygon class="cls-5" points="317.67 90.16 299.7 90.54 296.08 93.22 285.97 95.39 288.93 95.9 300.44 96.63 311.32 92.42 317.67 90.16"/>
            <path class="cls-3" d="M369.93,86.64l-2.39,1.17h-6.46c-11.39,3.83-36.93-.29-36.93-.29l-27.45,10.63,14.62.11h58.61v-11.62Z"/>
            <path class="cls-5" d="M369.93,95.24l-9.95-4.4h-5.24c-1.65-.82-3.52-2.55-5.32-4.56l-10.55-8.3-6.74,2.23-4.36,3.66-6.43,1.04-10.02,13.37h58.61v-3.03Z"/>
            <path class="cls-3" d="M354.74,90.83h-9.02l-5.49-9.57,5.49,5.01h3.7c1.8,2.01,3.66,3.74,5.32,4.56Z"/>
            <polygon class="cls-3" points="315.85 98.84 325.25 95.13 326.87 90.25 333.36 88.62 341.94 96.45 356.93 96.45 363.59 98.84 315.85 98.84"/>
            <polygon class="cls-5" points="369.93 86.64 367.54 87.82 369.93 89.56 369.93 86.64"/>
            <polygon class="cls-5" points="369.93 89.85 364.37 91.39 369.93 91.39 369.93 89.85"/>
            <polygon class="cls-3" points="332.14 80.2 334.65 83.49 341.09 89.2 332.14 85.44 321.34 84.9 327.78 83.86 332.14 80.2"/>
        </g>
        <g>
            <rect class="cls-1" x="182.33" y="42.51" width="187.61" height="8.21"/>
            <g>
                <path class="cls-14" d="M359.78,46.61c0,.91-.74,1.66-1.66,1.66s-1.66-.74-1.66-1.66.74-1.66,1.66-1.66,1.66.74,1.66,1.66Z"/>
                <path class="cls-13" d="M353.98,46.61c0,.91-.74,1.66-1.66,1.66s-1.66-.74-1.66-1.66.74-1.66,1.66-1.66,1.66.74,1.66,1.66Z"/>
                <path class="cls-18" d="M365.57,46.61c0,.91-.74,1.66-1.66,1.66s-1.66-.74-1.66-1.66.74-1.66,1.66-1.66,1.66.74,1.66,1.66Z"/>
            </g>
            <path class="cls-18" d="M338.04,46.61c0,.61-.25,1.17-.65,1.57-.4.4-.96.65-1.57.65h-109.59c-1.22,0-2.23-1-2.23-2.22,0-.61.25-1.17.65-1.57.4-.4.96-.65,1.57-.65h109.59c1.23,0,2.23,1,2.23,2.23Z"/>
            <path class="cls-14" d="M222.3,46.61c0,.61-.25,1.17-.65,1.57-.4.4-.96.65-1.57.65h-5.88c-1.22,0-2.22-1-2.22-2.23,0-.61.25-1.17.65-1.57.4-.4.96-.65,1.57-.65h5.88c1.22,0,2.22,1,2.22,2.22Z"/>
            <path class="cls-13" d="M187.52,48.59c-.08,0-.16-.03-.22-.09l-1.68-1.66c-.06-.06-.09-.14-.09-.23s.03-.17.09-.23l1.68-1.66c.13-.12.33-.12.45,0,.12.13.12.33,0,.45l-1.45,1.43,1.45,1.43c.12.12.13.33,0,.45-.06.06-.14.09-.23.09Z"/>
            <path class="cls-13" d="M195.83,44.64c.08,0,.16.03.22.09l1.68,1.66c.06.06.09.14.09.23s-.03.17-.09.23l-1.68,1.66c-.13.12-.33.12-.45,0-.12-.13-.12-.33,0-.45l1.45-1.43-1.45-1.43c-.12-.12-.13-.33,0-.45.06-.06.14-.09.23-.09Z"/>
        </g>
        <g>
            <rect class="cls-12" x="182.33" y="50.72" width="187.61" height="6.93"/>
            <g>
                <path class="cls-9" d="M360.15,54.39c0,.45-.15.86-.39,1.16-.24.3-.57.48-.94.48h-33.52c-.73,0-1.34-.74-1.34-1.65,0-.45.15-.87.39-1.17.24-.3.58-.48.94-.48h33.52c.73,0,1.34.74,1.34,1.65Z"/>
                <g>
                    <path class="cls-12" d="M357.95,55.14c-.56,0-1.01-.45-1.01-1.01s.45-1.01,1.01-1.01,1.01.45,1.01,1.01-.45,1.01-1.01,1.01ZM357.95,53.48c-.36,0-.66.29-.66.66s.29.66.66.66.66-.29.66-.66-.29-.66-.66-.66Z"/>
                    <path class="cls-12" d="M356.61,55.65s-.09-.02-.12-.05c-.07-.07-.07-.18,0-.25l.74-.74c.07-.07.18-.07.25,0s.07.18,0,.25l-.74.74s-.08.05-.12.05Z"/>
                </g>
            </g>
        </g>
        <path class="cls-12" d="M264.23,84.37c0,.54-.22,1.03-.58,1.38-.35.36-.84.58-1.38.58h-13.45c-1.08,0-1.96-.88-1.96-1.96,0-.54.22-1.03.58-1.38.36-.36.84-.58,1.38-.58h13.45c1.07,0,1.96.88,1.96,1.96Z"/>
        <g>
            <rect class="cls-3" x="192.03" y="113.65" width="35.79" height="23.43"/>
            <polygon class="cls-15" points="192.03 137.08 192.03 129.86 201.31 125.94 209.25 125.94 216.69 121.23 224.97 125.36 227.82 126.1 227.82 137.08 192.03 137.08"/>
            <polygon class="cls-12" points="192.03 137.08 192.03 131.9 200.01 134.49 208.43 134.49 215.35 130.02 225.24 130.02 227.82 132.53 227.82 137.08 192.03 137.08"/>
            <circle class="cls-12" cx="201.31" cy="119.15" r="3.81"/>
            <polygon class="cls-11" points="209.25 125.94 219.74 125.94 216.69 121.23 209.25 125.94"/>
            <polygon class="cls-11" points="201.31 125.94 203.42 130.87 208.15 132.79 198.42 132.79 192.03 129.86 201.31 125.94"/>
        </g>
        <rect class="cls-12" x="193.53" y="148.6" width="11.69" height="3.37" rx="1.45" ry="1.45"/>
        <g>
            <rect class="cls-15" x="236.36" y="113.63" width="35.79" height="23.43"/>
            <polygon class="cls-12" points="236.36 137.06 236.36 129.85 245.65 125.93 253.58 125.93 261.03 121.21 269.31 125.34 272.15 126.08 272.15 137.06 236.36 137.06"/>
            <polygon class="cls-11" points="236.36 137.06 236.36 131.89 244.34 134.47 252.77 134.47 259.68 130 269.58 130 272.15 132.52 272.15 137.06 236.36 137.06"/>
            <path class="cls-3" d="M249.45,119.13c0,2.1-1.7,3.81-3.81,3.81s-3.81-1.7-3.81-3.81,1.7-3.81,3.81-3.81,3.81,1.7,3.81,3.81Z"/>
            <polygon class="cls-11" points="253.58 125.93 264.08 125.93 261.03 121.21 253.58 125.93"/>
            <polygon class="cls-11" points="245.65 125.93 247.75 130.85 252.48 132.77 242.75 132.77 236.36 129.85 245.65 125.93"/>
        </g>
        <rect class="cls-15" x="237.86" y="148.58" width="11.69" height="3.37" rx="1.45" ry="1.45"/>
        <g>
            <rect class="cls-3" x="280.1" y="113.64" width="35.79" height="23.43"/>
            <polygon class="cls-15" points="280.1 137.07 280.1 129.86 289.39 125.94 297.32 125.94 304.77 121.22 313.05 125.35 315.89 126.09 315.89 137.07 280.1 137.07"/>
            <polygon class="cls-12" points="280.1 137.07 280.1 131.89 288.08 134.48 296.51 134.48 303.42 130.01 313.32 130.01 315.89 132.53 315.89 137.07 280.1 137.07"/>
            <path class="cls-12" d="M293.19,119.14c0,2.1-1.7,3.81-3.81,3.81s-3.81-1.7-3.81-3.81,1.7-3.81,3.81-3.81,3.81,1.7,3.81,3.81Z"/>
            <polygon class="cls-11" points="297.32 125.94 307.82 125.94 304.77 121.22 297.32 125.94"/>
            <polygon class="cls-11" points="289.39 125.94 291.49 130.86 296.22 132.78 286.49 132.78 280.1 129.86 289.39 125.94"/>
        </g>
        <rect class="cls-12" x="281.6" y="148.59" width="11.69" height="3.37" rx="1.45" ry="1.45"/>
        <g>
            <rect class="cls-15" x="324.44" y="113.62" width="35.79" height="23.43"/>
            <polygon class="cls-12" points="324.44 137.05 324.44 129.84 333.72 125.92 341.66 125.92 349.1 121.2 357.38 125.34 360.23 126.08 360.23 137.05 324.44 137.05"/>
            <polygon class="cls-11" points="324.44 137.05 324.44 131.88 332.42 134.46 340.84 134.46 347.76 130 357.65 130 360.23 132.51 360.23 137.05 324.44 137.05"/>
            <path class="cls-3" d="M337.53,119.12c0,2.1-1.7,3.81-3.81,3.81s-3.81-1.7-3.81-3.81,1.7-3.81,3.81-3.81,3.81,1.7,3.81,3.81Z"/>
            <polygon class="cls-11" points="341.66 125.92 352.15 125.92 349.1 121.2 341.66 125.92"/>
            <polygon class="cls-11" points="333.72 125.92 335.83 130.84 340.56 132.76 330.83 132.76 324.44 129.84 333.72 125.92"/>
        </g>
        <rect class="cls-15" x="325.93" y="148.57" width="11.69" height="3.37" rx="1.45" ry="1.45"/>
    </g>
    <g>
        <g>
            <rect class="cls-14" x="392.55" y="248.08" width="1.08" height="37.87"/>
            <rect class="cls-14" x="392.55" y="288.29" width="1.08" height="12.97"/>
            <path class="cls-7" d="M382.07,226.7h-59.26c-5.79,0-10.5,4.8-10.5,10.7v145.99c0,5.9,4.71,10.7,10.5,10.7h59.26c5.79,0,10.49-4.8,10.49-10.7v-145.99c0-5.9-4.71-10.7-10.49-10.7ZM391,383.39c0,5.04-4.01,9.14-8.93,9.14h-59.26c-4.93,0-8.94-4.1-8.94-9.14v-145.99c0-5.04,4.01-9.14,8.94-9.14h59.26c4.92,0,8.93,4.1,8.93,9.14v145.99Z"/>
            <path class="cls-14" d="M382.07,393.11h-59.26c-5.25,0-9.52-4.36-9.52-9.72v-145.99c0-5.36,4.27-9.72,9.52-9.72h59.26c5.25,0,9.52,4.36,9.52,9.72v145.99c0,5.36-4.27,9.72-9.52,9.72ZM322.81,228.85c-4.6,0-8.35,3.84-8.35,8.55v145.99c0,4.72,3.75,8.55,8.35,8.55h59.26c4.6,0,8.35-3.84,8.35-8.55v-145.99c0-4.72-3.74-8.55-8.35-8.55h-59.26Z"/>
            <path class="cls-10" d="M392.56,237.4c.25,45.63.58,101.1.51,146.46-.12,5.62-4.91,10.62-10.57,10.75-.88.04-2.14.02-3.03.02-15.53.02-40.06.03-55.57,0-6.08.42-11.37-3.91-12.05-9.99-.22-45.58.24-101.42.46-147.25,0,0,.29,48.06.29,48.06.18,29.06.19,68.99.25,97.63-.04,2.39.72,4.77,2.21,6.65,2.1,2.71,5.46,4.02,8.84,3.79,14.13-.02,38.41-.04,52.57,0,.89-.02,3.62.02,4.51,0,3.38.22,6.75-1.08,8.84-3.79,1.49-1.88,2.25-4.26,2.21-6.65,0,0,0-1.5,0-1.5.04-44.41.22-99.54.53-144.19h0Z"/>
        </g>
        <path class="cls-4" d="M391,383.39c0,5.04-4.01,9.14-8.93,9.14h-59.26c-4.93,0-8.94-4.1-8.94-9.14v-145.99c0-5.04,4.01-9.14,8.94-9.14h59.26c4.92,0,8.93,4.1,8.93,9.14v145.99Z"/>
        <g class="cls-17">
            <g>
                <rect class="cls-9" x="311.66" y="223.81" width="81.29" height="87.23"/>
                <rect class="cls-3" x="311.66" y="294.81" width="81.29" height="16.23"/>
                <polygon class="cls-3" points="393.22 283.26 392.95 283.45 392.95 294.81 378.26 294.81 364.97 289.32 365.11 289.31 376.24 287.98 384.11 287.06 392.95 283.36 393.22 283.26"/>
                <polygon class="cls-5" points="392.95 290.07 392.95 291.73 378.26 291.73 378.26 290.66 390.25 290.3 392.95 290.07"/>
                <polygon class="cls-5" points="392.95 283.45 392.95 287.53 388.02 287.06 392.95 283.45"/>
                <polygon class="cls-5" points="359.19 287.06 375.53 287.43 378.83 290.03 388.02 292.13 385.33 292.63 374.86 293.34 364.96 289.25 359.19 287.06"/>
                <path class="cls-3" d="M311.66,283.65l2.18,1.14h5.87c10.36,3.71,33.58-.29,33.58-.29l24.96,10.31-13.3.11h-53.3v-11.27Z"/>
                <path class="cls-5" d="M311.66,291.98l9.05-4.27h4.76c1.5-.8,3.2-2.47,4.84-4.42l9.59-8.05,6.13,2.16,3.97,3.55,5.85,1.01,9.11,12.97h-53.3v-2.94Z"/>
                <path class="cls-3" d="M325.48,287.71h8.2l4.99-9.28-4.99,4.86h-3.37c-1.63,1.95-3.33,3.62-4.84,4.42Z"/>
                <polygon class="cls-3" points="360.85 295.48 352.3 291.88 350.83 287.14 344.92 285.57 337.11 293.16 323.48 293.16 317.43 295.48 360.85 295.48"/>
                <polygon class="cls-5" points="311.66 283.65 313.84 284.79 311.66 286.48 311.66 283.65"/>
                <polygon class="cls-5" points="311.66 286.76 316.72 288.25 311.66 288.25 311.66 286.76"/>
                <polygon class="cls-3" points="346.03 277.4 343.75 280.59 337.9 286.13 346.03 282.49 355.85 281.95 350 280.95 346.03 277.4"/>
            </g>
            <rect class="cls-12" x="313.88" y="223.81" width="77.12" height="19.72"/>
            <g>
                <rect class="cls-15" x="321.47" y="378.63" width="61.67" height="40.38"/>
                <polygon class="cls-12" points="321.47 419.01 321.47 406.58 337.47 399.83 351.14 399.83 363.97 391.7 378.23 398.82 383.14 400.1 383.14 419.01 321.47 419.01"/>
                <polygon class="cls-11" points="321.47 419.01 321.47 410.09 335.21 414.55 349.73 414.55 361.65 406.85 378.7 406.85 383.14 411.18 383.14 419.01 321.47 419.01"/>
                <path class="cls-3" d="M344.02,388.11c0,3.62-2.94,6.56-6.56,6.56s-6.56-2.94-6.56-6.56,2.94-6.56,6.56-6.56,6.56,2.94,6.56,6.56Z"/>
                <polygon class="cls-11" points="351.14 399.83 369.23 399.83 363.97 391.7 351.14 399.83"/>
                <polygon class="cls-11" points="337.47 399.83 341.09 408.31 349.25 411.62 332.48 411.62 321.47 406.58 337.47 399.83"/>
            </g>
        </g>
        <g>
            <g>
                <path class="cls-9" d="M384.67,239.12c0,.46-.15.88-.4,1.19-.25.3-.59.49-.96.49h-26.08c-.75,0-1.36-.76-1.36-1.68,0-.46.15-.88.4-1.19.25-.3.59-.49.96-.49h26.08c.75,0,1.36.76,1.36,1.68Z"/>
                <g>
                    <path class="cls-12" d="M382.42,239.89c-.57,0-1.03-.46-1.03-1.03s.46-1.03,1.03-1.03,1.03.46,1.03,1.03-.46,1.03-1.03,1.03ZM382.42,238.19c-.37,0-.67.3-.67.67s.3.67.67.67.67-.3.67-.67-.3-.67-.67-.67Z"/>
                    <path class="cls-12" d="M381.05,240.4s-.09-.02-.13-.05c-.07-.07-.07-.18,0-.25l.75-.75c.07-.07.18-.07.25,0,.07.07.07.18,0,.25l-.75.75s-.08.05-.13.05Z"/>
                </g>
            </g>
            <g>
                <path class="cls-9" d="M319.81,237.23c0-.21.23-.37.51-.37h4.72c.28,0,.51.16.51.37s-.23.37-.51.37h-4.72c-.28,0-.51-.17-.51-.37Z"/>
                <path class="cls-9" d="M325.54,238.64c0,.21-.23.37-.51.37h-4.72c-.28,0-.51-.17-.51-.37s.23-.37.51-.37h4.72c.28,0,.51.17.51.37Z"/>
                <path class="cls-9" d="M325.54,240.14c0,.21-.23.37-.51.37h-4.72c-.28,0-.51-.17-.51-.37s.23-.37.51-.37h4.72c.28,0,.51.17.51.37Z"/>
            </g>
        </g>
        <path class="cls-12" d="M349.25,268.69c0,.57-.24,1.09-.61,1.46-.37.38-.89.61-1.46.61h-14.24c-1.14,0-2.07-.93-2.07-2.07,0-.57.23-1.09.61-1.46.38-.38.89-.61,1.47-.61h14.24c1.14,0,2.07.93,2.07,2.07Z"/>
        <path class="cls-12" d="M352.44,307.8c-.06,0-.13-.02-.18-.05l-3.34-2.2c-.15-.1-.19-.31-.09-.46.1-.15.31-.2.46-.09l3.15,2.08,3.15-2.08c.15-.1.36-.06.46.09.1.15.06.36-.09.46l-3.34,2.2c-.06.04-.12.05-.18.05Z"/>
        <g>
            <rect class="cls-3" x="321.47" y="316.75" width="61.67" height="40.38"/>
            <polygon class="cls-15" points="321.47 357.13 321.47 344.7 337.47 337.95 351.14 337.95 363.97 329.82 378.23 336.94 383.14 338.22 383.14 357.13 321.47 357.13"/>
            <polygon class="cls-12" points="321.47 357.13 321.47 348.21 335.21 352.67 349.73 352.67 361.65 344.97 378.7 344.97 383.14 349.3 383.14 357.13 321.47 357.13"/>
            <path class="cls-12" d="M344.02,326.23c0,3.62-2.94,6.56-6.56,6.56s-6.56-2.94-6.56-6.56,2.94-6.56,6.56-6.56,6.56,2.94,6.56,6.56Z"/>
            <polygon class="cls-11" points="351.14 337.95 369.23 337.95 363.97 329.82 351.14 337.95"/>
            <polygon class="cls-11" points="337.47 337.95 341.09 346.43 349.25 349.74 332.48 349.74 321.47 344.7 337.47 337.95"/>
        </g>
        <rect class="cls-12" x="365.81" y="366.09" width="16.32" height="4.7" rx="2.03" ry="2.03"/>
        <g>
            <path class="cls-8" d="M382.07,228.27h-59.26c-4.93,0-8.94,4.1-8.94,9.14v145.99c0,5.04,4.01,9.14,8.94,9.14h59.26c4.92,0,8.93-4.1,8.93-9.14v-145.99c0-5.04-4.01-9.14-8.93-9.14ZM389.05,383.39c0,3.96-3.13,7.19-6.98,7.19h-59.26c-3.85,0-6.99-3.22-6.99-7.19v-145.99c0-3.96,3.13-7.19,6.99-7.19h5.29c1.79,0,3.4,1.1,4.06,2.76h0c.65,1.67,2.27,2.77,4.06,2.77h32.43c1.79,0,3.4-1.1,4.06-2.76h0c.66-1.67,2.27-2.77,4.06-2.77h5.3c3.85,0,6.98,3.22,6.98,7.19v145.99Z"/>
            <rect class="cls-18" x="341.81" y="228.25" width="21.24" height="1.19"/>
            <path class="cls-16" d="M338.7,232.47c0,.9-.73,1.63-1.63,1.63s-1.63-.73-1.63-1.63.73-1.63,1.63-1.63,1.63.73,1.63,1.63Z"/>
            <path class="cls-4" d="M315.82,237.4c.51,46.68.51,99.04,0,145.71-.51-46.68-.51-99.04,0-145.71h0Z"/>
        </g>
    </g>
    <g>
        <g>
            <rect class="cls-8" x="4.22" y="1.56" width="122.77" height="192.67" rx="6.35" ry="6.35"/>
            <g>
                <path class="cls-10" d="M5,7.91v179.96c0,3.08,2.5,5.58,5.58,5.58h110.06c3.07,0,5.58-2.5,5.58-5.58V7.91c0-3.07-2.5-5.57-5.58-5.57H10.57c-3.07,0-5.58,2.5-5.58,5.57ZM120.63,2.92c2.75,0,4.99,2.24,4.99,4.99v179.96c0,2.75-2.24,4.99-4.99,4.99H10.57c-2.75,0-4.99-2.24-4.99-4.99V7.91c0-2.75,2.24-4.99,4.99-4.99h110.06Z"/>
                <path class="cls-7" d="M3.44,7.91v179.96c0,3.93,3.2,7.13,7.13,7.13h110.06c3.93,0,7.13-3.2,7.13-7.13V7.91c0-3.93-3.2-7.13-7.13-7.13H10.57C6.64.78,3.44,3.98,3.44,7.91ZM120.63,2.34c3.07,0,5.58,2.5,5.58,5.57v179.96c0,3.08-2.5,5.58-5.58,5.58H10.57c-3.07,0-5.58-2.5-5.58-5.58V7.91c0-3.07,2.5-5.57,5.58-5.57h110.06Z"/>
                <path class="cls-10" d="M5,7.91v179.96c0,3.08,2.5,5.58,5.58,5.58h110.06c3.07,0,5.58-2.5,5.58-5.58V7.91c0-3.07-2.5-5.57-5.58-5.57H10.57c-3.07,0-5.58,2.5-5.58,5.57ZM120.63,2.92c2.75,0,4.99,2.24,4.99,4.99v179.96c0,2.75-2.24,4.99-4.99,4.99H10.57c-2.75,0-4.99-2.24-4.99-4.99V7.91c0-2.75,2.24-4.99,4.99-4.99h110.06Z"/>
                <path class="cls-10" d="M5,7.91v179.96c0,3.08,2.5,5.58,5.58,5.58h110.06c3.07,0,5.58-2.5,5.58-5.58V7.91c0-3.07-2.5-5.57-5.58-5.57H10.57c-3.07,0-5.58,2.5-5.58,5.57ZM120.63,2.92c2.75,0,4.99,2.24,4.99,4.99v179.96c0,2.75-2.24,4.99-4.99,4.99H10.57c-2.75,0-4.99-2.24-4.99-4.99V7.91c0-2.75,2.24-4.99,4.99-4.99h110.06Z"/>
            </g>
            <path class="cls-14" d="M2.66,7.91v179.96c0,4.36,3.55,7.91,7.91,7.91h110.06c4.36,0,7.91-3.55,7.91-7.91V7.91c0-4.36-3.55-7.91-7.91-7.91H10.57C6.21,0,2.66,3.55,2.66,7.91ZM120.63,1.56c3.5,0,6.35,2.85,6.35,6.35v179.96c0,3.5-2.85,6.35-6.35,6.35H10.57c-3.5,0-6.35-2.85-6.35-6.35V7.91c0-3.5,2.85-6.35,6.35-6.35h110.06Z"/>
            <path class="cls-4" d="M12.52,8.1h106.18c1.5,0,2.73,1.22,2.73,2.73v163.69c0,1.51-1.22,2.73-2.73,2.73H12.52c-1.51,0-2.73-1.22-2.73-2.73V10.83c0-1.5,1.22-2.73,2.73-2.73Z"/>
            <g>
                <rect class="cls-10" x="63.57" y="174.91" width="4.07" height="21.62" rx="1.82" ry="1.82" transform="translate(-120.12 251.32) rotate(-90)"/>
                <rect class="cls-10" x="36.53" y="177.79" width="4.07" height="15.86" rx="1.82" ry="1.82" transform="translate(-147.16 224.28) rotate(-90)"/>
                <rect class="cls-10" x="90.62" y="177.79" width="4.07" height="15.86" rx="1.82" ry="1.82" transform="translate(-93.07 278.37) rotate(-90)"/>
            </g>
        </g>
        <g>
            <path class="cls-9" d="M121.42,10.71v73.48H9.79V10.71c0-1.45,1.17-2.61,2.61-2.61h106.42c1.44,0,2.61,1.16,2.61,2.61Z"/>
            <rect class="cls-3" x="9.79" y="75.98" width="111.64" height="8.21"/>
            <polygon class="cls-3" points="53.37 69.41 36.41 75.98 9.79 75.98 9.79 64.58 11.6 64.33 17.32 62.15 28.93 66.7 38.97 67.82 53.19 69.39 53.37 69.41"/>
            <polygon class="cls-5" points="36.4 74.9 36.4 75.98 9.79 75.98 9.79 73.78 21.1 74.55 36.4 74.9"/>
            <polygon class="cls-5" points="23.94 66.7 14.9 67.5 9.79 69.71 9.79 64.58 11.6 64.33 17.32 62.15 23.94 66.7"/>
            <polygon class="cls-5" points="60.74 66.7 39.88 67.14 35.68 70.26 23.94 72.77 27.38 73.37 40.74 74.21 53.38 69.32 60.74 66.7"/>
            <path class="cls-3" d="M121.42,62.62l-2.78,1.36h-7.5c-13.23,4.44-42.87-.34-42.87-.34l-31.87,12.34,16.97.13h68.04v-13.49Z"/>
            <path class="cls-5" d="M121.42,72.6l-11.55-5.11h-6.08c-1.92-.95-4.09-2.96-6.17-5.29l-12.25-9.64-7.82,2.59-5.06,4.25-7.47,1.2-11.63,15.52h68.04v-3.52Z"/>
            <path class="cls-3" d="M103.78,67.49h-10.47l-6.37-11.11,6.37,5.81h4.3c2.09,2.33,4.25,4.34,6.17,5.29Z"/>
            <polygon class="cls-3" points="58.63 76.78 69.54 72.47 71.42 66.8 78.96 64.92 88.93 74.01 106.33 74.01 114.05 76.78 58.63 76.78"/>
            <polygon class="cls-5" points="121.42 62.62 118.64 63.98 121.42 66 121.42 62.62"/>
            <polygon class="cls-5" points="121.42 66.34 114.96 68.13 121.42 68.13 121.42 66.34"/>
            <polygon class="cls-3" points="77.54 55.14 80.46 58.96 87.93 65.58 77.54 61.23 65.01 60.59 72.48 59.39 77.54 55.14"/>
        </g>
        <g>
            <rect class="cls-15" x="19.4" y="94.23" width="49.96" height="32.71"/>
            <polygon class="cls-12" points="19.4 126.94 19.4 116.88 32.36 111.4 43.43 111.4 53.83 104.82 65.39 110.59 69.36 111.62 69.36 126.94 19.4 126.94"/>
            <polygon class="cls-11" points="19.4 126.94 19.4 119.72 30.54 123.33 42.3 123.33 51.95 117.09 65.76 117.09 69.36 120.6 69.36 126.94 19.4 126.94"/>
            <path class="cls-3" d="M37.67,101.91c0,2.94-2.38,5.32-5.32,5.32s-5.32-2.38-5.32-5.32,2.38-5.32,5.32-5.32,5.32,2.38,5.32,5.32Z"/>
            <polygon class="cls-11" points="43.43 111.4 58.09 111.4 53.83 104.82 43.43 111.4"/>
            <polygon class="cls-11" points="32.36 111.4 35.3 118.27 41.9 120.96 28.32 120.96 19.4 116.88 32.36 111.4"/>
        </g>
        <rect class="cls-12" x="75.37" y="121.34" width="14.68" height="4.23" rx="1.83" ry="1.83"/>
        <rect class="cls-15" x="75.37" y="160.95" width="14.68" height="4.23" rx="1.83" ry="1.83"/>
        <g>
            <rect class="cls-3" x="19.4" y="133.84" width="49.96" height="32.71"/>
            <polygon class="cls-15" points="19.4 166.55 19.4 156.48 32.36 151.01 43.43 151.01 53.83 144.43 65.38 150.2 69.36 151.23 69.36 166.55 19.4 166.55"/>
            <polygon class="cls-12" points="19.4 166.55 19.4 159.33 30.54 162.94 42.3 162.94 51.95 156.7 65.76 156.7 69.36 160.21 69.36 166.55 19.4 166.55"/>
            <path class="cls-12" d="M37.67,141.52c0,2.94-2.38,5.32-5.32,5.32s-5.32-2.38-5.32-5.32,2.38-5.32,5.32-5.32,5.32,2.38,5.32,5.32Z"/>
            <polygon class="cls-11" points="43.43 151.01 58.09 151.01 53.83 144.43 43.43 151.01"/>
            <polygon class="cls-11" points="32.36 151.01 35.3 157.88 41.9 160.57 28.32 160.57 19.4 156.48 32.36 151.01"/>
        </g>
        <path class="cls-12" d="M65.6,81.52c-.06,0-.13-.02-.18-.05l-3.34-2.2c-.15-.1-.19-.31-.09-.46.1-.15.31-.2.46-.09l3.15,2.08,3.15-2.08c.15-.1.36-.06.46.09s.06.36-.09.46l-3.34,2.2c-.06.04-.12.05-.18.05Z"/>
        <g>
            <path class="cls-12" d="M121.42,10.71v7.06H9.79v-7.06c0-1.45,1.17-2.62,2.61-2.62h106.41c1.45,0,2.62,1.17,2.62,2.62Z"/>
            <g>
                <path class="cls-9" d="M117.01,13.22c0,.46-.15.88-.4,1.19-.25.3-.59.49-.96.49h-26.08c-.75,0-1.36-.76-1.36-1.68,0-.46.15-.88.4-1.19.25-.3.59-.49.96-.49h26.08c.75,0,1.36.76,1.36,1.68Z"/>
                <g>
                    <path class="cls-12" d="M114.76,13.99c-.57,0-1.03-.46-1.03-1.03s.46-1.03,1.03-1.03,1.03.46,1.03,1.03-.46,1.03-1.03,1.03ZM114.76,12.29c-.37,0-.67.3-.67.67s.3.67.67.67.67-.3.67-.67-.3-.67-.67-.67Z"/>
                    <path class="cls-12" d="M113.39,14.51s-.09-.02-.13-.05c-.07-.07-.07-.18,0-.25l.75-.75c.07-.07.18-.07.25,0,.07.07.07.18,0,.25l-.75.75s-.08.05-.13.05Z"/>
                </g>
            </g>
            <g>
                <path class="cls-9" d="M15.39,11.34c0-.21.23-.37.51-.37h4.72c.28,0,.51.16.51.37s-.23.37-.51.37h-4.72c-.28,0-.51-.17-.51-.37Z"/>
                <path class="cls-9" d="M21.12,12.75c0,.21-.23.37-.51.37h-4.72c-.28,0-.51-.17-.51-.37s.23-.37.51-.37h4.72c.28,0,.51.17.51.37Z"/>
                <path class="cls-9" d="M21.12,14.24c0,.21-.23.37-.51.37h-4.72c-.28,0-.51-.17-.51-.37s.23-.37.51-.37h4.72c.28,0,.51.17.51.37Z"/>
            </g>
        </g>
        <path class="cls-12" d="M62.41,43.45c0,.57-.24,1.09-.61,1.46-.37.38-.89.61-1.46.61h-14.24c-1.14,0-2.07-.93-2.07-2.07,0-.57.23-1.09.61-1.46.38-.38.89-.61,1.47-.61h14.24c1.14,0,2.07.93,2.07,2.07Z"/>
    </g>
</svg>