<?xml version="1.0" encoding="utf-8"?>
<!-- Generator: Adobe Illustrator 27.5.0, SVG Export Plug-In . SVG Version: 6.00 Build 0)  -->
<svg version="1.1" id="vector" xmlns="http://www.w3.org/2000/svg" xmlns:xlink="http://www.w3.org/1999/xlink" x="0px" y="0px"
     viewBox="0 0 2000 2000" style="enable-background:new 0 0 2000 2000;" xml:space="preserve">
<rect id="background" style="fill:#C7B299;" width="2000" height="2000"/>
    <g id="shapes">
	<path style="fill:#ECDDCC;" d="M560.93,699.409c27.205-25.029,62.397-41.41,99.24-45.277c19.976-2.701,40.186-0.311,59.793,3.848
		c-30.645-3.77-62.261,1.399-90.845,12.845c-35.541,15.138-66.711,41.779-84.666,76.252
		c-19.996,36.746-24.776,81.285-13.719,121.568c9.094,31.111,27.477,59.754,53.186,79.691c9.327,7.287,19.782,14.049,25.767,24.582
		c5.305,10.999,3.925,23.571,5.499,35.367c1.516,19.432,10.707,38.534,26.991,49.785c-14.166-2.584-28.39-8.064-38.145-19.082
		c-19.976-20.792-18.519-52.681-35.192-75.455c-10.416-14.147-23.493-26.214-32.743-41.255
		c-26.603-39.195-35.425-89.602-24.873-135.656C518.471,753.411,535.999,722.533,560.93,699.409z"/>
        <path style="fill:#ECDDCC;" d="M726.9,700.594c3.245-1.555,6.335,1.263,9.269,2.39c14.594,8.006,28.76,17.314,40.419,29.284
		c3.09,2.682,4.43,6.976,3.012,10.902c-2.604,3.323-6.393,1.03-8.395-1.613c-11.465-14.322-27.419-24.135-43.684-32.141
		C723.5,708.484,723.5,702.168,726.9,700.594z"/>
        <path style="fill:#ECDDCC;" d="M790.871,766.197c2.643-0.602,6.821-1.535,7.928,1.865c6.374,12.378,8.822,26.408,9.988,40.147
		c-0.156,3.401,1.302,8.123-2.274,10.28c-3.128,2.079-7.54-1.069-7.481-4.625c-0.933-12.32-1.885-25.009-7.248-36.358
		C790.502,773.97,787.548,769.52,790.871,766.197z"/>
        <path style="fill:#FDFDFD;" d="M1795.222,1148.214c16.031,2.934,31.927,6.762,47.609,11.232
		c-16.206,81.479-32.374,162.978-48.25,244.534c-15.915-0.583-30.917-6.724-46.385-9.93c2.293-18.694,7.17-36.94,10.416-55.479
		c10.863-54.935,21.531-109.908,32.588-164.804C1792.832,1165.295,1793.998,1156.745,1795.222,1148.214z"/>
        <path style="fill:#FDFDFD;" d="M157.791,1158.804c15.895-2.895,31.713-6.335,47.686-8.861c1.36,6.16,2.662,12.359,3.731,18.597
		c10.027,56.47,21.725,112.609,31.441,169.137c3.498,18.752,7.773,37.368,10.396,56.276c-15.176,3.576-30.178,8.259-45.724,10.008
		C189.174,1322.287,173.939,1240.458,157.791,1158.804z"/>
        <path style="fill:#486F8C;" d="M1215.483,526.677c25.029-8.259,51.612-11.076,77.865-10.435c15.818,0,31.908,0.019,47.376,3.653
		c-0.738,0.136-2.215,0.389-2.954,0.505c17.839,4.314,35.988,8.958,51.826,18.616c53.458,30.975,88.533,90.884,89.368,152.659
		c0.622,42.615-7.423,86.337-28.934,123.53c-12.767,22.017-31.247,40.613-53.166,53.536c-14.03,8.861-29.751,14.963-42.809,25.378
		c-20.229,15.779-32.219,40.361-36.144,65.37c-1.885,10.882-1.73,23.591-10.416,31.713c-7.714,7.909-19.374,8.142-29.109,12.009
		c-8.22,1.36-16.634-0.311-24.912-0.408c-13.272-1.01-28.954-2.332-37.446-14.069c-10.28-12.514-6.937-29.576-7.617-44.461
		c-1.108-35.522,7.404-73.143,31.694-100.134c15.487-17.605,37.757-26.447,58.083-36.999c18.83-9.833,37.776-21.919,48.736-40.73
		c10.377-17.897,15.759-38.689,15.896-59.346c-0.525-21.764-7.812-45.51-26.564-58.355c-7.384-5.674-16.479-8.006-25.456-9.619
		c-16.206-4.703-34.084-5.324-50.232-0.078c-15.021,5.15-26.583,17.683-32.355,32.257c-7.792,17.47-7.851,39.059-22.697,52.797
		c-9.133,9.366-22.561,11.057-34.589,14.185c-15.721-1.069-33.695-2.876-44.985-15.215c-13.389-15.351-15.876-37.038-14.069-56.606
		c3.265-30.081,15.313-58.685,31.461-84.083C1160.024,556.194,1185.869,536.062,1215.483,526.677z"/>
        <path style="fill:#486F8C;" d="M1216.61,1040.288c17.586-12.514,40.244-9.58,60.57-9.91l0.466,0.214
		c10.182,5.052,21.881,7.559,30.295,15.701c13.097,12.223,18.83,30.333,21.045,47.667c1.827,20.501-1.866,41.974-12.514,59.773
		c-6.976,11.64-19.296,19.49-32.665,21.55c-9.269,1.613-18.713,1.36-28.06,2.176c-15.973-0.544-32.879-5.285-44.033-17.372
		c-15.254-15.915-19.957-39.039-19.821-60.415C1193.272,1078.161,1198.383,1054.007,1216.61,1040.288z"/>
        <path style="fill:#486F8C;" d="M609.88,1051.306c4.236-0.427,7.987,3.187,12.029,4.392c31.81,12.417,66.983,12.067,100.367,7.52
		c10.435-1.613,19.238-7.695,28.565-12.165c7.248,10.863,9.211,25.476,4.8,37.796c-5.091,12.845-20.151,16.168-31.558,21.162
		c-24.659,6.413-50.854,6.704-75.921,2.448c-12.845-2.468-26.078-5.247-37.232-12.378c-7.209-4.528-11.64-13.039-10.61-21.57
		C601.349,1068.95,603.273,1058.709,609.88,1051.306z"/>
        <path style="fill:#486F8C;" d="M750.549,1102.276c5.324,7.617,9.735,16.712,7.209,26.272
		c-2.779,11.057-15.099,14.477-23.843,19.626c-15.876,9.386-34.745,10.28-52.661,11.543c-21.181-0.661-42.867-3.789-61.93-13.583
		c-8.298-4.294-16.479-11.309-17.625-21.142c-0.253-7.987,3.342-15.429,7.695-21.88c29.867,15.196,64.651,16.517,97.413,13.466
		C721.984,1114.033,737.841,1111.662,750.549,1102.276z"/>
        <path style="fill:#486F8C;" d="M677.426,1162.03c24.893,0.505,51.009-2.798,72.424-16.44
		c-2.099,11.795-11.154,21.181-21.162,27.088c-14.01,16.925-38.068,20.715-58.841,18.733c-16.964-1.535-32.704-10.202-43.683-23.105
		c-5.091-6.315-12.573-12.145-12.767-20.948C633.373,1156.745,655.274,1162.38,677.426,1162.03z"/>
        <path style="fill:#1F394A;" d="M668.04,528.328c-0.602-6.685,6.898-12.32,13.156-9.988c4.139,1.321,7.17,5.558,6.782,9.949
		c-0.175,27.866,0.233,55.751-0.233,83.617c0.272,5.907-5.616,8.822-10.28,10.591c-4.722-1.671-10.144-4.722-9.813-10.552
		C667.108,584.079,667.671,556.194,668.04,528.328z"/>
        <path style="fill:#1F394A;" d="M1340.723,519.895c15.313,1.71,30.217,6.16,45.238,9.561c27.982,6.646,54.41,20.637,74.542,41.313
		c29.964,29.712,46.909,71.024,49.863,112.842c3.187,41.954-3.265,85.288-22.036,123.219c-11.173,23.008-27.73,43.567-48.911,58.102
		c-16.304,12.184-36.396,18.111-52.156,31.111c-24.484,18.363-35.367,49.708-37.329,79.283c-0.661,9.735-5.907,19.626-14.827,24.115
		c-7.404,3.77-15.915,3.789-24.018,4.061c-10.901,0.194-21.822,0.777-32.704-0.291c9.735-3.867,21.395-4.1,29.109-12.009
		c8.686-8.123,8.531-20.831,10.416-31.713c3.925-25.009,15.915-49.591,36.144-65.37c13.058-10.416,28.779-16.517,42.809-25.378
		c21.919-12.922,40.4-31.519,53.166-53.536c21.511-37.193,29.556-80.916,28.934-123.53c-0.836-61.775-35.911-121.684-89.368-152.659
		c-15.837-9.658-33.987-14.302-51.826-18.616C1338.508,520.283,1339.985,520.031,1340.723,519.895z"/>
        <path style="fill:#1F394A;" d="M435.185,616.298c4.042-2.487,9.366-1.652,12.728,1.613c21.298,17.605,42.498,35.366,64.107,52.603
		c6.529,4.431,4.703,16.906-3.653,17.955c-4.567,1.263-8.278-2.118-11.543-4.722c-20.676-17.042-41.371-34.064-62.377-50.679
		C428.403,629.181,429.491,619.893,435.185,616.298z"/>
        <path style="fill:#1F394A;" d="M918.832,616.201c4.839-2.682,12.437-0.427,13.836,5.305c1.613,4.45-0.136,9.561-4.061,12.165
		c-22.114,17.333-43.956,35.036-66.05,52.409c-5.422,5.383-15.196,1.205-16.109-6.063c-2.118-6.821,5.072-10.727,9.522-14.166
		C877.092,649.507,897.631,632.407,918.832,616.201z"/>
        <path style="fill:#1F394A;" d="M1260.566,639.014c16.148-5.247,34.026-4.625,50.232,0.078c-8.375,0.991-17.061,2.06-24.426,6.51
		c-14.555,7.734-23.222,22.91-28.449,37.99c-4.8,14.943-6.471,32.063-18.208,43.645c-11.62,10.727-28.429,12.242-43.509,12.495
		c-8.453,0.058-16.945-0.136-25.281-1.477c12.029-3.129,25.456-4.819,34.589-14.185c14.846-13.739,14.904-35.328,22.697-52.797
		C1233.983,656.697,1245.545,644.163,1260.566,639.014z"/>
        <path style="fill:#1F394A;" d="M619.985,659.593c32.607-11.737,68.732-13.117,102.271-4.606
		c44.83,10.649,84.996,39.68,109.073,78.972c37.446,60.045,32.918,142.574-9.755,198.771c-8.2,11.174-18.247,20.792-26.778,31.694
		c-9.289,11.348-11.407,26.35-16.498,39.7c-4.916,16.478-12.3,33.093-26.311,43.858c9.211,7.754,10.202,20.928,9.852,32.141
		c0.156,7.268-3.439,13.739-7.715,19.335c4.586,6.996,9.211,14.749,8.414,23.513c0.117,9.211-5.791,17.1-12.689,22.619
		c-21.414,13.641-47.531,16.945-72.424,16.44c-22.153,0.35-44.053-5.286-64.029-14.671c-6.918-4.955-13.505-11.892-14.516-20.734
		c-0.991-9.036,1.943-18.363,7.87-25.242c-5.81-5.499-10.416-12.922-9.658-21.22c0.758-11.271,2.487-24.038,11.62-31.83
		c-6.762-5.732-13.039-12.223-17.178-20.151c-8.317-15.662-11.387-33.404-18.383-49.591c-6.723-15.623-19.704-27.108-29.984-40.263
		c-18.072-22.658-31.15-49.338-36.513-77.903c-9.658-47.298,0.894-98.521,29.09-137.774
		C556.286,693.443,586.503,671.582,619.985,659.593z M560.93,699.409c-24.931,23.124-42.459,54.002-49.707,87.212
		c-10.552,46.054-1.729,96.461,24.873,135.656c9.25,15.04,22.328,27.108,32.743,41.255c16.673,22.774,15.215,54.663,35.192,75.455
		c9.755,11.018,23.979,16.498,38.145,19.082c8.026,2.448,16.479,2.954,24.737,4.294c-5.422-56.042-14.535-111.677-26.214-166.728
		c-2.546-15.39-6.296-30.897-5.052-46.579c0.311-4.975,2.992-11.329,8.764-11.407c5.888-0.913,9.58,4.839,12.048,9.269
		c7.52,15.662,7.637,33.695,5.616,50.621c-0.738,2.215-0.272,10.26-4.508,6.413c2.468-18.888,3.731-39.331-5.286-56.897
		c-1.496-3.323-4.858-4.994-7.792-6.801c-7.345,5.15-5.558,14.73-5.15,22.425c2.701,26.136,9.425,51.592,13.816,77.457
		c7.559,40.419,13.02,81.226,17.567,122.092c5.558,0.078,11.135,0.175,16.692,0.408c3.828-40.944,11.29-81.479,21.881-121.218
		c7.093-29.381,17.897-58.16,19.607-88.591c-0.039-6.257-0.039-13.233-3.886-18.48c-1.963-2.779-5.732-2.371-8.589-1.632
		c-7.248,2.138-11.504,9.094-14.496,15.565c-7.656,17.606-7.753,38.204-0.564,55.926c-0.972-0.389-2.915-1.146-3.886-1.516
		c-5.985-11.698-5.674-25.553-4.1-38.262c2.021-12.262,6.782-25.281,17.217-32.802c5.15-3.906,14.03-5.033,18.052,1.01
		c5.033,8.317,4.256,18.597,3.517,27.905c-3.031,27.283-12.456,53.263-18.927,79.827c-10.901,39.953-17.78,80.916-22.269,122.073
		c13.914-1.088,28.118-2.332,41.313-7.151c16.401-5.985,29.789-19.218,36.532-35.269c6.102-14.011,9.697-28.935,14.905-43.256
		c3.964-10.727,12.029-19.082,19.374-27.574c10.688-11.562,20.501-24.018,28.216-37.776c33.773-59.754,28.274-139.795-15.39-193.195
		c-24.232-29.848-58.374-51.709-95.956-60.24c-19.607-4.159-39.817-6.549-59.793-3.848
		C623.327,657.999,588.135,674.38,560.93,699.409z M609.88,1051.306c-6.607,7.404-8.531,17.644-9.561,27.205
		c-1.03,8.531,3.401,17.042,10.61,21.57c11.154,7.132,24.387,9.91,37.232,12.378c25.068,4.256,51.262,3.964,75.921-2.448
		c11.407-4.994,26.467-8.317,31.558-21.162c4.411-12.32,2.449-26.933-4.8-37.796c-9.327,4.469-18.13,10.552-28.565,12.165
		c-33.384,4.547-68.557,4.897-100.367-7.52C617.867,1054.493,614.116,1050.878,609.88,1051.306z M750.549,1102.276
		c-12.709,9.386-28.565,11.756-43.742,14.302c-32.763,3.051-67.546,1.729-97.413-13.466c-4.353,6.451-7.948,13.894-7.695,21.88
		c1.146,9.833,9.327,16.848,17.625,21.142c19.063,9.794,40.749,12.922,61.93,13.583c17.916-1.263,36.785-2.157,52.661-11.543
		c8.745-5.149,21.065-8.569,23.843-19.626C760.285,1118.988,755.874,1109.894,750.549,1102.276z"/>
        <path style="fill:#1F394A;" d="M864.849,923.734c2.721-0.68,5.596,0.019,7.715,1.904c22.425,17.761,44.422,36.085,67.021,53.652
		c5.363,4.45,3.925,15.507-3.517,16.906c-6.51,2.818-11.582-3.226-16.226-6.762c-19.393-16.304-39.447-31.791-58.841-48.095
		C854.375,937.045,857.154,925.016,864.849,923.734z"/>
        <path style="fill:#1F394A;" d="M487.807,925.813c5.13-3.886,13.68,0.058,14.127,6.49c0.913,4.159-0.836,8.531-4.275,10.999
		c-21.958,17.003-43.625,34.414-65.506,51.515c-6.043,4.45-15.915-0.117-15.876-7.792c-0.7-6.84,6.296-9.872,10.707-13.486
		C447.175,957.546,467.656,941.864,487.807,925.813z"/>
        <path style="fill:#1F394A;" d="M1277.647,1030.591c22.872,0.544,49.61,0.33,66.847,17.897
		c14.943,16.984,18.402,40.963,18.363,62.824c-1.36,18.655-5.966,38.281-18.247,52.933c-11.271,12.748-29.304,15.079-45.354,15.779
		c-14.555,0.777-29.09-0.777-43.509-2.565c9.347-0.816,18.791-0.563,28.06-2.176c13.369-2.06,25.689-9.91,32.665-21.55
		c10.649-17.8,14.341-39.272,12.514-59.773c-2.215-17.333-7.948-35.444-21.045-47.667
		C1299.527,1038.15,1287.829,1035.644,1277.647,1030.591z"/>
        <path style="fill:#1F394A;" d="M5.074,1163.138c48.658-11.912,97.685-22.386,146.538-33.521c2.449,9.638,4.333,19.413,6.18,29.187
		c16.148,81.654,31.383,163.483,47.531,245.156c2.701,13.233,5.13,26.525,7.656,39.797
		c-69.451,12.553-138.668,26.467-207.905,40.089V1163.138z"/>
        <path style="fill:#1F394A;" d="M1842.831,1159.446c2.118-10.046,4.411-20.054,6.277-30.139
		c48.677,10.649,97.219,21.861,145.819,32.879v321.233c-69.412-12.67-138.512-27.244-207.885-40.127
		c2.021-13.194,5.033-26.214,7.54-39.311C1810.457,1322.423,1826.625,1240.925,1842.831,1159.446z"/>
        <path style="fill:#1F394A;" d="M858.184,1193.044c2.313-1.496,5.033-2.021,7.773-1.865c-1.652,1.535-3.284,3.109-5.188,4.372
		c-45.743,26.039-91.428,52.234-137.288,78.117c-0.155-2.118-0.894-4.761,1.885-5.422
		C770.059,1243.937,814.034,1218.325,858.184,1193.044z"/>
        <path style="fill:#1F394A;" d="M915.353,1193.627c2.565-1.516,5.402-2.448,8.298-3.187c-1.477,2.371-3.401,4.469-5.927,5.752
		c-34.298,19.879-67.993,40.749-101.941,61.231c-27.671,17.198-55.732,33.773-82.839,51.864c-0.136-0.816-0.389-2.429-0.525-3.226
		c26.564-18.46,54.896-34.298,82.159-51.748C848.079,1233.949,881.522,1213.467,915.353,1193.627z"/>
        <path style="fill:#1F394A;" d="M1076.815,1190.11c1.399,0.486,4.158,1.438,5.558,1.904c31.791,18.771,63.64,37.484,95.159,56.722
		c30.062,18.927,61.075,36.513,90.087,57.014c-0.233,0.855-0.68,2.546-0.913,3.401c-20.19-14.574-41.876-26.972-62.921-40.283
		c-38.029-22.852-75.688-46.346-114.106-68.537C1084.996,1197.494,1079.439,1195.279,1076.815,1190.11z"/>
        <path style="fill:#1F394A;" d="M1134.451,1191.47c1.205-0.194,3.615-0.563,4.839-0.758c19.685,12.728,40.536,23.649,60.862,35.347
		c24.368,14.011,49.105,27.36,73.881,40.613c1.749,0.738,6.121,3.576,2.196,4.994c-45.238-23.183-88.941-49.183-133.246-74.056
		C1139.931,1195.842,1137.113,1193.685,1134.451,1191.47z"/>
        <path style="fill:#1F394A;" d="M666.544,1275.32c8.667-3.731,17.761,1.71,26.428,2.993c9.25,2.448,21.881,2.662,26.234,12.884
		c4.43,11.64-0.661,23.999-3.595,35.386c-1.768,7.812-8.628,14.01-16.731,14.302c-9.483-0.078-18.305-4.12-27.555-5.674
		c-5.635-1.38-12.864-1.788-15.876-7.559c-5.344-8.667-1.71-19.024,0.097-28.157C657.722,1290.982,658.266,1280.391,666.544,1275.32
		z M666.719,1279.284c-4.605,4.197-5.247,10.765-6.859,16.44c-2.002,8.958-5.227,18.247-2.973,27.477
		c2.701,7.578,11.873,7.481,18.422,9.211c9.522,1.593,19.218,7.345,28.934,3.673c6.646-2.818,8.123-10.668,9.969-16.848
		c1.865-8.161,4.761-16.751,2.39-25.087c-1.516-5.519-6.918-8.511-12.087-9.833c-7.792-2.06-15.818-3.148-23.552-5.441
		C676.396,1277.904,670.703,1275.611,666.719,1279.284z"/>
        <path style="fill:#1F394A;" d="M1321.078,1274.989c8.181-3.517,17.878,1.321,20.326,9.794c3.051,9.969,4.878,20.326,6.471,30.645
		c1.341,7.229-1.846,16.07-9.658,17.897c-11.504,2.973-23.163,5.616-34.939,7.326c-7.87,1.108-14.827-5.111-17.022-12.281
		c-2.662-8.725-4.975-17.605-6.335-26.603c-1.069-6.626,0.972-14.574,7.656-17.469
		C1298.128,1279.401,1310.079,1278.72,1321.078,1274.989z M1317.638,1279.459c-9.774,3.653-21.026,3.148-29.984,8.803
		c-7.753,6.218-3.381,16.984-1.846,25.106c2.235,8.589,3.498,20.579,13.544,23.552c9.152,0.622,17.955-3.012,26.991-4.178
		c6.432-1.458,15.449-2.118,17.625-9.697c1.729-8.88-1.341-17.78-2.993-26.447c-1.632-6.005-2.157-13.272-7.462-17.372
		C1328.773,1275.592,1322.729,1278.293,1317.638,1279.459z"/>
        <path style="fill:#1F394A;" d="M425.469,1295.374c6.16,0.408,12.184,1.885,18.188,3.265c87.6,19.024,174.928,39.292,262.548,58.277
		c4.392,0.058,2.079,5.499-1.574,3.109c-90.126-19.374-179.922-40.322-270.029-59.832
		C431.279,1299.163,426.849,1299.377,425.469,1295.374z"/>
        <path style="fill:#1F394A;" d="M1511.493,1310.045c24.523-4.78,48.716-11.212,73.337-15.41c-1.049,4.372-6.218,3.906-9.522,5.13
		c-90.787,19.626-181.477,39.7-272.186,59.676c-3.381,0.408-7.579,2.72-9.988-0.816c27.749-7.19,55.984-12.378,83.889-18.927
		C1421.755,1329.419,1466.741,1320.208,1511.493,1310.045z"/>
        <path style="fill:#EB9F1B;" d="M629.118,670.824c28.585-11.445,60.201-16.614,90.845-12.845
		c37.582,8.531,71.724,30.392,95.956,60.24c43.664,53.399,49.163,133.441,15.39,193.195c-7.715,13.758-17.528,26.214-28.216,37.776
		c-7.345,8.492-15.41,16.848-19.374,27.574c-5.208,14.321-8.803,29.245-14.905,43.256c-6.743,16.051-20.132,29.284-36.532,35.269
		c-13.194,4.819-27.399,6.063-41.313,7.151c4.489-41.157,11.368-82.12,22.269-122.073c6.471-26.564,15.896-52.545,18.927-79.827
		c0.738-9.308,1.516-19.588-3.517-27.905c-4.022-6.043-12.903-4.916-18.052-1.01c-10.435,7.52-15.196,20.54-17.217,32.802
		c-1.574,12.709-1.885,26.564,4.1,38.262c0.972,0.369,2.915,1.127,3.886,1.516c-7.19-17.722-7.093-38.32,0.564-55.926
		c2.992-6.471,7.248-13.428,14.496-15.565c2.857-0.738,6.626-1.146,8.589,1.632c3.848,5.247,3.848,12.223,3.886,18.48
		c-1.71,30.431-12.514,59.21-19.607,88.591c-10.591,39.739-18.052,80.274-21.881,121.218c-5.558-0.233-11.135-0.33-16.692-0.408
		c-4.547-40.866-10.008-81.673-17.567-122.092c-4.392-25.864-11.115-51.32-13.816-77.457c-0.408-7.695-2.196-17.275,5.15-22.425
		c2.934,1.807,6.296,3.478,7.792,6.801c9.016,17.567,7.753,38.009,5.286,56.897c4.236,3.848,3.77-4.197,4.508-6.413
		c2.021-16.925,1.904-34.958-5.616-50.621c-2.468-4.43-6.16-10.182-12.048-9.269c-5.771,0.078-8.453,6.432-8.764,11.407
		c-1.244,15.682,2.507,31.189,5.052,46.579c11.679,55.051,20.792,110.685,26.214,166.728c-8.259-1.341-16.712-1.846-24.737-4.294
		c-16.284-11.251-25.476-30.353-26.991-49.785c-1.574-11.795-0.194-24.368-5.499-35.367c-5.985-10.532-16.44-17.295-25.767-24.582
		c-25.709-19.937-44.092-48.58-53.186-79.691c-11.057-40.283-6.277-84.821,13.719-121.568
		C562.407,712.603,593.576,685.962,629.118,670.824z M726.9,700.594c-3.401,1.574-3.401,7.89,0.622,8.822
		c16.265,8.006,32.219,17.819,43.684,32.141c2.001,2.643,5.791,4.936,8.395,1.613c1.419-3.925,0.078-8.22-3.012-10.902
		c-11.659-11.97-25.825-21.278-40.419-29.284C733.235,701.857,730.146,699.04,726.9,700.594z M790.871,766.197
		c-3.323,3.323-0.369,7.773,0.913,11.309c5.363,11.348,6.315,24.038,7.248,36.358c-0.058,3.556,4.353,6.704,7.481,4.625
		c3.576-2.157,2.118-6.879,2.274-10.28c-1.166-13.738-3.614-27.769-9.988-40.147C797.692,764.662,793.514,765.595,790.871,766.197z"
        />
        <path style="fill:#E99273;" d="M329.746,1138.925c24.757-6.141,51.107-8.278,75.902-1.146
		c35.483,10.105,66.322,32.102,92.439,57.636c8.181,6.801,14.147,17.159,25.087,19.821c57.344,17.236,115.31,32.296,173.043,48.153
		c5.791,2.021,11.096-2.138,16.187-4.275c33.618-17.314,66.225-36.474,99.609-54.216c9.774-5.013,18.83-11.543,29.245-15.274
		c7.365-2.682,15.235-1.185,22.697,0.292c12.553-6.16,26.253-12.029,40.574-9.794c7.209,0.563,13.078,5.072,18.344,9.619
		c10.066-3.012,21.026-5.091,31.189-1.302c18.907,6.218,31.091,27.671,26.233,47.084c-2.002,11.115-10.921,18.83-19.685,24.97
		c-32.083,23.61-63.854,47.667-96.306,70.772c-56.956,42.207-114.086,84.161-171.256,126.076
		c-14.768,11.484-34.123,15.624-52.525,14.263c-12.961-1.01-24.873-6.646-37.096-10.571
		c-78.292-26.369-156.312-53.613-234.702-79.769c-37.018-12.048-73.57-25.553-110.822-36.921
		c-5.927-1.749-11.698-3.983-17.256-6.665c-9.716-56.528-21.414-112.668-31.441-169.137
		C249.297,1158.28,289.521,1148.603,329.746,1138.925z M858.184,1193.044c-44.15,25.281-88.125,50.893-132.819,75.203
		c-2.779,0.661-2.04,3.303-1.885,5.422c45.86-25.884,91.545-52.078,137.288-78.117c1.904-1.263,3.537-2.837,5.188-4.372
		C863.217,1191.023,860.497,1191.548,858.184,1193.044z M915.353,1193.627c-33.831,19.84-67.274,40.322-100.775,60.687
		c-27.263,17.45-55.595,33.287-82.159,51.748c0.136,0.797,0.389,2.41,0.525,3.226c27.108-18.091,55.168-34.667,82.839-51.864
		c33.948-20.482,67.643-41.352,101.941-61.231c2.526-1.282,4.45-3.381,5.927-5.752
		C920.756,1191.178,917.919,1192.111,915.353,1193.627z M666.544,1275.32c-8.278,5.072-8.822,15.662-10.999,24.174
		c-1.807,9.133-5.441,19.49-0.097,28.157c3.012,5.771,10.241,6.179,15.876,7.559c9.25,1.555,18.072,5.597,27.555,5.674
		c8.103-0.292,14.963-6.49,16.731-14.302c2.934-11.387,8.026-23.746,3.595-35.386c-4.353-10.221-16.984-10.435-26.234-12.884
		C684.305,1277.03,675.211,1271.589,666.544,1275.32z M425.469,1295.374c1.38,4.003,5.81,3.789,9.133,4.819
		c90.107,19.51,179.903,40.458,270.029,59.832c3.653,2.39,5.966-3.051,1.574-3.109c-87.62-18.985-174.948-39.253-262.548-58.277
		C437.653,1297.259,431.629,1295.782,425.469,1295.374z"/>
        <path style="fill:#E99273;" d="M1606.128,1135.35c34.414-6.957,68.731,3.964,101.941,11.97
		c27.924,6.704,55.731,13.894,83.655,20.559c-0.136,1.477-0.408,4.411-0.525,5.888c-11.057,54.896-21.725,109.869-32.588,164.804
		c-22.755,8.492-46.074,15.313-69.042,23.183c-48.93,16.381-97.588,33.579-146.596,49.688
		c-46.754,15.876-93.255,32.471-140.086,48.075c-14.924,4.683-29.44,11.815-45.316,12.281c-17.314,0.622-35.386-3.206-49.299-13.972
		c-67.488-49.727-134.684-99.862-202.289-149.433c-24.29-17.878-49.027-35.133-72.968-53.477c-15.099-10.785-17.1-33.307-8.045-48.6
		c6.277-11.348,18.655-18.538,31.383-19.84c7.19-0.622,14.166,1.768,21.045,3.498c13.369-12.631,34.181-11.97,49.591-3.576
		c10.416,6.043,22.774-0.972,33.579,3.459c9.425,3.692,18.208,8.842,27.244,13.408c33.209,17.858,65.914,36.63,99.279,54.196
		c6.179,2.993,12.748,7.889,19.957,5.286c57.539-14.846,114.669-31.286,171.839-47.453c9.017-2.215,14.05-10.649,20.54-16.537
		C1529.274,1169.842,1564.232,1142.948,1606.128,1135.35z M1076.815,1190.11c2.623,5.169,8.181,7.384,12.864,10.221
		c38.417,22.192,76.077,45.685,114.106,68.537c21.045,13.311,42.731,25.709,62.921,40.283c0.233-0.855,0.68-2.546,0.913-3.401
		c-29.012-20.501-60.026-38.087-90.087-57.014c-31.519-19.238-63.368-37.951-95.159-56.722
		C1080.974,1191.548,1078.214,1190.595,1076.815,1190.11z M1134.451,1191.47c2.662,2.215,5.48,4.372,8.531,6.141
		c44.305,24.873,88.008,50.873,133.246,74.056c3.925-1.419-0.447-4.256-2.196-4.994c-24.776-13.253-49.513-26.603-73.881-40.613
		c-20.326-11.698-41.177-22.619-60.862-35.347C1138.066,1190.906,1135.656,1191.276,1134.451,1191.47z M1321.078,1274.989
		c-10.999,3.731-22.949,4.411-33.501,9.308c-6.685,2.895-8.725,10.843-7.656,17.469c1.36,8.997,3.673,17.878,6.335,26.603
		c2.196,7.171,9.152,13.389,17.022,12.281c11.776-1.71,23.435-4.353,34.939-7.326c7.812-1.827,10.999-10.668,9.658-17.897
		c-1.593-10.318-3.42-20.676-6.471-30.645C1338.955,1276.311,1329.258,1271.472,1321.078,1274.989z M1511.493,1310.045
		c-44.752,10.163-89.738,19.374-134.47,29.653c-27.905,6.549-56.14,11.737-83.889,18.927c2.409,3.537,6.607,1.224,9.988,0.816
		c90.709-19.976,181.399-40.05,272.186-59.676c3.304-1.224,8.472-0.758,9.522-5.13
		C1560.21,1298.833,1536.017,1305.265,1511.493,1310.045z"/>
        <path style="fill:#E99273;" d="M666.719,1279.284c3.984-3.673,9.677-1.38,14.244-0.408c7.734,2.293,15.76,3.381,23.552,5.441
		c5.169,1.321,10.571,4.314,12.087,9.833c2.371,8.336-0.525,16.925-2.39,25.087c-1.846,6.179-3.323,14.03-9.969,16.848
		c-9.716,3.673-19.413-2.079-28.934-3.673c-6.549-1.729-15.721-1.632-18.422-9.211c-2.254-9.23,0.972-18.519,2.973-27.477
		C661.472,1290.049,662.114,1283.481,666.719,1279.284z"/>
        <path style="fill:#E99273;" d="M1317.638,1279.459c5.091-1.166,11.135-3.867,15.876-0.233c5.305,4.1,5.83,11.368,7.462,17.372
		c1.652,8.667,4.722,17.567,2.993,26.447c-2.176,7.579-11.193,8.239-17.625,9.697c-9.036,1.166-17.839,4.8-26.991,4.178
		c-10.047-2.973-11.31-14.963-13.544-23.552c-1.535-8.123-5.907-18.888,1.846-25.106
		C1296.612,1282.607,1307.864,1283.112,1317.638,1279.459z"/>
</g>
</svg>
