<svg xmlns="http://www.w3.org/2000/svg" id="_2" data-name="2" width="570.43" height="380.67" viewBox="0 0 570.43 380.67"><defs><style>.cls-1{fill:#4674b5;}.cls-2{fill:#a12330;}</style></defs><path class="cls-1" d="M310.88,186.13c-.83,3.09-5.16,5.36-7.42,5.57-6.19.41-16.9-.62-21.64,4.12-2.27,1.85-2.27,5.77-2.48,8.24-.2,1-1.85,3.51-2.26,4.74A163.39,163.39,0,0,0,273,226.32c-.42,1.65-1.24,2.68-1.86,4.74a160.89,160.89,0,0,1-2.88,18.55,44.08,44.08,0,0,1,0,5.15c-.62,2.68-2.68,4.74-3.3,8-.41,2.06-1.44,10.3-2.89,12.57.83,2.68.42,5.15.42,7.62a73.05,73.05,0,0,1-1,7.42c-1,8.25,6,5.77,5.15,11.75-.21,2.27-1.86,4.95-3.09,7.21-.83,2.48-2.27,5.36-5.77,5.36-5.57,0-9.07-5.56-9.28-9.48,0-3.09-.82-7.42-.62-10.72.42-2.26,2.06-4.53,2.27-6.8l1.44-13c.42-4.33,2.48-8.86,3.3-13.19.21-2.06,0-4.12.21-6.39.2-2.06,1.65-4.12,2.06-6.39.2-2.88-.41-5.77,1.85-9.27-.82-2.89,1.65-12.57,1.65-12.57,1-7.22,3.3-14.63,4.12-21.85.42-2.47.62-4.74-2.68-4.74-6.38-.2-17.72,11.13-23.7,11.34-2.26,0-5.35-1-5.35-3.09,0-5.57,10.3-10.31,16.07-13.4,5.56-3.09,11.95-4.53,17.72-7.21,2.06-.62,5.77-3.3,7.42-3.3,7.42,0,11.34.82,17.52-2.06.62-.62,1.65-.82,2.06-1.44,2.06-4.74,7.42-8.25,12.16-11.75a12.12,12.12,0,0,1,3.92-.41c2.88,0,6,2.47,6,5.36C315.82,176.86,311.91,181.39,310.88,186.13Z"></path><path class="cls-1" d="M376.62,255.17c-8,7.63-17.73,24.32-22.26,26.79a26.47,26.47,0,0,1-14.22,11.13c-2.27.83-3.92,2.27-6,3.09A44.54,44.54,0,0,1,323.65,298c-8.24.2-10.71-7.83-11.54-13.4-.2-1.85-1.85-4.53-1.85-6.18a15.7,15.7,0,0,1,.62-4.53c-.21-3.71-.83-7.42-.42-10.72.83-5.77,1.65-12.78,4.13-17.93,0-4.12,5.35-18.55,10.3-27.41.82-1.85,2.89-3.3,4.33-5.15,2.26-2.89,7.42-6.8,11.74-6.8,8.87,0,13.19,9.89,11.75,18.34-1.65,9.89-6.18,15.46-9.68,22.26-.42,1-3.1,3.29-4.33,3.91-2.06,3.5-5.57,5.77-11.34,8.25a9.16,9.16,0,0,0-2.26,1.64c-1,1-2.27,5.57-2.68,6.8-.42,3.1,1.85,20.41,7,20.41,3.71,0,10.72-3.09,13.4-5.77,4.53-4.54,9.48-11.75,15.25-16.08,2.88-6,10.3-13.81,11.33-15.25,1.24-1.65,1-3.91,2.27-5.56,1.65-2.27,4.74-4.33,7.63-4.33,2.47,0,4.53,1.85,4.53,3.92C383.83,247.75,380.74,251.05,376.62,255.17Zm-40.4-35.45a3.63,3.63,0,0,0-3.09,1.86c-3.09,5.36-7.21,20.61-8.65,26.38-.21,1.44.41,3.3,2.06,3.3,3.09,0,9.68-10.31,11.33-12.16.62-3.71,2.48-9.28,3.51-13.81C341.58,222.61,341,219.72,336.22,219.72Z"></path><path class="cls-1" d="M457.61,251.87c-1.44,2.27-2.68,5.36-4.33,7.63-4.12,5.36-11.13,13.39-18.55,16.49-8.86,7.83-22.46,14.42-34.41,14.42a17.45,17.45,0,0,1-6.8-1.23c-11.34-3.71-11.54-9.9-11.34-19,.41-16.7,2.47-20.61,4.74-27.41-2.88,2.26-7.21,7-8.86,7-2.47,0-6-2.26-6-4.32.62-2.68,13.81-20.82,21.64-26.8A35.87,35.87,0,0,1,415,203a38.41,38.41,0,0,1,13-2.68c4.74,0,12,6,10.72,10.1-1.24,3.92-4.12,10.1-9.07,10.1-3.91,0-6-7.21-11.95-7.21-8.45,0-13,12.57-16.69,17.72a112.66,112.66,0,0,1-2.68,12.16c-.42,2.06-.83,6.39-1.24,8.45-.62,1.85-.82,6.39-2.27,9.48.41,6,.21,9.48,4.54,14.84,1.65,1.85,6.18,1.85,9.68,1.85a38.48,38.48,0,0,0,7.42-1.24c13.6-3.91,29.47-24.11,34-31.11a15.44,15.44,0,0,1,4.32-7c1.45-1.24,4.74-1.86,6.39-1.86,2.68,0,5.57.42,5.57,3.51C466.68,243.63,460.49,248.37,457.61,251.87Z"></path><path class="cls-1" d="M549.32,256.2c-2.89,4.74-8.25,10.92-10.31,13.6-1.23,5.57-5.56,9.9-8.24,14.22-3.92,6.6-9.07,16.7-20,16.49-2.68,0-4.12-1-4.95-2.68-2.26-3.5-6.38-19.37-5.56-23.9.62-3.92,2.47-8,3.3-13.19,1.23-7.22-.62-11.34.82-18.35.62-3.09,1.86-5.15,2.06-7.62.21-1.65.21-3.71-2.68-3.71-3.5,0-9.27,5.77-11.33,8.24-3.71,4.54-8.86,9.28-12.37,14.22-1.23,1.45-1,3.09-1.65,4.12-2.88,4.54-6.8,9.48-9.48,13-1.64,4.74-2.47,12.36-9.48,12.36-3.29,0-5.56-1.64-5.15-4.53.62-5.36,4.12-11.34,6.18-19,1.45-5.15,2.68-11.75,2.27-16.07-1,.61-2.88,6-5.77,6-1.85,0-3.71-1.65-3.71-4.74a21.1,21.1,0,0,1,1.65-7.62c2.89-1.45,3.92-8.66,4.95-10.1,1.44-2.06,1.23-5.36,3.5-7.42,1.24-7.21,8.24-28,13.81-35,.2-4.74,6.59-15.86,10.3-18.54a11.88,11.88,0,0,1,3.92-.42c7.83,0,9.48,11.75,8.24,16.49-.41,2.68-11.33,27.82-13,30.91-.62,1.24-2.06,3.3-3.92,3.92-1.65,3.5-8.24,9.07-8.24,12.16-.62,2.06-1.65,11.33,1,11.33,3.71,0,17.31-19.57,32.35-19.57,6.81,0,12.58,4.53,11.75,10.3,0,0-.62,4.12-.82,5.77a112.8,112.8,0,0,1-3.3,16.9c.82,2.88-.41,9.27-1.44,11.75.62,3.5-1.24,9.27-1.86,11.95.62,2.68,1.65,6.39,3.71,6.39,2.89,0,7-7.63,10.72-9.69,1.44-4.33,10.3-16.07,12-18.55,2.47-4.12,6-10.71,8.86-14.42,1.24-.83,5.15-2.68,6.19-2.68,2.26,0,4.12.62,4.12,2.47C556.74,246.31,552,252.08,549.32,256.2Z"></path><path class="cls-1" d="M6.86,6.46v170s14.34-26,51-50.57V61.5a153.25,153.25,0,0,1,4.67-38.27c2.3-8.9,5.22-16.95,8.27-16.77C77.55,6.86,6.86,6.46,6.86,6.46Z"></path><path class="cls-2" d="M91.82,6.46l-12.75,57S94.85,65,105.9,73.54c13,10.12,12.18,30.21-1,40.24-25.37,19.39-94.61,75.76-93.31,112.63L6.86,315.09h75.4l19.11-42.48.54-13.28-46.2.54S52,216.33,77,194.56l69-51s36.1-20.17,25.48-79.11C171.46,64.47,168.81,23.31,91.82,6.46Z"></path><path class="cls-1" d="M176.77,150.49l-46.19,35s36.63,15.4,27.08,47.66c-7.29,24.61-36.11,23-36.11,23l-17,58.94s65.31,8.49,99.82-37.17C204.38,277.92,261.2,211,176.77,150.49Z"></path><path d="M17.57,374l-9.85-38.8H13l4.6,19.63c1.15,4.83,2.19,9.67,2.88,13.41h.12c.63-3.85,1.84-8.46,3.16-13.47L29,335.17H34.2l4.72,19.69c1.1,4.6,2.13,9.21,2.71,13.3h.12c.8-4.27,1.9-8.58,3.1-13.42L50,335.17H55.1l-11,38.8H38.87L34,353.76a117.07,117.07,0,0,1-2.53-12.66h-.11a109.89,109.89,0,0,1-3,12.66L22.8,374Z"></path><path d="M80,355.78h-15v14H81.75V374H59.88v-38.8h21v4.2h-16v12.26H80Z"></path><path d="M130.05,372.24a34.86,34.86,0,0,1-12,2.13c-5.88,0-10.71-1.49-14.51-5.12-3.34-3.23-5.41-8.41-5.41-14.45,0-11.57,8-20,21-20a24.24,24.24,0,0,1,9.73,1.79l-1.27,4.09a19.22,19.22,0,0,0-8.57-1.67c-9.45,0-15.61,5.87-15.61,15.6s5.88,15.66,15,15.66a16.25,16.25,0,0,0,6.68-1V357.62h-7.83v-4h12.78Z"></path><path d="M170.81,354.16c0,13.3-8.12,20.44-18,20.44-10.31,0-17.44-8-17.44-19.74,0-12.32,7.59-20.38,18-20.38C164,334.48,170.81,342.59,170.81,354.16Zm-30.17.58c0,8.35,4.49,15.78,12.44,15.78s12.43-7.32,12.43-16.13c0-7.77-4-15.83-12.38-15.83S140.64,346.28,140.64,354.74Z"></path><path d="M183.24,339.43h-11.8v-4.26h28.73v4.26H188.31V374h-5.07Z"></path><path d="M222.68,374V357.5l-12.32-22.33h5.75l5.47,10.71c1.44,2.93,2.65,5.29,3.86,8h.11c1-2.54,2.42-5.07,3.92-8l5.58-10.71h5.64l-12.95,22.28V374Z"></path><path d="M276.27,354.16c0,13.3-8.12,20.44-18,20.44-10.3,0-17.44-8-17.44-19.74,0-12.32,7.6-20.38,18-20.38C269.42,334.48,276.27,342.59,276.27,354.16Zm-30.17.58c0,8.35,4.49,15.78,12.44,15.78S271,363.2,271,354.39c0-7.77-4-15.83-12.37-15.83S246.1,346.28,246.1,354.74Z"></path><path d="M287.78,335.17v23c0,8.63,3.86,12.32,9,12.32,5.7,0,9.44-3.8,9.44-12.32v-23h5.07v22.68c0,11.92-6.28,16.75-14.68,16.75-7.95,0-13.93-4.49-13.93-16.58V335.17Z"></path><path d="M359.28,372.76c-1.78.92-5.53,1.84-10.25,1.84-10.94,0-19.11-6.91-19.11-19.69,0-12.2,8.23-20.38,20.26-20.38a21.08,21.08,0,0,1,9.22,1.73l-1.27,4.09a17.79,17.79,0,0,0-7.77-1.61c-9.1,0-15.14,5.81-15.14,16,0,9.56,5.47,15.6,14.85,15.6a20.08,20.08,0,0,0,8.23-1.61Z"></path><path d="M397.56,354.16c0,13.3-8.11,20.44-18,20.44-10.3,0-17.44-8-17.44-19.74,0-12.32,7.6-20.38,18-20.38C390.71,334.48,397.56,342.59,397.56,354.16Zm-30.16.58c0,8.35,4.49,15.78,12.43,15.78s12.44-7.32,12.44-16.13c0-7.77-4-15.83-12.38-15.83S367.4,346.28,367.4,354.74Z"></path><path d="M412.59,374l-12.73-38.8h5.47l6.05,19.11c1.61,5.24,3.05,10,4.14,14.51h.12c1.09-4.49,2.65-9.39,4.43-14.45l6.56-19.17H432L418.11,374Z"></path><path d="M456.22,355.78h-15v14H458V374H436.13v-38.8h21v4.2H441.2v12.26h15Z"></path><path d="M464.51,335.68a58.37,58.37,0,0,1,9.61-.8c5.36,0,8.87,1,11.23,3.17a9.88,9.88,0,0,1,3,7.42,10.2,10.2,0,0,1-7.25,9.85v.17c2.93,1,4.72,3.8,5.64,7.83,1.27,5.41,2.19,9.15,3,10.65H484.6c-.63-1.15-1.5-4.43-2.53-9.27-1.15-5.35-3.28-7.37-7.83-7.54h-4.72V374h-5Zm5,17.68h5.12c5.36,0,8.75-2.94,8.75-7.37,0-5-3.62-7.2-8.92-7.2a21.81,21.81,0,0,0-5,.41Z"></path><path d="M515.52,355.78h-15v14H517.3V374H495.42v-38.8h21v4.2h-16v12.26h15Z"></path><path d="M523.8,335.74a64.11,64.11,0,0,1,10.65-.86c7.2,0,12.32,1.73,15.72,4.83s5.53,7.66,5.53,13.94-2,11.51-5.59,15.08-9.67,5.59-17.21,5.59a79.47,79.47,0,0,1-9.1-.47Zm5,34.31a40.3,40.3,0,0,0,5.07.23c10.76,0,16.52-6,16.52-16.46.06-9.15-5.12-15-15.72-15a28.31,28.31,0,0,0-5.87.52Z"></path></svg>