<svg width="30" height="30" viewBox="0 0 30 30" fill="none" xmlns="http://www.w3.org/2000/svg">
<path d="M22.4462 27.5394L21.8476 11.0688L20.7634 6.7265L28 7.491V27.4148L23.5794 29.9607L22.4462 27.5394Z" fill="#24386C"/>
<path d="M27.9995 7.48985L23.579 10.0376L14.4566 8.04067L3.77897 12.3791L2 7.48985L8.49881 3.74492L14.9996 0L21.4986 3.74492L27.9995 7.48985Z" fill="#7589BE"/>
<path d="M2.00031 7.48985L6.42084 10.0376L8.98333 17.6426L17.6355 24.551L15.0001 29.9594L8.49931 26.2143L2.00031 22.4693V7.48965" fill="#B2BFE8"/>
<path d="M17.9308 20.5548L15.0001 24.8663V29.9598L19.1587 27.5654L21.3014 24.3725" fill="#24386C"/>
<path d="M15.0019 19.7744L10.8416 12.5863L11.7377 10.2039L15.1443 8.55563L19.1586 12.5864L15.0019 19.7744Z" fill="#7589BE"/>
<path d="M10.8416 12.5857L15.0001 14.9801V19.7728L11.154 19.9379L8.82751 16.9734L10.8416 12.5857" fill="#B2BFE8"/>
<path d="M15.0001 14.9797L19.1587 12.5855L21.9889 17.2882L18.5639 20.1121L15.0001 19.7726V14.9797Z" fill="#24386C"/>
<path d="M19.1586 27.565L23.5791 29.9596V10.0378L19.2886 7.5667L15.0001 5.09564L10.7096 7.5667L6.42102 10.0378V19.9238L10.7096 22.3948L15.0001 24.8661L19.1586 22.4695V27.565ZM19.1586 17.376L15.0001 19.7724L10.8416 17.376V12.5853L15.0001 10.1889L19.1586 12.5853V17.376Z" fill="#DC244C"/>
<path d="M15.0019 24.8679V19.7736L10.865 17.3977V22.4835L15.0019 24.8679Z" fill="url(#paint0_linear_1357_2418)"/>
<defs>
<linearGradient id="paint0_linear_1357_2418" x1="348.275" y1="352.377" x2="-63.9531" y2="352.377" gradientUnits="userSpaceOnUse">
<stop stop-color="#FF3364"/>
<stop offset="1" stop-color="#C91540" stop-opacity="0"/>
</linearGradient>
</defs>
</svg>
