<svg width="30" height="30" viewBox="0 0 30 30" fill="none" xmlns="http://www.w3.org/2000/svg">
<path d="M3.03112 15.3797C3.03112 16.2962 2.95747 16.5947 2.76808 16.8146C2.5573 17.0036 2.28365 17.1081 2 17.1079L2.07365 17.6316C2.51341 17.6375 2.94011 17.4829 3.27313 17.1969C3.45231 16.9794 3.58565 16.7282 3.66518 16.4583C3.74472 16.1883 3.76883 15.9052 3.73608 15.6258V12.1589H3.03112V15.3587V15.3797Z" fill="#4E4E4E"/>
<path d="M8.2885 14.9666C8.2885 15.3594 8.2885 15.7103 8.32006 16.014H7.69402L7.65194 15.3908C7.52099 15.6113 7.33372 15.7934 7.10919 15.9185C6.88464 16.0436 6.63083 16.1073 6.37354 16.103C5.76329 16.103 5.03729 15.7731 5.03729 14.4272V12.191H5.74225V14.2858C5.74225 15.0137 5.96846 15.5008 6.60503 15.5008C6.73599 15.5022 6.86591 15.4775 6.98719 15.4283C7.10846 15.3791 7.21863 15.3062 7.31124 15.214C7.40385 15.1218 7.47704 15.0121 7.52651 14.8914C7.57597 14.7707 7.60073 14.6414 7.59933 14.511V12.1648H8.30428V14.9457L8.2885 14.9666Z" fill="#4E4E4E"/>
<path d="M9.6247 13.4369C9.6247 12.9498 9.6247 12.5518 9.59314 12.1905H10.2244L10.256 12.8451C10.3967 12.6086 10.5991 12.4145 10.8419 12.2835C11.0846 12.1526 11.3585 12.0896 11.6343 12.1014C12.5708 12.1014 13.2757 12.8818 13.2757 14.0444C13.2757 15.4165 12.4287 16.0973 11.5133 16.0973C11.2791 16.1077 11.046 16.0577 10.8368 15.9522C10.6276 15.8467 10.4493 15.6892 10.3191 15.495V17.5899H9.6247V13.4526V13.4369ZM10.3191 14.4581C10.321 14.5531 10.3316 14.6478 10.3507 14.7409C10.4104 14.9734 10.5463 15.1795 10.7368 15.3265C10.9274 15.4736 11.1618 15.5531 11.4029 15.5526C12.1446 15.5526 12.5813 14.9504 12.5813 14.0758C12.5813 13.3112 12.171 12.6566 11.4292 12.6566C11.1356 12.6805 10.8609 12.8102 10.6566 13.0213C10.4522 13.2325 10.3322 13.5106 10.3191 13.8035V14.4581Z" fill="#4E4E4E"/>
<path d="M14.5318 12.1869L15.3788 14.4441C15.4682 14.6954 15.5629 14.9992 15.626 15.2244C15.6997 14.994 15.7786 14.7007 15.8733 14.4284L16.6414 12.1869H17.3832L16.331 14.9102C15.8049 16.2194 15.484 16.895 15 17.3035C14.7562 17.5251 14.459 17.6803 14.1372 17.7539L13.9636 17.1673C14.1886 17.0937 14.3975 16.9782 14.5791 16.8269C14.8358 16.6187 15.0395 16.3532 15.1736 16.0518C15.2023 15.9997 15.2219 15.943 15.2315 15.8842C15.2255 15.821 15.2095 15.7592 15.1841 15.701L13.7532 12.1764H14.5213L14.5318 12.1869Z" fill="#4E4E4E"/>
<path d="M19.2546 11.0883V12.1881H20.2647V12.7118H19.2546V14.7752C19.2546 15.2465 19.3914 15.5188 19.7807 15.5188C19.919 15.5211 20.0569 15.5052 20.191 15.4717L20.2226 15.9954C20.0215 16.0648 19.8093 16.0967 19.5966 16.0897C19.4557 16.0984 19.3146 16.0768 19.1829 16.0262C19.0512 15.9755 18.9321 15.8971 18.8337 15.7964C18.6195 15.5111 18.5217 15.1555 18.5602 14.8014V12.7065H17.9604V12.1828H18.5707V11.2506L19.2546 11.0883Z" fill="#4E4E4E"/>
<path d="M21.5633 14.223C21.549 14.4006 21.5736 14.5792 21.6355 14.7464C21.6973 14.9136 21.7949 15.0654 21.9214 15.1914C22.048 15.3174 22.2005 15.4145 22.3685 15.4761C22.5365 15.5377 22.7159 15.5622 22.8943 15.548C23.2551 15.556 23.6137 15.4882 23.9464 15.349L24.0674 15.8727C23.6591 16.0401 23.22 16.1204 22.7785 16.1083C22.5212 16.1259 22.263 16.0878 22.0219 15.9967C21.7807 15.9056 21.5621 15.7636 21.3812 15.5806C21.2003 15.3975 21.0613 15.1776 20.9738 14.9361C20.8863 14.6945 20.8523 14.437 20.8741 14.1811C20.8741 13.029 21.5633 12.1177 22.6891 12.1177C23.9517 12.1177 24.2673 13.2175 24.2673 13.9192C24.2741 14.0274 24.2741 14.1358 24.2673 14.2439H21.5475L21.5633 14.223ZM23.6255 13.6993C23.6458 13.5593 23.6357 13.4166 23.596 13.2808C23.5562 13.1449 23.4876 13.0192 23.3949 12.912C23.3021 12.8048 23.1874 12.7186 23.0584 12.6593C22.9294 12.6 22.7891 12.5689 22.647 12.5681C22.358 12.5889 22.0871 12.7165 21.8876 12.9257C21.6881 13.135 21.5743 13.4109 21.5685 13.6993H23.6255Z" fill="#4E4E4E"/>
<path d="M25.337 13.3778C25.337 12.9275 25.337 12.5399 25.3054 12.1838H25.9367V12.9327H25.9683C26.0345 12.7015 26.1715 12.4967 26.36 12.3465C26.5486 12.1964 26.7794 12.1084 27.0205 12.0948C27.0868 12.0861 27.154 12.0861 27.2204 12.0948V12.7494C27.14 12.7401 27.0588 12.7401 26.9784 12.7494C26.7396 12.7586 26.5123 12.854 26.339 13.0179C26.1657 13.1817 26.0582 13.4027 26.0367 13.6397C26.017 13.7468 26.0064 13.8555 26.0051 13.9644V16.0016H25.3107V13.3831L25.337 13.3778Z" fill="#4E4E4E"/>
<path d="M25.0281 1.66803C25.0497 2.01986 24.9656 2.37012 24.7865 2.67421C24.6074 2.97829 24.3415 3.22243 24.0225 3.37552C23.7036 3.52861 23.3461 3.58372 22.9956 3.53384C22.645 3.48395 22.3174 3.33133 22.0543 3.09541C21.7912 2.85949 21.6046 2.55095 21.5183 2.20909C21.432 1.86724 21.4499 1.50755 21.5697 1.17584C21.6894 0.844135 21.9057 0.555424 22.1909 0.346492C22.476 0.137561 22.8172 0.0178639 23.171 0.00265026C23.4029 -0.0100548 23.6351 0.0230085 23.8542 0.0999388C24.0732 0.176869 24.2748 0.296149 24.4474 0.450918C24.62 0.605688 24.7601 0.792894 24.8598 1.00177C24.9594 1.21065 25.0166 1.43708 25.0281 1.66803Z" fill="#767677"/>
<path d="M14.6255 22.1779C9.89073 22.1779 5.72938 20.4864 3.5777 17.9883C4.41256 20.2356 5.91897 22.1743 7.89416 23.5436C9.86934 24.9129 12.2186 25.6469 14.6255 25.6469C17.0324 25.6469 19.3816 24.9129 21.3568 23.5436C23.332 22.1743 24.8384 20.2356 25.6733 17.9883C23.5268 20.4864 19.3813 22.1779 14.6255 22.1779Z" fill="#F37726"/>
<path d="M14.6255 5.93363C19.3602 5.93363 23.5216 7.6252 25.6733 10.1232C24.8384 7.87597 23.332 5.93721 21.3568 4.56795C19.3816 3.19869 17.0324 2.46466 14.6255 2.46466C12.2186 2.46466 9.86934 3.19869 7.89416 4.56795C5.91897 5.93721 4.41256 7.87597 3.5777 10.1232C5.72938 7.61996 9.8697 5.93363 14.6255 5.93363Z" fill="#F37726"/>
<path d="M8.10748 27.0392C8.13526 27.4824 8.02987 27.9237 7.80477 28.3071C7.57965 28.6904 7.24501 28.9983 6.84347 29.1916C6.44193 29.3849 5.99167 29.4549 5.55006 29.3925C5.10844 29.3302 4.69547 29.1384 4.36375 28.8416C4.03203 28.5447 3.79659 28.1563 3.68741 27.7258C3.57824 27.2953 3.60028 26.8422 3.75072 26.4242C3.90117 26.0062 4.1732 25.6422 4.53218 25.3787C4.89115 25.1152 5.32081 24.964 5.76641 24.9444C6.05831 24.9289 6.35043 24.9707 6.62609 25.0676C6.90173 25.1645 7.15551 25.3145 7.37291 25.509C7.59031 25.7035 7.76709 25.9388 7.89313 26.2014C8.01917 26.4639 8.09201 26.7486 8.10748 27.0392Z" fill="#9E9E9E"/>
<path d="M4.11579 5.36437C3.86067 5.37139 3.60916 5.30315 3.39288 5.16825C3.17661 5.03334 3.00524 4.83779 2.90031 4.60619C2.79539 4.37459 2.7616 4.11727 2.80319 3.8666C2.84478 3.61593 2.9599 3.38309 3.13407 3.19738C3.30824 3.01167 3.53368 2.88137 3.78205 2.82286C4.03041 2.76436 4.2906 2.78026 4.52992 2.86858C4.76922 2.95689 4.97696 3.11367 5.12699 3.3192C5.27703 3.52473 5.36267 3.76984 5.37314 4.02369C5.38311 4.36694 5.25666 4.70026 5.02126 4.95127C4.78585 5.20228 4.46048 5.35073 4.11579 5.36437Z" fill="#616262"/>
</svg>
