<svg width="30" height="30" viewBox="0 0 30 30" fill="none" xmlns="http://www.w3.org/2000/svg">
<path d="M14.5182 7.26493C14.7432 6.91169 15.2515 6.91169 15.4849 7.26493L20.2607 14.6418L25.3374 22.4762C25.2774 22.5867 25.2083 22.6916 25.1307 22.7896C25.0777 22.855 25.0275 22.9169 24.9649 22.9804C24.9511 22.994 24.9379 23.0046 24.9215 23.0176L24.9039 23.0315C24.8464 23.076 24.7872 23.118 24.7265 23.1575C24.6773 23.1894 24.6366 23.2176 24.5778 23.2469C24.5191 23.2762 24.4252 23.3115 24.3687 23.3316C24.3121 23.3518 24.2932 23.3586 24.2515 23.3681C24.2307 23.3725 24.2098 23.3767 24.189 23.3793C24.1748 23.3819 24.1607 23.3845 24.1465 23.3863C24.144 23.3871 24.1407 23.3871 24.1382 23.388L24.0748 23.3958C24.0082 23.4027 23.939 23.4062 23.8682 23.4062C17.977 24.0717 12.0335 24.0717 6.14228 23.4062C6.13558 23.4062 6.12898 23.4062 6.12228 23.4052L6.10228 23.4051L6.09308 23.4044H6.08398C6.07728 23.4036 6.07058 23.4036 6.06398 23.4027H6.05728C6.04808 23.4018 6.03968 23.4018 6.03068 23.401C5.97568 23.3966 5.91158 23.3822 5.86568 23.3717C5.81968 23.3621 5.79228 23.3544 5.75398 23.3457C5.30058 23.2343 4.88398 22.9511 4.69308 22.4926C4.68808 22.4804 4.68388 22.4684 4.67888 22.4563L4.67808 22.4537L0.0263865 10.1601C-0.0986134 9.81478 0.243086 9.46932 0.576386 9.63345C0.584786 9.63345 0.601386 9.63345 0.609786 9.64205L9.73898 14.6417L14.5182 7.26493ZM29.4017 9.64215C29.7359 9.45222 30.0942 9.78028 29.9775 10.1429V10.1602L25.3375 22.4763L20.2607 14.6418L29.3934 9.64215H29.4017Z" fill="#FF4B4B"/>
<path d="M29.4017 9.64216H29.3934L20.2608 14.6418L25.3375 22.4763L29.9775 10.1603V10.143C30.0942 9.78029 29.7359 9.45223 29.4017 9.64216Z" fill="#7D353B"/>
<path d="M15.4848 7.26493C15.2514 6.91169 14.7432 6.91169 14.5182 7.26493L9.73895 14.6418L14.9981 17.5224L24.9648 22.9804C25.0274 22.9169 25.0776 22.855 25.1306 22.7896C25.2082 22.6916 25.2774 22.5867 25.3373 22.4762L20.2606 14.6418L15.4848 7.26493Z" fill="#BD4043"/>
</svg>
