<svg width="30" height="30" viewBox="0 0 30 30" fill="none" xmlns="http://www.w3.org/2000/svg">
<circle cx="15" cy="15" r="15" fill="#0FA37F"/>
<path d="M15.0633 3.89681C15.0902 3.90323 15.1171 3.90965 15.1448 3.91626C16.0683 4.1416 16.8674 4.55235 17.5927 5.15666C17.6223 5.18104 17.6223 5.18104 17.6525 5.20592C17.7694 5.30418 17.8581 5.40493 17.9511 5.52613C18.0187 5.60069 18.0187 5.60069 18.1109 5.64121C18.2375 5.63743 18.3509 5.61917 18.4745 5.59406C18.7465 5.5404 19.014 5.53102 19.2905 5.53219C19.3133 5.53228 19.336 5.53238 19.3595 5.53248C19.7367 5.5353 20.1015 5.5614 20.4702 5.64121C20.4956 5.64658 20.521 5.65195 20.5472 5.65749C21.5274 5.87146 22.4478 6.33168 23.1732 7.01816C23.2542 7.09571 23.2542 7.09571 23.3419 7.16276C23.4606 7.25659 23.5521 7.36729 23.6489 7.48252C23.676 7.5145 23.7031 7.54648 23.731 7.57943C24.7225 8.77122 25.191 10.2987 25.0375 11.8334C25.034 11.8677 25.034 11.8677 25.0305 11.9027C25.0117 12.0541 24.9758 12.1943 24.9304 12.3402C24.8061 12.6912 24.8061 12.6912 24.8201 13.0506C24.901 13.1893 25.0152 13.294 25.1329 13.4025C25.2261 13.4959 25.2928 13.6033 25.361 13.7151C25.3744 13.7367 25.3877 13.7582 25.4014 13.7804C26.2032 15.099 26.4512 16.6575 26.0838 18.1555C26.0511 18.2815 26.0144 18.4061 25.9755 18.5304C25.9688 18.5518 25.9621 18.5732 25.9552 18.5952C25.7632 19.1879 25.4473 19.7544 25.0579 20.2425C25.024 20.2866 25.024 20.2866 24.9893 20.3317C24.2104 21.313 23.0584 22.0553 21.8138 22.3099C21.7705 22.3099 21.7273 22.3099 21.6827 22.3099C21.6786 22.3265 21.6746 22.3431 21.6704 22.3601C21.3094 23.6814 20.2682 24.8106 19.0964 25.4961C17.7177 26.2748 16.0909 26.4408 14.5648 26.038C13.6747 25.7899 12.6659 25.2756 12.0729 24.5533C12.0243 24.4968 11.9793 24.452 11.9175 24.4096C11.8152 24.4055 11.7459 24.4103 11.648 24.4292C11.5953 24.4372 11.5426 24.4449 11.4898 24.4523C11.4494 24.4582 11.4494 24.4582 11.4083 24.4643C11.2811 24.48 11.1547 24.4829 11.0267 24.484C10.9896 24.4843 10.9896 24.4843 10.9517 24.4846C10.8756 24.4849 10.7995 24.4847 10.7234 24.4844C10.697 24.4843 10.6705 24.4842 10.6433 24.4841C10.2524 24.4825 9.87343 24.4713 9.49254 24.3773C9.46524 24.3708 9.43794 24.3642 9.40981 24.3574C8.35226 24.0955 7.42752 23.6025 6.65569 22.8405C6.60728 22.7929 6.55827 22.7458 6.50823 22.6998C5.5058 21.7642 4.98721 20.3049 4.93832 18.9708C4.92815 18.4631 4.98546 17.9659 5.10146 17.4717C5.10658 17.4493 5.1117 17.4269 5.11698 17.4039C5.12907 17.3557 5.14304 17.308 5.15839 17.2607C5.18058 17.1865 5.19664 17.1218 5.19977 17.0444C5.15028 16.9548 5.11272 16.9024 5.04411 16.8304C5.01001 16.791 4.97605 16.7515 4.94222 16.7119C4.92488 16.692 4.90754 16.6721 4.88967 16.6515C3.98753 15.5879 3.66942 14.083 3.76688 12.7297C3.9059 11.2345 4.67326 9.82027 5.83259 8.85174C6.33702 8.44363 6.91499 8.12631 7.52638 7.90247C7.55163 7.8932 7.57688 7.88393 7.60289 7.87438C7.72198 7.83284 7.8344 7.80119 7.95993 7.786C8.09834 7.76593 8.19262 7.74766 8.31284 7.67634C8.42933 7.50889 8.48219 7.30656 8.54495 7.11519C8.7421 6.55803 9.13541 6.04696 9.54579 5.62556C9.62446 5.54567 9.62446 5.54567 9.69248 5.45925C9.78765 5.34227 9.89991 5.252 10.0168 5.15666C10.05 5.12955 10.0832 5.10244 10.1175 5.07451C11.4615 3.99576 13.3539 3.47354 15.0633 3.89681ZM10.5917 6.71559C10.4497 6.8737 10.3295 7.047 10.2135 7.22409C10.1923 7.25632 10.171 7.28855 10.1492 7.32176C9.99595 7.56784 9.88699 7.82591 9.78746 8.09629C9.7687 8.14651 9.7687 8.14651 9.74957 8.19774C9.51249 8.88825 9.54058 9.61789 9.5384 10.3369C9.5381 10.4276 9.5377 10.5184 9.53726 10.6091C9.53593 10.8938 9.53497 11.1784 9.53459 11.4631C9.53415 11.7905 9.53241 12.1179 9.52958 12.4453C9.52745 12.6996 9.52646 12.9539 9.52633 13.2082C9.52623 13.3596 9.52565 13.511 9.52389 13.6625C9.52227 13.8045 9.52206 13.9464 9.52292 14.0884C9.52299 14.1404 9.52257 14.1924 9.5216 14.2444C9.50714 14.5204 9.50714 14.5204 9.62233 14.7589C9.69762 14.8093 9.76921 14.8456 9.853 14.8801C9.88824 14.901 9.92348 14.9218 9.95979 14.9434C10.0086 14.9706 10.0086 14.9706 10.0583 14.9984C10.0953 15.0192 10.1323 15.0399 10.1703 15.0613C10.2093 15.083 10.2482 15.1047 10.2872 15.1264C10.3276 15.149 10.368 15.1716 10.4085 15.1943C10.4697 15.2286 10.5309 15.2629 10.5922 15.2971C10.7225 15.3699 10.8525 15.4432 10.9824 15.5168C11.0142 15.5348 11.0461 15.5529 11.0789 15.5715C11.1385 15.6053 11.1981 15.6391 11.2577 15.673C11.2839 15.6878 11.3102 15.7026 11.3372 15.7179C11.36 15.7309 11.3829 15.7438 11.4064 15.7572C11.4536 15.7871 11.4536 15.7871 11.4915 15.7846C11.4915 15.7515 11.4916 15.7184 11.4916 15.6844C11.4928 14.8799 11.4948 14.0753 11.4975 13.2708C11.4988 12.8818 11.4999 12.4927 11.5003 12.1036C11.5008 11.7645 11.5017 11.4254 11.5031 11.0863C11.5038 10.9067 11.5043 10.7272 11.5043 10.5477C11.5043 10.3786 11.5049 10.2095 11.5059 10.0405C11.5062 9.97851 11.5063 9.91652 11.5061 9.85454C11.5059 9.76974 11.5064 9.68498 11.5072 9.60018C11.507 9.5758 11.5067 9.55141 11.5065 9.52629C11.5098 9.32357 11.5755 9.15808 11.7091 9.00288C11.8472 8.89451 11.9888 8.80725 12.1448 8.72621C12.1974 8.69815 12.2499 8.67001 12.3024 8.64179C12.3302 8.62682 12.3581 8.61184 12.3868 8.59641C12.5432 8.51105 12.6972 8.42168 12.8514 8.33251C13.128 8.17278 13.4051 8.01384 13.6829 7.85603C13.7183 7.83593 13.7537 7.81583 13.7901 7.79512C13.8619 7.75435 13.9337 7.71359 14.0054 7.67283C14.1833 7.57178 14.3612 7.47061 14.539 7.36946C14.6098 7.3292 14.6806 7.28895 14.7514 7.2487C14.8955 7.16671 15.0396 7.08469 15.1838 7.00263C15.6236 6.75227 16.0639 6.50288 16.5052 6.25498C15.8984 5.6225 14.8744 5.30828 14.0114 5.27666C12.6733 5.24856 11.5057 5.7489 10.5917 6.71559ZM16.4812 7.96949C16.313 8.06712 16.1434 8.16225 15.9737 8.25737C15.6692 8.42809 15.3656 8.60018 15.0633 8.77467C14.7803 8.93801 14.4962 9.09919 14.2113 9.25922C13.8252 9.47614 13.4405 9.69541 13.0573 9.91743C12.9909 9.95562 12.9242 9.99336 12.8574 10.0308C12.8037 10.0611 12.8037 10.0611 12.749 10.0919C12.7161 10.1103 12.6833 10.1286 12.6494 10.1476C12.5694 10.1892 12.5694 10.1892 12.5401 10.2606C12.5371 10.3283 12.5362 10.396 12.5364 10.4637C12.5364 10.4845 12.5363 10.5053 12.5363 10.5267C12.5364 10.5956 12.5366 10.6645 12.5369 10.7333C12.5369 10.781 12.537 10.8287 12.537 10.8765C12.5371 11.0021 12.5375 11.1278 12.5378 11.2534C12.5382 11.3816 12.5383 11.5098 12.5385 11.638C12.5388 11.8895 12.5394 12.1411 12.5401 12.3927C12.6137 12.3566 12.6873 12.3205 12.7609 12.2843C12.7817 12.2742 12.8024 12.264 12.8238 12.2536C12.9705 12.1815 13.1128 12.1051 13.2528 12.0212C13.3001 11.9933 13.3474 11.9655 13.3948 11.9378C13.4203 11.9228 13.4458 11.9078 13.472 11.8924C13.6351 11.7974 13.7994 11.7045 13.9635 11.6113C13.9997 11.5907 14.036 11.5702 14.0734 11.5489C14.1478 11.5067 14.2222 11.4644 14.2967 11.4221C14.4758 11.3204 14.6549 11.2185 14.8339 11.1167C15.0477 10.9951 15.2614 10.8736 15.4752 10.7521C15.8177 10.5576 16.1599 10.3625 16.5011 10.1657C16.773 10.0092 17.0452 9.85329 17.3183 9.69869C17.3753 9.66634 17.4324 9.63386 17.4894 9.60139C17.6781 9.49478 17.8682 9.39154 18.0618 9.2938C18.0984 9.27527 18.135 9.25675 18.1727 9.23766C18.3442 9.16527 18.4918 9.15604 18.6681 9.21753C18.8823 9.31279 19.0862 9.42371 19.2905 9.53784C19.3269 9.55802 19.3632 9.5782 19.4006 9.59899C19.621 9.72172 19.8402 9.84622 20.0579 9.97349C20.2647 10.0944 20.4728 10.213 20.6812 10.3313C20.7175 10.3519 20.7538 10.3725 20.7911 10.3938C20.8655 10.436 20.94 10.4783 21.0144 10.5205C21.2288 10.6423 21.4431 10.7642 21.6574 10.8861C21.8386 10.9892 22.0197 11.0922 22.201 11.195C22.2377 11.2159 22.2744 11.2368 22.3123 11.2583C22.3846 11.2993 22.4569 11.3404 22.5292 11.3814C22.6879 11.4715 22.8463 11.5622 23.0035 11.655C23.0424 11.6779 23.0424 11.6779 23.0821 11.7013C23.1293 11.7292 23.1764 11.7573 23.2234 11.7856C23.3453 11.8587 23.3453 11.8587 23.485 11.8758C23.6564 10.7285 23.3488 9.60943 22.6596 8.67776C22.5881 8.58856 22.5138 8.50359 22.4364 8.41933C22.4214 8.40298 22.4065 8.38664 22.391 8.3698C21.6007 7.51856 20.543 7.10345 19.3912 7.02106C18.2913 6.99377 17.4022 7.43037 16.4812 7.96949ZM7.70661 9.47122C7.68312 9.48296 7.65963 9.4947 7.63543 9.5068C7.30975 9.67197 7.02086 9.86777 6.73992 10.0991C6.70856 10.124 6.70856 10.124 6.67656 10.1495C5.89038 10.7864 5.41381 11.8344 5.29807 12.8126C5.28901 12.9555 5.28711 13.0976 5.28783 13.2407C5.28799 13.2787 5.28815 13.3167 5.28832 13.3559C5.29243 13.6586 5.32146 13.9407 5.39638 14.234C5.40677 14.275 5.41716 14.316 5.42787 14.3583C5.75715 15.5511 6.5628 16.4066 7.62469 17.0121C7.65636 17.0303 7.68802 17.0484 7.72065 17.0671C7.93533 17.1901 8.15055 17.3122 8.36597 17.434C8.54505 17.5353 8.72386 17.6372 8.90269 17.7389C9.11642 17.8605 9.33017 17.9821 9.54399 18.1035C9.88781 18.2988 10.2313 18.4946 10.5739 18.6919C10.8401 18.8452 11.1065 18.9981 11.3734 19.1502C11.4286 19.1817 11.4838 19.2132 11.539 19.2448C11.5727 19.264 11.6065 19.2832 11.6412 19.303C11.6709 19.3199 11.7005 19.3368 11.7311 19.3543C11.7747 19.3782 11.7747 19.3782 11.8192 19.4026C11.868 19.4319 11.868 19.4319 11.9179 19.4619C12.0126 19.5094 12.0126 19.5094 12.1008 19.4762C12.1291 19.4596 12.1574 19.443 12.1865 19.4259C12.2188 19.4075 12.2512 19.3891 12.2845 19.3701C12.3188 19.3495 12.3531 19.3289 12.3885 19.3077C12.4243 19.2871 12.4601 19.2664 12.4969 19.2452C12.5721 19.2017 12.6471 19.1581 12.7218 19.1139C12.8667 19.0283 13.0129 18.9449 13.1591 18.8614C13.256 18.8058 13.3527 18.7498 13.4494 18.6938C13.6038 18.6046 13.7595 18.5183 13.9164 18.4335C13.8378 18.3477 13.7537 18.2952 13.6521 18.2381C13.6183 18.2191 13.5846 18.2 13.5498 18.1804C13.5133 18.16 13.4768 18.1396 13.4392 18.1185C13.4008 18.0969 13.3624 18.0752 13.324 18.0536C13.2443 18.0086 13.1645 17.9637 13.0847 17.9188C12.9028 17.8165 12.7215 17.713 12.5401 17.6097C12.4691 17.5693 12.3981 17.529 12.3271 17.4886C11.6171 17.0848 10.9071 16.681 10.1971 16.2772C10.1619 16.2572 10.1267 16.2372 10.0905 16.2166C10.0198 16.1764 9.94911 16.1362 9.87844 16.0959C9.69624 15.9922 9.51389 15.8888 9.33125 15.7858C9.15269 15.6851 8.97463 15.5836 8.79697 15.4813C8.74051 15.449 8.6839 15.4168 8.62708 15.3851C8.56211 15.3487 8.49784 15.3115 8.43368 15.2738C8.40069 15.2549 8.3677 15.236 8.33371 15.2166C8.1586 15.0583 8.07812 14.8696 8.06447 14.6355C8.06094 14.5162 8.06114 14.397 8.06185 14.2776C8.06157 14.2238 8.06122 14.17 8.06081 14.1161C8.05989 13.9709 8.05997 13.8256 8.06023 13.6803C8.06033 13.5282 8.05951 13.376 8.05879 13.2239C8.05756 12.9361 8.05716 12.6484 8.05706 12.3607C8.05691 12.033 8.05583 11.7053 8.05468 11.3775C8.05232 10.7037 8.05112 10.0299 8.05069 9.35613C7.91777 9.35613 7.8224 9.41299 7.70661 9.47122ZM17.8202 10.608C17.7692 10.6371 17.7692 10.6371 17.7171 10.6668C17.6801 10.688 17.6431 10.7092 17.605 10.7311C17.5668 10.7529 17.5286 10.7747 17.4905 10.7965C17.4105 10.8421 17.3305 10.8878 17.2505 10.9335C17.1296 11.0026 17.0085 11.0715 16.8874 11.1403C16.8584 11.1567 16.8584 11.1567 16.8289 11.1735C16.7359 11.2263 16.6429 11.2791 16.55 11.3319C16.5164 11.351 16.4828 11.3701 16.4482 11.3898C16.4188 11.4065 16.3894 11.4232 16.3591 11.4404C16.3316 11.4562 16.3041 11.4719 16.2758 11.4882C16.2452 11.5049 16.2146 11.5216 16.1831 11.5387C16.1596 11.554 16.1361 11.5693 16.1119 11.5851C16.1119 11.6064 16.1119 11.6277 16.1119 11.6497C16.1353 11.6628 16.1586 11.6759 16.1826 11.6895C16.7145 11.9886 17.2456 12.2889 17.7757 12.5909C17.8826 12.6518 17.9896 12.7125 18.0965 12.7733C18.4391 12.9678 18.7813 13.163 19.1226 13.3598C19.407 13.5237 19.6925 13.6855 19.9787 13.8463C20.3669 14.0645 20.7538 14.2849 21.139 14.5082C21.2177 14.5534 21.2968 14.5978 21.3763 14.6418C21.3989 14.6546 21.4216 14.6674 21.445 14.6806C21.503 14.7134 21.5613 14.7457 21.6196 14.778C21.7628 14.8822 21.8557 15.0042 21.9121 15.1708C21.9155 15.2445 21.9169 15.3184 21.9173 15.3922C21.9174 15.4148 21.9176 15.4374 21.9178 15.4608C21.9183 15.5368 21.9185 15.6128 21.9188 15.6889C21.9191 15.7433 21.9195 15.7978 21.9198 15.8522C21.9207 16.0001 21.9214 16.1481 21.922 16.2961C21.9227 16.4506 21.9236 16.6052 21.9245 16.7597C21.9262 17.0525 21.9276 17.3453 21.929 17.638C21.9307 17.9713 21.9325 18.3046 21.9343 18.6378C21.938 19.3235 21.9415 20.0091 21.9449 20.6947C22.0075 20.6693 22.0701 20.6439 22.1326 20.6184C22.1675 20.6042 22.2023 20.59 22.2382 20.5754C22.3648 20.5219 22.4849 20.4612 22.6043 20.3939C22.6266 20.3814 22.6488 20.369 22.6717 20.3561C22.8595 20.2485 23.0271 20.1258 23.1901 19.984C23.2172 19.9611 23.2444 19.9382 23.2724 19.9146C24.1098 19.194 24.6346 18.1648 24.719 17.0701C24.7885 15.9389 24.408 14.8276 23.6489 13.9756C23.1875 13.4643 22.6207 13.1428 22.021 12.809C21.8541 12.7155 21.6885 12.6197 21.5229 12.5239C21.2386 12.3599 20.9531 12.1981 20.6669 12.0373C20.3485 11.8585 20.0312 11.678 19.715 11.4955C19.4352 11.3342 19.1544 11.1745 18.8735 11.0152C18.6381 10.8814 18.4034 10.7465 18.1701 10.6093C17.9984 10.5087 17.991 10.5103 17.8202 10.608ZM14.8165 12.3131C14.7856 12.331 14.7548 12.3489 14.7229 12.3673C14.6893 12.387 14.6556 12.4067 14.6209 12.427C14.5489 12.4688 14.4769 12.5106 14.4049 12.5523C14.3862 12.5631 14.3676 12.5739 14.3484 12.5851C14.1195 12.7179 13.8891 12.8483 13.6588 12.9788C13.5912 13.0172 13.5244 13.057 13.4583 13.098C13.3522 13.1597 13.2445 13.1963 13.1278 13.2347C12.8926 13.323 12.6917 13.4159 12.5401 13.6202C12.3825 14.0174 12.4387 14.5035 12.4536 14.9203C12.4569 15.0498 12.4553 15.179 12.4536 15.3086C12.4524 15.434 12.4541 15.5593 12.4566 15.6847C12.4575 15.7443 12.4577 15.8039 12.4571 15.8635C12.4492 16.1832 12.4492 16.1832 12.5952 16.4543C12.7294 16.5549 12.8751 16.6257 13.0292 16.6914C13.127 16.7345 13.2163 16.7874 13.308 16.8419C13.3735 16.8791 13.4391 16.9164 13.5047 16.9536C13.5775 16.9949 13.6503 17.0362 13.7231 17.0776C13.7793 17.1095 13.8354 17.1414 13.8916 17.1732C14.0484 17.2623 14.2051 17.3513 14.3619 17.4404C14.4169 17.4717 14.472 17.503 14.5271 17.5343C14.5774 17.5629 14.5774 17.5629 14.6287 17.5921C14.6581 17.6088 14.6876 17.6255 14.7179 17.6427C14.7755 17.6758 14.8324 17.7103 14.8884 17.746C14.9635 17.7966 14.9635 17.7966 15.0518 17.7735C15.2105 17.7002 15.3594 17.6135 15.5098 17.5249C15.5802 17.4839 15.6507 17.443 15.7211 17.402C15.7581 17.3805 15.795 17.3591 15.8331 17.3369C16.0085 17.2354 16.1854 17.1363 16.3622 17.0371C16.6421 16.8801 16.9218 16.7226 17.1995 16.5619C17.2222 16.5487 17.245 16.5356 17.2684 16.522C17.3676 16.4678 17.3676 16.4678 17.4555 16.3983C17.4628 16.3143 17.4679 16.231 17.4717 16.1468C17.4729 16.1204 17.4742 16.0941 17.4755 16.0669C17.4867 15.8222 17.4935 15.5774 17.4989 15.3325C17.5026 15.168 17.5078 15.0038 17.5166 14.8395C17.5849 14.1513 17.5849 14.1513 17.3825 13.5187C17.2 13.3592 16.9934 13.2744 16.7637 13.2C16.6408 13.1584 16.5432 13.1018 16.4335 13.0337C16.37 12.9977 16.3065 12.9617 16.243 12.9257C16.025 12.8021 15.8073 12.6781 15.5907 12.5523C15.5544 12.5313 15.5181 12.5102 15.4807 12.4886C15.4113 12.4483 15.3419 12.4079 15.2726 12.3673C15.2263 12.3405 15.2263 12.3405 15.179 12.3131C15.1383 12.2893 15.1383 12.2893 15.0967 12.265C14.9772 12.2039 14.9259 12.2492 14.8165 12.3131ZM18.5041 14.234C18.504 14.2839 18.504 14.2839 18.5038 14.3349C18.5019 15.1445 18.4994 15.9541 18.4964 16.7637C18.4949 17.1552 18.4936 17.5468 18.4927 17.9383C18.492 18.2795 18.4909 18.6207 18.4894 18.962C18.4886 19.1427 18.488 19.3233 18.4878 19.5041C18.4876 19.6741 18.4869 19.8442 18.4859 20.0142C18.4856 20.0767 18.4855 20.1391 18.4856 20.2015C18.4856 20.2868 18.4851 20.372 18.4844 20.4572C18.4846 20.4943 18.4846 20.4943 18.4849 20.5321C18.4822 20.731 18.4294 20.8575 18.2972 21.006C18.2066 21.0846 18.1165 21.1453 18.0129 21.2064C17.9944 21.2174 17.9759 21.2284 17.9568 21.2397C17.7567 21.3578 17.554 21.4717 17.351 21.5851C17.2701 21.6305 17.1891 21.6759 17.1082 21.7214C17.0879 21.7328 17.0675 21.7442 17.0466 21.7559C16.8425 21.8705 16.6389 21.9861 16.4355 22.102C16.4007 22.1218 16.3658 22.1416 16.3299 22.1621C16.2596 22.2021 16.1893 22.2421 16.1191 22.2822C15.942 22.383 15.7648 22.4837 15.5876 22.5845C15.5525 22.6045 15.5174 22.6244 15.4812 22.645C15.303 22.7464 15.1247 22.8478 14.9463 22.949C14.8047 23.0295 14.6631 23.11 14.5216 23.1907C14.394 23.2634 14.2663 23.3358 14.1384 23.4078C14.0465 23.4596 13.9548 23.5117 13.8631 23.5637C13.8289 23.5829 13.7947 23.602 13.7594 23.6217C13.7284 23.6394 13.6973 23.6571 13.6652 23.6754C13.624 23.6987 13.624 23.6987 13.5818 23.7224C13.5625 23.736 13.5431 23.7496 13.5232 23.7636C13.5232 23.7849 13.5232 23.8062 13.5232 23.8282C13.5875 23.8815 13.6513 23.9298 13.7198 23.9776C13.7505 23.9991 13.7505 23.9991 13.7819 24.021C14.6908 24.6392 15.8536 24.882 16.9415 24.6963C17.0706 24.6702 17.1976 24.6392 17.3244 24.6035C17.3483 24.5967 17.3723 24.59 17.397 24.583C18.2543 24.3312 19.0102 23.8171 19.5527 23.1175C19.5749 23.0896 19.5971 23.0618 19.62 23.0331C20.2308 22.2424 20.4393 21.3257 20.4459 20.3486C20.4463 20.2941 20.4468 20.2396 20.4473 20.1852C20.4516 19.6906 20.4537 19.196 20.4554 18.7014C20.4567 18.3361 20.459 17.9708 20.4625 17.6055C20.4649 17.3482 20.4661 17.0909 20.4665 16.8335C20.4668 16.68 20.4676 16.5265 20.4697 16.3729C20.4715 16.2286 20.472 16.0844 20.4714 15.9401C20.4715 15.8872 20.472 15.8343 20.4731 15.7814C20.4885 15.5014 20.4885 15.5014 20.373 15.2589C20.2977 15.2085 20.2265 15.1725 20.1425 15.1385C20.0931 15.1096 20.0931 15.1096 20.0427 15.0801C20.0135 15.0642 19.9842 15.0483 19.9541 15.032C19.9043 15.0048 19.9043 15.0048 19.8536 14.977C19.802 14.949 19.802 14.949 19.7493 14.9204C19.4792 14.7728 19.2105 14.6235 18.9458 14.4665C18.8415 14.405 18.7366 14.3476 18.6277 14.2944C18.6045 14.283 18.5812 14.2716 18.5573 14.2599C18.5309 14.2471 18.5309 14.2471 18.5041 14.234ZM17.2797 17.7066C17.2491 17.7244 17.2184 17.7421 17.1868 17.7604C17.1532 17.78 17.1195 17.7995 17.0848 17.8197C16.7834 17.9939 16.481 18.1661 16.1775 18.3366C15.8589 18.5155 15.5414 18.6962 15.225 18.8787C14.8801 19.0775 14.534 19.2741 14.1878 19.4707C14.0453 19.5516 13.9029 19.6326 13.7605 19.7136C13.6898 19.7538 13.6192 19.794 13.5485 19.8342C13.3668 19.9375 13.1852 20.0408 13.0037 20.1443C12.365 20.5082 12.365 20.5082 12.067 20.6745C12.0356 20.6921 12.0356 20.6921 12.0036 20.7101C11.8591 20.7903 11.7494 20.8293 11.5836 20.832C11.5541 20.8328 11.5246 20.8337 11.4941 20.8345C11.2685 20.8109 11.08 20.7048 10.8893 20.5897C10.8402 20.5607 10.7911 20.5317 10.742 20.5028C10.7153 20.487 10.6885 20.4712 10.661 20.455C10.497 20.359 10.3316 20.2655 10.1664 20.1718C10.0927 20.13 10.019 20.0881 9.94529 20.0463C9.90829 20.0253 9.87129 20.0042 9.83317 19.9826C9.65403 19.8809 9.47498 19.779 9.29592 19.6772C9.22492 19.6368 9.15392 19.5964 9.08292 19.556C8.86992 19.4349 8.86992 19.4349 8.65692 19.3137C8.62175 19.2937 8.58658 19.2737 8.55035 19.2531C8.47959 19.2129 8.40883 19.1726 8.33807 19.1324C8.15694 19.0294 7.97577 18.9264 7.79455 18.8235C7.72086 18.7817 7.64718 18.7398 7.57349 18.698C7.53815 18.6779 7.50282 18.6578 7.46641 18.6372C7.3074 18.5468 7.14869 18.456 6.99094 18.3636C6.95178 18.3406 6.95178 18.3406 6.91184 18.3172C6.86424 18.2893 6.81672 18.2612 6.76929 18.2329C6.66369 18.1652 6.66369 18.1652 6.5433 18.1427C6.3216 19.0847 6.56991 20.1323 7.06761 20.9532C7.24763 21.2346 7.45691 21.4882 7.69023 21.7284C7.72381 21.7646 7.72381 21.7646 7.75807 21.8015C8.46654 22.5399 9.53721 22.9546 10.5557 22.9972C10.9415 23.007 11.312 22.9768 11.6881 22.8914C11.711 22.8862 11.7339 22.881 11.7575 22.8756C12.3324 22.739 12.8411 22.4632 13.3436 22.1639C13.5054 22.0687 13.6691 21.9765 13.8324 21.8839C13.906 21.8421 13.9796 21.8003 14.0532 21.7585C14.1278 21.7162 14.2023 21.6738 14.2768 21.6315C14.4202 21.5501 14.5636 21.4687 14.7069 21.3872C14.76 21.3571 14.76 21.3571 14.814 21.3264C15.0491 21.1926 15.2837 21.058 15.518 20.9229C15.8071 20.7562 16.0974 20.5917 16.3884 20.4282C16.6477 20.2824 16.907 20.1366 17.1646 19.9881C17.1871 19.9752 17.2096 19.9623 17.2328 19.9491C17.3156 19.9011 17.3872 19.8575 17.4555 19.7902C17.4651 19.6961 17.4651 19.6961 17.4629 19.5842C17.4629 19.5525 17.4629 19.5525 17.4629 19.5202C17.4629 19.4503 17.4624 19.3804 17.4619 19.3105C17.4617 19.262 17.4617 19.2136 17.4616 19.1652C17.4613 19.0376 17.4607 18.91 17.46 18.7825C17.4593 18.6523 17.459 18.5222 17.4587 18.3921C17.458 18.1367 17.4568 17.8813 17.4555 17.6259C17.3915 17.6259 17.3329 17.6757 17.2797 17.7066Z" fill="white"/>
</svg>
