<svg width="30" height="30" viewBox="0 0 30 30" fill="none" xmlns="http://www.w3.org/2000/svg">
<path d="M9.29082 0.000271271C9.94907 0.170063 10.0933 0.448989 10.482 0.996388C10.717 1.45662 10.717 1.45662 10.9275 1.95451C11.0483 2.23461 11.0483 2.23461 11.1716 2.52038C11.2989 2.81933 11.2989 2.81934 11.4289 3.12433C12.25 5.01539 13.1444 6.84446 14.1214 8.66184C14.2123 8.83163 14.3032 9.00142 14.3969 9.17635C14.4776 9.3248 14.5582 9.47325 14.6413 9.62619C14.819 9.99474 14.9288 10.3247 15.0098 10.7241C15.1578 10.2813 15.2208 9.95874 15.2594 9.50168C15.2717 9.36125 15.2839 9.22083 15.2965 9.07616C15.3092 8.92471 15.3219 8.77326 15.335 8.61722C15.3637 8.29434 15.3925 7.97146 15.4214 7.64859C15.4661 7.14136 15.5103 6.63411 15.5531 6.12672C15.5949 5.63581 15.6389 5.14515 15.6833 4.65447C15.7013 4.43099 15.7013 4.43099 15.7197 4.203C15.8329 2.97837 15.9795 1.64813 16.8166 0.703253C17.2738 0.475259 17.2738 0.475259 17.7092 0.453545C18.3472 0.739936 18.7485 1.04684 19.0153 1.69123C19.0104 2.54181 18.837 3.35791 18.667 4.1883C18.6226 4.42399 18.5787 4.65976 18.5352 4.89561C18.4105 5.56573 18.2778 6.23404 18.1445 6.90252C18.0602 7.34376 17.977 7.7852 17.8945 8.2268C17.8339 8.54805 17.77 8.86868 17.7058 9.18924C17.6027 9.71278 17.6027 9.71278 17.6221 10.3767C17.709 10.2585 17.7958 10.1403 17.8853 10.0184C22.0335 4.43225 22.0335 4.43225 23.5432 3.42832C23.9751 3.3944 23.9751 3.3944 24.4465 3.40661C24.6035 3.40975 24.7604 3.41288 24.9221 3.41611C25.0417 3.42014 25.1614 3.42417 25.2846 3.42832C25.4472 3.65173 25.6016 3.881 25.7527 4.11231C25.883 4.30275 25.883 4.30275 26.0159 4.49705C26.2342 5.27111 25.974 5.84634 25.6329 6.5551C25.3517 6.99314 25.0283 7.37942 24.686 7.77107C23.8819 8.73183 23.1235 9.71203 22.4003 10.735C22.3132 10.8569 22.2261 10.9788 22.1364 11.1045C22.0544 11.221 21.9725 11.3376 21.8881 11.4577C21.7808 11.6102 21.7808 11.6102 21.6713 11.7658C21.3908 12.2136 21.1623 12.6815 20.9309 13.1561C21.1928 13.1022 21.1928 13.1022 21.46 13.0472C22.1164 12.9124 22.7731 12.7791 23.4298 12.6461C23.7125 12.5887 23.995 12.5309 24.2775 12.4727C28.5084 11.6021 28.5084 11.6021 29.486 11.9727C29.8125 12.2875 29.8125 12.2875 29.9867 12.6024C29.9867 13.2297 29.8336 13.511 29.4642 14.0246C28.8473 14.2953 28.2056 14.4139 27.5465 14.5444C27.3579 14.5853 27.1692 14.6263 26.9748 14.6684C26.3723 14.7982 25.7687 14.9217 25.1649 15.0452C24.7561 15.1321 24.3474 15.2194 23.9387 15.3071C22.9371 15.5212 21.9344 15.7302 20.9309 15.9354C21.6128 16.1621 22.2737 16.1522 22.9853 16.1716C23.2955 16.1827 23.6057 16.194 23.9159 16.2055C24.4039 16.223 24.8918 16.2394 25.3799 16.2521C25.8517 16.2649 26.3232 16.283 26.7948 16.3018C26.9393 16.3044 27.0837 16.307 27.2325 16.3096C28.2433 16.3561 28.9056 16.6167 29.6384 17.3251C30.0131 17.8858 30.0216 18.0693 29.9867 18.7148C29.5065 19.1693 29.0586 19.408 28.4193 19.5833C27.4557 19.4987 26.5474 19.2666 25.6139 19.02C24.8619 18.8235 24.1057 18.645 23.3496 18.4649C22.9604 18.3719 22.5715 18.2776 22.183 18.1819C21.9161 18.1165 21.9161 18.1165 21.6438 18.0498C21.4059 17.9909 21.4059 17.9909 21.1632 17.9309C20.7407 17.8285 20.7407 17.8285 20.2343 17.8462C21.1141 18.74 21.9961 19.6166 22.95 20.4315C23.5467 20.9552 24.1268 21.496 24.7078 22.037C24.8196 22.1409 24.9314 22.2449 25.0467 22.352C25.2608 22.5518 25.4742 22.7523 25.6869 22.9537C25.874 23.1302 26.0632 23.3046 26.2548 23.4762C26.4969 23.6994 26.4969 23.6994 26.852 24.0998C26.8411 24.7512 26.8411 24.7512 26.6778 25.3158C26.5629 25.3731 26.448 25.4304 26.3295 25.4895C24.4185 24.6837 22.7937 23.0609 21.2531 21.7032C20.695 21.1972 20.695 21.1972 20.0602 20.7993C20.1542 20.9323 20.2483 21.0653 20.3452 21.2023C20.6962 21.7022 21.044 22.2042 21.3899 22.7077C21.5395 22.9242 21.6903 23.1398 21.8424 23.3546C23.5257 25.7342 23.5257 25.7342 23.369 27.2266C23.3115 27.3412 23.2541 27.4559 23.1949 27.574C22.5157 27.7998 22.1691 27.8764 21.4534 27.7477C20.8802 27.2564 20.4782 26.6327 20.0602 26.0106C19.9733 25.882 19.8865 25.7534 19.797 25.6209C18.6633 23.9313 17.5934 22.2144 16.5772 20.4519C16.497 21.1865 16.4173 21.9211 16.3377 22.6558C16.3137 22.8755 16.2897 23.0952 16.2649 23.3215C16.1532 24.3538 16.0455 25.3855 15.9609 26.4204C15.9401 26.6678 15.9401 26.6678 15.9189 26.9201C15.894 27.2255 15.8708 27.531 15.8497 27.8367C15.7847 28.6201 15.7048 29.2047 15.184 29.8322C14.5569 30.0142 14.1695 30.0941 13.5622 29.8322C13.0838 29.2666 12.8972 28.6348 12.943 27.9025C13.0097 27.4926 13.0934 27.0902 13.1847 26.6851C13.2157 26.5363 13.2467 26.3875 13.2786 26.2342C13.3777 25.7609 13.4807 25.2887 13.584 24.8163C13.6847 24.3451 13.7846 23.8738 13.8838 23.4022C13.9455 23.1098 14.0083 22.8177 14.0722 22.5258C14.27 21.6045 14.3961 20.6949 14.4874 19.757C14.4245 19.8449 14.3615 19.9328 14.2967 20.0233C9.03982 27.3593 9.03982 27.3593 7.66634 27.8949C7.34729 27.9214 7.34729 27.9214 6.95545 27.7368C6.65069 27.4003 6.65069 27.4003 6.59559 26.9124C6.66061 26.2583 6.82527 26.0041 7.22756 25.4895C7.41849 25.2416 7.41849 25.2416 7.61328 24.9887C7.75538 24.81 7.89748 24.6313 8.04389 24.4472C8.19664 24.2523 8.34924 24.0574 8.50171 23.8623C8.82299 23.4522 9.14585 23.0435 9.46973 22.6355C10.0897 21.853 10.696 21.0603 11.3024 20.2673C11.7147 19.7396 12.1397 19.2265 12.5718 18.7148C12.4658 18.7824 12.3598 18.85 12.2507 18.9197C11.1586 19.6149 10.0642 20.3062 8.96221 20.9857C8.34277 21.3685 7.73077 21.7585 7.12688 22.1652C6.94427 22.2857 6.94427 22.2857 6.75796 22.4086C6.52681 22.5614 6.29742 22.7169 6.0703 22.8755C5.2488 23.412 4.49547 23.5846 3.51601 23.4049C3.16771 23.0575 3.16771 23.0575 3.02622 22.4278C3.04814 21.9194 3.12012 21.7199 3.46703 21.3408C3.98569 20.9495 4.52437 20.6079 5.08335 20.2782C5.21692 20.1993 5.35049 20.1204 5.48811 20.0391C6.84311 19.2457 8.21516 18.483 9.59014 17.7248C9.71929 17.6532 9.84844 17.5817 9.98151 17.5079C10.2227 17.3746 10.4643 17.2421 10.7066 17.1107C11.3078 16.805 11.3078 16.805 11.701 16.2828C11.493 16.2846 11.285 16.2864 11.0707 16.2882C9.02455 16.3001 6.98666 16.2538 4.94296 16.1535C4.46443 16.1304 3.98582 16.1099 3.50717 16.0895C3.1999 16.0749 2.89265 16.0602 2.5854 16.0454C2.37291 16.0366 2.37291 16.0366 2.15613 16.0278C0.898049 15.9615 0.898049 15.9615 0.381328 15.588C0.00887128 15.0307 -0.0500927 14.8451 0.0330303 14.1983C0.727149 13.7368 1.28401 13.8438 2.082 13.8991C2.31238 13.9129 2.31238 13.9129 2.5474 13.927C3.04458 13.9574 3.5415 13.9908 4.03846 14.0246C4.36759 14.0462 4.69673 14.0677 5.02587 14.0892C6.01759 14.155 7.00897 14.2253 8.00035 14.296C8.34524 14.3204 8.69014 14.3447 9.03504 14.369C9.86568 14.4275 10.6963 14.4865 11.5269 14.5457C10.0421 13.4462 8.51616 12.4185 6.97055 11.4068C5.88189 10.6933 4.8015 9.96988 3.74934 9.20349C3.58276 9.08267 3.41617 8.96185 3.24454 8.83737C2.60065 8.27475 2.32516 7.82635 2.22078 6.97852C2.29697 6.38139 2.29697 6.38139 2.54731 5.95797C3.09945 5.62215 3.45497 5.52227 4.10036 5.55763C5.03368 5.8189 5.72887 6.5134 6.45852 7.12381C7.20285 7.73305 7.97408 8.30815 8.74048 8.88932C8.89869 9.01058 9.0569 9.13183 9.2199 9.25676C9.37059 9.37174 9.52128 9.48673 9.67653 9.6052C9.81078 9.70785 9.94502 9.81051 10.0833 9.91627C10.4937 10.2114 10.9155 10.4707 11.3527 10.7241C9.65171 7.52799 9.65171 7.52799 7.7702 4.43572C7.18514 3.51667 6.62822 2.46454 6.82484 1.34381C7.2967 0.0895716 8.02679 -0.00608858 9.29082 0.000271271Z" fill="#D97656"/>
</svg>
