<svg width="30" height="30" viewBox="0 0 30 30" fill="none" xmlns="http://www.w3.org/2000/svg">
<path d="M29.0201 9.19959L23.8291 6.18299C22.9586 5.67685 21.8653 6.30851 21.8653 7.3127V14.9413L18.1806 12.8195C16.2046 11.6817 13.7751 11.6858 11.8073 12.8276L8.13875 14.9494V7.30865C8.13875 6.30042 7.04953 5.6728 6.17492 6.17894L0.971791 9.19554C0.368471 9.54377 0 10.1916 0 10.8881V18.0591C0 18.5612 0.125523 19.039 0.356323 19.4601C0.591173 19.8933 0.9313 20.2618 1.36051 20.5372L4.03698 22.2459L6.08584 23.5497C7.31678 24.3312 8.89999 24.2705 10.0661 23.3918L10.22 23.2703C10.22 23.2703 10.2483 23.246 10.2645 23.2379L13.354 20.8813C14.257 20.1889 15.7349 20.1889 16.6419 20.8813L19.7233 23.2298C19.7233 23.2298 19.7355 23.2379 19.7395 23.242L19.9298 23.3918C21.0919 24.2705 22.6792 24.3312 23.9101 23.5497L25.959 22.2418L28.6435 20.5331C29.0647 20.2618 29.4048 19.8893 29.6396 19.4641C29.8745 19.039 30 18.5612 30 18.0591V10.8921C30 10.1957 29.6315 9.54782 29.0282 9.19959H29.0323H29.0201Z" fill="url(#paint0_linear_1357_2306)"/>
<path d="M21.9058 19.5937V22.169C21.9058 22.9626 21.3349 23.6105 20.6465 23.6105C20.3752 23.6105 20.0351 23.4728 19.7193 23.2339L16.6379 20.8854C15.7349 20.193 14.257 20.193 13.35 20.8854L10.2605 23.242C9.95279 23.4728 9.75438 23.5416 9.46284 23.5416C8.74615 23.5497 8.10638 23.0112 8.10638 22.169V19.6018L12.5199 16.7512C14.0343 15.7754 15.9698 15.7754 17.4801 16.7512L21.9018 19.537V19.5897L21.9058 19.5937Z" fill="url(#paint1_linear_1357_2306)"/>
<path d="M21.8653 14.9413L21.8774 19.6342L17.4882 16.8282C15.9778 15.8604 14.0424 15.8604 12.528 16.8282L8.12659 19.6382L8.13469 14.9494L11.8072 12.8236C13.7751 11.6817 16.2046 11.6817 18.1806 12.8155L21.8653 14.9372V14.9413Z" fill="url(#paint2_linear_1357_2306)"/>
<path d="M29.9919 10.8921V18.0591C29.9919 18.5652 29.8664 19.039 29.6315 19.4641L21.8613 14.9413V7.30865C21.8613 6.30042 22.9545 5.6728 23.8251 6.17894L29.0161 9.19959C29.6194 9.54782 29.9879 10.1957 29.9879 10.8921H29.9919Z" fill="url(#paint3_linear_1357_2306)"/>
<path d="M8.13065 7.30869V14.9494L0.356323 19.4682C0.125523 19.0431 0 18.5653 0 18.0632V10.8922C0 10.1957 0.368471 9.54786 0.971791 9.19963L6.16682 6.17898C7.03739 5.67284 8.13065 6.3045 8.13065 7.30869Z" fill="url(#paint4_linear_1357_2306)"/>
<path d="M20.5372 23.5214C21.2255 23.5214 21.8734 22.9788 21.8734 22.1933V19.618L25.9752 22.2378L23.902 23.5578C22.6711 24.3393 21.0879 24.2826 19.9217 23.3999L19.7274 23.246C20.0189 23.4444 20.2659 23.5214 20.5372 23.5214Z" fill="url(#paint5_linear_1357_2306)"/>
<path d="M29.6315 19.4682C29.3967 19.8933 29.0565 20.2659 28.6354 20.5372L25.9508 22.2459L21.8693 19.6342L21.8572 14.9413L29.6275 19.4682H29.6315Z" fill="url(#paint6_linear_1357_2306)"/>
<path d="M8.13066 22.1892C8.13066 22.9747 8.78257 23.5943 9.46687 23.5173C9.77055 23.4809 10.0095 23.4363 10.2524 23.2501L10.0661 23.3958C8.90404 24.2705 7.31678 24.3352 6.08585 23.5538L4.03699 22.2459L8.13066 19.6302V22.1852V22.1892Z" fill="url(#paint7_linear_1357_2306)"/>
<path d="M8.13065 14.9494V19.6342L4.03698 22.2459L1.36051 20.5453C0.935349 20.274 0.591173 19.9015 0.356323 19.4682L8.1266 14.9494H8.13065Z" fill="url(#paint8_linear_1357_2306)"/>
<defs>
<linearGradient id="paint0_linear_1357_2306" x1="16.1317" y1="25.6755" x2="13.7711" y2="2.51448" gradientUnits="userSpaceOnUse">
<stop stop-color="#75BE2C"/>
<stop offset="0.86" stop-color="#9DC03B"/>
</linearGradient>
<linearGradient id="paint1_linear_1357_2306" x1="15.0061" y1="16.0224" x2="15.0061" y2="23.6145" gradientUnits="userSpaceOnUse">
<stop stop-color="#238D37"/>
<stop offset="0.94" stop-color="#35537F"/>
</linearGradient>
<linearGradient id="paint2_linear_1357_2306" x1="14.2003" y1="12.0907" x2="15.3786" y2="19.8164" gradientUnits="userSpaceOnUse">
<stop stop-color="#67D84D"/>
<stop offset="1" stop-color="#348522"/>
</linearGradient>
<linearGradient id="paint3_linear_1357_2306" x1="25.9266" y1="6.00078" x2="25.9266" y2="19.4682" gradientUnits="userSpaceOnUse">
<stop stop-color="#E4D00A"/>
<stop offset="0.56" stop-color="#C4D132"/>
</linearGradient>
<linearGradient id="paint4_linear_1357_2306" x1="4.06533" y1="6.00082" x2="4.06533" y2="991.506" gradientUnits="userSpaceOnUse">
<stop stop-color="#E4D00A"/>
<stop offset="0.56" stop-color="#C4D132"/>
</linearGradient>
<linearGradient id="paint5_linear_1357_2306" x1="22.8492" y1="19.614" x2="22.8492" y2="24.1044" gradientUnits="userSpaceOnUse">
<stop stop-color="#8AB11B"/>
<stop offset="1" stop-color="#6EAF02"/>
</linearGradient>
<linearGradient id="paint6_linear_1357_2306" x1="26.1209" y1="14.1922" x2="25.1775" y2="21.7519" gradientUnits="userSpaceOnUse">
<stop stop-color="#75BE2C"/>
<stop offset="0.86" stop-color="#9DC03B"/>
</linearGradient>
<linearGradient id="paint7_linear_1357_2306" x1="7.14267" y1="19.6302" x2="7.14267" y2="24.1004" gradientUnits="userSpaceOnUse">
<stop stop-color="#8AB11B"/>
<stop offset="1" stop-color="#6EAF02"/>
</linearGradient>
<linearGradient id="paint8_linear_1357_2306" x1="4.78607" y1="14.2286" x2="3.85882" y2="23.3189" gradientUnits="userSpaceOnUse">
<stop stop-color="#75BE2C"/>
<stop offset="0.86" stop-color="#9DC03B"/>
</linearGradient>
</defs>
</svg>
