<svg width="30" height="30" viewBox="0 0 30 30" fill="none" xmlns="http://www.w3.org/2000/svg">
<path d="M13.3062 26.5666C14.3348 26.5666 15.1686 27.3352 15.1686 28.2833C15.1686 29.2314 14.3348 30 13.3062 30C12.2775 30 11.4437 29.2314 11.4437 28.2833C11.4437 27.3352 12.2775 26.5666 13.3062 26.5666ZM23.6392 23.4344L25.4797 23.9371L24.0187 28.482C23.8911 28.8791 23.4816 29.1414 23.0332 29.1133L22.582 29.0847L22.5709 29.0931L17.8822 28.7899L18.0127 27.0246L21.1628 27.2216L19.1005 24.4795L20.678 23.4714L22.7431 26.2169L23.6392 23.4344ZM3.6069 20.2925L5.52172 20.4176L5.29743 23.3207L8.26701 21.4173L9.36323 22.8698L6.38978 24.7751L9.42481 25.5994L8.88231 27.2966L3.92815 25.9513C3.49564 25.8339 3.21013 25.4547 3.24199 25.0402L3.6069 20.2925ZM15.9703 17.8204L19.4262 21.6662L17.8686 22.8553L15.8119 20.5666L15.1451 24.0855L13.1528 23.7645L13.8203 20.2401L11.0514 21.7449L10.0248 20.1387L14.6782 17.6119C15.106 17.3796 15.6535 17.468 15.9703 17.8204ZM25.6392 15.2402L27.3655 14.3745L29.8805 18.6351C30.1008 19.0083 30.01 19.4725 29.6622 19.7514L29.3063 20.0347L25.6756 22.9471L24.3859 21.5803L26.8268 19.6229L23.1911 19.0192L23.5398 17.2365L27.173 17.8399L25.6392 15.2402ZM5.28001 10.7859L6.58048 12.144L4.17308 14.1011L7.81577 14.6873L7.47814 16.4718L3.83143 15.8852L5.39782 18.4953L3.67809 19.3721L1.12284 15.1146C0.899743 14.7429 0.986911 14.2782 1.33247 13.9971L5.28001 10.7859ZM17.593 9.38467L21.0372 13.2201L19.4792 14.4087L17.423 12.119L16.7562 15.639L14.7639 15.318L15.4291 11.8072L12.6708 13.2976L11.6482 11.6893L15.885 9.39967L15.8892 9.38479L15.9079 9.38703L16.3027 9.17484C16.7304 8.94376 17.2769 9.03262 17.593 9.38467ZM22.0313 7.49839L22.7846 5.82527L27.6571 7.68901C28.0824 7.85168 28.3281 8.26473 28.2483 8.68271L28.1671 9.09846L27.3351 13.461L25.3996 13.1467L25.9573 10.2264L22.7246 11.8732L21.7747 10.2874L25.0135 8.63927L22.0313 7.49839ZM12.7492 4.20133L12.833 6.01116L9.61428 6.13796L12.0419 8.69504L10.5628 9.8879L8.13114 7.327L7.56461 10.2507L5.62999 9.93173L6.55714 5.15389C6.63817 4.73633 7.02276 4.42653 7.48256 4.40845L7.93804 4.38967L7.94825 4.38285L12.7492 4.20133ZM19.3332 0.341636L22.7619 4.20129L21.1971 5.38226L19.1621 3.0911L18.4757 6.60641L16.4852 6.27626L17.1728 2.75302L14.3944 4.25029L13.374 2.64079L18.0406 0.127371C18.47 -0.103904 19.0182 -0.0130473 19.3332 0.341636Z" fill="white"/>
</svg>
