<svg width="30" height="30" viewBox="0 0 30 30" fill="none" xmlns="http://www.w3.org/2000/svg">
<g clip-path="url(#clip0_1357_2266)">
<path d="M12.2995 4.00321C12.3639 4.00313 12.4284 4.00303 12.4928 4.00291C12.667 4.00265 12.8412 4.00258 13.0155 4.00256C13.1245 4.00254 13.2336 4.00248 13.3427 4.0024C13.7044 4.00214 14.066 4.002 14.4277 4.00203C14.4471 4.00203 14.4665 4.00203 14.4866 4.00203C14.506 4.00203 14.5255 4.00203 14.5456 4.00203C14.8606 4.00205 15.1757 4.00176 15.4907 4.00135C15.8154 4.00092 16.14 4.00072 16.4647 4.00074C16.6465 4.00075 16.8283 4.00067 17.0101 4.00035C17.1812 4.00006 17.3524 4.00007 17.5236 4.00028C17.586 4.00031 17.6484 4.00024 17.7108 4.00006C18.5039 3.99792 19.2113 4.0482 19.834 4.59891C19.8542 4.61644 19.8743 4.63398 19.8951 4.65204C20.3979 5.1214 20.5863 5.79264 20.625 6.46181C20.6334 6.75157 20.6308 7.04154 20.6295 7.33139C20.6288 7.4772 20.6288 7.62302 20.629 7.76883C20.629 7.81907 20.629 7.86931 20.6291 7.91955C20.6291 7.94468 20.6291 7.9698 20.6291 7.99568C20.6293 8.33426 20.6289 8.67284 20.6273 9.01141C20.6263 9.24115 20.6261 9.47087 20.6268 9.70061C20.6271 9.82175 20.627 9.94286 20.6259 10.064C20.6249 10.1777 20.6249 10.2913 20.6258 10.405C20.6259 10.4465 20.6256 10.488 20.6249 10.5295C20.6215 10.7409 20.6258 10.8883 20.7687 11.0509C20.8084 11.0887 20.8484 11.1262 20.8887 11.1634C21.4291 11.8532 21.6317 12.7628 21.5406 13.6251C21.4402 14.4709 21.0318 15.2734 20.3737 15.8144C20.0954 16.0309 19.786 16.1966 19.4532 16.3086C19.4435 16.7184 19.4338 17.1283 19.4239 17.5505C20.6227 17.5505 21.8215 17.5505 23.0567 17.5505C23.0556 17.2139 23.0546 16.8772 23.0536 16.5304C23.0531 16.3172 23.0527 16.104 23.0524 15.8908C23.0519 15.5524 23.0512 15.2139 23.05 14.8755C23.0492 14.629 23.0486 14.3825 23.0484 14.1361C23.0483 14.0056 23.048 13.8751 23.0474 13.7446C23.0468 13.6217 23.0466 13.4988 23.0467 13.3759C23.0467 13.3309 23.0465 13.2859 23.0462 13.2409C23.0425 12.7312 23.0425 12.7312 23.2023 12.545C23.2226 12.5288 23.2428 12.5126 23.2636 12.4959C23.2839 12.4792 23.3041 12.4625 23.325 12.4452C23.4145 12.3791 23.4673 12.3721 23.5769 12.3722C23.6063 12.3722 23.6358 12.3722 23.6661 12.3721C23.6985 12.3722 23.7308 12.3723 23.7642 12.3724C23.7982 12.3724 23.8322 12.3724 23.8673 12.3724C23.9801 12.3724 24.093 12.3727 24.2059 12.3729C24.284 12.373 24.362 12.373 24.4401 12.373C24.6249 12.3731 24.8097 12.3734 24.9945 12.3737C25.2048 12.374 25.4152 12.3742 25.6256 12.3743C26.0583 12.3746 26.4911 12.3751 26.9239 12.3758C26.9297 12.3556 26.9355 12.3353 26.9416 12.3145C26.9493 12.2879 26.9571 12.2613 26.9651 12.2339C26.9728 12.2076 26.9804 12.1813 26.9883 12.1542C27.1132 11.7596 27.4177 11.4573 27.7716 11.2641C28.1415 11.0927 28.5343 11.0823 28.9172 11.217C29.3754 11.4025 29.661 11.7372 29.8587 12.1876C30.0198 12.654 29.9844 13.1674 29.7866 13.614C29.5907 14.0105 29.2759 14.2968 28.8669 14.4538C28.482 14.5752 28.0855 14.5178 27.7254 14.3506C27.437 14.1927 27.1637 13.9289 27.041 13.6177C27.041 13.5982 27.041 13.5787 27.041 13.5586C26.0936 13.5586 25.1461 13.5586 24.1699 13.5586C24.171 13.8906 24.172 14.2227 24.173 14.5648C24.1735 14.7751 24.1739 14.9855 24.1742 15.1958C24.1748 15.5297 24.1754 15.8636 24.1766 16.1975C24.1775 16.4407 24.178 16.6839 24.1782 16.927C24.1783 17.0557 24.1786 17.1844 24.1792 17.3132C24.1798 17.4344 24.18 17.5557 24.1799 17.677C24.1799 17.7214 24.1801 17.7657 24.1804 17.8101C24.1824 18.0822 24.1833 18.3413 24.0143 18.567C23.8712 18.708 23.7467 18.7444 23.5491 18.7452C23.5286 18.7454 23.508 18.7456 23.4869 18.7458C23.4184 18.7463 23.3499 18.7463 23.2814 18.7462C23.2322 18.7465 23.183 18.7468 23.1337 18.7471C23.0002 18.7479 22.8667 18.7481 22.7331 18.7482C22.6496 18.7482 22.5661 18.7484 22.4826 18.7486C22.1911 18.7495 21.8996 18.7498 21.6081 18.7498C21.3367 18.7497 21.0653 18.7506 20.7939 18.752C20.5606 18.7532 20.3274 18.7537 20.0941 18.7536C19.9549 18.7536 19.8157 18.7538 19.6764 18.7548C19.5455 18.7556 19.4145 18.7557 19.2835 18.755C19.2356 18.7549 19.1876 18.7551 19.1397 18.7557C18.9003 18.7582 18.7026 18.7594 18.5048 18.6041C18.3369 18.4345 18.3265 18.2591 18.3266 18.0265C18.3272 17.9896 18.3278 17.9527 18.3284 17.9146C18.3287 17.857 18.3287 17.857 18.3289 17.7983C18.3294 17.697 18.3305 17.5957 18.3318 17.4944C18.333 17.3907 18.3336 17.287 18.3341 17.1833C18.3353 16.9804 18.3376 16.7776 18.3399 16.5747C18.0595 16.5747 17.7791 16.5747 17.4903 16.5747C17.4903 17.6676 17.4903 18.7605 17.4903 19.8865C17.735 19.8855 17.9797 19.8845 18.2318 19.8834C18.4067 19.8829 18.5816 19.8825 18.7565 19.8821C18.9829 19.8816 19.2094 19.881 19.4358 19.8799C19.6343 19.8789 19.8328 19.8784 20.0313 19.8781C20.107 19.878 20.1827 19.8776 20.2584 19.8772C20.3645 19.8765 20.4706 19.8764 20.5767 19.8765C20.6079 19.8762 20.6391 19.8758 20.6713 19.8755C20.8877 19.8764 21.0443 19.9108 21.2329 20.0233C21.4455 20.2498 21.4304 20.5216 21.4249 20.815C21.4236 20.8917 21.4231 20.9684 21.423 21.0451C21.4223 21.2631 21.4206 21.481 21.4172 21.6989C21.4151 21.8326 21.4145 21.9663 21.4147 22.1001C21.4145 22.1509 21.4138 22.2017 21.4125 22.2524C21.3951 22.5287 21.3951 22.5287 21.509 22.7645C21.5841 22.8102 21.6564 22.8418 21.7383 22.8731C22.0746 23.0965 22.2706 23.5065 22.3714 23.8867C22.4438 24.3959 22.3688 24.8639 22.0899 25.2978C21.8377 25.6291 21.5331 25.8578 21.1231 25.9484C20.663 25.9937 20.277 25.9228 19.9061 25.6275C19.5261 25.2927 19.343 24.8724 19.2975 24.3685C19.2805 23.8962 19.4209 23.4592 19.7278 23.1004C19.888 22.9292 20.0575 22.7891 20.2735 22.6957C20.2928 22.6957 20.3121 22.6957 20.3321 22.6957C20.3321 22.1687 20.3321 21.6418 20.3321 21.0989C20.0831 21.1003 19.8342 21.1017 19.5777 21.1031C19.3998 21.1037 19.2219 21.1044 19.044 21.1049C18.8136 21.1055 18.5833 21.1063 18.3529 21.1078C18.1705 21.109 17.9881 21.1098 17.8057 21.11C17.7092 21.1102 17.6127 21.1106 17.5162 21.1114C17.4082 21.1123 17.3003 21.1124 17.1924 21.1123C17.1606 21.1128 17.1289 21.1132 17.0961 21.1136C16.8896 21.1125 16.7238 21.0834 16.5668 20.9399C16.4367 20.7947 16.3989 20.6422 16.3992 20.4507C16.3991 20.3992 16.3991 20.3992 16.399 20.3466C16.3992 20.3094 16.3994 20.2721 16.3996 20.2338C16.3996 20.1938 16.3996 20.1539 16.3996 20.114C16.3996 20.0059 16.3999 19.8978 16.4003 19.7898C16.4007 19.6767 16.4007 19.5636 16.4008 19.4506C16.401 19.2366 16.4015 19.0227 16.4021 18.8087C16.4027 18.5651 16.403 18.3215 16.4033 18.0778C16.4039 17.5768 16.405 17.0757 16.4063 16.5747C16.1162 16.5747 15.8262 16.5747 15.5274 16.5747C15.5244 17.3697 15.523 18.1647 15.5236 18.9597C15.5239 19.3289 15.5236 19.698 15.522 20.0671C15.5207 20.3888 15.5203 20.7105 15.5212 21.0322C15.5217 21.2026 15.5216 21.373 15.5203 21.5433C15.519 21.7037 15.5192 21.864 15.5204 22.0243C15.5206 22.0832 15.5203 22.1421 15.5195 22.2009C15.5024 22.5056 15.5023 22.5056 15.6215 22.7688C15.6967 22.8149 15.7665 22.8448 15.8496 22.8731C16.2112 23.1367 16.4317 23.5534 16.5052 23.9931C16.5684 24.5507 16.4181 24.998 16.106 25.4531C15.7887 25.7734 15.4266 25.9542 14.9799 25.9558C14.5865 25.9552 14.2312 25.8327 13.9361 25.5584C13.5871 25.1792 13.4039 24.7144 13.4166 24.1974C13.4425 23.7099 13.6459 23.2627 14.0039 22.9322C14.1253 22.8433 14.2506 22.7634 14.3848 22.6957C14.3945 20.6758 14.4041 18.6558 14.4141 16.5747C14.124 16.5747 13.834 16.5747 13.5352 16.5747C13.5356 16.6962 13.5361 16.8177 13.5366 16.9428C13.538 17.3442 13.539 17.7456 13.5397 18.147C13.5402 18.3904 13.5408 18.6338 13.5418 18.8771C13.5427 19.0893 13.5433 19.3015 13.5435 19.5137C13.5436 19.626 13.5438 19.7382 13.5445 19.8505C13.5451 19.9564 13.5453 20.0622 13.5451 20.168C13.5452 20.2251 13.5456 20.2822 13.5461 20.3393C13.5454 20.5545 13.5405 20.7493 13.398 20.9222C13.3725 20.942 13.3725 20.942 13.3466 20.9621C13.3297 20.9758 13.3128 20.9894 13.2954 21.0035C13.1869 21.0774 13.1095 21.1063 12.9775 21.106C12.9477 21.1061 12.918 21.1062 12.8873 21.1063C12.8549 21.1061 12.8224 21.1058 12.789 21.1056C12.7547 21.1056 12.7204 21.1056 12.685 21.1056C12.5715 21.1056 12.458 21.1051 12.3445 21.1047C12.2659 21.1045 12.1872 21.1045 12.1086 21.1044C11.9226 21.1042 11.7367 21.1038 11.5508 21.1032C11.3183 21.1024 11.0858 21.1021 10.8534 21.1018C10.4387 21.1012 10.0241 21.1 9.6094 21.0989C9.6094 21.6258 9.6094 22.1528 9.6094 22.6957C9.66741 22.7152 9.72542 22.7347 9.78518 22.7548C10.173 22.966 10.4428 23.3212 10.5744 23.7436C10.6942 24.2227 10.653 24.7334 10.4141 25.1707C10.1662 25.5627 9.82883 25.8406 9.37502 25.9484C8.93345 25.9942 8.53578 25.9246 8.17385 25.6527C7.85161 25.3737 7.6217 25.0183 7.55862 24.5882C7.52086 24.0085 7.60454 23.5339 7.97793 23.0709C8.12387 22.9112 8.30373 22.7909 8.49612 22.6957C8.49618 22.6528 8.49618 22.6528 8.49625 22.609C8.49674 22.3384 8.49799 22.0678 8.49999 21.7973C8.50099 21.6582 8.50173 21.5191 8.50185 21.38C8.50197 21.2456 8.50281 21.1112 8.50413 20.9768C8.50451 20.9257 8.50464 20.8746 8.5045 20.8235C8.50386 20.5053 8.51277 20.233 8.74148 19.99C8.94141 19.8747 9.13675 19.8783 9.3614 19.8798C9.39486 19.8798 9.42832 19.8798 9.4628 19.8798C9.57297 19.8798 9.68314 19.8803 9.79331 19.8808C9.86986 19.8809 9.94642 19.881 10.023 19.881C10.2036 19.8812 10.3842 19.8817 10.5649 19.8823C10.7908 19.883 11.0168 19.8833 11.2428 19.8837C11.6456 19.8842 12.0484 19.8854 12.4512 19.8865C12.4512 18.7936 12.4512 17.7007 12.4512 16.5747C12.1708 16.5747 11.8905 16.5747 11.6016 16.5747C11.6029 16.6979 11.6043 16.8211 11.6057 16.948C11.6065 17.0468 11.6071 17.1455 11.6077 17.2443C11.6083 17.3482 11.6091 17.4522 11.6104 17.5561C11.612 17.6756 11.6125 17.7951 11.613 17.9146C11.6136 17.9515 11.6142 17.9885 11.6149 18.0265C11.6149 18.2374 11.5988 18.3775 11.4844 18.5559C11.3344 18.6997 11.2227 18.7407 11.0169 18.7414C10.9964 18.7416 10.9759 18.7417 10.9548 18.7419C10.886 18.7423 10.8173 18.7424 10.7486 18.7424C10.6993 18.7426 10.65 18.7429 10.6007 18.7431C10.4668 18.7438 10.3329 18.744 10.199 18.7442C10.1153 18.7443 10.0317 18.7445 9.94797 18.7447C9.65593 18.7454 9.36389 18.7458 9.07184 18.7459C8.79978 18.746 8.52773 18.7469 8.25567 18.7481C8.02199 18.7492 7.78831 18.7496 7.55463 18.7496C7.41511 18.7497 7.2756 18.7499 7.13608 18.7508C7.00478 18.7515 6.8735 18.7516 6.74219 18.7511C6.6941 18.7511 6.64601 18.7513 6.59793 18.7517C6.12573 18.7561 6.12573 18.7561 5.94729 18.5855C5.89339 18.5245 5.89339 18.5245 5.86123 18.4672C5.85009 18.4483 5.83895 18.4294 5.82747 18.4099C5.77012 18.2787 5.76787 18.1488 5.76799 18.007C5.76795 17.9784 5.76795 17.9784 5.76791 17.9492C5.76786 17.8855 5.76802 17.8218 5.76818 17.7581C5.76819 17.7123 5.76819 17.6666 5.76817 17.6208C5.76816 17.4968 5.76833 17.3727 5.76854 17.2486C5.76872 17.1189 5.76874 16.9892 5.76877 16.8595C5.76886 16.6139 5.7691 16.3683 5.7694 16.1227C5.76979 15.7908 5.76995 15.4589 5.77012 15.1271C5.77039 14.6042 5.77098 14.0814 5.77151 13.5586C4.82405 13.5586 3.87659 13.5586 2.90041 13.5586C2.88108 13.6171 2.86174 13.6757 2.84182 13.736C2.78163 13.8316 2.70961 13.9162 2.63674 14.0021C2.61142 14.033 2.61142 14.033 2.58559 14.0645C2.35122 14.327 1.99951 14.4881 1.65289 14.5121C1.21606 14.5305 0.859773 14.4096 0.521074 14.125C0.234495 13.8541 0.0242932 13.4741 -0.00516146 13.0742C-0.0198284 12.4792 0.0638603 12.0052 0.48594 11.5564C0.812703 11.2437 1.17766 11.1233 1.62211 11.1275C2.06462 11.1539 2.40305 11.3786 2.69557 11.7015C2.85856 11.9001 2.97019 12.122 3.0176 12.3758C3.03526 12.3757 3.05291 12.3756 3.0711 12.3755C3.50097 12.3736 3.93084 12.3721 4.36072 12.3712C4.5686 12.3707 4.77649 12.3701 4.98437 12.3691C5.18497 12.3681 5.38556 12.3676 5.58616 12.3674C5.66271 12.3672 5.73927 12.3669 5.81582 12.3664C5.923 12.3658 6.03016 12.3657 6.13733 12.3657C6.16903 12.3654 6.20072 12.3651 6.23338 12.3648C6.42171 12.3655 6.55727 12.3815 6.70397 12.5122C6.71772 12.5288 6.73147 12.5454 6.74563 12.5624C6.75968 12.5788 6.77373 12.5952 6.7882 12.612C6.87648 12.7502 6.89209 12.8873 6.89184 13.0487C6.89189 13.0681 6.89194 13.0874 6.89199 13.1074C6.89208 13.1718 6.89176 13.2362 6.89144 13.3006C6.89143 13.347 6.89144 13.3933 6.89147 13.4397C6.89148 13.5652 6.89114 13.6908 6.89073 13.8163C6.89036 13.9476 6.89033 14.0789 6.89026 14.2102C6.89008 14.4587 6.8896 14.7072 6.88901 14.9557C6.88823 15.2916 6.88792 15.6275 6.88757 15.9634C6.88702 16.4924 6.88586 17.0215 6.88479 17.5505C8.08362 17.5505 9.28245 17.5505 10.5176 17.5505C10.5079 17.1407 10.4983 16.7308 10.4883 16.3086C10.3336 16.2403 10.1789 16.172 10.0196 16.1016C9.27214 15.6893 8.77153 15.0202 8.5126 14.2091C8.49654 14.1502 8.48121 14.0911 8.46682 14.0317C8.46063 14.0073 8.45443 13.9829 8.44805 13.9578C8.26287 13.1033 8.42067 12.1479 8.88487 11.4098C9.04428 11.1676 9.04428 11.1676 9.13282 11.0884C9.25899 10.969 9.30161 10.8776 9.31251 10.7027C9.31345 10.6245 9.31329 10.5467 9.31217 10.4685C9.31231 10.4253 9.31254 10.3821 9.31285 10.3389C9.31344 10.222 9.31278 10.1051 9.31191 9.98824C9.31123 9.8653 9.31177 9.74238 9.31218 9.61944C9.31279 9.3863 9.31242 9.15317 9.31164 8.92002C9.31029 8.50374 9.31075 8.08745 9.31138 7.67116C9.31156 7.52545 9.31136 7.37974 9.31081 7.23403C9.31052 7.14264 9.31046 7.05125 9.31044 6.95986C9.31038 6.91806 9.31022 6.87626 9.30994 6.83447C9.30495 6.06038 9.43198 5.3365 9.96096 4.74676C9.98143 4.7237 10.0019 4.70064 10.023 4.67688C10.64 4.0176 11.462 4.00298 12.2995 4.00321ZM9.97813 11.8364C9.59497 12.3317 9.43238 12.8761 9.49221 13.4994C9.56254 14.0185 9.81503 14.5051 10.2175 14.8403C10.6512 15.1636 11.1113 15.2765 11.6404 15.2005C12.1205 15.0947 12.532 14.7982 12.8028 14.3865C13.1218 13.8487 13.2158 13.2582 13.0657 12.6478C12.9647 12.286 12.7763 11.9866 12.5098 11.7253C12.4919 11.7065 12.4739 11.6878 12.4554 11.6685C12.153 11.3737 11.7284 11.2277 11.3141 11.2096C10.8023 11.2253 10.3165 11.4462 9.97813 11.8364ZM17.3731 11.7844C17.3547 11.8022 17.3364 11.8201 17.3175 11.8384C16.9496 12.2248 16.7967 12.7618 16.8046 13.2873C16.8232 13.7536 16.972 14.1675 17.2559 14.5344C17.2708 14.5547 17.2858 14.575 17.3012 14.596C17.5647 14.9297 17.9805 15.1612 18.3985 15.2145C18.9505 15.2493 19.396 15.1205 19.8249 14.7543C20.1889 14.4044 20.4345 13.9001 20.4591 13.3903C20.4704 12.7754 20.3246 12.2482 19.9122 11.7753C19.5703 11.4271 19.1241 11.2296 18.6383 11.2096C18.1333 11.2251 17.7275 11.4279 17.3731 11.7844ZM0.849634 12.2575C0.68605 12.5052 0.682435 12.768 0.703149 13.0559C0.762459 13.3054 0.93817 13.5077 1.1481 13.6454C1.3132 13.7456 1.48078 13.7555 1.66995 13.736C1.90287 13.6749 2.08593 13.5666 2.21858 13.3625C2.36163 13.1004 2.40914 12.8558 2.34194 12.5624C2.25214 12.2804 2.10422 12.1012 1.84573 11.9618C1.46228 11.7844 1.11164 11.9636 0.849634 12.2575ZM27.8028 12.1688C27.6351 12.4043 27.5345 12.6417 27.5684 12.9376C27.6249 13.2335 27.7613 13.4721 28.01 13.6428C28.2045 13.7603 28.4238 13.769 28.6422 13.7178C28.878 13.6349 29.0481 13.4788 29.1632 13.2555C29.275 13.0107 29.2835 12.7062 29.1925 12.4534C29.0794 12.208 28.8952 12.0208 28.6432 11.9248C28.3247 11.8595 28.0339 11.9249 27.8028 12.1688ZM8.43752 23.6715C8.26753 23.953 8.2211 24.2188 8.27422 24.5469C8.34084 24.78 8.48493 24.9713 8.69387 25.0908C8.90734 25.1993 9.13691 25.223 9.36907 25.1559C9.59083 25.0547 9.75779 24.8976 9.85499 24.6712C9.95122 24.3781 9.9647 24.1371 9.84377 23.8489C9.71897 23.6336 9.55248 23.4569 9.3146 23.3795C8.98197 23.2953 8.65956 23.4022 8.43752 23.6715ZM14.2835 23.7267C14.1415 23.9248 14.1009 24.1706 14.1329 24.4104C14.1952 24.7033 14.3183 24.9102 14.5598 25.0852C14.7501 25.1981 14.93 25.2003 15.1465 25.1796C15.3815 25.1169 15.5702 24.9692 15.6977 24.7619C15.8301 24.4981 15.8489 24.2185 15.7617 23.9376C15.6712 23.7032 15.5057 23.5047 15.2756 23.4005C14.8781 23.2712 14.547 23.4086 14.2835 23.7267ZM20.2501 23.6259C20.0742 23.8308 19.997 24.065 20.0019 24.3342C20.0313 24.6192 20.1453 24.8465 20.3614 25.0317C20.5697 25.1848 20.782 25.2187 21.0352 25.1796C21.2139 25.1195 21.3521 25.0294 21.4746 24.8839C21.5055 24.8509 21.5055 24.8509 21.5369 24.8173C21.6879 24.5937 21.7073 24.3505 21.6797 24.0855C21.624 23.8288 21.507 23.6254 21.2894 23.4773C20.9085 23.2655 20.56 23.3244 20.2501 23.6259Z" fill="#118686"/>
<path d="M19.114 12.3297C19.3633 12.5119 19.5156 12.7496 19.5703 13.0559C19.6019 13.3654 19.5353 13.6302 19.3551 13.8828C19.1885 14.0895 18.9868 14.2154 18.7219 14.25C18.4458 14.2607 18.2369 14.1891 18.0231 14.0132C17.8058 13.8044 17.7023 13.5318 17.6923 13.2324C17.7019 12.9191 17.8201 12.6236 18.0469 12.4054C18.3814 12.1775 18.7569 12.1155 19.114 12.3297Z" fill="#118686"/>
<path d="M11.8744 12.3943C12.1014 12.5821 12.2085 12.8566 12.2461 13.1446C12.2554 13.4554 12.1653 13.7045 11.9757 13.9473C11.7923 14.1413 11.5791 14.2389 11.3159 14.2498C11.0502 14.2441 10.849 14.1541 10.6568 13.9699C10.4439 13.7354 10.3523 13.453 10.3629 13.1365C10.393 12.8419 10.5185 12.5941 10.7355 12.3943C11.0845 12.1135 11.5163 12.151 11.8744 12.3943Z" fill="#118686"/>
</g>
<defs>
<clipPath id="clip0_1357_2266">
<rect width="30" height="30" fill="white"/>
</clipPath>
</defs>
</svg>
