<svg width="30" height="30" viewBox="0 0 30 30" fill="none" xmlns="http://www.w3.org/2000/svg">
<path d="M7.6235 7.39688C3.41988 7.39688 0 10.8078 0 15C0 19.1923 3.42 22.6031 7.6235 22.6031H22.3765C26.5801 22.6031 30 19.1923 30 15C30 10.8078 26.58 7.39688 22.3765 7.39688H7.6235ZM7.47175 9.81376C8.088 9.82926 8.74675 10.1258 9.063 10.5923C9.52213 11.1663 9.66025 11.9258 10.181 12.4588C10.8815 13.2235 11.6797 13.8969 12.3261 14.7113C12.9376 15.4555 13.3744 16.3284 13.7556 17.2081C13.9111 17.5 13.9127 17.8584 14.1431 18.1078C14.2566 18.2583 14.8114 18.6681 14.691 18.8134C14.7604 18.9639 15.2787 19.1709 15.0989 19.3168C14.8559 19.3668 14.5827 19.3763 14.3969 19.1825C14.3282 19.34 14.1681 19.257 14.0445 19.2365C14.0338 19.2671 14.0234 19.2977 14.0132 19.3285C13.6022 19.3559 13.294 18.9378 13.0982 18.6223C12.7094 18.4123 12.268 18.2845 11.8708 18.0648C11.848 18.4266 11.9273 18.8754 11.582 19.1089C11.5645 19.8045 12.6365 19.1909 12.7348 19.7094C12.6585 19.7178 12.574 19.6975 12.513 19.756C12.2331 20.0275 11.9124 19.5504 11.5899 19.7473C11.1569 19.9648 11.1139 20.1424 10.5779 20.1873C10.5483 20.1424 10.56 20.1133 10.5852 20.0859C10.7361 19.911 10.7471 19.7051 11.0047 19.6305C10.7395 19.5888 10.5174 19.7346 10.294 19.8501C10.0036 19.9689 10.006 19.5825 9.55925 19.8706C9.50975 19.8304 9.53325 19.7938 9.5615 19.7626C9.675 19.6243 9.82425 19.6039 9.99275 19.6116C9.164 19.1509 8.77388 20.175 8.39113 19.6656C8.27613 19.696 8.233 19.7991 8.1605 19.8721C8.098 19.8036 8.14512 19.7206 8.14812 19.64C8.07337 19.605 7.97862 19.5888 8.00075 19.4693C7.85437 19.4199 7.75225 19.5061 7.64325 19.5883C7.54488 19.5123 7.70975 19.4018 7.74025 19.3226C7.828 19.1706 8.02775 19.2914 8.12913 19.1819C8.41738 19.0184 8.81912 19.2836 9.1485 19.2388C9.40225 19.2706 9.7165 19.0106 9.58925 18.7513C9.31788 18.4054 9.3655 17.953 9.35938 17.5394C9.32588 17.2983 8.74562 16.9916 8.57787 16.7316C8.3705 16.4975 8.20913 16.2258 8.0475 15.9589C7.46425 14.8329 7.64775 13.3859 6.91288 12.3405C6.58038 12.5238 6.14725 12.4373 5.86062 12.1918C5.70587 12.3324 5.69912 12.5165 5.68687 12.7119C5.31562 12.3416 5.36275 11.642 5.65938 11.23C5.7805 11.0673 5.92525 10.9334 6.08688 10.8155C6.12338 10.7889 6.13575 10.7631 6.135 10.7221C6.28175 10.0638 6.8555 9.79826 7.47175 9.81376ZM22.9806 10.3888C23.6775 10.3888 24.3314 10.6586 24.8231 11.149C25.3149 11.6394 25.5856 12.2921 25.5856 12.987C25.5856 13.682 25.3147 14.3345 24.8231 14.8243L23.6956 15.9494C23.3955 16.2491 23.0265 16.4708 22.621 16.5951L22.6005 16.601L22.5933 16.6215C22.4635 16.9649 22.2614 17.2765 22.0007 17.535L20.8735 18.6594C20.3817 19.1499 19.7273 19.4198 19.0304 19.4198C18.3335 19.4198 17.6796 19.1498 17.1879 18.6594C16.1716 17.646 16.1716 15.9976 17.1879 14.9841L18.3152 13.8598C18.6144 13.5604 18.9828 13.3396 19.3877 13.2169L19.409 13.2103L19.4162 13.1905C19.5467 12.846 19.7492 12.5333 20.0102 12.2734L21.1375 11.149C21.6292 10.6585 22.2839 10.3888 22.9806 10.3888ZM22.9806 11.5094C22.7859 11.5088 22.5931 11.5467 22.4131 11.6209C22.2332 11.6952 22.0697 11.8044 21.9321 11.9421L20.8049 13.0665C20.6543 13.217 20.5381 13.3983 20.4641 13.5979C20.3902 13.7975 20.3603 14.0107 20.3765 14.223L20.3831 14.2945C20.4235 14.626 20.5694 14.925 20.8049 15.1591C20.9674 15.3211 21.1465 15.4234 21.3637 15.4949C21.3754 15.5602 21.3813 15.6263 21.3812 15.6926C21.3818 15.839 21.3533 15.9841 21.2973 16.1194C21.2413 16.2546 21.159 16.3774 21.0551 16.4806L20.9859 16.5499C20.6093 16.4214 20.2953 16.2336 20.0116 15.9509C19.6366 15.5786 19.3852 15.0999 19.2915 14.5799L19.2791 14.5076L19.2215 14.5536C19.1832 14.5847 19.1467 14.6179 19.112 14.6529L17.984 15.7773C17.4061 16.3535 17.4061 17.2923 17.984 17.8685C18.2729 18.1566 18.6527 18.301 19.0332 18.3011C19.4136 18.3011 19.7929 18.1566 20.0817 17.8684L21.2091 16.744C21.787 16.1678 21.787 15.2299 21.2091 14.6528C21.055 14.499 20.8685 14.3816 20.6632 14.3091C20.652 14.2426 20.6461 14.1752 20.6457 14.1078C20.6457 13.7839 20.7736 13.4765 21.0084 13.2424C21.3857 13.3709 21.7209 13.5791 22.0036 13.8611C22.3795 14.236 22.6279 14.7099 22.7231 15.2321L22.7362 15.3044L22.7931 15.2578C22.8318 15.2267 22.8689 15.1936 22.904 15.1585L24.0315 14.034C24.6093 13.4578 24.61 12.5185 24.0315 11.9421C23.8938 11.8043 23.7302 11.695 23.5501 11.6208C23.37 11.5465 23.177 11.5086 22.9821 11.5094H22.9806ZM10.5144 17.9553C10.4152 18.34 10.3826 18.9958 9.88113 19.0148C9.83988 19.2368 10.0346 19.3204 10.213 19.249C10.3892 19.1684 10.4731 19.3125 10.5326 19.4561C10.8047 19.4958 11.2069 19.3655 11.2221 19.0439C10.8159 18.8105 10.6905 18.3666 10.5144 17.9553Z" fill="#F5F5F5"/>
</svg>
