<svg width="30" height="30" viewBox="0 0 30 30" fill="none" xmlns="http://www.w3.org/2000/svg">
<path d="M19.9514 9.61963L22.5591 7.02705L22.7329 5.9354C17.9809 1.63952 10.4268 2.12663 6.14305 6.95179C4.95312 8.29195 4.07035 9.96274 3.59961 11.6881L4.53359 11.5572L9.74902 10.7022L10.1517 10.2928C12.4716 7.75975 16.3943 7.41897 19.0729 9.5742L19.9514 9.61963Z" fill="#EA4335"/>
<path d="M26.274 11.6118C25.6746 9.41735 24.444 7.44457 22.733 5.93549L19.073 9.57417C20.6184 10.8296 21.4989 12.721 21.4611 14.7047V15.3506C23.2601 15.3506 24.7186 16.8005 24.7186 18.589C24.7186 20.3775 23.2601 21.7911 21.4611 21.7911H14.9372L14.2966 22.4824V26.3667L14.9372 26.9761H21.4611C26.1404 27.0124 29.9633 23.3069 29.9998 18.6549C30.0218 15.8351 28.6234 13.1916 26.274 11.6118Z" fill="#4285F4"/>
<path d="M8.42232 26.9762H14.9371V21.791H8.42232C7.95814 21.7909 7.50861 21.6918 7.0865 21.5L6.16224 21.7819L3.53618 24.3745L3.30743 25.2569C4.78013 26.3624 6.57697 26.9841 8.42232 26.9762Z" fill="#34A853"/>
<path d="M8.4223 10.1564C3.74289 10.1841 -0.0277369 13.978 0.000153734 18.63C0.0157397 21.2278 1.23613 23.6733 3.30742 25.2569L7.08648 21.5C5.44691 20.7635 4.71836 18.8453 5.4591 17.2154C6.19972 15.5855 8.12933 14.8612 9.76867 15.5975C10.4911 15.922 11.0697 16.4973 11.3961 17.2154L15.1751 13.4585C13.5672 11.3687 11.0687 10.1469 8.4223 10.1564Z" fill="#FBBC05"/>
</svg>
