<svg width="30" height="30" viewBox="0 0 30 30" fill="none" xmlns="http://www.w3.org/2000/svg">
<path d="M8.45428 12.5154C8.45428 12.8846 8.49419 13.1839 8.56404 13.4034C8.64386 13.623 8.74364 13.8624 8.88332 14.1218C8.93321 14.2017 8.95317 14.2815 8.95317 14.3513C8.95317 14.4511 8.8933 14.5509 8.76359 14.6507L8.135 15.0697C8.0452 15.1296 7.9554 15.1595 7.87558 15.1595C7.7758 15.1595 7.67602 15.1096 7.57625 15.0198C7.43656 14.8702 7.31683 14.7105 7.21705 14.5509C7.11727 14.3813 7.0175 14.1917 6.90774 13.9622C6.12948 14.8801 5.15167 15.3391 3.9743 15.3391C3.13618 15.3391 2.46767 15.0996 1.97877 14.6207C1.48986 14.1418 1.24042 13.5032 1.24042 12.705C1.24042 11.8569 1.53975 11.1684 2.14839 10.6496C2.75703 10.1308 3.56522 9.87134 4.59292 9.87134C4.93216 9.87134 5.28138 9.90128 5.65055 9.95116C6.01973 10.0011 6.39888 10.0809 6.79799 10.1707V9.4423C6.79799 8.684 6.63834 8.15518 6.32904 7.84587C6.00975 7.53656 5.47096 7.3869 4.70267 7.3869C4.35345 7.3869 3.99426 7.42681 3.62508 7.51661C3.25591 7.60641 2.89671 7.71616 2.54749 7.85585C2.38785 7.92569 2.26812 7.9656 2.19828 7.98556C2.12843 8.00551 2.07854 8.01549 2.03863 8.01549C1.89894 8.01549 1.8291 7.91572 1.8291 7.70618V7.21728C1.8291 7.05763 1.84906 6.9379 1.89894 6.86806C1.94883 6.79821 2.03863 6.72837 2.17832 6.65853C2.52754 6.47893 2.9466 6.32926 3.43551 6.20953C3.92441 6.07982 4.44325 6.01996 4.99203 6.01996C6.17937 6.01996 7.04743 6.28935 7.60618 6.82815C8.15495 7.36694 8.43433 8.18511 8.43433 9.28266V12.5154H8.45428ZM4.40334 14.032C4.73261 14.032 5.07185 13.9722 5.43104 13.8524C5.79024 13.7327 6.10953 13.5132 6.37892 13.2139C6.53857 13.0243 6.6583 12.8148 6.71817 12.5753C6.77803 12.3358 6.81794 12.0465 6.81794 11.7072V11.2882C6.52859 11.2183 6.21928 11.1585 5.9 11.1186C5.58071 11.0786 5.2714 11.0587 4.96209 11.0587C4.29359 11.0587 3.80468 11.1884 3.47542 11.4578C3.14616 11.7272 2.98651 12.1063 2.98651 12.6052C2.98651 13.0742 3.10624 13.4234 3.35569 13.6629C3.59515 13.9123 3.94437 14.032 4.40334 14.032ZM12.4154 15.1096C12.2358 15.1096 12.1161 15.0797 12.0363 15.0098C11.9565 14.95 11.8866 14.8103 11.8267 14.6207L9.48198 6.90797C9.42212 6.70842 9.39219 6.57871 9.39219 6.50886C9.39219 6.34922 9.47201 6.25942 9.63165 6.25942H10.6095C10.799 6.25942 10.9287 6.28935 10.9986 6.3592C11.0784 6.41906 11.1383 6.55875 11.1981 6.74833L12.8744 13.3536L14.4309 6.74833C14.4808 6.54877 14.5407 6.41906 14.6205 6.3592C14.7003 6.29933 14.84 6.25942 15.0196 6.25942H15.8178C16.0074 6.25942 16.1371 6.28935 16.2169 6.3592C16.2967 6.41906 16.3666 6.55875 16.4065 6.74833L17.983 13.4334L19.7091 6.74833C19.769 6.54877 19.8388 6.41906 19.9087 6.3592C19.9885 6.29933 20.1182 6.25942 20.2978 6.25942H21.2257C21.3854 6.25942 21.4752 6.33924 21.4752 6.50886C21.4752 6.55875 21.4652 6.60864 21.4552 6.6685C21.4452 6.72837 21.4253 6.80819 21.3854 6.91795L18.9807 14.6307C18.9209 14.8303 18.851 14.96 18.7712 15.0198C18.6914 15.0797 18.5617 15.1196 18.3921 15.1196H17.534C17.3444 15.1196 17.2147 15.0897 17.1349 15.0198C17.055 14.95 16.9852 14.8203 16.9453 14.6207L15.3988 8.18511L13.8622 14.6107C13.8123 14.8103 13.7524 14.94 13.6726 15.0098C13.5928 15.0797 13.4531 15.1096 13.2735 15.1096H12.4154ZM25.2367 15.379C24.7179 15.379 24.1991 15.3192 23.7002 15.1994C23.2013 15.0797 22.8122 14.95 22.5527 14.8003C22.3931 14.7105 22.2834 14.6107 22.2434 14.5209C22.2035 14.4311 22.1836 14.3314 22.1836 14.2416V13.7327C22.1836 13.5232 22.2634 13.4234 22.4131 13.4234C22.4729 13.4234 22.5328 13.4334 22.5927 13.4533C22.6525 13.4733 22.7423 13.5132 22.8421 13.5531C23.1813 13.7028 23.5505 13.8225 23.9396 13.9023C24.3388 13.9821 24.7279 14.0221 25.127 14.0221C25.7556 14.0221 26.2445 13.9123 26.5837 13.6928C26.923 13.4733 27.1026 13.154 27.1026 12.7449C27.1026 12.4655 27.0128 12.2361 26.8332 12.0465C26.6536 11.8569 26.3143 11.6873 25.8254 11.5276L24.3787 11.0786C23.6503 10.8492 23.1115 10.5099 22.7822 10.0609C22.453 9.6219 22.2834 9.13299 22.2834 8.61415C22.2834 8.19509 22.3732 7.82592 22.5527 7.50663C22.7323 7.18734 22.9718 6.90797 23.2711 6.68846C23.5705 6.45897 23.9097 6.28935 24.3088 6.16962C24.7079 6.04989 25.127 6 25.566 6C25.7855 6 26.015 6.00998 26.2345 6.03991C26.464 6.06984 26.6735 6.10975 26.8831 6.14967C27.0826 6.19955 27.2722 6.24944 27.4518 6.30931C27.6314 6.36917 27.7711 6.42904 27.8709 6.48891C28.0105 6.56873 28.1103 6.64855 28.1702 6.73835C28.2301 6.81817 28.26 6.92792 28.26 7.06761V7.53656C28.26 7.74609 28.1802 7.85585 28.0305 7.85585C27.9507 7.85585 27.821 7.81594 27.6513 7.73612C27.0826 7.4767 26.444 7.34699 25.7356 7.34699C25.1669 7.34699 24.7179 7.43679 24.4086 7.62636C24.0993 7.81594 23.9396 8.10529 23.9396 8.51438C23.9396 8.79375 24.0394 9.03322 24.239 9.22279C24.4385 9.41237 24.8077 9.60194 25.3365 9.77157L26.7534 10.2206C27.4717 10.45 27.9906 10.7693 28.2999 11.1784C28.6092 11.5875 28.7589 12.0565 28.7589 12.5753C28.7589 13.0043 28.6691 13.3935 28.4994 13.7327C28.3199 14.0719 28.0804 14.3713 27.7711 14.6107C27.4618 14.8602 27.0926 15.0398 26.6636 15.1695C26.2146 15.3092 25.7456 15.379 25.2367 15.379Z" fill="#FEFEFE"/>
<path fill-rule="evenodd" clip-rule="evenodd" d="M27.1225 20.2282C23.8399 22.6528 19.0705 23.9399 14.9697 23.9399C9.22257 23.9399 4.04416 21.8146 0.132904 18.2825C-0.176404 18.0032 0.102971 17.624 0.472146 17.8435C4.70268 20.298 9.92101 21.7847 15.3189 21.7847C18.9608 21.7847 22.9618 21.0264 26.6436 19.4699C27.1924 19.2204 27.6613 19.8291 27.1225 20.2282Z" fill="#FF9900"/>
<path fill-rule="evenodd" clip-rule="evenodd" d="M28.4895 18.6717C28.0704 18.1329 25.7157 18.4122 24.6481 18.5419C24.3288 18.5819 24.2789 18.3025 24.5682 18.0929C26.444 16.7759 29.5271 17.155 29.8863 17.5941C30.2455 18.0431 29.7866 21.1262 28.0305 22.6029C27.7611 22.8323 27.5017 22.7126 27.6214 22.4133C28.0205 21.4255 28.9085 19.2005 28.4895 18.6717Z" fill="#FF9900"/>
</svg>
