<svg width="30" height="30" viewBox="0 0 30 30" fill="none" xmlns="http://www.w3.org/2000/svg">
<path d="M21.7506 11.6978C20.1074 4.86624 16.6827 3.0476 15.809 1.762C15.4488 1.19567 15.1296 0.606986 14.8538 0C14.8077 0.60689 14.7229 0.98923 14.1755 1.44945C13.0765 2.37294 8.40885 5.95763 8.01604 13.7198C7.65005 20.9569 13.6614 25.4196 14.4556 25.8808C15.0663 26.164 15.8101 25.8869 16.1729 25.6269C19.0707 23.7526 23.03 18.7559 21.7538 11.6978" fill="#10AA50"/>
<path d="M15.3701 22C15.2832 23.9451 15.2209 25.0752 15 26.1867C15 26.1867 15.145 28.0384 15.2468 30H15.607C15.693 28.6187 15.8242 27.2475 16 25.8935C15.5336 25.4849 15.388 23.7068 15.3701 22Z" fill="#B8C4C2"/>
<path d="M16.2569 26C15.4452 25.6354 15.2104 23.9279 15.1742 22.3372C15.375 19.7132 15.4335 17.0807 15.3496 14.4508C15.3071 13.0708 15.3697 1.66922 15 0C15.2529 0.565349 15.5443 1.11368 15.8723 1.64133C16.7372 2.95523 20.1286 4.81244 21.7542 11.7889C23.0206 18.9843 19.1224 24.0736 16.2569 26Z" fill="#12924F"/>
</svg>
