<svg width="30" height="30" viewBox="0 0 30 30" fill="none" xmlns="http://www.w3.org/2000/svg">
<path d="M14.0931 24.9208C11.7777 24.9183 9.81826 24.2279 8.05557 22.9463C7.6418 22.6427 7.25154 22.3082 6.88814 21.9458C5.96836 21.0371 5.04756 20.1295 4.12572 19.2229C3.33732 18.4467 2.5484 17.6711 1.75896 16.896C1.4025 16.5457 1.04388 16.1975 0.689264 15.8454C0.207156 15.3666 0.21493 14.8273 0.703543 14.3526C1.06681 13.9997 1.42694 13.6437 1.78815 13.2887C2.95984 12.1372 4.1316 10.9857 5.30344 9.83441C5.9554 9.19545 6.59822 8.54624 7.26973 7.92835C8.57218 6.72684 10.176 5.90089 11.9105 5.53838C12.5899 5.38461 13.2843 5.30683 13.9809 5.30649C16.2994 5.32483 18.4095 5.97578 20.2491 7.41902C21.427 8.32388 22.3836 9.48487 23.0464 10.8141C23.54 11.7949 23.8555 12.8556 23.9782 13.9468C24.2913 16.8947 23.4705 19.4852 21.4698 21.6853C20.1933 23.1136 18.516 24.124 16.6566 24.5846C15.8182 24.7968 14.9578 24.9096 14.0931 24.9208ZM14.5393 22.3012C14.7873 22.2996 15.035 22.2851 15.2814 22.2576C15.437 22.2419 15.5927 22.2223 15.7465 22.1943C17.6158 21.8531 19.1301 20.9067 20.2879 19.4222C21.4145 17.9778 21.8569 16.3051 21.7187 14.4847C21.6433 13.5556 21.3804 12.6514 20.9458 11.8267C20.1775 10.3399 18.9894 9.29225 17.4924 8.58333C16.1489 7.94714 14.7365 7.78774 13.2726 8.01459C11.7807 8.22965 10.3954 8.91221 9.31579 9.96417C8.2641 10.9807 7.22392 12.0092 6.17933 13.0331C5.65584 13.5463 5.13683 14.064 4.61001 14.5737C4.27281 14.8999 4.2589 15.2945 4.5927 15.6238C5.24968 16.2721 5.90798 16.919 6.5676 17.5645C7.45165 18.4333 8.33199 19.306 9.22015 20.1706C10.6728 21.5847 12.4131 22.3 14.5393 22.3012Z" fill="#33B5F1"/>
<path d="M29.7514 15.0596C29.7558 15.2001 29.7308 15.34 29.678 15.4703C29.6253 15.6006 29.5459 15.7184 29.4449 15.8162C28.528 16.7375 27.6092 17.6568 26.6884 18.5742C26.5878 18.6748 26.4866 18.695 26.3825 18.6401C26.27 18.5808 26.2301 18.4907 26.2623 18.3434C26.4068 17.6864 26.5087 17.0209 26.5675 16.3508C26.6166 15.7432 26.6283 15.1332 26.6026 14.5241C26.5724 13.6519 26.4617 12.7843 26.2718 11.9324C26.2563 11.8901 26.25 11.8449 26.2536 11.7999C26.2571 11.7549 26.2704 11.7113 26.2924 11.6719C26.3099 11.6454 26.3325 11.6228 26.3589 11.6052C26.3853 11.5876 26.415 11.5755 26.4462 11.5696C26.4773 11.5636 26.5093 11.5639 26.5404 11.5705C26.5714 11.5771 26.6008 11.5897 26.6269 11.6078C26.6645 11.6353 26.6996 11.6662 26.7317 11.7C27.6204 12.5881 28.509 13.4765 29.3974 14.365C29.607 14.5745 29.7521 14.8134 29.7514 15.0596Z" fill="#33B5F1"/>
<path d="M19.3767 15.1101C19.3788 15.7572 19.2529 16.3983 19.0063 16.9966C18.7597 17.5949 18.3973 18.1385 17.9399 18.5963C17.4825 19.054 16.9391 19.4168 16.341 19.6638C15.7429 19.9108 15.1018 20.0371 14.4547 20.0355C11.5612 20.0293 9.49047 17.6401 9.53841 15.0339C9.56058 13.7374 10.0938 12.502 11.022 11.5965C11.9503 10.691 13.1986 10.1886 14.4953 10.1987C15.792 10.2087 17.0323 10.7303 17.9465 11.6501C18.8606 12.5699 19.3746 13.8134 19.3767 15.1101Z" fill="#33B5F1"/>
</svg>
