<svg width="30" height="30" viewBox="0 0 30 30" fill="none" xmlns="http://www.w3.org/2000/svg">
<g clip-path="url(#clip0_1360_2537)">
<path d="M19.86 16.42C18.88 16.42 17.94 16.84 17.28 17.58L15.66 16.44C15.84 15.96 15.92 15.44 15.92 14.94C15.92 14.44 15.84 13.94 15.66 13.46L17.26 12.32C18.52 13.74 20.7 13.88 22.12 12.62C23.54 11.36 23.68 9.18 22.42 7.76C21.16 6.34 18.98 6.2 17.56 7.46C16.56 8.34 16.16 9.74 16.54 11.02L14.92 12.16C14.24 11.3 13.26 10.74 12.18 10.56V8.62C14.04 8.24 15.24 6.44 14.88 4.56C14.52 2.72 12.72 1.5 10.86 1.88C9.00003 2.26 7.78003 4.06 8.16003 5.92C8.42003 7.24 9.44003 8.28 10.74 8.6V10.56C8.34003 10.98 6.72003 13.28 7.14003 15.68C7.46003 17.54 8.92003 18.98 10.78 19.28V21.36C8.92003 21.76 7.76003 23.6 8.16003 25.46C8.56003 27.32 10.4 28.48 12.26 28.08C14.12 27.68 15.28 25.84 14.88 23.98C14.6 22.68 13.58 21.66 12.26 21.36V19.3C13.32 19.12 14.28 18.56 14.96 17.74L16.58 18.9C16.04 20.72 17.1 22.62 18.9 23.16C20.7 23.7 22.62 22.64 23.16 20.84C23.7 19.04 22.64 17.12 20.84 16.58C20.52 16.46 20.18 16.42 19.86 16.42ZM19.86 8.4C20.78 8.4 21.52 9.14 21.52 10.06C21.52 10.98 20.78 11.72 19.86 11.72C18.94 11.72 18.2 10.98 18.2 10.06C18.2 9.14 18.94 8.4 19.86 8.4ZM9.84003 5.26C9.84003 4.34 10.58 3.6 11.5 3.6C12.42 3.6 13.16 4.34 13.16 5.26C13.16 6.18 12.42 6.92 11.5 6.92C10.58 6.92 9.84003 6.18 9.84003 5.26ZM13.18 24.74C13.18 25.66 12.44 26.4 11.52 26.4C10.6 26.4 9.86003 25.66 9.86003 24.74C9.86003 23.82 10.6 23.08 11.52 23.08C12.42 23.08 13.18 23.82 13.18 24.74ZM11.5 17.26C10.22 17.26 9.18003 16.22 9.18003 14.94C9.18003 13.66 10.22 12.62 11.5 12.62C12.78 12.62 13.82 13.66 13.82 14.94C13.82 16.22 12.78 17.26 11.5 17.26ZM19.86 21.52C18.94 21.52 18.2 20.78 18.2 19.86C18.2 18.94 18.94 18.2 19.86 18.2C20.78 18.2 21.52 18.94 21.52 19.86C21.52 20.78 20.78 21.52 19.86 21.52Z" fill="#010101"/>
</g>
<defs>
<clipPath id="clip0_1360_2537">
<rect width="30" height="30" fill="white"/>
</clipPath>
</defs>
</svg>
