<svg width="30" height="30" viewBox="0 0 30 30" fill="none" xmlns="http://www.w3.org/2000/svg">
<path d="M14.6817 0.000243385C13.4563 0.00588221 12.2861 0.109381 11.2565 0.289823C8.22324 0.820532 7.67252 1.93135 7.67252 3.97989V6.68539H14.8404V7.58722H7.67252H4.98246C2.89927 7.58722 1.07516 8.82727 0.504604 11.1863C-0.153526 13.8902 -0.182718 15.5776 0.504604 18.4009C1.01413 20.5026 2.23093 22 4.31413 22H6.77862V18.7567C6.77862 16.4136 8.82564 14.3468 11.2565 14.3468H18.416C20.409 14.3468 22 12.7217 22 10.7395V3.97989C22 2.05607 20.3612 0.610901 18.416 0.289823C17.1847 0.0868259 15.9071 -0.00539552 14.6817 0.000243385ZM10.8054 2.17623C11.5457 2.17623 12.1504 2.78481 12.1504 3.53311C12.1504 4.27876 11.5457 4.88172 10.8054 4.88172C10.0623 4.88172 9.46032 4.27876 9.46032 3.53311C9.46032 2.78481 10.0623 2.17623 10.8054 2.17623Z" fill="url(#paint0_linear_1357_2146)"/>
<path d="M23.1905 8V11.1283C23.1905 13.5536 21.1026 15.5949 18.7217 15.5949H11.5767C9.61954 15.5949 8 17.2446 8 19.1748V25.883C8 27.7922 9.68575 28.9151 11.5767 29.4629C13.841 30.1186 16.0124 30.2371 18.7217 29.4629C20.5226 28.9494 22.2984 27.9159 22.2984 25.883V23.1981H15.1534V22.3031H22.2984H25.8751C27.954 22.3031 28.7287 20.875 29.4517 18.7314C30.1986 16.5247 30.1668 14.4025 29.4517 11.5717C28.9379 9.53345 27.9567 8 25.8751 8H23.1905ZM19.1719 24.988C19.9134 24.988 20.5142 25.5864 20.5142 26.3264C20.5142 27.069 19.9134 27.6729 19.1719 27.6729C18.433 27.6729 17.8296 27.069 17.8296 26.3264C17.8296 25.5864 18.433 24.988 19.1719 24.988Z" fill="url(#paint1_linear_1357_2146)"/>
<defs>
<linearGradient id="paint0_linear_1357_2146" x1="-8.9259e-08" y1="-7.67895e-08" x2="16.3935" y2="14.1055" gradientUnits="userSpaceOnUse">
<stop stop-color="#5A9FD4"/>
<stop offset="1" stop-color="#306998"/>
</linearGradient>
<linearGradient id="paint1_linear_1357_2146" x1="19" y1="26.1006" x2="13.2016" y2="17.8501" gradientUnits="userSpaceOnUse">
<stop stop-color="#FFD43B"/>
<stop offset="1" stop-color="#FFE873"/>
</linearGradient>
</defs>
</svg>
