<svg width="30" height="30" viewBox="0 0 30 30" fill="none" xmlns="http://www.w3.org/2000/svg">
<g clip-path="url(#clip0_1360_2520)">
<path d="M28.0007 11.9898H18.5812C18.3541 11.9897 18.1364 11.8995 17.9758 11.739C17.8153 11.5784 17.725 11.3607 17.7249 11.1337V1.31668C17.7249 0.589705 17.1354 0 16.4088 0H13.0462C12.3192 0 11.73 0.589705 11.73 1.31668V11.0742C11.73 11.5804 11.3207 11.9919 10.8145 11.9941L7.7276 12.0089C7.21705 12.0116 6.80225 11.5974 6.80325 11.0873L6.8224 1.31889C6.82406 0.590812 6.23436 0 5.50628 0H2.1465C1.4193 0 0.830261 0.589705 0.830261 1.31668V28.8055C0.830261 29.4514 1.35343 29.9745 1.99871 29.9745H28.0007C28.6466 29.9745 29.1697 29.4514 29.1697 28.8055V13.1588C29.1697 12.513 28.6466 11.9898 28.0007 11.9898ZM23.5835 22.3108C23.5835 23.1571 22.8974 23.8434 22.0511 23.8434H19.3937C18.5473 23.8434 17.8612 23.1571 17.8612 22.3108V19.6534C17.8612 18.807 18.5473 18.1209 19.3937 18.1209H22.0511C22.8974 18.1209 23.5835 18.807 23.5835 19.6534V22.3108Z" fill="#FF6600"/>
</g>
<defs>
<clipPath id="clip0_1360_2520">
<rect width="30" height="30" fill="white"/>
</clipPath>
</defs>
</svg>
