<svg width="30" height="30" viewBox="0 0 30 30" fill="none" xmlns="http://www.w3.org/2000/svg">
<path d="M13.125 19.375C13.125 19.8375 13 20.25 12.775 20.625C12.35 19.8875 11.55 19.375 10.625 19.375C9.7 19.375 8.9 19.8875 8.475 20.625C8.2625 20.25 8.125 19.8375 8.125 19.375C8.125 18 9.25 16.875 10.625 16.875C12 16.875 13.125 18 13.125 19.375ZM28.75 18.75V22.5C28.75 23.1875 28.1875 23.75 27.5 23.75H26.25V25C26.25 26.3875 25.1375 27.5 23.75 27.5H6.25C5.58696 27.5 4.95107 27.2366 4.48223 26.7678C4.01339 26.2989 3.75 25.663 3.75 25V23.75H2.5C1.8125 23.75 1.25 23.1875 1.25 22.5V18.75C1.25 18.0625 1.8125 17.5 2.5 17.5H3.75C3.75 12.6625 7.6625 8.75 12.5 8.75H13.75V7.1625C13 6.7375 12.5 5.925 12.5 5C12.5 3.625 13.625 2.5 15 2.5C16.375 2.5 17.5 3.625 17.5 5C17.5 5.925 17 6.7375 16.25 7.1625V8.75H17.5C22.3375 8.75 26.25 12.6625 26.25 17.5H27.5C28.1875 17.5 28.75 18.0625 28.75 18.75ZM26.25 20H23.75V17.5C23.75 14.05 20.95 11.25 17.5 11.25H12.5C9.05 11.25 6.25 14.05 6.25 17.5V20H3.75V21.25H6.25V25H23.75V21.25H26.25V20ZM19.375 16.875C18 16.875 16.875 18 16.875 19.375C16.875 19.8375 17.0125 20.25 17.225 20.625C17.65 19.8875 18.45 19.375 19.375 19.375C20.3 19.375 21.1 19.8875 21.525 20.625C21.75 20.25 21.875 19.8375 21.875 19.375C21.875 18.712 21.6116 18.0761 21.1428 17.6072C20.6739 17.1384 20.038 16.875 19.375 16.875Z" fill="#C7F5FF"/>
</svg>
