<svg width="30" height="30" viewBox="0 0 30 30" fill="none" xmlns="http://www.w3.org/2000/svg">
<path d="M14.4095 7.06933C14.5918 7.16546 14.5918 7.16546 14.792 7.20017C14.9092 7.15079 14.9092 7.15079 15.0331 7.07493C16.3607 6.3373 17.9721 6.03148 19.4854 6.03819C19.5334 6.03829 19.5334 6.03829 19.5823 6.03839C21.9774 6.04687 24.3584 6.89895 26.1147 8.51698C26.1982 8.59328 26.2831 8.66603 26.3706 8.73789C27.8207 9.98179 28.6955 11.906 29.0164 13.7314C29.0239 13.7721 29.0239 13.7721 29.0315 13.8136C29.187 14.7011 29.1491 15.7074 28.9786 16.5888C28.9723 16.622 28.966 16.6551 28.9595 16.6892C28.6422 18.3053 27.8876 19.7726 26.7575 20.9859C26.6992 21.0486 26.6414 21.112 26.5843 21.1758C26.4097 21.3703 26.2302 21.5439 26.0278 21.7099C25.9929 21.74 25.958 21.77 25.9221 21.801C24.453 23.0612 22.5867 23.8226 20.6558 24.0478C20.6109 24.0532 20.6109 24.0532 20.5652 24.0586C20.2289 24.0937 19.8918 24.094 19.5539 24.0942C19.5063 24.0943 19.5063 24.0943 19.4577 24.0943C17.9382 24.0924 16.4092 23.7677 15.0609 23.0654C14.8785 22.969 14.8785 22.969 14.6785 22.9345C14.583 22.9732 14.4986 23.0134 14.4089 23.0621C13.3715 23.5961 12.2465 23.9123 11.0845 24.0478C11.0546 24.0514 11.0248 24.0549 10.994 24.0586C10.6576 24.0937 10.3206 24.094 9.98268 24.0942C9.93504 24.0943 9.93504 24.0943 9.88643 24.0943C7.87346 24.0918 5.82109 23.4956 4.19927 22.3037C4.16656 22.2801 4.16656 22.2801 4.13319 22.256C3.87066 22.0665 3.62364 21.8644 3.38486 21.6463C3.30651 21.5753 3.22666 21.5078 3.14473 21.4409C1.60849 20.1212 0.674796 18.1026 0.416164 16.1435C0.412598 16.118 0.409032 16.0924 0.405357 16.066C0.200408 14.3845 0.541423 12.6871 1.28628 11.1709C1.29826 11.1464 1.31023 11.1218 1.32257 11.0966C2.40547 8.91358 4.46586 7.32446 6.76897 6.53119C7.33874 6.34081 7.91842 6.21844 8.512 6.124C8.54175 6.11908 8.5715 6.11415 8.60215 6.10907C10.5288 5.80326 12.692 6.17472 14.4095 7.06933Z" fill="#FEDD2C"/>
<path d="M14.7163 7.23727C14.7163 7.26177 14.7163 7.28626 14.7163 7.31149C14.6971 7.32048 14.6779 7.32948 14.6581 7.33874C14.4918 7.41817 14.3393 7.50521 14.1867 7.60837C14.0806 7.67598 13.9995 7.71915 13.8769 7.75217C13.7625 7.78335 13.7625 7.78335 13.7256 7.88669C13.7154 7.9173 13.7053 7.94792 13.6949 7.97946C13.5814 8.05368 13.5814 8.05368 13.4679 8.05368C13.4679 8.07817 13.4679 8.10266 13.4679 8.1279C13.4429 8.1279 13.4179 8.1279 13.3922 8.1279C13.3922 8.15239 13.3922 8.17688 13.3922 8.20212C13.1875 8.35055 13.1875 8.35055 13.0896 8.35055C13.0769 8.38184 13.0769 8.38184 13.064 8.41376C12.9988 8.52468 12.9162 8.59151 12.8176 8.67526C12.6673 8.80518 12.5325 8.93943 12.4043 9.09042C12.3153 9.18587 12.2174 9.26781 12.1178 9.35251C11.9703 9.48135 11.8718 9.58693 11.7967 9.76535C11.7516 9.86579 11.6866 9.94795 11.6201 10.0356C11.571 10.0997 11.571 10.0997 11.5172 10.1944C11.4628 10.2802 11.4628 10.2802 11.3907 10.3476C11.3057 10.4347 11.2566 10.5166 11.2004 10.6235C11.1335 10.7484 11.0654 10.8682 10.9852 10.9853C10.8923 11.1279 10.8387 11.2762 10.7832 11.4359C10.7435 11.5434 10.697 11.645 10.6471 11.7484C10.5715 11.9071 10.5158 12.0634 10.4706 12.2327C10.4414 12.3213 10.4414 12.3213 10.3864 12.4266C10.2276 12.7449 10.1556 13.1192 10.1387 13.4716C10.1138 13.4716 10.0888 13.4716 10.0631 13.4716C10.0039 14.1387 9.97593 14.8002 9.97535 15.4696C9.975 15.5645 9.97461 15.6593 9.9742 15.7542C9.97339 15.9559 9.97279 16.1577 9.97241 16.3595C9.97185 16.6512 9.97088 16.943 9.96982 17.2347C9.96811 17.7083 9.96672 18.182 9.96554 18.6556C9.96439 19.1149 9.96309 19.5742 9.96159 20.0336C9.9615 20.062 9.9614 20.0905 9.96131 20.1198C9.96084 20.2625 9.96037 20.4053 9.95989 20.548C9.95599 21.727 9.95262 22.906 9.94958 24.0849C9.83492 24.0854 9.72026 24.0858 9.60559 24.086C9.57337 24.0862 9.54116 24.0863 9.50796 24.0865C9.25858 24.0869 9.01476 24.0728 8.76736 24.0409C8.72779 24.0359 8.68823 24.031 8.64746 24.0259C7.06168 23.8166 5.48526 23.2488 4.19927 22.3037C4.16656 22.2801 4.16656 22.2801 4.13319 22.256C3.87066 22.0665 3.62364 21.8643 3.38486 21.6463C3.30651 21.5753 3.22666 21.5078 3.14473 21.4409C1.60849 20.1212 0.674796 18.1026 0.416164 16.1435C0.412598 16.118 0.409032 16.0924 0.405357 16.066C0.200408 14.3845 0.541423 12.6871 1.28628 11.1709C1.29826 11.1464 1.31023 11.1218 1.32258 11.0966C2.40547 8.91357 4.46587 7.32445 6.76897 6.53118C7.33874 6.3408 7.91842 6.21843 8.512 6.12399C8.54175 6.11906 8.5715 6.11414 8.60215 6.10906C10.5591 5.79843 13.045 6.1443 14.7163 7.23727Z" fill="#317DFE"/>
<path d="M19.1629 6.04819C19.1975 6.04831 19.2321 6.04842 19.2678 6.04854C19.3521 6.04884 19.4365 6.04925 19.5208 6.04978C19.5226 7.24613 19.5239 8.44248 19.5247 9.63883C19.5248 9.78048 19.5249 9.92213 19.525 10.0638C19.525 10.092 19.525 10.1202 19.525 10.1492C19.5254 10.6041 19.526 11.059 19.5267 11.5139C19.5274 11.9817 19.5278 12.4494 19.5279 12.9172C19.528 13.2051 19.5284 13.4931 19.529 13.7811C19.5294 14.0029 19.5295 14.2248 19.5294 14.4466C19.5294 14.5369 19.5296 14.6271 19.5298 14.7174C19.5379 17.3339 18.5872 19.5923 16.7142 21.4618C15.9617 22.1866 15.0325 22.8043 14.0732 23.2314C14.0313 23.2501 14.0313 23.2501 13.9887 23.2691C13.0615 23.6772 12.0914 23.9227 11.0845 24.0478C11.0467 24.0528 11.0089 24.0577 10.97 24.0628C10.7455 24.0875 10.5217 24.0863 10.2961 24.0857C10.2628 24.0856 10.2294 24.0856 10.195 24.0855C10.1132 24.0854 10.0314 24.0852 9.94958 24.0849C9.94785 22.8744 9.94651 21.6639 9.94571 20.4534C9.94562 20.31 9.94552 20.1667 9.94542 20.0234C9.9454 19.9949 9.94538 19.9663 9.94536 19.9369C9.94503 19.4766 9.94444 19.0163 9.94374 18.556C9.94303 18.0827 9.94261 17.6095 9.94246 17.1362C9.94235 16.8448 9.94203 16.5534 9.94141 16.262C9.94096 16.0375 9.94092 15.8131 9.94102 15.5886C9.941 15.4973 9.94085 15.4059 9.94056 15.3146C9.93659 14.0129 9.93659 14.0129 10.0631 13.4717C10.088 13.4717 10.113 13.4717 10.1387 13.4717C10.137 13.4513 10.1352 13.431 10.1334 13.4101C10.114 12.992 10.2513 12.6018 10.4356 12.2302C10.4787 12.1369 10.5083 12.0465 10.536 11.9479C10.5833 11.7811 10.6549 11.6373 10.7368 11.4844C10.7805 11.3963 10.8117 11.3108 10.841 11.2173C10.8879 11.0706 10.9563 10.9635 11.0467 10.8369C11.0842 10.7683 11.1212 10.6995 11.1578 10.6305C11.2435 10.4738 11.3329 10.3674 11.4628 10.2431C11.525 10.1484 11.5827 10.0519 11.6394 9.95395C11.6898 9.87205 11.6898 9.87205 11.7655 9.79783C11.7803 9.7588 11.7951 9.71976 11.8104 9.67955C11.9066 9.45167 12.1084 9.30753 12.2951 9.15074C12.4247 9.04143 12.5333 8.92287 12.6436 8.79515C12.7361 8.69463 12.8386 8.60859 12.944 8.52133C13.0218 8.45707 13.0218 8.45707 13.1156 8.35752C13.2052 8.27434 13.2754 8.23813 13.3922 8.20213C13.3922 8.17764 13.3922 8.15314 13.3922 8.12791C13.4172 8.12791 13.4421 8.12791 13.4679 8.12791C13.4679 8.10342 13.4679 8.07893 13.4679 8.05369C13.5217 8.03073 13.5217 8.03073 13.5766 8.0073C13.697 7.95542 13.697 7.95542 13.7327 7.86814C13.7902 7.75526 13.8828 7.73452 13.9975 7.6826C14.0736 7.63382 14.1493 7.58436 14.2245 7.53416C14.5877 7.3115 14.5877 7.3115 14.7163 7.3115C14.7163 7.28701 14.7163 7.26252 14.7163 7.23728C16.0467 6.49628 17.627 6.03835 19.1629 6.04819Z" fill="#FE6447"/>
<path d="M9.94956 13.7314C9.97453 13.7314 9.9995 13.7314 10.0252 13.7314C10.0226 13.7738 10.0199 13.8161 10.0172 13.8598C9.98632 14.3867 9.98093 14.9125 9.97963 15.4401C9.97926 15.535 9.97888 15.6298 9.97849 15.7246C9.97769 15.9271 9.97699 16.1296 9.97639 16.3321C9.97552 16.6248 9.97446 16.9176 9.97335 17.2104C9.97156 17.6856 9.96992 18.1608 9.96838 18.636C9.96688 19.0971 9.96532 19.5582 9.96365 20.0193C9.96355 20.0478 9.96344 20.0763 9.96334 20.1057C9.96282 20.2488 9.9623 20.3919 9.96178 20.5349C9.95748 21.7183 9.95344 22.9016 9.94956 24.0849C9.71236 24.0849 9.47516 24.0849 9.23077 24.0849C9.23077 24.0727 9.23077 24.0604 9.23077 24.0478C9.44301 24.0478 9.65524 24.0478 9.8739 24.0478C9.8739 20.8516 9.8739 17.6554 9.8739 14.3623C9.89887 14.3623 9.92384 14.3623 9.94956 14.3623C9.94956 14.1541 9.94956 13.9459 9.94956 13.7314Z" fill="#5974CB"/>
<path d="M19.3695 16.5146C19.382 16.5146 19.3945 16.5146 19.4073 16.5146C19.4083 16.5942 19.4091 16.6739 19.4097 16.7535C19.4101 16.7979 19.4106 16.8422 19.411 16.8879C19.4073 16.997 19.4073 16.997 19.3695 17.0341C19.3607 17.0904 19.3539 17.1469 19.3482 17.2035C19.3435 17.2495 19.3435 17.2495 19.3386 17.2964C19.3363 17.3201 19.334 17.3437 19.3317 17.3681C19.2942 17.3804 19.2568 17.3926 19.2182 17.4052C19.2307 17.442 19.2431 17.4787 19.256 17.5166C19.2211 17.6043 19.1835 17.6911 19.1425 17.7763C19.106 17.6636 19.1044 17.5957 19.1397 17.4829C19.148 17.4555 19.1563 17.4281 19.1648 17.3999C19.1738 17.371 19.1829 17.3422 19.1922 17.3125C19.2713 17.0483 19.3329 16.7881 19.3695 16.5146Z" fill="#FECB3D"/>
<path d="M14.338 7.49704C14.3504 7.52153 14.3629 7.54602 14.3758 7.57126C14.322 7.5793 14.322 7.5793 14.267 7.58749C14.1439 7.63173 14.1439 7.63173 14.1169 7.72477C14.0984 7.80958 14.0836 7.89336 14.0731 7.97946C14.0482 7.97946 14.0232 7.97946 13.9975 7.97946C13.9975 7.95497 13.9975 7.93048 13.9975 7.90524C13.9749 7.9129 13.9522 7.92055 13.9289 7.92844C13.8462 7.94235 13.8462 7.94235 13.7327 7.86813C13.8962 7.69084 14.1225 7.60036 14.338 7.49704Z" fill="#D76A6D"/>
<path d="M10.6305 11.6162C10.643 11.6407 10.6555 11.6652 10.6683 11.6904C10.6426 11.751 10.6165 11.8115 10.5885 11.8712C10.5512 11.9588 10.5245 12.0466 10.4981 12.138C10.4555 12.2831 10.3981 12.4093 10.3279 12.5439C10.3014 12.6454 10.3014 12.6454 10.29 12.7295C10.2775 12.7295 10.2651 12.7295 10.2522 12.7295C10.2522 12.6315 10.2522 12.5335 10.2522 12.4326C10.2772 12.4326 10.3021 12.4326 10.3279 12.4326C10.3279 12.3714 10.3279 12.3101 10.3279 12.247C10.3528 12.247 10.3778 12.247 10.4035 12.247C10.409 12.2072 10.4144 12.1674 10.4201 12.1264C10.4352 12.0275 10.4518 11.9348 10.4792 11.8388C10.5042 11.8388 10.5291 11.8388 10.5548 11.8388C10.5548 11.7776 10.5548 11.7164 10.5548 11.6533C10.5798 11.641 10.6048 11.6288 10.6305 11.6162Z" fill="#6875C3"/>
<path d="M10.4035 12.3213C10.454 12.4202 10.4289 12.4759 10.4035 12.581C10.3786 12.581 10.3536 12.581 10.3279 12.581C10.3283 12.6047 10.3287 12.6284 10.3292 12.6528C10.3295 12.6834 10.3299 12.7141 10.3302 12.7457C10.3307 12.7763 10.3311 12.8068 10.3316 12.8383C10.3279 12.915 10.3279 12.915 10.29 12.9521C10.2813 13.0021 10.2745 13.0525 10.2688 13.1029C10.2633 13.1511 10.2578 13.1993 10.2522 13.249C10.2272 13.249 10.2023 13.249 10.1765 13.249C10.1765 13.3102 10.1765 13.3715 10.1765 13.4345C10.1641 13.4345 10.1516 13.4345 10.1387 13.4345C10.111 13.0469 10.217 12.6626 10.4035 12.3213Z" fill="#C56F7E"/>
<path d="M11.0845 10.7998C11.0969 10.8243 11.1094 10.8488 11.1223 10.874C11.0971 10.9442 11.0971 10.9442 11.0555 11.029C11.0405 11.0597 11.0256 11.0904 11.0101 11.1221C10.9941 11.1543 10.978 11.1864 10.9615 11.2196C10.9383 11.2672 10.9383 11.2672 10.9147 11.3158C10.839 11.4698 10.7619 11.6201 10.6683 11.7646C10.6558 11.7401 10.6434 11.7156 10.6305 11.6904C10.6661 11.6193 10.702 11.5483 10.7398 11.4783C10.7817 11.3938 10.8107 11.3116 10.8386 11.2219C10.8904 11.0605 10.9606 10.9212 11.0845 10.7998Z" fill="#C06F82"/>
<path d="M18.802 18.4443C18.84 18.5421 18.8439 18.5826 18.8049 18.6819C18.7789 18.7285 18.7789 18.7285 18.7524 18.776C18.685 18.8985 18.6256 19.0192 18.5751 19.1494C18.5501 19.1494 18.5251 19.1494 18.4994 19.1494C18.4994 19.1984 18.4994 19.2474 18.4994 19.2978C18.4744 19.2978 18.4495 19.2978 18.4237 19.2978C18.4191 19.3215 18.4144 19.3453 18.4095 19.3697C18.4017 19.395 18.3939 19.4202 18.3859 19.4463C18.3609 19.4585 18.336 19.4708 18.3102 19.4834C18.3649 19.3031 18.4425 19.1482 18.5349 18.9847C18.6344 18.8077 18.7236 18.6313 18.802 18.4443Z" fill="#FEC340"/>
<path d="M15.8512 22.1181C15.8762 22.1304 15.9012 22.1426 15.9269 22.1552C15.8185 22.2675 15.7276 22.3481 15.5864 22.415C15.549 22.4701 15.549 22.4701 15.5107 22.5263C15.4603 22.5387 15.4099 22.5511 15.3594 22.5634C15.322 22.6186 15.322 22.6186 15.2838 22.6748C15.1845 22.6817 15.1845 22.6817 15.0946 22.6748C15.2473 22.55 15.4088 22.4401 15.5719 22.329C15.6682 22.2623 15.7607 22.1922 15.8512 22.1181Z" fill="#FEC83E"/>
<path d="M16.4943 21.5986C16.5193 21.6108 16.5443 21.6231 16.57 21.6357C16.506 21.7098 16.4413 21.783 16.3761 21.856C16.3492 21.8874 16.3492 21.8874 16.3217 21.9195C16.2232 22.0285 16.1745 22.0758 16.0265 22.1136C15.9936 22.1151 15.9607 22.1166 15.9269 22.1181C16.1072 21.9354 16.3009 21.7677 16.4943 21.5986Z" fill="#FFC93F"/>
<path d="M17.7049 20.2998C17.7428 20.374 17.7428 20.374 17.7144 20.4807C17.6706 20.5881 17.6367 20.6635 17.5536 20.7451C17.5037 20.7451 17.4537 20.7451 17.4023 20.7451C17.4556 20.6323 17.5191 20.5375 17.5962 20.4389C17.6166 20.4127 17.6369 20.3865 17.6579 20.3595C17.6734 20.3398 17.689 20.3201 17.7049 20.2998Z" fill="#FFD535"/>
<path d="M14.6785 7.23727C14.691 7.26177 14.7034 7.28626 14.7163 7.31149C14.6971 7.32049 14.6779 7.32948 14.6581 7.33875C14.5292 7.40029 14.4099 7.46237 14.2907 7.54111C14.2 7.59974 14.141 7.62953 14.0353 7.64548C14.0353 7.62099 14.0353 7.59649 14.0353 7.57126C14.0728 7.57126 14.1102 7.57126 14.1488 7.57126C14.1488 7.54677 14.1488 7.52227 14.1488 7.49704C14.1738 7.49704 14.1988 7.49704 14.2245 7.49704C14.2245 7.47255 14.2245 7.44806 14.2245 7.42282C14.3344 7.37619 14.4059 7.3486 14.5271 7.3486C14.5271 7.32411 14.5271 7.29962 14.5271 7.27438C14.5771 7.26214 14.627 7.24989 14.6785 7.23727Z" fill="#6674CA"/>
<path d="M12.8626 8.61032C12.8751 8.64706 12.8875 8.6838 12.9004 8.72165C12.813 8.80737 12.7256 8.89309 12.6356 8.98141C12.5981 8.96917 12.5607 8.95692 12.5221 8.94431C12.6276 8.81489 12.7208 8.70304 12.8626 8.61032Z" fill="#E7685E"/>
<path d="M19.1803 17.1826C19.1928 17.1826 19.2053 17.1826 19.2182 17.1826C19.1988 17.4215 19.1527 17.6264 19.0668 17.8506C19.0233 17.7224 19.0343 17.6275 19.0597 17.4957C19.0662 17.4604 19.0727 17.4252 19.0794 17.3889C19.1047 17.2939 19.1047 17.2939 19.1803 17.1826Z" fill="#F47732"/>
<path d="M12.1438 9.27829C12.1438 9.42797 12.0829 9.49483 11.9924 9.61227C11.9675 9.61227 11.9425 9.61227 11.9168 9.61227C11.9168 9.64901 11.9168 9.68575 11.9168 9.7236C11.8793 9.7236 11.8419 9.7236 11.8033 9.7236C11.8582 9.52592 11.9955 9.41322 12.1438 9.27829Z" fill="#9D6F9A"/>
<path d="M18.6507 18.6299C18.6757 18.6299 18.7006 18.6299 18.7264 18.6299C18.6747 18.7613 18.6163 18.8869 18.5514 19.0125C18.5345 19.0453 18.5176 19.0781 18.5003 19.1118C18.4875 19.1365 18.4747 19.1611 18.4615 19.1865C18.4491 19.1375 18.4366 19.0885 18.4237 19.0381C18.4487 19.0381 18.4736 19.0381 18.4994 19.0381C18.4978 19.0097 18.4962 18.9814 18.4946 18.9522C18.4994 18.8525 18.4994 18.8525 18.575 18.7412C18.6 18.7412 18.625 18.7412 18.6507 18.7412C18.6507 18.7044 18.6507 18.6677 18.6507 18.6299Z" fill="#F17133"/>
<path d="M16.1916 21.7099C16.2541 21.7099 16.3165 21.7099 16.3808 21.7099C16.2796 21.8423 16.1782 21.9478 16.0403 22.0439C16.0154 22.0439 15.9904 22.0439 15.9647 22.0439C15.9647 22.0194 15.9647 21.9949 15.9647 21.9697C15.9951 21.946 16.0255 21.9222 16.0569 21.8978C16.1628 21.8283 16.1628 21.8283 16.1916 21.7099Z" fill="#F37634"/>
<path d="M10.1009 13.0263C10.1259 13.0263 10.1508 13.0263 10.1766 13.0263C10.1641 13.1733 10.1516 13.3202 10.1387 13.4716C10.1138 13.4716 10.0888 13.4716 10.0631 13.4716C10.0631 13.5329 10.0631 13.5941 10.0631 13.6572C10.0506 13.6572 10.0381 13.6572 10.0252 13.6572C10.0215 13.4289 10.0215 13.4289 10.0252 13.3603C10.0377 13.3481 10.0502 13.3358 10.0631 13.3232C10.0718 13.2732 10.0786 13.2229 10.0843 13.1725C10.0898 13.1242 10.0953 13.076 10.1009 13.0263Z" fill="#5B75CD"/>
<path d="M6.96091 23.4912C6.96091 23.5402 6.96091 23.5892 6.96091 23.6396C6.86104 23.6151 6.76116 23.5906 6.65826 23.5654C6.78038 23.4855 6.82033 23.4837 6.96091 23.4912Z" fill="#367DEF"/>
<path d="M12.4842 8.98141C12.4967 9.01815 12.5092 9.05489 12.5221 9.09274C12.4097 9.18459 12.4097 9.18459 12.2951 9.27829C12.2701 9.26604 12.2451 9.2538 12.2194 9.24118C12.3068 9.15546 12.3942 9.06974 12.4842 8.98141Z" fill="#E66957"/>
<path d="M10.3279 12.247C10.3528 12.2593 10.3778 12.2715 10.4035 12.2841C10.3661 12.4311 10.3286 12.5781 10.29 12.7295C10.2775 12.7295 10.2651 12.7295 10.2522 12.7295C10.2522 12.6315 10.2522 12.5335 10.2522 12.4326C10.2772 12.4326 10.3021 12.4326 10.3279 12.4326C10.3279 12.3714 10.3279 12.3101 10.3279 12.247Z" fill="#5475D8"/>
<path d="M1.05929 11.6533C1.08426 11.6533 1.10923 11.6533 1.13496 11.6533C1.13496 11.7145 1.13496 11.7758 1.13496 11.8388C1.10999 11.8388 1.08502 11.8388 1.05929 11.8388C1.04681 11.8756 1.03433 11.9123 1.02146 11.9502C0.996494 11.9379 0.971526 11.9257 0.945801 11.9131C0.983253 11.8273 1.02071 11.7416 1.05929 11.6533Z" fill="#3979F7"/>
<path d="M26.9357 9.38962C27.1201 9.52414 27.1201 9.52414 27.1627 9.64938C27.1127 9.66163 27.0628 9.67388 27.0113 9.68649C26.9864 9.58852 26.9614 9.49056 26.9357 9.38962Z" fill="#F6DD3B"/>
<path d="M15.0946 22.6748C15.0733 22.7444 15.0733 22.7444 15.0189 22.8232C14.8818 22.8696 14.8818 22.8696 14.7541 22.8974C14.9735 22.6748 14.9735 22.6748 15.0946 22.6748Z" fill="#FECC3D"/>
<path d="M10.7818 11.1709C10.8068 11.1831 10.8318 11.1954 10.8575 11.208C10.8405 11.263 10.8231 11.3178 10.8055 11.3727C10.7958 11.4032 10.7862 11.4338 10.7762 11.4653C10.744 11.542 10.744 11.542 10.6683 11.5791C10.6808 11.4933 10.6933 11.4076 10.7062 11.3193C10.7311 11.3193 10.7561 11.3193 10.7818 11.3193C10.7818 11.2703 10.7818 11.2213 10.7818 11.1709Z" fill="#6674C8"/>
<path d="M16.9861 21.1533C16.9986 21.1778 17.0111 21.2023 17.024 21.2275C16.9365 21.3203 16.9365 21.3203 16.8348 21.4131C16.7974 21.4131 16.7599 21.4131 16.7213 21.4131C16.8087 21.3273 16.8961 21.2416 16.9861 21.1533Z" fill="#FFCA3A"/>
<path d="M17.5914 20.4482C17.6293 20.5595 17.6293 20.5595 17.582 20.6593C17.5601 20.6876 17.5383 20.7159 17.5158 20.7451C17.4783 20.7451 17.4409 20.7451 17.4023 20.7451C17.4542 20.6355 17.5153 20.5432 17.5914 20.4482Z" fill="#FDC640"/>
</svg>
