<svg width="30" height="30" viewBox="0 0 30 30" fill="none" xmlns="http://www.w3.org/2000/svg">
<path d="M3.24037 18.5301C3.24037 19.6223 3.49179 20.4609 3.82042 20.9682C4.25129 21.6327 4.89394 21.9142 5.5491 21.9142C6.39414 21.9142 7.1672 21.7143 8.65698 19.7496C9.85047 18.1749 11.2568 15.9646 12.203 14.5788L13.8055 12.2312C14.9186 10.6008 16.2071 8.78832 17.6843 7.55979C18.8903 6.55707 20.1913 6 21.5006 6C23.6987 6 25.7925 7.21461 27.395 9.49262C29.1487 11.9875 30 15.1299 30 18.3729C30 20.3007 29.6015 21.7173 28.9234 22.8364C28.2682 23.9187 26.9912 25 24.8432 25V21.9142C26.6824 21.9142 27.1415 20.3027 27.1415 18.4584C27.1415 15.8303 26.4988 12.9136 25.0831 10.8296C24.0785 9.35136 22.7765 8.44812 21.3441 8.44812C19.7948 8.44812 18.5481 9.56225 17.147 11.5488C16.4021 12.6042 15.6374 13.8905 14.7788 15.3418L13.8336 16.9384C11.9349 20.1485 11.454 20.8797 10.5046 22.0863C8.84059 24.1992 7.41967 25 5.5491 25C3.33009 25 1.9269 24.0838 1.05787 22.7031C0.348449 21.578 0 20.1018 0 18.4196L3.24037 18.5301Z" fill="#0085F4"/>
<path d="M2.55495 9.71047C4.04055 7.52696 6.18445 6 8.64341 6C10.0675 6 11.4832 6.40188 12.9615 7.55283C14.5785 8.8112 16.302 10.8833 18.4521 14.2983L19.2231 15.5239C21.0843 18.4803 22.1432 20.0013 22.7629 20.7185C23.56 21.6397 24.1181 21.9142 24.8432 21.9142C26.6824 21.9142 27.1415 20.3027 27.1415 18.4584L30 18.3729C30 20.3007 29.6015 21.7173 28.9234 22.8364C28.2682 23.9187 26.9912 25 24.8432 25C23.5078 25 22.3247 24.7235 21.0165 23.5466C20.0108 22.6434 18.835 21.0388 17.9305 19.5964L15.2399 15.311C13.89 13.1603 12.6516 11.5568 11.9349 10.8306C11.1639 10.0497 10.1728 9.10665 8.59125 9.10665C7.31117 9.10665 6.22409 9.96314 5.31437 11.2732L2.55495 9.71047Z" fill="#0085F4"/>
<path d="M8.59125 9.10665C7.31117 9.10665 6.22409 9.96314 5.31437 11.2732C4.02803 13.1245 3.24037 15.882 3.24037 18.5301C3.24037 19.6223 3.49179 20.4609 3.82042 20.9682L1.05787 22.7031C0.348449 21.578 0 20.1018 0 18.4196C0 15.3607 0.880512 12.1725 2.55495 9.71047C4.04055 7.52696 6.18445 6 8.64341 6L8.59125 9.10665Z" fill="#0085F4"/>
</svg>
