<svg width="31" height="30" viewBox="0 0 31 30" fill="none" xmlns="http://www.w3.org/2000/svg">
<path d="M15.9382 28C17.0978 28 18.037 27.0882 18.037 25.9625V8.30408H13.8394V25.9625C13.8394 27.0882 14.7786 28 15.9382 28Z" fill="#F9AB00"/>
<path d="M24.3001 14.7477C22.0369 12.5523 18.6561 12.1074 15.9381 13.4115L24.9228 22.1337C25.2936 22.4936 25.9319 22.351 26.0893 21.8671C26.8799 19.4374 26.2835 16.6749 24.3001 14.7477Z" fill="#5BB974"/>
<path d="M7.5761 14.7477C9.83932 12.5523 13.2201 12.1074 15.9381 13.4115L6.95346 22.1337C6.58267 22.4936 5.94428 22.351 5.78687 21.8671C4.99632 19.4374 5.59273 16.6749 7.5761 14.7477Z" fill="#129EAF"/>
<path d="M23.6337 7.97809C20.0588 7.97809 17.0242 10.2533 15.9381 13.4114H30.147C30.7295 13.4114 31.1177 12.8138 30.8536 12.3095C29.5034 9.73714 26.7785 7.97809 23.6337 7.97809Z" fill="#AF5CF7"/>
<path d="M17.423 4.2868C14.8939 6.74199 14.4059 10.4316 15.9381 13.4114L25.9861 3.65687C26.3989 3.25616 26.238 2.5668 25.6835 2.39191C22.8536 1.5005 19.646 2.12874 17.423 4.2868Z" fill="#FF8BCB"/>
<path d="M14.4532 4.2868C16.9823 6.74199 17.4703 10.4316 15.9381 13.4114L5.89008 3.65687C5.47731 3.25616 5.63822 2.5668 6.19265 2.39191C9.02255 1.5005 12.2302 2.12874 14.4532 4.2868Z" fill="#FA7B17"/>
<path d="M8.24247 7.97809C11.8174 7.97809 14.852 10.2533 15.9381 13.4114H1.72917C1.14675 13.4114 0.758471 12.8138 1.02257 12.3095C2.3728 9.73714 5.09776 7.97809 8.24247 7.97809Z" fill="#4285F4"/>
</svg>
