<svg width="30" height="30" viewBox="0 0 30 30" fill="none" xmlns="http://www.w3.org/2000/svg">
<g clip-path="url(#clip0_1357_2150)">
<path fill-rule="evenodd" clip-rule="evenodd" d="M17.9506 21.2688C13.0707 21.2688 12.0477 19.0716 12.0477 17.2088C12.0477 17.1246 12.0816 17.0439 12.142 16.9844C12.2024 16.9248 12.2843 16.8914 12.3697 16.8914H13.8114C13.888 16.8917 13.962 16.9188 14.0201 16.9681C14.0783 17.0173 14.1167 17.0853 14.1284 17.1599C14.3464 18.6077 14.9929 19.3377 17.9456 19.3377C20.2963 19.3377 21.2946 18.8079 21.2946 17.5872C21.2946 16.8792 21.0097 16.3665 17.3585 16.0027C14.3043 15.7049 12.4044 15.0432 12.4044 12.6336C12.4044 10.4168 14.3018 9.09598 17.4824 9.09598C21.0543 9.09598 22.8229 10.3167 23.0459 12.9436C23.0495 12.988 23.0436 13.0327 23.0287 13.0747C23.0138 13.1168 22.9901 13.1553 22.9592 13.1878C22.9273 13.2208 22.8889 13.247 22.8462 13.2646C22.8036 13.2823 22.7577 13.291 22.7115 13.2903H21.2872C21.2148 13.2905 21.1445 13.2664 21.0878 13.2221C21.0311 13.1777 20.9913 13.1157 20.975 13.0462C20.6258 11.5252 19.7836 11.0369 17.4898 11.0369C14.9236 11.032 14.6239 11.9134 14.6239 12.5725C14.6239 13.3733 14.9756 13.6077 18.4385 14.0594C21.9015 14.511 23.4967 15.1458 23.4967 17.5164C23.4967 19.887 21.4705 21.2835 17.9357 21.2835L17.9506 21.2688ZM14.505 30.0091C14.0946 30.0093 13.6914 29.9032 13.3358 29.7015L9.62019 27.5286C9.06285 27.221 9.33532 27.1136 9.51863 27.0403C10.1096 26.8573 10.6753 26.6031 11.203 26.2835C11.2471 26.2631 11.2958 26.2542 11.3443 26.2576C11.3929 26.261 11.4398 26.2767 11.4805 26.303L14.3415 27.9754C14.395 28.003 14.4545 28.0174 14.5149 28.0174C14.5753 28.0174 14.6348 28.003 14.6883 27.9754L25.8351 21.6277C25.8872 21.5969 25.9304 21.5532 25.9604 21.501C25.9904 21.4488 26.0061 21.3898 26.006 21.3299V8.65897C26.0062 8.59803 25.9903 8.53808 25.9599 8.485C25.9295 8.43193 25.8856 8.38756 25.8326 8.35624L14.6858 2.00858C14.6335 1.97856 14.5741 1.96274 14.5136 1.96274C14.4531 1.96274 14.3937 1.97856 14.3415 2.00858L3.19468 8.35624C3.1412 8.38667 3.09679 8.43044 3.06592 8.48316C3.03505 8.53587 3.0188 8.59567 3.01881 8.65653V21.3518C3.01866 21.4118 3.03463 21.4707 3.06509 21.5226C3.09555 21.5745 3.13941 21.6175 3.19221 21.6473L6.24643 23.3855C7.89863 24.1936 8.92661 23.2293 8.92661 22.2625V9.74052C8.92627 9.69854 8.93446 9.65692 8.95068 9.6181C8.9669 9.57929 8.99083 9.54406 9.02106 9.51449C9.05129 9.48492 9.08722 9.4616 9.12672 9.44591C9.16623 9.43023 9.20852 9.42248 9.25111 9.42313H10.6606C10.7029 9.42281 10.745 9.4308 10.7842 9.44663C10.8234 9.46247 10.859 9.48583 10.889 9.51537C10.919 9.5449 10.9427 9.58002 10.9587 9.61867C10.9748 9.65733 10.9829 9.69875 10.9826 9.74052V22.2674C10.9826 24.4475 9.77624 25.6853 7.68065 25.6853C7.03661 25.6853 6.52633 25.6853 5.10945 24.9969L2.16918 23.3465C1.81362 23.1422 1.51858 22.8496 1.31345 22.4979C1.10832 22.1462 1.00025 21.7477 1 21.3421L1 8.64677C0.999247 8.24092 1.1069 7.84203 1.31213 7.49018C1.51736 7.13834 1.81295 6.84594 2.16918 6.64237L13.3333 0.294714C13.6931 0.101331 14.0964 0 14.5062 0C14.916 0 15.3193 0.101331 15.6791 0.294714L26.8259 6.64237C27.1845 6.84673 27.482 7.14087 27.6882 7.495C27.8944 7.84913 28.0019 8.25068 28 8.65897V21.3543C27.999 21.7598 27.8906 22.158 27.6856 22.5096C27.4805 22.8611 27.1859 23.1538 26.8308 23.3587L15.684 29.7063C15.3267 29.9084 14.9219 30.0145 14.5099 30.014L14.505 30.0091Z" fill="#539E43"/>
</g>
<defs>
<clipPath id="clip0_1357_2150">
<rect width="30" height="30" fill="white"/>
</clipPath>
</defs>
</svg>
