<svg width="30" height="30" viewBox="0 0 30 30" fill="none" xmlns="http://www.w3.org/2000/svg">
<path d="M22.4287 21.8392C22.6188 20.2495 22.5619 20.0164 23.7417 20.2739L24.0413 20.3003C24.9485 20.3417 26.1353 20.1539 26.8325 19.8288C28.3334 19.1299 29.2234 17.963 27.7435 18.2696C24.3676 18.9685 24.1355 17.8213 24.1355 17.8213C27.7003 12.5133 29.1904 5.77532 27.9042 4.126C24.3959 -0.372755 18.3231 1.7546 18.2215 1.80984L18.1891 1.81583C17.5221 1.67694 16.7756 1.59396 15.937 1.58035C14.4094 1.55516 13.2502 1.98227 12.3708 2.65161C12.3708 2.65161 1.53735 -1.82755 2.04135 8.2846C2.14854 10.4357 5.11384 24.5619 8.65052 20.2952C9.94315 18.735 11.1924 17.4158 11.1924 17.4158C11.8127 17.8293 12.5553 18.0403 13.3343 17.9645L13.3945 17.913C13.3756 18.1067 13.3839 18.2962 13.4186 18.5205C12.5076 19.5421 12.7753 19.7215 10.9538 20.0977C9.11088 20.4789 10.1936 21.1575 10.9003 21.3349C11.7572 21.55 13.7397 21.8546 15.0796 19.9727L15.0262 20.1874C15.3837 20.4743 15.3595 22.2498 15.4102 23.5184C15.4609 24.787 15.5455 25.9708 15.8032 26.6688C16.0609 27.3666 16.3649 29.1644 18.7588 28.6495C20.7596 28.2192 22.2893 27.6 22.4287 21.8392Z" fill="black" stroke="black" stroke-width="2"/>
<path d="M27.7438 18.2695C24.3676 18.9684 24.1355 17.8212 24.1355 17.8212C27.7003 12.5129 29.1904 5.77472 27.9044 4.1256C24.3962 -0.372885 18.3231 1.75461 18.2218 1.80984L18.1892 1.8157C17.5221 1.67674 16.7756 1.59396 15.9367 1.58022C14.409 1.5551 13.2502 1.98214 12.3709 2.65134C12.3709 2.65134 1.53717 -1.82761 2.04103 8.28447C2.14822 10.4357 5.11345 24.5619 8.65027 20.2952C9.94297 18.735 11.192 17.4158 11.192 17.4158C11.8124 17.8293 12.555 18.0403 13.3336 17.9645L13.3941 17.913C13.3753 18.1067 13.3839 18.2962 13.4183 18.5205C12.5072 19.5421 12.7749 19.7215 10.9535 20.0977C9.1105 20.4789 10.1932 21.1576 10.9001 21.3349C11.7571 21.55 13.7397 21.8546 15.0793 19.9727L15.0259 20.1874C15.3829 20.4743 15.6336 22.054 15.5915 23.4858C15.5495 24.9178 15.5215 25.9009 15.8028 26.6688C16.0841 27.4366 16.3644 29.1644 18.7588 28.6495C20.7595 28.2192 21.7963 27.1042 21.9406 25.2442C22.0429 23.9219 22.2745 24.1174 22.2892 22.9352L22.475 22.3755C22.6892 20.5831 22.509 20.0048 23.7416 20.2738L24.0412 20.3002C24.9484 20.3416 26.1358 20.1537 26.8327 19.8287C28.3333 19.1297 29.2233 17.9628 27.7437 18.2695H27.7438Z" fill="#336791"/>
<path d="M15.2242 19.2969C15.1313 22.6322 15.2476 25.9907 15.5728 26.807C15.8981 27.6232 16.5945 29.2109 18.9891 28.696C20.9896 28.2656 21.7175 27.4327 22.0334 25.5941C22.266 24.2415 22.7145 20.4848 22.772 19.7151" stroke="white" stroke-linecap="round" stroke-linejoin="round"/>
<path d="M12.3541 2.57685C12.3541 2.57685 1.51305 -1.86984 2.01704 8.24225C2.12423 10.3935 5.08967 24.5202 8.62641 20.2532C9.91885 18.6928 11.0877 17.469 11.0877 17.469" stroke="white" stroke-linecap="round" stroke-linejoin="round"/>
<path d="M18.2099 1.76525C17.8346 1.88333 24.2403 -0.584791 27.8808 4.08351C29.1667 5.73269 27.6765 12.4708 24.1119 17.7793" stroke="white" stroke-linecap="round" stroke-linejoin="round"/>
<path d="M24.1118 17.7793C24.1118 17.7793 24.3441 18.9268 27.7204 18.2274C29.1997 17.9208 28.3094 19.0878 26.8091 19.7871C25.5778 20.3606 22.8173 20.5075 22.7722 19.7151C22.6562 17.6704 24.2251 18.2916 24.1118 17.7793ZM24.1118 17.7793C24.0095 17.3179 23.3079 16.865 22.8437 15.7358C22.4386 14.7501 17.2866 7.19152 24.2725 8.3141C24.5284 8.26096 22.4505 1.64555 15.9127 1.53798C9.37634 1.43041 9.59078 9.60488 9.59078 9.60488" stroke="white" stroke-linecap="round" stroke-linejoin="bevel"/>
<path d="M13.3945 18.4785C12.4832 19.5001 12.7512 19.6794 10.9297 20.0558C9.08668 20.4371 10.1695 21.1156 10.8762 21.2929C11.7332 21.5081 13.7158 21.8127 15.0554 19.9303C15.4633 19.3571 15.053 18.4426 14.4926 18.2095C14.2219 18.0969 13.8598 17.9559 13.3945 18.4785Z" stroke="white" stroke-linecap="round" stroke-linejoin="round"/>
<path d="M13.3348 18.4607C13.243 17.86 13.5315 17.1453 13.8406 16.3091C14.3052 15.0545 15.3772 13.7997 14.5196 9.81995C13.8805 6.85426 9.59341 9.20276 9.59073 9.60488C9.58811 10.0069 9.78463 11.6431 9.51911 13.5485C9.17265 16.0349 11.0956 18.1378 13.3099 17.9226" stroke="white" stroke-linecap="round" stroke-linejoin="round"/>
<path d="M12.3147 9.54461C12.2954 9.68195 12.5653 10.0484 12.9172 10.0974C13.2685 10.1466 13.5691 9.86018 13.5882 9.72297C13.6073 9.58563 13.3377 9.43434 12.9857 9.38517C12.6342 9.33593 12.3334 9.4076 12.3148 9.54461H12.3147Z" fill="white" stroke="white"/>
<path d="M23.015 9.26458C23.0341 9.40193 22.7645 9.76842 22.4125 9.81739C22.061 9.86656 21.7603 9.58015 21.741 9.44295C21.7224 9.3056 21.992 9.15432 22.3437 9.10515C22.6953 9.05598 22.9959 9.12758 23.015 9.26465V9.26458Z" fill="white" stroke="white"/>
<path d="M24.2725 8.31412C24.3304 9.39144 24.0412 10.1252 24.0048 11.2721C23.9508 12.939 24.7967 14.847 23.5222 16.7573" stroke="white" stroke-linecap="round" stroke-linejoin="round"/>
</svg>
