<?xml version="1.0" encoding="UTF-8"?><svg id="uuid-969c9806-9d7a-46dc-9887-54496436cb71" xmlns="http://www.w3.org/2000/svg" viewBox="0 0 490.72 379.46"><defs><style>.uuid-7c788110-9e67-4bf5-83fd-1bd7f49b99d3{fill:#0e74bb;}.uuid-4405de11-f585-4b7b-ad2e-5bb1caee6961{fill:#fff;}.uuid-e1ef1833-2203-4518-87fc-dc0ea3255d2b{fill:#7ca0fc;}.uuid-9994dbab-061c-420b-88f1-31f3083633d8{fill:#587be1;}.uuid-4543380a-4cf1-440a-a415-611027413172{fill:#080717;}.uuid-cf23c1bf-a6b4-4a10-8b7c-66bfa42509ec{fill:#1d1d1b;}.uuid-fee321dd-d87b-48a4-af70-8eb43c7856e2{fill:#be1d2d;}</style></defs><rect class="uuid-7c788110-9e67-4bf5-83fd-1bd7f49b99d3" x="154.36" y="119.63" width="336.35" height="257.81" rx="10.41" ry="10.41" transform="translate(645.08 497.07) rotate(180)"/><path class="uuid-4543380a-4cf1-440a-a415-611027413172" d="M171.11,119.63h302.87c9.25,0,16.74,7.5,16.74,16.74v10.41H154.36v-10.41c0-9.25,7.5-16.74,16.74-16.74Z"/><path class="uuid-7c788110-9e67-4bf5-83fd-1bd7f49b99d3" d="M466.62,133.81c0,2.83,2.3,5.13,5.13,5.13s5.13-2.3,5.13-5.13-2.3-5.13-5.13-5.13-5.13,2.3-5.13,5.13Z"/><path class="uuid-7c788110-9e67-4bf5-83fd-1bd7f49b99d3" d="M450.83,133.81c0,2.83,2.3,5.13,5.13,5.13s5.13-2.3,5.13-5.13-2.3-5.13-5.13-5.13-5.13,2.3-5.13,5.13Z"/><path class="uuid-7c788110-9e67-4bf5-83fd-1bd7f49b99d3" d="M435.03,133.81c0,2.83,2.3,5.13,5.13,5.13s5.13-2.3,5.13-5.13-2.3-5.13-5.13-5.13-5.13,2.3-5.13,5.13Z"/><path class="uuid-9994dbab-061c-420b-88f1-31f3083633d8" d="M106,173.57l-61.16,171.24L0,379.46h79.5l58.06-155.36c11.38-30.44,14.55-63.33,9.21-95.39h-32.62l-8.15,44.85Z"/><path class="uuid-9994dbab-061c-420b-88f1-31f3083633d8" d="M90.21,126.68L20.93,194.94c-17.39,17.13-13.56,46.15,7.68,58.18l95.24,53.97,30.58,38.22v-77.97l-88.68-55.04,29.05-38.22,22.93,6.12-3.57-51.47-23.95-2.04Z"/><path d="M127.62,250.71l9.94-26.6c11.38-30.44,14.55-63.33,9.21-95.39h-32.62l-23.95-2.04L20.93,194.94c-17.39,17.13-13.56,46.15,7.68,58.18l40.74,23.09-24.5,68.59L0,379.46h79.5l30.07-80.45,14.27,8.09,30.58,38.22v-77.97l-26.8-16.63ZM65.74,212.3l29.05-38.22,10.07,2.69-17.49,48.96-21.63-13.43Z"/><path d="M185.08,71.1s9.44-30.92,15.73-34.23c6.29-3.31-4.19-11.04-11.53-5.52-7.34,5.52-1.05,9.94-1.05,9.94,0,0,20.97-20.98,4.19-26.5-16.78-5.52-20.97-6.62-24.12,3.31-3.15,9.94,12.58,9.94,9.44,1.1-3.15-8.83-34.6-32.02-30.41-9.94,4.19,22.08,3.15,14.35,8.39,12.15,5.24-2.21-13.63-20.98-18.87-12.15-5.24,8.83-4.19,22.08-1.05,25.4,3.15,3.31,1.05,0,4.19,8.83,3.15,8.83,18.87,5.52,25.17,14.35,6.29,8.83,5.24,8.83,19.92,13.25Z"/><path class="uuid-e1ef1833-2203-4518-87fc-dc0ea3255d2b" d="M84.19,132.76l19.67-40.51c4.67-9.77,13.66-16.78,24.28-18.92l67.4-13.59,23.78,21.74-71.4,87.78h0c-7.35-10.8-17.84-19.08-30.05-23.72l-33.68-12.79Z"/><rect class="uuid-4405de11-f585-4b7b-ad2e-5bb1caee6961" x="86.56" y="264.72" width="3.22" height="48.57" transform="translate(-208.21 230.24) rotate(-61.82)"/><rect class="uuid-4405de11-f585-4b7b-ad2e-5bb1caee6961" x="106.69" y="212.51" width="3.22" height="48.51" transform="translate(-150.06 204.55) rotate(-58.31)"/><path class="uuid-e1ef1833-2203-4518-87fc-dc0ea3255d2b" d="M291.6,119.56h-87.4c-9.57,0-17.33-7.76-17.33-17.33,0-3.67,1.14-7.07,3.09-9.87-7.2-3.05-11.66-10.72-10.33-18.77,1.55-9.44,10.47-15.84,19.91-14.28l95.5,15.72c11.36,1.87,19.19,12.2,18.23,24.03-.96,11.69-10.27,20.51-21.66,20.51ZM289.41,109.21h.02-.02Z"/><path class="uuid-cf23c1bf-a6b4-4a10-8b7c-66bfa42509ec" d="M90.16,128.4c-.42,0-.85-.17-1.16-.5-.61-.64-.59-1.66.05-2.27l38.09-36.46c.64-.61,1.66-.59,2.27.05.61.64.59,1.66-.05,2.27l-38.09,36.46c-.31.3-.71.45-1.11.45Z"/><path class="uuid-4405de11-f585-4b7b-ad2e-5bb1caee6961" d="M180.86,40.81s-8.72,4.13-14.23-7.34l-5.51-11.47s-9.64,4.13-12.85-.92c-3.21-5.05-10.55,16.52-9.18,33.04,1.38,16.52,16.18,26.41,31.66,15.14,5.05-3.67,8.52-3.84,13.31-5.51,10.55-3.67,5.51-13.77.46-11.93-5.05,1.84-5.05,5.51-6.88,3.21-1.84-2.29-1.58-10.25,3.21-14.23Z"/><path d="M157.52,75.71c-2.61,0-5.16-.55-7.58-1.66-7.02-3.21-11.67-10.62-12.44-19.8-1.16-13.85,3.79-33.69,8.82-35.38,1.26-.43,2.51.08,3.31,1.35,2.41,3.79,10.77.34,10.86.3.8-.34,1.71,0,2.08.78l5.51,11.47c4.76,9.91,11.79,6.72,12.09,6.58.73-.35,1.61-.09,2.04.59.43.68.29,1.58-.33,2.1-3.97,3.29-4.22,9.88-3.12,11.78.05-.05.09-.1.14-.14.89-.89,2.37-2.39,5.08-3.37,1.84-.67,3.81-.28,5.4,1.07,1.92,1.63,2.85,4.31,2.38,6.85-.34,1.82-1.72,5.16-7.16,7.05-1.33.46-2.54.81-3.71,1.14-3.07.87-5.71,1.63-9.18,4.15-4.69,3.41-9.54,5.14-14.19,5.14ZM147.04,22.13c-2.57,2.26-7.49,18.08-6.34,31.86.67,8.01,4.62,14.42,10.57,17.14,5.62,2.58,12.2,1.45,18.55-3.16,3.92-2.85,6.97-3.72,10.19-4.64,1.13-.32,2.3-.65,3.54-1.09,2.89-1.01,4.69-2.64,5.05-4.6.3-1.61-.44-3.07-1.3-3.81-.4-.34-1.22-.86-2.22-.5-2.03.74-3.11,1.82-3.89,2.61-.72.73-1.43,1.47-2.62,1.42-1.04-.06-1.74-.79-2.18-1.33-1.91-2.39-1.99-8.32.55-12.93-3.49-.05-8.28-1.69-11.76-8.95l-4.87-10.15c-3.06,1.02-10.12,2.73-13.27-1.89ZM179.13,54.28h.02-.02Z"/><path d="M152.59,48.59l-2.76-1.65c3.22-5.37,4.22-12.39,4.23-12.46l3.18.44c-.04.31-1.09,7.72-4.65,13.67Z"/><path d="M168.16,48.26l-3.17-.53c.49-2.91.73-6-1.19-6.82-.15-.06-.31-.1-.61.02-1.34.55-2.96,3.3-3.69,5.08l-2.98-1.21c.23-.57,2.34-5.56,5.45-6.84,1.04-.43,2.11-.43,3.1,0,4.49,1.93,3.51,7.8,3.09,10.31Z"/><path d="M148.9,44.39l-3.13-.74c.76-3.23.88-6.85.26-7.45-.87.05-3.51,3.71-3.51,7.36h-3.22c0-3.91,2.26-8.5,4.94-10.01,1.2-.68,2.43-.71,3.46-.08,2.98,1.79,1.83,8.24,1.2,10.93Z"/><path d="M151.5,62.75c-.37,0-.74-.03-1.11-.1-1.27-.24-3.04-1.04-4.29-3.51l2.87-1.45c.54,1.06,1.2,1.64,2.01,1.8,1.93.38,4.5-1.47,5.33-2.21l2.14,2.4c-.38.34-3.55,3.07-6.96,3.07Z"/><path class="uuid-4405de11-f585-4b7b-ad2e-5bb1caee6961" d="M234.19,73.54s-32.3,6.83-47.75,9.5-37.09,12.64-37.09,12.64c-23.24,8.42-36.45,26.42-37,27.18-1.98,2.74-1.37,6.56,1.37,8.55,2.73,1.99,6.57,1.38,8.56-1.35.04-.06,1.58-2.13,4.45-5.09-3.79,7.41-4.72,13.18-4.79,13.6-.51,3.33,1.78,6.43,5.11,6.96,2.36.37,4.62-.66,5.93-2.48.54-.75.92-1.63,1.08-2.61,0-.04.29-1.61,1.12-4.04-.29,2.44-.29,4-.28,4.21.05,3.37,2.82,6.05,6.19,6.01,2.02-.02,3.8-1.02,4.9-2.54.74-1.02,1.17-2.28,1.17-3.63,0-.12.06-10.94,7.58-22.13-5.14,9.22-5.1,17.11-5.09,17.55.06,3.36,2.81,6.02,6.17,6,2.02-.01,3.81-1.02,4.92-2.55.73-1.01,1.16-2.25,1.17-3.59,0-.3.09-5.77,3.99-12.25,7.98,3.48,16.76-3.87,16.76-3.87,0,0,85.02-2.3,87.62-2.29h0c-1.93-20.38-15.95-37.59-35.52-43.6l-.55-.17Z"/><path d="M141.02,148.24c-2.95,0-5.53-1.66-6.83-4.11-1.73,2.3-4.56,3.45-7.39,2.99-4.19-.66-7.08-4.6-6.44-8.79.02-.15.35-2.27,1.4-5.53-2.63,1.82-6.24,1.89-8.97-.09-3.44-2.5-4.22-7.34-1.73-10.79.56-.78,14.08-19.18,37.76-27.75.77-.36,21.89-10.04,37.37-12.71,15.24-2.63,47.36-9.42,47.69-9.49.27-.06.54-.04.8.04l.55.17c20.27,6.22,34.65,23.88,36.65,44.99.04.45-.11.9-.41,1.24-.3.33-.73.52-1.19.52,0,0-.01,0-.02,0-2.75,0-79.79,2.08-87.02,2.28-1.89,1.45-9.25,6.53-16.62,4.26-3.06,5.66-3.1,10.23-3.1,10.27,0,1.64-.52,3.21-1.48,4.53-1.44,2-3.77,3.2-6.22,3.21h-.05c-3.02,0-5.67-1.76-6.94-4.3-.07.8-.07,1.25-.07,1.27,0,1.66-.5,3.24-1.47,4.58-1.43,1.98-3.75,3.18-6.19,3.21h-.08ZM135.17,134.8c.12,0,.24.01.36.04.8.18,1.34.94,1.24,1.76-.29,2.47-.27,3.97-.27,3.98.04,2.46,2.06,4.44,4.52,4.44h.05c1.44-.02,2.76-.7,3.61-1.88.57-.78.87-1.71.86-2.68,0-.1.07-11.46,7.85-23.03.48-.72,1.44-.92,2.17-.47.74.45.98,1.4.57,2.15-4.94,8.87-4.89,16.43-4.89,16.74.04,2.44,2.06,4.41,4.52,4.41h.03c1.43,0,2.78-.71,3.63-1.88.56-.78.86-1.7.87-2.66,0-.24.05-6.14,4.22-13.07.42-.69,1.29-.96,2.02-.65,6.96,3.04,15.01-3.57,15.09-3.64.28-.23.63-.36.99-.37,3.22-.09,73.46-1.99,85.87-2.26-2.48-19.04-15.74-34.82-34.2-40.49l-.15-.05c-3.79.8-33.03,6.95-47.4,9.42-15.06,2.6-36.48,12.41-36.69,12.51-22.89,8.3-35.83,25.92-36.37,26.66-1.46,2.01-1,4.84,1.01,6.3,2.01,1.46,4.84,1.01,6.31-1,.02-.02,1.62-2.2,4.59-5.26.55-.57,1.44-.65,2.09-.19.65.46.86,1.33.5,2.04-3.72,7.27-4.6,12.87-4.63,13.11-.37,2.45,1.32,4.75,3.77,5.13,1.68.26,3.37-.43,4.37-1.83.41-.57.68-1.22.8-1.93.03-.2.34-1.82,1.18-4.3.23-.66.85-1.09,1.52-1.09Z"/><path class="uuid-fee321dd-d87b-48a4-af70-8eb43c7856e2" d="M137.99,107.44s-8.35,9.37-11.26,17.53l11.26-17.53Z"/><path d="M126.73,126.58c-.18,0-.36-.03-.54-.09-.84-.3-1.27-1.22-.97-2.06,2.99-8.36,11.23-17.67,11.58-18.06.59-.66,1.61-.72,2.27-.13.66.59.72,1.61.13,2.27-.08.09-8.18,9.24-10.95,17.01-.23.66-.85,1.07-1.51,1.07Z"/><path class="uuid-fee321dd-d87b-48a4-af70-8eb43c7856e2" d="M144.15,112.83s-7.98,11.6-8.98,23.57l8.98-23.57Z"/><path d="M135.17,138.02s-.09,0-.14,0c-.89-.07-1.54-.85-1.47-1.74,1.03-12.26,8.92-23.86,9.26-24.35.5-.73,1.51-.92,2.24-.41.73.5.92,1.5.41,2.24-.08.11-7.75,11.4-8.7,22.79-.07.84-.77,1.47-1.6,1.47Z"/><path class="uuid-4543380a-4cf1-440a-a415-611027413172" d="M201.93,204.73v78.84h-4.14s-4.95,0-4.95,0h-4.14v-78.84h13.24ZM205.15,201.52h-19.67v85.27h7.36s4.95,0,4.95,0h0s7.36,0,7.36,0v-85.27h0Z"/><path class="uuid-4543380a-4cf1-440a-a415-611027413172" d="M233.9,176.09v107.48h-4.14s-4.95,0-4.95,0h-4.14v-107.48h13.24ZM237.12,172.88h-19.67v113.91h7.36s4.95,0,4.95,0h0s7.36,0,7.36,0v-113.91h0Z"/><path class="uuid-4543380a-4cf1-440a-a415-611027413172" d="M265.88,230.78v52.79h-4.14s-4.95,0-4.95,0h-4.14v-52.79h13.24ZM269.1,227.57h-19.67v59.22h7.36s4.95,0,4.95,0h0s7.36,0,7.36,0v-59.22h0Z"/><path class="uuid-4543380a-4cf1-440a-a415-611027413172" d="M297.86,204.63v78.94h-4.14s-4.95,0-4.95,0h-4.14v-78.94h13.24ZM301.07,201.42h-19.67v85.37h7.36s4.95,0,4.95,0h0s7.36,0,7.36,0v-85.37h0Z"/><path class="uuid-4543380a-4cf1-440a-a415-611027413172" d="M329.83,189.07v94.51h-4.14s-4.95,0-4.95,0h-4.14v-94.51h13.24ZM333.05,185.85h-19.67v100.94h7.36s4.95,0,4.95,0h0s7.36,0,7.36,0v-100.94h0Z"/><path class="uuid-4543380a-4cf1-440a-a415-611027413172" d="M361.81,250.4v33.17h-4.14s-4.95,0-4.95,0h-4.14v-33.17h13.24ZM365.02,247.19h-19.67v39.61h7.36s4.95,0,4.95,0h0s7.36,0,7.36,0v-39.61h0Z"/><path class="uuid-4543380a-4cf1-440a-a415-611027413172" d="M393.78,214.34v69.23h-4.14s-4.95,0-4.95,0h-4.14v-69.23h13.24ZM397,211.13h-19.67v75.67h7.36s4.95,0,4.95,0h0s7.36,0,7.36,0v-75.67h0Z"/><path class="uuid-4543380a-4cf1-440a-a415-611027413172" d="M425.76,235.51v48.06h-4.14s-4.95,0-4.95,0h-4.14v-48.06h13.24ZM428.98,232.29h-19.67v54.5h7.36s4.95,0,4.95,0h0s7.36,0,7.36,0v-54.5h0Z"/><path class="uuid-4543380a-4cf1-440a-a415-611027413172" d="M457.73,249.83v33.75h-4.14s-4.95,0-4.95,0h-4.14v-33.75h13.24ZM460.95,246.61h-19.67v40.18h7.36s4.95,0,4.95,0h0s7.36,0,7.36,0v-40.18h0Z"/><path class="uuid-4543380a-4cf1-440a-a415-611027413172" d="M198.24,323.32h-11.04c-.89,0-1.61-.72-1.61-1.61v-11.04c0-.89.72-1.61,1.61-1.61h11.04c.89,0,1.61.72,1.61,1.61v11.04c0,.89-.72,1.61-1.61,1.61ZM188.81,320.1h7.82v-7.82h-7.82v7.82Z"/><path class="uuid-4543380a-4cf1-440a-a415-611027413172" d="M265.81,317.8h-54.55c-.89,0-1.61-.72-1.61-1.61s.72-1.61,1.61-1.61h54.55c.89,0,1.61.72,1.61,1.61s-.72,1.61-1.61,1.61Z"/><path class="uuid-4543380a-4cf1-440a-a415-611027413172" d="M198.24,342.89h-11.04c-.89,0-1.61-.72-1.61-1.61v-11.04c0-.89.72-1.61,1.61-1.61h11.04c.89,0,1.61.72,1.61,1.61v11.04c0,.89-.72,1.61-1.61,1.61ZM188.81,339.67h7.82v-7.82h-7.82v7.82Z"/><path class="uuid-4543380a-4cf1-440a-a415-611027413172" d="M303.5,337.37h-92.24c-.89,0-1.61-.72-1.61-1.61s.72-1.61,1.61-1.61h92.24c.89,0,1.61.72,1.61,1.61s-.72,1.61-1.61,1.61Z"/><path class="uuid-4543380a-4cf1-440a-a415-611027413172" d="M330.86,323.32h-11.04c-.89,0-1.61-.72-1.61-1.61v-11.04c0-.89.72-1.61,1.61-1.61h11.04c.89,0,1.61.72,1.61,1.61v11.04c0,.89-.72,1.61-1.61,1.61ZM321.43,320.1h7.82v-7.82h-7.82v7.82Z"/><path class="uuid-4543380a-4cf1-440a-a415-611027413172" d="M398.44,317.8h-54.55c-.89,0-1.61-.72-1.61-1.61s.72-1.61,1.61-1.61h54.55c.89,0,1.61.72,1.61,1.61s-.72,1.61-1.61,1.61Z"/><path class="uuid-4543380a-4cf1-440a-a415-611027413172" d="M330.86,342.89h-11.04c-.89,0-1.61-.72-1.61-1.61v-11.04c0-.89.72-1.61,1.61-1.61h11.04c.89,0,1.61.72,1.61,1.61v11.04c0,.89-.72,1.61-1.61,1.61ZM321.43,339.67h7.82v-7.82h-7.82v7.82Z"/><path class="uuid-4543380a-4cf1-440a-a415-611027413172" d="M436.13,337.37h-92.24c-.89,0-1.61-.72-1.61-1.61s.72-1.61,1.61-1.61h92.24c.89,0,1.61.72,1.61,1.61s-.72,1.61-1.61,1.61Z"/></svg>