<?xml version="1.0" encoding="UTF-8"?><svg id="uuid-931f7070-e1ff-4a64-8fac-9c606b75ff64" xmlns="http://www.w3.org/2000/svg" viewBox="0 0 391.37 396.86"><defs><style>.uuid-e598bf8a-c6e8-444d-9f51-614f0ab1dc37{fill:#0e74bb;}.uuid-490d2fd7-60df-4949-b6a6-604b8c4d965a{fill:#99b9ff;}.uuid-ed042d5b-714b-45fc-b34a-7d3995eb1cf4{fill:#fff;}.uuid-0f8911fd-7f02-41c9-8723-85de6dda2f00{fill:#080717;}.uuid-49653a4e-02c8-4a1d-9925-ec8f0cd2604f{fill:#1d1d1b;}</style></defs><path class="uuid-ed042d5b-714b-45fc-b34a-7d3995eb1cf4" d="M1.45,395.41l74.4-62.75,77.47,12.3,65.98-38.54,55.15-29.09-6.64-15.56,18.42-.55,22.44-53.61,25.75-16.85c9.86-7.35,12.36-21.07,5.72-31.42l-3.59-5.6-143.26,70.71h-89.16L1.45,271.79v123.62Z"/><path class="uuid-0f8911fd-7f02-41c9-8723-85de6dda2f00" d="M1.45,396.86c-.41,0-.82-.17-1.11-.52-.52-.61-.44-1.53.17-2.04l74.4-62.75c.32-.27.74-.39,1.16-.32l76.96,12.22,65.53-38.28,54.03-28.5-6.12-14.33c-.19-.44-.15-.95.11-1.35.26-.4.7-.65,1.18-.67l17.49-.53,22.08-52.75c.11-.27.3-.49.54-.65l25.75-16.85c9.13-6.81,11.49-19.76,5.3-29.43l-2.89-4.51-142.1,70.13c-.2.1-.42.15-.64.15h-88.84L2.06,273.11c-.73.34-1.59.02-1.92-.71-.34-.73-.02-1.59.71-1.92l102.68-47.34c.19-.09.4-.13.61-.13h88.82l142.96-70.56c.66-.33,1.46-.1,1.86.52l3.59,5.6c7.01,10.94,4.34,25.6-6.08,33.37l-25.46,16.66-22.26,53.2c-.22.52-.73.87-1.29.89l-16.3.49,5.81,13.6c.3.69,0,1.5-.66,1.85l-55.15,29.09-65.92,38.51c-.29.17-.63.23-.96.18l-76.82-12.19L2.38,396.52c-.27.23-.6.34-.93.34Z"/><path class="uuid-49653a4e-02c8-4a1d-9925-ec8f0cd2604f" d="M86.4,298.96l-1.31-2.59c29.66-14.96,52.03-40.46,63.01-71.81l2.74.96c-11.22,32.06-34.11,58.14-64.44,73.44Z"/><path class="uuid-49653a4e-02c8-4a1d-9925-ec8f0cd2604f" d="M119.93,283.15l11.98,14.11c6.21,7.32,16.04,10.47,25.35,8.15h0c3.09-.77,6-2.12,8.59-3.98l218.99-157.09c6.17-4.42,8.27-12.64,4.98-19.48h0c-1.81-3.76-5.04-6.65-8.99-8.01l-27.43-9.48c-4.76-1.65-10.03-.9-14.15,2.02l-216.76,153.43c-6.66,4.71-7.85,14.12-2.57,20.34Z"/><polygon class="uuid-e598bf8a-c6e8-444d-9f51-614f0ab1dc37" points="124.31 267.32 344.39 111.14 378.47 123.92 144.19 290.75 124.31 267.32"/><path class="uuid-ed042d5b-714b-45fc-b34a-7d3995eb1cf4" d="M194.7,240.11l27.05,63.33-55.95,29.51-5.53-26.44,19.68-9.84-1.74-20.25c-1.21-14.15,5.04-27.92,16.49-36.32h0Z"/><path class="uuid-ed042d5b-714b-45fc-b34a-7d3995eb1cf4" d="M246.48,211.3l24.33,64.43-57.16,27.1-4.4-26.65,20.08-8.99-.87-20.31c-.61-14.19,6.22-27.68,18.03-35.58h0Z"/><rect class="uuid-49653a4e-02c8-4a1d-9925-ec8f0cd2604f" x="213.58" y="264.42" width="2.9" height="40.53" transform="translate(-91.9 102.8) rotate(-22.28)"/><path class="uuid-ed042d5b-714b-45fc-b34a-7d3995eb1cf4" d="M150.13,225.43l9.96-18.81,17.22-3.69h0c5.17,11.38,18.34,16.73,29.99,12.19l4.45-1.74-9.22-43.66h-80.55l-66.41,79.32,94.57-23.61Z"/><path class="uuid-0f8911fd-7f02-41c9-8723-85de6dda2f00" d="M55.56,250.49c-.33,0-.66-.11-.93-.34-.61-.51-.7-1.43-.18-2.04l66.41-79.32c.27-.33.68-.52,1.11-.52h80.55c.69,0,1.28.48,1.42,1.15l9.22,43.66c.15.69-.23,1.39-.89,1.65l-4.45,1.74c-11.99,4.68-25.51-.53-31.32-11.88l-15.44,3.31-9.64,18.21c-.38.71-1.25.98-1.96.6-.71-.37-.98-1.25-.6-1.96l9.96-18.81c.2-.38.56-.65.98-.74l17.22-3.69c.67-.14,1.34.2,1.62.82,4.85,10.68,17.22,15.7,28.14,11.44l3.3-1.29-8.73-41.3h-78.69l-65.97,78.8c-.29.34-.7.52-1.11.52Z"/><path class="uuid-ed042d5b-714b-45fc-b34a-7d3995eb1cf4" d="M315.59,186.42l-24.26,57.96-40.09,1.2,30.1-46.87c8.49-9.79,21.47-14.45,34.25-12.29h0Z"/><rect class="uuid-49653a4e-02c8-4a1d-9925-ec8f0cd2604f" x="260.61" y="230.66" width="2.9" height="32.58" transform="translate(-73.06 115.22) rotate(-21.84)"/><rect class="uuid-0f8911fd-7f02-41c9-8723-85de6dda2f00" x="193.14" y="75.8" width="11.6" height="2.9"/><rect class="uuid-0f8911fd-7f02-41c9-8723-85de6dda2f00" x="197.49" y="71.45" width="2.9" height="11.6"/><rect class="uuid-0f8911fd-7f02-41c9-8723-85de6dda2f00" x="235.04" y="39.02" width="17.65" height="2.9"/><rect class="uuid-0f8911fd-7f02-41c9-8723-85de6dda2f00" x="242.42" y="31.65" width="2.9" height="17.66"/><rect class="uuid-0f8911fd-7f02-41c9-8723-85de6dda2f00" x="167.23" y="26.01" width="30.83" height="2.9"/><rect class="uuid-0f8911fd-7f02-41c9-8723-85de6dda2f00" x="181.2" y="12.04" width="2.9" height="30.83"/><rect class="uuid-0f8911fd-7f02-41c9-8723-85de6dda2f00" x="215.32" y="72.59" width="88.68" height="88.68" rx="8.71" ry="8.71" transform="translate(38.6 -62.59) rotate(14.84)"/><path class="uuid-ed042d5b-714b-45fc-b34a-7d3995eb1cf4" d="M260.09,126.72l-12.15,3.13c-2.76.71-5.25-1.83-4.49-4.57l3.36-12.09,3.36-12.09c.76-2.74,4.21-3.63,6.21-1.6l8.79,8.95,8.79,8.95c2,2.03,1.04,5.46-1.72,6.18l-12.15,3.13Z"/><rect class="uuid-490d2fd7-60df-4949-b6a6-604b8c4d965a" x="273.42" y="8.2" width="88.68" height="88.68" rx="8.71" ry="8.71" transform="translate(-2.53 86.43) rotate(-15.43)"/><path class="uuid-ed042d5b-714b-45fc-b34a-7d3995eb1cf4" d="M321.01,69.13c-8.59,2.26-17.41-2.89-19.67-11.48-2.26-8.59,2.89-17.41,11.48-19.67,8.59-2.26,17.41,2.89,19.66,11.48,2.26,8.59-2.89,17.41-11.48,19.66ZM315.03,46.4c-3.95,1.04-6.31,5.09-5.28,9.04,1.04,3.95,5.09,6.31,9.04,5.28,3.95-1.04,6.31-5.09,5.28-9.04-1.04-3.95-5.09-6.31-9.04-5.28Z"/><rect class="uuid-ed042d5b-714b-45fc-b34a-7d3995eb1cf4" x="308.08" y="30.64" width="8.7" height="11.75" transform="translate(.99 80.66) rotate(-14.73)"/><rect class="uuid-ed042d5b-714b-45fc-b34a-7d3995eb1cf4" x="317.04" y="64.73" width="8.7" height="11.75" transform="translate(-7.39 84.06) rotate(-14.73)"/><rect class="uuid-ed042d5b-714b-45fc-b34a-7d3995eb1cf4" x="293.99" y="53.69" width="11.75" height="8.7" transform="translate(-4.9 78.17) rotate(-14.73)"/><rect class="uuid-ed042d5b-714b-45fc-b34a-7d3995eb1cf4" x="328.08" y="44.73" width="11.75" height="8.7" transform="translate(-1.5 86.54) rotate(-14.73)"/><rect class="uuid-ed042d5b-714b-45fc-b34a-7d3995eb1cf4" x="302.15" y="64.44" width="11.75" height="8.7" transform="translate(93.39 300.18) rotate(-59.74)"/><rect class="uuid-ed042d5b-714b-45fc-b34a-7d3995eb1cf4" x="319.92" y="33.99" width="11.75" height="8.7" transform="translate(128.5 300.42) rotate(-59.74)"/><rect class="uuid-ed042d5b-714b-45fc-b34a-7d3995eb1cf4" x="297.34" y="38.81" width="8.7" height="11.75" transform="translate(111.11 282.78) rotate(-59.75)"/><rect class="uuid-ed042d5b-714b-45fc-b34a-7d3995eb1cf4" x="327.78" y="56.57" width="8.7" height="11.75" transform="translate(110.78 317.82) rotate(-59.73)"/><path class="uuid-0f8911fd-7f02-41c9-8723-85de6dda2f00" d="M124.3,135.64c-5.09,0-9.78-3.37-11.22-8.5l-13.82-49.33c-.84-3-.46-6.14,1.06-8.85,1.52-2.71,4.01-4.67,7.01-5.5l49.33-13.82c6.18-1.73,12.62,1.89,14.35,8.07l13.82,49.33c.84,3,.46,6.14-1.06,8.85-1.52,2.71-4.01,4.67-7.01,5.5l-49.33,13.82c-1.04.29-2.1.43-3.14.43ZM159.81,52.1c-.78,0-1.57.1-2.35.32l-49.33,13.82c-2.25.63-4.12,2.1-5.26,4.13-1.15,2.04-1.43,4.4-.8,6.64l13.82,49.33c1.3,4.64,6.13,7.37,10.78,6.06l49.33-13.82h0c2.25-.63,4.12-2.1,5.26-4.13,1.15-2.04,1.43-4.4.8-6.64l-13.82-49.33c-1.08-3.86-4.6-6.39-8.43-6.39Z"/><path class="uuid-0f8911fd-7f02-41c9-8723-85de6dda2f00" d="M165.59,108.08l-1.4-5.24c-1.54-5.79-7.49-9.22-13.27-7.68l-18.33,4.89c-5.78,1.54-9.22,7.49-7.68,13.27l1.4,5.24,39.28-10.49Z"/><path class="uuid-0f8911fd-7f02-41c9-8723-85de6dda2f00" d="M146.37,78.14c-1.35-5.06-6.55-8.07-11.61-6.72-5.06,1.35-8.07,6.55-6.72,11.61,1.35,5.06,6.55,8.07,11.61,6.72,5.06-1.35,8.07-6.55,6.72-11.61Z"/></svg>