<?xml version="1.0" encoding="utf-8"?>
<!-- Generator: Adobe Illustrator 27.5.0, SVG Export Plug-In . SVG Version: 6.00 Build 0)  -->
<svg version="1.1" id="Layer_1" xmlns="http://www.w3.org/2000/svg" xmlns:xlink="http://www.w3.org/1999/xlink" x="0px" y="0px"
     viewBox="0 0 5000 5000" style="enable-background:new 0 0 5000 5000;" xml:space="preserve">
<g id="Project_Startup">
	<g>
		<g>
			<g>
				<g style="opacity:0.3;">
					<g>
						<path style="fill:#D2E4FF;" d="M707.548,3818.438h2050.376l1186.042-21.035c238.405-102.533,439.105-278.498,556.995-493.474
							c144.654-263.778,162.569-582.388,48.322-857.436c-57.595-138.671-162.432-319.967-310.743-388.702
							c-239.112-110.817-473.957-240.826-662.063-429.147c-207.938-208.119-389.637-443.476-615.157-632.287
							c-225.437-188.811-509.904-331.14-802.276-305.634c-336.859,29.349-624.599,281.128-778.769,583.487
							c-105.375,206.738-157.661,435.915-184.128,665.461c-23.181,201.401,11.711,442.169-165.073,584.994
							c-58.685,47.387-133.604,73.826-202.043,108.828c-240.344,123.221-400.64,367.035-406.018,617.851
							C418.344,3466.498,527.928,3679.913,707.548,3818.438z"/>
					</g>
				</g>
                <g>
					<g>
						<line style="fill:#BDD6FF;" x1="1493.347" y1="3036.744" x2="1845.607" y2="3036.744"/>
                        <path style="fill:#C6E2FA;" d="M1845.607,3039.892h-352.259c-1.737,0-3.146-1.409-3.146-3.146
							c0-1.737,1.409-3.146,3.146-3.146h352.259c1.737,0,3.146,1.409,3.146,3.146
							C1848.753,3038.483,1847.344,3039.892,1845.607,3039.892z"/>
					</g>
                    <g>
						<line style="fill:#BDD6FF;" x1="1493.347" y1="3211.369" x2="1845.607" y2="3211.369"/>
                        <path style="fill:#C6E2FA;" d="M1845.607,3214.514h-352.259c-1.737,0-3.146-1.409-3.146-3.146
							c0-1.737,1.409-3.146,3.146-3.146h352.259c1.737,0,3.146,1.409,3.146,3.146
							C1848.753,3213.105,1847.344,3214.514,1845.607,3214.514z"/>
					</g>
                    <g>
						<line style="fill:#BDD6FF;" x1="1283.345" y1="3124.056" x2="1781.628" y2="3124.056"/>
                        <path style="fill:#C6E2FA;" d="M1781.627,3127.203h-498.282c-1.737,0-3.146-1.409-3.146-3.146
							c0-1.737,1.409-3.146,3.146-3.146h498.282c1.737,0,3.146,1.409,3.146,3.146
							C1784.774,3125.794,1783.364,3127.203,1781.627,3127.203z"/>
					</g>
                    <g>
						<line style="fill:#BDD6FF;" x1="1565.835" y1="2962.523" x2="1565.835" y2="3036.744"/>
                        <path style="fill:#C6E2FA;" d="M1565.836,3039.892c-1.737,0-3.146-1.409-3.146-3.146v-74.222c0-1.737,1.409-3.146,3.146-3.146
							s3.146,1.409,3.146,3.146v74.222C1568.983,3038.483,1567.573,3039.892,1565.836,3039.892z"/>
					</g>
                    <g>
						<line style="fill:#BDD6FF;" x1="1689.689" y1="3036.744" x2="1689.689" y2="3124.056"/>
                        <path style="fill:#C6E2FA;" d="M1689.691,3127.203c-1.737,0-3.146-1.409-3.146-3.146v-87.311c0-1.737,1.409-3.146,3.146-3.146
							c1.737,0,3.146,1.409,3.146,3.146v87.311C1692.837,3125.794,1691.428,3127.203,1689.691,3127.203z"/>
					</g>
                    <g>
						<line style="fill:#BDD6FF;" x1="1595.465" y1="3124.056" x2="1595.465" y2="3208.453"/>
                        <path style="fill:#C6E2FA;" d="M1595.464,3211.597c-1.737,0-3.146-1.409-3.146-3.146v-84.394c0-1.737,1.409-3.146,3.146-3.146
							c1.737,0,3.146,1.409,3.146,3.146v84.394C1598.611,3210.188,1597.201,3211.597,1595.464,3211.597z"/>
					</g>
				</g>
                <g>
					<g>
						<path style="fill:#C6E2FA;" d="M3196.416,2601.99c-79.205,0-143.432-64.228-143.432-143.432
							c0-79.205,64.228-143.433,143.432-143.433"/>
					</g>
				</g>
                <g>
					<path style="fill:#060405;" d="M1687.388,1877.732l-1.958-0.008l0.012-4.195l1.946,0.008c16.047,0,32.143-1.303,47.834-3.871
						l0.68,4.138C1719.987,1876.409,1703.661,1877.732,1687.388,1877.732z M1634.982,1873.111l-3.638-0.68
						c-14.99-2.896-30.259-6.866-45.38-11.795l1.303-3.99c14.953,4.879,30.054,8.804,44.876,11.664l3.585,0.672L1634.982,1873.111z
						 M1784.966,1861.202l-1.413-3.949c16.047-5.744,31.181-12.942,44.975-21.402l2.196,3.572
						C1816.683,1848.034,1801.288,1855.364,1784.966,1861.202z M1538.924,1842.135c-14.63-6.719-29.714-14.544-44.831-23.262
						l2.098-3.638c15.003,8.656,29.972,16.424,44.487,23.089L1538.924,1842.135z M1870.528,1808.013l-2.987-2.95
						c11.791-11.946,21.823-25.281,29.829-39.637l3.662,2.04C1892.843,1782.154,1882.58,1795.792,1870.528,1808.013z
						 M1451.335,1792.039c-13.229-8.943-26.641-18.554-41.009-29.382l2.524-3.351c14.31,10.787,27.67,20.357,40.837,29.259
						L1451.335,1792.039z M1370.62,1731.583c-2.39-1.963-18.681-14.982-38.76-32.205l2.729-3.187
						c20.266,17.385,36.315,30.197,38.661,32.123L1370.62,1731.583z M1294.169,1665.882c-12.63-11.651-24.864-23.417-36.355-34.974
						l2.974-2.958c11.451,11.516,23.639,23.241,36.224,34.852L1294.169,1665.882z M1223.123,1594.254
						c-11.483-12.786-22.463-25.748-32.639-38.535l3.286-2.614c10.123,12.721,21.049,25.621,32.475,38.346L1223.123,1594.254z
						 M3146.251,1553.663c-13.819-0.004-27.678-0.5-41.201-1.467l0.303-4.187c16.424,1.176,33.287,1.643,50.116,1.385l0.066,4.195
						C3152.433,1553.638,3149.344,1553.663,3146.251,1553.663z M3205.938,1550.697l-0.41-4.179
						c16.42-1.618,33.135-3.937,49.678-6.887l0.737,4.13C3239.294,1546.731,3222.468,1549.066,3205.938,1550.697z
						 M3054.885,1546.293c-16.646-2.741-33.27-6.297-49.403-10.578l1.073-4.056c16.006,4.244,32.496,7.776,49.01,10.496
						L3054.885,1546.293z M3305.273,1533.04l-1.041-4.064c16.002-4.101,32.193-8.878,48.125-14.191l1.327,3.982
						C3337.658,1524.109,3321.369,1528.914,3305.273,1533.04z M2957.34,1520.376c-15.576-5.826-31.193-12.499-46.413-19.841
						l1.819-3.777c15.109,7.284,30.607,13.905,46.06,19.685L2957.34,1520.376z M1160.421,1515.116
						c-9.738-14.208-18.78-28.608-26.871-42.799l3.646-2.081c8.034,14.097,17.01,28.399,26.682,42.508L1160.421,1515.116z
						 M3400.982,1501.146l-1.598-3.876c15.338-6.317,30.73-13.265,45.749-20.656l1.852,3.761
						C3431.885,1487.811,3416.406,1494.8,3400.982,1501.146z M2866.44,1476.688c-14.134-8.362-28.403-17.563-42.406-27.346
						l2.401-3.441c13.921,9.726,28.1,18.866,42.144,27.174L2866.44,1476.688z M3491.521,1456.618l-2.098-3.638
						c14.441-8.321,28.792-17.231,42.66-26.478l2.327,3.49C3520.469,1439.292,3506.037,1448.248,3491.521,1456.618z
						 M1110.641,1427.252c-7.001-15.642-13.089-31.521-18.096-47.187l3.999-1.278c4.957,15.523,10.988,31.25,17.923,46.753
						L1110.641,1427.252z M2783.668,1419.071c-12.61-10.095-25.556-21.07-38.473-32.623l2.794-3.13
						c12.864,11.504,25.748,22.43,38.301,32.475L2783.668,1419.071z M3575.461,1400.615l-2.552-3.327
						c13.061-10.006,26.505-21.047,38.887-31.771l2.745,3.171C3602.212,1379.367,3588.88,1390.332,3575.461,1400.615z
						 M2708.381,1351.985c-11.504-11.233-23.098-22.958-35.446-35.847l3.031-2.901c12.311,12.852,23.876,24.548,35.347,35.749
						L2708.381,1351.985z M3651.735,1334.603l-2.917-3.015c11.865-11.483,23.692-23.544,35.159-35.859l3.073,2.859
						C3675.533,1310.952,3663.653,1323.07,3651.735,1334.603z M1080.144,1331.092c-3.118-16.649-5.141-33.536-6.006-50.19
						l4.187-0.221c0.86,16.469,2.86,33.172,5.94,49.641L1080.144,1331.092z M2638.531,1279.3
						c-10.422-11.418-21.434-23.675-33.667-37.473l3.138-2.786c12.221,13.786,23.221,26.031,33.626,37.432L2638.531,1279.3z
						 M3720.496,1260.844l-3.204-2.704c10.627-12.594,21.226-25.761,31.496-39.129l3.327,2.556
						C3741.803,1234.989,3731.168,1248.201,3720.496,1260.844z M1079.161,1230.679l-4.179-0.36
						c1.438-16.572,4.056-33.385,7.776-49.981l4.097,0.918C1083.172,1197.667,1080.587,1214.296,1079.161,1230.679z
						 M2571.593,1204.017c-13.112-14.967-23.145-26.423-33.205-37.842l3.146-2.769c9.832,11.156,20.073,22.851,33.213,37.85
						L2571.593,1204.017z M3781.981,1180.936l-3.433-2.413c9.447-13.434,18.894-27.453,28.079-41.669l3.523,2.278
						C3800.937,1153.393,3791.461,1167.457,3781.981,1180.936z M1100.862,1133.22l-3.949-1.418
						c5.629-15.637,12.319-31.275,19.89-46.474l3.753,1.868C1113.058,1102.253,1106.433,1117.739,1100.862,1133.22z
						 M2504.93,1128.583c-12.09-13.421-23.221-25.539-34.02-37.06l3.056-2.868c10.824,11.537,21.971,23.68,34.077,37.117
						L2504.93,1128.583z M3836.726,1096.296l-3.605-2.147c8.415-14.122,16.825-28.792,25.003-43.606l3.671,2.024
						C3853.601,1067.426,3845.166,1082.137,3836.726,1096.296z M2436.018,1055.328c-12.233-12.307-24.376-24.077-36.085-34.987
						l2.86-3.073c11.75,10.947,23.925,22.758,36.199,35.101L2436.018,1055.328z M1145.337,1043.66l-3.527-2.27
						c9.05-14.06,19.001-27.85,29.575-40.989l3.269,2.63C1164.174,1016.056,1154.308,1029.723,1145.337,1043.66z M3885.466,1008.063
						l-3.736-1.917c7.477-14.572,14.982-29.734,22.311-45.065l3.785,1.811C3900.481,978.255,3892.955,993.45,3885.466,1008.063z
						 M2362.812,987.235l-0.586-0.426c-12.552-10.607-25.744-21.131-39.083-31.164l2.524-3.351
						c13.401,10.078,26.658,20.656,39.399,31.431L2362.812,987.235z M1208.059,965.694l-2.974-2.958l2.192-2.196
						c11.029-10.967,22.831-21.701,35.081-31.902l2.688,3.224c-12.159,10.123-23.868,20.771-34.806,31.648L1208.059,965.694z
						 M2282.183,926.602c-13.814-9.226-28.116-18.218-42.517-26.727l2.138-3.613c14.462,8.55,28.833,17.583,42.705,26.85
						L2282.183,926.602z M3928.982,917.147l-3.827-1.712c6.686-14.953,13.421-30.48,20.013-46.151l3.867,1.622
						C3942.432,886.609,3935.684,902.169,3928.982,917.147z M1284.976,901.546l-2.392-3.45c13.573-9.414,27.92-18.518,42.64-27.055
						l2.106,3.63C1312.703,883.152,1298.454,892.193,1284.976,901.546z M2195.752,875.507
						c-14.736-7.665-29.931-15.056-45.163-21.971l1.737-3.818c15.298,6.944,30.558,14.367,45.36,22.069L2195.752,875.507z
						 M1371.632,851.135l-1.835-3.777c14.851-7.21,30.374-14.101,46.134-20.484l1.573,3.892
						C1401.829,837.108,1386.396,843.962,1371.632,851.135z M2104.32,833.994c-15.469-6.067-31.357-11.819-47.228-17.096
						l1.327-3.982c15.937,5.301,31.898,11.078,47.433,17.17L2104.32,833.994z M1464.613,813.387l-1.331-3.982
						c11.84-3.962,24.073-7.759,36.359-11.283c3.97-1.139,7.952-2.253,11.93-3.331l1.098,4.048
						c-3.962,1.073-7.919,2.184-11.872,3.314C1488.571,805.661,1476.395,809.442,1464.613,813.387z M2009.036,802.281
						c-16.072-4.437-32.471-8.509-48.744-12.106l0.901-4.097c16.346,3.613,32.819,7.706,48.957,12.159L2009.036,802.281z
						 M1561.485,787.057l-0.869-4.105c16.354-3.462,33.053-6.506,49.629-9.054l0.639,4.146
						C1594.387,780.58,1577.766,783.612,1561.485,787.057z M1910.988,780.596c-16.449-2.757-33.18-5.117-49.731-7.01l0.475-4.17
						c16.625,1.905,33.43,4.273,49.952,7.042L1910.988,780.596z M1660.714,771.78l-0.41-4.179
						c16.654-1.631,33.582-2.831,50.321-3.56l0.18,4.195C1694.144,768.957,1677.29,770.15,1660.714,771.78z M1811.214,769.166
						c-16.658-1.036-33.541-1.639-50.19-1.798l0.041-4.195c16.719,0.16,33.68,0.766,50.411,1.807L1811.214,769.166z"/>
				</g>
                <g>
					<path style="fill:#FFFFFF;" d="M1424.066,2010.326c-18.412,27.618-48.988,48.493-48.988,48.493
						s-274.115,321.131-330.089,321.131c-48.659,0-231.129-154.934-231.129-154.934l145.648-138.908l92.303,94.934l251.43-185.265
						c0,0-19.643-55.727,6.576-61.563c26.137-5.753,20.219,25.234,20.219,25.234s78.577-102.66,96.989-85.236
						c18.411,17.426-51.947,91.318-51.947,91.318S1442.477,1982.71,1424.066,2010.326z"/>
                    <path style="fill:#060405;" d="M1044.99,2384.146c-49.629,0-226.344-149.562-233.846-155.928l-3.552-3.019l152.028-144.994
						l92.649,95.292l246.037-181.292c-2.974-9.455-11.045-38.78-2.421-54.324c2.88-5.195,7.264-8.48,13.02-9.763
						c8.443-1.852,15.064-0.533,19.661,3.937c3.63,3.527,5.26,8.37,5.908,12.938c18.698-23.413,63.873-77.151,85.947-78.917
						c4.699-0.385,7.776,1.471,9.488,3.089c2.79,2.642,4.261,6.211,4.375,10.611c0.586,22.577-37.314,66.143-51.468,81.6
						c13.306,4.117,41.12,14.474,47.351,30.697c2.335,6.088,1.434,12.512-2.61,18.579l0,0l0,0
						c-17.616,26.428-45.536,46.441-49.645,49.305C1362.385,2080.131,1101.738,2384.146,1044.99,2384.146z M820.132,2224.834
						c63.885,53.93,188.281,150.922,224.857,150.922c44.332,0,251.003-230.748,326.896-319.661l0.823-0.741
						c0.303-0.205,30.14-20.763,47.867-47.355l0,0c2.573-3.863,3.134-7.329,1.758-10.914c-5.289-13.782-36.654-24.515-48.293-27.49
						l-6.936-1.77l4.932-5.187c15.15-15.916,54.36-61.423,53.861-80.646c-0.057-2.118-0.631-3.667-1.758-4.732
						c-0.483-0.459-1.282-0.959-3.052-0.819c-17.37,1.389-61.976,51.927-87.721,85.558l-10.693,13.97l3.24-17.297
						c0.684-3.65,1.438-14.109-3.208-18.612c-2.45-2.372-6.485-2.97-11.991-1.749c-3.347,0.746-5.801,2.593-7.493,5.641
						c-6.924,12.479,0.52,40.632,3.974,50.432l1.032,2.929l-256.878,189.276l-91.953-94.579L820.132,2224.834z"/>
				</g>
                <g>
					<path style="fill:#FF7545;" d="M990.659,2096.218l-143.427,99.373l-16.603-267.87
						C838.908,1928.594,952.962,2008.679,990.659,2096.218z"/>
				</g>
                <g>
					<g>
						<g>
							<path style="fill:#FFFFFF;" d="M3467.524,3801.737H1711.483c-23.117-77.779,28.785-161.809,115.867-187.684
								c52.193-15.557,105.255-6.687,144.361,19.624c1.857-97.844,110.807-169.94,210.8-140.727
								c-54.713-84.634-2.933-200.892,100.168-213.998c49.719-6.399,96.676,14.392,126.189,50.592l0.291-0.437l48.413-530.345
								h263.863l48.413,530.345l0.291,0.437c29.509-36.199,76.466-56.991,126.188-50.592
								c76.615,9.739,130.842,79.668,121.099,156.283c-2.761,21.225-10.03,40.849-20.934,57.715
								c29.367-8.579,62.514-9.015,95.37,0.728c68.619,20.497,114.27,78.649,115.431,139.999
								c39.106-26.311,92.172-35.181,144.365-19.624C3438.74,3639.928,3490.641,3723.958,3467.524,3801.737z"/>
						</g>
                        <g>
							<path style="fill:#060405;" d="M2157.415,3435.766c-4.535-35.691,4.359-71.539,25.035-100.933
								c3.199-4.544,10.058,0.289,6.866,4.826c-19.476,27.682-27.85,61.44-23.577,95.05
								C2166.436,3440.211,2158.117,3441.267,2157.415,3435.766z"/>
						</g>
                        <g>
							<path style="fill:#060405;" d="M1780.615,3630.45c58.224-36.22,132.493-37.36,187.248-4.203
								c7.293-96.744,115.693-166.585,215.824-137.325c5.327,1.56,2.984,9.601-2.352,8.054
								c-97.174-28.376-203.629,41.85-205.43,136.78c-0.062,3.3-3.763,5.26-6.538,3.404c-52.521-35.351-126.75-35.4-184.319,0.414
								C1780.317,3640.503,1775.911,3633.371,1780.615,3630.45z"/>
						</g>
                        <g>
							<path style="fill:#060405;" d="M3467.527,3805.933c-1831.545-1.271-1758.338,2.776-1760.068-2.999
								c-10.623-35.757-6.162-74.451,12.569-108.954c2.662-4.873,10.021-0.865,7.374,4.007
								c-17.137,31.562-21.623,66.79-12.749,99.556H3464.36c19.651-72.448-27.702-153.863-113.899-179.465
								c-48.797-14.552-101.449-7.419-140.823,19.083c-2.801,1.867-6.477-0.125-6.539-3.404
								c-0.512-27.166-9.935-53.894-27.244-77.29c-1.381-1.864-0.987-4.49,0.877-5.867c1.864-1.385,4.49-0.983,5.867,0.877
								c16.793,22.7,26.584,48.408,28.546,74.767c40.657-24.614,93.034-30.718,141.713-16.207
								c86.925,25.827,143.093,110.767,118.692,192.898C3471.017,3804.712,3469.382,3805.933,3467.527,3805.933z"/>
						</g>
                        <g>
							<path style="fill:#060405;" d="M3106.971,3503.134c-0.521,0-1.045-0.094-1.557-0.299c-4.793-1.917-9.759-3.646-14.752-5.137
								c-30.988-9.185-63.14-9.435-92.993-0.721c-3.694,1.099-6.812-3.035-4.699-6.305c10.812-16.727,17.641-35.56,20.3-55.975
								c2.556-20.119,0.68-40.03-5.58-59.166c-1.728-5.272,6.252-7.883,7.972-2.606c6.653,20.32,8.644,41.464,5.928,62.841
								c-2.36,18.136-7.825,35.097-16.281,50.575c28.501-6.432,58.621-5.322,87.745,3.314c5.244,1.569,10.447,3.38,15.474,5.387
								c2.151,0.86,3.2,3.302,2.339,5.453C3110.212,3502.138,3108.635,3503.134,3106.971,3503.134z"/>
						</g>
                        <g>
							<path style="fill:#060405;" d="M2770.14,3333.74c-0.066,0-0.131,0-0.197-0.004c-7.44-0.344-0.301,23.036-52.341-530.777
								h-260.032c-2.319,0-4.195-1.876-4.195-4.195c0-2.319,1.876-4.195,4.195-4.195h263.863c2.167,0,3.982,1.655,4.179,3.814
								l47.584,521.26c49.203-52.965,126.965-59.738,183.799-22.909c4.661,3.019,0.087,10.057-4.564,7.038
								c-56.109-36.36-133.53-27.406-179.038,28.424C2772.594,3333.174,2771.398,3333.74,2770.14,3333.74z"/>
						</g>
                        <g>
							<path style="fill:#060405;" d="M2405.615,3332.195c-45.58-55.915-122.981-64.732-179.038-28.428
								c-4.631,3.029-9.234-4.013-4.564-7.038c56.691-36.727,134.481-30.179,183.799,22.917l10.234-112.109
								c0.51-5.522,8.858-4.768,8.357,0.762c-11.921,128.521-10.628,121.457-11.758,123.146
								C2410.871,3334.092,2407.141,3334.066,2405.615,3332.195z"/>
						</g>
                        <g>
							<g>
								<g>
									<g>
										<path style="fill:#060405;" d="M2808.225,2920.017h-453.796c-9.598,0-17.378-7.781-17.378-17.378v-103.938h488.552
											v103.938C2825.603,2912.236,2817.823,2920.017,2808.225,2920.017z"/>
									</g>
                                    <g>
										<g>
											<path style="fill:#BDD6FF;" d="M3206.943,2402.087l-54.789,684.859l-166.819-444.714L2784.716,2493.4l154.282-308.696
												l236.189,152.917C3196.858,2351.66,3208.988,2376.329,3206.943,2402.087z"/>
										</g>
                                        <g>
											<path style="fill:#060405;" d="M3152.151,3091.139c-1.725,0-3.302-1.069-3.925-2.72l-166.387-443.557l-199.621-148.095
												c-1.635-1.213-2.163-3.421-1.254-5.244l154.281-308.694c0.532-1.065,1.495-1.856,2.646-2.171
												c1.159-0.316,2.384-0.123,3.388,0.524l236.189,152.917c22.926,14.851,35.822,41.029,33.659,68.318c0,0,0,0,0,0.004
												l-54.791,684.858c-0.16,1.958-1.655,3.544-3.601,3.818C3152.54,3091.127,3152.347,3091.139,3152.151,3091.139z
												 M2790.042,2492.125l197.79,146.739c0.647,0.479,1.147,1.139,1.43,1.893l160.214,427.096l53.287-666.103v0.004
												c1.921-24.212-9.517-47.437-29.857-60.612l-232.252-150.365L2790.042,2492.125z M3206.945,2402.086h0.082H3206.945z"/>
										</g>
                                        <g>
											<g>
												<path style="fill:#BDD6FF;" d="M1955.76,2402.087l54.789,684.859l166.819-444.714l200.619-148.832l-154.282-308.696
													l-236.189,152.917C1965.845,2351.66,1953.715,2376.329,1955.76,2402.087z"/>
											</g>
                                            <g>
												<path style="fill:#060405;" d="M2006.365,3087.28l-54.786-684.858c0-0.004,0-0.004,0-0.004
													c-2.167-27.293,10.729-53.467,33.655-68.314l236.189-152.921c1.004-0.647,2.225-0.84,3.388-0.524
													c1.151,0.315,2.114,1.106,2.646,2.171l154.281,308.694c0.909,1.823,0.381,4.031-1.254,5.244l-199.621,148.095
													l-166.387,443.557C2012.878,3092.658,2006.725,3091.687,2006.365,3087.28z M1959.944,2401.75l53.283,666.103
													l160.214-427.096c0.283-0.754,0.782-1.413,1.43-1.893l197.79-146.739l-150.611-301.348l-232.252,150.369
													c-20.336,13.167-31.775,36.392-29.853,60.608V2401.75z"/>
											</g>
										</g>
									</g>
                                    <g>
										<g>
											<path style="fill:#FFFFFF;" d="M2873.125,2816.817h-583.596c-237.008-456.437-321.916-1156.695,63.51-1752.147
												c16.903-26.17,34.755-52.064,53.564-77.825c51.109-70.052,109.169-138.333,174.722-204.296
												c65.556,65.962,123.753,134.244,174.725,204.296c18.81,25.761,36.665,51.791,53.561,77.961
												C3195.043,1660.259,3110.133,2360.381,2873.125,2816.817z"/>
                                            <path style="fill:#FFFFFF;" d="M2875.674,2821.012H2286.98l-1.176-2.261c-127.845-246.21-199.629-539.5-202.128-825.842
												c-2.929-335.544,88.999-657.311,265.837-930.519c16.625-25.736,34.692-51.984,53.701-78.019
												c51.997-71.264,110.921-140.16,175.138-204.779l2.974-2.995l2.974,2.995c64.746,65.151,123.674,134.052,175.142,204.787
												c18.521,25.363,36.588,51.661,53.693,78.151c176.843,273.203,268.771,594.95,265.842,930.449
												c-2.495,286.293-74.283,579.558-202.128,825.772L2875.674,2821.012z M2292.08,2812.622h578.493
												c218.548-422.618,332.439-1132.331-64.484-1745.536c-17.022-26.359-34.995-52.521-53.426-77.766
												c-50.432-69.31-108.065-136.854-171.336-200.813c-62.759,63.447-120.393,130.991-171.336,200.813
												c-18.915,25.904-36.888,52.021-53.43,77.626C1959.613,1680.205,2073.516,2389.976,2292.08,2812.622z"/>
										</g>
                                        <g>
											<path style="fill:#D2E4FF;" d="M2873.19,2816.84h-583.677c-10.631-20.512-20.962-41.478-30.993-63.039h534.413
												c247.367-476.467,329.123-1218.714-117.096-1829.944c-32.196-44.172-67.232-87.748-105.116-130.421
												c3.444-3.594,7.037-7.337,10.631-10.93c65.587,66.033,123.683,134.314,174.746,204.391
												C3202.313,1598.127,3120.557,2340.374,2873.19,2816.84z"/>
										</g>
                                        <g>
											<path style="fill:#BDD6FF;" d="M2809.612,1064.807c-74.82,37.344-159.868,56.969-249.272,53.152
												c-74.551-3.134-144.742-21.941-207.301-53.288c16.903-26.17,34.755-52.064,53.564-77.825
												c51.109-70.052,109.169-138.333,174.722-204.296c65.556,65.962,123.753,134.244,174.725,204.296
												C2774.86,1012.607,2792.715,1038.637,2809.612,1064.807z"/>
										</g>
                                        <g>
											<path style="fill:#060405;" d="M2560.159,1122.151c-73.714-3.097-144.031-21.176-209.002-53.734
												c-1.065-0.533-1.852-1.495-2.167-2.642c-0.311-1.151-0.123-2.38,0.524-3.384c16.625-25.736,34.692-51.984,53.701-78.019
												c51.997-71.264,110.921-140.16,175.138-204.779c1.573-1.581,4.375-1.581,5.949,0
												c64.746,65.151,123.674,134.052,175.142,204.787c18.521,25.363,36.588,51.661,53.693,78.155
												c0.647,1,0.84,2.233,0.524,3.38c-0.315,1.151-1.106,2.114-2.176,2.646
												C2733.892,1107.291,2646.894,1125.875,2560.159,1122.151z M2359.116,1063.001c62.73,30.71,130.458,47.785,201.399,50.768
												c83.784,3.572,167.694-13.925,243.014-50.636c-16.26-25.019-33.356-49.833-50.866-73.812
												c-50.432-69.31-108.065-136.854-171.336-200.813c-62.759,63.447-120.393,130.991-171.336,200.813
												C2392.046,1013.893,2374.946,1038.662,2359.116,1063.001z"/>
										</g>
                                        <g>
											<path style="fill:#060405;" d="M2873.191,2821.037h-583.679c-1.565,0-3.003-0.873-3.724-2.261
												c-234.222-451.156-344.008-1202.272,117.435-1834.355c51.755-71.03,110.687-139.963,175.15-204.873
												c1.582-1.581,4.375-1.581,5.957,0c64.447,64.889,123.379,133.822,175.159,204.877
												c461.435,632.079,351.649,1383.199,117.427,1834.351C2876.194,2820.165,2874.756,2821.037,2873.191,2821.037z
												 M2292.064,2812.647h578.575c232.326-449.267,340.489-1195.328-117.93-1823.277
												c-50.731-69.621-108.369-137.198-171.357-200.903c-63.005,63.726-120.643,131.303-171.349,200.899
												C1951.575,1617.315,2059.739,2363.379,2292.064,2812.647z"/>
										</g>
									</g>
								</g>
                                <g>
									<polygon style="fill:#BDD6FF;" points="2717.343,2561 2565.107,3057.372 2412.872,2561 2565.107,2376.329 									"/>
								</g>
                                <g>
									<path style="fill:#060405;" d="M2561.097,3058.602L2408.86,2562.23c-0.414-1.348-0.123-2.811,0.774-3.896l152.237-184.671
										c0.795-0.967,1.983-1.528,3.237-1.528l0,0c1.254,0,2.442,0.561,3.236,1.528l152.233,184.671
										c0.897,1.086,1.188,2.548,0.774,3.896l-152.233,496.372C2567.908,3062.546,2562.307,3062.545,2561.097,3058.602z
										 M2417.541,2561.927l147.567,481.141l147.563-481.141l-147.563-179.002L2417.541,2561.927z"/>
								</g>
							</g>
                            <g>
								<path style="fill:#6193F6;" d="M2825.56,1741.487c0,6.678-0.273,13.22-0.819,19.625
									c-8.588,108.623-88.179,197.212-192.307,219.429c-16.49,3.407-33.527,5.314-51.109,5.314
									c-10.355,0-20.444-0.682-30.393-1.907c-21.122-2.589-41.293-7.906-60.239-15.539c-42.524-16.9-79.049-45.519-105.898-81.774
									c-10.631-14.444-19.761-30.12-26.985-46.747c-7.36-16.627-12.947-34.209-16.354-52.609
									c-2.862-14.853-4.362-30.12-4.362-45.792c0-134.926,109.305-244.231,244.231-244.231c4.771,0,9.406,0.136,14.042,0.406
									c18.807,1.091,36.934,4.226,54.243,9.27c17.579,5.041,34.345,12.128,49.881,20.716
									c39.796,22.077,72.641,54.789,94.721,94.448c10.222,17.855,18.128,37.207,23.442,57.651
									C2822.835,1699.509,2825.56,1720.089,2825.56,1741.487z"/>
							</g>
                            <g>
								<g style="opacity:0.15;">
									<path style="fill:#FFFFFF;" d="M2649.61,1506.932l-291.8,332.956c-7.36-16.627-12.947-34.209-16.354-52.609
										l253.911-289.617C2614.173,1498.753,2632.301,1501.888,2649.61,1506.932z"/>
								</g>
                                <g style="opacity:0.15;">
									<path style="fill:#FFFFFF;" d="M2825.56,1741.487c0,6.678-0.273,13.22-0.819,19.625l-192.307,219.429
										c-16.49,3.407-33.527,5.314-51.109,5.314c-10.355,0-20.444-0.682-30.393-1.907l266.721-304.201
										C2822.835,1699.509,2825.56,1720.089,2825.56,1741.487z"/>
								</g>
                                <g style="opacity:0.15;">
									<path style="fill:#FFFFFF;" d="M2794.212,1622.097l-303.519,346.313c-42.524-16.9-79.049-45.519-105.898-81.774
										l314.696-358.987C2739.287,1549.726,2772.132,1582.438,2794.212,1622.097z"/>
								</g>
							</g>
						</g>
					</g>
                    <g>
						<path style="fill:#060405;" d="M2248.089,3440.31c4.083-47.483,45.822-82.692,93.382-78.597
							c5.532,0.472,4.807,8.843-0.721,8.358c-43.122-3.638-80.63,28.211-84.304,70.961
							C2256.24,3443.415,2247.609,3445.831,2248.089,3440.31z"/>
					</g>
                    <g>
						<path style="fill:#060405;" d="M2054.204,3655.293c2.561-29.808,19.996-55.77,46.65-69.441
							c4.903-2.554,8.783,4.927,3.826,7.464c-24.061,12.348-39.809,35.786-42.119,62.698
							C2062.083,3661.559,2053.724,3660.815,2054.204,3655.293z"/>
					</g>
                    <g>
						<path style="fill:#060405;" d="M2827.487,3518.985c-34.044-34.044-89.441-34.044-123.486,0
							c-3.926,3.926-9.856-2.009-5.932-5.932c37.314-37.31,98.028-37.318,135.35,0
							C2837.345,3516.978,2831.412,3522.909,2827.487,3518.985z"/>
					</g>
                    <g>
						<path style="fill:#060405;" d="M2941.268,3535.999c-34.044-34.044-89.441-34.044-123.486,0
							c-3.926,3.926-9.856-2.009-5.932-5.932c37.31-37.31,98.024-37.318,135.35,0
							C2951.126,3533.992,2945.192,3539.923,2941.268,3535.999z"/>
					</g>
				</g>
                <g>
					<g>
						<path style="fill:#060405;" d="M892.736,2580.8c0,0,147.665,432.823,151.742,583.494
							c4.179,154.412-116.364,542.699-116.364,542.699H811.206l20.895-535.054l-98.126-235.482l-22.835,770.536H594.232
							c0,0-134.563-818.679-147.771-923.904c-7.307-58.211,16.245-149.17,39.011-202.289H892.736z"/>
					</g>
                    <g>
						<g>
							<path style="fill:#FF7545;" d="M711.141,3726.584v-19.591H594.232c-1.528,37.879-4.527,109.312-5.419,109.312h190.229
								C785.509,3753.797,711.141,3726.584,711.141,3726.584z"/>
						</g>
                        <g>
							<path style="fill:#060405;" d="M776.421,3789.11c2.46,8.217,3.654,17.209,2.622,27.195h-190.23
								c0.352,0,1.039-11.275,1.832-27.195H776.421z"/>
						</g>
					</g>
                    <g>
						<g>
							<path style="fill:#FF7545;" d="M928.114,3726.584v-19.591H811.206c-1.528,37.879-4.528,109.312-5.419,109.312h190.229
								C1002.483,3753.797,928.114,3726.584,928.114,3726.584z"/>
						</g>
                        <g>
							<path style="fill:#060405;" d="M993.394,3789.11c2.46,8.217,3.654,17.209,2.622,27.195H805.786
								c0.352,0,1.039-11.275,1.832-27.195H993.394z"/>
						</g>
					</g>
				</g>
                <g>
					<path style="fill:#FF7545;" d="M931.737,2665.854c0,0,17.919-558.985-57.389-697.56
						c-61.399-112.981-443.999-100.089-470.316,35.707c-25.713,132.678,8.988,690.583,8.988,690.583
						C462.13,2772.93,941.523,2765.596,931.737,2665.854z"/>
				</g>
                <g>
					<g>
						<path style="fill:#FFFFFF;" d="M1752.435,2648.81c0,12.974-10.448,23.686-23.686,23.686h-395.043
							c6.584,0,12.484-2.651,16.759-6.927s6.927-10.26,6.927-16.759c0-13.083-10.603-23.771-23.686-23.771h395.043
							C1741.833,2625.039,1752.435,2635.728,1752.435,2648.81z"/>
					</g>
                    <g>
						<path style="fill:#060405;" d="M1639.452,3805.933c-2.319,0-4.195-1.876-4.195-4.195v-1093.67h-521.105v1093.67
							c0,2.319-1.876,4.195-4.195,4.195s-4.195-1.876-4.195-4.195V2703.873c0-2.319,1.876-4.195,4.195-4.195h529.495
							c2.319,0,4.195,1.876,4.195,4.195v1097.865C1643.647,3804.056,1641.771,3805.933,1639.452,3805.933z"/>
					</g>
                    <g>
						<path style="fill:#6193F6;" d="M1375.066,2672.497h-349.32c-19.381,0-35.094,15.71-35.094,35.093
							c0,19.38,15.712,35.093,35.094,35.093h349.32V2672.497z"/>
					</g>
                    <g>
						<path style="fill:#060405;" d="M1375.065,2746.877h-349.318c-21.664,0-39.288-17.624-39.288-39.288
							c0-21.664,17.624-39.288,39.288-39.288h349.318c2.319,0,4.195,1.876,4.195,4.195v70.186
							C1379.26,2745,1377.384,2746.877,1375.065,2746.877z M1025.747,2676.69c-17.039,0-30.898,13.859-30.898,30.898
							c0,17.039,13.859,30.898,30.898,30.898h345.123v-61.796H1025.747z"/>
					</g>
                    <g>
						<path style="fill:#FFFFFF;" d="M1694.787,2742.683h-366.516c-19.381,0-35.093-15.712-35.093-35.093l0,0
							c0-19.381,15.712-35.093,35.093-35.093h366.516c19.382,0,35.093,15.712,35.093,35.093l0,0
							C1729.88,2726.971,1714.168,2742.683,1694.787,2742.683z"/>
					</g>
                    <g>
						<path style="fill:#060405;" d="M1694.787,2746.877h-366.516c-21.664,0-39.288-17.624-39.288-39.288
							c0-21.664,17.624-39.288,39.288-39.288h366.516c21.664,0,39.288,17.625,39.288,39.288
							C1734.076,2729.252,1716.451,2746.877,1694.787,2746.877z M1328.271,2676.69c-17.039,0-30.898,13.859-30.898,30.898
							c0,17.039,13.859,30.898,30.898,30.898h366.516c17.039,0,30.898-13.859,30.898-30.898c0-17.039-13.859-30.898-30.898-30.898
							H1328.271z"/>
					</g>
                    <g>
						<path style="fill:#FFFFFF;" d="M1357.393,2648.81c0,6.499-2.651,12.484-6.927,16.759s-10.175,6.927-16.759,6.927h-319.368
							c-13.083,0-23.686-10.605-23.686-23.686c0-12.926,10.47-23.771,23.686-23.771h319.368
							C1346.79,2625.039,1357.393,2635.728,1357.393,2648.81z"/>
					</g>
                    <g>
						<path style="fill:#060405;" d="M1333.708,2676.69h-319.37c-15.371,0-27.879-12.508-27.879-27.879
							c0-15.195,12.343-27.969,27.879-27.969h319.37c15.371,0,27.879,12.549,27.879,27.969c0,7.354-2.97,14.54-8.153,19.722
							C1348.173,2673.794,1341.168,2676.69,1333.708,2676.69z M1014.337,2629.233c-10.954,0-19.489,9.063-19.489,19.579
							c0,10.746,8.743,19.488,19.489,19.488h319.37c5.219,0,10.119-2.024,13.794-5.698c3.618-3.618,5.695-8.644,5.695-13.79
							c0-10.795-8.743-19.579-19.488-19.579H1014.337z"/>
					</g>
                    <g>
						<path style="fill:#060405;" d="M1752.435,2648.81c0,12.974-10.448,23.686-23.686,23.686h-395.043
							c6.584,0,12.484-2.651,16.759-6.927s6.927-10.26,6.927-16.759c0-13.083-10.603-23.771-23.686-23.771h395.043
							C1741.833,2625.039,1752.435,2635.728,1752.435,2648.81z"/>
					</g>
                    <g>
						<path style="fill:#060405;" d="M1728.75,2676.69h-395.042c-2.319,0-4.195-1.876-4.195-4.195s1.876-4.195,4.195-4.195
							c5.219,0,10.119-2.024,13.794-5.698c3.618-3.618,5.695-8.644,5.695-13.79c0-10.795-8.743-19.579-19.488-19.579
							c-2.319,0-4.195-1.876-4.195-4.195s1.876-4.195,4.195-4.195h395.042c15.371,0,27.879,12.549,27.879,27.969
							C1756.629,2664.132,1744.282,2676.69,1728.75,2676.69z M1353.663,2668.3h375.087c10.851,0,19.488-8.752,19.488-19.488
							c0-10.795-8.742-19.579-19.488-19.579h-375.152c4.941,5.047,7.989,11.963,7.989,19.579
							C1361.586,2656.055,1358.702,2663.138,1353.663,2668.3z"/>
					</g>
                    <g>
						<path style="fill:#FFFFFF;" d="M1824.744,2292.076h-385.572c-9.762,0-18.37,6.397-21.187,15.743l-86.999,288.707
							c-4.28,14.203,6.353,28.513,21.187,28.513h385.572c9.762,0,18.37-6.397,21.187-15.744l86.999-288.707
							C1850.211,2306.385,1839.578,2292.076,1824.744,2292.076z"/>
					</g>
                    <g>
						<path style="fill:#060405;" d="M1737.746,2629.233h-385.575c-8.411,0-16.113-3.871-21.127-10.623
							c-5.019-6.748-6.502-15.24-4.072-23.294l87-288.706c3.372-11.205,13.499-18.73,25.199-18.73h385.571
							c8.411,0,16.113,3.871,21.131,10.623c5.015,6.751,6.502,15.244,4.072,23.298l-87,288.702
							C1759.574,2621.707,1749.447,2629.233,1737.746,2629.233z M1439.171,2296.27c-7.968,0-14.867,5.129-17.166,12.758
							l-87.004,288.71c-1.651,5.49-0.639,11.27,2.778,15.871c3.417,4.597,8.661,7.235,14.392,7.235h385.575
							c7.972,0,14.871-5.129,17.166-12.757l87.004-288.706c1.651-5.49,0.639-11.27-2.778-15.871
							c-3.417-4.601-8.665-7.239-14.396-7.239H1439.171z"/>
					</g>
                    <g>
						<path style="fill:#060405;" d="M1304.286,2655.346h-49.276c-3.556,0-6.438-2.883-6.438-6.438v-0.28
							c0-3.556,2.882-6.438,6.438-6.438h49.276c3.556,0,6.438,2.883,6.438,6.438v0.28
							C1310.725,2652.463,1307.842,2655.346,1304.286,2655.346z"/>
					</g>
                    <g>
						<path style="fill:#060405;" d="M1228.774,2655.346h-34.114c-3.556,0-6.438-2.883-6.438-6.438v-0.28
							c0-3.556,2.883-6.438,6.438-6.438h34.114c3.556,0,6.438,2.883,6.438,6.438v0.28
							C1235.212,2652.463,1232.329,2655.346,1228.774,2655.346z"/>
					</g>
                    <g>
						<path style="fill:#060405;" d="M1636.434,2480.437c-8.145,20.059-30.091,36.606-49.209,36.862
							c-19.031,0.343-27.862-15.687-19.717-35.748c8.059-20.061,30.091-36.606,49.122-36.864
							C1635.662,2444.343,1644.578,2460.375,1636.434,2480.437z"/>
					</g>
				</g>
                <g>
					<path style="fill:#FFFFFF;" d="M1203.109,2564.836c-8.783,109.669-44.353,33.722-45.3,15.963c0,0-47.852,42.147-101.888,8.007
						c0,0-448.037-25.481-521.19-52.112c-76.768-27.865-135.455-201.045-154.852-318.171h229.32
						c19.069,74.633,29.754,136.278,29.754,136.278l435.461,154.278c0,0,10.603-36.496,31.644-24.578
						c21.042,11.837-6.494,33.453-6.494,33.453S1206.676,2520.305,1203.109,2564.836z"/>
                    <path style="fill:#060405;" d="M1183.593,2627.14c-0.053,0-0.107,0-0.164,0c-13.356-0.176-24.765-24.458-28.522-38.924
						c-14.617,10.05-55.569,32.316-100.298,4.716c-29.853-1.708-449.489-26.15-521.31-52.296
						c-81.436-29.558-138.845-208.417-157.559-321.427l-0.811-4.879h237.529l0.807,3.158
						c16.785,65.705,27.203,122.015,29.391,134.175l429.173,152.049c2.634-6.903,8.911-20.255,19.243-24.458
						c5.416-2.204,11.315-1.651,17.059,1.598c7.718,4.343,9.701,9.918,10,13.835c0.565,7.337-4.146,14.503-8.62,19.562
						c21.23,1.446,70.613,7.051,89.794,28.292c5.973,6.612,8.661,14.228,7.989,22.631l0,0
						C1203.904,2607.434,1196.375,2627.14,1183.593,2627.14z M1161.531,2571.96l0.467,8.615
						c0.541,10.152,13.089,38.063,21.541,38.174c0.004,0,0.012,0,0.016,0c1.209,0,11.16-1.635,15.371-54.25
						c0.488-6.092-1.426-11.438-5.85-16.338c-21.82-24.163-92.887-25.994-93.6-26.01l-11.68-0.258l9.177-7.235
						c3.495-2.753,13.343-12.221,12.79-19.337c-0.078-1.016-0.32-4.101-5.76-7.165c-3.527-1.999-6.719-2.368-9.771-1.131
						c-8.411,3.421-14.253,17.924-15.793,23.225l-1.237,4.265l-441.967-156.58l-0.418-2.417
						c-0.107-0.606-10.574-60.6-28.878-132.798H384.843c18.587,107.332,74.984,282.323,151.319,310.03
						c71.747,26.117,515.521,51.616,519.995,51.87l1.086,0.062l0.918,0.578c50.657,32.016,95.009-5.977,96.877-7.608
						L1161.531,2571.96z"/>
				</g>
                <g>
					<path style="fill:#FF7545;" d="M640.548,2263.529c-37.247-166.315-115.624-357.865-196.013-318.307
						c-39.044,19.212-87.021,68.666-94.199,171.774c-1.975,28.365,4.84,105.477,17.848,164.898
						C369.893,2307.225,642.257,2288.859,640.548,2263.529z"/>
				</g>
                <g>
					<path style="fill:#060405;" d="M441.58,2298.265c-30.427,0-55.7-1.97-67.872-6.501c-2.171-0.811-3.273-3.228-2.466-5.4
						c0.811-2.171,3.237-3.257,5.4-2.466c36.58,13.638,214.779,2.102,254.215-16.457c4.957-2.331,5.518-3.81,5.527-3.826
						c-22.745-101.06-55.88-192.902-90.83-251.146c-1.192-1.987-0.549-4.564,1.438-5.756c1.991-1.192,4.564-0.549,5.756,1.438
						c35.392,58.982,68.888,151.729,91.895,254.461c0.307,3.798-1.323,6.698-4.756,9.259
						C620.135,2286.593,515.638,2298.265,441.58,2298.265z"/>
				</g>
                <g>
					<g>
						<g>
							<path style="fill:#6193F6;" d="M3771.849,1324.758v375.412c0,26.393-21.467,47.859-47.86,47.859h-522.368
								c-26.393,0-47.86-21.467-47.86-47.859v-375.412H3771.849z"/>
						</g>
                        <g>
							<g>
								<g>
									<path style="fill:#BDD6FF;" d="M3317.865,1390.447v59.8c0,7.609-6.196,13.804-13.806,13.804h-59.8
										c-7.61,0-13.804-6.195-13.804-13.804v-59.8c0-7.611,6.195-13.805,13.804-13.805h59.8
										C3311.67,1376.641,3317.865,1382.836,3317.865,1390.447z"/>
								</g>
                                <g>
									<path style="fill:#BDD6FF;" d="M3443.628,1390.447v59.8c0,7.609-6.196,13.804-13.805,13.804h-59.8
										c-7.61,0-13.804-6.195-13.804-13.804v-59.8c0-7.611,6.195-13.805,13.804-13.805h59.8
										C3437.433,1376.641,3443.628,1382.836,3443.628,1390.447z"/>
								</g>
                                <g>
									<path style="fill:#BDD6FF;" d="M3569.391,1390.447v59.8c0,7.609-6.196,13.804-13.805,13.804h-59.8
										c-7.61,0-13.805-6.195-13.805-13.804v-59.8c0-7.611,6.195-13.805,13.805-13.805h59.8
										C3563.196,1376.641,3569.391,1382.836,3569.391,1390.447z"/>
								</g>
                                <g>
									<path style="fill:#FFFFFF;" d="M3695.154,1390.447v59.8c0,7.609-6.196,13.804-13.805,13.804h-59.8
										c-7.61,0-13.805-6.195-13.805-13.804v-59.8c0-7.611,6.195-13.805,13.805-13.805h59.8
										C3688.958,1376.641,3695.154,1382.836,3695.154,1390.447z"/>
								</g>
							</g>
                            <g>
								<g>
									<path style="fill:#BDD6FF;" d="M3317.865,1506.494v59.8c0,7.609-6.196,13.804-13.806,13.804h-59.8
										c-7.61,0-13.804-6.195-13.804-13.804v-59.8c0-7.61,6.195-13.806,13.804-13.806h59.8
										C3311.67,1492.688,3317.865,1498.884,3317.865,1506.494z"/>
								</g>
                                <g>
									<path style="fill:#FFFFFF;" d="M3443.628,1506.494v59.8c0,7.609-6.196,13.804-13.805,13.804h-59.8
										c-7.61,0-13.804-6.195-13.804-13.804v-59.8c0-7.61,6.195-13.806,13.804-13.806h59.8
										C3437.433,1492.688,3443.628,1498.884,3443.628,1506.494z"/>
								</g>
                                <g>
									<path style="fill:#BDD6FF;" d="M3569.391,1506.494v59.8c0,7.609-6.196,13.804-13.805,13.804h-59.8
										c-7.61,0-13.805-6.195-13.805-13.804v-59.8c0-7.61,6.195-13.806,13.805-13.806h59.8
										C3563.196,1492.688,3569.391,1498.884,3569.391,1506.494z"/>
								</g>
                                <g>
									<path style="fill:#BDD6FF;" d="M3695.154,1506.494v59.8c0,7.609-6.196,13.804-13.805,13.804h-59.8
										c-7.61,0-13.805-6.195-13.805-13.804v-59.8c0-7.61,6.195-13.806,13.805-13.806h59.8
										C3688.958,1492.688,3695.154,1498.884,3695.154,1506.494z"/>
								</g>
							</g>
                            <g>
								<g>
									<path style="fill:#BDD6FF;" d="M3317.865,1622.541v59.801c0,7.609-6.196,13.804-13.806,13.804h-59.8
										c-7.61,0-13.804-6.195-13.804-13.804v-59.801c0-7.61,6.195-13.805,13.804-13.805h59.8
										C3311.67,1608.736,3317.865,1614.931,3317.865,1622.541z"/>
								</g>
                                <g>
									<path style="fill:#BDD6FF;" d="M3443.628,1622.541v59.801c0,7.609-6.196,13.804-13.805,13.804h-59.8
										c-7.61,0-13.804-6.195-13.804-13.804v-59.801c0-7.61,6.195-13.805,13.804-13.805h59.8
										C3437.433,1608.736,3443.628,1614.931,3443.628,1622.541z"/>
								</g>
                                <g>
									<path style="fill:#BDD6FF;" d="M3569.391,1622.541v59.801c0,7.609-6.196,13.804-13.805,13.804h-59.8
										c-7.61,0-13.805-6.195-13.805-13.804v-59.801c0-7.61,6.195-13.805,13.805-13.805h59.8
										C3563.196,1608.736,3569.391,1614.931,3569.391,1622.541z"/>
								</g>
                                <g>
									<path style="fill:#BDD6FF;" d="M3695.154,1622.541v59.801c0,7.609-6.196,13.804-13.805,13.804h-59.8
										c-7.61,0-13.805-6.195-13.805-13.804v-59.801c0-7.61,6.195-13.805,13.805-13.805h59.8
										C3688.958,1608.736,3695.154,1614.931,3695.154,1622.541z"/>
								</g>
							</g>
						</g>
                        <g>
							<path style="fill:#060405;" d="M3771.849,1280.77v43.988h-618.088v-42.158c0-26.463,21.467-47.859,47.86-47.859h524.198
								C3751.228,1234.74,3771.849,1255.361,3771.849,1280.77z"/>
						</g>
                        <g>
							<path style="fill:#060405;" d="M3201.621,1234.74c-26.393,0-47.86,21.396-47.86,47.859v-1.83
								c0-25.408,20.622-46.03,46.03-46.03H3201.621z"/>
						</g>
					</g>
                    <g>
						<path style="fill:#FFFFFF;" d="M3238.098,1305.085c-12.823,2.861-25.548-5.325-28.409-18.247
							c-2.762-12.824,5.327-25.549,18.25-28.41c12.823-2.762,25.548,5.327,28.407,18.25
							C3259.108,1289.502,3251.02,1302.227,3238.098,1305.085z"/>
					</g>
                    <g>
						<path style="fill:#FFFFFF;" d="M3670.427,1305.085c-12.823,2.861-25.548-5.325-28.409-18.247
							c-2.762-12.824,5.327-25.549,18.25-28.41c12.823-2.762,25.548,5.327,28.407,18.25
							C3691.438,1289.502,3683.35,1302.227,3670.427,1305.085z"/>
					</g>
                    <g>
						<path style="fill:#060405;" d="M3676.774,1221.164v54.528c0,6.299-5.148,11.447-11.447,11.447
							c-6.3,0-11.38-5.148-11.38-11.447v-54.528c0-6.299,5.08-11.379,11.38-11.379
							C3671.626,1209.785,3676.774,1214.865,3676.774,1221.164z"/>
					</g>
                    <g>
						<path style="fill:#060405;" d="M3244.431,1221.164v54.528c0,6.299-5.148,11.447-11.447,11.447
							c-6.3,0-11.38-5.148-11.38-11.447v-54.528c0-6.299,5.08-11.379,11.38-11.379
							C3239.283,1209.785,3244.431,1214.865,3244.431,1221.164z"/>
					</g>
				</g>
                <g>
					<g>
						<path style="fill:#060405;" d="M836.521,1556.333c-1.63,3.233-10.442,99.75,14.004,125.611
							c24.446,25.861,101.857,138.195,37.483,131.73c-64.374-6.465-169.49-45.257-173.564-60.612
							c-4.074-15.355,17.112-160.824,17.112-160.824l40.743-57.38L836.521,1556.333z"/>
					</g>
                    <g>
						<path style="fill:#FFFFFF;" d="M729.087,1800.714c0,0-28.497,73.196-20.867,85.266c7.63,12.07,136.501,116.023,64.473,137.048
							c-72.028,21.024-197.955-124.492-197.955-124.492s52.342-116.509,61.686-149.214
							C645.769,1716.616,729.087,1800.714,729.087,1800.714z"/>
					</g>
                    <g>
						<path style="fill:#060405;" d="M571.567,1901.281l-1.753-2.024l1.098-2.442c0.52-1.159,52.324-116.603,61.477-148.644
							c1.942-6.792,6.35-9.246,9.705-10.107c22.479-5.756,75.482,45.286,91.895,61.632c-0.284,0.84-28.56,74.023-22.221,84.042
							c1.143,1.811,7.415,7.878,14.056,14.298c27.866,26.937,79.736,77.081,72.083,108.049c-2.466,9.976-10.553,17.03-24.04,20.967
							C712.613,2044.904,613.002,1949.201,571.567,1901.281z M579.671,1897.786c15.412,17.272,127.705,139.963,191.845,121.212
							c10.557-3.081,16.522-7.964,18.247-14.925c6.494-26.281-45.016-76.078-69.768-100.007
							c-9.21-8.902-13.708-13.298-15.322-15.846c-7.768-12.294,11.786-66.339,19.521-86.475
							c-24.314-24.188-65.95-59.211-80.015-55.553c-1.254,0.324-2.81,1.098-3.72,4.281
							C631.782,1780.839,587.483,1880.325,579.671,1897.786z"/>
					</g>
                    <g>
						<path style="fill:#FFFFFF;" d="M618.213,1756.464c0,0,98.809,87.184,143.49,65.388
							c44.682-21.796,72.29-204.156,47.588-266.275s-126.054-97.719-126.054-97.719l-85.368,67.931L618.213,1756.464z"/>
					</g>
                    <g>
						<path style="fill:#060405;" d="M745.21,1829.484c-49.932,0-126.136-66.667-129.774-69.875l-1.254-1.11l-20.689-234.587
							l88.946-70.78l2.188,0.77c4.211,1.479,103.444,36.961,128.566,100.126c25.523,64.201-1.848,248.279-49.649,271.593
							C758.058,1828.296,751.863,1829.484,745.21,1829.484z M622.245,1754.402c11.496,9.865,98.598,82.706,137.62,63.681
							c39.731-19.382,70.793-197.417,45.528-260.958c-21.762-54.721-106.73-88.958-121.392-94.509l-81.756,65.049L622.245,1754.402z
							"/>
					</g>
                    <g>
						<path style="fill:#060405;" d="M412.308,1833.344c0,0,196.984,50.598,232.411,9.412
							c35.427-41.185-12.308-96.295-10.86-124.532c1.448-28.237,55.75-26.065,18.101-62.99
							c-37.649-36.925-38.373-52.854-33.305-62.99c5.068-10.136-4.344-76.746,24.617-80.367c28.961-3.62-6.59,49.529,32.964,49.529
							c39.554,0,188.703,38.373,182.187-16.653c-6.516-55.026-3.736-85.006-68.898-119.036
							c-65.162-34.029-107.155,13.032-120.912,14.48s-135.944-36.925-156.303,26.789c-20.359,63.714-29.047,131.048-45.7,157.837
							C449.957,1651.615,368.866,1790.627,412.308,1833.344z"/>
					</g>
                    <g>

							<ellipse transform="matrix(0.9993 -0.0377 0.0377 0.9993 -60.7439 27.1258)" style="fill:#060405;" cx="689.61" cy="1625.847" rx="10.966" ry="15.764"/>
					</g>
                    <g>
						<path style="fill:#060405;" d="M770.472,1636.561c0.328,8.7,5.5,15.567,11.552,15.339c6.052-0.228,10.692-7.465,10.364-16.165
							c-0.328-8.7-5.5-15.567-11.552-15.339C774.785,1620.624,770.144,1627.861,770.472,1636.561z"/>
					</g>
                    <g>
						<path style="fill:#060405;" d="M736.353,1694.781c-2.708-1.463-4.633-3.736-6.182-5.563c-1.495-1.77-1.274-4.416,0.492-5.916
							c1.77-1.483,4.416-1.274,5.916,0.492c1.2,1.426,2.446,2.892,3.765,3.605c3.284,1.785,2.629-2.216,1.676-5.875
							c-3.835-14.732-4.424-30.423-1.7-45.38c0.414-2.282,2.597-3.802,4.875-3.376c2.282,0.414,3.794,2.597,3.376,4.875
							c-2.503,13.765-1.962,28.211,1.569,41.767C753.938,1693.969,744.264,1699.056,736.353,1694.781z"/>
					</g>
                    <g>
						<path style="fill:#060405;" d="M686.405,1761.67c-1.536-1.733-1.377-4.384,0.357-5.92c1.725-1.536,4.379-1.389,5.92,0.356
							c8.583,9.677,30.206,13.851,46.277,8.951c2.233-0.688,4.564,0.57,5.236,2.786c0.676,2.216-0.569,4.56-2.786,5.236
							C722.824,1778.752,697.365,1774.032,686.405,1761.67z"/>
					</g>
				</g>
                <g>
					<path style="fill:#060405;" d="M909.701,2155.426c-1.872,0-3.581-1.262-4.06-3.163l-29.665-116.73
						c-0.573-2.245,0.787-4.527,3.032-5.097c2.224-0.578,4.527,0.782,5.096,3.032l29.665,116.73
						c0.574,2.245-0.787,4.527-3.032,5.097C910.393,2155.385,910.045,2155.426,909.701,2155.426z"/>
				</g>
                <g>
					<g>
						<g>
							<g>
								<polygon style="fill:#6193F6;" points="3913.738,2731.789 3913.582,3694.376 4030.517,3698.917 4142.003,3047.435
									4245.099,3695.561 4365.063,3699.729 4370.268,2718.699 								"/>
							</g>
                            <g>
								<path style="fill:#FFFFFF;" d="M3531.838,1883.83c4.041,18.267,31.842,49.138,31.842,49.138
									c-3.071,0-34.59,372.001,27.397,395.359c61.987,23.357,242.048-40.65,242.048-40.65l-53.34-175.297l-61.664,13.902
									l-84.374-218.693l12.85-83.809c0,0-47.278-153.956-56.734-151.288c-9.455,2.747-9.062,133.937-9.062,133.937
									S3527.797,1865.564,3531.838,1883.83z"/>
                                <path style="fill:#060405;" d="M3627.253,2337.639c-14.667,0-27.6-1.598-37.654-5.387
									c-64.115-24.155-34.225-377.09-30.562-398.201c-6.022-6.907-27.584-32.537-31.296-49.313l0,0
									c-4.138-18.714,37.769-67.417,48.863-79.9c-0.324-132.757,8.689-135.383,12.094-136.37
									c4.339-1.25,13.425-3.794,61.911,154.081c0.184,0.606,0.234,1.245,0.135,1.868l-12.679,82.706l82.669,214.271l58.13-13.106
									c2.11-0.479,4.297,0.766,4.937,2.872l53.34,175.298c0.652,2.143-0.496,4.425-2.61,5.174
									C3828.307,2293.844,3704.055,2337.635,3627.253,2337.639z M3567.403,1934.899c-5.326,21.16-30.698,368.458,25.154,389.503
									c54.983,20.713,209.207-30.402,235.377-39.366l-51.03-167.707l-57.859,13.044c-2.02,0.459-4.085-0.647-4.834-2.581
									l-84.374-218.691c-0.266-0.684-0.344-1.426-0.233-2.147l12.7-82.858c-19.202-62.452-42.275-129.246-51.398-144.801
									c-3.917,15.588-6.067,73.763-5.907,127.124c0.004,1.036-0.377,2.04-1.069,2.81c-21.414,23.893-50.46,62.554-47.994,73.697
									c3.757,16.985,30.591,46.933,30.861,47.236c1.11,1.229,1.389,2.999,0.713,4.511
									C3567.476,1934.751,3567.443,1934.825,3567.403,1934.899z"/>
							</g>
                            <g>
								<path style="fill:#FFFFFF;" d="M4101.332,1972.779c4.894-34.813,12.484-89.141,11.192-102.326
									c-1.607-16.396-49.035-5.583-53.407-50.179c-4.372-44.596,131.217-237.242,172.49-226.046
									c41.272,11.192,127.274,118.389,126.104,120.579c-1.052,1.976-115.93,164.252-123.621,244.958L4101.332,1972.779z"/>
                                <path style="fill:#060405;" d="M4097.176,1972.192c4.347-30.906,12.438-88.434,11.172-101.33
									c-0.315-3.224-5.404-5.096-13.745-7.8c-14.605-4.732-36.67-11.881-39.661-42.377
									c-3.777-38.522,82.788-166.633,136.78-212.276c17.678-14.945,31.058-20.931,40.984-18.227
									c42.496,11.52,125.452,114.907,128.775,122.585c0.508,1.172,0.533,2.884-0.065,4.011
									c-1.692,3.153-115.558,163.709-123.15,243.387c-0.188,1.999-1.77,3.581-3.765,3.777l-132.761,13.011
									C4098.938,1977.2,4096.807,1974.806,4097.176,1972.192z M4227.938,1597.966c-4.961,0-14.327,2.925-30.8,16.85
									c-55.802,47.175-137.112,171.738-133.847,205.049c2.454,25.027,19.161,30.439,33.897,35.216
									c9.583,3.105,18.636,6.039,19.509,14.962c1.209,12.299-4.621,56.278-10.471,98.041l124.076-12.159
									c8.459-66.364,86.014-189.577,122.527-241.375c-10.009-14.843-86.209-106.48-122.318-116.271
									C4229.831,1598.093,4228.982,1597.966,4227.938,1597.966z"/>
							</g>
                            <g>
								<path style="fill:#060405;" d="M4387.616,1988.803c-87.529-55.701-258.201-64.67-387.379-33.19
									c-33.841,8.247-231.385,122.654-231.385,122.654c-33.514,19.265-9.091,199.639,40.042,229.271l100.529-14.952
									l-19.522,491.167c2.19,21.889,500.081-14.407,497.892-36.296c0,0-35.871-259.958-23.074-347.083
									C4370.268,2362.592,4440.796,2022.645,4387.616,1988.803z"/>
							</g>
                            <g>
								<path style="fill:#FFFFFF;" d="M4316.315,2564.159c7.052,25.91,32.039,60.783,30.659,65.458
									c-1.456,4.753-1.456,6.134-4.292,11.347c-2.836,5.135-14.563,31.041,4.292,31.501c18.779,0.46,54.113-44.686,49.898-59.788
									c-4.292-15.022-3.066-33.878,24.144-42.613c0,0,215.457-125.626,224.271-176.061
									c8.891-50.435-99.105-176.75-101.712-182.267l-147.853,103.549l76.188,75.652l-106.233,110.986
									C4365.677,2501.924,4308.804,2536.569,4316.315,2564.159z"/>
                                <path style="fill:#060405;" d="M4347.253,2676.666c-0.127,0-0.254-0.004-0.381-0.004
									c-7.403-0.184-10.938-3.675-12.598-6.571c-6.28-10.947,4.281-30.333,4.736-31.152c2.15-3.952,2.384-5.07,3.769-9.923
									c-0.606-2.405-4.793-9.881-8.505-16.514c-7.513-13.413-17.8-31.787-22.008-47.24l0,0
									c-7.923-29.116,42.803-61.727,50.755-66.63l103.01-107.619l-73.267-72.747c-0.881-0.877-1.328-2.098-1.221-3.335
									c0.107-1.241,0.754-2.368,1.774-3.081l147.854-103.551c1.008-0.713,2.278-0.934,3.482-0.619
									c1.192,0.32,2.188,1.147,2.716,2.265c0.463,0.766,4.027,5.322,7.8,10.144c43.811,55.958,101.244,134.945,94.247,174.643
									c-9.046,51.755-217.421,173.79-226.287,178.96c-0.262,0.152-0.541,0.275-0.832,0.369
									c-19.783,6.35-26.781,18.604-21.389,37.465c3.355,12.02-10.984,31.709-15.458,37.457
									C4374.988,2662.421,4359.515,2676.666,4347.253,2676.666z M4320.362,2563.057c3.937,14.458,13.933,32.312,21.234,45.347
									c7.968,14.228,10.438,18.899,9.402,22.401c-1.555,5.441-1.972,7.28-4.633,12.167c-3.081,5.58-7.641,18.01-4.814,22.942
									c0.353,0.615,1.295,2.253,5.527,2.356c7.313,0.34,20.406-9.873,31.754-24.446c10.815-13.892,15.232-25.617,14.002-30.021
									c-6.559-22.942,2.835-39.837,26.458-47.588c59.751-34.876,214.922-133.228,221.862-172.934
									c7.157-40.612-67.917-136.51-92.588-168.022c-2.802-3.577-4.695-6.002-5.99-7.702l-140.335,98.286l72.628,72.116
									c1.622,1.614,1.655,4.228,0.074,5.879l-106.234,110.986c-0.254,0.262-0.537,0.492-0.848,0.68
									C4352.792,2514.695,4314.889,2542.942,4320.362,2563.057L4320.362,2563.057z"/>
							</g>
                            <g>
								<path style="fill:#060405;" d="M4382.778,1985.877c13.04,3.543,121.405,142.749,174.51,228.09
									c8.784,7.819-147.855,149.837-156.639,142.019c0,0-72.546-62.317-95.561-93.649
									C4284.153,2233.838,4382.778,1985.877,4382.778,1985.877z"/>
							</g>
                            <g>
								<path style="fill:#060405;" d="M4242.095,1924.376c0,0-48.628,15.721-60.277-60.716s116.433-190.124,96.685-193.729
									c-19.749-3.605-125.917-39.929-122.262-66.24s31.636-23.512,31.636-23.512s-35.433-67.179,44.441-74.317
									c79.874-7.138,216.695,136.964,195.359,209.015C4406.341,1786.928,4248.43,1865.327,4242.095,1924.376z"/>
							</g>
						</g>
                        <g>
							<g>
								<path style="fill:#EFC102;" d="M3913.582,3711.356v-21.158h119.578c1.548,38.452,4.669,112.961,5.591,112.961h-194.646
									C3837.487,3739.199,3913.582,3711.356,3913.582,3711.356z"/>
							</g>
                            <g>
								<path style="fill:#060405;" d="M3846.786,3775.333c-2.517,8.407-3.739,17.609-2.682,27.826h194.646
									c-0.36,0-1.063-11.537-1.875-27.826H3846.786z"/>
							</g>
						</g>
                        <g>
							<g>
								<path style="fill:#EFC102;" d="M4245.099,3711.356v-21.158h119.578c1.548,38.452,4.669,112.961,5.59,112.961h-194.646
									C4169.004,3739.199,4245.099,3711.356,4245.099,3711.356z"/>
							</g>
                            <g>
								<path style="fill:#060405;" d="M4178.304,3775.333c-2.518,8.407-3.739,17.609-2.683,27.826h194.646
									c-0.36,0-1.063-11.537-1.875-27.826H4178.304z"/>
							</g>
						</g>
					</g>
                    <g>
						<path style="fill:#060405;" d="M4177.296,1695.648c-4.633,5.34-11.631,6.885-15.543,3.491
							c-3.973-3.447-3.369-10.539,1.265-15.879c4.633-5.34,11.516-6.876,15.488-3.429
							C4182.418,1683.224,4181.93,1690.308,4177.296,1695.648z"/>
					</g>
                    <g>
						<path style="fill:#060405;" d="M4130.184,1798.254c-12.434-0.619-24.171-7.042-31.398-17.186l6.833-4.867
							c5.662,7.948,15.236,13.188,24.982,13.671L4130.184,1798.254z"/>
					</g>
				</g>
                <g>
					<g>
						<g>
							<path style="fill:#EFC102;" d="M2188.777,1941.128h-543.495c-20.484,0-37.09-16.606-37.09-37.09v-348.597
								c0-20.484,16.606-37.09,37.09-37.09h543.495c20.484,0,37.09,16.606,37.09,37.09v348.597
								C2225.867,1924.522,2209.261,1941.128,2188.777,1941.128z"/>
						</g>
                        <g>
							<g style="opacity:0.35;">
								<path style="fill:#FFFFFF;" d="M2173.046,1750.519v143.612h-510.486v-85.514c0-1.116,0.172-2.235,0.687-3.351
									c11.404-26.729,24.35-56.896,48.1-78.554c23.235-21.142,62.33-33.001,91.997-14.868c3.514,2.065,6.688,4.469,9.773,6.79
									c17.51,13.278,25.898,15.146,43.47-11.001c29.829-46.083,88.361-54.304,126.121-31.025c2.315,1.374,4.458,2.923,6.688,4.383
									c15.375,10.612,20.579,12.865,48.613,2.149c13.891-5.415,29.665-11.517,45.699-6.018
									c31.384,10.821,32.438,48.851,51.529,63.944C2139.609,1744.504,2173.046,1750.519,2173.046,1750.519z"/>
							</g>
                            <g>
								<path style="fill:#FFFFFF;" d="M2181.046,1746.373c-10.617,16.147-35.123,15.871-49.959,4.158
									c-12.229-9.688-18.342-23.605-25.202-37.581c-16.065-32.131-29.541-30.298-57.74-19.455
									c-34.595,13.307-45.157,10.185-66.41-3.979c-37.463-26.049-84.391-14.168-106.374,14.06
									c-8.341,10.765-21.036,37.612-46.689,37.404c-16.095-0.237-27.066-12.545-38.112-19.365
									c-23.167-14.149-54.646-3.981-73.748,13.35c-21.664,19.632-34.219,48.902-45.273,74.721
									c-1.414,3.271-4.687,5.304-8.137,5.304c-1.148,0-2.297-0.266-3.448-0.706c-3.361-1.416-5.395-4.775-5.395-8.137
									c0-1.149,0.177-2.299,0.708-3.448c11.761-27.501,25.114-58.539,49.608-80.822c23.963-21.752,64.283-33.954,94.88-15.297
									c3.625,2.124,6.898,4.598,10.08,6.986c18.023,13.634,26.696,15.605,44.832-11.319
									c31.051-47.856,91.607-55.578,130.073-31.92c2.388,1.414,4.598,3.007,6.897,4.51c15.864,10.923,21.224,13.236,50.136,2.211
									c14.326-5.572,30.595-11.85,47.131-6.192c16.714,5.749,26.351,21.223,32.806,34.133l2.476,5.041
									c7.727,15.993,16.981,33.871,34.573,31.037c3.45-0.531,5.926-2.034,7.517-4.421c2.653-4.067,8.134-5.218,12.202-2.565
									c0.091,0.089,0.177,0.089,0.177,0.177C2182.548,1737.001,2183.611,1742.394,2181.046,1746.373z"/>
							</g>
						</g>
                        <g>
							<path style="fill:#FFFFFF;" d="M2012.842,1575.812c0,4.785,3.936,8.722,8.8,8.722h152.001c4.864,0,8.802-3.937,8.802-8.722
								c0-4.864-3.937-8.802-8.802-8.802h-152.001C2016.778,1567.01,2012.842,1570.948,2012.842,1575.812z"/>
						</g>
                        <g>
							<path style="fill:#FFFFFF;" d="M2070.816,1606.614c0,4.785,3.937,8.722,8.801,8.722h94.026c4.864,0,8.802-3.937,8.802-8.722
								c0-4.865-3.937-8.8-8.802-8.8h-94.026C2074.753,1597.814,2070.816,1601.749,2070.816,1606.614z"/>
						</g>
					</g>
                    <g>
						<path style="fill:#060405;" d="M1740.709,1649.637h-199.225c-16.543,0-29.954-13.411-29.954-29.954v-176.231
							c0-16.543,13.411-29.954,29.954-29.954h199.225c16.543,0,29.954,13.411,29.954,29.954v176.231
							C1770.663,1636.226,1757.252,1649.637,1740.709,1649.637z"/>
					</g>
                    <g>
						<path style="fill:#FFFFFF;" d="M1641.131,1612.599c-44.7,0-81.063-36.363-81.063-81.063c0-44.659,36.363-80.994,81.063-80.994
							c44.659,0,80.99,36.334,80.99,80.994C1722.121,1576.236,1685.791,1612.599,1641.131,1612.599z M1641.131,1475.713
							c-30.82,0-55.893,25.044-55.893,55.823c0,30.82,25.072,55.893,55.893,55.893c30.779,0,55.819-25.072,55.819-55.893
							C1696.95,1500.757,1671.911,1475.713,1641.131,1475.713z"/>
					</g>
                    <g>
						<path style="fill:#EFC102;" d="M1592.707,1592.542c-3.22,0-6.44-1.229-8.898-3.687c-15.31-15.31-23.741-35.663-23.741-57.318
							c0-44.659,36.363-80.994,81.063-80.994c6.952,0,12.585,5.633,12.585,12.585s-5.633,12.585-12.585,12.585
							c-30.82,0-55.893,25.044-55.893,55.823c0,14.929,5.813,28.964,16.367,39.522c4.916,4.912,4.916,12.884,0,17.797
							C1599.147,1591.313,1595.927,1592.542,1592.707,1592.542z"/>
					</g>
				</g>
                <g>
					<g>
						<g>
							<path style="fill:#FF7545;" d="M3380.233,1556.083c-1.754-1.754-1.754-4.595,0-6.349l33.031-33.031
								c1.754-1.754,4.595-1.754,6.349,0c1.754,1.754,1.754,4.595,0,6.349l-33.031,33.031
								C3384.829,1557.837,3381.987,1557.837,3380.233,1556.083z"/>
						</g>
					</g>
                    <g>
						<g>
							<path style="fill:#FF7545;" d="M3413.265,1556.083l-33.031-33.031c-1.754-1.754-1.754-4.595,0-6.349
								c1.754-1.754,4.595-1.754,6.349,0l33.031,33.031c1.754,1.754,1.754,4.595,0,6.349
								C3417.86,1557.837,3415.019,1557.837,3413.265,1556.083z"/>
						</g>
					</g>
				</g>
                <g>
					<polyline style="fill:#FFFFFF;" points="3627.238,1429.982 3637.896,1440.64 3674.813,1403.723 					"/>
                    <path style="fill:#060405;" d="M3634.93,1443.606l-10.66-10.66c-1.639-1.639-1.639-4.293,0-5.932
						c1.639-1.639,4.293-1.639,5.932,0l7.694,7.694l33.95-33.95c1.639-1.639,4.294-1.639,5.932,0c1.639,1.639,1.639,4.293,0,5.932
						l-36.916,36.916C3639.223,1445.245,3636.569,1445.245,3634.93,1443.606z"/>
				</g>
                <g>
					<polygon style="fill:#D2E4FF;" points="3912.578,1125.27 4027.966,726.914 3796.533,879.504 3838.731,943.555
						3934.823,853.812 3865.917,1004.082 					"/>
				</g>
                <g>
					<polygon style="fill:#060405;" points="3838.731,943.555 3891.756,947.732 3934.823,853.812 					"/>
				</g>
			</g>
            <g>
				<g>
					<line style="fill:#BDD6FF;" x1="3434.23" y1="2735.139" x2="3786.49" y2="2735.139"/>
                    <path style="fill:#C6E2FA;" d="M3786.491,2738.286h-352.26c-1.737,0-3.146-1.409-3.146-3.146s1.409-3.146,3.146-3.146h352.26
						c1.737,0,3.146,1.409,3.146,3.146S3788.228,2738.286,3786.491,2738.286z"/>
				</g>
                <g>
					<line style="fill:#BDD6FF;" x1="3434.23" y1="2909.763" x2="3786.49" y2="2909.763"/>
                    <path style="fill:#C6E2FA;" d="M3786.491,2912.908h-352.26c-1.737,0-3.146-1.409-3.146-3.146s1.409-3.146,3.146-3.146h352.26
						c1.737,0,3.146,1.409,3.146,3.146S3788.228,2912.908,3786.491,2912.908z"/>
				</g>
                <g>
					<line style="fill:#BDD6FF;" x1="3224.229" y1="2822.451" x2="3722.511" y2="2822.451"/>
                    <path style="fill:#C6E2FA;" d="M3722.511,2825.597H3224.23c-1.737,0-3.146-1.409-3.146-3.146s1.409-3.146,3.146-3.146h498.282
						c1.737,0,3.146,1.409,3.146,3.146S3724.249,2825.597,3722.511,2825.597z"/>
				</g>
                <g>
					<line style="fill:#BDD6FF;" x1="3506.719" y1="2660.917" x2="3506.719" y2="2735.139"/>
                    <path style="fill:#C6E2FA;" d="M3506.721,2738.286c-1.737,0-3.146-1.409-3.146-3.146v-74.222c0-1.737,1.409-3.146,3.146-3.146
						s3.146,1.409,3.146,3.146v74.222C3509.867,2736.876,3508.458,2738.286,3506.721,2738.286z"/>
				</g>
                <g>
					<line style="fill:#BDD6FF;" x1="3630.573" y1="2735.139" x2="3630.573" y2="2822.451"/>
                    <path style="fill:#C6E2FA;" d="M3630.571,2825.597c-1.737,0-3.146-1.409-3.146-3.146v-87.311c0-1.737,1.409-3.146,3.146-3.146
						s3.146,1.409,3.146,3.146v87.311C3633.717,2824.188,3632.308,2825.597,3630.571,2825.597z"/>
				</g>
                <g>
					<line style="fill:#BDD6FF;" x1="3536.349" y1="2822.451" x2="3536.349" y2="2906.847"/>
                    <path style="fill:#C6E2FA;" d="M3536.349,2909.995c-1.737,0-3.146-1.409-3.146-3.146v-84.398c0-1.737,1.409-3.146,3.146-3.146
						c1.737,0,3.146,1.409,3.146,3.146v84.398C3539.495,2908.586,3538.086,2909.995,3536.349,2909.995z"/>
				</g>
			</g>
            <g>
				<g>
					<line style="fill:#BDD6FF;" x1="1840.083" y1="1073.869" x2="2192.343" y2="1073.869"/>
                    <path style="fill:#C6E2FA;" d="M2192.344,1077.016h-352.259c-1.737,0-3.146-1.409-3.146-3.146c0-1.737,1.409-3.146,3.146-3.146
						h352.259c1.737,0,3.146,1.409,3.146,3.146C2195.49,1075.607,2194.081,1077.016,2192.344,1077.016z"/>
				</g>
                <g>
					<line style="fill:#BDD6FF;" x1="1840.083" y1="1248.494" x2="2192.343" y2="1248.494"/>
                    <path style="fill:#C6E2FA;" d="M2192.344,1251.639h-352.259c-1.737,0-3.146-1.409-3.146-3.146c0-1.737,1.409-3.146,3.146-3.146
						h352.259c1.737,0,3.146,1.409,3.146,3.146C2195.49,1250.229,2194.081,1251.639,2192.344,1251.639z"/>
				</g>
                <g>
					<line style="fill:#BDD6FF;" x1="1630.082" y1="1161.182" x2="2128.364" y2="1161.182"/>
                    <path style="fill:#C6E2FA;" d="M2128.364,1164.327h-498.282c-1.737,0-3.146-1.409-3.146-3.146c0-1.737,1.409-3.146,3.146-3.146
						h498.282c1.737,0,3.146,1.409,3.146,3.146C2131.51,1162.918,2130.101,1164.327,2128.364,1164.327z"/>
				</g>
                <g>
					<line style="fill:#BDD6FF;" x1="1912.571" y1="999.648" x2="1912.571" y2="1073.869"/>
                    <path style="fill:#C6E2FA;" d="M1912.573,1077.016c-1.737,0-3.146-1.409-3.146-3.146v-74.222c0-1.737,1.409-3.146,3.146-3.146
						s3.146,1.409,3.146,3.146v74.222C1915.72,1075.607,1914.31,1077.016,1912.573,1077.016z"/>
				</g>
                <g>
					<line style="fill:#BDD6FF;" x1="2036.425" y1="1073.869" x2="2036.425" y2="1161.182"/>
                    <path style="fill:#C6E2FA;" d="M2036.424,1164.327c-1.737,0-3.146-1.409-3.146-3.146v-87.311c0-1.737,1.409-3.146,3.146-3.146
						c1.737,0,3.146,1.409,3.146,3.146v87.311C2039.57,1162.918,2038.161,1164.327,2036.424,1164.327z"/>
				</g>
                <g>
					<line style="fill:#BDD6FF;" x1="1942.202" y1="1161.182" x2="1942.202" y2="1245.578"/>
                    <path style="fill:#C6E2FA;" d="M1942.201,1248.726c-1.737,0-3.146-1.409-3.146-3.146v-84.398c0-1.737,1.409-3.146,3.146-3.146
						c1.737,0,3.146,1.409,3.146,3.146v84.398C1945.348,1247.316,1943.938,1248.726,1942.201,1248.726z"/>
				</g>
			</g>
		</g>
	</g>
</g>
</svg>
