<?xml version="1.0" encoding="utf-8"?>
<!-- Generator: Adobe Illustrator 27.5.0, SVG Export Plug-In . SVG Version: 6.00 Build 0)  -->
<svg version="1.1" id="Capa_1" xmlns="http://www.w3.org/2000/svg" xmlns:xlink="http://www.w3.org/1999/xlink" x="0px" y="0px"
     viewBox="0 0 1860 2420" style="enable-background:new 0 0 1860 2420;" xml:space="preserve">
<rect x="0.001" y="-0.001" style="fill:#FFFFFF;" width="1859.956" height="2419.413"/>
    <polygon style="fill:#DC3D23;" points="951.544,1533.324 950.786,1800.989 489.729,1534.799 490.488,1267.131 "/>
    <polygon style="fill:#DC3D23;" points="1412.6,1799.514 1411.842,2067.181 950.786,1800.989 951.544,1533.324 "/>
    <path style="fill:#B4341A;" d="M1601.432,1535.177l-0.759,267.668c-0.272,95.729-63.174,191.313-188.831,264.337l0.758-267.668
	C1538.258,1726.49,1601.16,1630.905,1601.432,1535.177z"/>
    <path style="fill:#DC3D23;" d="M1409.605,1267.129c254.596,146.989,255.935,385.393,2.995,532.385l-461.056-266.19l-461.056-266.192
	C743.431,1120.139,1154.926,1120.089,1409.605,1267.129z"/>
    <polygon style="fill:#EF7840;" points="951.544,1533.324 950.786,1800.989 492.644,2067.235 493.402,1799.566 "/>
    <path style="fill:#BF6333;" d="M492.644,2067.235c-128.13-73.974-192.115-171.062-191.849-268.007l0.758-267.668
	c-0.266,96.946,63.719,194.033,191.849,268.006c95.474,55.123,213.026,89.572,336.01,103.35
	c-0.25,89.225-0.506,178.444-0.758,267.668C705.667,2156.806,588.117,2122.357,492.644,2067.235z"/>
    <path style="fill:#F49F2C;" d="M1412.6,1799.514l-0.758,267.668c-253.026,147.04-664.605,147.042-919.2,0.053l0.761-267.668
	C747.998,1946.556,1159.577,1946.556,1412.6,1799.514z"/>
    <path style="fill:#F49F2C;" d="M1411.842,2067.181c-158.139,91.9-378.213,126.363-583.188,103.403
	c0.253-89.225,0.509-178.444,0.758-267.668c204.974,22.961,425.048-11.502,583.188-103.402
	C1412.373,1879.814,1412.069,1986.881,1411.842,2067.181z"/>
    <path style="fill:#FBBF2B;" d="M951.544,1533.324l461.056,266.19c-253.023,147.042-664.602,147.042-919.198,0.052L951.544,1533.324z
	"/>
    <path style="fill:#EF7840;" d="M1412.6,1799.514c-253.023,147.042-664.602,147.042-919.198,0.052
	c-254.679-147.04-255.937-385.392-2.914-532.435l461.056,266.192l-458.142,266.242
	C747.998,1946.556,1159.577,1946.556,1412.6,1799.514z"/>
    <path style="fill:#FFFFFF;" d="M1414.287,1435.739c0,0,10.505,11.708,5.098,29.234c-9.38,30.42-4.94,35.616-3.553,37.797
	c1.386,2.184,30.726-22.666,42.186-39.678c10.108-15,3.72-18.295-1.206-23.13c-4.923-4.834-17.093-19.16-19.429-23.802
	L1414.287,1435.739z"/>
    <path style="fill:#1F1D37;" d="M1415.807,1478.029c0,0-14.025,40.717-9.571,53.511c0,0,4.156,10.063,17.578,3.076
	c20.026-10.43,38.008-35.644,42.034-47.391c0,0,3.245-5.74,5.001-7.316c1.756-1.575,11.102-10.733,10.333-14.836
	c0,0-11.661-18.635-24.369-25.111c0,0-5.879,15.84-18.973,24.161c0,0,1.997-7.704-1.781-7.141l-15.789,4.515
	C1420.269,1461.498,1413.32,1460.25,1415.807,1478.029z"/>
    <path style="fill:#FFFFFF;" d="M1336.809,1499.453c0,0,2.587,15.514-11.377,27.409c-24.23,20.643-23.272,27.409-23.272,29.992
	c0,2.587,38.089-2.65,56.884-10.858c16.579-7.241,12.953-13.447,11.391-20.171c-1.564-6.721-4.15-25.339-3.634-30.51
	L1336.809,1499.453z"/>
    <path style="fill:#1F1D37;" d="M1300.343,952.317l-13.167,214.096c0,0,112.724,266.845,118.931,284.427
	c0,0,35.185-2.069,47.585-44.476l-64.086-265.809l22.705-176.863L1300.343,952.317z"/>
    <path style="fill:#2E2B4A;" d="M1437.731,940.857c0,0,9.994,70.557,3.19,101.98c-6.802,31.424-27.578,138.891-27.578,138.891
	s-4.398,34.821-4.398,56.054c0,21.229-28.659,264.934-28.659,264.934s-25.855,11.889-55.092,0c0,0-17.24-294.093-17.24-319.018
	c0-35.671,35.538-255.974,35.538-255.974L1437.731,940.857z"/>
    <path style="fill:#F6B198;" d="M1068.8,638.929c0,0-40.531-29.284-51.583-30.64c0,0-3.103,0.195,0,5.234
	c3.101,5.042,21.524,20.39,22.688,23.869c0,0,0.97,4.834,0.389,5.415c0,0-13.558-2.039-18.229-1.164
	c-3.103,0.583-0.778,4.073,1.356,5.432c2.134,1.356,12.197,3.49,18.026,6.593c5.829,3.103,16.106,7.563,19.21,7.563
	C1063.757,661.231,1068.8,638.929,1068.8,638.929z"/>
    <path style="fill:#FFFFFF;" d="M1085.22,644.616l-17.323-8.791c0,0-9.827,13.542-9.827,27.667l14.481,9.569L1085.22,644.616z"/>
    <path style="fill:#27326D;" d="M1303.719,666.743c0,0-24.314,3.732-37.242,6.318c-12.927,2.584-81.965,15.034-81.965,15.034
	l-102.655-47.213c0,0-10.344,9.475-16.548,32.163c0,0,85.679,53.081,93.862,57.754c17.065,9.749,28.117,15.442,45.765,15.564
	c31.029,0.211,79.125,0.392,79.125,0.392L1303.719,666.743z"/>
    <path style="fill:#F49E87;" d="M1287.176,723.916c1.053-9.599,2.42-43.768,4.143-46.163c0,0,34.085-9.346,36.621-14.778
	c3.89-8.329,9.322-31.679,10.808-56.24c0.361-6.123,40.884-31.917,40.884-31.917s-0.909,58.784,12.494,85.359
	c0,0,45.251,6.602,55.423,16.776c2.648,2.648,4.765,7.765,6.143,14.503L1287.176,723.916z"/>
    <path style="fill:#F18B77;" d="M1330.002,657.571c24.272,9.308,52.572-23.33,50.208-44.123c-0.033-0.58-0.058-1.139-0.086-1.706
	l-0.059-1.12c-0.03-0.647-0.055-1.269-0.083-1.895l-0.034-0.769c-0.028-0.698-0.053-1.367-0.077-2.034l-0.014-0.442
	c-0.025-0.731-0.047-1.433-0.069-2.122l-0.003-0.103l-0.003-0.011h-3.801l-39.175,19.229
	C1335.815,636.153,1332.378,647.394,1330.002,657.571z"/>
    <path style="fill:#2E2B4A;" d="M1267.811,947.419c0,0,62.675,5.023,176.487-6.562"/>
    <path style="fill:#D2DFF3;" d="M1393.263,660.222c0,0-47.641,23.635-52.253,22.983c-4.218-0.597-12.725-8.774-18.86-17.709
	l-12.589,4.848l-30.04,286.628c0,0,57.465,40.392,149.496,1.575L1393.263,660.222z"/>
    <path style="fill:#141222;" d="M1335.684,714.461l13.167-0.292c0,0,13.975,59.476-3.251,146.87
	c-5.054,25.653-9.494,41.631-9.494,41.631s-16.589-12.927-16.331-47.579C1320.033,820.445,1339.193,761.519,1335.684,714.461z"/>
    <path style="fill:#141222;" d="M1330.364,691.095c0,0,3.136,20.468,5.981,24.605c0,0,8.532,2.07,11.636,1.295l8.637-25.9
	l-15.609-7.891l-3.407-1.1L1330.364,691.095z"/>
    <polygon style="fill:#FFFFFF;" points="1341.01,683.205 1315.944,706.029 1315.944,670.408 1327.941,662.975 "/>
    <path style="fill:#FFFFFF;" d="M1341.01,683.205l42.395,30.965l6.202-52.145C1389.607,662.025,1367.519,674.375,1341.01,683.205z"/>
    <path style="fill:#27326D;" d="M1390.14,659.097c1.006-1.703,3.295-2.134,3.295-2.134c9.841,0.459,30.09,9.227,60.257,19.326
	c0,0,11.672-0.903,11.11,54.172c-0.58,56.795,8.569,159.087,0.773,262.192c0,0-25.4,33.357-76.597,33.357
	C1388.979,1026.011,1371.522,757.531,1390.14,659.097z"/>
    <polygon style="fill:#DD1072;" points="1395.036,918.185 1310.446,913.229 1310.446,793.623 1395.036,799.849 "/>
    <path style="fill:#27326D;" d="M1327.941,662.975l-31.584,4.912c-21.605-4.912-32.704,289.828-32.704,289.828
	c5.993,17.684,19.632,37.319,41.982,39.647C1305.633,997.363,1291.767,783.682,1327.941,662.975z"/>
    <path style="fill:#F6B198;" d="M1306.895,544.758c0,0-7.171,28.829-6.507,56.159c0.739,30.512,12.891,41.631,23.408,44.954
	c0,0,2.5,1.936,12.475,1.717c12.288-0.272,36.435-15.173,45.701-37.944c0,0,6.348,2.85,11.619-7.679
	c5.265-10.549,4.409-27.75-8.655-19.065c0,0,10.602-47.363-10.375-53.367C1353.582,523.54,1313.71,510.421,1306.895,544.758z"/>
    <path style="fill:#273470;" d="M1405.46,522.012c20.388,39.775-4.14,69.968-17.596,90.597c-5.679,8.702-3.292,18.66-4.515,18.27
	c-2.539-8.529-3.848-10.225-3.14-17.432c-0.086-1.706,1.553-3.298,1.762-3.803c0,0,4.484,3.337,11.641-9.055
	c5.07-8.78,3.045-26.209-7.554-17.145c-1.186,1.256-2.498,2.464-3.59,2.934c-2.612,1.128-9.733-14.945-5.599-24.903
	c0,0,3.304-12.197,1.056-20.159c0,0-24.87,9.13-45.332,6.998c0,0-13.228-1.428-19.527-10.157c0,0-5.29,5.865-8.124,14.589
	c0,0-18.315-30.457-1.225-48.791c14.081-15.108,31.57-10.513,32.021-10.255c0.456,0.261,10.441,1.128,25.474,3.531
	C1383.688,500.827,1395.647,502.864,1405.46,522.012z"/>
    <path style="fill:#273470;" d="M1300.793,530.922c0,0-3.337,31.26,0.65,42.404c0,0,2.198-17.401,6.51-27.584L1300.793,530.922z"/>
    <path style="fill:#F6B198;" d="M1364.226,885.336c0,0-24.538,7.602-31.293,7.568c-6.757-0.036-23.58-12.119-24.483-14.945
	c-0.903-2.826-4.726-10.85-1.628-14.412c3.101-3.559,4.001-0.741,6.565,1.301c2.565,2.044,20.391,2.075,20.391,2.075
	s-10.65-5.798-9.413-7.979c1.236-2.184,13.278,1.125,15.967,1.695c2.69,0.572,20.644,5.384,23.144,6.854L1364.226,885.336z"/>
    <path style="fill:#FFFFFF;" d="M1376.112,860.828l-15.515,4.865c0,0-5.17,13.897-1.808,22.983l18.615-1.52L1376.112,860.828z"/>
    <path style="fill:#27326D;" d="M1455.626,677.103c0,0-22.63,28.537-19.526,68.873l35.683,76.022l-100.03,37.336
	c0,0-5.935,20.737,0,30.926c0,0,126.404-16.29,145.797-34.133c9.294-8.549,9.847-23.641,9.072-31.62
	C1525.846,816.525,1496.607,678.684,1455.626,677.103z"/>
    <polyline style="fill:#FFFFFF;" points="1382.47,856.162 1465.819,825.05 1465.275,823.597 1381.927,854.709 "/>
    <polyline style="fill:#FFFFFF;" points="1465.077,873.495 1383.159,887.912 1383.428,889.44 1465.345,875.023 "/>
    <path style="fill:#1F1D37;" d="M1315.41,1535.958c0,0-33.676,26.845-36.78,40.034c0,0-1.89,10.721,13.186,12.021
	c22.496,1.94,51.2-9.697,60.893-17.453c0,0,5.818-3.103,8.146-3.49c2.328-0.389,15.125-3.103,16.678-6.982
	c0,0,0.153-21.98-7.099-34.262c0,0-13.458,10.216-28.972,10.216c0,0,5.818-5.429,2.328-6.982l-15.747-4.659
	C1328.044,1524.4,1322.845,1519.621,1315.41,1535.958z"/>
    <path style="fill:#F6B198;" d="M687.791,641.932c0,0,63.475-99.013,89.497-129.767l9.46,3.551c0,0-48.886,127.005-72.935,143.564
	L687.791,641.932z"/>
    <path style="fill:#B2CBEB;" d="M602.851,700.595c0,0,74.033-52.475,90.856-70.946c0,0,27.255,7.84,29.359,24.716
	c2.103,16.879-95.595,124.054-95.595,124.054L602.851,700.595z"/>
    <path style="fill:#2E2B4A;" d="M633.213,935.422l22.069,598.188c0,0-11.042,14.459-43.223-2.628l-82.64-607.079L633.213,935.422z"/>
    <path style="fill:#2E2B4A;" d="M477.605,952.745l-41.087,577.581c0,0,19.626,13.269,47.393,5.521l105.556-595.754L477.605,952.745z"
    />
    <path style="fill:#F49E87;" d="M596.48,749.283l-144.414-16.27c0.895-6.935,2.659-12.28,5.148-15.161
	c9.555-11.069,61.177-21.416,61.177-21.416c11.608-27.937,3.076-84.029,3.076-84.029s51.177,18.268,52,24.45
	c3.337,24.786,5.638,49.483,10.202,57.637c0.867,1.548,4.476,3.234,9.146,4.846L596.48,749.283z"/>
    <path style="fill:#F18B77;" d="M524.467,657.252c0.056-4.409-0.016-8.763-0.172-12.931c1.22,0.534,2.64,1.189,2.634,0.978
	c-0.017-0.656-0.036-1.292-0.055-1.925l-0.025-0.786c-0.022-0.706-0.047-1.389-0.072-2.067l-0.016-0.447
	c-0.028-0.741-0.059-1.456-0.089-2.156l-0.005-0.105l0.002-0.011l3.851-0.283l44.329,16.765c0.809,6.09,1.995,11.897,3.229,17.423
	c1.275,8.424,2.65,15.472,4.351,20.026C544.049,691.62,528.891,671.777,524.467,657.252z"/>
    <path style="fill:#D2DFF3;" d="M602.851,700.595l-16.442-4.149c-5.557,9.519-10.252,18.61-14.484,19.529
	c-4.626,1.005-53.534-19.54-53.534-19.54s-73.237-4.701-81.872,0l11.455,78.872l28.706,210.731
	c91.497,29.134,158.625-5.696,158.625-5.696s1.845-208.369-6.987-243.618C621.605,709.943,615.97,704.573,602.851,700.595z"/>
    <path style="fill:#141222;" d="M579.652,747.266l-13.372,0.68c0,0-9.741,61.338,14.225,148.654
	c7.035,25.631,12.725,41.498,12.725,41.498s15.853-14.342,13.014-49.449C603.404,853.541,579.593,795.228,579.652,747.266z"/>
    <path style="fill:#141222;" d="M585.792,720.343c0,0-4.143,23.824-6.718,28.228c0,0-8.496,2.731-11.7,2.178l-15.483-29.101
	l14.158-6.365l5.877,0.692L585.792,720.343z"/>
    <polygon style="fill:#FFFFFF;" points="571.925,715.976 602.045,731.734 594.427,698.469 583.669,694.493 "/>
    <path style="fill:#FFFFFF;" d="M567.419,715.184l-44.615,23.094l-4.412-41.842C518.391,696.435,540.532,705.445,567.419,715.184z"/>
    <path style="fill:#F6B198;" d="M596.208,573.084c0,0,9.413,28.692,10.775,56.448c1.523,30.987-9.972,43.164-20.382,47.313
	c0,0-2.393,2.151-12.522,2.67c-12.475,0.639-38.064-12.67-49.152-35.063c0,0-6.227,3.359-12.35-6.921
	c-6.124-10.305-6.537-27.806,7.354-19.976c0,0-14.272-47.221,6.545-54.87C547.297,555.047,586.739,538.78,596.208,573.084z"/>
    <path style="fill:#273470;" d="M524.926,644.452c0,0-4.298,3.714-12.478-8.316c-5.793-8.521-5.037-26.339,6.385-17.943
	c1.294,1.186,2.717,2.309,3.856,2.706c2.731,0.95,8.752-15.875,3.823-25.658c0,0-4.259-12.122-2.57-20.36
	c0,0,34.53,3.976,43.773,0.661c0,0,12.747-2.253,21.138-10.852c0,0,6.404,7.712,9.927,16.345c0,0,7.474-30.206-11.953-46.693
	c-16.865-14.309-31.735-9.824-32.173-9.53c-0.442,0.3-12.239,2.125-25.564,5.479c-22.421,5.634-23.902,8.218-32.823,22.785
	c-23.736,38.744,2.289,74.396,17.862,93.998c8.93,11.238,8.741,20.944,9.95,20.46L524.926,644.452z"/>
    <path style="fill:#273470;" d="M597.991,553.291c0,0,9.08,36.752,5.868,48.349c0,0-3.523-17.478-8.652-27.481L597.991,553.291z"/>
    <path style="fill:#2E2B4A;" d="M481.775,1494.843c0,0-9.308,37.061-6.143,52.042c3.165,14.981,0.394,33.513,0.394,33.513
	l-14.981,1.97c0,0-4.979,3.848-10.252,10.155c-1.52,1.817-12.32,10.741-35.877,8.377c-10.561-1.061-2.812-17.348,1.759-24.05
	c4.57-6.704,23.082-26.022,25.052-36.271c1.967-10.252,3.973-42.973,3.973-42.973L481.775,1494.843z"/>
    <path style="fill:#2E2B4A;" d="M612.058,1494.843c0,0,9.307,37.061,6.143,52.042c-3.165,14.981-0.395,33.513-0.395,33.513
	l14.981,1.97c0,0,4.977,3.848,10.25,10.155c1.523,1.817,12.319,10.741,35.877,8.377c10.56-1.061,2.814-17.348-1.756-24.05
	c-4.57-6.704-23.083-26.022-25.052-36.271c-1.967-10.252-3.973-42.973-3.973-42.973L612.058,1494.843z"/>
    <path style="fill:#CEE0F4;" d="M696.332,623.27c0,0,25.497,11.038,31.54,26.02c0,0,2.103,5.785,0,7.885
	c0,0-3.379,10.124-7.732,6.771c0,0-21.702-24.061-32.349-28.559c0,0-2.648-3.437,4.337-7.121
	C692.128,628.265,692.842,623.047,696.332,623.27z"/>
    <path style="fill:#F6B198;" d="M777.288,514.797c0,0-2.306-6.31-1.286-17.084c0,0-1.342-13.145,1.286-14.456
	c2.628-1.314,2.32,10.935,4.731,12.613c1.108,0.773,4.204-4.467,4.729-5.254c0,0,8.674-17.876,10.777-19.188
	c0,0,2.364-0.525,2.364,1.84c0,0,4.996-6.046,7.36-6.307c2.367-0.264,6.571,7.359,3.153,13.403c0,0,2.575,0.525,1.289,2.892
	c-1.289,2.364-8.329,30.053-26.119,35.479L777.288,514.797z"/>
    <path style="fill:#F6B198;" d="M392.301,632.314c0,0-68.954-99.777-96.868-130.542l-9.627,3.995c0,0,54.92,129.15,80.297,145.353
	L392.301,632.314z"/>
    <path style="fill:#D2DFF3;" d="M506.683,699.041c0,0-104.569-57.795-121.39-76.269c0,0-27.258,7.84-29.359,24.719
	c-2.104,16.879,92.039,127.816,92.039,127.816L506.683,699.041z"/>
    <path style="fill:#CEE0F4;" d="M382.665,616.396c0,0-25.497,11.038-31.543,26.019c0,0-2.101,5.782,0,7.885
	c0,0,3.381,10.122,7.737,6.768c0,0,21.702-24.063,32.346-28.556c0,0,2.648-3.437-4.337-7.124
	C386.869,621.389,386.155,616.174,382.665,616.396z"/>
    <path style="fill:#F6B198;" d="M295.525,504.483c0,0,2.15-6.587,0.714-17.656c0,0,0.917-13.592-1.84-14.853
	c-2.756-1.258-2,11.355-4.426,13.173c-1.114,0.836-4.496-4.454-5.062-5.249c0,0-9.577-18.112-11.791-19.39
	c0,0-2.459-0.456-2.373,1.981c0,0-5.365-6.049-7.81-6.238c-2.448-0.189-6.512,7.821-2.773,13.928c0,0-2.634,0.631-1.222,3.026
	c1.411,2.389,9.654,30.673,28.184,35.633L295.525,504.483z"/>
    <path style="fill:#F6B198;" d="M1178.501,1134.712c-1.053-14.2-5.882-34.827-17.91-63.65l-33.965,21.838
	c0,0,8.318,22.591,19.104,41.811H1178.501z"/>
    <path style="fill:#B2CBEB;" d="M905.846,894.997c0,0-110.382-1.689-135.146-6.929c0,0-20.246,26.767-11.988,41.895
	c8.255,15.128,135.693,46.949,135.693,46.949L905.846,894.997z"/>
    <path style="fill:#CEE0F4;" d="M766.555,876.893c0,0,19.502,7.543,21.633,15.367c2.131,7.824-2.131,42.587-17.579,47.31
	c-15.445,4.726-43.592-16.759-36.594-37.622C741.014,881.086,766.555,876.893,766.555,876.893z"/>
    <path style="fill:#2E2B4A;" d="M881.899,1130.221l-22.36,606.117c0,0,11.186,14.65,43.796-2.661l94.906-606.39L881.899,1130.221z"/>
    <path style="fill:#2E2B4A;" d="M1038.082,1159.517l63.869,573.497c0,0-19.887,13.445-48.022,5.593l-150.596-596.171
	L1038.082,1159.517z"/>
    <path style="fill:#F49E87;" d="M919.115,941.615l139.21,9.244c-0.909-7.027-2.698-12.441-5.218-15.362
	c-9.683-11.216-54.867-47.43-54.867-47.43c-11.761-28.309-3.117-85.14-3.117-85.14s-51.853,18.51-52.689,24.772
	c-3.379,25.114-5.712,50.139-10.336,58.404c-0.878,1.564-4.534,3.273-9.266,4.904L919.115,941.615z"/>
    <path style="fill:#F18B77;" d="M992.083,848.368c-0.059-4.471,0.016-8.883,0.175-13.106c-1.234,0.542-2.675,1.209-2.667,0.992
	c0.017-0.667,0.036-1.306,0.056-1.951l0.025-0.795c0.022-0.716,0.047-1.408,0.072-2.094l0.017-0.453
	c0.031-0.753,0.061-1.478,0.092-2.187l0.006-0.108l-0.003-0.011l-3.904-0.283l-44.918,16.987c-0.817,6.165-2.02,12.052-3.27,17.651
	c-1.289,8.535-2.684,15.681-4.406,20.293C972.243,883.189,987.602,863.084,992.083,848.368z"/>
    <path style="fill:#D2DFF3;" d="M912.661,892.285l16.662-4.203c5.632,9.641,10.388,18.853,14.672,19.784
	c4.69,1.02,54.245-19.799,54.245-19.799s69.684,26.395,78.436,31.157l-7.085,48.76l-29.087,213.526
	c-92.708,29.517-160.725-5.77-160.725-5.77s-25-219.564-2.82-256.855C889.717,897.433,899.367,896.313,912.661,892.285z"/>
    <path style="fill:#141222;" d="M936.169,939.57l13.547,0.692c0,0,9.871,62.152-14.414,150.624
	c-7.127,25.972-12.889,42.048-12.889,42.048s-16.067-14.534-13.189-50.105C912.102,1047.257,936.227,988.172,936.169,939.57z"/>
    <path style="fill:#141222;" d="M929.948,912.292c0,0,4.198,24.139,6.807,28.604c0,0,8.61,2.77,11.855,2.206l15.69-29.487
	l-14.348-6.449l-5.957,0.7L929.948,912.292z"/>
    <polygon style="fill:#FFFFFF;" points="943.995,907.866 913.478,923.834 921.196,890.132 932.098,886.103 "/>
    <path style="fill:#FFFFFF;" d="M948.566,907.066l45.204,23.399l4.47-42.398C998.24,888.067,975.808,897.197,948.566,907.066z"/>
    <path style="fill:#F6B198;" d="M919.393,763.083c0,0-9.538,29.07-10.919,57.195c-1.539,31.396,10.105,43.735,20.655,47.941
	c0,0,2.423,2.179,12.686,2.706c12.644,0.645,38.569-12.836,49.805-35.53c0,0,6.31,3.406,12.514-7.013
	c6.204-10.438,6.623-28.173-7.452-20.238c0,0,14.461-47.849-6.632-55.601C968.951,744.807,928.987,728.323,919.393,763.083z"/>
    <path style="fill:#273470;" d="M917.587,743.026c0,0-9.199,37.241-5.948,48.988c0,0,3.573-17.709,8.768-27.842L917.587,743.026z"/>
    <path style="fill:#2E2B4A;" d="M1056.094,1697.058c0,0,9.432,37.552,6.223,52.731c-3.206,15.181-0.397,33.957-0.397,33.957
	l15.178,1.997c0,0,5.042,3.898,10.388,10.289c1.539,1.842,12.48,10.883,36.352,8.488c10.696-1.075,2.85-17.579-1.784-24.37
	c-4.632-6.79-23.389-26.366-25.381-36.752c-1.995-10.385-4.029-43.543-4.029-43.543L1056.094,1697.058z"/>
    <path style="fill:#2E2B4A;" d="M903.334,1697.058c0,0-9.432,37.552-6.223,52.731c3.203,15.181,0.397,33.957,0.397,33.957
	l-15.178,1.997c0,0-5.045,3.898-10.388,10.289c-1.542,1.842-12.48,10.883-36.352,8.488c-10.7-1.075-2.851-17.579,1.78-24.37
	c4.632-6.79,23.389-26.366,25.384-36.752c1.995-10.385,4.026-43.543,4.026-43.543L903.334,1697.058z"/>
    <path style="fill:#D2DFF3;" d="M1076.677,919.224c0,0-26.875,49.569-26.875,85.788l78.831,105.464c0,0,31.382-3.339,43.099-13.994
	C1183.449,1085.829,1087.567,915.462,1076.677,919.224z"/>
    <path style="fill:#EBF2FB;" d="M1126.72,1107.917c0,0,35.199-12.878,44.787-22.068c0,0,6.001-1.242,7.065,1.42
	c1.067,2.665,4.39,19.477,3.323,23.208c-1.067,3.732-31.426,17.579-42.345,16.782
	C1139.551,1127.257,1125.339,1114.943,1126.72,1107.917z"/>
    <path style="fill:#F6B198;" d="M1176.161,1118.775c0,0,5.943,26.523,1.808,35.505c-3.239,7.032-104.4,26.897-128.366,26.897
	l-1.598-10.652C1048.006,1170.525,1166.401,1113.132,1176.161,1118.775z"/>
    <path style="fill:#F6B198;" d="M1056.506,1180.833c0,0-1.136,9.263-15.017,9.263c-6.657,0-11.953-3.068-18.14-5.123
	c-11.103-3.692-25.127-4.431-25.108-9.724c0.014-3.428,1.511-6.804,12.6-10.33c7.957-2.531,18.645-3.781,21.921-2.773
	c3.276,1.008,20.171,6.012,20.171,6.012L1056.506,1180.833z"/>
    <path style="fill:#F6B198;" d="M761.232,925.172c0,0-31.343-9.313-29.948-39.069c1.395-29.759,27.6-118.936,27.6-118.936
	l15.158,0.708C774.042,767.875,788.698,883.302,761.232,925.172z"/>
    <path style="fill:#F6B198;" d="M772.895,770.123c0,0,11.386-8.991,0-27.564c0,0,19.293-13.867,19.377-22.372
	c0.067-6.99-5.171-4.395-6.593-4.595c-1.422-0.2-26.964,2.798-32.957,23.769c-5.99,20.974,7.19,30.762,7.19,30.762H772.895z"/>
    <rect x="773.115" y="673.447" style="fill:#C9E8FB;" width="95.876" height="138.221"/>
    <path style="fill:#F6B198;" d="M762.31,724.861c9.644-7.991,22.377-9.407,23.369-9.269c1.423,0.2,6.66-2.395,6.593,4.595
	c-0.084,8.504-19.377,22.372-19.377,22.372L762.31,724.861z"/>
    <path style="fill:#273470;" d="M1020.659,742.812c-5.835-9.53-11.614-10.386-18.901-13.892h-0.003
	c-1.959-0.942-4.254-1.82-7.032-2.703c-13.701-6.882-9.308-16.954-31.915-25.339c-25.836-9.583-38.694,18.601-38.709,18.642
	c-11.399,17.015-7.312,51.62-7.312,51.62c3.57-8.749,10.058-16.565,10.058-16.565c8.502,8.713,21.418,11,21.418,11
	c9.366,3.359,44.354-0.672,44.354-0.672c1.712,8.349-2.603,20.629-2.603,20.629c-4.998,9.913,1.103,26.964,3.873,25.997
	c1.153-0.397,2.595-1.536,3.909-2.739c11.569-8.507,12.336,9.546,6.465,18.179c-8.288,12.192-12.642,8.427-12.642,8.427
	l0.859,23.388c1.226,0.492,1.036-9.344,10.083-20.729C1018.339,818.191,1044.708,782.067,1020.659,742.812z"/>
    <path style="fill:#273470;" d="M995.123,802.927c0,0,0.483,35.105-11.9,49.089c-12.386,13.98-34.666,24.291-47.418,22.21
	c-20.129-3.279-32.88-22.61-32.079-41.386l6.501-29.912c0,0-2.178,26.845,0.717,29.779c1.97,1.998,8.172-9.644,8.172-9.644
	s3.12-8.257,18.565-3.465c9.727,3.02,18.754,5.918,18.754,5.918s4.899,4.376,3.448,11.044c-1.45,6.668,4.965,7.065,8.16,5.07
	c3.195-1.998,18.42-21.854,20.68-40.558L995.123,802.927z"/>
    <path style="fill:#DC3D23;" d="M676.742,241.942H453.453c-14.253,0-25.809,11.553-25.809,25.808v129.072
	c0,14.256,11.555,25.816,25.809,25.816h36.232l27.878,44.315l27.876-44.315h131.303c14.261,0,25.822-11.561,25.822-25.816V267.75
	C702.563,253.494,691.003,241.942,676.742,241.942z"/>
    <path style="fill:#FBBF2B;" d="M1508.251,241.942h-223.289c-14.253,0-25.809,11.553-25.809,25.808v129.072
	c0,14.256,11.556,25.816,25.809,25.816h36.232l27.879,44.315l27.875-44.315h131.303c14.261,0,25.822-11.561,25.822-25.816V267.75
	C1534.073,253.494,1522.512,241.942,1508.251,241.942z"/>
</svg>
