<?xml version="1.0" encoding="UTF-8"?><svg id="uuid-07da271f-c340-4853-94c4-439162a35529" xmlns="http://www.w3.org/2000/svg" viewBox="0 0 443.42 390.43"><defs><style>.uuid-0b527ebe-9b2b-4354-9ed1-be4360f95edd{fill:#282d33;}.uuid-b4580491-7721-48ba-b8ca-630c258da694{fill:#0e74bb;}.uuid-90a888be-8230-49e9-9987-c411b6272de4{fill:#99b9ff;}.uuid-25c9e7ee-0a96-41f3-915d-b4ff72c53a2d{fill:#080717;}.uuid-1ba49495-0ca1-405c-b15b-d9cba9e6243b{fill:#1d1d1b;}</style></defs><path class="uuid-90a888be-8230-49e9-9987-c411b6272de4" d="M426.05,111.55c.18-1.53.29-3.06.29-4.64,0-21.6-17.51-39.13-39.13-39.13-3.66,0-7.21.54-10.57,1.48-3.84-27.98-27.82-49.55-56.86-49.55-31.71,0-57.42,25.71-57.42,57.4,0,.13,0,.25,0,.38-17.46,1.99-31.03,16.8-31.03,34.8,0,19.35,15.68,35.04,35.03,35.04h157.59s.02-.05.03-.08c.5.04,1,.08,1.51.08,9.89,0,17.91-8.02,17.91-17.92s-7.73-17.6-17.37-17.88Z"/><path d="M232.78,75.95l-20.72-23.31-29.39,9.41,16.6-24.03-16.51-20.91,24.25,4.7L225.44,0l1.23,27.64,27.96,6.72-26.45,14.08,7.31,26.03-2.71,1.48ZM213.06,49l17.51,19.71-6.14-21.87,21.33-11.35-22.16-5.32-.98-21.93-14.39,17.05-17.7-3.43,12.67,16.05-12.65,18.31,22.49-7.2Z"/><rect class="uuid-0b527ebe-9b2b-4354-9ed1-be4360f95edd" x="101.18" y="270.29" width="3.17" height="5.64" transform="translate(-187.22 305.7) rotate(-75.79)"/><rect class="uuid-0b527ebe-9b2b-4354-9ed1-be4360f95edd" x="101.18" y="270.29" width="3.17" height="5.64" transform="translate(-187.22 305.7) rotate(-75.79)"/><rect class="uuid-0b527ebe-9b2b-4354-9ed1-be4360f95edd" x="88.82" y="283.01" width="3.17" height="5.64" transform="translate(-74.31 35.34) rotate(-15.78)"/><rect class="uuid-0b527ebe-9b2b-4354-9ed1-be4360f95edd" x="70.39" y="279.89" width="5.64" height="3.17" transform="translate(-179.6 137.68) rotate(-45.79)"/><rect class="uuid-0b527ebe-9b2b-4354-9ed1-be4360f95edd" x="66.8" y="261.6" width="3.17" height="5.64" transform="translate(-204.73 265.83) rotate(-75.8)"/><rect class="uuid-0b527ebe-9b2b-4354-9ed1-be4360f95edd" x="79.16" y="248.88" width="3.17" height="5.64" transform="translate(-65.37 31.42) rotate(-15.77)"/><rect class="uuid-0b527ebe-9b2b-4354-9ed1-be4360f95edd" x="95.11" y="254.47" width="5.64" height="3.17" transform="translate(-153.9 147.71) rotate(-45.79)"/><rect class="uuid-25c9e7ee-0a96-41f3-915d-b4ff72c53a2d" x="154.77" y="95.03" width="17.31" height="3.17" transform="translate(-20.45 143.86) rotate(-45)"/><rect class="uuid-25c9e7ee-0a96-41f3-915d-b4ff72c53a2d" x="161.84" y="87.96" width="3.17" height="17.31" transform="translate(-20.45 143.87) rotate(-45)"/><path d="M296.63,198.96l3.78-12.91-3.78-12.91,12.91,3.78,12.91-3.78-3.78,12.91,3.78,12.91-12.91-3.78-12.91,3.78ZM309.54,191.88l8.24,2.41-2.41-8.24,2.41-8.24-8.24,2.41-8.24-2.41,2.41,8.24-2.41,8.24,8.24-2.41Z"/><rect x="12.74" y="228.88" width="320.03" height="11.09" transform="translate(-98.41 340.6) rotate(-74.99)"/><rect x="83.99" y="228.88" width="320.03" height="11.09" transform="translate(-45.61 409.41) rotate(-74.99)"/><rect x="206.19" y="105.59" width="69.66" height="11.09"/><rect x="195.16" y="146.76" width="69.66" height="11.09"/><rect x="184.13" y="187.92" width="69.66" height="11.09"/><rect x="173.1" y="229.08" width="69.66" height="11.09"/><rect x="162.07" y="270.25" width="69.66" height="11.09"/><rect x="151.04" y="311.41" width="69.66" height="11.09"/><rect x="140.01" y="352.57" width="69.66" height="11.09"/><rect class="uuid-0b527ebe-9b2b-4354-9ed1-be4360f95edd" x="359.64" y="339.78" width="57.99" height="3.43" transform="translate(-109.86 479.92) rotate(-56.83)"/><path class="uuid-b4580491-7721-48ba-b8ca-630c258da694" d="M63.16,101.02l351.81,223.19c5.78,3.85,5.68,14.29-.22,23.31l-10.68,16.33c-5.9,9.02-15.37,13.2-21.15,9.35L31.11,150.01l32.05-48.98Z"/><path class="uuid-25c9e7ee-0a96-41f3-915d-b4ff72c53a2d" d="M387.47,363.13c-.29,0-.58-.08-.85-.25L34.81,139.7c-.74-.47-.96-1.45-.49-2.19.47-.74,1.44-.96,2.19-.49l351.81,223.19c.74.47.96,1.45.49,2.19-.3.47-.82.73-1.34.73Z"/><path class="uuid-25c9e7ee-0a96-41f3-915d-b4ff72c53a2d" d="M402.19,332.9c-.29,0-.58-.08-.85-.25L49.53,109.47c-.74-.47-.96-1.45-.49-2.19.47-.74,1.45-.96,2.19-.49l351.81,223.19c.74.47.96,1.45.49,2.19-.3.47-.82.73-1.34.73Z"/><path d="M405.94,318.19l-32.05,48.98,9.03,6.02c5.78,3.85,15.25-.33,21.15-9.35l10.68-16.33c5.9-9.02,6-19.45.22-23.31l-9.03-6.02Z"/><polygon class="uuid-b4580491-7721-48ba-b8ca-630c258da694" points="63.17 101.15 0 94.07 31.23 149.96 63.17 101.15"/><polygon class="uuid-1ba49495-0ca1-405c-b15b-d9cba9e6243b" points="15.29 121.43 30.92 97.54 0 94.07 15.29 121.43"/></svg>